<svg width="16.000000" height="16.000000" viewBox="0 0 16 16" fill="none" xmlns="http://www.w3.org/2000/svg" xmlns:xlink="http://www.w3.org/1999/xlink">
	<desc>
			Created with Pixso.
	</desc>
	<defs/>
	<path id="Vector" d="M11.29 3.29C11.68 2.9 12.31 2.9 12.7 3.29C13.09 3.68 13.09 4.31 12.7 4.7L9.41 8L12.7 11.29C13.09 11.68 13.09 12.31 12.7 12.7C12.31 13.09 11.68 13.09 11.29 12.7L8 9.41L4.7 12.7C4.31 13.09 3.68 13.09 3.29 12.7C2.9 12.31 2.9 11.68 3.29 11.29L6.58 8L3.29 4.7C2.9 4.31 2.9 3.68 3.29 3.29C3.68 2.9 4.31 2.9 4.7 3.29L8 6.58L11.29 3.29Z" fill="#FFFFFF" fill-opacity="0.350000" fill-rule="nonzero"/>
</svg>
