<svg width="24.000000" height="24.000000" viewBox="0 0 24 24" fill="none" xmlns="http://www.w3.org/2000/svg" xmlns:xlink="http://www.w3.org/1999/xlink">
	<desc>
			Created with Pixso.
	</desc>
	<defs/>
	<path id="Vector" d="M11.99 10.58L15.78 6.79C16.18 6.39 16.8 6.39 17.19 6.79C17.59 7.18 17.59 7.81 17.19 8.2L13.4 11.99L17.19 15.78C17.59 16.18 17.59 16.8 17.19 17.19C16.8 17.59 16.18 17.59 15.78 17.19L11.99 13.4L8.2 17.19C7.81 17.59 7.18 17.59 6.79 17.19C6.39 16.8 6.39 16.18 6.79 15.78L10.58 11.99L6.79 8.2C6.39 7.81 6.39 7.18 6.79 6.79C7.18 6.39 7.81 6.39 8.2 6.79L11.99 10.58Z" fill="#000000" fill-opacity="0.350000" fill-rule="evenodd"/>
</svg>
