<svg width="16.000000" height="16.000000" viewBox="0 0 16 16" fill="none" xmlns="http://www.w3.org/2000/svg" xmlns:xlink="http://www.w3.org/1999/xlink">
	<desc>
			Created with Pixso.
	</desc>
	<defs/>
	<path id="Exclude" d="M1 8C1 11.86 4.13 15 8 15C9.85 15 11.63 14.26 12.94 12.94C14.26 11.63 15 9.85 15 8C15 4.13 11.86 1 8 1C4.13 1 1 4.13 1 8ZM8 3.62C7.06 3.62 6.19 4.12 5.72 4.93C5.55 5.2 5.54 5.55 5.69 5.83C5.85 6.11 6.15 6.28 6.47 6.28C6.79 6.27 7.08 6.09 7.23 5.81C7.39 5.54 7.68 5.37 8 5.37C8.48 5.37 8.87 5.76 8.87 6.25C8.87 6.73 8.48 7.12 8 7.12C7.51 7.12 7.12 7.51 7.12 8L7.12 8.87C7.12 9.35 7.51 9.75 8 9.75C8.48 9.75 8.87 9.35 8.87 8.87L8.87 8.71C10.06 8.28 10.78 7.05 10.56 5.8C10.35 4.55 9.27 3.63 8 3.62ZM8 12.37C8.48 12.37 8.87 11.98 8.87 11.5C8.87 11.02 8.48 10.62 8 10.62C7.51 10.62 7.12 11.02 7.12 11.5C7.12 11.98 7.51 12.37 8 12.37Z" fill="#000000" fill-opacity="0.850000" fill-rule="evenodd"/>
</svg>
