<svg width="20.000000" height="20.000000" viewBox="0 0 20 20" fill="none" xmlns="http://www.w3.org/2000/svg" xmlns:xlink="http://www.w3.org/1999/xlink">
	<desc>
			Created with Pixso.
	</desc>
	<defs/>
	<path id="Vector" d="M8.5 5.49C8.5 4.67 9.17 3.99 10 3.99C10.82 3.99 11.5 4.67 11.5 5.49C11.5 6.32 10.82 6.99 10 6.99C9.17 6.99 8.5 6.32 8.5 5.49ZM8.5 9.99C8.5 9.17 9.17 8.49 10 8.49C10.82 8.49 11.5 9.17 11.5 9.99C11.5 10.82 10.82 11.49 10 11.49C9.17 11.49 8.5 10.82 8.5 9.99ZM10 12.99C9.17 12.99 8.5 13.67 8.5 14.49C8.5 15.32 9.17 15.99 10 15.99C10.82 15.99 11.5 15.32 11.5 14.49C11.5 13.67 10.82 12.99 10 12.99Z" fill="#1F1F22" fill-opacity="1.000000" fill-rule="evenodd"/>
</svg>
