<svg width="32.000000" height="32.000000" viewBox="0 0 32 32" fill="none" xmlns="http://www.w3.org/2000/svg" xmlns:xlink="http://www.w3.org/1999/xlink">
	<desc>
			Created with Pixso.
	</desc>
	<defs/>
	<path id="Union" d="M25.293 26.7071L19.615 21.0293C15.8892 24.0137 10.4819 23.5665 7.29614 20.0089C4.1084 16.4491 4.25708 11.0165 7.63452 7.63649C11.012 4.25644 16.4404 4.10779 19.9976 7.29794C23.5483 10.4824 23.9983 15.8849 21.0276 19.6132L26.7073 25.2929C27.103 25.6889 27.103 26.3111 26.7073 26.7071C26.3113 27.1031 25.689 27.1031 25.293 26.7071ZM14.0156 21.0235C10.1519 21.0235 7.01978 17.889 7.01978 14.0224C7.01978 10.1558 10.1519 7.02126 14.0156 7.02126C17.8792 7.02126 21.0115 10.1558 21.0115 14.0224C21.0115 15.8792 20.2744 17.66 18.9624 18.973C17.6504 20.2859 15.8711 21.0235 14.0156 21.0235Z" clip-rule="evenodd" fill="#000000" fill-opacity="1.000000" fill-rule="evenodd"/>
</svg>
