<svg width="20.000000" height="20.000000" viewBox="0 0 20 20" fill="none" xmlns="http://www.w3.org/2000/svg" xmlns:xlink="http://www.w3.org/1999/xlink">
	<desc>
			Created with Pixso.
	</desc>
	<defs/>
	<path id="Vector" d="M10 0C4.47 0 0 4.47 0 10C0 15.52 4.47 20 10 20C15.52 20 20 15.52 20 10C20 4.47 15.52 0 10 0ZM15.71 9.28C15.8 9.38 15.87 9.49 15.92 9.61C16.02 9.86 16.02 10.13 15.92 10.37C15.87 10.5 15.8 10.61 15.71 10.7L10.71 15.7C10.52 15.89 10.26 16 10 16C9.73 16 9.47 15.89 9.28 15.7C9.1 15.51 8.99 15.26 8.99 14.99C8.99 14.72 9.1 14.47 9.28 14.28L12.59 10.99L5 10.99C4.44 10.99 4 10.55 4 9.99C4 9.44 4.44 9 5 9L12.59 9L9.28 5.71C9.03 5.45 8.93 5.08 9.03 4.74C9.12 4.39 9.39 4.12 9.74 4.03C10.08 3.94 10.45 4.04 10.71 4.29L15.71 9.28Z" fill="#1F1F22" fill-opacity="1.000000" fill-rule="evenodd"/>
</svg>
