<svg width="24.000000" height="24.000000" viewBox="0 0 24 24" fill="none" xmlns="http://www.w3.org/2000/svg" xmlns:xlink="http://www.w3.org/1999/xlink">
	<desc>
			Created with Pixso.
	</desc>
	<defs/>
	<path id="Shape" d="M8 12C8 13.1 7.1 14 6 14C4.89 14 4 13.1 4 12C4 10.89 4.89 10 6 10C7.1 10 8 10.89 8 12ZM14 12C14 13.1 13.1 14 12 14C10.89 14 10 13.1 10 12C10 10.89 10.89 10 12 10C13.1 10 14 10.89 14 12ZM20 12C20 13.1 19.1 14 18 14C16.89 14 16 13.1 16 12C16 10.89 16.89 10 18 10C19.1 10 20 10.89 20 12Z" fill="#1F1F22" fill-opacity="1.000000" fill-rule="evenodd"/>
</svg>
