<svg width="20.000000" height="20.000000" viewBox="0 0 20 20" fill="none" xmlns="http://www.w3.org/2000/svg" xmlns:xlink="http://www.w3.org/1999/xlink">
	<desc>
			Created with Pixso.
	</desc>
	<defs/>
	<path id="Vector" d="M4.29 10.71L9.28 15.71C9.38 15.8 9.49 15.87 9.61 15.92C9.86 16.02 10.13 16.02 10.37 15.92C10.5 15.87 10.61 15.8 10.7 15.71L15.7 10.71C15.95 10.45 16.05 10.08 15.96 9.74C15.87 9.39 15.6 9.12 15.25 9.03C14.9 8.94 14.53 9.03 14.28 9.29L10.99 12.59L10.99 5C10.99 4.45 10.55 4 9.99 4C9.44 4 8.99 4.45 8.99 5L8.99 12.59L5.71 9.29C5.52 9.1 5.26 8.99 5 8.99C4.73 8.99 4.48 9.1 4.29 9.29C4.1 9.48 3.99 9.73 3.99 10C3.99 10.26 4.1 10.52 4.29 10.71Z" fill="#1F1F22" fill-opacity="1.000000" fill-rule="nonzero"/>
</svg>
