<svg width="24.000000" height="24.000000" viewBox="0 0 24 24" fill="none" xmlns="http://www.w3.org/2000/svg" xmlns:xlink="http://www.w3.org/1999/xlink">
	<desc>
			Created with Pixso.
	</desc>
	<defs/>
	<path id="Union" d="M18.01 16.63L21.71 20.31C22.09 20.7 22.09 21.31 21.71 21.7C21.53 21.89 21.27 22 21 22C20.74 22 20.48 21.89 20.29 21.7L16.62 18.02C12.89 21.01 7.48 20.56 4.29 17C1.1 13.44 1.25 8.01 4.63 4.63C8.01 1.25 13.44 1.1 16.99 4.29C20.55 7.48 20.99 12.9 18.01 16.63ZM4.01 11.02C4.01 14.88 7.15 18.02 11.01 18.02C12.87 18.02 14.65 17.28 15.96 15.97C17.27 14.66 18.01 12.87 18.01 11.02C18.01 7.15 14.87 4.02 11.01 4.02C7.15 4.02 4.01 7.15 4.01 11.02Z" fill="#1F1F22" fill-opacity="1.000000" fill-rule="evenodd"/>
</svg>
