<svg width="32.000000" height="32.000000" viewBox="0 0 32 32" fill="none" xmlns="http://www.w3.org/2000/svg" xmlns:xlink="http://www.w3.org/1999/xlink">
	<desc>
			Created with Pixso.
	</desc>
	<defs/>
	<path id="path" d="M11.31 18.15L15.59 13.7C15.98 13.3 15.96 12.67 15.56 12.28C15.16 11.9 14.53 11.91 14.15 12.31L9.86 16.77C9.75 16.89 9.63 17.04 9.51 17.22C9.26 17.57 9.08 17.94 8.96 18.32C8.83 18.73 8.77 19.14 8.79 19.55C8.8 19.7 8.82 19.85 8.85 20.01C8.86 20.08 8.88 20.15 8.9 20.23C9.05 20.82 9.37 21.37 9.86 21.87C10.37 22.4 10.93 22.75 11.53 22.91C11.58 22.92 11.63 22.93 11.68 22.94C11.85 22.98 12.01 23 12.18 23.01C12.57 23.02 12.96 22.96 13.35 22.83C13.73 22.7 14.09 22.51 14.43 22.26C14.6 22.13 14.75 22.01 14.86 21.89L23.45 12.96C23.6 12.79 23.77 12.58 23.95 12.32C24.3 11.8 24.57 11.27 24.75 10.71C24.95 10.1 25.02 9.49 24.99 8.89C24.97 8.7 24.95 8.5 24.91 8.31C24.9 8.24 24.89 8.18 24.87 8.11C24.66 7.22 24.18 6.39 23.45 5.62C22.68 4.82 21.84 4.32 20.94 4.11C20.9 4.1 20.87 4.09 20.83 4.08C20.62 4.04 20.41 4.01 20.19 4C19.62 3.97 19.05 4.06 18.47 4.26C17.93 4.45 17.4 4.72 16.91 5.1C16.65 5.28 16.45 5.46 16.29 5.62L6.29 16.03C6.23 16.09 6.16 16.17 6.07 16.28C5.9 16.47 5.74 16.68 5.59 16.91C5.08 17.62 4.69 18.36 4.42 19.13C4.06 20.14 3.93 21.12 4.03 22.08C4.04 22.17 4.05 22.27 4.06 22.36C4.09 22.57 4.14 22.78 4.19 22.99C4.47 24.06 5.05 25.05 5.93 25.96C6.86 26.93 7.87 27.55 8.97 27.83C9.12 27.86 9.27 27.9 9.43 27.92C9.56 27.94 9.69 27.96 9.82 27.97C10.72 28.06 11.64 27.92 12.59 27.55C13.33 27.27 14.04 26.86 14.74 26.33C14.95 26.17 15.16 26 15.35 25.82C15.45 25.73 15.53 25.65 15.59 25.59L22.73 18.16C23.12 17.75 23.11 17.13 22.7 16.74C22.3 16.36 21.68 16.37 21.29 16.77L14.15 24.21C14.12 24.24 14.07 24.28 14 24.35C13.85 24.48 13.69 24.61 13.52 24.74C12.98 25.15 12.43 25.47 11.87 25.69C11.13 25.97 10.42 26.06 9.75 25.95C8.91 25.81 8.12 25.35 7.37 24.58C6.66 23.83 6.22 23.04 6.06 22.19C5.92 21.44 6 20.64 6.3 19.8C6.51 19.21 6.82 18.63 7.22 18.06C7.34 17.88 7.47 17.72 7.6 17.57C7.66 17.5 7.7 17.45 7.73 17.42L17.73 7.01C17.82 6.93 17.99 6.78 18.1 6.7C18.43 6.45 18.77 6.27 19.12 6.15C19.53 6.01 19.92 5.96 20.3 6.02C20.34 6.03 20.38 6.03 20.42 6.04C20.97 6.15 21.49 6.48 22 7.01C22.52 7.55 22.84 8.11 22.95 8.69C22.96 8.72 22.96 8.76 22.97 8.8C23.03 9.22 22.99 9.65 22.84 10.1C22.73 10.47 22.54 10.83 22.3 11.19C22.23 11.3 22.15 11.4 22.07 11.49L13.43 20.49C13.39 20.53 13.33 20.58 13.24 20.65C13.06 20.78 12.88 20.87 12.7 20.94C12.49 21.01 12.28 21.03 12.09 20.99C11.83 20.93 11.57 20.76 11.3 20.49C11.03 20.21 10.87 19.92 10.81 19.63C10.77 19.41 10.79 19.18 10.86 18.93C10.93 18.73 11.02 18.54 11.16 18.35C11.2 18.29 11.27 18.2 11.31 18.15Z" fill="#1F1F22" fill-opacity="1.000000" fill-rule="evenodd"/>
</svg>
