<svg width="32.000000" height="32.000000" viewBox="0 0 32 32" fill="none" xmlns="http://www.w3.org/2000/svg" xmlns:xlink="http://www.w3.org/1999/xlink">
	<desc>
			Created with Pixso.
	</desc>
	<defs/>
	<path id="Shape" d="M12 16C12 17.1 11.1 18 10 18C8.89 18 8 17.1 8 16C8 14.89 8.89 14 10 14C11.1 14 12 14.89 12 16ZM18 16C18 17.1 17.1 18 16 18C14.89 18 14 17.1 14 16C14 14.89 14.89 14 16 14C17.1 14 18 14.89 18 16ZM24 16C24 17.1 23.1 18 22 18C20.89 18 20 17.1 20 16C20 14.89 20.89 14 22 14C23.1 14 24 14.89 24 16Z" fill="#1F1F22" fill-opacity="1.000000" fill-rule="evenodd"/>
</svg>
