<svg width="32.000000" height="32.000000" viewBox="0 0 32 32" fill="none" xmlns="http://www.w3.org/2000/svg" xmlns:xlink="http://www.w3.org/1999/xlink">
	<desc>
			Created with Pixso.
	</desc>
	<defs>
		<clipPath id="clip13558_22814">
			<rect id="32 Stroke/ic_srv_cross_32_stroke" width="32.000000" height="32.000000" fill="white" fill-opacity="0"/>
		</clipPath>
	</defs>
	<g clip-path="url(#clip13558_22814)">
		<path id="Vector" d="M17.41 16L24.2 22.78C24.59 23.18 24.59 23.8 24.2 24.2C23.8 24.59 23.18 24.59 22.78 24.2L16 17.41L9.21 24.2C8.81 24.59 8.19 24.59 7.79 24.2C7.4 23.8 7.4 23.18 7.79 22.78L14.58 16L7.79 9.21C7.4 8.81 7.4 8.19 7.79 7.79C8.19 7.4 8.81 7.4 9.21 7.79L16 14.58L22.78 7.79C23.18 7.4 23.8 7.4 24.2 7.79C24.59 8.19 24.59 8.81 24.2 9.21L17.41 16Z" fill="#1F1F22" fill-opacity="1.000000" fill-rule="evenodd"/>
	</g>
</svg>
