<svg width="20.000000" height="20.000000" viewBox="0 0 20 20" fill="none" xmlns="http://www.w3.org/2000/svg" xmlns:xlink="http://www.w3.org/1999/xlink">
	<desc>
			Created with Pixso.
	</desc>
	<defs/>
	<path id="Vector" d="M5.5 11.49C4.67 11.49 4 10.82 4 9.99C4 9.17 4.67 8.49 5.5 8.49C6.32 8.49 7 9.17 7 9.99C7 10.82 6.32 11.49 5.5 11.49ZM10 11.49C9.17 11.49 8.5 10.82 8.5 9.99C8.5 9.17 9.17 8.49 10 8.49C10.82 8.49 11.5 9.17 11.5 9.99C11.5 10.82 10.82 11.49 10 11.49ZM13 9.99C13 10.82 13.67 11.49 14.5 11.49C15.32 11.49 16 10.82 16 9.99C16 9.17 15.32 8.49 14.5 8.49C13.67 8.49 13 9.17 13 9.99Z" fill="#1F1F22" fill-opacity="1.000000" fill-rule="evenodd"/>
</svg>
