<svg width="16.000000" height="16.000000" viewBox="0 0 16 16" fill="none" xmlns="http://www.w3.org/2000/svg" xmlns:xlink="http://www.w3.org/1999/xlink">
	<desc>
			Created with Pixso.
	</desc>
	<defs/>
	<path id="path" d="M10.63 2C10.08 2 9.77 2.24 8.67 3.33L8.67 3.33L3.73 8.22C3.26 8.7 3 9.33 3 10C3 10.48 3 10.89 3.13 11.33C3.25 11.75 3.51 12.26 4.11 12.86C4.71 13.46 5.22 13.72 5.63 13.85C6.07 13.97 6.46 13.98 6.94 13.98C7.59 13.98 8.21 13.71 8.7 13.21L8.71 13.2L13.27 8.77C13.66 8.38 14.3 8.39 14.68 8.78C15.07 9.18 15.06 9.81 14.66 10.2L10.11 14.63C9.28 15.46 8.16 15.98 6.94 15.98L6.91 15.98C6.44 15.98 5.79 15.98 5.06 15.76C4.3 15.53 3.51 15.09 2.69 14.28C1.88 13.46 1.43 12.66 1.21 11.89C0.99 11.16 0.99 10.5 1 10.04L1 10C1 8.79 1.47 7.65 2.32 6.8L2.33 6.8L7.26 1.91C7.3 1.87 7.34 1.83 7.38 1.79C8.28 0.89 9.17 0 10.63 0C11.53 0 12.69 0.36 13.58 1.25C14.48 2.15 14.85 3.31 14.85 4.21C14.85 5.67 13.85 6.66 12.93 7.59L12.35 8.15C12.01 8.5 11.54 8.96 11.05 9.44C10.07 10.41 9.01 11.46 8.68 11.78C7.57 12.89 6 12.64 5.14 11.78C4.25 10.89 4.07 9.34 5.16 8.26C5.48 7.93 5.92 7.5 6.35 7.07L6.37 7.05C6.79 6.63 7.21 6.22 7.51 5.93C7.9 5.53 8.53 5.54 8.92 5.93C9.31 6.32 9.31 6.95 8.92 7.34C8.62 7.64 8.2 8.05 7.78 8.47L7.76 8.49C7.33 8.92 6.89 9.35 6.57 9.67C6.44 9.81 6.4 9.93 6.41 10.03C6.41 10.15 6.46 10.27 6.55 10.36C6.65 10.45 6.78 10.51 6.91 10.52C7.02 10.52 7.14 10.49 7.27 10.37C7.6 10.04 8.66 8.98 9.64 8.02C10.13 7.53 10.6 7.07 10.95 6.73L11.52 6.17C12.63 5.06 12.85 4.76 12.85 4.21C12.85 3.8 12.66 3.16 12.17 2.67C11.68 2.18 11.05 2 10.63 2Z" fill="#1F1F22" fill-opacity="1.000000" fill-rule="evenodd"/>
</svg>
