<svg width="32.000000" height="32.000000" viewBox="0 0 32 32" fill="none" xmlns="http://www.w3.org/2000/svg" xmlns:xlink="http://www.w3.org/1999/xlink">
	<desc>
			Created with Pixso.
	</desc>
	<defs/>
	<path id="Vector" d="M16 3C8.82 3 3 8.82 3 16C3 23.17 8.82 29 16 29C23.17 29 29 23.17 29 16C29 8.82 23.17 3 16 3ZM17.7 9.29L23.7 15.29C23.9 15.48 24 15.72 24 16C24 16.27 23.9 16.51 23.7 16.7L17.7 22.7C17.31 23.1 16.68 23.1 16.29 22.7C15.89 22.31 15.89 21.68 16.29 21.29L20.58 17L9 17C8.43 17 8 16.56 8 16C8 15.44 8.43 15 9 15L20.58 15L16.29 10.7C15.89 10.31 15.89 9.68 16.29 9.29C16.68 8.89 17.31 8.89 17.7 9.29Z" fill="#1F1F22" fill-opacity="1.000000" fill-rule="evenodd"/>
</svg>
