<svg width="24.000000" height="24.000000" viewBox="0 0 24 24" fill="none" xmlns="http://www.w3.org/2000/svg" xmlns:xlink="http://www.w3.org/1999/xlink">
	<desc>
			Created with Pixso.
	</desc>
	<defs/>
	<path id="Vector" d="M11.99 10.58L16.28 6.29C16.68 5.89 17.3 5.89 17.69 6.29C18.09 6.68 18.09 7.31 17.69 7.7L13.4 11.99L17.69 16.28C18.09 16.68 18.09 17.3 17.69 17.69C17.3 18.09 16.68 18.09 16.28 17.69L11.99 13.4L7.7 17.69C7.31 18.09 6.68 18.09 6.29 17.69C5.89 17.3 5.89 16.68 6.29 16.28L10.58 11.99L6.29 7.7C5.89 7.31 5.89 6.68 6.29 6.29C6.68 5.89 7.31 5.89 7.7 6.29L11.99 10.58Z" fill="#1F1F22" fill-opacity="1.000000" fill-rule="evenodd"/>
</svg>
