<svg width="16.000000" height="16.000000" viewBox="0 0 16 16" fill="none" xmlns="http://www.w3.org/2000/svg" xmlns:xlink="http://www.w3.org/1999/xlink">
	<desc>
			Created with Pixso.
	</desc>
	<defs/>
	<path id="Vector" d="M3.5 9.49C2.67 9.49 2 8.82 2 7.99C2 7.17 2.67 6.49 3.5 6.49C4.32 6.49 5 7.17 5 7.99C5 8.82 4.32 9.49 3.5 9.49ZM8 9.49C7.17 9.49 6.5 8.82 6.5 7.99C6.5 7.17 7.17 6.49 8 6.49C8.82 6.49 9.5 7.17 9.5 7.99C9.5 8.82 8.82 9.49 8 9.49ZM11 7.99C11 8.82 11.67 9.49 12.5 9.49C13.32 9.49 14 8.82 14 7.99C14 7.17 13.32 6.49 12.5 6.49C11.67 6.49 11 7.17 11 7.99Z" fill="#1F1F22" fill-opacity="1.000000" fill-rule="evenodd"/>
</svg>
