<svg width="20.000000" height="20.000000" viewBox="0 0 20 20" fill="none" xmlns="http://www.w3.org/2000/svg" xmlns:xlink="http://www.w3.org/1999/xlink">
	<desc>
			Created with Pixso.
	</desc>
	<defs/>
	<path id="Vector" d="M15.92 9.61C15.87 9.49 15.8 9.38 15.71 9.28L10.71 4.29C10.45 4.04 10.08 3.94 9.74 4.03C9.39 4.12 9.12 4.39 9.03 4.74C8.93 5.08 9.03 5.45 9.28 5.71L12.59 9L5 9C4.44 9 4 9.44 4 9.99C4 10.55 4.44 10.99 5 10.99L12.59 10.99L9.28 14.28C9.1 14.47 8.99 14.72 8.99 14.99C8.99 15.26 9.1 15.51 9.28 15.7C9.47 15.89 9.73 16 10 16C10.26 16 10.52 15.89 10.71 15.7L15.71 10.7C15.8 10.61 15.87 10.5 15.92 10.37C16.02 10.13 16.02 9.86 15.92 9.61Z" fill="#1F1F22" fill-opacity="1.000000" fill-rule="nonzero"/>
</svg>
