<svg width="32.000000" height="32.000000" viewBox="0 0 32 32" fill="none" xmlns="http://www.w3.org/2000/svg" xmlns:xlink="http://www.w3.org/1999/xlink">
	<desc>
			Created with Pixso.
	</desc>
	<defs/>
	<path id="Union" d="M11.5 6C9.64 6 7.88 6.86 6.74 8.33L1.77 14.77C1.22 15.49 1.22 16.5 1.77 17.22L6.74 23.66C7.88 25.13 9.64 26 11.5 26L25 26C27.76 26 30 23.76 30 21L30 11C30 8.23 27.76 6 25 6L11.5 6ZM8.33 9.55C9.09 8.57 10.26 8 11.5 8L25 8C26.65 8 28 9.34 28 11L28 21C28 22.65 26.65 24 25 24L11.5 24C10.26 24 9.09 23.42 8.33 22.44L3.36 16L8.33 9.55ZM14.2 11.29C13.81 10.9 13.18 10.9 12.79 11.29C12.4 11.68 12.4 12.31 12.79 12.7L16.08 16L12.79 19.29C12.4 19.68 12.4 20.31 12.79 20.7C13.18 21.09 13.81 21.09 14.2 20.7L17.5 17.41L20.79 20.7C21.18 21.09 21.81 21.09 22.2 20.7C22.59 20.31 22.59 19.68 22.2 19.29L18.91 16L22.2 12.7C22.59 12.31 22.59 11.68 22.2 11.29C21.81 10.9 21.18 10.9 20.79 11.29L17.5 14.58L14.2 11.29Z" fill="#1F1F22" fill-opacity="1.000000" fill-rule="evenodd"/>
</svg>
