<svg width="20.000000" height="20.000000" viewBox="0 0 20 20" fill="none" xmlns="http://www.w3.org/2000/svg" xmlns:xlink="http://www.w3.org/1999/xlink">
	<desc>
			Created with Pixso.
	</desc>
	<defs/>
	<path id="Union" d="M16.01 14.63L19.71 18.31C20.09 18.7 20.09 19.31 19.71 19.7C19.53 19.89 19.27 20 19 20C18.74 20 18.48 19.89 18.29 19.7L14.62 16.02C10.89 19.01 5.48 18.56 2.29 15C-0.9 11.44 -0.75 6.01 2.63 2.63C6.01 -0.75 11.44 -0.9 14.99 2.29C18.55 5.48 18.99 10.9 16.01 14.63ZM2.01 9.02C2.01 12.88 5.15 16.02 9.01 16.02C10.87 16.02 12.65 15.28 13.96 13.97C15.27 12.66 16.01 10.87 16.01 9.02C16.01 5.15 12.87 2.02 9.01 2.02C5.15 2.02 2.01 5.15 2.01 9.02Z" fill="#1F1F22" fill-opacity="1.000000" fill-rule="evenodd"/>
</svg>
