<svg width="32.000000" height="32.000000" viewBox="0 0 32 32" fill="none" xmlns="http://www.w3.org/2000/svg" xmlns:xlink="http://www.w3.org/1999/xlink">
	<desc>
			Created with Pixso.
	</desc>
	<defs/>
	<path id="Union" d="M9 6C7.34 6 6 7.34 6 9L6 12C6 12.55 5.55 13 5 13C4.44 13 4 12.55 4 12L4 9C4 6.23 6.23 4 9 4L12 4C12.55 4 13 4.44 13 5C13 5.55 12.55 6 12 6L9 6ZM19 5C19 4.44 19.44 4 20 4L23 4C25.76 4 28 6.23 28 9L28 12C28 12.55 27.55 13 27 13C26.44 13 26 12.55 26 12L26 9C26 7.34 24.65 6 23 6L20 6C19.44 6 19 5.55 19 5ZM16.5 10C17.05 10 17.5 10.44 17.5 11L17.5 14.5C17.5 15.97 16.85 17.63 15.05 18.83C14.59 19.13 13.97 19.01 13.66 18.55C13.55 18.38 13.5 18.19 13.5 18C13.5 17.67 13.65 17.36 13.94 17.16C15.14 16.36 15.5 15.35 15.5 14.5L15.5 11C15.5 10.44 15.94 10 16.5 10ZM12.63 12L12.63 14.55C12.63 15.1 12.18 15.55 11.63 15.55C11.08 15.55 10.63 15.1 10.63 14.55L10.63 12C10.63 11.44 11.08 11 11.63 11C12.18 11 12.63 11.44 12.63 12ZM20.63 11C21.18 11 21.63 11.44 21.63 12L21.63 14.55C21.63 15.1 21.18 15.55 20.63 15.55C20.08 15.55 19.63 15.1 19.63 14.55L19.63 12C19.63 11.44 20.08 11 20.63 11ZM5 19C5.55 19 6 19.44 6 20L6 23C6 24.65 7.34 26 9 26L12 26C12.55 26 13 26.44 13 27C13 27.55 12.55 28 12 28L9 28C6.23 28 4 25.76 4 23L4 20C4 19.44 4.44 19 5 19ZM27 19C27.55 19 28 19.44 28 20L28 23C28 25.76 25.76 28 23 28L20 28C19.44 28 19 27.55 19 27C19 26.44 19.44 26 20 26L23 26C24.65 26 26 24.65 26 23L26 20C26 19.44 26.44 19 27 19ZM11.69 20.33C12.02 19.88 12.65 19.79 13.09 20.12C13.94 20.75 14.74 20.99 16 20.99C17.28 20.99 18.04 20.76 18.89 20.12C19.33 19.79 19.96 19.88 20.29 20.32C20.43 20.5 20.5 20.71 20.5 20.92C20.5 21.22 20.36 21.52 20.1 21.72C18.84 22.67 17.62 22.99 16 22.99C14.38 22.99 13.15 22.65 11.9 21.72C11.63 21.53 11.5 21.23 11.5 20.92C11.5 20.71 11.56 20.5 11.69 20.33Z" fill="#1F1F22" fill-opacity="1.000000" fill-rule="evenodd"/>
</svg>
