<svg width="16.000000" height="16.000000" viewBox="0 0 16 16" fill="none" xmlns="http://www.w3.org/2000/svg" xmlns:xlink="http://www.w3.org/1999/xlink">
	<desc>
			Created with Pixso.
	</desc>
	<defs/>
	<path id="Vector" d="M6.5 3.49C6.5 2.67 7.17 1.99 8 1.99C8.82 1.99 9.5 2.67 9.5 3.49C9.5 4.32 8.82 4.99 8 4.99C7.17 4.99 6.5 4.32 6.5 3.49ZM6.5 7.99C6.5 7.17 7.17 6.49 8 6.49C8.82 6.49 9.5 7.17 9.5 7.99C9.5 8.82 8.82 9.49 8 9.49C7.17 9.49 6.5 8.82 6.5 7.99ZM8 10.99C7.17 10.99 6.5 11.67 6.5 12.49C6.5 13.32 7.17 13.99 8 13.99C8.82 13.99 9.5 13.32 9.5 12.49C9.5 11.67 8.82 10.99 8 10.99Z" fill="#1F1F22" fill-opacity="1.000000" fill-rule="evenodd"/>
</svg>
