<svg width="20" height="20" viewBox="0 0 20 20" fill="none" xmlns="http://www.w3.org/2000/svg">
<path fill-rule="evenodd" clip-rule="evenodd" d="M7 1C7 0.44 6.55 0 6 0C5.44 0 5 0.44 5 1V2H3C1.34 2 0 3.34 0 5V17C0 18.65 1.34 20 3 20H17C18.65 20 20 18.65 20 17V5C20 3.34 18.65 2 17 2H15V1C15 0.44 14.55 0 14 0C13.44 0 13 0.44 13 1V2H7V1ZM13 5V4H7V5C7 5.55 6.55 6 6 6C5.44 6 5 5.55 5 5V4H3C2.44 4 2 4.44 2 5V8H18V5C18 4.44 17.55 4 17 4H15V5C15 5.55 14.55 6 14 6C13.44 6 13 5.55 13 5ZM18 10H2V17C2 17.55 2.44 18 3 18H17C17.55 18 18 17.55 18 17V10Z" fill="#1F1F22"/>
</svg>
