<svg width="20" height="20" viewBox="0 0 20 20" fill="none" xmlns="http://www.w3.org/2000/svg">
<path d="M2 4C2.55228 4 3 4.44772 3 5V13C3 15.7614 5.23858 18 8 18H14C14.5523 18 15 18.4477 15 19C15 19.5523 14.5523 20 14 20H8C4.13401 20 1 16.866 1 13V5C1 4.44772 1.44772 4 2 4Z" fill="#1F1F22"/>
<path fill-rule="evenodd" clip-rule="evenodd" d="M16 0C17.6569 6.34754e-08 19 1.34315 19 3V13C19 14.6569 17.6569 16 16 16H8C6.34315 16 5 14.6569 5 13V3C5 1.34315 6.34315 6.70719e-07 8 0H16ZM8 2C7.44772 2 7 2.44772 7 3V13C7 13.5523 7.44772 14 8 14H16C16.5523 14 17 13.5523 17 13V3C17 2.44772 16.5523 2 16 2H8Z" fill="#1F1F22"/>
</svg>
