<svg width="24" height="24" viewBox="0 0 24 24" fill="none" xmlns="http://www.w3.org/2000/svg">
<path d="M20 12C20 7.58172 16.4183 4 12 4C7.58172 4 4 7.58172 4 12C4 16.4183 7.58172 20 12 20C13.6462 20 15.1736 19.5041 16.4443 18.6533L16.5479 18.5928C16.795 18.4671 17.0853 18.4483 17.3486 18.5459L17.3496 18.5469H17.3516C17.3532 18.5475 17.3554 18.5487 17.3584 18.5498C17.3649 18.5522 17.3751 18.5559 17.3877 18.5605C17.4129 18.5699 17.4498 18.584 17.4971 18.6016C17.5919 18.6368 17.7284 18.6875 17.8936 18.749C18.2237 18.872 18.6701 19.0385 19.1348 19.2129C19.1755 19.2282 19.2167 19.2433 19.2578 19.2588C19.2357 19.1997 19.2132 19.1412 19.1914 19.083C19.0206 18.626 18.8597 18.1912 18.7412 17.8711C18.6821 17.7112 18.6334 17.5799 18.5996 17.4883C18.5827 17.4425 18.5695 17.4062 18.5605 17.3818C18.5561 17.3698 18.5521 17.3608 18.5498 17.3545C18.5486 17.3513 18.5484 17.3483 18.5479 17.3467L18.5469 17.3447C18.4364 17.0444 18.4764 16.7093 18.6543 16.4434C19.5045 15.1729 20 13.6456 20 12ZM22 12C22 13.8672 21.4861 15.6164 20.5938 17.1133C20.6014 17.1339 20.6092 17.1551 20.6172 17.1768C20.7352 17.4956 20.8956 17.9285 21.0654 18.3828C21.4102 19.305 21.7781 20.2773 21.9189 20.6064C22.0797 20.9822 21.996 21.418 21.707 21.707C21.418 21.996 20.9822 22.0797 20.6064 21.9189C20.3433 21.8064 19.3725 21.4381 18.4316 21.085C17.9691 20.9114 17.5244 20.7456 17.1953 20.623C17.1671 20.6126 17.1397 20.6026 17.1133 20.5928C15.6163 21.4853 13.8674 22 12 22C6.47715 22 2 17.5228 2 12C2 6.47715 6.47715 2 12 2C17.5228 2 22 6.47715 22 12Z" fill="#1F1F22"/>
</svg>
