<svg width="32" height="32" viewBox="0 0 32 32" fill="none" xmlns="http://www.w3.org/2000/svg">
<path d="M20.6689 6.05471C22.8846 5.77016 25.1773 6.5962 26.6514 8.69339C27.8936 10.4607 28.2154 12.3154 27.8701 14.1211C27.5318 15.8902 26.567 17.5529 25.3447 19.0323C22.9047 21.9856 19.2351 24.4516 16.4599 25.8877C16.1717 26.0369 15.8283 26.0369 15.54 25.8877C12.7649 24.4516 9.09531 21.9856 6.65526 19.0323C5.43301 17.5529 4.46819 15.8902 4.12987 14.1211C3.78461 12.3154 4.1064 10.4607 5.34862 8.69339C6.82268 6.5962 9.11542 5.77016 11.331 6.05471C13.0744 6.27864 14.7603 7.1863 16 8.66604C17.2397 7.1863 18.9256 6.27864 20.6689 6.05471Z" fill="#1F1F22"/>
</svg>
