<svg width="20" height="20" viewBox="0 0 20 20" fill="none" xmlns="http://www.w3.org/2000/svg">
<path d="M9 0C9.55229 0 10 0.447715 10 1C10 1.55228 9.55229 2 9 2H4C3.44772 2 3 2.44772 3 3V17C3 17.5523 3.44772 18 4 18H14C14.5523 18 15 17.5523 15 17V13.5C15 12.9477 15.4477 12.5 16 12.5C16.5523 12.5 17 12.9477 17 13.5V17C17 18.6569 15.6569 20 14 20H4C2.34315 20 1 18.6569 1 17V3C1 1.34315 2.34315 4.83192e-08 4 0H9Z" fill="#1F1F22"/>
<path d="M12 14C12.5523 14 13 14.4477 13 15C13 15.5523 12.5523 16 12 16H6C5.44772 16 5 15.5523 5 15C5 14.4477 5.44772 14 6 14H12Z" fill="#1F1F22"/>
<path d="M7 10C7.55228 10 8 10.4477 8 11C8 11.5523 7.55228 12 7 12H6C5.44772 12 5 11.5523 5 11C5 10.4477 5.44772 10 6 10H7Z" fill="#1F1F22"/>
<path fill-rule="evenodd" clip-rule="evenodd" d="M15.8096 5.20215C16.145 5.02475 16.7425 4.8636 17.2949 5.22949L17.4102 5.31348L17.4111 5.31445C18.4101 6.12772 18.9999 7.32479 19 8.60352C19 8.80453 18.9943 9.19876 18.8506 9.56543C18.7725 9.76458 18.6336 10.0094 18.3838 10.2041C18.1207 10.4091 17.81 10.5 17.5 10.5H11.5C11.1899 10.5 10.8793 10.4091 10.6162 10.2041C10.3664 10.0094 10.2275 9.76456 10.1494 9.56543C10.0057 9.19878 10 8.8047 10 8.60352C10.0001 7.3461 10.5727 6.16354 11.5439 5.35156L11.5459 5.34961C11.7257 5.2 11.9914 5.04257 12.3477 5.01855C12.6722 4.99675 12.9463 5.09601 13.1348 5.18359C14.0461 5.60725 14.9862 5.61807 15.8096 5.20215ZM16.415 7.12207C15.1618 7.65485 13.8123 7.61265 12.584 7.12207C12.2297 7.51448 12.0304 7.99986 12.0059 8.5H16.9941C16.9697 7.99849 16.77 7.5145 16.415 7.12207Z" fill="#1F1F22"/>
<path d="M7 6C7.55228 6 8 6.44772 8 7C8 7.55228 7.55228 8 7 8H6C5.44772 8 5 7.55228 5 7C5 6.44772 5.44772 6 6 6H7Z" fill="#1F1F22"/>
<path fill-rule="evenodd" clip-rule="evenodd" d="M14.5 0C15.8807 0 17 1.11929 17 2.5C17 3.88071 15.8807 5 14.5 5C13.1193 5 12 3.88071 12 2.5C12 1.11929 13.1193 0 14.5 0ZM14.5 2C14.2239 2 14 2.22386 14 2.5C14 2.77614 14.2239 3 14.5 3C14.7761 3 15 2.77614 15 2.5C15 2.22386 14.7761 2 14.5 2Z" fill="#1F1F22"/>
</svg>
