<svg width="32" height="32" viewBox="0 0 32 32" fill="none" xmlns="http://www.w3.org/2000/svg">
<path d="M18 6C18.5523 6 19 6.44772 19 7C19 7.55228 18.5523 8 18 8H8C6.89543 8 6 8.89543 6 10V25.1309L9.68945 22.6719C10.3465 22.2339 11.1185 22 11.9082 22H24C25.1046 22 26 21.1046 26 20V16C26 15.4477 26.4477 15 27 15C27.5523 15 28 15.4477 28 16V20C28 22.2091 26.2091 24 24 24H11.9082C11.5134 24 11.1273 24.1169 10.7988 24.3359L5.55469 27.832C5.2479 28.0366 4.85344 28.0557 4.52832 27.8818C4.20316 27.7078 4 27.3688 4 27V10C4 7.79086 5.79086 6 8 6H18ZM27 2C27.5523 2 28 2.44772 28 3V6H31C31.5523 6 32 6.44772 32 7C32 7.55228 31.5523 8 31 8H28V11C28 11.5523 27.5523 12 27 12C26.4477 12 26 11.5523 26 11V8H23C22.4477 8 22 7.55228 22 7C22 6.44772 22.4477 6 23 6H26V3C26 2.44772 26.4477 2 27 2Z" fill="#1F1F22"/>
</svg>
