<svg width="32" height="32" viewBox="0 0 32 32" fill="none" xmlns="http://www.w3.org/2000/svg">
<path d="M20.6707 5.04973C22.9064 4.77076 25.1979 5.66129 26.6604 7.8266C29.1856 11.5654 27.7874 15.7373 25.3844 19.0872C22.9606 22.466 19.2959 25.3611 16.4745 26.8804C16.1784 27.0399 15.8216 27.0399 15.5255 26.8804C12.7041 25.3611 9.03944 22.466 6.61565 19.0872C4.21258 15.7373 2.81438 11.5654 5.3396 7.8266C6.80213 5.6613 9.09356 4.77076 11.3293 5.04973C13.0812 5.26843 14.7644 6.19925 16 7.72126C17.2356 6.19925 18.9188 5.26843 20.6707 5.04973ZM25.0026 8.94438C23.9769 7.42566 22.4348 6.8425 20.9187 7.03168C19.3838 7.22327 17.8227 8.21941 16.8836 9.98899C16.7102 10.3157 16.3701 10.5206 16 10.5206C15.6299 10.5206 15.2898 10.3157 15.1164 9.98899C14.1773 8.21941 12.6162 7.22327 11.0813 7.03168C9.56523 6.8425 8.02315 7.42566 6.99739 8.94438C5.18941 11.6213 5.9996 14.7988 8.24121 17.9236C10.3291 20.8341 13.4744 23.3985 16 24.8565C18.5256 23.3985 21.6709 20.8341 23.7588 17.9236C26.0004 14.7988 26.8106 11.6213 25.0026 8.94438Z" fill="#1F1F22"/>
</svg>
