<svg width="20" height="20" viewBox="0 0 20 20" fill="none" xmlns="http://www.w3.org/2000/svg">
<path d="M18 10C18 5.58172 14.4183 2 10 2C5.58172 2 2 5.58172 2 10C2 14.4183 5.58172 18 10 18C11.6462 18 13.1736 17.5041 14.4443 16.6533L14.5479 16.5928C14.795 16.4671 15.0853 16.4483 15.3486 16.5459L15.3496 16.5469H15.3516C15.3532 16.5475 15.3554 16.5487 15.3584 16.5498C15.3649 16.5522 15.3751 16.5559 15.3877 16.5605C15.4129 16.5699 15.4498 16.584 15.4971 16.6016C15.5919 16.6368 15.7284 16.6875 15.8936 16.749C16.2237 16.872 16.6701 17.0385 17.1348 17.2129C17.1755 17.2282 17.2167 17.2433 17.2578 17.2588C17.2357 17.1997 17.2132 17.1412 17.1914 17.083C17.0206 16.626 16.8597 16.1912 16.7412 15.8711C16.6821 15.7112 16.6334 15.5799 16.5996 15.4883C16.5827 15.4425 16.5695 15.4062 16.5605 15.3818C16.5561 15.3698 16.5521 15.3608 16.5498 15.3545C16.5486 15.3513 16.5484 15.3483 16.5479 15.3467L16.5469 15.3447C16.4364 15.0444 16.4764 14.7093 16.6543 14.4434C17.5045 13.1729 18 11.6456 18 10ZM20 10C20 11.8672 19.4861 13.6164 18.5938 15.1133C18.6014 15.1339 18.6092 15.1551 18.6172 15.1768C18.7352 15.4956 18.8956 15.9285 19.0654 16.3828C19.4102 17.305 19.7781 18.2773 19.9189 18.6064C20.0797 18.9822 19.996 19.418 19.707 19.707C19.418 19.996 18.9822 20.0797 18.6064 19.9189C18.3433 19.8064 17.3725 19.4381 16.4316 19.085C15.9691 18.9114 15.5244 18.7456 15.1953 18.623C15.1671 18.6126 15.1397 18.6026 15.1133 18.5928C13.6163 19.4853 11.8674 20 10 20C4.47715 20 3.22129e-08 15.5228 0 10C0 4.47715 4.47715 0 10 0C15.5228 3.22139e-08 20 4.47715 20 10Z" fill="#1F1F22"/>
</svg>
