<svg width="20.000000" height="20.000000" viewBox="0 0 20 20" fill="none" xmlns="http://www.w3.org/2000/svg" xmlns:xlink="http://www.w3.org/1999/xlink">
	<desc>
			Created with Pixso.
	</desc>
	<defs/>
	<path id="Union" d="M15.24 7.66C14.88 8.07 14.24 8.11 13.83 7.74L10 4.33L6.16 7.74C5.75 8.11 5.11 8.07 4.75 7.66C4.38 7.25 4.42 6.61 4.83 6.25L9.33 2.25C9.71 1.91 10.28 1.91 10.66 2.25L15.16 6.25C15.57 6.61 15.61 7.25 15.24 7.66ZM13.83 12.25C14.24 11.88 14.88 11.92 15.24 12.33C15.61 12.74 15.57 13.38 15.16 13.74L10.66 17.74C10.28 18.08 9.71 18.08 9.33 17.74L4.83 13.74C4.42 13.38 4.38 12.74 4.75 12.33C5.11 11.92 5.75 11.88 6.16 12.25L10 15.66L13.83 12.25Z" fill="#1F1F22" fill-opacity="1.000000" fill-rule="evenodd"/>
</svg>
