<svg width="20" height="20" viewBox="0 0 20 20" fill="none" xmlns="http://www.w3.org/2000/svg">
<path d="M8 13.5C8.55229 13.5 9 13.9477 9 14.5C9 15.0523 8.55229 15.5 8 15.5H6C5.44772 15.5 5 15.0523 5 14.5C5 13.9477 5.44772 13.5 6 13.5H8Z" fill="#1F1F22"/>
<path d="M12 10C12.5523 10 13 10.4477 13 11C13 11.5523 12.5523 12 12 12H6C5.44772 12 5 11.5523 5 11C5 10.4477 5.44772 10 6 10H12Z" fill="#1F1F22"/>
<path d="M4 3C4.55228 3 5 3.44772 5 4C5 4.55228 4.55228 5 4 5C3.44772 5 3 4.55228 3 4C3 3.44772 3.44772 3 4 3Z" fill="#1F1F22"/>
<path d="M7 3C7.55228 3 8 3.44772 8 4C8 4.55228 7.55228 5 7 5C6.44772 5 6 4.55228 6 4C6 3.44772 6.44772 3 7 3Z" fill="#1F1F22"/>
<path d="M10 3C10.5523 3 11 3.44772 11 4C11 4.55228 10.5523 5 10 5C9.44771 5 9 4.55228 9 4C9 3.44772 9.44771 3 10 3Z" fill="#1F1F22"/>
<path fill-rule="evenodd" clip-rule="evenodd" d="M17 0C18.6569 0 20 1.34315 20 3V17C20 18.6569 18.6569 20 17 20H3C1.34315 20 8.05319e-09 18.6569 0 17V3C0 1.34315 1.34315 8.05319e-09 3 0H17ZM2 17C2 17.5523 2.44772 18 3 18H17C17.5523 18 18 17.5523 18 17V8H2V17ZM3 2C2.44772 2 2 2.44772 2 3V6H18V3C18 2.44772 17.5523 2 17 2H3Z" fill="#1F1F22"/>
</svg>
