<svg width="32" height="32" viewBox="0 0 32 32" fill="none" xmlns="http://www.w3.org/2000/svg">
<path d="M9.5 16C10.0523 16 10.5 16.4477 10.5 17C10.5 17.5523 10.0523 18 9.5 18H7.5C6.94772 18 6.5 17.5523 6.5 17C6.5 16.4477 6.94772 16 7.5 16H9.5Z" fill="#1F1F22"/>
<path d="M9.5 13C10.0523 13 10.5 13.4477 10.5 14C10.5 14.5523 10.0523 15 9.5 15H7.5C6.94772 15 6.5 14.5523 6.5 14C6.5 13.4477 6.94772 13 7.5 13H9.5Z" fill="#1F1F22"/>
<path d="M9.5 10C10.0523 10 10.5 10.4477 10.5 11C10.5 11.5523 10.0523 12 9.5 12H7.5C6.94772 12 6.5 11.5523 6.5 11C6.5 10.4477 6.94772 10 7.5 10H9.5Z" fill="#1F1F22"/>
<path fill-rule="evenodd" clip-rule="evenodd" d="M26 6C27.6569 6 29 7.34315 29 9V23C29 24.6569 27.6569 26 26 26H6C4.34315 26 3 24.6569 3 23V9C3 7.34315 4.34315 6 6 6H26ZM6 8C5.44772 8 5 8.44772 5 9V23C5 23.5523 5.44772 24 6 24H12V8H6ZM14 24H26C26.5523 24 27 23.5523 27 23V9C27 8.44772 26.5523 8 26 8H14V24Z" fill="#1F1F22"/>
</svg>
