<svg width="20" height="20" viewBox="0 0 20 20" fill="none" xmlns="http://www.w3.org/2000/svg">
<path fill-rule="evenodd" clip-rule="evenodd" d="M5.99 5.00001C5.44 5.00001 4.99 5.44001 4.99 6.00001V14C4.99 14.55 5.44 15 5.99 15H13.99C14.54 15 14.99 14.55 14.99 14V13.5C14.99 12.94 15.44 12.5 15.99 12.5C16.54 12.5 16.99 12.94 16.99 13.5V14C16.99 15.65 15.64 17 13.99 17H5.99C4.34 17 3 15.65 3 14V6.00001C3 4.34001 4.34 3.00001 5.99 3.00001H6.49C7.04 3.00001 7.49 3.44001 7.49 4.00001C7.49 4.55001 7.04 5.00001 6.49 5.00001H5.99ZM16.99 9.50001V4.09001C17 3.95001 16.99 3.81001 16.94 3.68001C16.89 3.56001 16.8 3.39001 16.7 3.29001C16.58 3.18001 16.45 3.10001 16.31 3.05001C16.18 3.00001 16.04 2.99001 15.9 3.00001H10.49C9.93 3.00001 9.5 3.44001 9.5 4.00001C9.5 4.56001 9.93 5.00001 10.49 5.00001H13.58L8.79 9.79001C8.39 10.19 8.39 10.81 8.79 11.21C9.18 11.6 9.81 11.6 10.2 11.21L14.99 6.41001V9.50001C14.99 10.06 15.43 10.5 15.99 10.5C16.55 10.5 16.99 10.06 16.99 9.50001Z" fill="#1F1F22"/>
</svg>
