<svg width="24.000000" height="24.000000" viewBox="0 0 24 24" fill="none" xmlns="http://www.w3.org/2000/svg" xmlns:xlink="http://www.w3.org/1999/xlink">
	<desc>
			Created with Pixso.
	</desc>
	<defs/>
	<path id="Union" d="M9 3C9 2.44 8.55 2 8 2C7.44 2 7 2.44 7 3L7 4L5 4C3.34 4 2 5.34 2 7L2 19C2 20.65 3.34 22 5 22L19 22C20.65 22 22 20.65 22 19L22 7C22 5.34 20.65 4 19 4L17 4L17 3C17 2.44 16.55 2 16 2C15.44 2 15 2.44 15 3L15 4L9 4L9 3ZM15 7L15 6L9 6L9 7C9 7.55 8.55 8 8 8C7.44 8 7 7.55 7 7L7 6L5 6C4.44 6 4 6.44 4 7L4 10L20 10L20 7C20 6.44 19.55 6 19 6L17 6L17 7C17 7.55 16.55 8 16 8C15.44 8 15 7.55 15 7ZM20 12L4 12L4 19C4 19.55 4.44 20 5 20L19 20C19.55 20 20 19.55 20 19L20 12Z" fill="#1F1F22" fill-opacity="1.000000" fill-rule="evenodd"/>
</svg>
