<svg width="24" height="24" viewBox="0 0 24 24" fill="none" xmlns="http://www.w3.org/2000/svg">
<path fill-rule="evenodd" clip-rule="evenodd" d="M21.68 5.69C21.6 5.58 21.52 5.47 21.42 5.37L18.62 2.57C18.52 2.47 18.41 2.39 18.3 2.31C18.19 2.24 18.08 2.19 17.96 2.14C17.85 2.09 17.73 2.06 17.61 2.03C17.48 2.01 17.35 2 17.22 2C17.09 2 16.96 2.01 16.83 2.03C16.71 2.06 16.59 2.09 16.48 2.14C16.36 2.19 16.25 2.24 16.15 2.31C16.03 2.39 15.92 2.47 15.82 2.57L3.76001 14.64C3.52001 14.88 3.35001 15.16 3.26001 15.48L2.08001 19.45C1.97001 19.82 1.97001 20.18 2.07001 20.54C2.16001 20.87 2.33001 21.16 2.58001 21.41C2.71001 21.55 2.85001 21.66 3.01001 21.74C3.15001 21.82 3.30001 21.88 3.45001 21.92C3.81001 22.02 4.18001 22.02 4.54001 21.91L8.51001 20.73C8.83001 20.64 9.11001 20.47 9.35001 20.23L21.42 8.17C21.52 8.07 21.6 7.96 21.68 7.84C21.75 7.74 21.8 7.63 21.85 7.51C21.9 7.4 21.93 7.28 21.96 7.16C21.98 7.03 22 6.9 22 6.77C22 6.64 21.98 6.51 21.96 6.38C21.93 6.26 21.9 6.14 21.85 6.03C21.8 5.91 21.75 5.8 21.68 5.69ZM17.22 3.97L20.02 6.77L18.48 8.31L15.68 5.51L17.22 3.97ZM17.08 9.71L14.28 6.91L5.15001 16.04L3.98001 20.01L7.95001 18.84L17.08 9.71Z" fill="#1F1F22"/>
</svg>
