<svg width="32" height="32" viewBox="0 0 32 32" fill="none" xmlns="http://www.w3.org/2000/svg">
<path d="M6 15C6.55228 15 7 15.4477 7 16C7 20.9706 11.0294 25 16 25C18.6641 25 21.0573 23.8418 22.7061 22H20C19.44 22 19 21.57 19 21C19 20.44 19.44 20 20 20H25C25.66 20 26 20.34 26 21V26C26 26.57 25.56 27 25 27C24.44 27 24 26.57 24 26V23.5469C21.9952 25.6711 19.1535 27 16 27C9.92487 27 5 22.0751 5 16C5 15.4477 5.44772 15 6 15Z" fill="#1F1F22"/>
<path d="M16 5C22.0751 5 27 9.92487 27 16C27 16.5523 26.5523 17 26 17C25.4477 17 25 16.5523 25 16C25 11.0294 20.9706 7 16 7C13.3359 7.00001 10.9427 8.15825 9.29395 10H12C12.56 10 13 10.43 13 11C13 11.56 12.56 12 12 12H7C6.34 12 6 11.66 6 11V6C6 5.43 6.44 5 7 5C7.56 5 8 5.43 8 6V8.45215C10.0048 6.32825 12.8468 5.00001 16 5Z" fill="#1F1F22"/>
</svg>
