<svg width="24.000000" height="24.000000" viewBox="0 0 24 24" fill="none" xmlns="http://www.w3.org/2000/svg" xmlns:xlink="http://www.w3.org/1999/xlink">
	<desc>
			Created with Pixso.
	</desc>
	<defs/>
	<path id="Union" d="M7 12C7 13.1 6.1 14 5 14C3.89 14 3 13.1 3 12C3 10.89 3.89 10 5 10C6.1 10 7 10.89 7 12ZM14 12C14 13.1 13.1 14 12 14C10.89 14 10 13.1 10 12C10 10.89 10.89 10 12 10C13.1 10 14 10.89 14 12ZM21 12C21 13.1 20.1 14 19 14C17.89 14 17 13.1 17 12C17 10.89 17.89 10 19 10C20.1 10 21 10.89 21 12Z" fill="#1F1F22" fill-opacity="1.000000" fill-rule="evenodd"/>
</svg>
