<svg width="20" height="20" viewBox="0 0 20 20" fill="none" xmlns="http://www.w3.org/2000/svg">
<path d="M13 14C13.5523 14 14 14.4477 14 15C14 15.5523 13.5523 16 13 16H7C6.44772 16 6 15.5523 6 15C6 14.4477 6.44772 14 7 14H13Z" fill="#1F1F22"/>
<path d="M9 10C9.55228 10 10 10.4477 10 11C10 11.5523 9.55228 12 9 12H7C6.44772 12 6 11.5523 6 11C6 10.4477 6.44772 10 7 10H9Z" fill="#1F1F22"/>
<path fill-rule="evenodd" clip-rule="evenodd" d="M9.17188 0C9.96742 8.00361e-05 10.7304 0.316368 11.293 0.878906L17.1211 6.70703C17.6836 7.26957 17.9999 8.03259 18 8.82812V17C18 18.6569 16.6569 20 15 20H5C3.34315 20 2 18.6569 2 17V3C2 1.34315 3.34315 4.83192e-08 5 0H9.17188ZM5 2C4.44772 2 4 2.44772 4 3V17C4 17.5523 4.44772 18 5 18H15C15.5523 18 16 17.5523 16 17V9H12C10.3431 9 9 7.65685 9 6V2H5ZM11 6C11 6.55228 11.4477 7 12 7H14.5859L11 3.41406V6Z" fill="#1F1F22"/>
</svg>
