<svg width="32" height="32" viewBox="0 0 32 32" fill="none" xmlns="http://www.w3.org/2000/svg">
<path d="M17 6C17.5523 6 18 6.44772 18 7C18 7.55228 17.5523 8 17 8H8C6.89543 8 6 8.89543 6 10V25.1309L9.68945 22.6719C10.3465 22.2339 11.1185 22 11.9082 22H24C25.1046 22 26 21.1046 26 20C26 19.4477 26.4477 19 27 19C27.5523 19 28 19.4477 28 20C28 22.2091 26.2091 24 24 24H11.9082C11.5134 24 11.1273 24.1169 10.7988 24.3359L5.55469 27.832C5.2479 28.0366 4.85344 28.0557 4.52832 27.8818C4.20316 27.7078 4 27.3688 4 27V10C4 7.79086 5.79086 6 8 6H17Z" fill="#1F1F22"/>
<path d="M17 16C17.5523 16 18 16.4477 18 17C18 17.5523 17.5523 18 17 18H10C9.44772 18 9 17.5523 9 17C9 16.4477 9.44772 16 10 16H17Z" fill="#1F1F22"/>
<path fill-rule="evenodd" clip-rule="evenodd" d="M25.6768 10.1504C26.077 9.97543 26.622 9.90822 27.1221 10.2441L27.2363 10.3291L27.2373 10.3301C28.3521 11.2377 29 12.5898 29 14C29 14.1415 29.0109 14.5562 28.8955 14.9326C28.833 15.1364 28.711 15.412 28.459 15.6396C28.1856 15.8865 27.843 16.0019 27.4912 16.002H20.5C20.1481 16.0019 19.8036 15.8864 19.5293 15.6357C19.2769 15.405 19.1568 15.1264 19.0967 14.9229C18.9863 14.549 19 14.1318 19 14C19 12.6223 19.6225 11.25 20.7139 10.3379L20.7148 10.3369C21.2489 9.89235 21.9012 9.96263 22.3398 10.1572L22.5137 10.2471L22.6934 10.3477C23.592 10.8191 24.5117 10.805 25.5029 10.2373L25.6768 10.1504ZM21.748 12.1084C21.2709 12.6241 21 13.3172 21 14V14.002H27V14C27 13.3119 26.7251 12.6331 26.2285 12.1162C24.7323 12.8769 23.1836 12.8674 21.748 12.1084Z" fill="#1F1F22"/>
<path d="M14 12C14.5523 12 15 12.4477 15 13C15 13.5523 14.5523 14 14 14H10C9.44772 14 9 13.5523 9 13C9 12.4477 9.44772 12 10 12H14Z" fill="#1F1F22"/>
<path fill-rule="evenodd" clip-rule="evenodd" d="M24 4C25.6569 4 27 5.34315 27 7C27 8.65685 25.6569 10 24 10C22.3431 10 21 8.65685 21 7C21 5.34315 22.3431 4 24 4ZM24 6C23.4477 6 23 6.44772 23 7C23 7.55228 23.4477 8 24 8C24.5523 8 25 7.55228 25 7C25 6.44772 24.5523 6 24 6Z" fill="#1F1F22"/>
</svg>
