<svg width="16" height="16" viewBox="0 0 16 16" fill="none" xmlns="http://www.w3.org/2000/svg">
<path d="M9.51349 3.79026C9.84033 4.08507 10.0382 4.58587 9.99963 5.29779C9.97297 5.79042 9.90838 6.17063 9.8494 6.43037C9.84396 6.45431 9.83857 6.47722 9.83327 6.49911H12.523C13.4073 6.49911 14.012 7.39226 13.6836 8.21335L12.6093 10.899C12.3435 11.5634 11.7 11.9991 10.9845 11.9991H6.5V6.99988C6.91812 6.64809 7.75 5.74116 7.75 4.74911C7.75 4.56741 7.75775 4.33013 7.84778 4.10957C7.94385 3.87419 8.12662 3.67348 8.43698 3.5591C8.76843 3.43693 9.19054 3.49896 9.51349 3.79026Z" fill="#1F1F22"/>
<path d="M3 7.74988C3 7.33566 3.33579 6.99988 3.75 6.99988H5V11.9999H3.75C3.33579 11.9999 3 11.6641 3 11.2499V7.74988Z" fill="#1F1F22"/>
</svg>
