<svg width="20.000000" height="20.000000" viewBox="0 0 20 20" fill="none" xmlns="http://www.w3.org/2000/svg" xmlns:xlink="http://www.w3.org/1999/xlink">
	<desc>
			Created with Pixso.
	</desc>
	<defs/>
	<path id="Union" d="M8.5 4.49C8.5 3.67 9.17 2.99 10 2.99C10.82 2.99 11.5 3.67 11.5 4.49C11.5 5.32 10.82 5.99 10 5.99C9.17 5.99 8.5 5.32 8.5 4.49ZM8.5 9.99C8.5 9.17 9.17 8.49 10 8.49C10.82 8.49 11.5 9.17 11.5 9.99C11.5 10.82 10.82 11.49 10 11.49C9.17 11.49 8.5 10.82 8.5 9.99ZM10 13.99C9.17 13.99 8.5 14.67 8.5 15.49C8.5 16.32 9.17 16.99 10 16.99C10.82 16.99 11.5 16.32 11.5 15.49C11.5 14.67 10.82 13.99 10 13.99Z" fill="#1F1F22" fill-opacity="1.000000" fill-rule="evenodd"/>
</svg>
