<svg width="32" height="32" viewBox="0 0 32 32" fill="none" xmlns="http://www.w3.org/2000/svg">
<path fill-rule="evenodd" clip-rule="evenodd" d="M11 4C11.55 4 12 4.44 12 5V6H20V5C20 4.44 20.44 4 21 4C21.55 4 22 4.44 22 5V6H24C26.2 6 28 7.79 28 10V23C28 25.2 26.2 27 24 27H8C5.79 27 4 25.2 4 23V10C4 7.79 5.79 6 8 6H10V5C10 4.44 10.44 4 11 4ZM20 9V8H12V9C12 9.55 11.55 10 11 10C10.44 10 10 9.55 10 9V8H8C6.89 8 6 8.89 6 10V11H26V10C26 8.89 25.1 8 24 8H22V9C22 9.55 21.55 10 21 10C20.44 10 20 9.55 20 9ZM26 13H6V23C6 24.1 6.89 25 8 25H24C25.1 25 26 24.1 26 23V13ZM9.5 17C9.5 16.17 10.17 15.5 11 15.5C11.82 15.5 12.5 16.17 12.5 17C12.5 17.82 11.82 18.5 11 18.5C10.17 18.5 9.5 17.82 9.5 17ZM14.5 17C14.5 16.17 15.17 15.5 16 15.5C16.82 15.5 17.5 16.17 17.5 17C17.5 17.82 16.82 18.5 16 18.5C15.17 18.5 14.5 17.82 14.5 17ZM19.5 17C19.5 16.17 20.17 15.5 21 15.5C21.82 15.5 22.5 16.17 22.5 17C22.5 17.82 21.82 18.5 21 18.5C20.17 18.5 19.5 17.82 19.5 17ZM9.5 21.5C9.5 20.67 10.17 20 11 20C11.82 20 12.5 20.67 12.5 21.5C12.5 22.32 11.82 23 11 23C10.17 23 9.5 22.32 9.5 21.5ZM14.5 21.5C14.5 20.67 15.17 20 16 20C16.82 20 17.5 20.67 17.5 21.5C17.5 22.32 16.82 23 16 23C15.17 23 14.5 22.32 14.5 21.5ZM19.5 21.5C19.5 20.67 20.17 20 21 20C21.82 20 22.5 20.67 22.5 21.5C22.5 22.32 21.82 23 21 23C20.17 23 19.5 22.32 19.5 21.5Z" fill="#1F1F22"/>
</svg>
