<svg width="24" height="24" viewBox="0 0 24 24" fill="none" xmlns="http://www.w3.org/2000/svg">
<path fill-rule="evenodd" clip-rule="evenodd" d="M7.99006 17.0001C8.54006 17.0001 8.99006 16.5501 8.99006 16.0001V8.58005L9.87006 9.28005C10.3001 9.62005 10.9301 9.55005 11.2701 9.12005C11.6201 8.69005 11.5501 8.06005 11.1101 7.71005L8.61006 5.71005C8.25006 5.42005 7.73006 5.42005 7.37006 5.71005L4.87006 7.71005C4.43006 8.06005 4.36006 8.69005 4.71006 9.12005C5.05006 9.55005 5.68006 9.62005 6.11006 9.28005L6.99006 8.58005V16.0001C6.99006 16.5501 7.44006 17.0001 7.99006 17.0001ZM15.9901 7.00005C16.5401 7.00005 16.9901 7.44005 16.9901 8.00005V15.4101L17.8701 14.7101C18.3001 14.3701 18.9301 14.4401 19.2701 14.8701C19.6201 15.3001 19.5501 15.9301 19.1101 16.2801L16.6101 18.2801C16.2501 18.5701 15.7301 18.5701 15.3701 18.2801L12.8701 16.2801C12.4301 15.9301 12.3601 15.3001 12.7101 14.8701C13.0501 14.4401 13.6801 14.3701 14.1101 14.7101L14.9901 15.4101V8.00005C14.9901 7.44005 15.4401 7.00005 15.9901 7.00005Z" fill="#1F1F22"/>
</svg>
