<svg width="20" height="20" viewBox="0 0 20 20" fill="none" xmlns="http://www.w3.org/2000/svg">
<path d="M7 13C7.55228 13 8 13.4477 8 14C8 14.5523 7.55228 15 7 15C6.44772 15 6 14.5523 6 14C6 13.4477 6.44772 13 7 13Z" fill="#1F1F22"/>
<path d="M10 13C10.5523 13 11 13.4477 11 14C11 14.5523 10.5523 15 10 15C9.44772 15 9 14.5523 9 14C9 13.4477 9.44772 13 10 13Z" fill="#1F1F22"/>
<path d="M13 13C13.5523 13 14 13.4477 14 14C14 14.5523 13.5523 15 13 15C12.4477 15 12 14.5523 12 14C12 13.4477 12.4477 13 13 13Z" fill="#1F1F22"/>
<path fill-rule="evenodd" clip-rule="evenodd" d="M9.17188 0C9.96742 8.00361e-05 10.7304 0.316368 11.293 0.878906L17.1211 6.70703C17.6836 7.26957 17.9999 8.03259 18 8.82812V17C18 18.6569 16.6569 20 15 20H5C3.34315 20 2 18.6569 2 17V3C2 1.34315 3.34315 4.83192e-08 5 0H9.17188ZM5 2C4.44772 2 4 2.44772 4 3V17C4 17.5523 4.44772 18 5 18H15C15.5523 18 16 17.5523 16 17V9H12C10.3431 9 9 7.65685 9 6V2H5ZM11 6C11 6.55228 11.4477 7 12 7H14.5859L11 3.41406V6Z" fill="#1F1F22"/>
</svg>
