<svg width="24" height="24" viewBox="0 0 24 24" fill="none" xmlns="http://www.w3.org/2000/svg">
<path fill-rule="evenodd" clip-rule="evenodd" d="M18 10C17.82 10 17.68 9.87 17.66 9.69C17.56 9.04 17.47 8.53 17.35 8.13C17.23 7.73 17.08 7.44 16.87 7.21C16.64 6.98 16.28 6.76 15.87 6.63C15.46 6.51 14.96 6.43 14.32 6.33C14.12 6.31 14 6.17 14 5.99C14 5.82 14.12 5.69 14.32 5.66C14.97 5.57 15.47 5.48 15.87 5.36C16.28 5.24 16.57 5.08 16.8 4.84C17.01 4.61 17.2 4.26 17.33 3.85C17.45 3.45 17.55 2.94 17.66 2.3C17.69 2.12 17.82 2 18 2C18.17 2 18.31 2.12 18.33 2.3C18.43 2.95 18.52 3.46 18.64 3.86C18.76 4.26 18.91 4.56 19.12 4.79C19.35 5.03 19.7 5.24 20.12 5.37C20.52 5.49 21.03 5.57 21.67 5.66C21.87 5.69 22 5.82 22 5.99C22 6.17 21.87 6.31 21.67 6.33C21.02 6.42 20.52 6.51 20.12 6.63C19.71 6.76 19.41 6.92 19.18 7.16C18.98 7.39 18.79 7.74 18.67 8.14C18.55 8.55 18.45 9.05 18.33 9.7C18.3 9.87 18.17 10 18 10ZM9.33 20.52C9.35 20.66 9.39 20.79 9.43 20.92C9.45 20.97 9.48 21.02 9.5 21.08C9.56 21.19 9.62 21.29 9.7 21.38C9.75 21.44 9.8 21.5 9.86 21.56C9.94 21.63 10.02 21.69 10.11 21.74C10.19 21.8 10.29 21.84 10.39 21.88C10.45 21.91 10.52 21.93 10.59 21.95C10.72 21.98 10.86 22 11 22C11.14 22 11.28 21.98 11.41 21.94C11.48 21.93 11.54 21.91 11.6 21.88C11.7 21.85 11.78 21.8 11.87 21.75C11.96 21.7 12.04 21.63 12.12 21.56C12.24 21.45 12.34 21.33 12.42 21.2C12.53 21.01 12.61 20.81 12.65 20.58C12.78 19.85 12.89 19.26 12.99 18.82C13.1 18.3 13.21 17.86 13.33 17.5C13.44 17.14 13.56 16.83 13.7 16.59C13.82 16.35 13.96 16.16 14.11 16C14.27 15.84 14.45 15.7 14.67 15.58C14.9 15.45 15.18 15.33 15.52 15.23C15.86 15.12 16.28 15.02 16.78 14.93C17.23 14.84 17.8 14.76 18.47 14.67C18.63 14.65 18.78 14.61 18.93 14.55C18.97 14.54 19.02 14.52 19.06 14.5C19.17 14.44 19.28 14.37 19.38 14.29C19.44 14.24 19.5 14.19 19.56 14.13C19.63 14.05 19.69 13.97 19.74 13.88C19.8 13.79 19.84 13.7 19.88 13.6C19.91 13.53 19.93 13.46 19.95 13.38C19.98 13.25 20 13.12 20 12.99C20 12.86 19.98 12.73 19.95 12.61C19.93 12.53 19.91 12.45 19.88 12.37C19.84 12.29 19.8 12.21 19.76 12.13C19.7 12.03 19.63 11.94 19.54 11.86C19.47 11.78 19.39 11.71 19.3 11.65C19.07 11.48 18.8 11.37 18.48 11.33C17.8 11.23 17.23 11.15 16.78 11.07C16.28 10.98 15.86 10.88 15.51 10.77C15.17 10.67 14.87 10.55 14.64 10.42C14.41 10.3 14.22 10.16 14.06 10.01C13.91 9.85 13.76 9.65 13.64 9.42C13.51 9.18 13.38 8.88 13.27 8.52C13.16 8.16 13.05 7.72 12.95 7.21C12.86 6.75 12.76 6.17 12.66 5.47C12.64 5.33 12.6 5.2 12.56 5.07C12.54 5.02 12.51 4.97 12.49 4.91C12.43 4.8 12.37 4.7 12.29 4.61C12.24 4.55 12.19 4.49 12.13 4.43C12.05 4.36 11.97 4.3 11.88 4.25C11.8 4.19 11.7 4.15 11.6 4.11C11.54 4.08 11.47 4.06 11.4 4.04C11.27 4.01 11.13 4 11 4C10.87 4 10.75 4.01 10.63 4.03C10.55 4.05 10.47 4.08 10.39 4.11C10.3 4.14 10.22 4.18 10.14 4.23C10.05 4.29 9.96 4.35 9.88 4.43C9.83 4.48 9.78 4.53 9.73 4.58C9.65 4.68 9.58 4.78 9.52 4.9C9.48 4.98 9.44 5.07 9.41 5.16C9.38 5.25 9.35 5.34 9.34 5.44C9.21 6.16 9.1 6.74 9.01 7.19C8.9 7.71 8.79 8.15 8.67 8.5C8.56 8.86 8.44 9.16 8.3 9.41C8.18 9.64 8.04 9.84 7.88 10C7.73 10.16 7.54 10.29 7.33 10.41C7.09 10.54 6.81 10.66 6.47 10.77C6.13 10.87 5.7 10.97 5.21 11.06C4.76 11.15 4.18 11.23 3.48 11.33C3.21 11.37 2.97 11.46 2.76 11.59C2.65 11.67 2.54 11.76 2.45 11.86C2.36 11.94 2.29 12.03 2.23 12.13C2.19 12.21 2.15 12.29 2.11 12.37C2.08 12.45 2.06 12.53 2.04 12.61C2.01 12.73 2 12.86 2 12.99C2 13.12 2.01 13.25 2.04 13.38C2.06 13.46 2.08 13.53 2.11 13.6C2.15 13.7 2.19 13.79 2.25 13.88C2.3 13.97 2.36 14.05 2.43 14.13C2.49 14.19 2.55 14.24 2.61 14.29C2.71 14.37 2.82 14.44 2.93 14.5C2.97 14.52 3.02 14.54 3.06 14.55C3.2 14.61 3.35 14.65 3.51 14.66C4.19 14.76 4.76 14.85 5.2 14.94C5.7 15.03 6.13 15.13 6.48 15.24C6.82 15.35 7.12 15.46 7.36 15.59C7.58 15.71 7.77 15.85 7.93 16.01C8.09 16.17 8.23 16.36 8.35 16.59C8.49 16.83 8.61 17.13 8.72 17.48C8.83 17.84 8.94 18.27 9.04 18.78C9.13 19.24 9.23 19.82 9.33 20.52ZM11.02 18.48C11.14 17.89 11.29 17.31 11.42 16.9C11.57 16.42 11.74 16 11.93 15.65C12.14 15.25 12.39 14.9 12.68 14.61C12.97 14.31 13.3 14.05 13.69 13.83C14.04 13.63 14.46 13.46 14.93 13.32C15.3 13.2 15.73 13.1 16.23 13C15.74 12.9 15.31 12.8 14.93 12.69C14.46 12.55 14.04 12.38 13.68 12.18C13.29 11.97 12.94 11.71 12.65 11.42C12.35 11.12 12.1 10.78 11.88 10.38C11.69 10.02 11.51 9.6 11.36 9.11C11.23 8.69 11.11 8.18 10.99 7.6C10.86 8.18 10.71 8.69 10.58 9.1C10.43 9.58 10.26 10 10.07 10.36C9.85 10.75 9.6 11.1 9.32 11.39C9.03 11.69 8.69 11.95 8.3 12.16C7.94 12.36 7.53 12.53 7.06 12.68C6.67 12.79 6.23 12.9 5.72 13C6.23 13.1 6.68 13.21 7.06 13.33C7.53 13.47 7.95 13.64 8.31 13.83C8.7 14.05 9.04 14.3 9.34 14.59C9.63 14.89 9.89 15.23 10.11 15.62C10.3 15.98 10.48 16.4 10.63 16.88C10.76 17.31 10.9 17.89 11.02 18.48Z" fill="#1F1F22"/>
</svg>
