<svg width="24" height="24" viewBox="0 0 24 24" fill="none" xmlns="http://www.w3.org/2000/svg">
<path fill-rule="evenodd" clip-rule="evenodd" d="M2.86741 9.01L8.54741 8.24L11.1074 3.06C11.1274 3.01 11.1574 2.97 11.1874 2.92C11.2174 2.88 11.2574 2.84 11.2974 2.8C11.3374 2.76 11.3774 2.72 11.4174 2.69C11.4674 2.66 11.5074 2.63 11.5574 2.61C11.6874 2.55 11.8074 2.51 11.9374 2.5C12.0674 2.5 12.1974 2.51 12.3274 2.56C12.4574 2.6 12.5674 2.67 12.6674 2.75C12.7574 2.83 12.8374 2.94 12.8974 3.06L15.4574 8.24L21.1374 9.01C21.2474 9.03 21.3474 9.06 21.4474 9.11C21.5474 9.16 21.6374 9.22 21.7074 9.3C21.9074 9.49 22.0074 9.73 21.9974 10.01C21.9974 10.28 21.9074 10.52 21.7074 10.71L17.5974 14.82L18.5674 20.52C18.5774 20.58 18.5874 20.63 18.5874 20.68C18.5874 20.74 18.5874 20.79 18.5774 20.85C18.5574 20.96 18.5274 21.06 18.4674 21.16C18.3474 21.4 18.1474 21.56 17.8874 21.65C17.6174 21.73 17.3674 21.7 17.1174 21.58L11.9974 18.88L6.88741 21.58C6.78741 21.63 6.68741 21.66 6.57741 21.68C6.46741 21.7 6.35741 21.69 6.24741 21.68C6.11741 21.65 5.98741 21.61 5.88741 21.54C5.77741 21.47 5.67741 21.38 5.59741 21.27C5.51741 21.16 5.46741 21.04 5.43741 20.91C5.40741 20.79 5.40741 20.66 5.43741 20.52L6.40741 14.82L2.29741 10.71C2.21741 10.64 2.15741 10.55 2.10741 10.45C2.05741 10.35 2.02741 10.25 2.00741 10.14C1.97741 9.87 2.03741 9.62 2.20741 9.4C2.28741 9.29 2.38741 9.2 2.49741 9.14C2.60741 9.07 2.72741 9.03 2.86741 9.01Z" fill="#1F1F22"/>
</svg>
