<svg width="16" height="16" viewBox="0 0 16 16" fill="none" xmlns="http://www.w3.org/2000/svg">
<path fill-rule="evenodd" clip-rule="evenodd" d="M6.5 2.48999C6.5 1.66999 7.17 0.98999 8 0.98999C8.82 0.98999 9.5 1.66999 9.5 2.48999C9.5 3.31999 8.82 3.98999 8 3.98999C7.17 3.98999 6.5 3.31999 6.5 2.48999ZM6.5 7.98999C6.5 7.16999 7.17 6.48999 8 6.48999C8.82 6.48999 9.5 7.16999 9.5 7.98999C9.5 8.81999 8.82 9.48999 8 9.48999C7.17 9.48999 6.5 8.81999 6.5 7.98999ZM8 11.99C7.17 11.99 6.5 12.67 6.5 13.49C6.5 14.32 7.17 14.99 8 14.99C8.82 14.99 9.5 14.32 9.5 13.49C9.5 12.67 8.82 11.99 8 11.99Z" fill="#1F1F22"/>
</svg>
