<svg width="32" height="32" viewBox="0 0 32 32" fill="none" xmlns="http://www.w3.org/2000/svg">
<path fill-rule="evenodd" clip-rule="evenodd" d="M16 12C18.7614 12 21 14.2386 21 17C21 19.7614 18.7614 22 16 22C13.2386 22 11 19.7614 11 17C11 14.2386 13.2386 12 16 12ZM16 14C14.3431 14 13 15.3431 13 17C13 18.6569 14.3431 20 16 20C17.6569 20 19 18.6569 19 17C19 15.3431 17.6569 14 16 14Z" fill="#1F1F22"/>
<path fill-rule="evenodd" clip-rule="evenodd" d="M18.0586 6C19.3498 6.00005 20.496 6.82677 20.9043 8.05176L21.2207 9H25C26.6569 9 28 10.3431 28 12V23C28 24.6569 26.6569 26 25 26H7C5.34315 26 4 24.6569 4 23V12C4 10.3431 5.34315 9 7 9H10.7793L11.0957 8.05176C11.504 6.82677 12.6502 6.00005 13.9414 6H18.0586ZM13.9414 8C13.5111 8.00005 13.1293 8.27543 12.9932 8.68359L12.6768 9.63281C12.4045 10.4493 11.64 11 10.7793 11H7C6.44772 11 6 11.4477 6 12V23C6 23.5523 6.44772 24 7 24H25C25.5523 24 26 23.5523 26 23V12C26 11.4477 25.5523 11 25 11H21.2207C20.36 11 19.5955 10.4493 19.3232 9.63281L19.0068 8.68359C18.8707 8.27543 18.4889 8.00005 18.0586 8H13.9414Z" fill="#1F1F22"/>
</svg>
