<svg width="24" height="24" viewBox="0 0 24 24" fill="none" xmlns="http://www.w3.org/2000/svg">
<path fill-rule="evenodd" clip-rule="evenodd" d="M9 3C9 2.44 8.55 2 8 2C7.44 2 7 2.44 7 3V4H5C3.34 4 2 5.34 2 7V19C2 20.65 3.34 22 5 22H19C20.65 22 22 20.65 22 19V7C22 5.34 20.65 4 19 4H17V3C17 2.44 16.55 2 16 2C15.44 2 15 2.44 15 3V4H9V3ZM15 7V6H9V7C9 7.55 8.55 8 8 8C7.44 8 7 7.55 7 7V6H5C4.44 6 4 6.44 4 7V10H20V7C20 6.44 19.55 6 19 6H17V7C17 7.55 16.55 8 16 8C15.44 8 15 7.55 15 7ZM20 12H4V19C4 19.55 4.44 20 5 20H19C19.55 20 20 19.55 20 19V12Z" fill="#1F1F22"/>
</svg>
