<svg width="16" height="16" viewBox="0 0 16 16" fill="none" xmlns="http://www.w3.org/2000/svg">
<path fill-rule="evenodd" clip-rule="evenodd" d="M10.88 0.729973C10.76 0.809973 10.65 0.889973 10.55 0.989973L1.97001 9.57997C1.86001 9.68997 1.76001 9.80997 1.68001 9.93997C1.60001 10.07 1.53001 10.21 1.48001 10.36L0.680007 12.78C0.610007 12.99 0.570007 13.2 0.570007 13.4C0.570007 13.57 0.590007 13.74 0.640007 13.91C0.680007 14.08 0.740007 14.23 0.820007 14.37C0.910007 14.54 1.02001 14.69 1.16001 14.83C1.30001 14.97 1.45001 15.08 1.62001 15.17C1.76001 15.25 1.91001 15.31 2.08001 15.35C2.46001 15.45 2.83001 15.44 3.21001 15.31L5.63001 14.5C5.78001 14.46 5.92001 14.39 6.05001 14.31C6.18001 14.23 6.30001 14.13 6.41001 14.02L15 5.43997C15.19 5.23997 15.33 5.01997 15.43 4.76997C15.53 4.52997 15.58 4.27997 15.58 4.01997C15.58 3.75997 15.53 3.50997 15.43 3.26997C15.39 3.14997 15.33 3.03997 15.26 2.92997C15.18 2.81997 15.1 2.70997 15 2.60997L13.38 0.999973C13.19 0.799973 12.97 0.659973 12.72 0.559973C12.48 0.459973 12.23 0.409973 11.97 0.409973C11.83 0.409973 11.7 0.419973 11.57 0.449973C11.45 0.469973 11.33 0.509973 11.22 0.559973C11.1 0.599973 10.99 0.659973 10.88 0.729973ZM10.9 3.47997L11.97 2.40997L13.58 4.01997L12.51 5.08997L10.9 3.47997ZM9.48001 4.89997L3.38001 10.99L2.58001 13.41L5.00001 12.61L11.09 6.50997L9.48001 4.89997Z" fill="#1F1F22"/>
</svg>
