<svg width="32" height="32" viewBox="0 0 32 32" fill="none" xmlns="http://www.w3.org/2000/svg">
<path d="M16.0001 6.5C21.2204 6.50006 25.6979 9.67166 27.63 14.1914C28.1233 15.3453 28.1233 16.6547 27.63 17.8086C25.6979 22.3283 21.2204 25.4999 16.0001 25.5C10.7798 25.5 6.3024 22.3284 4.37024 17.8086C3.87694 16.6546 3.87694 15.3454 4.37024 14.1914C6.3024 9.67164 10.7798 6.5 16.0001 6.5ZM16.0001 8.5C11.6116 8.5 7.83893 11.165 6.20911 14.9775C5.93046 15.6294 5.93046 16.3706 6.20911 17.0225C7.83893 20.835 11.6116 23.5 16.0001 23.5C20.3886 23.4999 24.1613 20.835 25.7911 17.0225C26.0697 16.3707 26.0698 15.6293 25.7911 14.9775C24.1613 11.165 20.3886 8.50006 16.0001 8.5ZM16.0001 11C18.7615 11.0001 21.0001 13.2386 21.0001 16C21.0001 18.7614 18.7615 20.9999 16.0001 21C13.2387 21 11.0001 18.7614 11.0001 16C11.0001 13.2386 13.2387 11 16.0001 11ZM16.0001 13C14.3433 13 13.0001 14.3431 13.0001 16C13.0001 17.6569 14.3433 19 16.0001 19C17.6569 18.9999 19.0001 17.6568 19.0001 16C19.0001 14.3432 17.6569 13.0001 16.0001 13Z" fill="#1F1F22"/>
</svg>
