<svg width="32" height="32" viewBox="0 0 32 32" fill="none" xmlns="http://www.w3.org/2000/svg">
<path d="M14 4C14.5523 4 15 4.44772 15 5C15 5.55228 14.5523 6 14 6H10C9.44772 6 9 6.44772 9 7V24C9 24.5523 9.44772 25 10 25H22C22.5523 25 23 24.5523 23 24V17C23 16.4477 23.4477 16 24 16C24.5523 16 25 16.4477 25 17V24C25 25.6569 23.6569 27 22 27H10C8.34315 27 7 25.6569 7 24V7C7 5.34315 8.34315 4 10 4H14Z" fill="#1F1F22"/>
<path d="M20 20C20.5523 20 21 20.4477 21 21C21 21.5523 20.5523 22 20 22H12C11.4477 22 11 21.5523 11 21C11 20.4477 11.4477 20 12 20H20Z" fill="#1F1F22"/>
<path d="M15 16C15.5523 16 16 16.4477 16 17C16 17.5523 15.5523 18 15 18H12C11.4477 18 11 17.5523 11 17C11 16.4477 11.4477 16 12 16H15Z" fill="#1F1F22"/>
<path fill-rule="evenodd" clip-rule="evenodd" d="M23 2C23.3806 2 23.728 2.21629 23.8965 2.55762L25.4268 5.6582L28.8506 6.15625C29.2271 6.21112 29.5396 6.47506 29.6572 6.83691C29.7749 7.19893 29.6769 7.59661 29.4043 7.8623L26.9277 10.2754L27.5127 13.6846C27.577 14.0597 27.4222 14.4394 27.1143 14.6631C26.8064 14.8867 26.3984 14.9163 26.0615 14.7393L23 13.1289L19.9385 14.7393C19.6016 14.9163 19.1936 14.8867 18.8857 14.6631C18.5778 14.4393 18.423 14.0597 18.4873 13.6846L19.0713 10.2754L16.5957 7.8623C16.3232 7.59662 16.2252 7.19891 16.3428 6.83691C16.4604 6.47506 16.7729 6.21114 17.1494 6.15625L20.5723 5.6582L22.1035 2.55762L22.1748 2.43555C22.3594 2.16557 22.667 2.00001 23 2ZM22.1338 7.01562C21.9882 7.31063 21.7064 7.51506 21.3809 7.5625L19.4424 7.84375L20.8447 9.21094C21.0803 9.44057 21.1883 9.77145 21.1328 10.0957L20.8008 12.0254L22.5342 11.1152L22.6465 11.0645C22.9122 10.964 23.211 10.9813 23.4658 11.1152L25.1982 12.0254L24.8672 10.0957C24.8117 9.77146 24.9197 9.44057 25.1553 9.21094L26.5566 7.84375L24.6191 7.5625C24.2936 7.51505 24.0118 7.31063 23.8662 7.01562L23 5.25879L22.1338 7.01562Z" fill="#1F1F22"/>
<path d="M15 12C15.5523 12 16 12.4477 16 13C16 13.5523 15.5523 14 15 14H12C11.4477 14 11 13.5523 11 13C11 12.4477 11.4477 12 12 12H15Z" fill="#1F1F22"/>
</svg>
