<svg width="32.000000" height="32.000000" viewBox="0 0 32 32" fill="none" xmlns="http://www.w3.org/2000/svg" xmlns:xlink="http://www.w3.org/1999/xlink">
	<desc>
			Created with Pixso.
	</desc>
	<defs/>
	<path id="Union" d="M16 10C17.1 10 18 9.09 18 8C18 6.9 17.1 6 16 6C14.9 6 14 6.9 14 8C14 9.09 14.9 10 16 10ZM16 14C14.9 14 14 14.9 14 16C14 17.1 14.9 18 16 18C17.1 18 18 17.1 18 16C18 14.9 17.1 14 16 14ZM16 22C14.9 22 14 22.9 14 24C14 25.1 14.9 26 16 26C17.1 26 18 25.1 18 24C18 22.9 17.1 22 16 22Z" fill="#1F1F22" fill-opacity="1.000000" fill-rule="evenodd"/>
</svg>
