<svg width="32" height="32" viewBox="0 0 32 32" fill="none" xmlns="http://www.w3.org/2000/svg">
<path fill-rule="evenodd" clip-rule="evenodd" d="M3.29313 3.29302C3.68365 2.90249 4.31666 2.90249 4.70719 3.29302L28.7072 27.293C29.0976 27.6835 29.0977 28.3166 28.7072 28.7071C28.3167 29.0975 27.6837 29.0975 27.2931 28.7071L22.3634 23.7774C20.4935 24.8714 18.3191 25.5 16.0002 25.5C10.7798 25.5 6.30245 22.3284 4.37027 17.8086C3.87698 16.6547 3.87699 15.3454 4.37027 14.1915C5.17412 12.3111 6.41701 10.6651 7.96988 9.38384L3.29313 4.70708C2.90261 4.31656 2.90262 3.68354 3.29313 3.29302ZM9.39176 10.8057C8.01308 11.9023 6.91158 13.3344 6.20914 14.9776C5.93051 15.6294 5.9305 16.3707 6.20914 17.0225C7.83898 20.835 11.6117 23.5 16.0002 23.5C17.7653 23.5 19.4282 23.0686 20.8927 22.3067L18.756 20.17C17.9656 20.6931 17.018 21 16.0002 21C13.2389 21 11.0004 18.7613 11.0002 16C11.0002 14.9818 11.3051 14.0327 11.8283 13.2422L9.39176 10.8057ZM13.2931 14.7071C13.1057 15.0984 13.0002 15.5365 13.0002 16C13.0004 17.6567 14.3434 19 16.0002 19C16.4637 19 16.9009 18.8931 17.2921 18.7061L13.2931 14.7071Z" fill="#1F1F22"/>
<path d="M16.0002 6.50005C21.2205 6.50009 25.6979 9.6717 27.63 14.1915C28.1233 15.3454 28.1233 16.6547 27.63 17.8086C27.3384 18.4908 26.989 19.1419 26.588 19.7559C26.2861 20.2182 25.6666 20.3486 25.2043 20.0469C24.742 19.745 24.6115 19.1255 24.9132 18.6631C25.2512 18.1457 25.5457 17.5968 25.7912 17.0225C26.0698 16.3707 26.0698 15.6294 25.7912 14.9776C24.1614 11.165 20.3886 8.50009 16.0002 8.50005C15.3052 8.50005 14.6262 8.56634 13.9699 8.69341C13.4278 8.79823 12.9031 8.44438 12.798 7.90239C12.693 7.3602 13.0478 6.83552 13.59 6.73052C14.3709 6.57933 15.1769 6.50005 16.0002 6.50005Z" fill="#1F1F22"/>
<path d="M16.3957 11.8956C16.5804 11.3751 17.1525 11.1025 17.673 11.2872C19.227 11.8388 20.4272 13.1357 20.8429 14.751C20.9803 15.2857 20.6579 15.8312 20.1232 15.9688C19.5885 16.1063 19.0432 15.7836 18.9054 15.2491C18.6567 14.2832 17.936 13.5028 17.0041 13.1719C16.4838 12.9873 16.2115 12.4158 16.3957 11.8956Z" fill="#1F1F22"/>
</svg>
