<svg width="32" height="32" viewBox="0 0 32 32" fill="none" xmlns="http://www.w3.org/2000/svg">
<path d="M20 20C20.5523 20 21 20.4477 21 21C21 21.5523 20.5523 22 20 22H12C11.4477 22 11 21.5523 11 21C11 20.4477 11.4477 20 12 20H20Z" fill="#1F1F22"/>
<path d="M15 16C15.5523 16 16 16.4477 16 17C16 17.5523 15.5523 18 15 18H12C11.4477 18 11 17.5523 11 17C11 16.4477 11.4477 16 12 16H15Z" fill="#1F1F22"/>
<path fill-rule="evenodd" clip-rule="evenodd" d="M15.1719 4C15.9674 4.00008 16.7304 4.31637 17.293 4.87891L24.1211 11.707C24.6836 12.2696 24.9999 13.0326 25 13.8281V24C25 25.6569 23.6569 27 22 27H10C8.34315 27 7 25.6569 7 24V7C7 5.34315 8.34315 4 10 4H15.1719ZM10 6C9.44772 6 9 6.44772 9 7V24C9 24.5523 9.44772 25 10 25H22C22.5523 25 23 24.5523 23 24V14H18C16.3431 14 15 12.6569 15 11V6H10ZM17 11C17 11.5523 17.4477 12 18 12H21.5859L17 7.41406V11Z" fill="#1F1F22"/>
</svg>
