<svg width="24" height="24" viewBox="0 0 24 24" fill="none" xmlns="http://www.w3.org/2000/svg">
<path fill-rule="evenodd" clip-rule="evenodd" d="M6.99 6.00001C6.44 6.00001 5.99 6.44001 5.99 7.00001V17C5.99 17.55 6.44 18 6.99 18H16.99C17.54 18 17.99 17.55 17.99 17V15C17.99 14.44 18.43 14 18.99 14C19.54 14 19.99 14.44 19.99 15V17C19.99 18.65 18.64 20 16.99 20H6.99C5.34 20 4 18.65 4 17V7.00001C4 5.34001 5.34 4.00001 6.99 4.00001L9 4.02001C9.56 4.02001 10 4.47001 10 5.02001C10 5.57001 9.56 6.02001 9 6.02001L6.99 6.00001ZM19.99 10.5V5.09001C20 4.95001 19.99 4.81001 19.94 4.68001C19.89 4.56001 19.8 4.39001 19.7 4.29001C19.58 4.18001 19.45 4.10001 19.31 4.05001C19.18 4.00001 19.04 3.99001 18.9 4.00001H13.49C12.93 4.00001 12.5 4.44001 12.5 5.00001C12.5 5.56001 12.93 6.00001 13.49 6.00001H16.58L11.79 10.79C11.39 11.19 11.39 11.81 11.79 12.21C12.18 12.6 12.81 12.6 13.2 12.21L17.99 7.41001V10.5C17.99 11.06 18.43 11.5 18.99 11.5C19.55 11.5 19.99 11.06 19.99 10.5Z" fill="#1F1F22"/>
</svg>
