<svg width="32" height="32" viewBox="0 0 32 32" fill="none" xmlns="http://www.w3.org/2000/svg">
<path fill-rule="evenodd" clip-rule="evenodd" d="M17.4101 15.99L24.2001 22.78C24.5901 23.18 24.5901 23.8 24.2001 24.2C23.8001 24.59 23.1801 24.59 22.7801 24.2L16.0001 17.41L9.21006 24.2C8.81006 24.59 8.19006 24.59 7.79006 24.2C7.40006 23.8 7.40006 23.18 7.79006 22.78L14.5801 15.99L7.79006 9.21C7.40006 8.81 7.40006 8.19 7.79006 7.79C8.19006 7.4 8.81006 7.4 9.21006 7.79L16.0001 14.58L22.7801 7.79C23.1801 7.4 23.8001 7.4 24.2001 7.79C24.5901 8.19 24.5901 8.81 24.2001 9.21L17.4101 15.99Z" fill="#1F1F22"/>
</svg>
