<svg width="24.000000" height="24.000000" viewBox="0 0 24 24" fill="none" xmlns="http://www.w3.org/2000/svg" xmlns:xlink="http://www.w3.org/1999/xlink">
	<desc>
			Created with Pixso.
	</desc>
	<defs/>
	<path id="Union" d="M4 12C4 7.58 7.58 4 12 4C14.52 4 16.77 5.16 18.24 7L15.5 7C14.94 7 14.5 7.44 14.5 8C14.5 8.55 14.94 9 15.5 9L20.5 9C21.05 9 21.5 8.55 21.5 8L21.5 3C21.5 2.44 21.05 2 20.5 2C19.94 2 19.5 2.44 19.5 3L19.5 5.38C17.66 3.31 14.98 2 12 2C6.47 2 2 6.47 2 12C2 17.52 6.47 22 12 22C17.52 22 22 17.52 22 12C22 11.44 21.55 11 21 11C20.44 11 20 11.44 20 12C20 16.41 16.41 20 12 20C7.58 20 4 16.41 4 12Z" fill="#1F1F22" fill-opacity="1.000000" fill-rule="nonzero"/>
</svg>
