<svg width="20" height="20" viewBox="0 0 20 20" fill="none" xmlns="http://www.w3.org/2000/svg">
<path fill-rule="evenodd" clip-rule="evenodd" d="M14 0C14.5523 0 15 0.447715 15 1V2H16C18.2091 2 20 3.79086 20 6V16C20 18.2091 18.2091 20 16 20H4C1.79086 20 0 18.2091 0 16V6C0 3.79086 1.79086 2 4 2H5V1C5 0.447715 5.44772 0 6 0C6.55228 0 7 0.447715 7 1V2H13V1C13 0.447715 13.4477 0 14 0ZM2 10V16C2 17.1046 2.89543 18 4 18H16C17.1046 18 18 17.1046 18 16V10H2ZM4 4C2.89543 4 2 4.89543 2 6V8H18V6C18 4.89543 17.1046 4 16 4H15V5C15 5.55228 14.5523 6 14 6C13.4477 6 13 5.55228 13 5V4H7V5C7 5.55228 6.55228 6 6 6C5.44772 6 5 5.55228 5 5V4H4Z" fill="#1F1F22"/>
</svg>
