<svg width="20" height="20" viewBox="0 0 20 20" fill="none" xmlns="http://www.w3.org/2000/svg">
<path d="M4 3C4.55228 3 5 3.44772 5 4C5 4.55228 4.55228 5 4 5C3.44772 5 3 4.55228 3 4C3 3.44772 3.44772 3 4 3Z" fill="#1F1F22"/>
<path d="M7 3C7.55228 3 8 3.44772 8 4C8 4.55228 7.55228 5 7 5C6.44772 5 6 4.55228 6 4C6 3.44772 6.44772 3 7 3Z" fill="#1F1F22"/>
<path d="M10 3C10.5523 3 11 3.44772 11 4C11 4.55228 10.5523 5 10 5C9.44771 5 9 4.55228 9 4C9 3.44772 9.44771 3 10 3Z" fill="#1F1F22"/>
<path fill-rule="evenodd" clip-rule="evenodd" d="M17 0C18.6569 0 20 1.34315 20 3V17C20 18.6569 18.6569 20 17 20H3C1.34315 20 8.05319e-09 18.6569 0 17V3C0 1.34315 1.34315 8.05319e-09 3 0H17ZM7 18H17C17.5523 18 18 17.5523 18 17V8H7V18ZM2 17C2 17.5523 2.44772 18 3 18H5V8H2V17ZM3 2C2.44772 2 2 2.44772 2 3V6H18V3C18 2.44772 17.5523 2 17 2H3Z" fill="#1F1F22"/>
</svg>
