<svg width="16" height="16" viewBox="0 0 16 16" fill="none" xmlns="http://www.w3.org/2000/svg">
<path fill-rule="evenodd" clip-rule="evenodd" d="M13.24 5.665C12.88 6.075 12.24 6.115 11.83 5.745L7.99996 2.335L4.15996 5.745C3.74996 6.115 3.10996 6.075 2.74996 5.665C2.37996 5.255 2.41996 4.615 2.82996 4.255L7.32996 0.255C7.70996 -0.085 8.27996 -0.085 8.65996 0.255L13.16 4.255C13.57 4.615 13.61 5.255 13.24 5.665ZM11.83 10.255C12.24 9.885 12.88 9.925 13.24 10.335C13.61 10.745 13.57 11.385 13.16 11.745L8.65996 15.745C8.27996 16.085 7.70996 16.085 7.32996 15.745L2.82996 11.745C2.41996 11.385 2.37996 10.745 2.74996 10.335C3.10996 9.925 3.74996 9.885 4.15996 10.255L7.99996 13.665L11.83 10.255Z" fill="#1F1F22"/>
</svg>
