<svg width="24" height="24" viewBox="0 0 24 24" fill="none" xmlns="http://www.w3.org/2000/svg">
<path d="M12.7978 7.34165C13.2022 7.68852 13.3405 8.23953 13.2929 9.07716C13.2599 9.65678 13.0694 10.5 13.0694 10.5H16.5001C17.5943 10.5 18.2943 11.5797 17.888 12.5458L16.5588 15.7057C16.23 16.4874 15.4339 17 14.5485 17H9.00012V11C9.51744 10.5861 10.6159 9.63705 10.6159 8.46982C10.6159 8.25603 10.6766 7.85789 10.7369 7.71735C10.8558 7.44041 11.0819 7.20426 11.4659 7.06967C11.876 6.92594 12.3982 6.99892 12.7978 7.34165Z" fill="#1F1F22"/>
<path d="M6 11.9375C6 11.4197 6.41973 11 6.9375 11H8L8 17H6.9375C6.41973 17 6 16.5803 6 16.0625V11.9375Z" fill="#1F1F22"/>
</svg>
