<svg width="16.000000" height="16.000000" viewBox="0 0 16 16" fill="none" xmlns="http://www.w3.org/2000/svg">
<path fill-rule="evenodd" clip-rule="evenodd" d="M11.1852 12.6059C10.0147 13.4763 8.56401 13.9966 6.99328 13.9966C3.13147 13.9966 0 10.8551 0 6.99328C0 3.13147 3.13147 0 6.99328 0C10.8551 0 13.9966 3.13147 13.9966 6.99328C13.9966 8.56401 13.4763 10.0147 12.6059 11.1852L15.7074 14.2867C16.0975 14.6869 16.0975 15.3072 15.7074 15.7074C15.3072 16.0975 14.6869 16.0975 14.2867 15.7074L11.1852 12.6059ZM11.9956 6.99328C11.9956 9.75457 9.75457 11.9956 6.99328 11.9956C4.23198 11.9956 1.99093 9.75457 1.99093 6.99328C1.99093 4.24199 4.23198 1.99093 6.99328 1.99093C9.75457 1.99093 11.9956 4.24199 11.9956 6.99328Z" fill="#1F1F22"/>
</svg>
