<svg width="32" height="32" viewBox="0 0 32 32" fill="none" xmlns="http://www.w3.org/2000/svg">
<path fill-rule="evenodd" clip-rule="evenodd" d="M3 16C3 23.17 8.82 29 16 29C23.17 29 29 23.17 29 16C29 8.82 23.17 3 16 3C8.82 3 3 8.82 3 16ZM9.29 14.29L15.29 8.29C15.48 8.09 15.72 8 16 8C16.27 8 16.51 8.09 16.7 8.29L22.7 14.29C23.1 14.68 23.1 15.31 22.7 15.7C22.31 16.1 21.68 16.1 21.29 15.7L17 11.41V23C17 23.56 16.56 24 16 24C15.44 24 15 23.56 15 23V11.41L10.7 15.7C10.31 16.1 9.68 16.1 9.29 15.7C8.89 15.31 8.89 14.68 9.29 14.29Z" fill="#1F1F22"/>
</svg>
