<svg width="32" height="32" viewBox="0 0 32 32" fill="none" xmlns="http://www.w3.org/2000/svg">
<path d="M21 3C22.6569 3 24 4.34315 24 6V7C24 7.55228 23.5523 8 23 8C22.4477 8 22 7.55228 22 7V6C22 5.44772 21.5523 5 21 5H19L18.9951 5.10254C18.9438 5.60667 18.5177 6 18 6H14C13.4477 6 13 5.55228 13 5H11C10.4477 5 10 5.44772 10 6V26C10 26.5523 10.4477 27 11 27H21C21.5523 27 22 26.5523 22 26V25C22 24.4477 22.4477 24 23 24C23.5523 24 24 24.4477 24 25V26C24 27.6569 22.6569 29 21 29H11C9.34315 29 8 27.6569 8 26V6C8 4.34315 9.34315 3 11 3H21Z" fill="#1F1F22"/>
<path d="M17.5 23C18.0523 23 18.5 23.4477 18.5 24C18.5 24.5523 18.0523 25 17.5 25H14.5C13.9477 25 13.5 24.5523 13.5 24C13.5 23.4477 13.9477 23 14.5 23H17.5Z" fill="#1F1F22"/>
<path d="M24.248 11.293C24.6386 10.9026 25.2717 10.9025 25.6621 11.293C28.3694 14.0014 28.3694 18.3921 25.6621 21.1006C25.2717 21.4912 24.6387 21.4919 24.248 21.1016C23.8575 20.7112 23.8577 20.0781 24.248 19.6875C26.1747 17.76 26.1746 14.6346 24.248 12.707C23.8577 12.3165 23.8576 11.6834 24.248 11.293Z" fill="#1F1F22"/>
<path d="M21.3418 14.1328C21.7323 13.7426 22.3654 13.7426 22.7559 14.1328C23.9273 15.3043 23.9272 17.2035 22.7559 18.375C22.3653 18.7655 21.7323 18.7655 21.3418 18.375C20.9515 17.9845 20.9513 17.3514 21.3418 16.9609L21.4248 16.8672C21.7297 16.4751 21.702 15.9083 21.3418 15.5479L21.2588 15.4531C20.9538 15.0608 20.9813 14.4933 21.3418 14.1328Z" fill="#1F1F22"/>
</svg>
