<svg width="32" height="32" viewBox="0 0 32 32" fill="none" xmlns="http://www.w3.org/2000/svg">
<path d="M26 16C26 10.4772 21.5228 6 16 6C10.4772 6 6 10.4772 6 16C6 21.5228 10.4772 26 16 26C18.0574 26 19.9671 25.38 21.5557 24.3164L21.6592 24.2559C21.9063 24.1302 22.1966 24.1114 22.46 24.209L22.4609 24.21L22.4629 24.2109C22.4649 24.2117 22.4679 24.2125 22.4717 24.2139C22.4797 24.2168 22.4924 24.2208 22.5078 24.2266C22.5387 24.238 22.5839 24.2549 22.6416 24.2764C22.7574 24.3194 22.9234 24.3819 23.125 24.457C23.5284 24.6073 24.0748 24.8103 24.6426 25.0234C24.8438 25.099 25.049 25.177 25.2529 25.2539C25.1679 25.0279 25.0809 24.8008 24.998 24.5791C24.7894 24.0209 24.592 23.4898 24.4473 23.0986C24.375 22.9033 24.3157 22.7427 24.2744 22.6309C24.2538 22.5749 24.2375 22.5308 24.2266 22.501C24.2211 22.4861 24.2167 22.4745 24.2139 22.4668C24.2125 22.4631 24.2116 22.4599 24.2109 22.458L24.21 22.4561V22.4551C24.0995 22.1548 24.1394 21.8196 24.3174 21.5537C25.3802 19.9655 26 18.0567 26 16ZM28 16C28 18.2791 27.3625 20.4114 26.2578 22.2275C26.2781 22.2826 26.3 22.3416 26.3232 22.4043C26.4675 22.7941 26.6634 23.3234 26.8711 23.8789C27.2916 25.0037 27.7443 26.1981 27.9189 26.6064C28.0797 26.9822 27.996 27.418 27.707 27.707C27.418 27.996 26.9822 28.0797 26.6064 27.9189C26.2789 27.7788 25.0864 27.327 23.9395 26.8965C23.3739 26.6842 22.8302 26.4809 22.4277 26.3311C22.3568 26.3046 22.29 26.2797 22.2285 26.2568C20.4121 27.362 18.2795 28 16 28C9.37258 28 4 22.6274 4 16C4 9.37258 9.37258 4 16 4C22.6274 4 28 9.37258 28 16Z" fill="#1F1F22"/>
</svg>
