<svg width="24" height="24" viewBox="0 0 24 24" fill="none" xmlns="http://www.w3.org/2000/svg">
<path fill-rule="evenodd" clip-rule="evenodd" d="M6.99 5.99994C6.44 5.99994 5.99 6.43994 5.99 6.99994V16.9999C5.99 17.5499 6.44 17.9999 6.99 17.9999H16.99C17.54 17.9999 17.99 17.5499 17.99 16.9999V14.9999C17.99 14.4399 18.43 13.9999 18.99 13.9999C19.54 13.9999 19.99 14.4399 19.99 14.9999V16.9999C19.99 18.6499 18.64 19.9999 16.99 19.9999H6.99C5.34 19.9999 4 18.6499 4 16.9999V6.99994C4 5.33994 5.34 3.99994 6.99 3.99994L9 4.01994C9.56 4.01994 10 4.46994 10 5.01994C10 5.56994 9.56 6.01994 9 6.01994L6.99 5.99994ZM19.99 10.4999V5.08994C20 4.94994 19.99 4.80994 19.94 4.67994C19.89 4.55994 19.8 4.38994 19.7 4.28994C19.58 4.17994 19.45 4.09994 19.31 4.04994C19.18 3.99994 19.04 3.98994 18.9 3.99994H13.49C12.93 3.99994 12.5 4.43994 12.5 4.99994C12.5 5.55994 12.93 5.99994 13.49 5.99994H16.58L11.79 10.7899C11.39 11.1899 11.39 11.8099 11.79 12.2099C12.18 12.5999 12.81 12.5999 13.2 12.2099L17.99 7.40994V10.4999C17.99 11.0599 18.43 11.4999 18.99 11.4999C19.55 11.4999 19.99 11.0599 19.99 10.4999Z" fill="#1F1F22"/>
</svg>
