<svg width="20" height="20" viewBox="0 0 20 20" fill="none" xmlns="http://www.w3.org/2000/svg">
<path d="M14.375 7.21875C14.8063 6.87375 15.4362 6.94376 15.7812 7.375C16.1263 7.80626 16.0563 8.43624 15.625 8.78125L11.874 11.7812C10.7784 12.6578 9.22163 12.6578 8.12598 11.7812L4.375 8.78125C3.94376 8.43624 3.87375 7.80625 4.21875 7.375C4.56375 6.94375 5.19374 6.87376 5.625 7.21875L9.375 10.2197C9.74022 10.5119 10.2598 10.5119 10.625 10.2197L14.375 7.21875Z" fill="#1F1F22"/>
<path fill-rule="evenodd" clip-rule="evenodd" d="M17 2C18.6569 2 20 3.34315 20 5V15C20 16.6569 18.6569 18 17 18H3C1.34315 18 4.83192e-08 16.6569 0 15V5C0 3.34315 1.34315 2 3 2H17ZM3 4C2.44772 4 2 4.44772 2 5V15C2 15.5523 2.44772 16 3 16H17C17.5523 16 18 15.5523 18 15V5C18 4.44772 17.5523 4 17 4H3Z" fill="#1F1F22"/>
</svg>
