<svg width="20" height="20" viewBox="0 0 20 20" fill="none" xmlns="http://www.w3.org/2000/svg">
<path fill-rule="evenodd" clip-rule="evenodd" d="M19.6838 3.69C19.6038 3.58 19.5238 3.47 19.4238 3.37L16.6238 0.57C16.5238 0.47 16.4138 0.39 16.3038 0.31C16.1938 0.24 16.0838 0.19 15.9638 0.14C15.8538 0.09 15.7338 0.06 15.6138 0.03C15.4838 0.01 15.3538 0 15.2238 0C15.0938 0 14.9638 0.01 14.8338 0.03C14.7138 0.06 14.5938 0.09 14.4838 0.14C14.3638 0.19 14.2538 0.24 14.1538 0.31C14.0338 0.39 13.9238 0.47 13.8238 0.57L1.76379 12.64C1.52379 12.88 1.35379 13.16 1.26379 13.48L0.0837947 17.45C-0.0262053 17.82 -0.0262053 18.18 0.0737947 18.54C0.163795 18.87 0.333795 19.16 0.583795 19.41C0.713795 19.55 0.853795 19.66 1.01379 19.74C1.15379 19.82 1.30379 19.88 1.45379 19.92C1.81379 20.02 2.18379 20.02 2.54379 19.91L6.51379 18.73C6.84379 18.64 7.11379 18.47 7.35379 18.23L19.4238 6.17C19.5238 6.07 19.6038 5.96 19.6838 5.84C19.7538 5.74 19.8038 5.63 19.8538 5.51C19.9038 5.4 19.9338 5.28 19.9638 5.16C19.9838 5.03 20.0038 4.9 20.0038 4.77C20.0038 4.64 19.9838 4.51 19.9638 4.38C19.9338 4.26 19.9038 4.14 19.8538 4.03C19.8038 3.91 19.7538 3.8 19.6838 3.69ZM15.2238 1.97L18.0238 4.77L16.4838 6.31L13.6838 3.51L15.2238 1.97ZM15.0838 7.71L12.2838 4.91L3.15379 14.04L1.98379 18.01L5.95379 16.84L15.0838 7.71Z" fill="#1F1F22"/>
</svg>
