<svg width="20" height="20" viewBox="0 0 20 20" fill="none" xmlns="http://www.w3.org/2000/svg">
<path fill-rule="evenodd" clip-rule="evenodd" d="M6.49584 14.8711C6.41581 16.4013 6.83594 17.5714 7.63619 18.2914C8.41643 18.9915 9.45675 19.1615 10.297 18.8515C11.0472 18.5715 11.5174 18.0614 11.7675 17.4614C11.9875 16.9313 11.9975 16.3613 11.9975 16.0012C11.9975 14.8311 12.5877 13.8111 13.2579 13.021C13.588 12.641 13.9181 12.3309 14.1682 12.1209C14.2282 12.0809 14.2782 12.0309 14.3283 12.0009H17.9994C19.1097 12.0009 20 11.1008 20 10.0007V3.00017C20 1.89007 19.1097 1 17.9994 1H14.0282C14.0182 1 14.0082 1 13.9982 1H6.0457C4.39519 1 2.91474 2.00008 2.31455 3.53021L0.213905 8.90065C-0.566336 10.8708 0.884111 13.001 3.00476 13.001H6.71591C6.62588 13.491 6.53585 14.1211 6.49584 14.8711ZM14.9985 3.00017V10.0007H17.9994V3.00017H14.9985ZM12.9978 3.00017V10.5008C12.9678 10.5308 12.9278 10.5608 12.8878 10.5908C12.5777 10.8508 12.1576 11.2308 11.7375 11.7209C10.9172 12.681 9.99692 14.1611 9.99692 16.0012C9.99692 16.3513 9.97691 16.5613 9.91689 16.7113C9.88688 16.7713 9.85687 16.8113 9.82687 16.8413C9.79686 16.8713 9.72684 16.9213 9.6068 16.9713C9.46675 17.0213 9.21668 17.0113 8.9766 16.8013C8.75654 16.6013 8.43644 16.1012 8.49646 14.9812C8.54647 14.0811 8.65651 13.411 8.76654 12.971C8.81656 12.751 8.85657 12.581 8.88658 12.4809C8.90658 12.4309 8.91659 12.3909 8.92659 12.3709V12.3609C9.04663 12.0509 9.00661 11.7009 8.82656 11.4309C8.6365 11.1608 8.3264 11.0008 7.9963 11.0008H3.00476C2.29455 11.0008 1.8144 10.2908 2.07448 9.63071L4.17512 4.26027C4.47522 3.50021 5.21545 3.00017 6.0457 3.00017H12.9978Z" fill="#1F1F22"/>
</svg>
