<svg width="32" height="32" viewBox="0 0 32 32" fill="none" xmlns="http://www.w3.org/2000/svg">
<path fill-rule="evenodd" clip-rule="evenodd" d="M20.2109 7C21.7302 7.00022 23 8.21045 23 9.75V12.377L25.0361 10.9072C26.6894 9.71317 29 10.8942 29 12.9336V19.0664C29 21.1058 26.6894 22.2868 25.0361 21.0928L23 19.6221V23.25C23 24.7896 21.7302 25.9998 20.2109 26H6.78906C5.26981 25.9998 4 24.7896 4 23.25V9.75C4 8.21045 5.26981 7.00022 6.78906 7H20.2109ZM6.78906 9C6.33212 9.00021 6 9.35682 6 9.75V23.25C6 23.6432 6.33212 23.9998 6.78906 24H20.2109C20.6679 23.9998 21 23.6432 21 23.25V9.75C21 9.35682 20.6679 9.00021 20.2109 9H6.78906ZM27 12.9336C27 12.5257 26.5377 12.2895 26.207 12.5283L23.207 14.6953C23.0771 14.7893 23 14.9402 23 15.1006V16.8994C23 17.0598 23.0771 17.2107 23.207 17.3047L26.207 19.4717C26.5377 19.7105 27 19.4743 27 19.0664V12.9336Z" fill="#1F1F22"/>
</svg>
