<svg width="32" height="32" viewBox="0 0 32 32" fill="none" xmlns="http://www.w3.org/2000/svg">
<path d="M14 5C14.5523 5 15 5.44772 15 6C15 6.55228 14.5523 7 14 7H10C9.44772 7 9 7.44772 9 8V25C9 25.5523 9.44772 26 10 26H22C22.5523 26 23 25.5523 23 25V18C23 17.4477 23.4477 17 24 17C24.5523 17 25 17.4477 25 18V25C25 26.6569 23.6569 28 22 28H10C8.34315 28 7 26.6569 7 25V8C7 6.34315 8.34315 5 10 5H14Z" fill="#1F1F22"/>
<path d="M20 21C20.5523 21 21 21.4477 21 22C21 22.5523 20.5523 23 20 23H12C11.4477 23 11 22.5523 11 22C11 21.4477 11.4477 21 12 21H20Z" fill="#1F1F22"/>
<path d="M15 17C15.5523 17 16 17.4477 16 18C16 18.5523 15.5523 19 15 19H12C11.4477 19 11 18.5523 11 18C11 17.4477 11.4477 17 12 17H15Z" fill="#1F1F22"/>
<path fill-rule="evenodd" clip-rule="evenodd" d="M23 3C23.3806 3 23.728 3.21629 23.8965 3.55762L25.4268 6.6582L28.8506 7.15625C29.2271 7.21112 29.5396 7.47506 29.6572 7.83691C29.7749 8.19893 29.6769 8.59661 29.4043 8.8623L26.9277 11.2754L27.5127 14.6846C27.577 15.0597 27.4222 15.4394 27.1143 15.6631C26.8064 15.8867 26.3984 15.9163 26.0615 15.7393L23 14.1289L19.9385 15.7393C19.6016 15.9163 19.1936 15.8867 18.8857 15.6631C18.5778 15.4393 18.423 15.0597 18.4873 14.6846L19.0713 11.2754L16.5957 8.8623C16.3232 8.59662 16.2252 8.19891 16.3428 7.83691C16.4604 7.47506 16.7729 7.21114 17.1494 7.15625L20.5723 6.6582L22.1035 3.55762L22.1748 3.43555C22.3594 3.16557 22.667 3.00001 23 3ZM22.1338 8.01562C21.9882 8.31063 21.7064 8.51506 21.3809 8.5625L19.4424 8.84375L20.8447 10.2109C21.0803 10.4406 21.1883 10.7715 21.1328 11.0957L20.8008 13.0254L22.5342 12.1152L22.6465 12.0645C22.9122 11.964 23.211 11.9813 23.4658 12.1152L25.1982 13.0254L24.8672 11.0957C24.8117 10.7715 24.9197 10.4406 25.1553 10.2109L26.5566 8.84375L24.6191 8.5625C24.2936 8.51505 24.0118 8.31063 23.8662 8.01562L23 6.25879L22.1338 8.01562Z" fill="#1F1F22"/>
<path d="M15 13C15.5523 13 16 13.4477 16 14C16 14.5523 15.5523 15 15 15H12C11.4477 15 11 14.5523 11 14C11 13.4477 11.4477 13 12 13H15Z" fill="#1F1F22"/>
</svg>
