<svg width="24" height="24" viewBox="0 0 24 24" fill="none" xmlns="http://www.w3.org/2000/svg">
<path d="M12.0936 18C12.0303 17.9999 11.9676 17.9889 11.9081 17.9673C11.7935 17.9253 11.6962 17.846 11.6319 17.7422C11.5677 17.6383 11.5401 17.5159 11.5537 17.3945L11.7583 13H8.54614C8.44707 13.0001 8.34983 12.9733 8.26486 12.9223C8.17989 12.8714 8.1104 12.7982 8.06387 12.7108C8.01733 12.6233 7.9955 12.5248 8.00072 12.4258C8.00594 12.3269 8.03802 12.2312 8.0935 12.1491L12.6116 6.24005C12.6797 6.13933 12.7794 6.06423 12.895 6.02668C13.0106 5.98912 13.1355 5.99127 13.2497 6.03278C13.3595 6.07356 13.4533 6.14863 13.5172 6.24686C13.581 6.3451 13.6115 6.46129 13.6042 6.57823L12.834 11H16.0461C16.1452 10.9999 16.2425 11.0267 16.3274 11.0777C16.4124 11.1286 16.4819 11.2018 16.5284 11.2892C16.575 11.3767 16.5968 11.4752 16.5916 11.5742C16.5863 11.6731 16.5543 11.7688 16.4988 11.8509L12.5462 17.76C12.4962 17.834 12.4287 17.8946 12.3498 17.9365C12.2709 17.9783 12.1829 18.0001 12.0936 18Z" fill="#1F1F22"/>
</svg>
