<svg width="20" height="20" viewBox="0 0 20 20" fill="none" xmlns="http://www.w3.org/2000/svg">
<path fill-rule="evenodd" clip-rule="evenodd" d="M0.861921 7.01L6.54192 6.24L9.10192 1.06C9.12192 1.01 9.15192 0.97 9.18192 0.92C9.21192 0.88 9.25192 0.84 9.29192 0.8C9.33192 0.76 9.37192 0.72 9.41192 0.69C9.46192 0.66 9.50192 0.63 9.55192 0.61C9.68192 0.55 9.80192 0.51 9.93192 0.5C10.0619 0.5 10.1919 0.51 10.3219 0.56C10.4519 0.6 10.5619 0.67 10.6619 0.75C10.7519 0.83 10.8319 0.94 10.8919 1.06L13.4519 6.24L19.1319 7.01C19.2419 7.03 19.3419 7.06 19.4419 7.11C19.5419 7.16 19.6319 7.22 19.7019 7.3C19.9019 7.49 20.0019 7.73 20.0019 8.01C20.0019 8.28 19.9019 8.52 19.7019 8.71L15.5919 12.82L16.5719 18.52C16.5719 18.58 16.5819 18.63 16.5819 18.68C16.5819 18.74 16.5819 18.79 16.5719 18.85C16.5519 18.96 16.5219 19.06 16.4719 19.16C16.3419 19.4 16.1419 19.56 15.8819 19.65C15.7519 19.69 15.6219 19.7 15.4919 19.69C15.3619 19.68 15.2419 19.64 15.1119 19.58L10.0019 16.88L4.88192 19.58C4.78192 19.63 4.68192 19.66 4.57192 19.68C4.46192 19.7 4.35192 19.69 4.24192 19.68C4.11192 19.65 3.98192 19.61 3.88192 19.54C3.77192 19.47 3.68192 19.38 3.60192 19.27C3.52192 19.16 3.46192 19.04 3.43192 18.91C3.41192 18.79 3.40192 18.66 3.43192 18.52L4.41192 12.82L0.291921 8.71C0.211921 8.64 0.151921 8.55 0.101921 8.45C0.0519212 8.35 0.0219212 8.25 0.0119212 8.14C-0.0280788 7.87 0.0319212 7.62 0.201921 7.4C0.281921 7.29 0.381921 7.2 0.491921 7.14C0.601921 7.07 0.721921 7.03 0.861921 7.01Z" fill="#1F1F22"/>
</svg>
