<svg width="20" height="20" viewBox="0 0 20 20" fill="none" xmlns="http://www.w3.org/2000/svg">
<path d="M9 0C9.55229 0 10 0.447715 10 1C10 1.55228 9.55229 2 9 2H4C3.44772 2 3 2.44772 3 3V17C3 17.5523 3.44772 18 4 18H14C14.5523 18 15 17.5523 15 17V13.5C15 12.9477 15.4477 12.5 16 12.5C16.5523 12.5 17 12.9477 17 13.5V17C17 18.6569 15.6569 20 14 20H4C2.34315 20 1 18.6569 1 17V3C1 1.34315 2.34315 4.83192e-08 4 0H9Z" fill="#1F1F22"/>
<path d="M12 14C12.5523 14 13 14.4477 13 15C13 15.5523 12.5523 16 12 16H6C5.44772 16 5 15.5523 5 15C5 14.4477 5.44772 14 6 14H12Z" fill="#1F1F22"/>
<path d="M7 10C7.55228 10 8 10.4477 8 11C8 11.5523 7.55228 12 7 12H6C5.44772 12 5 11.5523 5 11C5 10.4477 5.44772 10 6 10H7Z" fill="#1F1F22"/>
<path fill-rule="evenodd" clip-rule="evenodd" d="M15.7188 5.25C16.2291 4.89588 16.9227 4.91873 17.4102 5.31445C18.4091 6.12771 18.9999 7.32481 19 8.60352C19 8.80457 18.9944 9.19872 18.8506 9.56543C18.7725 9.76461 18.6337 10.0093 18.3838 10.2041C18.1207 10.4091 17.81 10.5 17.5 10.5H11.5C11.1899 10.5 10.8793 10.4091 10.6162 10.2041C10.3664 10.0093 10.2275 9.76457 10.1494 9.56543C10.0057 9.19877 10 8.80472 10 8.60352C10.0001 7.34606 10.5726 6.16354 11.5439 5.35156L11.5459 5.35059C12.0621 4.92085 12.8146 4.91719 13.335 5.33887L13.3369 5.33984C13.5978 5.55232 14.0069 5.68262 14.5 5.68262C14.9777 5.68262 15.3407 5.55875 15.6191 5.32617L15.7188 5.25ZM16.459 7.17285C15.8505 7.53556 15.1733 7.68262 14.5 7.68262C13.8577 7.68262 13.1489 7.54957 12.5215 7.19434C12.2061 7.57343 12.0289 8.03008 12.0059 8.5H16.9941C16.9707 8.01974 16.7864 7.55607 16.459 7.17285Z" fill="#1F1F22"/>
<path d="M7 6C7.55228 6 8 6.44772 8 7C8 7.55228 7.55228 8 7 8H6C5.44772 8 5 7.55228 5 7C5 6.44772 5.44772 6 6 6H7Z" fill="#1F1F22"/>
<path fill-rule="evenodd" clip-rule="evenodd" d="M14.5 0C15.8807 0 17 1.11929 17 2.5C17 3.88071 15.8807 5 14.5 5C13.1193 5 12 3.88071 12 2.5C12 1.11929 13.1193 0 14.5 0ZM14.5 2C14.2239 2 14 2.22386 14 2.5C14 2.77614 14.2239 3 14.5 3C14.7761 3 15 2.77614 15 2.5C15 2.22386 14.7761 2 14.5 2Z" fill="#1F1F22"/>
</svg>
