<svg width="24" height="24" viewBox="0 0 24 24" fill="none" xmlns="http://www.w3.org/2000/svg">
<path d="M12 2C12.5523 2 13 2.44772 13 3C13 3.55228 12.5523 4 12 4H7C6.44772 4 6 4.44772 6 5V19C6 19.5523 6.44772 20 7 20H17C17.5523 20 18 19.5523 18 19V15.5C18 14.9477 18.4477 14.5 19 14.5C19.5523 14.5 20 14.9477 20 15.5V19C20 20.6569 18.6569 22 17 22H7C5.34315 22 4 20.6569 4 19V5C4 3.34315 5.34315 2 7 2H12Z" fill="#1F1F22"/>
<path d="M15 16C15.5523 16 16 16.4477 16 17C16 17.5523 15.5523 18 15 18H9C8.44772 18 8 17.5523 8 17C8 16.4477 8.44772 16 9 16H15Z" fill="#1F1F22"/>
<path d="M10 12C10.5523 12 11 12.4477 11 13C11 13.5523 10.5523 14 10 14H9C8.44772 14 8 13.5523 8 13C8 12.4477 8.44772 12 9 12H10Z" fill="#1F1F22"/>
<path fill-rule="evenodd" clip-rule="evenodd" d="M18.7188 7.25C19.2291 6.89588 19.9227 6.91873 20.4102 7.31445C21.4091 8.12771 21.9999 9.32481 22 10.6035C22 10.8046 21.9944 11.1987 21.8506 11.5654C21.7725 11.7646 21.6337 12.0093 21.3838 12.2041C21.1207 12.4091 20.81 12.5 20.5 12.5H14.5C14.1899 12.5 13.8793 12.4091 13.6162 12.2041C13.3664 12.0093 13.2275 11.7646 13.1494 11.5654C13.0057 11.1988 13 10.8047 13 10.6035C13.0001 9.34606 13.5726 8.16354 14.5439 7.35156L14.5459 7.35059C15.0621 6.92085 15.8146 6.91719 16.335 7.33887L16.3369 7.33984C16.5978 7.55232 17.0069 7.68262 17.5 7.68262C17.9777 7.68262 18.3407 7.55875 18.6191 7.32617L18.7188 7.25ZM19.459 9.17285C18.8505 9.53556 18.1733 9.68262 17.5 9.68262C16.8577 9.68262 16.1489 9.54957 15.5215 9.19434C15.2061 9.57343 15.0289 10.0301 15.0059 10.5H19.9941C19.9707 10.0197 19.7864 9.55607 19.459 9.17285Z" fill="#1F1F22"/>
<path d="M10 8C10.5523 8 11 8.44772 11 9C11 9.55228 10.5523 10 10 10H9C8.44772 10 8 9.55228 8 9C8 8.44772 8.44772 8 9 8H10Z" fill="#1F1F22"/>
<path fill-rule="evenodd" clip-rule="evenodd" d="M17.5 2C18.8807 2 20 3.11929 20 4.5C20 5.88071 18.8807 7 17.5 7C16.1193 7 15 5.88071 15 4.5C15 3.11929 16.1193 2 17.5 2ZM17.5 4C17.2239 4 17 4.22386 17 4.5C17 4.77614 17.2239 5 17.5 5C17.7761 5 18 4.77614 18 4.5C18 4.22386 17.7761 4 17.5 4Z" fill="#1F1F22"/>
</svg>
