<svg width="20.000000" height="20.000000" viewBox="0 0 20 20" fill="none" xmlns="http://www.w3.org/2000/svg" xmlns:xlink="http://www.w3.org/1999/xlink">
	<desc>
			Created with Pixso.
	</desc>
	<defs/>
	<path id="Union" d="M7 1C7 0.44 6.55 0 6 0C5.44 0 5 0.44 5 1L5 2L3 2C1.34 2 0 3.34 0 5L0 17C0 18.65 1.34 20 3 20L17 20C18.65 20 20 18.65 20 17L20 5C20 3.34 18.65 2 17 2L15 2L15 1C15 0.44 14.55 0 14 0C13.44 0 13 0.44 13 1L13 2L7 2L7 1ZM13 5L13 4L7 4L7 5C7 5.55 6.55 6 6 6C5.44 6 5 5.55 5 5L5 4L3 4C2.44 4 2 4.44 2 5L2 8L18 8L18 5C18 4.44 17.55 4 17 4L15 4L15 5C15 5.55 14.55 6 14 6C13.44 6 13 5.55 13 5ZM18 10L2 10L2 17C2 17.55 2.44 18 3 18L17 18C17.55 18 18 17.55 18 17L18 10Z" fill="#1F1F22" fill-opacity="1.000000" fill-rule="evenodd"/>
</svg>
