<svg width="32" height="32" viewBox="0 0 32 32" fill="none" xmlns="http://www.w3.org/2000/svg">
<path d="M22.5 21C23.3284 21 24 21.6716 24 22.5C24 23.3284 23.3284 24 22.5 24C21.6716 24 21 23.3284 21 22.5C21 21.6716 21.6716 21 22.5 21Z" fill="#1F1F22"/>
<path fill-rule="evenodd" clip-rule="evenodd" d="M22.5 14C24.3955 14 25.9999 15.487 26 17.4033V18.1738C27.1647 18.5859 28 19.6941 28 21V24C28 25.6569 26.6569 27 25 27H20C18.3949 27 17.0842 25.7394 17.0039 24.1543L17 24V21C17 19.6941 17.8353 18.5859 19 18.1738V17.4033C19.0001 15.487 20.6045 14 22.5 14ZM20 20C19.4477 20 19 20.4477 19 21V24L19.0049 24.1025C19.0562 24.6067 19.4823 25 20 25H25C25.5523 25 26 24.5523 26 24V21C26 20.4477 25.5523 20 25 20H20ZM22.5 16C21.6342 16 21.0001 16.665 21 17.4033V18H24V17.4033C23.9999 16.665 23.3658 16 22.5 16Z" fill="#1F1F22"/>
<path d="M7.06152 14.4502C7.72494 13.8928 8.68138 13.8528 9.38672 14.3311L9.52441 14.4336L9.52637 14.4355C10.4628 15.2052 11.6663 15.6347 12.915 15.6348C14.1885 15.6348 15.4105 15.1901 16.3555 14.3936C16.7777 14.0376 17.4087 14.0914 17.7646 14.5137C18.1205 14.9359 18.0668 15.5669 17.6445 15.9229C16.3317 17.0295 14.6507 17.6348 12.915 17.6348C11.2335 17.6347 9.59909 17.0638 8.30469 16.0186C6.83223 17.2821 6.00009 19.0729 6 20.9365C6 21.2836 6.03172 21.6413 6.09277 22H12.915C13.4673 22 13.915 22.4477 13.915 23C13.915 23.5523 13.4673 24 12.915 24H6.0166C5.18495 24 4.41829 23.4616 4.18457 22.6406L4.14453 22.4727C4.04947 21.9633 4 21.4461 4 20.9365C4.00009 18.4455 5.12357 16.0841 7.05957 14.4512L7.06152 14.4502Z" fill="#1F1F22"/>
<path fill-rule="evenodd" clip-rule="evenodd" d="M13 4C15.7614 4 18 6.23858 18 9C18 11.7614 15.7614 14 13 14C10.2386 14 8 11.7614 8 9C8 6.23858 10.2386 4 13 4ZM13 6C11.3431 6 10 7.34315 10 9C10 10.6569 11.3431 12 13 12C14.6569 12 16 10.6569 16 9C16 7.34315 14.6569 6 13 6Z" fill="#1F1F22"/>
</svg>
