<svg width="20" height="20" viewBox="0 0 20 20" fill="none" xmlns="http://www.w3.org/2000/svg">
<path d="M13.7952 2.04688C15.6786 1.80075 17.6253 2.51941 18.8694 4.32227C19.911 5.8318 20.1806 7.42011 19.8909 8.96289C19.6077 10.4708 18.8027 11.8803 17.7923 13.126C15.7758 15.6118 12.7498 17.6811 10.4661 18.8848C10.1746 19.0383 9.82602 19.0382 9.53446 18.8848C7.25082 17.6812 4.22479 15.6119 2.20829 13.126C1.19783 11.8803 0.392911 10.4709 0.109653 8.96289C-0.180041 7.42004 0.0894769 5.83186 1.13114 4.32227C2.37535 2.51943 4.32187 1.80064 6.20536 2.04688C7.61572 2.23147 8.9746 2.95182 10.0003 4.11621C11.026 2.95184 12.3848 2.2314 13.7952 2.04688Z" fill="#1F1F22"/>
</svg>
