<svg width="24" height="24" viewBox="0 0 24 24" fill="none" xmlns="http://www.w3.org/2000/svg">
<path d="M12.4144 6.2698C12.3366 6.10459 12.1759 6 12 6C11.8241 6 11.6634 6.10459 11.5856 6.2698L9.98182 9.67313L6.39569 10.2189C6.22161 10.2454 6.07699 10.3731 6.02263 10.5483C5.96827 10.7235 6.01361 10.9158 6.13957 11.0444L8.73452 13.6936L8.12194 17.4342C8.0922 17.6158 8.16347 17.7993 8.30578 17.9076C8.44809 18.0159 8.63676 18.0301 8.79247 17.9444L12 16.1783L15.2075 17.9444C15.3632 18.0301 15.5519 18.0159 15.6942 17.9076C15.8365 17.7993 15.9078 17.6158 15.8781 17.4342L15.2655 13.6936L17.8604 11.0444C17.9864 10.9158 18.0317 10.7235 17.9774 10.5483C17.923 10.3731 17.7784 10.2454 17.6043 10.2189L14.0182 9.67313L12.4144 6.2698Z" fill="#1F1F22"/>
</svg>
