<svg width="24" height="24" viewBox="0 0 24 24" fill="none" xmlns="http://www.w3.org/2000/svg">
<path d="M4 6C4.55228 6 5 6.44772 5 7V15C5 17.7614 7.23858 20 10 20H16C16.5523 20 17 20.4477 17 21C17 21.5523 16.5523 22 16 22H10C6.13401 22 3 18.866 3 15V7C3 6.44772 3.44772 6 4 6Z" fill="#1F1F22"/>
<path fill-rule="evenodd" clip-rule="evenodd" d="M18 2C19.6569 2 21 3.34315 21 5V15C21 16.6569 19.6569 18 18 18H10C8.34315 18 7 16.6569 7 15V5C7 3.34315 8.34315 2 10 2H18ZM10 4C9.44772 4 9 4.44772 9 5V15C9 15.5523 9.44772 16 10 16H18C18.5523 16 19 15.5523 19 15V5C19 4.44772 18.5523 4 18 4H10Z" fill="#1F1F22"/>
</svg>
