<svg width="32.000000" height="32.000000" viewBox="0 0 32 32" fill="none" xmlns="http://www.w3.org/2000/svg" xmlns:xlink="http://www.w3.org/1999/xlink">
	<desc>
			Created with Pixso.
	</desc>
	<defs/>
	<path id="Union" d="M25.293 26.707L19.6151 21.0292C15.8892 24.0135 10.4819 23.5663 7.2962 20.0088C4.10846 16.449 4.25696 11.0164 7.63452 7.63635C11.012 4.25635 16.4404 4.10767 19.9975 7.29779C23.5482 10.4822 23.9982 15.8848 21.0275 19.6131L26.7072 25.2928C27.1031 25.6887 27.1031 26.311 26.7072 26.707C26.3112 27.103 25.6889 27.103 25.293 26.707ZM14.0155 21.0234C10.1519 21.0234 7.01971 17.8889 7.01971 14.0223C7.01971 10.1556 10.1519 7.02112 14.0155 7.02112C17.8793 7.02112 21.0114 10.1556 21.0114 14.0223C21.0114 15.8791 20.2743 17.6599 18.9623 18.9728C17.6504 20.2858 15.871 21.0234 14.0155 21.0234Z" clip-rule="evenodd" fill="#000000" fill-opacity="1.000000" fill-rule="evenodd"/>
</svg>
