<svg width="20.000000" height="20.000000" viewBox="0 0 20 20" fill="none" xmlns="http://www.w3.org/2000/svg" xmlns:xlink="http://www.w3.org/1999/xlink">
	<desc>
			Created with Pixso.
	</desc>
	<defs/>
	<path id="Union" d="M4.29 9.28L9.28 4.28C9.38 4.19 9.49 4.12 9.61 4.07C9.86 3.97 10.13 3.97 10.37 4.07C10.5 4.12 10.61 4.19 10.7 4.28L15.7 9.28C15.95 9.54 16.05 9.91 15.96 10.25C15.87 10.6 15.6 10.87 15.25 10.96C14.9 11.06 14.53 10.96 14.28 10.7L10.99 7.4L10.99 14.99C10.99 15.55 10.55 15.99 9.99 15.99C9.44 15.99 8.99 15.55 8.99 14.99L8.99 7.4L5.71 10.7C5.52 10.89 5.26 11 5 11C4.73 11 4.48 10.89 4.29 10.7C4.1 10.52 3.99 10.26 3.99 9.99C3.99 9.73 4.1 9.47 4.29 9.28Z" fill="#1F1F22" fill-opacity="1.000000" fill-rule="nonzero"/>
</svg>
