<svg width="20" height="20" viewBox="0 0 20 20" fill="none" xmlns="http://www.w3.org/2000/svg">
<path fill-rule="evenodd" clip-rule="evenodd" d="M12.99 5.09621C13.07 3.67621 12.68 2.67621 12.02 2.08621C11.38 1.49621 10.53 1.37621 9.87 1.61621C9.25 1.84621 8.88 2.24621 8.69 2.71621C8.51 3.16621 8.5 3.63621 8.5 3.99621C8.5 5.63621 7.49 6.97621 6.64 7.80621L6.5 7.94621V18.4962H13.95C15.39 18.4962 16.68 17.6162 17.21 16.2762L19.32 10.9162C19.96 9.27621 18.75 7.49621 16.99 7.49621H12.66C12.67 7.45621 12.68 7.40621 12.69 7.36621C12.81 6.84621 12.94 6.08621 12.99 5.09621ZM0.5 9.99621C0.5 9.16621 1.17 8.49621 2 8.49621H4.5V18.4962H2C1.17 18.4962 0.5 17.8262 0.5 16.9962V9.99621Z" fill="#1F1F22"/>
</svg>
