<svg width="16" height="16" viewBox="0 0 16 16" fill="none" xmlns="http://www.w3.org/2000/svg">
<path fill-rule="evenodd" clip-rule="evenodd" d="M3.99 2.99994C3.44 2.99994 2.99 3.43994 2.99 3.99994V11.9999C2.99 12.5499 3.44 12.9999 3.99 12.9999H11.99C12.54 12.9999 12.99 12.5499 12.99 11.9999V11.4999C12.99 10.9399 13.44 10.4999 13.99 10.4999C14.54 10.4999 14.99 10.9399 14.99 11.4999V11.9999C14.99 13.6499 13.64 14.9999 11.99 14.9999H3.99C2.34 14.9999 1 13.6499 1 11.9999V3.99994C1 2.33994 2.34 0.999945 3.99 0.999945H4.49C5.04 0.999945 5.49 1.43994 5.49 1.99994C5.49 2.54994 5.04 2.99994 4.49 2.99994H3.99ZM14.99 7.49994V2.08994C15 1.94994 14.99 1.80994 14.94 1.67994C14.89 1.55994 14.8 1.38994 14.7 1.28994C14.58 1.17994 14.45 1.09994 14.31 1.04994C14.18 0.999945 14.04 0.989945 13.9 0.999945H8.49C7.93 0.999945 7.5 1.43994 7.5 1.99994C7.5 2.55994 7.93 2.99994 8.49 2.99994H11.58L6.79 7.78994C6.39 8.18994 6.39 8.80994 6.79 9.20994C7.18 9.59995 7.81 9.59995 8.2 9.20994L12.99 4.40994V7.49994C12.99 8.05994 13.43 8.49994 13.99 8.49994C14.55 8.49994 14.99 8.05994 14.99 7.49994Z" fill="#1F1F22"/>
</svg>
