<svg width="32.000000" height="32.000000" viewBox="0 0 32 32" fill="none" xmlns="http://www.w3.org/2000/svg" xmlns:xlink="http://www.w3.org/1999/xlink">
	<desc>
			Created with Pixso.
	</desc>
	<defs/>
	<path id="Union" d="M27.18 8.19C27.1 8.08 27.02 7.97 26.92 7.87L24.12 5.07C24.02 4.97 23.91 4.89 23.8 4.81C23.69 4.74 23.58 4.69 23.46 4.64C23.35 4.59 23.23 4.56 23.11 4.53C22.98 4.51 22.85 4.5 22.72 4.5C22.59 4.5 22.46 4.51 22.33 4.53C22.21 4.56 22.09 4.59 21.98 4.64C21.86 4.69 21.75 4.74 21.65 4.81C21.53 4.89 21.42 4.97 21.32 5.07L6.26 20.14C6.02 20.38 5.85 20.66 5.76 20.98L4.58 24.95C4.47 25.31 4.47 25.68 4.57 26.04C4.66 26.37 4.83 26.66 5.08 26.91C5.21 27.05 5.35 27.16 5.51 27.24C5.65 27.32 5.8 27.38 5.95 27.42C6.31 27.52 6.68 27.52 7.04 27.41L11.01 26.23C11.34 26.14 11.61 25.97 11.85 25.73L26.92 10.67C27.02 10.57 27.1 10.46 27.18 10.34C27.25 10.24 27.3 10.13 27.35 10.01C27.4 9.9 27.43 9.78 27.46 9.66C27.48 9.53 27.5 9.4 27.5 9.27C27.5 9.14 27.48 9.01 27.46 8.88C27.43 8.76 27.4 8.64 27.35 8.53C27.3 8.41 27.25 8.3 27.18 8.19ZM22.72 6.47L25.52 9.27L23.98 10.81L21.18 8.01L22.72 6.47ZM22.58 12.21L19.78 9.41L7.65 21.54L6.48 25.51L10.45 24.34L22.58 12.21Z" fill="#1F1F22" fill-opacity="1.000000" fill-rule="evenodd"/>
</svg>
