<svg width="20" height="20" viewBox="0 0 20 20" fill="none" xmlns="http://www.w3.org/2000/svg">
<path d="M8.5 3.00016C9.05229 3.00016 9.5 3.44787 9.5 4.00016C9.49992 4.55237 9.05223 5.00016 8.5 5.00016H4C2.89543 5.00016 2 5.89559 2 7.00016V16.0002C2.00008 17.1047 2.89548 18.0002 4 18.0002H16C17.1045 18.0002 17.9999 17.1047 18 16.0002V10.0002C18 9.44787 18.4477 9.00016 19 9.00016C19.5523 9.00016 20 9.44787 20 10.0002V16.0002C19.9999 18.2092 18.2091 20.0002 16 20.0002H4C1.79091 20.0002 8.18427e-05 18.2092 0 16.0002V7.00016C0 4.79102 1.79086 3.00016 4 3.00016H8.5Z" fill="#1F1F22"/>
<path d="M6.16797 11.4455C6.47431 10.986 7.09516 10.8618 7.55469 11.1681C8.01416 11.4745 8.13837 12.0953 7.83203 12.5548L5.83203 15.5548C5.52565 16.0142 4.90478 16.1384 4.44531 15.8322C3.98588 15.5259 3.86177 14.905 4.16797 14.4455L6.16797 11.4455Z" fill="#1F1F22"/>
<path d="M10.7998 10.9337C11.3624 10.1837 12.4527 10.1366 13.0811 10.7931L13.2002 10.9337L15.7998 14.4005C16.1309 14.8423 16.0413 15.4686 15.5996 15.8C15.1578 16.1311 14.5315 16.0414 14.2002 15.5998L12 12.6671L9.7998 15.5998C9.46847 16.0414 8.84217 16.1311 8.40039 15.8C7.95865 15.4687 7.86905 14.8424 8.2002 14.4005L10.7998 10.9337Z" fill="#1F1F22"/>
<path d="M5.5 7.00016C6.32843 7.00016 7 7.67173 7 8.50016C6.99992 9.32851 6.32838 10.0002 5.5 10.0002C4.67162 10.0002 4.00008 9.32851 4 8.50016C4 7.67173 4.67157 7.00016 5.5 7.00016Z" fill="#1F1F22"/>
<path fill-rule="evenodd" clip-rule="evenodd" d="M15.376 0.951328C16.148 0.123749 17.4526 0.101234 18.2529 0.901523L19.3379 1.98648C20.0995 2.74846 20.1207 3.97699 19.3857 4.7648L15.7314 8.6818C15.5812 8.84287 15.3814 8.95027 15.1641 8.98648L12.8545 9.37125C11.8394 9.54018 10.9597 8.65979 11.1289 7.64469L11.5137 5.33609L11.5479 5.19352C11.5927 5.05415 11.6679 4.92546 11.7686 4.81754L15.376 0.951328ZM13.4365 5.96109L13.2158 7.28336L14.499 7.06949L17.9238 3.40055L16.8389 2.31559L13.4365 5.96109Z" fill="#1F1F22"/>
</svg>
