<svg width="16" height="16" viewBox="0 0 16 16" fill="none" xmlns="http://www.w3.org/2000/svg">
<path fill-rule="evenodd" clip-rule="evenodd" d="M7.69141 0.731547C8.43318 0.458151 9.34311 0.605358 10.0234 1.21885C10.7192 1.84651 11.0662 2.84779 10.998 4.1085C10.9712 4.6048 10.919 5.03524 10.8613 5.39659L12.9844 5.39463C15.0955 5.39206 16.5485 7.51275 15.7842 9.48057L14.4756 12.8487C13.8778 14.3865 12.397 15.3996 10.7471 15.3995L2 15.3985C0.964415 15.3985 0.113094 14.6112 0.0107422 13.6026L0 13.3985V8.19834C4.94786e-05 7.09382 0.895461 6.19834 2 6.19834H4.46387C4.48596 6.18063 4.51065 6.1631 4.53516 6.14268C4.72809 5.98193 4.98488 5.74521 5.24023 5.44737C5.76462 4.83567 6.2002 4.06036 6.2002 3.19834C6.2002 2.90224 6.20846 2.41859 6.40039 1.94834C6.61662 1.41875 7.03409 0.973858 7.69141 0.731547ZM8.38281 2.6085C8.30607 2.63685 8.27988 2.66175 8.27539 2.66612C8.27108 2.67032 8.2625 2.67842 8.25195 2.7042C8.23935 2.73511 8.22437 2.78868 8.21387 2.87608C8.20324 2.96492 8.2002 3.06852 8.2002 3.19834C8.2002 4.73621 7.43435 5.96108 6.75879 6.74913C6.49194 7.06037 6.22572 7.31847 6 7.51866V13.3985L10.7471 13.3995C11.572 13.3996 12.3124 12.893 12.6113 12.1241L13.9199 8.75694C14.1747 8.101 13.69 7.39377 12.9863 7.39463L9.60059 7.39854C9.27042 7.39874 8.96096 7.23544 8.77441 6.96299C8.58826 6.69062 8.54844 6.34374 8.66797 6.03623L8.66699 6.03721V6.03916L8.66602 6.04112L8.66504 6.04209C8.66504 6.04209 8.66764 6.0369 8.66992 6.03038C8.67486 6.01622 8.68352 5.98937 8.69531 5.95127C8.71905 5.87451 8.75508 5.74937 8.79395 5.57823C8.87178 5.23533 8.96282 4.70541 9.00098 4.00108C9.04714 3.14714 8.80291 2.81191 8.68359 2.7042C8.54881 2.58279 8.41951 2.59498 8.38281 2.6085ZM2 13.3985H3.7998V8.19834H2V13.3985Z" fill="#1F1F22"/>
</svg>
