<svg width="20" height="20" viewBox="0 0 20 20" fill="none" xmlns="http://www.w3.org/2000/svg">
<path fill-rule="evenodd" clip-rule="evenodd" d="M5.99 4.99994C5.44 4.99994 4.99 5.43994 4.99 5.99994V13.9999C4.99 14.5499 5.44 14.9999 5.99 14.9999H13.99C14.54 14.9999 14.99 14.5499 14.99 13.9999V13.4999C14.99 12.9399 15.44 12.4999 15.99 12.4999C16.54 12.4999 16.99 12.9399 16.99 13.4999V13.9999C16.99 15.6499 15.64 16.9999 13.99 16.9999H5.99C4.34 16.9999 3 15.6499 3 13.9999V5.99994C3 4.33994 4.34 2.99994 5.99 2.99994H6.49C7.04 2.99994 7.49 3.43994 7.49 3.99994C7.49 4.54994 7.04 4.99994 6.49 4.99994H5.99ZM16.99 9.49994V4.08994C17 3.94994 16.99 3.80994 16.94 3.67994C16.89 3.55994 16.8 3.38994 16.7 3.28994C16.58 3.17994 16.45 3.09994 16.31 3.04994C16.18 2.99994 16.04 2.98994 15.9 2.99994H10.49C9.93 2.99994 9.5 3.43994 9.5 3.99994C9.5 4.55994 9.93 4.99994 10.49 4.99994H13.58L8.79 9.78994C8.39 10.1899 8.39 10.8099 8.79 11.2099C9.18 11.5999 9.81 11.5999 10.2 11.2099L14.99 6.40994V9.49994C14.99 10.0599 15.43 10.4999 15.99 10.4999C16.55 10.4999 16.99 10.0599 16.99 9.49994Z" fill="#1F1F22"/>
</svg>
