<svg width="24" height="24" viewBox="0 0 24 24" fill="none" xmlns="http://www.w3.org/2000/svg">
<path d="M10 2C10.5523 2 11 2.44772 11 3C11 3.55228 10.5523 4 10 4H7C6.44772 4 6 4.44772 6 5V19C6 19.5523 6.44772 20 7 20H17C17.5523 20 18 19.5523 18 19V15.5C18 14.9477 18.4477 14.5 19 14.5C19.5523 14.5 20 14.9477 20 15.5V19C20 20.6569 18.6569 22 17 22H7C5.34315 22 4 20.6569 4 19V5C4 3.34315 5.34315 2 7 2H10Z" fill="#1F1F22"/>
<path d="M15 16C15.5523 16 16 16.4477 16 17C16 17.5523 15.5523 18 15 18H9C8.44772 18 8 17.5523 8 17C8 16.4477 8.44772 16 9 16H15Z" fill="#1F1F22"/>
<path d="M10 12C10.5523 12 11 12.4477 11 13C11 13.5523 10.5523 14 10 14H9C8.44772 14 8 13.5523 8 13C8 12.4477 8.44772 12 9 12H10Z" fill="#1F1F22"/>
<path fill-rule="evenodd" clip-rule="evenodd" d="M16.5 2C16.8806 2 17.228 2.2163 17.3965 2.55762L18.4863 4.76562L20.9238 5.12012C21.3004 5.17495 21.6129 5.43888 21.7305 5.80078C21.848 6.16271 21.75 6.55956 21.4775 6.8252L19.7139 8.54395L20.1309 10.9717C20.1951 11.3468 20.0403 11.7255 19.7324 11.9492C19.4245 12.1729 19.0166 12.2025 18.6797 12.0254L16.5 10.8789L14.3203 12.0254C13.9834 12.2025 13.5755 12.1729 13.2676 11.9492C12.9597 11.7255 12.8049 11.3468 12.8691 10.9717L13.2852 8.54395L11.5225 6.8252C11.25 6.55957 11.1521 6.16268 11.2695 5.80078C11.3871 5.4389 11.6997 5.17498 12.0762 5.12012L14.5127 4.76562L15.6035 2.55762L15.6748 2.43555C15.8594 2.16559 16.167 2.00003 16.5 2ZM16.0742 6.12207C15.9286 6.41718 15.647 6.6216 15.3213 6.66895L14.3682 6.80664L15.0586 7.47949C15.294 7.7092 15.4013 8.04006 15.3457 8.36426L15.1826 9.3125L16.0342 8.86523L16.1465 8.81445C16.4122 8.71403 16.711 8.73129 16.9658 8.86523L17.8164 9.3125L17.6543 8.36426C17.5987 8.04009 17.706 7.70919 17.9414 7.47949L18.6309 6.80664L17.6787 6.66895C17.3531 6.62157 17.0714 6.41717 16.9258 6.12207L16.5 5.25879L16.0742 6.12207Z" fill="#1F1F22"/>
<path d="M10 8C10.5523 8 11 8.44772 11 9C11 9.55228 10.5523 10 10 10H9C8.44772 10 8 9.55228 8 9C8 8.44772 8.44772 8 9 8H10Z" fill="#1F1F22"/>
</svg>
