<svg width="20" height="20" viewBox="0 0 20 20" fill="none" xmlns="http://www.w3.org/2000/svg">
<path d="M13.7949 2.04689C15.6784 1.80064 17.6249 2.51932 18.8691 4.32228C19.9108 5.83187 20.1803 7.42005 19.8906 8.9629C19.6073 10.4709 18.8024 11.8803 17.792 13.126C15.7755 15.6119 12.7495 17.6812 10.4658 18.8848C10.1742 19.0383 9.82576 19.0383 9.53415 18.8848C7.25047 17.6812 4.22449 15.6119 2.20798 13.126C1.19752 11.8803 0.3926 10.4709 0.109348 8.9629C-0.180346 7.42005 0.0891718 5.83187 1.13083 4.32228C2.37504 2.51932 4.32152 1.80064 6.20505 2.04689C7.61552 2.23141 8.97423 2.95175 9.99997 4.11622C11.0257 2.95175 12.3844 2.23141 13.7949 2.04689ZM17.2226 5.45802C16.4306 4.3103 15.2405 3.87502 14.0537 4.03028C12.8482 4.18805 11.6184 4.96599 10.8789 6.33009C10.704 6.65253 10.3668 6.85353 9.99997 6.85353C9.63316 6.85353 9.29593 6.65253 9.12107 6.33009C8.38155 4.96599 7.15171 4.18805 5.94626 4.03028C4.75949 3.87502 3.56938 4.3103 2.77732 5.45802C2.04597 6.5178 1.88142 7.56188 2.07517 8.59376C2.27552 9.66026 2.87181 10.7692 3.76169 11.8662C5.41965 13.9101 7.92897 15.708 9.99997 16.8613C12.071 15.708 14.5803 13.9101 16.2383 11.8662C17.1281 10.7692 17.7244 9.66026 17.9248 8.59376C18.1185 7.56188 17.954 6.5178 17.2226 5.45802Z" fill="#1F1F22"/>
</svg>
