<svg width="20" height="20" viewBox="0 0 20 20" fill="none" xmlns="http://www.w3.org/2000/svg">
<path fill-rule="evenodd" clip-rule="evenodd" d="M13.49 5.11999C13.58 3.58999 13.15 2.41999 12.36 1.69999C11.57 0.999988 10.54 0.839988 9.7 1.13999C8.94 1.41999 8.47 1.92999 8.23 2.52999C8.01 3.05999 8 3.62999 8 3.98999C8 5.15999 7.41 6.17999 6.74 6.96999C6.41 7.34999 6.07 7.65999 5.82 7.86999C5.77 7.90999 5.71 7.95999 5.67 7.98999H2C0.89 7.98999 0 8.88999 0 9.98999V16.99C0 18.1 0.89 18.99 2 18.99H5.97C5.98 18.99 5.99 18.99 5.99 18.99H13.95C15.59 19 17.07 17.99 17.67 16.46L19.78 11.09C20.55 9.11999 19.1 6.98999 16.99 6.98999H13.28C13.37 6.49999 13.45 5.86999 13.49 5.11999ZM5 16.99V9.98999H2V16.99H5ZM7 16.99V9.48999C7.03 9.45999 7.07 9.42999 7.1 9.39999C7.42 9.13999 7.83 8.75999 8.25 8.26999C9.08 7.30999 10 5.82999 10 3.98999C10 3.63999 10.02 3.42999 10.08 3.27999C10.1 3.21999 10.13 3.17999 10.17 3.14999C10.2 3.11999 10.26 3.06999 10.39 3.01999C10.52 2.96999 10.78 2.97999 11.02 3.18999C11.24 3.38999 11.56 3.88999 11.5 5.00999C11.45 5.90999 11.33 6.57999 11.23 7.01999C11.18 7.23999 11.13 7.40999 11.1 7.50999C11.09 7.55999 11.08 7.59999 11.07 7.61999L11.06 7.62999C10.94 7.93999 10.98 8.28999 11.17 8.55999C11.36 8.82999 11.66 8.98999 12 8.98999H16.99C17.69 8.98999 18.18 9.69999 17.92 10.36L15.81 15.73C15.51 16.49 14.77 16.99 13.95 16.99H7Z" fill="#1F1F22"/>
</svg>
