<svg width="24" height="24" viewBox="0 0 24 24" fill="none" xmlns="http://www.w3.org/2000/svg">
<path fill-rule="evenodd" clip-rule="evenodd" d="M14.92 4.69C15.38 4.23 15.97 4 16.61 4C17.24 4 17.85 4.25 18.3 4.69C18.76 5.15 19 5.75 19 6.39C19 7.02 18.74 7.63 18.3 8.08L10.6 15.79C10.13 16.25 9.47 16.23 9.14 15.91C8.99 15.76 8.85 15.5 8.82 15.21C8.8 14.95 8.87 14.66 9.14 14.39C9.63 13.9 10.65 12.88 11.65 11.88L11.77 11.75C12.72 10.8 13.64 9.88 14.04 9.48C14.43 9.09 14.43 8.46 14.04 8.07C13.64 7.67 13.01 7.67 12.62 8.07C12.22 8.47 11.31 9.39 10.35 10.34L10.23 10.47C9.23 11.47 8.22 12.49 7.73 12.98C6.24 14.46 6.82 16.43 7.73 17.33V17.34C8.99 18.57 10.92 18.29 12.01 17.2L19.71 9.49C20.53 8.67 21 7.55 21 6.39C21 5.22 20.55 4.12 19.71 3.28C18.89 2.46 17.77 2 16.61 2C15.45 2 14.34 2.44 13.5 3.28L4.69 12.1C3.61 13.19 3 14.65 3 16.2C3 17.74 3.61 19.21 4.69 20.29C5.78 21.38 7.24 22 8.79 22C10.33 22 11.8 21.38 12.88 20.29L19.79 13.38C20.18 12.99 20.18 12.36 19.79 11.97C19.4 11.58 18.77 11.58 18.38 11.97L11.47 18.88C10.75 19.6 9.8 20 8.79 20C7.78 20 6.82 19.6 6.11 18.88C5.39 18.17 5 17.21 5 16.2C5 15.18 5.39 14.23 6.11 13.51L14.92 4.69Z" fill="#1F1F22"/>
</svg>
