<svg width="24.000000" height="24.000000" viewBox="0 0 24 24" fill="none" xmlns="http://www.w3.org/2000/svg" xmlns:xlink="http://www.w3.org/1999/xlink">
	<desc>
			Created with Pixso.
	</desc>
	<defs/>
	<path id="Union" d="M6.99 6C6.44 6 5.99 6.44 5.99 7L5.99 17C5.99 17.55 6.44 18 6.99 18L16.99 18C17.54 18 17.99 17.55 17.99 17L17.99 15C17.99 14.44 18.43 14 18.99 14C19.54 14 19.99 14.44 19.99 15L19.99 17C19.99 18.65 18.64 20 16.99 20L6.99 20C5.34 20 4 18.65 4 17L4 7C4 5.34 5.34 4 6.99 4L9 4.02C9.56 4.02 10 4.47 10 5.02C10 5.57 9.56 6.02 9 6.02L6.99 6ZM19.99 10.5L19.99 5.09C20 4.95 19.99 4.81 19.94 4.68C19.89 4.56 19.8 4.39 19.7 4.29C19.58 4.18 19.45 4.1 19.31 4.05C19.18 4 19.04 3.99 18.9 4L13.49 4C12.93 4 12.5 4.44 12.5 5C12.5 5.56 12.93 6 13.49 6L16.58 6L11.79 10.79C11.39 11.19 11.39 11.81 11.79 12.21C12.18 12.6 12.81 12.6 13.2 12.21L17.99 7.41L17.99 10.5C17.99 11.06 18.43 11.5 18.99 11.5C19.55 11.5 19.99 11.06 19.99 10.5Z" fill="#1F1F22" fill-opacity="1.000000" fill-rule="evenodd"/>
</svg>
