<svg width="20" height="20" viewBox="0 0 20 20" fill="none" xmlns="http://www.w3.org/2000/svg">
<path d="M19 11C19.5523 11 20 10.5523 20 10C20 4.47715 15.5228 0 10 0C7.01174 0 4.33172 1.31172 2.5 3.3877V1C2.5 0.44 2.06 0 1.5 0C0.95 0 0.5 0.44 0.5 1V6C0.5 6.55 0.95 7 1.5 7H6.5C7.06 7 7.5 6.55 7.5 6C7.5 5.44 7.06 5 6.5 5H3.75488C5.22178 3.17019 7.47478 2 10 2C14.4183 2 18 5.58172 18 10C18 10.5523 18.4477 11 19 11Z" fill="#1F1F22"/>
<path d="M18.5 20C19.05 20 19.5 19.56 19.5 19V14C19.5 13.45 19.05 13 18.5 13H13.5C12.94 13 12.5 13.45 12.5 14C12.5 14.56 12.94 15 13.5 15H16.2451C14.7782 16.8298 12.5252 18 10 18C5.58172 18 2 14.4183 2 10C2 9.44771 1.55228 9 1 9C0.447715 9 0 9.44771 0 10C0 15.5228 4.47715 20 10 20C12.988 20 15.6683 18.6889 17.5 16.6133V19C17.5 19.56 17.94 20 18.5 20Z" fill="#1F1F22"/>
</svg>
