<svg width="24" height="24" viewBox="0 0 24 24" fill="none" xmlns="http://www.w3.org/2000/svg">
<path d="M15.7949 4.04689C17.6784 3.80064 19.6249 4.51932 20.8691 6.32228C21.9108 7.83187 22.1803 9.42005 21.8906 10.9629C21.6073 12.4709 20.8024 13.8803 19.792 15.126C17.7755 17.6119 14.7495 19.6812 12.4658 20.8848C12.1742 21.0383 11.8258 21.0383 11.5342 20.8848C9.25047 19.6812 6.22449 17.6119 4.20798 15.126C3.19752 13.8803 2.3926 12.4709 2.10935 10.9629C1.81965 9.42005 2.08917 7.83187 3.13083 6.32228C4.37504 4.51932 6.32152 3.80064 8.20505 4.04689C9.61552 4.23141 10.9742 4.95175 12 6.11622C13.0257 4.95175 14.3844 4.23141 15.7949 4.04689ZM19.2226 7.45802C18.4306 6.3103 17.2405 5.87502 16.0537 6.03028C14.8482 6.18805 13.6184 6.96599 12.8789 8.33009C12.704 8.65253 12.3668 8.85353 12 8.85353C11.6332 8.85353 11.2959 8.65253 11.1211 8.33009C10.3816 6.96599 9.15171 6.18805 7.94626 6.03028C6.75949 5.87502 5.56938 6.3103 4.77732 7.45802C4.04597 8.5178 3.88142 9.56188 4.07517 10.5938C4.27552 11.6603 4.87181 12.7692 5.76169 13.8662C7.41965 15.9101 9.92897 17.708 12 18.8613C14.071 17.708 16.5803 15.9101 18.2383 13.8662C19.1281 12.7692 19.7244 11.6603 19.9248 10.5938C20.1185 9.56188 19.954 8.5178 19.2226 7.45802Z" fill="#1F1F22"/>
</svg>
