<svg width="32" height="32" viewBox="0 0 32 32" fill="none" xmlns="http://www.w3.org/2000/svg">
<path d="M21.3594 11.7314C21.7836 11.3779 22.415 11.4352 22.7686 11.8594C23.1221 12.2836 23.0648 12.915 22.6406 13.2686L17.9209 17.2012C16.8084 18.1283 15.1916 18.1283 14.0791 17.2012L9.35938 13.2686C8.93519 12.915 8.87791 12.2836 9.23145 11.8594C9.58502 11.4352 10.2164 11.3779 10.6406 11.7314L15.3594 15.665C15.7302 15.9741 16.2698 15.9741 16.6406 15.665L21.3594 11.7314Z" fill="#1F1F22"/>
<path fill-rule="evenodd" clip-rule="evenodd" d="M25 6.5C26.6569 6.5 28 7.84315 28 9.5V22.5C28 24.1569 26.6569 25.5 25 25.5H7C5.34315 25.5 4 24.1569 4 22.5V9.5C4 7.84315 5.34315 6.5 7 6.5H25ZM7 8.5C6.44772 8.5 6 8.94772 6 9.5V22.5C6 23.0523 6.44772 23.5 7 23.5H25C25.5523 23.5 26 23.0523 26 22.5V9.5C26 8.94771 25.5523 8.5 25 8.5H7Z" fill="#1F1F22"/>
</svg>
