<svg width="16" height="16" viewBox="0 0 16 16" fill="none" xmlns="http://www.w3.org/2000/svg">
<path d="M13 3C13 2.44772 12.5523 2.00001 12 2H7.50003C6.94775 2 6.50003 2.44772 6.50003 3V9.5L6.50491 9.60254C6.55624 10.1067 6.98235 10.5 7.50003 10.5H12C12.5523 10.5 13 10.0523 13 9.5V3ZM15 9.5C15 11.1568 13.6569 12.5 12 12.5H7.50003C5.89493 12.5 4.58424 11.2394 4.50394 9.6543L4.50003 9.5V3C4.50003 1.34315 5.84318 1.53858e-08 7.50003 0H12C13.6569 1.44106e-05 15 1.34315 15 3V9.5Z" fill="#1F1F22"/>
<path d="M1 9.5V4C1 3.44772 1.44772 3 2 3C2.55228 3 3 3.44772 3 4V9.5C3 11.9853 5.01472 14 7.5 14H11C11.5523 14 12 14.4477 12 15C12 15.5523 11.5523 16 11 16H7.5C3.91015 16 1 13.0899 1 9.5Z" fill="#1F1F22"/>
</svg>
