<svg width="20" height="20" viewBox="0 0 20 20" fill="none" xmlns="http://www.w3.org/2000/svg">
<path d="M8.5 3.50015C9.05229 3.50015 9.5 3.94787 9.5 4.50015C9.49991 5.05236 9.05223 5.50015 8.5 5.50015H4C2.89543 5.50015 2 6.39558 2 7.50015V16.6955L3.49707 15.7599C4.29172 15.2633 5.21037 15.0002 6.14746 15.0002H13C14.1045 15.0002 14.9999 14.1046 15 13.0002V12.0002C15 11.4479 15.4477 11.0002 16 11.0002C16.5523 11.0002 17 11.4479 17 12.0002V13.0002C16.9999 15.2092 15.2091 17.0002 13 17.0002H6.14746C5.58531 17.0002 5.03435 17.1583 4.55762 17.4562L1.53027 19.3478C1.22219 19.5403 0.833456 19.5511 0.515625 19.3752C0.197719 19.199 6.10078e-05 18.8636 0 18.5002V7.50015C1.28853e-07 5.29101 1.79086 3.50015 4 3.50015H8.5Z" fill="#1F1F22"/>
<path fill-rule="evenodd" clip-rule="evenodd" d="M15.376 0.951326C16.148 0.123751 17.4526 0.101233 18.2529 0.901521L19.3379 1.98648C20.0995 2.74845 20.1207 3.97699 19.3857 4.7648L15.7314 8.68179C15.5812 8.84287 15.3813 8.95026 15.1641 8.98648L12.8545 9.37125C11.8394 9.54019 10.9597 8.65979 11.1289 7.64468L11.5137 5.33609L11.5479 5.19351C11.5927 5.05414 11.6679 4.92547 11.7686 4.81754L15.376 0.951326ZM13.4365 5.96109L13.2158 7.28336L14.499 7.06949L17.9238 3.40054L16.8389 2.31558L13.4365 5.96109Z" fill="#1F1F22"/>
</svg>
