<svg width="20" height="20" viewBox="0 0 20 20" fill="none" xmlns="http://www.w3.org/2000/svg">
<path fill-rule="evenodd" clip-rule="evenodd" d="M14 12C15.1046 12 16 12.8954 16 14V18C16 19.1046 15.1046 20 14 20H6C4.96435 20 4.113 19.2128 4.01074 18.2041L4 18V14C4 12.8954 4.89543 12 6 12H14ZM6 18H14V14H6V18Z" fill="#1F1F22"/>
<path fill-rule="evenodd" clip-rule="evenodd" d="M13 0C14.6569 0 16 1.34315 16 3V4H17C18.6569 4 20 5.34315 20 7V14C20 14.5523 19.5523 15 19 15C18.4477 15 18 14.5523 18 14V7C18 6.44772 17.5523 6 17 6H3C2.44772 6 2 6.44772 2 7V14C2 14.5523 1.55228 15 1 15C0.447715 15 6.44255e-08 14.5523 0 14V7C0 5.34315 1.34315 4 3 4H4V3C4 1.34315 5.34315 6.76468e-08 7 0H13ZM7 2C6.44772 2 6 2.44772 6 3V4H14V3C14 2.44772 13.5523 2 13 2H7Z" fill="#1F1F22"/>
<path d="M5 8C5.55228 8 6 8.44771 6 9C6 9.55229 5.55228 10 5 10C4.44772 10 4 9.55229 4 9C4 8.44771 4.44772 8 5 8Z" fill="#1F1F22"/>
</svg>
