<svg width="20" height="20" viewBox="0 0 20 20" fill="none" xmlns="http://www.w3.org/2000/svg">
<path d="M10.4144 4.2698C10.3366 4.10459 10.1759 4 10 4C9.82409 4 9.66344 4.10459 9.58559 4.2698L7.98182 7.67313L4.39569 8.21888C4.22161 8.24537 4.07699 8.37307 4.02263 8.54828C3.96827 8.7235 4.01361 8.91584 4.13957 9.04443L6.73452 11.6936L6.12194 15.4342C6.0922 15.6158 6.16347 15.7993 6.30578 15.9076C6.44809 16.0159 6.63676 16.0301 6.79247 15.9444L10 14.1783L13.2075 15.9444C13.3632 16.0301 13.5519 16.0159 13.6942 15.9076C13.8365 15.7993 13.9078 15.6158 13.8781 15.4342L13.2655 11.6936L15.8604 9.04443C15.9864 8.91584 16.0317 8.7235 15.9774 8.54828C15.923 8.37307 15.7784 8.24537 15.6043 8.21888L12.0182 7.67313L10.4144 4.2698Z" fill="#1F1F22"/>
</svg>
