<svg width="32" height="32" viewBox="0 0 32 32" fill="none" xmlns="http://www.w3.org/2000/svg">
<path d="M13 3C13.5523 3 14 3.44772 14 4C14 4.55228 13.5523 5 13 5H8C7.44772 5 7 5.44772 7 6V26C7 26.5523 7.44772 27 8 27H18C18.5523 27 19 26.5523 19 26V21C19 20.4477 19.4477 20 20 20C20.5523 20 21 20.4477 21 21V26C21 27.6569 19.6569 29 18 29H8C6.34315 29 5 27.6569 5 26V6C5 4.34315 6.34315 3 8 3H13Z" fill="#1F1F22"/>
<path d="M14.5 23C15.0523 23 15.5 23.4477 15.5 24C15.5 24.5523 15.0523 25 14.5 25H11.5C10.9477 25 10.5 24.5523 10.5 24C10.5 23.4477 10.9477 23 11.5 23H14.5Z" fill="#1F1F22"/>
<path fill-rule="evenodd" clip-rule="evenodd" d="M26.5 5C28.433 5 30 6.567 30 8.5V12C30 13.933 28.433 15.5 26.5 15.5H20.6055C20.4081 15.5 20.215 15.5585 20.0508 15.668L17.5547 17.332C17.2479 17.5366 16.8534 17.5557 16.5283 17.3818C16.2032 17.2078 16 16.8688 16 16.5V8.5C16 6.567 17.567 5 19.5 5H26.5ZM19.5 7C18.6716 7 18 7.67157 18 8.5V14.6309L18.9414 14.0039C19.4342 13.6754 20.0132 13.5 20.6055 13.5H26.5C27.3284 13.5 28 12.8284 28 12V8.5C28 7.67157 27.3284 7 26.5 7H19.5Z" fill="#1F1F22"/>
</svg>
