<svg width="32" height="32" viewBox="0 0 32 32" fill="none" xmlns="http://www.w3.org/2000/svg">
<path d="M13 20C13.5523 20 14 20.4477 14 21C14 21.5523 13.5523 22 13 22C12.4477 22 12 21.5523 12 21C12 20.4477 12.4477 20 13 20Z" fill="#1F1F22"/>
<path d="M16 20C16.5523 20 17 20.4477 17 21C17 21.5523 16.5523 22 16 22C15.4477 22 15 21.5523 15 21C15 20.4477 15.4477 20 16 20Z" fill="#1F1F22"/>
<path d="M19 20C19.5523 20 20 20.4477 20 21C20 21.5523 19.5523 22 19 22C18.4477 22 18 21.5523 18 21C18 20.4477 18.4477 20 19 20Z" fill="#1F1F22"/>
<path fill-rule="evenodd" clip-rule="evenodd" d="M15.1719 4C15.9674 4.00008 16.7304 4.31637 17.293 4.87891L24.1211 11.707C24.6836 12.2696 24.9999 13.0326 25 13.8281V24C25 25.6569 23.6569 27 22 27H10C8.34315 27 7 25.6569 7 24V7C7 5.34315 8.34315 4 10 4H15.1719ZM10 6C9.44772 6 9 6.44772 9 7V24C9 24.5523 9.44772 25 10 25H22C22.5523 25 23 24.5523 23 24V14H18C16.3431 14 15 12.6569 15 11V6H10ZM17 11C17 11.5523 17.4477 12 18 12H21.5859L17 7.41406V11Z" fill="#1F1F22"/>
</svg>
