<svg width="32" height="32" viewBox="0 0 32 32" fill="none" xmlns="http://www.w3.org/2000/svg">
<path d="M20.6689 6.05471C22.8846 5.77016 25.1773 6.5962 26.6514 8.69339C27.8936 10.4607 28.2154 12.3154 27.8701 14.1211C27.5318 15.8902 26.567 17.5529 25.3447 19.0323C22.9047 21.9856 19.2351 24.4516 16.4599 25.8877C16.1717 26.0369 15.8283 26.0369 15.54 25.8877C12.7649 24.4516 9.09531 21.9856 6.65526 19.0323C5.43301 17.5529 4.46819 15.8902 4.12987 14.1211C3.78461 12.3154 4.1064 10.4607 5.34862 8.69339C6.82268 6.5962 9.11542 5.77016 11.331 6.05471C13.0744 6.27864 14.7603 7.1863 16 8.66604C17.2397 7.1863 18.9256 6.27864 20.6689 6.05471ZM25.0156 9.8428C24.0008 8.39922 22.4608 7.84077 20.9238 8.03811C19.3701 8.23768 17.8078 9.21795 16.875 10.9073C16.699 11.226 16.3641 11.4239 16 11.4239C15.6359 11.4239 15.301 11.226 15.125 10.9073C14.1922 9.21795 12.6298 8.23768 11.0762 8.03811C9.53916 7.84077 7.99913 8.39922 6.98436 9.8428C6.05945 11.1587 5.84917 12.4622 6.09471 13.7461C6.34737 15.0667 7.0967 16.4257 8.19725 17.7578C10.2771 20.2752 13.4311 22.4784 16 23.8682C18.5688 22.4784 21.7229 20.2752 23.8027 17.7578C24.9033 16.4257 25.6526 15.0667 25.9053 13.7461C26.1508 12.4622 25.9405 11.1587 25.0156 9.8428Z" fill="#1F1F22"/>
</svg>
