<svg width="20" height="20" viewBox="0 0 20 20" fill="none" xmlns="http://www.w3.org/2000/svg">
<path fill-rule="evenodd" clip-rule="evenodd" d="M15.24 7.66C14.88 8.06999 14.24 8.10999 13.83 7.74L9.99996 4.33L6.15996 7.74C5.74996 8.10999 5.10996 8.06999 4.74996 7.66C4.37996 7.25 4.41996 6.61 4.82996 6.25L9.32996 2.25C9.70996 1.91 10.28 1.91 10.66 2.25L15.16 6.25C15.57 6.61 15.61 7.25 15.24 7.66ZM13.83 12.25C14.24 11.88 14.88 11.92 15.24 12.33C15.61 12.74 15.57 13.38 15.16 13.74L10.66 17.74C10.28 18.08 9.70996 18.08 9.32996 17.74L4.82996 13.74C4.41996 13.38 4.37996 12.74 4.74996 12.33C5.10996 11.92 5.74996 11.88 6.15996 12.25L9.99996 15.66L13.83 12.25Z" fill="#1F1F22"/>
</svg>
