<svg width="16" height="16" viewBox="0 0 16 16" fill="none" xmlns="http://www.w3.org/2000/svg">
<path fill-rule="evenodd" clip-rule="evenodd" d="M11.18 12.6C10.01 13.47 8.56 13.99 6.99 13.99C3.13 13.99 0 10.85 0 6.99C0 3.13 3.13 0 6.99 0C10.85 0 13.99 3.13 13.99 6.99C13.99 8.56 13.47 10.01 12.6 11.18L15.7 14.28C16.09 14.68 16.09 15.3 15.7 15.7C15.3 16.09 14.68 16.09 14.28 15.7L11.18 12.6ZM11.99 6.99C11.99 9.75 9.75 11.99 6.99 11.99C4.23 11.99 1.99 9.75 1.99 6.99C1.99 4.24 4.23 1.99 6.99 1.99C9.75 1.99 11.99 4.24 11.99 6.99Z" fill="#1F1F22"/>
</svg>
