<svg width="24" height="24" viewBox="0 0 24 24" fill="none" xmlns="http://www.w3.org/2000/svg">
<path d="M12 2C12.5523 2 13 2.44772 13 3C13 3.55228 12.5523 4 12 4H7C6.44772 4 6 4.44772 6 5V19C6 19.5523 6.44772 20 7 20H17C17.5523 20 18 19.5523 18 19V15.5C18 14.9477 18.4477 14.5 19 14.5C19.5523 14.5 20 14.9477 20 15.5V19C20 20.6569 18.6569 22 17 22H7C5.34315 22 4 20.6569 4 19V5C4 3.34315 5.34315 2 7 2H12Z" fill="#1F1F22"/>
<path d="M15 16C15.5523 16 16 16.4477 16 17C16 17.5523 15.5523 18 15 18H9C8.44772 18 8 17.5523 8 17C8 16.4477 8.44772 16 9 16H15Z" fill="#1F1F22"/>
<path d="M10 12C10.5523 12 11 12.4477 11 13C11 13.5523 10.5523 14 10 14H9C8.44772 14 8 13.5523 8 13C8 12.4477 8.44772 12 9 12H10Z" fill="#1F1F22"/>
<path fill-rule="evenodd" clip-rule="evenodd" d="M18.8096 7.20215C19.145 7.02475 19.7425 6.8636 20.2949 7.22949L20.4102 7.31348L20.4111 7.31445C21.4101 8.12772 21.9999 9.32479 22 10.6035C22 10.8045 21.9943 11.1988 21.8506 11.5654C21.7725 11.7646 21.6336 12.0094 21.3838 12.2041C21.1207 12.4091 20.81 12.5 20.5 12.5H14.5C14.1899 12.5 13.8793 12.4091 13.6162 12.2041C13.3664 12.0094 13.2275 11.7646 13.1494 11.5654C13.0057 11.1988 13 10.8047 13 10.6035C13.0001 9.3461 13.5727 8.16354 14.5439 7.35156L14.5459 7.34961C14.7257 7.2 14.9914 7.04257 15.3477 7.01855C15.6722 6.99675 15.9463 7.09601 16.1348 7.18359C17.0461 7.60725 17.9862 7.61807 18.8096 7.20215ZM19.415 9.12207C18.1618 9.65485 16.8123 9.61265 15.584 9.12207C15.2297 9.51448 15.0304 9.99986 15.0059 10.5H19.9941C19.9697 9.99849 19.77 9.5145 19.415 9.12207Z" fill="#1F1F22"/>
<path d="M10 8C10.5523 8 11 8.44772 11 9C11 9.55228 10.5523 10 10 10H9C8.44772 10 8 9.55228 8 9C8 8.44772 8.44772 8 9 8H10Z" fill="#1F1F22"/>
<path fill-rule="evenodd" clip-rule="evenodd" d="M17.5 2C18.8807 2 20 3.11929 20 4.5C20 5.88071 18.8807 7 17.5 7C16.1193 7 15 5.88071 15 4.5C15 3.11929 16.1193 2 17.5 2ZM17.5 4C17.2239 4 17 4.22386 17 4.5C17 4.77614 17.2239 5 17.5 5C17.7761 5 18 4.77614 18 4.5C18 4.22386 17.7761 4 17.5 4Z" fill="#1F1F22"/>
</svg>
