<svg width="32" height="32" viewBox="0 0 32 32" fill="none" xmlns="http://www.w3.org/2000/svg">
<path d="M20 20C20.5523 20 21 20.4477 21 21C21 21.5523 20.5523 22 20 22H12C11.4477 22 11 21.5523 11 21C11 20.4477 11.4477 20 12 20H20Z" fill="#1F1F22"/>
<path d="M20 16C20.5523 16 21 16.4477 21 17C21 17.5523 20.5523 18 20 18H12C11.4477 18 11 17.5523 11 17C11 16.4477 11.4477 16 12 16H20Z" fill="#1F1F22"/>
<path fill-rule="evenodd" clip-rule="evenodd" d="M21.4678 5.01465C22.1547 5.08278 22.8006 5.38655 23.293 5.87891L26.1211 8.70703C26.6836 9.26957 26.9999 10.0326 27 10.8281V24C27 25.6569 25.6569 27 24 27H8C6.34315 27 5 25.6569 5 24V8C5 6.34315 6.34315 5 8 5H21.1719L21.4678 5.01465ZM8 7C7.44772 7 7 7.44772 7 8V24C7 24.5523 7.44772 25 8 25H24C24.5523 25 25 24.5523 25 24V10.8281C24.9999 10.563 24.8945 10.3086 24.707 10.1211L21.8789 7.29297C21.7148 7.1289 21.4994 7.02763 21.2705 7.00488L21.1719 7H21V11C21 12.1046 20.1046 13 19 13H13C11.8954 13 11 12.1046 11 11V7H8ZM13 11H19V7H17.5V8.5C17.5 8.77614 17.2761 9 17 9H15C14.7239 9 14.5 8.77614 14.5 8.5V7H13V11Z" fill="#1F1F22"/>
</svg>
