<svg width="24" height="24" viewBox="0 0 24 24" fill="none" xmlns="http://www.w3.org/2000/svg">
<path fill-rule="evenodd" clip-rule="evenodd" d="M16 14C17.1046 14 18 14.8954 18 16V20C18 21.1046 17.1046 22 16 22H8C6.96435 22 6.113 21.2128 6.01074 20.2041L6 20V16C6 14.8954 6.89543 14 8 14H16ZM8 20H16V16H8V20Z" fill="#1F1F22"/>
<path fill-rule="evenodd" clip-rule="evenodd" d="M15 2C16.6569 2 18 3.34315 18 5V6H19C20.6569 6 22 7.34315 22 9V16C22 16.5523 21.5523 17 21 17C20.4477 17 20 16.5523 20 16V9C20 8.44772 19.5523 8 19 8H5C4.44772 8 4 8.44772 4 9V16C4 16.5523 3.55228 17 3 17C2.44772 17 2 16.5523 2 16V9C2 7.34315 3.34315 6 5 6H6V5C6 3.34315 7.34315 2 9 2H15ZM9 4C8.44772 4 8 4.44772 8 5V6H16V5C16 4.44772 15.5523 4 15 4H9Z" fill="#1F1F22"/>
<path d="M7 10C7.55228 10 8 10.4477 8 11C8 11.5523 7.55228 12 7 12C6.44772 12 6 11.5523 6 11C6 10.4477 6.44772 10 7 10Z" fill="#1F1F22"/>
</svg>
