<svg width="32" height="32" viewBox="0 0 32 32" fill="none" xmlns="http://www.w3.org/2000/svg">
<path d="M16 5C16.5523 5 17 5.44772 17 6C17 6.55228 16.5523 7 16 7H10C9.44772 7 9 7.44772 9 8V25C9 25.5523 9.44772 26 10 26H22C22.5523 26 23 25.5523 23 25V20C23 19.4477 23.4477 19 24 19C24.5523 19 25 19.4477 25 20V25C25 26.6569 23.6569 28 22 28H10C8.34315 28 7 26.6569 7 25V8C7 6.34315 8.34315 5 10 5H16Z" fill="#1F1F22"/>
<path d="M20 21C20.5523 21 21 21.4477 21 22C21 22.5523 20.5523 23 20 23H12C11.4477 23 11 22.5523 11 22C11 21.4477 11.4477 21 12 21H20Z" fill="#1F1F22"/>
<path d="M15 17C15.5523 17 16 17.4477 16 18C16 18.5523 15.5523 19 15 19H12C11.4477 19 11 18.5523 11 18C11 17.4477 11.4477 17 12 17H15Z" fill="#1F1F22"/>
<path fill-rule="evenodd" clip-rule="evenodd" d="M24.6768 10.1504C25.077 9.97543 25.622 9.90822 26.1221 10.2441L26.2363 10.3291L26.2373 10.3301C27.3521 11.2377 28 12.5898 28 14C28 14.1415 28.0109 14.5562 27.8955 14.9326C27.833 15.1364 27.711 15.412 27.459 15.6396C27.1856 15.8865 26.843 16.0019 26.4912 16.002H19.5C19.1481 16.0019 18.8036 15.8864 18.5293 15.6357C18.2769 15.405 18.1568 15.1264 18.0967 14.9229C17.9863 14.549 18 14.1318 18 14C18 12.6223 18.6225 11.25 19.7139 10.3379L19.7148 10.3369C20.2489 9.89235 20.9012 9.96263 21.3398 10.1572L21.5137 10.2471L21.6934 10.3477C22.592 10.8191 23.5117 10.805 24.5029 10.2373L24.6768 10.1504ZM20.748 12.1084C20.2709 12.6241 20 13.3172 20 14V14.002H26V14C26 13.3119 25.7251 12.6331 25.2285 12.1162C23.7323 12.8769 22.1836 12.8674 20.748 12.1084Z" fill="#1F1F22"/>
<path d="M15 13C15.5523 13 16 13.4477 16 14C16 14.5523 15.5523 15 15 15H12C11.4477 15 11 14.5523 11 14C11 13.4477 11.4477 13 12 13H15Z" fill="#1F1F22"/>
<path fill-rule="evenodd" clip-rule="evenodd" d="M23 4C24.6569 4 26 5.34315 26 7C26 8.65685 24.6569 10 23 10C21.3431 10 20 8.65685 20 7C20 5.34315 21.3431 4 23 4ZM23 6C22.4477 6 22 6.44772 22 7C22 7.55228 22.4477 8 23 8C23.5523 8 24 7.55228 24 7C24 6.44772 23.5523 6 23 6Z" fill="#1F1F22"/>
</svg>
