<svg width="16.000000" height="16.000000" viewBox="0 0 16 16" fill="none" xmlns="http://www.w3.org/2000/svg" xmlns:xlink="http://www.w3.org/1999/xlink">
	<desc>
			Created with Pixso.
	</desc>
	<defs/>
	<path id="Vector 2" d="M10.88 0.73C10.76 0.81 10.65 0.89 10.55 0.99L1.97 9.58C1.86 9.69 1.76 9.81 1.68 9.94C1.6 10.07 1.53 10.21 1.48 10.36L0.68 12.78C0.61 12.99 0.57 13.2 0.57 13.4C0.57 13.57 0.59 13.74 0.64 13.91C0.68 14.08 0.74 14.23 0.82 14.37C0.91 14.54 1.02 14.69 1.16 14.83C1.3 14.97 1.45 15.08 1.62 15.17C1.76 15.25 1.91 15.31 2.08 15.35C2.46 15.45 2.83 15.44 3.21 15.31L5.63 14.5C5.78 14.46 5.92 14.39 6.05 14.31C6.18 14.23 6.3 14.13 6.41 14.02L15 5.44C15.19 5.24 15.33 5.02 15.43 4.77C15.53 4.53 15.58 4.28 15.58 4.02C15.58 3.76 15.53 3.51 15.43 3.27C15.39 3.15 15.33 3.04 15.26 2.93C15.18 2.82 15.1 2.71 15 2.61L13.38 1C13.19 0.8 12.97 0.66 12.72 0.56C12.48 0.46 12.23 0.41 11.97 0.41C11.83 0.41 11.7 0.42 11.57 0.45C11.45 0.47 11.33 0.51 11.22 0.56C11.1 0.6 10.99 0.66 10.88 0.73ZM10.9 3.48L11.97 2.41L13.58 4.02L12.51 5.09L10.9 3.48ZM9.48 4.9L3.38 10.99L2.58 13.41L5 12.61L11.09 6.51L9.48 4.9Z" fill="#1F1F22" fill-opacity="1.000000" fill-rule="evenodd"/>
</svg>
