<svg width="24.000000" height="24.000000" viewBox="0 0 24 24" fill="none" xmlns="http://www.w3.org/2000/svg" xmlns:xlink="http://www.w3.org/1999/xlink">
	<desc>
			Created with Pixso.
	</desc>
	<defs/>
	<path id="Union" d="M12 4C12.56 4 13 4.43 13 5L13 11L19 11C19.56 11 20 11.43 20 12C20 12.56 19.56 13 19 13L13 13L13 19C13 19.56 12.56 20 12 20C11.43 20 11 19.56 11 19L11 13L5 13C4.43 13 4 12.56 4 12C4 11.43 4.43 11 5 11L11 11L11 5C11 4.43 11.43 4 12 4Z" fill="#1F1F22" fill-opacity="1.000000" fill-rule="evenodd"/>
</svg>
