<svg width="20" height="20" viewBox="0 0 20 20" fill="none" xmlns="http://www.w3.org/2000/svg">
<path fill-rule="evenodd" clip-rule="evenodd" d="M13.49 15.5001C14.05 15.5001 14.49 15.0501 14.49 14.5001V8.08005L15.37 8.78005C15.8 9.12005 16.43 9.05005 16.78 8.62005C17.12 8.19005 17.05 7.56005 16.62 7.21005L14.12 5.21005C13.75 4.92005 13.24 4.92005 12.87 5.21005L10.37 7.21005C9.94004 7.56005 9.87004 8.19005 10.21 8.62005C10.56 9.05005 11.19 9.12005 11.62 8.78005L12.49 8.08005V14.5001C12.49 15.0501 12.94 15.5001 13.49 15.5001ZM7.49004 6.00005C7.49004 5.44005 7.05004 5.00005 6.49004 5.00005C5.94004 5.00005 5.49004 5.44005 5.49004 6.00005V12.4101L4.62004 11.7101C4.19004 11.3701 3.56004 11.4401 3.21004 11.8701C2.87004 12.3001 2.94004 12.9301 3.37004 13.2801L5.87004 15.2801C6.24004 15.5701 6.75004 15.5701 7.12004 15.2801L9.62004 13.2801C10.05 12.9301 10.12 12.3001 9.78004 11.8701C9.43004 11.4401 8.80004 11.3701 8.37004 11.7101L7.49004 12.4101V6.00005Z" fill="#1F1F22"/>
</svg>
