<svg width="16" height="16" viewBox="0 0 16 16" fill="none" xmlns="http://www.w3.org/2000/svg">
<g clip-path="url(#clip0_327_2937)">
<path d="M14 0C14.5523 1.05788e-07 15 0.447716 15 1V4.5C15 4.76522 14.8946 5.0195 14.707 5.20703C14.5195 5.39457 14.2652 5.5 14 5.5H10.5C9.94772 5.5 9.5 5.05228 9.5 4.5C9.5 3.94772 9.94772 3.5 10.5 3.5H11.9658C10.9077 2.56676 9.5203 2 8 2C4.68629 2 2 4.68629 2 8C2 11.3137 4.68629 14 8 14C11.3137 14 14 11.3137 14 8C14 7.44772 14.4477 7 15 7C15.5523 7 16 7.44772 16 8C16 12.4183 12.4183 16 8 16C3.58172 16 0 12.4183 0 8C0 3.58172 3.58172 0 8 0C9.89242 0 11.6309 0.657406 13 1.75488V1C13 0.447715 13.4477 2.41411e-08 14 0Z" fill="#1F1F22"/>
</g>
<defs>
<clipPath id="clip0_327_2937">
<rect width="16" height="16" fill="white"/>
</clipPath>
</defs>
</svg>
