<svg width="20" height="20" viewBox="0 0 20 20" fill="none" xmlns="http://www.w3.org/2000/svg">
<path d="M4.28999 10.71L9.27999 15.71C9.37999 15.8 9.48999 15.87 9.60999 15.92C9.85999 16.02 10.13 16.02 10.37 15.92C10.5 15.87 10.61 15.8 10.7 15.71L15.7 10.71C15.95 10.45 16.05 10.08 15.96 9.74C15.87 9.39 15.6 9.12 15.25 9.03C14.9 8.94 14.53 9.03 14.28 9.29L10.99 12.59V5C10.99 4.45 10.55 4 9.98999 4C9.43999 4 8.98999 4.45 8.98999 5V12.59L5.70999 9.29C5.51999 9.1 5.25999 8.99 4.99999 8.99C4.72999 8.99 4.47999 9.1 4.28999 9.29C4.09999 9.48 3.98999 9.73 3.98999 10C3.98999 10.26 4.09999 10.52 4.28999 10.71Z" fill="#1F1F22"/>
</svg>
