<svg width="20" height="20" viewBox="0 0 20 20" fill="none" xmlns="http://www.w3.org/2000/svg">
<path d="M16.5 1C18.4329 1.00006 20 2.56704 20 4.5V12.5C20 14.433 18.4329 15.9999 16.5 16H6.71094C6.11876 16.0001 5.5396 16.1754 5.04688 16.5039L1.55469 18.832C1.24791 19.0365 0.853409 19.0557 0.52832 18.8818C0.203218 18.7078 0 18.3688 0 18V4.5C0 2.56704 1.56706 1.00007 3.5 1H16.5ZM3.5 3C2.67163 3.00007 2 3.67161 2 4.5V16.1309L3.9375 14.8398C4.75876 14.2923 5.72391 14.0001 6.71094 14H16.5C17.3284 13.9999 18 13.3284 18 12.5V4.5C18 3.67161 17.3284 3.00006 16.5 3H3.5ZM10 9.5C10.5523 9.5 11 9.94771 11 10.5C11 11.0523 10.5523 11.5 10 11.5H6C5.44772 11.5 5 11.0523 5 10.5C5 9.94771 5.44772 9.5 6 9.5H10ZM14 6C14.5523 6 15 6.44772 15 7C15 7.55228 14.5523 8 14 8H6C5.44772 8 5 7.55228 5 7C5 6.44772 5.44772 6 6 6H14Z" fill="#1F1F22"/>
</svg>
