<svg width="32" height="32" viewBox="0 0 32 32" fill="none" xmlns="http://www.w3.org/2000/svg">
<path fill-rule="evenodd" clip-rule="evenodd" d="M11.3074 10.8159L2.86741 11.9659C2.59741 12.0059 2.37741 12.1359 2.20741 12.3559C2.03741 12.5759 1.97741 12.8159 2.00741 13.0959C2.02741 13.1959 2.05741 13.3059 2.10741 13.3959C2.15741 13.4959 2.21741 13.5859 2.29741 13.6659L8.40741 19.7959L6.94741 28.3359C6.90741 28.6059 6.95741 28.8559 7.11741 29.0759C7.27741 29.3059 7.49741 29.4359 7.76741 29.4859C7.87741 29.5059 7.98741 29.5059 8.09741 29.4859C8.20741 29.4659 8.30741 29.4359 8.40741 29.3859L15.9974 25.3659L23.5974 29.3859C23.8474 29.5159 24.0974 29.5359 24.3574 29.4559C24.6274 29.3759 24.8274 29.2159 24.9474 28.9659C25.0074 28.8759 25.0374 28.7659 25.0574 28.6559C25.0774 28.5459 25.0674 28.4459 25.0574 28.3359L23.5974 19.7959L29.7074 13.6659C29.9074 13.4659 30.0074 13.2259 29.9974 12.9559C29.9974 12.6759 29.9074 12.4459 29.7074 12.2459C29.6274 12.1759 29.5474 12.1059 29.4474 12.0559C29.3474 12.0159 29.2474 11.9759 29.1374 11.9659L20.6974 10.8159L16.8974 3.05593C16.7774 2.81593 16.5874 2.64593 16.3274 2.55593C16.0674 2.46593 15.8074 2.48593 15.5574 2.60593C15.4674 2.65593 15.3774 2.71593 15.2974 2.79593C15.2174 2.87593 15.1574 2.96593 15.1074 3.05593L11.3074 10.8159Z" fill="#1F1F22"/>
</svg>
