<svg width="20" height="20" viewBox="0 0 20 20" fill="none" xmlns="http://www.w3.org/2000/svg">
<path fill-rule="evenodd" clip-rule="evenodd" d="M4.5 11.49C3.67 11.49 3 10.82 3 9.98999C3 9.16999 3.67 8.48999 4.5 8.48999C5.32 8.48999 6 9.16999 6 9.98999C6 10.82 5.32 11.49 4.5 11.49ZM10 11.49C9.17 11.49 8.5 10.82 8.5 9.98999C8.5 9.16999 9.17 8.48999 10 8.48999C10.82 8.48999 11.5 9.16999 11.5 9.98999C11.5 10.82 10.82 11.49 10 11.49ZM14 9.98999C14 10.82 14.67 11.49 15.5 11.49C16.32 11.49 17 10.82 17 9.98999C17 9.16999 16.32 8.48999 15.5 8.48999C14.67 8.48999 14 9.16999 14 9.98999Z" fill="#1F1F22"/>
</svg>
