<svg width="20" height="20" viewBox="0 0 20 20" fill="none" xmlns="http://www.w3.org/2000/svg">
<path d="M15.92 9.60996C15.87 9.48996 15.8 9.37996 15.71 9.27996L10.71 4.28996C10.45 4.03996 10.08 3.93996 9.74 4.02996C9.39 4.11996 9.12 4.38996 9.03 4.73996C8.93 5.07996 9.03 5.44996 9.29 5.70996L12.59 8.99996H5C4.44 8.99996 4 9.43996 4 9.98996C4 10.55 4.44 10.99 5 10.99H12.59L9.29 14.28C9.1 14.47 8.99 14.72 8.99 14.99C8.99 15.26 9.1 15.51 9.29 15.7C9.47 15.89 9.73 16 10 16C10.26 16 10.52 15.89 10.71 15.7L15.71 10.7C15.8 10.61 15.87 10.5 15.92 10.37C16.02 10.13 16.02 9.85996 15.92 9.60996Z" fill="#1F1F22"/>
</svg>
