<svg width="32.000000" height="32.000000" viewBox="0 0 32 32" fill="none" xmlns="http://www.w3.org/2000/svg" xmlns:xlink="http://www.w3.org/1999/xlink">
	<desc>
			Created with Pixso.
	</desc>
	<defs/>
	<path id="Union" d="M16 4.5C16.56 4.5 17 4.93 17 5.5L17 15L26.5 15C27.06 15 27.5 15.43 27.5 16C27.5 16.56 27.06 17 26.5 17L17 17L17 26.5C17 27.06 16.56 27.5 16 27.5C15.43 27.5 15 27.06 15 26.5L15 17L5.5 17C4.93 17 4.5 16.56 4.5 16C4.5 15.43 4.93 15 5.5 15L15 15L15 5.5C15 4.93 15.43 4.5 16 4.5Z" fill="#1F1F22" fill-opacity="1.000000" fill-rule="evenodd"/>
</svg>
