<svg width="24" height="24" viewBox="0 0 24 24" fill="none" xmlns="http://www.w3.org/2000/svg">
<path fill-rule="evenodd" clip-rule="evenodd" d="M8.54741 8.23593L2.86741 9.00593C2.59741 9.04593 2.37741 9.17593 2.20741 9.39593C2.03741 9.61593 1.97741 9.86593 2.00741 10.1359C2.02741 10.2459 2.05741 10.3459 2.10741 10.4459C2.15741 10.5459 2.21741 10.6359 2.29741 10.7059L6.40741 14.8159L5.43741 20.5159C5.38741 20.7859 5.44741 21.0359 5.59741 21.2659C5.75741 21.4859 5.97741 21.6259 6.24741 21.6759C6.35741 21.6859 6.46741 21.6959 6.57741 21.6759C6.68741 21.6559 6.78741 21.6259 6.88741 21.5759L11.9974 18.8759L17.1174 21.5759C17.3674 21.6959 17.6174 21.7259 17.8874 21.6459C18.1474 21.5559 18.3474 21.3959 18.4674 21.1559C18.5274 21.0559 18.5574 20.9559 18.5774 20.8459C18.5874 20.7359 18.5874 20.6259 18.5674 20.5159L17.5974 14.8159L21.7074 10.7059C21.9074 10.5159 21.9974 10.2759 21.9974 10.0059C22.0074 9.72593 21.9074 9.48593 21.7074 9.29593C21.6374 9.21593 21.5474 9.15593 21.4474 9.10593C21.3474 9.05593 21.2474 9.02593 21.1374 9.00593L15.4574 8.23593L12.8974 3.05593C12.7774 2.80593 12.5874 2.64593 12.3274 2.55593C12.0574 2.46593 11.8074 2.48593 11.5574 2.60593C11.4574 2.65593 11.3774 2.71593 11.2974 2.79593C11.2174 2.87593 11.1574 2.95593 11.1074 3.05593L8.54741 8.23593ZM5.13741 10.7159L9.34741 10.1459C9.50741 10.1259 9.65741 10.0659 9.79741 9.96593C9.92741 9.87593 10.0374 9.74593 10.1074 9.59593L11.9974 5.75593L13.8974 9.59593C13.9674 9.74593 14.0774 9.87593 14.2074 9.96593C14.3474 10.0659 14.4974 10.1259 14.6574 10.1459L18.8674 10.7159L15.8174 13.7559C15.6974 13.8759 15.6174 14.0059 15.5674 14.1659C15.5174 14.3159 15.5074 14.4759 15.5374 14.6359L16.2574 18.8559L12.4674 16.8659C12.3174 16.7859 12.1674 16.7559 11.9974 16.7559C11.8374 16.7559 11.6874 16.7859 11.5374 16.8659L7.74741 18.8559L8.46741 14.6359C8.49741 14.4759 8.48741 14.3159 8.43741 14.1659C8.38741 14.0059 8.30741 13.8759 8.18741 13.7559L5.13741 10.7159Z" fill="#1F1F22"/>
</svg>
