<svg width="24" height="24" viewBox="0 0 24 24" fill="none" xmlns="http://www.w3.org/2000/svg">
<path d="M9 15C9.55228 15 10 15.4477 10 16C10 16.5523 9.55228 17 9 17C8.44772 17 8 16.5523 8 16C8 15.4477 8.44772 15 9 15Z" fill="#1F1F22"/>
<path d="M12 15C12.5523 15 13 15.4477 13 16C13 16.5523 12.5523 17 12 17C11.4477 17 11 16.5523 11 16C11 15.4477 11.4477 15 12 15Z" fill="#1F1F22"/>
<path d="M15 15C15.5523 15 16 15.4477 16 16C16 16.5523 15.5523 17 15 17C14.4477 17 14 16.5523 14 16C14 15.4477 14.4477 15 15 15Z" fill="#1F1F22"/>
<path fill-rule="evenodd" clip-rule="evenodd" d="M11.1719 2C11.9674 2.00008 12.7304 2.31637 13.293 2.87891L19.1211 8.70703C19.6836 9.26957 19.9999 10.0326 20 10.8281V19C20 20.6569 18.6569 22 17 22H7C5.34315 22 4 20.6569 4 19V5C4 3.34315 5.34315 2 7 2H11.1719ZM7 4C6.44772 4 6 4.44772 6 5V19C6 19.5523 6.44772 20 7 20H17C17.5523 20 18 19.5523 18 19V11H14C12.3431 11 11 9.65685 11 8V4H7ZM13 8C13 8.55228 13.4477 9 14 9H16.5859L13 5.41406V8Z" fill="#1F1F22"/>
</svg>
