<svg width="24.000000" height="24.000000" viewBox="0 0 24 24" fill="none" xmlns="http://www.w3.org/2000/svg" xmlns:xlink="http://www.w3.org/1999/xlink">
	<desc>
			Created with Pixso.
	</desc>
	<defs/>
	<path id="Union" d="M11.29 16.7L6.29 11.71C6.1 11.52 6 11.26 6 11C6 10.73 6.1 10.47 6.29 10.29C6.48 10.1 6.73 9.99 7 9.99C7.27 9.99 7.52 10.1 7.71 10.29L11 13.59L11 3C11 2.44 11.44 2 12 2C12.55 2 13 2.44 13 3L13 13.59L16.28 10.29C16.54 10.03 16.91 9.93 17.25 10.03C17.6 10.12 17.87 10.39 17.96 10.74C18.05 11.08 17.95 11.45 17.7 11.71L12.71 16.7C12.61 16.8 12.5 16.87 12.38 16.92C12.13 17.02 11.86 17.02 11.62 16.92C11.49 16.87 11.38 16.8 11.29 16.7ZM5 16C5 15.44 4.55 15 4 15C3.44 15 3 15.44 3 16L3 19C3 20.65 4.34 22 6 22L18 22C19.65 22 21 20.65 21 19L21 16C21 15.44 20.55 15 20 15C19.44 15 19 15.44 19 16L19 19C19 19.55 18.55 20 18 20L6 20C5.44 20 5 19.55 5 19L5 16Z" fill="#1F1F22" fill-opacity="1.000000" fill-rule="evenodd"/>
</svg>
