<svg width="20" height="20" viewBox="0 0 20 20" fill="none" xmlns="http://www.w3.org/2000/svg">
<path d="M5 11C5.55228 11 6 11.4477 6 12C6 12.5523 5.55228 13 5 13H4C3.44772 13 3 12.5523 3 12C3 11.4477 3.44772 11 4 11H5Z" fill="#1F1F22"/>
<path d="M5 8C5.55228 8 6 8.44772 6 9C6 9.55228 5.55228 10 5 10H4C3.44772 10 3 9.55228 3 9C3 8.44772 3.44772 8 4 8H5Z" fill="#1F1F22"/>
<path d="M5 5C5.55228 5 6 5.44772 6 6C6 6.55228 5.55228 7 5 7H4C3.44772 7 3 6.55228 3 6C3 5.44772 3.44772 5 4 5H5Z" fill="#1F1F22"/>
<path fill-rule="evenodd" clip-rule="evenodd" d="M17 2C18.6569 2 20 3.34315 20 5V15C20 16.6569 18.6569 18 17 18H3C1.34315 18 4.00052e-07 16.6569 0 15V5C1.09239e-07 3.34315 1.34315 2 3 2H17ZM3 4C2.44772 4 2 4.44772 2 5V15C2 15.5523 2.44772 16 3 16H7V4H3ZM9 16H17C17.5523 16 18 15.5523 18 15V5C18 4.44772 17.5523 4 17 4H9V16Z" fill="#1F1F22"/>
</svg>
