<svg width="20.000000" height="20.000000" viewBox="0 0 20 20" fill="none" xmlns="http://www.w3.org/2000/svg" xmlns:xlink="http://www.w3.org/1999/xlink">
	<desc>
			Created with Pixso.
	</desc>
	<defs/>
	<path id="Union" d="M4.5 11.49C3.67 11.49 3 10.82 3 9.99C3 9.17 3.67 8.49 4.5 8.49C5.32 8.49 6 9.17 6 9.99C6 10.82 5.32 11.49 4.5 11.49ZM10 11.49C9.17 11.49 8.5 10.82 8.5 9.99C8.5 9.17 9.17 8.49 10 8.49C10.82 8.49 11.5 9.17 11.5 9.99C11.5 10.82 10.82 11.49 10 11.49ZM14 9.99C14 10.82 14.67 11.49 15.5 11.49C16.32 11.49 17 10.82 17 9.99C17 9.17 16.32 8.49 15.5 8.49C14.67 8.49 14 9.17 14 9.99Z" fill="#1F1F22" fill-opacity="1.000000" fill-rule="evenodd"/>
</svg>
