<svg width="24" height="24" viewBox="0 0 24 24" fill="none" xmlns="http://www.w3.org/2000/svg">
<path d="M15.7952 4.04688C17.6786 3.80075 19.6253 4.51941 20.8694 6.32227C21.911 7.8318 22.1806 9.42011 21.8909 10.9629C21.6077 12.4708 20.8027 13.8803 19.7923 15.126C17.7758 17.6118 14.7498 19.6811 12.4661 20.8848C12.1746 21.0383 11.826 21.0382 11.5345 20.8848C9.25082 19.6812 6.22479 17.6119 4.20829 15.126C3.19783 13.8803 2.39291 12.4709 2.10965 10.9629C1.81996 9.42004 2.08948 7.83186 3.13114 6.32227C4.37535 4.51943 6.32187 3.80064 8.20536 4.04688C9.61572 4.23147 10.9746 4.95182 12.0003 6.11621C13.026 4.95184 14.3848 4.2314 15.7952 4.04688Z" fill="#1F1F22"/>
</svg>
