<svg width="20" height="20" viewBox="0 0 20 20" fill="none" xmlns="http://www.w3.org/2000/svg">
<path fill-rule="evenodd" clip-rule="evenodd" d="M6.54192 6.23593L0.861921 7.00593C0.591921 7.04593 0.371921 7.17593 0.201921 7.39593C0.0319212 7.61593 -0.0280788 7.86593 0.0119212 8.13593C0.0219212 8.24593 0.0519212 8.34593 0.101921 8.44593C0.151921 8.54593 0.211921 8.63593 0.291921 8.70593L4.41192 12.8159L3.43192 18.5159C3.38192 18.7859 3.44192 19.0359 3.60192 19.2659C3.76192 19.4859 3.97192 19.6259 4.24192 19.6759C4.35192 19.6859 4.46192 19.6959 4.57192 19.6759C4.68192 19.6559 4.78192 19.6259 4.88192 19.5759L10.0019 16.8759L15.1119 19.5759C15.3619 19.6959 15.6119 19.7259 15.8819 19.6459C16.1419 19.5559 16.3419 19.3959 16.4719 19.1559C16.5219 19.0559 16.5519 18.9559 16.5719 18.8459C16.5819 18.7359 16.5819 18.6259 16.5719 18.5159L15.5919 12.8159L19.7019 8.70593C19.9019 8.51593 20.0019 8.27593 20.0019 8.00593C20.0019 7.72593 19.9019 7.48593 19.7019 7.29593C19.6319 7.21593 19.5419 7.15593 19.4419 7.10593C19.3419 7.05593 19.2419 7.02593 19.1319 7.00593L13.4519 6.23593L10.8919 1.05593C10.7719 0.805932 10.5819 0.645932 10.3219 0.555932C10.0619 0.465932 9.80192 0.485932 9.55192 0.605932C9.45192 0.655932 9.37192 0.715932 9.29192 0.795932C9.21192 0.875932 9.15192 0.955932 9.10192 1.05593L6.54192 6.23593ZM3.13192 8.71593L7.34192 8.14593C7.50192 8.12593 7.65192 8.06593 7.79192 7.96593C7.92192 7.87593 8.03192 7.74593 8.10192 7.59593L10.0019 3.75593L11.8919 7.59593C11.9619 7.74593 12.0719 7.87593 12.2019 7.96593C12.3419 8.06593 12.4919 8.12593 12.6519 8.14593L16.8619 8.71593L13.8119 11.7559C13.6919 11.8759 13.6119 12.0059 13.5619 12.1659C13.5119 12.3159 13.5019 12.4759 13.5319 12.6359L14.2519 16.8559L10.4619 14.8659C10.3219 14.7859 10.1619 14.7559 10.0019 14.7559C9.83192 14.7559 9.68192 14.7859 9.53192 14.8659L5.74192 16.8559L6.46192 12.6359C6.49192 12.4759 6.48192 12.3159 6.43192 12.1659C6.38192 12.0059 6.30192 11.8759 6.18192 11.7559L3.13192 8.71593Z" fill="#1F1F22"/>
</svg>
