<svg width="24" height="24" viewBox="0 0 24 24" fill="none" xmlns="http://www.w3.org/2000/svg">
<path d="M8 5.5C8.55228 5.5 9 5.94772 9 6.5C9 7.05228 8.55228 7.5 8 7.5H6C4.89543 7.5 4 8.39543 4 9.5V18.6953L5.49707 17.7598C6.29172 17.2631 7.21037 17 8.14746 17H15C16.1046 17 17 16.1046 17 15V13.5C17 12.9477 17.4477 12.5 18 12.5C18.5523 12.5 19 12.9477 19 13.5V15C19 17.2091 17.2091 19 15 19H8.14746C7.58531 19 7.03435 19.1582 6.55762 19.4561L3.53027 21.3477C3.22215 21.5402 2.8335 21.551 2.51562 21.375C2.19767 21.1988 2 20.8635 2 20.5V9.5C2 7.29086 3.79086 5.5 6 5.5H8ZM19 2C20.6569 2 22 3.34315 22 5V11C22 11.3596 21.8068 11.6914 21.4941 11.8691C21.1815 12.0469 20.7973 12.0433 20.4883 11.8594L18.5615 10.7119C18.4068 10.6198 18.2299 10.5713 18.0498 10.5713H14C12.3431 10.5713 11 9.22814 11 7.57129V5C11 3.34315 12.3431 2 14 2H19ZM14 4C13.4477 4 13 4.44772 13 5V7.57129C13 8.12357 13.4477 8.57129 14 8.57129H18.0498C18.5898 8.57129 19.1199 8.71703 19.584 8.99316L20 9.24023V5C20 4.44772 19.5523 4 19 4H14Z" fill="#1F1F22"/>
</svg>
