<svg width="16" height="16" viewBox="0 0 16 16" fill="none" xmlns="http://www.w3.org/2000/svg">
<path d="M7.33268 9.96191L7.33366 9.95898L7.33463 9.95801C7.33431 9.95872 7.33353 9.95998 7.33268 9.96191Z" fill="#1F1F22"/>
<path fill-rule="evenodd" clip-rule="evenodd" d="M13.9997 0.601563C15.0353 0.601563 15.8866 1.38888 15.9889 2.39746L15.9997 2.60156V7.80176C15.9996 8.90624 15.1042 9.80176 13.9997 9.80176H11.5358C11.5138 9.81941 11.4889 9.83708 11.4645 9.85742C11.2716 10.0182 11.0147 10.255 10.7594 10.5527C10.2351 11.1644 9.79948 11.9398 9.79948 12.8018C9.79947 13.0979 9.79119 13.5816 9.59928 14.0518C9.38303 14.5813 8.96553 15.0263 8.30827 15.2686C7.56649 15.5418 6.6565 15.3948 5.97624 14.7812C5.28051 14.1536 4.93352 13.1523 5.00163 11.8916C5.02849 11.3954 5.08066 10.9648 5.13834 10.6035L3.0153 10.6055C0.904285 10.6079 -0.548657 8.48725 0.215493 6.51953L1.52409 3.15137C2.12187 1.61361 3.60276 0.60057 5.2526 0.600586L13.9997 0.601563ZM5.2526 2.60059C4.42771 2.60057 3.68726 3.10714 3.38834 3.87598L2.07975 7.24316C1.82518 7.899 2.30978 8.60623 3.01334 8.60547L6.39909 8.60156C6.72932 8.6013 7.03868 8.76461 7.22526 9.03711C7.38824 9.27552 7.43886 9.57051 7.36881 9.84668L7.3317 9.96387C7.33108 9.96538 7.33047 9.96767 7.32975 9.96973C7.3248 9.98393 7.3161 10.0109 7.30436 10.0488C7.28062 10.1256 7.24456 10.2509 7.20573 10.4219C7.12791 10.7648 7.03685 11.2948 6.9987 11.999C6.95256 12.8529 7.19676 13.1882 7.31608 13.2959C7.45059 13.4172 7.5798 13.4051 7.61686 13.3916C7.69249 13.3637 7.71921 13.3389 7.72428 13.334C7.72858 13.3298 7.73721 13.3215 7.74772 13.2959C7.76031 13.265 7.7753 13.2113 7.78581 13.124C7.79643 13.0352 7.79947 12.9315 7.79948 12.8018C7.79948 11.264 8.56537 10.039 9.24088 9.25098C9.50764 8.93984 9.774 8.6816 9.99967 8.48145V2.60059H5.2526ZM12.1999 7.80176H13.9997V2.60156H12.1999V7.80176Z" fill="#1F1F22"/>
</svg>
