<svg width="24.000000" height="24.000000" viewBox="0 0 24 24" fill="none" xmlns="http://www.w3.org/2000/svg" xmlns:xlink="http://www.w3.org/1999/xlink">
	<desc>
			Created with Pixso.
	</desc>
	<defs/>
	<path id="Union" d="M5.76 8.67C6.14 9.08 6.76 9.11 7.17 8.73L12 4.38L16.82 8.73C17.23 9.11 17.85 9.08 18.23 8.67C18.61 8.25 18.58 7.64 18.16 7.26L12.67 2.3C12.44 2.1 12.22 2 12 2C11.77 2 11.55 2.1 11.32 2.3L5.83 7.26C5.41 7.64 5.38 8.25 5.76 8.67ZM7.17 15.26C6.76 14.88 6.14 14.91 5.76 15.32C5.38 15.74 5.41 16.35 5.83 16.73L11.32 21.69C11.55 21.89 11.77 22 12 22C12.22 22 12.44 21.89 12.67 21.69L18.16 16.73C18.58 16.35 18.61 15.74 18.23 15.32C17.85 14.91 17.23 14.88 16.82 15.26L12 19.61L7.17 15.26Z" fill="#1F1F22" fill-opacity="1.000000" fill-rule="evenodd"/>
</svg>
