<svg width="24" height="24" viewBox="0 0 24 24" fill="none" xmlns="http://www.w3.org/2000/svg">
<path d="M16.375 9.21875C16.8063 8.87375 17.4362 8.94376 17.7812 9.375C18.1263 9.80626 18.0563 10.4362 17.625 10.7812L13.874 13.7812C12.7784 14.6578 11.2216 14.6578 10.126 13.7812L6.375 10.7812C5.94376 10.4362 5.87375 9.80625 6.21875 9.375C6.56375 8.94375 7.19374 8.87376 7.625 9.21875L11.375 12.2197C11.7402 12.5119 12.2598 12.5119 12.625 12.2197L16.375 9.21875Z" fill="#1F1F22"/>
<path fill-rule="evenodd" clip-rule="evenodd" d="M19 4C20.6569 4 22 5.34315 22 7V17C22 18.6569 20.6569 20 19 20H5C3.34315 20 2 18.6569 2 17V7C2 5.34315 3.34315 4 5 4H19ZM5 6C4.44772 6 4 6.44772 4 7V17C4 17.5523 4.44772 18 5 18H19C19.5523 18 20 17.5523 20 17V7C20 6.44772 19.5523 6 19 6H5Z" fill="#1F1F22"/>
</svg>
