<svg width="32" height="32" viewBox="0 0 32 32" fill="none" xmlns="http://www.w3.org/2000/svg">
<path d="M11.7109 14.8857C12.0501 14.4501 12.6784 14.372 13.1143 14.7109C13.5499 15.0501 13.628 15.6784 13.2891 16.1143L9.78906 20.6143C9.44992 21.0499 8.82156 21.128 8.38574 20.7891C7.95016 20.4499 7.87202 19.8216 8.21094 19.3857L11.7109 14.8857Z" fill="#1F1F22"/>
<path d="M16.9297 13.2686C17.5143 12.6705 18.4857 12.6705 19.0703 13.2686L19.1885 13.4053L23.793 19.3906C24.1293 19.8284 24.047 20.4563 23.6094 20.793C23.1716 21.1294 22.5437 21.047 22.207 20.6094L18 15.1396L13.793 20.6094C13.4563 21.047 12.8284 21.1293 12.3906 20.793C11.953 20.4563 11.8706 19.8284 12.207 19.3906L16.8115 13.4053L16.9297 13.2686Z" fill="#1F1F22"/>
<path d="M9.5 10C10.3284 10 11 10.6716 11 11.5C11 12.3284 10.3284 13 9.5 13C8.67157 13 8 12.3284 8 11.5C8 10.6716 8.67157 10 9.5 10Z" fill="#1F1F22"/>
<path fill-rule="evenodd" clip-rule="evenodd" d="M25 5C27.2091 5 29 6.79086 29 9V23C29 25.2091 27.2091 27 25 27H7C4.79086 27 3 25.2091 3 23V9C3 6.79086 4.79086 5 7 5H25ZM7 7C5.89543 7 5 7.89543 5 9V23C5 24.1046 5.89543 25 7 25H25C26.1046 25 27 24.1046 27 23V9C27 7.89543 26.1046 7 25 7H7Z" fill="#1F1F22"/>
</svg>
