<svg width="20" height="20" viewBox="0 0 20 20" fill="none" xmlns="http://www.w3.org/2000/svg">
<path d="M13.2901 5.29C13.6801 4.9 14.3101 4.9 14.7001 5.29C15.0901 5.68 15.0901 6.31 14.7001 6.7L11.4101 10L14.7001 13.29C15.0901 13.68 15.0901 14.31 14.7001 14.7C14.3101 15.09 13.6801 15.09 13.2901 14.7L10.0001 11.41L6.70006 14.7C6.31006 15.09 5.68006 15.09 5.29006 14.7C4.90006 14.31 4.90006 13.68 5.29006 13.29L8.58006 10L5.29006 6.7C4.90006 6.31 4.90006 5.68 5.29006 5.29C5.68006 4.9 6.31006 4.9 6.70006 5.29L10.0001 8.58L13.2901 5.29Z" fill="#1F1F22"/>
</svg>
