<svg width="20" height="20" viewBox="0 0 20 20" fill="none" xmlns="http://www.w3.org/2000/svg">
<path fill-rule="evenodd" clip-rule="evenodd" d="M8.5 4.48999C8.5 3.66999 9.17 2.98999 10 2.98999C10.82 2.98999 11.5 3.66999 11.5 4.48999C11.5 5.31999 10.82 5.98999 10 5.98999C9.17 5.98999 8.5 5.31999 8.5 4.48999ZM8.5 9.98999C8.5 9.16999 9.17 8.48999 10 8.48999C10.82 8.48999 11.5 9.16999 11.5 9.98999C11.5 10.82 10.82 11.49 10 11.49C9.17 11.49 8.5 10.82 8.5 9.98999ZM10 13.99C9.17 13.99 8.5 14.67 8.5 15.49C8.5 16.32 9.17 16.99 10 16.99C10.82 16.99 11.5 16.32 11.5 15.49C11.5 14.67 10.82 13.99 10 13.99Z" fill="#1F1F22"/>
</svg>
