<svg width="20" height="20" viewBox="0 0 20 20" fill="none" xmlns="http://www.w3.org/2000/svg">
<path d="M11 8C11.5523 8 12 8.44771 12 9C12 9.55229 11.5523 10 11 10H9C8.44771 10 8 9.55229 8 9C8 8.44771 8.44771 8 9 8H11Z" fill="#1F1F22"/>
<path d="M13 4C13.5523 4 14 4.44772 14 5C14 5.55228 13.5523 6 13 6H7C6.44772 6 6 5.55228 6 5C6 4.44772 6.44772 4 7 4H13Z" fill="#1F1F22"/>
<path d="M16 7.5V3C16 2.44772 15.5523 2 15 2H5C4.44772 2 4 2.44772 4 3V7.5C4 8.05228 3.55228 8.5 3 8.5C2.44772 8.5 2 8.05228 2 7.5V3C2 1.34315 3.34315 0 5 0H15C16.6569 0 18 1.34315 18 3V7.5C18 8.05228 17.5523 8.5 17 8.5C16.4477 8.5 16 8.05228 16 7.5Z" fill="#1F1F22"/>
<path d="M18 13C18 12.4477 17.5523 12 17 12H14.7686C14.7792 12 14.7714 11.9947 14.7412 12.0166C14.7072 12.0412 14.6628 12.0895 14.6279 12.1602C13.7965 13.8496 12.0283 15 10 15C7.97171 15 6.20347 13.8496 5.37207 12.1602C5.33724 12.0895 5.29281 12.0412 5.25879 12.0166C5.22858 11.9947 5.22084 12 5.23145 12H3C2.44772 12 2 12.4477 2 13V17C2 17.5523 2.44772 18 3 18H17C17.5523 18 18 17.5523 18 17V13ZM20 17C20 18.6569 18.6569 20 17 20H3C1.34315 20 0 18.6569 0 17V13C0 11.3431 1.34315 10 3 10H5.23145C6.16945 10.0002 6.8499 10.633 7.16699 11.2773C7.66327 12.2857 8.73695 13 10 13C11.2631 13 12.3367 12.2857 12.833 11.2773C13.1501 10.633 13.8306 10.0002 14.7686 10H17C18.6569 10 20 11.3431 20 13V17Z" fill="#1F1F22"/>
</svg>
