<svg width="20.000000" height="20.000000" viewBox="0 0 20 20" fill="none" xmlns="http://www.w3.org/2000/svg" xmlns:xlink="http://www.w3.org/1999/xlink">
	<desc>
			Created with Pixso.
	</desc>
	<defs/>
	<path id="Union" d="M13.29 5.29C13.68 4.9 14.31 4.9 14.7 5.29C15.09 5.68 15.09 6.31 14.7 6.7L11.41 10L14.7 13.29C15.09 13.68 15.09 14.31 14.7 14.7C14.31 15.09 13.68 15.09 13.29 14.7L10 11.41L6.7 14.7C6.31 15.09 5.68 15.09 5.29 14.7C4.9 14.31 4.9 13.68 5.29 13.29L8.58 10L5.29 6.7C4.9 6.31 4.9 5.68 5.29 5.29C5.68 4.9 6.31 4.9 6.7 5.29L10 8.58L13.29 5.29Z" fill="#1F1F22" fill-opacity="1.000000" fill-rule="nonzero"/>
</svg>
