<svg width="32" height="32" viewBox="0 0 32 32" fill="none" xmlns="http://www.w3.org/2000/svg">
<path d="M13 6C13.5523 6 14 6.44772 14 7C14 7.55228 13.5523 8 13 8H8C6.89543 8 6 8.89543 6 10V25.1309L9.68945 22.6719C10.3465 22.2339 11.1185 22 11.9082 22H24C25.1046 22 26 21.1046 26 20V19C26 18.4477 26.4477 18 27 18C27.5523 18 28 18.4477 28 19V20C28 22.2091 26.2091 24 24 24H11.9082C11.5134 24 11.1273 24.1169 10.7988 24.3359L5.55469 27.832C5.2479 28.0366 4.85344 28.0557 4.52832 27.8818C4.20316 27.7078 4 27.3688 4 27V10C4 7.79086 5.79086 6 8 6H13ZM27.5 4C29.433 4 31 5.567 31 7.5V15.5C31 15.8688 30.7968 16.2078 30.4717 16.3818C30.1466 16.5557 29.7521 16.5366 29.4453 16.332L26.9492 14.668C26.785 14.5585 26.5919 14.5 26.3945 14.5H20.5C18.567 14.5 17 12.933 17 11V7.5C17 5.567 18.567 4 20.5 4H27.5ZM20.5 6C19.6716 6 19 6.67157 19 7.5V11C19 11.8284 19.6716 12.5 20.5 12.5H26.3945C26.9868 12.5 27.5658 12.6754 28.0586 13.0039L29 13.6309V7.5C29 6.67157 28.3284 6 27.5 6H20.5Z" fill="#1F1F22"/>
</svg>
