<svg width="32" height="32" viewBox="0 0 32 32" fill="none" xmlns="http://www.w3.org/2000/svg">
<path d="M21.1543 3.00391C22.7394 3.08421 24 4.39489 24 6V26C24 27.6569 22.6569 29 21 29H11C9.34315 29 8 27.6569 8 26V6C8 4.34315 9.34315 3 11 3H21L21.1543 3.00391ZM11 5C10.4477 5 10 5.44772 10 6V26C10 26.5523 10.4477 27 11 27H21C21.5523 27 22 26.5523 22 26V6C22 5.48232 21.6067 5.05621 21.1025 5.00488L21 5H19L18.9951 5.10254C18.9438 5.60667 18.5177 6 18 6H14C13.4477 6 13 5.55228 13 5H11ZM17.5 23C18.0523 23 18.5 23.4477 18.5 24C18.5 24.5523 18.0523 25 17.5 25H14.5C13.9477 25 13.5 24.5523 13.5 24C13.5 23.4477 13.9477 23 14.5 23H17.5ZM6 11C6.55228 11 7 11.4477 7 12V20C7 20.5523 6.55228 21 6 21C5.44772 21 5 20.5523 5 20V12C5 11.4477 5.44772 11 6 11ZM26 11C26.5523 11 27 11.4477 27 12V20C27 20.5523 26.5523 21 26 21C25.4477 21 25 20.5523 25 20V12C25 11.4477 25.4477 11 26 11ZM3 13C3.55228 13 4 13.4477 4 14V18C4 18.5523 3.55228 19 3 19C2.44772 19 2 18.5523 2 18V14C2 13.4477 2.44772 13 3 13ZM29 13C29.5523 13 30 13.4477 30 14V18C30 18.5523 29.5523 19 29 19C28.4477 19 28 18.5523 28 18V14C28 13.4477 28.4477 13 29 13Z" fill="#1F1F22"/>
</svg>
