<svg width="24" height="24" viewBox="0 0 24 24" fill="none" xmlns="http://www.w3.org/2000/svg">
<path fill-rule="evenodd" clip-rule="evenodd" d="M18.5 3C20.4329 3.00006 22 4.56704 22 6.5V14.5C22 16.433 20.4329 17.9999 18.5 18H8.71094C8.11872 18 7.53963 18.1754 7.04688 18.5039L3.55469 20.832C3.2479 21.0366 2.85344 21.0557 2.52832 20.8818C2.20316 20.7078 2 20.3688 2 20V6.5C2 4.567 3.567 3 5.5 3H18.5ZM5.5 5C4.67157 5 4 5.67157 4 6.5V18.1309L5.9375 16.8398C6.75879 16.2923 7.72387 16 8.71094 16H18.5C19.3284 15.9999 20 15.3284 20 14.5V6.5C20 5.67161 19.3284 5.00006 18.5 5H5.5Z" fill="#1F1F22"/>
<path d="M12 7C12.5523 7 13 7.44772 13 8V10C13 10.5523 12.5523 11 12 11C11.4477 11 11 10.5523 11 10V8C11 7.44772 11.4477 7 12 7Z" fill="#1F1F22"/>
<path d="M11 13C11 13.5533 11.4467 14 12 14C12.5533 14 13 13.5533 13 13C13 12.4467 12.5533 12 12 12C11.4467 12 11 12.4467 11 13Z" fill="#1F1F22"/>
</svg>
