<svg width="32" height="32" viewBox="0 0 32 32" fill="none" xmlns="http://www.w3.org/2000/svg">
<path d="M15.9998 6.19995C13.5436 6.19995 11.3668 7.3956 10.0192 9.24097C9.69349 9.68699 9.06788 9.78452 8.62187 9.45881C8.17585 9.13309 8.07832 8.50749 8.40403 8.06147C10.112 5.72265 12.8781 4.19995 15.9998 4.19995C19.1215 4.19995 21.8877 5.72265 23.5956 8.06147C23.9213 8.50749 23.8238 9.13309 23.3778 9.45881C22.9318 9.78452 22.3062 9.68699 21.9805 9.24097C20.6328 7.3956 18.456 6.19995 15.9998 6.19995Z" fill="#1F1F22"/>
<path fill-rule="evenodd" clip-rule="evenodd" d="M8 11C5.79086 11 4 12.7908 4 15V18C4 20.2091 5.79086 22 8 22C9.65685 22 11 20.6568 11 19V14C11 12.3431 9.65685 11 8 11ZM6 15C6 13.8954 6.89543 13 8 13C8.55228 13 9 13.4477 9 14V19C9 19.5522 8.55228 20 8 20C6.89543 20 6 19.1045 6 18V15Z" fill="#1F1F22"/>
<path fill-rule="evenodd" clip-rule="evenodd" d="M24 11C26.2091 11 28 12.7908 28 15V18C28 19.9662 26.5812 21.6012 24.7116 21.9368C23.446 25.0513 20.5575 27.3357 17.0934 27.737C16.7655 27.9051 16.3938 28 16 28C14.6745 28 13.6 26.9254 13.6 25.6C13.6 24.2745 14.6745 23.2 16 23.2C17.2597 23.2 18.2928 24.1705 18.3921 25.4047C20.251 24.7701 21.7774 23.4164 22.6384 21.6739C21.6659 21.1777 21 20.1666 21 19V14C21 12.3431 22.3431 11 24 11ZM26 15C26 13.8954 25.1046 13 24 13C23.4477 13 23 13.4477 23 14V19C23 19.5522 23.4477 20 24 20C25.1046 20 26 19.1045 26 18V15Z" fill="#1F1F22"/>
</svg>
