<svg width="24" height="24" viewBox="0 0 24 24" fill="none" xmlns="http://www.w3.org/2000/svg">
<path d="M11 5C11.5523 5 12 5.44772 12 6C12 6.55228 11.5523 7 11 7H6C4.89543 7 4 7.89543 4 9V18.1953L5.49707 17.2598C6.29172 16.7631 7.21037 16.5 8.14746 16.5H15C16.1046 16.5 17 15.6046 17 14.5V13C17 12.4477 17.4477 12 18 12C18.5523 12 19 12.4477 19 13V14.5C19 16.7091 17.2091 18.5 15 18.5H8.14746C7.58531 18.5 7.03435 18.6582 6.55762 18.9561L3.53027 20.8477C3.22215 21.0402 2.8335 21.051 2.51562 20.875C2.19767 20.6988 2 20.3635 2 20V9C2 6.79086 3.79086 5 6 5H11Z" fill="#1F1F22"/>
<path d="M18 2C18.5523 2 19 2.44772 19 3V5H21C21.5523 5 22 5.44772 22 6C22 6.55228 21.5523 7 21 7H19V9C19 9.55228 18.5523 10 18 10C17.4477 10 17 9.55228 17 9V7H15C14.4477 7 14 6.55228 14 6C14 5.44772 14.4477 5 15 5H17V3C17 2.44772 17.4477 2 18 2Z" fill="#1F1F22"/>
</svg>
