<svg width="16" height="16" viewBox="0 0 16 16" fill="none" xmlns="http://www.w3.org/2000/svg">
<path fill-rule="evenodd" clip-rule="evenodd" d="M3.99 3.00001C3.44 3.00001 2.99 3.44001 2.99 4.00001V12C2.99 12.55 3.44 13 3.99 13H11.99C12.54 13 12.99 12.55 12.99 12V11.5C12.99 10.94 13.44 10.5 13.99 10.5C14.54 10.5 14.99 10.94 14.99 11.5V12C14.99 13.65 13.64 15 11.99 15H3.99C2.34 15 1 13.65 1 12V4.00001C1 2.34001 2.34 1.00001 3.99 1.00001H4.49C5.04 1.00001 5.49 1.44001 5.49 2.00001C5.49 2.55001 5.04 3.00001 4.49 3.00001H3.99ZM14.99 7.50001V2.09001C15 1.95001 14.99 1.81001 14.94 1.68001C14.89 1.56001 14.8 1.39001 14.7 1.29001C14.58 1.18001 14.45 1.10001 14.31 1.05001C14.18 1.00001 14.04 0.990006 13.9 1.00001H8.49C7.93 1.00001 7.5 1.44001 7.5 2.00001C7.5 2.56001 7.93 3.00001 8.49 3.00001H11.58L6.79 7.79001C6.39 8.19001 6.39 8.81001 6.79 9.21001C7.18 9.60001 7.81 9.60001 8.2 9.21001L12.99 4.41001V7.50001C12.99 8.06001 13.43 8.50001 13.99 8.50001C14.55 8.50001 14.99 8.06001 14.99 7.50001Z" fill="#1F1F22"/>
</svg>
