<svg width="32" height="32" viewBox="0 0 32 32" fill="none" xmlns="http://www.w3.org/2000/svg">
<path fill-rule="evenodd" clip-rule="evenodd" d="M11.31 18.15L15.59 13.7C15.98 13.3 15.96 12.67 15.56 12.28C15.16 11.9 14.53 11.91 14.15 12.31L9.85998 16.77C9.74998 16.89 9.62998 17.04 9.50998 17.22C9.25998 17.57 9.07998 17.94 8.95998 18.32C8.82998 18.73 8.76998 19.14 8.78998 19.55C8.79998 19.7 8.81998 19.85 8.84998 20.01C8.85998 20.08 8.87998 20.15 8.89998 20.23C9.04998 20.82 9.36998 21.37 9.85998 21.87C10.37 22.4 10.93 22.75 11.53 22.91C11.58 22.92 11.63 22.93 11.68 22.94C11.85 22.98 12.01 23 12.18 23.01C12.57 23.02 12.96 22.96 13.35 22.83C13.73 22.7 14.09 22.51 14.43 22.26C14.6 22.13 14.75 22.01 14.86 21.89L23.45 12.96C23.6 12.79 23.77 12.58 23.95 12.32C24.3 11.8 24.57 11.27 24.75 10.71C24.95 10.1 25.02 9.49003 24.99 8.89003C24.97 8.70003 24.95 8.50003 24.91 8.31003C24.9 8.24003 24.89 8.18003 24.87 8.11003C24.66 7.22003 24.18 6.39003 23.45 5.62003C22.68 4.82003 21.84 4.32003 20.94 4.11003C20.9 4.10003 20.87 4.09003 20.83 4.08003C20.62 4.04003 20.41 4.01003 20.19 4.00003C19.62 3.97003 19.05 4.06003 18.47 4.26003C17.93 4.45003 17.4 4.72003 16.91 5.10003C16.65 5.28003 16.45 5.46003 16.29 5.62003L6.28998 16.03C6.22998 16.09 6.15998 16.17 6.06998 16.28C5.89998 16.47 5.73998 16.68 5.58998 16.91C5.07998 17.62 4.68998 18.36 4.41998 19.13C4.05998 20.14 3.92998 21.12 4.02998 22.08C4.03998 22.17 4.04998 22.27 4.05998 22.36C4.08998 22.57 4.13998 22.78 4.18998 22.99C4.46998 24.06 5.04998 25.05 5.92998 25.96C6.85998 26.93 7.86998 27.55 8.96998 27.83C9.11998 27.86 9.26998 27.9 9.42998 27.92C9.55998 27.94 9.68998 27.96 9.81998 27.97C10.72 28.06 11.64 27.92 12.59 27.55C13.33 27.27 14.04 26.86 14.74 26.33C14.95 26.17 15.16 26 15.35 25.82C15.45 25.73 15.53 25.65 15.59 25.59L22.73 18.16C23.12 17.75 23.11 17.13 22.7 16.74C22.3 16.36 21.68 16.37 21.29 16.77L14.15 24.21C14.12 24.24 14.07 24.28 14 24.35C13.85 24.48 13.69 24.61 13.52 24.74C12.98 25.15 12.43 25.47 11.87 25.69C11.13 25.97 10.42 26.06 9.74998 25.95C8.90998 25.81 8.11998 25.35 7.36998 24.58C6.65998 23.83 6.21998 23.04 6.05998 22.19C5.91998 21.44 5.99998 20.64 6.29998 19.8C6.50998 19.21 6.81998 18.63 7.21998 18.06C7.33998 17.88 7.46998 17.72 7.59998 17.57C7.65998 17.5 7.69998 17.45 7.72998 17.42L17.73 7.01003C17.82 6.93003 17.99 6.78003 18.1 6.70003C18.43 6.45003 18.77 6.27003 19.12 6.15003C19.53 6.01003 19.92 5.96003 20.3 6.02003C20.34 6.03003 20.38 6.03003 20.42 6.04003C20.97 6.15003 21.49 6.48003 22 7.01003C22.52 7.55003 22.84 8.11003 22.95 8.69003C22.96 8.72003 22.96 8.76003 22.97 8.80003C23.03 9.22003 22.99 9.65003 22.84 10.1C22.73 10.47 22.54 10.83 22.3 11.19C22.23 11.3 22.15 11.4 22.07 11.49L13.43 20.49C13.39 20.53 13.33 20.58 13.24 20.65C13.06 20.78 12.88 20.87 12.7 20.94C12.49 21.01 12.28 21.03 12.09 20.99C11.83 20.93 11.57 20.76 11.3 20.49C11.03 20.21 10.87 19.92 10.81 19.63C10.77 19.41 10.79 19.18 10.86 18.93C10.93 18.73 11.02 18.54 11.16 18.35C11.2 18.29 11.27 18.2 11.31 18.15Z" fill="#1F1F22"/>
</svg>
