<svg width="32" height="32" viewBox="0 0 32 32" fill="none" xmlns="http://www.w3.org/2000/svg">
<path d="M22 25C22.5523 25 23 25.4477 23 26C23 26.5523 22.5523 27 22 27H20C19.4477 27 19 26.5523 19 26C19 25.4477 19.4477 25 20 25H22Z" fill="#1F1F22"/>
<path fill-rule="evenodd" clip-rule="evenodd" d="M25.1543 10.0039C26.7394 10.0842 28 11.3949 28 13V27C28 28.6569 26.6569 30 25 30H17C15.3431 30 14 28.6569 14 27V13C14 11.3431 15.3431 10 17 10H25L25.1543 10.0039ZM17 12C16.4477 12 16 12.4477 16 13V27C16 27.5523 16.4477 28 17 28H25C25.5523 28 26 27.5523 26 27V13C26 12.4823 25.6067 12.0562 25.1025 12.0049L25 12H23C23 12.5523 22.5523 13 22 13H20C19.4477 13 19 12.5523 19 12H17Z" fill="#1F1F22"/>
<path d="M21 2C22.6569 2 24 3.34315 24 5V7C24 7.55228 23.5523 8 23 8C22.4477 8 22 7.55228 22 7V5C22 4.44772 21.5523 4 21 4H7C6.44772 4 6 4.44772 6 5V21H11C11.5523 21 12 21.4477 12 22C12 22.5523 11.5523 23 11 23H6V25C6 25.5523 6.44772 26 7 26H11C11.5523 26 12 26.4477 12 27C12 27.5523 11.5523 28 11 28H7C5.34315 28 4 26.6569 4 25V5C4 3.34315 5.34315 2 7 2H21Z" fill="#1F1F22"/>
<path d="M16 6C16.5523 6 17 6.44772 17 7C17 7.55228 16.5523 8 16 8H12C11.4477 8 11 7.55228 11 7C11 6.44772 11.4477 6 12 6H16Z" fill="#1F1F22"/>
</svg>
