<svg width="16.000000" height="16.000000" viewBox="0 0 16 16" fill="none" xmlns="http://www.w3.org/2000/svg" xmlns:xlink="http://www.w3.org/1999/xlink">
	<desc>
			Created with Pixso.
	</desc>
	<defs/>
	<path id="Union" d="M4 3C3.44 3 3 3.44 3 4L3 12C3 12.55 3.44 13 4 13L12 13C12.55 13 13 12.55 13 12L13 11.5C13 10.94 13.44 10.5 14 10.5C14.55 10.5 15 10.94 15 11.5L15 12C15 13.65 13.65 15 12 15L4 15C2.34 15 1 13.65 1 12L1 4C1 2.34 2.34 1 4 1L4.5 1C5.05 1 5.5 1.44 5.5 2C5.5 2.55 5.05 3 4.5 3L4 3ZM15 7.5L15 2.09C15.01 1.95 15 1.81 14.95 1.68C14.9 1.56 14.8 1.39 14.71 1.29C14.59 1.18 14.46 1.1 14.32 1.05C14.19 1 14.05 0.99 13.91 1L8.5 1C7.94 1 7.5 1.44 7.5 2C7.5 2.56 7.94 3 8.5 3L11.58 3L6.79 7.79C6.4 8.19 6.4 8.81 6.79 9.21C7.19 9.6 7.81 9.6 8.21 9.21L13 4.41L13 7.5C13 8.06 13.44 8.5 14 8.5C14.56 8.5 15 8.06 15 7.5Z" fill="#1F1F22" fill-opacity="1.000000" fill-rule="evenodd"/>
</svg>
