<svg width="16" height="16" viewBox="0 0 16 16" fill="none" xmlns="http://www.w3.org/2000/svg">
<path fill-rule="evenodd" clip-rule="evenodd" d="M2.5 9.48999C1.67 9.48999 1 8.81999 1 7.98999C1 7.16999 1.67 6.48999 2.5 6.48999C3.32 6.48999 4 7.16999 4 7.98999C4 8.81999 3.32 9.48999 2.5 9.48999ZM8 9.48999C7.17 9.48999 6.5 8.81999 6.5 7.98999C6.5 7.16999 7.17 6.48999 8 6.48999C8.82 6.48999 9.5 7.16999 9.5 7.98999C9.5 8.81999 8.82 9.48999 8 9.48999ZM12 7.98999C12 8.81999 12.67 9.48999 13.5 9.48999C14.32 9.48999 15 8.81999 15 7.98999C15 7.16999 14.32 6.48999 13.5 6.48999C12.67 6.48999 12 7.16999 12 7.98999Z" fill="#1F1F22"/>
</svg>
