<svg width="32" height="32" viewBox="0 0 32 32" fill="none" xmlns="http://www.w3.org/2000/svg">
<path fill-rule="evenodd" clip-rule="evenodd" d="M17.6768 16.1504C18.077 15.9755 18.6221 15.9082 19.1221 16.2441L19.2363 16.3291L19.2373 16.3301C20.352 17.2377 21 18.5898 21 20C21 20.1415 21.0109 20.5562 20.8955 20.9326C20.833 21.1364 20.711 21.412 20.459 21.6396C20.1856 21.8865 19.8429 22.0019 19.4912 22.002H12.5C12.1481 22.0019 11.8036 21.8863 11.5293 21.6357C11.2769 21.405 11.1568 21.1264 11.0967 20.9229C10.9863 20.549 11 20.1318 11 20C11 18.6223 11.6225 17.25 12.7139 16.3379L12.7148 16.3369C13.2489 15.8924 13.9013 15.9626 14.3398 16.1572L14.5137 16.2471L14.6934 16.3477C15.592 16.8191 16.5118 16.8049 17.5029 16.2373L17.6768 16.1504ZM13.748 18.1084C13.2709 18.6241 13 19.3172 13 20V20.002H19V20C19 19.312 18.725 18.6331 18.2285 18.1162C16.7323 18.8769 15.1836 18.8674 13.748 18.1084Z" fill="#1F1F22"/>
<path fill-rule="evenodd" clip-rule="evenodd" d="M16 10C17.6569 10 19 11.3431 19 13C19 14.6569 17.6569 16 16 16C14.3431 16 13 14.6569 13 13C13 11.3431 14.3431 10 16 10ZM16 12C15.4477 12 15 12.4477 15 13C15 13.5523 15.4477 14 16 14C16.5523 14 17 13.5523 17 13C17 12.4477 16.5523 12 16 12Z" fill="#1F1F22"/>
<path fill-rule="evenodd" clip-rule="evenodd" d="M22.5 4C24.7091 4 26.5 5.79086 26.5 8V24C26.5 26.2091 24.7091 28 22.5 28H9.5C7.29086 28 5.5 26.2091 5.5 24V22H4.5C3.94772 22 3.5 21.5523 3.5 21C3.5 20.4477 3.94772 20 4.5 20H5.5V17H4.5C3.94772 17 3.5 16.5523 3.5 16C3.5 15.4477 3.94772 15 4.5 15H5.5V12H4.5C3.94772 12 3.5 11.5523 3.5 11C3.5 10.4477 3.94772 10 4.5 10H5.5V8C5.5 5.79086 7.29086 4 9.5 4H22.5ZM9.5 6C8.39543 6 7.5 6.89543 7.5 8V24C7.5 25.1046 8.39543 26 9.5 26H22.5C23.6046 26 24.5 25.1046 24.5 24V8C24.5 6.89543 23.6046 6 22.5 6H9.5Z" fill="#1F1F22"/>
</svg>
