<svg width="16.000000" height="16.000000" viewBox="0 0 16 16" fill="none" xmlns="http://www.w3.org/2000/svg" xmlns:xlink="http://www.w3.org/1999/xlink">
	<desc>
			Created with Pixso.
	</desc>
	<defs/>
	<path id="Union" d="M11.5 13.5C12.05 13.5 12.5 13.05 12.5 12.5L12.5 6.08L13.37 6.78C13.8 7.12 14.43 7.05 14.78 6.62C15.12 6.19 15.05 5.56 14.62 5.21L12.12 3.21C11.75 2.92 11.24 2.92 10.87 3.21L8.37 5.21C7.94 5.56 7.87 6.19 8.21 6.62C8.56 7.05 9.19 7.12 9.62 6.78L10.5 6.08L10.5 12.5C10.5 13.05 10.94 13.5 11.5 13.5ZM5.5 4C5.5 3.44 5.05 3 4.5 3C3.94 3 3.5 3.44 3.5 4L3.5 10.41L2.62 9.71C2.19 9.37 1.56 9.44 1.21 9.87C0.87 10.3 0.94 10.93 1.37 11.28L3.87 13.28C4.24 13.57 4.75 13.57 5.12 13.28L7.62 11.28C8.05 10.93 8.12 10.3 7.78 9.87C7.43 9.44 6.8 9.37 6.37 9.71L5.5 10.41L5.5 4Z" fill="#1F1F22" fill-opacity="1.000000" fill-rule="evenodd"/>
</svg>
