<svg width="20" height="20" viewBox="0 0 20 20" fill="none" xmlns="http://www.w3.org/2000/svg">
<path d="M4.07 9.60996C4.12 9.48996 4.19 9.37996 4.28 9.27996L9.27999 4.28996C9.52999 4.03996 9.89999 3.93996 10.25 4.02996C10.6 4.11996 10.87 4.38996 10.96 4.73996C11.05 5.07996 10.95 5.44996 10.7 5.70996L7.4 8.99996H14.99C15.54 8.99996 15.99 9.43996 15.99 9.98996C15.99 10.55 15.54 10.99 14.99 10.99H7.4L10.7 14.28C10.89 14.47 11 14.72 11 14.99C11 15.26 10.89 15.51 10.7 15.7C10.51 15.89 10.26 16 9.98999 16C9.71999 16 9.46999 15.89 9.27999 15.7L4.28 10.7C4.19 10.61 4.12 10.5 4.07 10.37C3.97 10.13 3.97 9.85996 4.07 9.60996Z" fill="#1F1F22"/>
</svg>
