<svg width="32" height="32" viewBox="0 0 32 32" fill="none" xmlns="http://www.w3.org/2000/svg">
<path fill-rule="evenodd" clip-rule="evenodd" d="M5 16C5 16.81 5.09 17.61 5.27 18.39C5.41 19.03 5.61 19.66 5.87 20.28C6.13 20.9 6.45 21.49 6.81 22.04C7.22 22.66 7.69 23.24 8.23 23.77C8.76 24.31 9.34 24.78 9.96 25.19C10.51 25.55 11.1 25.87 11.72 26.13C12.34 26.39 12.97 26.59 13.61 26.73C14.39 26.91 15.19 27 16 27C16.82 27 17.62 26.91 18.4 26.73C19.04 26.59 19.67 26.39 20.29 26.13C20.91 25.87 21.5 25.55 22.05 25.19C22.67 24.78 23.25 24.31 23.78 23.77C24.32 23.24 24.79 22.66 25.2 22.04C25.56 21.49 25.88 20.9 26.14 20.28C26.4 19.66 26.6 19.03 26.74 18.39C26.92 17.61 27 16.81 27 16C27 15.18 26.92 14.38 26.74 13.6C26.6 12.96 26.4 12.33 26.14 11.71C25.88 11.09 25.56 10.5 25.2 9.95C24.79 9.33 24.32 8.75 23.78 8.22C23.25 7.68 22.67 7.21 22.05 6.8C21.5 6.44 20.91 6.12 20.29 5.86C19.67 5.6 19.04 5.4 18.4 5.26C17.62 5.08 16.82 5 16 5C15.38 5 14.77 5.05 14.17 5.15C13.8 5.21 13.43 5.29 13.07 5.39C12.63 5.51 12.21 5.66 11.8 5.83C11.33 6.02 10.87 6.25 10.43 6.51C10.04 6.74 9.68 6.98 9.33 7.25C8.93 7.56 8.55 7.89 8.19 8.25C8.13 8.31 8.07 8.38 8 8.45V6C8 5.43 7.56 5 7 5C6.44 5 6 5.43 6 6V11C6 11.66 6.34 12 7 12H12C12.56 12 13 11.56 13 11C13 10.43 12.56 10 12 10H9.3C9.4 9.88 9.51 9.77 9.61 9.66C9.91 9.36 10.22 9.08 10.56 8.83C10.84 8.62 11.13 8.42 11.44 8.24C11.81 8.02 12.19 7.83 12.58 7.67C12.91 7.53 13.25 7.42 13.6 7.32C13.88 7.24 14.16 7.18 14.44 7.13C14.95 7.04 15.47 7 16 7C16.69 7 17.35 7.07 18 7.22C18.52 7.33 19.02 7.49 19.51 7.7C20.01 7.91 20.48 8.17 20.93 8.46C21.45 8.8 21.93 9.19 22.37 9.63C22.81 10.07 23.2 10.55 23.54 11.07C23.83 11.52 24.09 11.99 24.3 12.49C24.51 12.98 24.67 13.48 24.78 14C24.93 14.65 25 15.31 25 16C25 16.68 24.93 17.34 24.78 17.99C24.67 18.51 24.51 19.01 24.3 19.5C24.09 20 23.83 20.47 23.54 20.92C23.2 21.44 22.81 21.92 22.37 22.36C21.92 22.8 21.45 23.19 20.93 23.53C20.48 23.82 20.01 24.08 19.51 24.29C19.02 24.5 18.52 24.66 18 24.77C17.35 24.92 16.69 25 16 25C15.32 25 14.66 24.92 14.01 24.77C13.49 24.66 12.99 24.5 12.5 24.29C12 24.08 11.53 23.82 11.08 23.53C10.56 23.19 10.08 22.8 9.64 22.36C9.2 21.92 8.81 21.44 8.47 20.92C8.18 20.47 7.92 20 7.71 19.5C7.5 19.01 7.34 18.51 7.23 17.99C7.08 17.34 7 16.68 7 16C7 15.43 6.56 15 6 15C5.44 15 5 15.43 5 16Z" fill="#1F1F22"/>
</svg>
