<svg width="24" height="24" viewBox="0 0 24 24" fill="none" xmlns="http://www.w3.org/2000/svg">
<path fill-rule="evenodd" clip-rule="evenodd" d="M11.99 10.58L16.28 6.28999C16.68 5.88999 17.3 5.88999 17.69 6.28999C18.09 6.67999 18.09 7.30999 17.69 7.69999L13.4 11.99L17.69 16.28C18.09 16.68 18.09 17.3 17.69 17.69C17.3 18.09 16.68 18.09 16.28 17.69L11.99 13.4L7.69999 17.69C7.30999 18.09 6.67999 18.09 6.28999 17.69C5.88999 17.3 5.88999 16.68 6.28999 16.28L10.58 11.99L6.28999 7.69999C5.88999 7.30999 5.88999 6.67999 6.28999 6.28999C6.67999 5.88999 7.30999 5.88999 7.69999 6.28999L11.99 10.58Z" fill="#1F1F22"/>
</svg>
