<svg width="16" height="16" viewBox="0 0 16 16" fill="none" xmlns="http://www.w3.org/2000/svg">
<path fill-rule="evenodd" clip-rule="evenodd" d="M8 1.5C9.89547 1.5 11.4999 2.98697 11.5 4.90332V5.67383C12.6647 6.08594 13.5 7.19415 13.5 8.5V11.5C13.5 13.1569 12.1569 14.5 10.5 14.5H5.5C3.89489 14.5 2.58421 13.2394 2.50391 11.6543L2.5 11.5V8.5C2.5 7.19415 3.33532 6.08594 4.5 5.67383V4.90332C4.50011 2.98697 6.10453 1.5 8 1.5ZM8 3.5C7.13418 3.5 6.50011 4.16499 6.5 4.90332V5.5H9.5V4.90332C9.49989 4.16499 8.86582 3.5 8 3.5Z" fill="#1F1F22"/>
</svg>
