<svg width="24" height="24" viewBox="0 0 24 24" fill="none" xmlns="http://www.w3.org/2000/svg">
<path d="M8.16797 11.9453C8.47431 11.4858 9.09516 11.3617 9.55469 11.668C10.0142 11.9743 10.1384 12.5952 9.83203 13.0547L7.83203 16.0547C7.52566 16.5142 6.90482 16.6384 6.44531 16.332C5.98584 16.0257 5.86168 15.4048 6.16797 14.9453L8.16797 11.9453Z" fill="#1F1F22"/>
<path d="M12.7998 11.4336C13.3624 10.6835 14.4527 10.6365 15.0811 11.293L15.2002 11.4336L17.7998 14.9004C18.131 15.3422 18.0413 15.9685 17.5996 16.2998C17.1578 16.631 16.5315 16.5414 16.2002 16.0996L14 13.167L11.7998 16.0996C11.4685 16.5414 10.8422 16.631 10.4004 16.2998C9.95862 15.9685 9.86896 15.3422 10.2002 14.9004L12.7998 11.4336Z" fill="#1F1F22"/>
<path d="M7.5 7.5C8.32843 7.5 9 8.17157 9 9C9 9.82843 8.32843 10.5 7.5 10.5C6.67157 10.5 6 9.82843 6 9C6 8.17157 6.67157 7.5 7.5 7.5Z" fill="#1F1F22"/>
<path fill-rule="evenodd" clip-rule="evenodd" d="M18 3.5C20.2091 3.5 22 5.29086 22 7.5V16.5C22 18.7091 20.2091 20.5 18 20.5H6C3.79086 20.5 2 18.7091 2 16.5V7.5C2 5.29086 3.79086 3.5 6 3.5H18ZM6 5.5C4.89543 5.5 4 6.39543 4 7.5V16.5C4 17.6046 4.89543 18.5 6 18.5H18C19.1046 18.5 20 17.6046 20 16.5V7.5C20 6.39543 19.1046 5.5 18 5.5H6Z" fill="#1F1F22"/>
</svg>
