<svg width="20.000000" height="20.000000" viewBox="0 0 20 20" fill="none" xmlns="http://www.w3.org/2000/svg" xmlns:xlink="http://www.w3.org/1999/xlink">
	<desc>
			Created with Pixso.
	</desc>
	<defs/>
	<path id="Union" d="M7 1C7 0.44 7.44 0 8 0L12 0C12.55 0 13 0.44 13 1C13 1.55 12.55 2 12 2L8 2C7.44 2 7 1.55 7 1ZM2 4L18 4C18.56 4 19 4.43 19 5C19 5.56 18.56 6 18 6L17 6L17 17C17 17.4 16.92 17.79 16.76 18.16C16.61 18.52 16.39 18.84 16.12 19.12C15.84 19.39 15.52 19.61 15.16 19.76C14.99 19.83 14.81 19.89 14.63 19.93C14.43 19.97 14.21 20 14 20L6 20C5.78 20 5.56 19.97 5.36 19.93C5.18 19.89 5 19.83 4.83 19.76C4.65 19.69 4.49 19.6 4.34 19.5C4.17 19.39 4.02 19.26 3.87 19.12C3.6 18.84 3.38 18.52 3.23 18.16C3.16 17.99 3.1 17.81 3.06 17.63C3.02 17.43 3 17.21 3 17L3 6L2 6C1.43 6 1 5.56 1 5C1 4.43 1.43 4 2 4ZM5 6L5 17C5 17.08 5 17.16 5.02 17.24C5.04 17.29 5.05 17.34 5.07 17.38C5.12 17.5 5.2 17.61 5.29 17.7C5.38 17.79 5.49 17.87 5.61 17.92C5.73 17.97 5.86 18 6 18L14 18C14.13 18 14.26 17.97 14.38 17.92C14.5 17.87 14.61 17.79 14.7 17.7C14.75 17.65 14.8 17.59 14.84 17.53C14.87 17.49 14.89 17.44 14.92 17.38C14.97 17.26 15 17.13 15 17L15 6L5 6ZM9 14.5L9 9.5C9 8.93 8.56 8.5 8 8.5C7.43 8.5 7 8.93 7 9.5L7 14.5C7 15.06 7.43 15.5 8 15.5C8.56 15.5 9 15.06 9 14.5ZM13 9.5L13 14.5C13 15.06 12.56 15.5 12 15.5C11.43 15.5 11 15.06 11 14.5L11 9.5C11 8.93 11.43 8.5 12 8.5C12.56 8.5 13 8.93 13 9.5Z" fill="#1F1F22" fill-opacity="1.000000" fill-rule="evenodd"/>
</svg>
