<svg width="20" height="20" viewBox="0 0 20 20" fill="none" xmlns="http://www.w3.org/2000/svg">
<path d="M11 15C11.5523 15 12 15.4477 12 16C12 16.5523 11.5523 17 11 17H9C8.44772 17 8 16.5523 8 16C8 15.4477 8.44772 15 9 15H11Z" fill="#1F1F22"/>
<path fill-rule="evenodd" clip-rule="evenodd" d="M14.1543 0.00390625C15.7394 0.0842145 17 1.39489 17 3V17C17 18.6569 15.6569 20 14 20H6C4.34315 20 3 18.6569 3 17V3C3 1.34315 4.34315 3.22128e-08 6 0H14L14.1543 0.00390625ZM6 2C5.44772 2 5 2.44772 5 3V17C5 17.5523 5.44772 18 6 18H14C14.5523 18 15 17.5523 15 17V3C15 2.48232 14.6067 2.05621 14.1025 2.00488L14 2H12C12 2.55228 11.5523 3 11 3H9C8.44772 3 8 2.55228 8 2H6Z" fill="#1F1F22"/>
</svg>
