<svg width="24.000000" height="24.000000" viewBox="0 0 24 24" fill="none" xmlns="http://www.w3.org/2000/svg" xmlns:xlink="http://www.w3.org/1999/xlink">
	<desc>
			Created with Pixso.
	</desc>
	<defs/>
	<path id="Union" d="M9 3C9 2.44 9.44 2 10 2L14 2C14.55 2 15 2.44 15 3C15 3.55 14.55 4 14 4L10 4C9.44 4 9 3.55 9 3ZM4 6L20 6C20.56 6 21 6.43 21 7C21 7.56 20.56 8 20 8L19 8L19 19C19 19.4 18.92 19.79 18.76 20.16C18.61 20.52 18.39 20.84 18.12 21.12C17.84 21.39 17.52 21.61 17.16 21.76C16.99 21.83 16.81 21.89 16.63 21.93C16.43 21.97 16.21 22 16 22L8 22C7.78 22 7.56 21.97 7.36 21.93C7.18 21.89 7 21.83 6.83 21.76C6.65 21.69 6.49 21.6 6.34 21.5C6.17 21.39 6.02 21.26 5.87 21.12C5.6 20.84 5.38 20.52 5.23 20.16C5.16 19.99 5.1 19.81 5.06 19.63C5.02 19.43 5 19.21 5 19L5 8L4 8C3.43 8 3 7.56 3 7C3 6.43 3.43 6 4 6ZM7 8L7 19C7 19.08 7 19.16 7.02 19.24C7.04 19.29 7.05 19.34 7.07 19.38C7.12 19.5 7.2 19.61 7.29 19.7C7.38 19.79 7.49 19.87 7.61 19.92C7.73 19.97 7.86 20 8 20L16 20C16.13 20 16.26 19.97 16.38 19.92C16.5 19.87 16.61 19.79 16.7 19.7C16.75 19.65 16.8 19.59 16.84 19.53C16.87 19.49 16.89 19.44 16.92 19.38C16.97 19.26 17 19.13 17 19L17 8L7 8ZM11 16.5L11 11.5C11 10.93 10.56 10.5 10 10.5C9.43 10.5 9 10.93 9 11.5L9 16.5C9 17.06 9.43 17.5 10 17.5C10.56 17.5 11 17.06 11 16.5ZM15 11.5L15 16.5C15 17.06 14.56 17.5 14 17.5C13.43 17.5 13 17.06 13 16.5L13 11.5C13 10.93 13.43 10.5 14 10.5C14.56 10.5 15 10.93 15 11.5Z" fill="#1F1F22" fill-opacity="1.000000" fill-rule="evenodd"/>
</svg>
