<svg width="24" height="24" viewBox="0 0 24 24" fill="none" xmlns="http://www.w3.org/2000/svg">
<path d="M7.40363 6.14324C8.50583 4.83125 10.1554 4 12.0001 4C13.8448 4 15.4943 4.83125 16.5965 6.14324C16.9518 6.5661 17.5826 6.62092 18.0054 6.26567C18.4283 5.91042 18.4831 5.27963 18.1279 4.85676C16.6619 3.1118 14.4604 2 12.0001 2C9.5398 2 7.33824 3.1118 5.8723 4.85676C5.51705 5.27963 5.57186 5.91042 5.99472 6.26567C6.41759 6.62092 7.04838 6.5661 7.40363 6.14324Z" fill="#1F1F22"/>
<path fill-rule="evenodd" clip-rule="evenodd" d="M2 11.4C2 9.52223 3.52223 8 5.4 8C6.83594 8 8 9.16406 8 10.6V14.4C8 15.8359 6.83594 17 5.4 17C3.52223 17 2 15.4778 2 13.6V11.4ZM5.4 10C4.6268 10 4 10.6268 4 11.4V13.6C4 14.3732 4.6268 15 5.4 15C5.73137 15 6 14.7314 6 14.4V10.6C6 10.2686 5.73137 10 5.4 10Z" fill="#1F1F22"/>
<path fill-rule="evenodd" clip-rule="evenodd" d="M22 11.4C22 9.52223 20.4778 8 18.6 8C17.1641 8 16 9.16406 16 10.6V14.4C16 15.3892 16.5524 16.2493 17.3655 16.6888C16.6694 18.075 15.4525 19.1532 13.9726 19.6682C13.8145 18.7215 12.9915 18 12 18C10.8954 18 10 18.8954 10 20C10 21.1046 10.8954 22 12 22C12.0056 22 12.0112 22 12.0167 21.9999C15.378 21.993 18.2504 19.9135 19.4282 16.9751C19.4394 16.9472 19.4492 16.9191 19.4577 16.8909C20.9203 16.5108 22 15.1815 22 13.6V11.4ZM18.6 10C19.3732 10 20 10.6268 20 11.4V13.6C20 14.3732 19.3732 15 18.6 15C18.2686 15 18 14.7314 18 14.4V10.6C18 10.2686 18.2686 10 18.6 10Z" fill="#1F1F22"/>
</svg>
