<svg width="16.000000" height="16.000000" viewBox="0 0 16 16" fill="none" xmlns="http://www.w3.org/2000/svg" xmlns:xlink="http://www.w3.org/1999/xlink">
	<desc>
			Created with Pixso.
	</desc>
	<defs/>
	<path id="Union" d="M7.5 1.5C4.18 1.5 1.5 4.18 1.5 7.5C1.5 10.81 4.18 13.5 7.5 13.5C8.79 13.5 9.99 13.08 10.97 12.39L12.79 14.2C13.18 14.59 13.81 14.59 14.2 14.2C14.59 13.81 14.59 13.18 14.2 12.79L12.39 10.97C13.08 9.99 13.5 8.79 13.5 7.5C13.5 4.18 10.81 1.5 7.5 1.5ZM3.5 7.5C3.5 5.29 5.29 3.5 7.5 3.5C9.7 3.5 11.5 5.29 11.5 7.5C11.5 9.7 9.7 11.5 7.5 11.5C5.29 11.5 3.5 9.7 3.5 7.5Z" fill="#1F1F22" fill-opacity="1.000000" fill-rule="evenodd"/>
</svg>
