<svg width="16.000000" height="16.000000" viewBox="0 0 16 16" fill="none" xmlns="http://www.w3.org/2000/svg" xmlns:xlink="http://www.w3.org/1999/xlink">
	<desc>
			Created with Pixso.
	</desc>
	<defs/>
	<path id="Union" d="M3.99 3C3.44 3 2.99 3.44 2.99 4L2.99 12C2.99 12.55 3.44 13 3.99 13L11.99 13C12.54 13 12.99 12.55 12.99 12L12.99 11.5C12.99 10.94 13.44 10.5 13.99 10.5C14.54 10.5 14.99 10.94 14.99 11.5L14.99 12C14.99 13.65 13.64 15 11.99 15L3.99 15C2.34 15 1 13.65 1 12L1 4C1 2.34 2.34 1 3.99 1L4.49 1C5.04 1 5.49 1.44 5.49 2C5.49 2.55 5.04 3 4.49 3L3.99 3ZM14.99 7.5L14.99 2.09C15 1.95 14.99 1.81 14.94 1.68C14.89 1.56 14.8 1.39 14.7 1.29C14.58 1.18 14.45 1.1 14.31 1.05C14.18 1 14.04 0.99 13.9 1L8.49 1C7.93 1 7.5 1.44 7.5 2C7.5 2.56 7.93 3 8.49 3L11.58 3L6.79 7.79C6.39 8.19 6.39 8.81 6.79 9.21C7.18 9.6 7.81 9.6 8.2 9.21L12.99 4.41L12.99 7.5C12.99 8.06 13.43 8.5 13.99 8.5C14.55 8.5 14.99 8.06 14.99 7.5Z" fill="#1F1F22" fill-opacity="1.000000" fill-rule="evenodd"/>
</svg>
