<svg width="32" height="32" viewBox="0 0 32 32" fill="none" xmlns="http://www.w3.org/2000/svg">
<path fill-rule="evenodd" clip-rule="evenodd" d="M12.5 6.5V6C12.5 5.85 12.51 5.71 12.54 5.58C12.56 5.45 12.6 5.33 12.65 5.22C12.7 5.1 12.76 4.99 12.83 4.89C12.9 4.78 12.99 4.68 13.08 4.58C13.18 4.49 13.28 4.4 13.39 4.33C13.49 4.26 13.6 4.2 13.72 4.15C13.83 4.1 13.95 4.06 14.08 4.04C14.21 4.01 14.35 4 14.5 4H17.5C17.64 4 17.78 4.01 17.91 4.04C18.04 4.06 18.16 4.1 18.27 4.15C18.39 4.2 18.5 4.26 18.6 4.33C18.71 4.4 18.81 4.49 18.91 4.58C19 4.68 19.09 4.78 19.16 4.89C19.23 4.99 19.29 5.1 19.34 5.22C19.39 5.33 19.43 5.45 19.45 5.58C19.48 5.71 19.5 5.85 19.5 6V6.5C19.5 7.06 19.06 7.5 18.5 7.5C17.93 7.5 17.5 7.06 17.5 6.5V6H14.5V6.5C14.5 7.06 14.06 7.5 13.5 7.5C12.93 7.5 12.5 7.06 12.5 6.5ZM7 9H25C25.56 9 26 9.43 26 10C26 10.56 25.56 11 25 11H24V24C24 24.21 23.97 24.43 23.93 24.63C23.89 24.81 23.83 24.99 23.76 25.16C23.69 25.34 23.6 25.5 23.5 25.65C23.39 25.82 23.26 25.97 23.12 26.12C22.84 26.39 22.52 26.61 22.16 26.76C21.79 26.92 21.4 27 21 27H11C10.78 27 10.56 26.97 10.36 26.93C10.18 26.89 10 26.83 9.83 26.76C9.47 26.61 9.15 26.39 8.87 26.12C8.73 25.97 8.6 25.82 8.49 25.65C8.39 25.5 8.3 25.34 8.23 25.16C8.16 24.99 8.1 24.81 8.06 24.63C8.02 24.43 8 24.21 8 24V11H7C6.43 11 6 10.56 6 10C6 9.43 6.43 9 7 9ZM10 11H22V24C22 24.08 21.99 24.16 21.97 24.24C21.95 24.29 21.94 24.34 21.92 24.38C21.87 24.5 21.79 24.61 21.7 24.7C21.65 24.75 21.59 24.8 21.53 24.84C21.49 24.87 21.44 24.89 21.38 24.92C21.26 24.97 21.13 25 21 25H11C10.91 25 10.83 24.99 10.75 24.97C10.7 24.95 10.65 24.94 10.61 24.92C10.49 24.87 10.38 24.79 10.29 24.7C10.2 24.61 10.12 24.5 10.07 24.38C10.02 24.26 10 24.13 10 24V11ZM15 15V21C15 21.56 14.56 22 14 22C13.43 22 13 21.56 13 21V15C13 14.43 13.43 14 14 14C14.56 14 15 14.43 15 15ZM19 21V15C19 14.43 18.56 14 18 14C17.43 14 17 14.43 17 15V21C17 21.56 17.43 22 18 22C18.56 22 19 21.56 19 21Z" fill="#1F1F22"/>
</svg>
