<svg width="32" height="32" viewBox="0 0 32 32" fill="none" xmlns="http://www.w3.org/2000/svg">
<path d="M16.5 5.00021C17.0523 5.00021 17.5 5.44793 17.5 6.00021C17.4999 6.55239 17.0522 7.00021 16.5 7.00021H7C5.89543 7.00021 5 7.89564 5 9.00021V23.0002C5.00012 24.1047 5.89551 25.0002 7 25.0002H25C26.1045 25.0002 26.9999 24.1047 27 23.0002V13.0002C27 12.4479 27.4477 12.0002 28 12.0002C28.5523 12.0002 29 12.4479 29 13.0002V23.0002C28.9999 25.2092 27.2091 27.0002 25 27.0002H7C4.79094 27.0002 3.00012 25.2092 3 23.0002V9.00021C3 6.79107 4.79086 5.00021 7 5.00021H16.5Z" fill="#1F1F22"/>
<path d="M11.7109 14.886C12.0501 14.4503 12.6784 14.3722 13.1143 14.7111C13.5499 15.0503 13.628 15.6787 13.2891 16.1145L9.78906 20.6145C9.44991 21.0499 8.82151 21.1282 8.38574 20.7893C7.95016 20.4502 7.87214 19.8218 8.21094 19.386L11.7109 14.886Z" fill="#1F1F22"/>
<path d="M16.9297 13.2688C17.5143 12.6707 18.4857 12.6707 19.0703 13.2688L19.1885 13.4055L23.793 19.3908C24.1292 19.8286 24.0469 20.4566 23.6094 20.7932C23.1717 21.1294 22.5437 21.047 22.207 20.6096L18 15.1399L13.793 20.6096C13.4563 21.047 12.8283 21.1294 12.3906 20.7932C11.953 20.4566 11.8708 19.8286 12.207 19.3908L16.8115 13.4055L16.9297 13.2688Z" fill="#1F1F22"/>
<path d="M9.5 10.0002C10.3284 10.0002 11 10.6718 11 11.5002C10.9999 12.3285 10.3284 13.0002 9.5 13.0002C8.67165 13.0002 8.00012 12.3285 8 11.5002C8 10.6718 8.67157 10.0002 9.5 10.0002Z" fill="#1F1F22"/>
<path fill-rule="evenodd" clip-rule="evenodd" d="M25.8135 1.69552C26.5944 0.914691 27.8605 0.914921 28.6416 1.69552L29.7275 2.78146C30.5085 3.56249 30.5085 4.82856 29.7275 5.60959L24.4346 10.9026C24.2872 11.0499 24.0972 11.1476 23.8916 11.1819L21.582 11.5666C20.5672 11.7353 19.6875 10.8559 19.8564 9.84103L20.2412 7.53146L20.2783 7.38009C20.3271 7.23322 20.4101 7.09894 20.5205 6.98849L25.8135 1.69552ZM22.1611 8.17502L21.9434 9.47873L23.2471 9.26095L28.3135 4.19552L27.2275 3.10959L22.1611 8.17502Z" fill="#1F1F22"/>
</svg>
