<svg width="24.000000" height="24.000000" viewBox="0 0 24 24" fill="none" xmlns="http://www.w3.org/2000/svg" xmlns:xlink="http://www.w3.org/1999/xlink">
	<desc>
			Created with Pixso.
	</desc>
	<defs/>
	<path id="Union" d="M7.99 17C8.54 17 8.99 16.55 8.99 16L8.99 8.58L9.87 9.28C10.3 9.62 10.93 9.55 11.27 9.12C11.62 8.69 11.55 8.06 11.11 7.71L8.61 5.71C8.25 5.42 7.73 5.42 7.37 5.71L4.87 7.71C4.43 8.06 4.36 8.69 4.71 9.12C5.05 9.55 5.68 9.62 6.11 9.28L6.99 8.58L6.99 16C6.99 16.55 7.44 17 7.99 17ZM15.99 7C16.54 7 16.99 7.44 16.99 8L16.99 15.41L17.87 14.71C18.3 14.37 18.93 14.44 19.27 14.87C19.62 15.3 19.55 15.93 19.11 16.28L16.61 18.28C16.25 18.57 15.73 18.57 15.37 18.28L12.87 16.28C12.43 15.93 12.36 15.3 12.71 14.87C13.05 14.44 13.68 14.37 14.11 14.71L14.99 15.41L14.99 8C14.99 7.44 15.44 7 15.99 7Z" fill="#1F1F22" fill-opacity="1.000000" fill-rule="evenodd"/>
</svg>
