<svg width="20" height="20" viewBox="0 0 20 20" fill="none" xmlns="http://www.w3.org/2000/svg">
<path fill-rule="evenodd" clip-rule="evenodd" d="M6.99223 14.9C6.9122 16.32 7.31234 17.32 7.96256 17.91C8.61279 18.5 9.45307 18.62 10.1233 18.38C10.7435 18.15 11.1036 17.75 11.2937 17.28C11.4838 16.83 11.4938 16.36 11.4938 16C11.4938 14.36 12.5041 13.02 13.3444 12.19L13.4945 12.05V1.50002H6.04191C4.60141 1.49002 3.30097 2.38002 2.78079 3.72002L0.670063 9.08002C0.0298433 10.72 1.24026 12.5 3.00086 12.5H7.32234C7.31234 12.54 7.30234 12.59 7.29233 12.63C7.17229 13.15 7.04225 13.91 6.99223 14.9ZM19.4965 10C19.4965 10.83 18.8263 11.5 17.996 11.5H15.4951V1.50002H17.996C18.8263 1.50002 19.4965 2.17002 19.4965 3.00002V10Z" fill="#1F1F22"/>
</svg>
