<svg width="24" height="24" viewBox="0 0 24 24" fill="none" xmlns="http://www.w3.org/2000/svg">
<path fill-rule="evenodd" clip-rule="evenodd" d="M12 8C9.79086 8 8 9.79086 8 12C8 14.2091 9.79086 16 12 16C14.2091 16 16 14.2091 16 12C16 9.79086 14.2091 8 12 8ZM10 12C10 10.8954 10.8954 10 12 10C13.1046 10 14 10.8954 14 12C14 13.1046 13.1046 14 12 14C10.8954 14 10 13.1046 10 12Z" fill="#1F1F22"/>
<path fill-rule="evenodd" clip-rule="evenodd" d="M12 5C8.10707 5 4.74944 7.29629 3.29536 10.5977C2.90155 11.4919 2.90155 12.5081 3.29536 13.4023C4.74944 16.7037 8.10707 19 12 19C15.8929 19 19.2506 16.7037 20.7046 13.4023C21.0985 12.5081 21.0985 11.4919 20.7046 10.5977C19.2506 7.2963 15.8929 5 12 5ZM5.1257 11.4039C6.26214 8.8236 8.90466 7 12 7C15.0953 7 17.7379 8.82361 18.8743 11.4039C19.0419 11.7844 19.0419 12.2156 18.8743 12.5961C17.7379 15.1764 15.0953 17 12 17C8.90466 17 6.26214 15.1764 5.1257 12.5961C4.9581 12.2156 4.9581 11.7844 5.1257 11.4039Z" fill="#1F1F22"/>
</svg>
