<svg width="20" height="20" viewBox="0 0 20 20" fill="none" xmlns="http://www.w3.org/2000/svg">
<path fill-rule="evenodd" clip-rule="evenodd" d="M2.70711 1.29289C2.31658 0.902369 1.68342 0.902369 1.29289 1.29289C0.902369 1.68342 0.902369 2.31658 1.29289 2.70711L3.82308 5.23729C2.74072 6.14725 1.86972 7.29366 1.29536 8.59772C0.901545 9.49187 0.901545 10.5081 1.29536 11.4023C2.74944 14.7037 6.10707 17 10 17C11.6201 17 13.1483 16.602 14.485 15.8992L17.2929 18.7071C17.6834 19.0976 18.3166 19.0976 18.7071 18.7071C19.0976 18.3166 19.0976 17.6834 18.7071 17.2929L2.70711 1.29289ZM12.9845 14.3987L12.032 13.4462C11.4364 13.7979 10.7413 14.0002 10 14.0002C7.79086 14.0002 6 12.2094 6 10.0002C6 9.25879 6.20232 8.56374 6.55405 7.96826L5.24399 6.65821C4.32779 7.39285 3.59702 8.33374 3.1257 9.40386C2.9581 9.78439 2.9581 10.2156 3.1257 10.5961C4.26214 13.1764 6.90466 15 10 15C11.0628 15 12.0716 14.7852 12.9845 14.3987ZM8.06763 9.48184C8.02348 9.64708 8 9.82081 8 10.0002C8 11.1048 8.89543 12.0002 10 12.0002C10.1795 12.0002 10.3532 11.9767 10.5184 11.9326L8.06763 9.48184Z" fill="#1F1F22"/>
<path d="M10 5C9.69975 5 9.40404 5.01714 9.11377 5.05038C8.56507 5.11321 8.06933 4.71934 8.00649 4.17064C7.94366 3.62194 8.33753 3.1262 8.88623 3.06336C9.2519 3.02149 9.62358 3 10 3C13.8929 3 17.2506 5.2963 18.7046 8.59772C19.0985 9.49187 19.0985 10.5081 18.7046 11.4023C18.5332 11.7916 18.3352 12.1669 18.1132 12.526C17.8227 12.9957 17.2064 13.141 16.7367 12.8505C16.267 12.56 16.1217 11.9438 16.4122 11.474C16.586 11.193 16.7406 10.8998 16.8743 10.5961C17.0419 10.2156 17.0419 9.78439 16.8743 9.40387C15.7379 6.82361 13.0953 5 10 5Z" fill="#1F1F22"/>
<path d="M10.0572 6.83768C10.2412 6.31696 10.8125 6.04404 11.3332 6.22809C12.4705 6.63005 13.3702 7.52971 13.7721 8.66698C13.9562 9.18769 13.6833 9.75901 13.1625 9.94306C12.6418 10.1271 12.0705 9.85418 11.8865 9.33347C11.6859 8.7659 11.2343 8.31437 10.6668 8.11377C10.146 7.92972 9.87311 7.3584 10.0572 6.83768Z" fill="#1F1F22"/>
</svg>
