<svg width="16" height="16" viewBox="0 0 16 16" fill="none" xmlns="http://www.w3.org/2000/svg">
<path d="M10.8999 1.10156V9.68457L10.7505 9.83105C10.0839 10.4858 9.30033 11.534 9.30033 12.8018C9.30032 13.0932 9.28808 13.4901 9.13627 13.8623C8.9721 14.2643 8.65853 14.607 8.1353 14.7998C7.56981 15.0081 6.85493 14.9006 6.31108 14.4102C5.75943 13.9125 5.43786 13.0771 5.50053 11.918C5.54312 11.1316 5.64697 10.5219 5.74174 10.1016H2.99272C1.23103 10.1015 0.0219641 8.32736 0.665569 6.6875L1.98686 3.32129C2.51301 1.98151 3.80625 1.10038 5.24565 1.10059L10.8999 1.10156Z" fill="#1F1F22"/>
<path d="M14.0005 1.10156C14.8287 1.1018 15.5004 1.77337 15.5005 2.60156V7.80176C15.5004 8.62995 14.8287 9.30152 14.0005 9.30176H12.5005V1.10156H14.0005Z" fill="#1F1F22"/>
</svg>
