<svg width="24" height="24" viewBox="0 0 24 24" fill="none" xmlns="http://www.w3.org/2000/svg">
<path fill-rule="evenodd" clip-rule="evenodd" d="M15.49 7.11999C15.58 5.58999 15.15 4.41999 14.36 3.69999C13.57 2.99999 12.54 2.83999 11.7 3.13999C10.94 3.41999 10.47 3.92999 10.23 4.52999C10.01 5.05999 10 5.62999 10 5.98999C10 7.15999 9.41 8.17999 8.74 8.96999C8.41 9.34999 8.07 9.65999 7.82 9.86999C7.77 9.90999 7.71 9.95999 7.67 9.98999H4C2.89 9.98999 2 10.89 2 11.99V18.99C2 20.1 2.89 20.99 4 20.99H7.97C7.98 20.99 7.99 20.99 7.99 20.99H15.95C17.59 21 19.07 19.99 19.67 18.46L21.78 13.09C22.55 11.12 21.1 8.98999 18.99 8.98999H15.28C15.37 8.49999 15.45 7.86999 15.49 7.11999ZM7 18.99V11.99H4V18.99H7ZM9 18.99V11.49C9.03 11.46 9.07 11.43 9.1 11.4C9.42 11.14 9.83 10.76 10.25 10.27C11.08 9.30999 12 7.82999 12 5.98999C12 5.63999 12.02 5.42999 12.08 5.27999C12.1 5.21999 12.13 5.17999 12.17 5.14999C12.2 5.11999 12.26 5.06999 12.39 5.01999C12.52 4.96999 12.78 4.97999 13.02 5.18999C13.24 5.38999 13.56 5.88999 13.5 7.00999C13.45 7.90999 13.33 8.57999 13.23 9.01999C13.18 9.23999 13.13 9.40999 13.1 9.50999C13.09 9.55999 13.08 9.59999 13.07 9.61999L13.06 9.62999C12.94 9.93999 12.98 10.29 13.17 10.56C13.36 10.83 13.66 10.99 14 10.99H18.99C19.69 10.99 20.18 11.7 19.92 12.36L17.81 17.73C17.51 18.49 16.77 18.99 15.95 18.99H9Z" fill="#1F1F22"/>
</svg>
