<svg width="20" height="20" viewBox="0 0 20 20" fill="none" xmlns="http://www.w3.org/2000/svg">
<path fill-rule="evenodd" clip-rule="evenodd" d="M9.29 14.71L4.29 9.71C4.1 9.52 4 9.26 4 9C4 8.73 4.1 8.47 4.29 8.28C4.48 8.1 4.73 7.99 5 7.99C5.27 7.99 5.52 8.1 5.71 8.28L9 11.59V1C9 0.44 9.44 0 10 0C10.55 0 11 0.44 11 1V11.59L14.28 8.28C14.54 8.03 14.91 7.93 15.25 8.03C15.6 8.12 15.87 8.39 15.96 8.74C16.05 9.08 15.95 9.45 15.7 9.71L10.71 14.71C10.61 14.8 10.5 14.87 10.38 14.92C10.13 15.02 9.86 15.02 9.62 14.92C9.49 14.87 9.38 14.8 9.29 14.71ZM3 14C3 13.44 2.55 13 2 13C1.44 13 1 13.44 1 14V17C1 18.65 2.34 20 4 20H16C17.65 20 19 18.65 19 17V14C19 13.44 18.55 13 18 13C17.44 13 17 13.44 17 14V17C17 17.55 16.55 18 16 18H4C3.44 18 3 17.55 3 17V14Z" fill="#1F1F22"/>
</svg>
