<svg width="16.000000" height="16.000000" viewBox="0 0 16 16" fill="none" xmlns="http://www.w3.org/2000/svg" xmlns:xlink="http://www.w3.org/1999/xlink">
	<desc>
			Created with Pixso.
	</desc>
	<defs/>
	<path id="Union" d="M6.5 2.49C6.5 1.67 7.17 0.99 8 0.99C8.82 0.99 9.5 1.67 9.5 2.49C9.5 3.32 8.82 3.99 8 3.99C7.17 3.99 6.5 3.32 6.5 2.49ZM6.5 7.99C6.5 7.17 7.17 6.49 8 6.49C8.82 6.49 9.5 7.17 9.5 7.99C9.5 8.82 8.82 9.49 8 9.49C7.17 9.49 6.5 8.82 6.5 7.99ZM8 11.99C7.17 11.99 6.5 12.67 6.5 13.49C6.5 14.32 7.17 14.99 8 14.99C8.82 14.99 9.5 14.32 9.5 13.49C9.5 12.67 8.82 11.99 8 11.99Z" fill="#1F1F22" fill-opacity="1.000000" fill-rule="evenodd"/>
</svg>
