<svg width="20" height="20" viewBox="0 0 20 20" fill="none" xmlns="http://www.w3.org/2000/svg">
<path d="M4.28999 9.27999L9.27999 4.28C9.37999 4.19 9.48999 4.12 9.60999 4.07C9.85999 3.97 10.13 3.97 10.37 4.07C10.5 4.12 10.61 4.19 10.7 4.28L15.7 9.27999C15.95 9.53999 16.05 9.90999 15.96 10.25C15.87 10.6 15.6 10.87 15.25 10.96C14.9 11.06 14.53 10.96 14.28 10.7L10.99 7.4V14.99C10.99 15.55 10.55 15.99 9.98999 15.99C9.43999 15.99 8.98999 15.55 8.98999 14.99V7.4L5.70999 10.7C5.51999 10.89 5.25999 11 4.99999 11C4.72999 11 4.47999 10.89 4.28999 10.7C4.09999 10.52 3.98999 10.26 3.98999 9.98999C3.98999 9.72999 4.09999 9.46999 4.28999 9.27999Z" fill="#1F1F22"/>
</svg>
