<svg width="32" height="32" viewBox="0 0 32 32" fill="none" xmlns="http://www.w3.org/2000/svg">
<path d="M7 8C7.55228 8 8 8.44772 8 9V21C8 23.7614 10.2386 26 13 26H21C21.5523 26 22 26.4477 22 27C22 27.5523 21.5523 28 21 28H13C9.13401 28 6 24.866 6 21V9C6 8.44772 6.44772 8 7 8Z" fill="#1F1F22"/>
<path fill-rule="evenodd" clip-rule="evenodd" d="M23 4C24.6569 4 26 5.34315 26 7V21C26 22.6569 24.6569 24 23 24H13C11.3431 24 10 22.6569 10 21V7C10 5.34315 11.3431 4 13 4H23ZM13 6C12.4477 6 12 6.44772 12 7V21C12 21.5523 12.4477 22 13 22H23C23.5523 22 24 21.5523 24 21V7C24 6.44772 23.5523 6 23 6H13Z" fill="#1F1F22"/>
</svg>
