<svg width="24" height="24" viewBox="0 0 24 24" fill="none" xmlns="http://www.w3.org/2000/svg">
<path d="M10.5 3.5C11.0523 3.5 11.5 3.94771 11.5 4.5C11.4998 5.05214 11.0522 5.5 10.5 5.5H6C4.89543 5.5 4 6.39543 4 7.5V16.5C4.00017 17.6044 4.89553 18.5 6 18.5H18C19.1045 18.5 19.9998 17.6044 20 16.5V10.5C20 9.94771 20.4477 9.5 21 9.5C21.5523 9.5 22 9.94771 22 10.5V16.5C21.9998 18.709 20.209 20.5 18 20.5H6C3.79097 20.5 2.00017 18.709 2 16.5V7.5C2 5.29086 3.79086 3.5 6 3.5H10.5Z" fill="#1F1F22"/>
<path d="M8.16797 11.9453C8.47432 11.4858 9.09516 11.3616 9.55469 11.668C10.0141 11.9743 10.1384 12.5952 9.83203 13.0547L7.83203 16.0547C7.52564 16.514 6.90474 16.6382 6.44531 16.332C5.98588 16.0257 5.86185 15.4048 6.16797 14.9453L8.16797 11.9453Z" fill="#1F1F22"/>
<path d="M12.7998 11.4336C13.3624 10.6835 14.4527 10.6364 15.0811 11.293L15.2002 11.4336L17.7998 14.9004C18.1309 15.3422 18.0413 15.9685 17.5996 16.2998C17.1579 16.6309 16.5315 16.5412 16.2002 16.0996L14 13.167L11.7998 16.0996C11.4685 16.5412 10.8422 16.6309 10.4004 16.2998C9.95866 15.9685 9.86909 15.3422 10.2002 14.9004L12.7998 11.4336Z" fill="#1F1F22"/>
<path d="M7.5 7.5C8.32843 7.5 9 8.17157 9 9C8.99983 9.82828 8.32832 10.5 7.5 10.5C6.67168 10.5 6.00017 9.82828 6 9C6 8.17157 6.67157 7.5 7.5 7.5Z" fill="#1F1F22"/>
<path fill-rule="evenodd" clip-rule="evenodd" d="M17.4932 1.5C18.2742 0.719064 19.5403 0.719057 20.3213 1.5L21.4072 2.58594C22.1879 3.36699 22.1881 4.63313 21.4072 5.41406L17.6143 9.20703C17.4669 9.35434 17.2768 9.45202 17.0713 9.48633L14.7617 9.87109C13.7468 10.04 12.8674 9.16039 13.0361 8.14551L13.4209 5.83594L13.458 5.68457C13.5068 5.53762 13.5897 5.40346 13.7002 5.29297L17.4932 1.5ZM15.3408 6.47949L15.123 7.7832L16.4268 7.56543L19.9932 4L18.9072 2.91406L15.3408 6.47949Z" fill="#1F1F22"/>
</svg>
