<svg width="32" height="32" viewBox="0 0 32 32" fill="none" xmlns="http://www.w3.org/2000/svg">
<path fill-rule="evenodd" clip-rule="evenodd" d="M27 16C27 16.81 26.91 17.61 26.73 18.39C26.59 19.03 26.39 19.66 26.13 20.28C25.87 20.9 25.55 21.49 25.19 22.04C24.78 22.66 24.31 23.24 23.77 23.77C23.24 24.31 22.66 24.78 22.04 25.19C21.49 25.55 20.9 25.87 20.28 26.13C19.66 26.39 19.03 26.59 18.39 26.73C17.61 26.91 16.81 27 16 27C15.18 27 14.38 26.91 13.6 26.73C12.96 26.59 12.33 26.39 11.71 26.13C11.09 25.87 10.5 25.55 9.95 25.19C9.33 24.78 8.75 24.31 8.22 23.77C7.68 23.24 7.21 22.66 6.8 22.04C6.44 21.49 6.12 20.9 5.86 20.28C5.6 19.66 5.4 19.03 5.26 18.39C5.08 17.61 5 16.81 5 16C5 15.18 5.08 14.38 5.26 13.6C5.4 12.96 5.6 12.33 5.86 11.71C6.12 11.09 6.44 10.5 6.8 9.95C7.21 9.33 7.68 8.75 8.22 8.22C8.75 7.68 9.33 7.21 9.95 6.8C10.5 6.44 11.09 6.12 11.71 5.86C12.33 5.6 12.96 5.4 13.6 5.26C14.38 5.08 15.18 5 16 5C16.62 5 17.23 5.05 17.83 5.15C18.2 5.21 18.57 5.29 18.93 5.39C19.37 5.51 19.79 5.66 20.2 5.83C20.67 6.02 21.13 6.25 21.57 6.51C21.96 6.74 22.32 6.98 22.67 7.25C23.07 7.56 23.45 7.89 23.81 8.25C23.87 8.31 23.93 8.38 24 8.45V6C24 5.43 24.44 5 25 5C25.56 5 26 5.43 26 6V11C26 11.66 25.66 12 25 12H20C19.44 12 19 11.56 19 11C19 10.43 19.44 10 20 10H22.7C22.6 9.88 22.49 9.77 22.39 9.66C22.09 9.36 21.78 9.08 21.44 8.83C21.16 8.62 20.87 8.42 20.56 8.24C20.19 8.02 19.81 7.83 19.42 7.67C19.09 7.53 18.75 7.42 18.4 7.32C18.12 7.24 17.84 7.18 17.56 7.13C17.05 7.04 16.53 7 16 7C15.31 7 14.65 7.07 14 7.22C13.48 7.33 12.98 7.49 12.49 7.7C11.99 7.91 11.52 8.17 11.07 8.46C10.55 8.8 10.07 9.19 9.63 9.63C9.19 10.07 8.8 10.55 8.46 11.07C8.17 11.52 7.91 11.99 7.7 12.49C7.49 12.98 7.33 13.48 7.22 14C7.07 14.65 7 15.31 7 16C7 16.68 7.07 17.34 7.22 17.99C7.33 18.51 7.49 19.01 7.7 19.5C7.91 20 8.17 20.47 8.46 20.92C8.8 21.44 9.19 21.92 9.63 22.36C10.08 22.8 10.55 23.19 11.07 23.53C11.52 23.82 11.99 24.08 12.49 24.29C12.98 24.5 13.48 24.66 14 24.77C14.65 24.92 15.31 25 16 25C16.68 25 17.34 24.92 17.99 24.77C18.51 24.66 19.01 24.5 19.5 24.29C20 24.08 20.47 23.82 20.92 23.53C21.44 23.19 21.92 22.8 22.36 22.36C22.8 21.92 23.19 21.44 23.53 20.92C23.82 20.47 24.08 20 24.29 19.5C24.5 19.01 24.66 18.51 24.77 17.99C24.92 17.34 25 16.68 25 16C25 15.43 25.44 15 26 15C26.56 15 27 15.43 27 16Z" fill="#1F1F22"/>
</svg>
