<svg width="16" height="16" viewBox="0 0 16 16" fill="none" xmlns="http://www.w3.org/2000/svg">
<path d="M7.86422 1.20099C8.42978 0.992609 9.1445 1.1 9.68843 1.59063C10.2401 2.08836 10.5617 2.92351 10.499 4.08281C10.4564 4.86913 10.3525 5.47894 10.2578 5.8992H13.0068C14.7686 5.8992 15.9778 7.67326 15.3339 9.31324L14.0126 12.6794C13.4863 14.0189 12.1931 14.9004 10.7539 14.9001L5.09959 14.8991V6.31619L5.249 6.16971C5.91557 5.51509 6.699 4.46673 6.69919 3.19902C6.69919 2.90766 6.71158 2.51066 6.86325 2.13848C7.02734 1.73649 7.34112 1.39392 7.86422 1.20099ZM3.49999 14.8982H1.99999C1.17163 14.8982 0.500106 14.2265 0.5 13.3982V8.19802C0.500186 7.36975 1.17168 6.69802 1.99999 6.69802H3.49999V14.8982Z" fill="#1F1F22"/>
</svg>
