<svg width="32.000000" height="32.000000" viewBox="0 0 32 32" fill="none" xmlns="http://www.w3.org/2000/svg" xmlns:xlink="http://www.w3.org/1999/xlink">
	<desc>
			Created with Pixso.
	</desc>
	<defs/>
	<path id="Union" d="M22.7 14.99L17.76 9.68C17.38 9.27 17.4 8.64 17.81 8.26C18.23 7.88 18.85 7.9 19.23 8.31L25.73 15.31C25.91 15.51 26 15.73 26 15.99C26 16.13 25.97 16.25 25.93 16.36C25.88 16.47 25.82 16.58 25.73 16.68L19.23 23.68C18.85 24.09 18.23 24.11 17.81 23.73C17.4 23.35 17.38 22.72 17.76 22.31L22.7 16.99L8 16.99C7.43 16.99 7 16.55 7 15.99C7 15.43 7.43 14.99 8 14.99L22.7 14.99Z" fill="#1F1F22" fill-opacity="1.000000" fill-rule="evenodd"/>
</svg>
