<svg width="20" height="20" viewBox="0 0 20 20" fill="none" xmlns="http://www.w3.org/2000/svg">
<path d="M13.7735 1.06512C15.6559 0.772959 17.6166 1.44855 18.8695 3.27055C21.0146 6.39004 19.8034 9.85352 17.822 12.5665C15.8185 15.3096 12.7964 17.6528 10.4688 18.8839C10.1772 19.0381 9.82912 19.0381 9.5375 18.8839C7.20998 17.6528 4.18786 15.3096 2.18436 12.5665C0.202977 9.85352 -1.00821 6.39004 1.13684 3.27055C2.38974 1.44855 4.35048 0.772959 6.23288 1.06512C7.63555 1.28289 8.984 2.032 10.0032 3.20491C11.0223 2.032 12.3708 1.28289 13.7735 1.06512ZM17.2235 4.41099C16.4408 3.27264 15.266 2.86391 14.079 3.04815C12.8672 3.23629 11.6263 4.05466 10.8818 5.43288C10.7069 5.7562 10.3698 5.95802 10.0032 5.95802C9.63659 5.95802 9.2994 5.7562 9.12455 5.43288C8.38005 4.05466 7.13918 3.23629 5.92731 3.04815C4.74033 2.86391 3.56556 3.27264 2.7828 4.41099C1.38291 6.4471 1.97773 8.89005 3.79615 11.38C5.46259 13.6617 7.96982 15.6811 10.0032 16.85C12.0365 15.6811 14.5438 13.6617 16.2102 11.38C18.0286 8.89005 18.6234 6.4471 17.2235 4.41099Z" fill="#1F1F22"/>
</svg>
