<svg width="32" height="32" viewBox="0 0 32 32" fill="none" xmlns="http://www.w3.org/2000/svg">
<path fill-rule="evenodd" clip-rule="evenodd" d="M12.75 9.79001C13.82 8.10001 15.66 7.01001 17.74 7.01001C21.01 7.01001 23.72 9.75001 23.72 13.19C23.71 13.48 23.84 13.79 24.05 13.98C24.27 14.17 24.56 14.26 24.84 14.22C25.03 14.2 25.22 14.19 25.41 14.19C27.92 14.19 30 16.28 30 18.93C30 21.58 27.92 23.68 25.41 23.68H22.62C22.07 23.68 21.62 24.12 21.62 24.68C21.62 25.23 22.07 25.68 22.62 25.68H25.41C29.08 25.68 32 22.63 32 18.93C32 15.32 29.2 12.32 25.66 12.19C25.18 8.16001 21.84 5.01001 17.74 5.01001C15.22 5.01001 12.98 6.21001 11.52 8.07001C11.05 7.94001 10.57 7.88001 10.06 7.88001C6.8 7.88001 4.2 10.59 4.18 13.88C1.74 14.63 0 16.94 0 19.65C0 22.95 2.6 25.68 5.88 25.68H9.37C9.92 25.68 10.37 25.23 10.37 24.68C10.37 24.12 9.92 23.68 9.37 23.68H5.88C3.76 23.68 2 21.9 2 19.65C2 17.58 3.49 15.91 5.37 15.66C5.64 15.62 5.88 15.48 6.04 15.27C6.2 15.05 6.27 14.78 6.23 14.52C6.2 14.32 6.18 14.12 6.18 13.91C6.18 11.66 7.95 9.88001 10.06 9.88001C10.58 9.88001 11.07 9.98001 11.52 10.17C11.97 10.36 12.49 10.2 12.75 9.79001ZM16.7 14.29C16.31 13.9 15.68 13.9 15.29 14.29L11.79 17.79C11.4 18.18 11.4 18.81 11.79 19.2C12.18 19.59 12.81 19.59 13.2 19.2L15 17.41V24.5C15 25.05 15.44 25.5 16 25.5C16.55 25.5 17 25.05 17 24.5V17.41L18.79 19.2C19.18 19.59 19.81 19.59 20.2 19.2C20.59 18.81 20.59 18.18 20.2 17.79L16.7 14.29Z" fill="#1F1F22"/>
</svg>
