<svg width="32" height="32" viewBox="0 0 32 32" fill="none" xmlns="http://www.w3.org/2000/svg">
<path fill-rule="evenodd" clip-rule="evenodd" d="M25.293 26.7066L19.6151 21.0288C15.8892 24.0132 10.4819 23.566 7.29619 20.0084C4.10845 16.4486 4.25701 11.0161 7.63451 7.63598C11.012 4.25597 16.4404 4.10729 19.9975 7.29741C23.5483 10.4819 23.9982 15.8844 21.0275 19.6127L26.7072 25.2924C27.1031 25.6884 27.1031 26.3107 26.7072 26.7066C26.3112 27.1026 25.6889 27.1026 25.293 26.7066ZM14.0156 21.0231C10.1519 21.0231 7.0197 17.8885 7.0197 14.0219C7.0197 10.1553 10.1519 7.02074 14.0156 7.02074C17.8793 7.02074 21.0114 10.1553 21.0114 14.0219C21.0114 15.8787 20.2744 17.6595 18.9623 18.9725C17.6504 20.2855 15.871 21.0231 14.0156 21.0231Z" fill="#1F1F22"/>
</svg>
