<svg width="32" height="32" viewBox="0 0 32 32" fill="none" xmlns="http://www.w3.org/2000/svg">
<path fill-rule="evenodd" clip-rule="evenodd" d="M23.09 6.84999C17.86 3.95999 12.49 4.86999 8.83003 6.68999C8.33003 6.93999 7.73003 6.72999 7.49003 6.23999C7.24003 5.73999 7.44003 5.13999 7.94003 4.89999C12.01 2.87999 18.1 1.80999 24.05 5.09999C24.54 5.35999 24.71 5.96999 24.44 6.45999C24.18 6.93999 23.57 7.10999 23.09 6.84999ZM9.05003 9.93999C7.52003 10.84 6.41003 11.9 5.87003 12.88C5.60003 13.36 4.99003 13.54 4.51003 13.27C4.03003 13 3.85003 12.39 4.12003 11.91C4.90003 10.52 6.31003 9.21999 8.04003 8.20999C9.79003 7.19999 11.91 6.42999 14.19 6.11999C18.77 5.50999 23.99 6.77999 27.79 11.79C28.13 12.23 28.04 12.86 27.6 13.19C27.16 13.53 26.53 13.44 26.2 13C22.9 8.65999 18.44 7.56999 14.46 8.09999C12.45 8.36999 10.57 9.04999 9.05003 9.93999ZM13.66 11.23C15.09 10.91 17.85 10.75 20.51 12.18C23.14 13.6 24.44 16.24 24.72 17.73C24.87 18.54 24.91 19.4 24.7 20.07C24.52 20.65 24.14 21.13 23.21 21.33C22.22 21.54 21.55 21.26 21.09 20.88C20.58 20.45 20.3 19.87 20.23 19.52C20.2 19.41 20.18 19.28 20.15 19.13V19.1C20.12 18.96 20.09 18.8 20.06 18.64C19.99 18.3 19.89 17.89 19.7 17.48C19.29 16.61 18.54 15.87 17.22 15.49C14.54 14.71 11.58 16.64 11.58 19.74C11.58 22.53 13.35 26.99 19.43 28.95C19.96 29.12 20.52 28.83 20.69 28.3C20.86 27.78 20.57 27.21 20.04 27.04C14.84 25.37 13.58 21.72 13.58 19.74C13.58 18.06 15.18 16.98 16.67 17.41C17.44 17.63 17.72 17.99 17.89 18.33C17.98 18.53 18.05 18.77 18.1 19.05C18.13 19.18 18.15 19.31 18.18 19.45V19.48C18.21 19.63 18.24 19.79 18.27 19.95C18.44 20.7 18.94 21.68 19.8 22.41C20.71 23.17 22 23.63 23.62 23.29C25.3 22.93 26.22 21.9 26.61 20.67C26.97 19.53 26.86 18.28 26.68 17.36C26.32 15.4 24.71 12.18 21.45 10.42C18.24 8.68999 14.94 8.88999 13.2 9.27999C13.19 9.27999 13.18 9.28999 13.18 9.28999C10.98 9.84999 7.29003 11.5 5.58003 15.65C4.70003 17.78 4.81003 20.07 5.10003 21.77C5.25003 22.63 5.45003 23.36 5.61003 23.88C5.70003 24.14 5.77003 24.35 5.82003 24.49C5.85003 24.56 5.87003 24.62 5.89003 24.66L5.91003 24.71V24.72V24.73C6.13003 25.24 6.71003 25.49 7.22003 25.28C7.73003 25.06 7.97003 24.48 7.76003 23.97L7.75003 23.93C7.74003 23.91 7.72003 23.86 7.70003 23.8C7.66003 23.68 7.59003 23.51 7.52003 23.28C7.38003 22.82 7.21003 22.18 7.08003 21.43C6.81003 19.9 6.75003 18.04 7.42003 16.42C8.80003 13.09 11.77 11.71 13.66 11.23ZM5.91003 24.73L6.84003 24.35C5.92003 24.73 5.91003 24.73 5.91003 24.73ZM12.11 15.39C11.02 16.25 10.16 17.57 10.16 19.56C10.16 21.62 11.01 23.48 11.92 24.87C12.37 25.56 12.82 26.11 13.16 26.49C13.33 26.68 13.47 26.82 13.56 26.92C13.61 26.96 13.64 27 13.67 27.02L13.69 27.04V27.05C14.1 27.42 14.12 28.06 13.75 28.46C13.37 28.87 12.74 28.89 12.34 28.52L12.33 28.51L12.32 28.5L12.3 28.48L12.28 28.46C12.24 28.43 12.2 28.38 12.14 28.32C12.02 28.21 11.86 28.04 11.66 27.82C11.28 27.38 10.76 26.75 10.25 25.97C9.23003 24.41 8.16003 22.16 8.16003 19.56C8.16003 16.9 9.35003 15.01 10.88 13.82C12.37 12.65 14.18 12.14 15.53 12.14C16.77 12.14 18.64 12.39 20.29 13.38C21.99 14.41 23.38 16.2 23.63 19.08C23.68 19.63 23.27 20.11 22.72 20.16C22.17 20.21 21.69 19.8 21.64 19.25C21.45 17.03 20.43 15.8 19.25 15.09C18.02 14.35 16.56 14.14 15.53 14.14C14.61 14.14 13.24 14.51 12.11 15.39ZM16 18.24C16.55 18.29 16.96 18.77 16.91 19.32C16.87 19.82 17.05 21.26 17.98 22.46C18.84 23.58 20.43 24.61 23.48 24.3C24.03 24.24 24.52 24.64 24.58 25.19C24.63 25.74 24.23 26.23 23.68 26.29C20.01 26.67 17.71 25.4 16.39 23.68C15.13 22.04 14.84 20.09 14.92 19.15C14.97 18.6 15.45 18.19 16 18.24Z" fill="#1F1F22"/>
</svg>
