<svg width="20" height="20" viewBox="0 0 20 20" fill="none" xmlns="http://www.w3.org/2000/svg">
<path d="M9 3.5C9.55229 3.5 10 3.94772 10 4.5C10 5.05228 9.55229 5.5 9 5.5H4C2.89543 5.5 2 6.39543 2 7.5V16.6953L3.49707 15.7598C4.29172 15.2631 5.21037 15 6.14746 15H13C14.1046 15 15 14.1046 15 13V11.5C15 10.9477 15.4477 10.5 16 10.5C16.5523 10.5 17 10.9477 17 11.5V13C17 15.2091 15.2091 17 13 17H6.14746C5.58531 17 5.03435 17.1582 4.55762 17.4561L1.53027 19.3477C1.22215 19.5402 0.833496 19.551 0.515625 19.375C0.19767 19.1988 0 18.8635 0 18.5V7.5C1.28853e-07 5.29086 1.79086 3.5 4 3.5H9ZM16 0.5C16.5523 0.5 17 0.947715 17 1.5V3.5H19C19.5523 3.5 20 3.94772 20 4.5C20 5.05228 19.5523 5.5 19 5.5H17V7.5C17 8.05228 16.5523 8.5 16 8.5C15.4477 8.5 15 8.05228 15 7.5V5.5H13C12.4477 5.5 12 5.05228 12 4.5C12 3.94772 12.4477 3.5 13 3.5H15V1.5C15 0.947715 15.4477 0.5 16 0.5Z" fill="#1F1F22"/>
</svg>
