<svg width="20.000000" height="20.000000" viewBox="0 0 20 20" fill="none" xmlns="http://www.w3.org/2000/svg" xmlns:xlink="http://www.w3.org/1999/xlink">
	<desc>
			Created with Pixso.
	</desc>
	<defs/>
	<path id="Union" d="M12.9 14.31C11.54 15.36 9.84 15.99 7.99 15.99C3.58 15.99 0 12.41 0 7.99C0 3.58 3.58 0 7.99 0C12.41 0 15.99 3.58 15.99 7.99C15.99 9.84 15.36 11.54 14.31 12.9L19.7 18.28C20.09 18.68 20.09 19.3 19.7 19.7C19.3 20.09 18.68 20.09 18.28 19.7L12.9 14.31ZM13.99 7.99C13.99 11.3 11.3 13.99 7.99 13.99C4.68 13.99 1.99 11.3 1.99 7.99C1.99 4.68 4.68 1.99 7.99 1.99C11.3 1.99 13.99 4.68 13.99 7.99Z" fill="#1F1F22" fill-opacity="1.000000" fill-rule="evenodd"/>
</svg>
