<svg width="20.000000" height="20.000000" viewBox="0 0 20 20" fill="none" xmlns="http://www.w3.org/2000/svg" xmlns:xlink="http://www.w3.org/1999/xlink">
	<desc>
			Created with Pixso.
	</desc>
	<defs/>
	<path id="Union" d="M4.07 9.61C4.12 9.49 4.19 9.38 4.28 9.28L9.28 4.29C9.53 4.04 9.9 3.94 10.25 4.03C10.6 4.12 10.87 4.39 10.96 4.74C11.05 5.08 10.95 5.45 10.7 5.71L7.4 9L14.99 9C15.54 9 15.99 9.44 15.99 9.99C15.99 10.55 15.54 10.99 14.99 10.99L7.4 10.99L10.7 14.28C10.89 14.47 11 14.72 11 14.99C11 15.26 10.89 15.51 10.7 15.7C10.51 15.89 10.26 16 9.99 16C9.72 16 9.47 15.89 9.28 15.7L4.28 10.7C4.19 10.61 4.12 10.5 4.07 10.37C3.97 10.13 3.97 9.86 4.07 9.61Z" fill="#1F1F22" fill-opacity="1.000000" fill-rule="nonzero"/>
</svg>
