<svg width="24" height="24" viewBox="0 0 24 24" fill="none" xmlns="http://www.w3.org/2000/svg">
<path fill-rule="evenodd" clip-rule="evenodd" d="M4.70711 3.29289C4.31658 2.90237 3.68342 2.90237 3.29289 3.29289C2.90237 3.68342 2.90237 4.31658 3.29289 4.70711L5.82308 7.23729C4.74072 8.14725 3.86972 9.29366 3.29536 10.5977C2.90155 11.4919 2.90155 12.5081 3.29536 13.4023C4.74944 16.7037 8.10707 19 12 19C13.6201 19 15.1483 18.602 16.485 17.8992L19.2929 20.7071C19.6834 21.0976 20.3166 21.0976 20.7071 20.7071C21.0976 20.3166 21.0976 19.6834 20.7071 19.2929L4.70711 3.29289ZM14.9845 16.3987L14.032 15.4462C13.4364 15.7979 12.7413 16.0002 12 16.0002C9.79086 16.0002 8 14.2094 8 12.0002C8 11.2588 8.20232 10.5637 8.55405 9.96826L7.24399 8.65821C6.32779 9.39285 5.59702 10.3337 5.1257 11.4039C4.9581 11.7844 4.9581 12.2156 5.1257 12.5961C6.26214 15.1764 8.90466 17 12 17C13.0628 17 14.0716 16.7852 14.9845 16.3987ZM10.0676 11.4818C10.0235 11.6471 10 11.8208 10 12.0002C10 13.1048 10.8954 14.0002 12 14.0002C12.1795 14.0002 12.3532 13.9767 12.5184 13.9326L10.0676 11.4818Z" fill="#1F1F22"/>
<path d="M12 7C11.6998 7 11.404 7.01714 11.1138 7.05038C10.5651 7.11321 10.0693 6.71934 10.0065 6.17064C9.94366 5.62194 10.3375 5.1262 10.8862 5.06336C11.2519 5.02149 11.6236 5 12 5C15.8929 5 19.2506 7.2963 20.7046 10.5977C21.0985 11.4919 21.0985 12.5081 20.7046 13.4023C20.5332 13.7916 20.3352 14.1669 20.1132 14.526C19.8227 14.9957 19.2064 15.141 18.7367 14.8505C18.267 14.56 18.1217 13.9438 18.4122 13.474C18.586 13.193 18.7406 12.8998 18.8743 12.5961C19.0419 12.2156 19.0419 11.7844 18.8743 11.4039C17.7379 8.82361 15.0953 7 12 7Z" fill="#1F1F22"/>
<path d="M12.0572 8.83768C12.2412 8.31696 12.8125 8.04404 13.3332 8.22809C14.4705 8.63005 15.3702 9.52971 15.7721 10.667C15.9562 11.1877 15.6833 11.759 15.1625 11.9431C14.6418 12.1271 14.0705 11.8542 13.8865 11.3335C13.6859 10.7659 13.2343 10.3144 12.6668 10.1138C12.146 9.92972 11.8731 9.3584 12.0572 8.83768Z" fill="#1F1F22"/>
</svg>
