<svg width="20" height="20" viewBox="0 0 20 20" fill="none" xmlns="http://www.w3.org/2000/svg">
<path fill-rule="evenodd" clip-rule="evenodd" d="M16.5 1C18.4329 1.00006 20 2.56704 20 4.5V12.5C20 14.433 18.4329 15.9999 16.5 16H6.71094C6.11876 16.0001 5.5396 16.1754 5.04688 16.5039L1.55469 18.832C1.24791 19.0365 0.853409 19.0557 0.52832 18.8818C0.203218 18.7078 0 18.3688 0 18V4.5C0 2.56704 1.56706 1.00007 3.5 1H16.5ZM3.5 3C2.67163 3.00007 2 3.67161 2 4.5V16.1309L3.9375 14.8398C4.75876 14.2923 5.72391 14.0001 6.71094 14H16.5C17.3284 13.9999 18 13.3284 18 12.5V4.5C18 3.67161 17.3284 3.00006 16.5 3H3.5Z" fill="#1F1F22"/>
<path d="M10 5C10.5523 5 11 5.44772 11 6V8C11 8.55228 10.5523 9 10 9C9.44771 9 9 8.55228 9 8V6C9 5.44772 9.44771 5 10 5Z" fill="#1F1F22"/>
<path d="M9 11C9 11.5533 9.44667 12 10 12C10.5533 12 11 11.5533 11 11C11 10.4467 10.5533 10 10 10C9.44667 10 9 10.4467 9 11Z" fill="#1F1F22"/>
</svg>
