<svg width="24.000000" height="24.000000" viewBox="0 0 24 24" fill="none" xmlns="http://www.w3.org/2000/svg" xmlns:xlink="http://www.w3.org/1999/xlink">
	<desc>
			Created with Pixso.
	</desc>
	<defs/>
	<path id="Union" d="M8.5 7C9.6 7 10.5 6.1 10.5 5C10.5 3.89 9.6 3 8.5 3C7.39 3 6.5 3.89 6.5 5C6.5 6.1 7.39 7 8.5 7ZM15.5 7C16.6 7 17.5 6.1 17.5 5C17.5 3.89 16.6 3 15.5 3C14.39 3 13.5 3.89 13.5 5C13.5 6.1 14.39 7 15.5 7ZM8.5 14C9.6 14 10.5 13.1 10.5 12C10.5 10.89 9.6 10 8.5 10C7.39 10 6.5 10.89 6.5 12C6.5 13.1 7.39 14 8.5 14ZM15.5 14C16.6 14 17.5 13.1 17.5 12C17.5 10.89 16.6 10 15.5 10C14.39 10 13.5 10.89 13.5 12C13.5 13.1 14.39 14 15.5 14ZM8.5 21C9.6 21 10.5 20.1 10.5 19C10.5 17.89 9.6 17 8.5 17C7.39 17 6.5 17.89 6.5 19C6.5 20.1 7.39 21 8.5 21ZM15.5 21C16.6 21 17.5 20.1 17.5 19C17.5 17.89 16.6 17 15.5 17C14.39 17 13.5 17.89 13.5 19C13.5 20.1 14.39 21 15.5 21Z" fill="#1F1F22" fill-opacity="1.000000" fill-rule="evenodd"/>
</svg>
