<svg width="20.000000" height="20.000000" viewBox="0 0 20 20" fill="none" xmlns="http://www.w3.org/2000/svg" xmlns:xlink="http://www.w3.org/1999/xlink">
	<desc>
			Created with Pixso.
	</desc>
	<defs/>
	<path id="Union" d="M5.99 5C5.44 5 4.99 5.44 4.99 6L4.99 14C4.99 14.55 5.44 15 5.99 15L13.99 15C14.54 15 14.99 14.55 14.99 14L14.99 13.5C14.99 12.94 15.44 12.5 15.99 12.5C16.54 12.5 16.99 12.94 16.99 13.5L16.99 14C16.99 15.65 15.64 17 13.99 17L5.99 17C4.34 17 3 15.65 3 14L3 6C3 4.34 4.34 3 5.99 3L6.49 3C7.04 3 7.49 3.44 7.49 4C7.49 4.55 7.04 5 6.49 5L5.99 5ZM16.99 9.5L16.99 4.09C17 3.95 16.99 3.81 16.94 3.68C16.89 3.56 16.8 3.39 16.7 3.29C16.58 3.18 16.45 3.1 16.31 3.05C16.18 3 16.04 2.99 15.9 3L10.49 3C9.93 3 9.5 3.44 9.5 4C9.5 4.56 9.93 5 10.49 5L13.58 5L8.79 9.79C8.39 10.19 8.39 10.81 8.79 11.21C9.18 11.6 9.81 11.6 10.2 11.21L14.99 6.41L14.99 9.5C14.99 10.06 15.43 10.5 15.99 10.5C16.55 10.5 16.99 10.06 16.99 9.5Z" fill="#1F1F22" fill-opacity="1.000000" fill-rule="evenodd"/>
</svg>
