<svg width="32.000000" height="32.000000" viewBox="0 0 32 32" fill="none" xmlns="http://www.w3.org/2000/svg" xmlns:xlink="http://www.w3.org/1999/xlink">
	<desc>
			Created with Pixso.
	</desc>
	<defs/>
	<path id="Union" d="M10.29 14.99L15.23 9.68C15.61 9.27 15.59 8.64 15.18 8.26C14.77 7.88 14.14 7.9 13.76 8.31L7.26 15.31C7.08 15.51 7 15.73 7 15.99C7 16.13 7.02 16.25 7.06 16.36C7.11 16.47 7.17 16.58 7.26 16.68L13.76 23.68C14.14 24.09 14.77 24.11 15.18 23.73C15.59 23.35 15.61 22.72 15.23 22.31L10.29 16.99L25 16.99C25.56 16.99 26 16.55 26 15.99C26 15.43 25.56 14.99 25 14.99L10.29 14.99Z" fill="#1F1F22" fill-opacity="1.000000" fill-rule="evenodd"/>
</svg>
