<svg width="24" height="24" viewBox="0 0 24 24" fill="none" xmlns="http://www.w3.org/2000/svg">
<path fill-rule="evenodd" clip-rule="evenodd" d="M8.50002 16.87C8.41002 18.4 8.84002 19.57 9.63002 20.29C10.42 20.99 11.45 21.15 12.29 20.85C13.05 20.57 13.52 20.06 13.76 19.46C13.98 18.93 14 18.36 14 18C14 16.83 14.58 15.81 15.25 15.02C15.58 14.64 15.92 14.33 16.17 14.12C16.22 14.08 16.28 14.03 16.32 14H20C21.1 14 22 13.1 22 12V5.00001C22 3.89001 21.1 3.00001 20 3.00001H16.02C16.01 3.00001 16 3.00001 16 3.00001H8.04002C6.40002 2.99001 4.92002 4.00001 4.32002 5.53001L2.21002 10.9C1.44002 12.87 2.89002 15 5.00002 15H8.71002C8.62002 15.49 8.54002 16.12 8.50002 16.87ZM17 5.00001V12H20V5.00001H17ZM15 5.00001V12.5C14.96 12.53 14.92 12.56 14.89 12.59C14.57 12.85 14.16 13.23 13.74 13.72C12.91 14.68 12 16.16 12 18C12 18.35 11.97 18.56 11.91 18.71C11.89 18.77 11.86 18.81 11.83 18.84C11.79 18.87 11.73 18.92 11.6 18.97C11.47 19.02 11.21 19.01 10.97 18.8C10.75 18.6 10.43 18.1 10.49 16.98C10.54 16.08 10.66 15.41 10.76 14.97C10.81 14.75 10.86 14.58 10.89 14.48C10.9 14.43 10.91 14.39 10.92 14.37L10.93 14.35C11.05 14.05 11.01 13.7 10.82 13.43C10.63 13.16 10.33 13 10 13H5.00002C4.30002 13 3.81002 12.29 4.07002 11.63L6.18002 6.26001C6.48002 5.50001 7.22002 4.99001 8.04002 5.00001H15Z" fill="#1F1F22"/>
</svg>
