<svg width="32.000000" height="32.000000" viewBox="0 0 32 32" fill="none" xmlns="http://www.w3.org/2000/svg" xmlns:xlink="http://www.w3.org/1999/xlink">
	<desc>
			Created with Pixso.
	</desc>
	<defs/>
	<path id="Union" d="M22.31 13.76L16.99 18.7L16.99 4C16.99 3.43 16.55 3 15.99 3C15.43 3 14.99 3.43 14.99 4L14.99 18.7L9.67 13.76C9.26 13.38 8.64 13.4 8.26 13.81C7.88 14.23 7.9 14.85 8.31 15.23L15.31 21.73C15.41 21.82 15.51 21.88 15.62 21.93C15.74 21.97 15.86 22 15.99 22C16.25 22 16.48 21.91 16.67 21.73L23.67 15.23C24.08 14.85 24.1 14.23 23.72 13.81C23.34 13.4 22.72 13.38 22.31 13.76ZM7 21C7 20.44 6.55 20 6 20C5.44 20 5 20.44 5 21L5 25C5 26.65 6.34 28 8 28L24 28C25.65 28 27 26.65 27 25L27 21C27 20.44 26.55 20 26 20C25.44 20 25 20.44 25 21L25 25C25 25.55 24.55 26 24 26L8 26C7.44 26 7 25.55 7 25L7 21Z" fill="#1F1F22" fill-opacity="1.000000" fill-rule="evenodd"/>
</svg>
