<svg width="20" height="20" viewBox="0 0 20 20" fill="none" xmlns="http://www.w3.org/2000/svg">
<path d="M7 0C7.55228 0 8 0.447715 8 1C8 1.55228 7.55228 2 7 2H4C3.44772 2 3 2.44772 3 3V17C3 17.5523 3.44772 18 4 18H14C14.5523 18 15 17.5523 15 17V13.5C15 12.9477 15.4477 12.5 16 12.5C16.5523 12.5 17 12.9477 17 13.5V17C17 18.6569 15.6569 20 14 20H4C2.34315 20 1 18.6569 1 17V3C1 1.34315 2.34315 1.61064e-08 4 0H7Z" fill="#1F1F22"/>
<path d="M12 14C12.5523 14 13 14.4477 13 15C13 15.5523 12.5523 16 12 16H6C5.44772 16 5 15.5523 5 15C5 14.4477 5.44772 14 6 14H12Z" fill="#1F1F22"/>
<path d="M7 10C7.55228 10 8 10.4477 8 11C8 11.5523 7.55228 12 7 12H6C5.44772 12 5 11.5523 5 11C5 10.4477 5.44772 10 6 10H7Z" fill="#1F1F22"/>
<path fill-rule="evenodd" clip-rule="evenodd" d="M13.5 0C13.8806 -4.03998e-09 14.228 0.216303 14.3965 0.557617L15.4863 2.76562L17.9238 3.12012C18.3004 3.17495 18.6129 3.43888 18.7305 3.80078C18.848 4.16271 18.75 4.55956 18.4775 4.8252L16.7139 6.54395L17.1309 8.97168C17.1951 9.34679 17.0403 9.72552 16.7324 9.94922C16.4245 10.1729 16.0166 10.2025 15.6797 10.0254L13.5 8.87891L11.3203 10.0254C10.9834 10.2025 10.5755 10.1729 10.2676 9.94922C9.95973 9.72552 9.80489 9.34675 9.86914 8.97168L10.2852 6.54395L8.52246 4.8252C8.25002 4.55957 8.15205 4.16268 8.26953 3.80078C8.38711 3.4389 8.69967 3.17498 9.07617 3.12012L11.5127 2.76562L12.6035 0.557617L12.6748 0.435547C12.8594 0.165586 13.167 3.17801e-05 13.5 0ZM13.0742 4.12207C12.9286 4.41718 12.647 4.6216 12.3213 4.66895L11.3682 4.80664L12.0586 5.47949C12.294 5.7092 12.4013 6.04006 12.3457 6.36426L12.1826 7.3125L13.0342 6.86523L13.1465 6.81445C13.4122 6.71403 13.711 6.73129 13.9658 6.86523L14.8164 7.3125L14.6543 6.36426C14.5987 6.04009 14.706 5.70919 14.9414 5.47949L15.6309 4.80664L14.6787 4.66895C14.3531 4.62157 14.0714 4.41717 13.9258 4.12207L13.5 3.25879L13.0742 4.12207Z" fill="#1F1F22"/>
<path d="M7 6C7.55228 6 8 6.44772 8 7C8 7.55228 7.55228 8 7 8H6C5.44772 8 5 7.55228 5 7C5 6.44772 5.44772 6 6 6H7Z" fill="#1F1F22"/>
</svg>
