<svg width="20.000000" height="20.000000" viewBox="0 0 20 20" fill="none" xmlns="http://www.w3.org/2000/svg" xmlns:xlink="http://www.w3.org/1999/xlink">
	<desc>
			Created with Pixso.
	</desc>
	<defs/>
	<path id="Union" d="M19.68 3.69C19.6 3.58 19.52 3.47 19.42 3.37L16.62 0.57C16.52 0.47 16.41 0.39 16.3 0.31C16.19 0.24 16.08 0.19 15.96 0.14C15.85 0.09 15.73 0.06 15.61 0.03C15.48 0.01 15.35 0 15.22 0C15.09 0 14.96 0.01 14.83 0.03C14.71 0.06 14.59 0.09 14.48 0.14C14.36 0.19 14.25 0.24 14.15 0.31C14.03 0.39 13.92 0.47 13.82 0.57L1.76 12.64C1.52 12.88 1.35 13.16 1.26 13.48L0.08 17.45C-0.03 17.82 -0.03 18.18 0.07 18.54C0.16 18.87 0.33 19.16 0.58 19.41C0.71 19.55 0.85 19.66 1.01 19.74C1.15 19.82 1.3 19.88 1.45 19.92C1.81 20.02 2.18 20.02 2.54 19.91L6.51 18.73C6.84 18.64 7.11 18.47 7.35 18.23L19.42 6.17C19.52 6.07 19.6 5.96 19.68 5.84C19.75 5.74 19.8 5.63 19.85 5.51C19.9 5.4 19.93 5.28 19.96 5.16C19.98 5.03 20 4.9 20 4.77C20 4.64 19.98 4.51 19.96 4.38C19.93 4.26 19.9 4.14 19.85 4.03C19.8 3.91 19.75 3.8 19.68 3.69ZM15.22 1.97L18.02 4.77L16.48 6.31L13.68 3.51L15.22 1.97ZM15.08 7.71L12.28 4.91L3.15 14.04L1.98 18.01L5.95 16.84L15.08 7.71Z" fill="#1F1F22" fill-opacity="1.000000" fill-rule="evenodd"/>
</svg>
