<svg width="16" height="16" viewBox="0 0 16 16" fill="none" xmlns="http://www.w3.org/2000/svg">
<path fill-rule="evenodd" clip-rule="evenodd" d="M11.5 13.5001C12.05 13.5001 12.5 13.0501 12.5 12.5001V6.08005L13.37 6.78005C13.8 7.12005 14.43 7.05005 14.78 6.62005C15.12 6.19005 15.05 5.56005 14.62 5.21005L12.12 3.21005C11.75 2.92005 11.24 2.92005 10.87 3.21005L8.37004 5.21005C7.94004 5.56005 7.87004 6.19005 8.21004 6.62005C8.56004 7.05005 9.19004 7.12005 9.62004 6.78005L10.5 6.08005V12.5001C10.5 13.0501 10.94 13.5001 11.5 13.5001ZM5.50004 4.00005C5.50004 3.44005 5.05004 3.00005 4.50004 3.00005C3.94004 3.00005 3.50004 3.44005 3.50004 4.00005V10.4101L2.62004 9.71005C2.19004 9.37005 1.56004 9.44005 1.21004 9.87005C0.870043 10.3001 0.940043 10.9301 1.37004 11.2801L3.87004 13.2801C4.24004 13.5701 4.75004 13.5701 5.12004 13.2801L7.62004 11.2801C8.05004 10.9301 8.12004 10.3001 7.78004 9.87005C7.43004 9.44005 6.80004 9.37005 6.37004 9.71005L5.50004 10.4101V4.00005Z" fill="#1F1F22"/>
</svg>
