<svg width="32" height="32" viewBox="0 0 32 32" fill="none" xmlns="http://www.w3.org/2000/svg">
<path fill-rule="evenodd" clip-rule="evenodd" d="M21.1113 18.667C22.2157 18.6672 23.1113 19.5626 23.1113 20.667V26C23.1112 27.1043 22.2156 27.9998 21.1113 28H10.8887C9.85343 27.9999 9.00207 27.2133 8.89941 26.2051L8.88867 26V20.667C8.88867 19.5625 9.78421 18.6671 10.8887 18.667H21.1113ZM10.8887 26H21.1113V20.667H10.8887V26Z" fill="#1F1F22"/>
<path fill-rule="evenodd" clip-rule="evenodd" d="M20.1113 4C21.768 4.00023 23.1113 5.34329 23.1113 7V8.88867H25C26.6568 8.88867 27.9999 10.2319 28 11.8887V20.8887C28 21.441 27.5523 21.8887 27 21.8887C26.4477 21.8887 26 21.441 26 20.8887V11.8887C25.9999 11.3365 25.5522 10.8887 25 10.8887H7C6.4478 10.8887 6.00013 11.3365 6 11.8887V20.8887L5.99512 20.9912C5.94379 21.4953 5.51768 21.8887 5 21.8887C4.48232 21.8887 4.05621 21.4953 4.00488 20.9912L4 20.8887V11.8887C4.00013 10.2319 5.34323 8.88867 7 8.88867H8.88867V7C8.88867 5.34323 10.2319 4.00013 11.8887 4H20.1113ZM11.8887 6C11.3365 6.00013 10.8887 6.4478 10.8887 7V8.88867H21.1113V7C21.1113 6.44786 20.6634 6.00023 20.1113 6H11.8887Z" fill="#1F1F22"/>
<path d="M10 14C10.5523 14 11 14.4477 11 15C11 15.5523 10.5523 16 10 16C9.44772 16 9 15.5523 9 15C9 14.4477 9.44772 14 10 14Z" fill="#1F1F22"/>
</svg>
