<svg width="24" height="24" viewBox="0 0 24 24" fill="none" xmlns="http://www.w3.org/2000/svg">
<path fill-rule="evenodd" clip-rule="evenodd" d="M5.75995 8.67C6.13995 9.08 6.75995 9.11 7.16995 8.73L11.9999 4.38L16.8199 8.73C17.2299 9.11 17.8499 9.08 18.2299 8.67C18.6099 8.25 18.5799 7.64 18.1599 7.26L12.6699 2.3C12.4399 2.1 12.2199 2 11.9999 2C11.7699 2 11.5499 2.1 11.3199 2.3L5.82995 7.26C5.40995 7.64 5.37995 8.25 5.75995 8.67ZM7.16995 15.26C6.75995 14.88 6.13995 14.91 5.75995 15.32C5.37995 15.74 5.40995 16.35 5.82995 16.73L11.3199 21.69C11.5499 21.89 11.7699 22 11.9999 22C12.2199 22 12.4399 21.89 12.6699 21.69L18.1599 16.73C18.5799 16.35 18.6099 15.74 18.2299 15.32C17.8499 14.91 17.2299 14.88 16.8199 15.26L11.9999 19.61L7.16995 15.26Z" fill="#1F1F22"/>
</svg>
