<svg width="16" height="16" viewBox="0 0 16 16" fill="none" xmlns="http://www.w3.org/2000/svg">
<path fill-rule="evenodd" clip-rule="evenodd" d="M6 1V2H10V1C10 0.43 10.44 0 11 0C11.56 0 12 0.43 12 1V2H13C13.21 2 13.43 2.02 13.63 2.06C13.81 2.1 13.99 2.16 14.16 2.23C14.34 2.3 14.5 2.39 14.65 2.49C14.82 2.6 14.97 2.73 15.12 2.87C15.39 3.15 15.61 3.47 15.76 3.83C15.83 4 15.89 4.18 15.93 4.36C15.97 4.56 16 4.78 16 5V13C16 13.21 15.97 13.43 15.93 13.63C15.89 13.81 15.83 13.99 15.76 14.16C15.69 14.34 15.6 14.5 15.5 14.65C15.39 14.82 15.26 14.97 15.12 15.12C14.84 15.39 14.52 15.61 14.16 15.76C13.79 15.92 13.4 16 13 16H3C2.78 16 2.56 15.97 2.36 15.93C2.18 15.89 2 15.83 1.83 15.76C1.65 15.69 1.49 15.6 1.34 15.5C1.17 15.39 1.02 15.26 0.87 15.12C0.6 14.84 0.38 14.52 0.23 14.16C0.16 13.99 0.1 13.81 0.06 13.63C0.02 13.43 0 13.21 0 13V5C0 4.78 0.02 4.56 0.06 4.36C0.1 4.18 0.16 4 0.23 3.83C0.3 3.65 0.39 3.49 0.49 3.34C0.6 3.17 0.73 3.02 0.87 2.87C1.02 2.73 1.17 2.6 1.34 2.49C1.49 2.39 1.65 2.3 1.83 2.23C2 2.16 2.18 2.1 2.36 2.06C2.56 2.02 2.78 2 3 2H4V1C4 0.43 4.44 0 5 0C5.56 0 6 0.43 6 1ZM10 4V5C10 5.56 10.44 6 11 6C11.56 6 12 5.56 12 5V4H13C13.13 4 13.26 4.02 13.38 4.07C13.44 4.1 13.49 4.12 13.53 4.15C13.59 4.19 13.65 4.24 13.7 4.29C13.75 4.34 13.8 4.4 13.84 4.46C13.87 4.5 13.89 4.55 13.92 4.61C13.97 4.73 14 4.86 14 5V7H2V5C2 4.91 2 4.83 2.02 4.75C2.04 4.7 2.05 4.65 2.07 4.61C2.1 4.55 2.12 4.5 2.15 4.46C2.19 4.4 2.24 4.34 2.29 4.29C2.34 4.24 2.4 4.19 2.46 4.15C2.5 4.12 2.55 4.1 2.61 4.07C2.65 4.05 2.7 4.04 2.75 4.02C2.83 4 2.91 4 3 4H4V5C4 5.56 4.44 6 5 6C5.56 6 6 5.56 6 5V4H10ZM2 9V13C2 13.13 2.02 13.26 2.07 13.38C2.1 13.44 2.12 13.49 2.15 13.53C2.19 13.59 2.24 13.65 2.29 13.7C2.38 13.79 2.49 13.87 2.61 13.92C2.65 13.94 2.7 13.95 2.75 13.97C2.83 13.99 2.91 14 3 14H13C13.13 14 13.26 13.97 13.38 13.92C13.44 13.89 13.49 13.87 13.53 13.84C13.59 13.8 13.65 13.75 13.7 13.7C13.79 13.61 13.87 13.5 13.92 13.38C13.97 13.26 14 13.13 14 13V9H2Z" fill="#1F1F22"/>
</svg>
