<svg width="32" height="32" viewBox="0 0 32 32" fill="none" xmlns="http://www.w3.org/2000/svg">
<path d="M3.29303 3.29309C3.68355 2.90257 4.31657 2.90257 4.70709 3.29309L28.7071 27.2931C29.0975 27.6836 29.0976 28.3167 28.7071 28.7072C28.3166 29.0976 27.6836 29.0975 27.293 28.7072L22.3633 23.7775C20.4934 24.8714 18.319 25.5001 16.0001 25.5001C10.7798 25.5001 6.30235 22.3285 4.37018 17.8087C3.87688 16.6548 3.87689 15.3455 4.37018 14.1915C5.17402 12.3111 6.41691 10.6652 7.96979 9.38391L3.29303 4.70715C2.90251 4.31664 2.90253 3.68362 3.29303 3.29309ZM9.39166 10.8058C8.01298 11.9024 6.91148 13.3345 6.20905 14.9777C5.93041 15.6295 5.93041 16.3708 6.20905 17.0226C7.83889 20.8351 11.6116 23.5001 16.0001 23.5001C17.7652 23.5001 19.4281 23.0687 20.8926 22.3068L18.7559 20.17C17.9655 20.6932 17.0179 21.0001 16.0001 21.0001C13.2388 21.0001 11.0003 18.7614 11.0001 16.0001C11.0001 14.9819 11.305 14.0327 11.8282 13.2423L9.39166 10.8058ZM16.0001 6.50012C21.2204 6.50017 25.6978 9.67177 27.6299 14.1915C28.1232 15.3455 28.1232 16.6548 27.6299 17.8087C27.3383 18.4908 26.9889 19.142 26.588 19.756C26.2861 20.2183 25.6665 20.3487 25.2042 20.047C24.7419 19.7451 24.6114 19.1256 24.9131 18.6632C25.2511 18.1457 25.5456 17.5969 25.7911 17.0226C26.0697 16.3708 26.0697 15.6295 25.7911 14.9777C24.1613 11.1651 20.3885 8.50017 16.0001 8.50012C15.3051 8.50012 14.6261 8.56642 13.9698 8.69348C13.4277 8.79831 12.903 8.44445 12.7979 7.90247C12.6929 7.36027 13.0477 6.8356 13.5899 6.73059C14.3709 6.5794 15.1768 6.50012 16.0001 6.50012ZM13.293 14.7072C13.1056 15.0984 13.0001 15.5366 13.0001 16.0001C13.0003 17.6568 14.3433 19.0001 16.0001 19.0001C16.4636 19.0001 16.9008 18.8932 17.2921 18.7062L13.293 14.7072ZM16.3956 11.8956C16.5803 11.3751 17.1524 11.1025 17.6729 11.2872C19.2269 11.8389 20.4271 13.1358 20.8428 14.7511C20.9802 15.2858 20.6578 15.8313 20.1231 15.9689C19.5884 16.1064 19.0431 15.7837 18.9053 15.2491C18.6566 14.2833 17.9359 13.5029 17.004 13.172C16.4837 12.9874 16.2114 12.4159 16.3956 11.8956Z" fill="#1F1F22"/>
</svg>
