<svg width="32" height="32" viewBox="0 0 32 32" fill="none" xmlns="http://www.w3.org/2000/svg">
<path d="M21.1543 3.00391C22.7394 3.08421 24 4.39489 24 6V26C24 27.6569 22.6569 29 21 29H11C9.34315 29 8 27.6569 8 26V6C8 4.34315 9.34315 3 11 3H21L21.1543 3.00391ZM11 5C10.4477 5 10 5.44772 10 6V26C10 26.5523 10.4477 27 11 27H21C21.5523 27 22 26.5523 22 26V6C22 5.48232 21.6067 5.05621 21.1025 5.00488L21 5H19L18.9951 5.10254C18.9438 5.60667 18.5177 6 18 6H14C13.4477 6 13 5.55228 13 5H11ZM17.5 23C18.0523 23 18.5 23.4477 18.5 24C18.5 24.5523 18.0523 25 17.5 25H14.5C13.9477 25 13.5 24.5523 13.5 24C13.5 23.4477 13.9477 23 14.5 23H17.5Z" fill="#1F1F22"/>
</svg>
