<svg width="20" height="20" viewBox="0 0 20 20" fill="none" xmlns="http://www.w3.org/2000/svg">
<path d="M6.16797 9.94531C6.47431 9.4858 7.09516 9.36166 7.55469 9.66797C8.01422 9.97432 8.13838 10.5952 7.83203 11.0547L5.83203 14.0547C5.52566 14.5142 4.90482 14.6384 4.44531 14.332C3.98584 14.0257 3.86168 13.4048 4.16797 12.9453L6.16797 9.94531Z" fill="#1F1F22"/>
<path d="M10.7998 9.43359C11.3624 8.68354 12.4527 8.63645 13.0811 9.29297L13.2002 9.43359L15.7998 12.9004C16.131 13.3422 16.0413 13.9685 15.5996 14.2998C15.1578 14.631 14.5315 14.5414 14.2002 14.0996L12 11.167L9.7998 14.0996C9.46847 14.5414 8.84221 14.631 8.40039 14.2998C7.95862 13.9685 7.86896 13.3422 8.2002 12.9004L10.7998 9.43359Z" fill="#1F1F22"/>
<path d="M5.5 5.5C6.32843 5.5 7 6.17157 7 7C7 7.82843 6.32843 8.5 5.5 8.5C4.67157 8.5 4 7.82843 4 7C4 6.17157 4.67157 5.5 5.5 5.5Z" fill="#1F1F22"/>
<path fill-rule="evenodd" clip-rule="evenodd" d="M16 1.5C18.2091 1.5 20 3.29086 20 5.5V14.5C20 16.7091 18.2091 18.5 16 18.5H4C1.79086 18.5 2.41596e-08 16.7091 0 14.5V5.5C0 3.29086 1.79086 1.5 4 1.5H16ZM4 3.5C2.89543 3.5 2 4.39543 2 5.5V14.5C2 15.6046 2.89543 16.5 4 16.5H16C17.1046 16.5 18 15.6046 18 14.5V5.5C18 4.39543 17.1046 3.5 16 3.5H4Z" fill="#1F1F22"/>
</svg>
