<svg width="24" height="24" viewBox="0 0 24 24" fill="none" xmlns="http://www.w3.org/2000/svg">
<path d="M21 13C21.5523 13 22 12.5523 22 12C22 6.47715 17.5228 2 12 2C9.01174 2 6.33172 3.31172 4.5 5.3877V3C4.5 2.44 4.06 2 3.5 2C2.95 2 2.5 2.44 2.5 3V8C2.5 8.55 2.95 9 3.5 9H8.5C9.06 9 9.5 8.55 9.5 8C9.5 7.44 9.06 7 8.5 7H5.75488C7.22178 5.17019 9.47478 4 12 4C16.4183 4 20 7.58172 20 12C20 12.5523 20.4477 13 21 13Z" fill="#1F1F22"/>
<path d="M20.5 22C21.05 22 21.5 21.56 21.5 21V16C21.5 15.45 21.05 15 20.5 15H15.5C14.94 15 14.5 15.45 14.5 16C14.5 16.56 14.94 17 15.5 17H18.2451C16.7782 18.8298 14.5252 20 12 20C7.58172 20 4 16.4183 4 12C4 11.4477 3.55228 11 3 11C2.44772 11 2 11.4477 2 12C2 17.5228 6.47715 22 12 22C14.988 22 17.6683 20.6889 19.5 18.6133V21C19.5 21.56 19.94 22 20.5 22Z" fill="#1F1F22"/>
</svg>
