<svg width="16" height="16" viewBox="0 0 16 16" fill="none" xmlns="http://www.w3.org/2000/svg">
<path d="M11.2901 3.29C11.6801 2.9 12.3101 2.9 12.7001 3.29C13.0901 3.68 13.0901 4.31 12.7001 4.7L9.41006 8L12.7001 11.29C13.0901 11.68 13.0901 12.31 12.7001 12.7C12.3101 13.09 11.6801 13.09 11.2901 12.7L8.00006 9.41L4.70006 12.7C4.31006 13.09 3.68006 13.09 3.29006 12.7C2.90006 12.31 2.90006 11.68 3.29006 11.29L6.58006 8L3.29006 4.7C2.90006 4.31 2.90006 3.68 3.29006 3.29C3.68006 2.9 4.31006 2.9 4.70006 3.29L8.00006 6.58L11.2901 3.29Z" fill="#1F1F22"/>
</svg>
