<svg width="32" height="32" viewBox="0 0 32 32" fill="none" xmlns="http://www.w3.org/2000/svg">
<path fill-rule="evenodd" clip-rule="evenodd" d="M22 4C24.2091 4 26 5.79086 26 8C26 10.2091 24.2091 12 22 12C20.8758 12 19.8605 11.5357 19.1338 10.7891L11.8584 14.9463C11.9499 15.2821 12 15.6352 12 16C12 16.3645 11.9497 16.7172 11.8584 17.0527L19.1338 21.2109C19.8605 20.4643 20.8758 20 22 20C24.2091 20 26 21.7909 26 24C26 26.2091 24.2091 28 22 28C19.7909 28 18 26.2091 18 24C18 23.6353 18.0492 23.282 18.1406 22.9463L10.8652 18.7891C10.1386 19.5354 9.12395 20 8 20C5.79086 20 4 18.2091 4 16C4 13.7909 5.79086 12 8 12C9.12395 12 10.1386 12.4646 10.8652 13.2109L18.1406 9.05273C18.0493 8.71726 18 8.3644 18 8C18 5.79086 19.7909 4 22 4ZM22 22C20.8954 22 20 22.8954 20 24C20 25.1046 20.8954 26 22 26C23.1046 26 24 25.1046 24 24C24 22.8954 23.1046 22 22 22ZM8 14C6.89543 14 6 14.8954 6 16C6 17.1046 6.89543 18 8 18C9.10457 18 10 17.1046 10 16C10 14.8954 9.10457 14 8 14ZM22 6C20.8954 6 20 6.89543 20 8C20 9.10457 20.8954 10 22 10C23.1046 10 24 9.10457 24 8C24 6.89543 23.1046 6 22 6Z" fill="#1F1F22"/>
</svg>
