<svg width="24" height="24" viewBox="0 0 24 24" fill="none" xmlns="http://www.w3.org/2000/svg">
<path d="M10.5 5.50015C11.0523 5.50015 11.5 5.94787 11.5 6.50015C11.4999 7.05236 11.0522 7.50015 10.5 7.50015H6C4.89543 7.50015 4 8.39558 4 9.50015V18.6955L5.49707 17.7599C6.29172 17.2633 7.21037 17.0002 8.14746 17.0002H15C16.1045 17.0002 16.9999 16.1046 17 15.0002V14.0002C17 13.4479 17.4477 13.0002 18 13.0002C18.5523 13.0002 19 13.4479 19 14.0002V15.0002C18.9999 17.2092 17.2091 19.0002 15 19.0002H8.14746C7.58531 19.0002 7.03435 19.1583 6.55762 19.4562L3.53027 21.3478C3.22219 21.5403 2.83346 21.5511 2.51562 21.3752C2.19772 21.199 2.00006 20.8636 2 20.5002V9.50015C2 7.29101 3.79086 5.50015 6 5.50015H10.5Z" fill="#1F1F22"/>
<path fill-rule="evenodd" clip-rule="evenodd" d="M17.376 2.95133C18.148 2.12375 19.4526 2.10123 20.2529 2.90152L21.3379 3.98648C22.0995 4.74845 22.1207 5.97699 21.3857 6.7648L17.7314 10.6818C17.5812 10.8429 17.3813 10.9503 17.1641 10.9865L14.8545 11.3712C13.8394 11.5402 12.9597 10.6598 13.1289 9.64468L13.5137 7.33609L13.5479 7.19351C13.5927 7.05414 13.6679 6.92547 13.7686 6.81754L17.376 2.95133ZM15.4365 7.96109L15.2158 9.28336L16.499 9.06949L19.9238 5.40054L18.8389 4.31558L15.4365 7.96109Z" fill="#1F1F22"/>
</svg>
