<svg width="32" height="32" viewBox="0 0 32 32" fill="none" xmlns="http://www.w3.org/2000/svg">
<path d="M18 6.00026C18.5523 6.00026 19 6.44798 19 7.00026C18.9999 7.55244 18.5522 8.00026 18 8.00026H8C6.89543 8.00026 6 8.89569 6 10.0003V25.1311L9.68945 22.6721C10.3465 22.2341 11.1185 22.0003 11.9082 22.0003H24C25.1045 22.0003 25.9999 21.1047 26 20.0003V16.0003C26 15.448 26.4477 15.0003 27 15.0003C27.5523 15.0003 28 15.448 28 16.0003V20.0003C27.9999 22.2093 26.2091 24.0003 24 24.0003H11.9082C11.5134 24.0003 11.1273 24.1172 10.7988 24.3362L5.55469 27.8323C5.24794 28.0367 4.85338 28.0559 4.52832 27.8821C4.20323 27.7081 4.00009 27.369 4 27.0003V10.0003C4 7.79112 5.79086 6.00026 8 6.00026H18Z" fill="#1F1F22"/>
<path fill-rule="evenodd" clip-rule="evenodd" d="M25.0859 5.00026C25.867 4.21931 27.133 4.21931 27.9141 5.00026L29 6.0862C29.7808 6.86724 29.7809 8.13333 29 8.91432L23.707 14.2073C23.5597 14.3546 23.3696 14.4523 23.1641 14.4866L20.8545 14.8714C19.8396 15.0403 18.9601 14.1607 19.1289 13.1458L19.5137 10.8362L19.5508 10.6848C19.5996 10.5379 19.6825 10.4037 19.793 10.2932L25.0859 5.00026ZM21.4336 11.4798L21.2158 12.7835L22.5195 12.5657L27.5859 7.50026L26.5 6.41432L21.4336 11.4798Z" fill="#1F1F22"/>
</svg>
