<svg width="32" height="32" viewBox="0 0 32 32" fill="none" xmlns="http://www.w3.org/2000/svg">
<path fill-rule="evenodd" clip-rule="evenodd" d="M17.2319 20.7194L17.2203 20.7135C17.1729 20.6892 17.1267 20.665 17.0811 20.6405L17.0609 20.6297L16.8123 20.4887L16.7683 20.4606C15.1813 19.4478 13.7549 18.1253 12.4832 16.5551C11.9388 15.8855 11.4861 15.22 11.126 14.5004L10.4712 13.1919L12.177 11.5328L12.6698 11.0356L12.891 10.8035C13.0651 10.6004 13.0874 10.4534 13.0872 10.3799C13.087 10.3058 13.0632 10.1517 12.8795 9.93817L12.5659 9.61054L11.522 8.57456L10.1989 7.25141C9.99077 7.04331 9.81955 7.00357 9.72352 7.00026C9.63166 6.99709 9.48171 7.02244 9.29437 7.18169L9.07876 7.38707L7.74053 8.71236L7.56229 8.88383C7.20974 9.22161 7.0406 9.58872 7.0092 10.0583C6.95945 10.8917 7.10768 11.7489 7.54492 12.933C8.26031 14.8729 9.37758 16.7169 10.9114 18.5067L10.9185 18.515L10.9256 18.5234C12.8403 20.808 15.1531 22.6175 17.8376 23.9277L17.8416 23.9297C19.2446 24.6183 20.3684 24.9424 21.4558 24.9961C22.2881 25.0338 22.7979 24.8073 23.2124 24.3529L23.4039 24.1391L23.4136 24.1287C23.452 24.087 23.4909 24.0454 23.5307 24.0034L23.5391 23.9945L23.783 23.7434L24.7162 22.8248L24.8027 22.7332C24.979 22.5279 25.0028 22.3708 24.9997 22.2821C24.9965 22.1895 24.9576 22.0104 24.7313 21.784L24.7217 21.7745L24.018 21.0611L22.1286 19.1822L22.0331 19.0921C21.8455 18.9317 21.6953 18.9063 21.6035 18.9095C21.5081 18.9128 21.3375 18.9522 21.1299 19.1592C21.1293 19.1597 21.1288 19.1602 21.1282 19.1608L19.9861 20.3096L18.8177 21.5072L17.2319 20.7194ZM18.5612 18.9061L19.714 17.7466C20.7839 16.6767 22.276 16.6322 23.3788 17.6121L23.5204 17.7457L25.4351 19.6497L26.1455 20.3698C27.2374 21.4617 27.2829 22.9544 26.282 24.0796L26.1455 24.2243L25.202 25.1529L24.9824 25.3791C24.9486 25.4147 24.916 25.4496 24.884 25.4843L24.6968 25.6932C23.8259 26.6522 22.7068 27.0557 21.3612 26.9939C19.9187 26.9233 18.523 26.4921 16.9604 25.7251C14.0238 24.2918 11.4876 22.3076 9.39275 19.8081C7.72786 17.8653 6.47789 15.8199 5.66874 13.6258C5.16964 12.2741 4.94059 11.1297 5.01315 9.93252C5.07654 8.95859 5.46612 8.12235 6.17866 7.43967L6.34352 7.28108L7.68525 5.95232L7.94599 5.70395C9.05013 4.72278 10.5433 4.76736 11.6131 5.8372L12.9362 7.16035L13.993 8.20902L14.3534 8.58558C15.3292 9.67865 15.3297 11.0725 14.3673 12.1534L14.1042 12.4295L13.5846 12.9537L12.9146 13.6054C13.1941 14.1639 13.5585 14.7074 14.0363 15.2949C15.1944 16.7252 16.4648 17.8944 17.8443 18.7747L18.0275 18.8786C18.0605 18.8963 18.0954 18.9146 18.1333 18.9341L18.4031 19.0681L18.5612 18.9061Z" fill="#1F1F22"/>
</svg>
