<svg width="32" height="32" viewBox="0 0 32 32" fill="none" xmlns="http://www.w3.org/2000/svg">
<path fill-rule="evenodd" clip-rule="evenodd" d="M22.7 14.99L17.76 9.67999C17.38 9.26999 17.4 8.63999 17.81 8.25999C18.23 7.87999 18.85 7.89999 19.23 8.30999L25.73 15.31C25.91 15.51 26 15.73 26 15.99C26 16.13 25.97 16.25 25.93 16.36C25.88 16.47 25.82 16.58 25.73 16.68L19.23 23.68C18.85 24.09 18.23 24.11 17.81 23.73C17.4 23.35 17.38 22.72 17.76 22.31L22.7 16.99H8C7.43 16.99 7 16.55 7 15.99C7 15.43 7.43 14.99 8 14.99H22.7Z" fill="#1F1F22"/>
</svg>
