<svg width="32" height="32" viewBox="0 0 32 32" fill="none" xmlns="http://www.w3.org/2000/svg">
<path d="M16.1025 16.0049C16.6067 16.0562 17 16.4823 17 17C17 17.5177 16.6067 17.9438 16.1025 17.9951L16 18H10C9.44772 18 9 17.5523 9 17C9 16.4477 9.44772 16 10 16H16L16.1025 16.0049Z" fill="#1F1F22"/>
<path d="M22 12C22.5523 12 23 12.4477 23 13C23 13.5523 22.5523 14 22 14H10C9.44772 14 9 13.5523 9 13C9 12.4477 9.44772 12 10 12H22Z" fill="#1F1F22"/>
<path fill-rule="evenodd" clip-rule="evenodd" d="M24 6C26.2091 6 28 7.79086 28 10V20C28 22.2091 26.2091 24 24 24H11.9082C11.5134 24 11.1273 24.1169 10.7988 24.3359L5.55469 27.832C5.2479 28.0366 4.85344 28.0557 4.52832 27.8818C4.20316 27.7078 4 27.3688 4 27V10C4 7.79086 5.79086 6 8 6H24ZM8 8C6.89543 8 6 8.89543 6 10V25.1309L9.68945 22.6719C10.3465 22.2339 11.1185 22 11.9082 22H24C25.1046 22 26 21.1046 26 20V10C26 8.89543 25.1046 8 24 8H8Z" fill="#1F1F22"/>
</svg>
