<svg width="20" height="20" viewBox="0 0 20 20" fill="none" xmlns="http://www.w3.org/2000/svg">
<path d="M17 4.39C17 3.75 16.76 3.15 16.3 2.69C15.85 2.25 15.24 2 14.61 2C13.97 2 13.38 2.24 12.92 2.69L4.11 11.51C3.39 12.23 3 13.18 3 14.2C3 15.21 3.39 16.17 4.11 16.88C4.82 17.6 5.78 18 6.79 18C7.8 18 8.75 17.6 9.47 16.88L16.38 9.97C16.77 9.58 17.4 9.58 17.79 9.97C18.18 10.36 18.18 10.99 17.79 11.38L10.88 18.29C9.8 19.38 8.33 20 6.79 20C5.24 20 3.78 19.38 2.69 18.29C1.61 17.21 1 15.74 1 14.2C1 12.65 1.61 11.19 2.69 10.1L11.5 1.28C12.34 0.44 13.44 6.1e-05 14.61 0C15.77 0 16.89 0.46 17.71 1.28C18.55 2.12 19 3.22 19 4.39C19 5.55 18.53 6.67 17.71 7.49L17.41 7.79C17.22 7.98 16.95 8.26 16.62 8.59C15.96 9.25 15.07 10.14 14.15 11.06C12.32 12.89 10.4 14.81 10.01 15.2C8.92 16.29 6.99 16.57 5.73 15.34C4.83 14.44 4.24 12.46 5.73 10.98C6.22 10.49 7.23 9.47 8.23 8.47C9.22 7.47 10.2 6.48 10.62 6.07C11.01 5.67 11.64 5.68 12.04 6.07C12.43 6.46 12.43 7.09 12.04 7.48C11.62 7.89 10.64 8.88 9.65 9.88C8.65 10.88 7.63 11.9 7.14 12.39C6.87 12.66 6.8 12.94 6.82 13.21C6.85 13.49 6.99 13.76 7.13 13.91C7.46 14.23 8.13 14.25 8.59 13.79C8.98 13.4 10.91 11.47 12.74 9.64C13.65 8.73 14.54 7.84 15.2 7.17C15.53 6.84 15.81 6.57 16 6.38C16.09 6.28 16.17 6.21 16.22 6.16C16.66 5.71 17 5.02 17 4.39Z" fill="#1F1F22"/>
</svg>
