<svg width="20.000000" height="20.000000" viewBox="0 0 20 20" fill="none" xmlns="http://www.w3.org/2000/svg" xmlns:xlink="http://www.w3.org/1999/xlink">
	<desc>
			Created with Pixso.
	</desc>
	<defs/>
	<path id="Union" d="M13.49 15.5C14.05 15.5 14.49 15.05 14.49 14.5L14.49 8.08L15.37 8.78C15.8 9.12 16.43 9.05 16.78 8.62C17.12 8.19 17.05 7.56 16.62 7.21L14.12 5.21C13.75 4.92 13.24 4.92 12.87 5.21L10.37 7.21C9.94 7.56 9.87 8.19 10.21 8.62C10.56 9.05 11.19 9.12 11.62 8.78L12.49 8.08L12.49 14.5C12.49 15.05 12.94 15.5 13.49 15.5ZM7.49 6C7.49 5.44 7.05 5 6.49 5C5.94 5 5.49 5.44 5.49 6L5.49 12.41L4.62 11.71C4.19 11.37 3.56 11.44 3.21 11.87C2.87 12.3 2.94 12.93 3.37 13.28L5.87 15.28C6.24 15.57 6.75 15.57 7.12 15.28L9.62 13.28C10.05 12.93 10.12 12.3 9.78 11.87C9.43 11.44 8.8 11.37 8.37 11.71L7.49 12.41L7.49 6Z" fill="#1F1F22" fill-opacity="1.000000" fill-rule="evenodd"/>
</svg>
