<svg width="20.000000" height="20.000000" viewBox="0 0 20 20" fill="none" xmlns="http://www.w3.org/2000/svg" xmlns:xlink="http://www.w3.org/1999/xlink">
	<desc>
			Created with Pixso.
	</desc>
	<defs/>
	<path id="Union" d="M2 10C2 5.58 5.58 2 10 2C12.52 2 14.77 3.16 16.24 5L13.5 5C12.94 5 12.5 5.44 12.5 6C12.5 6.55 12.94 7 13.5 7L18.5 7C19.05 7 19.5 6.55 19.5 6L19.5 1C19.5 0.44 19.05 0 18.5 0C17.94 0 17.5 0.44 17.5 1L17.5 3.38C15.66 1.31 12.98 0 10 0C4.47 0 0 4.47 0 10C0 15.52 4.47 20 10 20C15.52 20 20 15.52 20 10C20 9.44 19.55 9 19 9C18.44 9 18 9.44 18 10C18 14.41 14.41 18 10 18C5.58 18 2 14.41 2 10Z" fill="#1F1F22" fill-opacity="1.000000" fill-rule="nonzero"/>
</svg>
