<svg width="32" height="32" viewBox="0 0 32 32" fill="none" xmlns="http://www.w3.org/2000/svg">
<path fill-rule="evenodd" clip-rule="evenodd" d="M16 9C16.3806 9.00001 16.728 9.21629 16.8965 9.55762L18.4268 12.6582L21.8506 13.1562C22.2271 13.2111 22.5396 13.4751 22.6572 13.8369C22.7748 14.1989 22.6769 14.5966 22.4043 14.8623L19.9277 17.2754L20.5127 20.6846C20.577 21.0597 20.4222 21.4394 20.1143 21.6631C19.8064 21.8867 19.3984 21.9163 19.0615 21.7393L16 20.1289L12.9385 21.7393C12.6016 21.9163 12.1936 21.8867 11.8857 21.6631C11.5778 21.4394 11.423 21.0597 11.4873 20.6846L12.0713 17.2754L9.5957 14.8623C9.32313 14.5966 9.22515 14.1989 9.34277 13.8369C9.46036 13.4751 9.77293 13.2111 10.1494 13.1562L13.5723 12.6582L15.1035 9.55762L15.1748 9.43555C15.3594 9.16556 15.667 9 16 9ZM15.1338 14.0156C14.9882 14.3106 14.7064 14.5151 14.3809 14.5625L12.4424 14.8438L13.8447 16.2109C14.0803 16.4406 14.1883 16.7715 14.1328 17.0957L13.8008 19.0254L15.5342 18.1152L15.6465 18.0645C15.9122 17.964 16.211 17.9813 16.4658 18.1152L18.1982 19.0254L17.8672 17.0957C17.8117 16.7715 17.9197 16.4406 18.1553 16.2109L19.5566 14.8438L17.6191 14.5625C17.2936 14.5151 17.0118 14.3106 16.8662 14.0156L16 12.2588L15.1338 14.0156Z" fill="#1F1F22"/>
<path fill-rule="evenodd" clip-rule="evenodd" d="M16 4C22.6274 4 28 9.37258 28 16C28 18.2791 27.3625 20.4114 26.2578 22.2275C26.2781 22.2826 26.3 22.3416 26.3232 22.4043C26.4675 22.7941 26.6634 23.3234 26.8711 23.8789C27.2916 25.0037 27.7443 26.1981 27.9189 26.6064C28.0797 26.9822 27.996 27.418 27.707 27.707C27.418 27.996 26.9822 28.0797 26.6064 27.9189C26.2789 27.7788 25.0864 27.327 23.9395 26.8965C23.3739 26.6842 22.8302 26.4809 22.4277 26.3311C22.3568 26.3046 22.29 26.2797 22.2285 26.2568C20.4121 27.362 18.2795 28 16 28C9.37258 28 4 22.6274 4 16C4 9.37258 9.37258 4 16 4ZM16 6C10.4772 6 6 10.4772 6 16C6 21.5228 10.4772 26 16 26C18.0574 26 19.9671 25.38 21.5557 24.3164L21.6592 24.2559C21.9063 24.1302 22.1966 24.1114 22.46 24.209L22.4609 24.21L22.4629 24.2109C22.4649 24.2117 22.4679 24.2125 22.4717 24.2139C22.4797 24.2168 22.4924 24.2208 22.5078 24.2266C22.5387 24.238 22.5839 24.2549 22.6416 24.2764C22.7574 24.3194 22.9234 24.3819 23.125 24.457C23.5284 24.6073 24.0748 24.8103 24.6426 25.0234C24.8438 25.099 25.049 25.177 25.2529 25.2539C25.1679 25.0279 25.0809 24.8008 24.998 24.5791C24.7894 24.0209 24.592 23.4898 24.4473 23.0986C24.375 22.9033 24.3157 22.7427 24.2744 22.6309C24.2538 22.5749 24.2375 22.5308 24.2266 22.501C24.2211 22.4861 24.2167 22.4745 24.2139 22.4668C24.2125 22.4631 24.2116 22.4599 24.2109 22.458L24.21 22.4561C24.0995 22.1557 24.1394 21.8196 24.3174 21.5537C25.3802 19.9655 26 18.0567 26 16C26 10.4772 21.5228 6 16 6Z" fill="#1F1F22"/>
</svg>
