<svg width="24" height="24" viewBox="0 0 24 24" fill="none" xmlns="http://www.w3.org/2000/svg">
<path d="M15.7735 3.06512C17.6559 2.77296 19.6166 3.44855 20.8695 5.27055C23.0146 8.39004 21.8034 11.8535 19.822 14.5665C17.8185 17.3096 14.7964 19.6528 12.4688 20.8839C12.1772 21.0381 11.8291 21.0381 11.5375 20.8839C9.20998 19.6528 6.18786 17.3096 4.18436 14.5665C2.20298 11.8535 0.991789 8.39004 3.13684 5.27055C4.38974 3.44855 6.35048 2.77296 8.23288 3.06512C9.63555 3.28289 10.984 4.032 12.0032 5.20491C13.0223 4.032 14.3708 3.28289 15.7735 3.06512ZM19.2235 6.41099C18.4408 5.27264 17.266 4.86391 16.079 5.04815C14.8672 5.23629 13.6263 6.05466 12.8818 7.43288C12.7069 7.7562 12.3698 7.95802 12.0032 7.95802C11.6366 7.95802 11.2994 7.7562 11.1245 7.43288C10.38 6.05466 9.13918 5.23629 7.92731 5.04815C6.74033 4.86391 5.56556 5.27264 4.7828 6.41099C3.38291 8.4471 3.97773 10.89 5.79615 13.38C7.46259 15.6617 9.96982 17.6811 12.0032 18.85C14.0365 17.6811 16.5438 15.6617 18.2102 13.38C20.0286 10.89 20.6234 8.4471 19.2235 6.41099Z" fill="#1F1F22"/>
</svg>
