<svg width="32" height="32" viewBox="0 0 32 32" fill="none" xmlns="http://www.w3.org/2000/svg">
<path d="M14 20.5C14.5523 20.5 15 20.9477 15 21.5C15 22.0523 14.5523 22.5 14 22.5H10C9.44772 22.5 9 22.0523 9 21.5C9 20.9477 9.44772 20.5 10 20.5H14Z" fill="#1F1F22"/>
<path d="M18 17C18.5523 17 19 17.4477 19 18C19 18.5523 18.5523 19 18 19H10C9.44772 19 9 18.5523 9 18C9 17.4477 9.44772 17 10 17H18Z" fill="#1F1F22"/>
<path d="M9 8C9.55228 8 10 8.44772 10 9C10 9.55228 9.55228 10 9 10C8.44772 10 8 9.55228 8 9C8 8.44772 8.44772 8 9 8Z" fill="#1F1F22"/>
<path d="M13 8C13.5523 8 14 8.44772 14 9C14 9.55228 13.5523 10 13 10C12.4477 10 12 9.55228 12 9C12 8.44772 12.4477 8 13 8Z" fill="#1F1F22"/>
<path d="M17 8C17.5523 8 18 8.44772 18 9C18 9.55228 17.5523 10 17 10C16.4477 10 16 9.55228 16 9C16 8.44772 16.4477 8 17 8Z" fill="#1F1F22"/>
<path fill-rule="evenodd" clip-rule="evenodd" d="M25 4C26.6569 4 28 5.34315 28 7V25C28 26.6569 26.6569 28 25 28H7C5.34315 28 4 26.6569 4 25V7C4 5.34315 5.34315 4 7 4H25ZM6 25C6 25.5523 6.44772 26 7 26H25C25.5523 26 26 25.5523 26 25V14H6V25ZM7 6C6.44771 6 6 6.44772 6 7V12H26V7C26 6.44771 25.5523 6 25 6H7Z" fill="#1F1F22"/>
</svg>
