<svg width="32" height="32" viewBox="0 0 32 32" fill="none" xmlns="http://www.w3.org/2000/svg">
<path d="M17.9857 4.16366C17.4409 4.07288 16.9257 4.44092 16.8349 4.9857C16.7441 5.53047 17.1122 6.04568 17.657 6.13646C21.8572 6.83634 25.1737 10.1577 25.8664 14.3603C25.9562 14.9053 26.4707 15.2742 27.0157 15.1844C27.5606 15.0946 27.9296 14.58 27.8397 14.0351C27.0079 8.98777 23.03 5.00419 17.9857 4.16366Z" fill="#1F1F22"/>
<path fill-rule="evenodd" clip-rule="evenodd" d="M17.5612 19.9061L18.714 18.7466C19.7839 17.6767 21.276 17.6322 22.3788 18.6121L22.5204 18.7457L24.4351 20.6497L25.1455 21.3698C26.2374 22.4617 26.2829 23.9544 25.282 25.0796L25.1455 25.2243L24.202 26.1529L23.9824 26.3791C23.9486 26.4147 23.916 26.4496 23.884 26.4843L23.6968 26.6932C22.8259 27.6522 21.7068 28.0557 20.3612 27.9939C18.9187 27.9233 17.523 27.4921 15.9604 26.7251C13.0238 25.2918 10.4876 23.3076 8.39275 20.8081C6.72786 18.8653 5.47789 16.8199 4.66874 14.6258C4.16964 13.2741 3.94059 12.1297 4.01315 10.9325C4.07654 9.95859 4.46612 9.12235 5.17866 8.43967L5.34352 8.28108L6.68525 6.95232L6.94599 6.70395C8.05013 5.72278 9.54325 5.76736 10.6131 6.8372L11.9362 8.16035L12.993 9.20902L13.3534 9.58558C14.3292 10.6787 14.3297 12.0725 13.3673 13.1534L13.1042 13.4295L12.5846 13.9537L11.9146 14.6054C12.1941 15.1639 12.5585 15.7074 13.0363 16.2949C14.1944 17.7252 15.4648 18.8944 16.8443 19.7747L17.0275 19.8786C17.0605 19.8963 17.0954 19.9146 17.1333 19.9341L17.4031 20.0681L17.5612 19.9061ZM16.2319 21.7194L16.2203 21.7135C16.1729 21.6892 16.1267 21.665 16.0811 21.6405L16.0609 21.6297L15.8123 21.4887L15.7683 21.4606C14.1813 20.4478 12.7549 19.1253 11.4832 17.5551C10.9388 16.8855 10.4861 16.22 10.126 15.5004L9.47124 14.1919L11.177 12.5328L11.6698 12.0356L11.891 11.8035C12.0651 11.6004 12.0874 11.4534 12.0872 11.3799C12.087 11.3058 12.0632 11.1517 11.8795 10.9382L11.5659 10.6105L10.522 9.57456L9.19886 8.25141C8.99077 8.04331 8.81955 8.00357 8.72352 8.00026C8.63166 7.99709 8.48171 8.02244 8.29437 8.18169L8.07876 8.38707L6.74053 9.71236L6.56229 9.88383C6.20974 10.2216 6.0406 10.5887 6.0092 11.0583C5.95945 11.8917 6.10768 12.7489 6.54492 13.933C7.26031 15.8729 8.37758 17.7169 9.9114 19.5067L9.91854 19.515L9.92559 19.5234C11.8403 21.808 14.1531 23.6175 16.8376 24.9277L16.8416 24.9297C18.2446 25.6183 19.3684 25.9424 20.4558 25.9961C21.2881 26.0338 21.7979 25.8073 22.2124 25.3529L22.4039 25.1391L22.4136 25.1287C22.452 25.087 22.4909 25.0454 22.5307 25.0034L22.5391 24.9945L22.783 24.7434L23.7162 23.8248L23.8027 23.7332C23.979 23.5279 24.0028 23.3708 23.9997 23.2821C23.9965 23.1895 23.9576 23.0104 23.7313 22.784L23.7217 22.7745L23.018 22.0611L21.1286 20.1822L21.0331 20.0921C20.8455 19.9317 20.6953 19.9063 20.6035 19.9095C20.5081 19.9128 20.3375 19.9522 20.1299 20.1592L20.1282 20.1608L18.9861 21.3096L17.8177 22.5072L16.2319 21.7194Z" fill="#1F1F22"/>
<path d="M16.1799 8.93133C16.2713 8.38665 16.7869 8.01915 17.3316 8.11049C20.6853 8.6729 23.3296 11.3184 23.8902 14.6728C23.9813 15.2175 23.6135 15.7329 23.0688 15.8239C22.524 15.915 22.0086 15.5472 21.9176 15.0025C21.4977 12.49 19.5128 10.5042 17.0008 10.0829C16.4561 9.9916 16.0886 9.47601 16.1799 8.93133Z" fill="#1F1F22"/>
</svg>
