<svg width="24.000000" height="24.000000" viewBox="0 0 24 24" fill="none" xmlns="http://www.w3.org/2000/svg" xmlns:xlink="http://www.w3.org/1999/xlink">
	<desc>
			Created with Pixso.
	</desc>
	<defs/>
	<path id="Union" d="M13.88 2.04C13.84 2.03 13.79 2.02 13.74 2.01L13.58 2L10.39 2C10.12 2 9.88 2.1 9.69 2.28C9.58 2.38 9.5 2.52 9.45 2.67L8.85 4.4L8.85 4.4L8.84 4.4L7.2 3.6C7.15 3.58 7.1 3.56 7.05 3.54C6.8 3.47 6.53 3.49 6.31 3.61C6.21 3.66 6.13 3.72 6.05 3.79L3.79 6.05C3.76 6.09 3.72 6.13 3.69 6.17C3.51 6.43 3.45 6.75 3.54 7.05C3.56 7.1 3.58 7.15 3.6 7.2L4.4 8.84L4.4 8.85L4.4 8.85L2.67 9.45C2.27 9.58 2 9.96 2 10.39L2 13.58C2 14.01 2.27 14.39 2.67 14.53L4.4 15.13L4.4 15.13L4.4 15.13L4.4 15.13L3.6 16.79C3.5 16.98 3.48 17.19 3.51 17.39C3.54 17.59 3.64 17.78 3.79 17.93L6.04 20.19C6.34 20.49 6.8 20.56 7.19 20.38L8.84 19.57C8.84 19.57 8.85 19.57 8.85 19.57L8.85 19.57L8.85 19.57L9.45 21.32C9.59 21.72 9.97 22 10.4 22L13.58 22C14 22 14.38 21.72 14.52 21.32L15.13 19.57L15.13 19.57L15.13 19.57L15.13 19.57L16.8 20.38C16.94 20.45 17.1 20.49 17.25 20.48C17.4 20.48 17.55 20.44 17.69 20.37C17.78 20.33 17.87 20.27 17.94 20.19L20.19 17.94C20.27 17.87 20.33 17.78 20.37 17.69C20.42 17.6 20.45 17.5 20.47 17.4C20.5 17.2 20.48 16.99 20.38 16.8L19.57 15.13L19.57 15.13L19.57 15.13C19.57 15.13 19.57 15.13 19.57 15.13L21.32 14.52C21.47 14.47 21.61 14.39 21.71 14.28C21.89 14.09 22 13.84 22 13.58L22 10.4C22 10.34 21.99 10.29 21.98 10.24C21.93 9.88 21.67 9.57 21.32 9.45L19.57 8.85L19.57 8.85L19.57 8.84L19.57 8.84L20.38 7.19C20.56 6.8 20.49 6.34 20.19 6.04L17.93 3.79C17.74 3.6 17.49 3.5 17.24 3.5C17.08 3.49 16.93 3.53 16.79 3.6L15.13 4.4L15.13 4.4C15.13 4.4 15.13 4.4 15.13 4.4L14.53 2.67C14.51 2.62 14.49 2.57 14.47 2.53C14.46 2.52 14.46 2.51 14.45 2.5C14.43 2.47 14.41 2.44 14.39 2.41C14.38 2.39 14.37 2.37 14.35 2.36C14.34 2.34 14.32 2.32 14.3 2.3C14.29 2.28 14.27 2.27 14.25 2.25C14.23 2.24 14.21 2.22 14.19 2.2C14.17 2.19 14.16 2.18 14.14 2.17C14.12 2.15 14.1 2.14 14.07 2.13C14.05 2.11 14.03 2.1 14.01 2.09C13.99 2.08 13.96 2.07 13.93 2.06C13.92 2.05 13.9 2.05 13.88 2.04ZM7.97 6.2C9.05 6.73 10.35 6.19 10.74 5.05L11.1 4L12.87 4L13.24 5.05C13.58 6.04 14.59 6.57 15.56 6.35C15.59 6.35 15.61 6.34 15.64 6.33C15.76 6.3 15.89 6.26 16.01 6.2L17.02 5.71L18.27 6.95L17.77 7.97C17.74 8.03 17.71 8.1 17.69 8.17C17.32 9.21 17.86 10.37 18.92 10.74L20 11.11L20 12.87L18.92 13.24C18.21 13.48 17.73 14.08 17.61 14.76C17.57 14.96 17.56 15.17 17.59 15.38C17.6 15.45 17.61 15.52 17.62 15.59C17.66 15.73 17.71 15.87 17.77 16.01L18.27 17.03L17.03 18.27L16.01 17.77C15.87 17.71 15.73 17.66 15.59 17.62C14.62 17.39 13.58 17.93 13.24 18.92L12.87 20L11.11 20L10.74 18.92C10.35 17.79 9.05 17.25 7.97 17.77L6.95 18.27L5.71 17.02L6.2 16.01C6.27 15.87 6.32 15.73 6.35 15.59C6.42 15.31 6.42 15.03 6.37 14.76C6.24 14.08 5.76 13.48 5.05 13.24L4 12.87L4 11.1L5.05 10.74C5.83 10.47 6.33 9.77 6.4 9.01C6.43 8.66 6.37 8.3 6.2 7.97L5.71 6.96L6.96 5.71L7.97 6.2ZM16 12C16 9.79 14.2 8 12 8C9.79 8 8 9.79 8 12C8 14.2 9.79 16 12 16C14.2 16 16 14.2 16 12ZM10 12C10 10.89 10.89 10 12 10C13.1 10 14 10.89 14 12C14 13.1 13.1 14 12 14C10.89 14 10 13.1 10 12Z" fill="#1F1F22" fill-opacity="1.000000" fill-rule="evenodd"/>
</svg>
