<svg width="32" height="32" viewBox="0 0 32 32" fill="none" xmlns="http://www.w3.org/2000/svg">
<path d="M23 22C23.5523 22 24 22.4477 24 23V26C24 27.6569 22.6569 29 21 29H11C9.39489 29 8.08421 27.7394 8.00391 26.1543L8 26V23C8 22.4477 8.44772 22 9 22C9.55228 22 10 22.4477 10 23V26L10.0049 26.1025C10.0562 26.6067 10.4823 27 11 27H21C21.5523 27 22 26.5523 22 26V23C22 22.4477 22.4477 22 23 22Z" fill="#1F1F22"/>
<path d="M11 12C11.5523 12 12 12.4477 12 13V18.959C12.0017 19.0004 11.9986 19.0418 11.9951 19.083C11.9943 19.0928 11.9942 19.1026 11.9932 19.1123C11.9867 19.1691 11.975 19.2252 11.959 19.2803C11.9567 19.2881 11.9546 19.296 11.9521 19.3037C11.9465 19.3215 11.9402 19.339 11.9336 19.3564C11.9287 19.3692 11.9243 19.3821 11.9189 19.3945C11.8588 19.535 11.766 19.664 11.6406 19.7686C11.5648 19.8318 11.4818 19.8808 11.3955 19.918C11.3836 19.9231 11.3715 19.9279 11.3594 19.9326C11.34 19.9401 11.3205 19.9469 11.3008 19.9531C11.2963 19.9545 11.2917 19.9557 11.2871 19.957C11.2593 19.9654 11.2314 19.9727 11.2031 19.9785C11.2006 19.979 11.1979 19.979 11.1953 19.9795C11.1683 19.9848 11.1415 19.9901 11.1143 19.9932C11.1029 19.9945 11.0915 19.9952 11.0801 19.9961C11.0602 19.9977 11.0404 19.9986 11.0205 19.999C11.0137 19.9992 11.0069 20 11 20C10.9931 20 10.9863 19.9992 10.9795 19.999C10.9628 19.9987 10.9463 19.9973 10.9297 19.9961C10.9127 19.9949 10.8957 19.9942 10.8789 19.9922C10.8592 19.9898 10.8398 19.986 10.8203 19.9824C10.8112 19.9808 10.802 19.9794 10.793 19.9775C10.768 19.9723 10.7433 19.9661 10.7188 19.959C10.7119 19.957 10.705 19.9553 10.6982 19.9531C10.6844 19.9488 10.6709 19.9434 10.6572 19.9385C10.633 19.9296 10.6093 19.9198 10.5859 19.9092C10.4826 19.8623 10.3854 19.7987 10.3008 19.7158L10.2314 19.6406L7 15.7627V19C7 19.5523 6.55228 20 6 20C5.44772 20 5 19.5523 5 19V12.9873C5.00031 12.9635 5.00191 12.9397 5.00391 12.916C5.00472 12.9062 5.00477 12.8964 5.00586 12.8867C5.01232 12.83 5.02398 12.7738 5.04004 12.7188C5.04233 12.7109 5.0444 12.7031 5.04688 12.6953C5.05252 12.6776 5.05878 12.66 5.06543 12.6426C5.07071 12.6288 5.07616 12.6151 5.08203 12.6016C5.14222 12.4625 5.23508 12.3351 5.35938 12.2314C5.43509 12.1684 5.51736 12.1182 5.60352 12.0811C5.61531 12.076 5.62762 12.072 5.63965 12.0674C5.65913 12.0599 5.67845 12.0521 5.69824 12.0459C5.70305 12.0444 5.70805 12.0434 5.71289 12.042C5.74038 12.0338 5.76798 12.0263 5.7959 12.0205C5.79846 12.02 5.80114 12.02 5.80371 12.0195C5.83065 12.0142 5.85758 12.009 5.88477 12.0059C5.89608 12.0046 5.90752 12.0038 5.91895 12.0029C5.9391 12.0013 5.95931 12.0014 5.97949 12.001C5.98632 12.0008 5.99314 12 6 12C6.00686 12 6.01368 12.0008 6.02051 12.001C6.03682 12.0013 6.05307 12.0018 6.06934 12.0029C6.08636 12.0041 6.10334 12.0048 6.12012 12.0068C6.13978 12.0092 6.15921 12.0131 6.17871 12.0166C6.18621 12.018 6.19374 12.019 6.20117 12.0205L6.2207 12.0244C6.24072 12.0289 6.26053 12.0343 6.28027 12.04C6.28711 12.042 6.29401 12.0438 6.30078 12.0459C6.31463 12.0502 6.32813 12.0556 6.3418 12.0605C6.36605 12.0694 6.38975 12.0792 6.41309 12.0898C6.46156 12.1118 6.50874 12.1371 6.55371 12.167L6.55957 12.1709L6.56348 12.1738C6.61113 12.2063 6.65688 12.2427 6.69922 12.2842L6.76855 12.3594L10 16.2363V13C10 12.4477 10.4477 12 11 12Z" fill="#1F1F22"/>
<path d="M17 12C17.5523 12 18 12.4477 18 13C18 13.5523 17.5523 14 17 14H15V15H16C16.5523 15 17 15.4477 17 16C17 16.5523 16.5523 17 16 17H15V18H17C17.5523 18 18 18.4477 18 19C18 19.5523 17.5523 20 17 20H14L13.8975 19.9951C13.427 19.9472 13.0528 19.573 13.0049 19.1025L13 19V13C13 12.4477 13.4477 12 14 12H17Z" fill="#1F1F22"/>
<path d="M25.5596 12.6592C25.7316 12.1826 26.2401 11.9049 26.7422 12.0303C27.2446 12.1559 27.5631 12.6408 27.4902 13.1426L27.4697 13.2422L25.9629 19.2695C25.9602 19.2791 25.9561 19.2883 25.9531 19.2979L25.9404 19.3408C25.939 19.3449 25.9361 19.3485 25.9346 19.3525C25.9322 19.3587 25.9302 19.365 25.9277 19.3711C25.9193 19.3924 25.9102 19.4132 25.9004 19.4336C25.8839 19.4679 25.8651 19.5009 25.8447 19.5332C25.8008 19.6029 25.7499 19.6668 25.6914 19.7227C25.6337 19.778 25.5677 19.8253 25.4961 19.8662C25.486 19.872 25.4762 19.8783 25.4658 19.8838C25.4516 19.8913 25.4366 19.8974 25.4219 19.9043C25.4092 19.9102 25.3967 19.9165 25.3838 19.9219C25.3794 19.9237 25.3755 19.9269 25.3711 19.9287C25.3574 19.9342 25.3429 19.9375 25.3291 19.9424C25.3187 19.946 25.3084 19.9498 25.2979 19.9531C25.2799 19.9587 25.2621 19.9642 25.2441 19.9688C25.2321 19.9718 25.2202 19.975 25.208 19.9775C25.1553 19.9888 25.1025 19.9954 25.0498 19.998C25.043 19.9984 25.0361 19.9979 25.0293 19.998C24.6602 20.0088 24.3057 19.8149 24.123 19.4805C24.1213 19.4773 24.1199 19.4739 24.1182 19.4707C24.1171 19.4686 24.1153 19.4669 24.1143 19.4648L24.0996 19.4336C24.0917 19.4172 24.0842 19.4006 24.0771 19.3838L24.0713 19.3711L23 16.6924L21.9287 19.3711L21.9219 19.3838C21.9148 19.4006 21.9074 19.4172 21.8994 19.4336L21.8857 19.4648C21.8846 19.4671 21.882 19.4685 21.8809 19.4707C21.8792 19.4738 21.8786 19.4774 21.877 19.4805C21.6941 19.8152 21.3391 20.0092 20.9697 19.998C20.9629 19.9978 20.956 19.9984 20.9492 19.998C20.8965 19.9954 20.8437 19.9889 20.791 19.9775C20.7789 19.9749 20.7669 19.9718 20.7549 19.9688C20.7369 19.9642 20.7191 19.9588 20.7012 19.9531C20.6906 19.9498 20.6803 19.946 20.6699 19.9424C20.6564 19.9376 20.6424 19.9341 20.6289 19.9287C20.6242 19.9268 20.6199 19.9238 20.6152 19.9219C20.6023 19.9165 20.5898 19.9102 20.5771 19.9043C20.5624 19.8974 20.5475 19.8913 20.5332 19.8838C20.5229 19.8783 20.5131 19.872 20.5029 19.8662C20.4316 19.8254 20.3661 19.7778 20.3086 19.7227C20.2499 19.6667 20.1983 19.603 20.1543 19.5332C20.1348 19.5022 20.1166 19.4704 20.1006 19.4375L20.0957 19.4277C20.087 19.4093 20.0799 19.3902 20.0723 19.3711C20.0698 19.3649 20.0668 19.3588 20.0645 19.3525C20.063 19.3486 20.061 19.3448 20.0596 19.3408L20.0469 19.2979C20.0439 19.2883 20.0398 19.2791 20.0371 19.2695L18.5303 13.2422L18.5098 13.1426C18.4369 12.6408 18.7554 12.1559 19.2578 12.0303C19.7599 11.9049 20.2684 12.1826 20.4404 12.6592L20.4697 12.7578L21.2197 15.7578L22.0713 13.6289L22.084 13.6006C22.0895 13.5879 22.0945 13.575 22.1006 13.5625L22.1143 13.5352C22.1188 13.5265 22.1241 13.5183 22.1289 13.5098C22.1368 13.4957 22.1447 13.4815 22.1533 13.4678C22.1802 13.4249 22.2098 13.3843 22.2422 13.3467C22.2473 13.3407 22.2526 13.3349 22.2578 13.3291C22.2913 13.2921 22.3271 13.2578 22.3652 13.2266C22.377 13.2169 22.3891 13.2074 22.4014 13.1982C22.4113 13.1908 22.4215 13.1838 22.4316 13.1768C22.445 13.1676 22.4588 13.159 22.4727 13.1504C22.5198 13.1212 22.5689 13.0952 22.6201 13.0742C22.623 13.073 22.626 13.0724 22.6289 13.0713L22.6318 13.0693C22.6555 13.06 22.6798 13.0525 22.7041 13.0449C22.711 13.0428 22.7177 13.0401 22.7246 13.0381C22.7404 13.0336 22.7565 13.0301 22.7725 13.0264C22.8177 13.0157 22.8629 13.0071 22.9082 13.0029C22.9266 13.0012 22.9453 13.0017 22.9639 13.001C22.9743 13.0006 22.9847 13 22.9951 13H23.0049C23.015 13 23.025 13.0006 23.0352 13.001C23.0537 13.0016 23.0724 13.0012 23.0908 13.0029C23.1362 13.0071 23.1814 13.0158 23.2266 13.0264C23.2426 13.0301 23.2586 13.0336 23.2744 13.0381C23.2813 13.0401 23.288 13.0428 23.2949 13.0449C23.3192 13.0524 23.3435 13.06 23.3672 13.0693L23.3711 13.0713C23.3737 13.0723 23.3763 13.0732 23.3789 13.0742C23.4302 13.0952 23.4792 13.1212 23.5264 13.1504C23.5403 13.159 23.554 13.1676 23.5674 13.1768C23.5776 13.1838 23.5877 13.1908 23.5977 13.1982C23.61 13.2074 23.622 13.2169 23.6338 13.2266C23.6477 13.2379 23.6615 13.2496 23.6748 13.2617C23.6837 13.2698 23.6917 13.2787 23.7002 13.2871C23.7141 13.3008 23.728 13.3145 23.7412 13.3291C23.7465 13.3349 23.7517 13.3407 23.7568 13.3467C23.7719 13.3642 23.7858 13.3827 23.7998 13.4014C23.8048 13.4081 23.8096 13.415 23.8145 13.4219C23.8251 13.4369 23.8358 13.452 23.8457 13.4678C23.8543 13.4815 23.8622 13.4956 23.8701 13.5098C23.875 13.5184 23.8811 13.5263 23.8857 13.5352L23.8916 13.5488C23.9002 13.5658 23.9074 13.5832 23.915 13.6006L23.9287 13.6289L24.7803 15.7578L25.5303 12.7578L25.5596 12.6592Z" fill="#1F1F22"/>
<path d="M21 3C22.6569 3 24 4.34315 24 6V9C24 9.55228 23.5523 10 23 10C22.4477 10 22 9.55228 22 9V6C22 5.44772 21.5523 5 21 5H19L18.9951 5.10254C18.9438 5.60667 18.5177 6 18 6H14C13.4477 6 13 5.55228 13 5H11C10.4477 5 10 5.44772 10 6V9C10 9.55228 9.55228 10 9 10C8.44772 10 8 9.55228 8 9V6C8 4.34315 9.34315 3 11 3H21Z" fill="#1F1F22"/>
</svg>
