<svg width="32" height="32" viewBox="0 0 32 32" fill="none" xmlns="http://www.w3.org/2000/svg">
<path d="M16 4C16.5523 4 17 4.44772 17 5C17 5.55228 16.5523 6 16 6H10C9.44772 6 9 6.44772 9 7V24C9 24.5523 9.44772 25 10 25H22C22.5523 25 23 24.5523 23 24V19C23 18.4477 23.4477 18 24 18C24.5523 18 25 18.4477 25 19V24C25 25.6569 23.6569 27 22 27H10C8.34315 27 7 25.6569 7 24V7C7 5.34315 8.34315 4 10 4H16Z" fill="#1F1F22"/>
<path d="M20 20C20.5523 20 21 20.4477 21 21C21 21.5523 20.5523 22 20 22H12C11.4477 22 11 21.5523 11 21C11 20.4477 11.4477 20 12 20H20Z" fill="#1F1F22"/>
<path d="M15 16C15.5523 16 16 16.4477 16 17C16 17.5523 15.5523 18 15 18H12C11.4477 18 11 17.5523 11 17C11 16.4477 11.4477 16 12 16H15Z" fill="#1F1F22"/>
<path fill-rule="evenodd" clip-rule="evenodd" d="M24.3701 9.33789C24.8849 8.90779 25.609 8.8983 26.1338 9.25293L26.2363 9.3291L26.2373 9.33008C27.3521 10.2377 28 11.5897 28 13C28 13.1414 28.0109 13.5562 27.8955 13.9326C27.833 14.1364 27.7111 14.412 27.459 14.6396C27.1856 14.8866 26.843 15.0019 26.4912 15.002H19.5C19.1481 15.0019 18.8036 14.8864 18.5293 14.6357C18.277 14.405 18.1568 14.1264 18.0967 13.9229C17.9863 13.549 18 13.1317 18 13C18 11.6223 18.6225 10.25 19.7139 9.33789L19.7148 9.33691C20.2295 8.90844 20.9516 8.89859 21.4766 9.25293L21.5791 9.32812L21.5811 9.33008C21.9795 9.65452 22.4767 9.84178 22.9658 9.8418C23.4872 9.84171 23.9863 9.65833 24.3701 9.33789ZM25.2666 11.1562C24.5896 11.5993 23.7892 11.8417 22.9658 11.8418C22.1438 11.8418 21.3607 11.5819 20.7041 11.1572C20.2543 11.6674 20 12.3384 20 13V13.002H26V13C26 12.3296 25.7392 11.6679 25.2666 11.1562Z" fill="#1F1F22"/>
<path d="M15 12C15.5523 12 16 12.4477 16 13C16 13.5523 15.5523 14 15 14H12C11.4477 14 11 13.5523 11 13C11 12.4477 11.4477 12 12 12H15Z" fill="#1F1F22"/>
<path fill-rule="evenodd" clip-rule="evenodd" d="M23 3C24.6569 3 26 4.34315 26 6C26 7.65685 24.6569 9 23 9C21.3431 9 20 7.65685 20 6C20 4.34315 21.3431 3 23 3ZM23 5C22.4477 5 22 5.44772 22 6C22 6.55228 22.4477 7 23 7C23.5523 7 24 6.55228 24 6C24 5.44772 23.5523 5 23 5Z" fill="#1F1F22"/>
</svg>
