<svg width="16.000000" height="16.000000" viewBox="0 0 16 16" fill="none" xmlns="http://www.w3.org/2000/svg" xmlns:xlink="http://www.w3.org/1999/xlink">
	<desc>
			Created with Pixso.
	</desc>
	<defs/>
	<path id="Union" d="M2.5 9.49C1.67 9.49 1 8.82 1 7.99C1 7.17 1.67 6.49 2.5 6.49C3.32 6.49 4 7.17 4 7.99C4 8.82 3.32 9.49 2.5 9.49ZM8 9.49C7.17 9.49 6.5 8.82 6.5 7.99C6.5 7.17 7.17 6.49 8 6.49C8.82 6.49 9.5 7.17 9.5 7.99C9.5 8.82 8.82 9.49 8 9.49ZM12 7.99C12 8.82 12.67 9.49 13.5 9.49C14.32 9.49 15 8.82 15 7.99C15 7.17 14.32 6.49 13.5 6.49C12.67 6.49 12 7.17 12 7.99Z" fill="#1F1F22" fill-opacity="1.000000" fill-rule="evenodd"/>
</svg>
