<svg width="20" height="20" viewBox="0 0 20 20" fill="none" xmlns="http://www.w3.org/2000/svg">
<path d="M6 3.5C6.55228 3.5 7 3.94772 7 4.5C7 5.05228 6.55228 5.5 6 5.5H4C2.89543 5.5 2 6.39543 2 7.5V16.6953L3.49707 15.7598C4.29172 15.2631 5.21037 15 6.14746 15H13C14.1046 15 15 14.1046 15 13V11.5C15 10.9477 15.4477 10.5 16 10.5C16.5523 10.5 17 10.9477 17 11.5V13C17 15.2091 15.2091 17 13 17H6.14746C5.58531 17 5.03435 17.1582 4.55762 17.4561L1.53027 19.3477C1.22215 19.5402 0.833496 19.551 0.515625 19.375C0.19767 19.1988 0 18.8635 0 18.5V7.5C1.28853e-07 5.29086 1.79086 3.5 4 3.5H6ZM17 0C18.6569 8.05319e-09 20 1.34315 20 3V9C20 9.35964 19.8068 9.69139 19.4941 9.86914C19.1815 10.0469 18.7973 10.0433 18.4883 9.85938L16.5615 8.71191C16.4068 8.61982 16.2299 8.57129 16.0498 8.57129H12C10.3431 8.57129 9 7.22814 9 5.57129V3C9 1.34315 10.3431 0 12 0H17ZM12 2C11.4477 2 11 2.44772 11 3V5.57129C11 6.12357 11.4477 6.57129 12 6.57129H16.0498C16.5898 6.57129 17.1199 6.71703 17.584 6.99316L18 7.24023V3C18 2.44772 17.5523 2 17 2H12Z" fill="#1F1F22"/>
</svg>
