<svg width="24" height="24" viewBox="0 0 24 24" fill="none" xmlns="http://www.w3.org/2000/svg">
<path fill-rule="evenodd" clip-rule="evenodd" d="M14.99 7.09621C15.07 5.67621 14.68 4.67621 14.02 4.08621C13.38 3.49621 12.53 3.37621 11.87 3.61621C11.25 3.84621 10.88 4.24621 10.69 4.71621C10.51 5.16621 10.5 5.63621 10.5 5.99621C10.5 7.63621 9.49 8.97621 8.64 9.80621L8.5 9.94621V20.4962H15.95C17.39 20.4962 18.68 19.6162 19.21 18.2762L21.32 12.9162C21.96 11.2762 20.75 9.49621 18.99 9.49621H14.66C14.67 9.45621 14.68 9.40621 14.69 9.36621C14.81 8.84621 14.94 8.08621 14.99 7.09621ZM2.5 11.9962C2.5 11.1662 3.17 10.4962 4 10.4962H6.5V20.4962H4C3.17 20.4962 2.5 19.8262 2.5 18.9962V11.9962Z" fill="#1F1F22"/>
</svg>
