<svg width="32" height="32" viewBox="0 0 32 32" fill="none" xmlns="http://www.w3.org/2000/svg">
<path d="M16 17C16.5533 17 17 17.4467 17 18C17 18.5533 16.5533 19 16 19C15.4467 19 15 18.5533 15 18C15 17.4467 15.4467 17 16 17Z" fill="#1F1F22"/>
<path d="M16 11C16.5523 11 17 11.4477 17 12V15C17 15.5523 16.5523 16 16 16C15.4477 16 15 15.5523 15 15V12C15 11.4477 15.4477 11 16 11Z" fill="#1F1F22"/>
<path fill-rule="evenodd" clip-rule="evenodd" d="M24 6C26.2091 6 28 7.79086 28 10V20C28 22.2091 26.2091 24 24 24H11.9082C11.5134 24 11.1273 24.1169 10.7988 24.3359L5.55469 27.832C5.2479 28.0366 4.85344 28.0557 4.52832 27.8818C4.20316 27.7078 4 27.3688 4 27V10C4 7.79086 5.79086 6 8 6H24ZM8 8C6.89543 8 6 8.89543 6 10V25.1309L9.68945 22.6719C10.3465 22.2339 11.1185 22 11.9082 22H24C25.1046 22 26 21.1046 26 20V10C26 8.89543 25.1046 8 24 8H8Z" fill="#1F1F22"/>
</svg>
