<svg width="16" height="16" viewBox="0 0 16 16" fill="none" xmlns="http://www.w3.org/2000/svg">
<path fill-rule="evenodd" clip-rule="evenodd" d="M5.0075 8C5.0075 6.33772 6.34522 5 8.0075 5C9.65653 5 11.0075 6.33446 11.0075 8C11.0075 9.65228 9.65979 11 8.0075 11C6.34196 11 5.0075 9.64903 5.0075 8ZM8.0075 7C7.44979 7 7.0075 7.44228 7.0075 8C7.0075 8.55097 7.45304 9 8.0075 9C8.55522 9 9.0075 8.54772 9.0075 8C9.0075 7.44554 8.55848 7 8.0075 7Z" fill="#1F1F22"/>
<path fill-rule="evenodd" clip-rule="evenodd" d="M0.281115 6.73753C1.58426 3.91606 4.58041 2 8.0075 2C11.4254 2 14.4211 3.91674 15.7239 6.73755C16.0987 7.53533 16.0987 8.45465 15.7239 9.25244C14.4221 12.0711 11.4278 14 8.0075 14C4.57794 14 1.58326 12.0718 0.281109 9.25246C-0.093705 8.45466 -0.0937029 7.53532 0.281115 6.73753ZM8.0075 4C5.31607 4 3.05332 5.50228 2.09557 7.57882L2.09197 7.58663C1.96939 7.84649 1.96936 8.14352 2.09193 8.40338L2.0956 8.41116C3.05434 10.4898 5.31853 12 8.0075 12C10.6857 12 12.9504 10.4905 13.9094 8.41118L13.913 8.40337C14.0356 8.14351 14.0356 7.84648 13.9131 7.58662L13.9094 7.57884C12.9513 5.50163 10.6882 4 8.0075 4Z" fill="#1F1F22"/>
</svg>
