<svg width="16.000000" height="16.000000" viewBox="0 0 16 16" fill="none" xmlns="http://www.w3.org/2000/svg" xmlns:xlink="http://www.w3.org/1999/xlink">
	<desc>
			Created with Pixso.
	</desc>
	<defs/>
	<path id="Union" d="M13.24 5.66C12.88 6.07 12.24 6.11 11.83 5.74L8 2.33L4.16 5.74C3.75 6.11 3.11 6.07 2.75 5.66C2.38 5.25 2.42 4.61 2.83 4.25L7.33 0.25C7.71 -0.09 8.28 -0.09 8.66 0.25L13.16 4.25C13.57 4.61 13.61 5.25 13.24 5.66ZM11.83 10.25C12.24 9.88 12.88 9.92 13.24 10.33C13.61 10.74 13.57 11.38 13.16 11.74L8.66 15.74C8.28 16.08 7.71 16.08 7.33 15.74L2.83 11.74C2.42 11.38 2.38 10.74 2.75 10.33C3.11 9.92 3.75 9.88 4.16 10.25L8 13.66L11.83 10.25Z" fill="#1F1F22" fill-opacity="1.000000" fill-rule="evenodd"/>
</svg>
