<svg width="64" height="64" viewBox="0 0 64 64" fill="none" xmlns="http://www.w3.org/2000/svg">
<path fill-rule="evenodd" clip-rule="evenodd" d="M0 32C0 49.6731 14.3269 64 32 64C49.6731 64 64 49.6731 64 32C64 14.3269 49.6731 0 32 0C14.3269 0 0 14.3269 0 32ZM34.713 16.469C35.4988 15.8069 36.6743 15.8458 37.4142 16.5858L37.531 16.713C38.1931 17.4988 38.1542 18.6743 37.4142 19.4142L24.829 32L37.4142 44.5858L37.531 44.713C38.1931 45.4988 38.1542 46.6743 37.4142 47.4142C36.6332 48.1953 35.3668 48.1953 34.5858 47.4142L20.5858 33.4142L20.469 33.287C19.8069 32.5012 19.8458 31.3257 20.5858 30.5858L34.5858 16.5858L34.713 16.469Z" fill="#D0D7DD"/>
</svg>
