<svg width="20" height="20" viewBox="0 0 20 20" fill="none" xmlns="http://www.w3.org/2000/svg">
<path d="M1 4C1 2.34315 2.34315 1 4 1H11C12.6569 1 14 2.34315 14 4V5.5C14 6.05228 13.5523 6.5 13 6.5C12.4477 6.5 12 6.05228 12 5.5V4C12 3.44772 11.5523 3 11 3H4C3.44772 3 3 3.44772 3 4V16C3 16.5523 3.44772 17 4 17H11C11.5523 17 12 16.5523 12 16V15C12 14.4477 12.4477 14 13 14C13.5523 14 14 14.4477 14 15V16C14 17.6569 12.6569 19 11 19H4C2.34315 19 1 17.6569 1 16V4Z" fill="#B2B8BF"/>
<path d="M16.5038 5.63168C16.9833 5.35767 17.5942 5.52427 17.8682 6.00379L19.8588 9.48739C19.9485 9.63729 20 9.81263 20 10C20 10.1886 19.9478 10.365 19.8571 10.5155L17.8682 13.9961C17.5942 14.4756 16.9833 14.6422 16.5038 14.3682C16.0243 14.0942 15.8577 13.4833 16.1317 13.0038L17.2767 11H10C9.44771 11 9 10.5523 9 10C9 9.44771 9.44771 9 10 9H17.2768L16.1317 6.99607C15.8577 6.51655 16.0243 5.90569 16.5038 5.63168Z" fill="#B2B8BF"/>
</svg>
