<svg width="64" height="62" viewBox="0 0 64 62" fill="none" xmlns="http://www.w3.org/2000/svg">
<path d="M50 32.6237V29.5533M20 49.9766H17.6C15.6118 49.9766 14 48.4118 14 46.4817V15.0277C14 13.0975 15.6118 11.5328 17.6 11.5328H32" stroke="black" stroke-width="2" stroke-linecap="round" stroke-linejoin="round"/>
<path d="M28.89 46.3721L25.25 49.8454L28.33 50.2835L29.534 53.0997L32.25 48.625" stroke="black" stroke-width="2" stroke-linecap="round" stroke-linejoin="round"/>
<path d="M45.61 46.3721L49.25 49.8454L46.17 50.2835L44.966 53.0997L42.25 48.625" stroke="black" stroke-width="2" stroke-linecap="round" stroke-linejoin="round"/>
<path fill-rule="evenodd" clip-rule="evenodd" d="M37.25 29.0732L39.3389 30.2311H41.7487L42.9562 32.2384L45.0451 33.3988V35.7145L46.25 37.7218L45.0451 39.7291V42.0474L42.9562 43.2052L41.7487 45.2125H39.3389L37.25 46.3729L35.1611 45.2125H32.7487L31.5438 43.2052L29.4549 42.0474V39.7291L28.25 37.7218L29.4549 35.7145V33.3988L31.5438 32.2384L32.7487 30.2311H35.1611L37.25 29.0732Z" stroke="black" stroke-width="2" stroke-linecap="round" stroke-linejoin="round"/>
<path d="M48.9912 5.85085C48.585 5.06996 47.8662 4.28931 46.835 3.77873C46.9704 3.3082 46.96 2.24674 46.1475 2.00672C45.335 1.76669 44.21 2.09682 43.9912 2.24699C43.46 2.66724 43.335 3.26793 43.585 4.07885C43.085 4.58941 42.8975 5.46041 43.0225 5.85085C43.1475 6.24129 43.1787 7.05222 43.8662 7.29249C44.5537 7.53276 44.585 6.84198 45.2725 6.63174C45.6475 6.54164 46.1475 7.86314 46.085 8.31365C46.0225 8.76417 45.96 9.63516 45.6162 9.72526C45.2725 9.81536 42.7725 7.4727 41.9287 6.18123C41.085 4.88976 39.7412 3.02762 39.4912 2.63718C39.2412 2.24674 38.2725 2.15663 37.8037 3.32797C37.335 4.4993 36.5537 8.37371 37.6787 11.7075C38.7945 15.0141 40.1787 15.1915 41.0225 15.5519C41.8066 15.8868 43.085 16.0024 45.1787 14.771C43.585 16.1826 42.835 16.8734 43.8037 18.4652C44.4287 18.6574 44.96 18.8857 45.1475 18.9758C45.5433 18.9958 46.3662 18.8857 46.585 18.6454C46.8991 18.3004 46.835 17.444 47.5225 17.7144C47.3975 18.1348 47.256 18.5513 46.1475 19.3963C45.2412 20.087 44.585 21.3785 45.1787 22.2795C45.6892 23.0542 47.46 23.3007 48.2412 23.6311C48.4912 24.472 48.7725 24.3519 48.9912 24.3819" stroke="black" stroke-width="2" stroke-linecap="round" stroke-linejoin="round"/>
<path d="M48.9912 5.85085C49.3975 5.06996 50.1162 4.28931 51.1475 3.77873C51.012 3.3082 51.0225 2.24674 51.835 2.00672C52.6475 1.76669 53.7725 2.09682 53.9912 2.24699C54.5225 2.66724 54.6475 3.26793 54.3975 4.07885C54.8975 4.58941 55.085 5.46041 54.96 5.85085C54.835 6.24129 54.8037 7.05222 54.1162 7.29249C53.4287 7.53276 53.3975 6.84198 52.71 6.63174C52.335 6.54164 51.835 7.86314 51.8975 8.31365C51.96 8.76417 52.0225 9.63516 52.3662 9.72526C52.71 9.81536 55.21 7.4727 56.0537 6.18123C56.8975 4.88976 58.2412 3.02762 58.4912 2.63718C58.7412 2.24674 59.71 2.15663 60.1787 3.32797C60.6475 4.4993 61.4287 8.37371 60.3037 11.7075C59.1879 15.0141 57.8037 15.1915 56.96 15.5519C56.1758 15.8868 54.8975 16.0024 52.8037 14.771C54.3975 16.1826 55.1475 16.8734 54.1787 18.4652C53.5537 18.6574 53.0225 18.8857 52.835 18.9758C52.4391 18.9958 51.6162 18.8857 51.3975 18.6454C51.0833 18.3004 51.1475 17.444 50.46 17.7144C50.585 18.1348 50.7264 18.5513 51.835 19.3963C52.7412 20.087 53.3975 21.3785 52.8037 22.2795C52.2933 23.0542 50.5225 23.3007 49.7412 23.6311C49.4912 24.472 49.21 24.3519 48.9912 24.3819" stroke="black" stroke-width="2" stroke-linecap="round" stroke-linejoin="round"/>
<path fill-rule="evenodd" clip-rule="evenodd" d="M48.981 4.17354C48.6694 3.84456 48.3055 3.53758 47.8896 3.26908C47.8897 3.04766 47.8659 2.81431 47.8094 2.58504C47.6765 2.04565 47.3032 1.34589 46.4309 1.0882C45.8054 0.903427 45.1389 0.951388 44.6583 1.03494C44.4059 1.07882 44.1719 1.1383 43.9759 1.20189C43.8116 1.25519 43.5813 1.34032 43.3996 1.46507C43.381 1.47781 43.3629 1.49116 43.3453 1.50509C42.9152 1.84534 42.622 2.28836 42.506 2.81915C42.4308 3.16378 42.4368 3.51434 42.4965 3.86038C42.3191 4.13497 42.1941 4.42618 42.1119 4.6968C41.8412 4.30114 41.562 3.9001 41.3068 3.53529C41.1884 3.36603 41.0765 3.20639 40.9734 3.05923L40.9727 3.0583C40.6523 2.60129 40.4164 2.26467 40.3325 2.13363C39.9354 1.51347 39.1486 1.31259 38.4901 1.46152C37.7607 1.62646 37.1822 2.17779 36.86 2.98311C36.5809 3.68036 36.2539 5.04023 36.1357 6.63883C36.0168 8.24601 36.102 10.1814 36.7171 12.0042C37.3089 13.758 38.0113 14.801 38.7795 15.4544C39.3955 15.9784 40.0546 16.223 40.4195 16.3584C40.4953 16.3866 40.5585 16.4101 40.6059 16.4303C41.1137 16.6472 41.7101 16.7716 42.4113 16.731C42.3578 16.9872 42.3462 17.2553 42.3833 17.5361C42.447 18.0188 42.6475 18.4862 42.9301 18.9506C43.0547 19.1553 43.2536 19.3085 43.4885 19.3807C43.9034 19.5083 44.2714 19.6531 44.4978 19.7497C44.3608 19.9639 44.2442 20.1897 44.1536 20.4225C43.8824 21.1193 43.8044 22.0062 44.3235 22.7939C44.5733 23.1731 44.9348 23.4293 45.2564 23.6058C45.5849 23.7861 45.9454 23.9227 46.2727 24.0309C46.5459 24.1212 46.8271 24.2015 47.0697 24.2708L47.2077 24.3103C47.2974 24.3361 47.3783 24.3598 47.451 24.3819C47.5903 24.6757 47.7858 24.9413 48.0807 25.1216C48.3186 25.2671 48.5474 25.3107 48.703 25.3263C48.7636 25.3324 48.8222 25.3347 48.8457 25.3356L48.852 25.3359L48.8584 25.3361C48.8987 25.3409 48.9396 25.3434 48.981 25.3433C49.0224 25.3434 49.0634 25.3409 49.1037 25.3361L49.11 25.3359L49.1163 25.3356C49.1399 25.3347 49.1985 25.3324 49.259 25.3263C49.4146 25.3107 49.6435 25.2671 49.8814 25.1216C50.1763 24.9413 50.3718 24.6757 50.5111 24.3819C50.5838 24.3598 50.6646 24.3361 50.7544 24.3103L50.8924 24.2708C51.1349 24.2015 51.4162 24.1212 51.6894 24.0309C52.0166 23.9227 52.3771 23.7861 52.7056 23.6058C53.0273 23.4293 53.3887 23.1731 53.6386 22.7939C54.1577 22.0062 54.0797 21.1193 53.8085 20.4225C53.7179 20.1897 53.6012 19.9639 53.4643 19.7497C53.6907 19.6531 54.0587 19.5083 54.4735 19.3807C54.7085 19.3085 54.9074 19.1553 55.0319 18.9506C55.3146 18.4862 55.515 18.0188 55.5788 17.5361C55.6158 17.2553 55.6042 16.9872 55.5507 16.731C56.252 16.7716 56.8483 16.6472 57.3561 16.4303C57.4035 16.4101 57.4666 16.3866 57.5424 16.3585C57.9073 16.2231 58.5666 15.9784 59.1826 15.4544C59.9508 14.801 60.6531 13.758 61.245 12.0042C61.8601 10.1814 61.9452 8.24601 61.8264 6.63883C61.7082 5.04023 61.3811 3.68036 61.1021 2.98311C60.7798 2.17779 60.2014 1.62646 59.472 1.46152C58.8134 1.31259 58.0267 1.51347 57.6296 2.13363C57.5457 2.26467 57.3097 2.60129 56.9893 3.0583L56.9858 3.0633C56.8835 3.20934 56.7725 3.36759 56.6552 3.53529C56.4001 3.9001 56.1209 4.30114 55.8502 4.6968C55.7679 4.42618 55.6429 4.13497 55.4655 3.86038C55.5252 3.51434 55.5313 3.16378 55.456 2.81915C55.3401 2.28836 55.0469 1.84534 54.6168 1.50509C54.5991 1.49116 54.581 1.47781 54.5625 1.46507C54.3808 1.34032 54.1504 1.25519 53.9861 1.20189C53.7901 1.1383 53.5562 1.07882 53.3038 1.03494C52.8231 0.951388 52.1567 0.903427 51.5312 1.0882C50.6589 1.34589 50.2855 2.04565 50.1527 2.58504C50.0962 2.81431 50.0724 3.04766 50.0724 3.26908C49.6566 3.53758 49.2927 3.84456 48.981 4.17354ZM45.8632 3.02784C45.8492 2.97098 45.8335 2.93718 45.8238 2.9201C45.6357 2.87017 45.3424 2.86939 45.0143 2.92644C44.8565 2.95386 44.7174 2.99007 44.6156 3.02311C44.5908 3.03115 44.5709 3.03812 44.5553 3.04384C44.4998 3.10147 44.4763 3.15484 44.4634 3.214C44.4418 3.31287 44.4379 3.49648 44.5334 3.80597C44.6344 4.13387 44.5466 4.48869 44.3028 4.73772C44.194 4.84874 44.0871 5.03957 44.0237 5.26293C43.9936 5.36894 43.9793 5.46218 43.9756 5.53107C43.9738 5.56336 43.9747 5.58336 43.9754 5.5925C44.0105 5.70751 44.0412 5.8438 44.0625 5.93871L44.076 5.99801C44.0931 6.07178 44.1089 6.13418 44.125 6.18861C44.3151 6.02527 44.598 5.82638 44.9589 5.71604C44.9789 5.70992 44.9991 5.7044 45.0195 5.6995C45.3985 5.60845 45.7203 5.72005 45.9201 5.83479C46.1107 5.9442 46.2472 6.08545 46.3363 6.19221C46.5169 6.40883 46.6551 6.67074 46.7544 6.89796C46.8581 7.1354 46.9446 7.3932 47.0018 7.63528C47.0525 7.84958 47.1057 8.15336 47.0658 8.44083C47.0611 8.47466 47.0556 8.5192 47.0491 8.57157C47.024 8.7743 46.9844 9.09436 46.9215 9.36456C46.8809 9.53903 46.816 9.76503 46.7014 9.97571C46.5981 10.1654 46.3546 10.5253 45.8689 10.6526C45.5461 10.7373 45.2752 10.6514 45.188 10.6222C45.0649 10.581 44.9574 10.5261 44.8777 10.4812C44.7146 10.3894 44.5426 10.2677 44.3792 10.1423C44.0457 9.88624 43.647 9.53596 43.2461 9.15453C42.4573 8.40407 41.5555 7.43346 41.0714 6.69246C40.6588 6.06085 40.1198 5.28372 39.647 4.60766C39.5432 4.45931 39.4415 4.31417 39.3445 4.17586C39.1491 3.89717 38.9731 3.64615 38.8394 3.45258C38.8049 3.50375 38.766 3.57486 38.7267 3.67314C38.5369 4.14722 38.239 5.31022 38.1306 6.77511C38.0229 8.23142 38.1096 9.90016 38.6195 11.4112C39.1435 12.9639 39.6912 13.663 40.105 14.015C40.4276 14.2895 40.6792 14.3853 41.0167 14.5139C41.1372 14.5598 41.2687 14.6099 41.4182 14.6738C41.8225 14.8465 42.7499 15.0667 44.6464 13.9514C45.0852 13.6933 45.6562 13.7973 45.9663 14.1919C46.2764 14.5865 46.2243 15.1428 45.846 15.4779C45.441 15.8366 45.125 16.1189 44.8766 16.3752C44.628 16.6316 44.4952 16.8144 44.4264 16.9565C44.3676 17.0777 44.3517 17.1755 44.3674 17.2941C44.3794 17.3853 44.4135 17.51 44.4928 17.679C44.8404 17.7992 45.1424 17.9205 45.3562 18.0131C45.4615 18.0065 45.593 17.9919 45.7235 17.9664C45.7656 17.9582 45.8027 17.9498 45.8347 17.9417L45.8395 17.9287C45.8727 17.8392 45.9371 17.6657 45.9981 17.5407C46.0794 17.3745 46.2644 17.0412 46.6592 16.8443C47.1038 16.6226 47.5553 16.6931 47.8907 16.825C48.3625 17.0105 48.6136 17.5074 48.4736 17.9785C48.4017 18.2204 48.299 18.5511 48.0147 18.9445C47.7475 19.3143 47.3523 19.6968 46.7585 20.1494C46.4366 20.3947 46.1614 20.7503 46.0268 21.096C45.8918 21.4429 45.9385 21.6522 46.0131 21.7655C46.0185 21.7737 46.0699 21.8387 46.2482 21.9366C46.4197 22.0307 46.6464 22.1217 46.9233 22.2132C47.1525 22.289 47.3855 22.3556 47.6276 22.4248L47.7813 22.4689C48.0564 22.548 48.3725 22.6412 48.6336 22.7515C48.7681 22.8084 48.8862 22.8923 48.981 22.9958C49.0759 22.8923 49.194 22.8084 49.3285 22.7515C49.5895 22.6412 49.9057 22.548 50.1808 22.4689L50.3343 22.4249C50.5764 22.3557 50.8095 22.289 51.0387 22.2132C51.3157 22.1217 51.5424 22.0307 51.7139 21.9366C51.8922 21.8387 51.9435 21.7737 51.9489 21.7655C52.0236 21.6522 52.0703 21.4429 51.9353 21.096C51.8007 20.7503 51.5254 20.3947 51.2036 20.1494C50.6097 19.6968 50.2145 19.3143 49.9473 18.9445C49.663 18.5511 49.5604 18.2204 49.4885 17.9785C49.3484 17.5074 49.5995 17.0105 50.0714 16.825C50.4067 16.6931 50.8583 16.6226 51.3029 16.8443C51.6977 17.0412 51.8827 17.3745 51.9639 17.5407C52.025 17.6657 52.0893 17.8391 52.1226 17.9287L52.1274 17.9417C52.1594 17.9498 52.1965 17.9582 52.2386 17.9664C52.3691 17.9919 52.5005 18.0065 52.6059 18.0131C52.8197 17.9205 53.1217 17.7992 53.4693 17.679C53.5486 17.51 53.5826 17.3853 53.5947 17.2941C53.6103 17.1755 53.5945 17.0777 53.5357 16.9565C53.4668 16.8144 53.334 16.6316 53.0855 16.3752C52.8371 16.1189 52.521 15.8366 52.1161 15.4779C51.7377 15.1428 51.6857 14.5865 51.9958 14.1919C52.3059 13.7973 52.8769 13.6933 53.3157 13.9514C55.2121 15.0667 56.1396 14.8465 56.5439 14.6738C56.6934 14.6099 56.8248 14.5598 56.9453 14.5139C57.2828 14.3853 57.5344 14.2895 57.8571 14.015C58.2709 13.663 58.8185 12.9639 59.3425 11.4112C59.8524 9.90016 59.9391 8.23142 59.8314 6.77511C59.7231 5.31022 59.4251 4.14722 59.2354 3.67314C59.1961 3.57486 59.1572 3.50375 59.1226 3.45258C58.9892 3.6459 58.8135 3.89646 58.6184 4.17472L58.6176 4.17586C58.5206 4.31417 58.4188 4.45931 58.3151 4.60766C57.8422 5.28372 57.3033 6.06085 56.8906 6.69246C56.4065 7.43346 55.5048 8.40407 54.716 9.15453C54.3151 9.53596 53.9164 9.88624 53.5829 10.1423C53.4195 10.2677 53.2474 10.3894 53.0844 10.4812C53.0047 10.5261 52.8972 10.581 52.7741 10.6222C52.6868 10.6514 52.4159 10.7373 52.0931 10.6526C51.6074 10.5253 51.364 10.1654 51.2607 9.97571C51.146 9.76503 51.0811 9.53903 51.0405 9.36456C50.9776 9.09436 50.938 8.77434 50.913 8.57161C50.9065 8.51924 50.901 8.47466 50.8963 8.44083C50.8564 8.15336 50.9095 7.84958 50.9602 7.63528C51.0175 7.3932 51.1039 7.1354 51.2077 6.89796C51.307 6.67074 51.4451 6.40883 51.6258 6.19221C51.7148 6.08545 51.8514 5.9442 52.0419 5.83479C52.2417 5.72005 52.5636 5.60845 52.9425 5.6995C52.9629 5.7044 52.9832 5.70992 53.0032 5.71604C53.364 5.82638 53.6469 6.02527 53.8371 6.18861C53.8532 6.13418 53.869 6.07178 53.8861 5.99801L53.8995 5.93872C53.9209 5.84381 53.9515 5.70749 53.9867 5.5925C53.9873 5.58336 53.9882 5.56336 53.9865 5.53107C53.9828 5.46218 53.9684 5.36894 53.9384 5.26293C53.875 5.03957 53.768 4.84874 53.6593 4.73772C53.4154 4.48869 53.3276 4.13387 53.4287 3.80597C53.5241 3.49648 53.5203 3.31287 53.4987 3.214C53.4857 3.15484 53.4623 3.10147 53.4067 3.04384C53.3912 3.03812 53.3713 3.03115 53.3465 3.02311C53.2446 2.99007 53.1055 2.95386 52.9478 2.92644C52.6197 2.86939 52.3264 2.87017 52.1382 2.9201C52.1286 2.93718 52.1129 2.97098 52.0989 3.02784C52.0791 3.10821 52.0699 3.20638 52.0731 3.30799C52.0764 3.4115 52.0916 3.48881 52.1013 3.52268C52.2275 3.96129 52.0164 4.42487 51.5955 4.63328C50.7651 5.0444 50.1933 5.67023 49.8757 6.28082C49.751 6.52055 49.5361 6.6883 49.2903 6.76507C49.0845 6.82967 48.8683 6.82643 48.6718 6.76507C48.426 6.6883 48.2111 6.52055 48.0864 6.28082C47.7687 5.67023 47.197 5.0444 46.3666 4.63328C45.9457 4.42487 45.7345 3.96129 45.8608 3.52268C45.8705 3.48881 45.8857 3.4115 45.889 3.30799C45.8922 3.20638 45.883 3.10821 45.8632 3.02784Z" fill="#107F8C"/>
<path d="M15 46.4822C15 47.8907 16.1735 49.016 17.6 49.016H20C20.5523 49.016 21 49.4463 21 49.9771C21 50.5079 20.5523 50.9382 20 50.9382H17.6C15.05 50.9382 13 48.9341 13 46.4822V15.0282C13 12.5764 15.05 10.5723 17.6 10.5723H32C32.5523 10.5723 33 11.0026 33 11.5334C33 12.0642 32.5523 12.4945 32 12.4945H17.6C16.1735 12.4945 15 13.6197 15 15.0282V46.4822Z" fill="#107F8C"/>
<path d="M51 32.6243C51 33.1551 50.5523 33.5854 50 33.5854C49.4477 33.5854 49 33.1551 49 32.6243V29.5539C49 29.0231 49.4477 28.5928 50 28.5928C50.5523 28.5928 51 29.0231 51 29.5539V32.6243Z" fill="#107F8C"/>
<path d="M29.5946 47.055C29.9865 46.6811 29.9888 46.0725 29.5997 45.6959C29.2105 45.3192 28.5774 45.317 28.1855 45.691L24.5455 49.1644C24.2769 49.4207 24.1818 49.8008 24.3 50.1464C24.4181 50.492 24.7292 50.7439 25.1036 50.7971L27.6212 51.1552L28.6091 53.4659C28.7537 53.8042 29.0854 54.0342 29.465 54.0595C29.8445 54.0847 30.2061 53.9008 30.3978 53.5849L33.1138 49.1103C33.3921 48.6518 33.231 48.0633 32.7539 47.7958C32.2769 47.5284 31.6645 47.6832 31.3863 48.1417L29.6899 50.9365L29.255 49.9192C29.121 49.6058 28.8252 49.3833 28.4764 49.3337L27.3713 49.1765L29.5946 47.055Z" fill="#107F8C"/>
<path d="M44.9003 45.6959C44.5112 46.0725 44.5135 46.6811 44.9054 47.055L47.1287 49.1765L46.0236 49.3337C45.6748 49.3833 45.379 49.6058 45.245 49.9192L44.8101 50.9365L43.1137 48.1417C42.8355 47.6832 42.2231 47.5284 41.7461 47.7958C41.269 48.0633 41.1079 48.6518 41.3862 49.1103L44.1022 53.5849C44.2939 53.9008 44.6555 54.0847 45.035 54.0595C45.4146 54.0342 45.7463 53.8042 45.8909 53.4659L46.8788 51.1552L49.3964 50.7971C49.7708 50.7439 50.0819 50.492 50.2 50.1464C50.3182 49.8008 50.2231 49.4207 49.9545 49.1644L46.3145 45.691C45.9226 45.317 45.2895 45.3192 44.9003 45.6959Z" fill="#107F8C"/>
<path fill-rule="evenodd" clip-rule="evenodd" d="M37.7496 28.2408C37.4404 28.0694 37.0596 28.0694 36.7504 28.2408L34.8934 29.2701H32.7487C32.3913 29.2701 32.0611 29.4534 31.8825 29.7509L30.8114 31.5352L28.9545 32.5668C28.6453 32.7385 28.4549 33.0557 28.4549 33.3989V35.4573L27.3838 37.2416C27.2054 37.5389 27.2054 37.905 27.3838 38.2022L28.4549 39.9866V42.0475C28.4549 42.391 28.6457 42.7084 28.9553 42.88L30.8117 43.909L31.8825 45.6929C32.0611 45.9904 32.3913 46.1737 32.7487 46.1737H34.8929L36.7496 47.2051C37.0592 47.3771 37.4408 47.3771 37.7504 47.2051L39.6071 46.1737H41.7487C42.1057 46.1737 42.4357 45.9908 42.6144 45.6937L43.6879 43.9092L45.5447 42.88C45.8543 42.7084 46.0451 42.391 46.0451 42.0475V39.9866L47.1162 38.2022C47.2946 37.905 47.2946 37.5389 47.1162 37.2416L46.0451 35.4573V33.3989C46.0451 33.0557 45.8547 32.7385 45.5455 32.5668L43.6881 31.535L42.6144 29.7501C42.4357 29.4531 42.1057 29.2701 41.7487 29.2701H39.6066L37.7496 28.2408ZM35.6607 31.0637L37.25 30.1828L38.8393 31.0637C38.9912 31.1479 39.1635 31.1923 39.3389 31.1923H41.1717L42.0905 32.7195C42.1782 32.8653 42.3041 32.9863 42.4558 33.0706L44.0451 33.9535V35.7146C44.0451 35.8832 44.0912 36.0488 44.1789 36.1949L45.0955 37.7219L44.1789 39.2489C44.0912 39.395 44.0451 39.5606 44.0451 39.7292V41.4923L42.4566 42.3728C42.3046 42.457 42.1783 42.5783 42.0905 42.7243L41.1717 44.2515H39.3389C39.1632 44.2515 38.9906 44.296 38.8384 44.3805L37.25 45.2629L35.6616 44.3805C35.5094 44.296 35.3368 44.2515 35.1611 44.2515H33.3263L32.41 42.725C32.3221 42.5787 32.1957 42.4572 32.0434 42.3728L30.4549 41.4923V39.7292C30.4549 39.5606 30.4088 39.395 30.3211 39.2489L29.4045 37.7219L30.3211 36.1949C30.4088 36.0488 30.4549 35.8832 30.4549 35.7146V33.9535L32.0442 33.0706C32.1961 32.9862 32.3223 32.8648 32.41 32.7188L33.3263 31.1923H35.1611C35.3365 31.1923 35.5088 31.1479 35.6607 31.0637Z" fill="#107F8C"/>
</svg>
