<svg width="64" height="64" viewBox="0 0 64 64" fill="none" xmlns="http://www.w3.org/2000/svg">
<path d="M32.625 19V22.0726C34.2272 22.3005 35.5054 23.07 36.3041 24.4631C36.5788 24.9422 36.413 25.5533 35.9339 25.828C35.4548 26.1027 34.8437 25.937 34.569 25.4578C34.0397 24.5347 33.1278 24 31.5549 24C30.582 24 29.5339 24.3669 28.8417 25.0625C28.1944 25.7128 27.7665 26.739 28.1372 28.3214C28.2737 28.9038 28.6977 29.4069 29.4853 29.9133C30.1971 30.3709 31.0706 30.7485 32.0452 31.17C32.1683 31.2232 32.2931 31.2771 32.4193 31.332C33.4923 31.7985 34.677 32.3358 35.6078 33.0778C36.5723 33.8468 37.3315 34.8898 37.4268 36.3476C37.5905 38.8526 36.6897 40.5074 35.3543 41.4914C34.4829 42.1335 33.488 42.4453 32.625 42.5773V44.2495C32.625 44.8018 32.1773 45.2495 31.625 45.2495C31.0727 45.2495 30.625 44.8018 30.625 44.2495V42.6233C28.6638 42.4615 27.088 41.7567 26.1729 40.301C25.879 39.8335 26.0198 39.2161 26.4874 38.9222C26.9549 38.6283 27.5723 38.7691 27.8662 39.2367C28.3959 40.0793 29.4845 40.6602 31.5549 40.6602C32.3145 40.6602 33.367 40.4715 34.1679 39.8813C34.9005 39.3415 35.5549 38.3727 35.431 36.4781C35.3825 35.7361 35.0224 35.1689 34.3611 34.6417C33.666 34.0876 32.7185 33.6429 31.6218 33.1661C31.5031 33.1145 31.3824 33.0625 31.2602 33.0098L31.2538 33.007L31.2517 33.0061C30.3015 32.5962 29.2641 32.1487 28.4037 31.5956C27.416 30.9606 26.4964 30.0856 26.1899 28.7776C25.675 26.5795 26.2504 24.8309 27.4241 23.6516C28.3099 22.7616 29.4801 22.2513 30.625 22.0729V19C30.625 18.4477 31.0727 18 31.625 18C32.1773 18 32.625 18.4477 32.625 19Z" fill="#107F8C"/>
<path fill-rule="evenodd" clip-rule="evenodd" d="M32.2941 8.04422C32.1025 7.98526 31.8975 7.98526 31.7059 8.04422L12.7059 13.89C12.2863 14.0192 12 14.4068 12 14.8458V26.2021C12 36.4105 17.1277 46.011 25.6894 51.895L31.4354 55.8254C31.7758 56.0582 32.2242 56.0582 32.5646 55.8254L38.3077 51.897C46.8736 46.0595 52 36.4567 52 26.2021V14.8458C52 14.4068 51.7137 14.0192 51.2941 13.89L32.2941 8.04422ZM14 26.2021V15.5844L32 10.0463L50 15.5844V26.2021C50 35.7848 45.2093 44.7736 37.1811 50.2445L32 53.7884L26.8222 50.2467C18.7897 44.7265 14 35.7354 14 26.2021Z" fill="#107F8C"/>
</svg>
