<svg width="64" height="65" viewBox="0 0 64 65" fill="none" xmlns="http://www.w3.org/2000/svg">
<path fill-rule="evenodd" clip-rule="evenodd" d="M48.981 4.19307C48.6694 3.8641 48.3055 3.55711 47.8896 3.28861C47.8897 3.06719 47.8659 2.83385 47.8094 2.60457C47.6765 2.06518 47.3032 1.36542 46.4309 1.10773C45.8054 0.922958 45.1389 0.970919 44.6583 1.05447C44.4059 1.09835 44.1719 1.15783 43.9759 1.22142C43.8116 1.27472 43.5813 1.35985 43.3996 1.4846C43.381 1.49734 43.3629 1.51069 43.3453 1.52462C42.9152 1.86487 42.622 2.30789 42.506 2.83868C42.4308 3.18332 42.4368 3.53387 42.4965 3.87991C42.3191 4.1545 42.1941 4.44571 42.1119 4.71633C41.8412 4.32067 41.562 3.91964 41.3068 3.55483C41.1884 3.38556 41.0765 3.22592 40.9734 3.07876L40.9727 3.07784C40.6523 2.62082 40.4164 2.2842 40.3325 2.15316C39.9354 1.533 39.1486 1.33212 38.4901 1.48105C37.7607 1.64599 37.1822 2.19732 36.86 3.00264C36.5809 3.69989 36.2539 5.05976 36.1357 6.65836C36.0168 8.26554 36.102 10.2009 36.7171 12.0237C37.3089 13.7776 38.0113 14.8205 38.7795 15.4739C39.3955 15.9979 40.0546 16.2425 40.4195 16.378C40.4953 16.4061 40.5585 16.4296 40.6059 16.4498C41.1137 16.6667 41.7101 16.7911 42.4113 16.7505C42.3578 17.0068 42.3462 17.2748 42.3833 17.5556C42.447 18.0383 42.6475 18.5057 42.9301 18.9701C43.0547 19.1748 43.2536 19.328 43.4885 19.4003C43.9034 19.5278 44.2714 19.6727 44.4978 19.7692C44.3608 19.9834 44.2442 20.2092 44.1536 20.442C43.8824 21.1388 43.8044 22.0257 44.3235 22.8135C44.5733 23.1926 44.9348 23.4488 45.2564 23.6254C45.5849 23.8056 45.9454 23.9422 46.2727 24.0504C46.5459 24.1407 46.8271 24.2211 47.0697 24.2903L47.2077 24.3299C47.2974 24.3557 47.3783 24.3794 47.451 24.4014C47.5903 24.6952 47.7858 24.9608 48.0807 25.1411C48.3186 25.2866 48.5474 25.3303 48.703 25.3458C48.7636 25.3519 48.8222 25.3542 48.8457 25.3551L48.852 25.3554L48.8584 25.3557C48.8987 25.3605 48.9396 25.3629 48.981 25.3628C49.0224 25.3629 49.0634 25.3605 49.1037 25.3557L49.11 25.3554L49.1163 25.3551C49.1399 25.3542 49.1985 25.3519 49.259 25.3458C49.4146 25.3303 49.6435 25.2866 49.8814 25.1411C50.1763 24.9608 50.3718 24.6952 50.5111 24.4014C50.5838 24.3794 50.6646 24.3557 50.7544 24.3299L50.8924 24.2903C51.1349 24.2211 51.4162 24.1407 51.6894 24.0504C52.0166 23.9422 52.3771 23.8056 52.7056 23.6254C53.0273 23.4488 53.3887 23.1926 53.6386 22.8135C54.1577 22.0257 54.0797 21.1388 53.8085 20.442C53.7179 20.2092 53.6012 19.9834 53.4643 19.7692C53.6907 19.6727 54.0587 19.5278 54.4735 19.4003C54.7085 19.328 54.9074 19.1748 55.0319 18.9701C55.3146 18.5057 55.515 18.0383 55.5788 17.5556C55.6158 17.2748 55.6042 17.0068 55.5507 16.7505C56.252 16.7911 56.8483 16.6667 57.3561 16.4498C57.4035 16.4296 57.4666 16.4062 57.5424 16.378C57.9073 16.2426 58.5666 15.9979 59.1826 15.4739C59.9508 14.8205 60.6531 13.7776 61.245 12.0237C61.8601 10.2009 61.9452 8.26554 61.8264 6.65836C61.7082 5.05976 61.3811 3.69989 61.1021 3.00264C60.7798 2.19732 60.2014 1.64599 59.472 1.48105C58.8134 1.33212 58.0267 1.533 57.6296 2.15316C57.5457 2.2842 57.3097 2.62082 56.9893 3.07784L56.9858 3.08284C56.8835 3.22887 56.7725 3.38712 56.6552 3.55483C56.4001 3.91964 56.1209 4.32067 55.8502 4.71633C55.7679 4.44571 55.6429 4.1545 55.4655 3.87991C55.5252 3.53387 55.5313 3.18332 55.456 2.83868C55.3401 2.30789 55.0469 1.86487 54.6168 1.52462C54.5991 1.51069 54.581 1.49734 54.5625 1.4846C54.3808 1.35985 54.1504 1.27472 53.9861 1.22142C53.7901 1.15783 53.5562 1.09835 53.3038 1.05447C52.8231 0.970919 52.1567 0.922958 51.5312 1.10773C50.6589 1.36542 50.2855 2.06518 50.1527 2.60457C50.0962 2.83385 50.0724 3.06719 50.0724 3.28861C49.6566 3.55711 49.2927 3.8641 48.981 4.19307ZM45.8632 3.04737C45.8492 2.99051 45.8335 2.95671 45.8238 2.93963C45.6357 2.8897 45.3424 2.88892 45.0143 2.94597C44.8565 2.97339 44.7174 3.0096 44.6156 3.04264C44.5908 3.05068 44.5709 3.05765 44.5553 3.06337C44.4998 3.121 44.4763 3.17437 44.4634 3.23353C44.4418 3.3324 44.4379 3.51601 44.5334 3.8255C44.6344 4.1534 44.5466 4.50822 44.3028 4.75725C44.194 4.86827 44.0871 5.0591 44.0237 5.28246C43.9936 5.38847 43.9793 5.48172 43.9756 5.5506C43.9738 5.58289 43.9747 5.60289 43.9754 5.61203C44.0105 5.72704 44.0412 5.86333 44.0625 5.95824L44.076 6.01754C44.0931 6.09131 44.1089 6.15371 44.125 6.20814C44.3151 6.0448 44.598 5.84591 44.9589 5.73558C44.9789 5.72945 44.9991 5.72393 45.0195 5.71903C45.3985 5.62798 45.7203 5.73958 45.9201 5.85432C46.1107 5.96374 46.2472 6.10498 46.3363 6.21174C46.5169 6.42836 46.6551 6.69027 46.7544 6.91749C46.8581 7.15493 46.9446 7.41273 47.0018 7.65481C47.0525 7.86912 47.1057 8.17289 47.0658 8.46036C47.0611 8.49419 47.0556 8.53873 47.0491 8.59111C47.024 8.79383 46.9844 9.11389 46.9215 9.3841C46.8809 9.55857 46.816 9.78456 46.7014 9.99524C46.5981 10.1849 46.3546 10.5449 45.8689 10.6722C45.5461 10.7568 45.2752 10.671 45.188 10.6418C45.0649 10.6005 44.9574 10.5456 44.8777 10.5007C44.7146 10.4089 44.5426 10.2872 44.3792 10.1618C44.0457 9.90577 43.647 9.55549 43.2461 9.17406C42.4573 8.4236 41.5555 7.45299 41.0714 6.71199C40.6588 6.08038 40.1198 5.30325 39.647 4.62719C39.5432 4.47884 39.4415 4.3337 39.3445 4.19539C39.1491 3.9167 38.9731 3.66568 38.8394 3.47211C38.8049 3.52328 38.766 3.5944 38.7267 3.69267C38.5369 4.16676 38.239 5.32976 38.1306 6.79464C38.0229 8.25095 38.1096 9.91969 38.6195 11.4307C39.1435 12.9835 39.6912 13.6825 40.105 14.0345C40.4276 14.309 40.6792 14.4048 41.0167 14.5334C41.1372 14.5793 41.2687 14.6294 41.4182 14.6933C41.8225 14.866 42.7499 15.0862 44.6464 13.9709C45.0852 13.7128 45.6562 13.8169 45.9663 14.2114C46.2764 14.606 46.2243 15.1623 45.846 15.4974C45.441 15.8561 45.125 16.1384 44.8766 16.3947C44.628 16.6511 44.4952 16.8339 44.4264 16.976C44.3676 17.0973 44.3517 17.195 44.3674 17.3137C44.3794 17.4049 44.4135 17.5295 44.4928 17.6985C44.8404 17.8187 45.1424 17.94 45.3562 18.0326C45.4615 18.0261 45.593 18.0114 45.7235 17.986C45.7656 17.9778 45.8027 17.9694 45.8347 17.9612L45.8395 17.9482C45.8727 17.8587 45.9371 17.6853 45.9981 17.5603C46.0794 17.3941 46.2644 17.0607 46.6592 16.8639C47.1038 16.6421 47.5553 16.7126 47.8907 16.8445C48.3625 17.03 48.6136 17.527 48.4736 17.9981C48.4017 18.2399 48.299 18.5707 48.0147 18.9641C47.7475 19.3338 47.3523 19.7163 46.7585 20.169C46.4366 20.4143 46.1614 20.7698 46.0268 21.1155C45.8918 21.4624 45.9385 21.6717 46.0131 21.785C46.0185 21.7932 46.0699 21.8583 46.2482 21.9561C46.4197 22.0503 46.6464 22.1412 46.9233 22.2328C47.1525 22.3086 47.3855 22.3752 47.6276 22.4444L47.7813 22.4884C48.0564 22.5676 48.3725 22.6607 48.6336 22.7711C48.7681 22.828 48.8862 22.9118 48.981 23.0153C49.0759 22.9118 49.194 22.828 49.3285 22.7711C49.5895 22.6607 49.9057 22.5676 50.1808 22.4884L50.3343 22.4444C50.5764 22.3752 50.8095 22.3086 51.0387 22.2328C51.3157 22.1412 51.5424 22.0503 51.7139 21.9561C51.8922 21.8583 51.9435 21.7932 51.9489 21.785C52.0236 21.6717 52.0703 21.4624 51.9353 21.1155C51.8007 20.7698 51.5254 20.4143 51.2036 20.169C50.6097 19.7163 50.2145 19.3338 49.9473 18.9641C49.663 18.5707 49.5604 18.2399 49.4885 17.9981C49.3484 17.527 49.5995 17.03 50.0714 16.8445C50.4067 16.7126 50.8583 16.6421 51.3029 16.8639C51.6977 17.0607 51.8827 17.3941 51.9639 17.5603C52.025 17.6853 52.0893 17.8587 52.1226 17.9482L52.1274 17.9612C52.1594 17.9694 52.1965 17.9778 52.2386 17.986C52.3691 18.0114 52.5005 18.0261 52.6059 18.0326C52.8197 17.94 53.1217 17.8187 53.4693 17.6985C53.5486 17.5295 53.5826 17.4049 53.5947 17.3137C53.6103 17.195 53.5945 17.0973 53.5357 16.976C53.4668 16.8339 53.334 16.6511 53.0855 16.3947C52.8371 16.1384 52.521 15.8561 52.1161 15.4974C51.7377 15.1623 51.6857 14.606 51.9958 14.2114C52.3059 13.8169 52.8769 13.7128 53.3157 13.9709C55.2121 15.0862 56.1396 14.866 56.5439 14.6933C56.6934 14.6294 56.8248 14.5794 56.9453 14.5334C57.2828 14.4049 57.5344 14.309 57.8571 14.0345C58.2709 13.6825 58.8185 12.9835 59.3425 11.4307C59.8524 9.91969 59.9391 8.25095 59.8314 6.79464C59.7231 5.32976 59.4251 4.16676 59.2354 3.69267C59.1961 3.5944 59.1572 3.52328 59.1226 3.47211C58.9892 3.66543 58.8135 3.91599 58.6184 4.19425L58.6176 4.19539C58.5206 4.3337 58.4188 4.47884 58.3151 4.62719C57.8422 5.30325 57.3033 6.08038 56.8906 6.71199C56.4065 7.45299 55.5048 8.4236 54.716 9.17406C54.3151 9.55549 53.9164 9.90577 53.5829 10.1618C53.4195 10.2872 53.2474 10.4089 53.0844 10.5007C53.0047 10.5456 52.8972 10.6005 52.7741 10.6418C52.6868 10.671 52.4159 10.7568 52.0931 10.6722C51.6074 10.5449 51.364 10.1849 51.2607 9.99524C51.146 9.78456 51.0811 9.55857 51.0405 9.3841C50.9776 9.11389 50.938 8.79387 50.913 8.59114C50.9065 8.53877 50.901 8.49419 50.8963 8.46036C50.8564 8.17289 50.9095 7.86912 50.9602 7.65481C51.0175 7.41273 51.1039 7.15493 51.2077 6.91749C51.307 6.69027 51.4451 6.42836 51.6258 6.21174C51.7148 6.10498 51.8514 5.96374 52.0419 5.85432C52.2417 5.73958 52.5636 5.62798 52.9425 5.71903C52.9629 5.72393 52.9832 5.72945 53.0032 5.73558C53.364 5.84591 53.6469 6.0448 53.8371 6.20814C53.8532 6.15371 53.869 6.09131 53.8861 6.01754L53.8995 5.95825C53.9209 5.86335 53.9515 5.72703 53.9867 5.61203C53.9873 5.60289 53.9882 5.58289 53.9865 5.5506C53.9828 5.48172 53.9684 5.38847 53.9384 5.28246C53.875 5.0591 53.768 4.86827 53.6593 4.75725C53.4154 4.50822 53.3276 4.1534 53.4287 3.8255C53.5241 3.51601 53.5203 3.3324 53.4987 3.23353C53.4857 3.17437 53.4623 3.121 53.4067 3.06337C53.3912 3.05765 53.3713 3.05068 53.3465 3.04264C53.2446 3.0096 53.1055 2.97339 52.9478 2.94597C52.6197 2.88892 52.3264 2.8897 52.1382 2.93963C52.1286 2.95671 52.1129 2.99051 52.0989 3.04737C52.0791 3.12774 52.0699 3.22591 52.0731 3.32752C52.0764 3.43103 52.0916 3.50834 52.1013 3.54221C52.2275 3.98082 52.0164 4.4444 51.5955 4.65281C50.7651 5.06393 50.1933 5.68976 49.8757 6.30035C49.751 6.54008 49.5361 6.70783 49.2903 6.7846C49.0845 6.8492 48.8683 6.84596 48.6718 6.7846C48.426 6.70783 48.2111 6.54008 48.0864 6.30035C47.7687 5.68976 47.197 5.06393 46.3666 4.65281C45.9457 4.4444 45.7345 3.98082 45.8608 3.54221C45.8705 3.50834 45.8857 3.43103 45.889 3.32752C45.8922 3.22591 45.883 3.12774 45.8632 3.04737Z" fill="#21A19A"/>
<path d="M15 46.5018C15 47.9103 16.1735 49.0356 17.6 49.0356H20C20.5523 49.0356 21 49.4659 21 49.9966C21 50.5274 20.5523 50.9577 20 50.9577H17.6C15.05 50.9577 13 48.9536 13 46.5018V15.0478C13 12.5959 15.05 10.5918 17.6 10.5918H32C32.5523 10.5918 33 11.0221 33 11.5529C33 12.0837 32.5523 12.514 32 12.514H17.6C16.1735 12.514 15 13.6393 15 15.0478V46.5018Z" fill="#21A19A"/>
<path d="M51 32.6438C51 33.1746 50.5523 33.6049 50 33.6049C49.4477 33.6049 49 33.1746 49 32.6438V29.5734C49 29.0426 49.4477 28.6123 50 28.6123C50.5523 28.6123 51 29.0426 51 29.5734V32.6438Z" fill="#21A19A"/>
<path d="M29.5946 47.0746C29.9865 46.7006 29.9888 46.0921 29.5997 45.7154C29.2105 45.3387 28.5774 45.3365 28.1855 45.7105L24.5455 49.1839C24.2769 49.4402 24.1818 49.8203 24.3 50.1659C24.4181 50.5115 24.7292 50.7634 25.1036 50.8167L27.6212 51.1747L28.6091 53.4855C28.7537 53.8237 29.0854 54.0538 29.465 54.079C29.8445 54.1043 30.2061 53.9203 30.3978 53.6045L33.1138 49.1298C33.3921 48.6713 33.231 48.0828 32.7539 47.8153C32.2769 47.5479 31.6645 47.7027 31.3863 48.1612L29.6899 50.956L29.255 49.9387C29.121 49.6253 28.8252 49.4029 28.4764 49.3533L27.3713 49.1961L29.5946 47.0746Z" fill="#21A19A"/>
<path d="M44.9003 45.7154C44.5112 46.0921 44.5135 46.7006 44.9054 47.0746L47.1287 49.1961L46.0236 49.3533C45.6748 49.4029 45.379 49.6253 45.245 49.9387L44.8101 50.956L43.1137 48.1612C42.8355 47.7027 42.2231 47.5479 41.7461 47.8153C41.269 48.0828 41.1079 48.6713 41.3862 49.1298L44.1022 53.6045C44.2939 53.9203 44.6555 54.1043 45.035 54.079C45.4146 54.0538 45.7463 53.8237 45.8909 53.4855L46.8788 51.1747L49.3964 50.8167C49.7708 50.7634 50.0819 50.5115 50.2 50.1659C50.3182 49.8203 50.2231 49.4402 49.9545 49.1839L46.3145 45.7105C45.9226 45.3365 45.2895 45.3387 44.9003 45.7154Z" fill="#21A19A"/>
<path fill-rule="evenodd" clip-rule="evenodd" d="M37.7496 28.2603C37.4404 28.0889 37.0596 28.0889 36.7504 28.2603L34.8934 29.2896H32.7487C32.3913 29.2896 32.0611 29.4729 31.8825 29.7704L30.8114 31.5548L28.9545 32.5863C28.6453 32.7581 28.4549 33.0752 28.4549 33.4184V35.4768L27.3838 37.2612C27.2054 37.5584 27.2054 37.9245 27.3838 38.2217L28.4549 40.0061V42.067C28.4549 42.4105 28.6457 42.7279 28.9553 42.8995L30.8117 43.9285L31.8825 45.7124C32.0611 46.0099 32.3913 46.1932 32.7487 46.1932H34.8929L36.7496 47.2246C37.0592 47.3966 37.4408 47.3966 37.7504 47.2246L39.6071 46.1932H41.7487C42.1057 46.1932 42.4357 46.0103 42.6144 45.7132L43.6879 43.9288L45.5447 42.8995C45.8543 42.7279 46.0451 42.4105 46.0451 42.067V40.0061L47.1162 38.2217C47.2946 37.9245 47.2946 37.5584 47.1162 37.2612L46.0451 35.4768V33.4184C46.0451 33.0752 45.8547 32.7581 45.5455 32.5863L43.6881 31.5545L42.6144 29.7697C42.4357 29.4726 42.1057 29.2896 41.7487 29.2896H39.6066L37.7496 28.2603ZM35.6607 31.0833L37.25 30.2023L38.8393 31.0833C38.9912 31.1675 39.1635 31.2118 39.3389 31.2118H41.1717L42.0905 32.7391C42.1782 32.8848 42.3041 33.0059 42.4558 33.0901L44.0451 33.973V35.7341C44.0451 35.9027 44.0912 36.0684 44.1789 36.2144L45.0955 37.7414L44.1789 39.2685C44.0912 39.4145 44.0451 39.5801 44.0451 39.7487V41.5118L42.4566 42.3923C42.3046 42.4766 42.1783 42.5978 42.0905 42.7438L41.1717 44.2711H39.3389C39.1632 44.2711 38.9906 44.3156 38.8384 44.4001L37.25 45.2825L35.6616 44.4001C35.5094 44.3156 35.3368 44.2711 35.1611 44.2711H33.3263L32.41 42.7446C32.3221 42.5982 32.1957 42.4767 32.0434 42.3923L30.4549 41.5118V39.7487C30.4549 39.5801 30.4088 39.4145 30.3211 39.2685L29.4045 37.7414L30.3211 36.2144C30.4088 36.0684 30.4549 35.9027 30.4549 35.7341V33.973L32.0442 33.0901C32.1961 33.0057 32.3223 32.8844 32.41 32.7383L33.3263 31.2118H35.1611C35.3365 31.2118 35.5088 31.1675 35.6607 31.0833Z" fill="#21A19A"/>
</svg>
