<svg width="64" height="64" viewBox="0 0 64 64" fill="none" xmlns="http://www.w3.org/2000/svg">
<path d="M24 9C24 8.44772 23.5523 8 23 8C22.4477 8 22 8.44772 22 9V11.9999H13C10.2386 11.9999 8 14.2385 8 16.9999V48.9999C8 51.7613 10.2386 53.9999 13 53.9999H35C35.5523 53.9999 36 53.5522 36 52.9999C36 52.4476 35.5523 51.9999 35 51.9999H13C11.3431 51.9999 10 50.6568 10 48.9999V16.9999C10 15.3431 11.3431 13.9999 13 13.9999H22V17.9942C22 18.5465 22.4477 18.9942 23 18.9942C23.5523 18.9942 24 18.5465 24 17.9942V13.9999H39.7402V17.9942C39.7402 18.5465 40.188 18.9942 40.7402 18.9942C41.2925 18.9942 41.7402 18.5465 41.7402 17.9942V13.9999H51C52.6569 13.9999 54 15.3431 54 16.9999V32.9999C54 33.5522 54.4477 33.9999 55 33.9999C55.5523 33.9999 56 33.5522 56 32.9999V16.9999C56 14.2385 53.7614 11.9999 51 11.9999H41.7402V9C41.7402 8.44772 41.2925 8 40.7402 8C40.188 8 39.7402 8.44772 39.7402 9V11.9999H24V9Z" fill="#107F8C"/>
<path d="M20 33C21.6569 33 23 31.6568 23 30C23 28.3431 21.6569 27 20 27C18.3431 27 17 28.3431 17 30C17 31.6568 18.3431 33 20 33Z" fill="#107F8C"/>
<path d="M20 45C21.6569 45 23 43.6568 23 42C23 40.3431 21.6569 39 20 39C18.3431 39 17 40.3431 17 42C17 43.6568 18.3431 45 20 45Z" fill="#107F8C"/>
<path d="M35 42C35 43.6568 33.6569 45 32 45C30.3431 45 29 43.6568 29 42C29 40.3431 30.3431 39 32 39C33.6569 39 35 40.3431 35 42Z" fill="#107F8C"/>
<path d="M32 33C33.6569 33 35 31.6568 35 30C35 28.3431 33.6569 27 32 27C30.3431 27 29 28.3431 29 30C29 31.6568 30.3431 33 32 33Z" fill="#107F8C"/>
<path d="M47 30C47 31.6568 45.6569 33 44 33C42.3431 33 41 31.6568 41 30C41 28.3431 42.3431 27 44 27C45.6569 27 47 28.3431 47 30Z" fill="#107F8C"/>
<path fill-rule="evenodd" clip-rule="evenodd" d="M60 54C57.7909 54 56 55.7908 56 58C56 60.2091 57.7909 62 60 62C62.2091 62 64 60.2091 64 58C64 55.7908 62.2091 54 60 54ZM58 58C58 56.8954 58.8954 56 60 56C61.1046 56 62 56.8954 62 58C62 59.1045 61.1046 60 60 60C58.8954 60 58 59.1045 58 58Z" fill="#107F8C"/>
<path fill-rule="evenodd" clip-rule="evenodd" d="M44 45C44 42.7908 45.7909 41 48 41C50.2091 41 52 42.7908 52 45C52 47.2091 50.2091 49 48 49C45.7909 49 44 47.2091 44 45ZM48 43C46.8954 43 46 43.8954 46 45C46 46.1045 46.8954 47 48 47C49.1046 47 50 46.1045 50 45C50 43.8954 49.1046 43 48 43Z" fill="#107F8C"/>
<path d="M62.7071 44.7071C63.0976 44.3165 63.0976 43.6834 62.7071 43.2928C62.3166 42.9023 61.6834 42.9023 61.2929 43.2928L46.2929 58.2928C45.9024 58.6834 45.9024 59.3165 46.2929 59.7071C46.6834 60.0976 47.3166 60.0976 47.7071 59.7071L62.7071 44.7071Z" fill="#107F8C"/>
</svg>
