<svg width="64" height="64" viewBox="0 0 64 64" fill="none" xmlns="http://www.w3.org/2000/svg">
<path d="M11 31.9996C11 20.4211 20.4217 11 32 11C43.5783 11 53 20.4211 53 31.9996C53 32.5518 53.4477 32.9996 54 32.9996C54.5523 32.9996 55 32.5518 55 31.9996C55 19.3165 44.6828 9 32 9C19.3172 9 9 19.3165 9 31.9996C9 44.6835 19.3172 55 32 55C32.5523 55 33 54.5523 33 54C33 53.4477 32.5523 53 32 53C20.4218 53 11 43.5789 11 31.9996Z" fill="#107F8C"/>
<path fill-rule="evenodd" clip-rule="evenodd" d="M28 22C27.4477 22 27 22.4477 27 23V31H26C25.4477 31 25 31.4477 25 32C25 32.5523 25.4477 33 26 33H27V36H26C25.4477 36 25 36.4477 25 37C25 37.5523 25.4477 38 26 38H27V41C27 41.5523 27.4477 42 28 42C28.5523 42 29 41.5523 29 41V38H32C32.5523 38 33 37.5523 33 37C33 36.4477 32.5523 36 32 36H29V33H34.3163C36.3841 33 37.8509 32.2965 38.7851 31.2109C39.693 30.1559 40 28.8541 40 27.8013V27.5C40 26.5147 39.8029 25.1425 38.9469 23.9943C38.0507 22.7923 36.5567 22 34.3163 22H28ZM29 24V31H34.3163C35.8991 31 36.7742 30.4815 37.2692 29.9063C37.7904 29.3006 38 28.5032 38 27.8013V27.5C38 26.7307 37.8379 25.8529 37.3435 25.1898C36.8891 24.5804 36.0412 24 34.3163 24H29Z" fill="#107F8C"/>
<path fill-rule="evenodd" clip-rule="evenodd" d="M40 42C40 39.7909 41.7909 38 44 38C46.2091 38 48 39.7909 48 42C48 44.2091 46.2091 46 44 46C41.7909 46 40 44.2091 40 42ZM44 40C42.8954 40 42 40.8954 42 42C42 43.1046 42.8954 44 44 44C45.1046 44 46 43.1046 46 42C46 40.8954 45.1046 40 44 40Z" fill="#107F8C"/>
<path fill-rule="evenodd" clip-rule="evenodd" d="M52 55C52 52.7909 53.7909 51 56 51C58.2091 51 60 52.7909 60 55C60 57.2091 58.2091 59 56 59C53.7909 59 52 57.2091 52 55ZM56 53C54.8954 53 54 53.8954 54 55C54 56.1046 54.8954 57 56 57C57.1046 57 58 56.1046 58 55C58 53.8954 57.1046 53 56 53Z" fill="#107F8C"/>
<path d="M58.7071 41.7071C59.0976 41.3166 59.0976 40.6834 58.7071 40.2929C58.3166 39.9024 57.6834 39.9024 57.2929 40.2929L42.2929 55.2929C41.9024 55.6834 41.9024 56.3166 42.2929 56.7071C42.6834 57.0976 43.3166 57.0976 43.7071 56.7071L58.7071 41.7071Z" fill="#107F8C"/>
</svg>
