<svg width="128" height="128" viewBox="0 0 128 128" fill="none" xmlns="http://www.w3.org/2000/svg">
<path fill-rule="evenodd" clip-rule="evenodd" d="M97.2068 16.4147C95.6447 14.8526 93.1121 14.8526 91.55 16.4147L86.2118 21.753C86.0571 21.9077 85.9636 22.1005 85.9315 22.3012C85.25 25.6347 82.6479 28.2414 79.3169 28.9296C79.1104 28.9592 78.9113 29.0534 78.7524 29.2124L73.4141 34.5506C71.852 36.1127 71.852 38.6453 73.4141 40.2074L80.3608 47.1541C81.9229 48.7162 84.4556 48.7162 86.0177 47.1541L91.3559 41.8159C91.5011 41.6707 91.5923 41.4919 91.6296 41.3045C91.7094 40.9052 91.817 40.5162 91.9499 40.1395L109.885 59.131C111.594 60.9407 114.46 60.9817 116.22 59.2216C117.98 57.4616 117.939 54.5956 116.13 52.8866L97.1374 34.9506C97.5059 34.8204 97.8864 34.7146 98.2767 34.6352C98.474 34.6016 98.6631 34.5087 98.8153 34.3565L104.154 29.0183C105.716 27.4562 105.716 24.9235 104.154 23.3614L97.2068 16.4147ZM111.339 57.7578L92.9042 38.2371C93.5217 37.3157 94.3142 36.523 95.2354 35.9052L114.756 54.3406C115.747 55.2759 115.769 56.8442 114.806 57.8074C113.843 58.7706 112.274 58.7481 111.339 57.7578ZM76.4358 34.3574L74.8284 35.9648C74.0473 36.7458 74.0473 38.0122 74.8284 38.7932L81.775 45.7399C82.5561 46.521 83.8224 46.521 84.6035 45.7399L86.2109 44.1325L76.4358 34.3574ZM77.8507 32.9438L87.6251 42.7183L89.7338 40.6096C90.6366 36.6954 93.6956 33.6364 97.6099 32.7335L98.6435 31.6999L88.8691 21.9254L87.8353 22.9578C86.933 26.8741 83.8724 29.9347 79.9561 30.837L77.8507 32.9438ZM102.739 27.6041L100.058 30.2856L90.2833 20.5112L92.9642 17.829C93.7453 17.0479 95.0116 17.0479 95.7926 17.8289L102.739 24.7756C103.52 25.5567 103.52 26.823 102.739 27.6041Z" fill="#107F8C"/>
<path d="M44 39.0004C43.4477 39.0004 43 39.4481 43 40.0004C43 40.5527 43.4477 41.0004 44 41.0004H62C62.5523 41.0004 63 40.5527 63 40.0004C63 39.4481 62.5523 39.0004 62 39.0004H44Z" fill="#107F8C"/>
<path d="M43 52.0004C43 51.4481 43.4477 51.0004 44 51.0004H62C62.5523 51.0004 63 51.4481 63 52.0004C63 52.5527 62.5523 53.0004 62 53.0004H44C43.4477 53.0004 43 52.5527 43 52.0004Z" fill="#107F8C"/>
<path d="M44 63.0004C43.4477 63.0004 43 63.4481 43 64.0004C43 64.5527 43.4477 65.0004 44 65.0004H82C82.5523 65.0004 83 64.5527 83 64.0004C83 63.4481 82.5523 63.0004 82 63.0004H44Z" fill="#107F8C"/>
<path d="M69 76.0004C69 75.4481 69.4477 75.0004 70 75.0004H82C82.5523 75.0004 83 75.4481 83 76.0004C83 76.5527 82.5523 77.0004 82 77.0004H70C69.4477 77.0004 69 76.5527 69 76.0004Z" fill="#107F8C"/>
<path d="M70 87.0004C69.4477 87.0004 69 87.4481 69 88.0004C69 88.5527 69.4477 89.0004 70 89.0004H82C82.5523 89.0004 83 88.5527 83 88.0004C83 87.4481 82.5523 87.0004 82 87.0004H70Z" fill="#107F8C"/>
<path fill-rule="evenodd" clip-rule="evenodd" d="M37 29.0004C34.2386 29.0004 32 31.2389 32 34.0004V71.0004C32 72.1049 32.8954 73.0004 34 73.0004H57C60.866 73.0004 64 76.1344 64 80.0004V97.0004C64 98.1049 64.8954 99.0004 66 99.0004H71L71.0039 99.0004H89C91.7614 99.0004 94 96.7618 94 94.0004V64.0004C94 63.4481 94.4477 63.0004 95 63.0004C95.5523 63.0004 96 63.4481 96 64.0004V94.0004C96 97.8664 92.866 101 89 101H65.1302C63.5225 101 61.9639 100.447 60.7161 99.4332L32.5859 76.5773C30.9499 75.2481 30 73.2524 30 71.1445V34.0004C30 30.1344 33.134 27.0004 37 27.0004H63C63.5523 27.0004 64 27.4481 64 28.0004C64 28.5527 63.5523 29.0004 63 29.0004H37ZM33.8115 74.996C33.8233 75.0058 33.8352 75.0155 33.847 75.0251L61.9773 97.8809C62.0259 97.9204 62.0751 97.9589 62.125 97.9965C62.0434 97.678 62 97.3443 62 97.0004V80.0004C62 77.2389 59.7614 75.0004 57 75.0004H34C33.9368 75.0004 33.874 74.9989 33.8115 74.996Z" fill="#107F8C"/>
</svg>
