<svg width="64" height="64" viewBox="0 0 64 64" fill="none" xmlns="http://www.w3.org/2000/svg">
<path d="M9.0001 6.9923C9.00014 4.22844 11.2412 2 14.0001 2H36.0002C38.7615 2 41.0002 4.23838 41.0002 6.99985V18C41.0002 18.5523 40.5525 19 40.0002 19C39.4479 19 39.0002 18.5523 39.0002 18V6.99985C39.0002 5.34305 37.6571 4 36.0002 4H14.0001C12.3408 4 11.0001 5.33798 11.0001 6.99233C11 12.8688 10.9999 24.0133 11.0002 32C11.0005 43.2177 12.4865 52.9564 13.3591 57.7065C13.6045 59.0421 14.7798 60 16.1823 60H33.7915C35.2015 60 36.3875 59.0267 36.6303 57.6765C37.0729 55.2154 37.6778 51.4422 38.1657 46.8934C38.2246 46.3442 38.7175 45.9468 39.2666 46.0057C39.8157 46.0646 40.2132 46.5575 40.1543 47.1066C39.6604 51.7117 39.0479 55.5326 38.5987 58.0305C38.1778 60.3708 36.1311 62 33.7915 62H16.1823C13.8595 62 11.8198 60.3963 11.392 58.0678C10.5066 53.2481 9.00055 43.3807 9.00017 32C8.9999 24.0133 9.00001 12.8688 9.0001 6.9923Z" fill="#107F8C"/>
<path d="M13 18C13 15.7909 14.7909 14 17 14H33C35.2091 14 37 15.7909 37 18V22C37 22.5523 36.5523 23 36 23C35.4477 23 35 22.5523 35 22V18C35 16.8954 34.1046 16 33 16H17C15.8954 16 15 16.8954 15 18V26C15 27.1046 15.8954 28 17 28H32.5C33.0523 28 33.5 28.4477 33.5 29C33.5 29.5523 33.0523 30 32.5 30H17C14.7909 30 13 28.2091 13 26V18Z" fill="#107F8C"/>
<path fill-rule="evenodd" clip-rule="evenodd" d="M16 35C14.3431 35 13 36.3431 13 38C13 39.6569 14.3431 41 16 41H17C18.6569 41 20 39.6569 20 38C20 36.3431 18.6569 35 17 35H16ZM15 38C15 37.4477 15.4477 37 16 37H17C17.5523 37 18 37.4477 18 38C18 38.5523 17.5523 39 17 39H16C15.4477 39 15 38.5523 15 38Z" fill="#107F8C"/>
<path fill-rule="evenodd" clip-rule="evenodd" d="M13.5 45C13.5 43.3431 14.8431 42 16.5 42H17.5C19.1569 42 20.5 43.3431 20.5 45C20.5 46.6569 19.1569 48 17.5 48H16.5C14.8431 48 13.5 46.6569 13.5 45ZM16.5 44C15.9477 44 15.5 44.4477 15.5 45C15.5 45.5523 15.9477 46 16.5 46H17.5C18.0523 46 18.5 45.5523 18.5 45C18.5 44.4477 18.0523 44 17.5 44H16.5Z" fill="#107F8C"/>
<path fill-rule="evenodd" clip-rule="evenodd" d="M17 49C15.3431 49 14 50.3431 14 52C14 53.6569 15.3431 55 17 55H18C19.6569 55 21 53.6569 21 52C21 50.3431 19.6569 49 18 49H17ZM16 52C16 51.4477 16.4477 51 17 51H18C18.5523 51 19 51.4477 19 52C19 52.5523 18.5523 53 18 53H17C16.4477 53 16 52.5523 16 52Z" fill="#107F8C"/>
<path fill-rule="evenodd" clip-rule="evenodd" d="M21.5 38C21.5 36.3431 22.8431 35 24.5 35H25.5C27.1569 35 28.5 36.3431 28.5 38C28.5 39.6569 27.1569 41 25.5 41H24.5C22.8431 41 21.5 39.6569 21.5 38ZM24.5 37C23.9477 37 23.5 37.4477 23.5 38C23.5 38.5523 23.9477 39 24.5 39H25.5C26.0523 39 26.5 38.5523 26.5 38C26.5 37.4477 26.0523 37 25.5 37H24.5Z" fill="#107F8C"/>
<path fill-rule="evenodd" clip-rule="evenodd" d="M24.5 42C22.8431 42 21.5 43.3431 21.5 45C21.5 46.6569 22.8431 48 24.5 48H25.5C27.1569 48 28.5 46.6569 28.5 45C28.5 43.3431 27.1569 42 25.5 42H24.5ZM23.5 45C23.5 44.4477 23.9477 44 24.5 44H25.5C26.0523 44 26.5 44.4477 26.5 45C26.5 45.5523 26.0523 46 25.5 46H24.5C23.9477 46 23.5 45.5523 23.5 45Z" fill="#107F8C"/>
<path fill-rule="evenodd" clip-rule="evenodd" d="M21.5 52C21.5 50.3431 22.8431 49 24.5 49H25.5C27.1569 49 28.5 50.3431 28.5 52C28.5 53.6569 27.1569 55 25.5 55H24.5C22.8431 55 21.5 53.6569 21.5 52ZM24.5 51C23.9477 51 23.5 51.4477 23.5 52C23.5 52.5523 23.9477 53 24.5 53H25.5C26.0523 53 26.5 52.5523 26.5 52C26.5 51.4477 26.0523 51 25.5 51H24.5Z" fill="#107F8C"/>
<path d="M33 35C31.3431 35 30 36.3431 30 38C30 39.6569 31.3431 41 33 41H34C34.5523 41 35 40.5523 35 40C35 39.4477 34.5523 39 34 39H33C32.4477 39 32 38.5523 32 38C32 37.4477 32.4477 37 33 37H33.5C34.0523 37 34.5 36.5523 34.5 36C34.5 35.4477 34.0523 35 33.5 35H33Z" fill="#107F8C"/>
<path fill-rule="evenodd" clip-rule="evenodd" d="M29.5 45C29.5 43.3431 30.8431 42 32.5 42H33.5C35.1569 42 36.5 43.3431 36.5 45C36.5 46.6569 35.1569 48 33.5 48H32.5C30.8431 48 29.5 46.6569 29.5 45ZM32.5 44C31.9477 44 31.5 44.4477 31.5 45C31.5 45.5523 31.9477 46 32.5 46H33.5C34.0523 46 34.5 45.5523 34.5 45C34.5 44.4477 34.0523 44 33.5 44H32.5Z" fill="#107F8C"/>
<path fill-rule="evenodd" clip-rule="evenodd" d="M32 49C30.3431 49 29 50.3431 29 52C29 53.6569 30.3431 55 32 55H33C34.6569 55 36 53.6569 36 52C36 50.3431 34.6569 49 33 49H32ZM31 52C31 51.4477 31.4477 51 32 51H33C33.5523 51 34 51.4477 34 52C34 52.5523 33.5523 53 33 53H32C31.4477 53 31 52.5523 31 52Z" fill="#107F8C"/>
<path fill-rule="evenodd" clip-rule="evenodd" d="M44.18 42.12C46.1675 42.12 47.7376 41.5875 48.796 40.0852C49.8408 38.6023 50.36 36.2089 50.36 32.56C50.36 28.8615 49.8675 26.4669 48.8352 24.9961C47.788 23.5041 46.2152 23 44.18 23C42.2523 23 40.6854 23.5682 39.613 25.0832C38.5526 26.5812 38 28.973 38 32.56C38 36.1594 38.546 38.5515 39.6032 40.0465C40.6728 41.559 42.2403 42.12 44.18 42.12ZM44.18 40.16C43.5293 40.16 42.9594 40.0635 42.4687 39.8339C41.9808 39.6056 41.5601 39.2405 41.2135 38.6845C40.5136 37.5615 40.116 35.6601 40.116 32.56C40.116 29.3777 40.4756 27.4783 41.1555 26.3763C41.491 25.8324 41.9048 25.4827 42.3985 25.2661C42.8963 25.0478 43.4865 24.96 44.18 24.96C44.8947 24.96 45.4951 25.0433 45.9966 25.2561C46.4933 25.4668 46.9036 25.8089 47.2335 26.3466C47.9034 27.4383 48.244 29.3366 48.244 32.56C48.244 35.756 47.8907 37.655 47.2142 38.7536C46.8805 39.2955 46.4679 39.6426 45.9732 39.8572C45.4742 40.0737 44.8806 40.16 44.18 40.16Z" fill="#107F8C"/>
<path fill-rule="evenodd" clip-rule="evenodd" d="M57.0002 29.6602C56.9612 29.6602 56.9227 29.6624 56.8848 29.6667C56.847 29.6624 56.8085 29.6602 56.7695 29.6602C56.2172 29.6602 55.7695 30.1079 55.7695 30.6602V34.6602H54.7695C54.2172 34.6602 53.7695 35.1079 53.7695 35.6602C53.7695 36.2124 54.2172 36.6602 54.7695 36.6602H55.7695V37.6602H54.7695C54.2172 37.6602 53.7695 38.1079 53.7695 38.6602C53.7695 39.2124 54.2172 39.6602 54.7695 39.6602H55.7695V40.6602C55.7695 41.2124 56.2172 41.6602 56.7695 41.6602C57.3218 41.6602 57.7695 41.2124 57.7695 40.6602V39.6602H58.7579C59.3102 39.6602 59.7579 39.2124 59.7579 38.6602C59.7579 38.1079 59.3102 37.6602 58.7579 37.6602H57.7695V36.6602H59.6078C60.7632 36.6602 61.6108 36.1728 62.134 35.441C62.6212 34.7596 62.7695 33.9515 62.7695 33.3276V33.1602C62.7695 32.591 62.6781 31.7493 62.2251 31.018C61.726 30.2123 60.8593 29.6602 59.6078 29.6602H57.0002ZM57.7695 34.6602V31.6602H59.6078C60.1865 31.6602 60.4006 31.8706 60.5249 32.0712C60.6952 32.3463 60.7695 32.7545 60.7695 33.1602V33.3276C60.7695 33.6784 60.6795 34.0366 60.507 34.2778C60.3707 34.4686 60.1374 34.6602 59.6078 34.6602H57.7695Z" fill="#107F8C"/>
</svg>
