<svg width="64" height="62" viewBox="0 0 64 62" fill="none" xmlns="http://www.w3.org/2000/svg">
<path d="M48 8.16927C48 7.63847 47.5523 7.20818 47 7.20818C46.4477 7.20818 46 7.63847 46 8.16927V13.4553C46 13.8932 46.3081 14.2758 46.7492 14.3856C47.1903 14.4955 47.6529 14.3048 47.8742 13.922L50.3742 9.5971C50.6424 9.1331 50.4684 8.54799 49.9856 8.29021C49.5029 8.03244 48.8941 8.19961 48.6258 8.66361L48 9.74629V8.16927Z" fill="#107F8C"/>
<path fill-rule="evenodd" clip-rule="evenodd" d="M46 3.84436V1.92218H45C44.4477 1.92218 44 1.49189 44 0.96109C44 0.430295 44.4477 0 45 0H49C49.5523 0 50 0.430295 50 0.96109C50 1.49189 49.5523 1.92218 49 1.92218H48V3.84436C48 3.86023 47.9996 3.87602 47.9988 3.8917C53.0527 4.37337 57 8.47128 57 13.4553C57 18.7632 52.5228 23.0662 47 23.0662C41.4772 23.0662 37 18.7632 37 13.4553C37 8.47128 40.9473 4.37337 46.0012 3.8917C46.0004 3.87602 46 3.86023 46 3.84436ZM39 13.4553C39 9.2089 42.5817 5.76654 47 5.76654C51.4183 5.76654 55 9.2089 55 13.4553C55 17.7016 51.4183 21.144 47 21.144C42.5817 21.144 39 17.7016 39 13.4553Z" fill="#107F8C"/>
<path d="M15 46.4821C15 47.8906 16.1735 49.0159 17.6 49.0159H20C20.5523 49.0159 21 49.4462 21 49.977C21 50.5078 20.5523 50.938 20 50.938H17.6C15.05 50.938 13 48.9339 13 46.4821V15.0282C13 12.5764 15.05 10.5723 17.6 10.5723H32C32.5523 10.5723 33 11.0026 33 11.5334C33 12.0642 32.5523 12.4944 32 12.4944H17.6C16.1735 12.4944 15 13.6197 15 15.0282V46.4821Z" fill="#107F8C"/>
<path d="M51 32.6242C51 33.155 50.5523 33.5853 50 33.5853C49.4477 33.5853 49 33.155 49 32.6242V25.7094C49 25.1786 49.4477 24.7483 50 24.7483C50.5523 24.7483 51 25.1786 51 25.7094V32.6242Z" fill="#107F8C"/>
<path d="M29.5946 47.0549C29.9865 46.6809 29.9888 46.0724 29.5997 45.6957C29.2105 45.319 28.5774 45.3169 28.1855 45.6908L24.5455 49.1642C24.2769 49.4205 24.1818 49.8006 24.3 50.1462C24.4181 50.4918 24.7292 50.7437 25.1036 50.797L27.6212 51.155L28.6091 53.4658C28.7537 53.804 29.0854 54.034 29.465 54.0593C29.8445 54.0845 30.2061 53.9006 30.3978 53.5848L33.1138 49.1101C33.3921 48.6516 33.231 48.0631 32.7539 47.7957C32.2769 47.5282 31.6645 47.6831 31.3863 48.1415L29.6899 50.9363L29.255 49.919C29.121 49.6056 28.8252 49.3832 28.4764 49.3336L27.3713 49.1764L29.5946 47.0549Z" fill="#107F8C"/>
<path d="M44.9003 45.6957C44.5112 46.0724 44.5135 46.6809 44.9054 47.0549L47.1287 49.1764L46.0236 49.3336C45.6748 49.3832 45.379 49.6056 45.245 49.919L44.8101 50.9363L43.1137 48.1415C42.8355 47.6831 42.2231 47.5282 41.7461 47.7957C41.269 48.0631 41.1079 48.6516 41.3862 49.1101L44.1022 53.5848C44.2939 53.9006 44.6555 54.0845 45.035 54.0593C45.4146 54.034 45.7463 53.804 45.8909 53.4658L46.8788 51.155L49.3964 50.797C49.7708 50.7437 50.0819 50.4918 50.2 50.1462C50.3182 49.8006 50.2231 49.4205 49.9545 49.1642L46.3145 45.6908C45.9226 45.3169 45.2895 45.319 44.9003 45.6957Z" fill="#107F8C"/>
<path fill-rule="evenodd" clip-rule="evenodd" d="M37.7496 28.2407C37.4404 28.0693 37.0596 28.0693 36.7504 28.2407L34.8934 29.27H32.7487C32.3913 29.27 32.0611 29.4533 31.8825 29.7508L30.8114 31.5351L28.9545 32.5667C28.6453 32.7384 28.4549 33.0556 28.4549 33.3988V35.4572L27.3838 37.2415C27.2054 37.5387 27.2054 37.9048 27.3838 38.2021L28.4549 39.9864V42.0473C28.4549 42.3909 28.6457 42.7083 28.9553 42.8799L30.8117 43.9089L31.8825 45.6928C32.0611 45.9903 32.3913 46.1736 32.7487 46.1736H34.8929L36.7496 47.205C37.0592 47.377 37.4408 47.377 37.7504 47.205L39.6071 46.1736H41.7487C42.1057 46.1736 42.4357 45.9906 42.6144 45.6935L43.6879 43.9091L45.5447 42.8799C45.8543 42.7083 46.0451 42.3909 46.0451 42.0473V39.9864L47.1162 38.2021C47.2946 37.9048 47.2946 37.5387 47.1162 37.2415L46.0451 35.4572V33.3988C46.0451 33.0556 45.8547 32.7384 45.5455 32.5667L43.6881 31.5349L42.6144 29.7501C42.4357 29.453 42.1057 29.27 41.7487 29.27H39.6066L37.7496 28.2407ZM35.6607 31.0637L37.25 30.1827L38.8393 31.0637C38.9912 31.1479 39.1635 31.1922 39.3389 31.1922H41.1717L42.0905 32.7195C42.1782 32.8652 42.3041 32.9862 42.4558 33.0705L44.0451 33.9534V35.7145C44.0451 35.8831 44.0912 36.0487 44.1789 36.1948L45.0955 37.7218L44.1789 39.2488C44.0912 39.3949 44.0451 39.5605 44.0451 39.7291V41.4922L42.4566 42.3726C42.3046 42.4569 42.1783 42.5781 42.0905 42.7241L41.1717 44.2514H39.3389C39.1632 44.2514 38.9906 44.2959 38.8384 44.3804L37.25 45.2628L35.6616 44.3804C35.5094 44.2959 35.3368 44.2514 35.1611 44.2514H33.3263L32.41 42.7249C32.3221 42.5786 32.1957 42.4571 32.0434 42.3726L30.4549 41.4922V39.7291C30.4549 39.5605 30.4088 39.3949 30.3211 39.2488L29.4045 37.7218L30.3211 36.1948C30.4088 36.0487 30.4549 35.8831 30.4549 35.7145V33.9534L32.0442 33.0705C32.1961 32.9861 32.3223 32.8648 32.41 32.7187L33.3263 31.1922H35.1611C35.3365 31.1922 35.5088 31.1479 35.6607 31.0637Z" fill="#107F8C"/>
</svg>
