<svg width="64" height="64" viewBox="0 0 64 64" fill="none" xmlns="http://www.w3.org/2000/svg">
<path fill-rule="evenodd" clip-rule="evenodd" d="M27 9C27 6.23858 29.2386 4 32 4C34.7614 4 37 6.23858 37 9C37 11.7614 34.7614 14 32 14C29.2386 14 27 11.7614 27 9ZM32 6C30.3431 6 29 7.34315 29 9C29 10.6569 30.3431 12 32 12C33.6569 12 35 10.6569 35 9C35 7.34315 33.6569 6 32 6Z" fill="#21A19A"/>
<path d="M36.6223 17.0165C36.4591 17.1507 36.2904 17.2773 36.1168 17.396L35.3823 15.4466C36.0891 14.8561 37.1294 14.8517 37.8421 15.4303L37.8431 15.4312C39.8388 17.0558 41 19.4305 41 21.9516C41 22.4577 40.951 22.972 40.8546 23.4803C40.6814 24.3983 39.8608 25 38.9817 25H25.0183C24.1374 25 23.3186 24.3965 23.1453 23.4797C23.0499 22.9731 23 22.4586 23 21.9516C23 19.4725 24.1285 17.1254 26.0685 15.5039L26.07 15.5027C26.7772 14.9139 27.815 14.9087 28.5284 15.4869L28.5303 15.4884C29.4689 16.2529 30.6767 16.6799 31.9309 16.6799C33.2097 16.6799 34.4354 16.2376 35.3823 15.4466L36.1168 17.396C34.8975 18.2301 33.4345 18.6799 31.9309 18.6799C30.2464 18.6799 28.6073 18.1139 27.3097 17.0734C25.8322 18.328 25 20.1052 25 21.9516C25 22.2937 25.0305 22.6462 25.091 23H38.2282H38.9091C38.9698 22.6473 39 22.2947 39 21.9516C39 20.073 38.144 18.2751 36.6223 17.0165Z" fill="#21A19A"/>
<path d="M44.412 12.1531C43.9443 11.8594 43.327 12.0005 43.0334 12.4683C42.7397 12.936 42.8808 13.5532 43.3485 13.8469C48.5441 17.1091 52.1683 22.6374 52.8387 29.0414C52.8962 29.5907 53.3881 29.9893 53.9373 29.9318C54.4866 29.8743 54.8853 29.3824 54.8278 28.8331C54.0913 21.7974 50.1101 15.7308 44.412 12.1531Z" fill="#21A19A"/>
<path d="M55.6223 50.0165C55.4591 50.1507 55.2904 50.2773 55.1168 50.396L54.3823 48.4466C55.0891 47.8561 56.1294 47.8517 56.8421 48.4303L56.8431 48.4311C58.8388 50.0558 60 52.4305 60 54.9516C60 55.4577 59.951 55.972 59.8546 56.4803C59.6814 57.3983 58.8608 58 57.9817 58H44.0183C43.1374 58 42.3186 57.3965 42.1453 56.4797C42.0499 55.9731 42 55.4586 42 54.9516C42 52.4725 43.1285 50.1254 45.0685 48.5039L45.07 48.5027C45.7772 47.9139 46.815 47.9087 47.5284 48.4869L47.5303 48.4884C48.4689 49.2529 49.6767 49.6799 50.9309 49.6799C52.2097 49.6799 53.4354 49.2376 54.3823 48.4466L55.1168 50.396C53.8975 51.2301 52.4345 51.6799 50.9309 51.6799C49.2464 51.6799 47.6073 51.1139 46.3097 50.0734C44.8322 51.328 44 53.1052 44 54.9516C44 55.2937 44.0305 55.6462 44.091 56H57.2281H57.9091C57.9698 55.6473 58 55.2947 58 54.9516C58 53.073 57.144 51.2751 55.6223 50.0165Z" fill="#21A19A"/>
<path fill-rule="evenodd" clip-rule="evenodd" d="M51 37C48.2386 37 46 39.2386 46 42C46 44.7614 48.2386 47 51 47C53.7614 47 56 44.7614 56 42C56 39.2386 53.7614 37 51 37ZM48 42C48 40.3431 49.3431 39 51 39C52.6569 39 54 40.3431 54 42C54 43.6569 52.6569 45 51 45C49.3431 45 48 43.6569 48 42Z" fill="#21A19A"/>
<path d="M21.8468 12.4684C21.5531 12.0007 20.9358 11.8596 20.4681 12.1532C14.77 15.7309 10.7889 21.7976 10.0523 28.8333C9.99484 29.3826 10.3935 29.8744 10.9428 29.9319C11.4921 29.9894 11.984 29.5908 12.0415 29.0415C12.7119 22.6375 16.3361 17.1092 21.5316 13.847C21.9993 13.5534 22.1404 12.9361 21.8468 12.4684Z" fill="#21A19A"/>
<path d="M36.7039 51.9424C36.7846 52.4888 36.4071 52.9971 35.8607 53.0778C34.7801 53.2373 33.6749 53.3199 32.5511 53.3199C31.497 53.3199 30.4593 53.2473 29.4429 53.1066C28.8958 53.0309 28.5137 52.526 28.5894 51.9789C28.6651 51.4319 29.17 51.0498 29.7171 51.1255C30.6429 51.2536 31.589 51.3199 32.5511 51.3199C33.5768 51.3199 34.5843 51.2446 35.5686 51.0992C36.1149 51.0186 36.6232 51.3961 36.7039 51.9424Z" fill="#21A19A"/>
<path fill-rule="evenodd" clip-rule="evenodd" d="M21 50.0001C18.7909 50.0001 17 51.791 17 54.0001C17 56.2093 18.7909 58.0001 21 58.0001C23.2091 58.0001 25 56.2093 25 54.0001C25 51.791 23.2091 50.0001 21 50.0001ZM19 54.0001C19 52.8956 19.8954 52.0001 21 52.0001C22.1046 52.0001 23 52.8956 23 54.0001C23 55.1047 22.1046 56.0001 21 56.0001C19.8954 56.0001 19 55.1047 19 54.0001Z" fill="#21A19A"/>
<path fill-rule="evenodd" clip-rule="evenodd" d="M5 41.0001C5 38.791 6.79086 37.0001 9 37.0001C11.2091 37.0001 13 38.791 13 41.0001C13 43.2093 11.2091 45.0001 9 45.0001C6.79086 45.0001 5 43.2093 5 41.0001ZM9 39.0001C7.89543 39.0001 7 39.8956 7 41.0001C7 42.1047 7.89543 43.0001 9 43.0001C10.1046 43.0001 11 42.1047 11 41.0001C11 39.8956 10.1046 39.0001 9 39.0001Z" fill="#21A19A"/>
<path d="M23.7071 40.7072C24.0976 40.3167 24.0976 39.6835 23.7071 39.293C23.3166 38.9025 22.6834 38.9025 22.2929 39.293L7.29289 54.293C6.90237 54.6835 6.90237 55.3167 7.29289 55.7072C7.68342 56.0978 8.31658 56.0978 8.70711 55.7072L23.7071 40.7072Z" fill="#21A19A"/>
</svg>
