<svg width="64" height="64" viewBox="0 0 64 64" fill="none" xmlns="http://www.w3.org/2000/svg">
<path fill-rule="evenodd" clip-rule="evenodd" d="M28.3755 9C21.9225 9 16.4151 14.1121 15.1494 21.0714C15.5289 21.0243 15.9155 21 16.3077 21C18.8992 21 21 23.1008 21 25.6923V36.3077C21 38.8992 18.8992 41 16.3077 41C11.1672 41 7 36.8328 7 31.6923V30.3077C7 26.3156 9.51327 22.9105 13.0439 21.5883C14.1364 13.4153 20.5113 7 28.3755 7H35.6245C43.5284 7 49.9279 13.4803 50.9723 21.7122C54.4949 23.0384 57.001 26.4395 57.001 30.4259V31.8105C57.001 35.6525 54.6731 38.9508 51.3509 40.372C51.2802 44.576 49.8862 47.9982 47.1812 50.3719C44.6718 52.574 41.1481 53.7731 36.8086 53.9707C36.6305 54.618 36.3267 55.2045 35.8912 55.6918C35.1307 56.5428 34.0484 56.9996 32.8 56.9996H31.2C29.9516 56.9996 28.8693 56.5428 28.1088 55.6918C27.3596 54.8535 27 53.721 27 52.4917C27 50.921 28.3222 50.0321 29.5468 50.0664L34.2916 50.0039C35.4222 49.9412 36.6813 50.6346 36.9485 51.9613C40.8668 51.7471 43.8319 50.6501 45.8621 48.8686C47.931 47.0531 49.1444 44.425 49.329 40.9749C48.798 41.069 48.2514 41.1182 47.6933 41.1182C45.1018 41.1182 43.001 39.0173 43.001 36.4259V25.8105C43.001 23.219 45.1018 21.1182 47.6933 21.1182C48.0926 21.1182 48.486 21.1433 48.8721 21.1921C47.6484 14.1713 42.1148 9 35.6245 9H28.3755ZM16.3077 23C12.2718 23 9 26.2718 9 30.3077V31.6923C9 35.7282 12.2718 39 16.3077 39C17.7946 39 19 37.7946 19 36.3077V25.6923C19 24.2054 17.7946 23 16.3077 23ZM34.8441 52.1325C34.7389 52.0465 34.5754 51.9891 34.3962 52.0012L34.369 52.0031L29.5229 52.0669L29.4961 52.0658C29.3487 52.0598 29.2148 52.1108 29.1285 52.1848C29.0561 52.2469 29 52.3368 29 52.4917C29 53.3417 29.2463 53.9633 29.6 54.3591C29.9424 54.7422 30.4602 54.9996 31.2 54.9996H32.8C33.5398 54.9996 34.0576 54.7422 34.4 54.3591C34.7537 53.9633 35 53.3417 35 52.4917C35 52.3105 34.9328 52.2051 34.8441 52.1325ZM55.001 30.4259C55.001 26.3899 51.7292 23.1182 47.6933 23.1182C46.2064 23.1182 45.001 24.3236 45.001 25.8105V36.4259C45.001 37.9128 46.2064 39.1182 47.6933 39.1182C51.7292 39.1182 55.001 35.8464 55.001 31.8105V30.4259Z" fill="#21A19A"/>
</svg>
