<svg width="128" height="128" viewBox="0 0 128 128" fill="none" xmlns="http://www.w3.org/2000/svg">
<path d="M42.8791 41.4752C47.2628 32.8815 56.196 27 66.5 27C79.6813 27 90.6174 36.6249 92.6584 49.2301C92.7316 49.6826 93.1033 50.0274 93.5601 50.0666C102.77 50.8565 110 58.5844 110 68C110 70.8964 109.317 73.6303 108.103 76.052C107.856 76.5458 108.056 77.1466 108.549 77.394C109.043 77.6415 109.644 77.4417 109.891 76.948C111.241 74.2545 112 71.2145 112 68C112 57.8006 104.366 49.3853 94.4998 48.1548C91.9976 34.9694 80.4135 25 66.5 25C55.6421 25 46.2031 31.0728 41.3928 40.0031C41.2621 40.0011 41.1311 40 41 40C27.7456 40 17 50.7452 17 64C17 77.2548 27.7456 88 41 88H64.5C65.0523 88 65.5 87.5523 65.5 87C65.5 86.4477 65.0523 86 64.5 86H41C28.8501 86 19 76.1502 19 64C19 51.8498 28.8501 42 41 42C41.317 42 41.633 42.0067 41.946 42.0199C42.3368 42.0365 42.7013 41.8237 42.8791 41.4752Z" fill="#21A19A"/>
<path fill-rule="evenodd" clip-rule="evenodd" d="M56.8231 43.0134C53.5959 42.8271 51.2876 44.6008 49.9569 47.1227C48.6473 49.6046 48.2383 52.8585 48.6703 55.9621C49.0031 58.3539 49.8474 60.74 51.251 62.6734C47.593 64.9037 43.129 65.6664 38.425 63.4593C37.925 63.2248 37.3295 63.4399 37.0949 63.9399C36.8603 64.4399 37.0755 65.0354 37.5755 65.27C43.1856 67.9021 48.4162 66.8475 52.5771 64.195C52.604 64.2206 52.6311 64.2462 52.6584 64.2716C54.9613 66.418 58.1828 67.4565 62.219 66.535C63.5099 66.2402 64.7207 65.3331 65.711 64.4254C66.3672 63.824 66.9872 63.1635 67.5253 62.5707C67.2601 63.648 67.241 64.669 67.6331 65.497C68.1031 66.4893 69.0359 66.9553 70.0874 66.9969C71.0888 67.0365 72.256 66.7071 73.5045 66.1075C74.7696 65.5001 76.1951 64.578 77.7368 63.3359C78.3275 62.86 78.6818 62.663 78.8789 62.5942L78.9017 62.5865C78.9397 62.6331 79.0041 62.7208 79.1025 62.8808L79.1207 62.9106C79.1367 62.937 79.1537 62.9653 79.1716 62.9952L79.2144 63.0671C79.3562 63.3055 79.5453 63.6232 79.7636 63.9193C80.3904 64.769 81.357 65.604 83.09 65.868C84.7488 66.1207 87.0367 65.8389 90.3234 64.7167C90.846 64.5383 91.125 63.9699 90.9466 63.4472C90.7681 62.9246 90.1998 62.6455 89.6771 62.824C86.5183 63.9025 84.5881 64.0732 83.3912 63.8908C82.2685 63.7198 81.7419 63.232 81.3732 62.7321C81.2189 62.5229 81.1032 62.3288 80.9724 62.1092C80.9206 62.0221 80.8663 61.9311 80.8063 61.8335C80.6332 61.5517 80.3578 61.1183 79.9212 60.8442C79.3919 60.5117 78.8001 60.5033 78.2195 60.7061C77.6926 60.8901 77.1231 61.262 76.482 61.7785C75.0257 62.9518 73.7303 63.7805 72.6388 64.3046C71.5308 64.8367 70.7057 65.0198 70.1664 64.9985C69.6773 64.9791 69.5211 64.8108 69.4407 64.641C69.317 64.3799 69.2453 63.8195 69.5254 62.8294C69.781 61.926 69.9478 61.2338 70.0209 60.734C70.0565 60.4902 70.079 60.2344 70.057 59.9989C70.0408 59.826 69.9739 59.3245 69.5054 59.0265C68.9935 58.7009 68.4881 58.9101 68.3247 58.99C68.1177 59.0911 67.9351 59.2374 67.797 59.3585C67.51 59.6103 67.1745 59.9725 66.8343 60.3488C66.7273 60.4671 66.6174 60.5896 66.5047 60.7152L66.5001 60.7203C65.8645 61.4286 65.1408 62.235 64.3596 62.951C63.4178 63.8143 62.5304 64.4124 61.7738 64.5852C58.4918 65.3345 56.0235 64.5509 54.2423 63.0066C56.0814 61.5477 57.6548 59.7903 58.8872 57.962C60.9778 54.8606 62.2181 51.388 62.1053 48.5465C62.0484 47.113 61.6418 45.7655 60.7371 44.7411C59.8186 43.7011 58.4887 43.1096 56.8231 43.0134ZM57.2288 56.8441C56.0523 58.5895 54.5845 60.2143 52.8953 61.5333C51.7108 59.9163 50.9524 57.8507 50.6512 55.6864C50.2631 52.898 50.6542 50.0868 51.7257 48.056C52.7762 46.0652 54.4303 44.8786 56.7078 45.0101C57.9484 45.0817 58.7381 45.4989 59.238 46.065C59.7517 46.6466 60.0623 47.5024 60.1069 48.6258C60.1971 50.8982 59.1774 53.9534 57.2288 56.8441Z" fill="#21A19A"/>
<path fill-rule="evenodd" clip-rule="evenodd" d="M97.4782 73.6121C95.7871 71.921 93.2031 71.921 91.512 73.6121L66.8406 98.7546C66.7298 98.8675 66.6474 99.0051 66.6001 99.156L63.0458 110.5C62.9343 110.856 63.0301 111.245 63.2943 111.508C63.5585 111.771 63.9472 111.865 64.3026 111.753L75.6112 108.162C75.7669 108.113 75.9081 108.026 76.0224 107.91L100.681 82.7806L100.684 82.777C102.372 81.0858 102.37 78.5043 100.681 76.8144L97.4782 73.6121ZM68.4367 99.9836L92.9293 75.0232C93.8392 74.1162 95.155 74.1173 96.064 75.0263L99.2663 78.2286C100.176 79.1386 100.176 80.4563 99.2663 81.3663L74.7691 106.331L65.5287 109.265L68.4367 99.9836Z" fill="#21A19A"/>
<path d="M86.8008 72.2076L76.8321 82.1757C76.4415 82.5662 75.8084 82.5661 75.4179 82.1756C75.0274 81.7851 75.0274 81.1519 75.4179 80.7614L85.3868 70.7931C86.837 69.3437 88.7391 68.9506 90.4676 69.8648C90.9558 70.1231 91.1422 70.7282 90.884 71.2164C90.6257 71.7046 90.0206 71.891 89.5324 71.6327C88.6832 71.1835 87.7171 71.2918 86.8008 72.2076Z" fill="#21A19A"/>
</svg>
