<svg width="64" height="64" viewBox="0 0 64 64" fill="none" xmlns="http://www.w3.org/2000/svg">
<path d="M22.3997 36.8629C22.23 37.022 22.0181 37.1 21.7713 37.1H17.0113C16.7466 37.1 16.5267 37.0176 16.3643 36.8444C16.2045 36.6739 16.1273 36.4569 16.1273 36.202C16.1273 35.9419 16.2219 35.7123 16.4065 35.5174L19.4579 32.2561C19.7983 31.888 20.0636 31.5216 20.2548 31.1575C20.455 30.7843 20.5513 30.4498 20.5513 30.154C20.5513 29.7606 20.4125 29.4214 20.1315 29.1316C19.8497 28.841 19.5295 28.7 19.1673 28.7C18.9207 28.7 18.6644 28.7848 18.3968 28.9632C18.1372 29.1332 17.8974 29.3632 17.6793 29.654C17.494 29.9011 17.2506 30.03 16.9553 30.03C16.7215 30.03 16.5072 29.9388 16.3146 29.7665L16.3126 29.7647C16.1285 29.5908 16.0293 29.3884 16.0293 29.16C16.0293 28.997 16.0838 28.8384 16.1853 28.6857C16.2841 28.528 16.4294 28.3544 16.6186 28.1653C16.9818 27.802 17.4023 27.5106 17.8795 27.2911C18.3567 27.0716 18.819 26.96 19.2653 26.96C19.8958 26.96 20.4544 27.0938 20.9382 27.3647C21.4207 27.6349 21.7936 28.0076 22.0549 28.4817C22.3159 28.9554 22.4453 29.4903 22.4453 30.084C22.4453 30.6717 22.2863 31.2751 21.9726 31.893C21.6692 32.4998 21.2574 33.0814 20.7384 33.6381L19.1187 35.36H21.7713C22.02 35.36 22.2327 35.4439 22.402 35.6133C22.5713 35.7826 22.6553 35.9952 22.6553 36.244C22.6553 36.4847 22.5704 36.6922 22.402 36.8607L22.3997 36.8629Z" fill="#21A19A"/>
<path fill-rule="evenodd" clip-rule="evenodd" d="M31.5176 34.2029C31.3479 34.362 31.136 34.44 30.8892 34.44H30.4012V36.146C30.4012 36.4145 30.3071 36.6455 30.1199 36.8327C29.9408 37.0117 29.714 37.1 29.4472 37.1C29.1885 37.1 28.9667 37.0109 28.7884 36.8327L28.7864 36.8307C28.6093 36.6431 28.5212 36.4128 28.5212 36.146V34.44H24.9812C24.7474 34.44 24.533 34.3488 24.3405 34.1765L24.3384 34.1746C24.1431 33.9896 24.0412 33.7681 24.0412 33.514C24.0412 33.2838 24.1203 33.075 24.274 32.8903L28.6968 27.4739C28.8933 27.226 29.156 27.1 29.4752 27.1C29.7352 27.1 29.9573 27.1947 30.1349 27.3823C30.3132 27.5611 30.4012 27.7877 30.4012 28.054V32.7H30.8892C31.1379 32.7 31.3506 32.7839 31.5199 32.9533C31.6892 33.1226 31.7732 33.3352 31.7732 33.584C31.7732 33.8247 31.6883 34.0322 31.5199 34.2007L31.5176 34.2029ZM28.5212 30.2823V32.7H26.5628L28.5212 30.2823Z" fill="#21A19A"/>
<path d="M48.0643 28.026C48.0643 27.7544 47.9583 27.5301 47.7489 27.3616C47.5533 27.1874 47.3201 27.1 47.0543 27.1H42.1823C41.9341 27.1 41.7218 27.1836 41.5527 27.3521C41.3829 27.5119 41.2983 27.7157 41.2983 27.956C41.2983 28.2047 41.3823 28.4174 41.5516 28.5867C41.7209 28.756 41.9336 28.84 42.1823 28.84H45.7507L42.5533 35.8384C42.4915 35.9725 42.4603 36.1126 42.4603 36.258C42.4603 36.5104 42.5563 36.7278 42.7436 36.9047L42.7456 36.9065C42.9409 37.0812 43.1698 37.17 43.4283 37.17C43.6161 37.17 43.7894 37.1174 43.9458 37.0132C44.1034 36.9081 44.2182 36.7613 44.2905 36.5768L47.9714 28.4452L47.9722 28.4434C48.0326 28.3024 48.0643 28.163 48.0643 28.026Z" fill="#21A19A"/>
<path d="M40.3202 26.902L34.6502 38.536C34.5726 38.6911 34.4649 38.8179 34.3261 38.9112C34.1924 39.0075 34.0394 39.0555 33.8732 39.0555C33.6448 39.0555 33.4367 38.9643 33.2524 38.8024C33.056 38.6398 32.9512 38.4272 32.9512 38.1755C32.9512 38.0326 32.987 37.8935 33.0538 37.7597L38.7374 26.1265L38.7382 26.125C38.8145 25.9724 38.916 25.8459 39.0453 25.7519L39.0512 25.7476C39.1919 25.6538 39.3479 25.6055 39.5152 25.6055C39.7435 25.6055 39.9479 25.6966 40.1241 25.8602C40.3191 26.0227 40.4232 26.2347 40.4232 26.4855C40.4232 26.6283 40.3869 26.7682 40.3202 26.902Z" fill="#21A19A"/>
<path fill-rule="evenodd" clip-rule="evenodd" d="M9 31.9996C9 19.3165 19.3172 9 32 9C44.6828 9 55 19.3165 55 31.9996C55 44.6835 44.6828 55 32 55C19.3172 55 9 44.6835 9 31.9996ZM32 11C20.4217 11 11 20.4211 11 31.9996C11 43.5789 20.4218 53 32 53C43.5782 53 53 43.5789 53 31.9996C53 20.4211 43.5783 11 32 11Z" fill="#21A19A"/>
</svg>
