<svg width="64" height="64" viewBox="0 0 64 64" fill="none" xmlns="http://www.w3.org/2000/svg">
<path d="M27.5099 9.12842C27.8143 8.95719 28.186 8.95719 28.4904 9.12842L44.4904 18.1284C44.9718 18.3992 45.1425 19.0089 44.8717 19.4903C44.601 19.9716 43.9913 20.1423 43.5099 19.8716L28.0002 11.1473L12.4904 19.8716C12.0091 20.1423 11.3994 19.9716 11.1286 19.4903C10.8578 19.0089 11.0286 18.3992 11.5099 18.1284L27.5099 9.12842Z" fill="#107F8C"/>
<path d="M12.0012 47C12.0012 46.4477 12.4489 46 13.0012 46H28.0012C28.5535 46 29.0012 46.4477 29.0012 47C29.0012 47.5523 28.5535 48 28.0012 48H13.0012C12.4489 48 12.0012 47.5523 12.0012 47Z" fill="#107F8C"/>
<path d="M29.0005 24C29.0005 23.4477 28.5528 23 28.0005 23C27.4482 23 27.0005 23.4477 27.0005 24V40C27.0005 40.5523 27.4482 41 28.0005 41C28.5528 41 29.0005 40.5523 29.0005 40V24Z" fill="#107F8C"/>
<path d="M18.0005 23C18.5528 23 19.0005 23.4477 19.0005 24V40C19.0005 40.5523 18.5528 41 18.0005 41C17.4482 41 17.0005 40.5523 17.0005 40V24C17.0005 23.4477 17.4482 23 18.0005 23Z" fill="#107F8C"/>
<path d="M39.0005 24C39.0005 23.4477 38.5528 23 38.0005 23C37.4482 23 37.0005 23.4477 37.0005 24V29C37.0005 29.5523 37.4482 30 38.0005 30C38.5528 30 39.0005 29.5523 39.0005 29V24Z" fill="#107F8C"/>
<path fill-rule="evenodd" clip-rule="evenodd" d="M37 42C37 39.7909 38.7909 38 41 38C43.2091 38 45 39.7909 45 42C45 44.2091 43.2091 46 41 46C38.7909 46 37 44.2091 37 42ZM41 40C39.8954 40 39 40.8954 39 42C39 43.1046 39.8954 44 41 44C42.1046 44 43 43.1046 43 42C43 40.8954 42.1046 40 41 40Z" fill="#107F8C"/>
<path fill-rule="evenodd" clip-rule="evenodd" d="M49 55C49 52.7909 50.7909 51 53 51C55.2091 51 57 52.7909 57 55C57 57.2091 55.2091 59 53 59C50.7909 59 49 57.2091 49 55ZM53 53C51.8954 53 51 53.8954 51 55C51 56.1046 51.8954 57 53 57C54.1046 57 55 56.1046 55 55C55 53.8954 54.1046 53 53 53Z" fill="#107F8C"/>
<path d="M55.7071 41.7071C56.0976 41.3166 56.0976 40.6834 55.7071 40.2929C55.3166 39.9024 54.6834 39.9024 54.2929 40.2929L39.2929 55.2929C38.9024 55.6834 38.9024 56.3166 39.2929 56.7071C39.6834 57.0976 40.3166 57.0976 40.7071 56.7071L55.7071 41.7071Z" fill="#107F8C"/>
</svg>
