<svg width="128" height="128" viewBox="0 0 128 128" fill="none" xmlns="http://www.w3.org/2000/svg">
<path fill-rule="evenodd" clip-rule="evenodd" d="M80 20C79.4477 20 79 20.4477 79 21V35H77C76.4477 35 76 35.4477 76 36C76 36.5523 76.4477 37 77 37H79V42H77C76.4477 42 76 42.4477 76 43C76 43.5523 76.4477 44 77 44H79V51C79 51.5523 79.4477 52 80 52C80.5523 52 81 51.5523 81 51V44H88C88.5523 44 89 43.5523 89 43C89 42.4477 88.5523 42 88 42H81V37H90.8605C94.1452 37 96.3926 35.8891 97.8032 34.25C99.1875 32.6414 99.6667 30.6398 99.6667 29.0022V28.5C99.6667 26.9298 99.3499 24.8076 98.0436 23.0556C96.6973 21.2499 94.4227 20 90.8605 20H80ZM81 22V35H90.8605C93.6602 35 95.3159 34.0741 96.2873 32.9454C97.2849 31.7862 97.6667 30.2889 97.6667 29.0022V28.5C97.6667 27.1459 97.3849 25.5181 96.4402 24.2511C95.5357 23.0379 93.9072 22 90.8605 22H81Z" fill="#21A19A"/>
<path d="M44 39C43.4477 39 43 39.4477 43 40C43 40.5523 43.4477 41 44 41H62C62.5523 41 63 40.5523 63 40C63 39.4477 62.5523 39 62 39H44Z" fill="#21A19A"/>
<path d="M43 52C43 51.4477 43.4477 51 44 51H62C62.5523 51 63 51.4477 63 52C63 52.5523 62.5523 53 62 53H44C43.4477 53 43 52.5523 43 52Z" fill="#21A19A"/>
<path d="M44 63C43.4477 63 43 63.4477 43 64C43 64.5523 43.4477 65 44 65H82C82.5523 65 83 64.5523 83 64C83 63.4477 82.5523 63 82 63H44Z" fill="#21A19A"/>
<path d="M69 76C69 75.4477 69.4477 75 70 75H82C82.5523 75 83 75.4477 83 76C83 76.5523 82.5523 77 82 77H70C69.4477 77 69 76.5523 69 76Z" fill="#21A19A"/>
<path d="M70 87C69.4477 87 69 87.4477 69 88C69 88.5523 69.4477 89 70 89H82C82.5523 89 83 88.5523 83 88C83 87.4477 82.5523 87 82 87H70Z" fill="#21A19A"/>
<path fill-rule="evenodd" clip-rule="evenodd" d="M37 29C34.2386 29 32 31.2386 32 34V71C32 72.1046 32.8954 73 34 73H57C60.866 73 64 76.134 64 80V97C64 98.1046 64.8954 99 66 99H89C91.7614 99 94 96.7614 94 94V64C94 63.4477 94.4477 63 95 63C95.5523 63 96 63.4477 96 64V94C96 97.866 92.866 101 89 101H65.1302C63.5225 101 61.9639 100.447 60.7161 99.4328L32.5859 76.577C30.9499 75.2477 30 73.2521 30 71.1442V34C30 30.134 33.134 27 37 27H63C63.5523 27 64 27.4477 64 28C64 28.5523 63.5523 29 63 29H37ZM33.8115 74.9956C33.8233 75.0054 33.8352 75.0151 33.847 75.0247L61.9773 97.8806C62.0259 97.9201 62.0751 97.9586 62.125 97.9961C62.0434 97.6776 62 97.3439 62 97V80C62 77.2386 59.7614 75 57 75H34C33.9368 75 33.874 74.9985 33.8115 74.9956Z" fill="#21A19A"/>
</svg>
