<svg width="64" height="64" viewBox="0 0 64 64" fill="none" xmlns="http://www.w3.org/2000/svg">
<path d="M18 17C17.4477 17 17 17.4477 17 18V21C17 21.5523 17.4477 22 18 22H21C21.5523 22 22 21.5523 22 21V18C22 17.4477 21.5523 17 21 17H18Z" fill="#21A19A"/>
<path fill-rule="evenodd" clip-rule="evenodd" d="M16 11C13.2386 11 11 13.2386 11 16V25C11 26.6569 12.3431 28 14 28H25C26.6569 28 28 26.6569 28 25V14C28 12.3431 26.6569 11 25 11H16ZM13 16C13 14.3431 14.3431 13 16 13H25C25.5523 13 26 13.4477 26 14V25C26 25.5523 25.5523 26 25 26H14C13.4477 26 13 25.5523 13 25V16Z" fill="#21A19A"/>
<path d="M41 44C40.4477 44 40 44.4477 40 45V46C40 46.5523 40.4477 47 41 47H42C42.5523 47 43 46.5523 43 46V45C43 44.4477 42.5523 44 42 44H41Z" fill="#21A19A"/>
<path d="M32 37C32 36.4477 32.4477 36 33 36H34C34.5523 36 35 36.4477 35 37V38C35 38.5523 34.5523 39 34 39H33C32.4477 39 32 38.5523 32 38V37Z" fill="#21A19A"/>
<path d="M37 40C36.4477 40 36 40.4477 36 41V42C36 42.5523 36.4477 43 37 43H38C38.5523 43 39 42.5523 39 42V41C39 40.4477 38.5523 40 38 40H37Z" fill="#21A19A"/>
<path d="M36 49C36 48.4477 36.4477 48 37 48H38C38.5523 48 39 48.4477 39 49V50C39 50.5523 38.5523 51 38 51H37C36.4477 51 36 50.5523 36 50V49Z" fill="#21A19A"/>
<path d="M45 32C44.4477 32 44 32.4477 44 33V34C44 34.5523 44.4477 35 45 35H46C46.5523 35 47 34.5523 47 34V33C47 32.4477 46.5523 32 46 32H45Z" fill="#21A19A"/>
<path d="M40 37C40 36.4477 40.4477 36 41 36H42C42.5523 36 43 36.4477 43 37V38C43 38.5523 42.5523 39 42 39H41C40.4477 39 40 38.5523 40 38V37Z" fill="#21A19A"/>
<path d="M33 44C32.4477 44 32 44.4477 32 45V46C32 46.5523 32.4477 47 33 47H34C34.5523 47 35 46.5523 35 46V45C35 44.4477 34.5523 44 34 44H33Z" fill="#21A19A"/>
<path d="M44 41C44 40.4477 44.4477 40 45 40H46C46.5523 40 47 40.4477 47 41V42C47 42.5523 46.5523 43 46 43H45C44.4477 43 44 42.5523 44 42V41Z" fill="#21A19A"/>
<path d="M49 36C48.4477 36 48 36.4477 48 37V38C48 38.5523 48.4477 39 49 39H50C50.5523 39 51 38.5523 51 38V37C51 36.4477 50.5523 36 50 36H49Z" fill="#21A19A"/>
<path d="M44 49C44 48.4477 44.4477 48 45 48H46C46.5523 48 47 48.4477 47 49V50C47 50.5523 46.5523 51 46 51H45C44.4477 51 44 50.5523 44 50V49Z" fill="#21A19A"/>
<path d="M49 44C48.4477 44 48 44.4477 48 45V46C48 46.5523 48.4477 47 49 47H50C50.5523 47 51 46.5523 51 46V45C51 44.4477 50.5523 44 50 44H49Z" fill="#21A19A"/>
<path d="M36 33C36 32.4477 36.4477 32 37 32H38C38.5523 32 39 32.4477 39 33V34C39 34.5523 38.5523 35 38 35H37C36.4477 35 36 34.5523 36 34V33Z" fill="#21A19A"/>
<path d="M18 40C17.4477 40 17 40.4477 17 41V44C17 44.5523 17.4477 45 18 45H21C21.5523 45 22 44.5523 22 44V41C22 40.4477 21.5523 40 21 40H18Z" fill="#21A19A"/>
<path fill-rule="evenodd" clip-rule="evenodd" d="M11 37C11 35.3431 12.3431 34 14 34H25C26.6569 34 28 35.3431 28 37V48C28 49.6569 26.6569 51 25 51H16C13.2386 51 11 48.7614 11 46V37ZM14 36C13.4477 36 13 36.4477 13 37V46C13 47.6569 14.3431 49 16 49H25C25.5523 49 26 48.5523 26 48V37C26 36.4477 25.5523 36 25 36H14Z" fill="#21A19A"/>
<path d="M40 18C40 17.4477 40.4477 17 41 17H44C44.5523 17 45 17.4477 45 18V21C45 21.5523 44.5523 22 44 22H41C40.4477 22 40 21.5523 40 21V18Z" fill="#21A19A"/>
<path fill-rule="evenodd" clip-rule="evenodd" d="M37 11C35.3431 11 34 12.3431 34 14V25C34 26.6569 35.3431 28 37 28H48C49.6569 28 51 26.6569 51 25V16C51 13.2386 48.7614 11 46 11H37ZM36 14C36 13.4477 36.4477 13 37 13H46C47.6569 13 49 14.3431 49 16V25C49 25.5523 48.5523 26 48 26H37C36.4477 26 36 25.5523 36 25V14Z" fill="#21A19A"/>
</svg>
