<svg width="32" height="32" viewBox="0 0 32 32" fill="none" xmlns="http://www.w3.org/2000/svg">
<path d="M17 1C17 0.447715 16.5523 0 16 0C15.4477 0 15 0.447715 15 1V3C15 3.55228 15.4477 4 16 4C16.5523 4 17 3.55228 17 3V1Z" fill="#21A19A"/>
<path d="M16 11C16.5523 11 17 11.4477 17 12V17.5C17 18.0523 16.5523 18.5 16 18.5C15.4477 18.5 15 18.0523 15 17.5V12C15 11.4477 15.4477 11 16 11Z" fill="#21A19A"/>
<path d="M17 21C17 21.5523 16.5523 22 16 22C15.4477 22 15 21.5523 15 21C15 20.4477 15.4477 20 16 20C16.5523 20 17 20.4477 17 21Z" fill="#21A19A"/>
<path fill-rule="evenodd" clip-rule="evenodd" d="M16 5C11.0294 5 7 9.02944 7 14C7 16.0899 7.71355 18.0159 8.90965 19.5438C10.0875 21.0484 11 22.479 11 24C11 26.2091 12.7909 28 15 28H17C19.2091 28 21 26.2091 21 24C21 22.479 21.9125 21.0484 23.0904 19.5438C24.2865 18.0159 25 16.0899 25 14C25 9.02944 20.9706 5 16 5ZM9 14C9 10.134 12.134 7 16 7C19.866 7 23 10.134 23 14C23 15.6273 22.4459 17.1224 21.5155 18.3109C20.3508 19.7987 19 21.7207 19 24C19 25.1046 18.1046 26 17 26H15C13.8954 26 13 25.1046 13 24C13 21.7207 11.6492 19.7987 10.4845 18.3109C9.55405 17.1224 9 15.6273 9 14Z" fill="#21A19A"/>
<path d="M12 31C12 30.4477 12.4477 30 13 30H19C19.5523 30 20 30.4477 20 31C20 31.5523 19.5523 32 19 32H13C12.4477 32 12 31.5523 12 31Z" fill="#21A19A"/>
<path d="M5.5 16C5.5 15.4477 5.05228 15 4.5 15H2.5C1.94772 15 1.5 15.4477 1.5 16C1.5 16.5523 1.94772 17 2.5 17H4.5C5.05228 17 5.5 16.5523 5.5 16Z" fill="#21A19A"/>
<path d="M27.2071 6.20711C27.5976 5.81658 27.5976 5.18342 27.2071 4.79289C26.8166 4.40237 26.1834 4.40237 25.7929 4.79289L24.2929 6.29289C23.9024 6.68342 23.9024 7.31658 24.2929 7.70711C24.6834 8.09763 25.3166 8.09763 25.7071 7.70711L27.2071 6.20711Z" fill="#21A19A"/>
<path d="M4.79289 4.79289C4.40237 5.18342 4.40237 5.81658 4.79289 6.20711L6.29289 7.70711C6.68342 8.09763 7.31658 8.09763 7.70711 7.70711C8.09763 7.31658 8.09763 6.68342 7.70711 6.29289L6.20711 4.79289C5.81658 4.40237 5.18342 4.40237 4.79289 4.79289Z" fill="#21A19A"/>
<path d="M27.5 15C26.9477 15 26.5 15.4477 26.5 16C26.5 16.5523 26.9477 17 27.5 17H29.5C30.0523 17 30.5 16.5523 30.5 16C30.5 15.4477 30.0523 15 29.5 15H27.5Z" fill="#21A19A"/>
</svg>
