<svg width="64" height="64" viewBox="0 0 64 64" fill="none" xmlns="http://www.w3.org/2000/svg">
<path d="M23 30C23 31.6569 21.6569 33 20 33C18.3431 33 17 31.6569 17 30C17 28.3431 18.3431 27 20 27C21.6569 27 23 28.3431 23 30Z" fill="#107F8C"/>
<path d="M23 42C23 43.6569 21.6569 45 20 45C18.3431 45 17 43.6569 17 42C17 40.3431 18.3431 39 20 39C21.6569 39 23 40.3431 23 42Z" fill="#107F8C"/>
<path d="M32 33C33.6569 33 35 31.6569 35 30C35 28.3431 33.6569 27 32 27C30.3431 27 29 28.3431 29 30C29 31.6569 30.3431 33 32 33Z" fill="#107F8C"/>
<path d="M35 42C35 43.6569 33.6569 45 32 45C30.3431 45 29 43.6569 29 42C29 40.3431 30.3431 39 32 39C33.6569 39 35 40.3431 35 42Z" fill="#107F8C"/>
<path d="M44 33C45.6569 33 47 31.6569 47 30C47 28.3431 45.6569 27 44 27C42.3431 27 41 28.3431 41 30C41 31.6569 42.3431 33 44 33Z" fill="#107F8C"/>
<path d="M47 42C47 43.6569 45.6569 45 44 45C42.3431 45 41 43.6569 41 42C41 40.3431 42.3431 39 44 39C45.6569 39 47 40.3431 47 42Z" fill="#107F8C"/>
<path fill-rule="evenodd" clip-rule="evenodd" d="M23 8C23.5523 8 24 8.44772 24 9V11.9999H39.7402V9C39.7402 8.44772 40.188 8 40.7402 8C41.2925 8 41.7402 8.44772 41.7402 9V11.9999H51C53.7614 11.9999 56 14.2385 56 16.9999V48.9999C56 51.7613 53.7614 53.9999 51 53.9999H13C10.2386 53.9999 8 51.7613 8 48.9999V16.9999C8 14.2385 10.2386 11.9999 13 11.9999H22V9C22 8.44772 22.4477 8 23 8ZM39.7402 13.9999V17.9942C39.7402 18.5465 40.188 18.9942 40.7402 18.9942C41.2925 18.9942 41.7402 18.5465 41.7402 17.9942V13.9999H51C52.6569 13.9999 54 15.3431 54 16.9999V48.9999C54 50.6568 52.6569 51.9999 51 51.9999H13C11.3431 51.9999 10 50.6568 10 48.9999V16.9999C10 15.3431 11.3431 13.9999 13 13.9999H22V17.9942C22 18.5465 22.4477 18.9942 23 18.9942C23.5523 18.9942 24 18.5465 24 17.9942V13.9999H39.7402Z" fill="#107F8C"/>
</svg>
