<svg width="64" height="64" viewBox="0 0 64 64" fill="none" xmlns="http://www.w3.org/2000/svg">
<path d="M40.4705 7C39.3659 7 38.4705 7.89543 38.4705 9V12.7994L32.7858 7.83611C32.0174 7.16523 30.8672 7.18013 30.1164 7.87068L10.6461 25.7794C10.2343 26.1581 10 26.692 10 27.2514V55C10 55.5523 10.4477 56 11 56C11.5523 56 12 55.5523 12 55L12 27.2514L31.4704 9.34269L37.1551 14.306C38.4487 15.4354 40.4705 14.5167 40.4705 12.7994V9H46.6133V21.655C46.6133 22.2324 46.8629 22.7817 47.2979 23.1615L52 27.2669V35.5C52 36.0523 52.4477 36.5 53 36.5C53.5523 36.5 54 36.0523 54 35.5V27.2669C54 26.6894 53.7504 26.1401 53.3154 25.7603L48.6133 21.655V9C48.6133 7.89543 47.7178 7 46.6133 7H40.4705Z" fill="#107F8C"/>
<path d="M22 30C20.3431 30 19 31.3431 19 33V39C19 39.5523 19.4477 40 20 40C20.5523 40 21 39.5523 21 39V33C21 32.4477 21.4477 32 22 32H30C30.5523 32 31 31.5523 31 31C31 30.4477 30.5523 30 30 30H22Z" fill="#107F8C"/>
<path fill-rule="evenodd" clip-rule="evenodd" d="M53.7439 57H54C56.7614 57 59 54.7614 59 52V49C59 46.2386 56.7614 44 54 44H53.9405C53.6509 44 53.3412 43.8649 53.0924 43.5988C50.4475 40.7701 46.6792 39 42.4991 39C37.9301 39 33.8542 41.1144 31.1981 44.4143C30.9796 44.6857 30.6971 44.8409 30.4212 44.8707L23.464 45.6207C20.9248 45.8945 19 48.038 19 50.5919V52C19 54.7614 21.2386 57 24 57H26.2561C26.8738 58.7478 28.5407 60 30.5 60C32.4593 60 34.1262 58.7478 34.7439 57H45.2561C45.8738 58.7478 47.5407 60 49.5 60C51.4593 60 53.1262 58.7478 53.7439 57ZM42.4991 41C38.5611 41 35.0489 42.8199 32.7561 45.6683C32.2507 46.2962 31.5075 46.7651 30.6356 46.8591L23.6784 47.6092C22.1549 47.7735 21 49.0595 21 50.5919V52C21 53.6569 22.3431 55 24 55H26.0275C26.2762 52.75 28.1837 51 30.5 51C32.8163 51 34.7238 52.75 34.9725 55H45.0275C45.2762 52.75 47.1837 51 49.5 51C51.8163 51 53.7238 52.75 53.9725 55H54C55.6569 55 57 53.6569 57 52V49C57 47.3431 55.6569 46 54 46H53.9405C53.0247 46 52.206 45.5792 51.6315 44.9648C49.349 42.5236 46.1028 41 42.4991 41ZM30.5 53C29.1193 53 28 54.1193 28 55.5C28 56.8807 29.1193 58 30.5 58C31.8807 58 33 56.8807 33 55.5C33 54.1193 31.8807 53 30.5 53ZM47 55.5C47 54.1193 48.1193 53 49.5 53C50.8807 53 52 54.1193 52 55.5C52 56.8807 50.8807 58 49.5 58C48.1193 58 47 56.8807 47 55.5Z" fill="#107F8C"/>
</svg>
