<svg width="128" height="128" viewBox="0 0 128 128" fill="none" xmlns="http://www.w3.org/2000/svg">
<path fill-rule="evenodd" clip-rule="evenodd" d="M42.6076 24.0093C40.4193 23.8787 38.8757 25.1363 38.0117 26.8297C37.166 28.4869 36.9121 30.6315 37.1848 32.658C37.3781 34.094 37.846 35.5436 38.6245 36.77C38.3484 36.93 38.0657 37.075 37.777 37.2033C35.8964 38.0388 33.7414 38.1779 31.4367 37.0597C30.9398 36.8186 30.3416 37.026 30.1005 37.5229C29.8595 38.0198 30.0668 38.618 30.5637 38.8591C33.4412 40.2552 36.215 40.0858 38.5891 39.031C39.0513 38.8256 39.4974 38.5873 39.9258 38.3215C41.4253 39.6653 43.4833 40.2868 45.9969 39.6934C46.9001 39.4801 47.7087 38.839 48.3251 38.2547C48.4422 38.1438 48.5574 38.0297 48.6701 37.9146C48.687 38.2328 48.7527 38.5398 48.8828 38.824C49.239 39.6016 49.9576 39.9662 50.7297 39.9978C51.4427 40.0269 52.2317 39.7856 53.0274 39.3905C53.8403 38.9868 54.7428 38.3812 55.7075 37.5775C55.8408 37.4664 55.9489 37.3845 56.0347 37.3243C56.1212 37.4746 56.2445 37.6863 56.3819 37.8789C56.8121 38.4821 57.491 39.0867 58.6848 39.2748C59.8023 39.4508 61.285 39.2473 63.3332 38.5242C63.8539 38.3403 64.1271 37.769 63.9432 37.2483C63.7593 36.7275 63.1881 36.4544 62.6673 36.6383C60.7491 37.3155 59.6359 37.4 58.9961 37.2992C58.4326 37.2104 58.1925 36.9733 58.0102 36.7176C57.9259 36.5994 57.8663 36.4959 57.7901 36.3636C57.7569 36.306 57.7206 36.243 57.6778 36.1709C57.5744 35.997 57.3668 35.6477 57.0151 35.4193C56.5638 35.1262 56.0623 35.1294 55.6137 35.2914C55.2232 35.4325 54.8305 35.705 54.4273 36.0409C53.5471 36.7743 52.7751 37.2828 52.1379 37.5992C51.4834 37.9242 51.0464 38.009 50.8114 37.9994C50.7519 37.997 50.7162 37.989 50.6979 37.9834C50.6699 37.9121 50.6156 37.6474 50.7728 37.0731C50.9307 36.4956 51.0383 36.0377 51.0865 35.6969C51.1097 35.5324 51.1277 35.3392 51.1107 35.1504C51.0998 35.0296 51.0502 34.5551 50.6072 34.2638C50.1045 33.9332 49.6114 34.1523 49.4806 34.2184C49.3055 34.3068 49.1624 34.4281 49.0706 34.5114C48.8753 34.6886 48.6551 34.9355 48.4479 35.1724C48.3795 35.2507 48.3098 35.331 48.2387 35.4129C47.8472 35.864 47.4155 36.3612 46.9493 36.8032C46.3767 37.3458 45.8941 37.6626 45.5373 37.7469C43.8385 38.148 42.5487 37.8142 41.5787 37.0924C42.5991 36.1982 43.4762 35.1569 44.1812 34.0754C45.4931 32.0628 46.2915 29.7821 46.2185 27.8802C46.1816 26.9188 45.917 25.9761 45.2913 25.2435C44.649 24.4914 43.7244 24.076 42.6076 24.0093ZM42.5058 32.9832C41.8826 33.9391 41.119 34.8379 40.2505 35.597C39.6951 34.6852 39.3257 33.5703 39.167 32.3912C38.9351 30.6682 39.1735 28.9532 39.7932 27.7387C40.3945 26.5603 41.2893 25.9342 42.4885 26.0058C43.1601 26.0459 43.5399 26.2724 43.7705 26.5423C44.0177 26.8318 44.1944 27.2912 44.22 27.9569C44.2719 29.3092 43.6795 31.1826 42.5058 32.9832Z" fill="#21A19A"/>
<path fill-rule="evenodd" clip-rule="evenodd" d="M22 27C22 19.8203 27.8203 14 35 14H60C67.1797 14 73 19.8203 73 27V39C73 45.4935 68.2397 50.8743 62.0178 51.8442V64.0004C62.0178 64.3848 61.7975 64.7352 61.451 64.9017C61.1045 65.0682 60.6933 65.0214 60.3931 64.7813L44.4165 52H35C27.8203 52 22 46.1797 22 39V27ZM35 16C28.9249 16 24 20.9249 24 27V39C24 45.0751 28.9249 50 35 50H44.7673C44.9944 50 45.2147 50.0773 45.392 50.2191L60.0178 61.9198V50.9574C60.0178 50.4376 60.4161 50.0045 60.9341 49.961C66.5715 49.4875 71 44.7604 71 39V27C71 20.9249 66.0751 16 60 16H35Z" fill="#21A19A"/>
<path d="M91 45C91 42.2386 88.7614 40 86 40H81.5859C81.0336 40 80.5859 40.4477 80.5859 41C80.5859 41.5523 81.0336 42 81.5859 42H86C87.6569 42 89 43.3431 89 45V103C89 104.657 87.6569 106 86 106H54C52.3431 106 51 104.657 51 103V67.4527C51 66.9004 50.5523 66.4527 50 66.4527C49.4477 66.4527 49 66.9004 49 67.4527V103C49 105.761 51.2386 108 54 108H86C88.7614 108 91 105.761 91 103V45Z" fill="#21A19A"/>
<path d="M66 100C65.4477 100 65 100.448 65 101C65 101.552 65.4477 102 66 102H74C74.5523 102 75 101.552 75 101C75 100.448 74.5523 100 74 100H66Z" fill="#21A19A"/>
</svg>
