<svg width="64" height="64" viewBox="0 0 64 64" fill="none" xmlns="http://www.w3.org/2000/svg">
<path fill-rule="evenodd" clip-rule="evenodd" d="M32 9C19.2975 9 9 19.2975 9 32C9 44.7025 19.2975 55 32 55C44.7025 55 55 44.7025 55 32C55 19.2975 44.7025 9 32 9ZM7 32C7 18.1929 18.1929 7 32 7C45.8071 7 57 18.1929 57 32C57 45.8071 45.8071 57 32 57C18.1929 57 7 45.8071 7 32Z" fill="#107F8C"/>
<path fill-rule="evenodd" clip-rule="evenodd" d="M45.7448 24.3327C46.1133 24.744 46.0787 25.3762 45.6673 25.7448L30.0423 39.7448C29.6733 40.0754 29.1178 40.086 28.7365 39.7696L19.3615 31.9919C18.9365 31.6392 18.8778 31.0088 19.2304 30.5837C19.583 30.1587 20.2135 30.1 20.6385 30.4526L29.3499 37.6798L44.3327 24.2552C44.744 23.8867 45.3763 23.9214 45.7448 24.3327Z" fill="#107F8C"/>
</svg>
