<svg width="64" height="64" viewBox="0 0 64 64" fill="none" xmlns="http://www.w3.org/2000/svg">
<path d="M5 16C5 13.2386 7.23858 11 10 11H54C56.7614 11 59 13.2386 59 16V41C59 43.7614 56.7614 46 54 46H38.5C37.9477 46 37.5 45.5523 37.5 45C37.5 44.4477 37.9477 44 38.5 44H54C55.6569 44 57 42.6569 57 41V16C57 14.3431 55.6569 13 54 13H10C8.34314 13 7 14.3431 7 16V35.3415C7 35.8937 6.55228 36.3415 6 36.3415C5.44772 36.3415 5 35.8937 5 35.3415V16Z" fill="#21A19A"/>
<path fill-rule="evenodd" clip-rule="evenodd" d="M20 23C16.134 23 13 26.134 13 30C13 33.866 16.134 37 20 37C23.866 37 27 33.866 27 30C27 26.134 23.866 23 20 23ZM15 30C15 27.2386 17.2386 25 20 25C22.7614 25 25 27.2386 25 30C25 32.7614 22.7614 35 20 35C17.2386 35 15 32.7614 15 30Z" fill="#21A19A"/>
<path fill-rule="evenodd" clip-rule="evenodd" d="M9.52743 52H30.4726C31.5706 52 32.5791 51.2495 32.7906 50.1273C32.9296 49.3947 33 48.6546 33 47.9273C33 44.3021 31.3305 40.8803 28.449 38.5345L28.448 38.5336C27.5639 37.8159 26.27 37.8218 25.394 38.5537C23.8815 39.8171 21.929 40.5198 19.8964 40.5198C17.9029 40.5198 15.9791 39.8415 14.4797 38.6203L14.4778 38.6188C13.5928 37.9015 12.3019 37.9081 11.4249 38.6383L11.4234 38.6395C8.62252 40.9804 7 44.3627 7 47.9273C7 48.6554 7.07147 49.3952 7.20911 50.126C7.42105 51.2471 8.42756 52 9.52743 52ZM26.6762 40.0885C26.8152 39.9724 27.0427 39.9695 27.1867 40.0858C29.6202 42.067 31 44.9275 31 47.9273C31 48.5265 30.9419 49.1419 30.8257 49.7546L30.8253 49.7566C30.8062 49.8586 30.6877 50 30.4726 50H9.52743C9.31367 50 9.19441 49.8597 9.1745 49.7555C9.05882 49.1412 9 48.5255 9 47.9273C9 44.9786 10.3415 42.1508 12.705 40.1749C12.8466 40.0575 13.0731 40.0554 13.2176 40.1718C15.0825 41.6903 17.4546 42.5198 19.8964 42.5198C22.3863 42.5198 24.7954 41.6596 26.6762 40.0885ZM13.2176 40.1718L13.2167 40.171L13.8482 39.3957L13.2186 40.1726L13.2176 40.1718Z" fill="#21A19A"/>
<path d="M35.7071 38.2071L50.2071 23.7071C50.5976 23.3166 50.5976 22.6834 50.2071 22.2929C49.8166 21.9024 49.1834 21.9024 48.7929 22.2929L34.2929 36.7929C33.9024 37.1834 33.9024 37.8166 34.2929 38.2071C34.6834 38.5976 35.3166 38.5976 35.7071 38.2071Z" fill="#21A19A"/>
</svg>
