<svg width="64" height="64" viewBox="0 0 64 64" fill="none" xmlns="http://www.w3.org/2000/svg">
<path fill-rule="evenodd" clip-rule="evenodd" d="M31.7059 8.04422C31.8975 7.98526 32.1025 7.98526 32.2941 8.04422L51.2941 13.89C51.7137 14.0192 52 14.4068 52 14.8458V26.2021C52 36.4567 46.8736 46.0595 38.3077 51.897C38.3076 51.897 38.3078 51.8969 38.3077 51.897L32.5646 55.8254C32.2242 56.0582 31.7758 56.0582 31.4354 55.8254L25.6894 51.895C17.1277 46.011 12 36.4105 12 26.2021V14.8458C12 14.4068 12.2863 14.0192 12.7059 13.89L31.7059 8.04422ZM14 15.5844V26.2021C14 35.7354 18.7897 44.7265 26.8222 50.2467L32 53.7884L37.1811 50.2445C45.2093 44.7736 50 35.7848 50 26.2021V15.5844L32 10.0463L14 15.5844Z" fill="#21A19A"/>
<path fill-rule="evenodd" clip-rule="evenodd" d="M27 23C27 22.4477 27.4477 22 28 22H34.3163C36.5567 22 38.0507 22.7923 38.9469 23.9943C39.8029 25.1425 40 26.5147 40 27.5V27.8013C40 28.8541 39.693 30.1559 38.7851 31.2109C37.8509 32.2965 36.3841 33 34.3163 33H29V36H32C32.5523 36 33 36.4477 33 37C33 37.5523 32.5523 38 32 38H29V41C29 41.5523 28.5523 42 28 42C27.4477 42 27 41.5523 27 41V38H26C25.4477 38 25 37.5523 25 37C25 36.4477 25.4477 36 26 36H27V33H26C25.4477 33 25 32.5523 25 32C25 31.4477 25.4477 31 26 31H27V23ZM29 31V24H34.3163C36.0412 24 36.8891 24.5804 37.3435 25.1898C37.8379 25.8529 38 26.7307 38 27.5V27.8013C38 28.5032 37.7904 29.3006 37.2692 29.9063C36.7742 30.4815 35.8991 31 34.3163 31H29Z" fill="#21A19A"/>
</svg>
