<svg width="64" height="64" viewBox="0 0 64 64" fill="none" xmlns="http://www.w3.org/2000/svg">
<path fill-rule="evenodd" clip-rule="evenodd" d="M36 10C36 7.79086 37.7909 6 40 6C42.2091 6 44 7.79086 44 10C44 12.2091 42.2091 14 40 14C37.7909 14 36 12.2091 36 10ZM40 8C38.8954 8 38 8.89543 38 10C38 11.1046 38.8954 12 40 12C41.1046 12 42 11.1046 42 10C42 8.89543 41.1046 8 40 8Z" fill="#21A19A"/>
<path fill-rule="evenodd" clip-rule="evenodd" d="M52 19C49.7909 19 48 20.7909 48 23C48 25.2091 49.7909 27 52 27C54.2091 27 56 25.2091 56 23C56 20.7909 54.2091 19 52 19ZM50 23C50 21.8954 50.8954 21 52 21C53.1046 21 54 21.8954 54 23C54 24.1046 53.1046 25 52 25C50.8954 25 50 24.1046 50 23Z" fill="#21A19A"/>
<path d="M7.29289 21.2929C7.68342 20.9024 8.31658 20.9024 8.70711 21.2929L17.5355 30.1213C18.0981 30.6839 18.8612 31 19.6569 31H31.3431C32.6692 31 33.941 31.5268 34.8787 32.4645L50.7071 48.2929C51.0976 48.6834 51.0976 49.3166 50.7071 49.7071C50.5123 49.9019 50.2572 49.9995 50.002 50H51V45C51 44.4477 51.4477 44 52 44C52.5523 44 53 44.4477 53 45V50C53 51.1046 52.1046 52 51 52H46C45.4477 52 45 51.5523 45 51C45 50.4477 45.4477 50 46 50H49.998C49.7428 49.9995 49.4877 49.9019 49.2929 49.7071L33.9036 34.3178C33.743 34.6555 33.3988 34.8889 33 34.8889C32.4477 34.8889 32 34.4412 32 33.8889V33.0728C31.7861 33.0248 31.5659 33 31.3431 33H19.6569C19.4356 33 19.216 32.9853 18.9991 32.9566C18.9997 32.971 19 32.9854 19 33V33.8889C19 34.4412 18.5523 34.8889 18 34.8889C17.4477 34.8889 17 34.4412 17 33.8889V33C17 32.7605 17.0842 32.5407 17.2246 32.3685C16.8235 32.1452 16.4517 31.8659 16.1213 31.5355L7.29289 22.7071C6.90237 22.3166 6.90237 21.6834 7.29289 21.2929Z" fill="#21A19A"/>
<path d="M19 37.4444C19 36.8922 18.5523 36.4444 18 36.4444C17.4477 36.4444 17 36.8922 17 37.4444V39.2222C17 39.7745 17.4477 40.2222 18 40.2222C18.5523 40.2222 19 39.7745 19 39.2222V37.4444Z" fill="#21A19A"/>
<path d="M19 42.7778C19 42.2255 18.5523 41.7778 18 41.7778C17.4477 41.7778 17 42.2255 17 42.7778V44.5556C17 45.1078 17.4477 45.5556 18 45.5556C18.5523 45.5556 19 45.1078 19 44.5556V42.7778Z" fill="#21A19A"/>
<path d="M19 48.1111C19 47.5588 18.5523 47.1111 18 47.1111C17.4477 47.1111 17 47.5588 17 48.1111V49C17 49.5523 17.4477 50 18 50C18.5523 50 19 49.5523 19 49V48.1111Z" fill="#21A19A"/>
<path d="M33 36.4444C33.5523 36.4444 34 36.8922 34 37.4444V39.2222C34 39.7745 33.5523 40.2222 33 40.2222C32.4477 40.2222 32 39.7745 32 39.2222V37.4444C32 36.8922 32.4477 36.4444 33 36.4444Z" fill="#21A19A"/>
<path d="M33 41.7778C33.5523 41.7778 34 42.2255 34 42.7778V44.5556C34 45.1078 33.5523 45.5556 33 45.5556C32.4477 45.5556 32 45.1078 32 44.5556V42.7778C32 42.2255 32.4477 41.7778 33 41.7778Z" fill="#21A19A"/>
<path d="M33 47.1111C33.5523 47.1111 34 47.5588 34 48.1111V49C34 49.5523 33.5523 50 33 50C32.4477 50 32 49.5523 32 49V48.1111C32 47.5588 32.4477 47.1111 33 47.1111Z" fill="#21A19A"/>
<path d="M54.7071 9.70711C55.0976 9.31658 55.0976 8.68342 54.7071 8.29289C54.3166 7.90237 53.6834 7.90237 53.2929 8.29289L38.2929 23.2929C37.9024 23.6834 37.9024 24.3166 38.2929 24.7071C38.6834 25.0976 39.3166 25.0976 39.7071 24.7071L54.7071 9.70711Z" fill="#21A19A"/>
</svg>
