<svg width="64" height="64" viewBox="0 0 64 64" fill="none" xmlns="http://www.w3.org/2000/svg">
<path fill-rule="evenodd" clip-rule="evenodd" d="M48 9C48 8.44772 47.5523 8 47 8C46.4477 8 46 8.44772 46 9V22.5858L40.7071 17.2929C40.3166 16.9024 39.6834 16.9024 39.2929 17.2929C38.9024 17.6834 38.9024 18.3166 39.2929 18.7071L46.2929 25.7071C46.6834 26.0976 47.3166 26.0976 47.7071 25.7071L54.7071 18.7071C55.0976 18.3166 55.0976 17.6834 54.7071 17.2929C54.3166 16.9024 53.6834 16.9024 53.2929 17.2929L48 22.5858V9ZM15.6 13C14.1735 13 13 14.1708 13 15.6364V48.3636C13 49.8292 14.1735 51 15.6 51H44.4C45.8265 51 47 49.8292 47 48.3636V39.0553C47 38.503 47.4477 38.0553 48 38.0553C48.5523 38.0553 49 38.503 49 39.0553V48.3636C49 50.9147 46.95 53 44.4 53H15.6C13.05 53 11 50.9147 11 48.3636V15.6364C11 13.0853 13.05 11 15.6 11H27C27.5523 11 28 11.4477 28 12C28 12.5523 27.5523 13 27 13H15.6ZM22 19C21.4477 19 21 19.4477 21 20C21 20.5523 21.4477 21 22 21L27 21C27.5523 21 28 20.5523 28 20C28 19.4477 27.5523 19 27 19L22 19ZM22 27C21.4477 27 21 27.4477 21 28C21 28.5523 21.4477 29 22 29H27C27.5523 29 28 28.5523 28 28C28 27.4477 27.5523 27 27 27H22ZM21 36C21 35.4477 21.4477 35 22 35H27C27.5523 35 28 35.4477 28 36C28 36.5523 27.5523 37 27 37H22C21.4477 37 21 36.5523 21 36ZM22 43C21.4477 43 21 43.4477 21 44C21 44.5523 21.4477 45 22 45H34C34.5523 45 35 44.5523 35 44C35 43.4477 34.5523 43 34 43H22ZM39 31C38.4477 31 38 31.4477 38 32C38 32.5523 38.4477 33 39 33H55C55.5523 33 56 32.5523 56 32C56 31.4477 55.5523 31 55 31H39Z" fill="#107F8C"/>
</svg>
