<svg width="64" height="64" viewBox="0 0 64 64" fill="none" xmlns="http://www.w3.org/2000/svg">
<path fill-rule="evenodd" clip-rule="evenodd" d="M32 4C29.2386 4 27 6.23858 27 9C27 11.7614 29.2386 14 32 14C34.7614 14 37 11.7614 37 9C37 6.23858 34.7614 4 32 4ZM29 9C29 7.34315 30.3431 6 32 6C33.6569 6 35 7.34315 35 9C35 10.6569 33.6569 12 32 12C30.3431 12 29 10.6569 29 9Z" fill="#107F8C"/>
<path d="M21.8463 12.4684C21.5526 12.0007 20.9354 11.8596 20.4676 12.1532C14.7695 15.7309 10.7884 21.7976 10.0519 28.8333C9.99435 29.3826 10.393 29.8744 10.9423 29.9319C11.4916 29.9894 11.9835 29.5908 12.041 29.0415C12.7114 22.6375 16.3356 17.1092 21.5311 13.847C21.9989 13.5534 22.14 12.9361 21.8463 12.4684Z" fill="#107F8C"/>
<path d="M36.7037 51.942C36.7843 52.4883 36.4068 52.9966 35.8605 53.0773C34.7798 53.2369 33.6747 53.3194 32.5508 53.3194C31.4967 53.3194 30.459 53.2468 29.4426 53.1061C28.8955 53.0304 28.5134 52.5255 28.5892 51.9785C28.6649 51.4314 29.1697 51.0493 29.7168 51.125C30.6426 51.2531 31.5887 51.3194 32.5508 51.3194C33.5766 51.3194 34.5841 51.2441 35.5683 51.0988C36.1147 51.0181 36.623 51.3956 36.7037 51.942Z" fill="#107F8C"/>
<path d="M44.4123 12.1532C43.9445 11.8596 43.3273 12.0007 43.0336 12.4684C42.7399 12.9361 42.881 13.5534 43.3488 13.847C48.5443 17.1092 52.1685 22.6375 52.8389 29.0415C52.8964 29.5908 53.3883 29.9894 53.9376 29.9319C54.4869 29.8744 54.8855 29.3826 54.828 28.8333C54.0915 21.7976 50.1104 15.7309 44.4123 12.1532Z" fill="#107F8C"/>
<path fill-rule="evenodd" clip-rule="evenodd" d="M20.9817 58H7.01829C6.1374 58 5.31863 57.3965 5.14529 56.4797C5.04988 55.9731 5 55.4586 5 54.9516C5 52.4725 6.12846 50.1254 8.06851 48.5039L8.06997 48.5027C8.7772 47.9139 9.815 47.9087 10.5284 48.4869L10.5303 48.4884C11.4689 49.2529 12.6767 49.6799 13.9309 49.6799C15.2098 49.6799 16.4354 49.2376 17.3823 48.4466C18.0891 47.8561 19.1294 47.8517 19.8421 48.4303L19.8431 48.4311C21.8388 50.0558 23 52.4305 23 54.9516C23 55.4577 22.951 55.972 22.8546 56.4803C22.6814 57.3983 21.8608 58 20.9817 58ZM18.6223 50.0165C17.3134 51.0929 15.6486 51.6799 13.9309 51.6799C12.2465 51.6799 10.6073 51.1139 9.30967 50.0734C7.83222 51.328 7 53.1052 7 54.9516C7 55.2937 7.03054 55.6462 7.09105 56H20.9091C20.9698 55.6473 21 55.2948 21 54.9516C21 53.073 20.144 51.2751 18.6223 50.0165Z" fill="#107F8C"/>
<path fill-rule="evenodd" clip-rule="evenodd" d="M44.0183 58H57.9817C58.8608 58 59.6814 57.3983 59.8546 56.4803C59.951 55.972 60 55.4577 60 54.9516C60 52.4305 58.8388 50.0558 56.8431 48.4311L56.8421 48.4303C56.1294 47.8517 55.0891 47.8561 54.3823 48.4466C53.4354 49.2376 52.2098 49.6799 50.9309 49.6799C49.6767 49.6799 48.4689 49.2529 47.5303 48.4884L47.5284 48.4869C46.815 47.9087 45.7772 47.9139 45.07 48.5027L45.0685 48.5039C43.1285 50.1254 42 52.4725 42 54.9516C42 55.4586 42.0497 55.9724 42.1452 56.479C42.3185 57.3959 43.1374 58 44.0183 58ZM50.9309 51.6799C52.6486 51.6799 54.3134 51.0929 55.6223 50.0165C57.144 51.2751 58 53.073 58 54.9516C58 55.2948 57.9698 55.6473 57.9091 56H44.091C44.0305 55.6462 44 55.2937 44 54.9516C44 53.1052 44.8322 51.328 46.3097 50.0734C47.6073 51.1139 49.2465 51.6799 50.9309 51.6799Z" fill="#107F8C"/>
<path fill-rule="evenodd" clip-rule="evenodd" d="M38.9817 25H25.0183C24.1374 25 23.3186 24.3965 23.1453 23.4797C23.0499 22.9731 23 22.4586 23 21.9516C23 19.4725 24.1285 17.1254 26.0685 15.5039L26.07 15.5027C26.7772 14.9139 27.815 14.9087 28.5284 15.4869L28.5303 15.4884C29.4689 16.2529 30.6767 16.6799 31.9309 16.6799C33.2098 16.6799 34.4354 16.2376 35.3823 15.4466C36.0891 14.8561 37.1294 14.8517 37.8421 15.4303L37.8431 15.4312C39.8388 17.0558 41 19.4305 41 21.9516C41 22.4577 40.951 22.972 40.8546 23.4803C40.6814 24.3983 39.8608 25 38.9817 25ZM36.6223 17.0165C35.3134 18.0929 33.6486 18.6799 31.9309 18.6799C30.2465 18.6799 28.6073 18.1139 27.3097 17.0734C25.8322 18.328 25 20.1052 25 21.9516C25 22.2937 25.0305 22.6462 25.091 23H38.9091C38.9698 22.6473 39 22.2947 39 21.9516C39 20.073 38.144 18.2751 36.6223 17.0165Z" fill="#107F8C"/>
<path fill-rule="evenodd" clip-rule="evenodd" d="M14 37C11.2386 37 9 39.2386 9 42C9 44.7614 11.2386 47 14 47C16.7614 47 19 44.7614 19 42C19 39.2386 16.7614 37 14 37ZM11 42C11 40.3431 12.3431 39 14 39C15.6569 39 17 40.3431 17 42C17 43.6569 15.6569 45 14 45C12.3431 45 11 43.6569 11 42Z" fill="#107F8C"/>
<path fill-rule="evenodd" clip-rule="evenodd" d="M46 42C46 39.2386 48.2386 37 51 37C53.7614 37 56 39.2386 56 42C56 44.7614 53.7614 47 51 47C48.2386 47 46 44.7614 46 42ZM51 39C49.3431 39 48 40.3431 48 42C48 43.6569 49.3431 45 51 45C52.6569 45 54 43.6569 54 42C54 40.3431 52.6569 39 51 39Z" fill="#107F8C"/>
</svg>
