<svg width="128" height="128" viewBox="0 0 128 128" fill="none" xmlns="http://www.w3.org/2000/svg">
<path fill-rule="evenodd" clip-rule="evenodd" d="M90.6989 19.4359C91.6418 20.001 92.4195 20.697 93.0298 21.4467C93.6401 20.697 94.4178 20.001 95.3607 19.4359C95.3361 19.0406 95.3619 18.6034 95.4666 18.1784C95.6579 17.4018 96.167 16.5043 97.275 16.177C98.1379 15.9221 99.0893 15.9827 99.8145 16.1088C100.189 16.1739 100.534 16.2618 100.818 16.3541C101.071 16.4361 101.367 16.5499 101.58 16.6967C101.599 16.7094 101.617 16.7228 101.635 16.7368C102.226 17.2044 102.627 17.8088 102.787 18.541C102.905 19.0811 102.882 19.6441 102.761 20.2143C103.092 20.678 103.318 21.1966 103.454 21.6766C103.578 22.1149 103.654 22.6126 103.619 23.0738C104.283 22.0662 105.103 20.8849 105.811 19.8721C105.997 19.6068 106.173 19.3549 106.337 19.1213C106.855 18.3832 107.244 17.8276 107.385 17.6073C107.866 16.8566 108.831 16.5966 109.669 16.786C110.586 16.9934 111.389 17.7043 111.86 18.8822C112.284 19.9402 112.801 22.068 112.987 24.5958C113.175 27.1329 113.038 30.1653 112.08 33.0046C111.149 35.7641 110.065 37.3389 108.937 38.2984C108.044 39.0584 107.124 39.4026 106.525 39.6265C106.387 39.6783 106.265 39.7238 106.166 39.7664C105.265 40.1511 104.13 40.3488 102.691 40.0922C102.955 40.6706 103.065 41.289 102.976 41.9639C102.886 42.6474 102.599 43.3293 102.169 44.0363C102.042 44.2452 101.843 44.4003 101.609 44.4722C100.658 44.7648 99.8525 45.112 99.5943 45.2361C99.4993 45.2817 99.3979 45.312 99.2939 45.3259C99.6576 45.7853 99.9603 46.2962 100.168 46.8303C100.567 47.8556 100.658 49.1 99.9461 50.1804C99.6149 50.683 99.1258 51.0369 98.6561 51.2947C98.178 51.557 97.6418 51.7617 97.1334 51.9298C96.7095 52.07 96.2741 52.1944 95.8852 52.3055L95.6591 52.3702C95.404 52.4436 95.1818 52.5095 94.9921 52.5715C94.7878 53.0801 94.5134 53.4885 94.1043 53.7387C93.8298 53.9066 93.5669 53.9575 93.3791 53.9762C93.3036 53.9838 93.2303 53.9867 93.1906 53.9883C93.1366 53.9906 93.0829 53.9902 93.0298 53.9871C92.9767 53.9902 92.923 53.9906 92.869 53.9883C92.8293 53.9867 92.756 53.9838 92.6805 53.9762C92.4927 53.9575 92.2298 53.9066 91.9553 53.7387C91.5462 53.4885 91.2718 53.0801 91.0675 52.5715C90.8778 52.5095 90.6556 52.4436 90.4005 52.3702L90.1744 52.3054C89.7855 52.1943 89.3501 52.07 88.9262 51.9298C88.4177 51.7617 87.8815 51.557 87.4035 51.2947C86.9338 51.0369 86.4447 50.683 86.1135 50.1804C85.4016 49.1 85.4923 47.8556 85.8914 46.8303C86.0993 46.2962 86.402 45.7853 86.7657 45.3259C86.6617 45.312 86.5603 45.2817 86.4653 45.2361C86.2071 45.112 85.402 44.7648 84.4507 44.4722C84.2169 44.4003 84.0175 44.2452 83.8904 44.0363C83.4601 43.3293 83.1735 42.6474 83.0833 41.9639C82.9942 41.289 83.1042 40.6706 83.3684 40.0922C81.9299 40.3488 80.7945 40.1511 79.8939 39.7664C79.7941 39.7238 79.6727 39.6783 79.5341 39.6265C78.9357 39.4025 78.016 39.0584 77.1226 38.2984C75.9945 37.3389 74.9109 35.7641 73.9797 33.0046C73.0216 30.1653 72.8845 27.1329 73.0721 24.5958C73.2591 22.068 73.7757 19.9402 74.1991 18.8822C74.6705 17.7043 75.4739 16.9934 76.3909 16.786C77.2284 16.5966 78.1938 16.8566 78.6745 17.6073C78.8155 17.8275 79.2048 18.3829 79.7221 19.1207L79.7279 19.129C79.8901 19.3604 80.0649 19.6097 80.2484 19.8721C80.9568 20.8849 81.7767 22.0662 82.441 23.0738C82.4057 22.6126 82.4811 22.1149 82.6055 21.6766C82.7417 21.1966 82.9671 20.678 83.2982 20.2143C83.1781 19.6441 83.1551 19.0811 83.273 18.541C83.4329 17.8088 83.8337 17.2044 84.4247 16.7368C84.4424 16.7228 84.4606 16.7094 84.4792 16.6967C84.693 16.5499 84.9885 16.4361 85.2414 16.3541C85.5258 16.2618 85.8707 16.1739 86.2451 16.1088C86.9703 15.9827 87.9217 15.9221 88.7846 16.177C89.8926 16.5043 90.4017 17.4018 90.593 18.1784C90.6977 18.6034 90.7235 19.0406 90.6989 19.4359ZM86.5876 18.0792C87.1772 17.9767 87.7785 17.9652 88.218 18.095C88.4123 18.1524 88.5627 18.2979 88.651 18.6567C88.7451 19.0385 88.7072 19.4739 88.6422 19.6997C88.5086 20.1642 88.7263 20.6579 89.1595 20.8724C90.4882 21.5302 91.4377 22.5004 92.0169 23.4794C92.0711 23.7717 92.2546 24.0368 92.5387 24.1847C92.6958 24.2664 92.8646 24.3023 93.0298 24.2973C93.195 24.3023 93.3638 24.2664 93.5209 24.1847C93.805 24.0368 93.9885 23.7717 94.0427 23.4794C94.6219 22.5004 95.5714 21.5302 96.9001 20.8724C97.3333 20.6579 97.551 20.1642 97.4174 19.6997C97.3524 19.4739 97.3145 19.0385 97.4086 18.6567C97.4969 18.2979 97.6473 18.1524 97.8416 18.095C98.2811 17.9652 98.8824 17.9767 99.472 18.0792C99.7551 18.1284 100.008 18.1939 100.201 18.2565C100.341 18.3017 100.417 18.3353 100.446 18.3479C100.671 18.5409 100.783 18.7419 100.833 18.9677C100.891 19.2332 100.879 19.6157 100.71 20.1627C100.602 20.5133 100.694 20.8949 100.951 21.157C101.206 21.4176 101.413 21.8092 101.53 22.2226C101.587 22.4238 101.617 22.609 101.625 22.7588C101.635 22.9496 101.584 23.1341 101.533 23.3179C101.513 23.3892 101.493 23.4613 101.477 23.5328L101.477 23.5347C101.428 23.7527 101.378 23.9723 101.297 24.1811C101.18 24.4834 101.055 24.6048 100.885 24.6643C100.835 24.6816 100.82 24.6664 100.787 24.6347L100.773 24.621C100.748 24.598 100.718 24.5675 100.683 24.5313C100.271 24.1125 99.7784 23.7172 99.1944 23.5769C98.8004 23.4822 98.4588 23.5955 98.2302 23.7268C98.0104 23.853 97.8424 24.0227 97.7217 24.1674C97.4785 24.459 97.2804 24.8283 97.1304 25.1717C96.9758 25.5255 96.8468 25.9103 96.762 26.2687C96.6844 26.597 96.6167 27.0127 96.668 27.3824C96.6769 27.4468 96.6868 27.5267 96.6981 27.6177C96.7387 27.9451 96.7971 28.4157 96.8911 28.8196C96.9524 29.083 97.0443 29.3945 97.1958 29.6728C97.3384 29.9349 97.6273 30.3363 98.1563 30.4749C98.4809 30.56 98.7606 30.4751 98.8697 30.4386C99.0132 30.3905 99.1466 30.3235 99.2572 30.2612C99.4819 30.1347 99.7317 29.9594 99.9845 29.7653C100.497 29.3721 101.119 28.8258 101.754 28.2223C103.009 27.0284 104.417 25.5082 105.157 24.374C105.824 23.3538 106.692 22.1018 107.45 21.0184C107.619 20.7772 107.783 20.5426 107.939 20.3201L107.943 20.3147C108.44 19.6065 108.85 19.0214 109.036 18.7379C109.058 18.7285 109.118 18.7119 109.228 18.7368C109.375 18.7701 109.724 18.9257 110.004 19.6253C110.332 20.4448 110.817 22.3607 110.993 24.7433C111.168 27.1165 111.03 29.8608 110.185 32.3651C109.328 34.9057 108.408 36.123 107.641 36.775C107.04 37.2865 106.524 37.4828 105.952 37.7002C105.769 37.77 105.58 37.8419 105.38 37.9272C104.49 38.3073 102.779 38.5922 99.618 36.7332C99.1742 36.4721 98.6046 36.5908 98.302 37.0074C97.9994 37.424 98.0626 38.0023 98.448 38.3437C99.0934 38.9153 99.6173 39.3827 100.033 39.8121C100.45 40.2421 100.708 40.5833 100.853 40.8836C100.988 41.1606 101.032 41.4126 100.994 41.7021C100.96 41.9538 100.859 42.271 100.64 42.6822C99.9189 42.9215 99.3016 43.1743 98.9355 43.3378C98.7074 43.3329 98.3956 43.3037 98.0939 43.2449C97.903 43.2077 97.7456 43.1642 97.6342 43.1214C97.5605 43.0931 97.5369 43.0269 97.5117 42.9559C97.5066 42.9415 97.5014 42.9269 97.4957 42.9124C97.4845 42.884 97.4699 42.8448 97.4527 42.7985C97.3967 42.648 97.3129 42.4226 97.2286 42.2502C97.1107 42.0088 96.8813 41.6159 96.4295 41.3906C95.9371 41.1451 95.4227 41.2115 94.9885 41.3822C94.5054 41.5722 94.2479 42.1002 94.3959 42.5978C94.5064 42.9696 94.6516 43.4336 95.0547 43.9914C95.4388 44.523 96.0245 45.097 96.9521 45.804C97.5468 46.2573 98.0519 46.9072 98.3044 47.5558C98.5565 48.2034 98.5158 48.7161 98.2761 49.08C98.1982 49.1981 98.0256 49.3593 97.6939 49.5414C97.3705 49.7188 96.9655 49.8788 96.5056 50.0309C96.1243 50.157 95.7357 50.2681 95.3471 50.3791L95.106 50.4482C94.6597 50.5766 94.1901 50.7159 93.8129 50.8755C93.5377 50.9918 93.3289 51.2251 93.2438 51.5115C93.1704 51.7585 93.1057 51.9073 93.06 51.9921L93.0298 51.9937L92.9996 51.9921C92.9539 51.9073 92.8892 51.7585 92.8158 51.5115C92.7306 51.2251 92.5219 50.9918 92.2467 50.8755C91.8695 50.7159 91.3999 50.5766 90.9536 50.4482L90.7125 50.3791C90.3239 50.2681 89.9353 50.157 89.554 50.0309C89.0941 49.8788 88.6891 49.7188 88.3657 49.5414C88.034 49.3593 87.8614 49.1981 87.7835 49.08C87.5438 48.7161 87.5031 48.2034 87.7552 47.5558C88.0077 46.9072 88.5128 46.2573 89.1075 45.804C90.0351 45.097 90.6208 44.523 91.0049 43.9914C91.408 43.4336 91.5532 42.9696 91.6637 42.5978C91.8117 42.1002 91.5542 41.5722 91.0711 41.3822C90.6369 41.2115 90.1225 41.1451 89.6301 41.3906C89.1783 41.6159 88.9489 42.0088 88.831 42.2502C88.7467 42.4227 88.6629 42.648 88.6069 42.7985C88.5897 42.8448 88.5751 42.884 88.5639 42.9124C88.5582 42.9269 88.553 42.9415 88.5479 42.9559C88.5226 43.0269 88.4991 43.0931 88.4254 43.1214C88.314 43.1642 88.1566 43.2077 87.9656 43.2449C87.664 43.3037 87.3522 43.3329 87.1241 43.3378C86.758 43.1743 86.1407 42.9215 85.4192 42.6822C85.2002 42.271 85.0993 41.9538 85.0661 41.7021C85.0279 41.4126 85.072 41.1606 85.2062 40.8836C85.3517 40.5833 85.6093 40.2421 86.0262 39.8121C86.4423 39.3827 86.9662 38.9153 87.6116 38.3437C87.997 38.0023 88.0602 37.424 87.7576 37.0074C87.4549 36.5908 86.8854 36.4721 86.4416 36.7332C83.2807 38.5922 81.5695 38.3073 80.6795 37.9272C80.48 37.8419 80.2909 37.77 80.1075 37.7002C79.5357 37.4828 79.0197 37.2865 78.4184 36.775C77.6519 36.123 76.732 34.9057 75.8747 32.3651C75.0296 29.8608 74.8912 27.1165 75.0667 24.7433C75.2429 22.3607 75.728 20.4448 76.056 19.6253C76.3359 18.9257 76.6846 18.7701 76.832 18.7368C76.9419 18.7119 77.0012 18.7285 77.024 18.7379C77.2098 19.0214 77.6198 19.6062 78.1163 20.3144C78.2734 20.5385 78.4394 20.7752 78.6095 21.0184C79.3673 22.1018 80.2356 23.3538 80.9021 24.374C81.6431 25.5082 83.0509 27.0284 84.3058 28.2223C84.9402 28.8258 85.5629 29.3721 86.0751 29.7653C86.3279 29.9594 86.5777 30.1347 86.8024 30.2612C86.913 30.3235 87.0463 30.3905 87.1899 30.4386C87.299 30.4751 87.5787 30.56 87.9033 30.4749C88.4323 30.3363 88.7212 29.9349 88.8638 29.6728C89.0153 29.3945 89.1072 29.083 89.1685 28.8196C89.2625 28.4157 89.3209 27.945 89.3615 27.6177C89.3728 27.5267 89.3827 27.4468 89.3916 27.3824C89.4429 27.0127 89.3752 26.597 89.2976 26.2687C89.2128 25.9103 89.0838 25.5255 88.9292 25.1717C88.7792 24.8283 88.5811 24.459 88.3379 24.1674C88.2172 24.0227 88.0492 23.853 87.8294 23.7268C87.6008 23.5955 87.2592 23.4822 86.8652 23.5769C86.2812 23.7172 85.789 24.1125 85.3768 24.5313C85.3412 24.5675 85.3112 24.598 85.2868 24.621L85.2725 24.6347C85.2399 24.6664 85.2242 24.6816 85.1747 24.6643C85.0045 24.6048 84.8801 24.4834 84.7626 24.1811C84.6815 23.9723 84.632 23.7527 84.5829 23.5346L84.5825 23.5328C84.5663 23.461 84.5464 23.3895 84.5265 23.3179C84.4755 23.1341 84.4243 22.9496 84.4346 22.7588C84.4427 22.609 84.4724 22.4238 84.5295 22.2226C84.6469 21.8092 84.8532 21.4176 85.1085 21.157C85.3651 20.8949 85.4577 20.5133 85.3496 20.1627C85.181 19.6157 85.169 19.2332 85.227 18.9677C85.2763 18.7419 85.3883 18.5409 85.6138 18.3479C85.6425 18.3353 85.719 18.3017 85.8586 18.2565C86.0515 18.1939 86.3045 18.1284 86.5876 18.0792ZM85.5695 26.6634C85.6476 26.6503 85.7256 26.6318 85.8034 26.6077C86.2042 26.4833 86.4844 26.2401 86.6568 26.0781C86.741 25.9989 86.8106 25.931 86.8707 25.8726C86.9161 25.8282 86.9565 25.789 86.9931 25.7545C87.0266 25.8192 87.0614 25.892 87.0966 25.9726C87.205 26.2206 87.2951 26.4917 87.3512 26.729C87.414 26.9945 87.3988 27.1894 87.3657 27.4547C87.336 27.6924 87.3065 27.9289 87.2641 28.1566C86.8317 27.8222 86.2764 27.3366 85.6843 26.7733C85.6592 26.7493 85.634 26.7253 85.6088 26.7011C85.5957 26.6886 85.5826 26.676 85.5695 26.6634ZM100.49 26.6634C100.412 26.6503 100.334 26.6318 100.256 26.6077C99.8554 26.4833 99.5751 26.2401 99.4028 26.0781C99.3184 25.9987 99.2487 25.9308 99.1886 25.8722C99.1431 25.8279 99.1031 25.789 99.0665 25.7545C99.033 25.8192 98.9982 25.892 98.963 25.9726C98.8546 26.2206 98.7645 26.4917 98.7083 26.729C98.6456 26.9945 98.6608 27.1894 98.6939 27.4547C98.7236 27.6924 98.7531 27.9289 98.7955 28.1566C99.2278 27.8222 99.7832 27.3366 100.375 26.7733C100.414 26.7369 100.452 26.7003 100.49 26.6634Z" fill="#21A19A"/>
<path fill-rule="evenodd" clip-rule="evenodd" d="M32 34C32 31.2386 34.2386 29 37 29H63C63.5523 29 64 28.5523 64 28C64 27.4477 63.5523 27 63 27H37C33.134 27 30 30.134 30 34V71.1442C30 73.2521 30.9499 75.2477 32.5859 76.577L60.7161 99.4328C61.9639 100.447 63.5225 101 65.1302 101H89C92.866 101 96 97.866 96 94V64C96 63.4477 95.5523 63 95 63C94.4477 63 94 63.4477 94 64V94C94 96.7614 91.7614 99 89 99H66C64.8954 99 64 98.1046 64 97V80C64 76.134 60.866 73 57 73H34C32.8954 73 32 72.1046 32 71V34ZM33.847 75.0247L33.8115 74.9956C33.874 74.9985 33.9368 75 34 75H57C59.7614 75 62 77.2386 62 80V97C62 97.3439 62.0434 97.6776 62.125 97.9961C62.0751 97.9586 62.0259 97.9201 61.9773 97.8806L33.847 75.0247Z" fill="#21A19A"/>
<path d="M44 39C43.4477 39 43 39.4477 43 40C43 40.5523 43.4477 41 44 41H62C62.5523 41 63 40.5523 63 40C63 39.4477 62.5523 39 62 39H44Z" fill="#21A19A"/>
<path d="M44 51C43.4477 51 43 51.4477 43 52C43 52.5523 43.4477 53 44 53H62C62.5523 53 63 52.5523 63 52C63 51.4477 62.5523 51 62 51H44Z" fill="#21A19A"/>
<path d="M43 64C43 63.4477 43.4477 63 44 63H82C82.5523 63 83 63.4477 83 64C83 64.5523 82.5523 65 82 65H44C43.4477 65 43 64.5523 43 64Z" fill="#21A19A"/>
<path d="M70 75C69.4477 75 69 75.4477 69 76C69 76.5523 69.4477 77 70 77H82C82.5523 77 83 76.5523 83 76C83 75.4477 82.5523 75 82 75H70Z" fill="#21A19A"/>
<path d="M69 88C69 87.4477 69.4477 87 70 87H82C82.5523 87 83 87.4477 83 88C83 88.5523 82.5523 89 82 89H70C69.4477 89 69 88.5523 69 88Z" fill="#21A19A"/>
</svg>
