<svg width="128" height="128" viewBox="0 0 128 128" fill="none" xmlns="http://www.w3.org/2000/svg">
<path fill-rule="evenodd" clip-rule="evenodd" d="M58.7963 31C49.0556 31 40.854 38.7818 39.2637 49.1527C39.894 49.0522 40.5404 49 41.199 49C44.4023 49 46.999 51.5967 46.999 54.8V71.2C46.999 74.4033 44.4023 77 41.199 77C34.4611 77 28.999 71.5379 28.999 64.8V61.2C28.999 55.8728 32.4134 51.3431 37.1732 49.6799C38.5704 38.0814 47.6526 29 58.7963 29H69.2015C80.3452 29 89.4273 38.0814 90.8246 49.6798C95.5845 51.3429 98.999 55.8727 98.999 61.2V64.8C98.999 70.0672 95.6611 74.5548 90.9852 76.2629C90.8057 81.94 88.8819 86.5782 85.2601 89.8303C81.5512 93.1606 76.1902 94.9216 69.456 94.9974C69.2615 95.4581 69.0141 95.8821 68.7127 96.2598C67.8281 97.3684 66.537 98 64.999 98H62.999C61.4611 98 60.17 97.3684 59.2854 96.2598C58.4195 95.1747 57.999 93.7073 57.999 92.0889C57.999 90.2626 59.4001 89.0423 60.9318 89.0935L66.8677 89.006C68.4683 88.9032 69.999 90.1361 69.999 92.0889C69.999 92.3945 69.984 92.6948 69.9539 92.9881C76.111 92.8335 80.7724 91.172 83.9239 88.3421C86.9365 85.637 88.6813 81.7639 88.9596 76.8093C88.2583 76.9346 87.5363 77 86.799 77C83.5958 77 80.999 74.4033 80.999 71.2V54.8C80.999 51.5967 83.5958 49 86.799 49C87.4575 49 88.1039 49.0522 88.7341 49.1526C87.1438 38.7818 78.9422 31 69.2015 31H58.7963ZM41.199 51C35.5657 51 30.999 55.5667 30.999 61.2V64.8C30.999 70.4333 35.5657 75 41.199 75C43.2977 75 44.999 73.2987 44.999 71.2V54.8C44.999 52.7013 43.2977 51 41.199 51ZM67.999 92.0889C67.999 91.3091 67.4598 90.9666 66.9854 91.0026L66.955 91.0049L60.9045 91.0942L60.8744 91.0928C60.4794 91.0748 59.999 91.3789 59.999 92.0889C59.999 93.3816 60.3359 94.3698 60.8487 95.0124C61.3428 95.6316 62.0517 96 62.999 96H64.999C65.9464 96 66.6553 95.6316 67.1494 95.0124C67.6621 94.3698 67.999 93.3816 67.999 92.0889ZM96.999 61.2C96.999 55.5667 92.4323 51 86.799 51C84.7003 51 82.999 52.7013 82.999 54.8V71.2C82.999 73.2987 84.7003 75 86.799 75C92.4323 75 96.999 70.4333 96.999 64.8V61.2Z" fill="#21A19A"/>
</svg>
