<svg width="64" height="64" viewBox="0 0 64 64" fill="none" xmlns="http://www.w3.org/2000/svg">
<path d="M13.0041 31.5814L15.2929 29.2929C15.6835 28.9024 16.3166 28.9024 16.7072 29.2929C17.0977 29.6835 17.0976 30.3167 16.7071 30.7072L12.7066 34.7072C12.519 34.8947 12.2647 35 11.9994 35C11.7342 35 11.4799 34.8946 11.2924 34.7071L7.29285 30.7071C6.90235 30.3165 6.90239 29.6834 7.29294 29.2929C7.68348 28.9024 8.31665 28.9024 8.70715 29.2929L11.0036 31.5897C11.2232 19.0954 21.4535 9 33.9996 9C46.6835 9 57 19.3172 57 32C57 44.6828 46.6835 55 33.9996 55C33.4473 55 32.9996 54.5523 32.9996 54C32.9996 53.4477 33.4473 53 33.9996 53C45.5789 53 55 43.5782 55 32C55 20.4218 45.5789 11 33.9996 11C22.561 11 13.2279 20.1955 13.0041 31.5814Z" fill="#21A19A"/>
<path fill-rule="evenodd" clip-rule="evenodd" d="M28.9995 33V36H28C27.4477 36 27 36.4477 27 37C27 37.5523 27.4477 38 28 38H28.9995V41C28.9995 41.5523 29.4472 42 29.9995 42C30.5518 42 30.9995 41.5523 30.9995 41V38H34C34.5523 38 35 37.5523 35 37C35 36.4477 34.5523 36 34 36H30.9995V33H36.3163C38.3841 33 39.8509 32.2965 40.7851 31.2109C41.693 30.1559 42 28.8541 42 27.8013V27.5C42 26.5147 41.8029 25.1425 40.9469 23.9943C40.0507 22.7923 38.5567 22 36.3163 22H30C29.4789 22 29.051 22.3985 29.0042 22.9074C29.0011 22.9362 28.9995 22.967 28.9995 23V31H28C27.4477 31 27 31.4477 27 32C27 32.5523 27.4477 33 28 33H28.9995ZM30.9995 24V31H36.3163C37.8991 31 38.7742 30.4815 39.2692 29.9063C39.7904 29.3006 40 28.5032 40 27.8013V27.5C40 26.7307 39.8379 25.8529 39.3435 25.1898C38.8891 24.5804 38.0412 24 36.3163 24H30.9995Z" fill="#21A19A"/>
</svg>
