<svg width="64" height="64" viewBox="0 0 64 64" fill="none" xmlns="http://www.w3.org/2000/svg">
<path d="M13 45C13 45.5523 13.4477 46 14 46H36C36.5523 46 37 46.4477 37 47C37 47.5523 36.5523 48 36 48H14C12.3431 48 11 46.6569 11 45V21C11 19.3431 12.3431 18 14 18H50C51.6569 18 53 19.3431 53 21V35C53 35.5523 52.5523 36 52 36C51.4477 36 51 35.5523 51 35V21C51 20.4477 50.5523 20 50 20H14C13.4477 20 13 20.4477 13 21V45Z" fill="#21A19A"/>
<path d="M27 33C27 30.2656 29.2898 28 32.1757 28C34.4457 28 36.3567 29.408 37.0603 31.3419C37.2491 31.8609 37.8229 32.1286 38.3419 31.9397C38.8609 31.7509 39.1286 31.1771 38.9397 30.6581C37.9477 27.9312 35.2836 26 32.1757 26C28.2401 26 25 29.107 25 33C25 36.893 28.2401 40 32.1757 40C32.728 40 33.1757 39.5523 33.1757 39C33.1757 38.4477 32.728 38 32.1757 38C29.2898 38 27 35.7344 27 33Z" fill="#21A19A"/>
<path d="M17 11C16.4477 11 16 11.4477 16 12C16 12.5523 16.4477 13 17 13L47 13C47.5523 13 48 12.5523 48 12C48 11.4477 47.5523 11 47 11L17 11Z" fill="#21A19A"/>
<path fill-rule="evenodd" clip-rule="evenodd" d="M42 36C39.7909 36 38 37.7909 38 40C38 42.2091 39.7909 44 42 44C44.2091 44 46 42.2091 46 40C46 37.7909 44.2091 36 42 36ZM40 40C40 38.8954 40.8954 38 42 38C43.1046 38 44 38.8954 44 40C44 41.1046 43.1046 42 42 42C40.8954 42 40 41.1046 40 40Z" fill="#21A19A"/>
<path fill-rule="evenodd" clip-rule="evenodd" d="M54 49C51.7909 49 50 50.7909 50 53C50 55.2091 51.7909 57 54 57C56.2091 57 58 55.2091 58 53C58 50.7909 56.2091 49 54 49ZM52 53C52 51.8954 52.8954 51 54 51C55.1046 51 56 51.8954 56 53C56 54.1046 55.1046 55 54 55C52.8954 55 52 54.1046 52 53Z" fill="#21A19A"/>
<path d="M56.7071 38.2929C57.0976 38.6834 57.0976 39.3166 56.7071 39.7071L41.7071 54.7071C41.3166 55.0976 40.6834 55.0976 40.2929 54.7071C39.9024 54.3166 39.9024 53.6834 40.2929 53.2929L55.2929 38.2929C55.6834 37.9024 56.3166 37.9024 56.7071 38.2929Z" fill="#21A19A"/>
</svg>
