<svg width="64" height="64" viewBox="0 0 64 64" fill="none" xmlns="http://www.w3.org/2000/svg">
<path fill-rule="evenodd" clip-rule="evenodd" d="M27.4105 41.4598C29.398 41.4598 30.968 40.9273 32.0265 39.425C33.0713 37.9421 33.5905 35.5488 33.5905 31.8998C33.5905 28.2013 33.098 25.8068 32.0657 24.3359C31.0185 22.8439 29.4457 22.3398 27.4105 22.3398C25.4827 22.3398 23.9159 22.908 22.8435 24.423C21.7831 25.921 21.2305 28.3129 21.2305 31.8998C21.2305 35.4992 21.7764 37.8914 22.8337 39.3863C23.9033 40.8988 25.4708 41.4598 27.4105 41.4598ZM27.4105 39.4998C26.7597 39.4998 26.1898 39.4034 25.6992 39.1738C25.2112 38.9455 24.7905 38.5804 24.444 38.0243C23.744 36.9013 23.3465 34.9999 23.3465 31.8998C23.3465 28.7175 23.7061 26.8182 24.3859 25.7161C24.7215 25.1722 25.1352 24.8225 25.629 24.606C26.1268 24.3876 26.717 24.2998 27.4105 24.2998C28.1252 24.2998 28.7256 24.3832 29.2271 24.596C29.7238 24.8067 30.134 25.1487 30.464 25.6864C31.1339 26.7781 31.4745 28.6764 31.4745 31.8998C31.4745 35.0959 31.1212 36.9949 30.4447 38.0935C30.111 38.6353 29.6984 38.9825 29.2037 39.1971C28.7046 39.4135 28.111 39.4998 27.4105 39.4998Z" fill="#21A19A"/>
<path fill-rule="evenodd" clip-rule="evenodd" d="M40.2306 29C40.1916 29 40.1531 29.0022 40.1153 29.0066C40.0775 29.0022 40.039 29 40 29C39.4477 29 39 29.4477 39 30V34H38C37.4477 34 37 34.4477 37 35C37 35.5523 37.4477 36 38 36H39V37H38C37.4477 37 37 37.4477 37 38C37 38.5523 37.4477 39 38 39H39V40C39 40.5523 39.4477 41 40 41C40.5523 41 41 40.5523 41 40V39H41.9883C42.5406 39 42.9883 38.5523 42.9883 38C42.9883 37.4477 42.5406 37 41.9883 37H41V36H42.8383C43.9936 36 44.8412 35.5127 45.3645 34.7808C45.8517 34.0994 46 33.2913 46 32.6674V32.5C46 31.9309 45.9085 31.0891 45.4556 30.3579C44.9565 29.5521 44.0898 29 42.8383 29H40.2306ZM41 34V31H42.8383C43.417 31 43.6311 31.2105 43.7553 31.411C43.9257 31.6861 44 32.0943 44 32.5V32.6674C44 33.0182 43.9099 33.3765 43.7375 33.6176C43.6011 33.8084 43.3679 34 42.8383 34H41Z" fill="#21A19A"/>
<path fill-rule="evenodd" clip-rule="evenodd" d="M9 31.9996C9 19.3165 19.3172 9 32 9C44.6828 9 55 19.3165 55 31.9996C55 44.6835 44.6828 55 32 55C19.3172 55 9 44.6835 9 31.9996ZM32 11C20.4217 11 11 20.4211 11 31.9996C11 43.5789 20.4218 53 32 53C43.5782 53 53 43.5789 53 31.9996C53 20.4211 43.5783 11 32 11Z" fill="#21A19A"/>
</svg>
