<svg width="128" height="128" viewBox="0 0 128 128" fill="none" xmlns="http://www.w3.org/2000/svg">
<path d="M105.986 46.1903C105.452 46.3333 105.135 46.8816 105.278 47.4151C105.421 47.9485 105.97 48.2651 106.503 48.1222L111.038 46.9069C111.572 46.764 111.888 46.2157 111.746 45.6822C111.603 45.1487 111.054 44.8322 110.521 44.9751L105.986 46.1903Z" fill="#21A19A"/>
<path d="M109.327 58.663C108.794 58.8059 108.477 59.3542 108.62 59.8877C108.763 60.4212 109.312 60.7378 109.845 60.5948L114.38 59.3796C114.914 59.2367 115.23 58.6883 115.087 58.1549C114.944 57.6214 114.396 57.3048 113.863 57.4478L109.327 58.663Z" fill="#21A19A"/>
<path fill-rule="evenodd" clip-rule="evenodd" d="M5.81994 56.0168C3.15261 56.7316 1.5697 59.4732 2.2844 62.1406L12.0622 98.6317C12.7769 101.299 15.5186 102.882 18.1859 102.167L96.2922 81.2387C97.8926 80.8099 98.8424 79.1649 98.4136 77.5645L97.0635 72.5259L122.705 65.6553C124.199 65.2551 125.085 63.7197 124.685 62.226L118.021 37.3581C117.621 35.8644 116.086 34.978 114.592 35.3782L88.9508 42.2488L87.6005 37.2096C87.1717 35.6092 85.5267 34.6595 83.9263 35.0883L5.81994 56.0168ZM89.4684 44.1807L96.5458 70.594L122.187 63.7235C122.614 63.6091 122.867 63.1704 122.753 62.7437L116.09 37.8758C115.975 37.449 115.537 37.1957 115.11 37.3101L89.4684 44.1807ZM4.21626 61.6229C3.78743 60.0225 4.73718 58.3775 6.33758 57.9487L84.4439 37.0202C84.9774 36.8772 85.5257 37.1938 85.6687 37.7273L96.4817 78.0821C96.6246 78.6156 96.3081 79.1639 95.7746 79.3069L17.6683 100.235C16.0679 100.664 14.4229 99.7145 13.994 98.1141L4.21626 61.6229Z" fill="#21A19A"/>
<path fill-rule="evenodd" clip-rule="evenodd" d="M34.7863 64.5418C35.3494 61.8819 36.9833 59.6432 39.9707 59.0314C41.5101 58.7162 42.8708 58.9517 43.9654 59.7068C45.0385 60.4471 45.7374 61.6048 46.1441 62.9193C46.9513 65.5287 46.7063 69.0499 45.6065 72.4332C44.9573 74.4303 43.9943 76.43 42.7218 78.2175C44.6711 79.1994 47.0276 79.3239 49.7292 77.8674C50.3386 77.5389 50.974 76.789 51.602 75.7618C52.1207 74.913 52.5658 73.9946 52.958 73.1852C53.0286 73.0395 53.0976 72.8972 53.1649 72.7596C53.3752 72.3296 53.5865 71.9103 53.7826 71.6045C53.8764 71.4584 54.0076 71.2719 54.1761 71.1208C54.3075 71.0029 54.7482 70.6539 55.3385 70.8506C55.8589 71.0239 56.0446 71.4893 56.0992 71.6384C56.1775 71.8519 56.2211 72.0949 56.2498 72.3298C56.3089 72.8114 56.3318 73.4939 56.3279 74.3934C56.3235 75.3783 56.5273 75.8797 56.7 76.089C56.8053 76.2166 56.9585 76.3209 57.362 76.2303C57.8239 76.1266 58.5006 75.7721 59.3542 75.0172C60.1933 74.2752 61.1415 73.2013 62.1498 71.7668C62.5951 71.1333 63.0183 70.642 63.4571 70.3356C63.9469 69.9936 64.5127 69.8493 65.1013 70.0416C65.5766 70.1969 65.9383 70.5424 66.1606 70.7598C66.2393 70.8368 66.3108 70.9087 66.3791 70.9772C66.55 71.149 66.7 71.2998 66.8885 71.4557C67.3371 71.8267 67.9092 72.1396 68.9214 72.033C70.0106 71.9182 71.6762 71.309 74.2268 69.5554C74.6819 69.2425 75.3045 69.3578 75.6174 69.8129C75.9303 70.268 75.815 70.8906 75.3599 71.2035C72.6955 73.0353 70.7028 73.8563 69.131 74.022C67.4821 74.1957 66.3905 73.6393 65.6138 72.9968C65.3434 72.7731 65.0935 72.5218 64.9074 72.3346C64.8533 72.2801 64.8046 72.2311 64.7623 72.1897C64.6716 72.1011 64.6062 72.0432 64.5611 72.0058C64.4096 72.1247 64.1594 72.3857 63.786 72.9169C62.7145 74.4413 61.6655 75.6432 60.6791 76.5154C59.7073 77.3748 58.7304 77.9729 57.8 78.1818C56.8111 78.4037 55.8329 78.1805 55.1574 77.3619C54.6409 76.736 54.3996 75.8744 54.3418 74.9078C54.0377 75.5178 53.691 76.1789 53.3084 76.8048C52.6493 77.8832 51.7832 79.0323 50.6783 79.6279C47.2654 81.4678 44.0909 81.2725 41.4779 79.8215C41.4696 79.8169 41.4614 79.8123 41.4532 79.8077C40.8768 80.452 40.2525 81.0529 39.5807 81.5975C36.6491 83.974 32.8334 85.2532 28.2648 84.3684C27.7226 84.2634 27.3681 83.7388 27.4731 83.1966C27.5781 82.6543 28.1028 82.2999 28.645 82.4049C32.5866 83.1682 35.8105 82.0792 38.3213 80.0439C38.8435 79.6205 39.3358 79.1553 39.7971 78.656C38.0642 77.1949 36.7217 75.1864 35.8332 73.0559C34.6757 70.2805 34.2314 67.1627 34.7863 64.5418ZM41.0594 77.1038C42.2127 75.4953 43.1017 73.669 43.7044 71.8149C44.7261 68.6721 44.8787 65.5962 44.2334 63.5104C43.9138 62.4773 43.4239 61.7629 42.8297 61.3531C42.2571 60.9581 41.4723 60.7655 40.3719 60.9908C38.3593 61.4029 37.1868 62.8594 36.7429 64.9561C36.2908 67.0919 36.6389 69.7921 37.6791 72.2861C38.4734 74.1906 39.6378 75.8958 41.0594 77.1038Z" fill="#21A19A"/>
</svg>
