<svg width="32" height="32" viewBox="0 0 32 32" fill="none" xmlns="http://www.w3.org/2000/svg">
<path d="M8 8C8 7.44772 8.44772 7 9 7H25C25.5523 7 26 7.44772 26 8V10C26 10.5523 25.5523 11 25 11C24.4477 11 24 10.5523 24 10V9H9C8.44772 9 8 8.55228 8 8Z" fill="#B2B8BF"/>
<path d="M4 13C4 11.8954 4.89543 11 6 11H16C16.5523 11 17 11.4477 17 12C17 12.5523 16.5523 13 16 13L6 13V20.9999L12.1428 20.9997C12.6951 20.9997 13.1428 21.4473 13.1429 21.9996C13.1429 22.5519 12.6952 22.9997 12.1429 22.9997L6.00012 22.9999C4.89551 23 4 22.1046 4 20.9999V13Z" fill="#B2B8BF"/>
<path fill-rule="evenodd" clip-rule="evenodd" d="M20.3131 27.8541L20.3079 27.8522C19.7789 27.6646 19.3169 27.3057 19.006 26.8192C18.7065 26.3505 18.5675 25.794 18.6166 25.2343L18.7476 23.2H17.564C17.1119 23.2001 16.6645 23.0815 16.269 22.8517C15.8722 22.6212 15.5393 22.2854 15.3131 21.8736C15.0866 21.4612 14.978 20.9918 15.0038 20.517C15.0297 20.0424 15.1884 19.5887 15.4565 19.2046L15.4775 19.1744L20.0917 13.0547C20.4184 12.6056 20.8785 12.2814 21.3952 12.1189C21.9268 11.9516 22.4993 11.961 23.0255 12.1462L23.0384 12.1507C23.5453 12.333 23.9902 12.673 24.2985 13.1325C24.6076 13.5931 24.7598 14.1457 24.7234 14.7073L24.7184 14.7856L24.4283 16.8H25.4352C25.8873 16.7999 26.3356 16.9185 26.7311 17.1483C27.1279 17.3788 27.4609 17.7146 27.687 18.1264C27.9136 18.5388 28.0221 19.0082 27.9963 19.483C27.9704 19.9576 27.8117 20.4113 27.5436 20.7954L23.2754 26.9045L23.2747 26.9055C23.0335 27.2508 22.7131 27.5271 22.3461 27.7156C21.9792 27.904 21.5741 28.0005 21.1656 28M21.6352 25.76L25.9035 19.6509C25.9607 19.5688 25.9939 19.4731 25.9992 19.3742C26.0046 19.2752 25.9821 19.1767 25.934 19.0892C25.886 19.0018 25.8143 18.9286 25.7265 18.8777C25.6388 18.8267 25.5384 18.7999 25.4361 18.8H22.6967C22.3922 18.8 22.1584 18.5301 22.2018 18.2287L22.7276 14.5782C22.7352 14.4613 22.7037 14.3451 22.6377 14.2469C22.5718 14.1486 22.475 14.0736 22.3616 14.0328C22.2436 13.9913 22.1148 13.9891 21.9954 14.0267C21.8761 14.0642 21.7731 14.1393 21.7028 14.2401L17.0967 20.3491C17.0394 20.4312 17.0063 20.5269 17.0009 20.6258C16.9955 20.7248 17.018 20.8233 17.0661 20.9108C17.1141 20.9982 17.1858 21.0714 17.2736 21.1223C17.3613 21.1733 17.4617 21.2001 17.564 21.2H20.3473C20.6361 21.2 20.8648 21.4439 20.8463 21.7321L20.6104 25.3945C20.5964 25.5159 20.6249 25.6383 20.6913 25.7422C20.7576 25.846 20.858 25.9253 20.9764 25.9673C21.0378 25.9889 21.1026 25.9999 21.1679 26C21.2601 26.0001 21.351 25.9783 21.4325 25.9365C21.514 25.8946 21.5836 25.834 21.6352 25.76ZM20.3131 27.8541C20.5874 27.9505 20.8762 27.9996 21.1656 28L20.3131 27.8541Z" fill="#B2B8BF"/>
</svg>
