<svg width="20" height="20" viewBox="0 0 20 20" fill="none" xmlns="http://www.w3.org/2000/svg">
<path fill-rule="evenodd" clip-rule="evenodd" d="M10 0C10.5523 0 11 0.447715 11 1C11 1.55228 10.5523 2 10 2C9.77315 2 9.48195 2.09945 9.13281 2.43164C8.77842 2.76891 8.41294 3.30403 8.08496 4.04199C7.5235 5.30527 7.12797 7.03344 7.02637 9H8C8.55229 9 9 9.44771 9 10C9 10.5523 8.55229 11 8 11H7.02637C7.12797 12.9666 7.5235 14.6947 8.08496 15.958C8.41294 16.696 8.77842 17.2311 9.13281 17.5684C9.48195 17.9005 9.77315 18 10 18C10.3531 18 10.8949 17.7362 11.4824 16.7852C12.0486 15.8687 12.5231 14.5066 12.7842 12.8447C12.8699 12.2992 13.3822 11.926 13.9277 12.0117C14.4733 12.0975 14.8464 12.6097 14.7607 13.1553C14.5228 14.6698 14.1114 16.0505 13.5547 17.167C15.4044 16.2479 16.8491 14.6354 17.5449 12.667C17.729 12.1463 18.3006 11.8736 18.8213 12.0576C19.3418 12.2417 19.6145 12.8124 19.4307 13.333C18.0584 17.2156 14.3556 20 10 20C4.47715 20 0 15.5228 0 10C0 4.47715 4.47715 0 10 0ZM2.06445 11C2.40259 13.7108 4.09518 15.9991 6.44531 17.167C6.38069 17.0374 6.31775 16.9054 6.25781 16.7705C5.56803 15.2185 5.1266 13.2041 5.02344 11H2.06445ZM6.44531 2.83203C4.09498 3.99984 2.40261 6.28909 2.06445 9H5.02344C5.1266 6.79589 5.56803 4.78151 6.25781 3.22949C6.31788 3.09436 6.38055 2.96185 6.44531 2.83203Z" fill="#107F8C"/>
<path fill-rule="evenodd" clip-rule="evenodd" d="M14 3C15.3059 3 16.4141 3.83532 16.8262 5H18C19.1046 5 20 5.89543 20 7V8.5C20 9.32843 19.3284 10 18.5 10H17.9131C17.707 10.5823 17.1529 11 16.5 11C15.8467 11 15.2927 10.5818 15.0869 9.99902H14.4131C14.2073 10.5818 13.6533 11 13 11C12.3467 11 11.7927 10.5818 11.5869 9.99902H11.5C10.6716 9.99902 10 9.32745 10 8.49902V5C10 3.89543 10.8954 3 12 3H14ZM17 8H18V7H17V8ZM12 7.99902H15V6C15 5.44772 14.5523 5 14 5H12V7.99902Z" fill="#107F8C"/>
</svg>
