<svg width="32" height="32" viewBox="0 0 32 32" fill="none" xmlns="http://www.w3.org/2000/svg">
<path d="M19.925 4.34368C19.4937 3.99867 18.8644 4.06859 18.5194 4.49985L16.2194 7.37485C15.9272 7.74007 15.9272 8.25903 16.2194 8.62424L18.5194 11.4992C18.8644 11.9305 19.4937 12.0004 19.925 11.6554C20.3563 11.3104 20.4262 10.6811 20.0812 10.2499L19.0979 9.02081L21.9908 9.01198C23.6513 9.00692 25 10.3515 25 12.012V13.9997C25 14.552 25.4477 14.9997 26 14.9997C26.5523 14.9997 27 14.552 27 13.9997V12.012C27 9.24458 24.7521 7.00355 21.9847 7.01199L19.0638 7.02091L20.0812 5.74924C20.4262 5.31798 20.3563 4.68869 19.925 4.34368Z" fill="#21A19A"/>
<path d="M11.0755 18.3437C11.5068 17.9987 12.1361 18.0686 12.4811 18.4999L14.7811 21.3749C15.0732 21.7401 15.0732 22.259 14.7811 22.6242L12.4811 25.4992C12.1361 25.9305 11.5068 26.0004 11.0755 25.6554C10.6442 25.3104 10.5743 24.6811 10.9193 24.2499L11.9194 22.9997H9C6.23857 22.9997 4 20.7612 4 17.9997V12.0248C4 9.26334 6.23858 7.02477 9 7.02477H11.4749C12.0272 7.02477 12.4749 7.47248 12.4749 8.02477C12.4749 8.57705 12.0272 9.02477 11.4749 9.02477H9C7.34315 9.02477 6 10.3679 6 12.0248V17.9997C6 19.6566 7.34314 20.9997 9 20.9997H11.9197L10.9193 19.7492C10.5743 19.318 10.6442 18.6887 11.0755 18.3437Z" fill="#21A19A"/>
<path fill-rule="evenodd" clip-rule="evenodd" d="M22.5 19C21.1193 19 20 20.1193 20 21.5C20 22.8807 21.1193 24 22.5 24C23.8807 24 25 22.8807 25 21.5C25 20.1193 23.8807 19 22.5 19ZM18 21.5C18 19.0147 20.0147 17 22.5 17C24.9853 17 27 19.0147 27 21.5C27 23.9853 24.9853 26 22.5 26C20.0147 26 18 23.9853 18 21.5Z" fill="#21A19A"/>
</svg>
