<svg width="32" height="32" viewBox="0 0 32 32" fill="none" xmlns="http://www.w3.org/2000/svg">
<path fill-rule="evenodd" clip-rule="evenodd" d="M13.7335 4.74505C14.4703 4.14227 15.5297 4.14227 16.2665 4.74505L26.6332 13.227C27.0607 13.5767 27.1237 14.2067 26.774 14.6341C26.4242 15.0616 25.7942 15.1246 25.3668 14.7749L15 6.29297L4.63324 14.7749C4.20579 15.1246 3.57577 15.0616 3.22604 14.6341C2.87631 14.2067 2.93932 13.5767 3.36676 13.227L13.7335 4.74505ZM17 14C18.1046 14 19 14.8954 19 16V20C19 21.1046 18.1046 22 17 22H13C11.8954 22 11 21.1046 11 20V16C11 14.8954 11.8954 14 13 14H17ZM7 18C7 17.4477 6.55228 17 6 17C5.44772 17 5 17.4477 5 18V24C5 25.6569 6.34315 27 8 27H17C17.5523 27 18 26.5523 18 26C18 25.4477 17.5523 25 17 25H8C7.44772 25 7 24.5523 7 24V18ZM30 26.5C30 27.3284 29.3284 28 28.5 28C27.6716 28 27 27.3284 27 26.5C27 25.6716 27.6716 25 28.5 25C29.3284 25 30 25.6716 30 26.5ZM22.5 22C23.3284 22 24 21.3284 24 20.5C24 19.6716 23.3284 19 22.5 19C21.6716 19 21 19.6716 21 20.5C21 21.3284 21.6716 22 22.5 22ZM29.7071 20.7071C30.0976 20.3166 30.0976 19.6834 29.7071 19.2929C29.3166 18.9024 28.6834 18.9024 28.2929 19.2929L21.2929 26.2929C20.9024 26.6834 20.9024 27.3166 21.2929 27.7071C21.6834 28.0976 22.3166 28.0976 22.7071 27.7071L29.7071 20.7071ZM17 16H13V20H17V16Z" fill="#B2B8BF"/>
</svg>
