<svg width="32" height="32" viewBox="0 0 32 32" fill="none" xmlns="http://www.w3.org/2000/svg">
<path fill-rule="evenodd" clip-rule="evenodd" d="M7 8C7 6.34315 8.34315 5 10 5H22C23.6569 5 25 6.34315 25 8V9H26C27.6569 9 29 10.3431 29 12L29 13L29 14L29 20.0156C29 21.7135 28.4402 23.4951 26.9558 24.974C25.4749 26.4495 23.745 27 22 27H16.0008C15.4485 27 15 26.5523 15 26C15 25.4477 15.4478 25 16.0001 25H22C23.2863 25 24.4853 24.6122 25.5442 23.5572C26.6029 22.5024 27 21.2553 27 20.0156V16.8293C26.6872 16.9398 26.3506 17 26 17H25V20C25 21.6569 23.6569 23 22 23H10C8.34315 23 7 21.6569 7 20V17H6C4.34315 17 3 15.6569 3 14V12C3 10.3431 4.34315 9 6 9H7V8ZM26 15H25V11H26C26.5523 11 27 11.4477 27 12V14C27 14.5523 26.5523 15 26 15ZM23 8V10V16V20C23 20.5523 22.5523 21 22 21H10C9.44772 21 9 20.5523 9 20V16V10V8C9 7.44772 9.44772 7 10 7H22C22.5523 7 23 7.44772 23 8ZM7 11H6C5.44772 11 5 11.4477 5 12V14C5 14.5523 5.44772 15 6 15H7V11ZM14 12C14 12.5523 13.5523 13 13 13C12.4477 13 12 12.5523 12 12C12 11.4477 12.4477 11 13 11C13.5523 11 14 11.4477 14 12ZM19 13C19.5523 13 20 12.5523 20 12C20 11.4477 19.5523 11 19 11C18.4477 11 18 11.4477 18 12C18 12.5523 18.4477 13 19 13ZM12.2929 15.2929C12.6801 14.9057 13.3057 14.9024 13.697 15.2829L13.7054 15.2904C13.7189 15.3022 13.7463 15.3253 13.7875 15.3562C13.87 15.4182 14.0067 15.5103 14.1972 15.6056C14.5749 15.7944 15.1728 16 16 16C16.8272 16 17.4251 15.7944 17.8028 15.6056C17.9933 15.5103 18.13 15.4182 18.2125 15.3562C18.2537 15.3253 18.2811 15.3022 18.2946 15.2904L18.303 15.2829C18.6943 14.9024 19.3199 14.9057 19.7071 15.2929C20.0976 15.6834 20.0969 16.3173 19.7064 16.7078L19.7057 16.7085L19.7041 16.7101L19.7008 16.7134L19.6929 16.7211L19.6722 16.7408C19.6563 16.7557 19.6361 16.7741 19.6116 16.7955C19.5627 16.8384 19.4963 16.8934 19.4125 16.9563C19.245 17.0818 19.0067 17.2397 18.6972 17.3944C18.0749 17.7056 17.1728 18 16 18C14.8272 18 13.9251 17.7056 13.3028 17.3944C12.9933 17.2397 12.755 17.0818 12.5875 16.9563C12.5037 16.8934 12.4373 16.8384 12.3884 16.7955C12.3639 16.7741 12.3437 16.7557 12.3278 16.7408L12.3071 16.7211L12.2992 16.7134L12.2959 16.7101L12.2943 16.7085L12.2929 16.7071C11.9024 16.3166 11.9024 15.6834 12.2929 15.2929Z" fill="#B2B8BF"/>
</svg>
