<svg width="32" height="32" viewBox="0 0 32 32" fill="none" xmlns="http://www.w3.org/2000/svg">
<path d="M11.553 4.10557C11.8345 3.96481 12.1659 3.96481 12.4474 4.10557L20.4474 8.10557C20.9414 8.35256 21.1416 8.95324 20.8946 9.44721C20.6477 9.94119 20.047 10.1414 19.553 9.89443L12.0002 6.11803L4.44743 9.89443C3.95345 10.1414 3.35278 9.94119 3.10579 9.44721C2.8588 8.95324 3.05903 8.35256 3.55301 8.10557L11.553 4.10557Z" fill="#21A19A"/>
<path d="M2.99951 23C2.99951 22.4477 3.44723 22 3.99951 22H11.9995C12.5518 22 12.9995 22.4477 12.9995 23C12.9995 23.5523 12.5518 24 11.9995 24H3.99951C3.44723 24 2.99951 23.5523 2.99951 23Z" fill="#21A19A"/>
<path d="M13 12C13 11.4477 12.5523 11 12 11C11.4477 11 11 11.4477 11 12V19C11 19.5523 11.4477 20 12 20C12.5523 20 13 19.5523 13 19V12Z" fill="#21A19A"/>
<path d="M7 11C7.55228 11 8 11.4477 8 12V19C8 19.5523 7.55228 20 7 20C6.44772 20 6 19.5523 6 19V12C6 11.4477 6.44772 11 7 11Z" fill="#21A19A"/>
<path d="M17.999 12C17.999 11.4477 17.5513 11 16.999 11C16.4467 11 15.999 11.4477 15.999 12V14C15.999 14.5523 16.4467 15 16.999 15C17.5513 15 17.999 14.5523 17.999 14V12Z" fill="#21A19A"/>
<path fill-rule="evenodd" clip-rule="evenodd" d="M22.6286 15.0715C22.867 14.9762 23.133 14.9762 23.3714 15.0715L28.3714 17.0715C28.751 17.2234 29 17.5911 29 18C29 20.4302 28.9116 22.3467 28.1375 24.0619C27.3506 25.8052 25.921 27.2107 23.5652 28.8249C23.2246 29.0584 22.7754 29.0584 22.4348 28.8249C20.0858 27.2154 18.6569 25.8101 17.8684 24.0663C17.0923 22.3503 17 20.432 17 18C17 17.5911 17.249 17.2234 17.6286 17.0715L22.6286 15.0715ZM19.0034 18.6757C19.0258 20.7414 19.1686 22.0876 19.6907 23.2422C20.2054 24.3804 21.1414 25.4374 23 26.7781C24.8658 25.4326 25.8015 24.3757 26.3146 23.2391C26.8351 22.0859 26.9748 20.7425 26.9967 18.6757L23 17.077L19.0034 18.6757Z" fill="#21A19A"/>
</svg>
