<svg width="20" height="20" viewBox="0 0 20 20" fill="none" xmlns="http://www.w3.org/2000/svg">
<path d="M15 13.5C15 14.3284 14.3284 15 13.5 15C12.6716 15 12 14.3284 12 13.5C12 12.6716 12.6716 12 13.5 12C14.3284 12 15 12.6716 15 13.5Z" fill="#21A19A"/>
<path d="M20 18.5C20 19.3284 19.3284 20 18.5 20C17.6716 20 17 19.3284 17 18.5C17 17.6716 17.6716 17 18.5 17C19.3284 17 20 17.6716 20 18.5Z" fill="#21A19A"/>
<path d="M14.2071 19.2071L19.2071 14.2071C19.5976 13.8166 19.5976 13.1834 19.2071 12.7929C18.8166 12.4024 18.1834 12.4024 17.7929 12.7929L12.7929 17.7929C12.4024 18.1834 12.4024 18.8166 12.7929 19.2071C13.1834 19.5976 13.8166 19.5976 14.2071 19.2071Z" fill="#21A19A"/>
<path d="M2 10C2 5.58172 5.58172 2 10 2C14.4183 2 18 5.58172 18 10C18 10.5523 18.4477 11 19 11C19.5523 11 20 10.5523 20 10C20 4.47715 15.5228 0 10 0C4.47715 0 0 4.47715 0 10C0 15.5228 4.47715 20 10 20C10.5523 20 11 19.5523 11 19C11 18.4477 10.5523 18 10 18C5.58172 18 2 14.4183 2 10Z" fill="#21A19A"/>
<path d="M11 4.5C11 3.94772 10.5523 3.5 10 3.5C9.44772 3.5 9 3.94772 9 4.5V9H6.5C5.94772 9 5.5 9.44772 5.5 10C5.5 10.5523 5.94772 11 6.5 11H10C10.5523 11 11 10.5523 11 10V4.5Z" fill="#21A19A"/>
</svg>
