<svg width="20" height="20" viewBox="0 0 20 20" fill="none" xmlns="http://www.w3.org/2000/svg">
<path fill-rule="evenodd" clip-rule="evenodd" d="M3.5 3.5C4.32843 3.5 5 2.82843 5 2C5 1.17157 4.32843 0.5 3.5 0.5C2.67157 0.5 2 1.17157 2 2C2 2.82843 2.67157 3.5 3.5 3.5ZM8 1C7.44772 1 7 1.44772 7 2C7 2.55228 7.44772 3 8 3H17C17.5523 3 18 2.55228 18 2C18 1.44772 17.5523 1 17 1H8ZM8 6C7.44772 6 7 6.44772 7 7C7 7.55228 7.44772 8 8 8H17C17.5523 8 18 7.55228 18 7C18 6.44772 17.5523 6 17 6H8ZM7 12C7 11.4477 7.44772 11 8 11H17C17.5523 11 18 11.4477 18 12C18 12.5523 17.5523 13 17 13H8C7.44772 13 7 12.5523 7 12ZM8 16C7.44772 16 7 16.4477 7 17C7 17.5523 7.44772 18 8 18H17C17.5523 18 18 17.5523 18 17C18 16.4477 17.5523 16 17 16H8ZM5 12C5 12.8284 4.32843 13.5 3.5 13.5C2.67157 13.5 2 12.8284 2 12C2 11.1716 2.67157 10.5 3.5 10.5C4.32843 10.5 5 11.1716 5 12ZM3.5 18.5C4.32843 18.5 5 17.8284 5 17C5 16.1716 4.32843 15.5 3.5 15.5C2.67157 15.5 2 16.1716 2 17C2 17.8284 2.67157 18.5 3.5 18.5ZM5 7C5 7.82843 4.32843 8.5 3.5 8.5C2.67157 8.5 2 7.82843 2 7C2 6.17157 2.67157 5.5 3.5 5.5C4.32843 5.5 5 6.17157 5 7Z" fill="#B2B8BF"/>
</svg>
