<svg width="21" height="20" viewBox="0 0 21 20" fill="none" xmlns="http://www.w3.org/2000/svg">
<path d="M10.0252 3.5C10.5774 3.5 11.0252 3.94772 11.0252 4.5V5.45197C11.7668 5.59279 12.424 5.94559 12.8713 6.60383C13.1817 7.06063 13.0631 7.68258 12.6063 7.99299C12.1495 8.3034 11.5275 8.18474 11.2171 7.72794C11.1119 7.57313 10.8765 7.37793 10.195 7.37793C9.80126 7.37793 9.4219 7.50774 9.21142 7.68617C9.11753 7.76575 9.06981 7.8429 9.04662 7.91712C9.02412 7.98911 9.00543 8.11954 9.06598 8.33882C9.06942 8.3464 9.11866 8.4477 9.42821 8.61559C9.73303 8.78093 10.1129 8.91965 10.5853 9.09219L10.7612 9.15652C11.264 9.34094 11.8843 9.57493 12.3869 9.91296C12.9105 10.2651 13.447 10.8273 13.514 11.6916C13.5605 12.2925 13.461 12.8362 13.2177 13.305C12.9755 13.7718 12.6217 14.105 12.2504 14.3358C11.8525 14.5831 11.4197 14.7232 11.0252 14.7987V15.5C11.0252 16.0523 10.5774 16.5 10.0252 16.5C9.47287 16.5 9.02515 16.0523 9.02515 15.5V14.7684C8.30785 14.6194 7.66939 14.3016 7.2325 13.7152C6.90253 13.2723 6.99405 12.6458 7.43692 12.3158C7.87979 11.9859 8.50631 12.0774 8.83628 12.5203C8.92663 12.6415 9.23534 12.8779 10.195 12.8779C10.519 12.8779 10.9228 12.8061 11.1945 12.6372C11.3158 12.5618 11.3935 12.4783 11.4425 12.3838C11.4905 12.2914 11.5419 12.1294 11.52 11.8461L11.5198 11.8439C11.5184 11.8204 11.5131 11.7355 11.2707 11.5725C10.9988 11.3896 10.6033 11.2289 10.0725 11.0342C10.0164 11.0136 9.95845 10.9926 9.89902 10.971C9.45137 10.8082 8.9195 10.6149 8.47465 10.3736C7.97976 10.1052 7.35608 9.65606 7.13947 8.87598C6.98973 8.33674 6.98501 7.80906 7.13764 7.32061C7.28965 6.83415 7.5783 6.44865 7.91817 6.16055C8.2473 5.88154 8.6318 5.68568 9.0269 5.55967C9.02574 5.53993 9.02515 5.52003 9.02515 5.5V4.5C9.02515 3.94772 9.47287 3.5 10.0252 3.5Z" fill="#B2B8BF"/>
<path d="M4.23226 6.76775C3.84174 6.37722 3.20857 6.37722 2.81805 6.76775L0.292893 9.2929C-0.097631 9.68342 -0.097631 10.3166 0.292893 10.7071L2.81805 13.2323C3.20857 13.6228 3.84174 13.6228 4.23226 13.2323C4.62278 12.8417 4.62278 12.2086 4.23226 11.8181L3.41421 11H5.02515C5.57744 11 6.02515 10.5523 6.02515 10C6.02515 9.44772 5.57744 9 5.02515 9H3.41422L4.23226 8.18196C4.62278 7.79144 4.62278 7.15827 4.23226 6.76775Z" fill="#B2B8BF"/>
<path d="M17.2323 6.76775C16.8417 6.37722 16.2086 6.37722 15.818 6.76775C15.4275 7.15827 15.4275 7.79144 15.818 8.18196L16.6361 9H15.0252C14.4729 9 14.0252 9.44772 14.0252 10C14.0252 10.5523 14.4729 11 15.0252 11H16.6361L15.818 11.8181C15.4275 12.2086 15.4275 12.8417 15.818 13.2323C16.2086 13.6228 16.8417 13.6228 17.2323 13.2323L19.7574 10.7071C20.1479 10.3166 20.1479 9.68342 19.7574 9.2929L17.2323 6.76775Z" fill="#B2B8BF"/>
<path fill-rule="evenodd" clip-rule="evenodd" d="M0.0251465 3C0.0251465 1.34315 1.36829 0 3.02515 0H17.0251C18.682 0 20.0251 1.34315 20.0251 3V4.5C20.0251 5.05228 19.5774 5.5 19.0251 5.5C18.4729 5.5 18.0251 5.05228 18.0251 4.5V3C18.0251 2.44772 17.5774 2 17.0251 2H3.02515C2.47286 2 2.02515 2.44772 2.02515 3V4.5C2.02515 5.05228 1.57743 5.5 1.02515 5.5C0.472862 5.5 0.0251465 5.05228 0.0251465 4.5V3ZM1.02515 15C1.57743 15 2.02515 15.4477 2.02515 16V17C2.02515 17.5523 2.47286 18 3.02515 18H17.0251C17.5774 18 18.0251 17.5523 18.0251 17V16C18.0251 15.4477 18.4729 15 19.0251 15C19.5774 15 20.0251 15.4477 20.0251 16V17C20.0251 18.6569 18.682 20 17.0251 20H3.02515C1.36829 20 0.0251465 18.6569 0.0251465 17V16C0.0251465 15.4477 0.472862 15 1.02515 15Z" fill="#B2B8BF"/>
</svg>
