<svg width="32" height="32" viewBox="0 0 32 32" fill="none" xmlns="http://www.w3.org/2000/svg">
<path fill-rule="evenodd" clip-rule="evenodd" d="M16.3399 5.00001C16.3437 5 16.3476 5 16.3514 5C16.9987 5 17.6327 5.05241 18.2491 5.15289C18.7942 5.24174 19.3081 4.87188 19.397 4.32679C19.4858 3.7817 19.1159 3.26779 18.5708 3.17894C17.8484 3.06118 17.1069 3 16.3514 3C9.00503 3 3 8.79329 3 16C3 23.2067 9.00503 29 16.3514 29C22.1482 29 27.0999 25.3992 28.9397 20.3419C29.1286 19.8229 28.8609 19.2491 28.3419 19.0603C27.8229 18.8714 27.2491 19.1391 27.0603 19.6581C25.9556 22.6946 23.5085 25.1295 20.4005 26.2798C20.447 26.2066 20.4927 26.1325 20.5375 26.0577C21.5507 24.3668 22.2754 22.0587 22.6179 19.4642C22.6902 18.9166 22.3049 18.4142 21.7574 18.3419C21.2098 18.2696 20.7074 18.6549 20.6351 19.2024C20.3168 21.6136 19.6554 23.6388 18.8219 25.0298C17.966 26.4584 17.0762 27 16.3515 27C15.4655 27 14.3406 26.1708 13.3792 24.0692C12.5551 22.2678 11.9912 19.7952 11.8816 17H17.724C18.2763 17 18.724 16.5522 18.724 16C18.724 15.4477 18.2763 15 17.724 15H11.8816C11.9912 12.2047 12.5551 9.73216 13.3792 7.93067C14.3364 5.83833 15.4557 5.00726 16.3399 5.00001ZM12.3051 5.71849C8.33134 7.18737 5.44211 10.7561 5.04641 15H9.88015C9.99047 11.966 10.5995 9.19953 11.5605 7.09868C11.7814 6.61588 12.0298 6.15091 12.3051 5.71849ZM5.04641 17C5.44208 21.2439 8.33135 24.8127 12.3052 26.2815C12.0299 25.8491 11.7814 25.3841 11.5605 24.9012C10.5995 22.8004 9.99047 20.0339 9.88015 17H5.04641Z" fill="#B2B8BF"/>
<path fill-rule="evenodd" clip-rule="evenodd" d="M26.2188 1C26.771 1 27.2188 1.44772 27.2188 2V2.94026C27.9981 3.12663 28.6557 3.56737 29.0859 4.31782C29.3606 4.79695 29.1949 5.40804 28.7157 5.68273C28.2366 5.95742 27.6255 5.79169 27.3508 5.31257C27.1962 5.04288 26.9312 4.83496 26.2776 4.83496C25.9008 4.83496 25.5123 4.98078 25.2753 5.21891C25.0833 5.41184 24.9062 5.74431 25.0555 6.38163C25.0812 6.49139 25.1694 6.65001 25.5131 6.87101C25.8323 7.07618 26.2286 7.24775 26.7242 7.46226L26.9091 7.54242C27.4397 7.77311 28.0913 8.06492 28.6157 8.48292C29.1738 8.92783 29.6531 9.56828 29.7124 10.4762C29.8043 11.8812 29.2923 12.8802 28.4738 13.4832C28.0704 13.7804 27.6286 13.9552 27.2188 14.0532V14.6633C27.2188 15.2156 26.771 15.6633 26.2188 15.6633C25.6665 15.6633 25.2188 15.2156 25.2188 14.6633V14.0686C24.371 13.9012 23.6344 13.5011 23.1632 12.7516C22.8693 12.284 23.0101 11.6667 23.4777 11.3728C23.9453 11.0788 24.5626 11.2196 24.8565 11.6872C24.9899 11.8994 25.3226 12.1651 26.2776 12.1651C26.5963 12.1651 27.0036 12.0823 27.2874 11.8731C27.503 11.7142 27.7686 11.4013 27.7167 10.6066C27.7041 10.4146 27.6238 10.2499 27.3689 10.0468C27.0804 9.81672 26.6659 9.61754 26.1116 9.37657C26.0529 9.35103 25.9921 9.32485 25.9298 9.29799L25.9296 9.29791L25.9296 9.2979C25.4595 9.09537 24.8993 8.85402 24.4316 8.55333C23.8877 8.20365 23.304 7.67321 23.1083 6.83783C22.8147 5.58485 23.1393 4.52993 23.8578 3.80806C24.2489 3.41502 24.727 3.15027 25.2188 2.99737V2C25.2188 1.44772 25.6665 1 26.2188 1Z" fill="#B2B8BF"/>
</svg>
