<svg width="20" height="20" viewBox="0 0 20 20" fill="none" xmlns="http://www.w3.org/2000/svg">
<path d="M10 0C10.5523 0 11 0.447715 11 1C11 1.55228 10.5523 2 10 2H4C3.44772 2 3 2.44772 3 3V17C3 17.5523 3.44772 18 4 18H14C14.5523 18 15 17.5523 15 17V15C15 14.4477 15.4477 14 16 14C16.5523 14 17 14.4477 17 15V17C17 18.6569 15.6569 20 14 20H4C2.34315 20 1 18.6569 1 17V3C1 1.34315 2.34315 0 4 0H10Z" fill="#B2B8BF"/>
<path d="M11 13C11.5523 13 12 13.4477 12 14C12 14.5523 11.5523 15 11 15H6C5.44772 15 5 14.5523 5 14C5 13.4477 5.44772 13 6 13H11Z" fill="#B2B8BF"/>
<path fill-rule="evenodd" clip-rule="evenodd" d="M16 0C17.6569 0 19 1.34315 19 3C19 4.30574 18.1645 5.41299 17 5.8252V8.5H18C18.5523 8.5 19 8.94772 19 9.5C19 10.0523 18.5523 10.5 18 10.5H17V11C17 11.5523 16.5523 12 16 12C15.4477 12 15 11.5523 15 11V5.8252C13.8355 5.41299 13 4.30574 13 3C13 1.34315 14.3431 0 16 0ZM16 2C15.4477 2 15 2.44772 15 3C15 3.55228 15.4477 4 16 4C16.5523 4 17 3.55228 17 3C17 2.44772 16.5523 2 16 2Z" fill="#B2B8BF"/>
<path d="M8 9C8.55228 9 9 9.44771 9 10C9 10.5523 8.55228 11 8 11H6C5.44772 11 5 10.5523 5 10C5 9.44771 5.44772 9 6 9H8Z" fill="#B2B8BF"/>
<path d="M8 5C8.55228 5 9 5.44772 9 6C9 6.55228 8.55228 7 8 7H6C5.44772 7 5 6.55228 5 6C5 5.44772 5.44772 5 6 5H8Z" fill="#B2B8BF"/>
</svg>
