<svg width="32" height="32" viewBox="0 0 32 32" fill="none" xmlns="http://www.w3.org/2000/svg">
<path d="M14.4297 5.28125C14.4297 4.72897 13.982 4.28125 13.4297 4.28125C12.8774 4.28125 12.4297 4.72897 12.4297 5.28125L12.4297 14.4688C12.4297 15.021 12.8774 15.4688 13.4297 15.4688C13.982 15.4688 14.4297 15.021 14.4297 14.4688V5.28125Z" fill="#21A19A"/>
<path d="M10.25 6.19531C10.8023 6.19531 11.25 6.64303 11.25 7.19531L11.25 14.4688C11.25 15.021 10.8023 15.4688 10.25 15.4688C9.69772 15.4688 9.25 15.021 9.25 14.4688L9.25 7.19531C9.25 6.64303 9.69772 6.19531 10.25 6.19531Z" fill="#21A19A"/>
<path d="M8.07031 10.0664C8.07031 9.51412 7.6226 9.06641 7.07031 9.06641C6.51803 9.06641 6.07031 9.51412 6.07031 10.0664V14.2773C6.07031 14.8296 6.51803 15.2773 7.07031 15.2773C7.6226 15.2773 8.07031 14.8296 8.07031 14.2773V10.0664Z" fill="#21A19A"/>
<path d="M20.25 22.7188C21.0784 22.7188 21.75 22.0472 21.75 21.2188C21.75 20.3903 21.0784 19.7188 20.25 19.7188C19.4216 19.7188 18.75 20.3903 18.75 21.2188C18.75 22.0472 19.4216 22.7188 20.25 22.7188Z" fill="#21A19A"/>
<path d="M26.75 26.2188C26.75 27.0472 26.0784 27.7188 25.25 27.7188C24.4216 27.7188 23.75 27.0472 23.75 26.2188C23.75 25.3903 24.4216 24.7188 25.25 24.7188C26.0784 24.7188 26.75 25.3903 26.75 26.2188Z" fill="#21A19A"/>
<path d="M26.4571 21.4259C26.8476 21.0353 26.8476 20.4022 26.4571 20.0116C26.0666 19.6211 25.4334 19.6211 25.0429 20.0116L19.0429 26.0116C18.6524 26.4022 18.6524 27.0353 19.0429 27.4259C19.4334 27.8164 20.0666 27.8164 20.4571 27.4259L26.4571 21.4259Z" fill="#21A19A"/>
<path d="M17.2 6.8687C17.2 6.20596 17.7372 5.6687 18.4 5.6687C23.0391 5.6687 26.7999 9.42951 26.7999 14.0687C26.7999 14.7314 26.2627 15.2687 25.6 15.2687C24.9372 15.2687 24.4 14.7314 24.4 14.0687C24.4 10.755 21.7137 8.0687 18.4 8.0687C17.7372 8.0687 17.2 7.53144 17.2 6.8687Z" fill="#21A19A"/>
<path d="M14.8 26.0687C14.8 26.7314 14.2627 27.2687 13.6 27.2687C8.96076 27.2687 5.19995 23.5079 5.19995 18.8687C5.19995 18.206 5.73721 17.6687 6.39995 17.6687C7.06269 17.6687 7.59995 18.206 7.59995 18.8687C7.59995 22.1824 10.2862 24.8687 13.6 24.8687C14.2627 24.8687 14.8 25.406 14.8 26.0687Z" fill="#21A19A"/>
</svg>
