<svg width="32" height="32" viewBox="0 0 32 32" fill="none" xmlns="http://www.w3.org/2000/svg">
<path d="M12.6247 5.21917C13.056 5.56418 13.1259 6.19347 12.7809 6.62473L10.0807 10H23.0794L20.6809 6.57355C20.3641 6.1211 20.4742 5.49757 20.9266 5.18085C21.3791 4.86414 22.0026 4.97417 22.3193 5.42662L25.5207 10H29C29.3466 10 29.6685 10.1795 29.8507 10.4743C30.0329 10.7691 30.0494 11.1372 29.8944 11.4472L27.8944 15.4472C27.6474 15.9412 27.0468 16.1414 26.5528 15.8944C26.0588 15.6474 25.8586 15.0468 26.1056 14.5528L27.382 12H25.0195C25.0071 12.0002 24.9948 12.0002 24.9824 12H8.01155C8.00345 12.0001 7.99535 12.0001 7.98725 12H5.38743L9.72077 25H14C14.5523 25 15 25.4477 15 26C15 26.5523 14.5523 27 14 27H9.00001C8.56958 27 8.18744 26.7246 8.05132 26.3162L3.05132 11.3162C2.94967 11.0113 3.00081 10.6761 3.18877 10.4153C3.37672 10.1545 3.67856 10 4.00001 10H7.51944L11.2192 5.37534C11.5642 4.94408 12.1935 4.87416 12.6247 5.21917Z" fill="#107F8C"/>
<path d="M20.5 23C21.3284 23 22 22.3284 22 21.5C22 20.6716 21.3284 20 20.5 20C19.6716 20 19 20.6716 19 21.5C19 22.3284 19.6716 23 20.5 23Z" fill="#107F8C"/>
<path d="M26.5 29C27.3284 29 28 28.3284 28 27.5C28 26.6716 27.3284 26 26.5 26C25.6716 26 25 26.6716 25 27.5C25 28.3284 25.6716 29 26.5 29Z" fill="#107F8C"/>
<path d="M27.7071 21.7071C28.0976 21.3166 28.0976 20.6834 27.7071 20.2929C27.3166 19.9024 26.6834 19.9024 26.2929 20.2929L19.2929 27.2929C18.9024 27.6834 18.9024 28.3166 19.2929 28.7071C19.6834 29.0976 20.3166 29.0976 20.7071 28.7071L27.7071 21.7071Z" fill="#107F8C"/>
</svg>
