<svg width="32" height="32" viewBox="0 0 32 32" fill="none" xmlns="http://www.w3.org/2000/svg">
<path d="M19.6144 7.07789C20.1239 6.8649 20.7097 7.10533 20.9226 7.61489C21.1356 8.12446 21.7214 8.36488 22.2309 8.1519C22.7405 7.93891 22.9809 7.35317 22.7679 6.84361C22.129 5.31491 20.3718 4.59364 18.8431 5.23259L6.84307 10.2483C5.74104 10.7089 5.01865 11.7785 5.00036 12.9699C5.00012 12.9788 5 12.9878 5 12.9968V22.9968C5 24.6537 6.34315 25.9968 8 25.9968H24C25.6569 25.9968 27 24.6537 27 22.9968V12.9968C27 11.34 25.6569 9.99683 24 9.99683H18C17.4477 9.99683 17 10.4445 17 10.9968C17 11.5491 17.4477 11.9968 18 11.9968H24C24.5523 11.9968 25 12.4445 25 12.9968V22.9968C25 23.5491 24.5523 23.9968 24 23.9968H8C7.44772 23.9968 7 23.5491 7 22.9968V13.0162C7 12.6129 7.24226 12.2491 7.61436 12.0936L19.6144 7.07789Z" fill="#107F8C"/>
<path fill-rule="evenodd" clip-rule="evenodd" d="M17 18C17 16.3431 18.3431 15 20 15C21.6569 15 23 16.3431 23 18C23 19.6569 21.6569 21 20 21C18.3431 21 17 19.6569 17 18ZM20 17C19.4477 17 19 17.4477 19 18C19 18.5523 19.4477 19 20 19C20.5523 19 21 18.5523 21 18C21 17.4477 20.5523 17 20 17Z" fill="#107F8C"/>
</svg>
