<svg width="32" height="32" viewBox="0 0 32 32" fill="none" xmlns="http://www.w3.org/2000/svg">
<path fill-rule="evenodd" clip-rule="evenodd" d="M12 3C12.5523 3 13 3.44772 13 4V6H19V4C19 3.44772 19.4477 3 20 3C20.5523 3 21 3.44772 21 4V6H25C26.6569 6 28 7.34315 28 9V25C28 26.6569 26.6569 28 25 28H7C5.34314 28 4 26.6569 4 25V9C4 7.34315 5.34315 6 7 6H11V4C11 3.44772 11.4477 3 12 3ZM19 8V9.04912C19 9.60141 19.4477 10.0491 20 10.0491C20.5523 10.0491 21 9.60141 21 9.04912V8H25C25.5523 8 26 8.44771 26 9V25C26 25.5523 25.5523 26 25 26H7C6.44772 26 6 25.5523 6 25V9C6 8.44772 6.44772 8 7 8H11V9.04912C11 9.60141 11.4477 10.0491 12 10.0491C12.5523 10.0491 13 9.60141 13 9.04912V8H19ZM16 13C13.7909 13 12 14.7909 12 17C12 19.2091 13.7909 21 16 21C16.8921 21 17.7159 20.708 18.3812 20.2143C18.3938 20.2044 18.4066 20.1947 18.4196 20.1855C19.38 19.4548 20 18.2998 20 17C20 14.7909 18.2091 13 16 13ZM20.4447 21.0305C21.4111 19.9654 22 18.5515 22 17C22 13.6863 19.3137 11 16 11C12.6863 11 10 13.6863 10 17C10 20.3137 12.6863 23 16 23C17.036 23 18.0106 22.7374 18.861 22.2752L20.7929 24.2071C21.1834 24.5976 21.8166 24.5976 22.2071 24.2071C22.5976 23.8166 22.5976 23.1834 22.2071 22.7929L20.4447 21.0305Z" fill="#107F8C"/>
</svg>
