<svg width="20" height="20" viewBox="0 0 20 20" fill="none" xmlns="http://www.w3.org/2000/svg">
<path fill-rule="evenodd" clip-rule="evenodd" d="M13.5 0C13.8806 0 14.2283 0.216099 14.3967 0.557434L15.7805 3.3612L18.8746 3.8108C19.2513 3.86554 19.5642 4.12938 19.6819 4.49139C19.7995 4.8534 19.7014 5.2508 19.4288 5.51649L17.1899 7.69892L17.7184 10.7805C17.7828 11.1557 17.6286 11.5349 17.3206 11.7586C17.0127 11.9823 16.6044 12.0119 16.2675 11.8347L13.5 10.3798L10.7325 11.8347C10.3956 12.0119 9.98735 11.9823 9.6794 11.7586C9.37145 11.5349 9.21723 11.1557 9.28158 10.7805L9.81012 7.69892L7.57118 5.51649C7.29861 5.2508 7.20051 4.8534 7.31814 4.49139C7.43576 4.12938 7.74871 3.86554 8.1254 3.8108L11.2195 3.3612L12.6033 0.557434C12.7717 0.216099 13.1194 0 13.5 0ZM13.5 3.25955L12.7803 4.71777C12.6347 5.01291 12.3531 5.21748 12.0274 5.26481L10.4182 5.49865L11.5826 6.63371C11.8183 6.86345 11.9258 7.19445 11.8702 7.51884L11.5953 9.12158L13.0347 8.36487C13.326 8.21171 13.674 8.21171 13.9653 8.36487L15.4047 9.12158L15.1298 7.51884C15.0742 7.19445 15.1817 6.86345 15.4174 6.63371L16.5819 5.49865L14.9726 5.26481C14.6469 5.21748 14.3653 5.01291 14.2197 4.71777L13.5 3.25955Z" fill="#B2B8BF"/>
<path d="M3 3C3 2.44772 3.44772 2 4 2H8.5C9.05228 2 9.5 1.55228 9.5 1C9.5 0.447715 9.05228 0 8.5 0H4C2.34315 0 1 1.34315 1 3V17C1 18.6569 2.34315 20 4 20H14C15.6569 20 17 18.6569 17 17V14.2353C17 13.683 16.5523 13.2353 16 13.2353C15.4477 13.2353 15 13.683 15 14.2353V17C15 17.5523 14.5523 18 14 18H4C3.44772 18 3 17.5523 3 17V3Z" fill="#B2B8BF"/>
<path d="M5 10C5 9.44771 5.44772 9 6 9H6.5C7.05228 9 7.5 9.44771 7.5 10C7.5 10.5523 7.05228 11 6.5 11H6C5.44772 11 5 10.5523 5 10Z" fill="#B2B8BF"/>
<path d="M5 14C5 13.4477 5.44772 13 6 13H8C8.55228 13 9 13.4477 9 14C9 14.5523 8.55228 15 8 15H6C5.44772 15 5 14.5523 5 14Z" fill="#B2B8BF"/>
</svg>
