<svg width="20" height="20" viewBox="0 0 20 20" fill="none" xmlns="http://www.w3.org/2000/svg">
<path d="M6.65558 0.0611574C6.8779 -0.0203858 7.12194 -0.0203858 7.34426 0.0611574L13.344 2.26178C13.8624 2.45195 14.1286 3.02643 13.9384 3.54491C13.7482 4.06339 13.1738 4.32953 12.6553 4.13936L6.99992 2.06504L1.34456 4.13936C0.826079 4.32953 0.251602 4.06339 0.0614294 3.54491C-0.128743 3.02643 0.137403 2.45195 0.655884 2.26178L6.65558 0.0611574Z" fill="#B2B8BF"/>
<path d="M0.0305161 12.9994C0.0305161 12.4471 0.478209 11.9994 1.03047 11.9994H8.53009C9.08235 11.9994 9.53004 12.4471 9.53004 12.9994C9.53004 13.5516 9.08235 13.9993 8.53009 13.9993H1.03047C0.478209 13.9993 0.0305161 13.5516 0.0305161 12.9994Z" fill="#B2B8BF"/>
<path d="M7.99985 5.9997C7.99985 5.44744 7.55215 4.99975 6.9999 4.99975C6.44764 4.99975 5.99994 5.44744 5.99994 5.9997V9.72995C5.99994 10.2822 6.44764 10.7299 6.9999 10.7299C7.55215 10.7299 7.99985 10.2822 7.99985 9.72995V5.9997Z" fill="#B2B8BF"/>
<path d="M10.9997 4.99975C11.552 4.99975 11.9996 5.44744 11.9996 5.9997V6.99965C11.9996 7.55191 11.552 7.9996 10.9997 7.9996C10.4474 7.9996 9.99975 7.55191 9.99975 6.99965V5.9997C9.99975 5.44744 10.4474 4.99975 10.9997 4.99975Z" fill="#B2B8BF"/>
<path d="M4.00004 5.9997C4.00004 5.44744 3.55235 4.99975 3.00009 4.99975C2.44784 4.99975 2.00014 5.44744 2.00014 5.9997V9.72995C2.00014 10.2822 2.44784 10.7299 3.00009 10.7299C3.55235 10.7299 4.00004 10.2822 4.00004 9.72995V5.9997Z" fill="#B2B8BF"/>
<path d="M15.6588 12.0727C14.0425 11.7085 12.4371 12.7235 12.0729 14.3398C11.7088 15.9561 12.7238 17.5615 14.3401 17.9257C15.9563 18.2898 17.5618 17.2748 17.9259 15.6585C18.0473 15.1198 18.5824 14.7814 19.1212 14.9028C19.6599 15.0242 19.9983 15.5594 19.8769 16.0981C19.27 18.7919 16.5942 20.4836 13.9005 19.8766C11.2067 19.2697 9.51501 16.594 10.1219 13.9002C10.7289 11.2065 13.4046 9.51475 16.0984 10.1217C16.6371 10.2431 16.9755 10.7782 16.8541 11.317C16.7327 11.8557 16.1975 12.1941 15.6588 12.0727Z" fill="#B2B8BF"/>
<path d="M18.6395 13.7676C19.0638 13.414 19.1211 12.7835 18.7675 12.3592C18.414 11.935 17.7834 11.8776 17.3592 12.2312L15.0609 14.1465L14.7066 13.7922C14.3161 13.4017 13.683 13.4017 13.2925 13.7922C12.902 14.1827 12.902 14.8159 13.2925 15.2064L14.2924 16.2063C14.6581 16.572 15.2423 16.5985 15.6396 16.2674L18.6395 13.7676Z" fill="#B2B8BF"/>
</svg>
