<svg width="20" height="20" viewBox="0 0 20 20" fill="none" xmlns="http://www.w3.org/2000/svg">
<path d="M3 3C3 2.44772 3.44772 2 4 2H8C8.55228 2 9 1.55228 9 1C9 0.447715 8.55228 0 8 0H4C2.34315 0 1 1.34315 1 3V17C1 18.6569 2.34315 20 4 20H14C15.6569 20 17 18.6569 17 17V14C17 13.4477 16.5523 13 16 13C15.4477 13 15 13.4477 15 14V17C15 17.5523 14.5523 18 14 18H4C3.44772 18 3 17.5523 3 17V3Z" fill="#107F8C"/>
<path d="M6 5C5.44772 5 5 5.44772 5 6C5 6.55228 5.44772 7 6 7H7C7.55228 7 8 6.55228 8 6C8 5.44772 7.55228 5 7 5H6Z" fill="#107F8C"/>
<path d="M5 10C5 9.44771 5.44772 9 6 9H7C7.55228 9 8 9.44771 8 10C8 10.5523 7.55228 11 7 11H6C5.44772 11 5 10.5523 5 10Z" fill="#107F8C"/>
<path d="M6 13C5.44772 13 5 13.4477 5 14C5 14.5523 5.44772 15 6 15H10C10.5523 15 11 14.5523 11 14C11 13.4477 10.5523 13 10 13H6Z" fill="#107F8C"/>
<path d="M14 0C14.5523 0 15 0.447715 15 1V1.1302C15.4642 1.3105 15.9184 1.62121 16.2996 2.07857C16.6531 2.50284 16.5958 3.13341 16.1715 3.48697C15.7472 3.84054 15.1167 3.78321 14.7631 3.35893C14.4826 3.02237 14.1694 2.9375 14.0001 2.9375C13.823 2.9375 13.529 2.96685 13.3112 3.08828C13.2176 3.14045 13.1522 3.20175 13.1058 3.27964C13.0602 3.35624 13.0005 3.50337 13 3.77818C13.0143 3.7971 13.0585 3.84606 13.1691 3.91779C13.4268 4.08488 13.7922 4.2247 14.3115 4.42345L14.3576 4.44109C14.8359 4.62418 15.4646 4.86638 15.9656 5.23303C16.5096 5.63113 17.0001 6.24957 17.0001 7.15625C17.0001 8.37884 16.3791 9.16413 15.6777 9.59713C15.4525 9.73616 15.2208 9.83886 15 9.91358V10C15 10.5523 14.5523 11 14 11C13.4477 11 13 10.5523 13 10V9.97104C12.8843 9.94489 12.7667 9.91415 12.6495 9.87841C12.1769 9.73433 11.502 9.44742 11.0871 8.85471C10.7704 8.40226 10.8804 7.77873 11.3329 7.46202C11.7853 7.1453 12.4089 7.25534 12.7256 7.70779C12.7482 7.74008 12.8853 7.85942 13.2327 7.96534C13.5476 8.06132 13.8633 8.09375 14.0001 8.09375C13.9998 8.09376 14 8.09375 14.0001 8.09375C14.003 8.09366 14.0277 8.09288 14.0714 8.08709C14.117 8.08106 14.1745 8.07075 14.2388 8.05448C14.3709 8.0211 14.5084 7.96859 14.6271 7.89528C14.7428 7.82385 14.8289 7.74048 14.8875 7.64289C14.9431 7.55031 15.0001 7.40248 15.0001 7.15625C15.0001 7.07856 14.9905 6.99778 14.7845 6.84705C14.5356 6.66487 14.1643 6.50864 13.6426 6.30891L13.5235 6.26351C13.0824 6.09575 12.5248 5.88363 12.081 5.59588C11.5642 5.2608 11.0001 4.69042 11 3.78129C11 3.19868 11.1314 2.68645 11.3874 2.25649C11.6427 1.82754 11.9895 1.53533 12.3373 1.34141C12.5593 1.21766 12.7858 1.13152 13 1.07168V1C13 0.447715 13.4477 0 14 0Z" fill="#107F8C"/>
</svg>
