<svg width="32" height="32" viewBox="0 0 32 32" fill="none" xmlns="http://www.w3.org/2000/svg">
<path fill-rule="evenodd" clip-rule="evenodd" d="M9.99644 11H7.13713L4.99765 28.12C4.92766 28.67 4.43778 29.06 3.87792 28.99C3.32805 28.92 2.93814 28.43 3.00812 27.87L5.14761 10.75C5.1776 10.5 5.25758 10.27 5.36756 10.05C5.42754 9.95 5.48753 9.85 5.55751 9.76C5.63749 9.67 5.71747 9.58 5.80745 9.5C5.90743 9.41 5.99741 9.34 6.10738 9.28C6.20736 9.22 6.30733 9.17 6.4173 9.13C6.52728 9.09 6.63725 9.05 6.75722 9.03C6.87719 9.01 7.00716 9 7.13713 9H9.07666C9.09666 8.82 9.12665 8.65 9.16664 8.48C9.25662 8.07 9.38659 7.66 9.55655 7.27C9.71651 6.87 9.91646 6.5 10.1564 6.14C10.4163 5.75 10.7163 5.38 11.0562 5.04C11.3961 4.7 11.756 4.41 12.1459 4.15C12.5058 3.91 12.8758 3.71 13.2757 3.55C13.6656 3.38 14.0755 3.25 14.4854 3.16C14.9752 3.05 15.4851 3 16.005 3C16.5149 3 17.0248 3.05 17.5146 3.16C17.9245 3.25 18.3344 3.38 18.7243 3.55C19.5641 3.9 20.304 4.4 20.9438 5.04C21.5937 5.69 22.0935 6.43 22.4435 7.27C22.6134 7.66 22.7434 8.07 22.8334 8.48C22.8733 8.65 22.9033 8.82 22.9233 9H24.8629C25.1128 9 25.3528 9.04 25.5827 9.13C25.8026 9.21 26.0126 9.34 26.1926 9.5C26.3725 9.65 26.5125 9.84 26.6324 10.05C26.6824 10.16 26.7324 10.26 26.7624 10.37C26.8024 10.49 26.8324 10.62 26.8524 10.75L28.9919 27.87C29.0619 28.43 28.672 28.92 28.1221 28.99C27.5622 29.06 27.0723 28.67 27.0024 28.12L24.8629 11H23.0033V16C23.0033 16.55 22.5634 17 22.0036 17C21.4337 17 21.0038 16.55 21.0038 16V11H9.99644ZM11.0962 9H20.9038C20.8338 8.67 20.7339 8.36 20.6039 8.05C20.354 7.45 19.994 6.92 19.5342 6.46C19.0743 6 18.5444 5.64 17.9445 5.39C17.3247 5.13 16.6748 5 16.005 5C15.6151 5 15.2452 5.04 14.8753 5.12C14.5953 5.18 14.3254 5.27 14.0555 5.39C13.4556 5.64 12.9257 6 12.4658 6.46C12.006 6.92 11.646 7.45 11.3961 8.05C11.2761 8.32 11.1862 8.59 11.1262 8.87C11.1162 8.91 11.1062 8.95 11.0962 9Z" fill="#B2B8BF"/>
</svg>
