<svg width="20" height="20" viewBox="0 0 20 20" fill="none" xmlns="http://www.w3.org/2000/svg">
<path fill-rule="evenodd" clip-rule="evenodd" d="M5.99639 7H4.38695L2.99743 18.12C2.92746 18.67 2.43763 19.06 1.87782 18.99C1.32801 18.92 0.938148 18.43 1.00812 17.87L2.39764 6.75C2.42763 6.5 2.5076 6.27 2.61756 6.05C2.73752 5.84 2.87747 5.65 3.05741 5.5C3.15738 5.41 3.24735 5.34 3.35731 5.28C3.45727 5.22 3.55724 5.17 3.6672 5.13C3.77716 5.09 3.88712 5.05 4.00708 5.03C4.12704 5.01 4.257 5 4.38695 5H5.0967C5.16668 4.7 5.27664 4.33 5.3966 4.05C5.51656 3.76 5.65651 3.5 5.82645 3.24C6.00639 2.96 6.22631 2.7 6.46623 2.46C6.70614 2.22 6.96605 2 7.24596 1.82C7.50587 1.65 7.76578 1.51 8.05568 1.39C8.33558 1.27 8.62548 1.18 8.92537 1.11C9.27525 1.03 9.63513 1 10.005 1C10.6748 1 11.3245 1.13 11.9443 1.39C12.2342 1.51 12.4941 1.65 12.754 1.82C13.0339 2 13.2939 2.22 13.5338 2.46C13.9936 2.92 14.3535 3.45 14.6034 4.05C14.7234 4.33 14.8133 4.62 14.8833 4.92L15.613 5C15.863 5 16.1029 5.04 16.3328 5.13C16.5527 5.21 16.7627 5.34 16.9426 5.5C17.0326 5.58 17.1125 5.67 17.1925 5.76C17.2625 5.85 17.3225 5.95 17.3824 6.05C17.4924 6.27 17.5724 6.5 17.6024 6.75L18.9919 17.87C19.0619 18.43 18.672 18.92 18.1222 18.99C17.5624 19.06 17.0725 18.67 17.0026 18.12L15.613 7H15.0033V10C15.0033 10.55 14.5534 11 14.0036 11C13.4338 11 13.004 10.55 13.004 10V7H5.99639ZM7.17598 5H12.824C12.804 4.94 12.784 4.88 12.764 4.83C12.6941 4.66 12.6141 4.51 12.5141 4.36C12.4042 4.19 12.2742 4.02 12.1243 3.87C11.8444 3.6 11.5245 3.38 11.1646 3.23C11.0047 3.16 10.8447 3.11 10.6848 3.07C10.4548 3.02 10.2349 3 10.005 3C9.59514 3 9.20528 3.07 8.8354 3.23C8.66546 3.3 8.51552 3.38 8.36557 3.48C8.19563 3.59 8.02569 3.72 7.87574 3.87C7.60583 4.15 7.38591 4.47 7.23596 4.83C7.21597 4.88 7.19597 4.94 7.17598 5Z" fill="#B2B8BF"/>
</svg>
