<svg width="32" height="32" viewBox="0 0 32 32" fill="none" xmlns="http://www.w3.org/2000/svg">
<path fill-rule="evenodd" clip-rule="evenodd" d="M16.3514 5L16.3399 5.00001C15.4557 5.00726 14.3364 5.83833 13.3792 7.93067C12.5551 9.73216 11.9912 12.2047 11.8816 15H17.5C18.0523 15 18.5 15.4477 18.5 16C18.5 16.5522 18.0523 17 17.5 17H11.8816C11.9912 19.7952 12.5551 22.2678 13.3792 24.0692C14.3406 26.1708 15.4655 27 16.3515 27C17.0762 27 17.966 26.4584 18.8219 25.0298C19.6554 23.6388 20.3168 21.6136 20.6351 19.2024C20.7074 18.6549 21.2098 18.2696 21.7574 18.3419C22.3049 18.4142 22.6902 18.9166 22.6179 19.4642C22.2754 22.0587 21.5507 24.3668 20.5375 26.0577C20.4927 26.1325 20.447 26.2066 20.4005 26.2798C23.5085 25.1295 25.9556 22.6946 27.0603 19.6581C27.2491 19.1391 27.8229 18.8714 28.3419 19.0603C28.8609 19.2491 29.1286 19.8229 28.9397 20.3419C27.0999 25.3992 22.1482 29 16.3514 29C9.00503 29 3 23.2067 3 16C3 8.79329 9.00503 3 16.3514 3C17.1069 3 17.8484 3.06118 18.5708 3.17894C19.1159 3.26779 19.4858 3.7817 19.397 4.32679C19.3081 4.87188 18.7942 5.24174 18.2491 5.15289C17.6327 5.05241 16.9987 5 16.3514 5ZM5.04641 15C5.44211 10.7561 8.33134 7.18737 12.3051 5.71849C12.0298 6.15091 11.7814 6.61588 11.5605 7.09868C10.5995 9.19953 9.99047 11.966 9.88015 15H5.04641ZM12.3052 26.2815C8.33135 24.8127 5.44208 21.2439 5.04641 17H9.88015C9.99047 20.0339 10.5995 22.8004 11.5605 24.9012C11.7814 25.3841 12.0299 25.8491 12.3052 26.2815Z" fill="#B2B8BF"/>
<path d="M23.832 4.44531C23.5257 3.98579 22.9048 3.86161 22.4453 4.16796C21.9858 4.47432 21.8616 5.09519 22.1679 5.55471L25 9.80279V10H23.5C22.9477 10 22.5 10.4477 22.5 11C22.5 11.5523 22.9477 12 23.5 12H25V12.5H23.5C22.9477 12.5 22.5 12.9477 22.5 13.5C22.5 14.0523 22.9477 14.5 23.5 14.5H25V15C25 15.5523 25.4477 16 26 16C26.5523 16 27 15.5523 27 15V14.5H28.5C29.0523 14.5 29.5 14.0523 29.5 13.5C29.5 12.9477 29.0523 12.5 28.5 12.5H27V12H28.5C29.0523 12 29.5 11.5523 29.5 11C29.5 10.4477 29.0523 10 28.5 10H27V9.80279L29.832 5.55471C30.1384 5.09519 30.0142 4.47432 29.5547 4.16796C29.0952 3.86161 28.4743 3.98579 28.1679 4.44531L26 7.69724L23.832 4.44531Z" fill="#B2B8BF"/>
</svg>
