<svg width="32" height="32" viewBox="0 0 32 32" fill="none" xmlns="http://www.w3.org/2000/svg">
<path d="M20 21C20 20.4477 20.4477 20 21 20H23C23.5523 20 24 20.4477 24 21C24 21.5523 23.5523 22 23 22H21C20.4477 22 20 21.5523 20 21Z" fill="#107F8C"/>
<path d="M9 20C8.44772 20 8 20.4477 8 21C8 21.5523 8.44772 22 9 22H11C11.5523 22 12 21.5523 12 21C12 20.4477 11.5523 20 11 20H9Z" fill="#107F8C"/>
<path fill-rule="evenodd" clip-rule="evenodd" d="M10.3359 10.9668C10.4752 10.3545 10.9609 10 11.4359 10C11.9882 10 12.4359 9.55228 12.4359 9C12.4359 8.44772 11.9882 8 11.4359 8C9.94114 8 8.71247 9.0871 8.38575 10.523L7.13956 16H7C5.34315 16 4 17.3431 4 19V23C4 24.6569 5.34314 26 7 26C7 27.6569 8.34315 29 10 29C11.6569 29 13 27.6569 13 26H19C19.0002 27.6564 20.343 29 22 29C23.6569 29 25 27.6569 25 26C26.6569 26 28 24.6569 28 23V19C28 17.3431 26.6569 16 25 16H9.19068L10.3359 10.9668ZM7 18C6.44772 18 6 18.4477 6 19V23C6 23.5523 6.44772 24 7 24H8C8.55228 24 9 24.4477 9 25V26C9 26.5523 9.44772 27 10 27C10.5523 27 11 26.5523 11 26V25C11 24.4477 11.4477 24 12 24H20C20.5523 24 21 24.4477 21 25V25.9996C21 26.5522 21.448 27 22 27C22.5523 27 23 26.5523 23 26V25C23 24.4477 23.4477 24 24 24H25C25.5523 24 26 23.5523 26 23V19C26 18.4477 25.5523 18 25 18H7Z" fill="#107F8C"/>
<path d="M11 3C11 2.44772 11.4477 2 12 2H14C14.5523 2 15 2.44772 15 3V5C15 5.55228 14.5523 6 14 6H12C11.4477 6 11 5.55228 11 5V3Z" fill="#107F8C"/>
<path d="M27 3C27 2.44772 27.4477 2 28 2H30C30.5523 2 31 2.44772 31 3V5C31 5.55228 30.5523 6 30 6H28C27.4477 6 27 5.55228 27 5V3Z" fill="#107F8C"/>
<path d="M16 6C15.4477 6 15 6.44772 15 7V9C15 9.55228 15.4477 10 16 10H18C18.5523 10 19 9.55228 19 9V7C19 6.44772 18.5523 6 18 6H16Z" fill="#107F8C"/>
<path d="M19 3C19 2.44772 19.4477 2 20 2H22C22.5523 2 23 2.44772 23 3V5C23 5.55228 22.5523 6 22 6H20C19.4477 6 19 5.55228 19 5V3Z" fill="#107F8C"/>
<path d="M24 6C23.4477 6 23 6.44772 23 7V9C23 9.55228 23.4477 10 24 10H26C26.5523 10 27 9.55228 27 9V7C27 6.44772 26.5523 6 26 6H24Z" fill="#107F8C"/>
</svg>
