<svg width="20" height="21" viewBox="0 0 20 21" fill="none" xmlns="http://www.w3.org/2000/svg">
<path fill-rule="evenodd" clip-rule="evenodd" d="M9.1324 3.43166C9.48164 3.0993 9.7731 3 10 3L11 3C11.2813 3 11.7294 2.74579 11.8208 2.20112C11.9121 1.65645 11.5447 1.14082 11 1.04944C10.6166 0.985128 10.5588 0.987038 10.3575 0.99368C10.2741 0.996433 10.1661 0.999998 10 0.999998C4.47715 0.999998 0 5.47715 0 11C0 16.5229 4.47715 21 10 21C14.3556 21 18.0584 18.2159 19.4307 14.3332C19.6148 13.8125 19.3418 13.2412 18.8211 13.0572C18.3004 12.8731 17.7291 13.146 17.545 13.6668C16.8491 15.6356 15.4047 17.25 13.5544 18.169C14.1736 16.928 14.6139 15.3557 14.8355 13.6272C14.9058 13.0794 14.5187 12.5784 13.9709 12.5081C13.4231 12.4379 12.922 12.825 12.8518 13.3728C12.6224 15.1613 12.1473 16.6475 11.5609 17.6548C10.9489 18.7061 10.3708 19 10 19C9.7731 19 9.48164 18.9007 9.1324 18.5683C8.77801 18.2311 8.41337 17.6958 8.08538 16.9578C7.52392 15.6945 7.12736 13.9665 7.02567 12H10.5C11.0523 12 11.5 11.5523 11.5 11C11.5 10.4477 11.0523 10 10.5 10H7.02567C7.12736 8.03347 7.52392 6.30546 8.08538 5.04218C8.41337 4.30422 8.77801 3.76892 9.1324 3.43166ZM5.02328 10C5.12643 7.79597 5.56798 5.78191 6.25776 4.2299C6.31802 4.09431 6.38064 3.96122 6.44561 3.83099C4.09485 4.99874 2.39999 7.2887 2.06189 10H5.02328ZM2.06189 12C2.39999 14.7113 4.09485 17.0013 6.44561 18.169C6.38064 18.0388 6.31802 17.9057 6.25776 17.7701C5.56798 16.2181 5.12643 14.204 5.02328 12H2.06189Z" fill="#B2B8BF"/>
<path d="M14.8415 2.24744C15.2571 1.88375 15.8889 1.92587 16.2526 2.34151L19.7526 6.34151C20.0825 6.71853 20.0825 7.28149 19.7526 7.65852L16.2526 11.6585C15.8889 12.0742 15.2571 12.1163 14.8415 11.7526C14.4259 11.3889 14.3837 10.7571 14.7474 10.3415L16.7962 8.00005H11C10.4477 8.00005 10 7.55234 10 7.00005C10 6.44777 10.4477 6.00005 11 6.00005H16.7963L14.7474 3.65852C14.3837 3.24288 14.4259 2.61112 14.8415 2.24744Z" fill="#B2B8BF"/>
</svg>
