<svg width="32" height="32" viewBox="0 0 32 32" fill="none" xmlns="http://www.w3.org/2000/svg">
<path d="M4.12925 18.0312C4.63052 17.9026 5.14061 18.1779 5.31578 18.6533L5.34703 18.751L5.46226 19.165C6.696 23.279 10.2745 26.3797 14.6429 26.917L15.0824 26.9619L15.1839 26.9756C15.682 27.0683 16.0389 27.5252 15.9964 28.041C15.9539 28.557 15.5266 28.9494 15.0199 28.959L14.9183 28.9551L14.3978 28.9023C9.2306 28.2669 5.0043 24.6016 3.54624 19.7393L3.40953 19.249L3.38902 19.1494C3.31269 18.6482 3.62769 18.1603 4.12925 18.0312Z" fill="#B2B8BF"/>
<path fill-rule="evenodd" clip-rule="evenodd" d="M19.8207 22.2568C20.3252 21.9087 20.9869 21.9222 21.4769 22.2529L21.5794 22.3281L21.5814 22.3301L21.7347 22.4453C22.1034 22.6986 22.5382 22.8418 22.9662 22.8418C23.4872 22.8416 23.9868 22.659 24.3705 22.3389C24.8852 21.9089 25.6094 21.8983 26.1341 22.2529L26.2367 22.3291L26.2376 22.3301L26.4398 22.5039C27.426 23.3994 28.0003 24.6492 28.0003 25.9775C28.0003 26.2625 27.9731 26.5509 27.9193 26.835C27.7846 27.5486 27.1515 28.0016 26.4916 28.002H19.5091C18.8475 28.0018 18.2162 27.5472 18.0814 26.835C18.0282 26.5525 18.0003 26.2635 18.0003 25.9775C18.0004 24.5935 18.6277 23.2459 19.7142 22.3379L19.7152 22.3369L19.8207 22.2568ZM25.2679 24.1553C24.5907 24.5987 23.7899 24.8417 22.9662 24.8418C22.1438 24.8418 21.3602 24.5813 20.7035 24.1562C20.2514 24.6641 20.0004 25.3209 20.0003 25.9775C20.0003 25.9856 20.0012 25.9938 20.0013 26.002H25.9994C25.9995 25.9938 26.0003 25.9856 26.0003 25.9775C26.0003 25.3122 25.7429 24.6649 25.2679 24.1553Z" fill="#B2B8BF"/>
<path fill-rule="evenodd" clip-rule="evenodd" d="M23.0003 16C24.657 16.0002 26.0003 17.3433 26.0003 19C26.0003 20.6567 24.657 21.9998 23.0003 22C21.3435 22 20.0003 20.6569 20.0003 19C20.0003 17.3431 21.3435 16 23.0003 16ZM23.0003 18C22.4481 18 22.0003 18.4477 22.0003 19C22.0003 19.5523 22.4481 20 23.0003 20C23.5525 19.9998 24.0003 19.5522 24.0003 19C24.0003 18.4478 23.5525 18.0002 23.0003 18Z" fill="#B2B8BF"/>
<path d="M16.3353 3.00391C23.36 3.18182 29.0003 8.93245 29.0003 16C29.0003 16.5521 28.5524 16.9997 28.0003 17C27.4481 17 27.0003 16.5523 27.0003 16C27.0003 10.115 22.3784 5.30968 16.5668 5.01465L16.0003 5L15.8978 4.99512C15.3936 4.94384 15.0003 4.51772 15.0003 4C15.0003 3.44772 15.4481 3 16.0003 3L16.3353 3.00391Z" fill="#B2B8BF"/>
<path fill-rule="evenodd" clip-rule="evenodd" d="M6.82066 10.2568C7.32516 9.90869 7.9869 9.92216 8.47691 10.2529L8.57945 10.3281L8.5814 10.3301L8.73472 10.4453C9.10344 10.6986 9.53817 10.8418 9.96617 10.8418C10.4872 10.8416 10.9868 10.659 11.3705 10.3389C11.8852 9.90893 12.6094 9.89832 13.1341 10.2529L13.2367 10.3291L13.2376 10.3301L13.4398 10.5039C14.426 11.3994 15.0003 12.6492 15.0003 13.9775C15.0003 14.2625 14.9731 14.5509 14.9193 14.835C14.7846 15.5486 14.1515 16.0016 13.4916 16.002H6.50913C5.84747 16.0018 5.21625 15.5472 5.0814 14.835C5.02821 14.5525 5.00035 14.2635 5.00035 13.9775C5.00037 12.5935 5.62774 11.2459 6.71421 10.3379L6.71519 10.3369L6.82066 10.2568ZM12.2679 12.1553C11.5907 12.5987 10.7899 12.8417 9.96617 12.8418C9.1438 12.8418 8.36022 12.5813 7.70347 12.1562C7.25141 12.6641 7.00037 13.3209 7.00035 13.9775C7.00035 13.9856 7.00124 13.9938 7.00132 14.002H12.9994C12.9994 13.9938 13.0003 13.9856 13.0003 13.9775C13.0003 13.3122 12.7429 12.6649 12.2679 12.1553Z" fill="#B2B8BF"/>
<path fill-rule="evenodd" clip-rule="evenodd" d="M10.0003 4C11.657 4.00019 13.0003 5.34326 13.0003 7C13.0003 8.65674 11.657 9.99981 10.0003 10C8.34349 10 7.00035 8.65685 7.00035 7C7.00035 5.34315 8.34349 4 10.0003 4ZM10.0003 6C9.44806 6 9.00035 6.44772 9.00035 7C9.00035 7.55228 9.44806 8 10.0003 8C10.5525 7.99981 11.0003 7.55217 11.0003 7C11.0003 6.44783 10.5525 6.00019 10.0003 6Z" fill="#B2B8BF"/>
</svg>
