<svg width="32" height="32" viewBox="0 0 32 32" fill="none" xmlns="http://www.w3.org/2000/svg">
<path d="M7 7.81818C7 7.35681 7.36762 7 7.8 7H14C14.5523 7 15 6.55228 15 6C15 5.44772 14.5523 5 14 5H7.8C6.24415 5 5 6.27124 5 7.81818V24.1818C5 25.7288 6.24415 27 7.8 27H22.2C23.7558 27 25 25.7288 25 24.1818V20.5C25 19.9477 24.5523 19.5 24 19.5C23.4477 19.5 23 19.9477 23 20.5V24.1818C23 24.6432 22.6324 25 22.2 25H7.8C7.36762 25 7 24.6432 7 24.1818V7.81818Z" fill="#107F8C"/>
<path d="M11 10C10.4477 10 10 10.4477 10 11C10 11.5523 10.4477 12 11 12H14C14.5523 12 15 11.5523 15 11C15 10.4477 14.5523 10 14 10H11Z" fill="#107F8C"/>
<path d="M10 16C10 15.4477 10.4477 15 11 15H14C14.5523 15 15 15.4477 15 16C15 16.5523 14.5523 17 14 17H11C10.4477 17 10 16.5523 10 16Z" fill="#107F8C"/>
<path d="M11 20C10.4477 20 10 20.4477 10 21C10 21.5523 10.4477 22 11 22H16C16.5523 22 17 21.5523 17 21C17 20.4477 16.5523 20 16 20H11Z" fill="#107F8C"/>
<path fill-rule="evenodd" clip-rule="evenodd" d="M21.499 4C18.4655 4 15.999 6.4663 15.999 9.49991C15.999 12.5337 18.4655 15 21.499 15C22.9301 15 24.2349 14.4511 25.2142 13.5528L27.3744 15.2809C27.8056 15.6259 28.4349 15.556 28.7799 15.1247C29.1249 14.6935 29.055 14.0642 28.6238 13.7192L26.4199 11.9561C26.7904 11.2165 26.999 10.3822 26.999 9.49991C26.999 6.4663 24.5325 4 21.499 4ZM17.999 9.49991C17.999 7.57093 19.57 6 21.499 6C23.428 6 24.999 7.57093 24.999 9.49991C24.999 11.4291 23.428 13 21.499 13C19.5701 13 17.999 11.4291 17.999 9.49991Z" fill="#107F8C"/>
</svg>
