<svg width="20" height="20" viewBox="0 0 20 20" fill="none" xmlns="http://www.w3.org/2000/svg">
<path d="M7.5813 1.18634C8.03072 1.50735 8.13481 2.1319 7.8138 2.58131L6.08608 5.00011H13.9139L12.1862 2.58131C11.8652 2.1319 11.9693 1.50735 12.4187 1.18634C12.8681 0.865334 13.4926 0.969425 13.8136 1.41884L16.3136 4.91883C16.3326 4.94535 16.35 4.97248 16.366 5.00011H19C19.3161 5.00011 19.6136 5.14957 19.8023 5.40318C19.991 5.65679 20.0486 5.98469 19.9578 6.28746L19.2078 8.78746C19.0491 9.31645 18.4916 9.61663 17.9626 9.45793C17.4336 9.29924 17.1335 8.74175 17.2922 8.21276L17.656 7.00011H2.34404L4.74403 15.0001H8.99999C9.55228 15.0001 9.99999 15.4478 9.99999 16.0001C9.99999 16.5524 9.55228 17.0001 8.99999 17.0001H4C3.55839 17.0001 3.16907 16.7104 3.04218 16.2874L0.042182 6.28746C-0.0486502 5.98469 0.0090221 5.65679 0.197715 5.40318C0.386408 5.14957 0.683901 5.00011 1.00001 5.00011H3.63394C3.64994 4.97248 3.6674 4.94535 3.68634 4.91883L6.18633 1.41884C6.50734 0.969425 7.13189 0.865334 7.5813 1.18634Z" fill="#B2B8BF"/>
<path d="M13 11C12.4477 11 12 11.4477 12 12V17C12 17.5523 12.4477 18 13 18C13.5523 18 14 17.5523 14 17V14.4142L18.2929 18.7071C18.6834 19.0976 19.3166 19.0976 19.7071 18.7071C20.0976 18.3166 20.0976 17.6834 19.7071 17.2929L15.4142 13H18C18.5523 13 19 12.5523 19 12C19 11.4477 18.5523 11 18 11H13Z" fill="#B2B8BF"/>
</svg>
