<svg width="20" height="20" viewBox="0 0 20 20" fill="none" xmlns="http://www.w3.org/2000/svg">
<path fill-rule="evenodd" clip-rule="evenodd" d="M0 10C0 4.47715 4.47715 0 10 0C12.6522 0 15.1957 1.05357 17.0711 2.92893C18.9464 4.8043 20 7.34784 20 10C20 15.5228 15.5228 20 10 20C4.47715 20 0 15.5228 0 10ZM2 10C2 14.4183 5.58172 18 10 18C12.1217 18 14.1566 17.1571 15.6569 15.6569C17.1571 14.1566 18 12.1217 18 10C18 5.58172 14.4183 2 10 2C5.58172 2 2 5.58172 2 10Z" fill="#21A19A"/>
<path d="M7.39998 6.5C7.93622 5.5712 8.9275 4.99931 9.99998 5C11.452 5.01127 12.6875 6.06081 12.9334 7.49189C13.1793 8.92297 12.365 10.3247 11 10.82V11C11 11.5523 10.5523 12 9.99998 12C9.4477 12 8.99998 11.5523 8.99998 11V10C8.99998 9.44772 9.4477 9 9.99998 9C10.5523 9 11 8.55229 11 8C11 7.44772 10.5523 7 9.99998 7C9.6413 6.99858 9.30932 7.18937 9.12998 7.5C8.95972 7.82548 8.62472 8.03141 8.25743 8.03639C7.89014 8.04136 7.54969 7.84457 7.37068 7.52381C7.19167 7.20306 7.20292 6.80999 7.39998 6.5Z" fill="#21A19A"/>
<path d="M9.17004 13.4399C9.20696 13.3876 9.24703 13.3375 9.29004 13.2899C9.47781 13.1006 9.7334 12.9941 10 12.9941C10.2667 12.9941 10.5223 13.1006 10.71 13.2899C10.8972 13.4787 11.0016 13.7341 11 13.9999C11.0048 14.1293 10.9844 14.2584 10.94 14.3799C10.8491 14.6312 10.6513 14.829 10.4 14.9199C10.158 15.0269 9.88208 15.0269 9.64004 14.9199C9.38881 14.829 9.19096 14.6312 9.10004 14.3799C9.04406 14.2613 9.01666 14.1311 9.02004 13.9999C9.01513 13.9334 9.01513 13.8665 9.02004 13.7999C9.03098 13.7373 9.05121 13.6766 9.08004 13.6199C9.10193 13.5562 9.13219 13.4957 9.17004 13.4399Z" fill="#21A19A"/>
</svg>
