<svg width="32" height="32" viewBox="0 0 32 32" fill="none" xmlns="http://www.w3.org/2000/svg">
<path fill-rule="evenodd" clip-rule="evenodd" d="M16.3542 11.5182C15.8138 10.3736 14.1859 10.3745 13.6461 11.5187C13.2303 12.4001 12.8286 13.2802 12.5301 14.0604C12.2456 14.8041 12 15.591 12 16.2381C12 18.07 13.4748 19.3333 15 19.3333C16.5252 19.3333 18 18.07 18 16.2381C18 15.5913 17.7548 14.8045 17.4705 14.0605C17.1722 13.2802 16.7705 12.3999 16.3542 11.5182ZM14.3981 14.775C14.5642 14.3407 14.77 13.8618 15.0004 13.3528C15.2307 13.8617 15.4363 14.3405 15.6023 14.7746C15.8853 15.5151 16 15.9955 16 16.2381C16 16.9205 15.466 17.3333 15 17.3333C14.534 17.3333 14 16.9205 14 16.2381C14 15.9957 14.1148 15.5156 14.3981 14.775Z" fill="#B2B8BF"/>
<path fill-rule="evenodd" clip-rule="evenodd" d="M8 7C8 5.34314 9.34315 4 11 4H19C20.6569 4 22 5.34315 22 7V8.57309C22.1161 8.52596 22.243 8.5 22.376 8.5C22.9283 8.5 23.376 8.94772 23.376 9.5V10.0573C24.6845 10.3935 25.5993 11.6606 26.1122 12.9289C26.6778 14.3278 26.914 16.0829 26.6077 17.7571C26.3279 19.2861 25.6016 20.7149 24.7034 21.7916C24.3495 22.2157 23.7189 22.2726 23.2949 21.9188C22.8708 21.565 22.8138 20.9344 23.1676 20.5104C23.8641 19.6755 24.4278 18.5589 24.6404 17.3971C24.874 16.1204 24.691 14.7494 24.258 13.6786C23.9868 13.0079 23.6678 12.5633 23.376 12.2971V12.5C23.376 13.0523 22.9283 13.5 22.376 13.5C22.243 13.5 22.1161 13.474 22 13.4269V26H23C23.5523 26 24 26.4477 24 27C24 27.5523 23.5523 28 23 28H7C6.44772 28 6 27.5523 6 27C6 26.4477 6.44772 26 7 26H8V7ZM20 7V26H10V7C10 6.44772 10.4477 6 11 6H19C19.5523 6 20 6.44772 20 7Z" fill="#B2B8BF"/>
</svg>
