<svg width="20" height="20" viewBox="0 0 20 20" fill="none" xmlns="http://www.w3.org/2000/svg">
<path fill-rule="evenodd" clip-rule="evenodd" d="M13 11C12.4477 11 12 11.4477 12 12C12 12.5523 12.4477 13 13 13C13.5523 13 14 12.5523 14 12C14 11.4477 13.5523 11 13 11ZM10 12C10 10.3431 11.3431 9 13 9C14.6569 9 16 10.3431 16 12C16 13.6569 14.6569 15 13 15C11.3431 15 10 13.6569 10 12Z" fill="#B2B8BF"/>
<path d="M12.6061 2.11396C13.084 1.90913 13.6092 2.10455 13.8592 2.51768C14.1451 2.99018 14.76 3.14142 15.2325 2.85548C15.705 2.56954 15.8562 1.9547 15.5703 1.4822C14.8382 0.272494 13.2724 -0.347525 11.8182 0.275665L1.81824 4.56138C0.715191 5.03411 0 6.11873 0 7.31881C0 7.34935 0.00136875 7.37957 0.00404823 7.40941C0.00136875 7.43925 0 7.46946 0 7.5V16C0 17.6569 1.34315 19 3 19H17C18.6569 19 20 17.6569 20 16V8C20 6.34315 18.6569 5 17 5H11.5C10.9477 5 10.5 5.44772 10.5 6C10.5 6.55228 10.9477 7 11.5 7H17C17.5523 7 18 7.44771 18 8V16C18 16.5523 17.5523 17 17 17H3C2.44772 17 2 16.5523 2 16V7.5C2 7.46946 1.99863 7.43925 1.99595 7.40941C1.99863 7.37957 2 7.34935 2 7.31881C2 6.91879 2.2384 6.55725 2.60608 6.39967L12.6061 2.11396Z" fill="#B2B8BF"/>
</svg>
