<svg width="20" height="20" viewBox="0 0 20 20" fill="none" xmlns="http://www.w3.org/2000/svg">
<path fill-rule="evenodd" clip-rule="evenodd" d="M12.8174 11.0058L13.0654 11.0312C13.6353 11.1143 14.1399 11.3661 14.5098 11.8027C14.9148 12.281 15.0677 12.8737 15.0889 13.4287C15.1304 14.519 14.6824 15.7656 13.9941 16.83C13.7454 17.2146 13.453 17.5907 13.124 17.9433C13.4018 18.0139 13.732 18.0177 14.1309 17.9228L14.1699 17.9072C14.1971 17.8943 14.2338 17.8741 14.2793 17.8437C14.3726 17.7813 14.4818 17.6914 14.6045 17.5742C14.8575 17.3324 15.0877 17.0551 15.3193 16.788C15.4197 16.6723 15.5479 16.5266 15.6699 16.415C15.725 16.3646 15.8365 16.2662 15.9854 16.1904C16.0898 16.1372 16.5652 15.9178 17.0547 16.2421C17.4805 16.5244 17.5191 16.976 17.5264 17.0576C17.5398 17.2079 17.5252 17.3483 17.5117 17.4443C17.4989 17.5356 17.4776 17.6372 17.4531 17.748C17.7056 17.6008 18.0095 17.389 18.3564 17.0976C18.7793 16.7424 19.4104 16.7978 19.7656 17.2206C20.1208 17.6435 20.0664 18.2746 19.6436 18.6298C19.1443 19.0492 18.6652 19.3791 18.2217 19.6093C17.7962 19.8302 17.3227 20.0014 16.8545 19.9999C16.3944 19.9984 15.8955 19.8167 15.5859 19.3642C15.3632 19.5353 15.1025 19.7004 14.8105 19.8046L14.5947 19.8681C13.333 20.1684 12.2435 19.9176 11.4033 19.2988C11.2685 19.3724 11.1312 19.4427 10.9902 19.5058C9.76319 20.0553 8.33227 20.1711 6.85645 19.5468L6.56055 19.4121L6.4707 19.3622C6.04043 19.0947 5.87422 18.5392 6.10156 18.0742C6.32912 17.6089 6.87009 17.3992 7.3457 17.5751L7.43945 17.6152L7.62695 17.7011C8.53417 18.0873 9.3674 18.0233 10.1143 17.704C9.83809 17.1341 9.66726 16.5158 9.58691 15.914C9.44107 14.8214 9.57099 13.6383 10.0479 12.6962C10.5424 11.7193 11.4738 10.9251 12.8174 11.0058ZM12.5713 13.0029C12.2824 13.0244 12.0386 13.1915 11.832 13.5996C11.5783 14.1008 11.4636 14.8575 11.5693 15.6494C11.6081 15.9394 11.6743 16.2143 11.7627 16.4667C11.9634 16.2402 12.1499 15.9985 12.3145 15.7441C12.8655 14.892 13.1116 14.0501 13.0908 13.5048C13.0808 13.2421 13.0133 13.13 12.9834 13.0947C12.9704 13.0793 12.9168 13.0151 12.6973 13.0019L12.5713 13.0029Z" fill="#B2B8BF"/>
<path d="M6.10254 12.0048C6.60667 12.0562 7 12.4823 7 12.9999C7 13.5176 6.60667 13.9437 6.10254 13.9951L6 13.9999H1C0.447715 13.9999 0 13.5522 0 12.9999C0 12.4477 0.447715 11.9999 1 11.9999H6L6.10254 12.0048Z" fill="#B2B8BF"/>
<path d="M3 4.99994C3.55228 4.99994 4 5.44766 4 5.99994V9.73041L3.99512 9.83295C3.94377 10.3371 3.51767 10.7304 3 10.7304C2.48233 10.7304 2.05623 10.3371 2.00488 9.83295L2 9.73041V5.99994C2 5.44766 2.44772 4.99994 3 4.99994Z" fill="#B2B8BF"/>
<path d="M7 4.99994C7.55228 4.99994 8 5.44766 8 5.99994V9.73041L7.99512 9.83295C7.94377 10.3371 7.51767 10.7304 7 10.7304C6.48233 10.7304 6.05623 10.3371 6.00488 9.83295L6 9.73041V5.99994C6 5.44766 6.44772 4.99994 7 4.99994Z" fill="#B2B8BF"/>
<path d="M11 4.99994C11.5523 4.99994 12 5.44766 12 5.99994V6.99994L11.9951 7.10248C11.9438 7.60661 11.5177 7.99994 11 7.99994C10.4823 7.99994 10.0562 7.60661 10.0049 7.10248L10 6.99994V5.99994C10 5.44766 10.4477 4.99994 11 4.99994Z" fill="#B2B8BF"/>
<path d="M6.74023 0.0341209C6.93884 -0.0192989 7.15029 -0.009851 7.34473 0.0614646L13.3447 2.26166L13.4385 2.3017C13.8943 2.52337 14.1168 3.05872 13.9385 3.54486C13.7601 4.03111 13.2441 4.29571 12.7529 4.16986L12.6553 4.13959L7 2.06439L1.34473 4.13959L1.24707 4.16986C0.755884 4.29571 0.239874 4.03111 0.0615234 3.54486C-0.128608 3.02645 0.136954 2.45194 0.655273 2.26166L6.65527 0.0614646L6.74023 0.0341209Z" fill="#B2B8BF"/>
</svg>
