<svg width="32" height="32" viewBox="0 0 32 32" fill="none" xmlns="http://www.w3.org/2000/svg">
<path d="M16.2792 3.03976C16.1008 2.98791 15.9116 2.98675 15.7326 3.03642L4.7326 6.08902C4.29966 6.20916 4 6.6033 4 7.0526V14.0243L4.00007 14.0366C4.01173 17.0886 5.48207 20.1102 7.59933 22.6745C9.73383 25.2597 12.6 27.4737 15.5664 28.9011C15.8404 29.033 16.1596 29.033 16.4336 28.9011C21.1611 26.6263 25.7149 22.6505 27.3074 17.7967C27.4796 17.2719 27.1938 16.707 26.669 16.5348C26.1442 16.3626 25.5793 16.6485 25.4071 17.1732C24.0918 21.1821 20.2822 24.7168 16.0011 26.8843C13.4427 25.576 10.9838 23.6323 9.14157 21.4011C7.18698 19.0338 6 16.4356 6 14V7.81288L15.9936 5.03956L23.5998 7.25092C24.1301 7.40511 24.685 7.10018 24.8392 6.56986C24.9934 6.03953 24.6884 5.48463 24.1581 5.33044L16.2792 3.03976Z" fill="#21A19A"/>
<path d="M27.1844 10.5648C27.6171 10.2216 27.6897 9.59262 27.3465 9.1599C27.0033 8.72718 26.3743 8.6546 25.9416 8.99779L15.9751 16.9021L11.306 13.4908C10.8601 13.165 10.2345 13.2624 9.90865 13.7084C9.58284 14.1543 9.68023 14.7799 10.1262 15.1057L15.4101 18.9662C15.7733 19.2315 16.2689 19.2217 16.6214 18.9422L27.1844 10.5648Z" fill="#21A19A"/>
</svg>
