<svg width="32" height="32" viewBox="0 0 32 32" fill="none" xmlns="http://www.w3.org/2000/svg">
<path fill-rule="evenodd" clip-rule="evenodd" d="M23.2 13.08C23.16 12.99 23.14 12.89 23.13 12.79C23.01 12.04 22.9 11.49 22.8 11.15C22.7 10.84 22.59 10.63 22.46 10.5C22.33 10.38 22.12 10.27 21.83 10.18C21.5 10.08 20.96 9.97 20.22 9.87C20.11 9.85 20.01 9.83 19.91 9.79C19.86 9.77 19.81 9.75 19.77 9.73C19.68 9.69 19.59 9.64 19.52 9.58C19.46 9.53 19.41 9.48 19.36 9.43C19.3 9.36 19.25 9.3 19.2 9.23C19.16 9.15 19.12 9.07 19.09 8.99C19.06 8.93 19.04 8.86 19.03 8.79C19.01 8.69 19 8.59 19 8.49C19 8.39 19.01 8.29 19.03 8.2C19.04 8.12 19.06 8.05 19.09 7.98C19.12 7.91 19.16 7.84 19.2 7.77C19.25 7.69 19.3 7.62 19.37 7.55C19.46 7.46 19.55 7.38 19.66 7.32C19.82 7.22 20 7.16 20.2 7.13C20.95 7.02 21.49 6.92 21.82 6.82C22.11 6.74 22.31 6.63 22.43 6.5C22.56 6.37 22.67 6.15 22.77 5.83C22.88 5.5 23 4.95 23.13 4.17C23.16 4 23.22 3.84 23.3 3.7C23.37 3.57 23.46 3.46 23.57 3.36C23.64 3.29 23.71 3.24 23.78 3.19C23.85 3.15 23.92 3.12 23.99 3.09C24.06 3.06 24.14 3.04 24.21 3.02C24.3 3 24.4 3 24.5 3C24.6 3 24.7 3.01 24.8 3.03C24.87 3.04 24.93 3.06 25 3.09C25.08 3.12 25.15 3.16 25.23 3.2C25.3 3.25 25.36 3.3 25.43 3.36C25.48 3.41 25.53 3.46 25.57 3.51C25.63 3.59 25.68 3.67 25.73 3.75C25.75 3.81 25.77 3.86 25.79 3.91C25.83 4 25.85 4.1 25.86 4.2C25.98 4.96 26.09 5.5 26.19 5.85C26.29 6.16 26.4 6.37 26.53 6.5C26.66 6.63 26.87 6.74 27.16 6.83C27.49 6.93 28.03 7.02 28.77 7.12C29.01 7.16 29.22 7.24 29.41 7.37C29.48 7.42 29.56 7.48 29.62 7.55C29.69 7.62 29.74 7.69 29.79 7.77C29.83 7.84 29.87 7.91 29.9 7.98C29.93 8.05 29.95 8.12 29.96 8.2C29.98 8.29 30 8.39 30 8.49C30 8.59 29.98 8.69 29.96 8.79C29.95 8.86 29.93 8.93 29.9 8.99C29.87 9.07 29.83 9.15 29.79 9.23C29.74 9.3 29.69 9.36 29.63 9.43C29.58 9.48 29.53 9.53 29.47 9.58C29.4 9.64 29.31 9.69 29.22 9.73C29.18 9.75 29.13 9.77 29.08 9.79C28.98 9.83 28.87 9.86 28.75 9.87C28.03 9.97 27.5 10.07 27.17 10.17C26.89 10.25 26.69 10.36 26.56 10.49C26.44 10.62 26.32 10.84 26.22 11.16C26.12 11.49 26 12.05 25.86 12.83C25.83 13.01 25.77 13.17 25.69 13.31C25.62 13.43 25.53 13.54 25.42 13.64C25.36 13.69 25.29 13.75 25.22 13.79C25.15 13.83 25.07 13.87 25 13.9C24.93 13.92 24.87 13.94 24.81 13.96C24.71 13.98 24.6 14 24.5 14C24.39 14 24.29 13.98 24.19 13.96C24.12 13.95 24.06 13.93 24 13.9C23.91 13.87 23.84 13.83 23.76 13.79C23.69 13.74 23.63 13.69 23.56 13.63C23.51 13.58 23.46 13.53 23.42 13.48C23.36 13.4 23.31 13.32 23.26 13.24C23.24 13.18 23.22 13.13 23.2 13.08ZM11.62 27.33C11.7 27.89 11.89 28.31 12.21 28.59C12.52 28.86 12.95 29 13.5 29C14.01 29 14.41 28.87 14.72 28.62C15.05 28.35 15.26 27.94 15.36 27.39C15.96 24.04 16.63 21.98 17.37 21.22C18.14 20.41 20.11 19.8 23.27 19.38C23.86 19.31 24.3 19.11 24.59 18.78C24.86 18.47 25 18.03 25 17.49C25 17 24.88 16.6 24.64 16.3C24.35 15.94 23.9 15.71 23.28 15.61C20.09 15.19 18.09 14.58 17.3 13.79C16.51 12.99 15.86 10.95 15.37 7.66C15.29 7.1 15.1 6.68 14.78 6.4C14.47 6.13 14.04 6 13.5 6C12.99 6 12.58 6.12 12.27 6.37C11.94 6.64 11.72 7.06 11.63 7.63C11.05 10.96 10.39 13.01 9.64 13.78C8.86 14.58 6.87 15.19 3.68 15.62C3.08 15.71 2.64 15.93 2.36 16.28C2.12 16.58 2 16.99 2 17.49C2 18.03 2.13 18.47 2.4 18.78C2.69 19.11 3.12 19.31 3.71 19.38C6.92 19.84 8.91 20.45 9.69 21.23C10.49 22.02 11.13 24.06 11.62 27.33ZM24.64 9.78C24.59 9.86 24.55 9.95 24.51 10.04C24.34 9.66 24.13 9.34 23.87 9.08C23.64 8.85 23.36 8.66 23.02 8.5C23.35 8.33 23.63 8.14 23.86 7.9C24.05 7.7 24.22 7.48 24.36 7.22C24.4 7.14 24.44 7.06 24.48 6.97C24.65 7.35 24.86 7.66 25.12 7.92C25.35 8.15 25.63 8.34 25.96 8.5C25.63 8.66 25.35 8.86 25.13 9.1C24.94 9.29 24.77 9.52 24.64 9.78ZM13.51 26.42C14.16 23.02 14.96 20.83 15.93 19.83C16.95 18.77 19.08 17.99 22.31 17.5C19.07 17.01 16.92 16.25 15.89 15.2C14.85 14.16 14.05 11.96 13.49 8.59C12.86 11.97 12.05 14.17 11.07 15.17C10.04 16.23 7.9 17.01 4.65 17.5C7.93 18.02 10.08 18.79 11.1 19.81C12.15 20.85 12.95 23.06 13.51 26.42Z" fill="url(#paint0_linear_52385_262)"/>
<defs>
<linearGradient id="paint0_linear_52385_262" x1="16" y1="29" x2="16" y2="3" gradientUnits="userSpaceOnUse">
<stop offset="2.71511e-08" stop-color="#9A41D9"/>
<stop offset="1" stop-color="#5F41D9"/>
</linearGradient>
</defs>
</svg>
