<svg width="32" height="32" viewBox="0 0 32 32" fill="none" xmlns="http://www.w3.org/2000/svg">
<path d="M25 4C26.6569 4 28 5.34315 28 7V14C28 14.5523 27.5523 15 27 15C26.4477 15 26 14.5523 26 14V7C26 6.44772 25.5523 6 25 6H7C6.44772 6 6 6.44771 6 7V19C6 19.5523 6.44772 20 7 20H14.3077C14.86 20 15.3077 20.4477 15.3077 21C15.3077 21.5523 14.86 22 14.3077 22H7C5.34315 22 4 20.6569 4 19V7C4 5.34315 5.34315 4 7 4H25Z" fill="#21A19A"/>
<path d="M10 12C9.44772 12 9 11.5523 9 11C9 10.4477 9.44772 10 10 10H22C22.5523 10 23 10.4477 23 11C23 11.5523 22.5523 12 22 12H10Z" fill="#21A19A"/>
<path fill-rule="evenodd" clip-rule="evenodd" d="M23.1337 16.3539C23.3294 16.2922 23.5393 16.2922 23.735 16.3539L28.1694 17.7518C28.5857 17.883 28.8687 18.2691 28.8687 18.7055V21.4212C28.8687 24.1181 27.5533 26.6473 25.3484 28.1873C25.3481 28.1875 25.3478 28.1877 25.3475 28.1879L24.0083 29.1265C23.6638 29.368 23.205 29.368 22.8604 29.1265L21.5198 28.1869L21.518 28.1857C19.317 26.6358 18 24.1086 18 21.4212V18.7055C18 18.2691 18.2831 17.883 18.6993 17.7518L23.1337 16.3539ZM20 19.4388V21.4212C20 23.4541 20.9973 25.3724 22.6685 26.5497C22.6688 26.5499 22.6692 26.5502 22.6695 26.5504L23.4344 27.0865L24.2011 26.5491L24.2025 26.5481C25.87 25.3838 26.8687 23.4676 26.8687 21.4212V19.4388L23.4344 18.3561L20 19.4388Z" fill="#21A19A"/>
</svg>
