<svg width="20" height="20" viewBox="0 0 20 20" fill="none" xmlns="http://www.w3.org/2000/svg">
<path d="M11 5C10.4477 5 10 5.44772 10 6C10 6.55228 10.4477 7 11 7H13C13.5523 7 14 6.55228 14 6C14 5.44772 13.5523 5 13 5H11Z" fill="#21A19A"/>
<path d="M10 10C10 9.44771 10.4477 9 11 9H13C13.5523 9 14 9.44771 14 10C14 10.5523 13.5523 11 13 11H11C10.4477 11 10 10.5523 10 10Z" fill="#21A19A"/>
<path d="M11 13C10.4477 13 10 13.4477 10 14C10 14.5523 10.4477 15 11 15H13C13.5523 15 14 14.5523 14 14C14 13.4477 13.5523 13 13 13H11Z" fill="#21A19A"/>
<path fill-rule="evenodd" clip-rule="evenodd" d="M9 0C7.34315 0 6 1.34315 6 3V5H5C3.34315 5 2 6.34315 2 8V18H1C0.447715 18 0 18.4477 0 19C0 19.5523 0.447715 20 1 20L19 20C19.5523 20 20 19.5523 20 19C20 18.4477 19.5523 18 19 18H18V3C18 1.34315 16.6569 0 15 0H9ZM6 7V18H4V8C4 7.44772 4.44772 7 5 7H6ZM16 18L8 18V3C8 2.44772 8.44772 2 9 2H15C15.5523 2 16 2.44772 16 3V18Z" fill="#21A19A"/>
</svg>
