<svg width="32" height="32" viewBox="0 0 32 32" fill="none" xmlns="http://www.w3.org/2000/svg">
<path fill-rule="evenodd" clip-rule="evenodd" d="M14.7336 4.74408C15.4703 4.1413 16.5298 4.1413 17.2665 4.74408L21.1383 7.91189L21.1383 5.34375C21.1383 4.79147 21.586 4.34375 22.1383 4.34375C22.6906 4.34375 23.1383 4.79146 23.1383 5.34375L23.1383 9.54826L27.6333 13.226C28.0607 13.5757 28.1237 14.2057 27.774 14.6332C27.4243 15.0606 26.7942 15.1236 26.3668 14.7739L16 6.29199L5.63327 14.7739C5.20582 15.1236 4.5758 15.0606 4.22607 14.6332C3.87635 14.2057 3.93935 13.5757 4.36679 13.226L14.7336 4.74408ZM7.00003 17C7.55232 17 8.00003 17.4477 8.00003 18V24C8.00003 24.5523 8.44775 25 9.00003 25H23C23.5523 25 24 24.5523 24 24V18C24 17.4477 24.4477 17 25 17C25.5523 17 26 17.4477 26 18V24C26 25.6569 24.6569 27 23 27H9.00003C7.34318 27 6.00003 25.6569 6.00003 24V18C6.00003 17.4477 6.44775 17 7.00003 17ZM21.6323 14.6403C22.0636 14.2953 22.1335 13.666 21.7885 13.2347C21.4435 12.8035 20.8142 12.7335 20.3829 13.0785L15.9989 16.5858L14.6216 15.5145C14.1856 15.1754 13.5574 15.254 13.2183 15.6899C12.8792 16.1259 12.9578 16.7541 13.3937 17.0932L15.3937 18.6488C15.7588 18.9328 16.2711 18.9293 16.6323 18.6403L21.6323 14.6403ZM16.0077 12.6094C13.5224 12.6094 11.5077 14.6241 11.5077 17.1094C11.5077 19.5947 13.5224 21.6094 16.0077 21.6094C18.379 21.6094 20.3226 19.7746 20.4952 17.4479C20.536 16.8972 21.0156 16.4838 21.5664 16.5246C22.1171 16.5655 22.5305 17.045 22.4897 17.5958C22.2403 20.959 19.434 23.6094 16.0077 23.6094C12.4178 23.6094 9.50766 20.6992 9.50766 17.1094C9.50766 13.5195 12.4178 10.6094 16.0077 10.6094C16.8397 10.6094 17.6375 10.7662 18.3714 11.0528C18.8859 11.2537 19.1401 11.8336 18.9391 12.3481C18.7382 12.8625 18.1583 13.1167 17.6439 12.9158C17.1381 12.7183 16.5868 12.6094 16.0077 12.6094Z" fill="#21A19A"/>
</svg>
