<svg width="20" height="20" viewBox="0 0 20 20" fill="none" xmlns="http://www.w3.org/2000/svg">
<path d="M6.17141 6.17235C6.56193 5.78182 6.56193 5.14866 6.17141 4.75813C5.78089 4.36761 5.14772 4.36761 4.7572 4.75813C4.36667 5.14866 4.36667 5.78182 4.7572 6.17235C5.14772 6.56287 5.78089 6.56287 6.17141 6.17235Z" fill="#21A19A"/>
<path fill-rule="evenodd" clip-rule="evenodd" d="M0.655985 8.01075C0.566958 8.63394 0.776536 9.26267 1.22167 9.70781L10.4143 18.9004C11.1953 19.6815 12.4617 19.6815 13.2427 18.9004L18.8996 13.2436C19.6806 12.4625 19.6806 11.1962 18.8996 10.4151L9.70695 1.22252C9.26182 0.777391 8.63308 0.567813 8.0099 0.65684L3.06015 1.36395C2.18019 1.48965 1.4888 2.18105 1.36309 3.061L0.655985 8.01075ZM2.63588 8.29359L3.34299 3.34385L8.29274 2.63674L17.4854 11.8294L11.8285 17.4862L2.63588 8.29359Z" fill="#21A19A"/>
</svg>
