<svg width="20" height="20" viewBox="0 0 20 20" fill="none" xmlns="http://www.w3.org/2000/svg">
<path fill-rule="evenodd" clip-rule="evenodd" d="M1 16C1 15.4477 1.44772 15 2 15H18C18.5523 15 19 15.4477 19 16C19 16.5523 18.5523 17 18 17H2C1.44772 17 1 16.5523 1 16Z" fill="#B2B8BF"/>
<path fill-rule="evenodd" clip-rule="evenodd" d="M12.2984 4.21187C11.9154 3.89048 11.3444 3.94044 11.023 4.32345L5.51184 10.8914C5.22529 11.2329 5.23356 11.7259 5.51169 12.0556C5.8678 12.4777 5.81428 13.1086 5.39215 13.4647C4.97001 13.8208 4.33911 13.7673 3.98299 13.3452C3.08849 12.2848 3.05739 10.7051 3.97975 9.60585L9.49093 3.03788C10.5223 1.80872 12.3549 1.64839 13.584 2.67978L17.2329 5.74155C18.4621 6.77294 18.6224 8.60547 17.591 9.83464L14.647 13.3432C14.292 13.7662 13.6612 13.8214 13.2382 13.4664C12.8151 13.1114 12.7599 12.4807 13.1149 12.0576L16.0589 8.54906C16.3803 8.16605 16.3303 7.59502 15.9473 7.27364L12.2984 4.21187Z" fill="#B2B8BF"/>
</svg>
