<svg width="20" height="20" viewBox="0 0 20 20" fill="none" xmlns="http://www.w3.org/2000/svg">
<path fill-rule="evenodd" clip-rule="evenodd" d="M1 3C1 1.34315 2.34315 0 4 0H16C17.6569 0 19 1.34315 19 3V12C19 13.6569 17.6569 15 16 15H4C2.34315 15 1 13.6569 1 12V3ZM4 2C3.44772 2 3 2.44772 3 3V12C3 12.5523 3.44772 13 4 13H16C16.5523 13 17 12.5523 17 12V3C17 2.44772 16.5523 2 16 2H4Z" fill="#B2B8BF"/>
<path fill-rule="evenodd" clip-rule="evenodd" d="M7 5C7 5.55228 6.55228 6 6 6C5.44772 6 5 5.55228 5 5C5 4.44772 5.44772 4 6 4C6.55228 4 7 4.44772 7 5ZM3 18C3 17.4477 3.44772 17 4 17H16C16.5523 17 17 17.4477 17 18C17 18.5523 16.5523 19 16 19H4C3.44772 19 3 18.5523 3 18ZM10.1247 7.21913C9.74954 6.91901 9.21398 6.92808 8.84921 7.24074L5.34921 10.2407C4.92988 10.6002 4.88132 11.2315 5.24074 11.6508C5.60017 12.0701 6.23147 12.1187 6.65079 11.7593L9.522 9.29822L11.3753 10.7809C11.7732 11.0992 12.3468 11.0674 12.7071 10.7071L14.7071 8.70711C15.0976 8.31658 15.0976 7.68342 14.7071 7.29289C14.3166 6.90237 13.6834 6.90237 13.2929 7.29289L11.9258 8.66L10.1247 7.21913Z" fill="#B2B8BF"/>
</svg>
