<svg width="20" height="20" viewBox="0 0 20 20" fill="none" xmlns="http://www.w3.org/2000/svg">
<path fill-rule="evenodd" clip-rule="evenodd" d="M8.65838 14.5526C9.21117 15.6582 10.7889 15.6582 11.3417 14.5526L13.8416 9.55268C13.9431 9.34958 14.0116 9.0974 13.9926 8.81583C13.9696 8.47377 13.8641 7.55683 13.3191 6.69814C12.7318 5.77281 11.6819 4.9999 10 4.9999C8.31815 4.9999 7.26826 5.77281 6.68094 6.69814C6.13591 7.55682 6.03047 8.47376 6.00742 8.81582C5.98844 9.0974 6.05693 9.34958 6.15848 9.55269L8.65838 14.5526ZM11.982 8.79962L10 12.7638L8.01802 8.79962C8.05124 8.54365 8.14067 8.13046 8.36952 7.76991C8.60941 7.39196 9.03832 6.9999 10 6.9999C10.9617 6.9999 11.3906 7.39196 11.6305 7.76991C11.8594 8.13045 11.9488 8.54365 11.982 8.79962Z" fill="#107F8C"/>
<path fill-rule="evenodd" clip-rule="evenodd" d="M10.9805 0.40431C10.3717 0.0618443 9.62831 0.0618449 9.01948 0.40431L2.01948 4.34181C1.38972 4.69605 1 5.36241 1 6.08496V13.9153C1 14.6378 1.38972 15.3042 2.01948 15.6584L9.01948 19.5959C9.62831 19.9384 10.3717 19.9384 10.9805 19.5959L17.9805 15.6584C18.6103 15.3042 19 14.6378 19 13.9153V6.08496C19 5.36241 18.6103 4.69605 17.9805 4.34181L10.9805 0.40431ZM10 2.14746L17 6.08496V13.9153L10 17.8528L3 13.9153V6.08496L10 2.14746Z" fill="#107F8C"/>
</svg>
