<svg width="20" height="20" viewBox="0 0 20 20" fill="none" xmlns="http://www.w3.org/2000/svg">
<path fill-rule="evenodd" clip-rule="evenodd" d="M10 1C8.34315 1 7 2.34315 7 4C7 5.65685 8.34315 7 10 7C11.6569 7 13 5.65685 13 4C13 2.34315 11.6569 1 10 1ZM9 4C9 3.44772 9.44772 3 10 3C10.5523 3 11 3.44772 11 4C11 4.55228 10.5523 5 10 5C9.44772 5 9 4.55228 9 4Z" fill="#107F8C"/>
<path fill-rule="evenodd" clip-rule="evenodd" d="M17 13C15.3431 13 14 14.3431 14 16C14 17.6569 15.3431 19 17 19C18.6569 19 20 17.6569 20 16C20 14.3431 18.6569 13 17 13ZM16 16C16 15.4477 16.4477 15 17 15C17.5523 15 18 15.4477 18 16C18 16.5523 17.5523 17 17 17C16.4477 17 16 16.5523 16 16Z" fill="#107F8C"/>
<path fill-rule="evenodd" clip-rule="evenodd" d="M0 16C0 14.3431 1.34315 13 3 13C4.65685 13 6 14.3431 6 16C6 17.6569 4.65685 19 3 19C1.34315 19 0 17.6569 0 16ZM3 15C2.44772 15 2 15.4477 2 16C2 16.5523 2.44772 17 3 17C3.55228 17 4 16.5523 4 16C4 15.4477 3.55228 15 3 15Z" fill="#107F8C"/>
<path d="M8 15C7.44772 15 7 15.4477 7 16C7 16.5523 7.44772 17 8 17H12C12.5523 17 13 16.5523 13 16C13 15.4477 12.5523 15 12 15H8Z" fill="#107F8C"/>
<path d="M8.05472 7.66806C8.51424 7.97441 8.63842 8.59528 8.33207 9.05481L6.33207 12.0548C6.02571 12.5143 5.40484 12.6385 4.94531 12.3322C4.48579 12.0258 4.36161 11.4049 4.66796 10.9454L6.66796 7.94541C6.97432 7.48588 7.59519 7.3617 8.05472 7.66806Z" fill="#107F8C"/>
<path d="M13.3321 7.94541C13.0257 7.48588 12.4048 7.3617 11.9453 7.66806C11.4858 7.97441 11.3616 8.59528 11.668 9.05481L13.668 12.0548C13.9743 12.5143 14.5952 12.6385 15.0547 12.3322C15.5142 12.0258 15.6384 11.4049 15.3321 10.9454L13.3321 7.94541Z" fill="#107F8C"/>
</svg>
