<svg width="32" height="32" viewBox="0 0 32 32" fill="none" xmlns="http://www.w3.org/2000/svg">
<path fill-rule="evenodd" clip-rule="evenodd" d="M14.6584 22.5517C15.2111 23.6573 16.7889 23.6573 17.3417 22.5517L21.8415 13.5517C21.9438 13.347 22.0083 13.101 21.9948 12.8318C21.9728 12.3936 21.8465 10.9784 21.0452 9.64341C20.2014 8.23769 18.6481 6.99892 16 6.99893C13.3519 6.99893 11.7986 8.23768 10.9548 9.6434C10.1535 10.9783 10.0272 12.3936 10.0052 12.8318C9.9917 13.101 10.0561 13.347 10.1585 13.5517L14.6584 22.5517ZM19.9872 12.7881L16 20.7628L12.0128 12.7881C12.0492 12.3707 12.185 11.48 12.6696 10.6728C13.1783 9.82521 14.1042 8.99892 16 8.99892C17.8958 8.99892 18.8217 9.82521 19.3304 10.6728C19.815 11.48 19.9507 12.3707 19.9872 12.7881Z" fill="#B2B8BF"/>
<path fill-rule="evenodd" clip-rule="evenodd" d="M16.988 2.4105C16.3753 2.06239 15.6247 2.06239 15.012 2.4105L5.01198 8.09232C4.38644 8.44774 4 9.11177 4 9.83123V21.1673C4 21.8868 4.38644 22.5508 5.01198 22.9062L15.012 28.588C15.6247 28.9362 16.3753 28.9362 16.988 28.588L26.988 22.9062C27.6136 22.5508 28 21.8868 28 21.1673V9.83123C28 9.11177 27.6136 8.44774 26.988 8.09232L16.988 2.4105ZM16 4.14941L26 9.83123V21.1673L16 26.8491L6 21.1673V9.83123L16 4.14941Z" fill="#B2B8BF"/>
</svg>
