<svg width="32" height="32" viewBox="0 0 32 32" fill="none" xmlns="http://www.w3.org/2000/svg">
<path fill-rule="evenodd" clip-rule="evenodd" d="M16.5 6.83008C10.701 6.83008 6 11.5311 6 17.3301C6 19.5808 6.70703 21.6634 7.91117 23.3718C8.1802 23.7535 8.67471 23.9967 9.2693 23.9967H23.7307C24.3253 23.9967 24.8198 23.7535 25.0888 23.3718C26.293 21.6634 27 19.5808 27 17.3301C27 11.5311 22.299 6.83008 16.5 6.83008ZM4 17.3301C4 10.4265 9.59644 4.83008 16.5 4.83008C23.4036 4.83008 29 10.4265 29 17.3301C29 20.0067 28.1576 22.4895 26.7236 24.524C26.0093 25.5373 24.8428 25.9967 23.7307 25.9967H9.2693C8.15722 25.9967 6.99065 25.5373 6.27644 24.524C4.84239 22.4895 4 20.0067 4 17.3301Z" fill="#B2B8BF"/>
<path d="M22.7113 15.0388C23.0941 14.6407 23.0817 14.0077 22.6836 13.6249C22.2855 13.2421 21.6524 13.2545 21.2696 13.6526L17.5201 17.5521C17.2076 17.4159 16.8626 17.3403 16.4999 17.3403C15.0885 17.3403 13.9443 18.4845 13.9443 19.8959C13.9443 21.3073 15.0885 22.4514 16.4999 22.4514C17.9113 22.4514 19.0554 21.3073 19.0554 19.8959C19.0554 19.5831 18.9992 19.2834 18.8964 19.0063L22.7113 15.0388Z" fill="#B2B8BF"/>
</svg>
