<svg width="32" height="32" viewBox="0 0 32 32" fill="none" xmlns="http://www.w3.org/2000/svg">
<path d="M22.2929 4.29289C22.6834 3.90237 23.3166 3.90237 23.7071 4.29289L27.7071 8.29289C28.0976 8.68342 28.0976 9.31658 27.7071 9.70711L23.7071 13.7071C23.3166 14.0976 22.6834 14.0976 22.2929 13.7071C21.9023 13.3166 21.9023 12.6834 22.2929 12.2929L24.5858 10H17.6269C17.0746 10 16.6269 9.55228 16.6269 9C16.6269 8.44772 17.0746 8 17.6269 8H24.5858L22.2929 5.70711C21.9023 5.31658 21.9023 4.68342 22.2929 4.29289Z" fill="#B2B8BF"/>
<path d="M6.99997 7.81818C6.99997 7.35681 7.36759 7 7.79997 7H14C14.5523 7 15 6.55228 15 6C15 5.44772 14.5523 5 14 5H7.79997C6.24412 5 4.99997 6.27124 4.99997 7.81818V26.9873C4.99875 27.0776 5.00971 27.1684 5.03338 27.2573C5.1027 27.5184 5.27502 27.7376 5.50421 27.8687C5.63713 27.9447 5.78918 27.9911 5.95135 27.9988C6.04834 28.0036 6.14643 27.9944 6.24238 27.9704C6.36044 27.941 6.47019 27.8906 6.56747 27.8235L8.72263 26.3867C8.89058 26.2747 9.10938 26.2747 9.27733 26.3867L10.6132 27.2773C11.453 27.8371 12.547 27.8371 13.3867 27.2773L14.7226 26.3867C14.8906 26.2747 15.1094 26.2747 15.2773 26.3867L16.6132 27.2773C17.453 27.8371 18.547 27.8371 19.3867 27.2773L20.7226 26.3867C20.8906 26.2747 21.1094 26.2747 21.2773 26.3867L23.4317 27.8229C23.5316 27.8921 23.6448 27.9435 23.7666 27.9726C23.8599 27.995 23.9553 28.0035 24.0495 27.9988C24.2071 27.9911 24.3551 27.947 24.4852 27.8746C24.5984 27.8119 24.7007 27.7265 24.7848 27.6197C24.8609 27.5235 24.9197 27.413 24.9564 27.2928C24.9873 27.192 25.0016 27.0882 25 26.9853V20.5C25 19.9477 24.5523 19.5 24 19.5C23.4477 19.5 23 19.9477 23 20.5V25.1314L22.3867 24.7226C21.547 24.1628 20.453 24.1628 19.6132 24.7226L18.2773 25.6132C18.1094 25.7252 17.8906 25.7252 17.7226 25.6132L16.3867 24.7226C15.547 24.1628 14.453 24.1628 13.6132 24.7226L12.2773 25.6132C12.1094 25.7252 11.8906 25.7252 11.7226 25.6132L10.3867 24.7226C9.54699 24.1628 8.45298 24.1628 7.61323 24.7226L6.99997 25.1315V7.81818Z" fill="#B2B8BF"/>
<path d="M9.99997 11C9.99997 10.4477 10.4477 10 11 10H14C14.5523 10 15 10.4477 15 11C15 11.5523 14.5523 12 14 12H11C10.4477 12 9.99997 11.5523 9.99997 11Z" fill="#B2B8BF"/>
<path d="M11 15C10.4477 15 9.99997 15.4477 9.99997 16C9.99997 16.5523 10.4477 17 11 17H14C14.5523 17 15 16.5523 15 16C15 15.4477 14.5523 15 14 15H11Z" fill="#B2B8BF"/>
<path d="M11 20C10.4477 20 9.99997 20.4477 9.99997 21C9.99997 21.5523 10.4477 22 11 22H16C16.5523 22 17 21.5523 17 21C17 20.4477 16.5523 20 16 20H11Z" fill="#B2B8BF"/>
</svg>
