<svg width="20" height="20" viewBox="0 0 20 20" fill="none" xmlns="http://www.w3.org/2000/svg">
<g clip-path="url(#clip0_35630_1137)">
<path fill-rule="evenodd" clip-rule="evenodd" d="M15 16.5C15 15.1193 16.1193 14 17.5 14C18.8807 14 20 15.1193 20 16.5C20 17.8807 18.8807 19 17.5 19C16.1193 19 15 17.8807 15 16.5ZM17.5 16C17.2239 16 17 16.2239 17 16.5C17 16.7761 17.2239 17 17.5 17C17.7761 17 18 16.7761 18 16.5C18 16.2239 17.7761 16 17.5 16Z" fill="#B2B8BF"/>
<path fill-rule="evenodd" clip-rule="evenodd" d="M0.292893 13.2929C0.683417 12.9024 1.31658 12.9024 1.70711 13.2929L5.70711 17.2929C6.09763 17.6834 6.09763 18.3166 5.70711 18.7071C5.31658 19.0976 4.68342 19.0976 4.29289 18.7071L0.292893 14.7071C-0.0976311 14.3166 -0.0976311 13.6834 0.292893 13.2929Z" fill="#B2B8BF"/>
<path fill-rule="evenodd" clip-rule="evenodd" d="M9.42594 1.8517C9.44327 1.8671 9.47958 1.89746 9.52622 1.93644L9.52623 1.93645C9.66888 2.05569 9.90812 2.25568 9.99645 2.35578L10.0039 2.45105L10.0035 2.35579C10.0919 2.25569 10.3311 2.0557 10.4738 1.93647L10.4738 1.93646C10.5204 1.89747 10.5567 1.86712 10.5741 1.85171C10.5975 1.44921 10.8007 0.870914 11.3297 0.454328C12.0056 -0.0778298 13.0841 -0.0991822 13.9112 0.167592C14.9283 0.495685 15.3553 1.1456 15.4731 1.7504C16.0604 0.777183 16.529 0.526159 16.8437 0.422982C17.6703 0.151961 18.5378 0.394235 19.1161 1.16795C19.4859 1.66263 19.7441 3.07152 19.8284 3.5648C19.9289 4.15338 20.1008 5.42437 19.9227 6.98938C19.7179 8.78783 18.8174 10.8291 18.2064 11.4822C17.578 12.1537 17.1499 12.5111 16.5176 12.735C15.9331 12.9419 15.607 12.924 15.5363 12.9201C15.5305 12.9198 15.5264 12.9196 15.524 12.9196C15.3944 13.4419 15.3086 13.6512 15.1745 13.8896C14.9978 14.2038 14.6208 14.5415 14.2123 14.7379L14.2141 14.745C14.2919 15.0639 14.357 15.3308 14.2673 15.8493C14.177 16.3716 13.8311 16.9593 13.3523 17.3417C12.8921 17.7092 12.0505 18.0087 11.5879 18.1734L11.5877 18.1734C11.4622 18.2181 11.3646 18.2529 11.3101 18.2763C11.0646 18.479 10.5329 18.7513 10.0719 18.7555H10.0668L10.0612 18.7555L9.93879 18.7555C9.47537 18.7555 8.93734 18.4806 8.68992 18.2763C8.63543 18.2529 8.53781 18.2181 8.41228 18.1734L8.41208 18.1734C7.94946 18.0087 7.10793 17.7092 6.64774 17.3416C6.16893 16.9592 5.82301 16.3716 5.73268 15.8493C5.64302 15.3308 5.70814 15.0639 5.78593 14.745L5.78767 14.7379C5.37923 14.5415 5.00221 14.2038 4.82548 13.8896C4.69141 13.6512 4.60556 13.4419 4.47596 12.9195C4.47461 12.9195 4.47273 12.9196 4.47029 12.9197C4.46842 12.9198 4.46623 12.9199 4.46372 12.9201C4.39297 12.924 4.06688 12.9419 3.48236 12.735C2.85007 12.5111 2.422 12.1537 1.79363 11.4822C1.18259 10.8291 0.282082 8.78782 0.0773361 6.98936C-0.100833 5.42436 0.0710627 4.15336 0.171635 3.56478C0.255923 3.0715 0.514088 1.66261 0.88385 1.16793C1.46218 0.394221 2.32967 0.151947 3.15631 0.422968C3.47101 0.526145 3.93962 0.777169 4.52693 1.75039C4.64475 1.14559 5.07168 0.49567 6.08883 0.167577C6.91587 -0.0991965 7.99443 -0.077844 8.67025 0.454314C9.1993 0.8709 9.4025 1.44919 9.42594 1.8517ZM7.48003 13.0458C7.4558 13.1143 7.27705 13.1209 7.14636 13.097C6.95543 13.0621 6.56814 12.9161 6.53938 12.8502C6.48902 12.735 6.46821 12.6519 6.46088 12.5936C6.45145 12.5187 6.46005 12.4578 6.49785 12.3759C6.54367 12.2767 6.63458 12.144 6.81063 11.9534C6.98627 11.7632 7.21002 11.5534 7.498 11.2857C7.77747 11.0259 7.82192 10.5875 7.60072 10.2727C7.37952 9.95778 6.96497 9.86931 6.64273 10.0682C5.93683 10.5039 5.38003 10.7442 4.96318 10.8517C4.53644 10.9618 4.32406 10.9163 4.2481 10.8822C3.97299 10.7589 3.71722 10.6403 3.4283 10.3156C3.12587 9.97583 2.74996 9.36423 2.37395 8.19477C2.0148 7.07776 1.95322 5.84219 2.02938 4.76142C2.09287 3.86037 2.48952 2.28244 2.51677 2.32381C2.61097 2.46687 2.73301 2.64955 2.86785 2.85138L2.86792 2.85149C3.25139 3.42549 3.7369 4.15307 4.09372 4.7263C4.43226 5.27014 5.01562 5.97373 5.56119 6.53565C5.83619 6.81891 6.11907 7.08433 6.37405 7.28465C6.50062 7.38409 6.63511 7.47926 6.76885 7.55296C6.87992 7.61417 7.08428 7.71499 7.32449 7.71499C7.67576 7.71499 7.95816 7.53705 8.13328 7.28376C8.28038 7.07101 8.33332 6.83485 8.35727 6.67949C8.39584 6.42933 8.38943 6.12549 8.38625 5.97455V5.97453C8.37829 5.59697 8.30639 5.22745 8.17315 4.87334C8.10896 4.70275 8.01547 4.49943 7.8812 4.32466C7.76105 4.16829 7.49594 3.89205 7.08022 3.89205C6.72363 3.89205 6.4834 4.0884 6.36293 4.20754C6.33085 4.23926 6.30969 4.27142 6.29059 4.30045C6.27887 4.31826 6.26793 4.33489 6.25571 4.34953C6.22648 4.38454 6.2089 4.10018 6.2089 4.06755C6.2089 3.93915 6.21831 3.76869 6.25571 3.60514C6.29427 3.43654 6.34982 3.33098 6.40277 3.27424C6.58774 3.076 6.65442 2.78858 6.57677 2.52423C6.51607 2.31759 6.49804 2.18963 6.4975 2.14785C6.75566 2.02868 7.14311 1.94921 7.45005 2.04437C7.4465 2.04355 7.49099 2.31399 7.49099 2.31399C7.39476 2.66492 7.55229 3.03745 7.86579 3.20035C8.12431 3.33469 8.43721 3.5997 8.7334 3.92796C9.02767 4.25409 9.25221 4.58323 9.35695 4.79454C9.48182 5.04645 9.73123 5.2047 10.0034 5.2047C10.2755 5.2047 10.525 5.04645 10.6498 4.79454C10.7546 4.58323 10.9791 4.25409 11.2734 3.92796C11.5696 3.5997 11.8825 3.33469 12.141 3.20035C12.4545 3.03745 12.612 2.66492 12.5158 2.31399C12.4967 2.24436 12.4933 2.11366 12.5388 2.05158C12.7949 1.89933 13.264 2.03464 13.5093 2.14785C13.5087 2.18962 13.4907 2.31759 13.43 2.52423C13.3524 2.78858 13.419 3.07601 13.604 3.27424C13.657 3.33098 13.7125 3.43654 13.7511 3.60514C13.7885 3.76869 13.7979 3.93915 13.7979 4.06755C13.7979 4.0744 13.7744 4.3516 13.7727 4.34953C13.7406 4.31104 13.6956 4.25871 13.6439 4.20754C13.5234 4.0884 13.2831 3.89205 12.9266 3.89205C12.5108 3.89205 12.2457 4.16829 12.1256 4.32466C11.9913 4.49943 11.8978 4.70275 11.8336 4.87334C11.7004 5.22745 11.6285 5.59697 11.6205 5.97453C11.6173 6.12545 11.6109 6.42932 11.6495 6.67949C11.6735 6.83485 11.7264 7.07101 11.8735 7.28376C12.0486 7.53705 12.331 7.71499 12.6823 7.71499C12.9225 7.71499 13.1269 7.61417 13.2379 7.55296C13.3717 7.47926 13.5062 7.38409 13.6327 7.28465C13.8877 7.08433 14.1706 6.81891 14.4456 6.53566C14.9912 5.97373 15.5745 5.27014 15.9131 4.7263C16.2699 4.15306 16.7554 3.42546 17.1389 2.85145C17.1866 2.77998 17.242 2.68869 17.2945 2.60209C17.3902 2.44408 17.4765 2.30168 17.49 2.32381C17.8565 2.92623 17.9163 3.8356 17.9634 4.55377C17.9681 4.62503 17.9727 4.69441 17.9774 4.76142C18.0536 5.84219 17.992 7.07776 17.6328 8.19477C17.2568 9.36423 16.8809 9.97583 16.5785 10.3156C16.2896 10.6403 16.0338 10.7589 15.7587 10.8822C15.6827 10.9163 15.4703 10.9618 15.0436 10.8517C14.6267 10.7442 14.0699 10.5039 13.364 10.0682C13.0418 9.86932 12.6273 9.95778 12.4061 10.2727C12.1849 10.5875 12.2293 11.0259 12.5088 11.2857C12.7968 11.5534 13.0205 11.7632 13.1961 11.9534C13.3722 12.144 13.4631 12.2767 13.5089 12.3759C13.5777 12.525 13.5484 12.7103 13.4674 12.8502C13.4201 12.9318 13.0411 13.0491 12.8604 13.097C12.7466 13.1272 12.551 13.1143 12.5267 13.0458C12.5025 12.9773 12.4573 12.8509 12.4149 12.7598C12.3545 12.63 12.2184 12.3748 11.9331 12.2254C11.443 11.9689 10.7814 12.1887 10.5858 12.7135C10.5063 12.9268 10.5214 13.1273 10.5558 13.2711C10.6169 13.5268 10.769 13.7319 10.8732 13.8582C11.1041 14.1381 11.4652 14.4537 11.8617 14.7709C12.1148 14.9734 12.2434 15.165 12.2896 15.3027C12.3245 15.4066 12.325 15.5025 12.2397 15.6383C12.1315 15.8107 11.8661 15.9184 11.6662 15.9996C11.6362 16.0117 11.6077 16.0233 11.5814 16.0344C11.4115 16.1062 11.2341 16.1697 11.0553 16.2338C10.8462 16.3087 10.6352 16.3843 10.4316 16.4746C10.0115 16.6611 10.0021 16.7527 9.99665 16.7524C9.99115 16.7522 9.98968 16.6586 9.57517 16.4746C9.37163 16.3843 9.16058 16.3087 8.95154 16.2338C8.77269 16.1697 8.5953 16.1062 8.42534 16.0344C8.39906 16.0233 8.37056 16.0117 8.34059 15.9996C8.14067 15.9184 7.8753 15.8107 7.76707 15.6383C7.68182 15.5025 7.68232 15.4066 7.71717 15.3027C7.76337 15.165 7.89194 14.9734 8.14512 14.7709C8.54156 14.4537 8.90269 14.1381 9.13361 13.8582C9.23779 13.7319 9.38988 13.5268 9.451 13.2711C9.48539 13.1273 9.50048 12.9268 9.42099 12.7135C9.22562 12.1894 8.5614 11.9702 8.07366 12.2254C7.78838 12.3748 7.65229 12.63 7.59188 12.7598C7.54943 12.8509 7.50427 12.9773 7.48003 13.0458Z" fill="#B2B8BF"/>
</g>
<defs>
<clipPath id="clip0_35630_1137">
<rect width="20" height="20" fill="white"/>
</clipPath>
</defs>
</svg>
