<svg width="32" height="32" viewBox="0 0 32 32" fill="none" xmlns="http://www.w3.org/2000/svg">
<path d="M15.9998 6.2002C13.5436 6.2002 11.3668 7.39584 10.0192 9.24122C9.69349 9.68723 9.06788 9.78476 8.62187 9.45905C8.17585 9.13334 8.07832 8.50773 8.40403 8.06171C10.112 5.72289 12.8781 4.2002 15.9998 4.2002C19.1215 4.2002 21.8877 5.72289 23.5956 8.06171C23.9213 8.50773 23.8238 9.13334 23.3778 9.45905C22.9318 9.78476 22.3062 9.68723 21.9805 9.24122C20.6328 7.39584 18.456 6.2002 15.9998 6.2002Z" fill="#B2B8BF"/>
<path fill-rule="evenodd" clip-rule="evenodd" d="M8 11.0002C5.79086 11.0002 4 12.7911 4 15.0002V18.0002C4 20.2093 5.79086 22.0002 8 22.0002C9.65685 22.0002 11 20.6571 11 19.0002V14.0002C11 12.3433 9.65685 11.0002 8 11.0002ZM6 15.0002C6 13.8956 6.89543 13.0002 8 13.0002C8.55228 13.0002 9 13.4479 9 14.0002V19.0002C9 19.5525 8.55228 20.0002 8 20.0002C6.89543 20.0002 6 19.1048 6 18.0002V15.0002Z" fill="#B2B8BF"/>
<path fill-rule="evenodd" clip-rule="evenodd" d="M24 11.0002C26.2091 11.0002 28 12.7911 28 15.0002V18.0002C28 19.9665 26.5812 21.6014 24.7116 21.9371C23.446 25.0515 20.5575 27.336 17.0934 27.7372C16.7655 27.9053 16.3938 28.0002 16 28.0002C14.6745 28.0002 13.6 26.9257 13.6 25.6002C13.6 24.2747 14.6745 23.2002 16 23.2002C17.2597 23.2002 18.2928 24.1708 18.3921 25.4049C20.251 24.7704 21.7774 23.4166 22.6384 21.6741C21.6659 21.178 21 20.1669 21 19.0002V14.0002C21 12.3433 22.3431 11.0002 24 11.0002ZM26 15.0002C26 13.8956 25.1046 13.0002 24 13.0002C23.4477 13.0002 23 13.4479 23 14.0002V19.0002C23 19.5525 23.4477 20.0002 24 20.0002C25.1046 20.0002 26 19.1048 26 18.0002V15.0002Z" fill="#B2B8BF"/>
</svg>
