<svg width="20" height="20" viewBox="0 0 20 20" fill="none" xmlns="http://www.w3.org/2000/svg">
<path d="M11.9322 9.482C11.9764 9.64719 11.9999 9.82081 11.9999 9.99992C11.9999 11.1045 11.1045 11.9999 9.99992 11.9999C8.89536 11.9999 7.99994 11.1045 7.99994 9.99992C7.99994 8.89536 8.89536 7.99994 9.99992 7.99994C10.1791 7.99994 10.3528 8.02351 10.5181 8.06771L18.2929 0.292891C18.6834 -0.0976301 19.3166 -0.0976305 19.7071 0.292891C20.0976 0.683412 20.0976 1.31657 19.7071 1.70709L11.9322 9.482Z" fill="#107F8C"/>
<path d="M1.99998 9.99992C1.99998 5.58168 5.58168 1.99998 9.99992 1.99998C10.9253 1.99998 11.8119 2.15668 12.636 2.44418C13.1575 2.62609 13.7277 2.35083 13.9096 1.82937C14.0915 1.30791 13.8162 0.737711 13.2948 0.555799C12.2618 0.195436 11.1526 0 9.99992 0C4.47712 0 0 4.47712 0 9.99992C0 15.5227 4.47712 19.9998 9.99992 19.9998C15.5227 19.9998 19.9998 15.5227 19.9998 9.99992C19.9998 8.84724 19.8044 7.73808 19.444 6.70508C19.2621 6.18361 18.6919 5.90835 18.1705 6.09027C17.649 6.27218 17.3738 6.84237 17.5557 7.36383C17.8432 8.18795 17.9999 9.07457 17.9999 9.99992C17.9999 14.4182 14.4182 17.9999 9.99992 17.9999C5.58168 17.9999 1.99998 14.4182 1.99998 9.99992Z" fill="#107F8C"/>
<path d="M5.99995 9.99992C5.99995 7.7908 7.7908 5.99995 9.99992 5.99995C10.5522 5.99995 10.9999 5.55224 10.9999 4.99996C10.9999 4.44768 10.5522 3.99997 9.99992 3.99997C6.68624 3.99997 3.99997 6.68624 3.99997 9.99992C3.99997 13.3136 6.68624 15.9999 9.99992 15.9999C13.3136 15.9999 15.9999 13.3136 15.9999 9.99992C15.9999 9.44764 15.5522 8.99993 14.9999 8.99993C14.4476 8.99993 13.9999 9.44764 13.9999 9.99992C13.9999 12.209 12.209 13.9999 9.99992 13.9999C7.7908 13.9999 5.99995 12.209 5.99995 9.99992Z" fill="#107F8C"/>
</svg>
