<svg width="32" height="32" viewBox="0 0 32 32" fill="none" xmlns="http://www.w3.org/2000/svg">
<path fill-rule="evenodd" clip-rule="evenodd" d="M9 13C9 9.13766 12.1443 6 16.0311 6C16.9516 6 17.8284 6.1756 18.6314 6.49401C19.1448 6.6976 19.726 6.44645 19.9296 5.93306C20.1332 5.41967 19.882 4.83844 19.3686 4.63486C18.3348 4.22488 17.208 4 16.0311 4C11.047 4 7 8.02579 7 13C7 16.1169 8.59004 18.8611 11 20.4751V22.0001C11 23.1665 11.3163 24.4189 12.1459 25.3969C12.6361 25.9749 13.2727 26.4179 14.0489 26.6903C14.0172 26.7878 14 26.8919 14 27C14 27.5523 14.4477 28 15 28H17C17.5523 28 18 27.5523 18 27C18 26.8919 17.9828 26.7878 17.9511 26.6903C18.7273 26.4179 19.3639 25.9749 19.8541 25.3969C20.6837 24.4189 21 23.1665 21 22.0001V20.5163C23.1482 19.1032 24.6576 16.7979 24.9923 14.1242C25.0609 13.5762 24.6722 13.0763 24.1242 13.0077C23.5762 12.9391 23.0763 13.3278 23.0077 13.8758C22.7358 16.0481 21.4617 17.9158 19.655 19H12.4072C10.3624 17.773 9 15.5435 9 13ZM19 21H13V22.0001C13 22.8336 13.2283 23.5812 13.6711 24.1032C14.0901 24.5972 14.7936 25 16 25C17.2064 25 17.9099 24.5972 18.3289 24.1032C18.7717 23.5812 19 22.8336 19 22.0001V21Z" fill="#21A19A"/>
<path d="M23.7894 8.38606C24.1284 8.82201 24.0499 9.45028 23.6139 9.78935L17.1854 14.7894C16.8243 15.0702 16.3186 15.0702 15.9575 14.7894L13.3861 12.7894C12.9501 12.4503 12.8716 11.822 13.2106 11.3861C13.5497 10.9501 14.178 10.8716 14.6139 11.2106L16.5714 12.7331L22.3861 8.21065C22.822 7.87158 23.4503 7.95011 23.7894 8.38606Z" fill="#21A19A"/>
</svg>
