<svg width="20" height="20" viewBox="0 0 20 20" fill="none" xmlns="http://www.w3.org/2000/svg">
<g clip-path="url(#clip0_35147_1365)">
<path fill-rule="evenodd" clip-rule="evenodd" d="M3 4C2.44772 4 2 4.44772 2 5V13C2 13.5523 2.44772 14 3 14H15C15.5523 14 16 13.5523 16 13V11C16 10.4477 16.4477 10 17 10C17.5523 10 18 10.4477 18 11V13C18 14.6569 16.6569 16 15 16H10V18H13C13.5523 18 14 18.4477 14 19C14 19.5523 13.5523 20 13 20H5C4.44771 20 4 19.5523 4 19C4 18.4477 4.44771 18 5 18H8V16H3C1.34315 16 0 14.6569 0 13V5C0 3.34315 1.34315 2 3 2H9C9.55229 2 10 2.44772 10 3C10 3.55228 9.55229 4 9 4H3Z" fill="#107F8C"/>
<path d="M12 7C12 7.55228 12.4477 8 13 8L18 8C18.5523 8 19 7.55228 19 7C19 6.44771 18.5523 6 18 6L15.4142 6L19.7071 1.70711C20.0976 1.31658 20.0976 0.683417 19.7071 0.292893C19.3166 -0.0976318 18.6834 -0.0976317 18.2929 0.292893L14 4.58579L14 2C14 1.44772 13.5523 1 13 1C12.4477 1 12 1.44772 12 2L12 7Z" fill="#107F8C"/>
</g>
<defs>
<clipPath id="clip0_35147_1365">
<rect width="20" height="20" fill="white"/>
</clipPath>
</defs>
</svg>
