<svg width="20" height="20" viewBox="0 0 20 20" fill="none" xmlns="http://www.w3.org/2000/svg">
<path fill-rule="evenodd" clip-rule="evenodd" d="M11.6 0C10.1369 0 9 1.21265 9 2.64706V15C9 15.5523 9.44772 16 10 16H11V18.1584C11 19.1272 11.7588 20 12.8 20H15.2C16.2412 20 17 19.1272 17 18.1584V16H18C18.5523 16 19 15.5523 19 15V2.64706C19 1.21265 17.8631 0 16.4 0H11.6ZM11 2.64706C11 2.26218 11.2958 2 11.6 2H16.4C16.7042 2 17 2.26218 17 2.64706V14H11V2.64706ZM15 16H13V18H15V16Z" fill="#B2B8BF"/>
<path fill-rule="evenodd" clip-rule="evenodd" d="M4 2C2.34315 2 1 3.34315 1 5C1 6.65685 2.34315 8 4 8C5.65685 8 7 6.65685 7 5C7 3.34315 5.65685 2 4 2ZM3 5C3 4.44772 3.44772 4 4 4C4.55228 4 5 4.44772 5 5C5 5.55228 4.55228 6 4 6C3.44772 6 3 5.55228 3 5Z" fill="#B2B8BF"/>
<path d="M5 12C5 11.4477 4.55228 11 4 11C3.44772 11 3 11.4477 3 12V16.8689C3 17.4212 3.44772 17.8689 4 17.8689C4.55228 17.8689 5 17.4212 5 16.8689V12Z" fill="#B2B8BF"/>
</svg>
