<svg width="32" height="32" viewBox="0 0 32 32" fill="none" xmlns="http://www.w3.org/2000/svg">
<path fill-rule="evenodd" clip-rule="evenodd" d="M15.7194 4.04016C15.9026 3.98661 16.0974 3.98661 16.2806 4.04016L26.2806 6.96308C26.7069 7.08771 27 7.47869 27 7.92292V13.601C27 18.9193 24.2014 23.8742 19.5672 26.8745C19.567 26.8747 19.5674 26.8744 19.5672 26.8745L16.5449 28.8385C16.2135 29.0538 15.7865 29.0538 15.4551 28.8385L12.4301 26.8728C7.79989 23.8498 5 18.8969 5 13.601V7.92292C5 7.47869 5.29306 7.08771 5.71945 6.96308L15.7194 4.04016ZM7 8.67247V13.601C7 18.1757 9.41951 22.5185 13.5228 25.1977C13.5226 25.1975 13.523 25.1978 13.5228 25.1977L16 26.8074L18.4798 25.196C22.5792 22.5421 25 18.2014 25 13.601V8.67247L16 6.04184L7 8.67247Z" fill="#B2B8BF"/>
<path fill-rule="evenodd" clip-rule="evenodd" d="M21.736 12.3231C22.1099 12.7296 22.0834 13.3622 21.6769 13.736L15.153 19.736C14.7626 20.0951 14.1598 20.0869 13.7793 19.7173L11.3033 17.3122C10.9071 16.9274 10.8979 16.2943 11.2827 15.8982C11.6675 15.502 12.3006 15.4928 12.6967 15.8776L14.4949 17.6241L20.3231 12.264C20.7296 11.8901 21.3622 11.9166 21.736 12.3231Z" fill="#B2B8BF"/>
</svg>
