<svg width="20" height="20" viewBox="0 0 20 20" fill="none" xmlns="http://www.w3.org/2000/svg">
<path fill-rule="evenodd" clip-rule="evenodd" d="M17.8994 7.85C17.9594 7.58 17.9994 7.29 17.9994 7C17.9994 6.7 17.9594 6.42 17.8994 6.14C17.8494 5.9 17.7795 5.67 17.6795 5.44C17.5795 5.21 17.4696 5 17.3297 4.79C17.1897 4.57 17.0198 4.36 16.8199 4.17C16.63 3.97 16.4201 3.8 16.2002 3.66C16.0003 3.52 15.7804 3.41 15.5505 3.31C15.3206 3.21 15.0907 3.14 14.8508 3.09C14.5709 3.03 14.2911 3 14.0012 3C13.7013 3 13.4215 3.03 13.1416 3.09C12.9017 3.14 12.6718 3.21 12.4419 3.31C12.212 3.41 11.9921 3.52 11.7922 3.66C11.5723 3.8 11.3624 3.98 11.1725 4.17C10.9826 4.35 10.8226 4.55 10.6827 4.76C10.6028 4.69 10.5128 4.63 10.4328 4.58C10.2529 4.46 10.063 4.36 9.86309 4.27C9.66318 4.19 9.45328 4.12 9.24337 4.08C9.00349 4.02 8.7536 4 8.50372 4C8.24383 4 7.99395 4.02 7.75406 4.08C7.54416 4.12 7.33425 4.19 7.13434 4.27C6.93444 4.36 6.74452 4.46 6.56461 4.58C6.37469 4.7 6.19478 4.85 6.02485 5.02C5.88492 5.16 5.75498 5.32 5.63503 5.48C5.4851 5.38 5.33517 5.3 5.16525 5.23C4.99533 5.16 4.81541 5.1 4.63549 5.06C4.43558 5.02 4.21568 5 4.00578 5C3.78588 5 3.56598 5.02 3.36608 5.06C3.18616 5.1 3.00624 5.16 2.83632 5.23C2.6564 5.3 2.49647 5.39 2.34654 5.49C2.17662 5.6 2.02669 5.73 1.87676 5.87C1.73682 6.02 1.60688 6.17 1.49693 6.34C1.39698 6.49 1.30702 6.66 1.23705 6.83C1.16708 7 1.10711 7.18 1.06713 7.36C1.02715 7.57 1.00716 7.78 1.00716 8C1.00716 8.21 1.02715 8.43 1.06713 8.63C1.10711 8.81 1.16708 8.99 1.23705 9.16C1.30702 9.34 1.39698 9.5 1.49693 9.65C1.60688 9.82 1.73682 9.97 1.87676 10.12C2.02669 10.26 2.17662 10.39 2.34654 10.5C2.49647 10.6 2.6564 10.69 2.83632 10.76C3.00624 10.83 3.18616 10.89 3.36608 10.93C3.56598 10.97 3.78588 11 4.00578 11C4.21568 11 4.43558 10.97 4.63549 10.93C4.81541 10.89 4.99533 10.83 5.16525 10.76C5.34517 10.69 5.50509 10.6 5.65502 10.5C5.82495 10.39 5.97488 10.26 6.12481 10.12C6.25475 10.24 6.42467 10.32 6.56461 10.42C6.74452 10.54 6.93444 10.64 7.13434 10.72C7.33425 10.81 7.54416 10.87 7.75406 10.92C7.99395 10.97 8.24383 11 8.50372 11C8.7536 11 9.00349 10.97 9.24337 10.92C9.45328 10.87 9.66318 10.81 9.86309 10.72C10.063 10.64 10.2529 10.53 10.4328 10.42C10.6227 10.29 10.8027 10.14 10.9726 9.97C11.0326 9.91 11.0825 9.85 11.1425 9.79C11.3324 9.99 11.5723 10.19 11.7922 10.33C11.9921 10.47 12.212 10.58 12.4419 10.68C12.6718 10.78 12.9017 10.85 13.1416 10.9C13.4215 10.97 13.7013 11 14.0012 11C14.2911 11 14.5709 10.97 14.8508 10.9C15.0907 10.85 15.3206 10.78 15.5505 10.68C15.7804 10.58 16.0003 10.47 16.2002 10.33C16.4201 10.19 16.63 10.02 16.8199 9.82C17.0198 9.63 17.1897 9.42 17.3297 9.2C17.4696 9 17.5795 8.78 17.6795 8.55C17.7795 8.33 17.8494 8.09 17.8994 7.85ZM15.8403 6.22C15.8803 6.32 15.9203 6.43 15.9403 6.53C15.9803 6.68 16.0003 6.84 16.0003 7C16.0003 7.15 15.9803 7.31 15.9403 7.46C15.9203 7.56 15.8803 7.67 15.8403 7.77C15.7404 8.01 15.5905 8.23 15.4105 8.41C15.3106 8.51 15.2006 8.6 15.0807 8.68C14.9807 8.74 14.8808 8.79 14.7708 8.84C14.5309 8.94 14.2711 9 14.0012 9C13.8413 9 13.6813 8.98 13.5314 8.94C13.4315 8.92 13.3215 8.88 13.2215 8.84C12.9817 8.74 12.7718 8.59 12.5818 8.41C12.4819 8.31 12.3919 8.2 12.322 8.08C12.252 7.99 12.202 7.88 12.152 7.77C12.1121 7.67 12.0721 7.56 12.0521 7.46C12.0121 7.31 12.0021 7.15 12.0021 7C12.0021 6.84 12.0121 6.68 12.0521 6.54C12.0721 6.43 12.1121 6.32 12.152 6.22C12.202 6.11 12.252 6.01 12.322 5.91C12.3919 5.79 12.4819 5.68 12.5818 5.58C12.6818 5.48 12.7917 5.39 12.9117 5.32C13.0116 5.25 13.1116 5.2 13.2215 5.15C13.3215 5.11 13.4315 5.07 13.5314 5.05C13.6813 5.01 13.8413 5 14.0012 5C14.1511 5 14.311 5.01 14.461 5.05C14.5609 5.07 14.6709 5.11 14.7708 5.15C14.8808 5.2 14.9807 5.25 15.0807 5.32C15.2006 5.39 15.3106 5.48 15.4105 5.58C15.5905 5.77 15.7404 5.98 15.8403 6.22ZM9.95305 7.15C9.94305 7.07 9.91307 6.99 9.88308 6.91C9.8431 6.83 9.80312 6.76 9.76314 6.68C9.70316 6.6 9.6332 6.51 9.56323 6.44C9.48327 6.36 9.4033 6.29 9.31334 6.23C9.24338 6.19 9.16341 6.15 9.08345 6.11C9.00349 6.08 8.92352 6.06 8.85355 6.04C8.73361 6.01 8.62366 6 8.50372 6C8.29381 6 8.1039 6.04 7.91399 6.11C7.83402 6.15 7.75406 6.19 7.68409 6.23C7.59413 6.29 7.51417 6.36 7.43421 6.44C7.36424 6.51 7.29427 6.59 7.2343 6.68C7.19432 6.76 7.15434 6.83 7.11435 6.91C7.08437 6.99 7.05438 7.07 7.04439 7.15C7.0144 7.26 7.0044 7.38 7.0044 7.5C7.0044 7.62 7.0144 7.73 7.04439 7.85C7.05438 7.93 7.08437 8 7.11435 8.08C7.15434 8.16 7.19432 8.24 7.2343 8.31C7.29427 8.4 7.36424 8.48 7.43421 8.56C7.57414 8.7 7.73407 8.8 7.91399 8.88C7.99395 8.91 8.07391 8.94 8.14388 8.95C8.26383 8.98 8.37377 9 8.50372 9C8.70362 9 8.89354 8.96 9.08345 8.88C9.16341 8.84 9.24338 8.8 9.31334 8.76C9.4033 8.7 9.48327 8.63 9.56323 8.56C9.6332 8.48 9.70316 8.4 9.76314 8.31C9.80312 8.24 9.8431 8.16 9.88308 8.08C9.91307 8 9.94305 7.93 9.95305 7.85C9.98304 7.73 10.003 7.62 10.003 7.5C10.003 7.38 9.98304 7.26 9.95305 7.15ZM4.92536 7.61C4.97534 7.73 5.00532 7.86 5.00532 8C5.00532 8.08 4.99533 8.16 4.97534 8.24C4.95534 8.29 4.94535 8.34 4.92536 8.38C4.87538 8.5 4.79542 8.61 4.70546 8.7C4.65548 8.75 4.59551 8.8 4.53554 8.84C4.49556 8.87 4.44558 8.9 4.38561 8.92C4.26566 8.97 4.13572 9 4.00578 9C3.91582 9 3.83586 8.99 3.7559 8.97C3.70592 8.95 3.65594 8.94 3.61596 8.92C3.49602 8.87 3.38607 8.8 3.29611 8.7C3.20615 8.61 3.12619 8.5 3.07621 8.38C3.05622 8.34 3.04622 8.29 3.02623 8.24C3.00624 8.16 3.00624 8.08 3.00624 8C3.00624 7.91 3.00624 7.83 3.02623 7.75C3.04622 7.7 3.05622 7.66 3.07621 7.61C3.12619 7.49 3.20615 7.38 3.29611 7.29C3.34608 7.24 3.40606 7.19 3.46603 7.15C3.50601 7.12 3.55599 7.1 3.61596 7.07C3.65594 7.05 3.70592 7.04 3.7559 7.03C3.83586 7.01 3.91582 7 4.00578 7C4.08574 7 4.16571 7.01 4.24567 7.03C4.29565 7.04 4.34562 7.05 4.38561 7.07C4.50555 7.12 4.6155 7.2 4.70546 7.29C4.75544 7.34 4.80541 7.4 4.8454 7.46C4.87538 7.5 4.89537 7.55 4.92536 7.61ZM2.01669 14.08C2.13664 14.03 2.25658 13.97 2.37653 13.93C2.89629 13.72 3.14618 13.15 2.94627 12.63C2.73636 12.11 2.16663 11.86 1.64686 12.06C1.46695 12.13 1.29703 12.21 1.11711 12.3C0.897209 12.4 0.687305 12.52 0.477402 12.66C-0.00237794 12.96 -0.142314 13.56 0.157549 14.04C0.457411 14.51 1.06713 14.65 1.53692 14.35C1.69684 14.25 1.85677 14.16 2.01669 14.08ZM7.37423 13.93C7.13434 14.02 6.90445 14.13 6.68455 14.26C6.42467 14.41 6.17478 14.59 5.9349 14.79C5.705 14.99 5.50509 15.2 5.31518 15.43C5.15525 15.63 4.99533 15.85 4.86539 16.08C4.58552 16.57 3.98579 16.73 3.49602 16.45C3.01624 16.16 2.85631 15.56 3.13618 15.08C3.32609 14.75 3.54599 14.44 3.77589 14.15C4.03577 13.84 4.31564 13.55 4.63549 13.28C4.95535 13 5.29519 12.76 5.65502 12.54C5.97488 12.36 6.30473 12.2 6.64457 12.06C7.16433 11.86 7.73407 12.11 7.94397 12.63C8.14388 13.15 7.894 13.72 7.37423 13.93ZM18.1593 16.23C17.9294 15.88 17.6695 15.57 17.3696 15.3C17.0698 15.03 16.7499 14.8 16.3901 14.61C16.0502 14.42 15.6804 14.27 15.3106 14.17C14.8908 14.05 14.451 14 14.0012 14C13.5414 14 13.1016 14.05 12.6818 14.17C12.312 14.27 11.9421 14.42 11.6023 14.61C11.2425 14.8 10.9226 15.03 10.6227 15.3C10.3229 15.57 10.063 15.88 9.8331 16.23C9.52325 16.7 8.91353 16.82 8.44374 16.51C7.97396 16.2 7.85401 15.59 8.16387 15.13C8.3138 14.9 8.47373 14.69 8.65365 14.48C8.84356 14.25 9.04347 14.04 9.26337 13.84C9.49326 13.63 9.72316 13.44 9.97304 13.27C10.1929 13.12 10.4128 12.98 10.6327 12.85C10.9026 12.71 11.1825 12.58 11.4624 12.47C11.7122 12.37 11.9721 12.29 12.232 12.22C12.4519 12.16 12.6618 12.12 12.8817 12.08C13.2515 12.03 13.6214 12 14.0012 12C14.371 12 14.7409 12.03 15.1107 12.08C15.3306 12.12 15.5405 12.16 15.7604 12.22C16.0203 12.29 16.2801 12.37 16.53 12.47C16.8099 12.58 17.0898 12.71 17.3596 12.85C17.5795 12.98 17.7994 13.12 18.0193 13.27C18.2692 13.44 18.4991 13.63 18.729 13.84C19.1488 14.23 19.5187 14.65 19.8285 15.13C20.1384 15.59 20.0184 16.2 19.5486 16.51C19.0789 16.82 18.4691 16.7 18.1593 16.23Z" fill="#107F8C"/>
</svg>
