<svg width="20" height="20" viewBox="0 0 20 20" fill="none" xmlns="http://www.w3.org/2000/svg">
<path fill-rule="evenodd" clip-rule="evenodd" d="M19.53 6.95071C18.97 5.17071 17.9 3.55071 16.46 2.36071C15.73 1.79071 14.78 1.55071 13.87 1.51071H13.35C10.88 1.64071 8.54998 2.80071 6.59998 4.27071C7.39998 5.15071 8.15998 6.14071 8.89998 7.09071C10.48 5.96071 12.17 4.92071 13.94 4.10071C14.51 5.19071 12.68 6.98071 11.92 7.61071C10.2 9.01071 8.23998 10.3807 5.96998 10.5607C5.54998 10.5907 5.12998 10.5407 4.73998 10.4407C3.68998 10.1707 2.86998 9.29071 2.52998 8.28071C2.36998 7.76071 2.36998 7.20071 2.46998 6.67071C2.64998 5.71071 3.13998 4.78071 3.80998 3.96071C5.33998 1.95071 8.06998 0.610709 11.19 0.610709C13.56 0.610709 14.2 0.980709 14.46 1.13071C14.55 1.18071 14.6 1.21071 14.65 1.19071C13.34 0.510709 11.88 0.0607092 10.4 0.000709167C10.32 0.000709167 10.24 0.000709167 10.16 0.000709167C9.91998 -0.00929083 9.66998 -0.00929083 9.43998 0.0107092C4.14998 0.280709 -0.180016 4.83071 -1.55522e-05 10.1407C-1.55522e-05 10.1907 -1.55522e-05 10.2707 0.00998445 10.3207V10.4307C0.00998445 10.5107 0.0199844 10.6007 0.0199844 10.6807C0.0199844 10.7007 0.0299844 10.7807 0.0399844 10.8007C0.189984 13.4607 1.63998 15.7607 4.41998 16.1807C5.07998 16.2607 5.74998 16.2607 6.40998 16.2207C9.95998 15.9707 13.67 14.1007 15.91 11.3407C16.92 10.0707 17.66 8.52071 17.76 6.89071C17.77 6.78071 17.76 6.67071 17.77 6.56071C18.9 7.81071 19.68 9.45071 19.84 11.1207C20.01 9.72071 19.95 8.31071 19.53 6.95071ZM2.25998 16.5407C4.16998 17.8807 6.52998 18.6707 9.07998 18.6707C13.67 18.6707 17.65 16.1007 19.55 12.3707C18.49 16.7407 14.54 20.0007 9.82998 20.0007C6.79998 20.0007 4.08998 18.6607 2.25998 16.5407Z" fill="url(#paint0_linear_52313_983)"/>
<defs>
<linearGradient id="paint0_linear_52313_983" x1="9.96154" y1="20.0007" x2="9.96155" y2="-0.00585999" gradientUnits="userSpaceOnUse">
<stop offset="2.71511e-08" stop-color="#9A41D9"/>
<stop offset="1" stop-color="#5F41D9"/>
</linearGradient>
</defs>
</svg>
