<svg width="32" height="32" viewBox="0 0 32 32" fill="none" xmlns="http://www.w3.org/2000/svg">
<path fill-rule="evenodd" clip-rule="evenodd" d="M7.8 7C7.36762 7 7 7.35681 7 7.81818V24.1818C7 24.6432 7.36762 25 7.8 25H22.2C22.6324 25 23 24.6432 23 24.1818V20.5C23 19.9477 23.4477 19.5 24 19.5C24.5523 19.5 25 19.9477 25 20.5V24.1818C25 25.7288 23.7558 27 22.2 27H7.8C6.24415 27 5 25.7288 5 24.1818V7.81818C5 6.27124 6.24415 5 7.8 5H14C14.5523 5 15 5.44772 15 6C15 6.55228 14.5523 7 14 7H7.8Z" fill="#107F8C"/>
<path d="M23.7071 4.29289C23.3166 3.90237 22.6834 3.90237 22.2929 4.29289C21.9024 4.68342 21.9024 5.31658 22.2929 5.70711L24.5858 8H18C17.4477 8 17 8.44772 17 9C17 9.55228 17.4477 10 18 10H24.5858L22.2929 12.2929C21.9024 12.6834 21.9024 13.3166 22.2929 13.7071C22.6834 14.0976 23.3166 14.0976 23.7071 13.7071L27.7071 9.70711C28.0976 9.31658 28.0976 8.68342 27.7071 8.29289L23.7071 4.29289Z" fill="#107F8C"/>
<path d="M21 17C21 16.4477 20.5523 16 20 16H13.4142L15.7071 13.7071C16.0976 13.3166 16.0976 12.6834 15.7071 12.2929C15.3166 11.9024 14.6834 11.9024 14.2929 12.2929L10.2929 16.2929C9.90237 16.6834 9.90237 17.3166 10.2929 17.7071L14.2929 21.7071C14.6834 22.0976 15.3166 22.0976 15.7071 21.7071C16.0976 21.3166 16.0976 20.6834 15.7071 20.2929L13.4142 18H20C20.5523 18 21 17.5523 21 17Z" fill="#107F8C"/>
</svg>
