<svg width="32" height="32" viewBox="0 0 32 32" fill="none" xmlns="http://www.w3.org/2000/svg">
<path fill-rule="evenodd" clip-rule="evenodd" d="M13 4C13 3.44772 12.5523 3 12 3C11.4477 3 11 3.44772 11 4V6H7C5.34315 6 4 7.34315 4 9V25C4 26.6569 5.34314 28 7 28H25C26.6569 28 28 26.6569 28 25V9C28 7.34315 26.6569 6 25 6H21V4C21 3.44772 20.5523 3 20 3C19.4477 3 19 3.44772 19 4V6H13V4ZM19 9.04912V8H13V9.04912C13 9.60141 12.5523 10.0491 12 10.0491C11.4477 10.0491 11 9.60141 11 9.04912V8H7C6.44772 8 6 8.44772 6 9V25C6 25.5523 6.44772 26 7 26H25C25.5523 26 26 25.5523 26 25V9C26 8.44771 25.5523 8 25 8H21V9.04912C21 9.60141 20.5523 10.0491 20 10.0491C19.4477 10.0491 19 9.60141 19 9.04912ZM12 17C12 14.7909 13.7909 13 16 13C18.2091 13 20 14.7909 20 17C20 18.2998 19.38 19.4548 18.4196 20.1855C18.4066 20.1947 18.3938 20.2044 18.3812 20.2143C17.7159 20.708 16.8921 21 16 21C13.7909 21 12 19.2091 12 17ZM18.861 22.2752C18.0106 22.7374 17.036 23 16 23C12.6863 23 10 20.3137 10 17C10 13.6863 12.6863 11 16 11C19.3137 11 22 13.6863 22 17C22 18.5515 21.4111 19.9654 20.4447 21.0305L22.2071 22.7929C22.5976 23.1834 22.5976 23.8166 22.2071 24.2071C21.8166 24.5976 21.1834 24.5976 20.7929 24.2071L18.861 22.2752Z" fill="#B2B8BF"/>
</svg>
