<svg width="20" height="20" viewBox="0 0 20 20" fill="none" xmlns="http://www.w3.org/2000/svg">
<path fill-rule="evenodd" clip-rule="evenodd" d="M5 7C5 4.23858 7.23858 2 10 2C10.5862 2 11.1467 2.10045 11.6668 2.28425C12.1875 2.4683 12.7588 2.19537 12.9428 1.67466C13.1269 1.15394 12.854 0.582618 12.3332 0.398571C11.6021 0.140164 10.8164 0 10 0C6.13401 0 3 3.13401 3 7C3 9.37993 4.18849 11.4819 6 12.7452V14C6 14.6753 6.14714 15.6575 6.74939 16.4988C7.07926 16.9596 7.52066 17.3427 8.08039 17.6065C8.02865 17.7273 8 17.8603 8 18C8 18.5523 8.44772 19 9 19H11C11.5523 19 12 18.5523 12 18C12 17.8603 11.9714 17.7273 11.9196 17.6065C12.4793 17.3427 12.9207 16.9596 13.2506 16.4988C13.8529 15.6575 14 14.6753 14 14V12.7453C15.489 11.7098 16.6638 10.087 16.9862 8.16546C17.0776 7.62078 16.7101 7.10516 16.1655 7.01378C15.6208 6.9224 15.1052 7.28987 15.0138 7.83454C14.802 9.09686 14.0378 10.2295 13.0018 11H7C5.78416 10.0864 5 8.6345 5 7ZM12 13H8V14C8 14.4358 8.10286 14.9536 8.37561 15.3346C8.60762 15.6586 9.04088 16 10 16C10.9591 16 11.3924 15.6586 11.6244 15.3346C11.8971 14.9536 12 14.4358 12 14V13Z" fill="#107F8C"/>
<path d="M15.7809 3.3753C16.1259 3.80657 16.056 4.43586 15.6247 4.78087L10.6247 8.78087C10.2635 9.06984 9.7512 9.07335 9.38606 8.78935L7.38606 7.2338C6.95011 6.89473 6.87158 6.26645 7.21065 5.8305C7.54972 5.39456 8.17799 5.31602 8.61394 5.65509L9.99128 6.72635L14.3753 3.21913C14.8066 2.87412 15.4359 2.94404 15.7809 3.3753Z" fill="#107F8C"/>
</svg>
