<svg width="32" height="32" viewBox="0 0 32 32" fill="none" xmlns="http://www.w3.org/2000/svg">
<path fill-rule="evenodd" clip-rule="evenodd" d="M12.5 10C12.9249 10 13.3035 10.2686 13.4439 10.6696L16.9439 20.6696C17.1263 21.1909 16.8516 21.7614 16.3303 21.9439C15.8091 22.1263 15.2386 21.8516 15.0561 21.3304L14.2405 19H10.7595L9.94386 21.3304C9.76141 21.8516 9.19093 22.1263 8.66965 21.9439C8.14837 21.7614 7.87369 21.1909 8.05614 20.6696L11.5561 10.6696C11.6965 10.2686 12.0751 10 12.5 10ZM13.5405 17L12.5 14.0271L11.4595 17H13.5405Z" fill="#107F8C"/>
<path d="M20 16.5C20 15.9477 19.5523 15.5 19 15.5C18.4477 15.5 18 15.9477 18 16.5L18 19C18 19.9839 18.3326 20.7898 18.975 21.3287C19.5862 21.8413 20.345 22 21 22C21.4219 22 21.8892 21.9322 22.3325 21.7446C22.5095 21.9034 22.7435 22 23 22C23.5523 22 24 21.5523 24 21V16.5C24 15.9477 23.5523 15.5 23 15.5C22.4477 15.5 22 15.9477 22 16.5V19C22 19.5095 21.8418 19.7051 21.7348 19.7943C21.5957 19.9102 21.3514 20 21 20C20.6355 20 20.3943 19.9087 20.2603 19.7963C20.1577 19.7102 20 19.5161 20 19L20 16.5Z" fill="#107F8C"/>
<path fill-rule="evenodd" clip-rule="evenodd" d="M4 10C4 6.68629 6.68629 4 10 4H22C25.3137 4 28 6.68629 28 10V22C28 25.3137 25.3137 28 22 28H10C6.68629 28 4 25.3137 4 22V10ZM10 6H22C24.2091 6 26 7.79086 26 10V22C26 24.2091 24.2091 26 22 26H10C7.79086 26 6 24.2091 6 22V10C6 7.79086 7.79086 6 10 6Z" fill="#107F8C"/>
</svg>
