<svg width="32" height="32" viewBox="0 0 32 32" fill="none" xmlns="http://www.w3.org/2000/svg">
<path d="M12.4474 4.10557C12.1659 3.96481 11.8345 3.96481 11.553 4.10557L3.55301 8.10557C3.05903 8.35256 2.8588 8.95324 3.10579 9.44721C3.35278 9.94119 3.95345 10.1414 4.44743 9.89443L12.0002 6.11803L19.553 9.89443C20.047 10.1414 20.6477 9.94119 20.8946 9.44721C21.1416 8.95324 20.9414 8.35256 20.4474 8.10557L12.4474 4.10557Z" fill="#B2B8BF"/>
<path d="M3.99951 22C3.44723 22 2.99951 22.4477 2.99951 23C2.99951 23.5523 3.44723 24 3.99951 24H11.9995C12.5518 24 12.9995 23.5523 12.9995 23C12.9995 22.4477 12.5518 22 11.9995 22H3.99951Z" fill="#B2B8BF"/>
<path d="M12 11C12.5523 11 13 11.4477 13 12V19C13 19.5523 12.5523 20 12 20C11.4477 20 11 19.5523 11 19V12C11 11.4477 11.4477 11 12 11Z" fill="#B2B8BF"/>
<path d="M8 12C8 11.4477 7.55228 11 7 11C6.44772 11 6 11.4477 6 12V19C6 19.5523 6.44772 20 7 20C7.55228 20 8 19.5523 8 19V12Z" fill="#B2B8BF"/>
<path fill-rule="evenodd" clip-rule="evenodd" d="M20 13C17.2386 13 15 15.2386 15 18C15 19.6358 15.7856 21.0882 17 22.0004V27C17 27.3466 17.1795 27.6684 17.4743 27.8507C17.7691 28.0329 18.1372 28.0494 18.4472 27.8944L20 27.118L21.5528 27.8944C21.8628 28.0494 22.2309 28.0329 22.5257 27.8507C22.8205 27.6684 23 27.3466 23 27V22.0004C24.2144 21.0882 25 19.6358 25 18C25 15.2386 22.7614 13 20 13ZM17 18C17 16.3431 18.3431 15 20 15C21.6569 15 23 16.3431 23 18C23 19.6569 21.6569 21 20 21C18.3431 21 17 19.6569 17 18ZM21 22.9C20.6769 22.9656 20.3425 23 20 23C19.6575 23 19.3231 22.9656 19 22.9V25.382L19.5528 25.1056C19.8343 24.9648 20.1657 24.9648 20.4472 25.1056L21 25.382V22.9Z" fill="#B2B8BF"/>
</svg>
