<svg width="20" height="20" viewBox="0 0 20 20" fill="none" xmlns="http://www.w3.org/2000/svg">
<path d="M2.66016 9.39062C3.26444 8.94231 4.08858 8.93709 4.69824 9.37695L4.8252 9.47852L4.82715 9.47949L4.9668 9.59668C5.67422 10.1629 6.54771 10.4707 7.44434 10.4707C7.86898 10.4707 8.28702 10.4016 8.68457 10.2695L8.7832 10.2422C9.27789 10.1317 9.78593 10.412 9.94922 10.9033C10.1234 11.4274 9.83952 11.9938 9.31543 12.168C8.71639 12.367 8.08531 12.4707 7.44434 12.4707C6.08106 12.4707 4.76081 11.9999 3.69922 11.1436C2.61932 12.2018 2.00011 13.6689 2 15.208C2 15.4671 2.01939 15.7334 2.05664 16.001H8L8.10254 16.0059C8.60666 16.0572 9 16.4833 9 17.001C8.99991 17.5186 8.60662 17.9448 8.10254 17.9961L8 18.001H1.82715C1.02474 18.0009 0.35193 17.4525 0.152344 16.707L0.119141 16.5557C0.0410072 16.1089 0 15.6551 0 15.208C0.000113462 13.0276 0.921665 10.9456 2.5332 9.49512L2.53418 9.49316L2.66016 9.39062Z" fill="#21A19A"/>
<path d="M13 11C13.5523 11 14 11.4477 14 12V17C14 17.5523 13.5523 18 13 18C12.4477 18 12 17.5523 12 17V12C12 11.4477 12.4477 11 13 11Z" fill="#21A19A"/>
<path d="M16 9C16.5523 9 17 9.44771 17 10V17C17 17.5523 16.5523 18 16 18C15.4477 18 15 17.5523 15 17V10C15 9.44771 15.4477 9 16 9Z" fill="#21A19A"/>
<path d="M19 7C19.5523 7 20 7.44772 20 8V17C20 17.5523 19.5523 18 19 18C18.4477 18 18 17.5523 18 17V8C18 7.44772 18.4477 7 19 7Z" fill="#21A19A"/>
<path fill-rule="evenodd" clip-rule="evenodd" d="M7.5 0C9.98528 0 12 2.01472 12 4.5C12 6.98528 9.98528 9 7.5 9C5.01472 9 3 6.98528 3 4.5C3 2.01472 5.01472 0 7.5 0ZM7.5 2C6.11929 2 5 3.11929 5 4.5C5 5.88071 6.11929 7 7.5 7C8.88071 7 10 5.88071 10 4.5C10 3.11929 8.88071 2 7.5 2Z" fill="#21A19A"/>
</svg>
