<svg width="20" height="20" viewBox="0 0 20 20" fill="none" xmlns="http://www.w3.org/2000/svg">
<path d="M4 2C3.44772 2 3 2.44772 3 3V17C3 17.5523 3.44772 18 4 18H14C14.5523 18 15 17.5523 15 17V14C15 13.4477 15.4477 13 16 13C16.5523 13 17 13.4477 17 14V17C17 18.6569 15.6569 20 14 20H4C2.34315 20 1 18.6569 1 17V3C1 1.34315 2.34315 0 4 0H9C9.55228 0 10 0.447715 10 1C10 1.55228 9.55228 2 9 2H4Z" fill="#B2B8BF"/>
<path d="M5 14C5 13.4477 5.44772 13 6 13H10C10.5523 13 11 13.4477 11 14C11 14.5523 10.5523 15 10 15H6C5.44772 15 5 14.5523 5 14Z" fill="#B2B8BF"/>
<path d="M6 9C5.44772 9 5 9.44771 5 10C5 10.5523 5.44772 11 6 11H7C7.55228 11 8 10.5523 8 10C8 9.44771 7.55228 9 7 9H6Z" fill="#B2B8BF"/>
<path fill-rule="evenodd" clip-rule="evenodd" d="M14.5 0C13.1193 0 12 1.11929 12 2.5C12 3.88071 13.1193 5 14.5 5C15.8807 5 17 3.88071 17 2.5C17 1.11929 15.8807 0 14.5 0ZM14 2.5C14 2.22386 14.2239 2 14.5 2C14.7761 2 15 2.22386 15 2.5C15 2.77614 14.7761 3 14.5 3C14.2239 3 14 2.77614 14 2.5Z" fill="#B2B8BF"/>
<path fill-rule="evenodd" clip-rule="evenodd" d="M17.4105 5.81407C16.8905 5.39191 16.1356 5.39474 15.6191 5.82619C15.3407 6.05872 14.9777 6.18274 14.5 6.18274C14.0069 6.18274 13.5981 6.05253 13.3373 5.84004L13.3354 5.83852C12.815 5.41678 12.0619 5.42038 11.5457 5.85014L11.5442 5.85136C10.5726 6.6634 10 7.84612 10 9.1038C10 9.36214 10.0254 9.62248 10.0734 9.87687C10.2033 10.564 10.811 11 11.4455 11H17.5545C18.1875 11 18.7969 10.5653 18.9267 9.87671C18.9752 9.62084 19 9.36103 19 9.1038C19 7.82499 18.4105 6.62823 17.4115 5.8149L17.4105 5.81407ZM14.5 8.18274C15.1745 8.18274 15.8537 8.03655 16.463 7.67248C16.7895 8.05541 16.9741 8.52042 16.9975 9H12.0025C12.0255 8.53052 12.2041 8.07319 12.5189 7.69429C13.1468 8.05036 13.857 8.18274 14.5 8.18274Z" fill="#B2B8BF"/>
</svg>
