<svg width="32" height="32" viewBox="0 0 32 32" fill="none" xmlns="http://www.w3.org/2000/svg">
<path d="M6 16.5C6 10.9772 10.4772 6.5 16 6.5C17.9358 6.5 19.7402 7.04902 21.2697 7.99938C21.7388 8.29087 22.3554 8.14688 22.6468 7.67778C22.9383 7.20868 22.7943 6.5921 22.3252 6.30062C20.4881 5.15907 18.3195 4.5 16 4.5C9.37258 4.5 4 9.87258 4 16.5C4 23.1274 9.37258 28.5 16 28.5C16.5523 28.5 17 28.0523 17 27.5C17 26.9477 16.5523 26.5 16 26.5C10.4772 26.5 6 22.0228 6 16.5Z" fill="#107F8C"/>
<path d="M27.9668 15.6011C27.926 15.0503 27.4464 14.6369 26.8956 14.6777C26.3448 14.7186 25.9314 15.1982 25.9723 15.7489C25.9906 15.9967 26 16.2472 26 16.5C26 16.6527 25.9966 16.8045 25.9898 16.9553C25.9652 17.507 26.3924 17.9743 26.9441 17.999C27.4959 18.0237 27.9632 17.5964 27.9878 17.0447C27.9959 16.8641 28 16.6825 28 16.5C28 16.1978 27.9888 15.898 27.9668 15.6011Z" fill="#107F8C"/>
<path d="M26.6247 10.7809C27.056 10.4359 27.1259 9.80657 26.7809 9.37531C26.4359 8.94404 25.8066 8.87412 25.3753 9.21913L15.9913 16.7264L12.1139 13.7106C11.678 13.3716 11.0497 13.4501 10.7106 13.8861C10.3716 14.322 10.4501 14.9503 10.8861 15.2894L15.3861 18.7894C15.7512 19.0734 16.2635 19.0698 16.6247 18.7809L26.6247 10.7809Z" fill="#107F8C"/>
<path d="M20 19C20.5523 19 21 19.4477 21 20V28C21 28.5523 20.5523 29 20 29C19.4477 29 19 28.5523 19 28V20C19 19.4477 19.4477 19 20 19Z" fill="#107F8C"/>
<path fill-rule="evenodd" clip-rule="evenodd" d="M23.8578 28.9405L24 27.9506C23.8578 28.9405 23.8574 28.9404 23.8578 28.9405L23.8597 28.9407L23.8621 28.9411L23.8684 28.9419L23.8871 28.9444C23.9022 28.9464 23.9224 28.9489 23.9476 28.9518C23.9979 28.9576 24.0677 28.9648 24.1545 28.972C24.3277 28.9862 24.5701 29 24.8594 29C25.431 29 26.2189 28.9461 27.0261 28.7142C27.8334 28.4823 28.7143 28.0561 29.395 27.2737C30.0899 26.4751 30.5 25.3926 30.5 24C30.5 22.6074 30.0899 21.5249 29.395 20.7263C28.7143 19.9439 27.8334 19.5177 27.0261 19.2858C26.2189 19.0539 25.431 19 24.8594 19C24.5701 19 24.3277 19.0138 24.1545 19.028C24.0677 19.0352 23.9979 19.0424 23.9476 19.0482C23.9224 19.0511 23.9022 19.0536 23.8871 19.0556L23.8684 19.0581L23.8621 19.0589L23.8597 19.0593L23.8587 19.0594C23.8582 19.0595 23.8578 19.0595 24 20.0494L23.8587 19.0594C23.3664 19.1301 23 19.552 23 20.0494V27.9506C23 28.448 23.3655 28.8697 23.8578 28.9405ZM26.4739 21.208C25.9625 21.0611 25.4355 21.0101 25 21.0014V26.9986C25.4355 26.9899 25.9625 26.9389 26.4739 26.792C27.0416 26.6288 27.5357 26.3637 27.8862 25.9609C28.2226 25.5743 28.5 24.9778 28.5 24C28.5 23.0222 28.2226 22.4257 27.8862 22.0391C27.5357 21.6363 27.0416 21.3712 26.4739 21.208Z" fill="#107F8C"/>
</svg>
