<svg width="20" height="20" viewBox="0 0 20 20" fill="none" xmlns="http://www.w3.org/2000/svg">
<path d="M3 3C3 2.44772 3.44772 2 4 2H7C7.55228 2 8 1.55228 8 1C8 0.447715 7.55228 0 7 0H4C2.34315 0 1 1.34315 1 3V17C1 18.6569 2.34315 20 4 20H14C15.6569 20 17 18.6569 17 17V12C17 11.4477 16.5523 11 16 11C15.4477 11 15 11.4477 15 12V17C15 17.5523 14.5523 18 14 18H4C3.44772 18 3 17.5523 3 17V3Z" fill="#21A19A"/>
<path d="M5 10C5 9.44771 5.44772 9 6 9H9C9.55228 9 10 9.44771 10 10C10 10.5523 9.55228 11 9 11H6C5.44772 11 5 10.5523 5 10Z" fill="#21A19A"/>
<path d="M6 13C5.44772 13 5 13.4477 5 14C5 14.5523 5.44772 15 6 15H12C12.5523 15 13 14.5523 13 14C13 13.4477 12.5523 13 12 13H6Z" fill="#21A19A"/>
<path fill-rule="evenodd" clip-rule="evenodd" d="M19.6972 0.283084C20.0931 0.668114 20.102 1.30122 19.7169 1.69716L14.3069 7.26051C13.9302 7.64791 13.3138 7.66596 12.9151 7.30129L9.32513 4.01809C8.91758 3.64537 8.88935 3.01283 9.26207 2.60528C9.6348 2.19774 10.2673 2.1695 10.6749 2.54223L13.5492 5.17091L18.2831 0.302842C18.6681 -0.0931005 19.3012 -0.101946 19.6972 0.283084Z" fill="#21A19A"/>
</svg>
