<svg width="32" height="32" viewBox="0 0 32 32" fill="none" xmlns="http://www.w3.org/2000/svg">
<path d="M26 21C26 20.4477 25.5523 20 25 20C24.4477 20 24 20.4477 24 21V26C24 26.5523 24.4477 27 25 27C25.5523 27 26 26.5523 26 26V21Z" fill="#107F8C"/>
<path d="M16.4221 22.8442C17.2075 22.8442 17.8442 22.2075 17.8442 21.4221C17.8442 20.6367 17.2075 20 16.4221 20C15.6367 20 15 20.6367 15 21.4221C15 22.2075 15.6367 22.8442 16.4221 22.8442Z" fill="#107F8C"/>
<path d="M17.8442 25.4221C17.8442 26.2075 17.2075 26.8442 16.4221 26.8442C15.6367 26.8442 15 26.2075 15 25.4221C15 24.6367 15.6367 24 16.4221 24C17.2075 24 17.8442 24.6367 17.8442 25.4221Z" fill="#107F8C"/>
<path d="M20.5 23C21.3284 23 22 22.3284 22 21.5C22 20.6716 21.3284 20 20.5 20C19.6716 20 19 20.6716 19 21.5C19 22.3284 19.6716 23 20.5 23Z" fill="#107F8C"/>
<path d="M21.8442 25.4221C21.8442 26.2075 21.2075 26.8442 20.4221 26.8442C19.6367 26.8442 19 26.2075 19 25.4221C19 24.6367 19.6367 24 20.4221 24C21.2075 24 21.8442 24.6367 21.8442 25.4221Z" fill="#107F8C"/>
<path fill-rule="evenodd" clip-rule="evenodd" d="M14 12C12.3431 12 11 13.3431 11 15V27C11 28.6569 12.3431 30 14 30H27C28.6569 30 30 28.6569 30 27V15C30 13.3431 28.6569 12 27 12H14ZM13 15C13 14.4477 13.4477 14 14 14H27C27.5523 14 28 14.4477 28 15V27C28 27.5523 27.5523 28 27 28H14C13.4477 28 13 27.5523 13 27V15Z" fill="#107F8C"/>
<path fill-rule="evenodd" clip-rule="evenodd" d="M4 5C4 2.79086 5.79086 1 8 1C10.2091 1 12 2.79086 12 5C12 7.20914 10.2091 9 8 9C5.79086 9 4 7.20914 4 5ZM8 3C6.89543 3 6 3.89543 6 5C6 6.10457 6.89543 7 8 7C9.10457 7 10 6.10457 10 5C10 3.89543 9.10457 3 8 3Z" fill="#107F8C"/>
<path d="M4.48887 11.0896C5.4766 11.827 6.69094 12.2258 7.93663 12.2258C9.29622 12.2258 10.6139 11.7519 11.6445 10.8832C12.0668 10.5272 12.1205 9.89632 11.7646 9.47405C11.4086 9.05178 10.7778 8.99802 10.3555 9.35398C9.69275 9.91264 8.83393 10.2258 7.93663 10.2258C7.0566 10.2258 6.21018 9.92342 5.5534 9.38358L5.55152 9.38204C4.92307 8.86804 4.00811 8.87267 3.38513 9.39608L3.38367 9.39731C1.8771 10.668 1 12.5081 1 14.4526C1 14.8509 1.03871 15.2537 1.1127 15.6501C1.26477 16.4618 1.98446 17 2.76223 17H8C8.55228 17 9 16.5523 9 16C9 15.4477 8.55228 15 8 15H3.03467C3.01157 14.8148 3 14.6315 3 14.4526C3 13.1954 3.53338 11.9811 4.48887 11.0896Z" fill="#107F8C"/>
<path d="M16 16C15.4477 16 15 16.4477 15 17C15 17.5523 15.4477 18 16 18H25C25.5523 18 26 17.5523 26 17C26 16.4477 25.5523 16 25 16H16Z" fill="#107F8C"/>
</svg>
