<svg width="20" height="20" viewBox="0 0 20 20" fill="none" xmlns="http://www.w3.org/2000/svg">
<g clip-path="url(#clip0_50485_882)">
<path d="M8.22129 2.19833C8.75988 2.07611 9.09742 1.54043 8.97521 1.00183C8.85299 0.463239 8.31731 0.125697 7.77871 0.24791C3.32525 1.25845 0 5.23976 0 10.0001C0 14.7604 3.32525 18.7417 7.77871 19.7523C8.31731 19.8745 8.85299 19.537 8.97521 18.9984C9.09742 18.4598 8.75988 17.9241 8.22129 17.8019C4.65879 16.9935 2 13.8061 2 10.0001C2 6.1941 4.65879 3.0067 8.22129 2.19833Z" fill="#107F8C"/>
<path d="M12.2213 0.24791C11.6827 0.125697 11.147 0.463239 11.0248 1.00183C10.9026 1.54043 11.2401 2.07611 11.7787 2.19833C14.768 2.87663 17.1235 5.23213 17.8018 8.22139C17.924 8.75998 18.4597 9.09752 18.9983 8.97531C19.5369 8.8531 19.8744 8.31741 19.7522 7.77882C18.9035 4.03857 15.9615 1.09662 12.2213 0.24791Z" fill="#107F8C"/>
<path fill-rule="evenodd" clip-rule="evenodd" d="M12.5 9C11.9477 9 11.5 9.44771 11.5 10V13H11C10.4477 13 10 13.4477 10 14C10 14.5523 10.4477 15 11 15H11.5V15.5H11C10.4477 15.5 10 15.9477 10 16.5C10 17.0523 10.4477 17.5 11 17.5H11.5V18C11.5 18.5523 11.9477 19 12.5 19C13.0523 19 13.5 18.5523 13.5 18V17.5H14C14.5523 17.5 15 17.0523 15 16.5C15 15.9477 14.5523 15.5 14 15.5H13.5V15H14.6408C15.6885 15 16.4383 14.4832 16.8925 13.8502C17.3191 13.2558 17.5 12.5481 17.5 12C17.5 11.4519 17.3191 10.7442 16.8925 10.1498C16.4383 9.5168 15.6885 9 14.6408 9H12.5ZM13.5 11V13H14.6408C14.9523 13 15.1321 12.8731 15.2677 12.6842C15.4309 12.4567 15.5 12.1644 15.5 12C15.5 11.8356 15.4309 11.5433 15.2677 11.3158C15.1321 11.1269 14.9523 11 14.6408 11H13.5Z" fill="#107F8C"/>
</g>
<defs>
<clipPath id="clip0_50485_882">
<rect width="20" height="20" fill="white"/>
</clipPath>
</defs>
</svg>
