<svg width="32" height="32" viewBox="0 0 32 32" fill="none" xmlns="http://www.w3.org/2000/svg">
<path fill-rule="evenodd" clip-rule="evenodd" d="M16.7191 3.37534C17.0641 2.94408 17.6934 2.87416 18.1247 3.21917L20.6247 5.21917C20.8619 5.40894 21 5.69625 21 6.00004C21 6.00418 21 6.00832 20.9999 6.01246C21 6.02249 21 6.03255 20.9999 6.04264C20.9934 6.42449 20.7737 6.7527 20.4561 6.91576L18.1247 8.78091C17.6934 9.12592 17.0641 9.05599 16.7191 8.62473C16.3741 8.19347 16.444 7.56418 16.8753 7.21917L17.1338 7.01234C16.4606 7.03136 15.7269 7.07513 14.7402 7.1619C12.4426 7.36393 9.86267 8.826 8.90744 10.889C8.67538 11.3901 8.08098 11.6083 7.57982 11.3762C7.07865 11.1442 6.8605 10.5498 7.09255 10.0486C8.42304 7.17522 11.7498 5.41713 14.565 5.16958C15.6376 5.07527 16.4333 5.02955 17.1627 5.01086L16.8753 4.78091C16.444 4.4359 16.3741 3.8066 16.7191 3.37534ZM13.0853 11.7688C14.1392 11.1635 15.3243 11 16 11C17.1907 11 18.951 11.2401 20.2197 12.0168C20.6908 12.3051 20.8389 12.9207 20.5505 13.3918C20.2622 13.8628 19.6466 14.0109 19.1755 13.7226C18.3615 13.2242 17.0315 13 16 13C15.5646 13 14.7497 13.1192 14.0814 13.5031C13.4691 13.8547 13 14.4022 13 15.3913C13 15.8581 13.2171 16.2006 13.8749 16.5496C14.5864 16.9271 15.574 17.174 16.7413 17.4643L16.7585 17.4686C17.8446 17.7387 19.1024 18.0515 20.0799 18.5953C21.1218 19.1749 22 20.1108 22 21.6087C22 22.5928 21.7532 23.4188 21.288 24.0822C20.827 24.7398 20.2024 25.1653 19.5632 25.4403C18.3252 25.973 16.8828 26 16 26C14.9899 26 13.8823 25.7032 12.9081 25.2985C11.9311 24.8927 10.9922 24.3384 10.331 23.7433C9.92052 23.3739 9.88724 22.7416 10.2567 22.3311C10.6262 21.9206 11.2585 21.8873 11.669 22.2567C12.1189 22.6617 12.8467 23.1074 13.6753 23.4515C14.5066 23.7968 15.3435 24 16 24C16.8984 24 17.9561 23.9545 18.7727 23.6031C19.1609 23.4361 19.4523 23.2167 19.6504 22.9341C19.8445 22.6573 20 22.2478 20 21.6087C20 21.0735 19.7532 20.7022 19.1076 20.343C18.4027 19.9509 17.4187 19.6937 16.2587 19.4052C16.2149 19.3943 16.1708 19.3834 16.1264 19.3723C15.0744 19.1112 13.8741 18.8132 12.9376 18.3164C11.9079 17.7701 11 16.8706 11 15.3913C11 13.5544 11.9754 12.4062 13.0853 11.7688Z" fill="#B2B8BF"/>
</svg>
