<svg width="32" height="32" viewBox="0 0 32 32" fill="none" xmlns="http://www.w3.org/2000/svg">
<path fill-rule="evenodd" clip-rule="evenodd" d="M14.7785 3.41294C14.1502 4.04128 13.8589 4.87901 13.9045 5.70153L10.703 8.90308C9.88044 8.85742 9.04271 9.14877 8.41436 9.77712L7.70726 10.4842C6.53568 11.6558 6.53569 13.5553 7.70726 14.7269L13.3641 20.3837C14.5357 21.5553 16.4352 21.5553 17.6068 20.3837L18.3139 19.6766C18.7001 19.2904 18.959 18.8251 19.0905 18.3328L23.9498 23.1921C25.1214 24.3637 27.0209 24.3637 28.1925 23.1921C29.364 22.0205 29.364 20.121 28.1925 18.9494L23.3326 14.0896C23.8255 13.9581 24.2914 13.6991 24.678 13.3124L25.3851 12.6053C26.5567 11.4337 26.5567 9.53425 25.3851 8.36268L19.7283 2.70583C18.5567 1.53426 16.6572 1.53426 15.4857 2.70583L14.7785 3.41294ZM20.0814 16.4952L21.4956 15.081L26.7782 20.3637C27.1688 20.7542 27.1688 21.3873 26.7782 21.7779C26.3877 22.1684 25.7546 22.1684 25.364 21.7779L20.0814 16.4952ZM16.9134 16.8622L11.2288 11.1776C10.8373 10.8009 10.2145 10.8054 9.82858 11.1913L9.12147 11.8984C8.73095 12.289 8.73095 12.9221 9.12147 13.3127L14.7783 18.9695C15.1688 19.36 15.802 19.36 16.1925 18.9695L16.8996 18.2624C17.2855 17.8765 17.2901 17.2537 16.9134 16.8622ZM20.4352 13.313L18.314 15.4341L12.6572 9.77729L14.7784 7.6561L20.4352 13.313ZM16.1928 6.24136C15.8022 5.85084 15.8022 5.21767 16.1928 4.82715L16.8999 4.12004C17.2904 3.72952 17.9236 3.72952 18.3141 4.12004L23.9709 9.7769C24.3615 10.1674 24.3615 10.8006 23.9709 11.1911L23.2638 11.8982C22.8733 12.2887 22.2401 12.2887 21.8496 11.8982L16.1928 6.24136Z" fill="#107F8C"/>
<path fill-rule="evenodd" clip-rule="evenodd" d="M6 23.0001C4.34315 23.0001 3 24.3432 3 26.0001V27.0001C3 27.5524 3.44772 28.0001 4 28.0001H19C19.5523 28.0001 20 27.5524 20 27.0001V26.0001C20 24.3432 18.6569 23.0001 17 23.0001H6ZM5 26.0001C5 25.4478 5.44772 25.0001 6 25.0001H17C17.5523 25.0001 18 25.4478 18 26.0001H5Z" fill="#107F8C"/>
</svg>
