<svg width="32" height="32" viewBox="0 0 32 32" fill="none" xmlns="http://www.w3.org/2000/svg">
<path d="M15.6334 8.5564C16.1857 8.5564 16.6334 9.00411 16.6334 9.5564V10.0572C17.5366 10.208 18.3026 10.6624 18.789 11.499C19.0666 11.9764 18.9046 12.5885 18.4272 12.8661C17.9498 13.1437 17.3377 12.9817 17.0601 12.5043C16.8947 12.2199 16.6065 11.9998 15.9128 11.9998C15.5101 11.9998 15.0959 12.1532 14.8431 12.4036C14.6373 12.6075 14.4548 12.952 14.6098 13.6046C14.6376 13.7214 14.7334 13.8885 15.0953 14.1179C15.429 14.3294 15.8432 14.5062 16.3562 14.7251L16.5481 14.8072C17.0983 15.043 17.7691 15.3394 18.3082 15.7632C18.8805 16.2131 19.3754 16.8628 19.4367 17.7879C19.5319 19.2235 19.0006 20.2379 18.1623 20.847C17.6678 21.2062 17.117 21.3883 16.6334 21.4725V22.0068C16.6334 22.5591 16.1857 23.0068 15.6334 23.0068C15.0811 23.0068 14.6334 22.5591 14.6334 22.0068V21.3964C13.8453 21.2068 13.1662 20.8081 12.719 20.1067C12.4221 19.641 12.559 19.0228 13.0247 18.7259C13.4904 18.429 14.1086 18.5658 14.4055 19.0315C14.5509 19.2597 14.9117 19.5356 15.9128 19.5356C16.2501 19.5356 16.6832 19.4495 16.9867 19.229C17.2202 19.0593 17.4949 18.7329 17.4411 17.9202C17.4279 17.7212 17.3426 17.5481 17.0722 17.3356C16.7688 17.097 16.3344 16.8916 15.7601 16.6454C15.6993 16.6193 15.6365 16.5926 15.5722 16.5653L15.5711 16.5648C15.0835 16.3577 14.5062 16.1125 14.0245 15.8071C13.4663 15.4532 12.8657 14.916 12.664 14.0669C12.36 12.7875 12.6975 11.7139 13.4355 10.9828C13.7843 10.6372 14.2 10.39 14.6334 10.2299V9.5564C14.6334 9.00411 15.0811 8.5564 15.6334 8.5564Z" fill="#B2B8BF"/>
<path fill-rule="evenodd" clip-rule="evenodd" d="M10 4C6.68629 4 4 6.68629 4 10V22C4 25.3137 6.68629 28 10 28H22C25.3137 28 28 25.3137 28 22V10C28 6.68629 25.3137 4 22 4H10ZM22 6H10C7.79086 6 6 7.79086 6 10V22C6 24.2091 7.79086 26 10 26H22C24.2091 26 26 24.2091 26 22V10C26 7.79086 24.2091 6 22 6Z" fill="#B2B8BF"/>
</svg>
