<svg width="32" height="32" viewBox="0 0 32 32" fill="none" xmlns="http://www.w3.org/2000/svg">
<path d="M3 10C3 7.79086 4.79086 6 7 6H25C27.2091 6 29 7.79086 29 10V16C29 16.5523 28.5523 17 28 17C27.4477 17 27 16.5523 27 16V10C27 8.89543 26.1046 8 25 8H7C5.89543 8 5 8.89543 5 10V18C5 19.1046 5.89543 20 7 20H14C14.5523 20 15 20.4477 15 21C15 21.5523 14.5523 22 14 22H7C4.79086 22 3 20.2091 3 18V10Z" fill="#21A19A"/>
<path d="M23 17C23.5523 17 24 17.4477 24 18V25C24 25.5523 23.5523 26 23 26C22.4477 26 22 25.5523 22 25V18C22 17.4477 22.4477 17 23 17Z" fill="#21A19A"/>
<path d="M28 19C28.5523 19 29 19.4477 29 20V25C29 25.5523 28.5523 26 28 26C27.4477 26 27 25.5523 27 25V20C27 19.4477 27.4477 19 28 19Z" fill="#21A19A"/>
<path d="M18 21C18.5523 21 19 21.4477 19 22V25C19 25.5523 18.5523 26 18 26C17.4477 26 17 25.5523 17 25V22C17 21.4477 17.4477 21 18 21Z" fill="#21A19A"/>
<path fill-rule="evenodd" clip-rule="evenodd" d="M16 10C13.7909 10 12 11.7909 12 14C12 16.2091 13.7909 18 16 18C18.2091 18 20 16.2091 20 14C20 11.7909 18.2091 10 16 10ZM14 14C14 12.8954 14.8954 12 16 12C17.1046 12 18 12.8954 18 14C18 15.1046 17.1046 16 16 16C14.8954 16 14 15.1046 14 14Z" fill="#21A19A"/>
</svg>
