<svg width="20" height="20" viewBox="0 0 20 20" fill="none" xmlns="http://www.w3.org/2000/svg">
<path fill-rule="evenodd" clip-rule="evenodd" d="M7.5 0C5.01472 0 3 2.01472 3 4.5C3 6.98528 5.01472 9 7.5 9C9.98528 9 12 6.98528 12 4.5C12 2.01472 9.98528 0 7.5 0ZM5 4.5C5 3.11929 6.11929 2 7.5 2C8.88071 2 10 3.11929 10 4.5C10 5.88071 8.88071 7 7.5 7C6.11929 7 5 5.88071 5 4.5Z" fill="#21A19A"/>
<path d="M7.44388 12.47C6.08032 12.47 4.76007 11.9992 3.69836 11.1425C2.61855 12.2008 2 13.6686 2 15.2077C2 15.4667 2.01876 15.7326 2.05599 16.0001H7C7.55228 16.0001 8 16.4478 8 17.0001C8 17.5524 7.55228 18.0001 7 18.0001H1.82736C0.971534 18.0001 0.263154 17.3765 0.118972 16.5552C0.0408382 16.1084 0 15.6548 0 15.2077C0 13.0272 0.921082 10.9447 2.53272 9.49411L2.53415 9.49282C3.18637 8.90804 4.16609 8.90208 4.82535 9.47748L4.8272 9.4791C5.55759 10.1198 6.48735 10.47 7.44388 10.47C7.99616 10.47 8.44388 10.9177 8.44388 11.47C8.44388 12.0222 7.99616 12.47 7.44388 12.47Z" fill="#21A19A"/>
<path fill-rule="evenodd" clip-rule="evenodd" d="M13.5145 10.1424C13.9881 10.4266 14.1417 11.0408 13.8575 11.5144L12.9662 13H16.0339L15.1425 11.5144C14.8584 11.0408 15.012 10.4266 15.4855 10.1424C15.9591 9.85827 16.5734 10.0118 16.8575 10.4854L18.3575 12.9854C18.3604 12.9903 18.3633 12.9951 18.3661 13H19C19.3393 13 19.6555 13.1721 19.8398 13.457C20.024 13.742 20.0512 14.1009 19.9119 14.4104L17.6619 19.4104C17.5004 19.7692 17.1435 20 16.75 20H12.25C11.8565 20 11.4996 19.7692 11.3381 19.4104L9.08808 14.4104C8.94883 14.1009 8.97601 13.742 9.16025 13.457C9.3445 13.1721 9.66067 13 10 13H10.6339C10.6368 12.9951 10.6396 12.9903 10.6425 12.9854L12.1425 10.4854C12.4267 10.0118 13.0409 9.85827 13.5145 10.1424ZM12.8966 18L11.5466 15H17.4534L16.1034 18H12.8966Z" fill="#21A19A"/>
</svg>
