<svg width="32" height="32" viewBox="0 0 32 32" fill="none" xmlns="http://www.w3.org/2000/svg">
<path d="M14.9662 4C14.9662 3.44772 15.414 3 15.9662 3C23.1165 3 28.9325 8.81551 28.9325 15.966C28.9325 16.5183 28.4848 16.966 27.9325 16.966C27.3802 16.966 26.9325 16.5183 26.9325 15.966C26.9325 9.92014 22.012 5 15.9662 5C15.414 5 14.9662 4.55228 14.9662 4Z" fill="#21A19A"/>
<path fill-rule="evenodd" clip-rule="evenodd" d="M21 25V26H20C19.4477 26 19 26.4477 19 27C19 27.5523 19.4477 28 20 28H21V29C21 29.5523 21.4477 30 22 30C22.5523 30 23 29.5523 23 29V28H23.9883C24.5406 28 24.9883 27.5523 24.9883 27C24.9883 26.4477 24.5406 26 23.9883 26H23V25H24.8383C25.9936 25 26.8412 24.5127 27.3645 23.7808C27.8517 23.0994 28 22.2913 28 21.6674V21.5C28 20.9309 27.9085 20.0891 27.4556 19.3579C26.9565 18.5521 26.0898 18 24.8383 18H22.2306C22.1916 18 22.1531 18.0022 22.1153 18.0066C22.0775 18.0022 22.039 18 22 18C21.4477 18 21 18.4477 21 19V23H20C19.4477 23 19 23.4477 19 24C19 24.5523 19.4477 25 20 25H21ZM23 20V23H24.8383C25.3679 23 25.6011 22.8084 25.7375 22.6176C25.9099 22.3765 26 22.0182 26 21.6674V21.5C26 21.0943 25.9257 20.6861 25.7553 20.411C25.6311 20.2105 25.417 20 24.8383 20H23Z" fill="#21A19A"/>
<path d="M4 14.966C4.55228 14.966 5 15.4137 5 15.966C5 22.0124 9.92048 26.9325 15.9662 26.9325C16.5185 26.9325 16.9662 27.3802 16.9662 27.9325C16.9662 28.4848 16.5185 28.9325 15.9662 28.9325C8.81592 28.9325 3 23.1169 3 15.966C3 15.4137 3.44772 14.966 4 14.966Z" fill="#21A19A"/>
<path d="M7.10187 3.94541C6.79552 3.48588 6.17465 3.3617 5.71512 3.66806C5.25559 3.97441 5.13142 4.59528 5.43777 5.05481L8.26982 9.30288V9.50011H6.76982C6.21754 9.50011 5.76982 9.94782 5.76982 10.5001C5.76982 11.0524 6.21754 11.5001 6.76982 11.5001H8.26982V12.0001H6.76982C6.21754 12.0001 5.76982 12.4478 5.76982 13.0001C5.76982 13.5524 6.21754 14.0001 6.76982 14.0001H8.26982V14.5001C8.26982 15.0524 8.71754 15.5001 9.26982 15.5001C9.82211 15.5001 10.2698 15.0524 10.2698 14.5001V14.0001H11.7698C12.3221 14.0001 12.7698 13.5524 12.7698 13.0001C12.7698 12.4478 12.3221 12.0001 11.7698 12.0001H10.2698V11.5001H11.7698C12.3221 11.5001 12.7698 11.0524 12.7698 10.5001C12.7698 9.94782 12.3221 9.50011 11.7698 9.50011H10.2698V9.30288L13.1019 5.05481C13.4082 4.59528 13.284 3.97441 12.8245 3.66806C12.365 3.3617 11.7441 3.48588 11.4378 3.94541L9.26982 7.19733L7.10187 3.94541Z" fill="#21A19A"/>
</svg>
