<svg width="32" height="32" viewBox="0 0 32 32" fill="none" xmlns="http://www.w3.org/2000/svg">
<path fill-rule="evenodd" clip-rule="evenodd" d="M15.5 6C15.5 4.34315 16.8431 3 18.5 3C20.1569 3 21.5 4.34315 21.5 6C21.5 7.65685 20.1569 9 18.5 9C16.8431 9 15.5 7.65685 15.5 6ZM18.5 7C19.0523 7 19.5 6.55228 19.5 6C19.5 5.44772 19.0523 5 18.5 5C17.9477 5 17.5 5.44772 17.5 6C17.5 6.55228 17.9477 7 18.5 7Z" fill="#B2B8BF"/>
<path fill-rule="evenodd" clip-rule="evenodd" d="M10 26.5C10 24.8431 11.3431 23.5 13 23.5C14.6569 23.5 16 24.8431 16 26.5C16 28.1569 14.6569 29.5 13 29.5C11.3431 29.5 10 28.1569 10 26.5ZM13 27.5C13.5523 27.5 14 27.0523 14 26.5C14 25.9477 13.5523 25.5 13 25.5C12.4477 25.5 12 25.9477 12 26.5C12 27.0523 12.4477 27.5 13 27.5Z" fill="#B2B8BF"/>
<path fill-rule="evenodd" clip-rule="evenodd" d="M26.5 16C24.8431 16 23.5 17.3431 23.5 19C23.5 20.6569 24.8431 22 26.5 22C28.1569 22 29.5 20.6569 29.5 19C29.5 17.3431 28.1569 16 26.5 16ZM27.5 19C27.5 19.5523 27.0523 20 26.5 20C25.9477 20 25.5 19.5523 25.5 19C25.5 18.4477 25.9477 18 26.5 18C27.0523 18 27.5 18.4477 27.5 19Z" fill="#B2B8BF"/>
<path fill-rule="evenodd" clip-rule="evenodd" d="M2.5 13.5C2.5 11.8431 3.84315 10.5 5.5 10.5C7.15685 10.5 8.5 11.8431 8.5 13.5C8.5 15.1569 7.15685 16.5 5.5 16.5C3.84315 16.5 2.5 15.1569 2.5 13.5ZM5.5 14.5C6.05228 14.5 6.5 14.0523 6.5 13.5C6.5 12.9477 6.05228 12.5 5.5 12.5C4.94772 12.5 4.5 12.9477 4.5 13.5C4.5 14.0523 4.94772 14.5 5.5 14.5Z" fill="#B2B8BF"/>
<path d="M12.6081 11.08C12.5566 11.1019 12.5066 11.1283 12.4586 11.1592C12.2811 11.2735 12.1472 11.4389 12.0712 11.6293C12.0388 11.7105 12.0169 11.7963 12.0067 11.8846C12.0016 11.9283 11.9993 11.9725 12 12.0167V18C12 18.5523 12.4477 19 13 19C13.5523 19 14 18.5523 14 18V15.4869L17.152 20.5301C17.4447 20.9985 18.0617 21.1408 18.53 20.8481C18.9983 20.5554 19.1407 19.9385 18.848 19.4701L15.6061 14.283L18.0862 15.4104C18.589 15.6389 19.1818 15.4166 19.4104 14.9138C19.6389 14.411 19.4166 13.8182 18.9138 13.5896L13.4138 11.0896C13.1562 10.9725 12.8638 10.9711 12.6081 11.08Z" fill="#B2B8BF"/>
<path d="M13.9623 5.14216C14.1126 5.6736 13.8036 6.22626 13.2722 6.37657C11.5133 6.87403 9.94991 7.84167 8.72716 9.13686C8.34802 9.53845 7.71512 9.55666 7.31353 9.17753C6.91194 8.79839 6.89373 8.16549 7.27286 7.7639C8.73773 6.21226 10.6134 5.05012 12.7278 4.45207C13.2593 4.30176 13.812 4.61072 13.9623 5.14216Z" fill="#B2B8BF"/>
<path d="M22.7686 7.27148C23.1453 6.86756 23.7781 6.84544 24.182 7.22208C25.8939 8.81838 27.1397 10.9114 27.6887 13.2739C27.8137 13.8118 27.479 14.3493 26.941 14.4743C26.4031 14.5993 25.8657 14.2646 25.7406 13.7266C25.284 11.7618 24.2471 10.0174 22.818 8.68483C22.4141 8.30819 22.392 7.67541 22.7686 7.27148Z" fill="#B2B8BF"/>
<path d="M5.14191 18.038C5.67335 17.8877 6.22602 18.1967 6.37633 18.7281C6.87379 20.4869 7.84142 22.0504 9.13661 23.2731C9.53821 23.6522 9.55641 24.2851 9.17728 24.6867C8.79815 25.0883 8.16524 25.1065 7.76365 24.7274C6.21201 23.2625 5.04988 21.3869 4.45182 19.2724C4.30151 18.741 4.61048 18.1883 5.14191 18.038Z" fill="#B2B8BF"/>
<path d="M24.6865 22.823C25.0881 23.2021 25.1063 23.835 24.7272 24.2366C23.1374 25.9205 21.0638 27.1457 18.7264 27.689C18.1884 27.814 17.651 27.4792 17.526 26.9413C17.4009 26.4033 17.7357 25.8659 18.2736 25.7409C20.2177 25.2891 21.9458 24.2693 23.2729 22.8636C23.652 22.4621 24.2849 22.4438 24.6865 22.823Z" fill="#B2B8BF"/>
</svg>
