<svg width="20" height="20" viewBox="0 0 20 20" fill="none" xmlns="http://www.w3.org/2000/svg">
<path d="M9.44532 0.167948C9.78122 -0.0559827 10.2188 -0.0559827 10.5547 0.167948L19.5546 6.16789C20.0142 6.47424 20.1383 7.09511 19.832 7.55463C19.5256 8.01416 18.9048 8.13833 18.4452 7.83198L10 2.20183L1.55479 7.83198C1.09527 8.13833 0.474404 8.01416 0.168054 7.55463C-0.138295 7.09511 -0.0141224 6.47424 0.445402 6.16789L9.44532 0.167948Z" fill="#B2B8BF"/>
<path d="M3.00009 9.99991C3.55237 9.99991 4.00009 10.4476 4.00009 10.9999V17.4515C4.00009 17.6428 4.2173 17.9998 4.75008 17.9998H15.25C15.7828 17.9998 16 17.6428 16 17.4515V10.9999C16 10.4476 16.4477 9.99991 17 9.99991C17.5522 9.99991 18 10.4476 18 10.9999V17.4515C18 18.9704 16.6502 19.9998 15.25 19.9998H4.75008C3.34988 19.9998 2.0001 18.9704 2.0001 17.4515V10.9999C2.0001 10.4476 2.44781 9.99991 3.00009 9.99991Z" fill="#B2B8BF"/>
<path fill-rule="evenodd" clip-rule="evenodd" d="M10.828 6.93915C10.6419 6.66447 10.3318 6.49994 10 6.49994C9.66828 6.49994 9.35812 6.66447 9.17208 6.93915L8.74419 7.57089C8.56429 7.83692 8.02618 8.64769 7.52929 9.55628C7.28125 10.0098 7.03353 10.5057 6.84531 10.9818C6.66695 11.4329 6.50006 11.9675 6.50006 12.4653C6.50006 14.4023 8.05636 15.9999 10 15.9999C11.9437 15.9999 13.5 14.4023 13.5 12.4653C13.5 11.9675 13.3331 11.4329 13.1547 10.9818C12.9665 10.5057 12.7188 10.0098 12.4708 9.55628C11.9739 8.64769 11.4354 7.83631 11.2555 7.57028L10.828 6.93915ZM9.284 10.5159C9.52941 10.0672 9.78811 9.641 10 9.30568C10.2119 9.641 10.4706 10.0672 10.7161 10.5159C10.9429 10.9307 11.1485 11.3469 11.2949 11.7171C11.4511 12.1122 11.5 12.358 11.5 12.4653C11.5 13.3237 10.8134 13.9999 10 13.9999C9.18668 13.9999 8.50004 13.3237 8.50004 12.4653C8.50004 12.358 8.549 12.1122 8.70521 11.7171C8.85156 11.3469 9.05713 10.9307 9.284 10.5159Z" fill="#B2B8BF"/>
</svg>
