<svg width="32" height="32" viewBox="0 0 32 32" fill="none" xmlns="http://www.w3.org/2000/svg">
<path fill-rule="evenodd" clip-rule="evenodd" d="M16.3399 5.00001C16.3437 5 16.3476 5 16.3514 5C16.9987 5 17.6327 5.05241 18.2491 5.15289C18.7942 5.24174 19.3081 4.87188 19.397 4.32679C19.4858 3.7817 19.1159 3.26779 18.5708 3.17894C17.8484 3.06118 17.1069 3 16.3514 3C9.00503 3 3 8.79329 3 16C3 23.2067 9.00503 29 16.3514 29C22.1482 29 27.0999 25.3992 28.9397 20.3419C29.1286 19.8229 28.8609 19.2491 28.3419 19.0603C27.8229 18.8714 27.2491 19.1391 27.0603 19.6581C25.9556 22.6946 23.5085 25.1295 20.4005 26.2798C20.447 26.2066 20.4927 26.1325 20.5375 26.0577C21.5507 24.3668 22.2754 22.0587 22.6179 19.4642C22.6902 18.9166 22.3049 18.4142 21.7574 18.3419C21.2098 18.2696 20.7074 18.6549 20.6351 19.2024C20.3168 21.6136 19.6554 23.6388 18.8219 25.0298C17.966 26.4584 17.0762 27 16.3515 27C15.4655 27 14.3406 26.1708 13.3792 24.0692C12.5551 22.2678 11.9912 19.7952 11.8816 17H17.5C18.0523 17 18.5 16.5522 18.5 16C18.5 15.4477 18.0523 15 17.5 15H11.8816C11.9912 12.2047 12.5551 9.73216 13.3792 7.93067C14.3364 5.83833 15.4557 5.00726 16.3399 5.00001ZM12.3051 5.71849C8.33134 7.18737 5.44211 10.7561 5.04641 15H9.88015C9.99047 11.966 10.5995 9.19953 11.5605 7.09868C11.7814 6.61588 12.0298 6.15091 12.3051 5.71849ZM5.04641 17C5.44208 21.2439 8.33135 24.8127 12.3052 26.2815C12.0299 25.8491 11.7814 25.3841 11.5605 24.9012C10.5995 22.8004 9.99047 20.0339 9.88015 17H5.04641Z" fill="#21A19A"/>
<path d="M25.7071 5.29289C25.3166 4.90237 24.6834 4.90237 24.2929 5.29289C23.9024 5.68342 23.9024 6.31658 24.2929 6.70711L26.5858 9H19.627C19.0747 9 18.627 9.44772 18.627 10C18.627 10.5523 19.0747 11 19.627 11H26.5858L24.2929 13.2929C23.9024 13.6834 23.9024 14.3166 24.2929 14.7071C24.6834 15.0976 25.3166 15.0976 25.7071 14.7071L29.7071 10.7071C30.0976 10.3166 30.0976 9.68342 29.7071 9.29289L25.7071 5.29289Z" fill="#21A19A"/>
</svg>
