<svg width="20" height="20" viewBox="0 0 20 20" fill="none" xmlns="http://www.w3.org/2000/svg">
<path d="M10 12C10.5523 12 11 12.4477 11 13V16C11 16.5171 11.1663 16.8146 11.3321 16.9804C11.5073 17.1556 11.7474 17.25 12 17.25C12.2526 17.25 12.4927 17.1556 12.6679 16.9804C12.8337 16.8146 13 16.5171 13 16C13 15.4477 13.4477 15 14 15C14.5523 15 15 15.4477 15 16C15 16.9829 14.6663 17.8104 14.0821 18.3946C13.5073 18.9694 12.7474 19.25 12 19.25C11.2526 19.25 10.4927 18.9694 9.91789 18.3946C9.33369 17.8104 9 16.9829 9 16V13C9 12.4477 9.44772 12 10 12Z" fill="#B2B8BF"/>
<path fill-rule="evenodd" clip-rule="evenodd" d="M10 0C10.5523 0 11 0.447715 11 1V2C11 2.01165 10.9998 2.02324 10.9994 2.03479C15.3729 2.34318 18.6111 4.66575 19.9123 7.56557C19.9736 7.70201 20.0017 7.84489 20.0002 7.98522C20.0066 8.40953 19.7403 8.80737 19.3163 8.94871L16.3163 9.94871C16.111 10.0171 15.8891 10.0171 15.6838 9.94871L13 9.05412L10.3258 9.94551C10.1251 10.0148 9.90083 10.0211 9.6838 9.94871L7.00003 9.05412L4.31626 9.94871C4.11099 10.0171 3.88907 10.0171 3.6838 9.94871L0.6838 8.94871C0.228791 8.79704 -0.0446262 8.34998 0.00568952 7.89181C0.0148527 7.78199 0.0424659 7.67183 0.0901475 7.56557C1.39117 4.6663 4.62838 2.34406 9.0006 2.03497C9.0002 2.02336 9 2.0117 9 2V1C9 0.447715 9.44772 0 10 0ZM10.0012 4L10.0001 4C6.37764 4 3.77121 5.54714 2.45736 7.43171L4.00003 7.94593L6.6838 7.05134C6.88907 6.98292 7.11099 6.98292 7.31625 7.05134L10 7.94593L12.6838 7.05134C12.8891 6.98292 13.111 6.98292 13.3163 7.05134L16 7.94593L17.5447 7.43105C16.2307 5.54678 13.6244 4 10.0024 4L10.0012 4Z" fill="#B2B8BF"/>
</svg>
