<svg width="20" height="20" viewBox="0 0 20 20" fill="none" xmlns="http://www.w3.org/2000/svg">
<path fill-rule="evenodd" clip-rule="evenodd" d="M7.4503 0.67371C7.58947 0.270531 7.96905 5.96046e-08 8.39557 0H11.5887C12.0152 0 12.3948 0.270531 12.5339 0.67371L13.1315 2.40493C13.1317 2.4056 13.1319 2.40611 13.1321 2.40648C13.1325 2.40671 13.133 2.40702 13.1338 2.40734C13.1345 2.40765 13.1351 2.40783 13.1356 2.40792C13.1359 2.40777 13.1364 2.40755 13.1371 2.40724L14.7913 1.60197C15.1748 1.41529 15.6345 1.49239 15.9361 1.79399L18.1901 4.04797C18.4917 4.34957 18.5688 4.80926 18.3821 5.19276L17.5769 6.84701C17.5765 6.84765 17.5763 6.84815 17.5762 6.84853C17.5763 6.84895 17.5764 6.84956 17.5768 6.85032C17.5771 6.85108 17.5774 6.85163 17.5776 6.852C17.578 6.85216 17.5785 6.85236 17.5792 6.85259L19.3263 7.45566C19.7295 7.59483 20 7.97441 20 8.40093V11.583C20 12.0096 19.7295 12.3891 19.3263 12.5283L17.5792 13.1314C17.5785 13.1316 17.578 13.1318 17.5776 13.132C17.5774 13.1323 17.5771 13.1329 17.5768 13.1336C17.5764 13.1344 17.5763 13.135 17.5762 13.1354C17.5763 13.1358 17.5765 13.1363 17.5769 13.137L18.3874 14.802C18.5741 15.1855 18.497 15.6452 18.1954 15.9468L15.9469 18.1952C15.6453 18.4968 15.1856 18.5739 14.8021 18.3872L13.1371 17.5767C13.1364 17.5764 13.1359 17.5762 13.1356 17.5761C13.1351 17.5761 13.1345 17.5763 13.1338 17.5766C13.133 17.5769 13.1325 17.5773 13.1321 17.5775C13.1319 17.5779 13.1317 17.5784 13.1315 17.579L12.5284 19.3263C12.3892 19.7295 12.0096 20 11.5831 20H8.4011C7.97458 20 7.595 19.7295 7.45583 19.3263L6.85272 17.579C6.85248 17.5784 6.85227 17.5779 6.85212 17.5775C6.85175 17.5773 6.8512 17.5769 6.85045 17.5766C6.8497 17.5763 6.84909 17.5761 6.84867 17.576C6.8483 17.5762 6.84779 17.5764 6.84714 17.5767L5.19272 18.3821C4.80922 18.5688 4.34952 18.4917 4.04793 18.1901L1.79403 15.9362C1.49244 15.6346 1.41533 15.1749 1.60201 14.7914L2.40736 13.137C2.40767 13.1363 2.40789 13.1358 2.40804 13.1354C2.40795 13.135 2.40778 13.1344 2.40746 13.1336C2.40715 13.1329 2.40684 13.1323 2.40661 13.132C2.40624 13.1318 2.40572 13.1316 2.40505 13.1314L0.673709 12.5338C0.270531 12.3946 0 12.015 0 11.5885L5.96046e-08 8.39549C5.96046e-08 7.96897 0.270531 7.58939 0.673709 7.45022L2.40505 6.85259C2.40572 6.85236 2.40624 6.85216 2.40661 6.852C2.40684 6.85163 2.40715 6.85108 2.40746 6.85032C2.40778 6.84956 2.40795 6.84895 2.40805 6.84853C2.40789 6.84816 2.40767 6.84765 2.40736 6.84701L1.60726 5.20337C1.42058 4.81987 1.49769 4.36018 1.79928 4.05858L4.05871 1.79916C4.36031 1.49756 4.82 1.42045 5.2035 1.60713L6.84714 2.40724C6.84778 2.40755 6.84828 2.40777 6.84865 2.40792C6.84907 2.40782 6.84969 2.40765 6.85045 2.40734C6.85121 2.40702 6.85176 2.40671 6.85213 2.40648C6.85228 2.40611 6.85248 2.4056 6.85272 2.40493L7.4503 0.67371ZM9.10829 2L8.74325 3.05751C8.35091 4.19414 7.05292 4.73178 5.97177 4.20549L4.96896 3.71734L3.71746 4.96883L4.20562 5.97164C4.73191 7.05279 4.19426 8.35078 3.05763 8.74313L2 9.1082V10.8758L3.05763 11.2408C4.19426 11.6332 4.73191 12.9312 4.20562 14.0123L3.71221 15.0259L4.95817 16.2719L5.97177 15.7785C7.05292 15.2522 8.35091 15.7898 8.74325 16.9265L9.11382 18H10.8704L11.241 16.9265C11.6333 15.7898 12.9313 15.2522 14.0125 15.7785L15.0367 16.277L16.2772 15.0365L15.7786 14.0123C15.2523 12.9312 15.79 11.6332 16.9266 11.2408L18 10.8703V9.11365L16.9266 8.74313C15.79 8.35078 15.2523 7.05279 15.7786 5.97164L16.2719 4.95822L15.0259 3.71217L14.0125 4.20549C12.9313 4.73178 11.6333 4.19414 11.241 3.05751L10.8759 2H9.10829Z" fill="#107F8C"/>
<path fill-rule="evenodd" clip-rule="evenodd" d="M10 8C8.89543 8 8 8.89543 8 10C8 11.1046 8.89543 12 10 12C11.1046 12 12 11.1046 12 10C12 8.89543 11.1046 8 10 8ZM6 10C6 7.79086 7.79086 6 10 6C12.2091 6 14 7.79086 14 10C14 12.2091 12.2091 14 10 14C7.79086 14 6 12.2091 6 10Z" fill="#107F8C"/>
</svg>
