<svg width="32" height="32" viewBox="0 0 32 32" fill="none" xmlns="http://www.w3.org/2000/svg">
<path fill-rule="evenodd" clip-rule="evenodd" d="M11 8V6C11 4.34315 12.3431 3 14 3H18C19.6569 3 21 4.34315 21 6V8H25C26.6569 8 28 9.34315 28 11V13C28 13.5523 27.5523 14 27 14C26.4477 14 26 13.5523 26 13V11C26 10.4477 25.5523 10 25 10H7C6.44772 10 6 10.4477 6 11V23C6 23.5523 6.44772 24 7 24H8C8.55228 24 9 24.4477 9 25C9 25.5523 8.55228 26 8 26H7C5.34315 26 4 24.6569 4 23V11C4 9.34315 5.34315 8 7 8H11ZM13 8V6C13 5.44772 13.4477 5 14 5H18C18.5523 5 19 5.44772 19 6V8H13Z" fill="#107F8C"/>
<path fill-rule="evenodd" clip-rule="evenodd" d="M15 19C15 18.4477 15.4477 18 16 18H20C20.5523 18 21 18.4477 21 19C21 19.5523 20.5523 20 20 20H16C15.4477 20 15 19.5523 15 19Z" fill="#107F8C"/>
<path fill-rule="evenodd" clip-rule="evenodd" d="M15 23C15 22.4477 15.4477 22 16 22H20C20.5523 22 21 22.4477 21 23C21 23.5523 20.5523 24 20 24H16C15.4477 24 15 23.5523 15 23Z" fill="#107F8C"/>
<path fill-rule="evenodd" clip-rule="evenodd" d="M13 14C11.3431 14 10 15.3431 10 17V27.979C9.99652 28.1363 10.0303 28.2969 10.1055 28.4474C10.3525 28.9414 10.9532 29.1416 11.4472 28.8947L12.6439 28.2963C12.8994 28.1686 13.1973 28.1562 13.4625 28.2623L14.3858 28.6316C15.101 28.9177 15.8989 28.9177 16.6141 28.6316L17.6286 28.2258C17.867 28.1305 18.133 28.1305 18.3714 28.2258L19.3858 28.6316C20.101 28.9177 20.8989 28.9177 21.6141 28.6316L22.5375 28.2623C22.8027 28.1562 23.1006 28.1686 23.3561 28.2963L24.5528 28.8947C25.0467 29.1416 25.6474 28.9414 25.8944 28.4474C25.9693 28.2976 26.0031 28.1379 26 27.9813V17C26 15.3431 24.6569 14 23 14H13ZM24 26.3962V17C24 16.4477 23.5523 16 23 16H13C12.4477 16 12 16.4477 12 17V26.3962C12.7063 26.1203 13.4949 26.1212 14.2053 26.4053L15.1286 26.7746C15.367 26.87 15.633 26.87 15.8714 26.7746L16.8858 26.3689C17.601 26.0828 18.3989 26.0828 19.1141 26.3689L20.1286 26.7746C20.367 26.87 20.633 26.87 20.8714 26.7746L21.7947 26.4053C22.5051 26.1212 23.2936 26.1203 24 26.3962Z" fill="#107F8C"/>
</svg>
