<svg width="32" height="32" viewBox="0 0 32 32" fill="none" xmlns="http://www.w3.org/2000/svg">
<path d="M20.9266 5.18073C21.3791 4.86402 22.0026 4.97405 22.3193 5.4265L25.5208 10H29C29.3466 10 29.6685 10.1795 29.8507 10.4743C30.0329 10.7691 30.0494 11.1372 29.8944 11.4472L27.8944 15.4472C27.6474 15.9412 27.0468 16.1414 26.5528 15.8944C26.0588 15.6474 25.8586 15.0468 26.1056 14.5528L27.382 12H25.0109C25.0043 12.0001 24.9976 12.0001 24.991 12H8.01155C8.00345 12.0001 7.99535 12.0001 7.98725 12H5.38743L9.72077 25H14C14.5523 25 15 25.4477 15 26C15 26.5523 14.5523 27 14 27H9.00001C8.56958 27 8.18744 26.7246 8.05132 26.3162L3.05132 11.3162C2.94967 11.0113 3.00081 10.6761 3.18877 10.4153C3.37672 10.1545 3.67856 10 4.00001 10H7.51944L11.2192 5.37534C11.5642 4.94408 12.1935 4.87416 12.6247 5.21917C13.056 5.56418 13.1259 6.19347 12.7809 6.62473L10.0807 10H23.0795L20.6809 6.57343C20.3641 6.12098 20.4742 5.49745 20.9266 5.18073Z" fill="#107F8C"/>
<path fill-rule="evenodd" clip-rule="evenodd" d="M20.99 29.0796H20.9956L20.9956 27.23C21.2101 27.35 21.4371 27.445 21.6747 27.5146C22.0282 27.6137 22.3761 27.6635 22.7183 27.6635C23.3121 27.6635 23.8287 27.5538 24.2654 27.3311C24.7026 27.1081 25.0381 26.7837 25.2703 26.359C25.5067 25.9341 25.623 25.4229 25.623 24.8287C25.623 24.3083 25.5036 23.8549 25.2615 23.4719C25.0196 23.0893 24.6706 22.794 24.2181 22.5851C24.1825 22.5687 24.1463 22.5529 24.1095 22.5378C24.4197 22.3427 24.6707 22.099 24.861 21.8064C25.0984 21.4416 25.2168 21.0328 25.2168 20.5821C25.2168 20.0406 25.091 19.576 24.8354 19.1923C24.5807 18.8059 24.221 18.5128 23.7598 18.3126C23.3032 18.1083 22.7691 18.0074 22.1597 18.0074C21.5855 18.0074 21.0587 18.1264 20.5812 18.3651C20.1079 18.6039 19.727 18.939 19.4398 19.3697C19.1508 19.8032 19.0074 20.3078 19.0074 20.8804V29.0003C19.0074 29.5487 19.452 29.9932 20.0003 29.9932C20.5218 29.9932 20.9492 29.5905 20.99 29.0796ZM23.1072 21.3782C23.0372 21.557 22.9229 21.6937 22.7648 21.7901C22.6994 21.831 22.3812 21.8638 22.0297 21.8879H20.9956V20.8804C20.9956 20.6115 21.0465 20.3837 21.145 20.1943C21.2485 20.0034 21.3871 19.8577 21.5598 19.7557C21.7369 19.6494 21.9363 19.5957 22.1597 19.5957C22.4061 19.5957 22.6031 19.6502 22.7561 19.7534L22.7573 19.7542C22.9137 19.8559 23.0282 19.9899 23.1022 20.1574L23.1028 20.1588C23.1824 20.3299 23.2223 20.513 23.2223 20.7091C23.2223 20.9723 23.1832 21.1941 23.1078 21.3768L23.1072 21.3782ZM22.2994 26.0754C21.9349 26.0754 21.6196 26.0215 21.3516 25.9161C21.2173 25.8611 21.0988 25.7974 20.9956 25.7254V23.3979L22.3247 23.398L22.3263 23.3979C22.6152 23.3981 22.8538 23.4573 23.0458 23.5709L23.0468 23.5715C23.2393 23.6815 23.3851 23.8408 23.4841 24.0509C23.5836 24.2578 23.6349 24.5077 23.6349 24.8033C23.6349 25.0492 23.5806 25.2661 23.4738 25.456L23.4732 25.4571C23.3707 25.6462 23.2205 25.7967 23.0214 25.9082C22.8289 26.0182 22.5895 26.0754 22.2994 26.0754Z" fill="#107F8C"/>
</svg>
