<svg width="20" height="20" viewBox="0 0 20 20" fill="none" xmlns="http://www.w3.org/2000/svg">
<path fill-rule="evenodd" clip-rule="evenodd" d="M17.8679 7.41981C18.0465 7.10777 18.0438 6.72388 17.8609 6.41435L14.3609 0.491271C14.181 0.186798 13.8537 0 13.5 0H6.5C6.14634 0 5.81899 0.186798 5.63907 0.49127L2.13907 6.41435C1.95617 6.72388 1.9535 7.10777 2.13209 7.4198L4.46543 11.4967C4.73976 11.9761 5.35073 12.1422 5.83006 11.8679C6.30939 11.5936 6.47557 10.9826 6.20124 10.5033L4.15679 6.93111L7.07063 2L12.9294 2L15.8432 6.93111L13.7988 10.5033C13.5244 10.9826 13.6906 11.5936 14.1699 11.8679C14.6493 12.1422 15.2602 11.9761 15.5346 11.4967L17.8679 7.41981ZM11.0002 10C11.0002 9.44771 10.5525 9 10.0002 9C9.44794 9 9.00022 9.44771 9.00022 10V13C9.00022 13.5523 9.44794 14 10.0002 14C11.1048 14 12.0002 14.8954 12.0002 16C12.0002 17.1046 11.1048 18 10.0002 18C9.13097 18 8.3888 17.4449 8.11377 16.6668C7.92972 16.146 7.3584 15.8731 6.83768 16.0572C6.31696 16.2412 6.04404 16.8125 6.22809 17.3332C6.77673 18.8855 8.25703 20 10.0002 20C12.2094 20 14.0002 18.2091 14.0002 16C14.0002 14.1362 12.7254 12.5701 11.0002 12.126V10Z" fill="#B2B8BF"/>
</svg>
