<svg width="32" height="32" viewBox="0 0 32 32" fill="none" xmlns="http://www.w3.org/2000/svg">
<path d="M12.6667 14.5C12.2362 14.5 11.8541 14.7754 11.718 15.1838L11.0513 17.1838C10.8767 17.7077 11.1598 18.274 11.6838 18.4487C12.2077 18.6233 12.774 18.3402 12.9487 17.8162L13.3874 16.5H18C18.5523 16.5 19 16.0523 19 15.5C19 14.9477 18.5523 14.5 18 14.5H12.6667Z" fill="#21A19A"/>
<path fill-rule="evenodd" clip-rule="evenodd" d="M9.26214 13.5513C9.67049 12.3263 10.8169 11.5 12.1082 11.5H19.8918C21.1831 11.5 22.3295 12.3263 22.7379 13.5513L24.9487 20.1838C25.0503 20.4887 24.9992 20.8239 24.8113 21.0847C24.6233 21.3455 24.3215 21.5 24 21.5H8.00001C7.67856 21.5 7.37672 21.3455 7.18877 21.0847C7.00081 20.8239 6.94967 20.4887 7.05132 20.1838L9.26214 13.5513ZM12.1082 13.5C11.6778 13.5 11.2956 13.7754 11.1595 14.1838L9.38743 19.5H22.6126L20.8405 14.1838C20.7044 13.7754 20.3223 13.5 19.8918 13.5H12.1082Z" fill="#21A19A"/>
<path fill-rule="evenodd" clip-rule="evenodd" d="M4 10C4 6.68629 6.68629 4 10 4H22C25.3137 4 28 6.68629 28 10V22C28 25.3137 25.3137 28 22 28H10C6.68629 28 4 25.3137 4 22V10ZM10 6H22C24.2091 6 26 7.79086 26 10V22C26 24.2091 24.2091 26 22 26H10C7.79086 26 6 24.2091 6 22V10C6 7.79086 7.79086 6 10 6Z" fill="#21A19A"/>
</svg>
