<svg width="32" height="32" viewBox="0 0 32 32" fill="none" xmlns="http://www.w3.org/2000/svg">
<path fill-rule="evenodd" clip-rule="evenodd" d="M15.977 7.99989C18.3952 8.00003 20.4127 9.71691 20.8764 11.9989H24.4877C26.9734 11.999 28.9904 14.0113 28.9965 16.497L29.0073 20.9999C29.0112 22.6595 27.6669 24.0067 26.0073 24.0067H24.8178C24.4035 25.1673 23.2946 25.9979 21.9917 25.9979C20.6855 25.9979 19.5744 25.163 19.1625 23.9979H13.8217C13.4099 25.1629 12.2986 25.9977 10.9926 25.9979C9.68647 25.9979 8.57443 25.163 8.16255 23.9979H6.99263C5.88806 23.9979 4.99263 23.1025 4.99263 21.9979V18.9784C4.99263 18.4261 5.44034 17.9784 5.99263 17.9784C6.54471 17.9787 6.99263 18.4263 6.99263 18.9784V21.4979C6.99263 21.7741 7.21649 21.9979 7.49263 21.9979H8.16255C8.57441 20.8328 9.68644 19.9979 10.9926 19.9979C12.2986 19.9981 13.4099 20.8329 13.8217 21.9979H18.4897C18.766 21.9979 18.9899 21.7742 18.9897 21.4979L18.9868 19.7352H16.4497C15.8974 19.7352 15.4497 19.2874 15.4497 18.7352C15.4497 18.183 15.8974 17.7353 16.4497 17.7352H18.9838L18.977 12.995C18.9743 11.3402 17.6318 10.0001 15.977 9.99989H15.9565C15.4045 9.99966 14.9566 9.55197 14.9565 8.99989C14.9565 8.44775 15.4044 8.00012 15.9565 7.99989H15.977ZM10.9926 21.9979C10.4404 21.9979 9.99274 22.4457 9.99263 22.9979C9.99263 23.5502 10.4403 23.9979 10.9926 23.9979C11.5447 23.9977 11.9926 23.5501 11.9926 22.9979C11.9925 22.4459 11.5446 21.9982 10.9926 21.9979ZM21.9917 21.9979C21.4496 21.998 21.0078 22.4295 20.9917 22.9677L20.9926 22.997L20.9917 23.0204C21.0035 23.5624 21.4468 23.9979 21.9917 23.9979C22.5439 23.9979 22.9917 23.5502 22.9917 22.9979C22.9915 22.4457 22.5439 21.9979 21.9917 21.9979ZM20.9877 20.1698C21.3016 20.0584 21.6396 19.9979 21.9917 19.9979C23.301 19.9979 24.4143 20.8371 24.8237 22.0067H26.0073C26.5604 22.0067 27.0085 21.5579 27.0073 21.0048L27.0004 17.9989H20.9848L20.9877 20.1698ZM20.9809 15.9989H26.9448C26.7094 14.8573 25.6985 13.999 24.4877 13.9989H20.978L20.9809 15.9989Z" fill="#107F8C"/>
<path fill-rule="evenodd" clip-rule="evenodd" d="M12.31 5.85634C12.6454 5.77484 13.0043 5.87195 13.2534 6.12099C13.5376 6.40546 13.6228 6.83249 13.4711 7.20497L9.58345 16.7518C9.42547 17.1391 9.04254 17.3865 8.62446 17.3729C8.20629 17.3592 7.84077 17.0873 7.70845 16.6903L6.45259 12.9218L2.68403 11.6659C2.28711 11.5336 2.01513 11.1681 2.00142 10.7499C1.98784 10.3318 2.23522 9.94889 2.62251 9.79091L12.1684 5.90224L12.31 5.85634ZM5.88032 10.6229L7.55903 11.1825L7.66743 11.2265C7.9137 11.3421 8.10474 11.554 8.19185 11.8153L8.75142 13.4921L10.7241 8.64931L5.88032 10.6229Z" fill="#107F8C"/>
</svg>
