<svg width="32" height="32" viewBox="0 0 32 32" fill="none" xmlns="http://www.w3.org/2000/svg">
<path fill-rule="evenodd" clip-rule="evenodd" d="M15.7195 4.04028C15.9026 3.98657 16.0974 3.98657 16.2805 4.04028L26.2805 6.96313C26.707 7.08813 27 7.47876 27 7.92309V13.6008C27 18.9191 24.2012 23.8742 19.5669 26.8752L16.5449 28.8391C16.2136 29.0539 15.7864 29.0539 15.4551 28.8391L12.4302 26.8732C7.7998 23.8498 5 18.8967 5 13.6008V7.92309C5 7.47876 5.29297 7.08813 5.71948 6.96313L15.7195 4.04028ZM7 8.67309V13.6008C7 18.176 9.41943 22.5188 13.5227 25.1975L16 26.8078L18.4797 25.1965C22.5791 22.5422 25 18.2014 25 13.6008V8.67309L16 6.04223L7 8.67309ZM15.553 9.10571C15.8345 8.96508 16.166 8.96508 16.4475 9.10571L22.4475 12.1057C22.9414 12.3527 23.1416 12.9533 22.8945 13.4475C22.6477 13.9416 22.0471 14.1418 21.553 13.8947L16.0002 11.1184L10.4475 13.8947C9.95361 14.1418 9.35278 13.9416 9.10571 13.4475C8.85889 12.9533 9.05908 12.3527 9.55298 12.1057L15.553 9.10571ZM13 16.0002C13 15.4475 12.5522 15.0002 12 15.0002C11.4478 15.0002 11 15.4475 11 16.0002V20.0002C11 20.5549 11.4478 21.0002 12 21.0002C12.5522 21.0002 13 20.5549 13 20.0002V16.0002ZM17 16.0002C17 15.4455 16.5522 15.0002 16 15.0002C15.4478 15.0002 15 15.4455 15 16.0002V20.0002C15 20.5549 15.4478 21.0002 16 21.0002C16.5522 21.0002 17 20.5549 17 20.0002V16.0002ZM21 16.0002C21 15.4475 20.5522 15.0002 20 15.0002C19.4478 15.0002 19 15.4475 19 16.0002V20.0002C19 20.5529 19.4478 21.0002 20 21.0002C20.5522 21.0002 21 20.5529 21 20.0002V16.0002Z" fill="#B2B8BF"/>
</svg>
