<svg width="20" height="20" viewBox="0 0 20 20" fill="none" xmlns="http://www.w3.org/2000/svg">
<path d="M5.30919 5.81203C5.32083 5.71828 5.3286 5.62078 5.3286 5.51953C5.3286 5.41828 5.32083 5.32078 5.30531 5.22703C5.40533 5.15155 5.58843 4.9698 5.74155 4.81231C5.89645 4.65298 5.92162 4.40966 5.80761 4.21893L5.56208 3.80821C5.45257 3.62502 5.23887 3.53127 5.03061 3.57801C4.79477 3.63094 4.50981 3.69831 4.41657 3.73453C4.25356 3.61453 4.0828 3.51703 3.89263 3.44203C3.8783 3.34418 3.80023 3.083 3.73143 2.86342C3.66695 2.65763 3.47533 2.51953 3.25967 2.51953H2.74242C2.52576 2.51953 2.33349 2.65891 2.26969 2.86596C2.20197 3.08576 2.1253 3.34618 2.11126 3.44203C1.92109 3.51703 1.74645 3.61828 1.58733 3.73453C1.49328 3.698 1.20868 3.63072 0.973172 3.5779C0.764968 3.53121 0.551359 3.62496 0.441875 3.80811L0.19904 4.21433C0.0837238 4.40723 0.111079 4.65358 0.268558 4.81392C0.431209 4.97953 0.622539 5.16964 0.698583 5.22703C0.68306 5.32078 0.671417 5.42203 0.671417 5.51953C0.671417 5.61703 0.679179 5.71828 0.694702 5.81203C0.618228 5.86975 0.427054 6.0597 0.264574 6.22517C0.107139 6.3855 0.079819 6.63179 0.195114 6.82466L0.437929 7.23085C0.547445 7.41405 0.761141 7.50779 0.969399 7.46105C1.20524 7.40812 1.4902 7.34075 1.58345 7.30453C1.74645 7.42453 1.91721 7.52203 2.10738 7.59703C2.12162 7.69426 2.19977 7.95569 2.26861 8.17552C2.33308 8.38137 2.52474 8.51953 2.74044 8.51953H3.2577C3.47431 8.51953 3.66655 8.38022 3.73036 8.17322C3.79803 7.95369 3.87462 7.69353 3.88875 7.59703C4.07892 7.52203 4.25356 7.42078 4.41268 7.30453C4.50673 7.34106 4.79133 7.40834 5.02684 7.46116C5.23505 7.50785 5.44865 7.4141 5.55814 7.23096L5.80213 6.8228C5.9169 6.63081 5.8904 6.38574 5.73458 6.22527C5.57387 6.05977 5.38475 5.86974 5.30919 5.81203Z" fill="#B2B8BF"/>
<path fill-rule="evenodd" clip-rule="evenodd" d="M8.00275 2.76953C7.45046 2.76953 7.00275 3.21725 7.00275 3.76953C7.00275 4.32182 7.45057 4.76953 8.00285 4.76953C9.65767 4.76953 11 6.10949 11.0028 7.7643L11.0127 14.2576H8.96998C8.51986 13.3524 7.58565 12.7305 6.50616 12.7305C5.42668 12.7305 4.49247 13.3524 4.04235 14.2576H2V10.4862C2 9.93387 1.55228 9.48615 1 9.48615C0.447715 9.48615 0 9.93387 0 10.4862V14.2576C0 15.3621 0.895428 16.2576 2 16.2576H3.8675C4.20281 17.3979 5.25726 18.2305 6.50616 18.2305C7.75507 18.2305 8.80952 17.3979 9.14483 16.2576H11.1431C11.4781 17.3984 12.5328 18.2314 13.7821 18.2314C15.0284 18.2314 16.0811 17.4024 16.4186 16.2656H17.0027C18.6649 16.2656 20.0102 14.8692 20.0027 13.1516L19.9909 10.449C19.9807 8.13555 18.1629 6.26562 15.9241 6.26562H12.7727C12.1343 4.2388 10.2398 2.76953 8.00275 2.76953ZM17.0027 14.199H16.2153C15.7544 13.3262 14.8377 12.7314 13.7821 12.7314C13.5143 12.7314 13.2555 12.7697 13.0107 12.8411L13.0086 11.498L17.9954 11.498L18.0027 13.161C18.0052 13.7335 17.5568 14.199 17.0027 14.199ZM15.9241 8.33229C16.7273 8.33229 17.4239 8.80588 17.7659 9.49805H13.0055L13.0037 8.33229H15.9241ZM5.75616 15.4805C5.75616 15.0663 6.09195 14.7305 6.50616 14.7305C6.92038 14.7305 7.25616 15.0663 7.25616 15.4805C7.25616 15.8947 6.92038 16.2305 6.50616 16.2305C6.09195 16.2305 5.75616 15.8947 5.75616 15.4805ZM13.7821 14.7314C13.3679 14.7314 13.0321 15.0672 13.0321 15.4814C13.0321 15.8957 13.3679 16.2314 13.7821 16.2314C14.1963 16.2314 14.5321 15.8957 14.5321 15.4814C14.5321 15.0672 14.1963 14.7314 13.7821 14.7314Z" fill="#B2B8BF"/>
</svg>
