<svg width="20" height="20" viewBox="0 0 20 20" fill="none" xmlns="http://www.w3.org/2000/svg">
<path fill-rule="evenodd" clip-rule="evenodd" d="M7.5 0C5.01472 0 3 2.01472 3 4.5C3 6.98528 5.01472 9 7.5 9C9.98528 9 12 6.98528 12 4.5C12 2.01472 9.98528 0 7.5 0ZM5 4.5C5 3.11929 6.11929 2 7.5 2C8.88071 2 10 3.11929 10 4.5C10 5.88071 8.88071 7 7.5 7C6.11929 7 5 5.88071 5 4.5Z" fill="#B2B8BF"/>
<path d="M7.44388 12.47C6.08032 12.47 4.76007 11.9992 3.69836 11.1425C2.61855 12.2008 2 13.6686 2 15.2077C2 15.4667 2.01876 15.7326 2.05599 16.0001H7C7.55228 16.0001 8 16.4478 8 17.0001C8 17.5524 7.55228 18.0001 7 18.0001H1.82736C0.971534 18.0001 0.263154 17.3765 0.118972 16.5552C0.0408382 16.1084 0 15.6548 0 15.2077C0 13.0272 0.921082 10.9447 2.53272 9.49411L2.53415 9.49282C3.18637 8.90804 4.16609 8.90208 4.82535 9.47748L4.8272 9.4791C5.55759 10.1198 6.48735 10.47 7.44388 10.47C7.99616 10.47 8.44388 10.9177 8.44388 11.47C8.44388 12.0222 7.99616 12.47 7.44388 12.47Z" fill="#B2B8BF"/>
<path d="M14.8321 12.4454C14.5257 11.9859 13.9048 11.8617 13.4453 12.1681C12.9858 12.4744 12.8616 13.0953 13.168 13.5548L14.1314 15H12.4142L11.2071 13.7929C10.8166 13.4024 10.1834 13.4024 9.79289 13.7929C9.40237 14.1834 9.40237 14.8166 9.79289 15.2071L11.2929 16.7071C11.4804 16.8946 11.7348 17 12 17H14.1316L13.168 18.4454C12.8616 18.9049 12.9858 19.5258 13.4453 19.8322C13.9048 20.1385 14.5257 20.0143 14.832 19.5548L16.5353 17H19C19.5523 17 20 16.5523 20 16C20 15.4477 19.5523 15 19 15H16.5351L14.8321 12.4454Z" fill="#B2B8BF"/>
</svg>
