<svg width="20" height="20" viewBox="0 0 20 20" fill="none" xmlns="http://www.w3.org/2000/svg">
<path fill-rule="evenodd" clip-rule="evenodd" d="M2.04388 9.15708C2.46505 5.13502 5.86641 2 10 2C10.5523 2 11 1.55228 11 1C11 0.447715 10.5523 0 10 0C4.47715 0 0 4.47715 0 10C0 15.5228 4.47715 20 10 20C15.148 20 19.3862 16.1109 19.939 11.1099C19.9997 10.5609 19.6039 10.0667 19.0549 10.0061C18.506 9.94537 18.0118 10.3412 17.9511 10.8901C17.5491 14.5268 14.7075 17.4291 11.0994 17.9251V15.9999C11.0994 15.9664 11.0977 15.9332 11.0945 15.9005C13.0764 15.5352 14.7159 14.1959 15.5004 12.4004C15.7215 11.8943 15.4904 11.3048 14.9843 11.0837C14.4783 10.8625 13.8887 11.0936 13.6676 11.5997C13.0495 13.0145 11.6387 14.0001 10 14.0001C7.79086 14.0001 6 12.2092 6 10.0001C6 8.06609 7.37356 6.45065 9.19893 6.08012C9.74018 5.97026 10.0899 5.44242 9.98001 4.90118C9.87015 4.35993 9.34231 4.01023 8.80107 4.1201C6.33186 4.62132 4.41293 6.63735 4.05874 9.15708H2.04388ZM4.11146 11.1571C4.59422 13.6283 6.59391 15.5567 9.10154 15.9333C9.10009 15.9553 9.09936 15.9775 9.09936 15.9999V17.9499C5.4866 17.5451 2.60131 14.7343 2.08306 11.1571H4.11146Z" fill="#107F8C"/>
<path d="M17 2C17 1.44772 16.5523 1 16 1C15.4477 1 15 1.44772 15 2V3.26794L13.9019 2.63397C13.4236 2.35783 12.8121 2.5217 12.5359 3C12.2598 3.47829 12.4236 4.08988 12.9019 4.36602L14 5L12.9019 5.63397C12.4236 5.91011 12.2598 6.5217 12.5359 7C12.812 7.47829 13.4236 7.64217 13.9019 7.36602L15 6.73205V8C15 8.55228 15.4477 9 16 9C16.5523 9 17 8.55228 17 8V6.73204L18.0981 7.36602C18.5764 7.64217 19.188 7.47829 19.4641 7C19.7403 6.52171 19.5764 5.91011 19.0981 5.63397L18 5L19.0981 4.36602C19.5764 4.08988 19.7403 3.47829 19.4641 3C19.188 2.5217 18.5764 2.35783 18.0981 2.63397L17 3.26795V2Z" fill="#107F8C"/>
</svg>
