<svg width="32" height="32" viewBox="0 0 32 32" fill="none" xmlns="http://www.w3.org/2000/svg">
<path d="M13 10C13.5523 10 14 10.4477 14 11V21C14 21.5523 13.5523 22 13 22C12.4477 22 12 21.5523 12 21V11C12 10.4477 12.4477 10 13 10Z" fill="#107F8C"/>
<path d="M16 21C16 21.5523 16.4477 22 17 22C17.5523 22 18 21.5523 18 21L18 18.5C18 17.9905 18.1582 17.7949 18.2652 17.7057C18.4043 17.5898 18.6486 17.5 19 17.5C19.27 17.5 19.4798 17.5511 19.6233 17.6265C19.7501 17.6931 19.846 17.7871 19.9117 17.9487C20.1195 18.4605 20.7027 18.7069 21.2144 18.4991C21.7261 18.2913 21.9725 17.7081 21.7648 17.1964C21.2317 15.8833 19.9884 15.5 19 15.5C18.5781 15.5 18.1108 15.5678 17.6675 15.7554C17.4905 15.5966 17.2565 15.5 17 15.5C16.4477 15.5 16 15.9477 16 16.5V21Z" fill="#107F8C"/>
<path fill-rule="evenodd" clip-rule="evenodd" d="M4 10C4 6.68629 6.68629 4 10 4H22C25.3137 4 28 6.68629 28 10V22C28 25.3137 25.3137 28 22 28H10C6.68629 28 4 25.3137 4 22V10ZM10 6H22C24.2091 6 26 7.79086 26 10V22C26 24.2091 24.2091 26 22 26H10C7.79086 26 6 24.2091 6 22V10C6 7.79086 7.79086 6 10 6Z" fill="#107F8C"/>
</svg>
