<svg width="20" height="21" viewBox="0 0 20 21" fill="none" xmlns="http://www.w3.org/2000/svg">
<path d="M8.55448 7.40981C7.72314 9.09153 7 10.665 7 11.5154C7 12.7154 8.00438 13.5154 9 13.5154C9.99562 13.5154 11 12.7154 11 11.5154C11 10.665 10.2781 9.09138 9.44598 7.40959C9.26334 7.04043 8.73699 7.0406 8.55448 7.40981Z" fill="#107F8C"/>
<path fill-rule="evenodd" clip-rule="evenodd" d="M4 5.5C4 3.84315 5.34315 2.5 7 2.5H11C12.6569 2.5 14 3.84315 14 5.5C14.5523 5.5 15 5.94772 15 6.5V6.76879C15.6566 7.08682 16.1833 7.67588 16.5439 8.24443C17.1142 9.14373 17.5 10.3278 17.5 11.5297C17.5 12.6283 17.1779 13.7084 16.6921 14.568C16.4204 15.0488 15.8104 15.2184 15.3296 14.9467C14.8487 14.675 14.6792 14.0649 14.9509 13.5841C15.2816 12.9988 15.5 12.2549 15.5 11.5297C15.5 10.7318 15.2358 9.91609 14.8549 9.31564C14.8198 9.26024 14.785 9.20861 14.7508 9.16052C14.5676 9.36867 14.2991 9.5 14 9.5V17.5C14.55 17.5026 14.9951 17.9493 14.9951 18.5C14.9951 19.0507 14.55 19.4974 14 19.5L13.9951 19.5H3.99512C3.44283 19.5 2.99512 19.0523 2.99512 18.5C2.99512 17.9477 3.44283 17.5 3.99512 17.5H4V5.5ZM12 5.5V17.5H6V5.5C6 4.94772 6.44772 4.5 7 4.5H11C11.5523 4.5 12 4.94772 12 5.5Z" fill="#107F8C"/>
</svg>
