<svg width="32" height="32" viewBox="0 0 32 32" fill="none" xmlns="http://www.w3.org/2000/svg">
<path d="M11.9999 3C11.4477 3 10.9999 3.44772 10.9999 4C10.9999 4.55228 11.4477 5 11.9999 5H25.5858L3.29289 27.2929C2.90237 27.6834 2.90237 28.3166 3.29289 28.7071C3.68342 29.0976 4.31658 29.0976 4.70711 28.7071L26.9999 6.41428V16C26.9999 16.5523 27.4477 17 27.9999 17C28.5522 17 28.9999 16.5523 28.9999 16V4C28.9999 3.44772 28.5522 3 27.9999 3H11.9999Z" fill="#21A19A"/>
<path d="M28.7809 20.1253C29.1259 20.5566 29.0559 21.1859 28.6247 21.5309L23.6247 25.5309C23.2635 25.8199 22.7512 25.8234 22.386 25.5394L20.386 23.9838C19.9501 23.6448 19.8716 23.0165 20.2106 22.5805C20.5497 22.1446 21.178 22.0661 21.6139 22.4051L22.9913 23.4764L27.3753 19.9692C27.8066 19.6242 28.4358 19.6941 28.7809 20.1253Z" fill="#21A19A"/>
<path d="M18.5 24C18.5 21.5147 20.5147 19.5 23 19.5C23.5791 19.5 24.1304 19.6089 24.6362 19.8064C25.1507 20.0073 25.7306 19.7532 25.9315 19.2387C26.1324 18.7243 25.8782 18.1444 25.3638 17.9435C24.6298 17.6568 23.832 17.5 23 17.5C19.4101 17.5 16.5 20.4101 16.5 24C16.5 27.5899 19.4101 30.5 23 30.5C26.4263 30.5 29.2327 27.8496 29.482 24.4864C29.5229 23.9357 29.1095 23.4561 28.5587 23.4152C28.0079 23.3744 27.5283 23.7878 27.4875 24.3386C27.315 26.6652 25.3713 28.5 23 28.5C20.5147 28.5 18.5 26.4853 18.5 24Z" fill="#21A19A"/>
</svg>
