<svg width="32" height="32" viewBox="0 0 32 32" fill="none" xmlns="http://www.w3.org/2000/svg">
<path d="M11 4C11 3.44772 10.5523 3 10 3C9.44772 3 9 3.44772 9 4C9 4.44724 8.88586 4.61844 8.67109 4.94058L8.66795 4.9453C8.38475 5.37011 8 5.94942 8 7C8 8.05058 8.38475 8.62989 8.66795 9.0547L8.6711 9.05942C8.88586 9.38156 9 9.55276 9 10C9 10.5523 9.44772 11 10 11C10.5523 11 11 10.5523 11 10C11 8.94942 10.6153 8.37011 10.3321 7.9453L10.3289 7.94058C10.1141 7.61844 10 7.44724 10 7C10 6.55276 10.1141 6.38156 10.3289 6.05942L10.3321 6.0547C10.6153 5.62989 11 5.05058 11 4Z" fill="#B2B8BF"/>
<path fill-rule="evenodd" clip-rule="evenodd" d="M22.181 22.9995C21.2486 24.0414 20.1728 24.9519 18.985 25.7002C18.663 25.9031 18.2975 26 17.9372 26H12.0628C11.7026 26 11.337 25.9031 11.015 25.7002C7.39491 23.4197 4.8161 19.6319 4.16227 15.2132C3.98033 13.9836 4.97126 13 6.10823 13H23.8918C25.0027 13 25.9742 13.939 25.8484 15.129C27.6211 15.5663 29 17.072 29 18.9714C29 21.2373 27.0378 22.9428 24.7857 22.9428C24.5202 22.9428 24.1948 22.9538 23.8129 22.9669L23.7985 22.9674C23.3119 22.984 22.7482 23.0032 22.181 22.9995ZM12.0683 24C8.95527 22.0338 6.73681 18.7848 6.15275 15H23.8473C23.534 17.0304 22.7502 18.9067 21.6104 20.5134C21.4067 20.8004 21.1916 21.0789 20.9658 21.3482L20.961 21.354C20.0961 22.3841 19.0741 23.2785 17.9317 24H12.0683ZM23.7102 20.9692L23.7576 20.9676C24.1238 20.9551 24.4823 20.9428 24.7857 20.9428C26.0841 20.9428 27 19.9877 27 18.9714C27 18.1352 26.3799 17.3404 25.4369 17.085C25.0452 18.472 24.4591 19.7771 23.7102 20.9692Z" fill="#B2B8BF"/>
<path d="M3 28C3 27.4477 3.44772 27 4 27H27C27.5523 27 28 27.4477 28 28C28 28.5523 27.5523 29 27 29H4C3.44772 29 3 28.5523 3 28Z" fill="#B2B8BF"/>
<path d="M15 3C15.5523 3 16 3.44772 16 4C16 5.05058 15.6153 5.62989 15.3321 6.0547L15.3289 6.05942C15.1141 6.38156 15 6.55276 15 7C15 7.44724 15.1141 7.61844 15.3289 7.94058L15.3321 7.9453C15.6153 8.37011 16 8.94942 16 10C16 10.5523 15.5523 11 15 11C14.4477 11 14 10.5523 14 10C14 9.55276 13.8859 9.38156 13.6711 9.05942L13.6679 9.0547C13.3847 8.62989 13 8.05058 13 7C13 5.94942 13.3847 5.37011 13.6679 4.9453L13.6711 4.94058C13.8859 4.61844 14 4.44724 14 4C14 3.44772 14.4477 3 15 3Z" fill="#B2B8BF"/>
<path d="M21 4C21 3.44772 20.5523 3 20 3C19.4477 3 19 3.44772 19 4C19 4.44724 18.8859 4.61844 18.6711 4.94058L18.6679 4.9453C18.3847 5.37011 18 5.94942 18 7C18 8.05058 18.3847 8.62989 18.6679 9.0547L18.6711 9.05942C18.8859 9.38156 19 9.55276 19 10C19 10.5523 19.4477 11 20 11C20.5523 11 21 10.5523 21 10C21 8.94942 20.6153 8.37011 20.3321 7.9453L20.3289 7.94058C20.1141 7.61844 20 7.44724 20 7C20 6.55276 20.1141 6.38156 20.3289 6.05942L20.3321 6.0547C20.6153 5.62989 21 5.05058 21 4Z" fill="#B2B8BF"/>
</svg>
