<svg width="20" height="20" viewBox="0 0 20 20" fill="none" xmlns="http://www.w3.org/2000/svg">
<path d="M17 2C17 1.44772 16.5523 1 16 1C15.4477 1 15 1.44772 15 2V3.26794L13.9019 2.63397C13.4236 2.35783 12.8121 2.5217 12.5359 3C12.2598 3.47829 12.4236 4.08988 12.9019 4.36602L14 5L12.9019 5.63397C12.4236 5.91011 12.2598 6.5217 12.5359 7C12.812 7.47829 13.4236 7.64217 13.9019 7.36602L15 6.73205V8C15 8.55228 15.4477 9 16 9C16.5523 9 17 8.55228 17 8V6.73204L18.0981 7.36602C18.5764 7.64217 19.188 7.47829 19.4641 7C19.7403 6.52171 19.5764 5.91011 19.0981 5.63397L18 5L19.0981 4.36602C19.5764 4.08988 19.7403 3.47829 19.4641 3C19.188 2.5217 18.5764 2.35783 18.0981 2.63397L17 3.26795V2Z" fill="#21A19A"/>
<path fill-rule="evenodd" clip-rule="evenodd" d="M2 3C2 2.44772 2.44772 2 3 2H6.5C7.85358 2 8.99286 2.67938 9.76822 3.60982C10.5393 4.53507 11 5.76032 11 7C11 8.23968 10.5393 9.46493 9.76822 10.3902C8.99286 11.3206 7.85358 12 6.5 12H4V14H6C6.55228 14 7 14.4477 7 15C7 15.5523 6.55228 16 6 16H4V18C4 18.5523 3.55228 19 3 19C2.44772 19 2 18.5523 2 18V16H1C0.447715 16 0 15.5523 0 15C0 14.4477 0.447715 14 1 14H2V12H1C0.447715 12 0 11.5523 0 11C0 10.4477 0.447715 10 1 10H2V3ZM4 10V4H6.5C7.14642 4 7.75714 4.32062 8.23178 4.89018C8.71074 5.46493 9 6.23968 9 7C9 7.76032 8.71074 8.53507 8.23178 9.10982C7.75714 9.67938 7.14642 10 6.5 10H4Z" fill="#21A19A"/>
</svg>
