<svg width="32" height="32" viewBox="0 0 32 32" fill="none" xmlns="http://www.w3.org/2000/svg">
<path d="M11.5528 4.10557C11.8343 3.96481 12.1657 3.96481 12.4472 4.10557L20.4473 8.10557C20.9412 8.35256 21.1415 8.95324 20.8945 9.44721C20.6475 9.94119 20.0468 10.1414 19.5528 9.89443L12 6.11803L4.44725 9.89443C3.95327 10.1414 3.3526 9.94119 3.10561 9.44721C2.85862 8.95324 3.05884 8.35256 3.55282 8.10557L11.5528 4.10557Z" fill="#21A19A"/>
<path d="M2.99951 23C2.99951 22.4477 3.44723 22 3.99951 22H11.9995C12.5518 22 12.9995 22.4477 12.9995 23C12.9995 23.5523 12.5518 24 11.9995 24H3.99951C3.44723 24 2.99951 23.5523 2.99951 23Z" fill="#21A19A"/>
<path d="M13 12C13 11.4477 12.5523 11 12 11C11.4477 11 11 11.4477 11 12V19C11 19.5523 11.4477 20 12 20C12.5523 20 13 19.5523 13 19V12Z" fill="#21A19A"/>
<path d="M7.00003 11C7.55232 11 8.00003 11.4477 8.00003 12V19C8.00003 19.5523 7.55232 20 7.00003 20C6.44775 20 6.00003 19.5523 6.00003 19V12C6.00003 11.4477 6.44775 11 7.00003 11Z" fill="#21A19A"/>
<path d="M17.9991 12C17.9991 11.4477 17.5514 11 16.9991 11C16.4468 11 15.9991 11.4477 15.9991 12V14C15.9991 14.5523 16.4468 15 16.9991 15C17.5514 15 17.9991 14.5523 17.9991 14V12Z" fill="#21A19A"/>
<path d="M28.7809 20.1253C29.1259 20.5566 29.056 21.1859 28.6247 21.5309L23.6247 25.5309C23.2635 25.8199 22.7512 25.8234 22.3861 25.5394L20.3861 23.9838C19.9501 23.6448 19.8716 23.0165 20.2107 22.5805C20.5497 22.1446 21.178 22.0661 21.614 22.4051L22.9913 23.4764L27.3753 19.9692C27.8066 19.6242 28.4359 19.6941 28.7809 20.1253Z" fill="#21A19A"/>
<path d="M18.5 24C18.5 21.5147 20.5147 19.5 23 19.5C23.5792 19.5 24.1305 19.6089 24.6363 19.8064C25.1507 20.0073 25.7306 19.7532 25.9315 19.2387C26.1324 18.7243 25.8783 18.1444 25.3638 17.9435C24.6299 17.6568 23.8321 17.5 23 17.5C19.4102 17.5 16.5 20.4101 16.5 24C16.5 27.5899 19.4102 30.5 23 30.5C26.4263 30.5 29.2327 27.8496 29.4821 24.4864C29.5229 23.9357 29.1095 23.4561 28.5587 23.4152C28.008 23.3744 27.5284 23.7878 27.4875 24.3386C27.315 26.6652 25.3713 28.5 23 28.5C20.5147 28.5 18.5 26.4853 18.5 24Z" fill="#21A19A"/>
</svg>
