<svg width="32" height="32" viewBox="0 0 32 32" fill="none" xmlns="http://www.w3.org/2000/svg">
<path d="M14.9862 4.00072C15.0776 4.54539 14.7101 5.06101 14.1655 5.15239C8.96374 6.02507 5 10.5508 5 16.0003C5 21.4498 8.96374 25.9754 14.1655 26.8481C14.7101 26.9395 15.0776 27.4551 14.9862 27.9998C14.8948 28.5445 14.3792 28.9119 13.8345 28.8206C7.68541 27.7889 3 22.4427 3 16.0003C3 9.55777 7.68541 4.21159 13.8345 3.17996C14.3792 3.08858 14.8948 3.45604 14.9862 4.00072Z" fill="#21A19A"/>
<path d="M17.0138 4.00072C17.1052 3.45604 17.6208 3.08858 18.1655 3.17996C23.6111 4.09356 27.9067 8.38917 28.8203 13.8348C28.9117 14.3795 28.5442 14.8951 27.9995 14.9865C27.4549 15.0779 26.9392 14.7104 26.8479 14.1657C26.0754 9.56132 22.4389 5.92486 17.8345 5.15239C17.2899 5.06101 16.9224 4.54539 17.0138 4.00072Z" fill="#21A19A"/>
<path d="M27.9995 17.014C28.5442 17.1054 28.9117 17.621 28.8203 18.1657C27.9067 23.6113 23.6111 27.907 18.1655 28.8206C17.6208 28.9119 17.1052 28.5445 17.0138 27.9998C16.9224 27.4551 17.2899 26.9395 17.8345 26.8481C22.4389 26.0757 26.0754 22.4392 26.8479 17.8348C26.9392 17.2901 27.4549 16.9227 27.9995 17.014Z" fill="#21A19A"/>
<path d="M16 11.0002C14.8954 11.0002 14 11.8956 14 13.0002C14 13.5524 13.5523 14.0002 13 14.0002C12.4477 14.0002 12 13.5524 12 13.0002C12 10.791 13.7909 9.00016 16 9.00016C18.2091 9.00016 20 10.791 20 13.0002C20 14.864 18.7252 16.4301 17 16.8741V18.0002C17 18.5524 16.5523 19.0002 16 19.0002C15.4477 19.0002 15 18.5524 15 18.0002V16.0002C15 15.4479 15.4477 15.0002 16 15.0002C17.1046 15.0002 18 14.1047 18 13.0002C18 11.8956 17.1046 11.0002 16 11.0002Z" fill="#21A19A"/>
<path d="M16 23.0002C16.5523 23.0002 17 22.5524 17 22.0002C17 21.4479 16.5523 21.0002 16 21.0002C15.4477 21.0002 15 21.4479 15 22.0002C15 22.5524 15.4477 23.0002 16 23.0002Z" fill="#21A19A"/>
</svg>
