<svg width="32" height="32" viewBox="0 0 32 32" fill="none" xmlns="http://www.w3.org/2000/svg">
<path fill-rule="evenodd" clip-rule="evenodd" d="M9.00684 3.00001C9.10807 3.0007 9.20933 3.01563 9.30664 3.04688L25.1514 7.99903H29C29.5522 7.99903 29.9999 8.44682 30 8.99903C30 9.55131 29.5523 9.99903 29 9.99903H27V11.999C27 12.5513 26.5523 12.999 26 12.999C25.4477 12.999 25 12.5513 25 11.999V9.99903H14V27.999H15C15.5522 27.999 15.9999 28.4468 16 28.999C16 29.5513 15.5523 29.999 15 29.999H7C6.44772 29.999 6 29.5513 6 28.999C6.00009 28.4468 6.44777 27.999 7 27.999H8V9.99903H4C3.94332 9.99903 3.88809 9.99246 3.83398 9.98341C3.82358 9.98166 3.81309 9.9806 3.80273 9.97852C3.79123 9.97622 3.77991 9.97341 3.76855 9.97071C3.74798 9.96583 3.72732 9.96129 3.70703 9.95509C3.48425 9.88689 3.29459 9.74333 3.16797 9.55372C3.14177 9.51451 3.11967 9.4734 3.09961 9.43165C3.07768 9.38606 3.05787 9.33915 3.04297 9.29005C3.03799 9.27362 3.03439 9.25685 3.03027 9.24024C3.01113 9.16297 3 9.08222 3 8.99903C3.00003 8.84711 3.03409 8.70317 3.09473 8.57423C3.11569 8.52958 3.14004 8.48612 3.16797 8.44434C3.20461 8.3895 3.2465 8.33846 3.29297 8.292L8.29297 3.292C8.29443 3.29053 8.2954 3.28857 8.29688 3.28712C8.34716 3.23753 8.40285 3.19393 8.46191 3.15626C8.59241 3.07277 8.73803 3.02273 8.88672 3.00587C8.90839 3.00338 8.93023 3.00203 8.95215 3.00098C8.9681 3.00022 8.98404 3.00001 9 3.00001C9.00228 3.00001 9.00456 2.99999 9.00684 3.00001ZM10 27.999H12V9.99903H10V27.999ZM6.41406 7.99903H18.4492L9.2793 5.13282L6.41406 7.99903Z" fill="#107F8C"/>
<path fill-rule="evenodd" clip-rule="evenodd" d="M22.7188 15.0391C22.9326 14.9764 23.1625 14.987 23.3711 15.0703L28.3711 17.0703C28.7507 17.2222 28.9999 17.5902 29 17.999C29 20.429 28.9116 22.3455 28.1377 24.0606C27.3508 25.8038 25.9212 27.21 23.5654 28.8242C23.2248 29.0577 22.7752 29.0577 22.4346 28.8242C20.0857 27.2147 18.6567 25.8092 17.8682 24.0654C17.0922 22.3494 17 20.431 17 17.999C17.0001 17.5902 17.2493 17.2222 17.6289 17.0703L22.6289 15.0703L22.7188 15.0391ZM19.0039 18.6738C19.0263 20.7399 19.1683 22.0865 19.6904 23.2412C20.2051 24.3792 21.142 25.435 23 26.7754C24.8651 25.4303 25.8015 24.3747 26.3145 23.2383C26.835 22.085 26.9733 20.741 26.9951 18.6738L23 17.0762L19.0039 18.6738Z" fill="#107F8C"/>
</svg>
