<svg width="32" height="32" viewBox="0 0 32 32" fill="none" xmlns="http://www.w3.org/2000/svg">
<path d="M20.9266 5.18073C21.3791 4.86402 22.0026 4.97405 22.3193 5.4265L25.5208 10H29C29.3466 10 29.6685 10.1795 29.8507 10.4743C30.0329 10.7691 30.0494 11.1372 29.8944 11.4472L27.8944 15.4472C27.6474 15.9412 27.0468 16.1414 26.5528 15.8944C26.0588 15.6474 25.8586 15.0468 26.1056 14.5528L27.382 12H25.0109C25.0043 12.0001 24.9976 12.0001 24.991 12H8.01155C8.00345 12.0001 7.99535 12.0001 7.98725 12H5.38743L9.72077 25H14C14.5523 25 15 25.4477 15 26C15 26.5523 14.5523 27 14 27H9.00001C8.56958 27 8.18744 26.7246 8.05132 26.3162L3.05132 11.3162C2.94967 11.0113 3.00081 10.6761 3.18877 10.4153C3.37672 10.1545 3.67856 10 4.00001 10H7.51944L11.2192 5.37534C11.5642 4.94408 12.1935 4.87416 12.6247 5.21917C13.056 5.56418 13.1259 6.19347 12.7809 6.62473L10.0807 10H23.0795L20.6809 6.57343C20.3641 6.12098 20.4742 5.49745 20.9266 5.18073Z" fill="#B2B8BF"/>
<path fill-rule="evenodd" clip-rule="evenodd" d="M21 26V25H20C19.4477 25 19 24.5523 19 24C19 23.4477 19.4477 23 20 23H21V19C21 18.4477 21.4477 18 22 18C22.039 18 22.0775 18.0022 22.1153 18.0066C22.1532 18.0022 22.1916 18 22.2306 18H24.8383C26.0898 18 26.9565 18.5521 27.4556 19.3579C27.9085 20.0891 28 20.9309 28 21.5V21.6674C28 22.2913 27.8517 23.0994 27.3645 23.7808C26.8412 24.5127 25.9936 25 24.8383 25H23V26H23.9884C24.5406 26 24.9884 26.4477 24.9884 27C24.9884 27.5523 24.5406 28 23.9884 28H23V29C23 29.5523 22.5523 30 22 30C21.4477 30 21 29.5523 21 29V28H20C19.4477 28 19 27.5523 19 27C19 26.4477 19.4477 26 20 26H21ZM23 23V20H24.8383C25.417 20 25.6311 20.2105 25.7553 20.411C25.9257 20.6861 26 21.0943 26 21.5V21.6674C26 22.0182 25.9099 22.3765 25.7375 22.6176C25.6011 22.8084 25.3679 23 24.8383 23H23Z" fill="#B2B8BF"/>
</svg>
