<svg width="20" height="20" viewBox="0 0 20 20" fill="none" xmlns="http://www.w3.org/2000/svg">
<path d="M9.99962 2C9.23604 2 8.54127 2.28277 8.01077 2.75026C7.59641 3.1154 6.96451 3.0755 6.59937 2.66115C6.23422 2.24679 6.27412 1.61488 6.68848 1.24974C7.57047 0.472506 8.73111 0 9.99962 0C11.2681 0 12.4288 0.472506 13.3108 1.24974C13.7251 1.61488 13.765 2.24679 13.3999 2.66115C13.0347 3.0755 12.4028 3.1154 11.9885 2.75026C11.458 2.28277 10.7632 2 9.99962 2Z" fill="#B2B8BF"/>
<path d="M2 6C2 4.89543 2.89543 4 4 4H16C17.1046 4 18 4.89543 18 6V6.49976C18 7.05204 17.5523 7.49976 17 7.49976C16.4477 7.49976 16 7.05204 16 6.49976V6L4 6V17.9999L6.99994 17.9998C7.55222 17.9997 7.99997 18.4474 8 18.9997C8.00003 19.552 7.55235 19.9997 7.00006 19.9998L4.00012 19.9999C2.8955 20 2 19.1046 2 17.9999V6Z" fill="#B2B8BF"/>
<path d="M14 11C14.5523 11 15 11.4477 15 12V13H16C16.5523 13 17 13.4477 17 14C17 14.5523 16.5523 15 16 15H15V16C15 16.5523 14.5523 17 14 17C13.4477 17 13 16.5523 13 16V15H12C11.4477 15 11 14.5523 11 14C11 13.4477 11.4477 13 12 13H13V12C13 11.4477 13.4477 11 14 11Z" fill="#B2B8BF"/>
<path fill-rule="evenodd" clip-rule="evenodd" d="M14 8C10.6863 8 8 10.6863 8 14C8 17.3137 10.6863 20 14 20C17.3137 20 20 17.3137 20 14C20 10.6863 17.3137 8 14 8ZM10 14C10 11.7909 11.7909 10 14 10C16.2091 10 18 11.7909 18 14C18 16.2091 16.2091 18 14 18C11.7909 18 10 16.2091 10 14Z" fill="#B2B8BF"/>
</svg>
