<svg width="20" height="20" viewBox="0 0 20 20" fill="none" xmlns="http://www.w3.org/2000/svg">
<path d="M4 2C3.44772 2 3 2.44772 3 3V17C3 17.5523 3.44772 18 4 18H14C14.5523 18 15 17.5523 15 17V12C15 11.4477 15.4477 11 16 11C16.5523 11 17 11.4477 17 12V17C17 18.6569 15.6569 20 14 20H4C2.34315 20 1 18.6569 1 17V3C1 1.34315 2.34315 0 4 0H9.5C10.0523 0 10.5 0.447715 10.5 1C10.5 1.55228 10.0523 2 9.5 2H4Z" fill="#B2B8BF"/>
<path d="M5 10C5 9.44771 5.44772 9 6 9H7C7.55228 9 8 9.44771 8 10C8 10.5523 7.55228 11 7 11H6C5.44772 11 5 10.5523 5 10Z" fill="#B2B8BF"/>
<path d="M5 14C5 13.4477 5.44772 13 6 13H11C11.5523 13 12 13.4477 12 14C12 14.5523 11.5523 15 11 15H6C5.44772 15 5 14.5523 5 14Z" fill="#B2B8BF"/>
<path d="M19.3321 1.79289C18.9416 1.40237 18.3084 1.40237 17.9179 1.79289L15.5625 4.14829L13.2071 1.79292C12.8166 1.40239 12.1834 1.4024 11.7929 1.79292C11.4024 2.18345 11.4024 2.81661 11.7929 3.20714L14.1483 5.56251L11.7929 7.91792C11.4024 8.30845 11.4024 8.94161 11.7929 9.33214C12.1834 9.72266 12.8166 9.72266 13.2071 9.33213L15.5625 6.97672L17.9179 9.33213C18.3084 9.72266 18.9416 9.72266 19.3321 9.33214C19.7226 8.94161 19.7226 8.30845 19.3321 7.91792L16.9767 5.5625L19.3321 3.20711C19.7226 2.81658 19.7226 2.18342 19.3321 1.79289Z" fill="#B2B8BF"/>
</svg>
