<svg width="32" height="32" viewBox="0 0 32 32" fill="none" xmlns="http://www.w3.org/2000/svg">
<path d="M18.9999 3.99999C18.9999 4.43041 19.2754 4.81255 19.6837 4.94867L22.6838 5.94878C23.2077 6.12344 23.7741 5.84029 23.9487 5.31636C24.1234 4.79242 23.8402 4.22609 23.3163 4.05143L22.1487 3.66219C22.8331 3.24182 23.6382 2.99999 24.5 2.99999C26.9853 2.99999 29 5.01471 29 7.49999C29 9.98528 26.9853 12 24.5 12C22.148 12 20.2021 10.1976 19.996 7.91024C19.9464 7.36019 19.4603 6.95446 18.9102 7.00403C18.3602 7.0536 17.9545 7.53969 18.004 8.08974C18.3031 11.4089 21.1139 14 24.5 14C28.0899 14 31 11.0898 31 7.49999C31 3.91014 28.0899 0.999993 24.5 0.999993C23.2113 0.999993 22.01 1.37549 20.9999 2.02207L21 1.00001C21 0.44772 20.5522 2.68625e-06 20 0C19.4477 -3.09688e-06 19 0.44771 19 0.999995L18.9999 3.99999Z" fill="#21A19A"/>
<path d="M4 18C4 12.4775 8.47705 7.99999 14 7.99999C14.3086 7.99999 14.6133 8.01366 14.9141 8.04101C15.4644 8.09081 15.9504 7.68554 16.0002 7.13573C16.05 6.58495 15.6445 6.09862 15.0945 6.04882C14.7339 6.01659 14.3687 5.99999 14 5.99999C7.37256 5.99999 2 11.373 2 18V29C2 29.5527 2.44775 30 3 30H14C20.6274 30 26 24.627 26 18C26 17.6338 25.9834 17.2705 25.9512 16.9111C25.9019 16.3613 25.4155 15.9561 24.8657 16.0049C24.3154 16.0547 23.9097 16.541 23.9595 17.0908C23.9863 17.3896 24 17.6934 24 18C24 23.5225 19.5229 28 14 28H4V18Z" fill="#21A19A"/>
<path fill-rule="evenodd" clip-rule="evenodd" d="M17.5 13C17.5 12.4473 17.0522 12 16.5 12H11C9.89551 12 9 12.8955 9 14V24H14.3076C16.5923 24 19 22.5723 19 20C19 17.4277 16.5923 16 14.3076 16H11V14H16.5C17.0522 14 17.5 13.5527 17.5 13ZM11 22V18H14.3076C15.9858 18 17 18.9717 17 20C17 21.0283 15.9858 22 14.3076 22H11Z" fill="#21A19A"/>
</svg>
