<svg width="32" height="32" viewBox="0 0 32 32" fill="none" xmlns="http://www.w3.org/2000/svg">
<path fill-rule="evenodd" clip-rule="evenodd" d="M6 16.0004C6 10.4773 10.4773 6 16.0004 6C18.9621 6 21.622 7.2862 23.4546 9.33371C23.8229 9.74524 24.4551 9.78026 24.8667 9.41193C25.2782 9.04361 25.3132 8.41141 24.9449 7.99988C22.7489 5.5464 19.5546 4 16.0004 4C9.37276 4 4 9.37276 4 16.0004C4 22.628 9.37276 28.0008 16.0004 28.0008C19.5546 28.0008 22.7489 26.4544 24.9449 24.0009C25.3132 23.5894 25.2782 22.9572 24.8667 22.5889C24.4551 22.2205 23.8229 22.2555 23.4546 22.6671C21.622 24.7146 18.9621 26.0008 16.0004 26.0008C10.4773 26.0008 6 21.5235 6 16.0004ZM17 14.875C17 14.4204 17.1366 14.2634 17.22 14.195C17.3383 14.098 17.5783 14 18 14C18.4217 14 18.6617 14.098 18.78 14.195C18.862 14.2623 18.9953 14.415 18.9999 14.8519C18.9959 14.8656 18.9826 14.9068 18.9442 14.9795C18.8782 15.1043 18.7676 15.2659 18.606 15.4604C18.2826 15.8494 17.8304 16.2804 17.3482 16.6947C16.8715 17.1044 16.3911 17.4762 16.0277 17.7468C15.8467 17.8816 15.6963 17.9902 15.5919 18.0646C15.5397 18.1017 15.4991 18.1302 15.472 18.1491L15.4419 18.1702L15.4349 18.175L15.4335 18.176L15.4335 18.176L15.4333 18.1761C15.0725 18.4242 14.9151 18.8784 15.045 19.2966C15.1749 19.7149 15.562 20 16 20H20C20.5523 20 21 19.5523 21 19C21 18.4477 20.5523 18 20 18H18.894C19.3364 17.6072 19.7835 17.1726 20.1441 16.7388C20.3574 16.4821 20.5594 16.2033 20.7121 15.9146C20.8593 15.6362 21 15.2758 21 14.875C21 13.9546 20.6889 13.1741 20.0484 12.6487C19.4429 12.152 18.6829 12 18 12C17.3171 12 16.5572 12.152 15.9516 12.6487C15.3111 13.1741 15 13.9546 15 14.875C15 15.4273 15.4477 15.875 16 15.875C16.5523 15.875 17 15.4273 17 14.875ZM8 13C8 12.4477 8.44772 12 9 12H11H13C13.5523 12 14 12.4477 14 13C14 13.5523 13.5523 14 13 14H12V19.1113C12 19.6636 11.5523 20.1113 11 20.1113C10.4477 20.1113 10 19.6636 10 19.1113V14H9C8.44772 14 8 13.5523 8 13ZM23 13C23 12.4477 23.4477 12 24 12H25.5C26.137 12 26.9581 12.154 27.655 12.5895C28.3955 13.0523 29 13.8482 29 15C29 16.1518 28.3955 16.9477 27.655 17.4105C26.9581 17.846 26.137 18 25.5 18H25V19.1113C25 19.6636 24.5523 20.1113 24 20.1113C23.4477 20.1113 23 19.6636 23 19.1113V17V13ZM25 16V14H25.5C25.863 14 26.2919 14.096 26.595 14.2855C26.8545 14.4477 27 14.6518 27 15C27 15.3482 26.8545 15.5523 26.595 15.7145C26.2919 15.904 25.863 16 25.5 16H25Z" fill="#21A19A"/>
</svg>
