<svg width="32" height="32" viewBox="0 0 32 32" fill="none" xmlns="http://www.w3.org/2000/svg">
<path fill-rule="evenodd" clip-rule="evenodd" d="M19 11V12H18C17.4477 12 17 12.4477 17 13C17 13.5523 17.4477 14 18 14H19V15C19 15.5523 19.4477 16 20 16C20.5523 16 21 15.5523 21 15V14H21.9883C22.5406 14 22.9883 13.5523 22.9883 13C22.9883 12.4477 22.5406 12 21.9883 12H21V11H22.8383C23.9936 11 24.8412 10.5127 25.3645 9.78084C25.8517 9.09941 26 8.29133 26 7.66739V7.5C26 6.93088 25.9085 6.08912 25.4556 5.35788C24.9565 4.55213 24.0898 4 22.8383 4H20.2306C20.1916 4 20.1532 4.00223 20.1153 4.00658C20.0775 4.00223 20.039 4 20 4C19.4477 4 19 4.44772 19 5V9H18C17.4477 9 17 9.44772 17 10C17 10.5523 17.4477 11 18 11H19ZM21 6V9H22.8383C23.3679 9 23.6011 8.8084 23.7375 8.61764C23.9099 8.37646 24 8.01824 24 7.66739V7.5C24 7.09434 23.9257 6.6861 23.7553 6.41103C23.6311 6.21048 23.417 6 22.8383 6H21Z" fill="#21A19A"/>
<path d="M8 6C6.34315 6 5 7.34315 5 9V19C5 20.6569 6.34315 22 8 22H15V25H11C10.4477 25 10 25.4477 10 26C10 26.5523 10.4477 27 11 27H21C21.5523 27 22 26.5523 22 26C22 25.4477 21.5523 25 21 25H17V22H24C25.6569 22 27 20.6569 27 19V15C27 14.4477 26.5523 14 26 14C25.4477 14 25 14.4477 25 15V19C25 19.5523 24.5523 20 24 20H8C7.44772 20 7 19.5523 7 19V9C7 8.44772 7.44772 8 8 8H15C15.5523 8 16 7.55228 16 7C16 6.44772 15.5523 6 15 6H8Z" fill="#21A19A"/>
<path d="M9 12C9 11.4477 9.44772 11 10 11H12C12.5523 11 13 11.4477 13 12C13 12.5523 12.5523 13 12 13H10C9.44772 13 9 12.5523 9 12Z" fill="#21A19A"/>
<path d="M10 15C9.44772 15 9 15.4477 9 16C9 16.5523 9.44772 17 10 17H15C15.5523 17 16 16.5523 16 16C16 15.4477 15.5523 15 15 15H10Z" fill="#21A19A"/>
</svg>
