<svg width="32" height="32" viewBox="0 0 32 32" fill="none" xmlns="http://www.w3.org/2000/svg">
<path d="M12.1113 16C12.1113 13.8522 13.8524 12.1111 16.0002 12.1111C16.9872 12.1111 17.8861 12.4775 18.5723 13.0831C18.9863 13.4485 19.6183 13.4091 19.9837 12.9951C20.3492 12.581 20.3098 11.9491 19.8957 11.5836C18.8582 10.6679 17.493 10.1111 16.0002 10.1111C12.7479 10.1111 10.1113 12.7477 10.1113 16C10.1113 19.2523 12.7479 21.8889 16.0002 21.8889C17.7592 21.8889 19.339 21.1164 20.4166 19.8955C20.7821 19.4815 20.7427 18.8495 20.3286 18.484C19.9145 18.1186 19.2826 18.158 18.9171 18.5721C18.2031 19.3811 17.1616 19.8889 16.0002 19.8889C13.8524 19.8889 12.1113 18.1478 12.1113 16Z" fill="#107F8C"/>
<path fill-rule="evenodd" clip-rule="evenodd" d="M16 4C9.37258 4 4 9.37258 4 16V27C4 27.5523 4.44772 28 5 28H16C22.6274 28 28 22.6274 28 16C28 9.37258 22.6274 4 16 4ZM6 16C6 10.4772 10.4772 6 16 6C21.5228 6 26 10.4772 26 16C26 21.5228 21.5228 26 16 26H6V16Z" fill="#107F8C"/>
</svg>
