<svg width="20" height="20" viewBox="0 0 20 20" fill="none" xmlns="http://www.w3.org/2000/svg">
<path fill-rule="evenodd" clip-rule="evenodd" d="M7.5 0C5.01472 0 3 2.01472 3 4.5C3 6.98528 5.01472 9 7.5 9C9.98528 9 12 6.98528 12 4.5C12 2.01472 9.98528 0 7.5 0ZM5 4.5C5 3.11929 6.11929 2 7.5 2C8.88071 2 10 3.11929 10 4.5C10 5.88071 8.88071 7 7.5 7C6.11929 7 5 5.88071 5 4.5Z" fill="#B2B8BF"/>
<path d="M6.30841 12.3601C5.35799 12.1746 4.46142 11.7582 3.69836 11.1425C2.61855 12.2008 2 13.6686 2 15.2077C2 15.4667 2.01876 15.7326 2.05599 16.0001H5.5C6.05228 16.0001 6.5 16.4478 6.5 17.0001C6.5 17.5524 6.05228 18.0001 5.5 18.0001H1.82736C0.971534 18.0001 0.263154 17.3765 0.118972 16.5552C0.0408382 16.1084 0 15.6548 0 15.2077C0 13.0272 0.921082 10.9447 2.53272 9.49411L2.53415 9.49282C3.18637 8.90804 4.16609 8.90208 4.82535 9.47748L4.8272 9.4791C5.36388 9.94985 6.00827 10.2638 6.69159 10.3972C7.23364 10.503 7.58729 11.0282 7.48147 11.5702C7.37566 12.1123 6.85046 12.4659 6.30841 12.3601Z" fill="#B2B8BF"/>
<path d="M14 8C13.4477 8 13 8.44772 13 9C13 9.55228 13.4477 10 14 10C16.2091 10 18 11.7909 18 14C18 16.2091 16.2091 18 14 18C11.7909 18 10 16.2091 10 14C10 13.4477 9.55228 13 9 13C8.44772 13 8 13.4477 8 14C8 17.3137 10.6863 20 14 20C17.3137 20 20 17.3137 20 14C20 10.6863 17.3137 8 14 8Z" fill="#B2B8BF"/>
<path d="M15 12C15 11.4477 14.5523 11 14 11C13.4477 11 13 11.4477 13 12V14C13 14.2652 13.1054 14.5196 13.2929 14.7071L14.5898 16.004C14.9803 16.3945 15.6135 16.3945 16.004 16.004C16.3945 15.6135 16.3945 14.9803 16.004 14.5898L15 13.5858V12Z" fill="#B2B8BF"/>
</svg>
