<svg width="20" height="20" viewBox="0 0 20 20" fill="none" xmlns="http://www.w3.org/2000/svg">
<path d="M16.1364 5.08638C16.8142 5.08638 17.3637 4.53691 17.3637 3.85911C17.3637 3.1813 16.8142 2.63184 16.1364 2.63184C15.4586 2.63184 14.9091 3.1813 14.9091 3.85911C14.9091 4.53691 15.4586 5.08638 16.1364 5.08638Z" fill="#107F8C"/>
<path d="M9.99998 5.26855C9.10717 5.26855 8.275 5.5151 7.56442 5.94326C7.09138 6.2283 6.47683 6.07589 6.19179 5.60284C5.90675 5.1298 6.05917 4.51525 6.53221 4.23021C7.54561 3.61958 8.73333 3.26855 9.99998 3.26855C13.7153 3.26855 16.7273 6.28046 16.7273 9.99583C16.7273 11.0258 16.4951 12.0043 16.0794 12.8795C15.8424 13.3783 15.2459 13.5906 14.747 13.3536C14.2481 13.1167 14.0359 12.5201 14.2728 12.0213C14.5639 11.4086 14.7273 10.7227 14.7273 9.99583C14.7273 7.38503 12.6108 5.26855 9.99998 5.26855Z" fill="#107F8C"/>
<path d="M5.25295 6.63802C5.75181 6.875 5.9641 7.47152 5.72712 7.97037C5.43606 8.58307 5.27271 9.26898 5.27271 9.99583C5.27271 12.6066 7.38918 14.7231 9.99998 14.7231C10.8928 14.7231 11.725 14.4766 12.4355 14.0484C12.9086 13.7634 13.5231 13.9158 13.8082 14.3888C14.0932 14.8619 13.9408 15.4764 13.4677 15.7614C12.4543 16.3721 11.2666 16.7231 9.99998 16.7231C6.28461 16.7231 3.27271 13.7112 3.27271 9.99583C3.27271 8.96588 3.50485 7.98737 3.9206 7.11219C4.15758 6.61333 4.75409 6.40104 5.25295 6.63802Z" fill="#107F8C"/>
<path fill-rule="evenodd" clip-rule="evenodd" d="M13 9.99512C13 11.652 11.6569 12.9951 10 12.9951C8.34315 12.9951 7 11.652 7 9.99512C7 8.33826 8.34315 6.99512 10 6.99512C11.6569 6.99512 13 8.33826 13 9.99512ZM11 9.99512C11 10.5474 10.5523 10.9951 10 10.9951C9.44772 10.9951 9 10.5474 9 9.99512C9 9.44283 9.44772 8.99512 10 8.99512C10.5523 8.99512 11 9.44283 11 9.99512Z" fill="#107F8C"/>
<path fill-rule="evenodd" clip-rule="evenodd" d="M4 -0.00488281C1.79086 -0.00488281 0 1.78598 0 3.99512V15.9951C0 18.2043 1.79086 19.9951 4 19.9951H16C18.2091 19.9951 20 18.2043 20 15.9951V3.99512C20 1.78598 18.2091 -0.00488281 16 -0.00488281H4ZM2 3.99512C2 2.89055 2.89543 1.99512 4 1.99512H16C17.1046 1.99512 18 2.89055 18 3.99512V15.9951C18 17.0997 17.1046 17.9951 16 17.9951H4C2.89543 17.9951 2 17.0997 2 15.9951V3.99512Z" fill="#107F8C"/>
</svg>
