<svg width="20" height="20" viewBox="0 0 20 20" fill="none" xmlns="http://www.w3.org/2000/svg">
<path d="M17.9999 0.999997C17.9999 0.447714 17.5522 0 16.9999 0C16.4477 0 16 0.447714 16 0.999997V1.04659C15.7984 1.09797 15.585 1.17349 15.3757 1.28445C15.0159 1.47517 14.6663 1.76966 14.4081 2.2063C14.1523 2.63881 14.0174 3.15742 14.0004 3.75274C13.974 4.67795 14.5054 5.27807 15.0508 5.6391C15.5144 5.94591 16.0997 6.15631 16.5512 6.31856L16.6408 6.35081C17.1722 6.5426 17.5434 6.68766 17.7931 6.86296C17.9927 7.00306 18 7.07582 18 7.15629C18 7.40252 17.9431 7.55035 17.8874 7.64292C17.8288 7.74051 17.7428 7.82389 17.6271 7.89531C17.5083 7.96862 17.3708 8.02113 17.2388 8.05451C17.1744 8.07079 17.1169 8.08109 17.0714 8.08713C17.0274 8.09294 17.003 8.09369 17.0002 8.09377C16.8635 8.09377 16.5475 8.06135 16.2327 7.96537C15.8852 7.85945 15.7481 7.74012 15.7255 7.70782C15.4088 7.25537 14.7853 7.14534 14.3328 7.46205C13.8804 7.77877 13.7703 8.4023 14.0871 8.85474C14.502 9.44745 15.1769 9.73436 15.6495 9.87844C15.7667 9.91418 15.8843 9.94492 16 9.97107V9.99997C16 10.5523 16.4477 11 16.9999 11C17.5522 11 17.9999 10.5523 17.9999 9.99997V9.9136C18.2208 9.83889 18.4524 9.73619 18.6777 9.59716C19.3791 9.16416 20 8.37888 20 7.15629C20 6.23675 19.5008 5.61811 18.9421 5.22598C18.4408 4.87411 17.8129 4.64755 17.34 4.47689L17.3197 4.46958C16.7745 4.2728 16.4049 4.13695 16.1547 3.97134C16.0442 3.8982 16.0095 3.8512 16.0023 3.83979L16.0009 3.83741C16.0003 3.83456 15.9991 3.82603 15.9996 3.80986C16.0089 3.48331 16.0786 3.31051 16.1295 3.22447C16.178 3.14255 16.2373 3.09134 16.3123 3.05159C16.503 2.9505 16.7558 2.93755 17 2.93755C17.1693 2.93755 17.4826 3.02242 17.7631 3.35898C18.1166 3.78326 18.7472 3.84058 19.1715 3.48702C19.5957 3.13346 19.6531 2.50289 19.2995 2.07862C18.9184 1.62127 18.4642 1.31056 17.9999 1.13026V0.999997Z" fill="#B2B8BF"/>
<path fill-rule="evenodd" clip-rule="evenodd" d="M9.13238 2.43165C9.48161 2.09929 9.77307 1.99999 9.99997 1.99999C10.4554 1.99999 10.9012 2.03794 11.3345 2.11065C11.8792 2.20203 12.3948 1.83456 12.4862 1.28989C12.5776 0.745219 12.2101 0.229598 11.6654 0.13822C11.1232 0.0472454 10.5667 0 9.99997 0C4.47714 0 0 4.47714 0 9.99997C0 15.5228 4.47714 19.9999 9.99997 19.9999C14.3556 19.9999 18.0584 17.2158 19.4307 13.3332C19.6147 12.8125 19.3418 12.2412 18.8211 12.0571C18.3004 11.8731 17.729 12.146 17.545 12.6667C16.8491 14.6356 15.4046 16.2499 13.5543 17.169C14.1735 15.928 14.6138 14.3557 14.8355 12.6272C14.9057 12.0794 14.5186 11.5783 13.9708 11.5081C13.423 11.4378 12.922 11.825 12.8517 12.3728C12.6224 14.1612 12.1472 15.6474 11.5609 16.6547C10.9488 17.7061 10.3707 17.9999 9.99997 17.9999C9.77307 17.9999 9.48161 17.9006 9.13238 17.5683C8.77798 17.231 8.41334 16.6957 8.08536 15.9578C7.5239 14.6945 7.12733 12.9665 7.02565 11H11C11.5522 11 12 10.5523 12 9.99997C12 9.44769 11.5522 8.99997 11 8.99997H7.02565C7.12733 7.03345 7.5239 5.30545 8.08536 4.04216C8.41334 3.30421 8.77798 2.76892 9.13238 2.43165ZM5.02326 8.99997C5.12642 6.79595 5.56796 4.7819 6.25774 3.22989C6.318 3.0943 6.38062 2.96121 6.44559 2.83098C4.09483 3.99873 2.39998 6.28868 2.06189 8.99997H5.02326ZM2.06189 11C2.39998 13.7113 4.09483 16.0012 6.44559 17.169C6.38062 17.0387 6.318 16.9056 6.25774 16.77C5.56796 15.218 5.12642 13.204 5.02326 11H2.06189Z" fill="#B2B8BF"/>
</svg>
