<svg width="20" height="20" viewBox="0 0 20 20" fill="none" xmlns="http://www.w3.org/2000/svg">
<path d="M5.80012 0C5.24785 0 4.80015 0.447703 4.80015 0.999973C4.80015 1.55224 5.24785 1.99995 5.80012 1.99995H14.1999C14.7522 1.99995 15.1999 1.55224 15.1999 0.999973C15.1999 0.447703 14.7522 0 14.1999 0H5.80012Z" fill="#107F8C"/>
<path d="M5.00014 12.4997C5.00014 11.9474 4.55244 11.4997 4.00017 11.4997C3.4479 11.4997 3.00019 11.9474 3.00019 12.4997V16.9995C3.00019 18.6564 4.3433 19.9995 6.00011 19.9995H13.9999C15.6567 19.9995 16.9998 18.6564 16.9998 16.9995V12.4997C16.9998 11.9474 16.5521 11.4997 15.9998 11.4997C15.4476 11.4997 14.9999 11.9474 14.9999 12.4997V16.9995C14.9999 17.5518 14.5522 17.9995 13.9999 17.9995H6.00011C5.44784 17.9995 5.00014 17.5518 5.00014 16.9995V12.4997Z" fill="#107F8C"/>
<path fill-rule="evenodd" clip-rule="evenodd" d="M10 10.9997C8.3432 10.9997 7.00009 12.3428 7.00009 13.9996C7.00009 15.6564 8.3432 16.9995 10 16.9995C11.6568 16.9995 12.9999 15.6564 12.9999 13.9996C12.9999 12.3428 11.6568 10.9997 10 10.9997ZM9.00003 13.9996C9.00003 13.4474 9.44774 12.9997 10 12.9997C10.5523 12.9997 11 13.4474 11 13.9996C11 14.5519 10.5523 14.9996 10 14.9996C9.44774 14.9996 9.00003 14.5519 9.00003 13.9996Z" fill="#107F8C"/>
<path d="M0.0515866 2.68373C-0.123057 3.20766 0.160096 3.77396 0.684025 3.9486L3.68394 4.94858C4.20787 5.12322 4.77418 4.84007 4.94882 4.31614C5.12347 3.79221 4.84031 3.22591 4.31638 3.05126L1.31646 2.05129C0.792534 1.87665 0.22623 2.1598 0.0515866 2.68373Z" fill="#107F8C"/>
<path d="M19.9484 2.68373C20.1231 3.20766 19.8399 3.77396 19.316 3.9486L16.3161 4.94858C15.7921 5.12322 15.2258 4.84007 15.0512 4.31614C14.8765 3.79221 15.1597 3.22591 15.6836 3.05126L18.6835 2.05129C19.2075 1.87665 19.7738 2.1598 19.9484 2.68373Z" fill="#107F8C"/>
<path fill-rule="evenodd" clip-rule="evenodd" d="M7.00008 5.99984C7.00008 4.34303 8.34319 2.99992 10 2.99992C11.6568 2.99992 12.9999 4.34303 12.9999 5.99984C12.9999 7.65665 11.6568 8.99976 10 8.99976C8.34319 8.99976 7.00008 7.65665 7.00008 5.99984ZM10 4.99987C9.44773 4.99987 9.00003 5.44757 9.00003 5.99984C9.00003 6.55211 9.44773 6.99981 10 6.99981C10.5523 6.99981 11 6.55211 11 5.99984C11 5.44757 10.5523 4.99987 10 4.99987Z" fill="#107F8C"/>
<path d="M19.316 8.05107C19.8399 8.22572 20.1231 8.79202 19.9484 9.31595C19.7738 9.83988 19.2075 10.123 18.6835 9.94839L15.6836 8.94842C15.1597 8.77377 14.8765 8.20747 15.0512 7.68354C15.2258 7.15961 15.7921 6.87646 16.3161 7.0511L19.316 8.05107Z" fill="#107F8C"/>
<path d="M0.684025 8.05107C0.160096 8.22572 -0.123057 8.79202 0.0515866 9.31595C0.22623 9.83988 0.792534 10.123 1.31646 9.94839L4.31638 8.94842C4.84031 8.77377 5.12347 8.20747 4.94882 7.68354C4.77418 7.15961 4.20787 6.87646 3.68394 7.0511L0.684025 8.05107Z" fill="#107F8C"/>
</svg>
