<svg width="32" height="32" viewBox="0 0 32 32" fill="none" xmlns="http://www.w3.org/2000/svg">
<path fill-rule="evenodd" clip-rule="evenodd" d="M7 4C5.89543 4 5 4.89543 5 6V27C5 27.5523 5.44772 28 6 28C6.55228 28 7 27.5523 7 27V6L25 6V27C25 27.5523 25.4477 28 26 28C26.5523 28 27 27.5523 27 27V6C27 4.89543 26.1046 4 25 4H7ZM10 28C10.5523 28 11 27.5523 11 27C11 26.4477 10.5523 26 10 26C9.44772 26 9 26.4477 9 27C9 27.5523 9.44772 28 10 28ZM15 27C15 27.5523 14.5523 28 14 28C13.4477 28 13 27.5523 13 27C13 26.4477 13.4477 26 14 26C14.5523 26 15 26.4477 15 27ZM18 28C18.5523 28 19 27.5523 19 27C19 26.4477 18.5523 26 18 26C17.4477 26 17 26.4477 17 27C17 27.5523 17.4477 28 18 28ZM23 27C23 27.5523 22.5523 28 22 28C21.4477 28 21 27.5523 21 27C21 26.4477 21.4477 26 22 26C22.5523 26 23 26.4477 23 27ZM21 19C21 20.1046 20.1046 21 19 21C17.8954 21 17 20.1046 17 19C17 17.8954 17.8954 17 19 17C20.1046 17 21 17.8954 21 19ZM13 15C14.1046 15 15 14.1046 15 13C15 11.8954 14.1046 11 13 11C11.8954 11 11 11.8954 11 13C11 14.1046 11.8954 15 13 15ZM20.7067 12.7071C21.0972 12.3166 21.0972 11.6834 20.7067 11.2929C20.3162 10.9024 19.683 10.9024 19.2925 11.2929L11.2925 19.2929C10.902 19.6834 10.902 20.3166 11.2925 20.7071C11.683 21.0976 12.3162 21.0976 12.7067 20.7071L20.7067 12.7071Z" fill="#21A19A"/>
</svg>
