<svg width="20" height="20" viewBox="0 0 20 20" fill="none" xmlns="http://www.w3.org/2000/svg">
<path d="M10.7522 1.34145C10.5134 1.06858 10.1457 0.946335 9.79106 1.02198C9.43645 1.09762 9.15057 1.3593 9.04394 1.70585L6.03538 11.4837L3.9615 4.22509C3.85099 3.83832 3.51949 3.55542 3.12015 3.50709C2.72081 3.45877 2.33139 3.65444 2.13182 4.00369L0.131921 7.50351C-0.142075 7.98301 0.0245135 8.59383 0.504007 8.86783C0.983501 9.14182 1.59432 8.97523 1.86832 8.49574L2.69061 7.05673L5.0384 15.274C5.16002 15.6997 5.54708 15.9947 5.98977 15.9992C6.43247 16.0036 6.82541 15.7165 6.9556 15.2933L10.428 4.00799L12.747 6.6582C13.0554 7.01068 13.5671 7.10186 13.9783 6.87758L19.4781 3.87773C19.9629 3.61328 20.1415 3.00587 19.8771 2.52105C19.6126 2.03622 19.0052 1.85757 18.5204 2.12202L13.7243 4.73809L10.7522 1.34145Z" fill="#107F8C"/>
<path d="M15.6588 12.0727C14.0425 11.7085 12.4371 12.7235 12.0729 14.3398C11.7088 15.9561 12.7238 17.5615 14.3401 17.9257C15.9563 18.2898 17.5618 17.2748 17.9259 15.6585C18.0473 15.1198 18.5824 14.7814 19.1212 14.9028C19.6599 15.0242 19.9983 15.5594 19.8769 16.0981C19.27 18.7919 16.5942 20.4836 13.9005 19.8766C11.2067 19.2697 9.51501 16.594 10.1219 13.9002C10.7289 11.2065 13.4046 9.51475 16.0984 10.1217C16.6371 10.2431 16.9755 10.7782 16.8541 11.317C16.7327 11.8557 16.1975 12.1941 15.6588 12.0727Z" fill="#107F8C"/>
<path d="M18.7674 12.3592C19.121 12.7835 19.0636 13.414 18.6394 13.7676L15.6395 16.2674C15.2422 16.5985 14.658 16.572 14.2923 16.2063L13.2924 15.2064C12.9018 14.8159 12.9018 14.1827 13.2924 13.7922C13.6829 13.4017 14.316 13.4017 14.7065 13.7922L15.0607 14.1465L17.3591 12.2312C17.7833 11.8776 18.4139 11.935 18.7674 12.3592Z" fill="#107F8C"/>
</svg>
