<svg width="20" height="20" viewBox="0 0 20 20" fill="none" xmlns="http://www.w3.org/2000/svg">
<path d="M8.97521 1.00159C9.09742 1.54018 8.75988 2.07587 8.22129 2.19808C4.65879 3.00646 2 6.19385 2 9.99986C2 13.8059 4.65879 16.9933 8.22129 17.8016C8.75988 17.9238 9.09742 18.4595 8.97521 18.9981C8.85299 19.5367 8.31731 19.8743 7.77871 19.752C3.32525 18.7415 0 14.7602 0 9.99986C0 5.23951 3.32525 1.25821 7.77871 0.247666C8.31731 0.125453 8.85299 0.462995 8.97521 1.00159Z" fill="#107F8C"/>
<path d="M11.025 1.00159C11.1472 0.462995 11.6829 0.125453 12.2215 0.247666C15.9618 1.09637 18.9037 4.03832 19.7524 7.77857C19.8746 8.31716 19.5371 8.85285 18.9985 8.97507C18.4599 9.09728 17.9242 8.75974 17.802 8.22114C17.1237 5.23188 14.7682 2.87638 11.7789 2.19808C11.2403 2.07587 10.9028 1.54018 11.025 1.00159Z" fill="#107F8C"/>
<path d="M11.7788 17.8019C11.2402 17.9241 10.9027 18.4598 11.0249 18.9984C11.1471 19.537 11.6828 19.8745 12.2214 19.7523C15.9617 18.9036 18.9037 15.9616 19.7523 12.2213C19.8745 11.6827 19.537 11.147 18.9984 11.0248C18.4598 10.9026 17.9241 11.2401 17.8019 11.7787C17.1236 14.7681 14.7681 17.1236 11.7788 17.8019Z" fill="#107F8C"/>
<path d="M10 7C9.44771 7 9 7.44772 9 8C9 8.55228 8.55229 9 8 9C7.44772 9 7 8.55228 7 8C7 6.34315 8.34315 5 10 5C11.6569 5 13 6.34315 13 8C13 9.30622 12.1652 10.4175 11 10.8293V11C11 11.5523 10.5523 12 10 12C9.44772 12 9 11.5523 9 11V10C9 9.44772 9.44772 9 10 9C10.5523 9 11 8.55228 11 8C11 7.44772 10.5523 7 10 7Z" fill="#107F8C"/>
<path d="M10 15C10.5523 15 11 14.5523 11 14C11 13.4477 10.5523 13 10 13C9.44771 13 9 13.4477 9 14C9 14.5523 9.44771 15 10 15Z" fill="#107F8C"/>
</svg>
