<svg width="20" height="20" viewBox="0 0 20 20" fill="none" xmlns="http://www.w3.org/2000/svg">
<path fill-rule="evenodd" clip-rule="evenodd" d="M8 0C6.89543 0 6 0.89543 6 2V4H3C1.34315 4 0 5.34315 0 7V15C0 16.6569 1.34315 18 3 18H3.5C4.05228 18 4.5 17.5523 4.5 17C4.5 16.4477 4.05228 16 3.5 16H3C2.44772 16 2 15.5523 2 15V7C2 6.44772 2.44772 6 3 6H17C17.5523 6 18 6.44772 18 7V10C18 10.5523 18.4477 11 19 11C19.5523 11 20 10.5523 20 10V7C20 5.34315 18.6569 4 17 4H14V2C14 0.89543 13.1046 0 12 0H8ZM12 4H8V2H12V4Z" fill="#21A19A"/>
<path d="M9.5 15C9.5 14.4477 9.94771 14 10.5 14H12.5C13.0523 14 13.5 14.4477 13.5 15C13.5 15.5523 13.0523 16 12.5 16H10.5C9.94771 16 9.5 15.5523 9.5 15Z" fill="#21A19A"/>
<path fill-rule="evenodd" clip-rule="evenodd" d="M8 10C6.89543 10 6 10.8954 6 12V18.9797C5.99636 19.1442 6.03334 19.3119 6.11557 19.4677C6.37336 19.9561 6.97828 20.1431 7.46672 19.8853L8.52319 19.3277C8.78847 19.1877 9.10259 19.1742 9.37892 19.2908L10.0962 19.5937C10.8423 19.9087 11.684 19.9087 12.43 19.5937L13.2426 19.2506C13.4913 19.1456 13.7718 19.1456 14.0205 19.2506L15.611 19.9222C16.1198 20.137 16.7064 19.8987 16.9212 19.3899C16.9777 19.2561 17.0028 19.117 17 18.9806V12C17 10.8954 16.1046 10 15 10H8ZM15 17.4932V12H8V17.3801C8.69751 17.1363 9.46649 17.1569 10.1569 17.4483L10.8741 17.7512C11.1228 17.8562 11.4034 17.8562 11.6521 17.7512L12.4646 17.4081C13.2107 17.0931 14.0524 17.0931 14.7985 17.4081L15 17.4932Z" fill="#21A19A"/>
</svg>
