<svg width="20" height="20" viewBox="0 0 20 20" fill="none" xmlns="http://www.w3.org/2000/svg">
<path d="M0 12C0 13.1046 0.89543 14 2 14H8.5C9.05229 14 9.5 13.5523 9.5 13C9.5 12.4477 9.05229 12 8.5 12H2V4H18V7.5C18 8.05228 18.4477 8.5 19 8.5C19.5523 8.5 20 8.05228 20 7.5V4C20 2.89543 19.1046 2 18 2H2C0.895432 2 0 2.89543 0 4V12Z" fill="#21A19A"/>
<path d="M10.1484 10.232C10.3622 9.72275 10.1227 9.13663 9.61348 8.92284C9.25131 8.77079 9 8.41358 9 8C9 7.44771 9.44771 7 10 7C10.4108 7 10.766 7.24789 10.9198 7.60629C11.1376 8.11381 11.7256 8.34867 12.2331 8.13086C12.7406 7.91305 12.9755 7.32505 12.7577 6.81753C12.2998 5.75049 11.2387 4.99999 10 4.99999C8.34315 4.99999 7 6.34314 7 8C7 9.24701 7.76061 10.3141 8.83928 10.7669C9.34851 10.9807 9.93463 10.7412 10.1484 10.232Z" fill="#21A19A"/>
<path d="M13.7071 18.7071L19.7071 12.7071C20.0976 12.3166 20.0976 11.6834 19.7071 11.2929C19.3166 10.9024 18.6834 10.9024 18.2929 11.2929L12.2929 17.2929C11.9024 17.6834 11.9024 18.3166 12.2929 18.7071C12.6834 19.0976 13.3166 19.0976 13.7071 18.7071Z" fill="#21A19A"/>
<path d="M15 12.5C15 13.3284 14.3284 14 13.5 14C12.6716 14 12 13.3284 12 12.5C12 11.6716 12.6716 11 13.5 11C14.3284 11 15 11.6716 15 12.5Z" fill="#21A19A"/>
<path d="M18.5 19C19.3284 19 20 18.3284 20 17.5C20 16.6716 19.3284 16 18.5 16C17.6716 16 17 16.6716 17 17.5C17 18.3284 17.6716 19 18.5 19Z" fill="#21A19A"/>
</svg>
