<svg width="20" height="20" viewBox="0 0 20 20" fill="none" xmlns="http://www.w3.org/2000/svg">
<path fill-rule="evenodd" clip-rule="evenodd" d="M11 1C11 0.447715 11.4477 0 12 0H17C17.3466 0 17.6684 0.179452 17.8507 0.474269C18.0329 0.769085 18.0494 1.13723 17.8944 1.44721L17.118 3L17.8944 4.55279C18.0494 4.86277 18.0329 5.23091 17.8507 5.52573C17.6684 5.82055 17.3466 6 17 6H12C11.4477 6 11 5.55228 11 5V1ZM13 2V4H15.382L15.1056 3.44721C14.9648 3.16569 14.9648 2.83431 15.1056 2.55279L15.382 2H13ZM12.0088 7.50004C12.34 7.50294 12.6483 7.66969 12.8321 7.9453L19.8321 18.4453C20.0366 18.7522 20.0557 19.1467 19.8817 19.4719C19.7077 19.797 19.3688 20 19 20H1C0.628058 20 0.286845 19.7936 0.114223 19.4641C-0.0583987 19.1346 -0.0339042 18.7366 0.17781 18.4308L4.67781 11.9308C4.85765 11.671 5.14966 11.5115 5.46541 11.5006C5.78116 11.4897 6.08351 11.6286 6.28087 11.8753L7.44209 13.3268L11.1778 7.93079C11.3664 7.65844 11.6775 7.49713 12.0088 7.50004ZM11.9844 10.2794L8.3222 15.5692C8.14236 15.829 7.85034 15.9885 7.53459 15.9994C7.21884 16.0103 6.9165 15.8714 6.71913 15.6247L5.55791 14.1732L2.90857 18H17.1315L11.9844 10.2794Z" fill="#21A19A"/>
</svg>
