<svg width="20" height="20" viewBox="0 0 20 20" fill="none" xmlns="http://www.w3.org/2000/svg">
<path d="M2 2.30987C2 2.27188 2.01527 2.20833 2.09709 2.13688C2.18091 2.06369 2.32034 2 2.5 2H9.60541L15 5.17401V7.89562C15 8.4479 15.4477 8.89562 16 8.89562C16.5523 8.89562 17 8.4479 17 7.89562V4.60213C17 4.2478 16.8125 3.91993 16.5071 3.74025L10.3849 0.138116C10.2312 0.0476857 10.0561 0 9.87777 0H2.5C1.25089 0 0 0.911161 0 2.30987V8C0 8.55228 0.447715 9 1 9C1.55228 9 2 8.55228 2 8V2.30987Z" fill="#B2B8BF"/>
<path d="M20 12C20 11.4477 19.5523 11 19 11C18.4477 11 18 11.4477 18 12V17.6888C18 17.7275 17.9844 17.7915 17.9025 17.8631C17.8187 17.9364 17.6794 18 17.5 18H5.5C5.32064 18 5.18133 17.9364 5.09749 17.8631C5.01562 17.7915 5 17.7275 5 17.6888V12.2156C5 11.6633 4.55228 11.2156 4 11.2156C3.44772 11.2156 3 11.6633 3 12.2156V17.6888C3 19.0873 4.24985 20 5.5 20H17.5C18.7502 20 20 19.0873 20 17.6888V12Z" fill="#B2B8BF"/>
<path d="M4 7C4 6.44772 4.44772 6 5 6H10C10.5523 6 11 6.44772 11 7C11 7.55228 10.5523 8 10 8H5C4.44772 8 4 7.55228 4 7Z" fill="#B2B8BF"/>
<path d="M7 11C7 10.4477 7.44772 10 8 10H12C12.5523 10 13 10.4477 13 11C13 11.5523 12.5523 12 12 12H8C7.44772 12 7 11.5523 7 11Z" fill="#B2B8BF"/>
<path d="M9 14C8.44772 14 8 14.4477 8 15C8 15.5523 8.44772 16 9 16H14C14.5523 16 15 15.5523 15 15C15 14.4477 14.5523 14 14 14H9Z" fill="#B2B8BF"/>
</svg>
