<svg width="20" height="20" viewBox="0 0 20 20" fill="none" xmlns="http://www.w3.org/2000/svg">
<path fill-rule="evenodd" clip-rule="evenodd" d="M11.3218 1.85483C12.0436 0.740792 13.2944 0 14.7222 0C16.906 0 18.6766 1.73117 18.7736 3.89016C19.5235 4.52514 20 5.47648 20 6.53846C20 8.44364 18.4644 10 16.5556 10H11.0556C8.80918 10 7 8.16812 7 5.92308C7 3.67804 8.80918 1.84615 11.0556 1.84615C11.1449 1.84615 11.2337 1.84907 11.3218 1.85483ZM14.7222 2C13.8565 2 13.1088 2.54221 12.8073 3.31962C12.6212 3.79947 12.1013 4.0597 11.6057 3.9211C11.4317 3.87245 11.2475 3.84615 11.0556 3.84615C9.92686 3.84615 9 4.76944 9 5.92308C9 7.07671 9.92686 8 11.0556 8H16.5556C17.3467 8 18 7.35223 18 6.53846C18 5.99131 17.7038 5.51595 17.2648 5.26477C16.9216 5.06837 16.7263 4.68815 16.7667 4.29477C16.774 4.22347 16.7778 4.15081 16.7778 4.07692C16.7778 2.92329 15.8509 2 14.7222 2Z" fill="#107F8C"/>
<path d="M4 4C2.89543 4 2 4.89543 2 6V16C2 17.1046 2.89543 18 4 18H14C15.1046 18 16 17.1046 16 16V13C16 12.4477 16.4477 12 17 12C17.5523 12 18 12.4477 18 13V16C18 18.2091 16.2091 20 14 20H4C1.79086 20 0 18.2091 0 16V6C0 3.79086 1.79086 2 4 2H4.5C5.05228 2 5.5 2.44772 5.5 3C5.5 3.55228 5.05228 4 4.5 4H4Z" fill="#107F8C"/>
<path d="M6 11C6 11.5523 5.55228 12 5 12C4.44772 12 4 11.5523 4 11C4 10.4477 4.44772 10 5 10C5.55228 10 6 10.4477 6 11Z" fill="#107F8C"/>
<path d="M5 16C5.55228 16 6 15.5523 6 15C6 14.4477 5.55228 14 5 14C4.44772 14 4 14.4477 4 15C4 15.5523 4.44772 16 5 16Z" fill="#107F8C"/>
<path d="M10 15C10 15.5523 9.55229 16 9 16C8.44771 16 8 15.5523 8 15C8 14.4477 8.44771 14 9 14C9.55229 14 10 14.4477 10 15Z" fill="#107F8C"/>
<path d="M13 16C13.5523 16 14 15.5523 14 15C14 14.4477 13.5523 14 13 14C12.4477 14 12 14.4477 12 15C12 15.5523 12.4477 16 13 16Z" fill="#107F8C"/>
</svg>
