<svg width="32" height="32" viewBox="0 0 32 32" fill="none" xmlns="http://www.w3.org/2000/svg">
<path d="M8.21995 8.15903C9.82321 5.46775 12.7634 3.66 16.125 3.66C20.3399 3.66 23.8866 6.48941 24.9757 10.3629C27.9747 10.9197 30.25 13.5247 30.25 16.6913C30.25 17.2435 29.8023 17.6913 29.25 17.6913C28.6977 17.6913 28.25 17.2435 28.25 16.6913C28.25 14.3394 26.4247 12.4252 24.095 12.2639C23.6442 12.2327 23.2703 11.903 23.1829 11.4596C22.5297 8.14555 19.619 5.66 16.125 5.66C13.352 5.66 10.9405 7.23276 9.73848 9.54069C9.58371 9.83783 9.29043 10.0377 8.95728 10.0731C6.16933 10.3695 4 12.7334 4 15.5975C4 18.2125 5.81342 20.4138 8.25121 21.0043H12.3568C12.9091 21.0043 13.3568 21.452 13.3568 22.0043C13.3568 22.5565 12.9091 23.0043 12.3568 23.0043H8.13686C8.06394 23.0043 7.99123 22.9963 7.92004 22.9805C4.53637 22.2289 2 19.2076 2 15.5975C2 11.884 4.68049 8.78952 8.21995 8.15903Z" fill="#B2B8BF"/>
<path d="M28.2809 20.6253C28.6259 21.0566 28.5559 21.6859 28.1247 22.0309L23.1247 26.0309C22.7635 26.3199 22.2512 26.3234 21.886 26.0394L19.886 24.4838C19.4501 24.1447 19.3716 23.5165 19.7106 23.0805C20.0497 22.6446 20.678 22.566 21.1139 22.9051L22.4913 23.9764L26.8753 20.4691C27.3066 20.1241 27.9358 20.194 28.2809 20.6253Z" fill="#B2B8BF"/>
<path d="M18 24.5C18 22.0147 20.0147 20 22.5 20C23.0791 20 23.6304 20.1089 24.1362 20.3064C24.6507 20.5073 25.2306 20.2532 25.4315 19.7387C25.6324 19.2243 25.3782 18.6444 24.8638 18.4435C24.1298 18.1568 23.332 18 22.5 18C18.9101 18 16 20.9101 16 24.5C16 28.0899 18.9101 31 22.5 31C25.9263 31 28.7327 28.3496 28.982 24.9864C29.0229 24.4357 28.6095 23.9561 28.0587 23.9152C27.5079 23.8744 27.0283 24.2878 26.9875 24.8386C26.815 27.1652 24.8713 29 22.5 29C20.0147 29 18 26.9853 18 24.5Z" fill="#B2B8BF"/>
</svg>
