<svg width="32" height="32" viewBox="0 0 32 32" fill="none" xmlns="http://www.w3.org/2000/svg">
<path d="M7.04797 6.69379C7.15055 6.37615 7.40979 6.11701 7.75747 6.03009L14.0765 4.45033C14.3154 3.61312 15.0861 3.00017 16 3.00017C16.5644 3.00017 17.0742 3.23397 17.4379 3.61L23.7575 2.03009C24.2681 1.90242 24.7853 2.19238 24.9487 2.68376L27.9487 11.6838C28.1233 12.2077 27.8402 12.774 27.3162 12.9487C26.7923 13.1233 26.226 12.8402 26.0513 12.3162L24 6.16227L21.9487 12.3162C21.774 12.8402 21.2077 13.1233 20.6838 12.9487C20.1598 12.774 19.8767 12.2077 20.0513 11.6838L22.4752 4.41222L17.9234 5.55016C17.6845 6.38729 16.9138 7.00017 16 7.00017C15.4356 7.00017 14.9259 6.76642 14.5623 6.39045L9.29024 7.70845L11.9487 15.6838C12.1233 16.2077 11.8402 16.774 11.3162 16.9487C10.7923 17.1233 10.226 16.8402 10.0513 16.3162L8 10.1623L5.94868 16.3162C5.77403 16.8402 5.20771 17.1233 4.68377 16.9487C4.15983 16.774 3.87667 16.2077 4.05131 15.6838L7.04797 6.69379Z" fill="#107F8C"/>
<path d="M16 9.00017C16.5523 9.00017 17 9.44788 17 10.0002L17 26.0002H23.3333C23.8856 26.0002 24.3333 26.4479 24.3333 27.0002C24.3333 27.5525 23.8856 28.0002 23.3333 28.0002H8C7.44772 28.0002 7 27.5525 7 27.0002C7 26.4479 7.44772 26.0002 8 26.0002H15L15 10.0002C15 9.44788 15.4477 9.00017 16 9.00017Z" fill="#107F8C"/>
<path d="M20.7807 15.3753C20.4355 14.9441 19.8062 14.8744 19.3751 15.2195C18.9439 15.5647 18.8742 16.194 19.2193 16.6251C20.3687 18.0609 22.0718 19.0002 24 19.0002C25.9282 19.0002 27.6314 18.0609 28.7807 16.6251C29.1258 16.194 29.0561 15.5647 28.6249 15.2195C28.1938 14.8744 27.5645 14.9441 27.2193 15.3753C26.4034 16.3945 25.2506 17.0002 24 17.0002C22.7494 17.0002 21.5966 16.3945 20.7807 15.3753Z" fill="#107F8C"/>
<path d="M4.78068 19.3753C4.43553 18.9441 3.80622 18.8744 3.37506 19.2195C2.94391 19.5647 2.87419 20.194 3.21934 20.6251C4.36866 22.0609 6.07184 23.0002 8.00001 23.0002C9.92817 23.0002 11.6314 22.0609 12.7807 20.6251C13.1258 20.194 13.0561 19.5647 12.6249 19.2195C12.1938 18.8744 11.5645 18.9441 11.2193 19.3753C10.4034 20.3945 9.25058 21.0002 8.00001 21.0002C6.74943 21.0002 5.59663 20.3945 4.78068 19.3753Z" fill="#107F8C"/>
</svg>
