<svg width="32" height="32" viewBox="0 0 32 32" fill="none" xmlns="http://www.w3.org/2000/svg">
<path fill-rule="evenodd" clip-rule="evenodd" d="M14.9999 8C14.9999 5.23858 17.2385 3 19.9999 3H24.9999C27.7614 3 29.9999 5.23858 29.9999 8V10C29.9999 12.7614 27.7614 15 24.9999 15H21.5334C20.7143 15 19.9308 15.3349 19.3648 15.9271L18.4457 16.8886C17.1994 18.1924 14.9999 17.3103 14.9999 15.5066V8ZM19.9999 5C18.3431 5 16.9999 6.34315 16.9999 8V15.5066L17.9191 14.5451C18.8624 13.5582 20.1682 13 21.5334 13H24.9999C26.6568 13 27.9999 11.6569 27.9999 10V8C27.9999 6.34315 26.6568 5 24.9999 5H19.9999Z" fill="#B2B8BF"/>
<path d="M6.99994 13C6.44765 13 5.99994 13.4477 5.99994 14C5.99994 14.5523 6.44765 15 6.99994 15H9.99994V24.2308C9.99994 24.9854 9.80345 25.4862 9.55859 25.8323C9.30717 26.1877 8.95997 26.4422 8.57372 26.6242C8.18496 26.8074 7.78329 26.904 7.46979 26.9532C7.31552 26.9774 7.18897 26.9892 7.10466 26.9949C7.06267 26.9977 7.03165 26.999 7.01347 26.9996L6.99564 27C6.44533 27.0023 5.99994 27.4492 5.99994 28C5.99994 28.5523 6.44862 29 7.00091 29L7.00438 29L7.01032 29L7.02661 28.9998C7.0394 28.9996 7.05604 28.9992 7.07626 28.9986C7.11667 28.9973 7.17159 28.9949 7.23897 28.9904C7.37341 28.9813 7.55936 28.9637 7.78009 28.929C8.21659 28.8604 8.81491 28.7215 9.42615 28.4335C10.0399 28.1443 10.6927 27.6921 11.1913 26.9874C11.6964 26.2734 11.9999 25.3607 11.9999 24.2308V13H6.99994Z" fill="#B2B8BF"/>
<path d="M6.42503 3.50286C6.97241 3.46174 7.4499 3.8694 7.49631 4.41511C7.49662 4.41797 7.49747 4.42551 7.49909 4.43741C7.50264 4.46342 7.50986 4.51002 7.52313 4.57406C7.54973 4.70237 7.60027 4.89889 7.69334 5.13928C7.87876 5.61814 8.23321 6.2723 8.91058 6.91581C9.58903 7.56034 10.2336 7.86081 10.6856 8.00297C10.9133 8.0746 11.0949 8.10682 11.2101 8.12128C11.2676 8.1285 11.3082 8.13125 11.3293 8.13228L11.3441 8.13286C11.8902 8.12997 12.3388 8.56671 12.3489 9.11442C12.3591 9.66661 11.9197 10.1225 11.3675 10.1327L11.3665 10.1327L11.3655 10.1327L11.3633 10.1327L11.3584 10.1328L11.347 10.1329L11.3173 10.1327C11.2945 10.1324 11.2657 10.1316 11.2314 10.1299C11.1627 10.1265 11.0716 10.1196 10.9609 10.1057C10.7397 10.0779 10.4395 10.0222 10.0855 9.91082C9.37388 9.687 8.45482 9.24146 7.53309 8.36581C6.61027 7.48913 6.10376 6.57291 5.82828 5.86144C5.6909 5.50666 5.61099 5.20303 5.56476 4.97998C5.54162 4.86833 5.52682 4.77644 5.51747 4.70789C5.51279 4.6736 5.50945 4.64508 5.50712 4.6228L5.50432 4.59406L5.50339 4.58328L5.50303 4.57881L5.50287 4.5768L5.50273 4.57495C5.46137 4.02421 5.87429 3.54422 6.42503 3.50286Z" fill="#B2B8BF"/>
</svg>
