<svg width="20" height="20" viewBox="0 0 20 20" fill="none" xmlns="http://www.w3.org/2000/svg">
<path d="M6.16855 6.9634C6.70053 6.81504 7.0115 6.26351 6.86314 5.73154C6.71478 5.19956 6.16326 4.88858 5.63128 5.03694C4.11433 5.46001 2.99996 6.85099 2.99996 8.50482C2.99996 10.1587 4.11433 11.5496 5.63128 11.9727C6.16326 12.1211 6.71478 11.8101 6.86314 11.2781C7.0115 10.7461 6.70053 10.1946 6.16855 10.0462C5.49366 9.85802 4.99993 9.23779 4.99993 8.50482C4.99993 7.77185 5.49366 7.15162 6.16855 6.9634Z" fill="#B2B8BF"/>
<path d="M6.15502 15.892C5.08359 15.892 4.03676 15.5631 3.17211 14.9515C2.4167 15.6865 1.99997 16.663 1.99997 17.6685C1.99997 17.7771 2.00519 17.8879 2.01565 18H10.738C11.2902 18 11.738 18.4477 11.738 19C11.738 19.5523 11.2902 20 10.738 20H1.66186C0.934268 20 0.246835 19.5007 0.100532 18.7269C0.0346744 18.3772 0 18.0208 0 17.6685C0 15.9495 0.782608 14.3269 2.12005 13.2091L2.12151 13.2079C2.70987 12.718 3.57051 12.7138 4.16381 13.1947L4.16569 13.1962C4.7118 13.641 5.41827 13.892 6.15502 13.892C6.7073 13.892 7.15501 14.3397 7.15501 14.892C7.15501 15.4443 6.7073 15.892 6.15502 15.892Z" fill="#B2B8BF"/>
<path fill-rule="evenodd" clip-rule="evenodd" d="M10.9999 0.999986C10.9999 0.447709 10.5521 0 9.99986 0C9.44759 0 8.99988 0.447709 8.99988 0.999986V1.03502C6.25837 1.22881 4.15338 2.19587 2.69532 3.16791C1.88194 3.71016 1.26908 4.2542 0.855441 4.66783C0.648374 4.8749 0.490415 5.05011 0.381422 5.17726C0.326899 5.24087 0.284544 5.29256 0.254343 5.33031C0.239239 5.34919 0.227166 5.3646 0.218121 5.37628L0.206822 5.39098L0.202872 5.39619L0.201323 5.39824L0.200056 5.39993C-0.13131 5.84175 -0.0417683 6.46854 0.400053 6.79991C0.84164 7.1311 1.46804 7.04182 1.79955 6.60061L1.81606 6.57968C1.83273 6.55884 1.86069 6.52459 1.89991 6.47883C1.97842 6.38724 2.10171 6.24995 2.26963 6.08202C2.60599 5.74567 3.11811 5.28972 3.80471 4.83198C5.17406 3.91909 7.23427 2.99996 9.99992 2.99996C12.7656 2.99996 14.8258 3.91909 16.1951 4.83198C16.5688 5.08111 16.8908 5.32971 17.161 5.55879L15.9998 5.94583L13.3161 5.05125C13.1108 4.98283 12.8889 4.98283 12.6837 5.05125L9.70627 6.04371C9.63371 6.06597 9.56466 6.09625 9.50016 6.13353C9.38327 6.2008 9.28361 6.28979 9.20472 6.39343C9.10646 6.52206 9.03871 6.67523 9.01225 6.84215C9.00287 6.90058 8.99863 6.96018 8.99988 7.02029V12.9998C8.99988 13.9827 9.33356 14.8102 9.91776 15.3944C10.4925 15.9692 11.2525 16.2498 11.9998 16.2498C12.7472 16.2498 13.5071 15.9692 14.0819 15.3944C14.6661 14.8102 14.9998 13.9827 14.9998 12.9998C14.9998 12.4475 14.5521 11.9998 13.9998 11.9998C13.4475 11.9998 12.9998 12.4475 12.9998 12.9998C12.9998 13.5169 12.8335 13.8144 12.6677 13.9802C12.4925 14.1554 12.2525 14.2498 11.9998 14.2498C11.7472 14.2498 11.5072 14.1554 11.332 13.9802C11.1662 13.8144 10.9999 13.5169 10.9999 12.9998V7.72067L12.9999 7.054L15.6836 7.94858C15.8889 8.017 16.1108 8.017 16.3161 7.94858L19.316 6.94859C19.621 6.84694 19.8585 6.6049 19.9543 6.29808C20.0501 5.99126 19.9921 5.65628 19.7992 5.39913L19.797 5.39619L19.793 5.39098L19.7817 5.37628C19.7727 5.3646 19.7606 5.34919 19.7455 5.33031C19.7153 5.29256 19.6729 5.24087 19.6184 5.17726C19.5094 5.05011 19.3515 4.8749 19.1444 4.66783C18.7308 4.2542 18.1179 3.71016 17.3045 3.16791C15.8464 2.19585 13.7414 1.22878 10.9999 1.03501V0.999986Z" fill="#B2B8BF"/>
</svg>
