<svg width="20" height="20" viewBox="0 0 20 20" fill="none" xmlns="http://www.w3.org/2000/svg">
<path d="M17.3192 0.288386C17.7037 -0.0961288 18.3271 -0.0961288 18.7116 0.288386C19.0961 0.672901 19.0961 1.29632 18.7116 1.68084L16.3925 3.99999L18.7116 6.31917C19.0961 6.70368 19.0961 7.3271 18.7116 7.71162C18.3271 8.09613 17.7037 8.09613 17.3192 7.71161L15 5.39245L12.6808 7.71161C12.2963 8.09613 11.6729 8.09613 11.2884 7.71162C10.9039 7.3271 10.9039 6.70368 11.2884 6.31917L13.6075 3.99999L11.2884 1.68087C10.9039 1.29635 10.9039 0.672932 11.2884 0.288416C11.6729 -0.096101 12.2963 -0.0961037 12.6808 0.288409L15 2.60754L17.3192 0.288386Z" fill="#21A19A"/>
<path fill-rule="evenodd" clip-rule="evenodd" d="M4 3.72529e-09H9C9.55228 3.72529e-09 10 0.447716 10 1C10 1.55228 9.55228 2 9 2H4C3.44772 2 3 2.44772 3 3V12H6C7.65685 12 9 13.3431 9 15V18H14C14.5523 18 15 17.5523 15 17V10C15 9.44771 15.4477 9 16 9C16.5523 9 17 9.44771 17 10V17C17 18.6569 15.6569 20 14 20H7.82843C7.03278 20 6.26972 19.6839 5.70711 19.1213L1.87868 15.2929C1.31607 14.7303 1 13.9672 1 13.1716V3C1 1.34315 2.34315 3.72529e-09 4 3.72529e-09ZM6 14H3.41421L7 17.5858V15C7 14.4477 6.55228 14 6 14Z" fill="#21A19A"/>
</svg>
