<svg width="32" height="32" viewBox="0 0 32 32" fill="none" xmlns="http://www.w3.org/2000/svg">
<path fill-rule="evenodd" clip-rule="evenodd" d="M23.4119 24.252C23.4119 22.5951 24.755 21.252 26.4119 21.252C28.0687 21.252 29.4119 22.5951 29.4119 24.252C29.4119 25.9088 28.0687 27.252 26.4119 27.252C24.755 27.252 23.4119 25.9088 23.4119 24.252ZM26.4119 23.252C25.8596 23.252 25.4119 23.6997 25.4119 24.252C25.4119 24.8042 25.8596 25.252 26.4119 25.252C26.9641 25.252 27.4119 24.8042 27.4119 24.252C27.4119 23.6997 26.9641 23.252 26.4119 23.252Z" fill="#B2B8BF"/>
<path fill-rule="evenodd" clip-rule="evenodd" d="M2.56928 19.7004C2.9764 19.3272 3.60896 19.3547 3.98216 19.7618L9.48215 25.7618C9.85535 26.1689 9.82784 26.8015 9.42073 27.1747C9.01361 27.5479 8.38104 27.5203 8.00785 27.1132L2.50785 21.1132C2.13465 20.7061 2.16216 20.0735 2.56928 19.7004Z" fill="#B2B8BF"/>
<path fill-rule="evenodd" clip-rule="evenodd" d="M10.163 4.96399C10.791 4.63766 11.9356 4.30436 13.0609 4.63928C13.834 4.86936 14.2597 5.44142 14.4404 5.99862C14.5113 6.21722 14.548 6.4402 14.5582 6.65521C14.9831 6.9533 15.3778 7.31647 15.7117 7.6717C15.8104 7.77676 15.9069 7.88435 16 7.9932C16.0931 7.88435 16.1896 7.77676 16.2883 7.6717C16.6222 7.31647 17.0169 6.9533 17.4418 6.65521C17.452 6.4402 17.4887 6.21722 17.5596 5.99862C17.7403 5.44142 18.166 4.86936 18.9391 4.63928C20.0644 4.30436 21.209 4.63766 21.837 4.96399C21.8943 4.99378 21.9486 5.02906 21.9991 5.06932C22.3992 5.38819 22.7111 5.80461 22.7962 6.37484C22.842 6.68187 22.8129 6.98744 22.7536 7.27483C22.9096 7.54184 23.0092 7.81621 23.0741 8.06174C23.3417 7.66753 23.6181 7.26753 23.8703 6.90425C23.9867 6.73661 24.0965 6.57871 24.1977 6.43334C24.5102 5.98425 24.7394 5.65472 24.8207 5.52688C25.2216 4.89606 25.9973 4.70745 26.6308 4.8518C27.3423 5.0139 27.9191 5.5603 28.2423 6.37387C28.5183 7.06887 28.8391 8.41545 28.955 9.99479C29.0716 11.5834 28.9884 13.4998 28.3832 15.3066C27.8102 17.0174 27.1745 18.1066 26.5042 18.8295C25.8153 19.5725 25.1473 19.8625 24.7014 20.0545C24.1548 20.2897 23.5247 20.3167 22.8658 20.2059C22.88 20.3772 22.8761 20.5536 22.8523 20.7353C22.7881 21.2254 22.5868 21.6952 22.3085 22.156C22.1818 22.3657 21.9825 22.5216 21.7485 22.5941C21.3778 22.709 21.0454 22.838 20.8223 22.9319C20.9043 23.0775 20.9746 23.2303 21.0304 23.3901C21.2799 24.1039 21.2104 24.88 20.7476 25.5875C20.5113 25.9489 20.1785 26.2084 19.879 26.3952C19.5717 26.5868 19.2337 26.7419 18.9206 26.8688C18.6058 26.9965 18.2866 27.1073 18.0176 27.2005C17.9181 27.235 17.8279 27.2663 17.7462 27.2951C17.5723 27.6426 17.3433 27.9125 17.077 28.1103C16.7051 28.3866 16.3388 28.4635 16.1409 28.4909C16.0934 28.4974 16.0462 28.5006 15.9996 28.5004C15.9533 28.5005 15.9064 28.4974 15.8591 28.4909C15.6612 28.4635 15.2949 28.3866 14.923 28.1103C14.6567 27.9125 14.4277 27.6426 14.2538 27.2951C14.1721 27.2663 14.0819 27.235 13.9824 27.2005C13.7134 27.1073 13.3942 26.9965 13.0794 26.8688C12.7663 26.7419 12.4283 26.5868 12.121 26.3952C11.8215 26.2084 11.4887 25.9489 11.2524 25.5875C10.7896 24.88 10.7201 24.1039 10.9696 23.3901C11.0254 23.2303 11.0957 23.0775 11.1777 22.9319C10.9546 22.838 10.6222 22.709 10.2515 22.5941C10.0175 22.5216 9.81822 22.3657 9.69153 22.156C9.41323 21.6952 9.21195 21.2254 9.14773 20.7353C9.12391 20.5536 9.12001 20.3772 9.13415 20.2059C8.47534 20.3167 7.84522 20.2897 7.29865 20.0545C6.85267 19.8625 6.18468 19.5725 5.49583 18.8295C4.82554 18.1066 4.18982 17.0174 3.61678 15.3066C3.01161 13.4998 2.92837 11.5834 3.04499 9.99479C3.16092 8.41545 3.48168 7.06886 3.75773 6.37387C4.08089 5.5603 4.65771 5.0139 5.3692 4.8518C6.00274 4.70745 6.77841 4.89606 7.17931 5.52688C7.26056 5.65471 7.48983 5.98423 7.80229 6.4333C7.90344 6.57868 8.01331 6.73659 8.1297 6.90425C8.38191 7.26753 8.65828 7.66753 8.92591 8.06174C8.99084 7.81621 9.0904 7.54184 9.24637 7.27483C9.18711 6.98744 9.15797 6.68187 9.2038 6.37484C9.28892 5.80461 9.60081 5.38819 10.0009 5.06932C10.0514 5.02906 10.1057 4.99378 10.163 4.96399ZM12.073 21.1397C12.1765 21.1333 12.3059 21.1188 12.4342 21.0936C12.4705 21.0865 12.503 21.0792 12.5316 21.0721C12.5649 20.9816 12.627 20.815 12.6853 20.6947C12.7684 20.5235 12.9554 20.1867 13.3476 19.9897C13.782 19.7714 14.2205 19.8406 14.548 19.9703C14.5941 19.9886 14.6389 20.0103 14.6818 20.0352C14.8807 20.1507 15.0868 20.3434 15.1995 20.6336C15.3088 20.915 15.288 21.1796 15.2407 21.3694C15.1567 21.7068 14.9477 21.9773 14.8045 22.144C14.4871 22.5133 13.9907 22.9298 13.4458 23.3482C13.0978 23.6155 12.9211 23.8683 12.8576 24.05C12.8097 24.1871 12.809 24.3136 12.9261 24.4928C12.9391 24.5126 13.0018 24.5875 13.1793 24.6981C13.3489 24.8039 13.5692 24.9093 13.8309 25.0154C14.091 25.1209 14.3632 25.2158 14.6372 25.3107L14.6768 25.3245C14.9243 25.4102 15.193 25.5032 15.4114 25.5963C15.6861 25.7133 15.8941 25.9469 15.9786 26.2332C15.9857 26.2573 15.9929 26.2793 16 26.2994C16.0071 26.2793 16.0143 26.2573 16.0214 26.2332C16.1059 25.9469 16.3139 25.7133 16.5886 25.5963C16.807 25.5032 17.0758 25.4101 17.3233 25.3244L17.3628 25.3107C17.6368 25.2158 17.909 25.1209 18.1691 25.0154C18.4308 24.9093 18.6511 24.8039 18.8207 24.6981C18.9982 24.5875 19.0609 24.5126 19.0739 24.4928C19.191 24.3136 19.1903 24.1871 19.1424 24.05C19.0789 23.8683 18.9022 23.6155 18.5542 23.3482C18.0093 22.9298 17.5129 22.5133 17.1955 22.144C17.0523 21.9773 16.8433 21.7068 16.7593 21.3694C16.712 21.1796 16.6912 20.915 16.8005 20.6336C16.9132 20.3434 17.1193 20.1507 17.3182 20.0352C17.3611 20.0103 17.4059 19.9886 17.452 19.9703C17.7795 19.8406 18.218 19.7714 18.6524 19.9897C19.0446 20.1867 19.2316 20.5235 19.3147 20.6947C19.373 20.815 19.4351 20.9816 19.4684 21.0721C19.497 21.0792 19.5295 21.0865 19.5658 21.0936C19.6941 21.1188 19.8235 21.1333 19.927 21.1397C20.1341 21.0493 20.4257 20.9313 20.7613 20.8141C20.8305 20.662 20.8591 20.5524 20.8692 20.4755C20.8822 20.3765 20.8704 20.2962 20.8184 20.1882C20.7554 20.0573 20.6305 19.8822 20.3885 19.6307C20.1471 19.3798 19.8395 19.103 19.4437 18.7497C19.0596 18.407 18.9985 17.8285 19.3025 17.4131C19.6065 16.9976 20.1763 16.8809 20.6193 17.1433C21.5895 17.7182 22.3549 18.0352 22.9278 18.1771C23.5144 18.3224 23.8063 18.2623 23.9107 18.2174C24.2889 18.0546 24.6404 17.8981 25.0375 17.4698C25.4532 17.0214 25.9699 16.2144 26.4868 14.6714C26.9804 13.1975 27.0651 11.5672 26.9604 10.1412C26.855 8.70591 26.5653 7.56984 26.3835 7.11218C26.3513 7.03104 26.3191 6.97011 26.2905 6.92489C26.161 7.11368 25.9932 7.35474 25.8078 7.62108C25.7133 7.75694 25.6142 7.89937 25.5132 8.0448C25.0513 8.7101 24.5254 9.47418 24.1229 10.0949C23.6576 10.8124 22.8557 11.7408 22.1059 12.4822C21.7279 12.856 21.339 13.2062 20.9886 13.4705C20.8146 13.6017 20.6297 13.7273 20.4459 13.8245C20.2932 13.9053 20.0124 14.0383 19.6822 14.0383C19.1994 14.0383 18.8112 13.8035 18.5705 13.4693C18.3683 13.1886 18.2955 12.877 18.2626 12.672C18.2096 12.3419 18.2184 11.941 18.2228 11.7419C18.2236 11.7023 18.2243 11.6707 18.2243 11.6492C18.2243 11.2677 18.3436 10.7278 18.5157 10.2889C18.6039 10.0638 18.7324 9.79553 18.917 9.56492C19.0821 9.35859 19.4465 8.99412 20.0179 8.99412C20.5081 8.99412 20.8383 9.25319 21.0039 9.41039C21.075 9.47791 21.1368 9.54695 21.1809 9.59773C21.1905 9.56828 21.1998 9.52635 21.2062 9.46829C21.2141 9.39652 21.2156 9.32147 21.2156 9.22568C21.2156 9.05627 21.2026 8.83135 21.1512 8.61555C21.0982 8.39309 21.0219 8.25381 20.9491 8.17894C20.6949 7.91738 20.6032 7.53813 20.7099 7.18933C20.7643 7.01171 20.7944 6.8861 20.8089 6.79377C20.8166 6.74437 20.8186 6.71193 20.8189 6.69272C20.464 6.53548 19.9315 6.43062 19.5096 6.55618C19.4958 6.56029 19.4884 6.56375 19.485 6.5657C19.4821 6.56946 19.4725 6.58362 19.4621 6.61558C19.4485 6.65756 19.439 6.71465 19.4388 6.77935C19.4386 6.84551 19.4482 6.89381 19.4533 6.91194C19.5856 7.37497 19.3691 7.8665 18.9382 8.08145C18.5828 8.2587 18.1527 8.60837 17.7456 9.0415C17.3411 9.47181 17.0325 9.90609 16.8885 10.1849C16.7169 10.5173 16.3741 10.7261 16 10.7261C15.6259 10.7261 15.2831 10.5173 15.1115 10.1849C14.9675 9.90609 14.6589 9.47181 14.2544 9.0415C13.8473 8.60837 13.4172 8.2587 13.0618 8.08145C12.6309 7.8665 12.4144 7.37497 12.5467 6.91194C12.5519 6.89381 12.5614 6.84551 12.5612 6.77935C12.561 6.71465 12.5515 6.65755 12.5379 6.61558C12.5275 6.58362 12.5179 6.56946 12.515 6.5657C12.5116 6.56375 12.5042 6.56028 12.4904 6.55618C12.0685 6.43062 11.536 6.53548 11.1811 6.69272C11.1814 6.71193 11.1834 6.74437 11.1911 6.79377C11.2056 6.88609 11.2357 7.01171 11.2901 7.18933C11.3968 7.53813 11.3051 7.91738 11.0509 8.17894C10.9781 8.25381 10.9018 8.39309 10.8488 8.61555C10.7974 8.83135 10.7844 9.05627 10.7844 9.22568C10.7844 9.32147 10.7859 9.39652 10.7938 9.46829C10.8002 9.52635 10.8095 9.56828 10.8191 9.59774C10.8632 9.54695 10.925 9.47791 10.9961 9.41039C11.1617 9.25319 11.4919 8.99412 11.9821 8.99412C12.5535 8.99412 12.9179 9.35859 13.083 9.56492C13.2676 9.79553 13.3961 10.0638 13.4843 10.2889C13.6564 10.7278 13.7757 11.2677 13.7757 11.6492C13.7757 11.6707 13.7764 11.7023 13.7772 11.7419C13.7816 11.941 13.7904 12.3419 13.7374 12.672C13.7045 12.877 13.6317 13.1886 13.4295 13.4693C13.1888 13.8035 12.8006 14.0383 12.3178 14.0383C11.9876 14.0383 11.7068 13.9053 11.5541 13.8245C11.3703 13.7273 11.1854 13.6017 11.0114 13.4705C10.661 13.2062 10.2721 12.856 9.89414 12.4822C9.14425 11.7408 8.34241 10.8124 7.87709 10.0949C7.47459 9.47418 6.94867 8.7101 6.4868 8.0448C6.38585 7.89939 6.28674 7.75698 6.1922 7.62114C6.00683 7.35477 5.83905 7.11369 5.70954 6.92489C5.68088 6.97011 5.6487 7.03104 5.61647 7.11218C5.43468 7.56984 5.14498 8.70591 5.03962 10.1412C4.93494 11.5672 5.01958 13.1975 5.51323 14.6714C6.03006 16.2144 6.54676 17.0214 6.96246 17.4698C7.35958 17.8981 7.71113 18.0546 8.08927 18.2174C8.19369 18.2623 8.4856 18.3224 9.07216 18.1771C9.64513 18.0352 10.4105 17.7182 11.3807 17.1433C11.8237 16.8809 12.3935 16.9976 12.6975 17.4131C13.0015 17.8285 12.9404 18.407 12.5563 18.7497C12.1605 19.103 11.8529 19.3798 11.6115 19.6307C11.3695 19.8822 11.2446 20.0573 11.1816 20.1882C11.1296 20.2962 11.1178 20.3765 11.1308 20.4755C11.1409 20.5524 11.1695 20.662 11.2387 20.8141C11.5743 20.9313 11.8659 21.0493 12.073 21.1397ZM5.8228 6.79894L5.82161 6.79946L5.8228 6.79894ZM26.1772 6.79894L26.1784 6.79946L26.1772 6.79894Z" fill="#B2B8BF"/>
</svg>
