<svg width="32" height="32" viewBox="0 0 32 32" fill="none" xmlns="http://www.w3.org/2000/svg">
<path d="M10 20C10 19.4477 9.55232 19 9.00003 19C8.44775 19 8.00003 19.4477 8.00003 20C8.00003 21.2714 8.48674 22.2984 9.27317 22.9974C10.0412 23.6801 11.037 24 12 24C12.5523 24 13 23.5523 13 23C13 22.4477 12.5523 22 12 22C11.4631 22 10.9589 21.8199 10.6019 21.5026C10.2633 21.2016 10 20.7286 10 20Z" fill="#107F8C"/>
<path fill-rule="evenodd" clip-rule="evenodd" d="M24.8672 4.50194C24.6888 4.19145 24.3581 4 24 4H8.00003C7.64197 4 7.31123 4.19145 7.13289 4.50194C6.95455 4.81243 6.95584 5.19458 7.13626 5.50387L10.2478 10.8379L9.51884 11.5666C8.67742 12.4078 7.4274 13.6576 5.79293 15.2921L5.7918 15.2932C3.81102 17.2804 3.60748 20.4832 4.53198 23.0558C5.46923 25.6638 7.7025 27.9992 11 27.9992H21C24.2976 27.9992 26.5308 25.6638 27.4681 23.0558C28.3926 20.4832 28.189 17.2804 26.2083 15.2932L26.2071 15.2921C24.5727 13.6576 23.3226 12.4078 22.4812 11.5666L21.7523 10.8379L24.8638 5.50387C25.0442 5.19458 25.0455 4.81243 24.8672 4.50194ZM21 25.9992H11C8.79757 25.9992 7.16153 24.4591 6.41413 22.3794C5.6541 20.2645 5.95036 17.9677 7.20771 16.7057C8.84185 15.0716 10.0916 13.822 10.9329 12.981L12.2067 11.7076C12.528 11.3864 12.5927 10.8886 12.3638 10.4961L9.74107 6H22.259L19.9257 10H16C15.4477 10 15 10.4477 15 11C15 11.5523 15.4477 12 16 12H20C20.0278 12 20.0554 11.9989 20.0826 11.9966L21.0672 12.981C21.9084 13.822 23.1582 15.0716 24.7924 16.7057C26.0497 17.9677 26.346 20.2645 25.5859 22.3794C24.8385 24.4591 23.2025 25.9992 21 25.9992Z" fill="#107F8C"/>
</svg>
