<svg width="20" height="20" viewBox="0 0 20 20" fill="none" xmlns="http://www.w3.org/2000/svg">
<path d="M12 2C10.3056 2 8.85488 3.05393 8.27234 4.5456L7.94372 5.38708L7.07328 5.14536C6.73287 5.05083 6.37318 5 6 5C3.79086 5 2 6.79086 2 9C2 11.2091 3.79086 13 6 13H6.34058C6.89286 13 7.34058 13.4477 7.34058 14C7.34058 14.5523 6.89286 15 6.34058 15H6.00095C2.68724 15 0 12.3137 0 9C0 5.68629 2.68629 3 6 3C6.26214 3 6.5207 3.01687 6.77457 3.04965C7.80413 1.22997 9.75747 0 12 0C15.3136 0 17.9999 2.68618 18 5.99978C19.213 6.91093 20 8.36307 20 10C20 10.5731 19.9032 11.1258 19.7241 11.6412C19.5429 12.1629 18.9731 12.4389 18.4514 12.2577C17.9297 12.0765 17.6536 11.5066 17.8349 10.9849C17.9416 10.6777 18 10.3467 18 10C18 8.88262 17.3896 7.90654 16.4793 7.38926L15.9115 7.06664L15.9786 6.41707C15.9927 6.28028 16 6.14116 16 6C16 3.79086 14.2091 2 12 2Z" fill="#21A19A"/>
<path d="M13.6593 11.0732C12.043 10.7091 10.4375 11.7241 10.0733 13.3405C9.70911 14.9568 10.7242 16.5623 12.3405 16.9265C13.9569 17.2907 15.5624 16.2756 15.9266 14.6593C16.048 14.1205 16.5831 13.7821 17.1219 13.9035C17.6607 14.0249 17.999 14.5601 17.8776 15.0989C17.2707 17.7928 14.5948 19.4846 11.9009 18.8776C9.20704 18.2707 7.51524 15.5948 8.1222 12.9009C8.72916 10.207 11.405 8.5152 14.0989 9.12216C14.6377 9.24355 14.9761 9.77872 14.8547 10.3175C14.7333 10.8563 14.1981 11.1946 13.6593 11.0732Z" fill="#21A19A"/>
<path d="M16.6402 12.7682C17.0645 12.4147 17.1218 11.7841 16.7682 11.3598C16.4147 10.9355 15.7841 10.8782 15.3598 11.2318L13.0614 13.1471L12.7071 12.7929C12.3166 12.4024 11.6834 12.4024 11.2929 12.7929C10.9024 13.1834 10.9024 13.8166 11.2929 14.2071L12.2929 15.2071C12.6586 15.5728 13.2429 15.5993 13.6402 15.2682L16.6402 12.7682Z" fill="#21A19A"/>
</svg>
