<svg width="20" height="20" viewBox="0 0 20 20" fill="none" xmlns="http://www.w3.org/2000/svg">
<path d="M11 3C11 2.44772 11.4477 2 12 2H17C17.5523 2 18 2.44772 18 3V19C18 19.5523 18.4477 20 19 20C19.5523 20 20 19.5523 20 19V3C20 1.34315 18.6569 0 17 0H12C10.3431 0 9 1.34315 9 3V4.92593C9 5.47821 9.44772 5.92593 10 5.92593C10.5523 5.92593 11 5.47821 11 4.92593V3Z" fill="#107F8C"/>
<path d="M13 5C13 4.44772 13.4477 4 14 4H15C15.5523 4 16 4.44772 16 5C16 5.55228 15.5523 6 15 6H14C13.4477 6 13 5.55228 13 5Z" fill="#107F8C"/>
<path d="M13 8C13 7.44772 13.4477 7 14 7H15C15.5523 7 16 7.44772 16 8C16 8.55229 15.5523 9 15 9H14C13.4477 9 13 8.55229 13 8Z" fill="#107F8C"/>
<path fill-rule="evenodd" clip-rule="evenodd" d="M6 6C4.20507 6 2.75 7.45507 2.75 9.25C2.75 11.0449 4.20507 12.5 6 12.5C7.79493 12.5 9.25 11.0449 9.25 9.25C9.25 7.45507 7.79493 6 6 6ZM4.75 9.25C4.75 8.55964 5.30964 8 6 8C6.69036 8 7.25 8.55964 7.25 9.25C7.25 9.94036 6.69036 10.5 6 10.5C5.30964 10.5 4.75 9.94036 4.75 9.25Z" fill="#107F8C"/>
<path fill-rule="evenodd" clip-rule="evenodd" d="M9.92347 12.8962C9.32648 12.3631 8.42872 12.368 7.83801 12.9108C7.34596 13.3629 6.73605 13.5729 6 13.5729C5.25155 13.5729 4.57498 13.3585 4.10405 12.9366L4.10221 12.9349C3.50466 12.4022 2.60897 12.408 2.01824 12.949L2.01683 12.9503C0.730064 14.1333 0 15.8257 0 17.5917C0 17.9546 0.0324622 18.3223 0.0943806 18.684C0.220043 19.4151 0.84641 20 1.63643 20H10.3636C11.1523 20 11.7803 19.4165 11.9057 18.6836C11.9682 18.3207 12 17.9535 12 17.5917C12 15.796 11.2487 14.083 9.92447 12.8971L9.92347 12.8962ZM6 15.5729C7.01584 15.5729 8.01038 15.305 8.8645 14.6568C9.58638 15.4362 10 16.4843 10 17.5917C10 17.7259 9.99354 17.8624 9.98056 18H2.0196C2.00654 17.8621 2 17.7255 2 17.5917C2 16.5047 2.40136 15.4696 3.10148 14.6941C3.97559 15.3281 5.027 15.5729 6 15.5729Z" fill="#107F8C"/>
</svg>
