<svg width="20" height="20" viewBox="0 0 20 20" fill="none" xmlns="http://www.w3.org/2000/svg">
<path fill-rule="evenodd" clip-rule="evenodd" d="M6 3C6 1.34315 7.34315 0 9 0H15C16.6569 0 18 1.34315 18 3V5C18 5.55228 17.5523 6 17 6C16.4477 6 16 5.55228 16 5V3C16 2.44772 15.5523 2 15 2H9C8.44771 2 8 2.44772 8 3V18L19 18C19.5523 18 20 18.4477 20 19C20 19.5523 19.5523 20 19 20L1 20C0.447715 20 0 19.5523 0 19C0 18.4477 0.447715 18 1 18H2V8C2 6.34315 3.34315 5 5 5H6V3ZM6 18V7H5C4.44772 7 4 7.44772 4 8V18H6Z" fill="#107F8C"/>
<path d="M16 11C16 10.4477 15.5523 10 15 10C14.4477 10 14 10.4477 14 11V12C14 12.2652 14.1054 12.5196 14.2929 12.7071L14.7929 13.2071C15.1834 13.5976 15.8166 13.5976 16.2071 13.2071C16.5976 12.8166 16.5976 12.1834 16.2071 11.7929L16 11.5858V11Z" fill="#107F8C"/>
<path fill-rule="evenodd" clip-rule="evenodd" d="M10 12C10 9.23866 12.238 7 15 7C17.7613 7 20 9.23801 20 12C20 14.7613 17.762 17 15 17C12.2387 17 10 14.762 10 12ZM15 9C13.3427 9 12 10.3431 12 12C12 13.6573 13.3431 15 15 15C16.6573 15 18 13.6569 18 12C18 10.3427 16.6569 9 15 9Z" fill="#107F8C"/>
</svg>
