<svg width="20" height="20" viewBox="0 0 20 20" fill="none" xmlns="http://www.w3.org/2000/svg">
<path fill-rule="evenodd" clip-rule="evenodd" d="M7.58125 1.18634C8.03066 1.50735 8.13475 2.1319 7.81374 2.58131L6.08611 5H13.9139L12.1862 2.58131C11.8652 2.1319 11.9693 1.50735 12.4187 1.18634C12.8681 0.865335 13.4927 0.969426 13.8137 1.41884L16.3137 4.91884C16.3326 4.94531 16.3501 4.9724 16.366 5H19C19.3161 5 19.6136 5.14946 19.8023 5.40307C19.991 5.65667 20.0487 5.98457 19.9578 6.28734L18.9578 9.62067C18.7991 10.1497 18.2416 10.4498 17.7126 10.2912C17.1837 10.1325 16.8835 9.57497 17.0422 9.04598L17.656 6.99999H2.34404L4.74404 15H10C10.5523 15 11 15.4477 11 16C11 16.5523 10.5523 17 10 17H4.00001C3.5584 17 3.16907 16.7103 3.04218 16.2873L0.042182 6.28734C-0.0486503 5.98457 0.00902211 5.65667 0.197715 5.40307C0.386408 5.14946 0.683902 5 1.00001 5H3.63395C3.64993 4.9724 3.66737 4.94531 3.68628 4.91884L6.18628 1.41884C6.50729 0.969426 7.13184 0.865335 7.58125 1.18634ZM12.7929 11.7929C13.1834 11.4024 13.8166 11.4024 14.2071 11.7929L18 15.5858V13C18 12.4477 18.4477 12 19 12C19.5523 12 20 12.4477 20 13V18C20 18.5523 19.5523 19 19 19H14C13.4477 19 13 18.5523 13 18C13 17.4477 13.4477 17 14 17H16.5858L12.7929 13.2071C12.4024 12.8166 12.4024 12.1834 12.7929 11.7929Z" fill="#B2B8BF"/>
</svg>
