<svg width="20" height="20" viewBox="0 0 20 20" fill="none" xmlns="http://www.w3.org/2000/svg">
<path fill-rule="evenodd" clip-rule="evenodd" d="M6 0C6.55228 0 7 0.447715 7 1V2H13V1C13 0.447715 13.4477 0 14 0C14.5523 0 15 0.447715 15 1V2H17C18.6569 2 20 3.34315 20 5V17C20 18.6569 18.6569 20 17 20H3C1.34315 20 0 18.6569 0 17V5C0 3.34315 1.34315 2 3 2H5V1C5 0.447715 5.44772 0 6 0ZM13 4V5C13 5.55228 13.4477 6 14 6C14.5523 6 15 5.55228 15 5V4H17C17.5523 4 18 4.44772 18 5V17C18 17.5523 17.5523 18 17 18H3C2.44772 18 2 17.5523 2 17V5C2 4.44772 2.44772 4 3 4H5V5C5 5.55228 5.44772 6 6 6C6.55228 6 7 5.55228 7 5V4H13Z" fill="#107F8C"/>
<path fill-rule="evenodd" clip-rule="evenodd" d="M8 8C8 7.44772 8.44772 7 9 7H11.1564C12.2068 7 12.9922 7.39405 13.474 8.06082C13.9137 8.66923 14 9.36821 14 9.82749V9.94985C14 10.4578 13.8628 11.174 13.4501 11.7954C13.0046 12.4661 12.2463 13 11.1564 13H10V13.5H10.5C11.0523 13.5 11.5 13.9477 11.5 14.5C11.5 15.0523 11.0523 15.5 10.5 15.5H10V16C10 16.5523 9.55228 17 9 17C8.44772 17 8 16.5523 8 16V15.5H7.5C6.94772 15.5 6.5 15.0523 6.5 14.5C6.5 13.9477 6.94772 13.5 7.5 13.5H8V13H7.5C6.94772 13 6.5 12.5523 6.5 12C6.5 11.4477 6.94772 11 7.5 11H8V8ZM10 11V9H11.1564C11.4274 9 11.5877 9.0481 11.6775 9.09031C11.7629 9.13048 11.8145 9.17902 11.853 9.23225C11.9449 9.35944 12 9.57421 12 9.82749V9.94985C12 10.1544 11.9339 10.4633 11.7841 10.6888C11.667 10.8651 11.5035 11 11.1564 11H10Z" fill="#107F8C"/>
</svg>
