<svg width="32" height="32" viewBox="0 0 32 32" fill="none" xmlns="http://www.w3.org/2000/svg">
<path d="M19.8778 7.61727C19.4076 7.90685 18.7916 7.76037 18.502 7.29009L16.8233 4.56392C16.664 4.30524 16.631 3.98818 16.7335 3.70221C16.8359 3.41624 17.0629 3.19236 17.3502 3.09374L20.3784 2.05443C20.9008 1.87514 21.4696 2.15327 21.6488 2.67565C21.8281 3.19802 21.55 3.76683 21.0276 3.94611L20.9658 3.96732C24.4465 5.39233 27.1815 8.25979 28.4301 11.8259C28.6127 12.3472 28.338 12.9177 27.8168 13.1002C27.2955 13.2827 26.725 13.0081 26.5425 12.4868C25.4416 9.34271 22.9775 6.83888 19.8612 5.6831L20.205 6.24142C20.4946 6.7117 20.3481 7.32769 19.8778 7.61727Z" fill="#107F8C"/>
<path d="M13.9676 4.11869C14.1071 4.65308 13.7869 5.19935 13.2525 5.33881C8.51466 6.57536 5 10.9438 5 16.1561C5 19.7427 6.66525 22.895 9.25598 24.9224L9.09225 24.3976C8.92777 23.8703 9.22183 23.3096 9.74905 23.1451C10.2763 22.9806 10.837 23.2747 11.0015 23.8019L11.955 26.8582C12.0434 27.1416 12.0013 27.4492 11.8407 27.698C11.663 27.9747 11.3641 28.1398 11.0485 28.1554L7.89034 28.4121C7.33987 28.4568 6.85736 28.0469 6.81262 27.4964C6.76788 26.9459 7.17786 26.4634 7.72833 26.4187L7.90615 26.4042C4.91728 24.0095 3 20.3302 3 16.1561C3 10.0286 7.13398 4.86871 12.7475 3.40364C13.2819 3.26417 13.8281 3.58431 13.9676 4.11869Z" fill="#107F8C"/>
<path fill-rule="evenodd" clip-rule="evenodd" d="M29.6927 21.5027C29.6927 26.1123 25.9559 29.8491 21.3464 29.8491L21.3417 29.8491C16.7343 29.8466 13 26.1107 13 21.5027C13 16.8932 16.7368 13.1564 21.3464 13.1564C25.9559 13.1564 29.6927 16.8932 29.6927 21.5027ZM20.7647 15.4581C21.025 15.2104 21.2193 15.1568 21.3447 15.1564H21.3462C21.4716 15.1564 21.6664 15.2094 21.9277 15.4581C22.1942 15.7117 22.4797 16.1259 22.7411 16.7142C22.9155 17.1064 23.0704 17.5565 23.1995 18.0536H19.4929C19.622 17.5565 19.777 17.1064 19.9513 16.7142C20.2128 16.1259 20.4982 15.7117 20.7647 15.4581ZM17.4372 18.0536C17.5938 17.3365 17.799 16.6722 18.0466 16.0806C17.2314 16.5777 16.5372 17.2535 16.0182 18.0536H17.4372ZM15.1662 20.0536H17.141C17.1015 20.5256 17.0812 21.0101 17.0812 21.5027C17.0812 21.9954 17.1015 22.4798 17.141 22.9518H15.1662C15.0575 22.4864 15 22.0013 15 21.5027C15 21.0042 15.0575 20.519 15.1662 20.0536ZM16.0181 24.9518H17.4371C17.5938 25.6689 17.799 26.3333 18.0466 26.9249C17.2314 26.4277 16.5371 25.7519 16.0181 24.9518ZM23.1995 24.9518H19.4929C19.622 25.4489 19.777 25.899 19.9513 26.2913C20.2128 26.8796 20.4982 27.2938 20.7647 27.5474C21.026 27.7961 21.2208 27.8491 21.3462 27.8491C21.4716 27.8491 21.6664 27.7961 21.9277 27.5474C22.1942 27.2938 22.4797 26.8796 22.7411 26.2913C22.9155 25.899 23.0704 25.4489 23.1995 24.9518ZM19.0812 21.5027C19.0812 22.003 19.1048 22.4877 19.1489 22.9518H23.5436C23.5877 22.4877 23.6113 22.003 23.6113 21.5027C23.6113 21.0024 23.5877 20.5177 23.5436 20.0536H19.1489C19.1048 20.5177 19.0812 21.0024 19.0812 21.5027ZM24.6457 26.9251C24.8934 26.3335 25.0987 25.669 25.2553 24.9518H26.6746C26.1555 25.752 25.4611 26.4279 24.6457 26.9251ZM25.5515 22.9518H27.5265C27.6352 22.4864 27.6927 22.0013 27.6927 21.5027C27.6927 21.0042 27.6352 20.519 27.5265 20.0536H25.5514C25.5909 20.5256 25.6113 21.0101 25.6113 21.5027C25.6113 21.9954 25.5909 22.4798 25.5515 22.9518ZM26.6745 18.0536C26.1555 17.2534 25.4611 16.5776 24.6457 16.0804C24.8934 16.672 25.0987 17.3364 25.2553 18.0536H26.6745Z" fill="#107F8C"/>
</svg>
