<svg width="20" height="20" viewBox="0 0 20 20" fill="none" xmlns="http://www.w3.org/2000/svg">
<path fill-rule="evenodd" clip-rule="evenodd" d="M4 1C2.34315 1 1 2.34315 1 4V12C1 13.6569 2.34315 15 4 15H9V17H6C5.44772 17 5 17.4477 5 18C5 18.5523 5.44772 19 6 19H10H14C14.5523 19 15 18.5523 15 18C15 17.4477 14.5523 17 14 17H11V15H16C17.6569 15 19 13.6569 19 12V4C19 2.34315 17.6569 1 16 1H4ZM10 13H16C16.5523 13 17 12.5523 17 12V4C17 3.44772 16.5523 3 16 3H4C3.44772 3 3 3.44772 3 4V12C3 12.5523 3.44772 13 4 13H10ZM13 11C13 11.5523 13.4477 12 14 12C14.5523 12 15 11.5523 15 11V6C15 5.44772 14.5523 5 14 5C13.4477 5 13 5.44772 13 6V11ZM10 12C9.44771 12 9 11.5523 9 11V7C9 6.44772 9.44771 6 10 6C10.5523 6 11 6.44772 11 7V11C11 11.5523 10.5523 12 10 12ZM5 11C5 11.5523 5.44772 12 6 12C6.55228 12 7 11.5523 7 11V9C7 8.44772 6.55228 8 6 8C5.44772 8 5 8.44772 5 9V11Z" fill="#21A19A"/>
</svg>
