<svg width="32" height="32" viewBox="0 0 32 32" fill="none" xmlns="http://www.w3.org/2000/svg">
<path fill-rule="evenodd" clip-rule="evenodd" d="M4.99997 8V9H3.99997C3.44772 9 2.99997 9.44727 2.99997 10C2.99997 10.5527 3.44772 11 3.99997 11H4.99997V12C4.99997 12.5527 5.44772 13 5.99997 13C6.55222 13 6.99997 12.5527 6.99997 12V11H7.98825C8.5405 11 8.98825 10.5527 8.98825 10C8.98825 9.44727 8.5405 9 7.98825 9H6.99997V8H8.83835C9.99362 8 10.8413 7.5127 11.3645 6.78125C11.8516 6.09961 12 5.29102 12 4.66699V4.5C12 3.93066 11.9084 3.08887 11.4556 2.35742C10.9565 1.55176 10.0898 1 8.83835 1H6.23044C6.19162 1 6.15329 1.00195 6.1152 1.00684C6.07761 1.00195 6.03903 1 5.99997 1C5.44772 1 4.99997 1.44727 4.99997 2V6H3.99997C3.44772 6 2.99997 6.44727 2.99997 7C2.99997 7.55273 3.44772 8 3.99997 8H4.99997ZM24.1277 10.5088C24.1494 10.5625 24.1709 10.6162 24.1919 10.6699C24.396 11.1787 24.9727 11.4287 25.4841 11.2285C25.9985 11.0273 26.2522 10.4473 26.051 9.93262C25.9976 9.7959 25.9419 9.66113 25.884 9.52637C25.8403 9.42578 25.7957 9.32617 25.7495 9.22656C25.7017 9.12305 25.6521 9.02051 25.6011 8.91797C25.4729 8.66016 25.3357 8.40723 25.1904 8.15918C24.2932 6.63086 23.0779 5.30469 21.6191 4.27539C19.6743 2.90234 17.3779 2.11328 14.9995 2.00098C14.448 1.97559 13.9795 2.40137 13.9536 2.95312C13.928 3.49707 14.3418 3.95996 14.8821 3.99707C15.3931 4.02051 15.9033 4.08105 16.4087 4.17871C18.147 4.51562 19.7715 5.28711 21.1318 6.41992C21.8506 7.01953 22.4829 7.70898 23.0146 8.46973C23.0835 8.56738 23.1504 8.66699 23.2158 8.76758C23.2642 8.8418 23.3115 8.91699 23.3579 8.99219C23.4591 9.15755 23.556 9.32552 23.6484 9.49609C23.7183 9.62598 23.7856 9.75684 23.8501 9.88965C23.9492 10.0928 24.0415 10.2988 24.1277 10.5088ZM6.99997 3V6H8.83835C9.36789 6 9.60104 5.80859 9.73752 5.61719C9.90988 5.37598 9.99997 5.01855 9.99997 4.66699V4.5C9.99997 4.09473 9.92575 3.68652 9.75534 3.41113C9.63107 3.21094 9.41696 3 8.83835 3H6.99997ZM22 12C17.0293 12 13 16.0293 13 21V29C13 29.5527 13.4478 30 14 30H22C26.9707 30 31 25.9707 31 21C31 16.0293 26.9707 12 22 12ZM15 21C15 17.1338 18.134 14 22 14C25.866 14 29 17.1338 29 21C29 24.8662 25.866 28 22 28H15V21ZM2.86252 19.2725C2.43698 18.2451 2.14792 17.1602 2.00778 16.0459C1.93893 15.498 2.32736 14.998 2.87546 14.9287C3.41843 14.8604 3.91403 15.2412 3.9902 15.7812C4.04489 16.2207 4.12741 16.6572 4.23776 17.0889C4.3779 17.6367 4.56149 18.1699 4.7861 18.6855C4.832 18.79 4.87985 18.8955 4.92917 18.999C4.98239 19.1104 5.03757 19.2217 5.09445 19.3311C5.17282 19.4824 5.25534 19.6309 5.34128 19.7783C5.37725 19.8408 5.41395 19.9024 5.45139 19.9629C5.5195 20.0752 5.59006 20.1855 5.66257 20.2949C5.86813 20.6045 6.09055 20.9033 6.32907 21.1914C7.603 22.7266 9.28806 23.8672 11.187 24.4805C11.6995 24.6582 11.9775 25.2148 11.8093 25.7334C11.6387 26.2588 11.0747 26.5459 10.5493 26.376C8.54465 25.7246 6.73727 24.5771 5.29489 23.04C4.86179 22.5781 4.46555 22.0859 4.10935 21.5684C4.08566 21.5332 4.05417 21.4873 4.03098 21.4521C3.94162 21.3193 3.85495 21.1846 3.77072 21.0479C3.6882 20.9141 3.60837 20.7793 3.53098 20.6426C3.41168 20.4317 3.2988 20.2178 3.19235 20.001C3.15427 19.9238 3.11691 19.8457 3.08054 19.7676C3.0571 19.7178 3.03415 19.668 3.01169 19.6172C2.98435 19.5566 2.95749 19.4961 2.93112 19.4346C2.9111 19.3887 2.88205 19.3193 2.86252 19.2725ZM22.231 26C24.1265 26 26 24.6846 26 22.5C26 20.3154 24.1265 19 22.231 19H20V18H24C24.5522 18 25 17.5527 25 17C25 16.4473 24.5522 16 24 16H20C18.8955 16 18 16.8955 18 18V26H22.231ZM20 24H22.231C23.3071 24 24 23.3154 24 22.5C24 21.6846 23.3071 21 22.231 21H20V24Z" fill="#21A19A"/>
</svg>
