<svg width="32" height="32" viewBox="0 0 32 32" fill="none" xmlns="http://www.w3.org/2000/svg">
<path d="M25 3.61805C25.3069 3.34339 25.5 2.94425 25.5 2.5C25.5 1.67157 24.8284 1 24 1C23.1716 1 22.5 1.67157 22.5 2.5C22.5 2.94425 22.6931 3.34339 23 3.61805V6.26768L20.7053 4.94282C20.6208 4.53988 20.3717 4.17323 19.9871 3.95117C19.2819 3.54403 18.3835 3.77458 17.9597 4.46391C17.9522 4.47567 17.945 4.48764 17.938 4.49981C17.9311 4.51164 17.9246 4.52356 17.9183 4.53554C17.532 5.2475 17.7814 6.14181 18.4871 6.54925C18.872 6.77144 19.3143 6.80371 19.7057 6.67514L22.0001 7.99981L19.7049 9.32499C19.3137 9.19675 18.8717 9.22914 18.4871 9.45117C17.7697 9.86539 17.5238 10.7828 17.9381 11.5002C18.3523 12.2176 19.2697 12.4635 19.9871 12.0492C20.372 11.827 20.6211 11.46 20.7055 11.0567L23 9.73195V12.3819C22.6931 12.6566 22.5 13.0557 22.5 13.5C22.5 14.3284 23.1716 15 24 15C24.8284 15 25.5 14.3284 25.5 13.5C25.5 13.0557 25.3069 12.6566 25 12.3819V9.73178L27.2951 11.0569C27.3795 11.4601 27.6286 11.8271 28.0135 12.0492C28.7309 12.4635 29.6483 12.2176 30.0625 11.5002C30.4767 10.7828 30.2309 9.86539 29.5135 9.45117C29.1288 9.22911 28.6867 9.19674 28.2955 9.32505L26.0001 7.99981L28.2946 6.67508C28.6861 6.80372 29.1285 6.77148 29.5135 6.54925C30.2268 6.13741 30.4739 5.22814 30.0696 4.51256L30.0623 4.49981L30.054 4.48569C29.6359 3.77947 28.726 3.53977 28.0135 3.95117C27.6289 4.17319 27.3799 4.53977 27.2953 4.94264L25 6.26784V3.61805Z" fill="#21A19A"/>
<path d="M13.0822 7.03768C13.6326 6.99228 14.042 6.50927 13.9966 5.95885C13.9512 5.40844 13.4682 4.99905 12.9178 5.04446C6.24392 5.59504 1 11.1846 1 18C1 25.1797 6.8203 31 14 31C21.1797 31 27 25.1797 27 18C27 17.4477 26.5523 17 26 17C25.4477 17 25 17.4477 25 18C25 24.0751 20.0751 29 14 29C7.92487 29 3 24.0751 3 18C3 12.2341 7.43702 7.5034 13.0822 7.03768Z" fill="#21A19A"/>
<path d="M21 18C21 18.5523 20.5523 19 20 19H15V24C15 24.5523 14.5523 25 14 25C13.4477 25 13 24.5523 13 24V19H8C7.44771 19 7 18.5523 7 18C7 17.4477 7.44771 17 8 17H13V12C13 11.4477 13.4477 11 14 11C14.5523 11 15 11.4477 15 12V17H20C20.5523 17 21 17.4477 21 18Z" fill="#21A19A"/>
</svg>
