<svg width="20" height="20" viewBox="0 0 20 20" fill="none" xmlns="http://www.w3.org/2000/svg">
<path d="M10.4472 0.105573C10.1657 -0.0351909 9.83429 -0.0351909 9.55276 0.105573L1.55276 4.10557C1.05878 4.35256 0.858558 4.95324 1.10555 5.44721C1.35254 5.94119 1.95321 6.14142 2.44719 5.89443L9.99998 2.11803L17.5528 5.89443C18.0467 6.14142 18.6474 5.94119 18.8944 5.44721C19.1414 4.95324 18.9412 4.35256 18.4472 4.10557L10.4472 0.105573Z" fill="#107F8C"/>
<path d="M2.5 18C1.94772 18 1.5 18.4477 1.5 19C1.5 19.5523 1.94772 20 2.5 20L17.5 20C18.0523 20 18.5 19.5523 18.5 19C18.5 18.4477 18.0523 18 17.5 18L2.5 18Z" fill="#107F8C"/>
<path d="M10 7C10.5523 7 11 7.44772 11 8V15C11 15.5523 10.5523 16 10 16C9.44771 16 9 15.5523 9 15V8C9 7.44772 9.44771 7 10 7Z" fill="#107F8C"/>
<path d="M6 8C6 7.44772 5.55228 7 5 7C4.44772 7 4 7.44772 4 8V15C4 15.5523 4.44772 16 5 16C5.55228 16 6 15.5523 6 15V8Z" fill="#107F8C"/>
<path d="M15 7C15.5523 7 16 7.44772 16 8V15C16 15.5523 15.5523 16 15 16C14.4477 16 14 15.5523 14 15V8C14 7.44772 14.4477 7 15 7Z" fill="#107F8C"/>
</svg>
