<svg width="20" height="20" viewBox="0 0 20 20" fill="none" xmlns="http://www.w3.org/2000/svg">
<path d="M10.2589 0.0376651C10.0809 -0.0126332 9.89239 -0.0125534 9.71439 0.0378955L1.72732 2.3016C1.297 2.42357 0.999996 2.81644 0.999996 3.26371L0.999939 8.43367L1.00169 8.60316L1.00192 8.6138C1.05308 11.012 2.11648 13.3133 3.66888 15.2495C5.22472 17.1901 7.31866 18.8257 9.55354 19.9011C9.68882 19.9662 9.83701 20 9.98714 20H10.0129C10.163 20 10.3112 19.9662 10.4465 19.9011C14.032 18.1758 17.3236 14.9678 18.5231 11.3117C18.6952 10.787 18.4094 10.222 17.8846 10.0498C17.3599 9.87766 16.7949 10.1635 16.6227 10.6883C15.6763 13.5729 13.0479 16.2982 10 17.888C8.18259 16.9397 6.49372 15.5756 5.22929 13.9985C3.86561 12.2976 3.04216 10.4102 3.00158 8.57627L3 8.42833V4.01968L9.98751 2.03926L15.7281 3.66103C16.2596 3.81118 16.8122 3.50204 16.9623 2.97056C17.1125 2.43908 16.8033 1.88651 16.2719 1.73636L10.2589 0.0376651Z" fill="#107F8C"/>
<path d="M18.357 6.394C18.793 6.055 18.8717 5.42674 18.5327 4.99073C18.1937 4.55473 17.5654 4.47609 17.1294 4.81508L10.0121 10.3488L7.1187 8.28203C6.66929 7.96102 6.04474 8.06511 5.72373 8.51453C5.40272 8.96394 5.50681 9.58849 5.95622 9.9095L9.45622 12.4095C9.81611 12.6666 10.3021 12.6567 10.6513 12.3852L18.357 6.394Z" fill="#107F8C"/>
</svg>
