<svg width="20" height="20" viewBox="0 0 20 20" fill="none" xmlns="http://www.w3.org/2000/svg">
<path d="M7.58119 0.186344C8.03061 0.507353 8.1347 1.1319 7.81369 1.58132L6.08597 4.00012H13.914L12.1863 1.58132C11.8653 1.1319 11.9694 0.507353 12.4188 0.186344C12.8682 -0.134665 13.4928 -0.0305731 13.8138 0.418839L16.3138 3.91884C16.3327 3.94536 16.3502 3.97248 16.3662 4.00012H19C19.3161 4.00012 19.6136 4.14958 19.8023 4.40319C19.991 4.6568 20.0487 4.9847 19.9578 5.28747L19.5803 6.54607C19.4216 7.07506 18.8641 7.37525 18.3351 7.21655C17.8157 7.06072 17.5168 6.52042 17.6564 6.00012H2.34404L4.74404 14.0001H7.50001C8.05229 14.0001 8.50001 14.4478 8.50001 15.0001C8.50001 15.5524 8.05229 16.0001 7.50001 16.0001H4.00001C3.5584 16.0001 3.16908 15.7105 3.04218 15.2875L0.042182 5.28747C-0.0486503 4.9847 0.00902212 4.6568 0.197715 4.40319C0.386409 4.14958 0.683902 4.00012 1.00001 4.00012H3.63382C3.64982 3.97248 3.66728 3.94536 3.68622 3.91884L6.18622 0.418839C6.50723 -0.0305731 7.13178 -0.134665 7.58119 0.186344Z" fill="#21A19A"/>
<path fill-rule="evenodd" clip-rule="evenodd" d="M17.5 8C16.1193 8 15 9.11929 15 10.5C15 11.8807 16.1193 13 17.5 13C18.8807 13 20 11.8807 20 10.5C20 9.11929 18.8807 8 17.5 8ZM17 10.5C17 10.2239 17.2239 10 17.5 10C17.7761 10 18 10.2239 18 10.5C18 10.7761 17.7761 11 17.5 11C17.2239 11 17 10.7761 17 10.5Z" fill="#21A19A"/>
<path fill-rule="evenodd" clip-rule="evenodd" d="M11.5 15C10.1193 15 9 16.1193 9 17.5C9 18.8807 10.1193 20 11.5 20C12.8807 20 14 18.8807 14 17.5C14 16.1193 12.8807 15 11.5 15ZM11 17.5C11 17.2239 11.2239 17 11.5 17C11.7761 17 12 17.2239 12 17.5C12 17.7761 11.7761 18 11.5 18C11.2239 18 11 17.7761 11 17.5Z" fill="#21A19A"/>
<path d="M11.5 8C12.0523 8 12.5 8.44772 12.5 9V12C12.5 12.5523 12.0523 13 11.5 13C10.9477 13 10.5 12.5523 10.5 12V9C10.5 8.44772 10.9477 8 11.5 8Z" fill="#21A19A"/>
<path d="M18.5 16C18.5 15.4477 18.0523 15 17.5 15C16.9477 15 16.5 15.4477 16.5 16V19C16.5 19.5523 16.9477 20 17.5 20C18.0523 20 18.5 19.5523 18.5 19V16Z" fill="#21A19A"/>
</svg>
