<svg width="20" height="20" viewBox="0 0 20 20" fill="none" xmlns="http://www.w3.org/2000/svg">
<path fill-rule="evenodd" clip-rule="evenodd" d="M16.3182 8.00056C17.6555 8.00062 18.6107 8.4965 19.1903 9.29841C19.7278 10.0422 19.8397 10.9102 19.8397 11.5006V11.6676C19.8397 12.3231 19.656 13.1545 19.0839 13.8404C18.483 14.5605 17.5541 15.0005 16.3182 15.0006H14.9999V16.0006H15.9999C16.5522 16.0006 16.9999 16.4483 16.9999 17.0006C16.9997 17.5527 16.552 18.0006 15.9999 18.0006H14.9999V19.0006C14.9997 19.5527 14.552 20.0006 13.9999 20.0006C13.4478 20.0005 13.0001 19.5526 12.9999 19.0006V18.0006H11.9999C11.4478 18.0005 11.0001 17.5526 10.9999 17.0006C10.9999 16.4483 11.4476 16.0006 11.9999 16.0006H12.9999V15.0006H11.9999C11.4478 15.0005 11.0001 14.5526 10.9999 14.0006C10.9999 13.4483 11.4476 13.0006 11.9999 13.0006H12.9999V9.00056C12.9999 8.44831 13.4476 8.00062 13.9999 8.00056H16.3182ZM14.9999 13.0006H16.3182C17.0471 13.0005 17.3789 12.7613 17.5477 12.5592C17.7451 12.3225 17.8397 11.9868 17.8397 11.6676V11.5006C17.8397 11.1162 17.7589 10.7328 17.5692 10.4703C17.4217 10.2661 17.1157 10.0006 16.3182 10.0006H14.9999V13.0006Z" fill="#B2B8BF"/>
<path d="M3.12 3.0074C3.51936 3.05572 3.85129 3.33935 3.9618 3.72615L6.03504 10.984C6.063 10.8931 6.09205 10.8006 6.12098 10.7066L6.15614 10.6099C6.35348 10.1432 6.87622 9.89227 7.37098 10.0445C7.89883 10.2069 8.19453 10.7667 8.03211 11.2945C7.66437 12.4897 7.38534 13.399 6.95594 14.7945C6.82564 15.2173 6.43256 15.5049 5.99012 15.5006C5.54757 15.496 5.15971 15.2005 5.03797 14.775L2.68934 6.5572L1.86805 7.99665C1.59396 8.47586 0.983176 8.64258 0.503793 8.36872C0.0243944 8.09478 -0.142001 7.48393 0.131722 7.00447L2.13172 3.50447L2.21473 3.38044C2.42842 3.10975 2.77064 2.96516 3.12 3.0074Z" fill="#B2B8BF"/>
<path d="M8.16786 6.00056C8.99628 6.00056 9.66786 6.67213 9.66786 7.50056C9.66763 8.3288 8.99614 9.00056 8.16786 9.00056C7.33961 9.00051 6.66808 8.32876 6.66786 7.50056C6.66786 6.67217 7.33947 6.00062 8.16786 6.00056Z" fill="#B2B8BF"/>
<path d="M9.7909 0.523021C10.1455 0.447374 10.514 0.569468 10.7528 0.842357L13.7245 4.23884L18.5214 1.62263C19.0062 1.35838 19.6134 1.53729 19.8778 2.02204C20.1418 2.5068 19.9631 3.11413 19.4784 3.37849L13.9784 6.37849C13.5674 6.60238 13.0553 6.51096 12.747 6.15876L10.4276 3.50837L10.1864 4.29451C10.0238 4.8221 9.46413 5.11898 8.93641 4.95662C8.40873 4.79421 8.11315 4.23433 8.27528 3.70662L9.04383 1.20662C9.15041 0.860246 9.43656 0.598842 9.7909 0.523021Z" fill="#B2B8BF"/>
</svg>
