<svg width="20" height="20" viewBox="0 0 20 20" fill="none" xmlns="http://www.w3.org/2000/svg">
<path fill-rule="evenodd" clip-rule="evenodd" d="M14 6C12.2051 6 10.75 7.45507 10.75 9.25C10.75 11.0449 12.2051 12.5 14 12.5C15.7949 12.5 17.25 11.0449 17.25 9.25C17.25 7.45507 15.7949 6 14 6ZM12.75 9.25C12.75 8.55964 13.3096 8 14 8C14.6904 8 15.25 8.55964 15.25 9.25C15.25 9.94036 14.6904 10.5 14 10.5C13.3096 10.5 12.75 9.94036 12.75 9.25Z" fill="#107F8C"/>
<path fill-rule="evenodd" clip-rule="evenodd" d="M9.63643 20H18.3636C19.1658 20 19.7836 19.3985 19.906 18.6728C19.9683 18.3049 20 17.9327 20 17.5661C20 15.749 19.2536 14.0115 17.9311 12.8057L17.9301 12.8048C17.3309 12.26 16.4238 12.2653 15.8313 12.8197C15.3039 13.3131 14.6375 13.5759 13.9568 13.5759C13.2891 13.5759 12.6326 13.322 12.1107 12.8459L12.1089 12.8442C11.5092 12.2999 10.6041 12.306 10.0116 12.8585L10.0102 12.8598C8.72537 14.0625 8 15.7791 8 17.5661C8 17.9335 8.03217 18.3053 8.09378 18.6716C8.21606 19.3961 8.83257 20 9.63643 20ZM13.9568 15.5759C15.0147 15.5759 16.0317 15.2156 16.8643 14.5654C17.5848 15.3607 18 16.4316 18 17.5661C18 17.7087 17.993 17.8539 17.979 18H10.0212C10.0071 17.8535 10 17.7083 10 17.5661C10 16.4531 10.4024 15.3961 11.1005 14.6048C11.9238 15.2305 12.9223 15.5759 13.9568 15.5759Z" fill="#107F8C"/>
<path fill-rule="evenodd" clip-rule="evenodd" d="M3 4C3 1.79086 4.79086 0 7 0C9.20914 0 11 1.79086 11 4C11 6.20914 9.20914 8 7 8C4.79086 8 3 6.20914 3 4ZM7 2C5.89543 2 5 2.89543 5 4C5 5.10457 5.89543 6 7 6C8.10457 6 9 5.10457 9 4C9 2.89543 8.10457 2 7 2Z" fill="#107F8C"/>
<path d="M3.42663 9.85051C4.38294 10.6001 5.55965 11.0119 6.77517 11.0119C7.32745 11.0119 7.77517 10.5641 7.77517 10.0119C7.77517 9.45957 7.32745 9.01186 6.77517 9.01186C5.94542 9.01186 5.13731 8.70591 4.50118 8.14384L4.49933 8.14222C3.86809 7.58723 2.92732 7.59308 2.30297 8.15697L2.30154 8.15826C0.835761 9.48723 0 11.393 0 13.3862C0 13.7953 0.0369853 14.2094 0.107865 14.6177C0.244138 15.3996 0.916984 16.0044 1.7415 16.0044H3.5814L3.29289 16.2929C2.90237 16.6834 2.90237 17.3166 3.29289 17.7071C3.68342 18.0976 4.31658 18.0976 4.70711 17.7071L6.70711 15.7071C6.89464 15.5196 7 15.2652 7 15C7 14.7348 6.89464 14.4804 6.70711 14.2929L4.70711 12.2929C4.31658 11.9024 3.68342 11.9024 3.29289 12.2929C2.90237 12.6834 2.90237 13.3166 3.29289 13.7071L3.59017 14.0044H2.0383C2.01281 13.7956 2 13.5884 2 13.3862C2 12.0527 2.51949 10.7814 3.42663 9.85051Z" fill="#107F8C"/>
</svg>
