<svg width="32" height="32" viewBox="0 0 32 32" fill="none" xmlns="http://www.w3.org/2000/svg">
<path d="M17 4C17 3.44772 16.5523 3 16 3C15.4477 3 15 3.44772 15 4V11C15 11.5523 15.4477 12 16 12C16.5523 12 17 11.5523 17 11V4Z" fill="#21A19A"/>
<path fill-rule="evenodd" clip-rule="evenodd" d="M16 15C15.4477 15 15 15.4477 15 16V27.5C15 27.9045 15.2436 28.2691 15.6173 28.4239C15.991 28.5787 16.4211 28.4931 16.7071 28.2071L20.5 24.4142L24.2929 28.2071C24.6834 28.5976 25.3166 28.5976 25.7071 28.2071L28.2071 25.7071C28.5976 25.3166 28.5976 24.6834 28.2071 24.2929L24.4142 20.5L28.2071 16.7071C28.4931 16.4211 28.5787 15.991 28.4239 15.6173C28.2691 15.2436 27.9045 15 27.5 15H16ZM17 25.0858V17H25.0858L22.2929 19.7929C22.1054 19.9804 22 20.2348 22 20.5C22 20.7652 22.1054 21.0196 22.2929 21.2071L26.0858 25L25 26.0858L21.2071 22.2929C20.8166 21.9024 20.1834 21.9024 19.7929 22.2929L17 25.0858Z" fill="#21A19A"/>
<path d="M8.14265 8.1429C8.53318 7.75237 9.16634 7.75237 9.55687 8.1429L11.2838 9.86985C11.6743 10.2604 11.6743 10.8935 11.2838 11.2841C10.8933 11.6746 10.2601 11.6746 9.86961 11.2841L8.14265 9.55711C7.75213 9.16658 7.75213 8.53342 8.14265 8.1429Z" fill="#21A19A"/>
<path d="M9.45143 23.2989C9.01022 23.6311 8.38326 23.5427 8.05106 23.1015C7.71886 22.6603 7.80723 22.0333 8.24844 21.7011L9.97506 20.4011C10.4163 20.0689 11.0432 20.1573 11.3754 20.5985C11.7076 21.0397 11.6193 21.6667 11.178 21.9989L9.45143 23.2989Z" fill="#21A19A"/>
<path d="M23.8985 8.18708C24.2646 8.60057 24.2262 9.23257 23.8127 9.59869L21.8623 11.3256C21.4489 11.6918 20.8169 11.6534 20.4507 11.2399C20.0846 10.8264 20.123 10.1944 20.5365 9.82825L22.4869 8.10131C22.9004 7.73519 23.5324 7.77359 23.8985 8.18708Z" fill="#21A19A"/>
<path d="M4 15C3.44772 15 3 15.4477 3 16C3 16.5523 3.44772 17 4 17H11C11.5523 17 12 16.5523 12 16C12 15.4477 11.5523 15 11 15H4Z" fill="#21A19A"/>
</svg>
