<svg width="20" height="20" viewBox="0 0 20 20" fill="none" xmlns="http://www.w3.org/2000/svg">
<path fill-rule="evenodd" clip-rule="evenodd" d="M2 3C2 1.34315 3.34315 0 5 0H9.17157C9.96722 0 10.7303 0.31607 11.2929 0.87868L17.1213 6.70711C17.6839 7.26972 18 8.03278 18 8.82843V10C18 10.5523 17.5523 11 17 11C16.4477 11 16 10.5523 16 10V9H12C10.3431 9 9 7.65685 9 6V2H5C4.44772 2 4 2.44772 4 3V17C4 17.5523 4.44772 18 5 18H5.5C6.05228 18 6.5 18.4477 6.5 19C6.5 19.5523 6.05228 20 5.5 20H5C3.34315 20 2 18.6569 2 17V3ZM11 3.41421L14.5858 7H12C11.4477 7 11 6.55228 11 6V3.41421Z" fill="#21A19A"/>
<path d="M9.00011 13.0001C9.00011 12.5594 8.71165 12.1707 8.28989 12.043C7.86813 11.9153 7.41249 12.0787 7.16806 12.4454L6.16806 13.9454C5.8617 14.4049 5.98588 15.0258 6.44541 15.3321C6.61617 15.446 6.80921 15.5004 7.00011 15.5002V19.0001C7.00011 19.5524 7.44782 20.0001 8.00011 20.0001C8.55239 20.0001 9.00011 19.5524 9.00011 19.0001V13.0001Z" fill="#21A19A"/>
<path d="M12.2899 12.043C12.7116 12.1707 13.0001 12.5594 13.0001 13.0001V19.0001C13.0001 19.5524 12.5524 20.0001 12.0001 20.0001C11.4478 20.0001 11.0001 19.5524 11.0001 19.0001V15.5002C10.8092 15.5004 10.6162 15.446 10.4454 15.3321C9.98588 15.0258 9.8617 14.4049 10.1681 13.9454L11.1681 12.4454C11.4125 12.0787 11.8681 11.9153 12.2899 12.043Z" fill="#21A19A"/>
<path fill-rule="evenodd" clip-rule="evenodd" d="M15 12C14.4477 12 14 12.4477 14 13V16C14 16.3958 14.2335 16.7544 14.5954 16.9145C15.1875 17.0742 15.3991 16.8796 15.6566 16.7543C15.9141 16.6289 15.9961 16.4961 16.5 16.5C17.0039 16.5039 17.4141 16.8555 17.4141 17.2539C17.4141 17.6523 17 17.9961 16.5 18C16 18.0039 15.9201 17.9278 15.6566 17.7539C15.1974 17.4509 14.4734 17.4871 14.1679 17.9453C13.8616 18.4048 14.0977 19.1445 14.7344 19.5039C15.3711 19.8633 15.9234 20 16.5 20C17.4905 20 18.2949 19.6582 18.8307 19.0152C19.3398 18.4043 19.5 17.6486 19.5 17C19.5 15.9477 18.5523 14.5 16.5 14.5C16.3237 14.5 16.1569 14.5125 16 14.5344V14H18C18.5523 14 19 13.5523 19 13C19 12.4477 18.5523 12 18 12H15Z" fill="#21A19A"/>
</svg>
