<svg width="20" height="20" viewBox="0 0 20 20" fill="none" xmlns="http://www.w3.org/2000/svg">
<path fill-rule="evenodd" clip-rule="evenodd" d="M8 0C8.47725 0 8.87642 0.334327 8.97607 0.781552C8.9914 0.790794 9.01021 0.801286 9.033 0.81268C9.22881 0.910585 9.5693 1 10 1C10.4307 1 10.7712 0.910585 10.967 0.81268C10.9898 0.801286 11.0086 0.790794 11.0239 0.781552C11.1236 0.334327 11.5227 0 12 0C12.5523 0 13 0.447715 13 1C13 1.85897 12.3297 2.36742 11.8614 2.60153C11.3334 2.86556 10.6739 3 10 3C9.32613 3 8.66662 2.86556 8.13857 2.60153C7.67034 2.36742 7 1.85897 7 1C7 0.447715 7.44772 0 8 0ZM4 5C4 4.44772 4.44772 4 5 4H15C15.5523 4 16 4.44772 16 5C16 5.55228 15.5523 6 15 6H5C4.44772 6 4 5.55228 4 5ZM4.63495 7.15316C5.10265 7.44689 5.24368 8.06415 4.94995 8.53185C4.34945 9.48803 4 10.6265 4 11.8528C4 15.2675 6.70581 18 10 18C13.2942 18 16 15.2675 16 11.8528C16 10.6267 15.6506 9.4883 15.0503 8.53219C14.7566 8.06447 14.8976 7.44722 15.3654 7.15352C15.8331 6.85983 16.4503 7.0009 16.744 7.46862C17.5398 8.73592 18 10.2417 18 11.8528C18 16.3327 14.4378 20 10 20C5.5622 20 2 16.3327 2 11.8528C2 10.2415 2.46031 8.73556 3.25626 7.46817C3.54999 7.00047 4.16725 6.85944 4.63495 7.15316Z" fill="#B2B8BF"/>
<path fill-rule="evenodd" clip-rule="evenodd" d="M7 12C7 10.3431 8.34315 9 10 9C11.6569 9 13 10.3431 13 12C13 13.6569 11.6569 15 10 15C8.34315 15 7 13.6569 7 12ZM10 11C9.44772 11 9 11.4477 9 12C9 12.5523 9.44772 13 10 13C10.5523 13 11 12.5523 11 12C11 11.4477 10.5523 11 10 11Z" fill="#B2B8BF"/>
</svg>
