<svg width="20" height="20" viewBox="0 0 20 20" fill="none" xmlns="http://www.w3.org/2000/svg">
<path fill-rule="evenodd" clip-rule="evenodd" d="M9.1324 2.43996C9.48164 2.10776 9.7731 2.00851 10 2.00851L11 2.00851C11.2813 2.00851 11.7294 1.75442 11.8208 1.21001C11.9121 0.665591 11.5447 0.150213 11 0.0588775C10.6166 -0.00540866 10.5588 -0.00350001 10.3575 0.00313858C10.2741 0.00589018 10.1661 0.00945437 10 0.00945437C4.47715 0.00945437 0 4.48449 0 10.0047C0 15.525 4.47715 20 10 20C14.3556 20 18.0584 17.2172 19.4307 13.3364C19.6148 12.8159 19.3418 12.2449 18.8211 12.0609C18.3004 11.877 17.7291 12.1498 17.545 12.6702C16.8491 14.6382 15.4047 16.2517 13.5544 17.1704C14.1736 15.93 14.6139 14.3584 14.8355 12.6307C14.9058 12.0832 14.5187 11.5824 13.9709 11.5121C13.4231 11.4419 12.922 11.8289 12.8518 12.3764C12.6224 14.164 12.1473 15.6495 11.5609 16.6563C10.9489 17.7072 10.3708 18.0009 10 18.0009C9.7731 18.0009 9.48164 17.9017 9.1324 17.5695C8.77801 17.2324 8.41337 16.6973 8.08538 15.9597C7.52392 14.697 7.12736 12.9699 7.02567 11.0043H10.5C11.0523 11.0043 11.5 10.5568 11.5 10.0047C11.5 9.4527 11.0523 9.0052 10.5 9.0052H7.02567C7.12736 7.0396 7.52392 5.31241 8.08538 4.04972C8.41337 3.31211 8.77801 2.77707 9.1324 2.43996ZM5.02328 9.0052C5.12643 6.80221 5.56798 4.78911 6.25776 3.23783C6.31802 3.1023 6.38064 2.96928 6.44561 2.83911C4.09485 4.00631 2.39999 6.29518 2.06189 9.0052H5.02328ZM2.06189 11.0043C2.39999 13.7143 4.09485 16.0031 6.44561 17.1703C6.38064 17.0402 6.31802 16.9072 6.25776 16.7716C5.56798 15.2203 5.12643 13.2072 5.02328 11.0043H2.06189Z" fill="#21A19A"/>
<path d="M14.8415 1.2563C15.2571 0.892793 15.8889 0.934891 16.2526 1.35033L19.7526 5.34844C20.0825 5.72529 20.0825 6.28798 19.7526 6.66483L16.2526 10.6629C15.8889 11.0784 15.2571 11.1205 14.8415 10.757C14.4259 10.3935 14.3837 9.76199 14.7474 9.34655L16.7962 7.0062H11C10.4477 7.0062 10 6.55869 10 6.00667C10 5.45465 10.4477 5.00714 11 5.00714H16.7963L14.7474 2.66672C14.3837 2.25128 14.4259 1.61981 14.8415 1.2563Z" fill="#21A19A"/>
</svg>
