<svg width="20" height="20" viewBox="0 0 20 20" fill="none" xmlns="http://www.w3.org/2000/svg">
<path fill-rule="evenodd" clip-rule="evenodd" d="M7.5 0C5.01472 0 3 2.01472 3 4.5C3 6.98528 5.01472 9 7.5 9C9.98528 9 12 6.98528 12 4.5C12 2.01472 9.98528 0 7.5 0ZM5 4.5C5 3.11929 6.11929 2 7.5 2C8.88071 2 10 3.11929 10 4.5C10 5.88071 8.88071 7 7.5 7C6.11929 7 5 5.88071 5 4.5Z" fill="#107F8C"/>
<path d="M5.70734 12.2099C4.98093 11.9876 4.29836 11.6267 3.69836 11.1425C2.61855 12.2008 2 13.6686 2 15.2077C2 15.4667 2.01876 15.7326 2.05599 16.0001H7.44388C7.99616 16.0001 8.44388 16.4478 8.44388 17.0001C8.44388 17.5524 7.99616 18.0001 7.44388 18.0001H1.82736C0.971534 18.0001 0.263154 17.3765 0.118972 16.5552C0.0408382 16.1084 0 15.6548 0 15.2077C0 13.0272 0.921082 10.9447 2.53272 9.49411L2.53415 9.49282C3.18637 8.90804 4.16609 8.90208 4.82535 9.47748L4.8272 9.4791C5.25813 9.85709 5.75849 10.134 6.29266 10.2974C6.49653 10.3598 6.70535 10.4057 6.91714 10.4344C7.46443 10.5086 7.84798 11.0123 7.77384 11.5596C7.6997 12.1069 7.19593 12.4905 6.64865 12.4163C6.32903 12.373 6.01428 12.3038 5.70734 12.2099Z" fill="#107F8C"/>
<path fill-rule="evenodd" clip-rule="evenodd" d="M12.2482 11.75C11.5749 11.75 11.0029 12.3087 11.0029 13.0292C11.0029 13.0544 11.002 13.0795 11.0001 13.1045C11 13.1089 10.9999 13.118 11.0002 13.1315C11.001 13.1699 11.0052 13.2448 11.0222 13.3523C11.056 13.5661 11.1419 13.9157 11.3614 14.3695C11.7604 15.1947 12.6219 16.406 14.4939 17.7779C16.3725 16.4054 17.237 15.1936 17.6375 14.3683C17.8577 13.9146 17.9438 13.5652 17.9777 13.3516C17.9948 13.2442 17.9989 13.1694 17.9998 13.1312C18.0001 13.1177 18 13.1088 17.9999 13.1044C17.998 13.0794 17.9971 13.0543 17.9971 13.0292C17.9971 12.3088 17.4253 11.75 16.7514 11.75C16.0801 11.75 15.5011 12.3084 15.493 13.0403C15.4869 13.5904 15.0376 14.0323 14.4875 14.0292C13.9374 14.0262 13.493 13.5794 13.493 13.0292C13.493 12.3083 12.9216 11.75 12.2482 11.75ZM19.9969 12.9931C19.9973 13.0016 19.9978 13.0107 19.9982 13.0204C19.9998 13.0616 20.0007 13.1136 19.9993 13.1758C19.9965 13.3003 19.9848 13.4651 19.953 13.6655C19.8891 14.0673 19.7453 14.6058 19.4368 15.2415C18.8179 16.5171 17.5601 18.1362 15.0525 19.8288C14.714 20.0573 14.2706 20.057 13.9324 19.8281C11.4317 18.1351 10.1778 16.5158 9.56087 15.2403C9.25347 14.6047 9.11026 14.0664 9.04672 13.6648C9.01505 13.4645 9.00341 13.2998 9.00068 13.1755C8.99931 13.1133 9.00017 13.0614 9.00185 13.0202C9.00224 13.0106 9.00267 13.0015 9.00314 12.9931C9.02229 11.2125 10.4544 9.75 12.2482 9.75C13.1266 9.75 13.9179 10.1005 14.4991 10.6671C15.0809 10.101 15.8712 9.75 16.7514 9.75C18.5455 9.75 19.9777 11.2124 19.9969 12.9931Z" fill="#107F8C"/>
</svg>
