<svg width="32" height="32" viewBox="0 0 32 32" fill="none" xmlns="http://www.w3.org/2000/svg">
<path fill-rule="evenodd" clip-rule="evenodd" d="M22 3C23.6569 3 25 4.34315 25 6V26C25 27.6569 23.6569 29 22 29H10C8.34315 29 7 27.6569 7 26V6C7 4.34315 8.34315 3 10 3L22 3ZM23 6C23 5.44772 22.5523 5 22 5L10 5C9.44771 5 9 5.44772 9 6L9 26C9 26.5523 9.44772 27 10 27H22C22.5523 27 23 26.5523 23 26V6Z" fill="#107F8C"/>
<path d="M16.1113 11C14.4995 11 13.0779 11.7978 12.1925 13.0103C11.8668 13.4563 11.9643 14.0819 12.4103 14.4076C12.8564 14.7333 13.482 14.6358 13.8077 14.1897C14.3412 13.4591 15.1787 13 16.1113 13C17.352 13 18.4368 13.8231 18.8365 15L16 15C15.4477 15 15 15.4477 15 16C15 16.5523 15.4477 17 16 17L18.8365 17C18.4368 18.1769 17.352 19 16.1113 19C15.1787 19 14.3412 18.5409 13.8077 17.8103C13.482 17.3642 12.8564 17.2667 12.4103 17.5924C11.9643 17.9181 11.8668 18.5437 12.1925 18.9897C13.0779 20.2022 14.4995 21 16.1113 21C18.8377 21 21.0001 18.7346 21.0001 16C21.0001 13.2654 18.8377 11 16.1113 11Z" fill="#107F8C"/>
</svg>
