<svg width="20" height="20" viewBox="0 0 20 20" fill="none" xmlns="http://www.w3.org/2000/svg">
<path fill-rule="evenodd" clip-rule="evenodd" d="M10.3331 12.351C10.1205 12.4145 9.80689 12.4999 9.49995 12.4999C9.20034 12.4999 8.88838 12.4185 8.67576 12.358C8.54424 12.3205 8.37786 12.2684 8.22851 12.2216C8.13882 12.1935 8.05528 12.1673 7.98911 12.1474C7.82306 12.0974 7.69554 12.0638 7.59955 12.0448C7.26497 12.3351 7.07975 12.673 7.02085 13H11.9792C11.9193 12.6657 11.7278 12.321 11.3793 12.0267C11.2884 12.0468 11.1681 12.0809 11.0108 12.1313C10.949 12.1511 10.8738 12.1761 10.793 12.2029C10.6427 12.2528 10.4729 12.3093 10.3331 12.351ZM11.5236 12.0055C11.5231 12.0061 11.515 12.0068 11.5006 12.0061C11.5169 12.0047 11.5241 12.005 11.5236 12.0055ZM7.47916 12.0271C7.46425 12.0282 7.45576 12.0276 7.45524 12.027C7.45472 12.0265 7.46217 12.0259 7.47916 12.0271ZM11.1925 10.0291C11.4203 9.9971 11.9159 9.95094 12.3516 10.2544L12.3527 10.2551C13.352 10.9531 13.9999 12.0258 13.9999 13.2312C13.9999 13.2378 14 13.246 14.0001 13.2555C14.0011 13.3776 14.0039 13.7249 13.8914 14.0484C13.8232 14.2442 13.6929 14.4973 13.4396 14.6999C13.1737 14.9125 12.8595 15 12.5544 15H6.44545C6.14031 15 5.8261 14.9125 5.56026 14.6998C5.30703 14.4972 5.17675 14.2442 5.1086 14.0484C4.99599 13.7249 4.99882 13.3776 4.99981 13.2555C4.99989 13.246 4.99995 13.2378 4.99995 13.2312C4.99995 12.0458 5.62934 10.9845 6.60279 10.2865L6.60428 10.2855C7.03696 9.97643 7.53715 10.0179 7.76205 10.0461C8.04216 10.0811 8.3327 10.1622 8.56558 10.2323C8.68773 10.269 8.78814 10.3007 8.88051 10.3299C8.99839 10.3671 9.10316 10.4002 9.22325 10.4344C9.39992 10.4846 9.47949 10.4967 9.49678 10.4993C9.49786 10.4994 9.4987 10.4996 9.4993 10.4997C9.50007 10.4995 9.5015 10.4993 9.50364 10.4989C9.52281 10.4957 9.59875 10.4831 9.76058 10.4347C9.8793 10.3992 9.98649 10.3634 10.1085 10.3227C10.1952 10.2938 10.2894 10.2623 10.4005 10.2267C10.6275 10.154 10.9142 10.0682 11.1925 10.0291ZM7.00006 6.5C7.00006 5.11929 8.11935 4 9.50006 4C10.8808 4 12.0001 5.11929 12.0001 6.5C12.0001 7.88071 10.8808 9 9.50006 9C8.11935 9 7.00006 7.88071 7.00006 6.5ZM9.50006 6C9.22392 6 9.00006 6.22386 9.00006 6.5C9.00006 6.77614 9.22392 7 9.50006 7C9.7762 7 10.0001 6.77614 10.0001 6.5C10.0001 6.22386 9.7762 6 9.50006 6Z" fill="#21A19A"/>
<path fill-rule="evenodd" clip-rule="evenodd" d="M9.5 0C4.25329 0 0 4.25329 0 9.5C0 14.7467 4.25329 19 9.5 19C11.7631 19 13.8415 18.2086 15.4733 16.8875L18.2929 19.7071C18.6834 20.0976 19.3166 20.0976 19.7071 19.7071C20.0976 19.3166 20.0976 18.6834 19.7071 18.2929L16.8875 15.4733C18.2086 13.8415 19 11.7631 19 9.5C19 4.25329 14.7467 0 9.5 0ZM2 9.5C2 5.35786 5.35786 2 9.5 2C13.6421 2 17 5.35786 17 9.5C17 13.6421 13.6421 17 9.5 17C5.35786 17 2 13.6421 2 9.5Z" fill="#21A19A"/>
</svg>
