<svg width="32" height="32" viewBox="0 0 32 32" fill="none" xmlns="http://www.w3.org/2000/svg">
<path fill-rule="evenodd" clip-rule="evenodd" d="M6 14C5.44772 14 5 14.4477 5 15V25C5 25.5523 5.44772 26 6 26H22C22.5523 26 23 25.5523 23 25V19C23 18.4477 23.4477 18 24 18C24.5523 18 25 18.4477 25 19V25C25 26.6569 23.6569 28 22 28H6C4.34315 28 3 26.6569 3 25V15C3 13.3431 4.34315 12 6 12H16C16.5523 12 17 12.4477 17 13C17 13.5523 16.5523 14 16 14H6Z" fill="#21A19A"/>
<path d="M25 7.41421L25 15C25 15.5523 24.5523 16 24 16C23.4477 16 23 15.5523 23 15L23 7.41421L20.7071 9.70711C20.3166 10.0976 19.6834 10.0976 19.2929 9.70711C18.9024 9.31658 18.9024 8.68342 19.2929 8.29289L23.2919 4.29392C23.2951 4.29073 23.2983 4.28755 23.3015 4.2844C23.3954 4.19274 23.5028 4.12323 23.6172 4.07588C23.7351 4.02699 23.8644 4 24 4C24.1356 4 24.2649 4.02699 24.3828 4.07588C24.5007 4.12468 24.6112 4.19702 24.7071 4.29289L28.7071 8.29289C29.0976 8.68342 29.0976 9.31658 28.7071 9.70711C28.3166 10.0976 27.6834 10.0976 27.2929 9.70711L25 7.41421Z" fill="#21A19A"/>
<path d="M14 18.0001C12.8933 18.0001 12 18.8935 12 20.0001C12 21.1068 12.8933 22.0001 14 22.0001C15.1067 22.0001 16 21.1068 16 20.0001C16 18.8935 15.1067 18.0001 14 18.0001Z" fill="#21A19A"/>
</svg>
