<svg width="32" height="32" viewBox="0 0 32 32" fill="none" xmlns="http://www.w3.org/2000/svg">
<path fill-rule="evenodd" clip-rule="evenodd" d="M16 12.5C16.5523 12.5 17 12.9477 17 13.5L16 13.5L15 13.5C15 12.9477 15.4477 12.5 16 12.5ZM16 13.5L15 13.5L15 24C15 26.9506 16.8512 28.75 19 28.75C21.1488 28.75 23 26.9506 23 24C23 23.4477 22.5523 23 22 23C21.4477 23 21 23.4477 21 24C21 26.0494 19.8512 26.75 19 26.75C18.1488 26.75 17 26.0494 17 24L17 13.5L16 13.5Z" fill="#B2B8BF"/>
<path d="M17 3C17 2.44772 16.5523 2 16 2C15.4477 2 15 2.44772 15 3V4.52684C10.1861 4.78836 6.98581 6.91871 4.97777 9.06717C3.91366 10.2057 3.18893 11.3429 2.7288 12.198C2.49831 12.6263 2.33289 12.9863 2.22351 13.2438C2.16879 13.3726 2.12799 13.476 2.1 13.5497C2.086 13.5866 2.07519 13.6161 2.06744 13.6377L2.05809 13.6641L2.05509 13.6727L2.05401 13.6758L2.05358 13.6771C2.05358 13.6771 2.05321 13.6782 3.00002 14L2.05321 13.6782C1.93816 14.0167 2.01258 14.3909 2.2484 14.6596C2.48422 14.9283 2.84556 15.0507 3.19613 14.9806L7.93572 14.0327L10.6838 14.9487C11.2077 15.1233 11.7741 14.8402 11.9487 14.3162C12.1233 13.7923 11.8402 13.226 11.3162 13.0513L8.31625 12.0513C8.15115 11.9963 7.97455 11.9853 7.8039 12.0194L4.78792 12.6226C5.17977 11.9709 5.72054 11.2015 6.43893 10.4328C8.26717 8.47674 11.264 6.5 16 6.5C20.736 6.5 23.7329 8.47674 25.5611 10.4328C26.2795 11.2015 26.8203 11.9709 27.2121 12.6226L24.1961 12.0194C24.0255 11.9853 23.8489 11.9963 23.6838 12.0513L20.6838 13.0513C20.1598 13.226 19.8767 13.7923 20.0513 14.3162C20.226 14.8402 20.7923 15.1233 21.3162 14.9487L24.0643 14.0327L28.8039 14.9806C29.1545 15.0507 29.5158 14.9283 29.7516 14.6596C29.9875 14.3909 30.0619 14.0167 29.9468 13.6782L29 14C29.9468 13.6782 29.9465 13.6771 29.9465 13.6771L29.946 13.6758L29.9449 13.6727L29.9419 13.6641L29.9326 13.6377C29.9248 13.6161 29.914 13.5866 29.9 13.5497C29.872 13.476 29.8312 13.3726 29.7765 13.2438C29.6671 12.9863 29.5017 12.6263 29.2712 12.198C28.8111 11.3429 28.0864 10.2057 27.0223 9.06717C25.0142 6.91871 21.8139 4.78835 17 4.52684V3Z" fill="#B2B8BF"/>
</svg>
