<svg width="20" height="20" viewBox="0 0 20 20" fill="none" xmlns="http://www.w3.org/2000/svg">
<path fill-rule="evenodd" clip-rule="evenodd" d="M3.99999 2C3.44771 2 3 2.44771 3 3V17C3 17.5523 3.44771 18 3.99999 18H14C14.5523 18 15 17.5523 15 17V14.5C15 13.9477 15.4477 13.5 16 13.5C16.5523 13.5 17 13.9477 17 14.5V17C17 18.6568 15.6568 20 14 20H3.99999C2.34314 20 0.999999 18.6568 0.999999 17V3C0.999999 1.34314 2.34314 0 3.99999 0H11C11.5523 0 12 0.447715 12 0.999999C12 1.55228 11.5523 2 11 2H3.99999Z" fill="#107F8C"/>
<path d="M15.7071 1.29289C15.3166 0.902368 14.6834 0.902368 14.2929 1.29289C13.9023 1.68342 13.9023 2.31658 14.2929 2.7071L15.5858 4H11C10.4477 4 9.99999 4.44771 9.99999 4.99999C9.99999 5.55228 10.4477 5.99999 11 5.99999H15.5858L14.2929 7.29288C13.9023 7.68341 13.9023 8.31657 14.2929 8.70709C14.6834 9.09762 15.3166 9.09762 15.7071 8.70709L18.706 5.70816L18.7159 5.69814C18.8917 5.51793 19 5.27161 19 4.99999C19 4.8644 18.973 4.73512 18.9241 4.61721C18.8753 4.49927 18.803 4.38876 18.7071 4.29289L15.7071 1.29289Z" fill="#107F8C"/>
<path d="M9.70709 8.29288C9.31657 7.90236 8.68341 7.90236 8.29288 8.29288L5.29289 11.2929C5.19701 11.3888 5.12467 11.4993 5.07587 11.6172C5.02698 11.7351 4.99999 11.8644 4.99999 12C4.99999 12.1367 5.02741 12.2669 5.07704 12.3856C5.12395 12.498 5.19228 12.6036 5.28204 12.6961C5.28606 12.7002 5.29012 12.7043 5.29421 12.7084L8.29288 15.7071C8.68341 16.0976 9.31657 16.0976 9.70709 15.7071C10.0976 15.3166 10.0976 14.6834 9.70709 14.2929L8.4142 13H13C13.5523 13 14 12.5523 14 12C14 11.4477 13.5523 11 13 11H8.4142L9.70709 9.70709C10.0976 9.31657 10.0976 8.6834 9.70709 8.29288Z" fill="#107F8C"/>
</svg>
