<svg width="20" height="20" viewBox="0 0 20 20" fill="none" xmlns="http://www.w3.org/2000/svg">
<path fill-rule="evenodd" clip-rule="evenodd" d="M10 2.00851C9.7731 2.00851 9.48164 2.10776 9.1324 2.43996C8.77801 2.77707 8.41337 3.31211 8.08538 4.04972C7.52392 5.31241 7.12736 7.0396 7.02567 9.0052H10.5C11.0523 9.0052 11.5 9.4527 11.5 10.0047C11.5 10.5568 11.0523 11.0043 10.5 11.0043H7.02567C7.12736 12.9699 7.52392 14.697 8.08538 15.9597C8.41337 16.6973 8.77801 17.2324 9.1324 17.5695C9.48164 17.9017 9.7731 18.0009 10 18.0009C10.3708 18.0009 10.9489 17.7072 11.5609 16.6563C12.1473 15.6495 12.6224 14.164 12.8518 12.3764C12.922 11.8289 13.4231 11.4419 13.9709 11.5121C14.5187 11.5824 14.9058 12.0832 14.8355 12.6307C14.6139 14.3584 14.1736 15.93 13.5544 17.1704C15.4047 16.2517 16.8491 14.6382 17.545 12.6702C17.7291 12.1498 18.3004 11.877 18.8211 12.0609C19.3418 12.2449 19.6148 12.8159 19.4307 13.3364C18.0584 17.2172 14.3556 20 10 20C4.47715 20 0 15.525 0 10.0047C0 4.48449 4.47715 0.00945437 10 0.00945437C10.1661 0.00945437 10.2741 0.00589018 10.3575 0.00313858C10.5588 -0.00350001 10.6166 -0.00540866 11 0.0588775C11.5447 0.150213 11.9121 0.665591 11.8208 1.21001C11.7294 1.75442 11.2813 2.00851 11 2.00851L10 2.00851ZM6.25776 3.23783C5.56798 4.78911 5.12643 6.80221 5.02328 9.0052H2.06189C2.39999 6.29518 4.09485 4.00631 6.44561 2.83911C6.38064 2.96928 6.31802 3.1023 6.25776 3.23783ZM6.44561 17.1703C4.09485 16.0031 2.39999 13.7143 2.06189 11.0043H5.02328C5.12643 13.2072 5.56798 15.2203 6.25776 16.7716C6.31802 16.9072 6.38064 17.0402 6.44561 17.1703Z" fill="#21A19A"/>
<path d="M14.8137 0.428006C14.4927 -0.0211941 13.8682 -0.125237 13.4187 0.195621C12.9693 0.516478 12.8652 1.14073 13.1863 1.58993L15.5 4.82763V5.00708H14.5C13.9477 5.00708 13.5 5.45458 13.5 6.0066C13.5 6.55863 13.9477 7.00613 14.5 7.00613H15.5V7.5059H14.5C13.9477 7.5059 13.5 7.9534 13.5 8.50542C13.5 9.05745 13.9477 9.50495 14.5 9.50495H15.5V10.0047C15.5 10.5567 15.9477 11.0042 16.5 11.0042C17.0523 11.0042 17.5 10.5567 17.5 10.0047V9.50495H18.5C19.0523 9.50495 19.5 9.05745 19.5 8.50542C19.5 7.9534 19.0523 7.5059 18.5 7.5059H17.5V7.00613H18.5C19.0523 7.00613 19.5 6.55863 19.5 6.0066C19.5 5.45458 19.0523 5.00708 18.5 5.00708H17.5V4.82763L19.8137 1.58993C20.1347 1.14073 20.0306 0.516478 19.5812 0.195621C19.1318 -0.125237 18.5073 -0.0211941 18.1863 0.428006L16.5 2.78766L14.8137 0.428006Z" fill="#21A19A"/>
</svg>
