<svg width="32" height="32" viewBox="0 0 32 32" fill="none" xmlns="http://www.w3.org/2000/svg">
<path d="M7 7.81818C7 7.35681 7.36762 7 7.8 7H14C14.5523 7 15 6.55228 15 6C15 5.44772 14.5523 5 14 5H7.8C6.24415 5 5 6.27124 5 7.81818V24.1818C5 25.7288 6.24415 27 7.8 27H22.2C23.7558 27 25 25.7288 25 24.1818V20.5C25 19.9477 24.5523 19.5 24 19.5C23.4477 19.5 23 19.9477 23 20.5V24.1818C23 24.6432 22.6324 25 22.2 25H7.8C7.36762 25 7 24.6432 7 24.1818V7.81818Z" fill="#B2B8BF"/>
<path d="M11 10C10.4477 10 10 10.4477 10 11C10 11.5523 10.4477 12 11 12H14C14.5523 12 15 11.5523 15 11C15 10.4477 14.5523 10 14 10H11Z" fill="#B2B8BF"/>
<path d="M10 16C10 15.4477 10.4477 15 11 15H14C14.5523 15 15 15.4477 15 16C15 16.5523 14.5523 17 14 17H11C10.4477 17 10 16.5523 10 16Z" fill="#B2B8BF"/>
<path d="M11 20C10.4477 20 10 20.4477 10 21C10 21.5523 10.4477 22 11 22H16C16.5523 22 17 21.5523 17 21C17 20.4477 16.5523 20 16 20H11Z" fill="#B2B8BF"/>
<path d="M27.999 12.0044C27.999 12.5566 27.5513 13.0044 26.999 13.0044C26.4467 13.0044 25.999 12.5567 25.999 12.0044L25.999 8.41685L19.7072 14.7072C19.3166 15.0977 18.6834 15.0976 18.2929 14.707C17.9025 14.3164 17.9025 13.6833 18.2931 13.2928L24.5865 7.00092H20.999C20.4467 7.00092 19.999 6.5532 19.999 6.00092C19.999 5.44863 20.4467 5.00092 20.999 5.00092H26.999C27.5513 5.00092 27.999 5.44863 27.999 6.00092L27.999 12.0044Z" fill="#B2B8BF"/>
</svg>
