<svg width="32" height="32" viewBox="0 0 32 32" fill="none" xmlns="http://www.w3.org/2000/svg">
<path d="M20 21C20 20.4477 20.4477 20 21 20H23C23.5523 20 24 20.4477 24 21C24 21.5523 23.5523 22 23 22H21C20.4477 22 20 21.5523 20 21Z" fill="#B2B8BF"/>
<path d="M9 20C8.44772 20 8 20.4477 8 21C8 21.5523 8.44772 22 9 22H11C11.5523 22 12 21.5523 12 21C12 20.4477 11.5523 20 11 20H9Z" fill="#B2B8BF"/>
<path fill-rule="evenodd" clip-rule="evenodd" d="M10.3359 10.9668C10.4752 10.3545 10.9609 10 11.4359 10H13C13.5523 10 14 9.55228 14 9C14 8.44772 13.5523 8 13 8H11.4359C9.94114 8 8.71247 9.0871 8.38575 10.523L7.13956 16H7C5.34315 16 4 17.3431 4 19V23C4 24.6569 5.34314 26 7 26C7 27.6569 8.34315 29 10 29C11.6569 29 13 27.6569 13 26H19C19.0002 27.6564 20.343 29 22 29C23.6569 29 25 27.6569 25 26C26.6569 26 28 24.6569 28 23V19C28 17.3431 26.6569 16 25 16H9.19068L10.3359 10.9668ZM7 18C6.44772 18 6 18.4477 6 19V23C6 23.5523 6.44772 24 7 24H8C8.55228 24 9 24.4477 9 25V26C9 26.5523 9.44772 27 10 27C10.5523 27 11 26.5523 11 26V25C11 24.4477 11.4477 24 12 24H20C20.5523 24 21 24.4477 21 25V25.9996C21 26.5522 21.448 27 22 27C22.5523 27 23 26.5523 23 26V25C23 24.4477 23.4477 24 24 24H25C25.5523 24 26 23.5523 26 23V19C26 18.4477 25.5523 18 25 18H7Z" fill="#B2B8BF"/>
<path d="M26.7071 5.70711C27.0976 5.31658 27.0976 4.68342 26.7071 4.29289C26.3166 3.90237 25.6834 3.90237 25.2929 4.29289L18.2929 11.2929C17.9024 11.6834 17.9024 12.3166 18.2929 12.7071C18.6834 13.0976 19.3166 13.0976 19.7071 12.7071L26.7071 5.70711Z" fill="#B2B8BF"/>
<path d="M19.5 7C20.3284 7 21 6.32843 21 5.5C21 4.67157 20.3284 4 19.5 4C18.6716 4 18 4.67157 18 5.5C18 6.32843 18.6716 7 19.5 7Z" fill="#B2B8BF"/>
<path d="M25.5 13C26.3284 13 27 12.3284 27 11.5C27 10.6716 26.3284 10 25.5 10C24.6716 10 24 10.6716 24 11.5C24 12.3284 24.6716 13 25.5 13Z" fill="#B2B8BF"/>
</svg>
