<svg width="32" height="32" viewBox="0 0 32 32" fill="none" xmlns="http://www.w3.org/2000/svg">
<path fill-rule="evenodd" clip-rule="evenodd" d="M23.1974 25.5968C21.191 27.1053 18.6982 28 16 28C9.38246 28 4 22.6179 4 15.9998C4 9.38207 9.38249 4 16 4C22.6175 4 28 9.38207 28 15.9998C28 19.2038 26.7384 22.1182 24.6859 24.2723C24.6931 24.2791 24.7001 24.2859 24.7071 24.2929L29.7071 29.2929C30.0976 29.6834 30.0976 30.3166 29.7071 30.7071C29.3166 31.0976 28.6834 31.0976 28.2929 30.7071L23.2929 25.7071C23.2579 25.6722 23.2261 25.6353 23.1974 25.5968ZM6 15.9998C6 10.4867 10.487 6 16 6C21.513 6 26 10.4867 26 15.9998C26 21.5133 21.513 26 16 26C10.487 26 6 21.5133 6 15.9998Z" fill="#107F8C"/>
<path fill-rule="evenodd" clip-rule="evenodd" d="M15.9811 9C14.2721 9 12.8867 10.3854 12.8867 12.0943C12.8867 13.8033 14.2721 15.1887 15.9811 15.1887C17.69 15.1887 19.0754 13.8033 19.0754 12.0943C19.0754 10.3854 17.69 9 15.9811 9ZM14.8867 12.0943C14.8867 11.49 15.3767 11 15.9811 11C16.5854 11 17.0754 11.49 17.0754 12.0943C17.0754 12.6987 16.5854 13.1887 15.9811 13.1887C15.3767 13.1887 14.8867 12.6987 14.8867 12.0943Z" fill="#107F8C"/>
<path fill-rule="evenodd" clip-rule="evenodd" d="M12.5067 22.004H19.4554C20.1569 22.004 20.7596 21.5012 20.883 20.8086C20.9354 20.5163 20.9622 20.2201 20.9622 19.9275C20.9622 18.4749 20.3287 17.0977 19.2266 16.1501L19.2255 16.1492C18.6774 15.6792 17.8649 15.6831 17.3216 16.1625C16.9412 16.498 16.4529 16.6826 15.9467 16.6826C15.4501 16.6826 14.9689 16.5042 14.5923 16.1803L14.5904 16.1787C14.0418 15.7091 13.2313 15.7138 12.6882 16.1913L12.6868 16.1926C11.6155 17.1381 11 18.4988 11 19.9275C11 20.2213 11.0273 20.5175 11.0792 20.8085C11.2028 21.4993 11.8039 22.004 12.5067 22.004ZM15.9467 18.6826C16.7674 18.6826 17.5639 18.4353 18.2361 17.9791C18.7021 18.5177 18.9622 19.2073 18.9622 19.9275C18.9622 19.9529 18.9618 19.9784 18.9611 20.004H13.0011C13.0004 19.9784 13 19.9528 13 19.9275C13 19.2222 13.2513 18.543 13.7012 18.0085C14.3645 18.4461 15.1451 18.6826 15.9467 18.6826Z" fill="#107F8C"/>
</svg>
