<svg width="20" height="20" viewBox="0 0 20 20" fill="none" xmlns="http://www.w3.org/2000/svg">
<path d="M2.48981 4.49707C3.04209 4.49707 3.48981 4.04936 3.48981 3.49707V2.99707C3.48981 2.44479 3.93752 1.99707 4.48981 1.99707H14.4898C15.0421 1.99707 15.4898 2.44479 15.4898 2.99707V3.49707C15.4898 4.04936 15.9375 4.49707 16.4898 4.49707C17.0421 4.49707 17.4898 4.04936 17.4898 3.49707V2.99707C17.4898 1.34022 16.1467 -0.00292969 14.4898 -0.00292969H4.48981C2.83295 -0.00292969 1.48981 1.34022 1.48981 2.99707V3.49707C1.48981 4.04936 1.93752 4.49707 2.48981 4.49707Z" fill="#21A19A"/>
<path d="M3.48981 16.4971C3.48981 15.9448 3.04209 15.4971 2.48981 15.4971C1.93752 15.4971 1.48981 15.9448 1.48981 16.4971V16.9971C1.48981 18.6539 2.83295 19.9971 4.48981 19.9971H14.4898C16.1467 19.9971 17.4898 18.6539 17.4898 16.9971C17.4898 16.4448 17.0421 15.9971 16.4898 15.9971C15.9375 15.9971 15.4898 16.4448 15.4898 16.9971C15.4898 17.5494 15.0421 17.9971 14.4898 17.9971H4.48981C3.93752 17.9971 3.48981 17.5494 3.48981 16.9971V16.4971Z" fill="#21A19A"/>
<path fill-rule="evenodd" clip-rule="evenodd" d="M13.8072 7.14933C14.07 6.80323 14.3868 6.53423 14.7574 6.34609C15.1304 6.1534 15.5435 6.05859 15.9927 6.05859C16.4425 6.05859 16.8561 6.15531 17.2293 6.3517C17.5994 6.54313 17.9147 6.8137 18.1749 7.15996C18.4351 7.50629 18.6324 7.92144 18.7698 8.4014C18.9105 8.88033 18.9796 9.41288 18.9796 9.99728C18.9796 10.5688 18.9118 11.0944 18.774 11.5727C18.6392 12.0493 18.4449 12.4654 18.1882 12.8176C17.9308 13.1673 17.6166 13.4436 17.2469 13.6418L17.2456 13.6425C16.8714 13.8395 16.4522 13.936 15.9927 13.936C15.5432 13.936 15.1299 13.841 14.7567 13.6481L14.7553 13.6474C14.3854 13.4527 14.0686 13.1781 13.806 12.8289C13.5463 12.4797 13.349 12.0649 13.2115 11.5879C13.0737 11.1063 13.0058 10.5753 13.0058 9.99728C13.0058 9.41302 13.0735 8.87922 13.2113 8.3975C13.3488 7.91404 13.5467 7.49605 13.8072 7.14933ZM16.4791 11.9001C16.6263 11.8071 16.7531 11.6767 16.8582 11.5036C16.9644 11.3255 17.047 11.1089 17.103 10.8504L17.1034 10.8487C17.1621 10.5894 17.192 10.3058 17.192 9.99728C17.192 9.68871 17.1621 9.40699 17.1035 9.15127L17.1031 9.14956C17.0471 8.89418 16.9644 8.67873 16.8579 8.50016L16.8572 8.49896C16.7516 8.31924 16.6249 8.18663 16.4791 8.09447L16.4779 8.09376C16.3401 8.00534 16.1781 7.95874 15.9849 7.95874C15.8031 7.95874 15.6471 8.00323 15.5108 8.0892C15.3721 8.17831 15.247 8.30851 15.1382 8.48701L15.1374 8.48824C15.0289 8.66329 14.9426 8.87861 14.8815 9.13773C14.8207 9.3962 14.7895 9.68241 14.7895 9.99728C14.7895 10.3191 14.8207 10.6066 14.8814 10.8612C14.9423 11.1168 15.0287 11.3327 15.1378 11.5119C15.246 11.6862 15.3719 11.8151 15.5135 11.9046C15.653 11.9913 15.8109 12.0358 15.9927 12.0358C16.1797 12.0358 16.3393 11.9897 16.4779 11.9008L16.4791 11.9001Z" fill="#21A19A"/>
<path fill-rule="evenodd" clip-rule="evenodd" d="M6.81233 7.08474V12.8945C6.81233 13.1336 6.88022 13.3317 7.01599 13.4888C7.15177 13.646 7.313 13.7245 7.49969 13.7245H9.89126C10.2081 13.7245 10.4966 13.6733 10.7568 13.5708C11.0199 13.4649 11.2433 13.3147 11.4272 13.12C11.6139 12.9219 11.7553 12.6828 11.8515 12.4027C11.9505 12.1226 12 11.8118 12 11.4703C12 10.9989 11.8883 10.5993 11.6648 10.2714C11.4413 9.94353 11.1387 9.73006 10.7568 9.63101C10.9888 9.46365 11.1698 9.25872 11.2999 9.01622C11.4329 8.7703 11.4993 8.50048 11.4993 8.20674C11.4993 7.90618 11.4555 7.63464 11.3678 7.39214C11.2801 7.14964 11.1599 6.94471 11.0072 6.77735C10.8544 6.60999 10.6748 6.4819 10.4683 6.3931C10.2618 6.30088 10.0369 6.25477 9.79367 6.25477H7.49969C7.313 6.25477 7.15177 6.33333 7.01599 6.49044C6.88022 6.64756 6.81233 6.84566 6.81233 7.08474ZM9.72578 12.2131H8.22099V10.6813H9.71729C9.94359 10.6813 10.1373 10.7462 10.2986 10.876C10.4598 11.0058 10.5404 11.197 10.5404 11.4498C10.5404 11.6991 10.4669 11.8887 10.3198 12.0185C10.1727 12.1483 9.9747 12.2131 9.72578 12.2131ZM9.4712 9.16992H8.22099V7.76614H9.46272C9.64941 7.76614 9.80074 7.8242 9.91671 7.94033C10.0327 8.05304 10.0907 8.22894 10.0907 8.46803C10.0907 8.70711 10.0299 8.88472 9.90823 9.00085C9.78942 9.11356 9.64375 9.16992 9.4712 9.16992Z" fill="#21A19A"/>
<path d="M3.52757 6C1.32724 6 0 7.80265 0 10C0 12.1974 1.32724 14 3.52757 14C4.01538 14 4.48467 13.9106 4.91867 13.7463C5.4352 13.5509 5.69547 12.9737 5.5 12.4571C5.30453 11.9406 4.72733 11.6803 4.21079 11.8758C3.9992 11.9559 3.76953 12 3.52757 12C2.45524 12 2 11.1164 2 10C2 8.88364 2.45524 8 3.52757 8C3.76953 8 3.9992 8.04414 4.21079 8.12421C4.72733 8.31969 5.30453 8.05942 5.5 7.54288C5.69547 7.02635 5.4352 6.44915 4.91867 6.25367C4.48467 6.08943 4.01538 6 3.52757 6Z" fill="#21A19A"/>
</svg>
