<svg width="20" height="20" viewBox="0 0 20 20" fill="none" xmlns="http://www.w3.org/2000/svg">
<path d="M2.99999 3.00005C2.99999 2.44777 3.4477 2.00005 3.99998 2.00005H11C11.5522 2.00005 11.9999 1.55234 11.9999 1.00006C11.9999 0.447774 11.5522 6.10349e-05 11 6.10349e-05H3.99998C2.34314 6.10349e-05 0.999996 1.3432 0.999996 3.00005V17C0.999996 18.6568 2.34314 20 3.99998 20H13.9999C15.6568 20 16.9999 18.6568 16.9999 17V14C16.9999 13.4477 16.5522 13 15.9999 13C15.4476 13 14.9999 13.4477 14.9999 14V17C14.9999 17.5523 14.5522 18 13.9999 18H3.99998C3.4477 18 2.99999 17.5523 2.99999 17V3.00005Z" fill="#107F8C"/>
<path d="M5.99997 9.00002C5.44769 9.00002 4.99998 9.44773 4.99998 10C4.99998 10.5523 5.44769 11 5.99997 11H9.49996C10.0522 11 10.5 10.5523 10.5 10C10.5 9.44773 10.0522 9.00002 9.49996 9.00002H5.99997Z" fill="#107F8C"/>
<path d="M5.99997 13C5.44769 13 4.99998 13.4477 4.99998 14C4.99998 14.5523 5.44769 15 5.99997 15H10.5C11.0522 15 11.4999 14.5523 11.4999 14C11.4999 13.4477 11.0522 13 10.5 13H5.99997Z" fill="#107F8C"/>
<path d="M16.2525 0.341507C15.8888 -0.0741272 15.2571 -0.116245 14.8414 0.247436C14.4258 0.611116 14.3837 1.24288 14.7474 1.65851L16.7962 4.00003H9.99996C9.44767 4.00003 8.99996 4.44775 8.99996 5.00003C8.99996 5.55231 9.44767 6.00003 9.99996 6.00003H16.7961L14.7474 8.34147C14.3837 8.75711 14.4258 9.38887 14.8414 9.75255C15.2571 10.1162 15.8888 10.0741 16.2525 9.65848L19.7525 5.65849C20.0824 5.28147 20.0824 4.71851 19.7525 4.34149L16.2525 0.341507Z" fill="#107F8C"/>
</svg>
