<svg width="32" height="32" viewBox="0 0 32 32" fill="none" xmlns="http://www.w3.org/2000/svg">
<path d="M19 13.5C19.5523 13.5 20 13.9477 20 14.5V15.6467C20.2988 15.5525 20.632 15.5 21 15.5C22.1259 15.5 22.9261 15.9915 23.4115 16.6657C23.8602 17.2889 24 18.0066 24 18.5V21C24 21.5523 23.5523 22 23 22C22.4477 22 22 21.5523 22 21V18.5C22 18.3267 21.9398 18.0445 21.7885 17.8343C21.6739 17.6751 21.4741 17.5 21 17.5C20.5259 17.5 20.3261 17.6751 20.2115 17.8343C20.0602 18.0445 20 18.3267 20 18.5V21C20 21.5523 19.5523 22 19 22C18.4477 22 18 21.5523 18 21V14.5C18 13.9477 18.4477 13.5 19 13.5Z" fill="#107F8C"/>
<path fill-rule="evenodd" clip-rule="evenodd" d="M9.99998 10C9.4477 10 9 10.4477 9 11V21C9 21.5523 9.44772 22 10 22C10.9996 22 12.7237 21.9608 14.2114 21.1872C14.9776 20.7888 15.6915 20.1914 16.2067 19.3116C16.7199 18.4352 17 17.3402 17 16C17 14.6598 16.7199 13.5648 16.2067 12.6884C15.6915 11.8086 14.9776 11.2112 14.2114 10.8128C12.7237 10.0392 10.9996 9.99998 9.99998 10ZM11 19.97V12.03C11.7706 12.0832 12.592 12.2249 13.2886 12.5872C13.7724 12.8387 14.1835 13.1914 14.4808 13.6991C14.7801 14.2102 15 14.9402 15 16C15 17.0598 14.7801 17.7898 14.4808 18.3009C14.1835 18.8086 13.7724 19.1613 13.2886 19.4128C12.592 19.7751 11.7706 19.9168 11 19.97Z" fill="#107F8C"/>
<path fill-rule="evenodd" clip-rule="evenodd" d="M10 4C6.68629 4 4 6.68629 4 10V22C4 25.3137 6.68629 28 10 28H22C25.3137 28 28 25.3137 28 22V10C28 6.68629 25.3137 4 22 4H10ZM22 6H10C7.79086 6 6 7.79086 6 10V22C6 24.2091 7.79086 26 10 26H22C24.2091 26 26 24.2091 26 22V10C26 7.79086 24.2091 6 22 6Z" fill="#107F8C"/>
</svg>
