<svg width="32" height="32" viewBox="0 0 32 32" fill="none" xmlns="http://www.w3.org/2000/svg">
<path d="M25.5 2.5C25.5 2.94425 25.3069 3.34339 25 3.61805V6.26784L27.2953 4.94264C27.3799 4.53977 27.6289 4.17319 28.0135 3.95117C28.726 3.53977 29.6359 3.77947 30.054 4.48569L30.0623 4.49981L30.0696 4.51256C30.4739 5.22814 30.2268 6.13741 29.5135 6.54925C29.1285 6.77148 28.6861 6.80372 28.2946 6.67508L26.0001 7.99981L28.2955 9.32505C28.6867 9.19674 29.1288 9.22911 29.5135 9.45117C30.2309 9.86539 30.4767 10.7828 30.0625 11.5002C29.6483 12.2176 28.7309 12.4635 28.0135 12.0492C27.6286 11.8271 27.3795 11.4601 27.2951 11.0569L25 9.73178V12.3819C25.3069 12.6566 25.5 13.0557 25.5 13.5C25.5 14.3284 24.8284 15 24 15C23.1716 15 22.5 14.3284 22.5 13.5C22.5 13.0557 22.6931 12.6566 23 12.3819V9.73195L20.7055 11.0567C20.6211 11.46 20.372 11.827 19.9871 12.0492C19.2697 12.4635 18.3523 12.2176 17.9381 11.5002C17.5238 10.7828 17.7697 9.86539 18.4871 9.45117C18.8717 9.22914 19.3137 9.19675 19.7049 9.32499L22.0001 7.99981L19.7057 6.67514C19.3143 6.80371 18.872 6.77144 18.4871 6.54925C17.7814 6.14181 17.532 5.2475 17.9183 4.53555C17.9246 4.52356 17.9311 4.51165 17.938 4.49981C17.945 4.48764 17.9522 4.47567 17.9597 4.46391C18.3835 3.77458 19.2819 3.54402 19.9871 3.95117C20.3717 4.17323 20.6208 4.53988 20.7053 4.94282L23 6.26768V3.61805C22.6931 3.34339 22.5 2.94425 22.5 2.5C22.5 1.67157 23.1716 1 24 1C24.8284 1 25.5 1.67157 25.5 2.5Z" fill="#21A19A"/>
<path d="M15.4908 4.9665C15.5657 5.51367 15.1829 6.01799 14.6357 6.09292C9.76522 6.75989 6 10.9506 6 16.0001C6 21.5136 10.487 26.0003 16 26.0003C20.8907 26.0003 24.9769 22.468 25.8344 17.8189C25.9346 17.2758 26.4561 16.9167 26.9992 17.0169C27.5423 17.117 27.9014 17.6385 27.8012 18.1817C27.3704 20.5177 26.2612 22.6189 24.686 24.2724C24.6931 24.2791 24.7001 24.2859 24.7071 24.2929L29.7071 29.2929C30.0976 29.6834 30.0976 30.3166 29.7071 30.7071C29.3166 31.0976 28.6834 31.0976 28.2929 30.7071L23.2929 25.7071C23.258 25.6722 23.2262 25.6354 23.1976 25.597C21.1914 27.1054 18.6987 28.0003 16 28.0003C9.38246 28.0003 4 22.6182 4 16.0001C4 9.93613 8.51815 4.912 14.3643 4.11142C14.9115 4.03649 15.4158 4.41932 15.4908 4.9665Z" fill="#21A19A"/>
</svg>
