<svg width="20" height="20" viewBox="0 0 20 20" fill="none" xmlns="http://www.w3.org/2000/svg">
<path fill-rule="evenodd" clip-rule="evenodd" d="M4 2C3.44772 2 3 2.44772 3 3V17C3 17.5523 3.44772 18 4 18H14C14.5523 18 15 17.5523 15 17V14.5C15 13.9477 15.4477 13.5 16 13.5C16.5523 13.5 17 13.9477 17 14.5V17C17 18.6569 15.6569 20 14 20H4C2.34315 20 1 18.6569 1 17V3C1 1.34315 2.34315 0 4 0H11C11.5523 0 12 0.447715 12 1C12 1.55228 11.5523 2 11 2H4Z" fill="#B2B8BF"/>
<path d="M15.7071 1.29289C15.3166 0.902369 14.6834 0.902369 14.2929 1.29289C13.9024 1.68342 13.9024 2.31658 14.2929 2.70711L15.5858 4H11C10.4477 4 10 4.44772 10 5C10 5.55229 10.4477 6 11 6H15.5858L14.2929 7.29289C13.9024 7.68342 13.9024 8.31658 14.2929 8.70711C14.6834 9.09763 15.3166 9.09763 15.7071 8.70711L18.706 5.70817L18.716 5.69815C18.8917 5.51794 19 5.27162 19 5C19 4.86441 18.973 4.73512 18.9241 4.61722C18.8753 4.49927 18.803 4.38877 18.7071 4.29289L15.7071 1.29289Z" fill="#B2B8BF"/>
<path d="M9.70711 8.29289C9.31658 7.90237 8.68342 7.90237 8.29289 8.29289L5.29289 11.2929C5.19702 11.3888 5.12468 11.4993 5.07588 11.6172C5.02699 11.7351 5 11.8644 5 12C5 12.1367 5.02742 12.2669 5.07705 12.3856C5.12396 12.498 5.19229 12.6036 5.28205 12.6961C5.28607 12.7002 5.29013 12.7044 5.29422 12.7084L8.29289 15.7071C8.68342 16.0976 9.31658 16.0976 9.70711 15.7071C10.0976 15.3166 10.0976 14.6834 9.70711 14.2929L8.41422 13H13C13.5523 13 14 12.5523 14 12C14 11.4477 13.5523 11 13 11H8.41421L9.70711 9.70711C10.0976 9.31658 10.0976 8.68342 9.70711 8.29289Z" fill="#B2B8BF"/>
</svg>
