<svg width="32" height="32" viewBox="0 0 32 32" fill="none" xmlns="http://www.w3.org/2000/svg">
<path fill-rule="evenodd" clip-rule="evenodd" d="M13.875 6C11.1481 6 8.9375 8.21059 8.9375 10.9375C8.9375 13.6644 11.1481 15.875 13.875 15.875C16.6019 15.875 18.8125 13.6644 18.8125 10.9375C18.8125 8.21059 16.6019 6 13.875 6ZM10.9375 10.9375C10.9375 9.31516 12.2527 8 13.875 8C15.4973 8 16.8125 9.31516 16.8125 10.9375C16.8125 12.5598 15.4973 13.875 13.875 13.875C12.2527 13.875 10.9375 12.5598 10.9375 10.9375Z" fill="#B2B8BF"/>
<path d="M18.425 18.1459C18.2648 18.2772 18.0991 18.401 17.9287 18.5173L17.1944 16.5683C17.896 15.9822 18.9283 15.9778 19.6357 16.5521L19.6367 16.5529C21.6047 18.155 22.75 20.497 22.75 22.9836C22.75 23.4828 22.7017 23.99 22.6066 24.4913C22.4346 25.4029 21.6199 26 20.7476 26H7.00238C6.12833 26 5.31542 25.4012 5.1433 24.4907C5.0492 23.9911 5 23.4837 5 22.9836C5 20.5385 6.11302 18.2236 8.02617 16.6247L8.02763 16.6235C8.72956 16.0391 9.75945 16.0339 10.4675 16.6078L10.4694 16.6093C11.3905 17.3595 12.5759 17.7786 13.807 17.7786C15.0623 17.7786 16.2652 17.3444 17.1944 16.5683L17.9287 18.5173C16.7273 19.3368 15.287 19.7786 13.807 19.7786C12.1497 19.7786 10.5369 19.2232 9.25827 18.2019C7.81339 19.4336 7 21.1749 7 22.9836C7 23.3153 7.02923 23.657 7.08719 24H19.9942H20.663C20.7211 23.658 20.75 23.3163 20.75 22.9836C20.75 21.1433 19.9133 19.3815 18.425 18.1459Z" fill="#B2B8BF"/>
<path d="M18.9642 21.2661C18.9875 21.1814 19 21.0921 19 21C19 20.6505 18.8207 20.3429 18.5491 20.1641C18.3915 20.0604 18.2027 20 18 20H16C15.4477 20 15 20.4477 15 21C15 21.5523 15.4477 22 16 22H18C18.4601 22 18.8477 21.6892 18.9642 21.2661Z" fill="#B2B8BF"/>
<path d="M23.281 17.0726C23.6648 16.6755 24.2979 16.6647 24.695 17.0485C26.32 18.6192 27.25 20.7436 27.25 22.9838C27.25 23.4831 27.2017 23.9903 27.1066 24.4916C27.0037 25.0342 26.4804 25.3907 25.9377 25.2878C25.3951 25.1848 25.0387 24.6615 25.1416 24.1189C25.214 23.7374 25.25 23.355 25.25 22.9838C25.25 21.3056 24.5545 19.6943 23.305 18.4866C22.9079 18.1028 22.8971 17.4697 23.281 17.0726Z" fill="#B2B8BF"/>
<path d="M19.6351 6.89759C19.7133 6.35087 20.2199 5.97106 20.7666 6.04927C23.1603 6.39166 25 8.44853 25 10.9368C25 12.908 23.8449 14.6073 22.1791 15.3987C21.6802 15.6356 21.0837 15.4233 20.8467 14.9245C20.6098 14.4256 20.8221 13.8291 21.3209 13.5921C22.3157 13.1196 23 12.1071 23 10.9368C23 9.45782 21.906 8.2326 20.4834 8.02911C19.9367 7.95091 19.5569 7.44431 19.6351 6.89759Z" fill="#B2B8BF"/>
</svg>
