<svg width="20" height="20" viewBox="0 0 20 20" fill="none" xmlns="http://www.w3.org/2000/svg">
<path d="M3 3C3 1.34315 4.34315 0 6 0H14C15.6569 0 17 1.34315 17 3C17 3.55228 16.5523 4 16 4C15.4477 4 15 3.55228 15 3C15 2.44772 14.5523 2 14 2H6C5.44772 2 5 2.44772 5 3V17C5 17.5523 5.44772 18 6 18H14C14.5523 18 15 17.5523 15 17V16C15 15.4477 15.4477 15 16 15C16.5523 15 17 15.4477 17 16V17C17 18.6569 15.6569 20 14 20H6C4.34315 20 3 18.6569 3 17V3Z" fill="#107F8C"/>
<path d="M8 16C8 15.4477 8.44772 15 9 15H11C11.5523 15 12 15.4477 12 16C12 16.5523 11.5523 17 11 17H9C8.44772 17 8 16.5523 8 16Z" fill="#107F8C"/>
<path d="M19.6402 7.76825C20.0645 7.41468 20.1218 6.78412 19.7682 6.35984C19.4147 5.93556 18.7841 5.87824 18.3598 6.2318L13.0614 10.6472L11.7071 9.29292C11.3166 8.90239 10.6834 8.90239 10.2929 9.29292C9.90237 9.68344 9.90237 10.3166 10.2929 10.7071L12.2929 12.7071C12.6586 13.0728 13.2429 13.0994 13.6402 12.7682L19.6402 7.76825Z" fill="#107F8C"/>
</svg>
