<svg width="20" height="20" viewBox="0 0 20 20" fill="none" xmlns="http://www.w3.org/2000/svg">
<path d="M3.125 2.9375C3.125 2.38522 3.57272 1.9375 4.125 1.9375H11.0625C11.6148 1.9375 12.0625 1.48978 12.0625 0.9375C12.0625 0.385215 11.6148 -0.0625 11.0625 -0.0625H4.125C2.46815 -0.0625 1.125 1.28065 1.125 2.9375V18.4692C1.125 19.6295 2.38605 20.3505 3.38599 19.7618L4.50526 19.1029L5.93366 19.7988C6.32531 19.9896 6.78056 20.0007 7.18105 19.8293L8.9663 19.0649L10.5517 19.8116C10.9297 19.9896 11.3649 20.0019 11.7524 19.8455L13.6436 19.082L14.7619 19.7502C15.7617 20.3476 17.0312 19.6273 17.0312 18.4625V13.0625C17.0312 12.5102 16.5835 12.0625 16.0312 12.0625C15.479 12.0625 15.0312 12.5102 15.0312 13.0625V17.5813L14.4562 17.2377C14.0532 16.9969 13.5606 16.9587 13.1253 17.1345L11.2062 17.9092L9.61518 17.1598C9.2273 16.9771 8.7798 16.9692 8.38566 17.1379L6.60407 17.9007L5.13992 17.1873C4.68778 16.9671 4.15535 16.988 3.72194 17.2432L3.125 17.5946V2.9375Z" fill="#107F8C"/>
<path d="M14.8415 0.247384C15.2571 -0.116298 15.8889 -0.0741806 16.2526 0.341456L19.7526 4.34146C20.0825 4.71848 20.0825 5.28144 19.7526 5.65847L16.2526 9.65847C15.8889 10.0741 15.2571 10.1162 14.8415 9.75254C14.4259 9.38885 14.3837 8.75709 14.7474 8.34146L16.7962 6H10C9.44771 6 9 5.55228 9 5C9 4.44772 9.44771 4 10 4H16.7963L14.7474 1.65847C14.3837 1.24283 14.4259 0.611066 14.8415 0.247384Z" fill="#107F8C"/>
<path d="M5.9375 9C5.38522 9 4.9375 9.44771 4.9375 10C4.9375 10.5523 5.38522 11 5.9375 11H9.4375C9.98978 11 10.4375 10.5523 10.4375 10C10.4375 9.44771 9.98978 9 9.4375 9H5.9375Z" fill="#107F8C"/>
<path d="M5.9375 13C5.38522 13 4.9375 13.4477 4.9375 14C4.9375 14.5523 5.38522 15 5.9375 15H10.4375C10.9898 15 11.4375 14.5523 11.4375 14C11.4375 13.4477 10.9898 13 10.4375 13H5.9375Z" fill="#107F8C"/>
</svg>
