<svg width="32" height="32" viewBox="0 0 32 32" fill="none" xmlns="http://www.w3.org/2000/svg">
<path fill-rule="evenodd" clip-rule="evenodd" d="M17.021 6.12102C16.6305 5.73049 15.9973 5.73049 15.6068 6.12102L7.1215 14.6063C6.88288 14.8449 6.78917 15.1737 6.84351 15.4864L6.85824 15.5711L6.85828 15.6571C6.85842 15.9144 6.95585 16.1683 7.15117 16.3637L15.6365 24.8489C16.027 25.2395 16.6601 25.2395 17.0507 24.8489L19.8791 22.0205C20.2696 21.63 20.2696 20.9968 19.8791 20.6063L14.7429 15.4701L19.8494 10.3637C20.24 9.97313 20.24 9.33997 19.8494 8.94945L17.021 6.12102ZM14.1926 4.7068C15.3641 3.53523 17.2636 3.53523 18.4352 4.7068L21.2636 7.53523C22.4352 8.7068 22.4352 10.6063 21.2636 11.7779L17.5714 15.4701L21.2933 19.1921C22.4649 20.3637 22.4649 22.2632 21.2933 23.4347L18.4649 26.2632C17.2933 27.4347 15.3938 27.4347 14.2222 26.2632L5.73696 17.7779C5.17364 17.2146 4.881 16.481 4.85955 15.744C4.72935 14.8423 5.01097 13.8884 5.70729 13.1921L14.1926 4.7068Z" fill="#107F8C"/>
<path d="M26 17C27.1046 17 28 16.1046 28 15C28 13.8954 27.1046 13 26 13C24.8954 13 24 13.8954 24 15C24 16.1046 24.8954 17 26 17Z" fill="#107F8C"/>
</svg>
