<svg width="20" height="20" viewBox="0 0 20 20" fill="none" xmlns="http://www.w3.org/2000/svg">
<path d="M8 10C8 8.89543 8.89543 8 10 8C10.5129 8 10.9786 8.19174 11.3331 8.50903C11.7446 8.87735 12.3768 8.84233 12.7451 8.43081C13.1135 8.01928 13.0784 7.38708 12.6669 7.01876C11.9599 6.38597 11.0238 6 10 6C7.79086 6 6 7.79086 6 10C6 12.2091 7.79086 14 10 14C11.0238 14 11.9599 13.614 12.6669 12.9812C13.0784 12.6129 13.1135 11.9807 12.7451 11.5692C12.3768 11.1577 11.7446 11.1226 11.3331 11.491C10.9786 11.8083 10.5129 12 10 12C8.89543 12 8 11.1046 8 10Z" fill="#107F8C"/>
<path fill-rule="evenodd" clip-rule="evenodd" d="M1.00003 11.4141C0.218982 10.633 0.218985 9.36668 1.00003 8.58564L8.58582 0.999849C9.36687 0.218799 10.6332 0.218802 11.4142 0.999849L19 8.58564C19.7811 9.36669 19.7811 10.633 19 11.4141L11.4142 18.9999C10.6332 19.7809 9.36687 19.7809 8.58582 18.9999L1.00003 11.4141ZM10 2.41406L2.41425 9.99985L10 17.5856L17.5858 9.99985L10 2.41406Z" fill="#107F8C"/>
</svg>
