<svg width="20" height="20" viewBox="0 0 20 20" fill="none" xmlns="http://www.w3.org/2000/svg">
<path fill-rule="evenodd" clip-rule="evenodd" d="M2 9.5C2 5.36822 5.38961 2 9.59417 2C11.8472 2 13.8678 2.9675 15.2585 4.50432C15.6291 4.91382 16.2615 4.94538 16.671 4.5748C17.0805 4.20423 17.112 3.57185 16.7415 3.16235C14.9849 1.22126 12.4318 0 9.59417 0C4.30587 0 0 4.24294 0 9.5C0 14.7571 4.30587 19 9.59417 19C12.4318 19 14.9849 17.7787 16.7415 15.8377C17.112 15.4282 17.0805 14.7958 16.671 14.4252C16.2615 14.0546 15.6291 14.0862 15.2585 14.4957C13.8678 16.0325 11.8472 17 9.59417 17C5.38961 17 2 13.6318 2 9.5ZM11 8.42045C11 8.26667 11.0247 8.1825 11.0408 8.14398C11.055 8.10993 11.0677 8.09759 11.0773 8.08963C11.1049 8.0668 11.2184 8 11.5 8C11.7816 8 11.8951 8.0668 11.9226 8.08963C11.9322 8.09759 11.945 8.10993 11.9592 8.14398C11.9735 8.17837 11.9948 8.24915 11.9992 8.37336C11.994 8.38698 11.9854 8.40794 11.9714 8.43685C11.9247 8.53298 11.8445 8.66434 11.7242 8.82874C11.484 9.15703 11.1469 9.53275 10.7861 9.90063C10.4295 10.2641 10.0701 10.5995 9.79821 10.8453C9.66276 10.9677 9.55024 11.0668 9.4722 11.1348C9.43321 11.1687 9.40289 11.1948 9.38272 11.2121L9.36026 11.2313L9.35508 11.2357L9.35413 11.2365L9.35407 11.2366L9.35402 11.2366C9.03371 11.5077 8.91668 11.9499 9.06098 12.3439C9.20531 12.738 9.58033 13 9.99999 13H13C13.5523 13 14 12.5523 14 12C14 11.4477 13.5523 11 13 11H12.5027C12.8001 10.6825 13.095 10.3422 13.3383 10.0097C13.4993 9.78967 13.6534 9.55187 13.7708 9.30983C13.8811 9.0824 14 8.76939 14 8.42045C14 7.6702 13.7473 7.00413 13.1987 6.54957C12.6833 6.12259 12.0468 6 11.5 6C10.9532 6 10.3167 6.12259 9.80132 6.54957C9.25269 7.00413 8.99999 7.6702 8.99999 8.42045C8.99999 8.97274 9.4477 9.42045 9.99999 9.42045C10.5523 9.42045 11 8.97274 11 8.42045ZM3 7C3 6.44772 3.44772 6 4 6H6H8C8.55228 6 9 6.44772 9 7C9 7.55228 8.55228 8 8 8H7V12C7 12.5523 6.55228 13 6 13C5.44772 13 5 12.5523 5 12V8H4C3.44772 8 3 7.55228 3 7ZM16.0104 6.00005C16.007 6.00002 16.0035 6 16 6C15.4477 6 15 6.44772 15 7V7.00005V10.0001V12C15 12.5523 15.4477 13 16 13C16.5523 13 17 12.5523 17 12V11.0001L17.0248 11.0001C17.2792 11.0004 17.9521 11.0014 18.5814 10.7317C18.9262 10.5839 19.2958 10.3404 19.5756 9.94273C19.8597 9.539 20 9.0492 20 8.50005C20 7.95091 19.8597 7.46111 19.5756 7.05737C19.2958 6.65967 18.9262 6.41619 18.5814 6.26841C17.9521 5.9987 17.2792 5.99967 17.0248 6.00003L17 6.00005H16.0104ZM17 9.00005V8.00005C17.2673 8.00005 17.5696 8.0107 17.7936 8.1067C17.8863 8.14642 17.923 8.18418 17.94 8.20836C17.9528 8.2265 18 8.2992 18 8.50005C18 8.70091 17.9528 8.77361 17.94 8.79175C17.923 8.81592 17.8863 8.85369 17.7936 8.89341C17.5696 8.98941 17.2673 9.00005 17 9.00005Z" fill="#21A19A"/>
</svg>
