<svg width="32" height="32" viewBox="0 0 32 32" fill="none" xmlns="http://www.w3.org/2000/svg">
<path fill-rule="evenodd" clip-rule="evenodd" d="M14 4C12.3431 4 11 5.34315 11 7V9H7C5.34315 9 4 10.3431 4 12V15.5C4 16.0523 4.44772 16.5 5 16.5C5.55228 16.5 6 16.0523 6 15.5V12C6 11.4477 6.44772 11 7 11H25C25.5523 11 26 11.4477 26 12V15H22.292C21.9062 14.117 21.0252 13.5 20 13.5C18.6193 13.5 17.5 14.6193 17.5 16C17.5 17.3807 18.6193 18.5 20 18.5C21.0252 18.5 21.9062 17.883 22.292 17H27C27.5523 17 28 16.5523 28 16V12C28 10.3431 26.6569 9 25 9H21V7C21 5.34315 19.6569 4 18 4H14ZM19 9V7C19 6.44772 18.5523 6 18 6H14C13.4477 6 13 6.44772 13 7V9H19Z" fill="#107F8C"/>
<path d="M4 20C4 19.4477 4.44772 19 5 19H9.70802C10.0938 18.117 10.9748 17.5 12 17.5C13.3807 17.5 14.5 18.6193 14.5 20C14.5 21.3807 13.3807 22.5 12 22.5C10.9748 22.5 10.0938 21.883 9.70802 21H6V24C6 24.5523 6.44772 25 7 25H25C25.5523 25 26 24.5523 26 24V20C26 19.4477 26.4477 19 27 19C27.5523 19 28 19.4477 28 20V24C28 25.6569 26.6569 27 25 27H7C5.34315 27 4 25.6569 4 24V20Z" fill="#107F8C"/>
</svg>
