<svg width="20" height="20" viewBox="0 0 20 20" fill="none" xmlns="http://www.w3.org/2000/svg">
<path fill-rule="evenodd" clip-rule="evenodd" d="M3 4.5C3 2.01472 5.01472 0 7.5 0C9.98528 0 12 2.01472 12 4.5C12 6.98528 9.98528 9 7.5 9C5.01472 9 3 6.98528 3 4.5ZM7.5 2C6.11929 2 5 3.11929 5 4.5C5 5.88071 6.11929 7 7.5 7C8.88071 7 10 5.88071 10 4.5C10 3.11929 8.88071 2 7.5 2Z" fill="#B2B8BF"/>
<path d="M3.69836 11.1433C4.46142 11.759 5.35799 12.1753 6.30841 12.3608C6.85046 12.4667 7.37566 12.113 7.48147 11.571C7.58729 11.0289 7.23364 10.5037 6.69159 10.3979C6.00827 10.2645 5.36388 9.95058 4.8272 9.47983L4.82535 9.47821C4.16609 8.90282 3.18637 8.90878 2.53415 9.49355L2.53272 9.49484C0.921082 10.9454 0 13.0279 0 15.2084C0 15.6555 0.040727 16.1085 0.11886 16.5553C0.263043 17.3766 0.971534 18.0008 1.82736 18.0008H8C8.55228 18.0008 9 17.5531 9 17.0008C9 16.4485 8.55228 16.0008 8 16.0008H2.05599C2.01876 15.7333 2 15.4674 2 15.2084C2 13.6693 2.61855 12.2015 3.69836 11.1433Z" fill="#B2B8BF"/>
<path fill-rule="evenodd" clip-rule="evenodd" d="M14.8939 8.08086C14.6424 7.97305 14.3576 7.97305 14.1061 8.08086L10.6061 9.58086C10.2384 9.73843 10 10.1 10 10.5C10 12.3205 10.0624 13.7981 10.6244 15.1296C11.2004 16.4944 12.2431 17.5836 13.9082 18.8061C14.2604 19.0646 14.7396 19.0646 15.0918 18.8061C16.7616 17.5802 17.8049 16.4908 18.3798 15.1261C18.9404 13.7952 19 12.3188 19 10.5C19 10.1 18.7616 9.73843 18.3939 9.58086L14.8939 8.08086ZM12.467 14.3519C12.1299 13.5533 12.0252 12.6162 12.0043 11.1576L14.5 10.088L16.9958 11.1576C16.9754 12.6171 16.8726 13.5521 16.5367 14.3496C16.2177 15.1068 15.6477 15.8267 14.5001 16.742C13.3572 15.83 12.787 15.1101 12.467 14.3519Z" fill="#B2B8BF"/>
</svg>
