<svg width="20" height="20" viewBox="0 0 20 20" fill="none" xmlns="http://www.w3.org/2000/svg">
<path fill-rule="evenodd" clip-rule="evenodd" d="M7.5 0C5.01472 0 3 2.01472 3 4.5C3 6.98528 5.01472 9 7.5 9C9.98528 9 12 6.98528 12 4.5C12 2.01472 9.98528 0 7.5 0ZM5 4.5C5 3.11929 6.11929 2 7.5 2C8.88071 2 10 3.11929 10 4.5C10 5.88071 8.88071 7 7.5 7C6.11929 7 5 5.88071 5 4.5Z" fill="#21A19A"/>
<path d="M7.44388 12.47C6.08032 12.47 4.76007 11.9992 3.69836 11.1425C2.61855 12.2008 2 13.6686 2 15.2077C2 15.4667 2.01876 15.7326 2.05599 16.0001H7C7.55228 16.0001 8 16.4478 8 17.0001C8 17.5524 7.55228 18.0001 7 18.0001H1.82736C0.971534 18.0001 0.263154 17.3765 0.118972 16.5552C0.0408382 16.1084 0 15.6548 0 15.2077C0 13.0272 0.921082 10.9447 2.53272 9.49411L2.53415 9.49282C3.18637 8.90804 4.16609 8.90208 4.82535 9.47748L4.8272 9.4791C5.55759 10.1198 6.48735 10.47 7.44388 10.47C7.99616 10.47 8.44388 10.9177 8.44388 11.47C8.44388 12.0222 7.99616 12.47 7.44388 12.47Z" fill="#21A19A"/>
<path fill-rule="evenodd" clip-rule="evenodd" d="M12 10C10.8954 10 10 10.8954 10 12V18C10 19.1046 10.8954 20 12 20H18C19.1046 20 20 19.1046 20 18V12C20 10.8954 19.1046 10 18 10H12ZM16 12H18V18H12V12H14V13.5C14 14.0523 14.4477 14.5 15 14.5C15.5523 14.5 16 14.0523 16 13.5V12Z" fill="#21A19A"/>
</svg>
