<svg width="32" height="32" viewBox="0 0 32 32" fill="none" xmlns="http://www.w3.org/2000/svg">
<path d="M19.7522 5.98701C19.7522 7.04719 18.8928 7.90663 17.8326 7.90663C16.7724 7.90663 15.913 7.04719 15.913 5.98701C15.913 4.92683 16.7724 4.06738 17.8326 4.06738C18.8928 4.06738 19.7522 4.92683 19.7522 5.98701Z" fill="#107F8C"/>
<path d="M26.125 12.4046C26.125 13.4745 25.2577 14.3418 24.1878 14.3418C23.1179 14.3418 22.2506 13.4745 22.2506 12.4046C22.2506 11.3347 23.1179 10.4674 24.1878 10.4674C25.2577 10.4674 26.125 11.3347 26.125 12.4046Z" fill="#107F8C"/>
<path d="M24.9805 5.25469C25.3711 5.64521 25.3711 6.27837 24.9805 6.6689L18.5533 13.0961C18.1628 13.4867 17.5296 13.4867 17.1391 13.0961C16.7486 12.7056 16.7486 12.0725 17.1391 11.6819L23.5663 5.25469C23.9569 4.86416 24.59 4.86416 24.9805 5.25469Z" fill="#107F8C"/>
<path fill-rule="evenodd" clip-rule="evenodd" d="M24.0264 25.75C24.0264 27.4069 22.6832 28.75 21.0264 28.75H15.6241C14.7998 28.75 14.0118 28.4108 13.4452 27.8122L6.32118 20.2849C5.7939 19.7278 5.50006 18.9898 5.50006 18.2227V7.29915C5.50006 5.6423 6.84321 4.29916 8.50006 4.29916H13.9057C14.458 4.29916 14.9057 4.74687 14.9057 5.29916C14.9057 5.85144 14.458 6.29916 13.9057 6.29916H8.50006C7.94777 6.29916 7.50006 6.74687 7.50006 7.29915V18.0191H13.2308C14.8877 18.0191 16.2308 19.3622 16.2308 21.0191V26.75H21.0264C21.5787 26.75 22.0264 26.3023 22.0264 25.75V16.8364C22.0264 16.2841 22.4741 15.8364 23.0264 15.8364C23.5787 15.8364 24.0264 16.2841 24.0264 16.8364V25.75ZM14.2308 25.7327L8.82332 20.0191H13.2308C13.7831 20.0191 14.2308 20.4668 14.2308 21.0191V25.7327Z" fill="#107F8C"/>
</svg>
