<svg width="20" height="20" viewBox="0 0 20 20" fill="none" xmlns="http://www.w3.org/2000/svg">
<path d="M7.58122 0.186222C8.03064 0.507231 8.13473 1.13178 7.81372 1.58119L6.086 4H13.914L12.1863 1.58119C11.8653 1.13178 11.9694 0.507231 12.4188 0.186222C12.8682 -0.134787 13.4927 -0.0306951 13.8137 0.418717L16.3137 3.91872C16.3327 3.94523 16.3501 3.97236 16.3661 4H19C19.5523 4 20 4.44772 20 5C20 5.55228 19.5523 6 19 6H2.34404L4.74404 14H8.00001C8.55229 14 9.00001 14.4477 9.00001 15C9.00001 15.5523 8.55229 16 8.00001 16H4.00001C3.5584 16 3.16908 15.7103 3.04218 15.2873L0.042182 5.28735C-0.0486503 4.98457 0.00902212 4.65668 0.197715 4.40307C0.386409 4.14946 0.683902 4 1.00001 4H3.63385C3.64985 3.97236 3.66731 3.94523 3.68625 3.91872L6.18625 0.418717C6.50726 -0.0306951 7.13181 -0.134787 7.58122 0.186222Z" fill="#107F8C"/>
<path fill-rule="evenodd" clip-rule="evenodd" d="M13 9C13 8.44772 13.4477 8 14 8H16.318C17.6556 8 18.6106 8.49663 19.1902 9.29875C19.7277 10.0425 19.84 10.9096 19.84 11.5V11.6674C19.84 12.3229 19.6562 13.1538 19.0841 13.8398C18.4832 14.5601 17.5542 15 16.318 15H15V16H16C16.5523 16 17 16.4477 17 17C17 17.5523 16.5523 18 16 18H15V19C15 19.5523 14.5523 20 14 20C13.4477 20 13 19.5523 13 19V18H12C11.4477 18 11 17.5523 11 17C11 16.4477 11.4477 16 12 16H13V15H12C11.4477 15 11 14.5523 11 14C11 13.4477 11.4477 13 12 13H13V9ZM15 13V10H16.318C17.1156 10 17.4216 10.266 17.5692 10.4702C17.7589 10.7327 17.84 11.1156 17.84 11.5V11.6674C17.84 11.9866 17.7456 12.322 17.5482 12.5587C17.3795 12.761 17.0475 13 16.318 13H15Z" fill="#107F8C"/>
</svg>
