<svg width="32" height="33" viewBox="0 0 32 33" fill="none" xmlns="http://www.w3.org/2000/svg">
<path d="M20.9266 5.68073C21.3791 5.36402 22.0026 5.47405 22.3193 5.9265L25.5208 10.5H29C29.3466 10.5 29.6685 10.6795 29.8507 10.9743C30.0329 11.2691 30.0494 11.6372 29.8944 11.9472L27.8944 15.9472C27.6474 16.4412 27.0468 16.6414 26.5528 16.3944C26.0588 16.1474 25.8586 15.5468 26.1056 15.0528L27.382 12.5H25.0109C25.0043 12.5001 24.9976 12.5001 24.991 12.5H8.01155C8.00345 12.5001 7.99535 12.5001 7.98725 12.5H5.38743L9.72077 25.5H14C14.5523 25.5 15 25.9477 15 26.5C15 27.0523 14.5523 27.5 14 27.5H9.00001C8.56958 27.5 8.18744 27.2246 8.05132 26.8162L3.05132 11.8162C2.94967 11.5113 3.00081 11.1761 3.18877 10.9153C3.37672 10.6545 3.67856 10.5 4.00001 10.5H7.51944L11.2192 5.87534C11.5642 5.44408 12.1935 5.37416 12.6247 5.71917C13.056 6.06418 13.1259 6.69347 12.7809 7.12473L10.0807 10.5H23.0795L20.6809 7.07343C20.3641 6.62098 20.4742 5.99745 20.9266 5.68073Z" fill="#107F8C"/>
<path fill-rule="evenodd" clip-rule="evenodd" d="M20.99 29.5796H20.9956L20.9956 27.73C21.2101 27.85 21.4371 27.945 21.6747 28.0146C22.0282 28.1137 22.3761 28.1635 22.7183 28.1635C23.3121 28.1635 23.8287 28.0538 24.2654 27.8311C24.7026 27.6081 25.0381 27.2837 25.2703 26.859C25.5067 26.4341 25.623 25.9229 25.623 25.3287C25.623 24.8083 25.5036 24.3549 25.2615 23.9719C25.0196 23.5893 24.6706 23.294 24.2181 23.0851C24.1825 23.0687 24.1463 23.0529 24.1095 23.0378C24.4197 22.8427 24.6707 22.599 24.861 22.3064C25.0984 21.9416 25.2168 21.5328 25.2168 21.0821C25.2168 20.5406 25.091 20.076 24.8354 19.6923C24.5807 19.3059 24.221 19.0128 23.7598 18.8126C23.3032 18.6083 22.7691 18.5074 22.1597 18.5074C21.5855 18.5074 21.0587 18.6264 20.5812 18.8651C20.1079 19.1039 19.727 19.439 19.4398 19.8697C19.1508 20.3032 19.0074 20.8078 19.0074 21.3804V29.5003C19.0074 30.0487 19.452 30.4932 20.0003 30.4932C20.5218 30.4932 20.9492 30.0905 20.99 29.5796ZM23.1072 21.8782C23.0372 22.057 22.9229 22.1937 22.7648 22.2901C22.6994 22.331 22.3812 22.3638 22.0297 22.3879H20.9956V21.3804C20.9956 21.1115 21.0465 20.8837 21.145 20.6943C21.2485 20.5034 21.3871 20.3577 21.5598 20.2557C21.7369 20.1494 21.9363 20.0957 22.1597 20.0957C22.4061 20.0957 22.6031 20.1502 22.7561 20.2534L22.7573 20.2542C22.9137 20.3559 23.0282 20.4899 23.1022 20.6574L23.1028 20.6588C23.1824 20.8299 23.2223 21.013 23.2223 21.2091C23.2223 21.4723 23.1832 21.6941 23.1078 21.8768L23.1072 21.8782ZM22.2994 26.5754C21.9349 26.5754 21.6196 26.5215 21.3516 26.4161C21.2173 26.3611 21.0988 26.2974 20.9956 26.2254V23.8979L22.3247 23.898L22.3263 23.8979C22.6152 23.8981 22.8538 23.9573 23.0458 24.0709L23.0468 24.0715C23.2393 24.1815 23.3851 24.3408 23.4841 24.5509C23.5836 24.7578 23.6349 25.0077 23.6349 25.3033C23.6349 25.5492 23.5806 25.7661 23.4738 25.956L23.4732 25.9571C23.3707 26.1462 23.2205 26.2967 23.0214 26.4082C22.8289 26.5182 22.5895 26.5754 22.2994 26.5754Z" fill="#107F8C"/>
</svg>
