<svg width="21" height="20" viewBox="0 0 21 20" fill="none" xmlns="http://www.w3.org/2000/svg">
<path fill-rule="evenodd" clip-rule="evenodd" d="M2.00278 3.26855C2.00278 2.71627 2.45049 2.26855 3.00278 2.26855H8.00288C10.2398 2.26855 12.1341 3.73767 12.7726 5.76432H15.9241C18.163 5.76432 19.9808 7.63424 19.9909 9.94773L20.0027 12.6503C20.0103 14.3678 18.6649 15.7643 17.0028 15.7643H16.4188C16.0813 16.9012 15.0286 17.7305 13.7821 17.7305C12.5328 17.7305 11.4781 16.8975 11.1431 15.7566H9.14486C8.80955 16.897 7.7551 17.7295 6.5062 17.7295C5.25729 17.7295 4.20284 16.897 3.86753 15.7566H2.00003C0.895459 15.7566 3.04303e-05 14.8612 3.04303e-05 13.7566V9.98517C3.04303e-05 9.43289 0.447746 8.98518 1.00003 8.98518C1.55232 8.98518 2.00003 9.43289 2.00003 9.98517V13.7566H4.04238C4.4925 12.8515 5.42671 12.2295 6.5062 12.2295C7.58568 12.2295 8.51989 12.8515 8.97001 13.7566H11.0128L11.0029 7.26333C11 5.60852 9.6577 4.26855 8.00288 4.26855H3.00278C2.45049 4.26855 2.00278 3.82084 2.00278 3.26855ZM16.2152 13.6977H17.0028C17.5568 13.6977 18.0053 13.2322 18.0028 12.6596L17.9955 10.9974L13.0087 10.9974L13.0108 12.3402C13.2555 12.2688 13.5143 12.2305 13.7821 12.2305C14.8376 12.2305 15.7542 12.8251 16.2152 13.6977ZM17.7663 8.99736C17.4244 8.30486 16.7276 7.83098 15.9241 7.83098H13.0038L13.0056 8.99736H17.7663ZM6.5062 14.2295C6.09198 14.2295 5.7562 14.5653 5.7562 14.9795C5.7562 15.3937 6.09198 15.7295 6.5062 15.7295C6.92041 15.7295 7.2562 15.3937 7.2562 14.9795C7.2562 14.5653 6.92041 14.2295 6.5062 14.2295ZM13.0321 14.9805C13.0321 14.5663 13.3679 14.2305 13.7821 14.2305C14.1963 14.2305 14.5321 14.5663 14.5321 14.9805C14.5321 15.3947 14.1963 15.7305 13.7821 15.7305C13.3679 15.7305 13.0321 15.3947 13.0321 14.9805ZM3.26358 9.99736C3.26358 9.44508 3.7113 8.99736 4.26358 8.99736L7.26358 8.99737C7.81587 8.99737 8.26358 9.44508 8.26358 9.99737C8.26358 10.5497 7.81587 10.9974 7.26358 10.9974H4.26358C3.7113 10.9974 3.26358 10.5497 3.26358 9.99736ZM0 6.76421C0 6.21192 0.447715 5.76421 1 5.76421L5.50668 5.76421C6.05897 5.76421 6.50668 6.21192 6.50668 6.76421C6.50668 7.31649 6.05897 7.76421 5.50668 7.76421L1 7.76421C0.447715 7.76421 0 7.31649 0 6.76421Z" fill="#B2B8BF"/>
</svg>
