<svg width="32" height="32" viewBox="0 0 32 32" fill="none" xmlns="http://www.w3.org/2000/svg">
<path fill-rule="evenodd" clip-rule="evenodd" d="M21 8V10H25C26.6569 10 28 11.3431 28 13V25C28 26.6569 26.6569 28 25 28H7C5.34314 28 4 26.6569 4 25V13C4 11.3431 5.34315 10 7 10H11V8C11 6.34315 12.3431 5 14 5H18C19.6569 5 21 6.34315 21 8ZM7 12C6.44772 12 6 12.4477 6 13V25C6 25.5523 6.44772 26 7 26H25C25.5523 26 26 25.5523 26 25V13C26 12.4477 25.5523 12 25 12H7ZM13 10V8C13 7.44772 13.4477 7 14 7H18C18.5523 7 19 7.44772 19 8V10H13Z" fill="#21A19A"/>
<path fill-rule="evenodd" clip-rule="evenodd" d="M19 23C19 23.5523 18.5523 24 18 24H14C13.4477 24 13 23.5523 13 23C13 22.4477 13.4477 22 14 22H18C18.5523 22 19 22.4477 19 23Z" fill="#21A19A"/>
</svg>
