<svg width="32" height="32" viewBox="0 0 32 32" fill="none" xmlns="http://www.w3.org/2000/svg">
<path d="M14 3C13.4477 3 13 3.44772 13 4C13 4.55228 13.4477 5 14 5H22C22.5523 5 23 5.44772 23 6V26C23 26.5523 22.5523 27 22 27H10C9.44772 27 9 26.5523 9 26V6C9 5.44772 8.55228 5 8 5C7.44772 5 7 5.44772 7 6V26C7 27.6569 8.34315 29 10 29H22C23.6569 29 25 27.6569 25 26V6C25 4.34315 23.6569 3 22 3H14Z" fill="#B2B8BF"/>
<path d="M16 25C16.8284 25 17.5 24.3284 17.5 23.5C17.5 22.6716 16.8284 22 16 22C15.1716 22 14.5 22.6716 14.5 23.5C14.5 24.3284 15.1716 25 16 25Z" fill="#B2B8BF"/>
</svg>
