<svg width="20" height="20" viewBox="0 0 20 20" fill="none" xmlns="http://www.w3.org/2000/svg">
<g clip-path="url(#clip0_38247_821)">
<path fill-rule="evenodd" clip-rule="evenodd" d="M3.71209 0C2.90468 0 2.17647 0.485476 1.86593 1.23077L0.194218 5.24288C0.0592074 5.56691 -0.0523913 6.07337 0.174108 6.5965C0.642118 7.67745 1.86525 8.54545 3.8636 8.54545C5.1136 8.54545 5.95719 8.25367 6.57376 7.82515C6.74672 7.70494 6.93477 7.71019 7.05088 7.77467C7.76697 8.1723 8.78615 8.54545 9.99996 8.54545C11.2138 8.54545 12.233 8.1723 12.949 7.77467C13.0652 7.71019 13.2532 7.70494 13.4262 7.82515C14.0427 8.25367 14.8863 8.54545 16.1363 8.54545C18.1347 8.54545 19.3578 7.67745 19.8258 6.5965C20.0523 6.07337 19.9407 5.56691 19.8057 5.24288L18.134 1.23077C17.8235 0.485475 17.0952 0 16.2878 0H3.71209ZM3.71209 2L16.2878 2L17.9219 5.92175C17.7553 6.15856 17.2987 6.54545 16.1363 6.54545C15.2185 6.54545 14.7918 6.33867 14.5676 6.18285C13.8335 5.67267 12.8277 5.5544 11.9781 6.02615C11.4903 6.29703 10.8032 6.54545 9.99996 6.54545C9.19672 6.54545 8.50964 6.29703 8.0218 6.02615C7.17223 5.5544 6.16639 5.67267 5.43234 6.18285C5.20814 6.33867 4.78138 6.54545 3.8636 6.54545C2.70127 6.54545 2.24466 6.15856 2.07802 5.92175L3.71209 2Z" fill="#B2B8BF"/>
<path d="M3.22723 10.8184C3.22723 10.2661 2.77952 9.81836 2.22723 9.81836C1.67495 9.81836 1.22723 10.2661 1.22723 10.8184V18.0002C1.22723 19.1047 2.12267 20.0002 3.22723 20.0002H6.95451C8.05908 20.0002 8.95451 19.1047 8.95451 18.0002V13.4547L11.0454 13.4547L11.0454 18.0002C11.0454 19.1047 11.9408 20.0002 13.0454 20.0002H16.7727C17.8773 20.0002 18.7727 19.1047 18.7727 18.0002V10.8184C18.7727 10.2661 18.325 9.81836 17.7727 9.81836C17.2204 9.81836 16.7727 10.2661 16.7727 10.8184V18.0002H13.0454V13.4547C13.0454 12.3502 12.15 11.4547 11.0454 11.4547H8.95451C7.84994 11.4547 6.95451 12.3502 6.95451 13.4547V18.0002L3.22723 18.0002V10.8184Z" fill="#B2B8BF"/>
</g>
<defs>
<clipPath id="clip0_38247_821">
<rect width="20" height="20" fill="white"/>
</clipPath>
</defs>
</svg>
