<svg width="20" height="20" viewBox="0 0 20 20" fill="none" xmlns="http://www.w3.org/2000/svg">
<path fill-rule="evenodd" clip-rule="evenodd" d="M15.8431 10.431C15.1282 9.85063 14.0879 9.85693 13.3822 10.4466C12.4319 11.2403 11.2052 11.6798 9.93093 11.6798C8.68074 11.6798 7.47203 11.2553 6.53033 10.4883C5.81433 9.90803 4.77654 9.91432 4.06997 10.5026C2.12133 12.1312 1 14.4814 1 16.9514C1 17.4549 1.04905 17.9686 1.14517 18.4789C1.31353 19.3695 2.10849 19.9999 3.01829 19.9999H16.9817L17.141 19.9934C17.9834 19.9248 18.6977 19.3166 18.855 18.4782C18.9511 17.9716 19 17.4573 19 16.9514C19 14.4393 17.8459 12.0615 15.8431 10.431ZM9.93093 13.6797C11.6526 13.6797 13.3163 13.0903 14.6223 12.0164C16.1368 13.2685 17 15.0638 17 16.9514C17 17.1813 16.9864 17.4146 16.9595 17.6486L16.9091 17.9999H3.09104L3.04059 17.6473C3.01362 17.4129 3 17.1799 3 16.9514C3 15.0971 3.83848 13.3226 5.30966 12.0733C6.60234 13.1104 8.2411 13.6797 9.93093 13.6797Z" fill="#107F8C"/>
<path fill-rule="evenodd" clip-rule="evenodd" d="M15 5C15 2.23858 12.7614 0 10 0C7.23858 0 5 2.23858 5 5C5 7.76142 7.23858 10 10 10C12.7614 10 15 7.76142 15 5ZM7 5C7 3.34315 8.34315 2 10 2C11.6569 2 13 3.34315 13 5C13 6.65685 11.6569 8 10 8C8.34315 8 7 6.65685 7 5Z" fill="#107F8C"/>
</svg>
