<svg width="20" height="20" viewBox="0 0 20 20" fill="none" xmlns="http://www.w3.org/2000/svg">
<path d="M14.7574 2.03009C14.2216 2.16404 13.8959 2.70698 14.0298 3.24277L14.5298 5.24277C14.6638 5.77857 15.2067 6.10433 15.7425 5.97038C16.2783 5.83643 16.604 5.2935 16.4701 4.7577L15.9701 2.7577C15.8361 2.22191 15.2932 1.89615 14.7574 2.03009Z" fill="#B2B8BF"/>
<path d="M2.44719 2.10579C2.94117 2.35278 3.14139 2.95345 2.8944 3.44743L1.8944 5.44743C1.64741 5.94141 1.04674 6.14164 0.552761 5.89465C0.0587828 5.64766 -0.141442 5.04698 0.105548 4.55301L1.10555 2.55301C1.35254 2.05903 1.95321 1.8588 2.44719 2.10579Z" fill="#B2B8BF"/>
<path d="M2 8C2.55228 8 3 8.44772 3 9V13H17V9C17 8.44772 17.4477 8 18 8C18.5523 8 19 8.44772 19 9V13C19 14.1046 18.1046 15 17 15H11V17H16C16.5523 17 17 17.4477 17 18C17 18.5523 16.5523 19 16 19H4C3.44772 19 3 18.5523 3 18C3 17.4477 3.44772 17 4 17H9V15H3C1.89543 15 1 14.1046 1 13V9C1 8.44772 1.44772 8 2 8Z" fill="#B2B8BF"/>
<path d="M17.1055 3.44743C16.8585 2.95345 17.0588 2.35278 17.5527 2.10579C18.0467 1.8588 18.6474 2.05903 18.8944 2.55301L19.8944 4.55301C20.1414 5.04698 19.9412 5.64766 19.4472 5.89465C18.9532 6.14164 18.3525 5.94141 18.1055 5.44743L17.1055 3.44743Z" fill="#B2B8BF"/>
<path d="M10.7111 3.14848C10.6291 2.6023 11.0055 2.09313 11.5516 2.0112C12.0978 1.92927 12.607 2.30562 12.6889 2.8518L12.9889 4.8518C13.0708 5.39797 12.6945 5.90715 12.1483 5.98907C11.6022 6.071 11.093 5.69465 11.011 5.14848L10.7111 3.14848Z" fill="#B2B8BF"/>
<path d="M5.24253 2.03009C5.77832 2.16404 6.10408 2.70698 5.97013 3.24277L5.47013 5.24277C5.33619 5.77857 4.79325 6.10433 4.25746 5.97038C3.72166 5.83643 3.3959 5.2935 3.52985 4.7577L4.02985 2.7577C4.1638 2.22191 4.70673 1.89615 5.24253 2.03009Z" fill="#B2B8BF"/>
<path d="M9.28889 3.14848C9.37082 2.6023 8.99447 2.09313 8.44829 2.0112C7.90212 1.92927 7.39294 2.30562 7.31102 2.8518L7.01102 4.8518C6.92909 5.39797 7.30544 5.90715 7.85161 5.98907C8.39779 6.071 8.90696 5.69465 8.98889 5.14848L9.28889 3.14848Z" fill="#B2B8BF"/>
</svg>
