<svg width="20" height="20" viewBox="0 0 20 20" fill="none" xmlns="http://www.w3.org/2000/svg">
<path d="M10 0C10.5523 0 11 0.447715 11 1C11 1.55228 10.5523 2 10 2H4C3.44772 2 3 2.44772 3 3V17C3 17.5523 3.44772 18 4 18H14C14.5523 18 15 17.5523 15 17V13.5996C15.0002 13.0475 15.4478 12.5996 16 12.5996C16.5522 12.5996 16.9998 13.0475 17 13.5996V17C17 18.6569 15.6569 20 14 20H4C2.34315 20 1 18.6569 1 17V3C1 1.34315 2.34315 0 4 0H10Z" fill="#107F8C"/>
<path d="M11 13C11.5523 13 12 13.4477 12 14C12 14.5523 11.5523 15 11 15H6C5.44772 15 5 14.5523 5 14C5 13.4477 5.44772 13 6 13H11Z" fill="#107F8C"/>
<path d="M8 9C8.55228 9 9 9.44771 9 10C9 10.5523 8.55228 11 8 11H6C5.44772 11 5 10.5523 5 10C5 9.44771 5.44772 9 6 9H8Z" fill="#107F8C"/>
<path d="M15.3184 2.29297C15.7089 1.90244 16.3419 1.90244 16.7324 2.29297L19.707 5.26758L19.7764 5.34375C20.0965 5.73652 20.0731 6.31559 19.707 6.68164L16.7324 9.65723C16.342 10.0474 15.7088 10.0474 15.3184 9.65723C14.9279 9.2667 14.9279 8.6327 15.3184 8.24219L16.5605 7H12C11.4477 7 11 6.55228 11 6C11 5.44772 11.4477 5 12 5H16.6113L15.3184 3.70703C14.9278 3.31651 14.9278 2.68349 15.3184 2.29297Z" fill="#107F8C"/>
<path d="M8 5C8.55228 5 9 5.44772 9 6C9 6.55228 8.55228 7 8 7H6C5.44772 7 5 6.55228 5 6C5 5.44772 5.44772 5 6 5H8Z" fill="#107F8C"/>
</svg>
