<svg width="20" height="20" viewBox="0 0 20 20" fill="none" xmlns="http://www.w3.org/2000/svg">
<path d="M3 3C3 2.44772 3.44772 2 4 2H8C8.55228 2 9 1.55228 9 1C9 0.447715 8.55228 0 8 0H4C2.34315 0 1 1.34315 1 3V17C1 18.6569 2.34315 20 4 20H14C15.6569 20 17 18.6569 17 17V14C17 13.4477 16.5523 13 16 13C15.4477 13 15 13.4477 15 14V17C15 17.5523 14.5523 18 14 18H4C3.44772 18 3 17.5523 3 17V3Z" fill="#21A19A"/>
<path d="M5 10C5 9.44771 5.44772 9 6 9H9C9.55228 9 10 9.44771 10 10C10 10.5523 9.55228 11 9 11H6C5.44772 11 5 10.5523 5 10Z" fill="#21A19A"/>
<path d="M6 13C5.44772 13 5 13.4477 5 14C5 14.5523 5.44772 15 6 15H12C12.5523 15 13 14.5523 13 14C13 13.4477 12.5523 13 12 13H6Z" fill="#21A19A"/>
<path fill-rule="evenodd" clip-rule="evenodd" d="M15.1061 0.080855C15.3576 -0.0269517 15.6424 -0.0269517 15.8939 0.080855L19.3939 1.58086C19.7616 1.73843 20 2.09997 20 2.5C20 4.31878 19.9404 5.79523 19.3798 7.12608C18.8049 8.49075 17.7616 9.58018 16.0918 10.8061C15.7396 11.0646 15.2604 11.0646 14.9082 10.8061C13.2431 9.58361 12.2004 8.4944 11.6244 7.12956C11.0624 5.79807 11 4.32046 11 2.5C11 2.09997 11.2384 1.73843 11.6061 1.58086L15.1061 0.080855ZM13.0043 3.15757C13.0252 4.61621 13.1299 5.55334 13.467 6.35185C13.787 7.11008 14.3572 7.82999 15.5001 8.74202C16.6477 7.82667 17.2177 7.10676 17.5367 6.34962C17.8726 5.55214 17.9754 4.61708 17.9958 3.15762L15.5 2.08797L13.0043 3.15757Z" fill="#21A19A"/>
</svg>
