<svg width="20" height="20" viewBox="0 0 20 20" fill="none" xmlns="http://www.w3.org/2000/svg">
<path fill-rule="evenodd" clip-rule="evenodd" d="M11 1C11 0.447715 10.5523 0 10 0C9.44771 0 9 0.447715 9 1V2.07089C5.60771 2.55612 3 5.47353 3 9V14H2C1.44772 14 1 14.4477 1 15C1 15.5523 1.44772 16 2 16H18C18.5523 16 19 15.5523 19 15C19 14.4477 18.5523 14 18 14H17V9C17 5.47353 14.3923 2.55612 11 2.07089V1ZM15 9V14H5V9C5 6.23858 7.23858 4 10 4C12.7614 4 15 6.23858 15 9Z" fill="#21A19A"/>
<path fill-rule="evenodd" clip-rule="evenodd" d="M7.76684 17.1346C8.2449 16.858 8.85662 17.0214 9.13317 17.4994C9.30758 17.801 9.63111 18.0002 10 18.0002C10.3689 18.0002 10.6924 17.801 10.8668 17.4994C11.1434 17.0214 11.7551 16.858 12.2332 17.1346C12.7112 17.4111 12.8746 18.0228 12.598 18.5009C12.0808 19.395 11.1117 20.0002 10 20.0002C8.88831 20.0002 7.91916 19.395 7.40196 18.5009C7.12541 18.0228 7.28877 17.4111 7.76684 17.1346Z" fill="#21A19A"/>
</svg>
