<svg width="32" height="32" viewBox="0 0 32 32" fill="none" xmlns="http://www.w3.org/2000/svg">
<path fill-rule="evenodd" clip-rule="evenodd" d="M18.0004 3C18.0004 2.44772 18.4481 2 19.0004 2H25.95C26.3167 2 26.654 2.2007 26.8289 2.52298C27.0038 2.84527 26.9883 3.23744 26.7885 3.54491L25.193 6L26.7885 8.45509C26.9883 8.76256 27.0038 9.15473 26.8289 9.47702C26.654 9.7993 26.3167 10 25.95 10H19.0004C18.4481 10 18.0004 9.55228 18.0004 9V3ZM20.0004 4V8H24.1075L23.1619 6.54491C22.9465 6.21355 22.9465 5.78645 23.1619 5.45509L24.1075 4H20.0004ZM19.031 11.5005C19.3596 11.5107 19.6621 11.6817 19.8403 11.9579L29.8403 27.4579C30.0388 27.7655 30.0533 28.157 29.8781 28.4785C29.7029 28.7999 29.3661 29 29 29H3.00037C2.63157 29 2.29271 28.797 2.11869 28.4719C1.94467 28.1467 1.96375 27.7522 2.16832 27.4453L8.16832 18.4453C8.3345 18.196 8.60369 18.0344 8.90183 18.0049C9.19997 17.9753 9.49563 18.081 9.70747 18.2929L11.8851 20.4706L18.1949 11.9068C18.3899 11.6422 18.7025 11.4903 19.031 11.5005ZM18.9454 14.2599L12.8054 22.5932C12.6326 22.8278 12.366 22.9753 12.0755 22.9972C11.7849 23.0191 11.4993 22.9131 11.2933 22.7071L9.15579 20.5696L4.86889 27H27.1648L18.9454 14.2599Z" fill="#21A19A"/>
</svg>
