<svg width="32" height="32" viewBox="0 0 32 32" fill="none" xmlns="http://www.w3.org/2000/svg">
<path d="M7 7.81818C7 7.35681 7.36762 7 7.8 7H14C14.5523 7 15 6.55228 15 6C15 5.44772 14.5523 5 14 5H7.8C6.24415 5 5 6.27124 5 7.81818V24.1818C5 25.7288 6.24415 27 7.8 27H22.2C23.7558 27 25 25.7288 25 24.1818V20.5C25 19.9477 24.5523 19.5 24 19.5C23.4477 19.5 23 19.9477 23 20.5V24.1818C23 24.6432 22.6324 25 22.2 25H7.8C7.36762 25 7 24.6432 7 24.1818V7.81818Z" fill="#107F8C"/>
<path d="M11 10C10.4477 10 10 10.4477 10 11C10 11.5523 10.4477 12 11 12H14C14.5523 12 15 11.5523 15 11C15 10.4477 14.5523 10 14 10H11Z" fill="#107F8C"/>
<path d="M10 16C10 15.4477 10.4477 15 11 15H14C14.5523 15 15 15.4477 15 16C15 16.5523 14.5523 17 14 17H11C10.4477 17 10 16.5523 10 16Z" fill="#107F8C"/>
<path d="M11 20C10.4477 20 10 20.4477 10 21C10 21.5523 10.4477 22 11 22H16C16.5523 22 17 21.5523 17 21C17 20.4477 16.5523 20 16 20H11Z" fill="#107F8C"/>
<path fill-rule="evenodd" clip-rule="evenodd" d="M22.9998 2C23.3805 2 23.7281 2.2161 23.8966 2.55743L25.4272 5.65894L28.85 6.15629C29.2266 6.21103 29.5396 6.47487 29.6572 6.83688C29.7748 7.19889 29.6767 7.59629 29.4042 7.86198L26.9275 10.2762L27.5121 13.6851C27.5765 14.0602 27.4223 14.4394 27.1143 14.6631C26.8064 14.8869 26.3981 14.9164 26.0612 14.7392L22.9998 13.1298L19.9385 14.7392C19.6015 14.9164 19.1933 14.8869 18.8853 14.6631C18.5774 14.4394 18.4232 14.0602 18.4875 13.6851L19.0722 10.2762L16.5955 7.86198C16.3229 7.59629 16.2248 7.19889 16.3424 6.83688C16.4601 6.47487 16.773 6.21103 17.1497 6.15629L20.5724 5.65894L22.1031 2.55743C22.2715 2.2161 22.6192 2 22.9998 2ZM22.9998 5.25955L22.1332 7.01551C21.9875 7.31066 21.706 7.51523 21.3803 7.56256L19.4424 7.84414L20.8447 9.21097C21.0804 9.4407 21.1879 9.7717 21.1323 10.0961L20.8012 12.0261L22.5345 11.1149C22.8258 10.9617 23.1738 10.9617 23.4652 11.1149L25.1984 12.0261L24.8674 10.0961C24.8117 9.7717 24.9193 9.4407 25.155 9.21096L26.5572 7.84414L24.6194 7.56256C24.2937 7.51523 24.0121 7.31066 23.8664 7.01551L22.9998 5.25955Z" fill="#107F8C"/>
</svg>
