<svg width="32" height="33" viewBox="0 0 32 33" fill="none" xmlns="http://www.w3.org/2000/svg">
<path d="M9.62503 11.4375C9.62503 12.335 8.89749 13.0625 8.00003 13.0625C7.10257 13.0625 6.37503 12.335 6.37503 11.4375C6.37503 10.54 7.10257 9.8125 8.00003 9.8125C8.89749 9.8125 9.62503 10.54 9.62503 11.4375Z" fill="#21A19A"/>
<path fill-rule="evenodd" clip-rule="evenodd" d="M6.96509 5.4375C6.53177 5.4375 6.14775 5.71658 6.01395 6.12872L6.00903 6.14394L5.99572 6.1852C5.98432 6.22067 5.96805 6.27142 5.94843 6.33315C5.90926 6.45639 5.85637 6.62451 5.80188 6.80279C5.76029 6.93888 5.70969 7.1062 5.66297 7.27167C5.6004 7.3052 5.53903 7.33986 5.47887 7.3755C5.29886 7.33026 5.11136 7.28702 4.95892 7.25236C4.77161 7.20978 4.59401 7.17086 4.46355 7.14266C4.3982 7.12853 4.34441 7.11703 4.30681 7.10903L4.26307 7.09975L4.24698 7.09636C3.82935 7.00863 3.40205 7.1956 3.18309 7.5619L2.14816 9.29315C1.91753 9.67895 1.97274 10.1713 2.28298 10.4966L2.2941 10.5082L2.32462 10.5401C2.35088 10.5675 2.38848 10.6066 2.43429 10.6541C2.52576 10.7488 2.65069 10.8776 2.78372 11.0126C2.88177 11.112 3.00086 11.2322 3.1203 11.3489C3.11947 11.3782 3.11903 11.4078 3.11903 11.4375C3.11903 11.4649 3.11931 11.4924 3.11987 11.5201C2.99819 11.6388 2.87652 11.7616 2.77665 11.8629C2.64369 11.9978 2.51887 12.1265 2.4275 12.2212C2.38174 12.2686 2.34418 12.3077 2.31796 12.3351L2.28747 12.367L2.27627 12.3787C1.96615 12.7039 1.9111 13.1961 2.14169 13.5819L3.17662 15.3131C3.39565 15.6795 3.82324 15.8664 4.24097 15.7785L4.30074 15.7659C4.3384 15.7578 4.39227 15.7463 4.4577 15.7321C4.58833 15.7039 4.76613 15.6649 4.95355 15.6222C5.10527 15.5877 5.29181 15.5447 5.471 15.4997C5.53233 15.5361 5.59463 15.5712 5.65803 15.605C5.70587 15.7723 5.75773 15.9411 5.80015 16.0778C5.85549 16.256 5.90921 16.4239 5.94899 16.547C5.96892 16.6087 5.98544 16.6593 5.99703 16.6948L6.01055 16.736L6.01556 16.7512C6.1509 17.1608 6.53367 17.4375 6.96509 17.4375H9.03494C9.46816 17.4375 9.85215 17.1584 9.98603 16.7464L9.99092 16.7313L10.0042 16.6901C10.0156 16.6547 10.0319 16.604 10.0515 16.5424C10.0906 16.4193 10.1435 16.2513 10.198 16.0731C10.2397 15.9367 10.2904 15.7691 10.3372 15.6033C10.3997 15.5697 10.461 15.5351 10.5212 15.4995C10.7012 15.5447 10.8887 15.588 11.0411 15.6226C11.2284 15.6652 11.406 15.7041 11.5365 15.7323C11.6018 15.7465 11.6556 15.758 11.6932 15.766L11.737 15.7752L11.753 15.7786C12.1707 15.8664 12.598 15.6794 12.8169 15.3131L13.8519 13.5819C14.0814 13.1979 14.0279 12.7081 13.721 12.3826L13.7202 12.3818L13.6799 12.3391C13.6539 12.3117 13.6168 12.2726 13.5715 12.2252C13.4811 12.1305 13.3577 12.0018 13.2262 11.8669C13.1257 11.7638 13.0028 11.6384 12.8803 11.5176C12.8807 11.4911 12.881 11.4644 12.881 11.4375C12.881 11.4124 12.8808 11.3874 12.8803 11.3624C13.0153 11.2322 13.1486 11.0971 13.2576 10.9853C13.3869 10.8527 13.5052 10.7286 13.5911 10.6377C13.6341 10.5922 13.6692 10.5548 13.6937 10.5287L13.7222 10.4981L13.733 10.4865C14.0353 10.1608 14.0864 9.6746 13.8583 9.29315L12.8234 7.5619C12.6044 7.1955 12.1768 7.00856 11.7591 7.09645L11.7431 7.09983L11.6993 7.10913C11.6616 7.11715 11.6078 7.12869 11.5423 7.14285C11.4117 7.17113 11.2339 7.21013 11.0465 7.25277C10.8948 7.28728 10.7082 7.33031 10.529 7.3753C10.4678 7.33897 10.4055 7.30389 10.3421 7.27008C10.2942 7.10246 10.2423 6.93326 10.1997 6.79637C10.1444 6.61821 10.0907 6.45043 10.0509 6.3275C10.031 6.26592 10.0145 6.21531 10.0029 6.17993L9.9894 6.13877L9.98438 6.12354C9.84897 5.71404 9.46626 5.4375 9.03494 5.4375H6.96509ZM7.57038 7.87721C7.60697 7.74541 7.65255 7.59121 7.69926 7.4375H8.30458C8.35212 7.59142 8.3985 7.74594 8.43567 7.87811C8.45622 7.95118 8.47263 8.01273 8.48446 8.06087C8.4931 8.096 8.49699 8.11477 8.49825 8.12086C8.55015 8.47525 8.78765 8.77386 9.12084 8.90527C9.34955 8.99547 9.55891 9.11381 9.76809 9.26781C10.0437 9.47072 10.404 9.51858 10.723 9.39465C10.7293 9.3926 10.7486 9.38655 10.7857 9.37592C10.8354 9.3617 10.8994 9.34463 10.9756 9.32531C11.1239 9.28775 11.3012 9.24599 11.4762 9.20611L11.7508 9.66543C11.5177 9.90202 11.3192 10.0919 11.2398 10.1518C10.9428 10.3759 10.7948 10.7463 10.8556 11.1134C10.872 11.2122 10.881 11.3199 10.881 11.4375C10.881 11.5553 10.872 11.6754 10.8563 11.8018C10.8125 12.1545 10.9592 12.504 11.2417 12.7197C11.2466 12.7239 11.2615 12.7369 11.2894 12.7625C11.3267 12.7968 11.3736 12.8416 11.4288 12.8954C11.5241 12.9886 11.6339 13.0992 11.7434 13.2111L11.4697 13.669C11.2951 13.6293 11.1184 13.5876 10.9704 13.5501C10.8941 13.5308 10.83 13.5137 10.7802 13.4994C10.7425 13.4886 10.7229 13.4822 10.7166 13.4802C10.3988 13.3567 10.0399 13.4039 9.76456 13.605C9.55695 13.7567 9.34008 13.8807 9.11437 13.9697C8.78118 14.1011 8.54371 14.4007 8.49181 14.7551C8.49055 14.7612 8.48656 14.7797 8.47786 14.8154C8.4661 14.8638 8.44982 14.9256 8.4295 14.9988C8.39297 15.1304 8.34751 15.2842 8.3009 15.4375H7.69558C7.64793 15.2832 7.60145 15.1283 7.56421 14.996C7.54366 14.9229 7.52725 14.8614 7.51543 14.8133C7.50689 14.7786 7.50302 14.76 7.50176 14.7539L7.50126 14.7516L7.50175 14.7551C7.44985 14.4007 7.21238 14.1011 6.87919 13.9697C6.65049 13.8795 6.44113 13.7612 6.23194 13.6072C5.95631 13.4043 5.59605 13.3564 5.277 13.4804C5.27074 13.4824 5.25153 13.4884 5.21434 13.4991C5.16465 13.5133 5.10062 13.5304 5.02438 13.5497C4.87614 13.5872 4.69884 13.629 4.52383 13.6689L4.25241 13.2148C4.36305 13.103 4.47403 12.9925 4.57044 12.8994C4.62619 12.8455 4.67375 12.8007 4.71152 12.7664C4.74004 12.7405 4.7555 12.7274 4.76043 12.7233C5.05737 12.4992 5.20518 12.1287 5.14441 11.7616C5.1282 11.6637 5.11903 11.5499 5.11903 11.4375C5.11903 11.3493 5.13006 11.2391 5.15088 11.1134C5.21165 10.7463 5.06366 10.3759 4.76671 10.1518C4.76177 10.1476 4.74675 10.1347 4.71854 10.109C4.68083 10.0748 4.63331 10.03 4.57756 9.97613C4.48103 9.88288 4.36981 9.7721 4.25893 9.66006L4.53038 9.20597C4.70489 9.24572 4.88167 9.28735 5.02967 9.32487C5.10591 9.34419 5.17001 9.36129 5.21982 9.37556C5.25757 9.38638 5.27717 9.39277 5.28341 9.3948C5.60125 9.51827 5.96015 9.47111 6.23547 9.26996C6.44308 9.11829 6.65995 8.99428 6.88566 8.90527C7.21885 8.77386 7.45632 8.47429 7.50822 8.11991C7.50949 8.11374 7.51343 8.09569 7.52203 8.06041C7.53378 8.01214 7.55006 7.95042 7.57038 7.87721Z" fill="#21A19A"/>
<path fill-rule="evenodd" clip-rule="evenodd" d="M16.4499 18.1729C15.8976 18.1729 15.4499 18.6206 15.4499 19.1729C15.4499 19.7251 15.8976 20.1729 16.4499 20.1729H18.9873L18.99 21.9353C18.9904 22.2117 18.7665 22.4361 18.49 22.4361H13.8217C13.4099 21.2708 12.2986 20.4359 10.9923 20.4359C9.68606 20.4359 8.57478 21.2708 8.16299 22.4361H7.49234C7.2162 22.4361 6.99234 22.2122 6.99234 21.9361V19.4157C6.99234 18.8635 6.54462 18.4157 5.99234 18.4157C5.44006 18.4157 4.99234 18.8635 4.99234 19.4157V22.4361C4.99234 23.5406 5.88777 24.4361 6.99234 24.4361H8.1631C8.57498 25.6012 9.68618 26.4359 10.9923 26.4359C12.2985 26.4359 13.4097 25.6012 13.8216 24.4361H19.1626C19.5745 25.6012 20.6857 26.4359 21.9919 26.4359C23.2948 26.4359 24.4037 25.6053 24.818 24.4447H26.0077C27.6675 24.4447 29.0118 23.097 29.0077 21.4373L28.9965 16.9346C28.9903 14.4489 26.9735 12.4371 24.4878 12.4371H20.8767C20.4132 10.1548 18.3953 8.43761 15.9769 8.43761L15.9571 8.4375C15.4048 8.4375 14.9571 8.88522 14.9571 9.4375C14.9571 9.98978 15.4048 10.4375 15.9571 10.4375L15.9769 10.4376C17.6319 10.4376 18.9743 11.7779 18.9769 13.433L18.9842 18.1729H16.4499ZM26.0077 22.4447H24.8243C24.4149 21.2749 23.3014 20.4359 21.9919 20.4359C21.6398 20.4359 21.3018 20.4966 20.988 20.608L20.9846 18.4371H27.0002L27.0077 21.4422C27.0091 21.9955 26.561 22.4447 26.0077 22.4447ZM24.4878 14.4371C25.6988 14.4371 26.7097 15.2952 26.9449 16.4371H20.9815L20.9784 14.4371H24.4878ZM21.9919 24.4359C21.447 24.4359 21.004 24.0002 20.9921 23.4582L20.9923 23.4345L20.9923 23.4058C21.0082 22.8675 21.4496 22.4359 21.9919 22.4359C22.5441 22.4359 22.9919 22.8836 22.9919 23.4359C22.9919 23.9882 22.5441 24.4359 21.9919 24.4359ZM9.99234 23.4359C9.99234 22.8836 10.4401 22.4359 10.9923 22.4359C11.5446 22.4359 11.9923 22.8836 11.9923 23.4359C11.9923 23.9882 11.5446 24.4359 10.9923 24.4359C10.4401 24.4359 9.99234 23.9882 9.99234 23.4359Z" fill="#21A19A"/>
</svg>
