<svg width="20" height="20" viewBox="0 0 20 20" fill="none" xmlns="http://www.w3.org/2000/svg">
<path d="M16.2095 4.9778C16.7495 4.86208 17.0935 4.3305 16.9778 3.79047C16.8621 3.25045 16.3305 2.90648 15.7905 3.0222L10.3426 4.18959C10.7508 3.74464 11 3.15142 11 2.5C11 1.11929 9.8807 0 8.49999 0C7.11928 0 5.99999 1.11929 5.99999 2.5C5.99999 3.52918 6.62189 4.41311 7.5104 4.7965L1.79046 6.0222C1.25044 6.13792 0.906471 6.6695 1.02219 7.20953C1.13791 7.74955 1.6695 8.09352 2.20952 7.9778L7.68575 6.80433L5.02381 18.7831C4.904 19.3222 5.24393 19.8564 5.78306 19.9762C6.3222 20.096 6.85637 19.7561 6.97618 19.2169L9.38149 8.39305L14.1134 17.4626C14.3689 17.9522 14.9729 18.1421 15.4626 17.8866C15.9522 17.6311 16.142 17.0271 15.8866 16.5374L10.4944 6.20247L16.2095 4.9778Z" fill="#107F8C"/>
</svg>
