<svg width="32" height="32" viewBox="0 0 32 32" fill="none" xmlns="http://www.w3.org/2000/svg">
<g clip-path="url(#clip0_49964_582)">
<path fill-rule="evenodd" clip-rule="evenodd" d="M20.5 11.5002C21.0522 11.5002 21.5 11.0529 21.5 10.5002V3.08129L22.3755 3.78149C22.8066 4.12622 23.436 4.0559 23.7808 3.62524C24.126 3.1936 24.0562 2.56469 23.6245 2.21899L21.1245 0.218994C20.7593 -0.072998 20.2407 -0.072998 19.8755 0.218994L17.3755 2.21899C16.9438 2.56469 16.874 3.1936 17.2192 3.62524C17.564 4.0559 18.1934 4.12622 18.6245 3.78149L19.5 3.08129V10.5002C19.5 11.0529 19.9478 11.5002 20.5 11.5002ZM28.5 4.50024C28.5 3.94751 28.0522 3.50024 27.5 3.50024C26.9478 3.50024 26.5 3.94751 26.5 4.50024V11.9191L25.6245 11.219C25.1934 10.8742 24.564 10.9445 24.2192 11.3752C23.874 11.8068 23.9438 12.4357 24.3755 12.7814L26.8755 14.7814C27.2407 15.0734 27.7593 15.0734 28.1245 14.7814L30.6245 12.7814C31.0562 12.4357 31.126 11.8068 30.7808 11.3752C30.436 10.9445 29.8066 10.8742 29.3755 11.219L28.5 11.9201V4.50024ZM14 8.00122C8.47705 8.00122 4 12.4787 4 18.0012V28.0012H14C19.5229 28.0012 24 23.5236 24 18.0012C24 17.6945 23.9863 17.3908 23.9595 17.092C23.9097 16.5422 24.3154 16.0559 24.8657 16.0061C25.4155 15.9572 25.9019 16.3625 25.9512 16.9123C25.9834 17.2717 26 17.635 26 18.0012C26 24.6281 20.6274 30.0012 14 30.0012H3C2.44775 30.0012 2 29.5539 2 29.0012V18.0012C2 11.3742 7.37256 6.00122 14 6.00122C14.3687 6.00122 14.7339 6.01782 15.0945 6.05004C15.6445 6.09985 16.05 6.58618 16.0002 7.13696C15.9504 7.68676 15.4644 8.09204 14.9141 8.04223C14.6133 8.01489 14.3086 8.00122 14 8.00122ZM16.5 12.0012C17.0522 12.0012 17.5 12.4484 17.5 13.0012C17.5 13.5539 17.0522 14.0012 16.5 14.0012H11V16.0012H14.3076C16.5923 16.0012 19 17.4289 19 20.0012C19 22.5734 16.5923 24.0012 14.3076 24.0012H9V14.0012C9 12.8967 9.89551 12.0012 11 12.0012H16.5ZM11 18.0012V22.0012H14.3076C15.9858 22.0012 17 21.0295 17 20.0012C17 18.9729 15.9858 18.0012 14.3076 18.0012H11Z" fill="#107F8C"/>
</g>
<defs>
<clipPath id="clip0_49964_582">
<rect width="32" height="32" fill="white"/>
</clipPath>
</defs>
</svg>
