<svg width="20" height="20" viewBox="0 0 20 20" fill="none" xmlns="http://www.w3.org/2000/svg">
<path d="M10 0C10.5523 0 11 0.447715 11 1C11 1.55228 10.5523 2 10 2H4C3.44772 2 3 2.44772 3 3V17.127C3.85927 16.7795 4.84821 16.8421 5.66797 17.334L5.98535 17.5254L6.10742 17.5879C6.39963 17.7126 6.73754 17.6917 7.01465 17.5254L7.45605 17.2598L7.6377 17.1602C8.55436 16.6926 9.65332 16.7254 10.5439 17.2598L10.9854 17.5254L11.1074 17.5879C11.3996 17.7126 11.7375 17.6917 12.0146 17.5254L12.332 17.334L12.5312 17.2246C13.3088 16.8346 14.2092 16.8072 15 17.127V13.5996C15.0002 13.0475 15.4478 12.5996 16 12.5996C16.5522 12.5996 16.9998 13.0475 17 13.5996V19C17 19.3788 16.786 19.7251 16.4473 19.8945C16.1085 20.0639 15.7034 20.027 15.4004 19.7998L14.4756 19.1064C14.1911 18.8933 13.8182 18.8492 13.4961 18.9814L13.3613 19.0498L13.0439 19.2402C12.1533 19.7746 11.0544 19.8074 10.1377 19.3398L9.95605 19.2402L9.51465 18.9746C9.23754 18.8083 8.89963 18.7874 8.60742 18.9121L8.48535 18.9746L8.04395 19.2402C7.15332 19.7746 6.05436 19.8074 5.1377 19.3398L4.95605 19.2402L4.63867 19.0498C4.33372 18.8668 3.9583 18.8607 3.65137 19.0254L3.52441 19.1064L2.59961 19.7998C2.29661 20.027 1.89146 20.0639 1.55273 19.8945C1.21395 19.7251 1 19.3788 1 19V3C1 1.34315 2.34315 0 4 0H10Z" fill="#21A19A"/>
<path d="M11 13C11.5523 13 12 13.4477 12 14C12 14.5523 11.5523 15 11 15H6C5.44772 15 5 14.5523 5 14C5 13.4477 5.44772 13 6 13H11Z" fill="#21A19A"/>
<path d="M8 9C8.55228 9 9 9.44771 9 10C9 10.5523 8.55228 11 8 11H6C5.44772 11 5 10.5523 5 10C5 9.44771 5.44772 9 6 9H8Z" fill="#21A19A"/>
<path d="M15.3184 2.29297C15.7089 1.90244 16.3419 1.90244 16.7324 2.29297L19.707 5.26758L19.7764 5.34375C20.0965 5.73652 20.0731 6.31559 19.707 6.68164L16.7324 9.65723C16.342 10.0474 15.7088 10.0474 15.3184 9.65723C14.9279 9.2667 14.9279 8.6327 15.3184 8.24219L16.5605 7H12C11.4477 7 11 6.55228 11 6C11 5.44772 11.4477 5 12 5H16.6113L15.3184 3.70703C14.9278 3.31651 14.9278 2.68349 15.3184 2.29297Z" fill="#21A19A"/>
<path d="M8 5C8.55228 5 9 5.44772 9 6C9 6.55228 8.55228 7 8 7H6C5.44772 7 5 6.55228 5 6C5 5.44772 5.44772 5 6 5H8Z" fill="#21A19A"/>
</svg>
