<svg width="20" height="20" viewBox="0 0 20 20" fill="none" xmlns="http://www.w3.org/2000/svg">
<path d="M6 1.99979C6.55228 1.99979 7 2.4475 7 2.99979C7 3.55207 6.55228 3.99979 6 3.99979H3C2.44772 3.99979 2 4.4475 2 4.99979V12.9998L2.00488 13.1023C2.05621 13.6065 2.48232 13.9998 3 13.9998H16C16.5523 13.9998 17 13.5521 17 12.9998V11.9998C17 11.4475 17.4477 10.9998 18 10.9998C18.5523 10.9998 19 11.4475 19 11.9998V12.9998C19 14.6566 17.6569 15.9998 16 15.9998H11V17.9998H14C14.5523 17.9998 15 18.4475 15 18.9998C15 19.5521 14.5523 19.9998 14 19.9998H6C5.44772 19.9998 5 19.5521 5 18.9998C5 18.4475 5.44772 17.9998 6 17.9998H9V15.9998H3C1.39489 15.9998 0.0842144 14.7392 0.00390625 13.1541L0 12.9998V4.99979C1.28853e-07 3.34293 1.34315 1.99979 3 1.99979H6Z" fill="#21A19A"/>
<path fill-rule="evenodd" clip-rule="evenodd" d="M12.8174 0.005647L13.0654 0.0310376C13.6353 0.114152 14.1399 0.365962 14.5098 0.802522C14.9148 1.28081 15.0677 1.87356 15.0889 2.4285C15.1304 3.51886 14.6824 4.76547 13.9941 5.82987C13.7454 6.21448 13.453 6.59054 13.124 6.94315C13.4018 7.01375 13.732 7.01752 14.1309 6.92264L14.1699 6.90701C14.1971 6.89413 14.2338 6.87395 14.2793 6.84354C14.3726 6.78111 14.4818 6.69124 14.6045 6.57401C14.8575 6.33225 15.0877 6.05499 15.3193 5.78787C15.4197 5.67212 15.5479 5.52644 15.6699 5.41483C15.725 5.36441 15.8365 5.26602 15.9854 5.19022C16.0898 5.13701 16.5652 4.91761 17.0547 5.24198C17.4805 5.52426 17.5191 5.97588 17.5264 6.0574C17.5398 6.20773 17.5252 6.34816 17.5117 6.44412C17.4989 6.53541 17.4776 6.63703 17.4531 6.74783C17.7056 6.60067 18.0095 6.38881 18.3564 6.09744C18.7793 5.74227 19.4104 5.79762 19.7656 6.22049C20.1208 6.64338 20.0664 7.27447 19.6436 7.62967C19.1443 8.049 18.6652 8.37891 18.2217 8.60916C17.7962 8.83002 17.3227 9.00128 16.8545 8.99979C16.3944 8.99824 15.8955 8.81659 15.5859 8.36405C15.3632 8.53517 15.1025 8.70021 14.8105 8.80447L14.5947 8.86795C13.333 9.16823 12.2435 8.91747 11.4033 8.29862C11.2685 8.37225 11.1312 8.4425 10.9902 8.50565C9.76319 9.05517 8.33227 9.17093 6.85645 8.54666L6.56055 8.4119L6.4707 8.36209C6.04043 8.09452 5.87422 7.53902 6.10156 7.07401C6.32912 6.60871 6.87009 6.39909 7.3457 6.57498L7.43945 6.61502L7.62695 6.70096C8.53417 7.08712 9.3674 7.02319 10.1143 6.70389C9.83809 6.13398 9.66726 5.51563 9.58691 4.91385C9.44107 3.82129 9.57099 2.63811 10.0479 1.69608C10.5424 0.719134 11.4738 -0.0750086 12.8174 0.005647ZM12.5713 2.00272C12.2824 2.02427 12.0386 2.19134 11.832 2.5994C11.5783 3.10066 11.4636 3.85733 11.5693 4.6492C11.6081 4.93922 11.6743 5.21417 11.7627 5.46658C11.9634 5.24001 12.1499 4.99831 12.3145 4.74393C12.8655 3.8918 13.1116 3.04991 13.0908 2.50467C13.0808 2.242 13.0133 2.12982 12.9834 2.09451C12.9704 2.07915 12.9168 2.01495 12.6973 2.00174L12.5713 2.00272Z" fill="#21A19A"/>
</svg>
