<svg width="32" height="32" viewBox="0 0 32 32" fill="none" xmlns="http://www.w3.org/2000/svg">
<path d="M7 7.81818C7 7.35681 7.36762 7 7.8 7H14C14.5523 7 15 6.55228 15 6C15 5.44772 14.5523 5 14 5H7.8C6.24415 5 5 6.27124 5 7.81818V24.1818C5 25.7288 6.24415 27 7.8 27H22.2C23.7558 27 25 25.7288 25 24.1818V20.5C25 19.9477 24.5523 19.5 24 19.5C23.4477 19.5 23 19.9477 23 20.5V24.1818C23 24.6432 22.6324 25 22.2 25H7.8C7.36762 25 7 24.6432 7 24.1818V7.81818Z" fill="#B2B8BF"/>
<path d="M11 10C10.4477 10 10 10.4477 10 11C10 11.5523 10.4477 12 11 12H14C14.5523 12 15 11.5523 15 11C15 10.4477 14.5523 10 14 10H11Z" fill="#B2B8BF"/>
<path d="M10 16C10 15.4477 10.4477 15 11 15H14C14.5523 15 15 15.4477 15 16C15 16.5523 14.5523 17 14 17H11C10.4477 17 10 16.5523 10 16Z" fill="#B2B8BF"/>
<path d="M11 20C10.4477 20 10 20.4477 10 21C10 21.5523 10.4477 22 11 22H16C16.5523 22 17 21.5523 17 21C17 20.4477 16.5523 20 16 20H11Z" fill="#B2B8BF"/>
<path d="M23.3912 3.01141C23.7853 2.62448 23.7911 1.99134 23.4042 1.59726C23.0173 1.20317 22.3841 1.19737 21.99 1.58429L19.2169 4.30707C18.8228 4.694 18.817 5.32714 19.2039 5.72123C19.5909 6.11531 20.224 6.12112 20.6181 5.73419L23.3912 3.01141Z" fill="#B2B8BF"/>
<path fill-rule="evenodd" clip-rule="evenodd" d="M27.429 3.97344C26.6734 3.21784 25.4927 3.21784 24.7371 3.97344L17.807 11.0358C17.6725 11.1728 17.5804 11.3456 17.5415 11.5336L16.8245 14.9987C16.7561 15.329 16.8589 15.6715 17.0978 15.9096C17.3367 16.1477 17.6796 16.2493 18.0097 16.1799L21.4647 15.4528C21.6577 15.4122 21.8344 15.3154 21.9725 15.1746L28.8932 8.12179C29.6449 7.36603 29.6436 6.18802 28.8893 5.43373L27.429 3.97344ZM27.4075 6.78033L26.0837 5.45656L19.4404 12.2267L19.0925 13.9082L20.7569 13.558L27.4075 6.78033Z" fill="#B2B8BF"/>
</svg>
