<svg width="32" height="32" viewBox="0 0 32 32" fill="none" xmlns="http://www.w3.org/2000/svg">
<path fill-rule="evenodd" clip-rule="evenodd" d="M8.09495 7.99903C9.69821 5.30775 12.6384 3.5 16 3.5C20.2149 3.5 23.7616 6.32941 24.8507 10.2029C27.8497 10.7597 30.125 13.3647 30.125 16.5312C30.125 20.1023 27.2273 23 23.6562 23C23.104 23 22.6562 22.5523 22.6562 22C22.6562 21.4477 23.104 21 23.6562 21C26.1227 21 28.125 18.9977 28.125 16.5312C28.125 14.1794 26.2997 12.2652 23.97 12.1039C23.5192 12.0727 23.1453 11.743 23.0579 11.2996C22.4047 7.98555 19.494 5.5 16 5.5C13.227 5.5 10.8155 7.07276 9.61348 9.38068C9.45871 9.67783 9.16543 9.87773 8.83228 9.91315C6.04433 10.2095 3.875 12.5734 3.875 15.4375C3.875 18.089 5.73942 20.3151 8.22869 20.868C8.76784 20.9878 9.10782 21.5219 8.98807 22.0611C8.86832 22.6002 8.33418 22.9402 7.79504 22.8205C4.41137 22.0689 1.875 19.0476 1.875 15.4375C1.875 11.724 4.55549 8.62952 8.09495 7.99903Z" fill="#21A19A"/>
<path d="M11 20C11 19.4477 11.4477 19 12 19H20C20.5523 19 21 19.4477 21 20C21 20.5523 20.5523 21 20 21H12C11.4477 21 11 20.5523 11 20Z" fill="#21A19A"/>
<path d="M11 24C11 23.4477 11.4477 23 12 23H20C20.5523 23 21 23.4477 21 24C21 24.5523 20.5523 25 20 25H12C11.4477 25 11 24.5523 11 24Z" fill="#21A19A"/>
<path d="M12 27C11.4477 27 11 27.4477 11 28C11 28.5523 11.4477 29 12 29H20C20.5523 29 21 28.5523 21 28C21 27.4477 20.5523 27 20 27H12Z" fill="#21A19A"/>
</svg>
