<svg width="20" height="20" viewBox="0 0 20 20" fill="none" xmlns="http://www.w3.org/2000/svg">
<path d="M3 3C3 2.44772 3.44772 2 4 2H6C6.55228 2 7 1.55228 7 1C7 0.447715 6.55228 0 6 0H4C2.34315 0 1 1.34315 1 3V17C1 18.6569 2.34315 20 4 20H14C15.6569 20 17 18.6569 17 17V15C17 14.4477 16.5523 14 16 14C15.4477 14 15 14.4477 15 15V17C15 17.5523 14.5523 18 14 18H4C3.44772 18 3 17.5523 3 17V3Z" fill="#107F8C"/>
<path d="M6 13C5.44772 13 5 13.4477 5 14C5 14.5523 5.44772 15 6 15H10C10.5523 15 11 14.5523 11 14C11 13.4477 10.5523 13 10 13H6Z" fill="#107F8C"/>
<path d="M6 9C5.44772 9 5 9.44771 5 10C5 10.5523 5.44772 11 6 11C6.55228 11 7 10.5523 7 10C7 9.44771 6.55228 9 6 9Z" fill="#107F8C"/>
<path fill-rule="evenodd" clip-rule="evenodd" d="M20 6C20 2.68629 17.3137 0 14 0C10.6863 0 8 2.68629 8 6C8 9.31371 10.6863 12 14 12C17.3137 12 20 9.31371 20 6ZM11.0415 7C11.1035 7.7395 11.2332 8.43313 11.4173 9.05458C10.7948 8.52772 10.3355 7.814 10.126 7H11.0415ZM13.0499 7C13.1486 7.96989 13.3836 8.7804 13.6675 9.34821C13.8008 9.61472 13.9151 9.77926 14 9.87925C14.0849 9.77926 14.1992 9.61472 14.3325 9.34821C14.6164 8.7804 14.8514 7.96989 14.9501 7H13.0499ZM14.9501 5H13.0499C13.1486 4.03011 13.3836 3.2196 13.6675 2.65179C13.8008 2.38528 13.9151 2.22073 14 2.12074C14.0849 2.22073 14.1992 2.38528 14.3325 2.65179C14.6164 3.2196 14.8514 4.03011 14.9501 5ZM16.9585 7C16.8965 7.7395 16.7668 8.43313 16.5827 9.05458C17.2052 8.52772 17.6645 7.814 17.874 7H16.9585ZM17.874 5C17.6645 4.186 17.2052 3.47228 16.5827 2.94542C16.7668 3.56687 16.8965 4.2605 16.9585 5H17.874ZM11.0415 5H10.126C10.3355 4.186 10.7948 3.47228 11.4173 2.94542C11.2332 3.56687 11.1035 4.2605 11.0415 5Z" fill="#107F8C"/>
</svg>
