<svg width="32" height="32" viewBox="0 0 32 32" fill="none" xmlns="http://www.w3.org/2000/svg">
<path d="M9.62503 11C9.62503 11.8975 8.89749 12.625 8.00003 12.625C7.10257 12.625 6.37503 11.8975 6.37503 11C6.37503 10.1025 7.10257 9.375 8.00003 9.375C8.89749 9.375 9.62503 10.1025 9.62503 11Z" fill="#21A19A"/>
<path fill-rule="evenodd" clip-rule="evenodd" d="M6.96509 5C6.53177 5 6.14775 5.27908 6.01395 5.69122L6.00903 5.70644L5.99572 5.7477C5.98432 5.78317 5.96805 5.83392 5.94843 5.89565C5.90926 6.01889 5.85637 6.18701 5.80188 6.36529C5.76029 6.50138 5.70969 6.6687 5.66297 6.83417C5.6004 6.8677 5.53903 6.90236 5.47887 6.938C5.29886 6.89276 5.11136 6.84952 4.95892 6.81486C4.77161 6.77228 4.59401 6.73336 4.46355 6.70516C4.3982 6.69103 4.34441 6.67953 4.30681 6.67153L4.26307 6.66225L4.24698 6.65886C3.82935 6.57113 3.40205 6.7581 3.18309 7.1244L2.14816 8.85565C1.91753 9.24145 1.97274 9.73383 2.28298 10.0591L2.2941 10.0707L2.32462 10.1026C2.35088 10.13 2.38848 10.1691 2.43429 10.2166C2.52576 10.3113 2.65069 10.4401 2.78372 10.5751C2.88177 10.6745 3.00086 10.7947 3.1203 10.9114C3.11947 10.9407 3.11903 10.9703 3.11903 11C3.11903 11.0274 3.11931 11.0549 3.11987 11.0826C2.99819 11.2013 2.87652 11.3241 2.77665 11.4254C2.64369 11.5603 2.51887 11.689 2.4275 11.7837C2.38174 11.8311 2.34418 11.8702 2.31796 11.8976L2.28747 11.9295L2.27627 11.9412C1.96615 12.2664 1.9111 12.7586 2.14169 13.1444L3.17662 14.8756C3.39565 15.242 3.82324 15.4289 4.24097 15.341L4.30074 15.3284C4.3384 15.3203 4.39227 15.3088 4.4577 15.2946C4.58833 15.2664 4.76613 15.2274 4.95355 15.1847C5.10527 15.1502 5.29181 15.1072 5.471 15.0622C5.53233 15.0986 5.59463 15.1337 5.65803 15.1675C5.70587 15.3348 5.75773 15.5036 5.80015 15.6403C5.85549 15.8185 5.90921 15.9864 5.94899 16.1095C5.96892 16.1712 5.98544 16.2218 5.99703 16.2573L6.01055 16.2985L6.01556 16.3137C6.1509 16.7233 6.53367 17 6.96509 17H9.03494C9.46816 17 9.85215 16.7209 9.98603 16.3089L9.99092 16.2938L10.0042 16.2526C10.0156 16.2172 10.0319 16.1665 10.0515 16.1049C10.0906 15.9818 10.1435 15.8138 10.198 15.6356C10.2397 15.4992 10.2904 15.3316 10.3372 15.1658C10.3997 15.1322 10.461 15.0976 10.5212 15.062C10.7012 15.1072 10.8887 15.1505 11.0411 15.1851C11.2284 15.2277 11.406 15.2666 11.5365 15.2948C11.6018 15.309 11.6556 15.3205 11.6932 15.3285L11.737 15.3377L11.753 15.3411C12.1707 15.4289 12.598 15.2419 12.8169 14.8756L13.8519 13.1444C14.0814 12.7604 14.0279 12.2706 13.721 11.9451L13.7202 11.9443L13.6799 11.9016C13.6539 11.8742 13.6168 11.8351 13.5715 11.7877C13.4811 11.693 13.3577 11.5643 13.2262 11.4294C13.1257 11.3263 13.0028 11.2009 12.8803 11.0801C12.8807 11.0536 12.881 11.0269 12.881 11C12.881 10.9749 12.8808 10.9499 12.8803 10.9249C13.0153 10.7947 13.1486 10.6596 13.2576 10.5478C13.3869 10.4152 13.5052 10.2911 13.5911 10.2002C13.6341 10.1547 13.6692 10.1173 13.6937 10.0912L13.7222 10.0606L13.733 10.049C14.0353 9.72328 14.0864 9.2371 13.8583 8.85565L12.8234 7.1244C12.6044 6.758 12.1768 6.57106 11.7591 6.65895L11.7431 6.66233L11.6993 6.67163C11.6616 6.67965 11.6078 6.69119 11.5423 6.70535C11.4117 6.73363 11.2339 6.77263 11.0465 6.81527C10.8948 6.84978 10.7082 6.89281 10.529 6.9378C10.4678 6.90147 10.4055 6.86639 10.3421 6.83258C10.2942 6.66496 10.2423 6.49576 10.1997 6.35887C10.1444 6.18071 10.0907 6.01293 10.0509 5.89C10.031 5.82842 10.0145 5.77781 10.0029 5.74243L9.9894 5.70127L9.98438 5.68604C9.84897 5.27654 9.46626 5 9.03494 5H6.96509ZM7.57038 7.43971C7.60697 7.30791 7.65255 7.15371 7.69926 7H8.30458C8.35212 7.15392 8.3985 7.30844 8.43567 7.44061C8.45622 7.51368 8.47263 7.57523 8.48446 7.62337C8.4931 7.6585 8.49699 7.67727 8.49825 7.68336C8.55015 8.03775 8.78765 8.33636 9.12084 8.46777C9.34955 8.55797 9.55891 8.67631 9.76809 8.83031C10.0437 9.03322 10.404 9.08108 10.723 8.95715C10.7293 8.9551 10.7486 8.94905 10.7857 8.93842C10.8354 8.9242 10.8994 8.90713 10.9756 8.88781C11.1239 8.85025 11.3012 8.80849 11.4762 8.76861L11.7508 9.22793C11.5177 9.46452 11.3192 9.65439 11.2398 9.71431C10.9428 9.93841 10.7948 10.3088 10.8556 10.6759C10.872 10.7747 10.881 10.8824 10.881 11C10.881 11.1178 10.872 11.2379 10.8563 11.3643C10.8125 11.717 10.9592 12.0665 11.2417 12.2822C11.2466 12.2864 11.2615 12.2994 11.2894 12.325C11.3267 12.3593 11.3736 12.4041 11.4288 12.4579C11.5241 12.5511 11.6339 12.6617 11.7434 12.7736L11.4697 13.2315C11.2951 13.1918 11.1184 13.1501 10.9704 13.1126C10.8941 13.0933 10.83 13.0762 10.7802 13.0619C10.7425 13.0511 10.7229 13.0447 10.7166 13.0427C10.3988 12.9192 10.0399 12.9664 9.76456 13.1675C9.55695 13.3192 9.34008 13.4432 9.11437 13.5322C8.78118 13.6636 8.54371 13.9632 8.49181 14.3176C8.49055 14.3237 8.48656 14.3422 8.47786 14.3779C8.4661 14.4263 8.44982 14.4881 8.4295 14.5613C8.39297 14.6929 8.34751 14.8467 8.3009 15H7.69558C7.64793 14.8457 7.60145 14.6908 7.56421 14.5585C7.54366 14.4854 7.52725 14.4239 7.51543 14.3758C7.50689 14.3411 7.50302 14.3225 7.50176 14.3164L7.50126 14.3141L7.50175 14.3176C7.44985 13.9632 7.21238 13.6636 6.87919 13.5322C6.65049 13.442 6.44113 13.3237 6.23194 13.1697C5.95631 12.9668 5.59605 12.9189 5.277 13.0429C5.27074 13.0449 5.25153 13.0509 5.21434 13.0616C5.16465 13.0758 5.10062 13.0929 5.02438 13.1122C4.87614 13.1497 4.69884 13.1915 4.52383 13.2314L4.25241 12.7773C4.36305 12.6655 4.47403 12.555 4.57044 12.4619C4.62619 12.408 4.67375 12.3632 4.71152 12.3289C4.74004 12.303 4.7555 12.2899 4.76043 12.2858C5.05737 12.0617 5.20518 11.6912 5.14441 11.3241C5.1282 11.2262 5.11903 11.1124 5.11903 11C5.11903 10.9118 5.13006 10.8016 5.15088 10.6759C5.21165 10.3088 5.06366 9.93841 4.76671 9.71431C4.76177 9.71012 4.74675 9.69717 4.71854 9.67154C4.68083 9.63728 4.63331 9.59249 4.57756 9.53863C4.48103 9.44538 4.36981 9.3346 4.25893 9.22256L4.53038 8.76847C4.70489 8.80822 4.88167 8.84985 5.02967 8.88737C5.10591 8.90669 5.17001 8.92379 5.21982 8.93806C5.25757 8.94888 5.27717 8.95527 5.28341 8.9573C5.60125 9.08077 5.96015 9.03361 6.23547 8.83246C6.44308 8.68079 6.65995 8.55678 6.88566 8.46777C7.21885 8.33636 7.45632 8.03679 7.50822 7.68241C7.50949 7.67624 7.51343 7.65819 7.52203 7.62291C7.53378 7.57464 7.55006 7.51292 7.57038 7.43971Z" fill="#21A19A"/>
<path fill-rule="evenodd" clip-rule="evenodd" d="M16.4499 17.7354C15.8976 17.7354 15.4499 18.1831 15.4499 18.7354C15.4499 19.2876 15.8976 19.7354 16.4499 19.7354H18.9873L18.99 21.4978C18.9904 21.7742 18.7665 21.9986 18.49 21.9986H13.8217C13.4099 20.8333 12.2986 19.9984 10.9923 19.9984C9.68606 19.9984 8.57478 20.8333 8.16299 21.9986H7.49234C7.2162 21.9986 6.99234 21.7747 6.99234 21.4986V18.9782C6.99234 18.426 6.54462 17.9782 5.99234 17.9782C5.44006 17.9782 4.99234 18.426 4.99234 18.9782V21.9986C4.99234 23.1031 5.88777 23.9986 6.99234 23.9986H8.1631C8.57498 25.1637 9.68618 25.9984 10.9923 25.9984C12.2985 25.9984 13.4097 25.1637 13.8216 23.9986H19.1626C19.5745 25.1637 20.6857 25.9984 21.9919 25.9984C23.2948 25.9984 24.4037 25.1678 24.818 24.0072H26.0077C27.6675 24.0072 29.0118 22.6595 29.0077 20.9998L28.9965 16.4971C28.9903 14.0114 26.9735 11.9996 24.4878 11.9996H20.8767C20.4132 9.71729 18.3953 8.00011 15.9769 8.00011L15.9571 8C15.4048 8 14.9571 8.44772 14.9571 9C14.9571 9.55228 15.4048 10 15.9571 10L15.9769 10.0001C17.6319 10.0001 18.9743 11.3404 18.9769 12.9955L18.9842 17.7354H16.4499ZM26.0077 22.0072H24.8243C24.4149 20.8374 23.3014 19.9984 21.9919 19.9984C21.6398 19.9984 21.3018 20.0591 20.988 20.1705L20.9846 17.9996H27.0002L27.0077 21.0047C27.0091 21.558 26.561 22.0072 26.0077 22.0072ZM24.4878 13.9996C25.6988 13.9996 26.7097 14.8577 26.9449 15.9996H20.9815L20.9784 13.9996H24.4878ZM21.9919 23.9984C21.447 23.9984 21.004 23.5627 20.9921 23.0207L20.9923 22.997L20.9923 22.9683C21.0082 22.43 21.4496 21.9984 21.9919 21.9984C22.5441 21.9984 22.9919 22.4461 22.9919 22.9984C22.9919 23.5507 22.5441 23.9984 21.9919 23.9984ZM9.99234 22.9984C9.99234 22.4461 10.4401 21.9984 10.9923 21.9984C11.5446 21.9984 11.9923 22.4461 11.9923 22.9984C11.9923 23.5507 11.5446 23.9984 10.9923 23.9984C10.4401 23.9984 9.99234 23.5507 9.99234 22.9984Z" fill="#21A19A"/>
</svg>
