<svg width="32" height="32" viewBox="0 0 32 32" fill="none" xmlns="http://www.w3.org/2000/svg">
<path fill-rule="evenodd" clip-rule="evenodd" d="M13 5C10.2386 5 8 7.23858 8 10C8 12.7614 10.2386 15 13 15C15.7614 15 18 12.7614 18 10C18 7.23858 15.7614 5 13 5ZM10 10C10 8.34315 11.3431 7 13 7C14.6569 7 16 8.34315 16 10C16 11.6569 14.6569 13 13 13C11.3431 13 10 11.6569 10 10Z" fill="#B2B8BF"/>
<path d="M12.9155 18.6344C11.2336 18.6344 9.59799 18.0647 8.30338 17.0191C6.83147 18.2826 6 20.0735 6 21.9368C6 22.2838 6.03082 22.6414 6.09186 23H12.9155C13.4678 23 13.9155 23.4477 13.9155 24C13.9155 24.5523 13.4678 25 12.9155 25H6.01631C5.12926 25 4.31607 24.3876 4.14474 23.473C4.04967 22.9636 4 22.4464 4 21.9368C4 19.4456 5.12365 17.0842 7.0598 15.4512L7.06126 15.45C7.76898 14.8554 8.81023 14.85 9.52432 15.4341L9.5262 15.4356C10.4628 16.2054 11.6665 16.6344 12.9155 16.6344C14.189 16.6344 15.4105 16.1901 16.3555 15.3935C16.7778 15.0375 17.4086 15.0913 17.7646 15.5136C18.1205 15.9358 18.0668 16.5667 17.6445 16.9227C16.3317 18.0294 14.6512 18.6344 12.9155 18.6344Z" fill="#B2B8BF"/>
<path d="M28.7809 20.1253C29.1259 20.5566 29.0559 21.1859 28.6247 21.5309L23.6247 25.5309C23.2635 25.8199 22.7512 25.8234 22.386 25.5394L20.386 23.9838C19.9501 23.6447 19.8716 23.0165 20.2106 22.5805C20.5497 22.1446 21.178 22.066 21.6139 22.4051L22.9913 23.4764L27.3753 19.9691C27.8066 19.6241 28.4358 19.694 28.7809 20.1253Z" fill="#B2B8BF"/>
<path d="M18.5 24C18.5 21.5147 20.5147 19.5 23 19.5C23.5791 19.5 24.1304 19.6089 24.6362 19.8064C25.1507 20.0073 25.7306 19.7532 25.9315 19.2387C26.1324 18.7243 25.8782 18.1444 25.3638 17.9435C24.6298 17.6568 23.832 17.5 23 17.5C19.4101 17.5 16.5 20.4101 16.5 24C16.5 27.5899 19.4101 30.5 23 30.5C26.4263 30.5 29.2327 27.8496 29.482 24.4864C29.5229 23.9357 29.1095 23.4561 28.5587 23.4152C28.0079 23.3744 27.5283 23.7878 27.4875 24.3386C27.315 26.6652 25.3713 28.5 23 28.5C20.5147 28.5 18.5 26.4853 18.5 24Z" fill="#B2B8BF"/>
</svg>
