<svg width="32" height="32" viewBox="0 0 32 32" fill="none" xmlns="http://www.w3.org/2000/svg">
<path fill-rule="evenodd" clip-rule="evenodd" d="M20 7.5C20 5.01472 22.0147 3 24.5 3C25.0791 3 25.6304 3.1089 26.1362 3.30643C26.6507 3.50733 27.2306 3.25316 27.4315 2.73871C27.6324 2.22427 27.3782 1.64436 26.8638 1.44345C26.1298 1.15683 25.332 1 24.5 1C20.9101 1 18 3.91015 18 7.5C18 11.0899 20.9101 14 24.5 14C27.9263 14 30.7327 11.3496 30.982 7.98644C31.0229 7.43567 30.6095 6.95608 30.0587 6.91524C29.5079 6.8744 29.0283 7.28779 28.9875 7.83856C28.815 10.1652 26.8713 12 24.5 12C22.0147 12 20 9.98528 20 7.5ZM30.1247 5.03091C30.556 4.6859 30.6259 4.0566 30.2809 3.62534C29.9359 3.19408 29.3066 3.12416 28.8753 3.46917L24.4913 6.97639L23.1139 5.90513C22.678 5.56606 22.0497 5.64459 21.7106 6.08054C21.3716 6.51649 21.4501 7.14476 21.8861 7.48383L23.8861 9.03939C24.2512 9.32339 24.7635 9.31988 25.1247 9.03091L30.1247 5.03091ZM1 8C1 7.44772 1.44772 7 2 7H3.54059C5.44731 7 7.08897 8.34584 7.46291 10.2155L7.8198 12L15.9999 12C16.5522 12 16.9999 12.4477 16.9999 13C16.9999 13.5523 16.5522 14 15.9999 14L8.2198 14L9.8198 22H22.2192L23.5299 16.7575C23.6638 16.2217 24.2067 15.8959 24.7425 16.0299C25.2783 16.1638 25.6041 16.7067 25.4701 17.2425L23.9701 23.2425C23.8589 23.6877 23.4589 24 23 24H9C8.52332 24 8.1129 23.6635 8.01942 23.1961L6.02451 13.2216C6.02086 13.2054 6.01759 13.1891 6.01473 13.1727L5.50175 10.6078C5.31478 9.67292 4.49395 9 3.54059 9H2C1.44772 9 1 8.55228 1 8ZM23 28C23 29.1046 22.1046 30 21 30C19.8954 30 19 29.1046 19 28C19 26.8954 19.8954 26 21 26C22.1046 26 23 26.8954 23 28ZM11 30C12.1046 30 13 29.1046 13 28C13 26.8954 12.1046 26 11 26C9.89543 26 9 26.8954 9 28C9 29.1046 9.89543 30 11 30Z" fill="#B2B8BF"/>
</svg>
