<svg width="32" height="32" viewBox="0 0 32 32" fill="none" xmlns="http://www.w3.org/2000/svg">
<path fill-rule="evenodd" clip-rule="evenodd" d="M27.848 7.47001C28.1407 7.93835 27.9983 8.5553 27.53 8.84801L19.53 13.848C19.1351 14.0948 18.6222 14.0364 18.2929 13.7071L14.5927 10.0069L11.9778 22.2095C11.8833 22.6504 11.5055 22.9735 11.0553 22.9985C10.6051 23.0234 10.1939 22.744 10.0513 22.3162L7.05018 13.3128L6.45783 15.2874C6.33093 15.7103 5.94161 16 5.5 16H3C2.44772 16 2 15.5523 2 15C2 14.4477 2.44772 14 3 14H4.75597L6.04217 9.71266C6.16746 9.29504 6.54889 9.00673 6.98485 9.00013C7.42082 8.99352 7.8108 9.27015 7.94868 9.68378L10.79 18.2076L13.0222 7.79048C13.099 7.43228 13.3654 7.14471 13.7168 7.04096C14.0681 6.9372 14.4481 7.03386 14.7071 7.29291L19.1446 11.7304L26.47 7.15201C26.9383 6.8593 27.5553 7.00168 27.848 7.47001Z" fill="#107F8C"/>
<path fill-rule="evenodd" clip-rule="evenodd" d="M21.499 18C18.4655 18 15.999 20.4663 15.999 23.4999C15.999 26.5337 18.4655 29 21.499 29C22.9106 29 24.1994 28.466 25.174 27.5892L27.2919 29.7071C27.6824 30.0976 28.3156 30.0976 28.7061 29.7071C29.0967 29.3166 29.0967 28.6834 28.7061 28.2929L26.4029 25.9897C26.784 25.2418 26.999 24.3956 26.999 23.4999C26.999 20.4663 24.5325 18 21.499 18ZM17.999 23.4999C17.999 21.5709 19.57 20 21.499 20C23.428 20 24.999 21.5709 24.999 23.4999C24.999 25.4291 23.428 27 21.499 27C19.5701 27 17.999 25.4291 17.999 23.4999Z" fill="#107F8C"/>
</svg>
