<svg width="20" height="20" viewBox="0 0 20 20" fill="none" xmlns="http://www.w3.org/2000/svg">
<path fill-rule="evenodd" clip-rule="evenodd" d="M10 0.600098C8.34315 0.600098 7 1.94324 7 3.6001C7 5.25695 8.34315 6.6001 10 6.6001C11.6569 6.6001 13 5.25695 13 3.6001C13 1.94324 11.6569 0.600098 10 0.600098ZM9 3.6001C9 3.04781 9.44772 2.6001 10 2.6001C10.5523 2.6001 11 3.04781 11 3.6001C11 4.15238 10.5523 4.6001 10 4.6001C9.44772 4.6001 9 4.15238 9 3.6001Z" fill="#107F8C"/>
<path fill-rule="evenodd" clip-rule="evenodd" d="M3.59998 11.6001C1.94312 11.6001 0.599976 12.9432 0.599976 14.6001C0.599976 16.257 1.94312 17.6001 3.59998 17.6001C5.25683 17.6001 6.59998 16.257 6.59998 14.6001C6.59998 12.9432 5.25683 11.6001 3.59998 11.6001ZM2.59998 14.6001C2.59998 14.0478 3.04769 13.6001 3.59998 13.6001C4.15226 13.6001 4.59998 14.0478 4.59998 14.6001C4.59998 15.1524 4.15226 15.6001 3.59998 15.6001C3.04769 15.6001 2.59998 15.1524 2.59998 14.6001Z" fill="#107F8C"/>
<path fill-rule="evenodd" clip-rule="evenodd" d="M13.4 14.6001C13.4 12.9432 14.7432 11.6001 16.4 11.6001C18.0569 11.6001 19.4 12.9432 19.4 14.6001C19.4 16.257 18.0569 17.6001 16.4 17.6001C14.7432 17.6001 13.4 16.257 13.4 14.6001ZM16.4 13.6001C15.8477 13.6001 15.4 14.0478 15.4 14.6001C15.4 15.1524 15.8477 15.6001 16.4 15.6001C16.9523 15.6001 17.4 15.1524 17.4 14.6001C17.4 14.0478 16.9523 13.6001 16.4 13.6001Z" fill="#107F8C"/>
<path d="M5.66694 6.15481C6.07846 5.78649 6.11349 5.15429 5.74516 4.74277C5.37684 4.33124 4.74464 4.29622 4.33311 4.66454C2.99782 5.85965 2.04112 7.47285 1.67002 9.30103C1.56016 9.84227 1.90986 10.3701 2.4511 10.48C2.99235 10.5898 3.52018 10.2401 3.63005 9.69889C3.913 8.30497 4.64316 7.07111 5.66694 6.15481Z" fill="#107F8C"/>
<path d="M15.6669 4.66454C15.2554 4.29622 14.6232 4.33124 14.2549 4.74277C13.8865 5.15429 13.9216 5.78649 14.3331 6.15481C15.3569 7.07111 16.087 8.30497 16.37 9.69889C16.4798 10.2401 17.0077 10.5898 17.5489 10.48C18.0902 10.3701 18.4399 9.84227 18.33 9.30103C17.9589 7.47285 17.0022 5.85965 15.6669 4.66454Z" fill="#107F8C"/>
<path d="M7.95169 17.1709C7.4275 16.997 6.86159 17.281 6.6877 17.8052C6.5138 18.3294 6.79778 18.8953 7.32197 19.0692C8.16522 19.3489 9.06598 19.5 10 19.5C10.934 19.5 11.8348 19.3489 12.678 19.0692C13.2022 18.8953 13.4862 18.3294 13.3123 17.8052C13.1384 17.281 12.5725 16.997 12.0483 17.1709C11.4056 17.3841 10.7174 17.5 10 17.5C9.28267 17.5 8.59439 17.3841 7.95169 17.1709Z" fill="#107F8C"/>
</svg>
