<svg width="32" height="32" viewBox="0 0 32 32" fill="none" xmlns="http://www.w3.org/2000/svg">
<path d="M17.2331 11.214C17.6973 10.9039 18.3425 11.0045 18.6741 11.4386L21.7296 15.4386C21.9862 15.7744 21.9862 16.2256 21.7296 16.5614L18.6741 20.5614C18.3425 20.9955 17.6973 21.096 17.2331 20.786C16.7689 20.4759 16.6613 19.8727 16.9929 19.4386L18.8557 17H12.3335C11.7812 17 11.3335 16.5523 11.3335 16C11.3335 15.4477 11.7812 15 12.3335 15H18.8557L16.9929 12.5614C16.6613 12.1273 16.7689 11.5241 17.2331 11.214Z" fill="#107F8C"/>
<path fill-rule="evenodd" clip-rule="evenodd" d="M4 11C4 8.79086 5.79086 7 8 7H24C26.2091 7 28 8.79086 28 11V21C28 23.2091 26.2091 25 24 25H8C5.79086 25 4 23.2091 4 21V11ZM8 9C6.89543 9 6 9.89543 6 11V21C6 22.1046 6.89543 23 8 23H24C25.1046 23 26 22.1046 26 21V11C26 9.89543 25.1046 9 24 9H8Z" fill="#107F8C"/>
</svg>
