<svg width="20" height="20" viewBox="0 0 20 20" fill="none" xmlns="http://www.w3.org/2000/svg">
<g clip-path="url(#clip0_49437_4893)">
<path fill-rule="evenodd" clip-rule="evenodd" d="M3.71212 0C2.90471 0 2.1765 0.485476 1.86596 1.23077L0.194249 5.24288C0.0592379 5.56691 -0.0523607 6.07337 0.174139 6.5965C0.642149 7.67745 1.86528 8.54545 3.86363 8.54545C5.11364 8.54545 5.95722 8.25367 6.57379 7.82515C6.74675 7.70494 6.9348 7.71019 7.05091 7.77467C7.767 8.1723 8.78618 8.54545 9.99999 8.54545C11.2138 8.54545 12.233 8.1723 12.9491 7.77467C13.0652 7.71019 13.2532 7.70494 13.4262 7.82515C14.0428 8.25367 14.8864 8.54545 16.1364 8.54545C18.1347 8.54545 19.3578 7.67745 19.8258 6.5965C20.0523 6.07337 19.9408 5.56691 19.8057 5.24288L18.134 1.23077C17.8235 0.485475 17.0953 0 16.2879 0H3.71212ZM3.71212 2L16.2879 2L17.9219 5.92175C17.7553 6.15856 17.2987 6.54545 16.1364 6.54545C15.2186 6.54545 14.7918 6.33867 14.5676 6.18285C13.8336 5.67267 12.8277 5.5544 11.9782 6.02615C11.4903 6.29703 10.8032 6.54545 9.99999 6.54545C9.19676 6.54545 8.50967 6.29703 8.02183 6.02615C7.17226 5.5544 6.16643 5.67267 5.43237 6.18285C5.20817 6.33867 4.78141 6.54545 3.86363 6.54545C2.7013 6.54545 2.24469 6.15856 2.07806 5.92175L3.71212 2Z" fill="#107F8C"/>
<path d="M3.22726 10.8184C3.22726 10.2661 2.77955 9.81836 2.22726 9.81836C1.67498 9.81836 1.22726 10.2661 1.22726 10.8184V18.0002C1.22726 19.1047 2.1227 20.0002 3.22726 20.0002H6.95454C8.05911 20.0002 8.95454 19.1047 8.95454 18.0002V13.4547L11.0454 13.4547L11.0454 18.0002C11.0454 19.1047 11.9409 20.0002 13.0454 20.0002H16.7727C17.8773 20.0002 18.7727 19.1047 18.7727 18.0002V10.8184C18.7727 10.2661 18.325 9.81836 17.7727 9.81836C17.2204 9.81836 16.7727 10.2661 16.7727 10.8184V18.0002H13.0454V13.4547C13.0454 12.3502 12.15 11.4547 11.0454 11.4547H8.95454C7.84997 11.4547 6.95454 12.3502 6.95454 13.4547V18.0002L3.22726 18.0002V10.8184Z" fill="#107F8C"/>
</g>
<defs>
<clipPath id="clip0_49437_4893">
<rect width="20" height="20" fill="white"/>
</clipPath>
</defs>
</svg>
