<svg width="32" height="32" viewBox="0 0 32 32" fill="none" xmlns="http://www.w3.org/2000/svg">
<path fill-rule="evenodd" clip-rule="evenodd" d="M23 6C24.6569 6 26 7.34315 26 9V23C26 24.6569 24.6569 26 23 26H9C7.34315 26 6 24.6569 6 23C6 22.4477 6.44772 22 7 22C7.51768 22 7.94379 22.3933 7.99512 22.8975L8.00488 23.1025C8.05621 23.6067 8.48232 24 9 24H23C23.5523 24 24 23.5523 24 23V13H19V15C19 16.1046 18.1046 17 17 17H15C13.8954 17 13 16.1046 13 15V13H8V14C8 14.5523 7.55228 15 7 15C6.44772 15 6 14.5523 6 14V9C6 7.34315 7.34315 6 9 6H23ZM15 15H17V13H15V15ZM9 8C8.44772 8 8 8.44772 8 9V11H24V9C24 8.44772 23.5523 8 23 8H9Z" fill="#B2B8BF"/>
<path d="M9 19C9.55228 19 10 19.4477 10 20C10 20.5523 9.55228 21 9 21H6C5.44772 21 5 20.5523 5 20C5 19.4477 5.44772 19 6 19H9Z" fill="#B2B8BF"/>
<path d="M8 16C8.55228 16 9 16.4477 9 17C9 17.5523 8.55228 18 8 18H3C2.44772 18 2 17.5523 2 17C2 16.4477 2.44772 16 3 16H8Z" fill="#B2B8BF"/>
</svg>
