<svg width="32" height="32" viewBox="0 0 32 32" fill="none" xmlns="http://www.w3.org/2000/svg">
<path d="M15.9998 4.99902C12.1396 4.99902 8.74264 6.98598 6.77858 9.99656H10C10.5523 9.99656 11 10.4441 11 10.9961C11 11.5481 10.5523 11.9956 10 11.9956H5C4.44772 11.9956 4 11.5481 4 10.9961V5.99853C4 5.44651 4.44772 4.99902 5 4.99902C5.55228 4.99902 6 5.44651 6 5.99853V7.69049C8.38367 4.82577 11.978 3 15.9998 3C21.2479 3 25.7676 6.10826 27.8206 10.5791C28.0509 11.0808 27.8308 11.6742 27.3288 11.9045C26.8269 12.1347 26.2332 11.9147 26.0029 11.413C24.2638 7.62582 20.4377 4.99902 15.9998 4.99902Z" fill="#21A19A"/>
<path d="M4.67076 20.0828C5.1727 19.8525 5.76636 20.0725 5.99674 20.5742C7.09438 22.9646 9.02554 24.8948 11.4171 25.9918C11.9191 26.2221 12.1392 26.8155 11.9089 27.3172C11.6785 27.8189 11.0848 28.0389 10.5829 27.8087C7.75639 26.5121 5.4763 24.2332 4.17904 21.4081C3.94867 20.9064 4.16882 20.313 4.67076 20.0828Z" fill="#21A19A"/>
<path d="M20.553 11.6013C20.8345 11.4606 21.1659 11.4606 21.4474 11.6013L27.4474 14.5999C27.9414 14.8467 28.1416 15.4471 27.8946 15.9408C27.6477 16.4346 27.047 16.6347 26.553 16.3878L21.0002 13.6128L15.4474 16.3878C14.9535 16.6347 14.3528 16.4346 14.1058 15.9408C13.8588 15.4471 14.059 14.8467 14.553 14.5999L20.553 11.6013Z" fill="#21A19A"/>
<path d="M14 25.9889C14 25.4369 14.4477 24.9894 15 24.9894H27C27.5523 24.9894 28 25.4369 28 25.9889C28 26.5409 27.5523 26.9884 27 26.9884H15C14.4477 26.9884 14 26.5409 14 25.9889Z" fill="#21A19A"/>
<path d="M21 16.9934C21.5523 16.9934 22 17.4409 22 17.9929V22.9904C22 23.5424 21.5523 23.9899 21 23.9899C20.4477 23.9899 20 23.5424 20 22.9904V17.9929C20 17.4409 20.4477 16.9934 21 16.9934Z" fill="#21A19A"/>
<path d="M17 16.9934C17.5523 16.9934 18 17.4409 18 17.9929V22.9904C18 23.5424 17.5523 23.9899 17 23.9899C16.4477 23.9899 16 23.5424 16 22.9904V17.9929C16 17.4409 16.4477 16.9934 17 16.9934Z" fill="#21A19A"/>
<path d="M25 16.9934C25.5523 16.9934 26 17.4409 26 17.9929V22.9904C26 23.5424 25.5523 23.9899 25 23.9899C24.4477 23.9899 24 23.5424 24 22.9904V17.9929C24 17.4409 24.4477 16.9934 25 16.9934Z" fill="#21A19A"/>
</svg>
