<svg width="32" height="32" viewBox="0 0 32 32" fill="none" xmlns="http://www.w3.org/2000/svg">
<path d="M7.048 6.69379C7.15058 6.37615 7.40982 6.11701 7.7575 6.03009L14.0766 4.45033C14.3154 3.61312 15.0862 3.00017 16 3.00017C16.5644 3.00017 17.0742 3.23397 17.4379 3.61L23.7575 2.03009C24.2682 1.90242 24.7853 2.19238 24.9487 2.68376L27.9487 11.6838C28.1234 12.2077 27.8402 12.774 27.3163 12.9487C26.7923 13.1233 26.226 12.8402 26.0513 12.3162L24 6.16227L21.9487 12.3162C21.7741 12.8402 21.2077 13.1233 20.6838 12.9487C20.1599 12.774 19.8767 12.2077 20.0513 11.6838L22.4752 4.41222L17.9235 5.55016C17.6845 6.38729 16.9139 7.00017 16 7.00017C15.4357 7.00017 14.9259 6.76642 14.5623 6.39045L9.29027 7.70845L11.9487 15.6838C12.1234 16.2077 11.8402 16.774 11.3163 16.9487C10.7923 17.1233 10.226 16.8402 10.0513 16.3162L8.00003 10.1623L5.94871 16.3162C5.77406 16.8402 5.20774 17.1233 4.6838 16.9487C4.15986 16.774 3.8767 16.2077 4.05134 15.6838L7.048 6.69379Z" fill="#21A19A"/>
<path d="M16 9.00017C16.5523 9.00017 17 9.44788 17 10.0002L17 26.0002H23.3334C23.8856 26.0002 24.3334 26.4479 24.3334 27.0002C24.3334 27.5525 23.8856 28.0002 23.3334 28.0002H8.00003C7.44775 28.0002 7.00003 27.5525 7.00003 27.0002C7.00003 26.4479 7.44775 26.0002 8.00003 26.0002H15L15 10.0002C15 9.44788 15.4477 9.00017 16 9.00017Z" fill="#21A19A"/>
<path d="M20.7807 15.3753C20.4356 14.9441 19.8062 14.8744 19.3751 15.2195C18.9439 15.5647 18.8742 16.194 19.2194 16.6251C20.3687 18.0609 22.0719 19.0002 24 19.0002C25.9282 19.0002 27.6314 18.0609 28.7807 16.6251C29.1259 16.194 29.0561 15.5647 28.625 15.2195C28.1938 14.8744 27.5645 14.9441 27.2194 15.3753C26.4034 16.3945 25.2506 17.0002 24 17.0002C22.7495 17.0002 21.5967 16.3945 20.7807 15.3753Z" fill="#21A19A"/>
<path d="M4.78071 19.3753C4.43556 18.9441 3.80625 18.8744 3.37509 19.2195C2.94394 19.5647 2.87422 20.194 3.21937 20.6251C4.36869 22.0609 6.07187 23.0002 8.00004 23.0002C9.9282 23.0002 11.6314 22.0609 12.7807 20.6251C13.1259 20.194 13.0561 19.5647 12.625 19.2195C12.1938 18.8744 11.5645 18.9441 11.2194 19.3753C10.4034 20.3945 9.25061 21.0002 8.00004 21.0002C6.74946 21.0002 5.59666 20.3945 4.78071 19.3753Z" fill="#21A19A"/>
</svg>
