<svg width="20" height="20" viewBox="0 0 20 20" fill="none" xmlns="http://www.w3.org/2000/svg">
<path d="M7.34432 0.0611605C7.12199 -0.0203868 6.87794 -0.0203868 6.65561 0.0611605L0.655612 2.26189C0.137105 2.45207 -0.129055 3.02658 0.0611273 3.54508C0.251309 4.06359 0.825815 4.32975 1.34432 4.13957L6.99997 2.06514L12.6556 4.13957C13.1741 4.32975 13.7486 4.06359 13.9388 3.54508C14.129 3.02658 13.8628 2.45207 13.3443 2.26189L7.34432 0.0611605Z" fill="#21A19A"/>
<path d="M1.03012 12C0.477836 12 0.0301209 12.4477 0.0301209 13C0.0301209 13.5523 0.477836 14 1.03012 14H8.53012C9.08241 14 9.53012 13.5523 9.53012 13C9.53012 12.4477 9.08241 12 8.53012 12H1.03012Z" fill="#21A19A"/>
<path d="M7.03012 5C7.58241 5 8.03012 5.44772 8.03012 6V9.73044C8.03012 10.2827 7.58241 10.7304 7.03012 10.7304C6.47784 10.7304 6.03012 10.2827 6.03012 9.73044V6C6.03012 5.44772 6.47784 5 7.03012 5Z" fill="#21A19A"/>
<path d="M4.03012 6C4.03012 5.44772 3.58241 5 3.03012 5C2.47784 5 2.03012 5.44772 2.03012 6V9.73044C2.03012 10.2827 2.47784 10.7304 3.03012 10.7304C3.58241 10.7304 4.03012 10.2827 4.03012 9.73044V6Z" fill="#21A19A"/>
<path fill-rule="evenodd" clip-rule="evenodd" d="M13 8C13 7.44772 13.4477 7 14 7H16.478C17.8156 7 18.7706 7.49663 19.3503 8.29875C19.8877 9.04251 20 9.90961 20 10.5V10.6674C20 11.3229 19.8163 12.1538 19.2441 12.8398C18.6433 13.5601 17.7143 14 16.478 14H15.0302V15H16.1552C16.7074 15 17.1552 15.4477 17.1552 16C17.1552 16.5523 16.7074 17 16.1552 17H15.0302V18C15.0302 18.5523 14.5824 19 14.0302 19C13.4779 19 13.0302 18.5523 13.0302 18V17H12.1552C11.6029 17 11.1552 16.5523 11.1552 16C11.1552 15.4477 11.6029 15 12.1552 15H13.0302V14H12.16C11.6077 14 11.16 13.5523 11.16 13C11.16 12.4477 11.6077 12 12.16 12H13.0302V8.24468C13.0105 8.16638 13 8.08441 13 8ZM15.0302 12V9H16.478C17.2757 9 17.5817 9.26598 17.7292 9.47017C17.9189 9.73271 18 10.1156 18 10.5V10.6674C18 10.9866 17.9057 11.322 17.7083 11.5587C17.5395 11.761 17.2076 12 16.478 12H15.0302Z" fill="#21A19A"/>
</svg>
