<svg width="20" height="20" viewBox="0 0 20 20" fill="none" xmlns="http://www.w3.org/2000/svg">
<path d="M9.5 2C5.35786 2 2 5.35786 2 9.5C2 13.3429 4.89112 16.512 8.6164 16.9486C9.16493 17.0129 9.55749 17.5097 9.4932 18.0582C9.42892 18.6067 8.93213 18.9993 8.3836 18.935C3.66254 18.3817 0 14.3693 0 9.5C0 4.25329 4.25329 0 9.5 0C11.1161 0 12.6407 0.404353 13.9752 1.11823C14.4622 1.37873 14.6458 1.98469 14.3853 2.47168C14.1248 2.95867 13.5189 3.14227 13.0319 2.88177C11.9804 2.31932 10.779 2 9.5 2Z" fill="#B2B8BF"/>
<path d="M17.8254 7.5068C18.3739 7.44251 18.8707 7.83507 18.935 8.3836C18.978 8.75014 19 9.12271 19 9.5C19 9.68717 18.9946 9.8732 18.9839 10.0579C18.9519 10.6093 18.479 11.0303 17.9276 10.9983C17.3763 10.9663 16.9552 10.4934 16.9872 9.94209C16.9957 9.79592 17 9.64852 17 9.5C17 9.20067 16.9825 8.90584 16.9486 8.6164C16.8843 8.06787 17.2769 7.57108 17.8254 7.5068Z" fill="#B2B8BF"/>
<path d="M13 13C13 12.4477 12.5523 12 12 12C11.4477 12 11 12.4477 11 13V19C11 19.5523 11.4477 20 12 20C12.5523 20 13 19.5523 13 19V13Z" fill="#B2B8BF"/>
<path fill-rule="evenodd" clip-rule="evenodd" d="M14.8535 19.9522L15 18.963C14.8535 19.9522 14.853 19.9521 14.8535 19.9522L14.8553 19.9524L14.8576 19.9528L14.8632 19.9536L14.8788 19.9557C14.8912 19.9574 14.9074 19.9595 14.9272 19.9618C14.9668 19.9665 15.0209 19.9723 15.0875 19.9779C15.2204 19.9892 15.4051 20 15.625 20C16.0579 20 16.6612 19.9582 17.2841 19.7736C17.9083 19.5887 18.6017 19.245 19.1393 18.6078C19.6885 17.9569 20 17.0883 20 16C20 14.9117 19.6885 14.0431 19.1393 13.3922C18.6017 12.755 17.9083 12.4113 17.2841 12.2264C16.6612 12.0418 16.0579 12 15.625 12C15.4051 12 15.2204 12.0108 15.0875 12.0221C15.0209 12.0277 14.9668 12.0335 14.9272 12.0382C14.9074 12.0405 14.8912 12.0426 14.8788 12.0443L14.8632 12.0464L14.8576 12.0472L14.8553 12.0476C14.8549 12.0476 14.8535 12.0478 15 13.037L14.8535 12.0478C14.3631 12.1205 14 12.5414 14 13.037V18.963C14 19.4586 14.3631 19.8795 14.8535 19.9522ZM16.7159 14.144C16.4767 14.0731 16.2296 14.0342 16 14.0152V17.9848C16.2296 17.9658 16.4767 17.9269 16.7159 17.856C17.0917 17.7447 17.3983 17.5698 17.6107 17.3181C17.8115 17.0802 18 16.6894 18 16C18 15.3106 17.8115 14.9198 17.6107 14.6819C17.3983 14.4302 17.0917 14.2553 16.7159 14.144Z" fill="#B2B8BF"/>
<path d="M17.1178 5.78636C17.5521 5.44515 17.6275 4.81649 17.2863 4.38222C16.9451 3.94795 16.3164 3.87251 15.8822 4.21372L9.47142 9.25074L6.58122 7.18631C6.13181 6.8653 5.50726 6.96939 5.18625 7.4188C4.86524 7.86822 4.96934 8.49277 5.41875 8.81378L8.91875 11.3138C9.28017 11.5719 9.76856 11.5608 10.1178 11.2864L17.1178 5.78636Z" fill="#B2B8BF"/>
</svg>
