<svg width="20" height="20" viewBox="0 0 20 20" fill="none" xmlns="http://www.w3.org/2000/svg">
<path d="M8.66045 7.07445C7.04411 6.71027 5.43859 7.72535 5.07442 9.34169C4.71024 10.958 5.72532 12.5635 7.34166 12.9277C8.95799 13.2919 10.5635 12.2768 10.9277 10.6605C11.0491 10.1217 11.5843 9.78334 12.123 9.90473C12.6618 10.0261 13.0002 10.5613 12.8788 11.1001C12.2718 13.794 9.59595 15.4858 6.90206 14.8788C4.20817 14.2719 2.51637 11.596 3.12333 8.90209C3.73029 6.2082 6.40615 4.5164 9.10005 5.12336C9.63883 5.24475 9.97719 5.77992 9.85579 6.3187C9.7344 6.85748 9.19923 7.19584 8.66045 7.07445Z" fill="#21A19A"/>
<path d="M11.7697 7.36077C12.1233 7.78504 12.066 8.41561 11.6417 8.76917L8.64168 11.2692C8.24436 11.6003 7.66011 11.5738 7.29439 11.2081L6.29439 10.2081C5.90387 9.81753 5.90387 9.18437 6.29439 8.79385C6.68491 8.40332 7.31808 8.40332 7.7086 8.79385L8.06286 9.14811L10.3613 7.23273C10.7856 6.87917 11.4162 6.93649 11.7697 7.36077Z" fill="#21A19A"/>
<path fill-rule="evenodd" clip-rule="evenodd" d="M19.4244 2.59259L16 8.99995L19.7834 16.1465C20.1211 16.7844 19.6925 17.559 18.9726 17.6117L1.07293 18.9214C0.49346 18.9638 -3.14784e-05 18.5051 -4.19542e-05 17.9241L-0.000305176 3.32501C-0.000314654 2.79929 0.406748 2.36333 0.931237 2.32734L18.474 1.12358C19.2579 1.06979 19.7947 1.89958 19.4244 2.59259ZM16.8093 3.24251L13.7346 8.99551L17.2993 15.7288L1.99994 16.8483L1.99971 4.25872L16.8093 3.24251Z" fill="#21A19A"/>
</svg>
