<svg width="32" height="32" viewBox="0 0 32 32" fill="none" xmlns="http://www.w3.org/2000/svg">
<path d="M12 3C12.5523 3 13 3.44772 13 4V6H19V4C19 3.44772 19.4477 3 20 3C20.5523 3 21 3.44772 21 4V6H25C26.6569 6 28 7.34315 28 9V10.5C28 11.0523 27.5523 11.5 27 11.5C26.4477 11.5 26 11.0523 26 10.5V9C26 8.44771 25.5523 8 25 8H21V9.04912C21 9.60141 20.5523 10.0491 20 10.0491C19.4477 10.0491 19 9.60141 19 9.04912V8H13V9.04912C13 9.60141 12.5523 10.0491 12 10.0491C11.4477 10.0491 11 9.60141 11 9.04912V8H7C6.44772 8 6 8.44772 6 9V25C6 25.5523 6.44772 26 7 26H17C17.5523 26 18 26.4477 18 27C18 27.5523 17.5523 28 17 28H7C5.34315 28 4 26.6569 4 25V9C4 7.34315 5.34315 6 7 6H11V4C11 3.44772 11.4477 3 12 3Z" fill="#107F8C"/>
<path d="M12 16C13.1046 16 14 15.1046 14 14C14 12.8954 13.1046 12 12 12C10.8954 12 10 12.8954 10 14C10 15.1046 10.8954 16 12 16Z" fill="#107F8C"/>
<path d="M14 21C14 22.1046 13.1046 23 12 23C10.8954 23 10 22.1046 10 21C10 19.8954 10.8954 19 12 19C13.1046 19 14 19.8954 14 21Z" fill="#107F8C"/>
<path fill-rule="evenodd" clip-rule="evenodd" d="M19 19C19 16.2386 21.2386 14 24 14C26.7614 14 29 16.2386 29 19C29 20.6358 28.2144 22.0882 27 23.0004V28C27 28.3466 26.8205 28.6684 26.5257 28.8507C26.2309 29.0329 25.8628 29.0494 25.5528 28.8944L24 28.118L22.4472 28.8944C22.1372 29.0494 21.7691 29.0329 21.4743 28.8507C21.1795 28.6684 21 28.3466 21 28V23.0004C19.7856 22.0882 19 20.6358 19 19ZM24 16C22.3431 16 21 17.3431 21 19C21 20.6569 22.3431 22 24 22C25.6569 22 27 20.6569 27 19C27 17.3431 25.6569 16 24 16ZM23 23.9V26.382L23.5528 26.1056C23.8343 25.9648 24.1657 25.9648 24.4472 26.1056L25 26.382V23.9C24.6769 23.9656 24.3425 24 24 24C23.6575 24 23.3231 23.9656 23 23.9Z" fill="#107F8C"/>
</svg>
