<svg width="20" height="20" viewBox="0 0 20 20" fill="none" xmlns="http://www.w3.org/2000/svg">
<path d="M8 0C7.44772 0 7 0.447715 7 1C7 1.55228 7.44772 2 8 2H14C14.5523 2 15 2.44772 15 3V17C15 17.5523 14.5523 18 14 18H6C5.44772 18 5 17.5523 5 17V3C5 2.44772 4.55228 2 4 2C3.44772 2 3 2.44772 3 3V17C3 18.6569 4.34315 20 6 20H14C15.6569 20 17 18.6569 17 17V3C17 1.34315 15.6569 0 14 0H8Z" fill="#B2B8BF"/>
<path d="M10 17C10.8284 17 11.5 16.3284 11.5 15.5C11.5 14.6716 10.8284 14 10 14C9.17157 14 8.5 14.6716 8.5 15.5C8.5 16.3284 9.17157 17 10 17Z" fill="#B2B8BF"/>
</svg>
