<svg width="32" height="32" viewBox="0 0 32 32" fill="none" xmlns="http://www.w3.org/2000/svg">
<path fill-rule="evenodd" clip-rule="evenodd" d="M8.09495 7.99903C9.69821 5.30775 12.6384 3.5 16 3.5C20.2149 3.5 23.7616 6.32941 24.8507 10.2029C27.8497 10.7597 30.125 13.3647 30.125 16.5312C30.125 20.1023 27.2273 23 23.6562 23C23.104 23 22.6562 22.5523 22.6562 22C22.6562 21.4477 23.104 21 23.6562 21C26.1227 21 28.125 18.9977 28.125 16.5312C28.125 14.1794 26.2997 12.2652 23.97 12.1039C23.5192 12.0727 23.1453 11.743 23.0579 11.2996C22.4047 7.98555 19.494 5.5 16 5.5C13.227 5.5 10.8155 7.07276 9.61348 9.38068C9.45871 9.67783 9.16543 9.87773 8.83228 9.91315C6.04433 10.2095 3.875 12.5734 3.875 15.4375C3.875 18.089 5.73942 20.3151 8.22869 20.868C8.76784 20.9878 9.10782 21.5219 8.98807 22.0611C8.86832 22.6002 8.33418 22.9402 7.79504 22.8205C4.41137 22.0689 1.875 19.0476 1.875 15.4375C1.875 11.724 4.55549 8.62952 8.09495 7.99903Z" fill="#B2B8BF"/>
<path fill-rule="evenodd" clip-rule="evenodd" d="M14 24V23H13C12.4477 23 12 22.5523 12 22C12 21.4477 12.4477 21 13 21H14V17C14 16.4477 14.4477 16 15 16C15.039 16 15.0775 16.0022 15.1153 16.0066C15.1532 16.0022 15.1916 16 15.2306 16H17.8383C19.0898 16 19.9565 16.5521 20.4556 17.3579C20.9085 18.0891 21 18.9309 21 19.5V19.6674C21 20.2913 20.8517 21.0994 20.3645 21.7808C19.8412 22.5127 18.9936 23 17.8383 23H16V24H16.9884C17.5406 24 17.9884 24.4477 17.9884 25C17.9884 25.5523 17.5406 26 16.9884 26H16V27C16 27.5523 15.5523 28 15 28C14.4477 28 14 27.5523 14 27V26H13C12.4477 26 12 25.5523 12 25C12 24.4477 12.4477 24 13 24H14ZM16 21V18H17.8383C18.417 18 18.6311 18.2105 18.7553 18.411C18.9257 18.6861 19 19.0943 19 19.5V19.6674C19 20.0182 18.9099 20.3765 18.7375 20.6176C18.6011 20.8084 18.3679 21 17.8383 21H16Z" fill="#B2B8BF"/>
</svg>
