<svg width="20" height="20" viewBox="0 0 20 20" fill="none" xmlns="http://www.w3.org/2000/svg">
<path d="M7.34451 0.0611595C7.12219 -0.0203865 6.87814 -0.0203865 6.65581 0.0611595L0.655907 2.26185C0.137408 2.45203 -0.128748 3.02653 0.0614315 3.54503C0.251611 4.06353 0.826107 4.32968 1.34461 4.1395L7.00016 2.06511L12.6557 4.1395C13.1742 4.32968 13.7487 4.06353 13.9389 3.54503C14.1291 3.02653 13.8629 2.45203 13.3444 2.26185L7.34451 0.0611595Z" fill="#107F8C"/>
<path d="M1.03041 11.9998C0.478134 11.9998 0.0304256 12.4475 0.0304256 12.9998C0.0304256 13.5521 0.478134 13.9998 1.03041 13.9998H8.53029C9.08257 13.9998 9.53028 13.5521 9.53028 12.9998C9.53028 12.4475 9.08257 11.9998 8.53029 11.9998H1.03041Z" fill="#107F8C"/>
<path d="M7.03032 4.99992C7.58259 4.99992 8.0303 5.44763 8.0303 5.99991V9.73029C8.0303 10.2826 7.58259 10.7303 7.03032 10.7303C6.47804 10.7303 6.03033 10.2826 6.03033 9.73029V5.99991C6.03033 5.44763 6.47804 4.99992 7.03032 4.99992Z" fill="#107F8C"/>
<path d="M4.03036 5.99991C4.03036 5.44763 3.58266 4.99992 3.03038 4.99992C2.4781 4.99992 2.03039 5.44763 2.03039 5.99991V9.73029C2.03039 10.2826 2.4781 10.7303 3.03038 10.7303C3.58266 10.7303 4.03036 10.2826 4.03036 9.73029V5.99991Z" fill="#107F8C"/>
<path fill-rule="evenodd" clip-rule="evenodd" d="M13.0001 7.99988C13.0001 7.4476 13.4478 6.99989 14.0001 6.99989H16.4781C17.8156 6.99989 18.7706 7.49651 19.3502 8.29862C19.8877 9.04237 20 9.90946 20 10.4998V10.6672C20 11.3228 19.8162 12.1537 19.2441 12.8396C18.6432 13.5599 17.7143 13.9998 16.4781 13.9998H15.0302V14.9998H16.1552C16.7075 14.9998 17.1552 15.4475 17.1552 15.9998C17.1552 16.552 16.7075 16.9997 16.1552 16.9997H15.0302V17.9997C15.0302 18.552 14.5825 18.9997 14.0302 18.9997C13.4779 18.9997 13.0302 18.552 13.0302 17.9997V16.9997H12.1552C11.603 16.9997 11.1553 16.552 11.1553 15.9998C11.1553 15.4475 11.603 14.9998 12.1552 14.9998H13.0302V13.9998H12.1601C11.6078 13.9998 11.1601 13.5521 11.1601 12.9998C11.1601 12.4475 11.6078 11.9998 12.1601 11.9998H13.0302V8.24455C13.0105 8.16625 13.0001 8.08429 13.0001 7.99988ZM15.0302 11.9998V8.99986H16.4781C17.2757 8.99986 17.5817 9.26584 17.7292 9.47002C17.9189 9.73256 18 10.1155 18 10.4998V10.6672C18 10.9865 17.9057 11.3218 17.7083 11.5585C17.5396 11.7608 17.2076 11.9998 16.4781 11.9998H15.0302Z" fill="#107F8C"/>
</svg>
