<svg width="20" height="20" viewBox="0 0 20 20" fill="none" xmlns="http://www.w3.org/2000/svg">
<path fill-rule="evenodd" clip-rule="evenodd" d="M7.58124 1.18634C8.03066 1.50735 8.13475 2.1319 7.81374 2.58131L6.08611 4.99999H13.9139L12.1862 2.58131C11.8652 2.1319 11.9693 1.50735 12.4187 1.18634C12.8681 0.865334 13.4927 0.969425 13.8137 1.41884L16.3137 4.91883C16.3326 4.94531 16.35 4.9724 16.366 4.99999H19C19.3161 4.99999 19.6136 5.14945 19.8023 5.40306C19.991 5.65667 20.0486 5.98456 19.9578 6.28734L18.9578 9.62067C18.7991 10.1497 18.2416 10.4498 17.7126 10.2911C17.1836 10.1324 16.8835 9.57496 17.0422 9.04597L17.656 6.99999H2.34404L4.74403 15H9.99999C10.5523 15 11 15.4477 11 16C11 16.5523 10.5523 17 9.99999 17H4C3.55839 17 3.16907 16.7103 3.04218 16.2873L0.042182 6.28734C-0.0486502 5.98456 0.0090221 5.65667 0.197715 5.40306C0.386408 5.14945 0.683901 4.99999 1.00001 4.99999H3.63395C3.64993 4.9724 3.66736 4.94531 3.68628 4.91883L6.18627 1.41884C6.50728 0.969425 7.13183 0.865334 7.58124 1.18634ZM12.7929 11.7929C13.1834 11.4024 13.8166 11.4024 14.2071 11.7929L18 15.5858V13C18 12.4477 18.4477 12 19 12C19.5523 12 20 12.4477 20 13V18C20 18.5523 19.5523 19 19 19H14C13.4477 19 13 18.5523 13 18C13 17.4477 13.4477 17 14 17H16.5858L12.7929 13.2071C12.4023 12.8166 12.4023 12.1834 12.7929 11.7929Z" fill="#B2B8BF"/>
</svg>
