<svg width="20" height="20" viewBox="0 0 20 20" fill="none" xmlns="http://www.w3.org/2000/svg">
<path fill-rule="evenodd" clip-rule="evenodd" d="M7.70711 3.29304C8.09763 3.68357 8.09763 4.31673 7.70711 4.70726L2.41421 10.0002L7.70711 15.293C8.09763 15.6836 8.09763 16.3167 7.70711 16.7073C7.31658 17.0978 6.68342 17.0978 6.29289 16.7073L1 11.4144C0.218951 10.6333 0.218951 9.36699 1 8.58594L6.29289 3.29304C6.68342 2.90252 7.31658 2.90252 7.70711 3.29304Z" fill="#B2B8BF"/>
<path fill-rule="evenodd" clip-rule="evenodd" d="M12 7C12.5523 7 13 7.44772 13 8V12C13 12.5523 12.5523 13 12 13C11.4477 13 11 12.5523 11 12V8C11 7.44772 11.4477 7 12 7Z" fill="#B2B8BF"/>
<path fill-rule="evenodd" clip-rule="evenodd" d="M17 9C16.4477 9 16 9.44772 16 10C16 10.5523 16.4477 11 17 11C17.5523 11 18 10.5523 18 10C18 9.44772 17.5523 9 17 9ZM14 10C14 8.34315 15.3431 7 17 7C18.6569 7 20 8.34315 20 10C20 11.6569 18.6569 13 17 13C15.3431 13 14 11.6569 14 10Z" fill="#B2B8BF"/>
<path fill-rule="evenodd" clip-rule="evenodd" d="M12 10C12 9.44772 12.4477 9 13 9H14.5C15.0523 9 15.5 9.44772 15.5 10C15.5 10.5523 15.0523 11 14.5 11H13C12.4477 11 12 10.5523 12 10Z" fill="#B2B8BF"/>
<path fill-rule="evenodd" clip-rule="evenodd" d="M9.70708 6.29289C10.0976 6.68342 10.0976 7.31658 9.70708 7.70711L7.41418 10L5.99997 8.58579L8.29286 6.29289C8.68339 5.90237 9.31655 5.90237 9.70708 6.29289ZM5.99997 8.58579C5.21892 9.36683 5.21892 10.6332 5.99997 11.4142L8.29286 13.7071C8.68339 14.0976 9.31655 14.0976 9.70708 13.7071C10.0976 13.3166 10.0976 12.6834 9.70708 12.2929L5.99997 8.58579Z" fill="#B2B8BF"/>
</svg>
