<svg width="20" height="20" viewBox="0 0 20 20" fill="none" xmlns="http://www.w3.org/2000/svg">
<path d="M4 2C3.44772 2 3 2.44772 3 3V17C3 17.5523 3.44772 18 4 18H14C14.5523 18 15 17.5523 15 17V14C15 13.4477 15.4477 13 16 13C16.5523 13 17 13.4477 17 14V17C17 18.6569 15.6569 20 14 20H4C2.34315 20 1 18.6569 1 17V3C1 1.34315 2.34315 0 4 0H6C6.55228 0 7 0.447715 7 1C7 1.55228 6.55228 2 6 2H4Z" fill="#107F8C"/>
<path d="M5 14C5 13.4477 5.44772 13 6 13H10C10.5523 13 11 13.4477 11 14C11 14.5523 10.5523 15 10 15H6C5.44772 15 5 14.5523 5 14Z" fill="#107F8C"/>
<path d="M6 9C5.44772 9 5 9.44771 5 10C5 10.5523 5.44772 11 6 11C6.55228 11 7 10.5523 7 10C7 9.44771 6.55228 9 6 9Z" fill="#107F8C"/>
<path d="M13.5 7C14.3284 7 15 6.32843 15 5.5C15 4.67157 14.3284 4 13.5 4C12.6716 4 12 4.67157 12 5.5C12 6.32843 12.6716 7 13.5 7Z" fill="#107F8C"/>
<path fill-rule="evenodd" clip-rule="evenodd" d="M13.5 1C11.8338 1 10.4363 1.66891 9.38737 2.47057C8.34499 3.2672 7.59279 4.23424 7.19248 4.95256C6.96833 5.35479 6.98793 5.84471 7.23671 6.22657C7.68286 6.91139 8.48182 7.83252 9.5269 8.59125C10.5718 9.34986 11.9389 10 13.5 10C15.0616 10 16.4341 9.34945 17.4821 8.5902C18.5296 7.83133 19.3326 6.90738 19.7732 6.21429C20.0119 5.83874 20.0312 5.36148 19.8169 4.96604C19.4228 4.23861 18.6664 3.26851 17.6218 2.47174C16.5698 1.66945 15.1669 1 13.5 1ZM10.7019 6.97279C10.0656 6.51087 9.54681 5.97235 9.19375 5.52407C9.50978 5.07285 9.98852 4.52834 10.6018 4.05964C11.4065 3.44466 12.3882 3 13.5 3C14.6135 3 15.6012 3.44599 16.4089 4.06201C17.0257 4.53245 17.5035 5.07709 17.8131 5.524C17.4667 5.96834 16.9486 6.50702 16.3088 6.97056C15.4702 7.57808 14.5022 8 13.5 8C12.4994 8 11.5374 7.57938 10.7019 6.97279Z" fill="#107F8C"/>
</svg>
