<svg width="32" height="32" viewBox="0 0 32 32" fill="none" xmlns="http://www.w3.org/2000/svg">
<path fill-rule="evenodd" clip-rule="evenodd" d="M6 6C6 4.34315 7.34315 3 9 3H23C24.6569 3 26 4.34315 26 6V18C26 19.6569 24.6569 21 23 21H9C7.34315 21 6 19.6569 6 18V6ZM9 5C8.44772 5 8 5.44772 8 6V18C8 18.5523 8.44772 19 9 19H23C23.5523 19 24 18.5523 24 18V6C24 5.44772 23.5523 5 23 5H9Z" fill="#107F8C"/>
<path d="M9.92334 8.32083C9.92334 7.58981 10.5215 6.9917 11.2525 6.9917C11.9835 6.9917 12.5816 7.58981 12.5816 8.32083C12.5816 9.05186 11.9835 9.64997 11.2525 9.64997C10.5215 9.64997 9.92334 9.05186 9.92334 8.32083Z" fill="#107F8C"/>
<path d="M19.1583 10.6379C18.9883 10.3152 18.656 10.1106 18.2913 10.1042C17.9266 10.0977 17.5873 10.2903 17.4059 10.6068L15.4834 13.9621L14.1144 12.9863C13.7112 12.6989 13.1584 12.7499 12.8145 13.1061L10.2116 15.8027C9.82809 16.2001 9.83929 16.8332 10.2367 17.2167C10.634 17.6003 11.2671 17.5891 11.6507 17.1917L13.6552 15.115L15.2217 16.2316C15.4516 16.3955 15.7402 16.4546 16.016 16.3941C16.2919 16.3337 16.5293 16.1595 16.6697 15.9145L18.2368 13.1796L20.2303 16.9633C20.4877 17.452 21.0925 17.6394 21.5811 17.382C22.0697 17.1245 22.2571 16.5197 21.9997 16.0311L19.1583 10.6379Z" fill="#107F8C"/>
<path d="M9 24C9 23.4477 9.44772 23 10 23H22C22.5523 23 23 23.4477 23 24C23 24.5523 22.5523 25 22 25H10C9.44772 25 9 24.5523 9 24Z" fill="#107F8C"/>
<path d="M10 26.9795C9.44772 26.9795 9 27.4272 9 27.9795C9 28.5318 9.44772 28.9795 10 28.9795H22C22.5523 28.9795 23 28.5318 23 27.9795C23 27.4272 22.5523 26.9795 22 26.9795H10Z" fill="#107F8C"/>
</svg>
