<svg width="20" height="20" viewBox="0 0 20 20" fill="none" xmlns="http://www.w3.org/2000/svg">
<path d="M7.58131 1.18634C8.03072 1.50735 8.13481 2.1319 7.81381 2.58131L6.08609 5.00012H13.9139L12.1862 2.58131C11.8652 2.1319 11.9693 1.50735 12.4187 1.18634C12.8681 0.865335 13.4926 0.969426 13.8136 1.41884L16.3136 4.91884C16.3326 4.94535 16.35 4.97248 16.366 5.00012H19C19.3161 5.00012 19.6136 5.14958 19.8023 5.40319C19.991 5.6568 20.0487 5.98469 19.9578 6.28747L19.2078 8.78746C19.0491 9.31646 18.4916 9.61664 17.9626 9.45794C17.4337 9.29924 17.1335 8.74176 17.2922 8.21277L17.656 7.00012H2.34404L4.74404 15.0001H9C9.55229 15.0001 10 15.4478 10 16.0001C10 16.5524 9.55229 17.0001 9 17.0001H4.00001C3.5584 17.0001 3.16907 16.7104 3.04218 16.2875L0.042182 6.28747C-0.0486503 5.98469 0.00902211 5.6568 0.197715 5.40319C0.386408 5.14958 0.683902 5.00012 1.00001 5.00012H3.63394C3.64994 4.97248 3.6674 4.94535 3.68634 4.91884L6.18634 1.41884C6.50735 0.969426 7.1319 0.865335 7.58131 1.18634Z" fill="#107F8C"/>
<path d="M13 11C12.4477 11 12 11.4477 12 12V17C12 17.5523 12.4477 18 13 18C13.5523 18 14 17.5523 14 17V14.4142L18.2929 18.7071C18.6834 19.0976 19.3166 19.0976 19.7071 18.7071C20.0976 18.3166 20.0976 17.6834 19.7071 17.2929L15.4142 13H18C18.5523 13 19 12.5523 19 12C19 11.4477 18.5523 11 18 11H13Z" fill="#107F8C"/>
</svg>
