<svg width="32" height="32" viewBox="0 0 32 32" fill="none" xmlns="http://www.w3.org/2000/svg">
<path fill-rule="evenodd" clip-rule="evenodd" d="M3 10C3 7.79086 4.79086 6 7 6H25C27.2091 6 29 7.79086 29 10V18C29 20.2091 27.2091 22 25 22H7C4.79086 22 3 20.2091 3 18V10ZM7 8C5.89543 8 5 8.89543 5 10V18C5 19.1046 5.89543 20 7 20H25C26.1046 20 27 19.1046 27 18V10C27 8.89543 26.1046 8 25 8H7ZM16 16C17.1046 16 18 15.1046 18 14C18 12.8954 17.1046 12 16 12C14.8954 12 14 12.8954 14 14C14 15.1046 14.8954 16 16 16ZM16 18C18.2091 18 20 16.2091 20 14C20 11.7909 18.2091 10 16 10C13.7909 10 12 11.7909 12 14C12 16.2091 13.7909 18 16 18ZM10 13C10 12.4477 9.55228 12 9 12C8.44772 12 8 12.4477 8 13V15C8 15.5523 8.44772 16 9 16C9.55228 16 10 15.5523 10 15V13ZM23 12C23.5523 12 24 12.4477 24 13V15C24 15.5523 23.5523 16 23 16C22.4477 16 22 15.5523 22 15V13C22 12.4477 22.4477 12 23 12ZM4 24C3.44772 24 3 24.4477 3 25C3 25.5523 3.44772 26 4 26H28C28.5523 26 29 25.5523 29 25C29 24.4477 28.5523 24 28 24H4Z" fill="#B2B8BF"/>
</svg>
