<svg width="20" height="20" viewBox="0 0 20 20" fill="none" xmlns="http://www.w3.org/2000/svg">
<path fill-rule="evenodd" clip-rule="evenodd" d="M16.015 1C16.015 0.447715 15.5673 0 15.015 0C14.4627 0 14.015 0.447715 14.015 1V2.73544L11.4754 0.705371C10.7605 0.133868 9.74885 0.120613 9.01919 0.67319L0.396271 7.20341C-0.0440069 7.53684 -0.130627 8.16405 0.2028 8.60433C0.536227 9.04461 1.16344 9.13123 1.60372 8.7978L10.2266 2.26758L18.3756 8.78171C18.807 9.12656 19.4363 9.0564 19.7811 8.62501C20.1259 8.19362 20.0558 7.56435 19.6244 7.2195L16.015 4.3342V1ZM3 10.1875C3.55228 10.1875 4 10.6352 4 11.1875V18H16V11.5C16 10.9477 16.4477 10.5 17 10.5C17.5523 10.5 18 10.9477 18 11.5V18C18 19.1046 17.1046 20 16 20H4C2.89543 20 2 19.1046 2 18V11.1875C2 10.6352 2.44772 10.1875 3 10.1875ZM10.6594 8.26102C9.04311 7.89685 7.43758 8.91192 7.07341 10.5283C6.70924 12.1446 7.72431 13.7501 9.34065 14.1143C10.957 14.4785 12.5625 13.4634 12.9267 11.8471C13.0481 11.3083 13.5832 10.9699 14.122 11.0913C14.6608 11.2127 14.9992 11.7479 14.8778 12.2867C14.2708 14.9805 11.5949 16.6723 8.90105 16.0654C6.20716 15.4584 4.51536 12.7826 5.12232 10.0887C5.72928 7.39477 8.40515 5.70297 11.099 6.30993C11.6378 6.43132 11.9762 6.9665 11.8548 7.50528C11.7334 8.04405 11.1982 8.38241 10.6594 8.26102ZM13.6407 9.95575C14.0649 9.60218 14.1223 8.97162 13.7687 8.54734C13.4151 8.12306 12.7846 8.06574 12.3603 8.4193L10.0619 10.3347L9.70759 9.98042C9.31707 9.58989 8.68391 9.58989 8.29338 9.98042C7.90286 10.3709 7.90286 11.0041 8.29338 11.3946L9.29338 12.3946C9.6591 12.7603 10.2433 12.7869 10.6407 12.4557L13.6407 9.95575Z" fill="#107F8C"/>
</svg>
