<svg width="32" height="32" viewBox="0 0 32 32" fill="none" xmlns="http://www.w3.org/2000/svg">
<path fill-rule="evenodd" clip-rule="evenodd" d="M11.8626 8C11.3795 8 10.8471 8.41852 10.7008 9.00622C10.6951 9.02949 10.6884 9.05254 10.681 9.07533L9.95053 11.3106C9.77898 11.8356 9.21434 12.1221 8.68938 11.9505C8.16441 11.779 7.87791 11.2143 8.04946 10.6894L8.7698 8.48503C9.1161 7.16429 10.3364 6 11.8626 6H14H14H20.4189C21.9175 6 23.0075 7.24858 23.3052 8.5101L23.9588 10.7159C24.1157 11.2454 23.8136 11.8019 23.2841 11.9588C22.7546 12.1157 22.1981 11.8136 22.0412 11.2841L21.3789 9.04881C21.3725 9.02717 21.3668 9.00531 21.3619 8.98328C21.2162 8.33284 20.7274 8 20.4189 8H14H14H11.8626ZM5 17C5 15.3431 6.34315 14 8 14H24C25.6569 14 27 15.3431 27 17V20C27 21.3062 26.1652 22.4175 25 22.8293V23C25 24.6569 23.6569 26 22 26C20.343 26 19.0002 24.6564 19 23H13C13 24.6569 11.6569 26 10 26C8.34315 26 7 24.6569 7 23V22.8293C5.83481 22.4175 5 21.3062 5 20V17ZM8 16C7.44772 16 7 16.4477 7 17V20C7 20.5523 7.44772 21 8 21C8.26522 21 8.51957 21.1054 8.70711 21.2929C8.89464 21.4804 9 21.7348 9 22L9 23C9 23.5523 9.44772 24 10 24C10.5523 24 11 23.5523 11 23V22C11 21.4477 11.4477 21 12 21H20C20.5523 21 21 21.4477 21 22V22.9996C21 23.5522 21.448 24 22 24C22.5523 24 23 23.5523 23 23V22C23 21.4477 23.4477 21 24 21C24.5523 21 25 20.5523 25 20V17C25 16.4477 24.5523 16 24 16H8ZM19 18C19 17.4477 19.4477 17 20 17H23C23.5523 17 24 17.4477 24 18C24 18.5523 23.5523 19 23 19H20C19.4477 19 19 18.5523 19 18ZM9 17C8.44772 17 8 17.4477 8 18C8 18.5523 8.44772 19 9 19H12C12.5523 19 13 18.5523 13 18C13 17.4477 12.5523 17 12 17H9Z" fill="#B2B8BF"/>
</svg>
