<svg width="32" height="32" viewBox="0 0 32 32" fill="none" xmlns="http://www.w3.org/2000/svg">
<path fill-rule="evenodd" clip-rule="evenodd" d="M16.929 7.98647C18.1073 5.0267 20.9131 4.27413 22.9327 4.41007C25.6777 4.59483 28.246 7.51723 27.459 12.5267C27.0515 15.1203 24.9386 18.3723 22.3657 21.343C20.0876 23.9734 17.5912 26.223 15.9785 27.3975C14.2771 26.2384 11.7803 23.9925 9.52425 21.3486C6.99668 18.3865 4.94974 15.1298 4.54081 12.5267C3.75383 7.51723 6.32214 4.59483 9.06706 4.41007C11.0867 4.27413 13.8925 5.0267 15.0708 7.98647C15.2223 8.36693 15.5904 8.61659 15.9999 8.61659C16.4094 8.61659 16.7775 8.36693 16.929 7.98647ZM15.9999 5.5348C17.8884 2.9062 20.9617 2.27287 23.0671 2.41459C27.3899 2.70556 30.3342 7.11165 29.4348 12.8371C28.9328 16.032 26.4746 19.6538 23.8775 22.6524C21.252 25.6839 18.2999 28.2858 16.549 29.4358C16.2278 29.6468 15.8142 29.6551 15.4848 29.4571C13.5542 28.2965 10.5895 25.6782 8.00285 22.6468C5.43683 19.6396 3.06547 16.0225 2.56504 12.8371C1.66558 7.11165 4.60991 2.70556 8.93274 2.41459C11.0381 2.27287 14.1114 2.9062 15.9999 5.5348Z" fill="#107F8C"/>
<path d="M17 12C17 11.4477 16.5523 11 16 11C15.4477 11 15 11.4477 15 12V15H12C11.4477 15 11 15.4477 11 16C11 16.5523 11.4477 17 12 17H15V20C15 20.5523 15.4477 21 16 21C16.5523 21 17 20.5523 17 20V17H20C20.5523 17 21 16.5523 21 16C21 15.4477 20.5523 15 20 15H17V12Z" fill="#107F8C"/>
</svg>
