<svg width="20" height="20" viewBox="0 0 20 20" fill="none" xmlns="http://www.w3.org/2000/svg">
<path fill-rule="evenodd" clip-rule="evenodd" d="M1.94236 6.63672C2.94719 5.74379 4.36302 5.79858 5.31443 6.75L6.03318 7.46875L6.60935 8.04102L6.61912 8.0498L6.62791 8.05859L6.8242 8.26465L6.83592 8.27637L6.84763 8.29004C7.25757 8.74927 7.50016 9.31856 7.50193 9.92871C7.50362 10.5389 7.26428 11.1082 6.85642 11.5664L6.83299 11.5918L6.68943 11.7422L6.6826 11.749L6.67576 11.7568L6.59177 11.8398L6.70506 11.9844L6.70603 11.9863C7.16585 12.5542 7.65239 13.0252 8.16013 13.4033L8.31638 13.248L8.31834 13.2451C9.20998 12.3535 10.5095 12.2497 11.4961 12.9756L11.6894 13.1318L11.7002 13.1416L11.7109 13.1523L11.7881 13.2246L11.7978 13.2344L11.8076 13.2432L12.8515 14.2812L12.8584 14.2881L13.2412 14.6768L13.4043 14.8535C13.7643 15.2809 13.9796 15.7991 13.999 16.3535C14.0212 16.9878 13.7835 17.59 13.3554 18.0713L13.3457 18.083L13.3359 18.0938L13.2607 18.1719L13.249 18.1855L13.2353 18.1982L12.7363 18.6895L12.6172 18.8125C12.6081 18.8221 12.5984 18.8306 12.5898 18.8398L12.4883 18.9541L12.4844 18.96C11.7817 19.7336 10.8664 20.0405 9.87791 19.9951H9.87498C8.91124 19.9479 8.01437 19.6593 7.08299 19.2021C5.35635 18.359 3.8619 17.1897 2.62986 15.7197C1.66001 14.5863 0.913736 13.372 0.426736 12.0518L0.319314 11.7461C0.0855432 11.0386 -0.0354688 10.3597 0.00876721 9.62988V9.62598C0.0596937 8.84355 0.383013 8.15273 0.95115 7.6084L1.04002 7.52344L1.76072 6.80859L1.76756 6.80176L1.77537 6.79492L1.91697 6.66016L1.94236 6.63672ZM3.90037 8.16406C3.68581 7.9495 3.47318 7.95414 3.27439 8.12891L3.15427 8.24316L2.4365 8.95508L2.43162 8.95996L2.42576 8.96484L2.33592 9.05176L2.33494 9.05273C2.12576 9.25315 2.02309 9.47581 2.00486 9.75586C1.97714 10.2261 2.06188 10.7061 2.30271 11.3584C2.64788 12.2943 3.162 13.1892 3.84959 14.0566L4.15525 14.4268L4.16209 14.4346C5.14892 15.612 6.32882 16.5602 7.68845 17.2676L7.96287 17.4062L7.96482 17.4072C8.73762 17.7865 9.36317 17.9682 9.97263 17.998C10.4486 18.0196 10.7525 17.8883 10.999 17.6191L11.1006 17.5059L11.1054 17.501L11.1103 17.4951C11.131 17.4727 11.1524 17.4503 11.1738 17.4277L11.1816 17.4189L11.3017 17.2959L11.3174 17.2803L11.8232 16.7812L11.8633 16.7383C11.9782 16.6076 12.0025 16.4983 12 16.4238C11.9973 16.348 11.9649 16.2287 11.8271 16.0908L11.8222 16.0859L11.4414 15.7002L10.3965 14.6611L10.3603 14.627L10.2715 14.5596C10.186 14.507 10.1111 14.4942 10.0537 14.4961C9.97657 14.4988 9.86184 14.5317 9.73338 14.6602L9.10642 15.29L9.10545 15.2891L9.02635 15.3721L8.51853 15.8926L7.71873 15.4961L7.70701 15.4902C7.68165 15.4772 7.65706 15.4642 7.63279 15.4512L7.62302 15.4453L7.61228 15.4404L7.51267 15.3838L7.46775 15.3564C6.61133 14.8099 5.83996 14.0955 5.15135 13.2451C4.85796 12.8841 4.61532 12.5262 4.42283 12.1416L4.09568 11.4873L4.98533 10.6211L5.24217 10.3623L5.36521 10.2324C5.47896 10.1032 5.50204 10.0001 5.50193 9.93457C5.50174 9.86814 5.47773 9.75906 5.35545 9.62207L5.1826 9.44141L4.624 8.88867L4.62205 8.88574L3.90037 8.16406Z" fill="#B2B8BF"/>
<path d="M16 0C18.2091 0 20 1.79086 20 4V14C20 16.2091 18.2091 18 16 18C15.4477 18 15 17.5523 15 17C15 16.4477 15.4477 16 16 16C17.1045 16 18 15.1046 18 14V4C18 2.89543 17.1045 2 16 2H5.99998C4.89541 2 3.99998 2.89543 3.99998 4V4.5C3.99998 5.05229 3.55226 5.5 2.99998 5.5C2.44769 5.5 1.99998 5.05229 1.99998 4.5V4C1.99998 1.79086 3.79084 0 5.99998 0H16Z" fill="#B2B8BF"/>
<path d="M15 12C15.5523 12 16 12.4477 16 13C16 13.5523 15.5523 14 15 14C14.4477 14 14 13.5523 14 13C14 12.4477 14.4477 12 15 12Z" fill="#B2B8BF"/>
<path d="M11 8C11.5523 8 12 8.44772 12 9C12 9.55228 11.5523 10 11 10C10.4477 10 9.99998 9.55228 9.99998 9C9.99998 8.44772 10.4477 8 11 8Z" fill="#B2B8BF"/>
<path d="M15 8C15.5523 8 16 8.44772 16 9C16 9.55228 15.5523 10 15 10C14.4477 10 14 9.55228 14 9C14 8.44772 14.4477 8 15 8Z" fill="#B2B8BF"/>
<path d="M15 4C15.5523 4 16 4.44772 16 5C16 5.55228 15.5523 6 15 6H6.99998C6.44769 6 5.99998 5.55228 5.99998 5C5.99998 4.44772 6.44769 4 6.99998 4H15Z" fill="#B2B8BF"/>
</svg>
