<svg width="32" height="32" viewBox="0 0 32 32" fill="none" xmlns="http://www.w3.org/2000/svg">
<path fill-rule="evenodd" clip-rule="evenodd" d="M8.09495 7.99903C9.69821 5.30775 12.6384 3.5 16 3.5C20.2149 3.5 23.7616 6.32941 24.8507 10.2029C27.8497 10.7597 30.125 13.3647 30.125 16.5312C30.125 18.7154 29.0401 20.6469 27.3853 21.8166C27.1006 22.0179 26.7987 22.1968 26.4822 22.3508C25.9856 22.5925 25.3872 22.3858 25.1455 21.8892C24.9038 21.3926 25.1105 20.7942 25.6071 20.5525C25.8254 20.4462 26.0339 20.3226 26.2309 20.1834C27.3788 19.372 28.125 18.0379 28.125 16.5312C28.125 14.1794 26.2997 12.2652 23.97 12.1039C23.5192 12.0727 23.1453 11.743 23.0579 11.2996C22.4047 7.98555 19.494 5.5 16 5.5C13.227 5.5 10.8155 7.07276 9.61348 9.38068C9.45871 9.67783 9.16543 9.87773 8.83228 9.91315C6.04433 10.2095 3.875 12.5734 3.875 15.4375C3.875 17.4362 4.9331 19.1934 6.52509 20.1756C6.99511 20.4656 7.14105 21.0818 6.85104 21.5518C6.56104 22.0218 5.94492 22.1677 5.47491 21.8777C3.31865 20.5473 1.875 18.16 1.875 15.4375C1.875 11.724 4.55549 8.62952 8.09495 7.99903Z" fill="#107F8C"/>
<path d="M12 13C10.3431 13 9 14.3431 9 16V28C9 28.5523 9.44772 29 10 29H10.5C11.0523 29 11.5 28.5523 11.5 28C11.5 27.6299 11.2989 27.3067 11 27.1338V16C11 15.4477 11.4477 15 12 15H20C20.5523 15 21 15.4477 21 16V27.1338C20.7011 27.3067 20.5 27.6299 20.5 28C20.5 28.5523 20.9477 29 21.5 29L22 29C22.5523 29 23 28.5523 23 28V16C23 14.3431 21.6569 13 20 13H12Z" fill="#107F8C"/>
<path d="M13.5 27C12.9477 27 12.5 27.4477 12.5 28C12.5 28.5523 12.9477 29 13.5 29H14.5C15.0523 29 15.5 28.5523 15.5 28C15.5 27.4477 15.0523 27 14.5 27H13.5Z" fill="#107F8C"/>
<path d="M17.5 27C16.9477 27 16.5 27.4477 16.5 28C16.5 28.5523 16.9477 29 17.5 29H18.5C19.0523 29 19.5 28.5523 19.5 28C19.5 27.4477 19.0523 27 18.5 27H17.5Z" fill="#107F8C"/>
<path d="M13 19C13 18.4477 13.4477 18 14 18H16C16.5523 18 17 18.4477 17 19C17 19.5523 16.5523 20 16 20H14C13.4477 20 13 19.5523 13 19Z" fill="#107F8C"/>
<path d="M14 22C13.4477 22 13 22.4477 13 23C13 23.5523 13.4477 24 14 24H18C18.5523 24 19 23.5523 19 23C19 22.4477 18.5523 22 18 22H14Z" fill="#107F8C"/>
</svg>
