<svg width="21" height="20" viewBox="0 0 21 20" fill="none" xmlns="http://www.w3.org/2000/svg">
<path d="M2 6C2 4.34315 3.34315 3 5 3H10C10.5523 3 11 2.55228 11 2C11 1.44772 10.5523 1 10 1H5C2.23858 1 0 3.23858 0 6V11C0 13.0512 1.23448 14.8122 3 15.5836V18.9C3 19.2822 3.21783 19.6309 3.56127 19.7986C3.90471 19.9663 4.31368 19.9236 4.61503 19.6885L9.34388 16H15C17.7614 16 20 13.7614 20 11V9C20 8.44772 19.5523 8 19 8C18.4477 8 18 8.44772 18 9V11C18 12.6569 16.6569 14 15 14H9C8.77715 14 8.56069 14.0744 8.38497 14.2115L5 16.8518V14.874C5 14.4177 4.69114 14.0193 4.24926 13.9055C2.95512 13.5725 2 12.3965 2 11V6Z" fill="#107F8C"/>
<path fill-rule="evenodd" clip-rule="evenodd" d="M11.0607 10.0065C10.5358 9.98814 10.1146 9.56693 10.0962 9.04209L10.0006 6.3093C9.99091 6.03211 10.0968 5.76334 10.2929 5.56722L15.5672 0.292893C15.9577 -0.0976313 16.5909 -0.0976309 16.9814 0.292893L19.8099 3.12132C20.2004 3.51184 20.2004 4.14501 19.8099 4.53553L14.5355 9.80986C14.3394 10.006 14.0706 10.1118 13.7935 10.1021L11.0607 10.0065ZM13.4288 8.08815L17.6885 3.82843L16.2743 2.41421L12.0146 6.67394L12.0624 8.04034L13.4288 8.08815Z" fill="#107F8C"/>
</svg>
