<svg width="20" height="20" viewBox="0 0 20 20" fill="none" xmlns="http://www.w3.org/2000/svg">
<path fill-rule="evenodd" clip-rule="evenodd" d="M14.8939 0.080855C14.6424 -0.0269517 14.3576 -0.0269517 14.1061 0.080855L10.6061 1.58086C10.2384 1.73843 10 2.09997 10 2.5C10 4.32046 10.0624 5.79807 10.6244 7.12956C11.2004 8.4944 12.2431 9.58361 13.9082 10.8061C14.2604 11.0646 14.7396 11.0646 15.0918 10.8061C16.7616 9.58018 17.8049 8.49075 18.3798 7.12608C18.9404 5.79523 19 4.31878 19 2.5C19 2.09997 18.7616 1.73843 18.3939 1.58086L14.8939 0.080855ZM12.467 6.35185C12.1299 5.55334 12.0252 4.61621 12.0043 3.15757L14.5 2.08797L16.9958 3.15762C16.9754 4.61708 16.8726 5.55214 16.5367 6.34962C16.2177 7.10676 15.6477 7.82667 14.5001 8.74202C13.3572 7.82999 12.787 7.11008 12.467 6.35185Z" fill="#107F8C"/>
<path fill-rule="evenodd" clip-rule="evenodd" d="M4.31573 8.16248C3.3702 6.83874 4.31645 5 5.94319 5H8C8.55229 5 9 5.44772 9 6C9 6.55228 8.55229 7 8 7H5.94319L9.51462 12H13C13.5523 12 14 12.4477 14 13C14 13.5523 13.5523 14 13 14H9.51462C8.86872 14 8.26258 13.6881 7.88715 13.1625L6.34253 11H4.16065C3.80179 11 3.47044 11.1923 3.2924 11.5039L2.65878 12.6127C2.22708 13.3682 2 14.2233 2 15.0934V16H3.17071C3.58254 14.8348 4.69378 14 6 14C7.30622 14 8.41746 14.8348 8.82929 16H13.1707C13.5825 14.8348 14.6938 14 16 14C17.6569 14 19 15.3431 19 17C19 18.6569 17.6569 20 16 20C14.6938 20 13.5825 19.1652 13.1707 18H8.82929C8.41746 19.1652 7.30622 20 6 20C4.69378 20 3.58254 19.1652 3.17071 18H2C0.89543 18 0 17.1046 0 16V15.0934C0 13.8752 0.317907 12.6781 0.922298 11.6204L1.55592 10.5116C2.09004 9.57686 3.08407 9 4.16065 9H4.91396L4.31573 8.16248ZM16 16C15.4477 16 15 16.4477 15 17C15 17.5523 15.4477 18 16 18C16.5523 18 17 17.5523 17 17C17 16.4477 16.5523 16 16 16ZM5 17C5 16.4477 5.44772 16 6 16C6.55228 16 7 16.4477 7 17C7 17.5523 6.55228 18 6 18C5.44772 18 5 17.5523 5 17Z" fill="#107F8C"/>
<path d="M19 10C19.5523 10 20 10.4477 20 11V13C20 13.5523 19.5523 14 19 14C18.4477 14 18 13.5523 18 13V11C18 10.4477 18.4477 10 19 10Z" fill="#107F8C"/>
</svg>
