<svg width="20" height="20" viewBox="0 0 20 20" fill="none" xmlns="http://www.w3.org/2000/svg">
<path fill-rule="evenodd" clip-rule="evenodd" d="M8.52925 0.680193C9.4425 0.166497 10.5576 0.166498 11.4708 0.680198L17.4708 4.05519C18.4154 4.58655 19 5.5861 19 6.66992V13.3305C19 14.4144 18.4154 15.4139 17.4708 15.9453L11.4708 19.3203C10.5576 19.834 9.4425 19.834 8.52926 19.3203L2.52922 15.9453C1.58459 15.4139 1 14.4144 1 13.3305V6.66992C1 5.5861 1.58459 4.58655 2.52922 4.05519L8.52925 0.680193ZM3.50974 5.79835L9 2.71009V17.2904L3.50974 14.2021C3.19486 14.025 3 13.6918 3 13.3305V6.66992C3 6.30865 3.19486 5.97547 3.50974 5.79835ZM16.4903 14.2021L11 17.2904V11H17V13.3305C17 13.6918 16.8051 14.025 16.4903 14.2021ZM17 9H11V2.71006L16.4903 5.79834C16.8051 5.97546 17 6.30865 17 6.66992V9Z" fill="#107F8C"/>
</svg>
