<svg width="20" height="20" viewBox="0 0 20 20" fill="none" xmlns="http://www.w3.org/2000/svg">
<g clip-path="url(#clip0_36700_1149)">
<path d="M14.8415 0.247437C15.2571 -0.116245 15.8889 -0.0741276 16.2526 0.341509L19.7526 4.34151C20.0825 4.71853 20.0825 5.28149 19.7526 5.65852L16.2526 9.65852C15.8889 10.0742 15.2571 10.1163 14.8415 9.75259C14.4259 9.38891 14.3837 8.75715 14.7474 8.34151L16.7962 6.00005H10C9.44771 6.00005 9 5.55234 9 5.00005C9 4.44777 9.44771 4.00005 10 4.00005H16.7963L14.7474 1.65852C14.3837 1.24288 14.4259 0.611119 14.8415 0.247437Z" fill="#B2B8BF"/>
<path d="M4 5.30576e-05C2.34315 5.30576e-05 1 1.3432 1 3.00005V18.9741C0.999919 18.9815 0.999919 18.9889 1 18.9962V19.0001C1 19.5523 1.44772 20.0001 2 20.0001C2.28207 20.0001 2.53687 19.8833 2.71867 19.6954L3.79312 18.8896C3.95575 18.7676 4.17605 18.7562 4.35037 18.8608L5.21376 19.3789C6.00546 19.8539 6.99453 19.8539 7.78624 19.3789L8.74275 18.805C8.90109 18.7099 9.09891 18.7099 9.25725 18.8049L10.2138 19.3789C11.0055 19.8539 11.9945 19.8539 12.7862 19.3789L13.6496 18.8608C13.8239 18.7562 14.0442 18.7676 14.2069 18.8896L15.2813 19.6954C15.4631 19.8833 15.7179 20.0001 16 20.0001C16.5523 20.0001 17 19.5523 17 19.0001V18.9959C17.0001 18.9887 17.0001 18.9816 17 18.9745V13.0001C17 12.4478 16.5523 12.0001 16 12.0001C15.4477 12.0001 15 12.4478 15 13.0001V17.0411C14.2499 16.6763 13.3539 16.7059 12.6206 17.1458L11.7572 17.6639C11.5989 17.7589 11.4011 17.7589 11.2427 17.6639L10.2862 17.09C9.49453 16.6149 8.50546 16.6149 7.71376 17.09L6.75725 17.6639C6.5989 17.7589 6.40109 17.7589 6.24275 17.6639L5.37936 17.1458C4.64608 16.7059 3.75012 16.6763 3 17.0411V3.00005C3 2.44777 3.44772 2.00005 4 2.00005H11C11.5523 2.00005 12 1.55234 12 1.00005C12 0.447768 11.5523 5.30576e-05 11 5.30576e-05H4Z" fill="#B2B8BF"/>
<path d="M6 9.00005C5.44772 9.00005 5 9.44777 5 10.0001C5 10.5523 5.44772 11.0001 6 11.0001H10C10.5523 11.0001 11 10.5523 11 10.0001C11 9.44777 10.5523 9.00005 10 9.00005H6Z" fill="#B2B8BF"/>
<path d="M6 13.0001C5.44772 13.0001 5 13.4478 5 14.0001C5 14.5523 5.44772 15.0001 6 15.0001H11C11.5523 15.0001 12 14.5523 12 14.0001C12 13.4478 11.5523 13.0001 11 13.0001H6Z" fill="#B2B8BF"/>
</g>
<defs>
<clipPath id="clip0_36700_1149">
<rect width="20" height="20" fill="white"/>
</clipPath>
</defs>
</svg>
