<svg width="20" height="20" viewBox="0 0 20 20" fill="none" xmlns="http://www.w3.org/2000/svg">
<path d="M12.7422 4.97085C12.2063 5.10475 11.6634 4.77894 11.5295 4.24313L11.0344 2.2619C11.0196 2.20718 11.0094 2.1509 11.004 2.09362C10.9656 1.68788 11.179 1.29221 11.5526 1.10545L13.5526 0.10574C14.0466 -0.141192 14.6473 0.0591015 14.8942 0.553108C15.1349 1.03459 14.9507 1.61737 14.4838 1.87524C16.7277 3.08645 18.3957 5.2255 18.9752 7.77983C19.0974 8.31843 18.7599 8.85411 18.2213 8.97631C17.6827 9.0985 17.147 8.76094 17.0248 8.22234C16.5656 6.19819 15.2231 4.50748 13.4247 3.57765L13.4699 3.75823C13.6038 4.29404 13.278 4.83695 12.7422 4.97085Z" fill="#21A19A"/>
<path d="M8.97189 1.76565C9.10192 2.30241 8.77221 2.84296 8.23545 2.97299C5.27881 3.68925 3 6.54324 3 10.033C3 12.0541 4.02758 13.9339 5.45176 15.2829L5.46663 15.1537C5.52978 14.605 6.02576 14.2114 6.57442 14.2746C7.12308 14.3377 7.51666 14.8337 7.45351 15.3824L7.21768 17.4311C7.16408 17.8968 6.79426 18.2627 6.32809 18.3114L4.10424 18.5436C3.55495 18.6009 3.06315 18.2021 3.0058 17.6528C2.94858 17.1048 3.34537 16.6141 3.89268 16.5548C2.24101 14.9125 1 12.6211 1 10.033C1 5.6836 3.85037 1.97745 7.76455 1.02921C8.30131 0.899181 8.84185 1.2289 8.97189 1.76565Z" fill="#21A19A"/>
<path fill-rule="evenodd" clip-rule="evenodd" d="M13.8939 9.08173C13.6424 8.97392 13.3576 8.97392 13.1061 9.08173L9.60608 10.5817C9.2384 10.7393 9 11.1008 9 11.5009C9 13.3213 9.06239 14.7989 9.62438 16.1304C10.2004 17.4953 11.2431 18.5845 12.9082 19.807C13.2604 20.0655 13.7396 20.0655 14.0918 19.807C15.7616 18.5811 16.8049 17.4916 17.3798 16.1269C17.9404 14.7961 18 13.3197 18 11.5009C18 11.1008 17.7616 10.7393 17.3939 10.5817L13.8939 9.08173ZM11.467 15.3527C11.1299 14.5542 11.0252 13.6171 11.0043 12.1584L13.5 11.0888L15.9958 12.1585C15.9754 13.6179 15.8726 14.553 15.5367 15.3505C15.2177 16.1076 14.6477 16.8275 13.5001 17.7429C12.3572 16.8309 11.787 16.111 11.467 15.3527Z" fill="#21A19A"/>
</svg>
