<svg width="32" height="32" viewBox="0 0 32 32" fill="none" xmlns="http://www.w3.org/2000/svg">
<path fill-rule="evenodd" clip-rule="evenodd" d="M4 24C4 23.4477 4.44772 23 5 23H27C27.5523 23 28 23.4477 28 24C28 24.5523 27.5523 25 27 25H5C4.44772 25 4 24.5523 4 24Z" fill="#107F8C"/>
<path fill-rule="evenodd" clip-rule="evenodd" d="M17.3822 7.74302C17.6656 7.40539 18.1689 7.36135 18.5065 7.64466L24.6642 12.8116C25.0019 13.0949 25.0459 13.5983 24.7626 13.9359L19.9132 19.7152C19.5582 20.1383 19.6134 20.769 20.0365 21.124C20.4595 21.479 21.0903 21.4238 21.4453 21.0008L26.2947 15.2215C27.288 14.0377 27.1336 12.2728 25.9498 11.2795L19.7921 6.11257C18.6083 5.11926 16.8435 5.27367 15.8502 6.45745L7.69185 16.1801C6.69854 17.3639 6.85295 19.1288 8.03673 20.1221L9.13739 21.0457C9.56046 21.4007 10.1912 21.3455 10.5462 20.9224C10.9012 20.4993 10.846 19.8686 10.423 19.5136L9.32231 18.59C8.98467 18.3067 8.94064 17.8033 9.22394 17.4657L17.3822 7.74302Z" fill="#107F8C"/>
</svg>
