<svg width="20" height="20" viewBox="0 0 20 20" fill="none" xmlns="http://www.w3.org/2000/svg">
<path d="M9 9.5C9 10.32 8.32 11 7.5 11C6.67 11 6 10.32 6 9.5C6 8.67 6.67 8 7.5 8C8.32 8 9 8.67 9 9.5Z" fill="#B2B8BF"/>
<path d="M13.2 10.2L8.2 15.2C7.81 15.59 7.18 15.59 6.79 15.2C6.4 14.81 6.4 14.18 6.79 13.79L11.79 8.79C12.18 8.4 12.81 8.4 13.2 8.79C13.59 9.18 13.59 9.81 13.2 10.2Z" fill="#B2B8BF"/>
<path d="M14 14.5C14 15.32 13.32 16 12.5 16C11.67 16 11 15.32 11 14.5C11 13.67 11.67 13 12.5 13C13.32 13 14 13.67 14 14.5Z" fill="#B2B8BF"/>
<path fill-rule="evenodd" clip-rule="evenodd" d="M13.4239 0.398773C14.9903 0.0854848 16.5287 1.05058 16.9257 2.59908L16.9615 2.72463C17.1133 3.25567 16.8058 3.80915 16.2747 3.96088C15.7437 4.1126 15.1902 3.80511 15.0385 3.27407L14.9939 3.11805L14.9899 3.10189C14.8598 2.58161 14.3454 2.2555 13.8187 2.35941L2.79698 4.63771C2.50497 4.70149 2.26767 4.88567 2.13013 5.12805C2.40545 5.04477 2.6975 5 3 5H17C18.6569 5 20 6.34315 20 8V16C20 17.6569 18.6569 19 17 19H3C1.34315 19 0 17.6569 0 16V5.61935C0 4.20649 0.990589 2.98045 2.37975 2.68171L2.38757 2.68006L13.4239 0.398773ZM2 8V16C2 16.5523 2.44772 17 3 17H17C17.5523 17 18 16.5523 18 16V8C18 7.44772 17.5523 7 17 7H3C2.44772 7 2 7.44772 2 8Z" fill="#B2B8BF"/>
</svg>
