<svg width="32" height="32" viewBox="0 0 32 32" fill="none" xmlns="http://www.w3.org/2000/svg">
<path d="M16 10C16.5523 10 17 10.4477 17 11V12.0898C17.765 12.2338 18.4174 12.5472 18.9575 13.002C19.7029 13.6296 20.1622 14.4649 20.4506 15.3032C21.017 16.9492 21.007 18.8687 20.9979 20.008C20.9934 20.5603 20.5421 21.0044 19.9899 21C19.4376 20.9955 18.9935 20.5442 18.9979 19.992C19.0074 18.8075 18.9975 17.227 18.5594 15.9539C18.3457 15.3327 18.0517 14.8538 17.6694 14.5319C17.4883 14.3795 17.2701 14.2474 17 14.153V21C17 21.5523 16.5523 22 16 22C15.4477 22 15 21.5523 15 21V14.1531C14.7325 14.2471 14.5174 14.3784 14.3393 14.5295C13.962 14.8496 13.6722 15.3271 13.4609 15.9499C13.0438 17.1791 13.0206 18.6807 13.0022 19.869L12.9999 20.0161C12.991 20.5683 12.5361 21.0087 11.9839 20.9999C11.4317 20.991 10.9913 20.5361 11.0001 19.9839L11.0032 19.7736C11.0192 18.6385 11.0445 16.847 11.5669 15.3073C11.8508 14.4705 12.3037 13.6338 13.0453 13.0045C13.5836 12.5477 14.235 12.2336 15 12.0896V11C15 10.4477 15.4477 10 16 10Z" fill="#107F8C"/>
<path fill-rule="evenodd" clip-rule="evenodd" d="M10 4C6.68629 4 4 6.68629 4 10V22C4 25.3137 6.68629 28 10 28H22C25.3137 28 28 25.3137 28 22V10C28 6.68629 25.3137 4 22 4H10ZM22 6H10C7.79086 6 6 7.79086 6 10V22C6 24.2091 7.79086 26 10 26H22C24.2091 26 26 24.2091 26 22V10C26 7.79086 24.2091 6 22 6Z" fill="#107F8C"/>
</svg>
