<svg width="20" height="20" viewBox="0 0 20 20" fill="none" xmlns="http://www.w3.org/2000/svg">
<path d="M6 0C5.44772 0 5 0.447715 5 1V2C5 2.55228 5.44772 3 6 3H7C7.55228 3 8 2.55228 8 2V1C8 0.447715 7.55228 0 7 0H6Z" fill="#21A19A"/>
<path d="M14 12C13.4477 12 13 12.4477 13 13C13 13.5523 13.4477 14 14 14H16C16.5523 14 17 13.5523 17 13C17 12.4477 16.5523 12 16 12H14Z" fill="#21A19A"/>
<path d="M3 13C3 12.4477 3.44772 12 4 12H6C6.55228 12 7 12.4477 7 13C7 13.5523 6.55228 14 6 14H4C3.44772 14 3 13.5523 3 13Z" fill="#21A19A"/>
<path fill-rule="evenodd" clip-rule="evenodd" d="M4.52631 4.35487C5.06969 4.45366 5.43009 4.97424 5.3313 5.51762L4.69814 9H17C18.6569 9 20 10.3431 20 12V14C20 15.3062 19.1652 16.4175 18 16.8293V17C18 18.6569 16.6569 20 15 20C13.3431 20 12.0001 18.6566 12 17H8C8 18.6569 6.65685 20 5 20C3.34315 20 2 18.6569 2 17V16.8293C0.834808 16.4175 0 15.3062 0 14V12C0 10.4574 1.16423 9.18681 2.66193 9.01884L3.36356 5.15985C3.46236 4.61647 3.98294 4.25607 4.52631 4.35487ZM3.5189 11C3.50705 11.0002 3.49517 11.0002 3.48325 11H3C2.44772 11 2 11.4477 2 12V14C2 14.5523 2.44772 15 3 15C3.55228 15 4 15.4477 4 16L4 17C4 17.5523 4.44772 18 5 18C5.55228 18 6 17.5523 6 17V16C6 15.4477 6.44772 15 7 15H13C13.5523 15 14 15.4477 14 16V16.9998C14 17.5522 14.4478 18 15 18C15.5523 18 16 17.5523 16 17V16C16 15.4477 16.4477 15 17 15C17.5523 15 18 14.5523 18 14V12C18 11.4477 17.5523 11 17 11H3.5189Z" fill="#21A19A"/>
<path d="M8 4C8 3.44772 8.44772 3 9 3H10C10.5523 3 11 3.44772 11 4V5C11 5.55228 10.5523 6 10 6H9C8.44771 6 8 5.55228 8 5V4Z" fill="#21A19A"/>
<path d="M12 0C11.4477 0 11 0.447715 11 1V2C11 2.55228 11.4477 3 12 3H13C13.5523 3 14 2.55228 14 2V1C14 0.447715 13.5523 0 13 0H12Z" fill="#21A19A"/>
<path d="M17 1C17 0.447715 17.4477 0 18 0H19C19.5523 0 20 0.447715 20 1V2C20 2.55228 19.5523 3 19 3H18C17.4477 3 17 2.55228 17 2V1Z" fill="#21A19A"/>
<path d="M15 3C14.4477 3 14 3.44772 14 4V5C14 5.55228 14.4477 6 15 6H16C16.5523 6 17 5.55228 17 5V4C17 3.44772 16.5523 3 16 3H15Z" fill="#21A19A"/>
</svg>
