<svg width="20" height="20" viewBox="0 0 20 20" fill="none" xmlns="http://www.w3.org/2000/svg">
<path fill-rule="evenodd" clip-rule="evenodd" d="M7.48998 3.99586C7.44419 3.17319 7.73553 2.33527 8.364 1.7068C9.53557 0.535232 11.4351 0.535232 12.6066 1.7068L16.1422 5.24234C17.3137 6.41391 17.3137 8.31341 16.1422 9.48498C15.8148 9.81234 15.4306 10.0482 15.0214 10.1926L17.8323 13.0035C18.8895 14.0607 18.8895 15.7748 17.8323 16.832C16.7751 17.8892 15.061 17.8892 14.0039 16.832L11.1931 14.0213C11.0487 14.4306 10.8128 14.8148 10.4854 15.1422C9.31386 16.3138 7.41436 16.3138 6.24279 15.1422L2.70726 11.6067C1.53568 10.4351 1.53569 8.5356 2.70726 7.36403C3.3356 6.73569 4.17333 6.44434 4.99585 6.48999L7.48998 3.99586ZM13.107 11.1067L12.107 12.1067L15.4181 15.4178C15.6942 15.6939 16.1419 15.6939 16.4181 15.4178C16.6942 15.1416 16.6942 14.6939 16.4181 14.4178L13.107 11.1067ZM5.52648 8.76916L9.08029 12.323C9.46172 12.7142 9.4587 13.3405 9.07122 13.728C8.68069 14.1185 8.04753 14.1185 7.65701 13.728L4.12147 10.1925C3.73095 9.80193 3.73095 9.16877 4.12147 8.77824C4.50894 8.39077 5.13527 8.38774 5.52648 8.76916ZM10.4856 10.8997L11.8998 9.48558L8.36422 5.95004L6.95007 7.3642L10.4856 10.8997C10.4857 10.8998 10.4855 10.8997 10.4856 10.8997ZM9.77821 3.12102C9.38768 3.51154 9.38769 4.14471 9.77821 4.53523L13.3137 8.07077C13.7043 8.46129 14.3374 8.46129 14.728 8.07077C15.1185 7.68024 15.1185 7.04708 14.728 6.65655L11.1924 3.12102C10.8019 2.73049 10.1687 2.73049 9.77821 3.12102Z" fill="#107F8C"/>
<path d="M0 19C0 18.4477 0.447715 18 1 18H11C11.5523 18 12 18.4477 12 19C12 19.5523 11.5523 20 11 20H1C0.447715 20 0 19.5523 0 19Z" fill="#107F8C"/>
</svg>
