<svg width="32" height="32" viewBox="0 0 32 32" fill="none" xmlns="http://www.w3.org/2000/svg">
<path fill-rule="evenodd" clip-rule="evenodd" d="M13.2071 6.29304C13.5976 6.68357 13.5976 7.31673 13.2071 7.70726L4.91421 16.0002L13.2071 24.293C13.5976 24.6836 13.5976 25.3167 13.2071 25.7073C12.8166 26.0978 12.1834 26.0978 11.7929 25.7073L3.5 17.4144C2.71895 16.6333 2.71895 15.367 3.5 14.5859L11.7929 6.29304C12.1834 5.90252 12.8166 5.90252 13.2071 6.29304Z" fill="#B2B8BF"/>
<path fill-rule="evenodd" clip-rule="evenodd" d="M19 12C19.5523 12 20 12.4477 20 13V19C20 19.5523 19.5523 20 19 20C18.4477 20 18 19.5523 18 19V13C18 12.4477 18.4477 12 19 12Z" fill="#B2B8BF"/>
<path fill-rule="evenodd" clip-rule="evenodd" d="M25.5 14C24.3954 14 23.5 14.8954 23.5 16C23.5 17.1046 24.3954 18 25.5 18C26.6046 18 27.5 17.1046 27.5 16C27.5 14.8954 26.6046 14 25.5 14ZM21.5 16C21.5 13.7909 23.2909 12 25.5 12C27.7091 12 29.5 13.7909 29.5 16C29.5 18.2091 27.7091 20 25.5 20C23.2909 20 21.5 18.2091 21.5 16Z" fill="#B2B8BF"/>
<path fill-rule="evenodd" clip-rule="evenodd" d="M18.5 16C18.5 15.4477 18.9477 15 19.5 15H21.75C22.3023 15 22.75 15.4477 22.75 16C22.75 16.5523 22.3023 17 21.75 17H19.5C18.9477 17 18.5 16.5523 18.5 16Z" fill="#B2B8BF"/>
<path fill-rule="evenodd" clip-rule="evenodd" d="M15.2071 10.7929C15.5976 11.1834 15.5976 11.8166 15.2071 12.2071L11.4142 16L15.2071 19.7929C15.5976 20.1834 15.5976 20.8166 15.2071 21.2071C14.8166 21.5976 14.1834 21.5976 13.7929 21.2071L10 17.4142C9.21895 16.6332 9.21895 15.3668 10 14.5858L13.7929 10.7929C14.1834 10.4024 14.8166 10.4024 15.2071 10.7929Z" fill="#B2B8BF"/>
</svg>
