<svg width="32" height="32" viewBox="0 0 32 32" fill="none" xmlns="http://www.w3.org/2000/svg">
<path d="M15 5.00001C15.5523 5.00001 16 5.44774 16 6.00001C16 6.5523 15.5523 7.00001 15 7.00001H8C7.44772 7.00001 7.00001 7.44774 7 8.00001V24C7 24.5523 7.44772 25 8 25H22C22.5523 25 23 24.5523 23 24V20C23 19.4477 23.4477 19 24 19C24.5523 19 25 19.4477 25 20V24C25 25.6569 23.6569 27 22 27H8C6.34315 27 5 25.6569 5 24V8.00001C5.00001 6.34317 6.34315 5.00001 8 5.00001H15Z" fill="#107F8C"/>
<path d="M17.1025 20.0049C17.6067 20.0562 18 20.4823 18 21C18 21.5177 17.6067 21.9438 17.1025 21.9951L17 22H11C10.4477 22 10 21.5523 10 21C10 20.4477 10.4477 20 11 20H17L17.1025 20.0049Z" fill="#107F8C"/>
<path d="M14 15C14.5523 15 15 15.4477 15 16C15 16.5523 14.5523 17 14 17H11C10.4477 17 10 16.5523 10 16C10 15.4477 10.4477 15 11 15H14Z" fill="#107F8C"/>
<path fill-rule="evenodd" clip-rule="evenodd" d="M25.4453 5.16798C25.9048 4.86175 26.5257 4.98588 26.832 5.44533L28.5352 8.00001H30C30.3361 8.00001 30.6499 8.16871 30.835 8.44923C31.02 8.72978 31.0512 9.08467 30.9189 9.39357L27.9189 16.3936C27.7614 16.7613 27.4 17 27 17H21C20.6 17 20.2386 16.7613 20.0811 16.3936L17.0811 9.39357C16.9488 9.08467 16.98 8.72978 17.165 8.44923C17.3501 8.16871 17.6639 8.00002 18 8.00001H19.4648L21.168 5.44533C21.4743 4.98588 22.0952 4.86175 22.5547 5.16798C23.0142 5.47433 23.1383 6.09518 22.832 6.5547L21.8691 8.00001H26.1309L25.168 6.5547C24.8617 6.09518 24.9858 5.47433 25.4453 5.16798ZM21.6592 15H26.3408L28.4834 10H19.5166L21.6592 15Z" fill="#107F8C"/>
<path d="M14 10C14.5523 10 15 10.4477 15 11C15 11.5523 14.5523 12 14 12H11C10.4477 12 10 11.5523 10 11C10 10.4477 10.4477 10 11 10H14Z" fill="#107F8C"/>
</svg>
