<svg width="20" height="20" viewBox="0 0 20 20" fill="none" xmlns="http://www.w3.org/2000/svg">
<path d="M16.6878 11.6645C16.4053 11.1987 15.29 11.2184 14.1273 11.2389C14.0406 11.2404 13.9536 11.2419 13.8666 11.2433H12.043C10.8573 11.2433 7.98057 10.7328 7.00708 8.76981C6.71675 8.18439 6.57266 7.72651 6.54791 7.16075C6.52316 6.595 6.63178 6.03141 6.86476 5.51677C7.1844 4.88553 7.63618 4.33278 8.18847 3.89721C8.74076 3.46165 9.38022 3.15378 10.0621 2.99518C8.87802 2.99026 7.71228 3.2917 6.67501 3.871C6.13936 4.18101 5.64514 4.55945 5.20443 4.99705C4.70552 5.52042 4.33018 6.1518 4.10667 6.84365C3.88317 7.5355 3.81733 8.26977 3.91411 8.99117C4.0441 9.75264 4.342 10.4745 4.78558 11.1028C5.22915 11.7311 5.80694 12.2496 6.47577 12.6196C8.4711 13.8666 10.8812 13.7847 12.5786 13.7269L12.5953 13.7264H13.544C14.3125 13.7264 14.8533 13.813 15.0336 14.1883C15.0778 14.3259 15.0778 14.4742 15.0336 14.6118C15.0336 14.6792 15.1 14.6984 15.1569 14.6118C15.8829 13.7861 16.3365 13.0621 16.608 11.9905L16.6878 11.6645Z" fill="#107F8C"/>
<path d="M12.6268 16.4027C12.5546 16.029 11.683 15.9573 10.5995 15.8682L10.5928 15.8677C9.77958 15.811 8.97168 15.6876 8.17618 15.4986C7.12431 15.247 6.14275 14.7338 5.31112 14.0008C4.47949 13.2678 3.82121 12.3355 3.38968 11.2796C3.28705 11.1101 3.28705 11.14 3.28705 11.3195C3.51777 12.4721 4.00923 13.5466 4.71842 14.449C5.42762 15.3514 6.33292 16.0543 7.3551 16.496C8.44258 16.966 9.28856 17.0047 9.53482 17.0047H10.1169C10.9777 16.977 11.8361 16.7673 12.6268 16.4027Z" fill="#107F8C"/>
<path d="M8.58625 5.97991C8.55205 6.16917 8.51247 6.63549 8.60594 7.04458C8.69941 7.45366 8.89059 7.83456 9.16342 8.15529C9.92529 8.96411 10.9046 9.54044 11.986 9.8164C13.0674 10.0924 14.2059 10.0565 15.2675 9.71294C15.8699 9.50238 16.3804 9.09229 16.7129 8.55196C16.5681 7.9198 16.3347 7.31083 16.0195 6.74277C15.8119 6.95958 15.5536 7.1224 15.2675 7.21683C14.7162 7.38498 14.1319 7.41735 13.5651 7.31114C12.9984 7.20492 12.4664 6.96333 12.0152 6.60732C11.8996 6.47718 11.8177 6.321 11.7769 6.15238C11.736 5.98377 11.7374 5.80781 11.7808 5.63984C11.8559 5.41413 11.9833 5.20902 12.153 5.04099C12.3226 4.87296 12.5296 4.7467 12.7575 4.67235C13.1817 4.56597 13.6191 4.52036 14.0564 4.53691C13.6064 4.21573 13.1331 3.92793 12.6403 3.67585C12.5189 3.61535 12.3855 3.58231 12.2496 3.5791H12.0836C11.5503 3.57344 11.0206 3.66527 10.521 3.84999C10.0746 4.00368 9.6708 4.25872 9.34179 4.59472C9.01279 4.93072 8.83023 5.2092 8.67746 5.65612C8.67746 5.65612 8.62045 5.79065 8.58625 5.97991Z" fill="#107F8C"/>
<path fill-rule="evenodd" clip-rule="evenodd" d="M2.8797e-05 10C2.8797e-05 4.47715 4.47718 0 10 0C15.5229 0 20 4.47715 20 10C20 15.5228 15.5229 20 10 20C8.13369 20 6.38447 19.4878 4.88806 18.5962L1.35434 19.9351C0.986479 20.0745 0.571081 19.9853 0.292922 19.7071C0.0147628 19.4289 -0.0744764 19.0135 0.0649001 18.6457L1.40378 15.112C0.512197 13.6156 2.8797e-05 11.8663 2.8797e-05 10ZM10 2C5.58175 2 2.00003 5.58172 2.00003 10C2.00003 11.646 2.49605 13.1731 3.34659 14.4437C3.52653 14.7126 3.56532 15.0518 3.45071 15.3543L2.72173 17.2783L4.64572 16.5493C4.94822 16.4347 5.28747 16.4735 5.55629 16.6534C6.82693 17.504 8.35404 18 10 18C14.4183 18 18 14.4183 18 10C18 5.58172 14.4183 2 10 2Z" fill="#107F8C"/>
</svg>
