<svg width="20" height="20" viewBox="0 0 20 20" fill="none" xmlns="http://www.w3.org/2000/svg">
<path d="M3.83558 2.01376C3.43995 2.0797 3.13755 2.36948 3.03639 2.73186L0.545543 10.7026C0.38081 11.2297 0.674603 11.7906 1.20175 11.9553C1.72889 12.1201 2.28977 11.8263 2.4545 11.2991L4.00002 6.35346L5.54554 11.2991C5.71028 11.8263 6.27115 12.1201 6.7983 11.9553C7.32544 11.7906 7.61924 11.2297 7.4545 10.7026L5.29677 3.79782L9 3.18061L9 18.0004H4C3.44772 18.0004 3 18.4481 3 19.0004C3 19.5527 3.44772 20.0004 4 20.0004H16C16.5523 20.0004 17 19.5527 17 19.0004C17 18.4481 16.5523 18.0004 16 18.0004H11L11 2.84728L14.5608 2.25382L12.5455 8.70258C12.3808 9.22972 12.6746 9.7906 13.2017 9.95533C13.7289 10.1201 14.2898 9.82627 14.4545 9.29913L16 4.35346L17.5455 9.29913C17.7103 9.82627 18.2712 10.1201 18.7983 9.95533C19.3254 9.7906 19.6192 9.22972 19.4545 8.70258L16.9611 0.723542C16.823 0.241493 16.342 -0.0706477 15.8356 0.0137622L3.83558 2.01376Z" fill="#B2B8BF"/>
<path d="M12.2316 11.3605C12.585 10.9361 13.2156 10.8786 13.64 11.232C14.1771 11.6793 15.0142 12.0005 16 12.0005C16.9859 12.0005 17.823 11.6793 18.3601 11.232C18.7845 10.8786 19.415 10.9361 19.7685 11.3605C20.1219 11.7849 20.0644 12.4155 19.64 12.7689C18.7031 13.5491 17.3982 14.0005 16 14.0005C14.6018 14.0005 13.2969 13.5491 12.3601 12.7689C11.9357 12.4155 11.8782 11.7849 12.2316 11.3605Z" fill="#B2B8BF"/>
<path d="M0.231599 13.3605C0.585028 12.9361 1.21557 12.8786 1.63996 13.232C2.1771 13.6793 3.01417 14.0005 4.00003 14.0005C4.98588 14.0005 5.82295 13.6793 6.36009 13.232C6.78448 12.8786 7.41502 12.9361 7.76845 13.3605C8.12188 13.7849 8.06435 14.4155 7.63996 14.7689C6.70314 15.5491 5.39822 16.0005 4.00003 16.0005C2.60183 16.0005 1.29691 15.5491 0.360086 14.7689C-0.0643034 14.4155 -0.121829 13.7849 0.231599 13.3605Z" fill="#B2B8BF"/>
</svg>
