<svg width="32" height="32" viewBox="0 0 32 32" fill="none" xmlns="http://www.w3.org/2000/svg">
<path d="M4 16C4 9.37258 9.37258 4 16 4C17.9995 4 19.8821 4.48826 21.5378 5.3512C22.0276 5.60646 22.6315 5.41636 22.8868 4.92661C23.142 4.43685 22.9519 3.8329 22.4622 3.57764C20.5279 2.56948 18.329 2 16 2C8.26801 2 2 8.26801 2 16C2 23.732 8.26801 30 16 30C23.732 30 30 23.732 30 16C30 13.671 29.4305 11.4721 28.4224 9.53781C28.1671 9.04806 27.5632 8.85796 27.0734 9.11322C26.5836 9.36847 26.3935 9.97243 26.6488 10.4622C27.5117 12.1179 28 14.0005 28 16C28 22.6274 22.6274 28 16 28C9.37258 28 4 22.6274 4 16Z" fill="#107F8C"/>
<path d="M9 16C9 12.134 12.134 9 16 9C16.6058 9 17.1922 9.07673 17.7507 9.22047C18.2856 9.35813 18.8308 9.03615 18.9684 8.50129C19.1061 7.96644 18.7841 7.42126 18.2493 7.2836C17.5293 7.09829 16.7754 7 16 7C11.0294 7 7 11.0294 7 16C7 20.9706 11.0294 25 16 25C20.9706 25 25 20.9706 25 16C25 15.2246 24.9017 14.4707 24.7164 13.7507C24.5787 13.2159 24.0336 12.8939 23.4987 13.0316C22.9639 13.1692 22.6419 13.7144 22.7795 14.2493C22.9233 14.8078 23 15.3942 23 16C23 19.866 19.866 23 16 23C12.134 23 9 19.866 9 16Z" fill="#107F8C"/>
<path d="M18.857 14.5573C19.0763 14.9908 19.1998 15.4809 19.1998 15.9998C19.1998 17.7671 17.7671 19.1998 15.9998 19.1998C14.2325 19.1998 12.7998 17.7671 12.7998 15.9998C12.7998 14.2325 14.2325 12.7998 15.9998 12.7998C16.519 12.7998 17.0094 12.9235 17.443 13.1429L28.293 2.29289C28.6836 1.90237 29.3167 1.90237 29.7073 2.29289C30.0978 2.68342 30.0978 3.31658 29.7073 3.70711L18.857 14.5573Z" fill="#107F8C"/>
</svg>
