<svg width="32" height="32" viewBox="0 0 32 32" fill="none" xmlns="http://www.w3.org/2000/svg">
<path d="M12.0477 15.8313C11.5205 15.8033 11.1017 15.3669 11.1017 14.8328C11.1017 14.2805 11.5494 13.8328 12.1017 13.8328H12.1959C12.738 11.6575 14.7047 10.0459 17.0477 10.0459H17.5913C18.1436 10.0459 18.5913 10.4936 18.5913 11.0459C18.5913 11.5982 18.1436 12.0459 17.5913 12.0459H17.0477C15.8226 12.0459 14.769 12.7802 14.3031 13.8328H16.0641C16.6164 13.8328 17.0641 14.2805 17.0641 14.8328C17.0641 15.385 16.6164 15.8328 16.0641 15.8328H14.0477V16.1035H16.0641C16.6164 16.1035 17.0641 16.5512 17.0641 17.1035C17.0641 17.6558 16.6164 18.1035 16.0641 18.1035H14.3031C14.769 19.156 15.8226 19.8904 17.0477 19.8904H17.5913C18.1436 19.8904 18.5913 20.3381 18.5913 20.8904C18.5913 21.4427 18.1436 21.8904 17.5913 21.8904H17.0477C14.7047 21.8904 12.738 20.2787 12.1959 18.1035H12.1017C11.5494 18.1035 11.1017 17.6558 11.1017 17.1035C11.1017 16.5693 11.5205 16.133 12.0477 16.1049V15.8313Z" fill="#107F8C"/>
<path fill-rule="evenodd" clip-rule="evenodd" d="M3.5 9.96875C3.5 6.65504 6.18629 3.96875 9.5 3.96875H21.5C24.8137 3.96875 27.5 6.65504 27.5 9.96875V21.9688C27.5 25.2825 24.8137 27.9688 21.5 27.9688H9.5C6.18629 27.9688 3.5 25.2825 3.5 21.9688V9.96875ZM9.5 5.96875H21.5C23.7091 5.96875 25.5 7.75961 25.5 9.96875V21.9688C25.5 24.1779 23.7091 25.9688 21.5 25.9688H9.5C7.29086 25.9688 5.5 24.1779 5.5 21.9688V9.96875C5.5 7.75961 7.29086 5.96875 9.5 5.96875Z" fill="#107F8C"/>
</svg>
