<svg width="32" height="32" viewBox="0 0 32 32" fill="none" xmlns="http://www.w3.org/2000/svg">
<path fill-rule="evenodd" clip-rule="evenodd" d="M23.3002 14.5902C23.3045 15.0126 23.0386 15.4079 22.6163 15.5487L20.5163 16.2487C20.311 16.3171 20.0891 16.3171 19.8838 16.2487L18.1 15.6541L17 16.0208V20.2C17 20.4921 17.0913 20.6208 17.1446 20.6741C17.2073 20.7368 17.2974 20.775 17.4 20.775C17.5026 20.775 17.5927 20.7368 17.6554 20.6741C17.7087 20.6208 17.8 20.4921 17.8 20.2C17.8 19.6477 18.2477 19.2 18.8 19.2C19.3523 19.2 19.8 19.6477 19.8 20.2C19.8 20.9579 19.5413 21.6166 19.0696 22.0883C18.6073 22.5506 17.9974 22.775 17.4 22.775C16.8026 22.775 16.1927 22.5506 15.7304 22.0883C15.2587 21.6166 15 20.9579 15 20.2V16.0208L13.9 15.6541L12.1162 16.2487C11.9109 16.3171 11.689 16.3171 11.4837 16.2487L9.38374 15.5487C8.93096 15.3978 8.658 14.9543 8.70492 14.4985C8.71415 14.389 8.74174 14.2791 8.78931 14.1731C9.72337 12.0915 11.9849 10.4488 15 10.149V9.70001C15 9.14773 15.4477 8.70001 16 8.70001C16.5523 8.70001 17 9.14773 17 9.70001V10.1488C20.016 10.4482 22.2782 12.0911 23.2124 14.1731C23.2733 14.3087 23.3014 14.4507 23.3002 14.5902ZM20.7859 14.0506C19.865 12.9667 18.2348 12.1 16.0017 12.1H16C13.7666 12.1 12.1363 12.967 11.2154 14.0511L11.8 14.2459L13.5837 13.6513C13.789 13.5829 14.0109 13.5829 14.2162 13.6513L16 14.2459L17.7838 13.6513C17.9891 13.5829 18.211 13.5829 18.4163 13.6513L20.2 14.2459L20.7859 14.0506Z" fill="#107F8C"/>
<path fill-rule="evenodd" clip-rule="evenodd" d="M15.7194 4.04016C15.9026 3.98661 16.0974 3.98661 16.2806 4.04016L26.2806 6.96308C26.7069 7.08771 27 7.47869 27 7.92292V13.601C27 18.9194 24.2013 23.8744 19.5669 26.8747L16.5449 28.8385C16.2135 29.0538 15.7865 29.0538 15.4551 28.8385L12.4301 26.8728C7.79988 23.8498 5 18.8969 5 13.601V7.92292C5 7.47869 5.29306 7.08771 5.71945 6.96308L15.7194 4.04016ZM7 8.67247V13.601C7 18.1757 9.41951 22.5185 13.5228 25.1977L16 26.8074L18.4798 25.196C22.5792 22.5421 25 18.2014 25 13.601V8.67247L16 6.04184L7 8.67247Z" fill="#107F8C"/>
</svg>
