<svg width="20" height="21" viewBox="0 0 20 21" fill="none" xmlns="http://www.w3.org/2000/svg">
<path fill-rule="evenodd" clip-rule="evenodd" d="M8.65838 15.411C9.21117 16.5166 10.7889 16.5166 11.3417 15.411L13.8416 10.4111C13.9431 10.208 14.0116 9.9558 13.9926 9.67423C13.9696 9.33217 13.8641 8.41523 13.3191 7.55654C12.7318 6.63121 11.6819 5.8583 10 5.8583C8.31815 5.8583 7.26826 6.63121 6.68094 7.55653C6.13591 8.41522 6.03047 9.33216 6.00742 9.67422C5.98844 9.95579 6.05693 10.208 6.15848 10.4111L8.65838 15.411ZM11.982 9.65802L10 13.6222L8.01802 9.65802C8.05124 9.40205 8.14067 8.98885 8.36952 8.62831C8.60941 8.25036 9.03832 7.8583 10 7.8583C10.9617 7.8583 11.3906 8.25036 11.6305 8.62831C11.8594 8.98885 11.9488 9.40205 11.982 9.65802Z" fill="#B2B8BF"/>
<path fill-rule="evenodd" clip-rule="evenodd" d="M10.9805 1.26271C10.3717 0.920243 9.62831 0.920243 9.01948 1.26271L2.01948 5.20021C1.38972 5.55444 1 6.22081 1 6.94336V14.7737C1 15.4962 1.38972 16.1626 2.01948 16.5168L9.01948 20.4543C9.62831 20.7968 10.3717 20.7968 10.9805 20.4543L17.9805 16.5168C18.6103 16.1626 19 15.4962 19 14.7737V6.94336C19 6.22081 18.6103 5.55444 17.9805 5.20021L10.9805 1.26271ZM10 3.00586L17 6.94336V14.7737L10 18.7112L3 14.7737V6.94336L10 3.00586Z" fill="#B2B8BF"/>
</svg>
