<svg width="20" height="20" viewBox="0 0 20 20" fill="none" xmlns="http://www.w3.org/2000/svg">
<path fill-rule="evenodd" clip-rule="evenodd" d="M0 3C0 1.34315 1.34315 0 3 0H17C18.6569 0 20 1.34315 20 3V17C20 18.6569 18.6569 20 17 20H3C1.34315 20 0 18.6569 0 17V3ZM3 2C2.44772 2 2 2.44772 2 3V6H18V3C18 2.44772 17.5523 2 17 2H3ZM2 17V8H6V18H3C2.44772 18 2 17.5523 2 17ZM8 18H17C17.5523 18 18 17.5523 18 17V8H8V18Z" fill="#B2B8BF"/>
<path d="M4 3C3.44772 3 3 3.44772 3 4C3 4.55228 3.44772 5 4 5C4.55228 5 5 4.55228 5 4C5 3.44772 4.55228 3 4 3Z" fill="#B2B8BF"/>
<path d="M10 11C10 10.4477 10.4477 10 11 10H15C15.5523 10 16 10.4477 16 11C16 11.5523 15.5523 12 15 12H11C10.4477 12 10 11.5523 10 11Z" fill="#B2B8BF"/>
<path d="M10 15C10 14.4477 10.4477 14 11 14H15C15.5523 14 16 14.4477 16 15C16 15.5523 15.5523 16 15 16H11C10.4477 16 10 15.5523 10 15Z" fill="#B2B8BF"/>
<path d="M6 4C6 3.44772 6.44772 3 7 3C7.55228 3 8 3.44772 8 4C8 4.55228 7.55228 5 7 5C6.44772 5 6 4.55228 6 4Z" fill="#B2B8BF"/>
<path d="M10 3C9.44772 3 9 3.44772 9 4C9 4.55228 9.44772 5 10 5C10.5523 5 11 4.55228 11 4C11 3.44772 10.5523 3 10 3Z" fill="#B2B8BF"/>
</svg>
