<svg width="21" height="20" viewBox="0 0 21 20" fill="none" xmlns="http://www.w3.org/2000/svg">
<path d="M7.70708 4.70711C8.0976 4.31658 8.0976 3.68342 7.70708 3.29289C7.31655 2.90237 6.68339 2.90237 6.29286 3.29289L0.999971 8.58579C0.218922 9.36684 0.218922 10.6332 0.999971 11.4142L6.29286 16.7071C6.68339 17.0976 7.31655 17.0976 7.70708 16.7071C8.0976 16.3166 8.0976 15.6834 7.70708 15.2929L2.41418 10L7.70708 4.70711Z" fill="#21A19A"/>
<path fill-rule="evenodd" clip-rule="evenodd" d="M11 6.99985C11 6.44756 10.5523 5.99985 9.99997 5.99985C9.44769 5.99985 8.99997 6.44756 8.99997 6.99985V12.9998C8.99997 13.5521 9.44769 13.9998 9.99997 13.9998C10.5523 13.9998 11 13.5521 11 12.9998V10.9998H12.626C13.07 12.7251 14.6361 13.9998 16.5 13.9998C18.7091 13.9998 20.5 12.209 20.5 9.99985C20.5 7.79071 18.7091 5.99985 16.5 5.99985C14.6361 5.99985 13.07 7.27462 12.626 8.99985H11V6.99985ZM16.5 7.99985C15.3954 7.99985 14.5 8.89528 14.5 9.99985C14.5 11.1044 15.3954 11.9998 16.5 11.9998C17.6045 11.9998 18.5 11.1044 18.5 9.99985C18.5 8.89528 17.6045 7.99985 16.5 7.99985Z" fill="#21A19A"/>
</svg>
