<svg width="20" height="20" viewBox="0 0 20 20" fill="none" xmlns="http://www.w3.org/2000/svg">
<path d="M8.1374 12.7142C8.58933 12.2714 9.20547 12 9.88699 12C10.9122 12 11.7932 12.617 12.179 13.5H9.38699C8.83471 13.5 8.38699 13.9477 8.38699 14.5C8.38699 15.0523 8.83471 15.5 9.38699 15.5H12.179C11.7932 16.383 10.9122 17 9.88699 17C9.20547 17 8.58933 16.7286 8.1374 16.2858C7.74294 15.8992 7.1098 15.9056 6.72326 16.3001C6.33672 16.6946 6.34314 17.3277 6.7376 17.7142C7.54821 18.5086 8.66121 19 9.88699 19C12.3723 19 14.387 16.9853 14.387 14.5C14.387 12.0147 12.3723 10 9.88699 10C8.66121 10 7.54821 10.4914 6.7376 11.2858C6.34314 11.6723 6.33672 12.3054 6.72326 12.6999C7.1098 13.0944 7.74294 13.1008 8.1374 12.7142Z" fill="#21A19A"/>
<path fill-rule="evenodd" clip-rule="evenodd" d="M6.77457 4.04965C7.80413 2.22997 9.75747 1 12 1C15.3136 1 17.9999 3.68618 18 6.99979C19.213 7.91094 20 9.36307 20 11C20 12.2674 19.5272 13.4267 18.7497 14.3076C18.5592 14.5234 18.3503 14.7227 18.1255 14.9029C17.6946 15.2484 17.0652 15.1791 16.7198 14.7482C16.3743 14.3172 16.4436 13.6879 16.8745 13.3424C17.0098 13.234 17.1356 13.114 17.2503 12.9841C17.7176 12.4546 18 11.7615 18 11C18 9.88262 17.3896 8.90655 16.4793 8.38926C16.1343 8.19323 15.9378 7.81177 15.9786 7.41708C15.9927 7.28028 16 7.14116 16 7C16 4.79086 14.2091 3 12 3C10.3056 3 8.85488 4.05393 8.27234 5.5456C8.0857 6.02352 7.56765 6.28265 7.07328 6.14537C6.73287 6.05083 6.37318 6 6 6C3.79086 6 2 7.79086 2 10C2 11.308 2.62676 12.4693 3.60058 13.2008C4.04217 13.5325 4.13126 14.1594 3.79957 14.6009C3.46788 15.0425 2.84101 15.1316 2.39942 14.7999C0.944342 13.707 0 11.9636 0 10C0 6.68629 2.68629 4 6 4C6.26214 4 6.5207 4.01687 6.77457 4.04965Z" fill="#21A19A"/>
</svg>
