<svg width="32" height="32" viewBox="0 0 32 32" fill="none" xmlns="http://www.w3.org/2000/svg">
<path fill-rule="evenodd" clip-rule="evenodd" d="M11.9492 4.00001C11.969 3.99994 11.9888 4.00046 12.0083 4.00154C12.0256 4.00065 12.0431 4.0002 12.0606 4.0002L16.6064 4.0002C17.501 4.0002 18.6442 4.21852 19.5987 4.81504C20.5969 5.43883 21.3946 6.49226 21.3946 8.03048C21.3946 9.14102 20.9788 9.99888 20.372 10.6248C21.8641 11.4339 23 12.9831 23 15.0003C23 18.027 20.4425 20.0003 17.9615 20.0003L11.9998 20.0001L11 20.0032L10.9873 16.0003H9C8.44772 16.0003 8 15.5525 8 15.0003C8 14.448 8.44772 14.0003 9 14.0003H10.9809L10.9746 12.0003H9C8.44772 12.0003 8 11.5525 8 11.0003C8 10.448 8.44772 10.0003 9 10.0003H10.9682L10.9524 5.00318C10.9506 4.45089 11.3969 4.00176 11.9492 4.00001ZM12.9683 10.0003L12.9556 6.0002L16.6064 6.0002C17.2271 6.0002 17.978 6.16064 18.5388 6.51108C19.0559 6.83424 19.3946 7.29595 19.3946 8.03048C19.3946 8.76501 19.0559 9.22672 18.5388 9.54989C18.1747 9.77741 17.7305 9.92485 17.2938 10.0003L12.9683 10.0003ZM12.9937 18.0001L12.9748 12.0608L16.6064 12.0608C16.8691 12.0608 17.1531 12.042 17.4475 12.0003H17.9615C19.493 12.0003 21 13.227 21 15.0003C21 16.7735 19.493 18.0003 17.9615 18.0003L12.9937 18.0001Z" fill="#107F8C"/>
<path d="M27.4443 17.3847C27.1043 16.9494 26.4758 16.8723 26.0406 17.2123C25.6054 17.5523 25.5282 18.1807 25.8682 18.6159L27.731 21.0003L23.8248 26.0003H5V18.0003C5 17.448 4.55228 17.0003 4 17.0003C3.44772 17.0003 3 17.448 3 18.0003V26.0003C3 27.1049 3.89543 28.0003 5 28.0003H23.8248C24.4404 28.0003 25.0218 27.7167 25.4008 27.2316L29.3071 22.2316C29.8723 21.508 29.8723 20.4926 29.3071 19.769L27.4443 17.3847Z" fill="#107F8C"/>
</svg>
