<svg width="32" height="32" viewBox="0 0 32 32" fill="none" xmlns="http://www.w3.org/2000/svg">
<path fill-rule="evenodd" clip-rule="evenodd" d="M8 8C7.44772 8 7 8.44772 7 9V19.25C7 19.8023 7.44772 20.25 8 20.25H24C24.5523 20.25 25 19.8023 25 19.25V16C25 15.4477 25.4477 15 26 15C26.5523 15 27 15.4477 27 16V19.25C27 20.9069 25.6569 22.25 24 22.25H17V25H21C21.5523 25 22 25.4477 22 26C22 26.5523 21.5523 27 21 27H11C10.4477 27 10 26.5523 10 26C10 25.4477 10.4477 25 11 25H15V22.25H8C6.34315 22.25 5 20.9069 5 19.25V9C5 7.34315 6.34315 6 8 6H17C17.5523 6 18 6.44772 18 7C18 7.55228 17.5523 8 17 8H8Z" fill="#21A19A"/>
<path d="M20 12C20 12.5523 20.4477 13 21 13L26 13C26.5523 13 27 12.5523 27 12C27 11.4477 26.5523 11 26 11L23.4142 11L27.7071 6.70711C28.0976 6.31658 28.0976 5.68342 27.7071 5.29289C27.3166 4.90237 26.6834 4.90237 26.2929 5.29289L22 9.58579L22 7C22 6.44772 21.5523 6 21 6C20.4477 6 20 6.44772 20 7L20 12Z" fill="#21A19A"/>
</svg>
