<svg width="32" height="32" viewBox="0 0 32 32" fill="none" xmlns="http://www.w3.org/2000/svg">
<path d="M12 16C13.6569 16 15 14.6569 15 13C15 11.3431 13.6569 10 12 10C10.3431 10 9 11.3431 9 13C9 14.6569 10.3431 16 12 16Z" fill="#21A19A"/>
<path fill-rule="evenodd" clip-rule="evenodd" d="M3 13C3 8.02944 7.02944 4 12 4C16.9706 4 21 8.02944 21 13C21 17.9706 16.9706 22 12 22C11.5095 22 11.0281 21.9608 10.5589 21.8852C11.7323 24.3348 14.1723 26.0002 16.9655 26.0002C20.4821 26.0002 23.4403 23.3586 24.013 19.8395C24.1017 19.2944 24.6155 18.9244 25.1606 19.0131C25.7057 19.1018 26.0757 19.6156 25.987 20.1608C25.2667 24.5873 21.5226 28.0002 16.9655 28.0002C12.7507 28.0002 9.23027 25.0794 8.15645 21.1403C5.10848 19.6987 3 16.5956 3 13ZM12 6C8.13401 6 5 9.13401 5 13C5 16.866 8.13401 20 12 20C15.866 20 19 16.866 19 13C19 9.13401 15.866 6 12 6Z" fill="#21A19A"/>
<path d="M26 16C27.6569 16 29 14.6569 29 13C29 11.3431 27.6569 10 26 10C24.3431 10 23 11.3431 23 13C23 14.6569 24.3431 16 26 16Z" fill="#21A19A"/>
</svg>
