<svg width="32" height="32" viewBox="0 0 32 32" fill="none" xmlns="http://www.w3.org/2000/svg">
<path d="M11.553 4.10557C11.8345 3.96481 12.1659 3.96481 12.4474 4.10557L20.4474 8.10557C20.9414 8.35256 21.1416 8.95324 20.8946 9.44721C20.6477 9.94119 20.047 10.1414 19.553 9.89443L12.0002 6.11803L4.44743 9.89443C3.95345 10.1414 3.35278 9.94119 3.10579 9.44721C2.8588 8.95324 3.05903 8.35256 3.55301 8.10557L11.553 4.10557Z" fill="#B2B8BF"/>
<path d="M2.99951 23C2.99951 22.4477 3.44723 22 3.99951 22H11.9995C12.5518 22 12.9995 22.4477 12.9995 23C12.9995 23.5523 12.5518 24 11.9995 24H3.99951C3.44723 24 2.99951 23.5523 2.99951 23Z" fill="#B2B8BF"/>
<path d="M13 12C13 11.4477 12.5523 11 12 11C11.4477 11 11 11.4477 11 12V19C11 19.5523 11.4477 20 12 20C12.5523 20 13 19.5523 13 19V12Z" fill="#B2B8BF"/>
<path d="M7 11C7.55228 11 8 11.4477 8 12V19C8 19.5523 7.55228 20 7 20C6.44772 20 6 19.5523 6 19V12C6 11.4477 6.44772 11 7 11Z" fill="#B2B8BF"/>
<path d="M17.999 12C17.999 11.4477 17.5513 11 16.999 11C16.4467 11 15.999 11.4477 15.999 12V14C15.999 14.5523 16.4467 15 16.999 15C17.5513 15 17.999 14.5523 17.999 14V12Z" fill="#B2B8BF"/>
<path fill-rule="evenodd" clip-rule="evenodd" d="M19 20V27H25V22.1565L23.9647 21.1264L22.8108 20H19ZM17 19.8182C17 18.8353 17.7848 18 18.8 18H23.218C23.479 18 23.7297 18.1021 23.9165 18.2844L25.372 19.7052L26.7053 21.0319C26.8939 21.2195 27 21.4747 27 21.7408V27.1818C27 28.1647 26.2152 29 25.2 29H18.8C17.7848 29 17 28.1647 17 27.1818V19.8182Z" fill="#B2B8BF"/>
</svg>
