<svg width="32" height="32" viewBox="0 0 32 32" fill="none" xmlns="http://www.w3.org/2000/svg">
<path d="M11.5528 4.10557C11.8343 3.96481 12.1657 3.96481 12.4472 4.10557L20.4472 8.10557C20.9412 8.35256 21.1414 8.95324 20.8944 9.44721C20.6474 9.94119 20.0468 10.1414 19.5528 9.89443L12 6.11803L4.44722 9.89443C3.95324 10.1414 3.35257 9.94119 3.10558 9.44721C2.85859 8.95324 3.05881 8.35256 3.55279 8.10557L11.5528 4.10557Z" fill="#107F8C"/>
<path d="M2.99948 23C2.99948 22.4477 3.4472 22 3.99948 22H11.9995C12.5518 22 12.9995 22.4477 12.9995 23C12.9995 23.5523 12.5518 24 11.9995 24H3.99948C3.4472 24 2.99948 23.5523 2.99948 23Z" fill="#107F8C"/>
<path d="M13 12C13 11.4477 12.5523 11 12 11C11.4477 11 11 11.4477 11 12V19C11 19.5523 11.4477 20 12 20C12.5523 20 13 19.5523 13 19V12Z" fill="#107F8C"/>
<path d="M7 11C7.55228 11 8 11.4477 8 12V19C8 19.5523 7.55228 20 7 20C6.44772 20 6 19.5523 6 19V12C6 11.4477 6.44772 11 7 11Z" fill="#107F8C"/>
<path d="M17.9991 12C17.9991 11.4477 17.5514 11 16.9991 11C16.4468 11 15.9991 11.4477 15.9991 12V14C15.9991 14.5523 16.4468 15 16.9991 15C17.5514 15 17.9991 14.5523 17.9991 14V12Z" fill="#107F8C"/>
<path d="M28.7809 20.1253C29.1259 20.5566 29.0559 21.1859 28.6247 21.5309L23.6247 25.5309C23.2635 25.8199 22.7512 25.8234 22.386 25.5394L20.386 23.9838C19.9501 23.6448 19.8716 23.0165 20.2106 22.5805C20.5497 22.1446 21.178 22.0661 21.6139 22.4051L22.9913 23.4764L27.3753 19.9692C27.8066 19.6242 28.4358 19.6941 28.7809 20.1253Z" fill="#107F8C"/>
<path d="M18.5 24C18.5 21.5147 20.5147 19.5 23 19.5C23.5791 19.5 24.1304 19.6089 24.6362 19.8064C25.1507 20.0073 25.7306 19.7532 25.9315 19.2387C26.1324 18.7243 25.8782 18.1444 25.3638 17.9435C24.6298 17.6568 23.832 17.5 23 17.5C19.4101 17.5 16.5 20.4101 16.5 24C16.5 27.5899 19.4101 30.5 23 30.5C26.4263 30.5 29.2327 27.8496 29.482 24.4864C29.5229 23.9357 29.1095 23.4561 28.5587 23.4152C28.0079 23.3744 27.5283 23.7878 27.4875 24.3386C27.315 26.6652 25.3713 28.5 23 28.5C20.5147 28.5 18.5 26.4853 18.5 24Z" fill="#107F8C"/>
</svg>
