<svg width="20" height="20" viewBox="0 0 20 20" fill="none" xmlns="http://www.w3.org/2000/svg">
<path d="M12 4C12 3.44772 12.4477 3 13 3H19C19.5523 3 20 3.44772 20 4C20 4.55228 19.5523 5 19 5H13C12.4477 5 12 4.55228 12 4Z" fill="#107F8C"/>
<path d="M0.292893 12.2929C0.683417 11.9024 1.31658 11.9024 1.70711 12.2929L4 14.5858L6.29289 12.2929C6.68342 11.9024 7.31658 11.9024 7.70711 12.2929C8.09763 12.6834 8.09763 13.3166 7.70711 13.7071L5.41421 16L7.70711 18.2929C8.09763 18.6834 8.09763 19.3166 7.70711 19.7071C7.31658 20.0976 6.68342 20.0976 6.29289 19.7071L4 17.4142L1.70711 19.7071C1.31658 20.0976 0.683417 20.0976 0.292893 19.7071C-0.0976311 19.3166 -0.0976311 18.6834 0.292893 18.2929L2.58579 16L0.292893 13.7071C-0.0976311 13.3166 -0.0976311 12.6834 0.292893 12.2929Z" fill="#107F8C"/>
<path d="M4 0C4.55228 0 5 0.447715 5 1V3H7C7.55228 3 8 3.44772 8 4C8 4.55228 7.55228 5 7 5H5V7C5 7.55228 4.55228 8 4 8C3.44772 8 3 7.55228 3 7V5H1C0.447715 5 0 4.55228 0 4C0 3.44772 0.447715 3 1 3H3V1C3 0.447715 3.44772 0 4 0Z" fill="#107F8C"/>
<path d="M19.7071 13.7071C20.0976 13.3166 20.0976 12.6834 19.7071 12.2929C19.3166 11.9024 18.6834 11.9024 18.2929 12.2929L12.2929 18.2929C11.9024 18.6834 11.9024 19.3166 12.2929 19.7071C12.6834 20.0976 13.3166 20.0976 13.7071 19.7071L19.7071 13.7071Z" fill="#107F8C"/>
<path d="M15 13.5C15 14.3284 14.3284 15 13.5 15C12.6716 15 12 14.3284 12 13.5C12 12.6716 12.6716 12 13.5 12C14.3284 12 15 12.6716 15 13.5Z" fill="#107F8C"/>
<path d="M18.5 20C19.3284 20 20 19.3284 20 18.5C20 17.6716 19.3284 17 18.5 17C17.6716 17 17 17.6716 17 18.5C17 19.3284 17.6716 20 18.5 20Z" fill="#107F8C"/>
</svg>
