<svg width="20" height="20" viewBox="0 0 20 20" fill="none" xmlns="http://www.w3.org/2000/svg">
<path fill-rule="evenodd" clip-rule="evenodd" d="M15.5 0C13.9812 0 12.75 1.23122 12.75 2.75C12.75 4.26878 13.9812 5.5 15.5 5.5C17.0188 5.5 18.25 4.26878 18.25 2.75C18.25 1.23122 17.0188 0 15.5 0ZM14.75 2.75C14.75 2.33579 15.0858 2 15.5 2C15.9142 2 16.25 2.33579 16.25 2.75C16.25 3.16421 15.9142 3.5 15.5 3.5C15.0858 3.5 14.75 3.16421 14.75 2.75ZM2 12C2 8.68629 4.68629 6 8 6C8.25486 6 8.50556 6.01583 8.75126 6.04647C9.2993 6.11481 9.79897 5.72594 9.86731 5.1779C9.93565 4.62986 9.54678 4.13018 8.99874 4.06184C8.67115 4.02099 8.33779 4 8 4C3.58172 4 0 7.58172 0 12C0 16.4183 3.58172 20 8 20C11.729 20 14.8599 17.4495 15.7479 13.9993C15.8856 13.4644 15.5636 12.9192 15.0287 12.7816C14.4939 12.6439 13.9487 12.9659 13.811 13.5007C13.1449 16.0888 10.7944 18 8 18C4.68629 18 2 15.3137 2 12ZM9 8C9 7.44772 8.55229 7 8 7C7.44772 7 7 7.44772 7 8V12C7 12.2652 7.10536 12.5196 7.29289 12.7071L9.29289 14.7071C9.68342 15.0976 10.3166 15.0976 10.7071 14.7071C11.0976 14.3166 11.0976 13.6834 10.7071 13.2929L9 11.5858V8ZM17.4649 7.67476C16.8694 8.04046 16.1772 8.23494 15.4698 8.23494C14.7794 8.23494 14.1016 8.04924 13.5149 7.69914C13.2026 8.07709 13.0254 8.53253 13.0025 9H17.9975C17.9742 8.52137 17.7902 8.05725 17.4649 7.67476ZM16.6191 5.82619C17.1356 5.39474 17.8905 5.39191 18.4105 5.81407L18.4115 5.8149C19.4105 6.62823 20 7.82499 20 9.1038C20 9.36103 19.9752 9.62084 19.9267 9.87671C19.7969 10.5653 19.1875 11 18.5545 11H12.4455C11.811 11 11.2033 10.564 11.0734 9.87687C11.0254 9.62248 11 9.36214 11 9.1038C11 7.84612 11.5726 6.6634 12.5442 5.85136L12.5457 5.85014C13.0619 5.42038 13.815 5.41678 14.3354 5.83852L14.3372 5.84004C14.6451 6.09075 15.0472 6.23494 15.4698 6.23494C15.9006 6.23494 16.3085 6.08567 16.6191 5.82619Z" fill="#21A19A"/>
</svg>
