<svg width="20" height="20" viewBox="0 0 20 20" fill="none" xmlns="http://www.w3.org/2000/svg">
<path d="M1 3C1 1.34315 2.34315 0 4 0H7.26393C7.81622 0 8.26393 0.447715 8.26393 1C8.26393 1.55228 7.81622 2 7.26393 2H4C3.44772 2 3 2.44772 3 3V17C3 17.5523 3.44772 18 4 18H14C14.3689 18 14.6924 17.8008 14.8668 17.4993C15.1434 17.0212 15.7551 16.8579 16.2332 17.1344C16.7112 17.4109 16.8746 18.0227 16.598 18.5007C16.0808 19.3948 15.1117 20 14 20H4C2.34315 20 1 18.6569 1 17V3Z" fill="#21A19A"/>
<path d="M5 14C5 13.4477 5.44772 13 6 13H9C9.55228 13 10 13.4477 10 14C10 14.5523 9.55228 15 9 15H6C5.44772 15 5 14.5523 5 14Z" fill="#21A19A"/>
<path d="M6 9C5.44772 9 5 9.44771 5 10C5 10.5523 5.44772 11 6 11H8C8.55228 11 9 10.5523 9 10C9 9.44771 8.55228 9 8 9H6Z" fill="#21A19A"/>
<path fill-rule="evenodd" clip-rule="evenodd" d="M15 0C12.2386 0 10 2.23858 10 5C10 6.63582 10.7856 8.08816 12 9.00037V14C12 14.3466 12.1795 14.6684 12.4743 14.8507C12.7691 15.0329 13.1372 15.0494 13.4472 14.8944L15 14.118L16.5528 14.8944C16.8628 15.0494 17.2309 15.0329 17.5257 14.8507C17.8205 14.6684 18 14.3466 18 14V9.00037C19.2144 8.08816 20 6.63582 20 5C20 2.23858 17.7614 0 15 0ZM12 5C12 3.34315 13.3431 2 15 2C16.6569 2 18 3.34315 18 5C18 6.65685 16.6569 8 15 8C13.3431 8 12 6.65685 12 5ZM16 9.89998C15.6769 9.96557 15.3425 10 15 10C14.6575 10 14.3231 9.96557 14 9.89998V12.382L14.5528 12.1056C14.8343 11.9648 15.1657 11.9648 15.4472 12.1056L16 12.382V9.89998Z" fill="#21A19A"/>
</svg>
