<svg width="20" height="20" viewBox="0 0 20 20" fill="none" xmlns="http://www.w3.org/2000/svg">
<path fill-rule="evenodd" clip-rule="evenodd" d="M13 12C16.3137 12 19 9.31371 19 6C19 2.68629 16.3137 0 13 0C9.68629 0 7 2.68629 7 6C7 9.31371 9.68629 12 13 12ZM15.5827 9.05458C16.2052 8.52772 16.6645 7.814 16.874 7H15.9585C15.8965 7.7395 15.7668 8.43313 15.5827 9.05458ZM15.5827 2.94542C16.2052 3.47228 16.6645 4.186 16.874 5H15.9585C15.8965 4.2605 15.7668 3.56687 15.5827 2.94542ZM13.3325 2.65179C13.6164 3.2196 13.8514 4.03011 13.9501 5H12.0499C12.1486 4.03011 12.3836 3.2196 12.6675 2.65179C12.8008 2.38528 12.9151 2.22073 13 2.12074C13.0849 2.22073 13.1992 2.38528 13.3325 2.65179ZM12.6675 9.34821C12.3836 8.7804 12.1486 7.96989 12.0499 7H13.9501C13.8514 7.96989 13.6164 8.7804 13.3325 9.34821C13.1992 9.61472 13.0849 9.77926 13 9.87925C12.9151 9.77926 12.8008 9.61472 12.6675 9.34821ZM10.4173 9.05458C10.2332 8.43313 10.1035 7.7395 10.0415 7H9.12602C9.33553 7.814 9.79482 8.52772 10.4173 9.05458ZM10.4173 2.94542C10.2332 3.56687 10.1035 4.2605 10.0415 5H9.12602C9.33553 4.186 9.79482 3.47228 10.4173 2.94542Z" fill="#B2B8BF"/>
<path d="M3 4C2.44772 4 2 4.44772 2 5V13C2 13.5523 2.44772 14 3 14H16C16.4025 14 16.7495 13.7622 16.9081 13.4193C17.0802 13.1175 17.405 12.9141 17.7773 12.9141C18.3296 12.9141 18.7773 13.3618 18.7773 13.9141C18.7773 14.0962 18.7287 14.2669 18.6436 14.414L18.6459 14.4152C18.1403 15.3585 17.1451 16 16 16H11V18H14C14.5523 18 15 18.4477 15 19C15 19.5523 14.5523 20 14 20H6C5.44772 20 5 19.5523 5 19C5 18.4477 5.44772 18 6 18H9V16H3C1.34315 16 0 14.6569 0 13V5C0 3.34315 1.34315 2 3 2H4C4.55228 2 5 2.44772 5 3C5 3.55228 4.55228 4 4 4H3Z" fill="#B2B8BF"/>
</svg>
