<svg width="32" height="32" viewBox="0 0 32 32" fill="none" xmlns="http://www.w3.org/2000/svg">
<path fill-rule="evenodd" clip-rule="evenodd" d="M1.78522 7.46169C1.18319 5.22807 3.22895 3.18231 5.46257 3.78433L18.5992 7.32503C21.5642 8.12417 22.5601 11.8279 20.3959 14.0064L18.7094 15.7039C18.3202 16.0957 17.687 16.0978 17.2952 15.7085C16.9034 15.3193 16.9013 14.6861 17.2906 14.2943L18.977 12.5968C20.0592 11.5076 19.5612 9.65569 18.0787 9.25611L4.94209 5.71542C4.19755 5.51474 3.51563 6.19666 3.7163 6.94121L7.257 20.0778C7.65657 21.5603 9.50845 22.0583 10.5977 20.9762L12.2952 19.2897C12.687 18.9004 13.3202 18.9025 13.7094 19.2943C14.0986 19.6861 14.0966 20.3193 13.7048 20.7085L12.0073 22.395C9.82881 24.5593 6.12506 23.5633 5.32591 20.5983L1.78522 7.46169ZM11.5116 13.5109C11.9022 13.1204 12.5353 13.1204 12.9259 13.5109L17.8504 18.4354C18.4599 19.0449 19.448 19.0449 20.0575 18.4354C21.448 17.0449 23.7025 17.0449 25.093 18.4354L30.7659 24.1083C31.1564 24.4988 31.1564 25.132 30.7659 25.5225C30.3754 25.9131 29.7422 25.9131 29.3517 25.5225L23.6788 19.8496C23.0693 19.2402 22.0812 19.2402 21.4717 19.8496C20.0812 21.2402 17.8267 21.2402 16.4362 19.8496L11.5116 14.9251C11.1211 14.5346 11.1211 13.9014 11.5116 13.5109Z" fill="#107F8C"/>
</svg>
