<svg width="32" height="32" viewBox="0 0 32 32" fill="none" xmlns="http://www.w3.org/2000/svg">
<path d="M6.5 2C5.94772 2 5.5 2.44772 5.5 3C5.5 3.55228 5.94772 4 6.5 4H19.5C20.0523 4 20.5 3.55228 20.5 3C20.5 2.44772 20.0523 2 19.5 2H6.5Z" fill="#107F8C"/>
<path d="M6.5 7C6.5 6.44772 6.94772 6 7.5 6H18.5C19.0523 6 19.5 6.44772 19.5 7C19.5 7.55228 19.0523 8 18.5 8H7.5C6.94772 8 6.5 7.55228 6.5 7Z" fill="#107F8C"/>
<path d="M8.5 10C9.05228 10 9.5 10.4477 9.5 11C9.5 12.5494 10.953 14 13 14C15.047 14 16.5 12.5494 16.5 11C16.5 10.4477 16.9477 10 17.5 10C18.0523 10 18.5 10.4477 18.5 11C18.5 13.8689 15.9236 16 13 16C10.0764 16 7.5 13.8689 7.5 11C7.5 10.4477 7.94772 10 8.5 10Z" fill="#107F8C"/>
<path d="M8.75896 18.3489C9.11857 18.768 9.0703 19.3994 8.65114 19.759C7.08518 21.1025 6 23.0369 6 24.8973C6 25.2573 6.03181 25.6282 6.09475 26H13C13.5523 26 14 26.4477 14 27C14 27.5523 13.5523 28 13 28H6.01829C5.11726 28 4.31249 27.3689 4.14443 26.4564C4.04955 25.9392 4 25.4143 4 24.8973C4 22.2999 5.47147 19.8517 7.34886 18.2411C7.76802 17.8814 8.39934 17.9297 8.75896 18.3489Z" fill="#107F8C"/>
<path d="M14 19C14 18.4477 13.5523 18 13 18C12.4477 18 12 18.4477 12 19V23C12 23.5523 12.4477 24 13 24C13.5523 24 14 23.5523 14 23V19Z" fill="#107F8C"/>
<path fill-rule="evenodd" clip-rule="evenodd" d="M22.0528 17.1056C22.3343 16.9648 22.6657 16.9648 22.9472 17.1056L27.9472 19.6056C28.286 19.775 28.5 20.1212 28.5 20.5C28.5 22.6361 28.0845 24.4585 27.1648 26.0851C26.2499 27.703 24.8764 29.0556 23.0739 30.3189C22.7294 30.5604 22.2706 30.5604 21.9261 30.3189C20.0954 29.0359 18.72 27.6828 17.8116 26.0673C16.8982 24.443 16.5 22.6304 16.5 20.5C16.5 20.1212 16.714 19.775 17.0528 19.6056L22.0528 17.1056ZM18.513 21.1115C18.5819 22.6927 18.9253 23.9674 19.5549 25.087C20.184 26.2058 21.1324 27.2296 22.4996 28.2634C23.8406 27.247 24.7886 26.2241 25.4238 25.1007C26.0609 23.974 26.4152 22.69 26.4865 21.1113L22.5 19.118L18.513 21.1115Z" fill="#107F8C"/>
</svg>
