<svg width="20" height="20" viewBox="0 0 20 20" fill="none" xmlns="http://www.w3.org/2000/svg">
<path d="M10 3.5C10.5523 3.5 11 3.94772 11 4.5V5.45197C11.7417 5.59279 12.3989 5.94559 12.8462 6.60383C13.1566 7.06063 13.0379 7.68258 12.5811 7.99299C12.1243 8.3034 11.5024 8.18474 11.192 7.72794C11.0868 7.57313 10.8514 7.37793 10.1699 7.37793C9.77611 7.37793 9.39675 7.50774 9.18627 7.68617C9.09239 7.76575 9.04466 7.8429 9.02147 7.91712C8.99897 7.98911 8.98029 8.11954 9.04084 8.33882C9.04427 8.3464 9.09352 8.4477 9.40306 8.61559C9.70788 8.78093 10.0877 8.91965 10.5602 9.09219L10.7361 9.15652C11.2388 9.34094 11.8592 9.57493 12.3618 9.91296C12.8853 10.2651 13.4219 10.8273 13.4888 11.6916C13.5354 12.2925 13.4359 12.8362 13.1926 13.305C12.9504 13.7718 12.5965 14.105 12.2252 14.3358C11.8273 14.5831 11.3946 14.7232 11 14.7987V15.5C11 16.0523 10.5523 16.5 10 16.5C9.44772 16.5 9.00001 16.0523 9.00001 15.5V14.7684C8.28271 14.6194 7.64424 14.3016 7.20736 13.7152C6.87738 13.2723 6.9689 12.6458 7.41177 12.3158C7.85465 11.9859 8.48116 12.0774 8.81114 12.5203C8.90148 12.6415 9.2102 12.8779 10.1699 12.8779C10.4938 12.8779 10.8976 12.8061 11.1693 12.6372C11.2906 12.5618 11.3683 12.4783 11.4174 12.3838C11.4653 12.2914 11.5168 12.1294 11.4948 11.8461L11.4947 11.8439C11.4932 11.8204 11.4879 11.7355 11.2456 11.5725C10.9736 11.3896 10.5782 11.2289 10.0473 11.0342C9.99126 11.0136 9.93331 10.9926 9.87387 10.971C9.42623 10.8082 8.89435 10.6149 8.4495 10.3736C7.95462 10.1052 7.33094 9.65606 7.11432 8.87598C6.96458 8.33674 6.95987 7.80906 7.1125 7.32061C7.2645 6.83415 7.55315 6.44865 7.89302 6.16055C8.22216 5.88154 8.60665 5.68568 9.00176 5.55967C9.0006 5.53993 9.00001 5.52003 9.00001 5.5V4.5C9.00001 3.94772 9.44772 3.5 10 3.5Z" fill="#B2B8BF"/>
<path d="M4.20711 6.76775C3.81659 6.37722 3.18342 6.37722 2.7929 6.76775L0.267747 9.2929C0.0724862 9.48816 1.63718e-06 9.74408 0 10C-1.63715e-06 10.2559 0.0724829 10.5118 0.267747 10.7071L2.7929 13.2323C3.18342 13.6228 3.81659 13.6228 4.20711 13.2323C4.59764 12.8417 4.59764 12.2086 4.20711 11.8181L3.38906 11H5.00001C5.55229 11 6.00001 10.5523 6.00001 10C6.00001 9.44772 5.55229 9 5.00001 9H3.38907L4.20711 8.18196C4.59764 7.79144 4.59764 7.15827 4.20711 6.76775Z" fill="#B2B8BF"/>
<path d="M17.2071 6.76775C16.8166 6.37722 16.1834 6.37722 15.7929 6.76775C15.4024 7.15827 15.4024 7.79144 15.7929 8.18196L16.6109 9H15C14.4477 9 14 9.44772 14 10C14 10.5523 14.4477 11 15 11H16.611L15.7929 11.8181C15.4024 12.2086 15.4024 12.8417 15.7929 13.2323C16.1834 13.6228 16.8166 13.6228 17.2071 13.2323L19.7323 10.7071C19.9275 10.5118 20 10.2559 20 10C20 9.74408 19.9275 9.48816 19.7323 9.2929L17.2071 6.76775Z" fill="#B2B8BF"/>
<path fill-rule="evenodd" clip-rule="evenodd" d="M1.2815e-05 3C1.2815e-05 1.34315 1.34316 0 3.00001 0H17C18.6569 0 20 1.34315 20 3V4.5C20 5.05228 19.5523 5.5 19 5.5C18.4477 5.5 18 5.05228 18 4.5V3C18 2.44772 17.5523 2 17 2H3.00001C2.44773 2 2.00001 2.44772 2.00001 3V4.5C2.00001 5.05228 1.5523 5.5 1.00001 5.5C0.447728 5.5 1.2815e-05 5.05228 1.2815e-05 4.5V3ZM1.00001 15C1.5523 15 2.00001 15.4477 2.00001 16V17C2.00001 17.5523 2.44773 18 3.00001 18H17C17.5523 18 18 17.5523 18 17V16C18 15.4477 18.4477 15 19 15C19.5523 15 20 15.4477 20 16V17C20 18.6569 18.6569 20 17 20H3.00001C1.34316 20 1.2815e-05 18.6569 1.2815e-05 17V16C1.2815e-05 15.4477 0.447728 15 1.00001 15Z" fill="#B2B8BF"/>
</svg>
