<svg width="20" height="20" viewBox="0 0 20 20" fill="none" xmlns="http://www.w3.org/2000/svg">
<path d="M9.01921 0.672211C9.74887 0.119636 10.7605 0.132891 11.4754 0.704391L19.6244 7.21849C20.0558 7.56334 20.1259 8.1926 19.7811 8.62399C19.4362 9.05538 18.807 9.12554 18.3756 8.7807L10.2267 2.26659L1.60377 8.79679C1.16349 9.13021 0.536286 9.04359 0.20286 8.60332C-0.130565 8.16304 -0.0439457 7.53583 0.39633 7.2024L9.01921 0.672211Z" fill="#B2B8BF"/>
<path d="M2.99999 9.99959C3.55227 9.99959 3.99998 10.4473 3.99998 10.9996V17.9996H15.9999V10.9996C15.9999 10.4473 16.4476 9.99959 16.9999 9.99959C17.5522 9.99959 17.9999 10.4473 17.9999 10.9996V17.9996C17.9999 19.1041 17.1045 19.9995 15.9999 19.9995H3.99998C2.89542 19.9995 1.99999 19.1041 1.99999 17.9996V10.9996C1.99999 10.4473 2.4477 9.99959 2.99999 9.99959Z" fill="#B2B8BF"/>
<path fill-rule="evenodd" clip-rule="evenodd" d="M10.9999 9.99959C12.1045 9.99959 12.9999 10.895 12.9999 11.9996V13.9996C12.9999 15.1041 12.1045 15.9996 10.9999 15.9996H8.99996C7.89539 15.9996 6.99997 15.1041 6.99997 13.9996V11.9996C6.99997 10.895 7.89539 9.99959 8.99996 9.99959H10.9999ZM10.9999 11.9996H8.99996V13.9996H10.9999V11.9996Z" fill="#B2B8BF"/>
</svg>
