<svg width="20" height="20" viewBox="0 0 20 20" fill="none" xmlns="http://www.w3.org/2000/svg">
<path fill-rule="evenodd" clip-rule="evenodd" d="M14 0C13.4477 0 13 0.447715 13 1V5H12C11.4477 5 11 5.44772 11 6C11 6.55228 11.4477 7 12 7H13V8H12C11.4477 8 11 8.44771 11 9C11 9.55229 11.4477 10 12 10H13V11C13 11.5523 13.4477 12 14 12C14.5523 12 15 11.5523 15 11V10H16C16.5523 10 17 9.55229 17 9C17 8.44771 16.5523 8 16 8H15V7H16.318C17.5542 7 18.4832 6.56012 19.0841 5.83978C19.6562 5.15384 19.84 4.32293 19.84 3.66739V3.5C19.84 2.90961 19.7277 2.04251 19.1902 1.29875C18.6106 0.496627 17.6556 0 16.318 0H14ZM15 2V5H16.318C17.0475 5 17.3795 4.76096 17.5482 4.5587C17.7456 4.32202 17.84 3.98664 17.84 3.66739V3.5C17.84 3.11561 17.7589 2.73271 17.5692 2.47017C17.4216 2.26598 17.1156 2 16.318 2H15Z" fill="#21A19A"/>
<path d="M3 2C1.34315 2 0 3.34315 0 5V13C0 14.6569 1.34315 16 3 16H8V18H5C4.44771 18 4 18.4477 4 19C4 19.5523 4.44771 20 5 20H13C13.5523 20 14 19.5523 14 19C14 18.4477 13.5523 18 13 18H10V16H15C16.6569 16 18 14.6569 18 13V12C18 11.4477 17.5523 11 17 11C16.4477 11 16 11.4477 16 12V13C16 13.5523 15.5523 14 15 14H3C2.44772 14 2 13.5523 2 13V5C2 4.44772 2.44772 4 3 4H9C9.55229 4 10 3.55228 10 3C10 2.44772 9.55229 2 9 2H3Z" fill="#21A19A"/>
<path d="M4 7C4 6.44772 4.44772 6 5 6H7C7.55228 6 8 6.44772 8 7C8 7.55228 7.55228 8 7 8H5C4.44772 8 4 7.55228 4 7Z" fill="#21A19A"/>
<path d="M5 10C4.44772 10 4 10.4477 4 11C4 11.5523 4.44772 12 5 12H9C9.55228 12 10 11.5523 10 11C10 10.4477 9.55229 10 9 10H5Z" fill="#21A19A"/>
</svg>
