<svg width="32" height="32" viewBox="0 0 32 32" fill="none" xmlns="http://www.w3.org/2000/svg">
<path fill-rule="evenodd" clip-rule="evenodd" d="M9 6C6.79086 6 5 7.79086 5 10V22C5 24.2091 6.79086 26 9 26H24C26.2091 26 28 24.2091 28 22V14C28 11.7909 26.2091 10 24 10H9C8.27143 10 7.58835 10.1948 7 10.5351V10C7 8.89543 7.89543 8 9 8H25C25.5523 8 26 7.55228 26 7C26 6.44772 25.5523 6 25 6H9ZM9 24C7.89543 24 7 23.1046 7 22V14C7 12.8954 7.89543 12 9 12H24C25.1046 12 26 12.8954 26 14V22C26 23.1046 25.1046 24 24 24H9ZM23 19C23.5523 19 24 18.5523 24 18C24 17.4477 23.5523 17 23 17C22.4477 17 22 17.4477 22 18C22 18.5523 22.4477 19 23 19Z" fill="#107F8C"/>
</svg>
