<svg width="32" height="32" viewBox="0 0 32 32" fill="none" xmlns="http://www.w3.org/2000/svg">
<path fill-rule="evenodd" clip-rule="evenodd" d="M15 23C15 22.4477 15.4477 22 16 22H20.596C21.1482 22 21.596 22.4477 21.596 23C21.596 23.5523 21.1482 24 20.596 24H16C15.4477 24 15 23.5523 15 23Z" fill="#B2B8BF"/>
<path fill-rule="evenodd" clip-rule="evenodd" d="M15.9998 4.17285C12.9092 4.17285 10.4038 6.67824 10.4038 9.7688C10.4038 12.8594 12.9092 15.3648 15.9998 15.3648C19.0903 15.3648 21.5957 12.8594 21.5957 9.7688C21.5957 6.67824 19.0903 4.17285 15.9998 4.17285ZM12.4038 9.7688C12.4038 7.78281 14.0138 6.17285 15.9998 6.17285C17.9858 6.17285 19.5957 7.78281 19.5957 9.7688C19.5957 11.7548 17.9858 13.3648 15.9998 13.3648C14.0138 13.3648 12.4038 11.7548 12.4038 9.7688Z" fill="#B2B8BF"/>
<path fill-rule="evenodd" clip-rule="evenodd" d="M8.14557 28H23.8544C24.7883 28 25.6558 27.3611 25.8386 26.3921C25.9457 25.8277 26 25.2569 26 24.6955C26 21.8984 24.7117 19.2619 22.4946 17.457L22.4936 17.4561C21.738 16.8427 20.6344 16.8475 19.8852 17.4734C18.7969 18.3825 17.3896 18.8899 15.9223 18.8899C14.4832 18.8899 13.0965 18.4001 12.0177 17.5214L12.0158 17.5199C11.2594 16.9069 10.1584 16.9124 9.40869 17.5366L9.40723 17.5378C7.25198 19.3391 6 21.9451 6 24.6955C6 25.2578 6.05518 25.8281 6.16115 26.3908C6.34414 27.3587 7.20994 28 8.14557 28ZM21.1675 19.0082C21.169 19.007 21.1787 19.0001 21.1991 19C21.2192 18.9999 21.23 19.0065 21.2328 19.0087C23.0016 20.4491 24 22.5241 24 24.6955C24 25.1213 23.9594 25.5592 23.878 25.996C23.8726 25.9981 23.8648 26 23.8544 26H8.14557C8.1351 26 8.12732 25.9981 8.122 25.996C8.041 25.5579 8 25.12 8 24.6955C8 22.5611 8.97081 20.5097 10.6885 19.0735C10.6918 19.0708 10.7023 19.0644 10.7219 19.0643C10.7415 19.0641 10.7525 19.0705 10.7563 19.0735C10.7563 19.0734 10.7564 19.0735 10.7563 19.0735L11.3862 18.2968L10.7546 19.0721C10.7552 19.0726 10.7558 19.073 10.7563 19.0735C12.2005 20.2491 14.0353 20.8899 15.9223 20.8899C17.8469 20.8899 19.7108 20.225 21.1675 19.0082ZM21.2328 19.0087C21.2328 19.0087 21.2329 19.0088 21.2328 19.0087L21.8633 18.2325L21.2319 19.008C21.2322 19.0083 21.2325 19.0085 21.2328 19.0087Z" fill="#B2B8BF"/>
</svg>
