<svg width="20" height="20" viewBox="0 0 20 20" fill="none" xmlns="http://www.w3.org/2000/svg">
<path d="M5.80012 0C5.24785 0 4.80014 0.447703 4.80014 0.999973C4.80014 1.55224 5.24785 1.99995 5.80012 1.99995H14.1999C14.7522 1.99995 15.1999 1.55224 15.1999 0.999973C15.1999 0.447703 14.7522 0 14.1999 0H5.80012Z" fill="#107F8C"/>
<path d="M5.00014 12.4997C5.00014 11.9474 4.55243 11.4997 4.00016 11.4997C3.4479 11.4997 3.00019 11.9474 3.00019 12.4997V16.9995C3.00019 18.6563 4.3433 19.9995 6.00011 19.9995H13.9999C15.6567 19.9995 16.9998 18.6563 16.9998 16.9995V12.4997C16.9998 11.9474 16.5521 11.4997 15.9998 11.4997C15.4476 11.4997 14.9999 11.9474 14.9999 12.4997V16.9995C14.9999 17.5518 14.5522 17.9995 13.9999 17.9995H6.00011C5.44784 17.9995 5.00014 17.5518 5.00014 16.9995V12.4997Z" fill="#107F8C"/>
<path fill-rule="evenodd" clip-rule="evenodd" d="M10 10.9997C8.34319 10.9997 7.00008 12.3428 7.00008 13.9996C7.00008 15.6564 8.34319 16.9995 10 16.9995C11.6568 16.9995 12.9999 15.6564 12.9999 13.9996C12.9999 12.3428 11.6568 10.9997 10 10.9997ZM9.00003 13.9996C9.00003 13.4473 9.44773 12.9996 10 12.9996C10.5523 12.9996 11 13.4473 11 13.9996C11 14.5519 10.5523 14.9996 10 14.9996C9.44773 14.9996 9.00003 14.5519 9.00003 13.9996Z" fill="#107F8C"/>
<path d="M0.0515866 2.68373C-0.123056 3.20765 0.160096 3.77396 0.684025 3.9486L3.68394 4.94857C4.20787 5.12322 4.77418 4.84007 4.94882 4.31614C5.12346 3.79221 4.84031 3.2259 4.31638 3.05126L1.31646 2.05129C0.792534 1.87664 0.22623 2.1598 0.0515866 2.68373Z" fill="#107F8C"/>
<path d="M19.9484 2.68373C20.123 3.20765 19.8399 3.77396 19.316 3.9486L16.316 4.94857C15.7921 5.12322 15.2258 4.84007 15.0512 4.31614C14.8765 3.79221 15.1597 3.2259 15.6836 3.05126L18.6835 2.05129C19.2075 1.87664 19.7738 2.1598 19.9484 2.68373Z" fill="#107F8C"/>
<path fill-rule="evenodd" clip-rule="evenodd" d="M7.00008 5.99983C7.00008 4.34303 8.34318 2.99992 9.99999 2.99992C11.6568 2.99992 12.9999 4.34303 12.9999 5.99983C12.9999 7.65664 11.6568 8.99975 9.99999 8.99975C8.34318 8.99975 7.00008 7.65664 7.00008 5.99983ZM9.99999 4.99986C9.44772 4.99986 9.00002 5.44757 9.00002 5.99983C9.00002 6.5521 9.44772 6.99981 9.99999 6.99981C10.5523 6.99981 11 6.5521 11 5.99983C11 5.44757 10.5523 4.99986 9.99999 4.99986Z" fill="#107F8C"/>
<path d="M19.316 8.05107C19.8399 8.22571 20.123 8.79202 19.9484 9.31594C19.7738 9.83987 19.2075 10.123 18.6835 9.94838L15.6836 8.94841C15.1597 8.77377 14.8765 8.20746 15.0512 7.68353C15.2258 7.1596 15.7921 6.87645 16.316 7.05109L19.316 8.05107Z" fill="#107F8C"/>
<path d="M0.684025 8.05107C0.160096 8.22571 -0.123056 8.79202 0.0515866 9.31594C0.22623 9.83987 0.792534 10.123 1.31646 9.94838L4.31638 8.94841C4.84031 8.77377 5.12346 8.20746 4.94882 7.68353C4.77418 7.1596 4.20787 6.87645 3.68394 7.05109L0.684025 8.05107Z" fill="#107F8C"/>
</svg>
