<svg width="32" height="32" viewBox="0 0 32 32" fill="none" xmlns="http://www.w3.org/2000/svg">
<path fill-rule="evenodd" clip-rule="evenodd" d="M5.98814 8C5.98814 7.44772 6.43585 7 6.98814 7H14.9845C17.4032 7 19.4212 8.71743 19.8845 11H23.4955C25.9812 11 27.998 13.0118 28.0042 15.4975L28.0153 20.0002C28.0195 21.6599 26.6751 23.0076 25.0154 23.0076H23.8254C23.4109 24.1678 22.3022 24.998 20.9995 24.998C19.6934 24.998 18.5823 24.1634 18.1704 22.9985H12.8292C12.4172 24.1634 11.3061 24.998 10 24.998C8.69393 24.998 7.5828 24.1634 7.17085 22.9985H6C4.89543 22.9985 4 22.103 4 20.9985V17.9781C4 17.4258 4.44772 16.9781 5 16.9781C5.55228 16.9781 6 17.4258 6 17.9781V20.4985C6 20.7746 6.22386 20.9985 6.5 20.9985H7.17056C7.58229 19.833 8.69363 18.998 10 18.998C11.3064 18.998 12.4177 19.833 12.8294 20.9985H17.4977C17.7741 20.9985 17.9981 20.7741 17.9977 20.4977L17.9845 11.9954C17.982 10.3403 16.6396 9 14.9845 9H6.98814C6.43585 9 5.98814 8.55228 5.98814 8ZM23.8322 21.0076H25.0154C25.5686 21.0076 26.0167 20.5584 26.0154 20.0051L26.0079 17H19.9923L19.9956 19.1701C20.3095 19.0587 20.6474 18.998 20.9995 18.998C22.3093 18.998 23.423 19.8374 23.8322 21.0076ZM25.9526 15C25.7174 13.8581 24.7064 13 23.4955 13H19.9861L19.9892 15H25.9526ZM19.9998 22.0205C20.0117 22.5624 20.4547 22.998 20.9995 22.998C21.5518 22.998 21.9995 22.5503 21.9995 21.998C21.9995 21.4458 21.5518 20.998 20.9995 20.998C20.4573 20.998 20.0158 21.4296 20 21.968L20 21.9969L19.9998 22.0205ZM10 20.998C9.44772 20.998 9 21.4458 9 21.998C9 22.5503 9.44772 22.998 10 22.998C10.5523 22.998 11 22.5503 11 21.998C11 21.4458 10.5523 20.998 10 20.998ZM7.99152 15.9854C7.99152 15.4331 8.43923 14.9854 8.99152 14.9854L12 14.9854C12.5523 14.9854 13 15.4331 13 15.9854C13 16.5376 12.5523 16.9854 12 16.9854H8.99152C8.43923 16.9854 7.99152 16.5376 7.99152 15.9854ZM4 11.9746C4 11.4223 4.44772 10.9746 5 10.9746H10.0855C10.6377 10.9746 11.0855 11.4223 11.0855 11.9746C11.0855 12.5269 10.6377 12.9746 10.0855 12.9746H5C4.44772 12.9746 4 12.5269 4 11.9746Z" fill="#21A19A"/>
</svg>
