<svg width="32" height="32" viewBox="0 0 32 32" fill="none" xmlns="http://www.w3.org/2000/svg">
<path fill-rule="evenodd" clip-rule="evenodd" d="M5.00001 8V9H4.00001C3.44775 9 3.00001 9.44727 3.00001 10C3.00001 10.5527 3.44775 11 4.00001 11H5.00001V12C5.00001 12.5527 5.44775 13 6 13C6.55225 13 7 12.5527 7 12V11H7.98828C8.54053 11 8.98829 10.5527 8.98829 10C8.98829 9.44727 8.54053 9 7.98828 9H7V8H8.83838C9.99365 8 10.8413 7.5127 11.3645 6.78125C11.8516 6.09961 12 5.29102 12 4.66699V4.5C12 3.93066 11.9084 3.08887 11.4556 2.35742C10.9565 1.55176 10.0898 1 8.83838 1H6.23047C6.19166 1 6.15333 1.00195 6.11523 1.00684C6.07764 1.00195 6.03906 1 6 1C5.44775 1 5.00001 1.44727 5.00001 2V6H4.00001C3.44775 6 3.00001 6.44727 3.00001 7C3.00001 7.55273 3.44775 8 4.00001 8H5.00001ZM24.1277 10.5088C24.1494 10.5625 24.1709 10.6162 24.1919 10.6699C24.396 11.1787 24.9727 11.4287 25.4841 11.2285C25.9985 11.0273 26.2522 10.4473 26.051 9.93262C25.9976 9.7959 25.9419 9.66113 25.884 9.52637C25.8403 9.42578 25.7957 9.32617 25.7495 9.22656C25.7017 9.12305 25.6521 9.02051 25.6011 8.91797C25.4729 8.66016 25.3357 8.40723 25.1904 8.15918C24.2932 6.63086 23.0779 5.30469 21.6191 4.27539C19.6743 2.90234 17.3779 2.11328 14.9995 2.00098C14.448 1.97559 13.9795 2.40137 13.9536 2.95312C13.928 3.49707 14.3418 3.95996 14.8821 3.99707C15.3931 4.02051 15.9033 4.08105 16.4087 4.17871C18.147 4.51562 19.7715 5.28711 21.1318 6.41992C21.8506 7.01953 22.4829 7.70898 23.0146 8.46973C23.0835 8.56738 23.1504 8.66699 23.2158 8.76758C23.2642 8.8418 23.3115 8.91699 23.3579 8.99219C23.4592 9.15755 23.556 9.32552 23.6484 9.49609C23.7183 9.62598 23.7856 9.75684 23.8501 9.88965C23.9492 10.0928 24.0415 10.2988 24.1277 10.5088ZM7 3V6H8.83838C9.36792 6 9.60107 5.80859 9.73755 5.61719C9.90991 5.37598 10 5.01855 10 4.66699V4.5C10 4.09473 9.92579 3.68652 9.75537 3.41113C9.6311 3.21094 9.41699 3 8.83838 3H7ZM22 12C17.0293 12 13 16.0293 13 21V29C13 29.5527 13.4478 30 14 30H22C26.9707 30 31 25.9707 31 21C31 16.0293 26.9707 12 22 12ZM15 21C15 17.1338 18.134 14 22 14C25.866 14 29 17.1338 29 21C29 24.8662 25.866 28 22 28H15V21ZM2.86256 19.2725C2.43702 18.2451 2.14796 17.1602 2.00782 16.0459C1.93897 15.498 2.32739 14.998 2.87549 14.9287C3.41846 14.8604 3.91407 15.2412 3.99024 15.7812C4.04492 16.2207 4.12745 16.6572 4.2378 17.0889C4.37794 17.6367 4.56152 18.1699 4.78613 18.6855C4.83204 18.79 4.87989 18.8955 4.92921 18.999C4.98243 19.1104 5.03761 19.2217 5.09449 19.3311C5.17286 19.4824 5.25537 19.6309 5.34132 19.7783C5.37728 19.8408 5.41398 19.9024 5.45142 19.9629C5.51953 20.0752 5.5901 20.1855 5.66261 20.2949C5.86817 20.6045 6.09058 20.9033 6.3291 21.1914C7.60303 22.7266 9.28809 23.8672 11.187 24.4805C11.6995 24.6582 11.9775 25.2148 11.8093 25.7334C11.6387 26.2588 11.0747 26.5459 10.5493 26.376C8.54468 25.7246 6.7373 24.5771 5.29492 23.04C4.86182 22.5781 4.46558 22.0859 4.10938 21.5684C4.08569 21.5332 4.05421 21.4873 4.03102 21.4521C3.94166 21.3193 3.85498 21.1846 3.77076 21.0479C3.68824 20.9141 3.6084 20.7793 3.53101 20.6426C3.41171 20.4317 3.29883 20.2178 3.19238 20.001C3.1543 19.9238 3.11695 19.8457 3.08057 19.7676C3.05713 19.7178 3.03418 19.668 3.01172 19.6172C2.98438 19.5566 2.95752 19.4961 2.93115 19.4346C2.91113 19.3887 2.88209 19.3193 2.86256 19.2725ZM22.231 26C24.1265 26 26 24.6846 26 22.5C26 20.3154 24.1265 19 22.231 19H20V18H24C24.5522 18 25 17.5527 25 17C25 16.4473 24.5522 16 24 16H20C18.8955 16 18 16.8955 18 18V26H22.231ZM20 24H22.231C23.3071 24 24 23.3154 24 22.5C24 21.6846 23.3071 21 22.231 21H20V24Z" fill="#107F8C"/>
</svg>
