<svg width="20" height="20" viewBox="0 0 20 20" fill="none" xmlns="http://www.w3.org/2000/svg">
<path d="M16.364 3.63634C14.4114 1.68372 11.2456 1.68372 9.29295 3.63634L7.87874 5.05055C7.48821 5.44108 7.48821 6.07424 7.87874 6.46477C8.26926 6.85529 8.90243 6.85529 9.29295 6.46477L10.7072 5.05055C11.8787 3.87898 13.7782 3.87898 14.9498 5.05055C16.1214 6.22213 16.1214 8.12162 14.9498 9.2932L13.5356 10.7074C13.1451 11.0979 13.1451 11.7311 13.5356 12.1216C13.9261 12.5121 14.5593 12.5121 14.9498 12.1216L16.364 10.7074C18.3166 8.75479 18.3166 5.58896 16.364 3.63634Z" fill="#21A19A"/>
<path d="M6.46452 9.2932C6.85505 8.90267 6.85505 8.26951 6.46452 7.87898C6.074 7.48846 5.44083 7.48846 5.05031 7.87898L3.6361 9.2932C1.68348 11.2458 1.68348 14.4116 3.6361 16.3643C5.58872 18.3169 8.75454 18.3169 10.7072 16.3643L12.1214 14.95C12.5119 14.5595 12.5119 13.9264 12.1214 13.5358C11.7309 13.1453 11.0977 13.1453 10.7072 13.5358L9.29295 14.95C8.12138 16.1216 6.22188 16.1216 5.05031 14.95C3.87874 13.7785 3.87874 11.879 5.05031 10.7074L6.46452 9.2932Z" fill="#21A19A"/>
<path d="M12.8284 8.58639C13.219 8.19586 13.219 7.5627 12.8284 7.17217C12.4379 6.78165 11.8047 6.78165 11.4142 7.17217L7.17158 11.4148C6.78106 11.8053 6.78106 12.4385 7.17158 12.829C7.56211 13.2196 8.19527 13.2196 8.5858 12.829L12.8284 8.58639Z" fill="#21A19A"/>
</svg>
