<svg width="20" height="20" viewBox="0 0 20 20" fill="none" xmlns="http://www.w3.org/2000/svg">
<path d="M6.7168 16.7663C7.06036 16.3339 7.68968 16.2616 8.12207 16.6052C8.85833 17.1902 9.6425 17.6985 10.4443 18.11C10.9356 18.3623 11.1301 18.9654 10.8779 19.4567C10.6256 19.9477 10.0224 20.1414 9.53125 19.8893C8.6075 19.4152 7.71281 18.8349 6.87793 18.1716C6.4457 17.8281 6.37363 17.1987 6.7168 16.7663Z" fill="#B2B8BF"/>
<path fill-rule="evenodd" clip-rule="evenodd" d="M16.7188 12.7497C17.2291 12.3956 17.9227 12.4184 18.4102 12.8141C19.409 13.6274 19.9999 14.8246 20 16.1032C20 16.3606 19.9753 16.6216 19.9268 16.8776L19.9258 16.8766C19.7957 17.5648 19.1874 17.9996 18.5547 17.9997H12.4453C11.811 17.9996 11.2033 17.5634 11.0732 16.8766C11.0254 16.6224 11 16.3614 11 16.1032C11.0001 14.8458 11.5727 13.6632 12.5439 12.8513L12.5459 12.8503C13.0621 12.4205 13.8146 12.4169 14.335 12.8386L14.3369 12.8395C14.5978 13.0519 15.007 13.1823 15.5 13.1823C15.9776 13.1823 16.3407 13.0584 16.6191 12.8259L16.7188 12.7497ZM17.459 14.6725C16.8505 15.0352 16.1733 15.1823 15.5 15.1823C14.8577 15.1823 14.1489 15.0492 13.5215 14.694C13.2062 15.0731 13.0289 15.5298 13.0059 15.9997H17.9941C17.9707 15.5195 17.7863 15.0557 17.459 14.6725Z" fill="#B2B8BF"/>
<path fill-rule="evenodd" clip-rule="evenodd" d="M5.71875 10.2497C6.22913 9.89557 6.92275 9.91842 7.41016 10.3141C8.40904 11.1274 8.99991 12.3246 9 13.6032C8.99998 13.8606 8.97532 14.1216 8.92676 14.3776L8.92578 14.3766C8.79571 15.0648 8.1874 15.4996 7.55469 15.4997H1.44531C0.810954 15.4996 0.203271 15.0635 0.0732422 14.3766C0.0253745 14.1224 2.04021e-05 13.8614 0 13.6032C8.81267e-05 12.3458 0.572679 11.1632 1.54395 10.3513L1.5459 10.3503C2.06207 9.92053 2.8146 9.91688 3.33496 10.3386L3.33691 10.3395C3.5978 10.5519 4.00697 10.6823 4.5 10.6823C4.97763 10.6823 5.34072 10.5584 5.61914 10.3259L5.71875 10.2497ZM6.45898 12.1725C5.8505 12.5352 5.17328 12.6823 4.5 12.6823C3.85772 12.6823 3.14886 12.5492 2.52148 12.194C2.20617 12.5731 2.02891 13.0298 2.00586 13.4997H6.99414C6.97074 13.0195 6.7863 12.5557 6.45898 12.1725Z" fill="#B2B8BF"/>
<path fill-rule="evenodd" clip-rule="evenodd" d="M15.5 7.49969C16.8807 7.49969 18 8.61898 18 9.99969C17.9998 11.3803 16.8806 12.4997 15.5 12.4997C14.1194 12.4997 13.0002 11.3803 13 9.99969C13 8.61898 14.1193 7.49969 15.5 7.49969ZM15.5 9.49969C15.2239 9.49969 15 9.72355 15 9.99969C15.0002 10.2757 15.224 10.4997 15.5 10.4997C15.776 10.4997 15.9998 10.2757 16 9.99969C16 9.72355 15.7761 9.49969 15.5 9.49969Z" fill="#B2B8BF"/>
<path fill-rule="evenodd" clip-rule="evenodd" d="M4.5 4.99969C5.88071 4.99969 7 6.11898 7 7.49969C6.99983 8.88026 5.88061 9.99969 4.5 9.99969C3.11939 9.99969 2.00017 8.88026 2 7.49969C2 6.11898 3.11929 4.99969 4.5 4.99969ZM4.5 6.99969C4.22386 6.99969 4 7.22355 4 7.49969C4.00017 7.77569 4.22396 7.99969 4.5 7.99969C4.77604 7.99969 4.99983 7.77569 5 7.49969C5 7.22355 4.77614 6.99969 4.5 6.99969Z" fill="#B2B8BF"/>
<path d="M9.69824 0.0426569C9.88665 -0.0143032 10.0879 -0.0141347 10.2764 0.0426569L17.7881 2.30633C18.2104 2.43364 18.5 2.82225 18.5 3.26336V5.99969C18.4998 6.55183 18.0522 6.99969 17.5 6.99969C16.9478 6.99969 16.5002 6.55183 16.5 5.99969V4.00555L9.98828 2.04363L2.78906 4.22039C2.2606 4.37997 1.70287 4.08079 1.54297 3.55242C1.38334 3.02388 1.68243 2.46616 2.21094 2.30633L9.69824 0.0426569Z" fill="#B2B8BF"/>
</svg>
