<svg width="20" height="20" viewBox="0 0 20 20" fill="none" xmlns="http://www.w3.org/2000/svg">
<path d="M3 0C1.34315 0 0 1.34315 0 3V17C0 18.6569 1.34315 20 3 20H17C18.6569 20 20 18.6569 20 17V16C20 15.4477 19.5523 15 19 15C18.4477 15 18 15.4477 18 16V17C18 17.5523 17.5523 18 17 18H3C2.44772 18 2 17.5523 2 17V8H14C14.5523 8 15 7.55228 15 7C15 6.44772 14.5523 6 14 6H2V3C2 2.44772 2.44772 2 3 2H17C17.5523 2 18 2.44772 18 3V4C18 4.55228 18.4477 5 19 5C19.5523 5 20 4.55228 20 4V3C20 1.34315 18.6569 0 17 0H3Z" fill="#21A19A"/>
<path d="M4 3C3.44772 3 3 3.44772 3 4C3 4.55228 3.44772 5 4 5C4.55228 5 5 4.55228 5 4C5 3.44772 4.55228 3 4 3Z" fill="#21A19A"/>
<path d="M6 4C6 3.44772 6.44772 3 7 3C7.55228 3 8 3.44772 8 4C8 4.55228 7.55228 5 7 5C6.44772 5 6 4.55228 6 4Z" fill="#21A19A"/>
<path d="M10 3C9.44772 3 9 3.44772 9 4C9 4.55228 9.44772 5 10 5C10.5523 5 11 4.55228 11 4C11 3.44772 10.5523 3 10 3Z" fill="#21A19A"/>
<path d="M19.6402 9.76825C20.0645 9.41468 20.1218 8.78412 19.7682 8.35984C19.4147 7.93556 18.7841 7.87824 18.3598 8.2318L13.0614 12.6472L11.7071 11.2929C11.3166 10.9024 10.6834 10.9024 10.2929 11.2929C9.90237 11.6834 9.90237 12.3166 10.2929 12.7071L12.2929 14.7071C12.6586 15.0728 13.2429 15.0994 13.6402 14.7682L19.6402 9.76825Z" fill="#21A19A"/>
</svg>
