<svg width="20" height="20" viewBox="0 0 20 20" fill="none" xmlns="http://www.w3.org/2000/svg">
<path fill-rule="evenodd" clip-rule="evenodd" d="M7.49992 0C5.01466 0 2.99997 2.0147 2.99997 4.49995C2.99997 6.98521 5.01466 8.9999 7.49992 8.9999C9.98517 8.9999 11.9999 6.98521 11.9999 4.49995C11.9999 2.0147 9.98517 0 7.49992 0ZM4.99995 4.49995C4.99995 3.11925 6.11922 1.99998 7.49992 1.99998C8.88062 1.99998 9.99989 3.11925 9.99989 4.49995C9.99989 5.88065 8.88062 6.99993 7.49992 6.99993C6.11922 6.99993 4.99995 5.88065 4.99995 4.49995Z" fill="#107F8C"/>
<path d="M7.4438 12.4698C6.08026 12.4698 4.76002 11.9991 3.69832 11.1424C2.61852 12.2007 1.99998 13.6685 1.99998 15.2075C1.99998 15.4665 2.01874 15.7324 2.05597 15.9999H6.99993C7.5522 15.9999 7.99991 16.4476 7.99991 16.9999C7.99991 17.5522 7.5522 17.9999 6.99993 17.9999H1.82734C0.971523 17.9999 0.263151 17.3763 0.11897 16.555C0.0408377 16.1082 0 15.6546 0 15.2075C0 13.027 0.921072 10.9446 2.53269 9.494L2.53412 9.49272C3.18633 8.90795 4.16605 8.90199 4.8253 9.47738L4.82715 9.479C5.55753 10.1196 6.48728 10.4698 7.4438 10.4698C7.99608 10.4698 8.44379 10.9176 8.44379 11.4698C8.44379 12.0221 7.99608 12.4698 7.4438 12.4698Z" fill="#107F8C"/>
<path d="M14.8319 12.4453C14.5256 11.9857 13.9047 11.8616 13.4452 12.1679C12.9856 12.4743 12.8615 13.0951 13.1678 13.5547L14.1313 14.9998H12.4141L11.207 13.7927C10.8165 13.4022 10.1833 13.4022 9.79279 13.7927C9.40227 14.1833 9.40227 14.8164 9.79279 15.2069L11.2928 16.7069C11.4803 16.8945 11.7347 16.9998 11.9999 16.9998H14.1314L13.1678 18.4452C12.8615 18.9047 12.9856 19.5256 13.4452 19.8319C13.9047 20.1383 14.5255 20.0141 14.8319 19.5546L16.5351 16.9998H18.9998C19.5521 16.9998 19.9998 16.5521 19.9998 15.9998C19.9998 15.4476 19.5521 14.9998 18.9998 14.9998H16.535L14.8319 12.4453Z" fill="#107F8C"/>
</svg>
