<svg width="20" height="20" viewBox="0 0 20 20" fill="none" xmlns="http://www.w3.org/2000/svg">
<path fill-rule="evenodd" clip-rule="evenodd" d="M5 5C5 2.23857 7.23857 0 9.99999 0C12.7614 0 15 2.23857 15 5C15 7.76142 12.7614 9.99999 9.99999 9.99999C7.23857 9.99999 5 7.76142 5 5ZM9.99999 2C8.34314 2 6.99999 3.34314 6.99999 5C6.99999 6.65685 8.34314 7.99999 9.99999 7.99999C11.6568 7.99999 13 6.65685 13 5C13 3.34314 11.6568 2 9.99999 2Z" fill="#107F8C"/>
<path d="M14.4363 10.5752C14.7849 10.1469 15.4148 10.0824 15.8431 10.4311C17.8388 12.0557 19 14.4304 19 16.9515C19 17.4576 18.951 17.9719 18.8546 18.4802C18.6814 19.3982 17.8608 19.9999 16.9817 19.9999H3.01828C2.13739 19.9999 1.31862 19.3964 1.14529 18.4796C1.04988 17.973 0.999999 17.4585 0.999999 16.9515C0.999999 14.4724 2.12846 12.1253 4.06851 10.5038C4.49227 10.1496 5.12292 10.2061 5.47709 10.6298C5.83127 11.0536 5.77485 11.6842 5.35109 12.0384C3.84778 13.2948 3 15.088 3 16.9515C3 17.2936 3.03053 17.6461 3.09105 17.9999H16.9091C16.9698 17.6472 17 17.2946 17 16.9515C17 15.0557 16.1283 13.2422 14.5804 11.9821C14.1521 11.6334 14.0876 11.0035 14.4363 10.5752Z" fill="#107F8C"/>
<path d="M8.99999 15.5C8.99999 16.0523 9.44771 16.5 9.99999 16.5C10.5523 16.5 11 16.0523 11 15.5V12.5C11 11.9477 10.5523 11.5 9.99999 11.5C9.44771 11.5 8.99999 11.9477 8.99999 12.5V15.5Z" fill="#107F8C"/>
</svg>
