<svg width="20" height="20" viewBox="0 0 20 20" fill="none" xmlns="http://www.w3.org/2000/svg">
<path fill-rule="evenodd" clip-rule="evenodd" d="M15 16.5C15 15.1193 16.1193 14 17.5 14C18.8807 14 20 15.1193 20 16.5C20 17.8807 18.8807 19 17.5 19C16.1193 19 15 17.8807 15 16.5ZM17.5 16C17.2239 16 17 16.2239 17 16.5C17 16.7761 17.2239 17 17.5 17C17.7761 17 18 16.7761 18 16.5C18 16.2239 17.7761 16 17.5 16Z" fill="#21A19A"/>
<path fill-rule="evenodd" clip-rule="evenodd" d="M0.292893 13.2929C0.683417 12.9024 1.31658 12.9024 1.70711 13.2929L5.70711 17.2929C6.09763 17.6834 6.09763 18.3166 5.70711 18.7071C5.31658 19.0976 4.68342 19.0976 4.29289 18.7071L0.292893 14.7071C-0.0976311 14.3166 -0.0976311 13.6834 0.292893 13.2929Z" fill="#21A19A"/>
<path fill-rule="evenodd" clip-rule="evenodd" d="M9.42594 1.8517C9.44327 1.8671 9.47958 1.89746 9.52622 1.93644L9.52623 1.93645C9.66888 2.05569 9.90812 2.25568 9.99645 2.35578L10.0039 2.45105L10.0035 2.35579C10.0919 2.25569 10.3311 2.0557 10.4738 1.93647L10.4738 1.93646C10.5204 1.89747 10.5567 1.86712 10.5741 1.85171C10.5975 1.44921 10.8007 0.870914 11.3297 0.454328C12.0056 -0.0778298 13.0841 -0.0991822 13.9112 0.167592C14.9283 0.495685 15.3553 1.1456 15.4731 1.7504C16.0604 0.777183 16.529 0.526159 16.8437 0.422982C17.6703 0.151961 18.5378 0.394235 19.1161 1.16795C19.4859 1.66263 19.7441 3.07152 19.8284 3.5648C19.9289 4.15338 20.1008 5.42437 19.9227 6.98938C19.7179 8.78783 18.8174 10.8291 18.2064 11.4822C17.578 12.1537 17.1499 12.5111 16.5176 12.735C15.9331 12.9419 15.607 12.924 15.5363 12.9201C15.5305 12.9198 15.5264 12.9196 15.524 12.9196C15.3944 13.4419 15.3086 13.6512 15.1745 13.8896C14.9978 14.2038 14.6208 14.5415 14.2123 14.7379L14.2141 14.745C14.2919 15.0639 14.357 15.3308 14.2673 15.8493C14.177 16.3716 13.8311 16.9593 13.3523 17.3417C12.8921 17.7092 12.0505 18.0087 11.5879 18.1734L11.5877 18.1734C11.4622 18.2181 11.3646 18.2529 11.3101 18.2763C11.0646 18.479 10.5329 18.7513 10.0719 18.7555H10.0668L10.0612 18.7555L9.93879 18.7555C9.47537 18.7555 8.93734 18.4806 8.68992 18.2763C8.63543 18.2529 8.53781 18.2181 8.41228 18.1734L8.41208 18.1734C7.94946 18.0087 7.10793 17.7092 6.64774 17.3416C6.16893 16.9592 5.82301 16.3716 5.73268 15.8493C5.64302 15.3308 5.70814 15.0639 5.78593 14.745L5.78767 14.7379C5.37923 14.5415 5.00221 14.2038 4.82548 13.8896C4.69141 13.6512 4.60556 13.4419 4.47596 12.9195C4.47461 12.9195 4.47273 12.9196 4.47029 12.9197C4.46842 12.9198 4.46623 12.9199 4.46372 12.9201C4.39297 12.924 4.06688 12.9419 3.48236 12.735C2.85007 12.5111 2.422 12.1537 1.79363 11.4822C1.18259 10.8291 0.282082 8.78782 0.0773361 6.98936C-0.100833 5.42436 0.0710627 4.15336 0.171635 3.56478C0.255923 3.0715 0.514088 1.66261 0.88385 1.16793C1.46218 0.394221 2.32967 0.151947 3.15631 0.422968C3.47101 0.526145 3.93962 0.777169 4.52693 1.75039C4.64475 1.14559 5.07168 0.49567 6.08883 0.167577C6.91587 -0.0991965 7.99443 -0.077844 8.67025 0.454314C9.1993 0.8709 9.4025 1.44919 9.42594 1.8517ZM7.48003 13.0465C7.4558 13.1151 7.27705 13.1217 7.14636 13.0978C6.95543 13.0629 6.56814 12.9168 6.53937 12.851C6.48902 12.7357 6.46821 12.6527 6.46087 12.5944C6.45144 12.5194 6.46004 12.4586 6.49784 12.3767C6.54366 12.2775 6.63457 12.1448 6.81062 11.9541C6.98627 11.764 7.21002 11.5542 7.49799 11.2865C7.77746 11.0267 7.82191 10.5883 7.60071 10.2734C7.37951 9.95855 6.96497 9.87008 6.64273 10.069C5.93683 10.5047 5.38002 10.7449 4.96317 10.8525C4.53643 10.9626 4.32405 10.9171 4.24809 10.883C3.97298 10.7597 3.71722 10.641 3.4283 10.3164C3.12586 9.97659 2.74995 9.365 2.37394 8.19554C2.0148 7.07853 1.95322 5.84295 2.02937 4.76218C2.09287 3.86113 2.48952 2.28321 2.51676 2.32458C2.61098 2.46765 2.73303 2.65035 2.86789 2.85221L2.86791 2.85225C3.25139 3.42626 3.73689 4.15384 4.09372 4.72706C4.43225 5.2709 5.01562 5.97449 5.56118 6.53642C5.83619 6.81967 6.11906 7.08509 6.37404 7.28541C6.50061 7.38486 6.63511 7.48002 6.76884 7.55372C6.87992 7.61493 7.08428 7.71575 7.32449 7.71575C7.67576 7.71575 7.95816 7.53782 8.13328 7.28452C8.28037 7.07177 8.33331 6.83561 8.35727 6.68025C8.39583 6.4301 8.38943 6.12626 8.38625 5.97533V5.97529C8.37829 5.59774 8.30639 5.22821 8.17315 4.87411C8.10895 4.70351 8.01547 4.50019 7.88119 4.32542C7.76105 4.16905 7.49593 3.89282 7.08022 3.89282C6.72363 3.89282 6.48339 4.08916 6.36292 4.2083C6.33085 4.24002 6.30969 4.27218 6.29058 4.30121C6.27886 4.31902 6.26792 4.33566 6.25571 4.35029C6.22648 4.38531 6.20889 4.10095 6.20889 4.06832C6.20889 3.93992 6.21831 3.76946 6.25571 3.60591C6.29426 3.43731 6.34982 3.33174 6.40276 3.275C6.58773 3.07677 6.65441 2.78934 6.57676 2.52499C6.51607 2.31835 6.49803 2.19039 6.4975 2.14861C6.75566 2.02945 7.1431 1.94997 7.45005 2.04514C7.44649 2.04431 7.49098 2.31476 7.49098 2.31476C7.39476 2.66568 7.55228 3.03821 7.86578 3.20112C8.12431 3.33545 8.4372 3.60047 8.7334 3.92873C9.02767 4.25485 9.2522 4.58399 9.35695 4.7953C9.48182 5.04722 9.73122 5.20546 10.0034 5.20546C10.2755 5.20546 10.5249 5.04722 10.6498 4.7953C10.7546 4.58399 10.9791 4.25485 11.2734 3.92873C11.5696 3.60047 11.8825 3.33545 12.141 3.20112C12.4545 3.03821 12.612 2.66568 12.5158 2.31476C12.4967 2.24512 12.4933 2.11442 12.5388 2.05234C12.7949 1.9001 13.264 2.0354 13.5093 2.14861C13.5087 2.19039 13.4907 2.31835 13.43 2.52499C13.3524 2.78934 13.419 3.07677 13.604 3.275C13.6569 3.33174 13.7125 3.43731 13.7511 3.60591C13.7885 3.76946 13.7979 3.93992 13.7979 4.06832C13.7979 4.07516 13.7744 4.35236 13.7727 4.35029C13.7405 4.3118 13.6956 4.25948 13.6438 4.2083C13.5234 4.08916 13.2831 3.89282 12.9266 3.89282C12.5108 3.89282 12.2457 4.16905 12.1256 4.32542C11.9913 4.50019 11.8978 4.70351 11.8336 4.87411C11.7004 5.22821 11.6285 5.59774 11.6205 5.97529V5.97532C11.6173 6.12625 11.6109 6.4301 11.6495 6.68025C11.6735 6.83561 11.7264 7.07177 11.8735 7.28452C12.0486 7.53782 12.331 7.71575 12.6823 7.71575C12.9225 7.71575 13.1268 7.61493 13.2379 7.55372C13.3717 7.48002 13.5062 7.38485 13.6327 7.28541C13.8877 7.08509 14.1706 6.81967 14.4456 6.53642C14.9911 5.97449 15.5745 5.2709 15.913 4.72706C16.2699 4.15382 16.7554 3.42622 17.1389 2.85221C17.1866 2.78074 17.242 2.68945 17.2944 2.60285C17.3902 2.44484 17.4765 2.30244 17.49 2.32457C17.8565 2.92699 17.9162 3.83636 17.9634 4.55452C17.9681 4.62579 17.9727 4.69517 17.9774 4.76218C18.0535 5.84295 17.992 7.07853 17.6328 8.19554C17.2568 9.365 16.8809 9.97659 16.5785 10.3164C16.2895 10.641 16.0338 10.7597 15.7587 10.883C15.6827 10.9171 15.4703 10.9626 15.0436 10.8525C14.6267 10.7449 14.0699 10.5047 13.364 10.069C13.0418 9.87008 12.6273 9.95855 12.4061 10.2734C12.1849 10.5883 12.2293 11.0267 12.5088 11.2865C12.7967 11.5542 13.0205 11.764 13.1961 11.9541C13.3722 12.1448 13.4631 12.2775 13.5089 12.3767C13.5777 12.5257 13.5484 12.7111 13.4674 12.851C13.4201 12.9326 13.0411 13.0498 12.8604 13.0978C12.7466 13.128 12.551 13.1151 12.5267 13.0465C12.5025 12.978 12.4573 12.8517 12.4149 12.7605C12.3545 12.6308 12.2184 12.3755 11.9331 12.2262C11.443 11.9697 10.7814 12.1894 10.5858 12.7143C10.5063 12.9275 10.5214 13.128 10.5558 13.2719C10.6169 13.5276 10.769 13.7326 10.8732 13.8589C11.1041 14.1389 11.4652 14.4545 11.8617 14.7716C12.1148 14.9742 12.2434 15.1658 12.2896 15.3035C12.3245 15.4074 12.325 15.5033 12.2397 15.6391C12.1315 15.8114 11.8661 15.9192 11.6662 16.0003C11.6362 16.0125 11.6077 16.0241 11.5814 16.0352C11.4115 16.107 11.2341 16.1705 11.0553 16.2346C10.8462 16.3094 10.6351 16.385 10.4316 16.4754C10.0115 16.6618 10.0021 16.7534 9.99664 16.7532C9.99115 16.753 9.98967 16.6593 9.57517 16.4754C9.37162 16.385 9.16057 16.3094 8.95153 16.2346C8.77268 16.1705 8.59529 16.107 8.42533 16.0352C8.39905 16.0241 8.37056 16.0125 8.34059 16.0003C8.14067 15.9192 7.8753 15.8114 7.76706 15.6391C7.68181 15.5033 7.68231 15.4074 7.71717 15.3035C7.76336 15.1658 7.89193 14.9742 8.14511 14.7716C8.54156 14.4545 8.90269 14.1389 9.1336 13.8589C9.23779 13.7326 9.38988 13.5276 9.451 13.2719C9.48538 13.128 9.50048 12.9275 9.42099 12.7143C9.22562 12.1901 8.56139 11.9709 8.07365 12.2262C7.78837 12.3755 7.65229 12.6308 7.59187 12.7605C7.54943 12.8517 7.50426 12.978 7.48003 13.0465Z" fill="#21A19A"/>
</svg>
