<svg width="20" height="20" viewBox="0 0 20 20" fill="none" xmlns="http://www.w3.org/2000/svg">
<path fill-rule="evenodd" clip-rule="evenodd" d="M13 9.5C11.3431 9.5 10 10.8431 10 12.5C10 14.1569 11.3431 15.5 13 15.5C14.6569 15.5 16 14.1569 16 12.5C16 10.8431 14.6569 9.5 13 9.5ZM12 12.5C12 11.9477 12.4477 11.5 13 11.5C13.5523 11.5 14 11.9477 14 12.5C14 13.0523 13.5523 13.5 13 13.5C12.4477 13.5 12 13.0523 12 12.5Z" fill="#107F8C"/>
<path fill-rule="evenodd" clip-rule="evenodd" d="M15 2.82971C15 2.51418 14.7113 2.27754 14.4019 2.33942L2.40194 4.73942C2.23259 4.77329 2.09762 4.89036 2.03613 5.04295C2.18644 5.01475 2.3415 5 2.5 5H16.5C18.433 5 20 6.567 20 8.5V16.5C20 18.433 18.433 20 16.5 20H2.5C1.11929 20 0 18.8807 0 17.5V5.22971C0 4.038 0.841149 3.01197 2.00971 2.77826L14.0097 0.378255C15.5567 0.0688592 17 1.25209 17 2.82971V3C17 3.55229 16.5523 4 16 4C15.4477 4 15 3.55229 15 3V2.82971ZM2 7.5C2 7.22386 2.22386 7 2.5 7H16.5C17.3284 7 18 7.67157 18 8.5V16.5C18 17.3284 17.3284 18 16.5 18H2.5C2.22386 18 2 17.7761 2 17.5V7.5Z" fill="#107F8C"/>
</svg>
