<svg width="20" height="20" viewBox="0 0 20 20" fill="none" xmlns="http://www.w3.org/2000/svg">
<path fill-rule="evenodd" clip-rule="evenodd" d="M12.6458 7C13.4762 6.26706 14 5.19469 14 4C14 1.79086 12.2091 0 10 0C7.79086 0 6 1.79086 6 4C6 5.19469 6.52376 6.26706 7.35418 7H3.5C1.567 7 0 8.567 0 10.5C0 12.1104 1.08764 13.4668 2.56842 13.8747L0.793732 15.8107C-0.676143 17.4142 0.461349 20 2.63662 20H6.31938C7.23073 20 8.09266 19.5857 8.66198 18.8741L10 17.2016L11.338 18.8741C11.9073 19.5857 12.7693 20 13.6806 20H17.3634C19.5387 20 20.6761 17.4142 19.2063 15.8107L17.4316 13.8747C18.9124 13.4668 20 12.1104 20 10.5C20 8.567 18.433 7 16.5 7H12.6458ZM10 6C11.1046 6 12 5.10457 12 4C12 2.89543 11.1046 2 10 2C8.89543 2 8 2.89543 8 4C8 5.10457 8.89543 6 10 6ZM2.26804 17.1621C1.97406 17.4828 2.20156 18 2.63662 18H6.31938C6.62316 18 6.91047 17.8619 7.10024 17.6247L9.60957 14.488C9.80973 14.2378 10.1903 14.2378 10.3904 14.488L12.8998 17.6247C13.0895 17.8619 13.3768 18 13.6806 18H17.3634C17.7984 18 18.0259 17.4828 17.732 17.1621L13.768 12.8379C13.4741 12.5172 13.7016 12 14.1366 12H16.5C17.3284 12 18 11.3284 18 10.5C18 9.67157 17.3284 9 16.5 9H3.5C2.67157 9 2 9.67157 2 10.5C2 11.3284 2.67157 12 3.5 12H5.86338C6.29843 12 6.52593 12.5172 6.23196 12.8379L2.26804 17.1621Z" fill="#107F8C"/>
</svg>
