<svg width="32" height="32" viewBox="0 0 32 32" fill="none" xmlns="http://www.w3.org/2000/svg">
<path fill-rule="evenodd" clip-rule="evenodd" d="M8 10C8 7.23858 10.2386 5 13 5C15.7614 5 18 7.23858 18 10C18 12.7614 15.7614 15 13 15C10.2386 15 8 12.7614 8 10ZM13 7C11.3431 7 10 8.34315 10 10C10 11.6569 11.3431 13 13 13C14.6569 13 16 11.6569 16 10C16 8.34315 14.6569 7 13 7Z" fill="#107F8C"/>
<path d="M8.30338 17.0191C9.59799 18.0647 11.2336 18.6344 12.9155 18.6344C14.6512 18.6344 16.3317 18.0294 17.6445 16.9227C18.0668 16.5667 18.1205 15.9358 17.7646 15.5136C17.4086 15.0913 16.7778 15.0375 16.3555 15.3935C15.4105 16.1901 14.189 16.6344 12.9155 16.6344C11.6665 16.6344 10.4628 16.2054 9.5262 15.4356L9.52432 15.4341C8.81023 14.85 7.76898 14.8554 7.06126 15.45L7.0598 15.4512C5.12365 17.0842 4 19.4456 4 21.9368C4 22.4464 4.04955 22.963 4.14461 23.4723C4.31595 24.3869 5.12926 25 6.01631 25H11.5858L9.29289 27.2929C8.90237 27.6834 8.90237 28.3166 9.29289 28.7071C9.68342 29.0976 10.3166 29.0976 10.7071 28.7071L14.7071 24.7071C15.0976 24.3166 15.0976 23.6834 14.7071 23.2929L10.7071 19.2929C10.3166 18.9024 9.68342 18.9024 9.29289 19.2929C8.90237 19.6834 8.90237 20.3166 9.29289 20.7071L11.5858 23H6.09186C6.03082 22.6414 6 22.2838 6 21.9368C6 20.0735 6.83147 18.2826 8.30338 17.0191Z" fill="#107F8C"/>
<path fill-rule="evenodd" clip-rule="evenodd" d="M20 26V25H19C18.4477 25 18 24.5523 18 24C18 23.4477 18.4477 23 19 23H20V19C20 18.4477 20.4477 18 21 18C21.039 18 21.0775 18.0022 21.1153 18.0066C21.1532 18.0022 21.1916 18 21.2306 18H23.8383C25.0898 18 25.9565 18.5521 26.4556 19.3579C26.9085 20.0891 27 20.9309 27 21.5V21.6674C27 22.2913 26.8517 23.0994 26.3645 23.7808C25.8412 24.5127 24.9936 25 23.8383 25H22V26H22.9884C23.5406 26 23.9884 26.4477 23.9884 27C23.9884 27.5523 23.5406 28 22.9884 28H22V29C22 29.5523 21.5523 30 21 30C20.4477 30 20 29.5523 20 29V28H19C18.4477 28 18 27.5523 18 27C18 26.4477 18.4477 26 19 26H20ZM22 23V20H23.8383C24.417 20 24.6311 20.2105 24.7553 20.411C24.9257 20.6861 25 21.0943 25 21.5V21.6674C25 22.0182 24.9099 22.3765 24.7375 22.6176C24.6011 22.8084 24.3679 23 23.8383 23H22Z" fill="#107F8C"/>
</svg>
