<svg width="32" height="32" viewBox="0 0 32 32" fill="none" xmlns="http://www.w3.org/2000/svg">
<path d="M16 6.5C10.4772 6.5 6 10.9772 6 16.5C6 21.5595 9.75832 25.7428 14.6351 26.4077C15.1823 26.4824 15.5654 26.9865 15.4908 27.5337C15.4162 28.0809 14.9121 28.464 14.3649 28.3894C8.51062 27.5912 4 22.5732 4 16.5C4 9.87258 9.37258 4.5 16 4.5C18.3195 4.5 20.4881 5.15907 22.3252 6.30062C22.7943 6.5921 22.9383 7.20868 22.6468 7.67778C22.3554 8.14688 21.7388 8.29087 21.2697 7.99938C19.7402 7.04902 17.9358 6.5 16 6.5Z" fill="#21A19A"/>
<path d="M26.8956 14.6777C27.4464 14.6369 27.926 15.0503 27.9668 15.6011C27.9888 15.898 28 16.1978 28 16.5C28 17.0541 27.9624 17.6 27.8894 18.1351C27.8148 18.6823 27.3107 19.0654 26.7635 18.9908C26.2163 18.9162 25.8331 18.4121 25.9077 17.8649C25.9685 17.4191 26 16.9635 26 16.5C26 16.2472 25.9906 15.9967 25.9723 15.7489C25.9314 15.1982 26.3448 14.7186 26.8956 14.6777Z" fill="#21A19A"/>
<path d="M26.7809 9.37531C27.1259 9.80657 27.0559 10.4359 26.6247 10.7809L16.6247 18.7809C16.2635 19.0698 15.7512 19.0734 15.386 18.7894L10.886 15.2894C10.4501 14.9503 10.3716 14.322 10.7106 13.8861C11.0497 13.4501 11.678 13.3716 12.1139 13.7107L15.9913 16.7264L25.3753 9.21914C25.8066 8.87413 26.4358 8.94405 26.7809 9.37531Z" fill="#21A19A"/>
<path fill-rule="evenodd" clip-rule="evenodd" d="M22.8967 17.5574C22.7283 17.2161 22.3806 17 22 17C21.6194 17 21.2717 17.2161 21.1033 17.5574L19.5726 20.6589L16.1499 21.1563C15.7732 21.211 15.4602 21.4749 15.3426 21.8369C15.225 22.1989 15.3231 22.5963 15.5957 22.862L18.0724 25.2762L17.4877 28.6851C17.4233 29.0602 17.5776 29.4394 17.8855 29.6631C18.1935 29.8869 18.6017 29.9164 18.9386 29.7392L22 28.1298L25.0614 29.7392C25.3983 29.9164 25.8066 29.8869 26.1145 29.6631C26.4225 29.4394 26.5767 29.0602 26.5123 28.6851L25.9277 25.2762L28.4044 22.862C28.6769 22.5963 28.775 22.1989 28.6574 21.8369C28.5398 21.4749 28.2268 21.211 27.8501 21.1563L24.4274 20.6589L22.8967 17.5574ZM21.1334 22.0155L22 20.2596L22.8666 22.0155C23.0123 22.3107 23.2939 22.5152 23.6196 22.5626L25.5574 22.8441L24.1552 24.211C23.9195 24.4407 23.8119 24.7717 23.8676 25.0961L24.1986 27.0261L22.4653 26.1149C22.174 25.9617 21.826 25.9617 21.5347 26.1149L19.8014 27.0261L20.1324 25.0961C20.1881 24.7717 20.0805 24.4407 19.8449 24.211L18.4426 22.8441L20.3805 22.5626C20.7062 22.5152 20.9877 22.3107 21.1334 22.0155Z" fill="#21A19A"/>
</svg>
