<svg width="32" height="32" viewBox="0 0 32 32" fill="none" xmlns="http://www.w3.org/2000/svg">
<path fill-rule="evenodd" clip-rule="evenodd" d="M1.78519 7.46169C1.18316 5.22807 3.22892 3.18231 5.46254 3.78433L18.5992 7.32503C21.5641 8.12417 22.5601 11.8279 20.3958 14.0064L18.7094 15.7039C18.3201 16.0957 17.687 16.0978 17.2952 15.7085C16.9034 15.3193 16.9013 14.6861 17.2905 14.2943L18.977 12.5968C20.0592 11.5076 19.5612 9.65569 18.0787 9.25611L4.94206 5.71542C4.19752 5.51474 3.5156 6.19666 3.71627 6.94121L7.25697 20.0778C7.65654 21.5603 9.50842 22.0583 10.5976 20.9762L12.2952 19.2897C12.687 18.9004 13.3201 18.9025 13.7094 19.2943C14.0986 19.6861 14.0966 20.3193 13.7048 20.7085L12.0072 22.395C9.82878 24.5593 6.12503 23.5633 5.32588 20.5983L1.78519 7.46169ZM11.5116 13.5109C11.9021 13.1204 12.5353 13.1204 12.9258 13.5109L17.8504 18.4354C18.4598 19.0449 19.448 19.0449 20.0575 18.4354C21.448 17.0449 23.7025 17.0449 25.093 18.4354L30.7659 24.1083C31.1564 24.4988 31.1564 25.132 30.7659 25.5225C30.3754 25.9131 29.7422 25.9131 29.3517 25.5225L23.6788 19.8496C23.0693 19.2402 22.0812 19.2402 21.4717 19.8496C20.0812 21.2402 17.8267 21.2402 16.4361 19.8496L11.5116 14.9251C11.1211 14.5346 11.1211 13.9014 11.5116 13.5109Z" fill="#21A19A"/>
</svg>
