<svg width="32" height="32" viewBox="0 0 32 32" fill="none" xmlns="http://www.w3.org/2000/svg">
<path d="M13.2384 5.34928C13.7731 5.21107 14.0945 4.66555 13.9563 4.13084C13.8181 3.59613 13.2725 3.27471 12.7378 3.41292C7.13762 4.86048 3 9.94577 3 16C3 23.1797 8.8203 29 16 29C16.5523 29 17 28.5523 17 28C17 27.4477 16.5523 27 16 27C9.92487 27 5 22.0751 5 16C5 10.8797 8.49929 6.57425 13.2384 5.34928Z" fill="#21A19A"/>
<path d="M19.2622 3.41292C18.7275 3.27471 18.1819 3.59613 18.0437 4.13084C17.9055 4.66555 18.2269 5.21107 18.7616 5.34928C23.5007 6.57425 27 10.8797 27 16C27 16.5523 27.4477 17 28 17C28.5523 17 29 16.5523 29 16C29 9.94577 24.8624 4.86048 19.2622 3.41292Z" fill="#21A19A"/>
<path fill-rule="evenodd" clip-rule="evenodd" d="M21 26V25H20C19.4477 25 19 24.5523 19 24C19 23.4477 19.4477 23 20 23H21V19C21 18.4477 21.4477 18 22 18C22.039 18 22.0775 18.0022 22.1153 18.0066C22.1531 18.0022 22.1916 18 22.2306 18H24.8383C26.0898 18 26.9565 18.5521 27.4556 19.3579C27.9085 20.0891 28 20.9309 28 21.5V21.6674C28 22.2913 27.8517 23.0994 27.3645 23.7808C26.8412 24.5127 25.9936 25 24.8383 25H23V26H23.9883C24.5406 26 24.9883 26.4477 24.9883 27C24.9883 27.5523 24.5406 28 23.9883 28H23V29C23 29.5523 22.5523 30 22 30C21.4477 30 21 29.5523 21 29V28H20C19.4477 28 19 27.5523 19 27C19 26.4477 19.4477 26 20 26H21ZM23 23V20H24.8383C25.417 20 25.6311 20.2105 25.7553 20.411C25.9257 20.6861 26 21.0943 26 21.5V21.6674C26 22.0182 25.9099 22.3765 25.7375 22.6176C25.6011 22.8084 25.3679 23 24.8383 23H23Z" fill="#21A19A"/>
</svg>
