<svg width="32" height="32" viewBox="0 0 32 32" fill="none" xmlns="http://www.w3.org/2000/svg">
<path d="M13.2071 7.70711C13.5976 7.31658 13.5976 6.68342 13.2071 6.29289C12.8166 5.90237 12.1834 5.90237 11.7929 6.29289L3.49997 14.5858C2.71892 15.3668 2.71892 16.6332 3.49997 17.4142L11.7929 25.7071C12.1834 26.0976 12.8166 26.0976 13.2071 25.7071C13.5976 25.3166 13.5976 24.6834 13.2071 24.2929L4.91419 16L13.2071 7.70711Z" fill="#21A19A"/>
<path fill-rule="evenodd" clip-rule="evenodd" d="M16.8335 11.9998C16.8335 11.4476 16.3858 10.9998 15.8335 10.9998C15.2812 10.9998 14.8335 11.4476 14.8335 11.9998V19.9998C14.8335 20.5521 15.2812 20.9998 15.8335 20.9998C16.3858 20.9998 16.8335 20.5521 16.8335 19.9998V16.9998H19.5003C19.5337 16.9998 19.5667 16.9982 19.5993 16.995C20.0607 19.2797 22.0796 20.9998 24.5003 20.9998C27.2617 20.9998 29.5003 18.7613 29.5003 15.9998C29.5003 13.2384 27.2617 10.9998 24.5003 10.9998C22.0796 10.9998 20.0607 12.72 19.5993 15.0047C19.5667 15.0015 19.5337 14.9998 19.5003 14.9998H16.8335V11.9998ZM21.5003 15.9998C21.5003 14.343 22.8434 12.9998 24.5003 12.9998C26.1571 12.9998 27.5003 14.343 27.5003 15.9998C27.5003 17.6567 26.1571 18.9998 24.5003 18.9998C22.8434 18.9998 21.5003 17.6567 21.5003 15.9998Z" fill="#21A19A"/>
</svg>
