<svg width="32" height="32" viewBox="0 0 32 32" fill="none" xmlns="http://www.w3.org/2000/svg">
<path fill-rule="evenodd" clip-rule="evenodd" d="M5.41016 12.5762C6.31354 11.7734 7.53582 11.8092 8.41113 12.6846L9.49317 13.7676L10.3574 14.626L10.6523 14.9336C11.4507 15.8279 11.4515 16.9682 10.6641 17.8525L10.4492 18.0791L10.0234 18.5078L9.47559 19.041C9.70423 19.4979 10.0027 19.9422 10.3936 20.4229C11.3411 21.5931 12.3801 22.5502 13.5088 23.2705L13.6592 23.3555C13.686 23.3699 13.7144 23.3846 13.7451 23.4004L13.9658 23.5107L14.0957 23.3779L15.0391 22.4287C15.9144 21.5537 17.1349 21.5177 18.0371 22.3193L18.1533 22.4287L19.7197 23.9863L20.3008 24.5752C21.1941 25.4685 21.231 26.6897 20.4121 27.6104L20.3008 27.7285L19.5293 28.4883L19.3496 28.6738C19.322 28.703 19.2947 28.7314 19.2686 28.7598L19.1152 28.9307C18.4027 29.7152 17.4875 30.0456 16.3867 29.9951C15.2066 29.9374 14.0645 29.5845 12.7861 28.957C10.3835 27.7844 8.30768 26.1612 6.59375 24.1162C5.23159 22.5267 4.20891 20.8528 3.54688 19.0576C3.13858 17.9519 2.95145 17.0154 3.01074 16.0361C3.06261 15.2393 3.38186 14.5547 3.96484 13.9961L4.09961 13.8662L5.19727 12.7793L5.41016 12.5762ZM6.83984 14.0039C6.82704 14.0087 6.79391 14.0233 6.74609 14.0645L6.60449 14.2002L5.50684 15.2871L5.49609 15.2979L5.48535 15.3076L5.35059 15.4375L5.34766 15.4404C5.12381 15.655 5.026 15.8717 5.00684 16.166C4.97106 16.7804 5.07741 17.4286 5.42285 18.3643L5.42383 18.3652C5.92103 19.7135 6.66429 21.0084 7.66699 22.2734L8.11231 22.8145L8.12012 22.8223L8.12695 22.8311C9.56497 24.5468 11.2825 25.9273 13.2637 26.958L13.6631 27.1592L13.667 27.1611C14.7872 27.711 15.6584 27.9567 16.4844 27.9971C17.0729 28.0231 17.3782 27.8685 17.6348 27.5859L17.7793 27.4258L17.7891 27.415L17.7979 27.4043C17.8305 27.3689 17.8638 27.3334 17.8975 27.2979L17.9063 27.2891L17.9141 27.2803L18.0938 27.0957L18.126 27.0635L18.8818 26.3184L18.9189 26.2783C18.9706 26.2198 18.9903 26.1804 18.9961 26.165C19.0015 26.1506 18.9999 26.1478 19 26.1523C18.9994 26.1491 18.9972 26.141 18.9912 26.1279C18.9806 26.1048 18.9529 26.0555 18.8867 25.9893L18.877 25.9795L18.3096 25.4043L16.7656 23.8691L16.7012 23.8086C16.6534 23.7674 16.6208 23.7517 16.6084 23.7471C16.6031 23.7451 16.5996 23.7445 16.5977 23.7441C16.6003 23.744 16.5937 23.7436 16.5752 23.752C16.5554 23.7609 16.5116 23.7844 16.4531 23.8428L15.5264 24.7734L15.3975 24.9072L14.3809 25.9492L13.0762 25.3018L12.832 25.1797C12.7918 25.159 12.7522 25.1383 12.7129 25.1172L12.6924 25.1064L12.6719 25.0947L12.5225 25.0098L12.4766 24.9844L12.4326 24.9561C11.0959 24.103 9.90027 22.9924 8.83887 21.6816C8.38213 21.1196 7.99536 20.5527 7.68652 19.9355L7.03223 18.627L8.62891 17.0742L9.02832 16.6709L9.17969 16.5098C9.22617 16.4553 9.24451 16.419 9.25 16.4053C9.25077 16.4033 9.25148 16.4017 9.25195 16.4004C9.25134 16.3987 9.24996 16.3968 9.24902 16.3945C9.24204 16.3773 9.22098 16.3355 9.16797 16.2744L8.91309 16.0088L8.08496 15.1875L6.99609 14.0996C6.93775 14.0413 6.8949 14.0168 6.875 14.0078C6.86257 14.0022 6.85519 14.0004 6.85254 14C6.85536 14 6.85224 13.9993 6.83984 14.0039Z" fill="#107F8C"/>
<path d="M26 3C27.6569 3 29 4.34315 29 6V18C29 19.6569 27.6569 21 26 21H19.5C18.9477 21 18.5 20.5523 18.5 20C18.5 19.4477 18.9477 19 19.5 19H26C26.5523 19 27 18.5523 27 18V6C27 5.44772 26.5523 5 26 5H13C12.4477 5 12 5.44772 12 6V12C12 12.5523 11.5523 13 11 13C10.4477 13 10 12.5523 10 12V6C10 4.34315 11.3431 3 13 3H26Z" fill="#107F8C"/>
<path d="M24 11C24.5523 11 25 11.4477 25 12V17C25 17.5523 24.5523 18 24 18C23.4477 18 23 17.5523 23 17V12C23 11.4477 23.4477 11 24 11Z" fill="#107F8C"/>
<path d="M15.4219 15C16.2072 15 16.8436 15.6366 16.8438 16.4219C16.8438 17.2073 16.2073 17.8438 15.4219 17.8438C14.6366 17.8436 14 17.2072 14 16.4219C14.0001 15.6366 14.6366 15.0001 15.4219 15Z" fill="#107F8C"/>
<path d="M19.4219 15C20.2072 15 20.8436 15.6366 20.8438 16.4219C20.8438 17.2073 20.2073 17.8438 19.4219 17.8438C18.6366 17.8436 18 17.2072 18 16.4219C18.0001 15.6366 18.6366 15.0001 19.4219 15Z" fill="#107F8C"/>
<path d="M19.5 11C20.3284 11 21 11.6716 21 12.5C21 13.3284 20.3284 14 19.5 14C18.6716 14 18 13.3284 18 12.5C18 11.6716 18.6716 11 19.5 11Z" fill="#107F8C"/>
<path d="M15.4219 11C16.2072 11 16.8436 11.6366 16.8438 12.4219C16.8438 13.2073 16.2073 13.8438 15.4219 13.8438C14.6366 13.8436 14 13.2072 14 12.4219C14.0001 11.6366 14.6366 11.0001 15.4219 11Z" fill="#107F8C"/>
<path d="M24 7C24.5523 7 25 7.44772 25 8C25 8.55228 24.5523 9 24 9H15C14.4477 9 14 8.55228 14 8C14 7.44772 14.4477 7 15 7H24Z" fill="#107F8C"/>
</svg>
