<svg width="32" height="32" viewBox="0 0 32 32" fill="none" xmlns="http://www.w3.org/2000/svg">
<path d="M21 22C21 23.1 20.1 24 19 24C17.89 24 17 23.1 17 22C17 20.89 17.89 20 19 20C20.1 20 21 20.89 21 22Z" fill="#B2B8BF"/>
<path d="M13 18C14.1 18 15 17.1 15 16C15 14.89 14.1 14 13 14C11.89 14 11 14.89 11 16C11 17.1 11.89 18 13 18Z" fill="#B2B8BF"/>
<path d="M20.7071 15.7071C21.0976 15.3166 21.0976 14.6834 20.7071 14.2929C20.3166 13.9024 19.6834 13.9024 19.2929 14.2929L11.2929 22.2929C10.9024 22.6834 10.9024 23.3166 11.2929 23.7071C11.6834 24.0976 12.3166 24.0976 12.7071 23.7071L20.7071 15.7071Z" fill="#B2B8BF"/>
<path fill-rule="evenodd" clip-rule="evenodd" d="M19.89 6.86096C20.2 6.79096 20.5 7.03096 20.5 7.35096V7.50096C20.5 8.05096 20.94 8.50096 21.5 8.50096C22.05 8.50096 22.5 8.05096 22.5 7.50096V7.35096C22.5 5.76096 21.03 4.57096 19.48 4.90096L6.37 7.68096C4.99 7.97096 4 9.20096 4 10.621V25.501C4 26.881 5.11 28.001 6.5 28.001H24.5C26.43 28.001 28 26.431 28 24.501V13.501C28 11.561 26.43 10.001 24.5 10.001H6.5C6.39 10.001 6.29 10.001 6.2 10.011C6.34 9.83096 6.54 9.69096 6.79 9.64096L19.89 6.86096ZM6.5 12.001C6.22 12.001 6 12.221 6 12.501V25.501C6 25.771 6.22 26.001 6.5 26.001H24.5C25.32 26.001 26 25.321 26 24.501V13.501C26 12.671 25.32 12.001 24.5 12.001H6.5Z" fill="#B2B8BF"/>
</svg>
