<svg width="20" height="20" viewBox="0 0 20 20" fill="none" xmlns="http://www.w3.org/2000/svg">
<path fill-rule="evenodd" clip-rule="evenodd" d="M8.5 6C8.5 5.44772 8.94772 5 9.5 5H11.6564C12.7068 5 13.4922 5.39405 13.974 6.06082C14.4137 6.66923 14.5 7.36821 14.5 7.82749V7.94985C14.5 8.45783 14.3628 9.17403 13.9501 9.79542C13.5046 10.4661 12.7463 11 11.6564 11H10.5V11.5H11C11.5523 11.5 12 11.9477 12 12.5C12 13.0523 11.5523 13.5 11 13.5H10.5V14C10.5 14.5523 10.0523 15 9.5 15C8.94772 15 8.5 14.5523 8.5 14V13.5H8C7.44772 13.5 7 13.0523 7 12.5C7 11.9477 7.44772 11.5 8 11.5H8.5V11H8C7.44772 11 7 10.5523 7 10C7 9.44772 7.44772 9 8 9H8.5V6ZM10.5 9V7H11.6564C11.9274 7 12.0877 7.0481 12.1775 7.09031C12.2629 7.13048 12.3145 7.17902 12.353 7.23225C12.4449 7.35944 12.5 7.57421 12.5 7.82749V7.94985C12.5 8.15443 12.4339 8.4633 12.2841 8.68885C12.167 8.86507 12.0035 9 11.6564 9H10.5Z" fill="#B2B8BF"/>
<path d="M3.75447 5C5.22158 3.16977 7.4746 2 9.99998 2C14.4183 2 18 5.58172 18 10C18 14.4183 14.4183 18 9.99998 18C7.04011 18 4.45438 16.3931 3.06963 13.9993C2.79309 13.5212 2.18136 13.3579 1.7033 13.6344C1.22524 13.9109 1.06187 14.5227 1.33842 15.0007C3.06596 17.9871 6.29731 20 9.99998 20C15.5228 20 20 15.5228 20 10C20 4.47715 15.5228 0 9.99998 0C7.01232 0 4.33151 1.31054 2.5 3.3856V2C2.5 1.44772 2.05228 1 1.5 1C0.947715 1 0.5 1.44772 0.5 2V6C0.5 6.55228 0.947715 7 1.5 7H5.5C6.05228 7 6.5 6.55228 6.5 6C6.5 5.44772 6.05228 5 5.5 5H3.75447Z" fill="#B2B8BF"/>
</svg>
