<svg width="20" height="20" viewBox="0 0 20 20" fill="none" xmlns="http://www.w3.org/2000/svg">
<path d="M6.65567 0.0611605C6.878 -0.0203868 7.12205 -0.0203868 7.34438 0.0611605L13.3444 2.26189C13.8629 2.45207 14.129 3.02658 13.9389 3.54508C13.7487 4.06359 13.1742 4.32975 12.6557 4.13957L7.00003 2.06514L1.34438 4.13957C0.825876 4.32975 0.25137 4.06359 0.0611883 3.54508C-0.128994 3.02658 0.137166 2.45207 0.655673 2.26189L6.65567 0.0611605Z" fill="#21A19A"/>
<path d="M0.0302734 13C0.0302734 12.4477 0.477989 12 1.03027 12H8.53027C9.08256 12 9.53027 12.4477 9.53027 13C9.53027 13.5523 9.08256 14 8.53027 14H1.03027C0.477989 14 0.0302734 13.5523 0.0302734 13Z" fill="#21A19A"/>
<path d="M8 6C8 5.44772 7.55228 5 7 5C6.44772 5 6 5.44772 6 6V9.73044C6 10.2827 6.44772 10.7304 7 10.7304C7.55228 10.7304 8 10.2827 8 9.73044V6Z" fill="#21A19A"/>
<path d="M11 5C11.5523 5 12 5.44772 12 6V7C12 7.55228 11.5523 8 11 8C10.4477 8 10 7.55228 10 7V6C10 5.44772 10.4477 5 11 5Z" fill="#21A19A"/>
<path d="M4 6C4 5.44772 3.55228 5 3 5C2.44772 5 2 5.44772 2 6V9.73044C2 10.2827 2.44772 10.7304 3 10.7304C3.55228 10.7304 4 10.2827 4 9.73044V6Z" fill="#21A19A"/>
<path fill-rule="evenodd" clip-rule="evenodd" d="M12 12C12 10.8954 12.8954 10 14 10H16.4322C16.9753 10 17.495 10.2208 17.8719 10.6117L19.4397 12.2376C19.7991 12.6103 20 13.108 20 13.6258V18C20 19.1046 19.1046 20 18 20H14C12.8954 20 12 19.1046 12 18V12ZM16.4322 12H14V18L18 18V13.6258L16.4322 12Z" fill="#21A19A"/>
</svg>
