<svg width="20" height="21" viewBox="0 0 20 21" fill="none" xmlns="http://www.w3.org/2000/svg">
<path d="M2.48981 5.49707C3.04209 5.49707 3.48981 5.04936 3.48981 4.49707V3.99707C3.48981 3.44479 3.93752 2.99707 4.48981 2.99707H14.4898C15.0421 2.99707 15.4898 3.44479 15.4898 3.99707V4.49707C15.4898 5.04936 15.9375 5.49707 16.4898 5.49707C17.0421 5.49707 17.4898 5.04936 17.4898 4.49707V3.99707C17.4898 2.34022 16.1467 0.99707 14.4898 0.99707H4.48981C2.83295 0.99707 1.48981 2.34022 1.48981 3.99707V4.49707C1.48981 5.04936 1.93752 5.49707 2.48981 5.49707Z" fill="#107F8C"/>
<path d="M3.48981 17.4971C3.48981 16.9448 3.04209 16.4971 2.48981 16.4971C1.93752 16.4971 1.48981 16.9448 1.48981 17.4971V17.9971C1.48981 19.6539 2.83295 20.9971 4.48981 20.9971H14.4898C16.1467 20.9971 17.4898 19.6539 17.4898 17.9971C17.4898 17.4448 17.0421 16.9971 16.4898 16.9971C15.9375 16.9971 15.4898 17.4448 15.4898 17.9971C15.4898 18.5494 15.0421 18.9971 14.4898 18.9971H4.48981C3.93752 18.9971 3.48981 18.5494 3.48981 17.9971V17.4971Z" fill="#107F8C"/>
<path fill-rule="evenodd" clip-rule="evenodd" d="M13.8072 8.14933C14.07 7.80323 14.3868 7.53423 14.7574 7.34609C15.1304 7.1534 15.5435 7.05859 15.9927 7.05859C16.4425 7.05859 16.8561 7.15531 17.2293 7.3517C17.5994 7.54313 17.9147 7.8137 18.1749 8.15996C18.4351 8.50629 18.6324 8.92144 18.7698 9.4014C18.9105 9.88033 18.9796 10.4129 18.9796 10.9973C18.9796 11.5688 18.9118 12.0944 18.774 12.5727C18.6392 13.0493 18.4449 13.4654 18.1882 13.8176C17.9308 14.1673 17.6166 14.4436 17.2469 14.6418L17.2456 14.6425C16.8714 14.8395 16.4522 14.936 15.9927 14.936C15.5432 14.936 15.1299 14.841 14.7567 14.6481L14.7553 14.6474C14.3854 14.4527 14.0686 14.1781 13.806 13.8289C13.5463 13.4797 13.349 13.0649 13.2115 12.5879C13.0737 12.1063 13.0058 11.5753 13.0058 10.9973C13.0058 10.413 13.0735 9.87922 13.2113 9.3975C13.3488 8.91404 13.5467 8.49605 13.8072 8.14933ZM16.4791 12.9001C16.6263 12.8071 16.7531 12.6767 16.8582 12.5036C16.9644 12.3255 17.047 12.1089 17.103 11.8504L17.1034 11.8487C17.1621 11.5894 17.192 11.3058 17.192 10.9973C17.192 10.6887 17.1621 10.407 17.1035 10.1513L17.1031 10.1496C17.0471 9.89418 16.9644 9.67873 16.8579 9.50016L16.8572 9.49896C16.7516 9.31924 16.6249 9.18663 16.4791 9.09447L16.4779 9.09376C16.3401 9.00534 16.1781 8.95874 15.9849 8.95874C15.8031 8.95874 15.6471 9.00323 15.5108 9.0892C15.3721 9.17831 15.247 9.30851 15.1382 9.48701L15.1374 9.48824C15.0289 9.66329 14.9426 9.87861 14.8815 10.1377C14.8207 10.3962 14.7895 10.6824 14.7895 10.9973C14.7895 11.3191 14.8207 11.6066 14.8814 11.8612C14.9423 12.1168 15.0287 12.3327 15.1378 12.5119C15.246 12.6862 15.3719 12.8151 15.5135 12.9046C15.653 12.9913 15.8109 13.0358 15.9927 13.0358C16.1797 13.0358 16.3393 12.9897 16.4779 12.9008L16.4791 12.9001Z" fill="#107F8C"/>
<path fill-rule="evenodd" clip-rule="evenodd" d="M6.81233 8.08474V13.8945C6.81233 14.1336 6.88022 14.3317 7.01599 14.4888C7.15177 14.646 7.313 14.7245 7.49969 14.7245H9.89126C10.2081 14.7245 10.4966 14.6733 10.7568 14.5708C11.0199 14.4649 11.2433 14.3147 11.4272 14.12C11.6139 13.9219 11.7553 13.6828 11.8515 13.4027C11.9505 13.1226 12 12.8118 12 12.4703C12 11.9989 11.8883 11.5993 11.6648 11.2714C11.4413 10.9435 11.1387 10.7301 10.7568 10.631C10.9888 10.4637 11.1698 10.2587 11.2999 10.0162C11.4329 9.7703 11.4993 9.50048 11.4993 9.20674C11.4993 8.90618 11.4555 8.63464 11.3678 8.39214C11.2801 8.14964 11.1599 7.94471 11.0072 7.77735C10.8544 7.60999 10.6748 7.4819 10.4683 7.3931C10.2618 7.30088 10.0369 7.25477 9.79367 7.25477H7.49969C7.313 7.25477 7.15177 7.33333 7.01599 7.49044C6.88022 7.64756 6.81233 7.84566 6.81233 8.08474ZM9.72578 13.2131H8.22099V11.6813H9.71729C9.94359 11.6813 10.1373 11.7462 10.2986 11.876C10.4598 12.0058 10.5404 12.197 10.5404 12.4498C10.5404 12.6991 10.4669 12.8887 10.3198 13.0185C10.1727 13.1483 9.9747 13.2131 9.72578 13.2131ZM9.4712 10.1699H8.22099V8.76614H9.46272C9.64941 8.76614 9.80074 8.8242 9.91671 8.94033C10.0327 9.05304 10.0907 9.22894 10.0907 9.46803C10.0907 9.70711 10.0299 9.88472 9.90823 10.0008C9.78942 10.1136 9.64375 10.1699 9.4712 10.1699Z" fill="#107F8C"/>
<path d="M3.52757 7C1.32724 7 0 8.80265 0 11C0 13.1974 1.32724 15 3.52757 15C4.01538 15 4.48467 14.9106 4.91867 14.7463C5.4352 14.5509 5.69547 13.9737 5.5 13.4571C5.30453 12.9406 4.72733 12.6803 4.21079 12.8758C3.9992 12.9559 3.76953 13 3.52757 13C2.45524 13 2 12.1164 2 11C2 9.88364 2.45524 9 3.52757 9C3.76953 9 3.9992 9.04414 4.21079 9.12421C4.72733 9.31969 5.30453 9.05942 5.5 8.54288C5.69547 8.02635 5.4352 7.44915 4.91867 7.25367C4.48467 7.08943 4.01538 7 3.52757 7Z" fill="#107F8C"/>
</svg>
