<svg width="20" height="20" viewBox="0 0 20 20" fill="none" xmlns="http://www.w3.org/2000/svg">
<path d="M6.16848 6.96333C6.70045 6.81496 7.01143 6.26345 6.86307 5.73148C6.71471 5.19951 6.16319 4.88853 5.63122 5.03689C4.11428 5.45995 2.99993 6.85091 2.99993 8.50473C2.99993 10.1585 4.11428 11.5495 5.63122 11.9726C6.16319 12.1209 6.71471 11.81 6.86307 11.278C7.01143 10.746 6.70045 10.1945 6.16848 10.0461C5.4936 9.85791 4.99988 9.23769 4.99988 8.50473C4.99988 7.77177 5.4936 7.15154 6.16848 6.96333Z" fill="#B2B8BF"/>
<path d="M6.15495 15.8918C5.08353 15.8918 4.03671 15.563 3.17208 14.9514C2.41667 15.6864 1.99995 16.6628 1.99995 17.6684C1.99995 17.7769 2.00517 17.8877 2.01563 17.9998H10.7379C11.2901 17.9998 11.7378 18.4475 11.7378 18.9998C11.7378 19.5521 11.2901 19.9998 10.7379 19.9998H1.66185C0.934258 19.9998 0.246832 19.5005 0.100531 18.7266C0.034674 18.377 0 18.0206 0 17.6684C0 15.9493 0.7826 14.3267 2.12003 13.2089L2.12148 13.2077C2.70984 12.7179 3.57047 12.7137 4.16376 13.1945L4.16564 13.196C4.71174 13.6408 5.41821 13.8918 6.15495 13.8918C6.70722 13.8918 7.15493 14.3396 7.15493 14.8918C7.15493 15.4441 6.70722 15.8918 6.15495 15.8918Z" fill="#B2B8BF"/>
<path fill-rule="evenodd" clip-rule="evenodd" d="M10.9997 0.999976C10.9997 0.447704 10.552 0 9.99976 0C9.44748 0 8.99978 0.447704 8.99978 0.999976V1.03501C6.25831 1.22879 4.15334 2.19584 2.69529 3.16787C1.88192 3.71012 1.26906 4.25415 0.855431 4.66778C0.648367 4.87484 0.49041 5.05005 0.381418 5.17721C0.326896 5.24082 0.284541 5.2925 0.25434 5.33025C0.239237 5.34913 0.227164 5.36454 0.218119 5.37622L0.206819 5.39093L0.20287 5.39613L0.201321 5.39818L0.200054 5.39987C-0.131309 5.84169 -0.0417679 6.46847 0.400049 6.79983C0.841631 7.13102 1.46803 7.04174 1.79953 6.60054L1.81604 6.57961C1.83271 6.55877 1.86067 6.52452 1.89989 6.47876C1.9784 6.38717 2.10168 6.24989 2.26961 6.08196C2.60596 5.74561 3.11807 5.28966 3.80467 4.83193C5.174 3.91904 7.23419 2.99993 9.99981 2.99993C12.7654 2.99993 14.8256 3.91904 16.195 4.83193C16.5687 5.08106 16.8907 5.32966 17.1608 5.55873L15.9997 5.94576L13.316 5.05119C13.1107 4.98277 12.8888 4.98277 12.6835 5.05119L9.70616 6.04365C9.6336 6.0659 9.56455 6.09619 9.50005 6.13347C9.38317 6.20073 9.28351 6.28972 9.20462 6.39336C9.10636 6.52198 9.03861 6.67515 9.01215 6.84207C9.00277 6.90051 8.99854 6.96011 8.99978 7.02022V12.9997C8.99978 13.9826 9.33346 14.81 9.91765 15.3942C10.4924 15.969 11.2524 16.2496 11.9997 16.2496C12.7471 16.2496 13.507 15.969 14.0818 15.3942C14.666 14.81 14.9996 13.9826 14.9996 12.9997C14.9996 12.4474 14.5519 11.9997 13.9997 11.9997C13.4474 11.9997 12.9997 12.4474 12.9997 12.9997C12.9997 13.5168 12.8334 13.8143 12.6676 13.9801C12.4924 14.1553 12.2523 14.2497 11.9997 14.2497C11.7471 14.2497 11.507 14.1553 11.3318 13.9801C11.166 13.8143 10.9997 13.5168 10.9997 12.9997V7.72059L12.9997 7.05392L15.6834 7.94849C15.8887 8.01691 16.1106 8.01691 16.3159 7.94849L19.3158 6.94851C19.6208 6.84687 19.8582 6.60483 19.9541 6.29801C20.0499 5.9912 19.9918 5.65622 19.799 5.39907L19.7968 5.39613L19.7928 5.39093L19.7815 5.37622C19.7725 5.36454 19.7604 5.34913 19.7453 5.33025C19.7151 5.2925 19.6727 5.24082 19.6182 5.17721C19.5092 5.05005 19.3513 4.87484 19.1442 4.66778C18.7306 4.25415 18.1177 3.71012 17.3043 3.16787C15.8463 2.19583 13.7413 1.22877 10.9997 1.035V0.999976Z" fill="#B2B8BF"/>
</svg>
