<svg width="20" height="20" viewBox="0 0 20 20" fill="none" xmlns="http://www.w3.org/2000/svg">
<path d="M12.7422 4.97085C12.2064 5.10475 11.6635 4.77894 11.5296 4.24313L11.0357 2.26697C10.9928 2.11266 10.9865 1.9458 11.0244 1.77865C11.0944 1.46986 11.3004 1.22715 11.565 1.09929L13.5526 0.10574C14.0466 -0.141192 14.6473 0.0591015 14.8942 0.553108C15.1347 1.03429 14.9509 1.61666 14.4847 1.87477C16.215 2.80914 17.6022 4.29506 18.4121 6.09647C18.6385 6.60019 18.4138 7.19212 17.9101 7.41858C17.4063 7.64505 16.8144 7.42029 16.5879 6.91658C15.9409 5.47747 14.8195 4.29796 13.4245 3.5766L13.4699 3.75823C13.6038 4.29404 13.278 4.83695 12.7422 4.97085Z" fill="#21A19A"/>
<path d="M8.97189 1.76448C9.10192 2.30124 8.77221 2.84178 8.23545 2.97182C5.27881 3.68808 3 6.54207 3 10.0318C3 11.5424 3.57182 12.975 4.46434 14.1715L4.4666 14.1519C4.52975 13.6032 5.02573 13.2096 5.57439 13.2728C6.12305 13.3359 6.51663 13.8319 6.45348 14.3806L6.21765 16.4293C6.16405 16.895 5.79423 17.2609 5.32806 17.3096L3.10421 17.5418C2.55492 17.5991 2.06313 17.2003 2.00577 16.651C1.94841 16.1017 2.34721 15.6099 2.89651 15.5526L2.99528 15.5423C1.81674 14.0293 1 12.1283 1 10.0318C1 5.68243 3.85037 1.97628 7.76455 1.02804C8.30131 0.89801 8.84185 1.22773 8.97189 1.76448Z" fill="#21A19A"/>
<path fill-rule="evenodd" clip-rule="evenodd" d="M20 13.9999C20 10.6862 17.3137 7.99993 14 7.99993C10.6863 7.99993 8 10.6862 8 13.9999C8 17.3136 10.6863 19.9999 14 19.9999C17.3137 19.9999 20 17.3136 20 13.9999ZM11.0415 14.9999C11.1035 15.7394 11.2332 16.4331 11.4173 17.0545C10.7948 16.5277 10.3355 15.8139 10.126 14.9999H11.0415ZM13.0499 14.9999C13.1486 15.9698 13.3836 16.7803 13.6675 17.3481C13.8008 17.6147 13.9151 17.7792 14 17.8792C14.0849 17.7792 14.1992 17.6147 14.3325 17.3481C14.6164 16.7803 14.8514 15.9698 14.9501 14.9999H13.0499ZM13.0499 12.9999C13.1486 12.03 13.3836 11.2195 13.6675 10.6517C13.8008 10.3852 13.9151 10.2207 14 10.1207C14.0849 10.2207 14.1992 10.3852 14.3325 10.6517C14.6164 11.2195 14.8514 12.03 14.9501 12.9999H13.0499ZM16.9585 14.9999C16.8965 15.7394 16.7668 16.4331 16.5827 17.0545C17.2052 16.5277 17.6645 15.8139 17.874 14.9999H16.9585ZM17.874 12.9999C17.6645 12.1859 17.2052 11.4722 16.5827 10.9453C16.7668 11.5668 16.8965 12.2604 16.9585 12.9999H17.874ZM11.0415 12.9999H10.126C10.3355 12.1859 10.7948 11.4722 11.4173 10.9453C11.2332 11.5668 11.1035 12.2604 11.0415 12.9999Z" fill="#21A19A"/>
</svg>
