<svg width="32" height="32" viewBox="0 0 32 32" fill="none" xmlns="http://www.w3.org/2000/svg">
<path fill-rule="evenodd" clip-rule="evenodd" d="M12 24H11C10.4477 24 10 23.5523 10 23V8C10 6.34315 11.3431 5 13 5H19C20.6569 5 22 6.34315 22 8V23C22 23.5523 21.5523 24 21 24H20V26.5974C20 27.7723 19.1557 29 17.8 29H14.2C12.8443 29 12 27.7723 12 26.5974V24ZM12 8C12 7.44772 12.4477 7 13 7H19C19.5523 7 20 7.44772 20 8V22H12V8ZM18 24V26.5974C18 26.7559 17.9448 26.8735 17.8887 26.9391C17.8614 26.971 17.8376 26.9866 17.8239 26.9933C17.8117 26.9994 17.8049 27 17.8 27H14.2C14.1951 27 14.1883 26.9994 14.1761 26.9933C14.1624 26.9866 14.1386 26.971 14.1113 26.9391C14.0552 26.8735 14 26.7559 14 26.5974V24H18Z" fill="#107F8C"/>
<path fill-rule="evenodd" clip-rule="evenodd" d="M27 8C25.3431 8 24 9.34315 24 11C24 12.6569 25.3431 14 27 14C28.6569 14 30 12.6569 30 11C30 9.34315 28.6569 8 27 8ZM26 11C26 10.4477 26.4477 10 27 10C27.5523 10 28 10.4477 28 11C28 11.5523 27.5523 12 27 12C26.4477 12 26 11.5523 26 11Z" fill="#107F8C"/>
<path d="M28 17C28 16.4477 27.5523 16 27 16C26.4477 16 26 16.4477 26 17V22C26 22.5523 26.4477 23 27 23C27.5523 23 28 22.5523 28 22V17Z" fill="#107F8C"/>
<path fill-rule="evenodd" clip-rule="evenodd" d="M2 20C2 21.6569 3.34315 23 5 23C6.65685 23 8 21.6569 8 20C8 18.3431 6.65685 17 5 17C3.34315 17 2 18.3431 2 20ZM5 21C4.44772 21 4 20.5523 4 20C4 19.4477 4.44772 19 5 19C5.55228 19 6 19.4477 6 20C6 20.5523 5.55228 21 5 21Z" fill="#107F8C"/>
<path d="M6 14C6 14.5523 5.55228 15 5 15C4.44772 15 4 14.5523 4 14V9C4 8.44772 4.44772 8 5 8C5.55228 8 6 8.44772 6 9V14Z" fill="#107F8C"/>
</svg>
