<svg width="32" height="32" viewBox="0 0 32 32" fill="none" xmlns="http://www.w3.org/2000/svg">
<path d="M7 7.81818C7 7.35681 7.36762 7 7.8 7H14C14.5523 7 15 6.55228 15 6C15 5.44772 14.5523 5 14 5H7.8C6.24415 5 5 6.27124 5 7.81818V24.1818C5 25.7288 6.24415 27 7.8 27H22.2C23.7558 27 25 25.7288 25 24.1818V20.5C25 19.9477 24.5523 19.5 24 19.5C23.4477 19.5 23 19.9477 23 20.5V24.1818C23 24.6432 22.6324 25 22.2 25H7.8C7.36762 25 7 24.6432 7 24.1818V7.81818Z" fill="#B2B8BF"/>
<path d="M11 10C10.4477 10 10 10.4477 10 11C10 11.5523 10.4477 12 11 12H14C14.5523 12 15 11.5523 15 11C15 10.4477 14.5523 10 14 10H11Z" fill="#B2B8BF"/>
<path d="M10 16C10 15.4477 10.4477 15 11 15H14C14.5523 15 15 15.4477 15 16C15 16.5523 14.5523 17 14 17H11C10.4477 17 10 16.5523 10 16Z" fill="#B2B8BF"/>
<path d="M11 20C10.4477 20 10 20.4477 10 21C10 21.5523 10.4477 22 11 22H16C16.5523 22 17 21.5523 17 21C17 20.4477 16.5523 20 16 20H11Z" fill="#B2B8BF"/>
<path fill-rule="evenodd" clip-rule="evenodd" d="M23 2C20.2386 2 18 4.23858 18 7C18 8.63582 18.7856 10.0882 20 11.0004V16C20 16.3466 20.1795 16.6684 20.4743 16.8507C20.7691 17.0329 21.1372 17.0494 21.4472 16.8944L23 16.118L24.5528 16.8944C24.8628 17.0494 25.2309 17.0329 25.5257 16.8507C25.8205 16.6684 26 16.3466 26 16V11.0004C27.2144 10.0882 28 8.63582 28 7C28 4.23858 25.7614 2 23 2ZM20 7C20 5.34315 21.3431 4 23 4C24.6569 4 26 5.34315 26 7C26 8.65685 24.6569 10 23 10C21.3431 10 20 8.65685 20 7ZM24 11.9C23.6769 11.9656 23.3425 12 23 12C22.6575 12 22.3231 11.9656 22 11.9V14.382L22.5528 14.1056C22.8343 13.9648 23.1657 13.9648 23.4472 14.1056L24 14.382V11.9Z" fill="#B2B8BF"/>
</svg>
