<svg width="32" height="32" viewBox="0 0 32 32" fill="none" xmlns="http://www.w3.org/2000/svg">
<path fill-rule="evenodd" clip-rule="evenodd" d="M13 5C10.2386 5 8 7.23858 8 10C8 12.7614 10.2386 15 13 15C15.7614 15 18 12.7614 18 10C18 7.23858 15.7614 5 13 5ZM10 10C10 8.34315 11.3431 7 13 7C14.6569 7 16 8.34315 16 10C16 11.6569 14.6569 13 13 13C11.3431 13 10 11.6569 10 10Z" fill="#B2B8BF"/>
<path d="M12.9155 18.6344C11.2336 18.6344 9.59799 18.0647 8.30338 17.0191C6.83147 18.2826 6 20.0735 6 21.9368C6 22.2838 6.03082 22.6414 6.09186 23H12.9155C13.4678 23 13.9155 23.4477 13.9155 24C13.9155 24.5523 13.4678 25 12.9155 25H6.01631C5.12926 25 4.31607 24.3876 4.14474 23.473C4.04967 22.9636 4 22.4464 4 21.9368C4 19.4456 5.12365 17.0842 7.0598 15.4512L7.06126 15.45C7.76898 14.8554 8.81023 14.85 9.52432 15.4341L9.5262 15.4356C10.4628 16.2054 11.6665 16.6344 12.9155 16.6344C14.189 16.6344 15.4105 16.1901 16.3555 15.3935C16.7778 15.0375 17.4086 15.0913 17.7646 15.5136C18.1205 15.9358 18.0668 16.5667 17.6445 16.9227C16.3317 18.0294 14.6512 18.6344 12.9155 18.6344Z" fill="#B2B8BF"/>
<path fill-rule="evenodd" clip-rule="evenodd" d="M16.0002 23C16.0002 21.3431 17.3434 20 19.0002 20V19.5C19.0002 17.567 20.5672 16 22.5002 16C24.4332 16 26.0002 17.567 26.0002 19.5V20C27.6571 20 29.0002 21.3431 29.0002 23V26C29.0002 27.6569 27.6571 29 26.0002 29H19.0002C17.3434 29 16.0002 27.6569 16.0002 26V23ZM24.0002 20V19.5C24.0002 18.6716 23.3287 18 22.5002 18C21.6718 18 21.0002 18.6716 21.0002 19.5V20H24.0002ZM19.0002 22C18.448 22 18.0002 22.4477 18.0002 23V26C18.0002 26.5523 18.448 27 19.0002 27H26.0002C26.5525 27 27.0002 26.5523 27.0002 26V23C27.0002 22.4477 26.5525 22 26.0002 22H19.0002Z" fill="#B2B8BF"/>
</svg>
