<svg width="20" height="20" viewBox="0 0 20 20" fill="none" xmlns="http://www.w3.org/2000/svg">
<path fill-rule="evenodd" clip-rule="evenodd" d="M6 8.5C6 6.29086 7.79086 4.5 10 4.5C12.2091 4.5 14 6.29086 14 8.5C14 10.7091 12.2091 12.5 10 12.5C7.79086 12.5 6 10.7091 6 8.5ZM10 6.5C8.89543 6.5 8 7.39543 8 8.5C8 9.60457 8.89543 10.5 10 10.5C11.1046 10.5 12 9.60457 12 8.5C12 7.39543 11.1046 6.5 10 6.5Z" fill="#21A19A"/>
<path fill-rule="evenodd" clip-rule="evenodd" d="M10 0C4.47715 0 0 4.47715 0 10C0 15.5228 4.47715 20 10 20C15.5228 20 20 15.5228 20 10C20 4.47715 15.5228 0 10 0ZM2 10C2 5.58172 5.58172 2 10 2C14.4183 2 18 5.58172 18 10C18 11.8595 17.3656 13.5709 16.3013 14.9294C15.8823 14.1033 15.2855 13.3613 14.5402 12.7545L14.5391 12.7536C13.9121 12.2446 12.9987 12.2483 12.3764 12.7681C11.7123 13.3228 10.8501 13.6349 9.94818 13.6349C9.06356 13.6349 8.21387 13.3336 7.55561 12.7975L7.55372 12.7959C6.9261 12.2873 6.01483 12.2918 5.3925 12.8099L5.39104 12.8111C4.67815 13.4069 4.1053 14.1292 3.6992 14.9301C2.63465 13.5714 2 11.8598 2 10ZM5.23404 16.426C5.47734 15.7089 5.90529 15.0465 6.49319 14.5041C7.48341 15.2384 8.70058 15.6349 9.94818 15.6349C11.2218 15.6349 12.4596 15.2228 13.4599 14.4615C14.0731 15.0123 14.5172 15.6898 14.7665 16.4256C13.4352 17.4148 11.786 18 10 18C8.21428 18 6.56522 17.4149 5.23404 16.426Z" fill="#21A19A"/>
</svg>
