<svg width="20" height="20" viewBox="0 0 20 20" fill="none" xmlns="http://www.w3.org/2000/svg">
<path fill-rule="evenodd" clip-rule="evenodd" d="M5.02344 0.000446138C5.04097 0.000860544 5.05858 0.00104487 5.07617 0.00239926C5.08957 0.00341703 5.10285 0.00572612 5.11621 0.00728208C5.13344 0.00931442 5.15074 0.0111616 5.16797 0.014118C5.18596 0.0171691 5.20385 0.0208214 5.22168 0.0248602C5.23342 0.0275445 5.24512 0.0305218 5.25684 0.0336493C5.28109 0.0400735 5.3053 0.046857 5.3291 0.0551336C5.33337 0.0566227 5.33753 0.0584659 5.3418 0.0600164L16.1758 3.99947H19C19.5522 3.99947 19.9999 4.44727 20 4.99947C20 5.55175 19.5523 5.99947 19 5.99947H18V6.99947C18 7.55175 17.5523 7.99947 17 7.99947C16.4477 7.99947 16 7.55175 16 6.99947V5.99947H9V17.9995H10C10.5522 17.9995 10.9999 18.4473 11 18.9995C11 19.5518 10.5523 19.9995 10 19.9995H3C2.44772 19.9995 2 19.5518 2 18.9995C2.0001 18.4473 2.44778 17.9995 3 17.9995H4V5.99947H1C0.943323 5.99947 0.888088 5.9929 0.833984 5.98384C0.82358 5.9821 0.81309 5.98104 0.802734 5.97896C0.791229 5.97666 0.779913 5.97385 0.768555 5.97115C0.747982 5.96627 0.727321 5.96173 0.707031 5.95552C0.484247 5.88733 0.29459 5.74378 0.167969 5.55416C0.141775 5.51495 0.119667 5.47384 0.0996094 5.43209C0.077676 5.3865 0.0578712 5.33959 0.0429688 5.29049C0.0379921 5.27406 0.0343865 5.25729 0.0302734 5.24068C0.0111324 5.16341 3.43408e-09 5.08265 0 4.99947C2.82142e-05 4.84755 0.0340854 4.70361 0.0947266 4.57467C0.115687 4.53002 0.140039 4.48656 0.167969 4.44478C0.204613 4.38994 0.246496 4.3389 0.292969 4.29244L4.29297 0.292438C4.30016 0.285247 4.30807 0.278857 4.31543 0.271931C4.32805 0.260079 4.34034 0.247919 4.35352 0.236774C4.36488 0.22712 4.37699 0.218495 4.38867 0.209431C4.40322 0.198195 4.4175 0.186624 4.43262 0.176227C4.44507 0.167624 4.45796 0.159788 4.4707 0.151813C4.4836 0.143776 4.49653 0.135814 4.50977 0.128376C4.52619 0.119119 4.54275 0.110263 4.55957 0.102009C4.57212 0.0958519 4.58486 0.0900586 4.59766 0.0844305C4.61547 0.0766028 4.63321 0.0687072 4.65137 0.0619696C4.66033 0.0586326 4.66965 0.0562616 4.67871 0.0531805C4.69081 0.0490818 4.70262 0.0441072 4.71484 0.0404852L4.75781 0.029743L4.80859 0.0180243C4.81506 0.0167699 4.82164 0.0162206 4.82812 0.0150946C4.84593 0.0119716 4.86383 0.0094386 4.88184 0.00728208C4.89874 0.00528019 4.91565 0.00353919 4.93262 0.00239926C4.94302 0.0016917 4.95342 0.000826615 4.96387 0.000446138C4.98372 -0.000267484 5.00358 -1.68865e-05 5.02344 0.000446138ZM6 17.9995H7V5.99947H6V17.9995ZM3.41406 3.99947H10.3242L5.25684 2.15572L3.41406 3.99947Z" fill="#21A19A"/>
<path fill-rule="evenodd" clip-rule="evenodd" d="M15.1064 9.08052C15.3578 8.97289 15.6422 8.97289 15.8936 9.08052L19.3936 10.5805C19.7612 10.7381 19.9999 11.0995 20 11.4995C20 13.3181 19.9404 14.7947 19.3799 16.1254C18.805 17.4901 17.7616 18.5802 16.0918 19.8061C15.7397 20.0645 15.2603 20.0645 14.9082 19.8061C13.2431 18.5836 12.2001 17.4942 11.624 16.1294C11.062 14.7979 11 13.3199 11 11.4995C11.0001 11.0995 11.2388 10.7381 11.6064 10.5805L15.1064 9.08052ZM13.0039 12.1577C13.0248 13.6158 13.13 14.5527 13.4668 15.351C13.7868 16.1092 14.3572 16.8296 15.5 17.7417C16.6476 16.8263 17.2181 16.1062 17.5371 15.3491C17.8729 14.5517 17.9757 13.6167 17.9961 12.1577L15.5 11.0874L13.0039 12.1577Z" fill="#21A19A"/>
</svg>
