<svg width="32" height="32" viewBox="0 0 32 32" fill="none" xmlns="http://www.w3.org/2000/svg">
<path d="M25.1924 6.80709C22.4587 4.07342 18.0265 4.07342 15.2929 6.80709L13.1715 8.92841C12.781 9.31893 12.781 9.9521 13.1715 10.3426C13.5621 10.7331 14.1952 10.7331 14.5858 10.3426L16.7071 8.2213C18.6597 6.26868 21.8255 6.26868 23.7781 8.2213C25.7308 10.1739 25.7308 13.3397 23.7781 15.2924L21.6568 17.4137C21.2663 17.8042 21.2663 18.4374 21.6568 18.8279C22.0473 19.2184 22.6805 19.2184 23.071 18.8279L25.1924 16.7066C27.926 13.9729 27.926 9.54076 25.1924 6.80709Z" fill="#B2B8BF"/>
<path d="M10.3431 14.5853C10.7336 14.1947 10.7336 13.5616 10.3431 13.171C9.95259 12.7805 9.31942 12.7805 8.9289 13.171L6.80758 15.2924C4.07391 18.026 4.07391 22.4582 6.80758 25.1919C9.54125 27.9255 13.9734 27.9255 16.7071 25.1919L18.8284 23.0705C19.2189 22.68 19.2189 22.0469 18.8284 21.6563C18.4379 21.2658 17.8047 21.2658 17.4142 21.6563L15.2929 23.7776C13.3402 25.7303 10.1744 25.7303 8.22179 23.7776C6.26917 21.825 6.26917 18.6592 8.22179 16.7066L10.3431 14.5853Z" fill="#B2B8BF"/>
<path d="M19.5355 13.8781C19.926 13.4876 19.926 12.8544 19.5355 12.4639C19.145 12.0733 18.5118 12.0733 18.1213 12.4639L11.7573 18.8278C11.3668 19.2183 11.3668 19.8515 11.7573 20.242C12.1478 20.6326 12.781 20.6326 13.1715 20.242L19.5355 13.8781Z" fill="#B2B8BF"/>
</svg>
