<svg width="32" height="32" viewBox="0 0 32 32" fill="none" xmlns="http://www.w3.org/2000/svg">
<path d="M17.9246 12.0016C17.5362 11.3337 16.8656 10.9998 15.9128 10.9998C14.677 10.9998 13.1779 11.9037 13.6369 13.8357C14.0959 15.7677 18.2898 15.6058 18.4389 17.8541C18.588 20.1024 16.8268 20.5356 15.9128 20.5356C14.7566 20.5356 13.9731 20.2135 13.5623 19.5691" stroke="#B2B8BF" stroke-width="2" stroke-linecap="round" stroke-linejoin="round"/>
<path d="M15.6335 22.0068L15.6335 20.7419" stroke="#B2B8BF" stroke-width="2" stroke-linecap="round" stroke-linejoin="round"/>
<path d="M15.6334 10.8213L15.6334 9.5564" stroke="#B2B8BF" stroke-width="2" stroke-linecap="round" stroke-linejoin="round"/>
<path fill-rule="evenodd" clip-rule="evenodd" d="M4 10C4 6.68629 6.68629 4 10 4H22C25.3137 4 28 6.68629 28 10V22C28 25.3137 25.3137 28 22 28H10C6.68629 28 4 25.3137 4 22V10ZM10 6H22C24.2091 6 26 7.79086 26 10V22C26 24.2091 24.2091 26 22 26H10C7.79086 26 6 24.2091 6 22V10C6 7.79086 7.79086 6 10 6Z" fill="#B2B8BF"/>
</svg>
