<svg width="20" height="20" viewBox="0 0 20 20" fill="none" xmlns="http://www.w3.org/2000/svg">
<path d="M5.80013 0C5.24786 0 4.80016 0.447702 4.80016 0.999969C4.80016 1.55224 5.24786 1.99994 5.80013 1.99994H14.1999C14.7521 1.99994 15.1998 1.55224 15.1998 0.999969C15.1998 0.447702 14.7521 0 14.1999 0H5.80013Z" fill="#B2B8BF"/>
<path d="M5.00015 12.4996C5.00015 11.9474 4.55245 11.4996 4.00018 11.4996C3.44792 11.4996 3.00021 11.9474 3.00021 12.4996V16.9995C3.00021 18.6563 4.34332 19.9994 6.00012 19.9994H13.9999C15.6567 19.9994 16.9998 18.6563 16.9998 16.9995V12.4996C16.9998 11.9474 16.5521 11.4996 15.9998 11.4996C15.4475 11.4996 14.9998 11.9474 14.9998 12.4996V16.9995C14.9998 17.5517 14.5521 17.9995 13.9999 17.9995H6.00012C5.44785 17.9995 5.00015 17.5517 5.00015 16.9995V12.4996Z" fill="#B2B8BF"/>
<path fill-rule="evenodd" clip-rule="evenodd" d="M10 10.9997C8.3432 10.9997 7.00009 12.3428 7.00009 13.9996C7.00009 15.6564 8.3432 16.9995 10 16.9995C11.6568 16.9995 12.9999 15.6564 12.9999 13.9996C12.9999 12.3428 11.6568 10.9997 10 10.9997ZM9.00003 13.9996C9.00003 13.4473 9.44773 12.9996 10 12.9996C10.5523 12.9996 11 13.4473 11 13.9996C11 14.5518 10.5523 14.9995 10 14.9995C9.44773 14.9995 9.00003 14.5518 9.00003 13.9996Z" fill="#B2B8BF"/>
<path d="M0.0515864 2.68372C-0.123056 3.20765 0.160096 3.77395 0.684023 3.94859L3.68393 4.94856C4.20786 5.1232 4.77416 4.84005 4.9488 4.31612C5.12345 3.7922 4.84029 3.22589 4.31637 3.05125L1.31646 2.05128C0.792532 1.87664 0.226229 2.15979 0.0515864 2.68372Z" fill="#B2B8BF"/>
<path d="M19.9484 2.68372C20.123 3.20765 19.8399 3.77395 19.316 3.94859L16.3161 4.94856C15.7921 5.1232 15.2258 4.84005 15.0512 4.31612C14.8765 3.7922 15.1597 3.22589 15.6836 3.05125L18.6835 2.05128C19.2075 1.87664 19.7738 2.15979 19.9484 2.68372Z" fill="#B2B8BF"/>
<path fill-rule="evenodd" clip-rule="evenodd" d="M7.00008 5.99982C7.00008 4.34301 8.34319 2.99991 9.99999 2.99991C11.6568 2.99991 12.9999 4.34301 12.9999 5.99982C12.9999 7.65662 11.6568 8.99972 9.99999 8.99972C8.34319 8.99972 7.00008 7.65662 7.00008 5.99982ZM9.99999 4.99985C9.44772 4.99985 9.00002 5.44755 9.00002 5.99982C9.00002 6.55208 9.44772 6.99979 9.99999 6.99979C10.5523 6.99979 11 6.55208 11 5.99982C11 5.44755 10.5523 4.99985 9.99999 4.99985Z" fill="#B2B8BF"/>
<path d="M19.316 8.05104C19.8399 8.22569 20.123 8.79199 19.9484 9.31592C19.7738 9.83984 19.2075 10.123 18.6835 9.94835L15.6836 8.94838C15.1597 8.77374 14.8765 8.20744 15.0512 7.68351C15.2258 7.15958 15.7921 6.87643 16.3161 7.05107L19.316 8.05104Z" fill="#B2B8BF"/>
<path d="M0.684023 8.05104C0.160096 8.22569 -0.123056 8.79199 0.0515864 9.31592C0.226229 9.83984 0.792532 10.123 1.31646 9.94835L4.31637 8.94838C4.84029 8.77374 5.12345 8.20744 4.9488 7.68351C4.77416 7.15958 4.20786 6.87643 3.68393 7.05107L0.684023 8.05104Z" fill="#B2B8BF"/>
</svg>
