<svg width="20" height="20" viewBox="0 0 20 20" fill="none" xmlns="http://www.w3.org/2000/svg">
<path d="M2.99979 2.97913C3.00023 2.98557 3.00168 3.00315 3.00556 3.03035C3.01367 3.08711 3.03219 3.18414 3.07364 3.30847C3.15539 3.55366 3.32923 3.91469 3.70724 4.29282C4.08509 4.6708 4.44601 4.84456 4.69116 4.92625C4.81548 4.96768 4.91252 4.98617 4.9693 4.99427C4.99651 4.99815 5.0141 4.99958 5.02055 5.00003C5.56317 5.01096 5.99979 5.45414 6 5.99943C6.00022 6.55172 5.55268 6.99961 5.00039 6.99982L5.00001 6.02332C5.00038 6.99982 5.00089 6.99982 5.00039 6.99982L4.99839 6.99982L4.99628 6.99982L4.99178 6.99979L4.98161 6.99967L4.95665 6.99908C4.93799 6.99848 4.91532 6.99745 4.88889 6.99569C4.83608 6.99219 4.76804 6.9858 4.68698 6.97424C4.52502 6.95115 4.30957 6.90721 4.05891 6.82369C3.55409 6.65547 2.91501 6.32923 2.29279 5.70681C1.67072 5.08454 1.34456 4.44567 1.17631 3.94104C1.09277 3.69047 1.0488 3.47513 1.02567 3.31323C1.01409 3.2322 1.00768 3.16419 1.00416 3.1114C1.0024 3.08498 1.00136 3.06232 1.00076 3.04367L1.00016 3.01872L1.00003 3.00854L1.00001 3.00404L1 3.00093C1 3.00043 1 2.99994 1.99964 3L1 3.00093C1.00003 2.44864 1.44778 1.99997 2.00006 2C2.54535 2.00003 2.98868 2.43651 2.99979 2.97913Z" fill="#107F8C"/>
<path fill-rule="evenodd" clip-rule="evenodd" d="M8 6.45253C8 4.24339 9.79086 2.45253 12 2.45253H16C18.2091 2.45253 20 4.24339 20 6.45253V8.45253C20 10.6617 18.2091 12.4525 16 12.4525H13.2336C12.7016 12.4525 12.1916 12.6644 11.8163 13.0414L11.4173 13.4421C10.1586 14.7062 8 13.8148 8 12.031V6.45253ZM12 4.45253C10.8954 4.45253 10 5.34796 10 6.45253V12.031L10.3991 11.6302C11.1497 10.8763 12.1697 10.4525 13.2336 10.4525H16C17.1046 10.4525 18 9.5571 18 8.45253V6.45253C18 5.34796 17.1046 4.45253 16 4.45253H12Z" fill="#107F8C"/>
<path fill-rule="evenodd" clip-rule="evenodd" d="M2.5 8.00038C1.94772 8.00038 1.5 8.44809 1.5 9.00038C1.5 9.55266 1.94772 10.0004 2.5 10.0004H4V15.5773C4 16.0016 3.89388 16.2538 3.78546 16.4114C3.67167 16.5769 3.51028 16.7024 3.3139 16.7976C3.11431 16.8943 2.90217 16.9477 2.73116 16.9753C2.64808 16.9887 2.58095 16.9951 2.53836 16.998C2.51723 16.9995 2.50267 17.0001 2.49579 17.0003L2.49239 17.0004C1.94361 17.0045 1.5 17.4506 1.5 18.0004C1.5 18.5527 1.94869 19.0004 2.50098 19.0004L2.50202 19.0004L2.50427 19.0004L2.50951 19.0003L2.5228 19.0002C2.53291 19 2.54548 18.9997 2.56037 18.9993C2.59011 18.9983 2.62926 18.9965 2.67649 18.9933C2.77062 18.9867 2.8988 18.9742 3.0501 18.9497C3.34784 18.9016 3.76069 18.8036 4.18611 18.5974C4.61473 18.3897 5.07834 18.0609 5.43329 17.5449C5.79363 17.021 6 16.3646 6 15.5773V8.00038H2.5ZM2.5 18.0004L2.50098 19.0004C2.50049 19.0004 2.5 19.0004 2.5 18.0004Z" fill="#107F8C"/>
</svg>
