<svg width="20" height="20" viewBox="0 0 20 20" fill="none" xmlns="http://www.w3.org/2000/svg">
<path fill-rule="evenodd" clip-rule="evenodd" d="M9.5 2.5C9.5 1.11929 10.6193 0 12 0C13.3807 0 14.5 1.11929 14.5 2.5C14.5 3.88071 13.3807 5 12 5C10.6193 5 9.5 3.88071 9.5 2.5ZM12 3C12.2761 3 12.5 2.77614 12.5 2.5C12.5 2.22386 12.2761 2 12 2C11.7239 2 11.5 2.22386 11.5 2.5C11.5 2.77614 11.7239 3 12 3Z" fill="#B2B8BF"/>
<path fill-rule="evenodd" clip-rule="evenodd" d="M5.5 17.5C5.5 16.1193 6.61929 15 8 15C9.38071 15 10.5 16.1193 10.5 17.5C10.5 18.8807 9.38071 20 8 20C6.61929 20 5.5 18.8807 5.5 17.5ZM8 18C8.27614 18 8.5 17.7761 8.5 17.5C8.5 17.2239 8.27614 17 8 17C7.72386 17 7.5 17.2239 7.5 17.5C7.5 17.7761 7.72386 18 8 18Z" fill="#B2B8BF"/>
<path fill-rule="evenodd" clip-rule="evenodd" d="M17.5 9.5C16.1193 9.5 15 10.6193 15 12C15 13.3807 16.1193 14.5 17.5 14.5C18.8807 14.5 20 13.3807 20 12C20 10.6193 18.8807 9.5 17.5 9.5ZM18 12C18 12.2761 17.7761 12.5 17.5 12.5C17.2239 12.5 17 12.2761 17 12C17 11.7239 17.2239 11.5 17.5 11.5C17.7761 11.5 18 11.7239 18 12Z" fill="#B2B8BF"/>
<path fill-rule="evenodd" clip-rule="evenodd" d="M0 8C0 6.61929 1.11929 5.5 2.5 5.5C3.88071 5.5 5 6.61929 5 8C5 9.38071 3.88071 10.5 2.5 10.5C1.11929 10.5 0 9.38071 0 8ZM2.5 8.5C2.77614 8.5 3 8.27614 3 8C3 7.72386 2.77614 7.5 2.5 7.5C2.22386 7.5 2 7.72386 2 8C2 8.27614 2.22386 8.5 2.5 8.5Z" fill="#B2B8BF"/>
<path d="M8 7C7.86441 7 7.73512 7.02699 7.61722 7.07588C7.50014 7.12432 7.3904 7.19595 7.29502 7.29078L7.29078 7.29502C7.11106 7.47581 7 7.72494 7 8V12C7 12.5523 7.44772 13 8 13C8.55229 13 9 12.5523 9 12V10.4142L11.2929 12.7071C11.6834 13.0976 12.3166 13.0976 12.7071 12.7071C13.0976 12.3166 13.0976 11.6834 12.7071 11.2929L10.4142 9H12C12.5523 9 13 8.55229 13 8C13 7.44772 12.5523 7 12 7H8Z" fill="#B2B8BF"/>
<path d="M7.69566 3.38914C8.21698 3.20681 8.49179 2.63639 8.30947 2.11507C8.12714 1.59375 7.55672 1.31894 7.0354 1.50127C5.96839 1.87444 4.97908 2.44562 4.1224 3.18309C3.70384 3.5434 3.65662 4.1748 4.01693 4.59336C4.37725 5.01192 5.00865 5.05914 5.42721 4.69883C6.09422 4.12464 6.86489 3.67969 7.69566 3.38914Z" fill="#B2B8BF"/>
<path d="M16.8167 4.12217C16.4564 3.70361 15.825 3.65639 15.4065 4.0167C14.9879 4.37702 14.9407 5.00842 15.301 5.42698C15.8752 6.09399 16.3201 6.86466 16.6107 7.69543C16.793 8.21675 17.3634 8.49156 17.8848 8.30923C18.4061 8.12691 18.6809 7.55649 18.4986 7.03517C18.1254 5.96816 17.5542 4.97885 16.8167 4.12217Z" fill="#B2B8BF"/>
<path d="M3.38937 12.3042C3.20704 11.7828 2.63662 11.508 2.1153 11.6904C1.59398 11.8727 1.31917 12.4431 1.5015 12.9644C1.87467 14.0314 2.44585 15.0207 3.18332 15.8774C3.54363 16.296 4.17503 16.3432 4.59359 15.9829C5.01215 15.6226 5.05937 14.9912 4.69906 14.5726C4.12487 13.9056 3.67992 13.1349 3.38937 12.3042Z" fill="#B2B8BF"/>
<path d="M15.8777 16.8165C16.2962 16.4562 16.3434 15.8248 15.9831 15.4062C15.6228 14.9877 14.9914 14.9404 14.5728 15.3008C13.9058 15.875 13.1352 16.3199 12.3044 16.6105C11.7831 16.7928 11.5083 17.3632 11.6906 17.8845C11.8729 18.4058 12.4433 18.6807 12.9647 18.4983C14.0317 18.1251 15.021 17.554 15.8777 16.8165Z" fill="#B2B8BF"/>
</svg>
