<svg width="32" height="32" viewBox="0 0 32 32" fill="none" xmlns="http://www.w3.org/2000/svg">
<path d="M27 9.49986C27.5523 9.49986 28 9.05214 28 8.49986C28 7.94757 27.5523 7.49986 27 7.49986C26.4477 7.49986 26 7.94757 26 8.49986C26 9.05214 26.4477 9.49986 27 9.49986Z" fill="#21A19A"/>
<path fill-rule="evenodd" clip-rule="evenodd" d="M28.1746 0.158887C29.1114 -0.0492841 30 0.663544 30 1.62317V1.99986C30 2.55214 29.5523 2.99986 29 2.99986C28.5305 2.99986 28.1366 2.67631 28.029 2.24003L21.3915 3.71502C21.2329 3.75027 21.106 3.85864 21.0431 3.99991L29.5001 4.00031C30.8808 4.00038 32 5.11965 32 6.50031V10.4999C32 11.8806 30.8807 12.9999 29.5 12.9999H20.5C19.6716 12.9999 19 12.3283 19 11.4999V4.20312C19 3.03137 19.8138 2.01684 20.9577 1.76265L28.1746 0.158887ZM21 10.9999V5.99991L29.5 6.00031C29.7762 6.00033 30 6.22418 30 6.50031V10.4999C30 10.776 29.7761 10.9999 29.5 10.9999H21Z" fill="#21A19A"/>
<path d="M14 7.99986C8.47705 7.99986 4 12.4774 4 17.9999V27.9999H14C19.5229 27.9999 24 23.5224 24 17.9999C24 17.6933 23.9863 17.3895 23.9595 17.0907C23.9097 16.5409 24.3154 16.0546 24.8657 16.0048C25.4155 15.956 25.9019 16.3612 25.9512 16.911C25.9834 17.2704 26 17.6337 26 17.9999C26 24.6269 20.6274 29.9999 14 29.9999H3C2.44775 29.9999 2 29.5526 2 28.9999V17.9999C2 11.3729 7.37256 5.99986 14 5.99986C14.3687 5.99986 14.7339 6.01646 15.0945 6.04869C15.6445 6.09849 16.05 6.58482 16.0002 7.1356C15.9504 7.68541 15.4644 8.09068 14.9141 8.04088C14.6133 8.01353 14.3086 7.99986 14 7.99986Z" fill="#21A19A"/>
<path fill-rule="evenodd" clip-rule="evenodd" d="M16.5 11.9999C17.0522 11.9999 17.5 12.4472 17.5 12.9999C17.5 13.5526 17.0522 13.9999 16.5 13.9999H11V15.9999H14.3076C16.5923 15.9999 19 17.4276 19 19.9999C19 22.5722 16.5923 23.9999 14.3076 23.9999H9V13.9999C9 12.8954 9.89551 11.9999 11 11.9999H16.5ZM11 17.9999V21.9999H14.3076C15.9858 21.9999 17 21.0282 17 19.9999C17 18.9716 15.9858 17.9999 14.3076 17.9999H11Z" fill="#21A19A"/>
</svg>
