<svg width="32" height="32" viewBox="0 0 32 32" fill="none" xmlns="http://www.w3.org/2000/svg">
<path d="M25.5 2.5C25.5 2.94425 25.3069 3.34339 25 3.61805V6.26784L27.2952 4.94273C27.3796 4.53977 27.6287 4.17309 28.0134 3.95105C28.7309 3.5369 29.6483 3.78274 30.0626 4.50014C30.4769 5.21754 30.2311 6.13483 29.5136 6.54898C29.1288 6.77111 28.6864 6.80337 28.295 6.67484L26.0001 7.99981L28.2951 9.32483C28.6864 9.19643 29.1287 9.22874 29.5134 9.45081C30.2271 9.86278 30.4741 10.7726 30.0688 11.4883L30.0623 11.4998L30.055 11.5123C29.6372 12.2199 28.7264 12.4604 28.0131 12.0487C27.6283 11.8266 27.3792 11.4598 27.2948 11.0567L25 9.73179V12.3819C25.3069 12.6566 25.5 13.0557 25.5 13.5C25.5 14.3284 24.8284 15 24 15C23.1716 15 22.5 14.3284 22.5 13.5C22.5 13.0557 22.6931 12.6566 23 12.3819V9.73193L20.7056 11.0566C20.6213 11.4598 20.3722 11.8268 19.9873 12.049C19.2737 12.4609 18.3622 12.2199 17.9448 11.5115L17.9379 11.4998L17.9313 11.4881C17.5264 10.7725 17.7735 9.86293 18.487 9.45105C18.8716 9.22905 19.3137 9.19669 19.7049 9.32495L22.0001 7.99981L19.705 6.67473C19.3137 6.80312 18.8715 6.7708 18.4868 6.54874C17.7693 6.1346 17.5235 5.2173 17.9378 4.4999C18.3521 3.7825 19.2695 3.53666 19.987 3.95081C20.3718 4.17292 20.6209 4.53976 20.7053 4.94287L23 6.2677V3.61805C22.6931 3.34339 22.5 2.94425 22.5 2.5C22.5 1.67157 23.1716 1 24 1C24.8284 1 25.5 1.67157 25.5 2.5Z" fill="#107F8C"/>
<path fill-rule="evenodd" clip-rule="evenodd" d="M17.5647 26.5514C17.376 26.5793 17.1877 26.6021 17 26.62L17 23.3741C17.8375 23.2613 18.6701 23.0039 19.4628 22.591C20.8947 21.8452 21.9871 20.6998 22.6717 19.363C22.9234 18.8714 22.729 18.2689 22.2374 18.0171C21.7458 17.7654 21.1433 17.9598 20.8915 18.4514C20.3898 19.4311 19.5909 20.2693 18.5389 20.8172C15.8448 22.2204 12.5234 21.1739 11.1202 18.4799C9.71701 15.7858 10.7635 12.4644 13.4575 11.0612C13.9473 10.8061 14.1376 10.2022 13.8825 9.71235C13.6274 9.22252 13.0234 9.03226 12.5336 9.28738C10.2674 10.4677 8.8562 12.6434 8.5566 14.9997H5.33864C5.77109 10.19 9.44217 6.12081 14.4299 5.3822C14.9762 5.3013 15.3535 4.79283 15.2726 4.2465C15.1917 3.70018 14.6833 3.32287 14.1369 3.40378C7.19859 4.43124 2.40686 10.8888 3.43432 17.8272C4.46178 24.7655 10.9194 29.5572 17.8577 28.5298C23.5866 27.6814 27.8498 23.1322 28.5859 17.6683C28.6596 17.121 28.2757 16.6175 27.7283 16.5438C27.181 16.47 26.6775 16.854 26.6038 17.4013C25.9834 22.0059 22.3888 25.837 17.5647 26.5514ZM5.34705 16.9997C5.36443 17.1774 5.3863 17.3556 5.41275 17.5342C6.14981 22.5115 10.2035 26.1776 15 26.6227L15 23.3731C12.6663 23.0577 10.5169 21.6511 9.34637 19.4038C8.94313 18.6296 8.68825 17.8174 8.57148 16.9997L5.34705 16.9997Z" fill="#107F8C"/>
</svg>
