<svg width="20" height="20" viewBox="0 0 20 20" fill="none" xmlns="http://www.w3.org/2000/svg">
<path fill-rule="evenodd" clip-rule="evenodd" d="M17 2C18.6569 2 20 3.34315 20 5V15C20 16.6569 18.6569 18 17 18H6C5.44772 18 5 17.5523 5 17C5 16.4477 5.44772 16 6 16H17C17.5523 16 18 15.5523 18 15V8H15V10C15 11.1046 14.1046 12 13 12H11C9.89543 12 9 11.1046 9 10V8H6C6 8.55228 5.55228 9 5 9C4.44772 9 4 8.55228 4 8V5C4 3.34315 5.34315 2 7 2H17ZM11 10H13V8H11V10ZM7 4C6.44772 4 6 4.44772 6 5V6H18V5C18 4.44772 17.5523 4 17 4H7Z" fill="#107F8C"/>
<path d="M6 13C6.55228 13 7 13.4477 7 14C7 14.5523 6.55228 15 6 15H4C3.44772 15 3 14.5523 3 14C3 13.4477 3.44772 13 4 13H6Z" fill="#107F8C"/>
<path d="M5 10C5.55228 10 6 10.4477 6 11C6 11.5523 5.55228 12 5 12H1C0.447715 12 0 11.5523 0 11C0 10.4477 0.447715 10 1 10H5Z" fill="#107F8C"/>
</svg>
