<svg width="32" height="32" viewBox="0 0 32 32" fill="none" xmlns="http://www.w3.org/2000/svg">
<path d="M10.5 11C11.3284 11 12 10.3284 12 9.5C12 8.67157 11.3284 8 10.5 8C9.67157 8 9 8.67157 9 9.5C9 10.3284 9.67157 11 10.5 11Z" fill="#21A19A"/>
<path d="M17 9.5C17 10.3284 16.3284 11 15.5 11C14.6716 11 14 10.3284 14 9.5C14 8.67157 14.6716 8 15.5 8C16.3284 8 17 8.67157 17 9.5Z" fill="#21A19A"/>
<path fill-rule="evenodd" clip-rule="evenodd" d="M4 7C4 5.34314 5.34315 4 7 4H25C26.6569 4 28 5.34315 28 7V25C28 26.6569 26.6569 28 25 28H7C5.34314 28 4 26.6569 4 25V7ZM7 6C6.44771 6 6 6.44772 6 7V25C6 25.5523 6.44772 26 7 26H25C25.5523 26 26 25.5523 26 25V7C26 6.44771 25.5523 6 25 6H7Z" fill="#21A19A"/>
<path d="M10 14C9.44772 14 9 14.4477 9 15C9 15.5523 9.44772 16 10 16L22 16C22.5523 16 23 15.5523 23 15C23 14.4477 22.5523 14 22 14H10Z" fill="#21A19A"/>
<path d="M9 19C9 18.4477 9.44772 18 10 18H22C22.5523 18 23 18.4477 23 19C23 19.5523 22.5523 20 22 20H10C9.44772 20 9 19.5523 9 19Z" fill="#21A19A"/>
<path d="M9 23C9 22.4477 9.44772 22 10 22H22C22.5523 22 23 22.4477 23 23C23 23.5523 22.5523 24 22 24H10C9.44772 24 9 23.5523 9 23Z" fill="#21A19A"/>
</svg>
