<svg width="20" height="20" viewBox="0 0 20 20" fill="none" xmlns="http://www.w3.org/2000/svg">
<circle cx="10" cy="10" r="2" fill="#21A19A"/>
<path fill-rule="evenodd" clip-rule="evenodd" d="M8.02797 0.000394764C8.47626 0.012937 8.86137 0.322393 8.97014 0.757468L9.97014 4.75747C10.1041 5.29326 9.77833 5.8362 9.24254 5.97015C8.70674 6.10409 8.16381 5.77833 8.02986 5.24254L7.89625 4.70812L4.45506 15.7964C4.32635 16.2112 3.94466 16.4954 3.51042 16.4999C3.07617 16.5045 2.68864 16.2282 2.55132 15.8162L0.770414 10.4735C0.328787 10.3698 0 9.97329 0 9.5C0 8.94772 0.447715 8.5 1 8.5H1.5C1.93043 8.5 2.31257 8.77543 2.44868 9.18378L3.466 12.2357L7.04494 0.703604C7.17786 0.275292 7.57968 -0.0121475 8.02797 0.000394764ZM16.4706 5.00044C16.9117 4.98747 17.3091 5.26515 17.4487 5.68378L18.7208 9.5H19C19.5523 9.5 20 9.94772 20 10.5C20 11.0523 19.5523 11.5 19 11.5H18C17.5696 11.5 17.1874 11.2246 17.0513 10.8162L16.6019 9.46802L13.9656 19.26C13.8472 19.6998 13.4465 20.0041 12.991 20C12.5355 19.9959 12.1403 19.6845 12.0299 19.2425L11.0299 15.2425C10.8959 14.7067 11.2217 14.1638 11.7575 14.0299C12.2933 13.8959 12.8362 14.2217 12.9701 14.7575L13.0358 15.0203L15.5344 5.74003C15.6491 5.31393 16.0295 5.0134 16.4706 5.00044Z" fill="#21A19A"/>
</svg>
