<svg width="32" height="32" viewBox="0 0 32 32" fill="none" xmlns="http://www.w3.org/2000/svg">
<path fill-rule="evenodd" clip-rule="evenodd" d="M8 8C8 5.23858 10.2386 3 13 3C15.7614 3 18 5.23858 18 8C18 10.7614 15.7614 13 13 13C10.2386 13 8 10.7614 8 8ZM13 5C11.3431 5 10 6.34315 10 8C10 9.65685 11.3431 11 13 11C14.6569 11 16 9.65685 16 8C16 6.34315 14.6569 5 13 5Z" fill="#21A19A"/>
<path d="M8.30338 15.0191C9.59799 16.0647 11.2336 16.6344 12.9155 16.6344C14.6512 16.6344 16.3317 16.0294 17.6445 14.9227C18.0668 14.5667 18.1205 13.9358 17.7646 13.5136C17.4086 13.0913 16.7778 13.0375 16.3555 13.3935C15.4105 14.1901 14.189 14.6344 12.9155 14.6344C11.6665 14.6344 10.4628 14.2054 9.5262 13.4356L9.52432 13.4341C8.81023 12.85 7.76898 12.8554 7.06126 13.45L7.0598 13.4512C5.12365 15.0842 4 17.4456 4 19.9368C4 20.4464 4.04955 20.963 4.14461 21.4723C4.31595 22.3869 5.12926 23 6.01631 23H14C14.5523 23 15 22.5523 15 22C15 21.4477 14.5523 21 14 21H6.09186C6.03082 20.6414 6 20.2838 6 19.9368C6 18.0735 6.83147 16.2826 8.30338 15.0191Z" fill="#21A19A"/>
<path fill-rule="evenodd" clip-rule="evenodd" d="M23.3714 15.0715C23.133 14.9762 22.867 14.9762 22.6286 15.0715L17.6286 17.0715C17.249 17.2234 17 17.5911 17 18C17 20.432 17.0923 22.3503 17.8684 24.0663C18.6569 25.8101 20.0858 27.2154 22.4348 28.8249C22.7754 29.0584 23.2246 29.0584 23.5652 28.8249C25.921 27.2107 27.3506 25.8052 28.1375 24.0619C28.9116 22.3467 29 20.4302 29 18C29 17.5911 28.751 17.2234 28.3714 17.0715L23.3714 15.0715ZM19.6907 23.2422C19.1686 22.0877 19.0258 20.7414 19.0034 18.6757L23 17.077L26.9967 18.6757C26.9748 20.7425 26.8351 22.0859 26.3146 23.2391C25.8015 24.3757 24.8658 25.4326 23 26.7781C21.1414 25.4374 20.2054 24.3804 19.6907 23.2422Z" fill="#21A19A"/>
</svg>
