<svg width="20" height="20" viewBox="0 0 20 20" fill="none" xmlns="http://www.w3.org/2000/svg">
<path fill-rule="evenodd" clip-rule="evenodd" d="M10 3C5.58172 3 2 6.58172 2 11C2 12.6224 2.48189 14.1292 3.31011 15.3888C3.5511 15.7553 4.02963 16 4.63272 16H15.3673C15.9704 16 16.4489 15.7553 16.6899 15.3888C17.5181 14.1292 18 12.6224 18 11C18 6.58172 14.4183 3 10 3ZM0 11C0 5.47715 4.47715 1 10 1C15.5228 1 20 5.47715 20 11C20 13.0247 19.3972 14.9117 18.361 16.4876C17.6643 17.5471 16.4709 18 15.3673 18H4.63272C3.52914 18 2.33565 17.5471 1.63899 16.4876C0.602806 14.9117 0 13.0247 0 11Z" fill="#107F8C"/>
<path d="M15.0177 9.22436C15.4005 8.82625 15.3881 8.19321 14.99 7.81042C14.5919 7.42762 13.9588 7.44004 13.576 7.83814L10.5753 10.959C10.3931 10.9043 10.2 10.875 10 10.875C8.89543 10.875 8 11.7704 8 12.875C8 13.9796 8.89543 14.875 10 14.875C11.1046 14.875 12 13.9796 12 12.875C12 12.7176 11.9818 12.5644 11.9474 12.4175L15.0177 9.22436Z" fill="#107F8C"/>
</svg>
