<svg width="20" height="20" viewBox="0 0 20 20" fill="none" xmlns="http://www.w3.org/2000/svg">
<path fill-rule="evenodd" clip-rule="evenodd" d="M8.99374 4.5C8.44145 4.5 7.99374 4.94772 7.99374 5.5C7.99374 5.539 7.99597 5.57749 8.00031 5.61533C8.0001 5.62374 8 5.63217 8 5.64062V9H7C6.44772 9 6 9.44772 6 10C6 10.5523 6.44772 11 7 11H8V12H7C6.44772 12 6 12.4477 6 13C6 13.5523 6.44772 14 7 14H8V15C8 15.5523 8.44771 16 9 16C9.55229 16 10 15.5523 10 15V14H11.5C12.0523 14 12.5 13.5523 12.5 13C12.5 12.4477 12.0523 12 11.5 12H10V11H11C13.1866 11 14.4262 9.39613 14.4497 7.76437C14.4612 6.96417 14.1822 6.13916 13.5758 5.50946C12.9584 4.86834 12.0701 4.5 11 4.5H8.99374ZM10 9H11C12.0151 9 12.441 8.35387 12.4499 7.73563C12.4546 7.41083 12.3414 7.11084 12.1352 6.89679C11.9401 6.69416 11.5955 6.5 11 6.5H10V9Z" fill="#B2B8BF"/>
<path fill-rule="evenodd" clip-rule="evenodd" d="M10 0C4.47715 0 0 4.47715 0 10C0 15.5228 4.47715 20 10 20C15.5228 20 20 15.5228 20 10C20 4.47715 15.5228 0 10 0ZM2 10C2 5.58172 5.58172 2 10 2C14.4183 2 18 5.58172 18 10C18 14.4183 14.4183 18 10 18C5.58172 18 2 14.4183 2 10Z" fill="#B2B8BF"/>
</svg>
