<svg width="32" height="32" viewBox="0 0 32 32" fill="none" xmlns="http://www.w3.org/2000/svg">
<path d="M12 6C11.4477 6 11 6.44772 11 7C11 7.55228 10.5523 8 10 8C9.44772 8 9 7.55228 9 7C9 5.34315 10.3431 4 12 4H20C21.6569 4 23 5.34315 23 7C23 7.55228 22.5523 8 22 8C21.4477 8 21 7.55228 21 7C21 6.44772 20.5523 6 20 6H12Z" fill="#107F8C"/>
<path d="M10 17C10.5523 17 11 17.4477 11 18V25.9021C11 26.554 11.4922 27 12 27H20C20.5078 27 21 26.554 21 25.9021V18C21 17.4477 21.4477 17 22 17C22.5523 17 23 17.4477 23 18V25.9021C23 27.5674 21.7014 29 20 29H12C10.2986 29 9 27.5674 9 25.9021V18C9 17.4477 9.44772 17 10 17Z" fill="#107F8C"/>
<path fill-rule="evenodd" clip-rule="evenodd" d="M16 18C14.3431 18 13 19.3431 13 21C13 22.6569 14.3431 24 16 24C17.6569 24 19 22.6569 19 21C19 19.3431 17.6569 18 16 18ZM15 21C15 20.4477 15.4477 20 16 20C16.5523 20 17 20.4477 17 21C17 21.5523 16.5523 22 16 22C15.4477 22 15 21.5523 15 21Z" fill="#107F8C"/>
<path d="M10.9285 11.3714C11.1336 10.8586 10.8842 10.2767 10.3714 10.0715L5.37137 8.07154C4.85859 7.86643 4.27662 8.11585 4.07151 8.62864C3.8664 9.14143 4.11582 9.7234 4.6286 9.92851L9.6286 11.9285C10.1414 12.1336 10.7233 11.8842 10.9285 11.3714Z" fill="#107F8C"/>
<path fill-rule="evenodd" clip-rule="evenodd" d="M13 12C13 10.3432 14.3431 9.00003 16 9.00003C17.6569 9.00003 19 10.3432 19 12C19 13.6569 17.6569 15 16 15C14.3431 15 13 13.6569 13 12ZM16 11C15.4477 11 15 11.4477 15 12C15 12.5523 15.4477 13 16 13C16.5523 13 17 12.5523 17 12C17 11.4477 16.5523 11 16 11Z" fill="#107F8C"/>
<path d="M9.62884 13.0716C10.1416 12.8665 10.7236 13.1159 10.9287 13.6287C11.1338 14.1414 10.8844 14.7234 10.3716 14.9285L5.37162 16.9285C4.85883 17.1336 4.27686 16.8842 4.07175 16.3714C3.86664 15.8587 4.11605 15.2767 4.62884 15.0716L9.62884 13.0716Z" fill="#107F8C"/>
<path d="M21.0715 11.3714C20.8664 10.8586 21.1159 10.2767 21.6286 10.0715L26.6286 8.07154C27.1414 7.86643 27.7234 8.11585 27.9285 8.62864C28.1336 9.14143 27.8842 9.7234 27.3714 9.92851L22.3714 11.9285C21.8586 12.1336 21.2767 11.8842 21.0715 11.3714Z" fill="#107F8C"/>
<path d="M22.3712 13.0716C21.8584 12.8665 21.2764 13.1159 21.0713 13.6287C20.8662 14.1414 21.1156 14.7234 21.6284 14.9285L26.6284 16.9285C27.1412 17.1336 27.7231 16.8842 27.9283 16.3714C28.1334 15.8587 27.884 15.2767 27.3712 15.0716L22.3712 13.0716Z" fill="#107F8C"/>
</svg>
