<svg width="32" height="32" viewBox="0 0 32 32" fill="none" xmlns="http://www.w3.org/2000/svg">
<path fill-rule="evenodd" clip-rule="evenodd" d="M15.977 7.99989C18.3951 8.00003 20.4127 9.71691 20.8764 11.9989H24.4877C26.9734 11.999 28.9903 14.0113 28.9965 16.497L29.0072 20.9999C29.0112 22.6595 27.6669 24.0067 26.0072 24.0067H24.8178C24.4035 25.1673 23.2945 25.9979 21.9916 25.9979C20.6855 25.9979 19.5744 25.163 19.1625 23.9979H13.8217C13.4099 25.1629 12.2986 25.9977 10.9926 25.9979C9.68644 25.9979 8.5744 25.163 8.16252 23.9979H6.9926C5.88803 23.9979 4.9926 23.1025 4.9926 21.9979V18.9784C4.9926 18.4261 5.44031 17.9784 5.9926 17.9784C6.54468 17.9787 6.9926 18.4263 6.9926 18.9784V21.4979C6.9926 21.7741 7.21646 21.9979 7.4926 21.9979H8.16252C8.57438 20.8328 9.68641 19.9979 10.9926 19.9979C12.2986 19.9981 13.4099 20.8329 13.8217 21.9979H18.4897C18.766 21.9979 18.9899 21.7742 18.9897 21.4979L18.9867 19.7352H16.4496C15.8974 19.7352 15.4497 19.2874 15.4496 18.7352C15.4496 18.183 15.8974 17.7353 16.4496 17.7352H18.9838L18.977 12.995C18.9743 11.3402 17.6318 10.0001 15.977 9.99989H15.9565C15.4044 9.99966 14.9565 9.55197 14.9565 8.99989C14.9565 8.44775 15.4044 8.00012 15.9565 7.99989H15.977ZM10.9926 21.9979C10.4404 21.9979 9.99271 22.4457 9.9926 22.9979C9.9926 23.5502 10.4403 23.9979 10.9926 23.9979C11.5447 23.9977 11.9926 23.5501 11.9926 22.9979C11.9925 22.4459 11.5446 21.9982 10.9926 21.9979ZM21.9916 21.9979C21.4495 21.998 21.0077 22.4295 20.9916 22.9677L20.9926 22.997L20.9916 23.0204C21.0035 23.5624 21.4468 23.9979 21.9916 23.9979C22.5439 23.9979 22.9916 23.5502 22.9916 22.9979C22.9915 22.4457 22.5438 21.9979 21.9916 21.9979ZM20.9877 20.1698C21.3016 20.0584 21.6396 19.9979 21.9916 19.9979C23.301 19.9979 24.4142 20.8371 24.8237 22.0067H26.0072C26.5604 22.0067 27.0085 21.5579 27.0072 21.0048L27.0004 17.9989H20.9848L20.9877 20.1698ZM20.9809 15.9989H26.9447C26.7094 14.8573 25.6985 13.999 24.4877 13.9989H20.9779L20.9809 15.9989Z" fill="#B2B8BF"/>
<path fill-rule="evenodd" clip-rule="evenodd" d="M12.31 5.85634C12.6454 5.77484 13.0043 5.87195 13.2533 6.12099C13.5376 6.40546 13.6228 6.83249 13.4711 7.20497L9.58342 16.7518C9.42544 17.1391 9.04251 17.3865 8.62443 17.3729C8.20626 17.3592 7.84074 17.0873 7.70842 16.6903L6.45256 12.9218L2.684 11.6659C2.28708 11.5336 2.0151 11.1681 2.00139 10.7499C1.98781 10.3318 2.23519 9.94889 2.62248 9.79091L12.1684 5.90224L12.31 5.85634ZM5.88029 10.6229L7.559 11.1825L7.6674 11.2265C7.91367 11.3421 8.10471 11.554 8.19182 11.8153L8.75139 13.4921L10.724 8.64931L5.88029 10.6229Z" fill="#B2B8BF"/>
</svg>
