<svg width="20" height="20" viewBox="0 0 20 20" fill="none" xmlns="http://www.w3.org/2000/svg">
<path d="M7.58125 2.18634C8.03066 2.50735 8.13476 3.1319 7.81375 3.58131L6.08603 6.00012H13.914L12.1862 3.58131C11.8652 3.1319 11.9693 2.50735 12.4187 2.18634C12.8682 1.86533 13.4927 1.96943 13.8137 2.41884L16.3137 5.91884C16.3327 5.94535 16.3501 5.97248 16.3661 6.00012H19C19.5523 6.00012 20 6.44783 20 7.00012C20 7.5524 19.5523 8.00012 19 8.00012H2.34404L4.74404 16.0001H8.00001C8.55229 16.0001 9.00001 16.4478 9.00001 17.0001C9.00001 17.5524 8.55229 18.0001 8.00001 18.0001H4.00001C3.5584 18.0001 3.16908 17.7104 3.04218 17.2875L0.042182 7.28747C-0.0486503 6.98469 0.00902211 6.6568 0.197715 6.40319C0.386408 6.14958 0.683902 6.00012 1.00001 6.00012H3.63388C3.64988 5.97248 3.66734 5.94535 3.68628 5.91884L6.18628 2.41884C6.50729 1.96943 7.13184 1.86533 7.58125 2.18634Z" fill="#B2B8BF"/>
<path d="M13.5 15C14.3284 15 15 14.3284 15 13.5C15 12.6716 14.3284 12 13.5 12C12.6716 12 12 12.6716 12 13.5C12 14.3284 12.6716 15 13.5 15Z" fill="#B2B8BF"/>
<path d="M18.5 20C19.3284 20 20 19.3284 20 18.5C20 17.6716 19.3284 17 18.5 17C17.6716 17 17 17.6716 17 18.5C17 19.3284 17.6716 20 18.5 20Z" fill="#B2B8BF"/>
<path d="M14.2071 19.2071L19.2071 14.2071C19.5976 13.8166 19.5976 13.1834 19.2071 12.7929C18.8166 12.4024 18.1834 12.4024 17.7929 12.7929L12.7929 17.7929C12.4024 18.1834 12.4024 18.8166 12.7929 19.2071C13.1834 19.5976 13.8166 19.5976 14.2071 19.2071Z" fill="#B2B8BF"/>
</svg>
