<svg width="20" height="20" viewBox="0 0 20 20" fill="none" xmlns="http://www.w3.org/2000/svg">
<path d="M7.34451 0.0611596C7.12219 -0.0203865 6.87814 -0.0203865 6.65582 0.0611596L0.655907 2.26185C0.137408 2.45203 -0.128748 3.02653 0.0614315 3.54503C0.251611 4.06353 0.826108 4.32968 1.34461 4.1395L7.00016 2.06511L12.6557 4.1395C13.1742 4.32968 13.7487 4.06353 13.9389 3.54503C14.1291 3.02653 13.8629 2.45203 13.3444 2.26185L7.34451 0.0611596Z" fill="#B2B8BF"/>
<path d="M1.03038 11.9998C0.478103 11.9998 0.030395 12.4475 0.030395 12.9998C0.030395 13.5521 0.478103 13.9998 1.03038 13.9998H8.53027C9.08254 13.9998 9.53025 13.5521 9.53025 12.9998C9.53025 12.4475 9.08254 11.9998 8.53027 11.9998H1.03038Z" fill="#B2B8BF"/>
<path d="M7.03029 4.99992C7.58256 4.99992 8.03027 5.44763 8.03027 5.99991V9.73029C8.03027 10.2826 7.58256 10.7303 7.03029 10.7303C6.47801 10.7303 6.0303 10.2826 6.0303 9.73029V5.99991C6.0303 5.44763 6.47801 4.99992 7.03029 4.99992Z" fill="#B2B8BF"/>
<path d="M4.03033 5.99991C4.03033 5.44763 3.58263 4.99992 3.03035 4.99992C2.47807 4.99992 2.03036 5.44763 2.03036 5.99991V9.73029C2.03036 10.2826 2.47807 10.7303 3.03035 10.7303C3.58263 10.7303 4.03033 10.2826 4.03033 9.73029V5.99991Z" fill="#B2B8BF"/>
<path fill-rule="evenodd" clip-rule="evenodd" d="M13 7.99988C13 7.4476 13.4478 6.99989 14 6.99989H16.478C17.8156 6.99989 18.7706 7.49651 19.3502 8.29862C19.8877 9.04237 20 9.90946 20 10.4998V10.6672C20 11.3228 19.8162 12.1537 19.2441 12.8396C18.6432 13.5599 17.7142 13.9998 16.478 13.9998H15.0302V14.9998H16.1551C16.7074 14.9998 17.1551 15.4475 17.1551 15.9998C17.1551 16.552 16.7074 16.9997 16.1551 16.9997H15.0302V17.9997C15.0302 18.552 14.5825 18.9997 14.0302 18.9997C13.4779 18.9997 13.0302 18.552 13.0302 17.9997V16.9997H12.1552C11.6029 16.9997 11.1552 16.552 11.1552 15.9998C11.1552 15.4475 11.6029 14.9998 12.1552 14.9998H13.0302V13.9998H12.1601C11.6078 13.9998 11.1601 13.5521 11.1601 12.9998C11.1601 12.4475 11.6078 11.9998 12.1601 11.9998H13.0302V8.24456C13.0105 8.16626 13 8.08429 13 7.99988ZM15.0302 11.9998V8.99986H16.478C17.2757 8.99986 17.5816 9.26584 17.7292 9.47003C17.9189 9.73256 18 10.1155 18 10.4998V10.6672C18 10.9865 17.9056 11.3219 17.7082 11.5585C17.5395 11.7608 17.2075 11.9998 16.478 11.9998H15.0302Z" fill="#B2B8BF"/>
</svg>
