<svg width="32" height="32" viewBox="0 0 32 32" fill="none" xmlns="http://www.w3.org/2000/svg">
<path d="M12.5477 15.8626C12.0205 15.8346 11.6017 15.3982 11.6017 14.864C11.6017 14.3117 12.0494 13.864 12.6017 13.864H12.6959C13.238 11.6888 15.2047 10.0771 17.5477 10.0771H18.0913C18.6436 10.0771 19.0913 10.5249 19.0913 11.0771C19.0913 11.6294 18.6436 12.0771 18.0913 12.0771H17.5477C16.3226 12.0771 15.269 12.8115 14.8031 13.864H16.5641C17.1164 13.864 17.5641 14.3117 17.5641 14.864C17.5641 15.4163 17.1164 15.864 16.5641 15.864H14.5477V16.1348H16.5641C17.1164 16.1348 17.5641 16.5825 17.5641 17.1348C17.5641 17.687 17.1164 18.1348 16.5641 18.1348H14.8031C15.269 19.1873 16.3226 19.9216 17.5477 19.9216H18.0913C18.6436 19.9216 19.0913 20.3693 19.0913 20.9216C19.0913 21.4739 18.6436 21.9216 18.0913 21.9216H17.5477C15.2047 21.9216 13.238 20.31 12.6959 18.1348H12.6017C12.0494 18.1348 11.6017 17.687 11.6017 17.1348C11.6017 16.6006 12.0205 16.1642 12.5477 16.1362V15.8626Z" fill="#21A19A"/>
<path fill-rule="evenodd" clip-rule="evenodd" d="M4 10C4 6.68629 6.68629 4 10 4H22C25.3137 4 28 6.68629 28 10V22C28 25.3137 25.3137 28 22 28H10C6.68629 28 4 25.3137 4 22V10ZM10 6H22C24.2091 6 26 7.79086 26 10V22C26 24.2091 24.2091 26 22 26H10C7.79086 26 6 24.2091 6 22V10C6 7.79086 7.79086 6 10 6Z" fill="#21A19A"/>
</svg>
