<svg width="32" height="32" viewBox="0 0 32 32" fill="none" xmlns="http://www.w3.org/2000/svg">
<path fill-rule="evenodd" clip-rule="evenodd" d="M14.5634 3.64463C15.4589 3.15622 16.5411 3.15622 17.4366 3.64463L26.4366 8.55372C27.4003 9.07942 28 10.0896 28 11.1874V20.8129C28 21.9107 27.4003 22.9209 26.4366 23.4466L17.4366 28.3557C16.5411 28.8441 15.4589 28.8441 14.5634 28.3557L5.56344 23.4466C4.59966 22.9209 4 21.9107 4 20.8129V11.1874C4 10.0896 4.59966 9.07942 5.56344 8.55372L14.5634 3.64463ZM16.4789 5.40042C16.1804 5.23762 15.8196 5.23762 15.5211 5.40042L6.52115 10.3095C6.19989 10.4847 6 10.8215 6 11.1874V20.8129C6 21.1788 6.19989 21.5155 6.52115 21.6908L15.5211 26.5999C15.8196 26.7627 16.1804 26.7627 16.4789 26.5999L25.4789 21.6908C25.8001 21.5155 26 21.1788 26 20.8129V11.1874C26 10.8215 25.8001 10.4847 25.4789 10.3095L16.4789 5.40042Z" fill="#B2B8BF"/>
<path fill-rule="evenodd" clip-rule="evenodd" d="M17 4.00015V28.0001H15V4.00015H17Z" fill="#B2B8BF"/>
<path fill-rule="evenodd" clip-rule="evenodd" d="M27.6661 16.0001C27.6661 16.5524 27.2184 17.0001 26.6661 17.0001H15.9994C15.4471 17.0001 14.9994 16.5524 14.9994 16.0001C14.9994 15.4479 15.4471 15.0001 15.9994 15.0001H26.6661C27.2184 15.0001 27.6661 15.4479 27.6661 16.0001Z" fill="#B2B8BF"/>
</svg>
