<svg width="32" height="32" viewBox="0 0 32 32" fill="none" xmlns="http://www.w3.org/2000/svg">
<path d="M6 12V19C6 20.1046 6.89543 21 8 21H24C25.1046 21 26 20.1046 26 19V12" stroke="#B2B8BF" stroke-width="2" stroke-linecap="round" stroke-linejoin="round"/>
<path d="M16 22V25.3333" stroke="#B2B8BF" stroke-width="2" stroke-linecap="round" stroke-linejoin="round"/>
<path d="M8 26H24" stroke="#B2B8BF" stroke-width="2" stroke-linecap="round" stroke-linejoin="round"/>
<path d="M5 5L4 9" stroke="#B2B8BF" stroke-width="2" stroke-linecap="round" stroke-linejoin="round"/>
<path d="M27 5L28 9" stroke="#B2B8BF" stroke-width="2" stroke-linecap="round" stroke-linejoin="round"/>
<path d="M8.5 5L8 9" stroke="#B2B8BF" stroke-width="2" stroke-linecap="round" stroke-linejoin="round"/>
<path d="M12.5 5L12 9" stroke="#B2B8BF" stroke-width="2" stroke-linecap="round" stroke-linejoin="round"/>
<path d="M23.5294 5L24.0294 9" stroke="#B2B8BF" stroke-width="2" stroke-linecap="round" stroke-linejoin="round"/>
<path d="M19.5294 5L20.0294 9" stroke="#B2B8BF" stroke-width="2" stroke-linecap="round" stroke-linejoin="round"/>
<path d="M16 5V9" stroke="#B2B8BF" stroke-width="2" stroke-linecap="round" stroke-linejoin="round"/>
<path d="M9.49227 5.12414C9.56077 4.57612 9.17204 4.07633 8.62402 4.00783C8.076 3.93932 7.57621 4.32805 7.50771 4.87607L7.00771 8.87607C6.93921 9.42409 7.32793 9.92388 7.87595 9.99238C8.42397 10.0609 8.92376 9.67216 8.99227 9.12414L9.49227 5.12414Z" fill="#B2B8BF"/>
<path d="M5.97013 5.24297C6.10408 4.70717 5.77832 4.16424 5.24253 4.03029C4.70673 3.89634 4.1638 4.2221 4.02985 4.7579L3.02985 8.7579C2.8959 9.29369 3.22166 9.83663 3.75746 9.97057C4.29325 10.1045 4.83619 9.77876 4.97013 9.24297L5.97013 5.24297Z" fill="#B2B8BF"/>
<path d="M7 12.0002C7 11.4479 6.55228 11.0002 6 11.0002C5.44772 11.0002 5 11.4479 5 12.0002V19.0002C5 20.6571 6.34315 22.0002 8 22.0002H15V25.0002H8C7.44772 25.0002 7 25.4479 7 26.0002C7 26.5525 7.44772 27.0002 8 27.0002H24C24.5523 27.0002 25 26.5525 25 26.0002C25 25.4479 24.5523 25.0002 24 25.0002H17V22.0002H24C25.6569 22.0002 27 20.6571 27 19.0002V12.0002C27 11.4479 26.5523 11.0002 26 11.0002C25.4477 11.0002 25 11.4479 25 12.0002V19.0002C25 19.5525 24.5523 20.0002 24 20.0002H8C7.44772 20.0002 7 19.5525 7 19.0002V12.0002Z" fill="#B2B8BF"/>
<path d="M26.7575 4.03029C26.2217 4.16424 25.8959 4.70717 26.0299 5.24297L27.0299 9.24297C27.1638 9.77876 27.7067 10.1045 28.2425 9.97057C28.7783 9.83663 29.1041 9.29369 28.9701 8.7579L27.9701 4.7579C27.8362 4.2221 27.2933 3.89634 26.7575 4.03029Z" fill="#B2B8BF"/>
<path d="M12.624 4.00802C13.172 4.07653 13.5608 4.57632 13.4923 5.12434L12.9923 9.12434C12.9238 9.67236 12.424 10.0611 11.8759 9.99258C11.3279 9.92408 10.9392 9.42429 11.0077 8.87627L11.5077 4.87627C11.5762 4.32825 12.076 3.93952 12.624 4.00802Z" fill="#B2B8BF"/>
<path d="M22.5371 5.12414C22.4686 4.57612 22.8573 4.07633 23.4054 4.00783C23.9534 3.93932 24.4532 4.32805 24.5217 4.87607L25.0217 8.87607C25.0902 9.42409 24.7015 9.92388 24.1534 9.99238C23.6054 10.0609 23.1056 9.67216 23.0371 9.12414L22.5371 5.12414Z" fill="#B2B8BF"/>
<path d="M19.4054 4.00802C18.8574 4.07653 18.4686 4.57632 18.5371 5.12434L19.0371 9.12434C19.1056 9.67236 19.6054 10.0611 20.1534 9.99258C20.7015 9.92408 21.0902 9.42429 21.0217 8.87627L20.5217 4.87627C20.4532 4.32825 19.9534 3.93952 19.4054 4.00802Z" fill="#B2B8BF"/>
<path d="M17 5.0002C17 4.44791 16.5523 4.0002 16 4.0002C15.4477 4.0002 15 4.44791 15 5.0002V9.0002C15 9.55248 15.4477 10.0002 16 10.0002C16.5523 10.0002 17 9.55248 17 9.0002V5.0002Z" fill="#B2B8BF"/>
</svg>
