<svg width="32" height="32" viewBox="0 0 32 32" fill="none" xmlns="http://www.w3.org/2000/svg">
<path d="M5.99365 6.81818C5.99365 6.35681 6.36128 6 6.79365 6H15.339L21.9937 10.529V14.5716C21.9937 15.1239 22.4414 15.5716 22.9937 15.5716C23.5459 15.5716 23.9937 15.1239 23.9937 14.5716V10C23.9937 9.66904 23.8299 9.35951 23.5563 9.1733L16.2096 4.1733C16.0437 4.06038 15.8477 4 15.647 4H6.79365C5.2378 4 3.99365 5.27124 3.99365 6.81818V14.7165C3.99365 15.2688 4.44137 15.7165 4.99365 15.7165C5.54594 15.7165 5.99365 15.2688 5.99365 14.7165V6.81818Z" fill="#B2B8BF"/>
<path d="M28 17C28 16.4477 27.5523 16 27 16C26.4477 16 26 16.4477 26 17V25.1601C26 25.6447 25.6213 26 25.2 26H10.8C10.3787 26 10 25.6447 10 25.1601V17.3025C10 16.7502 9.55228 16.3025 9 16.3025C8.44772 16.3025 8 16.7502 8 17.3025V25.1601C8 26.7078 9.23305 28 10.8 28H25.2C26.767 28 28 26.7078 28 25.1601V17Z" fill="#B2B8BF"/>
<path d="M10 11C9.44772 11 9 11.4477 9 12C9 12.5523 9.44772 13 10 13H16C16.5523 13 17 12.5523 17 12C17 11.4477 16.5523 11 16 11H10Z" fill="#B2B8BF"/>
<path d="M12 16C12 15.4477 12.4477 15 13 15H19C19.5523 15 20 15.4477 20 16C20 16.5523 19.5523 17 19 17H13C12.4477 17 12 16.5523 12 16Z" fill="#B2B8BF"/>
<path d="M14 20.958C14 20.4057 14.4477 19.958 15 19.958H21C21.5523 19.958 22 20.4057 22 20.958C22 21.5103 21.5523 21.958 21 21.958H15C14.4477 21.958 14 21.5103 14 20.958Z" fill="#B2B8BF"/>
</svg>
