<svg width="20" height="20" viewBox="0 0 20 20" fill="none" xmlns="http://www.w3.org/2000/svg">
<path fill-rule="evenodd" clip-rule="evenodd" d="M6 0C6.55228 0 7 0.447715 7 1V2H13V1C13 0.447715 13.4477 0 14 0C14.5523 0 15 0.447715 15 1V2H17C18.6569 2 20 3.34315 20 5V17C20 18.6569 18.6569 20 17 20H3C1.34315 20 0 18.6569 0 17V5C0 3.34315 1.34315 2 3 2H5V1C5 0.447715 5.44772 0 6 0ZM13 4V5C13 5.55228 13.4477 6 14 6C14.5523 6 15 5.55228 15 5V4H17C17.5523 4 18 4.44772 18 5V17C18 17.5523 17.5523 18 17 18H3C2.44772 18 2 17.5523 2 17V5C2 4.44772 2.44772 4 3 4H5V5C5 5.55228 5.44772 6 6 6C6.55228 6 7 5.55228 7 5V4H13ZM10 8C8.34315 8 7 9.34315 7 11C7 12.6569 8.34315 14 10 14C11.6569 14 13 12.6569 13 11C13 9.34315 11.6569 8 10 8ZM5 11C5 8.23858 7.23858 6 10 6C12.7614 6 15 8.23858 15 11C15 12.0191 14.6951 12.967 14.1716 13.7574L15.7071 15.2929C16.0976 15.6834 16.0976 16.3166 15.7071 16.7071C15.3166 17.0976 14.6834 17.0976 14.2929 16.7071L12.7574 15.1716C11.967 15.6951 11.0191 16 10 16C7.23858 16 5 13.7614 5 11Z" fill="#21A19A"/>
</svg>
