<svg width="32" height="32" viewBox="0 0 32 32" fill="none" xmlns="http://www.w3.org/2000/svg">
<path fill-rule="evenodd" clip-rule="evenodd" d="M14.7336 4.74219C15.4702 4.14062 16.5298 4.14062 17.2666 4.74219L21.1382 7.91016V5.34375C21.1382 4.79102 21.5859 4.34375 22.1382 4.34375C22.6904 4.34375 23.1382 4.79102 23.1382 5.34375V9.54688L27.6333 13.2246C28.0608 13.5742 28.1238 14.2051 27.7739 14.6309C27.4243 15.0586 26.7942 15.123 26.3667 14.7715L16 6.29102L5.6333 14.7715C5.20581 15.123 4.57568 15.0586 4.22607 14.6309C3.87646 14.2051 3.93945 13.5742 4.3667 13.2246L14.7336 4.74219ZM14 11C13.4478 11 13 11.4473 13 12V16H12C11.4478 16 11 16.4473 11 17C11 17.5508 11.4478 18 12 18H13V19H12C11.4478 19 11 19.4473 11 20C11 20.5508 11.4478 21 12 21H13V22C13 22.5508 13.4478 23 14 23C14.5522 23 15 22.5508 15 22V21H16C16.5522 21 17 20.5508 17 20C17 19.4473 16.5522 19 16 19H15V18H16.478C17.7141 18 18.6433 17.5586 19.2441 16.8398C19.8162 16.1523 20 15.3223 20 14.666V14.5C20 13.9082 19.8877 13.041 19.3503 12.2988C18.7705 11.4961 17.8157 11 16.478 11H14ZM15 13V16H16.478C17.2075 16 17.5396 15.7598 17.7083 15.5586C17.9058 15.3223 18 14.9863 18 14.666V14.5C18 14.1152 17.9189 13.7324 17.7292 13.4688C17.5815 13.2656 17.2756 13 16.478 13H15ZM7 17C7.55225 17 8 17.4473 8 18V24C8 24.5527 8.44775 25 9 25H23C23.5522 25 24 24.5527 24 24V18C24 17.4473 24.4478 17 25 17C25.5522 17 26 17.4473 26 18V24C26 25.6582 24.6567 27 23 27H9C7.34326 27 6 25.6582 6 24V18C6 17.4473 6.44775 17 7 17Z" fill="#107F8C"/>
</svg>
