<svg width="32" height="32" viewBox="0 0 32 32" fill="none" xmlns="http://www.w3.org/2000/svg">
<path fill-rule="evenodd" clip-rule="evenodd" d="M8.09495 7.99903C9.69821 5.30775 12.6384 3.5 16 3.5C20.2149 3.5 23.7616 6.32941 24.8507 10.2029C27.8497 10.7597 30.125 13.3647 30.125 16.5312C30.125 17.0835 29.6773 17.5312 29.125 17.5312C28.5727 17.5312 28.125 17.0835 28.125 16.5312C28.125 14.1794 26.2997 12.2652 23.97 12.1039C23.5192 12.0727 23.1453 11.743 23.0579 11.2996C22.4047 7.98555 19.494 5.5 16 5.5C13.227 5.5 10.8155 7.07276 9.61348 9.38068C9.45871 9.67783 9.16543 9.87773 8.83228 9.91315C6.04433 10.2095 3.875 12.5734 3.875 15.4375C3.875 18.0525 5.68842 20.2537 8.12621 20.8442H12.2318C12.7841 20.8442 13.2318 21.292 13.2318 21.8442C13.2318 22.3965 12.7841 22.8442 12.2318 22.8442H8.01186C7.93894 22.8442 7.86623 22.8363 7.79504 22.8205C4.41137 22.0689 1.875 19.0476 1.875 15.4375C1.875 11.724 4.55549 8.62952 8.09495 7.99903Z" fill="#21A19A"/>
<path fill-rule="evenodd" clip-rule="evenodd" d="M23.4454 19.1681C23.9049 18.8617 24.5258 18.9859 24.8322 19.4454L26.5352 22H28C28.3361 22 28.6498 22.1689 28.8348 22.4495C29.0199 22.7301 29.0516 23.085 28.9191 23.3939L25.9191 30.3939C25.7616 30.7616 25.4 31 25 31H19C18.6 31 18.2384 30.7616 18.0809 30.3939L15.0809 23.3939C14.9484 23.085 14.9801 22.7301 15.1652 22.4495C15.3502 22.1689 15.6639 22 16 22H17.465L19.1681 19.4454C19.4744 18.9859 20.0953 18.8617 20.5548 19.1681C21.0143 19.4744 21.1385 20.0953 20.8322 20.5548L19.8687 22H24.1315L23.1681 20.5548C22.8617 20.0953 22.9859 19.4744 23.4454 19.1681ZM25.9804 24H18.0198C18.0061 24.0003 17.9923 24.0003 17.9785 24H17.5165L19.6594 29H24.3406L26.4835 24H26.0217C26.0079 24.0003 25.9941 24.0003 25.9804 24Z" fill="#21A19A"/>
</svg>
