<svg width="32" height="32" viewBox="0 0 32 32" fill="none" xmlns="http://www.w3.org/2000/svg">
<path d="M27.848 7.47013C28.1407 7.93847 27.9983 8.55542 27.53 8.84813L19.53 13.8481C19.1351 14.0949 18.6222 14.0365 18.2929 13.7072L14.5927 10.007L11.9778 22.2097C11.8833 22.6505 11.5055 22.9737 11.0553 22.9986C10.6051 23.0235 10.1939 22.7441 10.0513 22.3164L7.05018 13.313L6.45783 15.2875C6.33093 15.7105 5.94161 16.0001 5.5 16.0001H3C2.44772 16.0001 2 15.5524 2 15.0001C2 14.4478 2.44772 14.0001 3 14.0001H4.75597L6.04217 9.71279C6.16746 9.29516 6.54889 9.00685 6.98485 9.00025C7.42082 8.99364 7.8108 9.27027 7.94868 9.68391L10.79 18.2077L13.0222 7.7906C13.099 7.4324 13.3654 7.14484 13.7168 7.04108C14.0681 6.93732 14.4481 7.03399 14.7071 7.29303L19.1446 11.7305L26.47 7.15214C26.9383 6.85943 27.5553 7.0018 27.848 7.47013Z" fill="#B2B8BF"/>
<path d="M28.7809 20.1253C29.1259 20.5566 29.0559 21.1859 28.6247 21.5309L23.6247 25.5309C23.2635 25.8199 22.7512 25.8234 22.386 25.5394L20.386 23.9838C19.9501 23.6448 19.8716 23.0165 20.2106 22.5805C20.5497 22.1446 21.178 22.0661 21.6139 22.4051L22.9913 23.4764L27.3753 19.9692C27.8066 19.6242 28.4358 19.6941 28.7809 20.1253Z" fill="#B2B8BF"/>
<path d="M18.5 24C18.5 21.5147 20.5147 19.5 23 19.5C23.5791 19.5 24.1304 19.6089 24.6362 19.8064C25.1507 20.0073 25.7306 19.7532 25.9315 19.2387C26.1324 18.7243 25.8782 18.1444 25.3638 17.9435C24.6298 17.6568 23.832 17.5 23 17.5C19.4101 17.5 16.5 20.4101 16.5 24C16.5 27.5899 19.4101 30.5 23 30.5C26.4263 30.5 29.2327 27.8496 29.482 24.4864C29.5229 23.9357 29.1095 23.4561 28.5587 23.4152C28.0079 23.3744 27.5283 23.7878 27.4875 24.3386C27.315 26.6652 25.3713 28.5 23 28.5C20.5147 28.5 18.5 26.4853 18.5 24Z" fill="#B2B8BF"/>
</svg>
