<svg width="20" height="20" viewBox="0 0 20 20" fill="none" xmlns="http://www.w3.org/2000/svg">
<path d="M9.01925 0.672214C9.74891 0.119636 10.7606 0.132891 11.4755 0.704394L19.6245 7.21853C20.0558 7.56337 20.126 8.19264 19.7812 8.62403C19.4363 9.05542 18.807 9.12558 18.3757 8.78074L10.2267 2.2666L1.60378 8.79683C1.1635 9.13025 0.536288 9.04363 0.202861 8.60336C-0.130566 8.16308 -0.0439459 7.53586 0.396332 7.20244L9.01925 0.672214Z" fill="#B2B8BF"/>
<path d="M3 9.99963C3.55228 9.99963 4 10.4473 4 10.9996V17.9996H16V10.9996C16 10.4473 16.4477 9.99963 17 9.99963C17.5523 9.99963 18 10.4473 18 10.9996V17.9996C18 19.1042 17.1046 19.9996 16 19.9996H4C2.89543 19.9996 2 19.1042 2 17.9996V10.9996C2 10.4473 2.44772 9.99963 3 9.99963Z" fill="#B2B8BF"/>
<path fill-rule="evenodd" clip-rule="evenodd" d="M11 9.99963C12.1046 9.99963 13 10.8951 13 11.9996V13.9996C13 15.1042 12.1046 15.9996 11 15.9996H9C7.89543 15.9996 7 15.1042 7 13.9996V11.9996C7 10.8951 7.89543 9.99963 9 9.99963H11ZM11 11.9996H9V13.9996H11V11.9996Z" fill="#B2B8BF"/>
</svg>
