<svg width="20" height="20" viewBox="0 0 20 20" fill="none" xmlns="http://www.w3.org/2000/svg">
<path fill-rule="evenodd" clip-rule="evenodd" d="M15.0001 4.99994C12.2387 4.99994 10.0001 7.23849 10.0001 9.99988C10.0001 11.6357 10.7857 13.088 12.0001 14.0002V18.9998C12.0001 19.3463 12.1795 19.6682 12.4744 19.8504C12.7692 20.0326 13.1373 20.0492 13.4473 19.8942L15.0001 19.1178L16.5528 19.8942C16.8628 20.0492 17.2309 20.0326 17.5258 19.8504C17.8206 19.6682 18 19.3463 18 18.9998V14.0002C19.2145 13.088 20 11.6357 20 9.99988C20 7.23849 17.7615 4.99994 15.0001 4.99994ZM12.0001 9.99988C12.0001 8.34304 13.3432 6.99991 15.0001 6.99991C16.6569 6.99991 18 8.34304 18 9.99988C18 11.6567 16.6569 12.9998 15.0001 12.9998C13.3432 12.9998 12.0001 11.6567 12.0001 9.99988ZM16 14.8998C15.6769 14.9654 15.3425 14.9998 15.0001 14.9998C14.6576 14.9998 14.3232 14.9654 14.0001 14.8998V17.3818L14.5529 17.1054C14.8344 16.9646 15.1657 16.9646 15.4473 17.1054L16 17.3818V14.8998Z" fill="#B2B8BF"/>
<path d="M7.34454 0.0611597C7.12221 -0.0203866 6.87816 -0.0203866 6.65584 0.0611597L0.655909 2.26186C0.137408 2.45204 -0.128748 3.02654 0.0614317 3.54504C0.251611 4.06354 0.82611 4.3297 1.34461 4.13952L7.00019 2.06512L12.6558 4.13952C13.1743 4.3297 13.7488 4.06354 13.9389 3.54504C14.1291 3.02654 13.863 2.45204 13.3445 2.26186L7.34454 0.0611597Z" fill="#B2B8BF"/>
<path d="M1.00023 11.9999C0.447954 11.9999 0.000244141 12.4476 0.000244141 12.9998C0.000244141 13.5521 0.447954 13.9998 1.00023 13.9998H7.00016C7.55244 13.9998 8.00015 13.5521 8.00015 12.9998C8.00015 12.4476 7.55244 11.9999 7.00016 11.9999H1.00023Z" fill="#B2B8BF"/>
<path d="M7.03043 4.99994C7.58271 4.99994 8.03042 5.44765 8.03042 5.99993V9.49988C8.03042 10.0522 7.58271 10.4999 7.03043 10.4999C6.47815 10.4999 6.03044 10.0522 6.03044 9.49988V5.99993C6.03044 5.44765 6.47815 4.99994 7.03043 4.99994Z" fill="#B2B8BF"/>
<path d="M4.03047 5.99993C4.03047 5.44765 3.58276 4.99994 3.03048 4.99994C2.4782 4.99994 2.03049 5.44765 2.03049 5.99993V9.49988C2.03049 10.0522 2.4782 10.4999 3.03048 10.4999C3.58276 10.4999 4.03047 10.0522 4.03047 9.49988V5.99993Z" fill="#B2B8BF"/>
</svg>
