<svg width="20" height="20" viewBox="0 0 20 20" fill="none" xmlns="http://www.w3.org/2000/svg">
<g clip-path="url(#clip0_37825_1531)">
<path fill-rule="evenodd" clip-rule="evenodd" d="M16.3275 16.9468C16.3275 18.5985 14.9885 19.9375 13.3368 19.9375H9.58442C8.76269 19.9375 7.97716 19.5994 7.41232 19.0026L1.94356 13.2243C1.41792 12.6689 1.125 11.9332 1.125 11.1685V2.99046C1.125 1.33877 2.46396 -0.000194702 4.11565 -0.000194702H8.04089C8.59145 -0.000194702 9.03777 0.446126 9.03777 0.99669C9.03777 1.54725 8.59145 1.99357 8.04089 1.99357H4.11565C3.56509 1.99357 3.11877 2.4399 3.11877 2.99046V10.9655H7.10631C8.758 10.9655 10.097 12.3045 10.097 13.9562V17.9437H13.3368C13.8874 17.9437 14.3337 17.4974 14.3337 16.9468V10.2179C14.3337 9.66731 14.78 9.22099 15.3306 9.22099C15.8812 9.22099 16.3275 9.66731 16.3275 10.2179V16.9468ZM8.10319 16.832L4.43793 12.9593H7.10631C7.65687 12.9593 8.10319 13.4056 8.10319 13.9562V16.832Z" fill="#107F8C"/>
<path d="M17.2893 8.09949C18.1345 8.09949 18.8197 7.41432 18.8197 6.56912C18.8197 5.72392 18.1345 5.03875 17.2893 5.03875C16.4441 5.03875 15.759 5.72392 15.759 6.56912C15.759 7.41432 16.4441 8.09949 17.2893 8.09949Z" fill="#107F8C"/>
<path d="M12.1881 2.99825C13.0333 2.99825 13.7185 2.31308 13.7185 1.46787C13.7185 0.622672 13.0333 -0.0625 12.1881 -0.0625C11.3429 -0.0625 10.6577 0.622672 10.6577 1.46787C10.6577 2.31308 11.3429 2.99825 12.1881 2.99825Z" fill="#107F8C"/>
<path d="M18.0108 2.1893L12.9095 7.29055C12.5111 7.68898 11.8651 7.68898 11.4667 7.29055C11.0682 6.89211 11.0682 6.24613 11.4667 5.84769L16.5679 0.746448C16.9663 0.348016 17.6123 0.348016 18.0108 0.746448C18.4092 1.14488 18.4092 1.79087 18.0108 2.1893Z" fill="#107F8C"/>
</g>
<defs>
<clipPath id="clip0_37825_1531">
<rect width="20" height="20" fill="white" transform="translate(20 20) rotate(-180)"/>
</clipPath>
</defs>
</svg>
