<svg width="32" height="32" viewBox="0 0 32 32" fill="none" xmlns="http://www.w3.org/2000/svg">
<path fill-rule="evenodd" clip-rule="evenodd" d="M22 3C23.6569 3 25 4.34315 25 6V26C25 27.6569 23.6569 29 22 29H10C8.34315 29 7 27.6569 7 26V6C7 4.34315 8.34315 3 10 3H11.882C12.9459 3 13.9186 3.60114 14.3944 4.55279C14.5315 4.82687 14.8116 5 15.118 5H16.882C17.1884 5 17.4685 4.82687 17.6056 4.55279C18.0814 3.60114 19.0541 3 20.118 3L22 3ZM23 6C23 5.44772 22.5523 5 22 5H20.118C19.8116 5 19.5315 5.17313 19.3944 5.44721C18.9186 6.39886 17.9459 7 16.882 7H15.118C14.0541 7 13.0814 6.39886 12.6056 5.44721C12.4685 5.17313 12.1884 5 11.882 5H10C9.44771 5 9 5.44772 9 6L9 26C9 26.5523 9.44772 27 10 27H22C22.5523 27 23 26.5523 23 26V6Z" fill="#21A19A"/>
<path fill-rule="evenodd" clip-rule="evenodd" d="M13 24C13 23.4477 13.4477 23 14 23H18C18.5523 23 19 23.4477 19 24C19 24.5523 18.5523 25 18 25H14C13.4477 25 13 24.5523 13 24Z" fill="#21A19A"/>
</svg>
