<svg width="20" height="20" viewBox="0 0 20 20" fill="none" xmlns="http://www.w3.org/2000/svg">
<path d="M0 3C0 1.34315 1.34315 0 3 0H17C18.6569 0 20 1.34315 20 3V6.5C20 7.05228 19.5523 7.5 19 7.5C18.4477 7.5 18 7.05228 18 6.5V3C18 2.44772 17.5523 2 17 2H3C2.44772 2 2 2.44772 2 3V12C2 12.5523 2.44772 13 3 13H7.5C8.05228 13 8.5 13.4477 8.5 14C8.5 14.5523 8.05228 15 7.5 15H3C1.34315 15 0 13.6569 0 12V3Z" fill="#107F8C"/>
<path d="M4 5.5C4 4.94772 4.44772 4.5 5 4.5H15C15.5523 4.5 16 4.94772 16 5.5C16 6.05228 15.5523 6.5 15 6.5H5C4.44772 6.5 4 6.05228 4 5.5Z" fill="#107F8C"/>
<path d="M20 17.5C20 18.3284 19.3284 19 18.5 19C17.6716 19 17 18.3284 17 17.5C17 16.6716 17.6716 16 18.5 16C19.3284 16 20 16.6716 20 17.5Z" fill="#107F8C"/>
<path d="M13.5 14C14.3284 14 15 13.3284 15 12.5C15 11.6716 14.3284 11 13.5 11C12.6716 11 12 11.6716 12 12.5C12 13.3284 12.6716 14 13.5 14Z" fill="#107F8C"/>
<path d="M19.7071 12.7071C20.0976 12.3166 20.0976 11.6834 19.7071 11.2929C19.3166 10.9024 18.6834 10.9024 18.2929 11.2929L12.2929 17.2929C11.9024 17.6834 11.9024 18.3166 12.2929 18.7071C12.6834 19.0976 13.3166 19.0976 13.7071 18.7071L19.7071 12.7071Z" fill="#107F8C"/>
</svg>
