<svg width="20" height="20" viewBox="0 0 20 20" fill="none" xmlns="http://www.w3.org/2000/svg">
<path fill-rule="evenodd" clip-rule="evenodd" d="M15.659 2.07347C14.0426 1.7093 12.4371 2.72438 12.0729 4.34071C11.7087 5.95705 12.7238 7.56257 14.3402 7.92674C15.9565 8.29092 17.562 7.27584 17.9262 5.6595C18.0476 5.12073 18.5828 4.78237 19.1215 4.90376C19.6603 5.02515 19.9987 5.56032 19.8773 6.0991C19.2703 8.793 16.5945 10.4848 13.9006 9.87783C11.2067 9.27088 9.51487 6.59501 10.1218 3.90111C10.7288 1.20722 13.4047 -0.484576 16.0986 0.122382C16.6373 0.243773 16.9757 0.778947 16.8543 1.31773C16.7329 1.8565 16.1977 2.19486 15.659 2.07347ZM1.05273 3.99995C0.50045 3.99995 0.0527344 4.44767 0.0527344 4.99995C0.0527344 5.55224 0.50045 5.99995 1.05273 5.99995H1.86039C2.33707 5.99995 2.74749 6.33641 2.84097 6.80383L4.51942 15.1961C4.6129 15.6635 5.02332 16 5.5 16H14C14.4767 16 14.8871 15.6635 14.9806 15.1961L15.4806 12.6961C15.5889 12.1545 15.2377 11.6277 14.6961 11.5194C14.1546 11.4111 13.6277 11.7623 13.5194 12.3038L13.1802 14H6.3198L5.5198 9.99995H9C9.55228 9.99995 10 9.55224 10 8.99995C10 8.44767 9.55228 7.99995 9 7.99995H5.1198L4.80213 6.4116C4.52168 5.00933 3.29044 3.99995 1.86039 3.99995H1.05273ZM14.5 18.5C14.5 19.3284 13.8284 20 13 20C12.1716 20 11.5 19.3284 11.5 18.5C11.5 17.6715 12.1716 17 13 17C13.8284 17 14.5 17.6715 14.5 18.5ZM6 20C6.82843 20 7.5 19.3284 7.5 18.5C7.5 17.6715 6.82843 17 6 17C5.17157 17 4.5 17.6715 4.5 18.5C4.5 19.3284 5.17157 20 6 20ZM18.6402 3.7682C19.0645 3.41463 19.1218 2.78407 18.7682 2.35979C18.4147 1.93551 17.7841 1.87819 17.3598 2.23175L15.0614 4.14713L14.7071 3.79287C14.3166 3.40234 13.6834 3.40234 13.2929 3.79287C12.9024 4.18339 12.9024 4.81656 13.2929 5.20708L14.2929 6.20708C14.6586 6.5728 15.2429 6.5993 15.6402 6.2682L18.6402 3.7682Z" fill="#B2B8BF"/>
</svg>
