<svg width="20" height="20" viewBox="0 0 20 20" fill="none" xmlns="http://www.w3.org/2000/svg">
<path d="M16 1C16.5523 1 17 1.44772 17 2V3.26795L18.0981 2.63397C18.5764 2.35783 19.188 2.5217 19.4641 3C19.7403 3.47829 19.5764 4.08988 19.0981 4.36602L18 5L19.0981 5.63397C19.5764 5.91011 19.7403 6.52171 19.4641 7C19.188 7.47829 18.5764 7.64217 18.0981 7.36602L17 6.73204V8C17 8.55228 16.5523 9 16 9C15.4477 9 15 8.55228 15 8V6.73205L13.9019 7.36602C13.4236 7.64217 12.812 7.47829 12.5359 7C12.2598 6.5217 12.4236 5.91011 12.9019 5.63397L14 5L12.9019 4.36602C12.4236 4.08988 12.2598 3.47829 12.5359 3C12.8121 2.5217 13.4236 2.35783 13.9019 2.63397L15 3.26794V2C15 1.44772 15.4477 1 16 1Z" fill="#B2B8BF"/>
<path d="M8 6C4.68629 6 2 8.68629 2 12C2 15.3137 4.68629 18 8 18C11.3137 18 14 15.3137 14 12C14 11.708 13.9792 11.4214 13.9392 11.1416C13.861 10.5949 14.2408 10.0883 14.7875 10.0101C15.3342 9.93187 15.8408 10.3117 15.919 10.8584C15.9724 11.2318 16 11.613 16 12C16 16.4183 12.4183 20 8 20C3.58172 20 0 16.4183 0 12C0 7.58172 3.58172 4 8 4C8.58705 4 9.16044 4.0634 9.7133 4.1841C10.2529 4.30191 10.5948 4.83482 10.477 5.37439C10.3592 5.91396 9.82627 6.25588 9.2867 6.13808C8.87309 6.04777 8.4427 6 8 6Z" fill="#B2B8BF"/>
<path d="M8 8C8.55229 8 9 8.44772 9 9V11H11C11.5523 11 12 11.4477 12 12C12 12.5523 11.5523 13 11 13H9V15C9 15.5523 8.55229 16 8 16C7.44772 16 7 15.5523 7 15V13H5C4.44772 13 4 12.5523 4 12C4 11.4477 4.44772 11 5 11H7V9C7 8.44772 7.44772 8 8 8Z" fill="#B2B8BF"/>
</svg>
