<svg width="20" height="20" viewBox="0 0 20 20" fill="none" xmlns="http://www.w3.org/2000/svg">
<path d="M0 4C0 2.89543 0.89543 2 2 2H18C19.1046 2 20 2.89543 20 4V9.5C20 10.0523 19.5523 10.5 19 10.5C18.4477 10.5 18 10.0523 18 9.5V4L2 4V12H8.5C9.05229 12 9.5 12.4477 9.5 13C9.5 13.5523 9.05229 14 8.5 14H2C0.89543 14 0 13.1046 0 12V4Z" fill="#21A19A"/>
<path fill-rule="evenodd" clip-rule="evenodd" d="M7 8C7 6.34315 8.34315 5 10 5C11.6569 5 13 6.34315 13 8C13 9.65685 11.6569 11 10 11C8.34315 11 7 9.65685 7 8ZM10 7C9.44772 7 9 7.44772 9 8C9 8.55228 9.44772 9 10 9C10.5523 9 11 8.55228 11 8C11 7.44772 10.5523 7 10 7Z" fill="#21A19A"/>
<path d="M16 12C16 11.4477 15.5523 11 15 11C14.4477 11 14 11.4477 14 12V17C14 17.5523 14.4477 18 15 18C15.5523 18 16 17.5523 16 17V12Z" fill="#21A19A"/>
<path d="M20 13C20 12.4477 19.5523 12 19 12C18.4477 12 18 12.4477 18 13V17C18 17.5523 18.4477 18 19 18C19.5523 18 20 17.5523 20 17V13Z" fill="#21A19A"/>
<path d="M12 15C12 14.4477 11.5523 14 11 14C10.4477 14 10 14.4477 10 15V17C10 17.5523 10.4477 18 11 18C11.5523 18 12 17.5523 12 17V15Z" fill="#21A19A"/>
</svg>
