<svg width="32" height="32" viewBox="0 0 32 32" fill="none" xmlns="http://www.w3.org/2000/svg">
<path fill-rule="evenodd" clip-rule="evenodd" d="M5 16C5 9.92487 9.92487 5 16 5C22.0751 5 27 9.92487 27 16C27 22.0751 22.0751 27 16 27C12.3977 27 9.19992 25.2685 7.19342 22.5923C10.33 22.7546 12.5538 21.5615 13.9535 19.7048C14.1306 19.4699 14.2929 19.2264 14.4413 18.9761C14.5586 19.0105 14.6774 19.0428 14.7979 19.0731C16.6048 19.5274 18.718 19.5105 21.2033 19.2612L19.1863 22.085C18.8653 22.5344 18.9694 23.1589 19.4188 23.4799C19.8682 23.8009 20.4927 23.6968 20.8137 23.2474L24.1471 18.5808C24.4312 18.183 24.3861 17.6381 24.0404 17.2924L20.0404 13.2924C19.6499 12.9019 19.0168 12.9019 18.6262 13.2924C18.2357 13.6829 18.2357 14.3161 18.6262 14.7066L21.1729 17.2533C18.6995 17.5098 16.8111 17.517 15.2855 17.1334L15.2634 17.1278C15.7661 15.5502 15.8521 13.8931 15.6566 12.5249C15.4624 11.1654 14.8335 10.1564 13.9235 9.57609C13.0311 9.00706 11.9763 8.92113 11.0599 9.19154C10.1443 9.46175 9.30719 10.1059 8.88092 11.0685C8.44554 12.0517 8.49711 13.2307 9.10557 14.4477C9.11385 14.4642 9.12258 14.4806 9.13177 14.4966C10.0982 16.1878 11.2184 17.3894 12.5797 18.1828C12.5088 18.2914 12.4344 18.3975 12.3565 18.5008C11.2446 19.9758 9.29481 21.047 5.92914 20.4316C5.33171 19.0758 5 17.5767 5 16ZM16 3C8.8203 3 3 8.8203 3 16C3 23.1797 8.8203 29 16 29C23.1797 29 29 23.1797 29 16C29 8.8203 23.1797 3 16 3ZM13.6767 12.8077C13.8302 13.8822 13.7617 15.1523 13.4103 16.3476C12.4608 15.7484 11.6414 14.8506 10.8826 13.5294C10.504 12.759 10.5592 12.218 10.7096 11.8783C10.8707 11.5146 11.2051 11.234 11.626 11.1098C12.0462 10.9858 12.493 11.0359 12.8482 11.2624C13.1858 11.4777 13.5504 11.9236 13.6767 12.8077Z" fill="#B2B8BF"/>
</svg>
