<svg width="20" height="20" viewBox="0 0 20 20" fill="none" xmlns="http://www.w3.org/2000/svg">
<path fill-rule="evenodd" clip-rule="evenodd" d="M16.997 0.92335C17.0394 1.47401 16.6273 1.95474 16.0767 1.9971L5.8466 2.78403C4.8046 2.86418 3.99999 3.73306 3.99999 4.77813V16C3.99999 17.1046 4.89542 18 5.99999 18H16V6.00003H7.49998C6.9477 6.00003 6.49998 5.55232 6.49998 5.00004C6.49998 4.44775 6.9477 4.00004 7.49998 4.00004H17C17.5522 4.00004 18 4.44775 18 5.00004V19C18 19.5523 17.5522 20 17 20H5.99999C3.79085 20 2 18.2091 2 16V4.77813C2 2.68799 3.60922 0.950228 5.6932 0.789922L15.9233 0.00299408C16.4739 -0.0393641 16.9547 0.372693 16.997 0.92335ZM6.99998 9.99998C6.99998 9.44769 7.4477 8.99998 7.99998 8.99998L13 8.99998C13.5523 8.99998 14 9.44769 14 9.99998C14 10.5523 13.5523 11 13 11L7.99998 11C7.4477 11 6.99998 10.5523 6.99998 9.99998ZM9.49998 12C8.94769 12 8.49998 12.4477 8.49998 13C8.49998 13.5523 8.94769 14 9.49998 14H11.5C12.0523 14 12.5 13.5523 12.5 13C12.5 12.4477 12.0523 12 11.5 12H9.49998Z" fill="#B2B8BF"/>
</svg>
