<svg width="32" height="32" viewBox="0 0 32 32" fill="none" xmlns="http://www.w3.org/2000/svg">
<path d="M5.24878 6.56836C5.24878 5.46378 6.14422 4.56835 7.24879 4.56836L22.8009 4.56847C23.9054 4.56847 24.8009 5.4639 24.8009 6.56847V10.9284C24.8009 11.4807 24.3531 11.9284 23.8009 11.9284C23.2486 11.9284 22.8009 11.4807 22.8009 10.9284V6.56847L7.24878 6.56836V21.5614H11.0816C11.6339 21.5614 12.0816 22.0092 12.0816 22.5614C12.0816 23.1137 11.6339 23.5614 11.0816 23.5614H7.24878C6.14421 23.5614 5.24878 22.666 5.24878 21.5614V6.56836Z" fill="#B2B8BF"/>
<path d="M9.12838 10.8782C9.12838 10.326 9.57609 9.87824 10.1284 9.87824H19.5335C20.0858 9.87824 20.5335 10.326 20.5335 10.8782C20.5335 11.4305 20.0858 11.8782 19.5335 11.8782H10.1284C9.57609 11.8782 9.12838 11.4305 9.12838 10.8782Z" fill="#B2B8BF"/>
<path fill-rule="evenodd" clip-rule="evenodd" d="M25.6555 24.2394C26.4611 23.1684 26.9385 21.8366 26.9385 20.3932C26.9385 16.8559 24.0709 13.9883 20.5335 13.9883C16.9962 13.9883 14.1286 16.8559 14.1286 20.3932C14.1286 23.9306 16.9962 26.7982 20.5335 26.7982C21.9058 26.7982 23.1772 26.3666 24.2196 25.6319L27.0858 28.4981C27.4763 28.8886 28.1095 28.8886 28.5 28.4981C28.8905 28.1076 28.8905 27.4744 28.5 27.0839L25.6555 24.2394ZM20.5335 24.7982C22.9663 24.7982 24.9385 22.826 24.9385 20.3932C24.9385 17.9604 22.9663 15.9883 20.5335 15.9883C18.1008 15.9883 16.1286 17.9604 16.1286 20.3932C16.1286 22.826 18.1008 24.7982 20.5335 24.7982Z" fill="#B2B8BF"/>
</svg>
