<svg width="20" height="20" viewBox="0 0 20 20" fill="none" xmlns="http://www.w3.org/2000/svg">
<path d="M5.80013 0C5.24786 0 4.80016 0.447702 4.80016 0.99997C4.80016 1.55224 5.24786 1.99994 5.80013 1.99994H14.1999C14.7521 1.99994 15.1999 1.55224 15.1999 0.99997C15.1999 0.447702 14.7521 0 14.1999 0H5.80013Z" fill="#B2B8BF"/>
<path d="M5.00016 12.4996C5.00016 11.9474 4.55245 11.4997 4.00019 11.4997C3.44792 11.4997 3.00022 11.9474 3.00022 12.4996V16.9995C3.00022 18.6563 4.34332 19.9994 6.00013 19.9994H13.9999C15.6567 19.9994 16.9998 18.6563 16.9998 16.9995V12.4996C16.9998 11.9474 16.5521 11.4997 15.9998 11.4997C15.4476 11.4997 14.9999 11.9474 14.9999 12.4996V16.9995C14.9999 17.5518 14.5522 17.9995 13.9999 17.9995H6.00013C5.44786 17.9995 5.00016 17.5518 5.00016 16.9995V12.4996Z" fill="#B2B8BF"/>
<path fill-rule="evenodd" clip-rule="evenodd" d="M10 10.9997C8.3432 10.9997 7.0001 12.3428 7.0001 13.9996C7.0001 15.6564 8.3432 16.9995 10 16.9995C11.6568 16.9995 12.9999 15.6564 12.9999 13.9996C12.9999 12.3428 11.6568 10.9997 10 10.9997ZM9.00004 13.9996C9.00004 13.4473 9.44774 12.9996 10 12.9996C10.5523 12.9996 11 13.4473 11 13.9996C11 14.5518 10.5523 14.9996 10 14.9996C9.44774 14.9996 9.00004 14.5518 9.00004 13.9996Z" fill="#B2B8BF"/>
<path d="M0.0515865 2.68372C-0.123056 3.20765 0.160096 3.77395 0.684023 3.94859L3.68393 4.94856C4.20786 5.12321 4.77416 4.84005 4.94881 4.31613C5.12345 3.7922 4.8403 3.2259 4.31637 3.05125L1.31646 2.05128C0.792532 1.87664 0.226229 2.15979 0.0515865 2.68372Z" fill="#B2B8BF"/>
<path d="M19.9484 2.68372C20.1231 3.20765 19.8399 3.77395 19.316 3.94859L16.3161 4.94856C15.7921 5.12321 15.2258 4.84005 15.0512 4.31613C14.8766 3.7922 15.1597 3.2259 15.6836 3.05125L18.6835 2.05128C19.2075 1.87664 19.7738 2.15979 19.9484 2.68372Z" fill="#B2B8BF"/>
<path fill-rule="evenodd" clip-rule="evenodd" d="M7.00009 5.99982C7.00009 4.34302 8.34319 2.99991 10 2.99991C11.6568 2.99991 12.9999 4.34302 12.9999 5.99982C12.9999 7.65662 11.6568 8.99973 10 8.99973C8.34319 8.99973 7.00009 7.65662 7.00009 5.99982ZM10 4.99985C9.44773 4.99985 9.00003 5.44755 9.00003 5.99982C9.00003 6.55209 9.44773 6.99979 10 6.99979C10.5523 6.99979 11 6.55209 11 5.99982C11 5.44755 10.5523 4.99985 10 4.99985Z" fill="#B2B8BF"/>
<path d="M19.316 8.05105C19.8399 8.22569 20.1231 8.79199 19.9484 9.31592C19.7738 9.83985 19.2075 10.123 18.6835 9.94836L15.6836 8.94839C15.1597 8.77375 14.8766 8.20744 15.0512 7.68352C15.2258 7.15959 15.7921 6.87644 16.3161 7.05108L19.316 8.05105Z" fill="#B2B8BF"/>
<path d="M0.684023 8.05105C0.160096 8.22569 -0.123056 8.79199 0.0515865 9.31592C0.226229 9.83985 0.792532 10.123 1.31646 9.94836L4.31637 8.94839C4.8403 8.77375 5.12345 8.20744 4.94881 7.68352C4.77416 7.15959 4.20786 6.87644 3.68393 7.05108L0.684023 8.05105Z" fill="#B2B8BF"/>
</svg>
