<svg width="32" height="32" viewBox="0 0 32 32" fill="none" xmlns="http://www.w3.org/2000/svg">
<path fill-rule="evenodd" clip-rule="evenodd" d="M23 6C24.6569 6 26 7.34315 26 9V23C26 24.6569 24.6569 26 23 26H9C7.34315 26 6 24.6569 6 23V9C6 7.34315 7.34315 6 9 6H23ZM8 23C8 23.5523 8.44772 24 9 24H23C23.5523 24 24 23.5523 24 23V13H19V15C19 16.1046 18.1046 17 17 17H15C13.8954 17 13 16.1046 13 15V13H8V23ZM15 15H17V13H15V15ZM9 8C8.44772 8 8 8.44772 8 9V11H24V9C24 8.44772 23.5523 8 23 8H9Z" fill="#107F8C"/>
</svg>
