<svg width="32" height="32" viewBox="0 0 32 32" fill="none" xmlns="http://www.w3.org/2000/svg">
<path d="M19 9.5C19 7.01472 21.0147 5 23.5 5C24.0791 5 24.6304 5.1089 25.1362 5.30643C25.6507 5.50733 26.2306 5.25316 26.4315 4.73871C26.6324 4.22427 26.3782 3.64436 25.8638 3.44345C25.1298 3.15683 24.332 3 23.5 3C19.9101 3 17 5.91015 17 9.5C17 13.0899 19.9101 16 23.5 16C26.9263 16 29.7327 13.3496 29.982 9.98644C30.0229 9.43567 29.6095 8.95608 29.0587 8.91524C28.5079 8.8744 28.0283 9.28779 27.9875 9.83856C27.815 12.1652 25.8713 14 23.5 14C21.0147 14 19 11.9853 19 9.5Z" fill="#107F8C"/>
<path d="M29.2809 5.62534C29.6259 6.0566 29.556 6.6859 29.1247 7.03091L24.1247 11.0309C23.7635 11.3199 23.2512 11.3234 22.8861 11.0394L20.8861 9.48383C20.4502 9.14476 20.3716 8.51649 20.7107 8.08054C21.0498 7.64459 21.678 7.56606 22.114 7.90513L23.4913 8.97639L27.8754 5.46917C28.3066 5.12416 28.9359 5.19408 29.2809 5.62534Z" fill="#107F8C"/>
<path fill-rule="evenodd" clip-rule="evenodd" d="M9 8C8.44772 8 8 8.44772 8 9V21.3368C8.45463 21.1208 8.9632 21 9.5 21H24V19C24 18.4477 24.4477 18 25 18C25.5523 18 26 18.4477 26 19V22C26 22.5523 25.5523 23 25 23H24.5C23.6716 23 23 23.6716 23 24.5C23 25.3284 23.6716 26 24.5 26H25C25.5523 26 26 26.4477 26 27C26 27.5523 25.5523 28 25 28H9.5C7.567 28 6 26.433 6 24.5C6 24.3899 6.00508 24.2811 6.01502 24.1736C6.00515 24.1172 6 24.0592 6 24V9C6 7.34315 7.34315 6 9 6H14.5C15.0523 6 15.5 6.44772 15.5 7C15.5 7.55228 15.0523 8 14.5 8H9ZM21.3368 26C21.1208 25.5454 21 25.0368 21 24.5C21 23.9632 21.1208 23.4546 21.3368 23H9.5C8.67157 23 8 23.6716 8 24.5C8 25.3284 8.67157 26 9.5 26H21.3368Z" fill="#107F8C"/>
</svg>
