<svg width="32" height="32" viewBox="0 0 32 32" fill="none" xmlns="http://www.w3.org/2000/svg">
<path fill-rule="evenodd" clip-rule="evenodd" d="M22.1875 5.9375H10.1875C7.97836 5.9375 6.1875 7.72836 6.1875 9.9375V21.9375C6.1875 24.1466 7.97836 25.9375 10.1875 25.9375H22.1875C24.3966 25.9375 26.1875 24.1466 26.1875 21.9375V9.9375C26.1875 7.72836 24.3966 5.9375 22.1875 5.9375ZM10.1875 3.9375C6.87379 3.9375 4.1875 6.62379 4.1875 9.9375V21.9375C4.1875 25.2512 6.87379 27.9375 10.1875 27.9375H22.1875C25.5012 27.9375 28.1875 25.2512 28.1875 21.9375V9.9375C28.1875 6.62379 25.5012 3.9375 22.1875 3.9375H10.1875Z" fill="#107F8C"/>
<path fill-rule="evenodd" clip-rule="evenodd" d="M16.1261 23.9791C20.7357 23.9791 24.4725 20.2423 24.4725 15.6327C24.4725 11.0232 20.7357 7.28638 16.1261 7.28638C11.5166 7.28638 7.77979 11.0232 7.77979 15.6327C7.77979 20.2407 11.514 23.9766 16.1215 23.9791L16.1261 23.9791ZM16.1245 9.28638C15.9991 9.28679 15.8048 9.34037 15.5445 9.58809C15.278 9.84167 14.9926 10.2559 14.7311 10.8442C14.5568 11.2364 14.4018 11.6865 14.2727 12.1836H17.9793C17.8502 11.6865 17.6953 11.2364 17.5209 10.8442C17.2594 10.2559 16.974 9.84167 16.7075 9.58809C16.4462 9.3394 16.2514 9.28638 16.126 9.28638H16.1245ZM12.8264 10.2106C12.5788 10.8022 12.3736 11.4665 12.2169 12.1836H10.798C11.317 11.3835 12.0112 10.7077 12.8264 10.2106ZM11.9208 14.1836H9.94599C9.83728 14.649 9.77979 15.1342 9.77979 15.6327C9.77979 16.1313 9.83727 16.6164 9.94597 17.0818H11.9208C11.8813 16.6098 11.861 16.1254 11.861 15.6327C11.861 15.1401 11.8813 14.6556 11.9208 14.1836ZM12.2169 19.0818H10.7979C11.3169 19.8819 12.0112 20.5577 12.8264 21.0549C12.5787 20.4633 12.3735 19.7989 12.2169 19.0818ZM14.2727 19.0818H17.9793C17.8502 19.5789 17.6953 20.029 17.5209 20.4213C17.2594 21.0096 16.974 21.4238 16.7075 21.6774C16.4462 21.9261 16.2514 21.9791 16.126 21.9791C16.0006 21.9791 15.8058 21.9261 15.5445 21.6774C15.278 21.4238 14.9926 21.0096 14.7311 20.4213C14.5567 20.029 14.4018 19.5789 14.2727 19.0818ZM18.3234 17.0818H13.9287C13.8846 16.6177 13.861 16.133 13.861 15.6327C13.861 15.1324 13.8846 14.6477 13.9287 14.1836H18.3233C18.3675 14.6477 18.3911 15.1324 18.3911 15.6327C18.3911 16.133 18.3675 16.6177 18.3234 17.0818ZM20.0351 19.0818C19.8785 19.799 19.6732 20.4634 19.4255 21.0551C20.2409 20.5579 20.9353 19.882 21.4543 19.0818H20.0351ZM22.3063 17.0818H20.3312C20.3707 16.6098 20.3911 16.1254 20.3911 15.6327C20.3911 15.1401 20.3707 14.6556 20.3312 14.1836H22.3063C22.415 14.649 22.4725 15.1342 22.4725 15.6327C22.4725 16.1313 22.415 16.6164 22.3063 17.0818ZM19.4255 10.2104C20.2408 10.7075 20.9352 11.3834 21.4543 12.1836H20.0351C19.8784 11.4664 19.6732 10.802 19.4255 10.2104Z" fill="#107F8C"/>
</svg>
