<svg width="32" height="32" viewBox="0 0 32 32" fill="none" xmlns="http://www.w3.org/2000/svg">
<path fill-rule="evenodd" clip-rule="evenodd" d="M10.2858 7.00024C10.7597 4.27352 13.1377 2.2002 16 2.2002C18.8622 2.2002 21.2402 4.27352 21.7141 7.00024H24C25.1046 7.00024 26 7.89567 26 9.00024V25.0002C26 26.1048 25.1046 27.0002 24 27.0002H23.5C22.9477 27.0002 22.5 26.5525 22.5 26.0002C22.5 25.448 22.9477 25.0002 23.5 25.0002H24V9.00024H8V21.0002C8 21.5525 7.55228 22.0002 7 22.0002C6.44772 22.0002 6 21.5525 6 21.0002V9.00024C6 7.89567 6.89543 7.00024 8 7.00024H10.2858ZM12.3329 7.00024C12.7718 5.38668 14.2473 4.2002 16 4.2002C17.7526 4.2002 19.2281 5.38668 19.667 7.00024H12.3329Z" fill="#107F8C"/>
<path fill-rule="evenodd" clip-rule="evenodd" d="M16.3541 15.5651C16.7429 15.7123 17 16.0846 17 16.5002V22.086L20.2071 25.2931C20.4931 25.5791 20.5787 26.0092 20.4239 26.3829C20.2691 26.7566 19.9045 27.0002 19.5 27.0002H7.59999C7.20668 27.0002 6.84988 26.7697 6.68829 26.4111C6.5267 26.0525 6.59031 25.6325 6.85085 25.3378L15.2508 15.8378C15.5262 15.5264 15.9654 15.4178 16.3541 15.5651ZM9.81905 25.0002H17.0858L15.2929 23.2074C15.1053 23.0198 15 22.7655 15 22.5002V19.1408L9.81905 25.0002Z" fill="#107F8C"/>
</svg>
