<svg width="32" height="32" viewBox="0 0 32 32" fill="none" xmlns="http://www.w3.org/2000/svg">
<path d="M16 5C16.5523 5 17 5.44772 17 6C17 6.55228 16.5523 7 16 7H8C7.44772 7 7 7.44772 7 8V24C7 24.5523 7.44772 25 8 25H22C22.5523 25 23 24.5523 23 24V17C23 16.4477 23.4477 16 24 16C24.5523 16 25 16.4477 25 17V24C25 25.6569 23.6569 27 22 27H8C6.34315 27 5 25.6569 5 24V8C5 6.34315 6.34315 5 8 5H16Z" fill="#B2B8BF"/>
<path d="M17.1025 20.0049C17.6067 20.0562 18 20.4823 18 21C18 21.5177 17.6067 21.9438 17.1025 21.9951L17 22H11C10.4477 22 10 21.5523 10 21C10 20.4477 10.4477 20 11 20H17L17.1025 20.0049Z" fill="#B2B8BF"/>
<path d="M14 15C14.5523 15 15 15.4477 15 16C15 16.5523 14.5523 17 14 17H11C10.4477 17 10 16.5523 10 16C10 15.4477 10.4477 15 11 15H14Z" fill="#B2B8BF"/>
<path d="M27.041 5.00195C27.0459 5.00215 27.0508 5.00168 27.0557 5.00195L27.1025 5.00488C27.1124 5.00588 27.1221 5.00751 27.1318 5.00879C27.1361 5.00935 27.1403 5.01013 27.1445 5.01074C27.2633 5.02795 27.3751 5.06594 27.4766 5.12109C27.4803 5.12311 27.4836 5.12586 27.4873 5.12793C27.5375 5.15608 27.5855 5.18754 27.6299 5.22363C27.6345 5.22741 27.639 5.23148 27.6436 5.23535C27.6869 5.27194 27.7271 5.3121 27.7637 5.35547C27.7706 5.36361 27.7776 5.37158 27.7842 5.37988C27.8388 5.44889 27.8839 5.52541 27.9189 5.60742C27.972 5.73136 27.9983 5.86351 27.999 5.99609L28 6V12C28 12.5523 27.5523 13 27 13C26.4477 13 26 12.5523 26 12V8.41504L19.707 14.707L19.6309 14.7764C19.2382 15.0962 18.6589 15.0727 18.293 14.707C17.9029 14.3166 17.9028 13.6834 18.293 13.293L24.5879 7H21C20.4477 7 20 6.55228 20 6C20 5.44772 20.4477 5 21 5H27L27.041 5.00195Z" fill="#B2B8BF"/>
<path d="M14 10C14.5523 10 15 10.4477 15 11C15 11.5523 14.5523 12 14 12H11C10.4477 12 10 11.5523 10 11C10 10.4477 10.4477 10 11 10H14Z" fill="#B2B8BF"/>
</svg>
