<svg width="32" height="32" viewBox="0 0 32 32" fill="none" xmlns="http://www.w3.org/2000/svg">
<path d="M9 4C7.34315 4 6 5.34315 6 7V8C6 8.55228 6.44772 9 7 9C7.55228 9 8 8.55228 8 8V7C8 6.44772 8.44772 6 9 6H23C23.5523 6 24 6.44772 24 7V8C24 8.55228 24.4477 9 25 9C25.5523 9 26 8.55228 26 8V7C26 5.34315 24.6569 4 23 4H9Z" fill="#21A19A"/>
<path d="M9 28C7.34315 28 6 26.6569 6 25V24C6 23.4477 6.44772 23 7 23C7.55228 23 8 23.4477 8 24V25C8 25.5523 8.44772 26 9 26H23C23.5523 26 24 25.5523 24 25V24C24 23.4477 24.4477 23 25 23C25.5523 23 26 23.4477 26 24V25C26 26.6569 24.6569 28 23 28H9Z" fill="#21A19A"/>
<path d="M16.2188 9C16.771 9 17.2188 9.44772 17.2188 10V10.9403C17.9981 11.1266 18.6557 11.5674 19.0859 12.3178C19.3606 12.7969 19.1949 13.408 18.7157 13.6827C18.2366 13.9574 17.6255 13.7917 17.3508 13.3126C17.1962 13.0429 16.9312 12.835 16.2776 12.835C15.9008 12.835 15.5123 12.9808 15.2753 13.2189C15.0833 13.4118 14.9062 13.7443 15.0555 14.3816C15.0812 14.4914 15.1694 14.65 15.5131 14.871C15.8323 15.0762 16.2286 15.2477 16.7242 15.4623L16.9091 15.5424C17.4397 15.7731 18.0913 16.0649 18.6157 16.4829C19.1738 16.9278 19.6531 17.5683 19.7124 18.4762C19.8043 19.8812 19.2923 20.8802 18.4738 21.4832C18.0704 21.7804 17.6286 21.9552 17.2188 22.0532V22.6633C17.2188 23.2156 16.771 23.6633 16.2188 23.6633C15.6665 23.6633 15.2188 23.2156 15.2188 22.6633V22.0686C14.371 21.9012 13.6344 21.5011 13.1632 20.7516C12.8693 20.284 13.0101 19.6667 13.4777 19.3728C13.9453 19.0788 14.5626 19.2196 14.8565 19.6872C14.9899 19.8994 15.3226 20.1651 16.2776 20.1651C16.5963 20.1651 17.0036 20.0823 17.2874 19.8731C17.503 19.7142 17.7686 19.4013 17.7167 18.6066C17.7041 18.4146 17.6238 18.2499 17.3689 18.0468C17.0804 17.8167 16.6659 17.6175 16.1116 17.3766C16.0528 17.351 15.992 17.3248 15.9296 17.2979C15.4595 17.0954 14.8993 16.854 14.4316 16.5533C13.8877 16.2037 13.304 15.6732 13.1082 14.8378C12.8147 13.5849 13.1393 12.5299 13.8578 11.8081C14.2489 11.415 14.727 11.1503 15.2188 10.9974V10C15.2188 9.44772 15.6665 9 16.2188 9Z" fill="#21A19A"/>
<path d="M6.81843 12.1816C6.42791 11.791 5.79475 11.791 5.40422 12.1816L2.29311 15.2927C2.22876 15.357 2.17501 15.428 2.13186 15.5033C2.04796 15.6497 2 15.8192 2 16C2 16.2851 2.11929 16.5423 2.31067 16.7244L5.40422 19.818C5.79475 20.2085 6.42791 20.2085 6.81843 19.818C7.20896 19.4275 7.20896 18.7943 6.81843 18.4038L5.41465 17H10C10.5523 17 11 16.5523 11 16C11 15.4477 10.5523 15 10 15H5.41421L6.81843 13.5958C7.20896 13.2053 7.20896 12.5721 6.81843 12.1816Z" fill="#21A19A"/>
<path d="M26.5958 12.1816C26.2053 11.791 25.5721 11.791 25.1816 12.1816C24.791 12.5721 24.791 13.2053 25.1816 13.5958L26.5858 15H22C21.4477 15 21 15.4477 21 16C21 16.5523 21.4477 17 22 17H26.5854L25.1816 18.4038C24.791 18.7943 24.791 19.4275 25.1816 19.818C25.5721 20.2085 26.2053 20.2085 26.5958 19.818L29.6893 16.7244C29.8807 16.5423 30 16.2851 30 16C30 15.8192 29.952 15.6497 29.8681 15.5033C29.825 15.428 29.7712 15.357 29.7069 15.2927L26.5958 12.1816Z" fill="#21A19A"/>
</svg>
