<svg width="20" height="20" viewBox="0 0 20 20" fill="none" xmlns="http://www.w3.org/2000/svg">
<path d="M2 9C2 5.68629 4.68629 3 8 3C8.59736 3 9.17263 3.08699 9.71475 3.24833C10.2441 3.40587 10.8009 3.10447 10.9585 2.57513C11.116 2.04579 10.8146 1.48896 10.2852 1.33143C9.55995 1.11557 8.79259 1 8 1C3.58172 1 0 4.58172 0 9C0 13.4183 3.58172 17 8 17C9.84926 17 11.5513 16.3725 12.9055 15.3198L16.7929 19.2071C17.1834 19.5976 17.8166 19.5976 18.2071 19.2071C18.5976 18.8166 18.5976 18.1834 18.2071 17.7929L14.3197 13.9055C14.6738 13.45 14.9796 12.9553 15.2296 12.4291C15.4038 12.0624 15.551 11.6802 15.6686 11.2852C15.8261 10.7559 15.5247 10.1991 14.9954 10.0415C14.466 9.88401 13.9092 10.1854 13.7517 10.7148C13.6637 11.0103 13.5536 11.2963 13.4231 11.5709C12.459 13.6003 10.392 15 8 15C4.68629 15 2 12.3137 2 9Z" fill="#107F8C"/>
<path d="M16 1C16.5523 1 17 1.44772 17 2V3.26795L18.0981 2.63397C18.5764 2.35783 19.188 2.5217 19.4641 3C19.7403 3.47829 19.5764 4.08988 19.0981 4.36602L18 5L19.0981 5.63397C19.5764 5.91011 19.7403 6.52171 19.4641 7C19.188 7.47829 18.5764 7.64217 18.0981 7.36602L17 6.73204V8C17 8.55228 16.5523 9 16 9C15.4477 9 15 8.55228 15 8V6.73205L13.9019 7.36602C13.4236 7.64217 12.812 7.47829 12.5359 7C12.2598 6.5217 12.4236 5.91011 12.9019 5.63397L14 5L12.9019 4.36602C12.4236 4.08988 12.2598 3.47829 12.5359 3C12.8121 2.5217 13.4236 2.35783 13.9019 2.63397L15 3.26794V2C15 1.44772 15.4477 1 16 1Z" fill="#107F8C"/>
</svg>
