<svg width="32" height="32" viewBox="0 0 32 32" fill="none" xmlns="http://www.w3.org/2000/svg">
<path fill-rule="evenodd" clip-rule="evenodd" d="M12.159 10.126C12.584 10.126 12.9625 10.3945 13.1029 10.7956L16.5149 20.5441C16.6973 21.0654 16.4226 21.6359 15.9014 21.8183C15.3801 22.0008 14.8096 21.7261 14.6272 21.2048L13.8379 18.9499H10.4801L9.69093 21.2048C9.50848 21.7261 8.938 22.0008 8.41672 21.8183C7.89544 21.6359 7.62076 21.0654 7.80321 20.5441L8.81913 17.6415C8.82392 17.6267 8.82904 17.6121 8.83449 17.5976L11.2152 10.7956C11.3556 10.3945 11.7341 10.126 12.159 10.126ZM11.1801 16.9499H13.1379L12.159 14.1531L11.1801 16.9499Z" fill="#107F8C"/>
<path fill-rule="evenodd" clip-rule="evenodd" d="M4 10C4 6.68629 6.68629 4 10 4H22C25.3137 4 28 6.68629 28 10V22C28 25.3137 25.3137 28 22 28H10C6.68629 28 4 25.3137 4 22V10ZM10 6H22C24.2091 6 26 7.79086 26 10V22C26 24.2091 24.2091 26 22 26H10C7.79086 26 6 24.2091 6 22V10C6 7.79086 7.79086 6 10 6Z" fill="#107F8C"/>
<path fill-rule="evenodd" clip-rule="evenodd" d="M23.8148 16.5625C23.8148 16.0102 23.3671 15.5625 22.8148 15.5625C22.5067 15.5625 22.2311 15.7018 22.0477 15.9209C21.6025 15.6918 21.0976 15.5625 20.5625 15.5625C18.7676 15.5625 17.3125 17.0176 17.3125 18.8125C17.3125 20.6074 18.7676 22.0625 20.5625 22.0625C21.006 22.0625 21.4288 21.9737 21.814 21.8128C21.8026 22.2624 21.669 22.4611 21.569 22.5616C21.4423 22.6888 21.2328 22.7922 20.9215 22.8474C20.6138 22.9019 20.2831 22.8953 20.0124 22.8686C19.8809 22.8556 19.7725 22.8389 19.6995 22.826C19.6632 22.8195 19.6363 22.8141 19.6202 22.8108L19.6059 22.8077C19.5771 22.8001 18.5726 22.5408 18.3459 23.5C18.1159 24.4732 19.1489 24.7548 19.1489 24.7548L19.1509 24.7553L19.1558 24.7564L19.1694 24.7595C19.1802 24.7619 19.1943 24.765 19.2115 24.7686C19.2458 24.7757 19.2927 24.785 19.3504 24.7953C19.4654 24.8156 19.6255 24.8402 19.8163 24.859C20.1901 24.8958 20.7188 24.9145 21.2705 24.8167C21.8186 24.7195 22.4685 24.4928 22.9864 23.9726C23.5264 23.4302 23.8148 22.6777 23.8148 21.75V16.5625ZM19.3125 18.8125C19.3125 18.1221 19.8721 17.5625 20.5625 17.5625C21.2529 17.5625 21.8125 18.1221 21.8125 18.8125C21.8125 19.5029 21.2529 20.0625 20.5625 20.0625C19.8721 20.0625 19.3125 19.5029 19.3125 18.8125Z" fill="#107F8C"/>
</svg>
