<svg width="20" height="20" viewBox="0 0 20 20" fill="none" xmlns="http://www.w3.org/2000/svg">
<path fill-rule="evenodd" clip-rule="evenodd" d="M15.1061 9.08085C15.3576 8.97305 15.6424 8.97305 15.8939 9.08085L19.3939 10.5809C19.7616 10.7384 20 11.1 20 11.5C20 13.3188 19.9404 14.7952 19.3798 16.1261C18.8049 17.4908 17.7616 18.5802 16.0918 19.8061C15.7396 20.0646 15.2604 20.0646 14.9082 19.8061C13.2431 18.5836 12.2004 17.4944 11.6244 16.1296C11.0624 14.7981 11 13.3205 11 11.5C11 11.1 11.2384 10.7384 11.6061 10.5809L15.1061 9.08085ZM13.0043 12.1576C13.0252 13.6162 13.1299 14.5533 13.467 15.3519C13.787 16.1101 14.3572 16.83 15.5001 17.742C16.6477 16.8267 17.2177 16.1068 17.5367 15.3496C17.8726 14.5521 17.9754 13.6171 17.9958 12.1576L15.5 11.088L13.0043 12.1576Z" fill="#107F8C"/>
<path d="M6.65567 0.0611605C6.878 -0.0203868 7.12205 -0.0203868 7.34438 0.0611605L13.3444 2.26189C13.8629 2.45207 14.129 3.02658 13.9389 3.54508C13.7487 4.06359 13.1742 4.32975 12.6557 4.13957L7.00003 2.06514L1.34438 4.13957C0.825876 4.32975 0.25137 4.06359 0.0611883 3.54508C-0.128994 3.02658 0.137166 2.45207 0.655673 2.26189L6.65567 0.0611605Z" fill="#107F8C"/>
<path d="M0.0302734 13C0.0302734 12.4477 0.477989 12 1.03027 12H8.53027C9.08256 12 9.53027 12.4477 9.53027 13C9.53027 13.5523 9.08256 14 8.53027 14H1.03027C0.477989 14 0.0302734 13.5523 0.0302734 13Z" fill="#107F8C"/>
<path d="M8 6C8 5.44772 7.55228 5 7 5C6.44772 5 6 5.44772 6 6V9.73044C6 10.2827 6.44772 10.7304 7 10.7304C7.55228 10.7304 8 10.2827 8 9.73044V6Z" fill="#107F8C"/>
<path d="M11 5C11.5523 5 12 5.44772 12 6V7C12 7.55228 11.5523 8 11 8C10.4477 8 10 7.55228 10 7V6C10 5.44772 10.4477 5 11 5Z" fill="#107F8C"/>
<path d="M4 6C4 5.44772 3.55228 5 3 5C2.44772 5 2 5.44772 2 6V9.73044C2 10.2827 2.44772 10.7304 3 10.7304C3.55228 10.7304 4 10.2827 4 9.73044V6Z" fill="#107F8C"/>
</svg>
