<svg width="20" height="20" viewBox="0 0 20 20" fill="none" xmlns="http://www.w3.org/2000/svg">
<path fill-rule="evenodd" clip-rule="evenodd" d="M7.5 0C5.01472 0 3 2.01472 3 4.5C3 6.98528 5.01472 9 7.5 9C9.98528 9 12 6.98528 12 4.5C12 2.01472 9.98528 0 7.5 0ZM5 4.5C5 3.11929 6.11929 2 7.5 2C8.88071 2 10 3.11929 10 4.5C10 5.88071 8.88071 7 7.5 7C6.11929 7 5 5.88071 5 4.5Z" fill="#21A19A"/>
<path d="M7.44388 12.47C6.08032 12.47 4.76007 11.9992 3.69836 11.1425C2.61855 12.2008 2 13.6686 2 15.2077C2 15.4667 2.01876 15.7326 2.05599 16.0001H7.44388C7.99616 16.0001 8.44388 16.4478 8.44388 17.0001C8.44388 17.5524 7.99616 18.0001 7.44388 18.0001H1.82736C0.971534 18.0001 0.263154 17.3765 0.118972 16.5552C0.0408382 16.1084 0 15.6548 0 15.2077C0 13.0272 0.921082 10.9447 2.53272 9.49411L2.53415 9.49282C3.18637 8.90804 4.16609 8.90208 4.82535 9.47748L4.8272 9.4791C5.55759 10.1198 6.48735 10.47 7.44388 10.47C7.86869 10.47 8.28698 10.4012 8.68469 10.269C9.2088 10.0949 9.77484 10.3786 9.94899 10.9027C10.1231 11.4268 9.83943 11.9929 9.31531 12.167C8.71613 12.3661 8.08501 12.47 7.44388 12.47Z" fill="#21A19A"/>
<path d="M15.6594 12.0733C14.0431 11.7091 12.4376 12.7242 12.0734 14.3405C11.7092 15.9569 12.7243 17.5624 14.3406 17.9265C15.957 18.2907 17.5625 17.2756 17.9267 15.6593C18.0481 15.1205 18.5832 14.7822 19.122 14.9036C19.6608 15.025 19.9992 15.5601 19.8778 16.0989C19.2708 18.7928 16.5949 20.4846 13.9011 19.8776C11.2072 19.2707 9.51536 16.5948 10.1223 13.9009C10.7293 11.207 13.4051 9.51523 16.099 10.1222C16.6378 10.2436 16.9762 10.7788 16.8548 11.3175C16.7334 11.8563 16.1982 12.1947 15.6594 12.0733Z" fill="#21A19A"/>
<path d="M18.6402 13.7682C19.0645 13.4147 19.1218 12.7841 18.7682 12.3598C18.4147 11.9356 17.7841 11.8782 17.3598 12.2318L15.0614 14.1472L14.7071 13.7929C14.3166 13.4024 13.6834 13.4024 13.2929 13.7929C12.9024 14.1834 12.9024 14.8166 13.2929 15.2071L14.2929 16.2071C14.6586 16.5728 15.2429 16.5994 15.6402 16.2682L18.6402 13.7682Z" fill="#21A19A"/>
</svg>
