<svg width="20" height="20" viewBox="0 0 20 20" fill="none" xmlns="http://www.w3.org/2000/svg">
<path d="M3 0C1.34315 0 0 1.34315 0 3V12C0 13.6569 1.34315 15 3 15H7.5C8.05228 15 8.5 14.5523 8.5 14C8.5 13.4477 8.05228 13 7.5 13H3C2.44772 13 2 12.5523 2 12V3C2 2.44772 2.44772 2 3 2H17C17.5523 2 18 2.44772 18 3V6.5C18 7.05228 18.4477 7.5 19 7.5C19.5523 7.5 20 7.05228 20 6.5V3C20 1.34315 18.6569 0 17 0H3Z" fill="#107F8C"/>
<path d="M5 4.5C4.44772 4.5 4 4.94772 4 5.5C4 6.05228 4.44772 6.5 5 6.5H15C15.5523 6.5 16 6.05228 16 5.5C16 4.94772 15.5523 4.5 15 4.5H5Z" fill="#107F8C"/>
<path fill-rule="evenodd" clip-rule="evenodd" d="M15.1061 9.08085C15.3576 8.97305 15.6424 8.97305 15.8939 9.08085L19.3939 10.5809C19.7616 10.7384 20 11.1 20 11.5C20 13.3188 19.9404 14.7952 19.3798 16.1261C18.8049 17.4908 17.7616 18.5802 16.0918 19.8061C15.7396 20.0646 15.2604 20.0646 14.9082 19.8061C13.2431 18.5836 12.2004 17.4944 11.6244 16.1296C11.0624 14.7981 11 13.3205 11 11.5C11 11.1 11.2384 10.7384 11.6061 10.5809L15.1061 9.08085ZM13.0043 12.1576C13.0252 13.6162 13.1299 14.5533 13.467 15.3519C13.787 16.1101 14.3572 16.83 15.5001 17.742C16.6477 16.8267 17.2177 16.1068 17.5367 15.3496C17.8726 14.5521 17.9754 13.6171 17.9958 12.1576L15.5 11.088L13.0043 12.1576Z" fill="#107F8C"/>
</svg>
