<svg width="20" height="20" viewBox="0 0 20 20" fill="none" xmlns="http://www.w3.org/2000/svg">
<path fill-rule="evenodd" clip-rule="evenodd" d="M15.6582 2.07435C14.0419 1.71019 12.4365 2.72522 12.0723 4.34148C11.7082 5.95773 12.7232 7.56318 14.3395 7.92733C15.9557 8.29149 17.5612 7.27646 17.9253 5.6602C18.0467 5.12145 18.5819 4.78311 19.1206 4.9045C19.6594 5.02588 19.9977 5.56103 19.8763 6.09978C19.2694 8.79354 16.5936 10.4853 13.8999 9.87833C11.2061 9.2714 9.51441 6.59566 10.1213 3.9019C10.7283 1.20814 13.404 -0.483575 16.0978 0.123353C16.6365 0.244738 16.9749 0.779886 16.8535 1.31864C16.7321 1.85739 16.1969 2.19573 15.6582 2.07435ZM1.05268 4.00073C0.500425 4.00073 0.0527318 4.44843 0.0527318 5.00068C0.0527318 5.55294 0.500425 6.00063 1.05268 6.00063H1.8603C2.33696 6.00063 2.74735 6.33708 2.84083 6.80448L4.5192 15.1963C4.61268 15.6637 5.02307 16.0001 5.49973 16.0001H13.9993C14.476 16.0001 14.8864 15.6637 14.9798 15.1963L15.4798 12.6964C15.5881 12.1549 15.2369 11.6281 14.6954 11.5198C14.1539 11.4115 13.6271 11.7627 13.5188 12.3042L13.1796 14.0002H6.3195L5.51953 10.0004H8.99956C9.55182 10.0004 9.99951 9.55275 9.99951 9.00049C9.99951 8.44823 9.55182 8.00054 8.99956 8.00054H5.11955L4.8019 6.41227C4.52146 5.01006 3.29027 4.00073 1.8603 4.00073H1.05268ZM14.4993 18.5C14.4993 19.3284 13.8278 20 12.9994 20C12.171 20 11.4994 19.3284 11.4994 18.5C11.4994 17.6716 12.171 17.0001 12.9994 17.0001C13.8278 17.0001 14.4993 17.6716 14.4993 18.5ZM5.99971 20C6.82809 20 7.49963 19.3284 7.49963 18.5C7.49963 17.6716 6.82809 17.0001 5.99971 17.0001C5.17132 17.0001 4.49978 17.6716 4.49978 18.5C4.49978 19.3284 5.17132 20 5.99971 20ZM18.6393 3.76899C19.0635 3.41544 19.1209 2.78491 18.7673 2.36065C18.4138 1.9364 17.7832 1.87908 17.359 2.23262L15.0606 4.1479L14.7064 3.79366C14.3159 3.40316 13.6827 3.40316 13.2922 3.79366C12.9017 4.18417 12.9017 4.8173 13.2922 5.20781L14.2922 6.20776C14.6579 6.57346 15.2421 6.59996 15.6394 6.26887L18.6393 3.76899Z" fill="#107F8C"/>
</svg>
