<svg width="20" height="20" viewBox="0 0 20 20" fill="none" xmlns="http://www.w3.org/2000/svg">
<path d="M12.7422 4.97085C12.2063 5.10475 11.6634 4.77894 11.5295 4.24313L11.0348 2.26329C11.0184 2.20324 11.0076 2.14131 11.0027 2.07822C10.9711 1.6779 11.1837 1.28984 11.5526 1.10545L13.5526 0.10574C14.0466 -0.141192 14.6473 0.0591015 14.8942 0.553108C15.1349 1.03459 14.9507 1.61739 14.4838 1.87525C16.7277 3.08646 18.3957 5.2255 18.9752 7.77983C19.0974 8.31843 18.7598 8.85411 18.2213 8.97631C17.6827 9.0985 17.147 8.76094 17.0248 8.22234C16.5655 6.19821 15.2231 4.5075 13.4247 3.57767L13.4699 3.75823C13.6038 4.29404 13.278 4.83695 12.7422 4.97085Z" fill="#107F8C"/>
<path d="M8.97189 1.76565C9.10192 2.30241 8.77221 2.84296 8.23545 2.97299C5.27881 3.68925 3 6.54324 3 10.033C3 12.054 4.02757 13.9339 5.45173 15.2828L5.4666 15.1537C5.52975 14.605 6.02573 14.2114 6.57439 14.2746C7.12305 14.3377 7.51663 14.8337 7.45348 15.3824L7.21765 17.4311C7.16405 17.8968 6.79423 18.2627 6.32806 18.3114L4.10421 18.5436C3.55491 18.6009 3.06312 18.2021 3.00577 17.6528C2.94854 17.1048 3.34536 16.614 3.89268 16.5548C2.241 14.9125 1 12.6211 1 10.033C1 5.6836 3.85037 1.97745 7.76455 1.02921C8.30131 0.899181 8.84185 1.2289 8.97189 1.76565Z" fill="#107F8C"/>
<path fill-rule="evenodd" clip-rule="evenodd" d="M13.8939 9.08173C13.6424 8.97392 13.3576 8.97392 13.1061 9.08173L9.60608 10.5817C9.2384 10.7393 9 11.1008 9 11.5009C9 13.3213 9.06239 14.7989 9.62438 16.1304C10.2004 17.4953 11.2431 18.5845 12.9082 19.807C13.2604 20.0655 13.7396 20.0655 14.0918 19.807C15.7616 18.5811 16.8049 17.4916 17.3798 16.1269C17.9404 14.7961 18 13.3197 18 11.5009C18 11.1008 17.7616 10.7393 17.3939 10.5817L13.8939 9.08173ZM11.467 15.3527C11.1299 14.5542 11.0252 13.6171 11.0043 12.1584L13.5 11.0888L15.9958 12.1585C15.9754 13.6179 15.8726 14.553 15.5367 15.3505C15.2177 16.1076 14.6477 16.8275 13.5001 17.7429C12.3572 16.8309 11.787 16.111 11.467 15.3527Z" fill="#107F8C"/>
</svg>
