<svg width="32" height="32" viewBox="0 0 32 32" fill="none" xmlns="http://www.w3.org/2000/svg">
<path d="M9 7C8.44772 7 8 7.44772 8 8C8 8.55228 8.44772 9 9 9H24V10C24 10.5523 24.4477 11 25 11C25.5523 11 26 10.5523 26 10V8C26 7.44772 25.5523 7 25 7H9Z" fill="#107F8C"/>
<path d="M6 11C4.89543 11 4 11.8954 4 13V20.9999C4 22.1046 4.89551 23 6.00012 22.9999L12.1429 22.9997C12.6952 22.9997 13.1429 22.5519 13.1429 21.9996C13.1428 21.4473 12.6951 20.9997 12.1428 20.9997L6 20.9999V13L16 13C16.5523 13 17 12.5523 17 12C17 11.4477 16.5523 11 16 11H6Z" fill="#107F8C"/>
<path fill-rule="evenodd" clip-rule="evenodd" d="M22.8967 12.5574C22.7283 12.2161 22.3806 12 22 12C21.6194 12 21.2717 12.2161 21.1033 12.5574L19.2787 16.2544L15.1988 16.8473C14.8221 16.902 14.5092 17.1659 14.3915 17.5279C14.2739 17.8899 14.372 18.2873 14.6446 18.553L17.5968 21.4307L16.8999 25.4941C16.8355 25.8692 16.9898 26.2484 17.2977 26.4721C17.6057 26.6959 18.0139 26.7254 18.3508 26.5483L22 24.6298L25.6492 26.5483C25.9861 26.7254 26.3943 26.6959 26.7023 26.4721C27.0102 26.2484 27.1645 25.8692 27.1001 25.4941L26.4032 21.4307L29.3554 18.553C29.628 18.2873 29.7261 17.8899 29.6085 17.5279C29.4908 17.1659 29.1779 16.902 28.8012 16.8473L24.7213 16.2544L22.8967 12.5574ZM20.8395 17.611L22 15.2596L23.1605 17.611C23.3062 17.9062 23.5877 18.1107 23.9135 18.158L26.5084 18.5351L24.6307 20.3655C24.395 20.5952 24.2875 20.9262 24.3431 21.2506L24.7864 23.8351L22.4653 22.6149C22.174 22.4617 21.826 22.4617 21.5347 22.6149L19.2136 23.8351L19.6569 21.2506C19.7125 20.9262 19.605 20.5952 19.3693 20.3655L17.4916 18.5351L20.0865 18.158C20.4123 18.1107 20.6938 17.9061 20.8395 17.611Z" fill="#107F8C"/>
</svg>
