<svg width="20" height="20" viewBox="0 0 20 20" fill="none" xmlns="http://www.w3.org/2000/svg">
<path d="M17.9999 0.999995C17.9999 0.447713 17.5522 0 16.9999 0C16.4476 0 15.9999 0.447713 15.9999 0.999995V1.04659C15.7984 1.09797 15.585 1.17349 15.3757 1.28445C15.0158 1.47517 14.6663 1.76966 14.4081 2.20629C14.1522 2.6388 14.0174 3.15741 14.0004 3.75273C13.9739 4.67794 14.5054 5.27807 15.0508 5.63909C15.5143 5.94591 16.0997 6.1563 16.5511 6.31855L16.6408 6.3508C17.1722 6.54259 17.5433 6.68765 17.7931 6.86295C17.9927 7.00305 18 7.07581 18 7.15628C18 7.40251 17.943 7.55034 17.8874 7.64291C17.8288 7.7405 17.7428 7.82387 17.6271 7.8953C17.5083 7.96861 17.3708 8.02112 17.2388 8.0545C17.1744 8.07078 17.1169 8.08108 17.0713 8.08712C17.0274 8.09293 17.003 8.09368 17.0002 8.09376C16.8635 8.09376 16.5475 8.06134 16.2327 7.96536C15.8852 7.85944 15.7481 7.7401 15.7255 7.70781C15.4088 7.25536 14.7853 7.14533 14.3328 7.46204C13.8804 7.77876 13.7703 8.40228 14.087 8.85473C14.5019 9.44743 15.1768 9.73435 15.6495 9.87843C15.7667 9.91416 15.8843 9.9449 15.9999 9.97105V9.99995C15.9999 10.5522 16.4476 10.9999 16.9999 10.9999C17.5522 10.9999 17.9999 10.5522 17.9999 9.99995V9.91359C18.2207 9.83887 18.4524 9.73617 18.6776 9.59715C19.3791 9.16415 20 8.37886 20 7.15628C20 6.23674 19.5007 5.6181 18.9421 5.22598C18.4408 4.8741 17.8129 4.64754 17.3399 4.47688L17.3197 4.46958C16.7744 4.2728 16.4049 4.13694 16.1547 3.97134C16.0442 3.8982 16.0095 3.85119 16.0023 3.83979L16.0009 3.8374C16.0003 3.83456 15.9991 3.82603 15.9995 3.80985C16.0089 3.4833 16.0786 3.31051 16.1295 3.22446C16.1779 3.14254 16.2372 3.09134 16.3123 3.05158C16.503 2.9505 16.7558 2.93754 17 2.93754C17.1693 2.93754 17.4826 3.02242 17.763 3.35898C18.1166 3.78325 18.7472 3.84058 19.1714 3.48701C19.5957 3.13345 19.653 2.50289 19.2995 2.07861C18.9183 1.62126 18.4641 1.31056 17.9999 1.13026V0.999995Z" fill="#B2B8BF"/>
<path fill-rule="evenodd" clip-rule="evenodd" d="M9.13236 2.43165C9.4816 2.09929 9.77305 1.99999 9.99995 1.99999C10.4554 1.99999 10.9011 2.03794 11.3345 2.11065C11.8792 2.20202 12.3948 1.83456 12.4862 1.28989C12.5775 0.745217 12.2101 0.229598 11.6654 0.13822C11.1231 0.0472453 10.5667 0 9.99995 0C4.47713 0 0 4.47713 0 9.99995C0 15.5228 4.47713 19.9999 9.99995 19.9999C14.3556 19.9999 18.0583 17.2158 19.4306 13.3332C19.6147 12.8125 19.3418 12.2412 18.821 12.0571C18.3003 11.8731 17.729 12.146 17.545 12.6667C16.8491 14.6356 15.4046 16.2499 13.5543 17.1689C14.1735 15.928 14.6138 14.3557 14.8355 12.6271C14.9057 12.0794 14.5186 11.5783 13.9708 11.5081C13.423 11.4378 12.922 11.8249 12.8517 12.3727C12.6224 14.1612 12.1472 15.6474 11.5608 16.6547C10.9488 17.706 10.3707 17.9999 9.99995 17.9999C9.77305 17.9999 9.4816 17.9006 9.13236 17.5683C8.77797 17.231 8.41333 16.6957 8.08535 15.9577C7.52389 14.6945 7.12732 12.9665 7.02564 10.9999H10.9999C11.5522 10.9999 11.9999 10.5522 11.9999 9.99995C11.9999 9.44767 11.5522 8.99996 10.9999 8.99996H7.02564C7.12732 7.03344 7.52389 5.30544 8.08535 4.04216C8.41333 3.3042 8.77797 2.76891 9.13236 2.43165ZM5.02325 8.99996C5.12641 6.79594 5.56795 4.78189 6.25773 3.22989C6.31799 3.0943 6.38061 2.96121 6.44558 2.83098C4.09483 3.99873 2.39998 6.28867 2.06188 8.99996H5.02325ZM2.06188 10.9999C2.39998 13.7112 4.09483 16.0012 6.44558 17.1689C6.38061 17.0387 6.31799 16.9056 6.25773 16.77C5.56795 15.218 5.12641 13.204 5.02325 10.9999H2.06188Z" fill="#B2B8BF"/>
</svg>
