<svg width="20" height="20" viewBox="0 0 20 20" fill="none" xmlns="http://www.w3.org/2000/svg">
<path d="M16.2096 4.9778C16.7496 4.86208 17.0935 4.3305 16.9778 3.79047C16.8621 3.25045 16.3305 2.90648 15.7905 3.0222L10.3427 4.18959C10.7509 3.74464 11 3.15142 11 2.5C11 1.11929 9.88074 0 8.50002 0C7.11931 0 6.00002 1.11929 6.00002 2.5C6.00002 3.52918 6.62192 4.41311 7.51043 4.7965L1.79049 6.0222C1.25047 6.13792 0.906502 6.6695 1.02222 7.20953C1.13794 7.74955 1.66953 8.09352 2.20955 7.9778L7.68578 6.80433L5.02384 18.7831C4.90403 19.3222 5.24396 19.8564 5.78309 19.9762C6.32223 20.096 6.8564 19.7561 6.97621 19.2169L9.38152 8.39305L14.1134 17.4626C14.3689 17.9522 14.9729 18.1421 15.4626 17.8866C15.9522 17.6311 16.1421 17.0271 15.8866 16.5374L10.4945 6.20247L16.2096 4.9778Z" fill="#B2B8BF"/>
</svg>
