<svg width="32" height="32" viewBox="0 0 32 32" fill="none" xmlns="http://www.w3.org/2000/svg">
<path d="M24 3C24.5523 3 25 3.44772 25 4V7H28C28.5523 7 29 7.44772 29 8C29 8.55228 28.5523 9 28 9H25V12C25 12.5523 24.5523 13 24 13C23.4477 13 23 12.5523 23 12V9H20C19.4477 9 19 8.55228 19 8C19 7.44772 19.4477 7 20 7H23V4C23 3.44772 23.4477 3 24 3Z" fill="#21A19A"/>
<path fill-rule="evenodd" clip-rule="evenodd" d="M20.5 14C18.567 14 17 15.567 17 17.5C17 19.433 18.567 21 20.5 21C22.433 21 24 19.433 24 17.5C24 15.567 22.433 14 20.5 14ZM19 17.5C19 16.6716 19.6716 16 20.5 16C21.3284 16 22 16.6716 22 17.5C22 18.3284 21.3284 19 20.5 19C19.6716 19 19 18.3284 19 17.5Z" fill="#21A19A"/>
<path fill-rule="evenodd" clip-rule="evenodd" d="M23.9126 23.2782L23.1584 21.3686C23.7909 20.8809 24.6981 20.878 25.3343 21.3548L25.3353 21.3556C27.0008 22.6071 28 24.4625 28 26.4637C28 26.8644 27.958 27.2703 27.8758 27.6707C27.7007 28.5296 26.9086 29 26.1726 29L25.3827 27L23.9126 23.2782ZM23.9126 23.2782C24.0289 23.2051 24.1426 23.128 24.2535 23.0471C25.3903 23.9523 26 25.1961 26 26.4637C26 26.6392 25.9876 26.8188 25.9627 27H25.3827L23.9126 23.2782Z" fill="#21A19A"/>
<path d="M23.9126 23.2782C22.8938 23.9195 21.6815 24.2599 20.4439 24.2599C19.0921 24.2599 17.7664 23.8528 16.6935 23.0898C15.5921 23.9908 15 25.2187 15 26.4637C15 26.6385 15.0125 26.8182 15.0375 27H25.3827L26.1726 29H14.8274C14.0898 29 13.2998 28.5283 13.1242 27.6711C13.0429 27.2722 13 26.8656 13 26.4637C13 24.4958 13.9709 22.6615 15.5909 21.4116L15.5924 21.4105C16.225 20.9243 17.1301 20.9208 17.7668 21.3971L17.7687 21.3985C18.4968 21.9459 19.4467 22.2599 20.4439 22.2599C21.4607 22.2599 22.4243 21.9346 23.1584 21.3686L23.9126 23.2782Z" fill="#21A19A"/>
<path d="M7.33833 15.5135C8.64671 16.5633 10.3005 17.1344 12 17.1344C12.5523 17.1344 13 16.6867 13 16.1344C13 15.5821 12.5523 15.1344 12 15.1344C10.7325 15.1344 9.51207 14.7036 8.56371 13.9323L8.56183 13.9308C7.84562 13.3512 6.80414 13.3564 6.09414 13.9466L6.09268 13.9479C4.13755 15.5794 3 17.9416 3 20.4368C3 20.9471 3.05015 21.4643 3.14633 21.9742C3.32064 22.8949 4.14361 23.5 5.02715 23.5H10.9262C11.4785 23.5 11.9262 23.0523 11.9262 22.5C11.9262 21.9477 11.4785 21.5 10.9262 21.5H5.09299C5.03119 21.1413 5 20.7838 5 20.4368C5 18.5731 5.84246 16.7789 7.33833 15.5135Z" fill="#21A19A"/>
<path fill-rule="evenodd" clip-rule="evenodd" d="M12 3C9.23858 3 7 5.23858 7 8C7 10.7614 9.23858 13 12 13C14.7614 13 17 10.7614 17 8C17 5.23858 14.7614 3 12 3ZM9 8C9 6.34315 10.3431 5 12 5C13.6569 5 15 6.34315 15 8C15 9.65685 13.6569 11 12 11C10.3431 11 9 9.65685 9 8Z" fill="#21A19A"/>
</svg>
