<svg width="20" height="20" viewBox="0 0 20 20" fill="none" xmlns="http://www.w3.org/2000/svg">
<path d="M4 2C3.44772 2 3 2.44772 3 3V17C3 17.5523 3.44772 18 4 18H14C14.5523 18 15 17.5523 15 17V14C15 13.4477 15.4477 13 16 13C16.5523 13 17 13.4477 17 14V17C17 18.6569 15.6569 20 14 20H4C2.34315 20 1 18.6569 1 17V3C1 1.34315 2.34315 0 4 0H8C8.55228 0 9 0.447715 9 1C9 1.55228 8.55228 2 8 2H4Z" fill="#21A19A"/>
<path d="M5 6C5 5.44772 5.44772 5 6 5H7C7.55228 5 8 5.44772 8 6C8 6.55228 7.55228 7 7 7H6C5.44772 7 5 6.55228 5 6Z" fill="#21A19A"/>
<path d="M5 10C5 9.44771 5.44772 9 6 9H7C7.55228 9 8 9.44771 8 10C8 10.5523 7.55228 11 7 11H6C5.44772 11 5 10.5523 5 10Z" fill="#21A19A"/>
<path d="M5 14C5 13.4477 5.44772 13 6 13H10C10.5523 13 11 13.4477 11 14C11 14.5523 10.5523 15 10 15H6C5.44772 15 5 14.5523 5 14Z" fill="#21A19A"/>
<path d="M16 3.12893C16.5523 3.12893 17 2.68079 17 2.12797C17 1.57516 16.5523 1.12701 16 1.12701C15.4477 1.12701 15 1.57516 15 2.12797C15 2.68079 15.4477 3.12893 16 3.12893Z" fill="#21A19A"/>
<path d="M13.4521 3.42947C13.9249 3.14397 14.0767 2.52927 13.7912 2.05651C13.5057 1.58374 12.891 1.43193 12.4182 1.71743C10.9711 2.59132 10 4.18177 10 6C10 8.76142 12.2386 11 15 11C15.5523 11 16 10.5523 16 10C16 9.44772 15.5523 9 15 9C13.3431 9 12 7.65685 12 6C12 4.91095 12.5797 3.95632 13.4521 3.42947Z" fill="#21A19A"/>
<path d="M18.0717 3.24973C18.5601 2.99171 19.1651 3.1784 19.4231 3.6667C19.7917 4.36432 20 5.15931 20 6C20 7.20484 19.5726 8.31252 18.8621 9.17576C18.5111 9.60219 17.8809 9.66335 17.4545 9.31238C17.0281 8.96141 16.9669 8.33121 17.3179 7.90479C17.7446 7.38635 18 6.72434 18 6C18 5.49277 17.8749 5.01771 17.6548 4.60108C17.3968 4.11277 17.5834 3.50776 18.0717 3.24973Z" fill="#21A19A"/>
</svg>
