<svg width="32" height="32" viewBox="0 0 32 32" fill="none" xmlns="http://www.w3.org/2000/svg">
<path fill-rule="evenodd" clip-rule="evenodd" d="M15.7194 4.04016C15.9026 3.98661 16.0974 3.98661 16.2806 4.04016L26.2806 6.96308C26.7069 7.08771 27 7.47869 27 7.92292V13.601C27 18.9193 24.2014 23.8742 19.5672 26.8745C19.567 26.8747 19.5674 26.8744 19.5672 26.8745L16.5449 28.8385C16.2135 29.0538 15.7865 29.0538 15.4551 28.8385L12.4301 26.8728C7.79989 23.8498 5 18.8969 5 13.601V7.92292C5 7.47869 5.29306 7.08771 5.71945 6.96308L15.7194 4.04016ZM7 8.67247V13.601C7 18.1757 9.41951 22.5185 13.5228 25.1977C13.523 25.1978 13.5226 25.1975 13.5228 25.1977L16 26.8074L18.4798 25.196C22.5792 22.5421 25 18.2014 25 13.601V8.67247L16 6.04184L7 8.67247Z" fill="#107F8C"/>
<path d="M13 14C13.8284 14 14.5 13.3284 14.5 12.5C14.5 11.6716 13.8284 11 13 11C12.1716 11 11.5 11.6716 11.5 12.5C11.5 13.3284 12.1716 14 13 14Z" fill="#107F8C"/>
<path d="M19 20C19.8284 20 20.5 19.3284 20.5 18.5C20.5 17.6716 19.8284 17 19 17C18.1716 17 17.5 17.6716 17.5 18.5C17.5 19.3284 18.1716 20 19 20Z" fill="#107F8C"/>
<path d="M20.2071 12.7071C20.5976 12.3166 20.5976 11.6834 20.2071 11.2929C19.8166 10.9024 19.1834 10.9024 18.7929 11.2929L11.7929 18.2929C11.4024 18.6834 11.4024 19.3166 11.7929 19.7071C12.1834 20.0976 12.8166 20.0976 13.2071 19.7071L20.2071 12.7071Z" fill="#107F8C"/>
</svg>
