<svg width="20" height="20" viewBox="0 0 20 20" fill="none" xmlns="http://www.w3.org/2000/svg">
<path d="M3 3C3 2.44772 3.44772 2 4 2H8C8.55228 2 9 1.55228 9 1C9 0.447715 8.55228 0 8 0H4C2.34315 0 1 1.34315 1 3V17C1 18.6569 2.34315 20 4 20H14C15.6569 20 17 18.6569 17 17V12C17 11.4477 16.5523 11 16 11C15.4477 11 15 11.4477 15 12V17C15 17.5523 14.5523 18 14 18H4C3.44772 18 3 17.5523 3 17V3Z" fill="#21A19A"/>
<path d="M6 5C5.44772 5 5 5.44772 5 6C5 6.55228 5.44772 7 6 7H8C8.55228 7 9 6.55228 9 6C9 5.44772 8.55228 5 8 5H6Z" fill="#21A19A"/>
<path d="M5 10C5 9.44771 5.44772 9 6 9H9C9.55228 9 10 9.44771 10 10C10 10.5523 9.55228 11 9 11H6C5.44772 11 5 10.5523 5 10Z" fill="#21A19A"/>
<path d="M6 13C5.44772 13 5 13.4477 5 14C5 14.5523 5.44772 15 6 15H12C12.5523 15 13 14.5523 13 14C13 13.4477 12.5523 13 12 13H6Z" fill="#21A19A"/>
<path d="M19.7071 1.70711C20.0976 1.31658 20.0976 0.683417 19.7071 0.292893C19.3166 -0.0976311 18.6834 -0.0976311 18.2929 0.292893L12.2929 6.29289C11.9024 6.68342 11.9024 7.31658 12.2929 7.70711C12.6834 8.09763 13.3166 8.09763 13.7071 7.70711L19.7071 1.70711Z" fill="#21A19A"/>
<path d="M15 1.5C15 2.32843 14.3284 3 13.5 3C12.6716 3 12 2.32843 12 1.5C12 0.671573 12.6716 3.72529e-09 13.5 3.72529e-09C14.3284 3.72529e-09 15 0.671573 15 1.5Z" fill="#21A19A"/>
<path d="M20 6.5C20 7.32843 19.3284 8 18.5 8C17.6716 8 17 7.32843 17 6.5C17 5.67157 17.6716 5 18.5 5C19.3284 5 20 5.67157 20 6.5Z" fill="#21A19A"/>
</svg>
