<svg width="20" height="20" viewBox="0 0 20 20" fill="none" xmlns="http://www.w3.org/2000/svg">
<path d="M7 10C8.38071 10 9.5 8.88071 9.5 7.5C9.5 6.11929 8.38071 5 7 5C5.61929 5 4.5 6.11929 4.5 7.5C4.5 8.88071 5.61929 10 7 10Z" fill="#B2B8BF"/>
<path fill-rule="evenodd" clip-rule="evenodd" d="M0 7.5C0 3.63401 3.13401 0.5 7 0.5C10.866 0.5 14 3.63401 14 7.5C14 11.366 10.866 14.5 7 14.5C6.88733 14.5 6.77529 14.4973 6.66393 14.4921C7.52745 15.9911 9.14657 17.0002 11 17.0002C13.4765 17.0002 15.5342 15.1987 15.9308 12.8347C16.0222 12.29 16.5378 11.9226 17.0825 12.0139C17.6272 12.1053 17.9946 12.6209 17.9032 13.1656C17.3477 16.477 14.4695 19.0002 11 19.0002C7.80984 19.0002 5.12 16.867 4.27541 13.95C1.76294 12.8873 0 10.3995 0 7.5ZM7 2.5C4.23858 2.5 2 4.73858 2 7.5C2 10.2614 4.23858 12.5 7 12.5C9.76142 12.5 12 10.2614 12 7.5C12 4.73858 9.76142 2.5 7 2.5Z" fill="#B2B8BF"/>
<path d="M17.5 10C18.8807 10 20 8.88071 20 7.5C20 6.11929 18.8807 5 17.5 5C16.1193 5 15 6.11929 15 7.5C15 8.88071 16.1193 10 17.5 10Z" fill="#B2B8BF"/>
</svg>
