<svg width="32" height="32" viewBox="0 0 32 32" fill="none" xmlns="http://www.w3.org/2000/svg">
<path fill-rule="evenodd" clip-rule="evenodd" d="M17.3494 4.07553C17.8601 4.28573 18.1037 4.87015 17.8935 5.38087L13.6726 15.6361L13.4123 16.257C13.2422 16.6622 12.992 17.2574 12.6715 18.0177C12.6383 18.0963 12.6044 18.1767 12.5698 18.2588C12.7936 18.7885 13.0408 19.373 13.3093 20.0069C13.5635 19.584 13.8662 19.2447 14.2022 18.9784C15.0327 18.32 15.9175 18.2265 16.3687 18.2265C17.4621 18.2265 18.3838 18.8063 19.0005 19.6096C19.6163 20.4119 19.9688 21.4773 19.9688 22.6136C19.9688 23.7498 19.6163 24.8152 19.0005 25.6175C18.3838 26.4208 17.4621 27.0006 16.3687 27.0006C14.7176 27.0006 13.549 25.6822 12.9863 24.3613C12.4335 23.0639 11.9298 21.8777 11.4844 20.8263C11.0389 21.8777 10.5352 23.0639 9.9825 24.3613C9.4198 25.6822 8.25118 27.0006 6.6 27.0006C5.50663 27.0006 4.58492 26.4208 3.96828 25.6175C3.35243 24.8152 3 23.7498 3 22.6136C3 21.4773 3.35243 20.4119 3.96828 19.6096C4.58492 18.8063 5.50663 18.2265 6.6 18.2265C7.05124 18.2265 7.93609 18.32 8.76654 18.9784C9.10253 19.2447 9.40522 19.584 9.65941 20.0069C9.928 19.373 10.1752 18.7885 10.3989 18.2588C10.3643 18.1767 10.3304 18.0963 10.2973 18.0177C9.97677 17.2574 9.72657 16.6622 9.55646 16.257L9.29616 15.6361L5.07526 5.38087C4.86506 4.87015 5.10867 4.28573 5.61939 4.07553C6.13011 3.86532 6.71453 4.10894 6.92474 4.61965L11.1416 14.865L11.4006 15.4828C11.4266 15.5449 11.4546 15.6115 11.4844 15.6824C11.5142 15.6115 11.5421 15.5449 11.5682 15.4828L11.8272 14.865L16.044 4.61965C16.2542 4.10894 16.8386 3.86532 17.3494 4.07553ZM8.4511 22.8527C8.44744 22.8306 8.44449 22.8083 8.44227 22.7857C8.3054 21.3896 7.84972 20.8038 7.52408 20.5456C7.17641 20.27 6.79876 20.2265 6.6 20.2265C6.25743 20.2265 5.87914 20.4048 5.55476 20.8274C5.2296 21.251 5 21.8792 5 22.6136C5 23.3479 5.2296 23.9761 5.55476 24.3997C5.87914 24.8223 6.25743 25.0006 6.6 25.0006C7.08115 25.0006 7.7186 24.5725 8.1425 23.5775L8.4511 22.8527ZM14.5265 22.7857C14.5243 22.8083 14.5213 22.8306 14.5177 22.8527L14.8262 23.5775C15.2501 24.5725 15.8876 25.0006 16.3687 25.0006C16.7113 25.0006 17.0896 24.8223 17.414 24.3997C17.7391 23.9761 17.9688 23.3479 17.9688 22.6136C17.9688 21.8792 17.7391 21.251 17.414 20.8274C17.0896 20.4048 16.7113 20.2265 16.3687 20.2265C16.17 20.2265 15.7923 20.27 15.4447 20.5456C15.119 20.8038 14.6633 21.3896 14.5265 22.7857Z" fill="#107F8C"/>
<path d="M28 4H23C22.4477 4 22 4.44772 22 5V26C22 26.5523 22.4477 27 23 27C23.5523 27 24 26.5523 24 26V18H28C28.5523 18 29 17.5523 29 17C29 16.4477 28.5523 16 28 16H24V14H28C28.5523 14 29 13.5523 29 13C29 12.4477 28.5523 12 28 12H24V10H28C28.5523 10 29 9.55228 29 9C29 8.44772 28.5523 8 28 8H24V6H28C28.5523 6 29 5.55228 29 5C29 4.44772 28.5523 4 28 4Z" fill="#107F8C"/>
</svg>
