<svg width="20" height="20" viewBox="0 0 20 20" fill="none" xmlns="http://www.w3.org/2000/svg">
<path fill-rule="evenodd" clip-rule="evenodd" d="M2.5 0C2.46506 0 2.4305 0.00138608 2.39648 0.00488281C1.06383 0.0592197 0 1.154 0 2.5V3.5C0 4.05228 0.447715 4.5 1 4.5C1.55228 4.5 2 4.05228 2 3.5V2.5C2 2.22386 2.22386 2 2.5 2C2.77614 2 3 2.22386 3 2.5V17.5C3 18.846 4.06385 19.9398 5.39648 19.9941C5.43053 19.9976 5.46503 20 5.5 20H17C18.6569 20 20 18.6569 20 17V15C20 14.7348 19.8946 14.4805 19.707 14.293C19.5195 14.1054 19.2652 14 19 14H18V13C18 12.4477 17.5523 12 17 12C16.4477 12 16 12.4477 16 13V14H7C6.44772 14 6 14.4477 6 15V17.5C6 17.7761 5.77614 18 5.5 18C5.22386 18 5 17.7761 5 17.5V2.5C5 2.32878 4.98298 2.16154 4.9502 2H7.5C8.05229 2 8.5 1.55228 8.5 1C8.5 0.447715 8.05229 0 7.5 0H2.5ZM18 17C18 17.5523 17.5523 18 17 18H7.9502C7.98298 17.8385 8 17.6712 8 17.5V16H18V17Z" fill="#21A19A"/>
<path fill-rule="evenodd" clip-rule="evenodd" d="M14 0C10.6863 0 8 2.68629 8 6C8 9.31371 10.6863 12 14 12C17.3137 12 20 9.31371 20 6C20 2.68629 17.3137 0 14 0ZM14.9502 7C14.8516 7.96989 14.6159 8.78082 14.332 9.34863C14.199 9.61466 14.0848 9.77896 14 9.87891C13.9152 9.77896 13.801 9.61466 13.668 9.34863C13.3841 8.78082 13.1484 7.96989 13.0498 7H14.9502ZM17.874 7C17.6645 7.81394 17.2054 8.52784 16.583 9.05469C16.7672 8.43324 16.897 7.7395 16.959 7H17.874ZM11.041 7C11.103 7.7395 11.2328 8.43324 11.417 9.05469C10.7946 8.52784 10.3355 7.81394 10.126 7H11.041ZM16.583 2.94531C17.2054 3.47216 17.6645 4.18606 17.874 5H16.959C16.897 4.2605 16.7672 3.56676 16.583 2.94531ZM14 2.12109C14.0848 2.22104 14.199 2.38534 14.332 2.65137C14.6159 3.21918 14.8516 4.03011 14.9502 5H13.0498C13.1484 4.03011 13.3841 3.21918 13.668 2.65137C13.801 2.38534 13.9152 2.22104 14 2.12109ZM11.417 2.94531C11.2328 3.56676 11.103 4.2605 11.041 5H10.126C10.3355 4.18606 10.7946 3.47216 11.417 2.94531Z" fill="#21A19A"/>
</svg>
