<svg width="32" height="32" viewBox="0 0 32 32" fill="none" xmlns="http://www.w3.org/2000/svg">
<path fill-rule="evenodd" clip-rule="evenodd" d="M20.0004 12C20.6281 11.1643 21 10.1256 21 9C21 6.23858 18.7614 4 16 4C13.2386 4 11 6.23858 11 9C11 10.1256 11.3719 11.1643 11.9996 12H7.9999C5.79082 12 4 13.7908 4 15.9999C4 18.0957 5.6119 19.8151 7.66362 19.9859L5.18891 22.8731C3.79894 24.4948 4.95122 27.0001 7.08708 27.0001H11.5194C12.4307 27.0001 13.2927 26.5858 13.862 25.8741L16 23.2016L18.138 25.8741C18.7073 26.5858 19.5693 27.0001 20.4806 27.0001H24.9129C27.0488 27.0001 28.2011 24.4948 26.8111 22.8731L24.3364 19.9859C26.3881 19.8151 28 18.0957 28 15.9999C28 13.7908 26.2092 12 24.0001 12H20.0004ZM16 12C17.6569 12 19 10.6569 19 9C19 7.34315 17.6569 6 16 6C14.3431 6 13 7.34315 13 9C13 10.6569 14.3431 12 16 12ZM7.9999 14C6.89538 14 6 14.8954 6 15.9999C6 17.1044 6.89538 17.9998 7.9999 17.9998H10.9129C11.3401 17.9998 11.5705 18.5008 11.2926 18.8252L6.70745 24.1747C6.42945 24.499 6.65991 25.0001 7.08708 25.0001H11.5194C11.8232 25.0001 12.1105 24.862 12.3002 24.6248L15.6096 20.4881C15.8097 20.2378 16.1903 20.2378 16.3904 20.4881L19.6998 24.6248C19.8895 24.862 20.1768 25.0001 20.4806 25.0001H24.9129C25.3401 25.0001 25.5705 24.499 25.2926 24.1747L20.7074 18.8252C20.4295 18.5008 20.6599 17.9998 21.0871 17.9998H24.0001C25.1046 17.9998 26 17.1044 26 15.9999C26 14.8954 25.1046 14 24.0001 14H7.9999Z" fill="#21A19A"/>
</svg>
