<svg width="32" height="32" viewBox="0 0 32 32" fill="none" xmlns="http://www.w3.org/2000/svg">
<path d="M10.3125 12.125C9.86376 12.125 9.5 12.4888 9.5 12.9375C9.5 13.3862 9.86376 13.75 10.3125 13.75H21.6875C22.1362 13.75 22.5 13.3862 22.5 12.9375C22.5 12.4888 22.1362 12.125 21.6875 12.125H10.3125Z" fill="#21A19A"/>
<path d="M10.3125 15.375C9.86376 15.375 9.5 15.7388 9.5 16.1875C9.5 16.6362 9.86376 17 10.3125 17H21.6875C22.1362 17 22.5 16.6362 22.5 16.1875C22.5 15.7388 22.1362 15.375 21.6875 15.375H10.3125Z" fill="#21A19A"/>
<path d="M9.5 19.4375C9.5 18.9888 9.86377 18.625 10.3125 18.625H18.4375C18.8862 18.625 19.25 18.9888 19.25 19.4375C19.25 19.8862 18.8862 20.25 18.4375 20.25H10.3125C9.86376 20.25 9.5 19.8862 9.5 19.4375Z" fill="#21A19A"/>
<path fill-rule="evenodd" clip-rule="evenodd" d="M16 3C8.8203 3 3 8.8203 3 16C3 23.2621 9.53388 29 17 29C22.2456 29 26.7675 27.5769 29.5307 24.8661C30.1469 24.2617 29.805 23.2743 29.0326 23.0946L28.7687 23.0332C27.7195 22.7892 26.8237 22.5808 25.9556 22.3807C26.4532 21.8945 26.9138 21.3348 27.3098 20.7639C28.1904 19.4945 28.9165 17.9319 28.9982 16.5595C29.2581 12.1982 27.8217 8.77519 25.3536 6.45185C22.9045 4.14627 19.5223 3 16 3ZM5 16C5 9.92487 9.92487 5 16 5C19.1051 5 21.9668 6.01037 23.9827 7.9081C25.9798 9.78808 27.2297 12.6151 27.0018 16.4405C26.9511 17.2911 26.4494 18.4952 25.6665 19.624C24.877 20.7622 23.9662 21.5871 23.298 21.8541C22.8035 22.0518 22.6153 22.5261 22.6378 22.8977C22.6607 23.2737 22.9146 23.7387 23.455 23.861C24.5563 24.1101 25.5512 24.3393 26.6728 24.5995C24.3513 26.1125 21.0115 27 17 27C10.4661 27 5 21.9927 5 16Z" fill="#21A19A"/>
</svg>
