<svg width="20" height="20" viewBox="0 0 20 20" fill="none" xmlns="http://www.w3.org/2000/svg">
<path fill-rule="evenodd" clip-rule="evenodd" d="M14.4945 0.983276C13.5991 -0.0837759 11.9879 -0.307534 10.8856 0.617436L2.09863 7.99058C1.67555 8.34558 1.62037 8.97634 1.97537 9.39941L2.61822 10.1655L0.964921 11.5528C0.222824 12.1755 0.0419351 13.3178 0.711224 14.1154L2.25391 15.9539C2.9232 16.7516 4.07955 16.7718 4.82164 16.1491L6.47494 14.7618L7.11767 15.5278C7.47267 15.9508 8.10342 16.006 8.5265 15.651L17.3135 8.27787C18.4158 7.3529 18.4752 5.72734 17.5799 4.66029L14.4945 0.983276ZM12.1712 2.14952C12.3629 1.98861 12.7218 1.98206 12.9624 2.26885L16.0478 5.94586C16.2884 6.23265 16.2197 6.58487 16.0279 6.74579L8.00697 13.4761L4.15024 8.87988L12.1712 2.14952ZM5.18937 13.2297L3.9038 11.6976L2.37187 12.9831L3.65744 14.5151L5.18937 13.2297Z" fill="#B2B8BF"/>
<path fill-rule="evenodd" clip-rule="evenodd" d="M19.753 13.3422C20.1163 13.7582 20.0736 14.3899 19.6576 14.7532L13.9327 19.7532C13.5592 20.0795 13.0029 20.0826 12.6257 19.7606L10.3506 17.8183C9.93051 17.4598 9.88069 16.8285 10.2393 16.4085C10.5979 15.9885 11.2291 15.9386 11.6491 16.2972L13.2675 17.6788L18.342 13.2468C18.758 12.8835 19.3897 12.9262 19.753 13.3422Z" fill="#B2B8BF"/>
</svg>
