<svg width="20" height="20" viewBox="0 0 20 20" fill="none" xmlns="http://www.w3.org/2000/svg">
<path d="M14.1247 0.219168C13.6934 -0.125842 13.0641 -0.0559202 12.7191 0.375342L10.7191 2.87534C10.427 3.24056 10.427 3.75951 10.7191 4.12473L12.7191 6.62473C13.0641 7.05599 13.6934 7.12592 14.1247 6.78091C14.556 6.4359 14.6259 5.8066 14.2809 5.37534L13.5806 4.50001H15C16.6569 4.50001 18 5.84315 18 7.50001V9.5C18 10.0523 18.4477 10.5 19 10.5C19.5523 10.5 20 10.0523 20 9.5V7.50001C20 4.73858 17.7614 2.50001 15 2.50001H13.5807L14.2809 1.62473C14.6259 1.19347 14.556 0.564178 14.1247 0.219168Z" fill="#21A19A"/>
<path d="M5.87531 12.2192C6.30657 11.8742 6.93586 11.9441 7.28087 12.3753L9.28087 14.8753C9.57304 15.2406 9.57304 15.7595 9.28087 16.1247L7.28087 18.6247C6.93586 19.056 6.30657 19.1259 5.8753 18.7809C5.44404 18.4359 5.37412 17.8066 5.71913 17.3753L6.4194 16.5H5C2.23858 16.5 0 14.2614 0 11.5V7.50001C0 4.73858 2.23858 2.50001 5 2.50001H6.5C7.05228 2.50001 7.5 2.94772 7.5 3.50001C7.5 4.05229 7.05228 4.50001 6.5 4.50001H5C3.34315 4.50001 2 5.84315 2 7.50001V11.5C2 13.1569 3.34315 14.5 5 14.5H6.41935L5.71913 13.6247C5.37412 13.1935 5.44404 12.5642 5.87531 12.2192Z" fill="#21A19A"/>
<path fill-rule="evenodd" clip-rule="evenodd" d="M16 13.5C14.8954 13.5 14 14.3954 14 15.5C14 16.6046 14.8954 17.5 16 17.5C17.1046 17.5 18 16.6046 18 15.5C18 14.3954 17.1046 13.5 16 13.5ZM12 15.5C12 13.2909 13.7909 11.5 16 11.5C18.2091 11.5 20 13.2909 20 15.5C20 17.7091 18.2091 19.5 16 19.5C13.7909 19.5 12 17.7091 12 15.5Z" fill="#21A19A"/>
</svg>
