<svg width="32" height="32" viewBox="0 0 32 32" fill="none" xmlns="http://www.w3.org/2000/svg">
<path d="M12.8865 3.67537C12.7409 3.25124 12.3308 2.97588 11.8831 3.00167C11.4354 3.02746 11.0597 3.34811 10.9638 3.78615L7.89369 17.8096L5.96476 10.7369C5.85568 10.3369 5.5111 10.0457 5.09854 10.0049C4.68597 9.96403 4.29098 10.182 4.10557 10.5528L2.38197 14H1C0.447715 14 0 14.4477 0 15C0 15.5523 0.447715 16 1 16H3C3.37877 16 3.72504 15.786 3.89443 15.4472L4.72391 13.7883L7.03524 22.2631C7.15637 22.7073 7.56512 23.0114 8.02536 22.9997C8.48561 22.988 8.87841 22.6636 8.97686 22.2139L12.1539 7.70176L13.0542 10.3247C13.2335 10.847 13.8023 11.1251 14.3246 10.9459C14.847 10.7666 15.1251 10.1977 14.9458 9.67537L12.8865 3.67537Z" fill="#107F8C"/>
<path d="M24.7069 11.2929C24.448 11.0341 24.0684 10.9373 23.7172 11.0408C23.366 11.1442 23.0995 11.4313 23.0223 11.7892L21.0739 20.8208L19.9471 25.1845L18.9615 21.7259C18.8101 21.1948 18.2568 20.8869 17.7257 21.0383C17.1946 21.1897 16.8867 21.743 17.0381 22.2741L19.033 29.2741C19.1567 29.7082 19.5559 30.0056 20.0072 29.9999C20.4585 29.9943 20.8501 29.6871 20.9629 29.25L23.0154 21.3013C23.0188 21.2883 23.0219 21.2753 23.0247 21.2622L24.5903 14.0048L26.2927 15.7071C26.4802 15.8947 26.7346 16 26.9998 16H29.9998C30.5521 16 30.9998 15.5523 30.9998 15C30.9998 14.4477 30.5521 14 29.9998 14H27.414L24.7069 11.2929Z" fill="#107F8C"/>
<path fill-rule="evenodd" clip-rule="evenodd" d="M13 16C13 14.3431 14.3431 13 16 13C17.6569 13 19 14.3431 19 16C19 17.6569 17.6569 19 16 19C14.3431 19 13 17.6569 13 16ZM16 15C15.4477 15 15 15.4477 15 16C15 16.5523 15.4477 17 16 17C16.5523 17 17 16.5523 17 16C17 15.4477 16.5523 15 16 15Z" fill="#107F8C"/>
</svg>
