<svg width="20" height="20" viewBox="0 0 20 20" fill="none" xmlns="http://www.w3.org/2000/svg">
<path fill-rule="evenodd" clip-rule="evenodd" d="M16.7188 14.75C17.2291 14.3959 17.9227 14.4187 18.4102 14.8145L18.5938 14.9717C19.4817 15.7779 19.9999 16.9046 20 18.1035C20 18.361 19.9753 18.6218 19.9268 18.8779L19.9258 18.877C19.7958 19.5653 19.1875 19.9999 18.5547 20H12.4453C11.8506 19.9999 11.2797 19.6167 11.1035 19.0029L11.0732 18.877C11.0254 18.6226 11 18.3618 11 18.1035C11.0001 16.8461 11.5726 15.6635 12.5439 14.8516L12.5459 14.8506L12.6455 14.7744C13.1215 14.4451 13.7563 14.4421 14.2354 14.7646L14.335 14.8389L14.3369 14.8398L14.4414 14.916C14.7012 15.0834 15.0684 15.1826 15.5 15.1826C15.9777 15.1826 16.3407 15.0588 16.6191 14.8262L16.7188 14.75ZM17.459 16.6729C16.8505 17.0356 16.1733 17.1826 15.5 17.1826C14.8577 17.1826 14.1489 17.0496 13.5215 16.6943C13.2061 17.0734 13.0289 17.5301 13.0059 18H17.9941C17.9707 17.5197 17.7864 17.0561 17.459 16.6729Z" fill="#21A19A"/>
<path d="M1.17871 12.0576C1.66697 11.8851 2.1998 12.1137 2.41602 12.5723L2.4541 12.667L2.54785 12.918C3.52524 15.4119 5.71962 17.2957 8.39648 17.8398L8.66504 17.8896L8.76562 17.9111C9.25437 18.0451 9.57194 18.5304 9.48633 19.041C9.4007 19.5516 8.9422 19.9068 8.43652 19.874L8.33496 19.8623L7.99707 19.7998C4.6461 19.1184 1.90677 16.7637 0.685547 13.6475L0.569336 13.333L0.540039 13.2354C0.420099 12.7428 0.690441 12.2302 1.17871 12.0576Z" fill="#21A19A"/>
<path fill-rule="evenodd" clip-rule="evenodd" d="M15.5 9.5C16.8807 9.5 18 10.6193 18 12C18 13.3807 16.8807 14.5 15.5 14.5C14.1193 14.5 13 13.3807 13 12C13 10.6193 14.1193 9.5 15.5 9.5ZM15.5 11.5C15.2239 11.5 15 11.7239 15 12C15 12.2761 15.2239 12.5 15.5 12.5C15.7761 12.5 16 12.2761 16 12C16 11.7239 15.7761 11.5 15.5 11.5Z" fill="#21A19A"/>
<path fill-rule="evenodd" clip-rule="evenodd" d="M5.71875 5.25C6.22913 4.89588 6.92275 4.91873 7.41016 5.31445L7.59375 5.47168C8.48175 6.27795 8.99992 7.40464 9 8.60352C9 8.86099 8.97534 9.12181 8.92676 9.37793L8.92578 9.37695C8.79583 10.0653 8.18749 10.4999 7.55469 10.5H1.44531C0.850593 10.4999 0.279712 10.1167 0.103516 9.50293L0.0732422 9.37695C0.0253552 9.12263 0 8.86178 0 8.60352C8.81314e-05 7.34606 0.572585 6.16354 1.54395 5.35156L1.5459 5.35059L1.64551 5.27441C2.12152 4.94514 2.75626 4.94208 3.23535 5.26465L3.33496 5.33887L3.33691 5.33984L3.44141 5.41602C3.70117 5.58337 4.06838 5.68262 4.5 5.68262C4.97772 5.68262 5.3407 5.55876 5.61914 5.32617L5.71875 5.25ZM6.45898 7.17285C5.85046 7.53557 5.17333 7.68262 4.5 7.68262C3.85767 7.68262 3.14889 7.54957 2.52148 7.19434C2.20608 7.57343 2.02892 8.03007 2.00586 8.5H6.99414C6.97074 8.01974 6.78639 7.55607 6.45898 7.17285Z" fill="#21A19A"/>
<path d="M10.4434 0.00976562C15.0057 0.208942 18.7729 3.46415 19.752 7.77832C19.8742 8.31688 19.5366 8.85334 18.998 8.97559C18.4596 9.09776 17.9242 8.76001 17.8018 8.22168C17.0186 4.7705 14.0025 2.16711 10.3545 2.00781L10 2L9.89746 1.99512C9.39314 1.94397 9 1.51781 9 1C9 0.447715 9.44771 0 10 0L10.4434 0.00976562Z" fill="#21A19A"/>
<path fill-rule="evenodd" clip-rule="evenodd" d="M4.5 0C5.88071 0 7 1.11929 7 2.5C7 3.88071 5.88071 5 4.5 5C3.11929 5 2 3.88071 2 2.5C2 1.11929 3.11929 0 4.5 0ZM4.5 2C4.22386 2 4 2.22386 4 2.5C4 2.77614 4.22386 3 4.5 3C4.77614 3 5 2.77614 5 2.5C5 2.22386 4.77614 2 4.5 2Z" fill="#21A19A"/>
</svg>
