<svg width="20" height="21" viewBox="0 0 20 21" fill="none" xmlns="http://www.w3.org/2000/svg">
<path d="M4 13C4 12.4477 4.44772 12 5 12H6C6.55228 12 7 12.4477 7 13C7 13.5523 6.55228 14 6 14H5C4.44772 14 4 13.5523 4 13Z" fill="#B2B8BF"/>
<path d="M5 15C4.44772 15 4 15.4477 4 16C4 16.5523 4.44772 17 5 17H6C6.55228 17 7 16.5523 7 16C7 15.4477 6.55228 15 6 15H5Z" fill="#B2B8BF"/>
<path fill-rule="evenodd" clip-rule="evenodd" d="M4.48406 7.51236C5.63487 6.45445 7.40514 6.45751 8.55229 7.51939L12.0379 10.7459C12.6513 11.3137 13 12.1117 13 12.9475V17.0416C13 18.6985 11.6569 20.0416 10 20.0416H3C1.34315 20.0416 0 18.6985 0 17.0416V12.9516C0 12.1122 0.351703 11.3111 0.969696 10.743L4.48406 7.51236ZM7.19367 8.98709C6.81129 8.63313 6.2212 8.63212 5.8376 8.98475L2.32323 12.2154C2.11723 12.4048 2 12.6718 2 12.9516V17.0416C2 17.5939 2.44772 18.0416 3 18.0416H10C10.5523 18.0416 11 17.5939 11 17.0416V12.9475C11 12.6689 10.8838 12.4029 10.6793 12.2136L7.19367 8.98709Z" fill="#B2B8BF"/>
<path d="M11 3C11 2.44772 11.4477 2 12 2H17C17.5523 2 18 2.44772 18 3V19C18 19.5523 18.4477 20 19 20C19.5523 20 20 19.5523 20 19V3C20 1.34315 18.6569 0 17 0H12C10.3431 0 9 1.34315 9 3V4.92593C9 5.47821 9.44772 5.92593 10 5.92593C10.5523 5.92593 11 5.47821 11 4.92593V3Z" fill="#B2B8BF"/>
<path d="M13 5C13 4.44772 13.4477 4 14 4H15C15.5523 4 16 4.44772 16 5C16 5.55228 15.5523 6 15 6H14C13.4477 6 13 5.55228 13 5Z" fill="#B2B8BF"/>
<path d="M13 8C13 7.44772 13.4477 7 14 7H15C15.5523 7 16 7.44772 16 8C16 8.55229 15.5523 9 15 9H14C13.4477 9 13 8.55229 13 8Z" fill="#B2B8BF"/>
</svg>
