<svg width="20" height="20" viewBox="0 0 20 20" fill="none" xmlns="http://www.w3.org/2000/svg">
<path fill-rule="evenodd" clip-rule="evenodd" d="M8 1C5.51472 1 3.5 3.01472 3.5 5.5C3.5 7.98528 5.51472 10 8 10C10.4853 10 12.5 7.98528 12.5 5.5C12.5 3.01472 10.4853 1 8 1ZM5.5 5.5C5.5 4.11929 6.61929 3 8 3C9.38071 3 10.5 4.11929 10.5 5.5C10.5 6.88071 9.38071 8 8 8C6.61929 8 5.5 6.88071 5.5 5.5ZM12.0429 12.0515C10.8875 12.9704 9.43565 13.4699 7.93956 13.4699C6.47307 13.4699 5.04442 12.9887 3.89961 12.1013C2.68208 13.1719 2 14.6626 2 16.2076C2 16.4662 2.02044 16.7322 2.0611 17H13.9391C13.9798 16.733 14 16.467 14 16.2076C14 14.6349 13.2979 13.1262 12.0429 12.0515ZM10.8794 10.4199C11.5439 9.86469 12.5207 9.86061 13.1906 10.4045L13.1916 10.4053C14.9658 11.8497 16 13.9626 16 16.2076C16 16.6585 15.9564 17.1163 15.8706 17.5686C15.7069 18.4355 14.9333 19 14.109 19H1.891C1.06485 19 0.292987 18.4337 0.129309 17.568L0.12918 17.5673C0.0443195 17.1167 0 16.6594 0 16.2076C0 14 1.00495 11.9116 2.72978 10.47L2.73124 10.4688C3.39603 9.91532 4.37056 9.91048 5.04109 10.4539L5.04298 10.4554C5.84141 11.1058 6.87012 11.4699 7.93956 11.4699C9.02994 11.4699 10.0737 11.0928 10.8793 10.4199L10.8794 10.4199ZM16.281 10.8763C16.6648 10.4792 17.2979 10.4684 17.695 10.8523C19.1603 12.2685 20 14.1855 20 16.208C20 16.6589 19.9564 17.1166 19.8706 17.5689C19.7677 18.1115 19.2443 18.468 18.7017 18.3651C18.1591 18.2621 17.8027 17.7388 17.9056 17.1962C17.9687 16.8638 18 16.5308 18 16.208C18 14.7474 17.3948 13.3437 16.305 12.2903C15.9079 11.9065 15.8971 11.2734 16.281 10.8763ZM13.0101 1.89369C13.0883 1.34697 13.5949 0.967157 14.1416 1.04536C16.3233 1.35743 18 3.23196 18 5.49984C18 7.29646 16.9471 8.84516 15.4291 9.56629C14.9302 9.80327 14.3337 9.59097 14.0967 9.09212C13.8598 8.59326 14.0721 7.99675 14.5709 7.75976C15.4179 7.35742 16 6.49562 16 5.49984C16 4.24124 15.069 3.19837 13.8584 3.02521C13.3117 2.94701 12.9319 2.44041 13.0101 1.89369ZM9.5 14C8.94771 14 8.5 14.4477 8.5 15C8.5 15.5523 8.94771 16 9.5 16H11.5C12.0523 16 12.5 15.5523 12.5 15C12.5 14.4477 12.0523 14 11.5 14H9.5Z" fill="#107F8C"/>
</svg>
