<svg width="20" height="20" viewBox="0 0 20 20" fill="none" xmlns="http://www.w3.org/2000/svg">
<path d="M2 7C0.89543 7 0 7.89543 0 9V17C0 18.1046 0.895432 19 2 19H18C19.1046 19 20 18.1046 20 17V11.6C20 11.0477 19.5523 10.6 19 10.6C18.4477 10.6 18 11.0477 18 11.6V17L2 17V9L7.5 9C8.05228 9 8.5 8.55228 8.5 8C8.5 7.44772 8.05228 7 7.5 7H2Z" fill="#107F8C"/>
<path fill-rule="evenodd" clip-rule="evenodd" d="M10 10C8.34315 10 7 11.3431 7 13C7 14.6569 8.34315 16 10 16C11.6569 16 13 14.6569 13 13C13 11.3431 11.6569 10 10 10ZM9 13C9 12.4477 9.44772 12 10 12C10.5523 12 11 12.4477 11 13C11 13.5523 10.5523 14 10 14C9.44772 14 9 13.5523 9 13Z" fill="#107F8C"/>
<path d="M16 9C16 9.55228 15.5523 10 15 10C14.4477 10 14 9.55228 14 9V3.4142L11.7071 5.70709C11.3166 6.09761 10.6834 6.09761 10.2929 5.70709C9.90237 5.31656 9.90237 4.6834 10.2929 4.29287L14.2929 0.292904C14.6834 -0.09762 15.3165 -0.09762 15.7071 0.292902L19.7071 4.29288C20.0976 4.68341 20.0976 5.31657 19.7071 5.7071C19.3166 6.09762 18.6834 6.09762 18.2929 5.7071L16 3.41424V9Z" fill="#107F8C"/>
</svg>
