<svg width="20" height="20" viewBox="0 0 20 20" fill="none" xmlns="http://www.w3.org/2000/svg">
<path fill-rule="evenodd" clip-rule="evenodd" d="M9 0C7.34315 0 6 1.34315 6 3V5H5C3.34315 5 2 6.34315 2 8V18H1C0.447715 18 0 18.4477 0 19C0 19.5523 0.447715 20 1 20H3H7L19 20C19.5523 20 20 19.5523 20 19C20 18.4477 19.5523 18 19 18L8 18V3C8 2.44772 8.44771 2 9 2H15C15.5523 2 16 2.44772 16 3V6C16 6.55228 16.4477 7 17 7C17.5523 7 18 6.55228 18 6V3C18 1.34315 16.6569 0 15 0H9ZM6 7V18H4V8C4 7.44772 4.44772 7 5 7H6ZM19.2071 8.79289C18.8166 8.40237 18.1834 8.40237 17.7929 8.79289L12.7929 13.7929C12.4024 14.1834 12.4024 14.8166 12.7929 15.2071C13.1834 15.5976 13.8166 15.5976 14.2071 15.2071L19.2071 10.2071C19.5976 9.81658 19.5976 9.18342 19.2071 8.79289ZM15 9.5C15 10.3284 14.3284 11 13.5 11C12.6716 11 12 10.3284 12 9.5C12 8.67157 12.6716 8 13.5 8C14.3284 8 15 8.67157 15 9.5ZM18.5 16C19.3284 16 20 15.3284 20 14.5C20 13.6716 19.3284 13 18.5 13C17.6716 13 17 13.6716 17 14.5C17 15.3284 17.6716 16 18.5 16Z" fill="#107F8C"/>
</svg>
