<svg width="20" height="20" viewBox="0 0 20 20" fill="none" xmlns="http://www.w3.org/2000/svg">
<path fill-rule="evenodd" clip-rule="evenodd" d="M15.659 2.07352C14.0426 1.70935 12.4371 2.72442 12.0729 4.34076C11.7087 5.9571 12.7238 7.56262 14.3402 7.92679C15.9565 8.29097 17.562 7.27589 17.9262 5.65955C18.0476 5.12078 18.5828 4.78242 19.1215 4.90381C19.6603 5.0252 19.9987 5.56037 19.8773 6.09915C19.2703 8.79305 16.5945 10.4848 13.9006 9.87788C11.2067 9.27093 9.51487 6.59506 10.1218 3.90116C10.7288 1.20727 13.4047 -0.484526 16.0986 0.122431C16.6373 0.243823 16.9757 0.778997 16.8543 1.31778C16.7329 1.85655 16.1977 2.19491 15.659 2.07352Z" fill="#107F8C"/>
<path fill-rule="evenodd" clip-rule="evenodd" d="M18.7682 2.35984C19.1218 2.78412 19.0645 3.41468 18.6402 3.76825L15.6402 6.26825C15.2429 6.59935 14.6586 6.57285 14.2929 6.20713L13.2929 5.20713C12.9024 4.81661 12.9024 4.18344 13.2929 3.79292C13.6834 3.40239 14.3166 3.40239 14.7071 3.79292L15.0614 4.14718L17.3598 2.2318C17.7841 1.87824 18.4147 1.93556 18.7682 2.35984Z" fill="#107F8C"/>
<path fill-rule="evenodd" clip-rule="evenodd" d="M0.134408 17.8217C0.410951 17.3436 1.02268 17.1803 1.50074 17.4568C1.93323 17.707 2.29337 18.0671 2.54355 18.4996C2.82009 18.9777 2.65673 19.5894 2.17867 19.866C1.70061 20.1425 1.08888 19.9791 0.812336 19.5011C0.737379 19.3715 0.628867 19.263 0.499288 19.188C0.0212267 18.9115 -0.142136 18.2998 0.134408 17.8217Z" fill="#107F8C"/>
<path fill-rule="evenodd" clip-rule="evenodd" d="M0.0137875 14.2839C0.105166 13.7392 0.620788 13.3718 1.16546 13.4632C3.91161 13.9239 6.07662 16.0889 6.53734 18.835C6.62872 19.3797 6.26125 19.8953 5.71658 19.9867C5.17191 20.0781 4.65628 19.7106 4.56491 19.166C4.24532 17.261 2.73945 15.7552 0.834549 15.4356C0.289876 15.3442 -0.0775912 14.8286 0.0137875 14.2839Z" fill="#107F8C"/>
<path fill-rule="evenodd" clip-rule="evenodd" d="M0.00490563 10.6171C0.0594715 10.0675 0.549231 9.66622 1.09881 9.72079C5.94579 10.202 9.79841 14.0546 10.2796 18.9016C10.3342 19.4512 9.93292 19.941 9.38334 19.9955C8.83376 20.0501 8.344 19.6488 8.28943 19.0992C7.90235 15.2005 4.79989 12.0981 0.901213 11.711C0.35163 11.6564 -0.0496603 11.1667 0.00490563 10.6171Z" fill="#107F8C"/>
<path fill-rule="evenodd" clip-rule="evenodd" d="M0.00249256 6.92964C0.0413733 6.37873 0.519497 5.96364 1.07041 6.00252C7.98608 6.4906 13.5095 12.014 13.9975 18.9296C14.0364 19.4806 13.6213 19.9587 13.0704 19.9976C12.5195 20.0364 12.0414 19.6214 12.0025 19.0704C11.5845 13.1484 6.8517 8.41551 0.929612 7.99756C0.378697 7.95868 -0.0363882 7.48056 0.00249256 6.92964Z" fill="#107F8C"/>
</svg>
