<svg width="20" height="20" viewBox="0 0 20 20" fill="none" xmlns="http://www.w3.org/2000/svg">
<path d="M5.8 0C5.24772 0 4.8 0.447715 4.8 1C4.8 1.55228 5.24772 2 5.8 2H14.2C14.7523 2 15.2 1.55228 15.2 1C15.2 0.447715 14.7523 0 14.2 0H5.8Z" fill="#21A19A"/>
<path d="M5 12.5C5 11.9477 4.55228 11.5 4 11.5C3.44772 11.5 3 11.9477 3 12.5V17C3 18.6569 4.34315 20 6 20H14C15.6569 20 17 18.6569 17 17V12.5C17 11.9477 16.5523 11.5 16 11.5C15.4477 11.5 15 11.9477 15 12.5V17C15 17.5523 14.5523 18 14 18H6C5.44772 18 5 17.5523 5 17V12.5Z" fill="#21A19A"/>
<path fill-rule="evenodd" clip-rule="evenodd" d="M10 11C8.34315 11 7 12.3431 7 14C7 15.6569 8.34315 17 10 17C11.6569 17 13 15.6569 13 14C13 12.3431 11.6569 11 10 11ZM9 14C9 13.4477 9.44772 13 10 13C10.5523 13 11 13.4477 11 14C11 14.5523 10.5523 15 10 15C9.44772 15 9 14.5523 9 14Z" fill="#21A19A"/>
<path d="M0.0513439 2.6838C-0.123304 3.20774 0.159856 3.77406 0.6838 3.94871L3.6838 4.94871C4.20774 5.12336 4.77406 4.8402 4.94871 4.31626C5.12336 3.79231 4.8402 3.22599 4.31626 3.05134L1.31625 2.05134C0.792312 1.8767 0.225992 2.15986 0.0513439 2.6838Z" fill="#21A19A"/>
<path d="M19.9487 2.6838C20.1234 3.20774 19.8402 3.77406 19.3162 3.94871L16.3162 4.94871C15.7923 5.12336 15.226 4.8402 15.0513 4.31626C14.8767 3.79231 15.1598 3.22599 15.6838 3.05134L18.6838 2.05134C19.2077 1.8767 19.7741 2.15986 19.9487 2.6838Z" fill="#21A19A"/>
<path fill-rule="evenodd" clip-rule="evenodd" d="M7.00002 6C7.00002 4.34315 8.34317 3 10 3C11.6569 3 13 4.34315 13 6C13 7.65685 11.6569 9 10 9C8.34317 9 7.00002 7.65685 7.00002 6ZM10 5C9.44774 5 9.00002 5.44771 9.00002 6C9.00002 6.55228 9.44774 7 10 7C10.5523 7 11 6.55228 11 6C11 5.44771 10.5523 5 10 5Z" fill="#21A19A"/>
<path d="M19.3162 8.05129C19.8402 8.22594 20.1234 8.79226 19.9487 9.3162C19.7741 9.84014 19.2077 10.1233 18.6838 9.94866L15.6838 8.94866C15.1598 8.77401 14.8767 8.20769 15.0513 7.68374C15.226 7.1598 15.7923 6.87664 16.3162 7.05129L19.3162 8.05129Z" fill="#21A19A"/>
<path d="M0.6838 8.05129C0.159856 8.22594 -0.123304 8.79226 0.0513439 9.3162C0.225992 9.84014 0.792312 10.1233 1.31625 9.94866L4.31626 8.94866C4.8402 8.77401 5.12336 8.20769 4.94871 7.68374C4.77406 7.1598 4.20774 6.87664 3.6838 7.05129L0.6838 8.05129Z" fill="#21A19A"/>
</svg>
