<svg width="20" height="20" viewBox="0 0 20 20" fill="none" xmlns="http://www.w3.org/2000/svg">
<path d="M10 2C7.47455 2 5.22192 3.16951 3.75455 5H5.99998C6.55226 5 6.99998 5.44772 6.99998 6C6.99998 6.55228 6.55226 7 5.99998 7H1.99998C1.44769 7 0.999977 6.55228 0.999977 6V2C0.999977 1.44772 1.44769 1 1.99998 1C2.55226 1 2.99998 1.44772 2.99998 2V2.85873C4.80296 1.09135 7.27391 0 10 0C13.4681 0 16.5232 1.76629 18.3155 4.44374C18.6227 4.90269 18.4997 5.5238 18.0407 5.83101C17.5818 6.13822 16.9607 6.01521 16.6534 5.55626C15.2166 3.40977 12.7728 2 10 2Z" fill="#107F8C"/>
<path d="M1.49049 13.1045C1.98507 12.8587 2.58525 13.0604 2.83104 13.555C3.88613 15.6781 5.85637 17.2651 8.22127 17.8018C8.75986 17.924 9.0974 18.4597 8.97519 18.9983C8.85297 19.5369 8.31728 19.8744 7.77869 19.7522C4.8167 19.0801 2.35737 17.0959 1.04001 14.445C0.794225 13.9505 0.995912 13.3503 1.49049 13.1045Z" fill="#107F8C"/>
<path d="M14.6491 7.06367C14.8755 6.97878 15.125 6.97878 15.3514 7.06367L19.3514 8.56367C19.8685 8.75759 20.1305 9.334 19.9366 9.85112C19.7427 10.3682 19.1662 10.6302 18.6491 10.4363L15.0002 9.068L11.3514 10.4363C10.8343 10.6302 10.2578 10.3682 10.0639 9.85112C9.87 9.334 10.132 8.75759 10.6491 8.56367L14.6491 7.06367Z" fill="#107F8C"/>
<path d="M12.0002 11C12.5525 11 13.0002 11.4477 13.0002 12V15C13.0002 15.5523 12.5525 16 12.0002 16C11.4479 16 11.0002 15.5523 11.0002 15V12C11.0002 11.4477 11.4479 11 12.0002 11Z" fill="#107F8C"/>
<path d="M15.0002 11C15.5525 11 16.0002 11.4477 16.0002 12V15C16.0002 15.5523 15.5525 16 15.0002 16C14.4479 16 14.0002 15.5523 14.0002 15V12C14.0002 11.4477 14.4479 11 15.0002 11Z" fill="#107F8C"/>
<path d="M18.0002 11C18.5525 11 19.0002 11.4477 19.0002 12V15C19.0002 15.5523 18.5525 16 18.0002 16C17.4479 16 17.0002 15.5523 17.0002 15V12C17.0002 11.4477 17.4479 11 18.0002 11Z" fill="#107F8C"/>
<path d="M10.0002 18C10.0002 17.4477 10.4479 17 11.0002 17H19.0002C19.5525 17 20.0002 17.4477 20.0002 18C20.0002 18.5523 19.5525 19 19.0002 19H11.0002C10.4479 19 10.0002 18.5523 10.0002 18Z" fill="#107F8C"/>
</svg>
