<svg width="20" height="20" viewBox="0 0 20 20" fill="none" xmlns="http://www.w3.org/2000/svg">
<path fill-rule="evenodd" clip-rule="evenodd" d="M1.99999 2.99999C1.99999 1.34314 3.34313 0 4.99998 0H9.17154C9.96718 0 10.7302 0.316069 11.2928 0.878676L17.1213 6.70708C17.6839 7.26969 17.9999 8.03275 17.9999 8.82839V9.99996C17.9999 10.5522 17.5522 11 16.9999 11C16.4477 11 15.9999 10.5522 15.9999 9.99996V8.99996H12C10.3431 8.99996 8.99996 7.65682 8.99996 5.99998V1.99999H4.99998C4.4477 1.99999 3.99998 2.44771 3.99998 2.99999V16.9999C3.99998 17.5522 4.4477 17.9999 4.99998 17.9999H5.49998C6.05226 17.9999 6.49997 18.4476 6.49997 18.9999C6.49997 19.5522 6.05226 19.9999 5.49998 19.9999H4.99998C3.34313 19.9999 1.99999 18.6568 1.99999 16.9999V2.99999ZM11 3.4142L14.5857 6.99997H12C11.4477 6.99997 11 6.55226 11 5.99998V3.4142Z" fill="#B2B8BF"/>
<path d="M9.00007 13C9.00007 12.5594 8.71162 12.1706 8.28986 12.0429C7.8681 11.9152 7.41247 12.0787 7.16803 12.4453L6.16803 13.9453C5.86168 14.4048 5.98585 15.0257 6.44538 15.3321C6.61614 15.4459 6.80918 15.5003 7.00008 15.5001V19C7.00008 19.5523 7.44779 20 8.00008 20C8.55236 20 9.00007 19.5523 9.00007 19V13Z" fill="#B2B8BF"/>
<path d="M12.2898 12.0429C12.7116 12.1706 13.0001 12.5594 13.0001 13V19C13.0001 19.5523 12.5523 20 12.0001 20C11.4478 20 11.0001 19.5523 11.0001 19V15.5001C10.8092 15.5003 10.6161 15.4459 10.4454 15.3321C9.98584 15.0257 9.86166 14.4048 10.168 13.9453L11.168 12.4453C11.4125 12.0787 11.8681 11.9152 12.2898 12.0429Z" fill="#B2B8BF"/>
<path fill-rule="evenodd" clip-rule="evenodd" d="M14.9999 12C14.4477 12 13.9999 12.4477 13.9999 12.9999V15.9999C13.9999 16.3958 14.2334 16.7543 14.5954 16.9144C15.1874 17.0742 15.399 16.8796 15.6565 16.7542C15.914 16.6288 15.996 16.496 16.4999 16.4999C17.0038 16.5038 17.414 16.8554 17.414 17.2538C17.414 17.6523 16.9999 17.996 16.4999 17.9999C15.9999 18.0038 15.92 17.9277 15.6565 17.7538C15.1974 17.4508 14.4734 17.487 14.1679 17.9452C13.8615 18.4048 14.0976 19.1445 14.7343 19.5038C15.371 19.8632 15.9234 19.9999 16.4999 19.9999C17.4904 19.9999 18.2948 19.6581 18.8306 19.0151C19.3397 18.4042 19.4999 17.6485 19.4999 16.9999C19.4999 15.9477 18.5522 14.4999 16.4999 14.4999C16.3237 14.4999 16.1568 14.5125 15.9999 14.5343V13.9999H17.9999C18.5522 13.9999 18.9999 13.5522 18.9999 12.9999C18.9999 12.4477 18.5522 12 17.9999 12H14.9999Z" fill="#B2B8BF"/>
</svg>
