<svg width="32" height="32" viewBox="0 0 32 32" fill="none" xmlns="http://www.w3.org/2000/svg">
<path d="M17 10C17 9.44772 16.5523 9 16 9C15.4477 9 15 9.44772 15 10V15.9993C15 15.9992 15 15.9994 15 15.9993C15 16.2039 15.0615 16.3949 15.1669 16.5533C15.2444 16.6703 15.3474 16.7723 15.4729 16.85C15.5033 16.8689 15.5348 16.8862 15.5673 16.9018L19.753 18.9946C20.247 19.2416 20.8477 19.0414 21.0946 18.5474C21.3416 18.0535 21.1414 17.4528 20.6474 17.2058L17 15.3821V10Z" fill="#B2B8BF"/>
<path fill-rule="evenodd" clip-rule="evenodd" d="M16 5C9.9356 5 5 9.93529 5 15.9998C5 22.0647 9.93563 27 16 27C22.0644 27 27 22.0647 27 15.9998C27 9.93529 22.0644 5 16 5ZM3 15.9998C3 8.83065 8.8311 3 16 3C23.1689 3 29 8.83065 29 15.9998C29 23.1693 23.1689 29 16 29C8.83107 29 3 23.1693 3 15.9998Z" fill="#B2B8BF"/>
</svg>
