<svg width="32" height="32" viewBox="0 0 32 32" fill="none" xmlns="http://www.w3.org/2000/svg">
<path fill-rule="evenodd" clip-rule="evenodd" d="M20 8.5C20 6.01472 22.0147 4 24.5 4C25.0791 4 25.6304 4.1089 26.1362 4.30643C26.6507 4.50733 27.2306 4.25316 27.4315 3.73871C27.6324 3.22427 27.3782 2.64436 26.8638 2.44345C26.1298 2.15683 25.332 2 24.5 2C20.9101 2 18 4.91015 18 8.5C18 12.0899 20.9101 15 24.5 15C27.9263 15 30.7327 12.3496 30.982 8.98644C31.0229 8.43567 30.6095 7.95608 30.0587 7.91524C29.5079 7.8744 29.0283 8.28779 28.9875 8.83856C28.815 11.1652 26.8713 13 24.5 13C22.0147 13 20 10.9853 20 8.5ZM30.2809 4.62534C30.6259 5.0566 30.5559 5.6859 30.1247 6.03091L25.1247 10.0309C24.7635 10.3199 24.2512 10.3234 23.886 10.0394L21.886 8.48383C21.4501 8.14476 21.3716 7.51649 21.7106 7.08054C22.0497 6.64459 22.678 6.56606 23.1139 6.90513L24.4913 7.97639L28.8753 4.46917C29.3066 4.12416 29.9358 4.19408 30.2809 4.62534ZM4 12C4 11.4477 4.44772 11 5 11H16C16.5523 11 17 10.5523 17 10C17 9.44772 16.5523 9 16 9H5C3.34315 9 2 10.3431 2 12V22C2 23.6569 3.34315 25 5 25H12V28H8C7.44772 28 7 28.4477 7 29C7 29.5523 7.44772 30 8 30H13H18C18.5523 30 19 29.5523 19 29C19 28.4477 18.5523 28 18 28H14V25H21C22.6569 25 24 23.6569 24 22V17C24 16.4477 23.5523 16 23 16C22.4477 16 22 16.4477 22 17V22C22 22.5523 21.5523 23 21 23H5C4.44772 23 4 22.5523 4 22V12ZM16 20C16 20.5523 16.4477 21 17 21C17.5523 21 18 20.5523 18 20V18C18 17.4477 17.5523 17 17 17C16.4477 17 16 17.4477 16 18V20ZM13 21C12.4477 21 12 20.5523 12 20V16C12 15.4477 12.4477 15 13 15C13.5523 15 14 15.4477 14 16V20C14 20.5523 13.5523 21 13 21ZM8 20C8 20.5523 8.44772 21 9 21C9.55228 21 10 20.5523 10 20V14C10 13.4477 9.55228 13 9 13C8.44772 13 8 13.4477 8 14V20Z" fill="#107F8C"/>
</svg>
