<svg width="21" height="20" viewBox="0 0 21 20" fill="none" xmlns="http://www.w3.org/2000/svg">
<path fill-rule="evenodd" clip-rule="evenodd" d="M0.0848079 3.89304C-0.392791 2.15299 1.22774 0.631898 2.91675 1.07893L11.5532 3.36477C13.7453 3.94495 14.5168 6.66607 12.8862 8.27776C12.4935 8.666 11.8603 8.66231 11.4721 8.26952C11.0838 7.87673 11.0875 7.24357 11.4803 6.85533C11.984 6.35743 11.7734 5.4919 11.0415 5.2982L2.40503 3.01236C2.13609 2.94118 1.96335 3.18105 2.01348 3.36367L4.34126 11.8445C4.52901 12.5286 5.43131 12.7919 5.97302 12.2634C6.36834 11.8777 7.00146 11.8855 7.38713 12.2809C7.7728 12.6762 7.76497 13.3093 7.36965 13.695C5.76308 15.2623 3.01291 14.5611 2.41259 12.3739L0.0848079 3.89304ZM6.56023 7.45752C6.94718 7.06346 7.58032 7.05771 7.97438 7.44466L11.2119 10.6239C11.4804 10.8875 11.923 10.8875 12.1914 10.6239C13.2379 9.59631 14.9271 9.59631 15.9735 10.6239L19.7031 14.2863C20.0971 14.6732 20.1029 15.3064 19.7159 15.7004C19.329 16.0945 18.6958 16.1002 18.3018 15.7133L14.5722 12.0509C14.3038 11.7873 13.8612 11.7873 13.5927 12.0509C12.5463 13.0785 10.8571 13.0785 9.81064 12.0509L6.57308 8.87167C6.17902 8.48472 6.17327 7.85158 6.56023 7.45752Z" fill="#B2B8BF"/>
</svg>
