<svg width="20" height="20" viewBox="0 0 20 20" fill="none" xmlns="http://www.w3.org/2000/svg">
<path d="M6 0C5.44772 0 5 0.447715 5 1C5 1.55228 5.44772 2 6 2H15.5858L0.292893 17.2929C-0.0976311 17.6834 -0.0976311 18.3166 0.292893 18.7071C0.683417 19.0976 1.31658 19.0976 1.70711 18.7071L17 3.4142V8.5C17 9.05229 17.4477 9.5 18 9.5C18.5523 9.5 19 9.05229 19 8.5V1C19 0.447715 18.5523 0 18 0H6Z" fill="#B2B8BF"/>
<path d="M15.6593 12.0732C14.043 11.7091 12.4375 12.7241 12.0733 14.3405C11.7091 15.9568 12.7242 17.5623 14.3405 17.9265C15.9569 18.2907 17.5624 17.2756 17.9266 15.6593C18.048 15.1205 18.5831 14.7821 19.1219 14.9035C19.6607 15.0249 19.999 15.5601 19.8776 16.0989C19.2707 18.7928 16.5948 20.4846 13.9009 19.8776C11.207 19.2707 9.51524 16.5948 10.1222 13.9009C10.7292 11.207 13.405 9.5152 16.0989 10.1222C16.6377 10.2435 16.9761 10.7787 16.8547 11.3175C16.7333 11.8563 16.1981 12.1946 15.6593 12.0732Z" fill="#B2B8BF"/>
<path d="M18.6402 13.7682C19.0645 13.4147 19.1218 12.7841 18.7682 12.3598C18.4147 11.9355 17.7841 11.8782 17.3598 12.2318L15.0614 14.1472L14.7071 13.7929C14.3166 13.4024 13.6834 13.4024 13.2929 13.7929C12.9024 14.1834 12.9024 14.8166 13.2929 15.2071L14.2929 16.2071C14.6586 16.5728 15.2429 16.5993 15.6402 16.2682L18.6402 13.7682Z" fill="#B2B8BF"/>
</svg>
