<svg width="32" height="32" viewBox="0 0 32 32" fill="none" xmlns="http://www.w3.org/2000/svg">
<path fill-rule="evenodd" clip-rule="evenodd" d="M7 11C6.44772 11 6 11.4477 6 12V24C6 24.5523 6.44772 25 7 25H8C8.55228 25 9 25.4477 9 26C9 26.5523 8.55228 27 8 27H7C5.34315 27 4 25.6569 4 24V12C4 10.3431 5.34315 9 7 9H11V7C11 5.34315 12.3431 4 14 4H18C19.6569 4 21 5.34315 21 7V9H25C26.6569 9 28 10.3431 28 12V14C28 14.5523 27.5523 15 27 15C26.4477 15 26 14.5523 26 14V12C26 11.4477 25.5523 11 25 11H7ZM19 9V7C19 6.44772 18.5523 6 18 6H14C13.4477 6 13 6.44772 13 7V9H19Z" fill="#21A19A"/>
<path fill-rule="evenodd" clip-rule="evenodd" d="M21.1153 16.0066C21.1531 16.0022 21.1916 16 21.2306 16H23.8383C25.0898 16 25.9565 16.5521 26.4556 17.3579C26.9085 18.0891 27 18.9309 27 19.5V19.6674C27 20.2913 26.8517 21.0994 26.3645 21.7808C25.8412 22.5127 24.9936 23 23.8383 23H22V24H22.9883C23.5406 24 23.9883 24.4477 23.9883 25C23.9883 25.5523 23.5406 26 22.9883 26H22V27C22 27.5523 21.5523 28 21 28C20.4477 28 20 27.5523 20 27V26H19C18.4477 26 18 25.5523 18 25C18 24.4477 18.4477 24 19 24H20V23H19C18.4477 23 18 22.5523 18 22C18 21.4477 18.4477 21 19 21H20V17C20 16.4477 20.4477 16 21 16C21.039 16 21.0775 16.0022 21.1153 16.0066ZM22 18V21H23.8383C24.3679 21 24.6011 20.8084 24.7375 20.6176C24.9099 20.3765 25 20.0182 25 19.6674V19.5C25 19.0943 24.9257 18.6861 24.7553 18.411C24.6311 18.2105 24.417 18 23.8383 18H22Z" fill="#21A19A"/>
<path d="M14 18C13.4477 18 13 18.4477 13 19C13 19.5523 13.4477 20 14 20H16.5C17.0523 20 17.5 19.5523 17.5 19C17.5 18.4477 17.0523 18 16.5 18H14Z" fill="#21A19A"/>
<path d="M12 22C12 21.4477 12.4477 21 13 21H15.5C16.0523 21 16.5 21.4477 16.5 22C16.5 22.5523 16.0523 23 15.5 23H13C12.4477 23 12 22.5523 12 22Z" fill="#21A19A"/>
<path d="M12 24C11.4477 24 11 24.4477 11 25C11 25.5523 11.4477 26 12 26H14.5C15.0523 26 15.5 25.5523 15.5 25C15.5 24.4477 15.0523 24 14.5 24H12Z" fill="#21A19A"/>
</svg>
