<svg width="20" height="20" viewBox="0 0 20 20" fill="none" xmlns="http://www.w3.org/2000/svg">
<path fill-rule="evenodd" clip-rule="evenodd" d="M8 0C6.89543 0 6 0.89543 6 2V4H3C1.34315 4 0 5.34315 0 7V15C0 16.6569 1.34315 18 3 18H4C4.55228 18 5 17.5523 5 17C5 16.4477 4.55228 16 4 16H3C2.44772 16 2 15.5523 2 15V7C2 6.44772 2.44772 6 3 6H17C17.5523 6 18 6.44772 18 7V8C18 8.55228 18.4477 9 19 9C19.5523 9 20 8.55228 20 8V7C20 5.34315 18.6569 4 17 4H14V2C14 0.89543 13.1046 0 12 0H8ZM12 4V2H8V4H12Z" fill="#21A19A"/>
<path fill-rule="evenodd" clip-rule="evenodd" d="M13.5 11C13.5 10.4477 13.9477 10 14.5 10H16.6564C17.7068 10 18.4922 10.3941 18.974 11.0608C19.4137 11.6692 19.5 12.3682 19.5 12.8275V12.9498C19.5 13.4578 19.3628 14.174 18.9501 14.7954C18.5046 15.4661 17.7463 16 16.6564 16H15.5V16.5H16C16.5523 16.5 17 16.9477 17 17.5C17 18.0523 16.5523 18.5 16 18.5H15.5V19C15.5 19.5523 15.0523 20 14.5 20C13.9477 20 13.5 19.5523 13.5 19V18.5H13C12.4477 18.5 12 18.0523 12 17.5C12 16.9477 12.4477 16.5 13 16.5H13.5V16H13C12.4477 16 12 15.5523 12 15C12 14.4477 12.4477 14 13 14H13.5V11ZM16.6564 14H15.5V12H16.6564C16.9274 12 17.0877 12.0481 17.1775 12.0903C17.2629 12.1305 17.3145 12.179 17.353 12.2322C17.4449 12.3594 17.5 12.5742 17.5 12.8275V12.9498C17.5 13.1544 17.4339 13.4633 17.2841 13.6888C17.167 13.8651 17.0035 14 16.6564 14Z" fill="#21A19A"/>
<path d="M9 11C8.44771 11 8 11.4477 8 12C8 12.5523 8.44771 13 9 13H11C11.5523 13 12 12.5523 12 12C12 11.4477 11.5523 11 11 11H9Z" fill="#21A19A"/>
<path d="M7 15C7 14.4477 7.44772 14 8 14H10C10.5523 14 11 14.4477 11 15C11 15.5523 10.5523 16 10 16H8C7.44772 16 7 15.5523 7 15Z" fill="#21A19A"/>
<path d="M7 17C6.44772 17 6 17.4477 6 18C6 18.5523 6.44772 19 7 19H9C9.55228 19 10 18.5523 10 18C10 17.4477 9.55228 17 9 17H7Z" fill="#21A19A"/>
</svg>
