<svg width="20" height="20" viewBox="0 0 20 20" fill="none" xmlns="http://www.w3.org/2000/svg">
<path fill-rule="evenodd" clip-rule="evenodd" d="M16.015 0.999996C16.015 0.447713 15.5673 0 15.015 0C14.4627 0 14.015 0.447713 14.015 0.999995V2.73494L11.4754 0.704879C10.7605 0.133379 9.74887 0.120124 9.01921 0.672699L0.39633 7.20289C-0.0439457 7.53632 -0.130565 8.16353 0.20286 8.6038C0.536286 9.04408 1.16349 9.1307 1.60377 8.79727L10.2267 2.26708L18.3756 8.78118C18.807 9.12603 19.4362 9.05587 19.7811 8.62448C20.1259 8.19309 20.0558 7.56383 19.6244 7.21898L16.015 4.3337V0.999996ZM3.00005 10.1875C3.55233 10.1875 4.00004 10.6352 4.00004 11.1874V17.9999H16V11.4999C16 10.9477 16.4477 10.5 17 10.5C17.5523 10.5 18 10.9477 18 11.4999V17.9999C18 19.1045 17.1046 19.9999 16 19.9999H4.00004C2.89548 19.9999 2.00005 19.1045 2.00005 17.9999V11.1874C2.00005 10.6352 2.44777 10.1875 3.00005 10.1875ZM10.6595 8.26098C9.04313 7.89681 7.43761 8.91188 7.07344 10.5282C6.70927 12.1445 7.72434 13.7501 9.34067 14.1142C10.957 14.4784 12.5625 13.4633 12.9267 11.847C13.0481 11.3082 13.5832 10.9699 14.122 11.0913C14.6608 11.2126 14.9992 11.7478 14.8778 12.2866C14.2708 14.9805 11.595 16.6723 8.90107 16.0653C6.20719 15.4584 4.5154 12.7825 5.12236 10.0886C5.72931 7.39474 8.40517 5.70295 11.0991 6.3099C11.6378 6.43129 11.9762 6.96646 11.8548 7.50524C11.7334 8.04402 11.1982 8.38237 10.6595 8.26098ZM13.6407 9.9557C14.0649 9.60214 14.1223 8.97158 13.7687 8.5473C13.4151 8.12303 12.7846 8.0657 12.3603 8.41927L10.0619 10.3346L9.70761 9.98037C9.31709 9.58985 8.68393 9.58985 8.2934 9.98037C7.90288 10.3709 7.90288 11.0041 8.2934 11.3946L9.2934 12.3946C9.65912 12.7603 10.2434 12.7868 10.6407 12.4557L13.6407 9.9557Z" fill="#B2B8BF"/>
</svg>
