<svg width="20" height="20" viewBox="0 0 20 20" fill="none" xmlns="http://www.w3.org/2000/svg">
<path d="M4 2C3.44772 2 3 2.44772 3 3V17C3 17.5523 3.44772 18 4 18H14C14.5523 18 15 17.5523 15 17V12C15 11.4477 15.4477 11 16 11C16.5523 11 17 11.4477 17 12V17C17 18.6569 15.6569 20 14 20H4C2.34315 20 1 18.6569 1 17V3C1 1.34315 2.34315 0 4 0H9.5C10.0523 0 10.5 0.447715 10.5 1C10.5 1.55228 10.0523 2 9.5 2H4Z" fill="#21A19A"/>
<path d="M5 10C5 9.44771 5.44772 9 6 9H6.5C7.05228 9 7.5 9.44771 7.5 10C7.5 10.5523 7.05228 11 6.5 11H6C5.44772 11 5 10.5523 5 10Z" fill="#21A19A"/>
<path d="M6 13C5.44772 13 5 13.4477 5 14C5 14.5523 5.44772 15 6 15H11C11.5523 15 12 14.5523 12 14C12 13.4477 11.5523 13 11 13H6Z" fill="#21A19A"/>
<path fill-rule="evenodd" clip-rule="evenodd" d="M8.9142 7.49992C8.9142 6.96949 9.12491 6.46078 9.49998 6.08571L14.9853 0.600429C15.7663 -0.18062 17.0326 -0.18062 17.8137 0.600429L19.2279 2.01464C20.009 2.79569 20.009 4.06202 19.2279 4.84307L13.7426 10.3284C13.3676 10.7034 12.8588 10.9141 12.3284 10.9141L10.9142 10.9141C9.80962 10.9141 8.9142 10.0187 8.9142 8.91414L8.9142 7.49992ZM16.3995 2.01464L10.9142 7.49992V8.91414H12.3284L17.8137 3.42886L16.3995 2.01464Z" fill="#21A19A"/>
</svg>
