<svg width="32" height="32" viewBox="0 0 32 32" fill="none" xmlns="http://www.w3.org/2000/svg">
<path fill-rule="evenodd" clip-rule="evenodd" d="M20.6174 6.53751C21.4028 6.53751 22.0395 5.90083 22.0395 5.11544C22.0395 4.33004 21.4028 3.69336 20.6174 3.69336C19.832 3.69336 19.1953 4.33004 19.1953 5.11544C19.1953 5.90083 19.832 6.53751 20.6174 6.53751ZM4 6C3.44772 6 3 6.44772 3 7C3 7.55228 3.44772 8 4 8H4.22078C5.65083 8 6.88207 9.00938 7.16253 10.4117L7.51466 12.1723L8.50007 18.7417C8.86721 21.1893 10.9698 23 13.4447 23H19.6622C21.9888 23 24.0079 21.3953 24.5331 19.1289L24.9742 17.2258C25.0989 16.6877 24.7638 16.1505 24.2258 16.0258C23.6877 15.9011 23.1505 16.2362 23.0258 16.7742L22.5848 18.6773C22.2696 20.0372 21.0581 21 19.6622 21H13.4447C11.9598 21 10.6982 19.9136 10.4779 18.445L9.66119 13H15C15.5523 13 16 12.5523 16 12C16 11.4477 15.5523 11 15 11H9.3198L9.12369 10.0194C8.65626 7.6823 6.60419 6 4.22078 6H4ZM23 24C21.3431 24 20 25.3431 20 27C20 28.6569 21.3431 30 23 30C24.6569 30 26 28.6569 26 27C26 25.3431 24.6569 24 23 24ZM22 27C22 26.4477 22.4477 26 23 26C23.5523 26 24 26.4477 24 27C24 27.5523 23.5523 28 23 28C22.4477 28 22 27.5523 22 27ZM7 27C7 25.3431 8.34315 24 10 24C11.6569 24 13 25.3431 13 27C13 28.6569 11.6569 30 10 30C8.34315 30 7 28.6569 7 27ZM10 26C9.44772 26 9 26.4477 9 27C9 27.5523 9.44772 28 10 28C10.5523 28 11 27.5523 11 27C11 26.4477 10.5523 26 10 26ZM27.8578 11.3889C27.8578 12.1743 27.2211 12.811 26.4357 12.811C25.6504 12.811 25.0137 12.1743 25.0137 11.3889C25.0137 10.6035 25.6504 9.9668 26.4357 9.9668C27.2211 9.9668 27.8578 10.6035 27.8578 11.3889ZM27.9415 5.49031C28.3321 5.09979 28.3321 4.46662 27.9415 4.0761C27.551 3.68557 26.9178 3.68557 26.5273 4.0761L19.7509 10.8525C19.3604 11.243 19.3604 11.8762 19.7509 12.2667C20.1414 12.6573 20.7746 12.6573 21.1651 12.2667L27.9415 5.49031Z" fill="#21A19A"/>
</svg>
