<svg width="20" height="20" viewBox="0 0 20 20" fill="none" xmlns="http://www.w3.org/2000/svg">
<path d="M2.99995 2.99995C2.99995 2.44768 3.44766 1.99997 3.99994 1.99997H6.99989C7.55217 1.99997 7.99988 1.55226 7.99988 0.999985C7.99988 0.447708 7.55217 0 6.99989 0H3.99994C2.34311 0 0.999985 1.34313 0.999985 2.99995V16.9997C0.999985 18.6566 2.34311 19.9997 3.99994 19.9997H13.9998C15.6566 19.9997 16.9997 18.6566 16.9997 16.9997V14.9998C16.9997 14.4475 16.552 13.9998 15.9998 13.9998C15.4475 13.9998 14.9998 14.4475 14.9998 14.9998V16.9997C14.9998 17.552 14.5521 17.9997 13.9998 17.9997H3.99994C3.44766 17.9997 2.99995 17.552 2.99995 16.9997V2.99995Z" fill="#B2B8BF"/>
<path d="M4.99992 9.99985C4.99992 9.44757 5.44763 8.99986 5.99991 8.99986H6.99989C7.55217 8.99986 7.99988 9.44757 7.99988 9.99985C7.99988 10.5521 7.55217 10.9998 6.99989 10.9998H5.99991C5.44763 10.9998 4.99992 10.5521 4.99992 9.99985Z" fill="#B2B8BF"/>
<path d="M5.99991 12.9998C5.44763 12.9998 4.99992 13.4475 4.99992 13.9998C4.99992 14.5521 5.44763 14.9998 5.99991 14.9998H8.99986C9.55214 14.9998 9.99985 14.5521 9.99985 13.9998C9.99985 13.4475 9.55214 12.9998 8.99986 12.9998H5.99991Z" fill="#B2B8BF"/>
<path d="M14.6487 0.0636699C14.8751 -0.0212233 15.1245 -0.0212233 15.3509 0.0636699L19.3509 1.56365C19.868 1.75756 20.13 2.33397 19.9361 2.85108C19.7421 3.36819 19.1657 3.63019 18.6486 3.43628L14.9998 2.06797L11.351 3.43628C10.8339 3.63019 10.2575 3.36819 10.0635 2.85108C9.86963 2.33397 10.1316 1.75756 10.6487 1.56365L14.6487 0.0636699Z" fill="#B2B8BF"/>
<path d="M11.9998 3.99994C12.5521 3.99994 12.9998 4.44765 12.9998 4.99992V7.99988C12.9998 8.55215 12.5521 8.99986 11.9998 8.99986C11.4475 8.99986 10.9998 8.55215 10.9998 7.99988V4.99992C10.9998 4.44765 11.4475 3.99994 11.9998 3.99994Z" fill="#B2B8BF"/>
<path d="M15.9998 4.99992C15.9998 4.44765 15.552 3.99994 14.9998 3.99994C14.4475 3.99994 13.9998 4.44765 13.9998 4.99992V7.99988C13.9998 8.55215 14.4475 8.99986 14.9998 8.99986C15.552 8.99986 15.9998 8.55215 15.9998 7.99988V4.99992Z" fill="#B2B8BF"/>
<path d="M17.9997 3.99994C18.552 3.99994 18.9997 4.44765 18.9997 4.99992V7.99988C18.9997 8.55215 18.552 8.99986 17.9997 8.99986C17.4474 8.99986 16.9997 8.55215 16.9997 7.99988V4.99992C16.9997 4.44765 17.4474 3.99994 17.9997 3.99994Z" fill="#B2B8BF"/>
<path d="M10.9998 9.99985C10.4476 9.99985 9.99985 10.4476 9.99985 10.9998C9.99985 11.5521 10.4476 11.9998 10.9998 11.9998H18.9997C19.552 11.9998 19.9997 11.5521 19.9997 10.9998C19.9997 10.4476 19.552 9.99985 18.9997 9.99985H10.9998Z" fill="#B2B8BF"/>
</svg>
