<svg width="20" height="20" viewBox="0 0 20 20" fill="none" xmlns="http://www.w3.org/2000/svg">
<path fill-rule="evenodd" clip-rule="evenodd" d="M1.94239 6.63672C2.94722 5.74379 4.36305 5.79858 5.31446 6.75L6.03321 7.46875L6.60938 8.04102L6.61915 8.0498L6.62794 8.05859L6.82423 8.26465L6.83595 8.27637L6.84766 8.29004C7.2576 8.74927 7.50019 9.31856 7.50196 9.92871C7.50365 10.5389 7.26431 11.1082 6.85645 11.5664L6.83302 11.5918L6.68946 11.7422L6.68263 11.749L6.67579 11.7568L6.59181 11.8398L6.70509 11.9844L6.70606 11.9863C7.16588 12.5542 7.65242 13.0252 8.16016 13.4033L8.31641 13.248L8.31837 13.2451C9.21001 12.3535 10.5096 12.2497 11.4961 12.9756L11.6895 13.1318L11.7002 13.1416L11.7109 13.1523L11.7881 13.2246L11.7979 13.2344L11.8076 13.2432L12.8516 14.2812L12.8584 14.2881L13.2412 14.6768L13.4043 14.8535C13.7644 15.2809 13.9796 15.7991 13.999 16.3535C14.0212 16.9878 13.7835 17.59 13.3555 18.0713L13.3457 18.083L13.3359 18.0938L13.2608 18.1719L13.249 18.1855L13.2354 18.1982L12.7363 18.6895L12.6172 18.8125C12.6082 18.8221 12.5984 18.8306 12.5899 18.8398L12.4883 18.9541L12.4844 18.96C11.7817 19.7336 10.8664 20.0405 9.87794 19.9951H9.87501C8.91127 19.9479 8.0144 19.6593 7.08302 19.2021C5.35638 18.359 3.86193 17.1897 2.62989 15.7197C1.66004 14.5863 0.913767 13.372 0.426766 12.0518L0.319345 11.7461C0.0855737 11.0386 -0.0354382 10.3597 0.00879773 9.62988V9.62598C0.0597242 8.84355 0.383044 8.15273 0.951181 7.6084L1.04005 7.52344L1.76075 6.80859L1.76759 6.80176L1.7754 6.79492L1.917 6.66016L1.94239 6.63672ZM3.9004 8.16406C3.68584 7.9495 3.47321 7.95414 3.27442 8.12891L3.15431 8.24316L2.43653 8.95508L2.43165 8.95996L2.42579 8.96484L2.33595 9.05176L2.33497 9.05273C2.12579 9.25315 2.02312 9.47581 2.00489 9.75586C1.97717 10.2261 2.06191 10.7061 2.30274 11.3584C2.64791 12.2943 3.16203 13.1892 3.84962 14.0566L4.15528 14.4268L4.16212 14.4346C5.14895 15.612 6.32885 16.5602 7.68849 17.2676L7.9629 17.4062L7.96485 17.4072C8.73765 17.7865 9.3632 17.9682 9.97266 17.998C10.4486 18.0196 10.7526 17.8883 10.999 17.6191L11.1006 17.5059L11.1055 17.501L11.1104 17.4951C11.131 17.4727 11.1524 17.4503 11.1738 17.4277L11.1816 17.4189L11.3018 17.2959L11.3174 17.2803L11.8233 16.7812L11.8633 16.7383C11.9783 16.6076 12.0025 16.4983 12 16.4238C11.9974 16.348 11.9649 16.2287 11.8272 16.0908L11.8223 16.0859L11.4414 15.7002L10.3965 14.6611L10.3604 14.627L10.2715 14.5596C10.186 14.507 10.1111 14.4942 10.0537 14.4961C9.9766 14.4988 9.86187 14.5317 9.73341 14.6602L9.10645 15.29L9.10548 15.2891L9.02638 15.3721L8.51856 15.8926L7.71876 15.4961L7.70704 15.4902C7.68168 15.4772 7.65709 15.4642 7.63282 15.4512L7.62306 15.4453L7.61231 15.4404L7.5127 15.3838L7.46778 15.3564C6.61136 14.8099 5.83999 14.0955 5.15138 13.2451C4.85799 12.8841 4.61535 12.5262 4.42286 12.1416L4.09571 11.4873L4.98536 10.6211L5.2422 10.3623L5.36524 10.2324C5.47899 10.1032 5.50207 10.0001 5.50196 9.93457C5.50177 9.86814 5.47776 9.75906 5.35548 9.62207L5.18263 9.44141L4.62403 8.88867L4.62208 8.88574L3.9004 8.16406Z" fill="#107F8C"/>
<path d="M16 0C18.2091 0 20 1.79086 20 4V14C20 16.2091 18.2091 18 16 18C15.4477 18 15 17.5523 15 17C15 16.4477 15.4477 16 16 16C17.1046 16 18 15.1046 18 14V4C18 2.89543 17.1046 2 16 2H6.00001C4.89544 2 4.00001 2.89543 4.00001 4V4.5C4.00001 5.05229 3.55229 5.5 3.00001 5.5C2.44772 5.5 2.00001 5.05229 2.00001 4.5V4C2.00001 1.79086 3.79087 0 6.00001 0H16Z" fill="#107F8C"/>
<path d="M15 12C15.5523 12 16 12.4477 16 13C16 13.5523 15.5523 14 15 14C14.4477 14 14 13.5523 14 13C14 12.4477 14.4477 12 15 12Z" fill="#107F8C"/>
<path d="M11 8C11.5523 8 12 8.44772 12 9C12 9.55228 11.5523 10 11 10C10.4477 10 10 9.55228 10 9C10 8.44772 10.4477 8 11 8Z" fill="#107F8C"/>
<path d="M15 8C15.5523 8 16 8.44772 16 9C16 9.55228 15.5523 10 15 10C14.4477 10 14 9.55228 14 9C14 8.44772 14.4477 8 15 8Z" fill="#107F8C"/>
<path d="M15 4C15.5523 4 16 4.44772 16 5C16 5.55228 15.5523 6 15 6H7.00001C6.44772 6 6.00001 5.55228 6.00001 5C6.00001 4.44772 6.44772 4 7.00001 4H15Z" fill="#107F8C"/>
</svg>
