<svg width="32" height="32" viewBox="0 0 32 32" fill="none" xmlns="http://www.w3.org/2000/svg">
<path d="M12.0803 10.801C11.9704 10.2598 11.4426 9.91007 10.9014 10.0199C10.3601 10.1298 10.0104 10.6576 10.1203 11.1989C10.6763 13.938 13.0964 16 16.0003 16C18.9042 16 21.3243 13.938 21.8803 11.1989C21.9901 10.6576 21.6404 10.1298 21.0992 10.0199C20.5579 9.91007 20.0301 10.2598 19.9202 10.801C19.5497 12.6264 17.9343 14 16.0003 14C14.0663 14 12.4508 12.6264 12.0803 10.801Z" fill="#107F8C"/>
<path d="M21.6412 18.2327C21.2175 17.8785 20.5868 17.935 20.2327 18.3588C19.8785 18.7826 19.935 19.4132 20.3588 19.7674C21.9582 21.104 23 22.9916 23 24.8973C23 25.2584 22.9685 25.6293 22.9054 26H9.09475C9.03181 25.6282 9 25.2573 9 24.8973C9 23.0369 10.0852 21.1025 11.6511 19.759C12.0703 19.3994 12.1186 18.768 11.759 18.3489C11.3993 17.9297 10.768 17.8815 10.3489 18.2411C8.47147 19.8518 7 22.3 7 24.8973C7 25.4143 7.04942 25.9386 7.14431 26.4557C7.31236 27.3682 8.11726 28 9.01829 28H22.9817C23.881 28 24.6875 27.3706 24.8555 26.457C24.9513 25.9381 25 25.4135 25 24.8973C25 22.2691 23.5853 19.8573 21.6412 18.2327Z" fill="#107F8C"/>
<path d="M9 2C8.44772 2 8 2.44772 8 3C8 3.55228 8.44772 4 9 4H23C23.5523 4 24 3.55228 24 3C24 2.44772 23.5523 2 23 2H9Z" fill="#107F8C"/>
<path d="M9 7C9 6.44772 9.44772 6 10 6H22C22.5523 6 23 6.44772 23 7C23 7.55228 22.5523 8 22 8H10C9.44772 8 9 7.55228 9 7Z" fill="#107F8C"/>
<path d="M16 18C16.5523 18 17 18.4477 17 19V23C17 23.5523 16.5523 24 16 24C15.4477 24 15 23.5523 15 23V19C15 18.4477 15.4477 18 16 18Z" fill="#107F8C"/>
</svg>
