<svg width="32" height="33" viewBox="0 0 32 33" fill="none" xmlns="http://www.w3.org/2000/svg">
<path fill-rule="evenodd" clip-rule="evenodd" d="M16.3542 12.0807C15.8138 10.9361 14.1859 10.937 13.6461 12.0812C13.2303 12.9626 12.8286 13.8427 12.5301 14.6229C12.2456 15.3666 12 16.1535 12 16.8006C12 18.6325 13.4748 19.8958 15 19.8958C16.5252 19.8958 18 18.6325 18 16.8006C18 16.1538 17.7548 15.367 17.4705 14.623C17.1722 13.8427 16.7705 12.9624 16.3542 12.0807ZM14.3981 15.3375C14.5642 14.9032 14.77 14.4243 15.0004 13.9153C15.2307 14.4242 15.4363 14.903 15.6023 15.3371C15.8853 16.0776 16 16.558 16 16.8006C16 17.483 15.466 17.8958 15 17.8958C14.534 17.8958 14 17.483 14 16.8006C14 16.5582 14.1148 16.0781 14.3981 15.3375Z" fill="#B2B8BF"/>
<path fill-rule="evenodd" clip-rule="evenodd" d="M8 7.5625C8 5.90564 9.34315 4.5625 11 4.5625H19C20.6569 4.5625 22 5.90565 22 7.5625V9.13559C22.1161 9.08846 22.243 9.0625 22.376 9.0625C22.9283 9.0625 23.376 9.51022 23.376 10.0625V10.6198C24.6845 10.956 25.5993 12.2231 26.1122 13.4914C26.6778 14.8903 26.914 16.6454 26.6077 18.3196C26.3279 19.8486 25.6016 21.2774 24.7034 22.3541C24.3495 22.7782 23.7189 22.8351 23.2949 22.4813C22.8708 22.1275 22.8138 21.4969 23.1676 21.0729C23.8641 20.238 24.4278 19.1214 24.6404 17.9596C24.874 16.6829 24.691 15.3119 24.258 14.2411C23.9868 13.5704 23.6678 13.1258 23.376 12.8596V13.0625C23.376 13.6148 22.9283 14.0625 22.376 14.0625C22.243 14.0625 22.1161 14.0365 22 13.9894V26.5625H23C23.5523 26.5625 24 27.0102 24 27.5625C24 28.1148 23.5523 28.5625 23 28.5625H7C6.44772 28.5625 6 28.1148 6 27.5625C6 27.0102 6.44772 26.5625 7 26.5625H8V7.5625ZM20 7.5625V26.5625H10V7.5625C10 7.01022 10.4477 6.5625 11 6.5625H19C19.5523 6.5625 20 7.01022 20 7.5625Z" fill="#B2B8BF"/>
</svg>
