<svg width="20" height="21" viewBox="0 0 20 21" fill="none" xmlns="http://www.w3.org/2000/svg">
<path fill-rule="evenodd" clip-rule="evenodd" d="M10 3C9.7731 3 9.48164 3.0993 9.1324 3.43166C8.77801 3.76892 8.41337 4.30422 8.08538 5.04218C7.52392 6.30546 7.12736 8.03347 7.02567 10H10.5C11.0523 10 11.5 10.4477 11.5 11C11.5 11.5523 11.0523 12 10.5 12H7.02567C7.12736 13.9665 7.52392 15.6945 8.08538 16.9578C8.41337 17.6958 8.77801 18.2311 9.1324 18.5683C9.48164 18.9007 9.7731 19 10 19C10.3708 19 10.9489 18.7061 11.5609 17.6548C12.1473 16.6475 12.6224 15.1613 12.8518 13.3728C12.922 12.825 13.4231 12.4379 13.9709 12.5081C14.5187 12.5784 14.9058 13.0794 14.8355 13.6272C14.6139 15.3557 14.1736 16.928 13.5544 18.169C15.4047 17.25 16.8491 15.6356 17.545 13.6668C17.7291 13.146 18.3004 12.8731 18.8211 13.0572C19.3418 13.2412 19.6148 13.8125 19.4307 14.3332C18.0584 18.2159 14.3556 21 10 21C4.47715 21 0 16.5229 0 11C0 5.47715 4.47715 0.999998 10 0.999998C10.1661 0.999998 10.2741 0.996433 10.3575 0.99368C10.5588 0.987038 10.6166 0.985128 11 1.04944C11.5447 1.14082 11.9121 1.65645 11.8208 2.20112C11.7294 2.74579 11.2813 3 11 3L10 3ZM6.25776 4.2299C5.56798 5.78191 5.12643 7.79597 5.02328 10H2.06189C2.39999 7.2887 4.09485 4.99874 6.44561 3.83099C6.38064 3.96122 6.31802 4.09431 6.25776 4.2299ZM6.44561 18.169C4.09485 17.0013 2.39999 14.7113 2.06189 12H5.02328C5.12643 14.204 5.56798 16.2181 6.25776 17.7701C6.31802 17.9057 6.38064 18.0388 6.44561 18.169Z" fill="#B2B8BF"/>
<path d="M14.8137 1.41875C14.4927 0.969335 13.8682 0.865244 13.4187 1.18625C12.9693 1.50726 12.8652 2.13181 13.1863 2.58122L15.5 5.82045V5.99999H14.5C13.9477 5.99999 13.5 6.4477 13.5 6.99999C13.5 7.55227 13.9477 7.99999 14.5 7.99999H15.5V8.49999H14.5C13.9477 8.49999 13.5 8.9477 13.5 9.49999C13.5 10.0523 13.9477 10.5 14.5 10.5H15.5V11C15.5 11.5523 15.9477 12 16.5 12C17.0523 12 17.5 11.5523 17.5 11V10.5H18.5C19.0523 10.5 19.5 10.0523 19.5 9.49999C19.5 8.9477 19.0523 8.49999 18.5 8.49999H17.5V7.99999H18.5C19.0523 7.99999 19.5 7.55227 19.5 6.99999C19.5 6.4477 19.0523 5.99999 18.5 5.99999H17.5V5.82045L19.8137 2.58122C20.1347 2.13181 20.0306 1.50726 19.5812 1.18625C19.1318 0.865244 18.5073 0.969335 18.1863 1.41875L16.5 3.77952L14.8137 1.41875Z" fill="#B2B8BF"/>
</svg>
