<svg width="20" height="20" viewBox="0 0 20 20" fill="none" xmlns="http://www.w3.org/2000/svg">
<path d="M9.5 2C5.35786 2 2 5.35786 2 9.5C2 13.1895 4.66507 16.2586 8.17529 16.8836C8.71903 16.9804 9.08133 17.4996 8.98452 18.0434C8.8877 18.5871 8.36844 18.9494 7.82471 18.8526C3.3769 18.0606 0 14.1757 0 9.5C0 4.25329 4.25329 0 9.5 0C11.1161 0 12.6407 0.404353 13.9752 1.11823C14.4622 1.37873 14.6458 1.98469 14.3853 2.47168C14.1248 2.95867 13.5189 3.14227 13.0319 2.88177C11.9804 2.31932 10.779 2 9.5 2Z" fill="#B2B8BF"/>
<path d="M17.8254 7.5068C18.3739 7.44251 18.8707 7.83507 18.935 8.3836C18.978 8.75014 19 9.12271 19 9.5C19 9.79564 18.9865 10.0884 18.9599 10.3776C18.9095 10.9276 18.4228 11.3325 17.8728 11.2821C17.3228 11.2317 16.9179 10.7449 16.9683 10.1949C16.9893 9.96636 17 9.73457 17 9.5C17 9.20067 16.9825 8.90584 16.9486 8.6164C16.8843 8.06787 17.2769 7.57108 17.8254 7.5068Z" fill="#B2B8BF"/>
<path fill-rule="evenodd" clip-rule="evenodd" d="M14.5 9.81804C14.8806 9.81804 15.2283 10.0341 15.3967 10.3755L16.4866 12.5837L18.9236 12.9379C19.3002 12.9926 19.6132 13.2564 19.7308 13.6184C19.8484 13.9805 19.7503 14.3779 19.4778 14.6436L17.7144 16.3625L18.1306 18.7896C18.195 19.1647 18.0408 19.5439 17.7328 19.7676C17.4249 19.9914 17.0166 20.0209 16.6797 19.8438L14.5 18.6978L12.3203 19.8438C11.9834 20.0209 11.5751 19.9914 11.2672 19.7676C10.9592 19.5439 10.805 19.1647 10.8694 18.7896L11.2856 16.3625L9.52223 14.6436C9.24966 14.3779 9.15156 13.9805 9.26919 13.6184C9.38681 13.2564 9.69976 12.9926 10.0764 12.9379L12.5134 12.5837L13.6033 10.3755C13.7717 10.0341 14.1194 9.81804 14.5 9.81804ZM14.5 13.0776L14.0742 13.9403C13.9286 14.2355 13.647 14.44 13.3213 14.4874L12.3692 14.6257L13.0581 15.2972C13.2938 15.527 13.4014 15.858 13.3457 16.1824L13.1831 17.1306L14.0347 16.6829C14.326 16.5298 14.674 16.5298 14.9653 16.6829L15.8169 17.1306L15.6543 16.1824C15.5986 15.858 15.7062 15.527 15.9419 15.2972L16.6308 14.6257L15.6787 14.4874C15.353 14.44 15.0714 14.2355 14.9258 13.9403L14.5 13.0776Z" fill="#B2B8BF"/>
<path d="M17.1178 5.78633C17.5521 5.44512 17.6275 4.81646 17.2863 4.38219C16.9451 3.94792 16.3164 3.87248 15.8822 4.21369L9.47142 9.25071L6.58122 7.18628C6.13181 6.86527 5.50726 6.96936 5.18625 7.41877C4.86524 7.86819 4.96934 8.49274 5.41875 8.81375L8.91875 11.3137C9.28017 11.5719 9.76856 11.5607 10.1178 11.2863L17.1178 5.78633Z" fill="#B2B8BF"/>
</svg>
