<svg width="32" height="32" viewBox="0 0 32 32" fill="none" xmlns="http://www.w3.org/2000/svg">
<path d="M20.026 12.3806C19.9496 11.762 19.6541 10.87 18.9527 10.2019C18.1902 9.47554 17.0722 9.13391 15.6548 9.49676L15.629 9.50337L15.6036 9.51135C14.9414 9.71904 13.8338 10.3753 13.321 11.6586C13.0291 12.3273 12.8113 13.6839 13.2365 15.3657H12.584C12.0317 15.3657 11.584 15.8134 11.584 16.3657C11.584 16.918 12.0317 17.3657 12.584 17.3657H13.8136C13.8618 17.7177 13.8734 18.1039 13.8185 18.4853C13.7284 19.1107 13.4677 19.7028 12.8855 20.1533C12.6358 20.2156 12.4151 20.2839 12.2366 20.3488C11.7175 20.5374 11.4496 21.1112 11.6383 21.6302C11.8093 22.1007 12.2965 22.3647 12.7727 22.2697C12.9929 22.3132 13.229 22.2833 13.4419 22.1682C13.5288 22.1212 13.6128 22.0726 13.6941 22.0225C13.8949 21.9842 14.1129 21.9533 14.3359 21.9375C14.9323 21.8954 15.4118 21.9729 15.7084 22.1488C16.503 22.6199 17.3833 22.6915 18.089 22.634C18.7978 22.5762 19.4331 22.3805 19.8329 22.2003C20.3364 21.9734 20.5606 21.3813 20.3337 20.8778C20.1068 20.3742 19.5147 20.15 19.0111 20.377C18.8042 20.4702 18.3911 20.6027 17.9265 20.6406C17.4588 20.6787 17.0407 20.6136 16.7286 20.4285C16.3294 20.1918 15.8927 20.0573 15.4616 19.9882C15.632 19.588 15.7397 19.1756 15.7981 18.7703C15.8676 18.2874 15.8688 17.8108 15.8266 17.3657H16.5398C17.0921 17.3657 17.5398 16.918 17.5398 16.3657C17.5398 15.8134 17.0921 15.3657 16.5398 15.3657H15.3202C14.7884 13.7926 15.0529 12.6832 15.1553 12.4557L15.1654 12.4333L15.1743 12.4105C15.3989 11.8381 15.917 11.5178 16.1803 11.4269C16.9757 11.2308 17.3596 11.4465 17.5733 11.6501C17.8507 11.9143 18.0042 12.3269 18.0411 12.6256C18.1088 13.1738 18.608 13.5632 19.1561 13.4956C19.7042 13.4279 20.0937 12.9287 20.026 12.3806Z" fill="#B2B8BF"/>
<path fill-rule="evenodd" clip-rule="evenodd" d="M4 10C4 6.68629 6.68629 4 10 4H22C25.3137 4 28 6.68629 28 10V22C28 25.3137 25.3137 28 22 28H10C6.68629 28 4 25.3137 4 22V10ZM10 6H22C24.2091 6 26 7.79086 26 10V22C26 24.2091 24.2091 26 22 26H10C7.79086 26 6 24.2091 6 22V10C6 7.79086 7.79086 6 10 6Z" fill="#B2B8BF"/>
</svg>
