<svg width="20" height="20" viewBox="0 0 20 20" fill="none" xmlns="http://www.w3.org/2000/svg">
<path d="M8.55448 6.90981C7.72314 8.59153 7 10.165 7 11.0154C7 12.2154 8.00438 13.0154 9 13.0154C9.99562 13.0154 11 12.2154 11 11.0154C11 10.165 10.2781 8.59138 9.44598 6.90959C9.26334 6.54043 8.73699 6.5406 8.55448 6.90981Z" fill="#107F8C"/>
<path fill-rule="evenodd" clip-rule="evenodd" d="M4 5C4 3.34315 5.34315 2 7 2H11C12.6569 2 14 3.34315 14 5C14.5523 5 15 5.44772 15 6V6.26879C15.6566 6.58682 16.1833 7.17588 16.5439 7.74443C17.1142 8.64373 17.5 9.82777 17.5 11.0297C17.5 12.1283 17.1779 13.2084 16.6921 14.068C16.4204 14.5488 15.8104 14.7184 15.3296 14.4467C14.8487 14.175 14.6792 13.5649 14.9509 13.0841C15.2816 12.4988 15.5 11.7549 15.5 11.0297C15.5 10.2318 15.2358 9.41609 14.8549 8.81564C14.8198 8.76024 14.785 8.70861 14.7508 8.66052C14.5676 8.86867 14.2991 9 14 9V17C14.55 17.0026 14.9951 17.4493 14.9951 18C14.9951 18.5507 14.55 18.9974 14 19L13.9951 19H3.99512C3.44283 19 2.99512 18.5523 2.99512 18C2.99512 17.4477 3.44283 17 3.99512 17H4V5ZM12 5V17H6V5C6 4.44772 6.44772 4 7 4H11C11.5523 4 12 4.44772 12 5Z" fill="#107F8C"/>
</svg>
