<svg width="32" height="32" viewBox="0 0 32 32" fill="none" xmlns="http://www.w3.org/2000/svg">
<path fill-rule="evenodd" clip-rule="evenodd" d="M27.707 4.29297C28.0977 4.68359 28.0977 5.31641 27.707 5.70703L20.707 12.707C20.3164 13.0977 19.6833 13.0977 19.293 12.707C18.9023 12.3164 18.9023 11.6836 19.293 11.293L26.293 4.29297C26.6833 3.90234 27.3164 3.90234 27.707 4.29297ZM21.8442 5.42188C21.8442 6.20703 21.2075 6.84375 20.4221 6.84375C19.6367 6.84375 19 6.20703 19 5.42188C19 4.63672 19.6367 4 20.4221 4C21.2075 4 21.8442 4.63672 21.8442 5.42188ZM4 18C4 12.4775 8.47705 8 14 8C14.3086 8 14.6133 8.01367 14.9141 8.04102C15.4644 8.09082 15.9504 7.68555 16.0002 7.13574C16.05 6.58496 15.6445 6.09863 15.0945 6.04883C14.7339 6.0166 14.3687 6 14 6C7.37256 6 2 11.373 2 18V29C2 29.5527 2.44775 30 3 30H14C20.6274 30 26 24.627 26 18C26 17.6338 25.9834 17.2705 25.9512 16.9111C25.9019 16.3613 25.4155 15.9561 24.8657 16.0049C24.3154 16.0547 23.9097 16.541 23.9595 17.0908C23.9863 17.3896 24 17.6934 24 18C24 23.5225 19.5229 28 14 28H4V18ZM27.8442 11.4219C27.8442 12.207 27.2075 12.8438 26.4221 12.8438C25.6367 12.8438 25 12.207 25 11.4219C25 10.6367 25.6367 10 26.4221 10C27.2075 10 27.8442 10.6367 27.8442 11.4219ZM17.5 13C17.5 12.4473 17.0522 12 16.5 12H11C9.89551 12 9 12.8955 9 14V24H14.3076C16.5923 24 19 22.5723 19 20C19 17.4277 16.5923 16 14.3076 16H11V14H16.5C17.0522 14 17.5 13.5527 17.5 13ZM11 22V18H14.3076C15.9858 18 17 18.9717 17 20C17 21.0283 15.9858 22 14.3076 22H11Z" fill="#107F8C"/>
</svg>
