<svg width="20" height="20" viewBox="0 0 20 20" fill="none" xmlns="http://www.w3.org/2000/svg">
<path fill-rule="evenodd" clip-rule="evenodd" d="M6.77452 3.04962C7.80407 1.22996 9.7574 0 11.9999 0C15.3135 0 17.9997 2.68616 17.9999 5.99974C19.2129 6.91088 19.9998 8.36301 19.9998 9.99992C19.9998 10.5522 19.5521 10.9999 18.9999 10.9999C18.4476 10.9999 17.9999 10.5522 17.9999 9.99992C17.9999 8.88255 17.3895 7.90649 16.4791 7.38921C16.1342 7.19318 15.9377 6.81172 15.9785 6.41703C15.9926 6.28024 15.9999 6.14111 15.9999 5.99995C15.9999 3.79083 14.209 1.99998 11.9999 1.99998C10.3055 1.99998 8.85481 3.05391 8.27228 4.54556C8.08564 5.02348 7.56759 5.28261 7.07323 5.14533C6.73281 5.0508 6.37313 4.99996 5.99995 4.99996C3.79083 4.99996 1.99998 6.79081 1.99998 8.99993C1.99998 10.9339 3.37353 12.5493 5.19889 12.9199C5.74013 13.0297 6.08983 13.5576 5.97997 14.0988C5.8701 14.64 5.34227 14.9897 4.80103 14.8799C2.06194 14.3239 0 11.9038 0 8.99993C0 5.68625 2.68627 2.99998 5.99995 2.99998C6.26209 2.99998 6.52065 3.01685 6.77452 3.04962Z" fill="#B2B8BF"/>
<path fill-rule="evenodd" clip-rule="evenodd" d="M12.5146 10.1426C12.9881 10.4267 13.1417 11.041 12.8575 11.5146L11.9662 13.0001H15.0338L14.1426 11.5146C13.8584 11.041 14.012 10.4267 14.4855 10.1426C14.9591 9.85843 15.5734 10.012 15.8575 10.4856L17.3575 12.9856C17.3604 12.9904 17.3632 12.9952 17.366 13.0001H17.9999C18.3392 13.0001 18.6554 13.1721 18.8396 13.4571C19.0239 13.742 19.051 14.101 18.9118 14.4104L16.6618 19.4104C16.5003 19.7692 16.1434 20 15.7499 20H11.2499C10.8564 20 10.4995 19.7692 10.338 19.4104L8.08802 14.4104C7.94877 14.101 7.97594 13.742 8.16019 13.4571C8.34443 13.1721 8.66061 13.0001 8.99993 13.0001H9.63405C9.63685 12.9952 9.63969 12.9904 9.64258 12.9856L11.1426 10.4856C11.4267 10.012 12.041 9.85843 12.5146 10.1426ZM11.8965 18L10.5465 15H16.4533L15.1033 18H11.8965Z" fill="#B2B8BF"/>
</svg>
