<svg width="32" height="32" viewBox="0 0 32 32" fill="none" xmlns="http://www.w3.org/2000/svg">
<path d="M16.2248 4.45117C15.4879 3.84961 14.4284 3.84961 13.6918 4.45117L3.32464 11.9336C2.89739 12.2852 2.8344 12.9141 3.18401 13.3398C3.53362 13.7695 4.16375 13.832 4.59124 13.4805L14.9582 6L25.3251 13.4805C25.7526 13.832 26.3827 13.7695 26.7323 13.3398C27.0822 12.9141 27.0192 12.2852 26.5917 11.9336L21.9867 8.60938C21.9953 8.55664 21.9999 8.5 21.9999 8.44531V5.05273C21.9999 4.5 21.5521 4 20.9999 4C20.4477 4 19.9999 4.5 19.9999 5.05273V7.17578L16.2248 4.45117Z" fill="#B2B8BF"/>
<path d="M7.00091 14C7.55314 14 8.00091 14.4473 8.00091 15L7.99993 21C7.99993 21.5527 8.44768 22 8.99993 22H12.9999C12.9999 22 13.9999 22 13.9999 23C13.9999 24 12.9999 24 12.9999 24H8.99993C7.34319 24 5.99993 22.6562 5.99993 21L6.00091 15C6.00091 14.4473 6.44866 14 7.00091 14Z" fill="#B2B8BF"/>
<path fill-rule="evenodd" clip-rule="evenodd" d="M22.3714 15.0715C22.133 14.9762 21.867 14.9762 21.6286 15.0715L16.6286 17.0715C16.249 17.2234 16 17.5911 16 18C16 20.432 16.0923 22.3503 16.8684 24.0663C17.6569 25.8101 19.0858 27.2154 21.4348 28.8249C21.7754 29.0584 22.2246 29.0584 22.5652 28.8249C24.921 27.2107 26.3506 25.8052 27.1375 24.0619C27.9116 22.3467 28 20.4302 28 18C28 17.5911 27.751 17.2234 27.3714 17.0715L22.3714 15.0715ZM18.6907 23.2422C18.1686 22.0877 18.0258 20.7414 18.0034 18.6757L22 17.077L25.9967 18.6757C25.9748 20.7425 25.8351 22.0859 25.3146 23.2391C24.8015 24.3757 23.8658 25.4326 22 26.7781C20.1414 25.4374 19.2054 24.3804 18.6907 23.2422Z" fill="#B2B8BF"/>
</svg>
