<svg width="20" height="20" viewBox="0 0 20 20" fill="none" xmlns="http://www.w3.org/2000/svg">
<path d="M5.94983 15.9631C6.34035 15.5725 6.97352 15.5725 7.36404 15.9631C7.75457 16.3536 7.75457 16.9867 7.36404 17.3773L5.24272 19.4986C4.99434 19.747 4.63386 19.8468 4.29308 19.7616C3.95231 19.6764 3.68122 19.4187 3.57894 19.0826L2.90927 16.8823L0.708921 16.2126C0.372877 16.1104 0.115134 15.8393 0.0299397 15.4985C-0.0552539 15.1577 0.0445952 14.7972 0.292975 14.5488L1.5499 13.2919C1.94043 12.9014 2.57359 12.9014 2.96412 13.2919C3.35464 13.6824 3.35464 14.3156 2.96412 14.7061L2.8857 14.7845L4.00182 15.1242C4.32071 15.2213 4.57028 15.4709 4.66733 15.7897L5.00702 16.9059L5.94983 15.9631Z" fill="#B2B8BF"/>
<path d="M14.0426 15.9643C13.652 15.5738 13.0189 15.5738 12.6284 15.9643C12.2378 16.3548 12.2378 16.988 12.6284 17.3785L14.7497 19.4998C14.9981 19.7482 15.3585 19.848 15.6993 19.7628C16.0401 19.6777 16.3112 19.4199 16.4135 19.0839L17.0831 16.8835L19.2835 16.2138C19.6195 16.1116 19.8773 15.8405 19.9625 15.4997C20.0477 15.1589 19.9478 14.7984 19.6994 14.5501L18.4425 13.2931C18.052 12.9026 17.4188 12.9026 17.0283 13.2931C16.6378 13.6837 16.6378 14.3168 17.0283 14.7074L17.1067 14.7858L15.9906 15.1255C15.6717 15.2225 15.4221 15.4721 15.3251 15.791L14.9854 16.9071L14.0426 15.9643Z" fill="#B2B8BF"/>
<path fill-rule="evenodd" clip-rule="evenodd" d="M9.3515 0.238885C9.72526 -0.0796284 10.275 -0.0796284 10.6487 0.238885L12.5454 1.85519L15.0294 2.05342C15.5189 2.09248 15.9076 2.4812 15.9467 2.9707L16.1449 5.45474L17.7612 7.35138C18.0798 7.72514 18.0798 8.27486 17.7612 8.64862L16.1449 10.5453L15.9467 13.0293C15.9076 13.5188 15.5189 13.9075 15.0294 13.9466L12.5454 14.1448L10.6487 15.7611C10.275 16.0796 9.72526 16.0796 9.3515 15.7611L7.45486 14.1448L4.97083 13.9466C4.48132 13.9075 4.09261 13.5188 4.05354 13.0293L3.85532 10.5453L2.23901 8.64862C1.92049 8.27486 1.92049 7.72514 2.23901 7.35138L3.85532 5.45474L4.05354 2.9707C4.09261 2.4812 4.48132 2.09248 4.97083 2.05342L7.45486 1.85519L9.3515 0.238885ZM10.0001 2.31386L8.50571 3.58739C8.34555 3.72388 8.14641 3.80637 7.93664 3.82311L5.97942 3.97929L5.82323 5.93652C5.80649 6.14629 5.724 6.34543 5.58751 6.50559L4.31398 8L5.58751 9.49441C5.724 9.65457 5.80649 9.85371 5.82323 10.0635L5.97942 12.0207L7.93664 12.1769C8.14641 12.1936 8.34555 12.2761 8.50571 12.4126L10.0001 13.6861L11.4945 12.4126C11.6547 12.2761 11.8538 12.1936 12.0636 12.1769L14.0208 12.0207L14.177 10.0635C14.1938 9.85371 14.2762 9.65457 14.4127 9.49441L15.6863 8L14.4127 6.50559C14.2762 6.34543 14.1938 6.14629 14.177 5.93652L14.0208 3.97929L12.0636 3.82311C11.8538 3.80637 11.6547 3.72388 11.4945 3.58739L10.0001 2.31386Z" fill="#B2B8BF"/>
</svg>
