<svg width="20" height="21" viewBox="0 0 20 21" fill="none" xmlns="http://www.w3.org/2000/svg">
<path fill-rule="evenodd" clip-rule="evenodd" d="M2.49805 0.5C1.9462 0.5 1.49883 0.947715 1.49883 1.5V4.5H0.999219C0.447365 4.5 0 4.94772 0 5.5C0 6.05228 0.447365 6.5 0.999219 6.5H1.49883V7H0.999219C0.447365 7 0 7.44772 0 8C0 8.55228 0.447365 9 0.999219 9H1.49883V9.5C1.49883 10.0523 1.94619 10.5 2.49805 10.5C3.0499 10.5 3.49727 10.0523 3.49727 9.5V9H3.99688C4.54873 9 4.9961 8.55228 4.9961 8C4.9961 7.44772 4.54873 7 3.99688 7H3.49727V6.5H4.63719C5.68411 6.5 6.43329 5.9832 6.88716 5.35025C7.31342 4.75581 7.49414 4.04813 7.49414 3.5C7.49414 2.95187 7.31342 2.24419 6.88716 1.64975C6.43329 1.0168 5.68411 0.5 4.63719 0.5H2.49805ZM3.49727 2.5V4.5H4.63719C4.9484 4.5 5.12808 4.37308 5.26355 4.18417C5.42663 3.95674 5.49571 3.66443 5.49571 3.5C5.49571 3.33557 5.42663 3.04326 5.26355 2.81583C5.12808 2.62692 4.9484 2.5 4.63719 2.5H3.49727Z" fill="#107F8C"/>
<path d="M8.64174 1.5C8.64174 0.947715 9.08911 0.5 9.64096 0.5C13.7101 0.5 17.2094 2.93357 18.7681 6.42466C18.9104 6.95827 18.5935 7.50628 18.0603 7.64866C17.5271 7.79104 17.0342 7.43008 16.8804 7.10241C15.6037 4.38251 12.841 2.5 9.64096 2.5C9.08911 2.5 8.64174 2.05228 8.64174 1.5Z" fill="#107F8C"/>
<path d="M0.722445 12.0392C1.25266 11.8861 1.80652 12.1921 1.95953 12.7227C2.92192 16.0605 5.99807 18.5 9.64096 18.5C10.1928 18.5 10.6402 18.9477 10.6402 19.5C10.6402 20.0523 10.1928 20.5 9.64096 20.5C5.08407 20.5 1.24203 17.4481 0.0394301 13.2773C-0.113571 12.7466 0.192225 12.1923 0.722445 12.0392Z" fill="#107F8C"/>
<path d="M16.0031 10.1875C16.555 10.1875 17.0023 10.6352 17.0023 11.1875L17.0023 13.4097C17.0023 13.8946 17.1324 14.0515 17.1705 14.0894C17.2137 14.1324 17.3062 14.1875 17.502 14.1875C17.6869 14.1875 17.7825 14.1343 17.8302 14.0871C17.8711 14.0468 18.0016 13.8889 18.0016 13.4097V11.1875C18.0016 10.6352 18.4489 10.1875 19.0008 10.1875C19.5526 10.1875 20 10.6352 20 11.1875V15.1875C20 15.7398 19.5526 16.1875 19.0008 16.1875C18.7948 16.1875 18.6034 16.1251 18.4444 16.0183C18.1279 16.1396 17.8023 16.1875 17.502 16.1875C16.9337 16.1875 16.2767 16.0203 15.7615 15.5078C15.2413 14.9902 15.0039 14.2582 15.0039 13.4097L15.0039 11.1875C15.0039 10.6352 15.4513 10.1875 16.0031 10.1875Z" fill="#107F8C"/>
<path fill-rule="evenodd" clip-rule="evenodd" d="M11.1776 6.83638C11.0314 6.44607 10.6585 6.1875 10.242 6.1875C9.82551 6.1875 9.45268 6.44607 9.30643 6.83638L6.30877 14.8364C6.115 15.3535 6.3768 15.9299 6.89352 16.1238C7.41023 16.3177 7.9862 16.0557 8.17997 15.5386L8.83612 13.7875H11.6479L12.3041 15.5386C12.4979 16.0557 13.0738 16.3177 13.5905 16.1238C14.1073 15.9299 14.3691 15.3535 14.1753 14.8364L11.1776 6.83638ZM10.242 10.0355L10.8985 11.7875H9.58554L10.242 10.0355Z" fill="#107F8C"/>
</svg>
