<svg width="20" height="20" viewBox="0 0 20 20" fill="none" xmlns="http://www.w3.org/2000/svg">
<path d="M4.99998 0C4.4477 0 3.99999 0.4701 3.99999 1.05C3.99999 1.62989 4.4477 2.09999 4.99998 2.09999H15C15.5522 2.09999 16 1.62989 16 1.05C16 0.4701 15.5522 0 15 0H4.99998Z" fill="#107F8C"/>
<path d="M4.99998 4.19999C4.99998 3.62009 5.4477 3.14999 5.99998 3.14999H14C14.5522 3.14999 15 3.62009 15 4.19999C15 4.77988 14.5522 5.24998 14 5.24998H5.99998C5.4477 5.24998 4.99998 4.77988 4.99998 4.19999Z" fill="#107F8C"/>
<path d="M9.99997 14.175C10.5523 14.175 11 14.6451 11 15.225V16.7999C11 17.3798 10.5523 17.8499 9.99997 17.8499C9.44769 17.8499 8.99997 17.3798 8.99997 16.7999V15.225C8.99997 14.6451 9.44769 14.175 9.99997 14.175Z" fill="#107F8C"/>
<path d="M7.99998 6.99998C7.99998 6.4477 7.55226 5.99998 6.99998 5.99998C6.4477 5.99998 5.99998 6.4477 5.99998 6.99998C5.99998 9.20911 7.79084 11 9.99997 11C12.2091 11 14 9.20911 14 6.99998C14 6.4477 13.5522 5.99998 13 5.99998C12.4477 5.99998 12 6.4477 12 6.99998C12 8.10454 11.1045 8.99997 9.99997 8.99997C8.8954 8.99997 7.99998 8.10454 7.99998 6.99998Z" fill="#107F8C"/>
<path d="M14.1732 12.2082C13.736 11.8709 13.108 11.9519 12.7707 12.3892C12.4333 12.8265 12.5144 13.4545 12.9517 13.7918C14.2214 14.7713 15 16.1172 15 17.4229C15 17.6118 14.9866 17.8052 14.9595 18H5.04061C5.01353 17.8045 4.99998 17.6112 4.99998 17.4229C4.99998 16.1527 5.81208 14.7709 7.05832 13.7839C7.49127 13.4411 7.5643 12.8121 7.22142 12.3792C6.87854 11.9462 6.2496 11.8732 5.81665 12.2161C4.26517 13.4448 2.99999 15.3499 2.99999 17.4229C2.99999 17.8319 3.04232 18.245 3.12309 18.6514C3.2931 19.5035 4.06985 20 4.82734 20H15.1726C15.9285 20 16.7071 19.5055 16.8768 18.6518C16.9583 18.244 16.9999 17.8307 16.9999 17.4229C16.9999 15.3283 15.7826 13.4496 14.1732 12.2082Z" fill="#107F8C"/>
</svg>
