<svg width="32" height="32" viewBox="0 0 32 32" fill="none" xmlns="http://www.w3.org/2000/svg">
<path d="M7 4C5.34315 4 4 5.34314 4 7V25C4 26.6569 5.34315 28 7 28H14C14.5523 28 15 27.5523 15 27C15 26.4477 14.5523 26 14 26H7C6.44772 26 6 25.5523 6 25V14H23C23.5523 14 24 13.5523 24 13C24 12.4477 23.5523 12 23 12H6V7C6 6.44772 6.44771 6 7 6H25C25.5523 6 26 6.44771 26 7V14C26 14.5523 26.4477 15 27 15C27.5523 15 28 14.5523 28 14V7C28 5.34315 26.6569 4 25 4H7Z" fill="#B2B8BF"/>
<path d="M10 9C10 9.55228 9.55228 10 9 10C8.44772 10 8 9.55228 8 9C8 8.44772 8.44772 8 9 8C9.55228 8 10 8.44772 10 9Z" fill="#B2B8BF"/>
<path d="M12.5 10C13.0523 10 13.5 9.55228 13.5 9C13.5 8.44772 13.0523 8 12.5 8C11.9477 8 11.5 8.44772 11.5 9C11.5 9.55228 11.9477 10 12.5 10Z" fill="#B2B8BF"/>
<path d="M17 9C17 9.55228 16.5523 10 16 10C15.4477 10 15 9.55228 15 9C15 8.44772 15.4477 8 16 8C16.5523 8 17 8.44772 17 9Z" fill="#B2B8BF"/>
<path fill-rule="evenodd" clip-rule="evenodd" d="M16 19C15.6639 19 15.3502 19.1689 15.1652 19.4495C14.9801 19.7301 14.9484 20.085 15.0809 20.3939L18.0809 27.3939C18.2384 27.7616 18.6 28 19 28H25C25.4 28 25.7616 27.7616 25.9191 27.3939L28.9191 20.3939C29.0516 20.085 29.0199 19.7301 28.8348 19.4495C28.6498 19.1689 28.3361 19 28 19H26.535L24.8319 16.4454C24.5256 15.9859 23.9047 15.8617 23.4452 16.1681C22.9857 16.4744 22.8615 17.0953 23.1678 17.5548L24.1313 19H19.8687L20.8322 17.5548C21.1385 17.0953 21.0143 16.4744 20.5548 16.1681C20.0953 15.8617 19.4744 15.9859 19.1681 16.4454L17.465 19H16ZM25.9802 21H18.0198C18.0061 21.0003 17.9923 21.0003 17.9785 21H17.5165L19.6594 26H24.3406L26.4835 21H26.0215C26.0077 21.0003 25.9939 21.0003 25.9802 21Z" fill="#B2B8BF"/>
</svg>
