<svg width="32" height="32" viewBox="0 0 32 32" fill="none" xmlns="http://www.w3.org/2000/svg">
<path fill-rule="evenodd" clip-rule="evenodd" d="M4 10C4 6.68629 6.68629 4 10 4H22C25.3137 4 28 6.68629 28 10V22C28 25.3137 25.3137 28 22 28H10C6.68629 28 4 25.3137 4 22V10ZM10 6H22C24.2091 6 26 7.79086 26 10V22C26 24.2091 24.2091 26 22 26H10C7.79086 26 6 24.2091 6 22V10C6 7.79086 7.79086 6 10 6Z" fill="#107F8C"/>
<path fill-rule="evenodd" clip-rule="evenodd" d="M23.5 13.4375C23.5 12.8852 23.0523 12.4375 22.5 12.4375C21.9477 12.4375 21.5 12.8852 21.5 13.4375V15.6866C21.1152 15.5261 20.693 15.4375 20.25 15.4375C18.4551 15.4375 17 16.8926 17 18.6875C17 20.4824 18.4551 21.9375 20.25 21.9375C20.7845 21.9375 21.2888 21.8085 21.7336 21.5799C21.917 21.7985 22.1923 21.9375 22.5 21.9375C23.0523 21.9375 23.5 21.4898 23.5 20.9375V18.6875V13.4375ZM21.5 18.6875C21.5 17.9971 20.9404 17.4375 20.25 17.4375C19.5596 17.4375 19 17.9971 19 18.6875C19 19.3779 19.5596 19.9375 20.25 19.9375C20.9404 19.9375 21.5 19.3779 21.5 18.6875Z" fill="#107F8C"/>
<path fill-rule="evenodd" clip-rule="evenodd" d="M10.9114 10.5879C10.7544 10.2412 10.4054 10 10 10C9.44772 10 9 10.4477 9 11V14V20.9375C9 21.4898 9.44772 21.9375 10 21.9375C10.5523 21.9375 11 21.4898 11 20.9375V17.4649C11.5883 17.8052 12.2714 18 13 18C15.2091 18 17 16.2091 17 14C17 11.7909 15.2091 10 13 10C12.2346 10 11.5193 10.215 10.9114 10.5879ZM11 14C11 15.1046 11.8954 16 13 16C14.1046 16 15 15.1046 15 14C15 12.8954 14.1046 12 13 12C11.8954 12 11 12.8954 11 14Z" fill="#107F8C"/>
</svg>
