<svg width="20" height="20" viewBox="0 0 20 20" fill="none" xmlns="http://www.w3.org/2000/svg">
<path d="M5.99971 0C5.44745 0 4.99976 0.447693 4.99976 0.999951C4.99976 1.55221 5.44745 1.9999 5.99971 1.9999H15.585L0.292879 17.292C-0.0976263 17.6825 -0.0976263 18.3157 0.292879 18.7062C0.683384 19.0967 1.31652 19.0967 1.70702 18.7062L16.9992 3.41404V8.49958C16.9992 9.05184 17.4469 9.49954 17.9991 9.49954C18.5514 9.49954 18.9991 9.05184 18.9991 8.49958V0.999951C18.9991 0.447693 18.5514 0 17.9991 0H5.99971Z" fill="#107F8C"/>
<path d="M15.6586 12.0727C14.0423 11.7085 12.4369 12.7235 12.0727 14.3398C11.7085 15.956 12.7236 17.5615 14.3398 17.9256C15.9561 18.2898 17.5615 17.2748 17.9257 15.6585C18.0471 15.1198 18.5822 14.7814 19.121 14.9028C19.6597 15.0242 19.9981 15.5593 19.8767 16.0981C19.2698 18.7919 16.594 20.4836 13.9003 19.8766C11.2065 19.2697 9.51478 16.594 10.1217 13.9002C10.7286 11.2064 13.4044 9.51473 16.0981 10.1217C16.6369 10.243 16.9752 10.7782 16.8538 11.3169C16.7325 11.8557 16.1973 12.194 15.6586 12.0727Z" fill="#107F8C"/>
<path d="M18.6393 13.7676C19.0635 13.414 19.1209 12.7835 18.7673 12.3592C18.4138 11.935 17.7832 11.8776 17.359 12.2312L15.0606 14.1465L14.7064 13.7922C14.3159 13.4017 13.6827 13.4017 13.2922 13.7922C12.9017 14.1827 12.9017 14.8159 13.2922 15.2064L14.2922 16.2063C14.6579 16.572 15.2421 16.5985 15.6394 16.2674L18.6393 13.7676Z" fill="#107F8C"/>
</svg>
