<svg width="21" height="20" viewBox="0 0 21 20" fill="none" xmlns="http://www.w3.org/2000/svg">
<path d="M4 2C3.44772 2 3 2.44772 3 3V17C3 17.5523 3.44772 18 4 18H14C14.5523 18 15 17.5523 15 17V14C15 13.4477 15.4477 13 16 13C16.5523 13 17 13.4477 17 14V17C17 18.6569 15.6569 20 14 20H4C2.34315 20 1 18.6569 1 17V3C1 1.34315 2.34315 0 4 0H8C8.55228 0 9 0.447715 9 1C9 1.55228 8.55228 2 8 2H4Z" fill="#21A19A"/>
<path d="M5 6C5 5.44772 5.44772 5 6 5H7C7.55228 5 8 5.44772 8 6C8 6.55228 7.55228 7 7 7H6C5.44772 7 5 6.55228 5 6Z" fill="#21A19A"/>
<path d="M5 10C5 9.44771 5.44772 9 6 9H7C7.55228 9 8 9.44771 8 10C8 10.5523 7.55228 11 7 11H6C5.44772 11 5 10.5523 5 10Z" fill="#21A19A"/>
<path d="M5 14C5 13.4477 5.44772 13 6 13H10C10.5523 13 11 13.4477 11 14C11 14.5523 10.5523 15 10 15H6C5.44772 15 5 14.5523 5 14Z" fill="#21A19A"/>
<path d="M16.0658 3.19528C16.6181 3.19528 17.0658 2.74713 17.0658 2.19432C17.0658 1.6415 16.6181 1.19336 16.0658 1.19336C15.5135 1.19336 15.0658 1.6415 15.0658 2.19432C15.0658 2.74713 15.5135 3.19528 16.0658 3.19528Z" fill="#21A19A"/>
<path d="M13.5179 3.49582C13.9907 3.21032 14.1425 2.59562 13.857 2.12285C13.5715 1.65009 12.9568 1.49828 12.484 1.78378C11.0369 2.65766 10.0658 4.24811 10.0658 6.06635C10.0658 8.82777 12.3044 11.0663 15.0658 11.0663C15.6181 11.0663 16.0658 10.6186 16.0658 10.0663C16.0658 9.51406 15.6181 9.06635 15.0658 9.06635C13.4089 9.06635 12.0658 7.7232 12.0658 6.06635C12.0658 4.97729 12.6455 4.02267 13.5179 3.49582Z" fill="#21A19A"/>
<path d="M18.1375 3.31608C18.6259 3.05806 19.2309 3.24474 19.4889 3.73305C19.8575 4.43067 20.0658 5.22566 20.0658 6.06635C20.0658 7.27119 19.6384 8.37887 18.9279 9.24211C18.5769 9.66854 17.9467 9.7297 17.5203 9.37873C17.0939 9.02776 17.0327 8.39756 17.3837 7.97113C17.8104 7.4527 18.0658 6.79069 18.0658 6.06635C18.0658 5.55912 17.9407 5.08406 17.7206 4.66743C17.4626 4.17912 17.6492 3.5741 18.1375 3.31608Z" fill="#21A19A"/>
</svg>
