<svg width="20" height="20" viewBox="0 0 20 20" fill="none" xmlns="http://www.w3.org/2000/svg">
<path fill-rule="evenodd" clip-rule="evenodd" d="M5 20H7.99C8.55 20 8.99 19.55 8.99 19C8.99 18.44 8.55 18 7.99 18H5C4.91 18 4.83 17.99 4.75 17.97C4.7 17.95 4.65 17.94 4.61 17.92C4.55 17.89 4.5 17.87 4.46 17.84C4.4 17.8 4.34 17.75 4.29 17.7C4.24 17.65 4.19 17.59 4.15 17.53C4.12 17.49 4.1 17.44 4.07 17.38C4.05 17.34 4.04 17.29 4.02 17.24C4 17.16 4 17.08 4 17V3C4 2.91 4 2.83 4.02 2.75C4.04 2.7 4.05 2.65 4.07 2.61C4.1 2.55 4.12 2.5 4.15 2.46C4.19 2.4 4.24 2.34 4.29 2.29C4.34 2.24 4.4 2.19 4.46 2.15C4.5 2.12 4.55 2.1 4.61 2.07C4.65 2.05 4.7 2.04 4.75 2.02C4.83 2 4.91 2 5 2H13C13.08 2 13.16 2 13.24 2.02C13.29 2.04 13.34 2.05 13.38 2.07C13.44 2.1 13.49 2.12 13.53 2.15C13.59 2.19 13.65 2.24 13.7 2.29C13.75 2.34 13.8 2.4 13.84 2.46C13.87 2.5 13.89 2.55 13.92 2.61C13.94 2.65 13.95 2.7 13.97 2.75C13.99 2.83 14 2.91 14 3V7.97C14 8.53 14.43 8.97 15 8.97C15.56 8.97 16 8.53 16 7.97V3C16 2.78 15.97 2.56 15.93 2.36C15.89 2.18 15.83 2 15.76 1.83C15.69 1.66 15.6 1.49 15.5 1.34C15.39 1.17 15.26 1.02 15.12 0.87C14.97 0.73 14.82 0.6 14.65 0.49C14.5 0.39 14.34 0.3 14.16 0.23C13.99 0.16 13.81 0.1 13.63 0.06C13.43 0.02 13.21 0 13 0H5C4.78 0 4.56 0.02 4.36 0.06C4.18 0.1 4 0.16 3.83 0.23C3.65 0.3 3.49 0.39 3.34 0.49C3.17 0.6 3.02 0.73 2.87 0.87C2.73 1.02 2.6 1.17 2.49 1.34C2.39 1.49 2.3 1.66 2.23 1.83C2.16 2 2.1 2.18 2.06 2.36C2.02 2.56 2 2.78 2 3V17C2 17.21 2.02 17.43 2.06 17.63C2.1 17.81 2.16 17.99 2.23 18.16C2.3 18.33 2.39 18.5 2.49 18.65C2.6 18.82 2.73 18.97 2.87 19.12C3.02 19.26 3.17 19.39 3.34 19.5C3.49 19.6 3.65 19.69 3.83 19.76C4 19.83 4.18 19.89 4.36 19.93C4.56 19.97 4.78 20 5 20ZM12.85 11.51C13.14 11.04 12.98 10.42 12.51 10.14C12.04 9.85 11.42 10.01 11.14 10.48L9.64 12.98L9 13C8.66 13 8.34 13.17 8.16 13.45C7.97 13.74 7.94 14.1 8.08 14.41L10.33 19.41C10.49 19.76 10.85 20 11.25 20H15.75C16.14 20 16.5 19.76 16.66 19.41L18.91 14.41C19.05 14.1 19.02 13.74 18.83 13.45C18.65 13.17 18.33 13 18 13H17.36L15.85 10.48C15.57 10.01 14.95 9.85 14.48 10.14C14.01 10.42 13.85 11.04 14.14 11.51L15.03 13H11.96L12.85 11.51ZM10.54 15L11.89 18H15.1L16.45 15H10.54Z" fill="#107F8C"/>
</svg>
