<svg width="32" height="32" viewBox="0 0 32 32" fill="none" xmlns="http://www.w3.org/2000/svg">
<path d="M19.8073 12.2868C19.7309 11.6682 19.4354 10.7762 18.734 10.1081C17.9714 9.38179 16.8535 9.04016 15.4361 9.40301L15.4102 9.40962L15.3848 9.4176C14.7227 9.62529 13.6151 10.2816 13.1022 11.5648C12.8103 12.2336 12.5926 13.5902 13.0178 15.272H12.3652C11.813 15.272 11.3652 15.7197 11.3652 16.272C11.3652 16.8243 11.813 17.272 12.3652 17.272H13.5949C13.6431 17.6239 13.6546 18.0102 13.5997 18.3915C13.5097 19.017 13.249 19.6091 12.6668 20.0596C12.4171 20.1219 12.1964 20.1901 12.0178 20.255C11.4987 20.4437 11.2309 21.0174 11.4196 21.5365C11.5905 22.0069 12.0778 22.271 12.554 22.1759C12.7742 22.2195 13.0103 22.1895 13.2232 22.0744C13.31 22.0275 13.394 21.9789 13.4753 21.9288C13.6762 21.8905 13.8942 21.8595 14.1171 21.8438C14.7136 21.8017 15.1931 21.8791 15.4897 22.055C16.2842 22.5262 17.1646 22.5978 17.8703 22.5402C18.5791 22.4824 19.2143 22.2868 19.6142 22.1066C20.1177 21.8797 20.3419 21.2875 20.115 20.784C19.888 20.2805 19.2959 20.0563 18.7924 20.2832C18.5855 20.3764 18.1723 20.5089 17.7077 20.5468C17.24 20.585 16.822 20.5198 16.5098 20.3348C16.1106 20.098 15.6739 19.9636 15.2428 19.8945C15.4133 19.4942 15.521 19.0819 15.5793 18.6765C15.6489 18.1936 15.6501 17.7171 15.6079 17.272H16.3211C16.8734 17.272 17.3211 16.8243 17.3211 16.272C17.3211 15.7197 16.8734 15.272 16.3211 15.272H15.1015C14.5696 13.6988 14.8341 12.5894 14.9365 12.362L14.9466 12.3396L14.9556 12.3167C15.1802 11.7443 15.6983 11.424 15.9616 11.3331C16.7569 11.1371 17.1409 11.3528 17.3546 11.5563C17.632 11.8206 17.7854 12.2331 17.8223 12.5319C17.89 13.08 18.3892 13.4695 18.9373 13.4018C19.4854 13.3342 19.8749 12.835 19.8073 12.2868Z" fill="#107F8C"/>
<path fill-rule="evenodd" clip-rule="evenodd" d="M3.78125 9.90625C3.78125 6.59254 6.46754 3.90625 9.78125 3.90625H21.7812C25.095 3.90625 27.7812 6.59254 27.7812 9.90625V21.9062C27.7812 25.22 25.095 27.9062 21.7812 27.9062H9.78125C6.46754 27.9062 3.78125 25.22 3.78125 21.9062V9.90625ZM9.78125 5.90625H21.7812C23.9904 5.90625 25.7812 7.69711 25.7812 9.90625V21.9062C25.7812 24.1154 23.9904 25.9062 21.7812 25.9062H9.78125C7.57211 25.9062 5.78125 24.1154 5.78125 21.9062V9.90625C5.78125 7.69711 7.57211 5.90625 9.78125 5.90625Z" fill="#107F8C"/>
</svg>
