<svg width="32" height="32" viewBox="0 0 32 32" fill="none" xmlns="http://www.w3.org/2000/svg">
<path d="M14.4297 5.28125C14.4297 4.72897 13.982 4.28125 13.4297 4.28125C12.8775 4.28125 12.4297 4.72897 12.4297 5.28125L12.4297 14.4688C12.4297 15.021 12.8775 15.4688 13.4297 15.4688C13.982 15.4688 14.4297 15.021 14.4297 14.4688V5.28125Z" fill="#B2B8BF"/>
<path d="M10.2501 6.19531C10.8023 6.19531 11.2501 6.64303 11.2501 7.19531L11.2501 14.4688C11.2501 15.021 10.8023 15.4688 10.2501 15.4688C9.69778 15.4688 9.25006 15.021 9.25006 14.4688L9.25006 7.19531C9.25006 6.64303 9.69778 6.19531 10.2501 6.19531Z" fill="#B2B8BF"/>
<path d="M8.07037 10.0664C8.07037 9.51412 7.62266 9.06641 7.07037 9.06641C6.51809 9.06641 6.07037 9.51412 6.07037 10.0664V14.2773C6.07037 14.8296 6.51809 15.2773 7.07037 15.2773C7.62266 15.2773 8.07037 14.8296 8.07037 14.2773V10.0664Z" fill="#B2B8BF"/>
<path d="M20.2501 22.7188C21.0785 22.7188 21.7501 22.0472 21.7501 21.2188C21.7501 20.3903 21.0785 19.7188 20.2501 19.7188C19.4216 19.7188 18.7501 20.3903 18.7501 21.2188C18.7501 22.0472 19.4216 22.7188 20.2501 22.7188Z" fill="#B2B8BF"/>
<path d="M26.7501 26.2188C26.7501 27.0472 26.0785 27.7188 25.2501 27.7188C24.4216 27.7188 23.7501 27.0472 23.7501 26.2188C23.7501 25.3903 24.4216 24.7188 25.2501 24.7188C26.0785 24.7188 26.7501 25.3903 26.7501 26.2188Z" fill="#B2B8BF"/>
<path d="M26.4572 21.4259C26.8477 21.0353 26.8477 20.4022 26.4572 20.0116C26.0666 19.6211 25.4335 19.6211 25.043 20.0116L19.043 26.0116C18.6524 26.4022 18.6524 27.0353 19.043 27.4259C19.4335 27.8164 20.0666 27.8164 20.4572 27.4259L26.4572 21.4259Z" fill="#B2B8BF"/>
<path d="M17.2 6.8687C17.2 6.20596 17.7373 5.6687 18.4 5.6687C23.0392 5.6687 26.8 9.42951 26.8 14.0687C26.8 14.7314 26.2628 15.2687 25.6 15.2687C24.9373 15.2687 24.4 14.7314 24.4 14.0687C24.4 10.755 21.7137 8.0687 18.4 8.0687C17.7373 8.0687 17.2 7.53144 17.2 6.8687Z" fill="#B2B8BF"/>
<path d="M14.8 26.0687C14.8 26.7314 14.2628 27.2687 13.6 27.2687C8.96082 27.2687 5.20001 23.5079 5.20001 18.8687C5.20001 18.206 5.73727 17.6687 6.40001 17.6687C7.06275 17.6687 7.60001 18.206 7.60001 18.8687C7.60001 22.1824 10.2863 24.8687 13.6 24.8687C14.2628 24.8687 14.8 25.406 14.8 26.0687Z" fill="#B2B8BF"/>
</svg>
