<svg width="20" height="20" viewBox="0 0 20 20" fill="none" xmlns="http://www.w3.org/2000/svg">
<path fill-rule="evenodd" clip-rule="evenodd" d="M8.01126 2.75026C8.54175 2.28277 9.23653 2 10.0001 2C10.7637 2 11.4585 2.28277 11.989 2.75026C12.4033 3.1154 13.0352 3.0755 13.4004 2.66115C13.7655 2.24679 13.7256 1.61488 13.3113 1.24974C12.4293 0.472506 11.2686 0 10.0001 0C8.7316 0 7.57096 0.472506 6.68896 1.24974C6.27461 1.61488 6.23471 2.24679 6.59985 2.66115C6.96499 3.0755 7.5969 3.1154 8.01126 2.75026ZM11 9.5C11 8.67157 11.6716 8 12.5 8C13.3284 8 14 8.67157 14 9.5C14 10.3284 13.3284 11 12.5 11C11.6716 11 11 10.3284 11 9.5ZM6 14.5C6 13.6716 6.67157 13 7.5 13C8.32843 13 9 13.6716 9 14.5C9 15.3284 8.32843 16 7.5 16C6.67157 16 6 15.3284 6 14.5ZM6 9.5C6 8.67157 6.67157 8 7.5 8C8.32843 8 9 8.67157 9 9.5C9 10.3284 8.32843 11 7.5 11C6.67157 11 6 10.3284 6 9.5ZM4 4C2.89543 4 2 4.89543 2 6V18C2 19.1046 2.89543 20 4 20H16C17.1046 20 18 19.1046 18 18V6C18 4.89543 17.1046 4 16 4H4ZM4 6L16 6V18H4V6ZM12.5 13C11.6716 13 11 13.6716 11 14.5C11 15.3284 11.6716 16 12.5 16C13.3284 16 14 15.3284 14 14.5C14 13.6716 13.3284 13 12.5 13Z" fill="#107F8C"/>
</svg>
