<svg width="32" height="32" viewBox="0 0 32 32" fill="none" xmlns="http://www.w3.org/2000/svg">
<path fill-rule="evenodd" clip-rule="evenodd" d="M8.09495 7.99903C9.69821 5.30775 12.6384 3.5 16 3.5C20.2149 3.5 23.7616 6.32941 24.8507 10.2029C27.8497 10.7597 30.125 13.3647 30.125 16.5312C30.125 17.0835 29.6773 17.5312 29.125 17.5312C28.5727 17.5312 28.125 17.0835 28.125 16.5312C28.125 14.1794 26.2997 12.2652 23.97 12.1039C23.5192 12.0727 23.1453 11.743 23.0579 11.2996C22.4047 7.98555 19.494 5.5 16 5.5C13.227 5.5 10.8155 7.07276 9.61348 9.38068C9.45871 9.67783 9.16543 9.87773 8.83228 9.91315C6.04433 10.2095 3.875 12.5734 3.875 15.4375C3.875 18.089 5.73942 20.3151 8.22869 20.868C8.76784 20.9878 9.10782 21.5219 8.98807 22.0611C8.86832 22.6002 8.33418 22.9402 7.79504 22.8205C4.41137 22.0689 1.875 19.0476 1.875 15.4375C1.875 11.724 4.55549 8.62952 8.09495 7.99903Z" fill="#21A19A"/>
<path d="M23.4059 18.0859C23.9106 18.3103 24.1379 18.9012 23.9136 19.4059L19.9136 28.4059C19.6893 28.9106 19.0983 29.1379 18.5936 28.9136C18.0889 28.6893 17.8616 28.0983 18.0859 27.5936L22.0859 18.5936C22.3103 18.0889 22.9012 17.8616 23.4059 18.0859Z" fill="#21A19A"/>
<path d="M25.2296 19.3924C24.894 19.831 24.9775 20.4586 25.4161 20.7942L28.2956 22.9976L25.3946 25.2041C24.955 25.5385 24.8697 26.1658 25.2041 26.6054C25.5384 27.045 26.1658 27.1303 26.6054 26.796L30.5497 23.796C30.7979 23.6072 30.9439 23.3134 30.9443 23.0015C30.9448 22.6896 30.7997 22.3954 30.552 22.2059L26.6315 19.2059C26.1929 18.8703 25.5652 18.9537 25.2296 19.3924Z" fill="#21A19A"/>
<path d="M16.5282 20.7942C16.9669 20.4586 17.0503 19.831 16.7147 19.3924C16.3791 18.9537 15.7515 18.8703 15.3129 19.2059L11.3923 22.2059C11.145 22.3951 11 22.6887 11 23.0001C11 23.3114 11.145 23.605 11.3923 23.7942L15.3129 26.7942C15.7515 27.1298 16.3791 27.0464 16.7147 26.6077C17.0503 26.1691 16.9669 25.5415 16.5282 25.2059L13.6456 23.0001L16.5282 20.7942Z" fill="#21A19A"/>
</svg>
