<svg width="20" height="20" viewBox="0 0 20 20" fill="none" xmlns="http://www.w3.org/2000/svg">
<path d="M15.3939 7.22363C15.7867 6.90363 16.3658 6.92698 16.7318 7.29297L19.7064 10.2676C20.0969 10.6581 20.0969 11.2911 19.7064 11.6816C19.3159 12.0721 18.6828 12.0721 18.2923 11.6816L17.0003 10.3896V13C17.0003 16.8659 13.8662 19.9998 10.0003 20H4.00034C3.44806 20 3.00034 19.5523 3.00034 19C3.00034 18.4477 3.44806 18 4.00034 18H10.0003C12.7616 17.9998 15.0003 15.7613 15.0003 13V10.4385L13.7572 11.6816C13.3667 12.0721 12.7337 12.072 12.3431 11.6816C11.9526 11.2911 11.9526 10.6581 12.3431 10.2676L15.3177 7.29297L15.3939 7.22363Z" fill="#107F8C"/>
<path d="M16.0003 0C16.5525 0.000190651 17.0003 0.447833 17.0003 1C17.0003 1.55217 16.5525 1.99981 16.0003 2H10.0003C7.23892 2 5.00034 4.23858 5.00034 7V9.56055L6.24351 8.31836C6.63405 7.92801 7.2671 7.92789 7.65757 8.31836C8.04786 8.70884 8.04786 9.34194 7.65757 9.73242L4.68296 12.707L4.60679 12.7764C4.21402 13.0966 3.63399 13.0731 3.26792 12.707L0.293311 9.73242C-0.0970787 9.34192 -0.0970787 8.70886 0.293311 8.31836C0.683806 7.92792 1.31686 7.92795 1.70737 8.31836L3.00034 9.61133V7C3.00034 3.13401 6.13435 0 10.0003 0H16.0003Z" fill="#107F8C"/>
</svg>
