<svg width="20" height="20" viewBox="0 0 20 20" fill="none" xmlns="http://www.w3.org/2000/svg">
<path fill-rule="evenodd" clip-rule="evenodd" d="M8 9C8 8.44772 8.44772 8 9 8H11.318C12.6556 8 13.6106 8.49663 14.1902 9.29875C14.7277 10.0425 14.84 10.9096 14.84 11.5V11.6674C14.84 12.3229 14.6562 13.1538 14.0841 13.8398C13.4832 14.5601 12.5542 15 11.318 15H10V16H11C11.5523 16 12 16.4477 12 17C12 17.5523 11.5523 18 11 18H10V19C10 19.5523 9.55228 20 9 20C8.44772 20 8 19.5523 8 19V18H7C6.44772 18 6 17.5523 6 17C6 16.4477 6.44772 16 7 16H8V15H7C6.44772 15 6 14.5523 6 14C6 13.4477 6.44772 13 7 13H8V9ZM10 13V10H11.318C12.1156 10 12.4216 10.266 12.5692 10.4702C12.7589 10.7327 12.84 11.1156 12.84 11.5V11.6674C12.84 11.9866 12.7456 12.322 12.5482 12.5587C12.3795 12.761 12.0475 13 11.318 13H10Z" fill="#21A19A"/>
<path fill-rule="evenodd" clip-rule="evenodd" d="M6.77457 3.04965C7.80413 1.22997 9.75747 0 12 0C15.3136 0 17.9999 2.68618 18 5.99979C19.213 6.91094 20 8.36307 20 10C20 11.2674 19.5272 12.4267 18.7497 13.3076C18.5592 13.5234 18.3503 13.7227 18.1255 13.9029C17.6946 14.2484 17.0652 14.1791 16.7198 13.7482C16.3743 13.3172 16.4436 12.6879 16.8745 12.3424C17.0098 12.234 17.1356 12.114 17.2503 11.9841C17.7176 11.4546 18 10.7615 18 10C18 8.88262 17.3896 7.90655 16.4793 7.38926C16.1343 7.19323 15.9378 6.81177 15.9786 6.41708C15.9927 6.28028 16 6.14116 16 6C16 3.79086 14.2091 2 12 2C10.3056 2 8.85488 3.05393 8.27234 4.5456C8.0857 5.02352 7.56765 5.28265 7.07328 5.14537C6.73287 5.05083 6.37318 5 6 5C3.79086 5 2 6.79086 2 9C2 10.308 2.62676 11.4693 3.60058 12.2008C4.04217 12.5325 4.13126 13.1594 3.79957 13.6009C3.46788 14.0425 2.84101 14.1316 2.39942 13.7999C0.944342 12.707 0 10.9636 0 9C0 5.68629 2.68629 3 6 3C6.26214 3 6.5207 3.01687 6.77457 3.04965Z" fill="#21A19A"/>
</svg>
