<svg width="32" height="32" viewBox="0 0 32 32" fill="none" xmlns="http://www.w3.org/2000/svg">
<path d="M10.7207 23.8743C11.0665 23.4439 11.6954 23.3753 12.126 23.7209C13.4424 24.778 14.6893 25.7804 16.0449 26.6614C16.5079 26.9622 16.6395 27.5821 16.3389 28.0451C16.038 28.5082 15.4182 28.6399 14.9551 28.3391C13.5005 27.3939 12.1756 26.3247 10.874 25.2795C10.4436 24.9337 10.375 24.3048 10.7207 23.8743Z" fill="#21A19A"/>
<path fill-rule="evenodd" clip-rule="evenodd" d="M23.4268 21.0793C23.9297 20.7121 24.6135 20.7083 25.1201 21.0676L25.2256 21.1506L25.2266 21.1516C26.3286 22.0991 26.9618 23.4764 26.9619 24.9289C26.9619 25.2217 26.9353 25.5183 26.8828 25.8108C26.759 26.5029 26.1563 27.0051 25.4551 27.0051H18.5068C17.8041 27.0051 17.2029 26.5014 17.0791 25.8108C17.0272 25.5199 17 25.2226 17 24.9289C17.0001 23.5004 17.6153 22.1391 18.6865 21.1936L18.6885 21.1926C19.1976 20.7451 19.9414 20.7133 20.4844 21.0979L20.5908 21.1799L20.5918 21.1819C20.9683 21.5057 21.4499 21.6837 21.9463 21.6838C22.4525 21.6838 22.9409 21.4988 23.3213 21.1633L23.4268 21.0793ZM24.2354 22.9797C23.5631 23.4358 22.7669 23.6838 21.9463 23.6838C21.145 23.6837 20.3653 23.4464 19.7021 23.009C19.2519 23.5436 19.0001 24.2233 19 24.9289C19 24.9541 19.0032 24.9796 19.0039 25.0051H24.959C24.9597 24.9797 24.9619 24.9541 24.9619 24.9289C24.9619 24.2085 24.7016 23.5184 24.2354 22.9797Z" fill="#21A19A"/>
<path fill-rule="evenodd" clip-rule="evenodd" d="M12.4268 16.5793C12.9297 16.2121 13.6135 16.2083 14.1201 16.5676L14.2256 16.6506L14.2266 16.6516C15.3286 17.5991 15.9618 18.9764 15.9619 20.4289C15.9619 20.7217 15.9353 21.0183 15.8828 21.3108C15.759 22.0029 15.1563 22.5051 14.4551 22.5051H7.50684C6.8041 22.5051 6.2029 22.0014 6.0791 21.3108C6.02724 21.0199 6.00001 20.7226 6 20.4289C6.00007 19.0004 6.61533 17.6391 7.68652 16.6936L7.68848 16.6926C8.19765 16.2451 8.94139 16.2133 9.48438 16.5979L9.59082 16.6799L9.5918 16.6819C9.96827 17.0057 10.4499 17.1837 10.9463 17.1838C11.4525 17.1838 11.9409 16.9988 12.3213 16.6633L12.4268 16.5793ZM13.2354 18.4797C12.5631 18.9358 11.7669 19.1838 10.9463 19.1838C10.145 19.1837 9.36526 18.9464 8.70215 18.509C8.25192 19.0436 8.00006 19.7233 8 20.4289C8 20.4541 8.00319 20.4796 8.00391 20.5051H13.959C13.9597 20.4797 13.9619 20.4541 13.9619 20.4289C13.9619 19.7085 13.7016 19.0184 13.2354 18.4797Z" fill="#21A19A"/>
<path fill-rule="evenodd" clip-rule="evenodd" d="M21.9854 14.0002C23.6941 14.0004 25.079 15.3862 25.0791 17.095C25.0789 18.8036 23.694 20.1885 21.9854 20.1887C20.2765 20.1887 18.8908 18.8037 18.8906 17.095C18.8908 15.3861 20.2765 14.0002 21.9854 14.0002ZM21.9854 16.0002C21.381 16.0002 20.8908 16.4907 20.8906 17.095C20.8908 17.6992 21.3811 18.1887 21.9854 18.1887C22.5894 18.1885 23.0789 17.699 23.0791 17.095C23.079 16.4908 22.5895 16.0004 21.9854 16.0002Z" fill="#21A19A"/>
<path fill-rule="evenodd" clip-rule="evenodd" d="M10.9854 9.50023C12.6941 9.50043 14.079 10.8862 14.0791 12.595C14.0789 14.3036 12.694 15.6885 10.9854 15.6887C9.27652 15.6887 7.89083 14.3037 7.89062 12.595C7.89075 10.8861 9.27647 9.50023 10.9854 9.50023ZM10.9854 11.5002C10.381 11.5002 9.89075 11.9907 9.89062 12.595C9.89083 13.1992 10.3811 13.6887 10.9854 13.6887C11.5894 13.6885 12.0789 13.199 12.0791 12.595C12.079 11.9908 11.5895 11.5004 10.9854 11.5002Z" fill="#21A19A"/>
<path d="M15.5459 4.00999C15.6865 3.9899 15.8304 4.00017 15.9678 4.04027L25.6553 6.8723C26.0816 6.99691 26.3749 7.38812 26.375 7.83226V13.3323C26.375 13.8845 25.9273 14.3323 25.375 14.3323C24.8227 14.3323 24.375 13.8845 24.375 13.3323V8.5803L15.6875 6.04124L7 8.5803V10.0002C7 10.5525 6.55228 11.0002 6 11.0002C5.44772 11.0002 5 10.5525 5 10.0002V7.83226C5.0001 7.38812 5.29341 6.99691 5.71973 6.8723L15.4072 4.04027L15.5459 4.00999Z" fill="#21A19A"/>
</svg>
