<svg width="32" height="32" viewBox="0 0 32 32" fill="none" xmlns="http://www.w3.org/2000/svg">
<path fill-rule="evenodd" clip-rule="evenodd" d="M25.8703 12.1926C26.0457 11.8827 26.0431 11.5029 25.8634 11.1954L21.3634 3.49543C21.1841 3.18861 20.8554 3 20.5 3H11.5C11.1446 3 10.8159 3.18861 10.6366 3.49543L6.13663 11.1954C5.95695 11.5029 5.95433 11.8827 6.12974 12.1926L9.12974 17.4926C9.4018 17.9732 10.012 18.1423 10.4926 17.8703C10.9732 17.5982 11.1423 16.988 10.8703 16.5074L8.1536 11.708L12.0738 5L19.9262 5L23.8464 11.708L21.1297 16.5074C20.8577 16.988 21.0268 17.5982 21.5074 17.8703C21.988 18.1423 22.5982 17.9732 22.8703 17.4926L25.8703 12.1926ZM17 16C17 15.4477 16.5523 15 16 15C15.4477 15 15 15.4477 15 16V20.5C15 21.0523 15.4477 21.5 16 21.5C17.9348 21.5 19 22.8078 19 24.3077C19 25.8457 17.831 27 16.5 27C15.169 27 14 25.8457 14 24.3077C14 23.7554 13.5523 23.3077 13 23.3077C12.4477 23.3077 12 23.7554 12 24.3077C12 26.8481 13.965 29 16.5 29C19.035 29 21 26.8481 21 24.3077C21 22.0222 19.48 20.0112 17 19.5836V16Z" fill="#21A19A"/>
</svg>
