<svg width="32" height="32" viewBox="0 0 32 32" fill="none" xmlns="http://www.w3.org/2000/svg">
<path d="M15.9663 3.034C15.414 3.034 14.9663 3.48171 14.9663 4.034C14.9663 4.58628 15.414 5.034 15.9663 5.034C22.012 5.034 26.9325 9.95414 26.9325 16C26.9325 16.5523 27.3802 17 27.9325 17C28.4848 17 28.9325 16.5523 28.9325 16C28.9325 8.8495 23.1165 3.034 15.9663 3.034Z" fill="#107F8C"/>
<path d="M5 16C5 15.4477 4.55228 15 4 15C3.44772 15 3 15.4477 3 16C3 23.1509 8.81593 28.9665 15.9662 28.9665C16.5185 28.9665 16.9662 28.5188 16.9662 27.9665C16.9662 27.4142 16.5185 26.9665 15.9662 26.9665C9.92048 26.9665 5 22.0464 5 16Z" fill="#107F8C"/>
<path fill-rule="evenodd" clip-rule="evenodd" d="M6 10V11H5C4.44772 11 4 11.4477 4 12C4 12.5523 4.44772 13 5 13H6V14C6 14.5523 6.44772 15 7 15C7.55228 15 8 14.5523 8 14V13H8.98835C9.54064 13 9.98835 12.5523 9.98835 12C9.98835 11.4477 9.54064 11 8.98835 11H8V10H9.83829C10.9936 10 11.8412 9.51269 12.3645 8.78084C12.8517 8.09941 13 7.29133 13 6.66739V6.5C13 5.93088 12.9085 5.08912 12.4556 4.35788C11.9565 3.55213 11.0898 3 9.83829 3H7.23063C7.19163 3 7.15315 3.00223 7.11531 3.00658C7.07747 3.00223 7.039 3 7 3C6.44772 3 6 3.44771 6 4V8H5C4.44772 8 4 8.44771 4 9C4 9.55228 4.44772 10 5 10H6ZM8 5V8H9.83829C10.3679 8 10.6011 7.8084 10.7375 7.61764C10.9099 7.37646 11 7.01824 11 6.66739V6.5C11 6.09434 10.9257 5.6861 10.7553 5.41103C10.6311 5.21048 10.417 5 9.83829 5H8Z" fill="#107F8C"/>
<path fill-rule="evenodd" clip-rule="evenodd" d="M17.4325 12.8074C17.8575 12.8074 18.236 13.076 18.3764 13.4771L21.8764 23.4771C22.0588 23.9984 21.7842 24.5688 21.2629 24.7513C20.7416 24.9337 20.1711 24.6591 19.9887 24.1378L19.173 21.8074H15.692L14.8764 24.1378C14.6939 24.6591 14.1235 24.9337 13.6022 24.7513C13.0809 24.5688 12.8062 23.9984 12.9887 23.4771L16.4887 13.4771C16.629 13.076 17.0076 12.8074 17.4325 12.8074ZM18.473 19.8074L17.4325 16.8345L16.392 19.8074H18.473Z" fill="#107F8C"/>
<path d="M24.9325 19.3074C24.9325 18.7551 24.4848 18.3074 23.9325 18.3074C23.3802 18.3074 22.9325 18.7551 22.9325 19.3074L22.9325 21.8074C22.9325 22.7914 23.2651 23.5972 23.9075 24.1361C24.5187 24.6487 25.2775 24.8074 25.9325 24.8074C26.3544 24.8074 26.8217 24.7396 27.265 24.5521C27.442 24.7108 27.676 24.8074 27.9325 24.8074C28.4848 24.8074 28.9325 24.3597 28.9325 23.8074V19.3074C28.9325 18.7551 28.4848 18.3074 27.9325 18.3074C27.3802 18.3074 26.9325 18.7551 26.9325 19.3074V21.8074C26.9325 22.3169 26.7743 22.5125 26.6673 22.6017C26.5282 22.7176 26.2839 22.8074 25.9325 22.8074C25.568 22.8074 25.3268 22.7161 25.1928 22.6038C25.0902 22.5177 24.9325 22.3235 24.9325 21.8074L24.9325 19.3074Z" fill="#107F8C"/>
</svg>
