<svg width="20" height="20" viewBox="0 0 20 20" fill="none" xmlns="http://www.w3.org/2000/svg">
<path fill-rule="evenodd" clip-rule="evenodd" d="M14.4945 0.983277C13.5991 -0.083776 11.9879 -0.307534 10.8856 0.617436L2.09863 7.99059C1.67555 8.34559 1.62037 8.97635 1.97537 9.39942L2.61822 10.1655L0.964922 11.5528C0.222825 12.1755 0.0419351 13.3178 0.711225 14.1154L2.25391 15.9539C2.9232 16.7516 4.07955 16.7718 4.82165 16.1491L6.47495 14.7618L7.11767 15.5278C7.47267 15.9509 8.10343 16.006 8.5265 15.651L17.3135 8.27788C18.4158 7.35291 18.4752 5.72734 17.5799 4.66029L14.4945 0.983277ZM12.1712 2.14952C12.363 1.98861 12.7218 1.98207 12.9624 2.26885L16.0478 5.94587C16.2884 6.23265 16.2197 6.58487 16.0279 6.74579L8.00697 13.4762L4.15025 8.87989L12.1712 2.14952ZM5.18937 13.2297L3.9038 11.6976L2.37187 12.9831L3.65745 14.5152L5.18937 13.2297Z" fill="#B2B8BF"/>
<path fill-rule="evenodd" clip-rule="evenodd" d="M19.753 13.3422C20.1163 13.7582 20.0736 14.3899 19.6576 14.7532L13.9328 19.7532C13.5592 20.0795 13.0029 20.0826 12.6257 19.7606L10.3506 17.8183C9.93052 17.4598 9.8807 16.8286 10.2393 16.4085C10.5979 15.9885 11.2291 15.9387 11.6491 16.2972L13.2675 17.6788L18.342 13.2468C18.758 12.8835 19.3897 12.9262 19.753 13.3422Z" fill="#B2B8BF"/>
</svg>
