<svg width="32" height="32" viewBox="0 0 32 32" fill="none" xmlns="http://www.w3.org/2000/svg">
<path fill-rule="evenodd" clip-rule="evenodd" d="M21 15.1494C19.3431 15.1494 18 16.4925 18 18.1494C18 19.8062 19.3431 21.1494 21 21.1494C22.6569 21.1494 24 19.8062 24 18.1494C24 16.4925 22.6569 15.1494 21 15.1494ZM20 18.1494C20 17.5971 20.4477 17.1494 21 17.1494C21.5523 17.1494 22 17.5971 22 18.1494C22 18.7016 21.5523 19.1494 21 19.1494C20.4477 19.1494 20 18.7016 20 18.1494Z" fill="#21A19A"/>
<path fill-rule="evenodd" clip-rule="evenodd" d="M20.5 6.50094C20.5 6.18304 20.2072 5.94586 19.8962 6.01182L6.7925 8.79141C6.54974 8.8429 6.34331 8.97994 6.20204 9.16692C6.29974 9.15532 6.39917 9.14935 6.5 9.14935L24.5 9.14935C26.433 9.14935 28 10.7164 28 12.6494V23.6494C28 25.5823 26.433 27.1494 24.5 27.1494H6.5C5.11929 27.1494 4 26.0301 4 24.6494V9.76964C4 8.3527 4.99138 7.12896 6.37749 6.83494L19.4812 4.05535C21.0361 3.72553 22.5 4.91145 22.5 6.50094V6.64938C22.5 7.20167 22.0523 7.64938 21.5 7.64938C20.9477 7.64938 20.5 7.20167 20.5 6.64938V6.50094ZM6 11.6494C6 11.3732 6.22386 11.1494 6.5 11.1494L24.5 11.1494C25.3284 11.1494 26 11.8209 26 12.6494V23.6494C26 24.4778 25.3284 25.1494 24.5 25.1494L6.5 25.1494C6.22386 25.1494 6 24.9255 6 24.6494L6 11.6494Z" fill="#21A19A"/>
</svg>
