<svg width="32" height="32" viewBox="0 0 32 32" fill="none" xmlns="http://www.w3.org/2000/svg">
<path d="M16.2249 4.45117C15.488 3.84961 14.4285 3.84961 13.6919 4.45117L3.3247 11.9336C2.89745 12.2852 2.83446 12.9141 3.18407 13.3398C3.53368 13.7695 4.16381 13.832 4.5913 13.4805L14.9583 6L25.3252 13.4805C25.7527 13.832 26.3828 13.7695 26.7324 13.3398C27.0823 12.9141 27.0193 12.2852 26.5918 11.9336L21.9868 8.60938C21.9954 8.55664 22 8.5 22 8.44531V5.05273C22 4.5 21.5522 4 21 4C20.4478 4 20 4.5 20 5.05273V7.17578L16.2249 4.45117Z" fill="#B2B8BF"/>
<path d="M7.00097 14C7.55321 14 8.00097 14.4473 8.00097 15L7.99999 21C7.99999 21.5527 8.44774 22 8.99999 22H13C13 22 14 22 14 23C14 24 13 24 13 24H8.99999C7.34325 24 5.99999 22.6562 5.99999 21L6.00097 15C6.00097 14.4473 6.44872 14 7.00097 14Z" fill="#B2B8BF"/>
<path fill-rule="evenodd" clip-rule="evenodd" d="M22.3714 15.0715C22.133 14.9762 21.867 14.9762 21.6286 15.0715L16.6286 17.0715C16.249 17.2234 16 17.5911 16 18C16 20.432 16.0923 22.3503 16.8684 24.0663C17.6569 25.8101 19.0858 27.2154 21.4348 28.8249C21.7754 29.0584 22.2246 29.0584 22.5652 28.8249C24.921 27.2107 26.3506 25.8052 27.1375 24.0619C27.9116 22.3467 28 20.4302 28 18C28 17.5911 27.751 17.2234 27.3714 17.0715L22.3714 15.0715ZM18.6907 23.2422C18.1686 22.0877 18.0258 20.7414 18.0034 18.6757L22 17.077L25.9967 18.6757C25.9748 20.7425 25.8351 22.0859 25.3146 23.2391C24.8015 24.3757 23.8658 25.4326 22 26.7781C20.1414 25.4374 19.2054 24.3804 18.6907 23.2422Z" fill="#B2B8BF"/>
</svg>
