<svg width="32" height="32" viewBox="0 0 32 32" fill="none" xmlns="http://www.w3.org/2000/svg">
<path d="M8 21C8 20.4477 8.44772 20 9 20H12C12.5523 20 13 20.4477 13 21C13 21.5523 12.5523 22 12 22H9C8.44772 22 8 21.5523 8 21Z" fill="#107F8C"/>
<path d="M9 24C8.44772 24 8 24.4477 8 25C8 25.5523 8.44772 26 9 26H12C12.5523 26 13 25.5523 13 25C13 24.4477 12.5523 24 12 24H9Z" fill="#107F8C"/>
<path fill-rule="evenodd" clip-rule="evenodd" d="M10.9989 12.4495C12.138 11.4296 13.862 11.4296 15.0011 12.4495L21.0011 17.8215C21.6367 18.3906 22 19.2034 22 20.0566V27.0001C22 28.6569 20.6569 30.0001 19 30.0001H7C5.34315 30.0001 4 28.6569 4 27.0001V20.0566C4 19.2034 4.36325 18.3906 4.99888 17.8215L10.9989 12.4495ZM13.667 13.9395C13.2873 13.5996 12.7127 13.5996 12.333 13.9395L6.33296 19.3115C6.12108 19.5012 6 19.7722 6 20.0566V27.0001C6 27.5524 6.44772 28.0001 7 28.0001H19C19.5523 28.0001 20 27.5524 20 27.0001V20.0566C20 19.7722 19.8789 19.5012 19.667 19.3115L13.667 13.9395Z" fill="#107F8C"/>
<path d="M17 5C17 4.44772 17.4477 4 18 4H27C27.5523 4 28 4.44772 28 5V29C28 29.5523 28.4477 30 29 30C29.5523 30 30 29.5523 30 29V5C30 3.34315 28.6569 2 27 2H18C16.3431 2 15 3.34315 15 5V9.74074C15 10.293 15.4477 10.7407 16 10.7407C16.5523 10.7407 17 10.293 17 9.74074V5Z" fill="#107F8C"/>
<path d="M22 6C21.4477 6 21 6.44772 21 7C21 7.55228 21.4477 8 22 8H25C25.5523 8 26 7.55228 26 7C26 6.44772 25.5523 6 25 6H22Z" fill="#107F8C"/>
<path d="M22 10C21.4477 10 21 10.4477 21 11C21 11.5523 21.4477 12 22 12H25C25.5523 12 26 11.5523 26 11C26 10.4477 25.5523 10 25 10H22Z" fill="#107F8C"/>
<path d="M21 15C21 14.4477 21.4477 14 22 14H25C25.5523 14 26 14.4477 26 15C26 15.5523 25.5523 16 25 16H22C21.4477 16 21 15.5523 21 15Z" fill="#107F8C"/>
</svg>
