<svg width="20" height="20" viewBox="0 0 20 20" fill="none" xmlns="http://www.w3.org/2000/svg">
<path fill-rule="evenodd" clip-rule="evenodd" d="M15 5C12.2386 5 10 7.23858 10 10C10 11.6358 10.7856 13.0882 12 14.0004V19C12 19.3466 12.1795 19.6684 12.4743 19.8507C12.7691 20.0329 13.1372 20.0494 13.4472 19.8944L15 19.118L16.5528 19.8944C16.8628 20.0494 17.2309 20.0329 17.5257 19.8507C17.8205 19.6684 18 19.3466 18 19V14.0004C19.2144 13.0882 20 11.6358 20 10C20 7.23858 17.7614 5 15 5ZM12 10C12 8.34315 13.3431 7 15 7C16.6569 7 18 8.34315 18 10C18 11.6569 16.6569 13 15 13C13.3431 13 12 11.6569 12 10ZM16 14.9C15.6769 14.9656 15.3425 15 15 15C14.6575 15 14.3231 14.9656 14 14.9V17.382L14.5528 17.1056C14.8343 16.9648 15.1657 16.9648 15.4472 17.1056L16 17.382V14.9Z" fill="#21A19A"/>
<path d="M7.34438 0.0611605C7.12205 -0.0203868 6.878 -0.0203868 6.65567 0.0611605L0.655673 2.26189C0.137166 2.45207 -0.128994 3.02658 0.0611883 3.54508C0.25137 4.06359 0.825876 4.32975 1.34438 4.13957L7.00003 2.06514L12.6557 4.13957C13.1742 4.32975 13.7487 4.06359 13.9389 3.54508C14.129 3.02658 13.8629 2.45207 13.3444 2.26189L7.34438 0.0611605Z" fill="#21A19A"/>
<path d="M1 12C0.447715 12 3.69619e-09 12.4477 3.69619e-09 13C3.69619e-09 13.5523 0.447715 14 1 14H7C7.55228 14 8 13.5523 8 13C8 12.4477 7.55228 12 7 12H1Z" fill="#21A19A"/>
<path d="M7.03027 5C7.58256 5 8.03027 5.44772 8.03027 6V9.5C8.03027 10.0523 7.58256 10.5 7.03027 10.5C6.47799 10.5 6.03027 10.0523 6.03027 9.5V6C6.03027 5.44772 6.47799 5 7.03027 5Z" fill="#21A19A"/>
<path d="M4.03027 6C4.03027 5.44772 3.58256 5 3.03027 5C2.47799 5 2.03027 5.44772 2.03027 6V9.5C2.03027 10.0523 2.47799 10.5 3.03027 10.5C3.58256 10.5 4.03027 10.0523 4.03027 9.5V6Z" fill="#21A19A"/>
</svg>
