<svg width="32" height="32" viewBox="0 0 32 32" fill="none" xmlns="http://www.w3.org/2000/svg">
<path d="M22.2929 4.29289C22.6834 3.90237 23.3166 3.90237 23.7071 4.29289L27.7071 8.29289C28.0976 8.68342 28.0976 9.31658 27.7071 9.70711L23.7071 13.7071C23.3166 14.0976 22.6834 14.0976 22.2929 13.7071C21.9024 13.3166 21.9024 12.6834 22.2929 12.2929L24.5858 10H17.627C17.0747 10 16.627 9.55228 16.627 9C16.627 8.44772 17.0747 8 17.627 8H24.5858L22.2929 5.70711C21.9024 5.31658 21.9024 4.68342 22.2929 4.29289Z" fill="#107F8C"/>
<path d="M7 7.81818C7 7.35681 7.36762 7 7.8 7H14C14.5523 7 15 6.55228 15 6C15 5.44772 14.5523 5 14 5H7.8C6.24415 5 5 6.27124 5 7.81818V26.9873C4.99878 27.0776 5.00974 27.1684 5.03341 27.2573C5.10273 27.5184 5.27505 27.7376 5.50424 27.8687C5.63716 27.9447 5.78921 27.9911 5.95138 27.9988C6.04837 28.0036 6.14646 27.9944 6.24241 27.9704C6.36047 27.941 6.47022 27.8906 6.5675 27.8235L8.72267 26.3867C8.89061 26.2747 9.10942 26.2747 9.27736 26.3867L10.6133 27.2773C11.453 27.8371 12.547 27.8371 13.3868 27.2773L14.7227 26.3867C14.8906 26.2747 15.1094 26.2747 15.2774 26.3867L16.6133 27.2773C17.453 27.8371 18.547 27.8371 19.3868 27.2773L20.7227 26.3867C20.8906 26.2747 21.1094 26.2747 21.2774 26.3867L23.4317 27.8229C23.5316 27.8921 23.6448 27.9435 23.7666 27.9726C23.86 27.995 23.9553 28.0035 24.0496 27.9988C24.2071 27.9911 24.3551 27.947 24.4852 27.8746C24.5984 27.8119 24.7008 27.7265 24.7849 27.6197C24.861 27.5235 24.9197 27.413 24.9565 27.2928C24.9873 27.192 25.0016 27.0882 25 26.9853V20.5C25 19.9477 24.5523 19.5 24 19.5C23.4477 19.5 23 19.9477 23 20.5V25.1314L22.3868 24.7226C21.547 24.1628 20.453 24.1628 19.6133 24.7226L18.2774 25.6132C18.1094 25.7252 17.8906 25.7252 17.7227 25.6132L16.3868 24.7226C15.547 24.1628 14.453 24.1628 13.6133 24.7226L12.2774 25.6132C12.1094 25.7252 11.8906 25.7252 11.7227 25.6132L10.3868 24.7226C9.54702 24.1628 8.45301 24.1628 7.61326 24.7226L7 25.1315V7.81818Z" fill="#107F8C"/>
<path d="M10 11C10 10.4477 10.4477 10 11 10H14C14.5523 10 15 10.4477 15 11C15 11.5523 14.5523 12 14 12H11C10.4477 12 10 11.5523 10 11Z" fill="#107F8C"/>
<path d="M11 15C10.4477 15 10 15.4477 10 16C10 16.5523 10.4477 17 11 17H14C14.5523 17 15 16.5523 15 16C15 15.4477 14.5523 15 14 15H11Z" fill="#107F8C"/>
<path d="M11 20C10.4477 20 10 20.4477 10 21C10 21.5523 10.4477 22 11 22H16C16.5523 22 17 21.5523 17 21C17 20.4477 16.5523 20 16 20H11Z" fill="#107F8C"/>
</svg>
