<svg width="20" height="20" viewBox="0 0 20 20" fill="none" xmlns="http://www.w3.org/2000/svg">
<path fill-rule="evenodd" clip-rule="evenodd" d="M9.71439 0.0378955C9.89239 -0.0125534 10.0809 -0.0126332 10.2589 0.0376651L18.2719 2.30137C18.7026 2.42306 19 2.81613 19 3.26371V8.43367C19 10.8667 17.9478 13.2078 16.3894 15.1763C14.8276 17.1492 12.709 18.8124 10.4465 19.9011C10.3112 19.9662 10.163 20 10.0129 20H9.98714C9.83701 20 9.68882 19.9662 9.55354 19.9011C7.31866 18.8257 5.22472 17.1901 3.66888 15.2495C2.11648 13.3133 1.05308 11.012 1.00192 8.6138L1.00169 8.60316L0.999939 8.43367L0.999996 3.26371C0.999996 2.81644 1.297 2.42357 1.72732 2.3016L9.71439 0.0378955ZM9.98751 2.03926L3 4.01968V8.42833L3.00158 8.57627C3.04216 10.4102 3.86561 12.2976 5.22929 13.9985C6.49371 15.5756 8.18258 16.9397 10 17.8879C11.8421 16.9269 13.5517 15.5387 14.8213 13.9349C16.1905 12.2054 17 10.2892 17 8.43367V4.02034L9.98751 2.03926Z" fill="#107F8C"/>
<path fill-rule="evenodd" clip-rule="evenodd" d="M15.1983 6.40922C15.5936 6.79489 15.6015 7.42801 15.2158 7.82332L10.2158 12.9483C9.83911 13.3344 9.22408 13.3522 8.82574 12.9885L5.95074 10.3635C5.54288 9.9911 5.51413 9.35859 5.88652 8.95073C6.25891 8.54288 6.89142 8.51413 7.29928 8.88651L9.45982 10.8592L13.7842 6.42668C14.1699 6.03136 14.803 6.02354 15.1983 6.40922Z" fill="#107F8C"/>
</svg>
