<svg width="20" height="20" viewBox="0 0 20 20" fill="none" xmlns="http://www.w3.org/2000/svg">
<path d="M3 3C3 2.44772 3.44772 2 4 2H9C9.55228 2 10 1.55228 10 1C10 0.447715 9.55228 0 9 0H4C2.34315 0 1 1.34315 1 3V17C1 18.6569 2.34315 20 4 20H14C15.6569 20 17 18.6569 17 17V12C17 11.4477 16.5523 11 16 11C15.4477 11 15 11.4477 15 12V17C15 17.5523 14.5523 18 14 18H4C3.44772 18 3 17.5523 3 17V3Z" fill="#21A19A"/>
<path d="M5 10C5 9.44771 5.44772 9 6 9H8C8.55228 9 9 9.44771 9 10C9 10.5523 8.55228 11 8 11H6C5.44772 11 5 10.5523 5 10Z" fill="#21A19A"/>
<path d="M6 13C5.44772 13 5 13.4477 5 14C5 14.5523 5.44772 15 6 15H12C12.5523 15 13 14.5523 13 14C13 13.4477 12.5523 13 12 13H6Z" fill="#21A19A"/>
<path d="M19.9241 0.617216C19.8757 0.500141 19.804 0.3904 19.7092 0.295017C19.7078 0.293599 19.7064 0.292185 19.705 0.290776C19.5242 0.111056 19.2751 0 19 0H14C13.4477 0 13 0.447715 13 1C13 1.55228 13.4477 2 14 2H16.5858L12.2929 6.29289C11.9024 6.68342 11.9024 7.31658 12.2929 7.70711C12.6834 8.09763 13.3166 8.09763 13.7071 7.70711L18 3.41421V6C18 6.55228 18.4477 7 19 7C19.5523 7 20 6.55228 20 6V1C20 0.86441 19.973 0.735123 19.9241 0.617216Z" fill="#21A19A"/>
</svg>
