<svg width="20" height="20" viewBox="0 0 20 20" fill="none" xmlns="http://www.w3.org/2000/svg">
<g clip-path="url(#clip0_49590_366)">
<path fill-rule="evenodd" clip-rule="evenodd" d="M9.71436 0.0380859C9.89233 -0.0126953 10.0811 -0.0126953 10.259 0.0380859L18.272 2.30176C18.7026 2.42285 19 2.81641 19 3.26367V8.43359C19 10.8672 17.9478 13.208 16.3894 15.1768C14.8276 17.1494 12.709 18.8125 10.4465 19.9014C10.3113 19.9658 10.1631 20 10.0129 20H9.9873C9.83716 20 9.68896 19.9658 9.55371 19.9014C7.3186 18.8262 5.22485 17.1904 3.66895 15.25C2.11646 13.3135 1.05322 11.0117 1.00195 8.61426L1.00171 8.60352L1 8.43359V3.26367C1 2.81641 1.29712 2.42383 1.72729 2.30176L9.71436 0.0380859ZM9.98755 2.03906L3 4.01953V8.42871L3.00171 8.57617C3.04224 10.4102 3.86572 12.2979 5.22925 13.998C6.49365 15.5752 8.18262 16.9395 10 17.8877C11.842 16.9268 13.5518 15.5391 14.8213 13.9346C16.1907 12.2051 17 10.2891 17 8.43359V4.02051L9.98755 2.03906ZM9.64917 4.06348C9.87549 3.97852 10.125 3.97852 10.3513 4.06348L14.3513 5.56348C14.8684 5.75781 15.1306 6.33398 14.9365 6.85156C14.7427 7.36816 14.1663 7.62988 13.6492 7.43652L10.0002 6.06836L6.35132 7.43652C5.83423 7.62988 5.25781 7.36816 5.06396 6.85156C4.87012 6.33398 5.13208 5.75781 5.64917 5.56348L9.64917 4.06348ZM7.00024 8C7.55249 8 8.00024 8.44727 8.00024 9V12C8.00024 12.5527 7.55249 13 7.00024 13C6.448 13 6.00024 12.5527 6.00024 12V9C6.00024 8.44727 6.448 8 7.00024 8ZM10.0002 8C10.5525 8 11.0002 8.44727 11.0002 9V12C11.0002 12.5527 10.5525 13 10.0002 13C9.448 13 9.00024 12.5527 9.00024 12V9C9.00024 8.44727 9.448 8 10.0002 8ZM13.0002 8C13.5525 8 14.0002 8.44727 14.0002 9V12C14.0002 12.5527 13.5525 13 13.0002 13C12.448 13 12.0002 12.5527 12.0002 12V9C12.0002 8.44727 12.448 8 13.0002 8Z" fill="#B2B8BF"/>
</g>
<defs>
<clipPath id="clip0_49590_366">
<rect width="20" height="20" fill="white"/>
</clipPath>
</defs>
</svg>
