<svg width="20" height="20" viewBox="0 0 20 20" fill="none" xmlns="http://www.w3.org/2000/svg">
<path fill-rule="evenodd" clip-rule="evenodd" d="M9 0C7.34315 0 6 1.34315 6 3V5H5C3.34315 5 2 6.34315 2 8V18H1C0.447715 18 0 18.4477 0 19C0 19.5523 0.447715 20 1 20L19 20C19.5523 20 20 19.5523 20 19C20 18.4477 19.5523 18 19 18L8 18V3C8 2.44772 8.44771 2 9 2H15C15.5523 2 16 2.44772 16 3V5C16 5.55228 16.4477 6 17 6C17.5523 6 18 5.55228 18 5V3C18 1.34315 16.6569 0 15 0H9ZM6 7V18H4V8C4 7.44772 4.44772 7 5 7H6Z" fill="#107F8C"/>
<path fill-rule="evenodd" clip-rule="evenodd" d="M13.5 7C12.9477 7 12.5 7.44772 12.5 8V11H12C11.4477 11 11 11.4477 11 12C11 12.5523 11.4477 13 12 13H12.5V13.5H12C11.4477 13.5 11 13.9477 11 14.5C11 15.0523 11.4477 15.5 12 15.5H12.5V16C12.5 16.5523 12.9477 17 13.5 17C14.0523 17 14.5 16.5523 14.5 16V15.5H15C15.5523 15.5 16 15.0523 16 14.5C16 13.9477 15.5523 13.5 15 13.5H14.5V13H15.6564C16.7463 13 17.5046 12.4661 17.9501 11.7954C18.3628 11.174 18.5 10.4578 18.5 9.94985V9.82749C18.5 9.36821 18.4137 8.66923 17.974 8.06082C17.4922 7.39405 16.7068 7 15.6564 7H13.5ZM14.5 11V9H15.6564C15.9274 9 16.0877 9.0481 16.1775 9.09031C16.2629 9.13048 16.3145 9.17902 16.353 9.23225C16.4449 9.35944 16.5 9.57421 16.5 9.82749V9.94985C16.5 10.1544 16.4339 10.4633 16.2841 10.6888C16.167 10.8651 16.0035 11 15.6564 11H14.5Z" fill="#107F8C"/>
</svg>
