<svg width="20" height="20" viewBox="0 0 20 20" fill="none" xmlns="http://www.w3.org/2000/svg">
<path fill-rule="evenodd" clip-rule="evenodd" d="M11.9997 1.99995C10.3053 1.99995 8.85466 3.05386 8.27214 4.54549L7.94352 5.38695L7.07311 5.14524C6.7327 5.05071 6.37302 4.99988 5.99985 4.99988C3.79077 4.99988 1.99995 6.7907 1.99995 8.99978C1.99995 9.73 2.19471 10.4117 2.53445 10.999C2.81099 11.4771 2.64763 12.0888 2.16958 12.3653C1.69153 12.6418 1.07982 12.4785 0.803285 12.0004C0.292198 11.1169 0 10.091 0 8.99978C0 5.68615 2.68623 2.99993 5.99985 2.99993C6.26199 2.99993 6.52054 3.0168 6.7744 3.04957C7.80394 1.22994 9.75723 0 11.9997 0C15.3133 0 17.9994 2.68611 17.9996 5.99964C19.2125 6.91076 19.9995 8.36287 19.9995 9.99976C19.9995 10.552 19.5518 10.9997 18.9995 10.9997C18.4473 10.9997 17.9996 10.552 17.9996 9.99976C17.9996 8.8824 17.3892 7.90635 16.4789 7.38908L15.9111 7.06647L15.9782 6.41692C15.9923 6.28013 15.9996 6.14101 15.9996 5.99985C15.9996 3.79077 14.2088 1.99995 11.9997 1.99995Z" fill="#B2B8BF"/>
<path d="M12.816 12.0513C13.3399 12.2259 13.6231 12.7922 13.4484 13.3162L11.4485 19.316C11.2738 19.84 10.7075 20.1231 10.1836 19.9485C9.65968 19.7738 9.37652 19.2075 9.55117 18.6836L11.5511 12.6837C11.7258 12.1598 12.2921 11.8767 12.816 12.0513Z" fill="#B2B8BF"/>
<path d="M7.73975 13.3273C7.36826 12.9186 6.73582 12.8885 6.32717 13.26L3.32725 15.9872C3.10722 16.1872 2.98763 16.4748 3.00093 16.7718C3.01423 17.0689 3.15904 17.3446 3.39606 17.5242L6.39599 19.7969C6.8362 20.1304 7.46341 20.0438 7.7969 19.6036C8.1304 19.1634 8.04388 18.5362 7.60367 18.2027L5.56348 16.6571L7.67249 14.7398C8.08113 14.3683 8.11125 13.7359 7.73975 13.3273Z" fill="#B2B8BF"/>
<path d="M16.6724 13.26C16.2637 12.8885 15.6313 12.9186 15.2598 13.3273C14.8883 13.7359 14.9184 14.3683 15.3271 14.7398L17.4361 16.6571L15.3959 18.2027C14.9557 18.5362 14.8692 19.1634 15.2026 19.6036C15.5361 20.0438 16.1634 20.1304 16.6036 19.7969L19.6035 17.5242C19.8405 17.3446 19.9853 17.0689 19.9986 16.7718C20.0119 16.4748 19.8923 16.1872 19.6723 15.9872L16.6724 13.26Z" fill="#B2B8BF"/>
</svg>
