<svg width="32" height="32" viewBox="0 0 32 32" fill="none" xmlns="http://www.w3.org/2000/svg">
<path d="M19.6615 12.2932C17.6542 10.2859 14.4861 10.569 12.5904 12.4646C10.6378 14.4173 10.6378 17.5831 12.5904 19.5357C14.4867 21.432 17.7004 21.7138 19.7071 19.7072C20.0976 19.3166 20.0976 18.6835 19.7071 18.293C19.3165 17.9024 18.6834 17.9024 18.2928 18.293C17.1753 19.4105 15.2325 19.3494 14.0046 18.1215C12.833 16.9499 12.833 15.0504 14.0046 13.8789C15.2331 12.6503 17.1303 12.5904 18.2473 13.7074C18.6378 14.0979 19.271 14.0979 19.6615 13.7074C20.052 13.3169 20.052 12.6837 19.6615 12.2932Z" fill="#107F8C"/>
<path fill-rule="evenodd" clip-rule="evenodd" d="M18.1213 4.70729C16.9498 3.53572 15.0503 3.53572 13.8787 4.70729L4.70705 13.8789C3.53548 15.0505 3.53548 16.95 4.70705 18.1216L13.8371 27.2516C15.0086 28.4231 16.9081 28.4231 18.0797 27.2516L27.2513 18.0799C28.4229 16.9084 28.4229 15.0089 27.2513 13.8373L18.1213 4.70729ZM15.2929 6.12151C15.6834 5.73098 16.3166 5.73098 16.7071 6.12151L25.8371 15.2515C26.2276 15.642 26.2276 16.2752 25.8371 16.6657L16.6655 25.8374C16.275 26.2279 15.6418 26.2279 15.2513 25.8374L6.12126 16.7074C5.73074 16.3168 5.73074 15.6837 6.12126 15.2931L15.2929 6.12151Z" fill="#107F8C"/>
</svg>
