<svg width="32" height="32" viewBox="0 0 32 32" fill="none" xmlns="http://www.w3.org/2000/svg">
<path fill-rule="evenodd" clip-rule="evenodd" d="M5.98814 8C5.98814 7.44772 6.43585 7 6.98814 7H14.9845C17.403 7 19.4209 8.71718 19.8844 10.9995H23.4955C25.9812 10.9995 27.998 13.0113 28.0042 15.497L28.0153 19.9997C28.0195 21.6594 26.6751 23.0071 25.0154 23.0071H23.8257C23.4113 24.1677 22.3024 24.9983 20.9995 24.9983C19.6934 24.9983 18.5822 24.1636 18.1703 22.9985H12.8292C12.4174 24.1636 11.3062 24.9983 10 24.9983C8.69384 24.9983 7.58264 24.1636 7.17076 22.9985H6C4.89543 22.9985 4 22.103 4 20.9985V17.9781C4 17.4258 4.44772 16.9781 5 16.9781C5.55228 16.9781 6 17.4258 6 17.9781V20.4985C6 20.7746 6.22386 20.9985 6.5 20.9985H7.17065C7.58244 19.8332 8.69372 18.9983 10 18.9983C11.3063 18.9983 12.4176 19.8332 12.8294 20.9985H17.4977C17.7741 20.9985 17.9981 20.7741 17.9977 20.4977L17.9845 11.9954C17.982 10.3403 16.6396 9 14.9845 9H6.98814C6.43585 9 5.98814 8.55228 5.98814 8ZM23.8319 21.0071H25.0154C25.5686 21.0071 26.0167 20.5579 26.0154 20.0046L26.0079 16.9995H19.9923L19.9956 19.1704C20.3095 19.0589 20.6474 18.9983 20.9995 18.9983C22.309 18.9983 23.4226 19.8373 23.8319 21.0071ZM25.9526 14.9995C25.7174 13.8576 24.7064 12.9995 23.4955 12.9995H19.9861L19.9892 14.9995H25.9526ZM19.9998 22.0206C20.0116 22.5626 20.4547 22.9983 20.9995 22.9983C21.5518 22.9983 21.9995 22.5506 21.9995 21.9983C21.9995 21.446 21.5518 20.9983 20.9995 20.9983C20.4573 20.9983 20.0158 21.4299 20 21.9682L20 21.9969L19.9998 22.0206ZM10 20.9983C9.44772 20.9983 9 21.446 9 21.9983C9 22.5506 9.44772 22.9983 10 22.9983C10.5523 22.9983 11 22.5506 11 21.9983C11 21.446 10.5523 20.9983 10 20.9983ZM7.99152 15.9854C7.99152 15.4331 8.43923 14.9854 8.99152 14.9854L12 14.9854C12.5523 14.9854 13 15.4331 13 15.9854C13 16.5376 12.5523 16.9854 12 16.9854H8.99152C8.43923 16.9854 7.99152 16.5376 7.99152 15.9854ZM4 11.9744C4 11.4221 4.44772 10.9744 5 10.9744H10.0855C10.6377 10.9744 11.0855 11.4221 11.0855 11.9744C11.0855 12.5266 10.6377 12.9744 10.0855 12.9744H5C4.44772 12.9744 4 12.5266 4 11.9744Z" fill="#B2B8BF"/>
</svg>
