<svg width="32" height="32" viewBox="0 0 32 32" fill="none" xmlns="http://www.w3.org/2000/svg">
<path d="M7 7.81818C7 7.35681 7.36762 7 7.8 7H14C14.5523 7 15 6.55228 15 6C15 5.44772 14.5523 5 14 5H7.8C6.24415 5 5 6.27124 5 7.81818V24.1818C5 25.7288 6.24415 27 7.8 27H22.2C23.7558 27 25 25.7288 25 24.1818V20.5C25 19.9477 24.5523 19.5 24 19.5C23.4477 19.5 23 19.9477 23 20.5V24.1818C23 24.6432 22.6324 25 22.2 25H7.8C7.36762 25 7 24.6432 7 24.1818V7.81818Z" fill="#107F8C"/>
<path d="M11 10C10.4477 10 10 10.4477 10 11C10 11.5523 10.4477 12 11 12H14C14.5523 12 15 11.5523 15 11C15 10.4477 14.5523 10 14 10H11Z" fill="#107F8C"/>
<path d="M10 16C10 15.4477 10.4477 15 11 15H14C14.5523 15 15 15.4477 15 16C15 16.5523 14.5523 17 14 17H11C10.4477 17 10 16.5523 10 16Z" fill="#107F8C"/>
<path d="M11 20C10.4477 20 10 20.4477 10 21C10 21.5523 10.4477 22 11 22H16C16.5523 22 17 21.5523 17 21C17 20.4477 16.5523 20 16 20H11Z" fill="#107F8C"/>
<path d="M24 5C24.5523 5 25 5.44772 25 6V9C25 9.55228 24.5523 10 24 10C23.4477 10 23 9.55228 23 9V6C23 5.44772 23.4477 5 24 5Z" fill="#107F8C"/>
<path d="M23 12C23 12.5533 23.4467 13 24 13C24.5533 13 25 12.5533 25 12C25 11.4467 24.5533 11 24 11C23.4467 11 23 11.4467 23 12Z" fill="#107F8C"/>
<path fill-rule="evenodd" clip-rule="evenodd" d="M17 8.99988C17 5.13917 20.1394 2 24 2C27.8606 2 31 5.13917 31 8.99988C31 12.8608 27.8606 16 24 16C20.1394 16 17 12.8608 17 8.99988ZM24 4C21.2439 4 19 6.2438 19 8.99988C19 11.7562 21.244 14 24 14C26.756 14 29 11.7562 29 8.99988C29 6.2438 26.7561 4 24 4Z" fill="#107F8C"/>
</svg>
