<svg width="32" height="32" viewBox="0 0 32 32" fill="none" xmlns="http://www.w3.org/2000/svg">
<path d="M10.9645 11.465C11.5503 10.8792 11.5503 9.92949 10.9645 9.3437C10.3788 8.75791 9.42901 8.75791 8.84322 9.3437C8.25743 9.92949 8.25743 10.8792 8.84322 11.465C9.42901 12.0508 10.3788 12.0508 10.9645 11.465Z" fill="#B2B8BF"/>
<path fill-rule="evenodd" clip-rule="evenodd" d="M3.68569 13.6279C3.58589 14.2599 3.79454 14.9016 4.247 15.354L16.9749 28.082C17.756 28.863 19.0223 28.863 19.8034 28.082L27.5815 20.3038C28.3626 19.5227 28.3626 18.2564 27.5815 17.4754L14.8536 4.74743C14.4011 4.29497 13.7595 4.08632 13.1275 4.18612L6.40995 5.24678C5.55341 5.38202 4.8816 6.05383 4.74635 6.91038L3.68569 13.6279ZM5.66122 13.9398L6.72188 7.2223L13.4394 6.16164L26.1673 18.8896L18.3891 26.6677L5.66122 13.9398Z" fill="#B2B8BF"/>
</svg>
