<svg width="20" height="20" viewBox="0 0 20 20" fill="none" xmlns="http://www.w3.org/2000/svg">
<path fill-rule="evenodd" clip-rule="evenodd" d="M2 2.5C2 1.11929 3.11929 0 4.5 0C5.88071 0 7 1.11929 7 2.5C7 3.88071 5.88071 5 4.5 5C3.11929 5 2 3.88071 2 2.5ZM4.5 2C4.22386 2 4 2.22386 4 2.5C4 2.77614 4.22386 3 4.5 3C4.77614 3 5 2.77614 5 2.5C5 2.22386 4.77614 2 4.5 2Z" fill="#B2B8BF"/>
<path fill-rule="evenodd" clip-rule="evenodd" d="M5.61915 5.32619C6.13562 4.89474 6.89049 4.89191 7.41046 5.31407L7.41149 5.3149C8.41054 6.12823 9 7.32499 9 8.6038C9 8.86103 8.97516 9.12084 8.92667 9.37671C8.79687 10.0653 8.18749 10.5 7.5545 10.5H1.4455C0.810962 10.5 0.203254 10.064 0.0733571 9.37687C0.0254452 9.12248 0 8.86214 0 8.6038C0 7.34612 0.572643 6.1634 1.54425 5.35136L1.5457 5.35014C2.0619 4.92038 2.815 4.91678 3.33537 5.33852L3.33725 5.34004C3.59813 5.55253 4.00687 5.68274 4.5 5.68274C4.97767 5.68274 5.34072 5.55872 5.61915 5.32619ZM6.46298 7.17248C5.85366 7.53655 5.17448 7.68274 4.5 7.68274C3.85701 7.68274 3.14681 7.55036 2.51892 7.19429C2.20412 7.57319 2.02554 8.03052 2.00254 8.5H6.99748C6.97414 8.02042 6.78949 7.55541 6.46298 7.17248Z" fill="#B2B8BF"/>
<path d="M13.4224 1.72278C13.951 1.56288 14.5092 1.8618 14.6691 2.39043C14.829 2.91906 14.5301 3.47722 14.0015 3.63712L13.7998 3.69811C14.9523 4.32829 16.0295 5.24089 16.8321 6.44472C17.1384 6.90425 17.0142 7.52512 16.5547 7.83147C16.0952 8.13783 15.4743 8.01365 15.168 7.55412C14.5894 6.68628 13.809 6.00503 12.9573 5.51813L13.168 6.00764C13.3864 6.51493 13.1522 7.10318 12.6449 7.32155C12.1376 7.53991 11.5494 7.3057 11.331 6.79842L10.0815 3.89565C9.96885 3.63405 9.97313 3.33684 10.0932 3.07859C10.2133 2.82034 10.4378 2.62555 10.7104 2.54309L13.4224 1.72278Z" fill="#B2B8BF"/>
<path fill-rule="evenodd" clip-rule="evenodd" d="M15.8939 9.08038C15.6424 8.97258 15.3576 8.97258 15.1061 9.08038L11.6061 10.5804C11.2384 10.738 11 11.0995 11 11.4995C11 13.32 11.0624 14.7976 11.6244 16.1291C12.2004 17.4939 13.2431 18.5831 14.9082 19.8056C15.2604 20.0642 15.7396 20.0642 16.0918 19.8056C17.7616 18.5797 18.8049 17.4903 19.3798 16.1256C19.9404 14.7948 20 13.3183 20 11.4995C20 11.0995 19.7616 10.738 19.3939 10.5804L15.8939 9.08038ZM13.467 15.3514C13.1299 14.5529 13.0252 13.6157 13.0043 12.1571L15.5 11.0875L17.9958 12.1571C17.9754 13.6166 17.8726 14.5517 17.5367 15.3491C17.2177 16.1063 16.6477 16.8262 15.5001 17.7416C14.3572 16.8295 13.787 16.1096 13.467 15.3514Z" fill="#B2B8BF"/>
<path d="M3.59878 12.0838C4.10466 11.8622 4.69439 12.0927 4.91599 12.5985C5.71995 14.4339 7.31098 15.7258 9.1533 16.0116C9.69906 16.0963 10.0728 16.6073 9.98819 17.1531C9.90353 17.6988 9.39248 18.0726 8.84672 17.988C6.25911 17.5866 4.13285 15.7954 3.08403 13.401C2.86244 12.8951 3.0929 12.3054 3.59878 12.0838Z" fill="#B2B8BF"/>
</svg>
