<svg width="20" height="20" viewBox="0 0 20 20" fill="none" xmlns="http://www.w3.org/2000/svg">
<path d="M9.64849 0C9.09621 0 8.64849 0.447715 8.64849 1C8.64849 1.55228 9.09621 2 9.64849 2C13.3503 2 16.4672 4.51516 17.3787 7.93145C17.5211 8.46507 18.0691 8.78223 18.6027 8.63984C19.1364 8.49746 19.4535 7.94946 19.3111 7.41584C18.1719 3.14621 14.2789 0 9.64849 0Z" fill="#21A19A"/>
<path d="M1.96106 12.2227C1.80794 11.6921 1.25364 11.3861 0.723009 11.5392C0.192375 11.6923 -0.11366 12.2466 0.039461 12.7773C1.243 16.9481 5.08804 20 9.64849 20C10.2008 20 10.6485 19.5523 10.6485 19C10.6485 18.4477 10.2008 18 9.64849 18C6.00276 18 2.9242 15.5605 1.96106 12.2227Z" fill="#21A19A"/>
<path fill-rule="evenodd" clip-rule="evenodd" d="M14 11C14 10.4477 14.4477 10 15 10H17.1408C18.1885 10 18.9383 10.5168 19.3925 11.1498C19.8191 11.7442 20 12.4519 20 13C20 13.5481 19.8191 14.2558 19.3925 14.8502C18.9383 15.4832 18.1885 16 17.1408 16H16V16.5H16.5C17.0523 16.5 17.5 16.9477 17.5 17.5C17.5 18.0523 17.0523 18.5 16.5 18.5H16V19C16 19.5523 15.5523 20 15 20C14.4477 20 14 19.5523 14 19V18.5H13.5C12.9477 18.5 12.5 18.0523 12.5 17.5C12.5 16.9477 12.9477 16.5 13.5 16.5H14V16H13.5C12.9477 16 12.5 15.5523 12.5 15C12.5 14.4477 12.9477 14 13.5 14H14V11ZM16 14V12H17.1408C17.4523 12 17.6321 12.1269 17.7677 12.3158C17.9309 12.5433 18 12.8356 18 13C18 13.1644 17.9309 13.4567 17.7677 13.6842C17.6321 13.8731 17.4523 14 17.1408 14H16Z" fill="#21A19A"/>
<path d="M0.418839 0.186256C0.868252 -0.134601 1.4928 -0.0305586 1.81381 0.418641L3.50008 2.7783L5.18634 0.418641C5.50735 -0.0305586 6.1319 -0.134601 6.58132 0.186256C7.03073 0.507113 7.13482 1.13137 6.81381 1.58057L4.50008 4.81826V4.99771H5.50008C6.05236 4.99771 6.50008 5.44522 6.50008 5.99724C6.50008 6.54926 6.05236 6.99677 5.50008 6.99677H4.50008V7.49653H5.50008C6.05236 7.49653 6.50008 7.94403 6.50008 8.49606C6.50008 9.04808 6.05236 9.49559 5.50008 9.49559H4.50008V9.99535C4.50008 10.5474 4.05236 10.9949 3.50008 10.9949C2.94779 10.9949 2.50008 10.5474 2.50008 9.99535V9.49559H1.50008C0.947793 9.49559 0.500077 9.04808 0.500077 8.49606C0.500077 7.94403 0.947793 7.49653 1.50008 7.49653H2.50008V6.99677H1.50008C0.947793 6.99677 0.500077 6.54926 0.500077 5.99724C0.500077 5.44522 0.947793 4.99771 1.50008 4.99771H2.50008V4.81826L0.186344 1.58057C-0.134665 1.13137 -0.030573 0.507113 0.418839 0.186256Z" fill="#21A19A"/>
</svg>
