<svg width="20" height="20" viewBox="0 0 20 20" fill="none" xmlns="http://www.w3.org/2000/svg">
<path fill-rule="evenodd" clip-rule="evenodd" d="M18.16 0.23C17.79 0.07 17.4 0 17 0H3C2.78 0 2.56 0.02 2.36 0.06C2.18 0.1 2 0.16 1.83 0.23C1.65 0.3 1.49 0.39 1.34 0.49C1.17 0.6 1.02 0.73 0.87 0.87C0.73 1.02 0.6 1.17 0.49 1.34C0.39 1.49 0.3 1.65 0.23 1.83C0.16 2 0.1 2.18 0.06 2.36C0.02 2.56 0 2.78 0 3V17C0 17.4 0.07 17.79 0.23 18.16C0.38 18.52 0.6 18.84 0.87 19.12C1.15 19.39 1.47 19.61 1.83 19.76C2.2 19.92 2.59 20 3 20H17C17.21 20 17.43 19.97 17.63 19.93C17.81 19.89 17.99 19.83 18.16 19.76C18.52 19.61 18.84 19.39 19.12 19.12C19.39 18.84 19.61 18.52 19.76 18.16C19.92 17.79 20 17.4 20 17V3C20 2.78 19.97 2.56 19.93 2.36C19.89 2.18 19.83 2 19.76 1.83C19.61 1.47 19.39 1.15 19.12 0.87C18.84 0.6 18.52 0.38 18.16 0.23ZM3 2H17C17.13 2 17.26 2.02 17.38 2.07C17.44 2.1 17.49 2.12 17.53 2.15C17.59 2.19 17.65 2.24 17.7 2.29C17.75 2.34 17.8 2.4 17.84 2.46C17.87 2.5 17.89 2.55 17.92 2.61C17.97 2.73 18 2.86 18 3V17C18 17.08 17.99 17.16 17.97 17.24C17.95 17.29 17.94 17.34 17.92 17.38C17.87 17.5 17.79 17.61 17.7 17.7C17.61 17.79 17.5 17.87 17.38 17.92C17.34 17.94 17.29 17.95 17.24 17.97C17.16 17.99 17.08 18 17 18H3C2.86 18 2.73 17.97 2.61 17.92C2.55 17.89 2.5 17.87 2.46 17.84C2.4 17.8 2.34 17.75 2.29 17.7C2.2 17.61 2.12 17.5 2.07 17.38C2.02 17.26 2 17.13 2 17V3C2 2.91 2 2.83 2.02 2.75C2.04 2.7 2.05 2.65 2.07 2.61C2.12 2.49 2.2 2.38 2.29 2.29C2.38 2.2 2.49 2.12 2.61 2.07C2.73 2.02 2.86 2 3 2ZM3.5 10C3.5 7.51 5.51 5.5 8 5.5C10.48 5.5 12.5 7.51 12.5 10C12.5 12.48 10.48 14.5 8 14.5C5.51 14.5 3.5 12.48 3.5 10ZM16 8C16 7.43 15.56 7 15 7C14.43 7 14 7.43 14 8V12C14 12.56 14.43 13 15 13C15.56 13 16 12.56 16 12V8ZM8 7.5C8.32 7.5 8.63 7.56 8.91 7.67L8 8.58L7.08 7.67C7.36 7.56 7.67 7.5 8 7.5ZM5.5 10C5.5 9.67 5.56 9.36 5.67 9.08L6.58 10L5.67 10.91C5.56 10.63 5.5 10.32 5.5 10ZM10.5 10C10.5 10.32 10.43 10.63 10.32 10.91L9.41 10L10.32 9.08C10.43 9.36 10.5 9.67 10.5 10ZM8 12.5C7.67 12.5 7.36 12.43 7.08 12.32L8 11.41L8.91 12.32C8.63 12.43 8.32 12.5 8 12.5Z" fill="#107F8C"/>
</svg>
