<svg width="20" height="20" viewBox="0 0 20 20" fill="none" xmlns="http://www.w3.org/2000/svg">
<path fill-rule="evenodd" clip-rule="evenodd" d="M5 2C3.34315 2 2 3.34315 2 5V16.7732L4.83564 14.2526C5.01869 14.0899 5.25509 14 5.5 14H15C16.6569 14 18 12.6569 18 11V5C18 3.34315 16.6569 2 15 2H5ZM0 5C0 2.23858 2.23858 0 5 0H15C17.7614 0 20 2.23858 20 5V11C20 13.7614 17.7614 16 15 16H5.8802L1.66436 19.7474C1.37004 20.009 0.949577 20.0736 0.590344 19.9122C0.231111 19.7509 0 19.3938 0 19V5Z" fill="#107F8C"/>
<path d="M5 7C5.55228 7 6 6.55228 6 6C6 5.44772 5.55228 5 5 5C4.44772 5 4 5.44772 4 6C4 6.55228 4.44772 7 5 7Z" fill="#107F8C"/>
<path d="M5 11C5.55228 11 6 10.5523 6 10C6 9.44772 5.55228 9 5 9C4.44772 9 4 9.44772 4 10C4 10.5523 4.44772 11 5 11Z" fill="#107F8C"/>
<path d="M8 6C8 5.44772 8.44772 5 9 5H15C15.5523 5 16 5.44772 16 6C16 6.55228 15.5523 7 15 7H9C8.44772 7 8 6.55228 8 6Z" fill="#107F8C"/>
<path d="M9 9C8.44772 9 8 9.44772 8 10C8 10.5523 8.44772 11 9 11H15C15.5523 11 16 10.5523 16 10C16 9.44772 15.5523 9 15 9H9Z" fill="#107F8C"/>
</svg>
