<svg width="20" height="20" viewBox="0 0 20 20" fill="none" xmlns="http://www.w3.org/2000/svg">
<path fill-rule="evenodd" clip-rule="evenodd" d="M3 3C3 1.34315 4.34315 0 6 0H14C15.6569 0 17 1.34315 17 3V17C17 18.6569 15.6569 20 14 20H6C4.34315 20 3 18.6569 3 17V3ZM6 2C5.44772 2 5 2.44772 5 3V17C5 17.5523 5.44772 18 6 18H14C14.5523 18 15 17.5523 15 17V3C15 2.44772 14.5523 2 14 2H6Z" fill="#21A19A"/>
<path fill-rule="evenodd" clip-rule="evenodd" d="M8 15C8 14.4477 8.44772 14 9 14H11C11.5523 14 12 14.4477 12 15C12 15.5523 11.5523 16 11 16H9C8.44772 16 8 15.5523 8 15Z" fill="#21A19A"/>
</svg>
