<svg width="22" height="20" viewBox="0 0 22 20" fill="none" xmlns="http://www.w3.org/2000/svg">
<path d="M11 3.5C11.5523 3.5 12 3.94772 12 4.5V5.45197C12.7417 5.59279 13.3989 5.94559 13.8462 6.60383C14.1566 7.06063 14.0379 7.68258 13.5811 7.99299C13.1243 8.3034 12.5024 8.18474 12.192 7.72794C12.0868 7.57313 11.8514 7.37793 11.1699 7.37793C10.7761 7.37793 10.3968 7.50774 10.1863 7.68617C10.0924 7.76575 10.0447 7.8429 10.0215 7.91712C9.99897 7.98911 9.98029 8.11954 10.0408 8.33882C10.0443 8.3464 10.0935 8.4477 10.4031 8.61559C10.7079 8.78093 11.0877 8.91965 11.5602 9.09219L11.7361 9.15652C12.2388 9.34094 12.8592 9.57493 13.3618 9.91296C13.8853 10.2651 14.4219 10.8273 14.4888 11.6916C14.5354 12.2925 14.4359 12.8362 14.1926 13.305C13.9504 13.7718 13.5965 14.105 13.2252 14.3358C12.8273 14.5831 12.3946 14.7232 12 14.7987V15.5C12 16.0523 11.5523 16.5 11 16.5C10.4477 16.5 10 16.0523 10 15.5V14.7684C9.28271 14.6194 8.64424 14.3016 8.20736 13.7152C7.87738 13.2723 7.9689 12.6458 8.41177 12.3158C8.85465 11.9859 9.48116 12.0774 9.81114 12.5203C9.90148 12.6415 10.2102 12.8779 11.1699 12.8779C11.4938 12.8779 11.8976 12.8061 12.1693 12.6372C12.2906 12.5618 12.3683 12.4783 12.4174 12.3838C12.4653 12.2914 12.5168 12.1294 12.4948 11.8461L12.4947 11.8439C12.4932 11.8204 12.4879 11.7355 12.2456 11.5725C11.9736 11.3896 11.5782 11.2289 11.0473 11.0342C10.9913 11.0136 10.9333 10.9926 10.8739 10.971C10.4262 10.8082 9.89435 10.6149 9.4495 10.3736C8.95462 10.1052 8.33094 9.65606 8.11432 8.87598C7.96458 8.33674 7.95987 7.80906 8.1125 7.32061C8.2645 6.83415 8.55315 6.44865 8.89302 6.16055C9.22216 5.88154 9.60665 5.68568 10.0018 5.55967C10.0006 5.53993 10 5.52003 10 5.5V4.5C10 3.94772 10.4477 3.5 11 3.5Z" fill="#21A19A"/>
<path d="M5.20711 6.76775C4.81659 6.37722 4.18342 6.37722 3.7929 6.76775L1.26775 9.2929C0.877222 9.68342 0.877222 10.3166 1.26775 10.7071L3.7929 13.2323C4.18342 13.6228 4.81659 13.6228 5.20711 13.2323C5.59764 12.8417 5.59764 12.2086 5.20711 11.8181L4.38906 11H6.00001C6.55229 11 7.00001 10.5523 7.00001 10C7.00001 9.44772 6.55229 9 6.00001 9H4.38907L5.20711 8.18196C5.59764 7.79144 5.59764 7.15827 5.20711 6.76775Z" fill="#21A19A"/>
<path d="M18.2071 6.76775C17.8166 6.37722 17.1834 6.37722 16.7929 6.76775C16.4024 7.15827 16.4024 7.79144 16.7929 8.18196L17.6109 9H16C15.4477 9 15 9.44772 15 10C15 10.5523 15.4477 11 16 11H17.611L16.7929 11.8181C16.4024 12.2086 16.4024 12.8417 16.7929 13.2323C17.1834 13.6228 17.8166 13.6228 18.2071 13.2323L20.7323 10.7071C21.1228 10.3166 21.1228 9.68342 20.7323 9.2929L18.2071 6.76775Z" fill="#21A19A"/>
<path fill-rule="evenodd" clip-rule="evenodd" d="M1 3C1 1.34315 2.34315 0 4 0H18C19.6569 0 21 1.34315 21 3V4.5C21 5.05228 20.5523 5.5 20 5.5C19.4477 5.5 19 5.05228 19 4.5V3C19 2.44772 18.5523 2 18 2H4C3.44772 2 3 2.44772 3 3V4.5C3 5.05228 2.55228 5.5 2 5.5C1.44772 5.5 1 5.05228 1 4.5V3ZM2 15C2.55228 15 3 15.4477 3 16V17C3 17.5523 3.44772 18 4 18H18C18.5523 18 19 17.5523 19 17V16C19 15.4477 19.4477 15 20 15C20.5523 15 21 15.4477 21 16V17C21 18.6569 19.6569 20 18 20H4C2.34315 20 1 18.6569 1 17V16C1 15.4477 1.44772 15 2 15Z" fill="#21A19A"/>
</svg>
