<svg width="20" height="20" viewBox="0 0 20 20" fill="none" xmlns="http://www.w3.org/2000/svg">
<path fill-rule="evenodd" clip-rule="evenodd" d="M19.1672 4.00526L4.25276 3.02947L3.96103 1.76595C3.89385 1.47484 3.70007 1.22899 3.43271 1.09564L1.4474 0.105419C0.952909 -0.141219 0.352088 0.0596703 0.105428 0.554119C-0.141231 1.04857 0.0596754 1.64934 0.554166 1.89598L2.1187 2.68187L5.01284 14.2221C5.11761 14.676 5.52186 14.9976 5.98778 14.9976H16.9945C17.5471 14.9976 17.9951 14.5497 17.9951 13.9971C17.9951 13.4446 17.5471 12.9967 16.9945 12.9967H6.78496L6.55396 11.9962H17.4957C18.048 11.9962 18.5775 11.5566 18.6788 11.0144L19.9812 5.04267C20.0819 4.50398 19.7181 4.03597 19.1672 4.00526ZM17.7811 5.92272L16.8335 9.99479L6.09196 9.99522L4.72224 5.06283L17.7811 5.92272Z" fill="#198CFE"/>
<path d="M5 17.999C5 19.1041 5.89593 20 7.00113 20C8.10632 20 9.00225 19.1041 9.00225 17.999C9.00225 16.8939 8.10632 15.998 7.00113 15.998C5.89593 15.998 5 16.8939 5 17.999Z" fill="#198CFE"/>
<path d="M13 17.999C13 19.1041 13.8959 20 15.0011 20C16.1063 20 17.0023 19.1041 17.0023 17.999C17.0023 16.8939 16.1063 15.998 15.0011 15.998C13.8959 15.998 13 16.8939 13 17.999Z" fill="#198CFE"/>
</svg>
