<svg width="20" height="20" viewBox="0 0 20 20" fill="none" xmlns="http://www.w3.org/2000/svg">
<path d="M10 2.8C6.02355 2.8 2.8 6.02355 2.8 10C2.8 13.9764 6.02355 17.2 10 17.2C13.9764 17.2 17.2 13.9764 17.2 10C17.2 9.16718 17.059 8.36921 16.8002 7.6275C16.6365 7.15818 16.8842 6.645 17.3536 6.48128C17.8229 6.31756 18.3361 6.56529 18.4998 7.03461C18.8241 7.96432 19 8.96258 19 10C19 14.9706 14.9706 19 10 19C5.02944 19 1 14.9706 1 10C1 5.02944 5.02944 1 10 1C11.0374 1 12.0357 1.17589 12.9654 1.50022C13.4347 1.66394 13.6824 2.17713 13.5187 2.64644C13.355 3.11576 12.8418 3.3635 12.3725 3.19978C11.6308 2.94103 10.8328 2.8 10 2.8Z" fill="#107F8C"/>
<path d="M8.50565 6.14638L13.5375 9.19187C14.1542 9.56512 14.1542 10.4349 13.5375 10.8081L8.50565 13.8536C7.8502 14.2503 7 13.794 7 13.0455V6.95451C7 6.206 7.8502 5.74967 8.50565 6.14638Z" fill="#107F8C"/>
</svg>
