<svg width="20" height="20" viewBox="0 0 20 20" fill="none" xmlns="http://www.w3.org/2000/svg">
<path d="M14 3C14.5523 3 15 3.44772 15 4V5C15 5.55228 14.5523 6 14 6C13.4477 6 13 5.55228 13 5V4C13 3.44772 13.4477 3 14 3Z" fill="#107F8C"/>
<path d="M14 9C14.5523 9 15 8.55229 15 8C15 7.44772 14.5523 7 14 7C13.4477 7 13 7.44772 13 8C13 8.55229 13.4477 9 14 9Z" fill="#107F8C"/>
<path fill-rule="evenodd" clip-rule="evenodd" d="M8 6C8 2.68629 10.6863 0 14 0C17.3137 0 20 2.68629 20 6C20 9.31371 17.3137 12 14 12C10.6863 12 8 9.31371 8 6ZM14 2C11.7909 2 10 3.79086 10 6C10 8.20914 11.7909 10 14 10C16.2091 10 18 8.20914 18 6C18 3.79086 16.2091 2 14 2Z" fill="#107F8C"/>
<path d="M4 2C3.44772 2 3 2.44772 3 3V17C3 17.5523 3.44772 18 4 18H14C14.5523 18 15 17.5523 15 17V14.5C15 13.9477 15.4477 13.5 16 13.5C16.5523 13.5 17 13.9477 17 14.5V17C17 18.6569 15.6569 20 14 20H4C2.34315 20 1 18.6569 1 17V3C1 1.34315 2.34315 0 4 0H7C7.55228 0 8 0.447715 8 1C8 1.55228 7.55228 2 7 2H4Z" fill="#107F8C"/>
<path d="M5 10C5 9.44771 5.44772 9 6 9H6.5C7.05228 9 7.5 9.44771 7.5 10C7.5 10.5523 7.05228 11 6.5 11H6C5.44772 11 5 10.5523 5 10Z" fill="#107F8C"/>
<path d="M6 13C5.44772 13 5 13.4477 5 14C5 14.5523 5.44772 15 6 15H9.5C10.0523 15 10.5 14.5523 10.5 14C10.5 13.4477 10.0523 13 9.5 13H6Z" fill="#107F8C"/>
</svg>
