<svg width="32" height="32" viewBox="0 0 32 32" fill="none" xmlns="http://www.w3.org/2000/svg">
<path fill-rule="evenodd" clip-rule="evenodd" d="M18 3C16.3377 3 15 4.33772 15 6V11C15 12.649 16.3345 14 18 14H21.63L21.632 14L24.3606 16.2689C24.6588 16.5169 25.0735 16.57 25.4246 16.4054C25.7758 16.2407 26 15.8878 26 15.5V14H27C28.6523 14 30 12.6523 30 11V6C30 4.33446 28.649 3 27 3H18ZM17 6C17 5.44228 17.4423 5 18 5H27C27.551 5 28 5.44554 28 6V11C28 11.5477 27.5477 12 27 12H25C24.4477 12 24 12.4477 24 13V13.368L22.9094 12.4611C22.5483 12.1605 22.1016 12 21.63 12H18C17.4455 12 17 11.551 17 11V6Z" fill="url(#paint0_linear_52384_422)"/>
<path d="M4 14C4 12.3423 5.34228 11 7 11H12C12.5523 11 13 10.5523 13 10C13 9.44772 12.5523 9 12 9H7C4.23772 9 2 11.2377 2 14V20C2 22.0504 3.2331 23.8052 5 24.5786V28C5 28.3844 5.22035 28.7348 5.56681 28.9013C5.91328 29.0678 6.32452 29.021 6.62469 28.7809L11.3508 25H17C19.7523 25 22 22.7523 22 20V17C22 16.4477 21.5523 16 21 16C20.4477 16 20 16.4477 20 17V20C20 21.6477 18.6477 23 17 23H11C10.7729 23 10.5526 23.0773 10.3753 23.2191L7 25.9194V23.87C7 23.4147 6.6924 23.0168 6.25174 22.9022C4.94893 22.5633 4 21.3909 4 20V14Z" fill="url(#paint1_linear_52384_422)"/>
<defs>
<linearGradient id="paint0_linear_52384_422" x1="16" y1="29" x2="16" y2="3" gradientUnits="userSpaceOnUse">
<stop offset="2.71511e-08" stop-color="#9A41D9"/>
<stop offset="1" stop-color="#5F41D9"/>
</linearGradient>
<linearGradient id="paint1_linear_52384_422" x1="16" y1="29" x2="16" y2="3" gradientUnits="userSpaceOnUse">
<stop offset="2.71511e-08" stop-color="#9A41D9"/>
<stop offset="1" stop-color="#5F41D9"/>
</linearGradient>
</defs>
</svg>
