<svg width="32" height="32" viewBox="0 0 32 32" fill="none" xmlns="http://www.w3.org/2000/svg">
<path d="M7 7.81818C7 7.35681 7.36762 7 7.8 7H14C14.5523 7 15 6.55228 15 6C15 5.44772 14.5523 5 14 5H7.8C6.24415 5 5 6.27124 5 7.81818V24.1818C5 25.7288 6.24415 27 7.8 27H22.2C23.7558 27 25 25.7288 25 24.1818V20.5C25 19.9477 24.5523 19.5 24 19.5C23.4477 19.5 23 19.9477 23 20.5V24.1818C23 24.6432 22.6324 25 22.2 25H7.8C7.36762 25 7 24.6432 7 24.1818V7.81818Z" fill="#B2B8BF"/>
<path d="M11 10C10.4477 10 10 10.4477 10 11C10 11.5523 10.4477 12 11 12H14C14.5523 12 15 11.5523 15 11C15 10.4477 14.5523 10 14 10H11Z" fill="#B2B8BF"/>
<path d="M10 16C10 15.4477 10.4477 15 11 15H14C14.5523 15 15 15.4477 15 16C15 16.5523 14.5523 17 14 17H11C10.4477 17 10 16.5523 10 16Z" fill="#B2B8BF"/>
<path d="M11 20C10.4477 20 10 20.4477 10 21C10 21.5523 10.4477 22 11 22H16C16.5523 22 17 21.5523 17 21C17 20.4477 16.5523 20 16 20H11Z" fill="#B2B8BF"/>
<path d="M23.553 2.60557C23.8345 2.46481 24.1659 2.46481 24.4474 2.60557L30.4474 5.60557C30.9414 5.85256 31.1416 6.45324 30.8946 6.94721C30.6477 7.44119 30.047 7.64142 29.553 7.39443L24.0002 4.61803L18.4474 7.39443C17.9535 7.64142 17.3528 7.44119 17.1058 6.94721C16.8588 6.45324 17.059 5.85256 17.553 5.60557L23.553 2.60557Z" fill="#B2B8BF"/>
<path d="M17 17.0002C17 16.448 17.4477 16.0002 18 16.0002H30C30.5523 16.0002 31 16.448 31 17.0002C31 17.5525 30.5523 18.0002 30 18.0002H18C17.4477 18.0002 17 17.5525 17 17.0002Z" fill="#B2B8BF"/>
<path d="M25 9.00024C25 8.44796 24.5523 8.00024 24 8.00024C23.4477 8.00024 23 8.44796 23 9.00024V14.0002C23 14.5525 23.4477 15.0002 24 15.0002C24.5523 15.0002 25 14.5525 25 14.0002V9.00024Z" fill="#B2B8BF"/>
<path d="M20 8.00024C20.5523 8.00024 21 8.44796 21 9.00024V14.0002C21 14.5525 20.5523 15.0002 20 15.0002C19.4477 15.0002 19 14.5525 19 14.0002V9.00024C19 8.44796 19.4477 8.00024 20 8.00024Z" fill="#B2B8BF"/>
<path d="M29 9.00024C29 8.44796 28.5523 8.00024 28 8.00024C27.4477 8.00024 27 8.44796 27 9.00024V14.0002C27 14.5525 27.4477 15.0002 28 15.0002C28.5523 15.0002 29 14.5525 29 14.0002V9.00024Z" fill="#B2B8BF"/>
</svg>
