<svg width="20" height="20" viewBox="0 0 20 20" fill="none" xmlns="http://www.w3.org/2000/svg">
<path fill-rule="evenodd" clip-rule="evenodd" d="M10.9282 4.4188C11.705 2.47867 13.5561 1.96687 14.9331 2.05903C16.6727 2.17545 18.4475 4.04081 17.9028 7.48838C17.7686 8.33799 17.3488 9.33601 16.7019 10.4137C16.061 11.4815 15.2299 12.5737 14.3328 13.6036C12.7897 15.375 11.1103 16.8955 9.97943 17.7411C8.79891 16.9089 7.12007 15.3921 5.58989 13.6092C3.78973 11.5116 2.37547 9.25133 2.09691 7.48838C1.55218 4.04081 3.32703 2.17545 5.06663 2.05903C6.44366 1.96687 8.29468 2.47867 9.07151 4.4188C9.22346 4.79829 9.59108 5.04709 9.99986 5.04709C10.4086 5.04709 10.7763 4.79829 10.9282 4.4188ZM9.99986 2.09897C11.4326 0.377778 13.5883 -0.0354452 15.0666 0.0634923C18.3754 0.284931 20.5382 3.62419 19.8783 7.80051C19.6878 9.00634 19.1289 10.2565 18.4167 11.443C17.6985 12.6394 16.7901 13.8274 15.8408 14.9172C13.9536 17.0837 11.8256 18.9514 10.5468 19.7866C10.2266 19.9957 9.81516 20.0039 9.4869 19.8077C8.07214 18.962 5.93145 17.0781 4.07218 14.9117C2.23407 12.7699 0.492403 10.1485 0.121418 7.80051C-0.538454 3.62419 1.6243 0.284931 4.93308 0.0634923C6.41143 -0.0354452 8.56711 0.377778 9.99986 2.09897Z" fill="#21A19A"/>
<path d="M11 7C11 6.44772 10.5523 6 10 6C9.44772 6 9 6.44772 9 7V9H7C6.44772 9 6 9.44771 6 10C6 10.5523 6.44772 11 7 11H9V13C9 13.5523 9.44772 14 10 14C10.5523 14 11 13.5523 11 13V11H13C13.5523 11 14 10.5523 14 10C14 9.44772 13.5523 9 13 9H11V7Z" fill="#21A19A"/>
</svg>
