<svg width="32" height="32" viewBox="0 0 32 32" fill="none" xmlns="http://www.w3.org/2000/svg">
<path fill-rule="evenodd" clip-rule="evenodd" d="M21 15.9999C19.3431 15.9999 18 17.3431 18 18.9999C18 20.6568 19.3431 21.9999 21 21.9999C22.6569 21.9999 24 20.6568 24 18.9999C24 17.3431 22.6569 15.9999 21 15.9999ZM20 18.9999C20 18.4477 20.4477 17.9999 21 17.9999C21.5523 17.9999 22 18.4477 22 18.9999C22 19.5522 21.5523 19.9999 21 19.9999C20.4477 19.9999 20 19.5522 20 18.9999Z" fill="#107F8C"/>
<path fill-rule="evenodd" clip-rule="evenodd" d="M20.5 7.35152C20.5 7.03363 20.2072 6.79644 19.8962 6.86241L6.7925 9.64199C6.54974 9.69348 6.34331 9.83053 6.20204 10.0175C6.29974 10.0059 6.39917 9.99994 6.5 9.99994L24.5 9.99994C26.433 9.99994 28 11.5669 28 13.4999V24.4999C28 26.4329 26.433 27.9999 24.5 27.9999H6.5C5.11929 27.9999 4 26.8806 4 25.4999V10.6202C4 9.20328 4.99138 7.97954 6.37749 7.68552L19.4812 4.90594C21.0361 4.57611 22.5 5.76203 22.5 7.35153V7.49997C22.5 8.05225 22.0523 8.49997 21.5 8.49997C20.9477 8.49997 20.5 8.05225 20.5 7.49997V7.35152ZM6 12.4999C6 12.2238 6.22386 11.9999 6.5 11.9999L24.5 11.9999C25.3284 11.9999 26 12.6715 26 13.4999V24.4999C26 25.3284 25.3284 25.9999 24.5 25.9999L6.5 25.9999C6.22386 25.9999 6 25.7761 6 25.4999L6 12.4999Z" fill="#107F8C"/>
</svg>
