<svg width="20" height="20" viewBox="0 0 20 20" fill="none" xmlns="http://www.w3.org/2000/svg">
<path fill-rule="evenodd" clip-rule="evenodd" d="M17 1C17 0.447715 16.5523 0 16 0C15.4477 0 15 0.447715 15 1V2.26772L13.902 1.63379C13.4237 1.35765 12.8121 1.52152 12.5359 1.99981C12.2598 2.47811 12.4237 3.0897 12.902 3.36584L14 3.99981L12.902 4.63379C12.4237 4.90993 12.2598 5.52152 12.5359 5.99981C12.8121 6.47811 13.4237 6.64198 13.902 6.36584L15 5.73191V7C15 7.55228 15.4477 8 16 8C16.5523 8 17 7.55228 17 7V5.73182L18.0981 6.36584C18.5764 6.64198 19.188 6.47811 19.4641 5.99981C19.7403 5.52152 19.5764 4.90993 19.0981 4.63379L18 3.99981L19.0981 3.36584C19.5764 3.0897 19.7403 2.47811 19.4641 1.99981C19.188 1.52152 18.5764 1.35765 18.0981 1.63379L17 2.2678V1ZM8 3.5C4.68629 3.5 2 6.18629 2 9.5C2 12.8137 4.68629 15.5 8 15.5C10.392 15.5 12.459 14.1003 13.4231 12.0709C13.5536 11.7963 13.6637 11.5103 13.7517 11.2148C13.9092 10.6854 14.466 10.384 14.9954 10.5415C15.5247 10.6991 15.8261 11.2559 15.6686 11.7852C15.551 12.1802 15.4038 12.5624 15.2296 12.9291C14.9796 13.4553 14.6738 13.95 14.3197 14.4055L18.2071 18.2929C18.5976 18.6834 18.5976 19.3166 18.2071 19.7071C17.8166 20.0976 17.1834 20.0976 16.7929 19.7071L12.9055 15.8198C11.5513 16.8725 9.84926 17.5 8 17.5C3.58172 17.5 0 13.9183 0 9.5C0 5.08172 3.58172 1.5 8 1.5C8.38745 1.5 8.76903 1.52762 9.14276 1.58113C9.68947 1.65941 10.0692 2.16607 9.99092 2.71278C9.91264 3.25949 9.40598 3.63922 8.85927 3.56094C8.57915 3.52083 8.2923 3.5 8 3.5Z" fill="#107F8C"/>
</svg>
