<svg width="20" height="20" viewBox="0 0 20 20" fill="none" xmlns="http://www.w3.org/2000/svg">
<path d="M2 0C1.44772 0 1 0.447715 1 1C1 1.55228 1.44772 2 2 2H12C12.5523 2 13 1.55228 13 1C13 0.447715 12.5523 0 12 0H2Z" fill="#107F8C"/>
<path d="M2 4C2 3.44772 2.44772 3 3 3H11C11.5523 3 12 3.44772 12 4C12 4.55228 11.5523 5 11 5H3C2.44772 5 2 4.55228 2 4Z" fill="#107F8C"/>
<path d="M7 13.5C7.55228 13.5 8 13.9477 8 14.5V16C8 16.5523 7.55228 17 7 17C6.44772 17 6 16.5523 6 16V14.5C6 13.9477 6.44772 13.5 7 13.5Z" fill="#107F8C"/>
<path d="M4.22144 12.3791C4.56432 12.8121 4.49129 13.441 4.05834 13.7839C2.81209 14.7709 2 16.1527 2 17.4229C2 17.6111 2.01354 17.8045 2.04062 18H9.5C10.0523 18 10.5 18.4477 10.5 19C10.5 19.5523 10.0523 20 9.5 20H1.82736C1.06986 20 0.293249 19.5042 0.123239 18.6521C0.0424735 18.2457 0 17.8318 0 17.4229C0 15.3499 1.26518 13.4447 2.81666 12.216C3.24962 11.8732 3.87856 11.9462 4.22144 12.3791Z" fill="#107F8C"/>
<path d="M5 7C5 6.44772 4.55228 6 4 6C3.44772 6 3 6.44772 3 7C3 9.20914 4.79086 11 7 11C9.20914 11 11 9.20914 11 7C11 6.44772 10.5523 6 10 6C9.44772 6 9 6.44772 9 7C9 8.10457 8.10457 9 7 9C5.89543 9 5 8.10457 5 7Z" fill="#107F8C"/>
<path fill-rule="evenodd" clip-rule="evenodd" d="M15.1061 9.08085C15.3576 8.97305 15.6424 8.97305 15.8939 9.08085L19.3939 10.5809C19.7616 10.7384 20 11.1 20 11.5C20 13.3188 19.9404 14.7952 19.3798 16.1261C18.8049 17.4908 17.7616 18.5802 16.0918 19.8061C15.7396 20.0646 15.2604 20.0646 14.9082 19.8061C13.2431 18.5836 12.2004 17.4944 11.6244 16.1296C11.0624 14.7981 11 13.3205 11 11.5C11 11.1 11.2384 10.7384 11.6061 10.5809L15.1061 9.08085ZM13.0043 12.1576C13.0252 13.6162 13.1299 14.5533 13.467 15.3519C13.787 16.1101 14.3572 16.83 15.5001 17.742C16.6477 16.8267 17.2177 16.1068 17.5367 15.3496C17.8726 14.5521 17.9754 13.6171 17.9958 12.1576L15.5 11.088L13.0043 12.1576Z" fill="#107F8C"/>
</svg>
