<svg width="20" height="20" viewBox="0 0 20 20" fill="none" xmlns="http://www.w3.org/2000/svg">
<path d="M5.40363 4.14324C6.50583 2.83125 8.1554 2 10.0001 2C11.8448 2 13.4943 2.83125 14.5965 4.14324C14.9518 4.5661 15.5826 4.62092 16.0054 4.26567C16.4283 3.91042 16.4831 3.27963 16.1279 2.85676C14.6619 1.1118 12.4604 0 10.0001 0C7.5398 0 5.33824 1.1118 3.8723 2.85676C3.51705 3.27963 3.57186 3.91042 3.99472 4.26567C4.41759 4.62092 5.04838 4.5661 5.40363 4.14324Z" fill="#B2B8BF"/>
<path fill-rule="evenodd" clip-rule="evenodd" d="M0 9.4C0 7.52223 1.52223 6 3.4 6C4.83594 6 6 7.16406 6 8.6V12.4C6 13.8359 4.83594 15 3.4 15C1.52223 15 0 13.4778 0 11.6V9.4ZM3.4 8C2.6268 8 2 8.6268 2 9.4V11.6C2 12.3732 2.6268 13 3.4 13C3.73137 13 4 12.7314 4 12.4V8.6C4 8.26863 3.73137 8 3.4 8Z" fill="#B2B8BF"/>
<path fill-rule="evenodd" clip-rule="evenodd" d="M20 9.4C20 7.52223 18.4778 6 16.6 6C15.1641 6 14 7.16406 14 8.6V12.4C14 13.3892 14.5524 14.2493 15.3655 14.6888C14.6694 16.075 13.4525 17.1532 11.9726 17.6682C11.8145 16.7215 10.9915 16 10 16C8.89543 16 8 16.8954 8 18C8 19.1046 8.89543 20 10 20C10.0056 20 10.0112 20 10.0167 19.9999C13.378 19.993 16.2504 17.9135 17.4282 14.9751C17.4394 14.9472 17.4492 14.9191 17.4577 14.8909C18.9203 14.5108 20 13.1815 20 11.6V9.4ZM16.6 8C17.3732 8 18 8.6268 18 9.4V11.6C18 12.3732 17.3732 13 16.6 13C16.2686 13 16 12.7314 16 12.4V8.6C16 8.26863 16.2686 8 16.6 8Z" fill="#B2B8BF"/>
</svg>
