<svg width="20" height="20" viewBox="0 0 20 20" fill="none" xmlns="http://www.w3.org/2000/svg">
<path d="M4 5C4.55228 5 5 5.44771 5 6V17.21L15.04 11.0312L13.5273 10.167L8.53711 13.3437C8.07121 13.6402 7.45279 13.5029 7.15625 13.0371C6.85977 12.5712 6.99705 11.9528 7.46289 11.6562L12.9629 8.15625L13.084 8.09082C13.3743 7.95791 13.7141 7.97067 13.9961 8.13183L17.4961 10.1318C17.8025 10.3069 17.9941 10.6305 18 10.9834C18.0057 11.3363 17.8249 11.6665 17.5244 11.8516L4.52441 19.8516C4.21587 20.0414 3.82797 20.0498 3.51172 19.873C3.19565 19.6963 3 19.3622 3 19V6C3 5.44771 3.44772 5 4 5Z" fill="#B2B8BF"/>
<path fill-rule="evenodd" clip-rule="evenodd" d="M7.4873 0.141599C7.78931 -0.0387771 8.16384 -0.0474377 8.47363 0.119138L14.9736 3.61914C15.2883 3.78859 15.4895 4.11347 15.5 4.4707C15.5103 4.828 15.3288 5.16414 15.0244 5.35156L8.52441 9.35156C8.21587 9.54143 7.82797 9.54977 7.51172 9.37304C7.19565 9.19628 7 8.86215 7 8.5V0.999998L7.00879 0.869138C7.04843 0.568606 7.223 0.299465 7.4873 0.141599ZM9 6.70996L12.4971 4.55761L9 2.67383V6.70996Z" fill="#B2B8BF"/>
</svg>
