<svg width="20" height="20" viewBox="0 0 20 20" fill="none" xmlns="http://www.w3.org/2000/svg">
<path fill-rule="evenodd" clip-rule="evenodd" d="M15.1061 9.08074C15.3577 8.97294 15.6424 8.97294 15.894 9.08074L19.3939 10.5807C19.7616 10.7383 20 11.0998 20 11.4999C20 13.3186 19.9404 14.795 19.3798 16.1259C18.8049 17.4905 17.7616 18.58 16.0918 19.8058C15.7397 20.0644 15.2604 20.0644 14.9083 19.8058C13.2432 18.5834 12.2005 17.4942 11.6245 16.1294C11.0625 14.7979 11.0001 13.3203 11.0001 11.4999C11.0001 11.0998 11.2385 10.7383 11.6062 10.5807L15.1061 9.08074ZM13.0043 12.1574C13.0253 13.616 13.13 14.5532 13.4671 15.3517C13.7871 16.1099 14.3573 16.8298 15.5001 17.7418C16.6477 16.8265 17.2177 16.1066 17.5367 15.3494C17.8726 14.552 17.9754 13.6169 17.9959 12.1575L15.5001 11.0878L13.0043 12.1574Z" fill="#B2B8BF"/>
<path d="M6.65584 0.0611597C6.87816 -0.0203866 7.12221 -0.0203866 7.34454 0.0611597L13.3445 2.26186C13.863 2.45204 14.1291 3.02654 13.9389 3.54504C13.7488 4.06354 13.1743 4.3297 12.6558 4.13952L7.00019 2.06512L1.34461 4.13952C0.82611 4.3297 0.251611 4.06354 0.0614317 3.54504C-0.128748 3.02654 0.137408 2.45204 0.655909 2.26186L6.65584 0.0611597Z" fill="#B2B8BF"/>
<path d="M0.0305172 12.9998C0.0305172 12.4476 0.478227 11.9999 1.0305 11.9999H8.53041C9.08269 11.9999 9.5304 12.4476 9.5304 12.9998C9.5304 13.5521 9.08269 13.9998 8.53041 13.9998H1.0305C0.478227 13.9998 0.0305172 13.5521 0.0305172 12.9998Z" fill="#B2B8BF"/>
<path d="M8.00015 5.99993C8.00015 5.44765 7.55244 4.99994 7.00016 4.99994C6.44788 4.99994 6.00017 5.44765 6.00017 5.99993V9.73032C6.00017 10.2826 6.44788 10.7303 7.00016 10.7303C7.55244 10.7303 8.00015 10.2826 8.00015 9.73032V5.99993Z" fill="#B2B8BF"/>
<path d="M11.0001 4.99994C11.5524 4.99994 12.0001 5.44765 12.0001 5.99993V6.99991C12.0001 7.55219 11.5524 7.9999 11.0001 7.9999C10.4478 7.9999 10.0001 7.55219 10.0001 6.99991V5.99993C10.0001 5.44765 10.4478 4.99994 11.0001 4.99994Z" fill="#B2B8BF"/>
<path d="M4.0002 5.99993C4.0002 5.44765 3.55249 4.99994 3.00021 4.99994C2.44793 4.99994 2.00022 5.44765 2.00022 5.99993V9.73032C2.00022 10.2826 2.44793 10.7303 3.00021 10.7303C3.55249 10.7303 4.0002 10.2826 4.0002 9.73032V5.99993Z" fill="#B2B8BF"/>
</svg>
