<svg width="32" height="32" viewBox="0 0 32 32" fill="none" xmlns="http://www.w3.org/2000/svg">
<path d="M5.02697 14.5588L5.29294 14.2929C5.68348 13.9024 6.31665 13.9024 6.70715 14.2929C7.09765 14.6835 7.09761 15.3167 6.70706 15.7072L4.70682 17.7072C4.31627 18.0977 3.68311 18.0976 3.29261 17.7071L1.29285 15.7071C0.90235 15.3165 0.902388 14.6834 1.29294 14.2929C1.68348 13.9024 2.31665 13.9024 2.70715 14.2929L3.02008 14.6059C3.39841 7.77397 9.07463 2.33301 15.9998 2.33301C23.1693 2.33301 29 8.16408 29 15.333C29 22.5019 23.1693 28.333 15.9998 28.333C15.4475 28.333 14.9998 27.8853 14.9998 27.333C14.9998 26.7807 15.4475 26.333 15.9998 26.333C22.0647 26.333 27 21.3974 27 15.333C27 9.26864 22.0647 4.33301 15.9998 4.33301C10.1955 4.33301 5.42567 8.85408 5.02697 14.5588Z" fill="#21A19A"/>
<path fill-rule="evenodd" clip-rule="evenodd" d="M14 18V17H13C12.4477 17 12 16.5523 12 16C12 15.4477 12.4477 15 13 15H14V11C14 10.4477 14.4477 10 15 10C15.039 10 15.0775 10.0022 15.1153 10.0066C15.1532 10.0022 15.1916 10 15.2306 10H17.8383C19.0898 10 19.9565 10.5521 20.4556 11.3579C20.9085 12.0891 21 12.9309 21 13.5V13.6674C21 14.2913 20.8517 15.0994 20.3645 15.7808C19.8412 16.5127 18.9936 17 17.8383 17H16V18H16.9884C17.5406 18 17.9884 18.4477 17.9884 19C17.9884 19.5523 17.5406 20 16.9884 20H16V21C16 21.5523 15.5523 22 15 22C14.4477 22 14 21.5523 14 21V20H13C12.4477 20 12 19.5523 12 19C12 18.4477 12.4477 18 13 18H14ZM16 15V12H17.8383C18.417 12 18.6311 12.2105 18.7553 12.411C18.9257 12.6861 19 13.0943 19 13.5V13.6674C19 14.0182 18.9099 14.3765 18.7375 14.6176C18.6011 14.8084 18.3679 15 17.8383 15H16Z" fill="#21A19A"/>
</svg>
