<svg width="20" height="20" viewBox="0 0 20 20" fill="none" xmlns="http://www.w3.org/2000/svg">
<path d="M7.58118 0.186344C8.03059 0.507352 8.13469 1.1319 7.81368 1.58131L6.08596 4.00012H13.914L12.1863 1.58131C11.8653 1.1319 11.9694 0.507352 12.4188 0.186344C12.8682 -0.134665 13.4927 -0.030573 13.8138 0.418839L16.3138 3.91883C16.3327 3.94535 16.3502 3.97248 16.3662 4.00012H19C19.3161 4.00012 19.6136 4.14958 19.8023 4.40318C19.991 4.65679 20.0486 4.98469 19.9578 5.28746L19.5802 6.54606C19.4215 7.07505 18.864 7.37524 18.3351 7.21654C17.8156 7.06071 17.5168 6.52041 17.6564 6.00011H2.34404L4.74403 14.0001H7.5C8.05228 14.0001 8.5 14.4478 8.5 15.0001C8.5 15.5524 8.05228 16.0001 7.5 16.0001H4C3.55839 16.0001 3.16907 15.7104 3.04218 15.2874L0.042182 5.28746C-0.0486502 4.98469 0.0090221 4.65679 0.197715 4.40318C0.386408 4.14958 0.683901 4.00012 1.00001 4.00012H3.63382C3.64981 3.97248 3.66728 3.94535 3.68622 3.91883L6.18621 0.418839C6.50722 -0.030573 7.13177 -0.134665 7.58118 0.186344Z" fill="#B2B8BF"/>
<path fill-rule="evenodd" clip-rule="evenodd" d="M17.5 7.99999C16.1193 7.99999 15 9.11927 15 10.5C15 11.8807 16.1193 13 17.5 13C18.8807 13 20 11.8807 20 10.5C20 9.11927 18.8807 7.99999 17.5 7.99999ZM17 10.5C17 10.2238 17.2238 9.99998 17.5 9.99998C17.7761 9.99998 18 10.2238 18 10.5C18 10.7761 17.7761 11 17.5 11C17.2238 11 17 10.7761 17 10.5Z" fill="#B2B8BF"/>
<path fill-rule="evenodd" clip-rule="evenodd" d="M11.5 15C10.1193 15 8.99999 16.1193 8.99999 17.5C8.99999 18.8807 10.1193 20 11.5 20C12.8807 20 14 18.8807 14 17.5C14 16.1193 12.8807 15 11.5 15ZM11 17.5C11 17.2238 11.2238 17 11.5 17C11.7761 17 12 17.2238 12 17.5C12 17.7761 11.7761 18 11.5 18C11.2238 18 11 17.7761 11 17.5Z" fill="#B2B8BF"/>
<path d="M11.5 7.99999C12.0523 7.99999 12.5 8.4477 12.5 8.99999V12C12.5 12.5523 12.0523 13 11.5 13C10.9477 13 10.5 12.5523 10.5 12V8.99999C10.5 8.4477 10.9477 7.99999 11.5 7.99999Z" fill="#B2B8BF"/>
<path d="M18.5 16C18.5 15.4477 18.0523 15 17.5 15C16.9477 15 16.5 15.4477 16.5 16V19C16.5 19.5523 16.9477 20 17.5 20C18.0523 20 18.5 19.5523 18.5 19V16Z" fill="#B2B8BF"/>
</svg>
