<svg width="32" height="32" viewBox="0 0 32 32" fill="none" xmlns="http://www.w3.org/2000/svg">
<path fill-rule="evenodd" clip-rule="evenodd" d="M21.8379 17.9999C23.0893 17.9999 23.957 18.5517 24.4561 19.3573C24.909 20.0886 25 20.9308 25 21.4999V21.6669C25 22.2908 24.8514 23.0998 24.3643 23.7812C23.841 24.5128 22.993 24.9999 21.8379 24.9999H20V25.9999H20.9883C21.5406 25.9999 21.9883 26.4477 21.9883 26.9999C21.9883 27.5522 21.5406 27.9999 20.9883 27.9999H20V28.9999C20 29.5522 19.5523 29.9999 19 29.9999C18.4477 29.9999 18 29.5522 18 28.9999V27.9999H17C16.4477 27.9999 16 27.5522 16 26.9999C16 26.4477 16.4477 25.9999 17 25.9999H18V24.9999H17C16.4477 24.9999 16 24.5522 16 23.9999C16 23.4477 16.4477 22.9999 17 22.9999H18V18.9999C18 18.4477 18.4477 17.9999 19 17.9999H21.8379ZM20 22.9999H21.8379C22.3675 22.9999 22.6009 22.8079 22.7373 22.6171C22.9096 22.3759 23 22.0177 23 21.6669V21.4999C23 21.0943 22.9253 20.6861 22.7549 20.4111C22.6307 20.2105 22.4165 19.9999 21.8379 19.9999H20V22.9999Z" fill="#21A19A"/>
<path d="M6.98438 8.99993C7.42022 8.99332 7.81027 9.27006 7.94824 9.68352L10.7891 18.2079L10.8789 17.79C10.9948 17.2502 11.5266 16.9068 12.0664 17.0224C12.6064 17.1381 12.9507 17.6699 12.835 18.2099L11.9775 22.2099C11.8829 22.6504 11.5055 22.9729 11.0557 22.998C10.6056 23.0229 10.1944 22.7439 10.0518 22.3163L7.0498 13.3114L6.45801 15.287C6.3311 15.71 5.94159 15.9999 5.5 15.9999H3C2.44773 15.9999 2.00002 15.5522 2 14.9999C2.00002 14.4477 2.44773 13.9999 3 13.9999H4.75586L6.04199 9.71282L6.10059 9.56243C6.2634 9.22745 6.60306 9.00588 6.98438 8.99993Z" fill="#21A19A"/>
<path d="M12.5869 12.9999C13.4151 13.0002 14.0869 13.6717 14.0869 14.4999C14.0869 15.3282 13.4151 15.9997 12.5869 15.9999C11.7585 15.9999 11.0869 15.3283 11.0869 14.4999C11.0869 13.6715 11.7585 12.9999 12.5869 12.9999Z" fill="#21A19A"/>
<path d="M13.7158 7.04094C14.0671 6.93721 14.447 7.03398 14.7061 7.29289L19.1436 11.7304L26.4697 7.15227C26.938 6.85969 27.555 7.0014 27.8477 7.46965C28.1403 7.93794 27.9975 8.55484 27.5293 8.84758L19.5293 13.8476C19.1344 14.0942 18.6212 14.0362 18.292 13.707L14.5918 10.0068L14.334 11.2099C14.218 11.7495 13.6863 12.0931 13.1465 11.9775C12.6069 11.8615 12.2633 11.3297 12.3789 10.79L13.0215 7.78996L13.0586 7.66008C13.1657 7.36354 13.4084 7.13188 13.7158 7.04094Z" fill="#21A19A"/>
</svg>
