<svg width="20" height="20" viewBox="0 0 20 20" fill="none" xmlns="http://www.w3.org/2000/svg">
<path d="M10 5.99991C10.5522 5.99991 10.9999 6.44771 11 6.99991C11 7.5522 10.5523 7.99991 10 7.99991H6C5.44772 7.99991 5 7.5522 5 6.99991C5.0001 6.44771 5.44778 5.99991 6 5.99991H10Z" fill="#21A19A"/>
<path fill-rule="evenodd" clip-rule="evenodd" d="M4.26953 2.88273C6.5406 1.8223 9.38966 1.67148 11.9482 2.68546C13.4775 2.01417 15.2884 2.00382 16.6592 2.00382C16.9807 2.00391 17.2828 2.15897 17.4707 2.41984C17.6585 2.68076 17.7093 3.01633 17.6074 3.3212L16.959 5.26066L18.0527 7.44718H19C19.5522 7.44718 19.9998 7.89505 20 8.44718V11.9462C20 12.3252 19.7854 12.6715 19.4463 12.8407L15.8408 14.6366L14.4141 17.4521C14.2437 17.7881 13.8983 17.9999 13.5215 17.9999H10.3916C9.83935 17.9999 9.39166 17.5521 9.3916 16.9999V16.4452H8.26074V16.9999C8.26074 17.5522 7.81303 17.9999 7.26074 17.9999H4.13086C3.81201 17.9999 3.51157 17.848 3.32324 17.5907L3.32227 17.5888L3.31055 17.5732C3.3034 17.5633 3.29387 17.5489 3.28125 17.5312C3.25574 17.4954 3.21937 17.4437 3.17383 17.3778C3.08269 17.2461 2.95399 17.0561 2.80078 16.8183C2.49489 16.3434 2.0865 15.6725 1.67773 14.8857C0.878346 13.3468 3.72046e-05 11.2242 0 9.22452C7.86341e-05 6.22934 1.85083 4.01212 4.26953 2.88273ZM11.5615 4.6923C9.44192 3.72537 7.0044 3.81368 5.11621 4.69523C3.24372 5.56957 2.00008 7.16639 2 9.22452C2.00004 10.7234 2.68653 12.4889 3.45215 13.9628C3.82582 14.6821 4.20142 15.299 4.48242 15.7353C4.5457 15.8335 4.60583 15.9213 4.6582 15.9999H6.26074V15.4452C6.26085 14.8931 6.70858 14.4453 7.26074 14.4452H10.3916C10.9437 14.4454 11.3915 14.8931 11.3916 15.4452V15.9999H12.9072L14.2061 13.4374C14.2789 13.2938 14.3851 13.1701 14.5146 13.0771L14.6523 12.995L18 11.3261V9.44718H17.4346C17.056 9.4471 16.7095 9.23301 16.54 8.89444L14.9844 5.78507C14.8656 5.54768 14.8456 5.27218 14.9297 5.02042L15.2607 4.03214C14.1926 4.08445 13.2241 4.23429 12.4619 4.65714C12.1845 4.811 11.8502 4.82397 11.5615 4.6923Z" fill="#21A19A"/>
</svg>
