<svg width="20" height="20" viewBox="0 0 20 20" fill="none" xmlns="http://www.w3.org/2000/svg">
<path fill-rule="evenodd" clip-rule="evenodd" d="M2.00278 3.26953C2.00278 2.71725 2.45049 2.26953 3.00278 2.26953H8.00288C10.2399 2.26953 12.1343 3.7388 12.7727 5.76562H15.9241C18.163 5.76562 19.9808 7.63555 19.9909 9.94903L20.0027 12.6516C20.0103 14.3692 18.6649 15.7656 17.0028 15.7656H16.4187C16.0811 16.9024 15.0284 17.7315 13.7821 17.7315C12.5328 17.7315 11.4781 16.8985 11.1431 15.7576H9.14486C8.80955 16.8979 7.7551 17.7305 6.5062 17.7305C5.25729 17.7305 4.20284 16.8979 3.86753 15.7576H2.00003C0.895459 15.7576 3.04303e-05 14.8621 3.04303e-05 13.7576V9.98615C3.04303e-05 9.43387 0.447746 8.98615 1.00003 8.98615C1.55232 8.98615 2.00003 9.43387 2.00003 9.98615V13.7576H4.04238C4.4925 12.8524 5.42671 12.2305 6.5062 12.2305C7.58568 12.2305 8.51989 12.8524 8.97001 13.7576H11.0128L11.0029 7.2643C11 5.60949 9.6577 4.26953 8.00288 4.26953H3.00278C2.45049 4.26953 2.00278 3.82182 2.00278 3.26953ZM16.2153 13.699H17.0028C17.5568 13.699 18.0053 13.2335 18.0028 12.661L17.9955 10.998L13.0087 10.998L13.0108 12.3411C13.2555 12.2698 13.5143 12.2315 13.7821 12.2315C14.8377 12.2315 15.7544 12.8263 16.2153 13.699ZM17.766 8.99805C17.4239 8.30588 16.7273 7.83229 15.9241 7.83229H13.0038L13.0056 8.99805H17.766ZM6.5062 14.2305C6.09198 14.2305 5.7562 14.5663 5.7562 14.9805C5.7562 15.3947 6.09198 15.7305 6.5062 15.7305C6.92041 15.7305 7.2562 15.3947 7.2562 14.9805C7.2562 14.5663 6.92041 14.2305 6.5062 14.2305ZM13.0321 14.9815C13.0321 14.5673 13.3679 14.2315 13.7821 14.2315C14.1963 14.2315 14.5321 14.5673 14.5321 14.9815C14.5321 15.3957 14.1963 15.7315 13.7821 15.7315C13.3679 15.7315 13.0321 15.3957 13.0321 14.9815ZM3.26355 9.99805C3.26355 9.44576 3.71127 8.99805 4.26355 8.99805L7.26355 8.99805C7.81583 8.99805 8.26355 9.44576 8.26355 9.99805C8.26355 10.5503 7.81583 10.998 7.26355 10.998H4.26355C3.71126 10.998 3.26355 10.5503 3.26355 9.99805ZM0 6.76562C0 6.21334 0.447715 5.76562 1 5.76562L5.50668 5.76562C6.05897 5.76562 6.50668 6.21334 6.50668 6.76562C6.50668 7.31791 6.05897 7.76562 5.50668 7.76562L1 7.76562C0.447715 7.76562 0 7.31791 0 6.76562Z" fill="#21A19A"/>
</svg>
