<svg width="32" height="32" viewBox="0 0 32 32" fill="none" xmlns="http://www.w3.org/2000/svg">
<path d="M10.9645 11.4655C11.5503 10.8797 11.5503 9.92998 10.9645 9.34419C10.3788 8.7584 9.42901 8.7584 8.84322 9.34419C8.25743 9.92998 8.25743 10.8797 8.84322 11.4655C9.42901 12.0513 10.3788 12.0513 10.9645 11.4655Z" fill="#107F8C"/>
<path fill-rule="evenodd" clip-rule="evenodd" d="M3.68569 13.6284C3.58589 14.2604 3.79454 14.9021 4.247 15.3545L16.9749 28.0824C17.756 28.8635 19.0223 28.8635 19.8034 28.0824L27.5815 20.3043C28.3626 19.5232 28.3626 18.2569 27.5815 17.4758L14.8536 4.74792C14.4011 4.29546 13.7595 4.08681 13.1275 4.18661L6.40995 5.24727C5.55341 5.38251 4.8816 6.05432 4.74635 6.91087L3.68569 13.6284ZM5.66122 13.9403L6.72188 7.22279L13.4394 6.16213L26.1673 18.8901L18.3891 26.6682L5.66122 13.9403Z" fill="#107F8C"/>
</svg>
