<svg width="32" height="32" viewBox="0 0 32 32" fill="none" xmlns="http://www.w3.org/2000/svg">
<path fill-rule="evenodd" clip-rule="evenodd" d="M16 3.24023C13.9013 3.24023 12.2 4.94155 12.2 7.04023C12.2 9.13892 13.9013 10.8402 16 10.8402C18.0987 10.8402 19.8 9.13892 19.8 7.04023C19.8 4.94155 18.0987 3.24023 16 3.24023ZM14.2 7.04023C14.2 6.04612 15.0059 5.24023 16 5.24023C16.9941 5.24023 17.8 6.04612 17.8 7.04023C17.8 8.03435 16.9941 8.84023 16 8.84023C15.0059 8.84023 14.2 8.03435 14.2 7.04023Z" fill="#B2B8BF"/>
<path fill-rule="evenodd" clip-rule="evenodd" d="M7.03996 18.6406C4.94128 18.6406 3.23996 20.3419 3.23996 22.4406C3.23996 24.5393 4.94128 26.2406 7.03996 26.2406C9.13864 26.2406 10.84 24.5393 10.84 22.4406C10.84 20.3419 9.13864 18.6406 7.03996 18.6406ZM5.23996 22.4406C5.23996 21.4465 6.04585 20.6406 7.03996 20.6406C8.03407 20.6406 8.83996 21.4465 8.83996 22.4406C8.83996 23.4347 8.03407 24.2406 7.03996 24.2406C6.04585 24.2406 5.23996 23.4347 5.23996 22.4406Z" fill="#B2B8BF"/>
<path fill-rule="evenodd" clip-rule="evenodd" d="M21.16 22.4406C21.16 20.3419 22.8614 18.6406 24.96 18.6406C27.0587 18.6406 28.76 20.3419 28.76 22.4406C28.76 24.5393 27.0587 26.2406 24.96 26.2406C22.8614 26.2406 21.16 24.5393 21.16 22.4406ZM24.96 20.6406C23.9659 20.6406 23.16 21.4465 23.16 22.4406C23.16 23.4347 23.9659 24.2406 24.96 24.2406C25.9541 24.2406 26.76 23.4347 26.76 22.4406C26.76 21.4465 25.9541 20.6406 24.96 20.6406Z" fill="#B2B8BF"/>
<path d="M10.5721 9.7026C11.0251 9.38664 11.1361 8.76329 10.8202 8.31031C10.5042 7.85734 9.88088 7.74627 9.4279 8.06223C6.73258 9.94228 4.87794 12.9505 4.55144 16.4063C4.49949 16.9561 4.90311 17.444 5.45294 17.4959C6.00278 17.5479 6.49062 17.1443 6.54257 16.5944C6.81183 13.7445 8.34125 11.2587 10.5721 9.7026Z" fill="#B2B8BF"/>
<path d="M22.5721 8.06223C22.1191 7.74627 21.4958 7.85734 21.1798 8.31031C20.8639 8.76329 20.9749 9.38664 21.4279 9.7026C23.6588 11.2587 25.1882 13.7445 25.4574 16.5944C25.5094 17.1443 25.9972 17.5479 26.5471 17.4959C27.0969 17.444 27.5005 16.9561 27.4486 16.4063C27.1221 12.9505 25.2674 9.94228 22.5721 8.06223Z" fill="#B2B8BF"/>
<path d="M11.9291 26.0867C11.4302 25.8497 10.8337 26.062 10.5967 26.5608C10.3598 27.0597 10.5721 27.6562 11.0709 27.8932C12.566 28.6034 14.2381 29.0004 16 29.0004C17.7619 29.0004 19.434 28.6034 20.9291 27.8932C21.428 27.6562 21.6402 27.0597 21.4033 26.5608C21.1663 26.062 20.5698 25.8497 20.0709 26.0867C18.8383 26.6722 17.4589 27.0004 16 27.0004C14.5412 27.0004 13.1617 26.6722 11.9291 26.0867Z" fill="#B2B8BF"/>
</svg>
