<svg width="32" height="32" viewBox="0 0 32 32" fill="none" xmlns="http://www.w3.org/2000/svg">
<path fill-rule="evenodd" clip-rule="evenodd" d="M14.3333 3.49609C12.282 3.49609 10.619 5.15904 10.619 7.21038C10.619 9.26172 12.282 10.9247 14.3333 10.9247C14.3818 10.9247 14.43 10.9237 14.478 10.9219C11.1976 11.7093 7.95908 12.4925 5.76303 13.0281C5.22648 13.159 4.8976 13.7 5.02847 14.2366C5.15933 14.7731 5.70039 15.102 6.23694 14.9711C8.10897 14.5145 10.7404 13.8776 13.5093 13.2116L10.4798 27.3068C10.3638 27.8468 10.7074 28.3786 11.2474 28.4946C11.7873 28.6107 12.3191 28.2671 12.4352 27.7271L15.5144 13.4003L19.7249 25.1898C19.9107 25.7099 20.4829 25.981 21.003 25.7952C21.5231 25.6095 21.7942 25.0372 21.6084 24.5171L17.2503 12.3143C17.8126 12.1798 18.3691 12.0469 18.9146 11.9168C21.13 11.3887 23.1619 10.9081 24.6618 10.5597C25.4121 10.3854 26.0267 10.2448 26.4636 10.148C26.6826 10.0995 26.8527 10.063 26.9711 10.039C27.0299 10.027 27.0701 10.0194 27.0948 10.0151C27.6026 9.9673 28 9.53982 28 9.01953C28 8.46725 27.5523 8.01953 27 8.01953C26.8922 8.01953 26.7828 8.03919 26.7583 8.04359L26.7546 8.04424C26.7029 8.05321 26.6411 8.06518 26.5738 8.07883C26.4377 8.10641 26.254 8.14597 26.0311 8.19533C25.584 8.29434 24.9615 8.43679 24.2092 8.61155C22.7037 8.96128 20.6674 9.44295 18.4508 9.97135C17.6173 10.1701 16.758 10.3754 15.8916 10.5829C17.1645 9.9938 18.0476 8.70522 18.0476 7.21038C18.0476 5.15904 16.3846 3.49609 14.3333 3.49609ZM12.619 7.21038C12.619 6.26361 13.3865 5.49609 14.3333 5.49609C15.2801 5.49609 16.0476 6.26361 16.0476 7.21038C16.0476 8.15715 15.2801 8.92466 14.3333 8.92466C13.3865 8.92466 12.619 8.15715 12.619 7.21038ZM27.1073 10.013L27.0963 10.0148L27.0948 10.0151C27.0636 10.018 27.032 10.0195 27 10.0195C27.047 10.0195 27.0873 10.0155 27.1073 10.013ZM27.1073 10.013L27.1196 10.0111L27.1206 10.011C27.1206 10.011 27.1155 10.0119 27.1073 10.013Z" fill="#21A19A"/>
</svg>
