<svg width="20" height="20" viewBox="0 0 20 20" fill="none" xmlns="http://www.w3.org/2000/svg">
<path d="M9.99962 2C9.23604 2 8.54127 2.28277 8.01077 2.75026C7.59641 3.1154 6.96451 3.0755 6.59937 2.66115C6.23422 2.24679 6.27412 1.61488 6.68848 1.24974C7.57047 0.472506 8.73111 0 9.99962 0C11.2681 0 12.4288 0.472506 13.3108 1.24974C13.7251 1.61488 13.765 2.24679 13.3999 2.66115C13.0347 3.0755 12.4028 3.1154 11.9885 2.75026C11.458 2.28277 10.7632 2 9.99962 2Z" fill="#107F8C"/>
<path d="M2 6C2 4.89543 2.89543 4 4 4H16C17.1046 4 18 4.89543 18 6V7.49976C18 8.05204 17.5523 8.49976 17 8.49976C16.4477 8.49976 16 8.05204 16 7.49976V6L4 6V17.9999L6.99994 17.9998C7.55222 17.9997 7.99997 18.4474 8 18.9997C8.00003 19.552 7.55235 19.9997 7.00006 19.9998L4.00012 19.9999C2.8955 20 2 19.1046 2 17.9999V6Z" fill="#107F8C"/>
<path fill-rule="evenodd" clip-rule="evenodd" d="M16.1063 10.4037C15.5025 8.53177 12.854 8.53176 12.2503 10.4037L11.8526 11.637C11.8491 11.6477 11.8392 11.6549 11.828 11.6549L10.5322 11.652C8.56524 11.6477 7.7468 14.1666 9.3406 15.3193L10.3906 16.0787C10.3997 16.0852 10.4035 16.0969 10.4 16.1076L9.99687 17.3391C9.38497 19.2084 11.5277 20.7652 13.1164 19.6056L14.1631 18.8416C14.1721 18.835 14.1844 18.835 14.1935 18.8416L15.2402 19.6056C16.8289 20.7652 18.9716 19.2084 18.3597 17.3391L17.9566 16.1076C17.9531 16.0969 17.9569 16.0852 17.966 16.0787L19.016 15.3193C20.6098 14.1666 19.7913 11.6477 17.8244 11.652L16.5286 11.6549C16.5174 11.6549 16.5074 11.6477 16.504 11.637L16.1063 10.4037ZM14.1538 11.0176C14.1561 11.0102 14.1583 11.0053 14.1598 11.0024C14.1632 11.0012 14.1693 10.9998 14.1783 10.9998C14.1873 10.9998 14.1934 11.0012 14.1968 11.0024C14.1983 11.0053 14.2004 11.0102 14.2028 11.0176L14.6005 12.2509C14.8709 13.0893 15.6521 13.6568 16.533 13.6549L17.8288 13.652C17.8365 13.652 17.8419 13.6526 17.8451 13.653C17.8473 13.6559 17.8506 13.6613 17.8533 13.6698C17.8561 13.6784 17.8566 13.6847 17.8566 13.6883C17.8542 13.6906 17.8502 13.6941 17.8439 13.6987L16.7939 14.4581C16.0802 14.9743 15.7818 15.8926 16.0558 16.7297L16.4589 17.9613C16.4613 17.9686 16.4625 17.9739 16.463 17.9771C16.4609 17.9801 16.4569 17.9849 16.4496 17.9901C16.4456 17.993 16.4421 17.9951 16.4391 17.9965C16.4367 17.9977 16.4346 17.9984 16.4331 17.9989C16.4301 17.9974 16.4255 17.9947 16.4193 17.9901L15.3726 17.2261C14.6611 16.7068 13.6955 16.7068 12.984 17.2261L11.9373 17.9901C11.931 17.9947 11.9264 17.9974 11.9235 17.9989C11.9201 17.9978 11.9142 17.9954 11.907 17.9901C11.8997 17.9849 11.8956 17.9801 11.8935 17.9771C11.8941 17.9739 11.8952 17.9686 11.8976 17.9613L12.3008 16.7297C12.5748 15.8926 12.2764 14.9743 11.5626 14.4581L10.5126 13.6987C10.5063 13.6941 10.5023 13.6906 10.5 13.6883C10.5 13.6847 10.5005 13.6784 10.5032 13.6698C10.506 13.6613 10.5093 13.6559 10.5114 13.653C10.5147 13.6526 10.52 13.652 10.5278 13.652L11.8236 13.6549C12.7045 13.6568 13.4856 13.0893 13.756 12.2509L14.1538 11.0176ZM14.1617 10.9989C14.1617 10.9989 14.1618 10.9987 14.1617 10.9989V10.9989ZM14.1949 10.999C14.1948 10.9987 14.1949 10.999 14.1949 10.999V10.999ZM17.8592 13.6854C17.8592 13.6854 17.8594 13.6852 17.8592 13.6854V13.6854ZM10.5072 13.6539C10.507 13.654 10.5072 13.6539 10.5072 13.6539V13.6539Z" fill="#107F8C"/>
</svg>
