<svg width="20" height="20" viewBox="0 0 20 20" fill="none" xmlns="http://www.w3.org/2000/svg">
<path fill-rule="evenodd" clip-rule="evenodd" d="M7.5 0C5.01472 0 3 2.01472 3 4.5C3 6.98528 5.01472 9 7.5 9C9.98528 9 12 6.98528 12 4.5C12 2.01472 9.98528 0 7.5 0ZM5 4.5C5 3.11929 6.11929 2 7.5 2C8.88071 2 10 3.11929 10 4.5C10 5.88071 8.88071 7 7.5 7C6.11929 7 5 5.88071 5 4.5Z" fill="#21A19A"/>
<path d="M7.44388 12.47C6.08032 12.47 4.76007 11.9992 3.69836 11.1425C2.61855 12.2008 2 13.6686 2 15.2077C2 15.4667 2.01876 15.7326 2.05599 16.0001H7.44388C7.99616 16.0001 8.44388 16.4478 8.44388 17.0001C8.44388 17.5524 7.99616 18.0001 7.44388 18.0001H1.82736C0.971534 18.0001 0.263154 17.3765 0.118972 16.5552C0.0408382 16.1084 0 15.6548 0 15.2077C0 13.0272 0.921082 10.9447 2.53272 9.49411L2.53415 9.49282C3.18637 8.90804 4.16609 8.90208 4.82535 9.47748L4.8272 9.4791C5.55759 10.1198 6.48735 10.47 7.44388 10.47C8.16505 10.47 8.86834 10.2717 9.48379 9.90077C9.95681 9.61567 10.5714 9.76801 10.8565 10.241C11.1416 10.714 10.9892 11.3286 10.5162 11.6137C9.59291 12.1702 8.53328 12.47 7.44388 12.47Z" fill="#21A19A"/>
<path d="M11 13C10.4477 13 10 13.4477 10 14C10 14.5523 10.4477 15 11 15H18C18.5523 15 19 14.5523 19 14C19 13.4477 18.5523 13 18 13H11Z" fill="#21A19A"/>
<path d="M11 17C10.4477 17 10 17.4477 10 18C10 18.5523 10.4477 19 11 19H18C18.5523 19 19 18.5523 19 18C19 17.4477 18.5523 17 18 17H11Z" fill="#21A19A"/>
</svg>
