<svg width="20" height="20" viewBox="0 0 20 21" fill="none" xmlns="http://www.w3.org/2000/svg">
<path d="M7.58125 0.686222C8.03067 1.00723 8.13476 1.63178 7.81375 2.08119L6.08603 4.5H13.914L12.1862 2.08119C11.8652 1.63178 11.9693 1.00723 12.4187 0.686222C12.8682 0.365213 13.4927 0.469305 13.8137 0.918717L16.3137 4.41872C16.3327 4.44523 16.3501 4.47236 16.3661 4.5H19C19.5523 4.5 20 4.94772 20 5.5C20 6.05228 19.5523 6.5 19 6.5H2.34404L4.74404 14.5H8.00001C8.55229 14.5 9.00001 14.9477 9.00001 15.5C9.00001 16.0523 8.55229 16.5 8.00001 16.5H4.00001C3.5584 16.5 3.16908 16.2103 3.04218 15.7873L0.042182 5.78735C-0.0486503 5.48457 0.00902212 5.15668 0.197715 4.90307C0.386409 4.64946 0.683902 4.5 1.00001 4.5H3.63388C3.64988 4.47236 3.66734 4.44523 3.68628 4.41872L6.18628 0.918717C6.50729 0.469305 7.13184 0.365213 7.58125 0.686222Z" fill="#B2B8BF"/>
<path fill-rule="evenodd" clip-rule="evenodd" d="M14.1775 19.5832H14.1831L14.1831 17.7336C14.3976 17.8535 14.6246 17.9485 14.8622 18.0181C15.2157 18.1173 15.5636 18.1671 15.9058 18.1671C16.4996 18.1671 17.0162 18.0573 17.4529 17.8346C17.8901 17.6117 18.2256 17.2873 18.4578 16.8626C18.6942 16.4377 18.8105 15.9264 18.8105 15.3322C18.8105 14.8118 18.6911 14.3584 18.449 13.9755C18.2071 13.5928 17.8581 13.2975 17.4056 13.0887C17.37 13.0722 17.3338 13.0564 17.297 13.0413C17.6072 12.8462 17.8582 12.6025 18.0485 12.3099C18.2859 11.9451 18.4043 11.5363 18.4043 11.0856C18.4043 10.5442 18.2785 10.0795 18.0229 9.69589C17.7682 9.30939 17.4085 9.01634 16.9473 8.81612C16.4907 8.6118 15.9566 8.51099 15.3472 8.51099C14.773 8.51099 14.2462 8.62994 13.7687 8.86868C13.2954 9.10749 12.9145 9.44251 12.6273 9.87327C12.3383 10.3068 12.1949 10.8114 12.1949 11.384V19.5039C12.1949 20.0522 12.6395 20.4967 13.1878 20.4967C13.7093 20.4967 14.1367 20.0941 14.1775 19.5832ZM16.2947 11.8817C16.2247 12.0606 16.1104 12.1973 15.9523 12.2937C15.8869 12.3345 15.5687 12.3673 15.2172 12.3914H14.1831V11.384C14.1831 11.115 14.234 10.8872 14.3325 10.6979C14.436 10.5069 14.5746 10.3613 14.7473 10.2592C14.9244 10.1529 15.1238 10.0992 15.3472 10.0992C15.5936 10.0992 15.7906 10.1537 15.9436 10.2569L15.9448 10.2577C16.1012 10.3594 16.2157 10.4934 16.2897 10.661L16.2903 10.6624C16.3699 10.8334 16.4098 11.0165 16.4098 11.2126C16.4098 11.4758 16.3707 11.6977 16.2953 11.8803L16.2947 11.8817ZM15.4869 16.5789C15.1224 16.5789 14.8071 16.5251 14.5391 16.4196C14.4048 16.3646 14.2863 16.301 14.1831 16.2289V13.9015L15.5122 13.9015L15.5138 13.9015C15.8027 13.9017 16.0413 13.9608 16.2333 14.0744L16.2343 14.075C16.4268 14.185 16.5726 14.3444 16.6716 14.5544C16.7711 14.7613 16.8224 15.0113 16.8224 15.3068C16.8224 15.5528 16.7681 15.7696 16.6613 15.9595L16.6607 15.9606C16.5582 16.1498 16.408 16.3002 16.2089 16.4117C16.0164 16.5217 15.777 16.5789 15.4869 16.5789Z" fill="#B2B8BF"/>
</svg>
