<svg width="20" height="20" viewBox="0 0 20 20" fill="none" xmlns="http://www.w3.org/2000/svg">
<path fill-rule="evenodd" clip-rule="evenodd" d="M10.2308 15C12.1265 15 14 13.6848 14 11.5C14 9.31518 12.1265 8.00002 10.2308 8.00002L8 8.00002V7H12C12.5523 7 13 6.55228 13 6C13 5.44772 12.5523 5 12 5H8C6.89543 5 6 5.89543 6 7V13.999C6 13.9987 6 13.9993 6 13.999C6 13.9994 6 14.0006 6 14.001V15H10.2308ZM8 13H10.2308C11.3071 13 12 12.3152 12 11.5C12 10.6848 11.3071 10 10.2308 10H8L8 13Z" fill="#107F8C"/>
<path fill-rule="evenodd" clip-rule="evenodd" d="M1 10C1 5.02944 5.02944 1 10 1C14.9706 1 19 5.02944 19 10C19 14.9706 14.9706 19 10 19H2C1.44772 19 1 18.5523 1 18V10ZM10 3C6.13401 3 3 6.13401 3 10V17H10C13.866 17 17 13.866 17 10C17 6.13401 13.866 3 10 3Z" fill="#107F8C"/>
</svg>
