<svg width="20" height="20" viewBox="0 0 20 20" fill="none" xmlns="http://www.w3.org/2000/svg">
<path d="M7.34452 0.0611596C7.1222 -0.0203865 6.87815 -0.0203865 6.65582 0.0611596L0.655908 2.26186C0.137408 2.45204 -0.128748 3.02653 0.0614316 3.54503C0.251611 4.06353 0.826109 4.32969 1.34461 4.13951L7.00017 2.06512L12.6557 4.13951C13.1742 4.32969 13.7487 4.06353 13.9389 3.54503C14.1291 3.02653 13.8629 2.45204 13.3444 2.26186L7.34452 0.0611596Z" fill="#B2B8BF"/>
<path d="M1.03038 11.9998C0.478104 11.9998 0.0303951 12.4475 0.0303951 12.9998C0.0303951 13.5521 0.478104 13.9998 1.03038 13.9998H8.53028C9.08255 13.9998 9.53026 13.5521 9.53026 12.9998C9.53026 12.4475 9.08255 11.9998 8.53028 11.9998H1.03038Z" fill="#B2B8BF"/>
<path d="M7.0303 4.99993C7.58257 4.99993 8.03028 5.44764 8.03028 5.99992V9.7303C8.03028 10.2826 7.58257 10.7303 7.0303 10.7303C6.47802 10.7303 6.03031 10.2826 6.03031 9.7303V5.99992C6.03031 5.44764 6.47802 4.99993 7.0303 4.99993Z" fill="#B2B8BF"/>
<path d="M4.03034 5.99992C4.03034 5.44764 3.58263 4.99993 3.03035 4.99993C2.47808 4.99993 2.03037 5.44764 2.03037 5.99992V9.7303C2.03037 10.2826 2.47808 10.7303 3.03035 10.7303C3.58263 10.7303 4.03034 10.2826 4.03034 9.7303V5.99992Z" fill="#B2B8BF"/>
<path fill-rule="evenodd" clip-rule="evenodd" d="M13.0001 7.99989C13.0001 7.44761 13.4478 6.9999 14 6.9999H16.4781C17.8156 6.9999 18.7706 7.49652 19.3502 8.29863C19.8877 9.04238 20 9.90947 20 10.4999V10.6672C20 11.3228 19.8162 12.1537 19.2441 12.8396C18.6432 13.5599 17.7143 13.9998 16.4781 13.9998H15.0302V14.9998H16.1552C16.7074 14.9998 17.1552 15.4475 17.1552 15.9998C17.1552 16.5521 16.7074 16.9998 16.1552 16.9998H15.0302V17.9997C15.0302 18.552 14.5825 18.9997 14.0302 18.9997C13.4779 18.9997 13.0302 18.552 13.0302 17.9997V16.9998H12.1552C11.6029 16.9998 11.1552 16.5521 11.1552 15.9998C11.1552 15.4475 11.6029 14.9998 12.1552 14.9998H13.0302V13.9998H12.1601C11.6078 13.9998 11.1601 13.5521 11.1601 12.9998C11.1601 12.4475 11.6078 11.9998 12.1601 11.9998H13.0302V8.24457C13.0105 8.16627 13.0001 8.0843 13.0001 7.99989ZM15.0302 11.9998V8.99987H16.4781C17.2757 8.99987 17.5817 9.26585 17.7292 9.47004C17.9189 9.73258 18 10.1155 18 10.4999V10.6672C18 10.9865 17.9057 11.3219 17.7083 11.5585C17.5395 11.7608 17.2076 11.9998 16.4781 11.9998H15.0302Z" fill="#B2B8BF"/>
</svg>
