<svg width="32" height="32" viewBox="0 0 32 32" fill="none" xmlns="http://www.w3.org/2000/svg">
<path fill-rule="evenodd" clip-rule="evenodd" d="M15.7194 4.04016C15.9026 3.98661 16.0974 3.98661 16.2806 4.04016L26.2806 6.96308C26.7069 7.08771 27 7.47869 27 7.92292V13.601C27 18.9194 24.2013 23.8744 19.5669 26.8747C19.5669 26.8748 19.567 26.8747 19.5669 26.8747L16.5449 28.8385C16.2135 29.0538 15.7865 29.0538 15.4551 28.8385L12.4301 26.8728C7.79988 23.8498 5 18.8969 5 13.601V7.92292C5 7.47869 5.29306 7.08771 5.71945 6.96308L15.7194 4.04016ZM7 8.67247V13.601C7 18.1757 9.41951 22.5185 13.5228 25.1977C13.5226 25.1975 13.523 25.1978 13.5228 25.1977L16 26.8074L18.4798 25.196C22.5792 22.5421 25 18.2014 25 13.601V8.67247L16 6.04184L7 8.67247Z" fill="#21A19A"/>
<path fill-rule="evenodd" clip-rule="evenodd" d="M14 18V17H13C12.4477 17 12 16.5523 12 16C12 15.4477 12.4477 15 13 15H14V11C14 10.4477 14.4477 10 15 10C15.039 10 15.0775 10.0022 15.1153 10.0066C15.1532 10.0022 15.1916 10 15.2306 10H17.8383C19.0898 10 19.9565 10.5521 20.4556 11.3579C20.9085 12.0891 21 12.9309 21 13.5V13.6674C21 14.2913 20.8517 15.0994 20.3645 15.7808C19.8412 16.5127 18.9936 17 17.8383 17H16V18H16.9884C17.5406 18 17.9884 18.4477 17.9884 19C17.9884 19.5523 17.5406 20 16.9884 20H16V21C16 21.5523 15.5523 22 15 22C14.4477 22 14 21.5523 14 21V20H13C12.4477 20 12 19.5523 12 19C12 18.4477 12.4477 18 13 18H14ZM16 15V12H17.8383C18.417 12 18.6311 12.2105 18.7553 12.411C18.9257 12.6861 19 13.0943 19 13.5V13.6674C19 14.0182 18.9099 14.3765 18.7375 14.6176C18.6011 14.8084 18.3679 15 17.8383 15H16Z" fill="#21A19A"/>
</svg>
