<svg width="20" height="20" viewBox="0 0 20 20" fill="none" xmlns="http://www.w3.org/2000/svg">
<path fill-rule="evenodd" clip-rule="evenodd" d="M9 10.0171V13.1429C9 13.7508 9.20869 14.297 9.60539 14.6937C9.99269 15.081 10.5026 15.2679 11 15.2679L11.028 15.2679C11.2015 15.2681 11.4811 15.2683 11.7516 15.2165C12.0549 15.1584 12.4653 15.0144 12.7772 14.6293C13.1247 14.2001 13.0585 13.5704 12.6293 13.2228C12.2406 12.9081 11.6876 12.9327 11.3285 13.2588C11.3069 13.261 11.2793 13.2631 11.2444 13.2646C11.1791 13.2675 11.1086 13.2678 11.0162 13.2679C11.0102 13.2505 11 13.2114 11 13.1429V10.0171H15C15.5523 10.0171 16 9.5694 16 9.01712C16 7.45153 14.8781 6.44828 13.7494 5.89115C12.9108 5.47719 11.9325 5.23029 11 5.12749V5C11 4.44772 10.5523 4 10 4C9.44771 4 9 4.44772 9 5V5.12749C8.06754 5.23029 7.08917 5.47719 6.25057 5.89115C5.12192 6.44828 4 7.45153 4 9.01712C4 9.5694 4.44772 10.0171 5 10.0171H9ZM10.1852 8.01712C10.1252 8.00588 10.0633 8 10 8C9.93671 8 9.8748 8.00588 9.81478 8.01712H6.58785C6.73707 7.9032 6.91838 7.79189 7.13585 7.68455C7.94971 7.2828 9.03901 7.07222 9.99449 7.07141L10 7.07143L10.0055 7.07141C10.961 7.07222 12.0503 7.2828 12.8642 7.68455C13.0816 7.79189 13.2629 7.9032 13.4122 8.01712H10.1852Z" fill="#21A19A"/>
<path fill-rule="evenodd" clip-rule="evenodd" d="M10.259 0.0376651C10.081 -0.0126332 9.89245 -0.0125534 9.71445 0.0378955L1.72738 2.3016C1.29706 2.42357 1.00006 2.81644 1.00006 3.26371L1 8.43367L1.00175 8.60316L1.00198 8.6138C1.05314 11.012 2.11654 13.3133 3.66894 15.2495C5.22478 17.1901 7.31872 18.8257 9.5536 19.9011C9.68888 19.9662 9.83708 20 9.9872 20H10.0129C10.163 20 10.3112 19.9662 10.4465 19.9011C12.7091 18.8124 14.8276 17.1492 16.3895 15.1763C17.9479 13.2078 19.0001 10.8667 19.0001 8.43367V3.26371C19.0001 2.81613 18.7026 2.42306 18.2719 2.30137L10.259 0.0376651ZM3.00006 4.01968L9.98758 2.03926L17.0001 4.02034V8.43367C17.0001 10.2892 16.1906 12.2054 14.8214 13.9349C13.5518 15.5387 11.8421 16.9269 10.0001 17.8879C8.18264 16.9397 6.49377 15.5756 5.22935 13.9985C3.86567 12.2976 3.04222 10.4102 3.00164 8.57627L3.00006 8.42833V4.01968Z" fill="#21A19A"/>
</svg>
