<svg width="20" height="20" viewBox="0 0 20 20" fill="none" xmlns="http://www.w3.org/2000/svg">
<path d="M10.0005 1C10.5528 1 11.0005 1.44772 11.0005 2V4C11.0005 4.55228 10.5528 5 10.0005 5C9.4482 5 9.00049 4.55228 9.00049 4V2C9.00049 1.44772 9.4482 1 10.0005 1Z" fill="#107F8C"/>
<path fill-rule="evenodd" clip-rule="evenodd" d="M4.42089 7.89984C3.9623 7.34994 3.27202 7 2.5 7C1.11929 7 0 8.11929 0 9.5C0 10.7187 0.872022 11.7337 2.02614 11.9552C2.00885 12.1345 2 12.3163 2 12.5C2 15.5083 4.3726 18 7.36364 18C9.03329 18 10.138 17.5562 11.112 16.8865C11.564 16.5758 11.9826 16.2204 12.4028 15.8687C12.8208 15.5192 13.2446 15.1704 13.7483 14.824C14.7719 14.1204 16.1681 13.3977 17.3389 12.8404C17.671 12.6824 19.3814 11.9244 19.3814 11.9244C19.7558 11.7699 20 11.405 20 11V8C20 7.44772 19.5523 7 19 7H12C11.4477 7 11 7.44772 11 8V9H9V8C9 7.44772 8.55228 7 8 7H7.36364C6.27189 7 5.26254 7.33196 4.42089 7.89984ZM2.5 9C2.22386 9 2 9.22386 2 9.5C2 9.77614 2.22386 10 2.5 10H2.5859C2.70036 9.77037 2.83012 9.54988 2.97386 9.34002C2.90714 9.14233 2.72019 9 2.5 9ZM7 9.02042C5.33578 9.20818 4 10.6694 4 12.5C4 14.4622 5.53473 16 7.36364 16C8.60308 16 9.31656 15.6938 9.97893 15.2385C10.379 14.9634 10.7479 14.6456 11.1199 14.3344C11.5429 13.9808 12.0281 13.5796 12.6153 13.176C13.6288 12.4792 14.9138 11.7969 16.0183 11.2569C16.6722 10.9372 18 10.3403 18 10.3403V9H13V10C13 10.5523 12.5523 11 12 11H8C7.44772 11 7 10.5523 7 10V9.02042Z" fill="#107F8C"/>
<path d="M14.8946 3.44766C15.1416 2.95371 14.9414 2.35301 14.4475 2.10597C13.9535 1.85893 13.3528 2.05909 13.1058 2.55304L12.1058 4.55248C11.8588 5.04643 12.0589 5.64713 12.5529 5.89417C13.0468 6.14121 13.6475 5.94105 13.8946 5.4471L14.8946 3.44766Z" fill="#107F8C"/>
<path d="M5.55266 2.10492C5.0587 2.35193 4.8585 2.95262 5.10552 3.44658L6.10551 5.44631C6.35252 5.94027 6.95321 6.14047 7.44717 5.89345C7.94114 5.64644 8.14133 5.04575 7.89432 4.55179L6.89433 2.55206C6.64731 2.0581 6.04663 1.8579 5.55266 2.10492Z" fill="#107F8C"/>
</svg>
