<svg width="32" height="32" viewBox="0 0 32 32" fill="none" xmlns="http://www.w3.org/2000/svg">
<path d="M9.15367 10.9665C9.70214 10.3397 10.5113 10 11.5 10C13.5523 10 14.5 11.4477 14.5 12.5C14.5 13.0523 14.0523 13.5 13.5 13.5C12.9477 13.5 12.5 13.0523 12.5 12.5C12.5 12.5079 12.4996 12.5065 12.497 12.498C12.489 12.4712 12.4597 12.3739 12.3554 12.2696C12.2478 12.1621 12.0105 12 11.5 12C10.9887 12 10.7666 12.1603 10.6588 12.2835C10.53 12.4307 10.4375 12.674 10.4375 13C10.4375 13.3082 10.5219 13.5918 10.7063 13.8375C10.8912 14.0841 11.2228 14.3535 11.8162 14.5513C13.5681 15.1353 15 16.4249 15 18.5C15 19.4772 14.6699 20.3693 14.0196 21.0196C13.3693 21.6699 12.4772 22 11.5 22C10.5228 22 9.63067 21.6699 8.98039 21.0196C8.33011 20.3693 8 19.4772 8 18.5C8 17.9477 8.44772 17.5 9 17.5C9.55228 17.5 10 17.9477 10 18.5C10 19.0228 10.1699 19.3807 10.3946 19.6054C10.6193 19.8301 10.9772 20 11.5 20C12.0228 20 12.3807 19.8301 12.6054 19.6054C12.8301 19.3807 13 19.0228 13 18.5C13 17.5751 12.4319 16.8647 11.1838 16.4487C10.2772 16.1465 9.57756 15.6659 9.10625 15.0375C8.63431 14.4082 8.4375 13.6918 8.4375 13C8.4375 12.326 8.62623 11.5693 9.15367 10.9665Z" fill="#107F8C"/>
<path d="M17 15.5C17.1908 15.5 17.3692 15.5535 17.5209 15.6462C17.8294 15.5494 18.1631 15.5 18.5 15.5C19.0347 15.5 19.5654 15.6251 19.9993 15.8679C20.4309 15.6254 20.9594 15.5 21.4961 15.5C22.7575 15.5 23.9961 16.196 23.9961 17.4922L23.9961 17.4961L23.9961 17.5V21.0196C23.9961 21.5719 23.5484 22.0196 22.9961 22.0196C22.4438 22.0196 21.9961 21.5719 21.9961 21.0196V17.5957C21.9327 17.5599 21.7815 17.5 21.4961 17.5C21.2101 17.5 21.061 17.5601 21 17.5949V21.0196C21 21.5719 20.5523 22.0196 20 22.0196C19.4477 22.0196 19 21.5719 19 21.0196V17.5957C18.9366 17.5599 18.7854 17.5 18.5 17.5C18.2077 17.5 18.0584 17.5628 18 17.5972V21.0196C18 21.5719 17.5523 22.0196 17 22.0196C16.4477 22.0196 16 21.5719 16 21.0196V16.5C16 15.9477 16.4477 15.5 17 15.5Z" fill="#107F8C"/>
<path fill-rule="evenodd" clip-rule="evenodd" d="M4 10C4 6.68629 6.68629 4 10 4H22C25.3137 4 28 6.68629 28 10V22C28 25.3137 25.3137 28 22 28H10C6.68629 28 4 25.3137 4 22V10ZM10 6H22C24.2091 6 26 7.79086 26 10V22C26 24.2091 24.2091 26 22 26H10C7.79086 26 6 24.2091 6 22V10C6 7.79086 7.79086 6 10 6Z" fill="#107F8C"/>
</svg>
