<svg width="32" height="32" viewBox="0 0 32 32" fill="none" xmlns="http://www.w3.org/2000/svg">
<path fill-rule="evenodd" clip-rule="evenodd" d="M20.9265 5.18085C21.379 4.86414 22.0025 4.97417 22.3192 5.42662L25.5206 10.0001H29C29.3466 10.0001 29.6685 10.1795 29.8507 10.4744C30.0329 10.7692 30.0494 11.1373 29.8944 11.4473L27.8944 15.4473C27.6474 15.9413 27.0468 16.1415 26.5528 15.8945C26.0588 15.6475 25.8586 15.0469 26.1056 14.5529L27.382 12.0001H25.014L25.0029 12.0002L24.9877 12.0001H8.00797H7.99077H5.38743L9.72077 25.0001H14C14.5523 25.0001 15 25.4478 15 26.0001C15 26.5524 14.5523 27.0001 14 27.0001H9.00001C8.56958 27.0001 8.18744 26.7247 8.05132 26.3163L3.05132 11.3163C2.94967 11.0114 3.00081 10.6761 3.18877 10.4154C3.37672 10.1546 3.67856 10.0001 4.00001 10.0001H7.51938L11.2191 5.37539C11.5641 4.94413 12.1934 4.87421 12.6247 5.21922C13.056 5.56423 13.1259 6.19352 12.7809 6.62478L10.0806 10.0001H23.0793L20.6808 6.57355C20.364 6.1211 20.4741 5.49757 20.9265 5.18085ZM27.9971 26.9371L27.9971 20.9961C27.9971 20.4438 27.5494 19.9961 26.9971 19.9961C26.4448 19.9961 25.9971 20.4438 25.9971 20.9961L25.9971 24.583L19.7067 18.293C19.3162 17.9025 18.683 17.9025 18.2925 18.293C17.902 18.6836 17.902 19.3167 18.2925 19.7072L24.5851 25.9995H20.9971C20.4448 25.9995 19.9971 26.4473 19.9971 26.9995C19.9971 27.5518 20.4448 27.9995 20.9971 27.9995H26.9971C27.0912 27.9995 27.1823 27.9865 27.2687 27.9622C27.4289 27.9175 27.5801 27.8322 27.7061 27.7062C27.9171 27.4951 28.0141 27.2133 27.9971 26.9371Z" fill="#B2B8BF"/>
</svg>
