<svg width="32" height="32" viewBox="0 0 32 32" fill="none" xmlns="http://www.w3.org/2000/svg">
<path fill-rule="evenodd" clip-rule="evenodd" d="M20.9908 15.7491C20.606 15.5886 20.1838 15.5 19.7408 15.5C17.9459 15.5 16.4908 16.9551 16.4908 18.75C16.4908 20.5449 17.9459 22 19.7408 22C20.2753 22 20.7797 21.871 21.2245 21.6424C21.4079 21.861 21.6832 21.9999 21.9908 21.9999C22.5431 21.9999 22.9908 21.5522 22.9908 20.9999V14.4642C22.9908 13.9119 22.5431 13.4642 21.9908 13.4642C21.4386 13.4642 20.9908 13.9119 20.9908 14.4642V15.7491ZM19.7408 17.5C19.0505 17.5 18.4908 18.0596 18.4908 18.75C18.4908 19.4404 19.0505 20 19.7408 20C20.4312 20 20.9908 19.4404 20.9908 18.75C20.9908 18.0596 20.4312 17.5 19.7408 17.5Z" fill="#21A19A"/>
<path fill-rule="evenodd" clip-rule="evenodd" d="M9 21.0041C9 21.5564 9.44772 22.0041 10 22.0041C10.5523 22.0041 11 21.5564 11 21.0041V17.4649C11.5883 17.8052 12.2714 18 13 18C15.2091 18 17 16.2091 17 14C17 11.7909 15.2091 10 13 10C12.2346 10 11.5193 10.215 10.9114 10.5879C10.7544 10.2412 10.4054 10 10 10C9.44772 10 9 10.4477 9 11V21.0041ZM11 14C11 12.8954 11.8954 12 13 12C14.1046 12 15 12.8954 15 14C15 15.1046 14.1046 16 13 16C11.8954 16 11 15.1046 11 14Z" fill="#21A19A"/>
<path fill-rule="evenodd" clip-rule="evenodd" d="M4 10C4 6.68629 6.68629 4 10 4H22C25.3137 4 28 6.68629 28 10V22C28 25.3137 25.3137 28 22 28H10C6.68629 28 4 25.3137 4 22V10ZM10 6H22C24.2091 6 26 7.79086 26 10V22C26 24.2091 24.2091 26 22 26H10C7.79086 26 6 24.2091 6 22V10C6 7.79086 7.79086 6 10 6Z" fill="#21A19A"/>
</svg>
