<svg width="20" height="20" viewBox="0 0 20 20" fill="none" xmlns="http://www.w3.org/2000/svg">
<path fill-rule="evenodd" clip-rule="evenodd" d="M6 2C4.34315 2 3 3.34315 3 5C1.34315 5 0 6.34315 0 8C0 9.65685 1.34315 11 3 11V13C3 14.6569 4.34315 16 6 16H14C15.6569 16 17 14.6569 17 13V7C17.5528 7 18 7.44745 18 7.99925V13C18 14.1176 17.765 14.9913 16.8519 15.8981C16.3673 16.3795 15.9407 16.6389 15.5241 16.7881C15.0985 16.9405 14.6224 17 14 17H10C9.44775 17 9 17.4477 9 18C9 18.5523 9.44775 19 10 19H14C14.7417 19 15.4724 18.931 16.1984 18.671C16.9333 18.4078 17.603 17.971 18.2613 17.3172C19.637 15.9508 20 14.518 20 13V7.99925C20 6.34191 18.6564 5 17 5C17 3.34315 15.6569 2 14 2H6ZM2 8C2 7.44772 2.44772 7 3 7V9C2.44772 9 2 8.55228 2 8ZM5 5C5 4.44772 5.44772 4 6 4H14C14.5523 4 15 4.44772 15 5V13C15 13.5523 14.5523 14 14 14H6C5.44772 14 5 13.5523 5 13V5ZM7.5 8C8.05229 8 8.5 7.55228 8.5 7C8.5 6.44772 8.05229 6 7.5 6C6.94772 6 6.5 6.44772 6.5 7C6.5 7.55228 6.94772 8 7.5 8ZM13.5 7C13.5 7.55228 13.0523 8 12.5 8C11.9477 8 11.5 7.55228 11.5 7C11.5 6.44772 11.9477 6 12.5 6C13.0523 6 13.5 6.44772 13.5 7ZM8.58182 10.1867C8.14113 9.8712 7.52685 9.96426 7.2 10.4001C6.86863 10.8419 6.95817 11.4687 7.4 11.8001L7.40153 11.8012L7.40313 11.8024L7.40654 11.8049L7.41416 11.8105L7.43263 11.8237C7.44639 11.8334 7.46305 11.8448 7.48259 11.8576C7.52168 11.8832 7.57239 11.9147 7.63474 11.9498C7.75945 12.0199 7.93085 12.1046 8.14887 12.1864C8.58679 12.3506 9.20547 12.5001 10 12.5001C10.7945 12.5001 11.4132 12.3506 11.8511 12.1864C12.0691 12.1046 12.2405 12.0199 12.3653 11.9498C12.4276 11.9147 12.4783 11.8832 12.5174 11.8576C12.537 11.8448 12.5536 11.8334 12.5674 11.8237L12.5858 11.8105L12.5935 11.8049L12.5969 11.8024L12.5985 11.8012L12.6 11.8001C13.0418 11.4687 13.1314 10.8419 12.8 10.4001C12.4731 9.96426 11.8589 9.8712 11.4182 10.1867C11.4136 10.1897 11.4024 10.1967 11.3847 10.2066C11.3428 10.2302 11.2642 10.2705 11.1489 10.3137C10.9201 10.3995 10.5388 10.5001 10 10.5001C9.46119 10.5001 9.07987 10.3995 8.85112 10.3137C8.73581 10.2705 8.65721 10.2302 8.61526 10.2066C8.59759 10.1967 8.58644 10.1897 8.58182 10.1867Z" fill="#107F8C"/>
</svg>
