<svg width="20" height="22" viewBox="0 0 20 22" fill="none" xmlns="http://www.w3.org/2000/svg">
<path d="M16.6878 12.3031C16.4053 11.8374 15.29 11.8571 14.1273 11.8775C14.0406 11.8791 13.9536 11.8806 13.8666 11.8819H12.043C10.8573 11.8819 7.98057 11.3714 7.00708 9.40848C6.71675 8.82306 6.57266 8.36518 6.54791 7.79943C6.52316 7.23367 6.63178 6.67008 6.86476 6.15544C7.1844 5.5242 7.63618 4.97145 8.18847 4.53588C8.74076 4.10032 9.38022 3.79246 10.0621 3.63385C8.87802 3.62894 7.71228 3.93037 6.67501 4.50967C6.13936 4.81968 5.64514 5.19812 5.20443 5.63572C4.70552 6.15909 4.33018 6.79047 4.10667 7.48232C3.88317 8.17417 3.81733 8.90844 3.91411 9.62984C4.0441 10.3913 4.342 11.1131 4.78558 11.7414C5.22915 12.3697 5.80694 12.8882 6.47577 13.2582C8.4711 14.5053 10.8812 14.4233 12.5786 14.3656L12.5953 14.365H13.544C14.3125 14.365 14.8533 14.4517 15.0336 14.827C15.0778 14.9646 15.0778 15.1129 15.0336 15.2505C15.0336 15.3179 15.1 15.3371 15.1569 15.2505C15.8829 14.4248 16.3365 13.7008 16.608 12.6292L16.6878 12.3031Z" fill="#21A19A"/>
<path d="M12.6268 17.0414C12.5546 16.6677 11.683 16.596 10.5995 16.5069L10.5928 16.5064C9.77958 16.4496 8.97168 16.3263 8.17618 16.1373C7.12431 15.8857 6.14275 15.3725 5.31112 14.6395C4.47949 13.9064 3.82121 12.9742 3.38968 11.9183C3.28705 11.7488 3.28705 11.7787 3.28705 11.9582C3.51777 13.1107 4.00923 14.1852 4.71842 15.0877C5.42762 15.9901 6.33292 16.6929 7.3551 17.1347C8.44258 17.6047 9.28856 17.6434 9.53482 17.6434H10.1169C10.9777 17.6157 11.8361 17.406 12.6268 17.0414Z" fill="#21A19A"/>
<path d="M8.58625 6.61858C8.55205 6.80784 8.51247 7.27417 8.60594 7.68325C8.69941 8.09233 8.89059 8.47323 9.16342 8.79397C9.92529 9.60279 10.9046 10.1791 11.986 10.4551C13.0674 10.731 14.2059 10.6951 15.2675 10.3516C15.8699 10.1411 16.3804 9.73097 16.7129 9.19063C16.5681 8.55847 16.3347 7.9495 16.0195 7.38144C15.8119 7.59825 15.5536 7.76107 15.2675 7.85551C14.7162 8.02365 14.1319 8.05603 13.5651 7.94981C12.9984 7.8436 12.4664 7.602 12.0152 7.24599C11.8996 7.11585 11.8177 6.95967 11.7769 6.79106C11.736 6.62244 11.7374 6.44649 11.7808 6.27851C11.8559 6.05281 11.9833 5.84769 12.153 5.67966C12.3226 5.51163 12.5296 5.38537 12.7575 5.31102C13.1817 5.20464 13.6191 5.15903 14.0564 5.17558C13.6064 4.8544 13.1331 4.5666 12.6403 4.31452C12.5189 4.25403 12.3855 4.22098 12.2496 4.21777H12.0836C11.5503 4.21211 11.0206 4.30395 10.521 4.48866C10.0746 4.64235 9.6708 4.89739 9.34179 5.23339C9.01279 5.56939 8.83023 5.84787 8.67746 6.29479C8.67746 6.29479 8.62045 6.42932 8.58625 6.61858Z" fill="#21A19A"/>
<path fill-rule="evenodd" clip-rule="evenodd" d="M2.8797e-05 10.6387C2.8797e-05 5.11582 4.47718 0.638672 10 0.638672C15.5229 0.638672 20 5.11582 20 10.6387C20 16.1615 15.5229 20.6387 10 20.6387C8.13369 20.6387 6.38447 20.1265 4.88806 19.2349L1.35434 20.5738C0.986479 20.7132 0.571081 20.6239 0.292922 20.3458C0.0147628 20.0676 -0.0744764 19.6522 0.0649001 19.2844L1.40378 15.7506C0.512197 14.2542 2.8797e-05 12.505 2.8797e-05 10.6387ZM10 2.63867C5.58175 2.63867 2.00003 6.22039 2.00003 10.6387C2.00003 12.2847 2.49605 13.8118 3.34659 15.0824C3.52653 15.3512 3.56532 15.6905 3.45071 15.993L2.72173 17.917L4.64572 17.188C4.94822 17.0734 5.28747 17.1122 5.55629 17.2921C6.82693 18.1427 8.35404 18.6387 10 18.6387C14.4183 18.6387 18 15.0569 18 10.6387C18 6.22039 14.4183 2.63867 10 2.63867Z" fill="#21A19A"/>
</svg>
