<svg width="32" height="32" viewBox="0 0 32 32" fill="none" xmlns="http://www.w3.org/2000/svg">
<path d="M18.502 7.13384C18.7916 7.60412 19.4076 7.7506 19.8778 7.46102C20.3481 7.17144 20.4946 6.55545 20.205 6.08517L19.861 5.52643C23.5637 6.89963 26.3444 10.1756 27.0137 14.1652C27.1051 14.7099 27.6208 15.0774 28.1654 14.986C28.7101 14.8946 29.0776 14.379 28.9862 13.8343C28.2217 9.27786 25.1258 5.51416 20.9662 3.81094L21.0276 3.78986C21.55 3.61058 21.8281 3.04177 21.6488 2.5194C21.4695 1.99702 20.9007 1.71889 20.3784 1.89818L17.3502 2.93749C17.0629 3.03611 16.8359 3.25999 16.7334 3.54596C16.631 3.83193 16.664 4.14899 16.8233 4.40767L18.502 7.13384Z" fill="#21A19A"/>
<path d="M13.9676 3.96218C14.1071 4.49657 13.7869 5.04283 13.2525 5.1823C8.51466 6.41884 5 10.7873 5 15.9996C5 20.8044 7.98586 24.8906 12.1627 26.4696L11.9057 26.0476C11.6185 25.5759 11.768 24.9606 12.2397 24.6734C12.7114 24.3861 13.3266 24.5357 13.6139 25.0074L15.2791 27.7418C15.4371 28.0013 15.4686 28.3185 15.3647 28.6039C15.2608 28.8894 15.0328 29.1122 14.7449 29.2094L11.7117 30.2337C11.1884 30.4104 10.621 30.1295 10.4443 29.6062C10.2676 29.0829 10.5485 28.5155 11.0718 28.3388L11.274 28.2705C6.42509 26.3534 3 21.5765 3 15.9996C3 9.87212 7.13398 4.71219 12.7475 3.24712C13.2819 3.10766 13.8281 3.4278 13.9676 3.96218Z" fill="#21A19A"/>
<path fill-rule="evenodd" clip-rule="evenodd" d="M21.6286 16.0711C21.867 15.9758 22.133 15.9758 22.3714 16.0711L27.3714 18.0711C27.751 18.223 28 18.5907 28 18.9996C28 21.4299 27.9116 23.3463 27.1375 25.0615C26.3506 26.8048 24.921 28.2103 22.5652 29.8245C22.2246 30.058 21.7754 30.058 21.4348 29.8245C19.0858 28.215 17.6569 26.8097 16.8684 25.0659C16.0923 23.3499 16 21.4317 16 18.9996C16 18.5907 16.249 18.223 16.6286 18.0711L21.6286 16.0711ZM18.0034 19.6753C18.0258 21.7411 18.1686 23.0873 18.6907 24.2419C19.2054 25.38 20.1414 26.437 22 27.7777C23.8658 26.4323 24.8015 25.3754 25.3146 24.2387C25.8351 23.0855 25.9748 21.7421 25.9967 19.6753L22 18.0767L18.0034 19.6753Z" fill="#21A19A"/>
</svg>
