<svg width="32" height="32" viewBox="0 0 32 32" fill="none" xmlns="http://www.w3.org/2000/svg">
<path fill-rule="evenodd" clip-rule="evenodd" d="M25.3714 1.07152C25.133 0.976159 24.867 0.976159 24.6286 1.07152L19.6286 3.07152C19.249 3.22339 19 3.5911 19 4C19 6.43204 19.0923 8.35026 19.8684 10.0663C20.6569 11.8101 22.0858 13.2154 24.4348 14.8249C24.7754 15.0584 25.2246 15.0584 25.5652 14.8249C27.921 13.2107 29.3506 11.8052 30.1375 10.0619C30.9116 8.34672 31 6.43024 31 4C31 3.5911 30.751 3.22339 30.3714 3.07152L25.3714 1.07152ZM21.6907 9.24223C21.1686 8.08765 21.0258 6.74144 21.0034 4.67568L25 3.07703L28.9967 4.67572C28.9748 6.74247 28.8351 8.08589 28.3146 9.23907C27.8015 10.3757 26.8658 11.4326 25 12.7781C23.1414 11.4374 22.2054 10.3804 21.6907 9.24223Z" fill="#21A19A"/>
<path d="M1 8C1 7.44772 1.44772 7 2 7H3.54059C5.44731 7 7.08897 8.34584 7.46291 10.2155L7.8198 12L17.9999 12C18.5522 12 18.9999 12.4477 18.9999 13C18.9999 13.5523 18.5522 14 17.9999 14L8.2198 14L9.8198 22H22.2192L23.2799 17.7575C23.4138 17.2217 23.9567 16.8959 24.4925 17.0299C25.0283 17.1638 25.3541 17.7067 25.2201 18.2425L23.9701 23.2425C23.8589 23.6877 23.4589 24 23 24H9C8.52332 24 8.1129 23.6635 8.01942 23.1961L6.02452 13.2216C6.02086 13.2054 6.01759 13.1891 6.01473 13.1726L5.50175 10.6078C5.31478 9.67292 4.49395 9 3.54059 9H2C1.44772 9 1 8.55228 1 8Z" fill="#21A19A"/>
<path d="M21 30C22.1046 30 23 29.1046 23 28C23 26.8954 22.1046 26 21 26C19.8954 26 19 26.8954 19 28C19 29.1046 19.8954 30 21 30Z" fill="#21A19A"/>
<path d="M13 28C13 29.1046 12.1046 30 11 30C9.89543 30 9 29.1046 9 28C9 26.8954 9.89543 26 11 26C12.1046 26 13 26.8954 13 28Z" fill="#21A19A"/>
</svg>
