<svg width="20" height="20" viewBox="0 0 20 20" fill="none" xmlns="http://www.w3.org/2000/svg">
<path d="M7.5 13C6.94772 13 6.5 13.4477 6.5 14C6.5 14.5523 6.94772 15 7.5 15H12.5C13.0523 15 13.5 14.5523 13.5 14C13.5 13.4477 13.0523 13 12.5 13H7.5Z" fill="#B2B8BF"/>
<path d="M7.5 17C6.94772 17 6.5 17.4477 6.5 18C6.5 18.5523 6.94772 19 7.5 19H12.5C13.0523 19 13.5 18.5523 13.5 18C13.5 17.4477 13.0523 17 12.5 17H7.5Z" fill="#B2B8BF"/>
<path fill-rule="evenodd" clip-rule="evenodd" d="M6.77457 4.04965C7.80413 2.22997 9.75747 1 12 1C15.3136 1 17.9999 3.68618 18 6.99979C19.213 7.91094 20 9.36307 20 11C20 13.3312 18.4056 15.2874 16.2493 15.8424C15.7144 15.9801 15.1692 15.6581 15.0316 15.1232C14.8939 14.5884 15.2159 14.0432 15.7507 13.9055C17.0449 13.5725 18 12.3965 18 11C18 9.88262 17.3896 8.90655 16.4793 8.38926C16.1343 8.19323 15.9378 7.81177 15.9786 7.41708C15.9927 7.28028 16 7.14116 16 7C16 4.79086 14.2091 3 12 3C10.3056 3 8.85488 4.05393 8.27234 5.5456C8.0857 6.02352 7.56765 6.28265 7.07328 6.14537C6.73287 6.05083 6.37318 6 6 6C3.79086 6 2 7.79086 2 10C2 11.6387 2.98556 13.0494 4.40037 13.6676C4.90646 13.8887 5.13747 14.4782 4.91635 14.9843C4.69523 15.4904 4.10572 15.7214 3.59963 15.5003C1.48263 14.5754 0 12.4619 0 10C0 6.68629 2.68629 4 6 4C6.26214 4 6.5207 4.01687 6.77457 4.04965Z" fill="#B2B8BF"/>
</svg>
