<svg width="32" height="32" viewBox="0 0 32 32" fill="none" xmlns="http://www.w3.org/2000/svg">
<path fill-rule="evenodd" clip-rule="evenodd" d="M7.98999 29H14.97C15.53 29 15.97 28.55 15.97 28C15.97 27.44 15.53 27 14.97 27H7.98999C7.90999 27 7.82999 26.99 7.74999 26.97C7.69999 26.95 7.64999 26.94 7.60999 26.92C7.54999 26.89 7.49999 26.87 7.45999 26.84C7.39999 26.8 7.33999 26.75 7.28999 26.7C7.23999 26.65 7.18999 26.59 7.14999 26.53C7.11999 26.49 7.09999 26.44 7.06999 26.38C7.04999 26.34 7.03999 26.29 7.01999 26.24C6.99999 26.16 6.98999 26.08 6.98999 26V6C6.98999 5.91 6.99999 5.83 7.01999 5.75C7.03999 5.7 7.04999 5.65 7.06999 5.61C7.09999 5.55 7.11999 5.5 7.14999 5.46C7.18999 5.4 7.23999 5.34 7.28999 5.29C7.33999 5.24 7.39999 5.19 7.45999 5.15C7.49999 5.12 7.54999 5.1 7.60999 5.07C7.64999 5.05 7.69999 5.04 7.74999 5.02C7.82999 5 7.90999 5 7.98999 5H19.99C20.08 5 20.16 5 20.24 5.02C20.29 5.04 20.34 5.05 20.38 5.07C20.44 5.1 20.49 5.12 20.53 5.15C20.59 5.19 20.65 5.24 20.7 5.29C20.75 5.34 20.8 5.4 20.84 5.46C20.87 5.5 20.89 5.55 20.92 5.61C20.94 5.65 20.95 5.7 20.97 5.75C20.99 5.83 20.99 5.91 20.99 6V14.98C20.99 15.54 21.43 15.98 21.99 15.98C22.55 15.98 22.99 15.54 22.99 14.98V6C22.99 5.78 22.97 5.56 22.93 5.36C22.89 5.18 22.83 5 22.76 4.83C22.69 4.66 22.6 4.49 22.5 4.34C22.39 4.17 22.26 4.02 22.12 3.87C21.97 3.73 21.82 3.6 21.65 3.49C21.5 3.39 21.33 3.3 21.16 3.23C20.99 3.16 20.81 3.1 20.63 3.06C20.43 3.02 20.21 3 19.99 3H7.98999C7.77999 3 7.55999 3.02 7.35999 3.06C7.17999 3.1 6.99999 3.16 6.82999 3.23C6.64999 3.3 6.48999 3.39 6.33999 3.49C6.16999 3.6 6.01999 3.73 5.86999 3.87C5.72999 4.02 5.59999 4.17 5.48999 4.34C5.38999 4.49 5.29999 4.66 5.22999 4.83C5.15999 5 5.09999 5.18 5.05999 5.36C5.01999 5.56 4.98999 5.78 4.98999 6V26C4.98999 26.21 5.01999 26.43 5.05999 26.63C5.09999 26.81 5.15999 26.99 5.22999 27.16C5.29999 27.33 5.38999 27.5 5.48999 27.65C5.59999 27.82 5.72999 27.97 5.86999 28.12C6.01999 28.26 6.16999 28.39 6.33999 28.5C6.48999 28.6 6.64999 28.69 6.82999 28.76C6.99999 28.83 7.17999 28.89 7.35999 28.93C7.55999 28.97 7.77999 29 7.98999 29ZM24.83 17.44C24.52 16.98 23.9 16.86 23.44 17.16C22.98 17.47 22.86 18.09 23.16 18.55L24.13 20H19.86L20.83 18.55C21.13 18.09 21.01 17.47 20.55 17.16C20.09 16.86 19.47 16.98 19.16 17.44L17.46 20H16C15.66 20 15.35 20.16 15.16 20.44C14.98 20.73 14.94 21.08 15.08 21.39L18.08 28.39C18.23 28.76 18.6 29 19 29H25C25.4 29 25.76 28.76 25.91 28.39L28.91 21.39C29.05 21.08 29.02 20.73 28.83 20.44C28.65 20.16 28.33 20 28 20H26.53L24.83 17.44ZM18.02 22H25.98H26.48L24.34 27H19.65L17.51 22H18.02Z" fill="#B2B8BF"/>
</svg>
