<svg width="20" height="20" viewBox="0 0 20 20" fill="none" xmlns="http://www.w3.org/2000/svg">
<path fill-rule="evenodd" clip-rule="evenodd" d="M12 2C10.3056 2 8.85488 3.05393 8.27234 4.5456L7.94372 5.38708L7.07328 5.14536C6.73287 5.05083 6.37318 5 6 5C3.79086 5 2 6.79086 2 9C2 9.73024 2.19477 10.4119 2.53452 10.9993C2.81106 11.4773 2.6477 12.0891 2.16964 12.3656C1.69158 12.6421 1.07985 12.4788 0.803305 12.0007C0.292205 11.1172 0 10.0912 0 9C0 5.68629 2.68629 3 6 3C6.26214 3 6.5207 3.01687 6.77457 3.04965C7.80413 1.22997 9.75747 0 12 0C15.3136 0 17.9999 2.68618 18 5.99978C19.213 6.91093 20 8.36307 20 10C20 10.5523 19.5523 11 19 11C18.4477 11 18 10.5523 18 10C18 8.88262 17.3896 7.90654 16.4793 7.38926L15.9115 7.06664L15.9786 6.41707C15.9927 6.28028 16 6.14116 16 6C16 3.79086 14.2091 2 12 2Z" fill="#B2B8BF"/>
<path d="M12.8163 12.0516C13.3403 12.2262 13.6234 12.7926 13.4488 13.3165L11.4488 19.3165C11.2741 19.8404 10.7078 20.1236 10.1839 19.949C9.65991 19.7743 9.37675 19.208 9.5514 18.684L11.5514 12.684C11.726 12.1601 12.2924 11.8769 12.8163 12.0516Z" fill="#B2B8BF"/>
<path d="M7.73994 13.3276C7.36843 12.9189 6.73599 12.8888 6.32733 13.2603L3.32733 15.9876C3.1073 16.1876 2.9877 16.4752 3.001 16.7723C3.0143 17.0693 3.15912 17.3451 3.39614 17.5246L6.39614 19.7973C6.83637 20.1308 7.46359 20.0443 7.79709 19.6041C8.1306 19.1639 8.04408 18.5367 7.60386 18.2032L5.56361 16.6575L7.67267 14.7402C8.08133 14.3687 8.11145 13.7362 7.73994 13.3276Z" fill="#B2B8BF"/>
<path d="M16.6728 13.2603C16.2641 12.8888 15.6317 12.9189 15.2602 13.3276C14.8887 13.7362 14.9188 14.3687 15.3274 14.7402L17.4365 16.6575L15.3963 18.2032C14.956 18.5367 14.8695 19.1639 15.203 19.6041C15.5365 20.0443 16.1637 20.1308 16.604 19.7973L19.604 17.5246C19.841 17.3451 19.9858 17.0693 19.9991 16.7723C20.0124 16.4752 19.8928 16.1876 19.6728 15.9876L16.6728 13.2603Z" fill="#B2B8BF"/>
</svg>
