<svg width="32" height="32" viewBox="0 0 32 32" fill="none" xmlns="http://www.w3.org/2000/svg">
<path d="M10.9645 11.4655C11.5503 10.8797 11.5503 9.92998 10.9645 9.34419C10.3787 8.7584 9.42895 8.7584 8.84316 9.34419C8.25737 9.92998 8.25737 10.8797 8.84316 11.4655C9.42895 12.0513 10.3787 12.0513 10.9645 11.4655Z" fill="#B2B8BF"/>
<path fill-rule="evenodd" clip-rule="evenodd" d="M3.68563 13.6284C3.58583 14.2604 3.79448 14.9021 4.24694 15.3545L16.9749 28.0824C17.7559 28.8635 19.0222 28.8635 19.8033 28.0824L27.5815 20.3043C28.3625 19.5232 28.3625 18.2569 27.5815 17.4758L14.8535 4.74792C14.4011 4.29546 13.7594 4.08681 13.1274 4.18661L6.40989 5.24727C5.55335 5.38251 4.88153 6.05432 4.74629 6.91087L3.68563 13.6284ZM5.66116 13.9403L6.72182 7.22279L13.4393 6.16213L26.1673 18.8901L18.3891 26.6682L5.66116 13.9403Z" fill="#B2B8BF"/>
</svg>
