<svg width="32" height="32" viewBox="0 0 32 32" fill="none" xmlns="http://www.w3.org/2000/svg">
<path d="M24 5.99992C23.4477 5.99992 23 6.44763 23 6.99992C23 7.5522 23.4477 7.99992 24 7.99992H27C27.5523 7.99992 28 7.5522 28 6.99992C28 6.44763 27.5523 5.99992 27 5.99992H24Z" fill="#21A19A"/>
<path fill-rule="evenodd" clip-rule="evenodd" d="M19 5.5C19 4.11924 20.1194 2.99992 21.5001 3L29.5001 3.00044C30.8808 3.00051 32 4.11978 32 5.50044V10.4999C32 11.8806 30.8807 12.9999 29.5 12.9999H21.5C20.1193 12.9999 19 11.8806 19 10.4999V5.5ZM21.5 5C21.2239 4.99998 21 5.22385 21 5.5V10.4999C21 10.7761 21.2239 10.9999 21.5 10.9999H29.5C29.7761 10.9999 30 10.7761 30 10.4999V5.50044C30 5.22431 29.7762 5.00045 29.5 5.00044L21.5 5Z" fill="#21A19A"/>
<path d="M4 17.9999C4 12.4774 8.47705 7.99992 14 7.99992C14.3086 7.99992 14.6133 8.01359 14.9141 8.04094C15.4644 8.09074 15.9504 7.68547 16.0002 7.13566C16.05 6.58488 15.6445 6.09855 15.0945 6.04875C14.7339 6.01652 14.3687 5.99992 14 5.99992C7.37256 5.99992 2 11.3729 2 17.9999V28.9999C2 29.5526 2.44775 29.9999 3 29.9999H14C20.6274 29.9999 26 24.6269 26 17.9999C26 17.6337 25.9834 17.2704 25.9512 16.911C25.9019 16.3612 25.4155 15.956 24.8657 16.0048C24.3154 16.0546 23.9097 16.5409 23.9595 17.0907C23.9863 17.3895 24 17.6933 24 17.9999C24 23.5224 19.5229 27.9999 14 27.9999H4V17.9999Z" fill="#21A19A"/>
<path fill-rule="evenodd" clip-rule="evenodd" d="M17.5 12.9999C17.5 12.4472 17.0522 11.9999 16.5 11.9999H11C9.89551 11.9999 9 12.8954 9 13.9999V23.9999H14.3076C16.5923 23.9999 19 22.5722 19 19.9999C19 17.4276 16.5923 15.9999 14.3076 15.9999H11V13.9999H16.5C17.0522 13.9999 17.5 13.5526 17.5 12.9999ZM11 21.9999V17.9999H14.3076C15.9858 17.9999 17 18.9716 17 19.9999C17 21.0282 15.9858 21.9999 14.3076 21.9999H11Z" fill="#21A19A"/>
</svg>
