<svg width="32" height="32" viewBox="0 0 32 32" fill="none" xmlns="http://www.w3.org/2000/svg">
<path fill-rule="evenodd" clip-rule="evenodd" d="M4 10C4 6.6875 6.68652 4 10 4H22C25.3135 4 28 6.6875 28 10V22C28 25.3125 25.3135 28 22 28H10C6.68652 28 4 25.3125 4 22V10ZM10 6H22C24.209 6 26 7.79102 26 10V22C26 24.209 24.209 26 22 26H10C7.79102 26 6 24.209 6 22V10C6 7.79102 7.79102 6 10 6ZM12 11.5V20.5C12 20.6055 12.0105 20.707 12.0312 20.8086C12.0515 20.9023 12.0803 20.9941 12.1182 21.084C12.1553 21.1719 12.2 21.2539 12.252 21.332C12.3066 21.4141 12.3691 21.4902 12.4395 21.5605C12.5098 21.6309 12.5857 21.6934 12.667 21.748C12.7451 21.8008 12.8281 21.8438 12.916 21.8828C13.0059 21.9199 13.0977 21.9492 13.1914 21.9688C13.2922 21.9902 13.3953 22 13.5 22H13.9629C14.0391 22.0059 14.1316 22.0078 14.2402 22.0117C14.4875 22.0156 14.7432 22.0078 15.0068 21.9902C15.8538 21.9316 16.6355 21.7676 17.3516 21.5C18.2532 21.1602 18.9949 20.6758 19.5762 20.043C19.6731 19.9375 19.7656 19.8281 19.8535 19.7148C19.9355 19.6074 20.0134 19.498 20.0869 19.3867C20.6956 18.457 21 17.3281 21 16C21 14.6719 20.6956 13.543 20.0869 12.6133C20.0134 12.502 19.9355 12.3926 19.8535 12.2852C19.7656 12.1719 19.6731 12.0625 19.5762 11.957C18.9949 11.3242 18.2532 10.8398 17.3516 10.5C16.6355 10.2324 15.8538 10.0684 15.0068 10.0098C14.7432 9.99219 14.4875 9.98438 14.2402 9.98828C14.1316 9.99219 14.0391 9.99414 13.9629 10H13.5C13.3953 10 13.2922 10.0098 13.1914 10.0312C13.0977 10.0508 13.0059 10.0801 12.916 10.1172C12.8281 10.1562 12.7451 10.1992 12.667 10.252C12.5857 10.3066 12.5098 10.3691 12.4395 10.4395C12.3691 10.5098 12.3066 10.5859 12.252 10.668C12.2 10.7461 12.1553 10.8281 12.1182 10.916C12.0803 11.0059 12.0515 11.0977 12.0312 11.1914C12.0105 11.293 12 11.3945 12 11.5ZM14 20C14.041 20.0039 14.1882 20.0098 14.2754 20.0117C14.4656 20.0137 14.6631 20.0078 14.8682 19.9941C15.5212 19.9492 16.1145 19.8262 16.6484 19.625C17.3464 19.3633 17.8875 18.9844 18.2715 18.4883C18.7571 17.8633 19 17.0332 19 16C19 14.9668 18.7571 14.1367 18.2715 13.5117C17.8875 13.0156 17.3464 12.6367 16.6484 12.375C16.1145 12.1738 15.5212 12.0508 14.8682 12.0059C14.6631 11.9922 14.4656 11.9863 14.2754 11.9883C14.1882 11.9902 14.124 11.9922 14.083 11.9961L14 20Z" fill="#B2B8BF"/>
</svg>
