<svg width="20" height="20" viewBox="0 0 20 20" fill="none" xmlns="http://www.w3.org/2000/svg">
<path d="M19 1H16C15.4477 1 15 1.44772 15 2V18C15 18.5523 15.4477 19 16 19C16.5523 19 17 18.5523 17 18V12H19C19.5523 12 20 11.5523 20 11C20 10.4477 19.5523 10 19 10H17V9H19C19.5523 9 20 8.55228 20 8C20 7.44772 19.5523 7 19 7H17V6.00005L19 6C19.5523 5.99997 20 5.55224 20 4.99995C20 4.44767 19.5522 3.99997 19 4L17 4.00005V3H19C19.5523 3 20 2.55228 20 2C20 1.44772 19.5523 1 19 1Z" fill="#B2B8BF"/>
<path fill-rule="evenodd" clip-rule="evenodd" d="M11.3939 1.58087C11.9015 1.79842 12.1367 2.3863 11.9191 2.89393L11.7835 3.20961C11.6951 3.41513 11.5654 3.71638 11.3998 4.09969C11.0686 4.8663 10.5942 5.96122 10.0207 7.27506C9.45955 8.56062 8.80343 10.0562 8.09386 11.6591C8.28772 12.0958 8.4849 12.5389 8.68458 12.9864C8.86007 12.8331 9.04109 12.7013 9.22 12.5895C9.83959 12.2023 10.521 12 11 12C12.8536 12 14 13.7868 14 15.5C14 17.2132 12.8536 19 11 19C9.58428 19 8.69799 17.8908 8.2553 16.9122C7.8316 15.9755 7.41091 15.0389 7 14.1191C6.80877 14.5471 6.61543 14.9788 6.42065 15.4125C6.19689 15.9106 5.97122 16.4114 5.7447 16.9122C5.30201 17.8908 4.41572 19 3 19C1.14645 19 0 17.2132 0 15.5C0 13.7868 1.14645 12 3 12C3.47804 12 4.16129 12.2017 4.783 12.5884C4.9614 12.6993 5.14204 12.83 5.31731 12.9822C5.51635 12.5361 5.71289 12.0944 5.90615 11.6591C5.19657 10.0562 4.54045 8.56062 3.97931 7.27506C3.40582 5.96122 2.93136 4.8663 2.60021 4.09969C2.43464 3.71638 2.30488 3.41513 2.21647 3.20961L2.08086 2.89393C1.8633 2.3863 2.09845 1.79842 2.60608 1.58087C3.11371 1.36331 3.70159 1.59846 3.91914 2.10609L4.05371 2.41932C4.14174 2.62396 4.27109 2.92427 4.43624 3.30659C4.76654 4.07123 5.23998 5.1638 5.8123 6.47497C6.17273 7.30072 6.57232 8.213 7 9.18454C7.42768 8.213 7.82727 7.30072 8.1877 6.47497C8.76002 5.1638 9.23346 4.07123 9.56376 3.30659C9.72891 2.92427 9.85826 2.62396 9.94629 2.41932L10.0809 2.10609C10.2984 1.59846 10.8863 1.36331 11.3939 1.58087ZM4.41712 14.9914C4.24218 14.6814 3.993 14.4523 3.72667 14.2867C3.54986 14.1767 3.37437 14.1009 3.2279 14.054C3.09684 14.012 3.01897 14.0026 3.00223 14.0005C3.00037 14.0003 2.99926 14.0002 2.99893 14.0001C2.99861 14 2.99897 14 3 14C2.64441 14 2 14.4518 2 15.5C2 16.5482 2.64441 17 3 17C3.22454 17 3.59418 16.8136 3.92246 16.0879C4.08793 15.7221 4.25295 15.3563 4.41712 14.9914ZM10.28 14.2855C10.0129 14.4524 9.76218 14.6846 9.58702 15.0006C9.74982 15.3624 9.91346 15.7251 10.0775 16.0879C10.4058 16.8136 10.7755 17 11 17C11.3556 17 12 16.5482 12 15.5C12 14.4518 11.3556 14 11 14C11.0014 14 11.0009 13.9999 11 14C10.9994 14.0001 10.9992 14.0004 10.9978 14.0006C10.9811 14.0026 10.9042 14.012 10.7748 14.0536C10.6296 14.1003 10.4555 14.1758 10.28 14.2855Z" fill="#B2B8BF"/>
</svg>
