<svg width="20" height="20" viewBox="0 0 20 20" fill="none" xmlns="http://www.w3.org/2000/svg">
<g clip-path="url(#clip0_35431:1082)">
<path fill-rule="evenodd" clip-rule="evenodd" d="M15.6594 2.07347C14.0431 1.7093 12.4376 2.72438 12.0734 4.34071C11.7092 5.95705 12.7243 7.56257 14.3406 7.92674C15.957 8.29092 17.5625 7.27584 17.9267 5.6595C18.0481 5.12073 18.5832 4.78237 19.122 4.90376C19.6608 5.02515 19.9991 5.56032 19.8778 6.0991C19.2708 8.793 16.5949 10.4848 13.901 9.87783C11.2071 9.27088 9.51535 6.59501 10.1223 3.90111C10.7293 1.20722 13.4051 -0.484576 16.099 0.122382C16.6378 0.243773 16.9762 0.778947 16.8548 1.31773C16.7334 1.8565 16.1982 2.19486 15.6594 2.07347ZM2 6.99995C2 6.44767 2.44772 5.99995 3 5.99995H8C8.55228 5.99995 9 5.55224 9 4.99995C9 4.44767 8.55228 3.99995 8 3.99995H3C1.34315 3.99995 0 5.3431 0 6.99995V13C0 14.6568 1.34315 16 3 16H7V18H5C4.44772 18 4 18.4477 4 19C4 19.5522 4.44772 20 5 20H8H11C11.5523 20 12 19.5522 12 19C12 18.4477 11.5523 18 11 18H9V16H13C14.6569 16 16 14.6568 16 13V12C16 11.4477 15.5523 11 15 11C14.4477 11 14 11.4477 14 12V13C14 13.5522 13.5523 14 13 14H8H3C2.44772 14 2 13.5522 2 13V6.99995ZM5 13C4.44772 13 4 12.5522 4 12V8.99995C4 8.44767 4.44772 7.99995 5 7.99995C5.55228 7.99995 6 8.44767 6 8.99995V12C6 12.5522 5.55228 13 5 13ZM7 12C7 12.5522 7.44772 13 8 13C8.55229 13 9 12.5522 9 12V9.99995C9 9.44767 8.55229 8.99995 8 8.99995C7.44772 8.99995 7 9.44767 7 9.99995V12ZM11 13C10.4477 13 10 12.5522 10 12V11C10 10.4477 10.4477 9.99995 11 9.99995C11.5523 9.99995 12 10.4477 12 11V12C12 12.5522 11.5523 13 11 13ZM18.6402 3.7682C19.0645 3.41463 19.1218 2.78407 18.7682 2.35979C18.4147 1.93551 17.7841 1.87819 17.3598 2.23175L15.0614 4.14713L14.7071 3.79287C14.3166 3.40234 13.6834 3.40234 13.2929 3.79287C12.9024 4.18339 12.9024 4.81656 13.2929 5.20708L14.2929 6.20708C14.6586 6.5728 15.2429 6.5993 15.6402 6.2682L18.6402 3.7682Z" fill="#107F8C"/>
</g>
<defs>
<clipPath id="clip0_35431:1082">
<rect width="20" height="20" fill="white"/>
</clipPath>
</defs>
</svg>
