<svg width="32" height="32" viewBox="0 0 32 32" fill="none" xmlns="http://www.w3.org/2000/svg">
<path fill-rule="evenodd" clip-rule="evenodd" d="M8.85547 11.2305C8.85547 8.54887 11.0293 6.375 13.7109 6.375C16.3925 6.375 18.5664 8.54887 18.5664 11.2305C18.5664 13.9121 16.3925 16.0859 13.7109 16.0859C11.0293 16.0859 8.85547 13.9121 8.85547 11.2305ZM13.7109 8.375C12.1339 8.375 10.8555 9.65344 10.8555 11.2305C10.8555 12.8075 12.1339 14.0859 13.7109 14.0859C15.288 14.0859 16.5664 12.8075 16.5664 11.2305C16.5664 9.65344 15.288 8.375 13.7109 8.375Z" fill="#B2B8BF"/>
<path fill-rule="evenodd" clip-rule="evenodd" d="M6.98149 26H20.4404C21.3036 26 22.1106 25.409 22.2811 24.5058C22.3744 24.0137 22.4219 23.5158 22.4219 23.0256C22.4219 20.5843 21.2974 18.2853 19.3657 16.7127L19.3647 16.7119C18.6644 16.1433 17.6425 16.1477 16.9479 16.7279C16.0418 17.4848 14.8688 17.9082 13.6444 17.9082C12.4435 17.9082 11.2876 17.4994 10.3895 16.768L10.3876 16.7664C9.68653 16.1983 8.66702 16.2034 7.97205 16.782L7.9706 16.7832C6.09276 18.3526 5 20.625 5 23.0256C5 23.5166 5.04818 24.0141 5.14055 24.5046C5.31109 25.4066 6.11643 26 6.98149 26ZM13.6444 19.9082C15.2981 19.9082 16.9013 19.3466 18.166 18.3157C19.6105 19.5212 20.4219 21.2355 20.4219 23.0256C20.4219 23.3445 20.3946 23.6721 20.3399 24H7.08218C7.02754 23.671 7 23.3436 7 23.0256C7 21.2664 7.78869 19.5721 9.19085 18.3705C10.4445 19.3668 12.0228 19.9082 13.6444 19.9082Z" fill="#B2B8BF"/>
<path d="M24.32 17.1989C23.9229 16.8151 23.2898 16.8259 22.906 17.223C22.5221 17.6201 22.5329 18.2532 22.93 18.637C24.1496 19.8158 24.8281 21.3881 24.8281 23.0256C24.8281 23.3877 24.793 23.7608 24.7224 24.1331C24.6194 24.6757 24.9759 25.199 25.5185 25.3019C26.0611 25.4049 26.5844 25.0484 26.6873 24.5058C26.7807 24.0137 26.8281 23.5158 26.8281 23.0256C26.8281 20.8262 25.915 18.7406 24.32 17.1989Z" fill="#B2B8BF"/>
<path d="M20.462 6.42378C19.9153 6.34558 19.4087 6.72538 19.3305 7.2721C19.2523 7.81882 19.6321 8.32542 20.1788 8.40363C21.5617 8.60143 22.6251 9.79245 22.6251 11.2301C22.6251 12.3677 21.96 13.3519 20.9929 13.8113C20.4941 14.0483 20.2818 14.6448 20.5187 15.1437C20.7557 15.6425 21.3522 15.8548 21.8511 15.6178C23.4892 14.8397 24.6251 13.1685 24.6251 11.2301C24.6251 8.78317 22.816 6.76049 20.462 6.42378Z" fill="#B2B8BF"/>
</svg>
