<svg width="32" height="32" viewBox="0 0 32 32" fill="none" xmlns="http://www.w3.org/2000/svg">
<path d="M19 8C18.4477 8 18 8.44772 18 9C18 9.55228 18.4477 10 19 10H27C27.5523 10 28 9.55228 28 9C28 8.44772 27.5523 8 27 8H19Z" fill="#B2B8BF"/>
<path d="M4.29289 17.2928C4.68342 16.9023 5.31658 16.9023 5.70711 17.2928L9.00003 20.5857L12.2929 17.2928C12.6834 16.9023 13.3166 16.9023 13.7071 17.2928C14.0976 17.6833 14.0976 18.3165 13.7071 18.707L10.4142 21.9999L13.7071 25.2928C14.0976 25.6833 14.0976 26.3165 13.7071 26.707C13.3166 27.0975 12.6834 27.0975 12.2929 26.707L9.00004 23.4142L5.70725 26.707C5.31673 27.0975 4.68357 27.0975 4.29304 26.707C3.90251 26.3165 3.90251 25.6833 4.29303 25.2928L7.58583 21.9999L4.29289 18.707C3.90237 18.3165 3.90237 17.6833 4.29289 17.2928Z" fill="#B2B8BF"/>
<path d="M9 4C9.55228 4 10 4.44772 10 5V8H13C13.5523 8 14 8.44772 14 9C14 9.55228 13.5523 10 13 10H10V13C10 13.5523 9.55228 14 9 14C8.44772 14 8 13.5523 8 13V10H5C4.44772 10 4 9.55228 4 9C4 8.44772 4.44772 8 5 8H8V5C8 4.44772 8.44772 4 9 4Z" fill="#B2B8BF"/>
<path d="M19.5 20C20.3284 20 21 19.3284 21 18.5C21 17.6716 20.3284 17 19.5 17C18.6716 17 18 17.6716 18 18.5C18 19.3284 18.6716 20 19.5 20Z" fill="#B2B8BF"/>
<path d="M26.5 27C27.3284 27 28 26.3284 28 25.5C28 24.6716 27.3284 24 26.5 24C25.6716 24 25 24.6716 25 25.5C25 26.3284 25.6716 27 26.5 27Z" fill="#B2B8BF"/>
<path d="M27.7071 18.7071C28.0976 18.3166 28.0976 17.6834 27.7071 17.2929C27.3166 16.9024 26.6834 16.9024 26.2929 17.2929L18.2929 25.2929C17.9024 25.6834 17.9024 26.3166 18.2929 26.7071C18.6834 27.0976 19.3166 27.0976 19.7071 26.7071L27.7071 18.7071Z" fill="#B2B8BF"/>
</svg>
