<svg width="20" height="20" viewBox="0 0 20 20" fill="none" xmlns="http://www.w3.org/2000/svg">
<path fill-rule="evenodd" clip-rule="evenodd" d="M5 5C5 2.23858 7.23858 0 10 0C12.7614 0 15 2.23858 15 5C15 7.76142 12.7614 10 10 10C7.23858 10 5 7.76142 5 5ZM10 2C8.34315 2 7 3.34315 7 5C7 6.65685 8.34315 8 10 8C11.6569 8 13 6.65685 13 5C13 3.34315 11.6569 2 10 2Z" fill="#21A19A"/>
<path d="M14.4363 10.5752C14.7849 10.1469 15.4148 10.0824 15.8431 10.4311C17.8388 12.0557 19 14.4304 19 16.9515C19 17.4576 18.951 17.9719 18.8546 18.4802C18.6814 19.3982 17.8608 19.9999 16.9817 19.9999H3.01829C2.1374 19.9999 1.31863 19.3965 1.14529 18.4796C1.04988 17.973 1 17.4585 1 16.9515C1 14.4725 2.12846 12.1253 4.06851 10.5038C4.49228 10.1497 5.12292 10.2061 5.4771 10.6298C5.83127 11.0536 5.77486 11.6842 5.35109 12.0384C3.84778 13.2948 3 15.088 3 16.9515C3 17.2936 3.03054 17.6462 3.09105 17.9999H16.9091C16.9698 17.6472 17 17.2947 17 16.9515C17 15.0557 16.1283 13.2422 14.5804 11.9821C14.1521 11.6334 14.0876 11.0035 14.4363 10.5752Z" fill="#21A19A"/>
<path d="M9 15.5C9 16.0523 9.44771 16.5 10 16.5C10.5523 16.5 11 16.0523 11 15.5V12.5C11 11.9477 10.5523 11.5 10 11.5C9.44771 11.5 9 11.9477 9 12.5V15.5Z" fill="#21A19A"/>
</svg>
