<svg width="20" height="20" viewBox="0 0 20 20" fill="none" xmlns="http://www.w3.org/2000/svg">
<path d="M4 0C1.79086 0 0 1.79086 0 4C0 6.20914 1.79086 8 4 8C6.20914 8 8 6.20914 8 4C8 1.79086 6.20914 0 4 0Z" fill="#107F8C"/>
<path fill-rule="evenodd" clip-rule="evenodd" d="M12 4C12 1.79086 13.7909 0 16 0C18.2091 0 20 1.79086 20 4C20 6.20914 18.2091 8 16 8C13.7909 8 12 6.20914 12 4ZM16 2C14.8954 2 14 2.89543 14 4C14 5.10457 14.8954 6 16 6C17.1046 6 18 5.10457 18 4C18 2.89543 17.1046 2 16 2Z" fill="#107F8C"/>
<path d="M16 12C13.7909 12 12 13.7909 12 16C12 18.2091 13.7909 20 16 20C18.2091 20 20 18.2091 20 16C20 13.7909 18.2091 12 16 12Z" fill="#107F8C"/>
<path d="M4 12C1.79086 12 0 13.7909 0 16C0 18.2091 1.79086 20 4 20C6.20914 20 8 18.2091 8 16C8 13.7909 6.20914 12 4 12Z" fill="#107F8C"/>
</svg>
