<svg width="32" height="32" viewBox="0 0 32 32" fill="none" xmlns="http://www.w3.org/2000/svg">
<path fill-rule="evenodd" clip-rule="evenodd" d="M11 20.003L12.2854 19.9989L17.9615 19.9991C20.4425 19.9991 23 18.0259 23 14.9991C23 12.9819 21.8641 11.4327 20.372 10.6236C20.9788 9.9977 21.3946 9.13985 21.3946 8.02931C21.3946 6.49109 20.5969 5.43766 19.5987 4.81386C18.6442 4.21735 17.501 3.99902 16.6064 3.99902H12.0606C12.04 3.99902 12.0195 3.99965 11.9992 4.00088C11.9826 4.00012 11.966 3.99976 11.9492 3.99981C11.3969 4.00156 10.9506 4.4507 10.9524 5.00298L10.9682 9.99908H9C8.44772 9.99908 8 10.4468 8 10.9991C8 11.5514 8.44772 11.9991 9 11.9991H10.9746L10.9809 13.9991H9C8.44772 13.9991 8 14.4468 8 14.9991C8 15.5514 8.44772 15.9991 9 15.9991H10.9873L11 20.003ZM19.3946 8.02931C19.3946 8.76384 19.0559 9.22555 18.5388 9.54872C18.1747 9.77624 17.7305 9.92368 17.2938 9.99912L12.9682 9.99912L12.9555 5.99902L16.6064 5.99902C17.2271 5.99902 17.978 6.15947 18.5388 6.50991C19.0559 6.83307 19.3946 7.29478 19.3946 8.02931ZM12.9936 17.9989L12.9748 12.0596L16.6064 12.0596C16.8691 12.0596 17.1531 12.0408 17.4475 11.9991H17.9615C19.493 11.9991 21 13.2258 21 14.9991C21 16.7724 19.493 17.9991 17.9615 17.9991L12.9936 17.9989Z" fill="#B2B8BF"/>
<path d="M27.4443 17.3835C27.1043 16.9483 26.4758 16.8711 26.0406 17.2111C25.6054 17.5511 25.5282 18.1796 25.8682 18.6148L27.731 20.9991L23.8248 25.9991H5V17.9991C5 17.4468 4.55228 16.9991 4 16.9991C3.44772 16.9991 3 17.4468 3 17.9991V25.9991C3 27.1037 3.89543 27.9991 5 27.9991H23.8248C24.4404 27.9991 25.0218 27.7156 25.4008 27.2304L29.3071 22.2304C29.8723 21.5069 29.8723 20.4914 29.3071 19.7678L27.4443 17.3835Z" fill="#B2B8BF"/>
</svg>
