<svg width="32" height="32" viewBox="0 0 32 32" fill="none" xmlns="http://www.w3.org/2000/svg">
<path fill-rule="evenodd" clip-rule="evenodd" d="M14.9882 3.84665C15.0729 4.39239 14.6992 4.90352 14.1535 4.98829C8.87778 5.80777 5 10.3995 5 16.0001C5 21.6008 8.87778 26.1925 14.1535 27.012C14.6992 27.0968 15.0729 27.6079 14.9882 28.1536C14.9034 28.6994 14.3923 29.0731 13.8465 28.9883C7.55232 28.0106 3 22.5415 3 16.0001C3 9.45878 7.55231 3.98967 13.8465 3.01199C14.3923 2.92722 14.9034 3.30091 14.9882 3.84665ZM17.0118 3.84665C17.0966 3.30091 17.6077 2.92722 18.1535 3.01199C23.7605 3.88293 28.1219 8.20343 28.9884 13.8484C29.0722 14.3943 28.6976 14.9048 28.1517 14.9886C27.6058 15.0724 27.0954 14.6978 27.0116 14.1519C26.2785 9.37601 22.5987 5.72646 17.8465 4.98829C17.3008 4.90352 16.9271 4.39239 17.0118 3.84665ZM17 18.0001C17 17.4479 17.4477 17.0001 18 17.0001H28C28.2917 17.0001 28.5689 17.1275 28.7589 17.3489C28.9488 17.5702 29.0327 17.8635 28.9884 18.1519C28.1219 23.7969 23.7605 28.1174 18.1535 28.9883C17.8649 29.0331 17.5712 28.9496 17.3494 28.7596C17.1276 28.5696 17 28.2922 17 28.0001V18.0001ZM19 19.0001V26.7708C22.8117 25.7628 25.7668 22.8257 26.7727 19.0001H19Z" fill="#21A19A"/>
</svg>
