<svg width="32" height="32" viewBox="0 0 32 32" fill="none" xmlns="http://www.w3.org/2000/svg">
<path fill-rule="evenodd" clip-rule="evenodd" d="M18.24 5.15C17.63 5.05 16.98 5 16.33 5C15.45 5 14.33 5.83 13.37 7.93C12.55 9.73 11.99 12.2 11.88 15H16C16.55 15 17 15.44 17 16C17 16.55 16.55 17 16 17H11.88C11.99 19.79 12.55 22.26 13.37 24.06C14.34 26.17 15.46 27 16.35 27C17.07 27 17.96 26.45 18.82 25.02C19.65 23.63 20.31 21.61 20.63 19.2C20.7 18.65 21.21 18.26 21.75 18.34C22.3 18.41 22.69 18.91 22.61 19.46C22.27 22.05 21.55 24.36 20.53 26.05C20.49 26.13 20.44 26.2 20.4 26.27C23.5 25.12 25.95 22.69 27.06 19.65C27.24 19.13 27.82 18.87 28.34 19.06C28.86 19.24 29.12 19.82 28.93 20.34C27.1 25.39 22.14 29 16.35 29C9 29 3 23.2 3 16C3 8.79 9 3 16.35 3C17.1 3 17.84 3.06 18.57 3.17C19.11 3.26 19.48 3.78 19.39 4.32C19.3 4.87 18.79 5.24 18.24 5.15ZM30.47 8.12L24.97 5.12C24.81 5.03 24.65 4.99 24.5 4.99C24.34 4.99 24.18 5.03 24.02 5.12L18.52 8.12C18.43 8.16 18.35 8.22 18.29 8.29C18.22 8.35 18.16 8.43 18.12 8.52C17.96 8.81 17.91 9.07 17.98 9.29C18.04 9.52 18.22 9.71 18.52 9.87L24.02 12.87C24.18 12.96 24.34 13 24.5 13C24.65 13 24.81 12.96 24.97 12.87L30.47 9.87C30.65 9.78 30.78 9.65 30.87 9.47C31.19 8.89 31.06 8.44 30.47 8.12ZM5.04 15C5.44 10.75 8.33 7.18 12.3 5.71C12.02 6.15 11.78 6.61 11.56 7.09C10.59 9.19 9.99 11.96 9.88 15H5.04ZM24.5 7.13L21.08 9L24.5 10.86L27.91 9L24.5 7.13ZM18.12 12.52C18.39 12.02 18.98 11.85 19.47 12.12L24.5 14.86L29.52 12.12C30.01 11.85 30.6 12.02 30.87 12.52C31.14 13.01 30.97 13.6 30.47 13.87L24.97 16.87C24.81 16.96 24.65 17 24.5 17C24.34 17 24.18 16.96 24.02 16.87L18.52 13.87C18.02 13.6 17.85 13.01 18.12 12.52ZM12.3 26.28C8.33 24.81 5.44 21.24 5.04 17H9.88C9.99 20.03 10.59 22.8 11.56 24.9C11.78 25.38 12.02 25.84 12.3 26.28Z" fill="#107F8C"/>
</svg>
