<svg width="20" height="20" viewBox="0 0 20 20" fill="none" xmlns="http://www.w3.org/2000/svg">
<path d="M7 1C7 0.447715 6.55228 0 6 0C5.44772 0 5 0.447715 5 1C5 1.2644 4.95537 1.35351 4.86499 1.53398L4.85557 1.55279C4.70227 1.85939 4.5 2.27342 4.5 3C4.5 3.72658 4.70227 4.14061 4.85557 4.44721L4.86499 4.46602C4.95537 4.64649 5 4.7356 5 5C5 5.55228 5.44772 6 6 6C6.55228 6 7 5.55228 7 5C7 4.27342 6.79773 3.85939 6.64443 3.55279L6.63501 3.53398C6.54463 3.35351 6.5 3.2644 6.5 3C6.5 2.7356 6.54463 2.64649 6.63501 2.46602L6.64443 2.44721C6.79773 2.14061 7 1.72658 7 1Z" fill="#B2B8BF"/>
<path fill-rule="evenodd" clip-rule="evenodd" d="M15.0787 15.0421C14.5832 15.6121 14.0326 16.1326 13.4353 16.5954C13.0806 16.8703 12.6545 17 12.2379 17H6.55646C6.13984 17 5.71383 16.8703 5.35911 16.5954C3.06748 14.8198 1.46308 12.1946 1.02042 9.18859C0.838408 7.95261 1.84629 7 2.95686 7H15.8375C16.6242 7 17.3594 7.478 17.6566 8.19612C19.0215 8.67389 20 9.97229 20 11.5003C20 13.4333 18.433 15.0003 16.5 15.0003C16.2998 15.0003 16.0524 15.0093 15.7538 15.0203L15.7467 15.0206C15.54 15.0282 15.3137 15.0366 15.0787 15.0421ZM6.56546 15C4.70487 13.551 3.39951 11.4274 3.01479 9H15.7796L15.776 9.02238C15.3868 11.4404 14.0838 13.5554 12.2289 15H6.56546ZM17.3217 11.1017C17.1037 11.7632 16.8274 12.3981 16.4989 13.0003L16.5 13.0003C17.3284 13.0003 18 12.3287 18 11.5003C18 11.0692 17.8179 10.6802 17.5265 10.4065L17.3217 11.1017Z" fill="#B2B8BF"/>
<path d="M0 19C0 18.4477 0.447715 18 1 18H18.5C19.0523 18 19.5 18.4477 19.5 19C19.5 19.5523 19.0523 20 18.5 20H1C0.447715 20 0 19.5523 0 19Z" fill="#B2B8BF"/>
<path d="M9.5 0C10.0523 0 10.5 0.447715 10.5 1C10.5 1.72658 10.2977 2.14061 10.1444 2.44721L10.135 2.46602C10.0446 2.64649 10 2.7356 10 3C10 3.2644 10.0446 3.35351 10.135 3.53398L10.1444 3.55279C10.2977 3.85939 10.5 4.27342 10.5 5C10.5 5.55228 10.0523 6 9.5 6C8.94771 6 8.5 5.55228 8.5 5C8.5 4.7356 8.45537 4.64649 8.36499 4.46602L8.35557 4.44721C8.20227 4.14061 8 3.72658 8 3C8 2.27342 8.20227 1.85939 8.35557 1.55279L8.36499 1.53398C8.45537 1.35351 8.5 1.2644 8.5 1C8.5 0.447715 8.94771 0 9.5 0Z" fill="#B2B8BF"/>
<path d="M14 1C14 0.447715 13.5523 0 13 0C12.4477 0 12 0.447715 12 1C12 1.2644 11.9554 1.35351 11.865 1.53398L11.8556 1.55279C11.7023 1.85939 11.5 2.27342 11.5 3C11.5 3.72658 11.7023 4.14061 11.8556 4.44721L11.865 4.46602C11.9554 4.64649 12 4.7356 12 5C12 5.55228 12.4477 6 13 6C13.5523 6 14 5.55228 14 5C14 4.27342 13.7977 3.85939 13.6444 3.55279L13.635 3.53398C13.5446 3.35351 13.5 3.2644 13.5 3C13.5 2.7356 13.5446 2.64649 13.635 2.46602L13.6444 2.44721C13.7977 2.14061 14 1.72658 14 1Z" fill="#B2B8BF"/>
</svg>
