<svg width="20" height="20" viewBox="0 0 20 20" fill="none" xmlns="http://www.w3.org/2000/svg">
<path fill-rule="evenodd" clip-rule="evenodd" d="M10 0.599609C8.34315 0.599609 7 1.94276 7 3.59961C7 5.25646 8.34315 6.59961 10 6.59961C11.6569 6.59961 13 5.25646 13 3.59961C13 1.94276 11.6569 0.599609 10 0.599609ZM9 3.59961C9 3.04732 9.44772 2.59961 10 2.59961C10.5523 2.59961 11 3.04732 11 3.59961C11 4.15189 10.5523 4.59961 10 4.59961C9.44772 4.59961 9 4.15189 9 3.59961Z" fill="#107F8C"/>
<path fill-rule="evenodd" clip-rule="evenodd" d="M3.59998 11.5996C1.94312 11.5996 0.599976 12.9428 0.599976 14.5996C0.599976 16.2565 1.94312 17.5996 3.59998 17.5996C5.25683 17.5996 6.59998 16.2565 6.59998 14.5996C6.59998 12.9428 5.25683 11.5996 3.59998 11.5996ZM2.59998 14.5996C2.59998 14.0473 3.04769 13.5996 3.59998 13.5996C4.15226 13.5996 4.59998 14.0473 4.59998 14.5996C4.59998 15.1519 4.15226 15.5996 3.59998 15.5996C3.04769 15.5996 2.59998 15.1519 2.59998 14.5996Z" fill="#107F8C"/>
<path fill-rule="evenodd" clip-rule="evenodd" d="M13.4 14.5996C13.4 12.9428 14.7432 11.5996 16.4 11.5996C18.0569 11.5996 19.4 12.9428 19.4 14.5996C19.4 16.2565 18.0569 17.5996 16.4 17.5996C14.7432 17.5996 13.4 16.2565 13.4 14.5996ZM16.4 13.5996C15.8477 13.5996 15.4 14.0473 15.4 14.5996C15.4 15.1519 15.8477 15.5996 16.4 15.5996C16.9523 15.5996 17.4 15.1519 17.4 14.5996C17.4 14.0473 16.9523 13.5996 16.4 13.5996Z" fill="#107F8C"/>
<path d="M5.66694 6.15433C6.07846 5.786 6.11349 5.1538 5.74516 4.74228C5.37684 4.33075 4.74464 4.29573 4.33311 4.66405C2.99782 5.85916 2.04112 7.47236 1.67002 9.30054C1.56016 9.84178 1.90986 10.3696 2.4511 10.4795C2.99235 10.5893 3.52018 10.2396 3.63005 9.6984C3.913 8.30448 4.64316 7.07063 5.66694 6.15433Z" fill="#107F8C"/>
<path d="M15.6669 4.66405C15.2554 4.29573 14.6232 4.33075 14.2549 4.74228C13.8865 5.1538 13.9216 5.786 14.3331 6.15433C15.3569 7.07063 16.087 8.30448 16.37 9.6984C16.4798 10.2396 17.0077 10.5893 17.5489 10.4795C18.0902 10.3696 18.4399 9.84178 18.33 9.30054C17.9589 7.47236 17.0022 5.85916 15.6669 4.66405Z" fill="#107F8C"/>
<path d="M7.95169 17.1704C7.4275 16.9965 6.86159 17.2805 6.6877 17.8047C6.5138 18.3289 6.79778 18.8948 7.32197 19.0687C8.16522 19.3484 9.06598 19.4995 10 19.4995C10.934 19.4995 11.8348 19.3484 12.678 19.0687C13.2022 18.8948 13.4862 18.3289 13.3123 17.8047C13.1384 17.2805 12.5725 16.9965 12.0483 17.1704C11.4056 17.3836 10.7174 17.4995 10 17.4995C9.28267 17.4995 8.59439 17.3836 7.95169 17.1704Z" fill="#107F8C"/>
</svg>
