<svg width="20" height="20" viewBox="0 0 20 20" fill="none" xmlns="http://www.w3.org/2000/svg">
<path fill-rule="evenodd" clip-rule="evenodd" d="M9.71439 0.0378955C9.89239 -0.0125534 10.0809 -0.0126332 10.2589 0.0376651L18.2719 2.30137C18.7026 2.42306 19 2.81613 19 3.26371V8.43367C19 10.8667 17.9478 13.2078 16.3894 15.1763C14.8276 17.1492 12.709 18.8124 10.4465 19.9011C10.3112 19.9662 10.163 20 10.0129 20H9.98714C9.83701 20 9.68882 19.9662 9.55354 19.9011C7.31866 18.8257 5.22472 17.1901 3.66888 15.2495C2.11648 13.3133 1.05308 11.012 1.00192 8.6138L1.00169 8.60316L0.999939 8.43367L0.999996 3.26371C0.999996 2.81644 1.297 2.42357 1.72732 2.3016L9.71439 0.0378955ZM9.98751 2.03926L3 4.01968V8.42833L3.00158 8.57627C3.04216 10.4102 3.86561 12.2976 5.22929 13.9985C6.49371 15.5756 8.18258 16.9397 10 17.8879C11.8421 16.9269 13.5517 15.5387 14.8213 13.9349C16.1905 12.2054 17 10.2892 17 8.43367V4.02034L9.98751 2.03926Z" fill="#107F8C"/>
<path d="M7.5 8C8.32843 8 9 7.32843 9 6.5C9 5.67157 8.32843 5 7.5 5C6.67157 5 6 5.67157 6 6.5C6 7.32843 6.67157 8 7.5 8Z" fill="#107F8C"/>
<path d="M12.5 13C13.3284 13 14 12.3284 14 11.5C14 10.6716 13.3284 10 12.5 10C11.6716 10 11 10.6716 11 11.5C11 12.3284 11.6716 13 12.5 13Z" fill="#107F8C"/>
<path d="M8.20711 12.2071L13.2071 7.20711C13.5976 6.81658 13.5976 6.18342 13.2071 5.79289C12.8166 5.40237 12.1834 5.40237 11.7929 5.79289L6.79289 10.7929C6.40237 11.1834 6.40237 11.8166 6.79289 12.2071C7.18342 12.5976 7.81658 12.5976 8.20711 12.2071Z" fill="#107F8C"/>
</svg>
