<svg width="20" height="20" viewBox="0 0 20 20" fill="none" xmlns="http://www.w3.org/2000/svg">
<path fill-rule="evenodd" clip-rule="evenodd" d="M2.00278 3.26855C2.00278 2.71627 2.45049 2.26855 3.00278 2.26855H8.00288C10.2399 2.26855 12.1343 3.73783 12.7727 5.76465H15.9241C18.163 5.76465 19.9808 7.63457 19.9909 9.94806L20.0027 12.6506C20.0103 14.3682 18.6649 15.7646 17.0028 15.7646H16.4187C16.0811 16.9014 15.0284 17.7305 13.7821 17.7305C12.5328 17.7305 11.4781 16.8975 11.1431 15.7566H9.14486C8.80955 16.897 7.7551 17.7295 6.5062 17.7295C5.25729 17.7295 4.20284 16.897 3.86753 15.7566H2.00003C0.895459 15.7566 3.04303e-05 14.8612 3.04303e-05 13.7566V9.98517C3.04303e-05 9.43289 0.447746 8.98518 1.00003 8.98518C1.55232 8.98518 2.00003 9.43289 2.00003 9.98517V13.7566H4.04238C4.4925 12.8515 5.42671 12.2295 6.5062 12.2295C7.58568 12.2295 8.51989 12.8515 8.97001 13.7566H11.0128L11.0029 7.26333C11 5.60852 9.6577 4.26855 8.00288 4.26855H3.00278C2.45049 4.26855 2.00278 3.82084 2.00278 3.26855ZM16.2153 13.698H17.0028C17.5568 13.698 18.0053 13.2325 18.0028 12.66L17.9955 10.9971L13.0087 10.9971L13.0108 12.3402C13.2555 12.2688 13.5143 12.2305 13.7821 12.2305C14.8377 12.2305 15.7544 12.8253 16.2153 13.698ZM17.766 8.99707C17.4239 8.30491 16.7273 7.83131 15.9241 7.83131H13.0038L13.0056 8.99707H17.766ZM6.5062 14.2295C6.09198 14.2295 5.7562 14.5653 5.7562 14.9795C5.7562 15.3937 6.09198 15.7295 6.5062 15.7295C6.92041 15.7295 7.2562 15.3937 7.2562 14.9795C7.2562 14.5653 6.92041 14.2295 6.5062 14.2295ZM13.0321 14.9805C13.0321 14.5663 13.3679 14.2305 13.7821 14.2305C14.1963 14.2305 14.5321 14.5663 14.5321 14.9805C14.5321 15.3947 14.1963 15.7305 13.7821 15.7305C13.3679 15.7305 13.0321 15.3947 13.0321 14.9805ZM3.26355 9.99707C3.26355 9.44479 3.71127 8.99707 4.26355 8.99707L7.26355 8.99707C7.81583 8.99707 8.26355 9.44479 8.26355 9.99707C8.26355 10.5494 7.81583 10.9971 7.26355 10.9971H4.26355C3.71126 10.9971 3.26355 10.5494 3.26355 9.99707ZM0 6.76465C0 6.21236 0.447715 5.76465 1 5.76465L5.50668 5.76465C6.05897 5.76465 6.50668 6.21236 6.50668 6.76465C6.50668 7.31693 6.05897 7.76465 5.50668 7.76465L1 7.76465C0.447715 7.76465 0 7.31693 0 6.76465Z" fill="#B2B8BF"/>
</svg>
