<svg width="32" height="32" viewBox="0 0 32 32" fill="none" xmlns="http://www.w3.org/2000/svg">
<path d="M16.6329 9.34326C16.6329 8.79098 16.1852 8.34326 15.6329 8.34326C15.0807 8.34326 14.6329 8.79098 14.6329 9.34326V10.4048C14.1192 10.5604 13.619 10.8343 13.2112 11.244C12.4761 11.9826 12.1424 13.0629 12.444 14.3504C12.6438 15.203 13.2397 15.7461 13.7999 16.1062C14.2819 16.4161 14.8596 16.665 15.3472 16.8751C15.4119 16.903 15.475 16.9302 15.5362 16.9567C16.1102 17.2063 16.5442 17.4145 16.8476 17.6564C17.1173 17.8714 17.2079 18.0507 17.2218 18.2629C17.2763 19.0978 16.9965 19.4347 16.762 19.6075C16.4592 19.8306 16.0284 19.9172 15.6936 19.9172C14.6978 19.9172 14.3375 19.64 14.1896 19.4048C13.8957 18.9372 13.2784 18.7964 12.8108 19.0903C12.3432 19.3843 12.2024 20.0016 12.4964 20.4692C12.9833 21.2439 13.7488 21.6552 14.6329 21.8237V22.4692C14.6329 23.0215 15.0807 23.4692 15.6329 23.4692C16.1852 23.4692 16.6329 23.0215 16.6329 22.4692V21.8088C17.0615 21.7094 17.5258 21.529 17.9484 21.2176C18.7857 20.6006 19.312 19.5777 19.2175 18.1324C19.1568 17.2044 18.6673 16.5493 18.0943 16.0925C17.5552 15.6627 16.884 15.3619 16.3336 15.1226L16.1417 15.0394C15.6287 14.8173 15.2149 14.6382 14.8814 14.4239C14.5214 14.1924 14.421 14.0212 14.3913 13.8942C14.2339 13.2223 14.4201 12.8645 14.6288 12.6548C14.8824 12.4 15.295 12.2461 15.6936 12.2461C16.3808 12.2461 16.6695 12.466 16.8378 12.7595C17.1125 13.2387 17.7235 13.4044 18.2027 13.1297C18.6818 12.855 18.8475 12.2439 18.5728 11.7648C18.1277 10.9883 17.4447 10.535 16.6329 10.3477V9.34326Z" fill="#B2B8BF"/>
<path fill-rule="evenodd" clip-rule="evenodd" d="M3.78125 9.90625C3.78125 6.59254 6.46754 3.90625 9.78125 3.90625H21.7812C25.095 3.90625 27.7812 6.59254 27.7812 9.90625V21.9062C27.7812 25.22 25.095 27.9062 21.7812 27.9062H9.78125C6.46754 27.9062 3.78125 25.22 3.78125 21.9062V9.90625ZM9.78125 5.90625H21.7812C23.9904 5.90625 25.7812 7.69711 25.7812 9.90625V21.9062C25.7812 24.1154 23.9904 25.9062 21.7812 25.9062H9.78125C7.57211 25.9062 5.78125 24.1154 5.78125 21.9062V9.90625C5.78125 7.69711 7.57211 5.90625 9.78125 5.90625Z" fill="#B2B8BF"/>
</svg>
