<svg width="20" height="20" viewBox="0 0 20 20" fill="none" xmlns="http://www.w3.org/2000/svg">
<path fill-rule="evenodd" clip-rule="evenodd" d="M8.97521 1.00159C9.09742 1.54018 8.75988 2.07587 8.22129 2.19808C4.65879 3.00646 2 6.19385 2 9.99986C2 13.8059 4.65879 16.9933 8.22129 17.8016C8.75988 17.9238 9.09742 18.4595 8.97521 18.9981C8.85299 19.5367 8.31731 19.8743 7.77871 19.752C3.32525 18.7415 0 14.7602 0 9.99986C0 5.23951 3.32525 1.25821 7.77871 0.247666C8.31731 0.125453 8.85299 0.462995 8.97521 1.00159ZM11.0248 1.00159C11.147 0.462995 11.6827 0.125453 12.2213 0.247666C15.9615 1.09637 18.9035 4.03832 19.7522 7.77857C19.8744 8.31717 19.5369 8.85285 18.9983 8.97507C18.4597 9.09728 17.924 8.75974 17.8018 8.22115C17.1235 5.23189 14.768 2.87638 11.7787 2.19808C11.2401 2.07587 10.9026 1.54018 11.0248 1.00159ZM11.2929 11.2928C11.4804 11.1052 11.7348 10.9999 12 10.9999H18.777C19.0811 10.9999 19.3687 11.1382 19.5584 11.3759C19.7482 11.6135 19.8195 11.9246 19.7522 12.2211C18.9035 15.9614 15.9615 18.9033 12.2213 19.752C11.9247 19.8193 11.6137 19.748 11.376 19.5583C11.1384 19.3685 11 19.0809 11 18.7768L11 11.9999C11 11.7346 11.1054 11.4803 11.2929 11.2928ZM13 12.9999L13 17.4186C15.005 16.6069 16.607 15.0049 17.4187 12.9999H13Z" fill="#107F8C"/>
</svg>
