<svg width="20" height="20" viewBox="0 0 20 20" fill="none" xmlns="http://www.w3.org/2000/svg">
<path fill-rule="evenodd" clip-rule="evenodd" d="M10 0C4.47715 0 0 4.47715 0 10C0 15.5228 4.47715 20 10 20C15.5228 20 20 15.5228 20 10C20 4.47715 15.5228 0 10 0ZM5.296 3.52842C6.61623 2.56713 8.24189 2 10 2C11.8488 2 13.551 2.62711 14.9057 3.68021L13.477 5.10893C11.4716 3.67965 8.78426 3.63191 6.73329 4.96571L5.296 3.52842ZM3.83749 4.89834C2.68984 6.28308 2 8.06098 2 10C2 11.8488 2.62711 13.551 3.68021 14.9057L5.10901 13.4769C3.58169 11.334 3.63193 8.41234 5.25974 6.32059L3.83749 4.89834ZM5.09444 16.3199C6.44911 17.3729 8.15133 18 10 18C11.9391 18 13.717 17.3101 15.1018 16.1624L13.6795 14.7401C11.5878 16.3679 8.66626 16.4183 6.52326 14.8911L5.09444 16.3199ZM18 10C18 11.7581 17.4329 13.3837 16.4717 14.7039L15.0343 13.2665C16.368 11.2156 16.3202 8.52853 14.8912 6.52319L16.3199 5.09444C17.3729 6.44911 18 8.15133 18 10ZM7.17157 12.8284C5.60948 11.2663 5.60948 8.7336 7.17157 7.1715C8.73367 5.60941 11.2663 5.60941 12.8284 7.1715C14.3905 8.7336 14.3905 11.2663 12.8284 12.8284C11.2663 14.3905 8.73367 14.3905 7.17157 12.8284Z" fill="#B2B8BF"/>
</svg>
