<svg width="20" height="20" viewBox="0 0 20 20" fill="none" xmlns="http://www.w3.org/2000/svg">
<path fill-rule="evenodd" clip-rule="evenodd" d="M10 0C12.7614 0 15 2.23858 15 5C15 7.76142 12.7614 10 10 10C7.23858 10 5 7.76142 5 5C5 2.23858 7.23858 0 10 0ZM15.8431 10.4312C15.1282 9.85075 14.0879 9.85706 13.3822 10.4467C12.4319 11.2405 11.2052 11.6799 9.93093 11.6799C8.68074 11.6799 7.47203 11.2554 6.53033 10.4884C5.81433 9.90815 4.77654 9.91445 4.06997 10.5027C2.12133 12.1313 1 14.4815 1 16.9516C1 17.455 1.04905 17.9687 1.14517 18.4791C1.31353 19.3696 2.10849 20 3.01829 20H16.9817L17.141 19.9935C17.9834 19.9249 18.6977 19.3167 18.855 18.4783C18.9511 17.9717 19 17.4575 19 16.9516C19 14.4394 17.8459 12.0616 15.8431 10.4312ZM9.93093 13.6798C11.6526 13.6798 13.3163 13.0905 14.6223 12.0165C16.1368 13.2686 17 15.0639 17 16.9515C17 17.1814 16.9864 17.4147 16.9595 17.6488L16.9091 18H3.09104L3.04059 17.6475C3.01362 17.413 3 17.18 3 16.9515C3 15.0972 3.83848 13.3227 5.30966 12.0734C6.60234 13.1105 8.2411 13.6798 9.93093 13.6798ZM7 5C7 3.34315 8.34315 2 10 2C11.6569 2 13 3.34315 13 5C13 6.65685 11.6569 8 10 8C8.34315 8 7 6.65685 7 5Z" fill="#21A19A"/>
<path fill-rule="evenodd" clip-rule="evenodd" d="M10 15.5C10 14.9477 10.4477 14.5 11 14.5H14.5C15.0523 14.5 15.5 14.9477 15.5 15.5C15.5 16.0523 15.0523 16.5 14.5 16.5H11C10.4477 16.5 10 16.0523 10 15.5Z" fill="#21A19A"/>
</svg>
