<svg width="32" height="32" viewBox="0 0 32 32" fill="none" xmlns="http://www.w3.org/2000/svg">
<path fill-rule="evenodd" clip-rule="evenodd" d="M16 3C16.5523 3 17 3.44772 17 4C17 4.55228 16.5523 5 16 5C15.6581 5 15.242 5.16212 14.7666 5.64453C14.2876 6.13074 13.81 6.88595 13.3877 7.89941C12.6334 9.70968 12.1195 12.1936 12.0195 15H13C13.5523 15 14 15.4477 14 16C14 16.5523 13.5523 17 13 17H12.0195C12.1195 19.8064 12.6334 22.2903 13.3877 24.1006C13.81 25.114 14.2876 25.8693 14.7666 26.3555C15.242 26.8379 15.6581 27 16 27C16.5389 27 17.2854 26.5701 18.0518 25.2471C18.7897 23.973 19.3951 22.105 19.7266 19.8545C19.807 19.3081 20.3149 18.9303 20.8613 19.0107C21.4076 19.0913 21.7854 19.5993 21.7051 20.1455C21.3501 22.5557 20.6862 24.6883 19.7822 26.249C19.7618 26.2843 19.7396 26.3185 19.7188 26.3535C22.8187 25.2399 25.2752 22.7755 26.374 19.667C26.5581 19.1463 27.1297 18.8736 27.6504 19.0576C28.171 19.2417 28.4437 19.8124 28.2598 20.333C26.4756 25.3808 21.6618 29 16 29C8.8203 29 3 23.1797 3 16C3 8.8203 8.8203 3 16 3ZM5.04688 17C5.43727 21.3314 8.33686 24.9377 12.2822 26.3545C12.0109 25.8998 11.7626 25.4019 11.541 24.8701C10.6694 22.7781 10.1189 20.0228 10.0186 17H5.04688ZM12.2822 5.64453C8.33671 7.06123 5.43728 10.6685 5.04688 15H10.0186C10.1189 11.9772 10.6694 9.22186 11.541 7.12988C11.7627 6.59779 12.0107 6.09938 12.2822 5.64453Z" fill="#B2B8BF"/>
<path fill-rule="evenodd" clip-rule="evenodd" d="M22.5 6C24.0855 6 25.4242 7.05434 25.8545 8.5H27.4658C29.111 8.5002 30.4486 9.82558 30.4648 11.4707L30.4902 13.9805C30.5011 15.0926 29.6024 15.9999 28.4902 16H27.7305C27.3845 16.5973 26.7399 17 26 17C25.2601 17 24.6155 16.5973 24.2695 16H21.7305C21.3845 16.5973 20.7399 17 20 17C19.2601 17 18.6155 16.5973 18.2695 16H18C16.8954 16 16 15.1046 16 14V8.5C16 7.11929 17.1193 6 18.5 6H22.5ZM18.5 8C18.2239 8 18 8.22386 18 8.5V14H18.2695C18.6155 13.4027 19.2601 13 20 13C20.7399 13 21.3845 13.4027 21.7305 14H24V9.5C24 8.67157 23.3284 8 22.5 8H18.5ZM26 13C26.7399 13 27.3845 13.4027 27.7305 14H28.4902L28.4658 11.4902C28.4604 10.9419 28.0141 10.5002 27.4658 10.5H26V13Z" fill="#B2B8BF"/>
</svg>
