<svg width="20" height="20" viewBox="0 0 20 20" fill="none" xmlns="http://www.w3.org/2000/svg">
<g clip-path="url(#clip0_37788_1394)">
<path fill-rule="evenodd" clip-rule="evenodd" d="M16.765 16.9468C16.765 18.5985 15.426 19.9375 13.7743 19.9375H10.0219C9.20019 19.9375 8.41466 19.5994 7.84982 19.0026L2.38106 13.2243C1.85542 12.6689 1.5625 11.9332 1.5625 11.1685V2.99046C1.5625 1.33877 2.90146 -0.000194702 4.55315 -0.000194702H8.47839C9.02895 -0.000194702 9.47527 0.446126 9.47527 0.99669C9.47527 1.54725 9.02895 1.99357 8.47839 1.99357H4.55315C4.00259 1.99357 3.55627 2.4399 3.55627 2.99046V10.9655H7.54381C9.1955 10.9655 10.5345 12.3045 10.5345 13.9562V17.9437H13.7743C14.3249 17.9437 14.7712 17.4974 14.7712 16.9468V10.2179C14.7712 9.66731 15.2175 9.22099 15.7681 9.22099C16.3187 9.22099 16.765 9.66731 16.765 10.2179V16.9468ZM8.54069 16.832L4.87543 12.9593H7.54381C8.09437 12.9593 8.54069 13.4056 8.54069 13.9562V16.832Z" fill="#B2B8BF"/>
<path d="M17.7268 8.09949C18.572 8.09949 19.2572 7.41432 19.2572 6.56912C19.2572 5.72392 18.572 5.03875 17.7268 5.03875C16.8816 5.03875 16.1965 5.72392 16.1965 6.56912C16.1965 7.41432 16.8816 8.09949 17.7268 8.09949Z" fill="#B2B8BF"/>
<path d="M12.6256 2.99825C13.4708 2.99825 14.156 2.31308 14.156 1.46787C14.156 0.622672 13.4708 -0.0625 12.6256 -0.0625C11.7804 -0.0625 11.0952 0.622672 11.0952 1.46787C11.0952 2.31308 11.7804 2.99825 12.6256 2.99825Z" fill="#B2B8BF"/>
<path d="M18.4483 2.1893L13.347 7.29055C12.9486 7.68898 12.3026 7.68898 11.9042 7.29055C11.5057 6.89211 11.5057 6.24613 11.9042 5.84769L17.0054 0.746448C17.4038 0.348016 18.0498 0.348016 18.4483 0.746448C18.8467 1.14488 18.8467 1.79087 18.4483 2.1893Z" fill="#B2B8BF"/>
</g>
<defs>
<clipPath id="clip0_37788_1394">
<rect width="20" height="20" fill="white" transform="translate(20 20) rotate(-180)"/>
</clipPath>
</defs>
</svg>
