<svg width="32" height="32" viewBox="0 0 32 32" fill="none" xmlns="http://www.w3.org/2000/svg">
<path fill-rule="evenodd" clip-rule="evenodd" d="M23.0023 15.5C23.5546 15.5 24.0023 15.9477 24.0023 16.5V21.6875C24.0023 22.6152 23.7139 23.3677 23.1739 23.9101C22.656 24.4303 22.0061 24.657 21.458 24.7542C20.9063 24.852 20.3776 24.8333 20.0038 24.7965C19.813 24.7777 19.6529 24.7531 19.5379 24.7328C19.4802 24.7225 19.4333 24.7132 19.399 24.7061C19.3818 24.7025 19.3677 24.6994 19.3569 24.697L19.3433 24.6939L19.3384 24.6928L19.3364 24.6923C19.3364 24.6923 18.3034 24.4107 18.5334 23.4375C18.7601 22.4783 19.7646 22.7376 19.7934 22.7452L19.8077 22.7483C19.8238 22.7516 19.8507 22.757 19.887 22.7635C19.96 22.7764 20.0684 22.7931 20.1999 22.8061C20.4706 22.8328 20.8013 22.8394 21.109 22.7849C21.4203 22.7297 21.6298 22.6263 21.7565 22.4991C21.8565 22.3986 21.9901 22.1999 22.0015 21.7503C21.6163 21.9112 21.1935 22 20.75 22C18.9551 22 17.5 20.5449 17.5 18.75C17.5 16.9551 18.9551 15.5 20.75 15.5C21.2851 15.5 21.79 15.6293 22.2352 15.8584C22.4186 15.6393 22.6942 15.5 23.0023 15.5ZM20.75 17.5C20.0596 17.5 19.5 18.0596 19.5 18.75C19.5 19.4404 20.0596 20 20.75 20C21.4404 20 22 19.4404 22 18.75C22 18.0596 21.4404 17.5 20.75 17.5Z" fill="#B2B8BF"/>
<path fill-rule="evenodd" clip-rule="evenodd" d="M13.4439 10.6696C13.3035 10.2686 12.9249 10 12.5 10C12.0751 10 11.6965 10.2686 11.5561 10.6696L8.05614 20.6696C7.87369 21.1909 8.14837 21.7614 8.66965 21.9439C9.19093 22.1263 9.76141 21.8516 9.94386 21.3304L10.7595 19H14.2405L15.0561 21.3304C15.2386 21.8516 15.8091 22.1263 16.3303 21.9439C16.8516 21.7614 17.1263 21.1909 16.9439 20.6696L13.4439 10.6696ZM12.5 14.0271L13.5405 17H11.4595L12.5 14.0271Z" fill="#B2B8BF"/>
<path fill-rule="evenodd" clip-rule="evenodd" d="M10 4C6.68629 4 4 6.68629 4 10V22C4 25.3137 6.68629 28 10 28H22C25.3137 28 28 25.3137 28 22V10C28 6.68629 25.3137 4 22 4H10ZM22 6H10C7.79086 6 6 7.79086 6 10V22C6 24.2091 7.79086 26 10 26H22C24.2091 26 26 24.2091 26 22V10C26 7.79086 24.2091 6 22 6Z" fill="#B2B8BF"/>
</svg>
