<svg width="20" height="20" viewBox="0 0 20 20" fill="none" xmlns="http://www.w3.org/2000/svg">
<path d="M3 3C3 2.44772 3.44772 2 4 2H7C7.55228 2 8 1.55228 8 1C8 0.447715 7.55228 0 7 0H4C2.34315 0 1 1.34315 1 3V17C1 18.6569 2.34315 20 4 20H14C15.6569 20 17 18.6569 17 17V12C17 11.4477 16.5523 11 16 11C15.4477 11 15 11.4477 15 12V17C15 17.5523 14.5523 18 14 18H4C3.44772 18 3 17.5523 3 17V3Z" fill="#B2B8BF"/>
<path d="M5 10C5 9.44771 5.44772 9 6 9H9C9.55228 9 10 9.44771 10 10C10 10.5523 9.55228 11 9 11H6C5.44772 11 5 10.5523 5 10Z" fill="#B2B8BF"/>
<path d="M6 13C5.44772 13 5 13.4477 5 14C5 14.5523 5.44772 15 6 15H12C12.5523 15 13 14.5523 13 14C13 13.4477 12.5523 13 12 13H6Z" fill="#B2B8BF"/>
<path fill-rule="evenodd" clip-rule="evenodd" d="M14.5 0C12.0147 0 10 2.01472 10 4.5C10 6.98528 12.0147 9 14.5 9C15.3805 9 16.202 8.74709 16.8957 8.30995L18.2929 9.70711C18.6834 10.0976 19.3166 10.0976 19.7071 9.70711C20.0976 9.31658 20.0976 8.68342 19.7071 8.29289L18.31 6.89574C18.7471 6.20201 19 5.38054 19 4.5C19 2.01472 16.9853 0 14.5 0ZM12 4.5C12 3.11929 13.1193 2 14.5 2C15.8807 2 17 3.11929 17 4.5C17 5.88071 15.8807 7 14.5 7C13.1193 7 12 5.88071 12 4.5Z" fill="#B2B8BF"/>
</svg>
