<svg width="32" height="32" viewBox="0 0 32 32" fill="none" xmlns="http://www.w3.org/2000/svg">
<path d="M15.5 10.0001C16.0523 10.0001 16.5 10.4479 16.5 11.0001C16.4999 11.5524 16.0522 12.0001 15.5 12.0001H10.5C9.94775 12.0001 9.50006 11.5524 9.5 11.0001C9.5 10.4479 9.94772 10.0001 10.5 10.0001H15.5Z" fill="#107F8C"/>
<path fill-rule="evenodd" clip-rule="evenodd" d="M8.29297 7.10463C11.1596 5.75737 14.7695 5.5765 17.9941 6.89857C19.9043 6.01675 22.2109 5.99916 24.0088 5.99916C24.3299 5.99922 24.6314 6.15386 24.8193 6.4142C25.0072 6.67463 25.0592 7.00983 24.958 7.31459L24.0908 9.92299L25.6201 13.0001H27C27.5523 13.0001 28 13.4479 28 14.0001V18.5001C27.9998 18.8783 27.7863 19.2242 27.4482 19.3937L22.7588 21.7453L20.8936 25.4494C20.7236 25.7867 20.3777 25.9992 20 25.9992H16C15.4478 25.9992 15.0001 25.5514 15 24.9992V23.9992H13V24.9992C12.9999 25.5514 12.5522 25.9992 12 25.9992H8C7.68022 25.9992 7.3796 25.8465 7.19141 25.588L7.19043 25.5871L7.18945 25.5851C7.18871 25.5841 7.18765 25.5828 7.18652 25.5812C7.184 25.5777 7.18016 25.5726 7.17578 25.5665C7.16701 25.5543 7.15442 25.537 7.13867 25.5148C7.10682 25.4698 7.06135 25.404 7.00391 25.3204C6.88904 25.1533 6.72709 24.9115 6.5332 24.6085C6.14583 24.0033 5.62875 23.1481 5.11133 22.1456C4.09456 20.1757 3.00003 17.4979 3 14.9992C3.00014 11.2849 5.27676 8.52233 8.29297 7.10463ZM17.6084 8.90932C14.825 7.63129 11.6266 7.74721 9.14355 8.9142C6.67698 10.0735 5.00014 12.2147 5 14.9992C5.00003 17.0004 5.90548 19.3237 6.88867 21.2287C7.37104 22.1632 7.85426 22.9639 8.2168 23.5304C8.33363 23.713 8.44038 23.8696 8.52734 23.9992H11V22.9992C11.0002 22.4471 11.4479 21.9992 12 21.9992H16C16.5521 21.9992 16.9998 22.4471 17 22.9992V23.9992H19.3838L21.1211 20.5499C21.2178 20.3579 21.3742 20.202 21.5664 20.1056L26 17.882V15.0001H25C24.6205 15.0001 24.2735 14.7853 24.1045 14.4454L22.1162 10.4454C21.9986 10.209 21.9792 9.93532 22.0625 9.68471L22.6162 8.01869C21.0781 8.068 19.6371 8.24598 18.5137 8.87318C18.2351 9.02875 17.8984 9.04246 17.6084 8.90932Z" fill="#107F8C"/>
</svg>
