<svg width="32" height="32" viewBox="0 0 32 32" fill="none" xmlns="http://www.w3.org/2000/svg">
<path fill-rule="evenodd" clip-rule="evenodd" d="M12.6104 15.6084H12.8185V10.8037C12.8185 10.2514 13.2662 9.80371 13.8185 9.80371H16.6011C17.6802 9.80371 18.5794 10.3459 19.1833 11.0705C19.7828 11.7899 20.1406 12.7408 20.1406 13.7061C20.1406 14.6713 19.7828 15.6222 19.1833 16.3416C18.5794 17.0662 17.6802 17.6084 16.6011 17.6084H14.8185V18.027H16.2383C16.7906 18.027 17.2383 18.4747 17.2383 19.027C17.2383 19.5793 16.7906 20.027 16.2383 20.027H14.8185V21.4456C14.8185 21.9979 14.3708 22.4456 13.8185 22.4456C13.2662 22.4456 12.8185 21.9979 12.8185 21.4456V20.027H12.6104C12.0581 20.027 11.6104 19.5793 11.6104 19.027C11.6104 18.4747 12.0581 18.027 12.6104 18.027H12.8185V17.6084H12.6104C12.0581 17.6084 11.6104 17.1607 11.6104 16.6084C11.6104 16.0561 12.0581 15.6084 12.6104 15.6084ZM14.8185 15.6084V11.8037H16.6011C16.9731 11.8037 17.3437 11.9871 17.6468 12.3509C17.9543 12.7198 18.1406 13.2202 18.1406 13.7061C18.1406 14.192 17.9543 14.6923 17.6468 15.0612C17.3437 15.425 16.9731 15.6084 16.6011 15.6084H14.8185Z" fill="#107F8C"/>
<path fill-rule="evenodd" clip-rule="evenodd" d="M3.875 10.125C3.875 6.81129 6.56129 4.125 9.875 4.125H21.875C25.1887 4.125 27.875 6.81129 27.875 10.125V22.125C27.875 25.4387 25.1887 28.125 21.875 28.125H9.875C6.56129 28.125 3.875 25.4387 3.875 22.125V10.125ZM9.875 6.125H21.875C24.0841 6.125 25.875 7.91586 25.875 10.125V22.125C25.875 24.3341 24.0841 26.125 21.875 26.125H9.875C7.66586 26.125 5.875 24.3341 5.875 22.125V10.125C5.875 7.91586 7.66586 6.125 9.875 6.125Z" fill="#107F8C"/>
</svg>
