<svg width="32" height="32" viewBox="0 0 32 32" fill="none" xmlns="http://www.w3.org/2000/svg">
<path d="M7 7.81818C7 7.35681 7.36762 7 7.8 7H14C14.5523 7 15 6.55228 15 6C15 5.44772 14.5523 5 14 5H7.8C6.24415 5 5 6.27124 5 7.81818V24.1818C5 25.7288 6.24415 27 7.8 27H22.2C23.7558 27 25 25.7288 25 24.1818V20.5C25 19.9477 24.5523 19.5 24 19.5C23.4477 19.5 23 19.9477 23 20.5V24.1818C23 24.6432 22.6324 25 22.2 25H7.8C7.36762 25 7 24.6432 7 24.1818V7.81818Z" fill="#21A19A"/>
<path d="M11 10C10.4477 10 10 10.4477 10 11C10 11.5523 10.4477 12 11 12H14C14.5523 12 15 11.5523 15 11C15 10.4477 14.5523 10 14 10H11Z" fill="#21A19A"/>
<path d="M10 16C10 15.4477 10.4477 15 11 15H14C14.5523 15 15 15.4477 15 16C15 16.5523 14.5523 17 14 17H11C10.4477 17 10 16.5523 10 16Z" fill="#21A19A"/>
<path d="M11 20C10.4477 20 10 20.4477 10 21C10 21.5523 10.4477 22 11 22H16C16.5523 22 17 21.5523 17 21C17 20.4477 16.5523 20 16 20H11Z" fill="#21A19A"/>
<path d="M23.7071 4.29289C23.3166 3.90237 22.6834 3.90237 22.2929 4.29289C21.9024 4.68342 21.9024 5.31658 22.2929 5.70711L24.5858 8H17.627C17.0747 8 16.627 8.44772 16.627 9C16.627 9.55228 17.0747 10 17.627 10H24.5858L22.2929 12.2929C21.9024 12.6834 21.9024 13.3166 22.2929 13.7071C22.6834 14.0976 23.3166 14.0976 23.7071 13.7071L27.7071 9.70711C28.0976 9.31658 28.0976 8.68342 27.7071 8.29289L23.7071 4.29289Z" fill="#21A19A"/>
</svg>
