<svg width="20" height="20" viewBox="0 0 20 20" fill="none" xmlns="http://www.w3.org/2000/svg">
<path fill-rule="evenodd" clip-rule="evenodd" d="M2 0C0.89543 0 0 0.895431 0 2V6C0 7.10457 0.895431 8 2 8H6C7.10457 8 8 7.10457 8 6V2C8 0.89543 7.10457 0 6 0H2ZM2 2H6V6H2V2Z" fill="#107F8C"/>
<path fill-rule="evenodd" clip-rule="evenodd" d="M15.5 11C13.0147 11 11 13.0147 11 15.5C11 17.9853 13.0147 20 15.5 20C17.9853 20 20 17.9853 20 15.5C20 13.0147 17.9853 11 15.5 11ZM13 15.5C13 14.1193 14.1193 13 15.5 13C16.8807 13 18 14.1193 18 15.5C18 16.8807 16.8807 18 15.5 18C14.1193 18 13 16.8807 13 15.5Z" fill="#107F8C"/>
<path d="M12 1C11.4477 1 11 1.44772 11 2C11 2.55228 11.4477 3 12 3C14.7614 3 17 5.23858 17 8C17 8.55228 17.4477 9 18 9C18.5523 9 19 8.55228 19 8C19 4.13401 15.866 1 12 1Z" fill="#107F8C"/>
<path d="M8 19C8.55228 19 9 18.5523 9 18C9 17.4477 8.55228 17 8 17C5.23858 17 3 14.7614 3 12C3 11.4477 2.55228 11 2 11C1.44772 11 1 11.4477 1 12C1 15.866 4.13401 19 8 19Z" fill="#107F8C"/>
</svg>
