<svg width="20" height="20" viewBox="0 0 20 20" fill="none" xmlns="http://www.w3.org/2000/svg">
<path d="M6.65592 0.0611605C6.87824 -0.0203868 7.1223 -0.0203868 7.34463 0.0611605L13.3446 2.26189C13.8631 2.45207 14.1293 3.02658 13.9391 3.54508C13.7489 4.06359 13.1744 4.32975 12.6559 4.13957L7.00027 2.06514L1.34463 4.13957C0.82612 4.32975 0.251614 4.06359 0.0614324 3.54508C-0.12875 3.02658 0.13741 2.45207 0.655917 2.26189L6.65592 0.0611605Z" fill="#107F8C"/>
<path d="M0.0305176 13C0.0305176 12.4477 0.478233 12 1.03052 12H8.53052C9.0828 12 9.53052 12.4477 9.53052 13C9.53052 13.5523 9.0828 14 8.53052 14H1.03052C0.478233 14 0.0305176 13.5523 0.0305176 13Z" fill="#107F8C"/>
<path d="M7.00024 5C7.55253 5 8.00024 5.44772 8.00024 6V9.73044C8.00024 10.2827 7.55253 10.7304 7.00024 10.7304C6.44796 10.7304 6.00024 10.2827 6.00024 9.73044V6C6.00024 5.44772 6.44796 5 7.00024 5Z" fill="#107F8C"/>
<path d="M11.0002 5C11.5525 5 12.0002 5.44772 12.0002 6V7C12.0002 7.55228 11.5525 8 11.0002 8C10.448 8 10.0002 7.55228 10.0002 7V6C10.0002 5.44772 10.448 5 11.0002 5Z" fill="#107F8C"/>
<path d="M3.00024 5C3.55253 5 4.00024 5.44772 4.00024 6V9.73044C4.00024 10.2827 3.55253 10.7304 3.00024 10.7304C2.44796 10.7304 2.00024 10.2827 2.00024 9.73044V6C2.00024 5.44772 2.44796 5 3.00024 5Z" fill="#107F8C"/>
<path d="M12.7071 18.7071L18.7071 12.7071C19.0976 12.3166 19.0976 11.6834 18.7071 11.2929C18.3166 10.9024 17.6834 10.9024 17.2929 11.2929L11.2929 17.2929C10.9024 17.6834 10.9024 18.3166 11.2929 18.7071C11.6834 19.0976 12.3166 19.0976 12.7071 18.7071Z" fill="#107F8C"/>
<path d="M12.5 14C13.3284 14 14 13.3284 14 12.5C14 11.6716 13.3284 11 12.5 11C11.6716 11 11 11.6716 11 12.5C11 13.3284 11.6716 14 12.5 14Z" fill="#107F8C"/>
<path d="M19 17.5C19 18.3284 18.3284 19 17.5 19C16.6716 19 16 18.3284 16 17.5C16 16.6716 16.6716 16 17.5 16C18.3284 16 19 16.6716 19 17.5Z" fill="#107F8C"/>
</svg>
