<svg width="20" height="20" viewBox="0 0 20 20" fill="none" xmlns="http://www.w3.org/2000/svg">
<path fill-rule="evenodd" clip-rule="evenodd" d="M5 0H10C10.5523 0 11 0.447716 11 1C11 1.55228 10.5523 2 10 2H5C4.44772 2 4 2.44772 4 3V12H7C8.65685 12 10 13.3431 10 15V18H15C15.5523 18 16 17.5523 16 17V10C16 9.44771 16.4477 9 17 9C17.5523 9 18 9.44771 18 10V17C18 18.6569 16.6569 20 15 20H8.82843C8.03278 20 7.26972 19.6839 6.70711 19.1213L2.87868 15.2929C2.31607 14.7303 2 13.9672 2 13.1716V3C2 1.34315 3.34315 0 5 0ZM7 14H4.41421L8 17.5858V15C8 14.4477 7.55228 14 7 14Z" fill="#B2B8BF"/>
<path fill-rule="evenodd" clip-rule="evenodd" d="M9.8493 10.0143C9.32446 9.99595 8.90325 9.57474 8.88488 9.0499L8.78925 6.31711C8.77955 6.03992 8.88541 5.77115 9.08153 5.57503L14.3559 0.300705C14.7464 -0.089819 15.3795 -0.089819 15.7701 0.300705L18.5985 3.12913C18.989 3.51966 18.989 4.15282 18.5985 4.54335L13.3242 9.81767C13.128 10.0138 12.8593 10.1197 12.5821 10.11L9.8493 10.0143ZM12.2174 8.09597L16.4772 3.83624L15.063 2.42203L10.8032 6.68175L10.851 8.04815L12.2174 8.09597Z" fill="#B2B8BF"/>
</svg>
