<svg width="20" height="20" viewBox="0 0 20 20" fill="none" xmlns="http://www.w3.org/2000/svg">
<path fill-rule="evenodd" clip-rule="evenodd" d="M6.29016 3C6.07189 3 5.67799 3.24575 5.55962 3.76599C5.55469 3.78764 5.54905 3.80911 5.54269 3.83038L4.95835 5.78626C4.80026 6.31543 4.24312 6.61625 3.71394 6.45815C3.18477 6.30006 2.88395 5.74292 3.04205 5.21374L3.61785 3.28645C3.89504 2.13524 4.90375 1 6.29016 1H8.00004C8.00009 1 8.00015 1 8.0002 1H13.7058C15.0918 1 16.1003 2.13451 16.3779 3.28535L16.9577 5.21177C17.1169 5.74061 16.8172 6.29837 16.2884 6.45756C15.7596 6.61675 15.2018 6.31708 15.0426 5.78823L14.4539 3.83236C14.4473 3.81044 14.4414 3.78831 14.4364 3.76599C14.318 3.24575 13.9241 3 13.7058 3H8.0002C8.00015 3 8.00009 3 8.00004 3H6.29016ZM0 11C0 9.34315 1.34315 8 3 8H17C18.6569 8 20 9.34315 20 11V13C20 14.3062 19.1652 15.4175 18 15.8293V16C18 17.6569 16.6569 19 15 19C13.3431 19 12.0001 17.6566 12 16H8C8 17.6569 6.65685 19 5 19C3.34315 19 2 17.6569 2 16V15.8293C0.834808 15.4175 0 14.3062 0 13V11ZM3 10C2.44772 10 2 10.4477 2 11V13C2 13.5523 2.44772 14 3 14C3.55228 14 4 14.4477 4 15L4 16C4 16.5523 4.44772 17 5 17C5.55228 17 6 16.5523 6 16V15C6 14.4477 6.44772 14 7 14H13C13.5523 14 14 14.4477 14 15V15.9998C14 16.5522 14.4478 17 15 17C15.5523 17 16 16.5523 16 16V15C16 14.4477 16.4477 14 17 14C17.5523 14 18 13.5523 18 13V11C18 10.4477 17.5523 10 17 10H3ZM13 12C13 11.4477 13.4477 11 14 11H16C16.5523 11 17 11.4477 17 12C17 12.5523 16.5523 13 16 13H14C13.4477 13 13 12.5523 13 12ZM4 11C3.44772 11 3 11.4477 3 12C3 12.5523 3.44772 13 4 13H6C6.55228 13 7 12.5523 7 12C7 11.4477 6.55228 11 6 11H4Z" fill="#107F8C"/>
</svg>
