<svg width="20" height="20" viewBox="0 0 20 20" fill="none" xmlns="http://www.w3.org/2000/svg">
<path fill-rule="evenodd" clip-rule="evenodd" d="M16.9971 0.923352C17.0394 1.47401 16.6274 1.95474 16.0767 1.9971L5.84661 2.78403C4.80461 2.86419 4 3.73307 4 4.77814V16C4 17.1046 4.89543 18 6 18H16V6.00005H7.5C6.94772 6.00005 6.5 5.55233 6.5 5.00005C6.5 4.44776 6.94772 4.00005 7.5 4.00005H17C17.5523 4.00005 18 4.44776 18 5.00005V19C18 19.5523 17.5523 20 17 20H6C3.79086 20 2 18.2092 2 16V4.77814C2 2.688 3.60923 0.95023 5.69322 0.789924L15.9233 0.00299409C16.474 -0.0393642 16.9547 0.372694 16.9971 0.923352ZM7 10C7 9.44771 7.44772 9 8 9L13 9C13.5523 9 14 9.44772 14 10C14 10.5523 13.5523 11 13 11L8 11C7.44772 11 7 10.5523 7 10ZM9.5 12C8.94772 12 8.5 12.4477 8.5 13C8.5 13.5523 8.94772 14 9.5 14H11.5C12.0523 14 12.5 13.5523 12.5 13C12.5 12.4477 12.0523 12 11.5 12H9.5Z" fill="#107F8C"/>
</svg>
