<svg width="32" height="32" viewBox="0 0 32 32" fill="none" xmlns="http://www.w3.org/2000/svg">
<path fill-rule="evenodd" clip-rule="evenodd" d="M9.37582 14.1214C9.4619 11.4728 11.5806 7.87692 15.9968 7.875L16.0003 7.875L16.0032 7.875C20.4194 7.87692 22.5381 11.4728 22.6242 14.1214C22.6889 16.1134 22.0556 17.4672 21.7324 17.8981C21.5198 18.1816 21.1729 18.3314 20.8207 18.2918C19.8604 18.1839 18.9362 18.5223 18.233 19.2727C17.5352 20.0174 17.0149 21.2182 17 22.8785L17.0003 22.9519C17.0003 23.5042 16.5526 23.9519 16.0003 23.9519C15.448 23.9519 14.9997 23.5042 14.9997 22.9519L15 22.8785C14.9851 21.2182 14.4648 20.0174 13.767 19.2727C13.0638 18.5223 12.1396 18.1839 11.1793 18.2918C10.8271 18.3314 10.4802 18.1816 10.2676 17.8981C9.94442 17.4672 9.31108 16.1134 9.37582 14.1214ZM11.3748 14.1863C11.4348 12.3381 12.9188 9.87516 16 9.875C19.0812 9.87516 20.5652 12.3381 20.6252 14.1863C20.6506 14.9655 20.5371 15.5866 20.4067 16.025C20.3791 16.1178 20.3513 16.2009 20.3244 16.2743C18.9827 16.3135 17.7263 16.8885 16.7736 17.9052C16.4836 18.2147 16.2246 18.5616 16 18.9425C15.7754 18.5616 15.5164 18.2147 15.2264 17.9052C14.2737 16.8885 13.0173 16.3135 11.6756 16.2743C11.6487 16.2009 11.6209 16.1178 11.5933 16.025C11.4629 15.5866 11.3494 14.9655 11.3748 14.1863Z" fill="#107F8C"/>
<path fill-rule="evenodd" clip-rule="evenodd" d="M16 3C8.8203 3 3 8.8203 3 16C3 23.1797 8.8203 29 16 29C23.1797 29 29 23.1797 29 16C29 8.8203 23.1797 3 16 3ZM5 16C5 9.92487 9.92487 5 16 5C22.0751 5 27 9.92487 27 16C27 22.0751 22.0751 27 16 27C9.92487 27 5 22.0751 5 16Z" fill="#107F8C"/>
</svg>
