<svg width="20" height="20" viewBox="0 0 20 20" fill="none" xmlns="http://www.w3.org/2000/svg">
<path fill-rule="evenodd" clip-rule="evenodd" d="M7.5 0C5.01472 0 3 2.01472 3 4.5C3 6.98528 5.01472 9 7.5 9C9.98528 9 12 6.98528 12 4.5C12 2.01472 9.98528 0 7.5 0ZM5 4.5C5 3.11929 6.11929 2 7.5 2C8.88071 2 10 3.11929 10 4.5C10 5.88071 8.88071 7 7.5 7C6.11929 7 5 5.88071 5 4.5Z" fill="#107F8C"/>
<path d="M6.30841 12.3601C5.35799 12.1746 4.46142 11.7582 3.69836 11.1425C2.61855 12.2008 2 13.6686 2 15.2077C2 15.4667 2.01876 15.7326 2.05599 16.0001H6C6.55228 16.0001 7 16.4478 7 17.0001C7 17.5524 6.55228 18.0001 6 18.0001H1.82736C0.971534 18.0001 0.263154 17.3765 0.118972 16.5552C0.0408382 16.1084 0 15.6548 0 15.2077C0 13.0272 0.921082 10.9447 2.53272 9.49411L2.53415 9.49282C3.18637 8.90804 4.16609 8.90208 4.82535 9.47748L4.8272 9.4791C5.36388 9.94985 6.00827 10.2638 6.69159 10.3972C7.23364 10.503 7.58729 11.0282 7.48147 11.5702C7.37566 12.1123 6.85046 12.4659 6.30841 12.3601Z" fill="#107F8C"/>
<path fill-rule="evenodd" clip-rule="evenodd" d="M9 13C9 11.8954 9.89543 11 11 11H11.5C11.5 9.34315 12.8431 8 14.5 8C16.1569 8 17.5 9.34315 17.5 11H18C19.1046 11 20 11.8954 20 13V18C20 19.1046 19.1046 20 18 20H11C9.89543 20 9 19.1046 9 18V13ZM15.5 11C15.5 10.4477 15.0523 10 14.5 10C13.9477 10 13.5 10.4477 13.5 11H15.5ZM18 18V13H11V18H18Z" fill="#107F8C"/>
</svg>
