<svg width="20" height="20" viewBox="0 0 20 20" fill="none" xmlns="http://www.w3.org/2000/svg">
<path fill-rule="evenodd" clip-rule="evenodd" d="M8 0C6.89543 0 6 0.89543 6 2V4H3C1.34315 4 0 5.34315 0 7V9C0 9.55228 0.447715 10 1 10C1.55228 10 2 9.55228 2 9V7C2 6.44772 2.44772 6 3 6H17C17.5523 6 18 6.44772 18 7V9H14.7324C14.3866 8.4022 13.7403 8 13 8C11.8954 8 11 8.89543 11 10C11 11.1046 11.8954 12 13 12C13.7403 12 14.3866 11.5978 14.7324 11H19C19.5523 11 20 10.5523 20 10V7C20 5.34315 18.6569 4 17 4H14V2C14 0.89543 13.1046 0 12 0H8ZM12 4V2H8V4H12Z" fill="#21A19A"/>
<path d="M0 13C0 12.4477 0.447715 12 1 12H5.26756C5.61337 11.4022 6.25972 11 7 11C8.10457 11 9 11.8954 9 13C9 14.1046 8.10457 15 7 15C6.25972 15 5.61337 14.5978 5.26756 14H2V16C2 16.5523 2.44772 17 3 17H17C17.5523 17 18 16.5523 18 16V14C18 13.4477 18.4477 13 19 13C19.5523 13 20 13.4477 20 14V16C20 17.6569 18.6569 19 17 19H3C1.34315 19 0 17.6569 0 16V13Z" fill="#21A19A"/>
</svg>
