<svg width="21" height="20" viewBox="0 0 21 20" fill="none" xmlns="http://www.w3.org/2000/svg">
<path d="M2 3.5C2 4.05228 1.55228 4.5 1 4.5C0.447715 4.5 0 4.05228 0 3.5V3C0 1.34315 1.34315 0 3 0H13C14.6569 0 16 1.34315 16 3V3.5C16 4.05228 15.5523 4.5 15 4.5C14.4477 4.5 14 4.05228 14 3.5V3C14 2.44772 13.5523 2 13 2H3C2.44772 2 2 2.44772 2 3V3.5Z" fill="#B2B8BF"/>
<path d="M1 15.5C1.55228 15.5 2 15.9477 2 16.5V17C2 17.5523 2.44772 18 3 18H13C13.5523 18 14 17.5523 14 17C14 16.4477 14.4477 16 15 16C15.5523 16 16 16.4477 16 17C16 18.6569 14.6569 20 13 20H3C1.34315 20 0 18.6569 0 17V16.5C0 15.9477 0.447715 15.5 1 15.5Z" fill="#B2B8BF"/>
<path d="M7.5 6C6.94772 6 6.5 6.44772 6.5 7V13C6.5 13.5523 6.94772 14 7.5 14C8.05228 14 8.5 13.5523 8.5 13V8H9.99406V13C9.99406 13.5523 10.4418 14 10.9941 14C11.5463 14 11.9941 13.5523 11.9941 13V7C11.9941 6.44772 11.5463 6 10.9941 6H7.5Z" fill="#B2B8BF"/>
<path fill-rule="evenodd" clip-rule="evenodd" d="M15.0124 14.0298C15.0122 14.0431 15.0112 14.0549 15.0094 14.0655L15.007 14.0893C14.9936 14.225 14.9758 14.4055 14.8729 14.5493C14.8666 14.5581 14.8505 14.5787 14.8335 14.6005C14.8126 14.6272 14.7903 14.6557 14.7831 14.6664L14.7566 14.6916C14.6381 14.805 14.4604 14.9751 14.0056 15.0015C13.9256 15.0015 13.9067 14.9984 13.8433 14.9882C13.8262 14.9855 13.8056 14.9822 13.78 14.9783C13.6736 14.9426 13.6429 14.9341 13.6276 14.9299L13.6182 14.9271C13.6096 14.9245 13.6012 14.921 13.5671 14.9069C13.4098 14.8418 13.2805 14.7402 13.2024 14.6367C13.0414 14.4236 12.9995 14.3129 12.9995 14.0381V11.8831C12.9994 11.726 12.9994 11.5926 13.0083 11.4846C13.0171 11.3763 13.0359 11.2732 13.0877 11.1879C13.0952 11.1755 13.1038 11.1636 13.1133 11.1521C13.2297 11.0105 13.4307 11.0024 13.6159 10.9949L13.6483 10.9936C13.6655 10.9555 13.6852 10.9129 13.7041 10.8723L13.7119 10.8553C13.7512 10.7705 13.7867 10.694 13.7996 10.6622L13.8005 10.6597C13.8309 10.5888 13.8613 10.4943 13.8911 10.3742C13.9211 10.2534 13.9531 10.1039 13.987 9.92539L13.9874 9.92304C14.0243 9.74657 14.0632 9.52148 14.104 9.24709L14.4066 7.09258C14.4619 6.72032 14.5657 6.42809 14.7496 6.25902L14.7511 6.25774C14.9336 6.0938 15.1683 6.01367 15.4404 6.01367H18.194C18.4841 6.01367 18.7321 6.1004 18.9218 6.278C19.1165 6.4603 19.1986 6.71944 19.1986 7.02767V10.991L19.246 10.9906C19.2856 10.9903 19.3238 10.9899 19.3546 10.9901C19.4166 10.9905 19.4806 10.9929 19.542 11.0035C19.606 11.0145 19.669 11.0346 19.7284 11.071C19.787 11.107 19.8339 11.1538 19.8742 11.2085C20.0116 11.3955 20.0087 11.5467 20.0052 11.7304C20.0046 11.7605 20.004 11.7915 20.004 11.8236V13.9881C20.004 14.0396 20.0033 14.079 20.0018 14.1086C20.0006 14.1317 19.9987 14.1568 19.9936 14.1794C19.9411 14.6405 19.5161 14.9999 18.9996 14.9999C18.7189 14.9999 18.4652 14.8937 18.2836 14.7227C18.1358 14.6145 18.0823 14.4704 18.0684 14.4253L18.0584 14.3921C18.0237 14.3031 18.0035 14.2078 18.0006 14.1085C17.9922 14.0216 17.9932 13.9409 17.9945 13.8441C17.995 13.8057 17.9956 13.7646 17.9956 13.7198V13.0072L15.0145 13.0046V13.7064L15.0125 13.6722V14.0135L15.0127 14.0104L15.0154 13.8122C15.0165 13.8859 15.0175 13.9578 15.0124 14.0298ZM16.235 7.99597L15.9924 9.76995C15.9512 10.0594 15.9078 10.2979 15.862 10.4837C15.8482 10.5447 15.8336 10.6275 15.8176 10.7188C15.8109 10.7565 15.804 10.7959 15.7968 10.8356C15.7875 10.8869 15.7775 10.9403 15.7667 10.9912H17.21V7.99597H16.235Z" fill="#B2B8BF"/>
<path d="M15.0154 13.8122C15.015 13.781 15.0145 13.7496 15.0145 13.7177V13.7064L15.0148 13.7123C15.0148 13.7478 15.0151 13.781 15.0154 13.8122Z" fill="#B2B8BF"/>
<path d="M0 10C0 7.80265 1.32724 6 3.52757 6C4.01538 6 4.48467 6.08943 4.91867 6.25367C5.4352 6.44915 5.69547 7.02635 5.5 7.54288C5.30453 8.05942 4.72733 8.31969 4.21079 8.12421C3.9992 8.04414 3.76953 8 3.52757 8C2.45524 8 2 8.88364 2 10C2 11.1164 2.45524 12 3.52757 12C3.76953 12 3.9992 11.9559 4.21079 11.8758C4.72733 11.6803 5.30453 11.9406 5.5 12.4571C5.69547 12.9737 5.4352 13.5509 4.91867 13.7463C4.48467 13.9106 4.01538 14 3.52757 14C1.32724 14 0 12.1974 0 10Z" fill="#B2B8BF"/>
</svg>
