<svg width="20" height="20" viewBox="0 0 20 20" fill="none" xmlns="http://www.w3.org/2000/svg">
<path d="M16.0144 1C16.0144 0.44727 15.5667 0 15.0144 0C14.4622 0 14.0144 0.44727 14.0144 1V2.30859L11.4749 0.70312C10.76 0.13281 9.74831 0.12109 9.01882 0.67188L1.39626 5.20312C0.956078 5.53516 0.869408 6.16406 1.2029 6.60352C1.5364 7.04297 2.16311 7.12891 2.60329 6.79688L10.2263 2.26562L17.3757 6.78125C17.8071 7.125 18.436 7.05469 18.781 6.625C19.1257 6.19141 19.0562 5.5625 18.6248 5.21875L16.0144 3.57031V1Z" fill="#21A19A"/>
<path d="M4.00002 7.29297C4.55227 7.29297 5.00002 7.73828 5.00002 8.293V14H8.01857C8.01857 14 9.001 14 9.001 15C9.001 16 8.01857 16 8.01857 16H5.00002C3.89553 16 3.00002 15.1035 3.00002 14V8.293C3.00002 7.73828 3.44777 7.29297 4.00002 7.29297Z" fill="#21A19A"/>
<path fill-rule="evenodd" clip-rule="evenodd" d="M15.8939 9.08086C15.6424 8.97305 15.3576 8.97305 15.1061 9.08086L11.6061 10.5809C11.2384 10.7384 11 11.1 11 11.5C11 13.3205 11.0624 14.7981 11.6244 16.1296C12.2004 17.4944 13.2431 18.5836 14.9082 19.8061C15.2604 20.0646 15.7396 20.0646 16.0918 19.8061C17.7616 18.5802 18.8049 17.4908 19.3798 16.1261C19.9404 14.7952 20 13.3188 20 11.5C20 11.1 19.7616 10.7384 19.3939 10.5809L15.8939 9.08086ZM13.467 15.3519C13.1299 14.5533 13.0252 13.6162 13.0043 12.1576L15.5 11.088L17.9958 12.1576C17.9754 13.6171 17.8726 14.5521 17.5367 15.3496C17.2177 16.1068 16.6477 16.8267 15.5001 17.742C14.3572 16.83 13.787 16.1101 13.467 15.3519Z" fill="#21A19A"/>
</svg>
