<svg width="20" height="20" viewBox="0 0 20 20" fill="none" xmlns="http://www.w3.org/2000/svg">
<path fill-rule="evenodd" clip-rule="evenodd" d="M17 17C17 18.6569 15.6789 20 14.0492 20H10.3467C9.53596 20 8.7609 19.6608 8.20358 19.0622L2.80766 13.2658C2.28902 12.7087 2 11.9707 2 11.2036V3C2 1.34315 3.32113 0 4.95082 0H8.82377C9.367 0 9.80738 0.447716 9.80738 1C9.80738 1.55228 9.367 2 8.82377 2H4.95082C4.40759 2 3.96721 2.44772 3.96721 3V11H7.90164C9.53133 11 10.8525 12.3431 10.8525 14V18H14.0492C14.5924 18 15.0328 17.5523 15.0328 17V12.2563C15.0328 11.704 15.4732 11.2562 16.0164 11.2562C16.5596 11.2562 17 11.704 17 12.2563V17ZM8.88525 16.8848L5.2688 13H7.90164C8.44487 13 8.88525 13.4477 8.88525 14V16.8848Z" fill="#B2B8BF"/>
<path fill-rule="evenodd" clip-rule="evenodd" d="M9.84927 10.0147C9.32443 9.99632 8.90322 9.57511 8.88485 9.05027L8.78922 6.31748C8.77952 6.04029 8.88538 5.77152 9.0815 5.5754L14.3558 0.301075C14.7463 -0.0894491 15.3795 -0.0894488 15.77 0.301075L18.5985 3.1295C18.989 3.52003 18.989 4.15319 18.5985 4.54372L13.3241 9.81804C13.128 10.0142 12.8593 10.12 12.5821 10.1103L9.84927 10.0147ZM12.2174 8.09634L16.4771 3.83661L15.0629 2.4224L10.8032 6.68212L10.851 8.04852L12.2174 8.09634Z" fill="#B2B8BF"/>
</svg>
