<svg width="32" height="33" viewBox="0 0 32 33" fill="none" xmlns="http://www.w3.org/2000/svg">
<path d="M12.6667 15C12.2362 15 11.8541 15.2754 11.718 15.6838L11.0513 17.6838C10.8767 18.2077 11.1598 18.774 11.6838 18.9487C12.2077 19.1233 12.774 18.8402 12.9487 18.3162L13.3874 17H18C18.5523 17 19 16.5523 19 16C19 15.4477 18.5523 15 18 15H12.6667Z" fill="#B2B8BF"/>
<path fill-rule="evenodd" clip-rule="evenodd" d="M9.26214 14.0513C9.67049 12.8263 10.8169 12 12.1082 12H19.8918C21.1831 12 22.3295 12.8263 22.7379 14.0513L24.9487 20.6838C25.0503 20.9887 24.9992 21.3239 24.8113 21.5847C24.6233 21.8455 24.3215 22 24 22H8.00001C7.67856 22 7.37672 21.8455 7.18877 21.5847C7.00081 21.3239 6.94967 20.9887 7.05132 20.6838L9.26214 14.0513ZM12.1082 14C11.6778 14 11.2956 14.2754 11.1595 14.6838L9.38743 20H22.6126L20.8405 14.6838C20.7044 14.2754 20.3223 14 19.8918 14H12.1082Z" fill="#B2B8BF"/>
<path fill-rule="evenodd" clip-rule="evenodd" d="M4 10.5C4 7.18629 6.68629 4.5 10 4.5H22C25.3137 4.5 28 7.18629 28 10.5V22.5C28 25.8137 25.3137 28.5 22 28.5H10C6.68629 28.5 4 25.8137 4 22.5V10.5ZM10 6.5H22C24.2091 6.5 26 8.29086 26 10.5V22.5C26 24.7091 24.2091 26.5 22 26.5H10C7.79086 26.5 6 24.7091 6 22.5V10.5C6 8.29086 7.79086 6.5 10 6.5Z" fill="#B2B8BF"/>
</svg>
