<svg width="20" height="20" viewBox="0 0 20 20" fill="none" xmlns="http://www.w3.org/2000/svg">
<path fill-rule="evenodd" clip-rule="evenodd" d="M8 1C6.89543 1 6 1.89543 6 3V5H3C1.34315 5 0 6.34315 0 8V16C0 17.6569 1.34315 19 3 19H17C18.6569 19 20 17.6569 20 16V8C20 6.34315 18.6569 5 17 5H14V3C14 1.89543 13.1046 1 12 1H8ZM12 5V3H8V5H12ZM3 7C2.44772 7 2 7.44772 2 8V16C2 16.5523 2.44772 17 3 17H17C17.5523 17 18 16.5523 18 16V8C18 7.44772 17.5523 7 17 7H3Z" fill="#107F8C"/>
<path d="M8 14C8 13.4477 8.44772 13 9 13H11C11.5523 13 12 13.4477 12 14C12 14.5523 11.5523 15 11 15H9C8.44772 15 8 14.5523 8 14Z" fill="#107F8C"/>
</svg>
