<svg width="20" height="20" viewBox="0 0 20 20" fill="none" xmlns="http://www.w3.org/2000/svg">
<path fill-rule="evenodd" clip-rule="evenodd" d="M14 5.99999C12.2051 5.99999 10.75 7.45507 10.75 9.24999C10.75 11.0449 12.2051 12.5 14 12.5C15.7949 12.5 17.25 11.0449 17.25 9.24999C17.25 7.45507 15.7949 5.99999 14 5.99999ZM12.75 9.24999C12.75 8.55963 13.3096 7.99999 14 7.99999C14.6903 7.99999 15.25 8.55963 15.25 9.24999C15.25 9.94034 14.6903 10.5 14 10.5C13.3096 10.5 12.75 9.94034 12.75 9.24999Z" fill="#B2B8BF"/>
<path fill-rule="evenodd" clip-rule="evenodd" d="M9.63642 20H18.3636C19.1658 20 19.7836 19.3985 19.906 18.6728C19.9683 18.3048 20 17.9327 20 17.5661C20 15.749 19.2536 14.0115 17.9311 12.8057L17.9301 12.8048C17.3309 12.26 16.4238 12.2653 15.8313 12.8197C15.3039 13.3131 14.6375 13.5759 13.9568 13.5759C13.2891 13.5759 12.6326 13.322 12.1107 12.8459L12.1089 12.8442C11.5091 12.2998 10.6041 12.306 10.0116 12.8585L10.0102 12.8598C8.72536 14.0625 7.99999 15.779 7.99999 17.5661C7.99999 17.9335 8.03216 18.3052 8.09377 18.6716C8.21605 19.396 8.83256 20 9.63642 20ZM13.9568 15.5759C15.0147 15.5759 16.0317 15.2156 16.8643 14.5654C17.5847 15.3607 18 16.4316 18 17.5661C18 17.7087 17.993 17.8538 17.979 18H10.0211C10.0071 17.8535 9.99999 17.7083 9.99999 17.5661C9.99999 16.4531 10.4024 15.3961 11.1005 14.6048C11.9238 15.2305 12.9223 15.5759 13.9568 15.5759Z" fill="#B2B8BF"/>
<path fill-rule="evenodd" clip-rule="evenodd" d="M3 4C3 1.79086 4.79086 0 6.99999 0C9.20913 0 11 1.79086 11 4C11 6.20913 9.20913 7.99999 6.99999 7.99999C4.79086 7.99999 3 6.20913 3 4ZM6.99999 2C5.89542 2 4.99999 2.89543 4.99999 4C4.99999 5.10456 5.89542 5.99999 6.99999 5.99999C8.10456 5.99999 8.99999 5.10456 8.99999 4C8.99999 2.89543 8.10456 2 6.99999 2Z" fill="#B2B8BF"/>
<path d="M3.42663 9.8505C4.38294 10.6001 5.55965 11.0118 6.77516 11.0118C7.32744 11.0118 7.77516 10.5641 7.77516 10.0118C7.77516 9.45956 7.32744 9.01185 6.77516 9.01185C5.94541 9.01185 5.1373 8.7059 4.50117 8.14383L4.49933 8.14221C3.86809 7.58723 2.92732 7.59307 2.30296 8.15696L2.30154 8.15825C0.83576 9.48722 0 11.3929 0 13.3862C0 13.7953 0.0369852 14.2094 0.107865 14.6177C0.244137 15.3996 0.916983 16.0044 1.7415 16.0044H3.5814L3.29289 16.2929C2.90237 16.6834 2.90237 17.3166 3.29289 17.7071C3.68341 18.0976 4.31658 18.0976 4.7071 17.7071L6.7071 15.7071C6.89464 15.5196 6.99999 15.2652 6.99999 15C6.99999 14.7348 6.89464 14.4804 6.7071 14.2929L4.7071 12.2929C4.31658 11.9024 3.68341 11.9024 3.29289 12.2929C2.90237 12.6834 2.90237 13.3166 3.29289 13.7071L3.59016 14.0044H2.03829C2.01281 13.7955 2 13.5884 2 13.3862C2 12.0527 2.51949 10.7814 3.42663 9.8505Z" fill="#B2B8BF"/>
</svg>
