<svg width="32" height="32" viewBox="0 0 32 32" fill="none" xmlns="http://www.w3.org/2000/svg">
<path fill-rule="evenodd" clip-rule="evenodd" d="M14 20V19H13C12.4477 19 12 18.5523 12 18C12 17.4477 12.4477 17 13 17H14V13C14 12.4477 14.4477 12 15 12C15.039 12 15.0775 12.0022 15.1153 12.0066C15.1532 12.0022 15.1916 12 15.2306 12H17.8383C19.0898 12 19.9565 12.5521 20.4556 13.3579C20.9085 14.0891 21 14.9309 21 15.5V15.6674C21 16.2913 20.8517 17.0994 20.3645 17.7808C19.8412 18.5127 18.9936 19 17.8383 19H16V20H16.9884C17.5406 20 17.9884 20.4477 17.9884 21C17.9884 21.5523 17.5406 22 16.9884 22H16V23C16 23.5523 15.5523 24 15 24C14.4477 24 14 23.5523 14 23V22H13C12.4477 22 12 21.5523 12 21C12 20.4477 12.4477 20 13 20H14ZM16 17V14H17.8383C18.417 14 18.6311 14.2105 18.7553 14.411C18.9257 14.6861 19 15.0943 19 15.5V15.6674C19 16.0182 18.9099 16.3765 18.7375 16.6176C18.6011 16.8084 18.3679 17 17.8383 17H16Z" fill="#107F8C"/>
<path fill-rule="evenodd" clip-rule="evenodd" d="M12 3C12.5523 3 13 3.44772 13 4V6H19V4C19 3.44772 19.4477 3 20 3C20.5523 3 21 3.44772 21 4V6H25C26.6569 6 28 7.34315 28 9V25C28 26.6569 26.6569 28 25 28H7C5.34314 28 4 26.6569 4 25V9C4 7.34315 5.34315 6 7 6H11V4C11 3.44772 11.4477 3 12 3ZM19 8V9.04912C19 9.60141 19.4477 10.0491 20 10.0491C20.5523 10.0491 21 9.60141 21 9.04912V8H25C25.5523 8 26 8.44771 26 9V25C26 25.5523 25.5523 26 25 26H7C6.44772 26 6 25.5523 6 25V9C6 8.44772 6.44772 8 7 8H11V9.04912C11 9.60141 11.4477 10.0491 12 10.0491C12.5523 10.0491 13 9.60141 13 9.04912V8H19Z" fill="#107F8C"/>
</svg>
