<svg width="20" height="20" viewBox="0 0 20 20" fill="none" xmlns="http://www.w3.org/2000/svg">
<path fill-rule="evenodd" clip-rule="evenodd" d="M7.00797 12.9996C6.99145 12.9998 6.97502 12.9995 6.95869 12.9988L6.92838 12.9988L6.92838 12.9971C6.41299 12.9607 6.00424 12.5331 6.00006 12.0076L5.99206 10.999H5C4.44772 10.999 4 10.5513 4 9.99902C4 9.44674 4.44772 8.99902 5 8.99902H5.97618L5.96825 7.99902H5C4.44772 7.99902 4 7.55131 4 6.99902C4 6.44674 4.44772 5.99902 5 5.99902H5.95237L5.92863 3.0076C5.92424 2.45533 6.36839 2.00408 6.92066 1.9997C6.93223 1.9996 6.94377 1.99971 6.95525 2.00001C6.97009 1.99935 6.98502 1.99902 7.00003 1.99902H10.0003C10.6373 1.99902 11.4585 2.15296 12.1554 2.58849C12.8959 3.0513 13.5005 3.84716 13.5005 4.99901C13.5005 5.65866 13.3022 6.20155 12.9937 6.63201C13.8691 7.23455 14.5 8.23586 14.5 9.49903C14.5 11.6171 12.726 12.999 11 12.999L7.041 12.9988C7.03004 12.9993 7.01903 12.9995 7.00797 12.9996ZM11.5005 4.99901C11.5005 5.34717 11.355 5.55131 11.0954 5.71349C10.7923 5.90296 10.3634 5.99901 10.0003 5.99902L7.95244 5.99901L7.93656 3.99902H10.0003C10.3634 3.99902 10.7923 4.09507 11.0955 4.28453C11.355 4.44672 11.5005 4.65085 11.5005 4.99901ZM7.99212 10.9989L7.96831 7.99905L11 7.99905C11.7578 7.99905 12.5 8.61713 12.5 9.49903C12.5 10.3809 11.7578 10.999 11 10.999L7.99212 10.9989Z" fill="#107F8C"/>
<path d="M17.3 10.3991C16.9686 9.95725 16.3418 9.86771 15.9 10.1991C15.4582 10.5305 15.3686 11.1573 15.7 11.5991L16.75 12.9991L14.5 15.9991H3V10.9991C3 10.4468 2.55228 9.99908 2 9.99908C1.44772 9.99908 1 10.4468 1 10.9991V15.9991C1 17.1036 1.89543 17.9991 3 17.9991H14.5C15.1295 17.9991 15.7223 17.7027 16.1 17.1991L18.35 14.1991C18.8833 13.488 18.8833 12.5102 18.35 11.7991L17.3 10.3991Z" fill="#107F8C"/>
</svg>
