<svg width="32" height="32" viewBox="0 0 32 32" fill="none" xmlns="http://www.w3.org/2000/svg">
<path fill-rule="evenodd" clip-rule="evenodd" d="M12 3C12.5523 3 13 3.44772 13 4V6H19V4C19 3.44772 19.4477 3 20 3C20.5523 3 21 3.44772 21 4V6H25C26.6569 6 28 7.34315 28 9V25C28 26.6569 26.6569 28 25 28H7C5.34314 28 4 26.6569 4 25V9C4 7.34315 5.34315 6 7 6H11V4C11 3.44772 11.4477 3 12 3ZM19 8V9.04912C19 9.60141 19.4477 10.0491 20 10.0491C20.5523 10.0491 21 9.60141 21 9.04912V8H25C25.5523 8 26 8.44771 26 9V25C26 25.5523 25.5523 26 25 26H7C6.44772 26 6 25.5523 6 25V9C6 8.44772 6.44772 8 7 8H11V9.04912C11 9.60141 11.4477 10.0491 12 10.0491C12.5523 10.0491 13 9.60141 13 9.04912V8H19Z" fill="#21A19A"/>
<path d="M13 17C14.1046 17 15 16.1046 15 15C15 13.8954 14.1046 13 13 13C11.8954 13 11 13.8954 11 15C11 16.1046 11.8954 17 13 17Z" fill="#21A19A"/>
<path d="M19 23C20.1046 23 21 22.1046 21 21C21 19.8954 20.1046 19 19 19C17.8954 19 17 19.8954 17 21C17 22.1046 17.8954 23 19 23Z" fill="#21A19A"/>
<path d="M20.7071 14.7071C21.0976 14.3166 21.0976 13.6834 20.7071 13.2929C20.3166 12.9024 19.6834 12.9024 19.2929 13.2929L11.2929 21.2929C10.9024 21.6834 10.9024 22.3166 11.2929 22.7071C11.6834 23.0976 12.3166 23.0976 12.7071 22.7071L20.7071 14.7071Z" fill="#21A19A"/>
</svg>
