<svg width="20" height="20" viewBox="0 0 20 20" fill="none" xmlns="http://www.w3.org/2000/svg">
<path fill-rule="evenodd" clip-rule="evenodd" d="M9 0C7.34315 0 6 1.34315 6 3V5H5C3.34315 5 2 6.34315 2 8V18H1C0.447715 18 0 18.4477 0 19C0 19.5523 0.447715 20 1 20L19 20C19.5523 20 20 19.5523 20 19C20 18.4477 19.5523 18 19 18L8 18V3C8 2.44772 8.44771 2 9 2H15C15.5523 2 16 2.44772 16 3V4C16 4.55228 16.4477 5 17 5C17.5523 5 18 4.55228 18 4V3C18 1.34315 16.6569 0 15 0H9ZM6 7V18H4V8C4 7.44772 4.44772 7 5 7H6Z" fill="#21A19A"/>
<path fill-rule="evenodd" clip-rule="evenodd" d="M15.8939 6.08085C15.6424 5.97305 15.3576 5.97305 15.1061 6.08085L11.6061 7.58085C11.2384 7.73843 11 8.09997 11 8.5C11 10.3205 11.0624 11.7981 11.6244 13.1296C12.2004 14.4944 13.2431 15.5836 14.9082 16.8061C15.2604 17.0646 15.7396 17.0646 16.0918 16.8061C17.7616 15.5802 18.8049 14.4908 19.3798 13.1261C19.9404 11.7952 20 10.3188 20 8.5C20 8.09997 19.7616 7.73843 19.3939 7.58085L15.8939 6.08085ZM13.467 12.3519C13.1299 11.5533 13.0252 10.6162 13.0043 9.15757L15.5 8.08797L17.9958 9.15762C17.9754 10.6171 17.8726 11.5521 17.5367 12.3496C17.2177 13.1068 16.6477 13.8267 15.5001 14.742C14.3572 13.83 13.787 13.1101 13.467 12.3519Z" fill="#21A19A"/>
</svg>
