<svg width="32" height="32" viewBox="0 0 32 32" fill="none" xmlns="http://www.w3.org/2000/svg">
<path fill-rule="evenodd" clip-rule="evenodd" d="M7 8C7 6.34315 8.34315 5 10 5H15C15.5523 5 16 5.44772 16 6C16 6.55228 15.5523 7 15 7H10C9.44772 7 9 7.44772 9 8V18H15C16.6569 18 18 19.3431 18 21V27H22C22.5523 27 23 26.5523 23 26V15C23 14.4477 23.4477 14 24 14C24.5523 14 25 14.4477 25 15V26C25 27.6569 23.6569 29 22 29H16.8981C16.0412 29 15.2252 28.6336 14.6559 27.9931L7.75777 20.2327C7.26964 19.6835 7 18.9743 7 18.2396V8ZM16 26.4948L10.2268 20H15C15.5523 20 16 20.4477 16 21V26.4948Z" fill="#B2B8BF"/>
<path d="M25.7071 5.70711C26.0976 5.31658 26.0976 4.68342 25.7071 4.29289C25.3166 3.90237 24.6834 3.90237 24.2929 4.29289L18.2929 10.2929C17.9024 10.6834 17.9024 11.3166 18.2929 11.7071C18.6834 12.0976 19.3166 12.0976 19.7071 11.7071L25.7071 5.70711Z" fill="#B2B8BF"/>
<path d="M21 5.5C21 6.32843 20.3284 7 19.5 7C18.6716 7 18 6.32843 18 5.5C18 4.67157 18.6716 4 19.5 4C20.3284 4 21 4.67157 21 5.5Z" fill="#B2B8BF"/>
<path d="M26 10.5C26 11.3284 25.3284 12 24.5 12C23.6716 12 23 11.3284 23 10.5C23 9.67157 23.6716 9 24.5 9C25.3284 9 26 9.67157 26 10.5Z" fill="#B2B8BF"/>
</svg>
