<svg width="20" height="20" viewBox="0 0 20 20" fill="none" xmlns="http://www.w3.org/2000/svg">
<path fill-rule="evenodd" clip-rule="evenodd" d="M7.49963 0C5.01447 0 2.99985 2.01462 2.99985 4.49978C2.99985 6.98493 5.01447 8.99955 7.49963 8.99955C9.98478 8.99955 11.9994 6.98493 11.9994 4.49978C11.9994 2.01462 9.98478 0 7.49963 0ZM4.99975 4.49978C4.99975 3.11913 6.11898 1.9999 7.49963 1.9999C8.88027 1.9999 9.9995 3.11913 9.9995 4.49978C9.9995 5.88042 8.88027 6.99965 7.49963 6.99965C6.11898 6.99965 4.99975 5.88042 4.99975 4.49978Z" fill="#B2B8BF"/>
<path d="M7.44351 12.4693C6.08002 12.4693 4.75983 11.9986 3.69818 11.142C2.61842 12.2002 1.9999 13.6679 1.9999 15.2069C1.9999 15.4659 2.01866 15.7318 2.05589 15.9993H7.44351C7.99577 15.9993 8.44346 16.447 8.44346 16.9992C8.44346 17.5515 7.99577 17.9992 7.44351 17.9992H1.82727C0.971485 17.9992 0.263141 17.3756 0.118966 16.5544C0.0408361 16.1076 0 15.654 0 15.2069C0 13.0265 0.921036 10.9441 2.53259 9.49363L2.53402 9.49235C3.18621 8.9076 4.16589 8.90164 4.82511 9.47701L4.82696 9.47862C5.55731 10.1193 6.48702 10.4694 7.44351 10.4694C7.8683 10.4694 8.28657 10.4007 8.68425 10.2685C9.20834 10.0944 9.77436 10.3781 9.94849 10.9022C10.1226 11.4263 9.83893 11.9923 9.31485 12.1664C8.7157 12.3655 8.0846 12.4693 7.44351 12.4693Z" fill="#B2B8BF"/>
<path d="M15.6587 12.0727C14.0424 11.7085 12.437 12.7235 12.0728 14.3398C11.7087 15.9561 12.7237 17.5615 14.3399 17.9257C15.9562 18.2898 17.5616 17.2748 17.9258 15.6585C18.0472 15.1198 18.5823 14.7814 19.1211 14.9028C19.6598 15.0242 19.9982 15.5594 19.8768 16.0981C19.2699 18.7919 16.5941 20.4836 13.9004 19.8766C11.2066 19.2697 9.51489 16.594 10.1218 13.9002C10.7287 11.2065 13.4045 9.51475 16.0982 10.1217C16.637 10.2431 16.9753 10.7782 16.8539 11.317C16.7326 11.8557 16.1974 12.1941 15.6587 12.0727Z" fill="#B2B8BF"/>
<path d="M18.6393 13.7676C19.0635 13.414 19.1208 12.7835 18.7673 12.3592C18.4137 11.935 17.7832 11.8776 17.3589 12.2312L15.0606 14.1465L14.7064 13.7922C14.3159 13.4017 13.6827 13.4017 13.2922 13.7922C12.9017 14.1827 12.9017 14.8159 13.2922 15.2064L14.2922 16.2063C14.6579 16.572 15.2421 16.5985 15.6394 16.2674L18.6393 13.7676Z" fill="#B2B8BF"/>
</svg>
