<svg width="20" height="20" viewBox="0 0 20 20" fill="none" xmlns="http://www.w3.org/2000/svg">
<path d="M15.3939 7.22363C15.7867 6.90363 16.3658 6.92698 16.7318 7.29297L19.7064 10.2676C20.097 10.6581 20.097 11.2911 19.7064 11.6816C19.3159 12.0721 18.6829 12.0721 18.2924 11.6816L17.0004 10.3896V13C17.0004 16.8659 13.8662 19.9998 10.0004 20H4.00037C3.44809 20 3.00037 19.5523 3.00037 19C3.00037 18.4477 3.44809 18 4.00037 18H10.0004C12.7616 17.9998 15.0004 15.7613 15.0004 13V10.4385L13.7572 11.6816C13.3667 12.0721 12.7337 12.072 12.3431 11.6816C11.9526 11.2911 11.9526 10.6581 12.3431 10.2676L15.3178 7.29297L15.3939 7.22363Z" fill="#B2B8BF"/>
<path d="M16.0004 0C16.5525 0.000190651 17.0004 0.447833 17.0004 1C17.0004 1.55217 16.5525 1.99981 16.0004 2H10.0004C7.23895 2 5.00037 4.23858 5.00037 7V9.56055L6.24354 8.31836C6.63408 7.92801 7.26713 7.92789 7.6576 8.31836C8.04789 8.70884 8.04789 9.34194 7.6576 9.73242L4.68299 12.707L4.60682 12.7764C4.21405 13.0966 3.63402 13.0731 3.26795 12.707L0.293342 9.73242C-0.0970481 9.34192 -0.0970481 8.70886 0.293342 8.31836C0.683836 7.92792 1.31689 7.92795 1.7074 8.31836L3.00037 9.61133V7C3.00037 3.13401 6.13438 0 10.0004 0H16.0004Z" fill="#B2B8BF"/>
</svg>
