<svg width="20" height="20" viewBox="0 0 20 20" fill="none" xmlns="http://www.w3.org/2000/svg">
<path d="M18 10.1475C18 11.7587 17.5401 13.2649 16.7441 14.5322C16.4504 14.9998 15.8329 15.1403 15.3652 14.8467C14.8975 14.553 14.7561 13.9355 15.0498 13.4678C15.6502 12.5117 16 11.3736 16 10.1475C16 6.73273 13.2942 4 10 4C6.70581 4 4 6.73273 4 10.1475C4.00005 11.3735 4.34986 12.5117 4.9502 13.4678C5.24375 13.9355 5.10243 14.553 4.63477 14.8467C4.16705 15.1404 3.54956 14.999 3.25586 14.5312C2.46018 13.264 2.00005 11.7584 2 10.1475C2 5.6676 5.5622 2 10 2C14.4378 2 18 5.6676 18 10.1475Z" fill="#107F8C"/>
<path d="M3 18.5C2.44772 18.5 2 18.0523 2 17.5C2 16.9477 2.44772 16.5 3 16.5H17C17.5523 16.5 18 16.9477 18 17.5C18 18.0523 17.5523 18.5 17 18.5H3Z" fill="#107F8C"/>
<path d="M12 10C12 8.89543 11.1046 8 10 8C9.44772 8 9 7.55228 9 7C9 6.44772 9.44772 6 10 6C12.2091 6 14 7.79086 14 10C14 10.5523 13.5523 11 13 11C12.4477 11 12 10.5523 12 10Z" fill="#107F8C"/>
</svg>
