<svg width="32" height="32" viewBox="0 0 32 32" fill="none" xmlns="http://www.w3.org/2000/svg">
<path fill-rule="evenodd" clip-rule="evenodd" d="M8.12293 4C7.31552 4 6.58731 4.48548 6.27677 5.23077L4.15051 10.3338C4.01213 10.6659 3.91393 11.1517 4.11143 11.6563C4.6038 12.9143 6.01482 14 8.45626 14C10.1397 14 11.166 13.5568 11.8767 12.9832C11.983 12.8975 12.1271 12.8903 12.2352 12.9557C13.0931 13.4747 14.3888 14 15.9563 14C17.5237 14 18.8194 13.4747 19.6773 12.9557C19.7854 12.8903 19.9295 12.8975 20.0358 12.9832C20.7465 13.5568 21.7728 14 23.4563 14C25.8977 14 27.3087 12.9143 27.8011 11.6563C27.9986 11.1517 27.9004 10.6659 27.762 10.3338L25.6357 5.23077C25.3252 4.48548 24.597 4 23.7896 4H8.12293ZM8.12293 6H23.7896L25.8877 11.0354C25.6926 11.391 25.0926 12 23.4563 12C22.1655 12 21.5998 11.6753 21.2918 11.4268C20.5384 10.8189 19.4791 10.7381 18.6421 11.2445C18.0187 11.6216 17.0775 12 15.9563 12C14.835 12 13.8938 11.6216 13.2704 11.2445C12.4334 10.7381 11.3741 10.8189 10.6208 11.4268C10.3128 11.6753 9.74703 12 8.45626 12C6.81988 12 6.21996 11.391 6.02483 11.0354L8.12293 6Z" fill="#21A19A"/>
<path d="M7.45625 17C7.45625 16.4477 7.00854 16 6.45625 16C5.90397 16 5.45625 16.4477 5.45625 17V26C5.45625 27.1046 6.35168 28 7.45625 28H12.4563C13.5608 28 14.4563 27.1046 14.4563 26V20H17.4563V26C17.4563 27.1046 18.3517 28 19.4563 28H24.4563C25.5608 28 26.4563 27.1046 26.4563 26V17C26.4563 16.4477 26.0085 16 25.4563 16C24.904 16 24.4563 16.4477 24.4563 17V26H19.4563V20C19.4563 18.8954 18.5608 18 17.4563 18H14.4563C13.3517 18 12.4563 18.8954 12.4563 20V26H7.45625V17Z" fill="#21A19A"/>
</svg>
