<svg width="20" height="20" viewBox="0 0 20 20" fill="none" xmlns="http://www.w3.org/2000/svg">
<path fill-rule="evenodd" clip-rule="evenodd" d="M14 5C14 4.44772 14.4477 4 15 4H17.1564C18.2068 4 18.9922 4.39405 19.474 5.06082C19.9137 5.66923 20 6.36821 20 6.82749V6.94985C20 7.45783 19.8628 8.17403 19.4501 8.79542C19.0046 9.46614 18.2463 10 17.1564 10H16V10.5H16.5C17.0523 10.5 17.5 10.9477 17.5 11.5C17.5 12.0523 17.0523 12.5 16.5 12.5H16V13C16 13.5523 15.5523 14 15 14C14.4477 14 14 13.5523 14 13V12.5H13.5C12.9477 12.5 12.5 12.0523 12.5 11.5C12.5 10.9477 12.9477 10.5 13.5 10.5H14V10H13.5C12.9477 10 12.5 9.55228 12.5 9C12.5 8.44772 12.9477 8 13.5 8H14V5ZM16 8V6H17.1564C17.4274 6 17.5877 6.0481 17.6775 6.09031C17.7629 6.13048 17.8145 6.17902 17.853 6.23225C17.9449 6.35944 18 6.57421 18 6.82749V6.94985C18 7.15443 17.9339 7.4633 17.7841 7.68885C17.667 7.86507 17.5035 8 17.1564 8H16Z" fill="#107F8C"/>
<path fill-rule="evenodd" clip-rule="evenodd" d="M7.65423 2.56673C8.98374 0.942144 10.9722 0 13.0714 0H19C19.5523 0 20 0.447715 20 1C20 1.55228 19.5523 2 19 2H13.0714C11.572 2 10.1517 2.67296 9.202 3.83338L5.27389 8.63332C5.20662 8.71552 5.12669 8.78647 5.0371 8.84352L2.9258 10.1879C2.34916 10.555 2 11.1913 2 11.8749V14C2 14.5523 2.44772 15 3 15H4C4.04201 15 4.08342 15.0026 4.12407 15.0076C4.56545 13.2785 6.13342 12 8 12C9.86384 12 11.4299 13.2748 11.874 15L19 15C19.5523 15 20 15.4477 20 16C20 16.5523 19.5523 17 19 17H11.874C11.4299 18.7252 9.86384 20 8 20C6.13342 20 4.56545 18.7215 4.12407 16.9924C4.08342 16.9974 4.04201 17 4 17H3C1.34314 17 0 15.6569 0 14V11.8749C0 10.5077 0.698326 9.23515 1.85161 8.50081L3.82766 7.2426L7.65423 2.56673ZM10 16C10 14.8954 9.10457 14 8 14C6.89543 14 6 14.8954 6 16C6 17.1046 6.89543 18 8 18C9.10457 18 10 17.1046 10 16Z" fill="#107F8C"/>
</svg>
