<svg width="32" height="32" viewBox="0 0 32 32" fill="none" xmlns="http://www.w3.org/2000/svg">
<path d="M19.4748 10.3807C19.9546 10.6542 20.1218 11.2649 19.8483 11.7447L17.2231 16.3495V16.4155H19.1254C19.6777 16.4155 20.1254 16.8632 20.1254 17.4155C20.1254 17.9678 19.6777 18.4155 19.1254 18.4155H17.2231V18.7905H19.1254C19.6777 18.7905 20.1254 19.2382 20.1254 19.7905C20.1254 20.3428 19.6777 20.7905 19.1254 20.7905H17.2231V21.2329C17.2231 21.7852 16.7754 22.2329 16.2231 22.2329C15.6709 22.2329 15.2231 21.7852 15.2231 21.2329V20.7905H13.5356C12.9834 20.7905 12.5356 20.3428 12.5356 19.7905C12.5356 19.2382 12.9834 18.7905 13.5356 18.7905H15.2231V18.4155H13.5356C12.9834 18.4155 12.5356 17.9678 12.5356 17.4155C12.5356 16.8632 12.9834 16.4155 13.5356 16.4155H15.2231V16.3584L12.4743 11.7628C12.1909 11.2888 12.3453 10.6747 12.8192 10.3912C13.2932 10.1077 13.9073 10.2622 14.1908 10.7361L16.2031 14.1005L18.1108 10.7542C18.3843 10.2744 18.995 10.1072 19.4748 10.3807Z" fill="#107F8C"/>
<path fill-rule="evenodd" clip-rule="evenodd" d="M4 10C4 6.68629 6.68629 4 10 4H22C25.3137 4 28 6.68629 28 10V22C28 25.3137 25.3137 28 22 28H10C6.68629 28 4 25.3137 4 22V10ZM10 6H22C24.2091 6 26 7.79086 26 10V22C26 24.2091 24.2091 26 22 26H10C7.79086 26 6 24.2091 6 22V10C6 7.79086 7.79086 6 10 6Z" fill="#107F8C"/>
</svg>
