<svg width="20" height="20" viewBox="0 0 20 20" fill="none" xmlns="http://www.w3.org/2000/svg">
<path fill-rule="evenodd" clip-rule="evenodd" d="M10.2308 15C12.1265 15 14 13.6848 14 11.5C14 9.31518 12.1265 8.00002 10.2308 8.00002H8V7H12C12.5523 7 13 6.55228 13 6C13 5.44772 12.5523 5 12 5H8C6.89543 5 6 5.89543 6 7V13.999C6 13.9987 6 13.9993 6 13.999C6 13.9994 6 14.0006 6 14.001V15H10.2308ZM8 13H10.2308C11.3071 13 12 12.3152 12 11.5C12 10.6848 11.3071 10 10.2308 10H8V13Z" fill="#B2B8BF"/>
<path fill-rule="evenodd" clip-rule="evenodd" d="M0 10C0 4.47715 4.47715 0 10 0C15.5228 0 20 4.47715 20 10C20 15.5228 15.5228 20 10 20H1C0.447715 20 0 19.5523 0 19V10ZM10 2C5.58172 2 2 5.58172 2 10V18H10C14.4183 18 18 14.4183 18 10C18 5.58172 14.4183 2 10 2Z" fill="#B2B8BF"/>
</svg>
