<svg width="32" height="32" viewBox="0 0 32 32" fill="none" xmlns="http://www.w3.org/2000/svg">
<path d="M25.5 2.5C25.5 2.94425 25.3069 3.34339 25 3.61805V6.26784L27.2953 4.94264C27.3799 4.53977 27.6289 4.17319 28.0135 3.95117C28.726 3.53977 29.6359 3.77947 30.054 4.48569L30.0623 4.49981L30.0696 4.51256C30.4739 5.22814 30.2268 6.13741 29.5135 6.54925C29.1285 6.77148 28.6861 6.80372 28.2946 6.67508L26.0001 7.99981L28.2955 9.32505C28.6867 9.19674 29.1288 9.22911 29.5135 9.45117C30.2309 9.86539 30.4767 10.7828 30.0625 11.5002C29.6483 12.2176 28.7309 12.4635 28.0135 12.0492C27.6286 11.8271 27.3795 11.4601 27.2951 11.0569L25 9.73178V12.3819C25.3069 12.6566 25.5 13.0557 25.5 13.5C25.5 14.3284 24.8284 15 24 15C23.1716 15 22.5 14.3284 22.5 13.5C22.5 13.0557 22.6931 12.6566 23 12.3819V9.73195L20.7055 11.0567C20.6211 11.46 20.372 11.827 19.9871 12.0492C19.2697 12.4635 18.3523 12.2176 17.9381 11.5002C17.5238 10.7828 17.7697 9.86539 18.4871 9.45117C18.8717 9.22914 19.3137 9.19675 19.7049 9.32499L22.0001 7.99981L19.7057 6.67514C19.3143 6.80371 18.872 6.77144 18.4871 6.54925C17.7814 6.14181 17.532 5.2475 17.9183 4.53554C17.9246 4.52356 17.9311 4.51164 17.938 4.49981C17.945 4.48764 17.9522 4.47567 17.9597 4.46391C18.3835 3.77458 19.2819 3.54403 19.9871 3.95117C20.3717 4.17323 20.6208 4.53988 20.7053 4.94282L23 6.26768V3.61805C22.6931 3.34339 22.5 2.94425 22.5 2.5C22.5 1.67157 23.1716 1 24 1C24.8284 1 25.5 1.67157 25.5 2.5Z" fill="#B2B8BF"/>
<path fill-rule="evenodd" clip-rule="evenodd" d="M3 7C3 6.44772 3.44772 6 4 6H9.75C11.6036 6 13.1804 6.92938 14.2682 8.23482C15.3518 9.53507 16 11.2603 16 13C16 14.7397 15.3518 16.4649 14.2682 17.7652C13.1804 19.0706 11.6036 20 9.75 20H5V23H9C9.55229 23 10 23.4477 10 24C10 24.5523 9.55229 25 9 25H5V29C5 29.5523 4.55228 30 4 30C3.44772 30 3 29.5523 3 29V25H1.5C0.947715 25 0.5 24.5523 0.5 24C0.5 23.4477 0.947715 23 1.5 23H3V20H1.5C0.947715 20 0.5 19.5523 0.5 19C0.5 18.4477 0.947715 18 1.5 18H3V7ZM5 18V8H9.75C10.8964 8 11.9446 8.57062 12.7318 9.51518C13.5232 10.4649 14 11.7397 14 13C14 14.2603 13.5232 15.5351 12.7318 16.4848C11.9446 17.4294 10.8964 18 9.75 18H5Z" fill="#B2B8BF"/>
</svg>
