<svg width="32" height="32" viewBox="0 0 32 32" fill="none" xmlns="http://www.w3.org/2000/svg">
<path d="M7 7.00015C7.55222 7.00015 7.99989 7.44796 8 8.00015V27.258L23.0352 18.4875L20.0049 16.6691L11.5215 21.8537C11.0502 22.1416 10.4345 21.9929 10.1465 21.5216C9.85868 21.0504 10.0073 20.4346 10.4785 20.1466L19.4785 14.6466L19.6016 14.5832C19.895 14.4556 20.2355 14.4753 20.5146 14.6427L25.5146 17.6427C25.8175 17.8246 26.0021 18.1528 26 18.506C25.9978 18.8594 25.8091 19.1853 25.5039 19.3634L7.50391 29.8634C7.19466 30.0438 6.81242 30.0456 6.50195 29.8673C6.19157 29.689 6.00008 29.3581 6 29.0001V8.00015C6.00011 7.44796 6.44778 7.00015 7 7.00015Z" fill="#21A19A"/>
<path fill-rule="evenodd" clip-rule="evenodd" d="M10.502 2.13296C10.8123 1.95474 11.1947 1.95565 11.5039 2.13589L23.5039 9.13589C23.8111 9.31507 23.9999 9.64456 24 10.0001C24 10.3558 23.8111 10.6852 23.5039 10.8644L11.5039 17.8644C11.1947 18.0447 10.8124 18.0456 10.502 17.8673C10.1915 17.689 10 17.3582 10 17.0001V3.00015C10.0001 2.64216 10.1915 2.31127 10.502 2.13296ZM12 15.258L21.0137 10.0001L12 4.74136V15.258Z" fill="#21A19A"/>
</svg>
