<svg width="32" height="33" viewBox="0 0 32 33" fill="none" xmlns="http://www.w3.org/2000/svg">
<path d="M9.625 11.4375C9.625 12.335 8.89746 13.0625 8 13.0625C7.10254 13.0625 6.375 12.335 6.375 11.4375C6.375 10.54 7.10254 9.8125 8 9.8125C8.89746 9.8125 9.625 10.54 9.625 11.4375Z" fill="#107F8C"/>
<path fill-rule="evenodd" clip-rule="evenodd" d="M6.96506 5.4375C6.53174 5.4375 6.14772 5.71658 6.01392 6.12872L6.009 6.14394L5.99569 6.1852C5.98429 6.22067 5.96802 6.27142 5.9484 6.33315C5.90923 6.45639 5.85634 6.62451 5.80185 6.80279C5.76026 6.93888 5.70966 7.1062 5.66294 7.27167C5.60037 7.3052 5.539 7.33986 5.47884 7.3755C5.29883 7.33026 5.11133 7.28702 4.95889 7.25236C4.77158 7.20978 4.59398 7.17086 4.46352 7.14266C4.39817 7.12853 4.34438 7.11703 4.30678 7.10903L4.26304 7.09975L4.24695 7.09636C3.82931 7.00863 3.40202 7.1956 3.18306 7.5619L2.14813 9.29315C1.9175 9.67895 1.97271 10.1713 2.28295 10.4966L2.29407 10.5082L2.32459 10.5401C2.35085 10.5675 2.38845 10.6066 2.43426 10.6541C2.52573 10.7488 2.65066 10.8776 2.78369 11.0126C2.88174 11.112 3.00083 11.2322 3.12027 11.3489C3.11944 11.3782 3.119 11.4078 3.119 11.4375C3.119 11.4649 3.11928 11.4924 3.11984 11.5201C2.99816 11.6388 2.87649 11.7616 2.77662 11.8629C2.64366 11.9978 2.51884 12.1265 2.42747 12.2212C2.38171 12.2686 2.34415 12.3077 2.31793 12.3351L2.28744 12.367L2.27624 12.3787C1.96612 12.7039 1.91107 13.1961 2.14166 13.5819L3.17659 15.3131C3.39562 15.6795 3.82321 15.8664 4.24094 15.7785L4.30071 15.7659C4.33837 15.7578 4.39224 15.7463 4.45767 15.7321C4.5883 15.7039 4.7661 15.6649 4.95352 15.6222C5.10524 15.5877 5.29178 15.5447 5.47097 15.4997C5.5323 15.5361 5.5946 15.5712 5.658 15.605C5.70584 15.7723 5.7577 15.9411 5.80011 16.0778C5.85546 16.256 5.90918 16.4239 5.94896 16.547C5.96889 16.6087 5.98541 16.6593 5.997 16.6948L6.01051 16.736L6.01553 16.7512C6.15087 17.1608 6.53364 17.4375 6.96506 17.4375H9.03491C9.46813 17.4375 9.85212 17.1584 9.986 16.7464L9.99089 16.7313L10.0042 16.6901C10.0156 16.6547 10.0318 16.604 10.0515 16.5424C10.0906 16.4193 10.1435 16.2513 10.198 16.0731C10.2397 15.9367 10.2904 15.7691 10.3372 15.6033C10.3997 15.5697 10.461 15.5351 10.5211 15.4995C10.7011 15.5447 10.8886 15.588 11.0411 15.6226C11.2284 15.6652 11.406 15.7041 11.5365 15.7323C11.6018 15.7465 11.6556 15.758 11.6932 15.766L11.7369 15.7752L11.753 15.7786C12.1707 15.8664 12.5979 15.6794 12.8169 15.3131L13.8518 13.5819C14.0814 13.1979 14.0279 12.7081 13.721 12.3826L13.7202 12.3818L13.6798 12.3391C13.6539 12.3117 13.6167 12.2726 13.5715 12.2252C13.4811 12.1305 13.3577 12.0018 13.2262 11.8669C13.1257 11.7638 13.0028 11.6384 12.8802 11.5176C12.8807 11.4911 12.881 11.4644 12.881 11.4375C12.881 11.4124 12.8807 11.3874 12.8803 11.3624C13.0152 11.2322 13.1485 11.0971 13.2575 10.9853C13.3868 10.8527 13.5052 10.7286 13.591 10.6377C13.634 10.5922 13.6691 10.5548 13.6936 10.5287L13.7222 10.4981L13.7329 10.4865C14.0353 10.1608 14.0863 9.6746 13.8583 9.29315L12.8234 7.5619C12.6044 7.1955 12.1768 7.00856 11.759 7.09645L11.7431 7.09983L11.6993 7.10913C11.6616 7.11715 11.6077 7.12869 11.5423 7.14285C11.4117 7.17113 11.2339 7.21013 11.0465 7.25277C10.8947 7.28728 10.7082 7.33031 10.529 7.3753C10.4677 7.33897 10.4055 7.30389 10.3421 7.27008C10.2942 7.10246 10.2422 6.93326 10.1997 6.79637C10.1444 6.61821 10.0907 6.45043 10.0509 6.3275C10.031 6.26592 10.0145 6.21531 10.0029 6.17993L9.98937 6.13877L9.98435 6.12354C9.84894 5.71404 9.46623 5.4375 9.03491 5.4375H6.96506ZM7.57035 7.87721C7.60694 7.74541 7.65252 7.59121 7.69923 7.4375H8.30455C8.35209 7.59142 8.39847 7.74594 8.43564 7.87811C8.45619 7.95118 8.4726 8.01273 8.48443 8.06087C8.49307 8.096 8.49696 8.11477 8.49822 8.12086C8.55012 8.47525 8.78762 8.77386 9.12081 8.90527C9.34952 8.99547 9.55888 9.11381 9.76806 9.26781C10.0437 9.47072 10.404 9.51858 10.723 9.39465C10.7293 9.3926 10.7485 9.38655 10.7857 9.37592C10.8354 9.3617 10.8994 9.34463 10.9756 9.32531C11.1239 9.28775 11.3012 9.24599 11.4762 9.20611L11.7508 9.66543C11.5177 9.90202 11.3192 10.0919 11.2398 10.1518C10.9428 10.3759 10.7948 10.7463 10.8556 11.1134C10.872 11.2122 10.881 11.3199 10.881 11.4375C10.881 11.5553 10.8719 11.6754 10.8563 11.8018C10.8124 12.1545 10.9592 12.504 11.2417 12.7197C11.2465 12.7239 11.2614 12.7369 11.2893 12.7625C11.3266 12.7968 11.3736 12.8416 11.4287 12.8954C11.5241 12.9886 11.6339 13.0992 11.7434 13.2111L11.4696 13.669C11.2951 13.6293 11.1183 13.5876 10.9703 13.5501C10.8941 13.5308 10.83 13.5137 10.7802 13.4994C10.7424 13.4886 10.7228 13.4822 10.7166 13.4802C10.3987 13.3567 10.0399 13.4039 9.76453 13.605C9.55692 13.7567 9.34005 13.8807 9.11434 13.9697C8.78115 14.1011 8.54368 14.4007 8.49178 14.7551C8.49052 14.7612 8.48653 14.7797 8.47783 14.8154C8.46606 14.8638 8.44979 14.9256 8.42947 14.9988C8.39294 15.1304 8.34747 15.2842 8.30087 15.4375H7.69555C7.6479 15.2832 7.60142 15.1283 7.56418 14.996C7.54363 14.9229 7.52722 14.8614 7.5154 14.8133C7.50686 14.7786 7.50299 14.76 7.50173 14.7539L7.50123 14.7516L7.50172 14.7551C7.44982 14.4007 7.21235 14.1011 6.87916 13.9697C6.65046 13.8795 6.4411 13.7612 6.23191 13.6072C5.95628 13.4043 5.59602 13.3564 5.27697 13.4804C5.27071 13.4824 5.2515 13.4884 5.21431 13.4991C5.16462 13.5133 5.10059 13.5304 5.02435 13.5497C4.87611 13.5872 4.69881 13.629 4.5238 13.6689L4.25238 13.2148C4.36302 13.103 4.474 12.9925 4.57041 12.8994C4.62616 12.8455 4.67372 12.8007 4.71149 12.7664C4.74001 12.7405 4.75547 12.7274 4.7604 12.7233C5.05734 12.4992 5.20515 12.1287 5.14438 11.7616C5.12817 11.6637 5.119 11.5499 5.119 11.4375C5.119 11.3493 5.13003 11.2391 5.15085 11.1134C5.21162 10.7463 5.06363 10.3759 4.76668 10.1518C4.76174 10.1476 4.74671 10.1347 4.71851 10.109C4.6808 10.0748 4.63328 10.03 4.57753 9.97613C4.481 9.88288 4.36978 9.7721 4.2589 9.66006L4.53035 9.20597C4.70486 9.24572 4.88164 9.28735 5.02964 9.32487C5.10588 9.34419 5.16998 9.36129 5.21979 9.37556C5.25754 9.38638 5.27714 9.39277 5.28338 9.3948C5.60122 9.51827 5.96012 9.47111 6.23544 9.26996C6.44305 9.11829 6.65992 8.99428 6.88563 8.90527C7.21882 8.77386 7.45629 8.47429 7.50819 8.11991C7.50946 8.11374 7.5134 8.09569 7.522 8.06041C7.53375 8.01214 7.55002 7.95042 7.57035 7.87721Z" fill="#107F8C"/>
<path fill-rule="evenodd" clip-rule="evenodd" d="M16.4498 18.1729C15.8975 18.1729 15.4498 18.6206 15.4498 19.1729C15.4498 19.7251 15.8975 20.1729 16.4498 20.1729H18.9873L18.99 21.9353C18.9904 22.2117 18.7664 22.4361 18.49 22.4361H13.8217C13.4099 21.2708 12.2986 20.4359 10.9923 20.4359C9.68603 20.4359 8.57475 21.2708 8.16296 22.4361H7.49231C7.21617 22.4361 6.99231 22.2122 6.99231 21.9361V19.4157C6.99231 18.8635 6.54459 18.4157 5.99231 18.4157C5.44002 18.4157 4.99231 18.8635 4.99231 19.4157V22.4361C4.99231 23.5406 5.88774 24.4361 6.99231 24.4361H8.16307C8.57495 25.6012 9.68615 26.4359 10.9923 26.4359C12.2985 26.4359 13.4097 25.6012 13.8215 24.4361H19.1626C19.5745 25.6012 20.6857 26.4359 21.9918 26.4359C23.2947 26.4359 24.4037 25.6053 24.818 24.4447H26.0077C27.6674 24.4447 29.0118 23.097 29.0077 21.4373L28.9965 16.9346C28.9903 14.4489 26.9735 12.4371 24.4878 12.4371H20.8767C20.4132 10.1548 18.3953 8.43761 15.9768 8.43761L15.957 8.4375C15.4048 8.4375 14.957 8.88522 14.957 9.4375C14.957 9.98978 15.4048 10.4375 15.957 10.4375L15.9768 10.4376C17.6319 10.4376 18.9743 11.7779 18.9768 13.433L18.9842 18.1729H16.4498ZM26.0077 22.4447H24.8242C24.4149 21.2749 23.3013 20.4359 21.9918 20.4359C21.6397 20.4359 21.3018 20.4966 20.9879 20.608L20.9846 18.4371H27.0002L27.0077 21.4422C27.009 21.9955 26.5609 22.4447 26.0077 22.4447ZM24.4878 14.4371C25.6988 14.4371 26.7097 15.2952 26.9449 16.4371H20.9815L20.9784 14.4371H24.4878ZM21.9918 24.4359C21.447 24.4359 21.0039 24.0002 20.9921 23.4582L20.9923 23.4345L20.9923 23.4058C21.0082 22.8675 21.4496 22.4359 21.9918 22.4359C22.5441 22.4359 22.9918 22.8836 22.9918 23.4359C22.9918 23.9882 22.5441 24.4359 21.9918 24.4359ZM9.99231 23.4359C9.99231 22.8836 10.44 22.4359 10.9923 22.4359C11.5446 22.4359 11.9923 22.8836 11.9923 23.4359C11.9923 23.9882 11.5446 24.4359 10.9923 24.4359C10.44 24.4359 9.99231 23.9882 9.99231 23.4359Z" fill="#107F8C"/>
</svg>
