<svg width="20" height="20" viewBox="0 0 20 20" fill="none" xmlns="http://www.w3.org/2000/svg">
<path fill-rule="evenodd" clip-rule="evenodd" d="M2 3C2 2.44772 2.44772 2 3 2H8.5C9.05229 2 9.5 1.55228 9.5 1C9.5 0.447715 9.05229 0 8.5 0H3C1.34315 0 0 1.34315 0 3V16.5C0 16.5623 0.00570013 16.6233 0.0166074 16.6825C0.0056292 16.7868 0 16.8927 0 17C0 18.6569 1.34315 20 3 20H15C15.5523 20 16 19.5523 16 19C16 18.4477 15.5523 18 15 18C14.4477 18 14 17.5523 14 17C14 16.4477 14.4477 16 15 16C15.5523 16 16 15.5523 16 15V12.5C16 11.9477 15.5523 11.5 15 11.5C14.4477 11.5 14 11.9477 14 12.5V14H3C2.64936 14 2.31278 14.0602 2 14.1707V3ZM12 17C12 17.3506 12.0602 17.6872 12.1707 18H3C2.44772 18 2 17.5523 2 17C2 16.4477 2.44772 16 3 16H12.1707C12.0602 16.3128 12 16.6494 12 17Z" fill="#B2B8BF"/>
<path d="M12.0947 4.34075C12.4624 2.72476 14.0836 1.7099 15.7156 2.074C16.2597 2.19536 16.8001 1.85708 16.9226 1.31842C17.0452 0.779755 16.7036 0.244697 16.1595 0.123332C13.4394 -0.483495 10.7374 1.20793 10.1246 3.90125C9.51169 6.59456 11.22 9.26984 13.9401 9.87667C16.6603 10.4835 19.3622 8.79207 19.9751 6.09876C20.0977 5.56009 19.756 5.02504 19.212 4.90367C18.6679 4.78231 18.1276 5.12059 18.005 5.65925C17.6373 7.27524 16.0161 8.2901 14.384 7.926C12.7519 7.56191 11.7269 5.95673 12.0947 4.34075Z" fill="#B2B8BF"/>
<path d="M18.8548 2.3605C19.2119 2.78468 19.154 3.41511 18.7256 3.7686L15.6963 6.26806C15.2951 6.59909 14.7052 6.5726 14.3359 6.20696L13.3262 5.20717C12.9318 4.81673 12.9318 4.18371 13.3262 3.79327C13.7205 3.40283 14.3598 3.40283 14.7542 3.79327L15.1119 4.14745L17.4327 2.23249C17.8611 1.879 18.4978 1.93632 18.8548 2.3605Z" fill="#B2B8BF"/>
</svg>
