<svg width="20" height="20" viewBox="0 0 20 20" fill="none" xmlns="http://www.w3.org/2000/svg">
<path d="M9 0C9.55229 0 10 0.447715 10 1C10 1.55228 9.55229 2 9 2H4C3.44772 2 3 2.44772 3 3V17C3 17.5523 3.44772 18 4 18H14C14.5523 18 15 17.5523 15 17V10C15 9.44771 15.4477 9 16 9C16.5523 9 17 9.44771 17 10V17C17 18.6569 15.6569 20 14 20H4C2.34315 20 1 18.6569 1 17V3C1 1.34315 2.34315 4.83192e-08 4 0H9Z" fill="#21A19A"/>
<path d="M11 13C11.5523 13 12 13.4477 12 14C12 14.5523 11.5523 15 11 15H6C5.44772 15 5 14.5523 5 14C5 13.4477 5.44772 13 6 13H11Z" fill="#21A19A"/>
<path d="M8 9C8.55228 9 9 9.44771 9 10C9 10.5523 8.55228 11 8 11H6C5.44772 11 5 10.5523 5 10C5 9.44771 5.44772 9 6 9H8Z" fill="#21A19A"/>
<path d="M8 5C8.55228 5 9 5.44772 9 6C9 6.55228 8.55228 7 8 7H6C5.44772 7 5 6.55228 5 6C5 5.44772 5.44772 5 6 5H8Z" fill="#21A19A"/>
<path d="M18.0986 0.00488281C18.3276 0.027552 18.5429 0.128895 18.707 0.292969C18.8946 0.480506 19 0.734765 19 1V5.49805C19 6.05033 18.5523 6.49805 18 6.49805C17.4477 6.49801 17 6.05031 17 5.49805V3.40332L13.7041 6.67676C13.3124 7.06528 12.6801 7.06309 12.291 6.67188C11.902 6.2801 11.9034 5.64602 12.2949 5.25684L15.5742 2L13.5 2.00195C12.9479 2.00196 12.5002 1.55409 12.5 1.00195C12.5 0.449868 12.9479 0.00219277 13.5 0.00195312L18 0L18.0986 0.00488281Z" fill="#21A19A"/>
</svg>
