<svg width="20" height="20" viewBox="0 0 20 20" fill="none" xmlns="http://www.w3.org/2000/svg">
<path d="M3 0C1.34315 0 0 1.34315 0 3V17C0 18.6569 1.34315 20 3 20H8C8.55228 20 9 19.5523 9 19C9 18.4477 8.55228 18 8 18H3C2.44772 18 2 17.5523 2 17V8H14C14.5523 8 15 7.55228 15 7C15 6.44772 14.5523 6 14 6H2V3C2 2.44772 2.44772 2 3 2H17C17.5523 2 18 2.44772 18 3V9C18 9.55229 18.4477 10 19 10C19.5523 10 20 9.55229 20 9V3C20 1.34315 18.6569 0 17 0H3Z" fill="#B2B8BF"/>
<path fill-rule="evenodd" clip-rule="evenodd" d="M10 13C9.66818 13 9.35796 13.1646 9.17193 13.4394C8.9859 13.7141 8.94829 14.0633 9.07152 14.3714L11.0715 19.3714C11.2234 19.751 11.5911 20 12 20H17C17.4089 20 17.7766 19.751 17.9285 19.3714L19.9285 14.3714C20.0517 14.0633 20.0141 13.7141 19.8281 13.4394C19.642 13.1646 19.3318 13 19 13H18.5352L16.8321 10.4453C16.5257 9.98577 15.9048 9.8616 15.4453 10.1679C14.9858 10.4743 14.8616 11.0952 15.1679 11.5547L16.1315 13H12.8685L13.8321 11.5547C14.1384 11.0952 14.0142 10.4743 13.5547 10.1679C13.0952 9.8616 12.4743 9.98577 12.1679 10.4453L10.4648 13H10ZM12.677 18L11.477 15H17.523L16.323 18H12.677Z" fill="#B2B8BF"/>
<path d="M3 4C3 3.44772 3.44772 3 4 3C4.55228 3 5 3.44772 5 4C5 4.55228 4.55228 5 4 5C3.44772 5 3 4.55228 3 4Z" fill="#B2B8BF"/>
<path d="M7 3C6.44772 3 6 3.44772 6 4C6 4.55228 6.44772 5 7 5C7.55228 5 8 4.55228 8 4C8 3.44772 7.55228 3 7 3Z" fill="#B2B8BF"/>
<path d="M9 4C9 3.44772 9.44771 3 10 3C10.5523 3 11 3.44772 11 4C11 4.55228 10.5523 5 10 5C9.44771 5 9 4.55228 9 4Z" fill="#B2B8BF"/>
</svg>
