<svg width="32" height="32" viewBox="0 0 32 32" fill="none" xmlns="http://www.w3.org/2000/svg">
<path d="M29 15.3335C29 15.8858 28.5523 16.3335 28 16.3335C27.4477 16.3335 27 15.8858 27 15.3335C27 9.2691 22.0647 4.3335 16.0002 4.3335C9.93527 4.3335 5 9.26912 5 15.3335C5 20.4467 8.50983 24.7611 13.2501 25.9856C13.7848 26.1238 14.1063 26.6692 13.9682 27.204C13.8301 27.7387 13.2846 28.0602 12.7499 27.9221C7.15003 26.4755 3 21.3825 3 15.3335C3 8.16457 8.83068 2.3335 16.0002 2.3335C23.1693 2.3335 29 8.1646 29 15.3335Z" fill="#21A19A"/>
<path d="M17 11C17 10.4477 16.5523 9.99999 16 9.99999C15.4477 9.99999 15 10.4477 15 11V16H12C11.4477 16 11 16.4477 11 17C11 17.5523 11.4477 18 12 18H16C16.5523 18 17 17.5523 17 17V11Z" fill="#21A19A"/>
<path d="M19.4221 23.8442C20.2075 23.8442 20.8442 23.2075 20.8442 22.4221C20.8442 21.6367 20.2075 21 19.4221 21C18.6367 21 18 21.6367 18 22.4221C18 23.2075 18.6367 23.8442 19.4221 23.8442Z" fill="#21A19A"/>
<path d="M25.4221 29.8442C26.2075 29.8442 26.8442 29.2075 26.8442 28.4221C26.8442 27.6367 26.2075 27 25.4221 27C24.6367 27 24 27.6367 24 28.4221C24 29.2075 24.6367 29.8442 25.4221 29.8442Z" fill="#21A19A"/>
<path d="M26.7071 22.7071C27.0976 22.3166 27.0976 21.6834 26.7071 21.2929C26.3166 20.9024 25.6834 20.9024 25.2929 21.2929L18.2929 28.2929C17.9024 28.6834 17.9024 29.3166 18.2929 29.7071C18.6834 30.0976 19.3166 30.0976 19.7071 29.7071L26.7071 22.7071Z" fill="#21A19A"/>
</svg>
