<svg width="32" height="32" viewBox="0 0 32 32" fill="none" xmlns="http://www.w3.org/2000/svg">
<path fill-rule="evenodd" clip-rule="evenodd" d="M27.6348 11.96C27.7151 11.57 27.7653 11.16 27.7653 10.75C27.7653 10.33 27.7151 9.93 27.6348 9.53C27.5544 9.18 27.444 8.84 27.2934 8.5C27.1629 8.2 27.0123 7.91 26.8316 7.64C26.6108 7.29 26.3397 6.97 26.0385 6.67C25.7775 6.41 25.4864 6.18 25.1852 5.98C24.874 5.77 24.5326 5.59 24.1813 5.45C23.86 5.32 23.5387 5.21 23.2075 5.14C22.7758 5.04 22.3441 5 21.9023 5C21.4606 5 21.0289 5.04 20.6073 5.14C20.276 5.21 19.9447 5.32 19.6335 5.45C19.2721 5.59 18.9408 5.77 18.6195 5.98C18.3183 6.18 18.0372 6.41 17.7662 6.67C17.465 6.97 17.204 7.29 16.9731 7.64C16.8727 7.8 16.7723 7.97 16.6819 8.14C16.6518 8.1 16.6117 8.06 16.5715 8.03C16.3406 7.8 16.0997 7.6 15.8387 7.43C15.5676 7.25 15.2765 7.09 14.9652 6.97C14.6942 6.85 14.4131 6.76 14.1219 6.7C13.7605 6.62 13.3891 6.58 13.0076 6.58C12.6261 6.58 12.2546 6.62 11.8932 6.7C11.6121 6.76 11.321 6.85 11.0499 6.97C10.7387 7.09 10.4576 7.25 10.1866 7.43C9.9155 7.6 9.67456 7.8 9.44366 8.03C9.18264 8.28 8.96177 8.56 8.76099 8.85C8.69071 8.97 8.6104 9.09 8.55016 9.22C8.40961 9.09 8.25903 8.98 8.0984 8.87C7.87753 8.72 7.63659 8.6 7.37557 8.49C7.14467 8.39 6.90373 8.32 6.66279 8.26C6.36161 8.2 6.05039 8.16 5.72914 8.16C5.40788 8.16 5.1067 8.2 4.79549 8.26C4.55455 8.32 4.32364 8.39 4.0827 8.49C3.83172 8.6 3.59078 8.72 3.35988 8.87C3.13901 9.02 2.92819 9.19 2.73744 9.38C2.52662 9.59 2.33587 9.82 2.16521 10.07C2.0347 10.27 1.92427 10.48 1.82387 10.7C1.72348 10.95 1.64317 11.2 1.58293 11.45C1.5227 11.74 1.49258 12.03 1.49258 12.33C1.49258 12.63 1.5227 12.92 1.58293 13.21C1.64317 13.46 1.72348 13.71 1.82387 13.96C1.92427 14.18 2.0347 14.39 2.16521 14.59C2.33587 14.84 2.52662 15.07 2.73744 15.28C2.92819 15.47 3.13901 15.64 3.35988 15.78C3.59078 15.94 3.83172 16.06 4.0827 16.17C4.32364 16.27 4.55455 16.34 4.79549 16.4C5.1067 16.46 5.40788 16.5 5.72914 16.5C6.05039 16.5 6.36161 16.46 6.66279 16.4C6.90373 16.34 7.14467 16.27 7.37557 16.17C7.63659 16.06 7.87753 15.94 8.0984 15.78C8.31926 15.64 8.53008 15.47 8.72083 15.28C8.8915 15.12 9.04209 14.95 9.1726 14.76C9.26295 14.86 9.3533 14.96 9.44366 15.05C9.67456 15.27 9.9155 15.47 10.1866 15.65C10.4576 15.83 10.7387 15.98 11.0499 16.11C11.321 16.22 11.6021 16.31 11.8932 16.38C12.2546 16.46 12.6261 16.5 13.0076 16.5C13.3891 16.5 13.7605 16.46 14.1219 16.38C14.4131 16.31 14.6942 16.22 14.9652 16.11C15.2765 15.98 15.5676 15.83 15.8387 15.65C16.0997 15.47 16.3406 15.27 16.5715 15.05C16.8325 14.8 17.0534 14.53 17.2441 14.23C17.4048 14.44 17.5754 14.63 17.7662 14.82C18.0372 15.08 18.3183 15.31 18.6195 15.51C18.9408 15.72 19.2721 15.9 19.6335 16.05C19.9447 16.18 20.276 16.28 20.6073 16.36C21.0289 16.45 21.4606 16.5 21.9023 16.5C22.3441 16.5 22.7858 16.45 23.2075 16.36C23.5387 16.28 23.86 16.18 24.1813 16.05C24.874 15.76 25.4964 15.35 26.0385 14.82C26.5806 14.29 27.0023 13.68 27.2934 12.99C27.444 12.66 27.5544 12.31 27.6348 11.96ZM25.4562 9.29C25.657 9.76 25.7574 10.24 25.7574 10.75C25.7574 11.02 25.7273 11.29 25.6671 11.56C25.6169 11.78 25.5466 11.99 25.4562 12.2C25.2555 12.65 24.9844 13.05 24.633 13.39C24.4624 13.56 24.2716 13.71 24.0708 13.84C23.87 13.98 23.6492 14.1 23.4082 14.2C23.2175 14.28 23.0167 14.35 22.8059 14.39C22.5147 14.46 22.2136 14.5 21.9023 14.5C21.5911 14.5 21.29 14.46 20.9988 14.39C20.798 14.35 20.5972 14.28 20.3965 14.2C19.9447 14.01 19.5331 13.74 19.1817 13.39C18.9709 13.19 18.7902 12.97 18.6296 12.73C18.5292 12.56 18.4388 12.38 18.3585 12.2C18.2681 11.99 18.1979 11.78 18.1477 11.56C18.0874 11.29 18.0573 11.02 18.0573 10.75C18.0573 10.47 18.0874 10.2 18.1477 9.94C18.1979 9.72 18.2681 9.5 18.3585 9.29C18.4388 9.11 18.5292 8.93 18.6296 8.77C18.7902 8.53 18.9709 8.31 19.1817 8.1C19.3524 7.93 19.5331 7.78 19.7339 7.65C19.9447 7.51 20.1656 7.39 20.3965 7.29C20.5972 7.21 20.798 7.15 20.9988 7.1C21.29 7.03 21.5911 7 21.9023 7C22.2136 7 22.5147 7.03 22.8059 7.1C23.0167 7.15 23.2175 7.21 23.4082 7.29C23.6492 7.39 23.87 7.51 24.0708 7.65C24.2716 7.78 24.4624 7.93 24.633 8.1C24.8438 8.31 25.0246 8.53 25.1751 8.77C25.2856 8.93 25.3759 9.11 25.4562 9.29ZM16.0495 11.54C16.0495 11.14 15.9692 10.76 15.8085 10.39C15.7483 10.25 15.678 10.11 15.5977 9.98C15.4772 9.79 15.3266 9.62 15.166 9.45C15.0255 9.32 14.8849 9.2 14.7243 9.1C14.5637 8.99 14.383 8.89 14.2023 8.81C14.0416 8.75 13.891 8.7 13.7304 8.66C13.4995 8.61 13.2586 8.58 13.0076 8.58C12.7566 8.58 12.5257 8.61 12.2848 8.66C12.1241 8.7 11.9735 8.75 11.823 8.81C11.6322 8.89 11.4615 8.99 11.2909 9.1C11.1403 9.2 10.9897 9.32 10.8491 9.45C10.6885 9.62 10.5379 9.79 10.4175 9.98C10.3371 10.11 10.2669 10.25 10.2066 10.39C10.1364 10.56 10.0761 10.73 10.036 10.9C9.99581 11.11 9.9657 11.32 9.9657 11.54C9.9657 11.76 9.99581 11.97 10.036 12.18C10.0761 12.35 10.1364 12.52 10.2066 12.68C10.2669 12.83 10.3371 12.96 10.4175 13.09C10.5379 13.28 10.6885 13.46 10.8491 13.62C11.1302 13.9 11.4515 14.11 11.823 14.26C11.9735 14.33 12.1241 14.38 12.2848 14.41C12.5257 14.47 12.7566 14.5 13.0076 14.5C13.2586 14.5 13.4995 14.47 13.7304 14.41C13.891 14.37 14.0416 14.33 14.2023 14.26C14.383 14.18 14.5637 14.09 14.7243 13.98C14.8849 13.88 15.0255 13.76 15.166 13.62C15.3266 13.46 15.4772 13.28 15.5977 13.09C15.678 12.96 15.7483 12.83 15.8085 12.68C15.8788 12.52 15.939 12.35 15.9792 12.18C16.0294 11.97 16.0495 11.76 16.0495 11.54ZM7.78718 11.49C7.83738 11.61 7.87753 11.73 7.90765 11.86C7.94781 12.01 7.95785 12.17 7.95785 12.33C7.95785 12.49 7.94781 12.65 7.90765 12.8C7.87753 12.93 7.83738 13.05 7.78718 13.17C7.67675 13.43 7.51612 13.66 7.31534 13.86C7.21494 13.95 7.10451 14.04 6.99408 14.12C6.87361 14.2 6.7431 14.27 6.60255 14.32C6.33149 14.44 6.04035 14.5 5.72914 14.5C5.54843 14.5 5.36772 14.48 5.19706 14.43C5.07659 14.41 4.96615 14.37 4.85572 14.32C4.58466 14.21 4.35376 14.06 4.14294 13.86C4.02247 13.73 3.91203 13.6 3.82168 13.46C3.77149 13.37 3.71125 13.27 3.67109 13.17C3.6209 13.05 3.58074 12.93 3.55062 12.8C3.5205 12.65 3.50043 12.49 3.50043 12.33C3.50043 12.17 3.5205 12.01 3.55062 11.86C3.58074 11.73 3.6209 11.61 3.67109 11.49C3.71125 11.39 3.77149 11.29 3.82168 11.2C3.91203 11.06 4.02247 10.93 4.14294 10.8C4.24333 10.71 4.35376 10.62 4.46419 10.54C4.58466 10.46 4.71517 10.39 4.85572 10.34C4.96615 10.29 5.07659 10.25 5.19706 10.23C5.36772 10.18 5.54843 10.16 5.72914 10.16C5.90984 10.16 6.09055 10.18 6.27126 10.23C6.38169 10.25 6.49212 10.29 6.60255 10.34C6.7431 10.39 6.87361 10.46 6.99408 10.54C7.10451 10.62 7.21494 10.71 7.31534 10.8C7.43581 10.92 7.54624 11.06 7.63659 11.2C7.69683 11.29 7.74702 11.39 7.78718 11.49ZM5.21714 19.98C4.95612 20.07 4.69509 20.18 4.44411 20.3C3.98231 20.51 3.55062 20.76 3.13901 21.04C2.96835 21.16 2.80772 21.29 2.63705 21.42C2.20536 21.77 1.58293 21.7 1.23156 21.27C0.870145 20.83 0.94042 20.21 1.38215 19.86C1.60301 19.68 1.83391 19.51 2.07485 19.34C2.55674 19.02 3.0587 18.73 3.58074 18.49C3.902 18.34 4.21321 18.21 4.53447 18.09C5.06655 17.9 5.62874 18.17 5.81949 18.7C6.01024 19.22 5.74922 19.79 5.21714 19.98ZM12.847 20.61C13.118 20.58 13.3991 20.56 13.6802 20.55C14.2424 20.54 14.6841 20.1 14.6741 19.54C14.6641 18.98 14.2123 18.54 13.6501 18.55C13.3088 18.56 12.9674 18.58 12.6161 18.62C12.0237 18.69 11.4415 18.8 10.8692 18.96C10.568 19.04 10.2769 19.14 9.98577 19.25C9.55409 19.41 9.14248 19.59 8.75095 19.8C8.3795 20 8.00804 20.22 7.65667 20.46C7.29526 20.72 6.94388 20.99 6.61259 21.29C6.30137 21.56 6.01024 21.85 5.72914 22.16C5.39784 22.54 5.08663 22.94 4.81557 23.36C4.62482 23.65 4.44411 23.95 4.27345 24.26C4.01243 24.76 4.20317 25.35 4.69509 25.61C5.19706 25.87 5.78937 25.69 6.05039 25.19C6.1809 24.95 6.32145 24.72 6.47204 24.49C6.6929 24.14 6.95392 23.81 7.23502 23.49C7.45589 23.24 7.69683 23 7.93777 22.78C8.20883 22.54 8.49997 22.32 8.80114 22.11C9.08224 21.91 9.38342 21.73 9.6846 21.57C10.0059 21.4 10.3472 21.25 10.6885 21.12C10.9094 21.04 11.1202 20.97 11.3411 20.91C11.833 20.76 12.335 20.66 12.847 20.61ZM29.1607 25.05C28.7692 24.48 28.3174 23.96 27.7954 23.49C27.2733 23.02 26.7111 22.62 26.0887 22.29C25.7875 22.13 25.4763 21.98 25.1551 21.86C24.8137 21.72 24.4624 21.61 24.1009 21.52C23.8801 21.46 23.6592 21.41 23.4283 21.37C22.9264 21.29 22.4244 21.25 21.9023 21.25C21.3903 21.25 20.8783 21.29 20.3764 21.37C20.1555 21.41 19.9347 21.46 19.7138 21.52C19.3524 21.61 19.001 21.72 18.6597 21.86C18.3384 21.98 18.0272 22.13 17.726 22.29C17.3947 22.46 17.0936 22.66 16.7924 22.87C16.5213 23.06 16.2603 23.27 16.0093 23.49C15.6981 23.78 15.407 24.08 15.1359 24.4C14.9652 24.61 14.8046 24.83 14.644 25.05C14.3328 25.52 13.7204 25.64 13.2586 25.32C12.7867 25.01 12.6663 24.4 12.9875 23.93C13.1783 23.64 13.3991 23.36 13.62 23.09C13.9412 22.71 14.2926 22.35 14.6641 22.01C14.9753 21.73 15.2965 21.47 15.6379 21.23C15.9993 20.98 16.3707 20.74 16.7723 20.53C17.1438 20.33 17.5353 20.15 17.9268 19.99C18.3485 19.83 18.7701 19.69 19.2118 19.58C19.513 19.5 19.8242 19.44 20.1254 19.39C20.7177 19.29 21.31 19.25 21.9023 19.25C22.5047 19.25 23.097 19.29 23.6793 19.39C23.9905 19.44 24.2917 19.5 24.5929 19.58C25.0346 19.69 25.4663 19.83 25.8779 19.99C26.2795 20.15 26.6609 20.33 27.0424 20.53C27.434 20.74 27.8155 20.98 28.1769 21.23C28.5082 21.47 28.8395 21.73 29.1406 22.01C29.5221 22.35 29.8735 22.71 30.1847 23.09C30.4156 23.36 30.6264 23.64 30.8272 23.93C31.1384 24.4 31.018 25.01 30.5562 25.32C30.0944 25.64 29.482 25.52 29.1607 25.05Z" fill="#21A19A"/>
</svg>
