<svg width="32" height="32" viewBox="0 0 32 32" fill="none" xmlns="http://www.w3.org/2000/svg">
<path d="M11.553 4.10557C11.8345 3.96481 12.1659 3.96481 12.4474 4.10557L20.4474 8.10557C20.9414 8.35256 21.1416 8.95324 20.8946 9.44721C20.6477 9.94119 20.047 10.1414 19.553 9.89443L12.0002 6.11803L4.44743 9.89443C3.95345 10.1414 3.35278 9.94119 3.10579 9.44721C2.8588 8.95324 3.05903 8.35256 3.55301 8.10557L11.553 4.10557Z" fill="#107F8C"/>
<path d="M2.99951 23C2.99951 22.4477 3.44723 22 3.99951 22H11.9995C12.5518 22 12.9995 22.4477 12.9995 23C12.9995 23.5523 12.5518 24 11.9995 24H3.99951C3.44723 24 2.99951 23.5523 2.99951 23Z" fill="#107F8C"/>
<path d="M13 12C13 11.4477 12.5523 11 12 11C11.4477 11 11 11.4477 11 12V19C11 19.5523 11.4477 20 12 20C12.5523 20 13 19.5523 13 19V12Z" fill="#107F8C"/>
<path d="M7 11C7.55228 11 8 11.4477 8 12V19C8 19.5523 7.55228 20 7 20C6.44772 20 6 19.5523 6 19V12C6 11.4477 6.44772 11 7 11Z" fill="#107F8C"/>
<path d="M17.999 12C17.999 11.4477 17.5513 11 16.999 11C16.4467 11 15.999 11.4477 15.999 12V14C15.999 14.5523 16.4467 15 16.999 15C17.5513 15 17.999 14.5523 17.999 14V12Z" fill="#107F8C"/>
<path fill-rule="evenodd" clip-rule="evenodd" d="M20 25V24H19C18.4477 24 18 23.5523 18 23C18 22.4477 18.4477 22 19 22H20V18C20 17.4477 20.4477 17 21 17C21.039 17 21.0775 17.0022 21.1153 17.0066C21.1532 17.0022 21.1916 17 21.2306 17H23.8383C25.0898 17 25.9565 17.5521 26.4556 18.3579C26.9085 19.0891 27 19.9309 27 20.5V20.6674C27 21.2913 26.8517 22.0994 26.3645 22.7808C25.8412 23.5127 24.9936 24 23.8383 24H22V25H22.9884C23.5406 25 23.9884 25.4477 23.9884 26C23.9884 26.5523 23.5406 27 22.9884 27H22V28C22 28.5523 21.5523 29 21 29C20.4477 29 20 28.5523 20 28V27H19C18.4477 27 18 26.5523 18 26C18 25.4477 18.4477 25 19 25H20ZM22 22V19H23.8383C24.417 19 24.6311 19.2105 24.7553 19.411C24.9257 19.6861 25 20.0943 25 20.5V20.6674C25 21.0182 24.9099 21.3765 24.7375 21.6176C24.6011 21.8084 24.3679 22 23.8383 22H22Z" fill="#107F8C"/>
</svg>
