<svg width="32" height="32" viewBox="0 0 32 32" fill="none" xmlns="http://www.w3.org/2000/svg">
<path fill-rule="evenodd" clip-rule="evenodd" d="M22.2962 2.62988C19.2627 2.62988 16.7962 5.09618 16.7962 8.12979C16.7962 11.1636 19.2627 13.6299 22.2962 13.6299C23.7078 13.6299 24.9966 13.0959 25.9712 12.2191L27.7972 13.6299C28.1877 14.0204 28.8209 14.0204 29.2114 13.6299C29.6019 13.2394 29.6019 12.6062 29.2114 12.2157L27.2001 10.6196C27.5812 9.87169 27.7962 9.02547 27.7962 8.12979C27.7962 5.09618 25.3297 2.62988 22.2962 2.62988ZM18.7962 8.12979C18.7962 6.20082 20.3672 4.62988 22.2962 4.62988C24.2252 4.62988 25.7962 6.20082 25.7962 8.12979C25.7962 10.059 24.2252 11.6299 22.2962 11.6299C20.3672 11.6299 18.7962 10.059 18.7962 8.12979Z" fill="#21A19A"/>
<path d="M8 8.00035C7.44772 8.00035 7 8.44807 7 9.00035V19.2504C7 19.8026 7.44772 20.2504 8 20.2504H24C24.5523 20.2504 25 19.8026 25 19.2504V16.0004C25 15.4481 25.4477 15.0004 26 15.0004C26.5523 15.0004 27 15.4481 27 16.0004V19.2504C27 20.9072 25.6569 22.2504 24 22.2504H17V25.0004H21C21.5523 25.0004 22 25.4481 22 26.0004C22 26.5526 21.5523 27.0004 21 27.0004H11C10.4477 27.0004 10 26.5526 10 26.0004C10 25.4481 10.4477 25.0004 11 25.0004H15V22.2504H8C6.34315 22.2504 5 20.9072 5 19.2504V9.00035C5 7.3435 6.34315 6.00035 8 6.00035L14.7899 6C15.3422 6 15.7899 6.44772 15.7899 7C15.7899 7.55228 15.3422 8 14.7899 8L8 8.00035Z" fill="#21A19A"/>
<path d="M10 17C10 17.5523 10.4477 18 11 18C11.5523 18 12 17.5523 12 17V12C12 11.4477 11.5523 11 11 11C10.4477 11 10 11.4477 10 12V17Z" fill="#21A19A"/>
<path d="M16 18C15.4477 18 15 17.5523 15 17V12C15 11.4477 15.4477 11 16 11C16.5523 11 17 11.4477 17 12V17C17 17.5523 16.5523 18 16 18Z" fill="#21A19A"/>
<path d="M20 17C20 17.5523 20.4477 18 21 18C21.5523 18 22 17.5523 22 17V16C22 15.4477 21.5523 15 21 15C20.4477 15 20 15.4477 20 16V17Z" fill="#21A19A"/>
</svg>
