<svg width="20" height="20" viewBox="0 0 20 20" fill="none" xmlns="http://www.w3.org/2000/svg">
<path fill-rule="evenodd" clip-rule="evenodd" d="M15 6C12.2386 6 10 8.23858 10 11C10 12.6358 10.7856 14.0882 12 15.0004V19C12 19.3466 12.1795 19.6684 12.4743 19.8507C12.7691 20.0329 13.1372 20.0494 13.4472 19.8944L15 19.118L16.5528 19.8944C16.8628 20.0494 17.2309 20.0329 17.5257 19.8507C17.8205 19.6684 18 19.3466 18 19V15.0004C19.2144 14.0882 20 12.6358 20 11C20 8.23858 17.7614 6 15 6ZM12 11C12 9.34315 13.3431 8 15 8C16.6569 8 18 9.34315 18 11C18 12.6569 16.6569 14 15 14C13.3431 14 12 12.6569 12 11ZM16 15.9C15.6769 15.9656 15.3425 16 15 16C14.6575 16 14.3231 15.9656 14 15.9V17.382L14.5528 17.1056C14.8343 16.9648 15.1657 16.9648 15.4472 17.1056L16 17.382V15.9Z" fill="#107F8C"/>
<path d="M6 0C6.55228 0 7 0.447715 7 1V2H13V1C13 0.447715 13.4477 0 14 0C14.5523 0 15 0.447715 15 1V2H17C18.6569 2 20 3.34315 20 5C20 5.55228 19.5523 6 19 6C18.4477 6 18 5.55228 18 5C18 4.44771 17.5523 4 17 4H15C15 4.55228 14.5523 5 14 5C13.4477 5 13 4.55228 13 4H7V5C7 5.55228 6.55228 6 6 6C5.44772 6 5 5.55228 5 5V4H3C2.44772 4 2 4.44772 2 5V17C2 17.5523 2.44772 18 3 18H9C9.55229 18 10 18.4477 10 19C10 19.5523 9.55229 20 9 20H3C1.34315 20 0 18.6569 0 17V5C0 3.34315 1.34315 2 3 2H5V1C5 0.447715 5.44772 0 6 0Z" fill="#107F8C"/>
</svg>
