<svg width="20" height="20" viewBox="0 0 20 20" fill="none" xmlns="http://www.w3.org/2000/svg">
<path d="M6.65559 0.0611575C6.87791 -0.0203858 7.12195 -0.0203858 7.34427 0.0611575L13.344 2.26178C13.8625 2.45195 14.1286 3.02643 13.9384 3.54491C13.7483 4.06339 13.1738 4.32954 12.6553 4.13937L6.99993 2.06504L1.34456 4.13937C0.82608 4.32954 0.251602 4.06339 0.0614294 3.54491C-0.128743 3.02643 0.137403 2.45195 0.655885 2.26178L6.65559 0.0611575Z" fill="#107F8C"/>
<path d="M0.0305161 12.9994C0.0305161 12.4471 0.478209 11.9994 1.03047 11.9994H8.5301C9.08236 11.9994 9.53005 12.4471 9.53005 12.9994C9.53005 13.5516 9.08236 13.9993 8.5301 13.9993H1.03047C0.478209 13.9993 0.0305161 13.5516 0.0305161 12.9994Z" fill="#107F8C"/>
<path d="M7.99985 5.99971C7.99985 5.44745 7.55216 4.99976 6.9999 4.99976C6.44764 4.99976 5.99995 5.44745 5.99995 5.99971V9.72996C5.99995 10.2822 6.44764 10.7299 6.9999 10.7299C7.55216 10.7299 7.99985 10.2822 7.99985 9.72996V5.99971Z" fill="#107F8C"/>
<path d="M10.9997 4.99976C11.552 4.99976 11.9997 5.44745 11.9997 5.99971V6.99966C11.9997 7.55192 11.552 7.99961 10.9997 7.99961C10.4474 7.99961 9.99976 7.55192 9.99976 6.99966V5.99971C9.99976 5.44745 10.4474 4.99976 10.9997 4.99976Z" fill="#107F8C"/>
<path d="M4.00005 5.99971C4.00005 5.44745 3.55236 4.99976 3.0001 4.99976C2.44784 4.99976 2.00015 5.44745 2.00015 5.99971V9.72996C2.00015 10.2822 2.44784 10.7299 3.0001 10.7299C3.55236 10.7299 4.00005 10.2822 4.00005 9.72996V5.99971Z" fill="#107F8C"/>
<path d="M15.6588 12.0727C14.0425 11.7085 12.4371 12.7236 12.0729 14.3398C11.7088 15.9561 12.7238 17.5615 14.3401 17.9257C15.9563 18.2898 17.5618 17.2748 17.9259 15.6585C18.0473 15.1198 18.5825 14.7815 19.1212 14.9028C19.66 15.0242 19.9983 15.5594 19.8769 16.0981C19.27 18.7919 16.5943 20.4836 13.9005 19.8767C11.2067 19.2697 9.51502 16.594 10.1219 13.9002C10.7289 11.2065 13.4046 9.51476 16.0984 10.1217C16.6371 10.2431 16.9755 10.7782 16.8541 11.317C16.7327 11.8557 16.1976 12.1941 15.6588 12.0727Z" fill="#107F8C"/>
<path d="M18.6395 13.7676C19.0638 13.414 19.1211 12.7835 18.7675 12.3592C18.414 11.935 17.7835 11.8777 17.3592 12.2312L15.0609 14.1465L14.7066 13.7922C14.3161 13.4017 13.683 13.4017 13.2925 13.7922C12.902 14.1828 12.902 14.8159 13.2925 15.2064L14.2924 16.2063C14.6581 16.572 15.2424 16.5985 15.6397 16.2675L18.6395 13.7676Z" fill="#107F8C"/>
</svg>
