<svg width="32" height="32" viewBox="0 0 32 32" fill="none" xmlns="http://www.w3.org/2000/svg">
<path d="M12.6247 5.21917C13.056 5.56418 13.1259 6.19347 12.7809 6.62473L10.0806 10.0001H23.0794L20.6809 6.57355C20.3641 6.1211 20.4742 5.49757 20.9266 5.18085C21.3791 4.86414 22.0026 4.97417 22.3193 5.42662L25.5207 10.0001H29C29.3466 10.0001 29.6685 10.1795 29.8507 10.4743C30.0329 10.7691 30.0494 11.1373 29.8944 11.4473L27.8944 15.4473C27.6474 15.9413 27.0468 16.1415 26.5528 15.8945C26.0588 15.6475 25.8586 15.0468 26.1056 14.5528L27.382 12.0001H25.0159C25.0059 12.0002 24.996 12.0002 24.9861 12.0001H8.00441C8.00107 12.0001 7.99773 12.0001 7.99439 12.0001H5.38743L9.72077 25.0001H14C14.5523 25.0001 15 25.4478 15 26.0001C15 26.5523 14.5523 27.0001 14 27.0001H9.00001C8.56958 27.0001 8.18744 26.7246 8.05132 26.3163L3.05132 11.3163C2.94967 11.0113 3.00081 10.6761 3.18877 10.4154C3.37672 10.1546 3.67856 10.0001 4.00001 10.0001H7.51939L11.2192 5.37534C11.5642 4.94408 12.1935 4.87416 12.6247 5.21917Z" fill="#B2B8BF"/>
<path d="M18.0029 25.0044C18.0029 25.5567 18.4506 26.0044 19.0029 26.0044C19.5552 26.0044 20.0029 25.5567 20.0029 25.0044L20.0029 21.4172L26.2931 27.7071C26.6836 28.0976 27.3168 28.0976 27.7073 27.7071C28.0978 27.3165 28.0978 26.6834 27.7073 26.2928L21.4151 20.001H25.0029C25.5552 20.001 26.0029 19.5533 26.0029 19.001C26.0029 18.4487 25.5552 18.001 25.0029 18.001H19.0029C18.998 18.001 18.9931 18.001 18.9882 18.0011C18.7365 18.0043 18.4858 18.1019 18.2937 18.2939C18.082 18.5057 17.985 18.7888 18.0029 19.0659L18.0029 25.0044Z" fill="#B2B8BF"/>
</svg>
