<svg width="20" height="20" viewBox="0 0 20 20" fill="none" xmlns="http://www.w3.org/2000/svg">
<path fill-rule="evenodd" clip-rule="evenodd" d="M5 2C3.34314 2 2 3.34314 2 5V16.7731L4.83563 14.2526C5.01868 14.0899 5.25508 14 5.5 14H15C16.6568 14 18 12.6568 18 11V5C18 3.34314 16.6568 2 15 2H5ZM0 5C0 2.23857 2.23857 0 5 0H15C17.7614 0 20 2.23857 20 5V11C20 13.7614 17.7614 16 15 16H5.88019L1.66436 19.7474C1.37004 20.009 0.949576 20.0735 0.590343 19.9122C0.231111 19.7509 0 19.3938 0 19V5Z" fill="#B2B8BF"/>
<path d="M5 6.99999C5.55228 6.99999 5.99999 6.55228 5.99999 5.99999C5.99999 5.44771 5.55228 5 5 5C4.44771 5 4 5.44771 4 5.99999C4 6.55228 4.44771 6.99999 5 6.99999Z" fill="#B2B8BF"/>
<path d="M5 11C5.55228 11 5.99999 10.5523 5.99999 9.99999C5.99999 9.44771 5.55228 8.99999 5 8.99999C4.44771 8.99999 4 9.44771 4 9.99999C4 10.5523 4.44771 11 5 11Z" fill="#B2B8BF"/>
<path d="M7.99999 5.99999C7.99999 5.44771 8.44771 5 8.99999 5H15C15.5523 5 16 5.44771 16 5.99999C16 6.55228 15.5523 6.99999 15 6.99999H8.99999C8.44771 6.99999 7.99999 6.55228 7.99999 5.99999Z" fill="#B2B8BF"/>
<path d="M8.99999 8.99999C8.44771 8.99999 7.99999 9.44771 7.99999 9.99999C7.99999 10.5523 8.44771 11 8.99999 11H15C15.5523 11 16 10.5523 16 9.99999C16 9.44771 15.5523 8.99999 15 8.99999H8.99999Z" fill="#B2B8BF"/>
</svg>
