<svg width="32" height="32" viewBox="0 0 32 32" fill="none" xmlns="http://www.w3.org/2000/svg">
<path fill-rule="evenodd" clip-rule="evenodd" d="M10 2C8.34315 2 7 3.34315 7 5C7 6.65685 8.34315 8 10 8C11.6569 8 13 6.65685 13 5C13 3.34315 11.6569 2 10 2ZM9 5C9 4.44772 9.44772 4 10 4C10.5523 4 11 4.44772 11 5C11 5.55228 10.5523 6 10 6C9.44772 6 9 5.55228 9 5Z" fill="#21A19A"/>
<path fill-rule="evenodd" clip-rule="evenodd" d="M11.3706 9.33576C11.9198 8.877 12.7066 8.89694 13.2362 9.32689L13.2372 9.32772C14.347 10.2312 15 11.5588 15 12.9757C15 13.2607 14.9725 13.5489 14.9186 13.833C14.7837 14.5467 14.151 14.9999 13.4909 14.9999H6.50914C5.84723 14.9999 5.21594 14.5446 5.08122 13.832C5.02803 13.5496 5 13.2617 5 12.9757C5 11.5916 5.62712 10.244 6.71361 9.33594L6.71507 9.33472C7.26404 8.87767 8.04904 8.8968 8.57904 9.32635L8.58092 9.32788C8.97941 9.65244 9.47627 9.83984 9.96546 9.83984C10.4871 9.83984 10.9867 9.65643 11.3706 9.33576ZM12.2697 11.1547C11.5921 11.5986 10.7898 11.8398 9.96546 11.8398C9.14289 11.8398 8.35774 11.5824 7.70089 11.1572C7.25034 11.6647 7 12.3202 7 12.9757L7.00012 12.9999H12.9999L13 12.9757C13 12.311 12.7437 11.6641 12.2697 11.1547Z" fill="#21A19A"/>
<path fill-rule="evenodd" clip-rule="evenodd" d="M21.6286 16.0715C21.867 15.9762 22.133 15.9762 22.3714 16.0715L27.3714 18.0715C27.751 18.2234 28 18.5911 28 19C28 21.4302 27.9116 23.3467 27.1375 25.0619C26.3506 26.8052 24.921 28.2107 22.5652 29.8249C22.2246 30.0584 21.7754 30.0584 21.4348 29.8249C19.0858 28.2154 17.6569 26.8101 16.8684 25.0663C16.0923 23.3503 16 21.432 16 19C16 18.5911 16.249 18.2234 16.6286 18.0715L21.6286 16.0715ZM18.0034 19.6757C18.0258 21.7414 18.1686 23.0877 18.6907 24.2422C19.2054 25.3804 20.1414 26.4374 22 27.7781C23.8658 26.4326 24.8015 25.3757 25.3146 24.2391C25.8351 23.0859 25.9748 21.7425 25.9967 19.6757L22 18.077L18.0034 19.6757Z" fill="#21A19A"/>
<path d="M19.6674 7.67483L21.1245 7.49269C21.6725 7.42418 22.0612 6.92439 21.9927 6.37637C21.9242 5.82835 21.4244 5.43963 20.8764 5.50813L16.8764 6.00813C16.5924 6.04363 16.3373 6.19909 16.1755 6.43516C16.0138 6.67124 15.9609 6.96531 16.0303 7.24295L17.0303 11.2429C17.1643 11.7787 17.7072 12.1045 18.243 11.9706C18.7788 11.8366 19.1045 11.2937 18.9706 10.7579L18.6334 9.40895C20.7592 10.2595 22.478 12.0924 23.0317 14.2488C23.169 14.7838 23.714 15.1061 24.2489 14.9687C24.7839 14.8314 25.1062 14.2864 24.9688 13.7515C24.2737 11.0438 22.2207 8.79753 19.6674 7.67483Z" fill="#21A19A"/>
<path d="M7.75156 17.0316C8.2865 16.8942 8.83149 17.2165 8.96883 17.7515C9.60135 20.2151 11.79 22.3971 14.2501 23.0319C14.7849 23.1698 15.1065 23.7152 14.9685 24.25C14.8305 24.7848 14.2852 25.1064 13.7504 24.9684C10.5881 24.1525 7.84625 21.4216 7.03165 18.2488C6.89431 17.7139 7.21663 17.1689 7.75156 17.0316Z" fill="#21A19A"/>
</svg>
