<svg width="20" height="20" viewBox="0 0 20 20" fill="none" xmlns="http://www.w3.org/2000/svg">
<path fill-rule="evenodd" clip-rule="evenodd" d="M14.8939 0.080855C14.6424 -0.0269517 14.3576 -0.0269517 14.1061 0.080855L10.6061 1.58086C10.2384 1.73843 10 2.09997 10 2.5C10 4.32046 10.0624 5.79807 10.6244 7.12956C11.2004 8.4944 12.2431 9.58361 13.9082 10.8061C14.2604 11.0646 14.7396 11.0646 15.0918 10.8061C16.7616 9.58018 17.8049 8.49075 18.3798 7.12608C18.9404 5.79523 19 4.31878 19 2.5C19 2.09997 18.7616 1.73843 18.3939 1.58086L14.8939 0.080855ZM12.467 6.35185C12.1299 5.55334 12.0252 4.61621 12.0043 3.15757L14.5 2.08797L16.9958 3.15762C16.9754 4.61708 16.8726 5.55214 16.5367 6.34962C16.2177 7.10676 15.6477 7.82667 14.5001 8.74202C13.3572 7.82999 12.787 7.11008 12.467 6.35185Z" fill="#21A19A"/>
<path d="M0 5C0 4.44772 0.50045 4 1.05273 4H1.86039C3.29044 4 4.52168 5.00938 4.80213 6.41165L5.1198 8H9C9.55228 8 10 8.44772 10 9C10 9.55229 9.55228 10 9 10H5.5198L6.3198 14H13.1802L13.4194 12.8039C13.5277 12.2623 14.0546 11.9111 14.5961 12.0194C15.1377 12.1277 15.4889 12.6546 15.3806 13.1961L14.9806 15.1961C14.8871 15.6635 14.4767 16 14 16H5.5C5.02332 16 4.6129 15.6635 4.51942 15.1961L2.84097 6.80388C2.74749 6.33646 2.33707 6 1.86039 6H1.05273C0.50045 6 0 5.55228 0 5Z" fill="#21A19A"/>
<path d="M13 20C13.8284 20 14.5 19.3284 14.5 18.5C14.5 17.6716 13.8284 17 13 17C12.1716 17 11.5 17.6716 11.5 18.5C11.5 19.3284 12.1716 20 13 20Z" fill="#21A19A"/>
<path d="M7.5 18.5C7.5 19.3284 6.82843 20 6 20C5.17157 20 4.5 19.3284 4.5 18.5C4.5 17.6716 5.17157 17 6 17C6.82843 17 7.5 17.6716 7.5 18.5Z" fill="#21A19A"/>
</svg>
