<svg width="20" height="20" viewBox="0 0 20 20" fill="none" xmlns="http://www.w3.org/2000/svg">
<path fill-rule="evenodd" clip-rule="evenodd" d="M15 1.5C15 2.32842 14.3284 2.99999 13.5 2.99999C12.6716 2.99999 12 2.32842 12 1.5C12 0.671571 12.6716 0 13.5 0C14.3284 0 15 0.671571 15 1.5ZM19.2071 0.792891C18.8166 0.402368 18.1834 0.402368 17.7929 0.792891L12.7929 5.79288C12.4024 6.1834 12.4024 6.81656 12.7929 7.20708C13.1834 7.59761 13.8166 7.59761 14.2071 7.20708L19.2071 2.2071C19.5976 1.81658 19.5976 1.18341 19.2071 0.792891ZM9.60375 2.73865C10.044 2.40522 10.1306 1.77801 9.79722 1.33773C9.46379 0.897458 8.83658 0.810838 8.39631 1.14426L0.396331 7.20272C-0.0439458 7.53615 -0.130565 8.16336 0.202861 8.60364C0.536287 9.04391 1.1635 9.13053 1.60377 8.79711L9.60375 2.73865ZM4.00005 11C4.00005 10.4477 3.55233 9.99997 3.00005 9.99997C2.44777 9.99997 2.00005 10.4477 2.00005 11V17.9999C2.00005 19.1045 2.89548 19.9999 4.00005 19.9999H16C17.1046 19.9999 18 19.1045 18 17.9999V11C18 10.4477 17.5523 9.99997 17 9.99997C16.4477 9.99997 16 10.4477 16 11V17.9999H4.00005V11ZM13 12C13 10.8954 12.1046 9.99997 11 9.99997H9.00003C7.89547 9.99997 7.00004 10.8954 7.00004 12V14C7.00004 15.1045 7.89547 16 9.00003 16H11C12.1046 16 13 15.1045 13 14V12ZM9.00003 12H11V14H9.00003V12ZM18.5 7.99998C19.3284 7.99998 20 7.3284 20 6.49998C20 5.67156 19.3284 4.99998 18.5 4.99998C17.6716 4.99998 17 5.67156 17 6.49998C17 7.3284 17.6716 7.99998 18.5 7.99998Z" fill="#B2B8BF"/>
</svg>
