<svg width="20" height="20" viewBox="0 0 20 20" fill="none" xmlns="http://www.w3.org/2000/svg">
<path fill-rule="evenodd" clip-rule="evenodd" d="M11 3C11 2.44772 11.4477 2 12 2C12.5523 2 13 2.44772 13 3C13 3.19754 12.9437 3.37888 12.8468 3.53245C12.768 3.65727 12.6621 3.76381 12.5377 3.84341C12.383 3.94246 12.1998 4 12 4H11V3ZM9 3V4H8C7.80024 4 7.61698 3.94246 7.46227 3.84341C7.33794 3.76381 7.23205 3.65727 7.15323 3.53245C7.05626 3.37888 7 3.19754 7 3C7 2.44772 7.44772 2 8 2C8.55229 2 9 2.44772 9 3ZM5 3C5 3.34984 5.06024 3.68669 5.171 4H3C1.34315 4 0 5.34315 0 7V8C0 9.30622 0.834808 10.4175 2 10.8293V17C2 18.6569 3.34315 20 5 20H15C16.6569 20 18 18.6569 18 17V10.8293C19.1652 10.4175 20 9.30622 20 8V7C20 5.34315 18.6569 4 17 4H14.829C14.9398 3.68669 15 3.34984 15 3C15 1.34315 13.6569 0 12 0C11.2316 0 10.5308 0.288854 10 0.763896C9.46924 0.288854 8.76836 0 8 0C6.34315 0 5 1.34315 5 3ZM17 6H12H10H8H3C2.44772 6 2 6.44772 2 7V8C2 8.55228 2.44772 9 3 9H4H10H16H17C17.5523 9 18 8.55228 18 8V7C18 6.44772 17.5523 6 17 6ZM9 11V15C9 15.5523 9.44772 16 10 16C10.5523 16 11 15.5523 11 15V11H16V17C16 17.5523 15.5523 18 15 18H5C4.44772 18 4 17.5523 4 17V11H9Z" fill="#21A19A"/>
</svg>
