<svg width="32" height="32" viewBox="0 0 32 32" fill="none" xmlns="http://www.w3.org/2000/svg">
<path fill-rule="evenodd" clip-rule="evenodd" d="M19.5 11C19.5 10.4477 19.0523 10 18.5 10H13C11.8954 10 11 10.8954 11 12V22H16.3077C18.5923 22 21 20.5721 21 18C21 15.4279 18.5923 14 16.3077 14L13 14V12H18.5C19.0523 12 19.5 11.5523 19.5 11ZM13 20V16L16.3077 16C17.9859 16 19 16.9721 19 18C19 19.0279 17.9859 20 16.3077 20H13Z" fill="#B2B8BF"/>
<path fill-rule="evenodd" clip-rule="evenodd" d="M4 16C4 9.37258 9.37258 4 16 4C22.6274 4 28 9.37258 28 16C28 22.6274 22.6274 28 16 28H5C4.44772 28 4 27.5523 4 27V16ZM16 6C10.4772 6 6 10.4772 6 16V26H16C21.5228 26 26 21.5228 26 16C26 10.4772 21.5228 6 16 6Z" fill="#B2B8BF"/>
</svg>
