<svg width="20" height="20" viewBox="0 0 20 20" fill="none" xmlns="http://www.w3.org/2000/svg">
<path fill-rule="evenodd" clip-rule="evenodd" d="M10 0C4.47718 0 2.8797e-05 4.47715 2.8797e-05 10C2.8797e-05 11.8663 0.512197 13.6156 1.40378 15.112L0.0649001 18.6457C-0.0744764 19.0135 0.0147628 19.4289 0.292922 19.7071C0.571081 19.9853 0.986479 20.0745 1.35434 19.9351L4.88806 18.5962C6.38447 19.4878 8.13369 20 10 20C15.5229 20 20 15.5228 20 10C20 4.47715 15.5229 0 10 0ZM2.00003 10C2.00003 5.58172 5.58175 2 10 2C14.4183 2 18 5.58172 18 10C18 14.4183 14.4183 18 10 18C8.35404 18 6.82693 17.504 5.55629 16.6534C5.28747 16.4735 4.94822 16.4347 4.64572 16.5493L2.72173 17.2783L3.45071 15.3543C3.56532 15.0518 3.52653 14.7126 3.34659 14.4437C2.49605 13.1731 2.00003 11.646 2.00003 10Z" fill="#B2B8BF"/>
<path d="M16.6783 11.6622C16.3751 11.1624 15.1117 11.2224 13.8611 11.2416C13.8611 11.2416 13.2242 11.2416 12.0401 11.2416C10.8561 11.2416 7.98341 10.7318 7.0113 8.77164C6.72138 8.18705 6.5775 7.72982 6.55279 7.16487C6.52807 6.59991 6.63654 6.03712 6.86919 5.52321C7.18838 4.89287 7.63952 4.3409 8.19102 3.90595C8.74253 3.471 9.38108 3.16358 10.062 3.0052C8.87959 3.00029 7.7155 3.3013 6.67971 3.87977C6.14482 4.18935 5.65129 4.56725 5.21121 5.00423C4.71301 5.52686 4.3382 6.15735 4.11501 6.84821C3.89182 7.53908 3.82608 8.27231 3.92272 8.99269C4.05253 9.75308 4.35001 10.4739 4.79295 11.1013C5.2359 11.7287 5.81286 12.2465 6.48075 12.6159C8.47325 13.8612 10.8799 13.7794 12.5749 13.7217L12.5916 13.7212H13.539C14.3064 13.7212 14.8464 13.8077 15.0264 14.1825C15.0706 14.3199 15.0706 14.468 15.0264 14.6054C15.0264 14.6726 15.0928 14.6918 15.1496 14.6054C15.8746 13.7808 16.3275 13.0578 16.5986 11.9878L16.6783 11.6622Z" fill="#B2B8BF"/>
<path d="M12.623 16.3937C12.5508 16.0197 11.677 15.9487 10.5919 15.8594C9.77987 15.8028 8.97312 15.6796 8.17874 15.4909C7.12837 15.2396 6.14821 14.7272 5.31775 13.9952C4.4873 13.2632 3.82996 12.3323 3.39904 11.2779C3.29655 11.1086 3.29655 11.1385 3.29655 11.3178C3.52694 12.4686 4.01771 13.5416 4.72589 14.4428C5.43408 15.3439 6.33811 16.0458 7.35883 16.4869C8.44477 16.9562 9.28954 16.9949 9.53546 16.9949C9.78137 16.9949 10.0166 16.9949 10.1167 16.9949C10.9763 16.9672 11.8335 16.7578 12.623 16.3937Z" fill="#B2B8BF"/>
<path d="M8.6079 7.04885C8.51456 6.64035 8.55408 6.17468 8.58824 5.9857C8.62239 5.79671 8.67931 5.66237 8.67931 5.66237C8.83187 5.21608 9.01417 4.93799 9.34271 4.60247C9.67124 4.26695 10.0745 4.01227 10.5202 3.8588C11.0191 3.67434 11.5481 3.58264 12.0806 3.58829H12.2464C12.3821 3.5915 12.5153 3.62449 12.6365 3.6849C13.1286 3.93662 13.6013 4.22402 14.0507 4.54474C13.614 4.52821 13.1772 4.57376 12.7536 4.67999C12.526 4.75423 12.3193 4.88032 12.1499 5.04811C11.9805 5.2159 11.8532 5.42072 11.7783 5.64611C11.7349 5.81385 11.7335 5.98955 11.7743 6.15793C11.8151 6.3263 11.8968 6.48226 12.0124 6.61222C12.4629 6.96772 12.9941 7.20897 13.5601 7.31504C14.126 7.4211 14.7095 7.38878 15.26 7.22087C15.5458 7.12657 15.8037 6.96398 16.0109 6.74747C16.3257 7.31473 16.5588 7.92284 16.7034 8.5541C16.3714 9.09367 15.8615 9.50317 15.26 9.71343C14.2 10.0565 13.0631 10.0923 11.9832 9.81674C10.9033 9.54117 9.92537 8.96567 9.16459 8.158C8.89214 7.83771 8.70123 7.45736 8.6079 7.04885Z" fill="#B2B8BF"/>
</svg>
