<svg width="32" height="32" viewBox="0 0 32 32" fill="none" xmlns="http://www.w3.org/2000/svg">
<path fill-rule="evenodd" clip-rule="evenodd" d="M23 14V11H24.8383C25.417 11 25.6311 11.2105 25.7553 11.411C25.9257 11.6861 26 12.0943 26 12.5V12.6674C26 13.0182 25.9099 13.3765 25.7375 13.6176C25.6011 13.8084 25.3679 14 24.8383 14H23ZM21 17V16H20C19.4477 16 19 15.5523 19 15C19 14.4477 19.4477 14 20 14H21V10C21 9.44772 21.4477 9 22 9C22.039 9 22.0775 9.00223 22.1153 9.00658C22.1532 9.00223 22.1916 9 22.2306 9H24.8383C26.0898 9 26.9565 9.55213 27.4556 10.3579C27.9085 11.0891 28 11.9309 28 12.5V12.6674C28 13.2913 27.8517 14.0994 27.3645 14.7808C26.8412 15.5127 25.9936 16 24.8383 16H23V17H23.9884C24.5406 17 24.9884 17.4477 24.9884 18C24.9884 18.5523 24.5406 19 23.9884 19H23V20C23 20.5523 22.5523 21 22 21C21.4477 21 21 20.5523 21 20V19H20C19.4477 19 19 18.5523 19 18C19 17.4477 19.4477 17 20 17H21Z" fill="#107F8C"/>
<path fill-rule="evenodd" clip-rule="evenodd" d="M12.853 7.6878C14.5478 5.37002 17.2467 4 20.118 4H27C27.5523 4 28 4.44772 28 5C28 5.55228 27.5523 6 27 6H20.118C17.8848 6 15.7856 7.06557 14.4675 8.86829L11.3072 13.1902C11.2436 13.2772 11.1663 13.3534 11.0784 13.4157L7.26471 16.12C6.47141 16.6825 6 17.5947 6 18.5672V21C6 22.1046 6.89543 23 8 23H9.12602C9.57006 21.2748 11.1362 20 13 20C14.8638 20 16.4299 21.2748 16.874 23L27 23C27.5523 23 28 23.4477 28 24C28 24.5523 27.5523 25 27 25L16.874 25C16.4299 26.7252 14.8638 28 13 28C11.1362 28 9.57006 26.7252 9.12602 25H8C5.79086 25 4 23.2091 4 21V18.5672C4 16.9464 4.78568 15.4261 6.10786 14.4885L9.78883 11.8784L12.853 7.6878ZM15 24C15 22.8954 14.1046 22 13 22C11.8954 22 11 22.8954 11 24C11 25.1046 11.8954 26 13 26C14.1046 26 15 25.1046 15 24Z" fill="#107F8C"/>
</svg>
