<svg width="32" height="32" viewBox="0 0 32 32" fill="none" xmlns="http://www.w3.org/2000/svg">
<path d="M20.0625 13.4641C20.6148 13.4641 21.0625 13.9118 21.0625 14.4641V14.9999H22.0625C22.6148 14.9999 23.0625 15.4476 23.0625 15.9999C23.0625 16.5522 22.6148 16.9999 22.0625 16.9999H21.0625V21C21.0625 21.5523 20.6148 22 20.0625 22C19.5102 22 19.0625 21.5523 19.0625 21V16.9999C18.5102 16.9999 18.0625 16.5522 18.0625 15.9999C18.0625 15.4476 18.5102 14.9999 19.0625 14.9999V14.4641C19.0625 13.9118 19.5102 13.4641 20.0625 13.4641Z" fill="#107F8C"/>
<path fill-rule="evenodd" clip-rule="evenodd" d="M9 21C9 21.5523 9.44772 22 10 22C10.5523 22 11 21.5523 11 21V17.4649C11.5883 17.8052 12.2714 18 13 18C15.2091 18 17 16.2091 17 14C17 11.7909 15.2091 10 13 10C12.2346 10 11.5193 10.215 10.9114 10.5879C10.7544 10.2412 10.4054 10 10 10C9.44772 10 9 10.4477 9 11V21ZM11 14C11 12.8954 11.8954 12 13 12C14.1046 12 15 12.8954 15 14C15 15.1046 14.1046 16 13 16C11.8954 16 11 15.1046 11 14Z" fill="#107F8C"/>
<path fill-rule="evenodd" clip-rule="evenodd" d="M10 4C6.68629 4 4 6.68629 4 10V22C4 25.3137 6.68629 28 10 28H22C25.3137 28 28 25.3137 28 22V10C28 6.68629 25.3137 4 22 4H10ZM22 6H10C7.79086 6 6 7.79086 6 10V22C6 24.2091 7.79086 26 10 26H22C24.2091 26 26 24.2091 26 22V10C26 7.79086 24.2091 6 22 6Z" fill="#107F8C"/>
</svg>
