<svg width="20" height="20" viewBox="0 0 20 20" fill="none" xmlns="http://www.w3.org/2000/svg">
<path fill-rule="evenodd" clip-rule="evenodd" d="M0 5C0 3.34315 1.34315 2 3 2H17C18.6569 2 20 3.34315 20 5V14C20 15.6569 18.6569 17 17 17H3C1.34315 17 0 15.6569 0 14V5ZM3 4C2.44772 4 2 4.44772 2 5V14C2 14.5523 2.44772 15 3 15H17C17.5523 15 18 14.5523 18 14V5C18 4.44772 17.5523 4 17 4H3Z" fill="#21A19A"/>
<path fill-rule="evenodd" clip-rule="evenodd" d="M4 7C4 6.44772 4.44772 6 5 6H15C15.5523 6 16 6.44772 16 7C16 7.55228 15.5523 8 15 8H5C4.44772 8 4 7.55228 4 7Z" fill="#21A19A"/>
</svg>
