<svg width="32" height="32" viewBox="0 0 32 32" fill="none" xmlns="http://www.w3.org/2000/svg">
<path fill-rule="evenodd" clip-rule="evenodd" d="M8 5C6.34315 5 5 6.34315 5 8V19C5 20.6569 6.34315 22 8 22H15V25H11C10.4477 25 10 25.4477 10 26C10 26.5523 10.4477 27 11 27H16H21C21.5523 27 22 26.5523 22 26C22 25.4477 21.5523 25 21 25H17V22H24C25.6569 22 27 20.6569 27 19V8C27 6.34315 25.6569 5 24 5H8ZM16 20H24C24.5523 20 25 19.5523 25 19V8C25 7.44772 24.5523 7 24 7H8C7.44772 7 7 7.44772 7 8V19C7 19.5523 7.44772 20 8 20H16ZM20 17C20 17.5523 20.4477 18 21 18C21.5523 18 22 17.5523 22 17V10C22 9.44772 21.5523 9 21 9C20.4477 9 20 9.44772 20 10V17ZM16 18C15.4477 18 15 17.5523 15 17V12C15 11.4477 15.4477 11 16 11C16.5523 11 17 11.4477 17 12V17C17 17.5523 16.5523 18 16 18ZM10 17C10 17.5523 10.4477 18 11 18C11.5523 18 12 17.5523 12 17V14C12 13.4477 11.5523 13 11 13C10.4477 13 10 13.4477 10 14V17Z" fill="#B2B8BF"/>
</svg>
