<svg width="20" height="20" viewBox="0 0 20 20" fill="none" xmlns="http://www.w3.org/2000/svg">
<path fill-rule="evenodd" clip-rule="evenodd" d="M14.5 0C12.0179 0 10 2.01771 10 4.49993C10 6.98226 12.0179 9 14.5 9C15.3796 9 16.2009 8.74661 16.8947 8.30896L18.2929 9.70711C18.6834 10.0976 19.3166 10.0976 19.7071 9.70711C20.0976 9.31658 20.0976 8.68342 19.7071 8.29289L18.309 6.89474C18.7466 6.20089 19 5.37958 19 4.49993C19 2.01771 16.9821 0 14.5 0ZM12 4.49993C12 3.12235 13.1224 2 14.5 2C15.8776 2 17 3.12235 17 4.49993C17 5.87767 15.8776 7 14.5 7C13.1224 7 12 5.87767 12 4.49993Z" fill="#21A19A"/>
<path d="M3 4C2.44772 4 2 4.44772 2 5V13C2 13.5523 2.44772 14 3 14H15C15.5523 14 16 13.5523 16 13V12C16 11.4477 16.4477 11 17 11C17.5523 11 18 11.4477 18 12V13C18 14.6569 16.6569 16 15 16H10V18H13C13.5523 18 14 18.4477 14 19C14 19.5523 13.5523 20 13 20H5C4.44771 20 4 19.5523 4 19C4 18.4477 4.44771 18 5 18H8V16H3C1.34315 16 0 14.6569 0 13V5C0 3.34315 1.34315 2 3 2H8C8.55229 2 9 2.44772 9 3C9 3.55228 8.55229 4 8 4H3Z" fill="#21A19A"/>
<path d="M9 12C8.44771 12 8 11.5523 8 11V8C8 7.44772 8.44771 7 9 7C9.55229 7 10 7.44772 10 8V11C10 11.5523 9.55229 12 9 12Z" fill="#21A19A"/>
<path d="M4 11C4 11.5523 4.44772 12 5 12C5.55228 12 6 11.5523 6 11V8C6 7.44772 5.55228 7 5 7C4.44772 7 4 7.44772 4 8V11Z" fill="#21A19A"/>
<path d="M12 11C12 11.5523 12.4477 12 13 12C13.5523 12 14 11.5523 14 11C14 10.4477 13.5523 10 13 10C12.4477 10 12 10.4477 12 11Z" fill="#21A19A"/>
</svg>
