<svg width="20" height="20" viewBox="0 0 20 20" fill="none" xmlns="http://www.w3.org/2000/svg">
<path fill-rule="evenodd" clip-rule="evenodd" d="M0.0835872 3.89304C-0.394012 2.15299 1.22652 0.631898 2.91553 1.07893L11.552 3.36477C13.7441 3.94495 14.5156 6.66607 12.885 8.27776C12.4922 8.666 11.8591 8.66231 11.4708 8.26952C11.0826 7.87673 11.0863 7.24357 11.4791 6.85533C11.9828 6.35743 11.7721 5.4919 11.0403 5.2982L2.40381 3.01236C2.13487 2.94118 1.96213 3.18105 2.01226 3.36367L4.34003 11.8445C4.52779 12.5286 5.43009 12.7919 5.9718 12.2634C6.36712 11.8777 7.00024 11.8855 7.3859 12.2809C7.77157 12.6762 7.76375 13.3093 7.36843 13.695C5.76186 15.2623 3.01169 14.5611 2.41136 12.3739L0.0835872 3.89304ZM6.559 7.45752C6.94596 7.06346 7.5791 7.05771 7.97316 7.44466L11.2107 10.6239C11.4792 10.8875 11.9218 10.8875 12.1902 10.6239C13.2366 9.59631 14.9259 9.59631 15.9723 10.6239L19.7019 14.2863C20.0959 14.6732 20.1017 15.3064 19.7147 15.7004C19.3278 16.0945 18.6946 16.1002 18.3006 15.7133L14.571 12.0509C14.3026 11.7873 13.8599 11.7873 13.5915 12.0509C12.5451 13.0785 10.8559 13.0785 9.80942 12.0509L6.57186 8.87167C6.1778 8.48472 6.17205 7.85158 6.559 7.45752Z" fill="#107F8C"/>
</svg>
