<svg width="20" height="20" viewBox="0 0 20 20" fill="none" xmlns="http://www.w3.org/2000/svg">
<path fill-rule="evenodd" clip-rule="evenodd" d="M7.00794 13.2608C6.99142 13.2609 6.97499 13.2606 6.95866 13.26L6.92838 13.26L6.92838 13.2582C6.41298 13.2209 6.0042 12.7832 6.00003 12.2453L5.99203 11.2129H5C4.44772 11.2129 4 10.7546 4 10.1892C4 9.62386 4.44772 9.16555 5 9.16555H5.97615L5.96822 8.1419H5C4.44772 8.1419 4 7.6836 4 7.11825C4 6.55291 4.44772 6.0946 5 6.0946H5.95234L5.9286 3.03243C5.92421 2.4671 6.36836 2.00518 6.92063 2.00069C6.93221 2.00059 6.94375 2.0007 6.95524 2.00101C6.97009 2.00034 6.98502 2 7.00003 2H10.0003C10.6373 2 11.4585 2.15758 12.1554 2.60341C12.8959 3.07716 13.5005 3.89185 13.5005 5.07094C13.5005 5.74619 13.3022 6.30192 12.9937 6.74256C13.8691 7.35935 14.5 8.38435 14.5 9.67739C14.5 11.8456 12.726 13.2602 11 13.2602L7.04097 13.26C7.03001 13.2604 7.01899 13.2607 7.00794 13.2608ZM11.5005 5.07094C11.5005 5.42734 11.355 5.6363 11.0954 5.80232C10.7923 5.99627 10.3634 6.09459 10.0003 6.0946L7.9524 6.09459L7.93653 4.0473H10.0003C10.3634 4.0473 10.7923 4.14562 11.0955 4.33957C11.355 4.50558 11.5005 4.71454 11.5005 5.07094ZM7.99209 11.2127L7.96828 8.14193L11 8.14193C11.7578 8.14193 12.5 8.77463 12.5 9.67739C12.5 10.5801 11.7578 11.2129 11 11.2129L7.99209 11.2127Z" fill="#B2B8BF"/>
<path d="M17.3 10.5987C16.9686 10.1464 16.3418 10.0548 15.9 10.394C15.4582 10.7332 15.3686 11.3748 15.7 11.8271L16.75 13.2602L14.5 16.3312H3V11.2129C3 10.6476 2.55228 10.1893 2 10.1893C1.44772 10.1893 1 10.6476 1 11.2129V16.3312C1 17.4619 1.89543 18.3785 3 18.3785H14.5C15.1295 18.3785 15.7223 18.0751 16.1 17.5596L18.35 14.4886C18.8833 13.7607 18.8833 12.7598 18.35 12.0318L17.3 10.5987Z" fill="#B2B8BF"/>
</svg>
