<svg width="20" height="20" viewBox="0 0 20 20" fill="none" xmlns="http://www.w3.org/2000/svg">
<path fill-rule="evenodd" clip-rule="evenodd" d="M11.9997 1.99995C10.3053 1.99995 8.85464 3.05385 8.27212 4.54547L7.9435 5.38693L7.07309 5.14523C6.73269 5.0507 6.37301 4.99986 5.99984 4.99986C3.79076 4.99986 1.99995 6.79068 1.99995 8.99976C1.99995 9.72997 2.19471 10.4117 2.53445 10.999C2.81098 11.477 2.64763 12.0887 2.16958 12.3653C1.69153 12.6418 1.07982 12.4784 0.803283 12.0004C0.292198 11.1169 0 10.0909 0 8.99976C0 5.68614 2.68622 2.99992 5.99984 2.99992C6.26197 2.99992 6.52052 3.01679 6.77438 3.04956C7.80392 1.22994 9.75721 0 11.9997 0C15.3132 0 17.9994 2.6861 17.9995 5.99962C19.2125 6.91075 19.9995 8.36285 19.9995 9.99973C19.9995 10.552 19.5518 10.9997 18.9995 10.9997C18.4472 10.9997 17.9995 10.552 17.9995 9.99973C17.9995 8.88238 17.3891 7.90633 16.4788 7.38906L15.9111 7.06645L15.9782 6.4169C15.9923 6.28011 15.9996 6.14099 15.9996 5.99984C15.9996 3.79076 14.2088 1.99995 11.9997 1.99995Z" fill="#B2B8BF"/>
<path d="M12.816 12.0513C13.3399 12.2259 13.623 12.7922 13.4484 13.3161L11.4485 19.316C11.2738 19.8399 10.7075 20.1231 10.1836 19.9484C9.65965 19.7738 9.3765 19.2075 9.55114 18.6835L11.5511 12.6837C11.7257 12.1598 12.292 11.8766 12.816 12.0513Z" fill="#B2B8BF"/>
<path d="M7.73973 13.3272C7.36824 12.9186 6.7358 12.8885 6.32716 13.26L3.32724 15.9872C3.10721 16.1872 2.98762 16.4747 3.00092 16.7718C3.01422 17.0689 3.15903 17.3446 3.39605 17.5241L6.39597 19.7968C6.83618 20.1303 7.46339 20.0438 7.79688 19.6036C8.13038 19.1634 8.04386 18.5362 7.60365 18.2027L5.56346 16.6571L7.67247 14.7398C8.08111 14.3683 8.11123 13.7359 7.73973 13.3272Z" fill="#B2B8BF"/>
<path d="M16.6723 13.26C16.2637 12.8885 15.6313 12.9186 15.2598 13.3272C14.8883 13.7359 14.9184 14.3683 15.327 14.7398L17.436 16.6571L15.3958 18.2027C14.9556 18.5362 14.8691 19.1634 15.2026 19.6036C15.5361 20.0438 16.1633 20.1303 16.6035 19.7968L19.6034 17.5241C19.8405 17.3446 19.9853 17.0689 19.9986 16.7718C20.0119 16.4747 19.8923 16.1872 19.6723 15.9872L16.6723 13.26Z" fill="#B2B8BF"/>
</svg>
