<svg width="32" height="32" viewBox="0 0 32 32" fill="none" xmlns="http://www.w3.org/2000/svg">
<path d="M13.832 10.4454C13.5257 9.98588 12.9048 9.8617 12.4453 10.1681C11.9858 10.4744 11.8616 11.0953 12.1679 11.5548L15 15.8029V16.0001H13.5C12.9477 16.0001 12.5 16.4478 12.5 17.0001C12.5 17.5524 12.9477 18.0001 13.5 18.0001H15V18.5001H13.5C12.9477 18.5001 12.5 18.9478 12.5 19.5001C12.5 20.0524 12.9477 20.5001 13.5 20.5001H15V21.0001C15 21.5524 15.4477 22.0001 16 22.0001C16.5523 22.0001 17 21.5524 17 21.0001V20.5001H18.5C19.0523 20.5001 19.5 20.0524 19.5 19.5001C19.5 18.9478 19.0523 18.5001 18.5 18.5001H17V18.0001H18.5C19.0523 18.0001 19.5 17.5524 19.5 17.0001C19.5 16.4478 19.0523 16.0001 18.5 16.0001H17V15.8029L19.8321 11.5548C20.1384 11.0953 20.0142 10.4744 19.5547 10.1681C19.0952 9.8617 18.4743 9.98588 18.1679 10.4454L16 13.6973L13.832 10.4454Z" fill="#21A19A"/>
<path fill-rule="evenodd" clip-rule="evenodd" d="M10 4C6.68629 4 4 6.68629 4 10V22C4 25.3137 6.68629 28 10 28H22C25.3137 28 28 25.3137 28 22V10C28 6.68629 25.3137 4 22 4H10ZM22 6H10C7.79086 6 6 7.79086 6 10V22C6 24.2091 7.79086 26 10 26H22C24.2091 26 26 24.2091 26 22V10C26 7.79086 24.2091 6 22 6Z" fill="#21A19A"/>
</svg>
