<svg width="20" height="20" viewBox="0 0 20 20" fill="none" xmlns="http://www.w3.org/2000/svg">
<path fill-rule="evenodd" clip-rule="evenodd" d="M5.5 9.5C5.5 7.01472 7.51472 5 10 5C12.4853 5 14.5 7.01472 14.5 9.5C14.5 11.9853 12.4853 14 10 14C7.51472 14 5.5 11.9853 5.5 9.5ZM10 7C8.61929 7 7.5 8.11929 7.5 9.5C7.5 10.8807 8.61929 12 10 12C11.3807 12 12.5 10.8807 12.5 9.5C12.5 8.11929 11.3807 7 10 7Z" fill="#B2B8BF"/>
<path fill-rule="evenodd" clip-rule="evenodd" d="M1 3C1 1.34315 2.34315 0 4 0H16C17.6569 0 19 1.34315 19 3V15C19 16.6569 17.6569 18 16 18H15.5V19C15.5 19.5523 15.0523 20 14.5 20C13.9477 20 13.5 19.5523 13.5 19V18H6.5V19C6.5 19.5523 6.05228 20 5.5 20C4.94772 20 4.5 19.5523 4.5 19V18H4C2.34315 18 1 16.6569 1 15V3ZM4 2C3.44772 2 3 2.44772 3 3V15C3 15.5523 3.44772 16 4 16H16C16.5523 16 17 15.5523 17 15V3C17 2.44772 16.5523 2 16 2H4Z" fill="#B2B8BF"/>
</svg>
