<svg width="20" height="20" viewBox="0 0 20 20" fill="none" xmlns="http://www.w3.org/2000/svg">
<path d="M10.7526 1.34152C10.5138 1.06863 10.1461 0.946382 9.79143 1.02203C9.4368 1.09768 9.15091 1.35937 9.04427 1.70594L6.03556 11.4843L3.96157 4.2253C3.85106 3.83851 3.51954 3.55559 3.12018 3.50727C2.72082 3.45894 2.33139 3.65462 2.13181 4.00389L0.131806 7.50389C-0.142204 7.9834 0.0243927 8.59426 0.50391 8.86827C0.983428 9.14228 1.59428 8.97568 1.86829 8.49616L2.69062 7.05709L5.03853 15.2747C5.16015 15.7005 5.54723 15.9955 5.98995 16C6.43267 16.0044 6.82562 15.7173 6.95583 15.2941L10.4284 4.00819L12.7475 6.65853C13.0559 7.01103 13.5677 7.10221 13.9789 6.87792L19.4789 3.87792C19.9638 3.61346 20.1424 3.00602 19.8779 2.52117C19.6135 2.03633 19.006 1.85767 18.5212 2.12213L13.7248 4.73833L10.7526 1.34152Z" fill="#21A19A"/>
<path d="M15.6594 12.0733C14.0431 11.7091 12.4376 12.7242 12.0734 14.3405C11.7092 15.9569 12.7243 17.5624 14.3406 17.9265C15.957 18.2907 17.5625 17.2756 17.9267 15.6593C18.0481 15.1205 18.5832 14.7822 19.122 14.9036C19.6608 15.025 19.9992 15.5601 19.8778 16.0989C19.2708 18.7928 16.5949 20.4846 13.9011 19.8776C11.2072 19.2707 9.51536 16.5948 10.1223 13.9009C10.7293 11.207 13.4051 9.51523 16.099 10.1222C16.6378 10.2436 16.9762 10.7788 16.8548 11.3175C16.7334 11.8563 16.1982 12.1947 15.6594 12.0733Z" fill="#21A19A"/>
<path d="M18.7682 12.3598C19.1218 12.7841 19.0645 13.4147 18.6402 13.7682L15.6402 16.2682C15.2429 16.5994 14.6586 16.5728 14.2929 16.2071L13.2929 15.2071C12.9024 14.8166 12.9024 14.1834 13.2929 13.7929C13.6834 13.4024 14.3166 13.4024 14.7071 13.7929L15.0614 14.1472L17.3598 12.2318C17.7841 11.8782 18.4147 11.9356 18.7682 12.3598Z" fill="#21A19A"/>
</svg>
