<svg width="32" height="32" viewBox="0 0 32 32" fill="none" xmlns="http://www.w3.org/2000/svg">
<path fill-rule="evenodd" clip-rule="evenodd" d="M12 10.5605C12 10.0083 12.4477 9.56055 13 9.56055H20.0268C20.5791 9.56055 21.0268 10.0083 21.0268 10.5605C21.0268 11.1128 20.5791 11.5605 20.0268 11.5605H18.5365C18.6971 11.8603 18.8199 12.1934 18.8987 12.5605L19.8787 12.5605C20.498 12.5605 21 13.0083 21 13.5605C21 14.1128 20.498 14.5605 19.8787 14.5605H18.8987C18.7937 15.0503 18.6101 15.4794 18.3633 15.8496C17.9649 16.4472 17.4408 16.8332 16.9472 17.08C16.4575 17.3248 15.9799 17.4423 15.6331 17.5001C15.5439 17.5149 15.4616 17.5261 15.388 17.5346L18.2071 20.3537C18.5976 20.7442 18.5976 21.3774 18.2071 21.7679C17.8166 22.1584 17.1834 22.1584 16.7929 21.7679L12.2929 17.2679C12.1714 17.1464 12.0877 17.0015 12.0418 16.8476C12.0146 16.7567 12 16.6603 12 16.5605C12 16.0083 12.4477 15.5605 13 15.5605H14.9939L15.0004 15.5604C15.0106 15.56 15.0301 15.5592 15.0577 15.5572C15.1131 15.5533 15.1988 15.5449 15.3044 15.5273C15.5201 15.4913 15.7925 15.4213 16.0528 15.2911C16.3092 15.1629 16.5351 14.9864 16.6992 14.7402C16.7348 14.6868 16.7694 14.6273 16.8018 14.5605H13.1212C12.502 14.5605 12 14.1128 12 13.5605C12 13.0083 12.502 12.5605 13.1212 12.5605H16.8018C16.7694 12.4938 16.7348 12.4343 16.6992 12.3809C16.5351 12.1347 16.3092 11.9582 16.0528 11.83C15.7925 11.6998 15.5201 11.6298 15.3044 11.5938C15.1988 11.5762 15.1131 11.5678 15.0577 11.5639C15.0301 11.5619 15.0106 11.5611 15.0004 11.5607L14.9939 11.5605H13C12.4477 11.5605 12 11.1128 12 10.5605Z" fill="#B2B8BF"/>
<path fill-rule="evenodd" clip-rule="evenodd" d="M10 4C6.68629 4 4 6.68629 4 10V22C4 25.3137 6.68629 28 10 28H22C25.3137 28 28 25.3137 28 22V10C28 6.68629 25.3137 4 22 4H10ZM22 6H10C7.79086 6 6 7.79086 6 10V22C6 24.2091 7.79086 26 10 26H22C24.2091 26 26 24.2091 26 22V10C26 7.79086 24.2091 6 22 6Z" fill="#B2B8BF"/>
</svg>
