<svg width="32" height="32" viewBox="0 0 32 32" fill="none" xmlns="http://www.w3.org/2000/svg">
<path fill-rule="evenodd" clip-rule="evenodd" d="M16 3C8.8203 3 3 8.8203 3 16C3 23.1797 8.8203 29 16 29C23.1797 29 29 23.1797 29 16C29 8.8203 23.1797 3 16 3ZM10.6366 6.39387C12.2233 5.50607 14.0526 5 16 5C17.9475 5 19.7767 5.50609 21.3635 6.39392L19.1243 8.63307C18.1644 8.22548 17.1086 8 16 8C14.8915 8 13.8356 8.22546 12.8758 8.63302L10.6366 6.39387ZM6.394 10.6364C5.50612 12.2232 5 14.0525 5 16C5 17.9475 5.50608 19.7767 6.39389 21.3634L8.63305 19.1243C8.22547 18.1644 8 17.1085 8 16C8 14.8914 8.22549 13.8355 8.63312 12.8756L6.394 10.6364ZM7.54684 8.96081L9.68023 11.0942C10.0908 10.566 10.5662 10.0907 11.0944 9.68008L8.961 7.54668C8.44799 7.97433 7.9745 8.4478 7.54684 8.96081ZM10.6365 25.606C12.2232 26.4939 14.0525 27 16 27C17.9475 27 19.7769 26.4939 21.3636 25.606L19.1245 23.3669C18.1646 23.7745 17.1086 24 16 24C14.8914 24 13.8355 23.7745 12.8756 23.3669L10.6365 25.606ZM24.4533 23.039C24.0257 23.552 23.5522 24.0255 23.0392 24.4531L20.9058 22.3197C21.434 21.9091 21.9093 21.4338 22.3199 20.9056L24.4533 23.039ZM27 16C27 17.9474 26.4939 19.7767 25.6061 21.3634L23.367 19.1242C23.7745 18.1644 24 17.1085 24 16C24 14.8914 23.7745 13.8355 23.3669 12.8757L25.6061 10.6365C26.4939 12.2233 27 14.0525 27 16ZM8.96088 24.4532L11.0943 22.3198C10.5661 21.9092 10.0907 21.4338 9.68012 20.9056L7.54671 23.039C7.97437 23.5521 8.44785 24.0255 8.96088 24.4532ZM23.0391 7.54674C23.5521 7.97441 24.0256 8.4479 24.4532 8.96092L22.3198 11.0943C21.9092 10.5661 21.4339 10.0908 20.9057 9.68015L23.0391 7.54674ZM10 16C10 12.6863 12.6863 10 16 10C19.3137 10 22 12.6863 22 16C22 19.3137 19.3137 22 16 22C12.6863 22 10 19.3137 10 16Z" fill="#21A19A"/>
</svg>
