<svg width="32" height="32" viewBox="0 0 32 32" fill="none" xmlns="http://www.w3.org/2000/svg">
<path fill-rule="evenodd" clip-rule="evenodd" d="M13 9C10.2386 9 8 11.2386 8 14C8 16.7614 10.2386 19 13 19C15.7614 19 18 16.7614 18 14C18 11.2386 15.7614 9 13 9ZM10 14C10 12.3431 11.3431 11 13 11C14.6569 11 16 12.3431 16 14C16 15.6569 14.6569 17 13 17C11.3431 17 10 15.6569 10 14Z" fill="#B2B8BF"/>
<path d="M12.9155 22.6344C11.2336 22.6344 9.59799 22.0647 8.30338 21.0191C6.83147 22.2826 6 24.0735 6 25.9368C6 26.2838 6.03082 26.6414 6.09186 27H12.9155C13.4678 27 13.9155 27.4477 13.9155 28C13.9155 28.5523 13.4678 29 12.9155 29H6.01631C5.12926 29 4.31607 28.3876 4.14474 27.473C4.04967 26.9636 4 26.4464 4 25.9368C4 23.4456 5.12365 21.0842 7.0598 19.4512L7.06126 19.45C7.76898 18.8554 8.81023 18.85 9.52432 19.4341L9.5262 19.4356C10.4628 20.2054 11.6665 20.6344 12.9155 20.6344C13.4678 20.6344 13.9155 21.0821 13.9155 21.6344C13.9155 22.1867 13.4678 22.6344 12.9155 22.6344Z" fill="#B2B8BF"/>
<path d="M16 2C16.5523 2 17 2.44772 17 3V3.03059C21.0518 3.27976 24.1767 5.01065 26.3123 6.71913C27.4665 7.64252 28.3404 8.56564 28.9279 9.26072C29.2221 9.60876 29.4457 9.90112 29.598 10.1098C29.6741 10.2142 29.7326 10.2978 29.7731 10.3572C29.7934 10.3869 29.8092 10.4105 29.8206 10.4277L29.8343 10.4485L29.8386 10.4551L29.8408 10.4585C30.0547 10.7912 30.0528 11.2196 29.8353 11.55C29.6177 11.8803 29.2259 12.0514 28.8357 11.9864L23.0807 11.0272L20.3163 11.9487C19.7924 12.1233 19.2261 11.8402 19.0514 11.3162C18.8768 10.7923 19.16 10.226 19.6839 10.0513L22.6839 9.05132C22.8386 8.99974 23.0036 8.98679 23.1645 9.01361L26.4979 9.56917C26.0916 9.16073 25.6128 8.72076 25.0629 8.28087C22.996 6.62735 19.9597 5 16.0001 5C9.9643 5 6.06428 8.79166 4.52599 10.6397C4.29027 10.9229 4.1146 11.1551 3.99997 11.3133C3.94268 11.3923 3.90072 11.4528 3.87422 11.4917C3.86097 11.5111 3.85159 11.5252 3.8461 11.5335L3.8412 11.5409C3.54246 12.0052 2.92382 12.1397 2.45937 11.8412C1.9948 11.5425 1.86029 10.9238 2.15894 10.4592L2.15999 10.4576L2.16143 10.4554L2.16543 10.4492L2.17799 10.4301C2.18839 10.4144 2.20284 10.3928 2.22132 10.3657C2.25827 10.3114 2.3114 10.2351 2.3806 10.1396C2.51896 9.94869 2.72193 9.68089 2.98882 9.36025C4.5883 7.43866 8.65407 3.42011 15 3.03053V3C15 2.44772 15.4477 2 16 2Z" fill="#B2B8BF"/>
<path d="M18 19.1055C18.5523 19.1055 19 19.5532 19 20.1055V24.5791C19 25.2935 19.2321 25.7391 19.4966 26.0036C19.7705 26.2775 20.1421 26.4212 20.5263 26.4212C20.9105 26.4212 21.2821 26.2775 21.556 26.0036C21.8205 25.7391 22.0526 25.2935 22.0526 24.5791C22.0526 24.0268 22.5003 23.5791 23.0526 23.5791C23.6049 23.5791 24.0526 24.0268 24.0526 24.5791C24.0526 25.7594 23.6531 26.7349 22.9702 27.4178C22.2968 28.0913 21.4052 28.4212 20.5263 28.4212C19.6474 28.4212 18.7558 28.0913 18.0824 27.4178C17.3995 26.7349 17 25.7594 17 24.5791V20.1055C17 19.5532 17.4477 19.1055 18 19.1055Z" fill="#B2B8BF"/>
</svg>
