<svg width="32" height="32" viewBox="0 0 32 32" fill="none" xmlns="http://www.w3.org/2000/svg">
<path d="M28 7C28 5.34315 26.6569 4 25 4H7C5.34315 4 4 5.34315 4 7V19C4 20.6569 5.34315 22 7 22H14.3077C14.86 22 15.3077 21.5523 15.3077 21C15.3077 20.4477 14.86 20 14.3077 20H7C6.44772 20 6 19.5523 6 19V7C6 6.44771 6.44772 6 7 6H25C25.5523 6 26 6.44772 26 7V14C26 14.5523 26.4477 15 27 15C27.5523 15 28 14.5523 28 14V7Z" fill="#B2B8BF"/>
<path d="M9 11C9 11.5523 9.44772 12 10 12H22C22.5523 12 23 11.5523 23 11C23 10.4477 22.5523 10 22 10H10C9.44772 10 9 10.4477 9 11Z" fill="#B2B8BF"/>
<path d="M28 25.5C28 26.3284 27.3284 27 26.5 27C25.6716 27 25 26.3284 25 25.5C25 24.6716 25.6716 24 26.5 24C27.3284 24 28 24.6716 28 25.5Z" fill="#B2B8BF"/>
<path d="M20.5 21C21.3284 21 22 20.3284 22 19.5C22 18.6716 21.3284 18 20.5 18C19.6716 18 19 18.6716 19 19.5C19 20.3284 19.6716 21 20.5 21Z" fill="#B2B8BF"/>
<path d="M27.7071 19.7071C28.0976 19.3166 28.0976 18.6834 27.7071 18.2929C27.3166 17.9024 26.6834 17.9024 26.2929 18.2929L19.2929 25.2929C18.9024 25.6834 18.9024 26.3166 19.2929 26.7071C19.6834 27.0976 20.3166 27.0976 20.7071 26.7071L27.7071 19.7071Z" fill="#B2B8BF"/>
</svg>
