<svg width="20" height="20" viewBox="0 0 20 20" fill="none" xmlns="http://www.w3.org/2000/svg">
<path fill-rule="evenodd" clip-rule="evenodd" d="M15 1.5C15 2.32843 14.3284 3 13.5 3C12.6716 3 12 2.32843 12 1.5C12 0.671573 12.6716 0 13.5 0C14.3284 0 15 0.671573 15 1.5ZM19.2071 0.792893C18.8166 0.402369 18.1834 0.402369 17.7929 0.792893L12.7929 5.79289C12.4024 6.18342 12.4024 6.81658 12.7929 7.20711C13.1834 7.59763 13.8166 7.59763 14.2071 7.20711L19.2071 2.20711C19.5976 1.81658 19.5976 1.18342 19.2071 0.792893ZM9.60372 2.73866C10.044 2.40523 10.1306 1.77802 9.79719 1.33774C9.46376 0.89746 8.83655 0.81084 8.39627 1.14427L0.396271 7.20275C-0.0440069 7.53617 -0.130627 8.16339 0.2028 8.60366C0.536227 9.04394 1.16344 9.13056 1.60372 8.79713L9.60372 2.73866ZM4 11C4 10.4477 3.55228 10 3 10C2.44772 10 2 10.4477 2 11V18C2 19.1046 2.89543 20 4 20H16C17.1046 20 18 19.1046 18 18V11C18 10.4477 17.5523 10 17 10C16.4477 10 16 10.4477 16 11V18H4V11ZM13 12C13 10.8954 12.1046 10 11 10H9C7.89543 10 7 10.8954 7 12V14C7 15.1046 7.89543 16 9 16H11C12.1046 16 13 15.1046 13 14V12ZM9 12H11V14H9V12ZM18.5 8C19.3284 8 20 7.32843 20 6.5C20 5.67157 19.3284 5 18.5 5C17.6716 5 17 5.67157 17 6.5C17 7.32843 17.6716 8 18.5 8Z" fill="#21A19A"/>
</svg>
