<svg width="20" height="20" viewBox="0 0 20 20" fill="none" xmlns="http://www.w3.org/2000/svg">
<path d="M3 3C3 2.44772 3.44772 2 4 2H11C11.5523 2 12 1.55228 12 1C12 0.447715 11.5523 0 11 0H4C2.34315 0 1 1.34315 1 3V17C1 18.6569 2.34315 20 4 20H14C15.6569 20 17 18.6569 17 17V14C17 13.4477 16.5523 13 16 13C15.4477 13 15 13.4477 15 14V17C15 17.5523 14.5523 18 14 18H4C3.44772 18 3 17.5523 3 17V3Z" fill="#107F8C"/>
<path d="M6 9C5.44772 9 5 9.44771 5 10C5 10.5523 5.44772 11 6 11H9.5C10.0523 11 10.5 10.5523 10.5 10C10.5 9.44771 10.0523 9 9.5 9H6Z" fill="#107F8C"/>
<path d="M6 13C5.44772 13 5 13.4477 5 14C5 14.5523 5.44772 15 6 15H10.5C11.0523 15 11.5 14.5523 11.5 14C11.5 13.4477 11.0523 13 10.5 13H6Z" fill="#107F8C"/>
<path d="M16.2526 0.341509C15.8889 -0.0741276 15.2571 -0.116245 14.8415 0.247437C14.4259 0.611119 14.3837 1.24288 14.7474 1.65852L16.7963 4.00005H10C9.44772 4.00005 9 4.44777 9 5.00005C9 5.55234 9.44772 6.00005 10 6.00005H16.7962L14.7474 8.34151C14.3837 8.75715 14.4259 9.38891 14.8415 9.75259C15.2571 10.1163 15.8889 10.0742 16.2526 9.65852L19.7526 5.65852C20.0825 5.28149 20.0825 4.71853 19.7526 4.34151L16.2526 0.341509Z" fill="#107F8C"/>
</svg>
