<svg width="32" height="33" viewBox="0 0 32 33" fill="none" xmlns="http://www.w3.org/2000/svg">
<path d="M15.9663 3.5C15.414 3.5 14.9663 3.94772 14.9663 4.5C14.9663 5.05228 15.414 5.5 15.9663 5.5C22.012 5.5 26.9325 10.4201 26.9325 16.466C26.9325 17.0183 27.3802 17.466 27.9325 17.466C28.4848 17.466 28.9325 17.0183 28.9325 16.466C28.9325 9.3155 23.1165 3.5 15.9663 3.5Z" fill="#B2B8BF"/>
<path d="M5 16.466C5 15.9137 4.55228 15.466 4 15.466C3.44772 15.466 3 15.9137 3 16.466C3 23.6169 8.81593 29.4325 15.9662 29.4325C16.5185 29.4325 16.9662 28.9848 16.9662 28.4325C16.9662 27.8802 16.5185 27.4325 15.9662 27.4325C9.92048 27.4325 5 22.5124 5 16.466Z" fill="#B2B8BF"/>
<path fill-rule="evenodd" clip-rule="evenodd" d="M6.46344 10.5796V11.5796H5.46344C4.91115 11.5796 4.46344 12.0274 4.46344 12.5796C4.46344 13.1319 4.91115 13.5796 5.46344 13.5796H6.46344V14.5796C6.46344 15.1319 6.91115 15.5796 7.46344 15.5796C8.01572 15.5796 8.46344 15.1319 8.46344 14.5796V13.5796H9.45179C10.0041 13.5796 10.4518 13.1319 10.4518 12.5796C10.4518 12.0274 10.0041 11.5796 9.45179 11.5796H8.46344V10.5796H10.3017C11.4571 10.5796 12.3047 10.0923 12.8279 9.36048C13.3151 8.67906 13.4634 7.87097 13.4634 7.24704V7.07964C13.4634 6.51053 13.372 5.66876 12.919 4.93753C12.4199 4.13177 11.5532 3.57964 10.3017 3.57964H7.69407C7.65507 3.57964 7.61659 3.58188 7.57875 3.58622C7.54091 3.58188 7.50244 3.57964 7.46344 3.57964C6.91115 3.57964 6.46344 4.02736 6.46344 4.57964V8.57964H5.46344C4.91115 8.57964 4.46344 9.02736 4.46344 9.57964C4.46344 10.1319 4.91115 10.5796 5.46344 10.5796H6.46344ZM8.46344 5.57964V8.57964H10.3017C10.8313 8.57964 11.0646 8.38805 11.201 8.19728C11.3734 7.9561 11.4634 7.59788 11.4634 7.24704V7.07964C11.4634 6.67398 11.3892 6.26575 11.2188 5.99068C11.0946 5.79013 10.8804 5.57964 10.3017 5.57964H8.46344Z" fill="#B2B8BF"/>
<path fill-rule="evenodd" clip-rule="evenodd" d="M17.4325 13.2734C17.8575 13.2734 18.236 13.542 18.3764 13.9431L21.8764 23.9431C22.0588 24.4644 21.7842 25.0348 21.2629 25.2173C20.7416 25.3997 20.1711 25.1251 19.9887 24.6038L19.173 22.2734H15.692L14.8764 24.6038C14.6939 25.1251 14.1235 25.3997 13.6022 25.2173C13.0809 25.0348 12.8062 24.4644 12.9887 23.9431L16.4887 13.9431C16.629 13.542 17.0076 13.2734 17.4325 13.2734ZM18.473 20.2734L17.4325 17.3005L16.392 20.2734H18.473Z" fill="#B2B8BF"/>
<path d="M24.9325 19.7734C24.9325 19.2212 24.4848 18.7734 23.9325 18.7734C23.3802 18.7734 22.9325 19.2212 22.9325 19.7734L22.9325 22.2734C22.9325 23.2574 23.2651 24.0632 23.9075 24.6021C24.5187 25.1147 25.2775 25.2734 25.9325 25.2734C26.3544 25.2734 26.8217 25.2056 27.265 25.0181C27.442 25.1769 27.676 25.2734 27.9325 25.2734C28.4848 25.2734 28.9325 24.8257 28.9325 24.2734V19.7734C28.9325 19.2212 28.4848 18.7734 27.9325 18.7734C27.3802 18.7734 26.9325 19.2212 26.9325 19.7734V22.2734C26.9325 22.783 26.7743 22.9785 26.6673 23.0677C26.5282 23.1836 26.2839 23.2734 25.9325 23.2734C25.568 23.2734 25.3268 23.1821 25.1928 23.0698C25.0902 22.9837 24.9325 22.7895 24.9325 22.2734L24.9325 19.7734Z" fill="#B2B8BF"/>
</svg>
