<svg width="20" height="20" viewBox="0 0 20 20" fill="none" xmlns="http://www.w3.org/2000/svg">
<path d="M5 0C4.44772 0 4 0.470101 4 1.05C4 1.6299 4.44772 2.1 5 2.1H15C15.5523 2.1 16 1.6299 16 1.05C16 0.470101 15.5523 0 15 0H5Z" fill="#B2B8BF"/>
<path d="M5 4.2C5 3.6201 5.44772 3.15 6 3.15H14C14.5523 3.15 15 3.6201 15 4.2C15 4.7799 14.5523 5.25 14 5.25H6C5.44772 5.25 5 4.7799 5 4.2Z" fill="#B2B8BF"/>
<path d="M10 14.175C10.5523 14.175 11 14.6451 11 15.225V16.8C11 17.3799 10.5523 17.85 10 17.85C9.44772 17.85 9 17.3799 9 16.8V15.225C9 14.6451 9.44772 14.175 10 14.175Z" fill="#B2B8BF"/>
<path d="M8 7C8 6.44772 7.55228 6 7 6C6.44772 6 6 6.44772 6 7C6 9.20914 7.79086 11 10 11C12.2091 11 14 9.20914 14 7C14 6.44772 13.5523 6 13 6C12.4477 6 12 6.44772 12 7C12 8.10457 11.1046 9 10 9C8.89543 9 8 8.10457 8 7Z" fill="#B2B8BF"/>
<path d="M14.1733 12.2083C13.736 11.8709 13.108 11.952 12.7707 12.3893C12.4334 12.8266 12.5144 13.4545 12.9517 13.7918C14.2215 14.7713 15 16.1172 15 17.423C15 17.6119 14.9866 17.8052 14.9596 18H5.04062C5.01354 17.8046 5 17.6112 5 17.423C5 16.1528 5.81209 14.7709 7.05834 13.784C7.49129 13.4411 7.56432 12.8122 7.22144 12.3792C6.87856 11.9463 6.24962 11.8732 5.81666 12.2161C4.26518 13.4448 3 15.3499 3 17.423C3 17.8319 3.04233 18.2451 3.1231 18.6514C3.29311 19.5035 4.06986 20 4.82736 20H15.1726C15.9285 20 16.7072 19.5056 16.8768 18.6519C16.9584 18.244 17 17.8307 17 17.423C17 15.3283 15.7826 13.4497 14.1733 12.2083Z" fill="#B2B8BF"/>
</svg>
