<svg width="32" height="32" viewBox="0 0 32 32" fill="none" xmlns="http://www.w3.org/2000/svg">
<path fill-rule="evenodd" clip-rule="evenodd" d="M16.3399 5.00001C16.3437 5 16.3476 5 16.3514 5C16.9987 5 17.6327 5.05241 18.2491 5.15289C18.7942 5.24174 19.3081 4.87188 19.397 4.32679C19.4858 3.7817 19.1159 3.26779 18.5708 3.17894C17.8484 3.06118 17.1069 3 16.3514 3C9.00503 3 3 8.79329 3 16C3 23.2067 9.00503 29 16.3514 29C22.1482 29 27.0999 25.3992 28.9397 20.3419C29.1286 19.8229 28.8609 19.2491 28.3419 19.0603C27.8229 18.8714 27.2491 19.1391 27.0603 19.6581C25.9556 22.6946 23.5085 25.1295 20.4005 26.2798C20.447 26.2066 20.4927 26.1325 20.5375 26.0577C21.5507 24.3668 22.2754 22.0587 22.6179 19.4642C22.6902 18.9166 22.3049 18.4142 21.7574 18.3419C21.2098 18.2696 20.7074 18.6549 20.6351 19.2024C20.3168 21.6136 19.6554 23.6388 18.8219 25.0298C17.966 26.4584 17.0762 27 16.3515 27C15.4655 27 14.3406 26.1708 13.3792 24.0692C12.5551 22.2678 11.9912 19.7952 11.8816 17H17.5C18.0523 17 18.5 16.5522 18.5 16C18.5 15.4477 18.0523 15 17.5 15H11.8816C11.9912 12.2047 12.5551 9.73216 13.3792 7.93067C14.3364 5.83833 15.4557 5.00726 16.3399 5.00001ZM12.3051 5.71849C8.33134 7.18737 5.44211 10.7561 5.04641 15H9.88015C9.99047 11.966 10.5995 9.19953 11.5605 7.09868C11.7814 6.61588 12.0298 6.15091 12.3051 5.71849ZM5.04641 17C5.44208 21.2439 8.33135 24.8127 12.3052 26.2815C12.0299 25.8491 11.7814 25.3841 11.5605 24.9012C10.5995 22.8004 9.99047 20.0339 9.88015 17H5.04641Z" fill="#107F8C"/>
<path fill-rule="evenodd" clip-rule="evenodd" d="M22.4453 4.16795C22.9048 3.8616 23.5257 3.98577 23.8321 4.4453L26 7.69722L28.1679 4.4453C28.4743 3.98577 29.0952 3.8616 29.5547 4.16795C30.0142 4.4743 30.1384 5.09517 29.8321 5.5547L27 9.80278V10H28.5C29.0523 10 29.5 10.4477 29.5 11C29.5 11.5523 29.0523 12 28.5 12H27V12.5H28.5C29.0523 12.5 29.5 12.9477 29.5 13.5C29.5 14.0523 29.0523 14.5 28.5 14.5H27V15C27 15.5523 26.5523 16 26 16C25.4477 16 25 15.5523 25 15V14.5H23.5C22.9477 14.5 22.5 14.0523 22.5 13.5C22.5 12.9477 22.9477 12.5 23.5 12.5H25V12H23.5C22.9477 12 22.5 11.5523 22.5 11C22.5 10.4477 22.9477 10 23.5 10H25V9.80278L22.1679 5.5547C21.8616 5.09517 21.9858 4.4743 22.4453 4.16795Z" fill="#107F8C"/>
</svg>
