<svg width="20" height="20" viewBox="0 0 20 20" fill="none" xmlns="http://www.w3.org/2000/svg">
<path fill-rule="evenodd" clip-rule="evenodd" d="M7.5 0C5.01 0 3 2.01 3 4.5C3 6.98 5.01 9 7.5 9C9.98 9 12 6.98 12 4.5C12 2.01 9.98 0 7.5 0ZM5 4.5C5 3.11 6.11 2 7.5 2C8.88 2 10 3.11 10 4.5C10 5.88 8.88 7 7.5 7C6.11 7 5 5.88 5 4.5Z" fill="#21A19A"/>
<path d="M7.44 12.46C6.08 12.46 4.76 11.99 3.69 11.14C2.61 12.2 2 13.66 2 15.2C2 15.46 2.01 15.73 2.05 16H7C7.55 16 8 16.44 8 17C8 17.55 7.55 18 7 18H1.82C0.97 18 0.26 17.37 0.11 16.55C0.04 16.1 0 15.65 0 15.2C0 13.02 0.92 10.94 2.53 9.49C3.18 8.9 4.16 8.9 4.82 9.47C5.55 10.11 6.48 10.46 7.44 10.46C7.99 10.46 8.44 10.91 8.44 11.46C8.44 12.02 7.99 12.46 7.44 12.46Z" fill="#21A19A"/>
<path fill-rule="evenodd" clip-rule="evenodd" d="M13.89 9C13.76 9 13.66 9.09 13.64 9.22L13.52 10.23C13.04 10.4 12.6 10.66 12.22 10.98L11.29 10.58C11.17 10.53 11.03 10.57 10.97 10.68L10.03 12.31C9.97003 12.42 9.99003 12.56 10.1 12.64L10.9 13.24C10.86 13.48 10.83 13.74 10.83 14C10.83 14.26 10.86 14.51 10.9 14.75L10.1 15.35C9.99003 15.43 9.96003 15.57 10.03 15.68L10.97 17.31C11.03 17.42 11.17 17.46 11.29 17.41L12.22 17.01C12.6 17.34 13.04 17.59 13.52 17.76L13.64 18.77C13.66 18.9 13.76 19 13.89 19H15.76C15.89 19 16 18.9 16.02 18.77L16.13 17.76C16.62 17.59 17.05 17.33 17.43 17.01L18.37 17.41C18.49 17.46 18.63 17.42 18.69 17.31L19.63 15.68C19.69 15.57 19.66 15.43 19.56 15.35L18.75 14.75C18.8 14.51 18.83 14.26 18.83 14C18.83 13.74 18.8 13.48 18.75 13.24L19.56 12.64C19.66 12.56 19.69 12.42 19.63 12.31L18.69 10.68C18.63 10.57 18.49 10.53 18.37 10.58L17.43 10.98C17.05 10.66 16.62 10.4 16.13 10.23L16.02 9.22C16 9.09 15.89 9 15.76 9H13.89ZM14.83 12C15.93 12 16.83 12.89 16.83 14C16.83 15.1 15.93 16 14.83 16C13.72 16 12.83 15.1 12.83 14C12.83 12.89 13.72 12 14.83 12Z" fill="#21A19A"/>
</svg>
