<svg width="32" height="32" viewBox="0 0 32 32" fill="none" xmlns="http://www.w3.org/2000/svg">
<path d="M19.925 4.34392C19.4937 3.99891 18.8644 4.06884 18.5194 4.5001L16.2194 7.3751C15.9272 7.74032 15.9272 8.25927 16.2194 8.62449L18.5194 11.4995C18.8644 11.9308 19.4937 12.0007 19.925 11.6557C20.3563 11.3107 20.4262 10.6814 20.0812 10.2501L19.0979 9.02106L21.9908 9.01223C23.6513 9.00716 25 10.3518 25 12.0122V14C25 14.5523 25.4477 15 26 15C26.5523 15 27 14.5523 27 14V12.0122C27 9.24483 24.7521 7.00379 21.9847 7.01224L19.0638 7.02115L20.0812 5.74949C20.4262 5.31823 20.3563 4.68893 19.925 4.34392Z" fill="#107F8C"/>
<path d="M11.0755 18.3439C11.5068 17.9989 12.1361 18.0688 12.4811 18.5001L14.7811 21.3751C15.0732 21.7403 15.0732 22.2593 14.7811 22.6245L12.4811 25.4995C12.1361 25.9308 11.5068 26.0007 11.0755 25.6557C10.6442 25.3107 10.5743 24.6814 10.9193 24.2501L11.9194 23H9C6.23857 23 4 20.7614 4 18V12.025C4 9.26359 6.23858 7.02501 9 7.02501H11.4749C12.0272 7.02501 12.4749 7.47273 12.4749 8.02501C12.4749 8.5773 12.0272 9.02501 11.4749 9.02501H9C7.34315 9.02501 6 10.3682 6 12.025V18C6 19.6568 7.34314 21 9 21H11.9197L10.9193 19.7495C10.5743 19.3182 10.6442 18.6889 11.0755 18.3439Z" fill="#107F8C"/>
<path fill-rule="evenodd" clip-rule="evenodd" d="M22.5 19C21.1193 19 20 20.1193 20 21.5C20 22.8807 21.1193 24 22.5 24C23.8807 24 25 22.8807 25 21.5C25 20.1193 23.8807 19 22.5 19ZM18 21.5C18 19.0147 20.0147 17 22.5 17C24.9853 17 27 19.0147 27 21.5C27 23.9853 24.9853 26 22.5 26C20.0147 26 18 23.9853 18 21.5Z" fill="#107F8C"/>
</svg>
