<svg width="32" height="32" viewBox="0 0 32 32" fill="none" xmlns="http://www.w3.org/2000/svg">
<path fill-rule="evenodd" clip-rule="evenodd" d="M9.33276 1C9.88505 1 10.3328 1.44772 10.3328 2V2.94025C11.1122 3.12661 11.7697 3.56735 12.2 4.31782C12.4747 4.79695 12.3089 5.40804 11.8298 5.68273C11.3507 5.95742 10.7396 5.79169 10.4649 5.31257C10.3103 5.04288 10.0453 4.83496 9.39163 4.83496C9.01483 4.83496 8.62641 4.98078 8.38941 5.21891C8.19739 5.41184 8.02029 5.74431 8.1696 6.38163C8.19531 6.49139 8.28344 6.65001 8.6272 6.87101C8.94633 7.07618 9.34268 7.24775 9.83823 7.46225L9.83824 7.46226L9.83825 7.46226L10.0232 7.54242C10.5538 7.77311 11.2054 8.06492 11.7297 8.48292C12.2878 8.92783 12.7672 9.56829 12.8265 10.4762C12.9183 11.8812 12.4063 12.8802 11.5879 13.4832C11.1845 13.7805 10.7426 13.9552 10.3328 14.0532V14.6633C10.3328 15.2156 9.88505 15.6633 9.33276 15.6633C8.78048 15.6633 8.33276 15.2156 8.33276 14.6633V14.0686C7.48504 13.9012 6.74845 13.5011 6.27732 12.7516C5.9834 12.284 6.12418 11.6667 6.59176 11.3728C7.05933 11.0788 7.67665 11.2196 7.97057 11.6872C8.10394 11.8994 8.43668 12.1651 9.39163 12.1651C9.71033 12.1651 10.1176 12.0823 10.4015 11.8731C10.6171 11.7142 10.8827 11.4013 10.8308 10.6066C10.8182 10.4146 10.7378 10.2499 10.483 10.0468C10.1944 9.81672 9.77996 9.61754 9.22572 9.37657C9.16691 9.351 9.10608 9.32479 9.04366 9.2979L9.04363 9.29789C8.57355 9.09537 8.01333 8.85401 7.54564 8.55334C7.00173 8.20365 6.41804 7.67321 6.22232 6.83783C5.92878 5.58485 6.25338 4.52993 6.97184 3.80806C7.36301 3.41503 7.84099 3.15029 8.33276 2.99739V2C8.33276 1.44772 8.78048 1 9.33276 1ZM23 20V23H24.8383C25.3679 23 25.6011 22.8084 25.7375 22.6176C25.9099 22.3765 26 22.0182 26 21.6674V21.5C26 21.0943 25.9257 20.6861 25.7553 20.411C25.6311 20.2105 25.417 20 24.8383 20H23ZM21 25V26H20C19.4477 26 19 26.4477 19 27C19 27.5523 19.4477 28 20 28H21V29C21 29.5523 21.4477 30 22 30C22.5523 30 23 29.5523 23 29V28H23.9883C24.5406 28 24.9883 27.5523 24.9883 27C24.9883 26.4477 24.5406 26 23.9883 26H23V25H24.8383C25.9936 25 26.8412 24.5127 27.3645 23.7808C27.8517 23.0994 28 22.2913 28 21.6674V21.5C28 20.9309 27.9085 20.0891 27.4556 19.3579C26.9565 18.5521 26.0898 18 24.8383 18H22.2306C22.1916 18 22.1531 18.0022 22.1153 18.0066C22.0775 18.0022 22.039 18 22 18C21.4477 18 21 18.4477 21 19V23H20C19.4477 23 19 23.4477 19 24C19 24.5523 19.4477 25 20 25H21ZM14.9662 4C14.9662 3.44772 15.414 3 15.9662 3C23.1165 3 28.9325 8.81551 28.9325 15.966C28.9325 16.5183 28.4848 16.966 27.9325 16.966C27.3802 16.966 26.9325 16.5183 26.9325 15.966C26.9325 9.92014 22.012 5 15.9662 5C15.414 5 14.9662 4.55228 14.9662 4ZM5 15.966C5 15.4137 4.55228 14.966 4 14.966C3.44772 14.966 3 15.4137 3 15.966C3 23.1169 8.81592 28.9325 15.9662 28.9325C16.5185 28.9325 16.9662 28.4848 16.9662 27.9325C16.9662 27.3802 16.5185 26.9325 15.9662 26.9325C9.92048 26.9325 5 22.0124 5 15.966Z" fill="#107F8C"/>
</svg>
