<svg width="32" height="32" viewBox="0 0 32 32" fill="none" xmlns="http://www.w3.org/2000/svg">
<path d="M5.24884 6.56836C5.24884 5.46378 6.14428 4.56835 7.24885 4.56836L22.8009 4.56847C23.9055 4.56847 24.8009 5.4639 24.8009 6.56847V10.9284C24.8009 11.4807 24.3532 11.9284 23.8009 11.9284C23.2486 11.9284 22.8009 11.4807 22.8009 10.9284V6.56847L7.24884 6.56836V21.5614H11.0817C11.634 21.5614 12.0817 22.0092 12.0817 22.5614C12.0817 23.1137 11.634 23.5614 11.0817 23.5614H7.24884C6.14427 23.5614 5.24884 22.666 5.24884 21.5614V6.56836Z" fill="#B2B8BF"/>
<path d="M9.12844 10.8782C9.12844 10.326 9.57615 9.87824 10.1284 9.87824H19.5336C20.0859 9.87824 20.5336 10.326 20.5336 10.8782C20.5336 11.4305 20.0859 11.8782 19.5336 11.8782H10.1284C9.57615 11.8782 9.12844 11.4305 9.12844 10.8782Z" fill="#B2B8BF"/>
<path fill-rule="evenodd" clip-rule="evenodd" d="M25.6556 24.2394C26.4611 23.1684 26.9386 21.8366 26.9386 20.3932C26.9386 16.8559 24.071 13.9883 20.5336 13.9883C16.9963 13.9883 14.1287 16.8559 14.1287 20.3932C14.1287 23.9306 16.9963 26.7982 20.5336 26.7982C21.9058 26.7982 23.1773 26.3666 24.2196 25.6319L27.0859 28.4981C27.4764 28.8886 28.1095 28.8886 28.5001 28.4981C28.8906 28.1076 28.8906 27.4744 28.5001 27.0839L25.6556 24.2394ZM20.5336 24.7982C22.9664 24.7982 24.9386 22.826 24.9386 20.3932C24.9386 17.9604 22.9664 15.9883 20.5336 15.9883C18.1008 15.9883 16.1287 17.9604 16.1287 20.3932C16.1287 22.826 18.1008 24.7982 20.5336 24.7982Z" fill="#B2B8BF"/>
</svg>
