<svg width="20" height="20" viewBox="0 0 20 20" fill="none" xmlns="http://www.w3.org/2000/svg">
<path fill-rule="evenodd" clip-rule="evenodd" d="M4 0H9C9.55228 0 10 0.447716 10 1C10 1.55228 9.55228 2 9 2H4C3.44772 2 3 2.44772 3 3V12H6C7.65685 12 9 13.3431 9 15V18H14C14.5523 18 15 17.5523 15 17V10C15 9.44771 15.4477 9 16 9C16.5523 9 17 9.44771 17 10V17C17 18.6569 15.6569 20 14 20H7.82843C7.03278 20 6.26972 19.6839 5.70711 19.1213L1.87868 15.2929C1.31607 14.7303 1 13.9672 1 13.1716V3C1 1.34315 2.34315 0 4 0ZM6 14H3.41422L7 17.5858V15C7 14.4477 6.55228 14 6 14ZM19.7071 1.70711C20.0976 1.31658 20.0976 0.683418 19.7071 0.292892C19.3166 -0.0976315 18.6834 -0.0976315 18.2929 0.292892L12.2929 6.29289C11.9024 6.68342 11.9024 7.31658 12.2929 7.70711C12.6834 8.09763 13.3166 8.09763 13.7071 7.70711L19.7071 1.70711ZM15 1.5C15 2.32843 14.3284 3 13.5 3C12.6716 3 12 2.32843 12 1.5C12 0.671574 12.6716 0 13.5 0C14.3284 0 15 0.671574 15 1.5ZM18.5 8C19.3284 8 20 7.32843 20 6.5C20 5.67157 19.3284 5 18.5 5C17.6716 5 17 5.67157 17 6.5C17 7.32843 17.6716 8 18.5 8Z" fill="#107F8C"/>
</svg>
