<svg width="32" height="32" viewBox="0 0 32 32" fill="none" xmlns="http://www.w3.org/2000/svg">
<path d="M26 21C26 20.4477 25.5523 20 25 20C24.4477 20 24 20.4477 24 21V26C24 26.5523 24.4477 27 25 27C25.5523 27 26 26.5523 26 26V21Z" fill="#21A19A"/>
<path d="M16.4221 22.8442C17.2075 22.8442 17.8442 22.2075 17.8442 21.4221C17.8442 20.6367 17.2075 20 16.4221 20C15.6367 20 15 20.6367 15 21.4221C15 22.2075 15.6367 22.8442 16.4221 22.8442Z" fill="#21A19A"/>
<path d="M17.8442 25.4221C17.8442 26.2075 17.2075 26.8442 16.4221 26.8442C15.6367 26.8442 15 26.2075 15 25.4221C15 24.6367 15.6367 24 16.4221 24C17.2075 24 17.8442 24.6367 17.8442 25.4221Z" fill="#21A19A"/>
<path d="M20.5 23C21.3284 23 22 22.3284 22 21.5C22 20.6716 21.3284 20 20.5 20C19.6716 20 19 20.6716 19 21.5C19 22.3284 19.6716 23 20.5 23Z" fill="#21A19A"/>
<path d="M21.8442 25.4221C21.8442 26.2075 21.2075 26.8442 20.4221 26.8442C19.6367 26.8442 19 26.2075 19 25.4221C19 24.6367 19.6367 24 20.4221 24C21.2075 24 21.8442 24.6367 21.8442 25.4221Z" fill="#21A19A"/>
<path fill-rule="evenodd" clip-rule="evenodd" d="M14 12C12.3431 12 11 13.3431 11 15V27C11 28.6569 12.3431 30 14 30H27C28.6569 30 30 28.6569 30 27V15C30 13.3431 28.6569 12 27 12H14ZM13 15C13 14.4477 13.4477 14 14 14H27C27.5523 14 28 14.4477 28 15V27C28 27.5523 27.5523 28 27 28H14C13.4477 28 13 27.5523 13 27V15Z" fill="#21A19A"/>
<path d="M10.9195 1.54053C8.77964 1.54053 6.90131 2.6587 5.83358 4.33798C3.56843 4.8244 1.875 6.83873 1.875 9.24425C1.875 11.6862 3.58097 13.4871 5.78317 13.9762C5.85112 13.9913 5.92045 13.9993 5.99004 14C6.63927 14.0064 6.98493 14.0048 7.25041 14.0024L7.38044 14.0011C7.57631 13.999 7.73442 13.9974 7.99004 14C8.5423 14.0054 8.99445 13.5622 8.99995 13.01C9.00545 12.4577 8.56221 12.0055 8.00996 12C7.73284 11.9973 7.55452 11.9991 7.35643 12.0012L7.23187 12.0024C6.9947 12.0046 6.68628 12.0062 6.12086 12.0011C4.77637 11.6637 3.875 10.6079 3.875 9.24425C3.875 7.68843 5.05363 6.40414 6.56721 6.24323C6.90036 6.20781 7.19364 6.00791 7.3484 5.71076C8.02123 4.41894 9.36999 3.54053 10.9195 3.54053C12.8724 3.54053 14.5003 4.92953 14.8656 6.78295C14.953 7.22631 15.3268 7.55597 15.7776 7.58718C17.0066 7.67226 17.9639 8.68047 17.9639 9.91462C17.9639 10.4669 18.4116 10.9146 18.9639 10.9146C19.5162 10.9146 19.9639 10.4669 19.9639 9.91462C19.9639 7.86517 18.5484 6.16694 16.6485 5.70533C15.8641 3.28503 13.5981 1.54053 10.9195 1.54053Z" fill="#21A19A"/>
<path d="M16 16C15.4477 16 15 16.4477 15 17C15 17.5523 15.4477 18 16 18H25C25.5523 18 26 17.5523 26 17C26 16.4477 25.5523 16 25 16H16Z" fill="#21A19A"/>
</svg>
