<svg width="20" height="20" viewBox="0 0 20 20" fill="none" xmlns="http://www.w3.org/2000/svg">
<path d="M11.9323 9.48208C11.9765 9.64727 12 9.82088 12 10C12 11.1046 11.1046 12 10 12C8.89543 12 8 11.1046 8 10C8 8.89543 8.89543 8 10 8C10.1792 8 10.3529 8.02357 10.5182 8.06778L18.293 0.292893C18.6836 -0.0976308 19.3167 -0.0976312 19.7073 0.292893C20.0978 0.683417 20.0978 1.31658 19.7073 1.70711L11.9323 9.48208Z" fill="#21A19A"/>
<path d="M2 10C2 5.58172 5.58172 2 10 2C10.9254 2 11.812 2.1567 12.6361 2.4442C13.1576 2.62611 13.7278 2.35085 13.9097 1.82938C14.0916 1.30792 13.8163 0.737716 13.2949 0.555803C12.2619 0.195438 11.1527 0 10 0C4.47715 0 0 4.47715 0 10C0 15.5228 4.47715 20 10 20C15.5228 20 20 15.5228 20 10C20 8.84731 19.8046 7.73814 19.4442 6.70513C19.2623 6.18366 18.6921 5.9084 18.1706 6.09031C17.6492 6.27222 17.3739 6.84243 17.5558 7.36389C17.8433 8.18802 18 9.07464 18 10C18 14.4183 14.4183 18 10 18C5.58172 18 2 14.4183 2 10Z" fill="#21A19A"/>
<path d="M6 10C6 7.79086 7.79086 6 10 6C10.5523 6 11 5.55228 11 5C11 4.44772 10.5523 4 10 4C6.68629 4 4 6.68629 4 10C4 13.3137 6.68629 16 10 16C13.3137 16 16 13.3137 16 10C16 9.44772 15.5523 9 15 9C14.4477 9 14 9.44772 14 10C14 12.2091 12.2091 14 10 14C7.79086 14 6 12.2091 6 10Z" fill="#21A19A"/>
</svg>
