<svg width="20" height="20" viewBox="0 0 20 20" fill="none" xmlns="http://www.w3.org/2000/svg">
<path fill-rule="evenodd" clip-rule="evenodd" d="M16 17C16 18.6569 14.6789 20 13.0492 20H9.34674C8.53596 20 7.7609 19.6608 7.20358 19.0622L1.80766 13.2658C1.28902 12.7087 1 11.9707 1 11.2036V3C1 1.34315 2.32113 1.46717e-08 3.95082 1.46717e-08L8.03865 0.000244918C8.58188 0.000244918 9.02226 0.447961 9.02226 1.00024C9.02226 1.55253 8.58188 2.00024 8.03865 2.00024L3.95082 2C3.40759 2 2.96721 2.44772 2.96721 3V11H6.90164C8.53133 11 9.85246 12.3431 9.85246 14V18H13.0492C13.5924 18 14.0328 17.5523 14.0328 17V11.0346C14.0328 10.4823 14.4732 10.0346 15.0164 10.0346C15.5596 10.0346 16 10.4823 16 11.0346V17ZM7.88525 16.8848L4.2688 13H6.90164C7.44487 13 7.88525 13.4477 7.88525 14V16.8848Z" fill="#107F8C"/>
<path fill-rule="evenodd" clip-rule="evenodd" d="M17.3192 0.288386C17.7037 -0.0961288 18.3271 -0.0961288 18.7116 0.288386C19.0961 0.672901 19.0961 1.29632 18.7116 1.68084L16.3925 3.99999L18.7116 6.31917C19.0961 6.70368 19.0961 7.3271 18.7116 7.71162C18.3271 8.09613 17.7037 8.09613 17.3192 7.71161L15 5.39245L12.6808 7.71161C12.2963 8.09613 11.6729 8.09613 11.2884 7.71162C10.9039 7.3271 10.9039 6.70368 11.2884 6.31917L13.6075 3.99999L11.2884 1.68087C10.9039 1.29635 10.9039 0.672932 11.2884 0.288416C11.6729 -0.096101 12.2963 -0.0961037 12.6808 0.28841L15 2.60754L17.3192 0.288386Z" fill="#107F8C"/>
</svg>
