<svg width="20" height="20" viewBox="0 0 20 20" fill="none" xmlns="http://www.w3.org/2000/svg">
<path fill-rule="evenodd" clip-rule="evenodd" d="M19.7532 13.3422C20.1165 13.7582 20.0738 14.3899 19.6578 14.7532L13.9329 19.7532C13.5593 20.0795 13.003 20.0826 12.6258 19.7606L10.3507 17.8183C9.93066 17.4598 9.88084 16.8285 10.2394 16.4085C10.598 15.9885 11.2292 15.9386 11.6493 16.2972L13.2676 17.6788L18.3422 13.2468C18.7581 12.8835 19.3899 12.9262 19.7532 13.3422Z" fill="#107F8C"/>
<path fill-rule="evenodd" clip-rule="evenodd" d="M16.5 0C10.7422 0 7.16677 1.98125 5.00793 4.90614C2.96859 7.66912 2.3011 11.1357 2.0299 14.1135L0.292879 15.8506C-0.0976372 16.2411 -0.0976248 16.8743 0.292907 17.2648C0.683438 17.6553 1.3166 17.6553 1.70712 17.2648L3.4766 15.4952C9.41035 15.3757 12.7724 13.0391 13.8137 11.5813C13.9908 11.3333 14.0452 11.0182 13.9615 10.7253L13.2765 8.32781L15.6414 7.98996C16.0164 7.9364 16.3289 7.67558 16.4487 7.31624C16.7267 6.48204 16.9868 5.16181 17.1753 3.96848C17.3628 2.78094 17.5 1.58658 17.5 0.999999C17.5 0.447715 17.0523 0 16.5 0ZM11.8908 10.7578C10.975 11.6686 8.51376 13.2414 4.10698 13.4716C4.41238 10.8559 5.07106 8.18845 6.61707 6.09385C8.21177 3.93328 10.8499 2.25312 15.4215 2.02614C15.3698 2.49246 15.2943 3.05775 15.1997 3.65655C15.0594 4.5452 14.8889 5.43277 14.7186 6.10148L11.8586 6.51007C11.5725 6.55093 11.3182 6.71351 11.161 6.95593C11.0038 7.19835 10.9591 7.49692 11.0385 7.77474L11.8908 10.7578Z" fill="#107F8C"/>
</svg>
