<svg width="20" height="20" viewBox="0 0 20 20" fill="none" xmlns="http://www.w3.org/2000/svg">
<path d="M4 11.0001L5.87222 12.6989C6.16369 12.9633 6.27293 13.3742 6.15132 13.7485L5.05914 17.1098C4.75978 18.0312 5.81427 18.7973 6.59798 18.2279L9.39275 16.1974C9.74323 15.9427 10.2178 15.9427 10.5683 16.1974L13.3631 18.2279C14.1468 18.7973 15.2013 18.0312 14.9019 17.1098L13.8115 13.754C13.689 13.3769 13.8009 12.963 14.0967 12.6989L16 11.0001" stroke="#107F8C" stroke-width="2" stroke-linecap="round" stroke-linejoin="round"/>
<path d="M19 8.00012H12.7366C12.39 8.00012 12.0828 7.72373 11.9757 7.3155L10.7608 2.68475C10.5214 1.77191 9.47863 1.77191 9.23915 2.68475L8.02427 7.3155C7.91717 7.72373 7.61 8.00012 7.26342 8.00012H1" stroke="#107F8C" stroke-width="2" stroke-linecap="round" stroke-linejoin="round"/>
</svg>
