<svg width="20" height="20" viewBox="0 0 20 20" fill="none" xmlns="http://www.w3.org/2000/svg">
<path d="M7.58125 0.186222C8.03067 0.507231 8.13476 1.13178 7.81375 1.58119L6.08603 4H13.914L12.1862 1.58119C11.8652 1.13178 11.9693 0.507231 12.4187 0.186222C12.8682 -0.134787 13.4927 -0.0306951 13.8137 0.418717L16.3137 3.91872C16.3327 3.94523 16.3501 3.97236 16.3661 4H19C19.5523 4 20 4.44772 20 5C20 5.55228 19.5523 6 19 6H2.34404L4.74404 14H8.00001C8.55229 14 9.00001 14.4477 9.00001 15C9.00001 15.5523 8.55229 16 8.00001 16H4.00001C3.5584 16 3.16908 15.7103 3.04218 15.2873L0.042182 5.28735C-0.0486503 4.98457 0.00902212 4.65668 0.197715 4.40307C0.386409 4.14946 0.683902 4 1.00001 4H3.63388C3.64988 3.97236 3.66734 3.94523 3.68628 3.91872L6.18628 0.418717C6.50729 -0.0306951 7.13184 -0.134787 7.58125 0.186222Z" fill="#107F8C"/>
<path fill-rule="evenodd" clip-rule="evenodd" d="M14.1775 19.0832H14.1831L14.1831 17.2336C14.3976 17.3535 14.6246 17.4485 14.8622 17.5181C15.2157 17.6173 15.5636 17.6671 15.9058 17.6671C16.4996 17.6671 17.0162 17.5573 17.4529 17.3346C17.8901 17.1117 18.2256 16.7873 18.4578 16.3626C18.6942 15.9377 18.8105 15.4264 18.8105 14.8322C18.8105 14.3118 18.6911 13.8584 18.449 13.4755C18.2071 13.0928 17.8581 12.7975 17.4056 12.5887C17.37 12.5722 17.3338 12.5564 17.297 12.5413C17.6072 12.3462 17.8582 12.1025 18.0485 11.8099C18.2859 11.4451 18.4043 11.0363 18.4043 10.5856C18.4043 10.0442 18.2785 9.57951 18.0229 9.19589C17.7682 8.80939 17.4085 8.51634 16.9473 8.31612C16.4907 8.1118 15.9566 8.01099 15.3472 8.01099C14.773 8.01099 14.2462 8.12994 13.7687 8.36868C13.2954 8.60749 12.9145 8.94251 12.6273 9.37327C12.3383 9.80678 12.1949 10.3114 12.1949 10.884V19.0039C12.1949 19.5522 12.6395 19.9967 13.1878 19.9967C13.7093 19.9967 14.1367 19.5941 14.1775 19.0832ZM16.2947 11.3817C16.2247 11.5606 16.1104 11.6973 15.9523 11.7937C15.8869 11.8345 15.5687 11.8673 15.2172 11.8914H14.1831V10.884C14.1831 10.615 14.234 10.3872 14.3325 10.1979C14.436 10.0069 14.5746 9.86127 14.7473 9.75923C14.9244 9.65294 15.1238 9.59924 15.3472 9.59924C15.5936 9.59924 15.7906 9.65371 15.9436 9.75695L15.9448 9.75771C16.1012 9.8594 16.2157 9.99342 16.2897 10.161L16.2903 10.1624C16.3699 10.3334 16.4098 10.5165 16.4098 10.7126C16.4098 10.9758 16.3707 11.1977 16.2953 11.3803L16.2947 11.3817ZM15.4869 16.0789C15.1224 16.0789 14.8071 16.0251 14.5391 15.9196C14.4048 15.8646 14.2863 15.801 14.1831 15.7289V13.4015L15.5122 13.4015L15.5138 13.4015C15.8027 13.4017 16.0413 13.4608 16.2333 13.5744L16.2343 13.575C16.4268 13.685 16.5726 13.8444 16.6716 14.0544C16.7711 14.2613 16.8224 14.5113 16.8224 14.8068C16.8224 15.0528 16.7681 15.2696 16.6613 15.4595L16.6607 15.4606C16.5582 15.6498 16.408 15.8002 16.2089 15.9117C16.0164 16.0217 15.777 16.0789 15.4869 16.0789Z" fill="#107F8C"/>
</svg>
