<svg width="32" height="32" viewBox="0 0 32 32" fill="none" xmlns="http://www.w3.org/2000/svg">
<path fill-rule="evenodd" clip-rule="evenodd" d="M13 5C10.2386 5 8 7.23858 8 10C8 12.7614 10.2386 15 13 15C15.7614 15 18 12.7614 18 10C18 7.23858 15.7614 5 13 5ZM10 10C10 8.34315 11.3431 7 13 7C14.6569 7 16 8.34315 16 10C16 11.6569 14.6569 13 13 13C11.3431 13 10 11.6569 10 10Z" fill="#B2B8BF"/>
<path d="M12.9155 18.6344C11.2336 18.6344 9.59799 18.0647 8.30338 17.0191C6.83147 18.2826 6 20.0735 6 21.9368C6 22.2838 6.03082 22.6414 6.09186 23H12.9155C13.4678 23 13.9155 23.4477 13.9155 24C13.9155 24.5523 13.4678 25 12.9155 25H6.01631C5.12926 25 4.31607 24.3876 4.14474 23.473C4.04967 22.9636 4 22.4464 4 21.9368C4 19.4456 5.12365 17.0842 7.0598 15.4512L7.06126 15.45C7.76898 14.8554 8.81023 14.85 9.52432 15.4341L9.5262 15.4356C10.4628 16.2054 11.6665 16.6344 12.9155 16.6344C14.189 16.6344 15.4105 16.1901 16.3555 15.3935C16.7778 15.0375 17.4086 15.0913 17.7646 15.5136C18.1205 15.9358 18.0668 16.5667 17.6445 16.9227C16.3317 18.0294 14.6512 18.6344 12.9155 18.6344Z" fill="#B2B8BF"/>
<path d="M23.5 17C22.9477 17 22.5 17.4477 22.5 18C22.5 18.5523 22.9477 19 23.5 19C25.9853 19 28 21.0147 28 23.5C28 25.9853 25.9853 28 23.5 28C21.0147 28 19 25.9853 19 23.5C19 22.9477 18.5523 22.5 18 22.5C17.4477 22.5 17 22.9477 17 23.5C17 27.0899 19.9101 30 23.5 30C27.0899 30 30 27.0899 30 23.5C30 19.9101 27.0899 17 23.5 17Z" fill="#B2B8BF"/>
<path d="M24 21.0807C24 20.5284 23.5523 20.0807 23 20.0807C22.4477 20.0807 22 20.5284 22 21.0807V24C22 24.3788 22.214 24.725 22.5528 24.8944L24.5528 25.8944C25.0468 26.1414 25.6474 25.9412 25.8944 25.4472C26.1414 24.9532 25.9412 24.3526 25.4472 24.1056L24 23.382V21.0807Z" fill="#B2B8BF"/>
</svg>
