<svg width="20" height="20" viewBox="0 0 20 20" fill="none" xmlns="http://www.w3.org/2000/svg">
<path d="M3 3C3 2.44772 3.44772 2 4 2H9C9.55228 2 10 1.55228 10 1C10 0.447715 9.55228 0 9 0H4C2.34315 0 1 1.34315 1 3V17C1 18.6569 2.34315 20 4 20H14C15.6569 20 17 18.6569 17 17V14C17 13.4477 16.5523 13 16 13C15.4477 13 15 13.4477 15 14V17C15 17.5523 14.5523 18 14 18H4C3.44772 18 3 17.5523 3 17V3Z" fill="#107F8C"/>
<path d="M6 5C5.44772 5 5 5.44772 5 6C5 6.55228 5.44772 7 6 7H7C7.55228 7 8 6.55228 8 6C8 5.44772 7.55228 5 7 5H6Z" fill="#107F8C"/>
<path d="M5 10C5 9.44771 5.44772 9 6 9H7C7.55228 9 8 9.44771 8 10C8 10.5523 7.55228 11 7 11H6C5.44772 11 5 10.5523 5 10Z" fill="#107F8C"/>
<path d="M6 13C5.44772 13 5 13.4477 5 14C5 14.5523 5.44772 15 6 15H10C10.5523 15 11 14.5523 11 14C11 13.4477 10.5523 13 10 13H6Z" fill="#107F8C"/>
<path fill-rule="evenodd" clip-rule="evenodd" d="M12 1C12 0.447715 12.4477 0 13 0H15.478C16.8156 0 17.7706 0.496627 18.3502 1.29875C18.8877 2.04251 19 2.90961 19 3.5V3.66739C19 4.32293 18.8162 5.15384 18.2441 5.83978C17.6432 6.56012 16.7142 7 15.478 7H14V8H15C15.5523 8 16 8.44771 16 9C16 9.55228 15.5523 10 15 10H14V11C14 11.5523 13.5523 12 13 12C12.4477 12 12 11.5523 12 11V10H11C10.4477 10 10 9.55228 10 9C10 8.44771 10.4477 8 11 8H12V7H11C10.4477 7 10 6.55228 10 6C10 5.44772 10.4477 5 11 5H12V1ZM14 5V2H15.478C16.2756 2 16.5816 2.26598 16.7292 2.47017C16.9189 2.73271 17 3.11561 17 3.5V3.66739C17 3.98664 16.9056 4.32202 16.7082 4.5587C16.5395 4.76096 16.2075 5 15.478 5H14Z" fill="#107F8C"/>
</svg>
