<svg width="20" height="20" viewBox="0 0 20 20" fill="none" xmlns="http://www.w3.org/2000/svg">
<path d="M5.30919 5.31203C5.32083 5.21828 5.3286 5.12078 5.3286 5.01953C5.3286 4.91828 5.32083 4.82078 5.30531 4.72703C5.40533 4.65155 5.58843 4.4698 5.74155 4.31231C5.89645 4.15298 5.92162 3.90966 5.80761 3.71893L5.56208 3.30821C5.45257 3.12502 5.23887 3.03127 5.03061 3.07801C4.79477 3.13094 4.50981 3.19831 4.41657 3.23453C4.25356 3.11453 4.0828 3.01703 3.89263 2.94203C3.8783 2.84418 3.80023 2.583 3.73143 2.36342C3.66695 2.15763 3.47533 2.01953 3.25967 2.01953H2.74242C2.52576 2.01953 2.33349 2.15891 2.26969 2.36596C2.20197 2.58576 2.1253 2.84618 2.11126 2.94203C1.92109 3.01703 1.74645 3.11828 1.58733 3.23453C1.49328 3.198 1.20868 3.13072 0.973172 3.0779C0.764968 3.03121 0.551359 3.12496 0.441875 3.30811L0.19904 3.71433C0.0837238 3.90723 0.111079 4.15358 0.268558 4.31392C0.431209 4.47953 0.622539 4.66964 0.698583 4.72703C0.68306 4.82078 0.671417 4.92203 0.671417 5.01953C0.671417 5.11703 0.679179 5.21828 0.694702 5.31203C0.618228 5.36975 0.427054 5.5597 0.264574 5.72517C0.107139 5.8855 0.079819 6.13179 0.195114 6.32466L0.437929 6.73085C0.547445 6.91405 0.761141 7.00779 0.969399 6.96105C1.20524 6.90812 1.4902 6.84075 1.58345 6.80453C1.74645 6.92453 1.91721 7.02203 2.10738 7.09703C2.12162 7.19426 2.19977 7.45569 2.26861 7.67552C2.33308 7.88137 2.52474 8.01953 2.74044 8.01953H3.2577C3.47431 8.01953 3.66655 7.88022 3.73036 7.67322C3.79803 7.45369 3.87462 7.19353 3.88875 7.09703C4.07892 7.02203 4.25356 6.92078 4.41268 6.80453C4.50673 6.84106 4.79133 6.90834 5.02684 6.96116C5.23505 7.00785 5.44865 6.9141 5.55814 6.73096L5.80213 6.3228C5.9169 6.13081 5.8904 5.88574 5.73458 5.72527C5.57387 5.55977 5.38475 5.36974 5.30919 5.31203Z" fill="#107F8C"/>
<path fill-rule="evenodd" clip-rule="evenodd" d="M8.00275 2.26953C7.45046 2.26953 7.00275 2.71725 7.00275 3.26953C7.00275 3.82182 7.45057 4.26953 8.00285 4.26953C9.65767 4.26953 11 5.60949 11.0028 7.2643L11.0127 13.7576H8.96998C8.51986 12.8524 7.58565 12.2305 6.50616 12.2305C5.42668 12.2305 4.49247 12.8524 4.04235 13.7576H2V9.98615C2 9.43387 1.55228 8.98615 1 8.98615C0.447715 8.98615 0 9.43387 0 9.98615V13.7576C0 14.8621 0.895428 15.7576 2 15.7576H3.8675C4.20281 16.8979 5.25726 17.7305 6.50616 17.7305C7.75507 17.7305 8.80952 16.8979 9.14483 15.7576H11.1431C11.4781 16.8984 12.5328 17.7314 13.7821 17.7314C15.0284 17.7314 16.0811 16.9024 16.4186 15.7656H17.0027C18.6649 15.7656 20.0102 14.3692 20.0027 12.6516L19.9909 9.94903C19.9807 7.63555 18.1629 5.76562 15.9241 5.76562H12.7727C12.1343 3.7388 10.2398 2.26953 8.00275 2.26953ZM17.0027 13.699H16.2153C15.7544 12.8262 14.8377 12.2314 13.7821 12.2314C13.5143 12.2314 13.2555 12.2697 13.0107 12.3411L13.0086 10.998L17.9954 10.998L18.0027 12.661C18.0052 13.2335 17.5568 13.699 17.0027 13.699ZM15.9241 7.83229C16.7273 7.83229 17.4239 8.30588 17.7659 8.99805H13.0055L13.0037 7.83229H15.9241ZM5.75616 14.9805C5.75616 14.5663 6.09195 14.2305 6.50616 14.2305C6.92038 14.2305 7.25616 14.5663 7.25616 14.9805C7.25616 15.3947 6.92038 15.7305 6.50616 15.7305C6.09195 15.7305 5.75616 15.3947 5.75616 14.9805ZM13.7821 14.2314C13.3679 14.2314 13.0321 14.5672 13.0321 14.9814C13.0321 15.3957 13.3679 15.7314 13.7821 15.7314C14.1963 15.7314 14.5321 15.3957 14.5321 14.9814C14.5321 14.5672 14.1963 14.2314 13.7821 14.2314Z" fill="#107F8C"/>
</svg>
