<svg width="32" height="32" viewBox="0 0 32 32" fill="none" xmlns="http://www.w3.org/2000/svg">
<path fill-rule="evenodd" clip-rule="evenodd" d="M16 9C14.8954 9 14 8.10457 14 7C14 5.89543 14.8954 5 16 5C17.1046 5 18 5.89543 18 7C18 8.10457 17.1046 9 16 9ZM12 7C12 4.79086 13.7909 3 16 3C18.2091 3 20 4.79086 20 7C20 9.20914 18.2091 11 16 11C13.7909 11 12 9.20914 12 7ZM26 27C24.8954 27 24 26.1046 24 25C24 23.8954 24.8954 23 26 23C27.1046 23 28 23.8954 28 25C28 26.1046 27.1046 27 26 27ZM22 25C22 22.7909 23.7909 21 26 21C28.2091 21 30 22.7909 30 25C30 27.2091 28.2091 29 26 29C23.7909 29 22 27.2091 22 25ZM4 25C4 26.1046 4.89543 27 6 27C7.10457 27 8 26.1046 8 25C8 23.8954 7.10457 23 6 23C4.89543 23 4 23.8954 4 25ZM6 21C3.79086 21 2 22.7909 2 25C2 27.2091 3.79086 29 6 29C8.20914 29 10 27.2091 10 25C10 22.7909 8.20914 21 6 21ZM13.5408 13.4858C13.809 13.003 13.6351 12.3942 13.1523 12.126C12.6695 11.8578 12.0607 12.0318 11.7925 12.5145L8.45919 18.5145C8.19097 18.9973 8.36492 19.6061 8.8477 19.8743C9.33048 20.1426 9.93929 19.9686 10.2075 19.4858L13.5408 13.4858ZM20.2075 12.5145C19.9393 12.0318 19.3305 11.8578 18.8477 12.126C18.3649 12.3942 18.191 13.003 18.4592 13.4858L21.7925 19.4858C22.0607 19.9686 22.6695 20.1426 23.1523 19.8743C23.6351 19.6061 23.809 18.9973 23.5408 18.5145L20.2075 12.5145ZM13 24.0002C12.4477 24.0002 12 24.4479 12 25.0002C12 25.5525 12.4477 26.0002 13 26.0002H19C19.5523 26.0002 20 25.5525 20 25.0002C20 24.4479 19.5523 24.0002 19 24.0002H13Z" fill="#B2B8BF"/>
</svg>
