<svg width="32" height="32" viewBox="0 0 32 32" fill="none" xmlns="http://www.w3.org/2000/svg">
<path d="M16 5C16.5523 5 17 5.44772 17 6C17 6.55228 16.5523 7 16 7H8C7.44772 7 7 7.44772 7 8V24C7 24.5523 7.44772 25 8 25H22C22.5523 25 23 24.5523 23 24V20C23 19.4477 23.4477 19 24 19C24.5523 19 25 19.4477 25 20V24C25 25.6569 23.6569 27 22 27H8C6.34315 27 5 25.6569 5 24V8C5 6.34315 6.34315 5 8 5H16Z" fill="#107F8C"/>
<path d="M17.1025 20.0049C17.6067 20.0562 18 20.4823 18 21C18 21.5177 17.6067 21.9438 17.1025 21.9951L17 22H11C10.4477 22 10 21.5523 10 21C10 20.4477 10.4477 20 11 20H17L17.1025 20.0049Z" fill="#107F8C"/>
<path d="M14 15C14.5523 15 15 15.4477 15 16C15 16.5523 14.5523 17 14 17H11C10.4477 17 10 16.5523 10 16C10 15.4477 10.4477 15 11 15H14Z" fill="#107F8C"/>
<path d="M22.293 6.29297C22.6591 5.92685 23.2381 5.90426 23.6309 6.22461L23.707 6.29297L27.707 10.293L27.7148 10.3018C27.7752 10.3636 27.8273 10.4331 27.8701 10.5088C27.8744 10.5163 27.8788 10.5237 27.8828 10.5312C27.907 10.5768 27.9273 10.6245 27.9443 10.6738C27.9476 10.6833 27.9511 10.6926 27.9541 10.7021C27.9587 10.7169 27.9619 10.732 27.9658 10.7471C27.9697 10.7621 27.9743 10.7769 27.9775 10.792C27.9811 10.8088 27.9836 10.8257 27.9863 10.8428C27.9887 10.8577 27.9905 10.8727 27.9922 10.8877C27.9936 10.9 27.9952 10.9123 27.9961 10.9248C27.9975 10.9434 27.9987 10.9619 27.999 10.9805C27.9991 10.987 28 10.9935 28 11C28 11.0062 27.9991 11.0124 27.999 11.0186C27.9987 11.0388 27.9967 11.0589 27.9951 11.0791C27.9945 11.0869 27.9949 11.0948 27.9941 11.1025C27.9924 11.1195 27.9899 11.1364 27.9873 11.1533C27.9796 11.2033 27.967 11.2516 27.9521 11.2988C27.9488 11.3096 27.9452 11.3203 27.9414 11.3311C27.9346 11.3505 27.9279 11.3698 27.9199 11.3887C27.9166 11.3965 27.9137 11.4044 27.9102 11.4121C27.9016 11.431 27.8925 11.4495 27.8828 11.4678C27.8763 11.48 27.8693 11.4919 27.8623 11.5039C27.8538 11.5184 27.8451 11.5328 27.8359 11.5469C27.8303 11.5555 27.8243 11.5638 27.8184 11.5723C27.7875 11.6164 27.7533 11.6578 27.7158 11.6963C27.7126 11.6996 27.7103 11.7038 27.707 11.707L23.707 15.707C23.3165 16.0976 22.6835 16.0976 22.293 15.707C21.9024 15.3165 21.9024 14.6835 22.293 14.293L24.5859 12H18C17.4477 12 17 11.5523 17 11C17 10.4477 17.4477 10 18 10H24.5859L22.293 7.70703L22.2246 7.63086C21.9043 7.23809 21.9269 6.65908 22.293 6.29297Z" fill="#107F8C"/>
<path d="M14 10C14.5523 10 15 10.4477 15 11C15 11.5523 14.5523 12 14 12H11C10.4477 12 10 11.5523 10 11C10 10.4477 10.4477 10 11 10H14Z" fill="#107F8C"/>
</svg>
