<svg width="32" height="32" viewBox="0 0 32 32" fill="none" xmlns="http://www.w3.org/2000/svg">
<path fill-rule="evenodd" clip-rule="evenodd" d="M13 5C10.2386 5 8 7.23858 8 10C8 12.7614 10.2386 15 13 15C15.7614 15 18 12.7614 18 10C18 7.23858 15.7614 5 13 5ZM10 10C10 8.34315 11.3431 7 13 7C14.6569 7 16 8.34315 16 10C16 11.6569 14.6569 13 13 13C11.3431 13 10 11.6569 10 10Z" fill="#107F8C"/>
<path d="M12.9155 18.6344C11.2336 18.6344 9.59799 18.0647 8.30338 17.0191C6.83147 18.2826 6 20.0735 6 21.9368C6 22.2838 6.03082 22.6414 6.09186 23H12.9155C13.4678 23 13.9155 23.4477 13.9155 24C13.9155 24.5523 13.4678 25 12.9155 25H6.01631C5.12926 25 4.31607 24.3876 4.14474 23.473C4.04967 22.9636 4 22.4464 4 21.9368C4 19.4456 5.12365 17.0842 7.0598 15.4512L7.06126 15.45C7.76898 14.8554 8.81023 14.85 9.52432 15.4341L9.5262 15.4356C10.4628 16.2054 11.6665 16.6344 12.9155 16.6344C14.189 16.6344 15.4105 16.1901 16.3555 15.3935C16.7778 15.0375 17.4086 15.0913 17.7646 15.5136C18.1205 15.9358 18.0668 16.5667 17.6445 16.9227C16.3317 18.0294 14.6512 18.6344 12.9155 18.6344Z" fill="#107F8C"/>
<path fill-rule="evenodd" clip-rule="evenodd" d="M20.498 20C19.6697 20 19.0033 20.6688 19.0033 21.4864C19.0033 21.5126 19.0022 21.5388 19.0002 21.5649C19 21.57 18.9998 21.5816 19.0002 21.5996C19.0012 21.6446 19.0061 21.7295 19.0255 21.8502C19.0642 22.0904 19.1618 22.479 19.4094 22.9816C19.8651 23.9068 20.8505 25.2602 22.9931 26.787C25.1432 25.2596 26.132 23.9057 26.5892 22.9805C26.8376 22.4779 26.9355 22.0894 26.9744 21.8495C26.9939 21.729 26.9987 21.6441 26.9998 21.5992C27.0002 21.5814 27 21.5698 26.9998 21.5648C26.9978 21.5387 26.9967 21.5126 26.9967 21.4864C26.9967 20.6689 26.3305 20 25.5015 20C24.6755 20 24.0016 20.6684 23.9922 21.4977C23.986 22.0478 23.5367 22.4895 22.9866 22.4864C22.4365 22.4833 21.9923 22.0365 21.9923 21.4864C21.9923 20.6684 21.3264 20 20.498 20ZM28.9966 21.4495C28.9971 21.4588 28.9976 21.4689 28.998 21.4797C28.9998 21.5232 29.0008 21.5784 28.9992 21.6447C28.9962 21.7774 28.9835 21.9539 28.9487 22.1691C28.8788 22.6006 28.7212 23.1806 28.3822 23.8666C27.7023 25.2424 26.3172 26.9961 23.5447 28.8336C23.2094 29.0558 22.7737 29.0555 22.4387 28.8328C19.6739 26.995 18.293 25.2412 17.6153 23.8654C17.2774 23.1795 17.1205 22.5997 17.051 22.1684C17.0164 21.9533 17.0037 21.7769 17.0007 21.6444C16.9993 21.5781 17.0002 21.523 17.002 21.4795C17.0024 21.4688 17.0029 21.4587 17.0035 21.4494C17.0234 19.5378 18.584 18 20.498 18C21.4775 18 22.3639 18.4024 22.9989 19.0514C23.6348 18.4031 24.52 18 25.5015 18C27.4159 18 28.9767 19.5377 28.9966 21.4495ZM18.9983 21.5861C18.9983 21.5861 18.9983 21.5862 18.9983 21.5862L18.9983 21.5861Z" fill="#107F8C"/>
</svg>
