<svg width="20" height="20" viewBox="0 0 20 20" fill="none" xmlns="http://www.w3.org/2000/svg">
<path d="M6.17141 6.17186C6.56193 5.78134 6.56193 5.14817 6.17141 4.75765C5.78089 4.36712 5.14772 4.36712 4.7572 4.75765C4.36667 5.14817 4.36667 5.78134 4.7572 6.17186C5.14772 6.56238 5.78089 6.56238 6.17141 6.17186Z" fill="#B2B8BF"/>
<path fill-rule="evenodd" clip-rule="evenodd" d="M0.655985 8.01026C0.566958 8.63345 0.776536 9.26218 1.22167 9.70732L10.4143 18.8999C11.1953 19.681 12.4617 19.681 13.2427 18.8999L18.8996 13.2431C19.6806 12.462 19.6806 11.1957 18.8996 10.4147L9.70695 1.22204C9.26182 0.776902 8.63308 0.567325 8.0099 0.656351L3.06015 1.36346C2.18019 1.48917 1.4888 2.18056 1.36309 3.06051L0.655985 8.01026ZM2.63588 8.2931L3.34299 3.34336L8.29274 2.63625L17.4854 11.8289L11.8285 17.4857L2.63588 8.2931Z" fill="#B2B8BF"/>
</svg>
