<svg width="20" height="20" viewBox="0 0 20 20" fill="none" xmlns="http://www.w3.org/2000/svg">
<path fill-rule="evenodd" clip-rule="evenodd" d="M2.49805 0C1.9462 0 1.49883 0.447715 1.49883 1V4H0.999219C0.447365 4 0 4.44772 0 5C0 5.55228 0.447365 6 0.999219 6H1.49883V6.5H0.999219C0.447365 6.5 0 6.94772 0 7.5C0 8.05228 0.447365 8.5 0.999219 8.5H1.49883V9C1.49883 9.55228 1.94619 10 2.49805 10C3.0499 10 3.49727 9.55228 3.49727 9V8.5H3.99688C4.54873 8.5 4.9961 8.05228 4.9961 7.5C4.9961 6.94772 4.54873 6.5 3.99688 6.5H3.49727V6H4.63719C5.68411 6 6.43329 5.4832 6.88716 4.85025C7.31342 4.25581 7.49414 3.54813 7.49414 3C7.49414 2.45187 7.31342 1.74419 6.88716 1.14975C6.43329 0.516805 5.68411 0 4.63719 0H2.49805ZM3.49727 2V4H4.63719C4.9484 4 5.12808 3.87308 5.26355 3.68417C5.42663 3.45674 5.49571 3.16443 5.49571 3C5.49571 2.83557 5.42663 2.54326 5.26355 2.31583C5.12808 2.12692 4.9484 2 4.63719 2H3.49727Z" fill="#B2B8BF"/>
<path d="M8.64174 1C8.64174 0.447715 9.08911 0 9.64096 0C13.7101 0 17.2094 2.43357 18.7681 5.92466C18.9104 6.45827 18.5935 7.00628 18.0603 7.14866C17.5271 7.29104 17.0342 6.93008 16.8804 6.60241C15.6037 3.88251 12.841 2 9.64096 2C9.08911 2 8.64174 1.55228 8.64174 1Z" fill="#B2B8BF"/>
<path d="M0.722445 11.5392C1.25266 11.3861 1.80652 11.6921 1.95953 12.2227C2.92192 15.5605 5.99807 18 9.64096 18C10.1928 18 10.6402 18.4477 10.6402 19C10.6402 19.5523 10.1928 20 9.64096 20C5.08407 20 1.24203 16.9481 0.0394301 12.7773C-0.113571 12.2466 0.192225 11.6923 0.722445 11.5392Z" fill="#B2B8BF"/>
<path d="M16.0031 9.6875C16.555 9.6875 17.0023 10.1352 17.0023 10.6875L17.0023 12.9097C17.0023 13.3946 17.1324 13.5515 17.1705 13.5894C17.2137 13.6324 17.3062 13.6875 17.502 13.6875C17.6869 13.6875 17.7825 13.6343 17.8302 13.5871C17.8711 13.5468 18.0016 13.3889 18.0016 12.9097V10.6875C18.0016 10.1352 18.4489 9.6875 19.0008 9.6875C19.5526 9.6875 20 10.1352 20 10.6875V14.6875C20 15.2398 19.5526 15.6875 19.0008 15.6875C18.7948 15.6875 18.6034 15.6251 18.4444 15.5183C18.1279 15.6396 17.8023 15.6875 17.502 15.6875C16.9337 15.6875 16.2767 15.5203 15.7615 15.0078C15.2413 14.4902 15.0039 13.7582 15.0039 12.9097L15.0039 10.6875C15.0039 10.1352 15.4513 9.6875 16.0031 9.6875Z" fill="#B2B8BF"/>
<path fill-rule="evenodd" clip-rule="evenodd" d="M11.1776 6.33638C11.0314 5.94607 10.6585 5.6875 10.242 5.6875C9.82551 5.6875 9.45268 5.94607 9.30643 6.33638L6.30877 14.3364C6.115 14.8535 6.3768 15.4299 6.89352 15.6238C7.41023 15.8177 7.9862 15.5557 8.17997 15.0386L8.83612 13.2875H11.6479L12.3041 15.0386C12.4979 15.5557 13.0738 15.8177 13.5905 15.6238C14.1072 15.4299 14.3691 14.8535 14.1753 14.3364L11.1776 6.33638ZM10.242 9.5355L10.8985 11.2875H9.58554L10.242 9.5355Z" fill="#B2B8BF"/>
</svg>
