<svg width="32" height="32" viewBox="0 0 32 32" fill="none" xmlns="http://www.w3.org/2000/svg">
<path fill-rule="evenodd" clip-rule="evenodd" d="M15 5C13.717 5 12.5488 5.47291 11.6588 6.25231C11.2433 6.61616 10.6116 6.5743 10.2477 6.15881C9.88385 5.74332 9.92571 5.11154 10.3412 4.74769C11.5833 3.66 13.2157 3 15 3C16.7843 3 18.4168 3.66 19.6588 4.74769C20.0743 5.11154 20.1162 5.74332 19.7523 6.15881C19.3885 6.5743 18.7567 6.61616 18.3412 6.25231C17.4512 5.47291 16.283 5 15 5ZM5 10.1113C5 9.00676 5.89543 8.11133 7 8.11133H23C24.1046 8.11133 25 9.00676 25 10.1113V11.0396C25 11.5919 24.5523 12.0396 24 12.0396C23.4477 12.0396 23 11.5919 23 11.0396V10.1113L7 10.1113V26.1113L11.1428 26.111C11.6951 26.111 12.1428 26.5587 12.1429 27.111C12.1429 27.6632 11.6952 28.111 11.1429 28.111L7.00012 28.1113C5.89551 28.1113 5 27.2159 5 26.1113V10.1113ZM16 21C16 18.2386 18.2386 16 21 16C23.7614 16 26 18.2386 26 21C26 23.7614 23.7614 26 21 26C18.2386 26 16 23.7614 16 21ZM21 14C17.134 14 14 17.134 14 21C14 24.866 17.134 28 21 28C24.866 28 28 24.866 28 21C28 17.134 24.866 14 21 14ZM20.9445 17.5C21.4967 17.5 21.9445 17.9477 21.9445 18.5V20.0557H23.5C24.0523 20.0557 24.5 20.5034 24.5 21.0557C24.5 21.6079 24.0523 22.0557 23.5 22.0557H21.9445V23.5C21.9445 24.0523 21.4967 24.5 20.9445 24.5C20.3922 24.5 19.9445 24.0523 19.9445 23.5V22.0557H18.5C17.9477 22.0557 17.5 21.6079 17.5 21.0557C17.5 20.5034 17.9477 20.0557 18.5 20.0557H19.9445V18.5C19.9445 17.9477 20.3922 17.5 20.9445 17.5Z" fill="#B2B8BF"/>
</svg>
