<svg width="32" height="32" viewBox="0 0 32 32" fill="none" xmlns="http://www.w3.org/2000/svg">
<path d="M9.66211 22.749C9.24841 23.1147 8.61681 23.0757 8.25098 22.6621C6.6453 20.8465 6.00008 18.3807 6 15.9561C6 10.4531 10.4818 6 16 6C21.5182 6 26 10.4531 26 15.9561C25.9999 18.4257 25.4332 20.8316 23.7363 22.6768C23.3625 23.0832 22.7298 23.11 22.3232 22.7363C21.9168 22.3625 21.89 21.7298 22.2637 21.3232C23.4966 19.9827 23.9999 18.1451 24 15.9561C24 11.567 20.4229 8 16 8C11.5771 8 8 11.567 8 15.9561C8.00008 17.9323 8.49637 19.7555 9.53418 21.0791L9.74902 21.3379L9.8125 21.418C10.1081 21.8296 10.0499 22.406 9.66211 22.749Z" fill="#21A19A"/>
<path fill-rule="evenodd" clip-rule="evenodd" d="M15 22C14.4477 22 14 21.5523 14 21V20.5H13.5C12.9477 20.5 12.5 20.0523 12.5 19.5C12.5 18.9477 12.9477 18.5 13.5 18.5H14V18H13.5C12.9477 18 12.5 17.5523 12.5 17C12.5 16.4477 12.9477 16 13.5 16H14V13C14 12.4477 14.4477 12 15 12H17.1562C18.2064 12 18.9918 12.394 19.4736 13.0605C19.9132 13.6688 20 14.3679 20 14.8271V14.9502C19.9999 15.4582 19.8628 16.1747 19.4502 16.7959C19.0047 17.4665 18.2459 18 17.1562 18H16V18.5H16.5C17.0523 18.5 17.5 18.9477 17.5 19.5C17.5 20.0523 17.0523 20.5 16.5 20.5H16V21C16 21.5523 15.5523 22 15 22ZM17.1562 16C17.5033 16 17.6671 15.8647 17.7842 15.6885C17.9338 15.4631 17.9999 15.1547 18 14.9502V14.8271C18 14.574 17.9444 14.3596 17.8525 14.2324C17.8141 14.1792 17.7631 14.13 17.6777 14.0898C17.588 14.0476 17.4273 14 17.1562 14H16V16H17.1562Z" fill="#21A19A"/>
<path d="M6.89746 26.9951C6.39333 26.9438 6 26.5177 6 26C6 25.4823 6.39333 25.0562 6.89746 25.0049L7 25H25C25.5523 25 26 25.4477 26 26C26 26.5523 25.5523 27 25 27H7L6.89746 26.9951Z" fill="#21A19A"/>
</svg>
