<svg width="20" height="20" viewBox="0 0 20 20" fill="none" xmlns="http://www.w3.org/2000/svg">
<path fill-rule="evenodd" clip-rule="evenodd" d="M11.023 2.62102C10.6324 2.23049 9.99928 2.23049 9.60876 2.62102L3.09123 9.13855C2.85628 9.37349 2.76187 9.69566 2.81081 10.004L2.82193 10.0741L2.82305 10.1451C2.827 10.3971 2.9243 10.6448 3.11581 10.8363L9.63334 17.3538C10.0239 17.7443 10.657 17.7443 11.0476 17.3538L12.8921 15.5092C13.2826 15.1187 13.2826 14.4856 12.8921 14.095L9.4793 10.6822C9.08878 10.2917 9.08878 9.65853 9.4793 9.26801L12.8675 5.87978C13.258 5.48926 13.258 4.8561 12.8675 4.46557L11.023 2.62102ZM8.19455 1.2068C9.36612 0.0352303 11.2656 0.0352333 12.4372 1.20681L14.2817 3.05136C15.4533 4.22293 15.4533 6.12243 14.2817 7.294L11.6006 9.97511L14.3063 12.6808C15.4779 13.8524 15.4779 15.7519 14.3063 16.9235L12.4618 18.768C11.2902 19.9396 9.3907 19.9396 8.21913 18.768L1.7016 12.2505C1.14619 11.6951 0.853805 10.974 0.82524 10.2473C0.705101 9.35427 0.988157 8.41319 1.67701 7.72434L8.19455 1.2068Z" fill="#B2B8BF"/>
<path d="M17.5 11.5C18.3284 11.5 19 10.8284 19 10C19 9.17157 18.3284 8.5 17.5 8.5C16.6716 8.5 16 9.17157 16 10C16 10.8284 16.6716 11.5 17.5 11.5Z" fill="#B2B8BF"/>
</svg>
