<svg width="32" height="32" viewBox="0 0 32 32" fill="none" xmlns="http://www.w3.org/2000/svg">
<path fill-rule="evenodd" clip-rule="evenodd" d="M7.99001 29H14.97C15.53 29 15.97 28.55 15.97 28C15.97 27.44 15.53 27 14.97 27H7.99001C7.91001 27 7.83001 26.99 7.75001 26.97C7.70001 26.95 7.65001 26.94 7.61001 26.92C7.55001 26.89 7.50001 26.87 7.46001 26.84C7.40001 26.8 7.34001 26.75 7.29001 26.7C7.24001 26.65 7.19001 26.59 7.15001 26.53C7.12001 26.49 7.10001 26.44 7.07001 26.38C7.05001 26.34 7.04001 26.29 7.02001 26.24C7.00001 26.16 6.99001 26.08 6.99001 26V6C6.99001 5.91 7.00001 5.83 7.02001 5.75C7.04001 5.7 7.05001 5.65 7.07001 5.61C7.10001 5.55 7.12001 5.5 7.15001 5.46C7.19001 5.4 7.24001 5.34 7.29001 5.29C7.34001 5.24 7.40001 5.19 7.46001 5.15C7.50001 5.12 7.55001 5.1 7.61001 5.07C7.65001 5.05 7.70001 5.04 7.75001 5.02C7.83001 5 7.91001 5 7.99001 5H19.99C20.08 5 20.16 5 20.24 5.02C20.29 5.04 20.34 5.05 20.38 5.07C20.44 5.1 20.49 5.12 20.53 5.15C20.59 5.19 20.65 5.24 20.7 5.29C20.75 5.34 20.8 5.4 20.84 5.46C20.87 5.5 20.89 5.55 20.92 5.61C20.94 5.65 20.95 5.7 20.97 5.75C20.99 5.83 20.99 5.91 20.99 6V14.98C20.99 15.54 21.43 15.98 21.99 15.98C22.55 15.98 22.99 15.54 22.99 14.98V6C22.99 5.78 22.97 5.56 22.93 5.36C22.89 5.18 22.83 5 22.76 4.83C22.69 4.66 22.6 4.49 22.5 4.34C22.39 4.17 22.26 4.02 22.12 3.87C21.97 3.73 21.82 3.6 21.65 3.49C21.5 3.39 21.33 3.3 21.16 3.23C20.99 3.16 20.81 3.1 20.63 3.06C20.43 3.02 20.21 3 19.99 3H7.99001C7.78001 3 7.56001 3.02 7.36001 3.06C7.18001 3.1 7.00001 3.16 6.83001 3.23C6.65001 3.3 6.49001 3.39 6.34001 3.49C6.17001 3.6 6.02001 3.73 5.87001 3.87C5.73001 4.02 5.60001 4.17 5.49001 4.34C5.39001 4.49 5.30001 4.66 5.23001 4.83C5.16001 5 5.10001 5.18 5.06001 5.36C5.02001 5.56 4.99001 5.78 4.99001 6V26C4.99001 26.21 5.02001 26.43 5.06001 26.63C5.10001 26.81 5.16001 26.99 5.23001 27.16C5.30001 27.33 5.39001 27.5 5.49001 27.65C5.60001 27.82 5.73001 27.97 5.87001 28.12C6.02001 28.26 6.17001 28.39 6.34001 28.5C6.49001 28.6 6.65001 28.69 6.83001 28.76C7.00001 28.83 7.18001 28.89 7.36001 28.93C7.56001 28.97 7.78001 29 7.99001 29ZM24.83 17.44C24.52 16.98 23.9 16.86 23.44 17.16C22.98 17.47 22.86 18.09 23.16 18.55L24.13 20H19.86L20.83 18.55C21.13 18.09 21.01 17.47 20.55 17.16C20.09 16.86 19.47 16.98 19.16 17.44L17.46 20H16C15.66 20 15.35 20.16 15.16 20.44C14.98 20.73 14.94 21.08 15.08 21.39L18.08 28.39C18.23 28.76 18.6 29 19 29H25C25.4 29 25.76 28.76 25.91 28.39L28.91 21.39C29.05 21.08 29.02 20.73 28.83 20.44C28.65 20.16 28.33 20 28 20H26.53L24.83 17.44ZM18.02 22H25.98H26.48L24.34 27H19.65L17.51 22H18.02Z" fill="#107F8C"/>
</svg>
