<svg width="32" height="32" viewBox="0 0 32 32" fill="none" xmlns="http://www.w3.org/2000/svg">
<path fill-rule="evenodd" clip-rule="evenodd" d="M4 10C4 6.68555 6.68628 4 10 4H22C25.3137 4 28 6.68555 28 10V22C28 25.3145 25.3137 28 22 28H10C6.68628 28 4 25.3145 4 22V10ZM10 6H22C24.2092 6 26 7.79102 26 10V22C26 24.209 24.2092 26 22 26H10C7.79077 26 6 24.209 6 22V10C6 7.79102 7.79077 6 10 6ZM19.5386 21.2578C19.7771 21.0977 20 20.9141 20.207 20.707C20.603 20.3105 20.603 19.6895 20.207 19.293C19.811 18.8965 19.189 18.8965 18.793 19.293C18.6797 19.4062 18.5576 19.5059 18.4272 19.5938C18.2966 19.6816 18.1575 19.7559 18.0098 19.8164C17.8616 19.877 17.7107 19.9238 17.5566 19.9531C17.4026 19.9844 17.2458 20 17.0857 20H16.5901C16.3896 20 16.1912 19.9844 15.9949 19.9551C15.824 19.9297 15.6548 19.8926 15.4873 19.8457C15.3171 19.7969 15.1516 19.7363 14.9907 19.666C14.8174 19.5918 14.6497 19.5039 14.4873 19.4023C14.3247 19.3027 14.1709 19.1914 14.0259 19.0703C13.8911 18.957 13.7639 18.8359 13.6443 18.7051C13.5264 18.5781 13.4177 18.4434 13.3184 18.3008C13.2041 18.1387 13.1021 17.9688 13.0125 17.7891C12.8716 17.5078 12.7661 17.2168 12.6958 16.9199C12.6252 16.6211 12.5901 16.3145 12.5901 16C12.5901 15.6855 12.6252 15.3789 12.6958 15.0801C12.7661 14.7832 12.8716 14.4922 13.0125 14.2109C13.1023 14.0312 13.2041 13.8613 13.3184 13.6992C13.4177 13.5566 13.5264 13.4219 13.6443 13.2949C13.7639 13.1641 13.8911 13.043 14.0259 12.9297C14.1709 12.8086 14.3247 12.6973 14.4873 12.5977C14.6497 12.4961 14.8176 12.4082 14.9907 12.334C15.1516 12.2637 15.3171 12.2031 15.4873 12.1543C15.6548 12.1074 15.824 12.0703 15.9949 12.0449C16.1912 12.0156 16.3896 12 16.5901 12H17.0857C17.2456 12 17.4026 12.0156 17.5566 12.0469C17.7107 12.0762 17.8616 12.123 18.0098 12.1836C18.1575 12.2441 18.2966 12.3184 18.4272 12.4062C18.5579 12.4941 18.6797 12.5938 18.793 12.707C19.189 13.1035 19.811 13.1035 20.207 12.707C20.603 12.3105 20.603 11.6895 20.207 11.293C20 11.0859 19.7771 10.9023 19.5386 10.7422C19.2998 10.584 19.0454 10.4473 18.7749 10.3359C18.5046 10.2246 18.2285 10.1406 17.9468 10.084C17.6653 10.0273 17.3784 10 17.0857 10H16.5901C16.2957 10 16.0044 10.0215 15.7163 10.0645C15.4536 10.1016 15.1934 10.1582 14.9358 10.2324C14.6772 10.3066 14.4258 10.3965 14.1816 10.5039C13.925 10.6172 13.6765 10.748 13.4358 10.8965C13.1951 11.0449 12.967 11.209 12.7517 11.3887C12.5469 11.5586 12.3533 11.7422 12.1714 11.9414C11.99 12.1387 11.8232 12.3457 11.6711 12.5645C11.5044 12.8027 11.3552 13.0527 11.2236 13.3164C11.0125 13.7383 10.854 14.1738 10.7485 14.6211C10.6428 15.0684 10.5901 15.5273 10.5901 16C10.5901 16.4727 10.6428 16.9316 10.7485 17.3789C10.854 17.8262 11.0125 18.2617 11.2236 18.6836C11.3552 18.9473 11.5044 19.1973 11.6711 19.4355C11.8232 19.6543 11.99 19.8613 12.1714 20.0586C12.3533 20.2578 12.5469 20.4414 12.7517 20.6113C12.967 20.791 13.1951 20.9551 13.4358 21.1035C13.6765 21.252 13.925 21.3828 14.1816 21.4961C14.4258 21.6035 14.6772 21.6934 14.9358 21.7676C15.1934 21.8418 15.4536 21.8984 15.7163 21.9355C16.0044 21.9785 16.2957 22 16.5901 22H17.0857C17.3784 22 17.6653 21.9727 17.9468 21.916C18.2285 21.8594 18.5044 21.7754 18.7749 21.6641C19.0454 21.5527 19.2998 21.416 19.5386 21.2578Z" fill="#B2B8BF"/>
</svg>
