<svg width="32" height="32" viewBox="0 0 32 32" fill="none" xmlns="http://www.w3.org/2000/svg">
<path d="M17.2665 4.74408C16.5298 4.1413 15.4703 4.1413 14.7336 4.74408L4.36679 13.226C3.93935 13.5757 3.87635 14.2057 4.22607 14.6332C4.5758 15.0606 5.20582 15.1236 5.63327 14.7739L16 6.29199L26.3668 14.7739C26.7942 15.1236 27.4243 15.0606 27.774 14.6332C28.1237 14.2057 28.0607 13.5757 27.6333 13.226L17.2665 4.74408Z" fill="#B2B8BF"/>
<path fill-rule="evenodd" clip-rule="evenodd" d="M20 15.9999C20 14.8954 19.1046 13.9999 18 13.9999H14C12.8954 13.9999 12 14.8954 12 15.9999V19.9999C12 21.1045 12.8954 21.9999 14 21.9999H18C19.1046 21.9999 20 21.1045 20 19.9999V15.9999ZM14 15.9999H18V19.9999H14V15.9999Z" fill="#B2B8BF"/>
<path d="M7 16.9999C7.55228 16.9999 8 17.4477 8 17.9999V23.9999C8 24.5522 8.44772 24.9999 9 24.9999H23C23.5523 24.9999 24 24.5522 24 23.9999V17.9999C24 17.4477 24.4477 16.9999 25 16.9999C25.5523 16.9999 26 17.4477 26 17.9999V23.9999C26 25.6568 24.6569 26.9999 23 26.9999H9C7.34315 26.9999 6 25.6568 6 23.9999V17.9999C6 17.4477 6.44772 16.9999 7 16.9999Z" fill="#B2B8BF"/>
</svg>
