<svg width="20" height="20" viewBox="0 0 20 20" fill="none" xmlns="http://www.w3.org/2000/svg">
<path fill-rule="evenodd" clip-rule="evenodd" d="M6.18058 14C6.1475 14 6.11478 14.0016 6.08252 14.0047C6.05026 14.0016 6.01755 14 5.98446 14C5.43217 14 4.98446 14.4477 4.98446 15L4.98446 17.0391C4.98446 17.5698 4.55424 18 4.02354 18C3.49284 18 3.06262 17.5698 3.06262 17.0391L3.06262 14C3.06262 13.9895 3.06246 13.979 3.06214 13.9686L3.06214 2L14.8541 2L14.8541 2.375C14.8541 2.92729 15.3018 3.375 15.8541 3.375C16.4064 3.375 16.8541 2.92728 16.8541 2.375L16.8541 2C16.8541 0.89543 15.9587 7.12068e-07 14.8541 9.05197e-07L3.06214 2.96697e-06C1.95757 3.1601e-06 1.06214 0.895435 1.06214 2L1.06214 14.5C1.06214 14.5105 1.0623 14.521 1.06262 14.5314L1.06262 17.0391C1.06262 18.6744 2.38827 20 4.02354 20C4.05121 20 4.07879 19.9996 4.10627 19.9989C4.12219 19.9996 4.1382 20 4.1543 20L15.75 20C17.4069 20 18.75 18.6569 18.75 17L18.75 15C18.75 14.7348 18.6446 14.4804 18.4571 14.2929C18.2696 14.1054 18.0152 14 17.75 14L6.18058 14ZM6.98446 16L16.75 16L16.75 17C16.75 17.5523 16.3023 18 15.75 18L6.82505 18C6.92837 17.6987 6.98446 17.3754 6.98446 17.0391L6.98446 16ZM20.0312 11.025C20.0312 11.9087 19.3148 12.625 18.4312 12.625C17.5475 12.625 16.8312 11.9087 16.8312 11.025C16.8312 10.1414 17.5475 9.42505 18.4312 9.42505C19.3148 9.42505 20.0312 10.1414 20.0312 11.025ZM13.6312 7.825C14.5149 7.825 15.2312 7.10866 15.2312 6.225C15.2312 5.34134 14.5149 4.625 13.6312 4.625C12.7476 4.625 12.0312 5.34135 12.0312 6.225C12.0312 7.10866 12.7476 7.825 13.6312 7.825ZM19.7969 5.99069C20.1094 5.67827 20.1094 5.17173 19.7969 4.85931C19.4845 4.5469 18.978 4.5469 18.6656 4.85932L12.2656 11.2593C11.9531 11.5717 11.9531 12.0783 12.2656 12.3907C12.578 12.7031 13.0845 12.7031 13.3969 12.3907L19.7969 5.99069ZM4.625 10.25C4.625 9.69771 5.07271 9.25 5.625 9.25L8.84375 9.25C9.39603 9.25 9.84375 9.69771 9.84375 10.25C9.84375 10.8023 9.39603 11.25 8.84375 11.25L5.625 11.25C5.07271 11.25 4.625 10.8023 4.625 10.25ZM5.625 4.84375C5.07271 4.84375 4.625 5.29146 4.625 5.84375C4.625 6.39604 5.07271 6.84375 5.625 6.84375L8.77478 6.84375C9.32706 6.84375 9.77478 6.39604 9.77477 5.84375C9.77477 5.29146 9.32706 4.84375 8.77477 4.84375L5.625 4.84375Z" fill="#B2B8BF"/>
</svg>
