<svg width="32" height="32" viewBox="0 0 32 32" fill="none" xmlns="http://www.w3.org/2000/svg">
<path fill-rule="evenodd" clip-rule="evenodd" d="M10 4C6.68629 4 4 6.68629 4 10V22C4 25.3137 6.68629 28 10 28H22C25.3137 28 28 25.3137 28 22V10C28 6.68629 25.3137 4 22 4H10ZM22 6H10C7.79086 6 6 7.79086 6 10V22C6 24.2091 7.79086 26 10 26H22C24.2091 26 26 24.2091 26 22V10C26 7.79086 24.2091 6 22 6ZM10.9739 10.5879C10.8169 10.2412 10.4679 10 10.0625 10C9.51022 10 9.0625 10.4477 9.0625 11V14V20.9375C9.0625 21.4898 9.51022 21.9375 10.0625 21.9375C10.6148 21.9375 11.0625 21.4898 11.0625 20.9375V17.4649C11.6508 17.8052 12.3339 18 13.0625 18C15.2716 18 17.0625 16.2091 17.0625 14C17.0625 11.7909 15.2716 10 13.0625 10C12.2971 10 11.5818 10.215 10.9739 10.5879ZM11.0625 14C11.0625 15.1046 11.9579 16 13.0625 16C14.1671 16 15.0625 15.1046 15.0625 14C15.0625 12.8954 14.1671 12 13.0625 12C11.9579 12 11.0625 12.8954 11.0625 14ZM21.0625 14C21.0625 13.4477 20.6148 13 20.0625 13C19.5102 13 19.0625 13.4477 19.0625 14V15C18.5102 15 18.0625 15.4477 18.0625 16C18.0625 16.5523 18.5102 17 19.0625 17V21C19.0625 21.5523 19.5102 22 20.0625 22C20.6148 22 21.0625 21.5523 21.0625 21V17H22.0625C22.6148 17 23.0625 16.5523 23.0625 16C23.0625 15.4477 22.6148 15 22.0625 15H21.0625V14Z" fill="#107F8C"/>
</svg>
