<svg width="20" height="20" viewBox="0 0 20 20" fill="none" xmlns="http://www.w3.org/2000/svg">
<path d="M3 10C3 6.13401 6.13401 3 10 3C10.754 3 11.4783 3.11887 12.1563 3.33813C12.6818 3.50808 13.2456 3.21986 13.4155 2.69438C13.5855 2.16889 13.2973 1.60513 12.7718 1.43518C11.8974 1.15239 10.9655 1 10 1C5.02944 1 1 5.02944 1 10C1 14.9706 5.02944 19 10 19C14.9706 19 19 14.9706 19 10C19 9.12226 18.8741 8.27221 18.6386 7.4678C18.4835 6.93776 17.928 6.63384 17.398 6.78898C16.8679 6.94413 16.564 7.49958 16.7191 8.02963C16.9017 8.65344 17 9.31438 17 10C17 13.866 13.866 17 10 17C6.13401 17 3 13.866 3 10Z" fill="#B2B8BF"/>
<path fill-rule="evenodd" clip-rule="evenodd" d="M8.8731 5.84889C8.03977 5.36972 7 5.97124 7 6.93252V13.062C7 14.0302 8.05324 14.6308 8.88651 14.1378L14.1403 11.0293C14.9642 10.5419 14.9568 9.34709 14.1269 8.8699L8.8731 5.84889ZM9 11.7468V8.22893L12.0153 9.96277L9 11.7468Z" fill="#B2B8BF"/>
</svg>
