<svg width="32" height="32" viewBox="0 0 32 32" fill="none" xmlns="http://www.w3.org/2000/svg">
<path fill-rule="evenodd" clip-rule="evenodd" d="M4 10C4 6.6875 6.68652 4 10 4H22C25.3135 4 28 6.6875 28 10V22C28 25.3125 25.3135 28 22 28H10C6.68652 28 4 25.3125 4 22V10ZM10 6H22C24.209 6 26 7.79102 26 10V22C26 24.209 24.209 26 22 26H10C7.79102 26 6 24.209 6 22V10C6 7.79102 7.79102 6 10 6ZM19.3135 15.5977C19.6951 15.8086 20.0159 16.0723 20.2764 16.3867C20.4084 16.5508 20.5579 16.7695 20.6523 16.9551C20.884 17.4102 21 17.9258 21 18.5C21 19.0742 20.884 19.5898 20.6523 20.0449C20.5579 20.2305 20.4446 20.4043 20.3125 20.5703C19.9602 20.9941 19.4602 21.3711 18.8848 21.6094C18.4929 21.7734 18.0667 21.8867 17.6064 21.9512C17.3733 21.9844 17.1711 22 17 22H13.5C13.3953 22 13.2922 21.9902 13.1914 21.9688C13.0977 21.9492 13.0059 21.9199 12.916 21.8828C12.8281 21.8438 12.7451 21.8008 12.667 21.748C12.5857 21.6934 12.5098 21.6309 12.4395 21.5605C12.3691 21.4902 12.3066 21.4141 12.252 21.332C12.2 21.2539 12.1553 21.1719 12.1182 21.084C12.0803 20.9941 12.0515 20.9023 12.0312 20.8086C12.0105 20.707 12 20.6055 12 20.5V11.5C12 11.3945 12.0105 11.293 12.0312 11.1914C12.0515 11.0977 12.0803 11.0059 12.1182 10.916C12.1553 10.8281 12.2 10.7461 12.252 10.668C12.3066 10.5859 12.3691 10.5098 12.4395 10.4395C12.5098 10.3691 12.5857 10.3066 12.667 10.252C12.7451 10.1992 12.8281 10.1562 12.916 10.1172C13.0059 10.0801 13.0977 10.0508 13.1914 10.0312C13.2922 10.0098 13.3953 10 13.5 10H16.877C17.0754 10 17.262 10.0293 17.4365 10.0879C17.6475 10.1582 17.8562 10.25 18.0625 10.3594C18.3738 10.5254 18.6523 10.7207 18.8984 10.9492C19.1497 11.1797 19.3591 11.4375 19.5264 11.7188C19.5779 11.8047 19.6252 11.8945 19.6689 11.9844C19.708 12.0664 19.7439 12.1504 19.7764 12.2363C19.9255 12.6289 20 13.0508 20 13.5C20 13.9668 19.9202 14.4004 19.7607 14.8047C19.7029 14.9492 19.6345 15.0918 19.5557 15.2305C19.5205 15.293 19.4834 15.3535 19.4443 15.4121C19.4026 15.4746 19.3591 15.5352 19.3135 15.5977ZM16.8467 15H14V12H16.8457C16.9368 12.0332 17.0293 12.0742 17.123 12.125C17.2825 12.209 17.4219 12.3066 17.541 12.418C17.668 12.5352 17.7686 12.666 17.8428 12.8086C17.9475 13.0117 18 13.2422 18 13.5C18 13.7812 17.9397 14.0273 17.8193 14.2383C17.7209 14.4102 17.5813 14.5645 17.4004 14.6992C17.2585 14.8066 17.0198 14.9277 16.8467 15ZM14 17V20H17C17.0789 20 17.1892 19.9902 17.3311 19.9707C17.6208 19.9297 17.8821 19.8613 18.1152 19.7656C18.3953 19.6484 18.6067 19.5 18.75 19.3203C18.9133 19.1133 19 18.8359 19 18.5C19 18.1641 18.9182 17.8926 18.7549 17.6855C18.6116 17.5059 18.3953 17.3516 18.1152 17.2344C17.8821 17.1387 17.6208 17.0703 17.3311 17.0293C17.1892 17.0098 17.0789 17 17 17H14Z" fill="#B2B8BF"/>
</svg>
