<svg width="32" height="32" viewBox="0 0 32 32" fill="none" xmlns="http://www.w3.org/2000/svg">
<path d="M10.3126 12.125C9.86383 12.125 9.50006 12.4888 9.50006 12.9375C9.50006 13.3862 9.86383 13.75 10.3126 13.75H21.6876C22.1363 13.75 22.5001 13.3862 22.5001 12.9375C22.5001 12.4888 22.1363 12.125 21.6876 12.125H10.3126Z" fill="#107F8C"/>
<path d="M10.3126 15.375C9.86383 15.375 9.50006 15.7388 9.50006 16.1875C9.50006 16.6362 9.86383 17 10.3126 17H21.6876C22.1363 17 22.5001 16.6362 22.5001 16.1875C22.5001 15.7388 22.1363 15.375 21.6876 15.375H10.3126Z" fill="#107F8C"/>
<path d="M9.50006 19.4375C9.50006 18.9888 9.86383 18.625 10.3126 18.625H18.4376C18.8863 18.625 19.2501 18.9888 19.2501 19.4375C19.2501 19.8862 18.8863 20.25 18.4376 20.25H10.3126C9.86383 20.25 9.50006 19.8862 9.50006 19.4375Z" fill="#107F8C"/>
<path fill-rule="evenodd" clip-rule="evenodd" d="M16.0001 3C8.82036 3 3.00006 8.8203 3.00006 16C3.00006 23.2621 9.53394 29 17.0001 29C22.2456 29 26.7676 27.5769 29.5308 24.8661C30.1469 24.2617 29.805 23.2743 29.0326 23.0946L28.7688 23.0332C27.7196 22.7892 26.8237 22.5808 25.9556 22.3807C26.4533 21.8945 26.9139 21.3348 27.3099 20.7639C28.1904 19.4945 28.9165 17.9319 28.9983 16.5595C29.2581 12.1982 27.8217 8.77519 25.3537 6.45185C22.9045 4.14627 19.5223 3 16.0001 3ZM5.00006 16C5.00006 9.92487 9.92493 5 16.0001 5C19.1052 5 21.9669 6.01037 23.9828 7.9081C25.9799 9.78808 27.2297 12.6151 27.0018 16.4405C26.9512 17.2911 26.4495 18.4952 25.6665 19.624C24.877 20.7622 23.9663 21.5871 23.2981 21.8541C22.8036 22.0518 22.6153 22.5261 22.6379 22.8977C22.6607 23.2737 22.9146 23.7387 23.4551 23.861C24.5563 24.1101 25.5512 24.3393 26.6728 24.5995C24.3514 26.1125 21.0115 27 17.0001 27C10.4662 27 5.00006 21.9927 5.00006 16Z" fill="#107F8C"/>
</svg>
