<svg width="32" height="32" viewBox="0 0 32 32" fill="none" xmlns="http://www.w3.org/2000/svg">
<path d="M9 7C8.44772 7 8 7.44772 8 8C8 8.55228 8.44772 9 9 9H24V10C24 10.5523 24.4477 11 25 11C25.5523 11 26 10.5523 26 10V8C26 7.44772 25.5523 7 25 7H9Z" fill="#B2B8BF"/>
<path d="M4 13C4 11.8954 4.89543 11 6 11H16C16.5523 11 17 11.4477 17 12C17 12.5523 16.5523 13 16 13L6 13V20.9999L12.1428 20.9997C12.6951 20.9997 13.1428 21.4473 13.1429 21.9996C13.1429 22.5519 12.6952 22.9997 12.1429 22.9997L6.00012 22.9999C4.89551 23 4 22.1046 4 20.9999V13Z" fill="#B2B8BF"/>
<path fill-rule="evenodd" clip-rule="evenodd" d="M21.9383 13.5486L18.8742 15.9998H17.5C16.1193 15.9998 15 17.1191 15 18.4998V20.4998C15 21.7093 15.8589 22.7182 17 22.9498V24.9999C17 25.5522 17.4477 25.9999 18 25.9999C18.5523 25.9999 19 25.5522 19 24.9999V23.0217L21.9383 25.3723C23.5752 26.6819 26 25.5164 26 23.4202V22.4605C27.6569 22.4605 29 21.1174 29 19.4605C29 17.8037 27.6569 16.4605 26 16.4605V15.5008C26 13.4045 23.5752 12.2391 21.9383 13.5486ZM17.5 20.9998H19.6742L23.1877 23.8106C23.515 24.0725 24 23.8394 24 23.4202V15.5008C24 15.0815 23.515 14.8484 23.1877 15.1104L19.5758 17.9998H17.5C17.2239 17.9998 17 18.2237 17 18.4998V20.4998C17 20.776 17.2239 20.9998 17.5 20.9998ZM27 19.4605C27 20.0128 26.5523 20.4605 26 20.4605V18.4605C26.5523 18.4605 27 18.9082 27 19.4605Z" fill="#B2B8BF"/>
</svg>
