<svg width="20" height="20" viewBox="0 0 20 20" fill="none" xmlns="http://www.w3.org/2000/svg">
<path d="M9.99997 11.9997C10.5522 11.9997 10.9999 12.4474 10.9999 12.9996V15.9996C10.9999 16.5166 11.1663 16.8141 11.332 16.9799C11.5072 17.1551 11.7473 17.2495 11.9999 17.2495C12.2525 17.2495 12.4926 17.1551 12.6678 16.9799C12.8336 16.8141 12.9999 16.5166 12.9999 15.9996C12.9999 15.4473 13.4476 14.9996 13.9999 14.9996C14.5521 14.9996 14.9998 15.4473 14.9998 15.9996C14.9998 16.9825 14.6662 17.8099 14.082 18.3941C13.5072 18.9689 12.7473 19.2495 11.9999 19.2495C11.2526 19.2495 10.4926 18.9689 9.91787 18.3941C9.33368 17.8099 9 16.9825 9 15.9996V12.9996C9 12.4474 9.4477 11.9997 9.99997 11.9997Z" fill="#B2B8BF"/>
<path fill-rule="evenodd" clip-rule="evenodd" d="M9.99997 0C10.5522 0 10.9999 0.447703 10.9999 0.999973V1.99995C10.9999 2.01159 10.9997 2.02319 10.9994 2.03474C15.3727 2.34312 18.6108 4.66563 19.9121 7.56537C19.9733 7.7018 20.0014 7.84468 19.9999 7.985C20.0063 8.4093 19.74 8.80713 19.316 8.94847L16.3161 9.94844C16.1108 10.0169 15.8889 10.0169 15.6836 9.94844L12.9999 9.05387L10.3258 9.94524C10.1251 10.0146 9.9008 10.0208 9.68378 9.94844L7.00008 9.05387L4.31638 9.94844C4.11112 10.0169 3.8892 10.0169 3.68394 9.94844L0.684025 8.94847C0.229029 8.7968 -0.0443808 8.34975 0.0059335 7.8916C0.0150964 7.78178 0.0427089 7.67162 0.0903892 7.56537C1.39137 4.66618 4.62849 2.344 9.0006 2.03491C9.0002 2.02331 9 2.01165 9 1.99995V0.999973C9 0.447703 9.4477 0 9.99997 0ZM10.0012 3.99989L10.0001 3.99989C6.37771 3.99989 3.77135 5.54699 2.45753 7.43151L4.00016 7.94572L6.68386 7.05115C6.88912 6.98273 7.11104 6.98273 7.3163 7.05115L10 7.94572L12.6837 7.05115C12.889 6.98273 13.1109 6.98273 13.3161 7.05115L15.9998 7.94572L17.5444 7.43085C16.2305 5.54663 13.6243 3.99989 10.0024 3.99989L10.0012 3.99989Z" fill="#B2B8BF"/>
</svg>
