<svg width="20" height="20" viewBox="0 0 20 20" fill="none" xmlns="http://www.w3.org/2000/svg">
<path fill-rule="evenodd" clip-rule="evenodd" d="M7.49963 0C5.01447 0 2.99985 2.01462 2.99985 4.49978C2.99985 6.98494 5.01447 8.99956 7.49963 8.99956C9.98479 8.99956 11.9994 6.98494 11.9994 4.49978C11.9994 2.01462 9.98479 0 7.49963 0ZM4.99976 4.49978C4.99976 3.11914 6.11899 1.9999 7.49963 1.9999C8.88028 1.9999 9.99951 3.11914 9.99951 4.49978C9.99951 5.88042 8.88028 6.99966 7.49963 6.99966C6.11899 6.99966 4.99976 5.88042 4.99976 4.49978Z" fill="#107F8C"/>
<path d="M7.44352 12.4693C6.08002 12.4693 4.75983 11.9986 3.69818 11.142C2.61842 12.2002 1.9999 13.6679 1.9999 15.2069C1.9999 15.4659 2.01867 15.7318 2.05589 15.9993H7.44352C7.99577 15.9993 8.44347 16.447 8.44347 16.9992C8.44347 17.5515 7.99577 17.9992 7.44352 17.9992H1.82727C0.971486 17.9992 0.263141 17.3757 0.118966 16.5544C0.0408362 16.1076 0 15.654 0 15.2069C0 13.0265 0.921037 10.9442 2.5326 9.49364L2.53402 9.49236C3.18621 8.90761 4.16589 8.90165 4.82511 9.47702L4.82696 9.47863C5.55731 10.1193 6.48703 10.4694 7.44352 10.4694C7.86831 10.4694 8.28658 10.4007 8.68426 10.2685C9.20835 10.0944 9.77437 10.3781 9.9485 10.9022C10.1226 11.4263 9.83894 11.9923 9.31486 12.1664C8.71571 12.3655 8.08461 12.4693 7.44352 12.4693Z" fill="#107F8C"/>
<path d="M15.6587 12.0727C14.0424 11.7085 12.437 12.7236 12.0728 14.3398C11.7087 15.9561 12.7237 17.5615 14.3399 17.9257C15.9562 18.2898 17.5617 17.2748 17.9258 15.6585C18.0472 15.1198 18.5823 14.7815 19.1211 14.9028C19.6598 15.0242 19.9982 15.5594 19.8768 16.0981C19.2699 18.7919 16.5941 20.4836 13.9004 19.8767C11.2066 19.2697 9.5149 16.594 10.1218 13.9002C10.7288 11.2065 13.4045 9.51476 16.0983 10.1217C16.637 10.2431 16.9753 10.7782 16.854 11.317C16.7326 11.8557 16.1974 12.1941 15.6587 12.0727Z" fill="#107F8C"/>
<path d="M18.6393 13.7676C19.0635 13.414 19.1209 12.7835 18.7673 12.3592C18.4138 11.935 17.7832 11.8777 17.359 12.2312L15.0606 14.1465L14.7064 13.7922C14.3159 13.4017 13.6827 13.4017 13.2922 13.7922C12.9017 14.1828 12.9017 14.8159 13.2922 15.2064L14.2922 16.2063C14.6579 16.572 15.2421 16.5985 15.6394 16.2675L18.6393 13.7676Z" fill="#107F8C"/>
</svg>
