<svg width="20" height="22" viewBox="0 0 20 22" fill="none" xmlns="http://www.w3.org/2000/svg">
<path fill-rule="evenodd" clip-rule="evenodd" d="M10 0.638672C4.47718 0.638672 2.8797e-05 5.11582 2.8797e-05 10.6387C2.8797e-05 12.505 0.512197 14.2542 1.40378 15.7506L0.0649001 19.2844C-0.0744764 19.6522 0.0147628 20.0676 0.292922 20.3458C0.571081 20.6239 0.986479 20.7132 1.35434 20.5738L4.88806 19.2349C6.38447 20.1265 8.13369 20.6387 10 20.6387C15.5229 20.6387 20 16.1615 20 10.6387C20 5.11582 15.5229 0.638672 10 0.638672ZM2.00003 10.6387C2.00003 6.22039 5.58175 2.63867 10 2.63867C14.4183 2.63867 18 6.22039 18 10.6387C18 15.0569 14.4183 18.6387 10 18.6387C8.35404 18.6387 6.82693 18.1427 5.55629 17.2921C5.28747 17.1122 4.94822 17.0734 4.64572 17.188L2.72173 17.917L3.45071 15.993C3.56532 15.6905 3.52653 15.3512 3.34659 15.0824C2.49605 13.8118 2.00003 12.2847 2.00003 10.6387Z" fill="#B2B8BF"/>
<path d="M16.6783 12.3009C16.3751 11.8011 15.1117 11.861 13.8611 11.8803C13.8611 11.8803 13.2242 11.8803 12.0401 11.8803C10.8561 11.8803 7.98341 11.3705 7.0113 9.41031C6.72138 8.82572 6.5775 8.36849 6.55279 7.80354C6.52807 7.23858 6.63654 6.67579 6.86919 6.16188C7.18838 5.53154 7.63952 4.97957 8.19102 4.54463C8.74253 4.10968 9.38108 3.80225 10.062 3.64387C8.87959 3.63896 7.7155 3.93997 6.67971 4.51845C6.14482 4.82802 5.65129 5.20592 5.21121 5.6429C4.71301 6.16553 4.3382 6.79602 4.11501 7.48688C3.89182 8.17775 3.82608 8.91098 3.92272 9.63136C4.05253 10.3917 4.35001 11.1126 4.79295 11.74C5.2359 12.3674 5.81286 12.8851 6.48075 13.2546C8.47325 14.4999 10.8799 14.4181 12.5749 14.3604L12.5916 14.3598H13.539C14.3064 14.3598 14.8464 14.4463 15.0264 14.8212C15.0706 14.9586 15.0706 15.1066 15.0264 15.244C15.0264 15.3113 15.0928 15.3305 15.1496 15.244C15.8746 14.4195 16.3275 13.6965 16.5986 12.6265L16.6783 12.3009Z" fill="#B2B8BF"/>
<path d="M12.623 17.0324C12.5508 16.6584 11.677 16.5873 10.5919 16.4981C9.77987 16.4415 8.97312 16.3183 8.17874 16.1296C7.12837 15.8783 6.14821 15.3659 5.31775 14.6339C4.4873 13.9019 3.82996 12.971 3.39904 11.9166C3.29655 11.7473 3.29655 11.7771 3.29655 11.9564C3.52694 13.1073 4.01771 14.1803 4.72589 15.0814C5.43408 15.9826 6.33811 16.6844 7.35883 17.1256C8.44477 17.5949 9.28954 17.6335 9.53546 17.6335C9.78137 17.6335 10.0166 17.6335 10.1167 17.6335C10.9763 17.6059 11.8335 17.3965 12.623 17.0324Z" fill="#B2B8BF"/>
<path d="M8.6079 7.68753C8.51456 7.27902 8.55408 6.81336 8.58824 6.62437C8.62239 6.43538 8.67931 6.30104 8.67931 6.30104C8.83187 5.85475 9.01417 5.57666 9.34271 5.24114C9.67124 4.90562 10.0745 4.65094 10.5202 4.49747C11.0191 4.31302 11.5481 4.22131 12.0806 4.22696H12.2464C12.3821 4.23017 12.5153 4.26317 12.6365 4.32357C13.1286 4.5753 13.6013 4.86269 14.0507 5.18341C13.614 5.16689 13.1772 5.21243 12.7536 5.31867C12.526 5.39291 12.3193 5.51899 12.1499 5.68678C11.9805 5.85458 11.8532 6.0594 11.7783 6.28478C11.7349 6.45252 11.7335 6.62822 11.7743 6.7966C11.8151 6.96498 11.8968 7.12093 12.0124 7.25089C12.4629 7.60639 12.9941 7.84764 13.5601 7.95371C14.126 8.05977 14.7095 8.02745 15.26 7.85954C15.5458 7.76524 15.8037 7.60265 16.0109 7.38614C16.3257 7.9534 16.5588 8.56151 16.7034 9.19277C16.3714 9.73234 15.8615 10.1418 15.26 10.3521C14.2 10.6951 13.0631 10.731 11.9832 10.4554C10.9033 10.1798 9.92537 9.60434 9.16459 8.79667C8.89214 8.47639 8.70123 8.09603 8.6079 7.68753Z" fill="#B2B8BF"/>
</svg>
