<svg width="20" height="20" viewBox="0 0 20 20" fill="none" xmlns="http://www.w3.org/2000/svg">
<path fill-rule="evenodd" clip-rule="evenodd" d="M15 2C16.6569 2 18 3.34315 18 5V15C18 16.6569 16.6569 18 15 18H5C3.34315 18 2 16.6569 2 15V5C2 3.34315 3.34315 2 5 2H15ZM4 15C4 15.5523 4.44772 16 5 16H15C15.5523 16 16 15.5523 16 15V8H13V10C13 11.1046 12.1046 12 11 12H9C7.89543 12 7 11.1046 7 10V8H4V15ZM9 10H11V8H9V10ZM5 4C4.44772 4 4 4.44772 4 5V6H16V5C16 4.44772 15.5523 4 15 4H5Z" fill="#21A19A"/>
</svg>
