<svg width="32" height="32" viewBox="0 0 32 32" fill="none" xmlns="http://www.w3.org/2000/svg">
<path fill-rule="evenodd" clip-rule="evenodd" d="M13 5C10.2386 5 8 7.23858 8 10C8 12.7614 10.2386 15 13 15C15.7614 15 18 12.7614 18 10C18 7.23858 15.7614 5 13 5ZM10 10C10 8.34315 11.3431 7 13 7C14.6569 7 16 8.34315 16 10C16 11.6569 14.6569 13 13 13C11.3431 13 10 11.6569 10 10Z" fill="#21A19A"/>
<path d="M12.9155 18.6344C11.2336 18.6344 9.59799 18.0647 8.30338 17.0191C6.83147 18.2826 6 20.0735 6 21.9368C6 22.2838 6.03082 22.6414 6.09186 23H12.9155C13.4678 23 13.9155 23.4477 13.9155 24C13.9155 24.5523 13.4678 25 12.9155 25H6.01631C5.12926 25 4.31607 24.3876 4.14474 23.473C4.04967 22.9636 4 22.4464 4 21.9368C4 19.4456 5.12365 17.0842 7.0598 15.4512L7.06126 15.45C7.76898 14.8554 8.81023 14.85 9.52432 15.4341L9.5262 15.4356C10.4628 16.2054 11.6665 16.6344 12.9155 16.6344C14.189 16.6344 15.4105 16.1901 16.3555 15.3935C16.7778 15.0375 17.4086 15.0913 17.7646 15.5136C18.1205 15.9358 18.0668 16.5667 17.6445 16.9227C16.3317 18.0294 14.6512 18.6344 12.9155 18.6344Z" fill="#21A19A"/>
<path fill-rule="evenodd" clip-rule="evenodd" d="M19 19C17.3431 19 16 20.3431 16 22V27C16 28.6569 17.3431 30 19 30H27C28.6569 30 30 28.6569 30 27V22C30 20.3431 28.6569 19 27 19H19ZM22 21V24C22 24.5523 22.4477 25 23 25C23.5523 25 24 24.5523 24 24V21H27C27.5523 21 28 21.4477 28 22V27C28 27.5523 27.5523 28 27 28H19C18.4477 28 18 27.5523 18 27V22C18 21.4477 18.4477 21 19 21H22Z" fill="#21A19A"/>
</svg>
