<svg width="32" height="32" viewBox="0 0 32 32" fill="none" xmlns="http://www.w3.org/2000/svg">
<path d="M25 27C25.5523 27 26 26.5523 26 26C26 25.4477 25.5523 25 25 25H7C6.44772 25 6 25.4477 6 26C6 26.5523 6.44772 27 7 27H25Z" fill="#107F8C"/>
<path d="M9.6625 22.7491C9.2488 23.115 8.61683 23.0762 8.25094 22.6625C6.64503 20.8468 6 18.3805 6 15.9556C6 10.4526 10.4818 6 16 6C21.5182 6 26 10.4526 26 15.9556C26 18.4255 25.4332 20.8316 23.736 22.6769C23.3622 23.0834 22.7296 23.1099 22.3231 22.736C21.9166 22.3622 21.8901 21.7296 22.264 21.3231C23.497 19.9824 24 18.1449 24 15.9556C24 11.5665 20.4229 8 16 8C11.5771 8 8 11.5665 8 15.9556C8 18.064 8.56454 19.9982 9.74906 21.3375C10.115 21.7512 10.0762 22.3832 9.6625 22.7491Z" fill="#107F8C"/>
<path d="M20.5613 17.7852C20.9954 17.4537 21.0959 16.8085 20.7858 16.3443C20.4758 15.88 19.8725 15.7725 19.4384 16.1041L16.9998 17.9669L16.9998 11.8883C16.9998 11.3973 16.5521 10.9994 15.9998 10.9994C15.4476 10.9994 14.9998 11.3973 14.9998 11.8883V17.9669L12.5613 16.1041C12.1272 15.7725 11.5239 15.88 11.2139 16.3443C10.9038 16.8085 11.0043 17.4537 11.4384 17.7852L15.4384 20.8408C15.7743 21.0974 16.2254 21.0974 16.5613 20.8408L20.5613 17.7852Z" fill="#107F8C"/>
</svg>
