<svg width="20" height="20" viewBox="0 0 20 20" fill="none" xmlns="http://www.w3.org/2000/svg">
<path d="M10 7C8.34315 7 7 8.34315 7 10C7 11.6569 8.34315 13 10 13C10.8959 13 11.6991 12.6086 12.2503 11.9841C12.6157 11.57 13.2477 11.5306 13.6617 11.8961C14.0758 12.2616 14.1152 12.8935 13.7497 13.3076C12.835 14.3439 11.4935 15 10 15C7.23858 15 5 12.7614 5 10C5 7.23858 7.23858 5 10 5C11.2674 5 12.4267 5.47284 13.3076 6.25026C13.7216 6.61573 13.761 7.24766 13.3956 7.66173C13.0301 8.0758 12.3982 8.1152 11.9841 7.74974C11.4546 7.28243 10.7615 7 10 7Z" fill="#B2B8BF"/>
<path fill-rule="evenodd" clip-rule="evenodd" d="M10 1C5.02944 1 1 5.02944 1 10V18C1 18.5523 1.44772 19 2 19H10C14.9706 19 19 14.9706 19 10C19 5.02944 14.9706 1 10 1ZM3 10C3 6.13401 6.13401 3 10 3C13.866 3 17 6.13401 17 10C17 13.866 13.866 17 10 17H3V10Z" fill="#B2B8BF"/>
</svg>
