<svg width="32" height="32" viewBox="0 0 32 32" fill="none" xmlns="http://www.w3.org/2000/svg">
<path fill-rule="evenodd" clip-rule="evenodd" d="M15.9829 12.0807C15.4424 10.9361 13.8146 10.937 13.2748 12.0812C12.859 12.9626 12.4573 13.8427 12.1588 14.6229C11.8743 15.3666 11.6287 16.1535 11.6287 16.8006C11.6287 18.6325 13.1035 19.8958 14.6287 19.8958C16.1539 19.8958 17.6287 18.6325 17.6287 16.8006C17.6287 16.1538 17.3835 15.367 17.0991 14.623C16.8008 13.8427 16.3992 12.9624 15.9829 12.0807ZM14.0268 15.3375C14.1929 14.9032 14.3987 14.4243 14.6291 13.9153C14.8594 14.4242 15.065 14.903 15.231 15.3371C15.514 16.0776 15.6287 16.558 15.6287 16.8006C15.6287 17.483 15.0947 17.8958 14.6287 17.8958C14.1626 17.8958 13.6287 17.483 13.6287 16.8006C13.6287 16.5582 13.7434 16.0781 14.0268 15.3375Z" fill="#107F8C"/>
<path fill-rule="evenodd" clip-rule="evenodd" d="M7.62866 7.5625C7.62866 5.90564 8.97181 4.5625 10.6287 4.5625H18.6287C20.2855 4.5625 21.6287 5.90565 21.6287 7.5625V9.13559C21.7447 9.08846 21.8717 9.0625 22.0046 9.0625C22.5569 9.0625 23.0046 9.51022 23.0046 10.0625V10.6198C24.3132 10.956 25.228 12.2231 25.7408 13.4914C26.3065 14.8903 26.5427 16.6454 26.2364 18.3196C25.9566 19.8486 25.2303 21.2774 24.332 22.3541C23.9782 22.7782 23.3476 22.8351 22.9235 22.4813C22.4995 22.1275 22.4425 21.4969 22.7963 21.0729C23.4928 20.238 24.0564 19.1214 24.269 17.9596C24.5026 16.6829 24.3196 15.3119 23.8867 14.2411C23.6155 13.5704 23.2964 13.1258 23.0046 12.8596V13.0625C23.0046 13.6148 22.5569 14.0625 22.0046 14.0625C21.8717 14.0625 21.7447 14.0365 21.6287 13.9894V26.5625H22.6287C23.1809 26.5625 23.6287 27.0102 23.6287 27.5625C23.6287 28.1148 23.1809 28.5625 22.6287 28.5625H6.62866C6.07638 28.5625 5.62866 28.1148 5.62866 27.5625C5.62866 27.0102 6.07638 26.5625 6.62866 26.5625H7.62866V7.5625ZM19.6287 7.5625V26.5625H9.62866V7.5625C9.62866 7.01022 10.0764 6.5625 10.6287 6.5625H18.6287C19.1809 6.5625 19.6287 7.01022 19.6287 7.5625Z" fill="#107F8C"/>
</svg>
