<svg width="20" height="20" viewBox="0 0 20 20" fill="none" xmlns="http://www.w3.org/2000/svg">
<path fill-rule="evenodd" clip-rule="evenodd" d="M3 1C1.34326 1 0 2.34375 0 4V11C0 12.6562 1.34326 14 3 14H6C6.55225 14 7 13.5527 7 13C7 12.4473 6.55225 12 6 12H3C2.44775 12 2 11.5527 2 11V4C2 3.44727 2.44775 3 3 3H13C13 3 14 3 14 2C14 1 13 1 13 1H3ZM9.00488 7C9.00488 5.34375 10.3481 4 12.0049 4H14.0049C15.6616 4 16 4.5 16.5 5C17 5.5 17 7 17 7H19.0024C19.5049 7 20 7.5 20 8.01367V13C20 13 20.0049 14 19.0024 14C18.0024 14 18 13.0039 18 13L18.0049 9C17.011 9 17.0049 9.97852 17.0049 10V17C17.5549 17.002 18 17.4492 18 18C18 18.5508 17.5549 18.998 17.0049 19H9C8.44775 19 8 18.5527 8 18C8 17.4473 8.44775 17 9 17H9.00488V7ZM5 5C4.44775 5 4 5.44727 4 6C4 6.55273 4.44775 7 5 7H7C7.55225 7 8 6.55273 8 6C8 5.44727 7.55225 5 7 5H5ZM15.0049 17H11.0049V7C11.0049 6.44727 11.4526 6 12.0049 6H14.0049C14.5571 6 15.0049 6.44727 15.0049 7V17ZM13.0024 8C12 8 12.0049 9 12.0049 9V11C12.0049 11.0098 12.0054 12 13.0024 12C14.0049 12 14 11 14 11V9C14 8.98828 13.9988 8 13.0024 8Z" fill="#107F8C"/>
</svg>
