<svg width="32" height="32" viewBox="0 0 32 32" fill="none" xmlns="http://www.w3.org/2000/svg">
<path d="M24.5928 18.1387C24.2298 17.5403 22.7969 17.5655 21.303 17.5919C21.1915 17.5938 21.0797 17.5958 20.968 17.5975H18.625C17.1016 17.5975 13.4054 16.9416 12.1546 14.4195C11.7816 13.6673 11.5965 13.0791 11.5647 12.3522C11.5329 11.6252 11.6725 10.9011 11.9718 10.2399C12.3825 9.42886 12.9629 8.71867 13.6725 8.15904C14.3821 7.59941 15.2037 7.20386 16.0798 7.00008C14.5585 6.99376 13.0607 7.38106 11.728 8.12536C11.0398 8.52367 10.4048 9.00991 9.83855 9.57215C9.19753 10.2446 8.71528 11.0558 8.42811 11.9447C8.14095 12.8336 8.05635 13.7771 8.1807 14.7039C8.34771 15.6823 8.73047 16.6097 9.30039 17.417C9.87031 18.2242 10.6127 18.8904 11.472 19.3658C14.0357 20.9681 17.1322 20.8628 19.3131 20.7886L19.3346 20.7879H20.5536C21.541 20.7879 22.2358 20.8992 22.4674 21.3814C22.5242 21.5582 22.5242 21.7487 22.4674 21.9255C22.4674 22.0121 22.5527 22.0368 22.6259 21.9255C23.5586 20.8646 24.1414 19.9344 24.4903 18.5576L24.5928 18.1387Z" fill="#B2B8BF"/>
<path d="M16.7703 23.5398L16.7616 23.5391C15.7169 23.4662 14.6788 23.3077 13.6567 23.0649C12.3053 22.7416 11.0441 22.0823 9.97563 21.1405C8.90712 20.1987 8.06134 19.0009 7.5069 17.6442C7.37503 17.4264 7.37503 17.4648 7.37503 17.6955C7.67146 19.1763 8.30291 20.5568 9.21411 21.7163C10.1253 22.8758 11.2885 23.7788 12.6018 24.3464C13.999 24.9503 15.086 25 15.4024 25H16.1503C17.2562 24.9644 18.3591 24.695 19.375 24.2266C19.2823 23.7464 18.1624 23.6543 16.7703 23.5398Z" fill="#B2B8BF"/>
<path d="M14.1836 10.835C14.1397 11.0781 14.0888 11.6773 14.2089 12.2029C14.329 12.7285 14.5746 13.2179 14.9252 13.63C15.9041 14.6692 17.1623 15.4096 18.5518 15.7642C19.9412 16.1188 21.404 16.0727 22.7679 15.6313C23.5419 15.3607 24.1978 14.8339 24.625 14.1396C24.439 13.3274 24.1391 12.545 23.7341 11.8151C23.4674 12.0937 23.1356 12.3029 22.7679 12.4242C22.0596 12.6402 21.3088 12.6818 20.5807 12.5454C19.8525 12.4089 19.1689 12.0985 18.5893 11.6411C18.4407 11.4739 18.3355 11.2732 18.283 11.0566C18.2306 10.8399 18.2323 10.6138 18.2881 10.398C18.3846 10.108 18.5483 9.8445 18.7663 9.62861C18.9842 9.41272 19.2502 9.25049 19.543 9.15497C20.088 9.01828 20.65 8.95968 21.2119 8.98094C20.6337 8.56828 20.0256 8.1985 19.3924 7.87462C19.2364 7.7969 19.065 7.75444 18.8905 7.75032H18.6771C17.992 7.74305 17.3113 7.86104 16.6694 8.09837C16.0959 8.29583 15.5771 8.62352 15.1544 9.05522C14.7317 9.48692 14.4971 9.84473 14.3008 10.4189C14.3008 10.4189 14.2276 10.5918 14.1836 10.835Z" fill="#B2B8BF"/>
<path fill-rule="evenodd" clip-rule="evenodd" d="M4 16C4 9.37258 9.37258 4 16 4C22.6274 4 28 9.37258 28 16C28 22.6274 22.6274 28 16 28C13.722 28 11.5898 27.3643 9.77418 26.2605L5.35431 27.9351C4.98645 28.0745 4.57105 27.9853 4.29289 27.7071C4.01473 27.4289 3.92549 27.0135 4.06487 26.6457L5.73951 22.2258C4.63569 20.4102 4 18.278 4 16ZM16 6C10.4772 6 6 10.4772 6 16C6 18.0571 6.62008 19.9664 7.68334 21.5549C7.86328 21.8237 7.90208 22.1629 7.78746 22.4654L6.7217 25.2783L9.53458 24.2125C9.83708 24.0979 10.1763 24.1367 10.4451 24.3167C12.0336 25.3799 13.9429 26 16 26C21.5228 26 26 21.5228 26 16C26 10.4772 21.5228 6 16 6Z" fill="#B2B8BF"/>
</svg>
