<svg width="32" height="32" viewBox="0 0 32 32" fill="none" xmlns="http://www.w3.org/2000/svg">
<path fill-rule="evenodd" clip-rule="evenodd" d="M13.6918 5.45117C14.4284 4.84961 15.4879 4.84961 16.2248 5.45117L19.9999 8.17578V6.05273C19.9999 5.5 20.4477 5 20.9999 5C21.5521 5 21.9999 5.5 21.9999 6.05273V9.44531C21.9999 9.5 21.9953 9.55664 21.9867 9.60938L26.5917 12.9336C27.0192 13.2852 27.0822 13.9141 26.7323 14.3398C26.3827 14.7695 25.7526 14.832 25.3251 14.4805L14.9582 7L4.59124 14.4805C4.16375 14.832 3.53362 14.7695 3.18401 14.3398C2.8344 13.9141 2.89739 13.2852 3.32464 12.9336L13.6918 5.45117ZM8.00091 16C8.00091 15.4473 7.55314 15 7.00091 15C6.44866 15 6.00091 15.4473 6.00091 16L5.99993 22C5.99993 23.6562 7.34319 25 8.99993 25H12.9999C12.9999 25 13.9999 25 13.9999 24C13.9999 23 12.9999 23 12.9999 23H8.99993C8.44768 23 7.99993 22.5527 7.99993 22L8.00091 16ZM19.9328 27.3086C20.3798 27.2012 20.7699 26.9863 21.1034 26.666C21.5065 26.2773 21.5175 25.6543 21.1288 25.252C20.7399 24.8477 20.1178 24.8379 19.7147 25.2266C19.6427 25.2949 19.5597 25.3418 19.466 25.3633C19.3729 25.3867 19.2785 25.3848 19.1823 25.3594C19.0885 25.3359 19.0087 25.293 18.9428 25.2305C18.8788 25.1699 18.8346 25.0977 18.8104 25.0098L17.005 18.5039L23.7538 20.2617C23.8539 20.2871 23.9367 20.334 24.0019 20.3984C24.0241 20.4355 24.1137 20.5684 24.1256 20.6113C24.1735 20.7852 24.1305 20.9375 23.9972 21.0664C23.5966 21.459 23.5897 22.0801 23.9811 22.4805C24.3725 22.8809 24.9948 22.8887 25.3952 22.498C25.7306 22.1699 25.9547 21.7832 26.0678 21.3398C26.1745 20.9199 26.1696 20.5 26.0531 20.0781C25.9372 19.6602 25.7262 19.2969 25.4206 18.9883C25.0988 18.666 24.7121 18.4453 24.2604 18.3262L17.5431 16.5684C17.1845 16.4746 16.8288 16.4766 16.4762 16.5742C16.143 16.666 15.8522 16.834 15.6039 17.0742C15.352 17.3184 15.1771 17.6074 15.0792 17.9395C14.974 18.2969 14.9718 18.6562 15.0727 19.0195L16.8832 25.543C17.0075 25.9922 17.2382 26.375 17.5751 26.6895C17.8878 26.9824 18.2553 27.1855 18.6769 27.2949C19.0963 27.4043 19.515 27.4102 19.9328 27.3086ZM21.5744 21.5195L24.0924 23.9648C24.1542 24.0254 24.2304 24.0547 24.3217 24.0547C24.4127 24.0547 24.4892 24.0254 24.5507 23.9648C24.7721 23.75 25.0268 23.5859 25.3141 23.4727C25.4423 23.4219 25.5727 23.3828 25.7052 23.3574C25.8581 23.3262 26.0141 23.3105 26.1732 23.3105C26.3324 23.3105 26.4884 23.3262 26.6415 23.3574C26.7741 23.3828 26.9044 23.4219 27.0324 23.4727C27.32 23.5859 27.5744 23.75 27.7958 23.9648L29.6911 25.7773C30.0958 26.1641 30.1098 26.7871 29.7228 27.1914C29.3358 27.5957 28.7138 27.6094 28.309 27.2227L26.4025 25.4004C26.3407 25.3398 26.2645 25.3105 26.1732 25.3105C26.0822 25.3105 26.0058 25.3398 25.9442 25.4004C25.7228 25.6152 25.4682 25.7793 25.1808 25.8926C24.9054 26.002 24.619 26.0547 24.3217 26.0547C24.0243 26.0547 23.7377 26.002 23.4625 25.8926C23.1749 25.7793 22.9206 25.6152 22.6991 25.4004L20.1811 22.9551C19.7792 22.5645 19.7702 21.9414 20.1603 21.541C20.5504 21.1387 21.1725 21.1289 21.5744 21.5195Z" fill="#B2B8BF"/>
</svg>
