<svg width="20" height="20" viewBox="0 0 20 20" fill="none" xmlns="http://www.w3.org/2000/svg">
<path fill-rule="evenodd" clip-rule="evenodd" d="M1 2C0.447715 2 0 2.44772 0 3V16C0 16.5523 0.447715 17 1 17H7C7.55228 17 8 16.5523 8 16C8 15.4477 7.55228 15 7 15H2V4H13V5.5C13 6.05228 13.4477 6.5 14 6.5C14.5523 6.5 15 6.05228 15 5.5V3C15 2.44772 14.5523 2 14 2H1ZM5 6C4.44772 6 4 6.44772 4 7C4 7.55228 4.44772 8 5 8H10C10.5523 8 11 7.55228 11 7C11 6.44772 10.5523 6 10 6H5ZM18.1716 15.7574C18.6951 14.967 19 14.0191 19 13C19 10.2386 16.7614 8 14 8C11.2386 8 9 10.2386 9 13C9 15.7614 11.2386 18 14 18C15.0191 18 15.967 17.6951 16.7574 17.1716L18.2929 18.7071C18.6834 19.0976 19.3166 19.0976 19.7071 18.7071C20.0976 18.3166 20.0976 17.6834 19.7071 17.2929L18.1716 15.7574ZM11 13C11 11.3431 12.3431 10 14 10C15.6569 10 17 11.3431 17 13C17 14.6569 15.6569 16 14 16C12.3431 16 11 14.6569 11 13Z" fill="#107F8C"/>
</svg>
