<svg width="20" height="20" viewBox="0 0 20 20" fill="none" xmlns="http://www.w3.org/2000/svg">
<path d="M7 10C7 8.34315 8.34315 7 10 7C10.7615 7 11.4546 7.28243 11.9841 7.74974C12.3982 8.1152 13.0301 8.0758 13.3956 7.66173C13.761 7.24766 13.7216 6.61573 13.3076 6.25026C12.4267 5.47284 11.2674 5 10 5C7.23858 5 5 7.23858 5 10C5 12.7614 7.23858 15 10 15C11.4935 15 12.835 14.3439 13.7497 13.3076C14.1152 12.8935 14.0758 12.2616 13.6617 11.8961C13.2477 11.5306 12.6157 11.57 12.2503 11.9841C11.6991 12.6086 10.8959 13 10 13C8.34315 13 7 11.6569 7 10Z" fill="#107F8C"/>
<path fill-rule="evenodd" clip-rule="evenodd" d="M10 0C4.47715 0 0 4.47715 0 10V19C0 19.5523 0.447715 20 1 20H10C15.5228 20 20 15.5228 20 10C20 4.47715 15.5228 0 10 0ZM2 10C2 5.58172 5.58172 2 10 2C14.4183 2 18 5.58172 18 10C18 14.4183 14.4183 18 10 18H2V10Z" fill="#107F8C"/>
</svg>
