<svg width="20" height="20" viewBox="0 0 20 20" fill="none" xmlns="http://www.w3.org/2000/svg">
<path fill-rule="evenodd" clip-rule="evenodd" d="M16.0151 1C16.0151 0.447266 15.5674 0 15.0151 0C14.4629 0 14.0151 0.447266 14.0151 1V2.73438L11.4756 0.703125C10.7605 0.132812 9.74904 0.121094 9.01931 0.671875L0.396263 7.20312C-0.0439222 7.53516 -0.130592 8.16406 0.202904 8.60352C0.5364 9.04297 1.16359 9.12891 1.60378 8.79688L10.2268 2.26562L18.3757 8.78125C18.8071 9.125 19.4363 9.05469 19.7812 8.625C20.126 8.19141 20.0559 7.5625 19.6245 7.21875L16.0151 4.33398V1ZM8.50026 6C7.94802 6 7.50026 6.44727 7.50026 7V10H7.00026C6.44802 10 6.00026 10.4473 6.00026 11C6.00026 11.5527 6.44802 12 7.00026 12H7.50026V12.5H7.00026C6.44802 12.5 6.00026 12.9473 6.00026 13.5C6.00026 14.0527 6.44802 14.5 7.00026 14.5H7.50026V15C7.50026 15.5527 7.94802 16 8.50026 16C9.05251 16 9.50026 15.5527 9.50026 15V14.5H10.0002C10.5525 14.5 11.0002 14.0527 11.0002 13.5C11.0002 12.9473 10.5525 12.5 10.0002 12.5H9.50026V12H10.6567C11.7466 12 12.5049 11.4648 12.9504 10.7949C13.363 10.1738 13.5002 9.45703 13.5002 8.94922V8.82617C13.5002 8.36719 13.4141 7.66797 12.9744 7.06055C12.4924 6.39453 11.707 6 10.6567 6H8.50026ZM9.50026 8V10H10.6567C11.0039 10 11.1672 9.86523 11.2844 9.6875C11.4343 9.46289 11.5002 9.1543 11.5002 8.94922V8.82617C11.5002 8.57422 11.4453 8.35938 11.3533 8.23242C11.3149 8.17773 11.2632 8.13086 11.1777 8.08984C11.0881 8.04688 10.9277 8 10.6567 8H9.50026ZM3.00002 10.1875C3.55227 10.1875 4.00002 10.6328 4.00002 11.1875V18H16V11.5C16 10.9453 16.4478 10.5 17 10.5C17.5522 10.5 18 10.9453 18 11.5V18C18 19.1035 17.1045 20 16 20H4.00002C2.89553 20 2.00002 19.1035 2.00002 18V11.1875C2.00002 10.6328 2.44777 10.1875 3.00002 10.1875Z" fill="#B2B8BF"/>
</svg>
