<svg width="20" height="20" viewBox="0 0 20 20" fill="none" xmlns="http://www.w3.org/2000/svg">
<path fill-rule="evenodd" clip-rule="evenodd" d="M14.0144 2C14.5667 2 15.0144 2.44727 15.0144 3V5.57031L17.6248 7.21875C18.0562 7.5625 18.1257 8.19141 17.781 8.625C17.436 9.05469 16.8071 9.125 16.3757 8.78125L9.22634 4.26562L1.60329 8.79688C1.16311 9.12891 0.5364 9.04297 0.202904 8.60352C-0.130592 8.16406 -0.0439222 7.53516 0.396263 7.20312L8.01882 2.67188C8.74831 2.12109 9.76003 2.13281 10.4749 2.70312L13.0144 4.30859V3C13.0144 2.44727 13.4622 2 14.0144 2ZM4.00002 10.293C4.00002 9.73828 3.55227 9.29297 3.00002 9.29297C2.44777 9.29297 2.00002 9.73828 2.00002 10.293V16C2.00002 17.1035 2.89553 18 4.00002 18H7.01857C7.01857 18 8.001 18 8.001 17C8.001 16 7.01857 16 7.01857 16H4.00002V10.293ZM12.7817 17.8223C12.9468 17.7344 13.0986 17.623 13.2373 17.4844C13.4968 17.2266 13.5876 16.8711 13.5095 16.5469L14.6511 17.6875C14.8235 17.8594 15.0222 17.9922 15.2473 18.084C15.4641 18.1719 15.6897 18.2148 15.9241 18.2148C16.0444 18.2148 16.1626 18.2031 16.2783 18.1797C16.3879 18.1582 16.4954 18.125 16.6008 18.084C16.8259 17.9922 17.0247 17.8594 17.197 17.6875C17.217 17.668 17.2644 17.6836 17.3386 17.7344L17.7815 18.1934C18.1702 18.5977 18.7922 18.6074 19.1956 18.2188C19.5984 17.8301 19.6099 17.209 19.2212 16.8047L18.7212 16.2871C18.6877 16.252 18.6521 16.2207 18.614 16.1914C18.3728 16.0039 18.1191 15.8672 17.8533 15.7812C17.5876 15.6973 17.3198 15.6641 17.05 15.6855C16.8 15.707 16.5618 15.7715 16.3352 15.8809C16.1892 15.9512 16.0544 16.0371 15.9309 16.1387L14.9236 15.1309C15.2495 15.209 15.6042 15.1191 15.8621 14.8594C16.115 14.6055 16.2842 14.3047 16.3694 13.9609C16.4492 13.6387 16.4456 13.3145 16.3586 12.9902C16.2717 12.668 16.1125 12.3867 15.8813 12.1465C15.635 11.8906 15.3386 11.7168 14.9919 11.623L10.2258 10.5254C10.0862 10.4922 9.94655 10.4902 9.80617 10.5195C9.15236 10.6484 8.8904 11.041 9.02053 11.6953L9.98635 16.5488C10.0798 16.8965 10.2693 17.2578 10.5242 17.5039C10.7639 17.7344 11.0452 17.8945 11.3689 17.9805C11.6926 18.0684 12.0159 18.0723 12.3391 17.9922C12.4958 17.9531 12.6436 17.8965 12.7817 17.8223ZM14.3699 13.5312L11.2839 12.8203L11.9141 15.9883C12.2014 15.7598 12.5764 15.7109 12.9006 15.8418C12.738 15.4766 12.8083 15.0391 13.1125 14.7344C13.4167 14.4316 13.8542 14.3594 14.22 14.5234C14.0886 14.1973 14.1384 13.8203 14.3699 13.5312Z" fill="#21A19A"/>
</svg>
