<svg width="32" height="32" viewBox="0 0 32 32" fill="none" xmlns="http://www.w3.org/2000/svg">
<path fill-rule="evenodd" clip-rule="evenodd" d="M22.296 2.62988C19.2625 2.62988 16.796 5.09618 16.796 8.12979C16.796 11.1636 19.2624 13.6299 22.296 13.6299C23.7075 13.6299 24.9963 13.0959 25.971 12.2191L27.7969 13.6299C28.1875 14.0204 28.8206 14.0204 29.2112 13.6299C29.6017 13.2394 29.6017 12.6062 29.2112 12.2157L27.1999 10.6196C27.581 9.87169 27.796 9.02547 27.796 8.12979C27.796 5.09618 25.3295 2.62988 22.296 2.62988ZM18.796 8.12979C18.796 6.20082 20.367 4.62988 22.296 4.62988C24.225 4.62988 25.796 6.20082 25.796 8.12979C25.796 10.059 24.2249 11.6299 22.296 11.6299C20.367 11.6299 18.796 10.059 18.796 8.12979Z" fill="#B2B8BF"/>
<path d="M7.99976 8.00035C7.44747 8.00035 6.99976 8.44807 6.99976 9.00035V19.2504C6.99976 19.8026 7.44747 20.2504 7.99976 20.2504H23.9998C24.552 20.2504 24.9998 19.8026 24.9998 19.2504V16.0004C24.9998 15.4481 25.4475 15.0004 25.9998 15.0004C26.552 15.0004 26.9998 15.4481 26.9998 16.0004V19.2504C26.9998 20.9072 25.6566 22.2504 23.9998 22.2504H16.9998V25.0004H20.9998C21.552 25.0004 21.9998 25.4481 21.9998 26.0004C21.9998 26.5526 21.552 27.0004 20.9998 27.0004H10.9998C10.4475 27.0004 9.99976 26.5526 9.99976 26.0004C9.99976 25.4481 10.4475 25.0004 10.9998 25.0004H14.9998V22.2504H7.99976C6.3429 22.2504 4.99976 20.9072 4.99976 19.2504V9.00035C4.99976 7.3435 6.3429 6.00035 7.99976 6.00035L14.7897 6C15.342 6 15.7897 6.44772 15.7897 7C15.7897 7.55228 15.342 8 14.7897 8L7.99976 8.00035Z" fill="#B2B8BF"/>
<path d="M9.99976 17C9.99976 17.5523 10.4475 18 10.9998 18C11.552 18 11.9998 17.5523 11.9998 17V12C11.9998 11.4477 11.552 11 10.9998 11C10.4475 11 9.99976 11.4477 9.99976 12V17Z" fill="#B2B8BF"/>
<path d="M15.9998 18C15.4475 18 14.9998 17.5523 14.9998 17V12C14.9998 11.4477 15.4475 11 15.9998 11C16.552 11 16.9998 11.4477 16.9998 12V17C16.9998 17.5523 16.552 18 15.9998 18Z" fill="#B2B8BF"/>
<path d="M19.9998 17C19.9998 17.5523 20.4475 18 20.9998 18C21.552 18 21.9998 17.5523 21.9998 17V16C21.9998 15.4477 21.552 15 20.9998 15C20.4475 15 19.9998 15.4477 19.9998 16V17Z" fill="#B2B8BF"/>
</svg>
