<svg width="20" height="20" viewBox="0 0 20 20" fill="none" xmlns="http://www.w3.org/2000/svg">
<path d="M9.4453 0.167948C9.7812 -0.0559826 10.2188 -0.0559826 10.5547 0.167948L19.5546 6.16788C20.0141 6.47423 20.1383 7.0951 19.8319 7.55462C19.5256 8.01414 18.9047 8.13832 18.4452 7.83197L10 2.20183L1.55479 7.83197C1.09527 8.13832 0.474403 8.01414 0.168054 7.55462C-0.138295 7.0951 -0.0141224 6.47423 0.445401 6.16788L9.4453 0.167948Z" fill="#B2B8BF"/>
<path d="M3.00009 9.99989C3.55237 9.99989 4.00008 10.4476 4.00008 10.9999V17.4514C4.00008 17.6428 4.2173 17.9998 4.75007 17.9998H15.25C15.7827 17.9998 16 17.6428 16 17.4514V10.9999C16 10.4476 16.4477 9.99989 16.9999 9.99989C17.5522 9.99989 17.9999 10.4476 17.9999 10.9999V17.4514C17.9999 18.9704 16.6502 19.9998 15.25 19.9998H4.75007C3.34987 19.9998 2.0001 18.9704 2.0001 17.4514V10.9999C2.0001 10.4476 2.44781 9.99989 3.00009 9.99989Z" fill="#B2B8BF"/>
<path fill-rule="evenodd" clip-rule="evenodd" d="M10.828 6.93914C10.6419 6.66446 10.3318 6.49993 10 6.49993C9.66826 6.49993 9.35811 6.66446 9.17206 6.93914L8.74418 7.57088C8.56428 7.83691 8.02617 8.64768 7.52927 9.55626C7.28123 10.0098 7.03352 10.5057 6.8453 10.9817C6.66694 11.4329 6.50005 11.9675 6.50005 12.4653C6.50005 14.4023 8.05634 15.9998 10 15.9998C11.9437 15.9998 13.5 14.4023 13.5 12.4653C13.5 11.9675 13.3331 11.4329 13.1547 10.9817C12.9665 10.5057 12.7188 10.0098 12.4708 9.55626C11.9739 8.64768 11.4353 7.8363 11.2554 7.57027L10.828 6.93914ZM9.28398 10.5159C9.5294 10.0672 9.7881 9.64099 10 9.30567C10.2119 9.64099 10.4706 10.0672 10.716 10.5159C10.9429 10.9307 11.1485 11.3469 11.2948 11.7171C11.451 12.1122 11.5 12.3579 11.5 12.4653C11.5 13.3237 10.8134 13.9999 10 13.9999C9.18667 13.9999 8.50003 13.3237 8.50003 12.4653C8.50003 12.3579 8.54899 12.1122 8.70519 11.7171C8.85154 11.3469 9.05712 10.9307 9.28398 10.5159Z" fill="#B2B8BF"/>
</svg>
