<svg width="32" height="32" viewBox="0 0 32 32" fill="none" xmlns="http://www.w3.org/2000/svg">
<path d="M7 7.81818C7 7.35681 7.36762 7 7.8 7H14C14.5523 7 15 6.55228 15 6C15 5.44772 14.5523 5 14 5H7.8C6.24415 5 5 6.27124 5 7.81818V24.1818C5 25.7288 6.24415 27 7.8 27H22.2C23.7558 27 25 25.7288 25 24.1818V20.5C25 19.9477 24.5523 19.5 24 19.5C23.4477 19.5 23 19.9477 23 20.5V24.1818C23 24.6432 22.6324 25 22.2 25H7.8C7.36762 25 7 24.6432 7 24.1818V7.81818Z" fill="#21A19A"/>
<path d="M11 10C10.4477 10 10 10.4477 10 11C10 11.5523 10.4477 12 11 12H14C14.5523 12 15 11.5523 15 11C15 10.4477 14.5523 10 14 10H11Z" fill="#21A19A"/>
<path d="M10 16C10 15.4477 10.4477 15 11 15H14C14.5523 15 15 15.4477 15 16C15 16.5523 14.5523 17 14 17H11C10.4477 17 10 16.5523 10 16Z" fill="#21A19A"/>
<path d="M11 20C10.4477 20 10 20.4477 10 21C10 21.5523 10.4477 22 11 22H16C16.5523 22 17 21.5523 17 21C17 20.4477 16.5523 20 16 20H11Z" fill="#21A19A"/>
<path fill-rule="evenodd" clip-rule="evenodd" d="M22.6286 3.07152C22.867 2.97616 23.133 2.97616 23.3714 3.07152L28.3714 5.07152C28.751 5.22339 29 5.5911 29 6C29 8.43024 28.9116 10.3467 28.1375 12.0619C27.3506 13.8052 25.921 15.2107 23.5652 16.8249C23.2246 17.0584 22.7754 17.0584 22.4348 16.8249C20.0858 15.2154 18.6569 13.8101 17.8684 12.0663C17.0923 10.3503 17 8.43204 17 6C17 5.5911 17.249 5.22339 17.6286 5.07152L22.6286 3.07152ZM19.0034 6.67568C19.0258 8.74144 19.1686 10.0876 19.6907 11.2422C20.2054 12.3804 21.1414 13.4374 23 14.7781C24.8658 13.4326 25.8015 12.3757 26.3146 11.2391C26.8351 10.0859 26.9748 8.74247 26.9967 6.67572L23 5.07703L19.0034 6.67568Z" fill="#21A19A"/>
</svg>
