<svg width="32" height="32" viewBox="0 0 32 32" fill="none" xmlns="http://www.w3.org/2000/svg">
<path d="M12 27C12 28.6569 10.6569 30 9 30H5C3.34315 30 2 28.6569 2 27V23C2 21.3431 3.34315 20 5 20H6C6.55228 20 7 20.4477 7 21C7 21.5523 6.55228 22 6 22H5C4.44772 22 4 22.4477 4 23V27C4 27.5523 4.44772 28 5 28H9C9.55228 28 10 27.5523 10 27V26C10 25.4477 10.4477 25 11 25C11.5523 25 12 25.4477 12 26V27Z" fill="#107F8C"/>
<path d="M20 27C20 28.6569 21.3431 30 23 30H27C28.6569 30 30 28.6569 30 27V23C30 21.3431 28.6569 20 27 20H26C25.4477 20 25 20.4477 25 21C25 21.5523 25.4477 22 26 22H27C27.5523 22 28 22.4477 28 23V27C28 27.5523 27.5523 28 27 28H23C22.4477 28 22 27.5523 22 27V26C22 25.4477 21.5523 25 21 25C20.4477 25 20 25.4477 20 26V27Z" fill="#107F8C"/>
<path d="M13 10C13 10.5523 12.5523 11 12 11C11.4477 11 11 10.5523 11 10V5C11 3.34315 12.3431 2 14 2H18C19.6569 2 21 3.34315 21 5V10C21 10.5523 20.5523 11 20 11C19.4477 11 19 10.5523 19 10V5C19 4.44772 18.5523 4 18 4H14C13.4477 4 13 4.44772 13 5V10Z" fill="#107F8C"/>
<path fill-rule="evenodd" clip-rule="evenodd" d="M12.1434 19.0654C12.0333 19.1073 11.9288 19.1696 11.8354 19.2526L7.33543 23.2526C6.92265 23.6195 6.88547 24.2516 7.25239 24.6644C7.61931 25.0771 8.25138 25.1143 8.66416 24.7474L13.1256 20.7817C13.8528 21.533 14.8718 22 16 22C17.1281 22 18.1472 21.533 18.8744 20.7817L23.3358 24.7474C23.7486 25.1143 24.3807 25.0771 24.7476 24.6644C25.1145 24.2516 25.0773 23.6195 24.6645 23.2526L20.1645 19.2526C20.0712 19.1696 19.9667 19.1073 19.8566 19.0654C19.95 18.7262 20 18.3689 20 18C20 16.1335 18.7215 14.5655 16.9925 14.1241C16.9976 14.0834 17.0001 14.042 17.0001 14L17.0001 9C17.0001 8.44771 16.5524 8 16.0001 8C15.4479 8 15.0001 8.44771 15.0001 9L15.0001 14C15.0001 14.042 15.0027 14.0834 15.0078 14.124C13.2786 14.5654 12 16.1334 12 18C12 18.3689 12.0499 18.7262 12.1434 19.0654ZM14 18C14 19.1046 14.8954 20 16 20C17.1046 20 18 19.1046 18 18C18 16.8954 17.1046 16 16 16C14.8954 16 14 16.8954 14 18Z" fill="#107F8C"/>
</svg>
