<svg width="32" height="32" viewBox="0 0 32 32" fill="none" xmlns="http://www.w3.org/2000/svg">
<path fill-rule="evenodd" clip-rule="evenodd" d="M4 24C4 23.4477 4.44772 23 5 23H27C27.5523 23 28 23.4477 28 24C28 24.5523 27.5523 25 27 25H5C4.44772 25 4 24.5523 4 24Z" fill="#B2B8BF"/>
<path fill-rule="evenodd" clip-rule="evenodd" d="M17.3823 7.74302C17.6656 7.40539 18.169 7.36135 18.5066 7.64466L24.6643 12.8116C25.0019 13.0949 25.046 13.5983 24.7627 13.9359L19.9133 19.7152C19.5583 20.1383 19.6135 20.769 20.0365 21.124C20.4596 21.479 21.0904 21.4238 21.4454 21.0008L26.2948 15.2215C27.2881 14.0377 27.1337 12.2728 25.9499 11.2795L19.7922 6.11257C18.6084 5.11926 16.8435 5.27367 15.8502 6.45745L7.69191 16.1801C6.6986 17.3639 6.85301 19.1288 8.03679 20.1221L9.13745 21.0457C9.56052 21.4007 10.1913 21.3455 10.5463 20.9224C10.9013 20.4993 10.8461 19.8686 10.423 19.5136L9.32237 18.59C8.98474 18.3067 8.9407 17.8033 9.224 17.4657L17.3823 7.74302Z" fill="#B2B8BF"/>
</svg>
