<svg width="20" height="20" viewBox="0 0 20 20" fill="none" xmlns="http://www.w3.org/2000/svg">
<path d="M7.58121 0.186343C8.03062 0.50735 8.13471 1.1319 7.8137 1.58131L6.08599 4.0001H13.9139L12.1862 1.58131C11.8652 1.1319 11.9693 0.50735 12.4187 0.186343C12.8681 -0.134664 13.4926 -0.0305729 13.8136 0.418837L16.3136 3.91882C16.3326 3.94533 16.35 3.97246 16.366 4.0001H18.9999C19.5522 4.0001 19.9999 4.44781 19.9999 5.00009C19.9999 5.55237 19.5522 6.00009 18.9999 6.00009H2.34402L4.74401 14H7.99996C8.55224 14 8.99995 14.4477 8.99995 15C8.99995 15.5523 8.55224 16 7.99996 16H3.99998C3.55838 16 3.16906 15.7104 3.04216 15.2874L0.0421818 5.28744C-0.04865 4.98467 0.00902206 4.65677 0.197714 4.40316C0.386406 4.14956 0.683898 4.0001 1 4.0001H3.63386C3.64986 3.97246 3.66732 3.94533 3.68626 3.91882L6.18625 0.418837C6.50725 -0.0305729 7.1318 -0.134664 7.58121 0.186343Z" fill="#B2B8BF"/>
<path fill-rule="evenodd" clip-rule="evenodd" d="M12.9999 9.00007C12.9999 8.44779 13.4476 8.00007 13.9999 8.00007H16.3179C17.6555 8.00007 18.6105 8.4967 19.1901 9.29881C19.7276 10.0426 19.8399 10.9097 19.8399 11.5001V11.6674C19.8399 12.323 19.6561 13.1539 19.084 13.8398C18.4831 14.5602 17.5541 15 16.3179 15H14.9999V16H15.9999C16.5522 16 16.9999 16.4477 16.9999 17C16.9999 17.5523 16.5522 18 15.9999 18H14.9999V19C14.9999 19.5523 14.5522 20 13.9999 20C13.4476 20 12.9999 19.5523 12.9999 19V18H11.9999C11.4476 18 10.9999 17.5523 10.9999 17C10.9999 16.4477 11.4476 16 11.9999 16H12.9999V15H11.9999C11.4476 15 10.9999 14.5523 10.9999 14C10.9999 13.4478 11.4476 13 11.9999 13H12.9999V9.00007ZM14.9999 13V10.0001H16.3179C17.1155 10.0001 17.4215 10.266 17.5691 10.4702C17.7588 10.7328 17.8399 11.1157 17.8399 11.5001V11.6674C17.8399 11.9867 17.7455 12.3221 17.5481 12.5587C17.3794 12.761 17.0474 13 16.3179 13H14.9999Z" fill="#B2B8BF"/>
</svg>
