<svg width="32" height="32" viewBox="0 0 32 32" fill="none" xmlns="http://www.w3.org/2000/svg">
<path fill-rule="evenodd" clip-rule="evenodd" d="M16 3.24023C13.9014 3.24023 12.2 4.94155 12.2 7.04023C12.2 9.13892 13.9014 10.8402 16 10.8402C18.0987 10.8402 19.8 9.13892 19.8 7.04023C19.8 4.94155 18.0987 3.24023 16 3.24023ZM14.2 7.04023C14.2 6.04612 15.0059 5.24023 16 5.24023C16.9942 5.24023 17.8 6.04612 17.8 7.04023C17.8 8.03435 16.9942 8.84023 16 8.84023C15.0059 8.84023 14.2 8.03435 14.2 7.04023Z" fill="#B2B8BF"/>
<path fill-rule="evenodd" clip-rule="evenodd" d="M7.03999 18.6406C4.94131 18.6406 3.23999 20.3419 3.23999 22.4406C3.23999 24.5393 4.94131 26.2406 7.03999 26.2406C9.13867 26.2406 10.84 24.5393 10.84 22.4406C10.84 20.3419 9.13867 18.6406 7.03999 18.6406ZM5.23999 22.4406C5.23999 21.4465 6.04588 20.6406 7.03999 20.6406C8.0341 20.6406 8.83999 21.4465 8.83999 22.4406C8.83999 23.4347 8.0341 24.2406 7.03999 24.2406C6.04588 24.2406 5.23999 23.4347 5.23999 22.4406Z" fill="#B2B8BF"/>
<path fill-rule="evenodd" clip-rule="evenodd" d="M21.1601 22.4406C21.1601 20.3419 22.8614 18.6406 24.9601 18.6406C27.0587 18.6406 28.7601 20.3419 28.7601 22.4406C28.7601 24.5393 27.0587 26.2406 24.9601 26.2406C22.8614 26.2406 21.1601 24.5393 21.1601 22.4406ZM24.9601 20.6406C23.966 20.6406 23.1601 21.4465 23.1601 22.4406C23.1601 23.4347 23.966 24.2406 24.9601 24.2406C25.9542 24.2406 26.7601 23.4347 26.7601 22.4406C26.7601 21.4465 25.9542 20.6406 24.9601 20.6406Z" fill="#B2B8BF"/>
<path d="M10.5721 9.7026C11.0251 9.38664 11.1362 8.76329 10.8202 8.31031C10.5043 7.85734 9.88091 7.74627 9.42794 8.06223C6.73261 9.94228 4.87797 12.9505 4.55147 16.4063C4.49952 16.9561 4.90314 17.444 5.45297 17.4959C6.00281 17.5479 6.49065 17.1443 6.5426 16.5944C6.81186 13.7445 8.34128 11.2587 10.5721 9.7026Z" fill="#B2B8BF"/>
<path d="M22.5721 8.06223C22.1192 7.74627 21.4958 7.85734 21.1798 8.31031C20.8639 8.76329 20.975 9.38664 21.4279 9.7026C23.6588 11.2587 25.1882 13.7445 25.4575 16.5944C25.5094 17.1443 25.9973 17.5479 26.5471 17.4959C27.0969 17.444 27.5005 16.9561 27.4486 16.4063C27.1221 12.9505 25.2675 9.94228 22.5721 8.06223Z" fill="#B2B8BF"/>
<path d="M11.9291 26.0867C11.4303 25.8497 10.8338 26.062 10.5968 26.5608C10.3598 27.0597 10.5721 27.6562 11.0709 27.8932C12.5661 28.6034 14.2381 29.0004 16 29.0004C17.762 29.0004 19.434 28.6034 20.9291 27.8932C21.428 27.6562 21.6403 27.0597 21.4033 26.5608C21.1663 26.062 20.5698 25.8497 20.0709 26.0867C18.8383 26.6722 17.4589 27.0004 16 27.0004C14.5412 27.0004 13.1618 26.6722 11.9291 26.0867Z" fill="#B2B8BF"/>
</svg>
