<svg width="32" height="32" viewBox="0 0 32 32" fill="none" xmlns="http://www.w3.org/2000/svg">
<path fill-rule="evenodd" clip-rule="evenodd" d="M11.5528 4.10557C11.8343 3.96481 12.1657 3.96481 12.4472 4.10557L20.4472 8.10557C20.9412 8.35256 21.1414 8.95324 20.8944 9.44721C20.6474 9.94119 20.0467 10.1414 19.5528 9.89443L12 6.11803L4.44719 9.89443C3.95321 10.1414 3.35254 9.94119 3.10555 9.44721C2.85856 8.95324 3.05878 8.35256 3.55276 8.10557L11.5528 4.10557Z" fill="#B2B8BF"/>
<path fill-rule="evenodd" clip-rule="evenodd" d="M2.99951 23C2.99951 22.4477 3.44723 22 3.99951 22H11.9995C12.5518 22 12.9995 22.4477 12.9995 23C12.9995 23.5523 12.5518 24 11.9995 24H3.99951C3.44723 24 2.99951 23.5523 2.99951 23Z" fill="#B2B8BF"/>
<path fill-rule="evenodd" clip-rule="evenodd" d="M12 11C12.5523 11 13 11.4477 13 12V19C13 19.5523 12.5523 20 12 20C11.4477 20 11 19.5523 11 19V12C11 11.4477 11.4477 11 12 11Z" fill="#B2B8BF"/>
<path fill-rule="evenodd" clip-rule="evenodd" d="M7 11C7.55228 11 8 11.4477 8 12V19C8 19.5523 7.55228 20 7 20C6.44772 20 6 19.5523 6 19V12C6 11.4477 6.44772 11 7 11Z" fill="#B2B8BF"/>
<path fill-rule="evenodd" clip-rule="evenodd" d="M16.9991 11C17.5514 11 17.9991 11.4477 17.9991 12V14C17.9991 14.5523 17.5514 15 16.9991 15C16.4469 15 15.9991 14.5523 15.9991 14V12C15.9991 11.4477 16.4469 11 16.9991 11Z" fill="#B2B8BF"/>
<path fill-rule="evenodd" clip-rule="evenodd" d="M25.5719 29.475C26.3572 29.475 26.9939 28.8383 26.9939 28.0529C26.9939 27.2675 26.3572 26.6309 25.5719 26.6309C24.7865 26.6309 24.1498 27.2675 24.1498 28.0529C24.1498 28.8383 24.7865 29.475 25.5719 29.475Z" fill="#B2B8BF"/>
<path fill-rule="evenodd" clip-rule="evenodd" d="M19.7534 23.2016C20.5388 23.2016 21.1754 22.5649 21.1754 21.7795C21.1754 20.9941 20.5388 20.3574 19.7534 20.3574C18.968 20.3574 18.3313 20.9941 18.3313 21.7795C18.3313 22.5649 18.968 23.2016 19.7534 23.2016Z" fill="#B2B8BF"/>
<path fill-rule="evenodd" clip-rule="evenodd" d="M27.0775 20.7421C27.468 21.1326 27.468 21.7658 27.0775 22.1563L20.3011 28.9327C19.9106 29.3233 19.2774 29.3233 18.8869 28.9327C18.4964 28.5422 18.4964 27.9091 18.8869 27.5185L25.6633 20.7421C26.0538 20.3516 26.687 20.3516 27.0775 20.7421Z" fill="#B2B8BF"/>
</svg>
