<svg width="32" height="32" viewBox="0 0 32 32" fill="none" xmlns="http://www.w3.org/2000/svg">
<path fill-rule="evenodd" clip-rule="evenodd" d="M8 10C8 7.23858 10.2386 5 13 5C15.7614 5 18 7.23858 18 10C18 12.7614 15.7614 15 13 15C10.2386 15 8 12.7614 8 10ZM13 7C11.3431 7 10 8.34315 10 10C10 11.6569 11.3431 13 13 13C14.6569 13 16 11.6569 16 10C16 8.34315 14.6569 7 13 7Z" fill="#107F8C"/>
<path d="M8.30338 17.0191C9.59799 18.0647 11.2336 18.6344 12.9155 18.6344C14.6512 18.6344 16.3317 18.0294 17.6445 16.9227C18.0668 16.5667 18.1205 15.9358 17.7646 15.5136C17.4086 15.0913 16.7778 15.0375 16.3555 15.3935C15.4105 16.1901 14.189 16.6344 12.9155 16.6344C11.6665 16.6344 10.4628 16.2054 9.5262 15.4356L9.52432 15.4341C8.81023 14.85 7.76898 14.8554 7.06126 15.45L7.0598 15.4512C5.12365 17.0842 4 19.4456 4 21.9368C4 22.4464 4.04955 22.963 4.14461 23.4723C4.31595 24.3869 5.12926 25 6.01631 25H11.5858L9.29289 27.2929C8.90237 27.6834 8.90237 28.3166 9.29289 28.7071C9.68342 29.0976 10.3166 29.0976 10.7071 28.7071L14.7071 24.7071C15.0976 24.3166 15.0976 23.6834 14.7071 23.2929L10.7071 19.2929C10.3166 18.9024 9.68342 18.9024 9.29289 19.2929C8.90237 19.6834 8.90237 20.3166 9.29289 20.7071L11.5858 23H6.09186C6.03082 22.6414 6 22.2838 6 21.9368C6 20.0735 6.83147 18.2826 8.30338 17.0191Z" fill="#107F8C"/>
<path fill-rule="evenodd" clip-rule="evenodd" d="M20 21V28H26V23.1565L24.9647 22.1264L23.8108 21H20ZM18 20.8182C18 19.8353 18.7848 19 19.8 19H24.218C24.479 19 24.7297 19.1021 24.9165 19.2844L26.372 20.7052L27.7053 22.0319C27.8939 22.2195 28 22.4747 28 22.7408V28.1818C28 29.1647 27.2152 30 26.2 30H19.8C18.7848 30 18 29.1647 18 28.1818V20.8182Z" fill="#107F8C"/>
</svg>
