<svg width="20" height="20" viewBox="0 0 20 20" fill="none" xmlns="http://www.w3.org/2000/svg">
<path fill-rule="evenodd" clip-rule="evenodd" d="M0 6C0 3.79086 1.79086 2 4 2H16C18.2091 2 20 3.79086 20 6V14C20 16.2091 18.2091 18 16 18H4C1.79086 18 0 16.2091 0 14V6ZM4 4C2.89543 4 2 4.89543 2 6V14C2 15.1046 2.89543 16 4 16H16C17.1046 16 18 15.1046 18 14V6C18 4.89543 17.1046 4 16 4H4Z" fill="#B2B8BF"/>
<path d="M12.3137 5.9186C11.9927 5.46918 11.3682 5.36509 10.9188 5.6861C10.4693 6.00711 10.3653 6.63166 10.6863 7.08107L12.0569 8.99995H7C6.44772 8.99995 6 9.44767 6 9.99995C6 10.5522 6.44772 11 7 11H12.0567L10.6863 12.9186C10.3653 13.368 10.4693 13.9926 10.9188 14.3136C11.3682 14.6346 11.9927 14.5305 12.3137 14.0811L14.8137 10.5811C15.0621 10.2334 15.0621 9.76629 14.8137 9.4186L12.3137 5.9186Z" fill="#B2B8BF"/>
</svg>
