<svg width="20" height="20" viewBox="0 0 20 20" fill="none" xmlns="http://www.w3.org/2000/svg">
<path d="M2 5.99984C2 4.34298 3.34315 2.99984 5 2.99984H10C10.5523 2.99984 11 2.55212 11 1.99984C11 1.44755 10.5523 0.999838 10 0.999838H5C2.23858 0.999838 0 3.23842 0 5.99984V10.9998C0 13.0511 1.23448 14.812 3 15.5835V18.8998C3 19.282 3.21783 19.6308 3.56127 19.7985C3.90471 19.9661 4.31368 19.9234 4.61503 19.6883L9.34388 15.9998H15C17.7614 15.9998 20 13.7613 20 10.9998V8.99984C20 8.44755 19.5523 7.99984 19 7.99984C18.4477 7.99984 18 8.44755 18 8.99984V10.9998C18 12.6567 16.6569 13.9998 15 13.9998H9C8.77715 13.9998 8.56069 14.0743 8.38497 14.2113L5 16.8516V14.8738C5 14.4175 4.69114 14.0191 4.24926 13.9054C2.95512 13.5723 2 12.3963 2 10.9998V5.99984Z" fill="#107F8C"/>
<path fill-rule="evenodd" clip-rule="evenodd" d="M10.7508 10.2136C10.226 10.1952 9.80475 9.77403 9.78639 9.2492L9.69076 6.5164C9.68106 6.23921 9.78691 5.97045 9.98304 5.77432L15.2574 0.5C15.6479 0.109475 16.281 0.109476 16.6716 0.5L19.5 3.32843C19.8905 3.71895 19.8905 4.35212 19.5 4.74264L14.2257 10.017C14.0296 10.2131 13.7608 10.3189 13.4836 10.3092L10.7508 10.2136ZM13.119 8.29526L17.3787 4.03553L15.9645 2.62132L11.7047 6.88105L11.7526 8.24744L13.119 8.29526Z" fill="#107F8C"/>
</svg>
