<svg width="20" height="20" viewBox="0 0 20 20" fill="none" xmlns="http://www.w3.org/2000/svg">
<path fill-rule="evenodd" clip-rule="evenodd" d="M8.00287 2.26953C10.2399 2.26958 12.134 3.73888 12.7724 5.76562H15.9238C18.1627 5.76562 19.981 7.63573 19.9912 9.94922L20.0029 12.6514C20.0104 14.3689 18.665 15.7656 17.0029 15.7656H16.4189C16.0813 16.9023 15.0285 17.7314 13.7822 17.7314C12.533 17.7314 11.4786 16.8985 11.1435 15.7578H9.14447C8.80906 16.898 7.75459 17.7305 6.5058 17.7305C5.2571 17.7303 4.20244 16.898 3.86713 15.7578H1.99994C0.895481 15.7578 7.13319e-05 14.8623 -5.64708e-05 13.7578V9.98633C-5.64708e-05 9.43407 0.447689 8.98636 0.999943 8.98633C1.55223 8.98633 1.99994 9.43404 1.99994 9.98633V13.7578H4.04194C4.492 12.8528 5.42648 12.2306 6.5058 12.2305C7.58529 12.2305 8.51955 12.8527 8.96967 13.7578H11.0126L11.0029 7.26465C11 5.60984 9.65768 4.26954 8.00287 4.26953C7.45059 4.26953 7.00287 3.82182 7.00287 3.26953C7.00287 2.71725 7.45059 2.26953 8.00287 2.26953ZM13.7822 14.2314C13.368 14.2314 13.0322 14.5672 13.0322 14.9814C13.0322 15.3957 13.368 15.7314 13.7822 15.7314C14.1963 15.7314 14.5322 15.3956 14.5322 14.9814C14.5322 14.5673 14.1963 14.2315 13.7822 14.2314ZM6.5058 14.2305C6.09176 14.2307 5.7558 14.5664 5.7558 14.9805C5.7558 15.3946 6.09176 15.7303 6.5058 15.7305C6.92002 15.7305 7.2558 15.3947 7.2558 14.9805C7.2558 14.5663 6.92002 14.2305 6.5058 14.2305ZM13.0107 12.3408C13.2554 12.2695 13.5144 12.2314 13.7822 12.2314C14.8378 12.2315 15.7548 12.8265 16.2158 13.6992H17.0029C17.5568 13.6991 18.0053 13.2335 18.0029 12.6611L17.9951 10.998H13.0087L13.0107 12.3408ZM13.0058 8.99805H17.7656C17.4235 8.30596 16.727 7.83203 15.9238 7.83203H13.0038L13.0058 8.99805Z" fill="#107F8C"/>
<path d="M4.78803 2.52246C5.11703 2.45104 5.46427 2.55036 5.70697 2.79297C5.98405 3.07013 6.07387 3.48358 5.93647 3.85059L4.43647 7.85156C4.28598 8.25234 3.89659 8.51235 3.46869 8.49902C3.04081 8.48544 2.66891 8.20138 2.54389 7.79199L2.16498 6.54492L0.627873 5.92773C0.245196 5.77388 -0.00477275 5.40068 -5.64708e-05 4.98828C0.00490076 4.57612 0.262574 4.20946 0.648381 4.06445L4.64936 2.56348L4.78803 2.52246Z" fill="#107F8C"/>
</svg>
