<svg width="20" height="20" viewBox="0 0 20 20" fill="none" xmlns="http://www.w3.org/2000/svg">
<path fill-rule="evenodd" clip-rule="evenodd" d="M10 2C5.58172 2 2 5.58172 2 10C2 14.4183 5.58172 18 10 18C14.4183 18 18 14.4183 18 10C18 5.58172 14.4183 2 10 2ZM0 10C0 4.47715 4.47715 0 10 0C15.5228 0 20 4.47715 20 10C20 15.5228 15.5228 20 10 20C4.47715 20 0 15.5228 0 10Z" fill="#107F8C"/>
<path d="M11 6C11 5.44772 10.5523 5 10 5C9.44772 5 9 5.44772 9 6V9L6 9C5.44771 9 5 9.44771 5 10C5 10.5523 5.44771 11 6 11H9V14C9 14.5523 9.44772 15 10 15C10.5523 15 11 14.5523 11 14V11H14C14.5523 11 15 10.5523 15 10C15 9.44772 14.5523 9 14 9L11 9V6Z" fill="#107F8C"/>
</svg>
