<svg width="32" height="32" viewBox="0 0 32 32" fill="none" xmlns="http://www.w3.org/2000/svg">
<path d="M9.625 11C9.625 11.8975 8.89746 12.625 8 12.625C7.10254 12.625 6.375 11.8975 6.375 11C6.375 10.1025 7.10254 9.375 8 9.375C8.89746 9.375 9.625 10.1025 9.625 11Z" fill="#B2B8BF"/>
<path fill-rule="evenodd" clip-rule="evenodd" d="M6.96506 5C6.53174 5 6.14772 5.27908 6.01392 5.69122L6.009 5.70644L5.99569 5.7477C5.98429 5.78317 5.96802 5.83392 5.9484 5.89565C5.90923 6.01889 5.85634 6.18701 5.80185 6.36529C5.76026 6.50138 5.70966 6.6687 5.66294 6.83417C5.60037 6.8677 5.539 6.90236 5.47884 6.938C5.29883 6.89276 5.11133 6.84952 4.95889 6.81486C4.77158 6.77228 4.59398 6.73336 4.46352 6.70516C4.39817 6.69103 4.34438 6.67953 4.30678 6.67153L4.26304 6.66225L4.24695 6.65886C3.82931 6.57113 3.40202 6.7581 3.18306 7.1244L2.14813 8.85565C1.9175 9.24145 1.97271 9.73383 2.28295 10.0591L2.29407 10.0707L2.32459 10.1026C2.35085 10.13 2.38845 10.1691 2.43426 10.2166C2.52573 10.3113 2.65066 10.4401 2.78369 10.5751C2.88174 10.6745 3.00083 10.7947 3.12027 10.9114C3.11944 10.9407 3.119 10.9703 3.119 11C3.119 11.0274 3.11928 11.0549 3.11984 11.0826C2.99816 11.2013 2.87649 11.3241 2.77662 11.4254C2.64366 11.5603 2.51884 11.689 2.42747 11.7837C2.38171 11.8311 2.34415 11.8702 2.31793 11.8976L2.28744 11.9295L2.27624 11.9412C1.96612 12.2664 1.91107 12.7586 2.14166 13.1444L3.17659 14.8756C3.39562 15.242 3.82321 15.4289 4.24094 15.341L4.30071 15.3284C4.33837 15.3203 4.39224 15.3088 4.45767 15.2946C4.5883 15.2664 4.7661 15.2274 4.95352 15.1847C5.10524 15.1502 5.29178 15.1072 5.47097 15.0622C5.5323 15.0986 5.5946 15.1337 5.658 15.1675C5.70584 15.3348 5.7577 15.5036 5.80011 15.6403C5.85546 15.8185 5.90918 15.9864 5.94896 16.1095C5.96889 16.1712 5.98541 16.2218 5.997 16.2573L6.01051 16.2985L6.01553 16.3137C6.15087 16.7233 6.53364 17 6.96506 17H9.03491C9.46813 17 9.85212 16.7209 9.986 16.3089L9.99089 16.2938L10.0042 16.2526C10.0156 16.2172 10.0318 16.1665 10.0515 16.1049C10.0906 15.9818 10.1435 15.8138 10.198 15.6356C10.2397 15.4992 10.2904 15.3316 10.3372 15.1658C10.3997 15.1322 10.461 15.0976 10.5211 15.062C10.7011 15.1072 10.8886 15.1505 11.0411 15.1851C11.2284 15.2277 11.406 15.2666 11.5365 15.2948C11.6018 15.309 11.6556 15.3205 11.6932 15.3285L11.7369 15.3377L11.753 15.3411C12.1707 15.4289 12.5979 15.2419 12.8169 14.8756L13.8518 13.1444C14.0814 12.7604 14.0279 12.2706 13.721 11.9451L13.7202 11.9443L13.6798 11.9016C13.6539 11.8742 13.6167 11.8351 13.5715 11.7877C13.4811 11.693 13.3577 11.5643 13.2262 11.4294C13.1257 11.3263 13.0028 11.2009 12.8802 11.0801C12.8807 11.0536 12.881 11.0269 12.881 11C12.881 10.9749 12.8807 10.9499 12.8803 10.9249C13.0152 10.7947 13.1485 10.6596 13.2575 10.5478C13.3868 10.4152 13.5052 10.2911 13.591 10.2002C13.634 10.1547 13.6691 10.1173 13.6936 10.0912L13.7222 10.0606L13.7329 10.049C14.0353 9.72328 14.0863 9.2371 13.8583 8.85565L12.8234 7.1244C12.6044 6.758 12.1768 6.57106 11.759 6.65895L11.7431 6.66233L11.6993 6.67163C11.6616 6.67965 11.6077 6.69119 11.5423 6.70535C11.4117 6.73363 11.2339 6.77263 11.0465 6.81527C10.8947 6.84978 10.7082 6.89281 10.529 6.9378C10.4677 6.90147 10.4055 6.86639 10.3421 6.83258C10.2942 6.66496 10.2422 6.49576 10.1997 6.35887C10.1444 6.18071 10.0907 6.01293 10.0509 5.89C10.031 5.82842 10.0145 5.77781 10.0029 5.74243L9.98937 5.70127L9.98435 5.68604C9.84894 5.27654 9.46623 5 9.03491 5H6.96506ZM7.57035 7.43971C7.60694 7.30791 7.65252 7.15371 7.69923 7H8.30455C8.35209 7.15392 8.39847 7.30844 8.43564 7.44061C8.45619 7.51368 8.4726 7.57523 8.48443 7.62337C8.49307 7.6585 8.49696 7.67727 8.49822 7.68336C8.55012 8.03775 8.78762 8.33636 9.12081 8.46777C9.34952 8.55797 9.55888 8.67631 9.76806 8.83031C10.0437 9.03322 10.404 9.08108 10.723 8.95715C10.7293 8.9551 10.7485 8.94905 10.7857 8.93842C10.8354 8.9242 10.8994 8.90713 10.9756 8.88781C11.1239 8.85025 11.3012 8.80849 11.4762 8.76861L11.7508 9.22793C11.5177 9.46452 11.3192 9.65439 11.2398 9.71431C10.9428 9.93841 10.7948 10.3088 10.8556 10.6759C10.872 10.7747 10.881 10.8824 10.881 11C10.881 11.1178 10.8719 11.2379 10.8563 11.3643C10.8124 11.717 10.9592 12.0665 11.2417 12.2822C11.2465 12.2864 11.2614 12.2994 11.2893 12.325C11.3266 12.3593 11.3736 12.4041 11.4287 12.4579C11.5241 12.5511 11.6339 12.6617 11.7434 12.7736L11.4696 13.2315C11.2951 13.1918 11.1183 13.1501 10.9703 13.1126C10.8941 13.0933 10.83 13.0762 10.7802 13.0619C10.7424 13.0511 10.7228 13.0447 10.7166 13.0427C10.3987 12.9192 10.0399 12.9664 9.76453 13.1675C9.55692 13.3192 9.34005 13.4432 9.11434 13.5322C8.78115 13.6636 8.54368 13.9632 8.49178 14.3176C8.49052 14.3237 8.48653 14.3422 8.47783 14.3779C8.46606 14.4263 8.44979 14.4881 8.42947 14.5613C8.39294 14.6929 8.34747 14.8467 8.30087 15H7.69555C7.6479 14.8457 7.60142 14.6908 7.56418 14.5585C7.54363 14.4854 7.52722 14.4239 7.5154 14.3758C7.50686 14.3411 7.50299 14.3225 7.50173 14.3164L7.50123 14.3141L7.50172 14.3176C7.44982 13.9632 7.21235 13.6636 6.87916 13.5322C6.65046 13.442 6.4411 13.3237 6.23191 13.1697C5.95628 12.9668 5.59602 12.9189 5.27697 13.0429C5.27071 13.0449 5.2515 13.0509 5.21431 13.0616C5.16462 13.0758 5.10059 13.0929 5.02435 13.1122C4.87611 13.1497 4.69881 13.1915 4.5238 13.2314L4.25238 12.7773C4.36302 12.6655 4.474 12.555 4.57041 12.4619C4.62616 12.408 4.67372 12.3632 4.71149 12.3289C4.74001 12.303 4.75547 12.2899 4.7604 12.2858C5.05734 12.0617 5.20515 11.6912 5.14438 11.3241C5.12817 11.2262 5.119 11.1124 5.119 11C5.119 10.9118 5.13003 10.8016 5.15085 10.6759C5.21162 10.3088 5.06363 9.93841 4.76668 9.71431C4.76174 9.71012 4.74671 9.69717 4.71851 9.67154C4.6808 9.63728 4.63328 9.59249 4.57753 9.53863C4.481 9.44538 4.36978 9.3346 4.2589 9.22256L4.53035 8.76847C4.70486 8.80822 4.88164 8.84985 5.02964 8.88737C5.10588 8.90669 5.16998 8.92379 5.21979 8.93806C5.25754 8.94888 5.27714 8.95527 5.28338 8.9573C5.60122 9.08077 5.96012 9.03361 6.23544 8.83246C6.44305 8.68079 6.65992 8.55678 6.88563 8.46777C7.21882 8.33636 7.45629 8.03679 7.50819 7.68241C7.50946 7.67624 7.5134 7.65819 7.522 7.62291C7.53375 7.57464 7.55002 7.51292 7.57035 7.43971Z" fill="#B2B8BF"/>
<path fill-rule="evenodd" clip-rule="evenodd" d="M16.4498 17.7354C15.8975 17.7354 15.4498 18.1831 15.4498 18.7354C15.4498 19.2876 15.8975 19.7354 16.4498 19.7354H18.9873L18.99 21.4978C18.9904 21.7742 18.7664 21.9986 18.49 21.9986H13.8217C13.4099 20.8333 12.2986 19.9984 10.9923 19.9984C9.68603 19.9984 8.57475 20.8333 8.16296 21.9986H7.49231C7.21617 21.9986 6.99231 21.7747 6.99231 21.4986V18.9782C6.99231 18.426 6.54459 17.9782 5.99231 17.9782C5.44002 17.9782 4.99231 18.426 4.99231 18.9782V21.9986C4.99231 23.1031 5.88774 23.9986 6.99231 23.9986H8.16307C8.57495 25.1637 9.68615 25.9984 10.9923 25.9984C12.2985 25.9984 13.4097 25.1637 13.8215 23.9986H19.1626C19.5745 25.1637 20.6857 25.9984 21.9918 25.9984C23.2947 25.9984 24.4037 25.1678 24.818 24.0072H26.0077C27.6674 24.0072 29.0118 22.6595 29.0077 20.9998L28.9965 16.4971C28.9903 14.0114 26.9735 11.9996 24.4878 11.9996H20.8767C20.4132 9.71729 18.3953 8.00011 15.9768 8.00011L15.957 8C15.4048 8 14.957 8.44772 14.957 9C14.957 9.55228 15.4048 10 15.957 10L15.9768 10.0001C17.6319 10.0001 18.9743 11.3404 18.9768 12.9955L18.9842 17.7354H16.4498ZM26.0077 22.0072H24.8242C24.4149 20.8374 23.3013 19.9984 21.9918 19.9984C21.6397 19.9984 21.3018 20.0591 20.9879 20.1705L20.9846 17.9996H27.0002L27.0077 21.0047C27.009 21.558 26.5609 22.0072 26.0077 22.0072ZM24.4878 13.9996C25.6988 13.9996 26.7097 14.8577 26.9449 15.9996H20.9815L20.9784 13.9996H24.4878ZM21.9918 23.9984C21.447 23.9984 21.0039 23.5627 20.9921 23.0207L20.9923 22.997L20.9923 22.9683C21.0082 22.43 21.4496 21.9984 21.9918 21.9984C22.5441 21.9984 22.9918 22.4461 22.9918 22.9984C22.9918 23.5507 22.5441 23.9984 21.9918 23.9984ZM9.99231 22.9984C9.99231 22.4461 10.44 21.9984 10.9923 21.9984C11.5446 21.9984 11.9923 22.4461 11.9923 22.9984C11.9923 23.5507 11.5446 23.9984 10.9923 23.9984C10.44 23.9984 9.99231 23.5507 9.99231 22.9984Z" fill="#B2B8BF"/>
</svg>
