<svg width="20" height="20" viewBox="0 0 20 20" fill="none" xmlns="http://www.w3.org/2000/svg">
<path d="M11 0.999999C11 0.447715 10.5523 0 9.99999 0C9.44771 0 8.99999 0.447715 8.99999 0.999999V6C8.99999 6.55228 9.44771 7 9.99999 7C10.5523 7 11 6.55228 11 6V0.999999Z" fill="#B2B8BF"/>
<path fill-rule="evenodd" clip-rule="evenodd" d="M9.99999 8.99999C9.44771 8.99999 8.99999 9.44771 8.99999 9.99999V19C8.99999 19.3905 9.22734 19.7453 9.58214 19.9085C9.93694 20.0717 10.3543 20.0134 10.6508 19.7592L13.4477 17.3619L15.7929 19.7071C16.1834 20.0976 16.8166 20.0976 17.2071 19.7071L19.7071 17.2071C20.0976 16.8166 20.0976 16.1834 19.7071 15.7929L17.3619 13.4477L19.7592 10.6508C20.0134 10.3543 20.0717 9.93694 19.9085 9.58214C19.7453 9.22734 19.3905 8.99999 19 8.99999H9.99999ZM11 16.8258V11H16.8258L15.2407 12.8492C14.9007 13.2459 14.9234 13.8376 15.2929 14.2071L17.5858 16.5L16.5 17.5858L14.2071 15.2929C13.8376 14.9234 13.2459 14.9007 12.8492 15.2407L11 16.8258Z" fill="#B2B8BF"/>
<path d="M3.79304 3.79289C4.18357 3.40237 4.81673 3.40237 5.20725 3.79289L6.53568 5.12132C6.9262 5.51184 6.9262 6.14501 6.53568 6.53553C6.14516 6.92605 5.51199 6.92605 5.12147 6.53553L3.79304 5.2071C3.40252 4.81658 3.40252 4.18341 3.79304 3.79289Z" fill="#B2B8BF"/>
<path d="M5.10182 15.7989C4.66061 16.1311 4.03365 16.0427 3.70145 15.6015C3.36925 15.1603 3.45762 14.5333 3.89883 14.2011L5.227 13.2011C5.6682 12.8689 6.29517 12.9573 6.62737 13.3985C6.95956 13.8397 6.87119 14.4667 6.42999 14.7989L5.10182 15.7989Z" fill="#B2B8BF"/>
<path d="M16.2487 3.83708C16.6148 4.25057 16.5764 4.88257 16.1629 5.24869L14.6626 6.5771C14.2491 6.94322 13.6171 6.90482 13.251 6.49133C12.8849 6.07784 12.9233 5.44584 13.3368 5.07972L14.8371 3.75131C15.2506 3.38519 15.8826 3.42359 16.2487 3.83708Z" fill="#B2B8BF"/>
<path d="M0.999999 8.99999C0.447715 8.99999 0 9.44771 0 9.99999C0 10.5523 0.447715 11 0.999999 11L6 11C6.55228 11 7 10.5523 7 9.99999C7 9.44771 6.55228 8.99999 6 8.99999L0.999999 8.99999Z" fill="#B2B8BF"/>
</svg>
