<svg width="32" height="32" viewBox="0 0 32 32" fill="none" xmlns="http://www.w3.org/2000/svg">
<path d="M16.1113 17.25C14.4995 17.25 13.0779 18.0478 12.1925 19.2603C11.8668 19.7063 11.9643 20.3319 12.4103 20.6576C12.8564 20.9833 13.482 20.8858 13.8077 20.4397C14.3412 19.7091 15.1787 19.25 16.1113 19.25C17.352 19.25 18.4368 20.0731 18.8365 21.25L16 21.25C15.4477 21.25 15 21.6977 15 22.25C15 22.8023 15.4477 23.25 16 23.25L18.8365 23.25C18.4368 24.4269 17.352 25.25 16.1113 25.25C15.1787 25.25 14.3412 24.7909 13.8077 24.0603C13.482 23.6142 12.8564 23.5167 12.4103 23.8424C11.9643 24.1681 11.8668 24.7937 12.1925 25.2397C13.0779 26.4522 14.4995 27.25 16.1113 27.25C18.8377 27.25 21.0001 24.9846 21.0001 22.25C21.0001 19.5154 18.8377 17.25 16.1113 17.25Z" fill="#B2B8BF"/>
<path fill-rule="evenodd" clip-rule="evenodd" d="M8.59495 9.24903C10.1982 6.55775 13.1384 4.75 16.5 4.75C20.7149 4.75 24.2616 7.57941 25.3507 11.4529C28.3497 12.0097 30.625 14.6147 30.625 17.7812C30.625 21.3523 27.7273 24.25 24.1562 24.25C23.604 24.25 23.1562 23.8023 23.1562 23.25C23.1562 22.6977 23.604 22.25 24.1562 22.25C26.6227 22.25 28.625 20.2477 28.625 17.7812C28.625 15.4294 26.7997 13.5152 24.47 13.3539C24.0192 13.3227 23.6453 12.993 23.5579 12.5496C22.9047 9.23555 19.994 6.75 16.5 6.75C13.727 6.75 11.3155 8.32276 10.1135 10.6307C9.95871 10.9278 9.66543 11.1277 9.33228 11.1631C6.54433 11.4595 4.375 13.8234 4.375 16.6875C4.375 19.339 6.23942 21.5651 8.72869 22.118C9.26784 22.2378 9.60782 22.7719 9.48807 23.3111C9.36832 23.8502 8.83418 24.1902 8.29504 24.0705C4.91137 23.3189 2.375 20.2976 2.375 16.6875C2.375 12.974 5.05549 9.87952 8.59495 9.24903Z" fill="#B2B8BF"/>
</svg>
