<svg width="32" height="32" viewBox="0 0 32 32" fill="none" xmlns="http://www.w3.org/2000/svg">
<path fill-rule="evenodd" clip-rule="evenodd" d="M13 19C13 17.3431 14.3431 16 16 16C17.6569 16 19 17.3431 19 19C19 20.6569 17.6569 22 16 22C14.3431 22 13 20.6569 13 19ZM16 18C15.4477 18 15 18.4477 15 19C15 19.5523 15.4477 20 16 20C16.5523 20 17 19.5523 17 19C17 18.4477 16.5523 18 16 18Z" fill="#21A19A"/>
<path d="M15 4C15 3.44772 14.5523 3 14 3C13.4477 3 13 3.44772 13 4C13 5.65685 14.3431 7 16 7C17.6569 7 19 5.65685 19 4C19 3.44772 18.5523 3 18 3C17.4477 3 17 3.44772 17 4C17 4.55228 16.5523 5 16 5C15.4477 5 15 4.55228 15 4Z" fill="#21A19A"/>
<path d="M9 9C9 8.44772 9.44772 8 10 8L22 8C22.5523 8 23 8.44772 23 9C23 9.55229 22.5523 10 22 10L10 10C9.44772 10 9 9.55228 9 9Z" fill="#21A19A"/>
<path d="M22.3375 12.2509C22.7512 11.8851 23.3832 11.9238 23.7491 12.3375C25.355 14.1533 26 16.6196 26 19.0444C26 24.5474 21.5182 29 16 29C10.4818 29 6 24.5474 6 19.0444C6 16.5745 6.56679 14.1684 8.26396 12.3231C8.63783 11.9166 9.27044 11.8901 9.67694 12.264C10.0834 12.6378 10.1099 13.2705 9.73604 13.677C8.50301 15.0176 8 16.8551 8 19.0444C8 23.4335 11.5771 27 16 27C20.4229 27 24 23.4335 24 19.0444C24 16.9361 23.4355 15.0018 22.2509 13.6625C21.885 13.2488 21.9238 12.6168 22.3375 12.2509Z" fill="#21A19A"/>
</svg>
