<svg width="32" height="32" viewBox="0 0 32 32" fill="none" xmlns="http://www.w3.org/2000/svg">
<path fill-rule="evenodd" clip-rule="evenodd" d="M30.9819 7.98633C30.9502 8.41699 30.8774 8.83691 30.7637 9.24512C30.6589 9.62109 30.5195 9.98828 30.3452 10.3457C30.1772 10.6904 29.9824 11.0146 29.7603 11.3203C29.5166 11.6553 29.2407 11.9668 28.9324 12.2549C28.6194 12.5469 28.2847 12.8027 27.9277 13.0244C27.6104 13.2217 27.2754 13.3916 26.9233 13.5332C26.5762 13.6729 26.2222 13.7803 25.8618 13.8574C25.418 13.9521 24.9641 14 24.5 14C24.0195 14 23.5505 13.9492 23.0925 13.8477C22.7104 13.7637 22.3362 13.6436 21.9697 13.4883C21.6013 13.333 21.2529 13.1465 20.9246 12.9307C20.5596 12.6895 20.2192 12.4111 19.9038 12.0957C19.5884 11.7803 19.3105 11.4404 19.0698 11.0752C18.8533 10.7471 18.667 10.3984 18.5112 10.0303C18.356 9.66406 18.2363 9.28906 18.1519 8.90625C18.0505 8.44824 18 7.97949 18 7.5C18 7.02051 18.0505 6.55176 18.1519 6.09375C18.2363 5.71094 18.356 5.33594 18.5112 4.96973C18.667 4.60156 18.8533 4.25293 19.0698 3.9248C19.3105 3.55957 19.5884 3.21973 19.9038 2.9043C20.2192 2.58887 20.5596 2.31055 20.9246 2.06934C21.2529 1.85352 21.6013 1.66699 21.9697 1.51172C22.3362 1.35645 22.7104 1.23633 23.0928 1.15234L23.0964 1.15137C23.5531 1.05046 24.021 1 24.5 1C24.9572 1 25.4046 1.0459 25.8423 1.1377C26.189 1.21094 26.5293 1.3125 26.864 1.44336C27.3857 1.64746 27.6353 2.21777 27.4316 2.73926C27.2275 3.26074 26.6577 3.50977 26.1362 3.30664C25.9185 3.22168 25.697 3.1543 25.4717 3.10449C25.1553 3.03516 24.8315 3 24.5 3C24.1548 3 23.8184 3.03809 23.4902 3.11328C23.2379 3.17057 22.9908 3.25065 22.7488 3.35352C22.5 3.45801 22.2646 3.58301 22.0422 3.72852C21.7832 3.89746 21.5415 4.09473 21.3181 4.31836C21.0947 4.54199 20.8982 4.7832 20.729 5.04199C20.5837 5.26465 20.4585 5.5 20.3533 5.74902C20.2507 5.99121 20.1704 6.23828 20.1128 6.49121C20.0376 6.81836 20 7.15527 20 7.5C20 7.84473 20.0376 8.18164 20.1128 8.50879C20.1707 8.76172 20.251 9.00879 20.3533 9.25098C20.4585 9.5 20.5837 9.73535 20.729 9.95801C20.8982 10.2168 21.0947 10.458 21.3181 10.6816C21.5415 10.9053 21.783 11.1025 22.042 11.2715C22.2646 11.417 22.5 11.542 22.7488 11.6465C22.9908 11.7494 23.2379 11.8294 23.4902 11.8867C23.8184 11.9619 24.1548 12 24.5 12C24.8352 12 25.1626 11.9648 25.4817 11.8936C25.7178 11.8408 25.9497 11.7686 26.1772 11.6777C26.4143 11.582 26.6401 11.4688 26.8545 11.3369C27.1084 11.1807 27.3462 10.999 27.5684 10.792C27.7864 10.5889 27.981 10.3682 28.1521 10.1309C28.3018 9.92285 28.4336 9.70312 28.5476 9.46973C28.6655 9.22754 28.7607 8.97852 28.8325 8.72363C28.9136 8.43652 28.9651 8.1416 28.9875 7.83789C29.0288 7.2793 29.5002 6.87305 30.0586 6.91504C30.6172 6.95605 31.0234 7.42773 30.9819 7.98633ZM24.5088 9.52344L30.1248 5.03125C30.562 4.68066 30.6309 4.0625 30.2808 3.625C29.9312 3.18848 29.3125 3.11914 28.8755 3.46875L24.4912 6.97656L23.114 5.90527C22.6719 5.56152 22.0547 5.63867 21.7107 6.08008C21.3669 6.52246 21.4441 7.13965 21.8862 7.4834L24.5088 9.52344ZM14 8C8.47705 8 4 12.4775 4 18V28H14C19.5229 28 24 23.5225 24 18C24 17.6934 23.9863 17.3896 23.9595 17.0908C23.9097 16.541 24.3154 16.0547 24.8657 16.0049C25.4155 15.9561 25.9019 16.3613 25.9512 16.9111C25.9834 17.2705 26 17.6338 26 18C26 24.627 20.6274 30 14 30H3C2.44775 30 2 29.5527 2 29V18C2 11.373 7.37256 6 14 6C14.3687 6 14.7339 6.0166 15.0945 6.04883C15.6445 6.09863 16.05 6.58496 16.0002 7.13574C15.9504 7.68555 15.4644 8.09082 14.9141 8.04102C14.6133 8.01367 14.3086 8 14 8ZM16.5 12.001C17.0522 12.001 17.5 12.4482 17.5 13.001C17.5 13.5537 17.0522 14.001 16.5 14.001H11V16.001H14.3076C16.5923 16.001 19 17.4287 19 20.001C19 22.5732 16.5923 24.001 14.3076 24.001H9V14.001C9 12.8965 9.89551 12.001 11 12.001H16.5ZM11 18.001V22.001H14.3076C15.9858 22.001 17 21.0293 17 20.001C17 18.9727 15.9858 18.001 14.3076 18.001H11Z" fill="#21A19A"/>
</svg>
