<svg width="32" height="32" viewBox="0 0 32 32" fill="none" xmlns="http://www.w3.org/2000/svg">
<path fill-rule="evenodd" clip-rule="evenodd" d="M10.4043 9.7688C10.4043 6.67824 12.9097 4.17285 16.0002 4.17285C19.0908 4.17285 21.5962 6.67824 21.5962 9.7688C21.5962 12.8594 19.0908 15.3648 16.0002 15.3648C12.9097 15.3648 10.4043 12.8594 10.4043 9.7688ZM16.0002 6.17285C14.0143 6.17285 12.4043 7.78281 12.4043 9.7688C12.4043 11.7548 14.0143 13.3648 16.0002 13.3648C17.9862 13.3648 19.5962 11.7548 19.5962 9.7688C19.5962 7.78281 17.9862 6.17285 16.0002 6.17285Z" fill="#B2B8BF"/>
<path d="M20.9332 17.5336C21.2932 17.1149 21.9246 17.0672 22.3434 17.4273C24.4987 19.2802 25.7363 21.972 25.7363 24.8109C25.7363 25.3813 25.684 25.9616 25.5809 26.5358C25.4115 27.4841 24.5858 28.1732 23.6243 28.1732H8.37568C7.4125 28.1732 6.58854 27.4823 6.41898 26.5352C6.31688 25.9627 6.26367 25.3822 6.26367 24.8109C6.26367 22.0192 7.4665 19.359 9.56115 17.5103C9.97522 17.1448 10.6072 17.1842 10.9726 17.5983C11.3381 18.0123 11.2987 18.6443 10.8846 19.0097C9.21898 20.4799 8.26367 22.5945 8.26367 24.8109C8.26367 25.256 8.30484 25.7148 8.38599 26.1732H23.614C23.6956 25.7161 23.7363 25.2572 23.7363 24.8109C23.7363 22.5561 22.7539 20.4177 21.0396 18.9439C20.6208 18.5838 20.5731 17.9524 20.9332 17.5336Z" fill="#B2B8BF"/>
<path d="M17 19C17 18.4477 16.5523 18 16 18C15.4477 18 15 18.4477 15 19V23C15 23.5523 15.4477 24 16 24C16.5523 24 17 23.5523 17 23V19Z" fill="#B2B8BF"/>
</svg>
