<svg width="32" height="32" viewBox="0 0 32 32" fill="none" xmlns="http://www.w3.org/2000/svg">
<path d="M7 7.81818C7 7.35681 7.36762 7 7.8 7H14C14.5523 7 15 6.55228 15 6C15 5.44772 14.5523 5 14 5H7.8C6.24415 5 5 6.27124 5 7.81818V24.1818C5 25.7288 6.24415 27 7.8 27H22.2C23.7558 27 25 25.7288 25 24.1818V20.5C25 19.9477 24.5523 19.5 24 19.5C23.4477 19.5 23 19.9477 23 20.5V24.1818C23 24.6432 22.6324 25 22.2 25H7.8C7.36762 25 7 24.6432 7 24.1818V7.81818Z" fill="#B2B8BF"/>
<path d="M11 10C10.4477 10 10 10.4477 10 11C10 11.5523 10.4477 12 11 12H14C14.5523 12 15 11.5523 15 11C15 10.4477 14.5523 10 14 10H11Z" fill="#B2B8BF"/>
<path d="M10 16C10 15.4477 10.4477 15 11 15H14C14.5523 15 15 15.4477 15 16C15 16.5523 14.5523 17 14 17H11C10.4477 17 10 16.5523 10 16Z" fill="#B2B8BF"/>
<path d="M11 20C10.4477 20 10 20.4477 10 21C10 21.5523 10.4477 22 11 22H16C16.5523 22 17 21.5523 17 21C17 20.4477 16.5523 20 16 20H11Z" fill="#B2B8BF"/>
<path d="M27.7071 5.70711C28.0976 5.31658 28.0976 4.68342 27.7071 4.29289C27.3166 3.90237 26.6834 3.90237 26.2929 4.29289L19.2929 11.2929C18.9024 11.6834 18.9024 12.3166 19.2929 12.7071C19.6834 13.0976 20.3166 13.0976 20.7071 12.7071L27.7071 5.70711Z" fill="#B2B8BF"/>
<path d="M20.5 7C21.3284 7 22 6.32843 22 5.5C22 4.67157 21.3284 4 20.5 4C19.6716 4 19 4.67157 19 5.5C19 6.32843 19.6716 7 20.5 7Z" fill="#B2B8BF"/>
<path d="M26.5 13C27.3284 13 28 12.3284 28 11.5C28 10.6716 27.3284 10 26.5 10C25.6716 10 25 10.6716 25 11.5C25 12.3284 25.6716 13 26.5 13Z" fill="#B2B8BF"/>
</svg>
