<svg width="32" height="32" viewBox="0 0 32 32" fill="none" xmlns="http://www.w3.org/2000/svg">
<path fill-rule="evenodd" clip-rule="evenodd" d="M12.159 10.126C12.584 10.126 12.9625 10.3945 13.1029 10.7956L16.5149 20.5441C16.6973 21.0654 16.4226 21.6359 15.9014 21.8183C15.3801 22.0008 14.8096 21.7261 14.6272 21.2048L13.8379 18.9499H10.4801L9.69093 21.2048C9.50848 21.7261 8.938 22.0008 8.41672 21.8183C7.89544 21.6359 7.62076 21.0654 7.80321 20.5441L8.81913 17.6415C8.82392 17.6267 8.82904 17.6121 8.83449 17.5976L11.2152 10.7956C11.3556 10.3945 11.7341 10.126 12.159 10.126ZM11.1801 16.9499H13.1379L12.159 14.1531L11.1801 16.9499Z" fill="#107F8C"/>
<path fill-rule="evenodd" clip-rule="evenodd" d="M4 10C4 6.68629 6.68629 4 10 4H22C25.3137 4 28 6.68629 28 10V22C28 25.3137 25.3137 28 22 28H10C6.68629 28 4 25.3137 4 22V10ZM10 6H22C24.2091 6 26 7.79086 26 10V22C26 24.2091 24.2091 26 22 26H10C7.79086 26 6 24.2091 6 22V10C6 7.79086 7.79086 6 10 6Z" fill="#107F8C"/>
<path d="M19.4688 16.4375C19.4688 15.8852 19.021 15.4375 18.4688 15.4375C17.9165 15.4375 17.4688 15.8852 17.4688 16.4375V18.9375C17.4688 19.6826 17.7476 20.4467 18.3169 21.0279C18.8978 21.6209 19.7265 21.9688 20.7188 21.9688C21.3023 21.9688 21.811 21.8394 22.2419 21.6243C22.4242 21.8171 22.6824 21.9375 22.9688 21.9375C23.521 21.9375 23.9688 21.4898 23.9688 20.9375V16.4375C23.9688 15.8852 23.521 15.4375 22.9688 15.4375C22.4165 15.4375 21.9688 15.8852 21.9688 16.4375V18.9375C21.9688 19.2964 21.6013 19.9688 20.7188 19.9688C20.211 19.9688 19.9147 19.801 19.7456 19.6283C19.5649 19.4439 19.4688 19.1924 19.4688 18.9375V16.4375Z" fill="#107F8C"/>
</svg>
