<svg width="20" height="20" viewBox="0 0 20 20" fill="none" xmlns="http://www.w3.org/2000/svg">
<path fill-rule="evenodd" clip-rule="evenodd" d="M7 0C4.79086 0 3 1.79086 3 4C3 6.20914 4.79086 8 7 8C9.20914 8 11 6.20914 11 4C11 1.79086 9.20914 0 7 0ZM5 4C5 2.89543 5.89543 2 7 2C8.10457 2 9 2.89543 9 4C9 5.10457 8.10457 6 7 6C5.89543 6 5 5.10457 5 4Z" fill="#B2B8BF"/>
<path fill-rule="evenodd" clip-rule="evenodd" d="M14 7C12.3431 7 11 8.34315 11 10C11 11.6569 12.3431 13 14 13C15.6569 13 17 11.6569 17 10C17 8.34315 15.6569 7 14 7ZM13 10C13 9.44771 13.4477 9 14 9C14.5523 9 15 9.44771 15 10C15 10.5523 14.5523 11 14 11C13.4477 11 13 10.5523 13 10Z" fill="#B2B8BF"/>
<path fill-rule="evenodd" clip-rule="evenodd" d="M8.09734 18.7445C8.24171 19.5082 8.91977 20 9.63643 20H18.3636C19.0788 20 19.7587 19.5094 19.9028 18.7439C19.9672 18.4041 20 18.0597 20 17.7197C20 16.0268 19.22 14.4374 17.8887 13.3537L17.8877 13.3528C17.3035 12.8785 16.4534 12.8819 15.8734 13.3664C15.3507 13.803 14.6703 14.0499 13.9568 14.0499C13.257 14.0499 12.5864 13.8115 12.0683 13.3895L12.0664 13.388C11.4817 12.9141 10.6337 12.9182 10.0538 13.401L10.0523 13.4022C8.75792 14.4841 8 16.0549 8 17.7197C8 18.061 8.03359 18.406 8.09734 18.7445ZM16.6001 15.3023C16.6923 15.2452 16.7827 15.1849 16.8711 15.1216C17.5997 15.823 18 16.7553 18 17.7197C18 17.8119 17.9961 17.9055 17.9883 18H10.0118C10.0039 17.9053 10 17.8116 10 17.7197C10 16.7738 10.3879 15.8542 11.0927 15.157C11.9256 15.738 12.9296 16.0499 13.9568 16.0499C14.8963 16.0499 15.8138 15.7896 16.6001 15.3023Z" fill="#B2B8BF"/>
<path d="M3.42663 9.851C4.38294 10.6006 5.55965 11.0123 6.77517 11.0123C7.32745 11.0123 7.77517 10.5646 7.77517 10.0123C7.77517 9.46006 7.32745 9.01234 6.77517 9.01234C5.94542 9.01234 5.13731 8.7064 4.50118 8.14433L4.49933 8.14271C3.86809 7.58772 2.92732 7.59357 2.30297 8.15746L2.30154 8.15875C0.835761 9.48772 0 11.3934 0 13.3867C0 13.7958 0.0369853 14.2099 0.107865 14.6182C0.244138 15.4001 0.916984 16.0049 1.7415 16.0049H6C6.55228 16.0049 7 15.5572 7 15.0049C7 14.4526 6.55228 14.0049 6 14.0049H2.0383C2.01281 13.796 2 13.5889 2 13.3867C2 12.0532 2.51949 10.7819 3.42663 9.851Z" fill="#B2B8BF"/>
<path d="M16 2V1C16 0.447715 16.4477 0 17 0C17.5523 0 18 0.447715 18 1V2H19C19.5523 2 20 2.44772 20 3C20 3.55228 19.5523 4 19 4H18V5C18 5.55229 17.5523 6 17 6C16.4477 6 16 5.55229 16 5V4H15C14.4477 4 14 3.55228 14 3C14 2.44772 14.4477 2 15 2H16Z" fill="#B2B8BF"/>
</svg>
