<svg width="32" height="32" viewBox="0 0 32 32" fill="none" xmlns="http://www.w3.org/2000/svg">
<path fill-rule="evenodd" clip-rule="evenodd" d="M22 6H10C7.79086 6 6 7.79086 6 10V22C6 24.2091 7.79086 26 10 26H22C24.2091 26 26 24.2091 26 22V10C26 7.79086 24.2091 6 22 6ZM10 4C6.68629 4 4 6.68629 4 10V22C4 25.3137 6.68629 28 10 28H22C25.3137 28 28 25.3137 28 22V10C28 6.68629 25.3137 4 22 4H10Z" fill="#B2B8BF"/>
<path fill-rule="evenodd" clip-rule="evenodd" d="M16.0393 24.2428C20.6488 24.2428 24.3856 20.5061 24.3856 15.8965C24.3856 11.2869 20.6488 7.55013 16.0393 7.55013C11.4297 7.55013 7.69291 11.2869 7.69291 15.8965C7.69291 20.5045 11.4272 24.2403 16.0346 24.2428L16.0393 24.2428ZM16.0377 9.55013C15.9122 9.55055 15.7179 9.60413 15.4576 9.85184C15.1912 10.1054 14.9057 10.5196 14.6442 11.108C14.4699 11.5002 14.3149 11.9502 14.1859 12.4474H17.8924C17.7633 11.9502 17.6084 11.5002 17.4341 11.108C17.1726 10.5196 16.8871 10.1054 16.6207 9.85184C16.3593 9.60316 16.1646 9.55013 16.0391 9.55013H16.0377ZM12.7395 10.4744C12.4919 11.0659 12.2867 11.7303 12.1301 12.4474H10.7111C11.2301 11.6473 11.9244 10.9715 12.7395 10.4744ZM11.8339 14.4474H9.85912C9.7504 14.9128 9.69291 15.3979 9.69291 15.8965C9.69291 16.395 9.7504 16.8801 9.8591 17.3455H11.8339C11.7945 16.8735 11.7741 16.3891 11.7741 15.8965C11.7741 15.4038 11.7945 14.9194 11.8339 14.4474ZM12.1301 19.3455H10.7111C11.23 20.1456 11.9243 20.8215 12.7395 21.3186C12.4919 20.727 12.2867 20.0627 12.1301 19.3455ZM14.1858 19.3455H17.8924C17.7634 19.8427 17.6084 20.2928 17.4341 20.685C17.1726 21.2733 16.8871 21.6876 16.6207 21.9411C16.3593 22.1898 16.1646 22.2428 16.0391 22.2428C15.9137 22.2428 15.7189 22.1898 15.4576 21.9411C15.1912 21.6876 14.9057 21.2733 14.6442 20.685C14.4699 20.2928 14.3149 19.8427 14.1858 19.3455ZM18.2365 17.3455H13.8418C13.7977 16.8815 13.7741 16.3968 13.7741 15.8965C13.7741 15.3962 13.7977 14.9114 13.8418 14.4474H18.2365C18.2806 14.9114 18.3042 15.3962 18.3042 15.8965C18.3042 16.3968 18.2806 16.8815 18.2365 17.3455ZM19.9482 19.3455C19.7916 20.0628 19.5863 20.7272 19.3387 21.3188C20.154 20.8217 20.8484 20.1457 21.3675 19.3455H19.9482ZM22.2194 17.3455H20.2444C20.2838 16.8735 20.3042 16.3891 20.3042 15.8965C20.3042 15.4038 20.2838 14.9194 20.2444 14.4474H22.2194C22.3281 14.9128 22.3856 15.3979 22.3856 15.8965C22.3856 16.395 22.3281 16.8801 22.2194 17.3455ZM19.3387 10.4741C20.154 10.9713 20.8484 11.6472 21.3674 12.4474H19.9482C19.7916 11.7302 19.5863 11.0658 19.3387 10.4741Z" fill="#B2B8BF"/>
</svg>
