<svg width="20" height="20" viewBox="0 0 20 20" fill="none" xmlns="http://www.w3.org/2000/svg">
<path fill-rule="evenodd" clip-rule="evenodd" d="M16.7461 10.3342C17.1138 10.7463 17.0779 11.3784 16.6659 11.7462L14.7626 13.445L15.853 16.8008C16.4517 18.6434 14.3427 20.1757 12.7753 19.0369L9.98054 17.0064L7.18577 19.0369C5.61835 20.1757 3.50938 18.6435 4.10809 16.8008L5.20027 13.4395L3.32805 11.7407C2.91903 11.3696 2.88831 10.7372 3.25942 10.3282C3.63054 9.91916 4.26295 9.88843 4.67197 10.2595L6.54419 11.9583C7.12713 12.4872 7.34562 13.3089 7.10238 14.0575L6.0102 17.4189L8.80497 15.3884C9.50594 14.8791 10.4551 14.8791 11.1561 15.3884L13.9509 17.4189L12.8605 14.063C12.6154 13.3088 12.8392 12.481 13.4308 11.9529L15.3341 10.2541C15.7461 9.88632 16.3783 9.92221 16.7461 10.3342Z" fill="#107F8C"/>
<path fill-rule="evenodd" clip-rule="evenodd" d="M9.99999 1.00012C10.847 1.00012 11.5123 1.60851 11.7281 2.43098L12.9268 7.00012H19C19.5523 7.00012 20 7.44784 20 8.00012C20 8.55241 19.5523 9.00012 19 9.00012H12.7366C11.8145 9.00012 11.197 8.2881 11.0084 7.56926L9.99999 3.72533L8.99153 7.56926C8.80295 8.2881 8.18551 9.00012 7.26342 9.00012H1C0.447715 9.00012 0 8.55241 0 8.00012C0 7.44784 0.447715 7.00012 1 7.00012H7.07317L8.27188 2.43098C8.48765 1.60852 9.15299 1.00012 9.99999 1.00012Z" fill="#107F8C"/>
</svg>
