<svg width="32" height="32" viewBox="0 0 32 32" fill="none" xmlns="http://www.w3.org/2000/svg">
<path fill-rule="evenodd" clip-rule="evenodd" d="M19.6286 4.07152C19.867 3.97616 20.133 3.97616 20.3714 4.07152L25.3714 6.07152C25.751 6.22339 26 6.5911 26 7C26 9.43024 25.9116 11.3467 25.1375 13.0619C24.3506 14.8052 22.921 16.2107 20.5652 17.8249C20.2246 18.0584 19.7754 18.0584 19.4348 17.8249C17.0858 16.2154 15.6569 14.8101 14.8684 13.0663C14.0923 11.3503 14 9.43204 14 7C14 6.5911 14.249 6.22339 14.6286 6.07152L19.6286 4.07152ZM16.0034 7.67568C16.0258 9.74144 16.1686 11.0876 16.6907 12.2422C17.2054 13.3804 18.1414 14.4374 20 15.7781C21.8658 14.4326 22.8015 13.3757 23.3146 12.2391C23.8351 11.0859 23.9748 9.74247 23.9967 7.67572L20 6.07703L16.0034 7.67568Z" fill="#107F8C"/>
<path fill-rule="evenodd" clip-rule="evenodd" d="M5.55279 17.6584C6.06096 16.642 7.09975 16 8.23607 16H10.0365L8.75295 14.1331C7.84064 12.8061 8.79068 11 10.401 11H12C12.5523 11 13 11.4477 13 12C13 12.5523 12.5523 13 12 13H10.401L14.526 19H19C19.5523 19 20 19.4477 20 20C20 20.5523 19.5523 21 19 21H14.526C13.8674 21 13.2511 20.6758 12.878 20.1331L11.4115 18H8.23607C7.8573 18 7.51103 18.214 7.34164 18.5528L6.21115 20.8138C6.07229 21.0915 6 21.3977 6 21.7082V24H8C8.01184 24 8.02362 24.0002 8.03536 24.0006C8.27771 22.3042 9.73655 21 11.5 21C13.2632 21 14.7219 22.3039 14.9646 24H19.0354C19.2781 22.3039 20.7368 21 22.5 21C24.433 21 26 22.567 26 24.5C26 26.433 24.433 28 22.5 28C21.1038 28 19.8985 27.1825 19.3368 26H14.6632C14.1015 27.1825 12.8962 28 11.5 28C10.0842 28 8.86467 27.1593 8.31349 25.9499C8.21489 25.9824 8.1095 26 8 26H6C4.89543 26 4 25.1046 4 24V21.7082C4 21.0872 4.14458 20.4748 4.42229 19.9193L5.55279 17.6584ZM21 24.5C21 23.6716 21.6716 23 22.5 23C23.3284 23 24 23.6716 24 24.5C24 25.3284 23.3284 26 22.5 26C21.6716 26 21 25.3284 21 24.5ZM11.5 23C10.6716 23 10 23.6716 10 24.5C10 25.3284 10.6716 26 11.5 26C12.3284 26 13 25.3284 13 24.5C13 23.6716 12.3284 23 11.5 23Z" fill="#107F8C"/>
<path d="M27 17C27 16.4477 26.5523 16 26 16C25.4477 16 25 16.4477 25 17V20C25 20.5523 25.4477 21 26 21C26.5523 21 27 20.5523 27 20V17Z" fill="#107F8C"/>
</svg>
