<svg width="20" height="20" viewBox="0 0 20 20" fill="none" xmlns="http://www.w3.org/2000/svg">
<path fill-rule="evenodd" clip-rule="evenodd" d="M14.4999 9.99982C12.0179 9.99982 10 12.0175 10 14.4997C10 16.982 12.0178 18.9997 14.4999 18.9997C15.3795 18.9997 16.2008 18.7463 16.8946 18.3086L18.2927 19.7068C18.6833 20.0973 19.3164 20.0973 19.7069 19.7068C20.0975 19.3162 20.0975 18.6831 19.7069 18.2926L18.3088 16.8944C18.7465 16.2006 18.9998 15.3793 18.9998 14.4997C18.9998 12.0175 16.982 9.99982 14.4999 9.99982ZM12 14.4997C12 13.1221 13.1223 11.9998 14.4999 11.9998C15.8775 11.9998 16.9999 13.1221 16.9999 14.4997C16.9999 15.8774 15.8775 16.9997 14.4999 16.9997C13.1224 16.9997 12 15.8774 12 14.4997Z" fill="#B2B8BF"/>
<path fill-rule="evenodd" clip-rule="evenodd" d="M9.79137 0.52202C10.146 0.446374 10.5138 0.568622 10.7526 0.841506L13.7247 4.23825L18.521 1.6221C19.0058 1.35764 19.6133 1.5363 19.8777 2.02114C20.1422 2.50598 19.9635 3.1134 19.4787 3.37786L13.9788 6.37781C13.5676 6.60209 13.0558 6.51092 12.7474 6.15842L10.4284 3.50812L6.95582 14.7938C6.82562 15.217 6.43267 15.5042 5.98996 15.4997C5.54725 15.4952 5.16018 15.2002 5.03856 14.7745L2.6907 6.55697L1.86838 7.99602C1.59438 8.47553 0.983532 8.64212 0.504023 8.36812C0.0245143 8.09411 -0.142079 7.48327 0.131926 7.00376L2.13189 3.50382C2.33147 3.15456 2.7209 2.95889 3.12025 3.00721C3.5196 3.05554 3.85111 3.33845 3.96162 3.72524L6.03557 10.9841L9.04423 1.20592C9.15086 0.859353 9.43675 0.597666 9.79137 0.52202Z" fill="#B2B8BF"/>
</svg>
