<svg width="32" height="32" viewBox="0 0 32 32" fill="none" xmlns="http://www.w3.org/2000/svg">
<path fill-rule="evenodd" clip-rule="evenodd" d="M16 3.23975C13.9013 3.23975 12.2 4.94106 12.2 7.03975C12.2 9.13843 13.9013 10.8397 16 10.8397C18.0987 10.8397 19.8 9.13843 19.8 7.03975C19.8 4.94106 18.0987 3.23975 16 3.23975ZM14.2 7.03975C14.2 6.04563 15.0059 5.23975 16 5.23975C16.9941 5.23975 17.8 6.04563 17.8 7.03975C17.8 8.03386 16.9941 8.83975 16 8.83975C15.0059 8.83975 14.2 8.03386 14.2 7.03975Z" fill="#107F8C"/>
<path fill-rule="evenodd" clip-rule="evenodd" d="M7.03996 18.6401C4.94128 18.6401 3.23996 20.3415 3.23996 22.4401C3.23996 24.5388 4.94128 26.2401 7.03996 26.2401C9.13864 26.2401 10.84 24.5388 10.84 22.4401C10.84 20.3415 9.13864 18.6401 7.03996 18.6401ZM5.23996 22.4401C5.23996 21.446 6.04585 20.6401 7.03996 20.6401C8.03407 20.6401 8.83996 21.446 8.83996 22.4401C8.83996 23.4342 8.03407 24.2401 7.03996 24.2401C6.04585 24.2401 5.23996 23.4342 5.23996 22.4401Z" fill="#107F8C"/>
<path fill-rule="evenodd" clip-rule="evenodd" d="M21.16 22.4401C21.16 20.3415 22.8614 18.6401 24.96 18.6401C27.0587 18.6401 28.76 20.3415 28.76 22.4401C28.76 24.5388 27.0587 26.2401 24.96 26.2401C22.8614 26.2401 21.16 24.5388 21.16 22.4401ZM24.96 20.6401C23.9659 20.6401 23.16 21.446 23.16 22.4401C23.16 23.4342 23.9659 24.2401 24.96 24.2401C25.9541 24.2401 26.76 23.4342 26.76 22.4401C26.76 21.446 25.9541 20.6401 24.96 20.6401Z" fill="#107F8C"/>
<path d="M10.5721 9.70211C11.0251 9.38615 11.1361 8.7628 10.8202 8.30983C10.5042 7.85685 9.88088 7.74578 9.4279 8.06174C6.73258 9.94179 4.87794 12.95 4.55144 16.4058C4.49949 16.9556 4.90311 17.4435 5.45294 17.4954C6.00278 17.5474 6.49062 17.1438 6.54257 16.5939C6.81183 13.744 8.34125 11.2582 10.5721 9.70211Z" fill="#107F8C"/>
<path d="M22.5721 8.06174C22.1191 7.74578 21.4958 7.85685 21.1798 8.30983C20.8639 8.7628 20.9749 9.38615 21.4279 9.70211C23.6588 11.2582 25.1882 13.744 25.4574 16.5939C25.5094 17.1438 25.9972 17.5474 26.5471 17.4954C27.0969 17.4435 27.5005 16.9556 27.4486 16.4058C27.1221 12.95 25.2674 9.94179 22.5721 8.06174Z" fill="#107F8C"/>
<path d="M11.9291 26.0862C11.4302 25.8492 10.8337 26.0615 10.5967 26.5604C10.3598 27.0592 10.5721 27.6557 11.0709 27.8927C12.566 28.603 14.2381 28.9999 16 28.9999C17.7619 28.9999 19.434 28.603 20.9291 27.8927C21.428 27.6557 21.6402 27.0592 21.4033 26.5604C21.1663 26.0615 20.5698 25.8492 20.0709 26.0862C18.8383 26.6717 17.4589 26.9999 16 26.9999C14.5412 26.9999 13.1617 26.6717 11.9291 26.0862Z" fill="#107F8C"/>
</svg>
