<svg width="20" height="20" viewBox="0 0 20 20" fill="none" xmlns="http://www.w3.org/2000/svg">
<path d="M10.259 0.0376651C10.081 -0.0126332 9.89245 -0.0125534 9.71445 0.0378955L1.72738 2.3016C1.29706 2.42357 1.00006 2.81644 1.00006 3.26371L1 8.43367L1.00175 8.60316L1.00198 8.6138C1.05314 11.012 2.11654 13.3133 3.66894 15.2495C5.22478 17.1901 7.31872 18.8257 9.5536 19.9011C9.68888 19.9662 9.83708 20 9.9872 20H10.0129C10.163 20 10.3112 19.9662 10.4465 19.9011C14.032 18.1758 17.3236 14.9678 18.5231 11.3117C18.6953 10.787 18.4095 10.222 17.8847 10.0498C17.3599 9.87766 16.795 10.1635 16.6228 10.6883C15.6764 13.5729 13.048 16.2982 10.0001 17.888C8.18265 16.9397 6.49378 15.5756 5.22935 13.9985C3.86567 12.2976 3.04222 10.4102 3.00164 8.57627L3.00006 8.42833V4.01968L9.98758 2.03926L15.7282 3.66103C16.2597 3.81118 16.8122 3.50204 16.9624 2.97056C17.1125 2.43908 16.8034 1.88651 16.2719 1.73636L10.259 0.0376651Z" fill="#B2B8BF"/>
<path d="M18.3571 6.394C18.7931 6.055 18.8717 5.42674 18.5327 4.99073C18.1937 4.55473 17.5655 4.47609 17.1295 4.81508L10.0122 10.3488L7.11876 8.28203C6.66935 7.96102 6.0448 8.06511 5.72379 8.51453C5.40278 8.96394 5.50687 9.58849 5.95628 9.9095L9.45628 12.4095C9.81617 12.6666 10.3022 12.6567 10.6513 12.3852L18.3571 6.394Z" fill="#B2B8BF"/>
</svg>
