<svg width="32" height="32" viewBox="0 0 32 32" fill="none" xmlns="http://www.w3.org/2000/svg">
<path fill-rule="evenodd" clip-rule="evenodd" d="M6 4H22C22 4 23 4 23 5C23 6 22 6 22 6H6C5.44775 6 5 6.44727 5 7V17C5 17.5527 5.44775 18 6 18H10.8076C11.3599 18 11.8076 18.4473 11.8076 19C11.8076 19.5527 11.3599 20 10.8076 20H6C4.34326 20 3 18.6562 3 17V7C3 5.34375 4.34326 4 6 4ZM8 10C7.44775 10 7 9.55273 7 9C7 8.44727 7.44775 8 8 8H10.8076C11.3599 8 11.8076 8.44727 11.8076 9C11.8076 9.55273 11.3599 10 10.8076 10H8ZM14.0049 11C14.0049 9.34375 15.3481 8 17.0049 8H23.0049C24.6616 8 26.0049 9.34375 26.0049 11C26.5571 11 27.0049 11.4473 27.0049 12V12.2695C27.6614 12.5859 28.1882 13.1758 28.5488 13.7441C29.1191 14.6445 29.5049 15.8281 29.5049 17.0293C29.5049 18.1289 29.1829 19.209 28.697 20.0684C28.4253 20.5488 27.8152 20.7188 27.3345 20.4473C26.8535 20.1758 26.6841 19.5645 26.9558 19.084C27.2866 18.498 27.5049 17.7559 27.5049 17.0293C27.5049 16.2324 27.2407 15.416 26.8599 14.8164C26.8247 14.7598 26.79 14.709 26.7556 14.6602C26.5725 14.8691 26.304 15 26.0049 15V26C26.5549 26.002 27 26.4492 27 27C27 27.5508 26.5549 27.998 26.0049 28H14C13.4478 28 13 27.5527 13 27C13 26.4473 13.4478 26 14 26H14.0049V11ZM24.0049 11V26H16.0049V11C16.0049 10.4473 16.4526 10 17.0049 10H23.0049C23.5571 10 24.0049 10.4473 24.0049 11ZM19.5593 12.9102C18.728 14.5918 18.0049 16.1641 18.0049 17.0156C18.0049 18.2148 19.0093 19.0156 20.0049 19.0156C21.0005 19.0156 22.0049 18.2148 22.0049 17.0156C22.0049 16.1641 21.283 14.5918 20.4509 12.9102C20.2683 12.541 19.7419 12.541 19.5593 12.9102Z" fill="#B2B8BF"/>
</svg>
