<svg width="20" height="20" viewBox="0 0 20 20" fill="none" xmlns="http://www.w3.org/2000/svg">
<path fill-rule="evenodd" clip-rule="evenodd" d="M6.77457 3.04965C7.80413 1.22997 9.75747 0 12 0C15.3136 0 17.9999 2.68618 18 5.99979C19.213 6.91094 20 8.36307 20 10C20 10.9091 19.7565 11.7643 19.3305 12.5007C19.0539 12.9788 18.4422 13.1421 17.9641 12.8656C17.4861 12.5891 17.3227 11.9773 17.5993 11.4993C17.8539 11.059 18 10.5481 18 10C18 8.88262 17.3896 7.90655 16.4793 7.38926C16.1343 7.19323 15.9378 6.81177 15.9786 6.41708C15.9927 6.28028 16 6.14116 16 6C16 3.79086 14.2091 2 12 2C10.3056 2 8.85488 3.05393 8.27234 4.5456C8.0857 5.02352 7.56765 5.28265 7.07328 5.14537C6.73287 5.05083 6.37318 5 6 5C3.79086 5 2 6.79086 2 9C2 10.0905 2.43508 11.0774 3.14338 11.8C3.53001 12.1943 3.52371 12.8275 3.12933 13.2141C2.73494 13.6007 2.10181 13.5944 1.71518 13.2C0.655238 12.1188 0 10.6349 0 9C0 5.68629 2.68629 3 6 3C6.26214 3 6.5207 3.01687 6.77457 3.04965Z" fill="#21A19A"/>
<path d="M5 9C5 7.89543 5.89543 7 7 7H14C15.1046 7 16 7.89543 16 9V19C16 19.5523 15.5523 20 15 20C14.4477 20 14 19.5523 14 19V9L7 9V19C7 19.5523 6.55228 20 6 20C5.44772 20 5 19.5523 5 19V9Z" fill="#21A19A"/>
<path d="M8.5 12C8.5 11.4477 8.94772 11 9.5 11H11C11.5523 11 12 11.4477 12 12C12 12.5523 11.5523 13 11 13H9.5C8.94772 13 8.5 12.5523 8.5 12Z" fill="#21A19A"/>
<path d="M9.5 14C8.94772 14 8.5 14.4477 8.5 15C8.5 15.5523 8.94772 16 9.5 16H11.5C12.0523 16 12.5 15.5523 12.5 15C12.5 14.4477 12.0523 14 11.5 14H9.5Z" fill="#21A19A"/>
<path d="M10 19C10 19.5523 9.55228 20 9 20C8.44772 20 8 19.5523 8 19C8 18.4477 8.44772 18 9 18C9.55228 18 10 18.4477 10 19Z" fill="#21A19A"/>
<path d="M12 20C12.5523 20 13 19.5523 13 19C13 18.4477 12.5523 18 12 18C11.4477 18 11 18.4477 11 19C11 19.5523 11.4477 20 12 20Z" fill="#21A19A"/>
</svg>
