<svg width="32" height="32" viewBox="0 0 32 32" fill="none" xmlns="http://www.w3.org/2000/svg">
<path fill-rule="evenodd" clip-rule="evenodd" d="M30.2809 3.62534C30.6259 4.0566 30.556 4.6859 30.1247 5.03091L25.1247 9.03091C24.7635 9.31988 24.2512 9.32339 23.8861 9.03939L21.8861 7.48383C21.4501 7.14476 21.3716 6.51649 21.7106 6.08054C22.0497 5.64459 22.678 5.56606 23.1139 5.90513L24.4913 6.97639L28.8753 3.46917C29.3066 3.12416 29.9359 3.19408 30.2809 3.62534Z" fill="#107F8C"/>
<path fill-rule="evenodd" clip-rule="evenodd" d="M24.5 3C22.0147 3 20 5.01472 20 7.5C20 9.98528 22.0147 12 24.5 12C26.8713 12 28.815 10.1652 28.9875 7.83856C29.0283 7.28779 29.5079 6.8744 30.0587 6.91524C30.6095 6.95608 31.0229 7.43567 30.982 7.98644C30.7327 11.3496 27.9263 14 24.5 14C20.9101 14 18 11.0899 18 7.5C18 3.91015 20.9101 1 24.5 1C25.332 1 26.1298 1.15683 26.8638 1.44345C27.3782 1.64436 27.6324 2.22427 27.4315 2.73871C27.2306 3.25316 26.6507 3.50733 26.1362 3.30643C25.6304 3.1089 25.0791 3 24.5 3Z" fill="#107F8C"/>
<path fill-rule="evenodd" clip-rule="evenodd" d="M2.00024 25.3809C2.00024 24.8286 2.44796 24.3809 3.00024 24.3809C5.05159 24.3809 6.71453 26.0438 6.71453 28.0951C6.71453 28.6474 6.26681 29.0951 5.71453 29.0951C5.16225 29.0951 4.71453 28.6474 4.71453 28.0951C4.71453 27.1484 3.94702 26.3809 3.00024 26.3809C2.44796 26.3809 2.00024 25.9331 2.00024 25.3809Z" fill="#107F8C"/>
<path fill-rule="evenodd" clip-rule="evenodd" d="M1.99988 20.8574C1.99988 20.3051 2.44759 19.8574 2.99988 19.8574C8.04934 19.8574 12.1427 23.9508 12.1427 29.0003C12.1427 29.5526 11.695 30.0003 11.1427 30.0003C10.5905 30.0003 10.1427 29.5526 10.1427 29.0003C10.1427 25.0554 6.94477 21.8574 2.99988 21.8574C2.44759 21.8574 1.99988 21.4097 1.99988 20.8574Z" fill="#107F8C"/>
<path fill-rule="evenodd" clip-rule="evenodd" d="M2.00034 15.4287C2.00034 14.8764 2.44805 14.4287 3.00034 14.4287C11.0479 14.4287 17.5718 20.9526 17.5718 29.0001C17.5718 29.5524 17.124 30.0001 16.5718 30.0001C16.0195 30.0001 15.5718 29.5524 15.5718 29.0001C15.5718 22.0571 9.94334 16.4287 3.00034 16.4287C2.44805 16.4287 2.00034 15.981 2.00034 15.4287Z" fill="#107F8C"/>
<path fill-rule="evenodd" clip-rule="evenodd" d="M2 10C2 9.44772 2.44772 9 3 9C14.0457 9 23 17.9543 23 29C23 29.5523 22.5523 30 22 30C21.4477 30 21 29.5523 21 29C21 19.0589 12.9411 11 3 11C2.44772 11 2 10.5523 2 10Z" fill="#107F8C"/>
</svg>
