<svg width="32" height="32" viewBox="0 0 32 32" fill="none" xmlns="http://www.w3.org/2000/svg">
<path fill-rule="evenodd" clip-rule="evenodd" d="M13.1438 5.20004C13.8709 4.45831 14.8812 4 16.0004 4C17.1196 4 18.1299 4.45831 18.857 5.20004C19.2436 5.59443 19.8768 5.60072 20.2712 5.2141C20.6656 4.82748 20.6718 4.19434 20.2852 3.79996C19.1974 2.69032 17.6786 2 16.0004 2C14.3222 2 12.8034 2.69032 11.7156 3.79996C11.329 4.19434 11.3353 4.82748 11.7296 5.2141C12.124 5.60072 12.7572 5.59443 13.1438 5.20004ZM8 7C6.89543 7 6 7.89543 6 9V25C6 26.1046 6.89543 27 8 27H24C25.1046 27 26 26.1046 26 25V9C26 7.89543 25.1046 7 24 7H8ZM8 9L24 9V25H8V9ZM19 18C17.8954 18 17 18.8954 17 20C17 21.1046 17.8954 22 19 22C20.1046 22 21 21.1046 21 20C21 18.8954 20.1046 18 19 18ZM17 14C17 12.8954 17.8954 12 19 12C20.1046 12 21 12.8954 21 14C21 15.1046 20.1046 16 19 16C17.8954 16 17 15.1046 17 14ZM13 18C11.8954 18 11 18.8954 11 20C11 21.1046 11.8954 22 13 22C14.1046 22 15 21.1046 15 20C15 18.8954 14.1046 18 13 18ZM11 14C11 12.8954 11.8954 12 13 12C14.1046 12 15 12.8954 15 14C15 15.1046 14.1046 16 13 16C11.8954 16 11 15.1046 11 14Z" fill="#107F8C"/>
</svg>
