<svg width="32" height="32" viewBox="0 0 32 32" fill="none" xmlns="http://www.w3.org/2000/svg">
<path fill-rule="evenodd" clip-rule="evenodd" d="M13 5C10.2386 5 8 7.23858 8 10C8 12.7614 10.2386 15 13 15C15.7614 15 18 12.7614 18 10C18 7.23858 15.7614 5 13 5ZM10 10C10 8.34315 11.3431 7 13 7C14.6569 7 16 8.34315 16 10C16 11.6569 14.6569 13 13 13C11.3431 13 10 11.6569 10 10Z" fill="#21A19A"/>
<path d="M12.9155 18.6344C11.2336 18.6344 9.59799 18.0647 8.30338 17.0191C6.83147 18.2826 6 20.0735 6 21.9368C6 22.2838 6.03082 22.6414 6.09186 23H12.9155C13.4678 23 13.9155 23.4477 13.9155 24C13.9155 24.5523 13.4678 25 12.9155 25H6.01631C5.12926 25 4.31607 24.3876 4.14474 23.473C4.04967 22.9636 4 22.4464 4 21.9368C4 19.4456 5.12365 17.0842 7.0598 15.4512L7.06126 15.45C7.76898 14.8554 8.81023 14.85 9.52432 15.4341L9.5262 15.4356C10.4628 16.2054 11.6665 16.6344 12.9155 16.6344C14.189 16.6344 15.4105 16.1901 16.3555 15.3935C16.7778 15.0375 17.4086 15.0913 17.7646 15.5136C18.1205 15.9358 18.0668 16.5667 17.6445 16.9227C16.3317 18.0294 14.6512 18.6344 12.9155 18.6344Z" fill="#21A19A"/>
<path fill-rule="evenodd" clip-rule="evenodd" d="M23.4454 19.1681C23.9049 18.8617 24.5258 18.9859 24.8322 19.4454L26.5352 22H28C28.3361 22 28.6498 22.1689 28.8348 22.4495C29.0199 22.7301 29.0516 23.085 28.9191 23.3939L25.9191 30.3939C25.7616 30.7616 25.4 31 25 31H19C18.6 31 18.2384 30.7616 18.0809 30.3939L15.0809 23.3939C14.9484 23.085 14.9801 22.7301 15.1652 22.4495C15.3502 22.1689 15.6639 22 16 22H17.465L19.1681 19.4454C19.4744 18.9859 20.0953 18.8617 20.5548 19.1681C21.0143 19.4744 21.1385 20.0953 20.8322 20.5548L19.8687 22H24.1315L23.1681 20.5548C22.8617 20.0953 22.9859 19.4744 23.4454 19.1681ZM25.9804 24H18.0198C18.0061 24.0003 17.9923 24.0003 17.9785 24H17.5165L19.6594 29H24.3406L26.4835 24H26.0217C26.0079 24.0003 25.9941 24.0003 25.9804 24Z" fill="#21A19A"/>
</svg>
