<svg width="32" height="32" viewBox="0 0 32 32" fill="none" xmlns="http://www.w3.org/2000/svg">
<path d="M7.19727 15.3457C7.85072 14.8896 8.72824 14.8845 9.38672 15.3311L9.52441 15.4336L9.52637 15.4355L9.70508 15.5762C10.6135 16.2574 11.7444 16.6347 12.915 16.6348C14.1885 16.6348 15.4105 16.1901 16.3555 15.3936L16.4365 15.332C16.8551 15.0458 17.4308 15.1176 17.7646 15.5137C18.0982 15.9094 18.0719 16.4884 17.7197 16.8525L17.6445 16.9229C16.3317 18.0295 14.6507 18.6348 12.915 18.6348C11.2335 18.6347 9.5991 18.0638 8.30469 17.0186C6.83223 18.2821 6.00009 20.0729 6 21.9365C6 22.2836 6.03171 22.6413 6.09277 23H15L15.1025 23.0049C15.6067 23.0562 16 23.4823 16 24C16 24.5177 15.6067 24.9438 15.1025 24.9951L15 25H6.0166C5.18495 25 4.41828 24.4616 4.18457 23.6406L4.14453 23.4727C4.04947 22.9633 4 22.4461 4 21.9365C4.00009 19.4455 5.12356 17.0841 7.05957 15.4512L7.06152 15.4502L7.19727 15.3457Z" fill="#107F8C"/>
<path d="M20 17C20.5523 17 21 17.4477 21 18V24C21 24.5523 20.5523 25 20 25C19.4477 25 19 24.5523 19 24V18C19 17.4477 19.4477 17 20 17Z" fill="#107F8C"/>
<path d="M28 11C28.5523 11 29 11.4477 29 12V24C29 24.5523 28.5523 25 28 25C27.4477 25 27 24.5523 27 24V12C27 11.4477 27.4477 11 28 11Z" fill="#107F8C"/>
<path d="M24 13.666C24.5523 13.666 25 14.1137 25 14.666V23.999C25 24.5513 24.5523 24.999 24 24.999C23.4477 24.999 23 24.5513 23 23.999V14.666C23 14.1137 23.4477 13.666 24 13.666Z" fill="#107F8C"/>
<path fill-rule="evenodd" clip-rule="evenodd" d="M13 5C15.7614 5 18 7.23858 18 10C18 12.7614 15.7614 15 13 15C10.2386 15 8 12.7614 8 10C8 7.23858 10.2386 5 13 5ZM13 7C11.3431 7 10 8.34315 10 10C10 11.6569 11.3431 13 13 13C14.6569 13 16 11.6569 16 10C16 8.34315 14.6569 7 13 7Z" fill="#107F8C"/>
</svg>
