<svg width="32" height="32" viewBox="0 0 32 32" fill="none" xmlns="http://www.w3.org/2000/svg">
<path fill-rule="evenodd" clip-rule="evenodd" d="M8 7.81818C8 7.35681 8.36762 7 8.8 7H16V12C16 13.6569 17.3431 15 19 15H24V17C24 17.5523 24.4477 18 25 18C25.5523 18 26 17.5523 26 17V14.8284C26 14.0328 25.6839 13.2697 25.1213 12.7071L18.2929 5.87868C17.7303 5.31607 16.9672 5 16.1716 5H8.8C7.24415 5 6 6.27124 6 7.81818V24.1818C6 25.7288 7.24415 27 8.8 27H12C12.5523 27 13 26.5523 13 26C13 25.4477 12.5523 25 12 25H8.8C8.36762 25 8 24.6432 8 24.1818V7.81818ZM22.5858 13L18 8.41421V12C18 12.5523 18.4477 13 19 13H22.5858ZM17.0001 21.0001C17.0001 20.5594 16.7116 20.1707 16.2899 20.043C15.8681 19.9153 15.4125 20.0787 15.1681 20.4454L14.1681 21.9454C13.8617 22.4049 13.9859 23.0258 14.4454 23.3321C14.6162 23.446 14.8092 23.5004 15.0001 23.5002V27.0001C15.0001 27.5524 15.4478 28.0001 16.0001 28.0001C16.5524 28.0001 17.0001 27.5524 17.0001 27.0001V21.0001ZM20.2899 20.043C20.7116 20.1707 21.0001 20.5594 21.0001 21.0001V27.0001C21.0001 27.5524 20.5524 28.0001 20.0001 28.0001C19.4478 28.0001 19.0001 27.5524 19.0001 27.0001V23.5002C18.8092 23.5004 18.6162 23.446 18.4454 23.3321C17.9859 23.0258 17.8617 22.4049 18.1681 21.9454L19.1681 20.4454C19.4125 20.0787 19.8681 19.9153 20.2899 20.043ZM22 21C22 20.4477 22.4477 20 23 20H26C26.5523 20 27 20.4477 27 21C27 21.5523 26.5523 22 26 22H24V22.5344C24.1569 22.5125 24.3237 22.5 24.5 22.5C26.5523 22.5 27.5 23.9477 27.5 25C27.5 25.6486 27.3398 26.4043 26.8307 27.0152C26.2949 27.6582 25.4905 28 24.5 28C23.9234 28 23.3711 27.8633 22.7344 27.5039C22.0977 27.1445 21.8616 26.4048 22.1679 25.9453C22.4734 25.4871 23.1974 25.4509 23.6566 25.7539L23.7048 25.7859C23.9319 25.9372 24.0318 26.0037 24.5 26C25 25.9961 25.4141 25.6523 25.4141 25.2539C25.4141 24.8555 25.0039 24.5039 24.5 24.5C24.1083 24.497 23.9715 24.5765 23.8091 24.671C23.7626 24.6981 23.7139 24.7263 23.6566 24.7543C23.6195 24.7723 23.5834 24.7918 23.547 24.8114C23.3303 24.9283 23.1023 25.0512 22.5954 24.9145C22.2335 24.7544 22 24.3958 22 24V21Z" fill="#B2B8BF"/>
</svg>
