<svg width="20" height="20" viewBox="0 0 20 20" fill="none" xmlns="http://www.w3.org/2000/svg">
<path d="M3 3C3 2.44771 3.44771 2 3.99999 2H11C11.5523 2 12 1.55228 12 0.999999C12 0.447715 11.5523 0 11 0H3.99999C2.34314 0 0.999999 1.34314 0.999999 3V17C0.999999 18.6568 2.34314 20 3.99999 20H14C15.6568 20 17 18.6568 17 17V14C17 13.4477 16.5523 13 16 13C15.4477 13 15 13.4477 15 14V17C15 17.5523 14.5523 18 14 18H3.99999C3.44771 18 3 17.5523 3 17V3Z" fill="#B2B8BF"/>
<path d="M5.99999 8.99999C5.44771 8.99999 4.99999 9.4477 4.99999 9.99999C4.99999 10.5523 5.44771 11 5.99999 11H9.49999C10.0523 11 10.5 10.5523 10.5 9.99999C10.5 9.4477 10.0523 8.99999 9.49999 8.99999H5.99999Z" fill="#B2B8BF"/>
<path d="M5.99999 13C5.44771 13 4.99999 13.4477 4.99999 14C4.99999 14.5523 5.44771 15 5.99999 15H10.5C11.0523 15 11.5 14.5523 11.5 14C11.5 13.4477 11.0523 13 10.5 13H5.99999Z" fill="#B2B8BF"/>
<path d="M16.2526 0.341509C15.8889 -0.0741274 15.2571 -0.116245 14.8415 0.247437C14.4258 0.611118 14.3837 1.24288 14.7474 1.65852L16.7962 4.00005H9.99999C9.4477 4.00005 8.99999 4.44776 8.99999 5.00005C8.99999 5.55233 9.4477 6.00004 9.99999 6.00004H16.7962L14.7474 8.3415C14.3837 8.75713 14.4258 9.38889 14.8415 9.75258C15.2571 10.1163 15.8889 10.0741 16.2526 9.6585L19.7525 5.65851C20.0824 5.28148 20.0824 4.71853 19.7525 4.3415L16.2526 0.341509Z" fill="#B2B8BF"/>
</svg>
