<svg width="20" height="20" viewBox="0 0 20 20" fill="none" xmlns="http://www.w3.org/2000/svg">
<path d="M6 2C6 0.895431 6.89543 0 8 0H12C13.1046 0 14 0.89543 14 2V7C14 7.55228 13.5523 8 13 8C12.4477 8 12 7.55228 12 7V2H8V7C8 7.55228 7.55228 8 7 8C6.44772 8 6 7.55228 6 7V2Z" fill="#107F8C"/>
<path d="M16 13C16 12.4477 16.4477 12 17 12H18C19.1046 12 20 12.8954 20 14V18C20 19.1046 19.1046 20 18 20H14C12.8954 20 12 19.1046 12 18V17.5C12 16.9477 12.4477 16.5 13 16.5C13.5523 16.5 14 16.9477 14 17.5V18H18V14H17C16.4477 14 16 13.5523 16 13Z" fill="#107F8C"/>
<path d="M3 12C3.55228 12 4 12.4477 4 13C4 13.5523 3.55228 14 3 14H2V18H6V17.5C6 16.9477 6.44772 16.5 7 16.5C7.55228 16.5 8 16.9477 8 17.5V18C8 19.1046 7.10457 20 6 20H2C0.895431 20 0 19.1046 0 18V14C0 12.8954 0.895431 12 2 12H3Z" fill="#107F8C"/>
<path fill-rule="evenodd" clip-rule="evenodd" d="M11 6.5C11 5.94772 10.5523 5.5 10 5.5C9.44772 5.5 9 5.94772 9 6.5V8.67071C7.83481 9.08254 7 10.1938 7 11.5C7 11.7194 7.02356 11.9334 7.06829 12.1394L4.85743 13.9818C4.43315 14.3353 4.37583 14.9659 4.72939 15.3902C5.08296 15.8145 5.71352 15.8718 6.1378 15.5182L8.13739 13.8519C8.64907 14.2577 9.29623 14.5 10 14.5C10.7032 14.5 11.3499 14.2581 11.8613 13.8529L13.8598 15.5183C14.284 15.8718 14.9146 15.8145 15.2682 15.3902C15.6217 14.9659 15.5644 14.3354 15.1401 13.9818L12.9313 12.1412C12.9763 11.9346 13 11.7201 13 11.5C13 10.1938 12.1652 9.08254 11 8.67071V6.5ZM9 11.5C9 10.9477 9.44772 10.5 10 10.5C10.5523 10.5 11 10.9477 11 11.5C11 12.0523 10.5523 12.5 10 12.5C9.44772 12.5 9 12.0523 9 11.5Z" fill="#107F8C"/>
</svg>
