<svg width="32" height="32" viewBox="0 0 32 32" fill="none" xmlns="http://www.w3.org/2000/svg">
<path d="M14.6334 10.2299C14.2001 10.39 13.7843 10.6372 13.4355 10.9828C12.6975 11.7139 12.36 12.7875 12.664 14.0669C12.8657 14.916 13.4663 15.4532 14.0245 15.8071C14.5063 16.1125 15.0835 16.3577 15.5711 16.5648C15.6355 16.5922 15.6992 16.6193 15.7601 16.6454C16.3344 16.8916 16.7688 17.097 17.0723 17.3356C17.3426 17.5481 17.4279 17.7212 17.4411 17.9202C17.495 18.7329 17.2202 19.0593 16.9867 19.229C16.6832 19.4495 16.2501 19.5356 15.9128 19.5356C14.9118 19.5356 14.5509 19.2597 14.4055 19.0315C14.1086 18.5658 13.4904 18.429 13.0247 18.7259C12.559 19.0228 12.4221 19.641 12.719 20.1067C13.1662 20.8081 13.8454 21.2068 14.6334 21.3964V22.0068C14.6334 22.5591 15.0812 23.0068 15.6334 23.0068C16.1857 23.0068 16.6334 22.5591 16.6334 22.0068V21.4725C17.117 21.3883 17.6679 21.2062 18.1623 20.847C19.0006 20.2379 19.5319 19.2235 19.4367 17.7879C19.3754 16.8628 18.8806 16.2131 18.3082 15.7632C17.7691 15.3394 17.0983 15.043 16.5481 14.8072L16.3563 14.7252C15.8433 14.5062 15.4291 14.3294 15.0953 14.1179C14.7334 13.8885 14.6376 13.7214 14.6098 13.6046C14.4548 12.952 14.6373 12.6075 14.8431 12.4036C15.0959 12.1532 15.5101 11.9998 15.9128 11.9998C16.6065 11.9998 16.8947 12.2199 17.0601 12.5043C17.3377 12.9817 17.9498 13.1437 18.4272 12.8661C18.9047 12.5885 19.0667 11.9764 18.7891 11.499C18.3026 10.6624 17.5366 10.208 16.6334 10.0572V9.5564C16.6334 9.00411 16.1857 8.5564 15.6334 8.5564C15.0811 8.5564 14.6334 9.00411 14.6334 9.5564V10.2299Z" fill="#B2B8BF"/>
<path fill-rule="evenodd" clip-rule="evenodd" d="M10 4C6.68629 4 4 6.68629 4 10V22C4 25.3137 6.68629 28 10 28H22C25.3137 28 28 25.3137 28 22V10C28 6.68629 25.3137 4 22 4H10ZM22 6H10C7.79086 6 6 7.79086 6 10V22C6 24.2091 7.79086 26 10 26H22C24.2091 26 26 24.2091 26 22V10C26 7.79086 24.2091 6 22 6Z" fill="#B2B8BF"/>
</svg>
