<svg width="20" height="20" viewBox="0 0 20 20" fill="none" xmlns="http://www.w3.org/2000/svg">
<g clip-path="url(#clip0_37825_1531)">
<path fill-rule="evenodd" clip-rule="evenodd" d="M3 0H8C8.55228 0 9 0.447716 9 1C9 1.55228 8.55228 2 8 2H3C2.44772 2 2 2.44772 2 3V12H5C6.65685 12 8 13.3431 8 15L8 18L13 18C13.5523 18 14 17.5523 14 17L14 10C14 9.44771 14.4477 9 15 9C15.5523 9 16 9.44771 16 10L16 17C16 18.6569 14.6569 20 13 20L6.82843 20C6.03278 20 5.26972 19.6839 4.70711 19.1213L0.878679 15.2929C0.316071 14.7303 0 13.9672 0 13.1716L0 3C0 1.34315 1.34315 0 3 0ZM5 14H2.41422L6 17.5858L6 15C6 14.4477 5.55228 14 5 14ZM18.7071 1.70711C19.0976 1.31658 19.0976 0.683418 18.7071 0.292892C18.3166 -0.0976315 17.6834 -0.0976315 17.2929 0.292892L11.2929 6.29289C10.9024 6.68342 10.9024 7.31658 11.2929 7.70711C11.6834 8.09763 12.3166 8.09763 12.7071 7.70711L18.7071 1.70711ZM14 1.5C14 2.32843 13.3284 3 12.5 3C11.6716 3 11 2.32843 11 1.5C11 0.671574 11.6716 0 12.5 0C13.3284 0 14 0.671574 14 1.5ZM17.5 8C18.3284 8 19 7.32843 19 6.5C19 5.67157 18.3284 5 17.5 5C16.6716 5 16 5.67157 16 6.5C16 7.32843 16.6716 8 17.5 8Z" fill="#107F8C"/>
</g>
<defs>
<clipPath id="clip0_37825_1531">
<rect width="20" height="20" fill="white"/>
</clipPath>
</defs>
</svg>
