<svg width="20" height="20" viewBox="0 0 20 20" fill="none" xmlns="http://www.w3.org/2000/svg">
<path fill-rule="evenodd" clip-rule="evenodd" d="M14 0C15.6569 0 17 1.34315 17 3V17C17 18.6569 15.6569 20 14 20H6C4.34315 20 3 18.6569 3 17L3 3C3 1.34315 4.34315 0 6 0L14 0ZM15 3C15 2.44772 14.5523 2 14 2L6 2C5.44771 2 5 2.44772 5 3L5 17C5 17.5523 5.44772 18 6 18H14C14.5523 18 15 17.5523 15 17L15 3Z" fill="#107F8C"/>
<path d="M7.75041 8.21424C8.20234 7.77139 8.81847 7.5 9.5 7.5C10.5252 7.5 11.4062 8.11705 11.792 9H9C8.44772 9 8 9.44772 8 10C8 10.5523 8.44772 11 9 11H11.792C11.4062 11.883 10.5252 12.5 9.5 12.5C8.81847 12.5 8.20234 12.2286 7.75041 11.7858C7.35594 11.3992 6.72281 11.4056 6.33627 11.8001C5.94972 12.1946 5.95614 12.8277 6.35061 13.2142C7.16122 14.0086 8.27422 14.5 9.5 14.5C11.9853 14.5 14 12.4853 14 10C14 7.51472 11.9853 5.5 9.5 5.5C8.27422 5.5 7.16122 5.99143 6.35061 6.78576C5.95614 7.1723 5.94972 7.80544 6.33627 8.1999C6.72281 8.59436 7.35594 8.60079 7.75041 8.21424Z" fill="#107F8C"/>
</svg>
