<svg width="32" height="32" viewBox="0 0 32 32" fill="none" xmlns="http://www.w3.org/2000/svg">
<path d="M12.6247 5.21917C13.056 5.56418 13.1259 6.19347 12.7809 6.62473L10.0807 10H23.0794L20.6809 6.57355C20.3641 6.1211 20.4742 5.49757 20.9266 5.18085C21.3791 4.86414 22.0026 4.97417 22.3193 5.42662L25.5207 10H29C29.3466 10 29.6685 10.1795 29.8507 10.4743C30.0329 10.7691 30.0494 11.1372 29.8944 11.4472L27.8944 15.4472C27.6474 15.9412 27.0468 16.1414 26.5528 15.8944C26.0588 15.6474 25.8586 15.0468 26.1056 14.5528L27.382 12H25.0195C25.0071 12.0002 24.9948 12.0002 24.9824 12H8.01155C8.00345 12.0001 7.99535 12.0001 7.98725 12H5.38743L9.72077 25H14C14.5523 25 15 25.4477 15 26C15 26.5523 14.5523 27 14 27H9.00001C8.56958 27 8.18744 26.7246 8.05132 26.3162L3.05132 11.3162C2.94967 11.0113 3.00081 10.6761 3.18877 10.4153C3.37672 10.1545 3.67856 10 4.00001 10H7.51944L11.2192 5.37534C11.5642 4.94408 12.1935 4.87416 12.6247 5.21917Z" fill="#107F8C"/>
<path fill-rule="evenodd" clip-rule="evenodd" d="M27 17C25.3431 17 24 18.3431 24 20C24 21.6569 25.3431 23 27 23C28.6569 23 30 21.6569 30 20C30 18.3431 28.6569 17 27 17ZM26 20C26 19.4477 26.4477 19 27 19C27.5523 19 28 19.4477 28 20C28 20.5523 27.5523 21 27 21C26.4477 21 26 20.5523 26 20Z" fill="#107F8C"/>
<path fill-rule="evenodd" clip-rule="evenodd" d="M20 25C18.3431 25 17 26.3431 17 28C17 29.6569 18.3431 31 20 31C21.6569 31 23 29.6569 23 28C23 26.3431 21.6569 25 20 25ZM19 28C19 27.4477 19.4477 27 20 27C20.5523 27 21 27.4477 21 28C21 28.5523 20.5523 29 20 29C19.4477 29 19 28.5523 19 28Z" fill="#107F8C"/>
<path d="M27 24C27.5523 24 28 24.4477 28 25V30C28 30.5523 27.5523 31 27 31C26.4477 31 26 30.5523 26 30V25C26 24.4477 26.4477 24 27 24Z" fill="#107F8C"/>
<path d="M21 18C21 17.4477 20.5523 17 20 17C19.4477 17 19 17.4477 19 18V23C19 23.5523 19.4477 24 20 24C20.5523 24 21 23.5523 21 23V18Z" fill="#107F8C"/>
</svg>
