<svg width="32" height="32" viewBox="0 0 32 32" fill="none" xmlns="http://www.w3.org/2000/svg">
<path fill-rule="evenodd" clip-rule="evenodd" d="M13.6919 5.45117C14.4285 4.84961 15.488 4.84961 16.2249 5.45117L20 8.17578V6.05273C20 5.5 20.4478 5 21 5C21.5522 5 22 5.5 22 6.05273V9.44531C22 9.5 21.9954 9.55664 21.9868 9.60938L26.5918 12.9336C27.0193 13.2852 27.0823 13.9141 26.7324 14.3398C26.3828 14.7695 25.7527 14.832 25.3252 14.4805L14.9583 7L4.5913 14.4805C4.16381 14.832 3.53368 14.7695 3.18407 14.3398C2.83446 13.9141 2.89745 13.2852 3.3247 12.9336L13.6919 5.45117ZM8.00097 16C8.00097 15.4473 7.55321 15 7.00097 15C6.44872 15 6.00097 15.4473 6.00097 16L5.99999 22C5.99999 23.6562 7.34325 25 8.99999 25H13C13 25 14 25 14 24C14 23 13 23 13 23H8.99999C8.44774 23 7.99999 22.5527 7.99999 22L8.00097 16ZM19.9329 27.3086C20.3799 27.2012 20.77 26.9863 21.1035 26.666C21.5066 26.2773 21.5176 25.6543 21.1289 25.252C20.74 24.8477 20.1179 24.8379 19.7148 25.2266C19.6428 25.2949 19.5598 25.3418 19.4661 25.3633C19.373 25.3867 19.2786 25.3848 19.1824 25.3594C19.0886 25.3359 19.0088 25.293 18.9429 25.2305C18.8789 25.1699 18.8347 25.0977 18.8105 25.0098L17.0051 18.5039L23.7539 20.2617C23.854 20.2871 23.9368 20.334 24.002 20.3984C24.0242 20.4355 24.1138 20.5684 24.1257 20.6113C24.1736 20.7852 24.1306 20.9375 23.9973 21.0664C23.5967 21.459 23.5898 22.0801 23.9812 22.4805C24.3726 22.8809 24.9949 22.8887 25.3953 22.498C25.7307 22.1699 25.9548 21.7832 26.0679 21.3398C26.1746 20.9199 26.1697 20.5 26.0532 20.0781C25.9373 19.6602 25.7263 19.2969 25.4207 18.9883C25.0989 18.666 24.7122 18.4453 24.2605 18.3262L17.5432 16.5684C17.1846 16.4746 16.8289 16.4766 16.4763 16.5742C16.1431 16.666 15.8523 16.834 15.604 17.0742C15.3521 17.3184 15.1772 17.6074 15.0793 17.9395C14.9741 18.2969 14.9719 18.6562 15.0728 19.0195L16.8833 25.543C17.0076 25.9922 17.2383 26.375 17.5752 26.6895C17.8879 26.9824 18.2554 27.1855 18.677 27.2949C19.0964 27.4043 19.5151 27.4102 19.9329 27.3086ZM21.5745 21.5195L24.0925 23.9648C24.1543 24.0254 24.2305 24.0547 24.3218 24.0547C24.4128 24.0547 24.4893 24.0254 24.5508 23.9648C24.7722 23.75 25.0269 23.5859 25.3142 23.4727C25.4424 23.4219 25.5728 23.3828 25.7053 23.3574C25.8582 23.3262 26.0142 23.3105 26.1733 23.3105C26.3325 23.3105 26.4885 23.3262 26.6416 23.3574C26.7742 23.3828 26.9045 23.4219 27.0325 23.4727C27.3201 23.5859 27.5745 23.75 27.7959 23.9648L29.6912 25.7773C30.0959 26.1641 30.1099 26.7871 29.7229 27.1914C29.3359 27.5957 28.7139 27.6094 28.3091 27.2227L26.4026 25.4004C26.3408 25.3398 26.2646 25.3105 26.1733 25.3105C26.0823 25.3105 26.0059 25.3398 25.9443 25.4004C25.7229 25.6152 25.4683 25.7793 25.1809 25.8926C24.9055 26.002 24.6191 26.0547 24.3218 26.0547C24.0244 26.0547 23.7378 26.002 23.4626 25.8926C23.175 25.7793 22.9207 25.6152 22.6992 25.4004L20.1812 22.9551C19.7793 22.5645 19.7703 21.9414 20.1604 21.541C20.5505 21.1387 21.1726 21.1289 21.5745 21.5195Z" fill="#B2B8BF"/>
</svg>
