<svg width="20" height="21" viewBox="0 0 20 21" fill="none" xmlns="http://www.w3.org/2000/svg">
<path fill-rule="evenodd" clip-rule="evenodd" d="M7.00797 13.5039C6.99145 13.5041 6.97502 13.5038 6.95869 13.5031L6.92838 13.5031L6.92838 13.5014C6.41299 13.4641 6.00424 13.0264 6.00006 12.4885L5.99206 11.456H5C4.44772 11.456 4 10.9977 4 10.4324C4 9.86702 4.44772 9.40872 5 9.40872H5.97618L5.96825 8.38507H5C4.44772 8.38507 4 7.92676 4 7.36142C4 6.79607 4.44772 6.33777 5 6.33777H5.95237L5.92863 3.2756C5.92424 2.71027 6.36839 2.24834 6.92066 2.24385C6.93223 2.24376 6.94377 2.24387 6.95525 2.24417C6.97009 2.2435 6.98502 2.24316 7.00003 2.24316H10.0003C10.6373 2.24316 11.4585 2.40074 12.1554 2.84657C12.8959 3.32033 13.5005 4.13501 13.5005 5.3141C13.5005 5.98935 13.3022 6.54509 12.9937 6.98572C13.8691 7.60251 14.5 8.62751 14.5 9.92055C14.5 12.0888 12.726 13.5033 11 13.5033L7.041 13.5031C7.03004 13.5036 7.01903 13.5039 7.00797 13.5039ZM11.5005 5.3141C11.5005 5.6705 11.355 5.87946 11.0954 6.04548C10.7923 6.23943 10.3634 6.33776 10.0003 6.33777L7.95244 6.33775L7.93656 4.29047H10.0003C10.3634 4.29047 10.7923 4.38879 11.0955 4.58273C11.355 4.74875 11.5005 4.95771 11.5005 5.3141ZM7.99212 11.4559L7.96831 8.38509L11 8.38509C11.7578 8.38509 12.5 9.0178 12.5 9.92055C12.5 10.8233 11.7578 11.456 11 11.456L7.99212 11.4559Z" fill="#107F8C"/>
<path d="M17.3 10.8419C16.9686 10.3896 16.3418 10.298 15.9 10.6372C15.4582 10.9764 15.3686 11.618 15.7 12.0703L16.75 13.5034L14.5 16.5743H3V11.4561C3 10.8907 2.55228 10.4324 2 10.4324C1.44772 10.4324 1 10.8907 1 11.4561V16.5743C1 17.705 1.89543 18.6216 3 18.6216H14.5C15.1295 18.6216 15.7223 18.3182 16.1 17.8027L18.35 14.7318C18.8833 14.0038 18.8833 13.0029 18.35 12.275L17.3 10.8419Z" fill="#107F8C"/>
</svg>
