<svg width="20" height="20" viewBox="0 0 20 20" fill="none" xmlns="http://www.w3.org/2000/svg">
<path fill-rule="evenodd" clip-rule="evenodd" d="M11.2929 0.292893C11.6834 -0.0976311 12.3166 -0.0976311 12.7071 0.292893L14.7071 2.29289C15.0976 2.68342 15.0976 3.31658 14.7071 3.70711L12.7071 5.7071C12.3166 6.09763 11.6834 6.09763 11.2929 5.7071C10.9024 5.31658 10.9024 4.68342 11.2929 4.29289L11.5724 4.01333C11.1137 4.03058 10.6102 4.06681 9.94502 4.13452C8.41157 4.29061 6.60721 5.44097 5.92847 7.13784C5.72335 7.65063 5.14138 7.90004 4.6286 7.69493C4.11582 7.48981 3.8664 6.90784 4.07151 6.39506C5.05699 3.93136 7.55326 2.36764 9.7425 2.1448C10.5025 2.06744 11.0757 2.02838 11.597 2.01127L11.2929 1.70711C10.9024 1.31658 10.9024 0.683417 11.2929 0.292893ZM8.50604 7.87679C9.33486 7.33025 10.2693 7.18251 10.8248 7.18251C11.6794 7.18251 13.1065 7.26935 14.2038 8.11359C14.6415 8.45038 14.7233 9.07824 14.3865 9.51595C14.0497 9.95366 13.4218 10.0355 12.9841 9.69869C12.4564 9.29261 11.6344 9.18251 10.8248 9.18251C10.5482 9.18251 10.0264 9.26993 9.60705 9.54645C9.24721 9.78374 8.91239 10.1839 8.91239 11.0045C8.91239 11.2253 9.00821 11.4569 9.48911 11.7627C9.99723 12.0858 10.7094 12.3429 11.5739 12.6484C11.5942 12.6555 11.6146 12.6627 11.635 12.6699C12.4217 12.9477 13.3444 13.2735 14.0657 13.7321C14.833 14.22 15.5693 14.9879 15.5693 16.178C15.5693 17.0645 15.3371 17.8051 14.9125 18.3942C14.4935 18.9754 13.9377 19.3397 13.3994 19.5679C12.3785 20.0007 11.2748 20.0002 10.85 20C10.8413 20 10.8329 20 10.8248 20C10.0041 20 9.12783 19.7342 8.37745 19.3879C7.62145 19.039 6.89148 18.5612 6.37317 18.0429C5.98264 17.6523 5.98264 17.0192 6.37317 16.6287C6.76369 16.2381 7.39686 16.2381 7.78738 16.6287C8.10118 16.9424 8.61938 17.2968 9.21557 17.572C9.81737 17.8497 10.3973 18 10.8248 18C11.2521 18 11.9963 17.9904 12.6188 17.7266C12.9126 17.602 13.1369 17.4372 13.29 17.2247C13.4374 17.0202 13.5693 16.7025 13.5693 16.178C13.5693 15.9572 13.4735 15.7256 12.9926 15.4198C12.4845 15.0967 11.7723 14.8396 10.9078 14.5341C10.8875 14.527 10.8671 14.5198 10.8466 14.5126C10.0599 14.2348 9.13724 13.909 8.41595 13.4504C7.64868 12.9625 6.91239 12.1946 6.91239 11.0045C6.91239 9.47335 7.61771 8.46257 8.50604 7.87679Z" fill="#107F8C"/>
</svg>
