<svg width="20" height="20" viewBox="0 0 20 20" fill="none" xmlns="http://www.w3.org/2000/svg">
<path fill-rule="evenodd" clip-rule="evenodd" d="M10.9999 0.999992C10.9999 0.447712 10.5522 0 9.99992 0C9.44764 0 8.99993 0.447712 8.99993 0.999992V2.07087C5.60766 2.5561 2.99998 5.47348 2.99998 8.99993V13.9999H1.99998C1.4477 13.9999 0.999992 14.4476 0.999992 14.9999C0.999992 15.5522 1.4477 15.9999 1.99998 15.9999H17.9999C18.5521 15.9999 18.9998 15.5522 18.9998 14.9999C18.9998 14.4476 18.5521 13.9999 17.9999 13.9999H16.9999V8.99993C16.9999 5.47348 14.3922 2.5561 10.9999 2.07087V0.999992ZM14.9999 8.99993V13.9999H4.99996V8.99993C4.99996 6.23852 7.23852 3.99997 9.99992 3.99997C12.7613 3.99997 14.9999 6.23852 14.9999 8.99993Z" fill="#107F8C"/>
<path fill-rule="evenodd" clip-rule="evenodd" d="M7.7668 17.1344C8.24486 16.8579 8.85658 17.0212 9.13312 17.4993C9.30753 17.8008 9.63107 18 9.99994 18C10.3688 18 10.6924 17.8008 10.8668 17.4993C11.1433 17.0212 11.755 16.8579 12.2331 17.1344C12.7111 17.411 12.8745 18.0227 12.598 18.5007C12.0808 19.3948 11.1116 20 9.99994 20C8.88827 20 7.91912 19.3948 7.40192 18.5007C7.12538 18.0227 7.28874 17.411 7.7668 17.1344Z" fill="#107F8C"/>
</svg>
