<svg width="32" height="32" viewBox="0 0 32 32" fill="none" xmlns="http://www.w3.org/2000/svg">
<path fill-rule="evenodd" clip-rule="evenodd" d="M4 10C4 8.34315 5.34315 7 7 7H25C26.6569 7 28 8.34315 28 10V22C28 23.6569 26.6569 25 25 25H7C5.34314 25 4 23.6569 4 22V10ZM7 9C6.44772 9 6 9.44772 6 10V22C6 22.5523 6.44772 23 7 23H25C25.5523 23 26 22.5523 26 22V10C26 9.44771 25.5523 9 25 9H7Z" fill="#21A19A"/>
<path fill-rule="evenodd" clip-rule="evenodd" d="M9 13C9 12.4477 9.44772 12 10 12H22C22.5523 12 23 12.4477 23 13C23 13.5523 22.5523 14 22 14H10C9.44772 14 9 13.5523 9 13Z" fill="#21A19A"/>
</svg>
