<svg width="20" height="20" viewBox="0 0 20 20" fill="none" xmlns="http://www.w3.org/2000/svg">
<path fill-rule="evenodd" clip-rule="evenodd" d="M6.29022 2C6.07195 2 5.67805 2.24575 5.55968 2.76599C5.55475 2.78763 5.54911 2.80911 5.54275 2.83038L4.95842 4.78626C4.80032 5.31543 4.24318 5.61625 3.71401 5.45815C3.18483 5.30006 2.88401 4.74292 3.04211 4.21374L3.61791 2.28645C3.8951 1.13524 4.90381 0 6.29022 0H8.0001C8.00015 0 8.00021 0 8.00026 0H13.7059C15.0918 0 16.1003 1.13451 16.3779 2.28535L16.9578 4.21177C17.117 4.74061 16.8173 5.29837 16.2885 5.45756C15.7596 5.61675 15.2018 5.31708 15.0427 4.78823L14.4539 2.83236C14.4473 2.81044 14.4415 2.78831 14.4364 2.76599C14.318 2.24575 13.9241 2 13.7059 2H8.00026C8.00021 2 8.00015 2 8.0001 2H6.29022ZM0 10C0 8.34315 1.34315 7 3 7H17C18.6569 7 20 8.34315 20 10V12C20 13.3062 19.1652 14.4175 18 14.8293V15C18 16.6569 16.6569 18 15 18C13.3431 18 12.0001 16.6566 12 15H8C8 16.6569 6.65685 18 5 18C3.34315 18 2 16.6569 2 15V14.8293C0.834808 14.4175 0 13.3062 0 12V10ZM3 9C2.44772 9 2 9.44772 2 10V12C2 12.5523 2.44772 13 3 13C3.55228 13 4 13.4477 4 14L4 15C4 15.5523 4.44772 16 5 16C5.55228 16 6 15.5523 6 15V14C6 13.4477 6.44772 13 7 13H13C13.5523 13 14 13.4477 14 14V14.9998C14 15.5522 14.4478 16 15 16C15.5523 16 16 15.5523 16 15V14C16 13.4477 16.4477 13 17 13C17.5523 13 18 12.5523 18 12V10C18 9.44771 17.5523 9 17 9H3ZM13 11C13 10.4477 13.4477 10 14 10H16C16.5523 10 17 10.4477 17 11C17 11.5523 16.5523 12 16 12H14C13.4477 12 13 11.5523 13 11ZM4 10C3.44772 10 3 10.4477 3 11C3 11.5523 3.44772 12 4 12H6C6.55228 12 7 11.5523 7 11C7 10.4477 6.55228 10 6 10H4Z" fill="#107F8C"/>
</svg>
