<svg width="32" height="32" viewBox="0 0 32 32" fill="none" xmlns="http://www.w3.org/2000/svg">
<path fill-rule="evenodd" clip-rule="evenodd" d="M4 10C4 6.68555 6.68628 4 10 4H22C25.3137 4 28 6.68555 28 10V22C28 25.3145 25.3137 28 22 28H10C6.68628 28 4 25.3145 4 22V10ZM10 6H22C24.2092 6 26 7.79102 26 10V22C26 24.209 24.2092 26 22 26H10C7.79077 26 6 24.209 6 22V10C6 7.79102 7.79077 6 10 6ZM12.2715 17.6289L11.0715 20.6289C10.8635 21.1484 11.1086 21.7207 11.6287 21.9277C12.1484 22.1367 12.7205 21.8906 12.9285 21.3711L13.877 19H18.123L19.0715 21.3711C19.2795 21.8906 19.8516 22.1367 20.3713 21.9277C20.8914 21.7207 21.1365 21.1484 20.9285 20.6289L19.7285 17.6289L16.9285 10.6289C16.8777 10.502 16.804 10.3906 16.707 10.293C16.6104 10.1953 16.4985 10.123 16.3713 10.0723C16.115 9.96875 15.8599 9.97266 15.606 10.0801C15.3523 10.1895 15.1741 10.373 15.0715 10.6289L12.2715 17.6289ZM17.323 17L16 13.6934L14.677 17H17.323Z" fill="#B2B8BF"/>
</svg>
