<svg width="20" height="20" viewBox="0 0 20 20" fill="none" xmlns="http://www.w3.org/2000/svg">
<path fill-rule="evenodd" clip-rule="evenodd" d="M19.7072 1.70711C20.0978 1.31658 20.0978 0.683417 19.7072 0.292893C19.3167 -0.0976311 18.6835 -0.0976311 18.293 0.292893L12.293 6.29289C11.9025 6.68342 11.9025 7.31658 12.293 7.70711C12.6835 8.09763 13.3167 8.09763 13.7072 7.70711L19.7072 1.70711ZM0.0513439 0.684044C0.225992 0.1601 0.792312 -0.12306 1.31625 0.051588L4.31625 1.05159C4.64061 1.15971 4.88725 1.42604 4.97017 1.75774L5.53074 4H10.5004C11.0527 4 11.5004 4.44772 11.5004 5C11.5004 5.55228 11.0527 6 10.5004 6H6.03074L7.7808 13.0003H15.7793L16.5513 10.684C16.726 10.1601 17.2923 9.87694 17.8163 10.0516C18.3402 10.2262 18.6234 10.7926 18.4487 11.3165L17.4487 14.3165C17.3126 14.7248 16.9305 15.0003 16.5 15.0003H7.00003C6.54116 15.0003 6.14118 14.688 6.02988 14.2428L3.16302 2.77536L0.683799 1.94895C0.159856 1.77431 -0.123304 1.20799 0.0513439 0.684044ZM17 18C17 19.1046 16.1046 20 15 20C13.8954 20 13 19.1046 13 18C13 16.8954 13.8954 16 15 16C16.1046 16 17 16.8954 17 18ZM8 20C9.10457 20 10 19.1046 10 18C10 16.8954 9.10457 16 8 16C6.89543 16 6 16.8954 6 18C6 19.1046 6.89543 20 8 20ZM15 1.5C15 2.32843 14.3284 3 13.5 3C12.6716 3 12 2.32843 12 1.5C12 0.671573 12.6716 0 13.5 0C14.3284 0 15 0.671573 15 1.5ZM18.5 8C19.3284 8 20 7.32843 20 6.5C20 5.67157 19.3284 5 18.5 5C17.6716 5 17 5.67157 17 6.5C17 7.32843 17.6716 8 18.5 8Z" fill="#B2B8BF"/>
</svg>
