<svg width="20" height="20" viewBox="0 0 20 20" fill="none" xmlns="http://www.w3.org/2000/svg">
<path fill-rule="evenodd" clip-rule="evenodd" d="M7.49991 0C5.01466 0 2.99996 2.01469 2.99996 4.49995C2.99996 6.9852 5.01466 8.99989 7.49991 8.99989C9.98516 8.99989 11.9999 6.9852 11.9999 4.49995C11.9999 2.01469 9.98516 0 7.49991 0ZM4.99994 4.49995C4.99994 3.11925 6.11921 1.99998 7.49991 1.99998C8.8806 1.99998 9.99988 3.11925 9.99988 4.49995C9.99988 5.88064 8.8806 6.99991 7.49991 6.99991C6.11921 6.99991 4.99994 5.88064 4.99994 4.49995Z" fill="#107F8C"/>
<path d="M7.44379 12.4698C6.08025 12.4698 4.76001 11.9991 3.69832 11.1424C2.61852 12.2007 1.99998 13.6684 1.99998 15.2075C1.99998 15.4665 2.01874 15.7324 2.05597 15.9999H6.99991C7.55219 15.9999 7.9999 16.4476 7.9999 16.9999C7.9999 17.5521 7.55219 17.9998 6.99991 17.9998H1.82734C0.971522 17.9998 0.263151 17.3763 0.11897 16.555C0.0408377 16.1082 0 15.6546 0 15.2075C0 13.027 0.921071 10.9446 2.53269 9.49399L2.53412 9.49271C3.18633 8.90793 4.16604 8.90197 4.82529 9.47737L4.82714 9.47898C5.55752 10.1196 6.48727 10.4698 7.44379 10.4698C7.99607 10.4698 8.44378 10.9175 8.44378 11.4698C8.44378 12.0221 7.99607 12.4698 7.44379 12.4698Z" fill="#107F8C"/>
<path d="M14.8319 12.4453C14.5255 11.9857 13.9047 11.8616 13.4451 12.1679C12.9856 12.4743 12.8615 13.0951 13.1678 13.5546L14.1313 14.9998H12.4141L11.207 13.7927C10.8165 13.4022 10.1833 13.4022 9.79277 13.7927C9.40225 14.1832 9.40225 14.8164 9.79277 15.2069L11.2928 16.7069C11.4803 16.8944 11.7346 16.9998 11.9999 16.9998H14.1314L13.1678 18.4452C12.8614 18.9047 12.9856 19.5256 13.4451 19.8319C13.9047 20.1383 14.5255 20.0141 14.8319 19.5546L16.5351 16.9998H18.9998C19.552 16.9998 19.9998 16.5521 19.9998 15.9998C19.9998 15.4475 19.552 14.9998 18.9998 14.9998H16.5349L14.8319 12.4453Z" fill="#107F8C"/>
</svg>
