<svg width="32" height="32" viewBox="0 0 32 32" fill="none" xmlns="http://www.w3.org/2000/svg">
<path fill-rule="evenodd" clip-rule="evenodd" d="M17.021 6.12102C16.6305 5.73049 15.9974 5.73049 15.6068 6.12102L7.12155 14.6063C6.88293 14.8449 6.78922 15.1737 6.84356 15.4864L6.85828 15.5711L6.85833 15.6571C6.85846 15.9144 6.95589 16.1683 7.15122 16.3637L15.6365 24.8489C16.027 25.2395 16.6602 25.2395 17.0507 24.8489L19.8791 22.0205C20.2697 21.63 20.2697 20.9968 19.8791 20.6063L14.743 15.4701L19.8495 10.3637C20.24 9.97313 20.24 9.33997 19.8495 8.94945L17.021 6.12102ZM14.1926 4.7068C15.3642 3.53523 17.2637 3.53523 18.4353 4.7068L21.2637 7.53523C22.4353 8.7068 22.4353 10.6063 21.2637 11.7779L17.5714 15.4701L21.2934 19.1921C22.4649 20.3637 22.4649 22.2632 21.2934 23.4347L18.4649 26.2632C17.2934 27.4347 15.3939 27.4347 14.2223 26.2632L5.73701 17.7779C5.17369 17.2146 4.88104 16.481 4.8596 15.744C4.72939 14.8423 5.01102 13.8884 5.70734 13.1921L14.1926 4.7068Z" fill="#21A19A"/>
<path d="M26 17C27.1046 17 28 16.1046 28 15C28 13.8954 27.1046 13 26 13C24.8954 13 24 13.8954 24 15C24 16.1046 24.8954 17 26 17Z" fill="#21A19A"/>
</svg>
