<svg width="20" height="20" viewBox="0 0 20 20" fill="none" xmlns="http://www.w3.org/2000/svg">
<path d="M6.65584 0.0611597C6.87816 -0.0203866 7.12221 -0.0203866 7.34454 0.0611597L13.3445 2.26186C13.863 2.45204 14.1291 3.02654 13.9389 3.54504C13.7488 4.06354 13.1743 4.3297 12.6558 4.13952L7.00019 2.06512L1.34461 4.13952C0.82611 4.3297 0.251611 4.06354 0.0614317 3.54504C-0.128748 3.02654 0.137408 2.45204 0.655909 2.26186L6.65584 0.0611597Z" fill="#107F8C"/>
<path d="M0.0305172 12.9998C0.0305172 12.4476 0.478227 11.9999 1.0305 11.9999H8.53041C9.08269 11.9999 9.5304 12.4476 9.5304 12.9998C9.5304 13.5521 9.08269 13.9998 8.53041 13.9998H1.0305C0.478227 13.9998 0.0305172 13.5521 0.0305172 12.9998Z" fill="#107F8C"/>
<path d="M8.00015 5.99993C8.00015 5.44765 7.55244 4.99994 7.00016 4.99994C6.44788 4.99994 6.00017 5.44765 6.00017 5.99993V9.73032C6.00017 10.2826 6.44788 10.7303 7.00016 10.7303C7.55244 10.7303 8.00015 10.2826 8.00015 9.73032V5.99993Z" fill="#107F8C"/>
<path d="M11.0001 4.99994C11.5524 4.99994 12.0001 5.44765 12.0001 5.99993V6.99991C12.0001 7.55219 11.5524 7.9999 11.0001 7.9999C10.4478 7.9999 10.0001 7.55219 10.0001 6.99991V5.99993C10.0001 5.44765 10.4478 4.99994 11.0001 4.99994Z" fill="#107F8C"/>
<path d="M4.0002 5.99993C4.0002 5.44765 3.55249 4.99994 3.00021 4.99994C2.44793 4.99994 2.00022 5.44765 2.00022 5.99993V9.73032C2.00022 10.2826 2.44793 10.7303 3.00021 10.7303C3.55249 10.7303 4.0002 10.2826 4.0002 9.73032V5.99993Z" fill="#107F8C"/>
<path fill-rule="evenodd" clip-rule="evenodd" d="M12.0001 11.9999C12.0001 10.8953 12.8955 9.99988 14.0001 9.99988H16.4323C16.9753 9.99988 17.495 10.2207 17.872 10.6116L19.4397 12.2374C19.7991 12.6102 20 13.1078 20 13.6257V17.9998C20 19.1043 19.1046 19.9998 18 19.9998H14.0001C12.8955 19.9998 12.0001 19.1043 12.0001 17.9998V11.9999ZM16.4323 11.9999H14.0001V17.9998L18 17.9998V13.6257L16.4323 11.9999Z" fill="#107F8C"/>
</svg>
