<svg width="20" height="20" viewBox="0 0 20 20" fill="none" xmlns="http://www.w3.org/2000/svg">
<path fill-rule="evenodd" clip-rule="evenodd" d="M19.7071 1.70708C20.0976 1.31656 20.0976 0.683405 19.7071 0.292888C19.3166 -0.0976293 18.6834 -0.0976293 18.2929 0.292888L12.293 6.29278C11.9025 6.68329 11.9025 7.31645 12.293 7.70697C12.6836 8.09748 13.3167 8.09748 13.7072 7.70697L19.7071 1.70708ZM0.0515871 0.684031C0.226232 0.160097 0.792541 -0.123057 1.31648 0.0515871L4.31642 1.05157C4.64077 1.15969 4.8874 1.42602 4.97032 1.7577L5.53088 3.99993H10.5004C11.0527 3.99993 11.5004 4.44763 11.5004 4.99991C11.5004 5.55218 11.0527 5.99989 10.5004 5.99989H6.03087L7.78091 13H15.7792L16.5513 10.6838C16.7259 10.1599 17.2922 9.87676 17.8162 10.0514C18.3401 10.226 18.6233 10.7924 18.4486 11.3163L17.4486 14.3162C17.3125 14.7246 16.9304 15 16.5 15H7.00014C6.54128 15 6.14131 14.6877 6.03002 14.2425L3.16321 2.77531L0.684031 1.94892C0.160097 1.77427 -0.123058 1.20796 0.0515871 0.684031ZM16.9999 17.9997C16.9999 19.1042 16.1045 19.9996 15 19.9996C13.8954 19.9996 13 19.1042 13 17.9997C13 16.8951 13.8954 15.9997 15 15.9997C16.1045 15.9997 16.9999 16.8951 16.9999 17.9997ZM8.0001 19.9996C9.10465 19.9996 10.0001 19.1042 10.0001 17.9997C10.0001 16.8951 9.10465 15.9997 8.0001 15.9997C6.89555 15.9997 6.00013 16.8951 6.00013 17.9997C6.00013 19.1042 6.89555 19.9996 8.0001 19.9996ZM15 1.49997C15 2.32838 14.3284 2.99995 13.5 2.99995C12.6716 2.99995 12 2.32838 12 1.49997C12 0.671561 12.6716 1.49009e-08 13.5 1.49009e-08C14.3284 1.49009e-08 15 0.671561 15 1.49997ZM18.4999 7.99985C19.3283 7.99985 19.9999 7.32829 19.9999 6.49988C19.9999 5.67147 19.3283 4.99991 18.4999 4.99991C17.6715 4.99991 16.9999 5.67147 16.9999 6.49988C16.9999 7.32829 17.6715 7.99985 18.4999 7.99985Z" fill="#B2B8BF"/>
</svg>
