<svg width="128" height="128" viewBox="0 0 128 128" fill="none" xmlns="http://www.w3.org/2000/svg">
<circle cx="64" cy="64" r="64" fill="#B2B8BF" fill-opacity="0.2"/>
<g filter="url(#filter0_d_14513_352)">
<path d="M90 28H38C34.6863 28 32 30.6863 32 34V97.0459C32 98.4609 33.4291 99.4284 34.7428 98.9029L40.5824 96.5671C41.4953 96.2019 42.5108 96.1858 43.4349 96.5218L51.633 99.5029C52.5161 99.824 53.4839 99.824 54.367 99.5029L62.633 96.4971C63.5161 96.176 64.4839 96.176 65.367 96.4971L73.5651 99.4782C74.4892 99.8142 75.5047 99.7981 76.4176 99.4329L83.5824 96.5671C84.4953 96.2019 85.5108 96.1858 86.4349 96.5218L93.3165 99.0242C94.6209 99.4985 96 98.5588 96 97.1709V34C96 30.6863 93.3137 28 90 28Z" fill="#565B62"/>
</g>
<path d="M46 52C44.8954 52 44 51.1046 44 50C44 48.8954 44.8954 48 46 48H62C63.1046 48 64 48.8954 64 50C64 51.1046 63.1046 52 62 52L46 52Z" fill="#D0D7DD"/>
<path d="M46 66C44.8954 66 44 65.1046 44 64C44 62.8954 44.8954 62 46 62L62 62C63.1046 62 64 62.8954 64 64C64 65.1046 63.1046 66 62 66H46Z" fill="#D0D7DD"/>
<path d="M44 78C44 76.8954 44.8954 76 46 76L82 76C83.1046 76 84 76.8954 84 78C84 79.1046 83.1046 80 82 80L46 80C44.8954 80 44 79.1046 44 78Z" fill="#D0D7DD"/>
<path fill-rule="evenodd" clip-rule="evenodd" d="M80.801 17.0934C79.7682 18.088 79.0354 19.6552 79.0354 21.9345V23.2308H76.3845V21.9345C76.3845 19.1083 77.3086 16.8464 78.9266 15.2884C80.5381 13.7365 82.717 13 84.9999 13C87.2828 13 89.4617 13.7365 91.0732 15.2884C92.6912 16.8464 93.6153 19.1083 93.6153 21.9345V23.2308H90.9644V21.9345C90.9644 19.6552 90.2316 18.088 89.1988 17.0934C88.1594 16.0925 86.6934 15.5527 84.9999 15.5527C83.3064 15.5527 81.8404 16.0925 80.801 17.0934ZM71 28.7255C71 26.6679 72.7095 25 74.8182 25H95.1818C97.2905 25 99 26.6679 99 28.7255V43.2745C99 45.3321 97.2905 47 95.1818 47H74.8182C72.7095 47 71 45.3321 71 43.2745V28.7255ZM85.8792 35.7969C86.543 35.4715 87 34.7891 87 34C87 32.8954 86.1046 32 85 32C83.8954 32 83 32.8954 83 34C83 34.7891 83.457 35.4715 84.1208 35.7969L83.1677 39.3712C83.083 39.6886 83.3223 40 83.6508 40H86.3492C86.6777 40 86.917 39.6886 86.8323 39.3712L85.8792 35.7969Z" fill="#D0D7DD"/>
<defs>
<filter id="filter0_d_14513_352" x="22" y="18" width="84" height="91.7438" filterUnits="userSpaceOnUse" color-interpolation-filters="sRGB">
<feFlood flood-opacity="0" result="BackgroundImageFix"/>
<feColorMatrix in="SourceAlpha" type="matrix" values="0 0 0 0 0 0 0 0 0 0 0 0 0 0 0 0 0 0 127 0" result="hardAlpha"/>
<feOffset/>
<feGaussianBlur stdDeviation="5"/>
<feColorMatrix type="matrix" values="0 0 0 0 0.121569 0 0 0 0 0.121569 0 0 0 0 0.133333 0 0 0 0.1 0"/>
<feBlend mode="normal" in2="BackgroundImageFix" result="effect1_dropShadow_14513_352"/>
<feBlend mode="normal" in="SourceGraphic" in2="effect1_dropShadow_14513_352" result="shape"/>
</filter>
</defs>
</svg>
