<svg width="128" height="128" viewBox="0 0 128 128" fill="none" xmlns="http://www.w3.org/2000/svg">
<circle cx="64" cy="64" r="64" fill="#B2B8BF" fill-opacity="0.2"/>
<g filter="url(#filter0_d_14030_966)">
<path d="M64 112C90.5097 112 112 90.5097 112 64C112 37.4903 90.5097 16 64 16C37.4903 16 16 37.4903 16 64C16 90.5097 37.4903 112 64 112Z" fill="#565B62"/>
</g>
<path fill-rule="evenodd" clip-rule="evenodd" d="M88.8504 56.5264C88.9558 56.3561 89.0039 56.1665 89.0001 55.9802C88.9894 42.1822 77.8006 31 64.0001 31C50.1967 31 39.0061 42.1869 39.0001 55.9889C38.9979 56.1724 39.0461 56.3587 39.1499 56.5264L51.5853 76.6144C51.8337 75.9406 52.2638 75.3302 52.8539 74.864L41.44 56.4261C42.7337 55.527 44.3054 55 46.0002 55C47.949 55 49.735 55.6968 51.1227 56.8549L53.8736 74.277C54.5189 74.0222 55.2023 73.9469 55.86 74.034L53.0914 56.4993C56.3879 54.8981 60.0891 54 64.0002 54C67.9112 54 71.6124 54.8981 74.9089 56.4992L72.1403 74.0339C72.798 73.9469 73.4813 74.0223 74.1267 74.2771L76.8775 56.8549C78.2653 55.6968 80.0513 55 82.0002 55C83.6949 55 85.2666 55.527 86.5603 56.4261L75.1463 74.8641C75.7364 75.3304 76.1664 75.9408 76.4148 76.6147L88.8504 56.5264ZM53.9143 76.5944C53.555 76.9578 53.3535 77.4425 53.3384 77.9413L53.3385 77.9412C53.3276 78.3006 53.4134 78.6673 53.6067 79.0014C54.3995 80.372 55.3543 81.7158 56.299 83.0454L56.2992 83.0457C56.8837 83.8683 57.4642 84.6853 58.0001 85.4999H58.0358L58.8627 97.0762C58.9402 98.1602 59.8421 99 60.9288 99C62.0728 99 63.0001 98.0726 63.0001 96.9287V92C63.0001 91.4477 63.4479 91 64.0001 91C64.5524 91 65.0001 91.4477 65.0001 92V96.9287C65.0001 98.0726 65.9275 99 67.0715 99C68.1582 99 69.0601 98.1602 69.1375 97.0762L69.9648 85.4943C70.4924 84.703 71.0635 83.9081 71.6388 83.1072C72.6071 81.7594 73.5875 80.3947 74.3934 79.0014C74.9465 78.0453 74.6198 76.8218 73.6637 76.2688C72.7076 75.7157 71.4841 76.0424 70.931 76.9985C69.7216 79.0892 67.599 80.5775 65.1126 80.9233C64.749 80.9739 64.3776 81 64.0001 81C63.6667 81 63.338 80.9796 63.0152 80.94H63.0151C60.4738 80.6281 58.2991 79.1249 57.0691 76.9985C56.516 76.0424 55.2925 75.7157 54.3364 76.2688C54.1781 76.3603 54.037 76.4703 53.9143 76.5944L53.9143 76.5944ZM70.0001 73C70.0001 76.3137 67.3138 79 64.0001 79C60.6864 79 58.0001 76.3137 58.0001 73C58.0001 69.6863 60.6864 67 64.0001 67C67.3138 67 70.0001 69.6863 70.0001 73Z" fill="#D0D7DD"/>
<defs>
<filter id="filter0_d_14030_966" x="6" y="6" width="116" height="116" filterUnits="userSpaceOnUse" color-interpolation-filters="sRGB">
<feFlood flood-opacity="0" result="BackgroundImageFix"/>
<feColorMatrix in="SourceAlpha" type="matrix" values="0 0 0 0 0 0 0 0 0 0 0 0 0 0 0 0 0 0 127 0" result="hardAlpha"/>
<feOffset/>
<feGaussianBlur stdDeviation="5"/>
<feColorMatrix type="matrix" values="0 0 0 0 0.121569 0 0 0 0 0.121569 0 0 0 0 0.133333 0 0 0 0.1 0"/>
<feBlend mode="normal" in2="BackgroundImageFix" result="effect1_dropShadow_14030_966"/>
<feBlend mode="normal" in="SourceGraphic" in2="effect1_dropShadow_14030_966" result="shape"/>
</filter>
</defs>
</svg>
