<svg width="128" height="128" viewBox="0 0 128 128" fill="none" xmlns="http://www.w3.org/2000/svg">
<circle cx="64" cy="64" r="64" fill="#B2B8BF" fill-opacity="0.2"/>
<path d="M64 112C90.5 112 112 90.5 112 64C112 37.5 90.5 16 64 16C37.5 16 16 37.5 16 64C16 90.5 37.5 112 64 112Z" fill="white"/>
<g clip-path="url(#clip0)">
<path fill-rule="evenodd" clip-rule="evenodd" d="M78 62.0001C70.8 62.0001 65 67.9001 65 75.0001C65 82.1001 70.8 88.0001 78 88.0001C85.2 88.0001 91 82.2001 91 75.0001C91 67.8001 85.2 62.0001 78 62.0001ZM68.2 75.0001C68.2 69.6001 72.6 65.2001 78 65.2001C80.3 65.2001 82.3 66.0001 84 67.2001L70.3 81.0001C69.1 79.3001 68.2 77.3001 68.2 75.0001ZM78 84.8001C76 84.8001 74.3 84.2001 72.7 83.3001L86.2 69.8001C87.2 71.3001 87.7 73.1001 87.7 75.1001C87.8 80.4001 83.4 84.8001 78 84.8001Z" fill="#B2B8BF"/>
<path d="M81.3657 50.4067C83.3853 48.3859 83.5872 45.2537 81.6687 43.3339L77.6296 39.2924C75.711 37.4737 72.5807 37.5747 70.5612 39.5955L68.8445 41.3132L79.6491 52.0233L81.3657 50.4067Z" fill="#B2B8BF"/>
<path d="M36.0269 83.5476C35.9259 84.0528 36.1279 84.457 36.3298 84.6591C36.6328 84.9622 37.1376 85.0632 37.4406 84.9622L48.3461 82.5372L38.4503 72.6354L36.0269 83.5476Z" fill="#B2B8BF"/>
<path d="M39.3594 70.9178L50.164 81.628L78.3366 53.4379L67.5321 42.8288L39.3594 70.9178Z" fill="#B2B8BF"/>
</g>
<defs>
<clipPath id="clip0">
<rect width="55" height="50" fill="white" transform="translate(36 38)"/>
</clipPath>
</defs>
</svg>
