<svg width="128" height="128" viewBox="0 0 128 128" fill="none" xmlns="http://www.w3.org/2000/svg">
<circle cx="64" cy="64" r="64" fill="#B2B8BF" fill-opacity="0.2"/>
<g clip-path="url(#clip0_1731_546)">
<path d="M85.8465 46.3308C87.3845 47.8688 87.3845 50.3624 85.8465 51.9004L83.0617 54.6852L73.3148 44.9383L76.0996 42.1535C77.6376 40.6155 80.1312 40.6155 81.6692 42.1535L85.8465 46.3308Z" fill="#B2B8BF"/>
<path d="M81.6692 56.0776L71.9223 46.3308L44.0741 74.179L53.821 83.9259L81.6692 56.0776Z" fill="#B2B8BF"/>
<path d="M51.9855 84.8753L42.1919 86.9774C41.4933 87.1274 40.8726 86.5067 41.0226 85.8081L43.1247 76.0145L51.9855 84.8753Z" fill="#B2B8BF"/>
</g>
<g filter="url(#filter0_d_1731_546)">
<path fill-rule="evenodd" clip-rule="evenodd" d="M64 112C90.5 112 112 90.5 112 64C112 37.5 90.5 16 64 16C37.5 16 16 37.5 16 64C16 90.5 37.5 112 64 112ZM87.6993 93.6998C81.2002 98.8937 72.9609 102 64 102C43.0228 102 26 84.9771 26 64C26 55.0391 29.1063 46.7998 34.3002 40.3007L87.6993 93.6998ZM94.6291 86.4875L41.5125 33.3709C47.8103 28.7379 55.5872 26 64 26C84.9771 26 102 43.0228 102 64C102 72.4128 99.2621 80.1897 94.6291 86.4875Z" fill="white"/>
</g>
<defs>
<filter id="filter0_d_1731_546" x="6" y="6" width="116" height="116" filterUnits="userSpaceOnUse" color-interpolation-filters="sRGB">
<feFlood flood-opacity="0" result="BackgroundImageFix"/>
<feColorMatrix in="SourceAlpha" type="matrix" values="0 0 0 0 0 0 0 0 0 0 0 0 0 0 0 0 0 0 127 0" result="hardAlpha"/>
<feOffset/>
<feGaussianBlur stdDeviation="5"/>
<feColorMatrix type="matrix" values="0 0 0 0 0.121569 0 0 0 0 0.121569 0 0 0 0 0.133333 0 0 0 0.1 0"/>
<feBlend mode="normal" in2="BackgroundImageFix" result="effect1_dropShadow_1731_546"/>
<feBlend mode="normal" in="SourceGraphic" in2="effect1_dropShadow_1731_546" result="shape"/>
</filter>
<clipPath id="clip0_1731_546">
<rect width="46" height="46" fill="white" transform="translate(41 41)"/>
</clipPath>
</defs>
</svg>
