<svg width="128" height="128" viewBox="0 0 128 128" fill="none" xmlns="http://www.w3.org/2000/svg">
<circle cx="64" cy="64" r="64" fill="#B2B8BF" fill-opacity="0.2"/>
<path d="M64 112C90.5 112 112 90.5 112 64C112 37.5 90.5 16 64 16C37.5 16 16 37.5 16 64C16 90.5 37.5 112 64 112Z" fill="white"/>
<path d="M63.5 49.0243C71.5 49.0243 78 55.5189 78 63.5122C78 71.5054 71.5 78 63.5 78C55.5 78 49 71.5054 49 63.5122C49 55.5189 55.5 49.0243 63.5 49.0243ZM90.6 49.1242C91.7 49.424 92.2 50.623 91.9 51.6221L86.8 67.0092H94V62.0134C94 60.9143 94.9 60.0151 96 60.0151C97.1 60.0151 98 60.9143 98 62.0134V76.0017C98 77.1008 97.1 78 96 78C94.9 78 94 77.1008 94 76.0017V71.0059H84C83.4 71.0059 82.8 70.7061 82.4 70.2065C82 69.707 81.9 69.0075 82.1 68.4081L88.1 50.4231C88.4 49.3241 89.5 48.7246 90.6 49.1242ZM37.6 49.1242C38.6 49.424 39.2 50.623 38.9 51.6221L33.8 67.0092H41V62.0134C41 60.9143 41.9 60.0151 43 60.0151C44.1 60.0151 45 60.9143 45 62.0134V76.0017C45 77.1008 44.1 78 43 78C41.9 78 41 77.1008 41 76.0017V71.0059H31C30.4 71.0059 29.8 70.7061 29.4 70.2065C29 69.607 28.9 69.0075 29.1 68.4081L35.1 50.4231C35.4 49.3241 36.6 48.8245 37.6 49.1242ZM63.5 53.021C57.7 53.021 53 57.717 53 63.5122C53 69.3073 57.7 74.0034 63.5 74.0034C69.3 74.0034 74 69.3073 74 63.5122C74 57.717 69.3 53.021 63.5 53.021ZM63.5 66.0101C65.8 66.0101 67.6 66.8094 68.8 68.4081C69.1 68.8077 69.1384 69.4482 68.6 69.8069C68.0976 70.1415 67.4083 69.8933 67.2 69.607C66.4 68.508 65.2 68.0084 63.5 68.0084C61.8 68.0084 60.6 68.508 59.8 69.607C59.5 70.0067 58.8 70.1066 58.4 69.8069C58 69.5071 57.9 68.8077 58.2 68.4081C59.4 66.8094 61.2 66.0101 63.5 66.0101ZM59 59.0159C60.1 59.0159 61 59.9152 61 61.0143C61 62.1133 60.1 63.0126 59 63.0126C57.9 63.0126 57 62.1133 57 61.0143C57 59.9152 57.9 59.0159 59 59.0159ZM68 59.0159C69.1 59.0159 70 59.9152 70 61.0143C70 62.1133 69.1 63.0126 68 63.0126C66.9 63.0126 66 62.1133 66 61.0143C66 59.9152 66.9 59.0159 68 59.0159Z" fill="#B2B8BF"/>
</svg>
