<svg width="128" height="128" viewBox="0 0 128 128" fill="none" xmlns="http://www.w3.org/2000/svg">
<g clip-path="url(#clip0_14030_962)">
<circle cx="64" cy="64" r="64" fill="#B2B8BF" fill-opacity="0.2"/>
<g filter="url(#filter0_d_14030_962)">
<path d="M64 112C90.5097 112 112 90.5097 112 64C112 37.4903 90.5097 16 64 16C37.4903 16 16 37.4903 16 64C16 90.5097 37.4903 112 64 112Z" fill="#565B62"/>
</g>
<g clip-path="url(#clip1_14030_962)">
<path fill-rule="evenodd" clip-rule="evenodd" d="M77.042 50.2477L65.7486 38.9543L37.2432 67.4597L48.5367 78.7532L77.042 50.2477ZM78.4537 48.836L80.5318 46.7579C82.4844 44.8053 82.4844 41.6395 80.5318 39.6869L76.3094 35.4645C74.3568 33.5118 71.1909 33.5118 69.2383 35.4645L67.1602 37.5426L78.4537 48.836ZM34.0184 80.8096L36.2326 69.2724L46.724 79.7639L35.1869 81.9781C34.4939 82.1111 33.8854 81.5026 34.0184 80.8096ZM79 88C85.0751 88 90 83.0751 90 77C90 74.685 89.2849 72.5371 88.0635 70.765L72.765 86.0635C74.5371 87.2849 76.685 88 79 88ZM85.2351 67.9366L69.9366 83.2351C68.7151 81.463 68 79.315 68 77C68 70.9249 72.9249 66 79 66C81.315 66 83.463 66.7151 85.2351 67.9366ZM79 92C87.2843 92 94 85.2843 94 77C94 68.7157 87.2843 62 79 62C70.7157 62 64 68.7157 64 77C64 85.2843 70.7157 92 79 92Z" fill="#B2B8BF"/>
</g>
</g>
<defs>
<filter id="filter0_d_14030_962" x="6" y="6" width="116" height="116" filterUnits="userSpaceOnUse" color-interpolation-filters="sRGB">
<feFlood flood-opacity="0" result="BackgroundImageFix"/>
<feColorMatrix in="SourceAlpha" type="matrix" values="0 0 0 0 0 0 0 0 0 0 0 0 0 0 0 0 0 0 127 0" result="hardAlpha"/>
<feOffset/>
<feGaussianBlur stdDeviation="5"/>
<feColorMatrix type="matrix" values="0 0 0 0 0.121569 0 0 0 0 0.121569 0 0 0 0 0.133333 0 0 0 0.1 0"/>
<feBlend mode="normal" in2="BackgroundImageFix" result="effect1_dropShadow_14030_962"/>
<feBlend mode="normal" in="SourceGraphic" in2="effect1_dropShadow_14030_962" result="shape"/>
</filter>
<clipPath id="clip0_14030_962">
<rect width="128" height="128" fill="white"/>
</clipPath>
<clipPath id="clip1_14030_962">
<rect width="60" height="58" fill="white" transform="translate(34 34)"/>
</clipPath>
</defs>
</svg>
