<svg width="128" height="128" viewBox="0 0 128 128" fill="none" xmlns="http://www.w3.org/2000/svg">
<g clip-path="url(#clip0_12830_825)">
<circle cx="64" cy="64" r="64" fill="#B2B8BF" fill-opacity="0.2"/>
<g filter="url(#filter0_d_12830_825)">
<path d="M64 112C90.5097 112 112 90.5097 112 64C112 37.4903 90.5097 16 64 16C37.4903 16 16 37.4903 16 64C16 90.5097 37.4903 112 64 112Z" fill="white"/>
</g>
<path fill-rule="evenodd" clip-rule="evenodd" d="M65.1443 39.1572C64.4189 38.9476 63.6489 38.9476 62.9235 39.1572L42.4444 45.075C40.2197 45.7178 40.6839 48.9964 42.9996 48.9964H85C87.3157 48.9964 87.7799 45.7178 85.5552 45.075L65.1443 39.1572ZM43 51C41.8954 51 41 51.8954 41 53C41 54.1046 41.8954 55 43 55H44V75H43C41.8954 75 41 75.8954 41 77C41 78.1046 41.8954 79 43 79H44H84H85C86.1046 79 87 78.1046 87 77C87 75.8954 86.1046 75 85 75H84V55H85C86.1046 55 87 54.1046 87 53C87 51.8954 86.1046 51 85 51H43ZM38 83C38 81.8954 38.8954 81 40 81H88C89.1046 81 90 81.8954 90 83C90 84.1046 89.1046 85 88 85H40C38.8954 85 38 84.1046 38 83ZM48 59C48 56.7909 49.7909 55 52 55C54.2091 55 56 56.7909 56 59V75H48V59ZM60 59C60 56.7909 61.7909 55 64 55C66.2091 55 68 56.7909 68 59V75H60V59ZM76 55C73.7909 55 72 56.7909 72 59V75H80V59C80 56.7909 78.2091 55 76 55Z" fill="#B2B8BF"/>
</g>
<defs>
<filter id="filter0_d_12830_825" x="6" y="6" width="116" height="116" filterUnits="userSpaceOnUse" color-interpolation-filters="sRGB">
<feFlood flood-opacity="0" result="BackgroundImageFix"/>
<feColorMatrix in="SourceAlpha" type="matrix" values="0 0 0 0 0 0 0 0 0 0 0 0 0 0 0 0 0 0 127 0" result="hardAlpha"/>
<feOffset/>
<feGaussianBlur stdDeviation="5"/>
<feColorMatrix type="matrix" values="0 0 0 0 0.121569 0 0 0 0 0.121569 0 0 0 0 0.133333 0 0 0 0.1 0"/>
<feBlend mode="normal" in2="BackgroundImageFix" result="effect1_dropShadow_12830_825"/>
<feBlend mode="normal" in="SourceGraphic" in2="effect1_dropShadow_12830_825" result="shape"/>
</filter>
<clipPath id="clip0_12830_825">
<rect width="128" height="128" fill="white"/>
</clipPath>
</defs>
</svg>
