<svg width="128" height="128" viewBox="0 0 128 128" fill="none" xmlns="http://www.w3.org/2000/svg">
<circle cx="64" cy="64" r="64" fill="#B2B8BF" fill-opacity="0.2"/>
<path d="M64 112C90.5097 112 112 90.5097 112 64C112 37.4903 90.5097 16 64 16C37.4903 16 16 37.4903 16 64C16 90.5097 37.4903 112 64 112Z" fill="white"/>
<path d="M73 73.9349C73.9 73.9349 74.7 74.4342 75 75.1331C75.3 75.6324 75.2306 76.6154 74.7804 77.3298C74.3302 78.0442 70 83.5204 70 83.5204L69 95.003C68.9 96.3011 68 97 67 97C66 97 65 96.3011 65 95.003V90.0106C65 89.4115 64.6 89.0121 64 89.0121C63.4 89.0121 63 89.4115 63 90.0106V95.003C63 96.3011 62 97 61 97C60 97 59.1 96.3011 59 95.003L57.9 83.4206C55.1667 79.8926 53.6333 77.8623 53.3 77.3298C52.8 76.531 52.7 75.8321 53 75.1331C53.4 74.4342 54.2 73.9349 55 73.9349C55.6 73.9349 56.4 74.1346 56.9 75.1331C58.7 78.1286 61.3 79.0272 64 79.0272C66.7 79.0272 69.3 78.2284 71.1 75.1331C71.7 74.1346 72.5 73.9349 73 73.9349ZM64 65.0484C67.3137 65.0484 70 67.7306 70 71.0393C70 74.348 67.3137 77.0303 64 77.0303C60.6863 77.0303 58 74.348 58 71.0393C58 67.7306 60.6863 65.0484 64 65.0484Z" fill="#B2B8BF"/>
<path d="M64 31C77.8 31 89 41.2844 89 53.9652C89 54.1649 88.8746 54.3404 88.8 54.4645L76.6628 74.137C76.6628 74.1188 76.3601 73.6207 76.0381 73.2785C75.716 72.9363 75.2955 72.6437 75.2955 72.6437L86.5789 54.4645C83.4789 52.8669 80 52.8669 77 54.6641L73.992 72.0733C73.992 72.0733 73.5779 71.9633 73 71.9399C72.4221 71.9164 71.9978 72.0277 71.9978 72.0277C72.5978 68.7327 73.9 62.0529 75 54.6641C75 54.6641 70.5 52 64 52C57.5 52 53 54.6641 53 54.6641C54.3 62.5522 55.4 69.0799 56 72.1752C56 72.1752 55.6512 72.0764 55 72.0764C54.3488 72.0957 54.0004 72.197 54.0004 72.197L51 54.6641C48 52.9667 44.733 52.9667 41.633 54.5643L52.7552 72.7221C52.4569 72.918 52.2051 73.1233 52 73.3381C51.6923 73.6603 51.3814 74.1055 51.3814 74.1055C47.2814 67.6153 43.2 61.1543 39.2 54.5643C39.0491 54.3371 39 54.0651 39 54.0651C39 41.3843 50.2 31 64 31Z" fill="#B2B8BF"/>
</svg>
