<svg width="128" height="128" viewBox="0 0 128 128" fill="none" xmlns="http://www.w3.org/2000/svg">
<g clip-path="url(#clip0_14030_965)">
<circle cx="64" cy="64" r="64" fill="#B2B8BF" fill-opacity="0.2"/>
<g filter="url(#filter0_d_14030_965)">
<path d="M64 112C90.5097 112 112 90.5097 112 64C112 37.4903 90.5097 16 64 16C37.4903 16 16 37.4903 16 64C16 90.5097 37.4903 112 64 112Z" fill="#565B62"/>
</g>
<path fill-rule="evenodd" clip-rule="evenodd" d="M77.8855 61.0547L79.3884 63.0086C80.1688 62.924 80.9522 62.9419 81.7127 63.0497L83.2653 61.1493C83.4773 60.8898 83.8355 60.8027 84.1427 60.9359L86.1701 61.8151C86.4773 61.9484 86.6589 62.2696 86.6149 62.6019L86.2927 65.0358C86.8915 65.5175 87.4404 66.0774 87.9126 66.7052L90.3642 66.4662C90.6966 66.4338 91.0103 66.6258 91.1333 66.9368L91.9475 68.9977C92.0703 69.3088 91.9726 69.6637 91.708 69.8678L89.7565 71.3726C89.841 72.1541 89.8231 72.9384 89.7155 73.6999L91.6134 75.2544C91.8727 75.4667 91.9595 75.8254 91.8265 76.133L90.9484 78.1629C90.8154 78.4705 90.4946 78.6524 90.1626 78.6083L87.7318 78.2856C87.2507 78.8852 86.6915 79.4347 86.0645 79.9076L86.3033 82.3622C86.3357 82.6952 86.1439 83.0093 85.8332 83.1323L83.775 83.9475C83.4643 84.0706 83.1098 83.9728 82.906 83.7078L81.403 81.7539C80.6226 81.8384 79.8393 81.8206 79.0787 81.7128L77.5261 83.6131C77.3142 83.8727 76.9559 83.9597 76.6486 83.8265L74.6214 82.9473C74.3142 82.814 74.1325 82.4929 74.1766 82.1605L74.4989 79.7267C73.9 79.2449 73.3511 78.6851 72.8788 78.0572L70.4273 78.2962C70.0948 78.3287 69.7811 78.1367 69.6582 77.8256L68.844 75.7647C68.7212 75.4537 68.8188 75.0988 69.0835 74.8946L71.0349 73.3898C70.9504 72.6084 70.9683 71.8241 71.076 71.0626L69.178 69.508C68.9188 69.2957 68.8318 68.9371 68.965 68.6294L69.8429 66.5995C69.9761 66.2919 70.2969 66.1101 70.6287 66.1542L73.0596 66.4768C73.5408 65.8773 74.0999 65.3276 74.7269 64.8548L74.4882 62.4002C74.4558 62.0673 74.6476 61.7531 74.9583 61.6301L77.0165 60.8149C77.3272 60.6919 77.6816 60.7896 77.8855 61.0547ZM54.5463 43.9998C55.0196 43.9998 55.4357 44.3135 55.5663 44.769L56.5293 48.1271C57.6014 48.4228 58.6241 48.8552 59.5699 49.394L62.6041 47.7007C63.0185 47.4693 63.5357 47.5415 63.8712 47.8774L66.0843 50.0933C66.4197 50.4292 66.4918 50.947 66.2609 51.3618L64.5696 54.4001C65.1077 55.3471 65.5394 56.371 65.8348 57.4445L69.1888 58.4087C69.6436 58.5395 69.957 58.9561 69.957 59.43V62.5696C69.957 63.0435 69.6436 63.4601 69.1888 63.5909L65.8348 64.5551C65.5394 65.6287 65.1077 66.6525 64.5696 67.5996L66.2608 70.6376C66.4918 71.0525 66.4197 71.5704 66.0843 71.9063L63.8712 74.1222C63.5357 74.458 63.0185 74.5302 62.6041 74.2989L59.5699 72.6056C58.6241 73.1444 57.6014 73.5766 56.5293 73.8724L55.5663 77.2306C55.4357 77.686 55.0196 77.9998 54.5463 77.9998H51.4107C50.9374 77.9998 50.5213 77.686 50.3907 77.2306L49.4277 73.8724C48.3556 73.5766 47.3329 73.1444 46.3871 72.6056L43.3527 74.2989C42.9385 74.5302 42.4213 74.458 42.0858 74.1222L39.8727 71.9063C39.5374 71.5704 39.4652 71.0525 39.6962 70.6376L41.3874 67.5996C40.8493 66.6525 40.4176 65.6287 40.1222 64.5551L36.7683 63.5909C36.3134 63.4601 36 63.0435 36 62.5696V59.43C36 58.9561 36.3134 58.5395 36.7683 58.4087L40.1222 57.4445C40.4176 56.371 40.8493 55.3471 41.3874 54.4001L39.6962 51.3618C39.4652 50.947 39.5373 50.4292 39.8727 50.0933L42.0858 47.8774C42.4213 47.5415 42.9385 47.4693 43.3527 47.7007L46.3871 49.394C47.3329 48.8552 48.3556 48.4228 49.4277 48.1271L50.3907 44.769C50.5213 44.3135 50.9374 43.9998 51.4107 43.9998H54.5463ZM78.7426 68.1967C76.4345 69.1109 75.3035 71.7254 76.2165 74.0365C77.1295 76.3475 79.7407 77.4799 82.0489 76.5657C84.357 75.6516 85.4879 73.037 84.575 70.726C83.6619 68.4149 81.0507 67.2825 78.7426 68.1967ZM52.9785 53.9998C49.1174 53.9998 45.9874 57.1338 45.9874 60.9998C45.9874 64.8657 49.1174 67.9998 52.9785 67.9998C56.8396 67.9998 59.9696 64.8657 59.9696 60.9998C59.9696 57.1338 56.8396 53.9998 52.9785 53.9998ZM52.9785 57.9998C54.6333 57.9998 55.9747 59.3429 55.9747 60.9998C55.9747 62.6566 54.6333 63.9998 52.9785 63.9998C51.3237 63.9998 49.9823 62.6566 49.9823 60.9998C49.9823 59.3429 51.3237 57.9998 52.9785 57.9998Z" fill="#D0D7DD"/>
</g>
<defs>
<filter id="filter0_d_14030_965" x="6" y="6" width="116" height="116" filterUnits="userSpaceOnUse" color-interpolation-filters="sRGB">
<feFlood flood-opacity="0" result="BackgroundImageFix"/>
<feColorMatrix in="SourceAlpha" type="matrix" values="0 0 0 0 0 0 0 0 0 0 0 0 0 0 0 0 0 0 127 0" result="hardAlpha"/>
<feOffset/>
<feGaussianBlur stdDeviation="5"/>
<feColorMatrix type="matrix" values="0 0 0 0 0.121569 0 0 0 0 0.121569 0 0 0 0 0.133333 0 0 0 0.1 0"/>
<feBlend mode="normal" in2="BackgroundImageFix" result="effect1_dropShadow_14030_965"/>
<feBlend mode="normal" in="SourceGraphic" in2="effect1_dropShadow_14030_965" result="shape"/>
</filter>
<clipPath id="clip0_14030_965">
<rect width="128" height="128" fill="white"/>
</clipPath>
</defs>
</svg>
