<svg width="33" height="33" viewBox="0 0 33 33" fill="none" xmlns="http://www.w3.org/2000/svg">
<path fill-rule="evenodd" clip-rule="evenodd" d="M16 32C24.8366 32 32 24.8366 32 16C32 7.16344 24.8366 0 16 0C7.16344 0 0 7.16344 0 16C0 24.8366 7.16344 32 16 32ZM18.3094 5.26013C17.2966 5.00163 16.2556 5.56654 15.9204 6.55653L15.2002 8.68336L13.2477 11.8571H9C7.89543 11.8571 7 12.7526 7 13.8571V21C7 22.1046 7.89543 23 9 23H21.4619C22.341 23 23.1171 22.4259 23.3744 21.5853L25.5606 14.4425C25.954 13.157 24.9925 11.8571 23.6481 11.8571L20.1235 11.8571L20.6775 9.6347L20.4617 7.18929C20.3871 6.34363 19.7867 5.63722 18.9641 5.42726L18.3094 5.26013ZM17.8147 7.198L18.4695 7.36513L18.6558 9.47641L18.1829 11.3734C17.8683 12.6353 18.8229 13.8571 20.1235 13.8571H23.6481L21.4619 21H13.1111V13.8571H13.2477C13.9423 13.8571 14.5872 13.4967 14.9512 12.9051L17.022 9.53886L17.8147 7.198ZM11.1111 13.8571V21H9V13.8571H11.1111Z" fill="#90D0CC"/>
</svg>
