<svg width="24" height="24" viewBox="0 0 24 24" fill="none" xmlns="http://www.w3.org/2000/svg">
<path d="M9.79289 8.5468C10.1834 8.15628 10.8166 8.15628 11.2071 8.5468L12 9.33969L12.7929 8.5468C13.1834 8.15628 13.8166 8.15628 14.2071 8.5468C14.5976 8.93732 14.5976 9.57049 14.2071 9.96101L13.4142 10.7539L14.2071 11.5468C14.5976 11.9373 14.5976 12.5705 14.2071 12.961C13.8166 13.3515 13.1834 13.3515 12.7929 12.961L12 12.1681L11.2071 12.961C10.8166 13.3515 10.1834 13.3515 9.79289 12.961C9.40237 12.5705 9.40237 11.9373 9.79289 11.5468L10.5858 10.7539L9.79289 9.96101C9.40237 9.57049 9.40237 8.93732 9.79289 8.5468Z" fill="white"/>
<path fill-rule="evenodd" clip-rule="evenodd" d="M1.34016 8.26461C7.2151 2.89867 16.8284 2.93498 22.5879 8.26971C22.9887 8.641 23.0174 9.26528 22.6522 9.67171L12.7437 20.6991C12.5545 20.9097 12.2849 21.0302 12.0018 21.0308C11.7187 21.0313 11.4487 20.9118 11.2586 20.702L1.27328 9.67418C0.903719 9.26604 0.933614 8.63593 1.34016 8.26461ZM3.45054 9.09902L11.997 18.5377L20.4797 9.09716C15.6839 5.32243 8.34431 5.29059 3.45054 9.09902Z" fill="white"/>
</svg>
