<svg width="16" height="16" viewBox="0 0 16 16" fill="none" xmlns="http://www.w3.org/2000/svg">
<path d="M8.34534 3.22483C8.28047 3.08716 8.14659 3 8 3C7.85341 3 7.71953 3.08716 7.65466 3.22483L6.31819 6.06094L3.32974 6.51574C3.18468 6.53781 3.06416 6.64423 3.01886 6.79024C2.97356 6.93625 3.01134 7.09653 3.11631 7.20369L5.27877 9.4113L4.76828 12.5285C4.7435 12.6798 4.80289 12.8327 4.92149 12.923C5.04008 13.0132 5.1973 13.0251 5.32705 12.9537L8 11.4819L10.6729 12.9537C10.8027 13.0251 10.9599 13.0132 11.0785 12.923C11.1971 12.8327 11.2565 12.6798 11.2317 12.5285L10.7212 9.4113L12.8837 7.20369C12.9887 7.09653 13.0264 6.93625 12.9811 6.79024C12.9358 6.64423 12.8153 6.53781 12.6703 6.51574L9.68181 6.06094L8.34534 3.22483Z" fill="white"/>
</svg>
