<svg width="16" height="16" viewBox="0 0 16 16" fill="none" xmlns="http://www.w3.org/2000/svg">
<path d="M12.2641 6.99992L10.1574 6.99992C9.83456 6.99992 9.59634 6.69845 9.67099 6.38431L9.98103 5.07977C9.99359 5.02689 9.99745 4.97232 9.99246 4.91821L9.90003 3.91679C9.86715 3.56052 9.61174 3.2644 9.26416 3.17956C8.84623 3.07755 8.41893 3.30851 8.27532 3.71404L7.9085 4.74992L6.85023 6.51794C6.67127 6.81691 6.34844 6.99992 6 6.99992V11.9999H11.6382C11.8541 11.9999 12.0456 11.8613 12.1131 11.6563L13.2139 8.31263C13.4269 7.66578 12.9451 6.99992 12.2641 6.99992Z" fill="white"/>
<path d="M3 7.49992V11.4999C3 11.7761 3.22386 11.9999 3.5 11.9999L5 11.9999V6.99992L3.5 6.99992C3.22386 6.99992 3 7.22378 3 7.49992Z" fill="white"/>
</svg>
