<svg width="20" height="20" viewBox="0 0 20 20" fill="none" xmlns="http://www.w3.org/2000/svg">
<path d="M10 0C4.486 0 0 4.485 0 10C0 15.515 4.486 20 10 20C15.514 20 20 15.515 20 10C20 4.485 15.514 0 10 0Z" fill="#FF9900"/>
<path d="M10 4C9.44772 4 9 4.44772 9 5V11C9 11.5523 9.44772 12 10 12C10.5523 12 11 11.5523 11 11V5C11 4.44772 10.5523 4 10 4Z" fill="white"/>
<path d="M11 15C11 15.5523 10.5523 16 10 16C9.44772 16 9 15.5523 9 15C9 14.4477 9.44772 14 10 14C10.5523 14 11 14.4477 11 15Z" fill="white"/>
</svg>
