<svg width="16" height="16" viewBox="0 0 16 16" fill="none" xmlns="http://www.w3.org/2000/svg">
<path d="M8 16C3.5888 16 0 12.412 0 8C0 3.588 3.5888 0 8 0C12.4112 0 16 3.588 16 8C16 12.412 12.4112 16 8 16Z" fill="#B2B8BF"/>
<path fill-rule="evenodd" clip-rule="evenodd" d="M8 3.17331C8.55228 3.17331 9 3.62102 9 4.17331V7.74541L10.4702 9.10333C10.8697 9.48467 10.8844 10.1177 10.5031 10.5172C10.1217 10.9167 9.48875 10.9314 9.08925 10.55L7.30952 8.89667C7.11184 8.70797 7 8.44659 7 8.17331V4.17331C7 3.62102 7.44772 3.17331 8 3.17331Z" fill="white"/>
</svg>
