<svg width="96" height="96" viewBox="0 0 96 96" fill="none" xmlns="http://www.w3.org/2000/svg">
<path fill-rule="evenodd" clip-rule="evenodd" d="M48 96C74.5097 96 96 74.5097 96 48C96 21.4903 74.5097 0 48 0C21.4903 0 0 21.4903 0 48C0 74.5097 21.4903 96 48 96ZM51 17.25C51 15.5931 49.6569 14.25 48 14.25C46.3431 14.25 45 15.5931 45 17.25V47.9062C45 48.7003 45.3148 49.4619 45.8754 50.0243L64.2866 68.493C65.4563 69.6664 67.3558 69.6694 68.5292 68.4996C69.7026 67.3299 69.7056 65.4304 68.5358 64.257L51 46.6663V17.25Z" fill="#B2B8BF"/>
</svg>
