<svg width="96" height="96" viewBox="0 0 96 96" fill="none" xmlns="http://www.w3.org/2000/svg">
<path fill-rule="evenodd" clip-rule="evenodd" d="M48 96C74.5097 96 96 74.5097 96 48C96 21.4903 74.5097 0 48 0C21.4903 0 0 21.4903 0 48C0 74.5097 21.4903 96 48 96ZM66.6213 29.3787C65.4497 28.2071 63.5503 28.2071 62.3787 29.3787L48 43.7574L33.6213 29.3787C32.4497 28.2071 30.5503 28.2071 29.3787 29.3787C28.2071 30.5503 28.2071 32.4497 29.3787 33.6213L43.7574 48L29.3787 62.3787C28.2071 63.5503 28.2071 65.4497 29.3787 66.6213C30.5503 67.7929 32.4497 67.7929 33.6213 66.6213L48 52.2426L62.3787 66.6213C63.5503 67.7929 65.4497 67.7929 66.6213 66.6213C67.7929 65.4497 67.7929 63.5503 66.6213 62.3787L52.2426 48L66.6213 33.6213C67.7929 32.4497 67.7929 30.5503 66.6213 29.3787Z" fill="#DB1237"/>
</svg>
