<svg width="16" height="16" viewBox="0 0 16 16" fill="none" xmlns="http://www.w3.org/2000/svg">
<path d="M9.51349 3.79038C9.84033 4.08519 10.0382 4.58599 9.99963 5.29791C9.97297 5.79054 9.90838 6.17075 9.8494 6.43049C9.84396 6.45443 9.83857 6.47735 9.83327 6.49923H12.523C13.4073 6.49923 14.012 7.39239 13.6836 8.21347L12.6093 10.8992C12.3435 11.5636 11.7 11.9992 10.9845 11.9992H6.5V7C6.91812 6.64821 7.75 5.74129 7.75 4.74923C7.75 4.56753 7.75775 4.33025 7.84778 4.10969C7.94385 3.87432 8.12662 3.6736 8.43698 3.55922C8.76843 3.43705 9.19054 3.49908 9.51349 3.79038Z" fill="white"/>
<path d="M3 7.75C3 7.33579 3.33579 7 3.75 7H5V12H3.75C3.33579 12 3 11.6642 3 11.25V7.75Z" fill="white"/>
</svg>
