<svg width="32" height="32" viewBox="0 0 32 32" fill="none" xmlns="http://www.w3.org/2000/svg">
<path fill-rule="evenodd" clip-rule="evenodd" d="M16.0002 0.75C16.3808 0.75 16.7284 0.966099 16.8969 1.30743L21.293 10.215L31.1231 11.6434C31.4998 11.6981 31.8127 11.962 31.9304 12.324C32.048 12.686 31.9499 13.0834 31.6773 13.3491L24.5642 20.2826L26.2434 30.073C26.3077 30.4481 26.1535 30.8273 25.8456 31.051C25.5376 31.2748 25.1294 31.3043 24.7924 31.1271L16.0002 26.5048L7.20789 31.1271C6.87097 31.3043 6.46271 31.2748 6.15476 31.051C5.84682 30.8273 5.69259 30.4481 5.75694 30.073L7.43611 20.2826L0.323013 13.3491C0.0504407 13.0834 -0.0476563 12.686 0.0699687 12.324C0.187594 11.962 0.500541 11.6981 0.877227 11.6434L10.7073 10.215L15.1034 1.30743C15.2719 0.966099 15.6195 0.75 16.0002 0.75ZM16.0002 4.00955L12.2681 11.5716C12.1224 11.8667 11.8409 12.0713 11.5152 12.1186L3.16999 13.3312L9.20861 19.2174C9.44429 19.4472 9.55184 19.7782 9.4962 20.1026L8.07068 28.414L15.5348 24.4899C15.8261 24.3367 16.1742 24.3367 16.4655 24.4899L23.9297 28.414L22.5041 20.1026C22.4485 19.7782 22.556 19.4472 22.7917 19.2174L28.8303 13.3312L20.4852 12.1186C20.1595 12.0713 19.8779 11.8667 19.7322 11.5716L16.0002 4.00955Z" fill="#21A19A"/>
</svg>
