<svg width="33" height="33" viewBox="0 0 33 33" fill="none" xmlns="http://www.w3.org/2000/svg">
<circle cx="16" cy="17" r="16" fill="#90D0CC"/>
<path fill-rule="evenodd" clip-rule="evenodd" d="M15.9204 7.55653C16.2556 6.56654 17.2966 6.00163 18.3094 6.26013L18.9641 6.42726C19.7867 6.63722 20.3871 7.34363 20.4617 8.18929L20.6775 10.6347L20.1235 12.8571L23.6481 12.8571C24.9925 12.8571 25.954 14.157 25.5606 15.4425L23.3744 22.5853C23.1171 23.4259 22.341 24 21.4619 24H9C7.89543 24 7 23.1046 7 22V14.8571C7 13.7526 7.89543 12.8571 9 12.8571H13.2477L15.2002 9.68336L15.9204 7.55653ZM18.4695 8.36513L17.8147 8.198L17.022 10.5389L14.9512 13.9051C14.5872 14.4967 13.9423 14.8571 13.2477 14.8571H13.1111V22H21.4619L23.6481 14.8571H20.1235C18.8229 14.8571 17.8683 13.6353 18.1829 12.3734L18.6558 10.4764L18.4695 8.36513ZM11.1111 22V14.8571H9V22H11.1111Z" fill="#1F1F22"/>
</svg>
