<svg width="16" height="16" viewBox="0 0 16 16" fill="none" xmlns="http://www.w3.org/2000/svg">
<path fill-rule="evenodd" clip-rule="evenodd" d="M0 8C0 3.588 3.5888 0 8 0C12.4112 0 16 3.588 16 8C16 12.412 12.4112 16 8 16C3.5888 16 0 12.412 0 8ZM10.2215 5.81804C10.612 5.42752 11.2452 5.42752 11.6357 5.81804C12.0263 6.20856 12.0263 6.84173 11.6357 7.23225L7.68599 11.182C7.48072 11.3873 7.20841 11.4846 6.93954 11.4741C6.67067 11.4846 6.39837 11.3873 6.1931 11.182L4.36467 9.35357C3.97415 8.96305 3.97415 8.32988 4.36467 7.93936C4.75519 7.54884 5.38836 7.54884 5.77888 7.93936L6.93954 9.10002L10.2215 5.81804Z" fill="#21A19A"/>
</svg>
