<svg width="20" height="20" viewBox="0 0 20 20" fill="none" xmlns="http://www.w3.org/2000/svg">
<path fill-rule="evenodd" clip-rule="evenodd" d="M0 10C0 4.485 4.486 0 10 0C15.514 0 20 4.485 20 10C20 15.515 15.514 20 10 20C4.486 20 0 15.515 0 10ZM9 5C9 4.44772 9.44772 4 10 4C10.5523 4 11 4.44772 11 5V11C11 11.5523 10.5523 12 10 12C9.44772 12 9 11.5523 9 11V5ZM10 16C10.5523 16 11 15.5523 11 15C11 14.4477 10.5523 14 10 14C9.44771 14 9 14.4477 9 15C9 15.5523 9.44771 16 10 16Z" fill="#FF9900"/>
</svg>
