<svg width="96" height="96" viewBox="0 0 96 96" fill="none" xmlns="http://www.w3.org/2000/svg">
<circle cx="48" cy="48" r="48" fill="#C11030"/>
<path d="M62.3787 29.3787C63.5503 28.2071 65.4497 28.2071 66.6213 29.3787C67.7929 30.5503 67.7929 32.4497 66.6213 33.6213L52.2426 48L66.6213 62.3787C67.7929 63.5503 67.7929 65.4497 66.6213 66.6213C65.4497 67.7929 63.5503 67.7929 62.3787 66.6213L48 52.2426L33.6213 66.6213C32.4497 67.7929 30.5503 67.7929 29.3787 66.6213C28.2071 65.4497 28.2071 63.5503 29.3787 62.3787L43.7574 48L29.3787 33.6213C28.2071 32.4497 28.2071 30.5503 29.3787 29.3787C30.5503 28.2071 32.4497 28.2071 33.6213 29.3787L48 43.7574L62.3787 29.3787Z" fill="white"/>
</svg>
