<svg width="32" height="32" viewBox="0 0 32 32" fill="none" xmlns="http://www.w3.org/2000/svg">
<path fill-rule="evenodd" clip-rule="evenodd" d="M16 32C24.8366 32 32 24.8366 32 16C32 7.16344 24.8366 0 16 0C7.16344 0 0 7.16344 0 16C0 24.8366 7.16344 32 16 32ZM16 12.0142C16 12.0142 17.5993 8.55239 21.0357 9.0525C24.7011 9.58306 26.4863 13.8929 23.4779 18.0549C20.9924 21.4863 16 24 16 24C16 24 11.0076 21.4863 8.52212 18.0549C5.51369 13.8929 7.29889 9.58306 10.9643 9.0525C14.4007 8.53496 16 12.0142 16 12.0142Z" fill="#7D838A"/>
<path fill-rule="evenodd" clip-rule="evenodd" d="M16 12.0142C16 12.0142 17.5993 8.55238 21.0357 9.0525C24.7011 9.58306 26.4863 13.8929 23.4779 18.0549C20.9924 21.4863 16 24 16 24C16 24 11.0076 21.4863 8.52212 18.0549C5.5137 13.8929 7.29889 9.58306 10.9643 9.0525C14.4007 8.53496 16 12.0142 16 12.0142Z" fill="#E4E8EB"/>
</svg>
