<svg width="24" height="24" viewBox="0 0 24 24" fill="none" xmlns="http://www.w3.org/2000/svg">
<circle cx="12" cy="12" r="12" fill="#B2B8BF"/>
<path d="M10.1661 8.20037C10.4757 7.49192 11.1816 7 12.0001 7C13.1047 7 14.0001 7.89543 14.0001 9C14.0001 10.1046 13.1047 11 12.0001 11C11.4479 11 11.0001 11.4477 11.0001 12V14C11.0001 14.5523 11.4479 15 12.0001 15C12.5524 15 13.0001 14.5523 13.0001 14V12.874C14.7254 12.4299 16.0001 10.8638 16.0001 9C16.0001 6.79086 14.2093 5 12.0001 5C10.3583 5 8.94974 5.989 8.33341 7.39963C8.11229 7.90572 8.34331 8.49523 8.84939 8.71635C9.35548 8.93747 9.945 8.70646 10.1661 8.20037Z" fill="white"/>
<path d="M12 19C12.5523 19 13 18.5523 13 18C13 17.4477 12.5523 17 12 17C11.4477 17 11 17.4477 11 18C11 18.5523 11.4477 19 12 19Z" fill="white"/>
</svg>
