<svg width="16" height="16" viewBox="0 0 16 16" fill="none" xmlns="http://www.w3.org/2000/svg">
<path d="M8 0C3.5888 0 0 3.588 0 8C0 12.412 3.5888 16 8 16C12.4112 16 16 12.412 16 8C16 3.588 12.4112 0 8 0Z" fill="#107F8C"/>
<path d="M11.6357 5.81804C11.2452 5.42752 10.612 5.42752 10.2215 5.81804L6.93954 9.10002L5.77888 7.93936C5.38836 7.54884 4.75519 7.54884 4.36467 7.93936C3.97415 8.32988 3.97415 8.96305 4.36467 9.35357L6.1931 11.182C6.39837 11.3873 6.67067 11.4846 6.93954 11.4741C7.20841 11.4846 7.48072 11.3873 7.68599 11.182L11.6357 7.23225C12.0263 6.84173 12.0263 6.20856 11.6357 5.81804Z" fill="white"/>
</svg>
