<svg width="64" height="64" viewBox="0 0 64 64" fill="none" xmlns="http://www.w3.org/2000/svg">
<path fill-rule="evenodd" clip-rule="evenodd" d="M32 64C49.6731 64 64 49.6731 64 32C64 14.3269 49.6731 0 32 0C14.3269 0 0 14.3269 0 32C0 49.6731 14.3269 64 32 64ZM51.5448 23.5556C52.3658 22.8167 52.4324 21.5521 51.6935 20.7311C50.9545 19.91 49.69 19.8435 48.8689 20.5824L28.0875 39.2857L16.1769 29.3601C15.3284 28.653 14.0672 28.7677 13.3601 29.6162C12.653 30.4648 12.7676 31.7259 13.6162 32.433L26.8575 43.4675C27.6214 44.104 28.7368 44.0828 29.4758 43.4176L51.5448 23.5556Z" fill="#21A19A"/>
</svg>
