<svg width="24" height="24" viewBox="0 0 24 24" fill="none" xmlns="http://www.w3.org/2000/svg">
<path d="M12 8C11.4477 8 11 7.55228 11 7V4C11 3.44772 11.4477 3 12 3C12.5523 3 13 3.44772 13 4V7C13 7.55228 12.5523 8 12 8Z" fill="#E4E8EB"/>
<path d="M1 14C1 13.4477 1.44772 13 2 13H5C5.55228 13 6 13.4477 6 14C6 14.5523 5.55228 15 5 15H2C1.44772 15 1 14.5523 1 14Z" fill="#E4E8EB"/>
<path fill-rule="evenodd" clip-rule="evenodd" d="M5 19C5 18.4477 5.44772 18 6 18H7.11722L7.78873 12.6279C7.97639 11.1266 9.25259 10 10.7656 10H13.2344C14.7474 10 16.0236 11.1266 16.2113 12.6279L16.8828 18H18C18.5523 18 19 18.4477 19 19C19 19.5523 18.5523 20 18 20H16.0133C16.0036 20.0001 15.9939 20.0001 15.9842 20H8.01582C8.00613 20.0001 7.99642 20.0001 7.98668 20H6C5.44772 20 5 19.5523 5 19ZM9.13278 18H14.8672L14.2267 12.876C14.1642 12.3755 13.7388 12 13.2344 12H10.7656C10.2612 12 9.83584 12.3755 9.77329 12.876L9.13278 18Z" fill="#E4E8EB"/>
<path d="M19 13C18.4477 13 18 13.4477 18 14C18 14.5523 18.4477 15 19 15H22C22.5523 15 23 14.5523 23 14C23 13.4477 22.5523 13 22 13H19Z" fill="#E4E8EB"/>
<path d="M16.2929 8.41399C15.9024 8.80451 15.9024 9.43768 16.2929 9.8282C16.6834 10.2187 17.3166 10.2187 17.7071 9.8282L19.8284 7.70688C20.219 7.31636 20.219 6.68319 19.8284 6.29267C19.4379 5.90214 18.8047 5.90214 18.4142 6.29267L16.2929 8.41399Z" fill="#E4E8EB"/>
<path d="M7.82844 9.8282C8.21897 9.43768 8.21897 8.80451 7.82844 8.41399L5.70712 6.29267C5.3166 5.90214 4.68344 5.90214 4.29291 6.29267C3.90239 6.68319 3.90239 7.31636 4.29291 7.70688L6.41423 9.8282C6.80476 10.2187 7.43792 10.2187 7.82844 9.8282Z" fill="#E4E8EB"/>
</svg>
