<svg width="16" height="16" viewBox="0 0 16 16" fill="none" xmlns="http://www.w3.org/2000/svg">
<path fill-rule="evenodd" clip-rule="evenodd" d="M0 8C0 12.412 3.5888 16 8 16C12.4112 16 16 12.412 16 8C16 3.588 12.4112 0 8 0C3.5888 0 0 3.588 0 8ZM11.2094 9.80627L9.40313 8L11.2094 6.19373C11.5969 5.80627 11.5969 5.17806 11.2094 4.7906C10.8219 4.40313 10.1937 4.40313 9.80627 4.7906L8 6.59687L6.19373 4.7906C5.80627 4.40313 5.17806 4.40313 4.7906 4.7906C4.40313 5.17806 4.40313 5.80627 4.7906 6.19373L6.59687 8L4.7906 9.80627C4.40313 10.1937 4.40313 10.8219 4.7906 11.2094C5.17806 11.5969 5.80627 11.5969 6.19373 11.2094L8 9.40313L9.80627 11.2094C10.1937 11.5969 10.8219 11.5969 11.2094 11.2094C11.5969 10.8219 11.5969 10.1937 11.2094 9.80627Z" fill="#DB1237"/>
</svg>
