<svg width="96" height="96" viewBox="0 0 96 96" fill="none" xmlns="http://www.w3.org/2000/svg">
<path fill-rule="evenodd" clip-rule="evenodd" d="M48 96C74.5097 96 96 74.5097 96 48C96 21.4903 74.5097 0 48 0C21.4903 0 0 21.4903 0 48C0 74.5097 21.4903 96 48 96ZM48 21C49.6569 21 51 22.3431 51 24V57C51 58.6569 49.6569 60 48 60C46.3431 60 45 58.6569 45 57V24C45 22.3431 46.3431 21 48 21ZM48 66C49.6569 66 51 67.3431 51 69C51 70.6569 49.6569 72 48 72C46.3431 72 45 70.6569 45 69C45 67.3431 46.3431 66 48 66Z" fill="#FF9900"/>
</svg>
