<svg width="16" height="16" viewBox="0 0 16 16" fill="none" xmlns="http://www.w3.org/2000/svg">
<path fill-rule="evenodd" clip-rule="evenodd" d="M0 8C0 12.412 3.5888 16 8 16C12.4112 16 16 12.412 16 8C16 3.588 12.4112 0 8 0C3.5888 0 0 3.588 0 8ZM9 4.17331C9 3.62102 8.55229 3.17331 8 3.17331C7.44772 3.17331 7 3.62102 7 4.17331V8.17331C7 8.44659 7.11184 8.70797 7.30952 8.89667L9.08925 10.55C9.48875 10.9314 10.1217 10.9167 10.5031 10.5172C10.8844 10.1177 10.8697 9.48467 10.4702 9.10333L9 7.74541V4.17331Z" fill="#B2B8BF"/>
</svg>
