<svg width="20" height="20" viewBox="0 0 20 20" fill="none" xmlns="http://www.w3.org/2000/svg">
<path d="M10.7978 5.34165C11.2022 5.68852 11.3405 6.23953 11.2929 7.07716C11.2599 7.65678 11.0694 8.5 11.0694 8.5H14.5001C15.5943 8.5 16.2943 9.5797 15.888 10.5458L14.5588 13.7057C14.23 14.4874 13.4339 15 12.5485 15H7.00012V9C7.51744 8.58609 8.61591 7.63705 8.61591 6.46982C8.61591 6.25603 8.67656 5.85789 8.73689 5.71735C8.85576 5.44041 9.08189 5.20426 9.46588 5.06967C9.87597 4.92594 10.3982 4.99892 10.7978 5.34165Z" fill="#E4E8EB"/>
<path d="M4 9.9375C4 9.41973 4.41973 9 4.9375 9H6L6 15H4.9375C4.41973 15 4 14.5803 4 14.0625V9.9375Z" fill="#E4E8EB"/>
</svg>
