<svg width="20" height="20" viewBox="0 0 20 20" fill="none" xmlns="http://www.w3.org/2000/svg">
<path d="M14.2094 12.8063L11.4031 10L14.2094 7.19373C14.5969 6.80627 14.5969 6.17806 14.2094 5.7906C13.8219 5.40313 13.1937 5.40313 12.8063 5.7906L10 8.59687L7.19373 5.7906C6.80627 5.40313 6.17806 5.40313 5.7906 5.7906C5.40313 6.17806 5.40313 6.80627 5.7906 7.19373L8.59687 10L5.7906 12.8063C5.40313 13.1937 5.40313 13.8219 5.7906 14.2094C6.17806 14.5969 6.80627 14.5969 7.19373 14.2094L10 11.4031L12.8063 14.2094C13.1937 14.5969 13.8219 14.5969 14.2094 14.2094C14.5969 13.8219 14.5969 13.1937 14.2094 12.8063Z" fill="#DB1237"/>
<path fill-rule="evenodd" clip-rule="evenodd" d="M10 20C4.486 20 0 15.515 0 10C0 4.485 4.486 0 10 0C15.514 0 20 4.485 20 10C20 15.515 15.514 20 10 20ZM10 18C5.59044 18 2 14.4103 2 10C2 5.5897 5.59044 2 10 2C14.4096 2 18 5.5897 18 10C18 14.4103 14.4096 18 10 18Z" fill="#DB1237"/>
</svg>
