<svg width="32" height="32" viewBox="0 0 32 32" fill="none" xmlns="http://www.w3.org/2000/svg">
<circle cx="16" cy="16" r="16" fill="#C11030"/>
<path fill-rule="evenodd" clip-rule="evenodd" d="M11.5015 21.8771C11.4189 23.4026 11.8403 24.5708 12.6381 25.2905C13.4204 25.9961 14.4598 26.16 15.299 25.8507C16.0538 25.5725 16.5231 25.0679 16.7674 24.4695C16.9874 23.9304 17 23.3694 17 23.0015C17 21.8395 17.5848 20.8144 18.2592 20.0277C18.5897 19.6422 18.9221 19.3374 19.1713 19.1297C19.2293 19.0814 19.2823 19.0387 19.3294 19.0018H23C24.1046 19.0018 25 18.1064 25 17.0018V10.0018C25 8.89726 24.1046 8.00183 23 8.00183H19.025C19.0168 8.00163 19.0085 8.00152 19.0002 8.00152L11.0455 8.00026C9.40042 7.99999 7.92289 9.00702 7.32163 10.5383L5.21442 15.9051C4.44171 17.873 5.89262 20.0015 8.00688 20.0015H11.7169C11.6259 20.498 11.5422 21.1254 11.5015 21.8771ZM20 10.0018V17.0018H23V10.0018H20ZM18 10.0014V17.5038C17.9652 17.5319 17.9289 17.5617 17.8912 17.5931C17.5779 17.8541 17.1603 18.2366 16.7408 18.726C15.9152 19.689 15 21.1636 15 23.0015C15 23.3515 14.9758 23.5665 14.9157 23.7137C14.8909 23.7744 14.863 23.8146 14.8299 23.8467C14.7969 23.8789 14.7334 23.9276 14.6073 23.9741C14.4733 24.0235 14.2145 24.019 13.9777 23.8054C13.7565 23.6059 13.438 23.1041 13.4985 21.9852C13.547 21.0892 13.6637 20.4128 13.764 19.9711C13.8141 19.7502 13.8602 19.5879 13.8917 19.4862C13.9075 19.4353 13.9196 19.3995 13.9267 19.3791L13.9335 19.3601C14.051 19.0536 14.0109 18.7082 13.8255 18.437C13.6391 18.1645 13.3302 18.0015 13 18.0015H8.00688C7.30213 18.0015 6.81849 17.292 7.07606 16.636L9.18327 11.2693C9.4839 10.5036 10.2227 10.0001 11.0452 10.0003L18 10.0014Z" fill="white"/>
</svg>
