<svg width="64" height="64" viewBox="0 0 64 64" fill="none" xmlns="http://www.w3.org/2000/svg">
<path fill-rule="evenodd" clip-rule="evenodd" d="M32 64C49.6731 64 64 49.6731 64 32C64 14.3269 49.6731 0 32 0C14.3269 0 0 14.3269 0 32C0 49.6731 14.3269 64 32 64ZM32 16C33.1046 16 34 16.8954 34 18V38C34 39.1046 33.1046 40 32 40C30.8954 40 30 39.1046 30 38V18C30 16.8954 30.8954 16 32 16ZM32 45C33.1046 45 34 45.8954 34 47V47.1C34 48.2046 33.1046 49.1 32 49.1C30.8954 49.1 30 48.2046 30 47.1V47C30 45.8954 30.8954 45 32 45Z" fill="#FF9900"/>
</svg>
