<svg width="20" height="20" viewBox="0 0 20 20" fill="none" xmlns="http://www.w3.org/2000/svg">
<path fill-rule="evenodd" clip-rule="evenodd" d="M0 10C0 15.515 4.486 20 10 20C15.514 20 20 15.515 20 10C20 4.485 15.514 0 10 0C4.486 0 0 4.485 0 10ZM11 5.5C11 4.94772 10.5523 4.5 10 4.5C9.44771 4.5 9 4.94772 9 5.5V10.5C9 10.7733 9.11184 11.0347 9.30952 11.2234L12.0893 13.8767C12.4888 14.2581 13.1217 14.2434 13.5031 13.8439C13.8844 13.4444 13.8697 12.8114 13.4702 12.43L11 10.0721V5.5Z" fill="#B2B8BF"/>
</svg>
