<svg width="64" height="64" viewBox="0 0 64 64" fill="none" xmlns="http://www.w3.org/2000/svg">
<path fill-rule="evenodd" clip-rule="evenodd" d="M32 64C49.6731 64 64 49.6731 64 32C64 14.3269 49.6731 0 32 0C14.3269 0 0 14.3269 0 32C0 49.6731 14.3269 64 32 64ZM45.4142 18.5858C46.1953 19.3668 46.1953 20.6332 45.4142 21.4142L34.8284 32L45.4142 42.5858C46.1953 43.3668 46.1953 44.6332 45.4142 45.4142C44.6332 46.1953 43.3668 46.1953 42.5858 45.4142L32 34.8284L21.4142 45.4142C20.6332 46.1953 19.3668 46.1953 18.5858 45.4142C17.8047 44.6332 17.8047 43.3668 18.5858 42.5858L29.1716 32L18.5858 21.4142C17.8047 20.6332 17.8047 19.3668 18.5858 18.5858C19.3668 17.8047 20.6332 17.8047 21.4142 18.5858L32 29.1716L42.5858 18.5858C43.3668 17.8047 44.6332 17.8047 45.4142 18.5858Z" fill="#DB1237"/>
</svg>
