<svg width="32" height="32" viewBox="0 0 32 32" fill="none" xmlns="http://www.w3.org/2000/svg">
<circle cx="16" cy="16" r="16" fill="#21A19A"/>
<path fill-rule="evenodd" clip-rule="evenodd" d="M20.4985 10.1229C20.5811 8.59739 20.1597 7.42918 19.3619 6.70951C18.5796 6.00391 17.5402 5.84002 16.701 6.14932C15.9462 6.42752 15.4769 6.93211 15.2326 7.53046C15.0126 8.06957 15 8.63063 15 8.9985C15 10.1605 14.4152 11.1856 13.7408 11.9723C13.4103 12.3578 13.0779 12.6626 12.8287 12.8703C12.7707 12.9186 12.7177 12.9613 12.6706 12.9982H9C7.89543 12.9982 7 13.8936 7 14.9982V21.9982C7 23.1027 7.89543 23.9982 9 23.9982H12.975C12.9832 23.9984 12.9915 23.9985 12.9998 23.9985L20.9545 23.9997C22.5996 24 24.0771 22.993 24.6784 21.4617L26.7856 16.0949C27.5583 14.127 26.1074 11.9985 23.9931 11.9985H20.2831C20.3741 11.502 20.4578 10.8746 20.4985 10.1229ZM12 21.9982V14.9982H9V21.9982H12ZM14 21.9986V14.4962C14.0348 14.4681 14.0711 14.4383 14.1088 14.4069C14.4221 14.1459 14.8397 13.7634 15.2592 13.274C16.0848 12.311 17 10.8364 17 8.9985C17 8.64849 17.0242 8.43347 17.0843 8.28628C17.1091 8.22561 17.137 8.18544 17.1701 8.15331C17.2031 8.12113 17.2666 8.07241 17.3927 8.02592C17.5267 7.97651 17.7855 7.98104 18.0223 8.19462C18.2435 8.39414 18.562 8.89588 18.5015 10.0148C18.453 10.9108 18.3363 11.5872 18.236 12.0289C18.1859 12.2498 18.1398 12.4121 18.1083 12.5138C18.0925 12.5647 18.0804 12.6005 18.0733 12.6209L18.0665 12.6399C17.949 12.9464 17.9891 13.2918 18.1745 13.563C18.3609 13.8355 18.6698 13.9985 19 13.9985H23.9931C24.6979 13.9985 25.1815 14.708 24.9239 15.364L22.8167 20.7307C22.5161 21.4964 21.7773 21.9999 20.9548 21.9997L14 21.9986Z" fill="white"/>
</svg>
