<svg width="20" height="20" viewBox="0 0 20 20" fill="none" xmlns="http://www.w3.org/2000/svg">
<path d="M13.4427 7.5C13.8332 7.10948 14.4664 7.10948 14.8569 7.5C15.2475 7.89052 15.2475 8.52369 14.8569 8.91421L9.90718 13.864C9.70191 14.0692 9.42961 14.1666 9.16073 14.1561C8.89186 14.1666 8.61956 14.0692 8.41429 13.864L5.58586 11.0355C5.19534 10.645 5.19534 10.0118 5.58586 9.62132C5.97639 9.2308 6.60955 9.2308 7.00008 9.62132L9.16074 11.782L13.4427 7.5Z" fill="white"/>
<path fill-rule="evenodd" clip-rule="evenodd" d="M10 0C4.486 0 0 4.485 0 10C0 15.515 4.486 20 10 20C15.514 20 20 15.515 20 10C20 4.485 15.514 0 10 0ZM2 10C2 5.5897 5.59044 2 10 2C14.4096 2 18 5.5897 18 10C18 14.4103 14.4096 18 10 18C5.59044 18 2 14.4103 2 10Z" fill="white"/>
</svg>
