<svg width="32" height="32" viewBox="0 0 32 32" fill="none" xmlns="http://www.w3.org/2000/svg">
<circle cx="16" cy="16" r="16" fill="#21A19A"/>
<path fill-rule="evenodd" clip-rule="evenodd" d="M15.9204 6.55653C16.2556 5.56654 17.2966 5.00163 18.3094 5.26013L18.9641 5.42726C19.7867 5.63722 20.3871 6.34363 20.4617 7.18929L20.6775 9.6347L20.1235 11.8571L23.6481 11.8571C24.9925 11.8571 25.954 13.157 25.5606 14.4425L23.3744 21.5853C23.1171 22.4259 22.341 23 21.4619 23H9C7.89543 23 7 22.1046 7 21V13.8571C7 12.7526 7.89543 11.8571 9 11.8571H13.2477L15.2002 8.68336L15.9204 6.55653ZM18.4695 7.36513L17.8147 7.198L17.022 9.53886L14.9512 12.9051C14.5872 13.4967 13.9423 13.8571 13.2477 13.8571H13.1111V21H21.4619L23.6481 13.8571H20.1235C18.8229 13.8571 17.8683 12.6353 18.1829 11.3734L18.6558 9.47641L18.4695 7.36513ZM11.1111 21V13.8571H9V21H11.1111Z" fill="white"/>
</svg>
