<svg width="16" height="16" viewBox="0 0 16 16" fill="none" xmlns="http://www.w3.org/2000/svg">
<path d="M9 6C9 5.44772 8.55228 5 8 5C7.44772 5 7 5.44772 7 6V8C7 8.26522 7.10536 8.51957 7.29289 8.70711L8.79289 10.2071C9.18342 10.5976 9.81658 10.5976 10.2071 10.2071C10.5976 9.81658 10.5976 9.18342 10.2071 8.79289L9 7.58579V6Z" fill="#B2B8BF"/>
<path fill-rule="evenodd" clip-rule="evenodd" d="M8 1C4.1332 1 1 4.13409 1 8C1 11.8668 4.13409 15 8 15C11.8668 15 15 11.8659 15 8C15 4.1332 11.8659 1 8 1ZM3 8C3 5.2385 5.23793 3 8 3C10.7615 3 13 5.23793 13 8C13 10.7615 10.7621 13 8 13C5.2385 13 3 10.7621 3 8Z" fill="#B2B8BF"/>
</svg>
