<svg width="20" height="20" viewBox="0 0 20 20" fill="none" xmlns="http://www.w3.org/2000/svg">
<path fill-rule="evenodd" clip-rule="evenodd" d="M0 10C0 4.485 4.486 0 10 0C15.514 0 20 4.485 20 10C20 15.515 15.514 20 10 20C4.486 20 0 15.515 0 10ZM13.4426 7.49999C13.8331 7.10946 14.4663 7.10946 14.8568 7.49999C15.2473 7.89051 15.2473 8.52367 14.8568 8.9142L9.90706 13.8639C9.70179 14.0692 9.42948 14.1666 9.16061 14.1561C8.89174 14.1666 8.61944 14.0692 8.41417 13.8639L5.58574 11.0355C5.19522 10.645 5.19522 10.0118 5.58574 9.62131C5.97626 9.23078 6.60943 9.23078 6.99995 9.62131L9.16061 11.782L13.4426 7.49999Z" fill="#21A19A"/>
</svg>
