<svg width="20" height="20" viewBox="0 0 20 20" fill="none" xmlns="http://www.w3.org/2000/svg">
<path fill-rule="evenodd" clip-rule="evenodd" d="M15.0201 8.99991H12.547C12.2261 8.99991 11.9883 8.70188 12.0595 8.38896L12.5215 6.3586L12.3933 4.96867C12.3549 4.55319 12.0571 4.20786 11.6517 4.10892C11.1241 3.98014 10.5927 4.30615 10.4684 4.83484L10.1832 6.04817L8.78776 8.49527C8.60984 8.80728 8.27825 8.99991 7.91907 8.99991L7.00007 8.9999L6.99993 14.9998H14.0153C14.2293 14.9998 14.4195 14.8637 14.4885 14.6611L15.9667 10.3224C16.1877 9.67367 15.7054 8.99991 15.0201 8.99991ZM5.90559 14.9998L5.90573 8.9999L4.49999 8.99991C4.22385 8.99991 3.99999 9.22377 3.99999 9.49991V14.4998C3.99999 14.776 4.22385 14.9998 4.49999 14.9998L5.90559 14.9998Z" fill="white"/>
</svg>
