<svg width="20" height="20" viewBox="0 0 20 20" fill="none" xmlns="http://www.w3.org/2000/svg">
<path d="M11 5.5C11 4.94772 10.5523 4.5 10 4.5C9.44771 4.5 9 4.94772 9 5.5V10.5C9 10.7733 9.11184 11.0347 9.30952 11.2234L12.0893 13.8767C12.4888 14.2581 13.1217 14.2434 13.5031 13.8439C13.8844 13.4444 13.8697 12.8114 13.4702 12.43L11 10.0721V5.5Z" fill="white"/>
<path fill-rule="evenodd" clip-rule="evenodd" d="M10 20C4.486 20 0 15.515 0 10C0 4.485 4.486 0 10 0C15.514 0 20 4.485 20 10C20 15.515 15.514 20 10 20ZM10 18C5.59044 18 2 14.4103 2 10C2 5.5897 5.59044 2 10 2C14.4096 2 18 5.5897 18 10C18 14.4103 14.4096 18 10 18Z" fill="white"/>
</svg>
