<svg width="20" height="20" viewBox="0 0 20 20" fill="none" xmlns="http://www.w3.org/2000/svg">
<path fill-rule="evenodd" clip-rule="evenodd" d="M10 20C15.5228 20 20 15.5228 20 10C20 4.47715 15.5228 0 10 0C4.47715 0 0 4.47715 0 10C0 15.5228 4.47715 20 10 20ZM9.99997 3.1875C10.1903 3.1875 10.3641 3.29555 10.4483 3.46622L12.1835 6.98209L16.0635 7.54589C16.2519 7.57326 16.4083 7.70518 16.4672 7.88618C16.526 8.06719 16.4769 8.26589 16.3406 8.39874L13.533 11.1355L14.1958 14.9998C14.228 15.1874 14.1509 15.3769 13.9969 15.4888C13.8429 15.6007 13.6388 15.6154 13.4703 15.5269L9.99997 13.7024L6.52959 15.5269C6.36114 15.6154 6.157 15.6007 6.00303 15.4888C5.84906 15.3769 5.77195 15.1874 5.80412 14.9998L6.4669 11.1355L3.65931 8.39874C3.52302 8.26589 3.47397 8.06719 3.53279 7.88618C3.5916 7.70518 3.74807 7.57326 3.93642 7.54589L7.81642 6.98209L9.5516 3.46622C9.63583 3.29555 9.80965 3.1875 9.99997 3.1875Z" fill="#FF9900"/>
</svg>
