<svg width="32" height="32" viewBox="0 0 32 32" fill="none" xmlns="http://www.w3.org/2000/svg">
<circle cx="16" cy="16" r="16" fill="#DB1237"/>
<path fill-rule="evenodd" clip-rule="evenodd" d="M16.0796 25.4435C15.7444 26.4335 14.7034 26.9984 13.6906 26.7399L13.0359 26.5727C12.2133 26.3628 11.6129 25.6564 11.5383 24.8107L11.3225 22.3653L11.8765 20.1429L8.35186 20.1429C7.00749 20.1429 6.04598 18.843 6.43943 17.5575L8.62565 10.4147C8.88294 9.57405 9.65897 9 10.5381 9L23 9C24.1046 9 25 9.89544 25 11L25 18.1429C25 19.2474 24.1046 20.1429 23 20.1429L18.7523 20.1429L16.7998 23.3166L16.0796 25.4435ZM13.5305 24.6349L14.1853 24.802L14.978 22.4611L17.0488 19.0949C17.4128 18.5033 18.0577 18.1429 18.7523 18.1429L18.8889 18.1429L18.8889 11L10.5381 11L8.35186 18.1429L11.8765 18.1429C13.1771 18.1429 14.1317 19.3647 13.8171 20.6266L13.3442 22.5236L13.5305 24.6349ZM20.8889 11L20.8889 18.1429L23 18.1429L23 11L20.8889 11Z" fill="white"/>
</svg>
