<svg width="32" height="32" viewBox="0 0 32 32" fill="none" xmlns="http://www.w3.org/2000/svg">
<circle cx="16" cy="16" r="16" fill="#C11030"/>
<path fill-rule="evenodd" clip-rule="evenodd" d="M8 16C8 11.5817 11.5817 8 16 8C17.8487 8 19.5509 8.62707 20.9056 9.6801L9.6801 20.9056C8.62707 19.5509 8 17.8487 8 16ZM11.0943 22.3198C12.449 23.3729 14.1513 24 16 24C20.4183 24 24 20.4183 24 16C24 14.1513 23.3729 12.449 22.3198 11.0943L11.0943 22.3198ZM16 6C10.4772 6 6 10.4772 6 16C6 21.5228 10.4772 26 16 26C21.5228 26 26 21.5228 26 16C26 10.4772 21.5228 6 16 6Z" fill="white"/>
</svg>
