<svg width="20" height="20" viewBox="0 0 20 20" fill="none" xmlns="http://www.w3.org/2000/svg">
<path d="M10.0936 16C10.0303 15.9999 9.96758 15.9889 9.90813 15.9673C9.79347 15.9253 9.69622 15.846 9.63194 15.7422C9.56767 15.6383 9.5401 15.5159 9.55365 15.3945L9.75828 11H6.54614C6.44707 11.0001 6.34983 10.9733 6.26486 10.9223C6.17989 10.8714 6.1104 10.7982 6.06387 10.7108C6.01733 10.6233 5.9955 10.5248 6.00072 10.4258C6.00594 10.3269 6.03802 10.2312 6.0935 10.1491L10.6116 4.24005C10.6797 4.13933 10.7794 4.06423 10.895 4.02668C11.0106 3.98912 11.1355 3.99127 11.2497 4.03278C11.3595 4.07356 11.4533 4.14863 11.5172 4.24686C11.581 4.3451 11.6115 4.46129 11.6042 4.57823L10.834 9H14.0461C14.1452 8.99985 14.2425 9.0267 14.3274 9.07766C14.4124 9.12862 14.4819 9.20177 14.5284 9.28925C14.575 9.37673 14.5968 9.47524 14.5916 9.57419C14.5863 9.67315 14.5543 9.76881 14.4988 9.85091L10.5462 15.76C10.4962 15.834 10.4287 15.8946 10.3498 15.9365C10.2709 15.9783 10.1829 16.0001 10.0936 16Z" fill="white"/>
</svg>
