<svg width="20" height="20" viewBox="0 0 20 20" fill="none" xmlns="http://www.w3.org/2000/svg">
<path d="M9 5C9 4.44772 9.44772 4 10 4C10.5523 4 11 4.44772 11 5V11C11 11.5523 10.5523 12 10 12C9.44772 12 9 11.5523 9 11V5Z" fill="#FF9900"/>
<path d="M10 16C10.5523 16 11 15.5523 11 15C11 14.4477 10.5523 14 10 14C9.44771 14 9 14.4477 9 15C9 15.5523 9.44771 16 10 16Z" fill="#FF9900"/>
<path fill-rule="evenodd" clip-rule="evenodd" d="M10 0C4.486 0 0 4.485 0 10C0 15.515 4.486 20 10 20C15.514 20 20 15.515 20 10C20 4.485 15.514 0 10 0ZM2 10C2 5.5897 5.59044 2 10 2C14.4096 2 18 5.5897 18 10C18 14.4103 14.4096 18 10 18C5.59044 18 2 14.4103 2 10Z" fill="#FF9900"/>
</svg>
