<svg width="16" height="16" viewBox="0 0 16 16" fill="none" xmlns="http://www.w3.org/2000/svg">
<path d="M7.36389 13C7.31119 12.9999 7.25891 12.9907 7.20937 12.9727C7.11382 12.9377 7.03277 12.8717 6.97921 12.7851C6.92565 12.6986 6.90268 12.5966 6.91397 12.4955L7.13198 9H4.45521C4.37265 9.00012 4.29161 8.97775 4.22081 8.93528C4.15 8.89282 4.0921 8.83186 4.05332 8.75896C4.01454 8.68606 3.99635 8.60397 4.0007 8.52151C4.00505 8.43905 4.03177 8.35933 4.07801 8.29091L7.79562 3.20004C7.85234 3.11611 7.93545 3.05352 8.03179 3.02223C8.12812 2.99094 8.23214 2.99273 8.32734 3.02732C8.41886 3.0613 8.49701 3.12385 8.55021 3.20572C8.60341 3.28759 8.62885 3.38441 8.62274 3.48186L8.13199 7H10.8088C10.8913 6.99988 10.9724 7.02225 11.0432 7.06472C11.114 7.10718 11.1719 7.16814 11.2107 7.24104C11.2494 7.31394 11.2676 7.39603 11.2633 7.47849C11.2589 7.56095 11.2322 7.64067 11.186 7.70909L7.74109 12.8C7.6994 12.8617 7.6432 12.9122 7.57743 12.9471C7.51166 12.9819 7.43833 13.0001 7.36389 13Z" fill="#E4E8EB"/>
</svg>
