<svg width="16" height="16" viewBox="0 0 16 16" fill="none" xmlns="http://www.w3.org/2000/svg">
<path fill-rule="evenodd" clip-rule="evenodd" d="M8 16C12.4183 16 16 12.4183 16 8C16 3.58172 12.4183 0 8 0C3.58172 0 0 3.58172 0 8C0 12.4183 3.58172 16 8 16ZM8.00002 3.0625C8.13819 3.0625 8.26438 3.14094 8.32553 3.26485L9.58527 5.81735L12.4021 6.22666C12.5389 6.24653 12.6525 6.3423 12.6952 6.47371C12.7378 6.60512 12.7022 6.74938 12.6033 6.84582L10.565 8.83267L11.0462 11.6381C11.0695 11.7743 11.0136 11.912 10.9018 11.9932C10.79 12.0744 10.6418 12.0851 10.5195 12.0208L8.00002 10.6962L5.48055 12.0208C5.35825 12.0851 5.21005 12.0744 5.09827 11.9932C4.98648 11.912 4.9305 11.7743 4.95386 11.6381L5.43503 8.83267L3.39674 6.84582C3.2978 6.74938 3.26219 6.60512 3.30489 6.47371C3.34758 6.3423 3.46118 6.24653 3.59792 6.22666L6.41477 5.81735L7.67451 3.26485C7.73566 3.14094 7.86185 3.0625 8.00002 3.0625Z" fill="#FF9900"/>
</svg>
