<svg width="32" height="32" viewBox="0 0 32 32" fill="none" xmlns="http://www.w3.org/2000/svg">
<path fill-rule="evenodd" clip-rule="evenodd" d="M16 32C24.8366 32 32 24.8366 32 16C32 7.16344 24.8366 0 16 0C7.16344 0 0 7.16344 0 16C0 24.8366 7.16344 32 16 32ZM6 16C6 10.4772 10.4772 6 16 6C21.5228 6 26 10.4772 26 16C26 21.5228 21.5228 26 16 26C10.4772 26 6 21.5228 6 16ZM16 8C11.5817 8 8 11.5817 8 16C8 17.8488 8.62711 19.551 9.68021 20.9057L20.9057 9.68021C19.551 8.62711 17.8488 8 16 8ZM16 24C14.1513 24 12.4491 23.3729 11.0944 22.3199L22.3199 11.0944C23.3729 12.4491 24 14.1513 24 16C24 20.4183 20.4183 24 16 24Z" fill="#7D838A"/>
<path fill-rule="evenodd" clip-rule="evenodd" d="M6 16C6 10.4772 10.4772 6 16 6C21.5228 6 26 10.4772 26 16C26 21.5228 21.5228 26 16 26C10.4772 26 6 21.5228 6 16ZM16 8C11.5817 8 8 11.5817 8 16C8 17.8488 8.62711 19.551 9.68021 20.9057L20.9057 9.68021C19.551 8.62711 17.8488 8 16 8ZM16 24C14.1513 24 12.4491 23.3729 11.0944 22.3199L22.3199 11.0944C23.3729 12.4491 24 14.1513 24 16C24 20.4183 20.4183 24 16 24Z" fill="#E4E8EB"/>
</svg>
