<svg width="16" height="16" viewBox="0 0 16 16" fill="none" xmlns="http://www.w3.org/2000/svg">
<path fill-rule="evenodd" clip-rule="evenodd" d="M5.69999 10.64L10.7 5.68999C11.09 5.28999 11.09 4.67999 10.7 4.28999C10.3 3.88999 9.67999 3.88999 9.27999 4.28999L4.98999 8.53999L3.69999 7.25999C3.30999 6.86999 2.67999 6.86999 2.28999 7.25999C1.88999 7.64999 1.88999 8.26999 2.28999 8.65999L4.28999 10.64C4.51999 10.87 4.75999 10.99 4.98999 10.99C5.22999 10.99 5.45999 10.87 5.69999 10.64ZM14.69 5.68999L9.69999 10.64C9.29999 11.03 8.67999 11.03 8.27999 10.64C7.88999 10.25 7.88999 9.62999 8.27999 9.23999L13.28 4.28999C13.68 3.88999 14.3 3.88999 14.69 4.28999C15.09 4.67999 15.09 5.28999 14.69 5.68999Z" fill="white"/>
</svg>
