<svg width="24" height="24" viewBox="0 0 24 24" fill="none" xmlns="http://www.w3.org/2000/svg">
<path d="M15.4075 10.6461C15.7816 10.2399 15.7555 9.60724 15.3493 9.23313C14.943 8.85902 14.3104 8.88509 13.9362 9.29137L11.8408 11.5669L11.3233 11.0093C10.9476 10.6045 10.3148 10.5809 9.91004 10.9566C9.50525 11.3324 9.48167 11.9651 9.85738 12.3699L11.1108 13.7203C11.3005 13.9247 11.5669 14.0406 11.8457 14.04C12.1246 14.0395 12.3905 13.9225 12.5794 13.7174L15.4075 10.6461Z" fill="white"/>
<path fill-rule="evenodd" clip-rule="evenodd" d="M22.588 8.2702C16.8285 2.93547 7.21519 2.89916 1.34025 8.2651C0.933296 8.6368 0.903812 9.26769 1.27433 9.67572L11.2708 20.6844C11.4609 20.8937 11.7308 21.0128 12.0136 21.0121C12.2964 21.0114 12.5657 20.891 12.7548 20.6807L22.6521 9.67242C23.0175 9.26602 22.9889 8.64157 22.588 8.2702ZM12.0075 18.5205L3.4518 9.0986C8.34548 5.29115 15.6841 5.32322 20.4795 9.09745L12.0075 18.5205Z" fill="white"/>
</svg>
