<svg width="96" height="96" viewBox="0 0 96 96" fill="none" xmlns="http://www.w3.org/2000/svg">
<path fill-rule="evenodd" clip-rule="evenodd" d="M48 96C74.5097 96 96 74.5097 96 48C96 21.4903 74.5097 0 48 0C21.4903 0 0 21.4903 0 48C0 74.5097 21.4903 96 48 96ZM74.8583 35.1343C76.037 33.9699 76.0487 32.0705 74.8843 30.8917C73.72 29.713 71.8205 29.7013 70.6418 30.8657L41.8763 59.2804L25.9756 45.3673C24.7286 44.2762 22.8334 44.4026 21.7423 45.6495C20.6513 46.8964 20.7776 48.7917 22.0245 49.8827L40.0245 65.6327C41.2078 66.6681 42.9897 66.6142 44.1083 65.5093L74.8583 35.1343Z" fill="#21A19A"/>
</svg>
