<svg width="64" height="64" viewBox="0 0 64 64" fill="none" xmlns="http://www.w3.org/2000/svg">
<path fill-rule="evenodd" clip-rule="evenodd" d="M32 64C49.6731 64 64 49.6731 64 32C64 14.3269 49.6731 0 32 0C14.3269 0 0 14.3269 0 32C0 49.6731 14.3269 64 32 64ZM34 11.5C34 10.3954 33.1046 9.5 32 9.5C30.8954 9.5 30 10.3954 30 11.5V32C30 32.5304 30.2107 33.0391 30.5858 33.4142L40.0858 42.9142C40.8668 43.6953 42.1332 43.6953 42.9142 42.9142C43.6953 42.1332 43.6953 40.8668 42.9142 40.0858L34 31.1716V11.5Z" fill="#B2B8BF"/>
</svg>
