<svg width="16" height="16" viewBox="0 0 16 16" fill="none" xmlns="http://www.w3.org/2000/svg">
<g clip-path="url(#clip0_45829_209)">
<path fill-rule="evenodd" clip-rule="evenodd" d="M2 8C2 4.6927 4.69324 2 8 2C11.3068 2 14 4.6927 14 8C14 11.3073 11.3068 14 8 14C4.69324 14 2 11.3073 2 8ZM8 0C3.5888 0 0 3.588 0 8C0 12.412 3.5888 16 8 16C12.4112 16 16 12.412 16 8C16 3.588 12.4112 0 8 0ZM8 4C7.44772 4 7 4.44771 7 5C7 5.55229 7.44772 6 8 6C8.55229 6 9 5.55229 9 5C9 4.44771 8.55229 4 8 4ZM9 11C9 11.5523 8.55228 12 8 12C7.44772 12 7 11.5523 7 11V8C7 7.44772 7.44772 7 8 7C8.55228 7 9 7.44772 9 8V11Z" fill="#7D838A"/>
</g>
<defs>
<clipPath id="clip0_45829_209">
<rect width="16" height="16" fill="white"/>
</clipPath>
</defs>
</svg>
