<svg width="16" height="16" viewBox="0 0 16 16" fill="none" xmlns="http://www.w3.org/2000/svg">
<path d="M8 16C12.4183 16 16 12.4183 16 8C16 3.58172 12.4183 0 8 0C3.58172 0 0 3.58172 0 8C0 12.4183 3.58172 16 8 16Z" fill="#B2B8BF"/>
<path fill-rule="evenodd" clip-rule="evenodd" d="M9.5145 2.14241C9.98808 2.42656 10.1416 3.04082 9.85749 3.5144L7.76619 6.99991H10C10.3603 6.99991 10.6927 7.1937 10.8702 7.50721C11.0477 7.82072 11.0429 8.20547 10.8575 8.5144L7.85749 13.5144C7.57334 13.988 6.95908 14.1415 6.4855 13.8574C6.01192 13.5733 5.85836 12.959 6.14251 12.4854L8.23381 8.99991H6C5.63973 8.99991 5.30731 8.80611 5.1298 8.49261C4.95229 8.1791 4.95715 7.79434 5.14251 7.48541L8.14251 2.48541C8.42666 2.01183 9.04092 1.85827 9.5145 2.14241Z" fill="white"/>
</svg>
