<svg width="20" height="20" viewBox="0 0 20 20" fill="none" xmlns="http://www.w3.org/2000/svg">
<path d="M10 20C4.486 20 0 15.515 0 10C0 4.485 4.486 0 10 0C15.514 0 20 4.485 20 10C20 15.515 15.514 20 10 20Z" fill="#B2B8BF"/>
<path fill-rule="evenodd" clip-rule="evenodd" d="M10 4.5C10.5523 4.5 11 4.94772 11 5.5V10.0721L13.4702 12.43C13.8697 12.8114 13.8844 13.4444 13.5031 13.8439C13.1217 14.2434 12.4888 14.2581 12.0893 13.8767L9.30952 11.2234C9.11184 11.0347 9 10.7733 9 10.5V5.5C9 4.94772 9.44772 4.5 10 4.5Z" fill="white"/>
</svg>
