<svg width="20" height="20" viewBox="0 0 20 20" fill="none" xmlns="http://www.w3.org/2000/svg">
<path d="M10 0C4.486 0 0 4.485 0 10C0 15.515 4.486 20 10 20C15.514 20 20 15.515 20 10C20 4.485 15.514 0 10 0Z" fill="#107F8C"/>
<path d="M14.8569 7.49999C14.4663 7.10946 13.8332 7.10946 13.4426 7.49999L9.16066 11.782L7 9.62131C6.60948 9.23078 5.97631 9.23078 5.58579 9.62131C5.19526 10.0118 5.19526 10.645 5.58579 11.0355L8.41421 13.8639C8.61948 14.0692 8.89179 14.1666 9.16066 14.1561C9.42953 14.1666 9.70184 14.0692 9.90711 13.8639L14.8569 8.9142C15.2474 8.52367 15.2474 7.89051 14.8569 7.49999Z" fill="white"/>
</svg>
