<svg width="20" height="20" viewBox="0 0 20 20" fill="none" xmlns="http://www.w3.org/2000/svg">
<circle cx="10" cy="10" r="10" fill="#FF9900"/>
<path d="M10.4483 3.46622C10.3641 3.29555 10.1903 3.1875 9.99997 3.1875C9.80965 3.1875 9.63583 3.29555 9.5516 3.46622L7.81642 6.98209L3.93642 7.54589C3.74807 7.57326 3.5916 7.70518 3.53279 7.88618C3.47397 8.06719 3.52302 8.26589 3.65931 8.39874L6.4669 11.1355L5.80412 14.9998C5.77195 15.1874 5.84906 15.3769 6.00303 15.4888C6.157 15.6007 6.36114 15.6154 6.52959 15.5269L9.99997 13.7024L13.4703 15.5269C13.6388 15.6154 13.8429 15.6007 13.9969 15.4888C14.1509 15.3769 14.228 15.1874 14.1958 14.9998L13.533 11.1355L16.3406 8.39874C16.4769 8.26589 16.526 8.06719 16.4672 7.88618C16.4083 7.70518 16.2519 7.57326 16.0635 7.54589L12.1835 6.98209L10.4483 3.46622Z" fill="white"/>
</svg>
