<svg width="16" height="16" viewBox="0 0 16 16" fill="none" xmlns="http://www.w3.org/2000/svg">
<path d="M8 16C12.4183 16 16 12.4183 16 8C16 3.58172 12.4183 0 8 0C3.58172 0 0 3.58172 0 8C0 12.4183 3.58172 16 8 16Z" fill="#B2B8BF"/>
<path fill-rule="evenodd" clip-rule="evenodd" d="M9.5145 2.14254C9.98808 2.42668 10.1416 3.04094 9.85749 3.51452L7.76619 7.00003H10C10.3603 7.00003 10.6927 7.19382 10.8702 7.50733C11.0477 7.82084 11.0429 8.20559 10.8575 8.51452L7.85749 13.5145C7.57334 13.9881 6.95908 14.1417 6.4855 13.8575C6.01192 13.5734 5.85836 12.9591 6.14251 12.4855L8.23381 9.00003H6C5.63973 9.00003 5.30731 8.80624 5.1298 8.49273C4.95229 8.17922 4.95715 7.79446 5.14251 7.48553L8.14251 2.48553C8.42666 2.01195 9.04092 1.85839 9.5145 2.14254Z" fill="white"/>
</svg>
