<svg width="32" height="32" viewBox="0 0 32 32" fill="none" xmlns="http://www.w3.org/2000/svg">
<path fill-rule="evenodd" clip-rule="evenodd" d="M16 32C24.8366 32 32 24.8366 32 16C32 7.16344 24.8366 0 16 0C7.16344 0 0 7.16344 0 16C0 24.8366 7.16344 32 16 32ZM13.6906 26.7399C14.7034 26.9984 15.7444 26.4335 16.0796 25.4435L16.7998 23.3166L18.7523 20.1429H23C24.1046 20.1429 25 19.2474 25 18.1429L25 11C25 9.89543 24.1046 9 23 9L10.5381 9C9.65897 9 8.88294 9.57405 8.62565 10.4147L6.43943 17.5575C6.04598 18.843 7.00749 20.1429 8.35186 20.1429H11.8765L11.3225 22.3653L11.5383 24.8107C11.6129 25.6564 12.2133 26.3628 13.0359 26.5727L13.6906 26.7399ZM14.1853 24.802L13.5305 24.6349L13.3442 22.5236L13.8171 20.6266C14.1317 19.3647 13.1771 18.1429 11.8765 18.1429H8.35186L10.5381 11H18.8889V18.1429H18.7523C18.0577 18.1429 17.4128 18.5033 17.0488 19.0949L14.978 22.4611L14.1853 24.802ZM20.8889 18.1429V11H23L23 18.1429H20.8889Z" fill="#B2B8BF"/>
</svg>
