<svg width="16" height="16" viewBox="0 0 16 16" fill="none" xmlns="http://www.w3.org/2000/svg">
<path fill-rule="evenodd" clip-rule="evenodd" d="M16 8C16 12.4183 12.4183 16 8 16C3.58172 16 0 12.4183 0 8C0 3.58172 3.58172 0 8 0C12.4183 0 16 3.58172 16 8ZM9.85749 3.5144C10.1416 3.04082 9.98808 2.42656 9.5145 2.14241C9.04092 1.85827 8.42665 2.01183 8.14251 2.48541L5.14251 7.48541C4.95715 7.79434 4.95229 8.1791 5.1298 8.49261C5.30731 8.80611 5.63973 8.99991 6 8.99991H8.23381L6.14251 12.4854C5.85836 12.959 6.01192 13.5733 6.4855 13.8574C6.95908 14.1415 7.57334 13.988 7.85749 13.5144L10.8575 8.5144C11.0429 8.20547 11.0477 7.82072 10.8702 7.50721C10.6927 7.1937 10.3603 6.99991 10 6.99991H7.76619L9.85749 3.5144Z" fill="#B2B8BF"/>
</svg>
