<svg width="16" height="16" viewBox="0 0 16 16" fill="none" xmlns="http://www.w3.org/2000/svg">
<path d="M1 0C1.55228 0 2 0.447715 2 1V13C2 13.5523 2.44772 14 3 14H15C15.5523 14 16 14.4477 16 15C16 15.5523 15.5523 16 15 16H3C1.34315 16 0 14.6569 0 13V1C0 0.447715 0.447715 0 1 0Z" fill="#7D838A"/>
<path d="M10.5 4C11.0523 4 11.5 3.55228 11.5 3C11.5 2.44772 11.0523 2 10.5 2H5C4.44772 2 4 2.44772 4 3C4 3.55228 4.44772 4 5 4H10.5Z" fill="#7D838A"/>
<path d="M15 7C15 7.55229 14.5523 8 14 8H5C4.44771 8 4 7.55229 4 7C4 6.44771 4.44771 6 5 6H14C14.5523 6 15 6.44771 15 7Z" fill="#7D838A"/>
<path d="M9.5 11C9.5 11.5523 9.05228 12 8.5 12H5C4.44772 12 4 11.5523 4 11C4 10.4477 4.44772 10 5 10H8.5C9.05228 10 9.5 10.4477 9.5 11Z" fill="#7D838A"/>
</svg>
