<svg width="20" height="20" viewBox="0 0 20 20" fill="none" xmlns="http://www.w3.org/2000/svg">
<path fill-rule="evenodd" clip-rule="evenodd" d="M16 8C15.82 8 15.68 7.87 15.66 7.69C15.56 7.04 15.47 6.53 15.35 6.13C15.23 5.73 15.08 5.44 14.87 5.21C14.64 4.98 14.28 4.76 13.87 4.63C13.46 4.51 12.96 4.43 12.32 4.33C12.12 4.31 12 4.17 12 3.99C12 3.82 12.12 3.69 12.32 3.66C12.97 3.57 13.47 3.48 13.87 3.36C14.28 3.24 14.57 3.08 14.8 2.84C15.01 2.61 15.2 2.26 15.33 1.85C15.45 1.45 15.55 0.94 15.66 0.3C15.69 0.12 15.82 0 16 0C16.17 0 16.31 0.12 16.33 0.3C16.43 0.95 16.52 1.46 16.64 1.86C16.76 2.26 16.91 2.56 17.12 2.79C17.35 3.03 17.7 3.24 18.12 3.37C18.52 3.49 19.03 3.57 19.67 3.66C19.87 3.69 20 3.82 20 3.99C20 4.17 19.87 4.31 19.67 4.33C19.02 4.42 18.52 4.51 18.12 4.63C17.71 4.76 17.41 4.92 17.18 5.16C16.98 5.39 16.79 5.74 16.67 6.14C16.55 6.55 16.45 7.05 16.33 7.7C16.3 7.87 16.17 8 16 8ZM7.33 18.52C7.35 18.66 7.39 18.79 7.43 18.92C7.45 18.97 7.48 19.02 7.5 19.08C7.56 19.19 7.62 19.29 7.7 19.38C7.75 19.44 7.8 19.5 7.86 19.56C7.94 19.63 8.02 19.69 8.11 19.74C8.19 19.8 8.29 19.84 8.39 19.88C8.45 19.91 8.52 19.93 8.59 19.95C8.72 19.98 8.86 20 9 20C9.14 20 9.28 19.98 9.41 19.94C9.48 19.93 9.54 19.91 9.6 19.88C9.7 19.85 9.78 19.8 9.87 19.75C9.96 19.7 10.04 19.63 10.12 19.56C10.24 19.45 10.34 19.33 10.42 19.2C10.53 19.01 10.61 18.81 10.65 18.58C10.78 17.85 10.89 17.26 10.99 16.82C11.1 16.3 11.21 15.86 11.33 15.5C11.44 15.14 11.56 14.83 11.7 14.59C11.82 14.35 11.96 14.16 12.11 14C12.27 13.84 12.45 13.7 12.67 13.58C12.9 13.45 13.18 13.33 13.52 13.23C13.86 13.12 14.28 13.02 14.78 12.93C15.23 12.84 15.8 12.76 16.47 12.67C16.63 12.65 16.78 12.61 16.93 12.55C16.97 12.54 17.02 12.52 17.06 12.5C17.17 12.44 17.28 12.37 17.38 12.29C17.44 12.24 17.5 12.19 17.56 12.13C17.63 12.05 17.69 11.97 17.74 11.88C17.8 11.79 17.84 11.7 17.88 11.6C17.91 11.53 17.93 11.46 17.95 11.38C17.98 11.25 18 11.12 18 10.99C18 10.86 17.98 10.73 17.95 10.61C17.93 10.53 17.91 10.45 17.88 10.37C17.84 10.29 17.8 10.21 17.76 10.13C17.7 10.03 17.63 9.94 17.54 9.86C17.47 9.78 17.39 9.71 17.3 9.65C17.07 9.48 16.8 9.37 16.48 9.33C15.8 9.23 15.23 9.15 14.78 9.07C14.28 8.98 13.86 8.88 13.51 8.77C13.17 8.67 12.87 8.55 12.64 8.42C12.41 8.3 12.22 8.16 12.06 8.01C11.91 7.85 11.76 7.65 11.64 7.42C11.51 7.18 11.38 6.88 11.27 6.52C11.16 6.16 11.05 5.72 10.95 5.21C10.86 4.75 10.76 4.17 10.66 3.47C10.64 3.33 10.6 3.2 10.56 3.07C10.54 3.02 10.51 2.97 10.49 2.91C10.43 2.8 10.37 2.7 10.29 2.61C10.24 2.55 10.19 2.49 10.13 2.43C10.05 2.36 9.97 2.3 9.88 2.25C9.8 2.19 9.7 2.15 9.6 2.11C9.54 2.08 9.47 2.06 9.4 2.04C9.27 2.01 9.13 2 9 2C8.87 2 8.75 2.01 8.63 2.03C8.55 2.05 8.47 2.08 8.39 2.11C8.3 2.14 8.22 2.18 8.14 2.23C8.05 2.29 7.96 2.35 7.88 2.43C7.83 2.48 7.78 2.53 7.73 2.58C7.65 2.68 7.58 2.78 7.52 2.9C7.48 2.98 7.44 3.07 7.41 3.16C7.38 3.25 7.35 3.34 7.34 3.44C7.21 4.16 7.1 4.74 7.01 5.19C6.9 5.71 6.79 6.15 6.67 6.5C6.56 6.86 6.44 7.16 6.3 7.41C6.18 7.64 6.04 7.84 5.88 8C5.73 8.16 5.54 8.29 5.33 8.41C5.09 8.54 4.81 8.66 4.47 8.77C4.13 8.87 3.7 8.97 3.21 9.06C2.76 9.15 2.18 9.23 1.48 9.33C1.21 9.37 0.97 9.46 0.76 9.59C0.65 9.67 0.54 9.76 0.45 9.86C0.36 9.94 0.29 10.03 0.23 10.13C0.19 10.21 0.15 10.29 0.11 10.37C0.08 10.45 0.06 10.53 0.04 10.61C0.01 10.73 0 10.86 0 10.99C0 11.12 0.01 11.25 0.04 11.38C0.06 11.46 0.08 11.53 0.11 11.6C0.15 11.7 0.19 11.79 0.25 11.88C0.3 11.97 0.36 12.05 0.43 12.13C0.49 12.19 0.55 12.24 0.61 12.29C0.71 12.37 0.82 12.44 0.93 12.5C0.97 12.52 1.02 12.54 1.06 12.55C1.2 12.61 1.35 12.65 1.51 12.66C2.19 12.76 2.76 12.85 3.2 12.94C3.7 13.03 4.13 13.13 4.48 13.24C4.82 13.35 5.12 13.46 5.36 13.59C5.58 13.71 5.77 13.85 5.93 14.01C6.09 14.17 6.23 14.36 6.35 14.59C6.49 14.83 6.61 15.13 6.72 15.48C6.83 15.84 6.94 16.27 7.04 16.78C7.13 17.24 7.23 17.82 7.33 18.52ZM9.02 16.48C9.14 15.89 9.29 15.31 9.42 14.9C9.57 14.42 9.74 14 9.93 13.65C10.14 13.25 10.39 12.9 10.68 12.61C10.97 12.31 11.3 12.05 11.69 11.83C12.04 11.63 12.46 11.46 12.93 11.32C13.3 11.2 13.73 11.1 14.23 11C13.74 10.9 13.31 10.8 12.93 10.69C12.46 10.55 12.04 10.38 11.68 10.18C11.29 9.97 10.94 9.71 10.65 9.42C10.35 9.12 10.1 8.78 9.88 8.38C9.69 8.02 9.51 7.6 9.36 7.11C9.23 6.69 9.11 6.18 8.99 5.6C8.86 6.18 8.71 6.69 8.58 7.1C8.43 7.58 8.26 8 8.07 8.36C7.85 8.75 7.6 9.1 7.32 9.39C7.03 9.69 6.69 9.95 6.3 10.16C5.94 10.36 5.53 10.53 5.06 10.68C4.67 10.79 4.23 10.9 3.72 11C4.23 11.1 4.68 11.21 5.06 11.33C5.53 11.47 5.95 11.64 6.31 11.83C6.7 12.05 7.04 12.3 7.34 12.59C7.63 12.89 7.89 13.23 8.11 13.62C8.3 13.98 8.48 14.4 8.63 14.88C8.76 15.31 8.9 15.89 9.02 16.48Z" fill="#21A19A"/>
</svg>
