<svg width="32" height="33" viewBox="0 0 32 33" fill="none" xmlns="http://www.w3.org/2000/svg">
<path d="M0.289566 30.2831C-0.100946 30.6736 -0.0942202 31.3134 0.296292 31.704C0.686805 32.0945 1.32667 32.1012 1.71719 31.7107L16 17.4278L30.2831 31.7109C30.6736 32.1014 31.3134 32.0947 31.704 31.7041C32.0945 31.3136 32.1012 30.6738 31.7107 30.2832L17.4276 16.0002L31.7107 1.71717C32.1012 1.32665 32.0945 0.686782 31.704 0.296269C31.3135 -0.0942429 30.6736 -0.10097 30.2831 0.289543L16 14.5726L1.71717 0.289738C1.32665 -0.100775 0.686782 -0.094049 0.296269 0.296463C-0.0942429 0.686976 -0.10097 1.32685 0.289543 1.71736L14.5724 16.0002L0.289566 30.2831Z" fill="#D0D7DD"/>
</svg>
