<svg width="24" height="24" viewBox="0 0 24 24" fill="none" xmlns="http://www.w3.org/2000/svg">
<path fill-rule="evenodd" clip-rule="evenodd" d="M6.63373 13.0001L6 13V15C6 15.5523 5.55228 16 5 16C4.44772 16 4 15.5523 4 15V8.49999C4 7.67211 4.67082 7 5.49979 7L7.00011 7.00008C7.83423 7.00017 8.77677 7.13493 9.54806 7.56333C10.3795 8.02515 11 8.83434 11 9.99991C11 11.1654 10.3796 11.9747 9.54822 12.4367C9.39552 12.5216 9.23612 12.5949 9.07217 12.658L10.7071 14.2929C11.0976 14.6834 11.0976 15.3166 10.7071 15.7071C10.3166 16.0976 9.68342 16.0976 9.29289 15.7071L6.79289 13.2071C6.72957 13.1438 6.67652 13.0741 6.63373 13.0001ZM6 11V9.00003L6.99989 9.00008C7.66577 9.00015 8.22323 9.11528 8.57694 9.31174C8.87049 9.47479 9 9.66544 9 9.99991C9 10.3345 8.87039 10.5253 8.57678 10.6885C8.22312 10.885 7.66574 11.0002 7.00013 11.0001L6 11Z" fill="#107F8C"/>
<path d="M13 7C13.5523 7 14 7.44772 14 8V12C14 12.34 14.1102 12.8722 14.4115 13.2907C14.6761 13.6582 15.1259 14 16 14C16.8741 14 17.3239 13.6582 17.5885 13.2907C17.8898 12.8722 18 12.34 18 12V8C18 7.44772 18.4477 7 19 7C19.5523 7 20 7.44772 20 8V12C20 12.66 19.8102 13.6278 19.2115 14.4593C18.5761 15.3418 17.5259 16 16 16C14.4741 16 13.4239 15.3418 12.7885 14.4593C12.1898 13.6278 12 12.66 12 12V8C12 7.44772 12.4477 7 13 7Z" fill="#107F8C"/>
<path fill-rule="evenodd" clip-rule="evenodd" d="M20 2H4C1.79086 2 0 3.79086 0 6V17C0 19.2091 1.79086 21 4 21H20C22.2091 21 24 19.2091 24 17V6C24 3.79086 22.2091 2 20 2ZM2 6C2 4.89543 2.89543 4 4 4H20C21.1046 4 22 4.89543 22 6V17C22 18.1046 21.1046 19 20 19H4C2.89543 19 2 18.1046 2 17V6Z" fill="#107F8C"/>
</svg>
