<svg width="24" height="24" viewBox="0 0 24 24" fill="none" xmlns="http://www.w3.org/2000/svg">
<path d="M11.0017 1C5.4779 1 1 5.4779 1 11.0017C1 15.8399 4.43542 19.8758 9 20.803L11.0017 20V11.0017V1Z" fill="#90D0CC"/>
<path d="M3 11C3 6.58172 6.58172 3 11 3C15.1172 3 18.5091 6.11098 18.9511 10.1099C19.0118 10.6588 19.506 11.0546 20.0549 10.9939C20.6039 10.9333 20.9997 10.4391 20.939 9.89013C20.3862 4.88912 16.148 1 11 1C5.47715 1 1 5.47715 1 11C1 16.148 4.88912 20.3862 9.89013 20.939C10.4391 20.9997 10.9333 20.6039 10.9939 20.0549C11.0546 19.506 10.6588 19.0118 10.1099 18.9511C6.11098 18.5091 3 15.1172 3 11Z" fill="#107F8C"/>
<path fill-rule="evenodd" clip-rule="evenodd" d="M16.8115 13.2246C16.8265 13.0966 16.9345 13 17.0635 13H18.9346C19.0636 13 19.1715 13.0966 19.1865 13.2246L19.3037 14.2363C19.7877 14.4043 20.2255 14.6603 20.6045 14.9883L21.542 14.582C21.66 14.531 21.7964 14.5785 21.8604 14.6895L22.7979 16.3105C22.8629 16.4215 22.8325 16.5636 22.7295 16.6406L21.9229 17.2402C21.9709 17.4872 21.999 17.74 21.999 18C21.999 18.26 21.9709 18.5128 21.9229 18.7598L22.7295 19.3594C22.8325 19.4354 22.8619 19.5775 22.7979 19.6895L21.8604 21.3105C21.7964 21.4215 21.66 21.469 21.542 21.418L20.6045 21.0117C20.2255 21.3397 19.7877 21.5957 19.3037 21.7637L19.1865 22.7754C19.1715 22.9034 19.0636 23 18.9346 23H17.0635C16.9345 23 16.8265 22.9034 16.8115 22.7754L16.6943 21.7637C16.2103 21.5957 15.7726 21.3407 15.3936 21.0117L14.4561 21.416C14.3381 21.467 14.2017 21.4225 14.1377 21.3105L13.2002 19.6895C13.1352 19.5785 13.1656 19.4364 13.2686 19.3594L14.0752 18.7598C14.0272 18.5128 13.999 18.26 13.999 18C13.999 17.74 14.0272 17.4872 14.0752 17.2402L13.2686 16.6406C13.1656 16.5636 13.1362 16.4215 13.2002 16.3105L14.1377 14.6895C14.2017 14.5785 14.3381 14.531 14.4561 14.582L15.3936 14.9883C15.7726 14.6603 16.2103 14.4043 16.6943 14.2363L16.8115 13.2246ZM19.999 18C19.999 16.895 19.103 16 17.999 16C16.895 16 15.999 16.895 15.999 18C15.999 19.104 16.895 20 17.999 20C19.103 20 19.999 19.104 19.999 18Z" fill="#107F8C"/>
</svg>
