<svg width="32" height="32" viewBox="0 0 32 32" fill="none" xmlns="http://www.w3.org/2000/svg">
<path fill-rule="evenodd" clip-rule="evenodd" d="M16 4C9.37 4 4 9.37 4 16C4 22.62 9.37 28 16 28C22.62 28 28 22.62 28 16C28 15.86 27.97 15.73 27.92 15.61C27.87 15.49 27.8 15.38 27.7 15.29L16.7 4.29C16.51 4.09 16.27 4 16 4ZM15 6.04C13.99 6.13 13.05 6.36 12.16 6.73C10.98 7.22 9.9 7.95 8.92 8.92C7.95 9.9 7.22 10.98 6.73 12.16C6.24 13.33 6 14.61 6 16C6 17.38 6.24 18.66 6.73 19.83C7.22 21.01 7.95 22.09 8.92 23.07C9.9 24.04 10.98 24.77 12.16 25.26C13.33 25.75 14.61 26 16 26C17.38 26 18.66 25.75 19.83 25.26C21.01 24.77 22.09 24.04 23.07 23.07C24.04 22.09 24.77 21.01 25.26 19.83C25.63 18.95 25.86 18 25.95 17H18C17.78 17 17.56 16.97 17.36 16.93C17.18 16.89 17 16.83 16.83 16.76C16.65 16.69 16.49 16.6 16.34 16.5C16.17 16.39 16.02 16.26 15.87 16.12C15.73 15.97 15.6 15.82 15.49 15.65C15.39 15.5 15.3 15.34 15.23 15.16C15.16 14.99 15.1 14.81 15.06 14.63C15.02 14.43 15 14.21 15 14V6.04ZM25 15H18C17.91 15 17.83 14.99 17.75 14.97C17.7 14.95 17.65 14.94 17.61 14.92C17.55 14.89 17.5 14.87 17.46 14.84C17.4 14.8 17.34 14.75 17.29 14.7C17.24 14.65 17.19 14.59 17.15 14.53C17.12 14.49 17.1 14.44 17.07 14.38C17.05 14.34 17.04 14.29 17.02 14.24C17 14.16 17 14.08 17 14L17.02 7L25 15Z" fill="#21A19A"/>
</svg>
