<svg width="24" height="24" viewBox="0 0 24 24" fill="none" xmlns="http://www.w3.org/2000/svg">
<path fill-rule="evenodd" clip-rule="evenodd" d="M12 8C14.2091 8 16 9.79086 16 12C16 14.2091 14.2091 16 12 16C9.79086 16 8 14.2091 8 12C8 9.79086 9.79086 8 12 8ZM12 10C10.8954 10 10 10.8954 10 12C10 13.1046 10.8954 14 12 14C13.1046 14 14 13.1046 14 12C14 10.8954 13.1046 10 12 10Z" fill="#565B62"/>
<path fill-rule="evenodd" clip-rule="evenodd" d="M13.7461 2.0127C13.7944 2.02038 13.8417 2.03148 13.8877 2.0459C13.9054 2.05146 13.9221 2.05988 13.9395 2.06641C13.9655 2.0762 13.9915 2.08577 14.0166 2.09766C14.0377 2.10768 14.0578 2.11941 14.0781 2.13086C14.101 2.14371 14.1238 2.15632 14.1455 2.1709C14.1626 2.18235 14.179 2.19455 14.1953 2.20703C14.2168 2.22347 14.2377 2.24064 14.2578 2.25879C14.2744 2.27376 14.2901 2.28958 14.3057 2.30566C14.3236 2.3242 14.3409 2.34333 14.3574 2.36328C14.3712 2.37987 14.3848 2.39654 14.3975 2.41406C14.4187 2.44337 14.4379 2.47409 14.4561 2.50586C14.4613 2.51511 14.4677 2.52375 14.4727 2.5332C14.4963 2.57803 14.5173 2.62483 14.5342 2.67383L15.1318 4.40527C15.1322 4.4055 15.1328 4.40682 15.1338 4.40723H15.1367L16.791 3.60156C16.9347 3.5316 17.0893 3.49884 17.2422 3.50098C17.4971 3.5044 17.7479 3.60535 17.9365 3.79395L20.1904 6.04785C20.4919 6.3494 20.5684 6.80897 20.3818 7.19238L19.5771 8.84668L19.5762 8.84863L19.5771 8.85059L19.5791 8.85254L21.3262 9.45605C21.6791 9.57789 21.9302 9.88363 21.9873 10.2441C21.9955 10.2956 22 10.3481 22 10.4014V13.583C22 13.8495 21.8944 14.0976 21.7168 14.2803C21.6101 14.39 21.4775 14.4761 21.3262 14.5283L19.5791 15.1318C19.5789 15.1321 19.5776 15.1327 19.5771 15.1338L19.5762 15.1348L19.5771 15.1367L20.3877 16.8018C20.481 16.9935 20.5084 17.2045 20.4746 17.4053C20.4577 17.5057 20.4258 17.6037 20.3789 17.6953C20.3322 17.7868 20.2706 17.8719 20.1953 17.9473L17.9473 20.1953C17.8719 20.2706 17.7868 20.3322 17.6953 20.3789C17.5578 20.4492 17.4061 20.4862 17.2529 20.4883C17.1 20.4904 16.9455 20.4577 16.8018 20.3877L15.1367 19.5771C15.1356 19.5766 15.135 19.5763 15.1348 19.5762L15.1328 19.5771C15.1327 19.5775 15.1322 19.578 15.1318 19.5791L14.5283 21.3262C14.3891 21.7294 14.0095 22 13.583 22H10.4014C9.97484 22 9.59522 21.7294 9.45605 21.3262L8.85254 19.5791C8.85218 19.578 8.85173 19.5775 8.85156 19.5771L8.85059 19.5762C8.85067 19.5761 8.84837 19.5763 8.84668 19.5771L7.19238 20.3818C6.80898 20.5684 6.34941 20.4919 6.04785 20.1904L3.79395 17.9365C3.64315 17.7857 3.54829 17.5951 3.51465 17.3945C3.4809 17.1938 3.50821 16.9828 3.60156 16.791L4.40723 15.1367C4.40774 15.1357 4.4081 15.1351 4.4082 15.1348L4.40723 15.1338C4.40682 15.1328 4.40648 15.1322 4.40625 15.1318L2.67383 14.5342C2.27077 14.3951 2.00016 14.0152 2 13.5889V10.3955C2 9.96899 2.27065 9.58937 2.67383 9.4502L4.40527 8.85254L4.40723 8.85059V8.84668L3.60742 7.20312C3.58416 7.15533 3.56496 7.10635 3.5498 7.05664C3.45872 6.75752 3.51276 6.43184 3.69629 6.17871C3.72688 6.13649 3.76112 6.09632 3.79883 6.05859L6.05859 3.79883C6.13397 3.72347 6.21908 3.66188 6.31055 3.61523C6.53937 3.49836 6.80725 3.47389 7.05664 3.5498C7.10635 3.56496 7.15532 3.58417 7.20312 3.60742L8.84668 4.40723H8.85059L8.85254 4.40527L9.4502 2.67383C9.50242 2.52253 9.58851 2.38988 9.69824 2.2832C9.88088 2.10562 10.129 2.00002 10.3955 2H13.5889L13.7461 2.0127ZM10.7432 5.05762C10.3508 6.19416 9.05279 6.73135 7.97168 6.20508L6.96875 5.71777L5.71777 6.96875L6.20605 7.97168C6.37049 8.30958 6.43062 8.66864 6.40137 9.01465C6.33719 9.77569 5.83899 10.4734 5.05762 10.7432L4 11.1084V12.876L5.05762 13.2412C5.76797 13.4865 6.24512 14.085 6.37402 14.7637C6.42574 15.0354 6.42145 15.3199 6.35449 15.5996C6.32105 15.7392 6.27176 15.8777 6.20605 16.0127L5.71191 17.0254L6.95801 18.2715L7.97168 17.7783C9.05283 17.252 10.3508 17.7901 10.7432 18.9268L11.1143 20H12.8701L13.2412 18.9268C13.5846 17.932 14.6214 17.3955 15.5996 17.6299C15.7392 17.6633 15.8776 17.7126 16.0127 17.7783L17.0361 18.2764L18.2764 17.0361L17.7783 16.0127C17.7126 15.8776 17.6633 15.7392 17.6299 15.5996C17.6131 15.5295 17.6008 15.4591 17.5918 15.3887C17.5649 15.1781 17.5716 14.9673 17.6104 14.7637C17.7393 14.085 18.2164 13.4864 18.9268 13.2412L20 12.8701V11.1133L18.9268 10.7432C17.8612 10.3753 17.322 9.21161 17.6924 8.17676C17.7171 8.10778 17.7454 8.03924 17.7783 7.97168L18.2705 6.95703L17.0254 5.71191L16.0127 6.20508C15.8931 6.26329 15.7699 6.30606 15.6465 6.33887C15.6197 6.34598 15.5932 6.35342 15.5664 6.35938C14.5979 6.57424 13.5808 6.04115 13.2412 5.05762L12.876 4H11.1084L10.7432 5.05762Z" fill="#565B62"/>
</svg>
