<svg width="20" height="20" viewBox="0 0 20 20" fill="none" xmlns="http://www.w3.org/2000/svg">
<path fill-rule="evenodd" clip-rule="evenodd" d="M10.5309 2.00209C9.97983 1.96673 9.5044 2.38474 9.46893 2.93581L9.01895 9.92803C8.99602 10.2844 9.16486 10.626 9.46193 10.8241C9.759 11.0223 10.1392 11.047 10.4594 10.889L16.75 7.78456C16.988 7.6671 17.1695 7.45983 17.2546 7.20843C17.3397 6.95702 17.3214 6.6821 17.2037 6.44422C16.5797 5.18365 15.6345 4.10955 14.4631 3.32982C13.2917 2.55011 11.9355 2.09222 10.5309 2.00209ZM11.1259 8.32978L11.3952 4.14534C12.0914 4.3089 12.7554 4.59569 13.3549 4.9947C13.9534 5.39314 14.4732 5.8939 14.8917 6.47134L11.1259 8.32978Z" fill="#B2B8BF"/>
<path d="M7.0079 4.79067C7.48636 4.51483 7.65063 3.90334 7.37479 3.42487C7.09895 2.94641 6.48746 2.78214 6.00899 3.05798C4.82114 3.74279 3.82894 4.72058 3.12745 5.89796C2.42595 7.07535 2.03867 8.41289 2.00275 9.78262C1.96683 11.1524 2.28348 12.5083 2.92232 13.7208C3.56116 14.9333 4.50077 15.9616 5.65114 16.7075C6.80149 17.4535 8.12417 17.8922 9.49265 17.9818C10.8611 18.0713 12.2298 17.8088 13.4677 17.2192C14.7057 16.6296 15.7716 15.7326 16.5634 14.6138C17.3552 13.4951 17.8464 12.192 17.9898 10.8293C18.0477 10.2801 17.6493 9.78795 17.1 9.73014C16.5508 9.67233 16.0586 10.0707 16.0008 10.62C15.8933 11.6418 15.5249 12.6191 14.9309 13.4584C14.3369 14.2977 13.537 14.9709 12.6077 15.4135C11.6784 15.8561 10.6508 16.0533 9.62327 15.986C8.59572 15.9188 7.60273 15.5894 6.7393 15.0295C5.87587 14.4696 5.17092 13.6979 4.69174 12.7885C4.21256 11.8791 3.97513 10.8622 4.00206 9.83505C4.029 8.80795 4.3194 7.80483 4.84561 6.92165C5.37182 6.03846 6.11627 5.30469 7.0079 4.79067Z" fill="#B2B8BF"/>
</svg>
