<svg width="24" height="24" viewBox="0 0 24 24" fill="none" xmlns="http://www.w3.org/2000/svg">
<path d="M6 3C4.34315 3 3 4.34315 3 6V18C3 19.6569 4.34315 21 6 21H13C14.6569 21 16 19.6569 16 18V17C16 16.4477 15.5523 16 15 16C14.4477 16 14 16.4477 14 17V18C14 18.5523 13.5523 19 13 19H6C5.44772 19 5 18.5523 5 18V6C5 5.44772 5.44772 5 6 5H13C13.5523 5 14 5.44772 14 6V7C14 7.55228 14.4477 8 15 8C15.5523 8 16 7.55228 16 7V6C16 4.34315 14.6569 3 13 3H6Z" fill="#B2B8BF"/>
<path d="M19.8682 8.00403C19.5942 7.52451 18.9833 7.35792 18.5038 7.63193C18.0243 7.90594 17.8577 8.51679 18.1317 8.99631L19.2768 11.0002H12C11.4477 11.0002 11 11.448 11 12.0002C11 12.5525 11.4477 13.0002 12 13.0002H19.2767L18.1317 15.004C17.8577 15.4835 18.0243 16.0944 18.5038 16.3684C18.9833 16.6424 19.5942 16.4758 19.8682 15.9963L21.8571 12.5157C21.9478 12.3652 22 12.1888 22 12.0002C22 11.8129 21.9485 11.6375 21.8588 11.4876L19.8682 8.00403Z" fill="#B2B8BF"/>
</svg>
