<svg width="32" height="32" viewBox="0 0 32 32" fill="none" xmlns="http://www.w3.org/2000/svg">
<path fill-rule="evenodd" clip-rule="evenodd" d="M16 30C23.73 30 30 23.73 30 16C30 8.26 23.73 2 16 2C8.26 2 2 8.26 2 16C2 23.73 8.26 30 16 30ZM10.85 14.4L10.34 9.46C10.26 8.66 11.09 8.1 11.8 8.47L24.12 14.96C24.84 15.33 24.83 16.36 24.12 16.73L11.78 23.14C11.08 23.51 10.25 22.95 10.32 22.16L10.79 17.3C10.82 17.04 11.03 16.85 11.29 16.85H16.9C17.45 16.85 17.9 16.4 17.9 15.85C17.9 15.29 17.45 14.85 16.9 14.85H11.35C11.09 14.85 10.87 14.65 10.85 14.4Z" fill="#565B62"/>
</svg>
