<svg width="32" height="32" viewBox="0 0 32 32" fill="none" xmlns="http://www.w3.org/2000/svg">
<path fill-rule="evenodd" clip-rule="evenodd" d="M12.5 12C12.5 11.4477 12.0523 11 11.5 11C10.9477 11 10.5 11.4477 10.5 12H8.001C7.4483 12 7 12.448 7 13.001V17.4987C7 18.0509 7.44772 18.4987 8 18.4987C8.55184 18.4987 8.99927 18.0517 9 17.5H10.5V19C10.5 19.5523 10.9477 20 11.5 20C12.0523 20 12.5 19.5523 12.5 19V17.5H14C14.0007 18.0517 14.4482 18.4987 15 18.4987C15.5523 18.4987 16 18.0509 16 17.4987V13.001C16 12.448 15.5517 12 14.999 12H12.5ZM14 15.5V14H12.5V15.5H14ZM10.5 15.5V14H9V15.5H10.5Z" fill="#21A19A"/>
<path fill-rule="evenodd" clip-rule="evenodd" d="M21 11C21.5523 11 22 11.4477 22 12H24C24.5523 12 25 12.4477 25 13C25 13.5523 24.5523 14 24 14H23.9657C23.879 14.7699 23.6264 15.6578 23.0752 16.5413C22.9215 16.7875 22.7465 17.0304 22.5483 17.268C23.037 17.5532 23.6202 17.8193 24.3163 18.0514C24.8403 18.226 25.1234 18.7923 24.9488 19.3163C24.7741 19.8402 24.2078 20.1234 23.6839 19.9487C22.6155 19.5926 21.7304 19.1521 21.0023 18.6558C20.2736 19.1535 19.3873 19.5957 18.3171 19.9536C17.7934 20.1288 17.2268 19.8463 17.0516 19.3225C16.8764 18.7988 17.1589 18.2322 17.6827 18.057C18.3809 17.8234 18.9656 17.5558 19.4552 17.2693C19.2554 17.0302 19.0792 16.7857 18.9246 16.5377C18.3746 15.6558 18.122 14.7691 18.0349 14H18C17.4477 14 17 13.5523 17 13C17 12.4477 17.4477 12 18 12H20C20 11.4477 20.4477 11 21 11ZM20.0542 14H21.9466C21.8687 14.4551 21.6995 14.9679 21.3784 15.4825C21.2724 15.6525 21.1477 15.8259 21.0012 16C20.8537 15.8249 20.7283 15.6504 20.6217 15.4795C20.3016 14.9662 20.1324 14.4545 20.0542 14Z" fill="#21A19A"/>
<path fill-rule="evenodd" clip-rule="evenodd" d="M3 8C3 6.34315 4.34315 5 6 5H26C27.6569 5 29 6.34315 29 8V23C29 24.6569 27.6569 26 26 26H6C4.34315 26 3 24.6569 3 23V8ZM6 7C5.44772 7 5 7.44772 5 8V23C5 23.5523 5.44772 24 6 24H26C26.5523 24 27 23.5523 27 23V8C27 7.44771 26.5523 7 26 7H6Z" fill="#21A19A"/>
</svg>
