<svg width="32" height="32" viewBox="0 0 32 32" fill="none" xmlns="http://www.w3.org/2000/svg">
<path d="M17 27V24.086C17 23.5337 17.4477 23.086 18 23.086C18.5523 23.086 19 23.5337 19 24.086V27C19 27.5523 18.5523 28 18 28C17.4477 28 17 27.5523 17 27Z" fill="#107F8C"/>
<path d="M17 8V5C17 4.44772 17.4477 4 18 4C18.5523 4 19 4.44772 19 5L19 8C19 8.55228 18.5523 9 18 9C17.4477 9 17 8.55228 17 8Z" fill="#107F8C"/>
<path fill-rule="evenodd" clip-rule="evenodd" d="M12.8072 6C7.37849 6 3 10.5054 3 15.9998C3 21.4945 7.37847 26 12.8072 26C12.8975 26 13.1726 26 13.4411 25.8546C13.6072 25.7646 13.8059 25.5995 13.9189 25.3279C14.0283 25.065 14.0069 24.8229 13.9705 24.6686C13.9091 24.4089 13.7621 24.2187 13.7124 24.1545C13.64 24.0608 13.5548 23.9671 13.4807 23.888C13.418 23.8211 13.3505 23.7509 13.2788 23.6763L13.2779 23.6754L13.2772 23.6746C12.9915 23.3775 12.6387 23.0105 12.2519 22.5023C11.3085 21.2628 10.2043 19.2204 10.2043 15.9998C10.2043 12.7792 11.3085 10.7369 12.2519 9.49755C12.6387 8.98937 12.9915 8.62239 13.2772 8.32529C13.3495 8.25009 13.4175 8.17937 13.4807 8.11197C13.5548 8.03288 13.6394 7.93995 13.7118 7.84627C13.7615 7.78207 13.9091 7.59115 13.9705 7.33137C14.0069 7.17709 14.0283 6.93501 13.9188 6.67206C13.8058 6.40046 13.6072 6.23539 13.441 6.14538C13.1726 6 12.8975 6 12.8072 6ZM5 15.9998C5 12.346 7.39623 9.27814 10.6389 8.31461C9.48602 9.83857 8.20428 12.2888 8.20428 15.9998C8.20428 19.711 9.48616 22.1614 10.6391 23.6854C7.39633 22.722 5 19.6541 5 15.9998ZM12.8072 8C12.8276 8 12.8216 8.00185 12.7968 8.00001L12.8072 8ZM12.1259 6.62763C12.138 6.60946 12.1419 6.60703 12.1296 6.62288L12.1259 6.62763ZM12.1296 25.377C12.1418 25.3929 12.138 25.3905 12.1258 25.3723L12.1296 25.377ZM12.7968 24C12.8216 23.9982 12.8276 24 12.8072 24L12.7968 24Z" fill="#107F8C"/>
<path d="M15.5511 12.8398C16.2291 12.3129 17.0779 12 18.0001 12C20.2047 12 22.0001 13.7952 22.0001 15.9999C22.0001 18.2048 20.2047 20 18.0001 20C17.1014 20 16.2728 19.7029 15.6038 19.2004C15.1622 18.8687 14.5353 18.9578 14.2036 19.3994C13.872 19.841 13.961 20.4679 14.4026 20.7996C15.405 21.5525 16.6522 22 18.0001 22C21.3093 22 24.0001 19.3094 24.0001 15.9999C24.0001 12.6906 21.3092 10 18.0001 10C16.6166 10 15.3393 10.4715 14.3239 11.2606C13.8878 11.5995 13.809 12.2277 14.1479 12.6638C14.4868 13.0999 15.115 13.1787 15.5511 12.8398Z" fill="#107F8C"/>
<path d="M29 15H26C25.4477 15 25 15.4477 25 16C25 16.5523 25.4477 17 26 17H29C29.5523 17 30 16.5523 30 16C30 15.4477 29.5523 15 29 15Z" fill="#107F8C"/>
<path d="M23.2929 9.29289L25.0712 7.51457C25.4617 7.12405 26.0949 7.12405 26.4854 7.51457C26.876 7.9051 26.876 8.53826 26.4854 8.92879L24.7071 10.7071C24.3166 11.0976 23.6834 11.0976 23.2929 10.7071C22.9024 10.3166 22.9024 9.68342 23.2929 9.29289Z" fill="#107F8C"/>
<path d="M26.4854 23.0712L24.7073 21.2931C24.3168 20.9026 23.6837 20.9026 23.2931 21.2931C22.9026 21.6837 22.9026 22.3168 23.2931 22.7073L25.0712 24.4854C25.4617 24.876 26.0949 24.876 26.4854 24.4854C26.876 24.0949 26.876 23.4617 26.4854 23.0712Z" fill="#107F8C"/>
</svg>
