<svg width="16" height="16" viewBox="0 0 16 16" fill="none" xmlns="http://www.w3.org/2000/svg">
<path d="M2 1C2 0.447715 1.55228 0 1 0C0.447715 0 0 0.447715 0 1V13C0 14.6569 1.34315 16 3 16H15C15.5523 16 16 15.5523 16 15C16 14.4477 15.5523 14 15 14H3C2.44772 14 2 13.5523 2 13V1Z" fill="#B2B8BF"/>
<path d="M7 5.5C7 4.94772 6.55228 4.5 6 4.5C5.44772 4.5 5 4.94772 5 5.5V11C5 11.5523 5.44772 12 6 12C6.55228 12 7 11.5523 7 11V5.5Z" fill="#B2B8BF"/>
<path d="M10 1C10.5523 1 11 1.44772 11 2V11C11 11.5523 10.5523 12 10 12C9.44771 12 9 11.5523 9 11V2C9 1.44772 9.44771 1 10 1Z" fill="#B2B8BF"/>
<path d="M15 7.5C15 6.94772 14.5523 6.5 14 6.5C13.4477 6.5 13 6.94772 13 7.5V11C13 11.5523 13.4477 12 14 12C14.5523 12 15 11.5523 15 11V7.5Z" fill="#B2B8BF"/>
</svg>
