<svg width="64" height="64" viewBox="0 0 64 64" fill="none" xmlns="http://www.w3.org/2000/svg">
<path fill-rule="evenodd" clip-rule="evenodd" d="M64 32C64 49.6731 49.6731 64 32 64C14.3269 64 0 49.6731 0 32C0 14.3269 14.3269 0 32 0C49.6731 0 64 14.3269 64 32ZM29.287 16.469C28.5012 15.8069 27.3257 15.8458 26.5858 16.5858L26.469 16.713C25.8069 17.4988 25.8458 18.6743 26.5858 19.4142L39.171 32L26.5858 44.5858L26.469 44.713C25.8069 45.4988 25.8458 46.6743 26.5858 47.4142C27.3668 48.1953 28.6332 48.1953 29.4142 47.4142L43.4142 33.4142L43.531 33.287C44.1931 32.5012 44.1542 31.3257 43.4142 30.5858L29.4142 16.5858L29.287 16.469Z" fill="#B2B8BF"/>
</svg>
