<svg width="24" height="24" viewBox="0 0 24 24" fill="none" xmlns="http://www.w3.org/2000/svg">
<path fill-rule="evenodd" clip-rule="evenodd" d="M4.85547 7.23047C4.85547 4.54887 7.02934 2.375 9.71094 2.375C12.3925 2.375 14.5664 4.54887 14.5664 7.23047C14.5664 9.91207 12.3925 12.0859 9.71094 12.0859C7.02934 12.0859 4.85547 9.91207 4.85547 7.23047ZM9.71094 4.375C8.13391 4.375 6.85547 5.65344 6.85547 7.23047C6.85547 8.8075 8.13391 10.0859 9.71094 10.0859C11.288 10.0859 12.5664 8.8075 12.5664 7.23047C12.5664 5.65344 11.288 4.375 9.71094 4.375Z" fill="#D0D7DD"/>
<path fill-rule="evenodd" clip-rule="evenodd" d="M2.98149 22H16.4404C17.3036 22 18.1106 21.409 18.2811 20.5058C18.3744 20.0137 18.4219 19.5158 18.4219 19.0256C18.4219 16.5843 17.2974 14.2853 15.3657 12.7127L15.3647 12.7119C14.6644 12.1433 13.6425 12.1477 12.9479 12.7279C12.0418 13.4848 10.8688 13.9082 9.64436 13.9082C8.44353 13.9082 7.28755 13.4994 6.38945 12.768L6.38757 12.7664C5.68653 12.1983 4.66702 12.2034 3.97205 12.782L3.9706 12.7832C2.09276 14.3526 1 16.625 1 19.0256C1 19.5166 1.04818 20.0141 1.14055 20.5046C1.31109 21.4066 2.11643 22 2.98149 22ZM9.64436 15.9082C11.2981 15.9082 12.9013 15.3466 14.166 14.3157C15.6105 15.5212 16.4219 17.2355 16.4219 19.0256C16.4219 19.3445 16.3946 19.6721 16.3399 20H3.08218C3.02754 19.671 3 19.3436 3 19.0256C3 17.2664 3.78869 15.5721 5.19085 14.3705C6.44447 15.3668 8.02282 15.9082 9.64436 15.9082Z" fill="#D0D7DD"/>
<path d="M20.32 13.1989C19.9229 12.8151 19.2898 12.8259 18.906 13.223C18.5221 13.6201 18.5329 14.2532 18.93 14.637C20.1496 15.8158 20.8281 17.3881 20.8281 19.0256C20.8281 19.3877 20.793 19.7608 20.7224 20.1331C20.6194 20.6757 20.9759 21.199 21.5185 21.3019C22.0611 21.4049 22.5844 21.0484 22.6873 20.5058C22.7807 20.0137 22.8281 19.5158 22.8281 19.0256C22.8281 16.8262 21.915 14.7406 20.32 13.1989Z" fill="#D0D7DD"/>
<path d="M16.462 2.42378C15.9153 2.34558 15.4087 2.72538 15.3305 3.2721C15.2523 3.81882 15.6321 4.32542 16.1788 4.40363C17.5617 4.60143 18.6251 5.79245 18.6251 7.23013C18.6251 8.36771 17.96 9.35192 16.9929 9.81131C16.4941 10.0483 16.2818 10.6448 16.5187 11.1437C16.7557 11.6425 17.3522 11.8548 17.8511 11.6178C19.4892 10.8397 20.6251 9.16854 20.6251 7.23013C20.6251 4.78317 18.816 2.76049 16.462 2.42378Z" fill="#D0D7DD"/>
</svg>
