<svg width="16" height="16" viewBox="0 0 16 16" fill="none" xmlns="http://www.w3.org/2000/svg">
<path d="M2 1C2 0.447715 1.55228 0 1 0C0.447715 0 0 0.447715 0 1V13C0 14.6569 1.34315 16 3 16H15C15.5523 16 16 15.5523 16 15C16 14.4477 15.5523 14 15 14H3C2.44772 14 2 13.5523 2 13V1Z" fill="#565B62"/>
<path d="M15.7808 4.62473C16.1259 4.19349 16.056 3.56419 15.6247 3.21916C15.1935 2.87413 14.5642 2.94402 14.2192 3.37527L11.2058 7.14159L9.01224 5.59997C8.17426 5.01105 7.02678 5.15037 6.35409 5.92273L4.24592 8.34322C3.88319 8.75969 3.92675 9.39135 4.34322 9.75408C4.75969 10.1168 5.39135 10.0732 5.75408 9.65678L7.86225 7.23629L10.0558 8.77791C10.92 9.38527 12.1076 9.21585 12.7675 8.39105L15.7808 4.62473Z" fill="#565B62"/>
</svg>
