<svg width="24" height="24" viewBox="0 0 24 24" fill="none" xmlns="http://www.w3.org/2000/svg">
<path fill-rule="evenodd" clip-rule="evenodd" d="M8.5 8C8.5 7.44772 8.05228 7 7.5 7C6.94772 7 6.5 7.44772 6.5 8H4.001C3.4483 8 3 8.44803 3 9.001V13.4987C3 14.0509 3.44772 14.4987 4 14.4987C4.55184 14.4987 4.99927 14.0517 5 13.5H6.5V15C6.5 15.5523 6.94772 16 7.5 16C8.05228 16 8.5 15.5523 8.5 15V13.5H10C10.0007 14.0517 10.4482 14.4987 11 14.4987C11.5523 14.4987 12 14.0509 12 13.4987V9.001C12 8.44802 11.5517 8 10.999 8H8.5ZM10 11.5V10H8.5V11.5H10ZM6.5 11.5V10H5V11.5H6.5Z" fill="#565B62"/>
<path fill-rule="evenodd" clip-rule="evenodd" d="M17 7C17.5523 7 18 7.44772 18 8H20C20.5523 8 21 8.44772 21 9C21 9.55228 20.5523 10 20 10H19.9657C19.879 10.7699 19.6264 11.6578 19.0752 12.5413C18.9215 12.7875 18.7465 13.0304 18.5483 13.268C19.037 13.5532 19.6202 13.8193 20.3163 14.0514C20.8403 14.226 21.1234 14.7923 20.9488 15.3163C20.7741 15.8402 20.2078 16.1234 19.6839 15.9487C18.6155 15.5926 17.7304 15.1521 17.0023 14.6558C16.2736 15.1535 15.3873 15.5957 14.3171 15.9536C13.7934 16.1288 13.2268 15.8463 13.0516 15.3225C12.8764 14.7988 13.1589 14.2322 13.6827 14.057C14.3809 13.8234 14.9656 13.5558 15.4552 13.2693C15.2554 13.0302 15.0792 12.7857 14.9246 12.5377C14.3746 11.6558 14.122 10.7691 14.0349 10H14C13.4477 10 13 9.55228 13 9C13 8.44772 13.4477 8 14 8H16C16 7.44772 16.4477 7 17 7ZM16.0542 10H17.9466C17.8687 10.4551 17.6995 10.9679 17.3784 11.4825C17.2724 11.6525 17.1477 11.8259 17.0012 12C16.8537 11.8249 16.7283 11.6504 16.6217 11.4795C16.3016 10.9662 16.1324 10.4545 16.0542 10Z" fill="#565B62"/>
<path fill-rule="evenodd" clip-rule="evenodd" d="M4 2H20C22.2091 2 24 3.79086 24 6V17C24 19.2091 22.2091 21 20 21H4C1.79086 21 0 19.2091 0 17V6C0 3.79086 1.79086 2 4 2ZM4 4C2.89543 4 2 4.89543 2 6V17C2 18.1046 2.89543 19 4 19H20C21.1046 19 22 18.1046 22 17V6C22 4.89543 21.1046 4 20 4H4Z" fill="#565B62"/>
</svg>
