<svg width="20" height="20" viewBox="0 0 20 20" fill="none" xmlns="http://www.w3.org/2000/svg">
<path d="M4 3C4 2.44772 3.55228 2 3 2C2.44772 2 2 2.44772 2 3V15C2 16.6569 3.34315 18 5 18H17C17.5523 18 18 17.5523 18 17C18 16.4477 17.5523 16 17 16H5C4.44772 16 4 15.5523 4 15V3Z" fill="#D0D7DD"/>
<path d="M17.7808 6.62473C18.1259 6.19349 18.056 5.56419 17.6247 5.21916C17.1935 4.87413 16.5642 4.94402 16.2192 5.37527L13.2058 9.14159L11.0122 7.59997C10.1743 7.01105 9.02678 7.15037 8.35409 7.92273L6.24592 10.3432C5.88319 10.7597 5.92675 11.3914 6.34322 11.7541C6.75969 12.1168 7.39135 12.0732 7.75408 11.6568L9.86225 9.23629L12.0558 10.7779C12.92 11.3853 14.1076 11.2159 14.7675 10.3911L17.7808 6.62473Z" fill="#D0D7DD"/>
</svg>
