<svg width="32" height="32" viewBox="0 0 32 32" fill="none" xmlns="http://www.w3.org/2000/svg">
<path fill-rule="evenodd" clip-rule="evenodd" d="M19.8102 4.59001C21.3902 5.10001 21.6402 5.43001 20.1302 5.02001C18.7802 4.65001 15.8002 4.69001 14.2102 5.11001C10.2102 6.15001 6.92022 9.64001 6.87022 12.89C6.86022 13.82 6.97022 14.19 7.49022 14.93C8.45022 16.3 9.29022 16.67 11.2202 16.57C12.5502 16.5 13.1202 16.35 14.4402 15.69C16.4602 14.68 19.2802 12.42 20.1402 11.11C20.7202 10.22 21.0302 8.89001 20.6602 8.89001C20.4102 8.89001 17.7402 10.44 16.1902 11.49L14.6702 12.52L13.2602 10.81L11.8402 9.10001L13.2802 8.17001C16.7802 5.90001 20.7602 5.18001 23.0902 6.40001C24.0202 6.88001 25.8502 8.99001 26.5402 10.38C27.6102 12.51 28.3302 16.1 27.8402 16.84C27.6602 17.1 27.6202 17.08 27.6202 16.69C27.6102 15.92 26.8002 13.95 26.0802 12.94L25.4102 12.01L25.0702 13.4C24.5202 15.65 23.8302 16.8 21.8402 18.81C20.2502 20.42 19.7102 20.81 17.7902 21.74C15.1402 23.03 13.3202 23.51 10.9502 23.53C7.71022 23.57 6.09022 22.7 4.84022 20.22C4.20022 18.96 4.10022 18.55 4.01022 16.69C3.82022 12.59 5.43022 8.93001 8.45022 6.61001C10.2202 5.25001 11.3702 4.73001 14.0802 4.08001C15.0602 3.84001 18.4002 4.14001 19.8102 4.59001ZM27.0602 20.52C25.7602 23.86 22.4702 26.76 18.9402 27.69C17.3702 28.1 14.4102 28.1 12.8102 27.68C11.1602 27.25 9.25022 26.2 8.03022 25.07L7.05022 24.15L8.22022 24.77C10.4402 25.94 12.3302 26.4 15.0402 26.4C17.1702 26.4 17.7402 26.32 19.3802 25.77C22.3902 24.78 25.5402 22.38 26.9102 20.06C27.4202 19.18 27.4902 19.4 27.0602 20.52Z" fill="#107F8C"/>
</svg>
