<svg width="20" height="20" viewBox="0 0 20 20" fill="none" xmlns="http://www.w3.org/2000/svg">
<path fill-rule="evenodd" clip-rule="evenodd" d="M5 2C5 1.85 5.01 1.71 5.04 1.58C5.07 1.45 5.1 1.33 5.15 1.22C5.2 1.1 5.26 0.99 5.33 0.89C5.4 0.78 5.49 0.68 5.58 0.58C5.68 0.49 5.78 0.4 5.89 0.33C5.99 0.26 6.1 0.2 6.22 0.15C6.33 0.1 6.45 0.07 6.58 0.04C6.71 0.01 6.85 0 7 0H13C13.14 0 13.28 0.01 13.41 0.04C13.54 0.07 13.66 0.1 13.77 0.15C13.89 0.2 14 0.26 14.1 0.33C14.21 0.4 14.31 0.49 14.41 0.58C14.5 0.68 14.59 0.78 14.66 0.89C14.73 0.99 14.79 1.1 14.84 1.22C14.89 1.33 14.92 1.45 14.95 1.58C14.98 1.71 15 1.85 15 2H5ZM3.04 5.58C3.01 5.71 3 5.85 3 6H17C17 5.85 16.98 5.71 16.95 5.58C16.92 5.45 16.89 5.33 16.84 5.22C16.79 5.1 16.73 4.99 16.66 4.89C16.59 4.78 16.5 4.68 16.41 4.58C16.31 4.49 16.21 4.4 16.1 4.33C16 4.26 15.89 4.2 15.77 4.15C15.53 4.05 15.27 4 15 4H5C4.85 4 4.71 4.01 4.58 4.04C4.45 4.07 4.33 4.1 4.22 4.15C4.1 4.2 3.99 4.26 3.89 4.33C3.78 4.4 3.68 4.49 3.58 4.58C3.49 4.68 3.4 4.78 3.33 4.89C3.26 4.99 3.2 5.1 3.15 5.22C3.1 5.33 3.07 5.45 3.04 5.58ZM16 8C16.21 8 16.43 8.02 16.63 8.06C16.81 8.1 16.99 8.16 17.16 8.23C17.34 8.3 17.5 8.39 17.65 8.49C17.82 8.6 17.97 8.73 18.12 8.87C18.26 9.02 18.39 9.17 18.5 9.34C18.6 9.49 18.69 9.65 18.76 9.83C18.83 10 18.89 10.18 18.93 10.36C18.97 10.56 19 10.78 19 11V17C19 17.21 18.97 17.43 18.93 17.63C18.89 17.81 18.83 17.99 18.76 18.16C18.69 18.34 18.6 18.5 18.5 18.65C18.39 18.82 18.26 18.97 18.12 19.12C17.97 19.26 17.82 19.39 17.65 19.5C17.5 19.6 17.34 19.69 17.16 19.76C16.99 19.83 16.81 19.89 16.63 19.93C16.43 19.97 16.21 20 16 20H4C3.78 20 3.56 19.97 3.36 19.93C3.18 19.89 3 19.83 2.83 19.76C2.65 19.69 2.49 19.6 2.34 19.5C2.17 19.39 2.02 19.26 1.87 19.12C1.73 18.97 1.6 18.82 1.49 18.65C1.39 18.5 1.3 18.34 1.23 18.16C1.16 17.99 1.1 17.81 1.06 17.63C1.02 17.43 1 17.21 1 17V11C1 10.78 1.02 10.56 1.06 10.36C1.1 10.18 1.16 10 1.23 9.83C1.3 9.65 1.39 9.49 1.49 9.34C1.6 9.17 1.73 9.02 1.87 8.87C2.02 8.73 2.17 8.6 2.34 8.49C2.49 8.39 2.65 8.3 2.83 8.23C3 8.16 3.18 8.1 3.36 8.06C3.56 8.02 3.78 8 4 8H16ZM16 10H4C3.91 10 3.83 10 3.75 10.02C3.7 10.04 3.65 10.05 3.61 10.07C3.55 10.1 3.5 10.12 3.46 10.15C3.4 10.19 3.34 10.24 3.29 10.29C3.24 10.34 3.19 10.4 3.15 10.46C3.12 10.5 3.1 10.55 3.07 10.61C3.05 10.65 3.04 10.7 3.02 10.75C3 10.83 3 10.91 3 11V17C3 17.08 3 17.16 3.02 17.24C3.04 17.29 3.05 17.34 3.07 17.38C3.1 17.44 3.12 17.49 3.15 17.53C3.19 17.59 3.24 17.65 3.29 17.7C3.34 17.75 3.4 17.8 3.46 17.84C3.5 17.87 3.55 17.89 3.61 17.92C3.65 17.94 3.7 17.95 3.75 17.97C3.83 17.99 3.91 18 4 18H16C16.08 18 16.16 17.99 16.24 17.97C16.29 17.95 16.34 17.94 16.38 17.92C16.44 17.89 16.49 17.87 16.53 17.84C16.59 17.8 16.65 17.75 16.7 17.7C16.75 17.65 16.8 17.59 16.84 17.53C16.87 17.49 16.89 17.44 16.92 17.38C16.94 17.34 16.95 17.29 16.97 17.24C16.99 17.16 17 17.08 17 17V11C17 10.91 16.99 10.83 16.97 10.75C16.95 10.7 16.94 10.65 16.92 10.61C16.89 10.55 16.87 10.5 16.84 10.46C16.8 10.4 16.75 10.34 16.7 10.29C16.65 10.24 16.59 10.19 16.53 10.15C16.49 10.12 16.44 10.1 16.38 10.07C16.34 10.05 16.29 10.04 16.24 10.02C16.16 10 16.08 10 16 10Z" fill="#B2B8BF"/>
</svg>
