<svg width="16" height="16" viewBox="0 0 16 16" fill="none" xmlns="http://www.w3.org/2000/svg">
<path fill-rule="evenodd" clip-rule="evenodd" d="M8.53091 0.0020879C7.97983 -0.0332733 7.5044 0.384742 7.46893 0.935813L7.01895 7.92803C6.99602 8.2844 7.16486 8.62595 7.46193 8.82413C7.759 9.02231 8.1392 9.04703 8.45944 8.889L14.75 5.78456C14.988 5.6671 15.1695 5.45983 15.2546 5.20843C15.3397 4.95702 15.3214 4.6821 15.2037 4.44422C14.5797 3.18365 13.6345 2.10955 12.4631 1.32982C11.2917 0.550107 9.93554 0.0922192 8.53091 0.0020879ZM9.12594 6.32978L9.39523 2.14534C10.0914 2.3089 10.7554 2.59569 11.3549 2.9947C11.9534 3.39314 12.4732 3.8939 12.8917 4.47134L9.12594 6.32978Z" fill="#7D838A"/>
<path d="M5.0079 2.79067C5.48636 2.51483 5.65063 1.90334 5.37479 1.42487C5.09895 0.946405 4.48746 0.782143 4.00899 1.05798C2.82114 1.74279 1.82894 2.72058 1.12745 3.89796C0.425955 5.07535 0.0386691 6.41289 0.00274875 7.78262C-0.0331717 9.15236 0.283479 10.5083 0.922322 11.7208C1.56116 12.9333 2.50077 13.9616 3.65114 14.7075C4.80149 15.4535 6.12417 15.8922 7.49265 15.9818C8.86113 16.0713 10.2298 15.8088 11.4677 15.2192C12.7057 14.6296 13.7716 13.7326 14.5634 12.6138C15.3552 11.4951 15.8464 10.192 15.9898 8.82933C16.0477 8.28008 15.6493 7.78795 15.1 7.73014C14.5508 7.67233 14.0586 8.07072 14.0008 8.61997C13.8933 9.64181 13.5249 10.6191 12.9309 11.4584C12.3369 12.2977 11.537 12.9709 10.6077 13.4135C9.67842 13.8561 8.65082 14.0533 7.62327 13.986C6.59572 13.9188 5.60273 13.5894 4.7393 13.0295C3.87587 12.4696 3.17092 11.6979 2.69174 10.7885C2.21256 9.87906 1.97513 8.86216 2.00206 7.83505C2.029 6.80795 2.3194 5.80483 2.84561 4.92165C3.37182 4.03846 4.11627 3.30469 5.0079 2.79067Z" fill="#7D838A"/>
</svg>
