<svg width="32" height="32" viewBox="0 0 32 32" fill="none" xmlns="http://www.w3.org/2000/svg">
<path d="M8 12.5C8 11.6716 8.67157 11 9.5 11H14C14.5523 11 15 11.4477 15 12C15 12.5523 14.5523 13 14 13H10V14.5H12C12.5523 14.5 13 14.9477 13 15.5C13 16.0523 12.5523 16.5 12 16.5H10V18H14C14.5523 18 15 18.4477 15 19C15 19.5523 14.5523 20 14 20H9.5C8.67157 20 8 19.3284 8 18.5V12.5Z" fill="#D0D7DD"/>
<path d="M23 11C23.5523 11 24 11.4477 24 12V18.8648C24 19.8397 22.7872 20.2883 22.1528 19.5482L18 14.7033V19C18 19.5523 17.5523 20 17 20C16.4477 20 16 19.5523 16 19V12.1352C16 11.1603 17.2128 10.7117 17.8472 11.4518L22 16.2967V12C22 11.4477 22.4477 11 23 11Z" fill="#D0D7DD"/>
<path fill-rule="evenodd" clip-rule="evenodd" d="M6 5C4.34315 5 3 6.34315 3 8V23C3 24.6569 4.34315 26 6 26H26C27.6569 26 29 24.6569 29 23V8C29 6.34315 27.6569 5 26 5H6ZM5 8C5 7.44772 5.44772 7 6 7H26C26.5523 7 27 7.44771 27 8V23C27 23.5523 26.5523 24 26 24H6C5.44772 24 5 23.5523 5 23V8Z" fill="#D0D7DD"/>
</svg>
