<svg width="20" height="20" viewBox="0 0 20 20" fill="none" xmlns="http://www.w3.org/2000/svg">
<path d="M3 5C3.55228 5 4 4.55228 4 4C4 3.44772 3.55228 3 3 3C2.44772 3 2 3.44772 2 4C2 4.55228 2.44772 5 3 5Z" fill="#B2B8BF"/>
<path d="M7.00439 3C6.45211 3 6.00439 3.44772 6.00439 4C6.00439 4.55228 6.45211 5 7.00439 5H16.9952C17.5475 5 17.9952 4.55228 17.9952 4C17.9952 3.44772 17.5475 3 16.9952 3H7.00439Z" fill="#B2B8BF"/>
<path d="M7.00439 9C6.45211 9 6.00439 9.44772 6.00439 10C6.00439 10.5523 6.45211 11 7.00439 11H16.9952C17.5475 11 17.9952 10.5523 17.9952 10C17.9952 9.44772 17.5475 9 16.9952 9H7.00439Z" fill="#B2B8BF"/>
<path d="M6.00439 16C6.00439 15.4477 6.45211 15 7.00439 15H16.9952C17.5475 15 17.9952 15.4477 17.9952 16C17.9952 16.5523 17.5475 17 16.9952 17H7.00439C6.45211 17 6.00439 16.5523 6.00439 16Z" fill="#B2B8BF"/>
<path d="M4 10C4 10.5523 3.55228 11 3 11C2.44772 11 2 10.5523 2 10C2 9.44772 2.44772 9 3 9C3.55228 9 4 9.44772 4 10Z" fill="#B2B8BF"/>
<path d="M3 17C3.55228 17 4 16.5523 4 16C4 15.4477 3.55228 15 3 15C2.44772 15 2 15.4477 2 16C2 16.5523 2.44772 17 3 17Z" fill="#B2B8BF"/>
</svg>
