<svg width="32" height="32" viewBox="0 0 32 32" fill="none" xmlns="http://www.w3.org/2000/svg">
<path fill-rule="evenodd" clip-rule="evenodd" d="M20.767 24.1344C21.2451 23.8578 21.8568 24.0212 22.1334 24.4993C22.3078 24.8008 22.6313 25 23.0002 25C23.3691 25 23.6926 24.8008 23.867 24.4993C24.1436 24.0212 24.7553 23.8578 25.2333 24.1344C25.7114 24.4109 25.8748 25.0226 25.5982 25.5007C25.081 26.3948 24.1119 27 23.0002 27C21.8885 27 20.9193 26.3948 20.4021 25.5007C20.1256 25.0226 20.289 24.4109 20.767 24.1344Z" fill="#D0D7DD"/>
<path fill-rule="evenodd" clip-rule="evenodd" d="M0 8C0 6.89543 0.895431 6 2 6H19C19.5523 6 20 6.44772 20 7C20 7.30327 19.865 7.575 19.6518 7.75839L11.3285 15.1569C10.5708 15.8304 9.42886 15.8304 8.67109 15.1569L2 9.22701V19H12C12.5523 19 13 19.4477 13 20C13 20.5523 12.5523 21 12 21H2C0.89543 21 0 20.1046 0 19V8ZM3.63001 8L9.99981 13.662L16.3696 8H3.63001Z" fill="#D0D7DD"/>
<path fill-rule="evenodd" clip-rule="evenodd" d="M24 8C24 7.44772 23.5523 7 23 7C22.4477 7 22 7.44772 22 8V9.07089C18.6077 9.55612 16 12.4735 16 16V19.5858C16 20.0968 15.838 20.5911 15.5424 21H15C14.4477 21 14 21.4477 14 22C14 22.5523 14.4477 23 15 23H31C31.5523 23 32 22.5523 32 22C32 21.4477 31.5523 21 31 21H30.4576C30.162 20.5911 30 20.0968 30 19.5858V16C30 12.4735 27.3923 9.55612 24 9.07089V8ZM28 19.5858C28 20.0713 28.08 20.5486 28.2327 21H17.7673C17.92 20.5486 18 20.0713 18 19.5858V16C18 13.2386 20.2386 11 23 11C25.7614 11 28 13.2386 28 16V19.5858Z" fill="#D0D7DD"/>
</svg>
