<svg width="24" height="24" viewBox="0 0 24 24" fill="none" xmlns="http://www.w3.org/2000/svg">
<path fill-rule="evenodd" clip-rule="evenodd" d="M6 3C6 2.85 6.01 2.71 6.04 2.58C6.06 2.45 6.1 2.33 6.15 2.22C6.2 2.1 6.26 1.99 6.33 1.89C6.4 1.78 6.49 1.68 6.58 1.58C6.68 1.49 6.78 1.4 6.89 1.33C6.99 1.26 7.1 1.2 7.22 1.15C7.33 1.1 7.45 1.06 7.58 1.04C7.71 1.01 7.85 1 8 1H16C16.14 1 16.28 1.01 16.41 1.04C16.54 1.06 16.66 1.1 16.77 1.15C16.89 1.2 17 1.26 17.1 1.33C17.21 1.4 17.31 1.49 17.41 1.58C17.5 1.68 17.59 1.78 17.66 1.89C17.73 1.99 17.79 2.1 17.84 2.22C17.89 2.33 17.93 2.45 17.95 2.58C17.98 2.71 18 2.85 18 3H6ZM4.04 6.58C4.01 6.71 4 6.85 4 7H20C20 6.85 19.98 6.71 19.95 6.58C19.93 6.45 19.89 6.33 19.84 6.22C19.79 6.1 19.73 5.99 19.66 5.89C19.59 5.78 19.5 5.68 19.41 5.58C19.31 5.49 19.21 5.4 19.1 5.33C19 5.26 18.89 5.2 18.77 5.15C18.53 5.05 18.27 5 18 5H6C5.85 5 5.71 5.01 5.58 5.04C5.45 5.06 5.33 5.1 5.22 5.15C5.1 5.2 4.99 5.26 4.89 5.33C4.78 5.4 4.68 5.49 4.58 5.58C4.49 5.68 4.4 5.78 4.33 5.89C4.26 5.99 4.2 6.1 4.15 6.22C4.1 6.33 4.06 6.45 4.04 6.58ZM19 9C19.21 9 19.43 9.02 19.63 9.06C19.81 9.1 19.99 9.16 20.16 9.23C20.34 9.3 20.5 9.39 20.65 9.49C20.82 9.6 20.97 9.73 21.12 9.87C21.26 10.02 21.39 10.17 21.5 10.34C21.6 10.49 21.69 10.65 21.76 10.83C21.83 11 21.89 11.18 21.93 11.36C21.97 11.56 22 11.78 22 12V19C22 19.21 21.97 19.43 21.93 19.63C21.89 19.81 21.83 19.99 21.76 20.16C21.69 20.34 21.6 20.5 21.5 20.65C21.39 20.82 21.26 20.97 21.12 21.12C20.97 21.26 20.82 21.39 20.65 21.5C20.5 21.6 20.34 21.69 20.16 21.76C19.99 21.83 19.81 21.89 19.63 21.93C19.43 21.97 19.21 22 19 22H5C4.78 22 4.56 21.97 4.36 21.93C4.18 21.89 4 21.83 3.83 21.76C3.65 21.69 3.49 21.6 3.34 21.5C3.17 21.39 3.02 21.26 2.87 21.12C2.73 20.97 2.6 20.82 2.49 20.65C2.39 20.5 2.3 20.34 2.23 20.16C2.16 19.99 2.1 19.81 2.06 19.63C2.02 19.43 2 19.21 2 19V12C2 11.78 2.02 11.56 2.06 11.36C2.1 11.18 2.16 11 2.23 10.83C2.3 10.65 2.39 10.49 2.49 10.34C2.6 10.17 2.73 10.02 2.87 9.87C3.02 9.73 3.17 9.6 3.34 9.49C3.49 9.39 3.65 9.3 3.83 9.23C4 9.16 4.18 9.1 4.36 9.06C4.56 9.02 4.78 9 5 9H19ZM19 11H5C4.91 11 4.83 11 4.75 11.02C4.7 11.04 4.65 11.05 4.61 11.07C4.55 11.1 4.5 11.12 4.46 11.15C4.4 11.19 4.34 11.24 4.29 11.29C4.24 11.34 4.19 11.4 4.15 11.46C4.12 11.5 4.1 11.55 4.07 11.61C4.05 11.65 4.04 11.7 4.02 11.75C4 11.83 4 11.91 4 12V19C4 19.08 4 19.16 4.02 19.24C4.04 19.29 4.05 19.34 4.07 19.38C4.1 19.44 4.12 19.49 4.15 19.53C4.19 19.59 4.24 19.65 4.29 19.7C4.34 19.75 4.4 19.8 4.46 19.84C4.5 19.87 4.55 19.89 4.61 19.92C4.65 19.94 4.7 19.95 4.75 19.97C4.83 19.99 4.91 20 5 20H19C19.08 20 19.16 19.99 19.24 19.97C19.29 19.95 19.34 19.94 19.38 19.92C19.44 19.89 19.49 19.87 19.53 19.84C19.59 19.8 19.65 19.75 19.7 19.7C19.75 19.65 19.8 19.59 19.84 19.53C19.87 19.49 19.89 19.44 19.92 19.38C19.94 19.34 19.95 19.29 19.97 19.24C19.99 19.16 20 19.08 20 19V12C20 11.91 19.99 11.83 19.97 11.75C19.95 11.7 19.94 11.65 19.92 11.61C19.89 11.55 19.87 11.5 19.84 11.46C19.8 11.4 19.75 11.34 19.7 11.29C19.65 11.24 19.59 11.19 19.53 11.15C19.49 11.12 19.44 11.1 19.38 11.07C19.34 11.05 19.29 11.04 19.24 11.02C19.16 11 19.08 11 19 11Z" fill="#565B62"/>
</svg>
