<svg width="32" height="32" viewBox="0 0 32 32" fill="none" xmlns="http://www.w3.org/2000/svg">
<path fill-rule="evenodd" clip-rule="evenodd" d="M28 9C29.6569 9 31 7.65685 31 6C31 4.34315 29.6569 3 28 3C26.3431 3 25 4.34315 25 6C25 7.65685 26.3431 9 28 9Z" fill="#FF9900"/>
<path d="M23 6H7C5.34315 6 4 7.34315 4 9V20C4 21.6569 5.34315 23 7 23H21.1716C21.4368 23 21.6911 23.1054 21.8787 23.2929L25.4393 26.8536C26.3843 27.7985 28 27.1292 28 25.7929V11C27.2889 11 26.6125 10.8516 26 10.584V24.5858L23.2929 21.8787C22.7303 21.3161 21.9672 21 21.1716 21H7C6.44772 21 6 20.5523 6 20V9C6 8.44772 6.44772 8 7 8H23.416C23.1484 7.38754 23 6.7111 23 6Z" fill="#107F8C"/>
<path d="M9 12C9 11.4477 9.44772 11 10 11H22C22.5523 11 23 11.4477 23 12C23 12.5523 22.5523 13 22 13H10C9.44772 13 9 12.5523 9 12Z" fill="#107F8C"/>
<path d="M10 16C9.44772 16 9 16.4477 9 17C9 17.5523 9.44772 18 10 18H17C17.5523 18 18 17.5523 18 17C18 16.4477 17.5523 16 17 16H10Z" fill="#107F8C"/>
</svg>
