<svg width="32" height="32" viewBox="0 0 32 32" fill="none" xmlns="http://www.w3.org/2000/svg">
<path fill-rule="evenodd" clip-rule="evenodd" d="M5.00366 15.7119C5.15698 9.78003 10.0317 5 16 5C22.0645 5 27 9.9353 27 15.9998C27 22.0647 22.0645 27 16 27C9.93555 27 5 22.0647 5 15.9998C5 15.9036 5.00122 15.8076 5.00366 15.7119ZM3.00146 15.7976C3.00049 15.865 3 15.9326 3 16.0002C3 22.4426 7.6853 27.7888 13.8345 28.8206C13.8484 28.823 13.8625 28.825 13.8762 28.8267C14.5676 28.9407 15.2769 29 16 29C16.7231 29 17.4324 28.9407 18.1238 28.8267C18.1377 28.825 18.1516 28.823 18.1655 28.8206C23.6111 27.907 27.9067 23.6113 28.8203 18.1658C28.8223 18.1536 28.8242 18.1411 28.8257 18.1289C28.9404 17.436 29 16.7249 29 15.9998C29 15.2737 28.9402 14.5613 28.8252 13.8672C28.8237 13.8564 28.822 13.8457 28.8203 13.8347C27.9067 8.38916 23.6111 4.09351 18.1655 3.17993C18.1567 3.17847 18.1482 3.17725 18.1396 3.17603C17.4434 3.0603 16.7285 3 16 3C15.2715 3 14.5566 3.0603 13.8606 3.17603C13.8518 3.17725 13.8433 3.17847 13.8345 3.17993C7.75 4.20068 3.09863 9.4458 3.00146 15.7976ZM16 11.0002C14.8955 11.0002 14 11.8955 14 13.0002C14 13.5525 13.5522 14.0002 13 14.0002C12.4478 14.0002 12 13.5525 12 13.0002C12 10.791 13.7908 9.00024 16 9.00024C18.2092 9.00024 20 10.791 20 13.0002C20 14.864 18.7253 16.4302 17 16.874V18.0002C17 18.5525 16.5522 19.0002 16 19.0002C15.4478 19.0002 15 18.5525 15 18.0002V16.0002C15 15.4478 15.4478 15.0002 16 15.0002C17.1045 15.0002 18 14.1047 18 13.0002C18 11.8955 17.1045 11.0002 16 11.0002ZM17 22.0002C17 22.5525 16.5522 23.0002 16 23.0002C15.4478 23.0002 15 22.5525 15 22.0002C15 21.4478 15.4478 21.0002 16 21.0002C16.5522 21.0002 17 21.4478 17 22.0002Z" fill="#21A19A"/>
</svg>
