<svg width="24" height="24" viewBox="0 0 24 24" fill="none" xmlns="http://www.w3.org/2000/svg">
<path d="M4 8.5C4 7.67157 4.67157 7 5.5 7H10C10.5523 7 11 7.44772 11 8C11 8.55228 10.5523 9 10 9H6V10.5H8C8.55228 10.5 9 10.9477 9 11.5C9 12.0523 8.55228 12.5 8 12.5H6V14H10C10.5523 14 11 14.4477 11 15C11 15.5523 10.5523 16 10 16H5.5C4.67157 16 4 15.3284 4 14.5V8.5Z" fill="#D0D7DD"/>
<path d="M19 7C19.5523 7 20 7.44772 20 8V14.8648C20 15.8397 18.7872 16.2883 18.1528 15.5482L14 10.7033V15C14 15.5523 13.5523 16 13 16C12.4477 16 12 15.5523 12 15V8.13516C12 7.16034 13.2128 6.71169 13.8472 7.45183L18 12.2967V8C18 7.44772 18.4477 7 19 7Z" fill="#D0D7DD"/>
<path fill-rule="evenodd" clip-rule="evenodd" d="M20 2H4C1.79086 2 0 3.79086 0 6V17C0 19.2091 1.79086 21 4 21H20C22.2091 21 24 19.2091 24 17V6C24 3.79086 22.2091 2 20 2ZM2 6C2 4.89543 2.89543 4 4 4H20C21.1046 4 22 4.89543 22 6V17C22 18.1046 21.1046 19 20 19H4C2.89543 19 2 18.1046 2 17V6Z" fill="#D0D7DD"/>
</svg>
