<svg width="24" height="24" viewBox="0 0 24 24" fill="none" xmlns="http://www.w3.org/2000/svg">
<path fill-rule="evenodd" clip-rule="evenodd" d="M8.00202 3.4187C8.00202 2.86642 8.44973 2.4187 9.00202 2.4187H13.7189C15.5457 2.4187 16.9797 3.10925 17.9414 4.21C18.8857 5.29099 19.3171 6.70008 19.2993 8.06922C19.2814 9.43816 18.814 10.8362 17.8701 11.9061C16.9096 12.9946 15.4972 13.6937 13.7189 13.6937H9.98022V15.4417H14.6538C15.2061 15.4417 15.6538 15.8894 15.6538 16.4417C15.6538 16.9939 15.2061 17.4417 14.6538 17.4417H9.98022V21.1809C9.98022 21.7332 9.53251 22.1809 8.98022 22.1809C8.42794 22.1809 7.98022 21.7332 7.98022 21.1809V17.4417H6.23999C5.68771 17.4417 5.23999 16.9939 5.23999 16.4417C5.23999 15.8894 5.68771 15.4417 6.23999 15.4417H7.98022V13.6937H6.23999C5.68771 13.6937 5.23999 13.246 5.23999 12.6937C5.23999 12.1414 5.68771 11.6937 6.23999 11.6937H7.98022V3.6814C7.98022 3.60793 7.98815 3.53632 8.00318 3.46736C8.00241 3.45124 8.00202 3.43502 8.00202 3.4187ZM13.7189 11.6937H9.98022V4.4187H13.7189C15.0062 4.4187 15.8775 4.88752 16.4352 5.52583C17.0101 6.18389 17.3118 7.09355 17.2994 8.04315C17.2871 8.99295 16.9608 9.91365 16.3704 10.5829C15.7965 11.2333 14.9338 11.6937 13.7189 11.6937Z" fill="#21A19A"/>
</svg>
