<svg width="20" height="20" viewBox="0 0 20 20" fill="none" xmlns="http://www.w3.org/2000/svg">
<path fill-rule="evenodd" clip-rule="evenodd" d="M14 0C11.7877 0 10 1.78772 10 4V4.66C10 6.87228 11.7877 8.66 14 8.66H15.16C15.161 8.66 15.1619 8.6601 15.163 8.66036C15.1636 8.66051 15.1642 8.66071 15.1649 8.66098C15.1663 8.66155 15.1682 8.66254 15.1704 8.66432L16.6004 10.0645L16.6044 10.0684C17.8661 11.2901 20 10.3969 20 8.63V4C20 1.78555 18.2001 0 16 0H14ZM12 4C12 2.89228 12.8923 2 14 2H16C17.0999 2 18 2.89445 18 4V8.62624L17.9972 8.62755L17.9931 8.62906L16.5596 7.22549L16.5477 7.21405C16.1734 6.85938 15.6778 6.66 15.16 6.66H14C12.8923 6.66 12 5.76771 12 4.66V4Z" fill="#107F8C"/>
<path d="M2 8C2 6.34228 3.34228 5 5 5H7C7.55228 5 8 4.55228 8 4C8 3.44772 7.55228 3 7 3H5C2.23772 3 0 5.23772 0 8V11C0 13.0504 1.2331 14.8052 3 15.5786V18C3 18.3788 3.214 18.725 3.55279 18.8944C3.89157 19.0638 4.29698 19.0273 4.6 18.8L8.33333 16H11C12.2166 16 13.7019 15.6986 14.7022 14.712L14.712 14.7022C15.1358 14.2725 15.4745 13.8149 15.6973 13.2632C15.9192 12.7136 16 12.1352 16 11.5C16 10.9477 15.5523 10.5 15 10.5C14.4477 10.5 14 10.9477 14 11.5C14 11.9648 13.9408 12.2714 13.8427 12.5143C13.7461 12.7536 13.5861 12.9946 13.2933 13.2925C12.8325 13.7431 11.9802 14 11 14H8C7.78363 14 7.5731 14.0702 7.4 14.2L5 16V14.87C5 14.4147 4.6924 14.0168 4.25174 13.9022C2.94893 13.5633 2 12.3909 2 11V8Z" fill="#107F8C"/>
</svg>
