<svg width="32" height="32" viewBox="0 0 32 32" fill="none" xmlns="http://www.w3.org/2000/svg">
<path d="M9 12C9 11.4477 9.44772 11 10 11H22C22.5523 11 23 11.4477 23 12C23 12.5523 22.5523 13 22 13H10C9.44772 13 9 12.5523 9 12Z" fill="#107F8C"/>
<path d="M10 16C9.44772 16 9 16.4477 9 17C9 17.5523 9.44772 18 10 18H17C17.5523 18 18 17.5523 18 17C18 16.4477 17.5523 16 17 16H10Z" fill="#107F8C"/>
<path fill-rule="evenodd" clip-rule="evenodd" d="M4 9C4 7.34315 5.34315 6 7 6H25C26.6569 6 28 7.34315 28 9V25.7929C28 27.1292 26.3843 27.7985 25.4393 26.8536L21.8787 23.2929C21.6911 23.1054 21.4368 23 21.1716 23H7C5.34315 23 4 21.6569 4 20V9ZM7 8C6.44772 8 6 8.44772 6 9V20C6 20.5523 6.44772 21 7 21H21.1716C21.9672 21 22.7303 21.3161 23.2929 21.8787L26 24.5858V9C26 8.44771 25.5523 8 25 8H7Z" fill="#107F8C"/>
</svg>
