<svg width="24" height="24" viewBox="0 0 24 24" fill="none" xmlns="http://www.w3.org/2000/svg">
<path fill-rule="evenodd" clip-rule="evenodd" d="M2 6C0.89543 6 0 6.89543 0 8V16C0 17.1046 0.895431 18 2 18H8.94444C9.49673 18 9.94444 17.5523 9.94444 17C9.94444 16.4477 9.49673 16 8.94444 16H2V9.28393L6.1435 13.1087C6.90962 13.8159 8.0905 13.8159 8.85662 13.1087L14.6783 7.7348C14.8761 7.5521 15 7.29051 15 7C15 6.44772 14.5523 6 14 6H2ZM7.50006 11.6391L3.55771 8L11.4424 8L7.50006 11.6391Z" fill="#B2B8BF"/>
<path fill-rule="evenodd" clip-rule="evenodd" d="M17.5 7.5C18.0523 7.5 18.5 7.94772 18.5 8.5V9C18.5 9.03443 18.4983 9.06845 18.4949 9.10198C20.7002 9.56102 22.3571 11.5156 22.3571 13.8571V16.4072C22.3571 16.6152 22.4072 16.8182 22.5008 17H23C23.5523 17 24 17.4477 24 18C24 18.5523 23.5523 19 23 19H12C11.4477 19 11 18.5523 11 18C11 17.4477 11.4477 17 12 17H12.4992C12.5928 16.8182 12.6429 16.6152 12.6429 16.4072V13.8571C12.6429 11.5156 14.2998 9.56103 16.5051 9.10198C16.5017 9.06845 16.5 9.03443 16.5 9V8.5C16.5 7.94772 16.9477 7.5 17.5 7.5ZM20.4109 17C20.3754 16.8057 20.3571 16.6074 20.3571 16.4072V13.8571C20.3571 12.2792 19.078 11 17.5 11C15.922 11 14.6429 12.2792 14.6429 13.8571V16.4072C14.6429 16.6074 14.6246 16.8057 14.5891 17H20.4109Z" fill="#B2B8BF"/>
<path d="M16.9474 19.6055C16.4535 19.3586 15.8528 19.5588 15.6058 20.0528C15.3588 20.5467 15.559 21.1474 16.053 21.3944L16.1586 21.4472C17.0032 21.8695 17.9973 21.8695 18.8419 21.4472L18.9474 21.3944C19.4414 21.1474 19.6416 20.5467 19.3946 20.0528C19.1477 19.5588 18.547 19.3586 18.053 19.6055L17.9474 19.6583C17.6659 19.7991 17.3345 19.7991 17.053 19.6583L16.9474 19.6055Z" fill="#B2B8BF"/>
</svg>
