<svg width="20" height="20" viewBox="0 0 20 20" fill="none" xmlns="http://www.w3.org/2000/svg">
<path fill-rule="evenodd" clip-rule="evenodd" d="M3.24313 0.000488281C1.452 0.000488281 0 1.45248 0 3.24362V5.85614C0 7.64727 1.452 9.09927 3.24313 9.09927H5.85565C7.64678 9.09927 9.09878 7.64727 9.09878 5.85614V3.24362C9.09878 1.45249 7.64678 0.000488281 5.85565 0.000488281H3.24313ZM2.16209 3.24362C2.16209 2.64657 2.64608 2.16257 3.24313 2.16257H5.85565C6.45269 2.16257 6.93669 2.64657 6.93669 3.24362V5.85614C6.93669 6.45318 6.45269 6.93718 5.85565 6.93718H3.24313C2.64609 6.93718 2.16209 6.45318 2.16209 5.85614V3.24362Z" fill="#B2B8BF"/>
<path fill-rule="evenodd" clip-rule="evenodd" d="M3.24313 10.9009C1.452 10.9009 0 12.3529 0 14.144V16.7566C0 18.5477 1.452 19.9997 3.24313 19.9997H5.85565C7.64678 19.9997 9.09878 18.5477 9.09878 16.7566V14.144C9.09878 12.3529 7.64678 10.9009 5.85565 10.9009H3.24313ZM2.16209 14.144C2.16209 13.547 2.64608 13.063 3.24313 13.063H5.85565C6.45269 13.063 6.93669 13.547 6.93669 14.144V16.7566C6.93669 17.3536 6.45269 17.8376 5.85565 17.8376H3.24313C2.64609 17.8376 2.16209 17.3536 2.16209 16.7566V14.144Z" fill="#B2B8BF"/>
<path fill-rule="evenodd" clip-rule="evenodd" d="M10.9012 3.24362C10.9012 1.45248 12.3532 0.000488281 14.1444 0.000488281H16.7569C18.548 0.000488281 20 1.45249 20 3.24362V5.85614C20 7.64727 18.548 9.09927 16.7569 9.09927H14.1443C12.3532 9.09927 10.9012 7.64727 10.9012 5.85614V3.24362ZM14.1444 2.16257C13.5473 2.16257 13.0633 2.64657 13.0633 3.24362V5.85614C13.0633 6.45318 13.5473 6.93718 14.1443 6.93718H16.7569C17.3539 6.93718 17.8379 6.45318 17.8379 5.85614V3.24362C17.8379 2.64657 17.3539 2.16257 16.7569 2.16257H14.1444Z" fill="#B2B8BF"/>
<path fill-rule="evenodd" clip-rule="evenodd" d="M14.1444 10.9009C12.3532 10.9009 10.9012 12.3529 10.9012 14.144V16.7566C10.9012 18.5477 12.3532 19.9997 14.1443 19.9997H16.7569C18.548 19.9997 20 18.5477 20 16.7566V14.144C20 12.3529 18.548 10.9009 16.7569 10.9009H14.1444ZM13.0633 14.144C13.0633 13.547 13.5473 13.063 14.1444 13.063H16.7569C17.3539 13.063 17.8379 13.547 17.8379 14.144V16.7566C17.8379 17.3536 17.3539 17.8376 16.7569 17.8376H14.1443C13.5473 17.8376 13.0633 17.3536 13.0633 16.7566V14.144Z" fill="#B2B8BF"/>
</svg>
