<svg width="16" height="16" viewBox="0 0 16 16" fill="none" xmlns="http://www.w3.org/2000/svg">
<path d="M1 3C1.55228 3 2 2.55228 2 2C2 1.44772 1.55228 1 1 1C0.447715 1 0 1.44772 0 2C0 2.55228 0.447715 3 1 3Z" fill="#D0D7DD"/>
<path d="M5.00439 1C4.45211 1 4.00439 1.44772 4.00439 2C4.00439 2.55228 4.45211 3 5.00439 3H14.9952C15.5475 3 15.9952 2.55228 15.9952 2C15.9952 1.44772 15.5475 1 14.9952 1H5.00439Z" fill="#D0D7DD"/>
<path d="M5.00439 7C4.45211 7 4.00439 7.44772 4.00439 8C4.00439 8.55228 4.45211 9 5.00439 9H14.9952C15.5475 9 15.9952 8.55228 15.9952 8C15.9952 7.44772 15.5475 7 14.9952 7H5.00439Z" fill="#D0D7DD"/>
<path d="M4.00439 14C4.00439 13.4477 4.45211 13 5.00439 13H14.9952C15.5475 13 15.9952 13.4477 15.9952 14C15.9952 14.5523 15.5475 15 14.9952 15H5.00439C4.45211 15 4.00439 14.5523 4.00439 14Z" fill="#D0D7DD"/>
<path d="M2 8C2 8.55228 1.55228 9 1 9C0.447715 9 0 8.55228 0 8C0 7.44772 0.447715 7 1 7C1.55228 7 2 7.44772 2 8Z" fill="#D0D7DD"/>
<path d="M1 15C1.55228 15 2 14.5523 2 14C2 13.4477 1.55228 13 1 13C0.447715 13 0 13.4477 0 14C0 14.5523 0.447715 15 1 15Z" fill="#D0D7DD"/>
</svg>
