<svg width="20" height="20" viewBox="0 0 20 20" fill="none" xmlns="http://www.w3.org/2000/svg">
<path fill-rule="evenodd" clip-rule="evenodd" d="M3.5 5.5C3.5 3.01472 5.51472 1 8 1C10.4853 1 12.5 3.01472 12.5 5.5C12.5 7.98528 10.4853 10 8 10C5.51472 10 3.5 7.98528 3.5 5.5ZM8 3C6.61929 3 5.5 4.11929 5.5 5.5C5.5 6.88071 6.61929 8 8 8C9.38071 8 10.5 6.88071 10.5 5.5C10.5 4.11929 9.38071 3 8 3Z" fill="#21A19A"/>
<path fill-rule="evenodd" clip-rule="evenodd" d="M1.891 19H14.109C14.9333 19 15.7069 18.4355 15.8706 17.5686C15.9564 17.1163 16 16.6585 16 16.2076C16 13.9626 14.9658 11.8497 13.1916 10.4053L13.1906 10.4045C12.5207 9.86061 11.5439 9.86469 10.8794 10.4199C10.0738 11.0927 9.02998 11.4699 7.93956 11.4699C6.87012 11.4699 5.84142 11.1058 5.04298 10.4555L5.04109 10.4539C4.37056 9.91048 3.39603 9.91532 2.73124 10.4688L2.72978 10.47C1.00495 11.9116 0 14 0 16.2076C0 16.6594 0.0443195 17.1167 0.12918 17.5673C0.292859 18.4331 1.06485 19 1.891 19ZM7.93956 13.4699C9.43565 13.4699 10.8875 12.9704 12.0429 12.0515C13.2979 13.1262 14 14.6349 14 16.2076C14 16.467 13.9798 16.733 13.9391 17H2.0611C2.02044 16.7322 2 16.4662 2 16.2076C2 14.6626 2.68208 13.1719 3.89961 12.1013C5.04442 12.9887 6.47307 13.4699 7.93956 13.4699Z" fill="#21A19A"/>
<path d="M17.695 10.8519C17.2979 10.4681 16.6648 10.4788 16.281 10.8759C15.8971 11.2731 15.9079 11.9061 16.305 12.29C17.3948 13.3433 18 14.7471 18 16.2076C18 16.5304 17.9687 16.8634 17.9056 17.1958C17.8027 17.7385 18.1591 18.2618 18.7017 18.3647C19.2443 18.4676 19.7677 18.1112 19.8706 17.5686C19.9564 17.1163 20 16.6585 20 16.2076C20 14.1851 19.1603 12.2682 17.695 10.8519Z" fill="#21A19A"/>
<path d="M14.1416 1.04554C13.5949 0.96734 13.0883 1.34715 13.0101 1.89387C12.9319 2.44059 13.3117 2.94719 13.8584 3.02539C15.069 3.19855 16 4.24143 16 5.50002C16 6.4958 15.4179 7.35761 14.5709 7.75995C14.0721 7.99693 13.8598 8.59344 14.0967 9.0923C14.3337 9.59116 14.9302 9.80345 15.4291 9.56647C16.9471 8.84535 18 7.29664 18 5.50002C18 3.23214 16.3233 1.35761 14.1416 1.04554Z" fill="#21A19A"/>
</svg>
