<svg width="24" height="24" viewBox="0 0 24 24" fill="none" xmlns="http://www.w3.org/2000/svg">
<path d="M12.5 4.0002C13.0523 4.0002 13.5 4.44792 13.5 5.0002C13.4998 5.55235 13.0522 6.0002 12.5 6.0002H6C4.89543 6.0002 4 6.89563 4 8.0002V17.0002C4.00016 18.1046 4.89553 19.0002 6 19.0002H18C19.1045 19.0002 19.9998 18.1046 20 17.0002V12.5002C20 11.9479 20.4477 11.5002 21 11.5002C21.5523 11.5002 22 11.9479 22 12.5002V17.0002C21.9998 19.2092 20.209 21.0002 18 21.0002H6C3.79096 21.0002 2.00016 19.2092 2 17.0002V8.0002C2 5.79106 3.79086 4.0002 6 4.0002H12.5Z" fill="#D0D7DD"/>
<path d="M8.16797 12.4455C8.47432 11.986 9.09516 11.8618 9.55469 12.1682C10.0141 12.4746 10.1384 13.0954 9.83203 13.5549L7.83203 16.5549C7.52566 17.0142 6.90476 17.1384 6.44531 16.8322C5.98585 16.5259 5.86178 15.905 6.16797 15.4455L8.16797 12.4455Z" fill="#D0D7DD"/>
<path d="M12.7998 11.9338C13.3624 11.1837 14.4527 11.1366 15.0811 11.7932L15.2002 11.9338L17.7998 15.4006L17.8574 15.4856C18.1185 15.9196 18.0136 16.4895 17.5996 16.8C17.1855 17.1104 16.6091 17.0513 16.2656 16.6789L16.2002 16.5998L14 13.6672L11.7998 16.5998C11.4685 17.0414 10.8421 17.1311 10.4004 16.8C9.95868 16.4687 9.86913 15.8424 10.2002 15.4006L12.7998 11.9338Z" fill="#D0D7DD"/>
<path d="M7.5 8.0002C8.32843 8.0002 9 8.67177 9 9.5002C8.99985 10.3285 8.32833 11.0002 7.5 11.0002C6.67167 11.0002 6.00015 10.3285 6 9.5002C6 8.67177 6.67157 8.0002 7.5 8.0002Z" fill="#D0D7DD"/>
<path fill-rule="evenodd" clip-rule="evenodd" d="M19.7969 1.52462C20.4469 0.869625 21.446 0.82844 22.1396 1.40157L22.2744 1.52462L23.4834 2.74239C24.1699 3.4345 24.1714 4.51458 23.4893 5.20919L19.6025 9.20528C19.455 9.35676 19.2631 9.45772 19.0547 9.49337L16.168 9.98555C15.8397 10.0415 15.5049 9.93081 15.2754 9.68965C15.0458 9.44821 14.952 9.10759 15.0244 8.78243L15.6436 6.00606L15.6826 5.87325C15.7309 5.74428 15.8057 5.62603 15.9023 5.52657L19.79 1.53145L19.7969 1.52462ZM17.5332 6.717L17.2998 7.76387L18.3965 7.57637L21.8945 3.98165L21.0371 3.11641L17.5332 6.717Z" fill="#D0D7DD"/>
</svg>
