<svg width="20" height="20" viewBox="0 0 20 20" fill="none" xmlns="http://www.w3.org/2000/svg">
<path fill-rule="evenodd" clip-rule="evenodd" d="M9.29183 4.79396C9.68177 4.40285 10.3149 4.40189 10.706 4.79183L15.706 9.77684C15.8939 9.9641 15.9996 10.2183 16 10.4835C16.0004 10.7487 15.8954 11.0032 15.7082 11.1911L10.7082 16.206C10.3182 16.5972 9.68506 16.5981 9.29395 16.2082C8.90284 15.8182 8.9019 15.1851 9.29184 14.794L12.5873 11.4886L5.0015 11.5C4.44921 11.5008 4.00083 11.0538 4 10.5015C3.99917 9.94921 4.44622 9.50083 4.9985 9.5L12.5843 9.48863L9.29396 6.20817C8.90285 5.81823 8.90189 5.18507 9.29183 4.79396Z" fill="#1F1F22"/>
</svg>
