<svg width="33" height="33" viewBox="0 0 33 33" fill="none" xmlns="http://www.w3.org/2000/svg">
<path d="M0.298611 31.229C-0.104099 31.6317 -0.0971633 32.2916 0.305547 32.6943C0.708258 33.097 1.36812 33.1039 1.77083 32.7012L16.4998 17.9722L31.229 32.7014C31.6317 33.1041 32.2916 33.0972 32.6943 32.6945C33.097 32.2918 33.1039 31.6319 32.7012 31.2292L17.972 16.5L32.7012 1.7708C33.1039 1.36809 33.097 0.708235 32.6943 0.305524C32.2916 -0.0971867 31.6317 -0.104124 31.229 0.298587L16.4998 15.0278L1.7708 0.298788C1.36809 -0.103923 0.708235 -0.0969868 0.305524 0.305724C-0.0971867 0.708435 -0.104124 1.36829 0.298587 1.771L15.0276 16.5L0.298611 31.229Z" fill="white"/>
</svg>
