<svg width="32" height="32" viewBox="0 0 32 32" fill="none" xmlns="http://www.w3.org/2000/svg">
<path d="M26 6C24.8954 6 24 6.89543 24 8C24 8.55228 23.5523 9 23 9C22.4477 9 22 8.55228 22 8C22 5.79086 23.7909 4 26 4C28.2091 4 30 5.79086 30 8C30 9.86386 28.7252 11.43 27 11.874V13C27 13.5523 26.5523 14 26 14C25.4477 14 25 13.5523 25 13V11C25 10.4478 25.4477 9.99996 26 9.99996C27.1046 9.99996 28 9.10457 28 8C28 6.89543 27.1046 6 26 6Z" fill="white"/>
<path d="M3 9.002C3 6.79281 4.79086 5.00195 7 5.00195H18C18.5523 5.00195 19 5.44967 19 6.00195C19 6.55424 18.5523 7.00195 18 7.00195H7C5.89543 7.00195 5 7.89738 5 9.002V20.002C5 21.1065 5.89543 22.002 7 22.002H19.2053L25 24.4854V23.002C25 22.4497 25.4477 22.002 26 22.002C26.5523 22.002 27 22.4497 27 23.002V27.5185L18.7947 24.002H7C4.79086 24.002 3 22.2111 3 20.002V9.002Z" fill="white"/>
<path d="M9 12.002C9 11.4497 9.44772 11.002 10 11.002H18C18.5523 11.002 19 11.4497 19 12.002C19 12.5542 18.5523 13.002 18 13.002H10C9.44772 13.002 9 12.5542 9 12.002Z" fill="white"/>
<path d="M10 16.002C9.44772 16.002 9 16.4497 9 17.002C9 17.5542 9.44772 18.002 10 18.002H20C20.5523 18.002 21 17.5542 21 17.002C21 16.4497 20.5523 16.002 20 16.002H10Z" fill="white"/>
<path d="M27 17.002C27 17.5542 26.5523 18.002 26 18.002C25.4477 18.002 25 17.5542 25 17.002C25 16.4497 25.4477 16.002 26 16.002C26.5523 16.002 27 16.4497 27 17.002Z" fill="white"/>
</svg>
