<svg width="32" height="32" viewBox="0 0 32 32" fill="none" xmlns="http://www.w3.org/2000/svg">
<path d="M7.15945 6C6.5191 6 6 6.5191 6 7.15945C6 7.7998 6.5191 8.3189 7.15945 8.3189H9.12407C9.76442 8.3189 10.2835 7.7998 10.2835 7.15945C10.2835 6.5191 9.76442 6 9.12407 6H7.15945Z" fill="#B2B8BF"/>
<path d="M15.0174 6C14.3771 6 13.858 6.5191 13.858 7.15945C13.858 7.7998 14.3771 8.3189 15.0174 8.3189H24.8406C25.4809 8.3189 26 7.7998 26 7.15945C26 6.5191 25.4809 6 24.8406 6H15.0174Z" fill="#B2B8BF"/>
<path d="M13.858 13.0532C13.858 12.4129 14.3771 11.8938 15.0174 11.8938H24.8406C25.4809 11.8938 26 12.4129 26 13.0532C26 13.6936 25.4809 14.2127 24.8406 14.2127H15.0174C14.3771 14.2127 13.858 13.6936 13.858 13.0532Z" fill="#B2B8BF"/>
<path d="M7.15945 11.8938C6.5191 11.8938 6 12.4129 6 13.0532C6 13.6936 6.5191 14.2127 7.15945 14.2127H9.12407C9.76442 14.2127 10.2835 13.6936 10.2835 13.0532C10.2835 12.4129 9.76442 11.8938 9.12407 11.8938H7.15945Z" fill="#B2B8BF"/>
<path d="M13.858 18.9473C13.858 18.3069 14.3771 17.7878 15.0174 17.7878H24.8406C25.4809 17.7878 26 18.3069 26 18.9473C26 19.5876 25.4809 20.1067 24.8406 20.1067H15.0174C14.3771 20.1067 13.858 19.5876 13.858 18.9473Z" fill="#B2B8BF"/>
<path d="M7.15945 17.7878C6.5191 17.7878 6 18.3069 6 18.9473C6 19.5876 6.5191 20.1067 7.15945 20.1067H9.12407C9.76442 20.1067 10.2835 19.5876 10.2835 18.9473C10.2835 18.3069 9.76442 17.7878 9.12407 17.7878H7.15945Z" fill="#B2B8BF"/>
<path d="M13.858 24.8411C13.858 24.2007 14.3771 23.6816 15.0174 23.6816H24.8406C25.4809 23.6816 26 24.2007 26 24.8411C26 25.4814 25.4809 26.0005 24.8406 26.0005H15.0174C14.3771 26.0005 13.858 25.4814 13.858 24.8411Z" fill="#B2B8BF"/>
<path d="M7.15945 23.6816C6.5191 23.6816 6 24.2007 6 24.8411C6 25.4814 6.5191 26.0005 7.15945 26.0005H9.12407C9.76442 26.0005 10.2835 25.4814 10.2835 24.8411C10.2835 24.2007 9.76442 23.6816 9.12407 23.6816H7.15945Z" fill="#B2B8BF"/>
</svg>
