<svg width="32" height="32" viewBox="0 0 32 32" fill="none" xmlns="http://www.w3.org/2000/svg">
<path d="M24.3875 3.5C24.9238 2.57129 25.915 1.99951 26.9875 2C28.4395 2.01123 29.675 3.06104 29.9209 4.4917C30.1668 5.92285 29.3525 7.32471 27.9875 7.81982V8C27.9875 8.55225 27.5398 9 26.9875 9C26.4352 9 25.9875 8.55225 25.9875 8V7C25.9875 6.44775 26.4352 6 26.9875 6C27.5398 6 27.9875 5.55225 27.9875 5C27.9875 4.44775 27.5398 4 26.9875 4C26.6288 3.99854 26.2969 4.18945 26.1175 4.5C25.9473 4.82568 25.6123 5.03125 25.245 5.03662C24.8777 5.0415 24.5372 4.84473 24.3582 4.52393C24.1792 4.20313 24.1905 3.81006 24.3875 3.5Z" fill="white"/>
<path d="M7 8.96094C6.44772 8.96094 6 9.40869 6 9.96094V20.9609C6 21.5132 6.44772 21.9609 7 21.9609H21.1716C21.9672 21.9609 22.7303 22.2769 23.2929 22.8398L26 25.5469V14.9609C26 14.4087 26.4477 13.9609 27 13.9609C27.5523 13.9609 28 14.4087 28 14.9609V26.7539C28 28.0903 26.3843 28.7593 25.4393 27.8145L21.8787 24.2539C21.6911 24.0664 21.4368 23.9609 21.1716 23.9609H7C5.34315 23.9609 4 22.6177 4 20.9609V9.96094C4 8.3042 5.34315 6.96094 7 6.96094H22C22.5523 6.96094 23 7.40869 23 7.96094C23 8.51318 22.5523 8.96094 22 8.96094H7Z" fill="white"/>
<path d="M9 12.9609C9 12.4087 9.44772 11.9609 10 11.9609H22C22.5523 11.9609 23 12.4087 23 12.9609C23 13.5132 22.5523 13.9609 22 13.9609H10C9.44772 13.9609 9 13.5132 9 12.9609Z" fill="white"/>
<path d="M10 16.9609C9.44772 16.9609 9 17.4087 9 17.9609C9 18.5132 9.44772 18.9609 10 18.9609H17C17.5523 18.9609 18 18.5132 18 17.9609C18 17.4087 17.5523 16.9609 17 16.9609H10Z" fill="white"/>
<path d="M27.0002 11.9697C27.5535 11.9697 28.002 11.5215 28.002 10.9678C28.002 10.4146 27.5535 9.96631 27.0002 9.96631C26.447 9.96631 25.9985 10.4146 25.9985 10.9678C25.9985 11.5215 26.447 11.9697 27.0002 11.9697Z" fill="white"/>
</svg>
