<svg width="32" height="32" viewBox="0 0 32 32" fill="none" xmlns="http://www.w3.org/2000/svg">
<path fill-rule="evenodd" clip-rule="evenodd" d="M19.81 4.59001C21.39 5.10001 21.64 5.43001 20.13 5.02001C18.78 4.65001 15.8 4.69001 14.21 5.11001C10.21 6.15001 6.91997 9.64001 6.86997 12.89C6.85997 13.82 6.96997 14.19 7.48997 14.93C8.44997 16.3 9.28997 16.67 11.22 16.57C12.55 16.5 13.12 16.35 14.44 15.69C16.46 14.68 19.28 12.42 20.14 11.11C20.72 10.22 21.03 8.89001 20.66 8.89001C20.41 8.89001 17.74 10.44 16.19 11.49L14.67 12.52L13.26 10.81L11.84 9.10001L13.28 8.17001C16.78 5.90001 20.76 5.18001 23.09 6.40001C24.02 6.88001 25.85 8.99001 26.54 10.38C27.61 12.51 28.33 16.1 27.84 16.84C27.66 17.1 27.62 17.08 27.62 16.69C27.61 15.92 26.8 13.95 26.08 12.94L25.41 12.01L25.07 13.4C24.52 15.65 23.83 16.8 21.84 18.81C20.25 20.42 19.71 20.81 17.79 21.74C15.14 23.03 13.32 23.51 10.95 23.53C7.70997 23.57 6.08997 22.7 4.83997 20.22C4.19997 18.96 4.09997 18.55 4.00997 16.69C3.81997 12.59 5.42997 8.93001 8.44997 6.61001C10.22 5.25001 11.37 4.73001 14.08 4.08001C15.06 3.84001 18.4 4.14001 19.81 4.59001ZM27.06 20.52C25.76 23.86 22.47 26.76 18.94 27.69C17.37 28.1 14.41 28.1 12.81 27.68C11.16 27.25 9.24997 26.2 8.02997 25.07L7.04997 24.15L8.21997 24.77C10.44 25.94 12.33 26.4 15.04 26.4C17.17 26.4 17.74 26.32 19.38 25.77C22.39 24.78 25.54 22.38 26.91 20.06C27.42 19.18 27.49 19.4 27.06 20.52Z" fill="#21A19A"/>
</svg>
