<svg width="24" height="24" viewBox="0 0 24 24" fill="none" xmlns="http://www.w3.org/2000/svg">
<path d="M10.2 5.2999C10.59 4.9099 11.23 4.8899 11.64 5.2699C12.04 5.6399 12.06 6.2699 11.67 6.6599L7.4 10.9899H19.98C20.54 10.9899 21 11.4299 21 11.9799C21 12.5199 20.54 12.9599 19.98 12.9599H7.37L11.67 17.3299C12.06 17.7199 12.04 18.3499 11.64 18.7199C11.23 19.0999 10.59 19.0799 10.2 18.6899L4.28 12.6799C4.09 12.4899 4 12.2399 4 11.9999C4 11.7499 4.09 11.4999 4.28 11.3099L10.2 5.2999Z" fill="#B2B8BF"/>
</svg>
