<svg width="32" height="32" viewBox="0 0 32 32" fill="none" xmlns="http://www.w3.org/2000/svg">
<path d="M7.70711 6.29289C7.31658 5.90237 6.68342 5.90237 6.29289 6.29289C5.90237 6.68342 5.90237 7.31658 6.29289 7.70711L14.5858 16L6.29289 24.2929C5.90237 24.6834 5.90237 25.3166 6.29289 25.7071C6.68342 26.0976 7.31658 26.0976 7.70711 25.7071L16 17.4142L24.2929 25.7071C24.6834 26.0976 25.3166 26.0976 25.7071 25.7071C26.0976 25.3166 26.0976 24.6834 25.7071 24.2929L17.4142 16L25.7071 7.70711C26.0976 7.31658 26.0976 6.68342 25.7071 6.29289C25.3166 5.90237 24.6834 5.90237 24.2929 6.29289L16 14.5858L7.70711 6.29289Z" fill="#107F8C"/>
</svg>
