<svg width="32" height="32" viewBox="0 0 32 32" fill="none" xmlns="http://www.w3.org/2000/svg">
<path d="M0.289087 30.2834C-0.101437 30.6739 -0.0947114 31.3138 0.295813 31.7043C0.686337 32.0948 1.32623 32.1016 1.71675 31.711L16 17.4278L30.2835 31.7112C30.674 32.1018 31.3139 32.095 31.7044 31.7045C32.095 31.314 32.1017 30.6741 31.7112 30.2836L17.4277 16.0001L31.7112 1.71661C32.1017 1.32608 32.095 0.686192 31.7045 0.295668C31.3139 -0.0948561 30.674 -0.101583 30.2835 0.288941L16 14.5724L1.71673 0.289136C1.32621 -0.101388 0.686314 -0.0946622 0.29579 0.295862C-0.094734 0.686386 -0.101461 1.32628 0.289063 1.7168L14.5724 16.0001L0.289087 30.2834Z" fill="#D0D7DD"/>
</svg>
