<svg width="32" height="32" viewBox="0 0 32 32" fill="none" xmlns="http://www.w3.org/2000/svg">
<path fill-rule="evenodd" clip-rule="evenodd" d="M27.5081 12.3443C26.8361 10.2049 25.5522 8.2754 23.8169 6.83579C22.9342 6.15598 21.8008 5.87606 20.7074 5.82607H20.0856C17.0965 5.96603 14.308 7.36565 11.9509 9.12517C12.9138 10.1849 13.8366 11.3746 14.7193 12.5142C16.615 11.1546 18.6612 9.90495 20.7877 8.92522C21.4698 10.2349 19.2731 12.3743 18.3503 13.1441C16.284 14.8136 13.9269 16.4532 11.1886 16.6731C10.6971 16.7131 10.1855 16.6531 9.70405 16.5331C8.45024 16.2132 7.45723 15.1435 7.05601 13.9339C6.8554 13.314 6.8554 12.6442 6.97577 12.0044C7.20647 10.8547 7.78823 9.745 8.6007 8.76526C10.4363 6.34593 13.7162 4.73637 17.4776 4.73637C20.3263 4.73637 21.0986 5.17625 21.4196 5.36619C21.5199 5.41618 21.5801 5.45617 21.6403 5.43618C20.0555 4.6164 18.3102 4.07655 16.5248 4.00657C16.4345 4.00657 16.3342 4.00657 16.2339 4.00657C15.943 3.99657 15.6521 3.99657 15.3713 4.01656C9.00192 4.34647 3.78608 9.79498 4.00675 16.1732C4.00675 16.2332 4.00675 16.3332 4.01678 16.3932V16.5131C4.01678 16.6131 4.02682 16.7231 4.03685 16.8231C4.03685 16.8431 4.04688 16.933 4.05691 16.963C4.23745 20.1521 5.98275 22.9214 9.33292 23.4113C10.1253 23.5212 10.9278 23.5112 11.7202 23.4712C15.9931 23.1613 20.4567 20.9219 23.1649 17.6128C24.3686 16.0833 25.2713 14.2338 25.3816 12.2743C25.3917 12.1443 25.3917 12.0044 25.3917 11.8844C26.7558 13.374 27.6987 15.3435 27.8892 17.3529C28.0999 15.6634 28.0297 13.9738 27.5081 12.3443ZM6.72501 23.8511C9.03201 25.4607 11.8706 26.4104 14.9299 26.4104C20.4667 26.4104 25.2512 23.3213 27.5482 18.8425C26.2643 24.0911 21.5099 28 15.8327 28C12.2016 28 8.9317 26.3904 6.72501 23.8511Z" fill="#21A19A"/>
</svg>
