<svg width="16" height="16" viewBox="0 0 16 16" fill="none" xmlns="http://www.w3.org/2000/svg">
<path fill-rule="evenodd" clip-rule="evenodd" d="M3 0C1.34315 0 0 1.34315 0 3V4C0 5.65685 1.34315 7 3 7H4C5.65685 7 7 5.65685 7 4V3C7 1.34315 5.65685 0 4 0H3ZM2 3C2 2.44772 2.44772 2 3 2H4C4.55228 2 5 2.44772 5 3V4C5 4.55228 4.55228 5 4 5H3C2.44772 5 2 4.55228 2 4V3Z" fill="#E4E8EB"/>
<path fill-rule="evenodd" clip-rule="evenodd" d="M3 9C1.34315 9 0 10.3431 0 12V13C0 14.6569 1.34315 16 3 16H4C5.65685 16 7 14.6569 7 13V12C7 10.3431 5.65685 9 4 9H3ZM2 12C2 11.4477 2.44772 11 3 11H4C4.55228 11 5 11.4477 5 12V13C5 13.5523 4.55228 14 4 14H3C2.44772 14 2 13.5523 2 13V12Z" fill="#E4E8EB"/>
<path fill-rule="evenodd" clip-rule="evenodd" d="M9 3C9 1.34315 10.3431 0 12 0H13C14.6569 0 16 1.34315 16 3V4C16 5.65685 14.6569 7 13 7H12C10.3431 7 9 5.65685 9 4V3ZM12 2C11.4477 2 11 2.44772 11 3V4C11 4.55228 11.4477 5 12 5H13C13.5523 5 14 4.55228 14 4V3C14 2.44772 13.5523 2 13 2H12Z" fill="#E4E8EB"/>
<path fill-rule="evenodd" clip-rule="evenodd" d="M12 9C10.3431 9 9 10.3431 9 12V13C9 14.6569 10.3431 16 12 16H13C14.6569 16 16 14.6569 16 13V12C16 10.3431 14.6569 9 13 9H12ZM11 12C11 11.4477 11.4477 11 12 11H13C13.5523 11 14 11.4477 14 12V13C14 13.5523 13.5523 14 13 14H12C11.4477 14 11 13.5523 11 13V12Z" fill="#E4E8EB"/>
</svg>
