<svg width="32" height="32" viewBox="0 0 32 32" fill="none" xmlns="http://www.w3.org/2000/svg">
<path fill-rule="evenodd" clip-rule="evenodd" d="M9.24313 6.00049C7.452 6.00049 6 7.45248 6 9.24362V11.8561C6 13.6473 7.452 15.0993 9.24313 15.0993H11.8557C13.6468 15.0993 15.0988 13.6473 15.0988 11.8561V9.24362C15.0988 7.45249 13.6468 6.00049 11.8557 6.00049H9.24313ZM8.16209 9.24362C8.16209 8.64657 8.64608 8.16257 9.24313 8.16257H11.8557C12.4527 8.16257 12.9367 8.64657 12.9367 9.24362V11.8561C12.9367 12.4532 12.4527 12.9372 11.8557 12.9372H9.24313C8.64609 12.9372 8.16209 12.4532 8.16209 11.8561V9.24362Z" fill="#B2B8BF"/>
<path fill-rule="evenodd" clip-rule="evenodd" d="M9.24313 16.9009C7.452 16.9009 6 18.3529 6 20.144V22.7566C6 24.5477 7.452 25.9997 9.24313 25.9997H11.8557C13.6468 25.9997 15.0988 24.5477 15.0988 22.7566V20.144C15.0988 18.3529 13.6468 16.9009 11.8557 16.9009H9.24313ZM8.16209 20.144C8.16209 19.547 8.64608 19.063 9.24313 19.063H11.8557C12.4527 19.063 12.9367 19.547 12.9367 20.144V22.7566C12.9367 23.3536 12.4527 23.8376 11.8557 23.8376H9.24313C8.64609 23.8376 8.16209 23.3536 8.16209 22.7566V20.144Z" fill="#B2B8BF"/>
<path fill-rule="evenodd" clip-rule="evenodd" d="M16.9012 9.24362C16.9012 7.45248 18.3532 6.00049 20.1444 6.00049H22.7569C24.548 6.00049 26 7.45249 26 9.24362V11.8561C26 13.6473 24.548 15.0993 22.7569 15.0993H20.1443C18.3532 15.0993 16.9012 13.6473 16.9012 11.8561V9.24362ZM20.1444 8.16257C19.5473 8.16257 19.0633 8.64657 19.0633 9.24362V11.8561C19.0633 12.4532 19.5473 12.9372 20.1443 12.9372H22.7569C23.3539 12.9372 23.8379 12.4532 23.8379 11.8561V9.24362C23.8379 8.64657 23.3539 8.16257 22.7569 8.16257H20.1444Z" fill="#B2B8BF"/>
<path fill-rule="evenodd" clip-rule="evenodd" d="M20.1444 16.9009C18.3532 16.9009 16.9012 18.3529 16.9012 20.144V22.7566C16.9012 24.5477 18.3532 25.9997 20.1443 25.9997H22.7569C24.548 25.9997 26 24.5477 26 22.7566V20.144C26 18.3529 24.548 16.9009 22.7569 16.9009H20.1444ZM19.0633 20.144C19.0633 19.547 19.5473 19.063 20.1444 19.063H22.7569C23.3539 19.063 23.8379 19.547 23.8379 20.144V22.7566C23.8379 23.3536 23.3539 23.8376 22.7569 23.8376H20.1443C19.5473 23.8376 19.0633 23.3536 19.0633 22.7566V20.144Z" fill="#B2B8BF"/>
</svg>
