<svg width="24" height="24" viewBox="0 0 24 24" fill="none" xmlns="http://www.w3.org/2000/svg">
<path d="M5.30015 14.79C4.91015 14.4 4.89015 13.76 5.27015 13.35C5.64015 12.95 6.27015 12.93 6.66015 13.32L10.9901 17.59V5.00999C10.9901 4.44999 11.4301 3.98999 11.9801 3.98999C12.5201 3.98999 12.9601 4.44999 12.9601 5.00999V17.62L17.3301 13.32C17.7201 12.93 18.3501 12.95 18.7201 13.35C19.1001 13.76 19.0801 14.4 18.6901 14.79L12.6801 20.71C12.4901 20.9 12.2401 20.99 12.0001 20.99C11.7501 20.99 11.5001 20.9 11.3101 20.71L5.30015 14.79Z" fill="#B2B8BF"/>
</svg>
