<svg width="20" height="20" viewBox="0 0 20 20" fill="none" xmlns="http://www.w3.org/2000/svg">
<path fill-rule="evenodd" clip-rule="evenodd" d="M5 2C3.34315 2 2 3.34315 2 5V6C2 7.65685 3.34315 9 5 9H6C7.65685 9 9 7.65685 9 6V5C9 3.34315 7.65685 2 6 2H5ZM4 5C4 4.44772 4.44772 4 5 4H6C6.55228 4 7 4.44772 7 5V6C7 6.55228 6.55228 7 6 7H5C4.44772 7 4 6.55228 4 6V5Z" fill="#B2B8BF"/>
<path fill-rule="evenodd" clip-rule="evenodd" d="M5 11C3.34315 11 2 12.3431 2 14V15C2 16.6569 3.34315 18 5 18H6C7.65685 18 9 16.6569 9 15V14C9 12.3431 7.65685 11 6 11H5ZM4 14C4 13.4477 4.44772 13 5 13H6C6.55228 13 7 13.4477 7 14V15C7 15.5523 6.55228 16 6 16H5C4.44772 16 4 15.5523 4 15V14Z" fill="#B2B8BF"/>
<path fill-rule="evenodd" clip-rule="evenodd" d="M11 5C11 3.34315 12.3431 2 14 2H15C16.6569 2 18 3.34315 18 5V6C18 7.65685 16.6569 9 15 9H14C12.3431 9 11 7.65685 11 6V5ZM14 4C13.4477 4 13 4.44772 13 5V6C13 6.55228 13.4477 7 14 7H15C15.5523 7 16 6.55228 16 6V5C16 4.44772 15.5523 4 15 4H14Z" fill="#B2B8BF"/>
<path fill-rule="evenodd" clip-rule="evenodd" d="M14 11C12.3431 11 11 12.3431 11 14V15C11 16.6569 12.3431 18 14 18H15C16.6569 18 18 16.6569 18 15V14C18 12.3431 16.6569 11 15 11H14ZM13 14C13 13.4477 13.4477 13 14 13H15C15.5523 13 16 13.4477 16 14V15C16 15.5523 15.5523 16 15 16H14C13.4477 16 13 15.5523 13 15V14Z" fill="#B2B8BF"/>
</svg>
