<svg width="32" height="32" viewBox="0 0 32 32" fill="none" xmlns="http://www.w3.org/2000/svg">
<path d="M0.288843 30.2834C-0.101681 30.6739 -0.0949555 31.3138 0.295569 31.7043C0.686093 32.0948 1.32598 32.1016 1.71651 31.711L15.9998 17.4278L30.2832 31.7112C30.6738 32.1018 31.3137 32.095 31.7042 31.7045C32.0947 31.314 32.1014 30.6741 31.7109 30.2836L17.4274 16.0001L31.7109 1.71661C32.1015 1.32608 32.0947 0.686192 31.7042 0.295668C31.3137 -0.0948561 30.6738 -0.101583 30.2833 0.288941L15.9998 14.5724L1.71649 0.289136C1.32596 -0.101388 0.68607 -0.0946622 0.295546 0.295862C-0.0949782 0.686386 -0.101705 1.32628 0.288819 1.7168L14.5721 16.0001L0.288843 30.2834Z" fill="#565B62"/>
</svg>
