<svg width="20" height="20" viewBox="0 0 20 20" fill="none" xmlns="http://www.w3.org/2000/svg">
<path d="M4 3C4 2.44772 3.55228 2 3 2C2.44772 2 2 2.44772 2 3V15C2 16.6569 3.34315 18 5 18H17C17.5523 18 18 17.5523 18 17C18 16.4477 17.5523 16 17 16H5C4.44772 16 4 15.5523 4 15V3Z" fill="#B2B8BF"/>
<path d="M9 7.5C9 6.94772 8.55228 6.5 8 6.5C7.44772 6.5 7 6.94772 7 7.5V13C7 13.5523 7.44772 14 8 14C8.55228 14 9 13.5523 9 13V7.5Z" fill="#B2B8BF"/>
<path d="M12 3C12.5523 3 13 3.44772 13 4V13C13 13.5523 12.5523 14 12 14C11.4477 14 11 13.5523 11 13V4C11 3.44772 11.4477 3 12 3Z" fill="#B2B8BF"/>
<path d="M17 9.5C17 8.94772 16.5523 8.5 16 8.5C15.4477 8.5 15 8.94772 15 9.5V13C15 13.5523 15.4477 14 16 14C16.5523 14 17 13.5523 17 13V9.5Z" fill="#B2B8BF"/>
</svg>
