<svg width="20" height="20" viewBox="0 0 20 20" fill="none" xmlns="http://www.w3.org/2000/svg">
<path d="M18.2929 0.292893C18.6834 -0.0976311 19.3166 -0.0976311 19.7071 0.292893C20.0976 0.683417 20.0976 1.31658 19.7071 1.70711L11.4142 10L19.7071 18.2929C20.0976 18.6834 20.0976 19.3166 19.7071 19.7071C19.3166 20.0976 18.6834 20.0976 18.2929 19.7071L10 11.4142L1.70711 19.7071C1.31658 20.0976 0.683419 20.0976 0.292893 19.7071C-0.097631 19.3166 -0.097631 18.6834 0.292893 18.2929L8.58579 10L0.292894 1.70711C-0.0976306 1.31658 -0.0976306 0.683417 0.292894 0.292893C0.683418 -0.0976311 1.31658 -0.0976311 1.70711 0.292893L10 8.58579L18.2929 0.292893Z" fill="#B2B8BF"/>
</svg>
