<svg width="20" height="20" viewBox="0 0 20 20" fill="none" xmlns="http://www.w3.org/2000/svg">
<path d="M14 5V7C14 7.55 14.44 8 15 8C15.55 8 16 7.55 16 7V5H18C18.55 5 19 4.55 19 4C19 3.44 18.55 3 18 3H16V1C16 0.44 15.55 0 15 0C14.44 0 14 0.44 14 1V3H12C11.44 3 11 3.44 11 4C11 4.55 11.44 5 12 5H14Z" fill="#21A19A"/>
<path d="M5 5C3.34228 5 2 6.34228 2 8V11C2 12.3909 2.94893 13.5633 4.25174 13.9022C4.6924 14.0168 5 14.4147 5 14.87V16L7.4 14.2C7.5731 14.0702 7.78363 14 8 14H11C11.9799 14 12.8321 13.7432 13.2929 13.2929C13.7432 12.8321 14 11.9799 14 11C14 10.4477 14.4477 10 15 10C15.5523 10 16 10.4477 16 11C16 12.2166 15.6986 13.7019 14.712 14.7022L14.7023 14.712C13.7019 15.6987 12.2166 16 11 16H8.33333L4.6 18.8C4.29698 19.0273 3.89157 19.0638 3.55279 18.8944C3.214 18.725 3 18.3788 3 18V15.5786C1.2331 14.8052 0 13.0504 0 11V8C0 5.23772 2.23772 3 5 3H8C8.55228 3 9 3.44772 9 4C9 4.55228 8.55228 5 8 5H5Z" fill="#21A19A"/>
</svg>
