<svg width="20" height="20" viewBox="0 0 20 20" fill="none" xmlns="http://www.w3.org/2000/svg">
<path d="M1.15945 0C0.519103 0 0 0.519103 0 1.15945C0 1.7998 0.519103 2.3189 1.15945 2.3189H3.12407C3.76442 2.3189 4.28352 1.7998 4.28352 1.15945C4.28352 0.519103 3.76442 0 3.12407 0H1.15945Z" fill="#107F8C"/>
<path d="M9.01744 0C8.37709 0 7.85799 0.519103 7.85799 1.15945C7.85799 1.7998 8.37709 2.3189 9.01744 2.3189H18.8406C19.4809 2.3189 20 1.7998 20 1.15945C20 0.519103 19.4809 0 18.8406 0H9.01744Z" fill="#107F8C"/>
<path d="M7.85799 7.05322C7.85799 6.41288 8.37709 5.89377 9.01744 5.89377H18.8406C19.4809 5.89377 20 6.41288 20 7.05322C20 7.69357 19.4809 8.21267 18.8406 8.21267H9.01744C8.37709 8.21267 7.85799 7.69357 7.85799 7.05322Z" fill="#107F8C"/>
<path d="M1.15945 5.89377C0.519103 5.89377 0 6.41288 0 7.05322C0 7.69357 0.519103 8.21267 1.15945 8.21267H3.12407C3.76442 8.21267 4.28352 7.69357 4.28352 7.05322C4.28352 6.41288 3.76442 5.89377 3.12407 5.89377H1.15945Z" fill="#107F8C"/>
<path d="M7.85799 12.9473C7.85799 12.3069 8.37709 11.7878 9.01744 11.7878H18.8406C19.4809 11.7878 20 12.3069 20 12.9473C20 13.5876 19.4809 14.1067 18.8406 14.1067H9.01744C8.37709 14.1067 7.85799 13.5876 7.85799 12.9473Z" fill="#107F8C"/>
<path d="M1.15945 11.7878C0.519103 11.7878 0 12.3069 0 12.9473C0 13.5876 0.519103 14.1067 1.15945 14.1067H3.12407C3.76442 14.1067 4.28352 13.5876 4.28352 12.9473C4.28352 12.3069 3.76442 11.7878 3.12407 11.7878H1.15945Z" fill="#107F8C"/>
<path d="M7.85799 18.8411C7.85799 18.2007 8.37709 17.6816 9.01744 17.6816H18.8406C19.4809 17.6816 20 18.2007 20 18.8411C20 19.4814 19.4809 20.0005 18.8406 20.0005H9.01744C8.37709 20.0005 7.85799 19.4814 7.85799 18.8411Z" fill="#107F8C"/>
<path d="M1.15945 17.6816C0.519103 17.6816 0 18.2007 0 18.8411C0 19.4814 0.519103 20.0005 1.15945 20.0005H3.12407C3.76442 20.0005 4.28352 19.4814 4.28352 18.8411C4.28352 18.2007 3.76442 17.6816 3.12407 17.6816H1.15945Z" fill="#107F8C"/>
</svg>
