<svg width="32" height="32" viewBox="0 0 32 32" fill="none" xmlns="http://www.w3.org/2000/svg">
<path fill-rule="evenodd" clip-rule="evenodd" d="M10 17L10.6337 17.0001C10.6765 17.0741 10.7296 17.1438 10.7929 17.2071L13.2929 19.7071C13.6834 20.0976 14.3166 20.0976 14.7071 19.7071C15.0976 19.3166 15.0976 18.6834 14.7071 18.2929L13.0722 16.658C13.2361 16.5949 13.3955 16.5216 13.5482 16.4367C14.3796 15.9747 15 15.1654 15 13.9999C15 12.8343 14.3795 12.0252 13.5481 11.5633C12.7768 11.1349 11.8342 11.0002 11.0001 11.0001L9.49979 11C8.67082 11 8 11.6721 8 12.5V19C8 19.5523 8.44772 20 9 20C9.55228 20 10 19.5523 10 19V17ZM10 13V15L11.0001 15.0001C11.6657 15.0002 12.2231 14.885 12.5768 14.6885C12.8704 14.5253 13 14.3345 13 13.9999C13 13.6654 12.8705 13.4748 12.5769 13.3117C12.2232 13.1153 11.6658 13.0002 10.9999 13.0001L10 13Z" fill="#D0D7DD"/>
<path d="M18 12C18 11.4477 17.5523 11 17 11C16.4477 11 16 11.4477 16 12V16C16 16.66 16.1898 17.6278 16.7885 18.4593C17.4239 19.3418 18.4741 20 20 20C21.5259 20 22.5761 19.3418 23.2115 18.4593C23.8102 17.6278 24 16.66 24 16V12C24 11.4477 23.5523 11 23 11C22.4477 11 22 11.4477 22 12V16C22 16.34 21.8898 16.8722 21.5885 17.2907C21.3239 17.6582 20.8741 18 20 18C19.1259 18 18.6761 17.6582 18.4115 17.2907C18.1102 16.8722 18 16.34 18 16V12Z" fill="#D0D7DD"/>
<path fill-rule="evenodd" clip-rule="evenodd" d="M6 5C4.34315 5 3 6.34315 3 8V23C3 24.6569 4.34315 26 6 26H26C27.6569 26 29 24.6569 29 23V8C29 6.34315 27.6569 5 26 5H6ZM5 8C5 7.44772 5.44772 7 6 7H26C26.5523 7 27 7.44771 27 8V23C27 23.5523 26.5523 24 26 24H6C5.44772 24 5 23.5523 5 23V8Z" fill="#D0D7DD"/>
</svg>
