<svg width="20" height="20" viewBox="0 0 20 20" fill="none" xmlns="http://www.w3.org/2000/svg">
<path fill-rule="evenodd" clip-rule="evenodd" d="M9.29183 4.29396C9.68177 3.90285 10.3149 3.90189 10.706 4.29183L15.706 9.27684C15.8939 9.4641 15.9996 9.71829 16 9.98351C16.0004 10.2487 15.8954 10.5032 15.7082 10.6911L10.7082 15.706C10.3182 16.0972 9.68506 16.0981 9.29395 15.7082C8.90284 15.3182 8.9019 14.6851 9.29184 14.294L12.5873 10.9886L5.0015 11C4.44921 11.0008 4.00083 10.5538 4 10.0015C3.99917 9.44921 4.44622 9.00083 4.9985 9L12.5843 8.98863L9.29396 5.70817C8.90285 5.31823 8.90189 4.68507 9.29183 4.29396Z" fill="#B2B8BF"/>
</svg>
