<svg width="24" height="24" viewBox="0 0 24 24" fill="none" xmlns="http://www.w3.org/2000/svg">
<path fill-rule="evenodd" clip-rule="evenodd" d="M8.00226 3.4187C8.00226 2.86642 8.44998 2.4187 9.00226 2.4187H13.7192C15.5459 2.4187 16.98 3.10925 17.9416 4.21C18.886 5.29099 19.3174 6.70008 19.2995 8.06922C19.2817 9.43816 18.8143 10.8362 17.8703 11.9061C16.9099 12.9946 15.4974 13.6937 13.7192 13.6937H9.98047V15.4417H14.654C15.2063 15.4417 15.654 15.8894 15.654 16.4417C15.654 16.9939 15.2063 17.4417 14.654 17.4417H9.98047V21.1809C9.98047 21.7332 9.53275 22.1809 8.98047 22.1809C8.42818 22.1809 7.98047 21.7332 7.98047 21.1809V17.4417H6.24023C5.68795 17.4417 5.24023 16.9939 5.24023 16.4417C5.24023 15.8894 5.68795 15.4417 6.24023 15.4417H7.98047V13.6937H6.24023C5.68795 13.6937 5.24023 13.246 5.24023 12.6937C5.24023 12.1414 5.68795 11.6937 6.24023 11.6937H7.98047V3.6814C7.98047 3.60793 7.98839 3.53632 8.00343 3.46736C8.00265 3.45124 8.00226 3.43502 8.00226 3.4187ZM13.7192 11.6937H9.98047V4.4187H13.7192C15.0065 4.4187 15.8778 4.88752 16.4354 5.52583C17.0103 6.18389 17.3121 7.09355 17.2997 8.04315C17.2873 8.99295 16.9611 9.91365 16.3706 10.5829C15.7967 11.2333 14.9341 11.6937 13.7192 11.6937Z" fill="#B2B8BF"/>
</svg>
