<svg width="24" height="24" viewBox="0 0 24 24" fill="none" xmlns="http://www.w3.org/2000/svg">
<path fill-rule="evenodd" clip-rule="evenodd" d="M19 8C20.6569 8 22 6.65685 22 5C22 3.34315 20.6569 2 19 2C17.3431 2 16 3.34315 16 5C16 6.65685 17.3431 8 19 8Z" fill="#FF9900"/>
<path d="M14.2853 3.33116C13.87 3.20759 13.4406 3.11683 13 3.06189V2C13 1.44772 12.5523 1 12 1C11.4477 1 11 1.44772 11 2V3.06189C7.05369 3.55399 4 6.92038 4 11V17H3C2.44772 17 2 17.4477 2 18C2 18.5523 2.44772 19 3 19H21C21.5523 19 22 18.5523 22 18C22 17.4477 21.5523 17 21 17H20V11C20 10.6317 19.9751 10.2693 19.9269 9.91424C19.6266 9.97055 19.3167 10 19 10C18.6204 10 18.2506 9.95769 17.8952 9.87753C17.964 10.2411 18 10.6164 18 11V17H6V11C6 7.68629 8.68629 5 12 5C12.7057 5 13.3829 5.12182 14.0118 5.34558C14.004 5.2314 14 5.11616 14 5C14 4.4148 14.1005 3.85307 14.2853 3.33116Z" fill="#107F8C"/>
<path d="M9.44475 20.1685C9.90403 19.8618 10.525 19.9855 10.8317 20.4447C11.0298 20.7414 11.4505 21.0001 12.0001 21.0001C12.5497 21.0001 12.9704 20.7414 13.1685 20.4447C13.4752 19.9855 14.0962 19.8618 14.5555 20.1685C15.0147 20.4752 15.1384 21.0962 14.8317 21.5555C14.2314 22.4544 13.1597 23.0001 12.0001 23.0001C10.8405 23.0001 9.76884 22.4544 9.16849 21.5555C8.86178 21.0962 8.98546 20.4752 9.44475 20.1685Z" fill="#107F8C"/>
</svg>
