<svg width="32" height="32" viewBox="0 0 32 32" fill="none" xmlns="http://www.w3.org/2000/svg">
<path fill-rule="evenodd" clip-rule="evenodd" d="M20.7668 24.1344C21.2448 23.8578 21.8566 24.0212 22.1331 24.4993C22.3075 24.8008 22.6311 25 22.9999 25C23.3688 25 23.6924 24.8008 23.8668 24.4993C24.1433 24.0212 24.755 23.8578 25.2331 24.1344C25.7112 24.4109 25.8745 25.0226 25.598 25.5007C25.0808 26.3948 24.1116 27 22.9999 27C21.8883 27 20.9191 26.3948 20.4019 25.5007C20.1254 25.0226 20.2887 24.4109 20.7668 24.1344Z" fill="#565B62"/>
<path fill-rule="evenodd" clip-rule="evenodd" d="M0 8C0 6.89543 0.895431 6 2 6H19C19.5523 6 20 6.44772 20 7C20 7.30327 19.865 7.575 19.6518 7.75839L11.3285 15.1569C10.5708 15.8304 9.42886 15.8304 8.67109 15.1569L2 9.22701V19H12C12.5523 19 13 19.4477 13 20C13 20.5523 12.5523 21 12 21H2C0.89543 21 0 20.1046 0 19V8ZM3.63001 8L9.99981 13.662L16.3696 8H3.63001Z" fill="#565B62"/>
<path fill-rule="evenodd" clip-rule="evenodd" d="M24 8C24 7.44772 23.5523 7 23 7C22.4477 7 22 7.44772 22 8V9.07089C18.6077 9.55612 16 12.4735 16 16V19.5858C16 20.0968 15.838 20.5911 15.5424 21H15C14.4477 21 14 21.4477 14 22C14 22.5523 14.4477 23 15 23H31C31.5523 23 32 22.5523 32 22C32 21.4477 31.5523 21 31 21H30.4576C30.162 20.5911 30 20.0968 30 19.5858V16C30 12.4735 27.3923 9.55612 24 9.07089V8ZM28 19.5858C28 20.0713 28.08 20.5486 28.2327 21H17.7673C17.92 20.5486 18 20.0713 18 19.5858V16C18 13.2386 20.2386 11 23 11C25.7614 11 28 13.2386 28 16V19.5858Z" fill="#565B62"/>
</svg>
