<svg width="24" height="24" viewBox="0 0 24 24" fill="none" xmlns="http://www.w3.org/2000/svg">
<path fill-rule="evenodd" clip-rule="evenodd" d="M18.0114 16.6333L21.7192 20.3139C22.0936 20.7016 22.0936 21.3165 21.7192 21.7042C21.5315 21.8935 21.2761 22 21.0096 22C20.7431 22 20.4877 21.8935 20.3 21.7042L16.6222 18.0235C12.8961 21.0143 7.48392 20.5687 4.29619 17.0089C1.10846 13.4491 1.257 8.01654 4.63449 4.63649C8.01198 1.25644 13.4404 1.10778 16.9975 4.29794C20.5546 7.48809 20.9998 12.9044 18.0114 16.6333ZM4.01971 11.0224C4.01971 14.889 7.15186 18.0235 11.0155 18.0235C12.871 18.0235 14.6504 17.2859 15.9624 15.973C17.2743 14.66 18.0114 12.8792 18.0114 11.0224C18.0114 7.15577 14.8792 4.02125 11.0155 4.02125C7.15186 4.02125 4.01971 7.15577 4.01971 11.0224Z" fill="#565B62"/>
</svg>
