<svg width="24" height="24" viewBox="0 0 24 24" fill="none" xmlns="http://www.w3.org/2000/svg">
<path d="M14.591 6C11.0379 6 8.18312 8.87433 8.18312 12.3872C8.18312 15.929 11.0661 18.7744 14.5902 18.7744C18.1144 18.7744 21 15.9 21 12.3872C21 8.87433 18.1151 6 14.591 6ZM14.591 14.7678C13.2804 14.7678 12.2032 13.6936 12.2032 12.3872C12.2032 11.0808 13.2804 10.0065 14.591 10.0065C15.9015 10.0065 16.9792 11.0808 16.9792 12.3872C16.9498 13.6936 15.9015 14.7678 14.591 14.7678ZM8.18312 7.85576V17.1462H5.91271L3 7.85576H8.18312Z" fill="#1F1F22"/>
</svg>
