<svg width="32" height="33" viewBox="0 0 32 33" fill="none" xmlns="http://www.w3.org/2000/svg">
<g clip-path="url(#clip0_28658_38)">
<path fill-rule="evenodd" clip-rule="evenodd" d="M16 32.5C24.8366 32.5 32 25.3366 32 16.5C32 7.66344 24.8366 0.5 16 0.5C7.16344 0.5 0 7.66344 0 16.5C0 25.3366 7.16344 32.5 16 32.5Z" fill="#252F3D"/>
<mask id="mask0_28658_38" style="mask-type:alpha" maskUnits="userSpaceOnUse" x="0" y="0" width="32" height="33">
<path fill-rule="evenodd" clip-rule="evenodd" d="M16 32.5C24.8366 32.5 32 25.3366 32 16.5C32 7.66344 24.8366 0.5 16 0.5C7.16344 0.5 0 7.66344 0 16.5C0 25.3366 7.16344 32.5 16 32.5Z" fill="white"/>
</mask>
<g mask="url(#mask0_28658_38)">
<path d="M11.1999 14.8582C11.1999 15.1051 11.2291 15.3053 11.2803 15.4522C11.3389 15.599 11.412 15.7592 11.5145 15.9327C11.5511 15.9861 11.5657 16.0395 11.5657 16.0862C11.5657 16.1529 11.5218 16.2197 11.4267 16.2864L10.9657 16.5667C10.8999 16.6068 10.834 16.6268 10.7755 16.6268C10.7023 16.6268 10.6291 16.5934 10.556 16.5334C10.4535 16.4333 10.3657 16.3265 10.2925 16.2197C10.2194 16.1062 10.1462 15.9794 10.0657 15.8259C9.49499 16.4399 8.77793 16.7469 7.91452 16.7469C7.2999 16.7469 6.80966 16.5868 6.45113 16.2664C6.09259 15.946 5.90967 15.5189 5.90967 14.985C5.90967 14.4177 6.12918 13.9572 6.57551 13.6101C7.02185 13.2631 7.61453 13.0895 8.36818 13.0895C8.61696 13.0895 8.87305 13.1096 9.14378 13.1429C9.41451 13.1763 9.69255 13.2297 9.98523 13.2898V12.8026C9.98523 12.2953 9.86816 11.9416 9.64133 11.7347C9.40719 11.5278 9.01207 11.4277 8.44866 11.4277C8.19257 11.4277 7.92916 11.4544 7.65843 11.5145C7.3877 11.5745 7.12429 11.6479 6.86819 11.7414C6.75112 11.7881 6.66332 11.8148 6.6121 11.8281C6.56088 11.8415 6.5243 11.8482 6.49503 11.8482C6.39259 11.8482 6.34137 11.7814 6.34137 11.6413V11.3142C6.34137 11.2075 6.356 11.1274 6.39259 11.0806C6.42917 11.0339 6.49503 10.9872 6.59747 10.9405C6.85356 10.8204 7.16087 10.7202 7.51941 10.6402C7.87794 10.5534 8.25842 10.5133 8.66086 10.5133C9.53158 10.5133 10.1682 10.6935 10.5779 11.0539C10.9803 11.4143 11.1852 11.9616 11.1852 12.6958V14.8582H11.1999ZM8.22915 15.8726C8.47062 15.8726 8.71939 15.8326 8.9828 15.7525C9.24622 15.6724 9.48036 15.5256 9.67792 15.3254C9.79499 15.1986 9.88279 15.0584 9.9267 14.8982C9.9706 14.738 9.99987 14.5445 9.99987 14.3176V14.0373C9.78767 13.9905 9.56085 13.9505 9.3267 13.9238C9.09256 13.8971 8.86573 13.8838 8.63891 13.8838C8.14867 13.8838 7.79014 13.9705 7.54867 14.1507C7.30721 14.3309 7.19014 14.5845 7.19014 14.9182C7.19014 15.2319 7.27795 15.4655 7.46087 15.6257C7.63648 15.7925 7.89257 15.8726 8.22915 15.8726ZM14.1047 16.5934C13.973 16.5934 13.8852 16.5734 13.8267 16.5267C13.7681 16.4867 13.7169 16.3932 13.673 16.2664L11.9535 11.1073C11.9096 10.9739 11.8877 10.8871 11.8877 10.8404C11.8877 10.7336 11.9462 10.6735 12.0633 10.6735H12.7803C12.9193 10.6735 13.0145 10.6935 13.0657 10.7403C13.1242 10.7803 13.1681 10.8737 13.212 11.0006L14.4413 15.4188L15.5827 11.0006C15.6193 10.8671 15.6632 10.7803 15.7218 10.7403C15.7803 10.7002 15.8827 10.6735 16.0144 10.6735H16.5998C16.7388 10.6735 16.8339 10.6935 16.8925 10.7403C16.951 10.7803 17.0022 10.8737 17.0315 11.0006L18.1876 15.4722L19.4534 11.0006C19.4973 10.8671 19.5485 10.7803 19.5998 10.7403C19.6583 10.7002 19.7534 10.6735 19.8851 10.6735H20.5656C20.6827 10.6735 20.7485 10.7269 20.7485 10.8404C20.7485 10.8737 20.7412 10.9071 20.7339 10.9472C20.7266 10.9872 20.7119 11.0406 20.6827 11.114L18.9193 16.2731C18.8754 16.4066 18.8242 16.4933 18.7656 16.5334C18.7071 16.5734 18.612 16.6001 18.4876 16.6001H17.8583C17.7193 16.6001 17.6242 16.5801 17.5656 16.5334C17.5071 16.4866 17.4559 16.3999 17.4266 16.2664L16.2925 11.9616L15.1657 16.2597C15.1291 16.3932 15.0852 16.48 15.0266 16.5267C14.9681 16.5734 14.8657 16.5934 14.734 16.5934H14.1047ZM23.507 16.7736C23.1266 16.7736 22.7461 16.7336 22.3802 16.6535C22.0144 16.5734 21.729 16.4866 21.5388 16.3865C21.4217 16.3265 21.3412 16.2597 21.3119 16.1997C21.2827 16.1396 21.268 16.0729 21.268 16.0128V15.6724C21.268 15.5323 21.3266 15.4655 21.4363 15.4655C21.4802 15.4655 21.5241 15.4722 21.568 15.4855C21.6119 15.4989 21.6778 15.5256 21.751 15.5523C21.9997 15.6524 22.2705 15.7325 22.5558 15.7859C22.8485 15.8393 23.1339 15.866 23.4265 15.866C23.8875 15.866 24.2461 15.7925 24.4948 15.6457C24.7436 15.4989 24.8753 15.2853 24.8753 15.0117C24.8753 14.8248 24.8095 14.6713 24.6778 14.5445C24.546 14.4177 24.2973 14.3042 23.9387 14.1974L22.8778 13.8971C22.3436 13.7436 21.9485 13.5167 21.7071 13.2164C21.4656 12.9227 21.3412 12.5957 21.3412 12.2486C21.3412 11.9683 21.4071 11.7214 21.5388 11.5078C21.6705 11.2942 21.8461 11.1073 22.0656 10.9605C22.2851 10.807 22.5339 10.6935 22.8266 10.6135C23.1192 10.5334 23.4265 10.5 23.7485 10.5C23.9095 10.5 24.0778 10.5067 24.2387 10.5267C24.407 10.5467 24.5607 10.5734 24.7143 10.6001C24.8607 10.6335 24.9997 10.6669 25.1314 10.7069C25.2631 10.7469 25.3656 10.787 25.4387 10.827C25.5412 10.8804 25.6143 10.9338 25.6582 10.9939C25.7021 11.0473 25.7241 11.1207 25.7241 11.2141V11.5278C25.7241 11.668 25.6655 11.7414 25.5558 11.7414C25.4973 11.7414 25.4021 11.7147 25.2777 11.6613C24.8607 11.4878 24.3924 11.401 23.8729 11.401C23.4558 11.401 23.1266 11.4611 22.8997 11.5879C22.6729 11.7147 22.5558 11.9082 22.5558 12.1819C22.5558 12.3687 22.629 12.5289 22.7753 12.6557C22.9217 12.7825 23.1924 12.9093 23.5802 13.0228L24.6192 13.3231C25.146 13.4766 25.5265 13.6902 25.7534 13.9638C25.9802 14.2375 26.0899 14.5512 26.0899 14.8982C26.0899 15.1852 26.0241 15.4455 25.8997 15.6724C25.768 15.8993 25.5924 16.0996 25.3656 16.2597C25.1387 16.4266 24.868 16.5467 24.5534 16.6335C24.2241 16.7269 23.8802 16.7736 23.507 16.7736Z" fill="white"/>
<path d="M24.8899 20.0172C22.4826 21.639 18.9851 22.4999 15.9778 22.4999C11.7632 22.4999 7.96572 21.0784 5.09746 18.7157C4.87064 18.5289 5.07551 18.2753 5.34624 18.4221C8.44865 20.0639 12.2754 21.0583 16.2339 21.0583C18.9046 21.0583 21.8387 20.5511 24.5387 19.51C24.9411 19.3431 25.285 19.7502 24.8899 20.0172ZM25.8924 18.976C25.585 18.6156 23.8582 18.8025 23.0753 18.8893C22.8412 18.916 22.8046 18.7291 23.0168 18.5889C24.3924 17.708 26.6533 17.9616 26.9167 18.2552C27.1801 18.5556 26.8436 20.6179 25.5558 21.6056C25.3582 21.7591 25.168 21.679 25.2558 21.4788C25.5485 20.8181 26.1997 19.3298 25.8924 18.976Z" fill="#FF9900"/>
</g>
</g>
<defs>
<clipPath id="clip0_28658_38">
<rect width="32" height="32" fill="white" transform="translate(0 0.5)"/>
</clipPath>
</defs>
</svg>
