<svg width="32" height="32" viewBox="0 0 32 32" fill="none" xmlns="http://www.w3.org/2000/svg">
<g clip-path="url(#clip0)">
<path fill-rule="evenodd" clip-rule="evenodd" d="M16 32C24.8366 32 32 24.8366 32 16C32 7.16344 24.8366 0 16 0C7.16344 0 0 7.16344 0 16C0 24.8366 7.16344 32 16 32Z" fill="black"/>
<path fill-rule="evenodd" clip-rule="evenodd" d="M18.6917 9.33698C19.3206 8.58258 19.6361 7.76753 19.6361 6.8946V6.89459C19.6361 6.77881 19.6308 6.66211 19.618 6.54541C19.1799 6.56838 18.7141 6.70254 18.2216 6.94513C17.7281 7.19139 17.3211 7.5001 17.0012 7.87138C16.3602 8.60466 15.9993 9.5015 15.9993 10.3395C15.9993 10.4553 16.0067 10.5655 16.0193 10.6703C17.0148 10.752 17.9328 10.2338 18.6917 9.33698ZM22.0397 21.835C22.3979 21.3189 22.707 20.7576 22.9681 20.1478C23.0758 19.8892 23.1771 19.6199 23.273 19.3387C22.8306 19.1512 22.4331 18.8872 22.077 18.5457C21.2915 17.8098 20.8917 16.883 20.88 15.7693C20.8672 14.3395 21.51 13.2249 22.8093 12.4291C22.0834 11.3862 20.9919 10.8073 19.5391 10.6888C19.0029 10.6428 18.3485 10.7596 17.573 11.0417C16.753 11.3458 16.2693 11.4984 16.1266 11.4984C15.9357 11.4984 15.5002 11.3679 14.8221 11.1106C14.1421 10.8542 13.5948 10.7237 13.1775 10.7237C12.4149 10.7365 11.7067 10.9369 11.0512 11.3302C10.3958 11.7234 9.87212 12.2591 9.47848 12.9382C8.9776 13.7837 8.72754 14.7925 8.72754 15.9623C8.72754 16.9835 8.91301 18.0382 9.28299 19.1275C9.62845 20.1359 10.0694 21.0205 10.6058 21.7833C11.1057 22.4976 11.523 23.0019 11.8566 23.296C12.3794 23.7873 12.903 24.0211 13.4284 23.9985C13.7739 23.9866 14.2257 23.867 14.7866 23.6375C15.3466 23.4091 15.8702 23.296 16.3584 23.296C16.8239 23.296 17.333 23.4091 17.8869 23.6375C18.4391 23.867 18.9134 23.9801 19.3067 23.9801C19.8546 23.9672 20.3662 23.7399 20.8438 23.296C21.1518 23.0256 21.5515 22.5386 22.0397 21.835Z" fill="white"/>
</g>
<defs>
<clipPath id="clip0">
<rect width="32" height="32" fill="white"/>
</clipPath>
</defs>
</svg>
