<svg width="24" height="24" viewBox="0 0 24 24" fill="none" xmlns="http://www.w3.org/2000/svg">
<path d="M11.99 5.61277V2C6.47105 2.00998 2 6.48103 2 12C2 17.5289 6.48103 22.0099 12 22C17.5189 22 22 17.5189 22 11.97H18.3872C18.3872 15.5529 15.503 18.3872 12 18.3872C8.47703 18.3872 5.61277 15.5229 5.61277 12C5.61277 8.47703 8.46705 5.62275 11.99 5.61277Z" fill="#E4E8EB"/>
<path d="M20.1936 6.38123C20.1936 4.97405 19.0559 3.83632 17.6487 3.83632C16.2415 3.83632 15.1038 4.97405 15.1038 6.38123C15.1038 7.78841 16.2415 8.92614 17.6487 8.92614C19.0559 8.92614 20.1936 7.78841 20.1936 6.38123Z" fill="#E4E8EB"/>
<path d="M12.0299 7.55884C9.57477 7.55884 7.58875 9.54486 7.58875 11.9999C7.58875 14.455 9.57477 16.4411 12.0299 16.4411C14.4849 16.4411 16.471 14.4451 16.471 11.9999C16.471 9.54486 14.475 7.55884 12.0299 7.55884Z" fill="#E4E8EB"/>
</svg>
