<svg width="32" height="33" viewBox="0 0 32 33" fill="none" xmlns="http://www.w3.org/2000/svg">
<g clip-path="url(#clip0_49350_4404)">
<path fill-rule="evenodd" clip-rule="evenodd" d="M16 32.5C24.8366 32.5 32 25.3366 32 16.5C32 7.66344 24.8366 0.5 16 0.5C7.16344 0.5 0 7.66344 0 16.5C0 25.3366 7.16344 32.5 16 32.5Z" fill="#FF4858"/>
<path fill-rule="evenodd" clip-rule="evenodd" d="M20.9787 17.3145C20.8454 17.7745 20.5251 18.1764 20.1059 18.4083C19.7343 18.6161 19.291 18.6873 18.872 18.6173C18.3386 18.5344 17.8599 18.2513 17.4452 17.9171C17.1404 17.6722 16.866 17.3923 16.6029 17.1037C17.0182 16.5788 17.4092 16.0294 17.7079 15.4289C17.9687 14.903 18.1668 14.3332 18.1857 13.742C18.1962 13.3668 18.1256 12.9847 17.9505 12.6507C17.7209 12.2044 17.3099 11.8616 16.8387 11.6957C16.3984 11.5385 15.909 11.5244 15.4599 11.6525C15.0364 11.7723 14.6496 12.0268 14.3845 12.3797C14.1512 12.6873 14.0182 13.0655 13.9874 13.4491C13.9399 14.0016 14.0784 14.5527 14.2878 15.0606C14.5992 15.8026 15.0562 16.4742 15.5609 17.0975C15.334 17.3606 15.0857 17.6052 14.8221 17.8315C14.4123 18.1783 13.9435 18.4802 13.4124 18.5951C12.983 18.6914 12.5197 18.6436 12.1259 18.4443C11.6647 18.2143 11.3105 17.7815 11.1769 17.2838C11.0748 16.9183 11.0975 16.5237 11.2189 16.1655C11.3199 15.8692 11.457 15.5868 11.5852 15.3017C12.4748 13.3619 13.4094 11.4427 14.3853 9.54487C14.5309 9.26242 14.6743 8.97866 14.8285 8.70086C14.9543 8.47707 15.1006 8.25732 15.3074 8.10017C15.5286 7.92714 15.8101 7.83258 16.091 7.83896C16.3824 7.83552 16.6718 7.94281 16.8946 8.13C17.1146 8.31274 17.2633 8.56272 17.3968 8.8119C17.6985 9.37872 17.9884 9.95211 18.2783 10.5249C19.1055 12.1628 19.9011 13.8164 20.6631 15.4856C20.7783 15.7449 20.9015 16.0022 20.9791 16.2758C21.0739 16.6133 21.0771 16.9777 20.9787 17.3145ZM16.0849 16.4797C15.9337 16.3016 15.8005 16.1091 15.6667 15.918C15.4416 15.5878 15.2369 15.2427 15.0723 14.878C14.9374 14.5754 14.8291 14.2578 14.7868 13.9279C14.7559 13.6662 14.7633 13.3932 14.8594 13.1447C14.9454 12.9117 15.1106 12.7099 15.3199 12.5765C15.8187 12.2546 16.5297 12.2894 16.9817 12.6798C17.2103 12.8747 17.347 13.1628 17.3814 13.4589C17.4263 13.8525 17.3368 14.2478 17.1995 14.6149C16.9399 15.2961 16.5291 15.9067 16.0849 16.4797ZM21.8172 16.7135C21.8132 16.3591 21.7303 16.0092 21.601 15.6806C21.5013 15.4261 21.3855 15.1784 21.2725 14.9297C20.373 12.9687 19.4284 11.0289 18.4406 9.11083C18.3017 8.84285 18.1658 8.57324 18.0189 8.3094C17.8748 8.05203 17.7068 7.80427 17.4895 7.60282C17.1427 7.27224 16.6775 7.07514 16.1999 7.04541H15.9801C15.4885 7.06968 15.0087 7.27598 14.6559 7.61981C14.4466 7.81812 14.2846 8.05992 14.1442 8.31011C13.9994 8.5696 13.8653 8.83496 13.729 9.0987C13.0659 10.3854 12.4228 11.6824 11.7991 12.9885C11.4273 13.7702 11.0587 14.5532 10.7042 15.3426C10.5571 15.6715 10.4242 16.0116 10.3741 16.3706C10.2814 16.9767 10.4143 17.6129 10.7382 18.1334C11.0173 18.5854 11.4362 18.9499 11.9246 19.1604C12.3042 19.3245 12.7235 19.3992 13.1364 19.3748C13.6909 19.3454 14.2255 19.1462 14.6947 18.8555C15.218 18.5344 15.6656 18.1071 16.0823 17.6599C16.4698 18.0776 16.8847 18.476 17.3633 18.7885C17.8257 19.0927 18.3528 19.313 18.9074 19.3653C19.5096 19.4282 20.1336 19.279 20.639 18.9437C21.0836 18.6509 21.4346 18.2189 21.6314 17.7243C21.7593 17.404 21.8233 17.0581 21.8172 16.7135Z" fill="white"/>
<path fill-rule="evenodd" clip-rule="evenodd" d="M11.7667 20.9037C12.0159 20.8473 12.2881 21.0116 12.3529 21.259C12.4333 21.5122 12.2735 21.8064 12.019 21.8795C11.7705 21.9671 11.4753 21.8151 11.393 21.5669C11.3149 21.3577 11.3984 21.1052 11.5839 20.9817C11.6386 20.9435 11.7019 20.9181 11.7667 20.9037Z" fill="white"/>
<path fill-rule="evenodd" clip-rule="evenodd" d="M13.4495 22.5378C13.5996 22.3746 13.811 22.2723 14.0289 22.2398C14.1737 22.2257 14.3213 22.2349 14.4632 22.2673C14.4614 22.497 14.4628 22.7264 14.4624 22.9561C14.239 22.8984 13.9971 22.8863 13.7779 22.9671C13.6595 23.0103 13.5506 23.0813 13.4644 23.1731C13.4456 23.1891 13.4501 23.2152 13.4484 23.2376C13.4497 23.8792 13.4474 24.521 13.4493 25.1625C13.4471 25.1872 13.453 25.215 13.4421 25.2382C13.1944 25.2439 12.9463 25.2393 12.6984 25.2402C12.6985 24.262 12.6976 23.2836 12.699 22.3053C12.9078 22.3063 13.1166 22.3045 13.3254 22.3057C13.3713 22.3031 13.4203 22.3266 13.4371 22.3714C13.4536 22.4251 13.4483 22.4822 13.4495 22.5378Z" fill="white"/>
<path fill-rule="evenodd" clip-rule="evenodd" d="M18.7922 22.5403C18.9905 22.3351 19.2779 22.2342 19.5599 22.2336C19.858 22.2261 20.1634 22.3142 20.3936 22.5075C20.5459 22.6267 20.658 22.7947 20.7086 22.9815C20.7743 23.2103 20.7683 23.4505 20.7675 23.6859C20.7677 24.2041 20.7675 24.7223 20.7677 25.2406C20.5178 25.2402 20.268 25.2423 20.0181 25.2395C20.0183 24.7216 20.0181 24.2038 20.0183 23.6857C20.0183 23.4933 20.0274 23.2856 19.9251 23.1143C19.8538 22.9912 19.7128 22.9301 19.5767 22.9158C19.3176 22.8743 19.047 22.9773 18.8684 23.1662C18.8494 23.1852 18.8331 23.2093 18.8353 23.238C18.8328 23.3181 18.845 23.3985 18.8381 23.4787C18.8283 23.5876 18.8435 23.6966 18.84 23.8058C18.8363 24.0118 18.8371 24.2176 18.8392 24.4235C18.825 24.6958 18.8497 24.9692 18.8334 25.2411C18.5846 25.2403 18.3359 25.2409 18.087 25.2408C18.0869 24.2621 18.0853 23.2836 18.0879 22.3051C18.2804 22.3064 18.4732 22.3051 18.6656 22.3057C18.7153 22.3025 18.7697 22.3304 18.7826 22.3809C18.7943 22.4329 18.7908 22.487 18.7922 22.5403Z" fill="white"/>
<path fill-rule="evenodd" clip-rule="evenodd" d="M11.4928 25.2408C11.4927 24.2622 11.4912 23.2836 11.4933 22.3052C11.7412 22.3058 11.9891 22.3056 12.237 22.3054C12.2389 23.2838 12.2375 24.2624 12.2377 25.2407C11.9894 25.2407 11.7411 25.2405 11.4928 25.2408Z" fill="white"/>
<path fill-rule="evenodd" clip-rule="evenodd" d="M10.2584 24.3262C10.1067 24.508 9.86977 24.6152 9.63314 24.6078C9.37951 24.6097 9.11627 24.5125 8.95194 24.3136C8.79166 24.1237 8.74322 23.8595 8.77962 23.6181C8.80682 23.4228 8.90643 23.2354 9.06379 23.1141C9.20648 23.0015 9.38638 22.9434 9.56649 22.9309C9.83478 22.9075 10.1176 23.0258 10.279 23.2424C10.2881 23.5613 10.2792 23.8811 10.2833 24.2006C10.2807 24.2427 10.2923 24.2933 10.2584 24.3262ZM11.0308 22.3055C10.8343 22.3051 10.6378 22.306 10.4411 22.3043C10.3892 22.304 10.3228 22.3065 10.2974 22.3611C10.2747 22.4173 10.2834 22.4796 10.2814 22.5386C10.1178 22.3646 9.88737 22.2612 9.65093 22.2387C9.28586 22.206 8.90755 22.3072 8.61438 22.5289C8.37289 22.7073 8.1944 22.9653 8.10096 23.2494C8.05595 23.3826 8.0334 23.5224 8.01904 23.662V23.863C8.03998 24.2836 8.22706 24.6995 8.5534 24.9707C8.79954 25.1793 9.11587 25.2958 9.43634 25.3161H9.6034C9.85744 25.299 10.1082 25.1939 10.2816 25.0046C10.2832 25.064 10.2748 25.1269 10.297 25.1837C10.3202 25.2297 10.3748 25.2423 10.4222 25.2405C10.625 25.24 10.8281 25.2407 11.031 25.2396C11.031 24.2618 11.0316 23.2835 11.0308 22.3055Z" fill="white"/>
<path fill-rule="evenodd" clip-rule="evenodd" d="M16.7842 24.3803C16.6168 24.5358 16.385 24.6103 16.1586 24.6081C15.9225 24.6135 15.6866 24.505 15.537 24.3223C15.5185 24.3032 15.5124 24.2775 15.514 24.2522C15.5142 23.9164 15.5145 23.5805 15.514 23.2448C15.6576 23.0575 15.8874 22.9408 16.1225 22.9287C16.3609 22.9218 16.611 22.9918 16.7859 23.1598C16.9525 23.3144 17.0339 23.5463 17.0286 23.7709C17.0335 23.9952 16.95 24.2256 16.7842 24.3803ZM17.6585 23.1452C17.543 22.8627 17.3381 22.6172 17.0783 22.457C16.8109 22.2905 16.4901 22.2153 16.1764 22.2366C15.9289 22.2529 15.6869 22.3586 15.515 22.5392C15.514 21.991 15.515 21.4431 15.5145 20.8949C15.2645 20.895 15.0143 20.8937 14.7643 20.8956C14.7656 22.3434 14.7622 23.7923 14.7661 25.24C14.9731 25.2405 15.1803 25.241 15.3875 25.2405C15.4389 25.2446 15.4944 25.2163 15.5086 25.1642C15.5188 25.1113 15.5151 25.0566 15.5154 25.0028C15.6891 25.1959 15.9444 25.3009 16.2009 25.3164H16.354C16.7696 25.2955 17.1771 25.1008 17.4379 24.7743C17.8032 24.3263 17.8745 23.6753 17.6585 23.1452Z" fill="white"/>
<path fill-rule="evenodd" clip-rule="evenodd" d="M23.2425 24.2959C23.0445 24.5506 22.6954 24.6454 22.3856 24.5959C22.197 24.5583 22.0142 24.4565 21.9025 24.2976C21.8901 24.1742 21.9013 24.0494 21.8976 23.9256C21.9003 23.6978 21.892 23.4691 21.9013 23.2418C22.0148 23.0854 22.1964 22.9851 22.3833 22.9436C22.7291 22.8797 23.1312 23.0167 23.3061 23.3361C23.4652 23.6318 23.4495 24.0267 23.2425 24.2959ZM23.8266 22.7818C23.5087 22.3769 22.9652 22.1726 22.4583 22.2483C22.2467 22.2817 22.0461 22.3832 21.8982 22.539C21.8965 21.9911 21.8982 21.4432 21.8974 20.8951C21.6478 20.8948 21.3985 20.8945 21.149 20.8953C21.1488 22.3433 21.149 23.7917 21.149 25.24C21.3457 25.2415 21.5429 25.2397 21.7397 25.2415C21.7913 25.2422 21.8559 25.2381 21.8824 25.1854C21.9053 25.1282 21.8968 25.0647 21.8984 25.0048C22.0708 25.1937 22.3205 25.2979 22.5731 25.3164H22.7416C23.1525 25.2941 23.5543 25.1023 23.8146 24.7807C24.0272 24.5242 24.142 24.1957 24.1609 23.865V23.6687C24.1374 23.3493 24.0295 23.0322 23.8266 22.7818Z" fill="white"/>
</g>
<defs>
<clipPath id="clip0_49350_4404">
<rect width="32" height="32" fill="white" transform="translate(0 0.5)"/>
</clipPath>
</defs>
</svg>
