<svg width="24" height="24" viewBox="0 0 24 24" fill="none" xmlns="http://www.w3.org/2000/svg">
<path d="M11.9988 4C13.0924 4 13.4505 4.79658 13.7215 5.59315C13.8425 5.92752 16.688 13.8343 16.7703 14.0703C16.7862 14.1114 16.7854 14.1572 16.7682 14.1977C16.751 14.2383 16.7187 14.2702 16.6783 14.2867L15.0185 14.9406C14.9786 14.9536 14.9355 14.9506 14.8977 14.9323C14.8599 14.9141 14.8305 14.8819 14.8152 14.8423C14.7862 14.7587 14.1764 13.0377 14.1038 12.841H9.89367C9.82592 13.0377 9.20649 14.7636 9.17746 14.8423C9.17098 14.8627 9.16047 14.8815 9.14658 14.8976C9.13269 14.9137 9.11571 14.9268 9.09669 14.936C9.07766 14.9452 9.05698 14.9503 9.03592 14.9511C9.01486 14.9519 8.99386 14.9484 8.97421 14.9406C8.89194 14.9013 7.40628 14.3211 7.31918 14.2867C7.29879 14.2791 7.28014 14.2674 7.26435 14.2522C7.24857 14.2371 7.236 14.2188 7.22739 14.1986C7.21878 14.1783 7.21433 14.1565 7.2143 14.1345C7.21428 14.1124 7.21868 14.0906 7.22723 14.0703C7.32885 13.7753 10.1308 5.99636 10.2711 5.59315C10.547 4.831 10.9051 4 11.9988 4ZM6.99978 18.1417C6.95699 18.143 6.91637 18.1612 6.88656 18.1924C6.85674 18.2236 6.84007 18.2654 6.84009 18.3089V20.1577C6.84009 20.2008 6.85691 20.242 6.88686 20.2725C6.91681 20.3029 6.95743 20.32 6.99978 20.32H16.9929C17.0352 20.32 17.0759 20.3029 17.1058 20.2725C17.1358 20.242 17.1526 20.2008 17.1526 20.1577V18.3089C17.1526 18.2654 17.1359 18.2236 17.1061 18.1924C17.0763 18.1612 17.0357 18.143 16.9929 18.1417H6.99978ZM11.9891 6.5815L10.5663 10.9233H13.436L11.9842 6.5815H11.9891Z" fill="#E4E8EB"/>
</svg>
