<svg width="24" height="24" viewBox="0 0 24 24" fill="none" xmlns="http://www.w3.org/2000/svg">
<path d="M15.8049 1.526C15.7922 1.63466 15.7671 1.77264 15.7356 1.91763C16.0131 2.018 16.4117 2.18728 16.9312 2.42549L17.0324 2.47394C20.6677 4.32743 23 8.02199 23 12.1281C23 18.1319 18.0748 23 11.999 23C5.92485 23 1 18.1316 1 12.1281C1 6.1284 5.92496 1.26289 11.999 1.26289C12.4898 1.26289 12.9872 1.30058 13.4602 1.37696L13.8099 1.44152L14.6017 1.17747L14.9147 1.07849C14.942 1.07035 14.9671 1.06304 14.9906 1.05646L15.1341 1.02005C15.5404 0.924838 15.8421 1.18114 15.8049 1.526ZM15.5159 17.5275C15.5159 17.5275 15.5897 20.9495 13.2136 22.0788C13.8814 22.0009 14.5673 21.8543 15.1886 21.6525L15.1935 21.6505C15.5368 20.8601 15.9145 18.9818 15.5159 17.5275ZM15.2129 1.35003L15.1186 1.37322L14.835 1.45883L14.0817 1.70775L13.8354 1.76901L13.5051 1.71769C13.3528 1.7658 13.2214 1.80466 13.1277 1.8272C12.692 1.93766 9.82445 2.91556 8.09233 4.54433L8.10477 4.51167C8.17147 4.34053 8.50876 3.52168 9.17784 2.64431L9.3072 2.47926C8.66284 2.65688 8.09717 2.87066 7.51052 3.16073C6.58575 4.40009 5.42414 6.83152 5.42414 8.87474L5.41672 8.85103C5.35463 8.64668 4.93268 7.13548 5.28659 4.87554L5.33093 4.61149L5.32206 4.62221C4.72612 5.14236 4.20443 5.71256 3.74527 6.35629C3.63633 7.80863 3.62705 9.73621 4.82578 12.4283C4.82578 12.4283 3.68982 11.6195 2.61777 8.93751L2.51426 8.67209L2.50741 8.68798C2.16445 9.617 1.95585 10.585 1.90421 11.6201C2.88546 13.3927 4.36219 15.1701 7.32976 16.7575C7.32976 16.7575 4.89316 16.4071 2.14549 14.3638L2.24968 14.7757C2.47483 15.5958 2.80016 16.3657 3.218 17.0864L3.4346 17.4426C4.9323 18.0907 7.24866 18.92 10.5685 18.73C10.5685 18.73 8.77138 19.7353 5.09692 19.4401C5.09692 19.4401 5.73683 20.2189 7.427 21.0184C8.95456 21.74 10.9441 21.291 11.607 20.8555C12.4043 20.3334 13.2766 19.0551 12.8566 17.4565C12.8566 17.4565 12.5298 18.0748 11.7414 18.3152C11.7414 18.3152 12.3651 17.832 12.3651 16.9455C12.3651 16.059 11.628 15.4609 10.7052 15.3855C9.97011 15.3235 8.74596 15.4129 8.36589 15.4129C7.98339 15.4129 7.46371 15.4129 7.11188 14.9821C7.11188 14.9821 7.62873 14.9662 8.17383 14.847C8.6116 14.7533 9.53436 14.4167 10.079 14.4441C10.079 14.4441 9.88901 14.1946 9.45326 14.2013C9.1797 14.2057 9.122 14.2903 8.9364 14.3388C8.681 14.4004 8.22225 14.4167 7.95595 13.9196C7.95595 13.9196 8.33563 14.2125 8.66486 14.1211C8.9364 14.0432 8.96424 13.9331 9.07318 13.8509C9.1797 13.7726 9.38144 13.6995 9.57147 13.6995C9.76151 13.6995 9.94227 13.7456 10.1069 13.8783C10.2695 14.0134 10.5959 13.986 10.4063 13.798C10.2162 13.6105 9.94227 13.4269 9.53435 13.4225C8.84602 13.4134 7.60291 13.5552 7.16716 13.7726C6.86132 13.9216 6.62932 14.1119 6.51837 14.247C6.48125 14.2975 6.39531 14.2999 6.40015 14.2125C6.41871 13.796 6.59704 12.6663 7.13004 12.1855C7.68441 11.6833 9.13088 11.3225 9.70139 11.2148C9.70139 11.2148 9.55493 10.8882 9.72439 10.6776C9.97011 10.374 10.7795 9.799 15.5692 9.799C15.5692 9.799 15.3069 10.0064 15.1984 10.1681C15.1984 10.1681 17.0644 10.2687 18.1103 10.7852C18.2639 10.859 18.5567 10.891 18.6856 10.3037L18.7106 10.1681L18.4092 9.979C18.4092 9.979 18.4371 9.87012 18.4645 9.73621C18.4927 9.6019 18.4645 9.57568 18.356 9.62972C18.2446 9.68217 18.2192 9.73621 18.2192 9.73621C18.2192 9.73621 17.9476 9.84708 17.9198 9.68217C17.8944 9.52084 17.593 9.11753 16.9926 9.03726C16.9926 9.03726 17.2944 8.63434 17.9848 8.72374C17.9848 8.72374 18.0384 8.92044 18.1845 8.86679C18.3281 8.81394 18.5299 8.68798 18.546 8.84971C18.5642 9.00984 18.6364 9.27925 19.0169 8.86679C19.0169 8.86679 19.399 9.06269 19.7443 8.93792C20.0877 8.81394 20.3354 8.59182 20.4169 8.04227C20.4331 7.9175 20.4331 7.88055 20.5238 7.77406C20.6162 7.66637 20.6856 7.51498 20.5238 7.38028C20.308 7.20147 19.6358 6.82239 19.3622 6.67894C19.0907 6.53589 18.6202 6.37456 18.5831 5.316C18.5526 4.44761 18.303 3.91742 17.4787 3.10883C17.3689 3.04252 17.2583 2.97955 17.1463 2.91842L16.8578 2.76791C16.8613 2.80742 16.8672 2.84624 16.8768 2.879C16.8768 2.879 16.7764 2.76664 16.5606 2.62479L16.7781 2.7291C16.3676 2.52386 15.9327 2.3429 15.4777 2.1869C15.3945 2.15837 15.3466 2.07254 15.3667 1.98806C15.4108 1.80314 15.4479 1.61659 15.4628 1.4888C15.4746 1.37945 15.3904 1.30807 15.2129 1.35003ZM10.4875 10.7153C10.4875 10.7153 9.72209 11.4265 10.0884 11.7897C10.1441 11.8438 10.3063 11.862 10.5081 11.7726C10.7054 11.682 11.104 11.5561 11.2501 11.5398C11.2501 11.5398 10.9232 12.0412 10.8514 12.2566C10.7792 12.472 10.7606 12.5793 11.104 12.687C11.4494 12.7923 13.1928 13.3331 14.2616 14.0499C15.3324 14.7671 16.4408 15.6834 17.2594 17.367C18.0753 19.0554 17.6254 20.3333 17.4983 20.567C18.085 20.1982 18.6175 19.7766 19.1138 19.2978L19.1045 19.305C18.6777 17.8939 17.5003 16.9939 16.8463 16.2123C16.5796 15.894 16.1858 15.4474 16.1858 15.4474C16.5683 15.6628 17.2945 15.7701 17.2945 15.7701C17.0948 15.6075 16.6401 15.0715 16.4589 14.8541C15.9538 14.2561 15.0778 13.5874 14.4262 13.2965C13.1464 12.7239 11.8133 12.6504 11.6326 12.6162C11.4494 12.5793 11.0693 12.6504 11.3033 12.2908C11.5398 11.9316 12.9192 10.8746 12.9192 10.8746C12.6295 10.8746 11.359 10.9847 10.9761 11.0359C10.596 11.0912 10.5081 10.9652 10.4875 10.7153ZM16.3504 12.8659C16.3504 12.8659 19.5593 14.1327 20.7043 17.3211C21.015 16.8148 21.2748 16.2903 21.4923 15.7312C20.4425 14.8884 18.5994 13.3832 16.3504 12.8659ZM20.8503 10.8414C20.2523 11.0004 19.3433 11.0727 18.5832 10.965C18.5832 10.965 20.3431 11.7176 22.0954 13.3607V13.3448C22.1422 12.9482 22.1697 12.5425 22.1697 12.1281C22.1697 12.078 22.1697 12.0502 22.1672 11.9954C21.859 11.8722 19.9598 11.3409 19.9598 11.3409C20.5953 11.3063 20.8503 10.8414 20.8503 10.8414ZM13.6635 3.98763L13.6821 4.04247C12.4487 5.44236 11.649 7.38028 11.649 7.38028C11.7765 7.30557 12.0291 7.25193 12.2122 7.1808C12.393 7.11087 12.4487 7.27021 12.4115 7.38028C12.2376 7.89446 11.9944 8.65262 12.0847 8.99156C12.1751 9.33289 13.0281 9.53118 13.0281 9.53118C12.8659 9.55065 11.9435 9.59078 11.7208 9.64005C11.4981 9.69052 11.141 9.7235 11.2128 9.29832C11.3032 8.78216 11.5768 7.84519 11.5768 7.84519C11.3242 7.9175 10.7976 8.16704 10.6149 8.27592C10.4341 8.3844 10.378 8.36533 10.4341 8.23897C11.1668 6.54741 12.7198 4.74222 13.6635 3.98763ZM17.9501 4.85228C17.9872 5.19719 17.9965 5.57826 17.9666 5.76541C17.9291 5.98158 17.8206 5.99787 17.658 5.90965C17.4913 5.81667 17.4397 5.7825 17.3473 5.76541C17.2593 5.74793 17.1689 5.7825 17.2408 5.90965C17.3102 6.03442 17.4397 6.39284 17.3844 6.64397C17.3844 6.64397 16.9765 5.87389 16.4963 5.49481C16.1974 5.26236 16.7562 5.32435 16.8768 5.33587C17.2593 5.37084 17.2944 5.42408 17.4215 5.46064C17.5397 5.49481 17.802 5.55799 17.8944 4.85109C17.9041 4.81493 17.9452 4.82725 17.9501 4.85228ZM14.8619 2.0529C14.6629 2.28575 14.4075 2.699 14.3728 2.84245C14.3333 2.98629 14.3543 3.02086 14.4451 3.05861C14.5354 3.09318 14.5354 3.18139 14.4075 3.19967C14.28 3.21795 13.9908 3.26722 13.7095 3.36458C13.4804 3.44246 13.4481 3.30855 13.5013 3.21795C13.9323 2.5043 14.5722 2.12402 14.7182 2.03621C14.8619 1.94521 14.9155 1.99369 14.8619 2.0529Z" fill="#1F1F22"/>
</svg>
