<svg width="24" height="24" viewBox="0 0 24 24" fill="none" xmlns="http://www.w3.org/2000/svg">
<path fill-rule="evenodd" clip-rule="evenodd" d="M9.52387 13.2708L11.3034 11.5274V10.3397L9.52387 12.079V13.2708ZM9.52387 8.85002L11.3034 7.09864V5.98339L9.52387 7.71867V8.846V8.85002ZM9.52387 10.3115L11.3034 8.56819V7.44892L9.52387 9.18822V10.3115ZM9.01658 5.99547L8.775 5.77V3H8.50928V5.50428L8.27576 5.27479V3H8.00601V5.01308L7.76846 4.77957V3H7.50274V5.64117L9.29036 7.3845V3H9.0206V5.99547H9.01658ZM9.52387 11.773L11.3034 10.0297V8.91042L9.52387 10.6497V11.773ZM7.49871 11.5274L9.28633 13.2708V12.079L7.49871 10.3397V11.5274ZM11.0377 4.77957L10.8002 5.01308V3H10.5344V5.27881L10.2929 5.50428V3H10.0271V5.76598L9.79363 5.99547V3H9.52387V7.38852L11.3034 5.64117V3H11.0377V4.77957ZM7.49871 7.09864L9.28633 8.85002V7.7227L7.49871 5.97937V7.09461V7.09864ZM7.49871 8.56819L9.28633 10.3115V9.1842L7.49871 7.45294V8.56819ZM7.49871 10.0297L9.28633 11.773V10.6497L7.49871 8.91444V10.0297ZM18.1157 10.9517H13.7836C13.8781 10.8053 13.9284 10.6348 13.9285 10.4605C13.9263 9.95172 13.4992 9.52825 12.9904 9.53045C12.4847 9.53262 12.0625 9.95479 12.0604 10.4605C12.0604 10.6618 12.1248 10.847 12.2335 11C12.1524 11.0539 12.1014 11.1482 12.1006 11.2456C12.1006 11.3503 12.157 11.4429 12.2335 11.4952C12.1213 11.6528 12.0608 11.8413 12.0604 12.0347C12.0604 12.5413 12.4838 12.9648 12.9904 12.9648C13.4992 12.967 13.9263 12.5435 13.9285 12.0347C13.9285 11.8535 13.8762 11.6844 13.7836 11.5435H17.0085V11.7408H16.6864V12.0146H17.0085V12.2964H16.6864V12.8198H17.0085V12.5863H17.4796V12.8198H17.7976V12.2964H17.4796V12.0146H17.7976V11.7408H17.4796V11.5395H18.1157C18.2385 11.5395 18.3412 11.4368 18.3412 11.314V11.1771C18.3391 11.0552 18.2377 10.9538 18.1157 10.9517ZM13.4735 12.0388C13.4735 12.3019 13.2536 12.5219 12.9904 12.5219C12.7273 12.5219 12.5073 12.3019 12.5073 12.0388C12.5073 11.8539 12.633 11.6986 12.7247 11.5476C12.6375 11.4731 12.5863 11.3602 12.5878 11.2456C12.5878 11.1248 12.6401 11.0201 12.7207 10.9477C12.6339 10.7959 12.5084 10.6388 12.5113 10.4565C12.5113 10.1933 12.7313 9.97333 12.9944 9.97333C13.2576 9.97333 13.4776 10.1933 13.4776 10.4565C13.4776 10.6537 13.2521 11.1208 13.2521 11.1208V11.3704C13.2481 11.3744 13.4735 11.8415 13.4735 12.0388ZM5.88019 10.384V11.5476C5.88019 12.6548 6.36333 13.3714 6.64516 13.6452L8.48915 15.457C9.0045 15.9602 9.09307 16.1253 9.20983 16.4112V15.1228C9.20983 14.0742 8.72228 13.6148 8.40851 13.3191C7.86037 12.8026 7.32262 12.2733 6.7901 11.7408C6.38725 11.3639 6.076 10.8998 5.88019 10.384ZM6.7901 14.6155C6.41549 14.276 6.10817 13.869 5.88422 13.4157V14.4182C5.87218 15.1907 6.14279 15.941 6.64516 16.5279L8.48915 18.3276C8.98646 18.8133 9.08635 19.0552 9.19766 19.3248L9.20983 19.3543V17.9975C9.20983 16.947 8.72057 16.4871 8.40927 16.1944L8.40909 16.1942L8.4086 16.1938C7.86151 15.6793 7.32148 15.1469 6.7901 14.6155ZM12.0003 5.14991C11.8727 5.14991 11.7451 5.14999 11.6175 5.15796V5.69747C14.6908 5.46178 17.6659 7.21125 18.9539 10.0115C19.376 10.9291 19.607 11.9229 19.633 12.9326C19.6851 14.9582 18.8879 16.9561 17.4555 18.3893C16.0231 19.8226 14.0257 20.621 12 20.5701C10.0253 20.5723 8.13048 19.7901 6.73224 18.3957C5.334 17.0012 4.54674 15.1085 4.54353 13.1338C4.54353 10.851 5.57021 8.81373 7.19275 7.44483V6.75233C6.20094 7.49443 5.39591 8.45767 4.84166 9.56547C4.28741 10.6733 3.99922 11.8951 4 13.1338C4 17.5425 7.58329 21.1177 12.004 21.1177C14.1229 21.1188 16.1555 20.2783 17.6549 18.7812C19.1544 17.284 19.9979 15.2527 20 13.1338C20 8.72526 16.4169 5.15009 12.0003 5.14991ZM18.0111 16.7815C17.9024 16.9627 17.7816 17.1398 17.6608 17.3049V15.7106H18.0111V16.7815ZM18.7171 15.2127C18.7059 15.2495 18.6947 15.2865 18.6834 15.324C18.4902 15.1268 18.1439 15.1308 17.8339 15.1388H17.6608V14.857H18.8203C18.7894 14.9744 18.7538 15.0917 18.7171 15.2127ZM10.6432 14.8127H10.9572V14.8167V17.9974H10.6432V14.8127ZM9.91843 14.2045H10.9572C11.2269 14.2045 11.4162 14.2608 11.5208 14.3655C11.6296 14.4662 11.6819 14.6554 11.6819 14.9211V17.9005C11.6819 18.1662 11.6336 18.3514 11.5208 18.4561C11.3598 18.6212 11.0538 18.6212 10.8042 18.6212L10.6431 18.6171V20.0263L10.9572 20.0827V18.9231C11.4403 18.9231 11.7503 18.7621 11.8993 18.4319V20.1592H12.004L12.2053 20.1551V14.9734C12.2053 14.6997 12.2576 14.5064 12.3663 14.3977C12.467 14.289 12.6562 14.2367 12.9179 14.2367C12.955 14.2367 12.9943 14.2359 13.0353 14.2351C13.2924 14.2302 13.6104 14.224 13.7876 14.3977C13.8923 14.5064 13.9406 14.7037 13.9406 14.9734V16.5034H13.2279V14.8688H12.9179V20.0988C13.0226 20.0867 13.1192 20.0706 13.2279 20.0504V16.8094H13.9406V19.8854C14.0855 19.8451 14.2305 19.8008 14.3754 19.7485V16.9302C14.3754 16.6081 14.4519 16.3665 14.778 16.2578L14.4157 14.2971H15.1404L15.2612 16.4349H15.3497L15.4705 14.2971H16.2274L15.8208 16.2578C16.159 16.3786 16.2274 16.5839 16.2274 16.9261V18.75C16.4387 18.5916 16.6403 18.4209 16.8314 18.2387V14.2809H18.9451L18.9854 13.9911H14.0372L14.1056 14.3494C13.9527 14.0595 13.6547 13.9146 13.2199 13.9146H12.9099C12.3865 13.9146 12.0644 14.1239 11.9436 14.5386C11.8349 14.1038 11.5007 13.8864 10.9532 13.8864H9.60037V19.7324C9.70505 19.7686 9.80973 19.8049 9.91441 19.833V14.2085L9.91843 14.2045ZM16.4771 16.4511L16.1348 16.129L16.4771 14.3695V16.4511ZM15.1915 19.3938C15.1731 19.4033 15.1546 19.4128 15.1363 19.4223V19.4183V16.8415H15.4584V19.2492C15.3747 19.2994 15.2827 19.3469 15.1915 19.3938Z" fill="#1F1F22"/>
</svg>
