<svg width="32" height="32" viewBox="0 0 32 32" fill="none" xmlns="http://www.w3.org/2000/svg">
<path opacity="0.5" fill-rule="evenodd" clip-rule="evenodd" d="M16 32C24.8366 32 32 24.8366 32 16C32 7.16344 24.8366 0 16 0C7.16344 0 0 7.16344 0 16C0 24.8366 7.16344 32 16 32Z" fill="#494C4E"/>
<path fill-rule="evenodd" clip-rule="evenodd" d="M19.1554 20.4581C20.09 19.7996 20.6352 18.8748 20.8411 17.804H16.0586V14.4133H24.3077C24.3893 14.8239 24.5004 15.4893 24.5004 16.0585C24.5004 18.8698 23.5551 21.1089 21.9794 22.6232L19.1554 20.4581Z" fill="#4185F5"/>
<path fill-rule="evenodd" clip-rule="evenodd" d="M11.1354 17.8123C11.8634 19.9142 13.8079 21.3922 16.0578 21.3928C17.2472 21.3929 18.3094 21.0783 19.1546 20.4581L21.9775 22.6241C20.4821 24.0605 18.4194 24.8444 16.0578 24.8444C12.6428 24.8444 9.68233 22.8949 8.22852 20.0482L11.1354 17.8123Z" fill="#34A854"/>
<path fill-rule="evenodd" clip-rule="evenodd" d="M11.1358 14.3046C10.9491 14.854 10.8472 15.444 10.8472 16.0584C10.8472 16.6728 10.9491 17.2628 11.1358 17.8122L8.22716 20.0443C7.61671 18.8479 7.27246 17.4933 7.27246 16.0584C7.27246 14.6235 7.61671 13.269 8.22716 12.0725L11.1358 14.3046Z" fill="#FBBD05"/>
<path fill-rule="evenodd" clip-rule="evenodd" d="M16.0586 7.27271C18.3517 7.27271 20.4014 8.10277 21.9069 9.55276L19.4443 12.0387C18.549 11.2204 17.3698 10.7243 16.0586 10.7243C13.8117 10.7243 11.8608 12.2029 11.1362 14.3047L8.22754 12.0726C9.68608 9.13995 12.797 7.27271 16.0586 7.27271Z" fill="#EA4336"/>
</svg>
