<svg width="24" height="24" viewBox="0 0 24 24" fill="none" xmlns="http://www.w3.org/2000/svg">
<path d="M7 21.9654L17 21.9518L16.9932 12.0537C14.9091 16.0048 11.0054 18.571 7 19.5554C7.01358 20.3021 7 21.9654 7 21.9654Z" fill="#1F1F22"/>
<path d="M10.1975 16.983C13.9722 15.0754 15.7916 11.5927 15.7916 11.5927C15.7916 11.5927 15.778 10.4453 15.778 10.425C13.7006 9.69177 11.8133 8.61915 10.2043 7.01697C10.2111 9.73255 10.1975 16.983 10.1975 16.983ZM10.7339 2C10.7339 2 10.7339 5.02783 10.7271 5.7814C11.7251 6.70469 12.2206 7.13237 13.2525 7.7909L13.2593 3.73116C12.0849 3.08622 11.63 2.74678 10.7339 2Z" fill="#1F1F22"/>
</svg>
