<svg width="24" height="24" viewBox="0 0 24 24" fill="none" xmlns="http://www.w3.org/2000/svg">
<path d="M16.8457 13.5418V15.5088H17.2918C17.8698 15.5088 18.0362 14.9841 18.0858 14.4153C18.1192 14.0316 18.1423 13.6541 18.1489 13.5418H19.2189C19.2189 13.5418 19.0989 14.6448 19.0078 15.0222C18.9137 15.4106 18.7022 15.8005 18.4307 16.0041L19.739 19.4911H18.5711L17.5025 16.4715L16.8457 16.4714V19.4928H15.7578V13.5418H16.8457ZM7.3373 13.542C8.49771 13.542 8.98938 14.0903 9.11338 15.1434C9.14414 15.4047 9.52616 19.4919 9.52616 19.4919H8.41579C8.41579 19.4919 8.21259 16.7232 8.20016 16.6029C8.16292 16.6029 8.01262 16.6028 7.82442 16.6026L6.84132 16.6017C6.83542 16.7324 6.73613 19.4919 6.73613 19.4919H5.66066L5.86132 13.542H7.3373ZM4.08122 13.5421V14.5313H2.13046V15.5004C2.2798 15.4935 2.44619 15.489 2.63345 15.489C4.33973 15.489 4.59313 16.8297 4.59313 17.4743C4.59313 18.0191 4.33829 19.4907 2.69338 19.4907H1.04352V13.5421H4.08122ZM11.5621 13.5162V15.4176H13.0543V13.5162H14.1395V19.4672H13.0543V16.4069H11.5621V19.4672H10.4769V13.5162H11.5621ZM2.48588 16.4331L2.30928 16.4328C2.21589 16.4328 2.13046 16.453 2.13046 16.453V18.5473C2.13046 18.5473 2.39614 18.5719 2.50181 18.5719C2.79633 18.5719 3.51241 18.5106 3.51241 17.5013C3.51241 16.5163 2.9907 16.4385 2.48588 16.4331ZM7.07959 14.5194L6.8869 14.5316C6.88499 14.646 6.86268 15.4928 6.86028 15.6135H8.09019C8.0164 14.6724 7.87152 14.5194 7.07959 14.5194ZM7.50716 5.21729C8.09015 5.22434 8.65482 5.50073 9.00927 6.24101C9.23415 6.67412 9.37934 7.28383 9.39815 8.1348C9.39815 8.13608 9.4007 8.32584 9.4007 8.32729C9.40006 8.85728 9.34141 9.37139 9.22666 9.7854C8.92815 11.0043 8.23837 11.4355 7.51832 11.4485C7.51353 11.4487 7.50827 11.4492 7.50349 11.4492H7.48437C7.47975 11.4492 7.47449 11.4487 7.46955 11.4485C6.74949 11.4355 6.05971 11.0043 5.7612 9.7854C5.64661 9.37139 5.58796 8.85728 5.58732 8.32713L5.58741 8.30684C5.58803 8.25748 5.58958 8.13582 5.58971 8.1348C5.60852 7.28383 5.75355 6.67412 5.97859 6.24101C6.3332 5.50073 6.89771 5.22434 7.4807 5.21729H7.50716ZM20.387 5.37051C21.5476 5.37051 22.0389 5.91862 22.1633 6.97187C22.1939 7.23301 22.576 11.3204 22.576 11.3204H21.4657C21.4657 11.3204 21.2623 8.55173 21.2499 8.43142C21.1382 8.43142 20.0088 8.43014 19.891 8.43014C19.8853 8.56087 19.786 11.3204 19.786 11.3204H18.7105L18.9112 5.37051H20.387ZM4.56614 5.37049V11.3189H3.47744V6.35973H2.1304V11.3189H1.04346V5.37049H4.56614ZM11.2869 5.37043V6.95783C11.2869 7.09418 11.3269 7.19876 11.4085 7.27592C11.5242 7.38708 11.7058 7.4421 11.9504 7.4421H12.5422V5.37043H13.6301V11.319H12.5422V8.44626H11.7469C11.3214 8.44626 10.9546 8.31505 10.6552 8.05454C10.3514 7.79147 10.1974 7.46039 10.1974 7.06883V5.37043H11.2869ZM17.7414 5.37049V6.35973H16.8381V11.3189H15.7378V6.35973H14.8344V5.37049H17.7414ZM7.49393 6.20701C7.077 6.21487 6.68159 6.7447 6.67251 8.35488C6.68175 9.928 7.077 10.4651 7.49393 10.4732C7.91086 10.4651 8.30627 9.928 8.31535 8.35536C8.30627 6.7447 7.91086 6.21487 7.49393 6.20701ZM20.1414 6.35991H19.9366C19.9347 6.47428 19.9124 7.32124 19.91 7.44202H21.1399C21.0663 6.50075 20.9334 6.35991 20.1414 6.35991Z" fill="#E4E8EB"/>
</svg>
