<svg width="24" height="24" viewBox="0 0 24 24" fill="none" xmlns="http://www.w3.org/2000/svg">
<path d="M6 12C6 8.68629 8.68629 6 12 6L11.9925 2C6.47379 2 2 6.47379 2 11.9925V12C2 17.5228 6.47715 22 12 22V18C8.68629 18 6 15.3137 6 12Z" fill="#E4E8EB"/>
<path d="M21.9998 11.9999C21.9998 16.834 18.5698 20.8668 14.0108 21.7977V16.0068H11.9938C9.78646 16.0068 7.99707 14.2174 7.99707 12.01C7.99707 9.80271 9.78646 8.01332 11.9938 8.01332H13.9936V2.19873C18.5612 3.12288 21.9998 7.15985 21.9998 11.9999Z" fill="#E4E8EB"/>
</svg>
