<svg width="24" height="24" viewBox="0 0 24 24" fill="none" xmlns="http://www.w3.org/2000/svg">
<path d="M20.691 8.64638L20.7652 8.52305C21.1961 7.80718 21.0172 6.92906 20.3652 6.5613L12.8373 2.31248C12.8049 2.2942 12.772 2.27507 12.7386 2.25566C12.5045 2.11959 12.2471 1.97001 11.9945 2.0101C11.7188 1.95731 11.4353 2.12161 11.1814 2.26873C11.1593 2.28155 11.1374 2.29424 11.1157 2.30664L3.63079 6.5963C2.98291 6.96759 2.80502 7.85426 3.23345 8.57668L3.30767 8.70121C3.7361 9.42363 4.60855 9.70834 5.25643 9.33706L11.996 5.47479L18.731 9.27616C19.3826 9.64392 20.2601 9.36192 20.691 8.64638Z" fill="#1F1F22"/>
<path d="M18.2529 22.25H18.4265C19.4331 22.2504 20.2494 21.4368 20.25 20.4327V11.8654C20.2498 11.3873 19.8611 10.9999 19.3819 11H4.61847C4.38827 10.9999 4.16745 11.091 4.00458 11.2533C3.84171 11.4155 3.75 11.6357 3.75 11.8654V20.4327C3.75027 20.9149 3.94256 21.3773 4.28457 21.7181C4.62659 22.0589 5.09031 22.2503 5.57373 22.25H5.74739C6.23085 22.2503 6.69463 22.059 7.0367 21.7182C7.37877 21.3774 7.5711 20.915 7.57137 20.4327V14.4615H10.0031V20.4327C10.0037 21.4367 10.8199 22.2503 11.8264 22.25H12.0002C13.0068 22.2505 13.8233 21.4369 13.8239 20.4327V14.4615H16.4291V20.4327C16.4297 21.4369 17.2462 22.2505 18.2529 22.25Z" fill="#1F1F22"/>
</svg>
