<svg width="24" height="24" viewBox="0 0 24 24" fill="none" xmlns="http://www.w3.org/2000/svg">
<path d="M21.8405 10.209C21.9473 10.8 22.0007 11.3995 22 12.0002C21.9999 14.2682 21.2289 16.4688 19.8135 18.241C18.398 20.0131 16.4222 21.2514 14.2103 21.7527C11.9983 22.254 9.68169 21.9884 7.64054 20.9997C5.59938 20.011 3.95496 18.3577 2.97714 16.3113C1.99931 14.2649 1.74618 11.9469 2.25927 9.7377C2.77236 7.52848 4.0212 5.5593 5.80085 4.15332C7.58049 2.74734 9.78521 1.98808 12.0532 2.00014C14.3212 2.01221 16.5177 2.79488 18.2823 4.21972L16.3367 5.65374C14.9172 4.68365 13.2137 4.21688 11.4979 4.3279C9.78213 4.43892 8.15297 5.12133 6.87027 6.26627C5.58758 7.41121 4.72526 8.95273 4.42086 10.6449C4.11647 12.3371 4.38753 14.0825 5.19081 15.6027C5.99409 17.1229 7.28332 18.3302 8.85284 19.0322C10.4224 19.7342 12.1818 19.8904 13.8504 19.4758C15.519 19.0612 17.0007 18.0998 18.0592 16.7448C19.1177 15.3899 19.6919 13.7195 19.6903 12.0002V11.7956L21.8405 10.209Z" fill="#1F1F22"/>
<path d="M21.1123 7.87498C20.7918 7.1681 20.3897 6.50117 19.9141 5.88782L12.0018 11.7123L8.19568 9.33328V12.2031L12.0018 14.589L21.1123 7.87498Z" fill="#1F1F22"/>
</svg>
