<svg width="24" height="24" viewBox="0 0 24 24" fill="none" xmlns="http://www.w3.org/2000/svg">
<path fill-rule="evenodd" clip-rule="evenodd" d="M8.76094 7C9.30404 7 9.77369 7.10481 10.1751 7.31181C10.5739 7.5188 10.8835 7.81227 11.1013 8.18696C11.3191 8.56165 11.4266 9.00708 11.4266 9.52065C11.4266 10.029 11.3191 10.4744 11.1013 10.8517C10.8835 11.2316 10.5739 11.5251 10.1751 11.7321C9.77369 11.9391 9.30404 12.0439 8.76094 12.0439C8.21782 12.0439 7.74556 11.9391 7.34413 11.7321C6.9427 11.5225 6.6331 11.229 6.41795 10.8517C6.20281 10.4744 6.09524 10.029 6.09524 9.52065C6.09524 9.00708 6.20281 8.56165 6.41795 8.18696C6.6331 7.81227 6.9427 7.5188 7.34413 7.31181C7.74556 7.10481 8.21782 7 8.76094 7ZM9.52706 10.8701C9.73433 10.7521 9.89176 10.5792 9.99408 10.3539C10.0964 10.1259 10.1489 9.85079 10.1515 9.52327C10.1515 9.19574 10.099 8.92062 9.99671 8.69528C9.89438 8.46994 9.73696 8.29701 9.52969 8.1791C9.31979 8.06119 9.06529 8.00092 8.76094 8.00092C8.45658 8.00092 8.20471 8.05857 8.00006 8.17648C7.79541 8.29439 7.64061 8.46732 7.53566 8.69266C7.43071 8.92062 7.37823 9.19574 7.37823 9.52327C7.37823 9.85079 7.43071 10.1285 7.53566 10.3539C7.64061 10.5818 7.79278 10.7521 7.99743 10.8701C8.19946 10.988 8.45396 11.0456 8.75831 11.0456C9.06266 11.0456 9.31979 10.988 9.52706 10.8701ZM5.93259 7.06798H4.55777L3.52664 8.64796L2.44042 7.06798H1.00787L2.72116 9.44451L1 11.973H2.3827L3.42957 10.3459L4.53678 11.973H5.9667L4.22718 9.51526L5.93259 7.06798ZM3.8205 14.9134C4.14322 14.9134 4.42658 14.9763 4.67321 15.102C4.91722 15.2278 5.10875 15.406 5.2478 15.6339C5.38686 15.8619 5.45508 16.1344 5.45508 16.4462C5.45508 16.7606 5.38686 17.0331 5.2478 17.2637C5.10875 17.4943 4.91984 17.6751 4.67583 17.8035C4.43183 17.9319 4.14584 18 3.81263 18H1V13.095H5.09038V14.0933H2.21478V14.9134H3.8205ZM3.66045 17.0279C3.84149 17.0279 3.98317 16.9781 4.08025 16.8812C4.17732 16.7842 4.22718 16.6427 4.22718 16.4541C4.22718 16.3283 4.20619 16.2235 4.16158 16.1396C4.11698 16.0558 4.05139 15.9903 3.96481 15.9431C3.87822 15.896 3.77852 15.8724 3.66045 15.8724H2.21478V17.0279H3.66045ZM5.70162 18L7.82946 13.095H9.09934L11.2298 18H9.91794L9.51914 17.0148H7.35981L6.95839 18H5.70162ZM8.44603 14.371L7.75862 16.0479H9.1282L8.44603 14.371ZM15.5406 14.971H13.1976V13.095H11.9487V18H13.1976V15.9798H15.5406V18H16.7843V13.095H15.5406V14.971ZM20.5414 15.3876L22.9526 18H21.36L19.3187 15.7885V18H18.104V13.095H19.3187V15.1964L21.36 13.095H22.8634L20.5414 15.3876ZM14.0741 9.40783L12.8776 7.06798H11.4766L13.405 10.6498L12.7307 11.973H14.0714L16.5561 7.06798H15.2285L14.0741 9.40783ZM20.0929 9.97379L21.6593 7.06798H23V11.973H21.8692V8.77898L20.6203 11.1057H19.5393L18.2642 8.7947V11.973H17.1334V7.06798H18.4951L20.0929 9.97379Z" fill="#E4E8EB"/>
</svg>
