<svg width="24" height="24" viewBox="0 0 24 24" fill="none" xmlns="http://www.w3.org/2000/svg">
<path fill-rule="evenodd" clip-rule="evenodd" d="M11.3173 8.7752V11.056H12.744C13.0607 11.0645 13.3665 10.942 13.5871 10.7183C13.9144 10.3872 14.0075 9.89492 13.8232 9.47005C13.6389 9.04518 13.2133 8.77091 12.744 8.77456H11.3173V8.7752ZM11.3173 11.8609V14.5049H10.4639V7.97473H12.7278C13.2734 7.96367 13.8009 8.16722 14.1934 8.54029C14.5843 8.89689 14.8064 9.39771 14.8064 9.92228C14.8064 10.4468 14.5843 10.9477 14.1934 11.3043C13.7978 11.6758 13.3093 11.8613 12.7278 11.8609H11.3173ZM15.6706 13.1357C15.6694 13.3528 15.775 13.5571 15.954 13.684C16.1428 13.8296 16.3769 13.9068 16.6168 13.9023C16.977 13.9018 17.3223 13.7609 17.5772 13.5104C17.8457 13.2772 17.9995 12.9417 17.9994 12.5893C17.7335 12.382 17.3623 12.2786 16.8859 12.279C16.54 12.279 16.251 12.3612 16.0189 12.5254C15.7867 12.6897 15.6706 12.8931 15.6706 13.1357ZM16.7731 9.88977C17.4043 9.88977 17.9015 10.0555 18.2646 10.387C18.6278 10.7185 18.81 11.173 18.8113 11.7505V14.5049H17.9981V13.8844H17.9605C17.6081 14.3951 17.1382 14.6504 16.5506 14.6504C16.05 14.6504 15.6298 14.5049 15.2932 14.2125C14.9654 13.9412 14.7795 13.5387 14.7873 13.1172C14.7873 12.6559 14.965 12.2882 15.3204 12.0141C15.6758 11.7401 16.1514 11.6033 16.7471 11.6037C17.2543 11.6037 17.6719 11.6948 18 11.8769V11.6854C18.0018 11.398 17.8723 11.1249 17.6473 10.9417C17.4209 10.7414 17.1261 10.6324 16.8217 10.6366C16.3461 10.6366 15.9689 10.8343 15.6901 11.2296L14.9378 10.7643C15.3511 10.1813 15.9629 9.88977 16.7731 9.88977ZM20.6513 16.4748L23.5002 10.0341H22.5722L21.2544 13.2455H21.2362L19.8815 10.0341H18.9535L20.8277 14.2215L19.77 16.4748H20.6513Z" fill="#5F6368"/>
<path d="M8.18765 11.3596C8.18834 11.0999 8.16605 10.8407 8.12103 10.5847H4.42139V12.05H6.54337C6.456 12.5224 6.17285 12.9395 5.75987 13.2041V14.1541H7.02573C7.76592 13.4928 8.19232 12.5157 8.19232 11.3596" fill="#4285F4"/>
<path d="M4.42149 15.0712C5.48015 15.0712 6.37091 14.7347 7.01983 14.1541L5.75397 13.2041C5.4022 13.434 4.94915 13.5677 4.42149 13.5677C3.39881 13.5677 2.5307 12.8999 2.22289 12.0003H0.917725V12.98C1.58417 14.263 2.9396 15.0725 4.42149 15.0725" fill="#34A853"/>
<path d="M2.2202 12.0003C2.05585 11.5289 2.05585 11.0181 2.2202 10.5466V9.56818H0.917694C0.360769 10.6409 0.360769 11.906 0.917694 12.9788L2.2202 12.0003Z" fill="#FABB05"/>
<path d="M4.42149 8.97916C4.98084 8.97027 5.52138 9.17485 5.92653 9.54877L7.04582 8.46444C6.33558 7.81865 5.39522 7.46413 4.42149 7.47504C2.9396 7.47503 1.58417 8.28449 0.917725 9.5675L2.22023 10.5459C2.5307 9.64564 3.39881 8.97851 4.41883 8.97851" fill="#E94235"/>
</svg>
