<svg width="24" height="24" viewBox="0 0 24 24" fill="none" xmlns="http://www.w3.org/2000/svg">
<path d="M11.6141 3.60688C11.8516 3.46437 12.1484 3.46437 12.3859 3.60688L19.8859 8.10688C20.241 8.31999 20.3562 8.78069 20.1431 9.13587C19.93 9.49106 19.4693 9.60623 19.1141 9.39312L12 5.12464L4.88586 9.39312C4.53068 9.60623 4.06998 9.49106 3.85687 9.13587C3.64376 8.78069 3.75893 8.31999 4.11412 8.10688L11.6141 3.60688Z" fill="#1F1F22"/>
<path d="M5.25 14.75C4.83579 14.75 4.5 15.0858 4.5 15.5C4.5 15.9142 4.83579 16.25 5.25 16.25H18.75C19.1642 16.25 19.5 15.9142 19.5 15.5C19.5 15.0858 19.1642 14.75 18.75 14.75H5.25Z" fill="#1F1F22"/>
<path d="M3.75 17.75C3.33579 17.75 3 18.0858 3 18.5C3 18.9142 3.33579 19.25 3.75 19.25H20.25C20.6642 19.25 21 18.9142 21 18.5C21 18.0858 20.6642 17.75 20.25 17.75H3.75Z" fill="#1F1F22"/>
<path d="M12.75 9.5C12.75 9.08579 12.4142 8.75 12 8.75C11.5858 8.75 11.25 9.08579 11.25 9.5V12.5C11.25 12.9142 11.5858 13.25 12 13.25C12.4142 13.25 12.75 12.9142 12.75 12.5V9.5Z" fill="#1F1F22"/>
<path d="M8.25 8.75C8.66421 8.75 9 9.08579 9 9.5V12.5C9 12.9142 8.66421 13.25 8.25 13.25C7.83579 13.25 7.5 12.9142 7.5 12.5V9.5C7.5 9.08579 7.83579 8.75 8.25 8.75Z" fill="#1F1F22"/>
<path d="M16.5 9.5C16.5 9.08579 16.1642 8.75 15.75 8.75C15.3358 8.75 15 9.08579 15 9.5V12.5C15 12.9142 15.3358 13.25 15.75 13.25C16.1642 13.25 16.5 12.9142 16.5 12.5V9.5Z" fill="#1F1F22"/>
</svg>
