<svg width="24" height="24" viewBox="0 0 24 24" fill="none" xmlns="http://www.w3.org/2000/svg">
<path d="M20.9999 14.1217C20.9924 13.4429 20.8485 12.7734 20.5776 12.157C20.3067 11.5406 19.9149 10.9912 19.4279 10.5447C19.5856 10.0934 19.6657 9.6163 19.6646 9.1356C19.6646 8.8717 19.6392 8.6113 19.5932 8.3607C19.2492 6.449 17.6532 5 15.7406 5H11.102V13.9747C11.102 15.7023 9.69529 17.1093 7.96597 17.1093C7.91151 17.1089 7.85706 17.1075 7.80264 17.1051C6.14931 17.0211 4.82932 15.6484 4.82932 13.9761V7.6495C4.82932 7.2309 5.15799 6.8907 5.56132 6.8907H7.37731C7.49648 6.89181 7.6147 6.86823 7.72519 6.82132C7.83568 6.77441 7.93628 6.70509 8.02124 6.61732C8.10619 6.52955 8.17383 6.42506 8.22028 6.30981C8.26674 6.19457 8.2911 6.07084 8.29197 5.9457C8.29197 5.4242 7.88197 5.0007 7.37731 5.0007H5.56198C4.14866 5.0007 3 6.1886 3 7.6495V8.4979H3.00067H3V13.9761L3.00067 14.0454C3.04 16.7838 5.25065 19 7.96664 19C10.7046 19 12.9326 16.746 12.9326 13.9761V6.89H15.7413C15.7599 6.89 15.7779 6.8907 15.7946 6.8935C16.9246 6.9236 17.8346 7.9176 17.8346 9.1356C17.8372 9.5835 17.7118 10.0219 17.4746 10.3942C17.1999 10.8394 17.2692 11.3294 17.6912 11.5772C18.1393 11.8296 18.5137 12.205 18.7744 12.6634C19.035 13.1218 19.1722 13.6459 19.1712 14.1798C19.1712 15.6869 18.1006 16.9308 16.7313 17.0925C16.6314 17.1035 16.531 17.1091 16.4306 17.1093H13.4733C12.9693 17.1093 12.5599 17.5335 12.5599 18.055C12.5599 18.5779 12.9693 19 13.4733 19H16.4299C18.9479 19 20.9986 16.837 20.9986 14.1805C21.0006 14.1602 20.9999 14.1413 20.9999 14.1217Z" fill="#1F1F22"/>
</svg>
