<svg width="24" height="24" viewBox="0 0 24 24" fill="none" xmlns="http://www.w3.org/2000/svg">
<path d="M20.8941 11.3631C20.6371 10.7123 20.0024 10.3578 19.3155 10.4819L17.904 10.7361C17.6696 10.7782 17.5141 11.0025 17.5559 11.2369C17.598 11.4712 17.8219 11.627 18.0559 11.5852L19.4674 11.331C19.8033 11.2704 20.0107 11.4716 20.0928 11.6796C20.1752 11.888 20.1608 12.1768 19.8746 12.3625L17.8028 13.7071C17.6102 13.8318 17.3759 13.8404 17.1754 13.7312C16.9745 13.622 16.8542 13.4197 16.8542 13.1907V8.83409C16.8542 8.59577 16.6616 8.40254 16.4237 8.40254C16.1857 8.40254 15.9931 8.59577 15.9931 8.83409V13.1914C15.9931 13.7417 16.2811 14.227 16.7639 14.4898C16.9882 14.6117 17.2297 14.6726 17.4702 14.6726C17.7478 14.6726 18.0243 14.5922 18.2712 14.4318L20.343 13.0872C20.9298 12.7065 21.1512 12.0139 20.8941 11.3631ZM13.6067 10.4822L12.1951 10.7364C11.9611 10.7786 11.8056 11.0029 11.8474 11.2372C11.8895 11.4716 12.1134 11.6273 12.3474 11.5855L13.759 11.3313C14.0952 11.2708 14.3022 11.472 14.3846 11.68C14.4667 11.8884 14.4527 12.1772 14.1661 12.3629L12.0943 13.7074C11.9021 13.8322 11.6677 13.8408 11.4668 13.7316C11.266 13.6223 11.1461 13.42 11.1461 13.1911V9.88115C11.1461 9.33058 10.8581 8.8453 10.3753 8.58245C9.89256 8.31997 9.32916 8.34161 8.868 8.6405L3.65668 12.0222C3.07024 12.4026 2.84884 13.0952 3.10588 13.746C3.36256 14.3964 3.99688 14.7505 4.68447 14.6268L9.23448 13.8076C9.46848 13.7655 9.62436 13.5412 9.58224 13.3068C9.54012 13.0725 9.3162 12.9164 9.0822 12.9585L4.5322 13.7777C4.19596 13.8383 3.98896 13.6371 3.90688 13.429C3.82444 13.2207 3.83848 12.9318 4.12504 12.7458L9.33528 9.36487C9.52716 9.24044 9.76188 9.23144 9.96276 9.3407C10.1636 9.45032 10.2835 9.6526 10.2835 9.88151V13.1914C10.2835 13.7417 10.5715 14.227 11.0543 14.4898C11.2786 14.6117 11.5205 14.6726 11.761 14.6726C12.0385 14.6726 12.3146 14.5922 12.5616 14.4318L14.6338 13.0872C15.2198 12.7068 15.4412 12.0142 15.1846 11.3634C14.9286 10.7123 14.2936 10.3586 13.6067 10.4822Z" fill="#E4E8EB"/>
</svg>
