<svg width="24" height="24" viewBox="0 0 24 24" fill="none" xmlns="http://www.w3.org/2000/svg">
<path fill-rule="evenodd" clip-rule="evenodd" d="M21 12C21 16.9706 16.9706 21 12 21C7.02944 21 3 16.9706 3 12C3 7.02944 7.02944 3 12 3C16.9706 3 21 7.02944 21 12ZM13.2809 17.65H15.2566V17.6466H15.2433V6.34863H12.3875C9.51995 6.34863 8.0052 7.82664 8.0052 9.9994C8.0052 11.7379 8.83689 12.7684 10.3149 13.8239L7.74467 17.6483H9.86899L12.7248 13.3646L11.7311 12.6949C10.5253 11.8882 9.94248 11.2553 9.94248 9.88918C9.94248 8.68506 10.7875 7.87842 12.4008 7.87842H13.2809V17.65Z" fill="#1F1F22"/>
</svg>
