<svg width="32" height="33" viewBox="0 0 32 33" fill="none" xmlns="http://www.w3.org/2000/svg">
<g clip-path="url(#clip0_28658_36)">
<path fill-rule="evenodd" clip-rule="evenodd" d="M16 32.5C24.8366 32.5 32 25.3366 32 16.5C32 7.66344 24.8366 0.5 16 0.5C7.16344 0.5 0 7.66344 0 16.5C0 25.3366 7.16344 32.5 16 32.5Z" fill="#003A81"/>
<path fill-rule="evenodd" clip-rule="evenodd" d="M14.1983 20.154L11.9855 20.1517V17.5058C11.9855 16.9404 12.2048 16.6462 12.6886 16.579H14.1984C15.275 16.579 15.9715 17.2578 15.9715 18.3565C15.9715 19.485 15.2927 20.1529 14.1984 20.154H14.1983ZM11.9855 13.0172V12.3207C11.9855 11.7113 12.2433 11.4214 12.8087 11.384H13.9416C14.9125 11.384 15.4943 11.9648 15.4943 12.9379C15.4943 13.6784 15.0954 14.5435 13.9769 14.5435H11.9855V13.0172ZM17.024 15.6577L16.6239 15.4329L16.9733 15.1342C17.3799 14.7848 18.061 13.9991 18.061 12.6436C18.061 10.5674 16.4509 9.2284 13.9592 9.2284H11.116V9.22729H10.792C10.0536 9.25485 9.46181 9.85546 9.4541 10.5982V22.379H14.0154C16.7848 22.379 18.5723 20.8714 18.5723 18.5362C18.5723 17.2788 17.9949 16.2043 17.024 15.6577Z" fill="white"/>
<path fill-rule="evenodd" clip-rule="evenodd" d="M19.7607 20.7516C19.7607 19.8516 20.4866 19.1235 21.3809 19.1235C22.2774 19.1235 23.0066 19.8516 23.0066 20.7516C23.0066 21.6504 22.2774 22.3796 21.3808 22.3796C20.4866 22.3796 19.7607 21.6504 19.7607 20.7516Z" fill="#00BAFC"/>
</g>
<defs>
<clipPath id="clip0_28658_36">
<rect width="32" height="32" fill="white" transform="translate(0 0.5)"/>
</clipPath>
</defs>
</svg>
