<svg width="16" height="16" viewBox="0 0 16 16" fill="none" xmlns="http://www.w3.org/2000/svg">
<path d="M1.5 3.48212L3.44 6.94428V9.05559L1.5 12.5178V3.48212Z" fill="#656CAE"/>
<path d="M8.95874 5.68351L10.7787 4.57281H14.4987L8.95874 7.95492V5.68351Z" fill="#C25169"/>
<path d="M8.94977 3.46216L8.95977 8.04502L7.00977 6.85428V0L8.94977 3.46216Z" fill="#EBAD4C"/>
<path d="M14.4998 4.57285H10.7798L8.94977 3.46216L7.00977 0L14.4998 4.57285Z" fill="#DB754B"/>
<path d="M8.95977 12.5378V10.3064L7.00977 9.13568V16L8.95977 12.5378Z" fill="#81BB5D"/>
<path d="M10.77 11.4371L3.44 6.94428L1.5 3.48212L14.5 11.4271L10.77 11.4371Z" fill="#608BC9"/>
<path d="M7.00977 16L8.95977 12.5379L10.7698 11.4372L14.4998 11.4272L7.00977 16Z" fill="#548254"/>
<path d="M1.5 12.5178L7.03 9.13565L5.17 8.00494L3.44 9.0556L1.5 12.5178Z" fill="#8366A8"/>
</svg>
