<svg width="32" height="32" viewBox="0 0 32 32" fill="none" xmlns="http://www.w3.org/2000/svg">
<g clip-path="url(#clip0_49350_4393)">
<path fill-rule="evenodd" clip-rule="evenodd" d="M16 32C24.8366 32 32 24.8366 32 16C32 7.16344 24.8366 0 16 0C7.16344 0 0 7.16344 0 16C0 24.8366 7.16344 32 16 32Z" fill="#FF6600"/>
<path fill-rule="evenodd" clip-rule="evenodd" d="M7.74797 20.2842C7.64893 20.2727 7.49442 20.1849 7.38477 20.0967C6.34031 19.0738 7.6813 17.8974 9.23264 17.2156V15.2693C9.59531 15.5005 9.79365 15.5111 9.80426 15.544L10.9918 14.3677L10.596 13.3556C14.0713 12.1568 15.4675 11.6949 18.294 11.2224L17.7874 10.7489L18.6128 10.2766C20.5151 10.904 22.3082 11.0683 21.9997 12.6629C22.077 11.5853 20.7352 11.1671 18.6898 10.5955L18.294 10.8371L19.0524 11.4642C15.6658 12.0469 13.5873 12.7069 11.1128 13.5645L11.4535 14.4447L10.2112 15.6651C10.4205 15.72 12.5866 16.4456 14.8404 14.8734C14.8404 14.8734 14.885 14.8402 14.885 14.8294C14.8194 14.7194 14.6649 14.598 14.4783 14.4335C15.138 14.4776 15.5663 15.0603 15.4895 15.6651H15.1819C15.2036 15.4671 15.1595 15.2581 15.094 15.1153C13.3454 16.391 11.3218 16.5781 9.59531 15.9731V17.4795C8.75948 17.7766 7.26341 18.6997 7.27486 19.5913C7.32981 20.0198 7.5499 20.1737 7.74797 20.2842Z" fill="black"/>
<path fill-rule="evenodd" clip-rule="evenodd" d="M14.8903 19.779C13.0196 20.7247 11.2278 21.4835 8.46742 21.5934C4.87155 21.5161 4.31081 19.1296 6.01504 16.6337C7.62072 14.1155 10.1721 11.8386 14.2302 10.4198C15.4063 10.0029 17.1331 9.52958 18.8047 9.50756C21.2021 9.48523 23.534 10.2334 23.3794 12.5318C23.2913 14.2915 20.7516 16.7765 19.4095 18.5583C18.8374 19.3385 18.7383 19.8449 19.7169 19.8011C23.2698 19.5695 26.4915 18.3384 29.4826 17.0624C27.4596 18.4372 17.0006 23.6164 16.9574 20.087C16.968 19.6356 17.1767 19.163 17.5175 18.6573C17.8481 18.1513 18.3098 17.6232 18.7827 17.0845C19.4973 16.2708 21.2677 14.3244 21.8616 13.1583C22.8623 10.9481 20.6191 10.8379 18.6834 10.1564L17.8582 10.6287L18.3648 11.1021C15.5383 11.5747 14.1421 12.0366 10.6668 13.2354L11.0626 14.2475L9.87508 15.4238C9.84213 15.3909 9.66608 15.3803 9.3032 15.1491V17.0954C7.75217 17.7771 6.41087 18.9536 7.45533 19.9765C7.56523 20.0646 7.7198 20.1525 7.81878 20.164C9.72103 21.2417 14.9003 19.779 14.8903 19.779Z" fill="white"/>
</g>
<defs>
<clipPath id="clip0_49350_4393">
<rect width="32" height="32" fill="white"/>
</clipPath>
</defs>
</svg>
