<svg width="24" height="24" viewBox="0 0 24 24" fill="none" xmlns="http://www.w3.org/2000/svg">
<path fill-rule="evenodd" clip-rule="evenodd" d="M14.6016 14.9919V16.8241L16.1725 14.9919H17.3322L15.836 16.7474L17.4631 19H16.2475L15.1813 17.4919L14.6016 18.179V19H13.6289V14.9919H14.6016ZM9.99562 14.9728L11.8844 17.2247V14.9728H12.8569V18.9806H12.1088L10.22 16.7859V18.9804H9.24726V14.9728H9.99562ZM7.27963 14.9728L8.94451 18.9806H7.89706L7.65393 18.2938H5.98929L5.72767 18.9804H4.68021L6.34485 14.9728H7.27963ZM3.12777 14.9728C3.98807 14.9728 4.47457 15.3925 4.47457 16.0414C4.47457 16.404 4.26868 16.805 3.93186 16.9195C4.39961 17.034 4.64274 17.4539 4.64274 17.8736C4.64274 18.5418 4.11901 18.9804 3.23996 18.9804H1.25748V14.9728H3.12777ZM3.12777 17.3583H2.22998V18.1601H3.10903C3.50182 18.1601 3.68898 17.9881 3.68898 17.74C3.68898 17.4916 3.48309 17.3583 3.12777 17.3583ZM6.81236 16.1176L6.28863 17.4728H7.33609L6.81236 16.1176ZM2.9596 15.8127H2.22998V16.6329H2.9596C3.33366 16.6329 3.5393 16.4424 3.5393 16.1944C3.5393 15.946 3.33366 15.8127 2.9596 15.8127ZM3.07593 9.99826C4.06717 9.99826 4.79654 10.6089 5.00219 11.525H3.97372C3.82404 11.1433 3.50596 10.9335 3.07593 10.9335C2.44001 10.9335 1.991 11.4105 1.991 12.0783C1.991 12.7463 2.44001 13.2236 3.07569 13.2236C3.50596 13.2236 3.82404 12.9944 3.97372 12.6318H5.00219C4.79654 13.5477 4.06717 14.1583 3.07593 14.1583C1.89754 14.1583 1 13.2804 1 12.0783C1 10.8761 1.89754 9.99826 3.07593 9.99826ZM14.7401 10.0745C15.9559 10.0554 16.8535 10.8761 16.8535 12.0592C16.8535 13.2427 15.9747 14.0823 14.7401 14.0823H13.1691V10.0745H14.7401ZM18.3103 10.0554V14.0634H17.3376V10.0551L18.3103 10.0554ZM22 10.0554V10.9521H20.8776V14.0632H19.9051V10.9521H18.7829V10.0554H22ZM7.28401 10.0554C8.25675 10.0554 8.91117 10.5895 8.91117 11.4676C8.91117 11.9829 8.66805 12.422 8.25651 12.6698L9.17303 14.0632H8.03212L7.28401 12.899H6.55464V14.0632H5.5634V10.0554H7.28401ZM12.5549 10.0363V10.8952H10.5726V11.6586H12.312V12.4982H10.5726V13.1853H12.5549V14.0441H9.58116V10.0363H12.5549ZM14.7204 10.9715H14.2604V13.1853H14.7204C15.356 13.166 15.8182 12.6889 15.8182 12.0592C15.8182 11.4483 15.356 10.9715 14.7204 10.9715ZM7.26551 10.9523H6.5359V12.0214H7.26551C7.63957 12.0214 7.93867 11.8116 7.93867 11.487C7.93867 11.1627 7.63933 10.9523 7.26551 10.9523ZM2.23003 5.19072V6.79395H3.81971V5.19072H4.79246V9.17966H3.81971V7.69092H2.23003V9.19853H1.25753V5.19072H2.23003ZM8.25583 4.99976C9.80779 4.99976 11.0611 6.2213 11.0614 7.72916C11.0614 8.26332 10.893 8.75973 10.6311 9.17941H9.28479C9.69608 8.85509 9.95794 8.35893 9.95794 7.78628C9.95794 6.83194 9.19109 6.0497 8.25583 6.0497C7.32056 6.0497 6.55395 6.83194 6.55395 7.78628C6.55395 8.35893 6.81582 8.85509 7.22711 9.17941H5.88055C5.59995 8.75973 5.45028 8.26332 5.45028 7.72916C5.45028 6.2213 6.70338 5 8.25583 5V4.99976ZM12.4133 5.1716L13.7973 7.30923L15.1814 5.1716H15.9107V9.17966L14.957 9.17941V7.17538L14.0779 8.54965H13.535L12.6564 7.15651V9.17941H11.6839V5.1716H12.4133ZM19.6379 5.15258V6.01156H17.6551V6.77492H19.3947V7.61453H17.6551V8.30166H19.6379V9.16039H16.6639V5.15258H19.6379ZM9.13288 8.18718C9.00195 8.58799 8.64663 8.87407 8.21611 8.87407C7.78632 8.87407 7.43076 8.58799 7.29983 8.18718H9.13288Z" fill="#1F1F22"/>
</svg>
