<svg width="24" height="24" viewBox="0 0 24 24" fill="none" xmlns="http://www.w3.org/2000/svg">
<path fill-rule="evenodd" clip-rule="evenodd" d="M9.55127 16.0084H14.4196V7.08002H9.55127V16.0084Z" fill="#7375CF"/>
<path fill-rule="evenodd" clip-rule="evenodd" d="M9.86993 11.5C9.86993 9.70282 10.7022 8.1023 11.9979 7.07057C11.0501 6.316 9.85441 5.86591 8.55467 5.86591C5.47768 5.86591 2.9834 8.38852 2.9834 11.5C2.9834 14.6115 5.47768 17.1341 8.55467 17.1341C9.85441 17.1341 11.0501 16.684 11.9979 15.9294C10.7022 14.8977 9.86993 13.2972 9.86993 11.5Z" fill="#EB001B"/>
<path fill-rule="evenodd" clip-rule="evenodd" d="M20.9999 11.4998C20.9999 14.6118 18.5055 17.1341 15.4284 17.1341C14.1286 17.1341 12.9329 16.684 11.9854 15.9294C13.2812 14.898 14.1131 13.2971 14.1131 11.4998C14.1131 9.70258 13.2812 8.102 11.9854 7.07023C12.9329 6.31602 14.1286 5.86591 15.4284 5.86591C18.5055 5.86591 20.9999 8.38822 20.9999 11.4998Z" fill="#00A2EF"/>
</svg>
