<svg width="24" height="24" viewBox="0 0 24 24" fill="none" xmlns="http://www.w3.org/2000/svg">
<path fill-rule="evenodd" clip-rule="evenodd" d="M7 7.41V4.23L17.59 3V6.48L7 7.41ZM13.54 9.13C11.81 9.13 10.41 10.16 10.06 10.58V9.34H7V22H10.04V17.5C10.4 17.93 11.79 18.94 13.53 18.94C16.41 18.94 18 17.43 18 14.03C18 10.64 16.41 9.13 13.54 9.13ZM12.45 16.49C10.63 16.49 10.06 15.85 10.06 14.01C10.06 12.17 10.63 11.54 12.45 11.54C14.27 11.54 14.82 12.17 14.82 14.01C14.82 15.85 14.27 16.49 12.45 16.49Z" fill="#E4E8EB"/>
</svg>
