<svg width="20" height="20" viewBox="0 0 20 20" fill="none" xmlns="http://www.w3.org/2000/svg">
<circle cx="10" cy="10" r="10" fill="#E43225"/>
<path d="M17 10.2295C17 10.1147 17 10.1147 17 9.99999C17 9.88524 17 9.88524 17 9.77049C13.3871 9.65573 10.4516 6.67213 10.3387 3C10.2258 3 10.1129 3 10 3C9.8871 3 9.77419 3 9.66129 3C9.54838 6.67213 6.61291 9.65573 3 9.77049C3 9.88524 3 9.88524 3 9.99999C3 10.1147 3 10.1147 3 10.2295C6.61291 10.3443 9.54838 13.3279 9.66129 17C9.77419 17 9.8871 17 10 17C10.1129 17 10.2258 17 10.3387 17C10.4516 13.3279 13.3871 10.3443 17 10.2295Z" fill="white"/>
</svg>
