<svg width="24" height="24" viewBox="0 0 24 24" fill="none" xmlns="http://www.w3.org/2000/svg">
<path fill-rule="evenodd" clip-rule="evenodd" d="M5.17115 7.4458C6.6232 7.4458 7.76332 8.1239 7.81276 9.5696C7.84573 10.5334 7.42319 11.2224 6.54515 11.6366C7.60475 12.0398 8.13455 12.7657 8.13455 13.8141C8.13455 15.3867 7.25133 16.3642 5.56962 16.3642H2V7.4458H5.17115ZM15.2866 7.4458L14.7912 8.94402H12.5432V16.3642H10.7829V8.94402H8.24059V7.4458H15.2866ZM21.546 7.4458L21.0565 8.94643H17.5797V10.9279H19.2903C20.2851 10.9279 22 11.4112 22 13.6286C22 15.846 20.4405 16.3642 19.1468 16.3642H15.8386V7.4458H21.546ZM4.88504 12.563H3.72592V14.91L5.04215 14.9096C5.85469 14.8845 6.26096 14.4935 6.26096 13.7368C6.26096 12.9328 5.80232 12.5415 4.88504 12.563ZM18.8984 12.3811L17.5781 12.3807V14.8885L18.9001 14.888C19.3273 14.8808 20.1827 14.7725 20.1827 13.6337C20.1827 12.5466 19.3914 12.4001 18.9578 12.3828L18.8984 12.3811ZM4.88504 8.92229H3.72592V11.0062H4.88504C5.63289 11.003 6.00682 10.6549 6.00682 9.96184C6.00682 9.26881 5.63289 8.92229 4.88504 8.92229Z" fill="#1F1F22"/>
</svg>
