<svg width="32" height="33" viewBox="0 0 32 33" fill="none" xmlns="http://www.w3.org/2000/svg">
<g clip-path="url(#clip0_49350_4352)">
<path fill-rule="evenodd" clip-rule="evenodd" d="M16 32.5C24.8366 32.5 32 25.3366 32 16.5C32 7.66344 24.8366 0.5 16 0.5C7.16344 0.5 0 7.66344 0 16.5C0 25.3366 7.16344 32.5 16 32.5Z" fill="#6FDA44"/>
<path fill-rule="evenodd" clip-rule="evenodd" d="M16.9852 15.4654C17.6159 13.2613 19.1671 11.9211 21.1689 11.9211C23.5311 11.9211 25.4545 13.9032 25.4545 16.3334C25.4545 18.7676 23.5311 20.7618 21.1689 20.7618C20.0642 20.7618 19.1005 20.4146 18.2622 19.8616L17.3064 24.4999H15.1009L16.4211 18.1056C15.7982 17.2982 15.285 16.3899 14.8659 15.4897V16.4585C14.8659 18.8241 12.9973 20.7658 10.7017 20.7658C8.40618 20.7658 6.5376 18.8241 6.54543 16.4585V10.6818H8.69998V16.4585C8.69998 17.5969 9.60097 18.5254 10.7057 18.5254C11.8104 18.5254 12.7113 17.5969 12.7113 16.4585V10.6818H14.8659C15.2929 12.1875 16.0215 13.9758 16.9852 15.4654ZM18.7441 17.5364C19.4844 18.154 20.2992 18.5335 21.1689 18.5335C22.3402 18.5335 23.296 17.5485 23.2999 16.3414C23.2999 15.1304 22.3441 14.1454 21.1689 14.1454C19.602 14.1454 19.0927 15.7036 18.9321 16.6321L18.9243 16.6644L18.7441 17.5364Z" fill="white"/>
</g>
<defs>
<clipPath id="clip0_49350_4352">
<rect width="32" height="32" fill="white" transform="translate(0 0.5)"/>
</clipPath>
</defs>
</svg>
