<svg width="24" height="24" viewBox="0 0 24 24" fill="none" xmlns="http://www.w3.org/2000/svg">
<path fill-rule="evenodd" clip-rule="evenodd" d="M12.0026 4C12.2234 4 12.4582 4.00914 12.7181 4.03004V5.62044C12.7181 12.628 12.9853 15.6573 14.0211 20.3285C12.6976 20.6597 11.2936 20.6597 9.97232 20.3259C11.0151 15.6207 11.2842 12.5914 11.2842 5.62044V4.03004C11.5467 4.00914 11.7815 4 12.0026 4ZM20 12.8814C20 10.1559 18.5154 7.75948 16.2849 6.39442L16.315 8.24476C17.6409 9.3845 18.4808 11.0422 18.4808 12.8814C18.4808 13.7214 18.3012 14.5228 17.986 15.2549C17.0262 14.3431 16.3424 13.2707 15.9169 12.0042C15.4035 10.4713 15.2837 8.79275 15.2654 6.74189L15.2677 5.86015L15.0796 5.78177L14.9071 5.71515C14.5584 5.58452 14.1991 5.47675 13.8337 5.39511L13.836 6.73927C13.8843 13.8206 15.1112 16.7395 16.9364 18.9334C18.8031 17.5246 20 15.3379 20 12.8814ZM10.1663 6.74058L10.1686 5.39642C9.67612 5.5068 9.19509 5.66355 8.73462 5.86145L8.73691 6.74319C8.71633 8.7921 8.59877 10.4726 8.0854 12.0056C7.66216 13.272 6.97604 14.3425 6.01625 15.2562C5.70111 14.5241 5.52149 13.7227 5.52149 12.8827C5.52149 11.0409 6.35915 9.3858 7.68731 8.24607L7.71735 6.39572C5.48459 7.75817 4 10.1545 4 12.8827C4 15.3392 5.19917 17.5259 7.06356 18.9347C8.89333 16.7434 10.118 13.8219 10.1663 6.74058Z" fill="#1F1F22"/>
</svg>
