<svg width="32" height="32" viewBox="0 0 32 32" fill="none" xmlns="http://www.w3.org/2000/svg">
<path fill-rule="evenodd" clip-rule="evenodd" d="M16 32C24.8366 32 32 24.8366 32 16C32 7.16344 24.8366 0 16 0C7.16344 0 0 7.16344 0 16C0 24.8366 7.16344 32 16 32Z" fill="#252F3D"/>
<mask id="mask0_49350_4376" style="mask-type:alpha" maskUnits="userSpaceOnUse" x="0" y="0" width="32" height="32">
<path fill-rule="evenodd" clip-rule="evenodd" d="M16 32C24.8366 32 32 24.8366 32 16C32 7.16344 24.8366 0 16 0C7.16344 0 0 7.16344 0 16C0 24.8366 7.16344 32 16 32Z" fill="white"/>
</mask>
<g mask="url(#mask0_49350_4376)">
<path d="M11.1999 14.3582C11.1999 14.6051 11.2291 14.8053 11.2803 14.9522C11.3389 15.099 11.412 15.2592 11.5145 15.4327C11.5511 15.4861 11.5657 15.5395 11.5657 15.5862C11.5657 15.6529 11.5218 15.7197 11.4267 15.7864L10.9657 16.0667C10.8999 16.1068 10.834 16.1268 10.7755 16.1268C10.7023 16.1268 10.6291 16.0934 10.556 16.0334C10.4535 15.9333 10.3657 15.8265 10.2925 15.7197C10.2194 15.6062 10.1462 15.4794 10.0657 15.3259C9.49499 15.9399 8.77793 16.2469 7.91452 16.2469C7.2999 16.2469 6.80966 16.0868 6.45113 15.7664C6.09259 15.446 5.90967 15.0189 5.90967 14.485C5.90967 13.9177 6.12918 13.4572 6.57551 13.1101C7.02185 12.7631 7.61453 12.5895 8.36818 12.5895C8.61696 12.5895 8.87305 12.6096 9.14378 12.6429C9.41451 12.6763 9.69255 12.7297 9.98523 12.7898V12.3026C9.98523 11.7953 9.86816 11.4416 9.64133 11.2347C9.40719 11.0278 9.01207 10.9277 8.44866 10.9277C8.19257 10.9277 7.92916 10.9544 7.65843 11.0145C7.3877 11.0745 7.12429 11.1479 6.86819 11.2414C6.75112 11.2881 6.66332 11.3148 6.6121 11.3281C6.56088 11.3415 6.5243 11.3482 6.49503 11.3482C6.39259 11.3482 6.34137 11.2814 6.34137 11.1413V10.8142C6.34137 10.7075 6.356 10.6274 6.39259 10.5806C6.42917 10.5339 6.49503 10.4872 6.59747 10.4405C6.85356 10.3204 7.16087 10.2202 7.51941 10.1402C7.87794 10.0534 8.25842 10.0133 8.66086 10.0133C9.53158 10.0133 10.1682 10.1935 10.5779 10.5539C10.9803 10.9143 11.1852 11.4616 11.1852 12.1958V14.3582H11.1999ZM8.22915 15.3726C8.47062 15.3726 8.71939 15.3326 8.9828 15.2525C9.24622 15.1724 9.48036 15.0256 9.67792 14.8254C9.79499 14.6986 9.88279 14.5584 9.9267 14.3982C9.9706 14.238 9.99987 14.0445 9.99987 13.8176V13.5373C9.78767 13.4905 9.56085 13.4505 9.3267 13.4238C9.09256 13.3971 8.86573 13.3838 8.63891 13.3838C8.14867 13.3838 7.79014 13.4705 7.54867 13.6507C7.30721 13.8309 7.19014 14.0845 7.19014 14.4182C7.19014 14.7319 7.27795 14.9655 7.46087 15.1257C7.63648 15.2925 7.89257 15.3726 8.22915 15.3726ZM14.1047 16.0934C13.973 16.0934 13.8852 16.0734 13.8267 16.0267C13.7681 15.9867 13.7169 15.8932 13.673 15.7664L11.9535 10.6073C11.9096 10.4739 11.8877 10.3871 11.8877 10.3404C11.8877 10.2336 11.9462 10.1735 12.0633 10.1735H12.7803C12.9193 10.1735 13.0145 10.1935 13.0657 10.2403C13.1242 10.2803 13.1681 10.3737 13.212 10.5006L14.4413 14.9188L15.5827 10.5006C15.6193 10.3671 15.6632 10.2803 15.7218 10.2403C15.7803 10.2002 15.8827 10.1735 16.0144 10.1735H16.5998C16.7388 10.1735 16.8339 10.1935 16.8925 10.2403C16.951 10.2803 17.0022 10.3737 17.0315 10.5006L18.1876 14.9722L19.4534 10.5006C19.4973 10.3671 19.5485 10.2803 19.5998 10.2403C19.6583 10.2002 19.7534 10.1735 19.8851 10.1735H20.5656C20.6827 10.1735 20.7485 10.2269 20.7485 10.3404C20.7485 10.3737 20.7412 10.4071 20.7339 10.4472C20.7266 10.4872 20.7119 10.5406 20.6827 10.614L18.9193 15.7731C18.8754 15.9066 18.8242 15.9933 18.7656 16.0334C18.7071 16.0734 18.612 16.1001 18.4876 16.1001H17.8583C17.7193 16.1001 17.6242 16.0801 17.5656 16.0334C17.5071 15.9866 17.4559 15.8999 17.4266 15.7664L16.2925 11.4616L15.1657 15.7597C15.1291 15.8932 15.0852 15.98 15.0266 16.0267C14.9681 16.0734 14.8657 16.0934 14.734 16.0934H14.1047ZM23.507 16.2736C23.1266 16.2736 22.7461 16.2336 22.3802 16.1535C22.0144 16.0734 21.729 15.9866 21.5388 15.8865C21.4217 15.8265 21.3412 15.7597 21.3119 15.6997C21.2827 15.6396 21.268 15.5729 21.268 15.5128V15.1724C21.268 15.0323 21.3266 14.9655 21.4363 14.9655C21.4802 14.9655 21.5241 14.9722 21.568 14.9855C21.6119 14.9989 21.6778 15.0256 21.751 15.0523C21.9997 15.1524 22.2705 15.2325 22.5558 15.2859C22.8485 15.3393 23.1339 15.366 23.4265 15.366C23.8875 15.366 24.2461 15.2925 24.4948 15.1457C24.7436 14.9989 24.8753 14.7853 24.8753 14.5117C24.8753 14.3248 24.8095 14.1713 24.6778 14.0445C24.546 13.9177 24.2973 13.8042 23.9387 13.6974L22.8778 13.3971C22.3436 13.2436 21.9485 13.0167 21.7071 12.7164C21.4656 12.4227 21.3412 12.0957 21.3412 11.7486C21.3412 11.4683 21.4071 11.2214 21.5388 11.0078C21.6705 10.7942 21.8461 10.6073 22.0656 10.4605C22.2851 10.307 22.5339 10.1935 22.8266 10.1135C23.1192 10.0334 23.4265 10 23.7485 10C23.9095 10 24.0778 10.0067 24.2387 10.0267C24.407 10.0467 24.5607 10.0734 24.7143 10.1001C24.8607 10.1335 24.9997 10.1669 25.1314 10.2069C25.2631 10.2469 25.3656 10.287 25.4387 10.327C25.5412 10.3804 25.6143 10.4338 25.6582 10.4939C25.7021 10.5473 25.7241 10.6207 25.7241 10.7141V11.0278C25.7241 11.168 25.6655 11.2414 25.5558 11.2414C25.4973 11.2414 25.4021 11.2147 25.2777 11.1613C24.8607 10.9878 24.3924 10.901 23.8729 10.901C23.4558 10.901 23.1266 10.9611 22.8997 11.0879C22.6729 11.2147 22.5558 11.4082 22.5558 11.6819C22.5558 11.8687 22.629 12.0289 22.7753 12.1557C22.9217 12.2825 23.1924 12.4093 23.5802 12.5228L24.6192 12.8231C25.146 12.9766 25.5265 13.1902 25.7534 13.4638C25.9802 13.7375 26.0899 14.0512 26.0899 14.3982C26.0899 14.6852 26.0241 14.9455 25.8997 15.1724C25.768 15.3993 25.5924 15.5996 25.3656 15.7597C25.1387 15.9266 24.868 16.0467 24.5534 16.1335C24.2241 16.2269 23.8802 16.2736 23.507 16.2736Z" fill="white"/>
<path d="M24.8899 19.5172C22.4826 21.139 18.9851 21.9999 15.9778 21.9999C11.7632 21.9999 7.96572 20.5784 5.09746 18.2157C4.87064 18.0289 5.07551 17.7753 5.34624 17.9221C8.44865 19.5639 12.2754 20.5583 16.2339 20.5583C18.9046 20.5583 21.8387 20.0511 24.5387 19.01C24.9411 18.8431 25.285 19.2502 24.8899 19.5172ZM25.8924 18.476C25.585 18.1156 23.8582 18.3025 23.0753 18.3893C22.8412 18.416 22.8046 18.2291 23.0168 18.0889C24.3924 17.208 26.6533 17.4616 26.9167 17.7552C27.1801 18.0556 26.8436 20.1179 25.5558 21.1056C25.3582 21.2591 25.168 21.179 25.2558 20.9788C25.5485 20.3181 26.1997 18.8298 25.8924 18.476Z" fill="#FF9900"/>
</g>
</svg>
