<svg width="32" height="32" viewBox="0 0 32 32" fill="none" xmlns="http://www.w3.org/2000/svg">
<path d="M8.18577 23H23.8142C25.72 23 27.5477 22.2098 28.8953 20.8033C30.2429 19.3968 31 17.4891 31 15.5C31 13.5109 30.2429 11.6032 28.8953 10.1967C27.5477 8.79018 25.72 8 23.8142 8H8.18577C6.27999 8 4.45226 8.79018 3.10466 10.1967C1.75707 11.6032 1 13.5109 1 15.5C1 17.4891 1.75707 19.3968 3.10466 20.8033C4.45226 22.2098 6.27999 23 8.18577 23Z" fill="#21A038"/>
<path d="M11.5019 15.3747V15.4568C11.503 16.1375 11.2761 16.7989 10.8573 17.3355C10.4386 17.8721 9.85219 18.2531 9.19169 18.4175C8.53118 18.582 7.83462 18.5205 7.21315 18.2428C6.59169 17.9652 6.08111 17.4874 5.7629 16.8856C5.44469 16.2839 5.33717 15.593 5.4575 14.923C5.57784 14.2531 5.91908 13.6427 6.4268 13.1894C6.93451 12.736 7.57944 12.4657 8.25869 12.4217C8.93794 12.3777 9.61236 12.5624 10.1744 12.9464L10.9468 12.3797C10.2484 11.8153 9.37893 11.5052 8.48106 11.5001C7.58318 11.495 6.71025 11.7953 6.00554 12.3517C5.30083 12.9081 4.8062 13.6875 4.60286 14.5621C4.39951 15.4367 4.49952 16.3544 4.88647 17.1646C5.27342 17.9748 5.92432 18.6295 6.73234 19.021C7.54036 19.4126 8.45748 19.5178 9.33319 19.3194C10.2089 19.1211 10.9911 18.6309 11.5516 17.9294C12.112 17.2278 12.4172 16.3566 12.4173 15.4587C12.4172 15.2207 12.3958 14.9833 12.3535 14.7491L11.5019 15.3747Z" fill="white"/>
<path d="M6.95354 14.4025V15.5389L8.45975 16.4832L12.066 13.83C11.9387 13.5501 11.7793 13.286 11.5909 13.0431L8.45975 15.3468L6.95354 14.4025Z" fill="white"/>
<path fill-rule="evenodd" clip-rule="evenodd" d="M16.3575 17.7422V16.1288H17.1559C18.6728 16.1288 19.4867 15.5225 19.4867 14.3165C19.4867 13.1473 18.7915 12.5622 17.1559 12.5622H15.4325V17.7422H16.3575ZM16.3575 15.2772V13.4138L17.2419 13.4128C18.1427 13.4128 18.5289 13.6571 18.5289 14.2934C18.5289 14.9963 18.0848 15.2772 17.2264 15.2772H16.3575Z" fill="white"/>
<path fill-rule="evenodd" clip-rule="evenodd" d="M21.3001 13.968C20.6629 13.968 20.2187 14.1186 19.9754 14.3011L19.9764 15.3815C20.2274 14.9895 20.6194 14.723 21.3001 14.723C21.7964 14.723 22.0474 14.8862 22.0474 15.4114V15.5737H21.2113C20.3018 15.5737 19.6877 15.8102 19.6877 16.6541C19.6877 17.3792 20.1309 17.8011 20.8782 17.8011C21.471 17.8011 21.9219 17.5047 22.0996 17.076V17.7422H22.9135V15.3004C22.9135 14.3388 22.3805 13.968 21.3001 13.968ZM22.0465 16.1366V16.4359C22.0098 16.6908 21.7356 17.0239 21.1514 17.0239C20.7662 17.0239 20.5596 16.8462 20.5596 16.5652C20.5596 16.2331 20.8038 16.1366 21.3146 16.1366H22.0465Z" fill="white"/>
<path d="M23.3411 14.0422H24.3066L25.3204 16.5796L26.1488 14.0422H27.0661L25.5869 18.1341C25.2606 19.0214 24.9284 19.2213 24.4399 19.2213C24.2101 19.2213 23.9571 19.1547 23.848 19.0591V18.2519C23.967 18.368 24.1259 18.4343 24.2921 18.4373C24.5577 18.4373 24.7575 18.2596 24.8985 17.7614L23.3411 14.0422Z" fill="white"/>
</svg>
