<svg width="24" height="24" viewBox="0 0 24 24" fill="none" xmlns="http://www.w3.org/2000/svg">
<path d="M17.4136 13.7187H18.9561C19.0002 13.7187 19.103 13.704 19.1471 13.704C19.4409 13.6452 19.6906 13.3808 19.6906 13.0135C19.6906 12.6609 19.4409 12.3965 19.1471 12.323C19.103 12.3083 19.0149 12.3083 18.9561 12.3083H17.4136V13.7187Z" fill="url(#paint0_linear_37648_5334)"/>
<path d="M18.7798 3.97888C17.3108 3.97888 16.1061 5.16883 16.1061 6.65259V9.42914H19.8816C19.9698 9.42914 20.0726 9.42914 20.1461 9.44383C20.9981 9.4879 21.6298 9.92863 21.6298 10.6925C21.6298 11.2949 21.2038 11.809 20.4105 11.9119V11.9413C21.2773 12 21.9383 12.4848 21.9383 13.234C21.9383 14.042 21.2038 14.5709 20.2342 14.5709H16.0914V20.0065H20.0139C21.4829 20.0065 22.6876 18.8165 22.6876 17.3328V3.97888H18.7798Z" fill="url(#paint1_linear_37648_5334)"/>
<path d="M19.4997 10.8687C19.4997 10.5161 19.2499 10.2811 18.9561 10.237C18.9267 10.237 18.8533 10.2223 18.8092 10.2223H17.4136V11.5151H18.8092C18.8533 11.5151 18.9414 11.5151 18.9561 11.5004C19.2499 11.4563 19.4997 11.2213 19.4997 10.8687Z" fill="url(#paint2_linear_37648_5334)"/>
<path d="M4.0009 3.97888C2.53183 3.97888 1.32719 5.16883 1.32719 6.65259V13.2487C2.07642 13.616 2.85503 13.851 3.63363 13.851C4.55915 13.851 5.05863 13.2928 5.05863 12.5289V9.41445H7.35039V12.5142C7.35039 13.7188 6.60116 14.7031 4.05966 14.7031C2.51714 14.7031 1.3125 14.3652 1.3125 14.3652V19.9918H5.23492C6.704 19.9918 7.90864 18.8018 7.90864 17.3181V3.97888H4.0009Z" fill="url(#paint3_linear_37648_5334)"/>
<path d="M11.3903 3.97888C9.92119 3.97888 8.71655 5.16883 8.71655 6.65259V10.149C9.39233 9.57605 10.5676 9.20878 12.4627 9.29692C13.4763 9.341 14.5635 9.62012 14.5635 9.62012V10.7513C14.0199 10.4722 13.3735 10.2224 12.5361 10.1637C11.0964 10.0608 10.2297 10.766 10.2297 12C10.2297 13.2487 11.0964 13.9539 12.5361 13.8364C13.3735 13.7776 14.0199 13.5132 14.5635 13.2487V14.3799C14.5635 14.3799 13.491 14.659 12.4627 14.7031C10.5676 14.7913 9.39233 14.424 8.71655 13.851V20.0212H12.639C14.108 20.0212 15.3127 18.8312 15.3127 17.3474V3.97888H11.3903Z" fill="url(#paint4_linear_37648_5334)"/>
<defs>
<linearGradient id="paint0_linear_37648_5334" x1="16.1032" y1="13.015" x2="22.7056" y2="13.015" gradientUnits="userSpaceOnUse">
<stop stop-color="#007940"/>
<stop offset="0.2285" stop-color="#00873F"/>
<stop offset="0.7433" stop-color="#40A737"/>
<stop offset="1" stop-color="#5CB531"/>
</linearGradient>
<linearGradient id="paint1_linear_37648_5334" x1="16.1035" y1="11.986" x2="22.7056" y2="11.986" gradientUnits="userSpaceOnUse">
<stop stop-color="#007940"/>
<stop offset="0.2285" stop-color="#00873F"/>
<stop offset="0.7433" stop-color="#40A737"/>
<stop offset="1" stop-color="#5CB531"/>
</linearGradient>
<linearGradient id="paint2_linear_37648_5334" x1="16.1032" y1="10.8665" x2="22.7051" y2="10.8665" gradientUnits="userSpaceOnUse">
<stop stop-color="#007940"/>
<stop offset="0.2285" stop-color="#00873F"/>
<stop offset="0.7433" stop-color="#40A737"/>
<stop offset="1" stop-color="#5CB531"/>
</linearGradient>
<linearGradient id="paint3_linear_37648_5334" x1="1.32385" y1="11.986" x2="8.02784" y2="11.986" gradientUnits="userSpaceOnUse">
<stop stop-color="#1F286F"/>
<stop offset="0.4751" stop-color="#004E94"/>
<stop offset="0.8261" stop-color="#0066B1"/>
<stop offset="1" stop-color="#006FBC"/>
</linearGradient>
<linearGradient id="paint4_linear_37648_5334" x1="8.67837" y1="11.986" x2="15.1893" y2="11.986" gradientUnits="userSpaceOnUse">
<stop stop-color="#6C2C2F"/>
<stop offset="0.1735" stop-color="#882730"/>
<stop offset="0.5731" stop-color="#BE1833"/>
<stop offset="0.8585" stop-color="#DC0436"/>
<stop offset="1" stop-color="#E60039"/>
</linearGradient>
</defs>
</svg>
