<svg width="24" height="24" viewBox="0 0 24 24" fill="none" xmlns="http://www.w3.org/2000/svg">
<path fill-rule="evenodd" clip-rule="evenodd" d="M9.87512 18.3707V14.1533C9.87512 14.0096 9.94692 13.9406 10.0905 13.9461C13.2253 14.0538 16.6638 13.6285 16.9814 9.73702C17.219 6.79838 15.1503 5.07773 12.3442 5.02525C10.6245 4.99579 8.89465 4.99211 7.15467 5.0142C7.05156 5.01605 7 5.06852 7 5.17163V18.3734C7 18.4772 7.08677 18.564 7.19057 18.564L9.68455 18.5612C9.81159 18.5612 9.87512 18.4977 9.87512 18.3707ZM9.87512 11.5985L9.86959 7.26237C9.86959 7.20963 9.91628 7.16295 9.96902 7.16295L12.01 7.16018C13.1469 7.15865 14.1352 8.08343 14.1367 9.23436V9.61549C14.1382 10.7663 13.1523 11.6937 12.0156 11.6952L9.97454 11.698C9.92181 11.698 9.87512 11.6513 9.87512 11.5985Z" fill="#1F1F22"/>
</svg>
