<svg width="24" height="24" viewBox="0 0 24 24" fill="none" xmlns="http://www.w3.org/2000/svg">
<path d="M12.8736 18.4803C13.8148 18.5796 15.0842 17.7979 16.688 16.0111C17.8522 14.7082 18.9544 13.3434 19.9824 11.935V18.0026C19.9018 18.6727 19.3074 19.2 18.5829 19.2H6.99089C7.88877 18.3873 8.85476 17.2147 9.72788 15.8684C10.6072 14.5221 10.7558 14.1126 11.375 12.7726C11.6227 12.6795 12.341 12.4438 12.8798 12.3011C12.2296 13.6101 11.5546 15.248 11.4927 16.2034C11.375 17.5373 11.9324 18.3873 12.8736 18.4803ZM9.53592 13.3806C9.53592 13.3806 8.40272 15.5582 7.60393 16.5757C7.15808 17.1154 5.46138 19.8887 4.28485 18.9953C3.15165 17.8661 6.05585 15.5334 6.63173 15.1363C7.6225 14.3546 9.53592 13.3806 9.53592 13.3806ZM5.46138 5.75576C4.39012 6.62433 4 7.50531 4 7.50531V5.34628C4 4.608 4.644 4 5.42423 4H16.4404C16.4404 4 15.7964 4.04963 15.1771 4.71347C14.8242 5.09192 13.6972 6.65535 12.4649 6.33274C11.2388 6.01013 11.4803 4.99886 10.2604 4.66384C9.04056 4.32882 6.76177 4.70106 5.46138 5.75576ZM16.88 5.04849C17.4621 4.62661 17.2763 4.10547 16.8552 4H18.5829C19.2269 4 19.7718 4.42188 19.939 4.98645C18.9668 4.89339 17.3506 5.50759 16.075 7.08343C14.7808 8.68408 13.691 10.6322 13.691 10.6322C13.691 10.6322 12.6878 10.9238 12.1676 11.0788C12.3286 10.7376 13.0594 9.33552 14.2854 7.59217C15.3257 6.11559 16.3846 5.40833 16.88 5.04849ZM10.3038 11.6124C8.3594 12.2018 5.31896 13.7652 4 15.5396V9.61468C4.47681 10.3344 5.10842 10.7624 5.92581 10.9548C6.95993 11.1657 7.99404 11.0106 8.91668 10.5019C9.33776 10.2723 9.71552 9.98692 10.0561 9.64572C10.7434 8.95708 10.4957 8.13812 9.93224 7.9706C9.36872 7.80932 8.8238 8.18156 8.54516 8.62824C8.26032 9.08116 7.88877 9.63332 6.68127 9.63332C6.07442 9.63332 5.35612 9.24864 5.17035 8.38008C4.86692 7.05861 6.55743 5.69372 8.08692 5.46416C10.5576 5.08572 9.93224 6.72359 11.115 7.54253C11.4122 7.75968 12.1924 8.02644 12.9046 7.53633C12.5268 8.06988 10.923 10.5329 10.3038 11.6124ZM17.4868 7.10825C18.2176 6.28311 19.4003 5.71853 19.9018 6.32033C20.3972 6.92833 18.9049 8.12572 17.9389 8.72132C16.9791 9.31688 16.0502 9.83184 15.2576 10.1668C15.753 9.24864 16.9667 7.70384 17.4868 7.10825ZM17.9017 10.0738C18.4776 9.68292 19.4127 8.96328 19.9824 8.39868V10.7252C19.5365 11.265 16.9729 14.1437 15.9078 15.1239C14.0935 16.7928 12.8736 16.5446 13.3442 14.7951C13.629 13.759 14.0316 12.754 14.5455 11.8109C15.1586 11.569 16.7066 10.8927 17.9017 10.0738Z" fill="#E4E8EB"/>
</svg>
