<svg width="24" height="24" viewBox="0 0 24 24" fill="none" xmlns="http://www.w3.org/2000/svg">
<path d="M10.8337 4.15733C11.5178 3.78302 12.5082 3.74236 13.2902 4.17248L13.7721 3.29625C12.6792 2.69518 11.3259 2.7481 10.3537 3.28008L10.8337 4.15733Z" fill="#1F1F22"/>
<path d="M4.63734 10.4901C3.94531 11.7804 3.85963 12.9056 3.83594 14.3982L4.83581 14.4141C4.85899 12.9536 4.94518 12.0319 5.51859 10.9628L4.63734 10.4901Z" fill="#1F1F22"/>
<path d="M20.2734 14.3982C20.2497 12.9055 20.1641 11.7804 19.472 10.4901L18.5908 10.9628C19.1642 12.0319 19.2504 12.9536 19.2736 14.4141L20.2734 14.3982Z" fill="#1F1F22"/>
<path fill-rule="evenodd" clip-rule="evenodd" d="M5.82601 4.74766L5.34818 4.0542L4.9681 4.8057C4.60118 5.5312 4.37078 6.21276 4.4133 6.83857C4.43661 7.18157 4.53979 7.48628 4.71513 7.75525C4.32904 7.96054 3.97825 8.29757 3.64669 8.76564C3.57055 8.87314 3.49727 8.98266 3.42376 9.09254C3.22296 9.39267 3.02041 9.69542 2.75289 9.96664C2.41025 10.314 2.02224 10.538 1.51414 10.5236L0.891357 10.506L1.00901 11.1178C1.07531 11.4625 1.2014 11.8543 1.51254 12.1639C1.73226 12.3826 2.01197 12.5291 2.35072 12.6096C2.24675 14.1749 1.96065 15.4777 1.34684 16.3636L1.02236 16.832L1.52885 17.0929C2.29239 17.4862 3.13697 17.3901 3.76302 17.1407C4.05756 17.6142 4.41366 17.9814 4.84398 18.2739C5.39052 18.6453 6.03326 18.8796 6.75999 19.0763L7.40459 19.2508L7.39053 18.5832C7.36722 17.476 7.1727 16.5891 6.80233 15.8866C6.94764 15.8555 7.08331 15.814 7.20998 15.7609C7.58692 15.6028 7.84929 15.3564 8.04538 15.052L8.23861 14.7519L8.23824 14.8123C8.23435 15.472 8.23433 16.3097 8.25013 17.0113C8.27316 18.0342 9.20834 19.0063 10.4129 18.9527C10.8854 18.9317 11.0901 18.95 11.2206 19.0025C11.3145 19.0403 11.4224 19.1177 11.5983 19.4221L12.0309 20.1706L12.464 19.4225C12.5078 19.3468 12.5501 19.2818 12.5875 19.2283C12.6882 19.1005 12.7744 19.0458 12.8599 19.0127C13.0167 18.9521 13.2505 18.932 13.7138 18.9526C14.9184 19.0062 15.8536 18.0341 15.8766 17.0112C15.8924 16.3096 15.8924 15.4719 15.8885 14.8122C15.8884 14.8011 15.8883 14.7901 15.8883 14.7791L16.064 15.052C16.2601 15.3564 16.5225 15.6028 16.8994 15.7609C17.0261 15.814 17.1617 15.8555 17.307 15.8866C16.9367 16.5891 16.7422 17.476 16.7188 18.5832L16.7048 19.2508L17.3494 19.0763C18.0761 18.8796 18.7188 18.6453 19.2654 18.2739C19.6957 17.9814 20.0518 17.6142 20.3463 17.1407C20.9724 17.3901 21.817 17.4862 22.5805 17.0929L23.087 16.832L22.7625 16.3636C22.1487 15.4777 21.8626 14.1749 21.7587 12.6096C22.0974 12.5291 22.3771 12.3826 22.5968 12.1639C22.908 11.8543 23.0341 11.4625 23.1004 11.1178L23.218 10.506L22.5952 10.5236C22.0871 10.538 21.6991 10.314 21.3565 9.96664C21.089 9.69542 20.8864 9.39266 20.6856 9.09254C20.6121 8.98266 20.5388 8.87314 20.4627 8.76564C20.1311 8.29756 19.7803 7.96054 19.3942 7.75525C19.5696 7.48628 19.6728 7.18157 19.6961 6.83857C19.7386 6.21276 19.5082 5.5312 19.1413 4.8057L18.7612 4.0542L18.2834 4.74766C18.1334 4.96532 17.8751 5.19904 17.5634 5.40562C17.4408 5.48691 17.3156 5.56026 17.1932 5.624C17.0253 5.20841 16.7071 4.90926 16.3359 4.71124C15.8118 4.43176 15.1711 4.34087 14.6368 4.32828L13.7056 4.30634L14.2019 5.09454C14.6141 5.74919 14.6441 6.15888 14.6271 6.41521C14.6201 6.5196 14.6099 6.57962 14.5977 6.65043C14.589 6.70143 14.5793 6.75804 14.5692 6.84085C14.5518 6.98351 14.5293 7.26092 14.7267 7.50775C14.8165 7.61999 14.9336 7.71057 15.0286 7.7784C15.118 7.84228 15.2226 7.90981 15.3244 7.97551L15.36 7.99851C15.5948 8.15031 15.8487 8.31801 16.0921 8.53341C16.5647 8.95186 16.9962 9.54782 17.0395 10.5222C17.0975 11.825 16.9671 12.7859 16.774 13.428C16.6773 13.7496 16.5686 13.9789 16.4696 14.1288C16.3753 14.2715 16.3118 14.3099 16.3039 14.3147C16.3037 14.3148 16.3039 14.3147 16.3039 14.3147L15.8861 14.4771C15.8851 14.3665 15.8842 14.2641 15.8832 14.1719H15.8906V8.7344H14.3906V7.17915L14.3091 7.05448L14.3081 7.05298L14.3069 7.0511L14.3036 7.04622L14.294 7.03217C14.2863 7.02096 14.2758 7.00611 14.2626 6.98816C14.2362 6.9523 14.1988 6.90374 14.1506 6.84673C14.0548 6.73327 13.9136 6.58321 13.729 6.43272C13.3619 6.13355 12.7966 5.81248 12.0625 5.81248C11.3277 5.81248 10.7656 6.1341 10.4014 6.43468C10.2185 6.58572 10.0791 6.73632 9.98467 6.8502C9.9372 6.90742 9.90039 6.95619 9.87443 6.99223C9.86143 7.01027 9.8511 7.0252 9.84346 7.03649L9.83401 7.05066L9.83078 7.0556L9.82955 7.05751L9.82857 7.05904L9.75 7.1821V8.7344H8.25V13.664L8.24869 13.751C8.24789 13.8071 8.24679 13.8886 8.24557 13.9908C8.24398 14.1237 8.24218 14.2916 8.24058 14.4838L7.8059 14.3151C7.80625 14.3152 7.80605 14.3152 7.8059 14.3151C7.79802 14.3103 7.73404 14.2715 7.63978 14.1288C7.54076 13.9789 7.43206 13.7496 7.33535 13.428C7.14231 12.7859 7.01183 11.825 7.06984 10.5222C7.11322 9.54782 7.54464 8.95186 8.01732 8.53341C8.26064 8.31801 8.51456 8.15031 8.74938 7.99851L8.785 7.97551C8.88675 7.90981 8.99136 7.84228 9.08078 7.7784C9.17573 7.71057 9.29285 7.62 9.38264 7.50775C9.58011 7.26092 9.55755 6.98351 9.54017 6.84085C9.53008 6.75804 9.52039 6.70143 9.51165 6.65043C9.49952 6.57962 9.48924 6.5196 9.48232 6.41521C9.46532 6.15888 9.49532 5.74919 9.90751 5.09454L10.4038 4.30634L9.47262 4.32828C8.93827 4.34087 8.29753 4.43176 7.77352 4.71124C7.40225 4.90926 7.08403 5.20841 6.91617 5.624C6.79381 5.56026 6.66856 5.48691 6.54594 5.40562C6.23429 5.19904 5.97598 4.96532 5.82601 4.74766ZM9.24359 14.1719H14.8831C14.885 14.3524 14.887 14.5732 14.8885 14.8181C14.8924 15.4751 14.8923 16.3015 14.8768 16.9887C14.8663 17.4558 14.3975 17.982 13.7583 17.9536C13.2997 17.9332 12.8725 17.9356 12.4991 18.0801C12.3232 18.1481 12.172 18.2419 12.0381 18.3589C11.9111 18.2405 11.7662 18.1442 11.5939 18.0748C11.2342 17.9301 10.8178 17.9337 10.3684 17.9537C9.72917 17.9821 9.26039 17.4559 9.24988 16.9888C9.23441 16.3016 9.23435 15.4752 9.23823 14.8182C9.23967 14.5733 9.24166 14.3524 9.24359 14.1719ZM7.78919 6.31697C7.78676 5.96503 7.9485 5.75126 8.24412 5.59359C8.35771 5.533 8.48777 5.4837 8.62875 5.44472C8.49097 5.85043 8.46526 6.19108 8.48451 6.48138C8.49405 6.6253 8.52254 6.80329 8.53793 6.89941L8.54319 6.93245C8.53101 6.94178 8.51656 6.95251 8.49949 6.9647C8.43044 7.01403 8.34673 7.06811 8.23973 7.13723L8.20649 7.15871C7.96971 7.31177 7.65945 7.51467 7.35448 7.78465C7.20566 7.9164 7.0581 8.06417 6.91889 8.23057L5.96335 7.59856C5.57177 7.33956 5.4317 7.07541 5.411 6.77077C5.3958 6.54711 5.44279 6.26988 5.56812 5.92184C5.70497 6.03716 5.8491 6.14346 5.99343 6.23913C6.36816 6.48753 6.78101 6.6886 7.14386 6.79883L7.79389 6.99631L7.78919 6.31697ZM5.68752 8.51559H6.70262C6.36235 9.01241 6.10766 9.65026 6.07083 10.4777C6.00921 11.8617 6.14436 12.9398 6.3777 13.7159C6.4942 14.1034 6.63888 14.4279 6.80537 14.68C6.83351 14.7226 6.8632 14.7645 6.89448 14.8052C6.87186 14.8171 6.84817 14.8282 6.82326 14.8387C6.63989 14.9156 6.35984 14.9682 5.90645 14.961L4.74401 14.9424L5.53006 15.799C5.93979 16.2455 6.2377 16.8987 6.34707 17.9037C5.97805 17.7725 5.66995 17.6261 5.40606 17.4468C5.00622 17.175 4.68508 16.812 4.41931 16.2597L4.17257 15.747L3.69583 16.0576C3.39979 16.2505 2.95013 16.3889 2.51282 16.3509C3.09311 15.1967 3.30762 13.7273 3.37454 12.2016L3.39618 11.7081L2.90297 11.6804C2.49591 11.6576 2.31282 11.5496 2.21797 11.4551C2.21321 11.4504 2.20851 11.4455 2.20387 11.4406C2.7248 11.3002 3.13826 11 3.46483 10.6689C3.80604 10.3229 4.08766 9.90118 4.2971 9.58751C4.35864 9.49534 4.41396 9.4125 4.46272 9.34366C4.9358 8.67577 5.31682 8.51559 5.68752 8.51559ZM10.75 7.49389V9.01448L12.0509 10.0892L13.3906 9.01062V7.49671L13.3867 7.4921C13.3217 7.41513 13.2241 7.31128 13.0972 7.20787C12.8412 6.99923 12.4924 6.81248 12.0625 6.81248C11.6333 6.81248 11.2891 6.99867 11.038 7.2059C10.9134 7.30878 10.8178 7.41208 10.7543 7.48863L10.75 7.49389ZM10.0513 9.7344H9.25V13.1719H14.8906V9.7344H14.0862L12.0428 11.3795L10.0513 9.7344ZM16.3202 6.31697C16.3226 5.96503 16.1609 5.75126 15.8653 5.59359C15.7517 5.533 15.6216 5.4837 15.4806 5.44472C15.6184 5.85043 15.6441 6.19108 15.6249 6.48138C15.6153 6.62529 15.5868 6.80328 15.5714 6.8994L15.5662 6.93245C15.5784 6.94178 15.5928 6.95251 15.6099 6.9647C15.6789 7.01401 15.7626 7.06807 15.8695 7.13715L15.9029 7.15871C16.1397 7.31177 16.4499 7.51467 16.7549 7.78465C16.9037 7.9164 17.0513 8.06417 17.1905 8.23057L18.146 7.59856C18.5376 7.33956 18.6777 7.07541 18.6984 6.77077C18.7136 6.54711 18.6666 6.26988 18.5413 5.92184C18.4044 6.03716 18.2603 6.14346 18.1159 6.23913C17.7412 6.48753 17.3284 6.6886 16.9655 6.79883L16.3155 6.99631L16.3202 6.31697ZM18.4219 8.51559H17.4068C17.747 9.01241 18.0017 9.65026 18.0385 10.4777C18.1002 11.8617 17.965 12.9398 17.7317 13.7159C17.6152 14.1034 17.4705 14.4279 17.304 14.68C17.2759 14.7226 17.2462 14.7645 17.2149 14.8052C17.2375 14.8171 17.2612 14.8282 17.2861 14.8387C17.4695 14.9156 17.7495 14.9682 18.2029 14.961L19.3654 14.9424L18.5793 15.799C18.1696 16.2455 17.8717 16.8987 17.7623 17.9037C18.1313 17.7725 18.4394 17.6261 18.7033 17.4468C19.1032 17.175 19.4243 16.812 19.6901 16.2597L19.9368 15.747L20.4135 16.0576C20.7096 16.2505 21.1592 16.3889 21.5966 16.3509C21.0163 15.1967 20.8018 13.7273 20.7348 12.2016L20.7132 11.7081L21.2064 11.6804C21.6135 11.6576 21.7966 11.5496 21.8914 11.4551C21.8962 11.4504 21.9009 11.4455 21.9055 11.4406C21.3846 11.3002 20.9711 11 20.6445 10.6689C20.3033 10.3229 20.0217 9.90118 19.8123 9.5875C19.7507 9.49533 19.6954 9.4125 19.6467 9.34366C19.1736 8.67577 18.7926 8.51559 18.4219 8.51559Z" fill="#1F1F22"/>
<path d="M7.83716 20.4038C10.3487 22.0338 13.4875 22.2398 16.2623 20.3844L15.7064 19.5531C13.2937 21.1665 10.5888 20.9975 8.38156 19.565L7.83716 20.4038Z" fill="#1F1F22"/>
</svg>
