<svg width="32" height="33" viewBox="0 0 32 33" fill="none" xmlns="http://www.w3.org/2000/svg">
<g clip-path="url(#clip0_28658_35)">
<path opacity="0.5" fill-rule="evenodd" clip-rule="evenodd" d="M16 32.5C24.8366 32.5 32 25.3366 32 16.5C32 7.66344 24.8366 0.5 16 0.5C7.16344 0.5 0 7.66344 0 16.5C0 25.3366 7.16344 32.5 16 32.5Z" fill="#DFE6EC"/>
<path fill-rule="evenodd" clip-rule="evenodd" d="M19.1554 20.9581C20.09 20.2996 20.6352 19.3748 20.8411 18.304H16.0586V14.9133H24.3077C24.3893 15.3239 24.5004 15.9893 24.5004 16.5585C24.5004 19.3698 23.5551 21.6089 21.9794 23.1232L19.1554 20.9581Z" fill="#4185F5"/>
<path fill-rule="evenodd" clip-rule="evenodd" d="M11.1354 18.3123C11.8634 20.4142 13.8079 21.8922 16.0578 21.8928C17.2472 21.8929 18.3094 21.5783 19.1546 20.9581L21.9775 23.1241C20.4821 24.5605 18.4194 25.3444 16.0578 25.3444C12.6428 25.3444 9.68233 23.3949 8.22852 20.5482L11.1354 18.3123Z" fill="#34A854"/>
<path fill-rule="evenodd" clip-rule="evenodd" d="M11.1358 14.8046C10.9491 15.354 10.8472 15.944 10.8472 16.5584C10.8472 17.1728 10.9491 17.7628 11.1358 18.3122L8.22716 20.5443C7.61671 19.3479 7.27246 17.9933 7.27246 16.5584C7.27246 15.1235 7.61671 13.769 8.22716 12.5725L11.1358 14.8046Z" fill="#FBBD05"/>
<path fill-rule="evenodd" clip-rule="evenodd" d="M16.0586 7.77271C18.3517 7.77271 20.4014 8.60277 21.9069 10.0528L19.4443 12.5387C18.549 11.7204 17.3698 11.2243 16.0586 11.2243C13.8117 11.2243 11.8608 12.7029 11.1362 14.8047L8.22754 12.5726C9.68608 9.63995 12.797 7.77271 16.0586 7.77271Z" fill="#EA4336"/>
</g>
<defs>
<clipPath id="clip0_28658_35">
<rect width="32" height="32" fill="white" transform="translate(0 0.5)"/>
</clipPath>
</defs>
</svg>
