<svg width="24" height="24" viewBox="0 0 24 24" fill="none" xmlns="http://www.w3.org/2000/svg">
<path d="M6.69607 10.9173L7.69663 10.0712V8.30043L8.31227 8.76281V11.149L9.46701 12.3033L3.38492 18.3066L5.92513 20.8459L11.853 14.8426L17.9351 21L20.4754 18.4607L14.3933 12.381L15.548 11.2267V8.83932L16.2413 8.22392V10.0712L17.1653 10.8408L20.0139 7.99328L20.9379 8.6863C21.477 6.68484 18.3977 2.22175 15.8564 4.761L12.8547 7.68502L13.4704 8.37804L11.9307 9.84061L10.4676 8.37804L11.2374 7.68502L8.08154 4.68338C5.61787 2.68303 3.07654 5.76118 3 8.76281L3.92402 7.99328L6.69607 10.9173Z" fill="#E4E8EB"/>
</svg>
