<svg width="24" height="24" viewBox="0 0 24 24" fill="none" xmlns="http://www.w3.org/2000/svg">
<path d="M12.1907 18.9365V14.6816C11.0252 14.6816 10.08 15.6342 10.08 16.809C10.08 17.9839 11.0252 18.9365 12.1907 18.9365V20.8541H5.78834V10.2873H5.79163C5.85522 6.77834 8.69516 3.95267 12.1908 3.95267L12.1907 14.6816C13.3574 14.6816 14.3015 15.6342 14.3015 16.809C14.3015 17.9838 13.3563 18.9365 12.1907 18.9365Z" fill="#1F1F22"/>
<path fill-rule="evenodd" clip-rule="evenodd" d="M5 3H19V21.6667H5V3ZM5.32895 21.3351H18.671V10.2865H18.6678C18.6031 6.77754 15.7292 3.95267 12.1908 3.95267V3.33156H5.32895V21.3351Z" fill="#1F1F22"/>
</svg>
