<svg width="24" height="24" viewBox="0 0 24 24" fill="none" xmlns="http://www.w3.org/2000/svg">
<path d="M10.1703 3.3269H13.8296C16.2069 3.3269 17.069 3.57396 17.9382 4.03787C18.8073 4.50179 19.4894 5.18257 19.9542 6.05001C20.419 6.91746 20.6666 7.77788 20.6666 10.1506V13.8028C20.6666 16.1756 20.419 17.036 19.9542 17.9034C19.4894 18.7709 18.8073 19.4517 17.9382 19.9156C17.069 20.3795 16.2069 20.6266 13.8296 20.6266H10.1703C7.7929 20.6266 6.9308 20.3795 6.06166 19.9156C5.19253 19.4517 4.51042 18.7709 4.04561 17.9034C3.58079 17.036 3.33325 16.1756 3.33325 13.8028V10.1506C3.33325 7.77788 3.58079 6.91746 4.04561 6.05001C4.51042 5.18257 5.19253 4.50179 6.06166 4.03787C6.9308 3.57396 7.7929 3.3269 10.1703 3.3269Z" fill="#08A652"/>
<path fill-rule="evenodd" clip-rule="evenodd" d="M11.4067 14.8265C11.4067 15.2846 11.1284 15.5624 10.689 15.5624C10.2446 15.5624 9.97119 15.2846 9.97119 14.8265V14.4074H9.229C9.07275 14.4074 8.97998 14.31 8.97998 14.1638C8.97998 14.0176 9.07275 13.9201 9.229 13.9201H9.97119V12.9552H9.229C9.06787 12.9552 8.9751 12.8528 8.9751 12.7018C8.9751 12.5556 9.06787 12.4532 9.229 12.4532H9.97119V9.32456C9.97119 8.8421 10.2446 8.55945 10.7085 8.55945H12.6812C14.0581 8.55945 14.9761 9.47563 14.9761 10.7622C14.9761 12.0341 14.0142 12.9552 12.6079 12.9552H11.4067V13.9201H13.0522C13.2085 13.9201 13.3013 14.0176 13.3013 14.1638C13.3013 14.31 13.2085 14.4074 13.0522 14.4074H11.4067V14.8265ZM11.4067 11.8636H12.2466C13.0815 11.8636 13.521 11.4493 13.521 10.7768C13.521 10.1092 13.0864 9.69493 12.2515 9.69493H11.4067V11.8636Z" fill="white"/>
</svg>
