<svg width="24" height="24" viewBox="0 0 24 24" fill="none" xmlns="http://www.w3.org/2000/svg">
<path d="M7.34082 20.3408H5V10.2626C5.00965 8.60464 5.67256 7.01732 6.84494 5.84494C8.01733 4.67256 9.60464 4.00965 11.2626 4H19V10.2095C18.9989 11.8708 18.3382 13.4637 17.1631 14.6381C15.988 15.8125 14.3946 16.4721 12.7333 16.4721H8.8115L9.68165 14.1313H12.6802C13.1958 14.1335 13.7068 14.0335 14.1835 13.8372C14.6603 13.6409 15.0935 13.3521 15.4581 12.9875C15.8227 12.6228 16.1116 12.1897 16.3078 11.7129C16.5042 11.2361 16.6041 10.7251 16.602 10.2095V6.34082H11.2095C10.6939 6.33866 10.1829 6.43863 9.70616 6.63495C9.22937 6.83127 8.79618 7.12007 8.43157 7.48467C8.06697 7.84927 7.77816 8.28248 7.58184 8.75926C7.38552 9.23605 7.28555 9.74699 7.28772 10.2626V20.3408H7.34082Z" fill="#E4E8EB"/>
</svg>
