<svg width="24" height="24" viewBox="0 0 24 24" fill="none" xmlns="http://www.w3.org/2000/svg">
<rect y="4" width="24" height="16" rx="2" fill="white"/>
<path fill-rule="evenodd" clip-rule="evenodd" d="M8.48961 13.3337L7.29557 10.4981H6.24592L4.98523 13.4975H5.75164L6.02377 12.8253H7.48995L7.76208 13.4975H9.19493V11.1477L10.2168 13.4975H10.8388L11.8552 11.1477L11.8607 13.4975H12.5549V10.4981H11.4109L10.5611 12.5316L9.63923 10.4981H8.48961V13.3337ZM6.75686 11.0065L7.24003 12.204H6.27369L6.75686 11.0065Z" fill="#0083D7"/>
<path fill-rule="evenodd" clip-rule="evenodd" d="M16.8924 11.481L16.026 10.4981H13.1936V13.4975H15.9815L16.8812 12.5033L17.7476 13.4975H18.6529L17.3366 12.0063L18.6529 10.4981H17.7865L16.8924 11.481ZM15.4373 11.6674H13.8934V11.1195H15.6594L16.4314 11.995L15.6261 12.8761H13.8934V12.2774H15.4373V11.6674Z" fill="#0083D7"/>
<path fill-rule="evenodd" clip-rule="evenodd" d="M4 7C3.44772 7 3 7.44772 3 8V16C3 16.5523 3.44772 17 4 17H20C20.5523 17 21 16.5523 21 16V8C21 7.44772 20.5523 7 20 7H4ZM6.18483 14.0849H4.03L5.8294 9.90503H7.61021L8.06269 10.734L8.06214 9.92536L10.0558 9.90503L10.5278 10.9839L10.9888 9.90503H16.3536L16.8979 10.5433L17.481 9.90503H19.9747L18.1697 12.0063L19.9747 14.0906L17.4422 14.0849L16.8812 13.4353L16.2814 14.0849H7.32889L7.06232 13.4184H6.45141L6.18483 14.0849Z" fill="#0083D7"/>
</svg>
