<svg width="24" height="24" viewBox="0 0 24 24" fill="none" xmlns="http://www.w3.org/2000/svg">
<path fill-rule="evenodd" clip-rule="evenodd" d="M5.84083 17.1015C6.84981 15.6509 9.32191 12.1016 9.86127 11.3719C10.5497 10.4563 12.1937 8.30421 12.1937 8.30421C12.1937 8.30421 12.2196 8.28484 12.3348 8.11908C12.3363 8.11615 12.3379 8.11321 12.3408 8.11028C12.341 8.10999 12.3412 8.10971 12.3414 8.10942C12.4609 7.92945 12.4141 7.79614 12.3274 7.72276C12.2739 7.67598 11.0375 6.92744 11.0375 6.92744C10.9507 6.86729 10.8905 6.76704 10.8905 6.64674C10.8905 6.58154 10.9043 6.52284 10.9327 6.4709C10.9849 6.375 11.0876 6.29973 11.2515 6.2523C12.0468 6.03174 14.8538 5.91813 15.8028 5.91813C16.1303 5.91813 16.7051 5.91813 17.213 5.9315L17.193 5.91144C15.7962 4.7218 13.9783 4 12 4C7.58229 4 4 7.58229 4 12C4 13.9427 4.69355 15.7187 5.84083 17.1015ZM5.42946 18.1436C5.41689 18.1696 5.41702 18.1891 5.42357 18.2022C5.63075 18.5364 5.9716 18.9173 6.16542 18.9173C6.22557 18.9173 6.31246 18.8906 6.36592 18.8638C6.36356 18.8615 6.38121 18.85 6.43181 18.8169C6.52449 18.7563 6.72774 18.6235 7.12114 18.3425C8.4712 19.3852 10.1621 20 12 20C16.4177 20 20 16.4177 20 12C20 10.6633 19.6725 9.4002 19.0911 8.29744C19.3651 8.03008 19.6859 7.60904 19.472 7.08774C19.4083 6.94121 19.126 6.60646 19.0303 6.50019C19.0741 6.63109 19.0893 6.75129 19.0832 6.86186C19.0692 7.25684 18.7849 7.52729 18.5631 7.72266C18.5434 7.74062 18.4929 7.78762 18.4149 7.8603C17.8834 8.35529 16.073 10.0414 13.9983 11.8597C11.8998 13.6976 9.5472 15.5622 8.19048 16.5848C6.27904 18.015 5.90477 18.2222 5.90477 18.2222C5.8513 18.249 5.7711 18.2757 5.71095 18.2757C5.61305 18.2757 5.5201 18.236 5.45778 18.1737C5.44774 18.1643 5.43828 18.1542 5.42946 18.1436Z" fill="#E4E8EB"/>
</svg>
