<svg width="20" height="20" viewBox="0 0 20 20" fill="none" xmlns="http://www.w3.org/2000/svg">
<circle cx="10" cy="10" r="10" fill="#FED42B"/>
<path d="M1.67316 15.5909L5.13386 11L4.46721 15.7333L8.13375 17L12.6003 9.86665C12.4003 11.2 12.0669 14.2666 15.0002 15.2C16.4598 15.6442 17.859 15.1151 19.1488 14.0514C19.6961 12.8137 20 11.4431 20 9.99998C20 9.3309 19.9347 8.67742 19.8101 8.04555C18.3778 10.2026 16.9991 11.726 16.2668 11.5333C15.0002 11.2 16.1335 7.13332 16.8668 4.53332L12.8002 3.06665L7.93375 11L8.6004 6.66665L5.06719 5.46665L0.161133 11.8968C0.408852 13.2445 0.933318 14.4952 1.67316 15.5909Z" fill="black"/>
</svg>
