<svg width="24" height="24" viewBox="0 0 24 24" fill="none" xmlns="http://www.w3.org/2000/svg">
<path fill-rule="evenodd" clip-rule="evenodd" d="M5.17115 7.44592C6.6232 7.44592 7.76332 8.12402 7.81276 9.56973C7.84573 10.5335 7.42319 11.2225 6.54515 11.6367C7.60475 12.04 8.13455 12.7658 8.13455 13.8142C8.13455 15.3868 7.25133 16.3643 5.56962 16.3643H2V7.44592H5.17115ZM15.2866 7.44592L14.7912 8.94414H12.5432V16.3643H10.7829V8.94414H8.24059V7.44592H15.2866ZM21.546 7.44592L21.0565 8.94655H17.5797V10.928H19.2903C20.2851 10.928 22 11.4113 22 13.6287C22 15.8461 20.4405 16.3643 19.1468 16.3643H15.8386V7.44592H21.546ZM4.88504 12.5631H3.72592V14.9101L5.04215 14.9097C5.85469 14.8846 6.26096 14.4937 6.26096 13.7369C6.26096 12.9329 5.80232 12.5416 4.88504 12.5631ZM18.8984 12.3812L17.5781 12.3808V14.8886L18.9001 14.8882C19.3273 14.8809 20.1827 14.7726 20.1827 13.6338C20.1827 12.5467 19.3914 12.4002 18.9578 12.3829L18.8984 12.3812ZM4.88504 8.92241H3.72592V11.0063H4.88504C5.63289 11.0031 6.00682 10.655 6.00682 9.96196C6.00682 9.26893 5.63289 8.92241 4.88504 8.92241Z" fill="#1F1F22"/>
</svg>
