<svg width="24" height="24" viewBox="0 0 24 24" fill="none" xmlns="http://www.w3.org/2000/svg">
<path d="M10.1704 3.24451H13.8297C16.2071 3.24451 17.0692 3.48544 17.9383 3.93787C18.8074 4.39029 19.4895 5.05421 19.9544 5.90017C20.4192 6.74614 20.6667 7.58525 20.6667 9.89924V13.461C20.6667 15.775 20.4192 16.6141 19.9544 17.46C19.4895 18.306 18.8074 18.9699 17.9383 19.4223C17.0692 19.8748 16.2071 20.1157 13.8297 20.1157H10.1704C7.79302 20.1157 6.93092 19.8748 6.06179 19.4223C5.19265 18.9699 4.51055 18.306 4.04573 17.46C3.58091 16.6141 3.33337 15.775 3.33337 13.461V9.89924C3.33337 7.58525 3.58091 6.74614 4.04573 5.90017C4.51055 5.05421 5.19265 4.39029 6.06179 3.93787C6.93092 3.48544 7.79302 3.24451 10.1704 3.24451Z" fill="#08A652"/>
<path fill-rule="evenodd" clip-rule="evenodd" d="M11.4067 14.4594C11.4067 14.9062 11.1284 15.1771 10.689 15.1771C10.2446 15.1771 9.97119 14.9062 9.97119 14.4594V14.0507H9.229C9.07275 14.0507 8.97998 13.9556 8.97998 13.8131C8.97998 13.6705 9.07275 13.5754 9.229 13.5754H9.97119V12.6344H9.229C9.06787 12.6344 8.9751 12.5346 8.9751 12.3873C8.9751 12.2447 9.06787 12.1449 9.229 12.1449H9.97119V9.0937C9.97119 8.62319 10.2446 8.34753 10.7085 8.34753H12.6812C14.0581 8.34753 14.9761 9.24103 14.9761 10.4957C14.9761 11.7362 14.0142 12.6344 12.6079 12.6344H11.4067V13.5754H13.0522C13.2085 13.5754 13.3013 13.6705 13.3013 13.8131C13.3013 13.9556 13.2085 14.0507 13.0522 14.0507H11.4067V14.4594ZM11.4067 11.5698H12.2466C13.0815 11.5698 13.521 11.1658 13.521 10.51C13.521 9.85887 13.0864 9.4549 12.2515 9.4549H11.4067V11.5698Z" fill="white"/>
</svg>
