<svg width="24" height="24" viewBox="0 0 24 24" fill="none" xmlns="http://www.w3.org/2000/svg">
<path d="M12 3C7.0563 3 3 7.0563 3 12C3 16.9437 6.9933 21 12 21C17.0067 21 21 16.9437 21 12C21 7.0563 16.9437 3 12 3ZM10.3521 17.5143C10.2252 17.7681 9.9714 17.8311 9.7185 17.8311C9.5916 17.8311 9.4017 17.7681 9.2748 17.7042L8.8311 17.5143C6.9933 16.5639 5.8521 14.5992 5.8521 12.3807V11.4933C5.8521 9.3387 6.9933 7.374 8.8311 6.3597L9.2118 6.1698C9.3378 6.1059 9.5286 6.042 9.6546 6.042C9.9084 6.042 10.1613 6.1689 10.2882 6.3588C10.4151 6.5487 10.4151 6.7395 10.4151 6.9924C10.4151 7.4361 10.0983 7.626 10.0983 7.626C9.021 8.1336 8.3874 9.2109 8.3874 10.4151V13.584C8.3874 14.7882 9.021 15.9294 10.0983 16.3731C10.1613 16.4361 10.4151 16.563 10.479 16.8798C10.542 17.1336 10.479 17.3235 10.3521 17.5143ZM15.1059 17.5773L14.6622 17.7672C14.5353 17.8302 14.3454 17.8941 14.2185 17.8941C13.9017 17.8941 13.7118 17.7672 13.5849 17.5773C13.458 17.3874 13.458 17.1975 13.5219 16.9437C13.5849 16.6269 13.8387 16.5 13.9026 16.437C14.9799 15.9303 15.6135 14.8521 15.6135 13.6479V10.479C15.6135 9.2748 14.9799 8.1336 13.9026 7.6899C13.9026 7.6899 13.5858 7.563 13.5219 7.1832C13.4589 6.9294 13.5219 6.7395 13.5849 6.5496C13.7118 6.3597 13.9656 6.2328 14.2185 6.2328C14.3454 6.2328 14.5353 6.2958 14.6622 6.3597L15.0429 6.5496C16.8807 7.5 18.0219 9.4647 18.0219 11.6832C18.0849 11.5563 18.0849 12.4437 18.0849 12.4437C18.0849 14.5983 16.9437 16.563 15.1059 17.5773Z" fill="#1F1F22"/>
</svg>
