<svg width="24" height="24" viewBox="0 0 24 24" fill="none" xmlns="http://www.w3.org/2000/svg">
<path d="M17.65 6.34C16.14 4.83 14.13 4 12 4C9.86 4 7.85 4.83 6.34 6.34C4.83 7.85 4 9.86 4 12C4 14.13 4.83 16.14 6.34 17.65C7.85 19.16 9.86 20 12 20C14.13 20 16.14 19.16 17.65 17.65C19.16 16.14 20 14.13 20 12C20 9.86 19.16 7.85 17.65 6.34ZM7.95 6.16V11.27H4.93C5.15 9.15 6.3 7.31 7.95 6.16ZM7.95 14.18H5.24C5.09 13.71 4.98 13.23 4.93 12.72H7.95V14.18ZM5.9 15.64H7.95V17.83C7.12 17.26 6.42 16.51 5.9 15.64ZM12 19.09C11.08 19.09 10.21 18.92 9.41 18.61V15.64H12.73V14.18H9.41V12.72L11.37 12.73C14.62 12.73 16 11.07 16 9.06C16 7.11 14.87 5.42 11.37 5.42L9.28 5.43C10.12 5.09 11.03 4.9 11.99 4.9C15.91 4.9 19.09 8.08 19.09 12C19.09 15.92 15.92 19.09 12 19.09ZM9.42 11.27V6.89L11.47 6.88C13.47 6.88 14.35 7.7 14.35 9.11C14.35 10.53 13.34 11.27 11.34 11.27H9.42Z" fill="#E4E8EB"/>
</svg>
