<svg width="24" height="24" viewBox="0 0 24 24" fill="none" xmlns="http://www.w3.org/2000/svg">
<path d="M3 5.78796L5.68608 10.5484V13.4515L3 18.212V5.78796Z" fill="#656CAE"/>
<path d="M13.3291 8.81486L15.849 7.28766H20.9997L13.3291 11.9381V8.81486Z" fill="#C25169"/>
<path d="M13.3156 5.76048L13.3294 12.0619L10.6295 10.4246V1L13.3156 5.76048Z" fill="#EBAD4C"/>
<path d="M21 7.28768H15.8494L13.3156 5.76048L10.6295 1L21 7.28768Z" fill="#DB754B"/>
<path d="M13.3294 18.2395V15.1713L10.6295 13.5616V23L13.3294 18.2395Z" fill="#81BB5D"/>
<path d="M15.835 16.7261L5.68608 10.5484L3 5.78796L20.9995 16.7123L15.835 16.7261Z" fill="#608BC9"/>
<path d="M10.6295 23L13.3294 18.2395L15.8355 16.726L21 16.7123L10.6295 23Z" fill="#548254"/>
<path d="M3 18.212L10.6567 13.5616L8.0814 12.0069L5.68608 13.4516L3 18.212Z" fill="#8366A8"/>
</svg>
