<svg width="24" height="24" viewBox="0 0 24 24" fill="none" xmlns="http://www.w3.org/2000/svg">
<path fill-rule="evenodd" clip-rule="evenodd" d="M5.24818 11.2162C6.49864 11.2162 7.41528 10.3557 7.41528 9.10842C7.41528 7.86117 6.49921 7.00063 5.24818 7.00063C3.99772 7.00063 3.08108 7.86117 3.08108 9.10842C3.08108 10.3557 3.99716 11.2162 5.24818 11.2162ZM13.6941 11.2162C14.9445 11.2162 15.8611 10.3557 15.8611 9.10842C15.8611 7.86117 14.9445 7.00063 13.6941 7.00063C12.4436 7.00063 11.527 7.86117 11.527 9.10842C11.527 10.3557 12.4436 11.2162 13.6941 11.2162ZM20.2703 11.0792V8.6468C20.2703 7.47445 19.6384 7.00063 18.7846 7C18.215 7 17.7688 7.2746 17.5088 7.72355H17.484V7.12479H16.4434V11.0792H17.4961V9.13329C17.4961 8.27228 17.8801 7.97313 18.4127 7.97313C18.9201 7.97313 19.2176 8.23569 19.2176 8.87152V11.0792H20.2703ZM7.79922 8.02317V7.12479H11.1678V7.96046L9.05026 10.1808H11.2669V11.0792H7.74966V10.2309L9.86719 8.02317H7.79922ZM5.24818 10.2436C4.60422 10.2436 4.18336 9.79413 4.18336 9.10842C4.18336 8.42209 4.60422 7.97313 5.24818 7.97313C5.89214 7.97313 6.313 8.42209 6.313 9.10842C6.313 9.79476 5.89214 10.2436 5.24818 10.2436ZM13.6941 10.2436C13.0501 10.2436 12.6292 9.79413 12.6292 9.10842C12.6292 8.42209 13.0501 7.97313 13.6941 7.97313C14.338 7.97313 14.7589 8.42209 14.7589 9.10842C14.7589 9.79476 14.338 10.2436 13.6941 10.2436ZM16.5348 17.4851V13.5475H15.4815V14.9756H13.7961V13.5475H12.7428V17.4851H13.7961V15.895H15.4815V17.4851H16.5348ZM10.96 14.1187V13.5475H12.0133V17.4851H10.96V16.9508H10.9354C10.7248 17.3233 10.2663 17.6216 9.62202 17.6216C8.56872 17.6216 7.75078 16.8642 7.75078 15.5099C7.75078 14.1684 8.59359 13.4231 9.62202 13.4231C10.2536 13.4231 10.7497 13.7215 10.9354 14.1187H10.96ZM4.06591 14.2805C4.32606 13.8088 4.82153 13.5104 5.46581 13.5104C6.50638 13.5104 7.3612 14.2805 7.3612 15.5099C7.3612 16.7399 6.41984 17.6216 5.19299 17.6216C3.95403 17.6216 3 16.7399 3 15.0878C3 13.2247 3.50814 12.0568 5.21781 11.9203L6.96494 11.7838V12.7899L5.39142 12.939C4.37567 13.0385 4.07803 13.4109 4.04111 14.2805H4.06591ZM8.85417 15.5347C8.85417 16.1934 9.26246 16.6653 9.89478 16.6653C10.5264 16.6653 10.96 16.1807 10.96 15.5221C10.96 14.8512 10.5264 14.3795 9.89478 14.3795C9.2632 14.3795 8.85417 14.8641 8.85417 15.5347ZM4.10228 15.5227C4.10228 16.2056 4.57352 16.6653 5.18032 16.6653C5.7877 16.6653 6.25837 16.2056 6.25837 15.5227C6.25837 14.827 5.7877 14.417 5.18032 14.417C4.57297 14.417 4.10228 14.827 4.10228 15.5227ZM18.2372 15.5973L19.6617 17.4851L21 17.4846L19.2408 15.3358L20.8518 13.5475H19.5506L18.2372 15.1746V13.5475H17.1839V17.4851H18.2372V15.5973Z" fill="#1F1F22"/>
</svg>
