<svg width="24" height="24" viewBox="0 0 24 24" fill="none" xmlns="http://www.w3.org/2000/svg">
<path d="M11.9986 4C13.0923 4 13.4504 4.79658 13.7214 5.59315C13.8424 5.92752 16.6879 13.8343 16.7702 14.0703C16.7861 14.1114 16.7853 14.1572 16.7681 14.1977C16.7509 14.2383 16.7186 14.2702 16.6782 14.2867L15.0183 14.9406C14.9785 14.9536 14.9353 14.9506 14.8976 14.9323C14.8598 14.9141 14.8303 14.8819 14.8151 14.8423C14.7861 14.7587 14.1763 13.0377 14.1037 12.841H9.89355C9.8258 13.0377 9.20637 14.7636 9.17734 14.8423C9.17086 14.8627 9.16035 14.8815 9.14646 14.8976C9.13257 14.9137 9.11559 14.9268 9.09657 14.936C9.07754 14.9452 9.05686 14.9503 9.0358 14.9511C9.01474 14.9519 8.99374 14.9484 8.97409 14.9406C8.89182 14.9013 7.40616 14.3211 7.31905 14.2867C7.29867 14.2791 7.28001 14.2674 7.26423 14.2522C7.24845 14.2371 7.23587 14.2188 7.22727 14.1986C7.21866 14.1783 7.21421 14.1565 7.21418 14.1345C7.21416 14.1124 7.21855 14.0906 7.22711 14.0703C7.32873 13.7753 10.1307 5.99636 10.271 5.59315C10.5469 4.831 10.905 4 11.9986 4ZM6.99966 18.1417C6.95687 18.143 6.91625 18.1612 6.88643 18.1924C6.85662 18.2236 6.83995 18.2654 6.83997 18.3089V20.1577C6.83997 20.2008 6.85679 20.242 6.88674 20.2725C6.91669 20.3029 6.95731 20.32 6.99966 20.32H16.9928C17.0351 20.32 17.0757 20.3029 17.1057 20.2725C17.1356 20.242 17.1525 20.2008 17.1525 20.1577V18.3089C17.1525 18.2654 17.1358 18.2236 17.106 18.1924C17.0762 18.1612 17.0356 18.143 16.9928 18.1417H6.99966ZM11.989 6.5815L10.5662 10.9233H13.4359L11.9841 6.5815H11.989Z" fill="#1F1F22"/>
</svg>
