<svg width="24" height="24" viewBox="0 0 24 24" fill="none" xmlns="http://www.w3.org/2000/svg">
<path d="M10.1704 3.33337H13.8297C16.2071 3.33337 17.0692 3.58091 17.9383 4.04573C18.8074 4.51055 19.4895 5.19265 19.9544 6.06179C20.4192 6.93092 20.6667 7.79302 20.6667 10.1704V13.8297C20.6667 16.2071 20.4192 17.0692 19.9544 17.9383C19.4895 18.8074 18.8074 19.4895 17.9383 19.9544C17.0692 20.4192 16.2071 20.6667 13.8297 20.6667H10.1704C7.79302 20.6667 6.93092 20.4192 6.06179 19.9544C5.19265 19.4895 4.51055 18.8074 4.04573 17.9383C3.58091 17.0692 3.33337 16.2071 3.33337 13.8297V10.1704C3.33337 7.79302 3.58091 6.93092 4.04573 6.06179C4.51055 5.19265 5.19265 4.51055 6.06179 4.04573C6.93092 3.58091 7.79302 3.33337 10.1704 3.33337Z" fill="#08A652"/>
<path fill-rule="evenodd" clip-rule="evenodd" d="M11.4067 14.8555C11.4067 15.3145 11.1284 15.5928 10.689 15.5928C10.2446 15.5928 9.97119 15.3145 9.97119 14.8555V14.4355H9.229C9.07275 14.4355 8.97998 14.3379 8.97998 14.1914C8.97998 14.0449 9.07275 13.9473 9.229 13.9473H9.97119V12.9805H9.229C9.06787 12.9805 8.9751 12.8779 8.9751 12.7266C8.9751 12.5801 9.06787 12.4775 9.229 12.4775H9.97119V9.34277C9.97119 8.85938 10.2446 8.57617 10.7085 8.57617H12.6812C14.0581 8.57617 14.9761 9.49414 14.9761 10.7832C14.9761 12.0576 14.0142 12.9805 12.6079 12.9805H11.4067V13.9473H13.0522C13.2085 13.9473 13.3013 14.0449 13.3013 14.1914C13.3013 14.3379 13.2085 14.4355 13.0522 14.4355H11.4067V14.8555ZM11.4067 11.8867H12.2466C13.0815 11.8867 13.521 11.4717 13.521 10.7979C13.521 10.1289 13.0864 9.71387 12.2515 9.71387H11.4067V11.8867Z" fill="white"/>
</svg>
