<svg width="24" height="24" viewBox="0 0 24 24" fill="none" xmlns="http://www.w3.org/2000/svg">
<path d="M6.00909 17.5H17.9909C19.452 17.5 20.8533 16.9205 21.8864 15.8891C22.9196 14.8576 23.5 13.4587 23.5 12C23.5 10.5413 22.9196 9.14236 21.8864 8.11091C20.8533 7.07946 19.452 6.5 17.9909 6.5H6.00909C4.54799 6.5 3.14673 7.07946 2.11358 8.11091C1.08042 9.14236 0.5 10.5413 0.5 12C0.5 13.4587 1.08042 14.8576 2.11358 15.8891C3.14673 16.9205 4.54799 17.5 6.00909 17.5Z" fill="#21A038"/>
<path fill-rule="evenodd" clip-rule="evenodd" d="M11.9994 12.509V13.7344H11.2969V9.80005H12.6059C13.8481 9.80005 14.3761 10.2444 14.3761 11.1325C14.3761 12.0485 13.7579 12.509 12.6059 12.509H11.9994ZM11.9994 10.4468V11.8622H12.6594C13.3113 11.8622 13.6487 11.6488 13.6487 11.1149C13.6487 10.6316 13.3553 10.4461 12.6711 10.4461L11.9994 10.4468ZM14.7473 11.1208C14.9321 10.9822 15.2695 10.8678 15.7535 10.8678C16.5741 10.8678 16.9789 11.1494 16.9789 11.8798V13.7344H16.3607V13.2284C16.2257 13.554 15.8833 13.7791 15.433 13.7791C14.8654 13.7791 14.5288 13.4587 14.5288 12.9079C14.5288 12.267 14.9952 12.0873 15.686 12.0873H16.3211V11.9641C16.3211 11.5652 16.1304 11.4413 15.7535 11.4413C15.2365 11.4413 14.9387 11.6437 14.7481 11.9414L14.7473 11.1208ZM16.3204 12.7422V12.5149H15.7645C15.3765 12.5149 15.191 12.5882 15.191 12.8405C15.191 13.0539 15.3479 13.1888 15.6405 13.1888C16.0842 13.1888 16.2925 12.9358 16.3204 12.7422ZM18.037 10.9242H17.3037L18.4866 13.749C18.3795 14.1274 18.2277 14.2623 18.026 14.2623C17.8998 14.2601 17.7791 14.2097 17.6887 14.1215V14.7346C17.7716 14.8072 17.9637 14.8578 18.1382 14.8578C18.5093 14.8578 18.7616 14.706 19.0095 14.0321L20.1329 10.9242H19.4363L18.8071 12.8514L18.037 10.9242Z" fill="white"/>
<path fill-rule="evenodd" clip-rule="evenodd" d="M8.31155 11.9986V11.9362L8.95835 11.461C8.99049 11.6389 9.00668 11.8193 9.00675 12C9.00673 12.682 8.77488 13.3437 8.34923 13.8765C7.92359 14.4094 7.32945 14.7817 6.66433 14.9323C5.99921 15.083 5.30263 15.0031 4.68892 14.7057C4.07521 14.4083 3.58084 13.9111 3.28694 13.2957C2.99304 12.6803 2.91708 11.9833 3.07153 11.319C3.22598 10.6548 3.60165 10.0628 4.1369 9.64016C4.67214 9.21756 5.33516 8.98947 6.01712 8.99333C6.69908 8.9972 7.35946 9.23279 7.88988 9.66143L7.30322 10.0919C6.87637 9.80022 6.36413 9.65991 5.84822 9.69335C5.33232 9.72679 4.84248 9.93206 4.45686 10.2764C4.07123 10.6207 3.81205 11.0843 3.72066 11.5932C3.62926 12.102 3.71092 12.6268 3.95261 13.0838C4.1943 13.5408 4.58209 13.9037 5.05411 14.1146C5.52613 14.3255 6.05518 14.3722 6.55686 14.2473C7.05853 14.1224 7.50391 13.8331 7.82195 13.4255C8.13999 13.0179 8.31236 12.5156 8.31155 11.9986ZM4.85693 12.0609V11.1978L6.00093 11.915L8.37913 10.1653C8.5222 10.3498 8.64328 10.5504 8.73993 10.763L6.00093 12.7782L4.85693 12.0609Z" fill="white"/>
</svg>
