<svg width="24" height="24" viewBox="0 0 24 24" fill="none" xmlns="http://www.w3.org/2000/svg">
<path fill-rule="evenodd" clip-rule="evenodd" d="M11.3172 8.7752V11.056H12.7439C13.0605 11.0645 13.3663 10.942 13.587 10.7183C13.9142 10.3872 14.0074 9.89492 13.8231 9.47005C13.6388 9.04518 13.2132 8.77091 12.7439 8.77456H11.3172V8.7752ZM11.3172 11.8609V14.5049H10.4637V7.97473H12.7277C13.2732 7.96367 13.8007 8.16722 14.1933 8.54029C14.5842 8.89689 14.8063 9.39771 14.8063 9.92228C14.8063 10.4468 14.5842 10.9477 14.1933 11.3043C13.7977 11.6758 13.3092 11.8613 12.7277 11.8609H11.3172ZM15.6705 13.1357C15.6692 13.3528 15.7748 13.5571 15.9539 13.684C16.1427 13.8296 16.3768 13.9068 16.6167 13.9023C16.9769 13.9018 17.3222 13.7609 17.5771 13.5104C17.8456 13.2772 17.9993 12.9417 17.9993 12.5893C17.7334 12.382 17.3622 12.2786 16.8858 12.279C16.5399 12.279 16.2509 12.3612 16.0187 12.5254C15.7866 12.6897 15.6705 12.8931 15.6705 13.1357ZM16.773 9.88977C17.4042 9.88977 17.9014 10.0555 18.2645 10.387C18.6277 10.7185 18.8099 11.173 18.8112 11.7505V14.5049H17.998V13.8844H17.9604C17.608 14.3951 17.1381 14.6504 16.5505 14.6504C16.0499 14.6504 15.6296 14.5049 15.2931 14.2125C14.9653 13.9412 14.7794 13.5387 14.7872 13.1172C14.7872 12.6559 14.9649 12.2882 15.3203 12.0141C15.6757 11.7401 16.1512 11.6033 16.747 11.6037C17.2541 11.6037 17.6718 11.6948 17.9999 11.8769V11.6854C18.0017 11.398 17.8722 11.1249 17.6471 10.9417C17.4208 10.7414 17.126 10.6324 16.8216 10.6366C16.346 10.6366 15.9688 10.8343 15.6899 11.2296L14.9377 10.7643C15.351 10.1813 15.9628 9.88977 16.773 9.88977ZM20.6512 16.4748L23.5 10.0341H22.572L21.2543 13.2455H21.2361L19.8814 10.0341H18.9534L20.8276 14.2215L19.7698 16.4748H20.6512Z" fill="#5F6368"/>
<path d="M8.18777 11.3596C8.18846 11.0999 8.16617 10.8407 8.12115 10.5847H4.42151V12.05H6.54349C6.45612 12.5224 6.17297 12.9395 5.75999 13.2041V14.1541H7.02585C7.76604 13.4928 8.19244 12.5157 8.19244 11.3596" fill="#4285F4"/>
<path d="M4.42149 15.0712C5.48015 15.0712 6.37091 14.7347 7.01983 14.1541L5.75397 13.2041C5.4022 13.434 4.94915 13.5677 4.42149 13.5677C3.39881 13.5677 2.5307 12.8999 2.22289 12.0003H0.917725V12.98C1.58417 14.263 2.9396 15.0725 4.42149 15.0725" fill="#34A853"/>
<path d="M2.2202 12.0003C2.05585 11.5289 2.05585 11.0181 2.2202 10.5466V9.56818H0.917694C0.360769 10.6409 0.360769 11.906 0.917694 12.9788L2.2202 12.0003Z" fill="#FABB05"/>
<path d="M4.42149 8.97916C4.98084 8.97027 5.52138 9.17485 5.92653 9.54877L7.04582 8.46444C6.33558 7.81865 5.39522 7.46413 4.42149 7.47504C2.9396 7.47503 1.58417 8.28449 0.917725 9.5675L2.22023 10.5459C2.5307 9.64564 3.39881 8.97851 4.41883 8.97851" fill="#E94235"/>
</svg>
