<svg width="32" height="32" viewBox="0 0 32 32" fill="none" xmlns="http://www.w3.org/2000/svg">
<g clip-path="url(#clip0_28658_34)">
<path fill-rule="evenodd" clip-rule="evenodd" d="M16 32C24.8366 32 32 24.8366 32 16C32 7.16344 24.8366 0 16 0C7.16344 0 0 7.16344 0 16C0 24.8366 7.16344 32 16 32Z" fill="#6FDA44"/>
<path fill-rule="evenodd" clip-rule="evenodd" d="M16.9852 14.9654C17.6159 12.7613 19.1671 11.4211 21.1689 11.4211C23.5311 11.4211 25.4545 13.4032 25.4545 15.8334C25.4545 18.2676 23.5311 20.2618 21.1689 20.2618C20.0642 20.2618 19.1005 19.9146 18.2622 19.3616L17.3064 23.9999H15.1009L16.4211 17.6056C15.7982 16.7982 15.285 15.8899 14.8659 14.9897V15.9585C14.8659 18.3241 12.9973 20.2658 10.7017 20.2658C8.40618 20.2658 6.5376 18.3241 6.54543 15.9585V10.1818H8.69998V15.9585C8.69998 17.0969 9.60097 18.0254 10.7057 18.0254C11.8104 18.0254 12.7113 17.0969 12.7113 15.9585V10.1818H14.8659C15.2929 11.6875 16.0215 13.4758 16.9852 14.9654ZM18.7441 17.0364C19.4844 17.654 20.2992 18.0335 21.1689 18.0335C22.3402 18.0335 23.296 17.0485 23.2999 15.8414C23.2999 14.6304 22.3441 13.6454 21.1689 13.6454C19.602 13.6454 19.0927 15.2036 18.9321 16.1321L18.9243 16.1644L18.7441 17.0364Z" fill="white"/>
</g>
<defs>
<clipPath id="clip0_28658_34">
<rect width="32" height="32" fill="white"/>
</clipPath>
</defs>
</svg>
