<svg width="32" height="32" viewBox="0 0 32 32" fill="none" xmlns="http://www.w3.org/2000/svg">
<g clip-path="url(#clip0)">
<path fill-rule="evenodd" clip-rule="evenodd" d="M16 32C24.8366 32 32 24.8366 32 16C32 7.16344 24.8366 0 16 0C7.16344 0 0 7.16344 0 16C0 24.8366 7.16344 32 16 32Z" fill="#FF4858"/>
<path fill-rule="evenodd" clip-rule="evenodd" d="M20.9787 16.8145C20.8454 17.2745 20.5251 17.6764 20.1059 17.9083C19.7343 18.1161 19.291 18.1873 18.872 18.1173C18.3386 18.0344 17.8599 17.7513 17.4452 17.4171C17.1404 17.1722 16.866 16.8923 16.6029 16.6037C17.0182 16.0788 17.4092 15.5294 17.7079 14.9289C17.9687 14.403 18.1668 13.8332 18.1857 13.242C18.1962 12.8668 18.1256 12.4847 17.9505 12.1507C17.7209 11.7044 17.3099 11.3616 16.8387 11.1957C16.3984 11.0385 15.909 11.0244 15.4599 11.1525C15.0364 11.2723 14.6496 11.5268 14.3845 11.8797C14.1512 12.1873 14.0182 12.5655 13.9874 12.9491C13.9399 13.5016 14.0784 14.0527 14.2878 14.5606C14.5992 15.3026 15.0562 15.9742 15.5609 16.5975C15.334 16.8606 15.0857 17.1052 14.8221 17.3315C14.4123 17.6783 13.9435 17.9802 13.4124 18.0951C12.983 18.1914 12.5197 18.1436 12.1259 17.9443C11.6647 17.7143 11.3105 17.2815 11.1769 16.7838C11.0748 16.4183 11.0975 16.0237 11.2189 15.6655C11.3199 15.3692 11.457 15.0868 11.5852 14.8017C12.4748 12.8619 13.4094 10.9427 14.3853 9.04487C14.5309 8.76242 14.6743 8.47866 14.8285 8.20086C14.9543 7.97707 15.1006 7.75732 15.3074 7.60017C15.5286 7.42714 15.8101 7.33258 16.091 7.33896C16.3824 7.33552 16.6718 7.44281 16.8946 7.63C17.1146 7.81274 17.2633 8.06272 17.3968 8.3119C17.6985 8.87872 17.9884 9.45211 18.2783 10.0249C19.1055 11.6628 19.9011 13.3164 20.6631 14.9856C20.7783 15.2449 20.9015 15.5022 20.9791 15.7758C21.0739 16.1133 21.0771 16.4777 20.9787 16.8145ZM16.0849 15.9797C15.9337 15.8016 15.8005 15.6091 15.6667 15.418C15.4416 15.0878 15.2369 14.7427 15.0723 14.378C14.9374 14.0754 14.8291 13.7578 14.7868 13.4279C14.7559 13.1662 14.7633 12.8932 14.8594 12.6447C14.9454 12.4117 15.1106 12.2099 15.3199 12.0765C15.8187 11.7546 16.5297 11.7894 16.9817 12.1798C17.2103 12.3747 17.347 12.6628 17.3814 12.9589C17.4263 13.3525 17.3368 13.7478 17.1995 14.1149C16.9399 14.7961 16.5291 15.4067 16.0849 15.9797ZM21.8172 16.2135C21.8132 15.8591 21.7303 15.5092 21.601 15.1806C21.5013 14.9261 21.3855 14.6784 21.2725 14.4297C20.373 12.4687 19.4284 10.5289 18.4406 8.61083C18.3017 8.34285 18.1658 8.07324 18.0189 7.8094C17.8748 7.55203 17.7068 7.30427 17.4895 7.10282C17.1427 6.77224 16.6775 6.57514 16.1999 6.54541H15.9801C15.4885 6.56968 15.0087 6.77598 14.6559 7.11981C14.4466 7.31812 14.2846 7.55992 14.1442 7.81011C13.9994 8.0696 13.8653 8.33496 13.729 8.5987C13.0659 9.88544 12.4228 11.1824 11.7991 12.4885C11.4273 13.2702 11.0587 14.0532 10.7042 14.8426C10.5571 15.1715 10.4242 15.5116 10.3741 15.8706C10.2814 16.4767 10.4143 17.1129 10.7382 17.6334C11.0173 18.0854 11.4362 18.4499 11.9246 18.6604C12.3042 18.8245 12.7235 18.8992 13.1364 18.8748C13.6909 18.8454 14.2255 18.6462 14.6947 18.3555C15.218 18.0344 15.6656 17.6071 16.0823 17.1599C16.4698 17.5776 16.8847 17.976 17.3633 18.2885C17.8257 18.5927 18.3528 18.813 18.9074 18.8653C19.5096 18.9282 20.1336 18.779 20.639 18.4437C21.0836 18.1509 21.4346 17.7189 21.6314 17.2243C21.7593 16.904 21.8233 16.5581 21.8172 16.2135Z" fill="white"/>
<path fill-rule="evenodd" clip-rule="evenodd" d="M11.7667 20.4037C12.0159 20.3473 12.2881 20.5116 12.3529 20.759C12.4333 21.0122 12.2735 21.3064 12.019 21.3795C11.7705 21.4671 11.4753 21.3151 11.393 21.0669C11.3149 20.8577 11.3984 20.6052 11.5839 20.4817C11.6386 20.4435 11.7019 20.4181 11.7667 20.4037Z" fill="white"/>
<path fill-rule="evenodd" clip-rule="evenodd" d="M13.4495 22.0378C13.5996 21.8746 13.811 21.7723 14.0289 21.7398C14.1737 21.7257 14.3213 21.7349 14.4632 21.7673C14.4614 21.997 14.4628 22.2264 14.4624 22.4561C14.239 22.3984 13.9971 22.3863 13.7779 22.4671C13.6595 22.5103 13.5506 22.5813 13.4644 22.6731C13.4456 22.6891 13.4501 22.7152 13.4484 22.7376C13.4497 23.3792 13.4474 24.021 13.4493 24.6625C13.4471 24.6872 13.453 24.715 13.4421 24.7382C13.1944 24.7439 12.9463 24.7393 12.6984 24.7402C12.6985 23.762 12.6976 22.7836 12.699 21.8053C12.9078 21.8063 13.1166 21.8045 13.3254 21.8057C13.3713 21.8031 13.4203 21.8266 13.4371 21.8714C13.4536 21.9251 13.4483 21.9822 13.4495 22.0378Z" fill="white"/>
<path fill-rule="evenodd" clip-rule="evenodd" d="M18.7922 22.0403C18.9905 21.8351 19.2779 21.7342 19.5599 21.7336C19.858 21.7261 20.1634 21.8142 20.3936 22.0075C20.5459 22.1267 20.658 22.2947 20.7086 22.4815C20.7743 22.7103 20.7683 22.9505 20.7675 23.1859C20.7677 23.7041 20.7675 24.2223 20.7677 24.7406C20.5178 24.7402 20.268 24.7423 20.0181 24.7395C20.0183 24.2216 20.0181 23.7038 20.0183 23.1857C20.0183 22.9933 20.0274 22.7856 19.9251 22.6143C19.8538 22.4912 19.7128 22.4301 19.5767 22.4158C19.3176 22.3743 19.047 22.4773 18.8684 22.6662C18.8494 22.6852 18.8331 22.7093 18.8353 22.738C18.8328 22.8181 18.845 22.8985 18.8381 22.9787C18.8283 23.0876 18.8435 23.1966 18.84 23.3058C18.8363 23.5118 18.8371 23.7176 18.8392 23.9235C18.825 24.1958 18.8497 24.4692 18.8334 24.7411C18.5846 24.7403 18.3359 24.7409 18.087 24.7408C18.0869 23.7621 18.0853 22.7836 18.0879 21.8051C18.2804 21.8064 18.4732 21.8051 18.6656 21.8057C18.7153 21.8025 18.7697 21.8304 18.7826 21.8809C18.7943 21.9329 18.7908 21.987 18.7922 22.0403Z" fill="white"/>
<path fill-rule="evenodd" clip-rule="evenodd" d="M11.4928 24.7408C11.4927 23.7622 11.4912 22.7836 11.4933 21.8052C11.7412 21.8058 11.9891 21.8056 12.237 21.8054C12.2389 22.7838 12.2375 23.7624 12.2377 24.7407C11.9894 24.7407 11.7411 24.7405 11.4928 24.7408Z" fill="white"/>
<path fill-rule="evenodd" clip-rule="evenodd" d="M10.2584 23.8262C10.1067 24.008 9.86977 24.1152 9.63314 24.1078C9.37951 24.1097 9.11627 24.0125 8.95194 23.8136C8.79166 23.6237 8.74322 23.3595 8.77962 23.1181C8.80682 22.9228 8.90643 22.7354 9.06379 22.6141C9.20648 22.5015 9.38638 22.4434 9.56649 22.4309C9.83478 22.4075 10.1176 22.5258 10.279 22.7424C10.2881 23.0613 10.2792 23.3811 10.2833 23.7006C10.2807 23.7427 10.2923 23.7933 10.2584 23.8262ZM11.0308 21.8055C10.8343 21.8051 10.6378 21.806 10.4411 21.8043C10.3892 21.804 10.3228 21.8065 10.2974 21.8611C10.2747 21.9173 10.2834 21.9796 10.2814 22.0386C10.1178 21.8646 9.88737 21.7612 9.65093 21.7387C9.28586 21.706 8.90755 21.8072 8.61438 22.0289C8.37289 22.2073 8.1944 22.4653 8.10096 22.7494C8.05595 22.8826 8.0334 23.0224 8.01904 23.162V23.363C8.03998 23.7836 8.22706 24.1995 8.5534 24.4707C8.79954 24.6793 9.11587 24.7958 9.43634 24.8161H9.6034C9.85744 24.799 10.1082 24.6939 10.2816 24.5046C10.2832 24.564 10.2748 24.6269 10.297 24.6837C10.3202 24.7297 10.3748 24.7423 10.4222 24.7405C10.625 24.74 10.8281 24.7407 11.031 24.7396C11.031 23.7618 11.0316 22.7835 11.0308 21.8055Z" fill="white"/>
<path fill-rule="evenodd" clip-rule="evenodd" d="M16.7842 23.8803C16.6168 24.0358 16.385 24.1103 16.1586 24.1081C15.9225 24.1135 15.6866 24.005 15.537 23.8223C15.5185 23.8032 15.5124 23.7775 15.514 23.7522C15.5142 23.4164 15.5145 23.0805 15.514 22.7448C15.6576 22.5575 15.8874 22.4408 16.1225 22.4287C16.3609 22.4218 16.611 22.4918 16.7859 22.6598C16.9525 22.8144 17.0339 23.0463 17.0286 23.2709C17.0335 23.4952 16.95 23.7256 16.7842 23.8803ZM17.6585 22.6452C17.543 22.3627 17.3381 22.1172 17.0783 21.957C16.8109 21.7905 16.4901 21.7153 16.1764 21.7366C15.9289 21.7529 15.6869 21.8586 15.515 22.0392C15.514 21.491 15.515 20.9431 15.5145 20.3949C15.2645 20.395 15.0143 20.3937 14.7643 20.3956C14.7656 21.8434 14.7622 23.2923 14.7661 24.74C14.9731 24.7405 15.1803 24.741 15.3875 24.7405C15.4389 24.7446 15.4944 24.7163 15.5086 24.6642C15.5188 24.6113 15.5151 24.5566 15.5154 24.5028C15.6891 24.6959 15.9444 24.8009 16.2009 24.8164H16.354C16.7696 24.7955 17.1771 24.6008 17.4379 24.2743C17.8032 23.8263 17.8745 23.1753 17.6585 22.6452Z" fill="white"/>
<path fill-rule="evenodd" clip-rule="evenodd" d="M23.2425 23.7959C23.0445 24.0506 22.6954 24.1454 22.3856 24.0959C22.197 24.0583 22.0142 23.9565 21.9025 23.7976C21.8901 23.6742 21.9013 23.5494 21.8976 23.4256C21.9003 23.1978 21.892 22.9691 21.9013 22.7418C22.0148 22.5854 22.1964 22.4851 22.3833 22.4436C22.7291 22.3797 23.1312 22.5167 23.3061 22.8361C23.4652 23.1318 23.4495 23.5267 23.2425 23.7959ZM23.8266 22.2818C23.5087 21.8769 22.9652 21.6726 22.4583 21.7483C22.2467 21.7817 22.0461 21.8832 21.8982 22.039C21.8965 21.4911 21.8982 20.9432 21.8974 20.3951C21.6478 20.3948 21.3985 20.3945 21.149 20.3953C21.1488 21.8433 21.149 23.2917 21.149 24.74C21.3457 24.7415 21.5429 24.7397 21.7397 24.7415C21.7913 24.7422 21.8559 24.7381 21.8824 24.6854C21.9053 24.6282 21.8968 24.5647 21.8984 24.5048C22.0708 24.6937 22.3205 24.7979 22.5731 24.8164H22.7416C23.1525 24.7941 23.5543 24.6023 23.8146 24.2807C24.0272 24.0242 24.142 23.6957 24.1609 23.365V23.1687C24.1374 22.8493 24.0295 22.5322 23.8266 22.2818Z" fill="white"/>
</g>
<defs>
<clipPath id="clip0">
<rect width="32" height="32" fill="white"/>
</clipPath>
</defs>
</svg>
