<svg width="20" height="20" viewBox="0 0 20 20" fill="none" xmlns="http://www.w3.org/2000/svg">
<circle cx="10" cy="10" r="10" fill="black"/>
<path d="M10.8006 12.3154C10.4807 12.0824 10.3366 11.7379 10.3366 11.2161C10.3366 10.5604 10.5362 9.75241 10.8674 9.4048C11.0994 9.17118 11.4306 9.06032 11.884 9.06032C12.5252 9.06032 13.3099 9.22943 13.6411 9.5714C13.8625 9.79375 13.9623 10.1044 13.9623 10.5378C13.9623 11.1604 13.7852 12.0379 13.3978 12.4043C13.177 12.6047 12.8789 12.693 12.4591 12.693C11.8853 12.693 11.1643 12.559 10.8006 12.3154ZM13.6199 13.6933L13.5419 14.2933L15.2097 14.5L16 8.0156L14.3328 7.80953L14.2548 8.43837H14.0621C13.8126 7.9943 13.144 7.39365 11.884 7.39365C10.127 7.39365 8.83403 8.69391 8.60138 10.4708C8.57983 10.6443 8.56879 10.819 8.56833 10.9938C8.56833 12.693 9.71785 14.0935 11.5079 14.2933C11.6077 14.3027 11.7069 14.3058 11.8067 14.3046C12.5583 14.3046 13.1221 13.9827 13.4097 13.6939H13.6192L13.6199 13.6933ZM6.08653 4.5L5 13.2392L6.77387 13.4565L7.84294 4.71671L6.08653 4.5Z" fill="white"/>
</svg>
