<svg width="24" height="24" viewBox="0 0 24 24" fill="none" xmlns="http://www.w3.org/2000/svg">
<path fill-rule="evenodd" clip-rule="evenodd" d="M16.9999 8.0625C16.9999 10.8585 14.7614 13.125 12 13.125C9.23848 13.125 7 10.8585 7 8.0625C7 5.26648 9.23848 3 12 3C14.7614 3 16.9999 5.26648 16.9999 8.0625ZM12 19.875C9.23604 19.875 7 20.059 7 20.243V20.632C7 20.816 9.23604 21 12 21C14.7639 21 16.9999 20.816 16.9999 20.632V20.243C17.0154 20.059 14.7639 19.875 12 19.875ZM7 16.2188V16.7812C7 17.7134 9.23848 18.4688 12 18.4688C14.7614 18.4688 16.9999 17.7134 16.9999 16.7812V16.2188C16.9999 15.2866 14.7614 14.5312 12 14.5312C9.23848 14.5312 7 15.2866 7 16.2188Z" fill="#E4E8EB"/>
</svg>
