<svg width="32" height="32" viewBox="0 0 32 32" fill="none" xmlns="http://www.w3.org/2000/svg">
<path fill-rule="evenodd" clip-rule="evenodd" d="M7.80017 13.0769L6.38074 16.5861L5.05569 13.0769C4.83611 12.4948 4.15345 12.0237 3.51672 12.0038L3.47456 12H1V19H3.51672V14.6923L5.53009 19H7.29179L9.17933 15.1818V19H11.696V12H10.7523C10.7523 12 10.6429 12.0038 9.57143 12.0038C8.5 12.0038 8.00465 12.5713 7.80017 13.0769ZM18.9316 12L18.617 12.0339C18.0155 12.1492 17.4165 12.5708 17.1894 13.0769L15.4711 16.9V12H12.9544V19H15.1565L15.4711 18.9661C16.0726 18.8508 16.6716 18.4292 16.8987 17.9231L18.617 14.1V19H21.1337V12H18.9316ZM22.4286 15.1818V19H25.2857V16.8125H28.8571C30.6429 16.8125 31 15.1818 31 15.1818H22.4286Z" fill="#00754E"/>
<path fill-rule="evenodd" clip-rule="evenodd" d="M27.3333 12H23C23 13.0124 24.3577 14 26.0833 14H27.3333H27.9583H31C31 12.75 29.6667 12 27.6667 12H27.3333Z" fill="url(#paint0_linear_47557_76)"/>
<defs>
<linearGradient id="paint0_linear_47557_76" x1="31.3312" y1="13.7947" x2="24.1217" y2="10.3226" gradientUnits="userSpaceOnUse">
<stop stop-color="#205CD8"/>
<stop offset="1" stop-color="#03AFFF"/>
</linearGradient>
</defs>
</svg>
