<svg width="24" height="24" viewBox="0 0 24 24" fill="none" xmlns="http://www.w3.org/2000/svg">
<path d="M12 3C7.02304 3 3 7.02304 3 12C3 16.977 7.02304 21 12 21C16.977 21 21 16.977 21 12C21 7.02304 16.977 3 12 3ZM10.7558 15.8157L10.0922 17.765C7.60369 16.9355 5.9447 14.5714 5.9447 11.9171C5.9447 9.26267 7.60369 6.94009 10.1336 6.06912L10.7972 8.01843C9.13825 8.5576 8.05991 10.1336 8.05991 11.8756C7.97696 13.7005 9.09677 15.2765 10.7558 15.8157ZM13.8249 17.8065L13.2028 15.8157C14.9032 15.2765 16.023 13.7005 16.023 11.9171C16.023 10.1336 14.9032 8.59908 13.2442 8.05991L13.9078 6.06912C16.4378 6.89862 18.1382 9.26267 18.1382 11.9171C18.1382 14.6544 16.3963 17.0184 13.8249 17.8065Z" fill="#E4E8EB"/>
</svg>
