<svg width="32" height="32" viewBox="0 0 32 32" fill="none" xmlns="http://www.w3.org/2000/svg">
<g clip-path="url(#clip0_28658:36)">
<path fill-rule="evenodd" clip-rule="evenodd" d="M16 32C24.8366 32 32 24.8366 32 16C32 7.16344 24.8366 0 16 0C7.16344 0 0 7.16344 0 16C0 24.8366 7.16344 32 16 32Z" fill="#003A81"/>
<path fill-rule="evenodd" clip-rule="evenodd" d="M14.1983 19.654L11.9855 19.6517V17.0058C11.9855 16.4404 12.2048 16.1462 12.6886 16.079H14.1984C15.275 16.079 15.9715 16.7578 15.9715 17.8565C15.9715 18.985 15.2927 19.6529 14.1984 19.654H14.1983ZM11.9855 12.5172V11.8207C11.9855 11.2113 12.2433 10.9214 12.8087 10.884H13.9416C14.9125 10.884 15.4943 11.4648 15.4943 12.4379C15.4943 13.1784 15.0954 14.0435 13.9769 14.0435H11.9855V12.5172ZM17.024 15.1577L16.6239 14.9329L16.9733 14.6342C17.3799 14.2848 18.061 13.4991 18.061 12.1436C18.061 10.0674 16.4509 8.7284 13.9592 8.7284H11.116V8.72729H10.792C10.0536 8.75485 9.46181 9.35546 9.4541 10.0982V21.879H14.0154C16.7848 21.879 18.5723 20.3714 18.5723 18.0362C18.5723 16.7788 17.9949 15.7043 17.024 15.1577Z" fill="white"/>
<path fill-rule="evenodd" clip-rule="evenodd" d="M19.7607 20.2516C19.7607 19.3516 20.4866 18.6235 21.3809 18.6235C22.2774 18.6235 23.0066 19.3516 23.0066 20.2516C23.0066 21.1504 22.2774 21.8796 21.3808 21.8796C20.4866 21.8796 19.7607 21.1504 19.7607 20.2516Z" fill="#00BAFC"/>
</g>
<defs>
<clipPath id="clip0_28658:36">
<rect width="32" height="32" fill="white"/>
</clipPath>
</defs>
</svg>
