<svg width="24" height="24" viewBox="0 0 24 24" fill="none" xmlns="http://www.w3.org/2000/svg">
<path fill-rule="evenodd" clip-rule="evenodd" d="M11.9172 8.17021L10.2691 15.8298H8.27586L9.92464 8.17021H11.9172ZM20.0276 13.1064L21.0781 10.2128L21.6828 13.1064H20.0276ZM22.1648 15.8298H24L22.3981 8.17021H20.7046C20.3237 8.17021 20.0025 8.39125 19.86 8.73195L16.8828 15.8298H18.9657L19.3797 14.6854H21.9251L22.1648 15.8298ZM17.1824 13.3526C17.1912 11.3106 14.4153 11.1979 14.4344 10.2855C14.4404 10.0081 14.6994 9.71312 15.2663 9.63755C15.547 9.60016 16.3221 9.57115 17.2001 9.98366L17.5448 8.34301C17.0725 8.16812 16.4655 8 15.7096 8C13.771 8 12.4062 9.05187 12.3953 10.5575C12.3823 11.672 13.3692 12.293 14.1127 12.6636C14.8766 13.0427 15.1328 13.2859 15.13 13.625C15.1243 14.1444 14.5205 14.3733 13.9559 14.3823C12.9698 14.398 12.3974 14.1103 11.9413 13.8934L11.5862 15.589C12.0441 15.8037 12.8901 15.9908 13.7675 16C15.8283 16 17.176 14.9617 17.1824 13.3526ZM9.26897 8.17021L6.07277 15.8298H3.98759L2.41475 9.71691C2.31925 9.34057 2.2364 9.2024 1.94604 9.04415C1.47191 8.78542 0.68888 8.54292 0 8.39227L0.0464528 8.17021H3.40337C3.83094 8.17021 4.2159 8.45596 4.31299 8.95105L5.14371 13.3835L7.1969 8.17021H9.26897Z" fill="white"/>
</svg>
