<svg width="24" height="25" viewBox="0 0 24 25" fill="none" xmlns="http://www.w3.org/2000/svg">
<path d="M17.4133 14.067H18.9559C18.9999 14.067 19.1028 14.0519 19.1468 14.0519C19.4406 13.9916 19.6904 13.7205 19.6904 13.3439C19.6904 12.9824 19.4406 12.7112 19.1468 12.6359C19.1028 12.6208 19.0146 12.6208 18.9559 12.6208H17.4133V14.067Z" fill="url(#paint0_linear_49350_4348)"/>
<path d="M18.7797 4.07996C17.3106 4.07996 16.106 5.30012 16.106 6.82156V9.6686H19.8815C19.9697 9.6686 20.0725 9.6686 20.1459 9.68366C20.998 9.72886 21.6297 10.1808 21.6297 10.9641C21.6297 11.5817 21.2037 12.1089 20.4104 12.2144V12.2445C21.2771 12.3048 21.9382 12.8019 21.9382 13.5701C21.9382 14.3986 21.2037 14.9409 20.2341 14.9409H16.0913V20.5145H20.0137C21.4828 20.5145 22.6874 19.2943 22.6874 17.7729V4.07996H18.7797Z" fill="url(#paint1_linear_49350_4348)"/>
<path d="M19.4994 11.1446C19.4994 10.7831 19.2497 10.5421 18.9559 10.4969C18.9265 10.4969 18.853 10.4818 18.8089 10.4818H17.4133V11.8074H18.8089C18.853 11.8074 18.9412 11.8074 18.9559 11.7924C19.2497 11.7472 19.4994 11.5061 19.4994 11.1446Z" fill="url(#paint2_linear_49350_4348)"/>
<path d="M4.0009 4.07996C2.53183 4.07996 1.32719 5.30012 1.32719 6.82155V13.5852C2.07642 13.9618 2.85503 14.2028 3.63363 14.2028C4.55915 14.2028 5.05863 13.6304 5.05863 12.847V9.65354H7.35039V12.832C7.35039 14.0672 6.60116 15.0765 4.05966 15.0765C2.51714 15.0765 1.3125 14.73 1.3125 14.73V20.4994H5.23492C6.704 20.4994 7.90864 19.2793 7.90864 17.7578V4.07996H4.0009Z" fill="url(#paint3_linear_49350_4348)"/>
<path d="M11.3903 4.07996C9.92119 4.07996 8.71655 5.30012 8.71655 6.82155V10.4067C9.39233 9.81924 10.5676 9.44264 12.4627 9.53303C13.4763 9.57822 14.5635 9.86443 14.5635 9.86443V11.0243C14.0199 10.7381 13.3735 10.482 12.5361 10.4218C11.0964 10.3163 10.2297 11.0394 10.2297 12.3048C10.2297 13.5852 11.0964 14.3082 12.5361 14.1877C13.3735 14.1275 14.0199 13.8563 14.5635 13.5852V14.7451C14.5635 14.7451 13.491 15.0313 12.4627 15.0765C10.5676 15.1669 9.39233 14.7903 8.71655 14.2028V20.5295H12.639C14.108 20.5295 15.3127 19.3094 15.3127 17.7879V4.07996H11.3903Z" fill="url(#paint4_linear_49350_4348)"/>
<defs>
<linearGradient id="paint0_linear_49350_4348" x1="16.103" y1="13.3454" x2="22.7054" y2="13.3454" gradientUnits="userSpaceOnUse">
<stop stop-color="#007940"/>
<stop offset="0.2285" stop-color="#00873F"/>
<stop offset="0.7433" stop-color="#40A737"/>
<stop offset="1" stop-color="#5CB531"/>
</linearGradient>
<linearGradient id="paint1_linear_49350_4348" x1="16.1033" y1="12.2904" x2="22.7055" y2="12.2904" gradientUnits="userSpaceOnUse">
<stop stop-color="#007940"/>
<stop offset="0.2285" stop-color="#00873F"/>
<stop offset="0.7433" stop-color="#40A737"/>
<stop offset="1" stop-color="#5CB531"/>
</linearGradient>
<linearGradient id="paint2_linear_49350_4348" x1="16.103" y1="11.1423" x2="22.7048" y2="11.1423" gradientUnits="userSpaceOnUse">
<stop stop-color="#007940"/>
<stop offset="0.2285" stop-color="#00873F"/>
<stop offset="0.7433" stop-color="#40A737"/>
<stop offset="1" stop-color="#5CB531"/>
</linearGradient>
<linearGradient id="paint3_linear_49350_4348" x1="1.32385" y1="12.2904" x2="8.02784" y2="12.2904" gradientUnits="userSpaceOnUse">
<stop stop-color="#1F286F"/>
<stop offset="0.4751" stop-color="#004E94"/>
<stop offset="0.8261" stop-color="#0066B1"/>
<stop offset="1" stop-color="#006FBC"/>
</linearGradient>
<linearGradient id="paint4_linear_49350_4348" x1="8.67837" y1="12.2904" x2="15.1893" y2="12.2904" gradientUnits="userSpaceOnUse">
<stop stop-color="#6C2C2F"/>
<stop offset="0.1735" stop-color="#882730"/>
<stop offset="0.5731" stop-color="#BE1833"/>
<stop offset="0.8585" stop-color="#DC0436"/>
<stop offset="1" stop-color="#E60039"/>
</linearGradient>
</defs>
</svg>
