<svg width="24" height="24" viewBox="0 0 24 24" fill="none" xmlns="http://www.w3.org/2000/svg">
<path d="M17.9381 4.32952C12.7515 5.43119 8.88262 8.19863 9.29666 10.51C9.42619 11.2315 9.95852 11.823 10.7854 12.2622L10.7824 12.2749L10.7694 12.261L10.7665 12.2749C8.54016 11.8989 6.88285 10.8665 6.37418 9.28679C5.81878 7.55941 6.27127 5.64173 7.76415 4H4V19.9907C4.67132 19.9169 5.35684 19.8182 6.06188 19.668C11.2479 18.5659 15.1174 15.7989 14.7027 13.4875C14.5732 12.7665 14.0415 12.1745 13.2128 11.7348L13.217 11.7221L13.23 11.7369L13.2329 11.7226C15.4592 12.099 17.1166 13.1314 17.6252 14.7107C18.1818 16.4389 17.7276 18.3566 16.2335 19.9996H20V4.00633C19.3287 4.08059 18.6432 4.17974 17.9381 4.32952Z" fill="#1F1F22"/>
</svg>
