<svg width="20" height="20" viewBox="0 0 20 20" fill="none" xmlns="http://www.w3.org/2000/svg">
<path d="M11.6483 8.13174C12.8546 7.80852 13.9298 8.21559 14.0851 8.7955C14.2405 9.37541 13.513 10.2655 12.3067 10.5887C11.1004 10.912 10.0252 10.5049 9.86979 9.92499C9.71441 9.34508 10.442 8.45498 11.6483 8.13174Z" fill="#005BFF"/>
<path fill-rule="evenodd" clip-rule="evenodd" d="M10 20C15.5228 20 20 15.5228 20 10C20 9.72561 19.9889 9.4538 19.9673 9.18499L16.9213 7.8487L17.403 9.6466C17.4924 9.98023 17.2604 10.3235 16.8976 10.3426C16.6375 10.3563 16.4066 10.1703 16.3386 9.91654L15.3524 6.23594C15.3179 6.10705 15.446 5.99561 15.5676 6.0489L19.0538 7.57835L18.5761 5.79563C18.516 5.57119 18.5927 5.32904 18.7717 5.19427C17.072 2.09846 13.781 0 10 0C4.47715 0 0 4.47715 0 10C0 10.159 0.00371081 10.3171 0.0110505 10.4743C0.33585 10.1499 0.760957 9.92002 1.25546 9.8401C2.33104 9.66635 3.41159 10.3115 3.80419 11.3619C4.33471 12.7814 3.48081 14.3118 2.02725 14.5466C1.69932 14.5996 1.37092 14.5765 1.06171 14.4889C2.70645 17.7575 6.09134 20 10 20ZM4.50475 9.01338C4.17803 9.10092 4.00165 9.47186 4.1617 9.79782C4.27907 10.0369 4.55816 10.1468 4.81153 10.0789L6.28284 9.68465L4.81538 13.3666C4.76724 13.4874 4.87669 13.6131 5.00109 13.5798L8.59267 12.6174C8.84603 12.5495 9.03276 12.3147 9.01488 12.049C8.99051 11.6867 8.65231 11.4537 8.32559 11.5413L6.53299 12.0216L7.99931 8.34238C8.04792 8.22042 7.93746 8.09359 7.81192 8.12723L4.50475 9.01338ZM11.3602 7.05648C9.61411 7.52434 8.47499 8.93503 8.81592 10.2074C9.15683 11.4797 10.8487 12.1319 12.5948 11.664C14.3408 11.1961 15.48 9.78542 15.139 8.51311C14.7981 7.24076 13.1063 6.58863 11.3602 7.05648Z" fill="#005BFF"/>
<path d="M0.415142 12.3503C0.531135 13.1795 1.37133 13.6812 2.12339 13.3703C2.63605 13.1584 2.94668 12.6017 2.86764 12.0364C2.75161 11.2073 1.91145 10.7056 1.15936 11.0165C0.646689 11.2284 0.336059 11.7851 0.415142 12.3503Z" fill="#005BFF"/>
<path d="M9.70518 11.3535L8.77002 19.9252C9.1731 19.9746 9.58362 20.0001 10.0001 20.0001C14.037 20.0001 17.5154 17.6079 19.0947 14.1637L15.0226 9.78314C14.6591 10.6162 13.7627 11.3511 12.5948 11.6641C11.5055 11.956 10.4374 11.812 9.70518 11.3535Z" fill="#F91155"/>
<path d="M11.6483 8.13184C12.8546 7.80862 13.9298 8.21569 14.0851 8.7956C14.2405 9.37551 13.513 10.2656 12.3067 10.5888C11.1004 10.9121 10.0252 10.505 9.86979 9.92509C9.71441 9.34518 10.442 8.45508 11.6483 8.13184Z" fill="#F91155"/>
<path fill-rule="evenodd" clip-rule="evenodd" d="M19.9672 9.18505C19.8512 7.7475 19.4313 6.39581 18.7716 5.19434C18.5926 5.32911 18.5159 5.57125 18.576 5.79569L19.0537 7.57841L15.5675 6.04896C15.4459 5.99567 15.3178 6.10711 15.3523 6.236L16.3385 9.9166C16.4065 10.1704 16.6374 10.3564 16.8975 10.3427C17.2603 10.3236 17.4923 9.98029 17.4029 9.64666L16.9212 7.84876L19.9672 9.18505ZM0.0109863 10.4744C0.0781609 11.913 0.449302 13.2721 1.06164 14.489C1.37086 14.5765 1.69925 14.5997 2.02719 14.5467C3.48075 14.3119 4.33465 12.7815 3.80413 11.362C3.41153 10.3116 2.33098 9.66641 1.2554 9.84016C0.760893 9.92008 0.335785 10.1499 0.0109863 10.4744ZM4.50469 9.01344C4.17797 9.10098 4.00159 9.47193 4.16164 9.79789C4.27901 10.037 4.5581 10.1469 4.81147 10.079L6.28278 9.68472L4.81532 13.3667C4.76718 13.4875 4.87663 13.6132 5.00103 13.5799L8.59261 12.6175C8.84597 12.5496 9.0327 12.3148 9.01482 12.0491C8.99045 11.6868 8.65225 11.4538 8.32553 11.5414L6.53293 12.0217L7.99925 8.34245C8.04786 8.22048 7.9374 8.09366 7.81186 8.1273L4.50469 9.01344ZM11.3601 7.05654C9.61405 7.5244 8.47493 8.93509 8.81586 10.2075C9.15677 11.4798 10.8486 12.132 12.5947 11.6641C14.3407 11.1962 15.4799 9.78549 15.1389 8.51318C14.798 7.24083 13.1062 6.58869 11.3601 7.05654ZM11.6482 8.1318C12.8545 7.80858 13.9297 8.21565 14.085 8.79556C14.2404 9.37547 13.5129 10.2656 12.3066 10.5888C11.1003 10.9121 10.0251 10.505 9.86973 9.92505C9.71435 9.34514 10.4419 8.45504 11.6482 8.1318ZM2.12333 13.3704C1.37127 13.6813 0.53107 13.1796 0.415077 12.3504C0.335994 11.7852 0.646624 11.2285 1.1593 11.0166C1.91139 10.7057 2.75155 11.2074 2.86758 12.0365C2.94662 12.6018 2.63599 13.1585 2.12333 13.3704Z" fill="white"/>
</svg>
