<svg width="20" height="20" viewBox="0 0 20 20" fill="none" xmlns="http://www.w3.org/2000/svg">
<circle cx="10" cy="10" r="10" fill="url(#paint0_linear_46593_175)"/>
<path d="M9.336 12.1773L7.69118 6.00052L6.47411 6L4.83499 12.1446L3.30561 6.00052H2L3.99043 14L5.49172 13.9986L7.0831 8.02301L8.67313 13.9969L10.1864 13.9987L12.1778 6L10.8721 6.00204L9.336 12.1773ZM16.9542 9.84978C17.4515 9.45328 17.7086 8.91849 17.7086 8.21771C17.7086 7.5907 17.5029 7.06511 17.0744 6.64096C16.6542 6.22603 16.14 6.00474 15.5315 6.00474H12.5828V13.999H15.7628C16.3972 13.999 16.9115 13.7779 17.3485 13.3444C17.7857 12.9111 18 12.367 18 11.7123C18 10.8825 17.6057 10.2186 16.9542 9.84978ZM13.8086 7.24032H15.54C16.0799 7.24032 16.4915 7.70135 16.4915 8.29147C16.4915 8.8816 16.0799 9.34262 15.54 9.34262H13.8086V7.24032ZM15.7714 12.7728H13.8086V10.5321H15.7714C16.3371 10.5321 16.7829 11.0208 16.7829 11.6479C16.7829 12.2749 16.3371 12.7728 15.7714 12.7728Z" fill="white"/>
<defs>
<linearGradient id="paint0_linear_46593_175" x1="0" y1="10.0111" x2="81.5105" y2="10.0111" gradientUnits="userSpaceOnUse">
<stop stop-color="#CB11AB"/>
<stop offset="0.5" stop-color="#990099"/>
<stop offset="1" stop-color="#481173"/>
</linearGradient>
</defs>
</svg>
