<svg width="24" height="24" viewBox="0 0 24 24" fill="none" xmlns="http://www.w3.org/2000/svg">
<path fill-rule="evenodd" clip-rule="evenodd" d="M22.0645 6.72729H1.93548C1.35617 6.72729 1 7.15187 1 7.54016V15.9144C1 16.3027 1.35617 16.7273 1.93548 16.7273H22.0645C22.6438 16.7273 23 16.3027 23 15.9144V7.54016C23 7.15187 22.6438 6.72729 22.0645 6.72729ZM1.93548 5.72729H22.0645C23.1335 5.72729 24 6.53894 24 7.54016V15.9144C24 16.9156 23.1335 17.7273 22.0645 17.7273H1.93548C0.866546 17.7273 0 16.9156 0 15.9144V7.54016C0 6.53894 0.866546 5.72729 1.93548 5.72729Z" fill="white"/>
<path fill-rule="evenodd" clip-rule="evenodd" d="M19.9129 10.4195L18.9444 12.7838C18.8839 12.9265 18.8273 13.0704 18.7758 13.2105C18.7507 13.2804 18.7269 13.3466 18.7037 13.4096H18.6853C18.6622 13.3437 18.6377 13.2752 18.6113 13.203C18.5608 13.0643 18.5067 12.9282 18.4514 12.7985L17.4157 10.4195H16.8618L18.3435 13.8398C18.3825 13.9221 18.388 13.9597 18.388 13.975C18.388 13.9796 18.386 14.0077 18.3429 14.1117C18.2502 14.3165 18.144 14.493 18.0285 14.6364C17.9097 14.7814 17.8009 14.8996 17.704 14.9862C17.5917 15.0874 17.4752 15.1703 17.3571 15.233C17.2364 15.2968 17.1263 15.3486 17.0291 15.3876L16.9731 15.4101L17.1534 15.8039L17.2107 15.7848C17.2576 15.7689 17.3458 15.7328 17.4797 15.6742C17.6149 15.6144 17.7646 15.5196 17.9242 15.3916C18.0613 15.2841 18.1868 15.1567 18.2982 15.0134C18.4076 14.8724 18.517 14.7069 18.6245 14.5231C18.7307 14.3396 18.8369 14.1307 18.9406 13.9022C19.0442 13.6725 19.1556 13.4159 19.2705 13.14L20.4674 10.4195H19.9129ZM15.8625 12.9311C15.8625 12.9808 15.8489 13.049 15.8238 13.1308C15.792 13.216 15.7453 13.3001 15.6845 13.3804C15.624 13.4599 15.548 13.5327 15.4582 13.5965C15.3687 13.6601 15.2619 13.7109 15.1406 13.7488C15.0192 13.7866 14.8792 13.8057 14.7244 13.8057C14.6308 13.8057 14.539 13.7915 14.4512 13.7641C14.3643 13.7364 14.287 13.695 14.2211 13.6404C14.1551 13.5861 14.101 13.5156 14.0595 13.4307C14.0186 13.3457 13.998 13.2408 13.998 13.1189C13.998 12.9193 14.0576 12.7572 14.175 12.6387C14.2964 12.5156 14.4525 12.4209 14.6378 12.3573C14.8271 12.2917 15.0376 12.249 15.2632 12.2293C15.447 12.2137 15.6265 12.2056 15.7968 12.2056C15.819 12.2056 15.8409 12.2056 15.8625 12.2059V12.9311ZM16.3896 13.6581C16.3842 13.5136 16.3816 13.3686 16.3816 13.2241V11.8052C16.3816 11.637 16.3626 11.4654 16.3256 11.2949C16.2879 11.121 16.2155 10.9612 16.1106 10.8202C16.005 10.6781 15.8573 10.5605 15.6726 10.4712C15.4875 10.3822 15.2474 10.3369 14.9584 10.3369C14.7473 10.3369 14.541 10.3617 14.3462 10.4102C14.1499 10.4594 13.9578 10.5417 13.7734 10.655L13.7312 10.681L13.9066 11.0494L13.9703 11.0109C14.1042 10.9297 14.2548 10.8653 14.4196 10.8191C14.5838 10.7737 14.7508 10.7506 14.9175 10.7506C15.1338 10.7506 15.3066 10.7856 15.4299 10.8552C15.5548 10.9254 15.6491 11.0124 15.7102 11.1138C15.7736 11.2187 15.8151 11.3302 15.8335 11.446C15.8528 11.5665 15.8625 11.6743 15.8625 11.767V11.8081C15.0929 11.8049 14.492 11.9199 14.0926 12.1507C13.6742 12.3929 13.4618 12.7375 13.4618 13.175C13.4618 13.3007 13.4869 13.4278 13.5365 13.5529C13.5867 13.68 13.663 13.7933 13.7627 13.8903C13.8635 13.9886 13.9929 14.0686 14.148 14.1284C14.3028 14.1888 14.4843 14.2194 14.6874 14.2194C14.8483 14.2194 14.9993 14.2007 15.1364 14.1648C15.2722 14.1278 15.3951 14.0796 15.5026 14.0192C15.6095 13.9597 15.7044 13.8927 15.7855 13.8199C15.8222 13.7878 15.8534 13.7548 15.8843 13.7222H15.9043L15.9523 14.1365H16.4524L16.4389 14.0698C16.4118 13.9377 16.3954 13.7996 16.3896 13.6581ZM12.3724 11.3111C12.1059 11.5116 11.7287 11.6133 11.2498 11.6133C11.1185 11.6133 10.9939 11.6084 10.8797 11.5986C10.785 11.5905 10.6975 11.5772 10.6187 11.5593V9.3889C10.6872 9.37763 10.7722 9.36694 10.8719 9.35712C10.9984 9.34498 11.1507 9.33892 11.3251 9.33892C11.5414 9.33892 11.7409 9.36203 11.9183 9.40797C12.094 9.45333 12.2472 9.52094 12.3743 9.60848C12.4985 9.69516 12.5967 9.80784 12.6646 9.94364C12.7332 10.0812 12.7676 10.2453 12.7676 10.4311C12.7676 10.8171 12.6344 11.1132 12.3724 11.3111ZM12.8494 9.36174C12.6871 9.22132 12.4779 9.11211 12.2279 9.03699C11.9797 8.96303 11.6817 8.92546 11.3422 8.92546C11.1075 8.92546 10.8884 8.93558 10.6907 8.9558C10.4957 8.97574 10.3145 8.99856 10.152 9.0237L10.0995 9.03179V14.1365H10.6187V11.986C10.7937 12.0129 10.9939 12.0271 11.2144 12.0271C11.5082 12.0271 11.7834 11.9933 12.0328 11.9268C12.2842 11.8601 12.505 11.7566 12.6884 11.6197C12.8725 11.4824 13.0196 11.3105 13.1268 11.1086C13.233 10.9063 13.2871 10.6683 13.2871 10.401C13.2871 10.1797 13.2478 9.98062 13.1718 9.80929C13.0952 9.63766 12.9871 9.48771 12.8494 9.36174ZM7.53186 11.4923C7.52533 10.7665 8.13971 10.4169 8.16817 10.3996C7.82155 9.90839 7.28397 9.8402 7.09243 9.83269C6.63432 9.78848 6.19756 10.0956 5.96598 10.0956C5.73352 10.0956 5.37592 9.83962 4.9952 9.84742C4.49588 9.85436 4.0354 10.1303 3.77802 10.5657C3.26061 11.4449 3.64667 12.7433 4.15192 13.4541C4.39921 13.8025 4.69335 14.1934 5.08089 14.1793C5.4542 14.1651 5.59386 13.9441 6.04456 13.9441C6.49436 13.9435 6.62157 14.1787 7.01445 14.1721C7.41533 14.1637 7.67003 13.8164 7.91554 13.4665C8.19842 13.0637 8.31524 12.6722 8.32147 12.6523C8.31346 12.648 7.54075 12.3605 7.53186 11.4923ZM6.7443 9.36203C6.96702 9.11962 7.11732 8.78274 7.07645 8.44672C6.75492 8.45856 6.36549 8.64001 6.13634 8.88126C5.92907 9.09593 5.74948 9.43888 5.79873 9.76797C6.15662 9.79311 6.52159 9.60444 6.7443 9.36203Z" fill="white"/>
</svg>
