<svg width="20" height="20" viewBox="0 0 20 20" fill="none" xmlns="http://www.w3.org/2000/svg">
<circle cx="10" cy="10" r="10" fill="#FF462D"/>
<path d="M15.9912 13.3535L14.1875 13.5176L15.4219 9.98242L13.2168 13.6055L11.6895 13.7432L11.8955 10.3008L10.6611 13.8359L8.85742 14L10.8672 8.24512L13.291 8.02637L13.1406 11.4355L15.3232 7.8418L18 7.59961L15.9912 13.3535ZM9.13379 11.7539L7.33008 11.918L8.56445 8.38281L6.35938 12.0059L4.83203 12.1436L5.03809 8.70117L3.80371 12.2363L2 12.4004L4.00977 6.64551L6.43359 6.42676L6.2832 9.83594L8.46582 6.24219L11.1426 6L9.13379 11.7539Z" fill="white"/>
</svg>
