<svg width="20" height="20" viewBox="0 0 20 20" fill="none" xmlns="http://www.w3.org/2000/svg">
<circle cx="10" cy="10" r="10" fill="url(#paint0_linear_46593_192)"/>
<path fill-rule="evenodd" clip-rule="evenodd" d="M2.24463 16.3136L2.92774 8.33236C2.97122 7.8243 3.3963 7.43403 3.90623 7.43403H5.53669C5.53646 7.42577 5.53635 7.41747 5.53635 7.40914C5.53635 4.94152 7.53708 2.94141 10.0048 2.94141C12.4724 2.94141 14.4732 4.94152 14.4732 7.40914V7.43403H16.0868C16.595 7.43403 17.0193 7.82171 17.0649 8.32784L17.7825 16.2799C17.3021 16.8746 16.7549 17.413 16.1524 17.8839L15.3689 9.20176H14.4732V10.8962L12.7054 12.0746V9.20176H4.62751L3.88211 17.9109C3.27731 17.4425 2.72768 16.9063 2.24463 16.3136ZM7.30407 7.40914C7.30407 5.91812 8.51305 4.70913 10.0048 4.70913C11.4965 4.70913 12.7054 5.91812 12.7054 7.40914V7.43403H7.30373C7.30396 7.42577 7.30407 7.41747 7.30407 7.40914Z" fill="white"/>
<defs>
<linearGradient id="paint0_linear_46593_192" x1="17" y1="3" x2="2.5" y2="17.5" gradientUnits="userSpaceOnUse">
<stop stop-color="#61349E"/>
<stop offset="0.209653" stop-color="#5E31A0"/>
<stop offset="0.479167" stop-color="#5B87AD"/>
<stop offset="0.754786" stop-color="#61B89B"/>
<stop offset="1" stop-color="#58A695"/>
</linearGradient>
</defs>
</svg>
