<svg width="24" height="24" viewBox="0 0 24 24" fill="none" xmlns="http://www.w3.org/2000/svg">
<path d="M10.8337 4.15746C11.5178 3.78314 12.5082 3.74248 13.2902 4.1726L13.7721 3.29637C12.6792 2.6953 11.3259 2.74822 10.3537 3.2802L10.8337 4.15746Z" fill="#1F1F22"/>
<path d="M4.63734 10.4903C3.94531 11.7805 3.85963 12.9057 3.83594 14.3983L4.83581 14.4142C4.85899 12.9537 4.94518 12.032 5.51859 10.9629L4.63734 10.4903Z" fill="#1F1F22"/>
<path d="M20.2734 14.3983C20.2497 12.9057 20.1641 11.7805 19.472 10.4902L18.5908 10.9629C19.1642 12.032 19.2504 12.9537 19.2736 14.4142L20.2734 14.3983Z" fill="#1F1F22"/>
<path fill-rule="evenodd" clip-rule="evenodd" d="M5.82601 4.74779L5.34818 4.05432L4.9681 4.80582C4.60118 5.53132 4.37078 6.21288 4.4133 6.83869C4.43661 7.1817 4.53979 7.4864 4.71513 7.75537C4.32904 7.96067 3.97825 8.29769 3.64669 8.76576C3.57055 8.87326 3.49727 8.98278 3.42376 9.09266C3.22296 9.39279 3.02041 9.69555 2.75289 9.96676C2.41025 10.3141 2.02224 10.5381 1.51414 10.5237L0.891357 10.5061L1.00901 11.1179C1.07531 11.4627 1.2014 11.8544 1.51254 12.164C1.73226 12.3827 2.01197 12.5292 2.35072 12.6097C2.24675 14.175 1.96065 15.4779 1.34684 16.3638L1.02236 16.8321L1.52885 17.093C2.29239 17.4863 3.13697 17.3903 3.76302 17.1408C4.05756 17.6143 4.41366 17.9815 4.84398 18.274C5.39052 18.6454 6.03326 18.8797 6.75999 19.0765L7.40459 19.251L7.39053 18.5833C7.36722 17.4762 7.1727 16.5892 6.80233 15.8867C6.94764 15.8556 7.08331 15.8141 7.20998 15.761C7.58692 15.6029 7.84929 15.3565 8.04538 15.0521L8.23861 14.752L8.23824 14.8124C8.23435 15.4721 8.23433 16.3098 8.25013 17.0114C8.27316 18.0343 9.20834 19.0064 10.4129 18.9528C10.8854 18.9318 11.0901 18.9501 11.2206 19.0027C11.3145 19.0405 11.4224 19.1178 11.5983 19.4222L12.0309 20.1707L12.464 19.4226C12.5078 19.3469 12.5501 19.2819 12.5875 19.2284C12.6882 19.1006 12.7744 19.0459 12.8599 19.0128C13.0167 18.9522 13.2505 18.9321 13.7138 18.9527C14.9184 19.0063 15.8536 18.0342 15.8766 17.0113C15.8924 16.3097 15.8924 15.4721 15.8885 14.8123C15.8884 14.8012 15.8883 14.7902 15.8883 14.7792L16.064 15.0521C16.2601 15.3565 16.5225 15.6029 16.8994 15.761C17.0261 15.8141 17.1617 15.8556 17.307 15.8867C16.9367 16.5892 16.7422 17.4762 16.7188 18.5833L16.7048 19.251L17.3494 19.0765C18.0761 18.8797 18.7188 18.6454 19.2654 18.274C19.6957 17.9815 20.0518 17.6143 20.3463 17.1408C20.9724 17.3903 21.817 17.4863 22.5805 17.093L23.087 16.8321L22.7625 16.3638C22.1487 15.4779 21.8626 14.175 21.7587 12.6097C22.0974 12.5292 22.3771 12.3827 22.5968 12.164C22.908 11.8544 23.0341 11.4627 23.1004 11.1179L23.218 10.5061L22.5952 10.5237C22.0871 10.5381 21.6991 10.3141 21.3565 9.96676C21.089 9.69554 20.8864 9.39279 20.6856 9.09266C20.6121 8.98278 20.5388 8.87326 20.4627 8.76576C20.1311 8.29769 19.7803 7.96067 19.3942 7.75537C19.5696 7.4864 19.6728 7.1817 19.6961 6.83869C19.7386 6.21288 19.5082 5.53132 19.1413 4.80582L18.7612 4.05432L18.2834 4.74779C18.1334 4.96544 17.8751 5.19916 17.5634 5.40575C17.4408 5.48703 17.3156 5.56038 17.1932 5.62413C17.0253 5.20853 16.7071 4.90938 16.3359 4.71136C15.8118 4.43188 15.1711 4.34099 14.6368 4.3284L13.7056 4.30646L14.2019 5.09467C14.6141 5.74932 14.6441 6.159 14.6271 6.41534C14.6201 6.51972 14.6099 6.57974 14.5977 6.65055C14.589 6.70156 14.5793 6.75816 14.5692 6.84097C14.5518 6.98363 14.5293 7.26104 14.7267 7.50788C14.8165 7.62012 14.9336 7.71069 15.0286 7.77852C15.118 7.8424 15.2226 7.90993 15.3244 7.97563L15.36 7.99863C15.5948 8.15043 15.8487 8.31813 16.0921 8.53353C16.5647 8.95198 16.9962 9.54794 17.0395 10.5223C17.0975 11.8252 16.9671 12.786 16.774 13.4281C16.6773 13.7497 16.5686 13.979 16.4696 14.1289C16.3753 14.2716 16.3118 14.31 16.3039 14.3148C16.3037 14.3149 16.3039 14.3148 16.3039 14.3148L15.8861 14.4772C15.8851 14.3667 15.8842 14.2643 15.8832 14.172H15.8906V8.73452H14.3906V7.17927L14.3091 7.0546L14.3081 7.0531L14.3069 7.05122L14.3036 7.04634L14.294 7.03229C14.2863 7.02108 14.2758 7.00624 14.2626 6.98828C14.2362 6.95242 14.1988 6.90386 14.1506 6.84685C14.0548 6.73339 13.9136 6.58333 13.729 6.43284C13.3619 6.13367 12.7966 5.8126 12.0625 5.8126C11.3277 5.8126 10.7656 6.13423 10.4014 6.4348C10.2185 6.58584 10.0791 6.73644 9.98467 6.85032C9.9372 6.90754 9.90039 6.95631 9.87443 6.99235C9.86143 7.01039 9.8511 7.02532 9.84346 7.03661L9.83401 7.05078L9.83078 7.05572L9.82955 7.05763L9.82857 7.05916L9.75 7.18222V8.73452H8.25V13.6642L8.24869 13.7511C8.24789 13.8072 8.24679 13.8887 8.24557 13.9909C8.24398 14.1238 8.24218 14.2917 8.24058 14.4839L7.8059 14.3152C7.80625 14.3153 7.80605 14.3153 7.8059 14.3152C7.79802 14.3104 7.73404 14.2716 7.63978 14.1289C7.54076 13.979 7.43206 13.7497 7.33535 13.4281C7.14231 12.786 7.01183 11.8252 7.06984 10.5223C7.11322 9.54794 7.54464 8.95198 8.01732 8.53353C8.26064 8.31813 8.51456 8.15043 8.74938 7.99863L8.785 7.97563C8.88675 7.90993 8.99136 7.8424 9.08078 7.77852C9.17573 7.71069 9.29285 7.62012 9.38264 7.50788C9.58011 7.26104 9.55755 6.98363 9.54017 6.84097C9.53008 6.75816 9.52039 6.70156 9.51165 6.65055C9.49952 6.57974 9.48924 6.51972 9.48232 6.41534C9.46532 6.159 9.49532 5.74932 9.90751 5.09467L10.4038 4.30646L9.47262 4.3284C8.93827 4.34099 8.29753 4.43188 7.77352 4.71136C7.40225 4.90938 7.08403 5.20853 6.91617 5.62413C6.79381 5.56038 6.66856 5.48703 6.54594 5.40575C6.23429 5.19916 5.97598 4.96544 5.82601 4.74779ZM9.24359 14.172H14.8831C14.885 14.3525 14.887 14.5733 14.8885 14.8182C14.8924 15.4753 14.8923 16.3016 14.8768 16.9888C14.8663 17.456 14.3975 17.9821 13.7583 17.9537C13.2997 17.9333 12.8725 17.9358 12.4991 18.0802C12.3232 18.1483 12.172 18.242 12.0381 18.359C11.9111 18.2406 11.7662 18.1443 11.5939 18.075C11.2342 17.9302 10.8178 17.9338 10.3684 17.9538C9.72917 17.9822 9.26039 17.4561 9.24988 16.9889C9.23441 16.3017 9.23435 15.4753 9.23823 14.8183C9.23967 14.5734 9.24166 14.3526 9.24359 14.172ZM7.78919 6.31709C7.78676 5.96516 7.9485 5.75138 8.24412 5.59371C8.35771 5.53313 8.48777 5.48382 8.62875 5.44484C8.49097 5.85055 8.46526 6.1912 8.48451 6.4815C8.49405 6.62542 8.52254 6.80341 8.53793 6.89953L8.54319 6.93258C8.53101 6.9419 8.51656 6.95263 8.49949 6.96482C8.43044 7.01415 8.34673 7.06823 8.23973 7.13735L8.20649 7.15883C7.96971 7.31189 7.65945 7.51479 7.35448 7.78477C7.20566 7.91652 7.0581 8.06429 6.91889 8.23069L5.96335 7.59868C5.57177 7.33968 5.4317 7.07553 5.411 6.7709C5.3958 6.54723 5.44279 6.27 5.56812 5.92196C5.70497 6.03729 5.8491 6.14358 5.99343 6.23925C6.36816 6.48765 6.78101 6.68872 7.14386 6.79896L7.79389 6.99643L7.78919 6.31709ZM5.68752 8.51571H6.70262C6.36235 9.01253 6.10766 9.65038 6.07083 10.4778C6.00921 11.8618 6.14436 12.9399 6.3777 13.716C6.4942 14.1035 6.63888 14.428 6.80537 14.6801C6.83351 14.7227 6.8632 14.7646 6.89448 14.8053C6.87186 14.8172 6.84817 14.8283 6.82326 14.8388C6.63989 14.9157 6.35984 14.9683 5.90645 14.9611L4.74401 14.9425L5.53006 15.7991C5.93979 16.2456 6.2377 16.8988 6.34707 17.9038C5.97805 17.7726 5.66995 17.6262 5.40606 17.4469C5.00622 17.1752 4.68508 16.8121 4.41931 16.2598L4.17257 15.7471L3.69583 16.0577C3.39979 16.2506 2.95013 16.389 2.51282 16.351C3.09311 15.1968 3.30762 13.7274 3.37454 12.2017L3.39618 11.7082L2.90297 11.6806C2.49591 11.6578 2.31282 11.5497 2.21797 11.4553C2.21321 11.4505 2.20851 11.4457 2.20387 11.4407C2.7248 11.3003 3.13826 11.0001 3.46483 10.669C3.80604 10.3231 4.08766 9.90131 4.2971 9.58763C4.35864 9.49546 4.41396 9.41262 4.46272 9.34378C4.9358 8.6759 5.31682 8.51571 5.68752 8.51571ZM10.75 7.49401V9.01461L12.0509 10.0893L13.3906 9.01074V7.49683L13.3867 7.49222C13.3217 7.41525 13.2241 7.3114 13.0972 7.20799C12.8412 6.99935 12.4924 6.8126 12.0625 6.8126C11.6333 6.8126 11.2891 6.99879 11.038 7.20603C10.9134 7.3089 10.8178 7.41221 10.7543 7.48875L10.75 7.49401ZM10.0513 9.73452H9.25V13.172H14.8906V9.73452H14.0862L12.0428 11.3797L10.0513 9.73452ZM16.3202 6.31709C16.3226 5.96516 16.1609 5.75138 15.8653 5.59371C15.7517 5.53313 15.6216 5.48382 15.4806 5.44484C15.6184 5.85055 15.6441 6.1912 15.6249 6.4815C15.6153 6.62541 15.5868 6.8034 15.5714 6.89952L15.5662 6.93257C15.5784 6.9419 15.5928 6.95263 15.6099 6.96482C15.6789 7.01413 15.7626 7.06819 15.8695 7.13728L15.9029 7.15883C16.1397 7.31189 16.4499 7.51479 16.7549 7.78477C16.9037 7.91652 17.0513 8.06429 17.1905 8.23069L18.146 7.59868C18.5376 7.33968 18.6777 7.07553 18.6984 6.7709C18.7136 6.54723 18.6666 6.27 18.5413 5.92196C18.4044 6.03729 18.2603 6.14358 18.1159 6.23925C17.7412 6.48765 17.3284 6.68872 16.9655 6.79896L16.3155 6.99643L16.3202 6.31709ZM18.4219 8.51571H17.4068C17.747 9.01253 18.0017 9.65038 18.0385 10.4778C18.1002 11.8618 17.965 12.9399 17.7317 13.716C17.6152 14.1035 17.4705 14.428 17.304 14.6801C17.2759 14.7227 17.2462 14.7646 17.2149 14.8053C17.2375 14.8172 17.2612 14.8283 17.2861 14.8388C17.4695 14.9157 17.7495 14.9683 18.2029 14.9611L19.3654 14.9425L18.5793 15.7991C18.1696 16.2456 17.8717 16.8988 17.7623 17.9038C18.1313 17.7726 18.4394 17.6262 18.7033 17.4469C19.1032 17.1752 19.4243 16.8121 19.6901 16.2598L19.9368 15.7471L20.4135 16.0577C20.7096 16.2506 21.1592 16.389 21.5966 16.351C21.0163 15.1968 20.8018 13.7274 20.7348 12.2017L20.7132 11.7082L21.2064 11.6806C21.6135 11.6578 21.7966 11.5497 21.8914 11.4553C21.8962 11.4505 21.9009 11.4457 21.9055 11.4407C21.3846 11.3003 20.9711 11.0001 20.6445 10.669C20.3033 10.3231 20.0217 9.9013 19.8123 9.58762C19.7507 9.49545 19.6954 9.41262 19.6467 9.34378C19.1736 8.6759 18.7926 8.51571 18.4219 8.51571Z" fill="#1F1F22"/>
<path d="M7.83716 20.4039C10.3487 22.0339 13.4875 22.2399 16.2623 20.3845L15.7064 19.5532C13.2937 21.1666 10.5888 20.9976 8.38156 19.5651L7.83716 20.4039Z" fill="#1F1F22"/>
</svg>
