<svg width="128" height="128" viewBox="0 0 128 128" fill="none" xmlns="http://www.w3.org/2000/svg">
<circle cx="64" cy="64" r="64" fill="#B2B8BF" fill-opacity="0.2"/>
<path d="M64 112C90.5 112 112 90.5 112 64C112 37.5 90.5 16 64 16C37.5 16 16 37.5 16 64C16 90.5 37.5 112 64 112Z" fill="white"/>
<path d="M46.2 63.6C47.4 62.4 48.9944 62.4013 50.3 63.5C51.6056 64.5987 66.4695 77.0843 67.8 78.2C69.1305 79.3158 69.3 81.3 68.2 82.4C67.3 83.6 65.7 83.7 64.5 83.1L62.5 85.6C59.2 89.4 53.1 89.5 49.2 86.3L34.6362 101.966C33.2355 100.874 32.1421 99.919 31.032 98.8765L45.7 83.1C41.8 80 40.8 74 44.1 70.2L46.1 67.6C45.3 66.6 44.9 64.8 46.2 63.6ZM67.9 67.4C68.8 66.5 70.3 66.2 71.3 67.1C72.2 67.9 72.5 69.4 71.5 70.4L67.6 75.4L63.8 72.2L67.9 67.4ZM94.0975 26.6066C95.2975 27.6066 96.4919 28.6103 97.5919 29.7103L81.8 47.2C85.7 50.4 86.7 56.4 83.4 60.1L81.5 62.5C82.3 63.6 82.6 65.2 81.5 66.3C80.4 67.5 78.5 67.8 77.3 66.7L59.7 52C58.3 50.9 58.4 48.9 59.3 47.8C60.1 46.7 61.8 46.5 63 47.1L64.9 44.7C68.2 40.9 74.3 40.8 78.2 44L94.0975 26.6066ZM56.9 58.3C57.8 57.4 59.3 57.1 60.3 58.1C61.2 58.8 61.5 60.3 60.5 61.4L56.4 66.2L52.8 63.1L56.9 58.3Z" fill="#B2B8BF"/>
</svg>
