<svg width="128" height="128" viewBox="0 0 128 128" fill="none" xmlns="http://www.w3.org/2000/svg">
<circle cx="64" cy="64" r="64" fill="#B2B8BF" fill-opacity="0.2"/>
<g filter="url(#filter0_d)">
<path d="M95.9743 95.5518C96.2414 97.9234 94.3874 100 92.0026 100H35.9974C33.6126 100 31.7585 97.9234 32.0257 95.5518L38.3359 39.5518C38.5639 37.5289 40.2736 36 42.3077 36H85.6923C87.7264 36 89.4361 37.5289 89.6641 39.5518L95.9743 95.5518Z" fill="white"/>
</g>
<path fill-rule="evenodd" clip-rule="evenodd" d="M51 36C51 27.2 56.8 22 64 22C71.2 22 77 27.2 77 36H73C73 29.7 69.2 26 64 26C58.8 26 55 29.7 55 36H51Z" fill="#B2B8BF"/>
<path fill-rule="evenodd" clip-rule="evenodd" d="M64 52C55.2 52 48 59.2 48 68C48 76.8 55.2 84 64 84C72.8 84 80 76.8 80 68C80 59.2 72.8 52 64 52ZM52 68C52 61.4 57.4 56 64 56C66.8 56 69.3 57 71.4 58.5L54.5 75.4C53 73.3 52 70.8 52 68ZM64 80C61.6 80 59.4 79.3 57.5 78.1L74.1 61.5C75.3 63.4 76 65.6 76 68C76 74.6 70.6 80 64 80Z" fill="#B2B8BF"/>
<defs>
<filter id="filter0_d" x="22" y="26" width="83.9999" height="84" filterUnits="userSpaceOnUse" color-interpolation-filters="sRGB">
<feFlood flood-opacity="0" result="BackgroundImageFix"/>
<feColorMatrix in="SourceAlpha" type="matrix" values="0 0 0 0 0 0 0 0 0 0 0 0 0 0 0 0 0 0 127 0"/>
<feOffset/>
<feGaussianBlur stdDeviation="5"/>
<feColorMatrix type="matrix" values="0 0 0 0 0.121569 0 0 0 0 0.121569 0 0 0 0 0.133333 0 0 0 0.1 0"/>
<feBlend mode="normal" in2="BackgroundImageFix" result="effect1_dropShadow"/>
<feBlend mode="normal" in="SourceGraphic" in2="effect1_dropShadow" result="shape"/>
</filter>
</defs>
</svg>
