<svg width="24" height="24" viewBox="0 0 24 24" fill="none" xmlns="http://www.w3.org/2000/svg">
<path fill-rule="evenodd" clip-rule="evenodd" d="M11.75 2.05C11.56 2.01 11.37 2 11.17 2H7C6.78 2 6.56 2.02 6.36 2.06C6.18 2.1 6 2.16 5.83 2.23C5.65 2.3 5.49 2.39 5.34 2.49C5.17 2.6 5.02 2.73 4.87 2.87C4.73 3.02 4.6 3.17 4.49 3.34C4.39 3.49 4.3 3.65 4.23 3.83C4.16 4 4.1 4.18 4.06 4.36C4.02 4.56 4 4.78 4 5V19C4 19.21 4.02 19.43 4.06 19.63C4.1 19.81 4.16 19.99 4.23 20.16C4.3 20.34 4.39 20.5 4.49 20.65C4.6 20.82 4.73 20.97 4.87 21.12C5.02 21.26 5.17 21.39 5.34 21.5C5.49 21.6 5.65 21.69 5.83 21.76C6 21.83 6.18 21.89 6.36 21.93C6.56 21.97 6.78 22 7 22H17C17.21 22 17.43 21.97 17.63 21.93C17.81 21.89 17.99 21.83 18.16 21.76C18.34 21.69 18.5 21.6 18.65 21.5C18.82 21.39 18.97 21.26 19.12 21.12C19.26 20.97 19.39 20.82 19.5 20.65C19.6 20.5 19.69 20.34 19.76 20.16C19.83 19.99 19.89 19.81 19.93 19.63C19.97 19.43 20 19.21 20 19V10.82C20 10.62 19.98 10.43 19.94 10.24C19.9 10.05 19.84 9.86 19.77 9.68C19.69 9.49 19.6 9.32 19.49 9.16C19.38 8.99 19.26 8.84 19.12 8.7L13.29 2.87C13.15 2.73 13 2.61 12.83 2.5C12.67 2.39 12.5 2.3 12.31 2.22C12.13 2.15 11.94 2.09 11.75 2.05ZM17.97 19.23C17.99 19.16 18 19.08 18 19V11H14C13.78 11 13.56 10.97 13.36 10.93C13.18 10.89 13 10.83 12.83 10.76C12.65 10.69 12.49 10.6 12.34 10.5C12.17 10.39 12.02 10.26 11.87 10.12C11.73 9.97 11.6 9.82 11.49 9.65C11.39 9.5 11.3 9.34 11.23 9.16C11.16 8.99 11.1 8.81 11.06 8.63C11.02 8.43 11 8.21 11 8V4H7C6.91 4 6.83 4 6.75 4.02C6.7 4.04 6.65 4.05 6.61 4.07C6.55 4.1 6.5 4.12 6.46 4.15C6.4 4.19 6.34 4.24 6.29 4.29C6.24 4.34 6.19 4.4 6.15 4.46C6.12 4.5 6.1 4.55 6.07 4.61C6.05 4.65 6.04 4.7 6.02 4.75C6 4.83 6 4.91 6 5V19C6 19.08 6 19.16 6.02 19.23C6.04 19.29 6.05 19.34 6.07 19.38C6.1 19.44 6.12 19.49 6.15 19.53C6.19 19.59 6.24 19.65 6.29 19.7C6.34 19.75 6.4 19.8 6.46 19.84C6.5 19.87 6.55 19.89 6.61 19.92C6.65 19.94 6.7 19.95 6.75 19.97C6.83 19.98 6.91 20 7 20H17C17.08 20 17.16 19.99 17.24 19.97C17.28 19.95 17.34 19.94 17.38 19.92C17.44 19.89 17.49 19.87 17.53 19.84C17.59 19.8 17.65 19.75 17.7 19.7C17.75 19.65 17.8 19.59 17.84 19.53C17.87 19.49 17.89 19.44 17.92 19.38C17.94 19.34 17.95 19.28 17.97 19.23ZM13 8V5.41L16.58 9H14C13.91 9 13.83 8.99 13.75 8.97C13.7 8.95 13.65 8.94 13.61 8.92C13.55 8.89 13.5 8.87 13.46 8.84C13.4 8.8 13.34 8.75 13.29 8.7C13.24 8.65 13.19 8.59 13.15 8.53C13.12 8.49 13.1 8.44 13.07 8.38C13.05 8.34 13.04 8.29 13.02 8.24C13 8.16 13 8.08 13 8ZM9 15C8.44 15 8 15.44 8 16C8 16.55 8.44 17 9 17C9.55 17 10 16.55 10 16C10 15.44 9.55 15 9 15ZM11 16C11 15.44 11.44 15 12 15C12.55 15 13 15.44 13 16C13 16.55 12.55 17 12 17C11.44 17 11 16.55 11 16ZM15 15C14.44 15 14 15.44 14 16C14 16.55 14.44 17 15 17C15.55 17 16 16.55 16 16C16 15.44 15.55 15 15 15Z" fill="white"/>
</svg>
