<svg width="16" height="16" viewBox="0 0 16 16" fill="none" xmlns="http://www.w3.org/2000/svg">
<g clip-path="url(#clip0_49338_4671)">
<path fill-rule="evenodd" clip-rule="evenodd" d="M5 2C5 0.895431 5.89543 0 7 0H9C10.1046 0 11 0.89543 11 2V5H14C15.1046 5 16 5.89543 16 7V9C16 10.1046 15.1046 11 14 11H11V14C11 15.1046 10.1046 16 9 16H7C5.89543 16 5 15.1046 5 14V11H2C0.895431 11 0 10.1046 0 9V7C0 5.89543 0.89543 5 2 5H5V2ZM9 2H7V6C7 6.55228 6.55228 7 6 7H2V9H6C6.55228 9 7 9.44771 7 10V14H9V10C9 9.44771 9.44771 9 10 9H14V7H10C9.44771 7 9 6.55228 9 6V2Z" fill="#B2B8BF"/>
</g>
<defs>
<clipPath id="clip0_49338_4671">
<rect width="16" height="16" fill="white"/>
</clipPath>
</defs>
</svg>
