<svg width="16" height="16" viewBox="0 0 16 16" fill="none" xmlns="http://www.w3.org/2000/svg">
<path d="M0.370871 4.87254C0.800039 4.52515 1.42945 4.59158 1.7767 5.02093C3.24546 6.83693 5.48691 7.99991 7.997 7.99991C10.5067 7.99991 12.748 6.83673 14.2168 5.02095C14.5641 4.59164 15.1935 4.52526 15.6227 4.87269C16.0518 5.22013 16.1182 5.8498 15.7709 6.27912C15.4326 6.69724 15.0612 7.08792 14.6605 7.44703L15.3256 8.44516C15.6319 8.90469 15.5077 9.52556 15.0484 9.83191C14.5891 10.1383 13.9684 10.0141 13.6622 9.55456L13.0448 8.62806C12.4494 8.97805 11.8146 9.26837 11.1486 9.49042L11.4652 10.7575C11.5991 11.2933 11.2734 11.8362 10.7379 11.9701C10.2023 12.1041 9.65959 11.7783 9.5257 11.2425L9.19724 9.92818C8.80376 9.97553 8.40322 9.99991 7.997 9.99991C7.59058 9.99991 7.18985 9.97551 6.79618 9.92813L6.46771 11.2425C6.33382 11.7783 5.79111 12.1041 5.25554 11.9701C4.71996 11.8362 4.39433 11.2933 4.52823 10.7575L4.84487 9.49038C4.17882 9.26834 3.54398 8.97804 2.94861 8.62806L2.3312 9.55456C2.02497 10.0141 1.40436 10.1383 0.945017 9.83191C0.485677 9.52556 0.361555 8.90469 0.667781 8.44516L1.33294 7.44701C0.932242 7.08788 0.560778 6.69714 0.222544 6.27895C-0.124705 5.8496 -0.0582971 5.21993 0.370871 4.87254Z" fill="#D0D7DD"/>
</svg>
