<svg width="20" height="20" viewBox="0 0 20 20" fill="none" xmlns="http://www.w3.org/2000/svg">
<path fill-rule="evenodd" clip-rule="evenodd" d="M12.4843 11.3793L19.6076 4.25595C19.9981 3.86542 19.9981 3.23226 19.6076 2.84173L17.0589 0.293015C16.6683 -0.0975091 16.0352 -0.0975089 15.6447 0.293015L8.52135 7.41633C8.36676 7.57092 8.26709 7.7719 8.23759 7.98853L7.83588 10.939C7.79373 11.2485 7.8987 11.56 8.11963 11.781C8.34056 12.0019 8.65206 12.1069 8.96165 12.0647L11.9121 11.663C12.1287 11.6335 12.3297 11.5338 12.4843 11.3793ZM16.3518 2.41434L17.4863 3.54884L11.3084 9.72676L9.99503 9.90557L10.1738 8.59225L16.3518 2.41434Z" fill="#7D838A"/>
<path d="M2 6.00001C2 4.34316 3.34315 3.00001 5 3.00001H10C10.5523 3.00001 11 2.5523 11 2.00001C11 1.44773 10.5523 1.00001 10 1.00001H5C2.23858 1.00001 0 3.23859 0 6.00001V11C0 13.0512 1.23448 14.8122 3 15.5836V18.9C3 19.2822 3.21783 19.631 3.56127 19.7986C3.90471 19.9663 4.31368 19.9236 4.61503 19.6885L9.34388 16H15C17.7614 16 20 13.7614 20 11V8.00001C20 7.44773 19.5523 7.00001 19 7.00001C18.4477 7.00001 18 7.44773 18 8.00001V11C18 12.6569 16.6569 14 15 14H9C8.77715 14 8.56069 14.0744 8.38497 14.2115L5 16.8518V14.874C5 14.4177 4.69114 14.0193 4.24926 13.9056C2.95512 13.5725 2 12.3965 2 11V6.00001Z" fill="#7D838A"/>
</svg>
