<svg width="20" height="20" viewBox="0 0 20 20" fill="none" xmlns="http://www.w3.org/2000/svg">
<path d="M6 0C5.44772 0 5 0.447715 5 1C5 1.55228 5.44772 2 6 2H14C14.5523 2 15 1.55228 15 1C15 0.447715 14.5523 0 14 0H6Z" fill="#B2B8BF"/>
<path d="M7 14C7.55228 14 8 13.5523 8 13C8 12.4477 7.55228 12 7 12C6.44772 12 6 12.4477 6 13C6 13.5523 6.44772 14 7 14Z" fill="#B2B8BF"/>
<path d="M14 13C14 13.5523 13.5523 14 13 14C12.4477 14 12 13.5523 12 13C12 12.4477 12.4477 12 13 12C13.5523 12 14 12.4477 14 13Z" fill="#B2B8BF"/>
<path fill-rule="evenodd" clip-rule="evenodd" d="M6 3C3.79086 3 2 4.79086 2 7V14C2 15.5123 2.83921 16.8285 4.07732 17.5085L3.29289 18.2929C2.90237 18.6834 2.90237 19.3166 3.29289 19.7071C3.68342 20.0976 4.31658 20.0976 4.70711 19.7071L6.41421 18H13.5858L15.2929 19.7071C15.6834 20.0976 16.3166 20.0976 16.7071 19.7071C17.0976 19.3166 17.0976 18.6834 16.7071 18.2929L15.9227 17.5085C17.1608 16.8285 18 15.5123 18 14V7C18 4.79086 16.2091 3 14 3H6ZM13.999 16H5.9992C4.895 15.9996 4 15.1043 4 14V11H16V14C16 15.1046 15.1036 16 13.999 16ZM4 7C4 5.89543 4.89543 5 6 5H14C15.1046 5 16 5.89543 16 7V9H4V7Z" fill="#B2B8BF"/>
</svg>
