<svg width="20" height="20" viewBox="0 0 20 20" fill="none" xmlns="http://www.w3.org/2000/svg">
<path fill-rule="evenodd" clip-rule="evenodd" d="M2 14C2 16.2091 3.79086 18 6 18H14C16.2091 18 18 16.2091 18 14V6C18 3.79086 16.2091 2 14 2H6C3.79086 2 2 3.79086 2 6V14ZM16 9.19974V14C16 15.1046 15.1046 16 14 16H11L11 9.19995L16 9.19974ZM16 7.19974V6C16 4.89543 15.1046 4 14 4H11V7.19995L16 7.19974ZM9 12.3997L9 16H6C4.89543 16 4 15.1046 4 14V12.3999L9 12.3997ZM4 10.3999L9 10.3997L9 4L6 4C4.89543 4 4 4.89543 4 6V10.3999Z" fill="#D0D7DD"/>
</svg>
