<svg width="16" height="16" viewBox="0 0 16 16" fill="none" xmlns="http://www.w3.org/2000/svg">
<path fill-rule="evenodd" clip-rule="evenodd" d="M4.99969 8C4.99969 6.33772 6.3374 5 7.99969 5C9.64871 5 10.9997 6.33446 10.9997 8C10.9997 9.65228 9.65197 11 7.99969 11C6.33415 11 4.99969 9.64903 4.99969 8ZM7.99969 7C7.44197 7 6.99969 7.44228 6.99969 8C6.99969 8.55097 7.44523 9 7.99969 9C8.5474 9 8.99969 8.54772 8.99969 8C8.99969 7.44554 8.55066 7 7.99969 7Z" fill="#565B62"/>
<path fill-rule="evenodd" clip-rule="evenodd" d="M0.273303 6.73753C1.57645 3.91606 4.5726 2 7.99969 2C11.4176 2 14.4132 3.91674 15.7161 6.73755C16.0909 7.53533 16.0909 8.45465 15.7161 9.25244C14.4142 12.0711 11.42 14 7.99969 14C4.57013 14 1.57545 12.0718 0.273296 9.25246C-0.101518 8.45466 -0.101515 7.53532 0.273303 6.73753ZM7.99969 4C5.30826 4 3.04551 5.50228 2.08776 7.57882L2.08415 7.58663C1.96158 7.84649 1.96154 8.14352 2.08412 8.40338L2.08779 8.41116C3.04653 10.4898 5.31072 12 7.99969 12C10.6779 12 12.9426 10.4905 13.9016 8.41118L13.9052 8.40337C14.0278 8.14351 14.0278 7.84648 13.9053 7.58662L13.9016 7.57884C12.9435 5.50163 10.6804 4 7.99969 4Z" fill="#565B62"/>
</svg>
