<svg width="20" height="20" viewBox="0 0 20 20" fill="none" xmlns="http://www.w3.org/2000/svg">
<path d="M10 0C9.75338 0 9.52762 0.0892723 9.35326 0.237264L6.35984 2.73178C5.93556 3.08534 5.87824 3.71591 6.2318 4.14018C6.58537 4.56446 7.21593 4.62179 7.64021 4.26822L9 3.13506V11.5C9 12.0523 9.44771 12.5 10 12.5C10.5523 12.5 11 12.0523 11 11.5V3.13502L12.3598 4.26822C12.7841 4.62179 13.4147 4.56446 13.7682 4.14018C14.1218 3.71591 14.0645 3.08534 13.6402 2.73178L10.6431 0.234193C10.4718 0.0901661 10.2514 0.00257641 10.0107 5.65866e-05L10 0Z" fill="#D0D7DD"/>
<path d="M4.33325 7.11352C4.85396 6.92948 5.12689 6.35815 4.94284 5.83744C4.75879 5.31672 4.18747 5.0438 3.66675 5.22784C2.11451 5.77648 1 7.25679 1 8.99998V16C1 18.2091 2.79086 20 5 20H15C17.2091 20 19 18.2091 19 16V8.99998C19 7.25679 17.8855 5.77648 16.3332 5.22784C15.8125 5.0438 15.2412 5.31672 15.0572 5.83744C14.8731 6.35815 15.146 6.92948 15.6668 7.11352C16.4449 7.38856 17 8.13072 17 8.99998V16C17 17.1046 16.1046 18 15 18H5C3.89543 18 3 17.1046 3 16V8.99998C3 8.13072 3.5551 7.38856 4.33325 7.11352Z" fill="#D0D7DD"/>
</svg>
