<svg width="32" height="32" viewBox="0 0 32 32" fill="none" xmlns="http://www.w3.org/2000/svg">
<path fill-rule="evenodd" clip-rule="evenodd" d="M16 32C24.8366 32 32 24.8366 32 16C32 7.16344 24.8366 0 16 0C7.16344 0 0 7.16344 0 16C0 24.8366 7.16344 32 16 32ZM18 10.7653L22.3937 8.12908C22.75 7.91527 23.2061 7.97143 23.5 8.26528C23.7939 8.55913 23.85 9.01527 23.6362 9.37162L21 13.7653L22.8838 21.3005C22.9559 21.5888 22.8714 21.8939 22.6612 22.1041C22.3072 22.4581 21.7249 22.4291 21.4079 22.0416L17.5 17.2653L14 19.7653V22.7653L13 23.7653L11.5 21.2653L10.5 20.2653L8 18.7653L9 17.7653H12L14.5 14.2653L9.72371 10.3574C9.33623 10.0404 9.30719 9.45809 9.6612 9.10408C9.87139 8.89389 10.1764 8.80939 10.4648 8.88148L18 10.7653Z" fill="#B2B8BF"/>
</svg>
