<svg width="16" height="16" viewBox="0 0 16 16" fill="none" xmlns="http://www.w3.org/2000/svg">
<path d="M10.6319 2C10.0859 2 9.77028 2.24194 8.67481 3.33564L8.67201 3.33844L3.73943 8.22422C3.26386 8.70023 3.00003 9.33331 3.00003 10.006C3.00003 10.485 3.00274 10.8893 3.13208 11.3324C3.25588 11.7564 3.51428 12.2688 4.11146 12.865C4.7132 13.4658 5.221 13.7256 5.63692 13.8501C6.06995 13.9798 6.46504 13.9846 6.94045 13.9846C7.59136 13.9846 8.21464 13.7118 8.70844 13.2183L8.71735 13.2094L13.2728 8.77014C13.6683 8.38469 14.3014 8.39285 14.6869 8.78839C15.0724 9.18392 15.0642 9.81703 14.6687 10.2025L10.1175 14.6377C9.28624 15.4662 8.16949 15.9846 6.94045 15.9846L6.91155 15.9846C6.4474 15.9847 5.79386 15.9849 5.06326 15.7661C4.30025 15.5377 3.51086 15.0915 2.69838 14.2804C1.88135 13.4646 1.43731 12.6639 1.21221 11.8928C0.99947 11.164 0.99979 10.5094 1.00001 10.0496L1.00003 10.006C1.00003 8.79819 1.47798 7.65673 2.32706 6.80816L2.33022 6.80501L7.26314 1.91889L7.3868 1.79514C8.28758 0.892708 9.17865 0 10.6319 0C11.5357 0 12.6907 0.362998 13.5886 1.25954C14.485 2.1544 14.8562 3.31193 14.8562 4.2191C14.8562 5.67688 13.8597 6.66867 12.9332 7.59072L12.358 8.15827C12.0113 8.50038 11.5421 8.96335 11.0525 9.44683C10.0717 10.4152 9.01258 11.4619 8.68604 11.7879C7.57838 12.8938 6.00634 12.6412 5.14384 11.7801C4.25823 10.8959 4.07498 9.34708 5.16042 8.2634C5.48984 7.9345 5.92558 7.50271 6.35404 7.07818L6.37444 7.05797L6.37463 7.05778C6.79699 6.63929 7.2104 6.22967 7.5104 5.93015C7.90124 5.53994 8.5344 5.54045 8.92461 5.93129C9.31482 6.32213 9.31431 6.9553 8.92347 7.34551C8.62101 7.64748 8.20586 8.05882 7.78565 8.47519L7.78466 8.47617L7.76173 8.49888C7.33237 8.92432 6.89965 9.35312 6.57349 9.67875C6.4406 9.81143 6.40916 9.93689 6.41213 10.0379C6.41551 10.1533 6.46612 10.2741 6.55692 10.3648C6.65114 10.4588 6.78456 10.5178 6.91385 10.5237C7.02608 10.5288 7.14914 10.4962 7.27297 10.3725C7.60452 10.0415 8.66896 8.98962 9.64727 8.02366C10.1371 7.53998 10.6064 7.07684 10.9532 6.73464L11.5223 6.17318C12.6365 5.06076 12.8562 4.76897 12.8562 4.2191C12.8562 3.80153 12.6678 3.16632 12.1756 2.67489C11.685 2.18514 11.0535 2 10.6319 2Z" fill="#B2B8BF"/>
</svg>
