<svg width="16" height="16" viewBox="0 0 16 16" fill="none" xmlns="http://www.w3.org/2000/svg">
<path fill-rule="evenodd" clip-rule="evenodd" d="M1.70711 0.292893C1.31658 -0.0976311 0.683417 -0.0976311 0.292893 0.292893C-0.0976311 0.683417 -0.0976311 1.31658 0.292893 1.70711L2.50049 3.91471C1.55304 4.68121 0.78599 5.64604 0.276574 6.74758C-0.0921912 7.54498 -0.0921913 8.45502 0.276574 9.25242C1.58109 12.0732 4.57118 14 8 14C9.34712 14 10.6245 13.7031 11.7584 13.1726L14.2929 15.7071C14.6834 16.0976 15.3166 16.0976 15.7071 15.7071C16.0976 15.3166 16.0976 14.6834 15.7071 14.2929L1.70711 0.292893ZM10.2231 11.6373L9.32362 10.7378C8.94303 10.9061 8.522 10.9998 8.08017 10.9998C6.37715 10.9998 5 9.61699 5 7.91544C5 7.47442 5.09287 7.05421 5.25991 6.67412L3.92506 5.33927C3.12672 5.94219 2.49545 6.71436 2.09186 7.58707C1.96938 7.8519 1.96938 8.1481 2.09186 8.41293C3.05404 10.4935 5.31408 12 8 12C8.78367 12 9.53218 11.8715 10.2231 11.6373Z" fill="#7D838A"/>
<path d="M8 4C7.74022 4 7.48443 4.01412 7.23342 4.0415C6.68439 4.10137 6.19077 3.70484 6.13089 3.15581C6.07102 2.60678 6.46755 2.11316 7.01658 2.05329C7.33952 2.01807 7.6677 2 8 2C11.4288 2 14.4189 3.92676 15.7234 6.74758C16.0922 7.54498 16.0922 8.45503 15.7234 9.25243C15.5696 9.58504 15.3922 9.90525 15.1935 10.2113C14.8928 10.6745 14.2735 10.8061 13.8103 10.5054C13.347 10.2046 13.2154 9.58528 13.5161 9.12208C13.6638 8.89462 13.7949 8.65775 13.9081 8.41293C14.0306 8.1481 14.0306 7.85191 13.9081 7.58707C12.946 5.50649 10.6859 4 8 4Z" fill="#7D838A"/>
</svg>
