<svg width="24" height="24" viewBox="0 0 24 24" fill="none" xmlns="http://www.w3.org/2000/svg">
<path d="M20.4864 2.80779C20.8769 3.19831 20.8769 3.83148 20.4864 4.222L19.9891 4.71928C20.0464 4.8247 20.1205 4.96467 20.2062 5.13527C20.4055 5.53196 20.6695 6.09734 20.9332 6.78159C21.4563 8.13857 22.0002 10.0178 22.0002 12C22.0002 13.9822 21.4563 15.8614 20.9332 17.2184C20.6695 17.9027 20.4055 18.468 20.2062 18.8647C20.1064 19.0634 20.0224 19.2204 19.9623 19.3298C19.9322 19.3846 19.908 19.4274 19.8907 19.4576L19.8701 19.4934L19.8639 19.504L19.8611 19.5087C19.8611 19.5087 19.8606 19.5096 19.0002 19L19.8606 19.5096C19.5791 19.9848 18.9657 20.1419 18.4905 19.8604C18.0157 19.5791 17.8585 18.9664 18.1392 18.4913L18.1398 18.4904L18.1417 18.4871L18.1545 18.4648C18.1666 18.4438 18.1853 18.4105 18.2099 18.3658C18.2591 18.2764 18.3314 18.1414 18.4191 17.9668C18.5948 17.6172 18.8308 17.1119 19.0671 16.4991C19.544 15.2619 20.0002 13.6411 20.0002 12C20.0002 10.3589 19.544 8.73814 19.0671 7.50095C18.867 6.98195 18.6671 6.5401 18.5038 6.20457L16.2762 8.43219C16.2837 8.44904 16.2907 8.46619 16.2973 8.48364C16.6033 9.29139 17.0002 10.5994 17.0002 11.9999C17.0002 13.1844 16.7166 14.2989 16.4478 15.096C16.3117 15.4993 16.1754 15.8331 16.0719 16.0686C16.02 16.1865 15.9761 16.2804 15.9442 16.3467C15.9283 16.3799 15.9153 16.4062 15.9057 16.4252L15.8941 16.4483L15.8904 16.4556L15.8885 16.4592L15.0002 15.9999C15.8881 16.4601 15.8885 16.4592 15.8885 16.4592C15.6344 16.9496 15.0304 17.1419 14.5401 16.8878C14.0502 16.6339 13.8586 16.0314 14.1116 15.5413L14.112 15.5404L14.1171 15.5303C14.1223 15.5201 14.1308 15.5029 14.1421 15.4793C14.1649 15.432 14.1991 15.3589 14.241 15.2636C14.325 15.0726 14.4387 14.7946 14.5527 14.4568C14.7838 13.7715 15.0002 12.886 15.0002 11.9999C15.0002 11.3013 14.8658 10.6055 14.6976 10.0108L11.7601 12.9483C11.8722 13.1099 11.9378 13.306 11.9378 13.5175V18.8169C11.9378 19.9215 11.0424 20.8169 9.93784 20.8169C9.39942 20.8169 8.88374 20.5998 8.50743 20.2148L6.52365 18.1848L4.22399 20.4844C4.22399 20.4844 4.22328 20.4851 3.51617 19.778L2.80924 19.0707L19.0722 2.80779C19.4627 2.41726 20.0959 2.41726 20.4864 2.80779Z" fill="white"/>
<path d="M2.80924 19.0707C2.41872 19.4613 2.41854 20.0946 2.80906 20.4851C3.19959 20.8757 3.83275 20.8757 4.22328 20.4851L3.51617 19.778C2.80906 19.0709 2.80924 19.0707 2.80924 19.0707Z" fill="white"/>
<path d="M12 5.98214C12 4.19536 9.83545 3.30529 8.57853 4.57522L6.10408 7.07527C6.00624 7.17413 5.88885 7.25148 5.75941 7.3024L3.90179 8.03315C2.75439 8.48451 2 9.59193 2 10.8249V14.9999C2 15.4043 2.24364 15.769 2.61732 15.9238C2.99099 16.0785 3.42111 15.993 3.70711 15.707L11.7071 7.70699C11.8946 7.51946 12 7.2651 12 6.99989V5.98214Z" fill="white"/>
</svg>
