<svg width="32" height="32" viewBox="0 0 32 32" fill="none" xmlns="http://www.w3.org/2000/svg">
<path fill-rule="evenodd" clip-rule="evenodd" d="M18 2.00003H4.7C3.77057 2.00003 3 2.76386 3 3.7273V28.2728C3 29.2362 3.77057 30 4.7 30H27.3C28.2294 30 29 29.2362 29 28.2728V13H23C20.2386 13 18 10.7615 18 8.00003V2.00003ZM30.7071 11.2929C30.725 11.3108 30.7421 11.3292 30.7584 11.3482C30.9062 11.5201 30.9889 11.7343 30.999 11.9543L30.7071 11.2929ZM19.7071 0.292922L30.7071 11.2929L31 12.0079V28.2728C31 30.3218 29.3529 32 27.3 32H4.7C2.64709 32 1 30.3218 1 28.2728V3.7273C1 1.67829 2.64709 3.05176e-05 4.7 3.05176e-05H18.992C19.0103 -0.000112912 19.0287 0.000249503 19.047 0.00111358C19.2619 0.011265 19.4713 0.0906567 19.641 0.232502C19.6638 0.251524 19.6859 0.27167 19.7071 0.292922ZM20 8.00003V3.41424L27.5858 11H23C21.3431 11 20 9.65688 20 8.00003ZM15 20.5C15 18.0613 16.8946 16 19.3332 16C19.8714 16 20.3883 16.1024 20.8653 16.2896C21.3794 16.4913 21.6326 17.0717 21.4309 17.5858C21.2291 18.0999 20.6488 18.3531 20.1347 18.1513C19.8854 18.0535 19.616 18 19.3332 18C18.0901 18 17 19.0727 17 20.5C17 21.9273 18.0901 23 19.3332 23C19.616 23 19.8854 22.9465 20.1347 22.8487C20.6488 22.647 21.2291 22.9002 21.4309 23.4143C21.6326 23.9284 21.3794 24.5087 20.8653 24.7105C20.3883 24.8977 19.8714 25 19.3332 25C16.8946 25 15 22.9387 15 20.5ZM13 17C13 16.5956 12.7564 16.2309 12.3827 16.0761C12.009 15.9214 11.5789 16.0069 11.2929 16.2929L8.79289 18.7929C8.40237 19.1834 8.40237 19.8166 8.79289 20.2071C9.18342 20.5977 9.81658 20.5977 10.2071 20.2071L11 19.4142V24C11 24.5523 11.4477 25 12 25C12.5523 25 13 24.5523 13 24V17Z" fill="#B2B8BF"/>
</svg>
