<svg width="32" height="32" viewBox="0 0 32 32" fill="none" xmlns="http://www.w3.org/2000/svg">
<path fill-rule="evenodd" clip-rule="evenodd" d="M16 32C24.8366 32 32 24.8366 32 16C32 7.16344 24.8366 0 16 0C7.16344 0 0 7.16344 0 16C0 24.8366 7.16344 32 16 32ZM11 8C11 7.44772 11.4477 7 12 7H20C20.5523 7 21 7.44772 21 8C21 8.55228 20.5523 9 20 9H12C11.4477 9 11 8.55228 11 8ZM9 14C9 12.3431 10.3431 11 12 11H20C21.6569 11 23 12.3431 23 14V15H9V14ZM9 20V17H23V20C23 20.9778 22.5322 21.8463 21.8082 22.394L22.7071 23.2929C23.0976 23.6834 23.0976 24.3166 22.7071 24.7071C22.3166 25.0976 21.6834 25.0976 21.2929 24.7071L19.5858 23H12.4142L10.7071 24.7071C10.3166 25.0976 9.68342 25.0976 9.29289 24.7071C8.90237 24.3166 8.90237 23.6834 9.29289 23.2929L10.1918 22.394C9.46778 21.8463 9 20.9778 9 20ZM13.5 19.75C13.5 20.4404 12.9404 21 12.25 21C11.5596 21 11 20.4404 11 19.75C11 19.0596 11.5596 18.5 12.25 18.5C12.9404 18.5 13.5 19.0596 13.5 19.75ZM19.75 21C20.4404 21 21 20.4404 21 19.75C21 19.0596 20.4404 18.5 19.75 18.5C19.0596 18.5 18.5 19.0596 18.5 19.75C18.5 20.4404 19.0596 21 19.75 21Z" fill="#B2B8BF"/>
</svg>
