<svg width="32" height="31" viewBox="0 0 32 31" fill="none" xmlns="http://www.w3.org/2000/svg">
<path d="M31.5 15.5C31.5 23.7694 24.5755 30.5 16 30.5C7.4245 30.5 0.5 23.7694 0.5 15.5C0.5 7.23057 7.4245 0.5 16 0.5C24.5755 0.5 31.5 7.23057 31.5 15.5Z" fill="white" stroke="#D0D7DD"/>
<path fill-rule="evenodd" clip-rule="evenodd" d="M13.2929 9.97124C13.6834 9.59292 14.3166 9.59292 14.7071 9.97124L19.7071 14.815C20.0976 15.1933 20.0976 15.8067 19.7071 16.185L14.7071 21.0288C14.3166 21.4071 13.6834 21.4071 13.2929 21.0288C12.9024 20.6504 12.9024 20.0371 13.2929 19.6587L17.5858 15.5L13.2929 11.3413C12.9024 10.9629 12.9024 10.3496 13.2929 9.97124Z" fill="#1F1F22"/>
</svg>
