<svg width="64" height="64" viewBox="0 0 64 64" fill="none" xmlns="http://www.w3.org/2000/svg">
<path d="M23.4443 33C20.4258 33 18 35.4742 18 38.5C18 41.5258 20.4258 44 23.4443 44C24.1145 44 24.7585 43.8772 25.3539 43.6519C25.8705 43.4564 26.1307 42.8792 25.9353 42.3626C25.7398 41.8461 25.1626 41.5858 24.6461 41.7813C24.2731 41.9225 23.8687 42 23.4443 42C21.5538 42 20 40.4448 20 38.5C20 36.5552 21.5538 35 23.4443 35C23.8687 35 24.2731 35.0775 24.6461 35.2187C25.1626 35.4142 25.7398 35.1539 25.9353 34.6374C26.1307 34.1208 25.8705 33.5436 25.3539 33.3481C24.7585 33.1228 24.1145 33 23.4443 33Z" fill="#B2B8BF"/>
<path fill-rule="evenodd" clip-rule="evenodd" d="M29.4414 33.6139C30.194 33.1838 31.1272 33 32 33C32.8969 33 33.593 33.193 34.0814 33.4023C34.3244 33.5064 34.5139 33.6137 34.6501 33.7012C34.7182 33.745 34.7731 33.784 34.8148 33.8152C34.8357 33.8309 34.8533 33.8446 34.8676 33.8561L34.8866 33.8717L34.8943 33.8781L34.8977 33.881L34.8993 33.8823L34.9 33.883C34.9004 33.8833 34.9008 33.8836 34.25 34.6429L34.9 33.883C35.3194 34.2424 35.3687 34.8743 35.0093 35.2936C34.6542 35.7078 34.0339 35.7603 33.6147 35.4151C33.6094 35.4111 33.594 35.3999 33.5686 35.3836C33.5173 35.3506 33.4256 35.2972 33.2936 35.2406C33.032 35.1285 32.6031 35 32 35C31.3728 35 30.806 35.1376 30.4336 35.3504C30.0809 35.552 30 35.7482 30 35.9286C30 36.1092 30.0804 36.3285 30.5187 36.6416C30.9753 36.9677 31.6147 37.2469 32.3939 37.5809L32.4491 37.6045C33.1583 37.9083 33.9923 38.2656 34.6437 38.7309C35.3304 39.2214 36 39.9664 36 41.0714C36 42.1768 35.3309 42.9448 34.5586 43.3861C33.806 43.8162 32.8728 44 32 44C31.1031 44 30.407 43.807 29.9186 43.5977C29.6756 43.4936 29.4861 43.3863 29.3499 43.2988C29.2818 43.255 29.2269 43.216 29.1852 43.1848C29.1643 43.1691 29.1467 43.1554 29.1324 43.1439L29.1134 43.1283L29.1057 43.1219L29.1023 43.119L29.1007 43.1177C29.1003 43.1174 29.0992 43.1164 29.7219 42.39L29.0992 43.1164C28.6799 42.757 28.6313 42.1257 28.9907 41.7064C29.3458 41.2922 29.9661 41.2397 30.3853 41.5849C30.3906 41.5889 30.406 41.6001 30.4314 41.6164C30.4827 41.6494 30.5744 41.7028 30.7064 41.7594C30.968 41.8715 31.3969 42 32 42C32.6272 42 33.194 41.8624 33.5664 41.6496C33.9191 41.448 34 41.2518 34 41.0714C34 40.8908 33.9196 40.6715 33.4813 40.3584C33.0247 40.0323 32.3853 39.7531 31.6061 39.4191L31.5509 39.3955C30.8417 39.0917 30.0077 38.7344 29.3563 38.2691C28.6696 37.7786 28 37.0336 28 35.9286C28 34.8232 28.6691 34.0552 29.4414 33.6139ZM29.75 42.3571C30.3877 41.6131 30.4002 41.5979 30.4001 41.5973L29.75 42.3571Z" fill="#B2B8BF"/>
<path d="M38.9136 33.5936C38.6893 33.0889 38.0983 32.8616 37.5936 33.0859C37.0889 33.3103 36.8616 33.9012 37.0859 34.4059L41.0859 43.4059C41.2465 43.767 41.6046 43.9998 41.9998 43.9998C42.395 43.9998 42.7531 43.767 42.9136 43.4059L46.9136 34.4059C47.1379 33.9012 46.9106 33.3103 46.4059 33.0859C45.9012 32.8616 45.3103 33.0889 45.0859 33.5936L41.9998 40.5375L38.9136 33.5936Z" fill="#B2B8BF"/>
<path fill-rule="evenodd" clip-rule="evenodd" d="M51 27.5C51 27.4135 50.989 27.3296 50.9684 27.2496C51.0528 26.9224 50.9665 26.57 50.7311 26.3177L36.7363 11.3234C36.5536 11.1246 36.2913 11 36 11H17.6C15.05 11 13 13.0853 13 15.6364V48.3636C13 50.9147 15.05 53 17.6 53H46.4C48.95 53 51 50.9147 51 48.3636V27.5ZM17.6 13H35V23C35 25.7615 37.2386 28 40 28H49V48.3636C49 49.8292 47.8265 51 46.4 51H17.6C16.1735 51 15 49.8292 15 48.3636V15.6364C15 14.1708 16.1735 13 17.6 13ZM37 14.5371V23C37 24.6569 38.3431 26 40 26H47.6988L37 14.5371Z" fill="#B2B8BF"/>
</svg>
