<svg width="24" height="24" viewBox="0 0 24 24" fill="none" xmlns="http://www.w3.org/2000/svg">
<path fill-rule="evenodd" clip-rule="evenodd" d="M15.87 8.5H13C12.95 8.5 12.9 8.49 12.85 8.49C12.43 9.94 11.08 11 9.5 11C7.91 11 6.57 9.94 6.14 8.5H5C4.44 8.5 4 8.05 4 7.5C4 6.94 4.44 6.5 5 6.5H6.14C6.57 5.05 7.91 4 9.5 4C11.08 4 12.43 5.05 12.85 6.5C12.9 6.5 12.95 6.5 13 6.5H15.03C15.12 7.25 15.42 7.93 15.87 8.5ZM9.5 6C8.67 6 8 6.67 8 7.5C8 8.32 8.67 9 9.5 9C10.32 9 11 8.32 11 7.5C11 6.67 10.32 6 9.5 6ZM17.85 17.5C17.42 18.94 16.08 20 14.5 20C12.91 20 11.56 18.94 11.14 17.49C11.09 17.49 11.04 17.5 11 17.5H5C4.44 17.5 4 17.05 4 16.5C4 15.94 4.44 15.5 5 15.5H11C11.04 15.5 11.09 15.5 11.14 15.5C11.56 14.05 12.91 13 14.5 13C16.08 13 17.42 14.05 17.85 15.5H19C19.55 15.5 20 15.94 20 16.5C20 17.05 19.55 17.5 19 17.5H17.85ZM14.5 15C15.32 15 16 15.67 16 16.5C16 17.32 15.32 18 14.5 18C13.67 18 13 17.32 13 16.5C13 15.67 13.67 15 14.5 15Z" fill="#E4E8EB"/>
<path fill-rule="evenodd" clip-rule="evenodd" d="M20.5 9C22.43 9 24 7.43 24 5.5C24 3.56 22.43 2 20.5 2C18.56 2 17 3.56 17 5.5C17 7.43 18.56 9 20.5 9Z" fill="#FF9900"/>
</svg>
