<svg width="20" height="20" viewBox="0 0 20 20" fill="none" xmlns="http://www.w3.org/2000/svg">
<path d="M5.00003 2C4.44775 2 4.00003 2.44771 4.00003 3V5.49999C4.00003 6.05228 3.55232 6.49999 3.00003 6.49999C2.44775 6.49999 2.00003 6.05228 2.00003 5.49999V3C2.00003 1.34314 3.34318 0 5.00003 0H15C16.6569 0 18 1.34314 18 3V5.49999C18 6.05228 17.5523 6.49999 17 6.49999C16.4477 6.49999 16 6.05228 16 5.49999V3C16 2.44771 15.5523 2 15 2H5.00003Z" fill="#B2B8BF"/>
<path d="M14 13C14 13.5523 13.5523 14 13 14C12.4477 14 12 13.5523 12 13C12 12.4477 12.4477 12 13 12C13.5523 12 14 12.4477 14 13Z" fill="#B2B8BF"/>
<path d="M6.99999 14C7.55227 14 7.99999 13.5523 7.99999 13C7.99999 12.4477 7.55227 12 6.99999 12C6.44771 12 5.99999 12.4477 5.99999 13C5.99999 13.5523 6.44771 14 6.99999 14Z" fill="#B2B8BF"/>
<path fill-rule="evenodd" clip-rule="evenodd" d="M10.7937 19.6086C10.7456 19.6713 10.6892 19.7292 10.6247 19.7808C10.1934 20.1258 9.56413 20.0559 9.21912 19.6247C7.8563 17.9211 6.47439 17.4237 5.01544 16.8986C4.55085 16.7314 4.07844 16.5614 3.59635 16.3487C2.60389 15.9108 1.64239 15.2838 0.968685 14.0658C0.319075 12.8913 0 11.2793 0 8.99999C0 8.44771 0.44771 7.99999 0.999991 7.99999H8.99999V4.49999C8.99999 3.94771 9.4477 3.5 9.99999 3.5C10.5523 3.5 11 3.94771 11 4.49999V7.99999H19C19.5523 7.99999 20 8.44771 20 8.99999C20 11.2793 19.6809 12.8913 19.0313 14.0658C18.3576 15.2838 17.3961 15.9108 16.4036 16.3487C15.9215 16.5614 15.4491 16.7314 14.9845 16.8986C13.5302 17.4221 12.1524 17.918 10.7937 19.6086ZM2.02499 9.99999C2.10587 11.5288 2.37533 12.4768 2.71881 13.0978C3.10761 13.8007 3.6461 14.1847 4.40364 14.5189C4.7113 14.6546 5.06775 14.7809 5.45901 14.9196C6.27191 15.2077 7.3619 15.6247 8.22318 16.1387C8.81549 16.4921 9.41676 16.9347 9.99999 17.5085C11.5562 15.9775 13.2408 15.3804 14.541 14.9196C14.9322 14.7809 15.2887 14.6546 15.5963 14.5189C16.3539 14.1847 16.8924 13.8007 17.2812 13.0978C17.6246 12.4768 17.8941 11.5288 17.975 9.99999H2.02499Z" fill="#B2B8BF"/>
</svg>
