<svg width="16" height="17" viewBox="0 0 16 17" fill="none" xmlns="http://www.w3.org/2000/svg">
<path fill-rule="evenodd" clip-rule="evenodd" d="M0 4C0 1.79086 1.79086 0 4 0C5.03948 0 5.98636 0.396508 6.69763 1.04653C6.79302 1.0163 6.89461 1 7 1H13C14.6569 1 16 2.34315 16 4C16 5.30622 15.1652 6.41746 14 6.82929V8C14 8.55228 13.5523 9 13 9C12.4477 9 12 8.55228 12 8V7H7.70234L9.29045 14H15C15.5523 14 16 14.4477 16 15C16 15.5523 15.5523 16 15 16H8.62338C8.48802 16.0289 8.35428 16.0276 8.22908 16H1C0.447715 16 0 15.5523 0 15C0 14.4477 0.447715 14 1 14H3.16587L1.64624 7.30179C1.64036 7.27588 1.63552 7.24988 1.6317 7.22386C0.642134 6.49569 0 5.32283 0 4ZM4 2C2.89543 2 2 2.89543 2 4C2 5.10457 2.89543 6 4 6C5.10457 6 6 5.10457 6 4C6 2.89543 5.10457 2 4 2ZM13 5C13.5523 5 14 4.55228 14 4C14 3.44772 13.5523 3 13 3C12.4477 3 12 3.44772 12 4C12 4.55228 12.4477 5 13 5ZM5.20957 14H7.24675L5.78982 7.5782C5.2513 7.8481 4.64339 8 4 8C3.949 8 3.89823 7.99905 3.8477 7.99715L5.20957 14ZM7.87398 5H10.1707C10.0602 4.68722 10 4.35064 10 4C10 3.64936 10.0602 3.31278 10.1707 3H7.87398C7.95625 3.31962 8 3.6547 8 4C8 4.3453 7.95625 4.68038 7.87398 5Z" fill="#B2B8BF"/>
<path d="M10 11C10 10.4477 10.4477 10 11 10H15C15.5523 10 16 10.4477 16 11C16 11.5523 15.5523 12 15 12H11C10.4477 12 10 11.5523 10 11Z" fill="#B2B8BF"/>
</svg>
