<svg width="20" height="20" viewBox="0 0 20 20" fill="none" xmlns="http://www.w3.org/2000/svg">
<path fill-rule="evenodd" clip-rule="evenodd" d="M4.2887 6.15585C5.06659 3.74422 7.33074 2 10.0003 2C12.6697 2 14.9338 3.74415 15.7118 6.15568C14.7132 6.51863 14 7.47602 14 8.6V12.4C14 13.3892 14.5524 14.2493 15.3655 14.6888C14.6694 16.075 13.4526 17.1532 11.9726 17.6682C11.8145 16.7215 10.9915 16 10 16C8.89543 16 8 16.8954 8 18C8 19.1046 8.89543 20 10 20C10.0047 20 10.0094 20 10.0141 20C13.3765 19.9942 16.2501 17.9143 17.4282 14.9751C17.4394 14.9472 17.4492 14.9191 17.4577 14.8909C18.9203 14.5108 20 13.1815 20 11.6V9.4C20 7.94498 19.086 6.70343 17.8009 6.21815C16.9906 2.65779 13.8069 0 10.0003 0C6.19364 0 3.01008 2.65768 2.19969 6.21794C0.914241 6.70307 0 7.94477 0 9.4V11.6C0 13.4778 1.52223 15 3.4 15C4.83594 15 6 13.8359 6 12.4V8.6C6 7.47619 5.28701 6.51892 4.2887 6.15585ZM3.4 8C2.6268 8 2 8.6268 2 9.4V11.6C2 12.3732 2.6268 13 3.4 13C3.73137 13 4 12.7314 4 12.4V8.6C4 8.26863 3.73137 8 3.4 8ZM16.6 8C17.3732 8 18 8.6268 18 9.4V11.6C18 12.3732 17.3732 13 16.6 13C16.2686 13 16 12.7314 16 12.4V8.6C16 8.26863 16.2686 8 16.6 8Z" fill="#B2B8BF"/>
</svg>
