<svg width="16" height="16" viewBox="0 0 16 16" fill="none" xmlns="http://www.w3.org/2000/svg">
<path fill-rule="evenodd" clip-rule="evenodd" d="M4 3C4 1.34315 5.34315 0 7 0H8.6442C9.46405 0 10.2482 0.33553 10.8143 0.928573L14.7234 5.02381C14.9009 5.20983 15 5.45712 15 5.71429V10C15 11.6569 13.6569 13 12 13H7C5.34315 13 4 11.6569 4 10V3ZM7 2C6.44772 2 6 2.44772 6 3V10C6 10.5523 6.44772 11 7 11H12C12.5523 11 13 10.5523 13 10L12.9994 6.99967H10.6039C9.16797 6.99967 8.00391 5.83562 8.00391 4.39968L8.00389 2.00001L8.6442 2H7ZM10.0039 2.97617L10.0039 4.39967C10.0039 4.73104 10.2725 4.99967 10.6039 4.99967H11.9354L10.0039 2.97617Z" fill="#565B62"/>
<path d="M2 4.99805C2.55228 4.99805 3 5.44576 3 5.99805V13.498C3 13.7144 3.20685 13.998 3.6 13.998H10C10.5523 13.998 11 14.4458 11 14.998C11 15.5503 10.5523 15.998 10 15.998H3.6C2.22583 15.998 1 14.9386 1 13.498V5.99805C1 5.44576 1.44772 4.99805 2 4.99805Z" fill="#565B62"/>
</svg>
