<svg width="64" height="64" viewBox="0 0 64 64" fill="none" xmlns="http://www.w3.org/2000/svg">
<path d="M24 19C23.4477 19 23 19.4477 23 20C23 20.5523 23.4477 21 24 21L29 21C29.5523 21 30 20.5523 30 20C30 19.4477 29.5523 19 29 19L24 19Z" fill="#B2B8BF"/>
<path d="M24 27C23.4477 27 23 27.4477 23 28C23 28.5523 23.4477 29 24 29H29C29.5523 29 30 28.5523 30 28C30 27.4477 29.5523 27 29 27H24Z" fill="#B2B8BF"/>
<path d="M23 36C23 35.4477 23.4477 35 24 35H40C40.5523 35 41 35.4477 41 36C41 36.5523 40.5523 37 40 37H24C23.4477 37 23 36.5523 23 36Z" fill="#B2B8BF"/>
<path d="M24 43C23.4477 43 23 43.4477 23 44C23 44.5523 23.4477 45 24 45H40C40.5523 45 41 44.5523 41 44C41 43.4477 40.5523 43 40 43H24Z" fill="#B2B8BF"/>
<path d="M36 17C36 16.4477 35.5523 16 35 16C34.4477 16 34 16.4477 34 17V24C34 26.7614 36.2386 29 39 29H45C45.5523 29 46 28.5523 46 28C46 27.4477 45.5523 27 45 27H39C37.3431 27 36 25.6569 36 24V17Z" fill="#B2B8BF"/>
<path fill-rule="evenodd" clip-rule="evenodd" d="M13 15.6364C13 13.0853 15.05 11 17.6 11H35.1309C35.9624 11 36.7567 11.3451 37.3241 11.953L50.1932 25.7414C50.7116 26.2969 51 27.0285 51 27.7883V48.3636C51 50.9147 48.95 53 46.4 53H17.6C15.05 53 13 50.9147 13 48.3636V15.6364ZM17.6 13C16.1735 13 15 14.1708 15 15.6364V48.3636C15 49.8292 16.1735 51 17.6 51H46.4C47.8265 51 49 49.8292 49 48.3636V27.7883C49 27.535 48.9039 27.2912 48.7311 27.106L35.8619 13.3177C35.6728 13.115 35.4081 13 35.1309 13H17.6Z" fill="#B2B8BF"/>
</svg>
