<svg width="24" height="24" viewBox="0 0 24 24" fill="none" xmlns="http://www.w3.org/2000/svg">
<path fill-rule="evenodd" clip-rule="evenodd" d="M8.00115 17.0031C8.55094 17.0031 9.00077 16.5532 9.00077 16.0035V8.58631L9.88043 9.28604C10.3103 9.62591 10.94 9.55594 11.2799 9.1261C11.6297 8.69627 11.5598 8.06651 11.1299 7.71665L8.63091 5.71742C8.26105 5.42753 7.74125 5.42753 7.38139 5.71742L4.88236 7.71665C4.44253 8.06651 4.37256 8.69627 4.72242 9.1261C5.06229 9.55594 5.69205 9.62591 6.13188 9.28604L7.00154 8.58631V16.0035C7.00154 16.5532 7.45137 17.0031 8.00115 17.0031ZM15.9981 7.00692C16.5478 7.00692 16.9977 7.44675 16.9977 8.00654V15.4137L17.8773 14.714C18.3072 14.3741 18.9369 14.4441 19.2768 14.8739C19.6267 15.3037 19.5567 15.9335 19.1268 16.2834L16.6278 18.2826C16.258 18.5725 15.7382 18.5725 15.3783 18.2826L12.8793 16.2834C12.4394 15.9335 12.3695 15.3037 12.7193 14.8739C13.0592 14.4441 13.689 14.3741 14.1288 14.714L14.9984 15.4137V8.00654C14.9984 7.44675 15.4483 7.00692 15.9981 7.00692Z" fill="#21A19A"/>
</svg>
