<svg width="32" height="32" viewBox="0 0 32 32" fill="none" xmlns="http://www.w3.org/2000/svg">
<path fill-rule="evenodd" clip-rule="evenodd" d="M4.7 2.00003H18V8.00003C18 10.7615 20.2386 13 23 13H29V28.2728C29 29.2362 28.2294 30 27.3 30H4.7C3.77057 30 3 29.2362 3 28.2728V3.7273C3 2.76386 3.77057 2.00003 4.7 2.00003ZM30.7584 11.3482C30.7421 11.3292 30.725 11.3108 30.7071 11.2929L19.7071 0.292922C19.6859 0.27167 19.6638 0.251524 19.641 0.232502C19.4713 0.0906567 19.2619 0.011265 19.047 0.00111357C19.0287 0.000249499 19.0103 -0.000112916 18.992 3.05134e-05H4.7C2.64709 3.05134e-05 1 1.67829 1 3.7273V28.2728C1 30.3218 2.64709 32 4.7 32H27.3C29.3529 32 31 30.3218 31 28.2728V12.0079L30.7071 11.2929L30.999 11.9543C30.9889 11.7343 30.9062 11.5201 30.7584 11.3482ZM20 3.41424V8.00003C20 9.65688 21.3431 11 23 11H27.5858L20 3.41424ZM6 16C5.44772 16 5 16.4477 5 17V24C5 24.5523 5.44772 25 6 25H8.35294C9.61937 25 10.5716 24.3515 11.1681 23.4642C11.7446 22.6066 12 21.5249 12 20.5C12 19.4751 11.7446 18.3934 11.1681 17.5358C10.5716 16.6485 9.61937 16 8.35294 16H6ZM7 23V18H8.35294C8.85122 18 9.22249 18.2265 9.50834 18.6517C9.81419 19.1066 10 19.7749 10 20.5C10 21.2251 9.81419 21.8934 9.50834 22.3483C9.22249 22.7735 8.85122 23 8.35294 23H7ZM21 20.5C21 18.0613 22.8946 16 25.3332 16C25.8714 16 26.3883 16.1024 26.8653 16.2896C27.3794 16.4913 27.6326 17.0716 27.4309 17.5858C27.2291 18.0999 26.6488 18.3531 26.1347 18.1513C25.8854 18.0535 25.616 18 25.3332 18C24.0901 18 23 19.0727 23 20.5C23 21.9273 24.0901 23 25.3332 23C25.616 23 25.8854 22.9465 26.1347 22.8487C26.6488 22.6469 27.2291 22.9001 27.4309 23.4142C27.6326 23.9284 27.3794 24.5087 26.8653 24.7104C26.3883 24.8976 25.8714 25 25.3332 25C22.8946 25 21 22.9387 21 20.5ZM14.5 20.5C14.5 18.9691 15.5345 18 16.5 18C17.4655 18 18.5 18.9691 18.5 20.5C18.5 22.0309 17.4655 23 16.5 23C15.5345 23 14.5 22.0309 14.5 20.5ZM16.5 16C14.1518 16 12.5 18.1649 12.5 20.5C12.5 22.8351 14.1518 25 16.5 25C18.8482 25 20.5 22.8351 20.5 20.5C20.5 18.1649 18.8482 16 16.5 16Z" fill="#B2B8BF"/>
</svg>
