<svg width="16" height="16" viewBox="0 0 16 16" fill="none" xmlns="http://www.w3.org/2000/svg">
<path d="M6 3C6 1.89543 6.89543 1 8 1H13C14.1046 1 15 1.89543 15 3V14C15 14.5523 14.5523 15 14 15C13.4477 15 13 14.5523 13 14V3H8V5C8 5.55228 7.55228 6 7 6C6.44772 6 6 5.55228 6 5V3Z" fill="#B2B8BF"/>
<path d="M10 4C9.44771 4 9 4.44772 9 5C9 5.55228 9.44771 6 10 6H11C11.5523 6 12 5.55228 12 5C12 4.44772 11.5523 4 11 4H10Z" fill="#B2B8BF"/>
<path d="M10 7C9.44771 7 9 7.44772 9 8C9 8.55228 9.44771 9 10 9H11C11.5523 9 12 8.55228 12 8C12 7.44772 11.5523 7 11 7H10Z" fill="#B2B8BF"/>
<path d="M9 11C9 10.4477 9.44771 10 10 10H11C11.5523 10 12 10.4477 12 11C12 11.5523 11.5523 12 11 12H10C9.44771 12 9 11.5523 9 11Z" fill="#B2B8BF"/>
<path d="M10 13C9.44771 13 9 13.4477 9 14C9 14.5523 9.44771 15 10 15H11C11.5523 15 12 14.5523 12 14C12 13.4477 11.5523 13 11 13H10Z" fill="#B2B8BF"/>
<path d="M4 11C4 10.4477 4.44772 10 5 10H6C6.55228 10 7 10.4477 7 11C7 11.5523 6.55228 12 6 12H5C4.44772 12 4 11.5523 4 11Z" fill="#B2B8BF"/>
<path d="M5 13C4.44772 13 4 13.4477 4 14C4 14.5523 4.44772 15 5 15H6C6.55228 15 7 14.5523 7 14C7 13.4477 6.55228 13 6 13H5Z" fill="#B2B8BF"/>
<path d="M3 7C1.89543 7 1 7.89543 1 9V14C1 14.5523 1.44772 15 2 15C2.55228 15 3 14.5523 3 14V9H6C6.55228 9 7 8.55228 7 8C7 7.44772 6.55228 7 6 7H3Z" fill="#B2B8BF"/>
</svg>
