<svg width="16" height="16" viewBox="0 0 16 16" fill="none" xmlns="http://www.w3.org/2000/svg">
<path fill-rule="evenodd" clip-rule="evenodd" d="M8 4C5.5711 4 4 5.53984 4 7C4 8.46016 5.5711 10 8 10C8.2435 10 8.48129 9.98349 8.71173 9.95204C8.96114 9.91799 9.21422 9.97926 9.42044 10.1236L11.3091 11.4457L11.1198 9.36259C11.0952 9.09226 11.1816 8.82355 11.359 8.61818C11.7799 8.13123 12 7.57466 12 7C12 5.53984 10.4289 4 8 4ZM2 7C2 4.04188 4.90606 2 8 2C11.0939 2 14 4.04188 14 7C14 7.95764 13.6794 8.83832 13.1475 9.5774L13.3984 12.337C13.514 13.6082 12.0901 14.4337 11.0444 13.7017L8.58054 11.977C8.3893 11.9922 8.19563 12 8 12C4.90606 12 2 9.95812 2 7Z" fill="#565B62"/>
</svg>
