<svg width="20" height="21" viewBox="0 0 20 21" fill="none" xmlns="http://www.w3.org/2000/svg">
<path d="M12.6319 3.81345C12.0859 3.81345 11.7703 4.06521 10.6748 5.20329L10.672 5.2062L5.73943 10.2902C5.26386 10.7856 5.00003 11.4443 5.00003 12.1443C5.00003 12.6427 5.00274 13.0634 5.13208 13.5245C5.25588 13.9658 5.51428 14.4989 6.11146 15.1193C6.7132 15.7445 7.221 16.0148 7.63692 16.1444C8.06995 16.2793 8.46504 16.2844 8.94045 16.2844C9.59136 16.2844 10.2146 16.0005 10.7084 15.487L10.7173 15.4777L15.2728 10.8583C15.6683 10.4572 16.3014 10.4657 16.6869 10.8773C17.0724 11.2889 17.0642 11.9477 16.6687 12.3488L12.1175 16.9639C11.2862 17.826 10.1695 18.3655 8.94045 18.3655L8.91155 18.3655C8.4474 18.3656 7.79386 18.3658 7.06326 18.1381C6.30025 17.9004 5.51086 17.4362 4.69838 16.5921C3.88135 15.7433 3.43731 14.9101 3.21221 14.1076C2.99947 13.3493 2.99979 12.6681 3.00001 12.1896L3.00003 12.1443C3.00003 10.8875 3.47798 9.69971 4.32706 8.81671L4.33022 8.81343L9.26314 3.72905L9.3868 3.60028C10.2876 2.66123 11.1787 1.7323 12.6319 1.7323C13.5357 1.7323 14.6907 2.11003 15.5886 3.04295C16.485 3.97412 16.8561 5.17861 16.8561 6.12259C16.8561 7.63953 15.8597 8.67156 14.9332 9.63102L14.358 10.2216C14.0113 10.5776 13.5421 11.0593 13.0525 11.5624C12.0717 12.5701 11.0126 13.6593 10.686 13.9985C9.57838 15.1493 8.00634 14.8864 7.14384 13.9904C6.25823 13.0703 6.07498 11.4586 7.16042 10.331C7.48984 9.98875 7.92558 9.53945 8.35404 9.09768L8.37444 9.07665L8.37473 9.07635C8.79706 8.64091 9.21043 8.21471 9.5104 7.90307C9.90124 7.49703 10.5344 7.49756 10.9246 7.90426C11.3148 8.31096 11.3143 8.96981 10.9235 9.37586C10.6209 9.69024 10.2054 10.1186 9.78502 10.552L9.78466 10.5524L9.76173 10.576C9.33237 11.0187 8.89965 11.4649 8.57349 11.8038C8.44059 11.9418 8.40916 12.0724 8.41213 12.1775C8.41551 12.2976 8.46612 12.4233 8.55692 12.5176C8.65114 12.6155 8.78456 12.6769 8.91385 12.683C9.02608 12.6883 9.14914 12.6544 9.27297 12.5257C9.60452 12.1813 10.669 11.0867 11.6473 10.0815C12.1371 9.57822 12.6064 9.09629 12.9532 8.74021L13.5223 8.156C14.6364 6.99841 14.8561 6.69478 14.8561 6.12259C14.8561 5.68808 14.6678 5.0271 14.1756 4.51573C13.685 4.0061 13.0535 3.81345 12.6319 3.81345Z" fill="#B2B8BF"/>
</svg>
