<svg width="20" height="20" viewBox="0 0 20 20" fill="none" xmlns="http://www.w3.org/2000/svg">
<path fill-rule="evenodd" clip-rule="evenodd" d="M6.49756 14.8772C6.41497 16.4027 6.83638 17.5709 7.63422 18.2906C8.41648 18.9962 9.45585 19.1601 10.295 18.8508C11.0499 18.5726 11.5192 18.068 11.7635 17.4696C11.9835 16.9305 11.9961 16.3695 11.9961 16.0016C11.9961 14.8396 12.5809 13.8145 13.2553 13.0278C13.5857 12.6423 13.9182 12.3375 14.1674 12.1298C14.2254 12.0815 14.2784 12.0388 14.3255 12.0019H17.9961C19.1007 12.0019 19.9961 11.1065 19.9961 10.0019V3.00194C19.9961 1.89737 19.1007 1.00194 17.9961 1.00194H14.0211C14.0129 1.00174 14.0046 1.00163 13.9963 1.00163L6.04164 1.00037C4.39651 1.0001 2.91899 2.00713 2.31773 3.53845L0.210518 8.90517C-0.562199 10.8732 0.888716 13.0016 3.00297 13.0016H6.71294C6.62195 13.4981 6.53825 14.1255 6.49756 14.8772ZM14.9961 3.00194V10.0019H17.9961V3.00194H14.9961ZM12.9961 3.00147V10.5039C12.9613 10.532 12.925 10.5618 12.8872 10.5932C12.574 10.8542 12.1564 11.2367 11.7369 11.7261C10.9113 12.6891 9.99609 14.1637 9.99609 16.0016C9.99609 16.3516 9.97186 16.5666 9.91177 16.7138C9.88701 16.7745 9.85906 16.8147 9.82603 16.8468C9.79296 16.879 9.72953 16.9277 9.60339 16.9742C9.46935 17.0236 9.21058 17.0191 8.9738 16.8055C8.75261 16.606 8.43406 16.1042 8.49463 14.9853C8.54314 14.0893 8.65978 13.4129 8.76007 12.9712C8.81022 12.7504 8.85632 12.5881 8.88782 12.4863C8.90357 12.4354 8.91567 12.3996 8.9228 12.3792L8.92961 12.3602C9.04712 12.0537 9.00696 11.7083 8.82156 11.4372C8.63518 11.1646 8.32628 11.0016 7.99609 11.0016H3.00297C2.29823 11.0016 1.81458 10.2921 2.07215 9.63613L4.17936 4.26941C4.48 3.50375 5.21876 3.00024 6.04132 3.00037L12.9961 3.00147Z" fill="#E4E8EB"/>
</svg>
