<svg width="16" height="16" viewBox="0 0 16 16" fill="none" xmlns="http://www.w3.org/2000/svg">
<path fill-rule="evenodd" clip-rule="evenodd" d="M1 8C1 11.866 4.13401 15 8 15C9.85652 15 11.637 14.2625 12.9497 12.9497C14.2625 11.637 15 9.85652 15 8C15 4.13401 11.866 1 8 1C4.13401 1 1 4.13401 1 8ZM8 3.625C7.06158 3.6244 6.19421 4.1248 5.725 4.9375C5.55257 5.20874 5.54273 5.55268 5.69936 5.83334C5.856 6.11399 6.15389 6.28619 6.47527 6.28184C6.79665 6.27749 7.08977 6.09729 7.23875 5.8125C7.39567 5.5407 7.68615 5.37375 8 5.375C8.48325 5.375 8.875 5.76675 8.875 6.25C8.875 6.73325 8.48325 7.125 8 7.125C7.51675 7.125 7.125 7.51675 7.125 8V8.875C7.125 9.35825 7.51675 9.75 8 9.75C8.48325 9.75 8.875 9.35825 8.875 8.875V8.7175C10.0693 8.28413 10.7819 7.0576 10.5667 5.8054C10.3516 4.55321 9.2705 3.63486 8 3.625ZM8 12.3799C8.48325 12.3799 8.875 11.9881 8.875 11.5049C8.875 11.0216 8.48325 10.6299 8 10.6299C7.51675 10.6299 7.125 11.0216 7.125 11.5049C7.125 11.9881 7.51675 12.3799 8 12.3799Z" fill="#7D838A"/>
</svg>
