<svg width="32" height="32" viewBox="0 0 32 32" fill="none" xmlns="http://www.w3.org/2000/svg">
<path fill-rule="evenodd" clip-rule="evenodd" d="M16 30C10.9592 30 6.54055 27.3359 4.07538 23.3388L10 17.4142L13.2929 20.7071C13.6834 21.0976 14.3166 21.0976 14.7071 20.7071C15.0976 20.3166 15.0976 19.6834 14.7071 19.2929L10.7071 15.2929C10.3166 14.9024 9.68342 14.9024 9.29289 15.2929L3.11096 21.4748C2.39572 19.7931 2 17.9428 2 16C2 8.26801 8.26801 2 16 2C23.732 2 30 8.26801 30 16C30 17.6701 29.7076 19.2718 29.1711 20.7569L23.7071 15.2929C23.3166 14.9024 22.6834 14.9024 22.2929 15.2929L11.7929 25.7929C11.4024 26.1834 11.4024 26.8166 11.7929 27.2071C12.1834 27.5976 12.8166 27.5976 13.2071 27.2071L23 17.4142L28.2922 22.7064C25.9161 27.0524 21.3023 30 16 30ZM0 16C0 7.16344 7.16344 0 16 0C24.8366 0 32 7.16344 32 16C32 24.8366 24.8366 32 16 32C7.16344 32 0 24.8366 0 16ZM11 8.66667C11 7.74619 11.7462 7 12.6667 7C13.5871 7 14.3333 7.74619 14.3333 8.66667C14.3333 9.58714 13.5871 10.3333 12.6667 10.3333C11.7462 10.3333 11 9.58714 11 8.66667ZM12.6667 5C10.6416 5 9 6.64162 9 8.66667C9 10.6917 10.6416 12.3333 12.6667 12.3333C14.6917 12.3333 16.3333 10.6917 16.3333 8.66667C16.3333 6.64162 14.6917 5 12.6667 5Z" fill="#B2B8BF"/>
</svg>
