<svg width="20" height="20" viewBox="0 0 20 20" fill="none" xmlns="http://www.w3.org/2000/svg">
<path fill-rule="evenodd" clip-rule="evenodd" d="M5 3C5 1.34315 6.34315 0 8 0H11.1716C11.9672 0 12.7303 0.31607 13.2929 0.87868L18.7071 6.29289C18.8946 6.48043 19 6.73478 19 7V13C19 14.6569 17.6569 16 16 16H8C6.34315 16 5 14.6569 5 13V3ZM8 2C7.44772 2 7 2.44772 7 3V13C7 13.5523 7.44772 14 8 14H16C16.5523 14 17 13.5523 17 13V8.00002H14C12.3431 8.00002 11 6.65687 11 5.00002L11.0004 2H8ZM13.0002 3.41441L13 5.00002C13.0001 5.55225 13.4478 6.00002 14 6.00002H15.5858L13.0002 3.41441Z" fill="#D0D7DD"/>
<path d="M2 6C2.55228 6 3 6.44772 3 7V17C3 17.5523 3.44772 18 4 18H12C12.5523 18 13 18.4477 13 19C13 19.5523 12.5523 20 12 20H4C2.34315 20 1 18.6569 1 17V7C1 6.44772 1.44772 6 2 6Z" fill="#D0D7DD"/>
</svg>
