<svg width="32" height="32" viewBox="0 0 32 32" fill="none" xmlns="http://www.w3.org/2000/svg">
<path fill-rule="evenodd" clip-rule="evenodd" d="M18 2.00003H4.7C3.77056 2.00003 3 2.76386 3 3.7273V28.2727C3 29.2362 3.77056 30 4.7 30H27.3C28.2294 30 29 29.2362 29 28.2727V13H23C20.2386 13 18 10.7614 18 8.00002V2.00003ZM30.7071 11.2929C30.725 11.3108 30.742 11.3292 30.7583 11.3482C30.9062 11.5201 30.9888 11.7343 30.9989 11.9543L30.7071 11.2929ZM19.7071 0.292922L30.7071 11.2929L31 12.0079V28.2727C31 30.3217 29.3529 32 27.3 32H4.7C2.64709 32 0.999999 30.3217 0.999999 28.2727V3.7273C0.999999 1.67829 2.64709 3.05134e-05 4.7 3.05134e-05H18.992C19.0103 -0.000112916 19.0286 0.000249499 19.0469 0.00111357C19.2619 0.011265 19.4713 0.0906566 19.641 0.232501C19.6638 0.251524 19.6858 0.27167 19.7071 0.292922ZM20 8.00002V3.41424L27.5858 11H23C21.3431 11 20 9.65687 20 8.00002ZM6.41883 16.1863C6.86825 15.8653 7.49279 15.9694 7.8138 16.4188L9.49999 18.7794L11.1862 16.4188C11.5072 15.9694 12.1317 15.8653 12.5811 16.1863C13.0306 16.5073 13.1347 17.1318 12.8136 17.5812L10.7289 20.4999L12.8138 23.4188C13.1348 23.8682 13.0307 24.4927 12.5813 24.8137C12.1319 25.1347 11.5073 25.0306 11.1863 24.5812L9.49999 22.2204L7.81365 24.5812C7.49264 25.0306 6.86809 25.1347 6.41868 24.8137C5.96927 24.4927 5.86517 23.8682 6.18618 23.4188L8.27109 20.4999L6.18634 17.5812C5.86533 17.1318 5.96942 16.5073 6.41883 16.1863ZM15 16C15.5523 16 16 16.4477 16 17V23H18.5C19.0523 23 19.5 23.4477 19.5 24C19.5 24.5523 19.0523 25 18.5 25H15C14.4477 25 14 24.5523 14 24V17C14 16.4477 14.4477 16 15 16ZM22.5 16C21.762 16 20.9635 16.1445 20.3106 16.4927C19.648 16.8461 19 17.5019 19 18.5C19 19.4943 19.6461 20.1326 20.2265 20.5196C20.7831 20.8906 21.4901 21.1732 22.076 21.4075L22.1286 21.4285C22.7828 21.6902 23.2998 21.9018 23.664 22.1446C24.0094 22.3748 24.001 22.4868 24 22.4991L24 22.5L24 22.5004C24.0011 22.5076 24.0147 22.6005 23.7481 22.7427C23.4635 22.8945 23.012 23 22.5 23C22.0117 23 21.6687 22.903 21.4651 22.8215C21.3623 22.7804 21.2928 22.7423 21.2567 22.7206C21.2432 22.7125 21.2344 22.7068 21.2303 22.704C20.7997 22.3763 20.184 22.4505 19.8441 22.8753C19.4991 23.3066 19.569 23.9359 20.0003 24.2809L20.6212 23.5047C20.0003 24.2809 20.0007 24.2812 20.001 24.2815L20.0018 24.2821L20.0034 24.2833L20.0068 24.286L20.0142 24.2919L20.0323 24.3056C20.0457 24.3157 20.0619 24.3275 20.0808 24.3407C20.1187 24.3672 20.1676 24.3996 20.2277 24.4356C20.3478 24.5077 20.5127 24.5946 20.7223 24.6785C21.1438 24.8471 21.7382 25 22.5 25C23.238 25 24.0365 24.8555 24.6893 24.5074C25.352 24.1539 26 23.4981 26 22.5C26 21.5057 25.3539 20.8674 24.7734 20.4805C24.2169 20.1094 23.5099 19.8268 22.924 19.5926L22.8714 19.5715C22.2172 19.3099 21.7001 19.0983 21.3359 18.8555C20.9906 18.6252 20.999 18.5132 20.9999 18.5009L21 18.5L20.9999 18.4996C20.9989 18.4924 20.9852 18.3996 21.2518 18.2574C21.5365 18.1055 21.988 18 22.5 18C22.9882 18 23.3313 18.0971 23.5348 18.1785C23.6377 18.2196 23.7072 18.2577 23.7433 18.2794C23.7568 18.2875 23.7656 18.2933 23.7697 18.296C24.2002 18.6237 24.816 18.5495 25.1558 18.1247C25.5009 17.6934 25.4309 17.0642 24.9997 16.7191L24.3905 17.4806C24.9997 16.7191 24.9993 16.7188 24.9989 16.7185L24.9982 16.7179L24.9966 16.7167L24.9932 16.714L24.9857 16.7082L24.9677 16.6944C24.9542 16.6843 24.9381 16.6725 24.9191 16.6593C24.8813 16.6328 24.8324 16.6004 24.7723 16.5644C24.6522 16.4923 24.4873 16.4054 24.2776 16.3215C23.8562 16.153 23.2617 16 22.5 16Z" fill="#B2B8BF"/>
</svg>
