<svg width="32" height="32" viewBox="0 0 32 32" fill="none" xmlns="http://www.w3.org/2000/svg">
<path fill-rule="evenodd" clip-rule="evenodd" d="M16 32C24.8366 32 32 24.8366 32 16C32 7.16344 24.8366 0 16 0C7.16344 0 0 7.16344 0 16C0 24.8366 7.16344 32 16 32ZM10.3432 10.7071C10.7337 10.3166 10.7337 9.68341 10.3431 9.29289C9.95262 8.90237 9.31945 8.90237 8.92893 9.2929C5.02369 13.1982 5.02369 19.5297 8.92893 23.4351C9.31944 23.8256 9.95261 23.8256 10.3431 23.4351C10.7337 23.0446 10.7337 22.4114 10.3432 22.0209C7.21895 18.8966 7.21895 13.8313 10.3432 10.7071ZM23.0711 9.2929C22.6806 8.90237 22.0474 8.90237 21.6569 9.29289C21.2664 9.68341 21.2664 10.3166 21.6569 10.7071C24.7811 13.8313 24.7811 18.8966 21.6569 22.0209C21.2664 22.4114 21.2664 23.0446 21.6569 23.4351C22.0474 23.8256 22.6806 23.8256 23.0711 23.4351C26.9763 19.5297 26.9763 13.1982 23.0711 9.2929ZM13.1715 13.5355C13.5621 13.1449 13.5621 12.5118 13.1715 12.1213C12.781 11.7307 12.1478 11.7307 11.7573 12.1213C9.41422 14.4644 9.41422 18.2633 11.7573 20.6065C12.1478 20.997 12.781 20.997 13.1715 20.6065C13.5621 20.216 13.5621 19.5828 13.1715 19.1923C11.6095 17.6302 11.6095 15.0975 13.1715 13.5355ZM18.8284 12.1213C19.219 11.7307 19.8521 11.7307 20.2426 12.1213C22.5858 14.4644 22.5858 18.2634 20.2426 20.6065C19.8521 20.997 19.219 20.997 18.8284 20.6065C18.4379 20.216 18.4379 19.5828 18.8284 19.1923C20.3905 17.6302 20.3905 15.0976 18.8284 13.5355C18.4379 13.145 18.4379 12.5118 18.8284 12.1213ZM16 18.364C17.1046 18.364 18 17.4686 18 16.364C18 15.2594 17.1046 14.364 16 14.364C14.8954 14.364 14 15.2594 14 16.364C14 17.4686 14.8954 18.364 16 18.364Z" fill="#B2B8BF"/>
</svg>
