<svg width="32" height="32" viewBox="0 0 32 32" fill="none" xmlns="http://www.w3.org/2000/svg">
<path fill-rule="evenodd" clip-rule="evenodd" d="M27.7076 5.70711C28.0981 5.31658 28.0981 4.68342 27.7076 4.29289C27.317 3.90237 26.6839 3.90237 26.2934 4.29289L22.8542 7.73205C20.9873 6.69242 18.6986 6.00009 16.0003 6.00009C11.7081 6.00009 8.46602 7.75 6.3042 9.84426C5.22724 10.8876 4.41258 12.0211 3.8629 13.0775C3.32466 14.1119 3 15.1512 3 16C3 17.0768 3.52375 18.4881 4.40324 19.8499C5.12855 20.9729 6.14134 22.135 7.44301 23.1432L4.60942 25.9768C4.2189 26.3674 4.21865 27.0008 4.60918 27.3913C4.9997 27.7818 5.63311 27.7816 6.02363 27.391L27.7076 5.70711ZM8.87058 21.7157L11.7762 18.81C10.1735 16.8409 10.2961 13.9315 12.136 12.1067C13.9659 10.2918 16.8547 10.1844 18.8102 11.7761L21.3733 9.21295C19.8842 8.47878 18.0962 8.00009 16.0003 8.00009L15.987 8.00001C12.2858 8.00351 9.53183 9.50208 7.6958 11.2807C6.77276 12.1749 6.08742 13.1352 5.6371 14.0006C5.17534 14.8881 5 15.5988 5 16C5 16.5326 5.3051 17.5598 6.08332 18.7648C6.73087 19.7675 7.66051 20.8201 8.87058 21.7157ZM13.2031 17.3831L17.3833 13.203C16.2176 12.3825 14.5907 12.4889 13.5444 13.5267C12.4919 14.5706 12.3768 16.2093 13.2031 17.3831Z" fill="#B2B8BF"/>
<path d="M24.7467 10.2701C24.3435 10.6476 24.3227 11.2804 24.7002 11.6835C25.4906 12.5275 26.0756 13.4063 26.459 14.1912C26.8519 14.9954 27 15.6319 27 16C27 16.4012 26.8247 17.1119 26.3629 17.9994C25.9126 18.8648 25.2272 19.8251 24.3042 20.7193C22.466 22.5 19.7078 24 16.0001 24C14.6329 24 13.3998 23.7963 12.2973 23.4534C11.7699 23.2893 11.2095 23.5839 11.0454 24.1112C10.8814 24.6386 11.1759 25.1991 11.7032 25.3631C12.997 25.7656 14.4293 25.9996 15.9968 26L16 26C20.2922 26 23.534 24.25 25.6958 22.1557C26.7728 21.1124 27.5874 19.9789 28.1371 18.9225C28.6753 17.8881 29 16.8488 29 16C29 15.2112 28.7197 14.2624 28.256 13.3133C27.7829 12.3448 27.083 11.302 26.1601 10.3165C25.7826 9.91335 25.1498 9.89257 24.7467 10.2701Z" fill="#B2B8BF"/>
<path d="M16.9488 18.8739C16.3972 18.9026 15.9734 19.373 16.0021 19.9245C16.0308 20.476 16.5011 20.8999 17.0527 20.8712C18.1641 20.8134 19.2613 20.3528 20.0993 19.4925C20.9285 18.6411 21.3598 17.5463 21.3964 16.4454C21.4147 15.8935 20.9821 15.4311 20.4302 15.4128C19.8782 15.3944 19.4158 15.827 19.3975 16.379C19.3767 17.003 19.1336 17.6175 18.6666 18.097C18.1948 18.5815 17.5789 18.8411 16.9488 18.8739Z" fill="#B2B8BF"/>
</svg>
