<svg width="20" height="20" viewBox="0 0 20 20" fill="none" xmlns="http://www.w3.org/2000/svg">
<path d="M6 15C6 14.4477 6.44772 14 7 14H13C13.5523 14 14 14.4477 14 15C14 15.5523 13.5523 16 13 16H7C6.44772 16 6 15.5523 6 15Z" fill="#D0D7DD"/>
<path d="M7 10C6.44772 10 6 10.4477 6 11C6 11.5523 6.44772 12 7 12H9C9.55228 12 10 11.5523 10 11C10 10.4477 9.55228 10 9 10H7Z" fill="#D0D7DD"/>
<path fill-rule="evenodd" clip-rule="evenodd" d="M5 0C3.34315 0 2 1.34315 2 3V17C2 18.6569 3.34315 20 5 20H15C16.6569 20 18 18.6569 18 17V8.82843C18 8.03278 17.6839 7.26972 17.1213 6.70711L11.2929 0.87868C10.7303 0.31607 9.96722 0 9.17157 0H5ZM4 3C4 2.44772 4.44772 2 5 2H9V6C9 7.65685 10.3431 9 12 9H16V17C16 17.5523 15.5523 18 15 18H5C4.44772 18 4 17.5523 4 17V3ZM14.5858 7L11 3.41421V6C11 6.55228 11.4477 7 12 7H14.5858Z" fill="#D0D7DD"/>
</svg>
