<svg width="20" height="20" viewBox="0 0 20 20" fill="none" xmlns="http://www.w3.org/2000/svg">
<g clip-path="url(#clip0_49489_617)">
<path fill-rule="evenodd" clip-rule="evenodd" d="M10 20C15.5228 20 20 15.5228 20 10C20 4.47715 15.5228 0 10 0C4.47715 0 0 4.47715 0 10C0 15.5228 4.47715 20 10 20ZM15.71 9.28975C15.801 9.38477 15.8724 9.49682 15.92 9.61947C16.02 9.86273 16.02 10.1356 15.92 10.3788C15.8724 10.5015 15.801 10.6135 15.71 10.7086L10.71 15.7044C10.5222 15.8936 10.2666 16 10 16C9.73336 16 9.47777 15.8936 9.29 15.7044C9.10069 15.5168 8.9942 15.2614 8.9942 14.995C8.9942 14.7286 9.10069 14.4732 9.29 14.2856L12.59 10.9983H5C4.44772 10.9983 4 10.551 4 9.99916C4 9.44733 4.44772 8.99998 5 8.99998H12.59L9.29 5.7127C9.03634 5.45925 8.93728 5.08984 9.03012 4.74362C9.12297 4.3974 9.39362 4.12698 9.74012 4.03421C10.0866 3.94144 10.4563 4.04042 10.71 4.29387L15.71 9.28975Z" fill="#107F8C"/>
</g>
<defs>
<clipPath id="clip0_49489_617">
<rect width="20" height="20" fill="white"/>
</clipPath>
</defs>
</svg>
