<svg width="20" height="20" viewBox="0 0 20 20" fill="none" xmlns="http://www.w3.org/2000/svg">
<path fill-rule="evenodd" clip-rule="evenodd" d="M1 4.5C1 3.67 1.67 3 2.5 3H13.5C14.32 3 15 3.67 15 4.5V12.5C15 13.32 14.32 14 13.5 14H2.5C1.67 14 1 13.32 1 12.5V4.5ZM17 8.5V6C17 5.44 17.44 5 18 5C18.55 5 19 5.44 19 6V8.5C19 9.05 18.55 9.5 18 9.5C17.44 9.5 17 9.05 17 8.5ZM18 12C18.55 12 19 12.44 19 13V15C19 16.65 17.65 18 16 18C15.44 18 15 17.55 15 17C15 16.44 15.44 16 16 16C16.55 16 17 15.55 17 15V13C17 12.44 17.44 12 18 12ZM3 17C3 16.44 3.44 16 4 16H6C6.55 16 7 16.44 7 17C7 17.55 6.55 18 6 18H4C3.44 18 3 17.55 3 17ZM9 17C9 16.44 9.44 16 10 16H12C12.55 16 13 16.44 13 17C13 17.55 12.55 18 12 18H10C9.44 18 9 17.55 9 17Z" fill="#107F8C"/>
</svg>
