<svg width="20" height="20" viewBox="0 0 20 20" fill="none" xmlns="http://www.w3.org/2000/svg">
<g clip-path="url(#clip0_49494_627)">
<path d="M4.2936 10.7125L9.28947 15.7125C9.3845 15.8035 9.49655 15.8749 9.6192 15.9225C9.86246 16.0225 10.1353 16.0225 10.3786 15.9225C10.5012 15.8749 10.6133 15.8035 10.7083 15.7125L15.7042 10.7125C15.9576 10.4588 16.0566 10.0891 15.9638 9.74257C15.8711 9.39606 15.6006 9.12541 15.2544 9.03257C14.9082 8.93972 14.5388 9.03879 14.2853 9.29244L10.9981 12.5925V5.00244C10.9981 4.45016 10.5507 4.00244 9.99889 4.00244C9.44706 4.00244 8.99971 4.45016 8.99971 5.00244V12.5925L5.71243 9.29244C5.52482 9.10313 5.26943 8.99664 5.00302 8.99664C4.7366 8.99664 4.48121 9.10313 4.2936 9.29244C4.10445 9.48021 3.99805 9.73581 3.99805 10.0025C3.99805 10.2691 4.10445 10.5247 4.2936 10.7125Z" fill="#1F1F22"/>
</g>
<defs>
<clipPath id="clip0_49494_627">
<rect width="20" height="20" fill="white"/>
</clipPath>
</defs>
</svg>
