<svg width="20" height="20" viewBox="0 0 20 20" fill="none" xmlns="http://www.w3.org/2000/svg">
<path fill-rule="evenodd" clip-rule="evenodd" d="M9.77235 2.52137C10.0913 1.56448 11.0729 0.994848 12.0619 1.19266L12.8924 1.35876C13.8273 1.54572 14.5002 2.36655 14.5002 3.31992V5.57118L14.1532 8.00011L17.6128 8.00011C18.9779 8.00011 19.9418 9.33751 19.5101 10.6326L17.1768 17.6326C16.9046 18.4493 16.1403 19.0001 15.2794 19.0001H3.00017C1.89562 19.0001 1.0002 18.1047 1.00017 17.0002L1 10.0002C0.999973 8.89557 1.89541 8.00011 3 8.00011H5.83792L6.87547 7.65426L9.09906 4.54123L9.77235 2.52137ZM5.00022 10.0001H3L3.00017 17.0001H5.00039L5.00022 10.0001ZM7.00039 17.0001L15.2794 17.0001L17.6128 10.0001H14.1532C12.9361 10.0001 12.0012 8.92214 12.1733 7.71727L12.5002 5.42905L12.5002 3.31992L11.6697 3.15382L10.9013 5.45899L8.50294 8.81674C8.25726 9.16069 7.90892 9.41796 7.50792 9.55163L7.00021 9.72087L7.00039 17.0001Z" fill="#B2B8BF"/>
</svg>
