<svg width="32" height="32" viewBox="0 0 32 32" fill="none" xmlns="http://www.w3.org/2000/svg">
<path fill-rule="evenodd" clip-rule="evenodd" d="M18 2.00003H4.7C3.77056 2.00003 3 2.76386 3 3.7273V28.2727C3 29.2362 3.77056 30 4.7 30H27.3C28.2294 30 29 29.2362 29 28.2727V13H23C20.2386 13 18 10.7614 18 8.00002V2.00003ZM30.7071 11.2929C30.725 11.3108 30.742 11.3292 30.7583 11.3482C30.9062 11.5201 30.9888 11.7343 30.9989 11.9543L30.7071 11.2929ZM19.7071 0.292922L30.7071 11.2929L31 12.0079V28.2727C31 30.3217 29.3529 32 27.3 32H4.7C2.64709 32 0.999999 30.3217 0.999999 28.2727V3.7273C0.999999 1.67829 2.64709 3.05134e-05 4.7 3.05134e-05H18.992C19.0103 -0.000112916 19.0286 0.000249499 19.0469 0.00111357C19.2619 0.011265 19.4713 0.0906566 19.641 0.232501C19.6638 0.251524 19.6858 0.27167 19.7071 0.292922ZM20 8.00002V3.41424L27.5858 11H23C21.3431 11 20 9.65687 20 8.00002ZM13 17C13 16.4477 13.4477 16 14 16H16.3529C17.6194 16 18.5716 16.6485 19.1681 17.5358C19.7446 18.3934 20 19.4751 20 20.5C20 21.5249 19.7446 22.6066 19.1681 23.4642C18.5716 24.3515 17.6194 25 16.3529 25H14C13.4477 25 13 24.5523 13 24V17ZM15 18V23H16.3529C16.8512 23 17.2225 22.7735 17.5083 22.3483C17.8142 21.8934 18 21.2251 18 20.5C18 19.7749 17.8142 19.1066 17.5083 18.6517C17.2225 18.2265 16.8512 18 16.3529 18H15ZM6.99999 16C6.44771 16 5.99999 16.4477 5.99999 17V24C5.99999 24.5523 6.44771 25 6.99999 25C7.55228 25 7.99999 24.5523 7.99999 24V22H8.59999C9.61407 22 10.4713 21.6789 11.0839 21.1045C11.6914 20.535 12 19.7683 12 19C12 18.2317 11.6914 17.465 11.0839 16.8955C10.4713 16.3212 9.61407 16 8.59999 16H6.99999ZM8.59999 20H7.99999V18H8.59999C9.18591 18 9.52864 18.1789 9.71605 18.3546C9.90856 18.535 9.99999 18.7683 9.99999 19C9.99999 19.2317 9.90856 19.465 9.71605 19.6455C9.52864 19.8212 9.18591 20 8.59999 20ZM21 17C21 16.4477 21.4477 16 22 16H26C26.5523 16 27 16.4477 27 17C27 17.5523 26.5523 18 26 18H23V20H25C25.5523 20 26 20.4477 26 21C26 21.5523 25.5523 22 25 22H23V24C23 24.5523 22.5523 25 22 25C21.4477 25 21 24.5523 21 24V21V17Z" fill="#B2B8BF"/>
</svg>
