<svg width="20" height="20" viewBox="0 0 20 20" fill="none" xmlns="http://www.w3.org/2000/svg">
<path fill-rule="evenodd" clip-rule="evenodd" d="M16 3L16 10H15.0704C14.0673 10 13.1306 10.5013 12.5742 11.3359L12.4962 11.453C11.3087 13.2342 8.69132 13.2342 7.50385 11.453L7.42578 11.3359C6.86939 10.5013 5.93269 10 4.92963 10H3C1.34315 10 0 11.3431 0 13V17C0 18.6569 1.34315 20 3 20H17C18.6569 20 20 18.6569 20 17V13C20 11.6938 19.1652 10.5825 18 10.1707V3C18 1.34315 16.6569 0 15 0H5C3.34315 0 2 1.34314 2 3L2 8C2 8.55228 2.44772 9 3 9C3.55229 9 4 8.55228 4 8L4 3C4 2.44771 4.44772 2 5 2L15 2C15.5523 2 16 2.44771 16 3ZM17 12H15.0704C14.736 12 14.4238 12.1671 14.2383 12.4453L14.1603 12.5624C12.1811 15.5311 7.81886 15.5311 5.83975 12.5624L5.76168 12.4453C5.57622 12.1671 5.26399 12 4.92963 12H3C2.44772 12 2 12.4477 2 13V17C2 17.5523 2.44772 18 3 18H17C17.5523 18 18 17.5523 18 17V13C18 12.4477 17.5523 12 17 12Z" fill="#7D838A"/>
<path d="M14 5C14 5.55228 13.5523 6 13 6L7 6C6.44772 6 6 5.55228 6 5C6 4.44771 6.44772 4 7 4L13 4C13.5523 4 14 4.44772 14 5Z" fill="#7D838A"/>
<path d="M12 10C12.5523 10 13 9.55229 13 9C13 8.44771 12.5523 8 12 8L10 8C9.44772 8 9 8.44771 9 9C9 9.55228 9.44772 10 10 10H12Z" fill="#7D838A"/>
</svg>
