<svg width="16" height="16" viewBox="0 0 16 16" fill="none" xmlns="http://www.w3.org/2000/svg">
<path fill-rule="evenodd" clip-rule="evenodd" d="M4 7V8C4 8.55 3.56 9 3 9C2.43 9 2 8.55 2 8V7H1C0.43 7 0 6.55 0 6C0 5.44 0.43 5 1 5H2V4C2 3.44 2.43 3 3 3C3.56 3 4 3.44 4 4V5H5C5.56 5 6 5.44 6 6C6 6.55 5.56 7 5 7H4ZM12.68 6.33C12.65 6.49 12.6 6.66 12.53 6.82C12.46 6.97 12.38 7.12 12.29 7.26C12.19 7.42 12.07 7.56 11.94 7.69C11.81 7.82 11.67 7.94 11.51 8.04C11.37 8.13 11.22 8.21 11.07 8.28C10.91 8.35 10.74 8.4 10.58 8.43C10.39 8.47 10.19 8.5 10 8.5C9.8 8.5 9.6 8.47 9.41 8.43C9.25 8.4 9.08 8.35 8.92 8.28C8.77 8.21 8.62 8.13 8.48 8.04C8.32 7.94 8.18 7.82 8.05 7.69C7.92 7.56 7.8 7.42 7.7 7.26C7.61 7.12 7.53 6.97 7.46 6.82C7.39 6.66 7.34 6.49 7.31 6.33C7.27 6.14 7.25 5.94 7.25 5.75C7.25 5.55 7.27 5.35 7.31 5.16C7.34 5 7.39 4.83 7.46 4.67C7.53 4.52 7.61 4.37 7.7 4.23C7.8 4.07 7.92 3.93 8.05 3.8C8.18 3.67 8.32 3.55 8.48 3.45C8.62 3.36 8.77 3.28 8.92 3.21C9.08 3.14 9.25 3.09 9.41 3.06C9.6 3.02 9.8 3 10 3C10.19 3 10.39 3.02 10.58 3.06C10.74 3.09 10.91 3.14 11.07 3.21C11.22 3.28 11.37 3.36 11.51 3.45C11.67 3.55 11.81 3.67 11.94 3.8C12.07 3.93 12.19 4.07 12.29 4.23C12.38 4.37 12.46 4.52 12.53 4.67C12.6 4.83 12.65 5 12.68 5.16C12.72 5.35 12.75 5.55 12.75 5.75C12.75 5.94 12.72 6.14 12.68 6.33ZM10.75 5.75C10.75 5.64 10.73 5.55 10.69 5.46C10.65 5.37 10.6 5.29 10.53 5.21C10.45 5.14 10.37 5.09 10.28 5.05C10.19 5.01 10.1 5 10 5C9.89 5 9.8 5.01 9.71 5.05C9.62 5.09 9.54 5.14 9.46 5.21C9.39 5.29 9.34 5.37 9.3 5.46C9.26 5.55 9.25 5.64 9.25 5.75C9.25 5.85 9.26 5.94 9.3 6.03C9.34 6.12 9.39 6.2 9.46 6.28C9.54 6.35 9.62 6.4 9.71 6.44C9.8 6.48 9.89 6.5 10 6.5C10.1 6.5 10.19 6.48 10.28 6.44C10.37 6.4 10.45 6.35 10.53 6.28C10.6 6.2 10.65 6.12 10.69 6.03C10.73 5.94 10.75 5.85 10.75 5.75ZM5.05 11.65C5.01 11.84 5 12.03 5 12.23C5 12.79 5.43 13.23 6 13.23C6.56 13.23 7 12.79 7 12.23C7 12.03 7.07 11.79 7.19 11.6C7.31 11.41 7.47 11.24 7.67 11.09C7.97 11.24 8.29 11.36 8.63 11.46C8.69 11.47 8.75 11.49 8.81 11.5C9.18 11.58 9.57 11.62 9.96 11.62C10.37 11.62 10.77 11.58 11.16 11.49C11.21 11.48 11.26 11.46 11.31 11.45C11.66 11.36 11.99 11.23 12.29 11.07C12.5 11.22 12.67 11.4 12.79 11.59C12.92 11.78 12.98 11.98 12.99 12.18C12.99 12.74 13.43 13.23 14 13.23C14.56 13.23 15 12.79 15 12.23C15 12.02 14.98 11.82 14.94 11.63C14.86 11.24 14.7 10.86 14.47 10.5C14.14 10 13.69 9.57 13.12 9.22C13.03 9.16 12.94 9.12 12.85 9.09C12.67 9.03 12.49 8.99 12.3 9C12.1 9 11.92 9.03 11.75 9.09C11.65 9.13 11.56 9.17 11.48 9.23C11.28 9.35 11.05 9.45 10.79 9.52C10.53 9.59 10.25 9.62 9.96 9.62C9.68 9.62 9.4 9.59 9.14 9.52C8.89 9.45 8.66 9.36 8.46 9.24C8.38 9.19 8.28 9.14 8.19 9.11C8.02 9.05 7.83 9.02 7.64 9.02C7.45 9.02 7.27 9.05 7.1 9.11C7 9.15 6.91 9.19 6.82 9.25C6.26 9.6 5.82 10.02 5.51 10.52C5.28 10.88 5.13 11.26 5.05 11.65Z" fill="#E4E8EB"/>
</svg>
