<svg width="32" height="32" viewBox="0 0 32 32" fill="none" xmlns="http://www.w3.org/2000/svg">
<path d="M8.65422 11.7616C8.84176 11.5741 9.09611 11.4688 9.36133 11.4688H13.7523C14.3045 11.4688 14.7523 11.9165 14.7523 12.4688C14.7523 13.021 14.3045 13.4688 13.7523 13.4688H10.3613V14.7619H11.5568C12.1091 14.7619 12.5568 15.2097 12.5568 15.7619C12.5568 16.3142 12.1091 16.7619 11.5568 16.7619H10.3613V18.0551H13.7523C14.3045 18.0551 14.7523 18.5029 14.7523 19.0551C14.7523 19.6074 14.3045 20.0551 13.7523 20.0551H9.36133C8.80904 20.0551 8.36133 19.6074 8.36133 19.0551V12.4688C8.36133 12.2035 8.46668 11.9492 8.65422 11.7616Z" fill="#7D838A"/>
<path d="M17.8131 11.8286C17.5436 11.5052 17.1004 11.3852 16.7045 11.5285C16.3086 11.6719 16.0449 12.0478 16.0449 12.4688V19.0552C16.0449 19.6075 16.4926 20.0552 17.0449 20.0552C17.5972 20.0552 18.0449 19.6075 18.0449 19.0552V15.2309L21.7654 19.6954C22.0349 20.0188 22.4781 20.1388 22.874 19.9955C23.2699 19.8521 23.5336 19.4762 23.5336 19.0552V12.4688C23.5336 11.9165 23.0859 11.4688 22.5336 11.4688C21.9813 11.4688 21.5336 11.9165 21.5336 12.4688V16.2931L17.8131 11.8286Z" fill="#7D838A"/>
<path fill-rule="evenodd" clip-rule="evenodd" d="M6.0625 5.5625C4.40565 5.5625 3.0625 6.90565 3.0625 8.5625V23.5C3.0625 25.1569 4.40565 26.5 6.0625 26.5H25.875C27.5319 26.5 28.875 25.1569 28.875 23.5V8.5625C28.875 6.90565 27.5319 5.5625 25.875 5.5625H6.0625ZM25.875 7.5625H6.0625C5.51022 7.5625 5.0625 8.01022 5.0625 8.5625V23.5C5.0625 24.0523 5.51022 24.5 6.0625 24.5H25.875C26.4273 24.5 26.875 24.0523 26.875 23.5V8.5625C26.875 8.01021 26.4273 7.5625 25.875 7.5625Z" fill="#7D838A"/>
</svg>
