<svg width="20" height="20" viewBox="0 0 20 20" fill="none" xmlns="http://www.w3.org/2000/svg">
<path d="M5.62473 6.21917C5.19347 5.87416 4.56418 5.94408 4.21917 6.37534C3.87416 6.8066 3.94408 7.4359 4.37534 7.78091L8.12595 10.7814C9.22161 11.6579 10.7785 11.6579 11.8741 10.7814L15.6247 7.78091C16.056 7.4359 16.1259 6.8066 15.7809 6.37534C15.4359 5.94408 14.8066 5.87416 14.3753 6.21917L10.6247 9.21966C10.2595 9.51183 9.74056 9.51183 9.37534 9.21966L5.62473 6.21917Z" fill="#E4E8EB"/>
<path fill-rule="evenodd" clip-rule="evenodd" d="M3 2C1.34315 2 0 3.34315 0 5V15C0 16.6569 1.34315 18 3 18H17C18.6569 18 20 16.6569 20 15V5C20 3.34315 18.6569 2 17 2H3ZM2 5C2 4.44772 2.44772 4 3 4H17C17.5523 4 18 4.44772 18 5V15C18 15.5523 17.5523 16 17 16H3C2.44772 16 2 15.5523 2 15V5Z" fill="#E4E8EB"/>
</svg>
