<svg width="32" height="32" viewBox="0 0 32 32" fill="none" xmlns="http://www.w3.org/2000/svg">
<path fill-rule="evenodd" clip-rule="evenodd" d="M23 17C23 20.866 19.866 24 16 24C12.134 24 9 20.866 9 17C9 13.134 12.134 10 16 10C19.866 10 23 13.134 23 17ZM21 17C21 19.7614 18.7614 22 16 22C13.2386 22 11 19.7614 11 17C11 14.2386 13.2386 12 16 12C18.7614 12 21 14.2386 21 17Z" fill="#B2B8BF"/>
<path fill-rule="evenodd" clip-rule="evenodd" d="M12.1773 4C11.6019 4 11.0773 4.3291 10.8268 4.8471L9.46364 7.66667H5C3.34314 7.66667 2 9.00982 2 10.6667V25C2 26.6569 3.34315 28 5 28H27C28.6569 28 30 26.6569 30 25V10.6667C30 9.00981 28.6569 7.66667 27 7.66667H22.5364L21.1732 4.8471C20.9227 4.3291 20.3981 4 19.8227 4H12.1773ZM11.1277 8.81957L12.4909 6H19.5091L20.8723 8.81957C21.1227 9.33756 21.6474 9.66667 22.2227 9.66667H27C27.5523 9.66667 28 10.1144 28 10.6667V25C28 25.5523 27.5523 26 27 26H5C4.44772 26 4 25.5523 4 25V10.6667C4 10.1144 4.44772 9.66667 5 9.66667H9.77727C10.3526 9.66667 10.8773 9.33756 11.1277 8.81957Z" fill="#B2B8BF"/>
</svg>
