<svg width="20" height="20" viewBox="0 0 20 20" fill="none" xmlns="http://www.w3.org/2000/svg">
<path fill-rule="evenodd" clip-rule="evenodd" d="M15.8792 2.20798C16.6291 1.78053 17.5888 1.89292 18.2071 2.48018C18.8256 3.06767 18.9435 3.97952 18.4937 4.69177L18.4937 4.69178L16.0706 8.52833L17.8539 15.305C18.0112 15.9027 17.8269 16.535 17.3683 16.9706C16.596 17.7043 15.3256 17.6441 14.6339 16.841L11.3191 12.9922L9.00001 14.5659V16.927C9.00001 17.1789 8.89465 17.4206 8.70711 17.5987L7.70711 18.5487C7.48937 18.7556 7.18345 18.8556 6.87782 18.8199C6.5722 18.7841 6.30095 18.6166 6.14251 18.3658L4.70585 16.091L3.87995 15.3064L1.48551 13.9416C1.22146 13.7911 1.04512 13.5334 1.0075 13.2431C0.969876 12.9527 1.07516 12.6621 1.2929 12.4552L2.2929 11.5052C2.48044 11.3271 2.73479 11.227 3.00001 11.227H5.48539L7.1419 9.02383L3.09048 5.87477C2.24511 5.21769 2.18175 4.01083 2.9541 3.27709C3.41267 2.84145 4.07822 2.66633 4.70737 2.81575L11.8407 4.50992L15.8792 2.20801C15.8792 2.208 15.8792 2.20799 15.8792 2.20798ZM16.5845 4.02171L12.5145 6.34161C12.2871 6.47124 12.0148 6.50973 11.7575 6.44862L4.8882 4.81717L9.13325 8.11673C9.54103 8.43369 9.61999 8.99686 9.31374 9.40417L6.81374 12.7292C6.62603 12.9788 6.32296 13.127 6.00001 13.127H3.94366L5.0145 13.7374C5.08461 13.7773 5.1493 13.8253 5.20711 13.8802L6.20711 14.8302C6.26493 14.8852 6.31543 14.9466 6.3575 15.0132L7.00001 16.0305V14.077C7.00001 13.7702 7.15597 13.4823 7.41877 13.3039L10.9188 10.9289C11.3475 10.638 11.9403 10.713 12.274 11.1004L15.7472 15.1332L14.0299 8.6074C13.9655 8.36296 14.0061 8.10427 14.1425 7.88822L16.5845 4.02171ZM16.9081 3.83728L16.9082 3.83722L16.9081 3.83728Z" fill="#B2B8BF"/>
</svg>
