<svg width="20" height="20" viewBox="0 0 20 20" fill="none" xmlns="http://www.w3.org/2000/svg">
<path d="M15 6C15 5.44772 14.5523 5 14 5C13.4477 5 13 5.44772 13 6V13.4194L12.1247 12.7192C11.6935 12.3742 11.0642 12.4441 10.7192 12.8753C10.3742 13.3066 10.4441 13.9359 10.8753 14.2809L13.3753 16.2809C13.7406 16.5731 14.2595 16.5731 14.6247 16.2809L17.1247 14.2809C17.556 13.9359 17.6259 13.3066 17.2809 12.8753C16.9359 12.4441 16.3066 12.3742 15.8753 12.7192L15 13.4194V6Z" fill="#E4E8EB"/>
<path d="M7 14C7 14.5523 6.55228 15 6 15C5.44772 15 5 14.5523 5 14V6.58065L4.12473 7.28087C3.69347 7.62588 3.06418 7.55596 2.71917 7.12469C2.37416 6.69343 2.44408 6.06414 2.87534 5.71913L5.37534 3.71913C5.74056 3.42696 6.25951 3.42696 6.62473 3.71913L9.12473 5.71913C9.55599 6.06414 9.62592 6.69343 9.28091 7.12469C8.9359 7.55596 8.3066 7.62588 7.87534 7.28087L7 6.58059V14Z" fill="#E4E8EB"/>
</svg>
