<svg width="20" height="20" viewBox="0 0 20 20" fill="none" xmlns="http://www.w3.org/2000/svg">
<path fill-rule="evenodd" clip-rule="evenodd" d="M4 2C4 0.89543 4.89543 0 6 0H14C15.1046 0 16 0.89543 16 2V4H17C18.6569 4 20 5.34315 20 7V14C20 14.5523 19.5523 15 19 15C18.4477 15 18 14.5523 18 14V7C18 6.44772 17.5523 6 17 6H3C2.44772 6 2 6.44772 2 7V14C2 14.5523 1.55228 15 1 15C0.447715 15 0 14.5523 0 14V7C0 5.34315 1.34315 4 3 4H4V2ZM14 2V4H6V2H14Z" fill="#E4E8EB"/>
<path fill-rule="evenodd" clip-rule="evenodd" d="M6 12C4.89543 12 4 12.8954 4 14V18C4 19.1046 4.89543 20 6 20H14C15.1046 20 16 19.1046 16 18V14C16 12.8954 15.1046 12 14 12H6ZM6 14H14V18H6V14Z" fill="#E4E8EB"/>
<path d="M6 9C6 9.55229 5.55228 10 5 10C4.44772 10 4 9.55229 4 9C4 8.44771 4.44772 8 5 8C5.55228 8 6 8.44771 6 9Z" fill="#E4E8EB"/>
</svg>
