<svg width="20" height="20" viewBox="0 0 20 20" fill="none" xmlns="http://www.w3.org/2000/svg">
<path d="M12.6319 3.66406C12.0859 3.66406 11.7703 3.906 10.6748 4.99971L10.672 5.0025L5.73943 9.88828C5.26386 10.3643 5.00003 10.9974 5.00003 11.67C5.00003 12.149 5.00274 12.5533 5.13208 12.9964C5.25588 13.4205 5.51428 13.9328 6.11146 14.5291C6.7132 15.1298 7.221 15.3897 7.63692 15.5142C8.06995 15.6439 8.46504 15.6487 8.94045 15.6487C9.59136 15.6487 10.2146 15.3759 10.7084 14.8824L10.7173 14.8735L15.2728 10.4342C15.6683 10.0487 16.3014 10.0569 16.6869 10.4524C17.0724 10.848 17.0642 11.4811 16.6687 11.8665L12.1175 16.3018C11.2862 17.1303 10.1695 17.6487 8.94045 17.6487L8.91155 17.6487C8.4474 17.6488 7.79386 17.6489 7.06326 17.4302C6.30025 17.2017 5.51086 16.7556 4.69838 15.9444C3.88135 15.1287 3.43731 14.328 3.21221 13.5568C2.99947 12.8281 2.99979 12.1735 3.00001 11.7136L3.00003 11.67C3.00003 10.4622 3.47798 9.32079 4.32706 8.47222L4.33022 8.46907L9.26314 3.58295L9.3868 3.45921C10.2876 2.55677 11.1787 1.66406 12.6319 1.66406C13.5357 1.66406 14.6907 2.02706 15.5886 2.9236C16.485 3.81846 16.8562 4.97599 16.8562 5.88316C16.8562 7.34094 15.8597 8.33273 14.9332 9.25478L14.358 9.82234C14.0113 10.1644 13.5421 10.6274 13.0525 11.1109C12.0717 12.0793 11.0126 13.1259 10.686 13.452C9.57838 14.5578 8.00634 14.3053 7.14384 13.4442C6.25823 12.56 6.07498 11.0111 7.16042 9.92746C7.48984 9.59856 7.92558 9.16678 8.35404 8.74224L8.37444 8.72203L8.37463 8.72184C8.79699 8.30335 9.2104 7.89373 9.5104 7.59421C9.90124 7.204 10.5344 7.20451 10.9246 7.59535C11.3148 7.98619 11.3143 8.61936 10.9235 9.00957C10.621 9.31154 10.2059 9.72289 9.78565 10.1392L9.78466 10.1402L9.76173 10.1629C9.33237 10.5884 8.89965 11.0172 8.57349 11.3428C8.4406 11.4755 8.40916 11.6009 8.41213 11.702C8.41551 11.8174 8.46612 11.9382 8.55692 12.0288C8.65114 12.1229 8.78456 12.1819 8.91385 12.1877C9.02608 12.1928 9.14914 12.1602 9.27297 12.0366C9.60452 11.7056 10.669 10.6537 11.6473 9.68773C12.1371 9.20404 12.6064 8.74091 12.9532 8.3987L13.5223 7.83728C14.6364 6.72482 14.8562 6.43303 14.8562 5.88316C14.8562 5.46559 14.6678 4.83039 14.1756 4.33895C13.685 3.8492 13.0535 3.66406 12.6319 3.66406Z" fill="#B2B8BF"/>
</svg>
