<svg width="20" height="20" viewBox="0 0 20 20" fill="none" xmlns="http://www.w3.org/2000/svg">
<path d="M18.4603 6.23729C18.951 6.49081 19.1432 7.09409 18.8897 7.58475C18.4221 8.4896 17.8202 9.31415 17.1103 10.0319L17.9934 11.1003C18.3453 11.526 18.2854 12.1563 17.8597 12.5082C17.434 12.86 16.8037 12.8002 16.4519 12.3745L15.5694 11.3069C14.9324 11.7348 14.2434 12.0914 13.5139 12.3653L13.9293 13.9349C14.0707 14.4688 13.7524 15.0162 13.2185 15.1575C12.6846 15.2988 12.1373 14.9806 11.9959 14.4467L11.5801 12.8759C11.0656 12.9576 10.538 13 10.0005 13C9.4626 13 8.93468 12.9575 8.41988 12.8758L8.00406 14.4466C7.86273 14.9805 7.31536 15.2988 6.78146 15.1574C6.24756 15.0161 5.92932 14.4687 6.07065 13.9348L6.48621 12.365C5.75678 12.0911 5.0679 11.7344 4.43099 11.3065L3.54815 12.3746C3.19628 12.8003 2.56595 12.8601 2.14027 12.5083C1.71458 12.1564 1.65473 11.5261 2.00659 11.1004L2.89019 10.0314C2.18075 9.31408 1.57922 8.49007 1.11185 7.58585C0.858268 7.09522 1.05042 6.49192 1.54105 6.23834C2.03167 5.98475 2.63498 6.17691 2.88856 6.66753C4.21975 9.24303 6.90577 11 10.0005 11C13.0955 11 15.7818 9.24263 17.1128 6.66665C17.3664 6.17599 17.9696 5.98376 18.4603 6.23729Z" fill="#D0D7DD"/>
</svg>
