<svg width="32" height="32" viewBox="0 0 32 32" fill="none" xmlns="http://www.w3.org/2000/svg">
<path fill-rule="evenodd" clip-rule="evenodd" d="M27.7071 4.70711C28.0976 4.31658 28.0976 3.68342 27.7071 3.29289C27.3166 2.90237 26.6834 2.90237 26.2929 3.29289L23.0419 6.54389C21.6035 5.56957 19.8672 5 18 5H13C8.02944 5 4 9.02944 4 14C4 17.1479 5.61623 19.9169 8.06104 21.5247L4.29289 25.2929C3.90237 25.6834 3.90237 26.3166 4.29289 26.7071C4.68342 27.0976 5.31658 27.0976 5.70711 26.7071L27.7071 4.70711ZM9.51398 20.0718L21.5941 7.99169C20.5437 7.3618 19.315 7 18 7H13C9.13401 7 6 10.134 6 14C6 16.5953 7.41229 18.8624 9.51398 20.0718Z" fill="#B2B8BF"/>
<path d="M26.3454 10.6248C26.1382 10.1129 25.5552 9.86584 25.0433 10.0731C24.5313 10.2803 24.2843 10.8633 24.4915 11.3752C24.8191 12.1845 25 13.0699 25 14C25 16.2101 23.9769 18.1806 22.3745 19.4651C22.1378 19.6549 22 19.9419 22 20.2454V24.7394L18.1727 21.2601C17.9886 21.0927 17.7488 21 17.5 21H14C13.4477 21 13 21.4477 13 22C13 22.5523 13.4477 23 14 23H17.1134L22.3273 27.7399C22.6202 28.0062 23.0426 28.0746 23.4046 27.9145C23.7665 27.7544 24 27.3958 24 27V20.7083C25.8398 19.0616 27 16.666 27 14C27 12.8083 26.7679 11.6684 26.3454 10.6248Z" fill="#B2B8BF"/>
</svg>
