<svg width="16" height="17" viewBox="0 0 16 17" fill="none" xmlns="http://www.w3.org/2000/svg">
<g clip-path="url(#clip0_33908_1032)">
<path d="M10.6319 2.04016C10.0859 2.04016 9.77028 2.28696 8.67481 3.40263L8.67201 3.40548L3.73943 8.38937C3.26386 8.87494 3.00003 9.52073 3.00003 10.2069C3.00003 10.6955 3.00274 11.1079 3.13208 11.5599C3.25588 11.9925 3.51428 12.5152 4.11146 13.1233C4.7132 13.7362 5.221 14.0012 5.63692 14.1283C6.06995 14.2605 6.46504 14.2654 6.94045 14.2654C7.59136 14.2654 8.21464 13.9872 8.70844 13.4838L8.71735 13.4747L13.2728 8.94625C13.6683 8.55306 14.3014 8.56139 14.6869 8.96486C15.0724 9.36833 15.0642 10.0142 14.6687 10.4074L10.1175 14.9316C9.28624 15.7768 8.16949 16.3056 6.94045 16.3056L6.91155 16.3056C6.4474 16.3057 5.79386 16.3058 5.06326 16.0827C4.30025 15.8497 3.51086 15.3946 2.69838 14.5671C1.88135 13.735 1.43731 12.9182 1.21221 12.1316C0.99947 11.3882 0.99979 10.7204 1.00001 10.2514L1.00003 10.2069C1.00003 8.97486 1.47798 7.81048 2.32706 6.94487L2.33022 6.94165L7.26314 1.95742L7.3868 1.83119C8.28758 0.910634 9.17865 0 10.6319 0C11.5357 0 12.6907 0.370287 13.5886 1.28483C14.485 2.19766 14.8562 3.37843 14.8562 4.30382C14.8562 5.79088 13.8597 6.80258 12.9332 7.74314L12.358 8.3221C12.0113 8.67107 11.5421 9.14334 11.0525 9.63653C10.0717 10.6243 9.01258 11.692 8.68604 12.0246C7.57838 13.1527 6.00634 12.8951 5.14384 12.0167C4.25823 11.1147 4.07498 9.53478 5.16042 8.42933C5.48984 8.09383 5.92558 7.65337 6.35404 7.22031L6.37444 7.19969C6.79687 6.77273 7.21036 6.3548 7.5104 6.04923C7.90124 5.65119 8.5344 5.65171 8.92461 6.0504C9.31482 6.44908 9.31431 7.09496 8.92347 7.49301C8.62082 7.80124 8.20534 8.22118 7.78486 8.64618L7.78466 8.64637L7.76173 8.66955C7.33237 9.10352 6.89965 9.54093 6.57349 9.8731C6.4406 10.0084 6.40916 10.1364 6.41213 10.2395C6.41551 10.3572 6.46612 10.4804 6.55692 10.5729C6.65114 10.6688 6.78456 10.729 6.91385 10.735C7.02608 10.7402 7.14914 10.7069 7.27297 10.5808C7.60452 10.2432 8.66896 9.17014 9.64727 8.18478C10.1371 7.69139 10.6064 7.21895 10.9532 6.86988L11.5223 6.29715C12.6364 5.16238 12.8562 4.86473 12.8562 4.30382C12.8562 3.87787 12.6678 3.22991 12.1756 2.72861C11.685 2.22901 11.0535 2.04016 10.6319 2.04016Z" fill="#B2B8BF"/>
</g>
<defs>
<clipPath id="clip0_33908_1032">
<rect width="16" height="16.3213" fill="white"/>
</clipPath>
</defs>
</svg>
