<svg width="20" height="19" viewBox="0 0 20 19" fill="none" xmlns="http://www.w3.org/2000/svg">
<path d="M8 0C7.44772 0 7 0.425329 7 0.95C7 1.47467 7.44772 1.9 8 1.9H12C12.5523 1.9 13 1.47467 13 0.95C13 0.425329 12.5523 0 12 0H8Z" fill="#7D838A"/>
<path d="M8 7.6C8.55228 7.6 9 8.02533 9 8.55V14.25C9 14.7747 8.55228 15.2 8 15.2C7.44772 15.2 7 14.7747 7 14.25V8.55C7 8.02533 7.44772 7.6 8 7.6Z" fill="#7D838A"/>
<path d="M13 8.55C13 8.02533 12.5523 7.6 12 7.6C11.4477 7.6 11 8.02533 11 8.55V14.25C11 14.7747 11.4477 15.2 12 15.2C12.5523 15.2 13 14.7747 13 14.25V8.55Z" fill="#7D838A"/>
<path fill-rule="evenodd" clip-rule="evenodd" d="M1 4.75C1 4.22533 1.44772 3.8 2 3.8H18C18.5523 3.8 19 4.22533 19 4.75C19 5.27467 18.5523 5.7 18 5.7H17V16.15C17 17.724 15.6569 19 14 19H6C4.34315 19 3 17.724 3 16.15V5.7H2C1.44772 5.7 1 5.27467 1 4.75ZM5 5.7H15V16.15C15 16.6747 14.5523 17.1 14 17.1H6C5.44772 17.1 5 16.6747 5 16.15V5.7Z" fill="#7D838A"/>
</svg>
