<svg width="100" height="100" viewBox="0 0 100 100" fill="none" xmlns="http://www.w3.org/2000/svg">
<path d="M57.4864 35.808C57.8769 36.1986 57.8769 36.8317 57.4864 37.2222L56.9891 37.7195C57.0464 37.8249 57.1205 37.9649 57.2062 38.1355C57.4055 38.5322 57.6695 39.0976 57.9332 39.7818C58.4563 41.1388 59.0002 43.018 59.0002 45.0002C59.0002 46.9825 58.4563 48.8617 57.9332 50.2187C57.6695 50.9029 57.4055 51.4683 57.2062 51.865C57.1064 52.0636 57.0224 52.2207 56.9623 52.3301C56.9322 52.3848 56.908 52.4276 56.8907 52.4579L56.8701 52.4936L56.8639 52.5042L56.8611 52.5089C56.8611 52.5089 56.8606 52.5099 56.0002 52.0002L56.8606 52.5099C56.5791 52.9851 55.9657 53.1421 55.4905 52.8607C55.0157 52.5794 54.8585 51.9666 55.1392 51.4916L55.1398 51.4906L55.1417 51.4873L55.1545 51.465C55.1666 51.444 55.1853 51.4108 55.2099 51.3661C55.2591 51.2766 55.3314 51.1416 55.4191 50.9671C55.5948 50.6174 55.8308 50.1121 56.0671 49.4993C56.544 48.2621 57.0002 46.6413 57.0002 45.0002C57.0002 43.3592 56.544 41.7384 56.0671 40.5012C55.867 39.9822 55.6671 39.5403 55.5038 39.2048L53.2762 41.4324C53.2837 41.4493 53.2907 41.4664 53.2973 41.4839C53.6033 42.2916 54.0002 43.5996 54.0002 45.0002C54.0002 46.1846 53.7166 47.2991 53.4478 48.0962C53.3117 48.4996 53.1754 48.8334 53.0719 49.0688C53.02 49.1868 52.9761 49.2807 52.9442 49.347C52.9283 49.3801 52.9153 49.4065 52.9057 49.4255L52.8941 49.4485L52.8904 49.4558L52.8885 49.4595L52.0002 49.0002C52.8881 49.4603 52.8885 49.4595 52.8885 49.4595C52.6344 49.9498 52.0304 50.1422 51.5401 49.888C51.0502 49.6342 50.8586 49.0317 51.1116 48.5416L51.112 48.5407L51.1171 48.5305C51.1223 48.5203 51.1308 48.5031 51.1421 48.4795C51.1649 48.4322 51.1991 48.3592 51.241 48.2639C51.325 48.0728 51.4387 47.7948 51.5527 47.457C51.7838 46.7717 52.0002 45.8862 52.0002 45.0002C52.0002 44.3015 51.8658 43.6057 51.6976 43.011L48.7601 45.9485C48.8722 46.1101 48.9378 46.3063 48.9378 46.5178V51.8172C48.9378 52.9217 48.0424 53.8172 46.9378 53.8172C46.3994 53.8172 45.8837 53.6001 45.5074 53.215L43.5237 51.185L41.224 53.4847C41.224 53.4847 41.2233 53.4854 40.5162 52.7783L39.8092 52.071L56.0722 35.808C56.4627 35.4175 57.0959 35.4175 57.4864 35.808Z" fill="white"/>
<path d="M39.8092 52.071C39.4187 52.4615 39.4185 53.0948 39.8091 53.4854C40.1996 53.8759 40.8328 53.8759 41.2233 53.4854L40.5162 52.7783C39.8091 52.0712 39.8092 52.071 39.8092 52.071Z" fill="white"/>
<path d="M49 38.9824C49 37.1956 46.8355 36.3055 45.5785 37.5755L43.1041 40.0755C43.0062 40.1744 42.8888 40.2517 42.7594 40.3026L40.9018 41.0334C39.7544 41.4847 39 42.5922 39 43.8252V48.0001C39 48.4046 39.2436 48.7692 39.6173 48.924C39.991 49.0788 40.4211 48.9932 40.7071 48.7072L48.7071 40.7072C48.8946 40.5197 49 40.2653 49 40.0001V38.9824Z" fill="white"/>
</svg>
