<svg width="20" height="20" viewBox="0 0 20 20" fill="none" xmlns="http://www.w3.org/2000/svg">
<path d="M5.00004 2C4.44775 2 4.00004 2.44772 4.00004 3V5.5C4.00004 6.05228 3.55232 6.5 3.00004 6.5C2.44775 6.5 2.00004 6.05228 2.00004 5.5V3C2.00004 1.34315 3.34318 0 5.00004 0H15C16.6569 0 18 1.34315 18 3V5.5C18 6.05228 17.5523 6.5 17 6.5C16.4478 6.5 16 6.05228 16 5.5V3C16 2.44772 15.5523 2 15 2H5.00004Z" fill="#B2B8BF"/>
<path d="M14 13C14 13.5523 13.5523 14 13 14C12.4477 14 12 13.5523 12 13C12 12.4477 12.4477 12 13 12C13.5523 12 14 12.4477 14 13Z" fill="#B2B8BF"/>
<path d="M7 14C7.55228 14 8 13.5523 8 13C8 12.4477 7.55228 12 7 12C6.44772 12 6 12.4477 6 13C6 13.5523 6.44772 14 7 14Z" fill="#B2B8BF"/>
<path fill-rule="evenodd" clip-rule="evenodd" d="M10.7937 19.6086C10.7456 19.6713 10.6892 19.7293 10.6247 19.7809C10.1934 20.1259 9.56414 20.0559 9.21913 19.6247C7.85631 17.9212 6.4744 17.4238 5.01545 16.8987C4.55085 16.7314 4.07845 16.5614 3.59636 16.3487C2.60389 15.9109 1.64239 15.2838 0.968686 14.0658C0.319076 12.8913 0 11.2794 0 9C0 8.44772 0.447711 8 0.999992 8H9V4.5C9 3.94772 9.44771 3.5 10 3.5C10.5523 3.5 11 3.94772 11 4.5V8H19C19.5523 8 20 8.44772 20 9C20 11.2794 19.6809 12.8913 19.0313 14.0658C18.3576 15.2838 17.3961 15.9109 16.4036 16.3487C15.9216 16.5614 15.4491 16.7314 14.9845 16.8987C13.5302 17.4221 12.1524 17.918 10.7937 19.6086ZM2.02499 10C2.10587 11.5288 2.37533 12.4768 2.71881 13.0978C3.10761 13.8007 3.64611 14.1847 4.40364 14.5189C4.7113 14.6546 5.06775 14.781 5.45902 14.9196C6.27192 15.2077 7.36191 15.6248 8.22319 16.1387C8.8155 16.4921 9.41677 16.9347 10 17.5085C11.5562 15.9775 13.2408 15.3804 14.541 14.9196C14.9322 14.781 15.2887 14.6546 15.5964 14.5189C16.3539 14.1847 16.8924 13.8007 17.2812 13.0978C17.6247 12.4768 17.8941 11.5288 17.975 10H2.02499Z" fill="#B2B8BF"/>
</svg>
