<svg width="64" height="64" viewBox="0 0 64 64" fill="none" xmlns="http://www.w3.org/2000/svg">
<path d="M50 11C51.6569 11 53 12.3431 53 14V26C53 26.5523 53.4477 27 54 27C54.5523 27 55 26.5523 55 26V14C55 11.2386 52.7614 9 50 9H8C5.23857 9 3 11.2386 3 14V41C3 43.7614 5.23858 46 8 46H28.049C28.0463 46.0298 28.0449 46.0599 28.0449 46.0904V53H18C17.4477 53 17 53.4477 17 54C17 54.5523 17.4477 55 18 55H39C39.5523 55 40 54.5523 40 54C40 53.4477 39.5523 53 39 53H30.0449V46.0904C30.0449 46.0599 30.0436 46.0298 30.0409 46H40C40.5523 46 41 45.5523 41 45C41 44.4477 40.5523 44 40 44H8C6.34315 44 5 42.6569 5 41V14C5 12.3431 6.34315 11 8 11H50Z" fill="#B2B8BF"/>
<path fill-rule="evenodd" clip-rule="evenodd" d="M12 15C10.3431 15 9 16.3431 9 18V24C9 25.6569 10.3431 27 12 27H18C19.6569 27 21 25.6569 21 24V18C21 16.3431 19.6569 15 18 15H12ZM11 18C11 17.4477 11.4477 17 12 17H18C18.5523 17 19 17.4477 19 18V24C19 24.5523 18.5523 25 18 25H12C11.4477 25 11 24.5523 11 24V18Z" fill="#B2B8BF"/>
<path d="M50.5 48C49.9477 48 49.5 48.4477 49.5 49C49.5 49.5523 49.9477 50 50.5 50H54.5C55.0523 50 55.5 49.5523 55.5 49C55.5 48.4477 55.0523 48 54.5 48H50.5Z" fill="#B2B8BF"/>
<path fill-rule="evenodd" clip-rule="evenodd" d="M58 55C59.6569 55 61 53.6569 61 52V33C61 31.3431 59.6569 30 58 30H55.5834C55.0764 30 54.6038 30.256 54.3269 30.6806L53.8333 31.4375H51.1667L50.6731 30.6806C50.3962 30.256 49.9236 30 49.4166 30H47C45.3431 30 44 31.3431 44 33V52C44 53.6569 45.3431 55 47 55H58ZM58 32C58.5523 32 59 32.4477 59 33V52C59 52.5523 58.5523 53 58 53H47C46.4477 53 46 52.5523 46 52V33C46 32.4477 46.4477 32 47 32H49.1458L49.6394 32.7569C49.9163 33.1815 50.3889 33.4375 50.8959 33.4375H54.1042C54.6111 33.4375 55.0837 33.1815 55.3606 32.7569L55.8542 32H58Z" fill="#B2B8BF"/>
<path d="M26 16C26 15.4477 26.4477 15 27 15H47C47.5523 15 48 15.4477 48 16C48 16.5523 47.5523 17 47 17H27C26.4477 17 26 16.5523 26 16Z" fill="#B2B8BF"/>
<path d="M26 21C26 20.4477 26.4477 20 27 20H47C47.5523 20 48 20.4477 48 21C48 21.5523 47.5523 22 47 22H27C26.4477 22 26 21.5523 26 21Z" fill="#B2B8BF"/>
<path d="M26 26C26 25.4477 26.4477 25 27 25H41C41.5523 25 42 25.4477 42 26C42 26.5523 41.5523 27 41 27H27C26.4477 27 26 26.5523 26 26Z" fill="#B2B8BF"/>
</svg>
