<svg width="16" height="16" viewBox="0 0 16 16" fill="none" xmlns="http://www.w3.org/2000/svg">
<circle cx="8" cy="8" r="8" fill="#6CC6DA"/>
<path d="M8 3C8.3125 3 8.5 3.30194 8.5 3.5V3.8C10.233 4 11 5.53698 11 7.00001V9C11.5523 9 12 9.44772 12 10C12 10.5523 11.5523 11 11 11H9C9 11.5523 8.55228 12 8 12C7.44772 12 7 11.5523 7 11H5C4.44772 11 4 10.5523 4 10C4 9.44772 4.44772 9 5 9C4.99998 8.66486 5 8.60001 5 8.60001V7.00001C5 5.53698 6.03301 4 7.5 3.8V3.5C7.5 3.30194 7.6875 3 8 3Z" fill="white"/>
</svg>
