<svg width="32" height="32" viewBox="0 0 32 32" fill="none" xmlns="http://www.w3.org/2000/svg">
<path fill-rule="evenodd" clip-rule="evenodd" d="M25 5C27.2 5 29 6.79 29 9V23C29 25.2 27.2 27 25 27H7C4.79 27 3 25.2 3 23V9C3 6.79 4.79 5 7 5H25ZM27 9C27 7.89 26.1 7 25 7H7C5.89 7 5 7.89 5 9V23C5 24.1 5.89 25 7 25H25C26.1 25 27 24.1 27 23V9ZM9.5 10C8.67 10 8 10.67 8 11.5C8 12.32 8.67 13 9.5 13C10.32 13 11 12.32 11 11.5C11 10.67 10.32 10 9.5 10ZM19.22 12.98C18.62 12.15 17.37 12.15 16.77 12.98L12.18 19.41C11.86 19.86 11.96 20.49 12.41 20.81C12.86 21.13 13.49 21.03 13.81 20.58L18 14.72L22.18 20.58C22.5 21.03 23.13 21.13 23.58 20.81C24.03 20.49 24.13 19.86 23.81 19.41L19.22 12.98ZM13.06 16.08C13.38 15.63 13.28 15.01 12.83 14.68C12.38 14.36 11.76 14.46 11.43 14.91L8.18 19.41C7.86 19.86 7.96 20.48 8.41 20.81C8.86 21.13 9.48 21.03 9.81 20.58L13.06 16.08Z" fill="#D0D7DD"/>
</svg>
