<svg width="16" height="16" viewBox="0 0 16 16" fill="none" xmlns="http://www.w3.org/2000/svg">
<g clip-path="url(#clip0_49338_4667)">
<path d="M3.97768 4.82818C3.9397 4.85626 3.90185 4.88497 3.86413 4.9143C2.88045 5.67939 2.17299 6.73496 1.98077 7.696C1.87246 8.23756 1.34563 8.58877 0.80407 8.48046C0.262511 8.37214 -0.088702 7.84532 0.0196134 7.30376C0.327399 5.76488 1.36994 4.32051 2.63625 3.3356C3.74072 2.47657 5.15652 1.86126 6.58962 1.94221C7.53723 0.958213 8.87026 0.382765 10.24 0.196112C11.8179 -0.0188973 13.5509 0.264133 15.0145 1.14218C15.4881 1.4263 15.6417 2.04055 15.3576 2.51415C15.0735 2.98775 14.4592 3.14135 13.9856 2.85723C13.002 2.26712 11.8105 2.04124 10.6896 2.15636C10.7787 2.18351 10.8673 2.21249 10.9555 2.24335C12.4271 2.75827 13.8296 3.82542 14.4489 5.6839C14.6236 6.20786 14.3403 6.77416 13.8164 6.94876C13.2924 7.12336 12.7261 6.84016 12.5515 6.3162C12.1708 5.17383 11.3234 4.49098 10.295 4.13112C9.96767 4.01659 9.62879 3.93786 9.29246 3.88987C10.0561 4.83585 10.6309 5.89506 11.0176 7.14113C11.5954 9.00295 11.734 11.2213 11.5412 14H15C15.5523 14 16 14.4477 16 15C16 15.5523 15.5523 16 15 16H1C0.447715 16 0 15.5523 0 15C0 14.4477 0.447715 14 1 14H9.5361C9.73528 11.271 9.59053 9.29048 9.10746 7.73392C8.66886 6.32066 7.93508 5.20504 6.82245 4.1742C6.43475 4.45324 6.04485 4.98716 5.75155 5.78304C5.36582 6.82973 5.28025 7.996 5.47072 8.75694C5.60481 9.2927 5.2792 9.83573 4.74345 9.96982C4.20769 10.1039 3.66466 9.77831 3.53057 9.24255C3.22043 8.0035 3.38541 6.41977 3.87493 5.09146C3.90712 5.00411 3.94136 4.91623 3.97768 4.82818Z" fill="#E4E8EB"/>
</g>
<defs>
<clipPath id="clip0_49338_4667">
<rect width="16" height="16" fill="white"/>
</clipPath>
</defs>
</svg>
