<svg width="64" height="64" viewBox="0 0 64 64" fill="none" xmlns="http://www.w3.org/2000/svg">
<path fill-rule="evenodd" clip-rule="evenodd" d="M28 34C28 33.4477 28.4477 33 29 33H32C33.5129 33 34.6471 33.7773 35.3633 34.8515C36.0597 35.8961 36.375 37.2267 36.375 38.5C36.375 39.7733 36.0597 41.1039 35.3633 42.1484C34.6471 43.2227 33.5129 44 32 44H29C28.4477 44 28 43.5523 28 43V34ZM30 35V42H32C32.7371 42 33.2904 41.6523 33.6992 41.039C34.1278 40.3961 34.375 39.4767 34.375 38.5C34.375 37.5233 34.1278 36.6039 33.6992 35.961C33.2904 35.3477 32.7371 35 32 35H30Z" fill="#B2B8BF"/>
<path fill-rule="evenodd" clip-rule="evenodd" d="M20 33C19.4477 33 19 33.4477 19 34V43C19 43.5523 19.4477 44 20 44C20.5523 44 21 43.5523 21 43L21.0006 41H22.25C23.6079 41 24.7167 40.5413 25.4884 39.7696C26.2507 39.0073 26.625 37.9974 26.625 37C26.625 36.0026 26.2507 34.9927 25.4884 34.2304C24.7167 33.4587 23.6079 33 22.25 33H20ZM22.25 39H21.0006V35H22.25C23.1421 35 23.7208 35.2913 24.0741 35.6446C24.4368 36.0073 24.625 36.4974 24.625 37C24.625 37.5026 24.4368 37.9927 24.0741 38.3554C23.7208 38.7087 23.1421 39 22.25 39Z" fill="#B2B8BF"/>
<path d="M38 34C38 33.4477 38.4477 33 39 33H45C45.5523 33 46 33.4477 46 34C46 34.5523 45.5523 35 45 35H40V38H43.5C44.0523 38 44.5 38.4477 44.5 39C44.5 39.5523 44.0523 40 43.5 40H40V43C40 43.5523 39.5523 44 39 44C38.4477 44 38 43.5523 38 43V34Z" fill="#B2B8BF"/>
<path fill-rule="evenodd" clip-rule="evenodd" d="M50.9684 27.2496C50.989 27.3296 51 27.4135 51 27.5V48.3636C51 50.9147 48.95 53 46.4 53H17.6C15.05 53 13 50.9147 13 48.3636V15.6364C13 13.0853 15.05 11 17.6 11H35.9997C36.291 11 36.5536 11.1246 36.7363 11.3234L50.7311 26.3177C50.9665 26.57 51.0528 26.9224 50.9684 27.2496ZM35 13H17.6C16.1735 13 15 14.1708 15 15.6364V48.3636C15 49.8292 16.1735 51 17.6 51H46.4C47.8265 51 49 49.8292 49 48.3636V28H40C37.2386 28 35 25.7615 35 23V13ZM37 23V14.5371L47.6988 26H40C38.3431 26 37 24.6569 37 23Z" fill="#B2B8BF"/>
</svg>
