<svg width="24" height="24" viewBox="0 0 24 24" fill="none" xmlns="http://www.w3.org/2000/svg">
<path d="M12 2C6.47715 2 2 6.47715 2 12C2 17.5228 6.47715 22 12 22C17.1477 21.9999 21.3864 18.1111 21.9395 13.1104C22.0001 12.5615 21.6035 12.0667 21.0547 12.0059C20.506 11.9454 20.0121 12.3411 19.9512 12.8896C19.5091 16.8885 16.117 19.9999 12 20C7.58172 20 4 16.4183 4 12C4 7.58172 7.58172 4 12 4C12.9367 4.00003 13.8343 4.16076 14.667 4.45508C15.1874 4.63873 15.7582 4.36596 15.9424 3.8457C16.1263 3.32509 15.8535 2.75346 15.333 2.56934C14.2893 2.20045 13.1668 2.00003 12 2Z" fill="#565B62"/>
<path fill-rule="evenodd" clip-rule="evenodd" d="M10.5 7C9.94772 7 9.5 7.44772 9.5 8V11H9C8.44772 11 8 11.4477 8 12C8 12.5523 8.44772 13 9 13H9.5V13.5H9C8.44772 13.5 8 13.9477 8 14.5C8 15.0523 8.44772 15.5 9 15.5H9.5V16C9.5 16.5523 9.94772 17 10.5 17C11.0522 16.9999 11.5 16.5522 11.5 16V15.5H12C12.5522 15.4999 13 15.0522 13 14.5C13 13.9478 12.5522 13.5001 12 13.5H11.5V13H12.6562C13.746 13 14.5047 12.4665 14.9502 11.7959C15.3628 11.1747 15.4999 10.4582 15.5 9.9502V9.82715C15.5 9.36786 15.4132 8.66881 14.9736 8.06055C14.4918 7.39395 13.7065 7.00002 12.6562 7H10.5ZM12.6562 9C12.9266 9.00001 13.0869 9.04771 13.1768 9.08984C13.2622 9.13001 13.3141 9.1792 13.3525 9.23242C13.4444 9.35956 13.5 9.57403 13.5 9.82715V9.9502C13.4999 10.1546 13.4337 10.4631 13.2842 10.6885C13.1671 10.8647 13.0033 11 12.6562 11H11.5V9H12.6562Z" fill="#565B62"/>
<path d="M18.9922 5.50391C18.4399 5.50391 17.9922 5.95162 17.9922 6.50391V7H17.5C16.9477 7 16.5 7.44772 16.5 8C16.5 8.55228 16.9477 9 17.5 9H17.9922V9.50391C17.9922 10.0562 18.4399 10.5039 18.9922 10.5039C19.5443 10.5038 19.9922 10.0561 19.9922 9.50391V9H20.5C21.0522 8.99985 21.5 8.55219 21.5 8C21.5 7.44781 21.0522 7.00015 20.5 7H19.9922V6.50391C19.9922 5.95171 19.5443 5.50405 18.9922 5.50391Z" fill="#565B62"/>
</svg>
