<svg width="20" height="20" viewBox="0 0 20 20" fill="none" xmlns="http://www.w3.org/2000/svg">
<path fill-rule="evenodd" clip-rule="evenodd" d="M14 0C11.7909 0 10 1.79086 10 4V8.63307C10 10.4013 12.1263 11.2997 13.3942 10.0671L14.8346 8.66667H16C18.2091 8.66667 20 6.87581 20 4.66667V4C20 1.79086 18.2091 0 16 0H14ZM12 4C12 2.89543 12.8954 2 14 2H16C17.1046 2 18 2.89543 18 4V4.66667C18 5.77124 17.1046 6.66667 16 6.66667H14.8346C14.3139 6.66667 13.8137 6.86972 13.4404 7.23268L12 8.63307V4Z" fill="#D0D7DD"/>
<path d="M6.37166 9.22558C6.13325 9.13021 5.86729 9.13021 5.62887 9.22558L1.37166 10.9285C0.858873 11.1336 0.276903 10.8842 0.0717893 10.3714C-0.133324 9.85859 0.116092 9.27662 0.628875 9.07151L4.88609 7.36862C5.60133 7.08253 6.3992 7.08253 7.11444 7.36862L8.19816 7.80211C8.71095 8.00723 8.96036 8.5892 8.75525 9.10198C8.55014 9.61476 7.96817 9.86418 7.45538 9.65907L6.37166 9.22558Z" fill="#D0D7DD"/>
<path d="M3 13C3 12.4477 2.55228 12 2 12C1.44772 12 1 12.4477 1 13V15.5C1 16.0523 1.44772 16.5 2 16.5C2.55228 16.5 3 16.0523 3 15.5V13Z" fill="#D0D7DD"/>
<path d="M1 18C0.447715 18 6.76664e-10 18.4477 6.76664e-10 19C6.76664e-10 19.5523 0.447715 20 1 20H11C11.5523 20 12 19.5523 12 19C12 18.4477 11.5523 18 11 18H1Z" fill="#D0D7DD"/>
<path d="M6 12C6.55228 12 7 12.4477 7 13V15.5C7 16.0523 6.55228 16.5 6 16.5C5.44772 16.5 5 16.0523 5 15.5V13C5 12.4477 5.44772 12 6 12Z" fill="#D0D7DD"/>
<path d="M11 13C11 12.4477 10.5523 12 10 12C9.44771 12 9 12.4477 9 13V15.5C9 16.0523 9.44771 16.5 10 16.5C10.5523 16.5 11 16.0523 11 15.5V13Z" fill="#D0D7DD"/>
</svg>
