<svg width="32" height="32" viewBox="0 0 32 32" fill="none" xmlns="http://www.w3.org/2000/svg">
<path fill-rule="evenodd" clip-rule="evenodd" d="M11.3107 18.15L15.5907 13.7C15.9807 13.3 15.9607 12.67 15.5607 12.28C15.1607 11.9 14.5307 11.91 14.1507 12.31L9.86065 16.77C9.75065 16.89 9.63066 17.04 9.51066 17.22C9.26066 17.57 9.08066 17.94 8.96066 18.32C8.83066 18.74 8.77066 19.14 8.79066 19.55C8.80066 19.7 8.82066 19.85 8.85066 20.01C8.86066 20.08 8.88065 20.15 8.90065 20.23C9.05065 20.82 9.37066 21.37 9.86065 21.87C10.3707 22.4 10.9307 22.75 11.5307 22.91C11.5807 22.92 11.6307 22.93 11.6807 22.94C11.8507 22.98 12.0107 23 12.1807 23.01C12.5707 23.02 12.9607 22.96 13.3507 22.83C13.7307 22.7 14.0907 22.51 14.4307 22.26C14.6007 22.13 14.7507 22.01 14.8607 21.89L23.4507 12.96C23.6007 12.79 23.7707 12.58 23.9507 12.32C24.3007 11.8 24.5707 11.27 24.7507 10.71C24.9507 10.1 25.0207 9.49003 24.9907 8.89003C24.9707 8.70003 24.9507 8.50003 24.9107 8.31003C24.9007 8.24003 24.8907 8.18003 24.8707 8.11003C24.6607 7.22003 24.1807 6.39003 23.4507 5.62003C22.6807 4.82003 21.8407 4.32003 20.9407 4.11003C20.9007 4.10003 20.8707 4.09003 20.8307 4.08003C20.6207 4.04003 20.4107 4.01003 20.1907 4.00003C19.6207 3.97003 19.0507 4.06003 18.4707 4.26003C17.9307 4.45003 17.4007 4.72003 16.9107 5.10003C16.6507 5.28003 16.4507 5.46003 16.2907 5.62003L6.29066 16.03C6.23066 16.09 6.16066 16.17 6.07066 16.28C5.90066 16.47 5.74066 16.68 5.59066 16.91C5.08066 17.62 4.69066 18.36 4.42066 19.13C4.06066 20.14 3.93066 21.12 4.03066 22.08C4.04066 22.17 4.05066 22.27 4.06066 22.36C4.09066 22.57 4.14066 22.78 4.19066 22.99C4.47066 24.06 5.05066 25.05 5.93066 25.96C6.86066 26.93 7.87066 27.55 8.97066 27.83C9.12066 27.86 9.27066 27.9 9.43066 27.92C9.56066 27.94 9.69065 27.96 9.82065 27.97C10.7207 28.06 11.6407 27.92 12.5907 27.55C13.3307 27.27 14.0407 26.86 14.7407 26.33C14.9507 26.17 15.1607 26 15.3507 25.82C15.4507 25.73 15.5307 25.65 15.5907 25.59L22.7307 18.16C23.1207 17.75 23.1107 17.13 22.7007 16.74C22.3007 16.36 21.6807 16.37 21.2907 16.77L14.1507 24.21C14.1207 24.24 14.0707 24.28 14.0007 24.35C13.8507 24.48 13.6907 24.61 13.5207 24.74C12.9807 25.15 12.4307 25.47 11.8707 25.69C11.1307 25.97 10.4207 26.06 9.75066 25.95C8.91066 25.81 8.12066 25.35 7.37066 24.58C6.66066 23.83 6.22066 23.04 6.06066 22.19C5.92066 21.44 6.00066 20.64 6.30066 19.8C6.51066 19.21 6.82066 18.63 7.22066 18.06C7.34066 17.88 7.47066 17.72 7.60066 17.57C7.66066 17.5 7.70066 17.45 7.73066 17.42L17.7307 7.01003C17.8207 6.93003 17.9907 6.78003 18.1007 6.70003C18.4307 6.45003 18.7707 6.27003 19.1207 6.15003C19.5307 6.01003 19.9207 5.96003 20.3007 6.02003C20.3407 6.03003 20.3807 6.03003 20.4207 6.04003C20.9707 6.15003 21.4907 6.48003 22.0007 7.01003C22.5207 7.55003 22.8407 8.11003 22.9507 8.69003C22.9607 8.72003 22.9607 8.76003 22.9707 8.80003C23.0307 9.22003 22.9907 9.65003 22.8407 10.1C22.7307 10.47 22.5407 10.83 22.3007 11.19C22.2307 11.3 22.1507 11.4 22.0707 11.49L13.4307 20.49C13.3907 20.53 13.3307 20.58 13.2407 20.65C13.0607 20.78 12.8807 20.87 12.7007 20.94C12.4907 21.01 12.2807 21.03 12.0907 20.99C11.8307 20.93 11.5707 20.76 11.3007 20.49C11.0307 20.21 10.8707 19.92 10.8107 19.63C10.7707 19.41 10.7907 19.18 10.8607 18.93C10.9307 18.73 11.0207 18.54 11.1607 18.35C11.2007 18.29 11.2707 18.2 11.3107 18.15Z" fill="#565B62"/>
</svg>
