<svg width="32" height="31" viewBox="0 0 32 31" fill="none" xmlns="http://www.w3.org/2000/svg">
<path fill-rule="evenodd" clip-rule="evenodd" d="M16 31C24.8366 31 32 24.0604 32 15.5C32 6.93959 24.8366 0 16 0C7.16344 0 0 6.93959 0 15.5C0 24.0604 7.16344 31 16 31ZM18 10.4289L22.3937 7.87505C22.75 7.66792 23.2061 7.72232 23.5 8.00699C23.7939 8.29166 23.85 8.73354 23.6362 9.07876L21 13.3351L22.8838 20.6348C22.9559 20.9142 22.8714 21.2097 22.6612 21.4133C22.3072 21.7563 21.7249 21.7281 21.4079 21.3528L17.5 16.7257L14 19.1476V22.0539L13 23.0226L11.5 20.6007L10.5 19.632L8 18.1789L9 17.2101H12L14.5 13.8195L9.72371 10.0337C9.33623 9.72661 9.30719 9.16253 9.6612 8.81957C9.87139 8.61595 10.1764 8.5341 10.4648 8.60394L18 10.4289Z" fill="#B2B8BF"/>
</svg>
