<svg width="20" height="20" viewBox="0 0 20 20" fill="none" xmlns="http://www.w3.org/2000/svg">
<path fill-rule="evenodd" clip-rule="evenodd" d="M10.8977 1.55743C10.7292 1.2161 10.3816 1 10.0009 1C9.6203 1 9.27267 1.2161 9.10421 1.55743L6.69184 6.44542L1.29764 7.22924C0.920951 7.28398 0.608004 7.54782 0.490379 7.90983C0.372754 8.27184 0.470851 8.66924 0.743424 8.93493L4.64671 12.7397L3.72527 18.1121C3.66092 18.4873 3.81515 18.8664 4.12309 19.0902C4.43104 19.3139 4.8393 19.3434 5.17622 19.1663L10.0009 16.6298L14.8257 19.1663C15.1626 19.3434 15.5709 19.3139 15.8788 19.0902C16.1867 18.8664 16.341 18.4873 16.2766 18.1121L15.3552 12.7397L19.2585 8.93493C19.531 8.66924 19.6291 8.27184 19.5115 7.90983C19.3939 7.54782 19.0809 7.28398 18.7043 7.22924L13.31 6.44542L10.8977 1.55743ZM8.25265 7.80199L10.0009 4.25955L11.7492 7.80199C11.8949 8.09713 12.1765 8.3017 12.5022 8.34903L16.4115 8.91709L13.5827 11.6745C13.347 11.9042 13.2395 12.2352 13.2951 12.5596L13.9629 16.4531L10.4663 14.6149C10.175 14.4617 9.82693 14.4617 9.5356 14.6149L6.03901 16.4531L6.7068 12.5596C6.76244 12.2352 6.65489 11.9042 6.4192 11.6745L3.5904 8.91709L7.49971 8.34903C7.82542 8.3017 8.10698 8.09713 8.25265 7.80199Z" fill="#E4E8EB"/>
</svg>
