<svg width="32" height="32" viewBox="0 0 32 32" fill="none" xmlns="http://www.w3.org/2000/svg">
<path d="M0.499998 16C0.499998 7.43959 7.43959 0.5 16 0.500001C24.5604 0.500001 31.5 7.43959 31.5 16C31.5 24.5604 24.5604 31.5 16 31.5C7.43958 31.5 0.499997 24.5604 0.499998 16Z" fill="white" stroke="#D0D7DD"/>
<path fill-rule="evenodd" clip-rule="evenodd" d="M18.7071 21.7071C19.0976 21.3166 19.0976 20.6834 18.7071 20.2929L14.4142 16L18.7071 11.7071C19.0976 11.3166 19.0976 10.6834 18.7071 10.2929C18.3166 9.90237 17.6834 9.90237 17.2929 10.2929L12.2929 15.2929C11.9024 15.6834 11.9024 16.3166 12.2929 16.7071L17.2929 21.7071C17.6834 22.0976 18.3166 22.0976 18.7071 21.7071Z" fill="#565B62"/>
</svg>
