<svg width="20" height="20" viewBox="0 0 20 20" fill="none" xmlns="http://www.w3.org/2000/svg">
<path d="M2 3.5C2 4.05228 1.55228 4.5 1 4.5C0.447715 4.5 0 4.05228 0 3.5V3C0 1.34315 1.34315 0 3 0H13C14.6569 0 16 1.34315 16 3V3.5C16 4.05228 15.5523 4.5 15 4.5C14.4477 4.5 14 4.05228 14 3.5V3C14 2.44772 13.5523 2 13 2H3C2.44772 2 2 2.44772 2 3V3.5Z" fill="#B2B8BF"/>
<path d="M2 16.5C2 15.9477 1.55228 15.5 1 15.5C0.447715 15.5 0 15.9477 0 16.5V17C0 18.6569 1.34315 20 3 20H13C14.6569 20 16 18.6569 16 17V16.5C16 15.9477 15.5523 15.5 15 15.5C14.4477 15.5 14 15.9477 14 16.5V17C14 17.5523 13.5523 18 13 18H3C2.44772 18 2 17.5523 2 17V16.5Z" fill="#B2B8BF"/>
<path d="M1.44541 6.16806C1.90493 5.8617 2.5258 5.98588 2.83216 6.44541L4 8.19717L5.16784 6.44541C5.4742 5.98588 6.09507 5.8617 6.55459 6.16806C7.01412 6.47441 7.1383 7.09528 6.83194 7.55481L5.20185 9.99995L6.83216 12.4454C7.13851 12.9049 7.01434 13.5258 6.55481 13.8322C6.09528 14.1385 5.47441 14.0143 5.16806 13.5548L4 11.8027L2.83194 13.5548C2.52559 14.0143 1.90472 14.1385 1.44519 13.8322C0.985665 13.5258 0.861491 12.9049 1.16784 12.4454L2.79815 9.99995L1.16806 7.55481C0.861704 7.09528 0.985877 6.47441 1.44541 6.16806Z" fill="#B2B8BF"/>
<path d="M9 6C9.55229 6 10 6.44772 10 7V12H12C12.5523 12 13 12.4477 13 13C13 13.5523 12.5523 14 12 14H9C8.44771 14 8 13.5523 8 13V7C8 6.44772 8.44771 6 9 6Z" fill="#B2B8BF"/>
<path d="M16.0002 6C15.3426 5.99987 14.6375 6.16915 14.0656 6.55513C13.4697 6.95731 13 7.61911 13 8.50049C13 8.92786 13.1102 9.32373 13.3339 9.66726C13.5513 10.0011 13.8408 10.232 14.1211 10.3955C14.6218 10.6876 15.2426 10.8423 15.6967 10.9555L15.7575 10.9706C16.2992 11.1061 16.6446 11.2009 16.8711 11.333C16.8761 11.3359 16.882 11.3392 16.8884 11.3427C16.926 11.3635 16.9824 11.3946 16.9932 11.4327C16.995 11.439 17 11.4596 17 11.5005C17 11.5953 16.9698 11.6837 16.8158 11.7876C16.6377 11.9077 16.3427 12.0005 16 12.0005C15.6728 12.0005 15.45 11.9199 15.3223 11.856C15.2435 11.8166 15.1968 11.7812 15.1846 11.7715C14.7927 11.4029 14.1761 11.4102 13.793 11.7932C13.4073 12.1788 13.4081 12.8238 13.7942 13.2088L13.8218 13.2355C13.8338 13.2467 13.8482 13.2598 13.8649 13.2744C13.8982 13.3036 13.9411 13.3391 13.9937 13.3785C14.0986 13.4572 14.2432 13.5526 14.4277 13.6448C14.8 13.831 15.3272 14.0005 16 14.0005C16.6573 14.0005 17.3623 13.8314 17.9342 13.4456C18.5302 13.0436 19 12.382 19 11.5005C19 11.0731 18.8898 10.6772 18.6661 10.3337C18.4487 9.99987 18.1592 9.76901 17.8789 9.60546C17.3782 9.31337 16.7574 9.15866 16.3033 9.0455L16.2425 9.03035C15.7008 8.89491 15.3554 8.80013 15.1289 8.66796C15.0342 8.61276 15.0111 8.57781 15.0098 8.57573C15.0098 8.57573 15 8.57519 15 8.50049C15 8.40545 15.0303 8.31689 15.1844 8.21289C15.3625 8.09268 15.6574 7.99993 15.9998 8C16.327 8.00007 16.5498 8.08069 16.6776 8.1446C16.7565 8.18409 16.8032 8.21955 16.8154 8.22928C17.2073 8.59783 17.8238 8.59063 18.207 8.20761C18.5976 7.81715 18.597 7.18329 18.2065 6.7927C18.2065 6.7927 18.1352 6.72644 18.1782 6.76535C18.1662 6.75411 18.1519 6.74104 18.1352 6.72644C18.1019 6.69725 18.0589 6.66177 18.0064 6.62235C17.9015 6.54361 17.7569 6.44824 17.5724 6.35594C17.2001 6.16971 16.673 6.00014 16.0002 6Z" fill="#B2B8BF"/>
</svg>
