<svg width="16" height="15" viewBox="0 0 16 15" fill="none" xmlns="http://www.w3.org/2000/svg">
<path fill-rule="evenodd" clip-rule="evenodd" d="M3 2.8125C3.55228 2.8125 4 3.23223 4 3.75V4.6875L5 4.6875C5.55228 4.6875 6 5.10723 6 5.625C6 6.14277 5.55228 6.5625 5 6.5625H4V7.5C4 8.01777 3.55228 8.4375 3 8.4375C2.44772 8.4375 2 8.01777 2 7.5V6.5625H1C0.447715 6.5625 0 6.14277 0 5.625C0 5.10723 0.447715 4.6875 1 4.6875L2 4.6875V3.75C2 3.23223 2.44772 2.8125 3 2.8125ZM10 2.8125C8.48122 2.8125 7.25 3.96677 7.25 5.39062C7.25 6.81448 8.48122 7.96875 10 7.96875C11.5188 7.96875 12.75 6.81448 12.75 5.39062C12.75 3.96677 11.5188 2.8125 10 2.8125ZM9.25 5.39062C9.25 5.0023 9.58579 4.6875 10 4.6875C10.4142 4.6875 10.75 5.0023 10.75 5.39062C10.75 5.77895 10.4142 6.09375 10 6.09375C9.58579 6.09375 9.25 5.77895 9.25 5.39062ZM13 11.4673C13 11.1434 12.8104 10.7373 12.2942 10.3795L11.4808 8.6558C11.9733 8.36651 12.6338 8.36596 13.126 8.64692L13.127 8.64751C14.2235 9.27515 15 10.279 15 11.4673C15 11.9851 14.5523 12.4048 14 12.4048C13.4477 12.4048 13 11.9851 13 11.4673ZM9.96546 10.9031C10.7826 10.9031 11.5991 10.7274 12.2942 10.3795L11.4807 8.65585C11.0941 8.88289 10.5562 9.02808 9.96546 9.02808C9.38635 9.02808 8.85533 8.88797 8.4707 8.6677L8.46882 8.66662C7.97634 8.38598 7.31743 8.38703 6.82526 8.67514L6.82378 8.676C5.75446 9.3044 5 10.2987 5 11.4673C5 11.9851 5.44772 12.4048 6 12.4048C6.55228 12.4048 7 11.9851 7 11.4673C7 11.1504 7.18305 10.7527 7.67743 10.3997C8.36348 10.7342 9.16512 10.9031 9.96546 10.9031Z" fill="#E4E8EB"/>
</svg>
