<svg width="32" height="32" viewBox="0 0 32 32" fill="none" xmlns="http://www.w3.org/2000/svg">
<path fill-rule="evenodd" clip-rule="evenodd" d="M6 7.81C6 6.27 7.24 5 8.8 5H17.17C17.96 5 18.73 5.31 19.29 5.87L25.12 11.7C25.68 12.26 26 13.03 26 13.82V24.18C26 25.72 24.75 27 23.2 27H8.8C7.24 27 6 25.72 6 24.18V7.81ZM8 7.81C8 7.35 8.36 7 8.8 7H16V11C16 13.2 17.79 15 20 15H24V24.18C24 24.64 23.63 25 23.2 25H8.8C8.36 25 8 24.64 8 24.18V7.81ZM18 11V7.41L23.58 13H20C18.89 13 18 12.1 18 11ZM11 15H14.5C15.06 15 15.5 15.43 15.5 16C15.5 16.56 15.06 17 14.5 17H11C10.43 17 10 16.56 10 16C10 15.43 10.43 15 11 15ZM22 21C22 20.43 21.56 20 21 20H11C10.43 20 10 20.43 10 21C10 21.56 10.43 22 11 22H21C21.56 22 22 21.56 22 21Z" fill="#D0D7DD"/>
</svg>
