<svg width="24" height="24" viewBox="0 0 24 24" fill="none" xmlns="http://www.w3.org/2000/svg">
<path fill-rule="evenodd" clip-rule="evenodd" d="M12 24C18.6274 24 24 18.6274 24 12C24 5.37258 18.6274 0 12 0C5.37258 0 0 5.37258 0 12C0 18.6274 5.37258 24 12 24ZM8.74421 7.76824C9.52538 6.83837 10.6936 6.25 12.0001 6.25C13.3067 6.25 14.4749 6.83837 15.256 7.76824C15.6113 8.1911 16.2421 8.24592 16.6649 7.89067C17.0878 7.53542 17.1426 6.90463 16.7874 6.48176C15.6424 5.11892 13.9223 4.25 12.0001 4.25C10.078 4.25 8.3578 5.11892 7.21287 6.48176C6.85762 6.90463 6.91244 7.53542 7.3353 7.89067C7.75817 8.24592 8.38896 8.1911 8.74421 7.76824ZM6.4 9C5.07452 9 4 10.0745 4 11.4V12.6C4 13.9255 5.07452 15 6.4 15C7.28366 15 8 14.2837 8 13.4V10.6C8 9.71634 7.28366 9 6.4 9ZM17.6 9C18.9255 9 20 10.0745 20 11.4V12.6C20 13.6229 19.3601 14.4963 18.4588 14.8418C17.7913 18.8175 14.5169 20.2976 12 20.2976C11.9782 20.2976 11.9566 20.2969 11.9351 20.2955L11.9351 20.2955C11.1368 20.2615 10.5 19.6035 10.5 18.7969C10.5 17.9684 11.1716 17.2969 12 17.2969C12.5825 17.2969 13.0875 17.6289 13.336 18.1141C13.6421 18.0282 13.9448 17.9108 14.235 17.7587C14.235 17.7587 14.235 17.7587 14.2351 17.7587C15.0426 17.3354 15.7537 16.6441 16.1744 15.6196C16.1744 15.6196 16.1744 15.6196 16.1744 15.6196C16.3077 15.295 16.4119 14.9369 16.4807 14.5433C16.1841 14.2529 16 13.8479 16 13.4V10.6C16 9.71634 16.7163 9 17.6 9Z" fill="#21A19A"/>
</svg>
