<svg width="20" height="21" viewBox="0 0 20 21" fill="none" xmlns="http://www.w3.org/2000/svg">
<path d="M12.6319 3.73899C12.0859 3.73899 11.7703 3.98578 10.6748 5.10144L10.672 5.10429L5.73943 10.0881C5.26386 10.5737 5.00003 11.2195 5.00003 11.9056C5.00003 12.3942 5.00274 12.8066 5.13208 13.2586C5.25588 13.6912 5.51428 14.2139 6.11146 14.822C6.7132 15.4349 7.221 15.6999 7.63692 15.8269C8.06995 15.9592 8.46504 15.9641 8.94045 15.9641C9.59136 15.9641 10.2146 15.6859 10.7084 15.1825L10.7173 15.1734L15.2728 10.645C15.6683 10.2518 16.3014 10.2601 16.6869 10.6636C17.0724 11.0671 17.0642 11.7129 16.6687 12.1061L12.1175 16.6303C11.2862 17.4754 10.1695 18.0043 8.94045 18.0043L8.91155 18.0043C8.4474 18.0044 7.79386 18.0045 7.06326 17.7814C6.30025 17.5483 5.51086 17.0932 4.69838 16.2658C3.88135 15.4337 3.43731 14.6169 3.21221 13.8303C2.99947 13.0869 2.99979 12.4192 3.00001 11.9501L3.00003 11.9056C3.00003 10.6736 3.47798 9.50924 4.32706 8.64364L4.33022 8.64042L9.26314 3.65625L9.3868 3.53002L9.3868 3.53002C10.2876 2.60947 11.1787 1.69885 12.6319 1.69885C13.5357 1.69885 14.6907 2.06914 15.5886 2.98367C16.485 3.89649 16.8561 5.07725 16.8561 6.00262C16.8561 7.48966 15.8597 8.50135 14.9332 9.4419L14.358 10.0209C14.0113 10.3698 13.5421 10.8421 13.0525 11.3353C12.0717 12.3231 11.0126 13.3908 10.686 13.7233C9.57838 14.8514 8.00634 14.5937 7.14384 13.7154C6.25823 12.8134 6.07498 11.2335 7.16042 10.1281C7.48984 9.79258 7.92558 9.35213 8.35404 8.91908L8.37444 8.89846L8.37496 8.89794C8.79721 8.47116 9.21048 8.05346 9.5104 7.74801C9.90124 7.34997 10.5344 7.35049 10.9246 7.74918C11.3148 8.14786 11.3143 8.79373 10.9235 9.19177C10.6209 9.49993 10.2055 9.91974 9.78514 10.3446L9.78466 10.3451L9.76173 10.3683C9.33237 10.8023 8.89965 11.2397 8.57349 11.5718C8.44059 11.7072 8.40916 11.8352 8.41213 11.9382C8.41551 12.0559 8.46612 12.1791 8.55692 12.2716C8.65114 12.3676 8.78456 12.4277 8.91385 12.4337C9.02608 12.4389 9.14914 12.4057 9.27297 12.2796C9.60452 11.9419 10.669 10.8689 11.6473 9.88354C12.1371 9.39015 12.6064 8.91772 12.9532 8.56865L13.5223 7.99597C14.6364 6.86118 14.8561 6.56353 14.8561 6.00262C14.8561 5.57667 14.6678 4.92872 14.1756 4.42742C13.685 3.92784 13.0535 3.73899 12.6319 3.73899Z" fill="#B2B8BF"/>
</svg>
