<svg width="20" height="20" viewBox="0 0 20 20" fill="none" xmlns="http://www.w3.org/2000/svg">
<path d="M0.999998 4.49999C1.55228 4.49999 2 4.05228 2 3.49999V2.99999C2 2.44771 2.44771 2 2.99999 2H13C13.5523 2 14 2.44771 14 2.99999V3.49999C14 4.05228 14.4477 4.49999 15 4.49999C15.5523 4.49999 16 4.05228 16 3.49999V2.99999C16 1.34314 14.6568 0 13 0H2.99999C1.34314 0 0 1.34314 0 2.99999V3.49999C0 4.05228 0.447714 4.49999 0.999998 4.49999Z" fill="#B2B8BF"/>
<path d="M2 16.5C2 15.9477 1.55228 15.5 0.999998 15.5C0.447714 15.5 0 15.9477 0 16.5V17C0 18.6568 1.34314 20 2.99999 20H13C14.6568 20 16 18.6568 16 17V16.5C16 15.9477 15.5523 15.5 15 15.5C14.4477 15.5 14 15.9477 14 16.5V17C14 17.5523 13.5523 18 13 18H2.99999C2.44771 18 2 17.5523 2 17V16.5Z" fill="#B2B8BF"/>
<path d="M0 9.99998C0 7.80263 1.76251 5.99999 3.96284 5.99999C4.45065 5.99999 4.91993 6.08942 5.35393 6.25366C5.87046 6.44914 6.13073 7.02633 5.93526 7.54287C5.73979 8.0594 5.16259 8.31967 4.64605 8.1242C4.43446 8.04412 4.20479 7.99999 3.96284 7.99999C2.8905 7.99999 2 8.88363 2 9.99998C2 11.1163 2.8905 12 3.96284 12C4.20479 12 4.43446 11.9558 4.64605 11.8758C5.16259 11.6803 5.73979 11.9406 5.93526 12.4571C6.13073 12.9736 5.87046 13.5508 5.35393 13.7463C4.91993 13.9105 4.45065 14 3.96284 14C1.76251 14 0 12.1973 0 9.99998Z" fill="#B2B8BF"/>
<path d="M10.0002 5.99999C9.3426 5.99986 8.63744 6.16914 8.06556 6.55512C7.46966 6.9573 6.99999 7.61909 6.99999 8.50047C6.99999 8.92784 7.11017 9.32371 7.33386 9.66724C7.55126 10.0011 7.84075 10.232 8.12112 10.3955C8.62183 10.6876 9.24262 10.8423 9.69671 10.9555L9.75745 10.9706C10.2992 11.106 10.6445 11.2008 10.8711 11.333L10.8883 11.3427C10.926 11.3635 10.9824 11.3946 10.9932 11.4327C10.995 11.439 11 11.4596 11 11.5005C11 11.5953 10.9698 11.6837 10.8158 11.7876C10.6376 11.9077 10.3427 12.0005 9.99998 12.0005C9.67278 12.0005 9.44997 11.9199 9.32227 11.856C9.24345 11.8166 9.19678 11.7812 9.18459 11.7714C8.79265 11.4029 8.17607 11.4101 7.79295 11.7932C7.40728 12.1788 7.40806 12.8238 7.79422 13.2088L7.82183 13.2355C7.83383 13.2467 7.84816 13.2598 7.86485 13.2744C7.8982 13.3036 7.94111 13.339 7.99366 13.3785C8.09862 13.4572 8.24319 13.5525 8.4277 13.6448C8.8 13.831 9.32718 14.0005 9.99998 14.0005C10.6573 14.0005 11.3623 13.8314 11.9342 13.4456C12.5302 13.0436 13 12.3819 13 11.5005C13 11.0731 12.8898 10.6772 12.6661 10.3337C12.4487 9.99985 12.1592 9.76899 11.8789 9.60544C11.3781 9.31336 10.7574 9.15865 10.3033 9.04548L10.2425 9.03033C9.70078 8.8949 9.35543 8.80011 9.12886 8.66794C9.03423 8.61274 9.0111 8.5778 9.00974 8.57571C9.00974 8.57571 8.99998 8.57517 8.99998 8.50047C8.99998 8.40543 9.03031 8.31688 9.18441 8.21287C9.36252 8.09267 9.65736 7.99992 9.99977 7.99999C10.327 8.00005 10.5498 8.08068 10.6776 8.14459C10.7565 8.18408 10.8032 8.21954 10.8153 8.22927C11.2073 8.59782 11.8238 8.59062 12.207 8.2076C12.5976 7.81714 12.597 7.18328 12.2065 6.79269C12.2065 6.79269 12.1352 6.72643 12.1782 6.76534C12.1662 6.7541 12.1519 6.74103 12.1352 6.72643C12.1018 6.69724 12.0589 6.66176 12.0064 6.62234C11.9014 6.5436 11.7569 6.44823 11.5724 6.35593C11.2001 6.1697 10.673 6.00013 10.0002 5.99999Z" fill="#B2B8BF"/>
<path d="M14.9228 6.61515C14.7104 6.10535 14.1249 5.86427 13.6151 6.07669C13.1053 6.2891 12.8643 6.87457 13.0767 7.38438L15.5767 13.3844C15.7319 13.757 16.096 13.9997 16.4997 13.9997C16.9034 13.9997 17.2676 13.757 17.4228 13.3844L19.9228 7.38438C20.1352 6.87457 19.8942 6.2891 19.3844 6.07669C18.8746 5.86427 18.2891 6.10535 18.0767 6.61515L16.4997 10.3998L14.9228 6.61515Z" fill="#B2B8BF"/>
</svg>
