<svg width="32" height="32" viewBox="0 0 32 32" fill="none" xmlns="http://www.w3.org/2000/svg">
<path fill-rule="evenodd" clip-rule="evenodd" d="M16 32C24.8366 32 32 24.8366 32 16C32 7.16344 24.8366 0 16 0C7.16344 0 0 7.16344 0 16C0 24.8366 7.16344 32 16 32ZM11 6C9.89543 6 9 6.89543 9 8V11H18V8C18 6.89543 17.1046 6 16 6H11ZM18 13H9V24C9 24.5523 9.44771 25 10 25H17C17.5523 25 18 24.5523 18 24V23H21C23.2091 23 25 21.2091 25 19V13.1864C25 12.8018 24.8472 12.433 24.5753 12.1611L21.7071 9.29289C21.3166 8.90237 20.6834 8.90237 20.2929 9.29289C19.9024 9.68342 19.9024 10.3166 20.2929 10.7071L23 13.4142V19C23 20.1046 22.1046 21 21 21H18V13Z" fill="#B2B8BF"/>
</svg>
