<svg width="20" height="20" viewBox="0 0 20 20" fill="none" xmlns="http://www.w3.org/2000/svg">
<path d="M1.0002 4.49995C1.55248 4.49995 2.00019 4.05224 2.00019 3.49996V2.99997C2.00019 2.44769 2.4479 1.99998 3.00018 1.99998H13.0001C13.5524 1.99998 14.0001 2.44769 14.0001 2.99997V3.49996C14.0001 4.05224 14.4478 4.49995 15.0001 4.49995C15.5523 4.49995 16 4.05224 16 3.49996V2.99997C16 1.34313 14.6569 0 13.0001 0H3.00018C1.34334 0 0.000212708 1.34313 0.000212708 2.99997V3.49996C0.000212708 4.05224 0.447923 4.49995 1.0002 4.49995Z" fill="#B2B8BF"/>
<path d="M4.16801 6.44534C4.47436 5.98581 5.09522 5.86164 5.55475 6.16799C6.01427 6.47434 6.13844 7.0952 5.83209 7.55473L4.20202 9.99984L5.83231 12.4453C6.13866 12.9048 6.01448 13.5257 5.55496 13.832C5.09544 14.1384 4.47457 14.0142 4.16822 13.5547L3.00018 11.8026L1.83214 13.5547C1.52579 14.0142 0.904925 14.1384 0.445401 13.832C-0.0141223 13.5257 -0.138295 12.9048 0.168054 12.4453L1.79834 9.99984L0.168267 7.55473C-0.138082 7.0952 -0.0139098 6.47434 0.445614 6.16799C0.905138 5.86164 1.526 5.98581 1.83235 6.44534L3.00018 8.19708L4.16801 6.44534Z" fill="#B2B8BF"/>
<path d="M16 5.99994C16.5523 5.99994 17 6.44765 17 6.99993V11.9999H19C19.5523 11.9999 20 12.4476 20 12.9999C20 13.5521 19.5523 13.9999 19 13.9999H16C15.4478 13.9999 15.0001 13.5521 15.0001 12.9999V6.99993C15.0001 6.44765 15.4478 5.99994 16 5.99994Z" fill="#B2B8BF"/>
<path d="M2.00019 16.4998C2.00019 15.9475 1.55248 15.4998 1.0002 15.4998C0.447923 15.4998 0.000212708 15.9475 0.000212708 16.4998V16.9998C0.000212708 18.6567 1.34334 19.9998 3.00018 19.9998H13.0001C14.6569 19.9998 16 18.6567 16 16.9998V16.4998C16 15.9475 15.5523 15.4998 15.0001 15.4998C14.4478 15.4998 14.0001 15.9475 14.0001 16.4998V16.9998C14.0001 17.5521 13.5524 17.9998 13.0001 17.9998H3.00018C2.4479 17.9998 2.00019 17.5521 2.00019 16.9998V16.4998Z" fill="#B2B8BF"/>
<path d="M8.76834 6.3598C8.49881 6.03637 8.05558 5.91639 7.65971 6.05971C7.26384 6.20304 7.00014 6.57896 7.00014 6.99998V12.9999C7.00014 13.5522 7.44785 13.9999 8.00013 13.9999C8.55241 13.9999 9.00012 13.5522 9.00012 12.9999V9.762L9.73189 10.6401C9.92188 10.8681 10.2033 10.9999 10.5001 10.9999C10.7969 10.9999 11.0783 10.8681 11.2683 10.6401L12.0001 9.762V12.9999C12.0001 13.5522 12.4478 13.9999 13.0001 13.9999C13.5524 13.9999 14.0001 13.5522 14.0001 12.9999V6.99998C14.0001 6.57896 13.7364 6.20304 13.3405 6.05971C12.9446 5.91639 12.5014 6.03637 12.2319 6.3598L10.5001 8.43791L8.76834 6.3598Z" fill="#B2B8BF"/>
</svg>
