<svg width="24" height="24" viewBox="0 0 24 24" fill="none" xmlns="http://www.w3.org/2000/svg">
<path fill-rule="evenodd" clip-rule="evenodd" d="M12 24C18.6274 24 24 18.6274 24 12C24 5.37258 18.6274 0 12 0C5.37258 0 0 5.37258 0 12C0 18.6274 5.37258 24 12 24ZM12 11C13.933 11 15.5 9.433 15.5 7.5C15.5 5.567 13.933 4 12 4C10.067 4 8.5 5.567 8.5 7.5C8.5 9.433 10.067 11 12 11ZM6.76371 18C6.43525 18 6.15383 17.7768 6.09592 17.4705C6.03258 17.1342 6 16.7953 6 16.4637C6 14.8352 6.74109 13.2826 8.03235 12.2034C8.28707 11.9913 8.66667 11.9892 8.9241 12.1978C9.76519 12.8829 10.8393 13.2599 11.9482 13.2599C13.0788 13.2599 14.1692 12.8692 15.0175 12.1606C15.2713 11.9485 15.6518 11.9464 15.9088 12.155C17.2376 13.2368 18 14.8074 18 16.4637C18 16.7953 17.9679 17.1342 17.9041 17.4705C17.8466 17.7768 17.5648 18 17.2363 18H6.76371Z" fill="#B2B8BF"/>
</svg>
