<svg width="20" height="20" viewBox="0 0 20 20" fill="none" xmlns="http://www.w3.org/2000/svg">
<path d="M2 9.99999C2 6.134 5.134 3 8.99999 3C10.6564 3 12.1759 3.57405 13.3745 4.53487C13.8054 4.88031 14.4348 4.81101 14.7802 4.38009C15.1257 3.94917 15.0564 3.31981 14.6255 2.97438C13.0848 1.73938 11.1274 0.999999 8.99999 0.999999C4.02943 0.999999 0 5.02943 0 9.99999C0 14.9705 4.02943 19 8.99999 19C11.1274 19 13.0848 18.2606 14.6255 17.0256C15.0564 16.6802 15.1257 16.0508 14.7802 15.6199C14.4348 15.189 13.8054 15.1197 13.3745 15.4651C12.1759 16.4259 10.6564 17 8.99999 17C5.134 17 2 13.866 2 9.99999Z" fill="#D0D7DD"/>
<path d="M9.99999 5.49999C9.99999 4.94771 9.55227 4.49999 8.99999 4.49999C8.4477 4.49999 7.99999 4.94771 7.99999 5.49999V5.54653C7.79843 5.59791 7.58508 5.67342 7.37572 5.78439C7.01589 5.9751 6.66637 6.2696 6.40811 6.70624C6.1523 7.13874 6.01743 7.65735 6.00042 8.25268C5.97399 9.17789 6.50542 9.77802 7.05085 10.139C7.5144 10.4459 8.09978 10.6563 8.5512 10.8185L8.64082 10.8508C9.17224 11.0425 9.54339 11.1876 9.79314 11.3629C9.99273 11.503 10.0001 11.5758 10.0001 11.6562C10.0001 11.9025 9.94309 12.0503 9.88748 12.1429C9.82886 12.2405 9.74284 12.3238 9.62713 12.3953C9.50838 12.4686 9.37084 12.5211 9.23883 12.5545C9.17446 12.5707 9.11695 12.581 9.07139 12.5871C9.02769 12.5929 9.00329 12.5936 9.00033 12.5937C8.86358 12.5937 8.54756 12.5613 8.23272 12.4653C7.88528 12.3594 7.74816 12.2401 7.72556 12.2078C7.40884 11.7553 6.78531 11.6453 6.33286 11.962C5.88042 12.2787 5.77038 12.9022 6.0871 13.3547C6.50199 13.9474 7.17689 14.2343 7.64952 14.3784C7.76673 14.4141 7.88433 14.4449 7.99999 14.471V14.5C7.99999 15.0523 8.4477 15.5 8.99999 15.5C9.55227 15.5 9.99999 15.0523 9.99999 14.5V14.4136C10.2208 14.3388 10.4525 14.2361 10.6777 14.0971C11.3791 13.6641 12.0001 12.8788 12.0001 11.6562C12.0001 10.7367 11.5008 10.1181 10.9422 9.72593C10.4409 9.37405 9.813 9.1475 9.34004 8.97684L9.31976 8.96952C8.7745 8.77274 8.40494 8.63689 8.15474 8.47128C8.10154 8.43606 8.03485 8.3939 8.00091 8.33735C8.00037 8.3345 7.99914 8.32597 7.9996 8.3098C8.00893 7.98324 8.07865 7.81045 8.12954 7.7244C8.178 7.64248 8.23731 7.59128 8.31232 7.55152C8.50304 7.45044 8.75587 7.43749 9.00007 7.43749C9.16938 7.43749 9.48263 7.52236 9.7631 7.85892C10.1167 8.2832 10.7472 8.34052 11.1715 7.98696C11.5958 7.63339 11.6531 7.00283 11.2995 6.57855C10.9184 6.1212 10.4642 5.81049 9.99999 5.63019V5.49999Z" fill="#D0D7DD"/>
<path d="M15.8598 6.23177C16.2841 5.8782 16.9147 5.93553 17.2682 6.3598L19.7671 9.35843C19.9002 9.51744 19.9848 9.71847 19.9981 9.93873C20.0006 9.97952 20.0006 10.0204 19.9981 10.0612C19.9848 10.2823 19.8996 10.4839 19.7657 10.6432L17.2682 13.6402C16.9147 14.0644 16.2841 14.1218 15.8598 13.7682C15.4355 13.4146 15.3782 12.7841 15.7318 12.3598L16.865 11H14C13.4477 11 13 10.5523 13 9.99999C13 9.4477 13.4477 8.99999 14 8.99999H16.865L15.7318 7.64017C15.3782 7.21589 15.4355 6.58533 15.8598 6.23177Z" fill="#D0D7DD"/>
</svg>
