<svg width="24" height="24" viewBox="0 0 24 24" fill="none" xmlns="http://www.w3.org/2000/svg">
<g clip-path="url(#clip0_26585_1041)">
<path fill-rule="evenodd" clip-rule="evenodd" d="M12 24C18.6274 24 24 18.6274 24 12C24 5.37258 18.6274 0 12 0C5.37258 0 0 5.37258 0 12C0 18.6274 5.37258 24 12 24ZM13.2593 9.15081C13.6187 8.73148 13.5701 8.10018 13.1508 7.74076C12.7315 7.38134 12.1002 7.4299 11.7407 7.84923L8.74074 11.3492C8.41975 11.7237 8.41975 12.2763 8.74074 12.6508L11.7407 16.1508C12.1002 16.5701 12.7315 16.6187 13.1508 16.2593C13.5701 15.8999 13.6187 15.2686 13.2593 14.8492L10.8171 12L13.2593 9.15081Z" fill="#B2B8BF"/>
</g>
<defs>
<clipPath id="clip0_26585_1041">
<rect width="24" height="24" fill="white"/>
</clipPath>
</defs>
</svg>
