<svg width="16" height="15" viewBox="0 0 16 15" fill="none" xmlns="http://www.w3.org/2000/svg">
<path d="M13.92 7.61947C13.8724 7.49682 13.801 7.38477 13.71 7.28975L8.71 2.29387C8.45634 2.04042 8.08663 1.94144 7.74012 2.03421C7.39362 2.12698 7.12297 2.3974 7.03012 2.74362C6.93728 3.08984 7.03634 3.45925 7.29 3.7127L10.59 6.99998H3C2.44772 6.99998 2 7.44733 2 7.99916C2 8.55099 2.44772 8.99833 3 8.99833H10.59L7.29 12.2856C7.10069 12.4732 6.9942 12.7286 6.9942 12.995C6.9942 13.2614 7.10069 13.5168 7.29 13.7044C7.47777 13.8936 7.73336 14 8 14C8.26664 14 8.52223 13.8936 8.71 13.7044L13.71 8.70857C13.801 8.61355 13.8724 8.5015 13.92 8.37885C14.02 8.13558 14.02 7.86273 13.92 7.61947Z" fill="white"/>
</svg>
