<svg width="20" height="20" viewBox="0 0 20 20" fill="none" xmlns="http://www.w3.org/2000/svg">
<g clip-path="url(#clip0_42892_2160)">
<circle cx="10" cy="10" r="10" fill="#90D0CC"/>
<path d="M15.92 9.61947C15.8724 9.49682 15.801 9.38477 15.71 9.28975L10.71 4.29387C10.4563 4.04042 10.0866 3.94144 9.74012 4.03421C9.39362 4.12698 9.12297 4.3974 9.03012 4.74362C8.93728 5.08984 9.03634 5.45925 9.29 5.7127L12.59 8.99998H5C4.44772 8.99998 4 9.44733 4 9.99916C4 10.551 4.44772 10.9983 5 10.9983H12.59L9.29 14.2856C9.10069 14.4732 8.9942 14.7286 8.9942 14.995C8.9942 15.2614 9.10069 15.5168 9.29 15.7044C9.47777 15.8936 9.73336 16 10 16C10.2666 16 10.5222 15.8936 10.71 15.7044L15.71 10.7086C15.801 10.6135 15.8724 10.5015 15.92 10.3788C16.02 10.1356 16.02 9.86273 15.92 9.61947Z" fill="white"/>
</g>
<defs>
<clipPath id="clip0_42892_2160">
<rect width="20" height="20" fill="white"/>
</clipPath>
</defs>
</svg>
