<svg width="32" height="32" viewBox="0 0 32 32" fill="none" xmlns="http://www.w3.org/2000/svg">
<path fill-rule="evenodd" clip-rule="evenodd" d="M18 2.00003H4.7C3.77056 2.00003 3 2.76386 3 3.7273V28.2727C3 29.2362 3.77056 30 4.7 30H27.3C28.2294 30 29 29.2362 29 28.2727V13H23C20.2386 13 18 10.7614 18 8.00002V2.00003ZM30.7071 11.2929C30.725 11.3108 30.742 11.3292 30.7583 11.3482C30.9062 11.5201 30.9888 11.7343 30.9989 11.9543L30.7071 11.2929ZM19.7071 0.292922L30.7071 11.2929L31 12.0079V28.2727C31 30.3217 29.3529 32 27.3 32H4.7C2.64709 32 0.999999 30.3217 0.999999 28.2727V3.7273C0.999999 1.67829 2.64709 3.05134e-05 4.7 3.05134e-05H18.992C19.0103 -0.000112916 19.0286 0.000249499 19.0469 0.00111357C19.2619 0.011265 19.4713 0.0906566 19.641 0.232501C19.6638 0.251524 19.6858 0.27167 19.7071 0.292922ZM20 8.00002V3.41424L27.5858 11H23C21.3431 11 20 9.65687 20 8.00002ZM5.41883 16.1863C5.86825 15.8653 6.4928 15.9694 6.8138 16.4188L8.49999 18.7794L10.1862 16.4188C10.5072 15.9694 11.1317 15.8653 11.5811 16.1863C12.0306 16.5073 12.1347 17.1318 11.8136 17.5812L9.72889 20.4999L11.8138 23.4188C12.1348 23.8682 12.0307 24.4927 11.5813 24.8137C11.1319 25.1347 10.5073 25.0306 10.1863 24.5812L8.49999 22.2204L6.81365 24.5812C6.49264 25.0306 5.86809 25.1347 5.41868 24.8137C4.96927 24.4927 4.86518 23.8682 5.18618 23.4188L7.27109 20.4999L5.18634 17.5812C4.86533 17.1318 4.96942 16.5073 5.41883 16.1863ZM23 16C23.5523 16 24 16.4477 24 17V23H26.5C27.0523 23 27.5 23.4477 27.5 24C27.5 24.5523 27.0523 25 26.5 25H23C22.4477 25 22 24.5523 22 24V17C22 16.4477 22.4477 16 23 16ZM14.7592 16.3492C14.4869 16.0315 14.0455 15.9169 13.653 16.0621C13.2606 16.2073 13 16.5815 13 17V24C13 24.5523 13.4477 25 14 25C14.5523 25 15 24.5523 15 24V19.7033L16.2407 21.1508C16.4307 21.3724 16.7081 21.5 17 21.5C17.2919 21.5 17.5693 21.3724 17.7592 21.1508L19 19.7033V24C19 24.5523 19.4477 25 20 25C20.5523 25 21 24.5523 21 24V17C21 16.5815 20.7394 16.2073 20.3469 16.0621C19.9544 15.9169 19.5131 16.0315 19.2407 16.3492L17 18.9634L14.7592 16.3492Z" fill="#B2B8BF"/>
</svg>
