<svg width="24" height="24" viewBox="0 0 24 24" fill="none" xmlns="http://www.w3.org/2000/svg">
<path fill-rule="evenodd" clip-rule="evenodd" d="M7 2C5.34 2 4 3.34 4 5V19C4 20.65 5.34 22 7 22H17C18.65 22 20 20.65 20 19V10.82C20 10.03 19.68 9.26 19.12 8.7L13.29 2.87C12.73 2.31 11.96 2 11.17 2H7ZM6 5C6 4.44 6.44 4 7 4H11V8C11 9.65 12.34 11 14 11H18V19C18 19.55 17.55 20 17 20H7C6.44 20 6 19.55 6 19V5ZM16.58 9L13 5.41V8C13 8.55 13.44 9 14 9H16.58ZM9 12C8.44 12 8 12.44 8 13C8 13.55 8.44 14 9 14H11C11.55 14 12 13.55 12 13C12 12.44 11.55 12 11 12H9ZM9 16C8.44 16 8 16.44 8 17C8 17.55 8.44 18 9 18H15C15.55 18 16 17.55 16 17C16 16.44 15.55 16 15 16H9Z" fill="#107F8C"/>
</svg>
