<svg width="32" height="32" viewBox="0 0 32 32" fill="none" xmlns="http://www.w3.org/2000/svg">
<path fill-rule="evenodd" clip-rule="evenodd" d="M6 9C6 7.89543 6.89543 7 8 7H24C25.1046 7 26 7.89543 26 9V9.12426C26 9.60871 25.8242 10.0767 25.5052 10.4413L19 17.8757V23.807C19 24.6407 18.4829 25.3869 17.7022 25.6797L15.7022 26.4297C14.3947 26.92 13 25.9534 13 24.557L13 17.8757L6.49485 10.4413C6.17584 10.0767 6 9.60871 6 9.12426V9ZM24 9H8V9.12426L14.5052 16.5587C14.8242 16.9233 15 17.3913 15 17.8757V24.557L17 23.807V17.8757C17 17.3913 17.1758 16.9233 17.4948 16.5587L24 9.12426V9Z" fill="#B2B8BF"/>
</svg>
