<svg width="32" height="32" viewBox="0 0 32 32" fill="none" xmlns="http://www.w3.org/2000/svg">
<path fill-rule="evenodd" clip-rule="evenodd" d="M9.00022 5C9.37899 5 9.72525 5.214 9.89465 5.55279L12.8919 11.5473C12.894 11.5514 12.896 11.5554 12.898 11.5594L13.8946 13.5528C14.1416 14.0468 13.9414 14.6474 13.4474 14.8944C12.9535 15.1414 12.3528 14.9412 12.1058 14.4472L11.3822 13H6.61825L5.89465 14.4472C5.64766 14.9412 5.04698 15.1414 4.55301 14.8944C4.05903 14.6474 3.8588 14.0468 4.10579 13.5528L5.09254 11.5793C5.10064 11.5619 5.10922 11.5447 5.11826 11.5278L8.10579 5.55279C8.27518 5.214 8.62145 5 9.00022 5ZM7.61825 11H10.3822L9.00022 8.23607L7.61825 11Z" fill="#B2B8BF"/>
<path fill-rule="evenodd" clip-rule="evenodd" d="M20.6267 10.5398C20.4548 10.2082 20.1124 10 19.7389 10C19.3654 10 19.023 10.2082 18.8511 10.5398L12.1124 23.5398C11.8582 24.0301 12.0497 24.6336 12.54 24.8878C13.0303 25.142 13.6339 24.9505 13.888 24.4602L15.1633 22H24C24.1016 22 24.1997 21.9848 24.292 21.9567L25.5898 24.4602C25.8439 24.9505 26.4475 25.142 26.9378 24.8878C27.4281 24.6336 27.6196 24.0301 27.3654 23.5398L20.6267 10.5398ZM23.2778 20L19.7389 13.1729L16.2 20H23.2778Z" fill="#B2B8BF"/>
</svg>
