<svg width="24" height="24" viewBox="0 0 24 24" fill="none" xmlns="http://www.w3.org/2000/svg">
<path fill-rule="evenodd" clip-rule="evenodd" d="M12 3C12.55 3 13 3.44 13 4V13.58L15.58 11C15.97 10.6 16.6 10.6 17 11C17.39 11.39 17.39 12.02 17 12.41L12.88 16.53C12.39 17.01 11.6 17.01 11.11 16.53L7 12.41C6.6 12.02 6.6 11.39 7 11C7.39 10.6 8.02 10.6 8.41 11L11 13.58V4C11 3.44 11.44 3 12 3ZM4 15C4.55 15 5 15.44 5 16V19C5 19.55 5.44 20 6 20H18C18.55 20 19 19.55 19 19V16C19 15.44 19.44 15 20 15C20.55 15 21 15.44 21 16V19C21 20.65 19.65 22 18 22H6C4.34 22 3 20.65 3 19V16C3 15.44 3.44 15 4 15Z" fill="#107F8C"/>
</svg>
