<svg width="64" height="64" viewBox="0 0 64 64" fill="none" xmlns="http://www.w3.org/2000/svg">
<path d="M18.4454 33.1681C18.9049 32.8617 19.5258 32.9859 19.8322 33.4454L22 36.6972L24.1678 33.4454C24.4742 32.9859 25.0951 32.8617 25.5546 33.1681C26.0141 33.4744 26.1383 34.0953 25.8319 34.5548L23.2019 38.4999L25.8322 42.4454C26.1385 42.9049 26.0143 43.5258 25.5548 43.8322C25.0953 44.1385 24.4744 44.0143 24.1681 43.5548L22 40.3027L19.8319 43.5548C19.5256 44.0143 18.9047 44.1385 18.4452 43.8322C17.9857 43.5258 17.8615 42.9049 18.1678 42.4454L20.7982 38.4999L18.1681 34.5548C17.8617 34.0953 17.9859 33.4744 18.4454 33.1681Z" fill="#B2B8BF"/>
<path d="M41 33C41.5523 33 42 33.4477 42 34V42H45.5C46.0523 42 46.5 42.4477 46.5 43C46.5 43.5523 46.0523 44 45.5 44H41C40.4477 44 40 43.5523 40 43V34C40 33.4477 40.4477 33 41 33Z" fill="#B2B8BF"/>
<path d="M29.7474 33.3357C29.4716 33.0254 29.0327 32.9178 28.6446 33.0653C28.2565 33.2129 28 33.5849 28 34V43C28 43.5523 28.4477 44 29 44C29.5523 44 30 43.5523 30 43V36.6302L32.2526 39.1644C32.4424 39.3779 32.7144 39.5 33 39.5C33.2856 39.5 33.5576 39.3779 33.7474 39.1644L36 36.6302V43C36 43.5523 36.4477 44 37 44C37.5523 44 38 43.5523 38 43V34C38 33.5849 37.7435 33.2129 37.3554 33.0653C36.9673 32.9178 36.5284 33.0254 36.2526 33.3357L33 36.9948L29.7474 33.3357Z" fill="#B2B8BF"/>
<path fill-rule="evenodd" clip-rule="evenodd" d="M50.9684 27.2496C50.989 27.3296 51 27.4135 51 27.5V48.3636C51 50.9147 48.95 53 46.4 53H17.6C15.05 53 13 50.9147 13 48.3636V15.6364C13 13.0853 15.05 11 17.6 11H35.9997C36.291 11 36.5536 11.1246 36.7363 11.3234L50.7311 26.3177C50.9665 26.57 51.0528 26.9224 50.9684 27.2496ZM35 13H17.6C16.1735 13 15 14.1708 15 15.6364V48.3636C15 49.8292 16.1735 51 17.6 51H46.4C47.8265 51 49 49.8292 49 48.3636V28H40C37.2386 28 35 25.7615 35 23V13ZM37 23V14.5371L47.6988 26H40C38.3431 26 37 24.6569 37 23Z" fill="#B2B8BF"/>
</svg>
