<svg width="32" height="32" viewBox="0 0 32 32" fill="none" xmlns="http://www.w3.org/2000/svg">
<path fill-rule="evenodd" clip-rule="evenodd" d="M4.7 2.00003H18V8.00003C18 10.7615 20.2386 13 23 13H29V28.2728C29 29.2362 28.2294 30 27.3 30H4.7C3.77057 30 3 29.2362 3 28.2728V3.7273C3 2.76386 3.77057 2.00003 4.7 2.00003ZM30.7584 11.3482C30.7421 11.3292 30.725 11.3108 30.7071 11.2929L19.7071 0.292922C19.6859 0.27167 19.6638 0.251524 19.641 0.232502C19.4713 0.0906567 19.2619 0.011265 19.047 0.00111357C19.0287 0.000249488 19.0103 -0.000112925 18.992 3.0519e-05H4.7C2.64709 3.0519e-05 1 1.67829 1 3.7273V28.2728C1 30.3218 2.64709 32 4.7 32H27.3C29.3529 32 31 30.3218 31 28.2728V12.0079L30.7071 11.2929L30.999 11.9543C30.9889 11.7343 30.9062 11.5201 30.7584 11.3482ZM20 3.41424V8.00003C20 9.65688 21.3431 11 23 11H27.5858L20 3.41424ZM9.3332 16C6.89458 16 5 18.0613 5 20.5C5 22.9387 6.89458 25 9.3332 25C9.87139 25 10.3883 24.8977 10.8653 24.7105C11.3794 24.5087 11.6326 23.9284 11.4309 23.4143C11.2291 22.9002 10.6488 22.647 10.1347 22.8487C9.88539 22.9465 9.61599 23 9.3332 23C8.09006 23 7 21.9273 7 20.5C7 19.0727 8.09006 18 9.3332 18C9.61599 18 9.88539 18.0535 10.1347 18.1513C10.6488 18.3531 11.2291 18.0999 11.4309 17.5858C11.6326 17.0717 11.3794 16.4913 10.8653 16.2896C10.3883 16.1024 9.87139 16 9.3332 16ZM13.3107 16.4927C13.9635 16.1445 14.762 16 15.5 16C16.2617 16 16.8562 16.153 17.2776 16.3216C17.4873 16.4054 17.6522 16.4923 17.7723 16.5644C17.8324 16.6005 17.8813 16.6328 17.9192 16.6593C17.9381 16.6726 17.9543 16.6844 17.9677 16.6944L17.9857 16.7082L17.9932 16.714L17.9966 16.7167L17.9982 16.7179L17.9989 16.7186C17.9993 16.7189 17.9997 16.7192 17.3905 17.4806L17.9997 16.7192C18.431 17.0642 18.5009 17.6935 18.1559 18.1247C17.816 18.5496 17.2003 18.6237 16.7697 18.296C16.7656 18.2933 16.7568 18.2875 16.7433 18.2794C16.7072 18.2577 16.6377 18.2197 16.5349 18.1785C16.3313 18.0971 15.9883 18 15.5 18C14.988 18 14.5365 18.1056 14.2518 18.2574C13.9852 18.3996 13.9989 18.4924 13.9999 18.4996L14 18.5L13.9999 18.5009C13.999 18.5132 13.9906 18.6252 14.336 18.8555C14.7001 19.0983 15.2172 19.3099 15.8714 19.5716L15.924 19.5926C16.5099 19.8268 17.2169 20.1095 17.7735 20.4805C18.3539 20.8674 19 21.5057 19 22.5C19 23.4981 18.352 24.154 17.6893 24.5074C17.0365 24.8556 16.238 25 15.5 25C14.7383 25 14.1438 24.8471 13.7224 24.6785C13.5127 24.5946 13.3478 24.5077 13.2277 24.4356C13.1676 24.3996 13.1187 24.3672 13.0808 24.3407C13.0619 24.3275 13.0457 24.3157 13.0323 24.3056L13.0143 24.2919L13.0068 24.286L13.0034 24.2834L13.0018 24.2821L13.0011 24.2815C13.0007 24.2812 13.0003 24.2809 13.6212 23.5047L13.0003 24.2809C12.569 23.9359 12.4991 23.3066 12.8441 22.8753C13.184 22.4505 13.7997 22.3763 14.2303 22.704C14.2344 22.7068 14.2432 22.7126 14.2567 22.7207C14.2928 22.7423 14.3623 22.7804 14.4651 22.8216C14.6687 22.903 15.0117 23 15.5 23C16.012 23 16.4635 22.8945 16.7482 22.7427C17.0148 22.6005 17.0011 22.5077 17.0001 22.5005L17 22.5L17.0001 22.4991C17.001 22.4869 17.0094 22.3748 16.6641 22.1446C16.2999 21.9018 15.7828 21.6902 15.1286 21.4285L15.076 21.4075C14.4901 21.1732 13.7831 20.8906 13.2266 20.5196C12.6461 20.1326 12 19.4943 12 18.5C12 17.502 12.648 16.8461 13.3107 16.4927ZM20.9194 16.6061C20.7018 16.0985 20.114 15.8633 19.6063 16.0809C19.0987 16.2985 18.8636 16.8863 19.0811 17.394L22.0811 24.394C22.2387 24.7616 22.6002 25 23.0003 25C23.4003 25 23.7618 24.7616 23.9194 24.394L26.9194 17.394C27.137 16.8863 26.9018 16.2985 26.3942 16.0809C25.8865 15.8633 25.2987 16.0985 25.0811 16.6061L23.0003 21.4615L20.9194 16.6061Z" fill="#B2B8BF"/>
</svg>
