<svg width="32" height="32" viewBox="0 0 32 32" fill="none" xmlns="http://www.w3.org/2000/svg">
<path fill-rule="evenodd" clip-rule="evenodd" d="M16 32C24.8366 32 32 24.8366 32 16C32 7.16344 24.8366 0 16 0C7.16344 0 0 7.16344 0 16C0 24.8366 7.16344 32 16 32ZM16 15C18.4853 15 20.5 12.9853 20.5 10.5C20.5 8.01472 18.4853 6 16 6C13.5147 6 11.5 8.01472 11.5 10.5C11.5 12.9853 13.5147 15 16 15ZM8.14557 25C7.65287 25 7.23074 24.628 7.14388 24.1174C7.04886 23.5569 7 22.9921 7 22.4394C7 19.7254 8.11164 17.1377 10.0485 15.339C10.4306 14.9856 11 14.982 11.3862 15.3297C12.6478 16.4715 14.2589 17.0998 15.9223 17.0998C17.6183 17.0998 19.2538 16.4486 20.5263 15.2676C20.907 14.9142 21.4778 14.9106 21.8633 15.2583C23.8565 17.0613 25 19.679 25 22.4394C25 22.9921 24.9518 23.5569 24.8561 24.1174C24.7699 24.628 24.3471 25 23.8544 25H8.14557Z" fill="#B2B8BF"/>
</svg>
