<svg width="20" height="20" viewBox="0 0 20 20" fill="none" xmlns="http://www.w3.org/2000/svg">
<path d="M9.7462 8.64692C9.13314 9.25999 8.05181 10.3283 7.39622 10.9839C6.74064 11.6395 6.84561 12.5546 7.37965 13.0887C7.91369 13.6227 8.85069 13.7546 9.50877 13.0965C10.1669 12.4384 13.7559 8.89253 13.7559 8.89253C14.7999 7.84861 15.3854 7.26286 15.3854 6.22429C15.3854 5.56085 15.1056 4.66304 14.4114 3.96878C13.7171 3.27451 12.8239 3 12.1611 3C11.1279 3 10.5176 3.61053 9.49755 4.63059L4.56323 9.52599C3.90045 10.1894 3.5293 11.0784 3.5293 12.0205C3.5293 12.9626 3.51998 14.1787 4.93419 15.593C6.3484 17.0072 7.52859 17.0072 8.46972 17.0072C9.41086 17.0072 10.2818 16.61 10.9446 15.9465L15.5 11.5" stroke="#B2B8BF" stroke-width="2" stroke-linecap="round" stroke-linejoin="round"/>
</svg>
