<svg width="24" height="24" viewBox="0 0 24 24" fill="none" xmlns="http://www.w3.org/2000/svg">
<path d="M15.2905 7.29006C15.6805 6.90006 16.3105 6.90006 16.7005 7.29006C17.0905 7.68006 17.0905 8.31006 16.7005 8.70006L13.4105 12.0001L16.7005 15.2901C17.0905 15.6801 17.0905 16.3101 16.7005 16.7001C16.3105 17.0901 15.6805 17.0901 15.2905 16.7001L12.0005 13.4101L8.70055 16.7001C8.31055 17.0901 7.68055 17.0901 7.29055 16.7001C6.90055 16.3101 6.90055 15.6801 7.29055 15.2901L10.5805 12.0001L7.29055 8.70006C6.90055 8.31006 6.90055 7.68006 7.29055 7.29006C7.68055 6.90006 8.31055 6.90006 8.70055 7.29006L12.0005 10.5801L15.2905 7.29006Z" fill="#F2F4F7"/>
</svg>
