<svg width="32" height="32" viewBox="0 0 32 32" fill="none" xmlns="http://www.w3.org/2000/svg">
<path d="M16.9995 8C16.1302 8 15.3881 8.5551 15.113 9.33325C14.929 9.85396 14.3577 10.1269 13.8369 9.94284C13.3162 9.75879 13.0433 9.18747 13.2274 8.66675C13.776 7.11451 15.2563 6 16.9995 6C19.2086 6 20.9995 7.79086 20.9995 10C20.9995 11.8638 19.7247 13.4299 17.9995 13.874V15.5C17.9995 16.0523 17.5518 16.5 16.9995 16.5C16.4472 16.5 15.9995 16.0523 15.9995 15.5V13C15.9995 12.4477 16.4472 12 16.9995 12C18.1041 12 18.9995 11.1046 18.9995 10C18.9995 8.89543 18.1041 8 16.9995 8Z" fill="#B2B8BF"/>
<path d="M17 20C17.5523 20 18 19.5523 18 19C18 18.4477 17.5523 18 17 18C16.4477 18 16 18.4477 16 19C16 19.5523 16.4477 20 17 20Z" fill="#B2B8BF"/>
<path fill-rule="evenodd" clip-rule="evenodd" d="M25.7049 24.6964L24.6348 21.9449C24.2997 21.0833 24.3876 20.149 24.8757 19.4325C24.9753 19.2862 25.0764 19.1392 25.1783 18.9911L25.1791 18.9898C26.5225 17.0359 27.9998 14.887 27.9998 11.8325C27.9998 5.85648 23.1871 1 17.2357 1C11.2843 1 6.47157 5.85648 6.47157 11.8325C6.47157 11.9111 6.46975 12.0385 6.46751 12.1959L6.46749 12.1969C6.46548 12.3381 6.46312 12.5035 6.46143 12.679C6.45948 12.8801 6.45804 13.1123 6.46165 13.3107C5.95308 14.2331 4.74729 16.045 4.42053 16.5352C3.97791 17.1991 3.90709 17.9581 4.10374 18.5829C4.28059 19.1449 4.79928 19.8652 5.69641 19.8652H6.47123L6.4717 21.9719C6.4717 23.4918 7.87264 25.1911 10.1346 25.1911H12.1796L14.5661 29.9641C14.8098 30.4514 15.3986 30.654 15.8905 30.4198L25.1947 25.9891C25.3187 25.9329 25.4261 25.854 25.5138 25.7593C25.7731 25.4799 25.8581 25.0657 25.7049 24.6964ZM25.9998 11.8325C25.9998 6.94786 22.0694 3 17.2357 3C12.402 3 8.47157 6.94786 8.47157 11.8325C8.47157 11.9195 8.4694 12.0746 8.46693 12.2519C8.46494 12.3944 8.46276 12.5511 8.46133 12.6983C8.45789 13.054 8.45938 13.3332 8.46634 13.4347C8.47967 13.5603 8.46934 13.6894 8.43306 13.8152C8.41477 13.8789 8.39027 13.9402 8.36019 13.9983C7.88181 14.9491 6.43985 17.1118 6.09928 17.6226L6.08463 17.6446C6.0295 17.7273 6.00726 17.8035 6.00153 17.8652H7.4717C8.02399 17.8652 8.4717 18.3139 8.4717 18.8661V21.9719C8.4717 22.3371 8.92636 23.1911 10.1346 23.1911H12.7976C13.1764 23.1911 13.5226 23.4051 13.692 23.7438L15.9163 28.1923L23.5119 24.5753L22.7708 22.6699C22.2181 21.2487 22.3319 19.6142 23.2228 18.3065C23.3071 18.1827 23.3907 18.0605 23.4735 17.9395C24.8629 15.9083 25.9998 14.2462 25.9998 11.8325Z" fill="#B2B8BF"/>
</svg>
