<svg width="20" height="19" viewBox="0 0 20 19" fill="none" xmlns="http://www.w3.org/2000/svg">
<path fill-rule="evenodd" clip-rule="evenodd" d="M15.8792 1.20798C16.6291 0.780526 17.5888 0.892921 18.2071 1.48018C18.8256 2.06767 18.9435 2.97952 18.4937 3.69177L18.4937 3.69178L16.0706 7.52833L17.8539 14.305C18.0112 14.9027 17.8269 15.535 17.3683 15.9706C16.596 16.7043 15.3256 16.6441 14.6339 15.841L11.3191 11.9922L9.00001 13.5659V15.927C9.00001 16.1789 8.89465 16.4206 8.70711 16.5987L7.70711 17.5487C7.48937 17.7556 7.18345 17.8556 6.87782 17.8199C6.5722 17.7841 6.30095 17.6166 6.14251 17.3658L4.70585 15.091L3.87995 14.3064L1.48551 12.9416C1.22146 12.7911 1.04512 12.5334 1.0075 12.2431C0.969876 11.9527 1.07516 11.6621 1.2929 11.4552L2.2929 10.5052C2.48044 10.3271 2.73479 10.227 3.00001 10.227H5.48539L7.1419 8.02383L3.09048 4.87477C2.24511 4.21769 2.18175 3.01083 2.9541 2.27709C3.41267 1.84145 4.07822 1.66633 4.70737 1.81575L11.8407 3.50992L15.8792 1.20801C15.8792 1.208 15.8792 1.20799 15.8792 1.20798ZM16.5845 3.02171L12.5145 5.34161C12.2871 5.47124 12.0148 5.50973 11.7575 5.44862L4.8882 3.81717L9.13325 7.11673C9.54103 7.43369 9.61999 7.99686 9.31374 8.40417L6.81374 11.7292C6.62603 11.9788 6.32296 12.127 6.00001 12.127H3.94366L5.0145 12.7374C5.08461 12.7773 5.1493 12.8253 5.20711 12.8802L6.20711 13.8302C6.26493 13.8852 6.31543 13.9466 6.3575 14.0132L7.00001 15.0305V13.077C7.00001 12.7702 7.15597 12.4823 7.41877 12.3039L10.9188 9.92894C11.3475 9.63801 11.9403 9.71302 12.274 10.1004L15.7472 14.1332L14.0299 7.6074C13.9655 7.36296 14.0061 7.10427 14.1425 6.88822L16.5845 3.02171ZM16.9081 2.83728L16.9082 2.83722L16.9081 2.83728Z" fill="#B2B8BF"/>
</svg>
