<svg width="20" height="20" viewBox="0 0 20 20" fill="none" xmlns="http://www.w3.org/2000/svg">
<path d="M2 3.5C2 4.05228 1.55228 4.5 1 4.5C0.447715 4.5 0 4.05228 0 3.5V3C0 1.34315 1.34315 0 3 0H13C14.6569 0 16 1.34315 16 3V3.5C16 4.05228 15.5523 4.5 15 4.5C14.4477 4.5 14 4.05228 14 3.5V3C14 2.44772 13.5523 2 13 2H3C2.44772 2 2 2.44772 2 3V3.5Z" fill="#B2B8BF"/>
<path d="M2 16.5C2 15.9477 1.55228 15.5 1 15.5C0.447715 15.5 0 15.9477 0 16.5V17C0 18.6569 1.34315 20 3 20H13C14.6569 20 16 18.6569 16 17V16.5C16 15.9477 15.5523 15.5 15 15.5C14.4477 15.5 14 15.9477 14 16.5V17C14 17.5523 13.5523 18 13 18H3C2.44772 18 2 17.5523 2 17V16.5Z" fill="#B2B8BF"/>
<path fill-rule="evenodd" clip-rule="evenodd" d="M7 7C7 6.44772 7.44772 6 8 6H9.88235C11.0046 6 11.8238 6.61888 12.3177 7.40601C12.7943 8.16565 13 9.11236 13 10C13 10.8876 12.7943 11.8343 12.3177 12.594C11.8238 13.3811 11.0046 14 9.88235 14H8C7.44772 14 7 13.5523 7 13V7ZM9.88235 8H9V12H9.88235C10.1719 12 10.4115 11.8689 10.6235 11.531C10.8528 11.1657 11 10.6124 11 10C11 9.38764 10.8528 8.83435 10.6235 8.46899C10.4115 8.13112 10.1719 8 9.88235 8Z" fill="#B2B8BF"/>
<path fill-rule="evenodd" clip-rule="evenodd" d="M1 6C0.447715 6 0 6.44772 0 7V13C0 13.5523 0.447715 14 1 14C1.55228 14 2 13.5523 2 13V12H2.5C3.48292 12 4.3104 11.6663 4.89461 11.0821C5.4694 10.5073 5.75 9.74736 5.75 9C5.75 8.25264 5.4694 7.49269 4.89461 6.91789C4.3104 6.33369 3.48292 6 2.5 6H1ZM2.5 10H2V8H2.5C3.01708 8 3.3146 8.16631 3.48039 8.33211C3.6556 8.50731 3.75 8.74736 3.75 9C3.75 9.25264 3.6556 9.49269 3.48039 9.66789C3.3146 9.83369 3.01708 10 2.5 10Z" fill="#B2B8BF"/>
<path d="M14 7C14 6.44772 14.4477 6 15 6H19C19.5523 6 20 6.44772 20 7C20 7.55228 19.5523 8 19 8H16V9H18C18.5523 9 19 9.44771 19 10C19 10.5523 18.5523 11 18 11H16V13C16 13.5523 15.5523 14 15 14C14.4477 14 14 13.5523 14 13V7Z" fill="#B2B8BF"/>
</svg>
