<svg width="16" height="16" viewBox="0 0 16 16" fill="none" xmlns="http://www.w3.org/2000/svg">
<path fill-rule="evenodd" clip-rule="evenodd" d="M8 1C5.79086 1 4 2.79086 4 5C4 7.20914 5.79086 9 8 9C10.2091 9 12 7.20914 12 5C12 2.79086 10.2091 1 8 1ZM6 5C6 3.89543 6.89543 3 8 3C9.10457 3 10 3.89543 10 5C10 6.10457 9.10457 7 8 7C6.89543 7 6 6.10457 6 5Z" fill="#B2B8BF"/>
<path fill-rule="evenodd" clip-rule="evenodd" d="M2.76371 16H13.2363C13.8682 16 14.6866 15.6329 14.8794 14.7795C14.9591 14.4291 15 14.0727 15 13.7197C15 11.9499 14.0215 10.354 12.4702 9.30162L12.4692 9.30092C11.8719 8.89681 11.0416 8.89858 10.4462 9.31307C9.78121 9.77598 8.8945 10.0499 7.9482 10.0499C7.02031 10.0499 6.14587 9.78554 5.4857 9.33745L5.4838 9.33616C4.88602 8.93243 4.05769 8.93482 3.46231 9.34789L3.46083 9.34892C1.95073 10.4007 1 11.9794 1 13.7197C1 14.0741 1.04171 14.4305 1.12052 14.7792C1.31374 15.6309 2.13 16 2.76371 16ZM7.9482 12.0499C9.21086 12.0499 10.4542 11.7021 11.4645 11.0386C12.4923 11.7806 13 12.7647 13 13.7197C13 13.8115 12.9951 13.9052 12.9851 14H3.01507C3.00499 13.9049 3 13.8112 3 13.7197C3 12.7821 3.49277 11.8118 4.48682 11.0742C5.48681 11.7146 6.71002 12.0499 7.9482 12.0499Z" fill="#B2B8BF"/>
</svg>
