<svg width="24" height="24" viewBox="0 0 24 24" fill="none" xmlns="http://www.w3.org/2000/svg">
<path d="M20.4864 3.29289C20.8769 3.68342 20.8769 4.31658 20.4864 4.70711L19.9891 5.20439C20.0464 5.30981 20.1205 5.44977 20.2062 5.62038C20.4055 6.01707 20.6695 6.58245 20.9332 7.2667C21.4563 8.62368 22.0002 10.5029 22.0002 12.4851C22.0002 14.4673 21.4563 16.3465 20.9332 17.7035C20.6695 18.3878 20.4055 18.9532 20.2062 19.3498C20.1064 19.5485 20.0224 19.7056 19.9623 19.8149C19.9322 19.8697 19.908 19.9125 19.8907 19.9427L19.8701 19.9785L19.8639 19.9891L19.8611 19.9938C19.8611 19.9938 19.8606 19.9947 19.0002 19.4851L19.8606 19.9947C19.5791 20.4699 18.9657 20.627 18.4905 20.3455C18.0157 20.0642 17.8585 19.4515 18.1392 18.9764L18.1398 18.9755L18.1417 18.9722L18.1545 18.9499C18.1666 18.9289 18.1853 18.8956 18.2099 18.8509C18.2591 18.7615 18.3314 18.6265 18.4191 18.4519C18.5948 18.1023 18.8308 17.597 19.0671 16.9842C19.544 15.747 20.0002 14.1262 20.0002 12.4851C20.0002 10.844 19.544 9.22325 19.0671 7.98606C18.867 7.46705 18.6671 7.02521 18.5038 6.68968L16.2762 8.91729C16.2837 8.93415 16.2907 8.9513 16.2973 8.96874C16.6033 9.7765 17.0002 11.0845 17.0002 12.4851C17.0002 13.6695 16.7166 14.784 16.4478 15.5811C16.3117 15.9844 16.1754 16.3182 16.0719 16.5537C16.02 16.6716 15.9761 16.7655 15.9442 16.8318C15.9283 16.865 15.9153 16.8913 15.9057 16.9104L15.8941 16.9334L15.8904 16.9407L15.8885 16.9443L15.0002 16.4851C15.8881 16.9452 15.8885 16.9443 15.8885 16.9443C15.6344 17.4347 15.0304 17.627 14.5401 17.3729C14.0502 17.119 13.8586 16.5165 14.1116 16.0265L14.112 16.0255L14.1171 16.0154C14.1223 16.0052 14.1308 15.988 14.1421 15.9644C14.1649 15.9171 14.1991 15.8441 14.241 15.7488C14.325 15.5577 14.4387 15.2797 14.5527 14.9419C14.7838 14.2566 15.0002 13.3711 15.0002 12.4851C15.0002 11.7864 14.8658 11.0906 14.6976 10.4959L11.7601 13.4334C11.8722 13.595 11.9378 13.7911 11.9378 14.0027V19.302C11.9378 20.4066 11.0424 21.302 9.93784 21.302C9.39942 21.302 8.88374 21.0849 8.50743 20.6999L6.52365 18.6699L4.22399 20.9695C4.22399 20.9695 4.22328 20.9702 3.51617 20.2631L2.80924 19.5558L19.0722 3.29289C19.4627 2.90237 20.0959 2.90237 20.4864 3.29289Z" fill="white"/>
<path d="M2.80924 19.5558C2.41872 19.9464 2.41854 20.5797 2.80906 20.9702C3.19959 21.3608 3.83275 21.3608 4.22328 20.9702L3.51617 20.2631C2.80906 19.556 2.80924 19.5558 2.80924 19.5558Z" fill="white"/>
<path d="M12 6.46724C12 4.68047 9.83545 3.79039 8.57853 5.06033L6.10408 7.56038C6.00624 7.65923 5.88885 7.73659 5.75941 7.78751L3.90179 8.51825C2.75439 8.96961 2 10.077 2 11.31V15.485C2 15.8895 2.24364 16.2541 2.61732 16.4089C2.99099 16.5637 3.42111 16.4781 3.70711 16.1921L11.7071 8.1921C11.8946 8.00456 12 7.75021 12 7.48499V6.46724Z" fill="white"/>
</svg>
