<svg width="32" height="32" viewBox="0 0 32 32" fill="none" xmlns="http://www.w3.org/2000/svg">
<path fill-rule="evenodd" clip-rule="evenodd" d="M18 2.00003H4.7C3.77057 2.00003 3 2.76386 3 3.7273V28.2728C3 29.2362 3.77057 30 4.7 30H27.3C28.2294 30 29 29.2362 29 28.2728V13H23C20.2386 13 18 10.7615 18 8.00003V2.00003ZM30.7071 11.2929C30.725 11.3108 30.7421 11.3292 30.7584 11.3482C30.9062 11.5201 30.9889 11.7343 30.999 11.9543L30.7071 11.2929ZM19.7071 0.292922L30.7071 11.2929L31 12.0079V28.2728C31 30.3218 29.3529 32 27.3 32H4.7C2.64709 32 1 30.3218 1 28.2728V3.7273C1 1.67829 2.64709 3.05134e-05 4.7 3.05134e-05H18.992C19.0103 -0.000112916 19.0287 0.000249499 19.047 0.00111357C19.2619 0.011265 19.4713 0.0906567 19.641 0.232502C19.6638 0.251524 19.6859 0.27167 19.7071 0.292922ZM20 8.00003V3.41424L27.5858 11H23C21.3431 11 20 9.65688 20 8.00003ZM5.41884 16.1863C5.86825 15.8653 6.4928 15.9694 6.81381 16.4188L8.5 18.7794L10.1862 16.4188C10.5072 15.9694 11.1317 15.8653 11.5812 16.1863C12.0306 16.5073 12.1347 17.1318 11.8137 17.5813L9.7289 20.4999L11.8138 23.4188C12.1348 23.8682 12.0307 24.4927 11.5813 24.8138C11.1319 25.1348 10.5074 25.0307 10.1863 24.5813L8.5 22.2204L6.81366 24.5813C6.49265 25.0307 5.8681 25.1348 5.41868 24.8138C4.96927 24.4927 4.86518 23.8682 5.18619 23.4188L7.2711 20.4999L5.18634 17.5813C4.86534 17.1318 4.96943 16.5073 5.41884 16.1863ZM23 16C23.5523 16 24 16.4477 24 17V23H26.5C27.0523 23 27.5 23.4477 27.5 24C27.5 24.5523 27.0523 25 26.5 25H23C22.4477 25 22 24.5523 22 24V17C22 16.4477 22.4477 16 23 16ZM14.7593 16.3492C14.4869 16.0315 14.0455 15.9169 13.6531 16.0621C13.2606 16.2073 13 16.5815 13 17V24C13 24.5523 13.4477 25 14 25C14.5523 25 15 24.5523 15 24V19.7033L16.2407 21.1508C16.4307 21.3725 16.7081 21.5 17 21.5C17.2919 21.5 17.5693 21.3725 17.7593 21.1508L19 19.7033V24C19 24.5523 19.4477 25 20 25C20.5523 25 21 24.5523 21 24V17C21 16.5815 20.7394 16.2073 20.3469 16.0621C19.9545 15.9169 19.5131 16.0315 19.2407 16.3492L17 18.9634L14.7593 16.3492Z" fill="#B2B8BF"/>
</svg>
