<svg width="20" height="20" viewBox="0 0 20 20" fill="none" xmlns="http://www.w3.org/2000/svg">
<path d="M10.0009 1C10.3816 1 10.7292 1.2161 10.8977 1.55743L13.31 6.44542L18.7043 7.22924C19.0809 7.28398 19.3939 7.54782 19.5115 7.90983C19.6291 8.27184 19.531 8.66924 19.2585 8.93493L15.3552 12.7397L16.2766 18.1121C16.341 18.4873 16.1867 18.8664 15.8788 19.0902C15.5709 19.3139 15.1626 19.3434 14.8257 19.1663L10.0009 16.6298L5.17622 19.1663C4.8393 19.3434 4.43104 19.3139 4.12309 19.0902C3.81515 18.8664 3.66092 18.4873 3.72527 18.1121L4.64671 12.7397L0.743424 8.93493C0.470851 8.66924 0.372754 8.27184 0.490379 7.90983C0.608004 7.54782 0.920951 7.28398 1.29764 7.22924L6.69184 6.44542L9.10421 1.55743C9.27267 1.2161 9.6203 1 10.0009 1Z" fill="#D0D7DD"/>
</svg>
