<svg width="24" height="24" viewBox="0 0 24 24" fill="none" xmlns="http://www.w3.org/2000/svg">
<path fill-rule="evenodd" clip-rule="evenodd" d="M18 3C18.29 3 18.57 3.03 18.85 3.09C19.09 3.14 19.32 3.21 19.55 3.31C19.78 3.41 20 3.52 20.2 3.66C20.42 3.8 20.63 3.97 20.82 4.17C21.02 4.36 21.19 4.57 21.33 4.79C21.47 4.99 21.58 5.21 21.68 5.44C21.78 5.67 21.85 5.9 21.9 6.14C21.96 6.42 22 6.7 22 7V16C22 16.29 21.96 16.57 21.9 16.85C21.85 17.09 21.78 17.32 21.68 17.55C21.58 17.78 21.47 18 21.33 18.2C21.19 18.42 21.02 18.63 20.82 18.82C20.63 19.02 20.42 19.19 20.2 19.33C20 19.47 19.78 19.58 19.55 19.68C19.32 19.78 19.09 19.85 18.85 19.9C18.57 19.96 18.29 20 18 20H6C5.7 20 5.42 19.96 5.14 19.9C4.9 19.85 4.67 19.78 4.44 19.68C4.21 19.58 3.99 19.47 3.79 19.33C3.57 19.19 3.36 19.02 3.17 18.82C2.97 18.63 2.8 18.42 2.66 18.2C2.52 18 2.41 17.78 2.31 17.55C2.21 17.32 2.14 17.09 2.09 16.85C2.03 16.57 2 16.29 2 16V7C2 6.7 2.03 6.42 2.09 6.14C2.14 5.9 2.21 5.67 2.31 5.44C2.41 5.21 2.52 4.99 2.66 4.79C2.8 4.57 2.97 4.36 3.17 4.17C3.36 3.97 3.57 3.8 3.79 3.66C3.99 3.52 4.21 3.41 4.44 3.31C4.67 3.21 4.9 3.14 5.14 3.09C5.42 3.03 5.7 3 6 3H18ZM18 5H6C5.84 5 5.68 5.01 5.53 5.05C5.43 5.07 5.32 5.11 5.22 5.15C5.11 5.2 5.01 5.25 4.91 5.32C4.79 5.39 4.68 5.48 4.58 5.58C4.48 5.68 4.39 5.79 4.32 5.91C4.25 6.01 4.2 6.11 4.15 6.22C4.11 6.32 4.07 6.43 4.05 6.53C4.01 6.68 4 6.84 4 7V16C4 16.15 4.01 16.31 4.05 16.46C4.07 16.56 4.11 16.67 4.15 16.77C4.2 16.88 4.25 16.98 4.32 17.08C4.39 17.2 4.48 17.31 4.58 17.41C4.68 17.51 4.79 17.6 4.91 17.67C5.01 17.74 5.11 17.79 5.22 17.84C5.32 17.88 5.43 17.92 5.53 17.94C5.68 17.98 5.84 18 6 18H18C18.15 18 18.31 17.98 18.46 17.94C18.56 17.92 18.67 17.88 18.77 17.84C18.88 17.79 18.98 17.74 19.08 17.67C19.2 17.6 19.31 17.51 19.41 17.41C19.51 17.31 19.6 17.2 19.67 17.08C19.74 16.98 19.79 16.88 19.84 16.77C19.88 16.67 19.92 16.56 19.94 16.46C19.98 16.31 20 16.15 20 16V7C20 6.84 19.98 6.68 19.94 6.54C19.92 6.43 19.88 6.32 19.84 6.22C19.79 6.11 19.74 6.01 19.67 5.91C19.6 5.79 19.51 5.68 19.41 5.58C19.31 5.48 19.2 5.39 19.08 5.32C18.99 5.25 18.88 5.2 18.77 5.15C18.67 5.11 18.56 5.07 18.46 5.05C18.31 5.01 18.15 5 18 5ZM7.5 7C6.67 7 6 7.67 6 8.5C6 9.32 6.67 10 7.5 10C8.32 10 9 9.32 9 8.5C9 7.67 8.32 7 7.5 7ZM10.2 14.4L12.8 10.93C12.87 10.83 12.96 10.74 13.05 10.66C13.14 10.59 13.24 10.53 13.34 10.48C13.44 10.43 13.54 10.39 13.65 10.37C13.76 10.34 13.88 10.33 14 10.33C14.11 10.33 14.23 10.34 14.34 10.37C14.45 10.39 14.55 10.43 14.65 10.48C14.75 10.53 14.85 10.59 14.94 10.66C15.03 10.74 15.12 10.83 15.2 10.93L17.79 14.4C18.13 14.84 18.04 15.46 17.6 15.8C17.15 16.13 16.53 16.04 16.2 15.6L14 12.66L11.8 15.6C11.46 16.04 10.84 16.13 10.39 15.8C9.95 15.46 9.86 14.84 10.2 14.4ZM9.83 12.55L7.83 15.55C7.52 16.02 6.91 16.14 6.44 15.83C5.97 15.52 5.85 14.91 6.16 14.44L8.16 11.44C8.47 10.97 9.08 10.85 9.55 11.16C10.02 11.47 10.14 12.08 9.83 12.55Z" fill="#21A19A"/>
</svg>
