<svg width="32" height="32" viewBox="0 0 32 32" fill="none" xmlns="http://www.w3.org/2000/svg">
<path fill-rule="evenodd" clip-rule="evenodd" d="M16 32C24.8366 32 32 24.8366 32 16C32 7.16344 24.8366 0 16 0C7.16344 0 0 7.16344 0 16C0 24.8366 7.16344 32 16 32ZM16.9316 5C15.4624 5 14.7797 6.73947 15.708 7.7454L14.3953 10.0427C14.1362 10.496 14 11.009 14 11.5311V14.0272L14.7507 14.2205C17.7701 14.9976 20 17.7397 20 21C20 21.9301 19.8191 22.8155 19.4915 23.6248L18.9349 25H21C22.6569 25 24 23.6569 24 22V11.5311C24 11.009 23.8638 10.496 23.6047 10.0427L22.292 7.7454C23.2203 6.73947 22.5376 5 21.0684 5H16.9316ZM13 16C12.6342 16 12.2776 16.0393 11.9342 16.1138C11.8372 15.4956 11.618 14.8593 11.1809 14.3128C10.4946 13.455 9.42071 13 8 13C7.44772 13 7 13.4477 7 14C7 14.5523 7.44772 15 8 15C8.97929 15 9.40535 15.295 9.61913 15.5622C9.86695 15.872 9.99995 16.3567 10 16.9996C8.78555 17.9118 8 19.3642 8 21C8 23.7614 10.2386 26 13 26C15.7614 26 18 23.7614 18 21C18 18.2386 15.7614 16 13 16Z" fill="#B2B8BF"/>
</svg>
