<svg width="16" height="16" viewBox="0 0 16 16" fill="none" xmlns="http://www.w3.org/2000/svg">
<path d="M3.00073 0C2.44845 0 2.00073 0.447715 2.00073 1C2.00073 1.55228 2.44845 2 3.00073 2H13.0007C13.553 2 14.0007 1.55228 14.0007 1C14.0007 0.447715 13.553 0 13.0007 0H3.00073Z" fill="#B2B8BF"/>
<path fill-rule="evenodd" clip-rule="evenodd" d="M2.22254 6.20709C2.25306 6.26558 2.27846 6.30114 2.29527 6.32133C2.34789 6.3315 2.39307 6.33831 2.43155 6.34247C2.54921 5.8193 3.06138 5.47963 3.59246 5.57984C4.13517 5.68224 4.49212 6.2052 4.38972 6.74791C4.26335 7.41764 3.89519 7.97698 3.24324 8.22293C2.70385 8.4264 2.14452 8.33823 1.78213 8.25708C1.1069 8.10588 0.677855 7.57012 0.449393 7.13227C0.202927 6.6599 0.0658581 6.07997 0.0958871 5.50094C0.126269 4.91511 0.334193 4.2657 0.854507 3.76156C1.38228 3.25019 2.11579 3 2.9774 3H13.1151C13.9767 3 14.7102 3.25019 15.238 3.76156C15.7583 4.2657 15.9663 4.91511 15.9966 5.50094C16.0267 6.07997 15.8896 6.6599 15.6431 7.13227C15.4147 7.57012 14.9856 8.10588 14.3104 8.25708C13.948 8.33823 13.3887 8.4264 12.8493 8.22293C12.1973 7.97698 11.8292 7.41764 11.7028 6.74791C11.6004 6.2052 11.9574 5.68224 12.5001 5.57984C13.0311 5.47963 13.5433 5.8193 13.661 6.34247C13.6995 6.33831 13.7446 6.3315 13.7973 6.32133C13.8141 6.30114 13.8395 6.26558 13.87 6.20709C13.956 6.04225 14.0103 5.81652 13.9993 5.60453C13.9887 5.39934 13.9232 5.27239 13.8463 5.19792C13.7769 5.13067 13.5895 5 13.1151 5H2.9774C2.50303 5 2.31562 5.13067 2.24622 5.19792C2.16936 5.27239 2.10384 5.39934 2.0932 5.60453C2.08221 5.81652 2.13653 6.04225 2.22254 6.20709Z" fill="#B2B8BF"/>
<path d="M5.00073 16C4.44845 16 4.00073 15.5523 4.00073 15V9C4.00073 8.44772 4.44845 8 5.00073 8C5.55302 8 6.00073 8.44772 6.00073 9V15C6.00073 15.5523 5.55302 16 5.00073 16Z" fill="#B2B8BF"/>
<path d="M7.00073 15C7.00073 15.5523 7.44845 16 8.00073 16C8.55302 16 9.00073 15.5523 9.00073 15V7C9.00073 6.44771 8.55302 6 8.00073 6C7.44845 6 7.00073 6.44771 7.00073 7V15Z" fill="#B2B8BF"/>
<path d="M11.0007 16C10.4484 16 10.0007 15.5523 10.0007 15V9C10.0007 8.44772 10.4484 8 11.0007 8C11.553 8 12.0007 8.44772 12.0007 9V15C12.0007 15.5523 11.553 16 11.0007 16Z" fill="#B2B8BF"/>
</svg>
