<svg width="32" height="32" viewBox="0 0 32 32" fill="none" xmlns="http://www.w3.org/2000/svg">
<path fill-rule="evenodd" clip-rule="evenodd" d="M32 16C32 24.8366 24.8366 32 16 32C7.16344 32 0 24.8366 0 16C0 7.16344 7.16344 0 16 0C24.8366 0 32 7.16344 32 16ZM9.07681 8.92875C9.11419 8.40545 9.54963 8 10.0743 8H21.9263C22.451 8 22.8864 8.40545 22.9238 8.92875L23.9238 22.9288C23.9651 23.5076 23.5067 24 22.9263 24H9.07427C8.49393 24 8.03546 23.5076 8.07681 22.9288L9.07681 8.92875ZM14 11.8C14 13.0768 14.9552 14 16 14C17.0448 14 18 13.0768 18 11.8V11C18 10.4477 18.4477 10 19 10C19.5523 10 20 10.4477 20 11V11.8C20 14.0578 18.269 16 16 16C13.731 16 12 14.0578 12 11.8V11C12 10.4477 12.4477 10 13 10C13.5523 10 14 10.4477 14 11V11.8Z" fill="#B2B8BF"/>
</svg>
