<svg width="64" height="64" viewBox="0 0 64 64" fill="none" xmlns="http://www.w3.org/2000/svg">
<path fill-rule="evenodd" clip-rule="evenodd" d="M38 16C38 11.0294 42.0294 7 47 7C51.9706 7 56 11.0294 56 16C56 18.1251 55.2635 20.0781 54.0318 21.6178L57.707 25.293C58.0976 25.6835 58.0976 26.3167 57.707 26.7072C57.3165 27.0977 56.6833 27.0977 56.2928 26.7072L52.6176 23.032C51.0779 24.2636 49.125 25 47 25C42.0294 25 38 20.9706 38 16ZM47 9C43.134 9 40 12.134 40 16C40 19.866 43.134 23 47 23C50.866 23 54 19.866 54 16C54 12.134 50.866 9 47 9Z" fill="#B2B8BF"/>
<path d="M15 15.6364C15 14.1708 16.1735 13 17.6 13H34C34.5523 13 35 12.5523 35 12C35 11.4477 34.5523 11 34 11H17.6C15.05 11 13 13.0853 13 15.6364V48.3636C13 50.9147 15.05 53 17.6 53H46.4C48.95 53 51 50.9147 51 48.3636V29C51 28.4477 50.5523 28 50 28C49.4477 28 49 28.4477 49 29V48.3636C49 49.8292 47.8265 51 46.4 51H17.6C16.1735 51 15 49.8292 15 48.3636V15.6364Z" fill="#B2B8BF"/>
<path d="M23 20C23 19.4477 23.4477 19 24 19H29C29.5523 19 30 19.4477 30 20C30 20.5523 29.5523 21 29 21H24C23.4477 21 23 20.5523 23 20Z" fill="#B2B8BF"/>
<path d="M23 28C23 27.4477 23.4477 27 24 27H29C29.5523 27 30 27.4477 30 28C30 28.5523 29.5523 29 29 29H24C23.4477 29 23 28.5523 23 28Z" fill="#B2B8BF"/>
<path d="M24 35C23.4477 35 23 35.4477 23 36C23 36.5523 23.4477 37 24 37H40C40.5523 37 41 36.5523 41 36C41 35.4477 40.5523 35 40 35H24Z" fill="#B2B8BF"/>
<path d="M23 44C23 43.4477 23.4477 43 24 43H40C40.5523 43 41 43.4477 41 44C41 44.5523 40.5523 45 40 45H24C23.4477 45 23 44.5523 23 44Z" fill="#B2B8BF"/>
</svg>
