<svg width="64" height="64" viewBox="0 0 64 64" fill="none" xmlns="http://www.w3.org/2000/svg">
<path d="M20.4454 33.1681C20.9049 32.8617 21.5258 32.9859 21.8322 33.4454L24 36.6972L26.1678 33.4454C26.4742 32.9859 27.0951 32.8617 27.5546 33.1681C28.0141 33.4744 28.1383 34.0953 27.8319 34.5548L25.2018 38.4999L27.8322 42.4454C28.1385 42.9049 28.0143 43.5258 27.5548 43.8322C27.0953 44.1385 26.4744 44.0143 26.1681 43.5548L24 40.3027L21.8319 43.5548C21.5256 44.0143 20.9047 44.1385 20.4452 43.8322C19.9857 43.5258 19.8615 42.9049 20.1678 42.4454L22.7982 38.4999L20.1681 34.5548C19.8617 34.0953 19.9859 33.4744 20.4454 33.1681Z" fill="#B2B8BF"/>
<path d="M31 33C31.5523 33 32 33.4477 32 34V42H35C35.5523 42 36 42.4477 36 43C36 43.5523 35.5523 44 35 44H31C30.4477 44 30 43.5523 30 43V34C30 33.4477 30.4477 33 31 33Z" fill="#B2B8BF"/>
<path fill-rule="evenodd" clip-rule="evenodd" d="M40 33C39.1272 33 38.194 33.1838 37.4414 33.6139C36.6691 34.0552 36 34.8232 36 35.9286C36 37.0336 36.6696 37.7786 37.3563 38.2691C38.0077 38.7344 38.8416 39.0917 39.5508 39.3955L39.6061 39.4191C40.3853 39.7531 41.0247 40.0323 41.4813 40.3584C41.9196 40.6715 42 40.8908 42 41.0714C42 41.2518 41.9191 41.448 41.5664 41.6496C41.194 41.8624 40.6272 42 40 42C39.3969 42 38.968 41.8715 38.7064 41.7594C38.5744 41.7028 38.4827 41.6494 38.4314 41.6164C38.406 41.6001 38.3906 41.5889 38.3853 41.5849C37.9661 41.2397 37.3458 41.2922 36.9907 41.7064C36.6347 42.1218 36.6864 42.7644 37.1023 43.119C37.1293 43.1417 37.1569 43.1636 37.1852 43.1848C37.2269 43.216 37.2818 43.255 37.3499 43.2988C37.4861 43.3863 37.6756 43.4936 37.9186 43.5977C38.407 43.807 39.1031 44 40 44C40.8728 44 41.806 43.8162 42.5586 43.3861C43.3309 42.9448 44 42.1768 44 41.0714C44 39.9664 43.3304 39.2214 42.6437 38.7309C41.9923 38.2656 41.1583 37.9083 40.4491 37.6045L40.3939 37.5809C39.6147 37.2469 38.9753 36.9677 38.5187 36.6416C38.0804 36.3285 38 36.1092 38 35.9286C38 35.7482 38.0809 35.552 38.4336 35.3504C38.806 35.1376 39.3728 35 40 35C40.6031 35 41.032 35.1285 41.2936 35.2406C41.4256 35.2972 41.5173 35.3506 41.5686 35.3836C41.594 35.3999 41.6094 35.4111 41.6147 35.4151C42.0339 35.7603 42.6542 35.7078 43.0093 35.2936C43.3673 34.876 43.312 34.2332 42.8943 33.8781L42.8676 33.8561C42.8533 33.8446 42.8357 33.8309 42.8148 33.8152C42.7731 33.784 42.7182 33.745 42.6501 33.7012C42.5139 33.6137 42.3244 33.5064 42.0814 33.4023C41.593 33.193 40.8969 33 40 33ZM38.3853 41.5849C38.3827 41.5828 38.3827 41.583 38.3853 41.5849V41.5849Z" fill="#B2B8BF"/>
<path fill-rule="evenodd" clip-rule="evenodd" d="M50.9684 27.2496C50.989 27.3296 51 27.4135 51 27.5V48.3636C51 50.9147 48.95 53 46.4 53H17.6C15.05 53 13 50.9147 13 48.3636V15.6364C13 13.0853 15.05 11 17.6 11H35.9997C36.291 11 36.5536 11.1246 36.7363 11.3234L50.7311 26.3177C50.9665 26.57 51.0528 26.9224 50.9684 27.2496ZM35 13H17.6C16.1735 13 15 14.1708 15 15.6364V48.3636C15 49.8292 16.1735 51 17.6 51H46.4C47.8265 51 49 49.8292 49 48.3636V28H40C37.2386 28 35 25.7615 35 23V13ZM37 23V14.5371L47.6988 26H40C38.3431 26 37 24.6569 37 23Z" fill="#B2B8BF"/>
</svg>
