<svg width="20" height="20" viewBox="0 0 20 20" fill="none" xmlns="http://www.w3.org/2000/svg">
<path d="M1.99998 3.49996C1.99998 4.05224 1.55227 4.49995 0.999989 4.49995C0.44771 4.49995 0 4.05224 0 3.49996V2.99997C0 1.34313 1.34313 0 2.99997 0H12.9999C14.6567 0 15.9998 1.34313 15.9998 2.99997V3.49996C15.9998 4.05224 15.5521 4.49995 14.9998 4.49995C14.4476 4.49995 13.9998 4.05224 13.9998 3.49996V2.99997C13.9998 2.44769 13.5521 1.99998 12.9999 1.99998H2.99997C2.44769 1.99998 1.99998 2.44769 1.99998 2.99997V3.49996Z" fill="#B2B8BF"/>
<path d="M15.8471 7.28339C16.3891 6.55174 17.2176 5.99994 18.2219 5.99994C18.6621 5.99994 19.0777 6.10812 19.4503 6.29609C19.9433 6.54488 20.1414 7.14628 19.8926 7.63934C19.6438 8.13241 19.0424 8.33043 18.5493 8.08164C18.4376 8.0253 18.329 7.99991 18.2219 7.99991C17.999 7.99991 17.7165 8.11968 17.4542 8.4738C17.192 8.82776 16.9998 9.36403 16.9998 9.99989C16.9998 10.6358 17.192 11.172 17.4542 11.526C17.7165 11.8801 17.999 11.9999 18.2219 11.9999C18.329 11.9999 18.4376 11.9745 18.5493 11.9181C19.0424 11.6694 19.6438 11.8674 19.8926 12.3604C20.1414 12.8535 19.9433 13.4549 19.4503 13.7037C19.0777 13.8917 18.6621 13.9998 18.2219 13.9998C17.2176 13.9998 16.3891 13.448 15.8471 12.7164C15.305 11.9846 14.9998 11.0209 14.9998 9.99989C14.9998 8.97892 15.305 8.01521 15.8471 7.28339Z" fill="#B2B8BF"/>
<path d="M0.999989 15.4998C1.55227 15.4998 1.99998 15.9475 1.99998 16.4998V16.9998C1.99998 17.5521 2.44769 17.9998 2.99997 17.9998H12.9999C13.5521 17.9998 13.9998 17.5521 13.9998 16.9998V16.4998C13.9998 15.9475 14.4476 15.4998 14.9998 15.4998C15.5521 15.4998 15.9998 15.9475 15.9998 16.4998V16.9998C15.9998 18.6567 14.6567 19.9998 12.9999 19.9998H2.99997C1.34313 19.9998 0 18.6567 0 16.9998V16.4998C0 15.9475 0.44771 15.4998 0.999989 15.4998Z" fill="#B2B8BF"/>
<path fill-rule="evenodd" clip-rule="evenodd" d="M6.99992 9.99989C6.99992 7.96923 8.40394 5.99994 10.4999 5.99994C12.5958 5.99994 13.9998 7.96923 13.9998 9.99989C13.9998 12.0306 12.5958 13.9998 10.4999 13.9998C8.40394 13.9998 6.99992 12.0306 6.99992 9.99989ZM10.4999 7.99991C9.83444 7.99991 8.9999 8.71688 8.9999 9.99989C8.9999 11.2829 9.83444 11.9999 10.4999 11.9999C11.1653 11.9999 11.9999 11.2829 11.9999 9.99989C11.9999 8.71688 11.1653 7.99991 10.4999 7.99991Z" fill="#B2B8BF"/>
<path fill-rule="evenodd" clip-rule="evenodd" d="M0.999989 5.99994C0.44771 5.99994 0 6.44765 0 6.99992V12.9999C0 13.5521 0.44771 13.9998 0.999989 13.9998H2.99997C4.13786 13.9998 4.99085 13.41 5.51949 12.6171C6.02838 11.8537 6.24993 10.8982 6.24993 9.99989C6.24993 9.10156 6.02838 8.14605 5.51949 7.38272C4.99085 6.58975 4.13786 5.99994 2.99997 5.99994H0.999989ZM1.99998 11.9999V7.99991H2.99997C3.36206 7.99991 3.63406 8.16009 3.85541 8.49211C4.09651 8.85377 4.24995 9.39824 4.24995 9.99989C4.24995 10.6015 4.09651 11.146 3.85541 11.5077C3.63406 11.8397 3.36206 11.9999 2.99997 11.9999H1.99998Z" fill="#B2B8BF"/>
</svg>
