<svg width="16" height="16" viewBox="0 0 16 16" fill="none" xmlns="http://www.w3.org/2000/svg">
<path d="M6 8C6 6.89543 6.89543 6 8 6C8.50791 6 8.96946 6.18802 9.32263 6.49974C9.7367 6.8652 10.3686 6.8258 10.7341 6.41173C11.0996 5.99766 11.0602 5.36573 10.6461 5.00026C9.94157 4.37843 9.01376 4 8 4C5.79086 4 4 5.79086 4 8C4 10.2091 5.79086 12 8 12C9.19483 12 10.2683 11.4749 10.9997 10.6461C11.3652 10.232 11.3258 9.60009 10.9117 9.23463C10.4977 8.86916 9.86573 8.90857 9.50026 9.32263C9.13233 9.7395 8.59721 10 8 10C6.89543 10 6 9.10457 6 8Z" fill="#B2B8BF"/>
<path fill-rule="evenodd" clip-rule="evenodd" d="M8 0C3.58172 0 0 3.58172 0 8V15C0 15.5523 0.447715 16 1 16H8C12.4183 16 16 12.4183 16 8C16 3.58172 12.4183 0 8 0ZM2 8C2 4.68629 4.68629 2 8 2C11.3137 2 14 4.68629 14 8C14 11.3137 11.3137 14 8 14H2V8Z" fill="#B2B8BF"/>
</svg>
