<svg width="24" height="24" viewBox="0 0 24 24" fill="none" xmlns="http://www.w3.org/2000/svg">
<path fill-rule="evenodd" clip-rule="evenodd" d="M8.00226 3.41895C8.00226 2.86666 8.44998 2.41895 9.00226 2.41895H13.7192C15.5459 2.41895 16.98 3.1095 17.9416 4.21025C18.886 5.29124 19.3174 6.70032 19.2995 8.06947C19.2817 9.4384 18.8143 10.8364 17.8703 11.9063C16.9099 12.9949 15.4974 13.6939 13.7192 13.6939H9.98047V15.4419H14.654C15.2063 15.4419 15.654 15.8896 15.654 16.4419C15.654 16.9942 15.2063 17.4419 14.654 17.4419H9.98047V21.1812C9.98047 21.7335 9.53275 22.1812 8.98047 22.1812C8.42818 22.1812 7.98047 21.7335 7.98047 21.1812V17.4419H6.24023C5.68795 17.4419 5.24023 16.9942 5.24023 16.4419C5.24023 15.8896 5.68795 15.4419 6.24023 15.4419H7.98047V13.6939H6.24023C5.68795 13.6939 5.24023 13.2462 5.24023 12.6939C5.24023 12.1416 5.68795 11.6939 6.24023 11.6939H7.98047V3.68164C7.98047 3.60818 7.98839 3.53656 8.00343 3.46761C8.00265 3.45148 8.00226 3.43526 8.00226 3.41895ZM13.7192 11.6939H9.98047V4.41895H13.7192C15.0065 4.41895 15.8778 4.88776 16.4354 5.52607C17.0103 6.18414 17.3121 7.09379 17.2997 8.04339C17.2873 8.9932 16.9611 9.9139 16.3706 10.5831C15.7967 11.2336 14.9341 11.6939 13.7192 11.6939Z" fill="#B2B8BF"/>
</svg>
