<svg width="20" height="20" viewBox="0 0 20 20" fill="none" xmlns="http://www.w3.org/2000/svg">
<path d="M1.00021 4.5C1.5525 4.5 2.00021 4.05228 2.00021 3.5V3C2.00021 2.44772 2.44793 2 3.00021 2H13.0002C13.5525 2 14.0002 2.44772 14.0002 3V3.5C14.0002 4.05228 14.4479 4.5 15.0002 4.5C15.5525 4.5 16.0002 4.05228 16.0002 3.5V3C16.0002 1.34315 14.6571 0 13.0002 0H3.00021C1.34336 0 0.00021271 1.34315 0.00021271 3V3.5C0.00021271 4.05228 0.447928 4.5 1.00021 4.5Z" fill="#B2B8BF"/>
<path d="M4.16806 6.44541C4.47441 5.98588 5.09528 5.8617 5.55481 6.16806C6.01434 6.47441 6.13851 7.09528 5.83216 7.55481L4.20206 9.99995L5.83237 12.4454C6.13872 12.9049 6.01455 13.5258 5.55502 13.8322C5.09549 14.1385 4.47462 14.0143 4.16827 13.5548L3.00021 11.8027L1.83216 13.5548C1.5258 14.0143 0.904935 14.1385 0.445406 13.8322C-0.0141225 13.5258 -0.138297 12.9049 0.168056 12.4454L1.79836 9.99995L0.168269 7.55481C-0.138084 7.09528 -0.0139099 6.47441 0.445619 6.16806C0.905147 5.8617 1.52602 5.98588 1.83237 6.44541L3.00021 8.19717L4.16806 6.44541Z" fill="#B2B8BF"/>
<path d="M16.0002 6C16.5525 6 17.0002 6.44772 17.0002 7V12H19.0002C19.5525 12 20.0002 12.4477 20.0002 13C20.0002 13.5523 19.5525 14 19.0002 14H16.0002C15.4479 14 15.0002 13.5523 15.0002 13V7C15.0002 6.44772 15.4479 6 16.0002 6Z" fill="#B2B8BF"/>
<path d="M2.00021 16.5C2.00021 15.9477 1.5525 15.5 1.00021 15.5C0.447928 15.5 0.00021271 15.9477 0.00021271 16.5V17C0.00021271 18.6569 1.34336 20 3.00021 20H13.0002C14.6571 20 16.0002 18.6569 16.0002 17V16.5C16.0002 15.9477 15.5525 15.5 15.0002 15.5C14.4479 15.5 14.0002 15.9477 14.0002 16.5V17C14.0002 17.5523 13.5525 18 13.0002 18H3.00021C2.44793 18 2.00021 17.5523 2.00021 17V16.5Z" fill="#B2B8BF"/>
<path d="M8.76843 6.35987C8.4989 6.03643 8.05566 5.91645 7.65979 6.05978C7.26391 6.20311 7.00021 6.57903 7.00021 7.00005V13.0001C7.00021 13.5523 7.44793 14.0001 8.00021 14.0001C8.5525 14.0001 9.00021 13.5523 9.00021 13.0001V9.7621L9.73199 10.6402C9.92199 10.8682 10.2034 11.0001 10.5002 11.0001C10.797 11.0001 11.0784 10.8682 11.2684 10.6402L12.0002 9.7621V13.0001C12.0002 13.5523 12.4479 14.0001 13.0002 14.0001C13.5525 14.0001 14.0002 13.5523 14.0002 13.0001V7.00005C14.0002 6.57903 13.7365 6.20311 13.3406 6.05978C12.9448 5.91645 12.5015 6.03643 12.232 6.35987L10.5002 8.438L8.76843 6.35987Z" fill="#B2B8BF"/>
</svg>
