<svg width="20" height="20" viewBox="0 0 20 20" fill="none" xmlns="http://www.w3.org/2000/svg">
<path fill-rule="evenodd" clip-rule="evenodd" d="M10 6C7.79086 6 6 7.79086 6 10C6 12.2091 7.79086 14 10 14C12.2091 14 14 12.2091 14 10C14 7.79086 12.2091 6 10 6ZM8 10C8 8.89543 8.89543 8 10 8C11.1046 8 12 8.89543 12 10C12 11.1046 11.1046 12 10 12C8.89543 12 8 11.1046 8 10Z" fill="#E4E8EB"/>
<path fill-rule="evenodd" clip-rule="evenodd" d="M10 3C6.10707 3 2.74944 5.29629 1.29536 8.59772C0.901545 9.49187 0.901545 10.5081 1.29536 11.4023C2.74944 14.7037 6.10707 17 10 17C13.8929 17 17.2506 14.7037 18.7046 11.4023C19.0985 10.5081 19.0985 9.49187 18.7046 8.59772C17.2506 5.2963 13.8929 3 10 3ZM3.1257 9.40386C4.26214 6.8236 6.90466 5 10 5C13.0953 5 15.7379 6.82361 16.8743 9.40387C17.0419 9.78439 17.0419 10.2156 16.8743 10.5961C15.7379 13.1764 13.0953 15 10 15C6.90466 15 4.26214 13.1764 3.1257 10.5961C2.9581 10.2156 2.9581 9.78439 3.1257 9.40386Z" fill="#E4E8EB"/>
</svg>
