<svg width="16" height="16" viewBox="0 0 16 16" fill="none" xmlns="http://www.w3.org/2000/svg">
<path d="M6.12473 6.28087C5.69347 6.62588 5.06418 6.55596 4.71917 6.1247C4.37416 5.69343 4.44408 5.06414 4.87534 4.71913L7.37534 2.71913C7.74056 2.42696 8.25951 2.42696 8.62473 2.71913L11.1247 4.71913C11.556 5.06414 11.6259 5.69343 11.2809 6.1247C10.9359 6.55596 10.3066 6.62588 9.87534 6.28087L8.00004 4.78062L6.12473 6.28087Z" fill="#7D838A"/>
<path d="M6.12473 9.71914C5.69347 9.37413 5.06418 9.44406 4.71917 9.87532C4.37416 10.3066 4.44408 10.9359 4.87534 11.2809L7.37534 13.2809C7.74056 13.5731 8.25951 13.5731 8.62473 13.2809L11.1247 11.2809C11.556 10.9359 11.6259 10.3066 11.2809 9.87532C10.9359 9.44406 10.3066 9.37413 9.87534 9.71914L8.00004 11.2194L6.12473 9.71914Z" fill="#7D838A"/>
</svg>
