<svg width="20" height="20" viewBox="0 0 20 20" fill="none" xmlns="http://www.w3.org/2000/svg">
<path fill-rule="evenodd" clip-rule="evenodd" d="M7 1C7 0.447715 6.55228 0 6 0C5.44772 0 5 0.447715 5 1V2H3C1.34315 2 0 3.34315 0 5V17C0 18.6569 1.34315 20 3 20H17C18.6569 20 20 18.6569 20 17V5C20 3.34315 18.6569 2 17 2H15V1C15 0.447715 14.5523 0 14 0C13.4477 0 13 0.447715 13 1V2H7V1ZM13 5V4H7V5C7 5.55228 6.55228 6 6 6C5.44772 6 5 5.55228 5 5V4H3C2.44772 4 2 4.44772 2 5V8H18V5C18 4.44772 17.5523 4 17 4H15V5C15 5.55228 14.5523 6 14 6C13.4477 6 13 5.55228 13 5ZM18 10H2V17C2 17.5523 2.44772 18 3 18H17C17.5523 18 18 17.5523 18 17V10Z" fill="#7D838A"/>
</svg>
