<svg width="64" height="64" viewBox="0 0 64 64" fill="none" xmlns="http://www.w3.org/2000/svg">
<path fill-rule="evenodd" clip-rule="evenodd" d="M13.7071 12.2929C13.3166 11.9024 12.6834 11.9024 12.2929 12.2929C11.9024 12.6834 11.9024 13.3166 12.2929 13.7071L19.5067 20.9209C16.4942 23.043 14.0864 25.9161 12.5875 29.2594C11.8042 31.0068 11.8042 32.9932 12.5875 34.7406C15.8271 41.9668 23.3126 47 32 47C35.9273 47 39.6086 45.9715 42.7629 44.1771L50.2937 51.7079C50.6842 52.0984 51.3174 52.0984 51.7079 51.7079C52.0984 51.3174 52.0984 50.6842 51.7079 50.2937L37.8177 36.4035C37.8044 36.3894 37.7907 36.3757 37.7768 36.3626L13.7071 12.2929ZM35.5853 36.9995L27.0005 28.4147C26.3673 29.3873 26 30.5476 26 31.795C26 35.2219 28.7781 38 32.205 38C33.4524 38 34.6127 37.6327 35.5853 36.9995ZM25.5629 26.9771L20.9442 22.3584C18.081 24.2987 15.806 26.9692 14.4125 30.0776C13.8625 31.3045 13.8625 32.6955 14.4125 33.9224C17.3254 40.4201 24.0902 45 32 45C35.3752 45 38.5421 44.166 41.2905 42.7047L37.0229 38.4371C35.6702 39.4197 34.0046 40 32.205 40C27.6735 40 24 36.3265 24 31.795C24 29.9954 24.5803 28.3298 25.5629 26.9771Z" fill="#B2B8BF"/>
<path d="M32 19C31.2339 19 30.4787 19.043 29.7368 19.1264C29.188 19.1882 28.693 18.7933 28.6313 18.2445C28.5695 17.6957 28.9644 17.2007 29.5132 17.139C30.3292 17.0472 31.159 17 32 17C40.6874 17 48.1729 22.0332 51.4125 29.2594C52.1958 31.0068 52.1958 32.9932 51.4125 34.7406C51.0307 35.5922 50.5899 36.4134 50.0952 37.1994C49.8009 37.6668 49.1835 37.8072 48.7161 37.513C48.2487 37.2188 48.1083 36.6014 48.4025 36.134C48.848 35.4262 49.2445 34.6876 49.5875 33.9224C50.1375 32.6955 50.1375 31.3045 49.5875 30.0776C46.6746 23.5799 39.9098 19 32 19Z" fill="#B2B8BF"/>
<path d="M33.6638 24.6668C33.8479 24.146 34.4192 23.8731 34.9399 24.0572C37.272 24.8814 39.1186 26.728 39.9428 29.0601C40.1269 29.5808 39.854 30.1521 39.3332 30.3362C38.8125 30.5202 38.2412 30.2473 38.0572 29.7266C37.4343 27.9642 36.0358 26.5657 34.2734 25.9428C33.7527 25.7588 33.4798 25.1875 33.6638 24.6668Z" fill="#B2B8BF"/>
</svg>
