<svg width="32" height="32" viewBox="0 0 32 32" fill="none" xmlns="http://www.w3.org/2000/svg">
<path fill-rule="evenodd" clip-rule="evenodd" d="M27.7071 4.6883C28.0976 4.29934 28.0976 3.66871 27.7071 3.27976C27.3166 2.8908 26.6834 2.8908 26.2929 3.27976L17.3767 12.1602L10.7471 5.44786C9.86978 4.57409 8.50647 4.57409 7.62918 5.44786L5.68213 7.38711C4.80594 8.25978 4.80484 9.61532 5.67884 10.4892L12.3117 17.2049L4.29289 25.1915C3.90237 25.5805 3.90237 26.2111 4.29289 26.6C4.68342 26.989 5.31658 26.989 5.70711 26.6L27.7071 4.6883ZM11.9102 9.46596L15.9624 13.5688L13.726 15.7963L9.67296 11.6927C9.68453 11.6822 9.69592 11.6714 9.70711 11.6602L11.9102 9.46596ZM10.5076 8.04586L9.33085 6.85441C9.2699 6.7946 9.21846 6.78451 9.18813 6.78451C9.15746 6.78451 9.10523 6.79482 9.0434 6.8564L7.09634 8.79565C7.03451 8.85723 7.02416 8.90926 7.02416 8.9398C7.02416 8.97034 7.03453 9.02234 7.09637 9.08392L8.27146 10.2737C8.27847 10.2663 8.28561 10.2589 8.29289 10.2517L10.5076 8.04586Z" fill="#B2B8BF"/>
<path d="M19.7056 17.3586C19.3183 16.9665 19.3235 16.3359 19.7172 15.9502C20.1109 15.5644 20.744 15.5696 21.1313 15.9617L24.5908 19.4644C24.7257 19.601 24.8182 19.7734 24.8572 19.961L25.8132 24.5627C25.8816 24.8916 25.7788 25.2328 25.5399 25.4699C25.301 25.7071 24.9581 25.8083 24.628 25.7391L20.0213 24.7736C19.8287 24.7332 19.6524 24.6372 19.5143 24.4974L16.0548 20.9947C15.6675 20.6026 15.6727 19.972 16.0665 19.5862C16.4602 19.2005 17.0933 19.2057 17.4806 19.5978L20.7285 22.8862L23.5452 23.4766L22.9584 20.6521L19.7056 17.3586Z" fill="#B2B8BF"/>
</svg>
