<svg width="64" height="64" viewBox="0 0 64 64" fill="none" xmlns="http://www.w3.org/2000/svg">
<path d="M31 38.5C31 35.4742 33.4258 33 36.4443 33C37.1145 33 37.7585 33.1228 38.3539 33.3481C38.8705 33.5436 39.1307 34.1208 38.9353 34.6374C38.7398 35.1539 38.1626 35.4142 37.6461 35.2187C37.2731 35.0775 36.8687 35 36.4443 35C34.5538 35 33 36.5552 33 38.5C33 40.4448 34.5538 42 36.4443 42C36.8687 42 37.2731 41.9225 37.6461 41.7813C38.1626 41.5858 38.7398 41.8461 38.9353 42.3626C39.1307 42.8792 38.8705 43.4564 38.3539 43.6519C37.7585 43.8772 37.1145 44 36.4443 44C33.4258 44 31 41.5258 31 38.5Z" fill="#B2B8BF"/>
<path d="M29 34C29 33.5956 28.7564 33.2309 28.3827 33.0761C28.009 32.9214 27.5789 33.0069 27.2929 33.2929L24.2929 36.2929C23.9024 36.6834 23.9024 37.3166 24.2929 37.7071C24.6834 38.0977 25.3166 38.0977 25.7071 37.7071L27 36.4142V43C27 43.5523 27.4477 44 28 44C28.5523 44 29 43.5523 29 43V34Z" fill="#B2B8BF"/>
<path fill-rule="evenodd" clip-rule="evenodd" d="M50.9684 27.2496C50.989 27.3296 51 27.4135 51 27.5V48.3636C51 50.9147 48.95 53 46.4 53H17.6C15.05 53 13 50.9147 13 48.3636V15.6364C13 13.0853 15.05 11 17.6 11H35.9997C36.291 11 36.5536 11.1246 36.7363 11.3234L50.7311 26.3177C50.9665 26.57 51.0528 26.9224 50.9684 27.2496ZM35 13H17.6C16.1735 13 15 14.1708 15 15.6364V48.3636C15 49.8292 16.1735 51 17.6 51H46.4C47.8265 51 49 49.8292 49 48.3636V28H40C37.2386 28 35 25.7615 35 23V13ZM37 23V14.5371L47.6988 26H40C38.3431 26 37 24.6569 37 23Z" fill="#B2B8BF"/>
</svg>
