<svg width="16" height="16" viewBox="0 0 16 16" fill="none" xmlns="http://www.w3.org/2000/svg">
<path fill-rule="evenodd" clip-rule="evenodd" d="M7.43087 14.8231C5.57256 13.554 3.6793 12.6859 1.54946 12.1525C0.668697 11.9319 0 11.144 0 10.1879V2.94996C0 1.91062 0.82885 0.95436 1.98005 0.98972C4.37264 1.06321 6.3075 1.88212 8 3.53441C9.69251 1.88212 11.6274 1.06321 14.0199 0.98972C15.1712 0.95436 16 1.91062 16 2.94996V10.1879C16 11.144 15.3313 11.9319 14.4505 12.1525C12.3207 12.6859 10.4274 13.554 8.56908 14.8231C8.55192 14.835 8.53434 14.8463 8.51634 14.8572C8.21744 15.0375 7.84433 15.0494 7.5332 14.8852C7.51636 14.8763 7.49984 14.8669 7.48366 14.8572M2 10.1879V2.99163C4.02031 3.07138 5.56474 3.79881 7 5.37757V12.1977C5.43739 11.3118 3.80991 10.6569 2.03537 10.2124C2.01989 10.2086 2.00926 10.2005 2.00344 10.1932C2.00124 10.1905 2 10.1879 2 10.1879ZM9 12.1977C10.5626 11.3118 12.1901 10.6569 13.9646 10.2124C13.9801 10.2086 13.9907 10.2005 13.9966 10.1932C13.9988 10.1905 14 10.1879 14 10.1879V2.99163C11.9797 3.07138 10.4353 3.79881 9 5.37757V12.1977Z" fill="#7D838A"/>
</svg>
