<svg width="16" height="16" viewBox="0 0 16 16" fill="none" xmlns="http://www.w3.org/2000/svg">
<path fill-rule="evenodd" clip-rule="evenodd" d="M12.7071 4.70711C13.0976 4.31658 13.0976 3.68342 12.7071 3.29289C12.3166 2.90237 11.6834 2.90237 11.2929 3.29289L3.29289 11.2929C2.90237 11.6834 2.90237 12.3166 3.29289 12.7071C3.68342 13.0976 4.31658 13.0976 4.70711 12.7071L12.7071 4.70711ZM6.75 4.875C6.75 5.91053 5.91053 6.75 4.875 6.75C3.83947 6.75 3 5.91053 3 4.875C3 3.83947 3.83947 3 4.875 3C5.91053 3 6.75 3.83947 6.75 4.875ZM13 11.125C13 12.1605 12.1605 13 11.125 13C10.0895 13 9.25 12.1605 9.25 11.125C9.25 10.0895 10.0895 9.25 11.125 9.25C12.1605 9.25 13 10.0895 13 11.125Z" fill="#565B62"/>
</svg>
