<svg width="32" height="32" viewBox="0 0 32 32" fill="none" xmlns="http://www.w3.org/2000/svg">
<path fill-rule="evenodd" clip-rule="evenodd" d="M17.7442 7C15.6678 7 13.8279 8.09576 12.7532 9.77934C12.4914 10.1894 11.9725 10.3516 11.5238 10.1636C11.0756 9.97573 10.5854 9.8721 10.0698 9.8721C7.95176 9.8721 6.18605 11.6474 6.18605 13.8983C6.18605 14.1083 6.20148 14.3136 6.23102 14.5123C6.27034 14.7769 6.202 15.0463 6.04129 15.2601C5.88057 15.474 5.64087 15.6145 5.37577 15.6503C3.49304 15.9047 2 17.5757 2 19.6425C2 21.8934 3.76571 23.6687 5.88372 23.6687H9.37209C9.92438 23.6687 10.3721 24.1164 10.3721 24.6687C10.3721 25.2209 9.92438 25.6687 9.37209 25.6687H5.88372C2.60732 25.6687 0 22.9434 0 19.6425C0 16.936 1.74942 14.6207 4.18611 13.8709C4.20048 10.5824 6.80243 7.8721 10.0698 7.8721C10.5712 7.8721 11.0588 7.93657 11.5246 8.05798C12.9809 6.20033 15.2214 5 17.7442 5C21.8442 5 25.1844 8.1571 25.6623 12.1848C29.209 12.3164 32 15.3094 32 18.9245C32 22.6219 29.0803 25.6687 25.4186 25.6687H22.6279C22.0756 25.6687 21.6279 25.2209 21.6279 24.6687C21.6279 24.1164 22.0756 23.6687 22.6279 23.6687H25.4186C27.9219 23.6687 30 21.5719 30 18.9245C30 16.277 27.9219 14.1803 25.4186 14.1803C25.2248 14.1803 25.0347 14.1927 24.8496 14.2167C24.5633 14.2539 24.2749 14.1655 24.0586 13.9743C23.8422 13.7831 23.7191 13.5078 23.7208 13.2191L23.7209 13.1803C23.7209 9.7397 21.0181 7 17.7442 7ZM17 17.4142L18.7929 19.2071C19.1834 19.5976 19.8166 19.5976 20.2071 19.2071C20.5976 18.8166 20.5976 18.1834 20.2071 17.7929L16.7071 14.2929C16.3166 13.9024 15.6834 13.9024 15.2929 14.2929L11.7929 17.7929C11.4024 18.1834 11.4024 18.8166 11.7929 19.2071C12.1834 19.5976 12.8166 19.5976 13.2071 19.2071L15 17.4142L15 24.5C15 25.0523 15.4477 25.5 16 25.5C16.5523 25.5 17 25.0523 17 24.5L17 17.4142Z" fill="#B2B8BF"/>
</svg>
