<svg width="20" height="20" viewBox="0 0 20 20" fill="none" xmlns="http://www.w3.org/2000/svg">
<path fill-rule="evenodd" clip-rule="evenodd" d="M10.0572 6.83746C10.2412 6.31674 10.8125 6.04382 11.3332 6.22787C12.4705 6.62983 13.3702 7.52949 13.7721 8.66675C13.9562 9.18747 13.6833 9.75879 13.1625 9.94284C12.6418 10.1269 12.0705 9.85396 11.8865 9.33325C11.6859 8.76568 11.2343 8.31415 10.6668 8.11355C10.146 7.9295 9.87311 7.35818 10.0572 6.83746ZM8.58073 7.17412C8.97195 7.56395 8.97307 8.19711 8.58325 8.58833C8.22173 8.95114 8 9.44872 8 10C8 11.1046 8.89543 12 10 12C10.531 12 11.0118 11.7944 11.3707 11.4565C11.7728 11.0779 12.4056 11.0969 12.7842 11.499C13.1629 11.9011 13.1438 12.5339 12.7417 12.9125C12.0266 13.5859 11.0606 14 10 14C7.79086 14 6 12.2091 6 10C6 8.8983 6.44671 7.89901 7.16651 7.17664C7.55634 6.78542 8.18951 6.78429 8.58073 7.17412Z" fill="#565B62"/>
<path fill-rule="evenodd" clip-rule="evenodd" d="M10 5C9.69975 5 9.40404 5.01714 9.11377 5.05038C8.56507 5.11321 8.06933 4.71934 8.00649 4.17064C7.94366 3.62194 8.33753 3.1262 8.88623 3.06336C9.2519 3.02149 9.62358 3 10 3C13.8929 3 17.2506 5.2963 18.7046 8.59772C19.0985 9.49187 19.0985 10.5081 18.7046 11.4023C18.5332 11.7916 18.3352 12.1669 18.1132 12.526C17.8227 12.9957 17.2064 13.141 16.7367 12.8505C16.267 12.56 16.1217 11.9438 16.4122 11.474C16.586 11.193 16.7406 10.8998 16.8743 10.5961C17.0419 10.2156 17.0419 9.78439 16.8743 9.40387C15.7379 6.82361 13.0953 5 10 5ZM6.16819 4.82491C6.46755 5.28903 6.33398 5.90795 5.86987 6.2073C4.65926 6.98815 3.69993 8.1001 3.1257 9.40386C2.9581 9.78439 2.9581 10.2156 3.1257 10.5961C4.26214 13.1764 6.90466 15 10 15C11.4653 15 12.8281 14.5917 13.9782 13.8881C14.4493 13.6 15.0649 13.7483 15.3531 14.2194C15.6412 14.6905 15.4929 15.3061 15.0218 15.5943C13.5642 16.4859 11.8414 17 10 17C6.10707 17 2.74944 14.7037 1.29536 11.4023C0.901545 10.5081 0.901545 9.49187 1.29536 8.59772C2.03145 6.92645 3.25477 5.51412 4.7858 4.52659C5.24991 4.22723 5.86883 4.3608 6.16819 4.82491Z" fill="#565B62"/>
<path fill-rule="evenodd" clip-rule="evenodd" d="M1.29289 1.29289C1.68342 0.902369 2.31658 0.902369 2.70711 1.29289L18.7071 17.2929C19.0976 17.6834 19.0976 18.3166 18.7071 18.7071C18.3166 19.0976 17.6834 19.0976 17.2929 18.7071L1.29289 2.70711C0.902369 2.31658 0.902369 1.68342 1.29289 1.29289Z" fill="#565B62"/>
</svg>
