<svg width="20" height="20" viewBox="0 0 20 20" fill="none" xmlns="http://www.w3.org/2000/svg">
<path d="M10.2169 8.30189C9.60384 8.91397 8.52251 9.9806 7.86693 10.6351C7.21134 11.2897 7.31631 12.2033 7.85035 12.7365C8.3844 13.2697 9.3214 13.4013 9.97948 12.7443C10.6376 12.0873 14.2266 8.5471 14.2266 8.5471C15.2706 7.50486 15.8561 6.92005 15.8561 5.88316C15.8561 5.22079 15.5763 4.32443 14.8821 3.63128C14.1878 2.93813 13.2946 2.66406 12.6318 2.66406C11.5986 2.66406 10.9883 3.27361 9.96825 4.29203L5.03393 9.17954C4.37115 9.84191 4 10.7295 4 11.67C4 12.6106 3.99068 13.8248 5.40489 15.2367C6.81911 16.6487 7.99929 16.6487 8.94043 16.6487C9.88157 16.6487 10.7525 16.2521 11.4153 15.5897L15.9707 11.1504" stroke="#B2B8BF" stroke-width="2" stroke-linecap="round" stroke-linejoin="round"/>
</svg>
