<svg width="32" height="32" viewBox="0 0 32 32" fill="none" xmlns="http://www.w3.org/2000/svg">
<path fill-rule="evenodd" clip-rule="evenodd" d="M16 32C24.8366 32 32 24.8366 32 16C32 7.16344 24.8366 0 16 0C7.16344 0 0 7.16344 0 16C0 24.8366 7.16344 32 16 32ZM7 13C7 10.7909 8.79086 9 11 9H21C23.2091 9 25 10.7909 25 13V19C25 21.2091 23.2091 23 21 23H11C8.79086 23 7 21.2091 7 19V13ZM18.3138 11.9188C17.9928 11.4694 17.3683 11.3653 16.9188 11.6863C16.4694 12.0073 16.3653 12.6318 16.6863 13.0812L18.0569 15H13C12.4477 15 12 15.4477 12 16C12 16.5523 12.4477 17 13 17H18.0569L16.6863 18.9188C16.3653 19.3682 16.4694 19.9927 16.9188 20.3137C17.3683 20.6347 17.9928 20.5307 18.3138 20.0812L20.8113 16.5848C20.9094 16.4489 20.9743 16.2873 20.9938 16.112C21.0022 16.0376 21.0022 15.9624 20.9938 15.888C20.9743 15.7126 20.9094 15.5509 20.8111 15.415L18.3138 11.9188Z" fill="#B2B8BF"/>
</svg>
