<svg width="20" height="20" viewBox="0 0 20 20" fill="none" xmlns="http://www.w3.org/2000/svg">
<path d="M7.96912 17.9189C7.31543 17.3292 6.91974 16.3277 6.99682 14.9038C7.05016 13.9186 7.17934 13.1581 7.2973 12.6387C7.30817 12.5908 7.31895 12.5449 7.32956 12.5012H3.00297C1.24109 12.5012 0.0319939 10.7275 0.675926 9.08747L2.78312 3.72078C3.30923 2.38086 4.6021 1.49971 6.04161 1.49996L13.4961 1.50128V12.0519L13.3464 12.1988C12.5053 13.0249 11.4961 14.3654 11.4961 16.0012C11.4961 16.3646 11.4806 16.8391 11.3005 17.2803C11.1084 17.751 10.7428 18.1524 10.1221 18.3812C9.45923 18.6255 8.61501 18.5015 7.96912 17.9189Z" fill="#7D838A"/>
<path d="M17.9961 11.5016C18.8245 11.5016 19.4961 10.83 19.4961 10.0016V3.00159C19.4961 2.17316 18.8245 1.50159 17.9961 1.50159H15.4961V11.5016H17.9961Z" fill="#7D838A"/>
</svg>
