<svg width="20" height="20" viewBox="0 0 20 20" fill="none" xmlns="http://www.w3.org/2000/svg">
<path fill-rule="evenodd" clip-rule="evenodd" d="M15.8492 0.585786C15.0682 -0.195262 13.8019 -0.195262 13.0208 0.585786L0.585786 13.0208C0.210714 13.3959 0 13.9046 0 14.435V17.2635C0 18.368 0.89543 19.2635 2 19.2635H4.82843C5.35886 19.2635 5.86757 19.0527 6.24264 18.6777L18.6777 6.24264C19.4587 5.46159 19.4587 4.19526 18.6777 3.41421L15.8492 0.585786ZM12.3137 4.12132L14.435 2L17.2635 4.82843L15.1421 6.94975L12.3137 4.12132ZM10.8995 5.53554L2 14.435V17.2635L4.82843 17.2635L13.7279 8.36396L10.8995 5.53554Z" fill="#D0D7DD"/>
</svg>
