<svg width="16" height="16" viewBox="0 0 16 16" fill="none" xmlns="http://www.w3.org/2000/svg">
<path fill-rule="evenodd" clip-rule="evenodd" d="M5 2C3.34315 2 2 3.34315 2 5V8C2 9.65685 3.34315 11 5 11H5.5C6.05228 11 6.5 10.5523 6.5 10C6.5 9.44772 6.05228 9 5.5 9H5C4.44772 9 4 8.55228 4 8V5C4 4.44772 4.44772 4 5 4H9C9.55228 4 10 4.44772 10 5V5.5C10 6.05228 10.4477 6.5 11 6.5C11.5523 6.5 12 6.05228 12 5.5V5C12 3.34315 10.6569 2 9 2H5ZM8 9C8 8.86441 8.02699 8.73512 8.07588 8.61722C8.12432 8.50014 8.19595 8.3904 8.29078 8.29502L8.29502 8.29078C8.47581 8.11106 8.72494 8 9 8H12C12.5523 8 13 8.44772 13 9C13 9.55228 12.5523 10 12 10H11.4142L13.7071 12.2929C14.0976 12.6834 14.0976 13.3166 13.7071 13.7071C13.3166 14.0976 12.6834 14.0976 12.2929 13.7071L10 11.4142V12C10 12.5523 9.55228 13 9 13C8.44772 13 8 12.5523 8 12V9Z" fill="#565B62"/>
</svg>
