<svg width="32" height="31" viewBox="0 0 32 31" fill="none" xmlns="http://www.w3.org/2000/svg">
<path fill-rule="evenodd" clip-rule="evenodd" d="M4.7 1.93753H18V7.75002C18 10.4251 20.2386 12.5938 23 12.5938H29V27.3892C29 28.3225 28.2294 29.0625 27.3 29.0625H4.7C3.77056 29.0625 3 28.3225 3 27.3892V3.61082C3 2.67749 3.77056 1.93753 4.7 1.93753ZM30.7583 10.9935C30.742 10.9752 30.725 10.9573 30.7071 10.94L19.7071 0.283768C19.6851 0.262438 19.6622 0.242259 19.6386 0.223248C19.4695 0.0872928 19.2615 0.0111018 19.0479 0.00112475C19.0293 0.000252648 19.0106 -0.000113533 18.9918 3.05116e-05H4.7C2.64709 3.05116e-05 0.999999 1.62584 0.999999 3.61082V27.3892C0.999999 29.3742 2.64709 31 4.7 31H27.3C29.3529 31 31 29.3742 31 27.3892V11.6329L30.7071 10.94L30.9988 11.5779C30.9881 11.3658 30.9055 11.1594 30.7583 10.9935ZM20 3.30754V7.75002C20 9.3551 21.3431 10.6563 23 10.6563H27.5858L20 3.30754ZM5.99999 15.5C5.44771 15.5 5 15.9337 5 16.4688V23.25C5 23.785 5.44771 24.2188 5.99999 24.2188H8.35293C9.61936 24.2188 10.5716 23.5905 11.1681 22.7309C11.7446 21.9002 12 20.8522 12 19.8594C12 18.8665 11.7446 17.8186 11.1681 16.9879C10.5716 16.1283 9.61936 15.5 8.35293 15.5H5.99999ZM6.99999 22.2813V17.4375H8.35293C8.85121 17.4375 9.22249 17.6569 9.50833 18.0688C9.81418 18.5096 9.99999 19.1569 9.99999 19.8594C9.99999 20.5618 9.81418 21.2092 9.50833 21.65C9.22249 22.0619 8.85121 22.2813 8.35293 22.2813H6.99999ZM21 19.8594C21 17.4969 22.8946 15.5 25.3332 15.5C25.8714 15.5 26.3883 15.5992 26.8653 15.7805C27.3794 15.976 27.6326 16.5382 27.4309 17.0362C27.2291 17.5343 26.6488 17.7796 26.1347 17.5841C25.8854 17.4893 25.616 17.4375 25.3332 17.4375C24.09 17.4375 23 18.4767 23 19.8594C23 21.2421 24.09 22.2813 25.3332 22.2813C25.616 22.2813 25.8854 22.2294 26.1347 22.1347C26.6488 21.9392 27.2291 22.1845 27.4309 22.6826C27.6326 23.1806 27.3794 23.7428 26.8653 23.9383C26.3883 24.1196 25.8714 24.2188 25.3332 24.2188C22.8946 24.2188 21 22.2219 21 19.8594ZM14.5 19.8594C14.5 18.3763 15.5345 17.4375 16.5 17.4375C17.4655 17.4375 18.5 18.3763 18.5 19.8594C18.5 21.3424 17.4655 22.2813 16.5 22.2813C15.5345 22.2813 14.5 21.3424 14.5 19.8594ZM16.5 15.5C14.1518 15.5 12.5 17.5973 12.5 19.8594C12.5 22.1215 14.1518 24.2188 16.5 24.2188C18.8482 24.2188 20.5 22.1215 20.5 19.8594C20.5 17.5973 18.8482 15.5 16.5 15.5Z" fill="#B2B8BF"/>
</svg>
