<svg width="16" height="16" viewBox="0 0 16 16" fill="none" xmlns="http://www.w3.org/2000/svg">
<g clip-path="url(#clip0_49338_4605)">
<path fill-rule="evenodd" clip-rule="evenodd" d="M2 3C2 1.34315 3.34315 0 5 0H11C12.6569 0 14 1.34315 14 3V3.66529C15.174 4.38097 15.7414 5.8425 15.2721 7.20385L14.8931 8.30328C14.3369 9.91684 12.8182 10.9998 11.1115 10.9998H9V14H12C12.5523 14 13 14.4477 13 15C13 15.5523 12.5523 16 12 16H4C3.44772 16 3 15.5523 3 15C3 14.4477 3.44772 14 4 14H7V10.9998H4.88976C3.18303 10.9998 1.6643 9.91684 1.10811 8.30328L0.729145 7.20385C0.260057 5.84298 0.826837 4.382 2 3.66605V3ZM11 2C11.5521 2 11.9997 2.44745 12 2.99952C11.5807 2.99967 11.1913 3.26545 11.0519 3.68353L10.2799 5.99976H5.72139L4.94931 3.68353C4.80981 3.26504 4.41973 2.99913 4 2.99951C4.00026 2.44745 4.44788 2 5 2H11ZM3.3609 5.24286L3.27129 5.27043C2.7309 5.43671 2.43572 6.01757 2.61997 6.55209L2.99894 7.65152C3.27703 8.4583 4.03639 8.99976 4.88976 8.99976H11.1115C11.9649 8.99976 12.7242 8.4583 13.0023 7.65152L13.3813 6.55209C13.5655 6.01757 13.2703 5.43671 12.73 5.27043L12.6404 5.24286L11.9493 7.31598C11.8132 7.72433 11.4311 7.99976 11.0006 7.99976H5.00063C4.5702 7.99976 4.18806 7.72433 4.05194 7.31598L3.3609 5.24286Z" fill="#B2B8BF"/>
</g>
<defs>
<clipPath id="clip0_49338_4605">
<rect width="16" height="16" fill="white"/>
</clipPath>
</defs>
</svg>
