<svg width="20" height="20" viewBox="0 0 20 20" fill="none" xmlns="http://www.w3.org/2000/svg">
<path d="M12.6319 3.73887C12.0859 3.73887 11.7703 3.98566 10.6748 5.10131L10.672 5.10417L5.73943 10.088C5.26386 10.5736 5.00003 11.2193 5.00003 11.9055C5.00003 12.3941 5.00274 12.8065 5.13208 13.2585C5.25588 13.6911 5.51428 14.2137 6.11146 14.8219C6.7132 15.4347 7.221 15.6998 7.63692 15.8268C8.06995 15.9591 8.46504 15.964 8.94045 15.964C9.59136 15.964 10.2146 15.6857 10.7084 15.1823L10.7173 15.1733L15.2728 10.6449C15.6683 10.2517 16.3014 10.26 16.6869 10.6635C17.0724 11.067 17.0642 11.7128 16.6687 12.106L12.1175 16.6302C11.2862 17.4753 10.1695 18.0041 8.94045 18.0041L8.91155 18.0041C8.4474 18.0042 7.79386 18.0044 7.06326 17.7812C6.30025 17.5482 5.51086 17.0931 4.69838 16.2657C3.88135 15.4336 3.43731 14.6168 3.21221 13.8302C2.99947 13.0868 2.99979 12.419 3.00001 11.95L3.00003 11.9055C3.00003 10.6735 3.47798 9.50912 4.32706 8.64352L4.33022 8.6403L9.26314 3.65613L9.3868 3.5299L9.3868 3.5299C10.2876 2.60935 11.1787 1.69873 12.6319 1.69873C13.5357 1.69873 14.6907 2.06901 15.5886 2.98355C16.485 3.89637 16.8561 5.07712 16.8561 6.0025C16.8561 7.48954 15.8597 8.50123 14.9332 9.44178L14.358 10.0207C14.0113 10.3697 13.5421 10.842 13.0525 11.3351C12.0717 12.3229 11.0126 13.3906 10.686 13.7232C9.57838 14.8513 8.00634 14.5936 7.14384 13.7152C6.25823 12.8133 6.07498 11.2334 7.16042 10.128C7.48984 9.79246 7.92558 9.35201 8.35404 8.91896L8.37444 8.89834L8.37496 8.89781C8.79721 8.47104 9.21048 8.05333 9.5104 7.74789C9.90124 7.34985 10.5344 7.35037 10.9246 7.74905C11.3148 8.14774 11.3143 8.79361 10.9235 9.19165C10.6209 9.4998 10.2055 9.91962 9.78514 10.3445L9.78466 10.345L9.76173 10.3682C9.33237 10.8021 8.89965 11.2395 8.57349 11.5717C8.44059 11.7071 8.40916 11.835 8.41213 11.9381C8.41551 12.0558 8.46612 12.179 8.55692 12.2715C8.65114 12.3674 8.78456 12.4276 8.91385 12.4336C9.02608 12.4388 9.14914 12.4055 9.27297 12.2794C9.60452 11.9418 10.669 10.8688 11.6473 9.88342C12.1371 9.39002 12.6064 8.9176 12.9532 8.56852L13.5223 7.99584C14.6364 6.86106 14.8561 6.56341 14.8561 6.0025C14.8561 5.57655 14.6678 4.9286 14.1756 4.4273C13.685 3.92772 13.0535 3.73887 12.6319 3.73887Z" fill="#B2B8BF"/>
</svg>
