<svg width="20" height="20" viewBox="0 0 20 20" fill="none" xmlns="http://www.w3.org/2000/svg">
<path d="M9.7462 8.63587C9.13314 9.24795 8.05181 10.3146 7.39622 10.9691C6.74064 11.6236 6.84561 12.5373 7.37965 13.0705C7.91369 13.6037 8.85069 13.7353 9.50877 13.0783C10.1669 12.4212 13.7559 8.88109 13.7559 8.88109C14.7999 7.83884 15.3854 7.25404 15.3854 6.21715C15.3854 5.55478 15.1056 4.65841 14.4114 3.96526C13.7171 3.27211 12.8239 2.99805 12.1611 2.99805C11.1279 2.99805 10.5176 3.6076 9.49755 4.62601L4.56323 9.51353C3.90045 10.1759 3.5293 11.0635 3.5293 12.004C3.5293 12.9446 3.51998 14.1588 4.93419 15.5707C6.3484 16.9827 7.52859 16.9827 8.46972 16.9827C9.41086 16.9827 10.2818 16.5861 10.9446 15.9237L15.5 11.4844" stroke="#B2B8BF" stroke-width="2" stroke-linecap="round" stroke-linejoin="round"/>
</svg>
