<svg width="20" height="20" viewBox="0 0 20 20" fill="none" xmlns="http://www.w3.org/2000/svg">
<path fill-rule="evenodd" clip-rule="evenodd" d="M14.6779 2.53537C14.0086 1.86604 12.8943 1.97639 12.3692 2.76398L10.2243 5.98131C9.12876 5.88042 6.68163 5.85007 4.80229 7.3537C4.06388 7.94449 4.13782 8.9658 4.70074 9.52873L7.17626 12.0042L2.22651 16.954V18.3682H3.64072L8.59047 13.4185L11.0647 15.8927C11.6276 16.4556 12.6489 16.5295 13.2397 15.7911C14.7434 13.9118 14.713 11.4647 14.6121 10.3691L17.8294 8.22422C18.617 7.69915 18.7274 6.58481 18.0581 5.91548L14.6779 2.53537ZM11.7289 7.32994L13.695 4.38085L16.2126 6.89843L13.2635 8.86449C12.7561 9.20273 12.5295 9.78839 12.5972 10.3354C12.6877 11.067 12.7599 12.7038 12.0245 14.0241L6.56934 8.5689C7.88959 7.83351 9.52642 7.90575 10.258 7.99624C10.805 8.06388 11.3907 7.83731 11.7289 7.32994Z" fill="#7D838A"/>
</svg>
