<svg width="32" height="32" viewBox="0 0 32 32" fill="none" xmlns="http://www.w3.org/2000/svg">
<path fill-rule="evenodd" clip-rule="evenodd" d="M16 32C24.8366 32 32 24.8366 32 16C32 7.16344 24.8366 0 16 0C7.16344 0 0 7.16344 0 16C0 24.8366 7.16344 32 16 32ZM7 11C7 9.34315 8.34315 8 10 8H22C23.6569 8 25 9.34315 25 11V18C25 19.6569 23.6569 21 22 21H17V23H21C21.5523 23 22 23.4477 22 24C22 24.5523 21.5523 25 21 25H11C10.4477 25 10 24.5523 10 24C10 23.4477 10.4477 23 11 23H15V21H10C8.34315 21 7 19.6569 7 18V11Z" fill="#B2B8BF"/>
</svg>
