<svg width="32" height="32" viewBox="0 0 32 32" fill="none" xmlns="http://www.w3.org/2000/svg">
<g clip-path="url(#clip0_50495_615)">
<mask id="mask0_50495_615" style="mask-type:luminance" maskUnits="userSpaceOnUse" x="0" y="0" width="32" height="32">
<path d="M32 0H0V32H32V0Z" fill="white"/>
</mask>
<g mask="url(#mask0_50495_615)">
<path fill-rule="evenodd" clip-rule="evenodd" d="M20.35 12H16C15.95 12 15.9 11.99 15.85 11.99C15.43 13.44 14.08 14.5 12.5 14.5C10.91 14.5 9.57 13.44 9.14 12H7C6.44 12 6 11.55 6 11C6 10.44 6.44 10 7 10H9.14C9.57 8.55 10.91 7.5 12.5 7.5C14.08 7.5 15.43 8.55 15.85 10C15.9 10 15.95 10 16 10H19.12C19.32 10.78 19.76 11.47 20.35 12ZM12.5 9.5C11.67 9.5 11 10.17 11 11C11 11.82 11.67 12.5 12.5 12.5C13.32 12.5 14 11.82 14 11C14 10.17 13.32 9.5 12.5 9.5ZM18.5 24.5C16.91 24.5 15.57 23.44 15.14 22H7C6.44 22 6 21.55 6 21C6 20.44 6.44 20 7 20H15.14C15.57 18.55 16.91 17.5 18.5 17.5C20.08 17.5 21.43 18.55 21.85 20C21.9 20 21.95 20 22 20H25C25.55 20 26 20.44 26 21C26 21.55 25.55 22 25 22H22C21.95 22 21.9 21.99 21.85 21.99C21.43 23.44 20.08 24.5 18.5 24.5ZM18.5 19.5C17.67 19.5 17 20.17 17 21C17 21.82 17.67 22.5 18.5 22.5C19.32 22.5 20 21.82 20 21C20 20.17 19.32 19.5 18.5 19.5Z" fill="#107F8C"/>
<path fill-rule="evenodd" clip-rule="evenodd" d="M25 13C27.2 13 29 11.2 29 9C29 6.79 27.2 5 25 5C22.79 5 21 6.79 21 9C21 11.2 22.79 13 25 13Z" fill="#FF9900"/>
</g>
</g>
<defs>
<clipPath id="clip0_50495_615">
<rect width="32" height="32" fill="white"/>
</clipPath>
</defs>
</svg>
