<svg width="31" height="31" viewBox="0 0 31 31" fill="none" xmlns="http://www.w3.org/2000/svg">
<path d="M0.499999 15.5C0.5 7.21573 7.21573 0.5 15.5 0.500001C23.7843 0.500001 30.5 7.21573 30.5 15.5C30.5 23.7843 23.7843 30.5 15.5 30.5C7.21573 30.5 0.499999 23.7843 0.499999 15.5Z" fill="white" stroke="#D0D7DD"/>
<path fill-rule="evenodd" clip-rule="evenodd" d="M18.1225 21.0288C18.5008 20.6504 18.5008 20.0371 18.1225 19.6587L13.9638 15.5L18.1225 11.3413C18.5008 10.9629 18.5008 10.3496 18.1225 9.97124C17.7442 9.59292 17.1308 9.59292 16.7525 9.97124L11.9087 14.815C11.5304 15.1933 11.5304 15.8067 11.9087 16.185L16.7525 21.0288C17.1308 21.4071 17.7442 21.4071 18.1225 21.0288Z" fill="#1F1F22"/>
</svg>
