<svg width="16" height="16" viewBox="0 0 16 16" fill="none" xmlns="http://www.w3.org/2000/svg">
<path d="M9 0C7.89543 0 7 0.89543 7 2V5.99998C7 6.55227 7.44772 6.99998 8 6.99998C8.55229 6.99998 9 6.55227 9 5.99998V2L14 2V15C14 15.5523 14.4477 16 15 16C15.5523 16 16 15.5523 16 15V2C16 0.895431 15.1046 0 14 0H9Z" fill="#B2B8BF"/>
<path d="M11 3C10.4477 3 10 3.44772 10 4C10 4.55228 10.4477 5 11 5H12C12.5523 5 13 4.55228 13 4C13 3.44772 12.5523 3 12 3H11Z" fill="#B2B8BF"/>
<path fill-rule="evenodd" clip-rule="evenodd" d="M5.89957 6.95001C5.12635 6.20277 3.90068 6.20065 3.12488 6.94521L0.615147 9.35384C0.222158 9.731 0 10.2521 0 10.7968V13.9999C0 15.1044 0.89543 15.9999 2 15.9999H7C8.10457 15.9999 9 15.1044 9 13.9999V10.7948C9 10.2525 8.77979 9.73345 8.38984 9.3566L5.89957 6.95001ZM2 10.7968L4.50973 8.38818L7 10.7948V13.9999L2 13.9999L2 10.7968Z" fill="#B2B8BF"/>
<path d="M10 7C10 6.44772 10.4477 6 11 6H12C12.5523 6 13 6.44772 13 7C13 7.55228 12.5523 8 12 8H11C10.4477 8 10 7.55228 10 7Z" fill="#B2B8BF"/>
</svg>
