<svg width="20" height="20" viewBox="0 0 20 20" fill="none" xmlns="http://www.w3.org/2000/svg">
<path fill-rule="evenodd" clip-rule="evenodd" d="M8.3667 1.56964C8.74883 1.72026 9 2.08923 9 2.49998V5.88906C12.4959 6.21098 18.0806 8.27207 19.9655 15.2661C20.0781 15.6838 19.9094 16.1265 19.5473 16.3632C19.1853 16.6 18.712 16.5771 18.3745 16.3065C15.5099 14.0101 12.4501 13.7869 9 13.7654V17.5C9 17.9107 8.74883 18.2797 8.3667 18.4303C7.98457 18.5809 7.5492 18.4826 7.26894 18.1823L0.268945 10.6823C-0.0896482 10.2981 -0.0896482 9.70187 0.268945 9.31766L7.26894 1.81766C7.5492 1.51738 7.98457 1.41902 8.3667 1.56964ZM2.36789 9.99998L7 14.963V12.7631C7 12.2108 7.44772 11.7631 8 11.7631C8.03403 11.7631 8.06808 11.7631 8.10216 11.7631C10.9879 11.7629 14.0308 11.7627 16.9697 13.1039C14.6432 8.87041 10.3739 7.84208 8 7.84208C7.44772 7.84208 7 7.39437 7 6.84208V5.037L2.36789 9.99998Z" fill="#7D838A"/>
</svg>
