<svg width="20" height="20" viewBox="0 0 20 20" fill="none" xmlns="http://www.w3.org/2000/svg">
<path d="M12.027 2.08076C12.6807 2.67038 13.0763 3.67198 12.9993 5.09582C12.9459 6.08108 12.8168 6.8415 12.6988 7.36098C12.6879 7.40886 12.6771 7.45469 12.6665 7.49846H16.9931C18.755 7.49846 19.9641 9.27218 19.3202 10.9122L17.213 16.2789C16.6869 17.6188 15.394 18.4999 13.9545 18.4997L6.5 18.4984V7.94778L6.64966 7.8008C7.49082 6.97472 8.5 5.6342 8.5 3.99846C8.5 3.63506 8.5155 3.16051 8.69555 2.71938C8.8877 2.24863 9.25325 1.84721 9.87396 1.61843C10.5369 1.37411 11.3811 1.49816 12.027 2.08076Z" fill="#E4E8EB"/>
<path d="M2 8.49805C1.17157 8.49805 0.5 9.16962 0.5 9.99805V16.998C0.5 17.8265 1.17157 18.498 2 18.498H4.5V8.49805H2Z" fill="#E4E8EB"/>
</svg>
