<svg width="32" height="32" viewBox="0 0 32 32" fill="none" xmlns="http://www.w3.org/2000/svg">
<path fill-rule="evenodd" clip-rule="evenodd" d="M11.001 5.19048C11.001 3.42842 12.4294 2 14.1914 2C15.9535 2 17.3819 3.42842 17.3819 5.19048C17.3819 6.95253 15.9535 8.38095 14.1914 8.38095C12.4294 8.38095 11.001 6.95253 11.001 5.19048ZM14.1914 4C13.534 4 13.001 4.53299 13.001 5.19048C13.001 5.84796 13.534 6.38095 14.1914 6.38095C14.8489 6.38095 15.3819 5.84796 15.3819 5.19048C15.3819 4.53299 14.8489 4 14.1914 4Z" fill="#B2B8BF"/>
<path d="M12.8895 12.5353C12.5355 11.2609 13.4939 10 14.8166 10H21.914C22.4663 10 22.914 10.4477 22.914 11C22.914 11.5523 22.4663 12 21.914 12H14.8166L16.761 19H23.2962C24.1414 19 24.8954 19.5313 25.1797 20.3273L27.4427 26.6637C27.6284 27.1838 27.3574 27.756 26.8373 27.9417C26.3172 28.1275 25.7449 27.8564 25.5592 27.3363L23.2962 21H16.761C15.8626 21 15.0744 20.4009 14.834 19.5353L13.8613 16.0336C10.7583 16.0103 8.13113 18.404 7.90786 21.5426C7.67549 24.8093 10.1352 27.6458 13.4019 27.8781C16.1879 28.0763 18.6633 26.3156 19.4737 23.765C19.641 23.2386 20.2033 22.9475 20.7296 23.1148C21.256 23.282 21.5471 23.8443 21.3798 24.3706C20.296 27.7815 16.9887 30.1384 13.26 29.8731C8.89155 29.5624 5.60215 25.7691 5.9129 21.4007C6.19784 17.3952 9.41063 14.2969 13.3101 14.0493L12.8895 12.5353Z" fill="#B2B8BF"/>
</svg>
