<svg width="16" height="16" viewBox="0 0 16 16" fill="none" xmlns="http://www.w3.org/2000/svg">
<g clip-path="url(#clip0_50299_571)">
<path d="M7.99969 6C9.09969 6 9.99969 6.89 9.99969 8C9.99969 9.1 9.09969 10 7.99969 10C6.88969 10 5.99969 9.1 5.99969 8C5.99969 6.89 6.88969 6 7.99969 6ZM7.99969 3C11.0497 3 13.6797 4.71 14.8097 7.16C15.0597 7.69 15.0597 8.3 14.8097 8.83C13.6797 11.28 11.0497 13 7.99969 13C4.93969 13 2.30969 11.28 1.17969 8.83C0.929688 8.3 0.929688 7.69 1.17969 7.16C2.30969 4.71 4.93969 3 7.99969 3Z" stroke="#565B62" stroke-width="2" stroke-linejoin="round"/>
</g>
<defs>
<clipPath id="clip0_50299_571">
<rect width="16" height="16" fill="white"/>
</clipPath>
</defs>
</svg>
