<svg width="16" height="16" viewBox="0 0 16 16" fill="none" xmlns="http://www.w3.org/2000/svg">
<path d="M10.6319 2.00769C10.0859 2.00769 9.77028 2.24963 8.67481 3.34333L8.67201 3.34613L3.73943 8.23191C3.26386 8.70792 3.00003 9.341 3.00003 10.0137C3.00003 10.4927 3.00274 10.8969 3.13208 11.34C3.25588 11.7641 3.51428 12.2765 4.11146 12.8727C4.7132 13.4735 5.221 13.7333 5.63692 13.8578C6.06995 13.9875 6.46504 13.9923 6.94045 13.9923C7.59136 13.9923 8.21464 13.7195 8.70844 13.226L8.71735 13.2171L13.2728 8.77783C13.6683 8.39238 14.3014 8.40055 14.6869 8.79607C15.0724 9.1916 15.0642 9.82472 14.6687 10.2102L10.1175 14.6454C9.28624 15.4739 8.16949 15.9923 6.94045 15.9923L6.91155 15.9923C6.4474 15.9924 5.79386 15.9925 5.06326 15.7738C4.30025 15.5453 3.51086 15.0992 2.69838 14.288C1.88135 13.4723 1.43731 12.6716 1.21221 11.9005C0.99947 11.1717 0.99979 10.5171 1.00001 10.0572L1.00003 10.0137C1.00003 8.80588 1.47798 7.66442 2.32706 6.81585L2.33022 6.81269L7.26314 1.92658L7.3868 1.80283C8.28758 0.900398 9.17865 0.00769043 10.6319 0.00769043C11.5357 0.00769043 12.6907 0.370688 13.5886 1.26723C14.485 2.16209 14.8562 3.31962 14.8562 4.22679C14.8562 5.68457 13.8597 6.67636 12.9332 7.59841L12.358 8.16596C12.0113 8.50807 11.5421 8.97104 11.0525 9.45452C10.0717 10.4229 9.01258 11.4696 8.68604 11.7956C7.57838 12.9015 6.00634 12.6489 5.14384 11.7878C4.25823 10.9036 4.07498 9.35477 5.16042 8.27108C5.48984 7.94219 5.92558 7.5104 6.35404 7.08587L6.37444 7.06566L6.37463 7.06547C6.79699 6.64698 7.2104 6.23736 7.5104 5.93784C7.90124 5.54763 8.5344 5.54814 8.92461 5.93898C9.31482 6.32982 9.31431 6.96299 8.92347 7.35319C8.62101 7.65517 8.20586 8.06651 7.78565 8.48287L7.78466 8.48386L7.76173 8.50657C7.33237 8.93201 6.89965 9.3608 6.57349 9.68644C6.4406 9.81912 6.40916 9.94458 6.41213 10.0456C6.41551 10.161 6.46612 10.2818 6.55692 10.3724C6.65114 10.4665 6.78456 10.5255 6.91385 10.5314C7.02608 10.5365 7.14914 10.5039 7.27297 10.3802C7.60452 10.0492 8.66896 8.99731 9.64727 8.03135C10.1371 7.54767 10.6064 7.08453 10.9532 6.74233L11.5223 6.18091C12.6364 5.06845 12.8562 4.77666 12.8562 4.22679C12.8562 3.80922 12.6678 3.17402 12.1756 2.68258C11.685 2.19283 11.0535 2.00769 10.6319 2.00769Z" fill="#B2B8BF"/>
</svg>
