<svg width="32" height="32" viewBox="0 0 32 32" fill="none" xmlns="http://www.w3.org/2000/svg">
<circle cx="24" cy="8" r="4" fill="#FF9900"/>
<path d="M18.083 7H8C6.89543 7 6 7.89543 6 9V9.12426C6 9.60871 6.17584 10.0767 6.49485 10.4413L13 17.8757L13 24.557C13 25.9534 14.3947 26.92 15.7022 26.4297L17.7022 25.6797C18.4829 25.3869 19 24.6407 19 23.807V17.8757L22.5464 13.8227C21.8542 13.6505 21.2096 13.3581 20.6359 12.9689L17.4948 16.5587C17.1758 16.9233 17 17.3913 17 17.8757V23.807L15 24.557V17.8757C15 17.3913 14.8242 16.9233 14.5052 16.5587L8 9.12426V9H18.083C18.0284 8.67479 18 8.34071 18 8C18 7.65929 18.0284 7.32521 18.083 7Z" fill="#B2B8BF"/>
</svg>
