<svg width="20" height="20" viewBox="0 0 20 20" fill="none" xmlns="http://www.w3.org/2000/svg">
<path fill-rule="evenodd" clip-rule="evenodd" d="M15.8792 1.27161C16.6291 0.821657 17.5888 0.939969 18.2071 1.55814C18.8256 2.17654 18.9435 3.13639 18.4937 3.88612L18.4937 3.88614L16.0706 7.92461L17.8539 15.0579C18.0112 15.6871 17.8269 16.3526 17.3683 16.8112C16.596 17.5836 15.3256 17.5202 14.6339 16.6748L11.3191 12.6234L9.00001 14.2799V16.7653C9.00001 17.0305 8.89465 17.2849 8.70711 17.4724L7.70711 18.4724C7.48937 18.6902 7.18345 18.7954 6.87782 18.7578C6.5722 18.7202 6.30095 18.5438 6.14251 18.2798L4.70585 15.8854L3.87995 15.0595L1.48551 13.6228C1.22146 13.4644 1.04512 13.1931 1.0075 12.8875C0.969876 12.5819 1.07516 12.2759 1.2929 12.0582L2.2929 11.0582C2.48044 10.8707 2.73479 10.7653 3.00001 10.7653H5.48539L7.1419 8.44619L3.09048 5.13139C2.24511 4.43972 2.18175 3.16935 2.9541 2.39699C3.41267 1.93842 4.07822 1.75408 4.70737 1.91137L11.8407 3.6947L15.8792 1.27164C15.8792 1.27163 15.8792 1.27162 15.8792 1.27161ZM16.5845 3.1808L12.5145 5.6228C12.2871 5.75925 12.0148 5.79977 11.7575 5.73545L4.8882 4.01813L9.13325 7.49134C9.54103 7.82499 9.61999 8.4178 9.31374 8.84654L6.81374 12.3465C6.62603 12.6093 6.32296 12.7653 6.00001 12.7653H3.94366L5.0145 13.4078C5.08461 13.4499 5.1493 13.5004 5.20711 13.5582L6.20711 14.5582C6.26493 14.616 6.31543 14.6807 6.3575 14.7508L7.00001 15.8217V13.7653C7.00001 13.4424 7.15597 13.1393 7.41877 12.9516L10.9188 10.4516C11.3475 10.1453 11.9403 10.2243 12.274 10.6321L15.7472 14.8771L14.0299 8.00784C13.9655 7.75054 14.0061 7.47823 14.1425 7.25081L16.5845 3.1808ZM16.9081 2.98666L16.9082 2.9866L16.9081 2.98666Z" fill="#B2B8BF"/>
</svg>
