<svg width="16" height="16" viewBox="0 0 16 16" fill="none" xmlns="http://www.w3.org/2000/svg">
<path fill-rule="evenodd" clip-rule="evenodd" d="M3 3C3.55228 3 4 3.44772 4 4V5H5C5.55228 5 6 5.44772 6 6C6 6.55228 5.55228 7 5 7H4V8C4 8.55228 3.55228 9 3 9C2.44772 9 2 8.55228 2 8V7H1C0.447715 7 0 6.55228 0 6C0 5.44771 0.447715 5 1 5H2V4C2 3.44772 2.44772 3 3 3ZM10 3C8.48122 3 7.25 4.23122 7.25 5.75C7.25 7.26878 8.48122 8.5 10 8.5C11.5188 8.5 12.75 7.26878 12.75 5.75C12.75 4.23122 11.5188 3 10 3ZM9.25 5.75C9.25 5.33579 9.58579 5 10 5C10.4142 5 10.75 5.33579 10.75 5.75C10.75 6.16421 10.4142 6.5 10 6.5C9.58579 6.5 9.25 6.16421 9.25 5.75ZM13 12.2318C13 11.8863 12.8104 11.4531 12.2942 11.0715L11.4808 9.23285C11.9733 8.92428 12.6338 8.92369 13.126 9.22338L13.127 9.22401C14.2235 9.8935 15 10.9643 15 12.2318C15 12.7841 14.5523 13.2318 14 13.2318C13.4477 13.2318 13 12.7841 13 12.2318ZM9.96546 11.63C10.7826 11.63 11.5991 11.4426 12.2942 11.0715L11.4807 9.23291C11.0941 9.47508 10.5562 9.62995 9.96546 9.62995C9.38635 9.62995 8.85533 9.4805 8.4707 9.24554L8.46882 9.2444C7.97634 8.94504 7.31743 8.94616 6.82526 9.25348L6.82378 9.2544C5.75446 9.92469 5 10.9853 5 12.2318C5 12.7841 5.44772 13.2318 6 13.2318C6.55228 13.2318 7 12.7841 7 12.2318C7 11.8938 7.18305 11.4695 7.67743 11.093C8.36348 11.4498 9.16512 11.63 9.96546 11.63Z" fill="#7D838A"/>
</svg>
