<svg width="32" height="31" viewBox="0 0 32 31" fill="none" xmlns="http://www.w3.org/2000/svg">
<path fill-rule="evenodd" clip-rule="evenodd" d="M8 11.7634C8 6.88796 12.0128 2.90625 17 2.90625C19.8809 2.90625 22.4393 4.23791 24.0835 6.29911L26.2929 4.15874C26.6834 3.78042 27.3166 3.78042 27.7071 4.15874C28.0976 4.53706 28.0976 5.15044 27.7071 5.52876L5.70711 26.8413C5.31658 27.2196 4.68342 27.2196 4.29289 26.8413C3.90237 26.4629 3.90237 25.8496 4.29289 25.4712L8 21.88V12.1786C8 12.144 8.00187 12.1098 8.00552 12.0762C8.00185 11.9723 8 11.8681 8 11.7634ZM10 19.9425L19.7612 10.4863C19.3032 9.44557 18.2381 8.71875 17 8.71875C15.3431 8.71875 14 10.0199 14 11.625C14 12.16 13.5523 12.5938 13 12.5938C12.4477 12.5938 12 12.16 12 11.625C12 8.94987 14.2386 6.78125 17 6.78125C18.788 6.78125 20.3552 7.69025 21.2387 9.055L22.6545 7.68344C21.3773 5.95673 19.3166 4.84375 17 4.84375C13.1506 4.84375 10 7.92554 10 11.7634C10 11.8862 10.0032 12.0082 10.0096 12.1293C10.013 12.1939 10.0097 12.2582 10 12.3212V19.9425Z" fill="#B2B8BF"/>
<path d="M25 10.7946C25.5523 10.7946 26 11.2284 26 11.7634C26 14.7196 24.5267 17.3425 22.2592 18.9517C21.468 19.5132 20.9474 20.6492 20.9474 21.7277C20.9474 25.2273 18.0656 28.0938 14.4737 28.0938C12.9099 28.0938 11.4751 27.5474 10.3583 26.642C9.9347 26.2987 9.87865 25.6877 10.2331 25.2774C10.5875 24.8671 11.2182 24.8128 11.6417 25.1561C12.4149 25.7828 13.3998 26.1562 14.4737 26.1562C16.9278 26.1562 18.9474 24.1897 18.9474 21.7277C18.9474 20.1657 19.6696 18.3877 21.0772 17.3888C22.8454 16.1339 24 14.0845 24 11.7634C24 11.2284 24.4477 10.7946 25 10.7946Z" fill="#B2B8BF"/>
</svg>
