<svg width="24" height="24" viewBox="0 0 24 24" fill="none" xmlns="http://www.w3.org/2000/svg">
<path fill-rule="evenodd" clip-rule="evenodd" d="M7.43359 10.5662C7.43359 8.04434 9.47793 6 11.9998 6C14.5216 6 16.5659 8.04434 16.5659 10.5662C16.5659 13.088 14.5216 15.1323 11.9998 15.1323C9.47793 15.1323 7.43359 13.088 7.43359 10.5662ZM11.9998 8C10.5825 8 9.43359 9.14891 9.43359 10.5662C9.43359 11.9834 10.5825 13.1323 11.9998 13.1323C13.417 13.1323 14.5659 11.9834 14.5659 10.5662C14.5659 9.14891 13.417 8 11.9998 8Z" fill="#B2B8BF"/>
<path fill-rule="evenodd" clip-rule="evenodd" d="M12 0C5.37258 0 0 5.37258 0 12C0 18.6274 5.37258 24 12 24C18.6274 24 24 18.6274 24 12C24 5.37258 18.6274 0 12 0ZM2 12C2 6.47715 6.47715 2 12 2C17.5228 2 22 6.47715 22 12C22 14.545 21.0493 16.868 19.4836 18.6331C18.9951 17.539 18.2444 16.557 17.2778 15.7701L17.2768 15.7692C16.6012 15.2208 15.616 15.2249 14.9459 15.7847C14.1216 16.4732 13.0537 16.859 11.9384 16.859C10.8445 16.859 9.79209 16.4866 8.97511 15.8211L8.97322 15.8196C8.29701 15.2716 7.3141 15.2765 6.6437 15.8346L6.64224 15.8358C5.71479 16.611 4.99211 17.5698 4.51707 18.6339C2.951 16.8686 2 14.5454 2 12ZM6.10668 20.0798C6.41042 19.0906 6.99644 18.1805 7.82134 17.4589C8.98646 18.3666 10.443 18.859 11.9384 18.859C13.4638 18.859 14.9439 18.348 16.1197 17.4082C16.9772 18.1387 17.5835 19.067 17.8939 20.0793C16.2411 21.2871 14.2038 22 12 22C9.79644 22 7.75935 21.2873 6.10668 20.0798Z" fill="#B2B8BF"/>
</svg>
