<svg width="32" height="32" viewBox="0 0 32 32" fill="none" xmlns="http://www.w3.org/2000/svg">
<g clip-path="url(#clip0_50495_614)">
<mask id="mask0_50495_614" style="mask-type:luminance" maskUnits="userSpaceOnUse" x="0" y="0" width="32" height="32">
<path d="M32 0H0V32H32V0Z" fill="white"/>
</mask>
<g mask="url(#mask0_50495_614)">
<path fill-rule="evenodd" clip-rule="evenodd" d="M9.14 12C9.57 13.44 10.91 14.5 12.5 14.5C14.08 14.5 15.43 13.44 15.85 11.99C15.9 11.99 15.95 12 16 12H25C25.55 12 26 11.55 26 11C26 10.44 25.55 10 25 10H16C15.95 10 15.9 10 15.85 10C15.43 8.55 14.08 7.5 12.5 7.5C10.91 7.5 9.57 8.55 9.14 10H7C6.44 10 6 10.44 6 11C6 11.55 6.44 12 7 12H9.14ZM12.5 9.5C11.67 9.5 11 10.17 11 11C11 11.82 11.67 12.5 12.5 12.5C13.32 12.5 14 11.82 14 11C14 10.17 13.32 9.5 12.5 9.5ZM18.5 24.5C16.91 24.5 15.57 23.44 15.14 22H7C6.44 22 6 21.55 6 21C6 20.44 6.44 20 7 20H15.14C15.57 18.55 16.91 17.5 18.5 17.5C20.08 17.5 21.43 18.55 21.85 20C21.9 20 21.95 20 22 20H25C25.55 20 26 20.44 26 21C26 21.55 25.55 22 25 22H22C21.95 22 21.9 21.99 21.85 21.99C21.43 23.44 20.08 24.5 18.5 24.5ZM18.5 19.5C17.67 19.5 17 20.17 17 21C17 21.82 17.67 22.5 18.5 22.5C19.32 22.5 20 21.82 20 21C20 20.17 19.32 19.5 18.5 19.5Z" fill="#107F8C"/>
</g>
</g>
<defs>
<clipPath id="clip0_50495_614">
<rect width="32" height="32" fill="white"/>
</clipPath>
</defs>
</svg>
