<svg width="32" height="32" viewBox="0 0 32 32" fill="none" xmlns="http://www.w3.org/2000/svg">
<path d="M16.0008 8C14.1561 8 12.5066 8.83125 11.4044 10.1432C11.0491 10.5661 10.4183 10.6209 9.99546 10.2657C9.57259 9.91042 9.51778 9.27963 9.87303 8.85676C11.339 7.1118 13.5405 6 16.0008 6C18.4611 6 20.6626 7.1118 22.1286 8.85676C22.4838 9.27963 22.429 9.91042 22.0062 10.2657C21.5833 10.6209 20.9525 10.5661 20.5973 10.1432C19.4951 8.83125 17.8455 8 16.0008 8Z" fill="#21A19A"/>
<path fill-rule="evenodd" clip-rule="evenodd" d="M23.6 11C25.4778 11 27 12.5222 27 14.4V17.6C27 19.4778 25.4778 21 23.6 21C23.5644 21 23.529 20.9993 23.4937 20.9979C23.0484 22.0733 22.3387 23.0304 21.4834 23.8042C20.0099 25.1374 18.0271 26.0001 16 26.0001L15.9777 25.9999C15.9773 25.9999 15.978 25.9999 15.9777 25.9999C14.8838 25.9874 14 25.0968 14 24C14 22.8954 14.8954 22 16 22C16.981 22 17.797 22.7063 17.9673 23.6381C18.7576 23.3488 19.5054 22.8967 20.1416 22.3211C20.8327 21.6958 21.3641 20.9515 21.6783 20.1513C21.2569 19.6892 21 19.0746 21 18.4V13.6C21 12.1641 22.1641 11 23.6 11ZM25 14.4C25 13.6268 24.3732 13 23.6 13C23.2686 13 23 13.2686 23 13.6V18.4C23 18.7314 23.2686 19 23.6 19C24.3732 19 25 18.3732 25 17.6V14.4Z" fill="#21A19A"/>
<path fill-rule="evenodd" clip-rule="evenodd" d="M8.4 21C6.52223 21 5 19.4778 5 17.6V14.4C5 12.5222 6.52223 11 8.4 11C9.83594 11 11 12.1641 11 13.6L11 18.4C11 19.8359 9.83594 21 8.4 21ZM7 17.6C7 18.3732 7.6268 19 8.4 19C8.73137 19 9 18.7314 9 18.4L9 13.6C9 13.2686 8.73137 13 8.4 13C7.6268 13 7 13.6268 7 14.4L7 17.6Z" fill="#21A19A"/>
</svg>
