<svg width="32" height="32" viewBox="0 0 32 32" fill="none" xmlns="http://www.w3.org/2000/svg">
<path fill-rule="evenodd" clip-rule="evenodd" d="M5.875 8H25.6875C26.2398 8 26.6875 8.44771 26.6875 9V23.9375C26.6875 24.4898 26.2398 24.9375 25.6875 24.9375H5.875C5.32272 24.9375 4.875 24.4898 4.875 23.9375V9C4.875 8.44772 5.32272 8 5.875 8ZM2.875 9C2.875 7.34315 4.21815 6 5.875 6H25.6875C27.3444 6 28.6875 7.34315 28.6875 9V23.9375C28.6875 25.5944 27.3444 26.9375 25.6875 26.9375H5.875C4.21815 26.9375 2.875 25.5944 2.875 23.9375V9ZM11.0011 12.0742H9.34375C8.79147 12.0742 8.34375 12.5219 8.34375 13.0742V19.8265C8.34375 20.3787 8.79147 20.8265 9.34375 20.8265C9.89603 20.8265 10.3438 20.3787 10.3438 19.8265V18.4937H11.0011L11.0512 18.4934L12.6188 20.4529C12.9638 20.8841 13.5931 20.954 14.0243 20.609C14.4556 20.264 14.5255 19.6347 14.1805 19.2035L13.1758 17.9475C13.2265 17.9191 13.2768 17.8894 13.3265 17.8583C14.1194 17.3627 14.7632 16.5144 14.7632 15.284C14.7632 14.0535 14.1194 13.2052 13.3265 12.7096C12.5772 12.2413 11.6905 12.0742 11.0011 12.0742ZM10.3438 16.4937V14.0742H11.0011C11.4165 14.0742 11.9109 14.1834 12.2665 14.4056C12.5784 14.6005 12.7632 14.8571 12.7632 15.284C12.7632 15.7108 12.5784 15.9674 12.2665 16.1623C11.9109 16.3846 11.4165 16.4937 11.0011 16.4937H10.3438ZM18.3906 13.0874C18.3906 12.5351 17.9429 12.0874 17.3906 12.0874C16.8383 12.0874 16.3906 12.5351 16.3906 13.0874V17.4507C16.3906 19.3353 17.9184 20.8631 19.8031 20.8631C21.6877 20.8631 23.2155 19.3353 23.2155 17.4507V13.0874C23.2155 12.5351 22.7678 12.0874 22.2155 12.0874C21.6632 12.0874 21.2155 12.5351 21.2155 13.0874V17.4507C21.2155 18.2308 20.5831 18.8631 19.8031 18.8631C19.023 18.8631 18.3906 18.2308 18.3906 17.4507V13.0874Z" fill="#7D838A"/>
</svg>
