<svg width="16" height="17" viewBox="0 0 16 17" fill="none" xmlns="http://www.w3.org/2000/svg">
<g clip-path="url(#clip0)">
<path d="M10.6319 2.08881C10.0859 2.08881 9.77028 2.34056 8.67481 3.47862L8.67201 3.48153L3.73943 8.56547C3.26386 9.06078 3.00003 9.71954 3.00003 10.4195C3.00003 10.9179 3.00274 11.3386 3.13208 11.7997C3.25588 12.2409 3.51428 12.7741 4.11146 13.3945C4.7132 14.0196 5.221 14.29 5.63692 14.4196C6.06995 14.5545 6.46504 14.5595 6.94045 14.5595C7.59136 14.5595 8.21464 14.2757 8.70844 13.7621L8.71735 13.7529L13.2728 9.13353C13.6683 8.73244 14.3014 8.74094 14.6869 9.15251C15.0724 9.56409 15.0642 10.2229 14.6687 10.624L10.1175 15.2391C9.28624 16.1012 8.16949 16.6406 6.94045 16.6406L6.91155 16.6406C6.4474 16.6407 5.79386 16.6409 5.06326 16.4132C4.30025 16.1755 3.51086 15.7113 2.69838 14.8672C1.88135 14.0184 1.43731 13.1852 1.21221 12.3828C0.99947 11.6245 0.99979 10.9433 1.00001 10.4648L1.00003 10.4195C1.00003 9.16271 1.47798 7.97496 2.32706 7.09197L2.33022 7.08869L7.26314 2.00441L7.3868 1.87564C8.28758 0.936605 9.17865 0.00769043 10.6319 0.00769043C11.5357 0.00769043 12.6907 0.385411 13.5886 1.31831C14.485 2.24947 14.8562 3.45394 14.8562 4.39791C14.8562 5.91481 13.8597 6.94682 12.9332 7.90627L12.358 8.49685C12.0113 8.85283 11.5421 9.33457 11.0525 9.83766C10.0717 10.8453 9.01258 11.9344 8.68604 12.2737C7.57838 13.4244 6.00634 13.1616 5.14384 12.2656C4.25823 11.3455 4.07498 9.73387 5.16042 8.60623C5.48984 8.26399 5.92558 7.8147 6.35404 7.37294L6.37444 7.35191C6.79687 6.91638 7.21036 6.49006 7.5104 6.17836C7.90124 5.77232 8.5344 5.77285 8.92461 6.17954C9.31482 6.58623 9.31431 7.24508 8.92347 7.65111C8.62077 7.96558 8.20521 8.39404 7.78466 8.82763L7.76173 8.85127C7.33237 9.29396 6.89965 9.74015 6.57349 10.079C6.4406 10.217 6.40916 10.3476 6.41213 10.4528C6.41551 10.5728 6.46612 10.6985 6.55692 10.7928C6.65114 10.8907 6.78456 10.9521 6.91385 10.9582C7.02608 10.9635 7.14914 10.9296 7.27297 10.8009C7.60452 10.4565 8.66896 9.36191 9.64727 8.35678C10.1371 7.85347 10.6064 7.37156 10.9532 7.01547L11.5223 6.43127C12.6364 5.27371 12.8562 4.97008 12.8562 4.39791C12.8562 3.9634 12.6678 3.30243 12.1756 2.79107C11.685 2.28145 11.0535 2.08881 10.6319 2.08881Z" fill="#B2B8BF"/>
</g>
<defs>
<clipPath id="clip0">
<rect width="16" height="16.6489" fill="white"/>
</clipPath>
</defs>
</svg>
