<svg width="20" height="20" viewBox="0 0 20 20" fill="none" xmlns="http://www.w3.org/2000/svg">
<path fill-rule="evenodd" clip-rule="evenodd" d="M5 1C3.34315 1 2 2.34315 2 4V7V11C2 11.5523 2.44772 12 3 12C3.55228 12 4 11.5523 4 11V8H16V11C16 11.5523 16.4477 12 17 12C17.5523 12 18 11.5523 18 11V7V4C18 2.34315 16.6569 1 15 1H5ZM4 4C4 3.44772 4.44772 3 5 3H15C15.5523 3 16 3.44772 16 4V6H4V4ZM5 18H15V19C15 19.5523 15.4477 20 16 20C16.5523 20 17 19.5523 17 19V18C17.5523 18 18 17.5523 18 17C18 16.4477 17.5523 16 17 16H3C2.44772 16 2 16.4477 2 17C2 17.5523 2.44772 18 3 18V19C3 19.5523 3.44772 20 4 20C4.55228 20 5 19.5523 5 19V18ZM7 13C6.44772 13 6 13.4477 6 14C6 14.5523 6.44772 15 7 15H13C13.5523 15 14 14.5523 14 14C14 13.4477 13.5523 13 13 13H7ZM17 14C17 14.5523 16.5523 15 16 15C15.4477 15 15 14.5523 15 14C15 13.4477 15.4477 13 16 13C16.5523 13 17 13.4477 17 14ZM4 15C4.55228 15 5 14.5523 5 14C5 13.4477 4.55228 13 4 13C3.44772 13 3 13.4477 3 14C3 14.5523 3.44772 15 4 15Z" fill="#B2B8BF"/>
</svg>
