<svg width="16" height="16" viewBox="0 0 16 16" fill="none" xmlns="http://www.w3.org/2000/svg">
<path d="M10.6319 2.04785C10.0859 2.04785 9.77028 2.29465 8.67481 3.41032L8.67201 3.41317L3.73943 8.39706C3.26386 8.88263 3.00003 9.52842 3.00003 10.2146C3.00003 10.7032 3.00274 11.1156 3.13208 11.5676C3.25588 12.0002 3.51428 12.5228 4.11146 13.131C4.7132 13.7439 5.221 14.0089 5.63692 14.136C6.06995 14.2682 6.46504 14.2731 6.94045 14.2731C7.59136 14.2731 8.21464 13.9949 8.70844 13.4915L8.71735 13.4824L13.2728 8.95394C13.6683 8.56075 14.3014 8.56908 14.6869 8.97255C15.0724 9.37602 15.0642 10.0218 14.6687 10.415L10.1175 14.9393C9.28624 15.7845 8.16949 16.3133 6.94045 16.3133L6.91155 16.3133C6.4474 16.3134 5.79386 16.3135 5.06326 16.0904C4.30025 15.8573 3.51086 15.4023 2.69838 14.5748C1.88135 13.7427 1.43731 12.9259 1.21221 12.1393C0.99947 11.3959 0.99979 10.7281 1.00001 10.259L1.00003 10.2146C1.00003 8.98255 1.47798 7.81817 2.32706 6.95256L2.33022 6.94934L7.26314 1.96512L7.3868 1.83888C8.28758 0.918324 9.17865 0.00769043 10.6319 0.00769043C11.5357 0.00769043 12.6907 0.377978 13.5886 1.29252C14.485 2.20535 14.8562 3.38612 14.8562 4.31151C14.8562 5.79857 13.8597 6.81027 12.9332 7.75083L12.358 8.32979C12.0113 8.67876 11.5421 9.15103 11.0525 9.64422C10.0717 10.632 9.01258 11.6997 8.68604 12.0323C7.57838 13.1604 6.00634 12.9027 5.14384 12.0243C4.25823 11.1224 4.07498 9.54247 5.16042 8.43702C5.48984 8.10152 5.92558 7.66106 6.35404 7.228L6.37444 7.20738L6.3749 7.20692C6.79717 6.78012 7.21047 6.36238 7.5104 6.05692C7.90124 5.65888 8.5344 5.6594 8.92461 6.05809C9.31482 6.45677 9.31431 7.10265 8.92347 7.5007C8.62077 7.80898 8.20521 8.229 7.78466 8.65406L7.76173 8.67724C7.33237 9.11121 6.89965 9.54862 6.57349 9.88079C6.4406 10.0161 6.40916 10.1441 6.41213 10.2472C6.41551 10.3649 6.46612 10.4881 6.55692 10.5806C6.65114 10.6765 6.78456 10.7367 6.91385 10.7427C7.02608 10.7479 7.14914 10.7146 7.27297 10.5885C7.60452 10.2509 8.66896 9.17783 9.64727 8.19247C10.1371 7.69908 10.6064 7.22664 10.9532 6.87757L11.5223 6.30484C12.6364 5.17007 12.8562 4.87242 12.8562 4.31151C12.8562 3.88556 12.6678 3.2376 12.1756 2.7363C11.685 2.23671 11.0535 2.04785 10.6319 2.04785Z" fill="#B2B8BF"/>
</svg>
