<svg width="16" height="16" viewBox="0 0 16 16" fill="none" xmlns="http://www.w3.org/2000/svg">
<path d="M3.97037 1.74341C3.97471 1.76542 3.9783 1.7874 3.98114 1.80933L5.73492 10.4581L14.7692 8.63724C15.3105 8.52812 15.8379 8.87855 15.947 9.41995C16.0561 9.96135 15.7057 10.4887 15.1643 10.5978L6.13239 12.4182L6.26069 13.051C6.37045 13.5923 6.02064 14.12 5.47937 14.2298C4.9381 14.3396 4.41034 13.9897 4.30059 13.4485L2.2044 3.11107L1.2035 3.30852C0.661656 3.41541 0.135755 3.06281 0.0288639 2.52097C-0.078027 1.97913 0.274571 1.45322 0.816413 1.34633L2.79574 0.955866C3.33758 0.848975 3.86348 1.20157 3.97037 1.74341Z" fill="#B2B8BF"/>
<path d="M13.5306 14.7811C14.359 14.7811 15.0306 14.1096 15.0306 13.2811C15.0306 12.4527 14.359 11.7811 13.5306 11.7811C12.7022 11.7811 12.0306 12.4527 12.0306 13.2811C12.0306 14.1096 12.7022 14.7811 13.5306 14.7811Z" fill="#B2B8BF"/>
<path d="M8.53061 15.7811C9.35904 15.7811 10.0306 15.1096 10.0306 14.2811C10.0306 13.4527 9.35904 12.7811 8.53061 12.7811C7.70219 12.7811 7.03061 13.4527 7.03061 14.2811C7.03061 15.1096 7.70219 15.7811 8.53061 15.7811Z" fill="#B2B8BF"/>
<path fill-rule="evenodd" clip-rule="evenodd" d="M13.0589 7.69532C13.5996 7.58281 13.9467 7.05327 13.8342 6.51257L12.8528 1.79629C12.7403 1.25559 12.2107 0.908476 11.67 1.02099L6.25193 2.14846C5.71123 2.26098 5.36411 2.79051 5.47663 3.33122L6.45805 8.04749C6.57057 8.5882 7.10011 8.93531 7.64081 8.82279L13.0589 7.69532ZM11.0985 3.18278L11.6724 5.941L8.21238 6.66101L7.63841 3.90279L11.0985 3.18278Z" fill="#B2B8BF"/>
</svg>
