<svg width="20" height="20" viewBox="0 0 20 20" fill="none" xmlns="http://www.w3.org/2000/svg">
<path fill-rule="evenodd" clip-rule="evenodd" d="M9.99935 5.66675C7.60612 5.66675 5.66602 7.60685 5.66602 10.0001C5.66602 12.3933 7.60612 14.3334 9.99935 14.3334C12.3926 14.3334 14.3327 12.3933 14.3327 10.0001C14.3327 7.60685 12.3926 5.66675 9.99935 5.66675ZM7.66602 10.0001C7.66602 8.71142 8.71068 7.66675 9.99935 7.66675C11.288 7.66675 12.3327 8.71142 12.3327 10.0001C12.3327 11.2887 11.288 12.3334 9.99935 12.3334C8.71068 12.3334 7.66602 11.2887 7.66602 10.0001Z" fill="#D0D7DD"/>
<path fill-rule="evenodd" clip-rule="evenodd" d="M9.9999 2.33325C5.80517 2.33325 2.20603 4.87347 0.652515 8.49551C0.240828 9.45536 0.240828 10.5445 0.652515 11.5043C2.20603 15.1264 5.80517 17.6666 9.9999 17.6666C14.1946 17.6666 17.7938 15.1264 19.3473 11.5043C19.759 10.5445 19.759 9.45536 19.3473 8.49551C17.7938 4.87348 14.1946 2.33325 9.9999 2.33325ZM2.49058 9.28386C3.74006 6.37069 6.63318 4.33325 9.9999 4.33325C13.3666 4.33325 16.2597 6.3707 17.5092 9.28386C17.705 9.74032 17.705 10.2595 17.5092 10.716C16.2597 13.6291 13.3666 15.6666 9.9999 15.6666C6.63318 15.6666 3.74006 13.6291 2.49058 10.716C2.29481 10.2595 2.29481 9.74032 2.49058 9.28386Z" fill="#D0D7DD"/>
</svg>
