<svg width="32" height="32" viewBox="0 0 32 32" fill="none" xmlns="http://www.w3.org/2000/svg">
<path fill-rule="evenodd" clip-rule="evenodd" d="M16 32C24.8366 32 32 24.8366 32 16C32 7.16344 24.8366 0 16 0C7.16344 0 0 7.16344 0 16C0 24.8366 7.16344 32 16 32ZM11.4044 10.1432C12.5066 8.83125 14.1561 8 16.0008 8C17.8455 8 19.4951 8.83125 20.5973 10.1432C20.9525 10.5661 21.5833 10.6209 22.0062 10.2657C22.429 9.91042 22.4838 9.27963 22.1286 8.85676C20.6626 7.1118 18.4611 6 16.0008 6C13.5405 6 11.339 7.1118 9.87303 8.85676C9.51778 9.27963 9.57259 9.91042 9.99546 10.2657C10.4183 10.6209 11.0491 10.5661 11.4044 10.1432ZM6 14.4C6 13.0745 7.07452 12 8.4 12C9.28366 12 10 12.7163 10 13.6V18.4C10 19.2837 9.28366 20 8.4 20C7.07452 20 6 18.9255 6 17.6V14.4ZM26 14.4C26 13.0745 24.9255 12 23.6 12C22.7163 12 22 12.7163 22 13.6V18.4C22 18.4187 22.0003 18.4373 22.001 18.4559C22.0003 18.4705 22 18.4852 22 18.5C22 19.9092 21.292 21.2801 20.1416 22.321C19.5054 22.8965 18.7576 23.3486 17.9673 23.638C17.797 22.7062 16.981 22 16 22C14.8954 22 14 22.8954 14 24C14 25.1046 14.8954 26 16 26C18.0271 26 20.0099 25.1372 21.4834 23.804C22.5977 22.7959 23.465 21.4766 23.8223 19.9898C25.0435 19.8777 26 18.8505 26 17.6V14.4Z" fill="#107F8C"/>
</svg>
