<svg width="16" height="16" viewBox="0 0 16 16" fill="none" xmlns="http://www.w3.org/2000/svg">
<path d="M9 12V10.6181C9.30687 10.3434 9.5 9.94425 9.5 9.5C9.5 8.67157 8.82843 8 8 8C7.17157 8 6.5 8.67157 6.5 9.5C6.5 9.94425 6.69313 10.3434 7 10.6181V12C7 12.5523 7.44772 13 8 13C8.55228 13 9 12.5523 9 12Z" fill="#E4E8EB"/>
<path fill-rule="evenodd" clip-rule="evenodd" d="M3 5H3.5V4.5C3.5 2.01472 5.51472 0 8 0C10.4853 0 12.5 2.01472 12.5 4.5V5H13C14.1046 5 15 5.89543 15 7V12C15 14.2091 13.2091 16 11 16H5C2.79086 16 1 14.2091 1 12V7C1 5.89543 1.89543 5 3 5ZM10.5 4.5V5H5.5V4.5C5.5 3.11929 6.61929 2 8 2C9.38071 2 10.5 3.11929 10.5 4.5ZM3 7V12C3 13.1046 3.89543 14 5 14H11C12.1046 14 13 13.1046 13 12L13 7H3Z" fill="#E4E8EB"/>
</svg>
