<svg width="20" height="20" viewBox="0 0 20 20" fill="none" xmlns="http://www.w3.org/2000/svg">
<path fill-rule="evenodd" clip-rule="evenodd" d="M13.4985 5.12276C13.5811 3.59727 13.1597 2.42906 12.3619 1.70939C11.5796 1.00379 10.5402 0.839897 9.70105 1.1492C8.94624 1.4274 8.47686 1.93199 8.23263 2.53034C8.01258 3.06944 8 3.63051 8 3.99837C8 5.16042 7.41522 6.18551 6.7408 6.97219C6.41035 7.35765 6.07789 7.66252 5.82866 7.87017C5.77071 7.91845 5.71766 7.96114 5.67064 7.99805H2C0.89543 7.99805 0 8.89348 0 9.99805V16.998C0 18.1026 0.895431 18.998 2 18.998H5.97497C5.98324 18.9982 5.99153 18.9984 5.99984 18.9984L13.9545 18.9996C15.5996 18.9999 17.0771 17.9929 17.6784 16.4615L19.7856 11.0948C20.5583 9.12683 19.1074 6.99837 16.9931 6.99837H13.2831C13.3741 6.50189 13.4578 5.87446 13.4985 5.12276ZM5 16.998V9.99805H2V16.998H5ZM7 16.9985V9.49605C7.03476 9.46798 7.0711 9.43821 7.10884 9.40676C7.42211 9.14577 7.83965 8.76329 8.2592 8.27391C9.08478 7.31089 10 5.83629 10 3.99837C10 3.64837 10.0242 3.43335 10.0843 3.28615C10.1091 3.22549 10.137 3.18532 10.1701 3.15318C10.2031 3.12101 10.2666 3.07229 10.3927 3.02579C10.5267 2.97639 10.7855 2.98092 11.0223 3.1945C11.2435 3.39402 11.562 3.89576 11.5015 5.01465C11.453 5.91068 11.3363 6.58709 11.236 7.02874C11.1859 7.24963 11.1398 7.41193 11.1083 7.51373C11.0925 7.56462 11.0804 7.60039 11.0733 7.62078L11.0665 7.63982C10.949 7.94631 10.9891 8.29169 11.1745 8.56283C11.3609 8.83539 11.6698 8.99837 12 8.99837H16.9931C17.6979 8.99837 18.1815 9.70786 17.9239 10.3639L15.8167 15.7306C15.5161 16.4962 14.7773 16.9998 13.9548 16.9996L7 16.9985Z" fill="#E4E8EB"/>
</svg>
