<svg width="32" height="32" viewBox="0 0 32 32" fill="none" xmlns="http://www.w3.org/2000/svg">
<path fill-rule="evenodd" clip-rule="evenodd" d="M8 12.1429C8 7.11016 12.0128 3 17 3C19.8809 3 22.4393 4.37461 24.0835 6.50231L26.2929 4.29289C26.6834 3.90237 27.3166 3.90237 27.7071 4.29289C28.0976 4.68342 28.0976 5.31658 27.7071 5.70711L5.70711 27.7071C5.31658 28.0976 4.68342 28.0976 4.29289 27.7071C3.90237 27.3166 3.90237 26.6834 4.29289 26.2929L8 22.5858V12.5714C8 12.5357 8.00187 12.5005 8.00552 12.4657C8.00185 12.3585 8 12.2509 8 12.1429ZM10 20.5858L19.7612 10.8245C19.3032 9.75027 18.2381 9 17 9C15.3431 9 14 10.3431 14 12C14 12.5523 13.5523 13 13 13C12.4477 13 12 12.5523 12 12C12 9.23858 14.2386 7 17 7C18.788 7 20.3552 7.93832 21.2387 9.3471L22.6545 7.9313C21.3773 6.14888 19.3166 5 17 5C13.1506 5 10 8.18121 10 12.1429C10 12.2696 10.0032 12.3955 10.0096 12.5206C10.013 12.5873 10.0097 12.6536 10 12.7186V20.5858Z" fill="#B2B8BF"/>
<path d="M25 11.1429C25.5523 11.1429 26 11.5906 26 12.1429C26 15.1945 24.5267 17.9019 22.2592 19.5631C21.468 20.1427 20.9474 21.3153 20.9474 22.4286C20.9474 26.0411 18.0656 29 14.4737 29C12.9099 29 11.4751 28.436 10.3583 27.5015C9.9347 27.147 9.87865 26.5164 10.2331 26.0928C10.5875 25.6692 11.2182 25.6132 11.6417 25.9676C12.4149 26.6145 13.3998 27 14.4737 27C16.9278 27 18.9474 24.9701 18.9474 22.4286C18.9474 20.8162 19.6696 18.9809 21.0772 17.9497C22.8454 16.6543 24 14.5388 24 12.1429C24 11.5906 24.4477 11.1429 25 11.1429Z" fill="#B2B8BF"/>
</svg>
