<svg width="20" height="20" viewBox="0 0 20 20" fill="none" xmlns="http://www.w3.org/2000/svg">
<path d="M11 2C11 1.44772 10.5523 1 10 1C9.44774 1 9.00002 1.44772 9.00002 2L9.00003 11.5858L6.41426 9C6.02374 8.60948 5.39057 8.60948 5.00005 9C4.60952 9.39052 4.60952 10.0237 5.00005 10.4142L9.11614 14.5303C9.6043 15.0185 10.3958 15.0185 10.8839 14.5303L15 10.4142C15.3905 10.0237 15.3905 9.39052 15 9C14.6095 8.60948 13.9763 8.60948 13.5858 9L11 11.5858L11 2Z" fill="#D0D7DD"/>
<path d="M3 14C3 13.4477 2.55228 13 2 13C1.44772 13 1 13.4477 1 14V17C1 18.6569 2.34315 20 4 20H16C17.6569 20 19 18.6569 19 17V14C19 13.4477 18.5523 13 18 13C17.4477 13 17 13.4477 17 14V17C17 17.5523 16.5523 18 16 18H4C3.44772 18 3 17.5523 3 17V14Z" fill="#D0D7DD"/>
</svg>
