<svg width="32" height="31" viewBox="0 0 32 31" fill="none" xmlns="http://www.w3.org/2000/svg">
<path fill-rule="evenodd" clip-rule="evenodd" d="M16 31C24.8366 31 32 24.0604 32 15.5C32 6.93959 24.8366 0 16 0C7.16344 0 0 6.93959 0 15.5C0 24.0604 7.16344 31 16 31ZM7 10.6562C7 9.05117 8.34315 7.75 10 7.75H22C23.6569 7.75 25 9.05117 25 10.6562V17.4375C25 19.0426 23.6569 20.3438 22 20.3438H17V22.2812H21C21.5523 22.2812 22 22.715 22 23.25C22 23.785 21.5523 24.2188 21 24.2188H11C10.4477 24.2188 10 23.785 10 23.25C10 22.715 10.4477 22.2812 11 22.2812H15V20.3438H10C8.34315 20.3438 7 19.0426 7 17.4375V10.6562Z" fill="#B2B8BF"/>
</svg>
