<svg width="20" height="20" viewBox="0 0 20 20" fill="none" xmlns="http://www.w3.org/2000/svg">
<path d="M18.5768 1.31802C16.8194 -0.43934 13.9702 -0.43934 12.2128 1.31802L10.5042 3.02665C10.1137 3.41717 10.1137 4.05034 10.5042 4.44086C10.8947 4.83139 11.5279 4.83139 11.9184 4.44086L13.627 2.73223C14.6033 1.75592 16.1863 1.75592 17.1626 2.73223C18.1389 3.70854 18.1389 5.29146 17.1626 6.26777L12.5664 10.864L12.4357 10.9858C11.4536 11.8384 9.9647 11.7978 9.03084 10.864C8.64031 10.4734 8.00715 10.4734 7.61662 10.864C7.2261 11.2545 7.2261 11.8877 7.61662 12.2782C9.37398 14.0355 12.2232 14.0355 13.9806 12.2782L18.5768 7.68198L18.7364 7.5141C20.3324 5.74761 20.2792 3.02046 18.5768 1.31802Z" fill="#565B62"/>
<path d="M12.2782 7.61795C10.5208 5.86059 7.67157 5.86059 5.91421 7.61795L1.31802 12.2141L1.15842 12.382C-0.437624 14.1485 -0.384422 16.8757 1.31802 18.5781C3.07538 20.3355 5.92462 20.3355 7.68198 18.5781L9.27919 16.9809C9.66971 16.5904 9.66971 15.9572 9.27919 15.5667C8.88866 15.1762 8.2555 15.1762 7.86497 15.5667L6.26777 17.1639C5.29146 18.1402 3.70854 18.1402 2.73223 17.1639C1.75592 16.1876 1.75592 14.6047 2.73223 13.6284L7.32843 9.03216L7.45911 8.91035C8.44124 8.05769 9.9301 8.0983 10.864 9.03216C11.2545 9.42268 11.8877 9.42268 12.2782 9.03216C12.6687 8.64164 12.6687 8.00847 12.2782 7.61795Z" fill="#565B62"/>
</svg>
