<svg width="64" height="64" viewBox="0 0 64 64" fill="none" xmlns="http://www.w3.org/2000/svg">
<path fill-rule="evenodd" clip-rule="evenodd" d="M52.7071 12.7071C53.0976 12.3166 53.0976 11.6834 52.7071 11.2929C52.3166 10.9024 51.6834 10.9024 51.2929 11.2929L44.4348 18.1509C40.8586 16.2337 36.5898 15 32 15C25.6807 15 19.9669 17.3382 15.8262 20.5884C11.724 23.8084 9 28.0669 9 32C9 34.4437 10.0554 37.0026 11.7963 39.3342C13.2993 41.3472 15.3463 43.2374 17.7836 44.8022L11.2929 51.2929C10.9024 51.6834 10.9024 52.3166 11.2929 52.7071C11.6834 53.0976 12.3166 53.0976 12.7071 52.7071L52.7071 12.7071ZM19.2339 43.3519L24.9682 37.6176C23.7372 36.0784 23 34.1248 23 32C23 27.0294 27.0294 23 32 23C34.1248 23 36.0784 23.7372 37.6176 24.9682L42.952 19.6337C39.7553 18.0199 36.0055 17 32 17C26.169 17 20.8828 19.1618 17.0611 22.1616C13.2009 25.1916 11 28.9331 11 32C11 33.8814 11.8247 36.0293 13.3989 38.1376C14.8197 40.0405 16.8153 41.8605 19.2339 43.3519ZM36.1922 26.3935C35.0233 25.5178 33.5726 25 32 25C28.134 25 25 28.134 25 32C25 33.5726 25.5178 35.0233 26.3935 36.1922L36.1922 26.3935Z" fill="#B2B8BF"/>
<path d="M48.6973 22.3004C49.0837 21.9058 49.7169 21.8991 50.1115 22.2855C53.0939 25.2055 55 28.7126 55 32C55 35.9331 52.276 40.1916 48.1738 43.4116C44.0331 46.6618 38.3193 49 32 49C29.0627 49 26.2571 48.4946 23.6814 47.6289C23.1579 47.453 22.8762 46.886 23.0521 46.3624C23.2281 45.8389 23.7951 45.5572 24.3186 45.7331C26.7019 46.5342 29.2926 47 32 47C37.831 47 43.1172 44.8382 46.9389 41.8384C50.7991 38.8084 53 35.0669 53 32C53 29.4513 51.4828 26.4271 48.7123 23.7145C48.3177 23.3282 48.311 22.695 48.6973 22.3004Z" fill="#B2B8BF"/>
<path d="M39.4987 29.0316C40.0336 28.8939 40.5787 29.2159 40.7164 29.7507C40.9017 30.4707 41 31.2246 41 32C41 36.9706 36.9706 41 32 41C31.2246 41 30.4707 40.9017 29.7507 40.7164C29.2159 40.5787 28.8939 40.0336 29.0316 39.4987C29.1692 38.9639 29.7144 38.6419 30.2493 38.7795C30.8078 38.9233 31.3942 39 32 39C35.866 39 39 35.866 39 32C39 31.3942 38.9233 30.8078 38.7795 30.2493C38.6419 29.7144 38.9639 29.1692 39.4987 29.0316Z" fill="#B2B8BF"/>
</svg>
