<svg width="24" height="24" viewBox="0 0 24 24" fill="none" xmlns="http://www.w3.org/2000/svg">
<path d="M11.0017 11.0017C11.0017 16.5254 11.0017 21.0033 11.0017 21.0033C5.4779 21.0033 1 16.5254 1 11.0017C1 5.4779 5.4779 1 11.0017 1C11.0017 1.14931 11.0017 5.4779 11.0017 11.0017Z" fill="#E4E8EB"/>
<path d="M11 1C5.486 1 1 5.486 1 11C1 16.514 5.486 21 11 21V19C6.589 19 3 15.411 3 11C3 6.589 6.589 3 11 3C15.411 3 19 6.589 19 11H21C21 5.486 16.514 1 11 1ZM17.0645 13C16.9355 13 16.8275 13.0966 16.8125 13.2246L16.6953 14.2363C16.2113 14.4043 15.7735 14.6603 15.3945 14.9883L14.457 14.582C14.339 14.531 14.2027 14.5785 14.1387 14.6895L13.2012 16.3105C13.1372 16.4215 13.1665 16.5636 13.2695 16.6406L14.0762 17.2402C14.0282 17.4872 14 17.74 14 18C14 18.26 14.0282 18.5128 14.0762 18.7598L13.2695 19.3594C13.1665 19.4364 13.1362 19.5785 13.2012 19.6895L14.1387 21.3105C14.2027 21.4225 14.339 21.467 14.457 21.416L15.3945 21.0117C15.7735 21.3407 16.2113 21.5957 16.6953 21.7637L16.8125 22.7754C16.8275 22.9034 16.9355 23 17.0645 23H18.9355C19.0645 23 19.1725 22.9034 19.1875 22.7754L19.3047 21.7637C19.7887 21.5957 20.2265 21.3397 20.6055 21.0117L21.543 21.418C21.661 21.469 21.7973 21.4215 21.8613 21.3105L22.7988 19.6895C22.8628 19.5775 22.8335 19.4354 22.7305 19.3594L21.9238 18.7598C21.9718 18.5128 22 18.26 22 18C22 17.74 21.9718 17.4872 21.9238 17.2402L22.7305 16.6406C22.8335 16.5636 22.8638 16.4215 22.7988 16.3105L21.8613 14.6895C21.7973 14.5785 21.661 14.531 21.543 14.582L20.6055 14.9883C20.2265 14.6603 19.7887 14.4043 19.3047 14.2363L19.1875 13.2246C19.1725 13.0966 19.0645 13 18.9355 13H17.0645ZM18 16C19.104 16 20 16.895 20 18C20 19.104 19.104 20 18 20C16.896 20 16 19.104 16 18C16 16.895 16.896 16 18 16Z" fill="#B2B8BF"/>
</svg>
