<svg width="16" height="16" viewBox="0 0 16 16" fill="none" xmlns="http://www.w3.org/2000/svg">
<path d="M0.370718 4.87254C0.799709 4.52515 1.42886 4.59158 1.77597 5.02093C3.24413 6.83693 5.48465 7.99991 7.99371 7.99991C10.5024 7.99991 12.7427 6.83673 14.211 5.02095C14.5581 4.59164 15.1873 4.52526 15.6162 4.87269C16.0452 5.22013 16.1115 5.8498 15.7644 6.27912C15.4263 6.69724 15.055 7.08792 14.6544 7.44703L15.3193 8.44516C15.6254 8.90469 15.5013 9.52556 15.0422 9.83191C14.583 10.1383 13.9627 10.0141 13.6566 9.55456L13.0394 8.62806C12.4443 8.97805 11.8097 9.26837 11.144 9.49042L11.4605 10.7575C11.5943 11.2933 11.2688 11.8362 10.7335 11.9701C10.1981 12.1041 9.65561 11.7783 9.52177 11.2425L9.19346 9.92818C8.80013 9.97553 8.39976 9.99991 7.99371 9.99991C7.58746 9.99991 7.18689 9.97551 6.79338 9.92813L6.46505 11.2425C6.33121 11.7783 5.78872 12.1041 5.25337 11.9701C4.71802 11.8362 4.39253 11.2933 4.52636 10.7575L4.84287 9.49038C4.1771 9.26834 3.54252 8.97804 2.9474 8.62806L2.33024 9.55456C2.02414 10.0141 1.40378 10.1383 0.944628 9.83191C0.485477 9.52556 0.361406 8.90469 0.667506 8.44516L1.33239 7.44701C0.931858 7.08788 0.560548 6.69714 0.222453 6.27895C-0.124654 5.8496 -0.0582731 5.21993 0.370718 4.87254Z" fill="#565B62"/>
</svg>
