<svg width="20" height="20" viewBox="0 0 20 20" fill="none" xmlns="http://www.w3.org/2000/svg">
<path d="M2 10C2 6.13401 5.13401 3 9 3C10.6564 3 12.1759 3.57405 13.3745 4.53488C13.8054 4.88031 14.4348 4.81102 14.7802 4.3801C15.1257 3.94918 15.0564 3.31982 14.6255 2.97438C13.0849 1.73938 11.1274 1 9 1C4.02944 1 0 5.02944 0 10C0 14.9706 4.02944 19 9 19C11.1274 19 13.0849 18.2606 14.6255 17.0256C15.0564 16.6802 15.1257 16.0508 14.7802 15.6199C14.4348 15.189 13.8054 15.1197 13.3745 15.4651C12.1759 16.4259 10.6564 17 9 17C5.13401 17 2 13.866 2 10Z" fill="#565B62"/>
<path d="M10 5.5C10 4.94772 9.55229 4.5 9 4.5C8.44771 4.5 8 4.94772 8 5.5V5.54654C7.79845 5.59791 7.58509 5.67343 7.37573 5.7844C7.0159 5.97511 6.66638 6.26961 6.40812 6.70624C6.15231 7.13875 6.01744 7.65736 6.00043 8.25269C5.974 9.1779 6.50543 9.77803 7.05086 10.1391C7.51441 10.4459 8.09979 10.6563 8.55121 10.8185L8.64083 10.8508C9.17225 11.0426 9.5434 11.1876 9.79315 11.3629C9.99274 11.503 10.0001 11.5758 10.0001 11.6562C10.0001 11.9025 9.94311 12.0503 9.8875 12.1429C9.82887 12.2405 9.74285 12.3239 9.62714 12.3953C9.50839 12.4686 9.37086 12.5211 9.23884 12.5545C9.17447 12.5708 9.11697 12.5811 9.0714 12.5871C9.0277 12.5929 9.00331 12.5936 9.00034 12.5937C8.86359 12.5937 8.54757 12.5613 8.23273 12.4653C7.88529 12.3594 7.74817 12.2401 7.72557 12.2078C7.40885 11.7553 6.78532 11.6453 6.33287 11.962C5.88042 12.2787 5.77039 12.9023 6.0871 13.3547C6.502 13.9474 7.1769 14.2343 7.64953 14.3784C7.76674 14.4141 7.88435 14.4449 8 14.471V14.5C8 15.0523 8.44771 15.5 9 15.5C9.55229 15.5 10 15.0523 10 14.5V14.4136C10.2208 14.3389 10.4525 14.2362 10.6777 14.0971C11.3791 13.6641 12.0001 12.8788 12.0001 11.6562C12.0001 10.7367 11.5008 10.1181 10.9422 9.72594C10.4409 9.37407 9.81301 9.14751 9.34005 8.97685L9.31977 8.96954C8.77451 8.77275 8.40495 8.6369 8.15475 8.47129C8.10155 8.43608 8.03486 8.39391 8.00093 8.33736C8.00038 8.33451 7.99915 8.32598 7.99962 8.30981C8.00895 7.98326 8.07866 7.81046 8.12955 7.72441C8.17801 7.64249 8.23732 7.59129 8.31233 7.55153C8.50305 7.45045 8.75588 7.4375 9.00009 7.4375C9.16939 7.4375 9.48265 7.52237 9.76311 7.85893C10.1167 8.28321 10.7472 8.34053 11.1715 7.98697C11.5958 7.6334 11.6531 7.00284 11.2996 6.57856C10.9184 6.12121 10.4642 5.8105 10 5.6302V5.5Z" fill="#565B62"/>
<path d="M15.8598 6.23177C16.2841 5.87821 16.9147 5.93553 17.2682 6.35981L19.7671 9.35844C19.9002 9.51746 19.9848 9.71848 19.9982 9.93874C20.0007 9.97954 20.0007 10.0205 19.9982 10.0612C19.9848 10.2823 19.8996 10.4839 19.7657 10.6432L17.2682 13.6402C16.9147 14.0645 16.2841 14.1218 15.8598 13.7682C15.4356 13.4147 15.3782 12.7841 15.7318 12.3598L16.865 11H14C13.4477 11 13 10.5523 13 10C13 9.44771 13.4477 9 14 9H16.865L15.7318 7.64018C15.3782 7.2159 15.4356 6.58534 15.8598 6.23177Z" fill="#565B62"/>
</svg>
