<svg width="20" height="20" viewBox="0 0 20 20" fill="none" xmlns="http://www.w3.org/2000/svg">
<path d="M5.5 8C6.32843 8 7 7.32843 7 6.5C7 5.67157 6.32843 5 5.5 5C4.67157 5 4 5.67157 4 6.5C4 7.32843 4.67157 8 5.5 8Z" fill="#B2B8BF"/>
<path d="M10.8001 8.93325C11.4001 8.13325 12.6001 8.13325 13.2001 8.93325L15.8001 12.3999C16.1314 12.8417 16.0419 13.4685 15.6001 13.7999C15.1582 14.1313 14.5314 14.0417 14.2001 13.5999L12.0001 10.6666L9.80006 13.5999C9.46869 14.0417 8.84189 14.1313 8.40006 13.7999C7.95823 13.4685 7.86869 12.8417 8.20006 12.3999L10.8001 8.93325Z" fill="#B2B8BF"/>
<path d="M7.83216 10.5548C8.13851 10.0953 8.01434 9.47441 7.55481 9.16806C7.09528 8.8617 6.47441 8.98588 6.16806 9.44541L4.16806 12.4454C3.8617 12.9049 3.98588 13.5258 4.44541 13.8322C4.90493 14.1385 5.5258 14.0143 5.83216 13.5548L7.83216 10.5548Z" fill="#B2B8BF"/>
<path fill-rule="evenodd" clip-rule="evenodd" d="M4 1C1.79086 1 0 2.79086 0 5V14C0 16.2091 1.79086 18 4 18H16C18.2091 18 20 16.2091 20 14V5C20 2.79086 18.2091 1 16 1H4ZM2 5C2 3.89543 2.89543 3 4 3H16C17.1046 3 18 3.89543 18 5V14C18 15.1046 17.1046 16 16 16H4C2.89543 16 2 15.1046 2 14V5Z" fill="#B2B8BF"/>
</svg>
