<svg width="24" height="24" viewBox="0 0 24 24" fill="none" xmlns="http://www.w3.org/2000/svg">
<path d="M12 2C6.47715 2 2 6.47715 2 12C2 17.5228 6.47715 22 12 22C15.8052 22 19.1123 19.8744 20.8018 16.75L20.96 16.4453L21.001 16.3516C21.1797 15.8772 20.9734 15.335 20.5098 15.1045C20.046 14.874 19.489 15.0369 19.2188 15.4658L19.1689 15.5547L19.042 15.7998C17.6883 18.3029 15.0415 20 12 20C7.58172 20 4 16.4183 4 12C4 7.58172 7.58172 4 12 4C14.5242 4.00001 16.7728 5.17102 18.2402 7H17.5C16.9477 7 16.5 7.44772 16.5 8C16.5 8.55228 16.9477 9 17.5 9H20.5C21.0523 9 21.5 8.55228 21.5 8V4.5C21.5 3.94772 21.0523 3.5 20.5 3.5C19.9477 3.5 19.5 3.94772 19.5 4.5V5.38672C17.6686 3.31156 14.9879 2.00001 12 2Z" fill="#D0D7DD"/>
<path fill-rule="evenodd" clip-rule="evenodd" d="M10.5 7C9.94772 7 9.5 7.44772 9.5 8V11H9C8.44772 11 8 11.4477 8 12C8 12.5523 8.44772 13 9 13H9.5V13.5H9C8.44772 13.5 8 13.9477 8 14.5C8 15.0523 8.44772 15.5 9 15.5H9.5V16C9.5 16.5523 9.94772 17 10.5 17C11.0523 17 11.5 16.5523 11.5 16V15.5H12C12.5523 15.5 13 15.0523 13 14.5C13 13.9477 12.5523 13.5 12 13.5H11.5V13H12.6562C13.7459 13 14.5047 12.4665 14.9502 11.7959C15.3628 11.1747 15.4999 10.4582 15.5 9.9502V9.82715C15.5 9.36786 15.4132 8.66881 14.9736 8.06055C14.4918 7.39401 13.7064 7 12.6562 7H10.5ZM12.6562 9C12.9273 9 13.088 9.04764 13.1777 9.08984C13.2631 9.12998 13.3141 9.17924 13.3525 9.23242C13.4444 9.35956 13.5 9.57402 13.5 9.82715V9.9502C13.4999 10.1547 13.4338 10.4631 13.2842 10.6885C13.1671 10.8647 13.0033 11 12.6562 11H11.5V9H12.6562Z" fill="#D0D7DD"/>
</svg>
