<svg width="20" height="20" viewBox="0 0 20 20" fill="none" xmlns="http://www.w3.org/2000/svg">
<path d="M13.71 10.71C13.801 10.6149 13.8724 10.5028 13.92 10.38C14.02 10.1365 14.02 9.86346 13.92 9.62C13.8724 9.49725 13.801 9.3851 13.71 9.29L10.71 6.29C10.3179 5.89788 9.68212 5.89788 9.29 6.29C8.89788 6.68212 8.89788 7.31788 9.29 7.71L10.59 9H7C6.44772 9 6 9.44771 6 10C6 10.5523 6.44772 11 7 11H10.59L9.29 12.29C9.10069 12.4778 8.9942 12.7334 8.9942 13C8.9942 13.2666 9.10069 13.5222 9.29 13.71C9.47777 13.8993 9.73336 14.0058 10 14.0058C10.2666 14.0058 10.5222 13.8993 10.71 13.71L13.71 10.71ZM20 10C20 4.47715 15.5228 0 10 0C4.47715 0 0 4.47715 0 10C0 15.5228 4.47715 20 10 20C15.5228 20 20 15.5228 20 10ZM2 10C2 5.58172 5.58172 2 10 2C14.4183 2 18 5.58172 18 10C18 14.4183 14.4183 18 10 18C7.87827 18 5.84344 17.1571 4.34315 15.6569C2.84285 14.1566 2 12.1217 2 10Z" fill="#D0D7DD"/>
</svg>
