<svg width="20" height="20" viewBox="0 0 20 20" fill="none" xmlns="http://www.w3.org/2000/svg">
<path d="M2 3.5C2 4.05228 1.55228 4.5 1 4.5C0.447715 4.5 0 4.05228 0 3.5V3C0 1.34315 1.34315 0 3 0H13C14.6569 0 16 1.34315 16 3V3.5C16 4.05228 15.5523 4.5 15 4.5C14.4477 4.5 14 4.05228 14 3.5V3C14 2.44772 13.5523 2 13 2H3C2.44772 2 2 2.44772 2 3V3.5Z" fill="#B2B8BF"/>
<path d="M15.8473 7.28347C16.3892 6.55181 17.2178 6 18.2221 6C18.6623 6 19.078 6.10819 19.4505 6.29616C19.9436 6.54495 20.1416 7.14635 19.8928 7.63942C19.644 8.1325 19.0426 8.33052 18.5495 8.08173C18.4378 8.02538 18.3292 8 18.2221 8C17.9992 8 17.7167 8.11977 17.4544 8.47389C17.1922 8.82785 17 9.36413 17 10C17 10.6359 17.1922 11.1721 17.4544 11.5261C17.7167 11.8802 17.9992 12 18.2221 12C18.3292 12 18.4378 11.9746 18.5495 11.9183C19.0426 11.6695 19.644 11.8675 19.8928 12.3606C20.1416 12.8536 19.9436 13.455 19.4505 13.7038C19.078 13.8918 18.6623 14 18.2221 14C17.2178 14 16.3892 13.4482 15.8473 12.7165C15.3052 11.9847 15 11.021 15 10C15 8.97901 15.3052 8.0153 15.8473 7.28347Z" fill="#B2B8BF"/>
<path d="M1 15.5C1.55228 15.5 2 15.9477 2 16.5V17C2 17.5523 2.44772 18 3 18H13C13.5523 18 14 17.5523 14 17V16.5C14 15.9477 14.4477 15.5 15 15.5C15.5523 15.5 16 15.9477 16 16.5V17C16 18.6569 14.6569 20 13 20H3C1.34315 20 0 18.6569 0 17V16.5C0 15.9477 0.447715 15.5 1 15.5Z" fill="#B2B8BF"/>
<path fill-rule="evenodd" clip-rule="evenodd" d="M7 10C7 7.96932 8.40403 6 10.5 6C12.596 6 14 7.96932 14 10C14 12.0307 12.596 14 10.5 14C8.40403 14 7 12.0307 7 10ZM10.5 8C9.83455 8 9 8.71697 9 10C9 11.283 9.83455 12 10.5 12C11.1655 12 12 11.283 12 10C12 8.71697 11.1655 8 10.5 8Z" fill="#B2B8BF"/>
<path fill-rule="evenodd" clip-rule="evenodd" d="M1 6C0.447715 6 0 6.44772 0 7V13C0 13.5523 0.447715 14 1 14H3C4.13791 14 4.9909 13.4102 5.51955 12.6172C6.02844 11.8539 6.25 10.8983 6.25 10C6.25 9.10166 6.02844 8.14614 5.51955 7.3828C4.9909 6.58982 4.13791 6 3 6H1ZM2 12V8H3C3.36209 8 3.6341 8.16018 3.85545 8.4922C4.09656 8.85386 4.25 9.39834 4.25 10C4.25 10.6017 4.09656 11.1461 3.85545 11.5078C3.6341 11.8398 3.36209 12 3 12H2Z" fill="#B2B8BF"/>
</svg>
