<svg width="32" height="32" viewBox="0 0 32 32" fill="none" xmlns="http://www.w3.org/2000/svg">
<path fill-rule="evenodd" clip-rule="evenodd" d="M16 32C24.8366 32 32 24.8366 32 16C32 7.16344 24.8366 0 16 0C7.16344 0 0 7.16344 0 16C0 24.8366 7.16344 32 16 32ZM12 8C12 6.89543 12.8954 6 14 6H18C19.1046 6 20 6.89543 20 8V10H22C23.6569 10 25 11.3431 25 13V21C25 22.6569 23.6569 24 22 24H10C8.34315 24 7 22.6569 7 21V13C7 11.3431 8.34315 10 10 10H12V8ZM18 8V10H14V8H18ZM17 14C17 13.4477 16.5523 13 16 13C15.4477 13 15 13.4477 15 14V16H13C12.4477 16 12 16.4477 12 17C12 17.5523 12.4477 18 13 18H15V20C15 20.5523 15.4477 21 16 21C16.5523 21 17 20.5523 17 20V18H19C19.5523 18 20 17.5523 20 17C20 16.4477 19.5523 16 19 16H17V14Z" fill="#B2B8BF"/>
</svg>
