<svg width="20" height="20" viewBox="0 0 20 20" fill="none" xmlns="http://www.w3.org/2000/svg">
<path d="M10 0C10.5523 0 11 0.447715 11 1V12.5858L13.2929 10.2929C13.6834 9.90237 14.3166 9.90237 14.7071 10.2929C15.0976 10.6834 15.0976 11.3166 14.7071 11.7071L10.7071 15.7071C10.3166 16.0976 9.68342 16.0976 9.29289 15.7071L5.29289 11.7071C4.90237 11.3166 4.90237 10.6834 5.29289 10.2929C5.68342 9.90237 6.31658 9.90237 6.70711 10.2929L9 12.5858V1C9 0.447715 9.44771 0 10 0Z" fill="#B2B8BF"/>
<path d="M0 19C0 18.4477 0.447715 18 1 18H19C19.5523 18 20 18.4477 20 19C20 19.5523 19.5523 20 19 20H1C0.447715 20 0 19.5523 0 19Z" fill="#B2B8BF"/>
</svg>
