<svg width="20" height="20" viewBox="0 0 20 20" fill="none" xmlns="http://www.w3.org/2000/svg">
<path fill-rule="evenodd" clip-rule="evenodd" d="M6.25 8.75C6.25 6.67893 7.92893 5 10 5C12.0711 5 13.75 6.67893 13.75 8.75C13.75 10.8211 12.0711 12.5 10 12.5C7.92893 12.5 6.25 10.8211 6.25 8.75ZM10 7C9.0335 7 8.25 7.7835 8.25 8.75C8.25 9.7165 9.0335 10.5 10 10.5C10.9665 10.5 11.75 9.7165 11.75 8.75C11.75 7.7835 10.9665 7 10 7Z" fill="#B2B8BF"/>
<path fill-rule="evenodd" clip-rule="evenodd" d="M10 0C4.47715 0 0 4.47715 0 10C0 15.5228 4.47715 20 10 20C15.5228 20 20 15.5228 20 10C20 4.47715 15.5228 0 10 0ZM2 10C2 5.58172 5.58172 2 10 2C14.4183 2 18 5.58172 18 10C18 11.9057 17.3337 13.6558 16.2213 15.0299C15.7968 14.3788 15.2342 13.8002 14.5616 13.3225L14.5605 13.3217C14.0358 12.9501 13.351 12.9102 12.8025 13.1522C12.6619 13.2142 12.5509 13.2877 12.4827 13.3349C12.4244 13.3753 12.4063 13.3888 12.394 13.398C12.3834 13.406 12.377 13.4107 12.3527 13.4268C11.6897 13.8663 10.8423 14.1199 9.94701 14.1199C9.00814 14.1199 8.11973 13.8401 7.44498 13.3607L7.44307 13.3593C6.83239 12.9276 5.97709 12.9304 5.36948 13.3717L5.36799 13.3728C4.72665 13.8404 4.18859 14.4017 3.779 15.0303C2.66644 13.656 2 11.9059 2 10ZM5.26456 16.4486C6.59039 17.4238 8.22791 18 10 18C11.7722 18 13.4099 17.4237 14.7358 16.4483C14.4714 15.9361 14.0683 15.4548 13.5311 15.0468L13.4514 15.098C12.44 15.7665 11.2055 16.1199 9.94701 16.1199C8.68238 16.1199 7.43657 15.762 6.42074 15.0835C5.90837 15.483 5.52133 15.9512 5.26456 16.4486Z" fill="#B2B8BF"/>
</svg>
