<svg width="20" height="20" viewBox="0 0 20 20" fill="none" xmlns="http://www.w3.org/2000/svg">
<path fill-rule="evenodd" clip-rule="evenodd" d="M10.2277 17.4786C9.90869 18.4355 8.92711 19.0052 7.93805 18.8073L7.10758 18.6412C6.17273 18.4543 5.49981 17.6334 5.49981 16.6801L5.49981 14.4288L5.8468 11.9999L2.38723 11.9999C1.02212 11.9999 0.0581806 10.6625 0.489867 9.36743L2.8232 2.36743C3.09543 1.55074 3.85971 0.999886 4.72057 0.999886L16.9998 0.999887C18.1044 0.999887 18.9998 1.89529 18.9998 2.99984L19 9.99984C19 11.1044 18.1046 11.9999 17 11.9999L14.1621 11.9999L13.1245 12.3457L10.9009 15.4588L10.2277 17.4786ZM14.9998 9.99989L17 9.99989L16.9998 2.99989L14.9996 2.99989L14.9998 9.99989ZM12.9996 2.99989L4.72057 2.99989L2.38723 9.99989L5.8468 9.99989C7.0639 9.99989 7.99882 11.0779 7.8267 12.2827L7.49981 14.571L7.49981 16.6801L8.33028 16.8462L9.09868 14.541L11.4971 11.1833C11.7427 10.8393 12.0911 10.582 12.4921 10.4484L12.9998 10.2791L12.9996 2.99989Z" fill="#7D838A"/>
</svg>
