<svg width="32" height="31" viewBox="0 0 32 31" fill="none" xmlns="http://www.w3.org/2000/svg">
<path d="M0.499998 15.5C0.499998 7.23057 7.4245 0.5 16 0.500001C24.5755 0.500001 31.5 7.23058 31.5 15.5C31.5 23.7694 24.5755 30.5 16 30.5C7.4245 30.5 0.499997 23.7694 0.499998 15.5Z" fill="white" stroke="#D0D7DD"/>
<path fill-rule="evenodd" clip-rule="evenodd" d="M18.7071 21.0288C19.0976 20.6504 19.0976 20.0371 18.7071 19.6587L14.4142 15.5L18.7071 11.3413C19.0976 10.9629 19.0976 10.3496 18.7071 9.97124C18.3166 9.59292 17.6834 9.59292 17.2929 9.97124L12.2929 14.815C11.9024 15.1933 11.9024 15.8067 12.2929 16.185L17.2929 21.0288C17.6834 21.4071 18.3166 21.4071 18.7071 21.0288Z" fill="#565B62"/>
</svg>
