<svg width="24" height="24" viewBox="0 0 24 24" fill="none" xmlns="http://www.w3.org/2000/svg">
<path fill-rule="evenodd" clip-rule="evenodd" d="M12 1C12.5523 1 13 1.44772 13 2V3.06189C16.9463 3.55399 20 6.92038 20 11V17H21C21.5523 17 22 17.4477 22 18C22 18.5523 21.5523 19 21 19H3C2.44772 19 2 18.5523 2 18C2 17.4477 2.44772 17 3 17H4V11C4 6.92038 7.05369 3.55399 11 3.06189V2C11 1.44772 11.4477 1 12 1ZM6 11C6 7.68629 8.68629 5 12 5C15.3137 5 18 7.68629 18 11V17H6V11Z" fill="#B2B8BF"/>
<path d="M10.8317 20.4447C10.525 19.9855 9.90403 19.8618 9.44475 20.1685C8.98546 20.4752 8.86178 21.0962 9.16849 21.5555C9.76884 22.4544 10.8405 23.0001 12.0001 23.0001C13.1597 23.0001 14.2314 22.4544 14.8317 21.5555C15.1384 21.0962 15.0147 20.4752 14.5555 20.1685C14.0962 19.8618 13.4752 19.9855 13.1685 20.4447C12.9704 20.7414 12.5497 21.0001 12.0001 21.0001C11.4505 21.0001 11.0298 20.7414 10.8317 20.4447Z" fill="#B2B8BF"/>
</svg>
