<svg width="20" height="20" viewBox="0 0 20 20" fill="none" xmlns="http://www.w3.org/2000/svg">
<path d="M2 10C2 5.58172 5.58172 2 10 2C12.5255 2 14.7781 3.16952 16.2455 5H13.5C12.9477 5 12.5 5.44772 12.5 6C12.5 6.55228 12.9477 7 13.5 7H18.5C19.0523 7 19.5 6.55228 19.5 6V1C19.5 0.447715 19.0523 0 18.5 0C17.9477 0 17.5 0.447715 17.5 1V3.38555C15.6687 1.31073 12.9876 0 10 0C4.47715 0 0 4.47715 0 10C0 15.5228 4.47715 20 10 20C15.5228 20 20 15.5228 20 10C20 9.44771 19.5523 9 19 9C18.4477 9 18 9.44771 18 10C18 14.4183 14.4183 18 10 18C5.58172 18 2 14.4183 2 10Z" fill="#565B62"/>
</svg>
