<svg width="20" height="20" viewBox="0 0 20 20" fill="none" xmlns="http://www.w3.org/2000/svg">
<path d="M14.6126 2C13.9734 2 13.3822 2.23979 12.9237 2.69873L4.11287 11.5184C3.39811 12.2339 3 13.1885 3 14.2024C3 15.2163 3.39811 16.171 4.11287 16.8864C4.82759 17.6019 5.78087 18 6.79279 18C7.80472 18 8.75799 17.6019 9.47272 16.8864L16.3828 9.97245C16.7732 9.58182 17.4064 9.58164 17.797 9.97205C18.1876 10.3625 18.1878 10.9956 17.7974 11.3863L10.8876 18.2999C9.80056 19.3881 8.33942 20 6.79279 20C5.24616 20 3.78502 19.3881 2.69795 18.2999C1.61091 17.2118 1 15.7497 1 14.2024C1 12.6551 1.6109 11.193 2.69794 10.1049L11.5088 1.28524C12.3476 0.445583 13.45 0 14.6126 0C15.7792 0 16.8985 0.466452 17.7165 1.28523C18.5552 2.12484 19 3.22792 19 4.39078C19 5.55766 18.5344 6.67759 17.7165 7.49633L10.0149 15.2067C8.92783 16.2949 6.99475 16.5713 5.7382 15.3421L5.73035 15.3344C4.82901 14.4331 4.24756 12.4684 5.73039 10.9856C6.22193 10.4941 7.23643 9.47474 8.23357 8.47277L8.35911 8.34662L8.35977 8.34596C9.31133 7.38979 10.2261 6.47057 10.6262 6.07045C11.0168 5.67993 11.6499 5.67993 12.0404 6.07045C12.431 6.46098 12.431 7.09414 12.0404 7.48467C11.6422 7.88291 10.7289 8.80068 9.77567 9.75848L9.77558 9.75858L9.6512 9.88356C8.65507 10.8845 7.63832 11.9061 7.14461 12.3998C6.87495 12.6695 6.80741 12.9502 6.82929 13.2104C6.85371 13.5008 6.9929 13.7662 7.14069 13.9162C7.47111 14.2345 8.13929 14.2544 8.59997 13.7933L16.3012 6.0832C16.7445 5.63942 17 5.02751 17 4.39078C17 3.75003 16.7601 3.15773 16.3015 2.69874C15.8582 2.25499 15.2478 2 14.6126 2Z" fill="#7D838A"/>
</svg>
