<svg width="32" height="32" viewBox="0 0 32 32" fill="none" xmlns="http://www.w3.org/2000/svg">
<path fill-rule="evenodd" clip-rule="evenodd" d="M8.8 5C7.24 5 6 6.27 6 7.81V24.18C6 25.72 7.24 27 8.8 27H23.2C24.75 27 26 25.72 26 24.18V13.82C26 13.03 25.68 12.26 25.12 11.7L19.29 5.87C18.73 5.31 17.96 5 17.17 5H8.8ZM8.8 7C8.36 7 8 7.35 8 7.81V24.18C8 24.64 8.36 25 8.8 25H23.2C23.63 25 24 24.64 24 24.18V15H20C17.79 15 16 13.2 16 11V7H8.8ZM18 7.41V11C18 12.1 18.89 13 20 13H23.58L18 7.41ZM12 20C11.44 20 11 20.44 11 21C11 21.55 11.44 22 12 22C12.55 22 13 21.55 13 21C13 20.44 12.55 20 12 20ZM16 20C15.44 20 15 20.44 15 21C15 21.55 15.44 22 16 22C16.55 22 17 21.55 17 21C17 20.44 16.55 20 16 20ZM20 20C20.55 20 21 20.44 21 21C21 21.55 20.55 22 20 22C19.44 22 19 21.55 19 21C19 20.44 19.44 20 20 20Z" fill="#7D838A"/>
</svg>
