<svg width="24" height="24" viewBox="0 0 24 24" fill="none" xmlns="http://www.w3.org/2000/svg">
<g opacity="0.55">
<path d="M8.57853 4.57513C9.83545 3.30519 12 4.19527 12 5.98204V18.0175C12 19.8023 9.83959 20.6933 8.58145 19.4274L6.05657 16.8869C5.9583 16.7881 5.84044 16.7108 5.71056 16.6602L3.91022 15.9582C2.75839 15.5091 2 14.3995 2 13.1632V10.8248C2 9.59184 2.75439 8.48441 3.90179 8.03305L5.75941 7.30231C5.88885 7.25139 6.00623 7.17403 6.10408 7.07518L8.57853 4.57513Z" fill="white"/>
<path d="M19.4905 4.13951C19.9657 3.85806 20.5791 4.01511 20.8606 4.4903C20.8951 4.54988 20.9291 4.60974 20.9623 4.67008C21.0224 4.77947 21.1064 4.93656 21.2062 5.13518C21.4055 5.53187 21.6695 6.09724 21.9332 6.7815C22.4563 8.13848 23.0002 10.0177 23.0002 11.9999C23.0002 13.9821 22.4563 15.8613 21.9332 17.2183C21.6695 17.9026 21.4055 18.468 21.2062 18.8646C21.1247 19.0165 21.0644 19.1283 21.018 19.2143L21.017 19.2163C20.9356 19.3672 20.8971 19.4388 20.8606 19.5095C20.5791 19.9847 19.9657 20.1418 19.4905 19.8603C19.0157 19.579 18.8585 18.9663 19.1392 18.4912L19.1398 18.4903L19.1417 18.487L19.1545 18.4647C19.1666 18.4437 19.1853 18.4104 19.2099 18.3657C19.2591 18.2763 19.3314 18.1413 19.4191 17.9667C19.5948 17.6171 19.8308 17.1118 20.0671 16.499C20.544 15.2618 21.0002 13.641 21.0002 11.9999C21.0002 10.3588 20.544 8.73805 20.0671 7.50086C19.8308 6.88802 19.5948 6.38276 19.4191 6.03309C19.3314 5.85853 19.2591 5.72351 19.2099 5.63409C19.1853 5.5894 19.1666 5.55616 19.1545 5.53513L19.1417 5.51286L19.1398 5.50952C18.8586 5.03439 19.0155 4.42089 19.4905 4.13951Z" fill="white"/>
<path d="M15.5401 7.11199C16.0304 6.85787 16.6339 7.04936 16.8881 7.53971L16.889 7.54159L16.8904 7.54418L16.8941 7.55151L16.9057 7.57454C16.9153 7.59357 16.9283 7.61989 16.9442 7.65307C16.9761 7.71938 17.02 7.81328 17.0719 7.93123C17.1754 8.16665 17.3117 8.50045 17.4478 8.90382C17.7166 9.70089 18.0002 10.8154 18.0002 11.9998C18.0002 13.1843 17.7166 14.2988 17.4478 15.0959C17.3117 15.4992 17.1754 15.833 17.0719 16.0685C17.02 16.1864 16.9761 16.2803 16.9442 16.3466C16.9261 16.3843 16.9077 16.4219 16.8885 16.4591C16.6344 16.9495 16.0304 17.1418 15.5401 16.8877C15.0502 16.6338 14.8586 16.0313 15.1116 15.5412L15.112 15.5403L15.1171 15.5302C15.1223 15.5199 15.1308 15.5028 15.1421 15.4792C15.1649 15.4319 15.1991 15.3588 15.241 15.2635C15.325 15.0725 15.4387 14.7945 15.5527 14.4567C15.7838 13.7713 16.0002 12.8859 16.0002 11.9998C16.0002 11.1138 15.7838 10.2283 15.5527 9.54302C15.4387 9.2052 15.325 8.92721 15.241 8.73614C15.1991 8.64084 15.1649 8.56782 15.1421 8.52052C15.1308 8.49689 15.1223 8.47974 15.1171 8.46949L15.1122 8.45962C14.8583 7.96934 15.0498 7.36606 15.5401 7.11199Z" fill="white"/>
</g>
</svg>
