<svg width="24" height="24" viewBox="0 0 24 24" fill="none" xmlns="http://www.w3.org/2000/svg">
<path fill-rule="evenodd" clip-rule="evenodd" d="M12 24C18.6274 24 24 18.6274 24 12C24 5.37258 18.6274 0 12 0C5.37258 0 0 5.37258 0 12C0 18.6274 5.37258 24 12 24ZM10.7407 9.15081C10.3813 8.73148 10.4299 8.10018 10.8492 7.74076C11.2685 7.38134 11.8998 7.4299 12.2593 7.84923L15.2593 11.3492C15.5802 11.7237 15.5802 12.2763 15.2593 12.6508L12.2593 16.1508C11.8998 16.5701 11.2685 16.6187 10.8492 16.2593C10.4299 15.8999 10.3813 15.2686 10.7407 14.8492L13.1829 12L10.7407 9.15081Z" fill="#7D838A"/>
</svg>
