<svg width="16" height="16" viewBox="0 0 16 16" fill="none" xmlns="http://www.w3.org/2000/svg">
<path d="M2 1C2 0.447715 2.44772 0 3 0H13C13.5523 0 14 0.447715 14 1V2.5C14 3.05228 13.5523 3.5 13 3.5C12.4477 3.5 12 3.05228 12 2.5V2H4V2.5C4 3.05228 3.55228 3.5 3 3.5C2.44772 3.5 2 3.05228 2 2.5V1Z" fill="#B2B8BF"/>
<path d="M4 11C4 11.5523 3.55228 12 3 12C2.44772 12 2 11.5523 2 11C2 10.4477 2.44772 10 3 10C3.55228 10 4 10.4477 4 11Z" fill="#B2B8BF"/>
<path d="M14 11C14 11.5523 13.5523 12 13 12C12.9655 12 12.9314 11.9983 12.8978 11.9948C12.3935 11.9436 12 11.5178 12 11C12 10.8069 12.0547 10.6266 12.1496 10.4737C12.2581 10.2987 12.4192 10.1596 12.6108 10.0786C12.7304 10.028 12.8619 10 13 10C13.0916 10 13.1804 10.0123 13.2647 10.0354C13.3334 10.0542 13.3992 10.0802 13.4612 10.1125C13.7814 10.2792 14 10.6141 14 11Z" fill="#B2B8BF"/>
<path d="M2 14C2 13.4477 2.44772 13 3 13H13C13.5523 13 14 13.4477 14 14V15C14 15.5523 13.5523 16 13 16C12.4477 16 12 15.5523 12 15H4C4 15.5523 3.55228 16 3 16C2.44772 16 2 15.5523 2 15V14Z" fill="#B2B8BF"/>
<path fill-rule="evenodd" clip-rule="evenodd" d="M2 5C2 4.44772 2.44772 4 3 4H13C13.5523 4 14 4.44772 14 5V8C14 8.55228 13.5523 9 13 9H3C2.44772 9 2 8.55228 2 8V5ZM4 6V7H12V6H4Z" fill="#B2B8BF"/>
<path d="M6 10C5.44772 10 5 10.4477 5 11C5 11.5523 5.44772 12 6 12H10C10.5523 12 11 11.5523 11 11C11 10.4477 10.5523 10 10 10H6Z" fill="#B2B8BF"/>
</svg>
