<svg width="20" height="20" viewBox="0 0 20 20" fill="none" xmlns="http://www.w3.org/2000/svg">
<path d="M8 0C7.44772 0 7 0.447715 7 1C7 1.55228 7.44772 2 8 2H12C12.5523 2 13 1.55228 13 1C13 0.447715 12.5523 0 12 0H8Z" fill="#E4E8EB"/>
<path d="M8 8C8.55228 8 9 8.44771 9 9V15C9 15.5523 8.55228 16 8 16C7.44772 16 7 15.5523 7 15V9C7 8.44771 7.44772 8 8 8Z" fill="#E4E8EB"/>
<path d="M13 9C13 8.44771 12.5523 8 12 8C11.4477 8 11 8.44771 11 9V15C11 15.5523 11.4477 16 12 16C12.5523 16 13 15.5523 13 15V9Z" fill="#E4E8EB"/>
<path fill-rule="evenodd" clip-rule="evenodd" d="M1 5C1 4.44772 1.44772 4 2 4H18C18.5523 4 19 4.44772 19 5C19 5.55228 18.5523 6 18 6H17V17C17 18.6569 15.6569 20 14 20H6C4.34315 20 3 18.6569 3 17V6H2C1.44772 6 1 5.55228 1 5ZM5 6H15V17C15 17.5523 14.5523 18 14 18H6C5.44772 18 5 17.5523 5 17V6Z" fill="#E4E8EB"/>
</svg>
