<svg width="24" height="24" viewBox="0 0 24 24" fill="none" xmlns="http://www.w3.org/2000/svg">
<path d="M18.4265 22.25H18.2529C17.2462 22.2505 16.4297 21.4369 16.4291 20.4327V14.4615H13.8239V20.4327C13.8233 21.4369 13.0068 22.2505 12.0002 22.25H11.8264C10.8199 22.2503 10.0037 21.4367 10.0031 20.4327V14.4615H7.57137V20.4327C7.5711 20.915 7.37877 21.3774 7.0367 21.7182C6.69463 22.059 6.23085 22.2503 5.74739 22.25H5.57373C5.09031 22.2503 4.62659 22.0589 4.28457 21.7181C3.94256 21.3773 3.75027 20.9149 3.75 20.4327V11.8654C3.75 11.6357 3.84171 11.4155 4.00458 11.2533C4.16745 11.091 4.38827 10.9999 4.61847 11H19.3819C19.8611 10.9999 20.2498 11.3873 20.25 11.8654V20.4327C20.2494 21.4368 19.4331 22.2504 18.4265 22.25Z" fill="#1F1F22"/>
<path fill-rule="evenodd" clip-rule="evenodd" d="M20.7652 8.52305L20.691 8.64638C20.2601 9.36192 19.3826 9.64392 18.731 9.27616L11.996 5.47479L5.25643 9.33706C4.60855 9.70834 3.7361 9.42363 3.30767 8.70121L3.23345 8.57668C2.80502 7.85426 2.98291 6.96759 3.63079 6.5963L11.1157 2.30664C11.3858 2.15189 11.6948 1.95271 11.9945 2.0101C12.2831 1.9643 12.578 2.16612 12.8373 2.31248L20.3652 6.5613C21.0172 6.92906 21.1961 7.80718 20.7652 8.52305Z" fill="#1F1F22"/>
</svg>
