<svg width="24" height="24" viewBox="0 0 24 24" fill="none" xmlns="http://www.w3.org/2000/svg">
<path fill-rule="evenodd" clip-rule="evenodd" d="M19.7274 10.7473C19.6276 10.8329 19.5279 10.9036 19.4289 10.991C18.7574 11.5033 17.6876 11.919 16.2195 12.306C13.1682 13.1335 10.9552 13.2462 8.44454 13.8635C7.94626 13.9911 7.43286 14.148 6.96344 14.3481C7.43286 14.5917 7.94626 14.8055 8.45989 15.0063C9.486 14.7069 9.97306 14.5777 11.4542 14.3347C12.0248 14.2327 13.765 13.919 15.02 13.6644C17.2892 13.1764 20.612 12.1188 19.7274 10.7473ZM18.2592 7.88879C17.7721 7.67566 17.1733 7.46001 16.5334 7.29001C16.2459 7.51874 15.9201 7.71765 15.4328 7.90554C16.2337 8.04594 16.8328 8.27467 17.5153 8.46165C17.6296 8.51923 18.1714 8.02071 18.2592 7.88879ZM7.14787 10.9332C10.1149 10.0609 13.2244 9.79044 16.3765 8.94779C15.1499 8.61949 14.4631 8.47541 13.1682 8.63348C11.2844 8.86221 9.20192 9.26025 7.42003 9.79021C6.71969 10.0052 3.0551 11.0474 4.11191 12.5047C4.11168 12.5196 4.73711 11.6345 7.14787 10.9332ZM5.10824 15.9336C5.09381 16.2061 5.26608 16.4486 5.62278 16.7491C5.66471 16.6048 5.7371 16.4924 5.83699 16.3493C5.59346 16.219 5.35062 16.0916 5.10824 15.9336ZM6.49266 15.8069C6.71969 15.6628 6.98979 15.5337 7.28944 15.4199C6.87662 15.2331 6.43469 15.0498 6.00652 14.8491C5.80675 14.9776 5.62256 15.1058 5.48006 15.2331C5.82141 15.4341 6.15062 15.6193 6.49266 15.8069ZM17.8864 9.49105C17.2894 9.77667 16.4337 10.0612 15.2069 10.3624C14.1944 10.6189 11.741 10.9761 9.10319 11.5471C8.2757 11.7331 6.00675 12.261 4.89426 13.2042C5.20812 13.4636 5.40767 13.5194 5.74993 13.7194C6.20629 13.4189 6.83401 13.1335 7.7623 12.889C9.37191 12.4622 10.5857 12.2771 12.0413 12.0353C13.4812 11.8176 16.2042 11.2475 17.702 10.7035C18.2021 10.5333 18.6576 10.3046 18.9849 10.0311C18.8846 9.91868 17.9151 9.44723 17.8864 9.49105ZM18.7575 8.96086C19.056 9.10425 19.329 9.2045 19.5847 9.39056C19.7691 9.03244 19.6548 8.80371 19.2718 8.47564C19.1142 8.66239 18.9419 8.81862 18.7575 8.96086ZM4.96643 14.3191C4.69427 14.1778 4.52359 14.0633 4.29495 13.9193C4.18064 14.1778 4.41111 14.4614 4.63814 14.5917C4.73711 14.4912 4.86677 14.4056 4.96643 14.3191ZM17.5726 6.11906C17.5153 6.31911 17.3038 6.56184 17.1597 6.71991C17.6024 6.83439 18.0587 7.00347 18.4855 7.16154C18.4292 6.76166 17.9728 6.37578 17.5726 6.11906ZM3.62462 8.64564C6.73412 6.61759 10.1719 5.41796 15.9902 6.43337C16.3041 6.24639 16.4887 6.06056 16.5762 5.68936C15.1201 5.16124 13.5382 4.97518 11.4995 5.00294C9.67249 5.06053 6.37765 5.74511 4.6111 6.79034L5.15108 6.11883C6.37765 5.38791 9.58612 4.43192 11.9978 4.38833C13.6938 4.34658 14.5639 4.44523 16.5898 4.98826C16.4033 4.64781 15.9904 4.47482 15.3769 4.18943C13.4241 3.31718 9.7868 3.23069 6.80674 4.55948C7.17627 4.30276 7.54741 4.07311 8.03354 3.86205C9.01567 3.40367 10.6285 2.95998 12.6386 3.00288C14.2516 3.03156 16.1627 3.58881 17.3313 4.74646C17.53 4.98826 17.6452 5.23099 17.6878 5.41796C18.6152 5.88942 19.1561 6.33196 19.4555 6.84632C19.5849 7.11795 19.6278 7.40334 19.5698 7.73164C19.9547 7.95945 20.1414 8.16042 20.3421 8.41989C20.4683 8.63371 20.5682 8.8746 20.598 9.09232C20.6397 9.37588 20.6681 9.70509 20.3687 10.0912C20.6825 10.2493 20.9384 10.69 20.9691 10.8779C21.1251 11.5753 20.6683 12.2615 20.0846 12.7917C19.3989 13.3905 17.8871 14.1058 16.6603 14.421C14.2374 15.034 12.0828 15.2926 10.3731 15.6069C11.1424 15.792 12.1834 16.0363 13.8809 16.0363C17.516 16.0363 20.7251 14.3198 20.7251 14.3198C20.7251 14.3198 20.655 14.5364 20.5826 14.7365C18.2722 16.1359 14.6083 16.7207 13.0381 16.6493C11.4548 16.5768 10.1153 16.335 8.80307 15.9342C8.4033 16.0494 8.00399 16.1786 7.62003 16.335C9.61704 17.249 11.1279 17.4498 12.8255 17.5773C14.5643 17.7074 17.4468 17.291 19.8695 16.4073C19.7554 16.5227 19.6986 16.6929 19.5854 16.7934C18.3435 17.4498 15.721 18.1075 14.3943 18.1642C13.081 18.2218 11.4846 18.1642 10.0865 17.9066C8.88852 17.6647 7.90319 17.291 6.87708 16.8363C6.69288 16.9767 6.60743 17.1506 6.56322 17.3504C10.5726 19.4503 14.3075 19.493 18.5735 18.1642L18.1863 18.5361C13.4945 20.451 9.82964 19.707 6.99048 18.3363C6.89151 18.2927 6.77742 18.2488 6.69288 18.1922C6.96413 18.6506 9.12999 20.2361 11.5547 20.4359C13.2248 20.579 15.2635 20.2927 16.4759 19.8084L15.7636 20.1785C15.1776 20.4648 13.6241 21.1232 11.4548 20.9798C8.56046 20.7791 6.93343 19.493 6.20675 18.8226C5.86356 18.5063 5.70847 18.1502 5.60766 17.7076C4.95154 17.3644 4.53802 17.0063 4.19667 16.4633C3.9969 16.1639 4.03883 15.8078 4.08167 15.5055L4.16941 15.2508C3.85463 15.0202 3.52634 14.7775 3.39828 14.5366C3.11191 14.0216 3.28488 13.577 3.48373 13.2347C3.31145 13.0349 3.15452 12.8348 3.08534 12.635C2.99998 12.4063 2.98545 12.1755 3.01203 11.9199C3.06907 11.492 3.29839 11.0924 3.59805 10.7483C4.22439 10.0201 5.22508 9.44814 6.92015 8.89112C8.59024 8.33317 9.2608 8.24668 10.5158 7.96014C11.984 7.619 13.7385 7.50543 15.2076 6.99108C11.1128 6.2769 6.86448 6.9335 3.39851 9.31784L3.62462 8.64564Z" fill="#1F1F22"/>
</svg>
