<svg width="24" height="24" viewBox="0 0 24 24" fill="none" xmlns="http://www.w3.org/2000/svg">
<path d="M22 12.0002C22.0007 11.3995 21.9473 10.8 21.8405 10.209L19.6903 11.7956C19.6903 11.8632 19.6903 11.9326 19.6903 12.0002C19.6919 13.7195 19.1177 15.3899 18.0592 16.7448C17.0007 18.0998 15.519 19.0612 13.8504 19.4758C12.1818 19.8904 10.4224 19.7342 8.85284 19.0322C7.28332 18.3302 5.99409 17.1229 5.19081 15.6027C4.38753 14.0825 4.11647 12.3371 4.42086 10.6449C4.72526 8.95273 5.58758 7.41121 6.87027 6.26627C8.15297 5.12133 9.78213 4.43892 11.4979 4.3279C13.2137 4.21688 14.9172 4.68365 16.3367 5.65374L18.2823 4.21972C16.5177 2.79488 14.3212 2.01221 12.0532 2.00014C9.78521 1.98808 7.58049 2.74734 5.80085 4.15332C4.0212 5.5593 2.77236 7.52848 2.25927 9.7377C1.74618 11.9469 1.99931 14.2649 2.97714 16.3113C3.95496 18.3577 5.59938 20.011 7.64054 20.9997C9.68169 21.9884 11.9983 22.254 14.2103 21.7527C16.4222 21.2514 18.398 20.0131 19.8135 18.241C21.2289 16.4688 21.9999 14.2682 22 12.0002Z" fill="#1F1F22"/>
<path d="M19.9141 5.88782C20.3897 6.50117 20.7918 7.1681 21.1123 7.87498L12.0018 14.589L8.19568 12.2031V9.33328L12.0018 11.7123L19.9141 5.88782Z" fill="#1F1F22"/>
</svg>
