<svg width="24" height="24" viewBox="0 0 24 24" fill="none" xmlns="http://www.w3.org/2000/svg">
<path d="M16.8457 13.542V15.5089H17.2918C17.8698 15.5089 18.0362 14.9842 18.0858 14.4154C18.1192 14.0317 18.1423 13.6542 18.1489 13.542H19.2189C19.2189 13.542 19.0989 14.6449 19.0078 15.0224C18.9137 15.4107 18.7022 15.8007 18.4307 16.0042L19.739 19.4912H18.5711L17.5025 16.4717L16.8457 16.4715V19.493H15.7578V13.542H16.8457ZM7.3373 13.5421C8.49771 13.5421 8.98938 14.0904 9.11338 15.1435C9.14414 15.4048 9.52616 19.492 9.52616 19.492H8.41579C8.41579 19.492 8.21259 16.7234 8.20016 16.6031C8.16292 16.6031 8.01262 16.6029 7.82442 16.6027L6.84132 16.6018C6.83542 16.7325 6.73613 19.492 6.73613 19.492H5.66066L5.86132 13.5421H7.3373ZM4.08122 13.5422V14.5315H2.13046V15.5005C2.2798 15.4936 2.44619 15.4891 2.63345 15.4891C4.33973 15.4891 4.59313 16.8298 4.59313 17.4745C4.59313 18.0192 4.33829 19.4908 2.69338 19.4908H1.04352V13.5422H4.08122ZM11.5621 13.5163V15.4178H13.0543V13.5163H14.1395V19.4673H13.0543V16.407H11.5621V19.4673H10.4769V13.5163H11.5621ZM2.48588 16.4332L2.30928 16.4329C2.21589 16.4329 2.13046 16.4531 2.13046 16.4531V18.5474C2.13046 18.5474 2.39614 18.572 2.50181 18.572C2.79633 18.572 3.51241 18.5107 3.51241 17.5014C3.51241 16.5164 2.9907 16.4387 2.48588 16.4332ZM7.07959 14.5195L6.8869 14.5317C6.88499 14.6461 6.86268 15.4929 6.86028 15.6137H8.09019C8.0164 14.6725 7.87152 14.5195 7.07959 14.5195ZM7.50716 5.21741C8.09015 5.22447 8.65482 5.50085 9.00927 6.24114C9.23415 6.67424 9.37934 7.28395 9.39815 8.13492C9.39815 8.1362 9.4007 8.32596 9.4007 8.32741C9.40006 8.8574 9.34141 9.37151 9.22666 9.78552C8.92815 11.0045 8.23837 11.4356 7.51832 11.4486C7.51353 11.4488 7.50827 11.4493 7.50349 11.4493H7.48437C7.47975 11.4493 7.47449 11.4488 7.46955 11.4486C6.74949 11.4356 6.05971 11.0045 5.7612 9.78552C5.64661 9.37151 5.58796 8.8574 5.58732 8.32725L5.58741 8.30696C5.58803 8.2576 5.58958 8.13594 5.58971 8.13492C5.60852 7.28395 5.75355 6.67424 5.97859 6.24114C6.3332 5.50085 6.89771 5.22447 7.4807 5.21741H7.50716ZM20.387 5.37063C21.5476 5.37063 22.0389 5.91875 22.1633 6.97199C22.1939 7.23313 22.576 11.3205 22.576 11.3205H21.4657C21.4657 11.3205 21.2623 8.55185 21.2499 8.43155C21.1382 8.43155 20.0088 8.43026 19.891 8.43026C19.8853 8.561 19.786 11.3205 19.786 11.3205H18.7105L18.9112 5.37063H20.387ZM4.56614 5.37061V11.319H3.47744V6.35985H2.1304V11.319H1.04346V5.37061H4.56614ZM11.2869 5.37055V6.95795C11.2869 7.0943 11.3269 7.19889 11.4085 7.27604C11.5242 7.38721 11.7058 7.44223 11.9504 7.44223H12.5422V5.37055H13.6301V11.3191H12.5422V8.44638H11.7469C11.3214 8.44638 10.9546 8.31517 10.6552 8.05467C10.3514 7.7916 10.1974 7.46051 10.1974 7.06895V5.37055H11.2869ZM17.7414 5.37061V6.35985H16.8381V11.319H15.7378V6.35985H14.8344V5.37061H17.7414ZM7.49393 6.20713C7.077 6.21499 6.68159 6.74482 6.67251 8.355C6.68175 9.92813 7.077 10.4652 7.49393 10.4734C7.91086 10.4652 8.30627 9.92813 8.31535 8.35548C8.30627 6.74482 7.91086 6.21499 7.49393 6.20713ZM20.1414 6.36003H19.9366C19.9347 6.4744 19.9124 7.32136 19.91 7.44215H21.1399C21.0663 6.50087 20.9334 6.36003 20.1414 6.36003Z" fill="#1F1F22"/>
</svg>
