<svg width="32" height="32" viewBox="0 0 32 32" fill="none" xmlns="http://www.w3.org/2000/svg">
<path d="M6 8.65854L9.15447 14.2846V17.7154L6 23.3415V8.65854Z" fill="#656CAE"/>
<path d="M18.1301 12.2358L21.0895 10.4309H27.1383L18.1301 15.9268V12.2358Z" fill="#C25169"/>
<path d="M18.1144 8.62601L18.1307 16.0732L14.96 14.1382V3L18.1144 8.62601Z" fill="#EBAD4C"/>
<path d="M27.1388 10.4309H21.09L18.1144 8.62601L14.96 3L27.1388 10.4309Z" fill="#DB754B"/>
<path d="M18.1307 23.374V19.748L14.96 17.8455V29L18.1307 23.374Z" fill="#81BB5D"/>
<path d="M21.0732 21.5854L9.15447 14.2846L6 8.65854L27.1382 21.5691L21.0732 21.5854Z" fill="#608BC9"/>
<path d="M14.96 29L18.1307 23.374L21.0738 21.5854L27.1388 21.5691L14.96 29Z" fill="#548254"/>
<path d="M6 23.3414L14.9919 17.8455L11.9675 16.0081L9.15447 17.7154L6 23.3414Z" fill="#8366A8"/>
</svg>
