<svg width="24" height="24" viewBox="0 0 24 24" fill="none" xmlns="http://www.w3.org/2000/svg">
<path fill-rule="evenodd" clip-rule="evenodd" d="M9.55176 16.0084H14.4201V7.08003H9.55176V16.0084Z" fill="#7375CF"/>
<path fill-rule="evenodd" clip-rule="evenodd" d="M9.86993 11.5C9.86993 9.70284 10.7022 8.10232 11.9979 7.07058C11.0501 6.31602 9.85441 5.86592 8.55467 5.86592C5.47768 5.86592 2.9834 8.38853 2.9834 11.5C2.9834 14.6115 5.47768 17.1341 8.55467 17.1341C9.85441 17.1341 11.0501 16.684 11.9979 15.9294C10.7022 14.8977 9.86993 13.2972 9.86993 11.5Z" fill="#EB001B"/>
<path fill-rule="evenodd" clip-rule="evenodd" d="M20.9999 11.4998C20.9999 14.6118 18.5055 17.1341 15.4284 17.1341C14.1286 17.1341 12.9329 16.684 11.9854 15.9294C13.2812 14.8981 14.1131 13.2971 14.1131 11.4998C14.1131 9.70259 13.2812 8.10202 11.9854 7.07025C12.9329 6.31603 14.1286 5.86592 15.4284 5.86592C18.5055 5.86592 20.9999 8.38824 20.9999 11.4998Z" fill="#00A2EF"/>
</svg>
