<svg width="24" height="24" viewBox="0 0 24 24" fill="none" xmlns="http://www.w3.org/2000/svg">
<path fill-rule="evenodd" clip-rule="evenodd" d="M2.42574 12.5101C2.37863 13.8857 2.02827 15.5927 1.39968 16.4362L1.12366 16.8071L1.54836 16.9934C2.29325 17.3187 3.03372 17.3113 3.75653 16.9713C4.51862 18.2557 5.50274 18.5674 6.62879 18.9241L6.63083 18.9248L7.216 19.1095V18.6068C7.216 18.121 7.0813 16.7645 6.54471 15.7958C7.05922 15.7134 7.58991 15.497 7.90347 14.953L8.1368 14.5467L7.68707 14.4164C7.30653 14.306 6.84797 12.7971 6.84797 11.0895C6.84797 9.10873 7.61568 8.49634 8.88022 7.72348C9.46358 7.36669 9.38892 6.96212 9.33446 6.667L9.3342 6.66559C9.2768 6.35358 9.19799 5.92515 9.73993 5.02288L10.0741 4.46495H9.42417C8.32744 4.46495 7.22262 4.88082 6.92525 5.79722C6.49687 5.5948 5.93452 5.23708 5.64967 4.81752L5.31256 4.31921L5.02255 4.84623C4.36304 6.04453 4.30784 7.08311 4.83927 7.80371C4.21191 8.07877 3.80576 8.66984 3.43576 9.20829L3.43417 9.2106C2.90009 9.9867 2.43855 10.6574 1.44384 10.6574H1L1.08244 11.0939C1.26792 12.0728 1.81187 12.3886 2.42574 12.5101ZM4.04139 9.62692C4.57208 8.85553 4.93201 8.38225 5.61139 8.38225H6.89802L5.80571 7.70213C5.04758 7.22958 5.13296 6.41329 5.434 5.68386C6.00003 6.21382 6.76185 6.55903 7.11516 6.65914L7.58403 6.79163V6.30509C7.58403 5.6213 8.25531 5.36073 8.79042 5.26137C8.46833 6.02541 8.55472 6.49484 8.61067 6.79886C8.62392 6.86658 8.641 6.96092 8.63659 6.98374L8.63578 6.98478C8.63107 6.99142 8.60403 7.02957 8.49674 7.09488C7.14534 7.92074 6.11191 8.73997 6.11191 11.0895C6.11191 12.1545 6.31727 14.083 7.03861 14.8397C6.8384 14.9861 6.49245 15.1076 5.85797 15.1076H4.96955L5.59815 15.7362C6.08615 16.2249 6.36291 17.2834 6.44976 18.0938C5.50835 17.7817 4.80026 17.4416 4.23276 16.3081L4.05243 15.9467L3.70869 16.1602C3.2251 16.4612 2.74666 16.5584 2.25645 16.4546C2.88062 15.3041 3.16769 13.5118 3.16769 12.1935V11.8631L2.83867 11.8277C2.32417 11.7725 2.06875 11.6555 1.92375 11.3515C2.9903 11.155 3.56663 10.3173 4.04139 9.62692Z" stroke="#1F1F22" stroke-width="0.3" stroke-linejoin="round"/>
<path d="M10.6895 4.04024C11.53 3.63173 12.47 3.63247 13.3106 4.04613L13.6352 3.38589C12.5958 2.87433 11.4071 2.87065 10.3678 3.37926L10.6895 4.04024Z" fill="#1F1F22"/>
<path d="M7.87402 20.2877C9.18126 21.1423 10.6026 21.5935 11.9834 21.5935C13.3775 21.5935 14.8106 21.1334 16.1289 20.2634L15.7233 19.6488C13.3392 21.2225 10.6644 21.2299 8.27665 19.6709L7.87402 20.2877Z" fill="#1F1F22"/>
<path fill-rule="evenodd" clip-rule="evenodd" d="M10.1602 18.8181C9.21438 18.8181 8.32007 17.9238 8.32007 16.978V8.88136H9.8231C9.80985 8.49051 9.79218 7.87664 9.79218 7.40925L9.82236 7.26351C10.1389 6.53187 11.1156 5.93713 12.0004 5.93713C12.8851 5.93713 13.8618 6.53187 14.1783 7.26351L14.2085 7.40925V8.88136H15.6806V16.978C15.6806 17.9238 14.7863 18.8181 13.8405 18.8181H13.1044C12.6188 18.8181 12.3403 19.3305 12.3283 19.3525L11.9959 19.9966L11.6713 19.351C11.6699 19.3473 11.3902 18.8181 10.8963 18.8181H10.1602ZM13.4725 7.49242C13.2369 7.04932 12.5708 6.67319 12.0004 6.67319C11.4299 6.67319 10.7638 7.04932 10.5282 7.49242C10.5304 8.04078 10.5547 8.75255 10.5665 9.06905L12.0033 10.2475L13.4725 9.072V7.49242ZM10.0734 9.61742H9.05612V13.2977H14.9446V9.61742H13.9693L11.9974 11.1955L10.0734 9.61742ZM14.9446 14.0338H9.05612V16.978C9.05612 17.5146 9.62362 18.0821 10.1602 18.0821H10.8963C11.3983 18.0821 11.7641 18.3323 12.0004 18.5745C12.2366 18.3323 12.6024 18.0821 13.1044 18.0821H13.8405C14.3771 18.0821 14.9446 17.5146 14.9446 16.978V14.0338Z" fill="#1F1F22"/>
<path d="M4.68464 10.5447L5.33016 10.8987C4.84584 11.779 4.63974 12.8265 4.63974 14.4016H3.90369C3.90369 12.694 4.13702 11.5398 4.68464 10.5447Z" fill="#1F1F22"/>
<path fill-rule="evenodd" clip-rule="evenodd" d="M2.42574 12.5101C2.37863 13.8857 2.02827 15.5927 1.39968 16.4362L1.12366 16.8071L1.54836 16.9934C2.29325 17.3187 3.03372 17.3113 3.75653 16.9713C4.51862 18.2557 5.50274 18.5674 6.62879 18.9241L6.63083 18.9248L7.216 19.1095V18.6068C7.216 18.121 7.0813 16.7645 6.54471 15.7958C7.05922 15.7134 7.58991 15.497 7.90347 14.953L8.1368 14.5467L7.68707 14.4164C7.30653 14.306 6.84797 12.7971 6.84797 11.0895C6.84797 9.10873 7.61568 8.49634 8.88022 7.72348C9.46358 7.36669 9.38892 6.96212 9.33446 6.667L9.3342 6.66559C9.2768 6.35358 9.19799 5.92515 9.73993 5.02288L10.0741 4.46495H9.42417C8.32744 4.46495 7.22262 4.88082 6.92525 5.79722C6.49687 5.5948 5.93452 5.23708 5.64967 4.81752L5.31256 4.31921L5.02255 4.84623C4.36304 6.04453 4.30784 7.08311 4.83927 7.80371C4.21191 8.07877 3.80576 8.66984 3.43576 9.20829L3.43417 9.2106C2.90009 9.9867 2.43855 10.6574 1.44384 10.6574H1L1.08244 11.0939C1.26792 12.0728 1.81187 12.3886 2.42574 12.5101ZM4.04139 9.62692C4.57208 8.85553 4.93201 8.38225 5.61139 8.38225H6.89802L5.80571 7.70213C5.04758 7.22958 5.13296 6.41329 5.434 5.68386C6.00003 6.21382 6.76185 6.55903 7.11516 6.65914L7.58403 6.79163V6.30509C7.58403 5.6213 8.25531 5.36073 8.79042 5.26137C8.46833 6.02541 8.55472 6.49484 8.61067 6.79886C8.62392 6.86658 8.641 6.96092 8.63659 6.98374L8.63578 6.98478C8.63107 6.99142 8.60403 7.02957 8.49674 7.09488C7.14534 7.92074 6.11191 8.73997 6.11191 11.0895C6.11191 12.1545 6.31727 14.083 7.03861 14.8397C6.8384 14.9861 6.49245 15.1076 5.85797 15.1076H4.96955L5.59815 15.7362C6.08615 16.2249 6.36291 17.2834 6.44976 18.0938C5.50835 17.7817 4.80026 17.4416 4.23276 16.3081L4.05243 15.9467L3.70869 16.1602C3.2251 16.4612 2.74666 16.5584 2.25645 16.4546C2.88062 15.3041 3.16769 13.5118 3.16769 12.1935V11.8631L2.83867 11.8277C2.32417 11.7725 2.06875 11.6555 1.92375 11.3515C2.9903 11.155 3.56663 10.3173 4.04139 9.62692Z" fill="#1F1F22"/>
<path d="M19.361 14.4014C19.361 12.8262 19.1549 11.7788 18.6705 10.8985L19.3153 10.5437C19.8637 11.5396 20.097 12.6937 20.097 14.4014H19.361Z" fill="#1F1F22"/>
<path fill-rule="evenodd" clip-rule="evenodd" d="M20.5659 9.20957C20.1956 8.67078 19.7886 8.07899 19.1615 7.80371C19.6936 7.08311 19.6377 6.04453 18.9789 4.84549L18.6882 4.31921L18.3511 4.81679C18.0662 5.23634 17.5039 5.59406 17.0755 5.79648C16.7781 4.88083 15.6733 4.46495 14.5766 4.46495H13.9266L14.2608 5.02215C14.8025 5.92592 14.7238 6.35357 14.6664 6.66565C14.6119 6.96076 14.5372 7.36596 15.1205 7.72274C16.3851 8.49634 17.1528 9.10873 17.1528 11.0895C17.1528 12.7971 16.6942 14.306 16.3137 14.4164L15.8639 14.5475L16.0973 14.9538C16.4108 15.4977 16.9408 15.7141 17.456 15.7965C16.9194 16.7652 16.7847 18.1217 16.7847 18.6075V19.1103L17.3699 18.9248C18.4968 18.5685 19.4817 18.2564 20.2442 16.9713C20.9655 17.3113 21.7082 17.318 22.4524 16.9934L22.8763 16.8079L22.6003 16.4369C21.9717 15.5934 21.6221 13.8865 21.5743 12.5108C22.1881 12.3886 22.7321 12.0736 22.9176 11.0946L23 10.6581H22.5554C21.561 10.6574 21.0995 9.98611 20.5659 9.20957ZM21.1621 11.8277L20.8331 11.8631V12.1935C20.8331 13.5118 21.1201 15.3041 21.7436 16.4538C21.2526 16.5576 20.7749 16.4605 20.2913 16.1594L19.9476 15.946L19.7672 16.3074C19.1997 17.4416 18.4924 17.781 17.5502 18.093C17.6371 17.2826 17.9139 16.2242 18.4019 15.7355L19.0305 15.1069H18.142C17.5083 15.1069 17.1623 14.9854 16.9614 14.8389C17.6835 14.083 17.8888 12.1545 17.8888 11.0895C17.8888 8.73997 16.8554 7.92074 15.5047 7.09488C15.3914 7.02569 15.3664 6.98742 15.3664 6.98742C15.3612 6.96018 15.3781 6.86744 15.3907 6.79972L15.3909 6.79818C15.4469 6.49342 15.5329 6.02484 15.2111 5.26137C15.7454 5.36073 16.4167 5.6213 16.4167 6.30509V6.79163L16.8856 6.65914C17.2389 6.55903 18.0014 6.21382 18.5667 5.68386C18.8678 6.41329 18.9532 7.22958 18.195 7.70213L17.1035 8.38225H18.3901C19.0695 8.38225 19.4294 8.85553 19.9601 9.62692C20.4348 10.3173 21.0112 11.155 22.0777 11.3508C21.932 11.6555 21.6766 11.7725 21.1621 11.8277Z" fill="#1F1F22"/>
<path d="M10.6895 4.04024C11.53 3.63173 12.47 3.63247 13.3106 4.04613L13.6352 3.38589C12.5958 2.87433 11.4071 2.87065 10.3678 3.37926L10.6895 4.04024Z" stroke="#1F1F22" stroke-width="0.3"/>
<path d="M7.87402 20.2877C9.18126 21.1423 10.6026 21.5935 11.9834 21.5935C13.3775 21.5935 14.8106 21.1334 16.1289 20.2634L15.7233 19.6488C13.3392 21.2225 10.6644 21.2299 8.27665 19.6709L7.87402 20.2877Z" stroke="#1F1F22" stroke-width="0.3"/>
<path fill-rule="evenodd" clip-rule="evenodd" d="M10.1602 18.8181C9.21438 18.8181 8.32007 17.9238 8.32007 16.978V8.88136H9.8231C9.80985 8.49051 9.79218 7.87664 9.79218 7.40925L9.82236 7.26351C10.1389 6.53187 11.1156 5.93713 12.0004 5.93713C12.8851 5.93713 13.8618 6.53187 14.1783 7.26351L14.2085 7.40925V8.88136H15.6806V16.978C15.6806 17.9238 14.7863 18.8181 13.8405 18.8181H13.1044C12.6188 18.8181 12.3403 19.3305 12.3283 19.3525L11.9959 19.9966L11.6713 19.351C11.6699 19.3473 11.3902 18.8181 10.8963 18.8181H10.1602ZM13.4725 7.49242C13.2369 7.04932 12.5708 6.67319 12.0004 6.67319C11.4299 6.67319 10.7638 7.04932 10.5282 7.49242C10.5304 8.04078 10.5547 8.75255 10.5665 9.06905L12.0033 10.2475L13.4725 9.072V7.49242ZM10.0734 9.61742H9.05612V13.2977H14.9446V9.61742H13.9693L11.9974 11.1955L10.0734 9.61742ZM14.9446 14.0338H9.05612V16.978C9.05612 17.5146 9.62362 18.0821 10.1602 18.0821H10.8963C11.3983 18.0821 11.7641 18.3323 12.0004 18.5745C12.2366 18.3323 12.6024 18.0821 13.1044 18.0821H13.8405C14.3771 18.0821 14.9446 17.5146 14.9446 16.978V14.0338Z" stroke="#1F1F22" stroke-width="0.3"/>
<path d="M4.68464 10.5447L5.33016 10.8987C4.84584 11.779 4.63974 12.8265 4.63974 14.4016H3.90369C3.90369 12.694 4.13702 11.5398 4.68464 10.5447Z" stroke="#1F1F22" stroke-width="0.3"/>
<path fill-rule="evenodd" clip-rule="evenodd" d="M2.42574 12.5101C2.37863 13.8857 2.02827 15.5927 1.39968 16.4362L1.12366 16.8071L1.54836 16.9934C2.29325 17.3187 3.03372 17.3113 3.75653 16.9713C4.51862 18.2557 5.50274 18.5674 6.62879 18.9241L6.63083 18.9248L7.216 19.1095V18.6068C7.216 18.121 7.0813 16.7645 6.54471 15.7958C7.05922 15.7134 7.58991 15.497 7.90347 14.953L8.1368 14.5467L7.68707 14.4164C7.30653 14.306 6.84797 12.7971 6.84797 11.0895C6.84797 9.10873 7.61568 8.49634 8.88022 7.72348C9.46358 7.36669 9.38892 6.96212 9.33446 6.667L9.3342 6.66559C9.2768 6.35358 9.19799 5.92515 9.73993 5.02288L10.0741 4.46495H9.42417C8.32744 4.46495 7.22262 4.88082 6.92525 5.79722C6.49687 5.5948 5.93452 5.23708 5.64967 4.81752L5.31256 4.31921L5.02255 4.84623C4.36304 6.04453 4.30784 7.08311 4.83927 7.80371C4.21191 8.07877 3.80576 8.66984 3.43576 9.20829L3.43417 9.2106C2.90009 9.9867 2.43855 10.6574 1.44384 10.6574H1L1.08244 11.0939C1.26792 12.0728 1.81187 12.3886 2.42574 12.5101ZM4.04139 9.62692C4.57208 8.85553 4.93201 8.38225 5.61139 8.38225H6.89802L5.80571 7.70213C5.04758 7.22958 5.13296 6.41329 5.434 5.68386C6.00003 6.21382 6.76185 6.55903 7.11516 6.65914L7.58403 6.79163V6.30509C7.58403 5.6213 8.25531 5.36073 8.79042 5.26137C8.46833 6.02541 8.55472 6.49484 8.61067 6.79886C8.62392 6.86658 8.641 6.96092 8.63659 6.98374L8.63578 6.98478C8.63107 6.99142 8.60403 7.02957 8.49674 7.09488C7.14534 7.92074 6.11191 8.73997 6.11191 11.0895C6.11191 12.1545 6.31727 14.083 7.03861 14.8397C6.8384 14.9861 6.49245 15.1076 5.85797 15.1076H4.96955L5.59815 15.7362C6.08615 16.2249 6.36291 17.2834 6.44976 18.0938C5.50835 17.7817 4.80026 17.4416 4.23276 16.3081L4.05243 15.9467L3.70869 16.1602C3.2251 16.4612 2.74666 16.5584 2.25645 16.4546C2.88062 15.3041 3.16769 13.5118 3.16769 12.1935V11.8631L2.83867 11.8277C2.32417 11.7725 2.06875 11.6555 1.92375 11.3515C2.9903 11.155 3.56663 10.3173 4.04139 9.62692Z" stroke="#1F1F22" stroke-width="0.3"/>
<path d="M19.361 14.4014C19.361 12.8262 19.1549 11.7788 18.6705 10.8985L19.3153 10.5437C19.8637 11.5396 20.097 12.6937 20.097 14.4014H19.361Z" stroke="#1F1F22" stroke-width="0.3"/>
<path fill-rule="evenodd" clip-rule="evenodd" d="M20.5659 9.20957C20.1956 8.67078 19.7886 8.07899 19.1615 7.80371C19.6936 7.08311 19.6377 6.04453 18.9789 4.84549L18.6882 4.31921L18.3511 4.81679C18.0662 5.23634 17.5039 5.59406 17.0755 5.79648C16.7781 4.88083 15.6733 4.46495 14.5766 4.46495H13.9266L14.2608 5.02215C14.8025 5.92592 14.7238 6.35357 14.6664 6.66565C14.6119 6.96076 14.5372 7.36596 15.1205 7.72274C16.3851 8.49634 17.1528 9.10873 17.1528 11.0895C17.1528 12.7971 16.6942 14.306 16.3137 14.4164L15.8639 14.5475L16.0973 14.9538C16.4108 15.4977 16.9408 15.7141 17.456 15.7965C16.9194 16.7652 16.7847 18.1217 16.7847 18.6075V19.1103L17.3699 18.9248C18.4968 18.5685 19.4817 18.2564 20.2442 16.9713C20.9655 17.3113 21.7082 17.318 22.4524 16.9934L22.8763 16.8079L22.6003 16.4369C21.9717 15.5934 21.6221 13.8865 21.5743 12.5108C22.1881 12.3886 22.7321 12.0736 22.9176 11.0946L23 10.6581H22.5554C21.561 10.6574 21.0995 9.98611 20.5659 9.20957ZM21.1621 11.8277L20.8331 11.8631V12.1935C20.8331 13.5118 21.1201 15.3041 21.7436 16.4538C21.2526 16.5576 20.7749 16.4605 20.2913 16.1594L19.9476 15.946L19.7672 16.3074C19.1997 17.4416 18.4924 17.781 17.5502 18.093C17.6371 17.2826 17.9139 16.2242 18.4019 15.7355L19.0305 15.1069H18.142C17.5083 15.1069 17.1623 14.9854 16.9614 14.8389C17.6835 14.083 17.8888 12.1545 17.8888 11.0895C17.8888 8.73997 16.8554 7.92074 15.5047 7.09488C15.3914 7.02569 15.3664 6.98742 15.3664 6.98742C15.3612 6.96018 15.3781 6.86744 15.3907 6.79972L15.3909 6.79818C15.4469 6.49342 15.5329 6.02484 15.2111 5.26137C15.7454 5.36073 16.4167 5.6213 16.4167 6.30509V6.79163L16.8856 6.65914C17.2389 6.55903 18.0014 6.21382 18.5667 5.68386C18.8678 6.41329 18.9532 7.22958 18.195 7.70213L17.1035 8.38225H18.3901C19.0695 8.38225 19.4294 8.85553 19.9601 9.62692C20.4348 10.3173 21.0112 11.155 22.0777 11.3508C21.932 11.6555 21.6766 11.7725 21.1621 11.8277Z" stroke="#1F1F22" stroke-width="0.3"/>
</svg>
