<svg width="24" height="24" viewBox="0 0 24 24" fill="none" xmlns="http://www.w3.org/2000/svg">
<path fill-rule="evenodd" clip-rule="evenodd" d="M12 6C8.68629 6 6 8.68629 6 12C6 15.3137 8.68629 18 12 18C12 18 12 19.3333 12 22C6.47715 22 2 17.5228 2 12V11.9925C2 6.47379 6.47379 2 11.9925 2L12 6Z" fill="#1F1F22"/>
<path fill-rule="evenodd" clip-rule="evenodd" d="M14.0108 21.7977C18.5698 20.8668 21.9998 16.834 21.9998 11.9999C21.9998 7.15985 18.5612 3.12288 13.9936 2.19873C13.9936 2.19873 13.9936 4.13693 13.9936 8.01332H13.0157H11.9938C9.78646 8.01332 7.99707 9.80271 7.99707 12.01C7.99707 14.2174 9.78646 16.0068 11.9938 16.0068H13.0157H14.0108C14.0108 19.8674 14.0108 21.7977 14.0108 21.7977Z" fill="#1F1F22"/>
</svg>
