<svg width="24" height="24" viewBox="0 0 24 24" fill="none" xmlns="http://www.w3.org/2000/svg">
<path fill-rule="evenodd" clip-rule="evenodd" d="M5.44014 9.92308L4.30459 12.9309L3.24455 9.92308C3.06889 9.42415 2.52276 9.02031 2.01337 9.00323L1.97965 9H0V15H2.01337V11.3077L3.62407 15H5.03343L6.54347 11.7272V15H8.55684V9H7.80182C7.80182 9 7.71429 9.00323 6.85714 9.00323C6 9.00323 5.60372 9.48969 5.44014 9.92308ZM14.3453 9L14.0936 9.02908C13.6124 9.12785 13.1332 9.48923 12.9515 9.92308L11.5769 13.2V9H9.56353V15H11.3252L11.5769 14.9709C12.0581 14.8722 12.5373 14.5108 12.719 14.0769L14.0936 10.8V15H16.107V9H14.3453ZM17.1429 11.7273V15H19.4286V13.125H22.2857C23.7143 13.125 24 11.7273 24 11.7273H17.1429Z" fill="#00754E"/>
<path fill-rule="evenodd" clip-rule="evenodd" d="M20.8569 9H17.1426C17.1426 10.1044 18.3063 11.1818 19.7854 11.1818H20.8569H21.3926H23.9997C23.9997 9.81818 22.8569 9 21.1426 9H20.8569Z" fill="url(#paint0_linear)"/>
<defs>
<linearGradient id="paint0_linear" x1="24.2836" y1="10.9579" x2="17.6243" y2="8.43794" gradientUnits="userSpaceOnUse">
<stop stop-color="#205CD8"/>
<stop offset="1" stop-color="#03AFFF"/>
</linearGradient>
</defs>
</svg>
