<svg width="24" height="24" viewBox="0 0 24 24" fill="none" xmlns="http://www.w3.org/2000/svg">
<path fill-rule="evenodd" clip-rule="evenodd" d="M11.99 2V5.61277C8.46705 5.62275 5.61277 8.47703 5.61277 12C5.61277 15.5229 8.47703 18.3872 12 18.3872C15.503 18.3872 18.3872 15.5529 18.3872 11.97H22C22 17.5189 17.5189 22 12 22C6.48103 22.0099 2 17.5289 2 12C2 6.48103 6.47105 2.00998 11.99 2ZM17.6487 3.83632C19.0559 3.83632 20.1936 4.97405 20.1936 6.38123C20.1936 7.78841 19.0559 8.92614 17.6487 8.92614C16.2415 8.92614 15.1038 7.78841 15.1038 6.38123C15.1038 4.97405 16.2415 3.83632 17.6487 3.83632Z" fill="#1F1F22"/>
<path d="M7.58875 11.9999C7.58875 9.54486 9.57477 7.55884 12.0299 7.55884C14.475 7.55884 16.471 9.54486 16.471 11.9999C16.471 14.4451 14.4849 16.4411 12.0299 16.4411C9.57477 16.4411 7.58875 14.455 7.58875 11.9999Z" fill="#1F1F22"/>
</svg>
