<svg width="20" height="20" viewBox="0 0 20 20" fill="none" xmlns="http://www.w3.org/2000/svg">
<path d="M3 4.91739L5.18386 8.81232V11.1875L3 15.0825V4.91739Z" fill="#656CAE"/>
<path d="M11.3962 7.39397L13.445 6.14444H17.6326L11.3962 9.94931V7.39397Z" fill="#C25169"/>
<path d="M11.3863 4.89493L11.3975 10.0506L9.20239 8.71106V1L11.3863 4.89493Z" fill="#EBAD4C"/>
<path d="M17.6339 6.14445H13.4463L11.3863 4.89493L9.20239 1L17.6339 6.14445Z" fill="#DB754B"/>
<path d="M11.3975 15.105V12.5947L9.20239 11.2776V18.9999L11.3975 15.105Z" fill="#81BB5D"/>
<path d="M13.4353 13.8667L5.18386 8.81232L3 4.91739L17.6341 13.8555L13.4353 13.8667Z" fill="#608BC9"/>
<path d="M9.20239 19L11.3975 15.1051L13.435 13.8668L17.6339 13.8555L9.20239 19Z" fill="#548254"/>
<path d="M3 15.0825L9.22513 11.2776L7.13132 10.0056L5.18386 11.1876L3 15.0825Z" fill="#8366A8"/>
</svg>
