<svg width="25" height="24" viewBox="0 0 25 24" fill="none" xmlns="http://www.w3.org/2000/svg">
<path d="M11.737 8.7825V11.0761H13.1637C13.4803 11.0846 13.7861 10.9615 14.0068 10.7365C14.334 10.4035 14.4272 9.9085 14.2429 9.48125C14.0586 9.054 13.633 8.77818 13.1637 8.78186H11.737V8.7825ZM11.737 11.8836V14.5443H10.8835V7.97754H13.1475C13.693 7.96642 14.2205 8.17111 14.6131 8.54628C15.004 8.90488 15.2261 9.40851 15.2261 9.93602C15.2261 10.4635 15.004 10.9672 14.6131 11.3258C14.2175 11.6993 13.729 11.8859 13.1475 11.8855H11.737V11.8836Z" fill="#5F6368"/>
<path d="M16.0903 13.1674C16.089 13.3858 16.1946 13.5913 16.3737 13.7188C16.5625 13.8653 16.7966 13.9428 17.0365 13.9384C17.3967 13.9379 17.742 13.7962 17.9969 13.5442C18.2654 13.3097 18.4191 12.9724 18.4191 12.618C18.1532 12.4096 17.782 12.3056 17.3056 12.306C16.9597 12.306 16.6707 12.3886 16.4385 12.5538C16.2064 12.719 16.0903 12.9235 16.0903 13.1674ZM17.1928 9.90332C17.824 9.90332 18.3212 10.07 18.6843 10.4034C19.0475 10.7367 19.2297 11.1938 19.231 11.7745V14.5443H18.4178V13.9204H18.3802C18.0278 14.4339 17.5579 14.6907 16.9703 14.6907C16.4697 14.6907 16.0494 14.5443 15.7129 14.2503C15.3851 13.9775 15.1992 13.5727 15.207 13.1488C15.207 12.6849 15.3847 12.3152 15.7401 12.0396C16.0955 11.764 16.571 11.6264 17.1668 11.6269C17.6739 11.6269 18.0916 11.7184 18.4197 11.9016V11.709C18.4215 11.42 18.292 11.1454 18.0669 10.9612C17.8406 10.7597 17.5458 10.6502 17.2414 10.6544C16.7658 10.6544 16.3886 10.8531 16.1097 11.2507L15.3575 10.7827C15.7708 10.1965 16.3826 9.90332 17.1928 9.90332Z" fill="#5F6368"/>
<path d="M23.9198 10.0484L21.071 16.5253H20.1896L21.2474 14.2593L19.3732 10.0484H20.3012L21.6559 13.2779H21.6741L22.9918 10.0484H23.9198Z" fill="#5F6368"/>
<path d="M8.60757 11.3814C8.60826 11.1203 8.58597 10.8596 8.54095 10.6021H4.84131V12.0757H6.96329C6.87592 12.5507 6.59277 12.9701 6.17979 13.2363V14.1916H7.44565C8.18584 13.5266 8.61224 12.544 8.61224 11.3814" fill="#4285F4"/>
<path d="M4.84129 15.1138C5.89995 15.1138 6.79071 14.7754 7.43963 14.1916L6.17377 13.2363C5.822 13.4675 5.36895 13.6019 4.84129 13.6019C3.81861 13.6019 2.9505 12.9304 2.64269 12.0257H1.33752V13.0109C2.00397 14.3011 3.3594 15.1151 4.84129 15.1151" fill="#34A853"/>
<path d="M2.64 12.0257C2.47565 11.5516 2.47565 11.0379 2.64 10.5638V9.5799H1.33749C0.780569 10.6587 0.780569 11.9308 1.33749 13.0096L2.64 12.0257Z" fill="#FABB05"/>
<path d="M4.84129 8.9876C5.40064 8.97866 5.94118 9.18439 6.34633 9.56041L7.46562 8.46999C6.75537 7.82058 5.81502 7.46407 4.84129 7.47504C3.3594 7.47503 2.00397 8.28903 1.33752 9.57924L2.64003 10.5632C2.9505 9.65783 3.81861 8.98695 4.83863 8.98695" fill="#E94235"/>
</svg>
