<svg width="20" height="20" viewBox="0 0 20 20" fill="none" xmlns="http://www.w3.org/2000/svg">
<path fill-rule="evenodd" clip-rule="evenodd" d="M2 10C2 5.58172 5.58172 2 10 2C14.4183 2 18 5.58172 18 10C18 14.4183 14.4183 18 10 18C7.56912 18 5.39146 16.9158 3.92424 15.2046C6.0712 15.1756 7.64302 14.2847 8.6648 12.9293C8.76427 12.7973 8.85777 12.662 8.9455 12.5237C8.97602 12.5318 9.00667 12.5397 9.03745 12.5475C10.295 12.8636 11.7352 12.8826 13.3816 12.7452L12.1863 14.4186C11.8653 14.868 11.9694 15.4926 12.4188 15.8136C12.8682 16.1346 13.4927 16.0305 13.8138 15.5811L16.3138 12.0811C16.5979 11.6833 16.5528 11.1384 16.2071 10.7927L13.2071 7.79275C12.8166 7.40222 12.1834 7.40222 11.7929 7.79275C11.4024 8.18327 11.4024 8.81644 11.7929 9.20696L13.3278 10.7419C11.8673 10.8696 10.7149 10.8607 9.76344 10.6625C10.0841 9.51777 10.1303 8.3405 9.98997 7.35851C9.83583 6.2795 9.33109 5.45231 8.57704 4.97148C7.84061 4.50189 6.97352 4.43298 6.22422 4.65409C5.47561 4.87499 4.78498 5.40358 4.43213 6.20036C4.07016 7.01773 4.12213 7.98079 4.60559 8.94776C4.61387 8.96432 4.6226 8.98065 4.63179 8.99673C5.32151 10.2037 6.1194 11.0949 7.0779 11.7118L7.06776 11.7253C6.31246 12.7272 4.98497 13.4969 2.62321 13.101C2.22184 12.1474 2 11.0996 2 10ZM10 0C4.47715 0 0 4.47715 0 10C0 15.5228 4.47715 20 10 20C15.5228 20 20 15.5228 20 10C20 4.47715 15.5228 0 10 0ZM8.01007 7.64135C8.1066 8.31705 8.08044 9.09724 7.90627 9.85273C7.35041 9.4342 6.85336 8.84748 6.38284 8.02984C6.12953 7.51044 6.18346 7.18491 6.26083 7.01019C6.34849 6.81226 6.53647 6.6472 6.79026 6.57231C7.04337 6.49763 7.30247 6.53076 7.50174 6.65782C7.68338 6.77364 7.92384 7.03772 8.01007 7.64135Z" fill="#B2B8BF"/>
</svg>
