<svg width="20" height="20" viewBox="0 0 20 20" fill="none" xmlns="http://www.w3.org/2000/svg">
<path d="M18 1C18 0.447715 17.5523 0 17 0C16.4477 0 16 0.447715 16 1V1.0466C15.7984 1.09797 15.5851 1.17349 15.3757 1.28446C15.0159 1.47517 14.6664 1.76967 14.4081 2.20631C14.1523 2.63881 14.0174 3.15743 14.0004 3.75275C13.974 4.67796 14.5054 5.27809 15.0509 5.63911C15.5144 5.94593 16.0998 6.15633 16.5512 6.31858L16.6408 6.35083C17.1722 6.54262 17.5434 6.68768 17.7932 6.86298C17.9927 7.00308 18.0001 7.07585 18.0001 7.15631C18.0001 7.40254 17.9431 7.55037 17.8875 7.64295C17.8289 7.74054 17.7428 7.82391 17.6271 7.89534C17.5084 7.96864 17.3709 8.02116 17.2388 8.05453C17.1745 8.07081 17.117 8.08112 17.0714 8.08715C17.0275 8.09297 17.0031 8.09371 17.0003 8.0938C16.8635 8.0938 16.5476 8.06137 16.2327 7.96539C15.8853 7.85948 15.7482 7.74014 15.7256 7.70785C15.4089 7.2554 14.7853 7.14536 14.3329 7.46208C13.8804 7.77879 13.7704 8.40232 14.0871 8.85477C14.502 9.44748 15.1769 9.73439 15.6495 9.87847C15.7667 9.91421 15.8843 9.94495 16 9.9711V10C16 10.5523 16.4477 11 17 11C17.5523 11 18 10.5523 18 10V9.91363C18.2208 9.83892 18.4525 9.73622 18.6777 9.59719C19.3791 9.16419 20.0001 8.3789 20.0001 7.15631C20.0001 6.23677 19.5008 5.61813 18.9422 5.226C18.4409 4.87412 17.813 4.64756 17.34 4.4769L17.3198 4.4696C16.7745 4.27282 16.405 4.13696 16.1548 3.97135C16.0443 3.89821 16.0096 3.85121 16.0024 3.83981L16.0009 3.83742C16.0004 3.83457 15.9992 3.82604 15.9996 3.80987C16.0089 3.48332 16.0787 3.31052 16.1296 3.22448C16.178 3.14256 16.2373 3.09135 16.3123 3.0516C16.5031 2.95051 16.7559 2.93756 17.0001 2.93756C17.1694 2.93756 17.4826 3.02243 17.7631 3.35899C18.1167 3.78327 18.7472 3.84059 19.1715 3.48703C19.5958 3.13347 19.6531 2.5029 19.2996 2.07862C18.9184 1.62127 18.4642 1.31056 18 1.13026V1Z" fill="#B2B8BF"/>
<path fill-rule="evenodd" clip-rule="evenodd" d="M9.1324 2.43166C9.48164 2.0993 9.7731 2 10 2C10.4554 2 10.9012 2.03795 11.3345 2.11065C11.8792 2.20203 12.3948 1.83457 12.4862 1.28989C12.5776 0.745221 12.2101 0.229599 11.6655 0.13822C11.1232 0.0472456 10.5667 0 10 0C4.47715 0 0 4.47715 0 10C0 15.5228 4.47715 20 10 20C14.3556 20 18.0584 17.2159 19.4307 13.3332C19.6148 12.8125 19.3418 12.2412 18.8211 12.0572C18.3004 11.8731 17.7291 12.146 17.545 12.6668C16.8491 14.6356 15.4047 16.25 13.5544 17.169C14.1736 15.928 14.6139 14.3557 14.8355 12.6272C14.9058 12.0794 14.5187 11.5784 13.9709 11.5081C13.4231 11.4379 12.922 11.825 12.8518 12.3728C12.6224 14.1613 12.1473 15.6475 11.5609 16.6548C10.9489 17.7061 10.3708 18 10 18C9.7731 18 9.48164 17.9007 9.1324 17.5683C8.77801 17.2311 8.41337 16.6958 8.08538 15.9578C7.52392 14.6945 7.12736 12.9665 7.02567 11H11C11.5523 11 12 10.5523 12 10C12 9.44771 11.5523 9 11 9H7.02567C7.12736 7.03347 7.52392 5.30546 8.08538 4.04218C8.41337 3.30422 8.77801 2.76892 9.1324 2.43166ZM5.02328 9C5.12643 6.79597 5.56798 4.78191 6.25776 3.2299C6.31802 3.09431 6.38064 2.96122 6.44561 2.83099C4.09485 3.99874 2.39999 6.2887 2.06189 9H5.02328ZM2.06189 11C2.39999 13.7113 4.09485 16.0013 6.44561 17.169C6.38064 17.0388 6.31802 16.9057 6.25776 16.7701C5.56798 15.2181 5.12643 13.204 5.02328 11H2.06189Z" fill="#B2B8BF"/>
</svg>
