<svg width="20" height="20" viewBox="0 0 20 20" fill="none" xmlns="http://www.w3.org/2000/svg">
    <path fill-rule="evenodd" clip-rule="evenodd"
          d="M10.9282 4.419C11.705 2.47886 13.5561 1.96707 14.9331 2.05922C16.6727 2.17565 18.4475 4.04101 17.9028 7.48857C17.7686 8.33819 17.3488 9.3362 16.7019 10.4139C16.061 11.4816 15.2299 12.5739 14.3328 13.6038C12.7897 15.3752 11.1103 16.8957 9.97943 17.7413C8.79891 16.9091 7.12007 15.3923 5.58989 13.6093C3.78973 11.5118 2.37547 9.25152 2.09691 7.48857C1.55218 4.04101 3.32703 2.17565 5.06663 2.05922C6.44366 1.96707 8.29468 2.47886 9.07151 4.419C9.22346 4.79849 9.59108 5.04728 9.99986 5.04728C10.4086 5.04728 10.7763 4.79849 10.9282 4.419ZM9.99986 2.09917C11.4326 0.377973 13.5883 -0.0352506 15.0666 0.0636868C18.3754 0.285125 20.5382 3.62439 19.8783 7.80071C19.6878 9.00653 19.1289 10.2567 18.4167 11.4432C17.6985 12.6396 16.7901 13.8276 15.8408 14.9174C13.9536 17.0839 11.8256 18.9516 10.5468 19.7868C10.2266 19.9959 9.81516 20.0041 9.4869 19.8079C8.07214 18.9622 5.93145 17.0783 4.07218 14.9119C2.23407 12.7701 0.492403 10.1486 0.121418 7.80071C-0.538454 3.62439 1.6243 0.285125 4.93308 0.0636868C6.41143 -0.0352506 8.56711 0.377973 9.99986 2.09917Z"
          fill="#B2B8BF"/>
    <path d="M11 7C11 6.44772 10.5523 6 10 6C9.44772 6 9 6.44772 9 7V9H7C6.44772 9 6 9.44771 6 10C6 10.5523 6.44772 11 7 11H9V13C9 13.5523 9.44772 14 10 14C10.5523 14 11 13.5523 11 13V11H13C13.5523 11 14 10.5523 14 10C14 9.44772 13.5523 9 13 9H11V7Z"
          fill="#B2B8BF"/>
</svg>
