<svg width="20" height="20" viewBox="0 0 20 20" fill="none" xmlns="http://www.w3.org/2000/svg">
<path d="M10 12C10.5523 12 11 12.4477 11 13V16C11 16.5171 11.1663 16.8146 11.3321 16.9804C11.5073 17.1556 11.7474 17.25 12 17.25C12.2526 17.25 12.4927 17.1556 12.6679 16.9804C12.8337 16.8146 13 16.5171 13 16C13 15.4477 13.4477 15 14 15C14.5523 15 15 15.4477 15 16C15 16.9829 14.6663 17.8104 14.0821 18.3946C13.5073 18.9694 12.7474 19.25 12 19.25C11.2526 19.25 10.4927 18.9694 9.91789 18.3946C9.33369 17.8104 9 16.9829 9 16V13C9 12.4477 9.44772 12 10 12Z" fill="#B2B8BF"/>
<path fill-rule="evenodd" clip-rule="evenodd" d="M10.0002 0C10.5525 0 11.0002 0.447715 11.0002 1V2C11.0002 2.01165 11 2.02324 10.9997 2.03479C15.3731 2.34318 18.6113 4.66575 19.9126 7.56557C19.9738 7.70201 20.002 7.84489 20.0004 7.98522C20.0068 8.40953 19.7405 8.80737 19.3165 8.94871L16.3165 9.94871C16.1112 10.0171 15.8893 10.0171 15.684 9.94871L13.0003 9.05412L10.3261 9.94551C10.1254 10.0148 9.90107 10.0211 9.68404 9.94871L7.00027 9.05412L4.3165 9.94871C4.11123 10.0171 3.88931 10.0171 3.68404 9.94871L0.684044 8.94871C0.229035 8.79704 -0.044382 8.34998 0.00593366 7.89181C0.0150968 7.78199 0.04271 7.67183 0.0903917 7.56557C1.39141 4.6663 4.62862 2.34406 9.00084 2.03497C9.00045 2.02336 9.00024 2.0117 9.00024 2V1C9.00024 0.447715 9.44796 0 10.0002 0ZM10.0014 4L10.0003 4C6.37788 4 3.77145 5.54714 2.4576 7.43171L4.00027 7.94593L6.68404 7.05134C6.88931 6.98292 7.11123 6.98292 7.3165 7.05134L10.0003 7.94593L12.684 7.05134C12.8893 6.98292 13.1112 6.98292 13.3165 7.05134L16.0003 7.94593L17.5449 7.43105C16.2309 5.54678 13.6247 4 10.0026 4L10.0014 4Z" fill="#B2B8BF"/>
</svg>
