<svg width="20" height="20" viewBox="0 0 20 20" fill="none" xmlns="http://www.w3.org/2000/svg">
<path fill-rule="evenodd" clip-rule="evenodd" d="M14.5 10C12.0179 10 10 12.0177 10 14.4999C10 16.9823 12.0179 19 14.5 19C15.3796 19 16.2009 18.7466 16.8947 18.309L18.2929 19.7071C18.6834 20.0976 19.3166 20.0976 19.7071 19.7071C20.0976 19.3166 20.0976 18.6834 19.7071 18.2929L18.309 16.8947C18.7466 16.2009 19 15.3796 19 14.4999C19 12.0177 16.9821 10 14.5 10ZM12 14.4999C12 13.1224 13.1224 12 14.5 12C15.8776 12 17 13.1224 17 14.4999C17 15.8777 15.8776 17 14.5 17C13.1224 17 12 15.8777 12 14.4999Z" fill="#B2B8BF"/>
<path fill-rule="evenodd" clip-rule="evenodd" d="M9.7913 0.522029C10.1459 0.446382 10.5137 0.568632 10.7525 0.841521L13.7247 4.23833L18.5211 1.62213C19.0059 1.35767 19.6134 1.53633 19.8778 2.02117C20.1423 2.50602 19.9636 3.11346 19.4788 3.37792L13.9788 6.37792C13.5676 6.60221 13.0558 6.51103 12.7473 6.15853L10.4283 3.50819L6.95571 14.7941C6.8255 15.2173 6.43254 15.5044 5.98983 15.5C5.54711 15.4955 5.16003 15.2005 5.0384 14.7747L2.6905 6.55709L1.86817 7.99616C1.59416 8.47568 0.983305 8.64228 0.503788 8.36827C0.0242706 8.09426 -0.142326 7.4834 0.131684 7.00389L2.13168 3.50389C2.33127 3.15462 2.7207 2.95894 3.12006 3.00727C3.51942 3.05559 3.85094 3.33851 3.96145 3.7253L6.03544 10.9843L9.04415 1.20594C9.15079 0.859368 9.43668 0.597677 9.7913 0.522029Z" fill="#B2B8BF"/>
</svg>
