<svg width="20" height="20" viewBox="0 0 20 20" fill="none" xmlns="http://www.w3.org/2000/svg">
<path fill-rule="evenodd" clip-rule="evenodd" d="M12 2C10.3056 2 8.85488 3.05393 8.27234 4.5456L7.94372 5.38708L7.07328 5.14536C6.73287 5.05083 6.37318 5 6 5C3.79086 5 2 6.79086 2 9C2 9.73024 2.19477 10.4119 2.53452 10.9993C2.81106 11.4773 2.6477 12.0891 2.16964 12.3656C1.69158 12.6421 1.07985 12.4788 0.803305 12.0007C0.292205 11.1172 0 10.0912 0 9C0 5.68629 2.68629 3 6 3C6.26214 3 6.5207 3.01687 6.77457 3.04965C7.80413 1.22997 9.75747 0 12 0C15.3136 0 17.9999 2.68618 18 5.99978C19.213 6.91093 20 8.36307 20 10C20 10.5523 19.5523 11 19 11C18.4477 11 18 10.5523 18 10C18 8.88262 17.3896 7.90654 16.4793 7.38926L15.9115 7.06664L15.9786 6.41707C15.9927 6.28028 16 6.14116 16 6C16 3.79086 14.2091 2 12 2Z" fill="#B2B8BF"/>
<path d="M12.8163 12.0513C13.3403 12.226 13.6234 12.7923 13.4488 13.3163L11.4488 19.3163C11.2741 19.8402 10.7078 20.1234 10.1839 19.9487C9.65991 19.7741 9.37675 19.2077 9.5514 18.6838L11.5514 12.6838C11.726 12.1599 12.2924 11.8767 12.8163 12.0513Z" fill="#B2B8BF"/>
<path d="M7.73994 13.3273C7.36843 12.9187 6.73599 12.8886 6.32733 13.2601L3.32733 15.9873C3.1073 16.1874 2.9877 16.4749 3.001 16.772C3.0143 17.0691 3.15912 17.3448 3.39614 17.5244L6.39614 19.7971C6.83637 20.1306 7.46359 20.0441 7.79709 19.6039C8.1306 19.1636 8.04408 18.5364 7.60386 18.2029L5.56361 16.6573L7.67267 14.7399C8.08133 14.3684 8.11145 13.736 7.73994 13.3273Z" fill="#B2B8BF"/>
<path d="M16.6728 13.2601C16.2641 12.8886 15.6317 12.9187 15.2602 13.3273C14.8887 13.736 14.9188 14.3684 15.3274 14.7399L17.4365 16.6573L15.3963 18.2029C14.956 18.5364 14.8695 19.1636 15.203 19.6039C15.5365 20.0441 16.1637 20.1306 16.604 19.7971L19.604 17.5244C19.841 17.3448 19.9858 17.0691 19.9991 16.772C20.0124 16.4749 19.8928 16.1874 19.6728 15.9873L16.6728 13.2601Z" fill="#B2B8BF"/>
</svg>
