<svg width="20" height="20" viewBox="0 0 20 20" fill="none" xmlns="http://www.w3.org/2000/svg">
<path fill-rule="evenodd" clip-rule="evenodd" d="M5.10002 4H4C2.89543 4 2 4.89543 2 6V14.5C2 15.0523 2.44772 15.5 3 15.5C3.55228 15.5 4 15.0523 4 14.5V6H16V19C16 19.5523 16.4477 20 17 20C17.5523 20 18 19.5523 18 19V6C18 4.89543 17.1046 4 16 4H14.9C14.4367 1.71776 12.419 0 10 0C7.58104 0 5.56329 1.71776 5.10002 4ZM7.17071 4C7.58254 2.83481 8.69378 2 10 2C11.3062 2 12.4175 2.83481 12.8293 4H7.17071Z" fill="#B2B8BF"/>
<path fill-rule="evenodd" clip-rule="evenodd" d="M10.3517 10.0639C10.7417 10.2104 11 10.5834 11 11V15.5858L13.7071 18.2929C13.9931 18.5789 14.0787 19.009 13.9239 19.3827C13.7691 19.7564 13.4045 20 13 20H3.00002C2.60764 20 2.25152 19.7705 2.08938 19.4132C1.92725 19.0559 1.98906 18.6368 2.24744 18.3415L9.24744 10.3415C9.52178 10.028 9.96175 9.91736 10.3517 10.0639ZM5.20378 18H10.5858L9.29291 16.7071C9.10537 16.5196 9.00002 16.2652 9.00002 16V13.6614L5.20378 18Z" fill="#B2B8BF"/>
</svg>
