<svg width="20" height="20" viewBox="0 0 20 20" fill="none" xmlns="http://www.w3.org/2000/svg">
<path d="M2 6C2 4.89543 2.89543 4 4 4H9.5C10.0523 4 10.5 3.55228 10.5 3C10.5 2.44772 10.0523 2 9.5 2H4C1.79086 2 0 3.79086 0 6V16C0 18.2091 1.79086 20 4 20H14C16.2091 20 18 18.2091 18 16V14C18 13.4477 17.5523 13 17 13C16.4477 13 16 13.4477 16 14V16C16 17.1046 15.1046 18 14 18H4C2.89543 18 2 17.1046 2 16V6Z" fill="#B2B8BF"/>
<path d="M5 12C5.55228 12 6 11.5523 6 11C6 10.4477 5.55228 10 5 10C4.44772 10 4 10.4477 4 11C4 11.5523 4.44772 12 5 12Z" fill="#B2B8BF"/>
<path d="M10 11C10 11.5523 9.55229 12 9 12C8.44771 12 8 11.5523 8 11C8 10.4477 8.44771 10 9 10C9.55229 10 10 10.4477 10 11Z" fill="#B2B8BF"/>
<path d="M5 16C5.55228 16 6 15.5523 6 15C6 14.4477 5.55228 14 5 14C4.44772 14 4 14.4477 4 15C4 15.5523 4.44772 16 5 16Z" fill="#B2B8BF"/>
<path d="M10 15C10 15.5523 9.55229 16 9 16C8.44771 16 8 15.5523 8 15C8 14.4477 8.44771 14 9 14C9.55229 14 10 14.4477 10 15Z" fill="#B2B8BF"/>
<path d="M13 16C13.5523 16 14 15.5523 14 15C14 14.4477 13.5523 14 13 14C12.4477 14 12 14.4477 12 15C12 15.5523 12.4477 16 13 16Z" fill="#B2B8BF"/>
<path fill-rule="evenodd" clip-rule="evenodd" d="M13 2.5C13 1.11929 14.1193 0 15.5 0C16.8807 0 18 1.11929 18 2.5C18 3.88071 16.8807 5 15.5 5C14.1193 5 13 3.88071 13 2.5ZM15.5 2C15.2239 2 15 2.22386 15 2.5C15 2.77614 15.2239 3 15.5 3C15.7761 3 16 2.77614 16 2.5C16 2.22386 15.7761 2 15.5 2Z" fill="#B2B8BF"/>
<path fill-rule="evenodd" clip-rule="evenodd" d="M16.6191 5.82619C17.1356 5.39474 17.8905 5.39191 18.4105 5.81407L18.4115 5.8149C19.4105 6.62823 20 7.82499 20 9.1038C20 9.36103 19.9752 9.62084 19.9267 9.87671C19.7969 10.5653 19.1875 11 18.5545 11H12.4455C11.811 11 11.2033 10.564 11.0734 9.87687C11.0254 9.62248 11 9.36214 11 9.1038C11 7.84612 11.5726 6.6634 12.5442 5.85136L12.5457 5.85014C13.0619 5.42038 13.815 5.41678 14.3354 5.83852L14.3372 5.84004C14.5981 6.05253 15.0069 6.18274 15.5 6.18274C15.9777 6.18274 16.3407 6.05872 16.6191 5.82619ZM17.463 7.67248C16.8537 8.03655 16.1745 8.18274 15.5 8.18274C14.857 8.18274 14.1468 8.05036 13.5189 7.69429C13.2041 8.07319 13.0255 8.53052 13.0025 9H17.9975C17.9741 8.52042 17.7895 8.05541 17.463 7.67248Z" fill="#B2B8BF"/>
<path d="M5 6C4.44772 6 4 6.44772 4 7C4 7.55228 4.44772 8 5 8H8C8.55229 8 9 7.55228 9 7C9 6.44772 8.55229 6 8 6H5Z" fill="#B2B8BF"/>
</svg>
