<svg width="32" height="32" viewBox="0 0 32 32" fill="none" xmlns="http://www.w3.org/2000/svg">
<path fill-rule="evenodd" clip-rule="evenodd" d="M7 7.81818C7 7.35681 7.36762 7 7.8 7H14C14.5523 7 15 6.55228 15 6C15 5.44772 14.5523 5 14 5H7.8C6.24415 5 5 6.27124 5 7.81818V24.1818C5 25.7288 6.24415 27 7.8 27H22.2C23.7558 27 25 25.7288 25 24.1818V20.5C25 19.9477 24.5523 19.5 24 19.5C23.4477 19.5 23 19.9477 23 20.5V24.1818C23 24.6432 22.6324 25 22.2 25H7.8C7.36762 25 7 24.6432 7 24.1818V7.81818ZM11 10C10.4477 10 10 10.4477 10 11C10 11.5523 10.4477 12 11 12H14C14.5523 12 15 11.5523 15 11C15 10.4477 14.5523 10 14 10H11ZM10 16C10 15.4477 10.4477 15 11 15H14C14.5523 15 15 15.4477 15 16C15 16.5523 14.5523 17 14 17H11C10.4477 17 10 16.5523 10 16ZM11 20C10.4477 20 10 20.4477 10 21C10 21.5523 10.4477 22 11 22H16C16.5523 22 17 21.5523 17 21C17 20.4477 16.5523 20 16 20H11Z" fill="#B2B8BF"/>
<path fill-rule="evenodd" clip-rule="evenodd" d="M23 3C21.3431 3 20 4.34315 20 6C20 7.65685 21.3431 9 23 9C24.6569 9 26 7.65685 26 6C26 4.34315 24.6569 3 23 3ZM22 6C22 5.44772 22.4477 5 23 5C23.5523 5 24 5.44772 24 6C24 6.55228 23.5523 7 23 7C22.4477 7 22 6.55228 22 6Z" fill="#B2B8BF"/>
<path fill-rule="evenodd" clip-rule="evenodd" d="M26.8877 10.3528C26.3035 9.8785 25.4535 9.88186 24.8735 10.3663C24.3508 10.803 23.6703 11.0499 22.9568 11.0499C22.257 11.0499 21.5864 10.8115 21.0683 10.3895L21.0664 10.388C20.4817 9.91408 19.6337 9.91821 19.0538 10.401L19.0523 10.4022C17.7579 11.4841 17 13.0549 17 14.7197C17 15.061 17.0336 15.406 17.0973 15.7445C17.2417 16.5082 17.9198 17 18.6364 17H27.3636C28.0788 17 28.7588 16.5093 28.9028 15.7439C28.9672 15.4041 29 15.0597 29 14.7197C29 13.0268 28.22 11.4374 26.8887 10.3537L26.8877 10.3528ZM22.9568 13.0499C24.0064 13.0499 25.0287 12.7251 25.8711 12.1216C26.5997 12.823 27 13.7553 27 14.7197C27 14.8119 26.9961 14.9055 26.9883 15H19.0118C19.0039 14.9053 19 14.8116 19 14.7197C19 13.7738 19.3879 12.8542 20.0927 12.157C20.9256 12.738 21.9296 13.0499 22.9568 13.0499Z" fill="#B2B8BF"/>
</svg>
