<svg width="20" height="20" viewBox="0 0 20 20" fill="none" xmlns="http://www.w3.org/2000/svg">
<path d="M9.44528 0.16795C9.78118 -0.0559832 10.2188 -0.0559832 10.5547 0.16795L19.5547 6.16795C20.0142 6.4743 20.1384 7.09517 19.832 7.5547C19.5257 8.01423 18.9048 8.1384 18.4453 7.83205L9.99998 2.20185L1.55468 7.83205C1.09516 8.1384 0.474286 8.01423 0.167934 7.5547C-0.138419 7.09517 -0.0142446 6.4743 0.445284 6.16795L9.44528 0.16795Z" fill="#B2B8BF"/>
<path d="M3 10C3.55228 10 4 10.4477 4 11V17.4516C4 17.6429 4.21722 18 4.75 18H15.25C15.7828 18 16 17.6429 16 17.4516V11C16 10.4477 16.4477 10 17 10C17.5523 10 18 10.4477 18 11V17.4516C18 18.9706 16.6502 20 15.25 20H4.75C3.34978 20 2 18.9706 2 17.4516V11C2 10.4477 2.44772 10 3 10Z" fill="#B2B8BF"/>
<path fill-rule="evenodd" clip-rule="evenodd" d="M10.828 6.93921C10.6419 6.66453 10.3318 6.5 10 6.5C9.66824 6.5 9.35808 6.66453 9.17204 6.93921L8.74415 7.57096C8.56425 7.83699 8.02613 8.64777 7.52923 9.55637C7.28119 10.0099 7.03347 10.5058 6.84525 10.9819C6.66688 11.433 6.5 11.9676 6.5 12.4654C6.5 14.4024 8.05631 16 10 16C11.9437 16 13.5 14.4024 13.5 12.4654C13.5 11.9676 13.3331 11.433 13.1547 10.9819C12.9665 10.5058 12.7188 10.0099 12.4708 9.55637C11.9739 8.64777 11.4353 7.83638 11.2554 7.57035L10.828 6.93921ZM9.28396 10.516C9.52938 10.0673 9.78808 9.64109 10 9.30577C10.2119 9.64109 10.4706 10.0673 10.716 10.516C10.9429 10.9308 11.1485 11.347 11.2948 11.7172C11.451 12.1123 11.5 12.3581 11.5 12.4654C11.5 13.3238 10.8134 14 10 14C9.18664 14 8.5 13.3238 8.5 12.4654C8.5 12.3581 8.54896 12.1123 8.70516 11.7172C8.85152 11.347 9.05709 10.9308 9.28396 10.516Z" fill="#B2B8BF"/>
</svg>
