<svg width="20" height="20" viewBox="0 0 20 20" fill="none" xmlns="http://www.w3.org/2000/svg">
<path d="M5.94977 15.9628C6.34029 15.5723 6.97346 15.5723 7.36398 15.9628C7.75451 16.3533 7.75451 16.9865 7.36398 17.377L5.24266 19.4983C4.99428 19.7467 4.63379 19.8466 4.29302 19.7614C3.95224 19.6762 3.68116 19.4184 3.57888 19.0824L2.90921 16.8821L0.70886 16.2124C0.372816 16.1101 0.115073 15.839 0.0298786 15.4982C-0.055315 15.1575 0.0445341 14.797 0.292914 14.5486L1.54984 13.2917C1.94037 12.9011 2.57353 12.9011 2.96406 13.2917C3.35458 13.6822 3.35458 14.3154 2.96406 14.7059L2.88564 14.7843L4.00176 15.124C4.32065 15.221 4.57022 15.4706 4.66727 15.7895L5.00696 16.9056L5.94977 15.9628Z" fill="#B2B8BF"/>
<path d="M14.0425 15.964C13.652 15.5735 13.0188 15.5735 12.6283 15.964C12.2378 16.3546 12.2378 16.9877 12.6283 17.3782L14.7496 19.4996C14.998 19.748 15.3585 19.8478 15.6993 19.7626C16.04 19.6774 16.3111 19.4197 16.4134 19.0836L17.0831 16.8833L19.2834 16.2136C19.6195 16.1113 19.8772 15.8402 19.9624 15.4995C20.0476 15.1587 19.9477 14.7982 19.6994 14.5498L18.4424 13.2929C18.0519 12.9024 17.4187 12.9024 17.0282 13.2929C16.6377 13.6834 16.6377 14.3166 17.0282 14.7071L17.1066 14.7855L15.9905 15.1252C15.6716 15.2223 15.4221 15.4718 15.325 15.7907L14.9853 16.9068L14.0425 15.964Z" fill="#B2B8BF"/>
<path fill-rule="evenodd" clip-rule="evenodd" d="M9.35138 0.238885C9.72514 -0.0796284 10.2749 -0.0796284 10.6486 0.238885L12.5453 1.85519L15.0293 2.05342C15.5188 2.09248 15.9075 2.4812 15.9466 2.9707L16.1448 5.45474L17.7611 7.35138C18.0796 7.72514 18.0796 8.27486 17.7611 8.64862L16.1448 10.5453L15.9466 13.0293C15.9075 13.5188 15.5188 13.9075 15.0293 13.9466L12.5453 14.1448L10.6486 15.7611C10.2749 16.0796 9.72514 16.0796 9.35138 15.7611L7.45474 14.1448L4.9707 13.9466C4.4812 13.9075 4.09248 13.5188 4.05342 13.0293L3.85519 10.5453L2.23889 8.64862C1.92037 8.27486 1.92037 7.72514 2.23889 7.35138L3.85519 5.45474L4.05342 2.9707C4.09248 2.4812 4.4812 2.09248 4.9707 2.05342L7.45474 1.85519L9.35138 0.238885ZM10 2.31386L8.50559 3.58739C8.34543 3.72388 8.14629 3.80637 7.93652 3.82311L5.97929 3.97929L5.82311 5.93652C5.80637 6.14629 5.72388 6.34543 5.58739 6.50559L4.31386 8L5.58739 9.49441C5.72388 9.65457 5.80637 9.85371 5.82311 10.0635L5.97929 12.0207L7.93652 12.1769C8.14629 12.1936 8.34543 12.2761 8.50559 12.4126L10 13.6861L11.4944 12.4126C11.6546 12.2761 11.8537 12.1936 12.0635 12.1769L14.0207 12.0207L14.1769 10.0635C14.1936 9.85371 14.2761 9.65457 14.4126 9.49441L15.6861 8L14.4126 6.50559C14.2761 6.34543 14.1936 6.14629 14.1769 5.93652L14.0207 3.97929L12.0635 3.82311C11.8537 3.80637 11.6546 3.72388 11.4944 3.58739L10 2.31386Z" fill="#B2B8BF"/>
</svg>
