<svg width="20" height="20" viewBox="0 0 20 20" fill="none" xmlns="http://www.w3.org/2000/svg">
<path fill-rule="evenodd" clip-rule="evenodd" d="M10 8C8.89543 8 8 8.89543 8 10C8 11.1046 8.89543 12 10 12C10.5129 12 10.9786 11.8083 11.3331 11.491C11.7446 11.1226 12.3768 11.1577 12.7451 11.5692C13.1135 11.9807 13.0784 12.6129 12.6669 12.9812C11.9599 13.614 11.0238 14 10 14C7.79086 14 6 12.2091 6 10C6 7.79086 7.79086 6 10 6C11.0238 6 11.9599 6.38597 12.6669 7.01876C13.0784 7.38708 13.1135 8.01928 12.7451 8.43081C12.3768 8.84233 11.7446 8.87735 11.3331 8.50903C10.9786 8.19174 10.5129 8 10 8Z" fill="#B2B8BF"/>
<path fill-rule="evenodd" clip-rule="evenodd" d="M1.00009 8.58579C0.219046 9.36684 0.219043 10.6332 1.00009 11.4142L8.58588 19C9.36693 19.7811 10.6333 19.7811 11.4143 19L19.0001 11.4142C19.7811 10.6332 19.7811 9.36684 19.0001 8.58579L11.4143 1C10.6333 0.218955 9.36693 0.218951 8.58588 1L1.00009 8.58579ZM2.41431 10L10.0001 2.41421L17.5859 10L10.0001 17.5858L2.41431 10Z" fill="#B2B8BF"/>
</svg>
