<svg width="20" height="20" viewBox="0 0 20 20" fill="none" xmlns="http://www.w3.org/2000/svg">
<path fill-rule="evenodd" clip-rule="evenodd" d="M13 11C12.4477 11 12 11.4477 12 12C12 12.5523 12.4477 13 13 13C13.5523 13 14 12.5523 14 12C14 11.4477 13.5523 11 13 11ZM10 12C10 10.3431 11.3431 9 13 9C14.6569 9 16 10.3431 16 12C16 13.6569 14.6569 15 13 15C11.3431 15 10 13.6569 10 12Z" fill="#B2B8BF"/>
<path d="M12.6061 2.11383C13.084 1.909 13.6092 2.10443 13.8592 2.51756C14.1451 2.99006 14.76 3.1413 15.2325 2.85535C15.705 2.56941 15.8562 1.95458 15.5703 1.48208C14.8382 0.272372 13.2724 -0.347647 11.8182 0.275543L1.81824 4.56126C0.715191 5.03399 0 6.11861 0 7.31869C0 7.34923 0.00136875 7.37945 0.00404823 7.40928C0.00136875 7.43912 0 7.46934 0 7.49988V15.9999C0 17.6567 1.34315 18.9999 3 18.9999H17C18.6569 18.9999 20 17.6567 20 15.9999V7.99988C20 6.34302 18.6569 4.99988 17 4.99988H11.5C10.9477 4.99988 10.5 5.44759 10.5 5.99988C10.5 6.55216 10.9477 6.99988 11.5 6.99988H17C17.5523 6.99988 18 7.44759 18 7.99988V15.9999C18 16.5522 17.5523 16.9999 17 16.9999H3C2.44772 16.9999 2 16.5522 2 15.9999V7.49988C2 7.46934 1.99863 7.43912 1.99595 7.40928C1.99863 7.37945 2 7.34923 2 7.31869C2 6.91866 2.2384 6.55713 2.60608 6.39955L12.6061 2.11383Z" fill="#B2B8BF"/>
</svg>
