<svg width="20" height="20" viewBox="0 0 20 20" fill="none" xmlns="http://www.w3.org/2000/svg">
<path fill-rule="evenodd" clip-rule="evenodd" d="M11.0229 2.62102C10.6324 2.23049 9.99922 2.23049 9.6087 2.62102L3.09117 9.13855C2.85622 9.37349 2.76181 9.69566 2.81075 10.004L2.82187 10.0741L2.82298 10.1451C2.82694 10.3971 2.92424 10.6448 3.11575 10.8363L9.63328 17.3538C10.0238 17.7443 10.657 17.7443 11.0475 17.3538L12.892 15.5092C13.2826 15.1187 13.2826 14.4856 12.8921 14.095L9.47924 10.6822C9.08871 10.2917 9.08871 9.65853 9.47924 9.26801L12.8675 5.87978C13.258 5.48926 13.258 4.8561 12.8675 4.46557L11.0229 2.62102ZM8.19448 1.2068C9.36606 0.0352303 11.2656 0.0352333 12.4371 1.20681L14.2817 3.05136C15.4533 4.22293 15.4532 6.12243 14.2817 7.294L11.6006 9.97511L14.3063 12.6808C15.4778 13.8524 15.4778 15.7519 14.3063 16.9235L12.4617 18.768C11.2901 19.9396 9.39064 19.9396 8.21907 18.768L1.70154 12.2505C1.14613 11.6951 0.853744 10.974 0.825179 10.2473C0.70504 9.35427 0.988096 8.41319 1.67695 7.72434L8.19448 1.2068Z" fill="#B2B8BF"/>
<path d="M17.5 11.5C18.3284 11.5 19 10.8284 19 10C19 9.17157 18.3284 8.5 17.5 8.5C16.6716 8.5 16 9.17157 16 10C16 10.8284 16.6716 11.5 17.5 11.5Z" fill="#B2B8BF"/>
</svg>
