<svg width="32" height="32" viewBox="0 0 32 32" fill="none" xmlns="http://www.w3.org/2000/svg">
<path d="M4 9L12 5L20 9" stroke="#B2B8BF" stroke-width="2" stroke-linecap="round" stroke-linejoin="round"/>
<path d="M3.99948 23H11.9995" stroke="#B2B8BF" stroke-width="2" stroke-linecap="round" stroke-linejoin="round"/>
<path d="M12 19V12" stroke="#B2B8BF" stroke-width="2" stroke-linecap="round" stroke-linejoin="round"/>
<path d="M7 19V12" stroke="#B2B8BF" stroke-width="2" stroke-linecap="round" stroke-linejoin="round"/>
<path d="M16.9991 14V12" stroke="#B2B8BF" stroke-width="2" stroke-linecap="round" stroke-linejoin="round"/>
<path fill-rule="evenodd" clip-rule="evenodd" d="M25.5718 29.475C26.3572 29.475 26.9939 28.8383 26.9939 28.0529C26.9939 27.2675 26.3572 26.6309 25.5718 26.6309C24.7864 26.6309 24.1497 27.2675 24.1497 28.0529C24.1497 28.8383 24.7864 29.475 25.5718 29.475Z" fill="#B2B8BF"/>
<path fill-rule="evenodd" clip-rule="evenodd" d="M19.7534 23.2016C20.5388 23.2016 21.1754 22.5649 21.1754 21.7795C21.1754 20.9941 20.5388 20.3574 19.7534 20.3574C18.968 20.3574 18.3313 20.9941 18.3313 21.7795C18.3313 22.5649 18.968 23.2016 19.7534 23.2016Z" fill="#B2B8BF"/>
<path d="M26.3704 21.4482L19.594 28.2247" stroke="#B2B8BF" stroke-width="2" stroke-linecap="round" stroke-linejoin="round"/>
</svg>
