<svg width="20" height="20" viewBox="0 0 20 20" fill="none" xmlns="http://www.w3.org/2000/svg">
<path fill-rule="evenodd" clip-rule="evenodd" d="M19.7532 13.3422C20.1165 13.7582 20.0738 14.3899 19.6578 14.7532L13.9329 19.7532C13.5594 20.0795 13.0031 20.0826 12.6259 19.7606L10.3507 17.8183C9.9307 17.4598 9.88088 16.8286 10.2395 16.4085C10.598 15.9885 11.2292 15.9387 11.6493 16.2972L13.2677 17.6788L18.3422 13.2468C18.7582 12.8835 19.3899 12.9262 19.7532 13.3422Z" fill="#B2B8BF"/>
<path fill-rule="evenodd" clip-rule="evenodd" d="M16.5 0C10.7422 0 7.16678 1.98125 5.00793 4.90615C2.96859 7.66913 2.3011 11.1357 2.02991 14.1135L0.292879 15.8506C-0.0976373 16.2411 -0.0976249 16.8743 0.292907 17.2648C0.683439 17.6553 1.3166 17.6553 1.70712 17.2648L3.4766 15.4952C9.41036 15.3757 12.7724 13.0391 13.8137 11.5813C13.9908 11.3334 14.0452 11.0182 13.9615 10.7253L13.2765 8.32781L15.6414 7.98997C16.0164 7.9364 16.3289 7.67558 16.4487 7.31625C16.7268 6.48205 16.9868 5.16181 17.1753 3.96848C17.3628 2.78094 17.5 1.58658 17.5 1C17.5 0.447715 17.0523 0 16.5 0ZM11.8908 10.7578C10.9751 11.6686 8.51377 13.2414 4.10699 13.4716C4.41239 10.856 5.07106 8.18846 6.61708 6.09385C8.21178 3.93329 10.8499 2.25313 15.4215 2.02614C15.3698 2.49246 15.2943 3.05775 15.1997 3.65656C15.0594 4.54521 14.889 5.43278 14.7186 6.10149L11.8586 6.51007C11.5726 6.55093 11.3182 6.71351 11.161 6.95593C11.0038 7.19836 10.9591 7.49693 11.0385 7.77474L11.8908 10.7578Z" fill="#B2B8BF"/>
</svg>
