<svg width="20" height="20" viewBox="0 0 20 20" fill="none" xmlns="http://www.w3.org/2000/svg">
<path fill-rule="evenodd" clip-rule="evenodd" d="M9.71445 0.0378955C9.89245 -0.0125534 10.081 -0.0126332 10.259 0.0376651L18.2719 2.30137C18.7026 2.42306 19.0001 2.81613 19.0001 3.26371V8.43367C19.0001 10.8667 17.9479 13.2078 16.3895 15.1763C14.8276 17.1492 12.7091 18.8124 10.4465 19.9011C10.3112 19.9662 10.163 20 10.0129 20H9.9872C9.83708 20 9.68888 19.9662 9.5536 19.9011C7.31872 18.8257 5.22478 17.1901 3.66894 15.2495C2.11654 13.3133 1.05314 11.012 1.00198 8.6138L1.00175 8.60316L1 8.43367L1.00006 3.26371C1.00006 2.81644 1.29706 2.42357 1.72738 2.3016L9.71445 0.0378955ZM9.98758 2.03926L3.00006 4.01968V8.42833L3.00164 8.57627C3.04222 10.4102 3.86567 12.2976 5.22935 13.9985C6.49377 15.5756 8.18264 16.9397 10.0001 17.8879C11.8421 16.9269 13.5518 15.5387 14.8214 13.9349C16.1906 12.2054 17.0001 10.2892 17.0001 8.43367V4.02034L9.98758 2.03926Z" fill="#B2B8BF"/>
<path fill-rule="evenodd" clip-rule="evenodd" d="M8 6C8 5.44772 8.44772 5 9 5H11.1564C12.2068 5 12.9922 5.39405 13.474 6.06082C13.9137 6.66923 14 7.36821 14 7.82749V7.94985C14 8.45783 13.8628 9.17403 13.4501 9.79542C13.0046 10.4661 12.2463 11 11.1564 11H10V11.5H10.5C11.0523 11.5 11.5 11.9477 11.5 12.5C11.5 13.0523 11.0523 13.5 10.5 13.5H10V14C10 14.5523 9.55228 15 9 15C8.44772 15 8 14.5523 8 14V13.5H7.5C6.94772 13.5 6.5 13.0523 6.5 12.5C6.5 11.9477 6.94772 11.5 7.5 11.5H8V11H7.5C6.94772 11 6.5 10.5523 6.5 10C6.5 9.44772 6.94772 9 7.5 9H8V6ZM10 9V7H11.1564C11.4274 7 11.5877 7.0481 11.6775 7.09031C11.7629 7.13048 11.8145 7.17902 11.853 7.23225C11.9449 7.35944 12 7.57421 12 7.82749V7.94985C12 8.15443 11.9339 8.4633 11.7841 8.68885C11.667 8.86507 11.5035 9 11.1564 9H10Z" fill="#B2B8BF"/>
</svg>
