<svg width="20" height="20" viewBox="0 0 20 20" fill="none" xmlns="http://www.w3.org/2000/svg">
<path d="M3 3C3 2.44772 3.44772 2 4 2H7C7.55228 2 8 1.55228 8 1C8 0.447715 7.55228 0 7 0H4C2.34315 0 1 1.34315 1 3V17C1 18.6569 2.34315 20 4 20H14C15.6569 20 17 18.6569 17 17V15C17 14.4477 16.5523 14 16 14C15.4477 14 15 14.4477 15 15V17C15 17.5523 14.5523 18 14 18H4C3.44772 18 3 17.5523 3 17V3Z" fill="#B2B8BF"/>
<path d="M5 10C5 9.44771 5.44772 9 6 9H7C7.55228 9 8 9.44771 8 10C8 10.5523 7.55228 11 7 11H6C5.44772 11 5 10.5523 5 10Z" fill="#B2B8BF"/>
<path d="M6 13C5.44772 13 5 13.4477 5 14C5 14.5523 5.44772 15 6 15H9C9.55228 15 10 14.5523 10 14C10 13.4477 9.55228 13 9 13H6Z" fill="#B2B8BF"/>
<path d="M14.6489 0.0636709C14.8753 -0.0212236 15.1248 -0.0212236 15.3512 0.0636709L19.3512 1.56367C19.8683 1.75759 20.1303 2.334 19.9364 2.85112C19.7424 3.36824 19.166 3.63025 18.6489 3.43633L15 2.068L11.3512 3.43633C10.834 3.63025 10.2576 3.36824 10.0637 2.85112C9.86978 2.334 10.1318 1.75759 10.6489 1.56367L14.6489 0.0636709Z" fill="#B2B8BF"/>
<path d="M12 4C12.5523 4 13 4.44772 13 5V8C13 8.55228 12.5523 9 12 9C11.4477 9 11 8.55228 11 8V5C11 4.44772 11.4477 4 12 4Z" fill="#B2B8BF"/>
<path d="M16 5C16 4.44772 15.5523 4 15 4C14.4477 4 14 4.44772 14 5V8C14 8.55228 14.4477 9 15 9C15.5523 9 16 8.55228 16 8V5Z" fill="#B2B8BF"/>
<path d="M18 4C18.5523 4 19 4.44772 19 5V8C19 8.55228 18.5523 9 18 9C17.4477 9 17 8.55228 17 8V5C17 4.44772 17.4477 4 18 4Z" fill="#B2B8BF"/>
<path d="M11 10C10.4477 10 10 10.4477 10 11C10 11.5523 10.4477 12 11 12H19C19.5523 12 20 11.5523 20 11C20 10.4477 19.5523 10 19 10H11Z" fill="#B2B8BF"/>
</svg>
