<svg width="32" height="32" viewBox="0 0 32 32" fill="none" xmlns="http://www.w3.org/2000/svg">
<path fill-rule="evenodd" clip-rule="evenodd" d="M17.0209 6.12126C16.6304 5.73074 15.9972 5.73074 15.6067 6.12126L7.12143 14.6065C6.88281 14.8452 6.78909 15.1739 6.84344 15.4866L6.85816 15.5713L6.8582 15.6573C6.85834 15.9146 6.95577 16.1686 7.1511 16.3639L15.6364 24.8492C16.0269 25.2397 16.6601 25.2397 17.0506 24.8492L19.879 22.0208C20.2695 21.6302 20.2695 20.9971 19.879 20.6065L14.7429 15.4704L19.8494 10.3639C20.2399 9.97338 20.2399 9.34021 19.8494 8.94969L17.0209 6.12126ZM14.1925 4.70705C15.3641 3.53548 17.2636 3.53548 18.4351 4.70705L21.2636 7.53548C22.4351 8.70705 22.4351 10.6065 21.2636 11.7781L17.5713 15.4704L21.2932 19.1923C22.4648 20.3639 22.4648 22.2634 21.2932 23.435L18.4648 26.2634C17.2932 27.435 15.3937 27.435 14.2222 26.2634L5.73688 17.7781C5.17357 17.2148 4.88092 16.4813 4.85948 15.7442C4.72927 14.8425 5.0109 13.8886 5.70722 13.1923L14.1925 4.70705Z" fill="#B2B8BF"/>
<path d="M26 17C27.1046 17 28 16.1046 28 15C28 13.8954 27.1046 13 26 13C24.8954 13 24 13.8954 24 15C24 16.1046 24.8954 17 26 17Z" fill="#B2B8BF"/>
</svg>
