<svg width="20" height="20" viewBox="0 0 20 20" fill="none" xmlns="http://www.w3.org/2000/svg">
<path fill-rule="evenodd" clip-rule="evenodd" d="M10.333 12.351C10.1205 12.4145 9.80683 12.4999 9.49989 12.4999C9.20028 12.4999 8.88832 12.4185 8.6757 12.358C8.54418 12.3205 8.3778 12.2684 8.22845 12.2216C8.13876 12.1935 8.05521 12.1673 7.98905 12.1474C7.82299 12.0974 7.69548 12.0638 7.59949 12.0448C7.26491 12.3351 7.07969 12.673 7.02079 13H11.9791C11.9192 12.6657 11.7277 12.321 11.3792 12.0267C11.2884 12.0468 11.1681 12.0809 11.0107 12.1313C10.9489 12.1511 10.8738 12.1761 10.793 12.2029C10.6426 12.2528 10.4728 12.3093 10.333 12.351ZM11.5235 12.0055C11.523 12.0061 11.5149 12.0068 11.5006 12.0061C11.5168 12.0047 11.524 12.005 11.5235 12.0055ZM7.4791 12.0271C7.46419 12.0282 7.4557 12.0276 7.45518 12.027C7.45466 12.0265 7.46211 12.0259 7.4791 12.0271ZM11.1925 10.0291C11.4203 9.9971 11.9159 9.95094 12.3516 10.2544L12.3526 10.2551C13.3519 10.9531 13.9999 12.0258 13.9999 13.2312C13.9999 13.2378 13.9999 13.246 14 13.2555C14.001 13.3776 14.0039 13.7249 13.8913 14.0484C13.8232 14.2442 13.6929 14.4973 13.4396 14.6999C13.1737 14.9125 12.8594 15 12.5544 15H6.44539C6.14025 15 5.82604 14.9125 5.56019 14.6998C5.30697 14.4972 5.17668 14.2442 5.10854 14.0484C4.99593 13.7249 4.99876 13.3776 4.99975 13.2555C4.99983 13.246 4.99989 13.2378 4.99989 13.2312C4.99989 12.0458 5.62928 10.9845 6.60273 10.2865L6.60422 10.2855L6.60422 10.2855C7.0369 9.97643 7.53709 10.0179 7.76199 10.0461C8.0421 10.0811 8.33264 10.1622 8.56552 10.2323C8.68766 10.269 8.78808 10.3007 8.88045 10.3299C8.99833 10.3671 9.1031 10.4002 9.22318 10.4344C9.39986 10.4846 9.47943 10.4967 9.49672 10.4993C9.4978 10.4994 9.49864 10.4996 9.49924 10.4997C9.50001 10.4995 9.50144 10.4993 9.50358 10.4989C9.52275 10.4957 9.59869 10.4831 9.76051 10.4347C9.87924 10.3992 9.98643 10.3634 10.1084 10.3227C10.1951 10.2938 10.2893 10.2623 10.4004 10.2267C10.6274 10.154 10.9141 10.0682 11.1925 10.0291ZM7 6.5C7 5.11929 8.11929 4 9.5 4C10.8807 4 12 5.11929 12 6.5C12 7.88071 10.8807 9 9.5 9C8.11929 9 7 7.88071 7 6.5ZM9.5 6C9.22386 6 9 6.22386 9 6.5C9 6.77614 9.22386 7 9.5 7C9.77614 7 10 6.77614 10 6.5C10 6.22386 9.77614 6 9.5 6Z" fill="#B2B8BF"/>
<path fill-rule="evenodd" clip-rule="evenodd" d="M9.5 0C4.25329 0 0 4.25329 0 9.5C0 14.7467 4.25329 19 9.5 19C11.7631 19 13.8415 18.2086 15.4733 16.8875L18.2929 19.7071C18.6834 20.0976 19.3166 20.0976 19.7071 19.7071C20.0976 19.3166 20.0976 18.6834 19.7071 18.2929L16.8875 15.4733C18.2086 13.8415 19 11.7631 19 9.5C19 4.25329 14.7467 0 9.5 0ZM2 9.5C2 5.35786 5.35786 2 9.5 2C13.6421 2 17 5.35786 17 9.5C17 13.6421 13.6421 17 9.5 17C5.35786 17 2 13.6421 2 9.5Z" fill="#B2B8BF"/>
</svg>
