<svg width="32" height="32" viewBox="0 0 32 32" fill="none" xmlns="http://www.w3.org/2000/svg">
<path d="M12 6C11.4477 6 11 6.44772 11 7C11 7.55228 10.5523 8 10 8C9.44772 8 9 7.55228 9 7C9 5.34315 10.3431 4 12 4H20C21.6569 4 23 5.34315 23 7C23 7.55228 22.5523 8 22 8C21.4477 8 21 7.55228 21 7C21 6.44772 20.5523 6 20 6H12Z" fill="#B2B8BF"/>
<path d="M10 17C10.5523 17 11 17.4477 11 18V25.9021C11 26.554 11.4922 27 12 27H20C20.5078 27 21 26.554 21 25.9021V18C21 17.4477 21.4477 17 22 17C22.5523 17 23 17.4477 23 18V25.9021C23 27.5674 21.7014 29 20 29H12C10.2986 29 9 27.5674 9 25.9021V18C9 17.4477 9.44772 17 10 17Z" fill="#B2B8BF"/>
<path fill-rule="evenodd" clip-rule="evenodd" d="M16 18C14.3431 18 13 19.3431 13 21C13 22.6569 14.3431 24 16 24C17.6569 24 19 22.6569 19 21C19 19.3431 17.6569 18 16 18ZM15 21C15 20.4477 15.4477 20 16 20C16.5523 20 17 20.4477 17 21C17 21.5523 16.5523 22 16 22C15.4477 22 15 21.5523 15 21Z" fill="#B2B8BF"/>
<path d="M10.9282 11.3714C11.1334 10.8586 10.8839 10.2767 10.3712 10.0715L5.37116 8.07154C4.85838 7.86643 4.27641 8.11585 4.0713 8.62864C3.86619 9.14143 4.11561 9.7234 4.62839 9.92851L9.62839 11.9285C10.1412 12.1336 10.7231 11.8842 10.9282 11.3714Z" fill="#B2B8BF"/>
<path fill-rule="evenodd" clip-rule="evenodd" d="M12.9998 12C12.9998 10.3432 14.3429 9.00003 15.9998 9.00003C17.6566 9.00003 18.9998 10.3432 18.9998 12C18.9998 13.6569 17.6566 15 15.9998 15C14.3429 15 12.9998 13.6569 12.9998 12ZM15.9998 11C15.4475 11 14.9998 11.4477 14.9998 12C14.9998 12.5523 15.4475 13 15.9998 13C16.5521 13 16.9998 12.5523 16.9998 12C16.9998 11.4477 16.5521 11 15.9998 11Z" fill="#B2B8BF"/>
<path d="M9.62862 13.0716C10.1414 12.8665 10.7234 13.1159 10.9285 13.6287C11.1336 14.1414 10.8842 14.7234 10.3714 14.9285L5.3714 16.9285C4.85862 17.1336 4.27665 16.8842 4.07154 16.3714C3.86642 15.8587 4.11584 15.2767 4.62862 15.0716L9.62862 13.0716Z" fill="#B2B8BF"/>
<path d="M21.0713 11.3714C20.8662 10.8586 21.1156 10.2767 21.6284 10.0715L26.6284 8.07154C27.1412 7.86643 27.7232 8.11585 27.9283 8.62864C28.1334 9.14143 27.884 9.7234 27.3712 9.92851L22.3712 11.9285C21.8584 12.1336 21.2764 11.8842 21.0713 11.3714Z" fill="#B2B8BF"/>
<path d="M22.371 13.0716C21.8582 12.8665 21.2762 13.1159 21.0711 13.6287C20.866 14.1414 21.1154 14.7234 21.6282 14.9285L26.6282 16.9285C27.141 17.1336 27.7229 16.8842 27.928 16.3714C28.1332 15.8587 27.8837 15.2767 27.371 15.0716L22.371 13.0716Z" fill="#B2B8BF"/>
</svg>
