<svg width="20" height="20" viewBox="0 0 20 20" fill="none" xmlns="http://www.w3.org/2000/svg">
<path fill-rule="evenodd" clip-rule="evenodd" d="M14.4945 0.982911C13.5991 -0.0841422 11.9879 -0.3079 10.8856 0.61707L2.09863 7.99022C1.67555 8.34522 1.62037 8.97598 1.97537 9.39905L2.61822 10.1652L0.964922 11.5525C0.222825 12.1752 0.0419351 13.3174 0.711225 14.1151L2.25391 15.9536C2.9232 16.7512 4.07955 16.7714 4.82165 16.1487L6.47495 14.7614L7.11767 15.5274C7.47267 15.9505 8.10343 16.0057 8.5265 15.6507L17.3135 8.27751C18.4158 7.35254 18.4752 5.72698 17.5799 4.65992L14.4945 0.982911ZM12.1712 2.14916C12.363 1.98824 12.7218 1.9817 12.9624 2.26849L16.0478 5.9455C16.2884 6.23229 16.2197 6.58451 16.0279 6.74543L8.00697 13.4758L4.15025 8.87952L12.1712 2.14916ZM5.18937 13.2294L3.9038 11.6973L2.37187 12.9827L3.65745 14.5148L5.18937 13.2294Z" fill="#B2B8BF"/>
<path fill-rule="evenodd" clip-rule="evenodd" d="M19.7532 13.3422C20.1165 13.7582 20.0738 14.3899 19.6578 14.7532L13.9329 19.7532C13.5594 20.0795 13.0031 20.0826 12.6259 19.7606L10.3507 17.8183C9.9307 17.4598 9.88088 16.8286 10.2395 16.4085C10.598 15.9885 11.2292 15.9387 11.6493 16.2972L13.2677 17.6788L18.3422 13.2468C18.7582 12.8835 19.3899 12.9262 19.7532 13.3422Z" fill="#B2B8BF"/>
</svg>
