<svg width="32" height="32" viewBox="0 0 32 32" fill="none" xmlns="http://www.w3.org/2000/svg">
<path d="M12 27C12 28.6569 10.6569 30 9 30H5C3.34315 30 2 28.6569 2 27V23C2 21.3431 3.34315 20 5 20H6C6.55228 20 7 20.4477 7 21C7 21.5523 6.55228 22 6 22H5C4.44772 22 4 22.4477 4 23V27C4 27.5523 4.44772 28 5 28H9C9.55228 28 10 27.5523 10 27V26C10 25.4477 10.4477 25 11 25C11.5523 25 12 25.4477 12 26V27Z" fill="#B2B8BF"/>
<path d="M20 27C20 28.6569 21.3431 30 23 30H27C28.6569 30 30 28.6569 30 27V23C30 21.3431 28.6569 20 27 20H26C25.4477 20 25 20.4477 25 21C25 21.5523 25.4477 22 26 22H27C27.5523 22 28 22.4477 28 23V27C28 27.5523 27.5523 28 27 28H23C22.4477 28 22 27.5523 22 27V26C22 25.4477 21.5523 25 21 25C20.4477 25 20 25.4477 20 26V27Z" fill="#B2B8BF"/>
<path d="M13 10C13 10.5523 12.5523 11 12 11C11.4477 11 11 10.5523 11 10V5C11 3.34315 12.3431 2 14 2H18C19.6569 2 21 3.34315 21 5V10C21 10.5523 20.5523 11 20 11C19.4477 11 19 10.5523 19 10V5C19 4.44772 18.5523 4 18 4H14C13.4477 4 13 4.44772 13 5V10Z" fill="#B2B8BF"/>
<path fill-rule="evenodd" clip-rule="evenodd" d="M12.1436 19.0654C12.0335 19.1073 11.929 19.1696 11.8356 19.2526L7.33565 23.2526C6.92286 23.6195 6.88568 24.2516 7.2526 24.6644C7.61952 25.0771 8.25159 25.1143 8.66437 24.7474L13.1258 20.7817C13.853 21.533 14.8721 22 16.0002 22C17.1284 22 18.1474 21.533 18.8746 20.7817L23.336 24.7474C23.7488 25.1143 24.3809 25.0771 24.7478 24.6644C25.1147 24.2516 25.0775 23.6195 24.6648 23.2526L20.1648 19.2526C20.0714 19.1696 19.9669 19.1073 19.8568 19.0654C19.9503 18.7262 20.0002 18.3689 20.0002 18C20.0002 16.1335 18.7217 14.5655 16.9927 14.1241C16.9978 14.0834 17.0004 14.042 17.0004 14L17.0004 9C17.0004 8.44771 16.5526 8 16.0004 8C15.4481 8 15.0004 8.44771 15.0004 9L15.0004 14C15.0004 14.042 15.0029 14.0834 15.008 14.124C13.2788 14.5654 12.0002 16.1334 12.0002 18C12.0002 18.3689 12.0501 18.7262 12.1436 19.0654ZM14.0002 18C14.0002 19.1046 14.8956 20 16.0002 20C17.1048 20 18.0002 19.1046 18.0002 18C18.0002 16.8954 17.1048 16 16.0002 16C14.8956 16 14.0002 16.8954 14.0002 18Z" fill="#B2B8BF"/>
</svg>
