<svg width="20" height="20" viewBox="0 0 20 20" fill="none" xmlns="http://www.w3.org/2000/svg">
<path fill-rule="evenodd" clip-rule="evenodd" d="M16.7461 10.3341C17.1138 10.7462 17.0779 11.3783 16.6659 11.7461L14.7626 13.4449L15.853 16.8007C16.4517 18.6433 14.3427 20.1756 12.7753 19.0368L9.98054 17.0063L7.18577 19.0368C5.61835 20.1756 3.50938 18.6433 4.10809 16.8007L5.20027 13.4393L3.32805 11.7406C2.91903 11.3695 2.88831 10.7371 3.25942 10.328C3.63054 9.91903 4.26295 9.88831 4.67197 10.2594L6.54419 11.9582C7.12713 12.4871 7.34562 13.3088 7.10238 14.0574L6.0102 17.4187L8.80497 15.3882C9.50594 14.8789 10.4551 14.8789 11.1561 15.3882L13.9509 17.4187L12.8605 14.0629C12.6154 13.3086 12.8392 12.4808 13.4308 11.9528L15.3341 10.254C15.7461 9.8862 16.3783 9.92209 16.7461 10.3341Z" fill="#B2B8BF"/>
<path fill-rule="evenodd" clip-rule="evenodd" d="M9.99999 1C10.847 0.999999 11.5123 1.60839 11.7281 2.43086L12.9268 7H19C19.5523 7 20 7.44772 20 8C20 8.55228 19.5523 9 19 9H12.7366C11.8145 9 11.197 8.28798 11.0084 7.56914L9.99999 3.7252L8.99153 7.56914C8.80295 8.28798 8.18551 9 7.26342 9H1C0.447715 9 0 8.55228 0 8C0 7.44772 0.447715 7 1 7H7.07317L8.27188 2.43086C8.48765 1.60839 9.15299 1 9.99999 1Z" fill="#B2B8BF"/>
</svg>
