<svg width="20" height="20" viewBox="0 0 20 20" fill="none" xmlns="http://www.w3.org/2000/svg">
<path d="M17 16V15C16.4477 15 16 15.4477 16 16H17ZM13 16H14C14 15.4477 13.5523 15 13 15V16ZM7 16V15C6.44772 15 6 15.4477 6 16H7ZM3 17H4L4 17L3 17ZM3 16L4 16C4 15.4477 3.55228 15 3 15V16ZM3 9C1.34315 9 0 10.3431 0 12H2C2 11.4477 2.44772 11 3 11V9ZM17 9H3V11H17V9ZM20 12C20 10.3431 18.6569 9 17 9V11C17.5523 11 18 11.4477 18 12H20ZM20 14V12H18V14H20ZM17 17C18.6569 17 20 15.6569 20 14H18C18 14.5523 17.5523 15 17 15V17ZM18 17V16H16V17H18ZM15 20C16.6569 20 18 18.6569 18 17H16C16 17.5523 15.5523 18 15 18V20ZM12 16.9998C12 18.6565 13.343 20 15 20V18C14.4478 18 14 17.5522 14 16.9998H12ZM12 16V16.9998H14V16H12ZM7 17H13V15H7V17ZM8 17V16H6V17H8ZM5 20C6.65685 20 8 18.6569 8 17H6C6 17.5523 5.55228 18 5 18V20ZM2 17C2 18.6569 3.34315 20 5 20V18C4.44772 18 4 17.5523 4 17H2ZM2 16L2 17L4 17L4 16L2 16ZM0 14C0 15.6569 1.34315 17 3 17V15C2.44772 15 2 14.5523 2 14H0ZM0 12V14H2V12H0Z" fill="#B2B8BF"/>
<path d="M3.5 10L4.3475 5.33875" stroke="#B2B8BF" stroke-width="2" stroke-linecap="round" stroke-linejoin="round"/>
<path d="M16 13H14" stroke="#B2B8BF" stroke-width="2" stroke-linecap="round" stroke-linejoin="round"/>
<path d="M6 13L4 13" stroke="#B2B8BF" stroke-width="2" stroke-linecap="round" stroke-linejoin="round"/>
<rect x="5" width="3" height="3" rx="1" fill="#B2B8BF"/>
<rect x="8" y="3" width="3" height="3" rx="1" fill="#B2B8BF"/>
<rect x="11" width="3" height="3" rx="1" fill="#B2B8BF"/>
<rect x="17" width="3" height="3" rx="1" fill="#B2B8BF"/>
<rect x="14" y="3" width="3" height="3" rx="1" fill="#B2B8BF"/>
</svg>
