<svg width="20" height="20" viewBox="0 0 20 20" fill="none" xmlns="http://www.w3.org/2000/svg">
<path fill-rule="evenodd" clip-rule="evenodd" d="M3 4.5C3 2.01472 5.01472 0 7.5 0C9.98528 0 12 2.01472 12 4.5C12 6.98528 9.98528 9 7.5 9C5.01472 9 3 6.98528 3 4.5ZM7.5 2C6.11929 2 5 3.11929 5 4.5C5 5.88071 6.11929 7 7.5 7C8.88071 7 10 5.88071 10 4.5C10 3.11929 8.88071 2 7.5 2ZM3.69836 11.1425C4.76007 11.9992 6.08032 12.47 7.44388 12.47C7.99616 12.47 8.44388 12.0222 8.44388 11.47C8.44388 10.9177 7.99616 10.47 7.44388 10.47C6.48735 10.47 5.55759 10.1198 4.8272 9.4791L4.82535 9.47748C4.16609 8.90208 3.18637 8.90804 2.53415 9.49282L2.53272 9.49411C0.921082 10.9447 0 13.0272 0 15.2077C0 15.6548 0.0408382 16.1084 0.118972 16.5552C0.263154 17.3765 0.971534 18.0001 1.82736 18.0001H4.58572L4.29289 18.2929C3.90237 18.6834 3.90237 19.3166 4.29289 19.7071C4.68342 20.0976 5.31658 20.0976 5.70711 19.7071L7.70027 17.7139C7.88525 17.5325 8 17.2797 8 17.0001C8 17 8 17 8 17C8 16.9969 7.99999 16.9937 7.99996 16.9906C7.99783 16.7619 7.91894 16.5516 7.78781 16.3841C7.76292 16.3522 7.73599 16.3218 7.70711 16.2929L5.70711 14.2929C5.31658 13.9024 4.68342 13.9024 4.29289 14.2929C3.90237 14.6834 3.90237 15.3166 4.29289 15.7071L4.58585 16.0001H2.05599C2.01876 15.7326 2 15.4667 2 15.2077C2 13.6686 2.61855 12.2008 3.69836 11.1425Z" fill="#B2B8BF"/>
<path fill-rule="evenodd" clip-rule="evenodd" d="M12 12C12 10.8954 12.8954 10 14 10H16.4322C16.9753 10 17.495 10.2208 17.8719 10.6117L19.4397 12.2376C19.7991 12.6103 20 13.108 20 13.6258V18C20 19.1046 19.1046 20 18 20H14C12.8954 20 12 19.1046 12 18V12ZM16.4322 12H14V18L18 18V13.6258L16.4322 12Z" fill="#B2B8BF"/>
</svg>
