<svg width="32" height="32" viewBox="0 0 32 32" fill="none" xmlns="http://www.w3.org/2000/svg">
<path fill-rule="evenodd" clip-rule="evenodd" d="M27.848 7.46989C28.1407 7.93823 27.9983 8.55518 27.53 8.84789L19.53 13.8479C19.1351 14.0947 18.6222 14.0363 18.2929 13.707L14.5927 10.0068L11.9778 22.2094C11.8833 22.6503 11.5055 22.9734 11.0553 22.9984C10.6051 23.0233 10.1939 22.7439 10.0513 22.3161L7.05018 13.3127L6.45783 15.2872C6.33093 15.7102 5.94161 15.9999 5.5 15.9999H3C2.44772 15.9999 2 15.5522 2 14.9999C2 14.4476 2.44772 13.9999 3 13.9999H4.75597L6.04217 9.71254C6.16746 9.29492 6.54889 9.00661 6.98485 9C7.42082 8.9934 7.8108 9.27002 7.94868 9.68366L10.79 18.2075L13.0222 7.79036C13.099 7.43215 13.3654 7.14459 13.7168 7.04084C14.0681 6.93708 14.4481 7.03374 14.7071 7.29278L19.1446 11.7303L26.47 7.15189C26.9383 6.85918 27.5553 7.00155 27.848 7.46989Z" fill="#B2B8BF"/>
<path fill-rule="evenodd" clip-rule="evenodd" d="M21.499 18C18.4655 18 15.999 20.4663 15.999 23.4999C15.999 26.5337 18.4655 29 21.499 29C22.9106 29 24.1994 28.466 25.174 27.5892L27.2919 29.7071C27.6824 30.0976 28.3156 30.0976 28.7061 29.7071C29.0967 29.3166 29.0967 28.6834 28.7061 28.2929L26.4029 25.9897C26.784 25.2418 26.999 24.3956 26.999 23.4999C26.999 20.4663 24.5325 18 21.499 18ZM17.999 23.4999C17.999 21.5709 19.57 20 21.499 20C23.428 20 24.999 21.5709 24.999 23.4999C24.999 25.4291 23.428 27 21.499 27C19.5701 27 17.999 25.4291 17.999 23.4999Z" fill="#B2B8BF"/>
</svg>
