<svg width="32" height="32" viewBox="0 0 32 32" fill="none" xmlns="http://www.w3.org/2000/svg">
<path fill-rule="evenodd" clip-rule="evenodd" d="M5.58221 15.4245C5.90007 14.9729 6.52388 14.8644 6.97552 15.1823L10.7408 17.8323C11.4585 18.3373 11.7631 19.2512 11.4919 20.0859L9.43802 26.407L14.8244 22.4935C15.5254 21.9842 16.4746 21.9842 17.1756 22.4935L22.562 26.407L20.5082 20.0858C20.237 19.2512 20.5415 18.3373 21.2592 17.8323L25.0245 15.1823C25.4761 14.8644 26.0999 14.9729 26.4178 15.4245C26.7356 15.8762 26.6272 16.5 26.1755 16.8179L22.4103 19.4678L24.4641 25.7889C25.0628 27.6316 22.9539 29.1638 21.3864 28.025L16 24.1115L10.6136 28.025C9.04616 29.1638 6.9372 27.6316 7.53591 25.7889L9.58976 19.4678L5.82445 16.8179C5.3728 16.5 5.26435 15.8762 5.58221 15.4245Z" fill="#B2B8BF"/>
<path fill-rule="evenodd" clip-rule="evenodd" d="M13.8111 4.60828C14.4968 2.46391 17.5032 2.4639 18.1889 4.60828L20.163 10.7826C20.2073 10.921 20.3274 11 20.4469 11H29C29.5523 11 30 11.4477 30 12C30 12.5523 29.5523 13 29 13H20.4469C19.44 13 18.5619 12.3419 18.258 11.3917L16.2839 5.21738C16.1912 4.92754 15.8088 4.92754 15.7161 5.21738L13.7419 11.3917C13.4381 12.3419 12.56 13 11.5531 13H3C2.44772 13 2 12.5523 2 12C2 11.4477 2.44772 11 3 11H11.5531C11.6726 11 11.7927 10.921 11.8369 10.7826L13.8111 4.60828Z" fill="#B2B8BF"/>
</svg>
