<svg width="20" height="20" viewBox="0 0 20 20" fill="none" xmlns="http://www.w3.org/2000/svg">
<path fill-rule="evenodd" clip-rule="evenodd" d="M10.0001 0C9.44777 0 9.00005 0.447715 9.00005 1C9.00005 1.55228 9.44777 2 10.0001 2C13.7018 2 16.8188 4.51516 17.7303 7.93145C17.8727 8.46507 18.4207 8.78223 18.9543 8.63984C19.4879 8.49746 19.8051 7.94946 19.6627 7.41584C18.5235 3.14621 14.6304 0 10.0001 0ZM2.31262 12.2227C2.1595 11.6921 1.60521 11.3861 1.07457 11.5392C0.543937 11.6923 0.237902 12.2466 0.391023 12.7773C1.59457 16.9481 5.4396 20 10.0001 20C10.5523 20 11.0001 19.5523 11.0001 19C11.0001 18.4477 10.5523 18 10.0001 18C6.35432 18 3.27576 15.5605 2.31262 12.2227ZM5 1C5 0.447715 4.55228 0 4 0C3.44772 0 3 0.447715 3 1V1.07197C2.82666 1.12196 2.64661 1.19048 2.46941 1.2844C2.10959 1.47511 1.76007 1.76961 1.50181 2.20624C1.246 2.63875 1.11113 3.15736 1.09412 3.75269C1.06769 4.6779 1.59912 5.27803 2.14455 5.63905C2.60809 5.94587 3.19348 6.15627 3.6449 6.31852L3.73452 6.35077C4.26594 6.54256 4.63709 6.68762 4.88684 6.86292C5.08643 7.00302 5.09377 7.07578 5.09377 7.15625C5.09377 7.40248 5.0368 7.55031 4.98118 7.64289C4.92256 7.74047 4.83654 7.82385 4.72083 7.89528C4.60208 7.96858 4.46455 8.0211 4.33253 8.05447C4.26816 8.07075 4.21066 8.08106 4.16509 8.08709C4.12118 8.09291 4.09676 8.09365 4.09399 8.09374C4.09373 8.09374 4.09366 8.09375 4.09377 8.09375C3.95702 8.09375 3.64126 8.06131 3.32642 7.96533C2.97898 7.85942 2.84186 7.74008 2.81926 7.70778C2.50254 7.25534 1.87901 7.1453 1.42656 7.46202C0.974113 7.77873 0.864078 8.40226 1.18079 8.85471C1.59569 9.44742 2.27059 9.73433 2.74322 9.87841C2.82891 9.90454 2.91481 9.92799 3 9.94894V10C3 10.5523 3.44772 11 4 11C4.55228 11 5 10.5523 5 10V9.94384C5.24833 9.86739 5.51409 9.75597 5.7714 9.59713C6.47283 9.16413 7.09377 8.37884 7.09377 7.15625C7.09377 6.23671 6.59452 5.61807 6.03587 5.22594C5.53457 4.87406 4.90667 4.6475 4.43371 4.47684L4.41346 4.46954C3.8682 4.27275 3.49864 4.1369 3.24844 3.97129C3.13794 3.89815 3.10325 3.85115 3.09605 3.83975L3.09461 3.83736C3.09407 3.83451 3.09284 3.82598 3.0933 3.80981C3.10263 3.48326 3.17235 3.31046 3.22324 3.22441C3.2717 3.14249 3.33101 3.09129 3.40602 3.05153C3.59674 2.95045 3.84957 2.9375 4.09377 2.9375C4.26308 2.9375 4.57633 3.02237 4.8568 3.35893C5.21037 3.78321 5.84093 3.84053 6.26521 3.48697C6.68949 3.1334 6.74681 2.50284 6.39325 2.07856C5.98651 1.59048 5.49653 1.26941 5 1.09562V1ZM14 11C14 10.4477 14.4477 10 15 10H17.1408C18.1885 10 18.9383 10.5168 19.3925 11.1498C19.8191 11.7442 20 12.4519 20 13C20 13.5481 19.8191 14.2558 19.3925 14.8502C18.9383 15.4832 18.1885 16 17.1408 16H16V16.5H16.5C17.0523 16.5 17.5 16.9477 17.5 17.5C17.5 18.0523 17.0523 18.5 16.5 18.5H16V19C16 19.5523 15.5523 20 15 20C14.4477 20 14 19.5523 14 19V18.5H13.5C12.9477 18.5 12.5 18.0523 12.5 17.5C12.5 16.9477 12.9477 16.5 13.5 16.5H14V16H13.5C12.9477 16 12.5 15.5523 12.5 15C12.5 14.4477 12.9477 14 13.5 14H14V11ZM16 14V12H17.1408C17.4523 12 17.6321 12.1269 17.7677 12.3158C17.9309 12.5433 18 12.8356 18 13C18 13.1644 17.9309 13.4567 17.7677 13.6842C17.6321 13.8731 17.4523 14 17.1408 14H16Z" fill="#B2B8BF"/>
</svg>
