<svg xmlns="http://www.w3.org/2000/svg" width="20" height="20" fill="none" viewBox="0 0 20 20">
    <path fill="#B2B8BF" fill-rule="evenodd" d="M7.45.674A1 1 0 0 1 8.396 0h3.193a1 1 0 0 1 .945.674l.598 1.73v.002l.002.001h.003l1.654-.805a1 1 0 0 1 1.145.192l2.254 2.254a1 1 0 0 1 .192 1.145l-.805 1.654v.005h.002l1.747.604A1 1 0 0 1 20 8.4v3.182a1 1 0 0 1-.674.945l-1.747.603-.001.001-.001.002v.003l.81 1.665a1 1 0 0 1-.192 1.145l-2.248 2.248a1 1 0 0 1-1.145.192l-1.665-.81h-.001-.004v.002l-.604 1.747a1 1 0 0 1-.945.674H8.401a1 1 0 0 1-.945-.674l-.603-1.747v-.002H6.85l-.001-.001h-.002l-1.654.806a1 1 0 0 1-1.145-.192l-2.254-2.254a1 1 0 0 1-.192-1.145l.805-1.654.001-.002a.012.012 0 0 0-.001-.003h-.002l-1.731-.598A1 1 0 0 1 0 11.588V8.396a1 1 0 0 1 .674-.945l1.731-.597.002-.001a.011.011 0 0 0 .001-.003v-.002l-.8-1.644a1 1 0 0 1 .191-1.144l2.26-2.26a1 1 0 0 1 1.144-.192l1.644.8h.002a.012.012 0 0 0 .003 0v-.002L7.45.674zM9.108 2l-.365 1.058a2.004 2.004 0 0 1-2.771 1.147l-1.003-.488L3.717 4.97l.489 1.003a2.004 2.004 0 0 1-1.148 2.771L2 9.108v1.768l1.058.365a2.004 2.004 0 0 1 1.148 2.771l-.494 1.014 1.246 1.246 1.014-.493a2.004 2.004 0 0 1 2.771 1.148L9.113 18h1.757l.371-1.073a2.004 2.004 0 0 1 2.771-1.149l1.025.499 1.24-1.24-.498-1.025a2.004 2.004 0 0 1 1.148-2.771L18 10.87V9.113l-1.073-.37a2.004 2.004 0 0 1-1.148-2.772l.493-1.014-1.246-1.246-1.014.493a2.004 2.004 0 0 1-2.771-1.147L10.876 2H9.108z" clip-rule="evenodd"/>
    <path fill="#B2B8BF" fill-rule="evenodd" d="M10 8a2 2 0 1 0 0 4 2 2 0 0 0 0-4zm-4 2a4 4 0 1 1 8 0 4 4 0 0 1-8 0z" clip-rule="evenodd"/>
</svg>
