<svg width="20" height="20" viewBox="0 0 20 20" fill="none" xmlns="http://www.w3.org/2000/svg">
<path fill-rule="evenodd" clip-rule="evenodd" d="M6.65567 0.0611605C6.878 -0.0203868 7.12205 -0.0203868 7.34438 0.0611605L13.3444 2.26189C13.8629 2.45207 14.129 3.02658 13.9389 3.54508C13.7487 4.06359 13.1742 4.32975 12.6557 4.13957L7.00003 2.06514L1.34438 4.13957C0.825876 4.32975 0.25137 4.06359 0.0611883 3.54508C-0.128994 3.02658 0.137166 2.45207 0.655673 2.26189L6.65567 0.0611605Z" fill="#B2B8BF"/>
<path fill-rule="evenodd" clip-rule="evenodd" d="M0.0302734 13C0.0302734 12.4477 0.477989 12 1.03027 12H8.53027C9.08256 12 9.53027 12.4477 9.53027 13C9.53027 13.5523 9.08256 14 8.53027 14H1.03027C0.477989 14 0.0302734 13.5523 0.0302734 13Z" fill="#B2B8BF"/>
<path fill-rule="evenodd" clip-rule="evenodd" d="M7.03027 5C7.58256 5 8.03027 5.44772 8.03027 6V9.73044C8.03027 10.2827 7.58256 10.7304 7.03027 10.7304C6.47799 10.7304 6.03027 10.2827 6.03027 9.73044V6C6.03027 5.44772 6.47799 5 7.03027 5Z" fill="#B2B8BF"/>
<path fill-rule="evenodd" clip-rule="evenodd" d="M3.03027 5C3.58256 5 4.03027 5.44772 4.03027 6V9.73044C4.03027 10.2827 3.58256 10.7304 3.03027 10.7304C2.47799 10.7304 2.03027 10.2827 2.03027 9.73044V6C2.03027 5.44772 2.47799 5 3.03027 5Z" fill="#B2B8BF"/>
<path fill-rule="evenodd" clip-rule="evenodd" d="M13.0001 8C13.0001 7.44772 13.4478 7 14.0001 7H16.4782C17.8157 7 18.7707 7.49663 19.3504 8.29875C19.8879 9.04251 20.0002 9.90961 20.0002 10.5V10.6674C20.0002 11.3229 19.8164 12.1538 19.2442 12.8398C18.6434 13.5601 17.7144 14 16.4782 14H12.1602C11.6079 14 11.1602 13.5523 11.1602 13C11.1602 12.4477 11.6079 12 12.1602 12H16.4782C17.2077 12 17.5397 11.761 17.7084 11.5587C17.9058 11.322 18.0002 10.9866 18.0002 10.6674V10.5C18.0002 10.1156 17.9191 9.73271 17.7293 9.47017C17.5818 9.26598 17.2758 9 16.4782 9H14.0001C13.4478 9 13.0001 8.55228 13.0001 8Z" fill="#B2B8BF"/>
<path fill-rule="evenodd" clip-rule="evenodd" d="M14.0303 7C14.5826 7 15.0303 7.44772 15.0303 8V18C15.0303 18.5523 14.5826 19 14.0303 19C13.478 19 13.0303 18.5523 13.0303 18V8C13.0303 7.44772 13.478 7 14.0303 7Z" fill="#B2B8BF"/>
<path fill-rule="evenodd" clip-rule="evenodd" d="M11.1553 16C11.1553 15.4477 11.603 15 12.1553 15H16.1553C16.7076 15 17.1553 15.4477 17.1553 16C17.1553 16.5523 16.7076 17 16.1553 17H12.1553C11.603 17 11.1553 16.5523 11.1553 16Z" fill="#B2B8BF"/>
</svg>
