<svg width="20" height="20" viewBox="0 0 20 20" fill="none" xmlns="http://www.w3.org/2000/svg">
<path fill-rule="evenodd" clip-rule="evenodd" d="M5 3C3.89543 3 3 3.89543 3 5V15C3 16.1046 3.89543 17 5 17H15C16.1046 17 17 16.1046 17 15V7.80952C17 7.25724 17.4477 6.80952 18 6.80952C18.5523 6.80952 19 7.25724 19 7.80952V15C19 17.2091 17.2091 19 15 19H5C2.79086 19 1 17.2091 1 15V5C1 2.79086 2.79086 1 5 1H7.33333C7.88562 1 8.33333 1.44772 8.33333 2C8.33333 2.55228 7.88562 3 7.33333 3H5Z" fill="#B2B8BF"/>
<path fill-rule="evenodd" clip-rule="evenodd" d="M18.0001 2C18.5523 2 19.0001 2.44772 19.0001 3C19.0001 3.55228 18.5523 4 18.0001 4H16.0001C13.2386 4 11.0001 6.23858 11.0001 9V11.5C11.0001 11.5035 11 11.5069 11 11.5104L12.2426 10.2677C12.6332 9.87722 13.2663 9.87722 13.6568 10.2677C14.0474 10.6583 14.0474 11.2914 13.6568 11.682L10.682 14.6568C10.2915 15.0474 9.65829 15.0474 9.26776 14.6568L6.29289 11.682C5.90237 11.2914 5.90237 10.6583 6.29289 10.2677C6.68342 9.87722 7.31658 9.87722 7.70711 10.2677L9.00199 11.5626C9.00071 11.5419 9.00006 11.521 9.00006 11.5V9C9.00006 5.13401 12.1341 2 16.0001 2H18.0001ZM9.93743 12.4981L9.97487 12.5355L10.0104 12.4999C10.007 12.5 10.0035 12.5 10.0001 12.5C9.97903 12.5 9.95814 12.4994 9.93743 12.4981Z" fill="#B2B8BF"/>
</svg>
