<svg width="20" height="20" viewBox="0 0 20 20" fill="none" xmlns="http://www.w3.org/2000/svg">
<path d="M5 0C4.44772 0 4 0.447715 4 1C4 1.55228 4.44772 2 5 2H15C15.5523 2 16 1.55228 16 1C16 0.447715 15.5523 0 15 0H5Z" fill="#B2B8BF"/>
<path d="M5 4C5 3.44772 5.44772 3 6 3H14C14.5523 3 15 3.44772 15 4C15 4.55228 14.5523 5 14 5H6C5.44772 5 5 4.55228 5 4Z" fill="#B2B8BF"/>
<path d="M10 13.5C10.5523 13.5 11 13.9477 11 14.5V16C11 16.5523 10.5523 17 10 17C9.44772 17 9 16.5523 9 16V14.5C9 13.9477 9.44772 13.5 10 13.5Z" fill="#B2B8BF"/>
<path d="M8 7C8 6.44772 7.55228 6 7 6C6.44772 6 6 6.44772 6 7C6 9.20914 7.79086 11 10 11C12.2091 11 14 9.20914 14 7C14 6.44772 13.5523 6 13 6C12.4477 6 12 6.44772 12 7C12 8.10457 11.1046 9 10 9C8.89543 9 8 8.10457 8 7Z" fill="#B2B8BF"/>
<path d="M14.1733 12.2083C13.736 11.8709 13.108 11.952 12.7707 12.3893C12.4334 12.8266 12.5144 13.4545 12.9517 13.7918C14.2215 14.7713 15 16.1172 15 17.423C15 17.6119 14.9866 17.8052 14.9596 18H5.04062C5.01354 17.8046 5 17.6112 5 17.423C5 16.1528 5.81209 14.7709 7.05834 13.784C7.49129 13.4411 7.56432 12.8122 7.22144 12.3792C6.87856 11.9463 6.24962 11.8732 5.81666 12.2161C4.26518 13.4448 3 15.3499 3 17.423C3 17.8319 3.04233 18.2451 3.1231 18.6514C3.29311 19.5035 4.06986 20 4.82736 20H15.1726C15.9285 20 16.7072 19.5056 16.8768 18.6519C16.9584 18.244 17 17.8307 17 17.423C17 15.3283 15.7826 13.4497 14.1733 12.2083Z" fill="#B2B8BF"/>
</svg>
