<svg width="20" height="20" viewBox="0 0 20 20" fill="none" xmlns="http://www.w3.org/2000/svg">
<path d="M6.65567 0.0611605C6.878 -0.0203868 7.12205 -0.0203868 7.34438 0.0611605L13.3444 2.26189C13.8629 2.45207 14.129 3.02658 13.9389 3.54508C13.7487 4.06359 13.1742 4.32975 12.6557 4.13957L7.00003 2.06514L1.34438 4.13957C0.825876 4.32975 0.25137 4.06359 0.0611883 3.54508C-0.128994 3.02658 0.137166 2.45207 0.655673 2.26189L6.65567 0.0611605Z" fill="#B2B8BF"/>
<path d="M0.0302734 13C0.0302734 12.4477 0.477989 12 1.03027 12H8.53027C9.08256 12 9.53027 12.4477 9.53027 13C9.53027 13.5523 9.08256 14 8.53027 14H1.03027C0.477989 14 0.0302734 13.5523 0.0302734 13Z" fill="#B2B8BF"/>
<path d="M8 6C8 5.44772 7.55228 5 7 5C6.44772 5 6 5.44772 6 6V9.73044C6 10.2827 6.44772 10.7304 7 10.7304C7.55228 10.7304 8 10.2827 8 9.73044V6Z" fill="#B2B8BF"/>
<path d="M11 5C11.5523 5 12 5.44772 12 6V7C12 7.55228 11.5523 8 11 8C10.4477 8 10 7.55228 10 7V6C10 5.44772 10.4477 5 11 5Z" fill="#B2B8BF"/>
<path d="M4 6C4 5.44772 3.55228 5 3 5C2.44772 5 2 5.44772 2 6V9.73044C2 10.2827 2.44772 10.7304 3 10.7304C3.55228 10.7304 4 10.2827 4 9.73044V6Z" fill="#B2B8BF"/>
<path d="M15.6593 12.0733C14.043 11.7091 12.4375 12.7242 12.0733 14.3405C11.7091 15.9569 12.7242 17.5624 14.3405 17.9265C15.9569 18.2907 17.5624 17.2756 17.9266 15.6593C18.048 15.1205 18.5831 14.7822 19.1219 14.9036C19.6607 15.025 19.999 15.5601 19.8776 16.0989C19.2707 18.7928 16.5948 20.4846 13.9009 19.8776C11.207 19.2707 9.51524 16.5948 10.1222 13.9009C10.7292 11.207 13.405 9.51523 16.0989 10.1222C16.6377 10.2436 16.9761 10.7788 16.8547 11.3175C16.7333 11.8563 16.1981 12.1947 15.6593 12.0733Z" fill="#B2B8BF"/>
<path d="M18.6402 13.7682C19.0645 13.4147 19.1218 12.7841 18.7682 12.3598C18.4147 11.9356 17.7841 11.8782 17.3598 12.2318L15.0614 14.1472L14.7071 13.7929C14.3166 13.4024 13.6834 13.4024 13.2929 13.7929C12.9024 14.1834 12.9024 14.8166 13.2929 15.2071L14.2929 16.2071C14.6586 16.5728 15.2429 16.5994 15.6402 16.2682L18.6402 13.7682Z" fill="#B2B8BF"/>
</svg>
