<svg width="32" height="32" viewBox="0 0 32 32" fill="none" xmlns="http://www.w3.org/2000/svg">
<path fill-rule="evenodd" clip-rule="evenodd" d="M20.9265 5.18085C21.379 4.86414 22.0025 4.97417 22.3192 5.42662L25.5206 10.0001H29C29.3466 10.0001 29.6685 10.1795 29.8507 10.4744C30.0329 10.7692 30.0494 11.1373 29.8944 11.4473L27.8944 15.4473C27.6474 15.9413 27.0468 16.1415 26.5528 15.8945C26.0588 15.6475 25.8586 15.0469 26.1056 14.5529L27.382 12.0001H25.014L25.0029 12.0002L24.9877 12.0001H8.00797H7.99077H5.38743L9.72077 25.0001H14C14.5523 25.0001 15 25.4478 15 26.0001C15 26.5524 14.5523 27.0001 14 27.0001H9.00001C8.56958 27.0001 8.18744 26.7247 8.05132 26.3163L3.05132 11.3163C2.94967 11.0114 3.00081 10.6761 3.18877 10.4154C3.37672 10.1546 3.67856 10.0001 4.00001 10.0001H7.51938L11.2191 5.37539C11.5641 4.94413 12.1934 4.87421 12.6247 5.21922C13.056 5.56423 13.1259 6.19352 12.7809 6.62478L10.0806 10.0001H23.0793L20.6808 6.57355C20.364 6.1211 20.4741 5.49757 20.9265 5.18085ZM27.9972 26.9377L27.9972 20.9963C27.9972 20.4441 27.5495 19.9963 26.9972 19.9963C26.4449 19.9963 25.9972 20.444 25.9972 20.9963L25.9972 24.584L19.7069 18.294C19.3164 17.9035 18.6832 17.9035 18.2927 18.294C17.9022 18.6846 17.9022 19.3177 18.2927 19.7083L24.5845 25.9998H20.9972C20.4449 25.9998 19.9972 26.4475 19.9972 26.9998C19.9972 27.5521 20.4449 27.9998 20.9972 27.9998H26.9741C27.2383 28.0064 27.5046 27.9088 27.7063 27.7072C27.9174 27.496 28.0144 27.214 27.9972 26.9377Z" fill="#B2B8BF"/>
</svg>
