<svg width="31" height="31" viewBox="0 0 31 31" fill="none" xmlns="http://www.w3.org/2000/svg">
<path fill-rule="evenodd" clip-rule="evenodd" d="M17 3C17 2.44772 17.4477 2 18 2H24.9496C25.3163 2 25.6536 2.2007 25.8285 2.52298C26.0034 2.84527 25.9879 3.23744 25.7881 3.54491L24.1926 6L25.7881 8.45509C25.9879 8.76256 26.0034 9.15473 25.8285 9.47702C25.6536 9.7993 25.3163 10 24.9496 10H18C17.4477 10 17 9.55228 17 9V3ZM19 4V8H23.1071L22.1615 6.54491C21.9462 6.21355 21.9462 5.78645 22.1615 5.45509L23.1071 4H19ZM18.0055 12.5C18.3323 12.5018 18.6376 12.6632 18.8232 12.9323L28.8232 27.4323C29.0342 27.7382 29.0581 28.1359 28.8854 28.4649C28.7126 28.7939 28.3716 29 28 29H3C2.63121 29 2.29235 28.797 2.11833 28.4719C1.94431 28.1467 1.96338 27.7522 2.16795 27.4453L8.16795 18.4453C8.33414 18.196 8.60333 18.0344 8.90146 18.0049C9.1996 17.9753 9.49526 18.081 9.70711 18.2929L11.8677 20.4534L17.183 12.9233C17.3715 12.6563 17.6786 12.4982 18.0055 12.5ZM17.9905 15.2476L12.817 22.5767C12.6469 22.8176 12.3791 22.9712 12.0853 22.9964C11.7914 23.0215 11.5014 22.9157 11.2929 22.7071L9.15543 20.5696L4.86852 27H26.0956L17.9905 15.2476Z" fill="#B2B8BF"/>
</svg>
