<svg width="32" height="32" viewBox="0 0 32 32" fill="none" xmlns="http://www.w3.org/2000/svg">
<path d="M12.6247 5.21911C13.056 5.56412 13.1259 6.19341 12.7809 6.62467L10.0806 10H23.0794L20.6809 6.57349C20.3641 6.12104 20.4742 5.49751 20.9266 5.18079C21.3791 4.86408 22.0026 4.97411 22.3193 5.42656L25.5207 10H29C29.3466 10 29.6685 10.1795 29.8507 10.4743C30.0329 10.7691 30.0494 11.1372 29.8944 11.4472L27.8944 15.4472C27.6474 15.9412 27.0468 16.1414 26.5528 15.8944C26.0588 15.6474 25.8586 15.0468 26.1056 14.5528L27.382 12H25.0159C25.0059 12.0001 24.996 12.0001 24.9861 12H8.00441C8.00107 12 7.99773 12 7.99439 12H5.38743L9.72077 25H14C14.5523 25 15 25.4477 15 26C15 26.5523 14.5523 27 14 27H9.00001C8.56958 27 8.18744 26.7246 8.05132 26.3162L3.05132 11.3162C2.94967 11.0113 3.00081 10.6761 3.18877 10.4153C3.37672 10.1545 3.67856 10 4.00001 10H7.51939L11.2192 5.37528C11.5642 4.94402 12.1935 4.8741 12.6247 5.21911Z" fill="#B2B8BF"/>
<path d="M18.0031 25.0044C18.0031 25.5566 18.4508 26.0044 19.0031 26.0044C19.5553 26.0044 20.0031 25.5566 20.0031 25.0044L20.0031 21.4172L26.2932 27.707C26.6837 28.0975 27.3169 28.0975 27.7074 27.707C28.0979 27.3165 28.0979 26.6833 27.7074 26.2928L21.4152 20.0009H25.0031C25.5553 20.0009 26.0031 19.5532 26.0031 19.0009C26.0031 18.4486 25.5553 18.0009 25.0031 18.0009H19.0031C18.9981 18.0009 18.9932 18.001 18.9883 18.001C18.7366 18.0042 18.4859 18.1018 18.2939 18.2939C18.0821 18.5056 17.9852 18.7887 18.0031 19.0658L18.0031 25.0044Z" fill="#B2B8BF"/>
</svg>
