<svg width="20" height="20" viewBox="0 0 20 20" fill="none" xmlns="http://www.w3.org/2000/svg">
<path d="M6.65543 0.0611605C6.87776 -0.0203868 7.12181 -0.0203868 7.34414 0.0611605L13.3441 2.26189C13.8626 2.45207 14.1288 3.02658 13.9386 3.54508C13.7484 4.06359 13.1739 4.32975 12.6554 4.13957L6.99978 2.06514L1.34414 4.13957C0.825632 4.32975 0.251126 4.06359 0.0609442 3.54508C-0.129238 3.02658 0.136922 2.45207 0.655429 2.26189L6.65543 0.0611605Z" fill="#B2B8BF"/>
<path d="M0.0300293 13C0.0300293 12.4477 0.477745 12 1.03003 12H8.53003C9.08231 12 9.53003 12.4477 9.53003 13C9.53003 13.5523 9.08231 14 8.53003 14H1.03003C0.477745 14 0.0300293 13.5523 0.0300293 13Z" fill="#B2B8BF"/>
<path d="M7.99976 6C7.99976 5.44772 7.55204 5 6.99976 5C6.44747 5 5.99976 5.44772 5.99976 6V9.73044C5.99976 10.2827 6.44747 10.7304 6.99976 10.7304C7.55204 10.7304 7.99976 10.2827 7.99976 9.73044V6Z" fill="#B2B8BF"/>
<path d="M10.9998 5C11.552 5 11.9998 5.44772 11.9998 6V7C11.9998 7.55228 11.552 8 10.9998 8C10.4475 8 9.99976 7.55228 9.99976 7V6C9.99976 5.44772 10.4475 5 10.9998 5Z" fill="#B2B8BF"/>
<path d="M3.99976 6C3.99976 5.44772 3.55204 5 2.99976 5C2.44747 5 1.99976 5.44772 1.99976 6V9.73044C1.99976 10.2827 2.44747 10.7304 2.99976 10.7304C3.55204 10.7304 3.99976 10.2827 3.99976 9.73044V6Z" fill="#B2B8BF"/>
<path fill-rule="evenodd" clip-rule="evenodd" d="M12 12C12 10.8954 12.8954 10 14 10H16.4322C16.9753 10 17.495 10.2208 17.8719 10.6117L19.4397 12.2376C19.7991 12.6103 20 13.108 20 13.6258V18C20 19.1046 19.1046 20 18 20H14C12.8954 20 12 19.1046 12 18V12ZM16.4322 12H14V18L18 18V13.6258L16.4322 12Z" fill="#B2B8BF"/>
</svg>
