<svg xmlns="http://www.w3.org/2000/svg" width="20" height="20" fill="none" viewBox="0 0 20 20">
    <path fill="#B2B8BF" fill-rule="evenodd" d="M0 3a3 3 0 0 1 3-3h14a3 3 0 0 1 3 3v14a3 3 0 0 1-3 3H3a3 3 0 0 1-3-3V3zm3-1a1 1 0 0 0-1 1v3h16V3a1 1 0 0 0-1-1H3zM2 17V8h4v10H3a1 1 0 0 1-1-1zm6 1h9a1 1 0 0 0 1-1V8H8v10z" clip-rule="evenodd"/>
    <path fill="#B2B8BF" d="M4 3a1 1 0 1 0 0 2 1 1 0 0 0 0-2zM10 11a1 1 0 0 1 1-1h4a1 1 0 1 1 0 2h-4a1 1 0 0 1-1-1zM10 15a1 1 0 0 1 1-1h4a1 1 0 1 1 0 2h-4a1 1 0 0 1-1-1zM6 4a1 1 0 1 1 2 0 1 1 0 0 1-2 0zM10 3a1 1 0 1 0 0 2 1 1 0 0 0 0-2z"/>
</svg>
