<svg width="20" height="21" viewBox="0 0 20 21" fill="none" xmlns="http://www.w3.org/2000/svg">
<path fill-rule="evenodd" clip-rule="evenodd" d="M9.71445 0.537896C9.89245 0.487447 10.081 0.487367 10.259 0.537665L18.2719 2.80137C18.7026 2.92306 19.0001 3.31613 19.0001 3.76371V8.93367C19.0001 11.3667 17.9479 13.7078 16.3895 15.6763C14.8276 17.6492 12.7091 19.3124 10.4465 20.4011C10.3112 20.4662 10.163 20.5 10.0129 20.5H9.9872C9.83708 20.5 9.68888 20.4662 9.5536 20.4011C7.31872 19.3257 5.22478 17.6901 3.66894 15.7495C2.11654 13.8133 1.05314 11.512 1.00198 9.1138L1.00175 9.10316L1 8.93367L1.00006 3.76371C1.00006 3.31644 1.29706 2.92357 1.72738 2.8016L9.71445 0.537896ZM9.98758 2.53926L3.00006 4.51968V8.92833L3.00164 9.07627C3.04222 10.9102 3.86567 12.7976 5.22935 14.4985C6.49377 16.0756 8.18264 17.4397 10.0001 18.3879C11.8421 17.4269 13.5518 16.0387 14.8214 14.4349C16.1906 12.7054 17.0001 10.7892 17.0001 8.93367V4.52034L9.98758 2.53926Z" fill="#B2B8BF"/>
<path fill-rule="evenodd" clip-rule="evenodd" d="M15.1983 6.90922C15.5936 7.29489 15.6015 7.92801 15.2158 8.32332L10.2158 13.4483C9.83911 13.8344 9.22408 13.8522 8.82574 13.4885L5.95074 10.8635C5.54288 10.4911 5.51413 9.85859 5.88652 9.45073C6.25891 9.04288 6.89142 9.01413 7.29928 9.38651L9.45982 11.3592L13.7842 6.92668C14.1699 6.53136 14.803 6.52354 15.1983 6.90922Z" fill="#B2B8BF"/>
</svg>
