<svg width="20" height="20" viewBox="0 0 20 20" fill="none" xmlns="http://www.w3.org/2000/svg">
<path d="M7.58119 0.186222C8.03061 0.507231 8.1347 1.13178 7.81369 1.58119L6.08597 4H13.914L12.1863 1.58119C11.8653 1.13178 11.9694 0.507231 12.4188 0.186222C12.8682 -0.134787 13.4928 -0.0306951 13.8138 0.418717L16.3138 3.91872C16.3327 3.94523 16.3502 3.97236 16.3662 4H19C19.3161 4 19.6136 4.14946 19.8023 4.40307C19.991 4.65668 20.0487 4.98457 19.9578 5.28735L19.5803 6.54595C19.4216 7.07494 18.8641 7.37512 18.3351 7.21643C17.8157 7.0606 17.5168 6.52029 17.6564 6H2.34404L4.74404 14H7.50001C8.05229 14 8.50001 14.4477 8.50001 15C8.50001 15.5523 8.05229 16 7.50001 16H4.00001C3.5584 16 3.16908 15.7103 3.04218 15.2873L0.042182 5.28735C-0.0486503 4.98457 0.00902212 4.65668 0.197715 4.40307C0.386409 4.14946 0.683902 4 1.00001 4H3.63382C3.64982 3.97236 3.66728 3.94523 3.68622 3.91872L6.18622 0.418717C6.50723 -0.0306951 7.13178 -0.134787 7.58119 0.186222Z" fill="#B2B8BF"/>
<path fill-rule="evenodd" clip-rule="evenodd" d="M17.5 8C16.1193 8 15 9.11929 15 10.5C15 11.8807 16.1193 13 17.5 13C18.8807 13 20 11.8807 20 10.5C20 9.11929 18.8807 8 17.5 8ZM17 10.5C17 10.2239 17.2239 10 17.5 10C17.7761 10 18 10.2239 18 10.5C18 10.7761 17.7761 11 17.5 11C17.2239 11 17 10.7761 17 10.5Z" fill="#B2B8BF"/>
<path fill-rule="evenodd" clip-rule="evenodd" d="M11.5 15C10.1193 15 9 16.1193 9 17.5C9 18.8807 10.1193 20 11.5 20C12.8807 20 14 18.8807 14 17.5C14 16.1193 12.8807 15 11.5 15ZM11 17.5C11 17.2239 11.2239 17 11.5 17C11.7761 17 12 17.2239 12 17.5C12 17.7761 11.7761 18 11.5 18C11.2239 18 11 17.7761 11 17.5Z" fill="#B2B8BF"/>
<path d="M11.5 8C12.0523 8 12.5 8.44772 12.5 9V12C12.5 12.5523 12.0523 13 11.5 13C10.9477 13 10.5 12.5523 10.5 12V9C10.5 8.44772 10.9477 8 11.5 8Z" fill="#B2B8BF"/>
<path d="M18.5 16C18.5 15.4477 18.0523 15 17.5 15C16.9477 15 16.5 15.4477 16.5 16V19C16.5 19.5523 16.9477 20 17.5 20C18.0523 20 18.5 19.5523 18.5 19V16Z" fill="#B2B8BF"/>
</svg>
