<svg width="20" height="20" viewBox="0 0 20 20" fill="none" xmlns="http://www.w3.org/2000/svg">
<path fill-rule="evenodd" clip-rule="evenodd" d="M0.197715 6.40316C0.386409 6.14955 0.683902 6.00009 1.00001 6.00009H19C19.5523 6.00009 20 6.44781 20 7.00009C20 7.55238 19.5523 8.00009 19 8.00009H2.34404L4.74404 16.0001H8.00001C8.55229 16.0001 9.00001 16.4478 9.00001 17.0001C9.00001 17.5524 8.55229 18.0001 8.00001 18.0001H4.00001C3.5584 18.0001 3.16908 17.7104 3.04218 17.2874L0.042182 7.28744C-0.0486503 6.98466 0.00902212 6.65677 0.197715 6.40316Z" fill="#B2B8BF"/>
<path fill-rule="evenodd" clip-rule="evenodd" d="M7.58132 2.18634C8.03073 2.50735 8.13482 3.1319 7.81381 3.58132L5.31381 7.08132C4.9928 7.53073 4.36825 7.63482 3.91884 7.31381C3.46943 6.9928 3.36534 6.36825 3.68634 5.91884L6.18634 2.41884C6.50735 1.96943 7.1319 1.86534 7.58132 2.18634Z" fill="#B2B8BF"/>
<path fill-rule="evenodd" clip-rule="evenodd" d="M12.4187 2.18634C11.9693 2.50735 11.8652 3.1319 12.1862 3.58132L14.6862 7.08132C15.0072 7.53073 15.6317 7.63482 16.0812 7.31381C16.5306 6.9928 16.6347 6.36825 16.3137 5.91884L13.8137 2.41884C13.4926 1.96943 12.8681 1.86534 12.4187 2.18634Z" fill="#B2B8BF"/>
<path d="M13.5 15C14.3284 15 15 14.3284 15 13.5C15 12.6716 14.3284 12 13.5 12C12.6716 12 12 12.6716 12 13.5C12 14.3284 12.6716 15 13.5 15Z" fill="#B2B8BF"/>
<path d="M18.5 20C19.3284 20 20 19.3284 20 18.5C20 17.6716 19.3284 17 18.5 17C17.6716 17 17 17.6716 17 18.5C17 19.3284 17.6716 20 18.5 20Z" fill="#B2B8BF"/>
<path d="M14.2071 19.2071L19.2071 14.2071C19.5976 13.8166 19.5976 13.1834 19.2071 12.7929C18.8166 12.4024 18.1834 12.4024 17.7929 12.7929L12.7929 17.7929C12.4024 18.1834 12.4024 18.8166 12.7929 19.2071C13.1834 19.5976 13.8166 19.5976 14.2071 19.2071Z" fill="#B2B8BF"/>
</svg>
