<svg xmlns="http://www.w3.org/2000/svg" width="20" height="20" fill="none" viewBox="0 0 20 20">
    <path fill="#B2B8BF" d="M3 3a1 1 0 0 1 1-1h5a1 1 0 0 0 0-2H4a3 3 0 0 0-3 3v14a3 3 0 0 0 3 3h10a3 3 0 0 0 3-3v-3a1 1 0 1 0-2 0v3a1 1 0 0 1-1 1H4a1 1 0 0 1-1-1V3z"/>
    <path fill="#B2B8BF" d="M6 5a1 1 0 0 0 0 2h1a1 1 0 0 0 0-2H6zM5 10a1 1 0 0 1 1-1h1a1 1 0 1 1 0 2H6a1 1 0 0 1-1-1zM6 13a1 1 0 1 0 0 2h4a1 1 0 1 0 0-2H6z"/>
    <path fill="#B2B8BF" fill-rule="evenodd" d="M12 1a1 1 0 0 1 1-1h2.478c1.338 0 2.293.497 2.872 1.299.538.744.65 1.61.65 2.201v.167c0 .656-.184 1.487-.756 2.173-.6.72-1.53 1.16-2.766 1.16H14v1h1a1 1 0 1 1 0 2h-1v1a1 1 0 1 1-2 0v-1h-1a1 1 0 1 1 0-2h1V7h-1a1 1 0 1 1 0-2h1V1zm2 4V2h1.478c.798 0 1.104.266 1.251.47.19.263.271.646.271 1.03v.167c0 .32-.094.655-.292.892-.168.202-.5.441-1.23.441H14z" clip-rule="evenodd"/>
</svg>
