<svg width="32" height="32" viewBox="0 0 32 32" fill="none" xmlns="http://www.w3.org/2000/svg">
<path fill-rule="evenodd" clip-rule="evenodd" d="M4 24C4 23.4477 4.44772 23 5 23H27C27.5523 23 28 23.4477 28 24C28 24.5523 27.5523 25 27 25H5C4.44772 25 4 24.5523 4 24Z" fill="#B2B8BF"/>
<path fill-rule="evenodd" clip-rule="evenodd" d="M17.3822 7.74314C17.6655 7.40551 18.1689 7.36147 18.5065 7.64478L24.6642 12.8117C25.0018 13.095 25.0459 13.5984 24.7626 13.936L19.9131 19.7153C19.5581 20.1384 19.6133 20.7691 20.0364 21.1241C20.4595 21.4791 21.0902 21.424 21.4452 21.0009L26.2946 15.2216C27.288 14.0378 27.1335 12.2729 25.9498 11.2796L19.7921 6.11269C18.6083 5.11938 16.8434 5.27379 15.8501 6.45757L7.69179 16.1803C6.69848 17.364 6.85289 19.1289 8.03667 20.1222L9.13733 21.0458C9.5604 21.4008 10.1912 21.3456 10.5462 20.9225C10.9012 20.4995 10.846 19.8687 10.4229 19.5137L9.32225 18.5901C8.98461 18.3068 8.94057 17.8035 9.22388 17.4658L17.3822 7.74314Z" fill="#B2B8BF"/>
</svg>
