<svg width="20" height="20" viewBox="0 0 20 20" fill="none" xmlns="http://www.w3.org/2000/svg">
<path fill-rule="evenodd" clip-rule="evenodd" d="M12 2C10.3056 2 8.85488 3.05393 8.27234 4.5456L7.94372 5.38708L7.07328 5.14536C6.73287 5.05083 6.37318 5 6 5C3.79086 5 2 6.79086 2 9C2 10.3078 2.6266 11.469 3.60019 12.2005C4.00999 12.5084 4.47991 12.7388 4.98858 12.8713C5.52304 13.0104 5.84351 13.5565 5.70436 14.091C5.56521 14.6254 5.01914 14.9459 4.48467 14.8068C3.7185 14.6073 3.01254 14.2606 2.39884 13.7995C0.944089 12.7065 0 10.9634 0 9C0 5.68629 2.68629 3 6 3C6.26214 3 6.5207 3.01687 6.77457 3.04965C7.80413 1.22997 9.75747 0 12 0C15.3136 0 17.9998 2.68613 18 5.99971C18.5617 6.42151 19.0315 6.95882 19.3744 7.57679C19.7732 8.29557 20 9.1228 20 10C20 10.5523 19.5523 11 19 11C18.4477 11 18 10.5523 18 10C18 9.47094 17.8639 8.97668 17.6256 8.5472C17.3575 8.06409 16.9595 7.66212 16.4793 7.38926L15.9115 7.06664L15.9786 6.41707C15.9927 6.28028 16 6.14116 16 6C16 3.79086 14.2091 2 12 2Z" fill="#B2B8BF"/>
<path d="M15.5349 11.1262C15.9473 10.7589 15.9839 10.1267 15.6166 9.71432C15.2493 9.30189 14.6172 9.26532 14.2047 9.63264L11.8138 11.762L10.5759 10.8903C10.1243 10.5723 9.50046 10.6806 9.18247 11.1321C8.86448 11.5837 8.97276 12.2075 9.42432 12.5255L11.3108 13.854C11.6907 14.1215 12.2047 14.0921 12.5517 13.7831L15.5349 11.1262Z" fill="#B2B8BF"/>
<path d="M17.4089 12.7602C17.2565 12.2293 16.7026 11.9226 16.1718 12.075C15.6409 12.2274 15.3342 12.7813 15.4866 13.3121C15.5554 13.5519 15.5926 13.8061 15.5926 14.0707C15.5926 15.5849 14.3652 16.8123 12.8511 16.8123C11.435 16.8123 10.2685 15.7378 10.1245 14.3603C10.0671 13.8111 9.57528 13.4123 9.02599 13.4697C8.4767 13.5272 8.07796 14.019 8.13538 14.5683C8.38475 16.9536 10.4002 18.8123 12.8511 18.8123C15.4698 18.8123 17.5926 16.6894 17.5926 14.0707C17.5926 13.6175 17.5288 13.1776 17.4089 12.7602Z" fill="#B2B8BF"/>
</svg>
