<svg width="32" height="32" viewBox="0 0 32 32" fill="none" xmlns="http://www.w3.org/2000/svg">
    <path d="M15.9998 6.2C13.5436 6.2 11.3668 7.39565 10.0192 9.24102C9.69349 9.68703 9.06788 9.78456 8.62187 9.45885C8.17585 9.13314 8.07832 8.50753 8.40403 8.06152C10.112 5.72269 12.8781 4.2 15.9998 4.2C19.1215 4.2 21.8877 5.7227 23.5956 8.06152C23.9213 8.50753 23.8238 9.13314 23.3778 9.45885C22.9318 9.78456 22.3062 9.68703 21.9805 9.24102C20.6328 7.39565 18.456 6.2 15.9998 6.2Z"
          fill="#B2B8BF"/>
    <path fill-rule="evenodd" clip-rule="evenodd"
          d="M8 11C5.79086 11 4 12.7909 4 15V18C4 20.2091 5.79086 22 8 22C9.65685 22 11 20.6569 11 19V14C11 12.3431 9.65685 11 8 11ZM6 15C6 13.8954 6.89543 13 8 13C8.55228 13 9 13.4477 9 14V19C9 19.5523 8.55228 20 8 20C6.89543 20 6 19.1046 6 18V15Z"
          fill="#B2B8BF"/>
    <path fill-rule="evenodd" clip-rule="evenodd"
          d="M24 11C26.2091 11 28 12.7909 28 15V18C28 19.9663 26.5812 21.6012 24.7116 21.9369C23.446 25.0513 20.5575 27.3358 17.0934 27.737C16.7655 27.9051 16.3938 28 16 28C14.6745 28 13.6 26.9255 13.6 25.6C13.6 24.2745 14.6745 23.2 16 23.2C17.2597 23.2 18.2928 24.1706 18.3921 25.4047C20.251 24.7702 21.7774 23.4164 22.6384 21.6739C21.6659 21.1778 21 20.1667 21 19V14C21 12.3431 22.3431 11 24 11ZM26 15C26 13.8954 25.1046 13 24 13C23.4477 13 23 13.4477 23 14V19C23 19.5523 23.4477 20 24 20C25.1046 20 26 19.1046 26 18V15Z"
          fill="#B2B8BF"/>
</svg>