<svg width="20" height="20" viewBox="0 0 20 20" fill="none" xmlns="http://www.w3.org/2000/svg">
<path d="M6.16863 6.96325C6.70062 6.81489 7.0116 6.26336 6.86323 5.73137C6.71487 5.19939 6.16334 4.8884 5.63136 5.03677C4.11438 5.45984 3 6.85084 3 8.50469C3 10.1585 4.11438 11.5495 5.63136 11.9726C6.16334 12.121 6.71487 11.81 6.86323 11.278C7.0116 10.746 6.70062 10.1945 6.16863 10.0461C5.49373 9.85791 5 9.23767 5 8.50469C5 7.77171 5.49373 7.15147 6.16863 6.96325Z" fill="#B2B8BF"/>
<path d="M6.1551 15.8919C5.08366 15.8919 4.03681 15.5631 3.17216 14.9515C2.41673 15.6865 2 16.663 2 17.6685C2 17.7771 2.00522 17.8879 2.01568 18H10.7381C11.2904 18 11.7381 18.4477 11.7381 19C11.7381 19.5523 11.2904 20 10.7381 20H1.66189C0.934281 20 0.246839 19.5007 0.100533 18.7269C0.0346749 18.3772 0 18.0208 0 17.6685C0 15.9495 0.782619 14.3268 2.12008 13.209L2.12154 13.2078C2.7099 12.718 3.57056 12.7137 4.16386 13.1946L4.16575 13.1961C4.71186 13.6409 5.41834 13.8919 6.1551 13.8919C6.70739 13.8919 7.1551 14.3397 7.1551 14.8919C7.1551 15.4442 6.70739 15.8919 6.1551 15.8919Z" fill="#B2B8BF"/>
<path fill-rule="evenodd" clip-rule="evenodd" d="M11 1C11 0.447715 10.5523 0 10 0C9.44771 0 9 0.447715 9 1V1.03504C6.25846 1.22882 4.15344 2.1959 2.69536 3.16795C1.88197 3.71021 1.26909 4.25425 0.855452 4.66789C0.648383 4.87496 0.490422 5.05017 0.381427 5.17733C0.326904 5.24094 0.284548 5.29263 0.254346 5.33038C0.239243 5.34926 0.227169 5.36467 0.218124 5.37635L0.206824 5.39106L0.202875 5.39626L0.201325 5.39831L0.200059 5.4C-0.131312 5.84183 -0.0417689 6.46863 0.400059 6.8C0.841652 7.13119 1.46806 7.04192 1.79957 6.6007L1.81608 6.57977C1.83276 6.55893 1.86071 6.52468 1.89994 6.47892C1.97845 6.38733 2.10173 6.25004 2.26967 6.08211C2.60603 5.74575 3.11815 5.28979 3.80476 4.83205C5.17413 3.91914 7.23437 3 10.0001 3C12.7658 3 14.826 3.91914 16.1954 4.83205C16.5691 5.08118 16.8911 5.32979 17.1612 5.55887L16.0001 5.94591L13.3163 5.05132C13.111 4.98289 12.8891 4.98289 12.6838 5.05132L9.7064 6.04379C9.63384 6.06605 9.56479 6.09633 9.50028 6.13362C9.3834 6.20088 9.28374 6.28987 9.20484 6.39351C9.10658 6.52214 9.03883 6.67532 9.01237 6.84224C9.00299 6.90068 8.99876 6.96028 9 7.02039V13C9 13.9829 9.33369 14.8104 9.91789 15.3946C10.4927 15.9694 11.2526 16.25 12 16.25C12.7474 16.25 13.5073 15.9694 14.0821 15.3946C14.6663 14.8104 15 13.9829 15 13C15 12.4477 14.5523 12 14 12C13.4477 12 13 12.4477 13 13C13 13.5171 12.8337 13.8146 12.6679 13.9804C12.4927 14.1556 12.2526 14.25 12 14.25C11.7474 14.25 11.5073 14.1556 11.3321 13.9804C11.1663 13.8146 11 13.5171 11 13V7.72078L13.0001 7.05409L15.6838 7.94868C15.8891 8.01711 16.111 8.01711 16.3163 7.94868L19.3163 6.94868C19.6212 6.84703 19.8587 6.60499 19.9546 6.29817C20.0504 5.99135 19.9923 5.65636 19.7995 5.3992L19.7972 5.39626L19.7933 5.39106L19.782 5.37635C19.7729 5.36467 19.7609 5.34926 19.7458 5.33038C19.7156 5.29263 19.6732 5.24094 19.6187 5.17733C19.5097 5.05017 19.3517 4.87496 19.1447 4.66789C18.731 4.25425 18.1181 3.71021 17.3048 3.16795C15.8467 2.19588 13.7416 1.2288 11 1.03503V1Z" fill="#B2B8BF"/>
</svg>
