<svg width="32" height="32" viewBox="0 0 32 32" fill="none" xmlns="http://www.w3.org/2000/svg">
<path fill-rule="evenodd" clip-rule="evenodd" d="M16.9291 7.98645C18.1074 5.02668 20.9132 4.27411 22.9329 4.41006C25.6778 4.59482 28.2461 7.51722 27.4591 12.5267C27.0517 15.1203 24.9388 18.3723 22.3658 21.343C20.0877 23.9734 17.5913 26.223 15.9787 27.3975C14.2772 26.2384 11.7804 23.9925 9.52437 21.3486C6.9968 18.3865 4.94987 15.1298 4.54094 12.5267C3.75395 7.51722 6.32226 4.59482 9.06718 4.41006C11.0868 4.27411 13.8926 5.02668 15.0709 7.98645C15.2224 8.36691 15.5905 8.61658 16 8.61658C16.4095 8.61658 16.7776 8.36691 16.9291 7.98645ZM16 5.53479C17.8885 2.90619 20.9618 2.27286 23.0672 2.41457C27.39 2.70554 30.3343 7.11163 29.4349 12.8371C28.933 16.032 26.4747 19.6538 23.8777 22.6524C21.2521 25.6839 18.3 28.2858 16.5492 29.4358C16.228 29.6468 15.8143 29.6551 15.4849 29.4571C13.5543 28.2964 10.5897 25.6782 8.00297 22.6468C5.43695 19.6396 3.06559 16.0225 2.56517 12.8371C1.66571 7.11163 4.61003 2.70554 8.93286 2.41457C11.0382 2.27286 14.1115 2.90619 16 5.53479Z" fill="#B2B8BF"/>
<path d="M17 12C17 11.4477 16.5523 11 16 11C15.4477 11 15 11.4477 15 12V15H12C11.4477 15 11 15.4477 11 16C11 16.5523 11.4477 17 12 17H15V20C15 20.5523 15.4477 21 16 21C16.5523 21 17 20.5523 17 20V17H20C20.5523 17 21 16.5523 21 16C21 15.4477 20.5523 15 20 15H17V12Z" fill="#B2B8BF"/>
</svg>
