<svg width="32" height="32" viewBox="0 0 32 32" fill="none" xmlns="http://www.w3.org/2000/svg">
<path fill-rule="evenodd" clip-rule="evenodd" d="M1.78522 7.46267C1.18319 5.22905 3.22895 3.18328 5.46257 3.78531L18.5992 7.326C21.5642 8.12515 22.5601 11.8289 20.3959 14.0074L18.7094 15.7049C18.3202 16.0967 17.687 16.0987 17.2952 15.7095C16.9034 15.3202 16.9013 14.6871 17.2906 14.2953L18.977 12.5978C20.0592 11.5085 19.5612 9.65666 18.0787 9.25709L4.94209 5.71639C4.19755 5.51572 3.51563 6.19764 3.7163 6.94218L7.257 20.0788C7.65657 21.5613 9.50845 22.0593 10.5977 20.9771L12.2952 19.2907C12.687 18.9014 13.3202 18.9035 13.7094 19.2953C14.0986 19.6871 14.0966 20.3202 13.7048 20.7095L12.0073 22.396C9.82881 24.5602 6.12506 23.5643 5.32591 20.5993L1.78522 7.46267ZM11.5116 13.5119C11.9022 13.1213 12.5353 13.1213 12.9259 13.5119L17.8504 18.4364C18.4599 19.0459 19.448 19.0459 20.0575 18.4364C21.448 17.0459 23.7025 17.0459 25.093 18.4364L30.7659 24.1093C31.1564 24.4998 31.1564 25.133 30.7659 25.5235C30.3754 25.914 29.7422 25.914 29.3517 25.5235L23.6788 19.8506C23.0693 19.2411 22.0812 19.2411 21.4717 19.8506C20.0812 21.2411 17.8267 21.2411 16.4362 19.8506L11.5116 14.9261C11.1211 14.5356 11.1211 13.9024 11.5116 13.5119Z" fill="#B2B8BF"/>
</svg>