<svg width="20" height="20" fill="none" viewBox="0 0 20 20" xmlns="http://www.w3.org/2000/svg">
    <path fill="#B2B8BF" fill-rule="evenodd" d="M6 0a1 1 0 0 1 1 1v1h6V1a1 1 0 1 1 2 0v1h2a3 3 0 0 1 3 3v12a3 3 0 0 1-3 3H3a3 3 0 0 1-3-3V5a3 3 0 0 1 3-3h2V1a1 1 0 0 1 1-1zm7 4v1a1 1 0 1 0 2 0V4h2a1 1 0 0 1 1 1v12a1 1 0 0 1-1 1H3a1 1 0 0 1-1-1V5a1 1 0 0 1 1-1h2v1a1 1 0 0 0 2 0V4h6z" clip-rule="evenodd"/>
    <path fill="#B2B8BF" d="M13.707 9.707a1 1 0 0 0-1.414-1.414l-6 6a1 1 0 1 0 1.414 1.414l6-6zM7.5 11a1.5 1.5 0 1 0 0-3 1.5 1.5 0 0 0 0 3zM12.5 16a1.5 1.5 0 1 0 0-3 1.5 1.5 0 0 0 0 3z"/>
</svg>
