<svg width="20" height="20" viewBox="0 0 20 20" fill="none" xmlns="http://www.w3.org/2000/svg">
<path fill-rule="evenodd" clip-rule="evenodd" d="M9.71445 0.0378955C9.89245 -0.0125534 10.081 -0.0126332 10.259 0.0376651L18.2719 2.30137C18.7026 2.42306 19.0001 2.81613 19.0001 3.26371V8.43367C19.0001 10.8667 17.9479 13.2078 16.3895 15.1763C14.8276 17.1492 12.7091 18.8124 10.4465 19.9011C10.3112 19.9662 10.163 20 10.0129 20H9.9872C9.83708 20 9.68888 19.9662 9.5536 19.9011C7.31872 18.8257 5.22478 17.1901 3.66894 15.2495C2.11654 13.3133 1.05314 11.012 1.00198 8.6138L1.00175 8.60316L1 8.43367L1.00006 3.26371C1.00006 2.81644 1.29706 2.42357 1.72738 2.3016L9.71445 0.0378955ZM9.98758 2.03926L3.00006 4.01968V8.42833L3.00164 8.57627C3.04222 10.4102 3.86567 12.2976 5.22935 13.9985C6.49377 15.5756 8.18264 16.9397 10.0001 17.8879C11.8421 16.9269 13.5518 15.5387 14.8214 13.9349C16.1906 12.2054 17.0001 10.2892 17.0001 8.43367V4.02034L9.98758 2.03926Z" fill="#B2B8BF"/>
<path d="M7.5 8C8.32843 8 9 7.32843 9 6.5C9 5.67157 8.32843 5 7.5 5C6.67157 5 6 5.67157 6 6.5C6 7.32843 6.67157 8 7.5 8Z" fill="#B2B8BF"/>
<path d="M12.5 13C13.3284 13 14 12.3284 14 11.5C14 10.6716 13.3284 10 12.5 10C11.6716 10 11 10.6716 11 11.5C11 12.3284 11.6716 13 12.5 13Z" fill="#B2B8BF"/>
<path d="M8.20711 12.2071L13.2071 7.20711C13.5976 6.81658 13.5976 6.18342 13.2071 5.79289C12.8166 5.40237 12.1834 5.40237 11.7929 5.79289L6.79289 10.7929C6.40237 11.1834 6.40237 11.8166 6.79289 12.2071C7.18342 12.5976 7.81658 12.5976 8.20711 12.2071Z" fill="#B2B8BF"/>
</svg>
