<svg width="20" height="21" viewBox="0 0 20 21" fill="none" xmlns="http://www.w3.org/2000/svg">
<path fill-rule="evenodd" clip-rule="evenodd" d="M1 16.6787C1 16.1264 1.44772 15.6787 2 15.6787H18C18.5523 15.6787 19 16.1264 19 16.6787C19 17.231 18.5523 17.6787 18 17.6787H2C1.44772 17.6787 1 17.231 1 16.6787Z" fill="#B2B8BF"/>
<path fill-rule="evenodd" clip-rule="evenodd" d="M12.2985 4.89058C11.9155 4.56919 11.3445 4.61915 11.0231 5.00216L5.5119 11.5701C5.22535 11.9116 5.23362 12.4046 5.51175 12.7343C5.86786 13.1564 5.81434 13.7873 5.39221 14.1434C4.97007 14.4995 4.33917 14.446 3.98306 14.0239C3.08855 12.9636 3.05745 11.3838 3.97981 10.2846L9.49099 3.71659C10.5224 2.48743 12.3549 2.3271 13.5841 3.35849L17.233 6.42026C18.4621 7.45165 18.6224 9.28419 17.5911 10.5133L14.647 14.0219C14.292 14.445 13.6613 14.5001 13.2382 14.1451C12.8151 13.7901 12.76 13.1594 13.115 12.7363L16.059 9.22777C16.3803 8.84476 16.3304 8.27373 15.9474 7.95235L12.2985 4.89058Z" fill="#B2B8BF"/>
</svg>
