<svg width="20" height="20" viewBox="0 0 20 20" fill="none" xmlns="http://www.w3.org/2000/svg">
<path fill-rule="evenodd" clip-rule="evenodd" d="M15 5C12.2386 5 10 7.23858 10 10C10 11.6358 10.7856 13.0882 12 14.0004V19C12 19.3466 12.1795 19.6684 12.4743 19.8507C12.7691 20.0329 13.1372 20.0494 13.4472 19.8944L15 19.118L16.5528 19.8944C16.8628 20.0494 17.2309 20.0329 17.5257 19.8507C17.8205 19.6684 18 19.3466 18 19V14.0004C19.2144 13.0882 20 11.6358 20 10C20 7.23858 17.7614 5 15 5ZM12 10C12 8.34315 13.3431 7 15 7C16.6569 7 18 8.34315 18 10C18 11.6569 16.6569 13 15 13C13.3431 13 12 11.6569 12 10ZM16 14.9C15.6769 14.9656 15.3425 15 15 15C14.6575 15 14.3231 14.9656 14 14.9V17.382L14.5528 17.1056C14.8343 16.9648 15.1657 16.9648 15.4472 17.1056L16 17.382V14.9Z" fill="#B2B8BF"/>
<path d="M7.34414 0.0611605C7.12181 -0.0203868 6.87776 -0.0203868 6.65543 0.0611605L0.655429 2.26189C0.136922 2.45207 -0.129238 3.02658 0.0609442 3.54508C0.251126 4.06359 0.825632 4.32975 1.34414 4.13957L6.99978 2.06514L12.6554 4.13957C13.1739 4.32975 13.7484 4.06359 13.9386 3.54508C14.1288 3.02658 13.8626 2.45207 13.3441 2.26189L7.34414 0.0611605Z" fill="#B2B8BF"/>
<path d="M0.999756 12C0.447471 12 -0.000244137 12.4477 -0.000244137 13C-0.000244137 13.5523 0.447471 14 0.999756 14H6.99976C7.55204 14 7.99976 13.5523 7.99976 13C7.99976 12.4477 7.55204 12 6.99976 12H0.999756Z" fill="#B2B8BF"/>
<path d="M7.03003 5C7.58231 5 8.03003 5.44772 8.03003 6V9.5C8.03003 10.0523 7.58231 10.5 7.03003 10.5C6.47774 10.5 6.03003 10.0523 6.03003 9.5V6C6.03003 5.44772 6.47774 5 7.03003 5Z" fill="#B2B8BF"/>
<path d="M4.03003 6C4.03003 5.44772 3.58231 5 3.03003 5C2.47774 5 2.03003 5.44772 2.03003 6V9.5C2.03003 10.0523 2.47774 10.5 3.03003 10.5C3.58231 10.5 4.03003 10.0523 4.03003 9.5V6Z" fill="#B2B8BF"/>
</svg>
