<svg width="20" height="20" viewBox="0 0 20 20" fill="none" xmlns="http://www.w3.org/2000/svg">
<path fill-rule="evenodd" clip-rule="evenodd" d="M6.77457 3.04965C7.80413 1.22997 9.75747 0 12 0C15.3136 0 17.9999 2.68618 18 5.99979C19.213 6.91094 20 8.36307 20 10C20 10.5523 19.5523 11 19 11C18.4477 11 18 10.5523 18 10C18 8.88262 17.3896 7.90655 16.4793 7.38926C16.1343 7.19323 15.9378 6.81177 15.9786 6.41708C15.9927 6.28028 16 6.14116 16 6C16 3.79086 14.2091 2 12 2C10.3056 2 8.85488 3.05393 8.27234 4.5456C8.0857 5.02352 7.56765 5.28265 7.07328 5.14537C6.73287 5.05083 6.37318 5 6 5C3.79086 5 2 6.79086 2 9C2 10.934 3.37356 12.5494 5.19893 12.92C5.74018 13.0298 6.08988 13.5577 5.98001 14.0989C5.87015 14.6402 5.34231 14.9899 4.80107 14.88C2.06196 14.324 0 11.9039 0 9C0 5.68629 2.68629 3 6 3C6.26214 3 6.5207 3.01687 6.77457 3.04965Z" fill="#B2B8BF"/>
<path fill-rule="evenodd" clip-rule="evenodd" d="M12.5146 10.1425C12.9882 10.4267 13.1418 11.0409 12.8576 11.5145L11.9663 13H15.034L14.1427 11.5145C13.8585 11.0409 14.0121 10.4267 14.4857 10.1425C14.9592 9.85836 15.5735 10.0119 15.8576 10.4855L17.3576 12.9855C17.3605 12.9903 17.3634 12.9952 17.3662 13H18C18.3393 13 18.6555 13.1721 18.8398 13.457C19.024 13.742 19.0512 14.1009 18.9119 14.4104L16.6619 19.4104C16.5004 19.7692 16.1435 20 15.75 20H11.25C10.8565 20 10.4996 19.7692 10.3381 19.4104L8.08808 14.4104C7.94883 14.1009 7.97601 13.742 8.16025 13.457C8.3445 13.1721 8.66067 13 9 13H9.63412C9.63692 12.9952 9.63977 12.9903 9.64266 12.9855L11.1427 10.4855C11.4268 10.0119 12.0411 9.85836 12.5146 10.1425ZM11.8966 18L10.5466 15H16.4534L15.1034 18H11.8966Z" fill="#B2B8BF"/>
</svg>
