<svg width="32" height="32" viewBox="0 0 32 32" fill="none" xmlns="http://www.w3.org/2000/svg">
<path d="M14.9862 4.00056C15.0776 4.54523 14.7101 5.06085 14.1655 5.15223C8.96374 6.02491 5 10.5506 5 16.0001C5 21.4496 8.96374 25.9753 14.1655 26.848C14.7101 26.9393 15.0776 27.455 14.9862 27.9996C14.8948 28.5443 14.3792 28.9118 13.8345 28.8204C7.68541 27.7888 3 22.4426 3 16.0001C3 9.55761 7.68541 4.21143 13.8345 3.1798C14.3792 3.08842 14.8948 3.45588 14.9862 4.00056Z" fill="#B2B8BF"/>
<path d="M17.0138 4.00056C17.1052 3.45588 17.6208 3.08842 18.1655 3.1798C23.6111 4.0934 27.9067 8.38901 28.8203 13.8346C28.9117 14.3793 28.5442 14.8949 27.9995 14.9863C27.4549 15.0777 26.9392 14.7102 26.8479 14.1656C26.0754 9.56116 22.4389 5.9247 17.8345 5.15223C17.2899 5.06085 16.9224 4.54523 17.0138 4.00056Z" fill="#B2B8BF"/>
<path d="M27.9995 17.0139C28.5442 17.1053 28.9117 17.6209 28.8203 18.1656C27.9067 23.6112 23.6111 27.9068 18.1655 28.8204C17.6208 28.9118 17.1052 28.5443 17.0138 27.9996C16.9224 27.455 17.2899 26.9393 17.8345 26.848C22.4389 26.0755 26.0754 22.439 26.8479 17.8346C26.9392 17.29 27.4549 16.9225 27.9995 17.0139Z" fill="#B2B8BF"/>
<path d="M16 11C14.8954 11 14 11.8954 14 13C14 13.5523 13.5523 14 13 14C12.4477 14 12 13.5523 12 13C12 10.7909 13.7909 9 16 9C18.2091 9 20 10.7909 20 13C20 14.8638 18.7252 16.4299 17 16.874V18C17 18.5523 16.5523 19 16 19C15.4477 19 15 18.5523 15 18V16C15 15.4477 15.4477 15 16 15C17.1046 15 18 14.1046 18 13C18 11.8954 17.1046 11 16 11Z" fill="#B2B8BF"/>
<path d="M16 23C16.5523 23 17 22.5523 17 22C17 21.4477 16.5523 21 16 21C15.4477 21 15 21.4477 15 22C15 22.5523 15.4477 23 16 23Z" fill="#B2B8BF"/>
</svg>
