<svg width="32" height="32" viewBox="0 0 32 32" fill="none" xmlns="http://www.w3.org/2000/svg">
<path fill-rule="evenodd" clip-rule="evenodd" d="M13.8787 4.70726C15.0503 3.53569 16.9497 3.53568 18.1213 4.70726L27.2513 13.8373C28.4229 15.0088 28.4229 16.9083 27.2513 18.0799L18.0797 27.2515C16.9081 28.4231 15.0086 28.4231 13.837 27.2515L4.70704 18.1215C3.53547 16.95 3.53547 15.0505 4.70704 13.8789L13.8787 4.70726ZM16.7071 6.12147C16.3166 5.73095 15.6834 5.73095 15.2929 6.12147L6.12126 15.2931C5.73073 15.6836 5.73073 16.3168 6.12126 16.7073L15.2513 25.8373C15.6418 26.2278 16.275 26.2278 16.6655 25.8373L25.8371 16.6657C26.2276 16.2752 26.2276 15.642 25.8371 15.2515L16.7071 6.12147Z" fill="#B2B8BF"/>
<path fill-rule="evenodd" clip-rule="evenodd" d="M12.5906 12.4645C14.4863 10.5689 17.6545 10.2858 19.6617 12.2931C20.0522 12.6836 20.0522 13.3168 19.6617 13.7073C19.2712 14.0978 18.638 14.0978 18.2475 13.7073C17.1306 12.5903 15.2334 12.6502 14.0048 13.8788C12.8333 15.0503 12.8333 16.9498 14.0048 18.1214C15.2327 19.3493 17.1755 19.4104 18.2931 18.2929C18.6836 17.9023 19.3168 17.9023 19.7073 18.2929C20.0978 18.6834 20.0978 19.3165 19.7073 19.7071C17.7006 21.7137 14.4869 21.4319 12.5906 19.5356C10.638 17.583 10.638 14.4172 12.5906 12.4645Z" fill="#B2B8BF"/>
</svg>
