<svg width="20" height="20" viewBox="0 0 20 20" fill="none" xmlns="http://www.w3.org/2000/svg">
<path fill-rule="evenodd" clip-rule="evenodd" d="M11 1C11 0.447715 10.5523 0 10 0C9.44771 0 9 0.447715 9 1V2.07089C5.60771 2.55612 3 5.47353 3 9V14H2C1.44772 14 1 14.4477 1 15C1 15.5523 1.44772 16 2 16H18C18.5523 16 19 15.5523 19 15C19 14.4477 18.5523 14 18 14H17V9C17 5.47353 14.3923 2.55612 11 2.07089V1ZM15 9V14H5V9C5 6.23858 7.23858 4 10 4C12.7614 4 15 6.23858 15 9Z" fill="#B2B8BF"/>
<path fill-rule="evenodd" clip-rule="evenodd" d="M7.76702 17.1344C8.24508 16.8578 8.85681 17.0212 9.13335 17.4993C9.30776 17.8008 9.6313 18 10.0002 18C10.3691 18 10.6926 17.8008 10.867 17.4993C11.1436 17.0212 11.7553 16.8578 12.2333 17.1344C12.7114 17.4109 12.8748 18.0227 12.5982 18.5007C12.081 19.3948 11.1119 20 10.0002 20C8.8885 20 7.91934 19.3948 7.40214 18.5007C7.1256 18.0227 7.28896 17.4109 7.76702 17.1344Z" fill="#B2B8BF"/>
</svg>
