<svg width="22" height="21" viewBox="0 0 22 21" fill="none" xmlns="http://www.w3.org/2000/svg">
<path fill-rule="evenodd" clip-rule="evenodd" d="M1.08359 4.57175C0.605988 2.8317 2.22652 1.31061 3.91553 1.75764L12.552 4.04348C14.7441 4.62366 15.5156 7.34478 13.885 8.95647C13.4922 9.34471 12.8591 9.34102 12.4708 8.94823C12.0826 8.55544 12.0863 7.92228 12.4791 7.53404C12.9828 7.03615 12.7721 6.17061 12.0403 5.97691L3.40381 3.69107C3.13487 3.61989 2.96213 3.85976 3.01226 4.04238L5.34003 12.5233C5.52779 13.2073 6.43009 13.4706 6.9718 12.9421C7.36712 12.5564 8.00024 12.5642 8.3859 12.9596C8.77157 13.3549 8.76375 13.988 8.36843 14.3737C6.76186 15.941 4.01169 15.2398 3.41136 13.0526L1.08359 4.57175ZM7.559 8.13623C7.94596 7.74217 8.5791 7.73642 8.97316 8.12338L12.2107 11.3026C12.4792 11.5662 12.9218 11.5662 13.1902 11.3026C14.2366 10.275 15.9259 10.275 16.9723 11.3026L20.7019 14.965C21.0959 15.3519 21.1017 15.9851 20.7147 16.3791C20.3278 16.7732 19.6946 16.7789 19.3006 16.392L15.571 12.7296C15.3026 12.466 14.8599 12.466 14.5915 12.7296C13.5451 13.7572 11.8559 13.7572 10.8094 12.7296L7.57186 9.55039C7.1778 9.16343 7.17205 8.53029 7.559 8.13623Z" fill="#B2B8BF"/>
</svg>
