<svg width="32" height="32" viewBox="0 0 32 32" fill="none" xmlns="http://www.w3.org/2000/svg">
<path fill-rule="evenodd" clip-rule="evenodd" d="M12.3329 7C12.7718 5.38644 14.2473 4.19995 16 4.19995C17.7526 4.19995 19.2281 5.38644 19.667 7H12.3329ZM10.2858 7C10.7597 4.27327 13.1377 2.19995 16 2.19995C18.8622 2.19995 21.2402 4.27327 21.7141 7H24C25.1046 7 26 7.89543 26 9V25C26 26.1046 25.1046 27 24 27H23.5C22.9477 27 22.5 26.5523 22.5 26C22.5 25.4477 22.9477 25 23.5 25H24V9H8V21C8 21.5523 7.55228 22 7 22C6.44772 22 6 21.5523 6 21V9C6 7.89543 6.89543 7 8 7H10.2858ZM16.3541 15.5648C16.7429 15.712 17 16.0843 17 16.5V22.0858L20.2071 25.2929C20.4931 25.5789 20.5787 26.009 20.4239 26.3827C20.2691 26.7564 19.9045 27 19.5 27H7.59999C7.20668 27 6.84988 26.7694 6.68829 26.4108C6.5267 26.0523 6.59031 25.6322 6.85085 25.3376L15.2508 15.8376C15.5262 15.5262 15.9654 15.4176 16.3541 15.5648ZM9.81905 25H17.0858L15.2929 23.2071C15.1053 23.0196 15 22.7652 15 22.5V19.1406L9.81905 25Z" fill="#B2B8BF"/>
</svg>
