<svg width="32" height="32" viewBox="0 0 32 32" fill="none" xmlns="http://www.w3.org/2000/svg">
<g clip-path="url(#clip0_202_947)">
<rect x="2" y="6" width="28" height="20" rx="2.5" fill="url(#paint0_linear_202_947)"/>
<mask id="mask0_202_947" style="mask-type:luminance" maskUnits="userSpaceOnUse" x="2" y="6" width="28" height="20">
<rect x="2" y="6" width="28" height="20" rx="2.5" fill="white"/>
</mask>
<g mask="url(#mask0_202_947)">
<circle cx="7.5" cy="11.5" r="2.5" fill="white" fill-opacity="0.6"/>
<rect x="20" y="18" width="7" height="5" rx="2.5" fill="#F79E1B"/>
<rect x="17" y="18" width="7" height="5" rx="2.5" fill="#EB001B"/>
<path d="M22 18.05C23.1411 18.2816 24 19.2907 24 20.5002C23.9999 21.7082 23.143 22.7163 22.0039 22.9494H21.9961C20.857 22.7163 20.0001 21.7082 20 20.5002C20 19.2907 20.8589 18.2816 22 18.05Z" fill="#FF5F00"/>
<path d="M2 13.2288L9.01995 17.1183L30 5V9.8774L9.00539 22L2 18.1062V13.2288Z" fill="white" fill-opacity="0.438265"/>
</g>
</g>
<defs>
<linearGradient id="paint0_linear_202_947" x1="30" y1="16.0645" x2="2" y2="16.0645" gradientUnits="userSpaceOnUse">
<stop stop-color="#CED1D5"/>
<stop offset="1" stop-color="#E4E8EB"/>
</linearGradient>
<clipPath id="clip0_202_947">
<rect width="28" height="20" fill="white" transform="translate(2 6)"/>
</clipPath>
</defs>
</svg>
