<svg width="32" height="32" viewBox="0 0 32 32" fill="none" xmlns="http://www.w3.org/2000/svg">
<path fill-rule="evenodd" clip-rule="evenodd" d="M17.5 10C19.433 10 21 11.567 21 13.5C21 15.433 19.433 17 17.5 17H16V18H16.9883C17.5406 18 17.9883 18.4477 17.9883 19C17.9883 19.5523 17.5406 20 16.9883 20H16V21C16 21.5523 15.5523 22 15 22C14.4477 22 14 21.5523 14 21V20H13C12.4477 20 12 19.5523 12 19C12 18.4477 12.4477 18 13 18H14V17H13C12.4477 17 12 16.5523 12 16C12 15.4477 12.4477 15 13 15H14V11L14.0049 10.8975C14.0562 10.3933 14.4823 10 15 10H17.5ZM16 15H17.5C18.3284 15 19 14.3284 19 13.5C19 12.6716 18.3284 12 17.5 12H16V15Z" fill="#1F1F22"/>
<path fill-rule="evenodd" clip-rule="evenodd" d="M21 3C25.4183 3 29 6.58172 29 11V21C29 25.4183 25.4183 29 21 29H11C6.58172 29 3 25.4183 3 21V11C3 6.58172 6.58172 3 11 3H21ZM11 5C7.68629 5 5 7.68629 5 11V21C5 24.3137 7.68629 27 11 27H21C24.3137 27 27 24.3137 27 21V11C27 7.68629 24.3137 5 21 5H11Z" fill="#1F1F22"/>
</svg>
