<svg width="32" height="32" viewBox="0 0 32 32" fill="none" xmlns="http://www.w3.org/2000/svg">
<path d="M16.5 13.5C17.0523 13.5 17.5 13.9477 17.5 14.5C17.5 15.0523 17.0523 15.5 16.5 15.5H13.2803L12.8447 17.2422C12.7108 17.7779 12.1685 18.1035 11.6328 17.9697C11.0971 17.8358 10.7715 17.2935 10.9053 16.7578L11.5303 14.2578C11.6416 13.8127 12.0411 13.5 12.5 13.5H16.5Z" fill="#1F1F22"/>
<path fill-rule="evenodd" clip-rule="evenodd" d="M19.9385 11C21.315 11.0001 22.5148 11.937 22.8486 13.2725L24.1592 18.5146C24.4747 19.7769 23.5198 20.9999 22.2188 21H9.78125C8.48011 21 7.52525 19.7769 7.84082 18.5146L9.15137 13.2725C9.48525 11.937 10.6849 11 12.0615 11H19.9385ZM12.0615 13C11.6027 13 11.2031 13.3127 11.0918 13.7578L9.78125 19H22.2188L20.9082 13.7578C20.7969 13.3127 20.3973 13.0001 19.9385 13H12.0615Z" fill="#1F1F22"/>
<path fill-rule="evenodd" clip-rule="evenodd" d="M21 3C25.4183 3 29 6.58172 29 11V21C29 25.4183 25.4183 29 21 29H11C6.58172 29 3 25.4183 3 21V11C3 6.58172 6.58172 3 11 3H21ZM11 5C7.68629 5 5 7.68629 5 11V21C5 24.3137 7.68629 27 11 27H21C24.3137 27 27 24.3137 27 21V11C27 7.68629 24.3137 5 21 5H11Z" fill="#1F1F22"/>
</svg>
