<svg width="32" height="32" viewBox="0 0 32 32" fill="none" xmlns="http://www.w3.org/2000/svg">
<path fill-rule="evenodd" clip-rule="evenodd" d="M16 10C17.933 10 19.5 11.567 19.5 13.5C19.5 14.257 19.2581 14.9567 18.8496 15.5293C19.8403 16.1474 20.5 17.2463 20.5 18.5C20.5 20.433 18.933 22 17 22H13.5C12.9477 22 12.5 21.5523 12.5 21V11C12.5 10.4477 12.9477 10 13.5 10H16ZM14.5 20H17C17.8284 20 18.5 19.3284 18.5 18.5C18.5 17.6716 17.8284 17 17 17H14.5V20ZM14.5 15H16C16.8284 15 17.5 14.3284 17.5 13.5C17.5 12.6716 16.8284 12 16 12H14.5V15Z" fill="#1F1F22"/>
<path fill-rule="evenodd" clip-rule="evenodd" d="M21 3C25.4183 3 29 6.58172 29 11V21C29 25.4183 25.4183 29 21 29H11C6.58172 29 3 25.4183 3 21V11C3 6.58172 6.58172 3 11 3H21ZM11 5C7.68629 5 5 7.68629 5 11V21C5 24.3137 7.68629 27 11 27H21C24.3137 27 27 24.3137 27 21V11C27 7.68629 24.3137 5 21 5H11Z" fill="#1F1F22"/>
</svg>
