<svg width="32" height="32" viewBox="0 0 32 32" fill="none" xmlns="http://www.w3.org/2000/svg">
<path fill-rule="evenodd" clip-rule="evenodd" d="M13.5 10C15.433 10 17 11.567 17 13.5C17 15.433 15.433 17 13.5 17H12V21C12 21.5523 11.5523 22 11 22C10.4477 22 10 21.5523 10 21V11C10 10.4477 10.4477 10 11 10H13.5ZM12 15H13.5C14.3284 15 15 14.3284 15 13.5C15 12.6716 14.3284 12 13.5 12H12V15Z" fill="#1F1F22"/>
<path d="M19 12C19.5523 12 20 12.4477 20 13V15H20.5C21.0523 15 21.5 15.4477 21.5 16C21.5 16.5523 21.0523 17 20.5 17H20V19C20 19.5177 20.3933 19.9438 20.8975 19.9951L21.1025 20.0049C21.6067 20.0562 22 20.4823 22 21C22 21.5523 21.5523 22 21 22C19.3432 22 18 20.6569 18 19V17C17.4477 17 17 16.5523 17 16C17 15.4477 17.4477 15 18 15V13C18 12.4477 18.4477 12 19 12Z" fill="#1F1F22"/>
<path fill-rule="evenodd" clip-rule="evenodd" d="M21 3C25.4183 3 29 6.58172 29 11V21C29 25.4183 25.4183 29 21 29H11C6.58172 29 3 25.4183 3 21V11C3 6.58172 6.58172 3 11 3H21ZM11 5C7.68629 5 5 7.68629 5 11V21C5 24.3137 7.68629 27 11 27H21C24.3137 27 27 24.3137 27 21V11C27 7.68629 24.3137 5 21 5H11Z" fill="#1F1F22"/>
</svg>
