<svg width="32" height="32" viewBox="0 0 32 32" fill="none" xmlns="http://www.w3.org/2000/svg">
<path d="M16.5 10C17.8496 10 19.0977 10.4469 20.1006 11.2002C20.5421 11.5319 20.6315 12.159 20.2998 12.6006C19.9681 13.0421 19.341 13.1305 18.8994 12.7988C18.231 12.2968 17.4016 12 16.5 12C14.2909 12 12.5 13.7909 12.5 16C12.5 18.2091 14.2909 20 16.5 20C17.4016 20 18.231 19.7032 18.8994 19.2012C19.341 18.8695 19.9681 18.9579 20.2998 19.3994C20.6315 19.841 20.5421 20.4681 20.1006 20.7998C19.0977 21.5531 17.8496 22 16.5 22C13.1863 22 10.5 19.3137 10.5 16C10.5 12.6863 13.1863 10 16.5 10Z" fill="#1F1F22"/>
<path fill-rule="evenodd" clip-rule="evenodd" d="M21 3C25.4183 3 29 6.58172 29 11V21C29 25.4183 25.4183 29 21 29H11C6.58172 29 3 25.4183 3 21V11C3 6.58172 6.58172 3 11 3H21ZM11 5C7.68629 5 5 7.68629 5 11V21C5 24.3137 7.68629 27 11 27H21C24.3137 27 27 24.3137 27 21V11C27 7.68629 24.3137 5 21 5H11Z" fill="#1F1F22"/>
</svg>
