<svg width="20" height="20" viewBox="0 0 20 20" fill="none" xmlns="http://www.w3.org/2000/svg">
<path fill-rule="evenodd" clip-rule="evenodd" d="M11 5C12.6569 5 14 6.34315 14 8C14 9.65685 12.6569 11 11 11H10V11.5H10.5C11.0523 11.5 11.5 11.9477 11.5 12.5C11.5 13.0523 11.0523 13.5 10.5 13.5H10V14C10 14.5523 9.55229 15 9 15C8.44771 15 8 14.5523 8 14V13.5H7.5C6.94772 13.5 6.5 13.0523 6.5 12.5C6.5 11.9477 6.94772 11.5 7.5 11.5H8V11H7.5C6.94772 11 6.5 10.5523 6.5 10C6.5 9.44771 6.94772 9 7.5 9H8V6L8.00488 5.89746C8.05621 5.39333 8.48232 5 9 5H11ZM10 9H11C11.5523 9 12 8.55228 12 8C12 7.44772 11.5523 7 11 7H10V9Z" fill="#1F1F22"/>
<path fill-rule="evenodd" clip-rule="evenodd" d="M10 0C15.5228 0 20 4.47715 20 10C20 15.5228 15.5228 20 10 20C4.47715 20 0 15.5228 0 10C0 4.47715 4.47715 0 10 0ZM10 2C5.58172 2 2 5.58172 2 10C2 14.4183 5.58172 18 10 18C14.4183 18 18 14.4183 18 10C18 5.58172 14.4183 2 10 2Z" fill="#1F1F22"/>
</svg>
