<svg width="32" height="32" viewBox="0 0 32 32" fill="none" xmlns="http://www.w3.org/2000/svg">
<path d="M13 10C13.5523 10 14 10.4477 14 11V21C14 21.5523 13.5523 22 13 22C12.4477 22 12 21.5523 12 21V11C12 10.4477 12.4477 10 13 10Z" fill="#1F1F22"/>
<path d="M19 15.5C20.2158 15.5 21.2604 16.2233 21.7314 17.2588C21.9601 17.7615 21.7381 18.3544 21.2354 18.583C20.7326 18.8116 20.1398 18.5896 19.9111 18.0869C19.7528 17.7388 19.4033 17.5 19 17.5C18.4823 17.5 18.0562 17.8933 18.0049 18.3975L18 18.5V21C18 21.5523 17.5523 22 17 22C16.4477 22 16 21.5523 16 21V16.5C16 15.9477 16.4477 15.5 17 15.5C17.2769 15.5 17.5269 15.6131 17.708 15.7949C18.0996 15.6076 18.5369 15.5 19 15.5Z" fill="#1F1F22"/>
<path fill-rule="evenodd" clip-rule="evenodd" d="M21 3C25.4183 3 29 6.58172 29 11V21C29 25.4183 25.4183 29 21 29H11C6.58172 29 3 25.4183 3 21V11C3 6.58172 6.58172 3 11 3H21ZM11 5C7.68629 5 5 7.68629 5 11V21C5 24.3137 7.68629 27 11 27H21C24.3137 27 27 24.3137 27 21V11C27 7.68629 24.3137 5 21 5H11Z" fill="#1F1F22"/>
</svg>
