<svg width="32" height="32" viewBox="0 0 32 32" fill="none" xmlns="http://www.w3.org/2000/svg">
<path fill-rule="evenodd" clip-rule="evenodd" d="M12.5 10C12.9249 10 13.304 10.2688 13.4443 10.6699L16.9443 20.6699C17.1265 21.1911 16.8512 21.7619 16.3301 21.9443C15.8089 22.1265 15.2381 21.8512 15.0557 21.3301L14.2402 19H10.7598L9.94434 21.3301C9.76193 21.8512 9.19109 22.1265 8.66992 21.9443C8.14881 21.7619 7.87351 21.1911 8.05566 20.6699L11.5557 10.6699C11.696 10.2689 12.0751 10 12.5 10ZM11.46 17H13.54L12.5 14.0273L11.46 17Z" fill="#1F1F22"/>
<path d="M23 15.5C23.5523 15.5 24 15.9477 24 16.5V21C24 21.5523 23.5523 22 23 22C22.7226 22 22.4722 21.8865 22.291 21.7041C21.8995 21.8913 21.4629 22 21 22C19.3949 22 18.0842 20.7394 18.0039 19.1543L18 19V16.5C18 15.9477 18.4477 15.5 19 15.5C19.5523 15.5 20 15.9477 20 16.5V19L20.0049 19.1025C20.0562 19.6067 20.4823 20 21 20C21.5177 20 21.9438 19.6067 21.9951 19.1025L22 19V16.5C22 15.9477 22.4477 15.5 23 15.5Z" fill="#1F1F22"/>
<path fill-rule="evenodd" clip-rule="evenodd" d="M21 3C25.4183 3 29 6.58172 29 11V21C29 25.4183 25.4183 29 21 29H11C6.58172 29 3 25.4183 3 21V11C3 6.58172 6.58172 3 11 3H21ZM11 5C7.68629 5 5 7.68629 5 11V21C5 24.3137 7.68629 27 11 27H21C24.3137 27 27 24.3137 27 21V11C27 7.68629 24.3137 5 21 5H11Z" fill="#1F1F22"/>
</svg>
