<svg width="32" height="32" viewBox="0 0 32 32" fill="none" xmlns="http://www.w3.org/2000/svg">
<path d="M11.4277 10C12.807 10.0002 13.6677 10.7371 14.2236 11.293C14.614 11.6835 14.614 12.3165 14.2236 12.707C13.8332 13.0975 13.2001 13.0974 12.8096 12.707C12.3656 12.2631 11.9942 12.0001 11.4277 12C11.0575 12 10.6077 12.1731 10.3154 12.4795C10.065 12.7422 9.89821 13.1286 10.0693 13.7295C10.1395 13.9754 10.2997 14.1803 10.6318 14.3965C10.9951 14.6329 11.4472 14.812 12.0371 15.0566C13.0218 15.465 14.6145 16.1112 14.9668 17.8682L14.9961 18.042L15.001 18.0742C15.1636 19.4907 14.5865 20.5246 13.7773 21.1641C13.0243 21.759 12.0949 21.9999 11.4277 22C10.0628 22 8.98497 21.4369 8.2832 20.6797C7.90783 20.2746 7.93183 19.642 8.33691 19.2666C8.74201 18.8913 9.37465 18.9153 9.75 19.3203C10.0887 19.6858 10.6419 20 11.4277 20C11.6939 19.9999 12.1738 19.8817 12.5371 19.5947C12.8422 19.3537 13.0867 18.9856 13.0146 18.3184C12.9165 17.703 12.4442 17.3896 11.2715 16.9033C10.7617 16.6919 10.0972 16.4342 9.54102 16.0723C8.95395 15.6901 8.39079 15.1348 8.14648 14.2783C7.77664 12.9807 8.13842 11.8641 8.86719 11.0996C9.55422 10.3789 10.5359 10 11.4277 10Z" fill="#1F1F22"/>
<path d="M21.5 15.5C22.8457 15.5 23.9393 16.5633 23.9941 17.8955C23.9977 17.9299 24 17.9647 24 18V21C24 21.5523 23.5523 22 23 22C22.4477 22 22 21.5523 22 21V18C22 17.7239 21.7761 17.5 21.5 17.5C21.2239 17.5 21 17.7239 21 18V21C21 21.5523 20.5523 22 20 22C19.4477 22 19 21.5523 19 21V18C19 17.7239 18.7761 17.5 18.5 17.5C18.2239 17.5 18 17.7239 18 18V21C18 21.5523 17.5523 22 17 22C16.4477 22 16 21.5523 16 21V18C16 17.9647 16.0013 17.9298 16.0049 17.8955C16.0597 16.5633 17.1543 15.5 18.5 15.5C19.0635 15.5 19.5819 15.6884 20 16.0029C20.4181 15.6884 20.9365 15.5 21.5 15.5Z" fill="#1F1F22"/>
<path fill-rule="evenodd" clip-rule="evenodd" d="M21 3C25.4183 3 29 6.58172 29 11V21C29 25.4183 25.4183 29 21 29H11C6.58172 29 3 25.4183 3 21V11C3 6.58172 6.58172 3 11 3H21ZM11 5C7.68629 5 5 7.68629 5 11V21C5 24.3137 7.68629 27 11 27H21C24.3137 27 27 24.3137 27 21V11C27 7.68629 24.3137 5 21 5H11Z" fill="#1F1F22"/>
</svg>
