<svg width="32" height="32" viewBox="0 0 32 32" fill="none" xmlns="http://www.w3.org/2000/svg">
<path d="M12.4854 10.1426C12.9589 9.85851 13.5732 10.0119 13.8574 10.4854L15.999 14.0557L18.1426 10.4854C18.4268 10.0119 19.0411 9.85851 19.5146 10.1426C19.9881 10.4268 20.1415 11.0411 19.8574 11.5146L17.7666 15H18C18.5523 15 19 15.4477 19 16C19 16.5523 18.5523 17 18 17H17V18H18C18.5523 18 19 18.4477 19 19C19 19.5523 18.5523 20 18 20H17V21C17 21.5523 16.5523 22 16 22C15.4477 22 15 21.5523 15 21V20H14C13.4477 20 13 19.5523 13 19C13 18.4477 13.4477 18 14 18H15V17H14C13.4477 17 13 16.5523 13 16C13 15.4477 13.4477 15 14 15H14.2334L12.1426 11.5146C11.8585 11.0411 12.0119 10.4268 12.4854 10.1426Z" fill="#1F1F22"/>
<path fill-rule="evenodd" clip-rule="evenodd" d="M21 3C25.4183 3 29 6.58172 29 11V21C29 25.4183 25.4183 29 21 29H11C6.58172 29 3 25.4183 3 21V11C3 6.58172 6.58172 3 11 3H21ZM11 5C7.68629 5 5 7.68629 5 11V21C5 24.3137 7.68629 27 11 27H21C24.3137 27 27 24.3137 27 21V11C27 7.68629 24.3137 5 21 5H11Z" fill="#1F1F22"/>
</svg>
