<svg width="32" height="32" viewBox="0 0 32 32" fill="none" xmlns="http://www.w3.org/2000/svg">
<path fill-rule="evenodd" clip-rule="evenodd" d="M13.5 10C15.433 10 17 11.567 17 13.5C17 15.433 15.433 17 13.5 17H12V21C12 21.5523 11.5523 22 11 22C10.4477 22 10 21.5523 10 21V11C10 10.4477 10.4477 10 11 10H13.5ZM12 15H13.5C14.3284 15 15 14.3284 15 13.5C15 12.6716 14.3284 12 13.5 12H12V15Z" fill="#1F1F22"/>
<path fill-rule="evenodd" clip-rule="evenodd" d="M21 12C21.5523 12 22 12.4477 22 13V21C22 21.5523 21.5523 22 21 22C20.7226 22 20.4722 21.8865 20.291 21.7041C19.8995 21.8913 19.4629 22 19 22C17.3431 22 16 20.6569 16 19C16 17.3431 17.3431 16 19 16C19.351 16 19.6869 16.0631 20 16.1738V13C20 12.4477 20.4477 12 21 12ZM19 18C18.4477 18 18 18.4477 18 19C18 19.5523 18.4477 20 19 20C19.5523 20 20 19.5523 20 19C20 18.4477 19.5523 18 19 18Z" fill="#1F1F22"/>
<path fill-rule="evenodd" clip-rule="evenodd" d="M21 3C25.4183 3 29 6.58172 29 11V21C29 25.4183 25.4183 29 21 29H11C6.58172 29 3 25.4183 3 21V11C3 6.58172 6.58172 3 11 3H21ZM11 5C7.68629 5 5 7.68629 5 11V21C5 24.3137 7.68629 27 11 27H21C24.3137 27 27 24.3137 27 21V11C27 7.68629 24.3137 5 21 5H11Z" fill="#1F1F22"/>
</svg>
