<svg width="32" height="32" viewBox="0 0 32 32" fill="none" xmlns="http://www.w3.org/2000/svg">
<path fill-rule="evenodd" clip-rule="evenodd" d="M17.5 10C19.433 10 21 11.567 21 13.5C21 15.433 19.433 17 17.5 17H16V18H16.9883C17.5406 18 17.9883 18.4477 17.9883 19C17.9883 19.5523 17.5406 20 16.9883 20H16V21C16 21.5523 15.5523 22 15 22C14.4477 22 14 21.5523 14 21V20H13C12.4477 20 12 19.5523 12 19C12 18.4477 12.4477 18 13 18H14V17H13C12.4477 17 12 16.5523 12 16C12 15.4477 12.4477 15 13 15H14V11L14.0049 10.8975C14.0562 10.3933 14.4823 10 15 10H17.5ZM16 15H17.5C18.3284 15 19 14.3284 19 13.5C19 12.6716 18.3284 12 17.5 12H16V15Z" fill="#1F1F22"/>
<path fill-rule="evenodd" clip-rule="evenodd" d="M16 3C23.1797 3 29 8.8203 29 16C29 23.1797 23.1797 29 16 29C8.8203 29 3 23.1797 3 16C3 8.8203 8.8203 3 16 3ZM16 5C9.92487 5 5 9.92487 5 16C5 22.0751 9.92487 27 16 27C22.0751 27 27 22.0751 27 16C27 9.92487 22.0751 5 16 5Z" fill="#1F1F22"/>
</svg>
