<svg width="32" height="32" viewBox="0 0 32 32" fill="none" xmlns="http://www.w3.org/2000/svg">
<path fill-rule="evenodd" clip-rule="evenodd" d="M15 10C18.3137 10 21 12.6863 21 16C21 19.3137 18.3137 22 15 22H13.5C13.4654 22 13.4312 21.9985 13.3975 21.9951C12.8933 21.9438 12.5 21.5177 12.5 21V11C12.5 10.4477 12.9477 10 13.5 10H15ZM14.5 20H15C17.2091 20 19 18.2091 19 16C19 13.7909 17.2091 12 15 12H14.5V20Z" fill="#1F1F22"/>
<path fill-rule="evenodd" clip-rule="evenodd" d="M21 3C25.4183 3 29 6.58172 29 11V21C29 25.4183 25.4183 29 21 29H11C6.58172 29 3 25.4183 3 21V11C3 6.58172 6.58172 3 11 3H21ZM11 5C7.68629 5 5 7.68629 5 11V21C5 24.3137 7.68629 27 11 27H21C24.3137 27 27 24.3137 27 21V11C27 7.68629 24.3137 5 21 5H11Z" fill="#1F1F22"/>
</svg>
