<svg width="32" height="32" viewBox="0 0 32 32" fill="none" xmlns="http://www.w3.org/2000/svg">
<path d="M16 10C16.5523 10 17 10.4477 17 11V12.083C17.6141 12.1887 18.1659 12.3965 18.6504 12.7148C19.3844 13.1972 19.8862 13.878 20.2266 14.6445C20.8844 16.126 21 18.0724 21 20C21 20.5523 20.5523 21 20 21C19.4477 21 19 20.5523 19 20C19 18.0616 18.8656 16.5081 18.3984 15.4561C18.1763 14.9559 17.8967 14.6118 17.5527 14.3857C17.3997 14.2852 17.218 14.1989 17 14.1328V21C17 21.5523 16.5523 22 16 22C15.4477 22 15 21.5523 15 21V14.1328C14.782 14.1989 14.6003 14.2852 14.4473 14.3857C14.1033 14.6118 13.8237 14.9559 13.6016 15.4561C13.1344 16.5081 13 18.0616 13 20C13 20.5523 12.5523 21 12 21C11.4477 21 11 20.5523 11 20C11 18.0724 11.1156 16.126 11.7734 14.6445C12.1138 13.878 12.6156 13.1972 13.3496 12.7148C13.8341 12.3965 14.3859 12.1887 15 12.083V11C15 10.4477 15.4477 10 16 10Z" fill="#1F1F22"/>
<path fill-rule="evenodd" clip-rule="evenodd" d="M21 3C25.4183 3 29 6.58172 29 11V21C29 25.4183 25.4183 29 21 29H11C6.58172 29 3 25.4183 3 21V11C3 6.58172 6.58172 3 11 3H21ZM11 5C7.68629 5 5 7.68629 5 11V21C5 24.3137 7.68629 27 11 27H21C24.3137 27 27 24.3137 27 21V11C27 7.68629 24.3137 5 21 5H11Z" fill="#1F1F22"/>
</svg>
