<svg width="32" height="32" viewBox="0 0 32 32" fill="none" xmlns="http://www.w3.org/2000/svg">
<path fill-rule="evenodd" clip-rule="evenodd" d="M16 10C16.4249 10 16.804 10.2688 16.9443 10.6699L20.4443 20.6699C20.6265 21.1911 20.3512 21.7619 19.8301 21.9443C19.3089 22.1265 18.7381 21.8512 18.5557 21.3301L17.7402 19H14.2598L13.4443 21.3301C13.2619 21.8512 12.6911 22.1265 12.1699 21.9443C11.6488 21.7619 11.3735 21.1911 11.5557 20.6699L15.0557 10.6699C15.196 10.2689 15.5751 10 16 10ZM14.96 17H17.04L16 14.0273L14.96 17Z" fill="#1F1F22"/>
<path fill-rule="evenodd" clip-rule="evenodd" d="M21 3C25.4183 3 29 6.58172 29 11V21C29 25.4183 25.4183 29 21 29H11C6.58172 29 3 25.4183 3 21V11C3 6.58172 6.58172 3 11 3H21ZM11 5C7.68629 5 5 7.68629 5 11V21C5 24.3137 7.68629 27 11 27H21C24.3137 27 27 24.3137 27 21V11C27 7.68629 24.3137 5 21 5H11Z" fill="#1F1F22"/>
</svg>
