<svg width="32" height="32" viewBox="0 0 32 32" fill="none" xmlns="http://www.w3.org/2000/svg">
<path fill-rule="evenodd" clip-rule="evenodd" d="M23 16C23.5523 16 24 16.4477 24 17V22C24 23.6569 22.6569 25 21 25H20C19.4477 25 19 24.5523 19 24C19 23.4477 19.4477 23 20 23H21C21.5523 23 22 22.5523 22 22V21.8252C21.6869 21.936 21.3511 22 21 22C19.3431 22 18 20.6569 18 19C18 17.3431 19.3431 16 21 16C21.4628 16 21.8996 16.1078 22.291 16.2949C22.4721 16.1128 22.7229 16 23 16ZM21 18C20.4477 18 20 18.4477 20 19C20 19.5523 20.4477 20 21 20C21.5523 20 22 19.5523 22 19C22 18.4477 21.5523 18 21 18Z" fill="#1F1F22"/>
<path fill-rule="evenodd" clip-rule="evenodd" d="M12.5 10C12.9249 10 13.304 10.2688 13.4443 10.6699L16.9443 20.6699C17.1265 21.1911 16.8512 21.7619 16.3301 21.9443C15.8089 22.1265 15.2381 21.8512 15.0557 21.3301L14.2402 19H10.7598L9.94434 21.3301C9.76193 21.8512 9.19109 22.1265 8.66992 21.9443C8.14881 21.7619 7.87351 21.1911 8.05566 20.6699L11.5557 10.6699C11.696 10.2689 12.0751 10 12.5 10ZM11.46 17H13.54L12.5 14.0273L11.46 17Z" fill="#1F1F22"/>
<path fill-rule="evenodd" clip-rule="evenodd" d="M21 3C25.4183 3 29 6.58172 29 11V21C29 25.4183 25.4183 29 21 29H11C6.58172 29 3 25.4183 3 21V11C3 6.58172 6.58172 3 11 3H21ZM11 5C7.68629 5 5 7.68629 5 11V21C5 24.3137 7.68629 27 11 27H21C24.3137 27 27 24.3137 27 21V11C27 7.68629 24.3137 5 21 5H11Z" fill="#1F1F22"/>
</svg>
