<svg width="32" height="32" viewBox="0 0 32 32" fill="none" xmlns="http://www.w3.org/2000/svg">
<path d="M15.5 10C15.61 10 15.7188 10.0057 15.8262 10.0156C15.8827 10.0057 15.9407 10 16 10H19.9883C20.5406 10 20.9883 10.4477 20.9883 11C20.9883 11.5523 20.5406 12 19.9883 12H18.6631C18.7392 12.1603 18.8031 12.3274 18.8545 12.5H20C20.5523 12.5 21 12.9477 21 13.5C21 14.0523 20.5523 14.5 20 14.5H18.8545C18.4242 15.9457 17.0855 17 15.5 17H15.4141L18.707 20.293L18.7754 20.3682C19.0961 20.7609 19.0733 21.3408 18.707 21.707C18.3408 22.0733 17.7609 22.0961 17.3682 21.7754L17.293 21.707L12.293 16.707C12.2654 16.6794 12.2405 16.65 12.2168 16.6201C12.1807 16.5745 12.148 16.5261 12.1201 16.4746C12.1127 16.4609 12.1063 16.4466 12.0996 16.4326C12.0778 16.3873 12.0578 16.3408 12.043 16.292C12.0303 16.2503 12.0218 16.2077 12.0146 16.165C12.0057 16.1113 12 16.0563 12 16C12 15.9203 12.0097 15.8429 12.0273 15.7686C12.0322 15.748 12.0368 15.7273 12.043 15.707C12.0579 15.6583 12.0778 15.6117 12.0996 15.5664C12.1188 15.5266 12.1403 15.4877 12.165 15.4502C12.2557 15.3128 12.379 15.1989 12.5244 15.1201C12.5382 15.1127 12.5524 15.1064 12.5664 15.0996C12.6117 15.0778 12.6583 15.0579 12.707 15.043C12.7273 15.0368 12.748 15.0322 12.7686 15.0273C12.7799 15.0247 12.7912 15.0218 12.8027 15.0195L12.8086 15.0186L12.8975 15.0049C12.9312 15.0015 12.9654 15 13 15H15.5C15.9436 15 16.3406 14.8061 16.6152 14.5H13C12.4477 14.5 12 14.0523 12 13.5C12 12.9477 12.4477 12.5 13 12.5H16.6152C16.3406 12.1939 15.9436 12 15.5 12H13C12.4477 12 12 11.5523 12 11C12 10.4477 12.4477 10 13 10H15.5Z" fill="#1F1F22"/>
<path fill-rule="evenodd" clip-rule="evenodd" d="M21 3C25.4183 3 29 6.58172 29 11V21C29 25.4183 25.4183 29 21 29H11C6.58172 29 3 25.4183 3 21V11C3 6.58172 6.58172 3 11 3H21ZM11 5C7.68629 5 5 7.68629 5 11V21C5 24.3137 7.68629 27 11 27H21C24.3137 27 27 24.3137 27 21V11C27 7.68629 24.3137 5 21 5H11Z" fill="#1F1F22"/>
</svg>
