<svg width="32" height="32" viewBox="0 0 32 32" fill="none" xmlns="http://www.w3.org/2000/svg">
<path d="M18.5 10C19.0523 10 19.5 10.4477 19.5 11C19.5 11.5523 19.0523 12 18.5 12C17.2372 12 16.112 12.586 15.3789 13.5H16.5C17.0523 13.5 17.5 13.9477 17.5 14.5C17.5 15.0523 17.0523 15.5 16.5 15.5H14.5322C14.5118 15.6638 14.5 15.8306 14.5 16C14.5 16.1694 14.5118 16.3362 14.5322 16.5H16.5C17.0523 16.5 17.5 16.9477 17.5 17.5C17.5 18.0523 17.0523 18.5 16.5 18.5H15.3789C16.112 19.414 17.2372 20 18.5 20C19.0523 20 19.5 20.4477 19.5 21C19.5 21.5523 19.0523 22 18.5 22C16.0788 22 13.9941 20.5652 13.0459 18.5H12.5C11.9477 18.5 11.5 18.0523 11.5 17.5C11.5 16.9477 11.9477 16.5 12.5 16.5H12.5225C12.5089 16.3351 12.5 16.1684 12.5 16C12.5 15.8316 12.5089 15.6649 12.5225 15.5H12.5C11.9477 15.5 11.5 15.0523 11.5 14.5C11.5 13.9477 11.9477 13.5 12.5 13.5H13.0459C13.9941 11.4348 16.0788 10 18.5 10Z" fill="#1F1F22"/>
<path fill-rule="evenodd" clip-rule="evenodd" d="M21 3C25.4183 3 29 6.58172 29 11V21C29 25.4183 25.4183 29 21 29H11C6.58172 29 3 25.4183 3 21V11C3 6.58172 6.58172 3 11 3H21ZM11 5C7.68629 5 5 7.68629 5 11V21C5 24.3137 7.68629 27 11 27H21C24.3137 27 27 24.3137 27 21V11C27 7.68629 24.3137 5 21 5H11Z" fill="#1F1F22"/>
</svg>
