<svg width="32" height="32" viewBox="0 0 32 32" fill="none" xmlns="http://www.w3.org/2000/svg">
<path d="M16.0225 9C16.5747 9 17.0225 9.44772 17.0225 10V10.1719C17.7899 10.4225 18.3325 10.9018 18.7236 11.293C19.114 11.6835 19.114 12.3165 18.7236 12.707C18.3332 13.0975 17.7001 13.0974 17.3096 12.707C16.8656 12.2631 16.4942 12.0001 15.9277 12C15.5575 12 15.1077 12.1731 14.8154 12.4795C14.565 12.7422 14.3982 13.1286 14.5693 13.7295C14.6395 13.9754 14.7997 14.1803 15.1318 14.3965C15.4951 14.6329 15.9472 14.812 16.5371 15.0566C17.5218 15.465 19.1145 16.1112 19.4668 17.8682L19.4961 18.042L19.501 18.0742C19.6636 19.4907 19.0865 20.5246 18.2773 21.1641C17.8863 21.473 17.4472 21.6845 17.0225 21.8184V22C17.0225 22.5523 16.5747 23 16.0225 23C15.4702 23 15.0225 22.5523 15.0225 22V21.9121C14.0815 21.7263 13.3216 21.2606 12.7832 20.6797C12.4078 20.2746 12.4318 19.642 12.8369 19.2666C13.242 18.8913 13.8746 18.9153 14.25 19.3203C14.5887 19.6858 15.1419 20 15.9277 20C16.1939 19.9999 16.6738 19.8817 17.0371 19.5947C17.3422 19.3537 17.5867 18.9856 17.5146 18.3184C17.4165 17.703 16.9442 17.3896 15.7715 16.9033C15.2617 16.6919 14.5972 16.4342 14.041 16.0723C13.454 15.6901 12.8908 15.1348 12.6465 14.2783C12.2766 12.9807 12.6384 11.8641 13.3672 11.0996C13.8257 10.6186 14.4157 10.2905 15.0225 10.125V10C15.0225 9.44772 15.4702 9 16.0225 9Z" fill="#1F1F22"/>
<path fill-rule="evenodd" clip-rule="evenodd" d="M21 3C25.4183 3 29 6.58172 29 11V21C29 25.4183 25.4183 29 21 29H11C6.58172 29 3 25.4183 3 21V11C3 6.58172 6.58172 3 11 3H21ZM11 5C7.68629 5 5 7.68629 5 11V21C5 24.3137 7.68629 27 11 27H21C24.3137 27 27 24.3137 27 21V11C27 7.68629 24.3137 5 21 5H11Z" fill="#1F1F22"/>
</svg>
