<svg width="32" height="32" viewBox="0 0 32 32" fill="none" xmlns="http://www.w3.org/2000/svg">
<path fill-rule="evenodd" clip-rule="evenodd" d="M11 10C14.3137 10 17 12.6863 17 16C17 19.3137 14.3137 22 11 22H9.5C9.46539 22 9.43116 21.9985 9.39746 21.9951C8.89333 21.9438 8.5 21.5177 8.5 21V11C8.5 10.4477 8.94772 10 9.5 10H11ZM10.5 20H11C13.2091 20 15 18.2091 15 16C15 13.7909 13.2091 12 11 12H10.5V20Z" fill="#1F1F22"/>
<path d="M19 13C19.5523 13 20 13.4477 20 14V15.6738C20.3131 15.5631 20.649 15.5 21 15.5C22.6569 15.5 24 16.8431 24 18.5V21C24 21.5523 23.5523 22 23 22C22.4477 22 22 21.5523 22 21V18.5L21.9951 18.3975C21.9438 17.8933 21.5177 17.5 21 17.5C20.4823 17.5 20.0562 17.8933 20.0049 18.3975L20 18.5V21C20 21.5523 19.5523 22 19 22C18.4477 22 18 21.5523 18 21V14C18 13.4477 18.4477 13 19 13Z" fill="#1F1F22"/>
<path fill-rule="evenodd" clip-rule="evenodd" d="M21 3C25.4183 3 29 6.58172 29 11V21C29 25.4183 25.4183 29 21 29H11C6.58172 29 3 25.4183 3 21V11C3 6.58172 6.58172 3 11 3H21ZM11 5C7.68629 5 5 7.68629 5 11V21C5 24.3137 7.68629 27 11 27H21C24.3137 27 27 24.3137 27 21V11C27 7.68629 24.3137 5 21 5H11Z" fill="#1F1F22"/>
</svg>
