<svg width="32" height="32" viewBox="0 0 32 32" fill="none" xmlns="http://www.w3.org/2000/svg">
<path fill-rule="evenodd" clip-rule="evenodd" d="M16 8C20.4183 8 24 11.5817 24 16C24 20.4183 20.4183 24 16 24C11.5817 24 8 20.4183 8 16C8 11.5817 11.5817 8 16 8ZM14.3125 19C14.4427 19.5858 14.607 20.1103 14.7979 20.5557C15.0375 21.1149 15.2977 21.5039 15.5352 21.7383C15.7682 21.9681 15.924 22 16 22C16.076 22 16.2318 21.9681 16.4648 21.7383C16.7023 21.5039 16.9625 21.1149 17.2021 20.5557C17.393 20.1103 17.5573 19.5858 17.6875 19H14.3125ZM10.8047 19C11.3058 19.8659 12.0155 20.5957 12.8672 21.1182C12.6174 20.4875 12.4162 19.7728 12.2705 19H10.8047ZM19.7295 19C19.5838 19.7729 19.3817 20.4874 19.1318 21.1182C19.9838 20.5957 20.6941 19.8661 21.1953 19H19.7295ZM10.085 15C10.0304 15.3253 10 15.6592 10 16C10 16.3408 10.0304 16.6747 10.085 17H12.0293C12.0103 16.6716 12 16.3378 12 16C12 15.6622 12.0103 15.3284 12.0293 15H10.085ZM14.0361 15C14.0149 15.3245 14 15.6583 14 16C14 16.3417 14.0149 16.6755 14.0361 17H17.9639C17.9851 16.6755 18 16.3417 18 16C18 15.6583 17.9851 15.3245 17.9639 15H14.0361ZM19.9707 15C19.9897 15.3284 20 15.6622 20 16C20 16.3378 19.9897 16.6716 19.9707 17H21.915C21.9696 16.6747 22 16.3408 22 16C22 15.6592 21.9696 15.3253 21.915 15H19.9707ZM12.8672 10.8809C12.0153 11.4033 11.3058 12.134 10.8047 13H12.2705C12.4163 12.2269 12.6172 11.5117 12.8672 10.8809ZM16 10C15.924 10 15.7682 10.0319 15.5352 10.2617C15.2977 10.4961 15.0375 10.8851 14.7979 11.4443C14.607 11.8897 14.4427 12.4142 14.3125 13H17.6875C17.5573 12.4142 17.393 11.8897 17.2021 11.4443C16.9625 10.8851 16.7023 10.4961 16.4648 10.2617C16.2318 10.0319 16.076 10 16 10ZM19.1318 10.8809C19.3819 11.5118 19.5837 12.2267 19.7295 13H21.1953C20.694 12.1337 19.984 11.4033 19.1318 10.8809Z" fill="#1F1F22"/>
<path fill-rule="evenodd" clip-rule="evenodd" d="M21 3C25.4183 3 29 6.58172 29 11V21C29 25.4183 25.4183 29 21 29H11C6.58172 29 3 25.4183 3 21V11C3 6.58172 6.58172 3 11 3H21ZM11 5C7.68629 5 5 7.68629 5 11V21C5 24.3137 7.68629 27 11 27H21C24.3137 27 27 24.3137 27 21V11C27 7.68629 24.3137 5 21 5H11Z" fill="#1F1F22"/>
</svg>
