<svg width="20" height="20" viewBox="0 0 20 20" fill="none" xmlns="http://www.w3.org/2000/svg">
<path fill-rule="evenodd" clip-rule="evenodd" d="M19.1601 4L4.25006 3.02L3.96006 1.76C3.89006 1.47 3.70006 1.22 3.43006 1.09L1.44006 0.0999988C0.95006 -0.150001 0.35006 0.0499988 0.10006 0.549999C-0.14994 1.04 0.0500598 1.64 0.55006 1.89L2.11006 2.68L5.01006 14.22C5.11006 14.67 5.52006 14.99 5.98006 14.99H16.9901C17.5401 14.99 17.9901 14.54 17.9901 13.99C17.9901 13.44 17.5401 12.99 16.9901 12.99H6.78006L6.55006 11.99H17.4901C18.0401 11.99 18.5701 11.55 18.6701 11.01L19.9801 5.04C20.0801 4.5 19.7101 4.03 19.1601 4ZM5.00006 17.99C5.00006 19.1 5.89006 20 7.00006 20C8.10006 20 9.00006 19.1 9.00006 17.99C9.00006 16.89 8.10006 15.99 7.00006 15.99C5.89006 15.99 5.00006 16.89 5.00006 17.99ZM13.0001 17.99C13.0001 19.1 13.8901 20 15.0001 20C16.1001 20 17.0001 19.1 17.0001 17.99C17.0001 16.89 16.1001 15.99 15.0001 15.99C13.8901 15.99 13.0001 16.89 13.0001 17.99Z" fill="#198CFE"/>
<path fill-rule="evenodd" clip-rule="evenodd" d="M16.83 9.99L17.78 5.92L4.71997 5.06L6.08997 9.99H16.83Z" fill="#F2F4F7"/>
</svg>
