<svg width="20" height="20" viewBox="0 0 20 20" fill="none" xmlns="http://www.w3.org/2000/svg">
<path fill-rule="evenodd" clip-rule="evenodd" d="M19.16 4L4.25 3.02L3.96 1.76C3.89 1.47 3.7 1.22 3.43 1.09L1.44 0.0999988C0.949999 -0.150001 0.349999 0.0499988 0.0999988 0.549999C-0.150001 1.04 0.0499988 1.64 0.549999 1.89L2.11 2.68L5.01 14.22C5.11 14.67 5.52 14.99 5.98 14.99H16.99C17.54 14.99 17.99 14.54 17.99 13.99C17.99 13.44 17.54 12.99 16.99 12.99H6.78L6.55 11.99H17.49C18.04 11.99 18.57 11.55 18.67 11.01L19.98 5.04C20.08 4.5 19.71 4.03 19.16 4ZM5 17.99C5 19.1 5.89 20 7 20C8.1 20 9 19.1 9 17.99C9 16.89 8.1 15.99 7 15.99C5.89 15.99 5 16.89 5 17.99ZM13 17.99C13 19.1 13.89 20 15 20C16.1 20 17 19.1 17 17.99C17 16.89 16.1 15.99 15 15.99C13.89 15.99 13 16.89 13 17.99Z" fill="#198CFE"/>
<path fill-rule="evenodd" clip-rule="evenodd" d="M16.83 9.99L17.78 5.92L4.72 5.06L6.09 9.99H16.83Z" fill="#1F1F22"/>
</svg>
