<svg width="20" height="20" viewBox="0 0 20 20" fill="none" xmlns="http://www.w3.org/2000/svg">
<path fill-rule="evenodd" clip-rule="evenodd" d="M19.1583 4L4.24835 3.02L3.95835 1.76C3.88835 1.47 3.69835 1.22 3.42835 1.09L1.43835 0.0999988C0.948351 -0.150001 0.348351 0.0499988 0.0983508 0.549999C-0.151649 1.04 0.0483508 1.64 0.548351 1.89L2.10835 2.68L5.00835 14.22C5.10835 14.67 5.51835 14.99 5.97835 14.99H16.9883C17.5383 14.99 17.9883 14.54 17.9883 13.99C17.9883 13.44 17.5383 12.99 16.9883 12.99H6.77835L6.54835 11.99H17.4883C18.0383 11.99 18.5683 11.55 18.6684 11.01L19.9783 5.04C20.0784 4.5 19.7083 4.03 19.1583 4ZM4.99835 17.99C4.99835 19.1 5.88835 20 6.99835 20C8.09835 20 8.99835 19.1 8.99835 17.99C8.99835 16.89 8.09835 15.99 6.99835 15.99C5.88835 15.99 4.99835 16.89 4.99835 17.99ZM12.9984 17.99C12.9984 19.1 13.8884 20 14.9984 20C16.0984 20 16.9984 19.1 16.9984 17.99C16.9984 16.89 16.0984 15.99 14.9984 15.99C13.8884 15.99 12.9984 16.89 12.9984 17.99Z" fill="#198CFE"/>
<path fill-rule="evenodd" clip-rule="evenodd" d="M16.8283 9.99L17.7783 5.92L4.71826 5.06L6.08826 9.99H16.8283Z" fill="#E4E8EB"/>
</svg>
