<svg width="32" height="32" viewBox="0 0 32 32" fill="none" xmlns="http://www.w3.org/2000/svg">
<path fill-rule="evenodd" clip-rule="evenodd" d="M28.2868 20.3C28.7668 18.94 28.9968 17.51 28.9968 15.99C28.9968 15.43 28.5668 14.99 28.0068 14.99C27.4468 14.99 27.0068 15.43 27.0068 15.99C27.0068 17.27 26.7968 18.49 26.3968 19.63C25.9968 20.77 25.3968 21.84 24.6068 22.84C23.8068 23.84 22.8968 24.67 21.8668 25.31C20.8468 25.95 19.7068 26.42 18.4568 26.7C17.2068 26.99 15.9768 27.06 14.7768 26.93C13.5768 26.79 12.3968 26.45 11.2468 25.89C10.0868 25.33 9.0768 24.63 8.2268 23.77C7.3668 22.92 6.6668 21.91 6.1068 20.76C5.5468 19.6 5.2068 18.42 5.0668 17.22C4.9368 16.02 5.0068 14.79 5.2968 13.54C5.5768 12.29 6.0468 11.15 6.6868 10.13C7.3268 9.09998 8.1568 8.18998 9.1568 7.38998C10.1568 6.59998 11.2168 5.99998 12.3568 5.59998C13.5068 5.19998 14.7268 4.98998 16.0068 4.98998C16.5668 4.98998 17.0068 4.54998 17.0068 3.98998C17.0068 3.42998 16.5668 2.98998 16.0068 2.99998C14.4868 2.99998 13.0368 3.22998 11.6868 3.70998C10.3468 4.18998 9.0868 4.88998 7.9168 5.82998C6.7268 6.77998 5.7468 7.85998 4.9868 9.06998C4.2268 10.28 3.6768 11.62 3.3468 13.09C3.0068 14.58 2.9168 16.03 3.0768 17.46C3.2368 18.87 3.6468 20.26 4.3068 21.62C4.9668 22.99 5.8068 24.18 6.8168 25.2C7.8268 26.2 9.0168 27.03 10.3768 27.69C11.7468 28.35 13.1368 28.76 14.5668 28.92C15.9868 29.08 17.4268 28.99 18.8968 28.65C20.3868 28.31 21.7268 27.76 22.9468 27C24.1468 26.24 25.2268 25.27 26.1668 24.09C27.1068 22.91 27.8168 21.64 28.2868 20.3Z" fill="url(#paint0_radial_51718_139)"/>
<defs>
<radialGradient id="paint0_radial_51718_139" cx="0" cy="0" r="1" gradientUnits="userSpaceOnUse" gradientTransform="translate(27.6928 15.1389) rotate(116.791) scale(32.0299 16.0248)">
<stop offset="0.140625" stop-color="#107F8C" stop-opacity="0"/>
<stop offset="1" stop-color="#107F8C"/>
</radialGradient>
</defs>
</svg>
