<svg width="32" height="32" viewBox="0 0 32 32" fill="none" xmlns="http://www.w3.org/2000/svg">
<path fill-rule="evenodd" clip-rule="evenodd" d="M30.82 22.14C31.6 20.25 32 18.2 32 16C32 15.43 31.56 15 31 15C30.43 15 30 15.43 30 16C30 17.93 29.65 19.72 28.97 21.37C28.29 23.02 27.26 24.53 25.89 25.9C24.53 27.26 23.02 28.29 21.37 28.97C19.72 29.65 17.93 30 16 30C14.06 30 12.27 29.65 10.62 28.97C8.97 28.29 7.46 27.26 6.1 25.9C4.73 24.53 3.7 23.02 3.02 21.37C2.34 19.72 2 17.93 2 16C2 14.06 2.34 12.27 3.02 10.62C3.7 8.97 4.73 7.46 6.1 6.09C7.46 4.73 8.97 3.7 10.62 3.02C12.27 2.34 14.06 2 16 2C16.56 2 17 1.56 17 1C17 0.43 16.56 0 16 0C13.79 0 11.74 0.39 9.85 1.17C7.97 1.95 6.24 3.12 4.68 4.68C3.12 6.24 1.95 7.97 1.17 9.85C0.39 11.74 0 13.79 0 16C0 18.2 0.39 20.25 1.17 22.14C1.95 24.02 3.12 25.75 4.68 27.31C6.24 28.87 7.97 30.04 9.85 30.82C11.74 31.6 13.79 32 16 32C18.2 32 20.25 31.6 22.14 30.82C24.02 30.04 25.75 28.87 27.31 27.31C28.87 25.75 30.04 24.02 30.82 22.14Z" fill="url(#paint0_radial_51718_999)"/>
<defs>
<radialGradient id="paint0_radial_51718_999" cx="0" cy="0" r="1" gradientUnits="userSpaceOnUse" gradientTransform="translate(30.3949 14.9422) rotate(116.792) scale(39.426 19.7253)">
<stop offset="0.140625" stop-color="#21A19A" stop-opacity="0"/>
<stop offset="1" stop-color="#21A19A"/>
</radialGradient>
</defs>
</svg>
