<svg width="20" height="20" viewBox="0 0 20 20" fill="none" xmlns="http://www.w3.org/2000/svg">
<path fill-rule="evenodd" clip-rule="evenodd" d="M19.158 4L4.24805 3.02L3.95805 1.76C3.88805 1.47 3.69805 1.22 3.42805 1.09L1.43805 0.0999988C0.948046 -0.150001 0.348046 0.0499988 0.0980456 0.549999C-0.151954 1.04 0.0480456 1.64 0.548046 1.89L2.10805 2.68L5.00805 14.22C5.10805 14.67 5.51805 14.99 5.97805 14.99H16.988C17.538 14.99 17.988 14.54 17.988 13.99C17.988 13.44 17.538 12.99 16.988 12.99H6.77805L6.54805 11.99H17.488C18.038 11.99 18.568 11.55 18.668 11.01L19.978 5.04C20.078 4.5 19.708 4.03 19.158 4ZM4.99805 17.99C4.99805 19.1 5.88805 20 6.99805 20C8.09805 20 8.99805 19.1 8.99805 17.99C8.99805 16.89 8.09805 15.99 6.99805 15.99C5.88805 15.99 4.99805 16.89 4.99805 17.99ZM12.998 17.99C12.998 19.1 13.888 20 14.998 20C16.098 20 16.998 19.1 16.998 17.99C16.998 16.89 16.098 15.99 14.998 15.99C13.888 15.99 12.998 16.89 12.998 17.99Z" fill="#198CFE"/>
<path fill-rule="evenodd" clip-rule="evenodd" d="M16.828 9.99L17.778 5.92L4.71805 5.06L6.08805 9.99H16.828Z" fill="#565B62"/>
</svg>
