<svg width="16.000000" height="16.000000" viewBox="0 0 16 16" fill="none" xmlns="http://www.w3.org/2000/svg" xmlns:xlink="http://www.w3.org/1999/xlink">
	<desc>
			Created with Pixso.
	</desc>
	<defs/>
	<path id="Vector" d="M4.7 0.14C4.34 0.21 4 0.32 3.66 0.47C3.32 0.61 3 0.78 2.69 0.98C2.36 1.21 2.04 1.46 1.75 1.75C1.46 2.04 1.21 2.36 0.98 2.69C0.78 3 0.61 3.32 0.47 3.66C0.32 4 0.21 4.34 0.14 4.7C0.04 5.12 0 5.55 0 6L0 10C0 10.44 0.04 10.87 0.14 11.29C0.21 11.65 0.32 11.99 0.47 12.33C0.61 12.67 0.78 12.99 0.98 13.3C1.21 13.63 1.46 13.95 1.75 14.24C2.04 14.53 2.36 14.78 2.69 15.01C3 15.21 3.32 15.38 3.66 15.52C4 15.67 4.34 15.78 4.7 15.86C5.12 15.95 5.55 16 6 16L10 16C10.44 16 10.87 15.95 11.29 15.86C11.65 15.78 11.99 15.67 12.33 15.52C12.67 15.38 12.99 15.21 13.3 15.01C13.63 14.78 13.95 14.53 14.24 14.24C14.53 13.95 14.78 13.63 15.01 13.3C15.21 12.99 15.38 12.67 15.52 12.33C15.67 11.99 15.78 11.65 15.86 11.29C15.95 10.87 16 10.44 16 10L16 6C16 5.55 15.95 5.12 15.86 4.7C15.78 4.34 15.67 4 15.52 3.66C15.38 3.32 15.21 3 15.01 2.69C14.78 2.36 14.53 2.04 14.24 1.75C13.95 1.46 13.63 1.21 13.3 0.98C12.99 0.78 12.67 0.61 12.33 0.47C11.99 0.32 11.65 0.21 11.29 0.14C10.87 0.04 10.44 0 10 0L6 0C5.55 0 5.12 0.04 4.7 0.14ZM6 2L10 2C10.3 2 10.6 2.03 10.9 2.1C11.12 2.15 11.34 2.22 11.55 2.31C11.77 2.4 11.98 2.51 12.18 2.64C12.41 2.79 12.62 2.97 12.82 3.17C13.02 3.37 13.2 3.58 13.35 3.81C13.48 4.01 13.59 4.22 13.68 4.44C13.77 4.65 13.84 4.87 13.89 5.09C13.96 5.39 14 5.69 14 6L14 10C14 10.3 13.96 10.6 13.89 10.9C13.84 11.12 13.77 11.34 13.68 11.55C13.59 11.77 13.48 11.98 13.35 12.18C13.2 12.41 13.02 12.62 12.82 12.82C12.62 13.02 12.41 13.2 12.18 13.35C11.98 13.48 11.77 13.59 11.55 13.68C11.34 13.77 11.12 13.84 10.9 13.89C10.6 13.96 10.3 14 10 14L6 14C5.69 14 5.39 13.96 5.09 13.89C4.87 13.84 4.65 13.77 4.44 13.68C4.22 13.59 4.01 13.48 3.81 13.35C3.58 13.2 3.37 13.02 3.17 12.82C2.97 12.62 2.79 12.41 2.64 12.18C2.51 11.98 2.4 11.77 2.31 11.55C2.22 11.34 2.15 11.12 2.1 10.9C2.03 10.6 2 10.3 2 10L2 6C2 5.69 2.03 5.39 2.1 5.09C2.15 4.87 2.22 4.65 2.31 4.44C2.4 4.22 2.51 4.01 2.64 3.81C2.79 3.58 2.97 3.37 3.17 3.17C3.37 2.97 3.58 2.79 3.81 2.64C4.01 2.51 4.22 2.4 4.44 2.31C4.65 2.22 4.87 2.15 5.09 2.1C5.39 2.03 5.69 2 6 2ZM8 4C7.44 4 7 4.44 7 5C7 5.55 7.44 6 8 6C8.55 6 9 5.55 9 5C9 4.44 8.55 4 8 4ZM6 8C6 7.44 6.43 7 7 7L8 7C8.56 7 9 7.44 9 8L9 11C9 11.56 8.56 12 8 12C7.43 12 7 11.56 7 11L7 9C6.43 9 6 8.56 6 8Z" fill="#1297FE" fill-opacity="1.000000" fill-rule="evenodd"/>
</svg>
