<svg width="20.000000" height="20.000000" viewBox="0 0 20 20" fill="none" xmlns="http://www.w3.org/2000/svg" xmlns:xlink="http://www.w3.org/1999/xlink">
	<desc>
			Created with Pixso.
	</desc>
	<defs/>
	<path id="Vector" d="M14.51 0.16C14.02 0.05 13.51 0 13 0L7 0C6.48 0 5.97 0.05 5.48 0.16C5.07 0.25 4.66 0.38 4.27 0.55C3.87 0.71 3.5 0.91 3.14 1.15C2.75 1.41 2.39 1.71 2.05 2.05C1.71 2.39 1.41 2.75 1.15 3.14C0.91 3.5 0.71 3.87 0.55 4.27C0.38 4.66 0.25 5.07 0.16 5.48C0.05 5.97 0 6.48 0 7L0 13C0 13.51 0.05 14.02 0.16 14.51C0.25 14.92 0.38 15.33 0.55 15.72C0.71 16.12 0.91 16.49 1.15 16.85C1.41 17.24 1.71 17.6 2.05 17.94C2.39 18.28 2.75 18.58 3.14 18.84C3.5 19.08 3.87 19.28 4.27 19.44C4.66 19.61 5.07 19.74 5.48 19.83C5.97 19.94 6.48 20 7 20L13 20C13.51 20 14.02 19.94 14.51 19.83C14.92 19.74 15.33 19.61 15.72 19.44C16.12 19.28 16.49 19.08 16.85 18.84C17.24 18.58 17.6 18.28 17.94 17.94C18.28 17.6 18.58 17.24 18.84 16.85C19.08 16.49 19.28 16.12 19.44 15.72C19.61 15.33 19.74 14.92 19.83 14.51C19.94 14.02 20 13.51 20 13L20 7C20 6.48 19.94 5.97 19.83 5.48C19.74 5.07 19.61 4.66 19.44 4.27C19.28 3.87 19.08 3.5 18.84 3.14C18.58 2.75 18.28 2.39 17.94 2.05C17.6 1.71 17.24 1.41 16.85 1.15C16.49 0.91 16.12 0.71 15.72 0.55C15.33 0.38 14.92 0.25 14.51 0.16ZM7 2L13 2C13.38 2 13.75 2.04 14.12 2.12C14.4 2.18 14.67 2.27 14.94 2.39C15.22 2.5 15.48 2.64 15.73 2.81C16.02 2.99 16.28 3.21 16.53 3.46C16.78 3.71 17 3.97 17.18 4.26C17.35 4.51 17.49 4.77 17.6 5.05C17.72 5.32 17.81 5.59 17.87 5.87C17.95 6.24 18 6.61 18 7L18 13C18 13.38 17.95 13.75 17.87 14.12C17.81 14.4 17.72 14.67 17.6 14.94C17.49 15.22 17.35 15.48 17.18 15.73C17 16.02 16.78 16.28 16.53 16.53C16.28 16.78 16.02 17 15.73 17.18C15.48 17.35 15.22 17.49 14.94 17.6C14.67 17.72 14.4 17.81 14.12 17.87C13.75 17.95 13.38 18 13 18L7 18C6.61 18 6.24 17.95 5.87 17.87C5.59 17.81 5.32 17.72 5.05 17.6C4.77 17.49 4.51 17.35 4.26 17.18C3.97 17 3.71 16.78 3.46 16.53C3.21 16.28 2.99 16.02 2.81 15.73C2.64 15.48 2.5 15.22 2.39 14.94C2.27 14.67 2.18 14.4 2.12 14.12C2.04 13.75 2 13.38 2 13L2 7C2 6.61 2.04 6.24 2.12 5.87C2.18 5.59 2.27 5.32 2.39 5.05C2.5 4.77 2.64 4.51 2.81 4.26C2.99 3.97 3.21 3.71 3.46 3.46C3.71 3.21 3.97 2.99 4.26 2.81C4.51 2.64 4.77 2.5 5.05 2.39C5.32 2.27 5.59 2.18 5.87 2.12C6.24 2.04 6.61 2 7 2ZM9.11 9L10.89 5.44C11.14 4.94 10.94 4.35 10.44 4.1C9.94 3.85 9.35 4.05 9.1 4.55L6.6 9.55C6.3 10.14 6.45 10.59 7.05 10.89C7.19 10.96 7.34 11 7.5 11L10.88 11L9.1 14.55C8.85 15.05 9.05 15.64 9.55 15.89C10.05 16.14 10.64 15.94 10.89 15.44L13.39 10.44C13.46 10.3 13.5 10.15 13.5 10C13.5 9.33 13.16 9 12.5 9L9.11 9Z" fill="#A6ACBA" fill-opacity="1.000000" fill-rule="evenodd"/>
</svg>
