<svg width="16.000000" height="16.000000" viewBox="0 0 16 16" fill="none" xmlns="http://www.w3.org/2000/svg" xmlns:xlink="http://www.w3.org/1999/xlink">
	<desc>
			Created with Pixso.
	</desc>
	<defs/>
	<path id="Vector" d="M10 0C10.44 0 10.87 0.04 11.29 0.14C11.65 0.21 11.99 0.32 12.33 0.47C12.67 0.61 12.99 0.78 13.3 0.98C13.63 1.21 13.95 1.46 14.24 1.75C14.53 2.04 14.78 2.36 15.01 2.69C15.21 3 15.38 3.32 15.52 3.66C15.67 4 15.78 4.34 15.86 4.7C15.95 5.12 16 5.55 16 6L16 10C16 10.44 15.95 10.87 15.86 11.29C15.78 11.65 15.67 11.99 15.52 12.33C15.38 12.67 15.21 12.99 15.01 13.3C14.78 13.63 14.53 13.95 14.24 14.24C13.95 14.53 13.63 14.78 13.3 15.01C12.99 15.21 12.67 15.38 12.33 15.52C11.99 15.67 11.65 15.78 11.29 15.86C10.87 15.95 10.44 16 10 16L6 16C5.55 16 5.12 15.95 4.7 15.86C4.34 15.78 4 15.67 3.66 15.52C3.32 15.38 3 15.21 2.69 15.01C2.36 14.78 2.04 14.53 1.75 14.24C1.46 13.95 1.21 13.63 0.98 13.3C0.78 12.99 0.61 12.67 0.47 12.33C0.32 11.99 0.21 11.65 0.14 11.29C0.04 10.87 0 10.44 0 10L0 6C0 5.55 0.04 5.12 0.14 4.7C0.21 4.34 0.32 4 0.47 3.66C0.61 3.32 0.78 3 0.98 2.69C1.21 2.36 1.46 2.04 1.75 1.75C2.04 1.46 2.36 1.21 2.69 0.98C3 0.78 3.32 0.61 3.66 0.47C4 0.32 4.34 0.21 4.7 0.14C5.12 0.04 5.55 0 6 0L10 0ZM10 2L6 2C5.69 2 5.39 2.03 5.09 2.1L5.09 2.1Q4.76 2.17 4.44 2.31C4.22 2.4 4.01 2.51 3.81 2.64C3.58 2.79 3.37 2.97 3.17 3.17C2.97 3.37 2.79 3.58 2.64 3.81C2.51 4.01 2.4 4.22 2.31 4.44C2.22 4.65 2.15 4.87 2.1 5.09C2.03 5.39 2 5.69 2 6L2 10C2 10.3 2.03 10.6 2.1 10.9C2.15 11.12 2.22 11.34 2.31 11.55C2.4 11.77 2.51 11.98 2.64 12.18C2.79 12.41 2.97 12.62 3.17 12.82C3.37 13.02 3.58 13.2 3.81 13.35C4.01 13.48 4.22 13.59 4.44 13.68C4.65 13.77 4.87 13.84 5.09 13.89C5.39 13.96 5.69 14 6 14L10 14C10.3 14 10.6 13.96 10.9 13.89L10.9 13.89Q11.23 13.82 11.55 13.68C11.77 13.59 11.98 13.48 12.18 13.35C12.41 13.2 12.62 13.02 12.82 12.82C13.02 12.62 13.2 12.41 13.35 12.18C13.48 11.98 13.59 11.77 13.68 11.55C13.77 11.34 13.84 11.12 13.89 10.9C13.96 10.6 14 10.3 14 10L14 6C14 5.69 13.96 5.39 13.89 5.09C13.84 4.87 13.77 4.65 13.68 4.44C13.59 4.22 13.48 4.01 13.35 3.81C13.2 3.58 13.02 3.37 12.82 3.17C12.62 2.97 12.41 2.79 12.18 2.64C11.98 2.51 11.77 2.4 11.55 2.31C11.34 2.22 11.12 2.15 10.9 2.1C10.6 2.03 10.3 2 10 2ZM8.26 10.14L10.76 7.14C11.12 6.7 11.07 6.09 10.64 5.73C10.21 5.37 9.59 5.42 9.23 5.85L7.43 8.01L6.7 7.29C6.31 6.89 5.68 6.89 5.29 7.29C4.89 7.68 4.89 8.31 5.29 8.7L6.79 10.2C7.02 10.44 7.26 10.56 7.5 10.56C7.73 10.56 8.03 10.37 8.26 10.14Z" fill="#19BDB0" fill-opacity="1.000000" fill-rule="evenodd"/>
</svg>
