<svg width="20.000000" height="20.000000" viewBox="0 0 20 20" fill="none" xmlns="http://www.w3.org/2000/svg" xmlns:xlink="http://www.w3.org/1999/xlink">
	<desc>
			Created with Pixso.
	</desc>
	<defs/>
	<path id="Vector" d="M1.55 19.64C1.98 19.88 2.47 20 3.03 20L16.96 20C17.52 20 18.01 19.88 18.44 19.64C18.86 19.4 19.22 19.05 19.52 18.57C19.81 18.1 19.97 17.62 19.99 17.13C20.01 16.65 19.9 16.16 19.65 15.66L12.68 1.66C12.4 1.11 12.04 0.69 11.59 0.42C11.15 0.14 10.61 0 9.99 0C9.38 0 8.84 0.14 8.39 0.42C7.95 0.69 7.58 1.11 7.31 1.66L0.34 15.66C0.09 16.16 -0.02 16.65 0 17.13C0.02 17.62 0.18 18.1 0.47 18.57C0.77 19.05 1.13 19.4 1.55 19.64ZM16.96 18L3.03 18C2.84 18 2.68 17.96 2.53 17.88C2.39 17.8 2.27 17.68 2.18 17.52C2.08 17.36 2.02 17.2 2.02 17.04C2.01 16.88 2.05 16.72 2.13 16.55L9.1 2.56C9.19 2.37 9.31 2.23 9.46 2.14C9.61 2.05 9.79 2 9.99 2C10.2 2 10.38 2.05 10.53 2.14C10.68 2.23 10.8 2.37 10.89 2.56L17.86 16.55C17.94 16.72 17.98 16.88 17.97 17.04C17.97 17.2 17.91 17.36 17.81 17.52C17.72 17.68 17.6 17.8 17.46 17.88C17.31 17.96 17.15 18 16.96 18ZM9 7C9 6.44 9.44 6 10 6C10.56 6 11 6.44 11 7L11 12C11 12.56 10.56 13 10 13C9.44 13 9 12.56 9 12L9 7ZM10 16C10.55 16 11 15.55 11 15C11 14.44 10.55 14 10 14C9.44 14 9 14.44 9 15C9 15.55 9.44 16 10 16Z" fill="#F80C45" fill-opacity="1.000000" fill-rule="evenodd"/>
</svg>
