<svg width="96" height="96" viewBox="0 0 96 96" fill="none" xmlns="http://www.w3.org/2000/svg">
<path fill-rule="evenodd" clip-rule="evenodd" d="M13.44 64.55L36.05 19.39C40.98 9.52999 55.01 9.52999 59.94 19.39L82.55 64.55C87.02 73.48 80.56 84 70.61 84H25.38C15.43 84 8.96998 73.48 13.44 64.55Z" fill="url(#paint0_radial_35_323)"/>
<path fill-rule="evenodd" clip-rule="evenodd" d="M50 54V39C50 37.88 49.12 37 48 37C46.87 37 46 37.88 46 39V54C46 55.12 46.87 56 48 56C49.12 56 50 55.12 50 54ZM48 61C46.89 61 46 61.89 46 63C46 64.1 46.89 65 48 65C49.1 65 50 64.1 50 63C50 61.89 49.1 61 48 61Z" fill="white"/>
<defs>
<radialGradient id="paint0_radial_35_323" cx="0" cy="0" r="1" gradientUnits="userSpaceOnUse" gradientTransform="translate(48 72.8824) rotate(90) scale(36.5295 39.18)">
<stop stop-color="#E60037"/>
<stop offset="1" stop-color="#373C49"/>
</radialGradient>
</defs>
</svg>
