<svg width="84.000000" height="84.000000" viewBox="0 0 84 84" fill="none" xmlns="http://www.w3.org/2000/svg" xmlns:xlink="http://www.w3.org/1999/xlink">
	<desc>
			Created with Pixso.
	</desc>
	<defs>
		<filter id="filter_13957_8291_dd" x="0.000000" y="0.000000" width="84.000000" height="84.000000" filterUnits="userSpaceOnUse" color-interpolation-filters="sRGB">
			<feFlood flood-opacity="0" result="BackgroundImageFix"/>
			<feBlend mode="normal" in="SourceGraphic" in2="BackgroundImageFix" result="shape"/>
			<feColorMatrix in="SourceAlpha" type="matrix" values="0 0 0 0 0 0 0 0 0 0 0 0 0 0 0 0 0 0 127 0" result="hardAlpha"/>
			<feOffset dx="0" dy="3"/>
			<feGaussianBlur stdDeviation="0.333333"/>
			<feComposite in2="hardAlpha" operator="arithmetic" k2="-1" k3="1"/>
			<feColorMatrix type="matrix" values="0 0 0 0 1 0 0 0 0 1 0 0 0 0 1 0 0 0 1 0"/>
			<feBlend mode="normal" in2="shape" result="effect_innerShadow_1"/>
		</filter>
		<filter id="filter_13957_8292_dd" x="10.000000" y="10.000000" width="64.000000" height="64.000000" filterUnits="userSpaceOnUse" color-interpolation-filters="sRGB">
			<feFlood flood-opacity="0" result="BackgroundImageFix"/>
			<feBlend mode="normal" in="SourceGraphic" in2="BackgroundImageFix" result="shape"/>
			<feColorMatrix in="SourceAlpha" type="matrix" values="0 0 0 0 0 0 0 0 0 0 0 0 0 0 0 0 0 0 127 0" result="hardAlpha"/>
			<feOffset dx="0" dy="3"/>
			<feGaussianBlur stdDeviation="0.333333"/>
			<feComposite in2="hardAlpha" operator="arithmetic" k2="-1" k3="1"/>
			<feColorMatrix type="matrix" values="0 0 0 0 0.94902 0 0 0 0 0.95686 0 0 0 0 0.96863 0 0 0 1 0"/>
			<feBlend mode="normal" in2="shape" result="effect_innerShadow_1"/>
			<feColorMatrix in="SourceAlpha" type="matrix" values="0 0 0 0 0 0 0 0 0 0 0 0 0 0 0 0 0 0 127 0" result="hardAlpha"/>
			<feOffset dx="0" dy="-3"/>
			<feGaussianBlur stdDeviation="0.333333"/>
			<feComposite in2="hardAlpha" operator="arithmetic" k2="-1" k3="1"/>
			<feColorMatrix type="matrix" values="0 0 0 0 0.94902 0 0 0 0 0.95686 0 0 0 0 0.96863 0 0 0 1 0"/>
			<feBlend mode="normal" in2="effect_innerShadow_1" result="effect_innerShadow_2"/>
		</filter>
	</defs>
	<g filter="url(#filter_13957_8291_dd)">
		<path id="Rectangle" d="M1.68 61.31L28.06 8.62C33.81 -2.88 50.18 -2.88 55.93 8.62L82.31 61.31C87.53 71.72 79.98 84 68.37 84L15.62 84C4.01 84 -3.54 71.72 1.68 61.31Z" fill="#FFFFFF" fill-opacity="0.400000" fill-rule="evenodd"/>
	</g>
	<g filter="url(#filter_13957_8292_dd)">
		<path id="Rectangle" d="M10.74 63.84L35.67 13.9C38.27 8.69 45.72 8.69 48.32 13.9L73.25 63.84C75.58 68.51 72.17 74 66.92 74L17.07 74C11.82 74 8.41 68.51 10.74 63.84Z" fill="#FFFFFF" fill-opacity="0.750000" fill-rule="evenodd"/>
	</g>
	<path id="Union" d="M44 48L44 33C44 31.88 43.12 31 42 31C40.87 31 40 31.88 40 33L40 48C40 49.12 40.87 50 42 50C43.12 50 44 49.12 44 48ZM42 55C40.89 55 40 55.89 40 57C40 58.1 40.89 59 42 59C43.1 59 44 58.1 44 57C44 55.89 43.1 55 42 55Z" fill="#D10032" fill-opacity="1.000000" fill-rule="evenodd"/>
</svg>
