<svg width="96" height="96" viewBox="0 0 96 96" fill="none" xmlns="http://www.w3.org/2000/svg">
<g filter="url(#filter0_i_35_335)">
<path fill-rule="evenodd" clip-rule="evenodd" d="M1.92246 70.0714L32.0641 9.85449C38.6545 -3.28483 57.3455 -3.28483 63.9359 9.85449L94.0775 70.0714C100.038 81.9707 91.4174 96 78.1467 96H17.8533C4.58261 96 -4.03786 81.9707 1.92246 70.0714Z" fill="white" fill-opacity="0.4"/>
</g>
<g filter="url(#filter1_ii_35_335)">
<path fill-rule="evenodd" clip-rule="evenodd" d="M13.8101 72.58L41.0801 16.38C43.9201 10.53 52.0701 10.53 54.9101 16.38L82.1801 72.58C84.7301 77.83 80.9901 84 75.2601 84H20.7301C15.0001 84 11.2601 77.83 13.8101 72.58Z" fill="white" fill-opacity="0.75"/>
</g>
<path fill-rule="evenodd" clip-rule="evenodd" d="M50 56V38C50 36.88 49.12 36 48 36C46.87 36 46 36.88 46 38V56C46 57.12 46.87 58 48 58C49.12 58 50 57.12 50 56ZM48 62C46.89 62 46 62.89 46 64C46 65.1 46.89 66 48 66C49.1 66 50 65.1 50 64C50 62.89 49.1 62 48 62Z" fill="#D10032"/>
<defs>
<filter id="filter0_i_35_335" x="0" y="0" width="96" height="97" filterUnits="userSpaceOnUse" color-interpolation-filters="sRGB">
<feFlood flood-opacity="0" result="BackgroundImageFix"/>
<feBlend mode="normal" in="SourceGraphic" in2="BackgroundImageFix" result="shape"/>
<feColorMatrix in="SourceAlpha" type="matrix" values="0 0 0 0 0 0 0 0 0 0 0 0 0 0 0 0 0 0 127 0" result="hardAlpha"/>
<feOffset dy="3"/>
<feGaussianBlur stdDeviation="0.5"/>
<feComposite in2="hardAlpha" operator="arithmetic" k2="-1" k3="1"/>
<feColorMatrix type="matrix" values="0 0 0 0 1 0 0 0 0 1 0 0 0 0 1 0 0 0 1 0"/>
<feBlend mode="normal" in2="shape" result="effect1_innerShadow_35_335"/>
</filter>
<filter id="filter1_ii_35_335" x="12.9946" y="10.9925" width="70.001" height="74.0075" filterUnits="userSpaceOnUse" color-interpolation-filters="sRGB">
<feFlood flood-opacity="0" result="BackgroundImageFix"/>
<feBlend mode="normal" in="SourceGraphic" in2="BackgroundImageFix" result="shape"/>
<feColorMatrix in="SourceAlpha" type="matrix" values="0 0 0 0 0 0 0 0 0 0 0 0 0 0 0 0 0 0 127 0" result="hardAlpha"/>
<feOffset dy="-3"/>
<feGaussianBlur stdDeviation="0.5"/>
<feComposite in2="hardAlpha" operator="arithmetic" k2="-1" k3="1"/>
<feColorMatrix type="matrix" values="0 0 0 0 0.94902 0 0 0 0 0.956863 0 0 0 0 0.968627 0 0 0 1 0"/>
<feBlend mode="normal" in2="shape" result="effect1_innerShadow_35_335"/>
<feColorMatrix in="SourceAlpha" type="matrix" values="0 0 0 0 0 0 0 0 0 0 0 0 0 0 0 0 0 0 127 0" result="hardAlpha"/>
<feOffset dy="3"/>
<feGaussianBlur stdDeviation="0.5"/>
<feComposite in2="hardAlpha" operator="arithmetic" k2="-1" k3="1"/>
<feColorMatrix type="matrix" values="0 0 0 0 0.94902 0 0 0 0 0.956863 0 0 0 0 0.968627 0 0 0 1 0"/>
<feBlend mode="normal" in2="effect1_innerShadow_35_335" result="effect2_innerShadow_35_335"/>
</filter>
</defs>
</svg>
