<svg width="84" height="84" viewBox="0 0 84 84" fill="none" xmlns="http://www.w3.org/2000/svg">
<g filter="url(#filter0_i_35_333)">
<path fill-rule="evenodd" clip-rule="evenodd" d="M42 0C55.04 0 61.56 0 66.71 2.13C73.57 4.97 79.02 10.42 81.86 17.28C84 22.43 84 28.95 84 42C84 55.04 84 61.56 81.86 66.71C79.02 73.57 73.57 79.02 66.71 81.86C61.56 84 55.04 84 42 84C28.95 84 22.43 84 17.28 81.86C10.42 79.02 4.97 73.57 2.13 66.71C0 61.56 0 55.04 0 42C0 28.95 0 22.43 2.13 17.28C4.97 10.42 10.42 4.97 17.28 2.13C22.43 0 28.95 0 42 0Z" fill="white" fill-opacity="0.4"/>
</g>
<g filter="url(#filter1_ii_35_333)">
<path fill-rule="evenodd" clip-rule="evenodd" d="M42 10C53.2 10 58.8 10 63.07 12.17C66.84 14.09 69.9 17.15 71.82 20.92C74 25.19 74 30.79 74 42C74 53.2 74 58.8 71.82 63.07C69.9 66.84 66.84 69.9 63.07 71.82C58.8 74 53.2 74 42 74C30.79 74 25.19 74 20.92 71.82C17.15 69.9 14.09 66.84 12.17 63.07C10 58.8 10 53.2 10 42C10 30.79 10 25.19 12.17 20.92C14.09 17.15 17.15 14.09 20.92 12.17C25.19 10 30.79 10 42 10Z" fill="white" fill-opacity="0.75"/>
</g>
<path fill-rule="evenodd" clip-rule="evenodd" d="M44 45V30C44 28.88 43.12 28 42 28C40.87 28 40 28.88 40 30V45C40 46.12 40.87 47 42 47C43.12 47 44 46.12 44 45ZM42 52C40.89 52 40 52.89 40 54C40 55.1 40.89 56 42 56C43.1 56 44 55.1 44 54C44 52.89 43.1 52 42 52Z" fill="#EF4C01"/>
<defs>
<filter id="filter0_i_35_333" x="0" y="0" width="84" height="85" filterUnits="userSpaceOnUse" color-interpolation-filters="sRGB">
<feFlood flood-opacity="0" result="BackgroundImageFix"/>
<feBlend mode="normal" in="SourceGraphic" in2="BackgroundImageFix" result="shape"/>
<feColorMatrix in="SourceAlpha" type="matrix" values="0 0 0 0 0 0 0 0 0 0 0 0 0 0 0 0 0 0 127 0" result="hardAlpha"/>
<feOffset dy="3"/>
<feGaussianBlur stdDeviation="0.5"/>
<feComposite in2="hardAlpha" operator="arithmetic" k2="-1" k3="1"/>
<feColorMatrix type="matrix" values="0 0 0 0 1 0 0 0 0 1 0 0 0 0 1 0 0 0 1 0"/>
<feBlend mode="normal" in2="shape" result="effect1_innerShadow_35_333"/>
</filter>
<filter id="filter1_ii_35_333" x="10" y="9" width="64" height="66" filterUnits="userSpaceOnUse" color-interpolation-filters="sRGB">
<feFlood flood-opacity="0" result="BackgroundImageFix"/>
<feBlend mode="normal" in="SourceGraphic" in2="BackgroundImageFix" result="shape"/>
<feColorMatrix in="SourceAlpha" type="matrix" values="0 0 0 0 0 0 0 0 0 0 0 0 0 0 0 0 0 0 127 0" result="hardAlpha"/>
<feOffset dy="-3"/>
<feGaussianBlur stdDeviation="0.5"/>
<feComposite in2="hardAlpha" operator="arithmetic" k2="-1" k3="1"/>
<feColorMatrix type="matrix" values="0 0 0 0 0.94902 0 0 0 0 0.956863 0 0 0 0 0.968627 0 0 0 1 0"/>
<feBlend mode="normal" in2="shape" result="effect1_innerShadow_35_333"/>
<feColorMatrix in="SourceAlpha" type="matrix" values="0 0 0 0 0 0 0 0 0 0 0 0 0 0 0 0 0 0 127 0" result="hardAlpha"/>
<feOffset dy="3"/>
<feGaussianBlur stdDeviation="0.5"/>
<feComposite in2="hardAlpha" operator="arithmetic" k2="-1" k3="1"/>
<feColorMatrix type="matrix" values="0 0 0 0 0.94902 0 0 0 0 0.956863 0 0 0 0 0.968627 0 0 0 1 0"/>
<feBlend mode="normal" in2="effect1_innerShadow_35_333" result="effect2_innerShadow_35_333"/>
</filter>
</defs>
</svg>
