<svg width="84" height="84" viewBox="0 0 84 84" fill="none" xmlns="http://www.w3.org/2000/svg">
<g filter="url(#filter0_i_35_334)">
<path fill-rule="evenodd" clip-rule="evenodd" d="M42 0C55.04 0 61.56 0 66.71 2.13C73.57 4.97 79.02 10.42 81.86 17.28C84 22.43 84 28.95 84 42C84 55.04 84 61.56 81.86 66.71C79.02 73.57 73.57 79.02 66.71 81.86C61.56 84 55.04 84 42 84C28.95 84 22.43 84 17.28 81.86C10.42 79.02 4.97 73.57 2.13 66.71C0 61.56 0 55.04 0 42C0 28.95 0 22.43 2.13 17.28C4.97 10.42 10.42 4.97 17.28 2.13C22.43 0 28.95 0 42 0Z" fill="white" fill-opacity="0.4"/>
</g>
<g filter="url(#filter1_ii_35_334)">
<path fill-rule="evenodd" clip-rule="evenodd" d="M42 10C53.2 10 58.8 10 63.07 12.17C66.84 14.09 69.9 17.15 71.82 20.92C74 25.19 74 30.79 74 42C74 53.2 74 58.8 71.82 63.07C69.9 66.84 66.84 69.9 63.07 71.82C58.8 74 53.2 74 42 74C30.79 74 25.19 74 20.92 71.82C17.15 69.9 14.09 66.84 12.17 63.07C10 58.8 10 53.2 10 42C10 30.79 10 25.19 12.17 20.92C14.09 17.15 17.15 14.09 20.92 12.17C25.19 10 30.79 10 42 10Z" fill="white" fill-opacity="0.75"/>
</g>
<path fill-rule="evenodd" clip-rule="evenodd" d="M52.4601 37.35L41.4701 49.35C41.0801 49.74 40.5501 50 40.0001 50C39.4401 50 38.9701 49.8 38.5801 49.41L31.5901 42.41C30.8001 41.62 30.8001 40.38 31.5901 39.59C32.3801 38.79 33.6201 38.79 34.4101 39.59L39.9301 45.11L49.5201 34.65C50.2701 33.83 51.5101 33.77 52.3401 34.53C53.1601 35.29 53.2201 36.53 52.4601 37.35Z" fill="#008985"/>
<defs>
<filter id="filter0_i_35_334" x="0" y="0" width="84" height="85" filterUnits="userSpaceOnUse" color-interpolation-filters="sRGB">
<feFlood flood-opacity="0" result="BackgroundImageFix"/>
<feBlend mode="normal" in="SourceGraphic" in2="BackgroundImageFix" result="shape"/>
<feColorMatrix in="SourceAlpha" type="matrix" values="0 0 0 0 0 0 0 0 0 0 0 0 0 0 0 0 0 0 127 0" result="hardAlpha"/>
<feOffset dy="3"/>
<feGaussianBlur stdDeviation="0.5"/>
<feComposite in2="hardAlpha" operator="arithmetic" k2="-1" k3="1"/>
<feColorMatrix type="matrix" values="0 0 0 0 1 0 0 0 0 1 0 0 0 0 1 0 0 0 1 0"/>
<feBlend mode="normal" in2="shape" result="effect1_innerShadow_35_334"/>
</filter>
<filter id="filter1_ii_35_334" x="10" y="9" width="64" height="66" filterUnits="userSpaceOnUse" color-interpolation-filters="sRGB">
<feFlood flood-opacity="0" result="BackgroundImageFix"/>
<feBlend mode="normal" in="SourceGraphic" in2="BackgroundImageFix" result="shape"/>
<feColorMatrix in="SourceAlpha" type="matrix" values="0 0 0 0 0 0 0 0 0 0 0 0 0 0 0 0 0 0 127 0" result="hardAlpha"/>
<feOffset dy="-3"/>
<feGaussianBlur stdDeviation="0.5"/>
<feComposite in2="hardAlpha" operator="arithmetic" k2="-1" k3="1"/>
<feColorMatrix type="matrix" values="0 0 0 0 0.94902 0 0 0 0 0.956863 0 0 0 0 0.968627 0 0 0 1 0"/>
<feBlend mode="normal" in2="shape" result="effect1_innerShadow_35_334"/>
<feColorMatrix in="SourceAlpha" type="matrix" values="0 0 0 0 0 0 0 0 0 0 0 0 0 0 0 0 0 0 127 0" result="hardAlpha"/>
<feOffset dy="3"/>
<feGaussianBlur stdDeviation="0.5"/>
<feComposite in2="hardAlpha" operator="arithmetic" k2="-1" k3="1"/>
<feColorMatrix type="matrix" values="0 0 0 0 0.94902 0 0 0 0 0.956863 0 0 0 0 0.968627 0 0 0 1 0"/>
<feBlend mode="normal" in2="effect1_innerShadow_35_334" result="effect2_innerShadow_35_334"/>
</filter>
</defs>
</svg>
