<svg width="96" height="96" viewBox="0 0 96 96" fill="none" xmlns="http://www.w3.org/2000/svg">
<g filter="url(#filter0_i_35_326)">
<path fill-rule="evenodd" clip-rule="evenodd" d="M48 0C66.71 0 76.06 0 82.89 4.29C86.45 6.52 89.47 9.54 91.7 13.1C96 19.93 96 29.28 96 48C96 66.71 96 76.06 91.7 82.89C89.47 86.45 86.45 89.47 82.89 91.7C76.06 96 66.71 96 48 96C29.28 96 19.93 96 13.1 91.7C9.54 89.47 6.52 86.45 4.29 82.89C0 76.06 0 66.71 0 48C0 29.28 0 19.93 4.29 13.1C6.52 9.54 9.54 6.52 13.1 4.29C19.93 0 29.28 0 48 0Z" fill="white" fill-opacity="0.4"/>
</g>
<g filter="url(#filter1_ii_35_326)">
<path fill-rule="evenodd" clip-rule="evenodd" d="M47 12H49C63.04 12 70.06 12 75.11 15.37C77.29 16.82 79.17 18.7 80.62 20.88C84 25.93 84 32.95 84 47V49C84 63.04 84 70.06 80.62 75.11C79.17 77.29 77.29 79.17 75.11 80.62C70.06 84 63.04 84 49 84H47C32.95 84 25.93 84 20.88 80.62C18.7 79.17 16.82 77.29 15.37 75.11C12 70.06 12 63.04 12 49V47C12 32.95 12 25.93 15.37 20.88C16.82 18.7 18.7 16.82 20.88 15.37C25.93 12 32.95 12 47 12Z" fill="white" fill-opacity="0.75"/>
</g>
<path fill-rule="evenodd" clip-rule="evenodd" d="M48 33C49.12 33 50 33.88 50 35V53C50 54.12 49.12 55 48 55C46.87 55 46 54.12 46 53V35C46 33.88 46.87 33 48 33ZM48 59C46.89 59 46 59.89 46 61C46 62.1 46.89 63 48 63C49.1 63 50 62.1 50 61C50 59.89 49.1 59 48 59Z" fill="#EF4C01"/>
<defs>
<filter id="filter0_i_35_326" x="0" y="0" width="96" height="97" filterUnits="userSpaceOnUse" color-interpolation-filters="sRGB">
<feFlood flood-opacity="0" result="BackgroundImageFix"/>
<feBlend mode="normal" in="SourceGraphic" in2="BackgroundImageFix" result="shape"/>
<feColorMatrix in="SourceAlpha" type="matrix" values="0 0 0 0 0 0 0 0 0 0 0 0 0 0 0 0 0 0 127 0" result="hardAlpha"/>
<feOffset dy="3"/>
<feGaussianBlur stdDeviation="0.5"/>
<feComposite in2="hardAlpha" operator="arithmetic" k2="-1" k3="1"/>
<feColorMatrix type="matrix" values="0 0 0 0 1 0 0 0 0 1 0 0 0 0 1 0 0 0 1 0"/>
<feBlend mode="normal" in2="shape" result="effect1_innerShadow_35_326"/>
</filter>
<filter id="filter1_ii_35_326" x="12" y="11" width="72" height="74" filterUnits="userSpaceOnUse" color-interpolation-filters="sRGB">
<feFlood flood-opacity="0" result="BackgroundImageFix"/>
<feBlend mode="normal" in="SourceGraphic" in2="BackgroundImageFix" result="shape"/>
<feColorMatrix in="SourceAlpha" type="matrix" values="0 0 0 0 0 0 0 0 0 0 0 0 0 0 0 0 0 0 127 0" result="hardAlpha"/>
<feOffset dy="-3"/>
<feGaussianBlur stdDeviation="0.5"/>
<feComposite in2="hardAlpha" operator="arithmetic" k2="-1" k3="1"/>
<feColorMatrix type="matrix" values="0 0 0 0 0.94902 0 0 0 0 0.956863 0 0 0 0 0.968627 0 0 0 1 0"/>
<feBlend mode="normal" in2="shape" result="effect1_innerShadow_35_326"/>
<feColorMatrix in="SourceAlpha" type="matrix" values="0 0 0 0 0 0 0 0 0 0 0 0 0 0 0 0 0 0 127 0" result="hardAlpha"/>
<feOffset dy="3"/>
<feGaussianBlur stdDeviation="0.5"/>
<feComposite in2="hardAlpha" operator="arithmetic" k2="-1" k3="1"/>
<feColorMatrix type="matrix" values="0 0 0 0 0.94902 0 0 0 0 0.956863 0 0 0 0 0.968627 0 0 0 1 0"/>
<feBlend mode="normal" in2="effect1_innerShadow_35_326" result="effect2_innerShadow_35_326"/>
</filter>
</defs>
</svg>
