<svg width="84" height="84" viewBox="0 0 84 84" fill="none" xmlns="http://www.w3.org/2000/svg">
<g filter="url(#filter0_i_35_327)">
<path fill-rule="evenodd" clip-rule="evenodd" d="M1.68378 61.315L28.0638 8.625C33.8138 -2.875 50.1838 -2.875 55.9338 8.625L82.3138 61.315C87.5338 71.725 79.9838 84.005 68.3738 84.005H15.6238C4.01378 84.005 -3.53622 71.725 1.68378 61.315Z" fill="white" fill-opacity="0.4"/>
</g>
<g filter="url(#filter1_ii_35_327)">
<path fill-rule="evenodd" clip-rule="evenodd" d="M10.7498 63.8411L35.6791 13.907C38.279 8.69759 45.7288 8.69759 48.3287 13.907L73.258 63.8411C75.588 68.5106 72.1781 73.9999 66.9282 73.9999H17.0796C11.8297 73.9999 8.41984 68.5106 10.7498 63.8411Z" fill="white" fill-opacity="0.75"/>
</g>
<path fill-rule="evenodd" clip-rule="evenodd" d="M44.0039 48V33C44.0039 31.88 43.1239 31 42.0039 31C40.8739 31 40.0039 31.88 40.0039 33V48C40.0039 49.12 40.8739 50 42.0039 50C43.1239 50 44.0039 49.12 44.0039 48ZM42.0039 55C40.8939 55 40.0039 55.89 40.0039 57C40.0039 58.1 40.8939 59 42.0039 59C43.1039 59 44.0039 58.1 44.0039 57C44.0039 55.89 43.1039 55 42.0039 55Z" fill="#D10032"/>
<defs>
<filter id="filter0_i_35_327" x="0" y="0" width="83.9976" height="85.005" filterUnits="userSpaceOnUse" color-interpolation-filters="sRGB">
<feFlood flood-opacity="0" result="BackgroundImageFix"/>
<feBlend mode="normal" in="SourceGraphic" in2="BackgroundImageFix" result="shape"/>
<feColorMatrix in="SourceAlpha" type="matrix" values="0 0 0 0 0 0 0 0 0 0 0 0 0 0 0 0 0 0 127 0" result="hardAlpha"/>
<feOffset dy="3"/>
<feGaussianBlur stdDeviation="0.5"/>
<feComposite in2="hardAlpha" operator="arithmetic" k2="-1" k3="1"/>
<feColorMatrix type="matrix" values="0 0 0 0 1 0 0 0 0 1 0 0 0 0 1 0 0 0 1 0"/>
<feBlend mode="normal" in2="shape" result="effect1_innerShadow_35_327"/>
</filter>
<filter id="filter1_ii_35_327" x="10.0039" y="8.99994" width="64" height="66" filterUnits="userSpaceOnUse" color-interpolation-filters="sRGB">
<feFlood flood-opacity="0" result="BackgroundImageFix"/>
<feBlend mode="normal" in="SourceGraphic" in2="BackgroundImageFix" result="shape"/>
<feColorMatrix in="SourceAlpha" type="matrix" values="0 0 0 0 0 0 0 0 0 0 0 0 0 0 0 0 0 0 127 0" result="hardAlpha"/>
<feOffset dy="-3"/>
<feGaussianBlur stdDeviation="0.5"/>
<feComposite in2="hardAlpha" operator="arithmetic" k2="-1" k3="1"/>
<feColorMatrix type="matrix" values="0 0 0 0 0.94902 0 0 0 0 0.956863 0 0 0 0 0.968627 0 0 0 1 0"/>
<feBlend mode="normal" in2="shape" result="effect1_innerShadow_35_327"/>
<feColorMatrix in="SourceAlpha" type="matrix" values="0 0 0 0 0 0 0 0 0 0 0 0 0 0 0 0 0 0 127 0" result="hardAlpha"/>
<feOffset dy="3"/>
<feGaussianBlur stdDeviation="0.5"/>
<feComposite in2="hardAlpha" operator="arithmetic" k2="-1" k3="1"/>
<feColorMatrix type="matrix" values="0 0 0 0 0.94902 0 0 0 0 0.956863 0 0 0 0 0.968627 0 0 0 1 0"/>
<feBlend mode="normal" in2="effect1_innerShadow_35_327" result="effect2_innerShadow_35_327"/>
</filter>
</defs>
</svg>
