<svg width="96.000000" height="96.000000" viewBox="0 0 96 96" fill="none" xmlns="http://www.w3.org/2000/svg" xmlns:xlink="http://www.w3.org/1999/xlink">
	<desc>
			Created with Pixso.
	</desc>
	<defs>
		<radialGradient gradientTransform="translate(48 66) rotate(90) scale(51.3529 57.015)" cx="0.000000" cy="0.000000" r="1.000000" id="paint_radial_14987_17022_0" gradientUnits="userSpaceOnUse">
			<stop stop-color="#8291B3"/>
			<stop offset="0.861478" stop-color="#373C49"/>
		</radialGradient>
	</defs>
	<path id="Rectangle" d="M48 12C60.6 12 66.9 12 71.71 14.45C75.94 16.6 79.39 20.05 81.54 24.28C84 29.09 84 35.39 84 48C84 60.6 84 66.9 81.54 71.71C79.39 75.94 75.94 79.39 71.71 81.54C66.9 84 60.6 84 48 84C35.39 84 29.09 84 24.28 81.54C20.05 79.39 16.6 75.94 14.45 71.71C12 66.9 12 60.6 12 48C12 35.39 12 29.09 14.45 24.28C16.6 20.05 20.05 16.6 24.28 14.45C29.09 12 35.39 12 48 12Z" fill="url(#paint_radial_14987_17022_0)" fill-opacity="1.000000" fill-rule="evenodd"/>
	<path id="Union" d="M49.99 37.99L49.99 50.92L58.1 56.32C59.03 56.95 59.27 58.17 58.65 59.1C58.03 60.03 56.81 60.27 55.88 59.65L46.89 53.65C46.59 53.46 46.37 53.22 46.22 52.94C46.07 52.66 46 52.35 46 51.99L46 37.99C46 36.87 46.87 36 47.99 36C49.11 36 49.99 36.87 49.99 37.99Z" fill="#FFFFFF" fill-opacity="1.000000" fill-rule="evenodd"/>
</svg>
