<svg width="128" height="128" viewBox="0 0 128 128" fill="none" xmlns="http://www.w3.org/2000/svg">
<path fill-rule="evenodd" clip-rule="evenodd" d="M64 22C80.37 22 88.55 22 94.53 25.75C97.65 27.71 100.28 30.34 102.24 33.46C106 39.44 106 47.62 106 64C106 80.37 106 88.55 102.24 94.53C100.28 97.65 97.65 100.28 94.53 102.24C88.55 106 80.37 106 64 106C47.62 106 39.44 106 33.46 102.24C30.34 100.28 27.71 97.65 25.75 94.53C22 88.55 22 80.37 22 64C22 47.62 22 39.44 25.75 33.46C27.71 30.34 30.34 27.71 33.46 25.75C39.44 22 47.62 22 64 22Z" fill="url(#paint0_radial_35_317)"/>
<path fill-rule="evenodd" clip-rule="evenodd" d="M76.4001 58.39L62.4101 72.29C61.9401 72.76 61.4701 73 61.0001 73C60.5301 73 60.0501 72.76 59.5801 72.29L51.5901 64.35C50.8001 63.56 50.8001 62.33 51.5901 61.54C52.3801 60.76 53.6201 60.76 54.4201 61.54L61.0001 68.08L73.5701 55.58C74.3701 54.8 75.6101 54.8 76.4001 55.58C77.1901 56.37 77.1901 57.61 76.4001 58.39Z" fill="white"/>
<defs>
<radialGradient id="paint0_radial_35_317" cx="0" cy="0" r="1" gradientUnits="userSpaceOnUse" gradientTransform="translate(64 85) rotate(90) scale(59.9117 66.5175)">
<stop stop-color="#50BEB8"/>
<stop offset="0.861478" stop-color="#373C49"/>
</radialGradient>
</defs>
</svg>
