<svg width="96" height="96" viewBox="0 0 96 96" fill="none" xmlns="http://www.w3.org/2000/svg">
<path fill-rule="evenodd" clip-rule="evenodd" d="M48 12C60.6 12 66.9 12 71.71 14.45C75.94 16.6 79.39 20.05 81.54 24.28C84 29.09 84 35.39 84 48C84 60.6 84 66.9 81.54 71.71C79.39 75.94 75.94 79.39 71.71 81.54C66.9 84 60.6 84 48 84C35.39 84 29.09 84 24.28 81.54C20.05 79.39 16.6 75.94 14.45 71.71C12 66.9 12 60.6 12 48C12 35.39 12 29.09 14.45 24.28C16.6 20.05 20.05 16.6 24.28 14.45C29.09 12 35.39 12 48 12Z" fill="url(#paint0_radial_35_328)"/>
<path fill-rule="evenodd" clip-rule="evenodd" d="M58.4601 43.35L47.4701 55.35C47.0801 55.74 46.5501 56 46.0001 56C45.4401 56 44.9701 55.8 44.5801 55.41L37.5901 48.41C36.8001 47.62 36.8001 46.38 37.5901 45.59C38.3801 44.79 39.6201 44.79 40.4101 45.59L45.9301 51.11L55.5201 40.65C56.2701 39.83 57.5101 39.77 58.3401 40.53C59.1601 41.29 59.2201 42.53 58.4601 43.35Z" fill="white"/>
<defs>
<radialGradient id="paint0_radial_35_328" cx="0" cy="0" r="1" gradientUnits="userSpaceOnUse" gradientTransform="translate(48 66) rotate(90) scale(51.3529 57.015)">
<stop stop-color="#50BEB8"/>
<stop offset="0.861478" stop-color="#D6DEED"/>
</radialGradient>
</defs>
</svg>
