<svg width="20.000000" height="20.000000" viewBox="0 0 20 20" fill="none" xmlns="http://www.w3.org/2000/svg" xmlns:xlink="http://www.w3.org/1999/xlink">
	<desc>
			Created with Pixso.
	</desc>
	<defs/>
	<path id="Vector" d="M3.11 18.82C3.48 19.07 3.89 19.28 4.32 19.46C4.65 19.6 5.01 19.71 5.41 19.78C5.76 19.85 6.17 19.9 6.64 19.94C7.04 19.96 7.53 19.98 8.13 19.99C8.5 19.99 9.12 20 10 20C10.87 20 11.5 19.99 11.86 19.99C12.46 19.98 12.95 19.96 13.35 19.94C13.82 19.9 14.23 19.85 14.58 19.78C14.98 19.71 15.34 19.6 15.67 19.46C16.1 19.28 16.51 19.07 16.88 18.82C17.26 18.56 17.62 18.27 17.95 17.94C18.27 17.62 18.56 17.26 18.82 16.88C19.07 16.51 19.28 16.1 19.46 15.67C19.6 15.34 19.71 14.98 19.78 14.58C19.85 14.23 19.9 13.82 19.94 13.35C19.96 12.95 19.98 12.46 19.99 11.86C19.99 11.49 20 10.87 20 10C20 9.12 19.99 8.5 19.99 8.13C19.98 7.53 19.96 7.04 19.94 6.64C19.9 6.17 19.85 5.76 19.78 5.41C19.71 5.01 19.6 4.65 19.46 4.32C19.28 3.89 19.07 3.48 18.82 3.11C18.56 2.73 18.27 2.37 17.95 2.05C17.62 1.72 17.26 1.43 16.88 1.17C16.51 0.92 16.1 0.71 15.67 0.53C15.34 0.39 14.98 0.28 14.58 0.21C14.23 0.14 13.82 0.09 13.35 0.05C12.95 0.03 12.46 0.01 11.86 0C11.5 0 10.87 0 10 0C9.12 0 8.5 0 8.13 0C7.53 0.01 7.04 0.03 6.64 0.05C6.17 0.09 5.76 0.14 5.41 0.21C5.01 0.28 4.65 0.39 4.32 0.53C3.89 0.71 3.48 0.92 3.11 1.17C2.73 1.43 2.37 1.72 2.04 2.05C1.72 2.37 1.43 2.73 1.17 3.11C0.92 3.48 0.71 3.89 0.53 4.32C0.39 4.65 0.28 5.01 0.21 5.41C0.14 5.76 0.09 6.17 0.05 6.64C0.03 7.04 0.01 7.53 0 8.13C0 8.5 0 9.12 0 10C0 10.87 0 11.49 0 11.86C0.01 12.46 0.03 12.95 0.05 13.35C0.09 13.82 0.14 14.23 0.21 14.58C0.28 14.98 0.39 15.34 0.53 15.67C0.71 16.1 0.92 16.51 1.17 16.88C1.43 17.26 1.72 17.62 2.04 17.94C2.37 18.27 2.73 18.56 3.11 18.82ZM5.79 17.82C5.53 17.77 5.29 17.7 5.08 17.61C4.78 17.49 4.49 17.33 4.22 17.15C3.95 16.97 3.69 16.77 3.46 16.53C3.23 16.3 3.02 16.04 2.84 15.77C2.66 15.5 2.5 15.21 2.38 14.91C2.29 14.7 2.22 14.46 2.17 14.2C2.12 13.93 2.08 13.6 2.05 13.21C2.03 12.85 2.01 12.39 2 11.83C2 11.48 2 10.86 2 10C2 9.13 2 8.51 2 8.16C2.01 7.6 2.03 7.14 2.05 6.78C2.08 6.39 2.12 6.06 2.17 5.79C2.22 5.53 2.29 5.29 2.38 5.08C2.5 4.78 2.66 4.49 2.84 4.22C3.02 3.95 3.23 3.69 3.46 3.46C3.69 3.23 3.95 3.02 4.22 2.84C4.49 2.66 4.78 2.5 5.08 2.38C5.29 2.29 5.53 2.22 5.79 2.17C6.06 2.12 6.39 2.08 6.78 2.05C7.14 2.03 7.6 2.01 8.16 2C8.51 2 9.13 2 10 2C10.86 2 11.48 2 11.83 2C12.39 2.01 12.85 2.03 13.21 2.05C13.6 2.08 13.93 2.12 14.2 2.17C14.46 2.22 14.7 2.29 14.91 2.38C15.21 2.5 15.5 2.66 15.77 2.84C16.04 3.02 16.3 3.23 16.53 3.46C16.76 3.69 16.97 3.95 17.15 4.22C17.33 4.49 17.49 4.78 17.61 5.08C17.7 5.29 17.77 5.53 17.82 5.79C17.87 6.06 17.91 6.39 17.94 6.78C17.96 7.14 17.98 7.6 17.99 8.16C17.99 8.51 18 9.13 18 10C18 10.86 17.99 11.48 17.99 11.83C17.98 12.39 17.96 12.85 17.94 13.21C17.91 13.6 17.87 13.93 17.82 14.2C17.77 14.46 17.7 14.7 17.61 14.91C17.49 15.21 17.33 15.5 17.15 15.77C16.97 16.04 16.76 16.3 16.53 16.53C16.3 16.76 16.04 16.97 15.77 17.15C15.5 17.33 15.21 17.49 14.91 17.61C14.7 17.7 14.46 17.77 14.2 17.82C13.93 17.87 13.6 17.91 13.21 17.94C12.85 17.96 12.39 17.98 11.83 17.99C11.48 17.99 10.86 18 10 18C9.13 18 8.51 17.99 8.16 17.99C7.6 17.98 7.14 17.96 6.78 17.94C6.39 17.91 6.06 17.87 5.79 17.82ZM11 6C11 5.44 10.55 5 10 5C9.44 5 9 5.44 9 6L9 11C9 11.56 9.44 12 10 12C10.55 12 11 11.56 11 11L11 6ZM11 14C11 14.55 10.55 15 10 15C9.44 15 9 14.55 9 14C9 13.44 9.44 13 10 13C10.55 13 11 13.44 11 14Z" fill="#1F1F22" fill-opacity="1.000000" fill-rule="evenodd"/>
</svg>
