<svg width="16.000000" height="16.000000" viewBox="0 0 16 16" fill="none" xmlns="http://www.w3.org/2000/svg" xmlns:xlink="http://www.w3.org/1999/xlink">
	<desc>
			Created with Pixso.
	</desc>
	<defs/>
	<path id="Vector" d="M2.86 15.11C2.46 14.87 2.09 14.58 1.75 14.24C1.41 13.9 1.12 13.53 0.88 13.13C0.63 12.73 0.44 12.31 0.29 11.85C0.15 11.42 0.06 10.88 0.03 10.24C0.01 9.97 0 9.64 0 9.24C0 8.99 0 8.58 0 8C0 7.41 0 7 0 6.75C0 6.35 0.01 6.02 0.03 5.75C0.06 5.11 0.15 4.57 0.29 4.14C0.44 3.68 0.63 3.26 0.88 2.86C1.12 2.46 1.41 2.09 1.75 1.75C2.09 1.41 2.46 1.12 2.86 0.88C3.26 0.63 3.68 0.44 4.14 0.29C4.57 0.15 5.11 0.06 5.75 0.03C6.02 0.01 6.35 0 6.75 0C7 0 7.41 0 8 0C8.58 0 9 0 9.24 0C9.64 0 9.97 0.01 10.24 0.03C10.88 0.06 11.42 0.15 11.85 0.29C12.31 0.44 12.73 0.63 13.13 0.88C13.53 1.12 13.9 1.41 14.24 1.75C14.58 2.09 14.87 2.46 15.11 2.86C15.36 3.26 15.55 3.68 15.7 4.14C15.84 4.57 15.93 5.11 15.96 5.75C15.98 6.02 15.99 6.35 15.99 6.75C15.99 7 16 7.41 16 8C16 8.58 15.99 8.99 15.99 9.24C15.99 9.64 15.98 9.97 15.96 10.24C15.93 10.88 15.84 11.42 15.7 11.85C15.55 12.31 15.36 12.73 15.11 13.13C14.87 13.53 14.58 13.9 14.24 14.24C13.9 14.58 13.53 14.87 13.13 15.11C12.73 15.36 12.31 15.55 11.85 15.7C11.42 15.84 10.88 15.93 10.24 15.96C9.97 15.98 9.64 15.99 9.24 15.99C9 15.99 8.58 16 8 16C7.41 16 7 15.99 6.75 15.99C6.35 15.99 6.02 15.98 5.75 15.96C5.11 15.93 4.57 15.84 4.14 15.7C3.68 15.55 3.26 15.36 2.86 15.11ZM4.76 13.8C5.02 13.88 5.39 13.94 5.86 13.97C6.22 13.99 6.93 14 8 14C9.06 14 9.77 13.99 10.13 13.97C10.6 13.94 10.97 13.88 11.23 13.8C11.54 13.7 11.82 13.57 12.09 13.41C12.35 13.24 12.6 13.05 12.82 12.82C13.05 12.6 13.24 12.35 13.41 12.09C13.57 11.82 13.7 11.54 13.8 11.23C13.88 10.97 13.94 10.6 13.97 10.13C13.99 9.77 14 9.06 14 8C14 6.93 13.99 6.22 13.97 5.86C13.94 5.39 13.88 5.02 13.8 4.76C13.7 4.45 13.57 4.17 13.41 3.9C13.24 3.64 13.05 3.39 12.82 3.17C12.6 2.94 12.35 2.75 12.09 2.58C11.82 2.42 11.54 2.29 11.23 2.19C10.97 2.11 10.6 2.05 10.13 2.02C9.77 2 9.06 2 8 2C6.93 2 6.22 2 5.86 2.02C5.39 2.05 5.02 2.11 4.76 2.19C4.45 2.29 4.17 2.42 3.9 2.58C3.64 2.75 3.39 2.94 3.17 3.17C2.94 3.39 2.75 3.64 2.58 3.9C2.42 4.17 2.29 4.45 2.19 4.76C2.11 5.02 2.05 5.39 2.02 5.86C2 6.22 2 6.93 2 8C2 9.06 2 9.77 2.02 10.13C2.05 10.6 2.11 10.97 2.19 11.23C2.29 11.54 2.42 11.82 2.58 12.09C2.75 12.35 2.94 12.6 3.17 12.82C3.39 13.05 3.64 13.24 3.9 13.41C4.17 13.57 4.45 13.7 4.76 13.8ZM8.89 5.44L8.11 7L9.5 7C9.77 7 10.01 7.09 10.2 7.29C10.4 7.48 10.5 7.72 10.5 8C10.5 8.07 10.49 8.15 10.47 8.22C10.45 8.3 10.42 8.37 10.39 8.44L8.89 11.44C8.64 11.94 8.05 12.14 7.55 11.89C7.05 11.64 6.85 11.05 7.1 10.55L7.88 9L6.5 9C6.42 9 6.34 8.99 6.27 8.97C6.19 8.95 6.12 8.92 6.05 8.89C5.8 8.77 5.63 8.57 5.55 8.31C5.46 8.05 5.48 7.79 5.6 7.55L7.1 4.55C7.35 4.05 7.94 3.85 8.44 4.1C8.94 4.35 9.14 4.94 8.89 5.44Z" fill="#1F1F22" fill-opacity="1.000000" fill-rule="evenodd"/>
</svg>
