<svg width="16.000000" height="16.000221" viewBox="0 0 16 16.0002" fill="none" xmlns="http://www.w3.org/2000/svg" xmlns:xlink="http://www.w3.org/1999/xlink">
	<desc>
			Created with Pixso.
	</desc>
	<defs/>
	<path id="Vector" d="M12.99 16L3 15.99C2.46 15.99 1.96 15.86 1.5 15.59C1.07 15.34 0.72 15 0.45 14.57C0.31 14.34 0.2 14.1 0.12 13.85C0.06 13.63 0.02 13.4 0 13.17C-0.01 12.94 0 12.71 0.04 12.48C0.09 12.2 0.18 11.92 0.32 11.65L5.31 1.66C5.46 1.36 5.65 1.09 5.88 0.87C6.05 0.69 6.25 0.54 6.46 0.42C6.93 0.14 7.44 0 8 0C8.29 0 8.58 0.04 8.86 0.12C9.09 0.19 9.31 0.29 9.53 0.42C9.74 0.54 9.94 0.69 10.11 0.87C10.34 1.09 10.53 1.36 10.68 1.66L15.67 11.65C15.91 12.14 16.02 12.65 15.98 13.18C15.95 13.68 15.8 14.14 15.54 14.57C15.27 15 14.92 15.34 14.49 15.6C14.28 15.71 14.07 15.81 13.85 15.87C13.58 15.95 13.29 16 12.99 16ZM3 13.99L12.99 14Q13.17 14 13.33 13.94L13.33 13.94Q13.41 13.91 13.49 13.86C13.63 13.78 13.75 13.67 13.84 13.52C13.93 13.38 13.98 13.22 13.99 13.05C14 12.88 13.96 12.71 13.88 12.55L8.89 2.55C8.8 2.37 8.67 2.23 8.51 2.14C8.35 2.05 8.18 2 8 2C7.81 2 7.64 2.05 7.48 2.14C7.32 2.23 7.19 2.37 7.1 2.55L2.11 12.55C2.03 12.71 1.99 12.88 2 13.05C2.01 13.22 2.06 13.37 2.15 13.52C2.24 13.66 2.36 13.78 2.5 13.86C2.65 13.95 2.82 13.99 3 13.99ZM7 5.99L7 8.99C7 9.55 7.44 9.99 8 9.99C8.56 9.99 9 9.55 9 8.99L9 5.99C9 5.43 8.56 4.99 8 4.99C7.44 4.99 7 5.43 7 5.99ZM7 12C7 11.44 7.44 11 8 11C8.55 11 9 11.44 9 12C9 12.55 8.55 13 8 13C7.44 13 7 12.55 7 12Z" fill="#1F1F22" fill-opacity="1.000000" fill-rule="evenodd"/>
</svg>
