<svg width="16.000000" height="16.000000" viewBox="0 0 16 16" fill="none" xmlns="http://www.w3.org/2000/svg" xmlns:xlink="http://www.w3.org/1999/xlink">
	<desc>
			Created with Pixso.
	</desc>
	<defs/>
	<path id="Vector" d="M2.86 15.11C3.26 15.36 3.68 15.55 4.14 15.7C4.57 15.84 5.11 15.93 5.75 15.96C6.02 15.98 6.35 15.99 6.75 15.99C7 15.99 7.41 16 8 16C8.58 16 9 15.99 9.24 15.99C9.64 15.99 9.97 15.98 10.24 15.96C10.88 15.93 11.42 15.84 11.85 15.7C12.31 15.55 12.73 15.36 13.13 15.11C13.53 14.87 13.9 14.58 14.24 14.24C14.58 13.9 14.87 13.53 15.11 13.13C15.36 12.73 15.55 12.31 15.7 11.85C15.84 11.42 15.93 10.88 15.96 10.24C15.98 9.97 15.99 9.64 15.99 9.24C15.99 8.99 16 8.58 16 8C16 7.41 15.99 7 15.99 6.75C15.99 6.35 15.98 6.02 15.96 5.75C15.93 5.11 15.84 4.57 15.7 4.14C15.55 3.68 15.36 3.26 15.11 2.86C14.87 2.46 14.58 2.09 14.24 1.75C13.9 1.41 13.53 1.12 13.13 0.88C12.73 0.63 12.31 0.44 11.85 0.29C11.42 0.15 10.88 0.06 10.24 0.03C9.97 0.01 9.64 0 9.24 0C9 0 8.58 0 8 0C7.41 0 7 0 6.75 0C6.35 0 6.02 0.01 5.75 0.03C5.11 0.06 4.57 0.15 4.14 0.29C3.68 0.44 3.26 0.63 2.86 0.88C2.46 1.12 2.09 1.41 1.75 1.75C1.41 2.09 1.12 2.46 0.88 2.86C0.63 3.26 0.44 3.68 0.29 4.14C0.15 4.57 0.06 5.11 0.03 5.75C0.01 6.02 0 6.35 0 6.75C0 7 0 7.41 0 8C0 8.58 0 8.99 0 9.24C0 9.64 0.01 9.97 0.03 10.24C0.06 10.88 0.15 11.42 0.29 11.85C0.44 12.31 0.63 12.73 0.88 13.13C1.12 13.53 1.41 13.9 1.75 14.24C2.09 14.58 2.46 14.87 2.86 15.11ZM5.86 13.97C5.39 13.94 5.02 13.88 4.76 13.8C4.45 13.7 4.17 13.57 3.9 13.41C3.64 13.24 3.39 13.05 3.17 12.82C2.94 12.6 2.75 12.35 2.58 12.09C2.42 11.82 2.29 11.54 2.19 11.23C2.11 10.97 2.05 10.6 2.02 10.13C2 9.77 2 9.06 2 8C2 6.93 2 6.22 2.02 5.86C2.05 5.39 2.11 5.02 2.19 4.76C2.29 4.45 2.42 4.17 2.58 3.9C2.75 3.64 2.94 3.39 3.17 3.17C3.39 2.94 3.64 2.75 3.9 2.58C4.17 2.42 4.45 2.29 4.76 2.19C5.02 2.11 5.39 2.05 5.86 2.02C6.22 2 6.93 2 8 2C9.06 2 9.77 2 10.13 2.02C10.6 2.05 10.97 2.11 11.23 2.19C11.54 2.29 11.82 2.42 12.09 2.58C12.35 2.75 12.6 2.94 12.82 3.17C13.05 3.39 13.24 3.64 13.41 3.9C13.57 4.17 13.7 4.45 13.8 4.76C13.88 5.02 13.94 5.39 13.97 5.86C13.99 6.22 14 6.93 14 8C14 9.06 13.99 9.77 13.97 10.13C13.94 10.6 13.88 10.97 13.8 11.23C13.7 11.54 13.57 11.82 13.41 12.09C13.24 12.35 13.05 12.6 12.82 12.82C12.6 13.05 12.35 13.24 12.09 13.41C11.82 13.57 11.54 13.7 11.23 13.8C10.97 13.88 10.6 13.94 10.13 13.97C9.77 13.99 9.06 14 8 14C6.93 14 6.22 13.99 5.86 13.97ZM7 5C7 4.44 7.44 4 8 4C8.55 4 9 4.44 9 5L9 8C9 8.56 8.55 9 8 9C7.44 9 7 8.56 7 8L7 5ZM8 12C8.55 12 9 11.55 9 11C9 10.44 8.55 10 8 10C7.44 10 7 10.44 7 11C7 11.55 7.44 12 8 12Z" fill="#1F1F22" fill-opacity="1.000000" fill-rule="evenodd"/>
</svg>
