<svg width="24.000000" height="24.000000" viewBox="0 0 24 24" fill="none" xmlns="http://www.w3.org/2000/svg" xmlns:xlink="http://www.w3.org/1999/xlink">
	<desc>
			Created with Pixso.
	</desc>
	<defs/>
	<path id="Union" d="M15 2C15.51 2 16.02 2.05 16.51 2.16C16.92 2.25 17.33 2.38 17.72 2.55C18.12 2.71 18.49 2.91 18.85 3.15C19.24 3.41 19.6 3.71 19.94 4.05C20.28 4.39 20.58 4.75 20.84 5.14C21.08 5.5 21.28 5.87 21.44 6.27C21.61 6.66 21.74 7.07 21.83 7.48C21.94 7.97 22 8.48 22 9L22 15C22 15.51 21.94 16.02 21.83 16.51C21.74 16.92 21.61 17.33 21.44 17.72C21.28 18.12 21.08 18.49 20.84 18.85C20.58 19.24 20.28 19.6 19.94 19.94C19.61 20.28 19.24 20.58 18.85 20.84C18.49 21.08 18.12 21.28 17.72 21.44C17.33 21.61 16.92 21.74 16.51 21.83C16.02 21.94 15.51 22 15 22L9 22C8.48 22 7.97 21.94 7.48 21.83C7.07 21.74 6.66 21.61 6.27 21.44C5.87 21.28 5.5 21.08 5.14 20.84C4.75 20.58 4.39 20.28 4.05 19.94C3.71 19.6 3.41 19.24 3.15 18.85C2.91 18.49 2.71 18.12 2.55 17.72C2.38 17.33 2.25 16.92 2.16 16.51C2.05 16.02 2 15.51 2 15L2 9C2 8.48 2.05 7.97 2.16 7.48C2.25 7.07 2.38 6.66 2.55 6.27C2.71 5.87 2.91 5.5 3.15 5.14C3.41 4.75 3.71 4.39 4.05 4.05C4.39 3.71 4.75 3.41 5.14 3.15C5.5 2.91 5.87 2.71 6.27 2.55C6.66 2.38 7.07 2.25 7.48 2.16C7.97 2.05 8.48 2 9 2L15 2ZM15 4L9 4C8.61 4 8.24 4.04 7.87 4.12C7.59 4.18 7.32 4.27 7.05 4.39C6.77 4.5 6.51 4.64 6.26 4.81C5.97 4.99 5.71 5.21 5.46 5.46C5.21 5.71 4.99 5.97 4.81 6.26C4.64 6.51 4.5 6.77 4.39 7.05C4.27 7.32 4.18 7.59 4.12 7.87C4.04 8.24 4 8.61 4 9L4 15C4 15.38 4.04 15.75 4.12 16.12C4.18 16.4 4.27 16.67 4.39 16.94C4.5 17.22 4.64 17.48 4.81 17.73C4.99 18.02 5.21 18.28 5.46 18.53C5.71 18.78 5.97 19 6.26 19.18C6.51 19.35 6.77 19.49 7.05 19.6C7.32 19.72 7.59 19.81 7.87 19.87C8.24 19.95 8.61 20 9 20L15 20C15.38 20 15.75 19.95 16.12 19.87C16.4 19.81 16.67 19.72 16.94 19.6C17.22 19.49 17.48 19.35 17.73 19.18C18.02 19 18.28 18.78 18.53 18.53C18.78 18.28 19 18.02 19.18 17.73C19.35 17.48 19.49 17.22 19.6 16.94C19.72 16.67 19.81 16.4 19.87 16.12C19.95 15.75 20 15.38 20 15L20 9C20 8.61 19.95 8.24 19.87 7.87C19.81 7.59 19.72 7.32 19.6 7.05C19.49 6.77 19.35 6.51 19.18 6.26C19 5.97 18.78 5.71 18.53 5.46C18.28 5.21 18.02 4.99 17.73 4.81C17.48 4.64 17.22 4.5 16.94 4.39C16.67 4.27 16.4 4.18 16.12 4.12C15.75 4.04 15.38 4 15 4ZM10.61 7C10.65 7 10.69 7 10.73 7L13.33 7C14.49 7 15.35 7.4 15.89 8.09C16.39 8.74 16.5 9.49 16.5 10L16.5 10.13C16.5 10.7 16.32 11.43 15.79 12.02C15.24 12.64 14.41 13 13.33 13L11.5 13L11.5 14L12.38 14C12.93 14 13.38 14.44 13.38 15C13.38 15.55 12.93 16 12.38 16L11.5 16L11.5 17C11.5 17.55 11.05 18 10.5 18C9.94 18 9.5 17.55 9.5 17L9.5 16L8.5 16C7.94 16 7.5 15.55 7.5 15C7.5 14.44 7.94 14 8.5 14L9.5 14L9.5 13L8.5 13C7.94 13 7.5 12.55 7.5 12C7.5 11.44 7.94 11 8.5 11L9.5 11L9.5 8C9.5 7.44 9.94 7 10.5 7C10.53 7 10.57 7 10.61 7ZM11.5 9L11.5 11L13.33 11C13.95 11 14.19 10.81 14.3 10.69C14.43 10.54 14.5 10.33 14.5 10.13L14.5 10C14.5 9.72 14.43 9.47 14.31 9.31C14.22 9.2 14 9 13.33 9L11.5 9Z" fill="#1F1F22" fill-opacity="1.000000" fill-rule="evenodd"/>
</svg>
