<svg width="20.000000" height="20.000000" viewBox="0 0 20 20" fill="none" xmlns="http://www.w3.org/2000/svg" xmlns:xlink="http://www.w3.org/1999/xlink">
	<desc>
			Created with Pixso.
	</desc>
	<defs/>
	<path id="Union" d="M4.32 19.46C3.89 19.28 3.48 19.07 3.11 18.82C2.73 18.56 2.37 18.27 2.05 17.94C1.72 17.62 1.43 17.26 1.17 16.88C0.92 16.51 0.71 16.1 0.53 15.67C0.39 15.34 0.28 14.98 0.21 14.58C0.14 14.23 0.09 13.82 0.05 13.35C0.03 12.95 0.01 12.46 0 11.86C0 11.49 0 10.87 0 10C0 9.12 0 8.5 0 8.13C0.01 7.53 0.03 7.04 0.05 6.64C0.09 6.17 0.14 5.76 0.21 5.41C0.28 5.01 0.39 4.65 0.53 4.32C0.71 3.89 0.92 3.48 1.17 3.11C1.43 2.73 1.72 2.37 2.05 2.05C2.37 1.72 2.73 1.43 3.11 1.17C3.48 0.92 3.89 0.71 4.32 0.53C4.65 0.39 5.01 0.28 5.41 0.21C5.76 0.14 6.17 0.09 6.64 0.05C7.04 0.03 7.53 0.01 8.13 0C8.5 0 9.12 0 10 0C10.87 0 11.49 0 11.86 0C12.46 0.01 12.95 0.03 13.35 0.05C13.82 0.09 14.23 0.14 14.58 0.21C14.98 0.28 15.34 0.39 15.67 0.53C16.1 0.71 16.51 0.92 16.88 1.17C17.26 1.43 17.62 1.72 17.94 2.05C18.27 2.37 18.56 2.73 18.82 3.11C19.07 3.48 19.28 3.89 19.46 4.32C19.6 4.65 19.71 5.01 19.78 5.41C19.85 5.76 19.9 6.17 19.94 6.64C19.96 7.04 19.98 7.53 19.99 8.13C19.99 8.5 20 9.12 20 10C20 10.87 19.99 11.49 19.99 11.86C19.98 12.46 19.96 12.95 19.94 13.35C19.9 13.82 19.85 14.23 19.78 14.58C19.71 14.98 19.6 15.34 19.46 15.67C19.28 16.1 19.07 16.51 18.82 16.88C18.56 17.26 18.27 17.62 17.94 17.94C17.62 18.27 17.26 18.56 16.88 18.82C16.51 19.07 16.1 19.28 15.67 19.46C15.34 19.6 14.98 19.71 14.58 19.78C14.23 19.85 13.82 19.9 13.35 19.94C12.95 19.96 12.46 19.98 11.86 19.99C11.49 19.99 10.87 20 10 20C9.12 20 8.5 19.99 8.13 19.99C7.53 19.98 7.04 19.96 6.64 19.94C6.17 19.9 5.76 19.85 5.41 19.78C5.01 19.71 4.65 19.6 4.32 19.46ZM5.08 17.61C5.29 17.7 5.53 17.77 5.79 17.82C6.06 17.87 6.39 17.91 6.78 17.94C7.14 17.96 7.6 17.98 8.16 17.99C8.51 17.99 9.13 18 10 18C10.86 18 11.48 17.99 11.83 17.99C12.39 17.98 12.85 17.96 13.21 17.94C13.6 17.91 13.93 17.87 14.2 17.82C14.46 17.77 14.7 17.7 14.91 17.61C15.21 17.49 15.5 17.33 15.77 17.15C16.04 16.97 16.3 16.77 16.53 16.53C16.76 16.3 16.97 16.04 17.15 15.77C17.33 15.5 17.49 15.21 17.61 14.91C17.7 14.7 17.77 14.46 17.82 14.2C17.87 13.93 17.91 13.6 17.94 13.21C17.96 12.85 17.98 12.39 17.99 11.83C17.99 11.48 18 10.86 18 10C18 9.13 17.99 8.51 17.99 8.16C17.98 7.6 17.96 7.14 17.94 6.78C17.91 6.39 17.87 6.06 17.82 5.79C17.77 5.53 17.7 5.29 17.61 5.08C17.49 4.78 17.33 4.49 17.15 4.22C16.97 3.95 16.77 3.69 16.53 3.46C16.3 3.23 16.04 3.02 15.77 2.84C15.5 2.66 15.21 2.5 14.91 2.38C14.7 2.29 14.46 2.22 14.2 2.17C13.93 2.12 13.6 2.08 13.21 2.05C12.85 2.03 12.39 2.01 11.83 2C11.48 2 10.86 2 10 2C9.13 2 8.51 2 8.16 2C7.6 2.01 7.14 2.03 6.78 2.05C6.39 2.08 6.06 2.12 5.79 2.17C5.53 2.22 5.29 2.29 5.08 2.38C4.78 2.5 4.49 2.66 4.22 2.84C3.95 3.02 3.69 3.23 3.46 3.46C3.23 3.69 3.02 3.95 2.84 4.22C2.66 4.49 2.5 4.78 2.38 5.08C2.29 5.29 2.22 5.53 2.17 5.79C2.12 6.06 2.08 6.39 2.05 6.78C2.03 7.14 2.01 7.6 2 8.16C2 8.51 2 9.13 2 10C2 10.86 2 11.48 2 11.83C2.01 12.39 2.03 12.85 2.05 13.21C2.08 13.6 2.12 13.93 2.17 14.2C2.22 14.46 2.29 14.7 2.38 14.91C2.5 15.21 2.66 15.5 2.84 15.77C3.02 16.04 3.23 16.3 3.46 16.53C3.69 16.77 3.95 16.97 4.22 17.15C4.49 17.33 4.78 17.49 5.08 17.61ZM11 7L11 10.43L13.01 11.64C13.49 11.93 13.64 12.53 13.35 13.01C13.06 13.49 12.46 13.64 11.98 13.35L9.48 11.85C9.33 11.76 9.21 11.64 9.12 11.49C9.04 11.33 9 11.17 9 11L9 7C9 6.44 9.43 6 10 6C10.56 6 11 6.44 11 7Z" fill="#1F1F22" fill-opacity="1.000000" fill-rule="evenodd"/>
</svg>
