<svg width="24.000000" height="24.000000" viewBox="0 0 24 24" fill="none" xmlns="http://www.w3.org/2000/svg" xmlns:xlink="http://www.w3.org/1999/xlink">
	<desc>
			Created with Pixso.
	</desc>
	<defs/>
	<path id="Union" d="M3.55 21.64C3.98 21.88 4.47 22 5.03 22L18.96 22C19.52 22 20.01 21.88 20.44 21.64C20.86 21.4 21.22 21.05 21.52 20.57C21.81 20.1 21.97 19.62 21.99 19.13C22.01 18.65 21.9 18.16 21.65 17.66L14.68 3.66C14.4 3.11 14.04 2.69 13.59 2.42C13.15 2.14 12.61 2 11.99 2C11.38 2 10.84 2.14 10.39 2.42C9.95 2.69 9.58 3.11 9.31 3.66L2.34 17.66C2.09 18.16 1.98 18.65 2 19.13C2.02 19.62 2.18 20.1 2.47 20.57C2.77 21.05 3.13 21.4 3.55 21.64ZM18.96 20L5.03 20C4.84 20 4.68 19.96 4.53 19.88C4.39 19.8 4.27 19.68 4.18 19.52C4.08 19.36 4.02 19.2 4.02 19.04C4.01 18.88 4.05 18.72 4.13 18.55L11.1 4.56C11.19 4.37 11.31 4.23 11.46 4.14C11.61 4.05 11.79 4 11.99 4C12.2 4 12.38 4.05 12.53 4.14C12.68 4.23 12.8 4.37 12.89 4.56L19.86 18.55C19.94 18.72 19.98 18.88 19.97 19.04C19.97 19.2 19.91 19.36 19.81 19.52C19.72 19.68 19.6 19.8 19.46 19.88C19.31 19.96 19.15 20 18.96 20ZM11 9C11 8.43 11.44 8 12 8C12.56 8 13 8.43 13 9L13 14C13 14.56 12.56 15 12 15C11.44 15 11 14.56 11 14L11 9ZM12 18C12.55 18 13 17.55 13 17C13 16.44 12.55 16 12 16C11.44 16 11 16.44 11 17C11 17.55 11.44 18 12 18Z" fill="#1F1F22" fill-opacity="1.000000" fill-rule="evenodd"/>
</svg>
