<svg width="24" height="24" viewBox="0 0 24 24" fill="none" xmlns="http://www.w3.org/2000/svg">
<path fill-rule="evenodd" clip-rule="evenodd" d="M11.9997 5C15.6517 5 19.0051 6.32209 21.6403 8.52246C21.8543 8.70112 21.9846 8.96087 21.9987 9.23926C22.0128 9.51768 21.9094 9.78987 21.7145 9.98926L12.7145 19.1992C12.5264 19.3915 12.2687 19.5 11.9997 19.5C11.7307 19.4999 11.4729 19.3915 11.2848 19.1992L2.28484 9.98926C2.0901 9.78989 1.98657 9.51761 2.00066 9.23926C2.01478 8.96094 2.1452 8.70112 2.35906 8.52246C4.99423 6.32206 8.34766 5.00007 11.9997 5ZM11.9997 7C9.22377 7.00006 6.6431 7.88095 4.50066 9.39551L8.80535 13.7998C9.74541 13.2911 10.8363 13 11.9997 13C13.1627 13 14.2532 13.2915 15.193 13.7998L19.4977 9.39551C17.3554 7.88126 14.7753 7 11.9997 7Z" fill="#1F1F22"/>
</svg>
