<svg width="24" height="24" viewBox="0 0 24 24" fill="none" xmlns="http://www.w3.org/2000/svg">
<path fill-rule="evenodd" clip-rule="evenodd" d="M11 7C11 7.55 11.44 8 12 8C12.55 8 13 7.55 13 7V5C13 4.44 12.55 4 12 4C11.44 4 11 4.44 11 5V7ZM7.82 8.41C8.21 8.8 8.21 9.43 7.82 9.82C7.43 10.21 6.8 10.21 6.41 9.82L4.79 8.2C4.4 7.81 4.4 7.18 4.79 6.79C5.18 6.4 5.81 6.4 6.2 6.79L7.82 8.41ZM16.29 8.41C15.9 8.8 15.9 9.43 16.29 9.82C16.68 10.21 17.31 10.21 17.7 9.82L19.32 8.2C19.71 7.81 19.71 7.18 19.32 6.79C18.93 6.4 18.3 6.4 17.91 6.79L16.29 8.41ZM5 19C5 18.44 5.44 18 6 18H7.11L7.78 12.62C7.97 11.12 9.25 10 10.76 10H13.23C14.74 10 16.02 11.12 16.21 12.62L16.88 18H18C18.55 18 19 18.44 19 19C19 19.55 18.55 20 18 20H16.01C16 20 15.99 20 15.98 20H8.01C8 20 7.99 20 7.98 20H6C5.44 20 5 19.55 5 19ZM9.13 18H14.86L14.22 12.87C14.16 12.37 13.73 12 13.23 12H10.76C10.26 12 9.83 12.37 9.77 12.87L9.13 18ZM3 13C2.44 13 2 13.44 2 14C2 14.55 2.44 15 3 15H5C5.55 15 6 14.55 6 14C6 13.44 5.55 13 5 13H3ZM18 14C18 13.44 18.44 13 19 13H21C21.55 13 22 13.44 22 14C22 14.55 21.55 15 21 15H19C18.44 15 18 14.55 18 14Z" fill="#1F1F22"/>
</svg>
