<svg width="24.000000" height="24.000000" viewBox="0 0 24 24" fill="none" xmlns="http://www.w3.org/2000/svg" xmlns:xlink="http://www.w3.org/1999/xlink">
	<desc>
			Created with Pixso.
	</desc>
	<defs/>
	<path id="Union" d="M11 7C11 7.55 11.44 8 12 8C12.55 8 13 7.55 13 7L13 4C13 3.44 12.55 3 12 3C11.44 3 11 3.44 11 4L11 7ZM7.82 8.41C8.21 8.8 8.21 9.43 7.82 9.82C7.43 10.21 6.8 10.21 6.41 9.82L4.29 7.7C3.9 7.31 3.9 6.68 4.29 6.29C4.68 5.9 5.31 5.9 5.7 6.29L7.82 8.41ZM16.29 8.41C15.9 8.8 15.9 9.43 16.29 9.82C16.68 10.21 17.31 10.21 17.7 9.82L19.82 7.7C20.21 7.31 20.21 6.68 19.82 6.29C19.43 5.9 18.8 5.9 18.41 6.29L16.29 8.41ZM5 19C5 18.44 5.44 18 6 18L7.11 18L7.78 12.62C7.97 11.12 9.25 10 10.76 10L13.23 10C14.74 10 16.02 11.12 16.21 12.62L16.88 18L18 18C18.55 18 19 18.44 19 19C19 19.55 18.55 20 18 20L16.01 20C16 20 15.99 20 15.98 20L8.01 20C8 20 7.99 20 7.98 20L6 20C5.44 20 5 19.55 5 19ZM9.13 18L14.86 18L14.22 12.87C14.16 12.37 13.73 12 13.23 12L10.76 12C10.26 12 9.83 12.37 9.77 12.87L9.13 18ZM2 13C1.44 13 1 13.44 1 14C1 14.55 1.44 15 2 15L5 15C5.55 15 6 14.55 6 14C6 13.44 5.55 13 5 13L2 13ZM18 14C18 13.44 18.44 13 19 13L22 13C22.55 13 23 13.44 23 14C23 14.55 22.55 15 22 15L19 15C18.44 15 18 14.55 18 14Z" fill="#1F1F22" fill-opacity="1.000000" fill-rule="evenodd"/>
</svg>
