<svg width="16" height="16" viewBox="0 0 16 16" fill="none" xmlns="http://www.w3.org/2000/svg">
<path fill-rule="evenodd" clip-rule="evenodd" d="M12.9936 15.99H3.00361C2.46361 15.99 1.96361 15.85 1.50361 15.59C1.06361 15.34 0.713607 14.99 0.453607 14.56C0.303607 14.33 0.193607 14.09 0.123607 13.84C0.0536068 13.62 0.0236068 13.4 0.0036068 13.17C-0.0063932 12.93 0.0036068 12.7 0.0436068 12.48C0.0936068 12.19 0.183607 11.92 0.313607 11.65L5.31361 1.65C5.46361 1.35 5.65361 1.09 5.88361 0.86C6.05361 0.69 6.25361 0.54 6.46361 0.41C6.93361 0.13 7.44361 -6.10785e-05 8.00361 2.15173e-08C8.30361 2.15173e-08 8.58361 0.04 8.86361 0.12C9.09361 0.19 9.31361 0.28 9.53361 0.41C9.75361 0.54 9.94361 0.69 10.1136 0.86C10.3436 1.09 10.5336 1.35 10.6836 1.65L15.6836 11.65C15.9236 12.13 16.0236 12.64 15.9936 13.17C15.9636 13.67 15.8136 14.14 15.5436 14.57C15.2836 15 14.9336 15.34 14.4936 15.59C14.2936 15.71 14.0836 15.8 13.8636 15.87C13.5836 15.95 13.2936 15.99 12.9936 15.99ZM3.00361 13.99H12.9936C13.1736 13.99 13.3436 13.95 13.4936 13.86C13.6336 13.78 13.7536 13.66 13.8436 13.52C13.9336 13.37 13.9836 13.21 13.9936 13.05C14.0036 12.87 13.9736 12.71 13.8936 12.54L8.89361 2.55C8.80361 2.37 8.67361 2.23 8.51361 2.13C8.35361 2.04 8.18361 2 8.00361 2C7.81361 2 7.64361 2.04 7.48361 2.13C7.32361 2.23 7.19361 2.37 7.10361 2.55L2.10361 12.54C2.02361 12.7 1.99361 12.87 2.00361 13.05C2.01361 13.21 2.06361 13.37 2.15361 13.51C2.24361 13.66 2.36361 13.77 2.50361 13.86C2.65361 13.94 2.82361 13.99 3.00361 13.99ZM7.00361 5.99V8.99C7.00361 9.55 7.44361 9.99 8.00361 9.99C8.56361 9.99 9.00361 9.55 9.00361 8.99V5.99C9.00361 5.43 8.56361 4.99 8.00361 4.99C7.44361 4.99 7.00361 5.43 7.00361 5.99ZM7.00361 11.99C7.00361 11.44 7.44361 10.99 8.00361 10.99C8.55361 10.99 9.00361 11.44 9.00361 11.99C9.00361 12.54 8.55361 12.99 8.00361 12.99C7.44361 12.99 7.00361 12.54 7.00361 11.99Z" fill="#1F1F22"/>
</svg>
