<svg width="24" height="24" viewBox="0 0 24 24" fill="none" xmlns="http://www.w3.org/2000/svg">
<path fill-rule="evenodd" clip-rule="evenodd" d="M3.54998 21.64C3.96998 21.88 4.46998 22 5.01998 22H18.97C19.52 22 20.02 21.88 20.44 21.64C20.87 21.4 21.23 21.05 21.52 20.57C21.81 20.1 21.97 19.62 21.99 19.13C22.01 18.65 21.9 18.16 21.65 17.66L14.68 3.66C14.4 3.1 14.04 2.69 13.59 2.41C13.15 2.13 12.61 2 11.99 2C11.37 2 10.84 2.13 10.39 2.41C9.94998 2.69 9.57998 3.1 9.30998 3.66L2.33998 17.66C2.08998 18.16 1.97998 18.65 1.99998 19.13C2.01998 19.62 2.17998 20.1 2.46998 20.57C2.75998 21.05 3.11998 21.4 3.54998 21.64ZM18.97 20H5.01998C4.83998 20 4.66998 19.96 4.52998 19.88C4.38998 19.8 4.26998 19.68 4.16998 19.52C4.06998 19.36 4.01998 19.2 4.00998 19.04C4.00998 18.88 4.03998 18.71 4.12998 18.55L11.1 4.55C11.19 4.37 11.31 4.23 11.46 4.13C11.61 4.04 11.79 4 11.99 4C12.2 4 12.38 4.04 12.53 4.13C12.68 4.23 12.8 4.37 12.89 4.55L19.86 18.55C19.95 18.71 19.98 18.88 19.98 19.04C19.97 19.2 19.92 19.36 19.82 19.52C19.72 19.68 19.6 19.8 19.46 19.88C19.32 19.96 19.15 20 18.97 20ZM10.99 8.99C10.99 8.43 11.43 7.99 12 7.99C12.56 7.99 13 8.43 13 8.99V13.99C13 14.55 12.56 14.99 12 14.99C11.43 14.99 10.99 14.55 10.99 13.99V8.99ZM12 17.99C12.55 17.99 13 17.55 13 16.99C13 16.44 12.55 15.99 12 15.99C11.44 15.99 10.99 16.44 10.99 16.99C10.99 17.55 11.44 17.99 12 17.99Z" fill="#1F1F22"/>
</svg>
