<svg width="24" height="24" viewBox="0 0 24 24" fill="none" xmlns="http://www.w3.org/2000/svg">
<path d="M12.7321 8.80371C13.1365 8.39933 13.7925 8.39945 14.197 8.80371C14.601 9.20809 14.601 9.86323 14.197 10.2676L13.4645 11L14.197 11.7324C14.601 12.1368 14.601 12.7919 14.197 13.1963C13.7925 13.6007 13.1365 13.6007 12.7321 13.1963L11.9997 12.4648L11.2673 13.1963C10.8628 13.6007 10.2078 13.6007 9.8034 13.1963C9.39929 12.7918 9.39911 12.1368 9.8034 11.7324L10.5358 11L9.8034 10.2676C9.39906 9.86319 9.39915 9.20815 9.8034 8.80371C10.2078 8.39929 10.8628 8.39932 11.2673 8.80371L11.9997 9.53516L12.7321 8.80371Z" fill="#1F1F22"/>
<path fill-rule="evenodd" clip-rule="evenodd" d="M11.9997 5C15.6517 5 19.0051 6.32209 21.6403 8.52246C21.8543 8.70112 21.9846 8.96087 21.9987 9.23926C22.0128 9.51768 21.9094 9.78987 21.7145 9.98926L12.7145 19.1992C12.5264 19.3915 12.2687 19.5 11.9997 19.5C11.7307 19.4999 11.4729 19.3915 11.2848 19.1992L2.28484 9.98926C2.0901 9.78989 1.98657 9.51761 2.00066 9.23926C2.01478 8.96094 2.1452 8.70112 2.35906 8.52246C4.99423 6.32206 8.34766 5.00007 11.9997 5ZM11.9997 7C9.22377 7.00006 6.6431 7.88095 4.50066 9.39551L11.9997 17.0684L19.4977 9.39551C17.3554 7.88126 14.7753 7 11.9997 7Z" fill="#1F1F22"/>
</svg>
