<svg width="24.000000" height="24.000000" viewBox="0 0 24 24" fill="none" xmlns="http://www.w3.org/2000/svg" xmlns:xlink="http://www.w3.org/1999/xlink">
	<desc>
			Created with Pixso.
	</desc>
	<defs/>
	<path id="Union" d="M5.11 20.82C5.48 21.07 5.89 21.28 6.32 21.46C6.65 21.6 7.01 21.71 7.41 21.78C7.76 21.85 8.17 21.9 8.64 21.94C9.04 21.96 9.53 21.98 10.13 21.99C10.5 21.99 11.12 22 12 22C12.87 22 13.49 21.99 13.86 21.99C14.46 21.98 14.95 21.96 15.35 21.94C15.82 21.9 16.23 21.85 16.58 21.78C16.98 21.71 17.34 21.6 17.67 21.46C18.1 21.28 18.51 21.07 18.88 20.82C19.26 20.56 19.62 20.27 19.94 19.94C20.27 19.62 20.56 19.26 20.82 18.88C21.07 18.51 21.28 18.1 21.46 17.67C21.6 17.34 21.71 16.98 21.78 16.58C21.85 16.23 21.9 15.82 21.94 15.35C21.96 14.95 21.98 14.46 21.99 13.86C21.99 13.49 22 12.87 22 12C22 11.12 21.99 10.5 21.99 10.13C21.98 9.53 21.96 9.04 21.94 8.64C21.9 8.17 21.85 7.76 21.78 7.41C21.71 7.01 21.6 6.65 21.46 6.32C21.28 5.89 21.07 5.48 20.82 5.11C20.56 4.73 20.27 4.37 19.94 4.05C19.62 3.72 19.26 3.43 18.88 3.17C18.51 2.92 18.1 2.71 17.67 2.53C17.34 2.39 16.98 2.28 16.58 2.21C16.23 2.14 15.82 2.09 15.35 2.05C14.95 2.03 14.46 2.01 13.86 2C13.49 2 12.87 2 12 2C11.12 2 10.5 2 10.13 2C9.53 2.01 9.04 2.03 8.64 2.05C8.17 2.09 7.76 2.14 7.41 2.21C7.01 2.28 6.65 2.39 6.32 2.53C5.89 2.71 5.48 2.92 5.11 3.17C4.73 3.43 4.37 3.72 4.05 4.05C3.72 4.37 3.43 4.73 3.17 5.11C2.92 5.48 2.71 5.89 2.53 6.32C2.39 6.65 2.28 7.01 2.21 7.41C2.14 7.76 2.09 8.17 2.05 8.64C2.03 9.04 2.01 9.53 2 10.13C2 10.5 2 11.12 2 12C2 12.87 2 13.49 2 13.86C2.01 14.46 2.03 14.95 2.05 15.35C2.09 15.82 2.14 16.23 2.21 16.58C2.28 16.98 2.39 17.34 2.53 17.67C2.71 18.1 2.92 18.51 3.17 18.88C3.43 19.26 3.72 19.62 4.05 19.94C4.37 20.27 4.73 20.56 5.11 20.82ZM7.79 19.82C7.53 19.77 7.29 19.7 7.08 19.61C6.78 19.49 6.49 19.33 6.22 19.15C5.95 18.97 5.69 18.77 5.46 18.53C5.23 18.3 5.02 18.04 4.84 17.77C4.66 17.5 4.5 17.21 4.38 16.91C4.29 16.7 4.22 16.46 4.17 16.2C4.12 15.93 4.08 15.6 4.05 15.21C4.03 14.85 4.01 14.39 4 13.83C4 13.48 4 12.86 4 12C4 11.13 4 10.51 4 10.16C4.01 9.6 4.03 9.14 4.05 8.78C4.08 8.39 4.12 8.06 4.17 7.79C4.22 7.53 4.29 7.29 4.38 7.08C4.5 6.78 4.66 6.49 4.84 6.22C5.02 5.95 5.23 5.69 5.46 5.46C5.69 5.23 5.95 5.02 6.22 4.84C6.49 4.66 6.78 4.5 7.08 4.38C7.29 4.29 7.53 4.22 7.79 4.17C8.06 4.12 8.39 4.08 8.78 4.05C9.14 4.03 9.6 4.01 10.16 4C10.51 4 11.13 4 12 4C12.86 4 13.48 4 13.83 4C14.39 4.01 14.85 4.03 15.21 4.05C15.6 4.08 15.93 4.12 16.2 4.17C16.46 4.22 16.7 4.29 16.91 4.38C17.21 4.5 17.5 4.66 17.77 4.84C18.04 5.02 18.3 5.23 18.53 5.46C18.77 5.69 18.97 5.95 19.15 6.22C19.33 6.49 19.49 6.78 19.61 7.08C19.7 7.29 19.77 7.53 19.82 7.79C19.87 8.06 19.91 8.39 19.94 8.78C19.96 9.14 19.98 9.6 19.99 10.16C19.99 10.51 20 11.13 20 12C20 12.86 19.99 13.48 19.99 13.83C19.98 14.39 19.96 14.85 19.94 15.21C19.91 15.6 19.87 15.93 19.82 16.2C19.77 16.46 19.7 16.7 19.61 16.91C19.49 17.21 19.33 17.5 19.15 17.77C18.97 18.04 18.77 18.3 18.53 18.53C18.3 18.77 18.04 18.97 17.77 19.15C17.5 19.33 17.21 19.49 16.91 19.61C16.7 19.7 16.46 19.77 16.2 19.82C15.93 19.87 15.6 19.91 15.21 19.94C14.85 19.96 14.39 19.98 13.83 19.99C13.48 19.99 12.86 20 12 20C11.13 20 10.51 19.99 10.16 19.99C9.6 19.98 9.14 19.96 8.78 19.94C8.39 19.91 8.06 19.87 7.79 19.82ZM12.24 15.16L16.24 10.66C16.61 10.24 16.57 9.62 16.16 9.25C15.74 8.87 15.12 8.91 14.74 9.33L11.45 13.04L9.7 11.29C9.31 10.89 8.68 10.89 8.29 11.29C7.89 11.68 7.89 12.31 8.29 12.7L10.79 15.2C10.89 15.3 10.99 15.37 11.11 15.42C11.23 15.47 11.36 15.49 11.5 15.49C11.63 15.49 11.76 15.47 11.88 15.42C12 15.37 12.15 15.26 12.24 15.16Z" fill="#1F1F22" fill-opacity="1.000000" fill-rule="evenodd"/>
</svg>
