<svg width="20.000000" height="20.000000" viewBox="0 0 20 20" fill="none" xmlns="http://www.w3.org/2000/svg" xmlns:xlink="http://www.w3.org/1999/xlink">
	<desc>
			Created with Pixso.
	</desc>
	<defs/>
	<path id="Union" d="M13 0C13.51 0 14.02 0.05 14.51 0.16C14.92 0.25 15.33 0.38 15.72 0.55C16.12 0.71 16.49 0.91 16.85 1.15C17.24 1.41 17.6 1.71 17.94 2.05C18.28 2.39 18.58 2.75 18.84 3.14C19.08 3.5 19.28 3.87 19.44 4.27C19.61 4.66 19.74 5.07 19.83 5.48C19.94 5.97 20 6.48 20 7L20 13C20 13.51 19.94 14.02 19.83 14.51C19.74 14.92 19.61 15.33 19.44 15.72C19.28 16.12 19.08 16.49 18.84 16.85C18.58 17.24 18.28 17.6 17.94 17.94C17.61 18.28 17.24 18.58 16.85 18.84C16.49 19.08 16.12 19.28 15.72 19.44C15.33 19.61 14.92 19.74 14.51 19.83C14.02 19.94 13.51 20 13 20L7 20C6.48 20 5.97 19.94 5.48 19.83C5.07 19.74 4.66 19.61 4.27 19.44C3.87 19.28 3.5 19.08 3.14 18.84C2.75 18.58 2.39 18.28 2.05 17.94C1.71 17.6 1.41 17.24 1.15 16.85C0.91 16.49 0.71 16.12 0.55 15.72C0.38 15.33 0.25 14.92 0.16 14.51C0.05 14.02 0 13.51 0 13L0 7C0 6.48 0.05 5.97 0.16 5.48C0.25 5.07 0.38 4.66 0.55 4.27C0.71 3.87 0.91 3.5 1.15 3.14C1.41 2.75 1.71 2.39 2.05 2.05C2.39 1.71 2.75 1.41 3.14 1.15C3.5 0.91 3.87 0.71 4.27 0.55C4.66 0.38 5.07 0.25 5.48 0.16C5.97 0.05 6.48 0 7 0L13 0ZM13 2L7 2C6.61 2 6.24 2.04 5.87 2.12C5.59 2.18 5.32 2.27 5.05 2.39C4.77 2.5 4.51 2.64 4.26 2.81C3.97 2.99 3.71 3.21 3.46 3.46C3.21 3.71 2.99 3.97 2.81 4.26C2.64 4.51 2.5 4.77 2.39 5.05C2.27 5.32 2.18 5.59 2.12 5.87C2.04 6.24 2 6.61 2 7L2 13C2 13.38 2.04 13.75 2.12 14.12C2.18 14.4 2.27 14.67 2.39 14.94C2.5 15.22 2.64 15.48 2.81 15.73C2.99 16.02 3.21 16.28 3.46 16.53C3.71 16.78 3.97 17 4.26 17.18C4.51 17.35 4.77 17.49 5.05 17.6C5.32 17.72 5.59 17.81 5.87 17.87C6.24 17.95 6.61 18 7 18L13 18C13.38 18 13.75 17.95 14.12 17.87C14.4 17.81 14.67 17.72 14.94 17.6C15.22 17.49 15.48 17.35 15.73 17.18C16.02 17 16.28 16.78 16.53 16.53C16.78 16.28 17 16.02 17.18 15.73C17.35 15.48 17.49 15.22 17.6 14.94C17.72 14.67 17.81 14.4 17.87 14.12C17.95 13.75 18 13.38 18 13L18 7C18 6.61 17.95 6.24 17.87 5.87C17.81 5.59 17.72 5.32 17.6 5.05C17.49 4.77 17.35 4.51 17.18 4.26C17 3.97 16.78 3.71 16.53 3.46C16.28 3.21 16.02 2.99 15.73 2.81C15.48 2.64 15.22 2.5 14.94 2.39C14.67 2.27 14.4 2.18 14.12 2.12C13.75 2.04 13.38 2 13 2ZM8.61 5C8.65 5 8.69 5 8.73 5L11.33 5C12.49 5 13.35 5.4 13.89 6.09C14.39 6.74 14.5 7.49 14.5 8L14.5 8.13C14.5 8.7 14.32 9.43 13.79 10.02C13.24 10.64 12.41 11 11.33 11L9.5 11L9.5 12L10.38 12C10.93 12 11.38 12.44 11.38 13C11.38 13.55 10.93 14 10.38 14L9.5 14L9.5 15C9.5 15.55 9.05 16 8.5 16C7.94 16 7.5 15.55 7.5 15L7.5 14L6.5 14C5.94 14 5.5 13.55 5.5 13C5.5 12.44 5.94 12 6.5 12L7.5 12L7.5 11L6.5 11C5.94 11 5.5 10.55 5.5 10C5.5 9.44 5.94 9 6.5 9L7.5 9L7.5 6C7.5 5.44 7.94 5 8.5 5C8.53 5 8.57 5 8.61 5ZM9.5 7L9.5 9L11.33 9C11.95 9 12.19 8.81 12.3 8.69C12.43 8.54 12.5 8.33 12.5 8.13L12.5 8C12.5 7.72 12.43 7.47 12.31 7.31C12.22 7.2 12 7 11.33 7L9.5 7Z" fill="#1F1F22" fill-opacity="1.000000" fill-rule="evenodd"/>
</svg>
