<svg width="24" height="24" viewBox="0 0 24 24" fill="none" xmlns="http://www.w3.org/2000/svg">
<path d="M13.7927 9.29297C14.1831 8.9025 14.8162 8.90258 15.2067 9.29297C15.5972 9.68349 15.5972 10.3165 15.2067 10.707L12.7067 13.207C12.5192 13.3944 12.2648 13.5 11.9997 13.5C11.7346 13.4999 11.4801 13.3945 11.2927 13.207L9.79265 11.707C9.40236 11.3165 9.40235 10.6834 9.79265 10.293C10.1831 9.90253 10.8162 9.9026 11.2067 10.293L11.9997 11.0859L13.7927 9.29297Z" fill="#1F1F22"/>
<path fill-rule="evenodd" clip-rule="evenodd" d="M11.9997 5C15.6517 5 19.0051 6.32209 21.6403 8.52246C21.8543 8.70112 21.9846 8.96087 21.9987 9.23926C22.0128 9.51768 21.9094 9.78987 21.7145 9.98926L12.7145 19.1992C12.5264 19.3915 12.2687 19.5 11.9997 19.5C11.7307 19.4999 11.4729 19.3915 11.2848 19.1992L2.28484 9.98926C2.0901 9.78989 1.98657 9.51761 2.00066 9.23926C2.01478 8.96094 2.1452 8.70112 2.35906 8.52246C4.99423 6.32206 8.34766 5.00007 11.9997 5ZM11.9997 7C9.22377 7.00006 6.64311 7.88095 4.50066 9.39551L11.9997 17.0684L19.4977 9.39551C17.3554 7.88126 14.7753 7 11.9997 7Z" fill="#1F1F22"/>
</svg>
