<svg width="24" height="24" viewBox="0 0 24 24" fill="none" xmlns="http://www.w3.org/2000/svg">
<path fill-rule="evenodd" clip-rule="evenodd" d="M11 7C11 7.55 11.44 8 12 8C12.55 8 13 7.55 13 7V4C13 3.44 12.55 3 12 3C11.44 3 11 3.44 11 4V7ZM7.82 8.41C8.21 8.8 8.21 9.43 7.82 9.82C7.43 10.21 6.8 10.21 6.41 9.82L4.29 7.7C3.9 7.31 3.9 6.68 4.29 6.29C4.68 5.9 5.31 5.9 5.7 6.29L7.82 8.41ZM16.29 8.41C15.9 8.8 15.9 9.43 16.29 9.82C16.68 10.21 17.31 10.21 17.7 9.82L19.82 7.7C20.21 7.31 20.21 6.68 19.82 6.29C19.43 5.9 18.8 5.9 18.41 6.29L16.29 8.41ZM5 19C5 18.44 5.44 18 6 18H7.11L7.78 12.62C7.97 11.12 9.25 10 10.76 10H13.23C14.74 10 16.02 11.12 16.21 12.62L16.88 18H18C18.55 18 19 18.44 19 19C19 19.55 18.55 20 18 20H16.01C16 20 15.99 20 15.98 20H8.01C8 20 7.99 20 7.98 20H6C5.44 20 5 19.55 5 19ZM9.13 18H14.86L14.22 12.87C14.16 12.37 13.73 12 13.23 12H10.76C10.26 12 9.83 12.37 9.77 12.87L9.13 18ZM2 13C1.44 13 1 13.44 1 14C1 14.55 1.44 15 2 15H5C5.55 15 6 14.55 6 14C6 13.44 5.55 13 5 13H2ZM18 14C18 13.44 18.44 13 19 13H22C22.55 13 23 13.44 23 14C23 14.55 22.55 15 22 15H19C18.44 15 18 14.55 18 14Z" fill="#1F1F22"/>
</svg>
