<svg width="24" height="24" viewBox="0 0 24 24" fill="none" xmlns="http://www.w3.org/2000/svg">
<path fill-rule="evenodd" clip-rule="evenodd" d="M6.32 21.46C5.89 21.28 5.48 21.07 5.11 20.82C4.73 20.56 4.37 20.27 4.05 19.94C3.72 19.62 3.43 19.26 3.17 18.88C2.92 18.51 2.71 18.1 2.53 17.67C2.39 17.34 2.28 16.98 2.21 16.58C2.14 16.23 2.09 15.82 2.05 15.35C2.03 14.95 2.01 14.46 2 13.86C2 13.49 2 12.87 2 12C2 11.12 2 10.5 2 10.13C2.01 9.53 2.03 9.04 2.05 8.64C2.09 8.17 2.14 7.76 2.21 7.41C2.28 7.01 2.39 6.65 2.53 6.32C2.71 5.89 2.92 5.48 3.17 5.11C3.43 4.73 3.72 4.37 4.05 4.05C4.37 3.72 4.73 3.43 5.11 3.17C5.48 2.92 5.89 2.71 6.32 2.53C6.65 2.39 7.01 2.28 7.41 2.21C7.76 2.14 8.17 2.09 8.64 2.05C9.04 2.03 9.53 2.01 10.13 2C10.5 2 11.12 2 12 2C12.87 2 13.49 2 13.86 2C14.46 2.01 14.95 2.03 15.35 2.05C15.82 2.09 16.23 2.14 16.58 2.21C16.98 2.28 17.34 2.39 17.67 2.53C18.1 2.71 18.51 2.92 18.88 3.17C19.26 3.43 19.62 3.72 19.94 4.05C20.27 4.37 20.56 4.73 20.82 5.11C21.07 5.48 21.28 5.89 21.46 6.32C21.6 6.65 21.71 7.01 21.78 7.41C21.85 7.76 21.9 8.17 21.94 8.64C21.96 9.04 21.98 9.53 21.99 10.13C21.99 10.5 22 11.12 22 12C22 12.87 21.99 13.49 21.99 13.86C21.98 14.46 21.96 14.95 21.94 15.35C21.9 15.82 21.85 16.23 21.78 16.58C21.71 16.98 21.6 17.34 21.46 17.67C21.28 18.1 21.07 18.51 20.82 18.88C20.56 19.26 20.27 19.62 19.94 19.94C19.62 20.27 19.26 20.56 18.88 20.82C18.51 21.07 18.1 21.28 17.67 21.46C17.34 21.6 16.98 21.71 16.58 21.78C16.23 21.85 15.82 21.9 15.35 21.94C14.95 21.96 14.46 21.98 13.86 21.99C13.49 21.99 12.87 22 12 22C11.12 22 10.5 21.99 10.13 21.99C9.53 21.98 9.04 21.96 8.64 21.94C8.17 21.9 7.76 21.85 7.41 21.78C7.01 21.71 6.65 21.6 6.32 21.46ZM7.08 19.61C7.29 19.7 7.53 19.77 7.79 19.82C8.06 19.87 8.39 19.91 8.78 19.94C9.14 19.96 9.6 19.98 10.16 19.99C10.51 19.99 11.13 20 12 20C12.86 20 13.48 19.99 13.83 19.99C14.39 19.98 14.85 19.96 15.21 19.94C15.6 19.91 15.93 19.87 16.2 19.82C16.46 19.77 16.7 19.7 16.91 19.61C17.21 19.49 17.5 19.33 17.77 19.15C18.04 18.97 18.3 18.77 18.53 18.53C18.77 18.3 18.97 18.04 19.15 17.77C19.33 17.5 19.49 17.21 19.61 16.91C19.7 16.7 19.77 16.46 19.82 16.2C19.87 15.93 19.91 15.6 19.94 15.21C19.96 14.85 19.98 14.39 19.99 13.83C19.99 13.48 20 12.86 20 12C20 11.13 19.99 10.51 19.99 10.16C19.98 9.6 19.96 9.14 19.94 8.78C19.91 8.39 19.87 8.06 19.82 7.79C19.77 7.53 19.7 7.29 19.61 7.08C19.49 6.78 19.33 6.49 19.15 6.22C18.97 5.95 18.77 5.69 18.53 5.46C18.3 5.23 18.04 5.02 17.77 4.84C17.5 4.66 17.21 4.5 16.91 4.38C16.7 4.29 16.46 4.22 16.2 4.17C15.93 4.12 15.6 4.08 15.21 4.05C14.85 4.03 14.39 4.01 13.83 4C13.48 4 12.86 4 12 4C11.13 4 10.51 4 10.16 4C9.6 4.01 9.14 4.03 8.78 4.05C8.39 4.08 8.06 4.12 7.79 4.17C7.53 4.22 7.29 4.29 7.08 4.38C6.78 4.5 6.49 4.66 6.22 4.84C5.95 5.02 5.69 5.23 5.46 5.46C5.23 5.69 5.02 5.95 4.84 6.22C4.66 6.49 4.5 6.78 4.38 7.08C4.29 7.29 4.22 7.53 4.17 7.79C4.12 8.06 4.08 8.39 4.05 8.78C4.03 9.14 4.01 9.6 4 10.16C4 10.51 4 11.13 4 12C4 12.86 4 13.48 4 13.83C4.01 14.39 4.03 14.85 4.05 15.21C4.08 15.6 4.12 15.93 4.17 16.2C4.22 16.46 4.29 16.7 4.38 16.91C4.5 17.21 4.66 17.5 4.84 17.77C5.02 18.04 5.23 18.3 5.46 18.53C5.69 18.77 5.95 18.97 6.22 19.15C6.49 19.33 6.78 19.49 7.08 19.61ZM13 9V12.43L15.01 13.64C15.49 13.93 15.64 14.53 15.35 15.01C15.06 15.49 14.46 15.64 13.98 15.35L11.48 13.85C11.33 13.76 11.21 13.64 11.12 13.49C11.04 13.33 11 13.17 11 13V9C11 8.43 11.44 8 12 8C12.56 8 13 8.43 13 9Z" fill="#1F1F22"/>
</svg>
