<svg width="20" height="20" viewBox="0 0 20 20" fill="none" xmlns="http://www.w3.org/2000/svg">
<path fill-rule="evenodd" clip-rule="evenodd" d="M1.5523 19.64C1.9723 19.88 2.4723 20 3.0223 20H16.9723C17.5223 20 18.0223 19.88 18.4423 19.64C18.8723 19.4 19.2323 19.05 19.5223 18.57C19.8123 18.1 19.9723 17.62 19.9923 17.13C20.0123 16.65 19.9023 16.16 19.6523 15.66L12.6823 1.66C12.4023 1.1 12.0423 0.69 11.5923 0.41C11.1523 0.13 10.6123 0 9.9923 0C9.3723 0 8.8423 0.13 8.3923 0.41C7.9523 0.69 7.5823 1.1 7.3123 1.66L0.342303 15.66C0.0923032 16.16 -0.0176968 16.65 0.00230316 17.13C0.0223032 17.62 0.182303 18.1 0.472303 18.57C0.762303 19.05 1.1223 19.4 1.5523 19.64ZM16.9723 18H3.0223C2.8423 18 2.6723 17.96 2.5323 17.88C2.3923 17.8 2.2723 17.68 2.1723 17.52C2.0723 17.36 2.0223 17.2 2.0123 17.04C2.0123 16.88 2.0423 16.71 2.1323 16.55L9.1023 2.55C9.1923 2.37 9.3123 2.23 9.4623 2.13C9.6123 2.04 9.7923 2 9.9923 2C10.2023 2 10.3823 2.04 10.5323 2.13C10.6823 2.23 10.8023 2.37 10.8923 2.55L17.8623 16.55C17.9523 16.71 17.9823 16.88 17.9823 17.04C17.9723 17.2 17.9223 17.36 17.8223 17.52C17.7223 17.68 17.6023 17.8 17.4623 17.88C17.3223 17.96 17.1523 18 16.9723 18ZM8.9923 6.99C8.9923 6.43 9.4323 5.99 10.0023 5.99C10.5623 5.99 11.0023 6.43 11.0023 6.99V11.99C11.0023 12.55 10.5623 12.99 10.0023 12.99C9.4323 12.99 8.9923 12.55 8.9923 11.99V6.99ZM10.0023 15.99C10.5523 15.99 11.0023 15.55 11.0023 14.99C11.0023 14.44 10.5523 13.99 10.0023 13.99C9.4423 13.99 8.9923 14.44 8.9923 14.99C8.9923 15.55 9.4423 15.99 10.0023 15.99Z" fill="#1F1F22"/>
</svg>
