<svg width="16.000000" height="16.000000" viewBox="0 0 16 16" fill="none" xmlns="http://www.w3.org/2000/svg" xmlns:xlink="http://www.w3.org/1999/xlink">
	<desc>
			Created with Pixso.
	</desc>
	<defs/>
	<path id="Union" d="M12.99 15.99L3 15.99C2.46 15.99 1.96 15.85 1.5 15.59C1.06 15.34 0.71 14.99 0.45 14.56C0.3 14.33 0.19 14.09 0.12 13.84C0.05 13.62 0.02 13.4 0 13.17C-0.01 12.93 0 12.7 0.04 12.48C0.09 12.19 0.18 11.92 0.31 11.65L5.31 1.65C5.46 1.35 5.65 1.09 5.88 0.86C6.05 0.69 6.25 0.54 6.46 0.41C6.93 0.13 7.44 -6.11e-5 8 0C8.3 0 8.58 0.04 8.86 0.12C9.09 0.19 9.31 0.28 9.53 0.41C9.75 0.54 9.94 0.69 10.11 0.86C10.34 1.09 10.53 1.35 10.68 1.65L15.68 11.65C15.92 12.13 16.02 12.64 15.99 13.17C15.96 13.67 15.81 14.14 15.54 14.57C15.28 15 14.93 15.34 14.49 15.59C14.29 15.71 14.08 15.8 13.86 15.87C13.58 15.95 13.29 15.99 12.99 15.99ZM3 13.99L12.99 13.99C13.17 13.99 13.34 13.95 13.49 13.86C13.63 13.78 13.75 13.66 13.84 13.52C13.93 13.37 13.98 13.21 13.99 13.05C14 12.87 13.97 12.71 13.89 12.54L8.89 2.55C8.8 2.37 8.67 2.23 8.51 2.13C8.35 2.04 8.18 2 8 2C7.81 2 7.64 2.04 7.48 2.13C7.32 2.23 7.19 2.37 7.1 2.55L2.1 12.54C2.02 12.7 1.99 12.87 2 13.05C2.01 13.21 2.06 13.37 2.15 13.51C2.24 13.66 2.36 13.77 2.5 13.86C2.65 13.94 2.82 13.99 3 13.99ZM7 5.99L7 8.99C7 9.55 7.44 9.99 8 9.99C8.56 9.99 9 9.55 9 8.99L9 5.99C9 5.43 8.56 4.99 8 4.99C7.44 4.99 7 5.43 7 5.99ZM7 11.99C7 11.44 7.44 10.99 8 10.99C8.55 10.99 9 11.44 9 11.99C9 12.54 8.55 12.99 8 12.99C7.44 12.99 7 12.54 7 11.99Z" fill="#1F1F22" fill-opacity="1.000000" fill-rule="evenodd"/>
</svg>
