<svg width="128" height="128" viewBox="0 0 128 128" fill="none" xmlns="http://www.w3.org/2000/svg">
<circle cx="64" cy="64" r="64" fill="#B2B8BF" fill-opacity="0.2"/>
<g filter="url(#filter0_d_14379_322)">
<path d="M32 36C32 32.6863 34.6863 30 38 30H90C93.3137 30 96 32.6863 96 36V96C96 99.3137 93.3137 102 90 102H64L32 76V36Z" fill="white"/>
</g>
<path d="M46 40H62C63.1046 40 64 40.8954 64 42C64 43.1046 63.1046 44 62 44H46C44.8954 44 44 43.1046 44 42C44 40.8954 44.8954 40 46 40Z" fill="#F2F4F7"/>
<path d="M62 52H46C44.8954 52 44 52.8954 44 54C44 55.1046 44.8954 56 46 56H62C63.1046 56 64 55.1046 64 54C64 52.8954 63.1046 52 62 52Z" fill="#F2F4F7"/>
<path d="M70 76H82C83.1046 76 84 76.8954 84 78C84 79.1046 83.1046 80 82 80H70C68.8954 80 68 79.1046 68 78C68 76.8954 68.8954 76 70 76Z" fill="#F2F4F7"/>
<path d="M70 88H82C83.1046 88 84 88.8954 84 90C84 91.1046 83.1046 92 82 92H70C68.8954 92 68 91.1046 68 90C68 88.8954 68.8954 88 70 88Z" fill="#F2F4F7"/>
<path d="M82 64H46C44.8954 64 44 64.8954 44 66C44 67.1046 44.8954 68 46 68H82C83.1046 68 84 67.1046 84 66C84 64.8954 83.1046 64 82 64Z" fill="#F2F4F7"/>
<path d="M58 76H32L64 102V82C64 78.6863 61.3137 76 58 76Z" fill="#F2F4F7"/>
<path d="M72.3965 49.7313C72.4934 49.6287 72.6632 49.6562 72.723 49.784L73.8688 52.2364C74.4123 53.3998 75.6443 54.0988 76.9413 53.9798L79.5763 53.7379C79.7449 53.7224 79.8552 53.9104 79.7596 54.05L76.0566 59.4571C75.4467 60.2778 74.1722 60.1424 73.751 59.2122L72.5628 56.5885L69.1981 56.2217C68.0289 56.0943 67.5779 54.642 68.4718 53.883L72.3965 49.7313Z" fill="#107F8C"/>
<path d="M95.6035 49.7313C95.5066 49.6287 95.3368 49.6562 95.277 49.784L94.1312 52.2364C93.5877 53.3998 92.3557 54.0988 91.0587 53.9798L88.4237 53.7379C88.2551 53.7224 88.1448 53.9104 88.2404 54.05L91.9434 59.4571C92.5533 60.2778 93.8278 60.1424 94.249 59.2122L95.4372 56.5885L98.8019 56.2217C99.9711 56.0943 100.422 54.642 99.5282 53.883L95.6035 49.7313Z" fill="#107F8C"/>
<path fill-rule="evenodd" clip-rule="evenodd" d="M84.5867 22.1869C84.2352 21.9377 83.7648 21.9377 83.4133 22.1869L80.6523 24.1444C80.4545 24.2847 80.2129 24.3494 79.9714 24.3269L76.6015 24.0121C76.1726 23.972 75.7651 24.2073 75.5854 24.5987L74.173 27.6745C74.0718 27.895 73.895 28.0718 73.6745 28.173L70.5987 29.5854C70.2073 29.7651 69.972 30.1726 70.0121 30.6015L70.3269 33.9714C70.3494 34.2129 70.2847 34.4545 70.1444 34.6523L68.1869 37.4133C67.9377 37.7648 67.9377 38.2352 68.1869 38.5867L70.1444 41.3477C70.2847 41.5455 70.3494 41.7871 70.3269 42.0286L70.0121 45.3985C69.972 45.8274 70.2073 46.2349 70.5987 46.4146L73.6745 47.827C73.895 47.9282 74.0718 48.105 74.173 48.3255L75.5854 51.4013C75.7651 51.7927 76.1726 52.028 76.6015 51.9879L79.9714 51.6731C80.2129 51.6506 80.4545 51.7153 80.6523 51.8556L83.4133 53.8131C83.7648 54.0623 84.2352 54.0623 84.5867 53.8131L87.3477 51.8556C87.5455 51.7153 87.7871 51.6506 88.0286 51.6731L91.3985 51.9879C91.8274 52.028 92.2349 51.7927 92.4146 51.4013L93.827 48.3255C93.9282 48.105 94.105 47.9282 94.3255 47.827L97.4013 46.4146C97.7927 46.2349 98.028 45.8274 97.9879 45.3985L97.6731 42.0286C97.6506 41.7871 97.7153 41.5455 97.8556 41.3477L99.8131 38.5867C100.062 38.2352 100.062 37.7648 99.8131 37.4133L97.8556 34.6523C97.7153 34.4545 97.6506 34.2129 97.6731 33.9714L97.9879 30.6015C98.028 30.1726 97.7927 29.7651 97.4013 29.5854L94.3255 28.173C94.105 28.0718 93.9282 27.895 93.827 27.6745L92.4146 24.5987C92.2349 24.2073 91.8274 23.972 91.3985 24.0121L88.0286 24.3269C87.7871 24.3494 87.5455 24.2847 87.3477 24.1444L84.5867 22.1869ZM84 44C87.3137 44 90 41.3137 90 38C90 34.6863 87.3137 32 84 32C80.6863 32 78 34.6863 78 38C78 41.3137 80.6863 44 84 44Z" fill="#107F8C"/>
<defs>
<filter id="filter0_d_14379_322" x="22" y="20" width="84" height="92" filterUnits="userSpaceOnUse" color-interpolation-filters="sRGB">
<feFlood flood-opacity="0" result="BackgroundImageFix"/>
<feColorMatrix in="SourceAlpha" type="matrix" values="0 0 0 0 0 0 0 0 0 0 0 0 0 0 0 0 0 0 127 0" result="hardAlpha"/>
<feOffset/>
<feGaussianBlur stdDeviation="5"/>
<feColorMatrix type="matrix" values="0 0 0 0 0.121569 0 0 0 0 0.121569 0 0 0 0 0.133333 0 0 0 0.1 0"/>
<feBlend mode="normal" in2="BackgroundImageFix" result="effect1_dropShadow_14379_322"/>
<feBlend mode="normal" in="SourceGraphic" in2="effect1_dropShadow_14379_322" result="shape"/>
</filter>
</defs>
</svg>
