<svg width="128" height="128" viewBox="0 0 128 128" fill="none" xmlns="http://www.w3.org/2000/svg">
<g clip-path="url(#clip0_14028_654)">
<circle cx="64" cy="64" r="64" fill="#B2B8BF" fill-opacity="0.2"/>
<g filter="url(#filter0_d_14028_654)">
<path d="M40 28C40 24.6863 42.6863 22 46 22H82C85.3137 22 88 24.6863 88 28V100C88 103.314 85.3137 106 82 106H46C42.6863 106 40 103.314 40 100V28Z" fill="#2D2D30"/>
</g>
<path fill-rule="evenodd" clip-rule="evenodd" d="M82 26H76C76 28.2091 74.2091 30 72 30H56C53.7909 30 52 28.2091 52 26H46C44.8954 26 44 26.8954 44 28V100C44 101.105 44.8954 102 46 102H82C83.1046 102 84 101.105 84 100V28C84 26.8954 83.1046 26 82 26ZM82 22H72H56H46C42.6863 22 40 24.6863 40 28V100C40 103.314 42.6863 106 46 106H82C85.3137 106 88 103.314 88 100V28C88 24.6863 85.3137 22 82 22ZM64.5745 59.8113C66.4117 58.4625 69.0642 56.2436 70.4067 53.8537C71.5256 51.8259 72.3633 47.6691 72.9931 42.3061C73.0464 41.8519 72.7875 41.4187 72.3642 41.2503L64.3715 38.0712C64.1328 37.9763 63.8672 37.9763 63.6285 38.0712L55.6358 41.2503C55.2125 41.4187 54.9536 41.8519 55.0069 42.3061C55.6367 47.6691 56.4744 51.8259 57.5933 53.8537C58.9358 56.2436 61.5883 58.4625 63.4255 59.8113C63.7682 60.0629 64.2318 60.0629 64.5745 59.8113Z" fill="#565B62"/>
<path fill-rule="evenodd" clip-rule="evenodd" d="M63 68C60.7909 68 59 69.7909 59 72V88C59 90.2091 60.7909 92 63 92H66C66 95.3137 68.6863 98 72 98C75.3137 98 78 95.3137 78 92H87C87.0754 92 87.1503 91.9979 87.2247 91.9938C87.3159 91.9979 87.4077 92 87.5 92H88C88 95.3137 90.6863 98 94 98C97.3137 98 100 95.3137 100 92H102C104.209 92 106 90.2091 106 88V83.6862C106 83.2415 105.852 82.8094 105.579 82.4583L99.9008 75.1582C99.3324 74.4274 98.4585 74 97.5327 74H91V72C91 69.7909 89.2091 68 87 68H63Z" fill="#21A19A"/>
<path fill-rule="evenodd" clip-rule="evenodd" d="M59 74H82C82.5523 74 83 74.4477 83 75C83 75.5523 82.5523 76 82 76H59V74ZM91 77C91 76.4477 91.4477 76 92 76H97.0279C97.6417 76 98.2214 76.2818 98.6006 76.7644L102.229 81.3822C102.744 82.0383 102.277 83 101.443 83H92C91.4477 83 91 82.5523 91 82V77ZM72 96C74.2091 96 76 94.2091 76 92C76 89.7909 74.2091 88 72 88C69.7909 88 68 89.7909 68 92C68 94.2091 69.7909 96 72 96ZM98 92C98 94.2091 96.2091 96 94 96C91.7909 96 90 94.2091 90 92C90 89.7909 91.7909 88 94 88C96.2091 88 98 89.7909 98 92Z" fill="#565B62"/>
</g>
<defs>
<filter id="filter0_d_14028_654" x="30" y="12" width="68" height="104" filterUnits="userSpaceOnUse" color-interpolation-filters="sRGB">
<feFlood flood-opacity="0" result="BackgroundImageFix"/>
<feColorMatrix in="SourceAlpha" type="matrix" values="0 0 0 0 0 0 0 0 0 0 0 0 0 0 0 0 0 0 127 0" result="hardAlpha"/>
<feOffset/>
<feGaussianBlur stdDeviation="5"/>
<feColorMatrix type="matrix" values="0 0 0 0 0.121569 0 0 0 0 0.121569 0 0 0 0 0.133333 0 0 0 0.1 0"/>
<feBlend mode="normal" in2="BackgroundImageFix" result="effect1_dropShadow_14028_654"/>
<feBlend mode="normal" in="SourceGraphic" in2="effect1_dropShadow_14028_654" result="shape"/>
</filter>
<clipPath id="clip0_14028_654">
<rect width="128" height="128" fill="white"/>
</clipPath>
</defs>
</svg>
