<svg width="128" height="128" viewBox="0 0 128 128" fill="none" xmlns="http://www.w3.org/2000/svg">
<circle cx="64" cy="64" r="64" fill="#B2B8BF" fill-opacity="0.2"/>
<g filter="url(#filter0_d_14028_646)">
<path d="M64 112C90.5 112 112 90.5 112 64C112 37.5 90.5 16 64 16C37.5 16 16 37.5 16 64C16 90.5 37.5 112 64 112Z" fill="#565B62"/>
</g>
<path fill-rule="evenodd" clip-rule="evenodd" d="M46 40C42.6863 40 40 42.6863 40 46V52C40 53.1046 40.8954 54 42 54C43.1046 54 44 53.1046 44 52V46C44 44.8954 44.8954 44 46 44H52C53.1046 44 54 43.1046 54 42C54 40.8954 53.1046 40 52 40H46ZM76 40C74.8954 40 74 40.8954 74 42C74 43.1046 74.8954 44 76 44H82C83.1046 44 84 44.8954 84 46V52C84 53.1046 84.8954 54 86 54C87.1046 54 88 53.1046 88 52V46C88 42.6863 85.3137 40 82 40H76ZM44 76C44 74.8954 43.1046 74 42 74C40.8954 74 40 74.8954 40 76V82C40 85.3137 42.6863 88 46 88H52C53.1046 88 54 87.1046 54 86C54 84.8954 53.1046 84 52 84H46C44.8954 84 44 83.1046 44 82V76ZM88 76C88 74.8954 87.1046 74 86 74C84.8954 74 84 74.8954 84 76V82C84 83.1046 83.1046 84 82 84H76C74.8954 84 74 84.8954 74 86C74 87.1046 74.8954 88 76 88H82C85.3137 88 88 85.3137 88 82V76ZM70 78H74V74H78V70H74V66H70V70H66V74H70V78ZM70 74V70H74V74H70ZM62 68C62 66.8 61.2 66 60 66H52C50.8 66 50 66.8 50 68V76C50 77.2 50.8 78 52 78H60C61.2 78 62 77.2 62 76V68ZM54 70H58V74H54V70ZM62 52C62 50.8 61.2 50 60 50H52C50.8 50 50 50.8 50 52V60C50 61.2 50.8 62 52 62H60C61.2 62 62 61.2 62 60V52ZM78 52C78 50.8 77.2 50 76 50H68C66.8 50 66 50.8 66 52V60C66 61.2 66.8 62 68 62H76C77.2 62 78 61.2 78 60V52ZM54 54H58V58H54V54ZM70 54H74V58H70V54Z" fill="#21A19A"/>
<defs>
<filter id="filter0_d_14028_646" x="6" y="6" width="116" height="116" filterUnits="userSpaceOnUse" color-interpolation-filters="sRGB">
<feFlood flood-opacity="0" result="BackgroundImageFix"/>
<feColorMatrix in="SourceAlpha" type="matrix" values="0 0 0 0 0 0 0 0 0 0 0 0 0 0 0 0 0 0 127 0" result="hardAlpha"/>
<feOffset/>
<feGaussianBlur stdDeviation="5"/>
<feColorMatrix type="matrix" values="0 0 0 0 0.121569 0 0 0 0 0.121569 0 0 0 0 0.133333 0 0 0 0.1 0"/>
<feBlend mode="normal" in2="BackgroundImageFix" result="effect1_dropShadow_14028_646"/>
<feBlend mode="normal" in="SourceGraphic" in2="effect1_dropShadow_14028_646" result="shape"/>
</filter>
</defs>
</svg>
