<svg width="128" height="128" viewBox="0 0 128 128" fill="none" xmlns="http://www.w3.org/2000/svg">
<g clip-path="url(#clip0_85_14)">
<circle cx="64" cy="64" r="64" fill="#B2B8BF" fill-opacity="0.2"/>
<g filter="url(#filter0_d_85_14)">
<path d="M64 112C90.5097 112 112 90.5097 112 64C112 37.4903 90.5097 16 64 16C37.4903 16 16 37.4903 16 64C16 90.5097 37.4903 112 64 112Z" fill="white"/>
</g>
<path fill-rule="evenodd" clip-rule="evenodd" d="M62.5045 45C63.4309 45.0021 64.2347 45.6401 64.4469 46.5419L70.4444 72.0312L73.5478 58.0661C73.7216 57.284 74.3454 56.6811 75.133 56.534C75.9206 56.3869 76.7199 56.724 77.1643 57.3906L79.5704 61H85C86.1046 61 87 61.8954 87 63C87 64.1046 86.1046 65 85 65H78.5C77.8313 65 77.2068 64.6658 76.8359 64.1094L76.4358 63.5092L72.4524 81.4339C72.2501 82.3444 71.4452 82.9942 70.5125 83C69.5797 83.0058 68.7669 82.366 68.5532 81.4581L62.4808 55.6502L58.4448 72.4667C58.2305 73.3598 57.4355 73.9921 56.5171 73.9999C55.5987 74.0077 54.793 73.389 54.5635 72.4998L52.1244 63.0481L51.8667 63.718C51.5697 64.4903 50.8276 65 50.0001 65H43C41.8954 65 41 64.1046 41 63C41 61.8954 41.8954 61 43 61H48.6265L50.6334 55.782C50.9455 54.9704 51.7464 54.4535 52.6146 54.5033C53.4828 54.5531 54.2193 55.1582 54.4366 56.0002L56.4297 63.7233L60.5553 46.5333C60.7715 45.6324 61.5781 44.9979 62.5045 45Z" fill="#107F8C"/>
</g>
<defs>
<filter id="filter0_d_85_14" x="6" y="6" width="116" height="116" filterUnits="userSpaceOnUse" color-interpolation-filters="sRGB">
<feFlood flood-opacity="0" result="BackgroundImageFix"/>
<feColorMatrix in="SourceAlpha" type="matrix" values="0 0 0 0 0 0 0 0 0 0 0 0 0 0 0 0 0 0 127 0" result="hardAlpha"/>
<feOffset/>
<feGaussianBlur stdDeviation="5"/>
<feColorMatrix type="matrix" values="0 0 0 0 0.121569 0 0 0 0 0.121569 0 0 0 0 0.133333 0 0 0 0.1 0"/>
<feBlend mode="normal" in2="BackgroundImageFix" result="effect1_dropShadow_85_14"/>
<feBlend mode="normal" in="SourceGraphic" in2="effect1_dropShadow_85_14" result="shape"/>
</filter>
<clipPath id="clip0_85_14">
<rect width="128" height="128" fill="white"/>
</clipPath>
</defs>
</svg>
