<svg width="128" height="128" viewBox="0 0 128 128" fill="none" xmlns="http://www.w3.org/2000/svg">
<g clip-path="url(#clip0_709_0)">
<circle cx="64" cy="64" r="64" fill="#B2B8BF" fill-opacity="0.2"/>
<g filter="url(#filter0_d_709_0)">
<path fill-rule="evenodd" clip-rule="evenodd" d="M57 34C57 32.8954 57.8954 32 59 32H69C70.1046 32 71 32.8954 71 34V44C71 46.2091 69.2091 48 67 48H61C58.7909 48 57 46.2091 57 44V34ZM66 42C66 43.1046 65.1046 44 64 44C62.8954 44 62 43.1046 62 42C62 40.8954 62.8954 40 64 40C65.1046 40 66 40.8954 66 42ZM34 44H55C55 47.3137 57.6863 50 61 50H67C70.3137 50 73 47.3137 73 44H94C97.3137 44 100 46.6863 100 50V84C100 87.3137 97.3137 90 94 90H34C30.6863 90 28 87.3137 28 84V50C28 46.6863 30.6863 44 34 44Z" fill="white"/>
</g>
<path fill-rule="evenodd" clip-rule="evenodd" d="M66 58V78H70V58H66ZM78 62H82C85.3137 62 88 64.6863 88 68C88 71.3137 85.3137 74 82 74H78V62ZM74 58H78H82C87.5228 58 92 62.4772 92 68C92 73.5228 87.5228 78 82 78H78H74V74V62V58Z" fill="#F2F4F7"/>
<path fill-rule="evenodd" clip-rule="evenodd" d="M47 76.0001C51.9706 76.0001 56 71.9706 56 67.0001C56 62.0295 51.9706 58 47 58C42.0294 58 38 62.0295 38 67.0001C38 71.9706 42.0294 76.0001 47 76.0001ZM40.5958 76.7409C41.1322 76.5673 41.7102 76.6634 42.2177 76.9088C43.6638 77.608 45.2861 77.9999 47 77.9999C48.7139 77.9999 50.3362 77.608 51.7823 76.9088C52.2898 76.6634 52.8678 76.5673 53.4042 76.7409C59.5532 78.7306 64 84.5036 64 91.3152C64 92.2457 63.2457 92.9999 62.3153 92.9999H31.6847C30.7543 92.9999 30 92.2457 30 91.3152C30 84.5036 34.4468 78.7306 40.5958 76.7409Z" fill="#107F8C"/>
</g>
<defs>
<filter id="filter0_d_709_0" x="18" y="22" width="92" height="78" filterUnits="userSpaceOnUse" color-interpolation-filters="sRGB">
<feFlood flood-opacity="0" result="BackgroundImageFix"/>
<feColorMatrix in="SourceAlpha" type="matrix" values="0 0 0 0 0 0 0 0 0 0 0 0 0 0 0 0 0 0 127 0" result="hardAlpha"/>
<feOffset/>
<feGaussianBlur stdDeviation="5"/>
<feColorMatrix type="matrix" values="0 0 0 0 0.121569 0 0 0 0 0.121569 0 0 0 0 0.133333 0 0 0 0.1 0"/>
<feBlend mode="normal" in2="BackgroundImageFix" result="effect1_dropShadow_709_0"/>
<feBlend mode="normal" in="SourceGraphic" in2="effect1_dropShadow_709_0" result="shape"/>
</filter>
<clipPath id="clip0_709_0">
<rect width="128" height="128" fill="white"/>
</clipPath>
</defs>
</svg>
