<svg width="128" height="128" viewBox="0 0 128 128" fill="none" xmlns="http://www.w3.org/2000/svg">
<g clip-path="url(#clip0_14028_653)">
<circle cx="64" cy="64" r="64" fill="#B2B8BF" fill-opacity="0.2"/>
<g filter="url(#filter0_d_14028_653)">
<path d="M32 36C32 32.6863 34.6863 30 38 30H90C93.3137 30 96 32.6863 96 36V96C96 99.3137 93.3137 102 90 102H64L32 76V36Z" fill="#565B62"/>
</g>
<path fill-rule="evenodd" clip-rule="evenodd" d="M46 40H62C63.1046 40 64 40.8954 64 42C64 43.1046 63.1046 44 62 44H46C44.8954 44 44 43.1046 44 42C44 40.8954 44.8954 40 46 40ZM62 52H46C44.8954 52 44 52.8954 44 54C44 55.1046 44.8954 56 46 56H62C63.1046 56 64 55.1046 64 54C64 52.8954 63.1046 52 62 52ZM70 76H82C83.1046 76 84 76.8954 84 78C84 79.1046 83.1046 80 82 80H70C68.8954 80 68 79.1046 68 78C68 76.8954 68.8954 76 70 76ZM70 88H82C83.1046 88 84 88.8954 84 90C84 91.1046 83.1046 92 82 92H70C68.8954 92 68 91.1046 68 90C68 88.8954 68.8954 88 70 88ZM82 64H46C44.8954 64 44 64.8954 44 66C44 67.1046 44.8954 68 46 68H82C83.1046 68 84 67.1046 84 66C84 64.8954 83.1046 64 82 64ZM58 76H32L64 102V82C64 78.6863 61.3137 76 58 76Z" fill="#2D2D30"/>
<circle cx="86" cy="40" r="16" fill="#21A19A"/>
<path fill-rule="evenodd" clip-rule="evenodd" d="M81.9999 34C83.1044 34 83.9998 34.8954 83.9998 36C83.9998 37.1046 83.1044 38 81.9999 38C80.8953 38 79.9999 37.1046 79.9999 36C79.9999 34.8954 80.8953 34 81.9999 34ZM91.707 34.2929C92.0975 34.6834 92.0975 35.3166 91.707 35.7071L81.7071 45.7071C81.3166 46.0976 80.6834 46.0976 80.2929 45.7071C79.9024 45.3166 79.9024 44.6834 80.2929 44.2929L90.2928 34.2929C90.6833 33.9024 91.3165 33.9024 91.707 34.2929ZM91.9997 44C91.9997 42.8954 91.1043 42 89.9998 42C88.8952 42 87.9998 42.8954 87.9998 44C87.9998 45.1046 88.8952 46 89.9998 46C91.1043 46 91.9997 45.1046 91.9997 44Z" fill="#565B62"/>
</g>
<defs>
<filter id="filter0_d_14028_653" x="22" y="20" width="84" height="92" filterUnits="userSpaceOnUse" color-interpolation-filters="sRGB">
<feFlood flood-opacity="0" result="BackgroundImageFix"/>
<feColorMatrix in="SourceAlpha" type="matrix" values="0 0 0 0 0 0 0 0 0 0 0 0 0 0 0 0 0 0 127 0" result="hardAlpha"/>
<feOffset/>
<feGaussianBlur stdDeviation="5"/>
<feColorMatrix type="matrix" values="0 0 0 0 0.121569 0 0 0 0 0.121569 0 0 0 0 0.133333 0 0 0 0.1 0"/>
<feBlend mode="normal" in2="BackgroundImageFix" result="effect1_dropShadow_14028_653"/>
<feBlend mode="normal" in="SourceGraphic" in2="effect1_dropShadow_14028_653" result="shape"/>
</filter>
<clipPath id="clip0_14028_653">
<rect width="128" height="128" fill="white"/>
</clipPath>
</defs>
</svg>
