<svg width="128" height="128" viewBox="0 0 128 128" fill="none" xmlns="http://www.w3.org/2000/svg">
<g clip-path="url(#clip0_14239_150)">
<circle cx="64" cy="64" r="64" fill="#B2B8BF" fill-opacity="0.2"/>
<g filter="url(#filter0_d_14239_150)">
<path d="M32.0258 95.5518C31.7586 97.9234 33.6127 100 35.9975 100H92.0028C94.3876 100 96.2417 97.9234 95.9745 95.5518L89.6643 39.5518C89.4363 37.5289 87.7267 36 85.6924 36H42.3078C40.2737 36 38.564 37.5289 38.336 39.5518L32.0258 95.5518Z" fill="#565B62"/>
</g>
<path fill-rule="evenodd" clip-rule="evenodd" d="M57.6642 28.4142C56.1057 29.9727 55 32.4285 55 36H51C51 31.5715 52.3943 28.0272 54.8358 25.5858C57.2674 23.1541 60.5553 22 64 22C67.4447 22 70.7326 23.1541 73.1642 25.5858C75.6057 28.0272 77 31.5715 77 36H73C73 32.4285 71.8943 29.9727 70.3358 28.4142C68.7674 26.8459 66.5553 26 64 26C61.4447 26 59.2326 26.8459 57.6642 28.4142Z" fill="#21A19A"/>
<path fill-rule="evenodd" clip-rule="evenodd" d="M51.6892 59.45C51.6369 59.5486 51.486 59.5033 51.501 59.3927C52.5579 51.6122 60.6186 47.128 68.0004 48.1447C68.4361 48.2047 68.8694 48.2838 69.2988 48.3826C69.3889 48.4034 69.4684 48.4556 69.5243 48.5293L70.9204 50.3725C71.0563 50.552 71.0175 50.8082 70.8345 50.9392L68.9308 52.3029C68.8302 52.3749 68.702 52.396 68.5829 52.3623C68.3896 52.3076 68.1954 52.2572 68.0004 52.2111C61.777 50.7412 54.7498 53.671 51.6892 59.45ZM64.1652 57C62.3988 57 60.311 57.6409 58.6317 58.9006C56.9032 60.1973 55.4985 62.2472 55.4985 65C55.4985 66.3169 55.8013 67.488 56.399 68.5011C56.9906 69.5037 57.8076 70.2447 58.6816 70.8073C60.301 71.8498 62.3655 72.4186 64.0656 72.887L64.2167 72.9286C66.1141 73.452 67.5994 73.8807 68.6505 74.5571C69.1359 74.8695 69.4516 75.191 69.653 75.5323C69.8482 75.8629 69.9985 76.3169 69.9985 77C69.9985 78.4088 69.4719 79.3139 68.6908 79.9186C67.8458 80.5728 66.5279 81 64.8318 81C61.8197 81 60.3354 79.512 59.0399 78.2132L58.9127 78.0858C58.1317 77.3047 56.8654 77.3047 56.0843 78.0858C55.3033 78.8668 55.3033 80.1332 56.0843 80.9142C56.1392 80.9691 56.1961 81.0264 56.255 81.0857C57.6346 82.4745 60.1433 85 64.8319 85C67.1357 85 69.4012 84.4273 71.1395 83.0815C72.9417 81.6862 73.9985 79.5914 73.9985 77C73.9985 75.6832 73.6957 74.5123 73.0979 73.4992C72.5063 72.4969 71.6892 71.756 70.8152 71.1935C69.1961 70.1515 67.1321 69.5828 65.4322 69.1145L65.2803 69.0726C63.383 68.5493 61.8977 68.1205 60.8467 67.444C60.3613 67.1315 60.0455 66.8099 59.8441 66.4685C59.6489 66.1377 59.4985 65.6834 59.4985 65C59.4985 63.7543 60.0939 62.8041 61.032 62.1004C62.0193 61.3598 63.2649 61 64.1652 61C65.3873 61 66.0317 61.1187 66.544 61.3383C67.0691 61.5633 67.6457 61.9757 68.5843 62.9142C69.3653 63.6953 70.6317 63.6953 71.4127 62.9142C72.1937 62.1332 72.1937 60.8668 71.4127 60.0858C70.3512 59.0243 69.3446 58.1867 68.1197 57.6617C66.882 57.1313 65.6097 57 64.1652 57Z" fill="#21A19A"/>
</g>
<defs>
<filter id="filter0_d_14239_150" x="22.0001" y="26" width="84" height="84" filterUnits="userSpaceOnUse" color-interpolation-filters="sRGB">
<feFlood flood-opacity="0" result="BackgroundImageFix"/>
<feColorMatrix in="SourceAlpha" type="matrix" values="0 0 0 0 0 0 0 0 0 0 0 0 0 0 0 0 0 0 127 0" result="hardAlpha"/>
<feOffset/>
<feGaussianBlur stdDeviation="5"/>
<feColorMatrix type="matrix" values="0 0 0 0 0.121569 0 0 0 0 0.121569 0 0 0 0 0.133333 0 0 0 0.1 0"/>
<feBlend mode="normal" in2="BackgroundImageFix" result="effect1_dropShadow_14239_150"/>
<feBlend mode="normal" in="SourceGraphic" in2="effect1_dropShadow_14239_150" result="shape"/>
</filter>
<clipPath id="clip0_14239_150">
<rect width="128" height="128" fill="white"/>
</clipPath>
</defs>
</svg>
