<svg width="128" height="128" viewBox="0 0 128 128" fill="none" xmlns="http://www.w3.org/2000/svg">
<circle cx="64" cy="64" r="64" fill="#B2B8BF" fill-opacity="0.2"/>
<g filter="url(#filter0_d)">
<path d="M88.7231 102H63L31 76V35.558C31 32.4377 33.8632 30 37.277 30H88.7231C92.1368 30 95 32.5352 95 35.558V96.442C95 99.4648 92.247 102 88.7231 102Z" fill="white"/>
</g>
<path d="M57.1996 76C60.3997 76 62.9996 78.5 62.9996 81.6V102L31 76H57.1996ZM81.0541 88C82.1155 88 83 88.9091 83 90C83 91.0909 82.1155 92 81.0541 92H68.9459C67.8845 92 67 91.0909 67 90C67 88.9091 67.8845 88 68.9459 88H81.0541ZM81.0541 76C82.1155 76 83 76.9091 83 78C83 79.0909 82.1155 80 81.0541 80H68.9459C67.8845 80 67 79.0909 67 78C67 76.9091 67.8845 76 68.9459 76H81.0541ZM81.0541 64C82.1155 64 83 64.9091 83 66C83 67.0909 82.1155 68 81.0541 68H44.9459C43.8845 68 43 67.0909 43 66C43 64.9091 43.8845 64 44.9459 64H81.0541ZM61.0541 52C62.1155 52 63 52.9091 63 54C63 55.0909 62.1155 56 61.0541 56H44.9459C43.8845 56 43 55.0909 43 54C43 52.9091 43.8845 52 44.9459 52H61.0541ZM61.0541 40C62.1155 40 63 40.9091 63 42C63 43.0909 62.1155 44 61.0541 44H44.9459C43.8845 44 43 43.0909 43 42C43 40.9091 43.8845 40 44.9459 40H61.0541Z" fill="#F2F4F7"/>
<path fill-rule="evenodd" clip-rule="evenodd" d="M88.022 26.0707V30H96.3766C98.4966 30 100.164 32.0579 99.9872 34.1904L98.6243 50.6474C98.4674 52.5424 96.8978 54 95.0137 54H79.8117C78.8111 54 78 53.1813 78 52.1714V34L83.2774 22C85.8452 22 88.022 23.7358 88.022 26.0707ZM71 34C70 34 69 35 69 36V52C69 53 70 54 71 54H74C75.0005 54 76 53.0098 76 52V36C76 34.9901 75.0005 34 74 34H71Z" fill="#107F8C"/>
<defs>
<filter id="filter0_d" x="21" y="20" width="84" height="92" filterUnits="userSpaceOnUse" color-interpolation-filters="sRGB">
<feFlood flood-opacity="0" result="BackgroundImageFix"/>
<feColorMatrix in="SourceAlpha" type="matrix" values="0 0 0 0 0 0 0 0 0 0 0 0 0 0 0 0 0 0 127 0"/>
<feOffset/>
<feGaussianBlur stdDeviation="5"/>
<feColorMatrix type="matrix" values="0 0 0 0 0.121569 0 0 0 0 0.121569 0 0 0 0 0.133333 0 0 0 0.1 0"/>
<feBlend mode="normal" in2="BackgroundImageFix" result="effect1_dropShadow"/>
<feBlend mode="normal" in="SourceGraphic" in2="effect1_dropShadow" result="shape"/>
</filter>
</defs>
</svg>
