<svg width="128" height="128" viewBox="0 0 128 128" fill="none" xmlns="http://www.w3.org/2000/svg">
<circle cx="64" cy="64" r="64" fill="#B2B8BF" fill-opacity="0.2"/>
<g filter="url(#filter0_d)">
<path d="M88.7231 102H63L31 76V35.558C31 32.4377 33.8632 30 37.277 30H88.7231C92.1368 30 95 32.5352 95 35.558V96.442C95 99.4648 92.247 102 88.7231 102Z" fill="white"/>
</g>
<path d="M57.1996 76C60.3997 76 62.9996 78.5 62.9996 81.6V102L31 76H57.1996ZM81.0541 88C82.1155 88 83 88.9091 83 90C83 91.0909 82.1155 92 81.0541 92H68.9459C67.8845 92 67 91.0909 67 90C67 88.9091 67.8845 88 68.9459 88H81.0541ZM81.0541 76C82.1155 76 83 76.9091 83 78C83 79.0909 82.1155 80 81.0541 80H68.9459C67.8845 80 67 79.0909 67 78C67 76.9091 67.8845 76 68.9459 76H81.0541ZM81.0541 64C82.1155 64 83 64.9091 83 66C83 67.0909 82.1155 68 81.0541 68H44.9459C43.8845 68 43 67.0909 43 66C43 64.9091 43.8845 64 44.9459 64H81.0541ZM61.0541 52C62.1155 52 63 52.9091 63 54C63 55.0909 62.1155 56 61.0541 56H44.9459C43.8845 56 43 55.0909 43 54C43 52.9091 43.8845 52 44.9459 52H61.0541ZM61.0541 40C62.1155 40 63 40.9091 63 42C63 43.0909 62.1155 44 61.0541 44H44.9459C43.8845 44 43 43.0909 43 42C43 40.9091 43.8845 40 44.9459 40H61.0541Z" fill="#F2F4F7"/>
<path d="M67.5513 41.526L94.5801 30.0641C95.2387 29.7839 96.1754 30.4681 95.9716 31.2302L89.9852 54.4132C89.7249 55.4099 89.0242 55.4697 88.4636 55.2006L81.4561 51.453C80.9146 51.1651 80.5392 51.2434 80.1648 51.752L77.4719 55.4896C76.9347 56.2317 76.1021 56.1724 75.72 55.2604L72.4766 46.6889C72.399 46.4821 72.2546 46.3068 72.0661 46.1905L67.4112 43.2902C66.8717 42.9426 66.8087 41.9098 67.5513 41.526Z" fill="#107F8C"/>
<path d="M93.1678 32.7762L76.4932 47.0242C75.553 47.8838 76.8453 49.4417 77.9011 48.4651C80.126 46.4545 93.1678 32.7762 93.1678 32.7762Z" fill="white"/>
<defs>
<filter id="filter0_d" x="21" y="20" width="84" height="92" filterUnits="userSpaceOnUse" color-interpolation-filters="sRGB">
<feFlood flood-opacity="0" result="BackgroundImageFix"/>
<feColorMatrix in="SourceAlpha" type="matrix" values="0 0 0 0 0 0 0 0 0 0 0 0 0 0 0 0 0 0 127 0"/>
<feOffset/>
<feGaussianBlur stdDeviation="5"/>
<feColorMatrix type="matrix" values="0 0 0 0 0.121569 0 0 0 0 0.121569 0 0 0 0 0.133333 0 0 0 0.1 0"/>
<feBlend mode="normal" in2="BackgroundImageFix" result="effect1_dropShadow"/>
<feBlend mode="normal" in="SourceGraphic" in2="effect1_dropShadow" result="shape"/>
</filter>
</defs>
</svg>
