<svg width="128" height="128" viewBox="0 0 128 128" fill="none" xmlns="http://www.w3.org/2000/svg">
<circle cx="64" cy="64" r="64" fill="#B2B8BF" fill-opacity="0.2"/>
<g filter="url(#filter0_d_14028_639)">
<path fill-rule="evenodd" clip-rule="evenodd" d="M38 30H90C93.3137 30 96 32.6863 96 36V72C96 75.3137 93.3137 78 90 78H38C34.6863 78 32 75.3137 32 72V36C32 32.6863 34.6863 30 38 30ZM38 82H90C93.3137 82 96 84.6863 96 88V96C96 99.3137 93.3137 102 90 102H38C34.6863 102 32 99.3137 32 96V88C32 84.6863 34.6863 82 38 82Z" fill="#565B62"/>
</g>
<path fill-rule="evenodd" clip-rule="evenodd" d="M62 40H46C44.8954 40 44 40.8954 44 42C44 43.1046 44.8954 44 46 44H62C63.1046 44 64 43.1046 64 42C64 40.8954 63.1046 40 62 40ZM46 52H62C63.1046 52 64 52.8954 64 54C64 55.1046 63.1046 56 62 56H46C44.8954 56 44 55.1046 44 54C44 52.8954 44.8954 52 46 52ZM44 92C44 90.8954 44.8954 90 46 90H82C83.1046 90 84 90.8954 84 92C84 93.1046 83.1046 94 82 94H46C44.8954 94 44 93.1046 44 92ZM44 66C44 64.8954 44.8954 64 46 64H82C83.1046 64 84 64.8954 84 66C84 67.1046 83.1046 68 82 68H46C44.8954 68 44 67.1046 44 66Z" fill="#2D2D30"/>
<circle cx="86" cy="40" r="16" fill="#21A19A"/>
<path fill-rule="evenodd" clip-rule="evenodd" d="M78.2929 39.2929C78.6834 38.9024 79.3166 38.9024 79.7071 39.2929L84 43.5858L93.2929 34.2929C93.6834 33.9024 94.3166 33.9024 94.7071 34.2929C95.0976 34.6834 95.0976 35.3166 94.7071 35.7071L84.7071 45.7071C84.3166 46.0976 83.6834 46.0976 83.2929 45.7071L78.2929 40.7071C77.9024 40.3166 77.9024 39.6834 78.2929 39.2929Z" fill="#565B62"/>
<defs>
<filter id="filter0_d_14028_639" x="22" y="20" width="84" height="92" filterUnits="userSpaceOnUse" color-interpolation-filters="sRGB">
<feFlood flood-opacity="0" result="BackgroundImageFix"/>
<feColorMatrix in="SourceAlpha" type="matrix" values="0 0 0 0 0 0 0 0 0 0 0 0 0 0 0 0 0 0 127 0" result="hardAlpha"/>
<feOffset/>
<feGaussianBlur stdDeviation="5"/>
<feColorMatrix type="matrix" values="0 0 0 0 0.121569 0 0 0 0 0.121569 0 0 0 0 0.133333 0 0 0 0.1 0"/>
<feBlend mode="normal" in2="BackgroundImageFix" result="effect1_dropShadow_14028_639"/>
<feBlend mode="normal" in="SourceGraphic" in2="effect1_dropShadow_14028_639" result="shape"/>
</filter>
</defs>
</svg>
