<svg width="128" height="128" viewBox="0 0 128 128" fill="none" xmlns="http://www.w3.org/2000/svg">
<circle cx="64" cy="64" r="64" fill="#B2B8BF" fill-opacity="0.2"/>
<g filter="url(#filter0_d)">
<path d="M64 112C90.5 112 112 90.5 112 64C112 37.5 90.5 16 64 16C37.5 16 16 37.5 16 64C16 90.5 37.5 112 64 112Z" fill="white"/>
</g>
<g filter="url(#filter1_d)">
<path fill-rule="evenodd" clip-rule="evenodd" d="M66 50C71.9 50 74 54.1 74 58C74 61.9 71.5 66 66 66H60V68H64C65.1 68 66 68.9 66 70C66 71.1 65.1 72 64 72H60V76C60 77 59.1 78 58 78C56.9 78 56 77.1 56 76V72C54.9 72 54 71.1 54 70C54 68.9 54.9 68 56 68V66C54.9 66 54 65.1 54 64C54 62.9 54.9 62 56 62V52C56 50.9 56.9 50 58 50H66ZM66 54H60V62H66C67.7 62 70 60.9 70 58C70 55 67.7 54 66 54Z" fill="#107F8C"/>
<path fill-rule="evenodd" clip-rule="evenodd" d="M43 36.9679V34C43 32.8954 42.1046 32 41 32C39.8955 32 39 32.8954 39 34V41.4856C39 41.4945 39 41.5035 39 41.5124V42C39 43.1046 39.8955 44 41 44H49C50.1046 44 51 43.1046 51 42C51 40.8954 50.1046 40 49 40H45.6191C46.2708 39.5035 47.022 38.9759 47.87 38.4476C51.4409 36.2231 56.704 34 63.5 34C70.2961 34 75.5592 36.2231 79.1301 38.4476C80.9169 39.5607 82.2738 40.6707 83.1758 41.4934C83.6263 41.9042 83.9616 42.2419 84.1788 42.4702C84.2873 42.5843 84.3661 42.6709 84.4149 42.7254C84.4392 42.7527 84.4561 42.772 84.4653 42.7827L84.4702 42.7883L84.4721 42.7905L84.4733 42.7919C85.1853 43.6334 86.4447 43.7403 87.2883 43.0298C88.1332 42.3183 88.2414 41.0566 87.5299 40.2117L86 41.5C87.5299 40.2117 87.5287 40.2103 87.5287 40.2103L87.5272 40.2086L87.5239 40.2046L87.5149 40.1941L87.488 40.1628C87.4661 40.1376 87.4362 40.1035 87.3984 40.0612C87.3229 39.9766 87.2157 39.8591 87.0772 39.7134C86.8002 39.4222 86.3973 39.0177 85.8712 38.5379C84.8201 37.5793 83.2707 36.3143 81.245 35.0524C77.1909 32.5269 71.204 30 63.5 30C55.7961 30 49.8092 32.5269 45.755 35.0524C44.7086 35.7043 43.7892 36.357 43 36.9679ZM76 86C76 84.8954 76.8955 84 78 84H86C87.1046 84 88 84.8954 88 86V86.4875C88.0001 86.4965 88.0001 86.5055 88 86.5145V94C88 95.1046 87.1046 96 86 96C84.8955 96 84 95.1046 84 94V91.0321C83.2108 91.643 82.2915 92.2957 81.245 92.9476C77.1909 95.4731 71.204 98 63.5 98C55.7961 98 49.8092 95.4731 45.7551 92.9476C43.7294 91.6857 42.18 90.4207 41.1289 89.4621C40.6028 88.9823 40.1999 88.5778 39.9229 88.2866C39.7844 88.1409 39.6772 88.0234 39.6016 87.9388C39.5639 87.8965 39.534 87.8624 39.5121 87.8372L39.4852 87.8059L39.4762 87.7954L39.4728 87.7914L39.4714 87.7897C39.4714 87.7897 39.4702 87.7883 40.938 86.5522L39.4702 87.7883C38.7587 86.9434 38.8669 85.6817 39.7118 84.9702C40.5554 84.2597 41.8146 84.3665 42.5267 85.208L42.528 85.2095L42.5288 85.2105L42.5299 85.2117L42.5348 85.2173C42.544 85.228 42.5608 85.2473 42.5852 85.2746C42.634 85.3291 42.7128 85.4157 42.8213 85.5298C43.0384 85.7581 43.3738 86.0958 43.8243 86.5066C44.7263 87.3293 46.0832 88.4393 47.87 89.5524C51.4409 91.7769 56.704 94 63.5 94C70.2961 94 75.5592 91.7769 79.1301 89.5524C79.9781 89.0241 80.7293 88.4965 81.381 88H78C76.8955 88 76 87.1046 76 86Z" fill="#107F8C"/>
</g>
<defs>
<filter id="filter0_d" x="6" y="6" width="116" height="116" filterUnits="userSpaceOnUse" color-interpolation-filters="sRGB">
<feFlood flood-opacity="0" result="BackgroundImageFix"/>
<feColorMatrix in="SourceAlpha" type="matrix" values="0 0 0 0 0 0 0 0 0 0 0 0 0 0 0 0 0 0 127 0"/>
<feOffset/>
<feGaussianBlur stdDeviation="5"/>
<feColorMatrix type="matrix" values="0 0 0 0 0.121569 0 0 0 0 0.121569 0 0 0 0 0.133333 0 0 0 0.1 0"/>
<feBlend mode="normal" in2="BackgroundImageFix" result="effect1_dropShadow"/>
<feBlend mode="normal" in="SourceGraphic" in2="effect1_dropShadow" result="shape"/>
</filter>
<filter id="filter1_d" x="6" y="6" width="116" height="116" filterUnits="userSpaceOnUse" color-interpolation-filters="sRGB">
<feFlood flood-opacity="0" result="BackgroundImageFix"/>
<feColorMatrix in="SourceAlpha" type="matrix" values="0 0 0 0 0 0 0 0 0 0 0 0 0 0 0 0 0 0 127 0"/>
<feOffset/>
<feGaussianBlur stdDeviation="5"/>
<feColorMatrix type="matrix" values="0 0 0 0 0.121569 0 0 0 0 0.121569 0 0 0 0 0.133333 0 0 0 0.1 0"/>
<feBlend mode="normal" in2="BackgroundImageFix" result="effect1_dropShadow"/>
<feBlend mode="normal" in="SourceGraphic" in2="effect1_dropShadow" result="shape"/>
</filter>
</defs>
</svg>
