<svg width="128" height="128" viewBox="0 0 128 128" fill="none" xmlns="http://www.w3.org/2000/svg">
<g clip-path="url(#clip0_14028_649)">
<circle cx="64" cy="64" r="64" fill="#B2B8BF" fill-opacity="0.2"/>
<g filter="url(#filter0_d_14028_649)">
<path d="M32 36C32 32.6863 34.6863 30 38 30H90C93.3137 30 96 32.6863 96 36V96C96 99.3137 93.3137 102 90 102H64L32 76V36Z" fill="#565B62"/>
</g>
<path fill-rule="evenodd" clip-rule="evenodd" d="M46 40H62C63.1046 40 64 40.8954 64 42C64 43.1046 63.1046 44 62 44H46C44.8954 44 44 43.1046 44 42C44 40.8954 44.8954 40 46 40ZM62 52H46C44.8954 52 44 52.8954 44 54C44 55.1046 44.8954 56 46 56H62C63.1046 56 64 55.1046 64 54C64 52.8954 63.1046 52 62 52ZM70 76H82C83.1046 76 84 76.8954 84 78C84 79.1046 83.1046 80 82 80H70C68.8954 80 68 79.1046 68 78C68 76.8954 68.8954 76 70 76ZM70 88H82C83.1046 88 84 88.8954 84 90C84 91.1046 83.1046 92 82 92H70C68.8954 92 68 91.1046 68 90C68 88.8954 68.8954 88 70 88ZM82 64H46C44.8954 64 44 64.8954 44 66C44 67.1046 44.8954 68 46 68H82C83.1046 68 84 67.1046 84 66C84 64.8954 83.1046 64 82 64ZM58 76H32L64 102V82C64 78.6863 61.3137 76 58 76Z" fill="#2D2D30"/>
<circle cx="86" cy="40" r="16" fill="#21A19A"/>
<path fill-rule="evenodd" clip-rule="evenodd" d="M87 33C87 32.4477 86.5523 32 86 32C85.4477 32 85 32.4477 85 33V39H79C78.4477 39 78 39.4477 78 40C78 40.5523 78.4477 41 79 41H85V47C85 47.5523 85.4477 48 86 48C86.5523 48 87 47.5523 87 47V41H93C93.5523 41 94 40.5523 94 40C94 39.4477 93.5523 39 93 39H87V33Z" fill="#565B62"/>
</g>
<defs>
<filter id="filter0_d_14028_649" x="22" y="20" width="84" height="92" filterUnits="userSpaceOnUse" color-interpolation-filters="sRGB">
<feFlood flood-opacity="0" result="BackgroundImageFix"/>
<feColorMatrix in="SourceAlpha" type="matrix" values="0 0 0 0 0 0 0 0 0 0 0 0 0 0 0 0 0 0 127 0" result="hardAlpha"/>
<feOffset/>
<feGaussianBlur stdDeviation="5"/>
<feColorMatrix type="matrix" values="0 0 0 0 0.121569 0 0 0 0 0.121569 0 0 0 0 0.133333 0 0 0 0.1 0"/>
<feBlend mode="normal" in2="BackgroundImageFix" result="effect1_dropShadow_14028_649"/>
<feBlend mode="normal" in="SourceGraphic" in2="effect1_dropShadow_14028_649" result="shape"/>
</filter>
<clipPath id="clip0_14028_649">
<rect width="128" height="128" fill="white"/>
</clipPath>
</defs>
</svg>
