<svg width="128" height="128" viewBox="0 0 128 128" fill="none" xmlns="http://www.w3.org/2000/svg">
<circle cx="64" cy="64" r="64" fill="#B2B8BF" fill-opacity="0.2"/>
<g filter="url(#filter0_d_14306_351)">
<path d="M90 30H38C34.6863 30 32 32.6863 32 36V96C32 99.3137 34.6863 102 38 102H90C93.3137 102 96 99.3137 96 96V36C96 32.6863 93.3137 30 90 30Z" fill="white"/>
</g>
<g clip-path="url(#clip0_14306_351)">
<path fill-rule="evenodd" clip-rule="evenodd" d="M44 44C44 45.1046 44.8954 46 46 46L62 46C63.1046 46 64 45.1046 64 44C64 42.8954 63.1046 42 62 42H46C44.8954 42 44 42.8954 44 44ZM50 54C50 52.8954 50.8954 52 52 52C53.1046 52 54 52.8954 54 54V56V60V62C54 63.1046 53.1046 64 52 64C50.8954 64 50 63.1046 50 62V60H46C44.8954 60 44 59.1046 44 58C44 56.8954 44.8954 56 46 56H50V54ZM56 60H62C63.1046 60 64 59.1046 64 58C64 56.8954 63.1046 56 62 56H56V60ZM60 80C58.8954 80 58 80.8954 58 82V84H46C44.8954 84 44 84.8954 44 86C44 87.1046 44.8954 88 46 88H58V90C58 91.1046 58.8954 92 60 92C61.1046 92 62 91.1046 62 90V88V84V82C62 80.8954 61.1046 80 60 80ZM82 88H64V84H82C83.1046 84 84 84.8954 84 86C84 87.1046 83.1046 88 82 88ZM78 68C78 66.8954 77.1046 66 76 66C74.8954 66 74 66.8954 74 68V70V74V76C74 77.1046 74.8954 78 76 78C77.1046 78 78 77.1046 78 76V74H82C83.1046 74 84 73.1046 84 72C84 70.8954 83.1046 70 82 70H78V68ZM72 70H46C44.8954 70 44 70.8954 44 72C44 73.1046 44.8954 74 46 74L72 74V70Z" fill="#F2F4F7"/>
</g>
<g clip-path="url(#clip1_14306_351)">
<path fill-rule="evenodd" clip-rule="evenodd" d="M96.3901 34.0029C99.7034 39.7426 97.737 47.0814 91.9989 50.3948C86.2609 53.7082 78.9231 51.7421 75.6099 46.0024C72.2966 40.2627 74.263 32.9239 80.0011 29.6105C85.7391 26.2971 93.0769 28.2632 96.3901 34.0029ZM96.4601 52.1123C102.164 47.1944 103.758 38.7657 99.8541 32.0027C95.4366 24.35 85.6527 21.728 78.0013 26.1463C70.3499 30.5645 67.7284 40.35 72.1459 48.0027C76.0528 54.7708 84.1571 57.604 91.2714 55.1121C91.2927 55.1533 91.3151 55.1941 91.3385 55.2347L96.1095 63.4998C96.9379 64.9347 98.7725 65.4263 100.207 64.5978C101.642 63.7693 102.134 61.9344 101.305 60.4994L96.5344 52.2343C96.5105 52.1929 96.4857 52.1522 96.4601 52.1123Z" fill="#107F8C"/>
<ellipse cx="12.0022" cy="12.0032" rx="12.0022" ry="12.0032" transform="matrix(1 0 -0.000144658 1 73.9991 28)" fill="white"/>
</g>
<defs>
<filter id="filter0_d_14306_351" x="22" y="20" width="84" height="92" filterUnits="userSpaceOnUse" color-interpolation-filters="sRGB">
<feFlood flood-opacity="0" result="BackgroundImageFix"/>
<feColorMatrix in="SourceAlpha" type="matrix" values="0 0 0 0 0 0 0 0 0 0 0 0 0 0 0 0 0 0 127 0" result="hardAlpha"/>
<feOffset/>
<feGaussianBlur stdDeviation="5"/>
<feColorMatrix type="matrix" values="0 0 0 0 0.121569 0 0 0 0 0.121569 0 0 0 0 0.133333 0 0 0 0.1 0"/>
<feBlend mode="normal" in2="BackgroundImageFix" result="effect1_dropShadow_14306_351"/>
<feBlend mode="normal" in="SourceGraphic" in2="effect1_dropShadow_14306_351" result="shape"/>
</filter>
<clipPath id="clip0_14306_351">
<rect width="40" height="50" fill="white" transform="translate(44 42)"/>
</clipPath>
<clipPath id="clip1_14306_351">
<rect width="32" height="41" fill="white" transform="translate(70 24)"/>
</clipPath>
</defs>
</svg>
