<svg width="128" height="128" viewBox="0 0 128 128" fill="none" xmlns="http://www.w3.org/2000/svg">
<circle cx="64" cy="64" r="64" fill="#B2B8BF" fill-opacity="0.2"/>
<g filter="url(#filter0_d)">
<path d="M47.4711 22C44.4956 22 42 24.2397 42 27.1064V100.894C42 103.671 44.4956 106 47.4711 106H80.529C83.6005 106 86 103.671 86 100.894V27.1064C86 24.3292 83.5044 22 80.529 22H47.4711Z" fill="#F2F4F7"/>
</g>
<path d="M53 26C53 28.6449 55.4367 30.0089 58.3384 30.0089H69.6676C72.6629 30.0089 75 28.6449 75 26H77.5238C81 26 82 27.5 82 30.62V97.38C82 100.5 80.5 102 77.5238 102H50.4763C47.5 102 46 100.5 46 97.38V30.62C46 27.5 47 26 50.4763 26H53Z" fill="white"/>
<path d="M64.3574 40.0657C64.1271 39.9781 63.8729 39.9781 63.6426 40.0657L57.6418 42.3477C57.2226 42.5071 56.9587 42.9228 57.0053 43.3706C57.1883 45.1291 57.7513 49.5104 58.9811 51.5896C60.1814 53.6188 62.5077 55.2275 63.5153 55.8606C63.8137 56.0482 64.1851 56.0462 64.4821 55.8562C65.4882 55.2123 67.8176 53.5815 69.0189 51.5896C70.2487 49.5104 70.8117 45.1291 70.9947 43.3706C71.0412 42.9228 70.7774 42.5071 70.3582 42.3477L64.3574 40.0657Z" fill="#F2F4F7"/>
<path d="M82.6646 67C85.5663 67 88 69.2183 88 71.8632V74H94.2095C95.5353 74 96.775 74.6569 97.5194 75.754L101.31 80.754C101.76 81.4167 102 82.1991 102 83V86.0446C102 88.6895 99.325 91 96.3292 91H94C94 93.2091 92.2091 95 90 95C87.7909 95 86 93.2091 86 91H72C72 93.2091 70.2091 95 68 95C65.7909 95 64 93.2091 64 91H62.3354C59.4337 91 57 88.7817 57 86.1368V71.8632C57 69.133 59.4337 67 62.3354 67H82.6646Z" fill="#107F8C"/>
<path d="M68.0126 89C69.1184 89 70.0149 89.8954 70.0149 91C70.0149 92.1046 69.1184 93 68.0126 93C66.9067 93 66.0103 92.1046 66.0103 91C66.0103 89.8954 66.9067 89 68.0126 89ZM90.0377 89C91.1436 89 92.04 89.8954 92.04 91C92.04 92.1046 91.1436 93 90.0377 93C88.9319 93 88.0354 92.1046 88.0354 91C88.0354 89.8954 88.9319 89 90.0377 89ZM94.6795 76C94.9879 76 95.279 76.142 95.4688 76.3848L97.7863 79.3897C98.2993 80.0463 97.8308 81.0049 96.997 81.0049L90.0377 81.0049C89.4848 81.0049 89.0366 80.5572 89.0366 80.0049V77C89.0366 76.4477 89.4848 76 90.0377 76H94.6795ZM83 71C83.5529 71 84.0011 71.4477 84.0011 72C84.0011 72.5523 83.5529 73 83 73L57 73V71L83 71Z" fill="white"/>
<defs>
<filter id="filter0_d" x="32" y="12" width="64" height="104" filterUnits="userSpaceOnUse" color-interpolation-filters="sRGB">
<feFlood flood-opacity="0" result="BackgroundImageFix"/>
<feColorMatrix in="SourceAlpha" type="matrix" values="0 0 0 0 0 0 0 0 0 0 0 0 0 0 0 0 0 0 127 0"/>
<feOffset/>
<feGaussianBlur stdDeviation="5"/>
<feColorMatrix type="matrix" values="0 0 0 0 0.121569 0 0 0 0 0.121569 0 0 0 0 0.133333 0 0 0 0.1 0"/>
<feBlend mode="normal" in2="BackgroundImageFix" result="effect1_dropShadow"/>
<feBlend mode="normal" in="SourceGraphic" in2="effect1_dropShadow" result="shape"/>
</filter>
</defs>
</svg>
