<svg width="128" height="128" viewBox="0 0 128 128" fill="none" xmlns="http://www.w3.org/2000/svg">
<rect width="128" height="128" fill="white"/>
<circle cx="64" cy="64" r="64" fill="#B2B8BF" fill-opacity="0.2"/>
<g filter="url(#filter0_d_2856_598)">
<path d="M89.7231 102H64L32 75.6389V34.6352C32 31.4716 34.8632 29 38.2771 29H89.7231C93.1368 29 96 31.5704 96 34.6352V96.3648C96 99.4296 93.2469 102 89.7231 102Z" fill="white"/>
</g>
<path d="M58.7034 75.5806C61.9651 75.5806 64.615 78.121 64.615 81.271V102L32 75.5806H58.7034ZM83.0167 87.7742C84.0985 87.7742 85 88.6979 85 89.8065C85 90.915 84.0985 91.8387 83.0167 91.8387H70.6756C69.5938 91.8387 68.6923 90.915 68.6923 89.8065C68.6923 88.6979 69.5938 87.7742 70.6756 87.7742H83.0167ZM83.0167 75.5806C84.0985 75.5806 85 76.5044 85 77.6129C85 78.7214 84.0985 79.6452 83.0167 79.6452H70.6756C69.5938 79.6452 68.6923 78.7214 68.6923 77.6129C68.6923 76.5044 69.5938 75.5806 70.6756 75.5806H83.0167ZM83.0167 63.3871C84.0985 63.3871 85 64.3108 85 65.4194C85 66.5279 84.0985 67.4516 83.0167 67.4516H46.2141C45.1323 67.4516 44.2308 66.5279 44.2308 65.4194C44.2308 64.3108 45.1323 63.3871 46.2141 63.3871H83.0167ZM62.6321 51.1935C63.7138 51.1935 64.6154 52.1173 64.6154 53.2258C64.6154 54.3343 63.7138 55.2581 62.6321 55.2581H46.2141C45.1323 55.2581 44.2308 54.3343 44.2308 53.2258C44.2308 52.1173 45.1323 51.1935 46.2141 51.1935H62.6321ZM62.6321 39C63.7138 39 64.6154 39.9237 64.6154 41.0323C64.6154 42.1408 63.7138 43.0645 62.6321 43.0645H46.2141C45.1323 43.0645 44.2308 42.1408 44.2308 41.0323C44.2308 39.9237 45.1323 39 46.2141 39H62.6321Z" fill="#F2F4F7"/>
<path fill-rule="evenodd" clip-rule="evenodd" d="M85 56C93.8366 56 101 48.8366 101 40C101 31.1634 93.8366 24 85 24C76.1634 24 69 31.1634 69 40C69 48.8366 76.1634 56 85 56ZM83.6667 35.6667C83.6667 37.1394 82.4728 38.3333 81 38.3333C79.5272 38.3333 78.3333 37.1394 78.3333 35.6667C78.3333 34.1939 79.5272 33 81 33C82.4728 33 83.6667 34.1939 83.6667 35.6667ZM92.8333 44.8333C92.8333 46.3061 91.6394 47.5 90.1667 47.5C88.6939 47.5 87.5 46.3061 87.5 44.8333C87.5 43.3606 88.6939 42.1667 90.1667 42.1667C91.6394 42.1667 92.8333 43.3606 92.8333 44.8333ZM92.1095 33.8905C92.6302 34.4112 92.6302 35.2554 92.1095 35.7761L81.1095 46.7761C80.5888 47.2968 79.7446 47.2968 79.2239 46.7761C78.7032 46.2554 78.7032 45.4112 79.2239 44.8905L90.2239 33.8905C90.7446 33.3698 91.5888 33.3698 92.1095 33.8905Z" fill="#107F8C"/>
<defs>
<filter id="filter0_d_2856_598" x="22" y="19" width="84" height="93" filterUnits="userSpaceOnUse" color-interpolation-filters="sRGB">
<feFlood flood-opacity="0" result="BackgroundImageFix"/>
<feColorMatrix in="SourceAlpha" type="matrix" values="0 0 0 0 0 0 0 0 0 0 0 0 0 0 0 0 0 0 127 0" result="hardAlpha"/>
<feOffset/>
<feGaussianBlur stdDeviation="5"/>
<feColorMatrix type="matrix" values="0 0 0 0 0.121569 0 0 0 0 0.121569 0 0 0 0 0.133333 0 0 0 0.1 0"/>
<feBlend mode="normal" in2="BackgroundImageFix" result="effect1_dropShadow_2856_598"/>
<feBlend mode="normal" in="SourceGraphic" in2="effect1_dropShadow_2856_598" result="shape"/>
</filter>
</defs>
</svg>
