<svg width="128" height="128" viewBox="0 0 128 128" fill="none" xmlns="http://www.w3.org/2000/svg">
<g clip-path="url(#clip0_14028_644)">
<circle cx="64" cy="64" r="64" fill="#B2B8BF" fill-opacity="0.2"/>
<g filter="url(#filter0_d_14028_644)">
<path d="M95.9743 95.5518C96.2414 97.9234 94.3874 100 92.0026 100H35.9974C33.6126 100 31.7585 97.9234 32.0257 95.5518L38.3359 39.5518C38.5639 37.5289 40.2735 36 42.3077 36H85.6923C87.7264 36 89.4361 37.5289 89.6641 39.5518L95.9743 95.5518Z" fill="#565B62"/>
</g>
<path fill-rule="evenodd" clip-rule="evenodd" d="M57.6642 28.4142C56.1057 29.9727 55 32.4285 55 36H51C51 31.5715 52.3943 28.0272 54.8358 25.5858C57.2674 23.1541 60.5553 22 64 22C67.4447 22 70.7326 23.1541 73.1642 25.5858C75.6057 28.0272 77 31.5715 77 36H73C73 32.4285 71.8943 29.9727 70.3358 28.4142C68.7674 26.8459 66.5553 26 64 26C61.4447 26 59.2326 26.8459 57.6642 28.4142Z" fill="#21A19A"/>
<path fill-rule="evenodd" clip-rule="evenodd" d="M62 56C62 61.5228 57.5228 66 52 66C46.4772 66 42 61.5228 42 56C42 50.4772 46.4772 46 52 46C57.5228 46 62 50.4772 62 56ZM52 62C55.3137 62 58 59.3137 58 56C58 52.6863 55.3137 50 52 50C48.6863 50 46 52.6863 46 56C46 59.3137 48.6863 62 52 62Z" fill="#21A19A"/>
<path fill-rule="evenodd" clip-rule="evenodd" d="M86 56C86 61.5228 81.5228 66 76 66C70.4772 66 66 61.5228 66 56C66 50.4772 70.4772 46 76 46C81.5228 46 86 50.4772 86 56ZM76 62C79.3137 62 82 59.3137 82 56C82 52.6863 79.3137 50 76 50C72.6863 50 70 52.6863 70 56C70 59.3137 72.6863 62 76 62Z" fill="#21A19A"/>
<path fill-rule="evenodd" clip-rule="evenodd" d="M62 80C62 85.5228 57.5228 90 52 90C46.4772 90 42 85.5228 42 80C42 74.4772 46.4772 70 52 70C57.5228 70 62 74.4772 62 80ZM52 86C55.3137 86 58 83.3137 58 80C58 76.6863 55.3137 74 52 74C48.6863 74 46 76.6863 46 80C46 83.3137 48.6863 86 52 86Z" fill="#21A19A"/>
<path fill-rule="evenodd" clip-rule="evenodd" d="M86 80C86 85.5228 81.5228 90 76 90C70.4772 90 66 85.5228 66 80C66 74.4772 70.4772 70 76 70C81.5228 70 86 74.4772 86 80ZM76 86C79.3137 86 82 83.3137 82 80C82 76.6863 79.3137 74 76 74C72.6863 74 70 76.6863 70 80C70 83.3137 72.6863 86 76 86Z" fill="#21A19A"/>
</g>
<defs>
<filter id="filter0_d_14028_644" x="22" y="26" width="83.9999" height="84" filterUnits="userSpaceOnUse" color-interpolation-filters="sRGB">
<feFlood flood-opacity="0" result="BackgroundImageFix"/>
<feColorMatrix in="SourceAlpha" type="matrix" values="0 0 0 0 0 0 0 0 0 0 0 0 0 0 0 0 0 0 127 0" result="hardAlpha"/>
<feOffset/>
<feGaussianBlur stdDeviation="5"/>
<feColorMatrix type="matrix" values="0 0 0 0 0.121569 0 0 0 0 0.121569 0 0 0 0 0.133333 0 0 0 0.1 0"/>
<feBlend mode="normal" in2="BackgroundImageFix" result="effect1_dropShadow_14028_644"/>
<feBlend mode="normal" in="SourceGraphic" in2="effect1_dropShadow_14028_644" result="shape"/>
</filter>
<clipPath id="clip0_14028_644">
<rect width="128" height="128" fill="white"/>
</clipPath>
</defs>
</svg>
