<svg width="128" height="128" viewBox="0 0 128 128" fill="none" xmlns="http://www.w3.org/2000/svg">
<circle cx="64" cy="64" r="64" fill="#B2B8BF" fill-opacity="0.2"/>
<g filter="url(#filter0_d)">
<path d="M64 112C90.5097 112 112 90.5097 112 64C112 37.4903 90.5097 16 64 16C37.4903 16 16 37.4903 16 64C16 90.5097 37.4903 112 64 112Z" fill="white"/>
</g>
<path fill-rule="evenodd" clip-rule="evenodd" d="M64.8431 46.5358C64.6302 45.6442 63.838 45.0114 62.921 45.0001C62.004 44.9892 61.1969 45.6028 60.9626 46.4892L56.5307 64.53L54.7229 56.3865C54.5266 55.5693 54.0003 54.8525 52.9514 54.8525C51.9026 54.8525 51.526 55.4718 51.0679 56.3865C50.5938 57.3331 49.7638 58.8709 48.5777 60.9999H43.0008C41.8958 60.9999 41 61.8953 41 62.9999C41 64.1044 41.8958 64.9999 43.0008 64.9999H49.8143C50.5722 64.9999 51.2649 64.5719 51.6038 63.8943L52.0491 63.0041L54.3961 73.0003C54.6594 73.8689 55.3353 74.3232 56.2517 74.3336C57.1684 74.3442 57.8871 73.8912 58.1632 73.0003L62.8224 56.3865L68.4957 81.2608C68.7035 82.0861 69.3057 83 70.4954 83C71.6851 83 72.3091 82.0861 72.4827 81.1869L76.4214 62.9125L77.6126 64.3016C77.9927 64.7448 78.5476 65 79.1317 65H84.9992C86.1042 65 87 64.1045 87 63C87 61.8955 86.1042 61 84.9992 61H80.0519L76.7848 57.1897C76.2866 56.6088 75.5004 56.3629 74.7597 56.5564C74.019 56.7499 73.4539 57.3488 73.3037 58.0992L70.4954 71.509L64.8431 46.5358Z" fill="#107F8C"/>
<defs>
<filter id="filter0_d" x="6" y="6" width="116" height="116" filterUnits="userSpaceOnUse" color-interpolation-filters="sRGB">
<feFlood flood-opacity="0" result="BackgroundImageFix"/>
<feColorMatrix in="SourceAlpha" type="matrix" values="0 0 0 0 0 0 0 0 0 0 0 0 0 0 0 0 0 0 127 0"/>
<feOffset/>
<feGaussianBlur stdDeviation="5"/>
<feColorMatrix type="matrix" values="0 0 0 0 0.121569 0 0 0 0 0.121569 0 0 0 0 0.133333 0 0 0 0.1 0"/>
<feBlend mode="normal" in2="BackgroundImageFix" result="effect1_dropShadow"/>
<feBlend mode="normal" in="SourceGraphic" in2="effect1_dropShadow" result="shape"/>
</filter>
</defs>
</svg>
