<svg width="128" height="128" viewBox="0 0 128 128" fill="none" xmlns="http://www.w3.org/2000/svg">
<circle cx="64" cy="64" r="64" fill="#B2B8BF" fill-opacity="0.2"/>
<g filter="url(#filter0_d_13953_133)">
<path d="M40 28C40 24.6863 42.6863 22 46 22H82C85.3137 22 88 24.6863 88 28V100C88 103.314 85.3137 106 82 106H46C42.6863 106 40 103.314 40 100V28Z" fill="white"/>
</g>
<path fill-rule="evenodd" clip-rule="evenodd" d="M46 22C42.6863 22 40 24.6863 40 28V100C40 103.314 42.6863 106 46 106H82C85.3137 106 88 103.314 88 100V28C88 24.6863 85.3137 22 82 22H46ZM47 26C45.3431 26 44 27.3431 44 29V99C44 100.657 45.3431 102 47 102H81C82.6569 102 84 100.657 84 99V29C84 27.3431 82.6569 26 81 26H47ZM52 64C52 62.8954 52.8954 62 54 62H74C75.1046 62 76 62.8954 76 64C76 65.1046 75.1046 66 74 66H54C52.8954 66 52 65.1046 52 64ZM54 34C52.8954 34 52 34.8954 52 36V56C52 57.1046 52.8954 58 54 58H74C75.1046 58 76 57.1046 76 56V36C76 34.8954 75.1046 34 74 34H54Z" fill="#F2F4F7"/>
<path d="M58 76C58 73.7909 59.7909 72 62 72H102C104.209 72 106 73.7909 106 76V92C106 94.2091 104.209 96 102 96H62C59.7909 96 58 94.2091 58 92V76Z" fill="#107F8C"/>
<path fill-rule="evenodd" clip-rule="evenodd" d="M83.5 78H80C79.4477 78 79 78.4477 79 79V83C78.4477 83 78 83.4477 78 84C78 84.5523 78.4477 85 79 85V86C78.4477 86 78 86.4477 78 87C78 87.5523 78.4477 88 79 88V89C79 89.5523 79.4477 90 80 90C80.5523 90 81 89.5523 81 89V88H82.5C83.0523 88 83.5 87.5523 83.5 87C83.5 86.4477 83.0523 86 82.5 86H81V85L83 85L83.5 85C85.433 85 87 83.433 87 81.5C87 79.567 85.433 78 83.5 78ZM83.5 83H83.001L83 83H81V80H83.5C84.3284 80 85 80.6716 85 81.5C85 82.3284 84.3284 83 83.5 83ZM63 80C63.5523 80 64 80.4477 64 81L64 87C64 87.5523 63.5523 88 63 88C62.4477 88 62 87.5523 62 87V81C62 80.4477 62.4477 80 63 80ZM101 80C101.552 80 102 80.4477 102 81V87C102 87.5523 101.552 88 101 88C100.448 88 100 87.5523 100 87V81C100 80.4477 100.448 80 101 80Z" fill="white"/>
<defs>
<filter id="filter0_d_13953_133" x="30" y="12" width="68" height="104" filterUnits="userSpaceOnUse" color-interpolation-filters="sRGB">
<feFlood flood-opacity="0" result="BackgroundImageFix"/>
<feColorMatrix in="SourceAlpha" type="matrix" values="0 0 0 0 0 0 0 0 0 0 0 0 0 0 0 0 0 0 127 0" result="hardAlpha"/>
<feOffset/>
<feGaussianBlur stdDeviation="5"/>
<feColorMatrix type="matrix" values="0 0 0 0 0.121569 0 0 0 0 0.121569 0 0 0 0 0.133333 0 0 0 0.1 0"/>
<feBlend mode="normal" in2="BackgroundImageFix" result="effect1_dropShadow_13953_133"/>
<feBlend mode="normal" in="SourceGraphic" in2="effect1_dropShadow_13953_133" result="shape"/>
</filter>
</defs>
</svg>
