<svg width="128" height="128" viewBox="0 0 128 128" fill="none" xmlns="http://www.w3.org/2000/svg">
<circle cx="64" cy="64" r="64" fill="#B2B8BF" fill-opacity="0.2"/>
<g filter="url(#filter0_d)">
<path d="M89.7231 101.333H64L32 75.3333V34.8913C32 31.771 34.8632 29.3333 38.2771 29.3333H89.7231C93.1368 29.3333 96 31.8685 96 34.8913V95.7753C96 98.798 93.2469 101.333 89.7231 101.333Z" fill="white"/>
</g>
<path d="M58.1996 75.3333C61.3997 75.3333 63.9996 77.8333 63.9996 80.9333V101.333L32 75.3333H58.1996ZM82.0541 87.3333C83.1155 87.3333 84 88.2423 84 89.3333C84 90.4242 83.1155 91.3333 82.0541 91.3333H69.9459C68.8845 91.3333 68 90.4242 68 89.3333C68 88.2423 68.8845 87.3333 69.9459 87.3333H82.0541ZM82.0541 75.3333C83.1155 75.3333 84 76.2423 84 77.3333C84 78.4242 83.1155 79.3333 82.0541 79.3333H69.9459C68.8845 79.3333 68 78.4242 68 77.3333C68 76.2423 68.8845 75.3333 69.9459 75.3333H82.0541ZM82.0541 63.3333C83.1155 63.3333 84 64.2423 84 65.3333C84 66.4242 83.1155 67.3333 82.0541 67.3333H45.9459C44.8845 67.3333 44 66.4242 44 65.3333C44 64.2423 44.8845 63.3333 45.9459 63.3333H82.0541ZM62.0541 51.3333C63.1155 51.3333 64 52.2423 64 53.3333C64 54.4242 63.1155 55.3333 62.0541 55.3333H45.9459C44.8845 55.3333 44 54.4242 44 53.3333C44 52.2423 44.8845 51.3333 45.9459 51.3333H62.0541ZM62.0541 39.3333C63.1155 39.3333 64 40.2423 64 41.3333C64 42.4242 63.1155 43.3333 62.0541 43.3333H45.9459C44.8845 43.3333 44 42.4242 44 41.3333C44 40.2423 44.8845 39.3333 45.9459 39.3333H62.0541Z" fill="#F2F4F7"/>
<path d="M84 22.7705C75.2 22.7705 68 29.9705 68 38.7705C68 47.5705 75.2 54.7705 84 54.7705C92.8 54.7705 100 47.5705 100 38.7705C100 29.9705 92.8 22.7705 84 22.7705ZM91 40.7705H86V45.7705C86 46.8705 85.1 47.7705 84 47.7705C82.9 47.7705 82 46.8705 82 45.7705V40.7705H77C75.9 40.7705 75 39.8705 75 38.7705C75 37.6705 75.9 36.7705 77 36.7705H82V31.7705C82 30.6705 82.9 29.7705 84 29.7705C85.1 29.7705 86 30.6705 86 31.7705V36.7705H91C92.1 36.7705 93 37.6705 93 38.7705C93 39.8705 92.1 40.7705 91 40.7705Z" fill="#107F8C"/>
<defs>
<filter id="filter0_d" x="22" y="19.3333" width="84" height="92" filterUnits="userSpaceOnUse" color-interpolation-filters="sRGB">
<feFlood flood-opacity="0" result="BackgroundImageFix"/>
<feColorMatrix in="SourceAlpha" type="matrix" values="0 0 0 0 0 0 0 0 0 0 0 0 0 0 0 0 0 0 127 0" result="hardAlpha"/>
<feOffset/>
<feGaussianBlur stdDeviation="5"/>
<feColorMatrix type="matrix" values="0 0 0 0 0.121569 0 0 0 0 0.121569 0 0 0 0 0.133333 0 0 0 0.1 0"/>
<feBlend mode="normal" in2="BackgroundImageFix" result="effect1_dropShadow"/>
<feBlend mode="normal" in="SourceGraphic" in2="effect1_dropShadow" result="shape"/>
</filter>
</defs>
</svg>
