<svg width="128" height="128" viewBox="0 0 128 128" fill="none" xmlns="http://www.w3.org/2000/svg">
<circle cx="64" cy="64" r="64" fill="#B2B8BF" fill-opacity="0.2"/>
<g filter="url(#filter0_d_14629_178)">
<path d="M38 42.5C38 38.3579 41.3579 35 45.5 35H82.5C86.6421 35 90 38.3579 90 42.5C90 44.9567 88.8193 47.1336 87 48.4998V51.9203C92.2622 53.9333 96 59.0271 96 65V96C96 103.732 89.732 110 82 110H46C38.268 110 32 103.732 32 96V65C32 59.0271 35.7378 53.9333 41 51.9203V48.4998C39.1807 47.1336 38 44.9567 38 42.5Z" fill="white"/>
</g>
<path fill-rule="evenodd" clip-rule="evenodd" d="M57 62C57.5523 62 58 62.4477 58 63C58 63.5523 57.5523 64 57 64H52L52 66H55.3077C57.5923 66 60 67.4278 60 69.9999C60 72.572 57.5923 73.9999 55.3077 73.9999L50 74V64C50 62.8954 50.8954 62 52 62H57ZM52 72L55.3077 71.9999C56.9859 71.9999 58 71.0279 58 69.9999C58 68.972 56.9859 68 55.3077 68H52L52 72Z" fill="#F2F4F7"/>
<path fill-rule="evenodd" clip-rule="evenodd" d="M76 83C76 82.4477 75.5523 82 75 82H70C68.8954 82 68 82.8954 68 84V94H73.3077C75.5923 94 78 92.5721 78 90C78 87.4279 75.5923 86 73.3077 86H70V84H75C75.5523 84 76 83.5523 76 83ZM70 92V88H73.3077C74.9859 88 76 88.9721 76 90C76 91.0279 74.9859 92 73.3077 92H70Z" fill="#F2F4F7"/>
<path fill-rule="evenodd" clip-rule="evenodd" d="M42 42.5C42 40.567 43.567 39 45.5 39H82.5C84.433 39 86 40.567 86 42.5C86 43.8578 85.2283 45.037 84.0898 45.6189C83.4209 45.9607 83 46.6486 83 47.3998V53.3784C83 54.291 83.6177 55.0878 84.5014 55.3153C88.8158 56.4261 92 60.3429 92 65V96C92 101.523 87.5229 106 82 106C82 106 73.5 104 64 104C54.5 104 46 106 46 106C40.4771 106 36 101.523 36 96V65C36 60.3429 39.1842 56.4261 43.4987 55.3153C44.3823 55.0878 45 54.291 45 53.3784V47.3998C45 46.6486 44.5791 45.9607 43.9102 45.6189C42.7717 45.037 42 43.8578 42 42.5ZM55 56C48.3726 56 43 61.3726 43 68V79C43 79.5523 43.4477 80 44 80H55C61.6274 80 67 74.6274 67 68C67 61.3726 61.6274 56 55 56ZM61 88C61 81.3726 66.3726 76 73 76C79.6274 76 85 81.3726 85 88C85 94.6274 79.6274 100 73 100H62C61.4477 100 61 99.5523 61 99V88Z" fill="#F2F4F7"/>
<path d="M82 33C82 41.8366 74.8366 49 66 49C61.5751 49 50 49 50 49C50 49 50 37.4116 50 33C50 24.1634 57.1634 17 66 17C74.8366 17 82 24.1634 82 33Z" fill="#107F8C"/>
<path fill-rule="evenodd" clip-rule="evenodd" d="M69 25C69.5523 25 70 25.4477 70 26C70 26.5523 69.5523 27 69 27H61V30L66.4615 30C69.7369 30 73 32.0279 73 35.5C73 38.9721 69.7369 41 66.4615 41H59V27C59 25.8954 59.8954 25 61 25H69ZM61 39H66.4615C69.1304 39 71 37.4279 71 35.5C71 33.5721 69.1304 32 66.4615 32L61 32L61 39Z" fill="white"/>
<defs>
<filter id="filter0_d_14629_178" x="22" y="25" width="84" height="95" filterUnits="userSpaceOnUse" color-interpolation-filters="sRGB">
<feFlood flood-opacity="0" result="BackgroundImageFix"/>
<feColorMatrix in="SourceAlpha" type="matrix" values="0 0 0 0 0 0 0 0 0 0 0 0 0 0 0 0 0 0 127 0" result="hardAlpha"/>
<feOffset/>
<feGaussianBlur stdDeviation="5"/>
<feColorMatrix type="matrix" values="0 0 0 0 0.121569 0 0 0 0 0.121569 0 0 0 0 0.133333 0 0 0 0.1 0"/>
<feBlend mode="normal" in2="BackgroundImageFix" result="effect1_dropShadow_14629_178"/>
<feBlend mode="normal" in="SourceGraphic" in2="effect1_dropShadow_14629_178" result="shape"/>
</filter>
</defs>
</svg>
