<svg width="128" height="128" viewBox="0 0 128 128" fill="none" xmlns="http://www.w3.org/2000/svg">
<g clip-path="url(#clip0_14849_208)">
<circle cx="64" cy="64" r="64" fill="#B2B8BF" fill-opacity="0.2"/>
<g filter="url(#filter0_d_14849_208)">
<path d="M32.0258 95.5518C31.7586 97.9234 33.6127 100 35.9975 100H92.0028C94.3876 100 96.2417 97.9234 95.9745 95.5518L89.6643 39.5518C89.4363 37.5289 87.7267 36 85.6924 36H42.3078C40.2737 36 38.564 37.5289 38.336 39.5518L32.0258 95.5518Z" fill="#565B62"/>
</g>
<path fill-rule="evenodd" clip-rule="evenodd" d="M57.6642 28.4142C56.1057 29.9727 55 32.4285 55 36H51C51 31.5715 52.3943 28.0272 54.8358 25.5858C57.2674 23.1541 60.5553 22 64 22C67.4447 22 70.7326 23.1541 73.1642 25.5858C75.6057 28.0272 77 31.5715 77 36H73C73 32.4285 71.8943 29.9727 70.3358 28.4142C68.7674 26.8459 66.5553 26 64 26C61.4447 26 59.2326 26.8459 57.6642 28.4142Z" fill="#21A19A"/>
<path d="M59.0088 51.2627C59.6325 50.9068 60.3993 50.913 61.0176 51.2783L72.0176 57.7783C72.6264 58.1382 73 58.7927 73 59.5C73 60.2072 72.6264 60.8618 72.0176 61.2217L61.0176 67.7217C60.3993 68.087 59.6325 68.0932 59.0088 67.7373C58.3851 67.3814 58 66.7181 58 66V53L58.0049 52.8662C58.0494 52.2003 58.424 51.5964 59.0088 51.2627ZM62 62.4951L67.0684 59.5L62 56.5039V62.4951Z" fill="#21A19A"/>
<path d="M52 57C52 55.8954 52.8954 55 54 55C55.1046 55 56 55.8954 56 57V79.4951L72.1748 69.9365L70.4502 68.8389L62.002 73.7305C61.0461 74.2839 59.823 73.9578 59.2695 73.0019C58.7161 72.0461 59.0422 70.823 59.998 70.2695L69.498 64.7695L69.6211 64.7041C70.2433 64.3994 70.9831 64.4371 71.5732 64.8125L77.0732 68.3125C77.6601 68.6859 78.0115 69.3377 78 70.0332C77.9884 70.7285 77.6162 71.3679 77.0176 71.7217L55.0176 84.7217C54.3993 85.087 53.6325 85.0932 53.0088 84.7373C52.385 84.3814 52 83.7181 52 83V57Z" fill="#21A19A"/>
</g>
<defs>
<filter id="filter0_d_14849_208" x="22.0001" y="26" width="84" height="84" filterUnits="userSpaceOnUse" color-interpolation-filters="sRGB">
<feFlood flood-opacity="0" result="BackgroundImageFix"/>
<feColorMatrix in="SourceAlpha" type="matrix" values="0 0 0 0 0 0 0 0 0 0 0 0 0 0 0 0 0 0 127 0" result="hardAlpha"/>
<feOffset/>
<feGaussianBlur stdDeviation="5"/>
<feColorMatrix type="matrix" values="0 0 0 0 0.121569 0 0 0 0 0.121569 0 0 0 0 0.133333 0 0 0 0.1 0"/>
<feBlend mode="normal" in2="BackgroundImageFix" result="effect1_dropShadow_14849_208"/>
<feBlend mode="normal" in="SourceGraphic" in2="effect1_dropShadow_14849_208" result="shape"/>
</filter>
<clipPath id="clip0_14849_208">
<rect width="128" height="128" fill="white"/>
</clipPath>
</defs>
</svg>
