<svg width="128" height="128" viewBox="0 0 128 128" fill="none" xmlns="http://www.w3.org/2000/svg">
<g clip-path="url(#clip0_14028_652)">
<circle cx="64" cy="64" r="64" fill="#B2B8BF" fill-opacity="0.2"/>
<g filter="url(#filter0_d_14028_652)">
<path d="M95.9743 95.5518C96.2414 97.9234 94.3874 100 92.0026 100H35.9974C33.6126 100 31.7585 97.9234 32.0257 95.5518L38.3359 39.5518C38.5639 37.5289 40.2735 36 42.3077 36H85.6923C87.7264 36 89.4361 37.5289 89.6641 39.5518L95.9743 95.5518Z" fill="#565B62"/>
</g>
<path fill-rule="evenodd" clip-rule="evenodd" d="M55 36C55 32.4285 56.1057 29.9727 57.6642 28.4142C59.2326 26.8459 61.4447 26 64 26C66.5553 26 68.7674 26.8459 70.3358 28.4142C71.8943 29.9727 73 32.4285 73 36H77C77 31.5715 75.6057 28.0272 73.1642 25.5858C70.7326 23.1541 67.4447 22 64 22C60.5553 22 57.2674 23.1541 54.8358 25.5858C52.3943 28.0272 51 31.5715 51 36H55ZM104 58C104 55.7909 102.209 54 100 54H64C61.7909 54 60 55.7909 60 58V78C60 80.2091 61.7909 82 64 82H100C102.209 82 104 80.2091 104 78V58Z" fill="#21A19A"/>
<path fill-rule="evenodd" clip-rule="evenodd" d="M104 62V64H60V62H104ZM68 74C68 75.1046 67.1046 76 66 76C64.8954 76 64 75.1046 64 74C64 72.8954 64.8954 72 66 72C67.1046 72 68 72.8954 68 74ZM72 72H81C82.1046 72 83 72.8954 83 74C83 75.1046 82.1046 76 81 76H72C70.8954 76 70 75.1046 70 74C70 72.8954 70.8954 72 72 72Z" fill="#565B62"/>
</g>
<defs>
<filter id="filter0_d_14028_652" x="22" y="26" width="83.9999" height="84" filterUnits="userSpaceOnUse" color-interpolation-filters="sRGB">
<feFlood flood-opacity="0" result="BackgroundImageFix"/>
<feColorMatrix in="SourceAlpha" type="matrix" values="0 0 0 0 0 0 0 0 0 0 0 0 0 0 0 0 0 0 127 0" result="hardAlpha"/>
<feOffset/>
<feGaussianBlur stdDeviation="5"/>
<feColorMatrix type="matrix" values="0 0 0 0 0.121569 0 0 0 0 0.121569 0 0 0 0 0.133333 0 0 0 0.1 0"/>
<feBlend mode="normal" in2="BackgroundImageFix" result="effect1_dropShadow_14028_652"/>
<feBlend mode="normal" in="SourceGraphic" in2="effect1_dropShadow_14028_652" result="shape"/>
</filter>
<clipPath id="clip0_14028_652">
<rect width="128" height="128" fill="white"/>
</clipPath>
</defs>
</svg>
