<svg width="128" height="128" viewBox="0 0 128 128" fill="none" xmlns="http://www.w3.org/2000/svg">
<circle cx="64" cy="64" r="64" fill="#B2B8BF" fill-opacity="0.2"/>
<g filter="url(#filter0_d_1212_0)">
<path d="M64 112C90.5 112 112 90.5 112 64C112 37.5 90.5 16 64 16C37.5 16 16 37.5 16 64C16 90.5 37.5 112 64 112Z" fill="white"/>
</g>
<path fill-rule="evenodd" clip-rule="evenodd" d="M58 49C56.8954 49 56 49.8954 56 51L56 62C54.8954 62 54 62.8954 54 64C54 65.1046 54.8954 66 56 66L56 69C54.8954 69 54 69.8954 54 71C54 72.1046 54.8954 73 56 73L56 77C56 78.1046 56.8954 79 58 79C59.1046 79 60 78.1046 60 77V73H64C65.1046 73 66 72.1046 66 71C66 69.8954 65.1046 69 64 69H60V66L67.5 66C72.1944 66 76 62.1944 76 57.5C76 52.8056 72.1944 49 67.5 49H58ZM67.5 62C69.9853 62 72 59.9853 72 57.5C72 55.0147 69.9853 53 67.5 53H60V62L67.5 62Z" fill="#107F8C"/>
<path fill-rule="evenodd" clip-rule="evenodd" d="M80.5193 39.0506C75.7534 35.8605 70.024 34 63.854 34C56.5203 34 49.8041 36.6293 44.5916 40.9999H48C49.1046 40.9999 50 41.8953 50 42.9999C50 44.1044 49.1046 44.9999 48 44.9999H40C38.8954 44.9999 38 44.1044 38 42.9999V35C38 33.8954 38.8954 33 40 33C41.1046 33 42 33.8954 42 35V37.9529C47.9085 32.9908 55.5337 30 63.854 30C70.8406 30 77.3406 32.1095 82.7443 35.7266C84.0725 36.6157 85.3345 37.5958 86.5212 38.6579C86.8088 38.9154 87.0921 39.1777 87.3708 39.4446C87.6928 39.7531 88.0088 40.0679 88.3185 40.3887C88.6169 40.6978 88.9095 41.0126 89.1961 41.3328C89.2488 41.3917 89.3012 41.4507 89.3535 41.5099C89.4054 41.5687 89.4571 41.6277 89.5086 41.6869C90.2338 42.52 90.1463 43.7833 89.3131 44.5086C88.48 45.2338 87.2167 45.1463 86.4915 44.3131C86.446 44.2609 86.4004 44.2088 86.3545 44.1569C86.3084 44.1046 86.262 44.0525 86.2155 44.0005C85.9625 43.7177 85.7041 43.4398 85.4406 43.1668C85.1671 42.8835 84.8881 42.6056 84.6037 42.3331C84.3576 42.0974 84.1075 41.8658 83.8535 41.6385C82.8056 40.7006 81.6915 39.8353 80.5193 39.0506ZM47.4809 88.9494C52.2467 92.1395 57.9761 94 64.1461 94C71.4799 94 78.196 91.3707 83.4085 87.0001H80.0001C78.8956 87.0001 78.0001 86.1047 78.0001 85.0001C78.0001 83.8956 78.8956 83.0001 80.0001 83.0001H88.0001C89.1047 83.0001 90.0001 83.8956 90.0001 85.0001V93C90.0001 94.1046 89.1047 95 88.0001 95C86.8956 95 86.0001 94.1046 86.0001 93V90.0471C80.0916 95.0092 72.4664 98 64.1461 98C57.1595 98 50.6595 95.8905 45.2558 92.2734C43.9276 91.3843 42.6657 90.4042 41.479 89.3421C41.1913 89.0846 40.9081 88.8223 40.6294 88.5554C40.3073 88.2469 39.9914 87.9321 39.6816 87.6113C39.3832 87.3022 39.0907 86.9874 38.804 86.6672C38.7514 86.6083 38.6989 86.5493 38.6466 86.4901C38.5947 86.4313 38.543 86.3723 38.4915 86.3131C37.7663 85.48 37.8538 84.2167 38.687 83.4914C39.5201 82.7662 40.7834 82.8537 41.5086 83.6869L41.5557 83.7408C41.5856 83.775 41.6156 83.8091 41.6456 83.8431C41.6917 83.8954 41.7381 83.9475 41.7846 83.9995C42.0377 84.2823 42.296 84.5602 42.5595 84.8332C42.833 85.1165 43.112 85.3944 43.3964 85.6669C43.6425 85.9026 43.8926 86.1342 44.1466 86.3615C45.1945 87.2994 46.3086 88.1647 47.4809 88.9494Z" fill="#107F8C"/>
<defs>
<filter id="filter0_d_1212_0" x="6" y="6" width="116" height="116" filterUnits="userSpaceOnUse" color-interpolation-filters="sRGB">
<feFlood flood-opacity="0" result="BackgroundImageFix"/>
<feColorMatrix in="SourceAlpha" type="matrix" values="0 0 0 0 0 0 0 0 0 0 0 0 0 0 0 0 0 0 127 0" result="hardAlpha"/>
<feOffset/>
<feGaussianBlur stdDeviation="5"/>
<feColorMatrix type="matrix" values="0 0 0 0 0.121569 0 0 0 0 0.121569 0 0 0 0 0.133333 0 0 0 0.1 0"/>
<feBlend mode="normal" in2="BackgroundImageFix" result="effect1_dropShadow_1212_0"/>
<feBlend mode="normal" in="SourceGraphic" in2="effect1_dropShadow_1212_0" result="shape"/>
</filter>
</defs>
</svg>
