<svg width="128" height="128" viewBox="0 0 128 128" fill="none" xmlns="http://www.w3.org/2000/svg">
<g clip-path="url(#clip0_85_11)">
<circle cx="64" cy="64" r="64" fill="#B2B8BF" fill-opacity="0.2"/>
<g filter="url(#filter0_d_85_11)">
<path d="M64 112C90.5097 112 112 90.5097 112 64C112 37.4903 90.5097 16 64 16C37.4903 16 16 37.4903 16 64C16 90.5097 37.4903 112 64 112Z" fill="white"/>
</g>
<path fill-rule="evenodd" clip-rule="evenodd" d="M70.9994 50.9928C71.4194 50.9928 72.0946 51.3319 71.9994 52.0508C71.9042 52.7697 71.8084 53.2268 71.6384 53.7978C72.8494 54.6858 73.3694 55.6448 73.1994 56.6428C73.0464 57.1258 72.8484 57.5928 72.6094 58.0398L71.7094 57.5208C70.6594 56.9018 70.2494 56.8118 69.6194 57.3408C68.9894 57.8698 66.5394 61.5238 69.1784 62.8908C71.8194 64.2578 75.1784 60.2558 77.3694 53.2588C77.7094 52.1408 78.7694 52.4808 79.1384 53.4188C80.1384 55.9638 81.2984 66.2748 76.1384 69.3888C74.1384 70.5968 72.9394 70.4368 69.3594 68.8898C68.6994 68.5998 68.6194 69.3488 69.2694 69.6388C70.0694 69.8858 70.8034 70.3088 71.4194 70.8758C72.2394 71.7248 72.1694 73.1388 71.0194 74.4958C71.1384 74.7768 71.4474 75.2838 71.7514 75.4238C72.0544 75.5648 72.4474 74.7998 72.9404 74.8828C73.0994 74.9098 73.4104 75.1278 73.8704 75.5338C74.0914 75.6868 74.1434 75.9858 74.0004 76.2128C73.8544 76.4368 73.5664 76.5038 73.3394 76.3628C73.4464 76.4338 73.7004 76.7588 73.4984 77.0538C73.2954 77.3498 72.9074 77.2528 72.7994 77.1818C72.9194 77.2538 73.1164 77.6498 72.9194 77.8728C72.7664 78.0948 72.4754 78.1258 72.2484 77.9828L71.5074 77.5038C71.2674 77.3738 70.8924 76.9138 71.1904 76.3328L69.5694 75.1578C68.8454 75.2278 68.3224 74.7738 67.9994 74.2888C66.8594 72.4228 64.9994 73.8298 66.5484 75.4668C66.8084 75.7368 68.1894 77.0548 68.5484 77.4638C68.9094 77.8728 70.5194 79.9988 67.1284 81.1468C63.7394 82.2938 64.3694 82.2748 60.9794 81.1468C57.5884 80.0188 58.9794 77.9918 59.4894 77.4528C59.9994 76.9138 61.2594 75.7368 61.4894 75.4568C63.0294 73.8208 61.1694 72.4128 60.0394 74.2788C59.7394 74.9038 59.0654 75.2608 58.3784 75.1578L56.8094 76.3958C57.0064 76.7708 56.9154 77.2328 56.5884 77.5038L55.7394 78.0528C55.6304 78.1238 55.2494 78.2048 55.0594 77.9118C54.9324 77.7178 54.9794 77.4948 55.1994 77.2438C54.9694 77.3858 54.6504 77.3418 54.5014 77.1158C54.3584 76.8928 54.4384 76.5728 54.6594 76.4258C54.4324 76.5668 54.1344 76.4998 53.9894 76.2758C53.8454 76.0488 53.9074 75.7488 54.1284 75.5968C54.5944 75.1978 54.9044 74.9808 55.0594 74.9448C55.4644 74.8538 55.8464 75.5068 56.1284 75.5068C56.4114 75.5068 56.6794 75.1478 56.9794 74.5588C55.8894 73.2718 55.7794 71.5648 56.6484 70.8168C57.2804 70.2708 58.0094 69.8508 58.7984 69.5778C59.4494 69.2888 59.3594 68.5798 58.6994 68.8298C55.1284 70.3768 53.8494 70.5568 51.8194 69.3488C46.6994 66.2938 47.8784 55.9838 48.8584 53.4388C49.2194 52.5008 50.2894 52.1608 50.6284 53.2788C52.8194 60.2658 56.4194 64.1888 58.9194 62.8908C61.4194 61.5928 59.0884 57.9008 58.4794 57.3408C57.8694 56.7818 57.4794 56.9018 56.3894 57.5208L55.4994 58.0398C55.2604 57.5958 55.0634 57.1318 54.9094 56.6528C54.7294 55.6538 55.2594 54.6558 56.4794 53.7778C56.3164 53.2128 56.2262 52.7011 56.1284 52.1208C56.0374 51.5807 56.3894 51.0528 57.164 51.0528H59.4794C59.9911 51.0528 60.3984 51.6319 60.3094 52.1208C60.1864 52.6698 60.0294 53.2098 59.8384 53.7378C61.2394 54.6268 62.1394 55.5848 64.0594 58.3998C64.0594 58.3998 66.3384 54.6268 68.2694 53.7378C68.0844 53.2078 67.9264 52.6678 67.7984 52.1208C67.6931 51.6223 68.1025 51.0961 68.6194 51.0528C69.9254 51.0128 70.7184 50.9928 70.9994 50.9928ZM56.466 78.1371C56.689 77.9751 57.002 78.0231 57.164 78.2471L57.752 79.0571C57.914 79.2791 57.865 79.5931 57.641 79.7551C57.418 79.9171 57.105 79.8671 56.943 79.6431L56.355 78.8351C56.193 78.6111 56.242 78.2991 56.466 78.1371ZM76.4242 70.8871C76.5892 70.6661 76.8992 70.6221 77.1172 70.7881C77.3122 70.9351 77.4312 71.1741 77.2322 71.4581C77.0332 71.7421 76.7612 72.0981 76.7612 72.0981C76.9972 72.4271 77.1372 72.8321 77.1372 73.2701C77.1372 74.3771 76.2492 75.2721 75.1552 75.2721C74.0602 75.2721 73.1732 74.3771 73.1732 73.2701C73.1732 72.1651 74.0602 71.2681 75.1552 71.2681C75.4562 71.2681 75.7422 71.3371 75.9972 71.4581L76.4242 70.8871ZM51.2824 69.9399C52.0024 70.0398 52.32 70.7881 52.0583 71.3379L54.2524 74.3169C54.4164 74.5379 54.3724 74.8509 54.1534 75.0179C53.9354 75.1849 53.6244 75.1409 53.4604 74.9209L51.2824 71.9239C50.5024 72.0035 50.0754 71.3429 50.1524 70.7949C50.2294 70.2469 50.7344 69.8639 51.2824 69.9399ZM63.9548 45.9999C64.2288 45.9999 64.5228 46.2409 64.5228 46.5169V47.0009H65.4168C66.5128 47.0009 67.2748 47.7349 67.0368 49.1759L66.8288 50.5479C66.6658 51.4499 65.8728 51.9939 64.9648 51.9889H63.0908C62.1828 51.9939 61.3998 51.4499 61.2358 50.5479L61.0278 49.1759C60.8008 47.7949 61.4338 47.0589 62.4738 47.0029L63.3798 47.0009V46.5169C63.3798 46.2409 63.6818 45.9999 63.9548 45.9999Z" fill="#107F8C"/>
</g>
<defs>
<filter id="filter0_d_85_11" x="6" y="6" width="116" height="116" filterUnits="userSpaceOnUse" color-interpolation-filters="sRGB">
<feFlood flood-opacity="0" result="BackgroundImageFix"/>
<feColorMatrix in="SourceAlpha" type="matrix" values="0 0 0 0 0 0 0 0 0 0 0 0 0 0 0 0 0 0 127 0" result="hardAlpha"/>
<feOffset/>
<feGaussianBlur stdDeviation="5"/>
<feColorMatrix type="matrix" values="0 0 0 0 0.121569 0 0 0 0 0.121569 0 0 0 0 0.133333 0 0 0 0.1 0"/>
<feBlend mode="normal" in2="BackgroundImageFix" result="effect1_dropShadow_85_11"/>
<feBlend mode="normal" in="SourceGraphic" in2="effect1_dropShadow_85_11" result="shape"/>
</filter>
<clipPath id="clip0_85_11">
<rect width="128" height="128" fill="white"/>
</clipPath>
</defs>
</svg>
