<svg width="128" height="128" viewBox="0 0 128 128" fill="none" xmlns="http://www.w3.org/2000/svg">
<circle cx="64" cy="64" r="64" fill="#B2B8BF" fill-opacity="0.2"/>
<g filter="url(#filter0_d_14770_180)">
<path d="M100 84.9985C100 90.5214 95.5229 94.9985 90 94.9985H38C32.4772 94.9985 28 90.5214 28 84.9985V44C28 39.5817 31.5817 36 36 36H82C86.4183 36 90 39.5817 90 44V46.9985C95.5229 46.9985 100 51.4757 100 56.9985V84.9985Z" fill="#565B62"/>
</g>
<path fill-rule="evenodd" clip-rule="evenodd" d="M34 47V46.0019C34 43.7928 35.7909 42.0019 38 42.0019H80C82.2091 42.0019 84 43.7928 84 46.0019V47H34Z" fill="#2D2D30"/>
<circle cx="84" cy="70" r="6" fill="#2D2D30"/>
<path d="M38 47L65.9994 30.5559C67.9243 29.4254 70.402 30.0892 71.5039 32.0306L80 47L38 47Z" fill="#21A19A"/>
<defs>
<filter id="filter0_d_14770_180" x="18" y="26" width="92" height="78.9985" filterUnits="userSpaceOnUse" color-interpolation-filters="sRGB">
<feFlood flood-opacity="0" result="BackgroundImageFix"/>
<feColorMatrix in="SourceAlpha" type="matrix" values="0 0 0 0 0 0 0 0 0 0 0 0 0 0 0 0 0 0 127 0" result="hardAlpha"/>
<feOffset/>
<feGaussianBlur stdDeviation="5"/>
<feColorMatrix type="matrix" values="0 0 0 0 0.121569 0 0 0 0 0.121569 0 0 0 0 0.133333 0 0 0 0.1 0"/>
<feBlend mode="normal" in2="BackgroundImageFix" result="effect1_dropShadow_14770_180"/>
<feBlend mode="normal" in="SourceGraphic" in2="effect1_dropShadow_14770_180" result="shape"/>
</filter>
</defs>
</svg>
