<svg width="128" height="128" viewBox="0 0 128 128" fill="none" xmlns="http://www.w3.org/2000/svg">
<path d="M105.986 46.1904C105.453 46.3334 105.136 46.8817 105.279 47.4152C105.422 47.9486 105.97 48.2652 106.504 48.1223L111.039 46.9071C111.572 46.7641 111.889 46.2158 111.746 45.6823C111.603 45.1489 111.055 44.8323 110.521 44.9752L105.986 46.1904Z" fill="#107F8C"/>
<path d="M109.328 58.6631C108.794 58.806 108.478 59.3544 108.621 59.8878C108.764 60.4213 109.312 60.7379 109.845 60.5949L114.381 59.3797C114.914 59.2368 115.231 58.6884 115.088 58.155C114.945 57.6215 114.397 57.3049 113.863 57.4479L109.328 58.6631Z" fill="#107F8C"/>
<path fill-rule="evenodd" clip-rule="evenodd" d="M5.82043 56.017C3.1531 56.7317 1.57018 59.4734 2.28489 62.1407L12.0627 98.6318C12.7774 101.299 15.5191 102.882 18.1864 102.167L96.2927 81.2389C97.8931 80.81 98.8429 79.165 98.414 77.5646L97.064 72.526L122.705 65.6554C124.199 65.2552 125.085 63.7199 124.685 62.2262L118.022 37.3583C117.622 35.8646 116.086 34.9781 114.593 35.3784L88.9512 42.2489L87.601 37.2098C87.1722 35.6094 85.5272 34.6596 83.9268 35.0884L5.82043 56.017ZM89.4689 44.1808L96.5463 70.5942L122.188 63.7236C122.614 63.6092 122.868 63.1706 122.753 62.7438L116.09 37.8759C115.976 37.4491 115.537 37.1959 115.11 37.3102L89.4689 44.1808ZM4.21674 61.6231C3.78792 60.0227 4.73767 58.3776 6.33807 57.9488L84.4444 37.0203C84.9779 36.8774 85.5262 37.1939 85.6691 37.7274L96.4822 78.0823C96.6251 78.6157 96.3086 79.1641 95.7751 79.307L17.6688 100.236C16.0684 100.664 14.4233 99.7146 13.9945 98.1142L4.21674 61.6231Z" fill="#107F8C"/>
<path fill-rule="evenodd" clip-rule="evenodd" d="M34.7863 64.5417C35.3494 61.8818 36.9833 59.643 39.9707 59.0313C41.5101 58.7161 42.8708 58.9516 43.9654 59.7067C45.0385 60.4469 45.7374 61.6047 46.1441 62.9192C46.9513 65.5286 46.7063 69.0497 45.6065 72.4331C44.9573 74.4301 43.9943 76.4299 42.7218 78.2174C44.6711 79.1993 47.0276 79.3237 49.7292 77.8673C50.3386 77.5388 50.974 76.7889 51.602 75.7616C52.1207 74.9129 52.5658 73.9945 52.958 73.1851C53.0286 73.0393 53.0976 72.8971 53.1649 72.7594C53.3752 72.3295 53.5865 71.9101 53.7826 71.6044C53.8764 71.4582 54.0076 71.2718 54.1761 71.1207C54.3075 71.0028 54.7482 70.6538 55.3385 70.8504C55.8589 71.0238 56.0446 71.4892 56.0992 71.6383C56.1775 71.8518 56.2211 72.0948 56.2498 72.3297C56.3089 72.8113 56.3318 73.4937 56.3279 74.3932C56.3235 75.3782 56.5273 75.8796 56.7 76.0888C56.8053 76.2165 56.9585 76.3208 57.362 76.2302C57.8239 76.1265 58.5006 75.772 59.3542 75.0171C60.1933 74.2751 61.1415 73.2012 62.1498 71.7667C62.5951 71.1332 63.0183 70.6418 63.4571 70.3355C63.9469 69.9935 64.5127 69.8492 65.1013 70.0415C65.5766 70.1968 65.9383 70.5423 66.1606 70.7597C66.2393 70.8366 66.3108 70.9085 66.3791 70.9771C66.55 71.1489 66.7 71.2997 66.8885 71.4555C67.3371 71.8266 67.9092 72.1395 68.9214 72.0329C70.0106 71.9181 71.6762 71.3089 74.2268 69.5553C74.6819 69.2424 75.3045 69.3577 75.6174 69.8128C75.9303 70.2679 75.815 70.8905 75.3599 71.2034C72.6955 73.0352 70.7028 73.8562 69.131 74.0218C67.4821 74.1956 66.3905 73.6392 65.6138 72.9967C65.3434 72.773 65.0935 72.5217 64.9074 72.3345C64.8533 72.28 64.8046 72.231 64.7623 72.1896C64.6716 72.1009 64.6062 72.0431 64.5611 72.0057C64.4096 72.1245 64.1594 72.3856 63.786 72.9168C62.7145 74.4412 61.6655 75.6431 60.6791 76.5153C59.7073 77.3747 58.7304 77.9728 57.8 78.1816C56.8111 78.4036 55.8329 78.1804 55.1574 77.3618C54.6409 76.7359 54.3996 75.8743 54.3418 74.9077C54.0377 75.5176 53.691 76.1788 53.3084 76.8047C52.6493 77.8831 51.7832 79.0322 50.6783 79.6278C47.2654 81.4677 44.0909 81.2724 41.4779 79.8214C41.4696 79.8168 41.4614 79.8122 41.4532 79.8076C40.8768 80.4518 40.2525 81.0528 39.5807 81.5974C36.6491 83.9738 32.8334 85.253 28.2648 84.3683C27.7226 84.2633 27.3681 83.7386 27.4731 83.1964C27.5781 82.6542 28.1028 82.2998 28.645 82.4048C32.5866 83.1681 35.8105 82.0791 38.3213 80.0438C38.8435 79.6204 39.3358 79.1551 39.7971 78.6559C38.0642 77.1948 36.7217 75.1863 35.8332 73.0558C34.6757 70.2804 34.2314 67.1625 34.7863 64.5417ZM41.0594 77.1037C42.2127 75.4952 43.1017 73.6689 43.7044 71.8148C44.7261 68.672 44.8787 65.5961 44.2334 63.5103C43.9138 62.4772 43.4239 61.7628 42.8297 61.353C42.2571 60.9579 41.4723 60.7653 40.3719 60.9907C38.3593 61.4028 37.1868 62.8592 36.7429 64.9559C36.2908 67.0917 36.6389 69.7919 37.6791 72.2859C38.4734 74.1905 39.6378 75.8957 41.0594 77.1037Z" fill="#107F8C"/>
</svg>
