<svg width="64" height="64" viewBox="0 0 64 64" fill="none" xmlns="http://www.w3.org/2000/svg">
<path fill-rule="evenodd" clip-rule="evenodd" d="M56.098 9.5C54.9433 7.5 52.0565 7.5 50.9018 9.5L47.8708 14.75C46.7161 16.75 48.1594 19.25 50.4688 19.25H56.531C58.8404 19.25 60.2838 16.75 59.1291 14.75L56.098 9.5ZM52.6339 10.5C53.0188 9.83333 53.981 9.83333 54.3659 10.5L57.397 15.75C57.7819 16.4167 57.3008 17.25 56.531 17.25H50.4688C49.699 17.25 49.2179 16.4167 49.6028 15.75L52.6339 10.5Z" fill="#107F8C"/>
<path fill-rule="evenodd" clip-rule="evenodd" d="M34 11C34 9.34315 35.3431 8 37 8H42C43.6569 8 45 9.34315 45 11V16C45 17.6569 43.6569 19 42 19H37C35.3431 19 34 17.6569 34 16V11ZM37 10C36.4477 10 36 10.4477 36 11V16C36 16.5523 36.4477 17 37 17H42C42.5523 17 43 16.5523 43 16V11C43 10.4477 42.5523 10 42 10H37Z" fill="#107F8C"/>
<path d="M7 17C7 16.4477 7.44772 16 8 16H11.6617C14.0781 16 16.1488 17.7281 16.581 20.1056L17.8346 27H29C29.5523 27 30 27.4477 30 28C30 28.5523 29.5523 29 29 29H18.1612L20.4779 44.445C20.6982 45.9136 21.9598 47 23.4447 47H41.9448C43.2977 47 44.4831 46.0945 44.8391 44.7894L47.0352 36.7369C47.1806 36.2041 47.7303 35.8899 48.2631 36.0352C48.7959 36.1806 49.1101 36.7303 48.9648 37.2631L46.7686 45.3156C46.1754 47.4909 44.1996 49 41.9448 49H23.4447C20.9698 49 18.8672 47.1893 18.5001 44.7417L16.0134 28.1636L14.6133 20.4633C14.3539 19.0369 13.1116 18 11.6617 18H8C7.44772 18 7 17.5523 7 17Z" fill="#107F8C"/>
<path fill-rule="evenodd" clip-rule="evenodd" d="M40 56C40 53.7909 41.7909 52 44 52C46.2091 52 48 53.7909 48 56C48 58.2091 46.2091 60 44 60C41.7909 60 40 58.2091 40 56ZM44 54C42.8954 54 42 54.8954 42 56C42 57.1046 42.8954 58 44 58C45.1046 58 46 57.1046 46 56C46 54.8954 45.1046 54 44 54Z" fill="#107F8C"/>
<path fill-rule="evenodd" clip-rule="evenodd" d="M21 52C18.7909 52 17 53.7909 17 56C17 58.2091 18.7909 60 21 60C23.2091 60 25 58.2091 25 56C25 53.7909 23.2091 52 21 52ZM19 56C19 54.8954 19.8954 54 21 54C22.1046 54 23 54.8954 23 56C23 57.1046 22.1046 58 21 58C19.8954 58 19 57.1046 19 56Z" fill="#107F8C"/>
<path fill-rule="evenodd" clip-rule="evenodd" d="M48 27.5C48 24.4624 50.4624 22 53.5 22C56.5376 22 59 24.4624 59 27.5C59 30.5376 56.5376 33 53.5 33C50.4624 33 48 30.5376 48 27.5ZM53.5 24C51.567 24 50 25.567 50 27.5C50 29.433 51.567 31 53.5 31C55.433 31 57 29.433 57 27.5C57 25.567 55.433 24 53.5 24Z" fill="#107F8C"/>
<path fill-rule="evenodd" clip-rule="evenodd" d="M42.1691 23.019C41.3333 20.4272 37.6663 20.4272 36.8305 23.019C36.7231 23.3521 36.4128 23.5775 36.0628 23.5767C33.3396 23.5708 32.2065 27.0582 34.4131 28.6541C34.6966 28.8592 34.8152 29.2239 34.7063 29.5565C33.8591 32.1446 36.8257 34.3 39.0254 32.6945C39.308 32.4882 39.6916 32.4882 39.9742 32.6945C42.1739 34.3 45.1405 32.1446 44.2933 29.5565C44.1844 29.2239 44.3029 28.8592 44.5865 28.6541C46.7931 27.0582 45.66 23.5708 42.9367 23.5767C42.5868 23.5775 42.2765 23.3521 42.1691 23.019ZM38.7339 23.6329C38.9737 22.8893 40.0258 22.8893 40.2657 23.6329C40.64 24.7936 41.7215 25.5794 42.9411 25.5767C43.7224 25.575 44.0476 26.5756 43.4144 27.0335C42.4262 27.7482 42.0131 29.0196 42.3925 30.1787C42.6356 30.9213 41.7844 31.5397 41.1533 31.079C40.1682 30.36 38.8314 30.36 37.8463 31.079C37.2152 31.5397 36.364 30.9213 36.6071 30.1787C36.9865 29.0196 36.5734 27.7482 35.5851 27.0335C34.952 26.5756 35.2771 25.575 36.0585 25.5767C37.2781 25.5794 38.3596 24.7936 38.7339 23.6329Z" fill="#107F8C"/>
</svg>
