<svg xmlns="http://www.w3.org/2000/svg" width="64" height="64" fill="none" viewBox="0 0 64 64">
    <path fill-rule="evenodd" d="M48.981 4.343a5.999 5.999 0 0 0-1.091-.941 3.1 3.1 0 0 0-.08-.712c-.134-.561-.507-1.29-1.38-1.558-.625-.192-1.291-.142-1.772-.055a4.884 4.884 0 0 0-.682.174 2.278 2.278 0 0 0-.576.274 2.38 2.38 0 0 0-.894 1.409c-.075.358-.07.723-.01 1.083a3.545 3.545 0 0 0-.384.87c-.27-.412-.55-.829-.805-1.208l-.334-.496c-.32-.476-.557-.826-.64-.963-.398-.645-1.184-.854-1.843-.7-.73.172-1.308.746-1.63 1.584-.28.726-.606 2.14-.724 3.804-.12 1.672-.034 3.686.581 5.582.592 1.825 1.294 2.91 2.063 3.59.615.545 1.275.8 1.64.94.075.03.139.055.186.076a3.81 3.81 0 0 0 1.805.312 2.578 2.578 0 0 0-.028.838c.064.502.264.989.547 1.472a1 1 0 0 0 .559.447c.414.133.782.284 1.009.384a4.052 4.052 0 0 0-.344.7c-.272.725-.35 1.648.17 2.468.25.394.61.66.932.845.329.187.69.33 1.017.442.273.094.554.177.797.25l.138.04.243.075c.14.306.335.582.63.77.238.151.466.197.622.213.06.006.12.008.143.01h.012a.995.995 0 0 0 .246 0h.012c.024-.002.083-.004.143-.01.156-.017.385-.062.622-.213.295-.188.49-.464.63-.77l.243-.074.138-.042c.243-.072.524-.155.797-.25a6 6 0 0 0 1.017-.441c.321-.184.683-.45.933-.845.519-.82.44-1.743.17-2.468a4.06 4.06 0 0 0-.345-.7c.227-.1.595-.25 1.01-.384a1 1 0 0 0 .558-.447c.283-.483.483-.97.547-1.472a2.58 2.58 0 0 0-.028-.838 3.81 3.81 0 0 0 1.805-.312c.047-.021.11-.046.186-.075.365-.141 1.025-.396 1.64-.94.769-.68 1.471-1.766 2.063-3.59.615-1.897.7-3.911.581-5.583-.118-1.664-.445-3.078-.724-3.804-.322-.838-.9-1.412-1.63-1.583-.659-.155-1.445.054-1.842.7-.084.136-.32.486-.64.961l-.004.005-.33.492c-.256.38-.535.796-.806 1.208a3.55 3.55 0 0 0-.385-.87c.06-.36.066-.725-.009-1.084a2.379 2.379 0 0 0-.894-1.408 2.279 2.279 0 0 0-.576-.274 4.883 4.883 0 0 0-.682-.174c-.48-.087-1.147-.137-1.773.055-.872.269-1.245.997-1.378 1.558-.057.238-.08.481-.08.712-.416.279-.78.598-1.092.94zM45.863 3.15a.457.457 0 0 0-.04-.113c-.187-.051-.48-.052-.809.007a2.888 2.888 0 0 0-.459.122.35.35 0 0 0-.092.177c-.021.103-.025.294.07.616a1 1 0 0 1-.23.97 1.345 1.345 0 0 0-.28.546 1.36 1.36 0 0 0-.047.28.517.517 0 0 0 0 .063c.035.12.065.262.087.36l.013.062c.017.077.033.142.049.198a2.333 2.333 0 0 1 .895-.509c.378-.094.7.022.9.141.19.114.327.261.416.372.18.225.32.498.418.734.104.247.19.516.248.768.05.223.104.539.064.838l-.017.136c-.025.21-.065.544-.127.825a2.62 2.62 0 0 1-.22.636c-.104.197-.347.572-.833.704a1.149 1.149 0 0 1-.681-.032c-.123-.043-.23-.1-.31-.146a4.378 4.378 0 0 1-.499-.353c-.333-.266-.732-.63-1.133-1.028-.789-.78-1.69-1.79-2.175-2.561a89.992 89.992 0 0 0-1.424-2.17l-.303-.449-.505-.752a1.24 1.24 0 0 0-.112.229c-.19.493-.488 1.703-.596 3.228-.108 1.515-.021 3.251.489 4.823.524 1.616 1.071 2.343 1.485 2.71.323.285.574.385.912.519.12.047.252.1.401.166.404.18 1.332.409 3.228-.752a1 1 0 0 1 1.2 1.589c-.405.373-.721.666-.97.933-.248.267-.38.457-.45.605a.593.593 0 0 0-.059.351c.012.095.047.225.126.4.347.126.65.252.863.348a2.81 2.81 0 0 0 .479-.074l.005-.013c.033-.094.097-.274.158-.404.081-.173.266-.52.661-.725.445-.23.896-.157 1.232-.02a1 1 0 0 1 .583 1.2 3.133 3.133 0 0 1-.46 1.006c-.267.384-.662.782-1.256 1.253a2.398 2.398 0 0 0-.731.985c-.135.361-.089.579-.014.697.006.008.057.076.235.178.172.098.398.192.675.288.23.079.462.148.705.22l.153.046c.275.082.592.179.853.294a1 1 0 0 1 .347.254c.095-.108.213-.195.347-.254.261-.115.578-.212.853-.294l.153-.046c.242-.072.475-.141.705-.22.277-.096.503-.19.675-.288.178-.102.23-.17.235-.178.075-.118.121-.336-.014-.697a2.4 2.4 0 0 0-.731-.985c-.594-.47-.99-.869-1.257-1.253a3.132 3.132 0 0 1-.459-1.006 1 1 0 0 1 .583-1.2c.336-.137.787-.21 1.232.02.395.205.58.552.66.725.062.13.126.31.16.404l.004.013c.032.009.07.017.112.026.13.026.262.042.367.048.214-.096.516-.222.863-.347.08-.176.114-.306.126-.4a.593.593 0 0 0-.06-.352c-.068-.148-.201-.338-.45-.605-.248-.267-.564-.56-.969-.933a1 1 0 0 1 1.2-1.589c1.896 1.16 2.824.932 3.228.752.15-.067.28-.119.401-.166.338-.134.59-.234.912-.52.414-.366.962-1.093 1.486-2.709.51-1.572.596-3.308.488-4.823-.108-1.525-.406-2.735-.596-3.228a1.233 1.233 0 0 0-.112-.23c-.134.202-.31.462-.505.752v.001c-.097.144-.2.295-.303.45a90.004 90.004 0 0 0-1.424 2.169c-.484.77-1.386 1.78-2.175 2.561-.4.397-.8.762-1.133 1.028-.163.13-.336.257-.499.353-.08.046-.187.103-.31.146a1.15 1.15 0 0 1-.68.032c-.487-.132-.73-.507-.833-.704a2.615 2.615 0 0 1-.22-.636 8.656 8.656 0 0 1-.128-.825l-.017-.136c-.04-.3.014-.615.064-.838.057-.252.144-.52.248-.768.099-.236.237-.509.418-.734.089-.111.225-.258.416-.372a1.188 1.188 0 0 1 .961-.123c.361.114.644.321.834.491a3.59 3.59 0 0 0 .05-.198l.013-.062c.02-.098.052-.24.087-.36v-.064a1.366 1.366 0 0 0-.049-.279 1.346 1.346 0 0 0-.279-.546 1 1 0 0 1-.23-.97c.095-.322.091-.513.07-.616a.35.35 0 0 0-.092-.177 2.895 2.895 0 0 0-.459-.122c-.328-.06-.622-.058-.81-.007a.457.457 0 0 0-.04.113 1.15 1.15 0 0 0-.025.291c.003.108.019.188.028.223a1 1 0 0 1-.505 1.156 3.94 3.94 0 0 0-1.72 1.714.997.997 0 0 1-1.204.504.997.997 0 0 1-.586-.504 3.94 3.94 0 0 0-1.72-1.714 1 1 0 0 1-.505-1.156c.01-.035.025-.115.028-.223a1.15 1.15 0 0 0-.026-.291z" clip-rule="evenodd" fill="#107F8C"/>
    <path d="M15 48.364C15 49.829 16.174 51 17.6 51H20a1 1 0 1 1 0 2h-2.4c-2.55 0-4.6-2.085-4.6-4.636V15.636C13 13.086 15.05 11 17.6 11H32a1 1 0 1 1 0 2H17.6c-1.427 0-2.6 1.17-2.6 2.636v32.728zM51 33.945a1 1 0 1 1-2 0V30.75a1 1 0 1 1 2 0v3.195zM29.595 48.96a1 1 0 0 0-1.41-1.42l-3.64 3.614a1 1 0 0 0 .559 1.7l2.517.372.988 2.404a1 1 0 0 0 1.789.124l2.716-4.656a1 1 0 1 0-1.728-1.008l-1.696 2.908-.435-1.058a1 1 0 0 0-.779-.61l-1.105-.163 2.224-2.207zM44.9 47.545a1 1 0 0 0 .005 1.415l2.224 2.207-1.105.164a1 1 0 0 0-.779.609l-.435 1.058-1.696-2.908a1 1 0 1 0-1.728 1.008l2.716 4.656a1 1 0 0 0 1.789-.124l.988-2.404 2.517-.373a1 1 0 0 0 .559-1.699l-3.64-3.614a1 1 0 0 0-1.415.005z" fill="#107F8C"/>
    <path fill-rule="evenodd" d="M37.75 29.384a1 1 0 0 0-1 0l-1.857 1.07H32.75a1 1 0 0 0-.867.501l-1.07 1.857-1.858 1.073a1 1 0 0 0-.5.866v2.141l-1.07 1.857a1 1 0 0 0 0 1l1.07 1.856v2.144a1 1 0 0 0 .501.867l1.857 1.07 1.07 1.856a1 1 0 0 0 .867.5h2.144l1.857 1.074a1 1 0 0 0 1 0l1.857-1.073h2.142a1 1 0 0 0 .865-.5l1.074-1.856 1.857-1.071a1 1 0 0 0 .5-.867v-2.144l1.071-1.857a1 1 0 0 0 0-.999l-1.07-1.857v-2.141a1 1 0 0 0-.5-.866l-1.858-1.074-1.074-1.857a1 1 0 0 0-.865-.5h-2.142l-1.857-1.07zm-2.09 2.937l1.59-.917 1.59.917a1 1 0 0 0 .499.134h1.833l.919 1.589a1 1 0 0 0 .365.365l1.59.919v1.832a1 1 0 0 0 .133.5l.916 1.589-.916 1.588a1 1 0 0 0-.134.5v1.835l-1.588.916a1 1 0 0 0-.367.365l-.918 1.59h-1.833a1 1 0 0 0-.5.134l-1.589.918-1.588-.918a1 1 0 0 0-.5-.134h-1.836l-.916-1.589a1 1 0 0 0-.367-.366l-1.588-.916v-1.835a1 1 0 0 0-.134-.5l-.917-1.588.917-1.59a1 1 0 0 0 .134-.499v-1.832l1.59-.919a1 1 0 0 0 .365-.366l.916-1.588h1.835a1 1 0 0 0 .5-.134z" clip-rule="evenodd" fill="#107F8C"/>
</svg>
