<svg xmlns="http://www.w3.org/2000/svg" width="64" height="64" fill="none" viewBox="0 0 64 64">
    <path d="M15 48.364C15 49.829 16.174 51 17.6 51H20a1 1 0 1 1 0 2h-2.4c-2.55 0-4.6-2.085-4.6-4.636V15.636C13 13.086 15.05 11 17.6 11h28.8c2.55 0 4.6 2.085 4.6 4.636v18.309a1 1 0 1 1-2 0V15.636C49 14.171 47.827 13 46.4 13H17.6c-1.427 0-2.6 1.17-2.6 2.636v32.728z" fill="#107F8C"/>
    <path d="M29.595 48.96a1 1 0 0 0-1.41-1.42l-3.64 3.614a1 1 0 0 0 .559 1.7l2.517.372.988 2.404a1 1 0 0 0 1.789.124l2.716-4.656a1 1 0 1 0-1.728-1.008l-1.696 2.908-.435-1.058a1 1 0 0 0-.779-.61l-1.105-.163 2.224-2.207zM44.9 47.545a1 1 0 0 0 .005 1.415l2.224 2.207-1.105.164a1 1 0 0 0-.779.609l-.435 1.058-1.696-2.908a1 1 0 1 0-1.728 1.008l2.716 4.656a1 1 0 0 0 1.789-.124l.988-2.404 2.517-.373a1 1 0 0 0 .559-1.699l-3.64-3.614a1 1 0 0 0-1.415.005z" fill="#107F8C"/>
    <path fill-rule="evenodd" d="M37.75 29.384a1 1 0 0 0-1 0l-1.857 1.07H32.75a1 1 0 0 0-.867.501l-1.07 1.857-1.858 1.073a1 1 0 0 0-.5.866v2.141l-1.07 1.857a1 1 0 0 0 0 1l1.07 1.856v2.144a1 1 0 0 0 .501.867l1.857 1.07 1.07 1.856a1 1 0 0 0 .867.5h2.144l1.857 1.074a1 1 0 0 0 1 0l1.857-1.073h2.142a1 1 0 0 0 .865-.5l1.074-1.856 1.857-1.071a1 1 0 0 0 .5-.867v-2.144l1.071-1.857a1 1 0 0 0 0-.999l-1.07-1.857v-2.141a1 1 0 0 0-.5-.866l-1.858-1.074-1.074-1.857a1 1 0 0 0-.865-.5h-2.142l-1.857-1.07zm-2.09 2.937l1.59-.917 1.59.917a1 1 0 0 0 .499.134h1.833l.919 1.589a1 1 0 0 0 .365.365l1.59.919v1.832a1 1 0 0 0 .133.5l.916 1.589-.916 1.588a1 1 0 0 0-.134.5v1.835l-1.588.916a1 1 0 0 0-.367.365l-.918 1.59h-1.833a1 1 0 0 0-.5.134l-1.589.918-1.588-.918a1 1 0 0 0-.5-.134h-1.836l-.916-1.589a1 1 0 0 0-.367-.366l-1.588-.916v-1.835a1 1 0 0 0-.134-.5l-.917-1.588.917-1.59a1 1 0 0 0 .134-.499v-1.832l1.59-.919a1 1 0 0 0 .365-.366l.916-1.588h1.835a1 1 0 0 0 .5-.134z" clip-rule="evenodd" fill="#107F8C"/>
</svg>
