<svg width="128" height="128" viewBox="0 0 128 128" fill="none" xmlns="http://www.w3.org/2000/svg">
<path d="M87.6001 16C87.6001 15.4477 87.1524 15 86.6001 15C86.0478 15 85.6001 15.4477 85.6001 16V19.8C85.6001 19.8685 85.607 19.9355 85.6201 20.0001C83.2041 20.0115 80.4797 20.7159 78.5381 22.252C77.5471 23.036 76.7424 24.0526 76.3196 25.3153C75.8953 26.5828 75.8806 28.0247 76.3529 29.6123C76.8978 31.4436 78.5041 32.6423 80.2534 33.5278C81.8189 34.3203 83.712 34.9637 85.5331 35.5826C85.7712 35.6636 86.0081 35.7441 86.2429 35.8245C88.3247 36.5372 90.2472 37.2409 91.683 38.1422C93.1072 39.0362 93.871 40.0081 93.9707 41.2089C94.0935 42.6876 93.8202 43.8025 93.3459 44.6556C92.8685 45.5141 92.151 46.1726 91.2873 46.6738C89.5312 47.6926 87.2724 48 85.6795 48C81.5123 48 79.0348 47.0617 77.8185 45.538C77.4739 45.1064 76.8447 45.0358 76.4131 45.3804C75.9814 45.725 75.9109 46.3542 76.2554 46.7858C78.0517 49.0359 81.3142 49.9913 85.6202 49.9999C85.607 50.0646 85.6001 50.1316 85.6001 50.2002V54.0002C85.6001 54.5525 86.0478 55.0002 86.6001 55.0002C87.1524 55.0002 87.6001 54.5525 87.6001 54.0002V50.2002C87.6001 50.0904 87.5824 49.9847 87.5497 49.8859C89.0578 49.7041 90.7868 49.2764 92.291 48.4037C93.3976 47.7616 94.4062 46.8643 95.0938 45.6275C95.7845 44.3854 96.1151 42.8656 95.9639 41.0435C95.7895 38.9435 94.4204 37.4992 92.7464 36.4483C91.0841 35.4048 88.9433 34.635 86.8907 33.9323C86.6517 33.8505 86.4139 33.7696 86.1777 33.6892C84.3335 33.0617 82.5866 32.4673 81.1568 31.7434C79.523 30.9164 78.5689 30.0471 78.2699 29.042C77.8983 27.7932 77.9397 26.776 78.2162 25.9503C78.4942 25.1198 79.035 24.4092 79.779 23.8205C81.2915 22.6239 83.5662 22 85.6795 22C89.0133 22 91.1019 22.9289 92.2678 24.5303C92.5929 24.9768 93.2184 25.0752 93.6648 24.7501C94.1113 24.4251 94.2097 23.7996 93.8847 23.3531C92.4947 21.4441 90.3249 20.407 87.5546 20.099C87.5842 20.0046 87.6001 19.9041 87.6001 19.8V16Z" fill="#107F8C"/>
<path d="M44 39C43.4477 39 43 39.4477 43 40C43 40.5523 43.4477 41 44 41H62C62.5523 41 63 40.5523 63 40C63 39.4477 62.5523 39 62 39H44Z" fill="#107F8C"/>
<path d="M43 52C43 51.4477 43.4477 51 44 51H62C62.5523 51 63 51.4477 63 52C63 52.5523 62.5523 53 62 53H44C43.4477 53 43 52.5523 43 52Z" fill="#107F8C"/>
<path d="M44 63C43.4477 63 43 63.4477 43 64C43 64.5523 43.4477 65 44 65H82C82.5523 65 83 64.5523 83 64C83 63.4477 82.5523 63 82 63H44Z" fill="#107F8C"/>
<path d="M69 76C69 75.4477 69.4477 75 70 75H82C82.5523 75 83 75.4477 83 76C83 76.5523 82.5523 77 82 77H70C69.4477 77 69 76.5523 69 76Z" fill="#107F8C"/>
<path d="M70 87C69.4477 87 69 87.4477 69 88C69 88.5523 69.4477 89 70 89H82C82.5523 89 83 88.5523 83 88C83 87.4477 82.5523 87 82 87H70Z" fill="#107F8C"/>
<path fill-rule="evenodd" clip-rule="evenodd" d="M37 29C34.2386 29 32 31.2386 32 34V71C32 72.1046 32.8954 73 34 73H57C60.866 73 64 76.134 64 80V97C64 98.1046 64.8954 99 66 99H89C91.7614 99 94 96.7614 94 94V64C94 63.4477 94.4477 63 95 63C95.5523 63 96 63.4477 96 64V94C96 97.866 92.866 101 89 101H65.1302C63.5225 101 61.9639 100.447 60.7161 99.4328L32.5859 76.577C30.9499 75.2477 30 73.2521 30 71.1442V34C30 30.134 33.134 27 37 27H63C63.5523 27 64 27.4477 64 28C64 28.5523 63.5523 29 63 29H37ZM33.8115 74.9956C33.8233 75.0054 33.8352 75.0151 33.847 75.0247L61.9773 97.8806C62.0259 97.9201 62.0751 97.9586 62.125 97.9961C62.0434 97.6776 62 97.3439 62 97V80C62 77.2386 59.7614 75 57 75H34C33.9368 75 33.874 74.9985 33.8115 74.9956Z" fill="#107F8C"/>
</svg>
