<svg width="64" height="64" fill="none" xmlns="http://www.w3.org/2000/svg"><path d="M11 32c0-11.579 9.422-21 21-21s21 9.421 21 21a1 1 0 002 0C55 19.317 44.683 9 32 9S9 19.317 9 32c0 12.684 10.317 23 23 23a1 1 0 100-2c-11.578 0-21-9.421-21-21z" fill="#107F8C"/><path fill-rule="evenodd" clip-rule="evenodd" d="M28 22a1 1 0 00-1 1v8h-1a1 1 0 100 2h1v3h-1a1 1 0 100 2h1v3a1 1 0 102 0v-3h3a1 1 0 100-2h-3v-3h5.316c2.068 0 3.535-.703 4.47-1.79.907-1.054 1.214-2.356 1.214-3.409V27.5c0-.985-.197-2.358-1.053-3.506-.896-1.202-2.39-1.994-4.63-1.994H28zm1 2v7h5.316c1.583 0 2.458-.518 2.953-1.094.521-.605.731-1.403.731-2.105V27.5c0-.77-.162-1.647-.657-2.31-.454-.61-1.302-1.19-3.027-1.19H29zM40 42a4 4 0 118 0 4 4 0 01-8 0zm4-2a2 2 0 100 4 2 2 0 000-4zM52 55a4 4 0 118 0 4 4 0 01-8 0zm4-2a2 2 0 100 4 2 2 0 000-4z" fill="#107F8C"/><path d="M58.707 41.707a1 1 0 00-1.414-1.414l-15 15a1 1 0 001.414 1.414l15-15z" fill="#107F8C"/></svg>