<svg width="48" height="48" viewBox="0 0 48 48" fill="none" xmlns="http://www.w3.org/2000/svg">
<path d="M30.045 41.2279C30.1138 41.1394 30.2046 41.0686 30.3115 41.035C38.8255 38.3555 45 30.3988 45 21C45 9.40202 35.598 0 24 0C12.402 0 3 9.40202 3 21C3 30.3988 9.1745 38.3555 17.6885 41.035C17.7954 41.0686 17.8862 41.1394 17.955 41.2279L22.4213 46.9702C23.222 47.9997 24.778 47.9997 25.5787 46.9702L30.045 41.2279Z" fill="#005E7F"/>
<path fill-rule="evenodd" clip-rule="evenodd" d="M25.5787 46.9702L30.045 41.2279C30.1138 41.1394 30.2046 41.0686 30.3115 41.035C38.8255 38.3555 45 30.3988 45 21C45 9.40202 35.598 0 24 0C12.402 0 3 9.40202 3 21C3 30.3988 9.1745 38.3555 17.6885 41.035C17.7954 41.0686 17.8862 41.1394 17.955 41.2279L22.4213 46.9702C22.5214 47.0989 22.6333 47.2115 22.754 47.308C23.5992 47.9836 24.8781 47.871 25.5787 46.9702ZM43 21C43 29.5007 37.4161 36.7023 29.7111 39.1272C29.6757 39.1384 29.6409 39.1502 29.6067 39.1626C29.0939 39.3493 28.7171 39.6775 28.4663 40C28.4663 40 28.4663 40 28.4663 40L24 45.7424L19.5337 40C19.2662 39.656 18.8553 39.3055 18.2889 39.1272C17.3258 38.8241 16.3958 38.4464 15.5057 38.0008C9.2752 34.8816 5 28.4381 5 21C5 10.5066 13.5066 2 24 2C34.4934 2 43 10.5066 43 21Z" fill="white"/>
<path d="M35.8086 18.8508C35.9368 19.56 36.0008 20.2794 36 21.0002C35.9999 23.7219 35.0747 26.3626 33.3762 28.4892C31.6776 30.6157 29.3066 32.1017 26.6523 32.7032C23.998 33.3048 21.218 32.9861 18.7686 31.7997C16.3193 30.6132 14.346 28.6293 13.1726 26.1736C11.9992 23.7179 11.6954 20.9363 12.3111 18.2852C12.9268 15.6342 14.4254 13.2712 16.561 11.584C18.6966 9.8968 21.3423 8.98569 24.0638 9.00017C26.7854 9.01465 29.4213 9.95386 31.5388 11.6637L29.2041 13.3845C27.5006 12.2204 25.4564 11.6603 23.3975 11.7935C21.3386 11.9267 19.3836 12.7456 17.8443 14.1195C16.3051 15.4935 15.2703 17.3433 14.905 19.3739C14.5398 21.4045 14.865 23.499 15.829 25.3232C16.7929 27.1474 18.34 28.5963 20.2234 29.4387C22.1068 30.2811 24.2181 30.4684 26.2205 29.9709C28.2228 29.4735 30.0009 28.3197 31.271 26.6938C32.5412 25.0679 33.2303 23.0635 33.2284 21.0002V20.7547L35.8086 18.8508Z" fill="white"/>
<path d="M34.9347 16.05C34.5501 15.2017 34.0675 14.4014 33.4968 13.6654L24.0021 20.6548L19.4348 17.7999V21.2437L24.0021 24.1069L34.9347 16.05Z" fill="white"/>
</svg>
