<svg width="64" height="64" viewBox="0 0 64 64" fill="none" xmlns="http://www.w3.org/2000/svg">
<path d="M32.6245 19V22.0726C34.2267 22.3005 35.5049 23.07 36.3036 24.4631C36.5783 24.9422 36.4125 25.5533 35.9334 25.828C35.4543 26.1027 34.8432 25.937 34.5685 25.4578C34.0392 24.5347 33.1273 24 31.5544 24C30.5815 24 29.5334 24.3669 28.8412 25.0625C28.1939 25.7128 27.766 26.739 28.1367 28.3214C28.2732 28.9038 28.6972 29.4069 29.4848 29.9133C30.1966 30.3709 31.0701 30.7485 32.0447 31.17C32.1678 31.2232 32.2926 31.2771 32.4188 31.332C33.4918 31.7985 34.6765 32.3358 35.6073 33.0778C36.5718 33.8468 37.331 34.8898 37.4263 36.3476C37.59 38.8526 36.6892 40.5074 35.3538 41.4914C34.4824 42.1335 33.4875 42.4453 32.6245 42.5773V44.2495C32.6245 44.8018 32.1768 45.2495 31.6245 45.2495C31.0722 45.2495 30.6245 44.8018 30.6245 44.2495V42.6233C28.6633 42.4615 27.0875 41.7567 26.1724 40.301C25.8785 39.8335 26.0193 39.2161 26.4869 38.9222C26.9544 38.6283 27.5718 38.7691 27.8657 39.2367C28.3954 40.0793 29.484 40.6602 31.5544 40.6602C32.314 40.6602 33.3665 40.4715 34.1674 39.8813C34.9 39.3415 35.5544 38.3727 35.4305 36.4781C35.382 35.7361 35.0219 35.1689 34.3606 34.6417C33.6655 34.0876 32.718 33.6429 31.6213 33.1661C31.5026 33.1145 31.3819 33.0625 31.2597 33.0098L31.2533 33.007L31.2512 33.0061C30.301 32.5962 29.2636 32.1487 28.4032 31.5956C27.4155 30.9606 26.4959 30.0856 26.1894 28.7776C25.6745 26.5795 26.2499 24.8309 27.4236 23.6516C28.3094 22.7616 29.4796 22.2513 30.6245 22.0729V19C30.6245 18.4477 31.0722 18 31.6245 18C32.1768 18 32.6245 18.4477 32.6245 19Z" fill="#107F8C"/>
<path fill-rule="evenodd" clip-rule="evenodd" d="M32.2941 8.04422C32.1025 7.98526 31.8975 7.98526 31.7059 8.04422L12.7059 13.89C12.2863 14.0192 12 14.4068 12 14.8458V26.2021C12 36.4105 17.1277 46.011 25.6894 51.895L31.4354 55.8254C31.7758 56.0582 32.2242 56.0582 32.5646 55.8254L38.3077 51.897C46.8736 46.0595 52 36.4567 52 26.2021V14.8458C52 14.4068 51.7137 14.0192 51.2941 13.89L32.2941 8.04422ZM14 26.2021V15.5844L32 10.0463L50 15.5844V26.2021C50 35.7848 45.2093 44.7736 37.1811 50.2445L32 53.7884L26.8222 50.2467C18.7897 44.7265 14 35.7354 14 26.2021Z" fill="#107F8C"/>
</svg>
