<svg width="64" height="64" viewBox="0 0 64 64" fill="none" xmlns="http://www.w3.org/2000/svg">
<path fill-rule="evenodd" clip-rule="evenodd" d="M32 11C20.4217 11 11 20.4211 11 31.9996C11 43.5789 20.4218 53 32 53C43.5782 53 53 43.5789 53 31.9996C53 20.4211 43.5783 11 32 11ZM9 31.9996C9 19.3165 19.3172 9 32 9C44.6828 9 55 19.3165 55 31.9996C55 44.6835 44.6828 55 32 55C19.3172 55 9 44.6835 9 31.9996Z" fill="#107F8C"/>
<path fill-rule="evenodd" clip-rule="evenodd" d="M26.9998 36.0001V33H26.0002C25.448 33 25.0002 32.5523 25.0002 32C25.0002 31.4477 25.448 31 26.0002 31H26.9998V23C26.9998 22.4477 27.4475 22 27.9998 22H34.3165C36.557 22 38.051 22.7923 38.9471 23.9943C39.8032 25.1425 40.0002 26.5147 40.0002 27.5V27.8013C40.0002 28.8541 39.6933 30.1559 38.7853 31.2109C37.8511 32.2965 36.3844 33 34.3165 33H28.9998V36.0001H32C32.5523 36.0001 33 36.4478 33 37.0001C33 37.5523 32.5523 38.0001 32 38.0001H28.9998V41C28.9998 41.5523 28.552 42 27.9998 42C27.4475 42 26.9998 41.5523 26.9998 41V38.0001H26C25.4477 38.0001 25 37.5523 25 37.0001C25 36.4478 25.4477 36.0001 26 36.0001H26.9998ZM28.9998 31V24H34.3165C36.0415 24 36.8894 24.5804 37.3437 25.1898C37.8382 25.8529 38.0002 26.7307 38.0002 27.5V27.8013C38.0002 28.5032 37.7907 29.3006 37.2694 29.9063C36.7744 30.4815 35.8994 31 34.3165 31H28.9998Z" fill="#107F8C"/>
</svg>
