<svg width="32" height="32" viewBox="0 0 32 32" fill="none" xmlns="http://www.w3.org/2000/svg">
<path d="M20.3406 25.4192C20.4549 25.2722 20.6086 25.1609 20.7817 25.0924C25.5953 23.1873 29 18.4913 29 13C29 5.8203 23.1797 0 16 0C8.8203 0 3 5.8203 3 13C3 18.4913 6.4047 23.1873 11.2183 25.0924C11.3914 25.1609 11.5451 25.2722 11.6594 25.4192L15.2106 29.9851C15.611 30.4999 16.389 30.4999 16.7894 29.9851L20.3406 25.4192Z" fill="#107F8C"/>
<path fill-rule="evenodd" clip-rule="evenodd" d="M20.0457 23.2327C24.1223 21.6194 27 17.6433 27 13C27 6.92487 22.0751 2 16 2C9.92487 2 5 6.92487 5 13C5 17.6433 7.87771 21.6194 11.9543 23.2327C12.4379 23.4241 12.8904 23.7442 13.2381 24.1913L16 27.7424L18.7619 24.1913C19.1096 23.7443 19.5621 23.4241 20.0457 23.2327ZM20.7817 25.0924C20.6086 25.1609 20.4549 25.2722 20.3406 25.4192L16.7894 29.9851C16.389 30.4999 15.611 30.4999 15.2106 29.9851L11.6594 25.4192C11.5451 25.2722 11.3914 25.1609 11.2183 25.0924C6.4047 23.1873 3 18.4913 3 13C3 5.8203 8.8203 0 16 0C23.1797 0 29 5.8203 29 13C29 18.4913 25.5953 23.1873 20.7817 25.0924Z" fill="white"/>
<path d="M22.8883 11.7463C22.9631 12.16 23.0005 12.5797 23 13.0001C23 14.5877 22.4603 16.1282 21.4694 17.3687C20.4786 18.6091 19.0955 19.476 17.5472 19.8269C15.9988 20.1778 14.3772 19.9919 12.9484 19.2998C11.5196 18.6077 10.3685 17.4504 9.684 16.0179C8.99952 14.5855 8.82232 12.9628 9.18149 11.4164C9.54065 9.86994 10.4148 8.49151 11.6606 7.50732C12.9063 6.52313 14.4496 5.99165 16.0372 6.0001C17.6248 6.00855 19.1624 6.55642 20.3976 7.5538L19.0357 8.55762C18.042 7.87855 16.8496 7.55182 15.6485 7.62953C14.4475 7.70725 13.3071 8.18493 12.4092 8.98639C11.5113 9.78785 10.9077 10.8669 10.6946 12.0514C10.4815 13.236 10.6713 14.4578 11.2336 15.5219C11.7959 16.586 12.6983 17.4312 13.797 17.9226C14.8957 18.4139 16.1272 18.5233 17.2953 18.2331C18.4633 17.9428 19.5005 17.2698 20.2414 16.3214C20.9824 15.3729 21.3843 14.2037 21.3832 13.0001V12.8569L22.8883 11.7463Z" fill="white"/>
<path d="M22.3786 10.1125C22.1542 9.61767 21.8727 9.15082 21.5398 8.72148L16.0012 12.7986L13.337 11.1333V13.1421L16.0012 14.8123L22.3786 10.1125Z" fill="white"/>
</svg>
