<svg width="64" height="64" viewBox="0 0 64 64" fill="none" xmlns="http://www.w3.org/2000/svg">
<circle cx="32" cy="32" r="32" fill="#B2B8BF"/>
<path fill-rule="evenodd" clip-rule="evenodd" d="M29.3982 16C25.0124 16 21.2288 19.3647 20.2427 24.0095C20.361 24.0032 20.4801 24 20.6 24C22.4778 24 24 25.5222 24 27.4V35.6C24 37.4778 22.4778 39 20.6 39C16.9549 39 14 36.0451 14 32.4V30.6C14 27.828 15.7089 25.4551 18.1307 24.4775C18.9774 18.605 23.6332 14 29.3982 14H34.6008C40.3656 14 45.0213 18.6047 45.8682 24.477C48.2906 25.4544 50 27.8276 50 30.6V32.4C50 35.1291 48.3435 37.4714 45.9811 38.4762C45.8463 41.2411 44.983 43.5799 43.2409 45.2624C41.3489 47.0898 38.5749 47.993 35.0411 48C34.956 48.1552 34.8584 48.303 34.7476 48.4418C34.2077 49.1184 33.4166 49.5 32.5 49.5H31.5C30.5834 49.5 29.7923 49.1184 29.2524 48.4418C28.7311 47.7886 28.5 46.9351 28.5 46.0444C28.5 44.8558 29.4249 44.0187 30.4702 44.0467L33.4155 44.0032C34.4785 43.9422 35.4727 44.7561 35.4994 45.9933C38.4657 45.9127 40.5218 45.1081 41.8515 43.8238C43.0214 42.6939 43.7382 41.087 43.9407 38.9782C43.7623 38.9926 43.582 39 43.4 39C41.5222 39 40 37.4778 40 35.6V27.4C40 25.5222 41.5222 24 43.4 24C43.5195 24 43.6383 24.0032 43.7563 24.0095C42.7701 19.3647 38.9865 16 34.6008 16H29.3982ZM20.6 26C18.0595 26 16 28.0595 16 30.6V32.4C16 34.9405 18.0595 37 20.6 37C21.3732 37 22 36.3732 22 35.6V27.4C22 26.6268 21.3732 26 20.6 26ZM33.4969 46.0022L30.5 46.0464C30.5003 46.6102 30.6478 46.9839 30.8157 47.1944C30.9651 47.3816 31.174 47.5 31.5 47.5H32.5C32.826 47.5 33.0349 47.3816 33.1843 47.1944C33.3524 46.9837 33.5 46.6094 33.5 46.0444C33.5 46.0261 33.4986 46.0122 33.4969 46.0022ZM48 30.6C48 28.0595 45.9405 26 43.4 26C42.6268 26 42 26.6268 42 27.4V35.6C42 36.3732 42.6268 37 43.4 37C45.9405 37 48 34.9405 48 32.4V30.6Z" fill="white"/>
</svg>
