<svg width="64" height="64" viewBox="0 0 64 64" fill="none" xmlns="http://www.w3.org/2000/svg">
<path d="M23 30C23 31.6569 21.6569 33 20 33C18.3431 33 17 31.6569 17 30C17 28.3431 18.3431 27 20 27C21.6569 27 23 28.3431 23 30Z" fill="#107F8C"/>
<path d="M23 42C23 43.6569 21.6569 45 20 45C18.3431 45 17 43.6569 17 42C17 40.3431 18.3431 39 20 39C21.6569 39 23 40.3431 23 42Z" fill="#107F8C"/>
<path d="M32 33C33.6569 33 35 31.6569 35 30C35 28.3431 33.6569 27 32 27C30.3431 27 29 28.3431 29 30C29 31.6569 30.3431 33 32 33Z" fill="#107F8C"/>
<path d="M35 42C35 43.6569 33.6569 45 32 45C30.3431 45 29 43.6569 29 42C29 40.3431 30.3431 39 32 39C33.6569 39 35 40.3431 35 42Z" fill="#107F8C"/>
<path d="M44 33C45.6569 33 47 31.6569 47 30C47 28.3431 45.6569 27 44 27C42.3431 27 41 28.3431 41 30C41 31.6569 42.3431 33 44 33Z" fill="#107F8C"/>
<path d="M47 42C47 43.6569 45.6569 45 44 45C42.3431 45 41 43.6569 41 42C41 40.3431 42.3431 39 44 39C45.6569 39 47 40.3431 47 42Z" fill="#107F8C"/>
<path fill-rule="evenodd" clip-rule="evenodd" d="M23 8.00005C23.5523 8.00005 24 8.44776 24 9.00005V12H39.7402V9.00005C39.7402 8.44776 40.188 8.00005 40.7402 8.00005C41.2925 8.00005 41.7402 8.44776 41.7402 9.00005V12H51C53.7614 12 56 14.2385 56 17V49C56 51.7614 53.7614 54 51 54H13C10.2386 54 8 51.7614 8 49V17C8 14.2385 10.2386 12 13 12H22V9.00005C22 8.44776 22.4477 8.00005 23 8.00005ZM39.7402 14V17.9943C39.7402 18.5466 40.188 18.9943 40.7402 18.9943C41.2925 18.9943 41.7402 18.5466 41.7402 17.9943V14H51C52.6569 14 54 15.3431 54 17V49C54 50.6568 52.6569 52 51 52H13C11.3431 52 10 50.6568 10 49V17C10 15.3431 11.3431 14 13 14H22V17.9943C22 18.5466 22.4477 18.9943 23 18.9943C23.5523 18.9943 24 18.5466 24 17.9943V14H39.7402Z" fill="#107F8C"/>
</svg>
