<svg width="64" height="64" viewBox="0 0 64 64" fill="none" xmlns="http://www.w3.org/2000/svg">
<path d="M54.9964 31.5897C54.7768 19.0954 44.5465 9 32.0004 9C19.3165 9 9 19.3172 9 32C9 44.6828 19.3165 55 32.0004 55C32.5527 55 33.0004 54.5523 33.0004 54C33.0004 53.4477 32.5527 53 32.0004 53C20.4211 53 11 43.5782 11 32C11 20.4218 20.4211 11 32.0004 11C43.439 11 52.7721 20.1955 52.9959 31.5814L50.7071 29.2929C50.3165 28.9024 49.6833 28.9024 49.2929 29.2929C48.9024 29.6835 48.9024 30.3167 49.2929 30.7072L53.2934 34.7072C53.481 34.8947 53.7353 35 54.0005 35C54.2658 35 54.5201 34.8946 54.7076 34.7071L58.7071 30.7071C59.0977 30.3165 59.0976 29.6834 58.7071 29.2929C58.3165 28.9024 57.6833 28.9024 57.2929 29.2929L54.9964 31.5897Z" fill="#107F8C"/>
<path fill-rule="evenodd" clip-rule="evenodd" d="M32 18C32.5523 18 33 18.4477 33 19V31.4458L40.53 36.152C40.9983 36.4447 41.1407 37.0617 40.848 37.53C40.5553 37.9983 39.9383 38.1407 39.47 37.848L31.47 32.848C31.1776 32.6653 31 32.3448 31 32V19C31 18.4477 31.4477 18 32 18Z" fill="#107F8C"/>
</svg>
