<svg width="96.000000" height="96.000000" viewBox="0 0 96 96" fill="none" xmlns="http://www.w3.org/2000/svg" xmlns:xlink="http://www.w3.org/1999/xlink">
	<desc>
			Created with Pixso.
	</desc>
	<defs>
		<filter id="filter_14028_14648_dd" x="16.000000" y="8.000000" width="64.000000" height="43.434387" filterUnits="userSpaceOnUse" color-interpolation-filters="sRGB">
			<feFlood flood-opacity="0" result="BackgroundImageFix"/>
			<feGaussianBlur in="BackgroundImage" stdDeviation="6.66667"/>
			<feComposite in2="SourceAlpha" operator="in" result="effect_backgroundBlur_1"/>
			<feBlend mode="normal" in="SourceGraphic" in2="effect_backgroundBlur_1" result="shape"/>
			<feColorMatrix in="SourceAlpha" type="matrix" values="0 0 0 0 0 0 0 0 0 0 0 0 0 0 0 0 0 0 127 0" result="hardAlpha"/>
			<feOffset dx="0" dy="3"/>
			<feGaussianBlur stdDeviation="0.333333"/>
			<feComposite in2="hardAlpha" operator="arithmetic" k2="-1" k3="1"/>
			<feColorMatrix type="matrix" values="0 0 0 0 1 0 0 0 0 1 0 0 0 0 1 0 0 0 1 0"/>
			<feBlend mode="normal" in2="shape" result="effect_innerShadow_2"/>
		</filter>
		<clipPath id="clip14028_14642">
			<rect id="96/mc_sys_help_96" width="96.000000" height="96.000000" fill="white" fill-opacity="0"/>
		</clipPath>
	</defs>
	<g clip-path="url(#clip14028_14642)">
		<circle id="Oval 112" cx="67.000000" cy="20.000000" r="15.000000" fill="#8291B3" fill-opacity="1.000000"/>
		<path id="Vector 2247" d="M21 55L48 92" stroke="#8291B3" stroke-opacity="1.000000" stroke-width="3.000000" stroke-linecap="round"/>
		<path id="Vector 2247" d="M35 55L48 92" stroke="#8291B3" stroke-opacity="1.000000" stroke-width="3.000000" stroke-linecap="round"/>
		<path id="Vector 2247" d="M75 55L48 92" stroke="#8291B3" stroke-opacity="1.000000" stroke-width="3.000000" stroke-linecap="round"/>
		<path id="Vector 2247" d="M61 55L48 92" stroke="#8291B3" stroke-opacity="1.000000" stroke-width="3.000000" stroke-linecap="round"/>
		<g filter="url(#filter_14028_14648_dd)">
			<path id="Vector 2241" d="M77.36 51.1C78.79 47.58 80 43.76 80 39.77C80 22.24 65.65 8 48 8C30.34 8 16 22.24 16 39.77C16 43.76 17.2 47.58 18.63 51.1C18.78 51.48 19.32 51.54 19.59 51.24C20.62 50.08 23.03 48 27 48C30.93 48 33.33 50.05 34.38 51.21C34.65 51.52 35.23 51.46 35.42 51.09C36.61 48.81 40.44 43 48.41 43.03C55.71 43.03 59.4 48.82 60.57 51.09C60.76 51.46 61.33 51.52 61.61 51.21C62.65 50.05 65.05 48 69 48C72.96 48 75.37 50.08 76.4 51.24C76.67 51.54 77.21 51.48 77.36 51.1Z" fill="#95A3C1" fill-opacity="0.400000" fill-rule="evenodd"/>
		</g>
	</g>
</svg>
