<svg width="84.000000" height="84.000000" viewBox="0 0 84 84" fill="none" xmlns="http://www.w3.org/2000/svg" xmlns:xlink="http://www.w3.org/1999/xlink">
	<desc>
			Created with Pixso.
	</desc>
	<defs>
		<filter id="filter_14038_14266_dd" x="15.000000" y="12.000000" width="16.000000" height="60.000000" filterUnits="userSpaceOnUse" color-interpolation-filters="sRGB">
			<feFlood flood-opacity="0" result="BackgroundImageFix"/>
			<feGaussianBlur in="BackgroundImage" stdDeviation="6.66667"/>
			<feComposite in2="SourceAlpha" operator="in" result="effect_backgroundBlur_1"/>
			<feBlend mode="normal" in="SourceGraphic" in2="effect_backgroundBlur_1" result="shape"/>
			<feColorMatrix in="SourceAlpha" type="matrix" values="0 0 0 0 0 0 0 0 0 0 0 0 0 0 0 0 0 0 127 0" result="hardAlpha"/>
			<feOffset dx="0" dy="3"/>
			<feGaussianBlur stdDeviation="0.333333"/>
			<feComposite in2="hardAlpha" operator="arithmetic" k2="-1" k3="1"/>
			<feColorMatrix type="matrix" values="0 0 0 0 1 0 0 0 0 1 0 0 0 0 1 0 0 0 1 0"/>
			<feBlend mode="normal" in2="shape" result="effect_innerShadow_2"/>
		</filter>
		<filter id="filter_14038_14268_dd" x="25.000000" y="12.000000" width="43.000000" height="60.000000" filterUnits="userSpaceOnUse" color-interpolation-filters="sRGB">
			<feFlood flood-opacity="0" result="BackgroundImageFix"/>
			<feGaussianBlur in="BackgroundImage" stdDeviation="6.66667"/>
			<feComposite in2="SourceAlpha" operator="in" result="effect_backgroundBlur_1"/>
			<feBlend mode="normal" in="SourceGraphic" in2="effect_backgroundBlur_1" result="shape"/>
			<feColorMatrix in="SourceAlpha" type="matrix" values="0 0 0 0 0 0 0 0 0 0 0 0 0 0 0 0 0 0 127 0" result="hardAlpha"/>
			<feOffset dx="0" dy="3"/>
			<feGaussianBlur stdDeviation="0.333333"/>
			<feComposite in2="hardAlpha" operator="arithmetic" k2="-1" k3="1"/>
			<feColorMatrix type="matrix" values="0 0 0 0 1 0 0 0 0 1 0 0 0 0 1 0 0 0 1 0"/>
			<feBlend mode="normal" in2="shape" result="effect_innerShadow_2"/>
		</filter>
		<clipPath id="clip14038_14270">
			<rect id="84/mc_sys_notfound_84" width="84.000000" height="84.000000" fill="white" fill-opacity="0"/>
		</clipPath>
	</defs>
	<g clip-path="url(#clip14038_14270)">
		<g filter="url(#filter_14038_14266_dd)">
			<path id="Rectangle" d="M31 12L21 12C17.68 12 15 14.68 15 18L15 66C15 69.31 17.68 72 21 72L31 72L31 12Z" fill="#95A3C1" fill-opacity="0.400000" fill-rule="evenodd"/>
		</g>
		<rect id="Rectangle" rx="6.000000" width="20.000000" height="50.000000" transform="matrix(-1 0 0 1 40 17)" fill="#8291B3" fill-opacity="1.000000"/>
		<g filter="url(#filter_14038_14268_dd)">
			<path id="Rectangle" d="M62 12L31 12C27.68 12 25 14.68 25 18L25 66C25 69.31 27.68 72 31 72L62 72C65.31 72 68 69.31 68 66L68 18C68 14.68 65.31 12 62 12Z" fill="#95A3C1" fill-opacity="0.400000" fill-rule="evenodd"/>
		</g>
		<path id="Vector" d="M47.5 40C42.25 40 38 44.25 38 49.5C38 54.74 42.25 59 47.5 59C49.58 59 51.5 58.33 53.07 57.19L57.44 61.55C58.03 62.15 58.96 62.15 59.56 61.55C60.15 60.96 60.15 60.03 59.56 59.43L55.19 55.07C56.33 53.5 57 51.58 57 49.5C57 44.25 52.74 40 47.5 40ZM47.5 43C43.91 43 41 45.91 41 49.5C41 53.08 43.91 56 47.5 56C51.08 56 54 53.08 54 49.5C54 45.91 51.08 43 47.5 43Z" fill="#FFFFFF" fill-opacity="1.000000" fill-rule="evenodd"/>
	</g>
</svg>
