<svg width="96.000000" height="96.000000" viewBox="0 0 96 96" fill="none" xmlns="http://www.w3.org/2000/svg" xmlns:xlink="http://www.w3.org/1999/xlink">
	<desc>
			Created with Pixso.
	</desc>
	<defs>
		<filter id="filter_14022_14037_dd" x="8.250000" y="15.000000" width="68.000000" height="68.000000" filterUnits="userSpaceOnUse" color-interpolation-filters="sRGB">
			<feFlood flood-opacity="0" result="BackgroundImageFix"/>
			<feGaussianBlur in="BackgroundImage" stdDeviation="6.66667"/>
			<feComposite in2="SourceAlpha" operator="in" result="effect_backgroundBlur_1"/>
			<feBlend mode="normal" in="SourceGraphic" in2="effect_backgroundBlur_1" result="shape"/>
			<feColorMatrix in="SourceAlpha" type="matrix" values="0 0 0 0 0 0 0 0 0 0 0 0 0 0 0 0 0 0 127 0" result="hardAlpha"/>
			<feOffset dx="0" dy="2"/>
			<feGaussianBlur stdDeviation="0.333333"/>
			<feComposite in2="hardAlpha" operator="arithmetic" k2="-1" k3="1"/>
			<feColorMatrix type="matrix" values="0 0 0 0 1 0 0 0 0 1 0 0 0 0 1 0 0 0 1 0"/>
			<feBlend mode="normal" in2="shape" result="effect_innerShadow_2"/>
		</filter>
		<clipPath id="clip13958_8685">
			<rect id="96/mc_sys_servicesetup_96" width="96.000000" height="96.000000" fill="white" fill-opacity="0"/>
		</clipPath>
	</defs>
	<g clip-path="url(#clip13958_8685)">
		<path id="Vector" d="M70.72 12.75C71.17 12.75 71.56 13.04 71.68 13.47L72.59 16.63C73.6 16.91 74.57 17.31 75.46 17.82L78.32 16.23C78.71 16.01 79.19 16.08 79.51 16.39L81.6 18.48C81.91 18.8 81.98 19.28 81.76 19.67L80.17 22.53C80.68 23.42 81.08 24.39 81.36 25.4L84.52 26.31C84.95 26.43 85.25 26.82 85.25 27.27L85.25 30.22C85.25 30.67 84.95 31.06 84.52 31.18L81.36 32.09C81.08 33.1 80.68 34.07 80.17 34.96L81.76 37.82C81.98 38.21 81.91 38.69 81.6 39.01L79.51 41.1C79.19 41.41 78.71 41.48 78.32 41.26L75.46 39.67C74.57 40.18 73.6 40.58 72.59 40.86L71.68 44.02C71.56 44.45 71.17 44.75 70.72 44.75L67.77 44.75C67.32 44.75 66.93 44.45 66.81 44.02L65.9 40.86C64.89 40.58 63.92 40.18 63.03 39.67L60.17 41.26C59.78 41.48 59.3 41.41 58.98 41.1L56.89 39.01C56.58 38.69 56.51 38.21 56.73 37.82L58.32 34.96C57.81 34.07 57.41 33.1 57.13 32.09L53.97 31.18C53.54 31.06 53.25 30.67 53.25 30.22L53.25 27.27C53.25 26.82 53.54 26.43 53.97 26.31L57.13 25.4C57.41 24.39 57.81 23.42 58.32 22.53L56.73 19.67C56.51 19.28 56.58 18.8 56.89 18.48L58.98 16.39C59.3 16.08 59.78 16.01 60.17 16.23L63.03 17.82C63.92 17.31 64.89 16.91 65.9 16.63L66.81 13.47C66.93 13.04 67.32 12.75 67.77 12.75L70.72 12.75Z" fill="#8291B3" fill-opacity="1.000000" fill-rule="evenodd"/>
		<g filter="url(#filter_14022_14037_dd)">
			<path id="Vector 1" d="M45.38 15C46.33 15 47.17 15.62 47.43 16.53L49.36 23.25C51.5 23.84 53.55 24.71 55.44 25.78L61.52 22.4C62.35 21.93 63.39 22.08 64.06 22.75L68.49 27.18C69.16 27.85 69.31 28.89 68.84 29.72L65.46 35.8C66.53 37.69 67.4 39.74 67.99 41.88L74.71 43.81C75.62 44.07 76.25 44.91 76.25 45.86L76.25 52.13C76.25 53.08 75.62 53.92 74.71 54.18L67.99 56.11C67.4 58.25 66.53 60.3 65.46 62.19L68.84 68.27C69.31 69.1 69.16 70.14 68.49 70.81L64.06 75.24C63.39 75.91 62.35 76.06 61.52 75.59L55.44 72.21C53.55 73.28 51.5 74.15 49.36 74.74L47.43 81.46C47.17 82.37 46.33 83 45.38 83L39.11 83C38.16 83 37.32 82.37 37.06 81.46L35.13 74.74C32.99 74.15 30.94 73.28 29.05 72.21L22.97 75.59C22.14 76.06 21.1 75.91 20.43 75.24L16 70.81C15.33 70.14 15.18 69.1 15.65 68.27L19.03 62.19C17.96 60.3 17.09 58.25 16.5 56.11L9.78 54.18C8.87 53.92 8.25 53.08 8.25 52.13L8.25 45.86C8.25 44.91 8.87 44.07 9.78 43.81L16.5 41.88C17.09 39.74 17.96 37.69 19.03 35.8L15.65 29.72C15.18 28.89 15.33 27.85 16 27.18L20.43 22.75C21.1 22.08 22.14 21.93 22.97 22.4L29.05 25.78C30.94 24.71 32.99 23.84 35.13 23.25L37.06 16.53C37.32 15.62 38.16 15 39.11 15L45.38 15ZM42 40C37.02 40 33 44.02 33 49C33 53.97 37.02 58 42 58C46.97 58 51 53.97 51 49C51 44.02 46.97 40 42 40Z" fill="#95A3C1" fill-opacity="0.400000" fill-rule="evenodd"/>
		</g>
	</g>
</svg>
