<svg width="96.000000" height="96.000000" viewBox="0 0 96 96" fill="none" xmlns="http://www.w3.org/2000/svg" xmlns:xlink="http://www.w3.org/1999/xlink">
	<desc>
			Created with Pixso.
	</desc>
	<defs>
		<clipPath id="clip14028_14642">
			<rect id="96/mc_sys_help_96_lm" width="96.000000" height="96.000000" fill="white" fill-opacity="0"/>
		</clipPath>
		<linearGradient x1="54.000000" y1="77.000000" x2="41.999996" y2="89.000000" id="paint_linear_14987_15545_0" gradientUnits="userSpaceOnUse">
			<stop stop-color="#DAE1EE"/>
			<stop offset="1.000000" stop-color="#8B99B9"/>
		</linearGradient>
		<linearGradient x1="26.749996" y1="8.306820" x2="62.343803" y2="51.306824" id="paint_linear_14987_15547_0" gradientUnits="userSpaceOnUse">
			<stop stop-color="#EEF3FC"/>
			<stop offset="1.000000" stop-color="#EEF3FC" stop-opacity="0.000000"/>
		</linearGradient>
		<radialGradient gradientTransform="translate(18.3488 8.52586) rotate(37.0938) scale(27.1829 23.8067)" cx="0.000000" cy="0.000000" r="1.000000" id="paint_radial_14987_15547_1" gradientUnits="userSpaceOnUse">
			<stop stop-color="#8291B3"/>
			<stop offset="1.000000" stop-color="#8291B3" stop-opacity="0.000000"/>
		</radialGradient>
	</defs>
	<g clip-path="url(#clip14028_14642)">
		<circle id="Union" cx="26.000000" cy="14.000000" r="14.000000" fill="#8291B3" fill-opacity="1.000000"/>
		<rect id="Union" x="42.000000" y="77.000000" rx="3.000000" width="12.000000" height="12.000000" fill="url(#paint_linear_14987_15545_0)" fill-opacity="1.000000"/>
		<path id="Union" d="M56.13 76.9L77.7 47.39C78.2 46.71 78.05 45.79 77.37 45.29C76.7 44.79 75.77 44.94 75.28 45.62L53.96 74.78C54.86 75.29 55.6 76.02 56.13 76.9ZM52.74 74.25L62.89 48.04C63.19 47.26 62.82 46.4 62.03 46.1C61.25 45.8 60.4 46.18 60.09 46.96L49.63 74L51 74C51.6 74 52.19 74.09 52.74 74.25ZM46.36 74L35.9 46.96C35.59 46.18 34.74 45.8 33.96 46.1C33.17 46.4 32.8 47.26 33.1 48.04L43.25 74.25C43.8 74.09 44.39 74 45 74L46.36 74ZM42.03 74.78L20.71 45.62C20.22 44.94 19.29 44.79 18.62 45.29C17.94 45.79 17.79 46.71 18.29 47.39L39.86 76.9C40.39 76.02 41.13 75.29 42.03 74.78Z" fill="#D6DEED" fill-opacity="1.000000" fill-rule="evenodd"/>
		<path id="Union" d="M15.38 41.61C14.56 39.01 14 36.29 14 33.5C14 15.01 29.23 0 48 0C66.76 0 82 15.01 82 33.5C82 36.29 81.43 39.01 80.61 41.61C80.05 43.35 77.4 43.4 76.21 42.03C74.83 40.43 72.88 39 70.31 39C67.83 39 65.92 40.33 64.55 41.87C63.31 43.24 60.16 43.33 58.92 41.96C56.7 39.49 53.05 36.91 47.56 36.93C42.55 36.93 39.13 39.48 37.01 41.93C35.8 43.32 32.68 43.25 31.45 41.87C30.08 40.34 28.17 39 25.68 39C23.11 39 21.16 40.43 19.78 42.03C18.59 43.4 15.94 43.35 15.38 41.61Z" fill="#8291B3" fill-opacity="1.000000" fill-rule="evenodd"/>
		<path id="Union" d="M15.38 41.61C14.56 39.01 14 36.29 14 33.5C14 15.01 29.23 0 48 0C66.76 0 82 15.01 82 33.5C82 36.29 81.43 39.01 80.61 41.61C80.05 43.35 77.4 43.4 76.21 42.03C74.83 40.43 72.88 39 70.31 39C67.83 39 65.92 40.33 64.55 41.87C63.31 43.24 60.16 43.33 58.92 41.96C56.7 39.49 53.05 36.91 47.56 36.93C42.55 36.93 39.13 39.48 37.01 41.93C35.8 43.32 32.68 43.25 31.45 41.87C30.08 40.34 28.17 39 25.68 39C23.11 39 21.16 40.43 19.78 42.03C18.59 43.4 15.94 43.35 15.38 41.61Z" fill="url(#paint_linear_14987_15547_0)" fill-opacity="1.000000" fill-rule="evenodd"/>
		<path id="Union" d="M15.38 41.61C14.56 39.01 14 36.29 14 33.5C14 15.01 29.23 0 48 0C66.76 0 82 15.01 82 33.5C82 36.29 81.43 39.01 80.61 41.61C80.05 43.35 77.4 43.4 76.21 42.03C74.83 40.43 72.88 39 70.31 39C67.83 39 65.92 40.33 64.55 41.87C63.31 43.24 60.16 43.33 58.92 41.96C56.7 39.49 53.05 36.91 47.56 36.93C42.55 36.93 39.13 39.48 37.01 41.93C35.8 43.32 32.68 43.25 31.45 41.87C30.08 40.34 28.17 39 25.68 39C23.11 39 21.16 40.43 19.78 42.03C18.59 43.4 15.94 43.35 15.38 41.61Z" fill="url(#paint_radial_14987_15547_1)" fill-opacity="1.000000" fill-rule="evenodd"/>
	</g>
</svg>
