<svg width="96" height="96" viewBox="0 0 96 96" fill="none" xmlns="http://www.w3.org/2000/svg">
<path d="M26 28C33.732 28 40 21.732 40 14C40 6.26801 33.732 0 26 0C18.268 0 12 6.26801 12 14C12 21.732 18.268 28 26 28Z" fill="#8291B3"/>
<path d="M51 77H45C43.3431 77 42 78.3431 42 80V86C42 87.6569 43.3431 89 45 89H51C52.6569 89 54 87.6569 54 86V80C54 78.3431 52.6569 77 51 77Z" fill="url(#paint0_linear_40_262)"/>
<path fill-rule="evenodd" clip-rule="evenodd" d="M56.13 76.9L77.7 47.39C78.2 46.71 78.05 45.79 77.37 45.29C76.7 44.79 75.77 44.94 75.28 45.62L53.96 74.78C54.86 75.29 55.6 76.02 56.13 76.9ZM52.74 74.25L62.89 48.04C63.19 47.26 62.82 46.4 62.03 46.1C61.25 45.8 60.4 46.18 60.09 46.96L49.63 74H51C51.6 74 52.19 74.09 52.74 74.25ZM46.36 74L35.9 46.96C35.59 46.18 34.74 45.8 33.96 46.1C33.17 46.4 32.8 47.26 33.1 48.04L43.25 74.25C43.8 74.09 44.39 74 45 74H46.36ZM42.03 74.78L20.71 45.62C20.22 44.94 19.29 44.79 18.62 45.29C17.94 45.79 17.79 46.71 18.29 47.39L39.86 76.9C40.39 76.02 41.13 75.29 42.03 74.78Z" fill="#D6DEED"/>
<path fill-rule="evenodd" clip-rule="evenodd" d="M15.38 41.61C14.56 39.01 14 36.29 14 33.5C14 15.01 29.23 0 48 0C66.76 0 82 15.01 82 33.5C82 36.29 81.43 39.01 80.61 41.61C80.05 43.35 77.4 43.4 76.21 42.03C74.83 40.43 72.88 39 70.31 39C67.83 39 65.92 40.33 64.55 41.87C63.31 43.24 60.16 43.33 58.92 41.96C56.7 39.49 53.05 36.91 47.56 36.93C42.55 36.93 39.13 39.48 37.01 41.93C35.8 43.32 32.68 43.25 31.45 41.87C30.08 40.34 28.17 39 25.68 39C23.11 39 21.16 40.43 19.78 42.03C18.59 43.4 15.94 43.35 15.38 41.61Z" fill="#8291B3"/>
<path fill-rule="evenodd" clip-rule="evenodd" d="M15.38 41.61C14.56 39.01 14 36.29 14 33.5C14 15.01 29.23 0 48 0C66.76 0 82 15.01 82 33.5C82 36.29 81.43 39.01 80.61 41.61C80.05 43.35 77.4 43.4 76.21 42.03C74.83 40.43 72.88 39 70.31 39C67.83 39 65.92 40.33 64.55 41.87C63.31 43.24 60.16 43.33 58.92 41.96C56.7 39.49 53.05 36.91 47.56 36.93C42.55 36.93 39.13 39.48 37.01 41.93C35.8 43.32 32.68 43.25 31.45 41.87C30.08 40.34 28.17 39 25.68 39C23.11 39 21.16 40.43 19.78 42.03C18.59 43.4 15.94 43.35 15.38 41.61Z" fill="url(#paint1_linear_40_262)"/>
<path fill-rule="evenodd" clip-rule="evenodd" d="M15.38 41.61C14.56 39.01 14 36.29 14 33.5C14 15.01 29.23 0 48 0C66.76 0 82 15.01 82 33.5C82 36.29 81.43 39.01 80.61 41.61C80.05 43.35 77.4 43.4 76.21 42.03C74.83 40.43 72.88 39 70.31 39C67.83 39 65.92 40.33 64.55 41.87C63.31 43.24 60.16 43.33 58.92 41.96C56.7 39.49 53.05 36.91 47.56 36.93C42.55 36.93 39.13 39.48 37.01 41.93C35.8 43.32 32.68 43.25 31.45 41.87C30.08 40.34 28.17 39 25.68 39C23.11 39 21.16 40.43 19.78 42.03C18.59 43.4 15.94 43.35 15.38 41.61Z" fill="url(#paint2_radial_40_262)"/>
<defs>
<linearGradient id="paint0_linear_40_262" x1="54" y1="77" x2="42" y2="89" gradientUnits="userSpaceOnUse">
<stop stop-color="#DAE1EE"/>
<stop offset="1" stop-color="#8B99B9"/>
</linearGradient>
<linearGradient id="paint1_linear_40_262" x1="26.75" y1="8.30682" x2="62.3438" y2="51.3068" gradientUnits="userSpaceOnUse">
<stop stop-color="#EEF3FC"/>
<stop offset="1" stop-color="#EEF3FC" stop-opacity="0"/>
</linearGradient>
<radialGradient id="paint2_radial_40_262" cx="0" cy="0" r="1" gradientUnits="userSpaceOnUse" gradientTransform="translate(18.3488 8.52586) rotate(37.0938) scale(27.1829 23.8067)">
<stop stop-color="#8291B3"/>
<stop offset="1" stop-color="#8291B3" stop-opacity="0"/>
</radialGradient>
</defs>
</svg>
