<svg width="84.000000" height="84.000000" viewBox="0 0 84 84" fill="none" xmlns="http://www.w3.org/2000/svg" xmlns:xlink="http://www.w3.org/1999/xlink">
	<desc>
			Created with Pixso.
	</desc>
	<defs>
		<filter id="filter_14038_14237_dd" x="3.000000" y="9.250000" width="68.000000" height="68.000000" filterUnits="userSpaceOnUse" color-interpolation-filters="sRGB">
			<feFlood flood-opacity="0" result="BackgroundImageFix"/>
			<feGaussianBlur in="BackgroundImage" stdDeviation="6.66667"/>
			<feComposite in2="SourceAlpha" operator="in" result="effect_backgroundBlur_1"/>
			<feBlend mode="normal" in="SourceGraphic" in2="effect_backgroundBlur_1" result="shape"/>
			<feColorMatrix in="SourceAlpha" type="matrix" values="0 0 0 0 0 0 0 0 0 0 0 0 0 0 0 0 0 0 127 0" result="hardAlpha"/>
			<feOffset dx="0" dy="2"/>
			<feGaussianBlur stdDeviation="0.333333"/>
			<feComposite in2="hardAlpha" operator="arithmetic" k2="-1" k3="1"/>
			<feColorMatrix type="matrix" values="0 0 0 0 1 0 0 0 0 1 0 0 0 0 1 0 0 0 1 0"/>
			<feBlend mode="normal" in2="shape" result="effect_innerShadow_2"/>
		</filter>
		<clipPath id="clip14038_14232">
			<rect id="84/mc_sys_servicesetup_84" width="84.000000" height="84.000000" fill="white" fill-opacity="0"/>
		</clipPath>
	</defs>
	<g clip-path="url(#clip14038_14232)">
		<path id="Vector" d="M65.47 7C65.92 7 66.31 7.29 66.43 7.72L67.34 10.88C68.35 11.16 69.32 11.56 70.21 12.07L73.07 10.48C73.46 10.26 73.94 10.33 74.26 10.64L76.35 12.73C76.66 13.05 76.73 13.53 76.51 13.92L74.92 16.78C75.43 17.67 75.83 18.64 76.11 19.65L79.27 20.56C79.7 20.68 80 21.07 80 21.52L80 24.47C80 24.92 79.7 25.31 79.27 25.43L76.11 26.34C75.83 27.35 75.43 28.32 74.92 29.21L76.51 32.07C76.73 32.46 76.66 32.94 76.35 33.26L74.26 35.35C73.94 35.66 73.46 35.73 73.07 35.51L70.21 33.92C69.32 34.43 68.35 34.83 67.34 35.11L66.43 38.27C66.31 38.7 65.92 39 65.47 39L62.52 39C62.07 39 61.68 38.7 61.56 38.27L60.65 35.11C59.64 34.83 58.67 34.43 57.78 33.92L54.92 35.51C54.53 35.73 54.05 35.66 53.73 35.35L51.64 33.26C51.33 32.94 51.26 32.46 51.48 32.07L53.07 29.21C52.56 28.32 52.16 27.35 51.88 26.34L48.72 25.43C48.29 25.31 48 24.92 48 24.47L48 21.52C48 21.07 48.29 20.68 48.72 20.56L51.88 19.65C52.16 18.64 52.56 17.67 53.07 16.78L51.48 13.92C51.26 13.53 51.33 13.05 51.64 12.73L53.73 10.64C54.05 10.33 54.53 10.26 54.92 10.48L57.78 12.07C58.67 11.56 59.64 11.16 60.65 10.88L61.56 7.72C61.68 7.29 62.07 7 62.52 7L65.47 7Z" fill="#8291B3" fill-opacity="1.000000" fill-rule="evenodd"/>
		<g filter="url(#filter_14038_14237_dd)">
			<path id="Vector 2" d="M40.13 9.25C41.08 9.25 41.92 9.87 42.18 10.78L44.11 17.5C46.25 18.09 48.3 18.96 50.19 20.03L56.27 16.65C57.1 16.18 58.14 16.33 58.81 17L63.24 21.43C63.91 22.1 64.06 23.14 63.59 23.97L60.21 30.05C61.28 31.94 62.15 33.99 62.74 36.13L69.46 38.06C70.37 38.32 71 39.16 71 40.11L71 46.38C71 47.33 70.37 48.17 69.46 48.43L62.74 50.36C62.15 52.5 61.28 54.55 60.21 56.44L63.59 62.52C64.06 63.35 63.91 64.39 63.24 65.06L58.81 69.49C58.14 70.16 57.1 70.31 56.27 69.84L50.19 66.46C48.3 67.53 46.25 68.4 44.11 68.99L42.18 75.71C41.92 76.62 41.08 77.25 40.13 77.25L33.86 77.25C32.91 77.25 32.07 76.62 31.81 75.71L29.88 68.99C27.74 68.4 25.69 67.53 23.8 66.46L17.72 69.84C16.89 70.31 15.85 70.16 15.18 69.49L10.75 65.06C10.08 64.39 9.93 63.35 10.4 62.52L13.78 56.44C12.71 54.55 11.84 52.5 11.25 50.36L4.53 48.43C3.62 48.17 3 47.33 3 46.38L3 40.11C3 39.16 3.62 38.32 4.53 38.06L11.25 36.13C11.84 33.99 12.71 31.94 13.78 30.05L10.4 23.97C9.93 23.14 10.08 22.1 10.75 21.43L15.18 17C15.85 16.33 16.89 16.18 17.72 16.65L23.8 20.03C25.69 18.96 27.74 18.09 29.88 17.5L31.81 10.78C32.07 9.87 32.91 9.25 33.86 9.25L40.13 9.25ZM37 35C32.58 35 29 38.58 29 43C29 47.41 32.58 51 37 51C41.41 51 45 47.41 45 43C45 38.58 41.41 35 37 35Z" fill="#95A3C1" fill-opacity="0.400000" fill-rule="evenodd"/>
		</g>
	</g>
</svg>
