<svg width="128" height="128" viewBox="0 0 128 128" fill="none" xmlns="http://www.w3.org/2000/svg">
<path fill-rule="evenodd" clip-rule="evenodd" d="M21.26 89.99L44.74 17.71C45.77 14.56 49.15 12.83 52.31 13.85L78.95 22.45C82.11 23.47 83.83 26.85 82.81 30L59.32 102.28C58.3 105.43 54.91 107.16 51.76 106.14L25.11 97.54C21.96 96.52 20.23 93.14 21.26 89.99Z" fill="#D6DEED"/>
<path fill-rule="evenodd" clip-rule="evenodd" d="M42 21H88C93.52 21 98 25.47 98 31V101C98 106.52 93.52 111 88 111H42C36.47 111 32 106.52 32 101V31C32 25.47 36.47 21 42 21Z" fill="#8291B3"/>
<path fill-rule="evenodd" clip-rule="evenodd" d="M42 21H88C93.52 21 98 25.47 98 31V101C98 106.52 93.52 111 88 111H42C36.47 111 32 106.52 32 101V31C32 25.47 36.47 21 42 21Z" fill="url(#paint0_linear_40_268)"/>
<path fill-rule="evenodd" clip-rule="evenodd" d="M42 21H88C93.52 21 98 25.47 98 31V101C98 106.52 93.52 111 88 111H42C36.47 111 32 106.52 32 101V31C32 25.47 36.47 21 42 21Z" fill="url(#paint1_linear_40_268)"/>
<path fill-rule="evenodd" clip-rule="evenodd" d="M44 80.93C44 73.79 49.81 68 56.99 68C64.17 68 69.99 73.79 69.99 80.93C69.99 83.82 69.04 86.49 67.43 88.65L74.4 95.59C75.19 96.38 75.19 97.62 74.4 98.4C73.61 99.19 72.37 99.19 71.57 98.4L64.58 91.44C62.44 92.97 59.82 93.87 56.99 93.87C49.81 93.87 44 88.08 44 80.93ZM47.99 80.93C47.99 75.99 52.02 71.98 56.99 71.98C61.96 71.98 65.99 75.99 65.99 80.93C65.99 85.88 61.96 89.89 56.99 89.89C52.02 89.89 47.99 85.88 47.99 80.93Z" fill="white"/>
<defs>
<linearGradient id="paint0_linear_40_268" x1="73.5345" y1="123.115" x2="38.5" y2="29" gradientUnits="userSpaceOnUse">
<stop stop-color="#EEF3FC"/>
<stop offset="0.369065" stop-color="#EEF3FC" stop-opacity="0.556863"/>
<stop offset="1" stop-color="#EEF3FC" stop-opacity="0"/>
</linearGradient>
<linearGradient id="paint1_linear_40_268" x1="115.089" y1="66" x2="54.9822" y2="80.423" gradientUnits="userSpaceOnUse">
<stop stop-color="#EEF3FC"/>
<stop offset="0.543155" stop-color="#EEF3FC" stop-opacity="0"/>
<stop offset="0.99117" stop-color="#EEF3FC" stop-opacity="0"/>
</linearGradient>
</defs>
</svg>
