<svg width="128.000000" height="128.000000" viewBox="0 0 128 128" fill="none" xmlns="http://www.w3.org/2000/svg" xmlns:xlink="http://www.w3.org/1999/xlink">
	<desc>
			Created with Pixso.
	</desc>
	<defs>
		<clipPath id="clip14987_15515">
			<rect id="128/mc_sys_help_128_lm" width="128.000000" height="128.000000" fill="white" fill-opacity="0"/>
		</clipPath>
		<linearGradient x1="73.000000" y1="104.000000" x2="55.000000" y2="122.000000" id="paint_linear_14987_15555_0" gradientUnits="userSpaceOnUse">
			<stop stop-color="#DAE1EE"/>
			<stop offset="1.000000" stop-color="#8B99B9"/>
		</linearGradient>
		<linearGradient x1="37.125000" y1="18.431812" x2="82.140686" y2="72.431808" id="paint_linear_14987_15556_0" gradientUnits="userSpaceOnUse">
			<stop stop-color="#EEF3FC"/>
			<stop offset="1.000000" stop-color="#EEF3FC" stop-opacity="0.000000"/>
		</linearGradient>
		<radialGradient gradientTransform="translate(26.5 18.7069) rotate(36.8995) scale(34.2906 30.2442)" cx="0.000000" cy="0.000000" r="1.000000" id="paint_radial_14987_15556_1" gradientUnits="userSpaceOnUse">
			<stop stop-color="#8291B3"/>
			<stop offset="1.000000" stop-color="#8291B3" stop-opacity="0.000000"/>
		</radialGradient>
	</defs>
	<g clip-path="url(#clip14987_15515)">
		<circle id="Union" cx="38.000000" cy="26.000000" r="20.000000" fill="#8291B3" fill-opacity="1.000000"/>
		<path id="Union" d="M58 104L70 104C71.65 104 73 105.34 73 107L73 119C73 120.65 71.65 122 70 122L58 122C56.34 122 55 120.65 55 119L55 107C55 105.34 56.34 104 58 104Z" fill="url(#paint_linear_14987_15555_0)" fill-opacity="1.000000" fill-rule="evenodd"/>
		<path id="Union" d="M22.78 60.28C21.72 57 21 53.56 21 50.03C21 26.83 40.27 8 64 8C87.72 8 107 26.83 107 50.03C107 53.56 106.27 57 105.21 60.28C104.52 62.44 101.21 62.5 99.73 60.79C97.98 58.76 95.49 56.93 92.21 56.93C89.04 56.93 86.61 58.64 84.87 60.59C83.34 62.3 79.41 62.41 77.87 60.7C75.06 57.59 70.44 54.31 63.44 54.34C57.06 54.34 52.73 57.57 50.05 60.67C48.54 62.4 44.66 62.32 43.13 60.6C41.39 58.65 38.95 56.93 35.78 56.93C32.5 56.93 30.01 58.76 28.26 60.79C26.78 62.5 23.47 62.44 22.78 60.28Z" fill="#8291B3" fill-opacity="1.000000" fill-rule="evenodd"/>
		<path id="Union" d="M22.78 60.28C21.72 57 21 53.56 21 50.03C21 26.83 40.27 8 64 8C87.72 8 107 26.83 107 50.03C107 53.56 106.27 57 105.21 60.28C104.52 62.44 101.21 62.5 99.73 60.79C97.98 58.76 95.49 56.93 92.21 56.93C89.04 56.93 86.61 58.64 84.87 60.59C83.34 62.3 79.41 62.41 77.87 60.7C75.06 57.59 70.44 54.31 63.44 54.34C57.06 54.34 52.73 57.57 50.05 60.67C48.54 62.4 44.66 62.32 43.13 60.6C41.39 58.65 38.95 56.93 35.78 56.93C32.5 56.93 30.01 58.76 28.26 60.79C26.78 62.5 23.47 62.44 22.78 60.28Z" fill="url(#paint_linear_14987_15556_0)" fill-opacity="1.000000" fill-rule="evenodd"/>
		<path id="Union" d="M22.78 60.28C21.72 57 21 53.56 21 50.03C21 26.83 40.27 8 64 8C87.72 8 107 26.83 107 50.03C107 53.56 106.27 57 105.21 60.28C104.52 62.44 101.21 62.5 99.73 60.79C97.98 58.76 95.49 56.93 92.21 56.93C89.04 56.93 86.61 58.64 84.87 60.59C83.34 62.3 79.41 62.41 77.87 60.7C75.06 57.59 70.44 54.31 63.44 54.34C57.06 54.34 52.73 57.57 50.05 60.67C48.54 62.4 44.66 62.32 43.13 60.6C41.39 58.65 38.95 56.93 35.78 56.93C32.5 56.93 30.01 58.76 28.26 60.79C26.78 62.5 23.47 62.44 22.78 60.28Z" fill="url(#paint_radial_14987_15556_1)" fill-opacity="1.000000" fill-rule="evenodd"/>
		<path id="Union" d="M69.79 101L82.72 68.07C83.03 67.28 82.66 66.42 81.88 66.11C81.09 65.79 80.23 66.17 79.92 66.96L66.56 101L69.79 101ZM55.05 101.76L29.21 66.62C28.71 65.93 27.79 65.8 27.11 66.3C26.43 66.81 26.3 67.74 26.8 68.42L52.87 103.88C53.4 103 54.16 102.27 55.05 101.76ZM57.98 101L45.27 68.07C44.96 67.28 45.34 66.41 46.12 66.11C46.91 65.8 47.76 66.18 48.07 66.97L61.21 101L57.98 101ZM75.12 103.88C74.59 103 73.83 102.27 72.94 101.76L98.78 66.62C99.28 65.93 100.2 65.8 100.88 66.3C101.56 66.81 101.7 67.74 101.19 68.42L75.12 103.88Z" fill="#D6DEED" fill-opacity="1.000000" fill-rule="evenodd"/>
	</g>
</svg>
