<svg width="96.000000" height="96.000000" viewBox="0 0 96 96" fill="none" xmlns="http://www.w3.org/2000/svg" xmlns:xlink="http://www.w3.org/1999/xlink">
	<desc>
			Created with Pixso.
	</desc>
	<defs>
		<clipPath id="clip14987_15705">
			<rect id="96/mc_sys_emptytable_96_dm" width="96.000000" height="96.000000" fill="white" fill-opacity="0"/>
		</clipPath>
		<linearGradient x1="49.999958" y1="85.999962" x2="23.999989" y2="11.961535" id="paint_linear_14987_15694_0" gradientUnits="userSpaceOnUse">
			<stop stop-color="#373C49"/>
			<stop offset="0.369065" stop-color="#373C49" stop-opacity="0.556863"/>
			<stop offset="1.000000" stop-color="#373C49" stop-opacity="0.000000"/>
		</linearGradient>
		<linearGradient x1="89.464287" y1="50.999992" x2="42.107220" y2="62.217873" id="paint_linear_14987_15694_1" gradientUnits="userSpaceOnUse">
			<stop stop-color="#373C49"/>
			<stop offset="0.543155" stop-color="#373C49" stop-opacity="0.000000"/>
			<stop offset="0.991170" stop-color="#373C49" stop-opacity="0.000000"/>
		</linearGradient>
	</defs>
	<g clip-path="url(#clip14987_15705)">
		<path id="Union" d="M16.25 70.97L32.24 15.22C33.15 12.03 36.47 10.18 39.66 11.09L60.83 17.1C64.01 18 65.86 21.32 64.94 24.5L48.96 80.26C48.04 83.44 44.72 85.29 41.53 84.38L20.37 78.38C17.18 77.47 15.34 74.16 16.25 70.97Z" fill="#384156" fill-opacity="1.000000" fill-rule="evenodd"/>
		<path id="Union" d="M32 16L68 16C72.41 16 76 19.58 76 24L76 78C76 82.41 72.41 86 68 86L32 86C27.58 86 24 82.41 24 78L24 24C24 19.58 27.58 16 32 16Z" fill="#697591" fill-opacity="1.000000" fill-rule="evenodd"/>
		<path id="Union" d="M32 16L68 16C72.41 16 76 19.58 76 24L76 78C76 82.41 72.41 86 68 86L32 86C27.58 86 24 82.41 24 78L24 24C24 19.58 27.58 16 32 16Z" fill="url(#paint_linear_14987_15694_0)" fill-opacity="1.000000" fill-rule="evenodd"/>
		<path id="Union" d="M32 16L68 16C72.41 16 76 19.58 76 24L76 78C76 82.41 72.41 86 68 86L32 86C27.58 86 24 82.41 24 78L24 24C24 19.58 27.58 16 32 16Z" fill="url(#paint_linear_14987_15694_1)" fill-opacity="1.000000" fill-rule="evenodd"/>
		<path id="Union" d="M35.5 61L45.5 61C46.34 61 47 61.66 47 62.5C47 63.34 46.34 64 45.5 64L35.5 64C34.65 64 34 63.34 34 62.5C34 61.66 34.65 61 35.5 61ZM35.5 69L52.5 69C53.34 69 54 69.66 54 70.5C54 71.33 53.34 72 52.5 72L35.5 72C34.65 72 34 71.33 34 70.5C34 69.66 34.65 69 35.5 69Z" fill="#FFFFFF" fill-opacity="1.000000" fill-rule="evenodd"/>
	</g>
</svg>
