<svg width="96.000000" height="96.000000" viewBox="0 0 96 96" fill="none" xmlns="http://www.w3.org/2000/svg" xmlns:xlink="http://www.w3.org/1999/xlink">
	<desc>
			Created with Pixso.
	</desc>
	<defs>
		<filter id="filter_14028_14452_dd" x="21.000000" y="18.000000" width="16.000000" height="60.000000" filterUnits="userSpaceOnUse" color-interpolation-filters="sRGB">
			<feFlood flood-opacity="0" result="BackgroundImageFix"/>
			<feGaussianBlur in="BackgroundImage" stdDeviation="6.66667"/>
			<feComposite in2="SourceAlpha" operator="in" result="effect_backgroundBlur_1"/>
			<feBlend mode="normal" in="SourceGraphic" in2="effect_backgroundBlur_1" result="shape"/>
			<feColorMatrix in="SourceAlpha" type="matrix" values="0 0 0 0 0 0 0 0 0 0 0 0 0 0 0 0 0 0 127 0" result="hardAlpha"/>
			<feOffset dx="0" dy="3"/>
			<feGaussianBlur stdDeviation="0.333333"/>
			<feComposite in2="hardAlpha" operator="arithmetic" k2="-1" k3="1"/>
			<feColorMatrix type="matrix" values="0 0 0 0 1 0 0 0 0 1 0 0 0 0 1 0 0 0 1 0"/>
			<feBlend mode="normal" in2="shape" result="effect_innerShadow_2"/>
		</filter>
		<filter id="filter_14028_14454_dd" x="31.000000" y="18.000000" width="43.000000" height="60.000000" filterUnits="userSpaceOnUse" color-interpolation-filters="sRGB">
			<feFlood flood-opacity="0" result="BackgroundImageFix"/>
			<feGaussianBlur in="BackgroundImage" stdDeviation="6.66667"/>
			<feComposite in2="SourceAlpha" operator="in" result="effect_backgroundBlur_1"/>
			<feBlend mode="normal" in="SourceGraphic" in2="effect_backgroundBlur_1" result="shape"/>
			<feColorMatrix in="SourceAlpha" type="matrix" values="0 0 0 0 0 0 0 0 0 0 0 0 0 0 0 0 0 0 127 0" result="hardAlpha"/>
			<feOffset dx="0" dy="3"/>
			<feGaussianBlur stdDeviation="0.333333"/>
			<feComposite in2="hardAlpha" operator="arithmetic" k2="-1" k3="1"/>
			<feColorMatrix type="matrix" values="0 0 0 0 1 0 0 0 0 1 0 0 0 0 1 0 0 0 1 0"/>
			<feBlend mode="normal" in2="shape" result="effect_innerShadow_2"/>
		</filter>
		<clipPath id="clip13960_8597">
			<rect id="96/mc_sys_notfound_96" width="96.000000" height="96.000000" fill="white" fill-opacity="0"/>
		</clipPath>
	</defs>
	<g clip-path="url(#clip13960_8597)">
		<g filter="url(#filter_14028_14452_dd)">
			<path id="Rectangle" d="M37 18L27 18C23.68 18 21 20.68 21 24L21 72C21 75.31 23.68 78 27 78L37 78L37 18Z" fill="#95A3C1" fill-opacity="0.400000" fill-rule="evenodd"/>
		</g>
		<rect id="Rectangle" rx="6.000000" width="20.000000" height="50.000000" transform="matrix(-1 0 0 1 46 23)" fill="#8291B3" fill-opacity="1.000000"/>
		<g filter="url(#filter_14028_14454_dd)">
			<path id="Rectangle" d="M68 18L37 18C33.68 18 31 20.68 31 24L31 72C31 75.31 33.68 78 37 78L68 78C71.31 78 74 75.31 74 72L74 24C74 20.68 71.31 18 68 18Z" fill="#95A3C1" fill-opacity="0.400000" fill-rule="evenodd"/>
		</g>
		<path id="Vector" d="M53.5 46C48.25 46 44 50.25 44 55.5C44 60.74 48.25 65 53.5 65C55.58 65 57.5 64.33 59.07 63.19L63.44 67.55C64.03 68.15 64.96 68.15 65.56 67.55C66.15 66.96 66.15 66.03 65.56 65.43L61.19 61.07C62.33 59.5 63 57.58 63 55.5C63 50.25 58.74 46 53.5 46ZM53.5 49C49.91 49 47 51.91 47 55.5C47 59.08 49.91 62 53.5 62C57.08 62 60 59.08 60 55.5C60 51.91 57.08 49 53.5 49Z" fill="#FFFFFF" fill-opacity="1.000000" fill-rule="evenodd"/>
	</g>
</svg>
