<svg width="128.000000" height="128.000000" viewBox="0 0 128 128" fill="none" xmlns="http://www.w3.org/2000/svg" xmlns:xlink="http://www.w3.org/1999/xlink">
	<desc>
			Created with Pixso.
	</desc>
	<defs>
		<clipPath id="clip14987_15706">
			<rect id="128/mc_sys_emptytable_128_lm" width="128.000000" height="128.000000" fill="white" fill-opacity="0"/>
		</clipPath>
		<linearGradient x1="73.534500" y1="123.115349" x2="38.500034" y2="29.000011" id="paint_linear_14987_15698_0" gradientUnits="userSpaceOnUse">
			<stop stop-color="#EEF3FC"/>
			<stop offset="0.369065" stop-color="#EEF3FC" stop-opacity="0.556863"/>
			<stop offset="1.000000" stop-color="#EEF3FC" stop-opacity="0.000000"/>
		</linearGradient>
		<linearGradient x1="115.089279" y1="65.999985" x2="54.982235" y2="80.422974" id="paint_linear_14987_15698_1" gradientUnits="userSpaceOnUse">
			<stop stop-color="#EEF3FC"/>
			<stop offset="0.543155" stop-color="#EEF3FC" stop-opacity="0.000000"/>
			<stop offset="0.991170" stop-color="#EEF3FC" stop-opacity="0.000000"/>
		</linearGradient>
	</defs>
	<g clip-path="url(#clip14987_15706)">
		<path id="Union" d="M21.26 89.99L44.74 17.71C45.77 14.56 49.15 12.83 52.31 13.85L78.95 22.45C82.11 23.47 83.83 26.85 82.81 30L59.32 102.28C58.3 105.43 54.91 107.16 51.76 106.14L25.11 97.54C21.96 96.52 20.23 93.14 21.26 89.99Z" fill="#D6DEED" fill-opacity="1.000000" fill-rule="evenodd"/>
		<path id="Union" d="M42 21L88 21C93.52 21 98 25.47 98 31L98 101C98 106.52 93.52 111 88 111L42 111C36.47 111 32 106.52 32 101L32 31C32 25.47 36.47 21 42 21Z" fill="#8291B3" fill-opacity="1.000000" fill-rule="evenodd"/>
		<path id="Union" d="M42 21L88 21C93.52 21 98 25.47 98 31L98 101C98 106.52 93.52 111 88 111L42 111C36.47 111 32 106.52 32 101L32 31C32 25.47 36.47 21 42 21Z" fill="url(#paint_linear_14987_15698_0)" fill-opacity="1.000000" fill-rule="evenodd"/>
		<path id="Union" d="M42 21L88 21C93.52 21 98 25.47 98 31L98 101C98 106.52 93.52 111 88 111L42 111C36.47 111 32 106.52 32 101L32 31C32 25.47 36.47 21 42 21Z" fill="url(#paint_linear_14987_15698_1)" fill-opacity="1.000000" fill-rule="evenodd"/>
		<path id="Union" d="M46 79L58 79C59.12 79 60 79.87 60 81C60 82.12 59.12 83 58 83L46 83C44.87 83 44 82.12 44 81C44 79.87 44.87 79 46 79ZM46 89L68 89C69.12 89 70 89.88 70 91C70 92.12 69.12 93 68 93L46 93C44.87 93 44 92.12 44 91C44 89.88 44.87 89 46 89Z" fill="#FFFFFF" fill-opacity="1.000000" fill-rule="evenodd"/>
	</g>
</svg>
