<svg width="96" height="96" viewBox="0 0 96 96" fill="none" xmlns="http://www.w3.org/2000/svg">
<path fill-rule="evenodd" clip-rule="evenodd" d="M16.25 70.97L32.24 15.22C33.15 12.03 36.47 10.18 39.66 11.09L60.83 17.1C64.01 18 65.86 21.32 64.94 24.5L48.96 80.26C48.04 83.44 44.72 85.29 41.53 84.38L20.37 78.38C17.18 77.47 15.34 74.16 16.25 70.97Z" fill="#D6DEED"/>
<path fill-rule="evenodd" clip-rule="evenodd" d="M32 16H68C72.41 16 76 19.58 76 24V78C76 82.41 72.41 86 68 86H32C27.58 86 24 82.41 24 78V24C24 19.58 27.58 16 32 16Z" fill="#8291B3"/>
<path fill-rule="evenodd" clip-rule="evenodd" d="M32 16H68C72.41 16 76 19.58 76 24V78C76 82.41 72.41 86 68 86H32C27.58 86 24 82.41 24 78V24C24 19.58 27.58 16 32 16Z" fill="url(#paint0_linear_40_260)"/>
<path fill-rule="evenodd" clip-rule="evenodd" d="M32 16H68C72.41 16 76 19.58 76 24V78C76 82.41 72.41 86 68 86H32C27.58 86 24 82.41 24 78V24C24 19.58 27.58 16 32 16Z" fill="url(#paint1_linear_40_260)"/>
<path fill-rule="evenodd" clip-rule="evenodd" d="M35.5 61H45.5C46.34 61 47 61.66 47 62.5C47 63.34 46.34 64 45.5 64H35.5C34.65 64 34 63.34 34 62.5C34 61.66 34.65 61 35.5 61ZM35.5 69H52.5C53.34 69 54 69.66 54 70.5C54 71.33 53.34 72 52.5 72H35.5C34.65 72 34 71.33 34 70.5C34 69.66 34.65 69 35.5 69Z" fill="white"/>
<defs>
<linearGradient id="paint0_linear_40_260" x1="56.7242" y1="95.423" x2="29.1213" y2="22.2222" gradientUnits="userSpaceOnUse">
<stop stop-color="#EEF3FC"/>
<stop offset="0.369065" stop-color="#EEF3FC" stop-opacity="0.556863"/>
<stop offset="1" stop-color="#EEF3FC" stop-opacity="0"/>
</linearGradient>
<linearGradient id="paint1_linear_40_260" x1="89.4643" y1="51" x2="42.1072" y2="62.2179" gradientUnits="userSpaceOnUse">
<stop stop-color="#EEF3FC"/>
<stop offset="0.543155" stop-color="#EEF3FC" stop-opacity="0"/>
<stop offset="0.99117" stop-color="#EEF3FC" stop-opacity="0"/>
</linearGradient>
</defs>
</svg>
