<svg width="128" height="128" viewBox="0 0 128 128" fill="none" xmlns="http://www.w3.org/2000/svg">
<path fill-rule="evenodd" clip-rule="evenodd" d="M99.67 18.99C100.48 18.99 101.19 19.53 101.42 20.31L102.28 23.33C102.77 25.01 104.11 26.28 105.72 26.95C107.34 27.63 109.19 27.68 110.72 26.82L113.44 25.31C114.14 24.91 115.03 25.04 115.6 25.61L119.38 29.39C119.95 29.96 120.08 30.85 119.68 31.55L118.17 34.27C117.32 35.8 117.36 37.65 118.04 39.27C118.71 40.88 119.98 42.22 121.66 42.71L124.68 43.57C125.46 43.8 126 44.51 126 45.32V50.67C126 51.48 125.46 52.19 124.68 52.41L121.66 53.28C119.98 53.77 118.71 55.1 118.04 56.72C117.36 58.34 117.32 60.19 118.17 61.72L119.68 64.44C120.08 65.14 119.95 66.03 119.38 66.6L115.6 70.38C115.03 70.95 114.14 71.08 113.44 70.68L110.72 69.17C109.19 68.31 107.34 68.36 105.72 69.04C104.11 69.71 102.77 70.98 102.28 72.66L101.42 75.68C101.19 76.46 100.48 76.99 99.67 76.99H94.32C93.51 76.99 92.8 76.46 92.58 75.68L91.71 72.66C91.22 70.98 89.89 69.71 88.27 69.04C86.65 68.36 84.8 68.31 83.27 69.17L80.55 70.68C79.85 71.08 78.96 70.95 78.39 70.38L74.61 66.6C74.04 66.03 73.91 65.14 74.31 64.44L75.82 61.72C76.68 60.19 76.63 58.34 75.95 56.72C75.28 55.1 74.01 53.77 72.33 53.28L69.31 52.41C68.53 52.19 68 51.48 68 50.67V45.32C68 44.51 68.53 43.8 69.31 43.57L72.33 42.71C74.01 42.22 75.28 40.88 75.95 39.27C76.63 37.65 76.68 35.8 75.82 34.27L74.31 31.55C73.91 30.85 74.04 29.96 74.61 29.39L78.39 25.61C78.96 25.04 79.85 24.91 80.55 25.31L83.27 26.82C84.8 27.68 86.65 27.63 88.27 26.95C89.89 26.28 91.22 25.01 91.71 23.33L92.58 20.31C92.8 19.53 93.51 18.99 94.32 18.99H99.67Z" fill="#8291B3"/>
<path fill-rule="evenodd" clip-rule="evenodd" d="M99.67 18.99C100.48 18.99 101.19 19.53 101.42 20.31L102.28 23.33C102.77 25.01 104.11 26.28 105.72 26.95C107.34 27.63 109.19 27.68 110.72 26.82L113.44 25.31C114.14 24.91 115.03 25.04 115.6 25.61L119.38 29.39C119.95 29.96 120.08 30.85 119.68 31.55L118.17 34.27C117.32 35.8 117.36 37.65 118.04 39.27C118.71 40.88 119.98 42.22 121.66 42.71L124.68 43.57C125.46 43.8 126 44.51 126 45.32V50.67C126 51.48 125.46 52.19 124.68 52.41L121.66 53.28C119.98 53.77 118.71 55.1 118.04 56.72C117.36 58.34 117.32 60.19 118.17 61.72L119.68 64.44C120.08 65.14 119.95 66.03 119.38 66.6L115.6 70.38C115.03 70.95 114.14 71.08 113.44 70.68L110.72 69.17C109.19 68.31 107.34 68.36 105.72 69.04C104.11 69.71 102.77 70.98 102.28 72.66L101.42 75.68C101.19 76.46 100.48 76.99 99.67 76.99H94.32C93.51 76.99 92.8 76.46 92.58 75.68L91.71 72.66C91.22 70.98 89.89 69.71 88.27 69.04C86.65 68.36 84.8 68.31 83.27 69.17L80.55 70.68C79.85 71.08 78.96 70.95 78.39 70.38L74.61 66.6C74.04 66.03 73.91 65.14 74.31 64.44L75.82 61.72C76.68 60.19 76.63 58.34 75.95 56.72C75.28 55.1 74.01 53.77 72.33 53.28L69.31 52.41C68.53 52.19 68 51.48 68 50.67V45.32C68 44.51 68.53 43.8 69.31 43.57L72.33 42.71C74.01 42.22 75.28 40.88 75.95 39.27C76.63 37.65 76.68 35.8 75.82 34.27L74.31 31.55C73.91 30.85 74.04 29.96 74.61 29.39L78.39 25.61C78.96 25.04 79.85 24.91 80.55 25.31L83.27 26.82C84.8 27.68 86.65 27.63 88.27 26.95C89.89 26.28 91.22 25.01 91.71 23.33L92.58 20.31C92.8 19.53 93.51 18.99 94.32 18.99H99.67Z" fill="url(#paint0_linear_40_269)"/>
<path fill-rule="evenodd" clip-rule="evenodd" d="M35.81 19.75C37.01 19.38 38.31 19.85 38.99 20.9L41.65 25C43.13 27.27 45.69 28.55 48.39 28.81C51.1 29.08 53.87 28.31 55.76 26.35L59.1 22.87C59.97 21.96 61.34 21.75 62.45 22.34L69.77 26.23C70.88 26.82 71.47 28.08 71.2 29.3L70.19 34.02C69.62 36.68 70.53 39.41 72.26 41.5C73.99 43.59 76.48 45 79.2 44.96L84.08 44.87C85.33 44.85 86.45 45.66 86.81 46.86L89.24 54.81C89.61 56.01 89.14 57.31 88.09 57.99L83.99 60.65C81.72 62.13 80.44 64.69 80.18 67.39C79.91 70.1 80.68 72.87 82.64 74.76L86.12 78.1C87.03 78.97 87.24 80.34 86.65 81.45L82.76 88.77C82.17 89.88 80.91 90.47 79.68 90.2L74.97 89.19C72.31 88.62 69.58 89.53 67.49 91.26C65.4 92.99 63.99 95.48 64.03 98.2L64.12 103.08C64.14 104.33 63.33 105.45 62.13 105.81L54.18 108.24C52.98 108.61 51.68 108.14 51 107.09L48.34 102.99C46.86 100.72 44.3 99.44 41.6 99.18C38.89 98.91 36.12 99.68 34.23 101.64L30.89 105.12C30.02 106.03 28.65 106.24 27.54 105.65L20.22 101.76C19.11 101.17 18.52 99.91 18.79 98.68L19.8 93.97C20.37 91.31 19.46 88.58 17.73 86.49C16 84.4 13.51 82.99 10.79 83.03L5.90998 83.12C4.65998 83.14 3.53998 82.33 3.17998 81.13L0.749979 73.18C0.379979 71.98 0.849979 70.68 1.89998 70L5.99998 67.34C8.26998 65.86 9.54998 63.3 9.80998 60.6C10.08 57.89 9.30998 55.12 7.34998 53.23L3.86998 49.89C2.95998 49.02 2.74998 47.65 3.33998 46.54L7.22998 39.22C7.81998 38.11 9.07998 37.52 10.31 37.79L15.02 38.8C17.68 39.37 20.41 38.46 22.5 36.73C24.59 35 26 32.51 25.96 29.79L25.87 24.91C25.85 23.66 26.66 22.54 27.86 22.18L35.81 19.75Z" fill="#8291B3"/>
<path fill-rule="evenodd" clip-rule="evenodd" d="M35.81 19.75C37.01 19.38 38.31 19.85 38.99 20.9L41.65 25C43.13 27.27 45.69 28.55 48.39 28.81C51.1 29.08 53.87 28.31 55.76 26.35L59.1 22.87C59.97 21.96 61.34 21.75 62.45 22.34L69.77 26.23C70.88 26.82 71.47 28.08 71.2 29.3L70.19 34.02C69.62 36.68 70.53 39.41 72.26 41.5C73.99 43.59 76.48 45 79.2 44.96L84.08 44.87C85.33 44.85 86.45 45.66 86.81 46.86L89.24 54.81C89.61 56.01 89.14 57.31 88.09 57.99L83.99 60.65C81.72 62.13 80.44 64.69 80.18 67.39C79.91 70.1 80.68 72.87 82.64 74.76L86.12 78.1C87.03 78.97 87.24 80.34 86.65 81.45L82.76 88.77C82.17 89.88 80.91 90.47 79.68 90.2L74.97 89.19C72.31 88.62 69.58 89.53 67.49 91.26C65.4 92.99 63.99 95.48 64.03 98.2L64.12 103.08C64.14 104.33 63.33 105.45 62.13 105.81L54.18 108.24C52.98 108.61 51.68 108.14 51 107.09L48.34 102.99C46.86 100.72 44.3 99.44 41.6 99.18C38.89 98.91 36.12 99.68 34.23 101.64L30.89 105.12C30.02 106.03 28.65 106.24 27.54 105.65L20.22 101.76C19.11 101.17 18.52 99.91 18.79 98.68L19.8 93.97C20.37 91.31 19.46 88.58 17.73 86.49C16 84.4 13.51 82.99 10.79 83.03L5.90998 83.12C4.65998 83.14 3.53998 82.33 3.17998 81.13L0.749979 73.18C0.379979 71.98 0.849979 70.68 1.89998 70L5.99998 67.34C8.26998 65.86 9.54998 63.3 9.80998 60.6C10.08 57.89 9.30998 55.12 7.34998 53.23L3.86998 49.89C2.95998 49.02 2.74998 47.65 3.33998 46.54L7.22998 39.22C7.81998 38.11 9.07998 37.52 10.31 37.79L15.02 38.8C17.68 39.37 20.41 38.46 22.5 36.73C24.59 35 26 32.51 25.96 29.79L25.87 24.91C25.85 23.66 26.66 22.54 27.86 22.18L35.81 19.75Z" fill="url(#paint1_linear_40_269)"/>
<path fill-rule="evenodd" clip-rule="evenodd" d="M35.81 19.75C37.01 19.38 38.31 19.85 38.99 20.9L41.65 25C43.13 27.27 45.69 28.55 48.39 28.81C51.1 29.08 53.87 28.31 55.76 26.35L59.1 22.87C59.97 21.96 61.34 21.75 62.45 22.34L69.77 26.23C70.88 26.82 71.47 28.08 71.2 29.3L70.19 34.02C69.62 36.68 70.53 39.41 72.26 41.5C73.99 43.59 76.48 45 79.2 44.96L84.08 44.87C85.33 44.85 86.45 45.66 86.81 46.86L89.24 54.81C89.61 56.01 89.14 57.31 88.09 57.99L83.99 60.65C81.72 62.13 80.44 64.69 80.18 67.39C79.91 70.1 80.68 72.87 82.64 74.76L86.12 78.1C87.03 78.97 87.24 80.34 86.65 81.45L82.76 88.77C82.17 89.88 80.91 90.47 79.68 90.2L74.97 89.19C72.31 88.62 69.58 89.53 67.49 91.26C65.4 92.99 63.99 95.48 64.03 98.2L64.12 103.08C64.14 104.33 63.33 105.45 62.13 105.81L54.18 108.24C52.98 108.61 51.68 108.14 51 107.09L48.34 102.99C46.86 100.72 44.3 99.44 41.6 99.18C38.89 98.91 36.12 99.68 34.23 101.64L30.89 105.12C30.02 106.03 28.65 106.24 27.54 105.65L20.22 101.76C19.11 101.17 18.52 99.91 18.79 98.68L19.8 93.97C20.37 91.31 19.46 88.58 17.73 86.49C16 84.4 13.51 82.99 10.79 83.03L5.90998 83.12C4.65998 83.14 3.53998 82.33 3.17998 81.13L0.749979 73.18C0.379979 71.98 0.849979 70.68 1.89998 70L5.99998 67.34C8.26998 65.86 9.54998 63.3 9.80998 60.6C10.08 57.89 9.30998 55.12 7.34998 53.23L3.86998 49.89C2.95998 49.02 2.74998 47.65 3.33998 46.54L7.22998 39.22C7.81998 38.11 9.07998 37.52 10.31 37.79L15.02 38.8C17.68 39.37 20.41 38.46 22.5 36.73C24.59 35 26 32.51 25.96 29.79L25.87 24.91C25.85 23.66 26.66 22.54 27.86 22.18L35.81 19.75Z" fill="url(#paint2_radial_40_269)"/>
<path fill-rule="evenodd" clip-rule="evenodd" d="M31 64C31 56.26 37.26 50 45 50C52.73 50 59 56.26 59 64C59 71.73 52.73 78 45 78C37.26 78 31 71.73 31 64ZM35 64C35 58.47 39.47 54 45 54C50.52 54 55 58.47 55 64C55 69.52 50.52 74 45 74C39.47 74 35 69.52 35 64Z" fill="white"/>
<defs>
<linearGradient id="paint0_linear_40_269" x1="73.6743" y1="71.3258" x2="154.37" y2="10.8041" gradientUnits="userSpaceOnUse">
<stop stop-color="#EEF3FC"/>
<stop offset="1" stop-color="#EEF3FC" stop-opacity="0"/>
</linearGradient>
<linearGradient id="paint1_linear_40_269" x1="13.7173" y1="112.632" x2="126.068" y2="4.11279" gradientUnits="userSpaceOnUse">
<stop stop-color="#EEF3FC"/>
<stop offset="0.369065" stop-color="#EEF3FC" stop-opacity="0.556863"/>
<stop offset="1" stop-color="#EEF3FC" stop-opacity="0"/>
</linearGradient>
<radialGradient id="paint2_radial_40_269" cx="0" cy="0" r="1" gradientUnits="userSpaceOnUse" gradientTransform="translate(40.5 74.4998) rotate(119.876) scale(27.1017 27.3473)">
<stop stop-color="#EEF3FC"/>
<stop offset="1" stop-color="#EEF3FC" stop-opacity="0"/>
</radialGradient>
</defs>
</svg>
