<svg width="128" height="128" viewBox="0 0 128 128" fill="none" xmlns="http://www.w3.org/2000/svg">
<path fill-rule="evenodd" clip-rule="evenodd" d="M21.26 89.99L44.74 17.71C45.77 14.56 49.15 12.83 52.31 13.85L78.95 22.45C82.11 23.47 83.83 26.85 82.81 30L59.32 102.28C58.3 105.43 54.91 107.16 51.76 106.14L25.11 97.54C21.96 96.52 20.23 93.14 21.26 89.99Z" fill="#D6DEED"/>
<path fill-rule="evenodd" clip-rule="evenodd" d="M42 21H88C93.52 21 98 25.47 98 31V101C98 106.52 93.52 111 88 111H42C36.47 111 32 106.52 32 101V31C32 25.47 36.47 21 42 21Z" fill="#8291B3"/>
<path fill-rule="evenodd" clip-rule="evenodd" d="M42 21H88C93.52 21 98 25.47 98 31V101C98 106.52 93.52 111 88 111H42C36.47 111 32 106.52 32 101V31C32 25.47 36.47 21 42 21Z" fill="url(#paint0_linear_40_265)"/>
<path fill-rule="evenodd" clip-rule="evenodd" d="M42 21H88C93.52 21 98 25.47 98 31V101C98 106.52 93.52 111 88 111H42C36.47 111 32 106.52 32 101V31C32 25.47 36.47 21 42 21Z" fill="url(#paint1_linear_40_265)"/>
<path fill-rule="evenodd" clip-rule="evenodd" d="M46 79H58C59.12 79 60 79.87 60 81C60 82.12 59.12 83 58 83H46C44.87 83 44 82.12 44 81C44 79.87 44.87 79 46 79ZM46 89H68C69.12 89 70 89.88 70 91C70 92.12 69.12 93 68 93H46C44.87 93 44 92.12 44 91C44 89.88 44.87 89 46 89Z" fill="white"/>
<defs>
<linearGradient id="paint0_linear_40_265" x1="73.5345" y1="123.115" x2="38.5" y2="29" gradientUnits="userSpaceOnUse">
<stop stop-color="#EEF3FC"/>
<stop offset="0.369065" stop-color="#EEF3FC" stop-opacity="0.556863"/>
<stop offset="1" stop-color="#EEF3FC" stop-opacity="0"/>
</linearGradient>
<linearGradient id="paint1_linear_40_265" x1="115.089" y1="66" x2="54.9822" y2="80.423" gradientUnits="userSpaceOnUse">
<stop stop-color="#EEF3FC"/>
<stop offset="0.543155" stop-color="#EEF3FC" stop-opacity="0"/>
<stop offset="0.99117" stop-color="#EEF3FC" stop-opacity="0"/>
</linearGradient>
</defs>
</svg>
