<svg width="96.000000" height="96.000000" viewBox="0 0 96 96" fill="none" xmlns="http://www.w3.org/2000/svg" xmlns:xlink="http://www.w3.org/1999/xlink">
	<desc>
			Created with Pixso.
	</desc>
	<defs>
		<clipPath id="clip13958_8685">
			<rect id="96/mc_sys_servicesetup_96_lm" width="96.000000" height="96.000000" fill="white" fill-opacity="0"/>
		</clipPath>
		<linearGradient x1="54.500107" y1="57.499985" x2="118.500130" y2="9.500008" id="paint_linear_14987_15300_0" gradientUnits="userSpaceOnUse">
			<stop stop-color="#EEF3FC"/>
			<stop offset="1.000000" stop-color="#EEF3FC" stop-opacity="0.000000"/>
		</linearGradient>
		<linearGradient x1="11.059353" y1="83.663567" x2="93.449966" y2="4.082733" id="paint_linear_14987_15301_0" gradientUnits="userSpaceOnUse">
			<stop stop-color="#EEF3FC"/>
			<stop offset="0.369065" stop-color="#EEF3FC" stop-opacity="0.556863"/>
			<stop offset="1.000000" stop-color="#EEF3FC" stop-opacity="0.000000"/>
		</linearGradient>
		<radialGradient gradientTransform="translate(30.7 55.6999) rotate(119.876) scale(19.8745 20.0547)" cx="0.000000" cy="0.000000" r="1.000000" id="paint_radial_14987_15301_1" gradientUnits="userSpaceOnUse">
			<stop stop-color="#EEF3FC"/>
			<stop offset="1.000000" stop-color="#EEF3FC" stop-opacity="0.000000"/>
		</radialGradient>
	</defs>
	<g clip-path="url(#clip13958_8685)">
		<path id="Union" d="M75.12 16C75.76 16 76.32 16.42 76.5 17.04L77.19 19.43C77.57 20.77 78.63 21.77 79.91 22.31C81.2 22.84 82.67 22.88 83.88 22.2L86.03 21C86.6 20.69 87.3 20.79 87.75 21.24L90.75 24.24C91.2 24.69 91.3 25.39 90.99 25.96L89.79 28.11C89.11 29.32 89.15 30.79 89.68 32.08C90.22 33.36 91.22 34.42 92.56 34.8L94.95 35.49C95.57 35.67 96 36.23 96 36.87L96 41.12C96 41.76 95.57 42.32 94.95 42.5L92.56 43.19C91.22 43.57 90.22 44.63 89.68 45.91C89.15 47.2 89.11 48.67 89.79 49.88L90.99 52.03C91.3 52.6 91.2 53.3 90.75 53.75L87.75 56.75C87.3 57.2 86.6 57.3 86.03 56.99L83.88 55.79C82.67 55.11 81.2 55.15 79.91 55.68C78.63 56.22 77.57 57.22 77.19 58.56L76.5 60.95C76.32 61.57 75.76 62 75.12 62L70.87 62C70.23 62 69.67 61.57 69.49 60.95L68.8 58.56C68.42 57.22 67.36 56.22 66.08 55.68C64.79 55.15 63.32 55.11 62.11 55.79L59.96 56.99C59.39 57.3 58.69 57.2 58.24 56.75L55.24 53.75C54.79 53.3 54.69 52.6 55 52.03L56.2 49.88C56.88 48.67 56.84 47.2 56.31 45.91C55.77 44.63 54.77 43.57 53.43 43.19L51.04 42.5C50.42 42.32 50 41.76 50 41.12L50 36.87C50 36.23 50.42 35.67 51.04 35.49L53.43 34.8C54.77 34.42 55.77 33.36 56.31 32.08C56.84 30.79 56.88 29.32 56.2 28.11L55 25.96C54.69 25.39 54.79 24.69 55.24 24.24L58.24 21.24C58.69 20.79 59.39 20.69 59.96 21L62.11 22.2C63.32 22.88 64.79 22.84 66.08 22.31C67.36 21.77 68.42 20.77 68.8 19.43L69.49 17.04C69.67 16.42 70.23 16 70.87 16L75.12 16Z" fill="#8291B3" fill-opacity="1.000000" fill-rule="evenodd"/>
		<path id="Union" d="M75.12 16C75.76 16 76.32 16.42 76.5 17.04L77.19 19.43C77.57 20.77 78.63 21.77 79.91 22.31C81.2 22.84 82.67 22.88 83.88 22.2L86.03 21C86.6 20.69 87.3 20.79 87.75 21.24L90.75 24.24C91.2 24.69 91.3 25.39 90.99 25.96L89.79 28.11C89.11 29.32 89.15 30.79 89.68 32.08C90.22 33.36 91.22 34.42 92.56 34.8L94.95 35.49C95.57 35.67 96 36.23 96 36.87L96 41.12C96 41.76 95.57 42.32 94.95 42.5L92.56 43.19C91.22 43.57 90.22 44.63 89.68 45.91C89.15 47.2 89.11 48.67 89.79 49.88L90.99 52.03C91.3 52.6 91.2 53.3 90.75 53.75L87.75 56.75C87.3 57.2 86.6 57.3 86.03 56.99L83.88 55.79C82.67 55.11 81.2 55.15 79.91 55.68C78.63 56.22 77.57 57.22 77.19 58.56L76.5 60.95C76.32 61.57 75.76 62 75.12 62L70.87 62C70.23 62 69.67 61.57 69.49 60.95L68.8 58.56C68.42 57.22 67.36 56.22 66.08 55.68C64.79 55.15 63.32 55.11 62.11 55.79L59.96 56.99C59.39 57.3 58.69 57.2 58.24 56.75L55.24 53.75C54.79 53.3 54.69 52.6 55 52.03L56.2 49.88C56.88 48.67 56.84 47.2 56.31 45.91C55.77 44.63 54.77 43.57 53.43 43.19L51.04 42.5C50.42 42.32 50 41.76 50 41.12L50 36.87C50 36.23 50.42 35.67 51.04 35.49L53.43 34.8C54.77 34.42 55.77 33.36 56.31 32.08C56.84 30.79 56.88 29.32 56.2 28.11L55 25.96C54.69 25.39 54.79 24.69 55.24 24.24L58.24 21.24C58.69 20.79 59.39 20.69 59.96 21L62.11 22.2C63.32 22.88 64.79 22.84 66.08 22.31C67.36 21.77 68.42 20.77 68.8 19.43L69.49 17.04C69.67 16.42 70.23 16 70.87 16L75.12 16Z" fill="url(#paint_linear_14987_15300_0)" fill-opacity="1.000000" fill-rule="evenodd"/>
		<path id="Union" d="M27.26 15.55C28.14 15.28 29.09 15.62 29.59 16.39L31.54 19.4C32.63 21.06 34.51 22 36.49 22.19C38.47 22.39 40.5 21.83 41.89 20.39L44.34 17.84C44.98 17.17 45.98 17.01 46.79 17.45L52.16 20.3C52.98 20.73 53.41 21.65 53.21 22.56L52.47 26.01C52.05 27.97 52.72 29.96 53.99 31.5C55.26 33.03 57.09 34.07 59.08 34.03L62.65 33.97C63.57 33.96 64.39 34.55 64.66 35.43L66.44 41.26C66.71 42.14 66.37 43.09 65.6 43.59L62.59 45.54C60.93 46.63 59.99 48.51 59.8 50.49C59.6 52.47 60.16 54.5 61.6 55.89L64.15 58.34C64.82 58.98 64.98 59.98 64.54 60.79L61.69 66.16C61.26 66.98 60.34 67.41 59.43 67.21L55.98 66.47C54.03 66.05 52.03 66.72 50.49 67.99C48.96 69.26 47.92 71.09 47.96 73.08L48.02 76.65C48.03 77.57 47.44 78.39 46.56 78.66L40.73 80.44C39.85 80.71 38.9 80.37 38.4 79.6L36.45 76.59C35.36 74.93 33.48 73.99 31.5 73.8C29.52 73.6 27.49 74.16 26.1 75.6L23.65 78.15C23.01 78.82 22.01 78.98 21.2 78.54L15.83 75.69C15.01 75.26 14.58 74.34 14.78 73.43L15.52 69.98C15.94 68.03 15.27 66.03 14 64.49C12.73 62.96 10.9 61.92 8.91 61.96L5.34 62.02C4.42 62.03 3.6 61.44 3.33 60.56L1.55 54.73C1.28 53.85 1.62 52.9 2.39 52.4L5.4 50.45C7.06 49.36 8 47.48 8.19 45.5C8.39 43.52 7.83 41.49 6.39 40.1L3.84 37.65C3.17 37.01 3.01 36.01 3.45 35.2L6.3 29.83C6.73 29.01 7.65 28.58 8.56 28.78L12.01 29.52C13.97 29.94 15.96 29.27 17.5 28C19.03 26.73 20.07 24.9 20.03 22.91L19.97 19.34C19.96 18.42 20.55 17.6 21.43 17.33L27.26 15.55Z" fill="#8291B3" fill-opacity="1.000000" fill-rule="evenodd"/>
		<path id="Union" d="M27.26 15.55C28.14 15.28 29.09 15.62 29.59 16.39L31.54 19.4C32.63 21.06 34.51 22 36.49 22.19C38.47 22.39 40.5 21.83 41.89 20.39L44.34 17.84C44.98 17.17 45.98 17.01 46.79 17.45L52.16 20.3C52.98 20.73 53.41 21.65 53.21 22.56L52.47 26.01C52.05 27.97 52.72 29.96 53.99 31.5C55.26 33.03 57.09 34.07 59.08 34.03L62.65 33.97C63.57 33.96 64.39 34.55 64.66 35.43L66.44 41.26C66.71 42.14 66.37 43.09 65.6 43.59L62.59 45.54C60.93 46.63 59.99 48.51 59.8 50.49C59.6 52.47 60.16 54.5 61.6 55.89L64.15 58.34C64.82 58.98 64.98 59.98 64.54 60.79L61.69 66.16C61.26 66.98 60.34 67.41 59.43 67.21L55.98 66.47C54.03 66.05 52.03 66.72 50.49 67.99C48.96 69.26 47.92 71.09 47.96 73.08L48.02 76.65C48.03 77.57 47.44 78.39 46.56 78.66L40.73 80.44C39.85 80.71 38.9 80.37 38.4 79.6L36.45 76.59C35.36 74.93 33.48 73.99 31.5 73.8C29.52 73.6 27.49 74.16 26.1 75.6L23.65 78.15C23.01 78.82 22.01 78.98 21.2 78.54L15.83 75.69C15.01 75.26 14.58 74.34 14.78 73.43L15.52 69.98C15.94 68.03 15.27 66.03 14 64.49C12.73 62.96 10.9 61.92 8.91 61.96L5.34 62.02C4.42 62.03 3.6 61.44 3.33 60.56L1.55 54.73C1.28 53.85 1.62 52.9 2.39 52.4L5.4 50.45C7.06 49.36 8 47.48 8.19 45.5C8.39 43.52 7.83 41.49 6.39 40.1L3.84 37.65C3.17 37.01 3.01 36.01 3.45 35.2L6.3 29.83C6.73 29.01 7.65 28.58 8.56 28.78L12.01 29.52C13.97 29.94 15.96 29.27 17.5 28C19.03 26.73 20.07 24.9 20.03 22.91L19.97 19.34C19.96 18.42 20.55 17.6 21.43 17.33L27.26 15.55Z" fill="url(#paint_linear_14987_15301_0)" fill-opacity="1.000000" fill-rule="evenodd"/>
		<path id="Union" d="M27.26 15.55C28.14 15.28 29.09 15.62 29.59 16.39L31.54 19.4C32.63 21.06 34.51 22 36.49 22.19C38.47 22.39 40.5 21.83 41.89 20.39L44.34 17.84C44.98 17.17 45.98 17.01 46.79 17.45L52.16 20.3C52.98 20.73 53.41 21.65 53.21 22.56L52.47 26.01C52.05 27.97 52.72 29.96 53.99 31.5C55.26 33.03 57.09 34.07 59.08 34.03L62.65 33.97C63.57 33.96 64.39 34.55 64.66 35.43L66.44 41.26C66.71 42.14 66.37 43.09 65.6 43.59L62.59 45.54C60.93 46.63 59.99 48.51 59.8 50.49C59.6 52.47 60.16 54.5 61.6 55.89L64.15 58.34C64.82 58.98 64.98 59.98 64.54 60.79L61.69 66.16C61.26 66.98 60.34 67.41 59.43 67.21L55.98 66.47C54.03 66.05 52.03 66.72 50.49 67.99C48.96 69.26 47.92 71.09 47.96 73.08L48.02 76.65C48.03 77.57 47.44 78.39 46.56 78.66L40.73 80.44C39.85 80.71 38.9 80.37 38.4 79.6L36.45 76.59C35.36 74.93 33.48 73.99 31.5 73.8C29.52 73.6 27.49 74.16 26.1 75.6L23.65 78.15C23.01 78.82 22.01 78.98 21.2 78.54L15.83 75.69C15.01 75.26 14.58 74.34 14.78 73.43L15.52 69.98C15.94 68.03 15.27 66.03 14 64.49C12.73 62.96 10.9 61.92 8.91 61.96L5.34 62.02C4.42 62.03 3.6 61.44 3.33 60.56L1.55 54.73C1.28 53.85 1.62 52.9 2.39 52.4L5.4 50.45C7.06 49.36 8 47.48 8.19 45.5C8.39 43.52 7.83 41.49 6.39 40.1L3.84 37.65C3.17 37.01 3.01 36.01 3.45 35.2L6.3 29.83C6.73 29.01 7.65 28.58 8.56 28.78L12.01 29.52C13.97 29.94 15.96 29.27 17.5 28C19.03 26.73 20.07 24.9 20.03 22.91L19.97 19.34C19.96 18.42 20.55 17.6 21.43 17.33L27.26 15.55Z" fill="url(#paint_radial_14987_15301_1)" fill-opacity="1.000000" fill-rule="evenodd"/>
		<path id="Union" d="M22.5 48C22.5 41.64 27.64 36.5 34 36.5C40.35 36.5 45.5 41.64 45.5 48C45.5 54.35 40.35 59.5 34 59.5C27.64 59.5 22.5 54.35 22.5 48ZM25.5 48C25.5 43.3 29.3 39.5 34 39.5C38.69 39.5 42.5 43.3 42.5 48C42.5 52.69 38.69 56.5 34 56.5C29.3 56.5 25.5 52.69 25.5 48Z" fill="#FFFFFF" fill-opacity="1.000000" fill-rule="evenodd"/>
	</g>
</svg>
