<svg width="96" height="96" viewBox="0 0 96 96" fill="none" xmlns="http://www.w3.org/2000/svg">
<path fill-rule="evenodd" clip-rule="evenodd" d="M75.12 16C75.76 16 76.32 16.42 76.5 17.04L77.19 19.43C77.57 20.77 78.63 21.77 79.91 22.31C81.2 22.84 82.67 22.88 83.88 22.2L86.03 21C86.6 20.69 87.3 20.79 87.75 21.24L90.75 24.24C91.2 24.69 91.3 25.39 90.99 25.96L89.79 28.11C89.11 29.32 89.15 30.79 89.68 32.08C90.22 33.36 91.22 34.42 92.56 34.8L94.95 35.49C95.57 35.67 96 36.23 96 36.87V41.12C96 41.76 95.57 42.32 94.95 42.5L92.56 43.19C91.22 43.57 90.22 44.63 89.68 45.91C89.15 47.2 89.11 48.67 89.79 49.88L90.99 52.03C91.3 52.6 91.2 53.3 90.75 53.75L87.75 56.75C87.3 57.2 86.6 57.3 86.03 56.99L83.88 55.79C82.67 55.11 81.2 55.15 79.91 55.68C78.63 56.22 77.57 57.22 77.19 58.56L76.5 60.95C76.32 61.57 75.76 62 75.12 62H70.87C70.23 62 69.67 61.57 69.49 60.95L68.8 58.56C68.42 57.22 67.36 56.22 66.08 55.68C64.79 55.15 63.32 55.11 62.11 55.79L59.96 56.99C59.39 57.3 58.69 57.2 58.24 56.75L55.24 53.75C54.79 53.3 54.69 52.6 55 52.03L56.2 49.88C56.88 48.67 56.84 47.2 56.31 45.91C55.77 44.63 54.77 43.57 53.43 43.19L51.04 42.5C50.42 42.32 50 41.76 50 41.12V36.87C50 36.23 50.42 35.67 51.04 35.49L53.43 34.8C54.77 34.42 55.77 33.36 56.31 32.08C56.84 30.79 56.88 29.32 56.2 28.11L55 25.96C54.69 25.39 54.79 24.69 55.24 24.24L58.24 21.24C58.69 20.79 59.39 20.69 59.96 21L62.11 22.2C63.32 22.88 64.79 22.84 66.08 22.31C67.36 21.77 68.42 20.77 68.8 19.43L69.49 17.04C69.67 16.42 70.23 16 70.87 16H75.12Z" fill="url(#paint0_linear_40_267)"/>
<path fill-rule="evenodd" clip-rule="evenodd" d="M27.2601 15.55C28.1401 15.28 29.0901 15.62 29.5901 16.39L31.5401 19.4C32.6301 21.06 34.5101 22 36.4901 22.19C38.4701 22.39 40.5001 21.83 41.8901 20.39L44.3401 17.84C44.9801 17.17 45.9801 17.01 46.7901 17.45L52.1601 20.3C52.9801 20.73 53.4101 21.65 53.2101 22.56L52.4701 26.01C52.0501 27.97 52.7201 29.96 53.9901 31.5C55.2601 33.03 57.0901 34.07 59.0801 34.03L62.6501 33.97C63.5701 33.96 64.3901 34.55 64.6601 35.43L66.4401 41.26C66.7101 42.14 66.3701 43.09 65.6001 43.59L62.5901 45.54C60.9301 46.63 59.9901 48.51 59.8001 50.49C59.6001 52.47 60.1601 54.5 61.6001 55.89L64.1501 58.34C64.8201 58.98 64.9801 59.98 64.5401 60.79L61.6901 66.16C61.2601 66.98 60.3401 67.41 59.4301 67.21L55.9801 66.47C54.0301 66.05 52.0301 66.72 50.4901 67.99C48.9601 69.26 47.9201 71.09 47.9601 73.08L48.0201 76.65C48.0301 77.57 47.4401 78.39 46.5601 78.66L40.7301 80.44C39.8501 80.71 38.9001 80.37 38.4001 79.6L36.4501 76.59C35.3601 74.93 33.4801 73.99 31.5001 73.8C29.5201 73.6 27.4901 74.16 26.1001 75.6L23.6501 78.15C23.0101 78.82 22.0101 78.98 21.2001 78.54L15.8301 75.69C15.0101 75.26 14.5801 74.34 14.7801 73.43L15.5201 69.98C15.9401 68.03 15.2701 66.03 14.0001 64.49C12.7301 62.96 10.9001 61.92 8.91006 61.96L5.34006 62.02C4.42006 62.03 3.60006 61.44 3.33006 60.56L1.55006 54.73C1.28006 53.85 1.62006 52.9 2.39006 52.4L5.40006 50.45C7.06006 49.36 8.00006 47.48 8.19006 45.5C8.39006 43.52 7.83006 41.49 6.39006 40.1L3.84006 37.65C3.17006 37.01 3.01006 36.01 3.45006 35.2L6.30006 29.83C6.73006 29.01 7.65006 28.58 8.56006 28.78L12.0101 29.52C13.9701 29.94 15.9601 29.27 17.5001 28C19.0301 26.73 20.0701 24.9 20.0301 22.91L19.9701 19.34C19.9601 18.42 20.5501 17.6 21.4301 17.33L27.2601 15.55Z" fill="#697591"/>
<path fill-rule="evenodd" clip-rule="evenodd" d="M27.2601 15.55C28.1401 15.28 29.0901 15.62 29.5901 16.39L31.5401 19.4C32.6301 21.06 34.5101 22 36.4901 22.19C38.4701 22.39 40.5001 21.83 41.8901 20.39L44.3401 17.84C44.9801 17.17 45.9801 17.01 46.7901 17.45L52.1601 20.3C52.9801 20.73 53.4101 21.65 53.2101 22.56L52.4701 26.01C52.0501 27.97 52.7201 29.96 53.9901 31.5C55.2601 33.03 57.0901 34.07 59.0801 34.03L62.6501 33.97C63.5701 33.96 64.3901 34.55 64.6601 35.43L66.4401 41.26C66.7101 42.14 66.3701 43.09 65.6001 43.59L62.5901 45.54C60.9301 46.63 59.9901 48.51 59.8001 50.49C59.6001 52.47 60.1601 54.5 61.6001 55.89L64.1501 58.34C64.8201 58.98 64.9801 59.98 64.5401 60.79L61.6901 66.16C61.2601 66.98 60.3401 67.41 59.4301 67.21L55.9801 66.47C54.0301 66.05 52.0301 66.72 50.4901 67.99C48.9601 69.26 47.9201 71.09 47.9601 73.08L48.0201 76.65C48.0301 77.57 47.4401 78.39 46.5601 78.66L40.7301 80.44C39.8501 80.71 38.9001 80.37 38.4001 79.6L36.4501 76.59C35.3601 74.93 33.4801 73.99 31.5001 73.8C29.5201 73.6 27.4901 74.16 26.1001 75.6L23.6501 78.15C23.0101 78.82 22.0101 78.98 21.2001 78.54L15.8301 75.69C15.0101 75.26 14.5801 74.34 14.7801 73.43L15.5201 69.98C15.9401 68.03 15.2701 66.03 14.0001 64.49C12.7301 62.96 10.9001 61.92 8.91006 61.96L5.34006 62.02C4.42006 62.03 3.60006 61.44 3.33006 60.56L1.55006 54.73C1.28006 53.85 1.62006 52.9 2.39006 52.4L5.40006 50.45C7.06006 49.36 8.00006 47.48 8.19006 45.5C8.39006 43.52 7.83006 41.49 6.39006 40.1L3.84006 37.65C3.17006 37.01 3.01006 36.01 3.45006 35.2L6.30006 29.83C6.73006 29.01 7.65006 28.58 8.56006 28.78L12.0101 29.52C13.9701 29.94 15.9601 29.27 17.5001 28C19.0301 26.73 20.0701 24.9 20.0301 22.91L19.9701 19.34C19.9601 18.42 20.5501 17.6 21.4301 17.33L27.2601 15.55Z" fill="url(#paint1_linear_40_267)"/>
<path fill-rule="evenodd" clip-rule="evenodd" d="M27.2601 15.55C28.1401 15.28 29.0901 15.62 29.5901 16.39L31.5401 19.4C32.6301 21.06 34.5101 22 36.4901 22.19C38.4701 22.39 40.5001 21.83 41.8901 20.39L44.3401 17.84C44.9801 17.17 45.9801 17.01 46.7901 17.45L52.1601 20.3C52.9801 20.73 53.4101 21.65 53.2101 22.56L52.4701 26.01C52.0501 27.97 52.7201 29.96 53.9901 31.5C55.2601 33.03 57.0901 34.07 59.0801 34.03L62.6501 33.97C63.5701 33.96 64.3901 34.55 64.6601 35.43L66.4401 41.26C66.7101 42.14 66.3701 43.09 65.6001 43.59L62.5901 45.54C60.9301 46.63 59.9901 48.51 59.8001 50.49C59.6001 52.47 60.1601 54.5 61.6001 55.89L64.1501 58.34C64.8201 58.98 64.9801 59.98 64.5401 60.79L61.6901 66.16C61.2601 66.98 60.3401 67.41 59.4301 67.21L55.9801 66.47C54.0301 66.05 52.0301 66.72 50.4901 67.99C48.9601 69.26 47.9201 71.09 47.9601 73.08L48.0201 76.65C48.0301 77.57 47.4401 78.39 46.5601 78.66L40.7301 80.44C39.8501 80.71 38.9001 80.37 38.4001 79.6L36.4501 76.59C35.3601 74.93 33.4801 73.99 31.5001 73.8C29.5201 73.6 27.4901 74.16 26.1001 75.6L23.6501 78.15C23.0101 78.82 22.0101 78.98 21.2001 78.54L15.8301 75.69C15.0101 75.26 14.5801 74.34 14.7801 73.43L15.5201 69.98C15.9401 68.03 15.2701 66.03 14.0001 64.49C12.7301 62.96 10.9001 61.92 8.91006 61.96L5.34006 62.02C4.42006 62.03 3.60006 61.44 3.33006 60.56L1.55006 54.73C1.28006 53.85 1.62006 52.9 2.39006 52.4L5.40006 50.45C7.06006 49.36 8.00006 47.48 8.19006 45.5C8.39006 43.52 7.83006 41.49 6.39006 40.1L3.84006 37.65C3.17006 37.01 3.01006 36.01 3.45006 35.2L6.30006 29.83C6.73006 29.01 7.65006 28.58 8.56006 28.78L12.0101 29.52C13.9701 29.94 15.9601 29.27 17.5001 28C19.0301 26.73 20.0701 24.9 20.0301 22.91L19.9701 19.34C19.9601 18.42 20.5501 17.6 21.4301 17.33L27.2601 15.55Z" fill="url(#paint2_radial_40_267)"/>
<path fill-rule="evenodd" clip-rule="evenodd" d="M22.5 48C22.5 41.64 27.64 36.5 34 36.5C40.35 36.5 45.5 41.64 45.5 48C45.5 54.35 40.35 59.5 34 59.5C27.64 59.5 22.5 54.35 22.5 48ZM25.5 48C25.5 43.3 29.3 39.5 34 39.5C38.69 39.5 42.5 43.3 42.5 48C42.5 52.69 38.69 56.5 34 56.5C29.3 56.5 25.5 52.69 25.5 48Z" fill="white"/>
<defs>
<linearGradient id="paint0_linear_40_267" x1="96" y1="16.0001" x2="68.0001" y2="41" gradientUnits="userSpaceOnUse">
<stop stop-color="#373C49"/>
<stop offset="1" stop-color="#636E88"/>
</linearGradient>
<linearGradient id="paint1_linear_40_267" x1="11.0594" y1="83.6636" x2="93.45" y2="4.08274" gradientUnits="userSpaceOnUse">
<stop stop-color="#373C49" stop-opacity="0"/>
<stop offset="1" stop-color="#373C49" stop-opacity="0.901961"/>
</linearGradient>
<radialGradient id="paint2_radial_40_267" cx="0" cy="0" r="1" gradientUnits="userSpaceOnUse" gradientTransform="translate(30.7001 55.6999) rotate(118.301) scale(23.6237 23.8378)">
<stop stop-color="#A9B6D0" stop-opacity="0.8"/>
<stop offset="1" stop-color="#A9B6D0" stop-opacity="0"/>
</radialGradient>
</defs>
</svg>
