<svg width="128.000000" height="128.000000" viewBox="0 0 128 128" fill="none" xmlns="http://www.w3.org/2000/svg" xmlns:xlink="http://www.w3.org/1999/xlink">
	<desc>
			Created with Pixso.
	</desc>
	<defs>
		<filter id="filter_14038_14234_dd" x="11.000000" y="20.000000" width="90.000000" height="90.000000" filterUnits="userSpaceOnUse" color-interpolation-filters="sRGB">
			<feFlood flood-opacity="0" result="BackgroundImageFix"/>
			<feGaussianBlur in="BackgroundImage" stdDeviation="6.66667"/>
			<feComposite in2="SourceAlpha" operator="in" result="effect_backgroundBlur_1"/>
			<feBlend mode="normal" in="SourceGraphic" in2="effect_backgroundBlur_1" result="shape"/>
			<feColorMatrix in="SourceAlpha" type="matrix" values="0 0 0 0 0 0 0 0 0 0 0 0 0 0 0 0 0 0 127 0" result="hardAlpha"/>
			<feOffset dx="0" dy="2"/>
			<feGaussianBlur stdDeviation="0.333333"/>
			<feComposite in2="hardAlpha" operator="arithmetic" k2="-1" k3="1"/>
			<feColorMatrix type="matrix" values="0 0 0 0 1 0 0 0 0 1 0 0 0 0 1 0 0 0 1 0"/>
			<feBlend mode="normal" in2="shape" result="effect_innerShadow_2"/>
		</filter>
		<clipPath id="clip14038_14231">
			<rect id="128/mc_sys_servicesetup_128" width="128.000000" height="128.000000" fill="white" fill-opacity="0"/>
		</clipPath>
	</defs>
	<g clip-path="url(#clip14038_14231)">
		<path id="Vector" d="M95.03 18C95.64 18 96.18 18.4 96.35 18.99L97.6 23.34C98.99 23.72 100.31 24.28 101.54 24.98L105.47 22.78C106 22.49 106.68 22.58 107.11 23.01L109.98 25.88C110.41 26.32 110.51 26.99 110.21 27.52L108.01 31.45C108.71 32.68 109.27 34 109.65 35.39L114 36.64C114.59 36.81 115 37.35 115 37.96L115 42.03C115 42.64 114.59 43.18 114 43.35L109.65 44.6C109.27 45.99 108.71 47.31 108.01 48.54L110.21 52.47C110.51 53 110.41 53.67 109.98 54.11L107.11 56.98C106.68 57.41 106 57.5 105.47 57.21L101.54 55.01C100.31 55.71 98.99 56.27 97.6 56.65L96.35 61C96.18 61.59 95.64 62 95.03 62L90.96 62C90.35 62 89.81 61.59 89.64 61L88.39 56.65C87 56.27 85.68 55.71 84.45 55.01L80.52 57.21C79.99 57.5 79.32 57.41 78.88 56.98L76.01 54.11C75.58 53.67 75.49 53 75.78 52.47L77.98 48.54C77.28 47.31 76.72 45.99 76.34 44.6L71.99 43.35C71.4 43.18 71 42.64 71 42.03L71 37.96C71 37.35 71.4 36.81 71.99 36.64L76.34 35.39C76.72 34 77.28 32.68 77.98 31.45L75.78 27.52C75.49 26.99 75.58 26.32 76.01 25.88L78.88 23.01C79.32 22.58 79.99 22.49 80.52 22.78L84.45 24.98C85.68 24.28 87 23.72 88.39 23.34L89.64 18.99C89.81 18.4 90.35 18 90.96 18L95.03 18Z" fill="#8291B3" fill-opacity="1.000000" fill-rule="evenodd"/>
		<g filter="url(#filter_14038_14234_dd)">
			<path id="Vector 3" d="M60.15 20C61.4 20 62.51 20.83 62.85 22.03L65.41 30.92C68.25 31.7 70.96 32.85 73.46 34.27L81.51 29.79C82.61 29.18 83.98 29.37 84.87 30.26L90.73 36.12C91.62 37.01 91.81 38.38 91.2 39.48L86.72 47.53C88.14 50.03 89.29 52.74 90.07 55.58L98.96 58.14C100.16 58.48 101 59.59 101 60.84L101 69.15C101 70.4 100.16 71.51 98.96 71.85L90.07 74.41C89.29 77.25 88.14 79.96 86.72 82.47L91.2 90.51C91.81 91.61 91.62 92.98 90.73 93.87L84.87 99.73C83.98 100.62 82.61 100.81 81.51 100.2L73.46 95.72C70.96 97.14 68.25 98.29 65.41 99.07L62.85 107.96C62.51 109.16 61.4 110 60.15 110L51.84 110C50.59 110 49.48 109.16 49.14 107.96L46.58 99.07C43.74 98.29 41.03 97.14 38.53 95.72L30.48 100.2C29.38 100.81 28.01 100.62 27.12 99.73L21.26 93.87C20.37 92.98 20.18 91.61 20.79 90.51L25.27 82.47C23.85 79.96 22.7 77.25 21.92 74.41L13.03 71.85C11.83 71.51 11 70.4 11 69.15L11 60.84C11 59.59 11.83 58.48 13.03 58.14L21.92 55.58C22.7 52.74 23.85 50.03 25.27 47.53L20.79 39.48C20.18 38.38 20.37 37.01 21.26 36.12L27.12 30.26C28.01 29.37 29.38 29.18 30.48 29.79L38.53 34.27C41.03 32.85 43.74 31.7 46.58 30.92L49.14 22.03C49.48 20.83 50.59 20 51.84 20L60.15 20ZM56 51C48.26 51 42 57.26 42 65C42 72.73 48.26 79 56 79C63.73 79 70 72.73 70 65C70 57.26 63.73 51 56 51Z" fill="#95A3C1" fill-opacity="0.400000" fill-rule="evenodd"/>
		</g>
	</g>
</svg>
