<svg width="128" height="128" viewBox="0 0 128 128" fill="none" xmlns="http://www.w3.org/2000/svg">
<circle cx="64" cy="64" r="64" fill="#B2B8BF" fill-opacity="0.2"/>
<g filter="url(#filter0_d)">
<path d="M95.9743 95.5518C96.2414 97.9234 94.3874 100 92.0026 100H35.9974C33.6126 100 31.7585 97.9234 32.0257 95.5518L38.3359 39.5518C38.5639 37.5289 40.2735 36 42.3077 36H85.6923C87.7264 36 89.4361 37.5289 89.6641 39.5518L95.9743 95.5518Z" fill="white"/>
</g>
<path d="M100 54C102.209 54 104 55.7909 104 58V78C104 80.2091 102.209 82 100 82H64C61.7909 82 60 80.2091 60 78V58C60 55.7909 61.7909 54 64 54H100ZM64 22C71.1594 22 77 27.1884 77 36H73C73 29.7391 69.1812 26 64 26C58.8188 26 55 29.7391 55 36H51C51 27.1884 56.8406 22 64 22Z" fill="#107F8C"/>
<path fill-rule="evenodd" clip-rule="evenodd" d="M81.0541 72C82.1155 72 83 72.9091 83 74C83 75.0909 82.1155 76 81.0541 76H72C70.9386 76 70.0541 75.0909 70.0541 74C70.0541 72.9091 70.9386 72 72 72H81.0541ZM104 62V64H60V62H104Z" fill="white"/>
<path d="M68 74C68 75.1046 67.1046 76 66 76C64.8954 76 64 75.1046 64 74C64 72.8954 64.8954 72 66 72C67.1046 72 68 72.8954 68 74Z" fill="white"/>
<defs>
<filter id="filter0_d" x="22" y="26" width="83.9999" height="84" filterUnits="userSpaceOnUse" color-interpolation-filters="sRGB">
<feFlood flood-opacity="0" result="BackgroundImageFix"/>
<feColorMatrix in="SourceAlpha" type="matrix" values="0 0 0 0 0 0 0 0 0 0 0 0 0 0 0 0 0 0 127 0"/>
<feOffset/>
<feGaussianBlur stdDeviation="5"/>
<feColorMatrix type="matrix" values="0 0 0 0 0.121569 0 0 0 0 0.121569 0 0 0 0 0.133333 0 0 0 0.1 0"/>
<feBlend mode="normal" in2="BackgroundImageFix" result="effect1_dropShadow"/>
<feBlend mode="normal" in="SourceGraphic" in2="effect1_dropShadow" result="shape"/>
</filter>
</defs>
</svg>
