<svg width="128" height="128" viewBox="0 0 128 128" fill="none" xmlns="http://www.w3.org/2000/svg">
<circle cx="64" cy="64" r="64" fill="#B2B8BF" fill-opacity="0.2"/>
<g filter="url(#filter0_d)">
<path d="M95.9743 95.5518C96.2414 97.9234 94.3874 100 92.0026 100H35.9974C33.6126 100 31.7585 97.9234 32.0257 95.5518L38.3359 39.5518C38.5639 37.5289 40.2736 36 42.3077 36H85.6923C87.7264 36 89.4361 37.5289 89.6641 39.5518L95.9743 95.5518Z" fill="white"/>
</g>
<path fill-rule="evenodd" clip-rule="evenodd" d="M51 36C51 27.2 56.8 22 64 22C71.2 22 77 27.2 77 36H73C73 29.7 69.2 26 64 26C58.8 26 55 29.7 55 36H51Z" fill="#107F8C"/>
<path fill-rule="evenodd" clip-rule="evenodd" d="M62.0759 56C62.0759 61.5228 57.5988 66 52.0759 66C46.5531 66 42.0759 61.5228 42.0759 56C42.0759 50.4772 46.5531 46 52.0759 46C57.5988 46 62.0759 50.4772 62.0759 56ZM52.0759 62C55.3896 62 58.0759 59.3137 58.0759 56C58.0759 52.6863 55.3896 50 52.0759 50C48.7622 50 46.0759 52.6863 46.0759 56C46.0759 59.3137 48.7622 62 52.0759 62Z" fill="#107F8C"/>
<path fill-rule="evenodd" clip-rule="evenodd" d="M86.0759 56C86.0759 61.5228 81.5988 66 76.0759 66C70.5531 66 66.0759 61.5228 66.0759 56C66.0759 50.4772 70.5531 46 76.0759 46C81.5988 46 86.0759 50.4772 86.0759 56ZM76.0759 62C79.3896 62 82.0759 59.3137 82.0759 56C82.0759 52.6863 79.3896 50 76.0759 50C72.7622 50 70.0759 52.6863 70.0759 56C70.0759 59.3137 72.7622 62 76.0759 62Z" fill="#107F8C"/>
<path fill-rule="evenodd" clip-rule="evenodd" d="M62.0759 80C62.0759 85.5228 57.5988 90 52.0759 90C46.5531 90 42.0759 85.5228 42.0759 80C42.0759 74.4772 46.5531 70 52.0759 70C57.5988 70 62.0759 74.4772 62.0759 80ZM52.0759 86C55.3896 86 58.0759 83.3137 58.0759 80C58.0759 76.6863 55.3896 74 52.0759 74C48.7622 74 46.0759 76.6863 46.0759 80C46.0759 83.3137 48.7622 86 52.0759 86Z" fill="#107F8C"/>
<path fill-rule="evenodd" clip-rule="evenodd" d="M86.0759 80C86.0759 85.5228 81.5988 90 76.0759 90C70.5531 90 66.0759 85.5228 66.0759 80C66.0759 74.4772 70.5531 70 76.0759 70C81.5988 70 86.0759 74.4772 86.0759 80ZM76.0759 86C79.3896 86 82.0759 83.3137 82.0759 80C82.0759 76.6863 79.3896 74 76.0759 74C72.7622 74 70.0759 76.6863 70.0759 80C70.0759 83.3137 72.7622 86 76.0759 86Z" fill="#107F8C"/>
<defs>
<filter id="filter0_d" x="22" y="26" width="83.9999" height="84" filterUnits="userSpaceOnUse" color-interpolation-filters="sRGB">
<feFlood flood-opacity="0" result="BackgroundImageFix"/>
<feColorMatrix in="SourceAlpha" type="matrix" values="0 0 0 0 0 0 0 0 0 0 0 0 0 0 0 0 0 0 127 0"/>
<feOffset/>
<feGaussianBlur stdDeviation="5"/>
<feColorMatrix type="matrix" values="0 0 0 0 0.121569 0 0 0 0 0.121569 0 0 0 0 0.133333 0 0 0 0.1 0"/>
<feBlend mode="normal" in2="BackgroundImageFix" result="effect1_dropShadow"/>
<feBlend mode="normal" in="SourceGraphic" in2="effect1_dropShadow" result="shape"/>
</filter>
</defs>
</svg>
