<svg width="24.000000" height="24.000000" viewBox="0 0 24 24" fill="none" xmlns="http://www.w3.org/2000/svg" xmlns:xlink="http://www.w3.org/1999/xlink">
	<desc>
			Created with Pixso.
	</desc>
	<defs/>
	<path id="Union" d="M4 11.5C4 7.35 7.35 4 11.5 4C12.77 4 13.98 4.31 15.03 4.88C15.51 5.14 16.12 4.95 16.38 4.47C16.64 3.98 16.46 3.37 15.97 3.11C14.64 2.4 13.11 2 11.5 2C6.25 2 2 6.25 2 11.5C2 16.17 5.37 20.06 9.82 20.85C10.36 20.94 10.88 20.58 10.98 20.04C11.08 19.49 10.71 18.98 10.17 18.88C6.66 18.25 4 15.18 4 11.5ZM19.28 6.38C19.62 6.81 19.55 7.44 19.11 7.78L12.11 13.28C11.76 13.56 11.28 13.57 10.91 13.31L7.41 10.81C6.96 10.49 6.86 9.86 7.18 9.41C7.5 8.96 8.13 8.86 8.58 9.18L11.47 11.25L17.88 6.21C18.31 5.87 18.94 5.94 19.28 6.38ZM20.93 10.38C20.87 9.83 20.37 9.44 19.82 9.5C19.27 9.57 18.88 10.06 18.94 10.61C18.98 10.9 19 11.2 19 11.5C19 11.73 18.98 11.96 18.96 12.19C18.91 12.74 19.32 13.23 19.87 13.28C20.42 13.33 20.9 12.92 20.96 12.37C20.98 12.08 21 11.79 21 11.5C21 11.12 20.97 10.75 20.93 10.38ZM16.5 11.81C16.88 11.81 17.22 12.03 17.39 12.37L18.48 14.58L20.92 14.93C21.3 14.99 21.61 15.25 21.73 15.61C21.84 15.98 21.75 16.37 21.47 16.64L19.71 18.36L20.13 20.78C20.19 21.16 20.04 21.54 19.73 21.76C19.42 21.99 19.01 22.02 18.67 21.84L16.5 20.69L14.32 21.84C13.98 22.02 13.57 21.99 13.26 21.76C12.95 21.54 12.8 21.16 12.86 20.78L13.28 18.36L11.52 16.64C11.24 16.37 11.15 15.98 11.26 15.61C11.38 15.25 11.69 14.99 12.07 14.93L14.51 14.58L15.6 12.37C15.77 12.03 16.11 11.81 16.5 11.81ZM16.5 15.07L16.07 15.94C15.92 16.23 15.64 16.44 15.32 16.48L14.36 16.62L15.05 17.29C15.29 17.52 15.4 17.85 15.34 18.18L15.18 19.13L16.03 18.68C16.32 18.52 16.67 18.52 16.96 18.68L17.81 19.13L17.65 18.18C17.59 17.85 17.7 17.52 17.94 17.29L18.63 16.62L17.67 16.48C17.35 16.44 17.07 16.23 16.92 15.94L16.5 15.07Z" fill="#FFFFFF" fill-opacity="0.350000" fill-rule="evenodd"/>
</svg>
