<svg width="20.000000" height="20.000000" viewBox="0 0 20 20" fill="none" xmlns="http://www.w3.org/2000/svg" xmlns:xlink="http://www.w3.org/1999/xlink">
	<desc>
			Created with Pixso.
	</desc>
	<defs/>
	<path id="Union" d="M2 9.5C2 5.35 5.35 2 9.5 2C10.77 2 11.98 2.31 13.03 2.88C13.51 3.14 14.12 2.95 14.38 2.47C14.64 1.98 14.46 1.37 13.97 1.11C12.64 0.4 11.11 0 9.5 0C4.25 0 0 4.25 0 9.5C0 14.17 3.37 18.06 7.82 18.85C8.36 18.94 8.88 18.58 8.98 18.04C9.08 17.49 8.71 16.98 8.17 16.88C4.66 16.25 2 13.18 2 9.5ZM17.28 4.38C17.62 4.81 17.55 5.44 17.11 5.78L10.11 11.28C9.76 11.56 9.28 11.57 8.91 11.31L5.41 8.81C4.96 8.49 4.86 7.86 5.18 7.41C5.5 6.96 6.13 6.86 6.58 7.18L9.47 9.25L15.88 4.21C16.31 3.87 16.94 3.94 17.28 4.38ZM18.93 8.38C18.87 7.83 18.37 7.44 17.82 7.5C17.27 7.57 16.88 8.06 16.94 8.61C16.98 8.9 17 9.2 17 9.5C17 9.73 16.98 9.96 16.96 10.19C16.91 10.74 17.32 11.23 17.87 11.28C18.42 11.33 18.9 10.92 18.95 10.37C18.98 10.08 19 9.79 19 9.5C19 9.12 18.97 8.75 18.93 8.38ZM14.5 9.81C14.88 9.81 15.22 10.03 15.39 10.37L16.48 12.58L18.92 12.93C19.3 12.99 19.61 13.25 19.73 13.61C19.84 13.98 19.75 14.37 19.47 14.64L17.71 16.36L18.13 18.78C18.19 19.16 18.04 19.54 17.73 19.76C17.42 19.99 17.01 20.02 16.67 19.84L14.5 18.69L12.32 19.84C11.98 20.02 11.57 19.99 11.26 19.76C10.95 19.54 10.8 19.16 10.86 18.78L11.28 16.36L9.52 14.64C9.24 14.37 9.15 13.98 9.26 13.61C9.38 13.25 9.69 12.99 10.07 12.93L12.51 12.58L13.6 10.37C13.77 10.03 14.11 9.81 14.5 9.81ZM14.5 13.07L14.07 13.94C13.92 14.23 13.64 14.44 13.32 14.48L12.36 14.62L13.05 15.29C13.29 15.52 13.4 15.85 13.34 16.18L13.18 17.13L14.03 16.68C14.32 16.52 14.67 16.52 14.96 16.68L15.81 17.13L15.65 16.18C15.59 15.85 15.7 15.52 15.94 15.29L16.63 14.62L15.67 14.48C15.35 14.44 15.07 14.23 14.92 13.94L14.5 13.07Z" fill="#000000" fill-opacity="0.350000" fill-rule="evenodd"/>
</svg>
