<svg width="32.000000" height="32.000000" viewBox="0 0 32 32" fill="none" xmlns="http://www.w3.org/2000/svg" xmlns:xlink="http://www.w3.org/1999/xlink">
	<desc>
			Created with Pixso.
	</desc>
	<defs/>
	<path id="Union" d="M6 16.5C6 10.97 10.47 6.5 16 6.5C17.93 6.5 19.74 7.04 21.26 7.99C21.73 8.29 22.35 8.14 22.64 7.67C22.93 7.2 22.79 6.59 22.32 6.3C20.48 5.15 18.31 4.5 16 4.5C9.37 4.5 4 9.87 4 16.5C4 22.57 8.51 27.59 14.36 28.38C14.91 28.46 15.41 28.08 15.49 27.53C15.56 26.98 15.18 26.48 14.63 26.4C9.75 25.74 6 21.55 6 16.5ZM26.78 9.37C27.12 9.8 27.05 10.43 26.62 10.78L16.62 18.78C16.26 19.06 15.75 19.07 15.38 18.78L10.88 15.28C10.45 14.95 10.37 14.32 10.71 13.88C11.04 13.45 11.67 13.37 12.11 13.71L15.99 16.72L25.37 9.21C25.8 8.87 26.43 8.94 26.78 9.37ZM27.96 15.6C27.92 15.05 27.44 14.63 26.89 14.67C26.34 14.71 25.93 15.19 25.97 15.74C25.99 15.99 26 16.24 26 16.5C26 16.96 25.96 17.41 25.9 17.86C25.83 18.41 26.21 18.91 26.76 18.99C27.31 19.06 27.81 18.68 27.88 18.13C27.96 17.6 28 17.05 28 16.5C28 16.19 27.98 15.89 27.96 15.6ZM22 17C22.38 17 22.72 17.21 22.89 17.55L24.42 20.65L27.85 21.15C28.22 21.21 28.53 21.47 28.65 21.83C28.77 22.19 28.67 22.59 28.4 22.86L25.92 25.27L26.51 28.68C26.57 29.06 26.42 29.43 26.11 29.66C25.8 29.88 25.39 29.91 25.06 29.73L22 28.12L18.93 29.73C18.6 29.91 18.19 29.88 17.88 29.66C17.57 29.43 17.42 29.06 17.48 28.68L18.07 25.27L15.59 22.86C15.32 22.59 15.22 22.19 15.34 21.83C15.46 21.47 15.77 21.21 16.14 21.15L19.57 20.65L21.1 17.55C21.27 17.21 21.61 17 22 17ZM22 20.25L21.13 22.01C20.98 22.31 20.7 22.51 20.38 22.56L18.44 22.84L19.84 24.21C20.08 24.44 20.18 24.77 20.13 25.09L19.8 27.02L21.53 26.11C21.82 25.96 22.17 25.96 22.46 26.11L24.19 27.02L23.86 25.09C23.81 24.77 23.91 24.44 24.15 24.21L25.55 22.84L23.61 22.56C23.29 22.51 23.01 22.31 22.86 22.01L22 20.25Z" fill="#000000" fill-opacity="0.350000" fill-rule="evenodd"/>
</svg>
