<svg width="20" height="20" viewBox="0 0 20 20" fill="none" xmlns="http://www.w3.org/2000/svg">
<path d="M13 13C13 12.4477 13.4477 12 14 12H16C16.5523 12 17 12.4477 17 13C17 13.5523 16.5523 14 16 14H14C13.4477 14 13 13.5523 13 13Z" fill="#1F1F22"/>
<path d="M4 12C3.44772 12 3 12.4477 3 13C3 13.5523 3.44772 14 4 14H6C6.55228 14 7 13.5523 7 13C7 12.4477 6.55228 12 6 12H4Z" fill="#1F1F22"/>
<path fill-rule="evenodd" clip-rule="evenodd" d="M5.55958 4.76599C5.67795 4.24575 6.07185 4 6.29012 4H8C8.55228 4 9 3.55228 9 3C9 2.44772 8.55228 2 8 2H6.29012C4.88933 2 3.87412 3.1589 3.60942 4.32226L2.54071 9.01923L2.53705 9.0355C1.10001 9.2581 0 10.5006 0 12V14C0 15.3062 0.834808 16.4175 2 16.8293V17C2 18.6569 3.34315 20 5 20C6.65685 20 8 18.6569 8 17H12C12.0001 18.6566 13.3431 20 15 20C16.6569 20 18 18.6569 18 17V16.8293C19.1652 16.4175 20 15.3062 20 14V12C20 10.3431 18.6569 9 17 9H4.5962L5.55958 4.76599ZM2 12C2 11.4477 2.44772 11 3 11H17C17.5523 11 18 11.4477 18 12V14C18 14.5523 17.5523 15 17 15C16.4477 15 16 15.4477 16 16V17C16 17.5523 15.5523 18 15 18C14.4478 18 14 17.5522 14 16.9998V16C14 15.4477 13.5523 15 13 15H7C6.44772 15 6 15.4477 6 16V17C6 17.5523 5.55228 18 5 18C4.44772 18 4 17.5523 4 17L4 16C4 15.4477 3.55228 15 3 15C2.44772 15 2 14.5523 2 14V12Z" fill="#1F1F22"/>
<path d="M19.7071 1.70711C20.0976 1.31658 20.0976 0.683417 19.7071 0.292893C19.3166 -0.0976311 18.6834 -0.0976311 18.2929 0.292893L12.2929 6.29289C11.9024 6.68342 11.9024 7.31658 12.2929 7.70711C12.6834 8.09763 13.3166 8.09763 13.7071 7.70711L19.7071 1.70711Z" fill="#1F1F22"/>
<path d="M13.5 3C14.3284 3 15 2.32843 15 1.5C15 0.671573 14.3284 1.86265e-08 13.5 1.86265e-08C12.6716 1.86265e-08 12 0.671573 12 1.5C12 2.32843 12.6716 3 13.5 3Z" fill="#1F1F22"/>
<path d="M18.5 8C19.3284 8 20 7.32843 20 6.5C20 5.67157 19.3284 5 18.5 5C17.6716 5 17 5.67157 17 6.5C17 7.32843 17.6716 8 18.5 8Z" fill="#1F1F22"/>
</svg>
