<svg width="32" height="32" viewBox="0 0 32 32" fill="none" xmlns="http://www.w3.org/2000/svg">
<path d="M4 14.9999C4.55226 14.9999 4.99996 15.4477 5 15.9999C5 22.0751 9.92487 26.9999 16 26.9999C16.5523 26.9999 17 27.4477 17 27.9999C17 28.5522 16.5523 28.9999 16 28.9999C8.8203 28.9999 3 23.1796 3 15.9999C3.00004 15.4477 3.44774 14.9999 4 14.9999Z" fill="#1F1F22"/>
<path fill-rule="evenodd" clip-rule="evenodd" d="M24 16.9999C25.933 16.9999 27.5 18.567 27.5 20.4999C27.5 22.4329 25.933 23.9999 24 23.9999H22.5V24.9999H23.4883C24.0405 24.9999 24.4882 25.4477 24.4883 25.9999C24.4883 26.5522 24.0406 26.9999 23.4883 26.9999H22.5V27.9999C22.5 28.5522 22.0523 28.9999 21.5 28.9999C20.9477 28.9999 20.5 28.5522 20.5 27.9999V26.9999H19.5C18.9477 26.9999 18.5 26.5522 18.5 25.9999C18.5 25.4477 18.9477 24.9999 19.5 24.9999H20.5V23.9999H19.5C18.9477 23.9999 18.5 23.5522 18.5 22.9999C18.5 22.4477 18.9477 21.9999 19.5 21.9999H20.5V17.9999L20.5049 17.8974C20.5562 17.3933 20.9823 16.9999 21.5 16.9999H24ZM22.5 21.9999H24C24.8284 21.9999 25.5 21.3284 25.5 20.4999C25.5 19.6715 24.8284 18.9999 24 18.9999H22.5V21.9999Z" fill="#1F1F22"/>
<path d="M16 2.99993C23.1797 2.99993 29 8.82026 29 15.9999C29 16.5522 28.5523 16.9999 28 16.9999C27.4477 16.9999 27 16.5522 27 15.9999C27 9.92483 22.0751 4.99993 16 4.99993C15.4477 4.99993 15 4.55222 15 3.99993C15 3.44768 15.4477 2.99993 16 2.99993Z" fill="#1F1F22"/>
<path d="M5.48535 3.14251C5.95887 2.85848 6.57326 3.01185 6.85742 3.48529L8.99902 7.0556L11.1426 3.48529C11.4267 3.01185 12.0411 2.85848 12.5146 3.14251C12.9881 3.4267 13.1415 4.04105 12.8574 4.51458L10.7666 7.99993H11C11.5523 7.99993 12 8.44768 12 8.99993C12 9.55222 11.5523 9.99993 11 9.99993H10V10.9999H11C11.5523 10.9999 12 11.4477 12 11.9999C12 12.5522 11.5523 12.9999 11 12.9999H10V13.9999C10 14.5522 9.55228 14.9999 9 14.9999C8.44772 14.9999 8 14.5522 8 13.9999V12.9999H7C6.44772 12.9999 6 12.5522 6 11.9999C6.00004 11.4477 6.44774 10.9999 7 10.9999H8V9.99993H7C6.44772 9.99993 6 9.55222 6 8.99993C6.00004 8.44768 6.44774 7.99993 7 7.99993H7.2334L5.14258 4.51458C4.85846 4.04105 5.01188 3.4267 5.48535 3.14251Z" fill="#1F1F22"/>
</svg>
