<svg width="32" height="32" viewBox="0 0 32 32" fill="none" xmlns="http://www.w3.org/2000/svg">
<path fill-rule="evenodd" clip-rule="evenodd" d="M27 7C27 5.34 25.65 4 24 4H8C6.34 4 5 5.34 5 7V24C5 25.65 6.34 27 8 27H11V28C11 28.55 11.44 29 12 29C12.55 29 13 28.55 13 28V27H19V28C19 28.55 19.44 29 20 29C20.55 29 21 28.55 21 28V27H24C25.65 27 27 25.65 27 24V7ZM7 7C7 6.44 7.44 6 8 6H24C24.55 6 25 6.44 25 7V24C25 24.55 24.55 25 24 25H8C7.44 25 7 24.55 7 24V7ZM20 19C20 16.79 18.2 15 16 15C13.79 15 12 16.79 12 19C12 21.2 13.79 23 16 23C18.2 23 20 21.2 20 19ZM14 19C14 17.89 14.89 17 16 17C17.1 17 18 17.89 18 19C18 20.1 17.1 21 16 21C14.89 21 14 20.1 14 19Z" fill="#1F1F22"/>
</svg>
