<svg width="32" height="32" viewBox="0 0 32 32" fill="none" xmlns="http://www.w3.org/2000/svg">
<path fill-rule="evenodd" clip-rule="evenodd" d="M22.8555 15.0111C22.9993 14.9901 23.1468 15.0003 23.2871 15.0423L28.2871 16.5423C28.7098 16.6694 29 17.0589 29 17.5003V20.5003C28.9999 22.6323 28.3663 24.3077 27.3271 25.6722C26.307 27.0117 24.9291 28.008 23.5146 28.8578C23.1981 29.0478 22.802 29.0476 22.4854 28.8578C21.0702 28.0076 19.6927 27.0085 18.6729 25.6683C17.6343 24.3033 17.0001 22.6285 17 20.5003V17.5003C17 17.0587 17.2899 16.6692 17.7129 16.5423L22.7129 15.0423L22.8555 15.0111ZM19 18.2445V20.5003C19.0001 22.1911 19.491 23.4406 20.2646 24.4574C20.953 25.3618 21.8912 26.1157 23 26.8236C24.1094 26.1158 25.0472 25.3638 25.7354 24.4603C26.5086 23.445 26.9999 22.1956 27 20.5003V18.2445L23 17.0443L19 18.2445Z" fill="#1F1F22"/>
<path d="M15 22.0003C15.5521 22.0005 16 22.4482 16 23.0003C15.9998 23.5523 15.552 24.0001 15 24.0003H5C4.44786 24.0003 4.00024 23.5524 4 23.0003C4 22.4481 4.44772 22.0003 5 22.0003H15Z" fill="#1F1F22"/>
<path d="M8 11.0003C8.55228 11.0003 9 11.4481 9 12.0003V19.0003C8.99976 19.5524 8.55214 20.0003 8 20.0003C7.44792 20.0003 7.00024 19.5524 7 19.0003V12.0003C7 11.4481 7.44777 11.0004 8 11.0003Z" fill="#1F1F22"/>
<path d="M13 11.0003C13.5523 11.0003 14 11.4481 14 12.0003V19.0003C13.9998 19.5524 13.5521 20.0003 13 20.0003C12.4479 20.0003 12.0002 19.5524 12 19.0003V12.0003C12 11.4481 12.4478 11.0004 13 11.0003Z" fill="#1F1F22"/>
<path d="M18 11.0003C18.5521 11.0005 19 11.4482 19 12.0003V14.0003C18.9998 14.5523 18.552 15.0001 18 15.0003C17.4479 15.0003 17.0002 14.5524 17 14.0003V12.0003C17 11.4481 17.4477 11.0003 18 11.0003Z" fill="#1F1F22"/>
<path d="M12.6963 4.54722C12.9264 4.47394 13.1769 4.48665 13.4004 4.58433L21.4004 8.08433C21.9059 8.30582 22.1371 8.89499 21.916 9.40073C21.6947 9.9063 21.1053 10.1371 20.5996 9.91636L13 6.59116L5.40039 9.91636C4.89465 10.1374 4.30548 9.90626 4.08398 9.40073C3.86285 8.89482 4.09373 8.30565 4.59961 8.08433L12.5996 4.58433L12.6963 4.54722Z" fill="#1F1F22"/>
</svg>
