<svg width="20" height="20" viewBox="0 0 20 20" fill="none" xmlns="http://www.w3.org/2000/svg">
<g clip-path="url(#clip0_262_578)">
<path d="M0.293023 13.2929C0.683547 12.9024 1.31656 12.9024 1.70709 13.2929L5.70709 17.2929C6.09761 17.6834 6.09761 18.3165 5.70709 18.707C5.31656 19.0975 4.68355 19.0975 4.29302 18.707L0.293023 14.707C-0.0975013 14.3165 -0.0975013 13.6834 0.293023 13.2929Z" fill="#1F1F22"/>
<path fill-rule="evenodd" clip-rule="evenodd" d="M17.5001 13.9999C18.8808 13.9999 20.0001 15.1192 20.0001 16.4999C20.0001 17.8807 18.8808 18.9999 17.5001 18.9999C16.1193 18.9999 15.0001 17.8807 15.0001 16.4999C15.0001 15.1192 16.1193 13.9999 17.5001 13.9999ZM17.5001 15.9999C17.2239 15.9999 17.0001 16.2238 17.0001 16.4999C17.0001 16.7761 17.2239 16.9999 17.5001 16.9999C17.7762 16.9999 18.0001 16.7761 18.0001 16.4999C18.0001 16.2238 17.7762 15.9999 17.5001 15.9999Z" fill="#1F1F22"/>
<path fill-rule="evenodd" clip-rule="evenodd" d="M6.08892 0.167913C6.91597 -0.098861 7.99513 -0.0781122 8.67095 0.454046C9.19965 0.870521 9.40233 1.4491 9.42584 1.85151C9.44324 1.86696 9.47996 1.89763 9.52642 1.93647C9.66908 2.05572 9.90881 2.25534 9.99712 2.35541L10.004 2.45112V2.35541C10.0925 2.25526 10.3312 2.0556 10.4737 1.93647C10.5202 1.89757 10.5569 1.86695 10.5743 1.85151C10.5978 1.44904 10.8013 0.870535 11.3301 0.454046C12.0059 -0.077884 13.0843 -0.0987882 13.9112 0.167913C14.9282 0.49602 15.3559 1.14615 15.4737 1.75092C16.061 0.777764 16.5291 0.525985 16.8438 0.422796C17.6704 0.151787 18.5379 0.394288 19.1163 1.16791C19.4858 1.66262 19.7438 3.07073 19.8282 3.5644C19.9288 4.15308 20.101 5.42457 19.9229 6.9892C19.7181 8.78759 18.8171 10.8293 18.2061 11.4824C17.578 12.1536 17.1498 12.5115 16.5176 12.7353C15.9335 12.942 15.6071 12.9238 15.5362 12.9199C15.5308 12.9196 15.5268 12.9199 15.5245 12.9199C15.3949 13.4418 15.3089 13.6513 15.1749 13.8896C14.9981 14.2037 14.6212 14.5419 14.2129 14.7382L14.2139 14.7451C14.2917 15.0638 14.3573 15.3312 14.2676 15.8496C14.1772 16.3717 13.8312 16.9595 13.3526 17.3417C12.8924 17.7092 12.0505 18.0091 11.5879 18.1738C11.4627 18.2184 11.3651 18.2528 11.3106 18.2763C11.0651 18.4789 10.5332 18.7515 10.0723 18.7558H9.93853C9.47544 18.7556 8.93797 18.4804 8.69048 18.2763C8.63599 18.2528 8.53773 18.2185 8.41216 18.1738C7.9496 18.0091 7.10774 17.7092 6.64752 17.3417C6.16897 16.9594 5.82291 16.3717 5.73248 15.8496C5.64284 15.3312 5.70843 15.0638 5.78619 14.7451L5.78814 14.7382C5.37981 14.5419 5.00204 14.2037 4.82525 13.8896C4.6913 13.6514 4.60609 13.4416 4.47662 12.9199C4.47425 12.9199 4.46969 12.9196 4.46392 12.9199C4.39316 12.9238 4.06689 12.9422 3.48248 12.7353C2.85029 12.5115 2.42219 12.1537 1.794 11.4824C1.18299 10.8293 0.282015 8.78758 0.0772027 6.9892C-0.10089 5.42456 0.0713559 4.15307 0.171929 3.5644C0.256284 3.07079 0.514281 1.66265 0.883843 1.16791C1.46211 0.394287 2.32975 0.151918 3.1563 0.422796C3.471 0.526002 3.94017 0.777848 4.5274 1.75092C4.64521 1.14617 5.07194 0.49603 6.08892 0.167913ZM13.5098 2.14838C13.2646 2.03517 12.7952 1.90043 12.5391 2.05268C12.4939 2.11474 12.4967 2.24476 12.5157 2.3144C12.6117 2.66509 12.4548 3.03815 12.1417 3.20112C11.8832 3.33546 11.5697 3.60044 11.2735 3.92865C10.9793 4.25473 10.7552 4.58456 10.6504 4.79584C10.5256 5.04737 10.2758 5.20584 10.004 5.206C9.73208 5.206 9.48247 5.04731 9.35748 4.79584C9.25275 4.58457 9.02764 4.25472 8.73345 3.92865C8.43743 3.60061 8.12468 3.33549 7.86627 3.20112C7.55284 3.03825 7.39519 2.66524 7.49127 2.3144C7.48941 2.30311 7.44863 2.05414 7.45025 2.04487C7.14349 1.9498 6.75623 2.02934 6.4981 2.14838C6.49872 2.19047 6.51665 2.31919 6.5772 2.52533C6.65456 2.7895 6.58817 3.07726 6.40337 3.27533C6.35047 3.33211 6.29444 3.43792 6.25591 3.60639C6.21865 3.7697 6.20904 3.94009 6.20904 4.0683C6.20914 4.10225 6.2269 4.38377 6.25591 4.35053C6.28801 4.31207 6.31167 4.25909 6.36334 4.20795C6.48388 4.08882 6.72401 3.89263 7.08013 3.89252C7.49582 3.89255 7.76175 4.16877 7.88189 4.32514C8.01599 4.49975 8.10875 4.70351 8.17291 4.87397C8.30608 5.22799 8.37881 5.59807 8.38677 5.97553C8.38996 6.12662 8.39601 6.43071 8.35748 6.68061C8.3335 6.83586 8.28051 7.07176 8.13384 7.28412C7.95872 7.53731 7.67544 7.71575 7.32427 7.71576C7.08437 7.71564 6.87966 7.61484 6.76861 7.55366C6.63507 7.48002 6.50047 7.38439 6.37408 7.2851C6.11923 7.08485 5.83642 6.81915 5.56158 6.53608C5.0162 5.97432 4.43236 5.27122 4.0938 4.72748C3.73706 4.15439 3.25165 3.42643 2.86822 2.85248C2.73343 2.65072 2.61086 2.46721 2.51666 2.32416C2.48648 2.29634 2.09258 3.86534 2.02935 4.76264C1.95328 5.84313 2.0151 7.07858 2.37408 8.19526C2.75006 9.36453 3.12636 9.97657 3.42877 10.3163C3.71749 10.6407 3.97317 10.7595 4.2481 10.8828C4.32418 10.9168 4.53679 10.9624 4.96294 10.8525C5.37971 10.745 5.93694 10.5048 6.64263 10.0693C6.9648 9.87042 7.37941 9.95867 7.60064 10.2734C7.82161 10.5882 7.77735 11.0263 7.4981 11.2861C7.21018 11.5537 6.98622 11.7639 6.8106 11.954C6.63465 12.1446 6.54391 12.2777 6.4981 12.3769C6.46043 12.4586 6.45157 12.5198 6.46099 12.5947C6.46838 12.653 6.4889 12.7366 6.53912 12.8515C6.56949 12.9175 6.95603 13.0627 7.14654 13.0976C7.27699 13.1214 7.4558 13.115 7.48052 13.0468C7.50472 12.9784 7.54946 12.8518 7.59185 12.7607C7.65226 12.6309 7.78905 12.3758 8.07427 12.2265C8.56199 11.9714 9.22561 12.1907 9.42095 12.7148C9.50019 12.9278 9.48558 13.1287 9.45123 13.2724C9.39 13.5278 9.23794 13.7331 9.13384 13.8593C8.90297 14.1391 8.54174 14.4545 8.14556 14.7714C7.89248 14.9739 7.76403 15.166 7.71783 15.3037C7.68306 15.4074 7.68245 15.5039 7.76763 15.6396C7.89246 15.8374 8.2245 15.9501 8.42584 16.0351C8.79434 16.1907 9.1977 16.308 9.57525 16.4755C10.4005 16.8418 9.58836 16.8499 10.4317 16.4755C10.8094 16.3079 11.2135 16.1908 11.5821 16.0351C11.7836 15.95 12.1157 15.8375 12.2403 15.6396C12.3254 15.504 12.3248 15.4074 12.2901 15.3037C12.2439 15.166 12.1153 14.9739 11.8624 14.7714C11.466 14.4544 11.104 14.1392 10.8731 13.8593C10.769 13.7331 10.6169 13.5278 10.5557 13.2724C10.5214 13.1287 10.5068 12.9278 10.586 12.7148C10.7816 12.19 11.4436 11.97 11.9336 12.2265C12.2186 12.3759 12.3547 12.631 12.4151 12.7607C12.4575 12.8518 12.5032 12.9784 12.5274 13.0468C12.5526 13.1148 12.7469 13.1276 12.8604 13.0976C13.0408 13.0497 13.4195 12.9331 13.4678 12.8515C13.5488 12.7117 13.5775 12.5259 13.5088 12.3769C13.463 12.2777 13.3723 12.1446 13.1963 11.954C13.0208 11.7639 12.7967 11.5537 12.5088 11.2861C12.2297 11.0263 12.1853 10.5881 12.4063 10.2734C12.6275 9.95857 13.0421 9.87039 13.3643 10.0693C14.0701 10.5049 14.6272 10.745 15.044 10.8525C15.4704 10.9625 15.6828 10.9168 15.7588 10.8828C16.0339 10.7594 16.2903 10.6408 16.5792 10.3163C16.8815 9.97651 17.257 9.36421 17.6329 8.19526C17.9919 7.07856 18.0537 5.84316 17.9776 4.76264C17.9253 4.02041 17.893 2.98636 17.4903 2.32416C17.4685 2.29234 17.2732 2.65123 17.1387 2.85248C16.7553 3.42642 16.2699 4.15441 15.9131 4.72748C15.5746 5.27125 14.9908 5.97433 14.4454 6.53608C14.1705 6.81923 13.8878 7.08482 13.6329 7.2851C13.5064 7.38446 13.372 7.47999 13.2383 7.55366C13.1273 7.61486 12.9227 7.7157 12.6827 7.71576C12.3315 7.71576 12.0492 7.5373 11.8741 7.28412C11.7272 7.07166 11.6735 6.83594 11.6495 6.68061C11.6109 6.4307 11.618 6.12662 11.6211 5.97553C11.6291 5.59806 11.7009 5.228 11.834 4.87397C11.8982 4.70347 11.9919 4.49979 12.126 4.32514C12.2463 4.16871 12.5114 3.89252 12.9268 3.89252C13.2829 3.89256 13.523 4.08878 13.6436 4.20795C13.6952 4.25904 13.7404 4.31209 13.7725 4.35053C13.7725 4.35053 13.7974 4.0805 13.7979 4.0683C13.7979 3.94008 13.7883 3.76971 13.751 3.60639C13.7126 3.43828 13.6574 3.3322 13.6045 3.27533C13.4197 3.07726 13.3524 2.78951 13.4297 2.52533C13.4903 2.31919 13.5092 2.19047 13.5098 2.14838Z" fill="#1F1F22"/>
</g>
<defs>
<clipPath id="clip0_262_578">
<rect width="20" height="20" fill="white"/>
</clipPath>
</defs>
</svg>
