<svg width="20" height="20" viewBox="0 0 20 20" fill="none" xmlns="http://www.w3.org/2000/svg">
<path d="M8 14C8.55228 14 9 14.4477 9 15C9 15.5523 8.55228 16 8 16H7C6.44772 16 6 15.5523 6 15C6 14.4477 6.44772 14 7 14H8Z" fill="#1F1F22"/>
<path d="M13 14C13.5523 14 14 14.4477 14 15C14 15.5523 13.5523 16 13 16H12C11.4477 16 11 15.5523 11 15C11 14.4477 11.4477 14 12 14H13Z" fill="#1F1F22"/>
<path d="M8 10C8.55228 10 9 10.4477 9 11C9 11.5523 8.55228 12 8 12H7C6.44772 12 6 11.5523 6 11C6 10.4477 6.44772 10 7 10H8Z" fill="#1F1F22"/>
<path d="M13 10C13.5523 10 14 10.4477 14 11C14 11.5523 13.5523 12 13 12H12C11.4477 12 11 11.5523 11 11C11 10.4477 11.4477 10 12 10H13Z" fill="#1F1F22"/>
<path d="M8 6C8.55228 6 9 6.44772 9 7C9 7.55228 8.55228 8 8 8H7C6.44772 8 6 7.55228 6 7C6 6.44772 6.44772 6 7 6H8Z" fill="#1F1F22"/>
<path fill-rule="evenodd" clip-rule="evenodd" d="M9.17188 0C9.96742 8.00361e-05 10.7304 0.316368 11.293 0.878906L17.1211 6.70703C17.6836 7.26957 17.9999 8.03259 18 8.82812V17C18 18.6569 16.6569 20 15 20H5C3.34315 20 2 18.6569 2 17V3C2 1.34315 3.34315 4.83192e-08 5 0H9.17188ZM5 2C4.44772 2 4 2.44772 4 3V17C4 17.5523 4.44772 18 5 18H15C15.5523 18 16 17.5523 16 17V8.82812C15.9999 8.56302 15.8945 8.30856 15.707 8.12109L9.87891 2.29297C9.69144 2.1055 9.43698 2.00008 9.17188 2H5Z" fill="#1F1F22"/>
</svg>
