<svg width="20" height="20" viewBox="0 0 20 20" fill="none" xmlns="http://www.w3.org/2000/svg">
<path d="M8 0C8.55228 0 9 0.447715 9 1C9 1.55228 8.55228 2 8 2H4C3.44772 2 3 2.44772 3 3V17C3 17.5523 3.44772 18 4 18H14C14.5523 18 15 17.5523 15 17V11C15 10.4477 15.4477 10 16 10C16.5523 10 17 10.4477 17 11V17C17 18.6569 15.6569 20 14 20H4C2.34315 20 1 18.6569 1 17V3C1 1.34315 2.34315 3.22128e-08 4 0H8Z" fill="#1F1F22"/>
<path d="M12 14C12.5523 14 13 14.4477 13 15C13 15.5523 12.5523 16 12 16H6C5.44772 16 5 15.5523 5 15C5 14.4477 5.44772 14 6 14H12Z" fill="#1F1F22"/>
<path d="M8 10C8.55228 10 9 10.4477 9 11C9 11.5523 8.55228 12 8 12H6C5.44772 12 5 11.5523 5 11C5 10.4477 5.44772 10 6 10H8Z" fill="#1F1F22"/>
<path d="M8 6C8.55228 6 9 6.44772 9 7C9 7.55228 8.55228 8 8 8H6C5.44772 8 5 7.55228 5 7C5 6.44772 5.44772 6 6 6H8Z" fill="#1F1F22"/>
<path d="M17.5 5C18.3284 5 19 5.67157 19 6.5C19 7.32843 18.3284 8 17.5 8C16.6716 8 16 7.32843 16 6.5C16 5.67157 16.6716 5 17.5 5Z" fill="#1F1F22"/>
<path d="M16.793 0.792969C17.1835 0.402505 17.8165 0.402465 18.207 0.792969C18.5975 1.18347 18.5975 1.81651 18.207 2.20703L13.207 7.20703C12.8165 7.59755 12.1835 7.59754 11.793 7.20703C11.4024 6.81651 11.4024 6.18349 11.793 5.79297L16.793 0.792969Z" fill="#1F1F22"/>
<path d="M12.5 0C13.3284 0 14 0.671573 14 1.5C14 2.32843 13.3284 3 12.5 3C11.6716 3 11 2.32843 11 1.5C11 0.671573 11.6716 0 12.5 0Z" fill="#1F1F22"/>
</svg>
