<svg width="20" height="20" viewBox="0 0 20 20" fill="none" xmlns="http://www.w3.org/2000/svg">
<path d="M9 0C9.55229 0 10 0.447715 10 1C10 1.55228 9.55229 2 9 2H4C3.44772 2 3 2.44772 3 3V17C3 17.5523 3.44772 18 4 18H14C14.5523 18 15 17.5523 15 17V15C15 14.4477 15.4477 14 16 14C16.5523 14 17 14.4477 17 15V17C17 18.6569 15.6569 20 14 20H4C2.34315 20 1 18.6569 1 17V3C1 1.34315 2.34315 4.83192e-08 4 0H9Z" fill="#1F1F22"/>
<path d="M12 14C12.5523 14 13 14.4477 13 15C13 15.5523 12.5523 16 12 16H6C5.44772 16 5 15.5523 5 15C5 14.4477 5.44772 14 6 14H12Z" fill="#1F1F22"/>
<path d="M8 10C8.55228 10 9 10.4477 9 11C9 11.5523 8.55228 12 8 12H6C5.44772 12 5 11.5523 5 11C5 10.4477 5.44772 10 6 10H8Z" fill="#1F1F22"/>
<path fill-rule="evenodd" clip-rule="evenodd" d="M15.5 0C17.7091 0 19.5 1.79086 19.5 4C19.5 5.26283 18.914 6.38802 18 7.12109V11C18 11.3444 17.823 11.6648 17.5312 11.8477C17.2394 12.0305 16.8734 12.0497 16.5635 11.8994L15.5 11.3838L14.4365 11.8994C14.1266 12.0497 13.7606 12.0305 13.4688 11.8477C13.177 11.6648 13 11.3444 13 11V7.12109C12.086 6.38802 11.5 5.26283 11.5 4C11.5 1.79086 13.2909 0 15.5 0ZM16 7.96777C15.8362 7.98821 15.6694 8 15.5 8C15.3306 8 15.1638 7.98821 15 7.96777V9.40332L15.0635 9.37305L15.1689 9.3291C15.4188 9.24141 15.6954 9.25615 15.9365 9.37305L16 9.40332V7.96777ZM15.5 2C14.3954 2 13.5 2.89543 13.5 4C13.5 5.10457 14.3954 6 15.5 6C16.6046 6 17.5 5.10457 17.5 4C17.5 2.89543 16.6046 2 15.5 2Z" fill="#1F1F22"/>
<path d="M8 6C8.55228 6 9 6.44772 9 7C9 7.55228 8.55228 8 8 8H6C5.44772 8 5 7.55228 5 7C5 6.44772 5.44772 6 6 6H8Z" fill="#1F1F22"/>
</svg>
