<svg width="32" height="32" viewBox="0 0 32 32" fill="none" xmlns="http://www.w3.org/2000/svg">
<path fill-rule="evenodd" clip-rule="evenodd" d="M17.0005 3C17.0005 2.44772 17.4482 2 18.0005 2H24.9501C25.3168 2 25.6541 2.2007 25.829 2.52298C26.0039 2.84527 25.9884 3.23744 25.7886 3.54491L24.1931 6L25.7886 8.45509C25.9884 8.76256 26.0039 9.15473 25.829 9.47702C25.6541 9.7993 25.3168 10 24.9501 10H18.0005C17.4482 10 17.0005 9.55228 17.0005 9V3ZM19.0005 4V8H23.1076L22.162 6.54491C21.9467 6.21355 21.9467 5.78645 22.162 5.45509L23.1076 4H19.0005ZM18.0059 12.5C18.3328 12.5018 18.6381 12.6632 18.8237 12.9323L28.8237 27.4323C29.0347 27.7382 29.0586 28.1359 28.8859 28.4649C28.7131 28.7939 28.3721 29 28.0005 29H3.00049C2.63169 29 2.29283 28.797 2.11882 28.4719C1.9448 28.1467 1.96387 27.7522 2.16844 27.4453L8.16844 18.4453C8.33462 18.196 8.60382 18.0344 8.90195 18.0049C9.20009 17.9753 9.49575 18.081 9.7076 18.2929L11.8681 20.4534L17.1835 12.9233C17.372 12.6563 17.6791 12.4982 18.0059 12.5ZM17.991 15.2476L12.8175 22.5767C12.6474 22.8176 12.3796 22.9712 12.0858 22.9964C11.7919 23.0215 11.5019 22.9157 11.2934 22.7071L9.15591 20.5696L4.86901 27H26.0961L17.991 15.2476Z" fill="#1F1F22"/>
</svg>
