<svg width="32" height="32" viewBox="0 0 32 32" fill="none" xmlns="http://www.w3.org/2000/svg">
<path fill-rule="evenodd" clip-rule="evenodd" d="M14.5634 3.64439C15.4589 3.15597 16.5411 3.15597 17.4366 3.64439L26.4366 8.55348C27.4003 9.07918 28 10.0893 28 11.1872V20.8126C28 21.9105 27.4003 22.9206 26.4366 23.4463L17.4366 28.3554C16.5411 28.8438 15.4589 28.8438 14.5634 28.3554L5.56344 23.4463C4.59966 22.9206 4 21.9105 4 20.8126V11.1872C4 10.0893 4.59966 9.07918 5.56344 8.55348L14.5634 3.64439ZM16.4789 5.40018C16.1804 5.23737 15.8196 5.23737 15.5211 5.40018L6.52115 10.3093C6.19989 10.4845 6 10.8212 6 11.1872V20.8126C6 21.1786 6.19989 21.5153 6.52115 21.6905L15.5211 26.5996C15.8196 26.7624 16.1804 26.7624 16.4789 26.5996L25.4789 21.6905C25.8001 21.5153 26 21.1786 26 20.8126V11.1872C26 10.8212 25.8001 10.4845 25.4789 10.3093L16.4789 5.40018Z" fill="#1F1F22"/>
<path fill-rule="evenodd" clip-rule="evenodd" d="M17 3.9999V27.9999H15V3.9999H17Z" fill="#1F1F22"/>
<path fill-rule="evenodd" clip-rule="evenodd" d="M27.6661 15.9999C27.6661 16.5522 27.2184 16.9999 26.6661 16.9999H15.9994C15.4471 16.9999 14.9994 16.5522 14.9994 15.9999C14.9994 15.4476 15.4471 14.9999 15.9994 14.9999H26.6661C27.2184 14.9999 27.6661 15.4476 27.6661 15.9999Z" fill="#1F1F22"/>
</svg>
