<svg width="20" height="20" viewBox="0 0 20 20" fill="none" xmlns="http://www.w3.org/2000/svg">
<path fill-rule="evenodd" clip-rule="evenodd" d="M9 0C9.55228 8.96651e-07 10 0.447716 10 1C10 1.55228 9.55228 2 9 2H4C3.44772 2 3 2.44772 3 3V11H7C8.65685 11 10 12.3431 10 14V18H14C14.5523 18 15 17.5523 15 17V11C15 10.4477 15.4477 10 16 10C16.5523 10 17 10.4477 17 11V17C17 18.6569 15.6569 20 14 20H9.82812C9.03258 19.9999 8.26957 19.6836 7.70703 19.1211L1.87891 13.293C1.31637 12.7304 1.00008 11.9674 1 11.1719V3C1 1.34315 2.34315 2.41485e-07 4 0H9ZM8 16.5859V14C8 13.4477 7.55228 13 7 13H4.41406L8 16.5859Z" fill="#1F1F22"/>
<path fill-rule="evenodd" clip-rule="evenodd" d="M14.376 0.951172C15.148 0.123709 16.4527 0.101177 17.2529 0.901367L18.3379 1.98633C19.0995 2.74827 19.1206 3.97683 18.3857 4.76465L14.7314 8.68164C14.5812 8.84271 14.3813 8.9501 14.1641 8.98633L11.8545 9.37109C10.8394 9.54003 9.95972 8.65964 10.1289 7.64453L10.5137 5.33594L10.5479 5.19336C10.5927 5.05405 10.6679 4.92527 10.7686 4.81738L14.376 0.951172ZM12.4365 5.96094L12.2158 7.2832L13.499 7.06934L16.9238 3.40039L15.8389 2.31543L12.4365 5.96094Z" fill="#1F1F22"/>
</svg>
