<svg width="20" height="20" viewBox="0 0 20 20" fill="none" xmlns="http://www.w3.org/2000/svg">
<path fill-rule="evenodd" clip-rule="evenodd" d="M12 5C12.5523 5 13 5.44772 13 6C13 6.55228 12.5523 7 12 7H8V8H10.5C12.433 8 14 9.567 14 11.5C14 13.433 12.433 15 10.5 15H7C6.44772 15 6 14.5523 6 14V7C6 5.89543 6.89543 5 8 5H12ZM8 13H10.5C11.3284 13 12 12.3284 12 11.5C12 10.6716 11.3284 10 10.5 10H8V13Z" fill="#1F1F22"/>
<path fill-rule="evenodd" clip-rule="evenodd" d="M10 0C15.5228 0 20 4.47715 20 10C20 15.5228 15.5228 20 10 20H1C0.447722 20 1.08138e-06 19.5523 0 19V10C0 4.47715 4.47715 3.89483e-07 10 0ZM10 2C5.58172 2 2 5.58172 2 10V18H10C14.4183 18 18 14.4183 18 10C18 5.58172 14.4183 2 10 2Z" fill="#1F1F22"/>
</svg>
