<svg width="32" height="32" viewBox="0 0 32 32" fill="none" xmlns="http://www.w3.org/2000/svg">
<path d="M25.293 19.2929C25.6835 18.9025 26.3165 18.9025 26.707 19.2929C27.0975 19.6834 27.0975 20.3165 26.707 20.707L19.707 27.707C19.3165 28.0975 18.6835 28.0975 18.293 27.707C17.9025 27.3165 17.9025 26.6834 18.293 26.2929L25.293 19.2929Z" fill="#1F1F22"/>
<path d="M25.5 25C26.3284 25 27 25.6716 27 26.5C27 27.3284 26.3284 28 25.5 28C24.6716 28 24 27.3284 24 26.5C24 25.6716 24.6716 25 25.5 25Z" fill="#1F1F22"/>
<path d="M15 22C15.5523 22 16 22.4477 16 23C16 23.5522 15.5523 24 15 24H5C4.44772 24 4 23.5522 4 23C4.00004 22.4477 4.44774 22 5 22H15Z" fill="#1F1F22"/>
<path d="M19.5 19C20.3284 19 21 19.6716 21 20.5C21 21.3284 20.3284 22 19.5 22C18.6716 22 18 21.3284 18 20.5C18 19.6716 18.6716 19 19.5 19Z" fill="#1F1F22"/>
<path d="M8.00098 11C8.55301 11.0002 9.00093 11.4479 9.00098 12V19C9.00098 19.5521 8.55304 19.9997 8.00098 20C7.44869 20 7.00098 19.5522 7.00098 19V12C7.00102 11.4477 7.44872 11 8.00098 11Z" fill="#1F1F22"/>
<path d="M13.001 11C13.553 11.0002 14.0009 11.4479 14.001 12V19C14.001 19.5521 13.553 19.9997 13.001 20C12.4487 20 12.001 19.5522 12.001 19V12C12.001 11.4477 12.4487 11 13.001 11Z" fill="#1F1F22"/>
<path d="M18 11C18.5523 11 19 11.4477 19 12V15.5C19 16.0522 18.5523 16.5 18 16.5C17.4477 16.5 17 16.0522 17 15.5V12C17 11.4477 17.4477 11 18 11Z" fill="#1F1F22"/>
<path d="M12.6963 4.54683C12.9265 4.47348 13.1769 4.48624 13.4004 4.58394L21.4004 8.08394C21.9062 8.30526 22.1371 8.89445 21.916 9.40035C21.6947 9.90622 21.1055 10.1371 20.5996 9.91597L13 6.59078L5.40039 9.91597C4.89448 10.1371 4.30531 9.90622 4.08398 9.40035C3.86286 8.89444 4.09374 8.30526 4.59961 8.08394L12.5996 4.58394L12.6963 4.54683Z" fill="#1F1F22"/>
</svg>
