<svg width="32" height="32" viewBox="0 0 32 32" fill="none" xmlns="http://www.w3.org/2000/svg">
<path d="M18.5 19C19.0523 19 19.5 19.4477 19.5 20C19.5 20.5523 19.0523 21 18.5 21H10.5C9.94772 21 9.5 20.5523 9.5 20C9.5 19.4477 9.94772 19 10.5 19H18.5Z" fill="#1F1F22"/>
<path d="M21.5 15C22.0523 15 22.5 15.4477 22.5 16C22.5 16.5523 22.0523 17 21.5 17H10.5C9.94772 17 9.5 16.5523 9.5 16C9.5 15.4477 9.94772 15 10.5 15H21.5Z" fill="#1F1F22"/>
<path d="M21.5 11C22.0523 11 22.5 11.4477 22.5 12C22.5 12.5523 22.0523 13 21.5 13H10.5C9.94772 13 9.5 12.5523 9.5 12C9.5 11.4477 9.94772 11 10.5 11H21.5Z" fill="#1F1F22"/>
<path fill-rule="evenodd" clip-rule="evenodd" d="M16 3C19.5223 3 22.9044 4.14657 25.3535 6.45215C27.8215 8.77549 29.2579 12.1984 28.998 16.5596C28.9162 17.932 28.1901 19.4943 27.3096 20.7637C26.9135 21.3346 26.4527 21.8946 25.9551 22.3809C26.8231 22.581 27.7195 22.7892 28.7686 23.0332L29.0322 23.0947C29.8046 23.2744 30.1464 24.2618 29.5303 24.8662C26.767 27.5768 22.2454 29 17 29C9.53388 29 3 23.2621 3 16C3 8.8203 8.8203 3 16 3ZM16 5C9.92487 5 5 9.92487 5 16C5 21.9927 10.4661 27 17 27C21.0114 27 24.3514 26.1127 26.6729 24.5996C25.5513 24.3394 24.5563 24.1104 23.4551 23.8613C22.9146 23.7391 22.6605 23.2735 22.6377 22.8975C22.6152 22.526 22.8037 22.0521 23.2979 21.8545C23.966 21.5875 24.8765 20.7621 25.666 19.624C26.449 18.4952 26.9513 17.291 27.002 16.4404C27.2298 12.615 25.9795 9.78816 23.9824 7.9082C21.9665 6.01054 19.1051 5 16 5Z" fill="#1F1F22"/>
</svg>
