<svg width="32" height="32" viewBox="0 0 32 32" fill="none" xmlns="http://www.w3.org/2000/svg">
<path fill-rule="evenodd" clip-rule="evenodd" d="M21.5 14.9996C24.5334 14.9996 26.9998 17.4662 27 20.4996C27 21.6556 26.6405 22.7287 26.0293 23.6148L28.207 25.7926C28.5975 26.183 28.5973 26.8161 28.207 27.2066C27.8165 27.5972 27.1835 27.5972 26.793 27.2066L24.6152 25.0289C23.729 25.6403 22.6562 25.9996 21.5 25.9996C18.4665 25.9996 16 23.5333 16 20.4996C16.0002 17.4662 18.4666 14.9996 21.5 14.9996ZM21.5 16.9996C19.5711 16.9996 18.0002 18.5708 18 20.4996C18 22.4287 19.5711 23.9996 21.5 23.9996C23.4289 23.9996 25 22.4287 25 20.4996C24.9998 18.5708 23.4289 16.9996 21.5 16.9996Z" fill="#1F1F22"/>
<path d="M16.2783 4.02401C16.6315 3.94381 17.0008 4.06154 17.2432 4.33065L21.2031 8.73104L27.5039 5.13143C27.9833 4.85761 28.5941 5.02426 28.8682 5.50351C29.1421 5.98297 28.9755 6.59371 28.4961 6.86776L21.4961 10.8678C21.0875 11.1012 20.5716 11.0183 20.2568 10.6685L16.9531 6.99862L12.459 22.2818C12.3334 22.7087 11.9411 23.0013 11.4961 22.9996C11.0511 22.9979 10.6603 22.7019 10.5381 22.274L7.24414 10.7467L5.89453 13.4469C5.72514 13.7856 5.37877 13.9996 5 13.9996H3C2.44772 13.9996 2 13.5519 2 12.9996C2.0002 12.4475 2.44784 11.9996 3 11.9996H4.38184L6.60547 7.55233C6.78995 7.18368 7.18228 6.96537 7.59277 7.00351C8.00318 7.04173 8.34854 7.32891 8.46191 7.72518L11.5137 18.4078L15.541 4.71737L15.5869 4.5914C15.7143 4.3067 15.9692 4.09426 16.2783 4.02401Z" fill="#1F1F22"/>
</svg>
