<svg width="20" height="20" viewBox="0 0 20 20" fill="none" xmlns="http://www.w3.org/2000/svg">
<path fill-rule="evenodd" clip-rule="evenodd" d="M10 0C10.5523 0 11 0.447715 11 1C11 1.55228 10.5523 2 10 2C9.77315 2 9.48195 2.09945 9.13281 2.43164C8.77842 2.76891 8.41294 3.30403 8.08496 4.04199C7.5235 5.30527 7.12797 7.03344 7.02637 9H8.5C9.05229 9 9.5 9.44771 9.5 10C9.5 10.5523 9.05229 11 8.5 11H7.02637C7.12797 12.9666 7.5235 14.6947 8.08496 15.958C8.41294 16.696 8.77842 17.2311 9.13281 17.5684C9.48195 17.9005 9.77315 18 10 18C10.3531 18 10.8949 17.7362 11.4824 16.7852C12.0486 15.8687 12.5231 14.5066 12.7842 12.8447C12.8699 12.2992 13.3822 11.926 13.9277 12.0117C14.4733 12.0975 14.8464 12.6097 14.7607 13.1553C14.5228 14.6698 14.1114 16.0505 13.5547 17.167C15.4044 16.2479 16.8491 14.6354 17.5449 12.667C17.729 12.1463 18.3006 11.8736 18.8213 12.0576C19.3418 12.2417 19.6145 12.8124 19.4307 13.333C18.0584 17.2156 14.3556 20 10 20C4.47715 20 0 15.5228 0 10C0 4.47715 4.47715 0 10 0ZM2.06445 11C2.40259 13.7108 4.09518 15.9991 6.44531 17.167C6.38069 17.0374 6.31775 16.9054 6.25781 16.7705C5.56803 15.2185 5.1266 13.2041 5.02344 11H2.06445ZM6.44531 2.83203C4.09498 3.99984 2.40261 6.28909 2.06445 9H5.02344C5.1266 6.79589 5.56803 4.78151 6.25781 3.22949C6.31788 3.09436 6.38055 2.96185 6.44531 2.83203Z" fill="#1F1F22"/>
<path d="M18.5527 7.10547C19.0467 6.85848 19.6475 7.05876 19.8945 7.55273C20.1415 8.04671 19.9412 8.64754 19.4473 8.89453L15.4473 10.8945C15.1657 11.0353 14.8343 11.0353 14.5527 10.8945L10.5527 8.89453C10.0588 8.64754 9.85848 8.04671 10.1055 7.55273C10.3525 7.05876 10.9533 6.85848 11.4473 7.10547L15 8.88184L18.5527 7.10547Z" fill="#1F1F22"/>
<path fill-rule="evenodd" clip-rule="evenodd" d="M14.6602 1.55957C14.9161 1.46705 15.2008 1.48224 15.4473 1.60547L19.4473 3.60547C19.786 3.77486 20 4.12123 20 4.5C20 4.87877 19.786 5.22514 19.4473 5.39453L15.4473 7.39453C15.1657 7.5353 14.8343 7.5353 14.5527 7.39453L10.5527 5.39453C10.214 5.22514 10 4.87877 10 4.5C10 4.12123 10.214 3.77486 10.5527 3.60547L14.5527 1.60547L14.6602 1.55957ZM13.2363 4.5L15 5.38184L16.7637 4.5L15 3.61816L13.2363 4.5Z" fill="#1F1F22"/>
</svg>
