<svg width="32" height="32" viewBox="0 0 32 32" fill="none" xmlns="http://www.w3.org/2000/svg">
<path d="M13.293 3.28188C13.833 3.16767 14.3639 3.51343 14.4785 4.05336C14.5928 4.59351 14.2472 5.1244 13.707 5.23891C8.73245 6.29326 5.00019 10.7119 5 15.9997C5.00002 22.0748 9.92488 26.9997 16 26.9997C16.5521 26.9997 16.9998 27.4476 17 27.9997C17 28.5519 16.5523 28.9997 16 28.9997C8.82031 28.9997 3.00002 23.1793 3 15.9997C3.00019 9.74767 7.41301 4.52794 13.293 3.28188Z" fill="#1F1F22"/>
<path fill-rule="evenodd" clip-rule="evenodd" d="M24 16.9997C25.9329 16.9997 27.4998 18.5668 27.5 20.4997C27.5 22.4326 25.933 23.9997 24 23.9997H22.5V24.9997H23.4883C24.0404 24.9997 24.4881 25.4475 24.4883 25.9997C24.4883 26.5519 24.0406 26.9997 23.4883 26.9997H22.5V27.9997C22.5 28.5519 22.0523 28.9997 21.5 28.9997C20.9477 28.9997 20.5 28.5519 20.5 27.9997V26.9997H19.5C18.9477 26.9997 18.5 26.5519 18.5 25.9997C18.5002 25.4475 18.9478 24.9997 19.5 24.9997H20.5V23.9997H19.5C18.9477 23.9997 18.5 23.5519 18.5 22.9997C18.5002 22.4475 18.9478 21.9997 19.5 21.9997H20.5V17.9997L20.5049 17.8971C20.5564 17.3932 20.9824 16.9997 21.5 16.9997H24ZM22.5 21.9997H24C24.8284 21.9997 25.5 21.3281 25.5 20.4997C25.4998 19.6714 24.8283 18.9997 24 18.9997H22.5V21.9997Z" fill="#1F1F22"/>
<path d="M17.5215 4.05336C17.6361 3.51343 18.167 3.16767 18.707 3.28188C24.587 4.52794 28.9998 9.74767 29 15.9997C29 16.5519 28.5523 16.9997 28 16.9997C27.4477 16.9997 27 16.5519 27 15.9997C26.9998 10.7119 23.2675 6.29326 18.293 5.23891C17.7528 5.1244 17.4072 4.59351 17.5215 4.05336Z" fill="#1F1F22"/>
</svg>
