<svg width="32" height="32" viewBox="0 0 32 32" fill="none" xmlns="http://www.w3.org/2000/svg">
<path d="M16 4C16.5523 4 17 4.44772 17 5C17 5.55228 16.5523 6 16 6H10C9.44772 6 9 6.44772 9 7V24C9 24.5523 9.44772 25 10 25H22C22.5523 25 23 24.5523 23 24V21C23 20.4477 23.4477 20 24 20C24.5523 20 25 20.4477 25 21V24C25 25.6569 23.6569 27 22 27H10C8.34315 27 7 25.6569 7 24V7C7 5.34315 8.34315 4 10 4H16Z" fill="#1F1F22"/>
<path d="M20 20C20.5523 20 21 20.4477 21 21C21 21.5523 20.5523 22 20 22H12C11.4477 22 11 21.5523 11 21C11 20.4477 11.4477 20 12 20H20Z" fill="#1F1F22"/>
<path d="M17 16C17.5523 16 18 16.4477 18 17C18 17.5523 17.5523 18 17 18H12C11.4477 18 11 17.5523 11 17C11 16.4477 11.4477 16 12 16H17Z" fill="#1F1F22"/>
<path fill-rule="evenodd" clip-rule="evenodd" d="M24 3C26.2091 3 28 4.79086 28 7C28 8.86384 26.7252 10.43 25 10.874V13.5H26C26.5523 13.5 27 13.9477 27 14.5C27 15.0523 26.5523 15.5 26 15.5H25V16L24.9951 16.1025C24.9438 16.6067 24.5177 17 24 17C23.4823 17 23.0562 16.6067 23.0049 16.1025L23 16V10.874C21.2748 10.43 20 8.86384 20 7C20 4.79086 21.7909 3 24 3ZM24 5C22.8954 5 22 5.89543 22 7C22 8.10457 22.8954 9 24 9C25.1046 9 26 8.10457 26 7C26 5.89543 25.1046 5 24 5Z" fill="#1F1F22"/>
<path d="M17 12C17.5523 12 18 12.4477 18 13C18 13.5523 17.5523 14 17 14H12C11.4477 14 11 13.5523 11 13C11 12.4477 11.4477 12 12 12H17Z" fill="#1F1F22"/>
</svg>
