<svg width="20" height="20" viewBox="0 0 20 20" fill="none" xmlns="http://www.w3.org/2000/svg">
<path d="M13.445 12.168C13.9045 11.8616 14.5253 11.9859 14.8317 12.4453L16.5348 15H18.9997C19.552 15 19.9997 15.4477 19.9997 16C19.9997 16.5523 19.552 17 18.9997 17H16.5348L14.8317 19.5547C14.5253 20.0141 13.9045 20.1384 13.445 19.832C12.9857 19.5257 12.8614 18.9048 13.1677 18.4453L14.1305 17H11.9997C11.7345 17 11.4801 16.8945 11.2927 16.707L9.79265 15.207C9.40224 14.8165 9.40225 14.1835 9.79265 13.793C10.1832 13.4025 10.8162 13.4025 11.2067 13.793L12.4137 15H14.1305L13.1677 13.5547C12.8615 13.0952 12.9857 12.4743 13.445 12.168Z" fill="#1F1F22"/>
<path d="M4.8405 9.56445C5.54119 8.98131 6.38668 9.10384 6.96746 9.50879L7.07976 9.59277L7.08172 9.59473C7.74692 10.1365 8.7327 10.5329 9.7155 10.6387C10.2644 10.6977 10.662 11.1913 10.6032 11.7402C10.544 12.2889 10.0514 12.6857 9.50261 12.627C8.23945 12.4912 6.93742 12.0038 5.95086 11.248C4.75863 12.3168 4.10923 13.7016 4.10906 15.207C4.10906 15.3768 4.1085 15.5365 4.11882 15.6963C4.12698 15.8221 4.14357 15.9227 4.16082 16H7.99968C8.55178 16.0001 8.99948 16.4479 8.99968 17C8.99949 17.5521 8.55178 17.9999 7.99968 18H3.99968C3.5411 17.9999 3.12297 17.8454 2.79754 17.542C2.49577 17.2605 2.34148 16.9138 2.2575 16.6328C2.09778 16.0977 2.10906 15.4894 2.10906 15.207C2.10924 12.9838 3.12706 10.996 4.83855 9.56543L4.8405 9.56445Z" fill="#1F1F22"/>
<path fill-rule="evenodd" clip-rule="evenodd" d="M10.111 0C12.5963 0 14.611 2.01472 14.611 4.5C14.611 6.98528 12.5963 9 10.111 9C7.62581 8.99991 5.61101 6.98522 5.61101 4.5C5.61101 2.01478 7.62581 9.35436e-05 10.111 0ZM10.111 2C8.73038 2.00009 7.61101 3.11935 7.61101 4.5C7.61101 5.88065 8.73038 6.99991 10.111 7C11.4917 7 12.611 5.88071 12.611 4.5C12.611 3.11929 11.4917 2 10.111 2Z" fill="#1F1F22"/>
</svg>
