<svg width="32" height="32" viewBox="0 0 32 32" fill="none" xmlns="http://www.w3.org/2000/svg">
<path d="M24.0269 18.9096C24.2262 18.3947 24.8049 18.1383 25.3199 18.3373C25.8349 18.5367 26.0915 19.1162 25.8921 19.6313C25.3014 21.1577 23.9014 22.378 22.3599 23.2514C20.7935 24.1389 18.9334 24.754 17.2007 24.9907C16.6537 25.0654 16.1497 24.6821 16.0748 24.1352C16 23.588 16.383 23.083 16.9302 23.0082C18.4168 22.8052 20.0331 22.2706 21.3736 21.5112C22.7391 20.7374 23.6772 19.813 24.0269 18.9096ZM18.3482 7.03948C20.5667 6.91224 22.6427 7.08412 24.2955 7.62249C25.9313 8.15539 27.34 9.11777 27.8365 10.6957C28.4398 12.614 27.2849 14.352 25.8394 15.6313C24.3437 16.9549 22.2228 18.0918 20.066 18.9096C17.9076 19.7279 15.6156 20.2635 13.7408 20.3178C12.8088 20.3448 11.9067 20.2556 11.1597 19.9692C10.3952 19.6759 9.70424 19.1337 9.44097 18.2397C9.01404 16.7898 10.0697 15.6883 11.0709 15.0444C12.1485 14.3512 13.6502 13.831 15.233 13.519C16.8276 13.2047 18.5845 13.0863 20.2085 13.2504C21.6162 13.3927 23.0127 13.7561 24.1099 14.4682C24.2502 14.357 24.3855 14.2463 24.5132 14.1332C25.8161 12.9802 26.1571 12.0213 25.9293 11.2963C25.7116 10.6042 25.0275 9.96402 23.6763 9.52386C22.3421 9.08921 20.5363 8.9176 18.4625 9.03655C14.3173 9.27435 9.36616 10.6585 5.52007 13.0151C5.04929 13.3034 4.43368 13.1556 4.14507 12.685C3.85653 12.2141 4.00423 11.5976 4.47515 11.309C8.63083 8.76277 13.9083 7.29415 18.3482 7.03948ZM20.0074 15.2407C18.6067 15.0991 17.0496 15.2 15.6197 15.4819C14.1778 15.7661 12.9433 16.2185 12.1529 16.727C11.2861 17.2846 11.341 17.6144 11.3589 17.6752C11.3933 17.7915 11.493 17.9549 11.8765 18.102C12.2781 18.2559 12.8835 18.3419 13.6822 18.3188C15.2693 18.2728 17.3357 17.8058 19.357 17.0395C20.357 16.6603 21.322 16.2165 22.1939 15.7309C21.5798 15.4912 20.8409 15.3249 20.0074 15.2407Z" fill="#1F1F22"/>
</svg>
