<svg width="32" height="32" viewBox="0 0 32 32" fill="none" xmlns="http://www.w3.org/2000/svg">
<path d="M18 24C18.5523 24 19 23.5523 19 23C19 22.4477 18.5523 22 18 22H14C13.4477 22 13 22.4477 13 23C13 23.5523 13.4477 24 14 24H18Z" fill="#1F1F22"/>
<path fill-rule="evenodd" clip-rule="evenodd" d="M21 10V8C21 6.34315 19.6569 5 18 5H14C12.3431 5 11 6.34315 11 8V10H7C5.34315 10 4 11.3431 4 13V25C4 26.6569 5.34314 28 7 28H25C26.6569 28 28 26.6569 28 25V13C28 11.3431 26.6569 10 25 10H21ZM25 12C25.5523 12 26 12.4477 26 13V25C26 25.5523 25.5523 26 25 26H7C6.44772 26 6 25.5523 6 25V13C6 12.4477 6.44772 12 7 12H25ZM13 8V10H19V8C19 7.44772 18.5523 7 18 7H14C13.4477 7 13 7.44772 13 8Z" fill="#1F1F22"/>
</svg>
