<svg width="32" height="32" viewBox="0 0 32 32" fill="none" xmlns="http://www.w3.org/2000/svg">
<path d="M20 5C20.5523 5 21 5.44772 21 6C21 6.55228 20.5523 7 20 7H10C9.44772 7 9 7.44772 9 8V25C9 25.5523 9.44772 26 10 26H22C22.5523 26 23 25.5523 23 25V23C23 22.4477 23.4477 22 24 22C24.5523 22 25 22.4477 25 23V25C25 26.6569 23.6569 28 22 28H10C8.34315 28 7 26.6569 7 25V8C7 6.34315 8.34315 5 10 5H20Z" fill="#1F1F22"/>
<path d="M20 21C20.5523 21 21 21.4477 21 22C21 22.5523 20.5523 23 20 23H12C11.4477 23 11 22.5523 11 22C11 21.4477 11.4477 21 12 21H20Z" fill="#1F1F22"/>
<path d="M22.793 8.79297C23.1835 8.40246 23.8165 8.40251 24.207 8.79297L28.707 13.293C28.7548 13.3408 28.7976 13.3935 28.835 13.4502C28.8533 13.4779 28.8705 13.5061 28.8857 13.5352C28.8911 13.5454 28.8954 13.5561 28.9004 13.5664C28.9637 13.6977 29 13.8445 29 14C29 14.0563 28.9933 14.1112 28.9844 14.165C28.9776 14.2054 28.9707 14.2457 28.959 14.2852C28.9583 14.2875 28.9568 14.2896 28.9561 14.292C28.9412 14.3407 28.9222 14.3874 28.9004 14.4326C28.8953 14.4432 28.8912 14.4544 28.8857 14.4648C28.8839 14.4683 28.8808 14.4711 28.8789 14.4746C28.851 14.5262 28.8184 14.5745 28.7822 14.6201C28.7796 14.6234 28.7781 14.6276 28.7754 14.6309C28.754 14.657 28.7314 14.6826 28.707 14.707L24.207 19.207C23.8165 19.5976 23.1835 19.5975 22.793 19.207C22.4024 18.8165 22.4024 18.1835 22.793 17.793L25.5859 15H19C18.4477 15 18 14.5523 18 14C18 13.4477 18.4477 13 19 13H25.5859L22.793 10.207C22.4025 9.81651 22.4025 9.18347 22.793 8.79297Z" fill="#1F1F22"/>
<path d="M15 17C15.5523 17 16 17.4477 16 18C16 18.5523 15.5523 19 15 19H12C11.4477 19 11 18.5523 11 18C11 17.4477 11.4477 17 12 17H15Z" fill="#1F1F22"/>
</svg>
