<svg width="20" height="20" viewBox="0 0 20 20" fill="none" xmlns="http://www.w3.org/2000/svg">
<path d="M12.5 13C13.3284 13 14 13.6716 14 14.5C14 15.3284 13.3284 16 12.5 16C11.6716 16 11 15.3284 11 14.5C11 13.6716 11.6716 13 12.5 13Z" fill="#1F1F22"/>
<path d="M11.793 8.79297C12.1835 8.40248 12.8165 8.40245 13.207 8.79297C13.5975 9.18349 13.5975 9.81652 13.207 10.207L8.20703 15.207C7.81652 15.5975 7.1835 15.5975 6.79297 15.207C6.40244 14.8165 6.40244 14.1835 6.79297 13.793L11.793 8.79297Z" fill="#1F1F22"/>
<path d="M7.5 8C8.32843 8 9 8.67157 9 9.5C9 10.3284 8.32843 11 7.5 11C6.67157 11 6 10.3284 6 9.5C6 8.67157 6.67157 8 7.5 8Z" fill="#1F1F22"/>
<path fill-rule="evenodd" clip-rule="evenodd" d="M14 0C14.5523 0 15 0.447715 15 1V2H16C18.2091 2 20 3.79086 20 6V16C20 18.2091 18.2091 20 16 20H4C1.79086 20 0 18.2091 0 16V6C0 3.79086 1.79086 2 4 2H5V1C5 0.447715 5.44772 0 6 0C6.55228 0 7 0.447715 7 1V2H13V1C13 0.447715 13.4477 0 14 0ZM4 4C2.89543 4 2 4.89543 2 6V16C2 17.1046 2.89543 18 4 18H16C17.1046 18 18 17.1046 18 16V6C18 4.89543 17.1046 4 16 4H15V5C15 5.55228 14.5523 6 14 6C13.4477 6 13 5.55228 13 5V4H7V5C7 5.55228 6.55228 6 6 6C5.44772 6 5 5.55228 5 5V4H4Z" fill="#1F1F22"/>
</svg>
