<svg width="20" height="20" viewBox="0 0 20 20" fill="none" xmlns="http://www.w3.org/2000/svg">
<path fill-rule="evenodd" clip-rule="evenodd" d="M16.5003 8.50015C18.1572 8.50015 19.5003 9.8433 19.5003 11.5002C19.5002 13.1569 18.1571 14.5002 16.5003 14.5002H15.5003V15.0002H16.0003C16.5526 15.0002 17.0003 15.4479 17.0003 16.0002C17.0002 16.5524 16.5525 17.0002 16.0003 17.0002H15.5003V17.5002C15.5002 18.0524 15.0525 18.5002 14.5003 18.5002C13.9483 18.4999 13.5004 18.0522 13.5003 17.5002V17.0002H13.0003C12.4483 16.9999 12.0004 16.5522 12.0003 16.0002C12.0003 15.448 12.4482 15.0004 13.0003 15.0002H13.5003V14.5002H13.0003C12.4483 14.4999 12.0004 14.0522 12.0003 13.5002C12.0003 12.948 12.4482 12.5004 13.0003 12.5002H13.5003V9.50015L13.5052 9.39761C13.5565 8.89361 13.9828 8.50034 14.5003 8.50015H16.5003ZM15.5003 12.5002H16.5003C17.0525 12.5002 17.5002 12.0524 17.5003 11.5002C17.5003 10.9479 17.0526 10.5002 16.5003 10.5002H15.5003V12.5002Z" fill="#1F1F22"/>
<path d="M9.00031 12.5002C9.5526 12.5002 10.0003 12.9479 10.0003 13.5002C10.0002 14.0524 9.55254 14.5002 9.00031 14.5002H1.00031C0.44826 14.4999 0.000405667 14.0522 0.000313476 13.5002C0.000313476 12.948 0.448203 12.5004 1.00031 12.5002H9.00031Z" fill="#1F1F22"/>
<path d="M3.00031 5.50015C3.5526 5.50015 4.00031 5.94787 4.00031 6.50015V10.5002C4.00022 11.0524 3.55254 11.5002 3.00031 11.5002C2.44826 11.4999 2.00041 11.0522 2.00031 10.5002V6.50015C2.00031 5.94799 2.4482 5.50036 3.00031 5.50015Z" fill="#1F1F22"/>
<path d="M7.00031 5.50015C7.5526 5.50015 8.00031 5.94787 8.00031 6.50015V10.5002C8.00022 11.0524 7.55254 11.5002 7.00031 11.5002C6.44826 11.4999 6.00041 11.0522 6.00031 10.5002V6.50015C6.00031 5.94799 6.4482 5.50036 7.00031 5.50015Z" fill="#1F1F22"/>
<path d="M11.0003 5.50015C11.5526 5.50015 12.0003 5.94787 12.0003 6.50015V8.00015C12.0002 8.55236 11.5525 9.00015 11.0003 9.00015C10.4483 8.99995 10.0004 8.55223 10.0003 8.00015V6.50015C10.0003 5.94799 10.4482 5.50036 11.0003 5.50015Z" fill="#1F1F22"/>
<path d="M6.68977 0.0499563C6.92513 -0.0269772 7.18231 -0.0144808 7.41047 0.0880422L13.4105 2.78921C13.9141 3.0159 14.1391 3.60786 13.9124 4.11148C13.6856 4.6148 13.0936 4.83899 12.5902 4.61246L7.00031 2.09683L1.41047 4.61246C0.906993 4.83873 0.314833 4.61487 0.0882041 4.11148C-0.138423 3.608 0.0868292 3.01604 0.590157 2.78921L6.59016 0.0880422L6.68977 0.0499563Z" fill="#1F1F22"/>
</svg>
