<svg width="20" height="20" viewBox="0 0 20 20" fill="none" xmlns="http://www.w3.org/2000/svg">
<path d="M0.944045 10.0059C1.01671 9.99783 1.089 9.99762 1.15889 10.0049C1.21425 10.0107 1.26837 10.0215 1.321 10.0361C1.45279 10.0726 1.57438 10.1357 1.6794 10.2197C1.72777 10.2585 1.77263 10.3015 1.81319 10.3486C1.94022 10.4961 2.02644 10.6817 2.04951 10.8896C2.20277 12.276 2.71034 13.5561 3.48018 14.6367C3.67801 14.9143 3.89288 15.179 4.12373 15.4287C4.93936 16.3113 5.9519 17.0082 7.09053 17.4531C7.42587 17.5841 7.77207 17.693 8.12764 17.7783C8.40145 17.844 8.68061 17.895 8.96455 17.9316C9.3035 17.9755 9.64885 18 9.99971 18C10.7724 18 11.5179 17.8908 12.2224 17.6875C12.753 17.5344 13.3075 17.8405 13.4606 18.3711C13.6136 18.9017 13.3076 19.4563 12.7771 19.6094C11.8941 19.8642 10.9619 20 9.99971 20C9.63501 20 9.27519 19.9775 8.92061 19.9395C8.91058 19.9387 8.9004 19.9396 8.89033 19.9385C8.8375 19.9326 8.78471 19.9237 8.73213 19.917C8.66228 19.9082 8.59254 19.8999 8.52315 19.8896C8.44532 19.8781 8.36796 19.8649 8.29072 19.8516C8.2107 19.8378 8.13083 19.8243 8.05147 19.8086C8.00336 19.7991 7.95577 19.7875 7.90791 19.7773C7.81446 19.7574 7.72109 19.7383 7.62862 19.7158C7.55954 19.699 7.49107 19.6803 7.42256 19.6621C7.10213 19.5769 6.78808 19.4767 6.48115 19.3613C6.44893 19.3492 6.41654 19.3376 6.38447 19.3252C6.31648 19.2988 6.24959 19.27 6.18233 19.2422C6.11186 19.2131 6.04104 19.185 5.97139 19.1543C5.91056 19.1275 5.85091 19.0983 5.79072 19.0703C5.7208 19.0378 5.65078 19.0057 5.58174 18.9717C5.50986 18.9362 5.43877 18.8994 5.36787 18.8623C5.3143 18.8342 5.26071 18.8063 5.20772 18.7773C5.13117 18.7355 5.05549 18.6922 4.98018 18.6484C4.93083 18.6197 4.88153 18.591 4.83272 18.5615C4.76032 18.5177 4.68905 18.4723 4.61787 18.4268C4.56293 18.3916 4.50801 18.3565 4.45381 18.3203C4.3907 18.2782 4.3284 18.2349 4.26631 18.1914C4.21296 18.154 4.15971 18.1165 4.10713 18.0781C4.04175 18.0304 3.97695 17.9819 3.91279 17.9326C3.86573 17.8965 3.81954 17.8592 3.77315 17.8223C3.7076 17.77 3.64202 17.7179 3.57783 17.6641C3.52796 17.6222 3.47941 17.5789 3.43037 17.5361C3.36953 17.483 3.30827 17.4305 3.24873 17.376C3.22003 17.3497 3.19217 17.3225 3.16377 17.2959C3.08749 17.2244 3.01122 17.1529 2.93721 17.0791C2.90706 17.049 2.87811 17.0178 2.84834 16.9873C2.78091 16.9183 2.71357 16.8492 2.64815 16.7783C2.59671 16.7226 2.54695 16.6653 2.49678 16.6084C2.18935 16.2596 1.90612 15.8894 1.64912 15.5C1.63619 15.4804 1.62286 15.4611 1.61006 15.4414C1.55653 15.359 1.50496 15.2754 1.45381 15.1914C1.43042 15.153 1.40639 15.1149 1.3835 15.0762C1.33824 14.9995 1.29492 14.9217 1.25166 14.8438C1.22389 14.7937 1.19559 14.7439 1.16865 14.6934C1.12776 14.6166 1.08845 14.5389 1.04951 14.4609C1.02182 14.4055 0.994169 14.35 0.967482 14.2939C0.934998 14.2257 0.903731 14.1569 0.872756 14.0879C0.844854 14.0257 0.817385 13.9633 0.790725 13.9004C0.75969 13.8272 0.729234 13.7537 0.699904 13.6797C0.675683 13.6185 0.652635 13.5569 0.629592 13.4951C0.602721 13.4231 0.575739 13.3511 0.55049 13.2783C0.525585 13.2065 0.502506 13.134 0.479201 13.0615C0.457395 12.9937 0.435136 12.9259 0.414748 12.8574C0.393659 12.7866 0.37473 12.715 0.355178 12.6436C0.335723 12.5724 0.315476 12.5014 0.297561 12.4297C0.278405 12.353 0.261223 12.2757 0.24385 12.1982C0.228978 12.132 0.213454 12.0658 0.199904 11.999C0.179944 11.9007 0.163247 11.8015 0.146193 11.7021C0.112637 11.5066 0.0822884 11.3096 0.0602559 11.1104C0.0359159 10.8902 0.0861472 10.6792 0.189162 10.501C0.246538 10.4017 0.319469 10.3117 0.406936 10.2373C0.553696 10.1124 0.738213 10.0287 0.944045 10.0059Z" fill="#1F1F22"/>
<path d="M18.9997 11C19.552 11 19.9997 11.4477 19.9997 12V13.9795C19.9998 13.9863 20.0007 13.9931 20.0007 14C20.0007 14.0065 19.9998 14.013 19.9997 14.0195V15.5C19.9997 16.0523 19.552 16.5 18.9997 16.5C18.787 16.4999 18.5905 16.4326 18.4284 16.3193C18.1414 16.4343 17.8288 16.5 17.5007 16.5C16.12 16.4999 14.9999 15.3807 14.9997 14C14.9997 13.983 15.0008 13.966 15.0017 13.9492C15.0009 13.933 14.9997 13.9168 14.9997 13.9004V12C14.9999 11.448 15.4477 11.0001 15.9997 11C16.5519 11 16.9995 11.4479 16.9997 12V13.9004C16.9997 13.9168 16.9976 13.933 16.9968 13.9492C16.9976 13.9661 16.9997 13.9829 16.9997 14C16.9999 14.2761 17.2246 14.4999 17.5007 14.5C17.7735 14.4998 17.9943 14.2813 17.9997 14.0098V12C17.9997 11.4478 18.4475 11.0001 18.9997 11Z" fill="#1F1F22"/>
<path fill-rule="evenodd" clip-rule="evenodd" d="M10.7497 6.5C11.1766 6.5 11.5561 6.77116 11.695 7.1748L14.445 15.1748C14.6245 15.697 14.3471 16.2657 13.8249 16.4453C13.3027 16.6247 12.734 16.3473 12.5544 15.8252L11.9274 14H9.57197L8.94502 15.8252C8.76538 16.3473 8.19671 16.6248 7.67451 16.4453C7.1525 16.2656 6.87495 15.6969 7.0544 15.1748L9.8044 7.1748L9.8669 7.03027C10.0384 6.70777 10.3761 6.50007 10.7497 6.5ZM10.2595 12H11.2399L10.7497 10.5752L10.2595 12Z" fill="#1F1F22"/>
<path fill-rule="evenodd" clip-rule="evenodd" d="M5.49971 0C7.15656 0 8.49971 1.34315 8.49971 3C8.49971 4.65685 7.15656 6 5.49971 6H4.49971V6.5H4.99971C5.55199 6.5 5.99971 6.94772 5.99971 7.5C5.99971 8.05229 5.55199 8.5 4.99971 8.5H4.49971V9C4.49971 9.55229 4.05199 10 3.49971 10C2.94755 9.99986 2.49971 9.5522 2.49971 9V8.5H1.99971C1.44755 8.49986 0.999709 8.0522 0.999709 7.5C0.999709 6.9478 1.44755 6.50014 1.99971 6.5H2.49971V6H1.99971C1.44755 5.99986 0.999709 5.5522 0.999709 5C0.999709 4.4478 1.44755 4.00014 1.99971 4H2.49971V1L2.50459 0.897461C2.55591 0.393417 2.98215 0.000134085 3.49971 0H5.49971ZM4.49971 4H5.49971C6.05199 4 6.49971 3.55228 6.49971 3C6.49971 2.44772 6.05199 2 5.49971 2H4.49971V4Z" fill="#1F1F22"/>
<path d="M11.1101 0.0605469C15.7466 0.573293 19.4264 4.25309 19.9392 8.88965C19.9998 9.43843 19.6041 9.93322 19.0554 9.99414C18.5065 10.0548 18.0125 9.65829 17.9519 9.10938C17.542 5.40339 14.5963 2.45871 10.8903 2.04883C10.3415 1.98804 9.94587 1.49321 10.0065 0.944336C10.0676 0.395884 10.5615 5.46984e-05 11.1101 0.0605469Z" fill="#1F1F22"/>
</svg>
