<svg width="32" height="32" viewBox="0 0 32 32" fill="none" xmlns="http://www.w3.org/2000/svg">
<path fill-rule="evenodd" clip-rule="evenodd" d="M22.8555 15.0111C22.9993 14.9902 23.1468 15.0003 23.2871 15.0424L28.2871 16.5424C28.7098 16.6694 29 17.059 29 17.5004V20.5004C28.9999 22.6323 28.3663 24.3078 27.3271 25.6723C26.307 27.0117 24.9291 28.008 23.5146 28.8578C23.1981 29.0479 22.802 29.0477 22.4854 28.8578C21.0702 28.0076 19.6927 27.0085 18.6729 25.6684C17.6343 24.3034 17.0001 22.6285 17 20.5004V17.5004C17 17.0588 17.2899 16.6693 17.7129 16.5424L22.7129 15.0424L22.8555 15.0111ZM19 18.2445V20.5004C19.0001 22.1912 19.491 23.4406 20.2646 24.4574C20.953 25.3619 21.8912 26.1158 23 26.8236C24.1094 26.1158 25.0472 25.3639 25.7354 24.4604C26.5086 23.445 26.9999 22.1957 27 20.5004V18.2445L23 17.0443L19 18.2445Z" fill="#1F1F22"/>
<path d="M15 22.0004C15.5521 22.0006 16 22.4482 16 23.0004C15.9998 23.5524 15.552 24.0002 15 24.0004H5C4.44786 24.0004 4.00024 23.5525 4 23.0004C4 22.4481 4.44772 22.0004 5 22.0004H15Z" fill="#1F1F22"/>
<path d="M8 11.0004C8.55228 11.0004 9 11.4481 9 12.0004V19.0004C8.99976 19.5525 8.55214 20.0004 8 20.0004C7.44792 20.0003 7.00024 19.5524 7 19.0004V12.0004C7 11.4482 7.44777 11.0005 8 11.0004Z" fill="#1F1F22"/>
<path d="M13 11.0004C13.5523 11.0004 14 11.4481 14 12.0004V19.0004C13.9998 19.5525 13.5521 20.0004 13 20.0004C12.4479 20.0003 12.0002 19.5524 12 19.0004V12.0004C12 11.4482 12.4478 11.0005 13 11.0004Z" fill="#1F1F22"/>
<path d="M18 11.0004C18.5521 11.0006 19 11.4482 19 12.0004V14.0004C18.9998 14.5524 18.552 15.0002 18 15.0004C17.4479 15.0004 17.0002 14.5525 17 14.0004V12.0004C17 11.4481 17.4477 11.0004 18 11.0004Z" fill="#1F1F22"/>
<path d="M12.6963 4.54728C12.9264 4.474 13.1769 4.48672 13.4004 4.58439L21.4004 8.08439C21.9059 8.30588 22.1371 8.89505 21.916 9.4008C21.6947 9.90637 21.1053 10.1372 20.5996 9.91642L13 6.59123L5.40039 9.91642C4.89465 10.1375 4.30548 9.90632 4.08398 9.4008C3.86285 8.89488 4.09373 8.30571 4.59961 8.08439L12.5996 4.58439L12.6963 4.54728Z" fill="#1F1F22"/>
</svg>
