<svg width="32" height="32" viewBox="0 0 32 32" fill="none" xmlns="http://www.w3.org/2000/svg">
<path d="M15.5 10.0049C16.0523 10.0049 16.5 10.4526 16.5 11.0049C16.4999 11.5571 16.0522 12.0049 15.5 12.0049L10.5 12.0049C9.94775 12.0049 9.50006 11.5571 9.5 11.0049C9.5 10.4526 9.94772 10.0049 10.5 10.0049L15.5 10.0049Z" fill="#1F1F22"/>
<path fill-rule="evenodd" clip-rule="evenodd" d="M8.29297 7.10939C11.1596 5.76213 14.7695 5.58126 17.9941 6.90333C19.9043 6.02151 22.2109 6.00392 24.0088 6.00392C24.3299 6.00398 24.6314 6.15862 24.8193 6.41896C25.0072 6.67939 25.0592 7.01459 24.958 7.31935L24.0908 9.92775L25.6201 13.0049H27C27.5523 13.0049 28 13.4526 28 14.0049V18.5049C27.9998 18.8831 27.7863 19.2289 27.4482 19.3985L22.7588 21.75L20.8936 25.4541C20.7236 25.7914 20.3777 26.0039 20 26.0039L16 26.0039C15.4478 26.0039 15.0001 25.5562 15 25.0039V24.0039H13V25.0039C12.9999 25.5562 12.5522 26.0039 12 26.0039H8C7.68022 26.0039 7.3796 25.8513 7.19141 25.5928L7.19043 25.5918L7.18945 25.5899C7.18871 25.5888 7.18765 25.5875 7.18652 25.586C7.184 25.5825 7.18016 25.5774 7.17578 25.5713C7.16701 25.5591 7.15442 25.5418 7.13867 25.5195C7.10682 25.4746 7.06135 25.4088 7.00391 25.3252C6.88904 25.158 6.72709 24.9162 6.5332 24.6133C6.14583 24.008 5.62875 23.1529 5.11133 22.1504C4.09456 20.1804 3.00003 17.5026 3 15.0039C3.00014 11.2897 5.27676 8.52709 8.29297 7.10939ZM17.6084 8.91408C14.825 7.63605 11.6266 7.75197 9.14355 8.91896C6.67698 10.0783 5.00014 12.2195 5 15.0039C5.00003 17.0052 5.90548 19.3285 6.88867 21.2334C7.37104 22.168 7.85426 22.9687 8.2168 23.5352C8.33363 23.7177 8.44038 23.8744 8.52734 24.0039H11V23.0039C11.0002 22.4518 11.4479 22.0039 12 22.0039H16C16.5521 22.0039 16.9998 22.4518 17 23.0039V24.0039L19.3838 24.0039L21.1211 20.5547C21.2178 20.3627 21.3742 20.2067 21.5664 20.1104L26 17.8867V15.0049H25C24.6205 15.0049 24.2735 14.79 24.1045 14.4502L22.1162 10.4502C21.9986 10.2137 21.9792 9.94008 22.0625 9.68947L22.6162 8.02345C21.0781 8.07276 19.6371 8.25074 18.5137 8.87794C18.2351 9.03352 17.8984 9.04722 17.6084 8.91408Z" fill="#1F1F22"/>
</svg>
