<svg width="32" height="32" viewBox="0 0 32 32" fill="none" xmlns="http://www.w3.org/2000/svg">
<path d="M12.5 15C13.0523 15 13.5 15.4477 13.5 16V19.5C13.4999 20.0522 13.0522 20.5 12.5 20.5C11.9482 20.4995 11.5001 20.0519 11.5 19.5V16C11.5 15.448 11.9481 15.0004 12.5 15Z" fill="#1F1F22"/>
<path d="M16 15C16.5523 15 17 15.4477 17 16V19.5C16.9999 20.0522 16.5522 20.5 16 20.5C15.4482 20.4995 15.0001 20.0519 15 19.5V16C15 15.448 15.4481 15.0004 16 15Z" fill="#1F1F22"/>
<path d="M19.5 15C20.0523 15 20.5 15.4477 20.5 16V19.5C20.4999 20.0522 20.0522 20.5 19.5 20.5C18.9482 20.4995 18.5001 20.0519 18.5 19.5V16C18.5 15.448 18.9481 15.0004 19.5 15Z" fill="#1F1F22"/>
<path d="M15.7344 10.0361C15.9368 9.98032 16.1535 9.98933 16.3516 10.0634L20.8516 11.7509C21.3685 11.945 21.6304 12.522 21.4365 13.039C21.2423 13.5556 20.6653 13.8178 20.1484 13.624L16 12.0683L11.8516 13.624C11.3347 13.8173 10.7574 13.5557 10.5635 13.039C10.3698 12.5223 10.6321 11.9453 11.1484 11.7509L15.6484 10.0634L15.7344 10.0361Z" fill="#1F1F22"/>
<path fill-rule="evenodd" clip-rule="evenodd" d="M15.71 4.04294C15.899 3.98569 16.101 3.98569 16.29 4.04294L26.29 7.07224C26.7116 7.20005 27 7.58873 27 8.02927V13.582C27 21.1348 22.117 25.7729 16.4824 28.8759C16.1821 29.0413 15.8179 29.0413 15.5176 28.8759C9.88239 25.7725 5.00005 21.1193 5 13.582V8.02927C5 7.58873 5.2884 7.20005 5.70996 7.07224L15.71 4.04294ZM7 8.77048V13.582C7.00005 19.8541 10.8729 23.9179 16 26.8525C21.1276 23.9184 25 19.8682 25 13.582V8.77048L16 6.04392L7 8.77048Z" fill="#1F1F22"/>
</svg>
