<svg width="32" height="32" viewBox="0 0 32 32" fill="none" xmlns="http://www.w3.org/2000/svg">
<path fill-rule="evenodd" clip-rule="evenodd" d="M6 21C8.20914 21 10 22.7909 10 25C10 27.2091 8.20914 29 6 29C3.79086 29 2 27.2091 2 25C2 22.7909 3.79086 21 6 21ZM6 23C4.89543 23 4 23.8954 4 25C4 26.1046 4.89543 27 6 27C7.10457 27 8 26.1046 8 25C8 23.8954 7.10457 23 6 23Z" fill="#1F1F22"/>
<path fill-rule="evenodd" clip-rule="evenodd" d="M26 21C28.2091 21 30 22.7909 30 25C30 27.2091 28.2091 29 26 29C23.7909 29 22 27.2091 22 25C22 22.7909 23.7909 21 26 21ZM26 23C24.8954 23 24 23.8954 24 25C24 26.1046 24.8954 27 26 27C27.1046 27 28 26.1046 28 25C28 23.8954 27.1046 23 26 23Z" fill="#1F1F22"/>
<path d="M19 24C19.5521 24.0002 20 24.4478 20 25C20 25.5522 19.5521 25.9998 19 26H13C12.4479 25.9998 12 25.5522 12 25C12 24.4478 12.4479 24.0002 13 24H19Z" fill="#1F1F22"/>
<path d="M11.792 12.5146C12.0602 12.0319 12.6696 11.858 13.1523 12.126C13.6349 12.3943 13.8082 13.0027 13.54 13.4854L10.207 19.4854C9.93881 19.968 9.33037 20.1421 8.84766 19.874C8.36515 19.6058 8.19104 18.9973 8.45898 18.5146L11.792 12.5146Z" fill="#1F1F22"/>
<path d="M18.8477 12.126C19.3304 11.8579 19.9388 12.032 20.207 12.5146L23.54 18.5146C23.8082 18.9973 23.6349 19.6057 23.1523 19.874C22.6696 20.1421 22.0602 19.9681 21.792 19.4854L18.459 13.4854C18.1911 13.0027 18.3651 12.3942 18.8477 12.126Z" fill="#1F1F22"/>
<path fill-rule="evenodd" clip-rule="evenodd" d="M16 3C18.2091 3 20 4.79086 20 7C20 9.20914 18.2091 11 16 11C13.7909 11 12 9.20914 12 7C12 4.79086 13.7909 3 16 3ZM16 5C14.8954 5 14 5.89543 14 7C14 8.10457 14.8954 9 16 9C17.1046 9 18 8.10457 18 7C18 5.89543 17.1046 5 16 5Z" fill="#1F1F22"/>
</svg>
