<svg width="32" height="32" viewBox="0 0 32 32" fill="none" xmlns="http://www.w3.org/2000/svg">
<path d="M16.0001 11C16.5524 11 17.0001 11.4477 17.0001 12V15H20.0001C20.5524 15 21.0001 15.4477 21.0001 16C21.0001 16.5523 20.5524 17 20.0001 17H17.0001V20C17.0001 20.5523 16.5524 21 16.0001 21C15.4478 21 15.0001 20.5523 15.0001 20V17H12.0001C11.4478 17 11.0001 16.5523 11.0001 16C11.0001 15.4477 11.4478 15 12.0001 15H15.0001V12C15.0001 11.4477 15.4478 11 16.0001 11Z" fill="#1F1F22"/>
<path fill-rule="evenodd" clip-rule="evenodd" d="M23.0671 2.4141C20.9618 2.27238 17.8885 2.90572 16 5.53432C14.1115 2.90572 11.0382 2.27238 8.93282 2.4141C4.60999 2.70507 1.66566 7.11116 2.56512 12.8366C3.06554 16.022 5.43691 19.6391 8.00293 22.6463C10.5896 25.6777 13.5543 28.296 15.4849 29.4566C15.8142 29.6546 16.2279 29.6463 16.5491 29.4354C18.3 28.2853 21.252 25.6834 23.8776 22.6519C26.4746 19.6533 28.9329 16.0315 29.4348 12.8366C30.3343 7.11116 27.39 2.70507 23.0671 2.4141ZM22.9328 4.40958C20.9132 4.27364 18.1074 5.02621 16.9291 7.98598C16.7776 8.36644 16.4095 8.61611 16 8.61611C15.5905 8.61611 15.2224 8.36644 15.0709 7.98598C13.8926 5.02621 11.0868 4.27364 9.06714 4.40958C6.32222 4.59434 3.75391 7.51674 4.54089 12.5262C4.94982 15.1293 6.99676 18.386 9.52433 21.3481C11.7803 23.992 14.2771 26.238 15.9786 27.397C17.5913 26.2225 20.0877 23.9729 22.3658 21.3425C24.9387 18.3718 27.0516 15.1198 27.4591 12.5262C28.246 7.51674 25.6777 4.59434 22.9328 4.40958Z" fill="#1F1F22"/>
</svg>
