<svg width="32" height="32" viewBox="0 0 32 32" fill="none" xmlns="http://www.w3.org/2000/svg">
<path d="M25.8594 16.2314C26.2836 15.8779 26.915 15.9352 27.2686 16.3594L29.0088 18.4482C29.7506 19.3384 29.7831 20.6218 29.0879 21.5488L25.75 26C25.2779 26.6295 24.5369 27 23.75 27H7C5.39489 27 4.08421 25.7394 4.00391 24.1543L4 24V17C4 16.4477 4.44772 16 5 16C5.55228 16 6 16.4477 6 17V24L6.00488 24.1025C6.05621 24.6067 6.48232 25 7 25H23.75C23.9074 25 24.056 24.9257 24.1504 24.7998L27.4883 20.3486C27.6271 20.1632 27.621 19.9065 27.4727 19.7285L25.7314 17.6406C25.3779 17.2164 25.4352 16.585 25.8594 16.2314Z" fill="#1F1F22"/>
<path fill-rule="evenodd" clip-rule="evenodd" d="M17 4C19.2091 4 21 5.79086 21 8C21 8.93677 20.6761 9.79683 20.1367 10.4785C21.8292 11.2798 23 13.0031 23 15C23 17.7614 20.7614 20 18 20H12.1963C11.5357 20 11 19.4643 11 18.8037V16H9C8.44772 16 8 15.5523 8 15C8 14.4477 8.44772 14 9 14H11V12H9C8.44772 12 8 11.5523 8 11C8 10.4477 8.44772 10 9 10H11V5L11.0049 4.89746C11.0562 4.39333 11.4823 4 12 4H17ZM13 18H18C19.6569 18 21 16.6569 21 15C21 13.3431 19.6569 12 18 12H13V18ZM13 10H17C18.1046 10 19 9.10457 19 8C19 6.89543 18.1046 6 17 6H13V10Z" fill="#1F1F22"/>
</svg>
