<svg width="20" height="20" viewBox="0 0 20 20" fill="none" xmlns="http://www.w3.org/2000/svg">
<path d="M7 0C7.55228 0 8 0.447715 8 1C8 1.55228 7.55228 2 7 2H4C3.44772 2 3 2.44772 3 3V17C3 17.5523 3.44772 18 4 18H14C14.5523 18 15 17.5523 15 17V11.5C15 10.9477 15.4477 10.5 16 10.5C16.5523 10.5 17 10.9477 17 11.5V17C17 18.6569 15.6569 20 14 20H4C2.34315 20 1 18.6569 1 17V3C1 1.34315 2.34315 1.61064e-08 4 0H7Z" fill="#1F1F22"/>
<path d="M12 14C12.5523 14 13 14.4477 13 15C13 15.5523 12.5523 16 12 16H6C5.44772 16 5 15.5523 5 15C5 14.4477 5.44772 14 6 14H12Z" fill="#1F1F22"/>
<path d="M9 10C9.55229 10 10 10.4477 10 11C10 11.5523 9.55229 12 9 12H6C5.44772 12 5 11.5523 5 11C5 10.4477 5.44772 10 6 10H9Z" fill="#1F1F22"/>
<path d="M14.5 3.25C15.1904 3.25 15.75 3.80964 15.75 4.5C15.75 5.19036 15.1904 5.75 14.5 5.75C13.8096 5.75 13.25 5.19036 13.25 4.5C13.25 3.80964 13.8096 3.25 14.5 3.25Z" fill="#1F1F22"/>
<path fill-rule="evenodd" clip-rule="evenodd" d="M14.5 0C16.024 0 17.373 0.640728 18.334 1.4668C19.2542 2.25787 20 3.3851 20 4.5C20 5.6149 19.2542 6.74213 18.334 7.5332C17.373 8.35927 16.024 9 14.5 9C12.976 9 11.627 8.35927 10.666 7.5332C9.74579 6.74213 9 5.6149 9 4.5C9 3.3851 9.74579 2.25787 10.666 1.4668C11.627 0.640728 12.976 0 14.5 0ZM14.5 2C13.5387 2 12.6374 2.40947 11.9697 2.9834C11.2614 3.59229 11 4.21498 11 4.5C11 4.78502 11.2614 5.40771 11.9697 6.0166C12.6374 6.59053 13.5387 7 14.5 7C15.4613 7 16.3626 6.59053 17.0303 6.0166C17.7386 5.40771 18 4.78502 18 4.5C18 4.21498 17.7386 3.59229 17.0303 2.9834C16.3626 2.40947 15.4613 2 14.5 2Z" fill="#1F1F22"/>
<path d="M7 6C7.55228 6 8 6.44772 8 7C8 7.55228 7.55228 8 7 8H6C5.44772 8 5 7.55228 5 7C5 6.44772 5.44772 6 6 6H7Z" fill="#1F1F22"/>
</svg>
