<svg width="32" height="32" viewBox="0 0 32 32" fill="none" xmlns="http://www.w3.org/2000/svg">
<path fill-rule="evenodd" clip-rule="evenodd" d="M24.5 18C26.433 18 28 19.567 28 21.5C28 23.433 26.433 25 24.5 25H23V26H23.9883C24.5406 26 24.9883 26.4477 24.9883 27C24.9883 27.5523 24.5406 28 23.9883 28H23V29C23 29.5523 22.5523 30 22 30C21.4477 30 21 29.5523 21 29V28H20C19.4477 28 19 27.5523 19 27C19 26.4477 19.4477 26 20 26H21V25H20C19.4477 25 19 24.5523 19 24C19 23.4477 19.4477 23 20 23H21V19L21.0049 18.8975C21.0562 18.3933 21.4823 18 22 18H24.5ZM23 23H24.5C25.3284 23 26 22.3284 26 21.5C26 20.6716 25.3284 20 24.5 20H23V23Z" fill="#1F1F22"/>
<path d="M4 14.9658C4.55222 14.9658 4.9999 15.4136 5 15.9658C5 22.012 9.92026 26.9324 15.9658 26.9326C16.5181 26.9326 16.9658 27.3803 16.9658 27.9326C16.9657 28.4848 16.5181 28.9326 15.9658 28.9326C8.8157 28.9324 3 23.1166 3 15.9658C3.0001 15.4136 3.44778 14.9658 4 14.9658Z" fill="#1F1F22"/>
<path d="M15.9658 3C23.116 3 28.9325 8.81541 28.9326 15.9658C28.9326 16.5181 28.4848 16.9657 27.9326 16.9658C27.3803 16.9658 26.9326 16.5181 26.9326 15.9658C26.9325 9.92005 22.0115 5 15.9658 5C15.4137 4.99977 14.9658 4.55214 14.9658 4C14.9658 3.44786 15.4137 3.00023 15.9658 3Z" fill="#1F1F22"/>
<path d="M11.4375 3.94531C11.7438 3.48587 12.3647 3.36183 12.8242 3.66797C13.2837 3.97432 13.4079 4.59516 13.1016 5.05469L10.2695 9.30273V9.5H11.7695C12.3218 9.5 12.7695 9.94776 12.7695 10.5C12.7695 11.0523 12.3218 11.5 11.7695 11.5H10.2695V12H11.7695C12.3218 12 12.7695 12.4478 12.7695 13C12.7695 13.5523 12.3218 14 11.7695 14H10.2695V14.5C10.2695 15.0523 9.82182 15.5 9.26953 15.5C8.71738 15.4998 8.26953 15.0522 8.26953 14.5V14H6.76953C6.21738 13.9998 5.76953 13.5522 5.76953 13C5.76959 12.4479 6.21741 12.0002 6.76953 12H8.26953V11.5H6.76953C6.21738 11.4998 5.76953 11.0522 5.76953 10.5C5.76959 9.94786 6.21741 9.50016 6.76953 9.5H8.26953V9.30273L5.4375 5.05469C5.13136 4.59523 5.25551 3.97431 5.71484 3.66797C6.1743 3.36166 6.79516 3.48595 7.10156 3.94531L9.26953 7.19727L11.4375 3.94531Z" fill="#1F1F22"/>
</svg>
