<svg width="32" height="32" viewBox="0 0 32 32" fill="none" xmlns="http://www.w3.org/2000/svg">
<path fill-rule="evenodd" clip-rule="evenodd" d="M16 15C18.2091 15 20 16.7909 20 19C20 21.2091 18.2091 23 16 23C13.7909 23 12 21.2091 12 19C12 16.7909 13.7909 15 16 15ZM16 17C14.8954 17 14 17.8954 14 19C14 20.1046 14.8954 21 16 21C17.1046 21 18 20.1046 18 19C18 17.8954 17.1046 17 16 17Z" fill="#1F1F22"/>
<path fill-rule="evenodd" clip-rule="evenodd" d="M23 5C24.6569 5 26 6.34315 26 8V24C26 25.6569 24.6569 27 23 27H21V28C21 28.5523 20.5523 29 20 29C19.4477 29 19 28.5523 19 28V27H13V28C13 28.5523 12.5523 29 12 29C11.4477 29 11 28.5523 11 28V27H9C7.34315 27 6 25.6569 6 24V8C6 6.34315 7.34315 5 9 5H23ZM9 7C8.44772 7 8 7.44772 8 8V24C8 24.5523 8.44772 25 9 25H23C23.5523 25 24 24.5523 24 24V8C24 7.44772 23.5523 7 23 7H9Z" fill="#1F1F22"/>
</svg>
