<svg width="32" height="32" viewBox="0 0 32 32" fill="none" xmlns="http://www.w3.org/2000/svg">
<path fill-rule="evenodd" clip-rule="evenodd" d="M27.12 4.87C26.53 4.29 25.82 4 25 4H7C6 4 5.25 4.25 4.75 4.75C4.25 5.25 4 6 4 7V25C4 25.41 4.07 25.79 4.21 26.15C4.36 26.5 4.58 26.82 4.87 27.12C5.46 27.7 6.17 28 7 28H25C26 28 26.75 27.75 27.25 27.25C27.75 26.75 28 26 28 25V7C28 6.58 27.92 6.2 27.78 5.84C27.63 5.49 27.41 5.17 27.12 4.87ZM7 6H25C25.66 6 26 6.33 26 7V25C26 25.66 25.66 26 25 26H7C6.66 26 6.41 25.91 6.25 25.75C6.08 25.58 6 25.33 6 25V7C6 6.66 6.08 6.41 6.25 6.25C6.41 6.08 6.66 6 7 6ZM8 16C8 14.34 8.67 12.84 9.75 11.75C10.84 10.67 12.34 10 14 10C15.65 10 17.15 10.67 18.24 11.75C19.32 12.84 20 14.34 20 16C20 17.65 19.32 19.15 18.24 20.24C17.15 21.32 15.65 22 14 22C12.34 22 10.84 21.32 9.75 20.24C8.67 19.15 8 17.65 8 16ZM14 14.58L16.03 12.55C15.43 12.2 14.74 12 14 12C13.25 12 12.56 12.2 11.96 12.55L14 14.58ZM24 13C24 12.43 23.56 12 23 12C22.43 12 22 12.43 22 13V19C22 19.56 22.43 20 23 20C23.56 20 24 19.56 24 19V13ZM10 16C10 15.25 10.2 14.56 10.55 13.96L12.58 16L10.55 18.03C10.2 17.43 10 16.74 10 16ZM18 16C18 16.74 17.79 17.43 17.44 18.03L15.41 16L17.44 13.96C17.79 14.56 18 15.25 18 16ZM14 20C13.25 20 12.56 19.79 11.96 19.44L14 17.41L16.03 19.44C15.43 19.79 14.74 20 14 20Z" fill="#1F1F22"/>
</svg>
