<svg width="16.000000" height="16.000000" viewBox="0 0 16 16" fill="none" xmlns="http://www.w3.org/2000/svg" xmlns:xlink="http://www.w3.org/1999/xlink">
	<desc>
			Created with Pixso.
	</desc>
	<defs/>
	<path id="Union" d="M4.93 15.39C4.47 15.2 4.03 14.96 3.62 14.7C3.16 14.4 2.73 14.05 2.34 13.65C1.95 13.26 1.61 12.84 1.31 12.39C1.04 11.99 0.82 11.56 0.62 11.11C0.43 10.66 0.29 10.2 0.18 9.73C0.06 9.17 0 8.59 0 8C0 7.4 0.06 6.82 0.18 6.26C0.29 5.79 0.43 5.33 0.62 4.88C0.82 4.43 1.04 4 1.31 3.6C1.61 3.15 1.95 2.73 2.34 2.34C2.73 1.95 3.15 1.61 3.6 1.31C4 1.04 4.43 0.82 4.88 0.62C5.33 0.43 5.79 0.29 6.26 0.18C6.82 0.06 7.4 0 8 0C8.58 0 9.15 0.06 9.71 0.18C10.17 0.28 10.62 0.42 11.06 0.6C11.57 0.82 11.81 1.39 11.6 1.91C11.38 2.43 10.81 2.66 10.29 2.45C9.97 2.32 9.65 2.22 9.32 2.14C8.89 2.04 8.45 2 8 2C7.54 2 7.09 2.04 6.65 2.14C6.32 2.22 5.98 2.33 5.66 2.47C5.33 2.61 5.01 2.77 4.71 2.97C4.37 3.19 4.05 3.46 3.75 3.75C3.46 4.05 3.19 4.37 2.97 4.71C2.77 5.01 2.61 5.33 2.47 5.66C2.33 5.98 2.22 6.32 2.14 6.65C2.04 7.09 2 7.54 2 8C2 8.45 2.04 8.9 2.14 9.34C2.22 9.67 2.33 10.01 2.47 10.33C2.61 10.66 2.77 10.98 2.97 11.28C3.19 11.62 3.46 11.94 3.75 12.24C4.05 12.54 4.38 12.8 4.73 13.03C5.04 13.23 5.36 13.4 5.7 13.54C6.22 13.75 6.45 14.33 6.24 14.85C6.02 15.36 5.45 15.6 4.93 15.39ZM13.63 4.77L8.13 9.27C7.95 9.42 7.74 9.49 7.5 9.5C7.26 9.5 7.05 9.42 6.87 9.28L4.37 7.28C3.93 6.93 3.86 6.31 4.21 5.87C4.56 5.43 5.18 5.36 5.62 5.71L7.49 7.21L12.36 3.22C12.8 2.87 13.41 2.93 13.77 3.36C14.12 3.8 14.06 4.41 13.63 4.77ZM14.67 5.65C14.12 5.76 13.77 6.27 13.88 6.82C13.9 6.91 13.91 7 13.93 7.09C13.97 7.39 14 7.69 14 8C14 8.19 13.99 8.39 13.97 8.58C13.91 9.14 14.31 9.62 14.87 9.68C15.42 9.73 15.9 9.34 15.96 8.78C15.98 8.52 16 8.26 16 8C16 7.62 15.97 7.26 15.92 6.89C15.9 6.74 15.87 6.59 15.84 6.43C15.73 5.89 15.22 5.54 14.67 5.65ZM12.44 10.27L11.53 8.34C11.43 8.13 11.22 8 11 8C10.77 8 10.56 8.13 10.46 8.34L9.55 10.27L7.51 10.58C7.28 10.62 7.09 10.78 7.02 11.01C6.95 11.23 7.01 11.48 7.18 11.64L8.65 13.15L8.3 15.27C8.27 15.5 8.36 15.74 8.54 15.88C8.72 16.02 8.97 16.03 9.17 15.92L11 14.92L12.82 15.92C13.02 16.03 13.27 16.02 13.45 15.88C13.63 15.74 13.72 15.5 13.69 15.27L13.34 13.15L14.81 11.64C14.98 11.48 15.04 11.23 14.97 11.01C14.9 10.78 14.71 10.62 14.48 10.58L12.44 10.27ZM11 10.72L10.56 11.64L9.44 11.81L10.26 12.64L10.08 13.71L11 13.21L11.91 13.71L11.73 12.64L12.55 11.81L11.43 11.64L11 10.72Z" fill="#1F1F22" fill-opacity="1.000000" fill-rule="evenodd"/>
</svg>
