<svg width="20" height="20" viewBox="0 0 20 20" fill="none" xmlns="http://www.w3.org/2000/svg">
<path d="M14 0C14.5523 0 15 0.447715 15 1V2H16C18.2091 2 20 3.79086 20 6C20 6.55228 19.5523 7 19 7C18.4477 7 18 6.55228 18 6C18 4.89543 17.1046 4 16 4H15V5C15 5.55228 14.5523 6 14 6C13.4477 6 13 5.55228 13 5V4H7V5C7 5.55228 6.55228 6 6 6C5.44772 6 5 5.55228 5 5V4H4C2.89543 4 2 4.89543 2 6V16C2 17.1046 2.89543 18 4 18H10.5C11.0523 18 11.5 18.4477 11.5 19C11.5 19.5523 11.0523 20 10.5 20H4C1.79086 20 0 18.2091 0 16V6C0 3.79086 1.79086 2 4 2H5V1C5 0.447715 5.44772 0 6 0C6.55228 0 7 0.447715 7 1V2H13V1C13 0.447715 13.4477 0 14 0Z" fill="#1F1F22"/>
<path fill-rule="evenodd" clip-rule="evenodd" d="M16 8C18.2091 8 20 9.79086 20 12C20 13.2628 19.414 14.388 18.5 15.1211V19C18.5 19.3444 18.323 19.6648 18.0312 19.8477C17.7394 20.0305 17.3734 20.0497 17.0635 19.8994L16 19.3838L14.9365 19.8994C14.6266 20.0497 14.2606 20.0305 13.9688 19.8477C13.677 19.6648 13.5 19.3444 13.5 19V15.1211C12.586 14.388 12 13.2628 12 12C12 9.79086 13.7909 8 16 8ZM16.5 15.9678C16.3362 15.9882 16.1694 16 16 16C15.8306 16 15.6638 15.9882 15.5 15.9678V17.4033L15.5635 17.373L15.6689 17.3291C15.9188 17.2414 16.1954 17.2562 16.4365 17.373L16.5 17.4033V15.9678ZM16 10C14.8954 10 14 10.8954 14 12C14 13.1046 14.8954 14 16 14C17.1046 14 18 13.1046 18 12C18 10.8954 17.1046 10 16 10Z" fill="#1F1F22"/>
</svg>
