<svg width="20" height="20" viewBox="0 0 20 20" fill="none" xmlns="http://www.w3.org/2000/svg">
<path fill-rule="evenodd" clip-rule="evenodd" d="M10 0C10.5523 0 11 0.447715 11 1C11 1.55228 10.5523 2 10 2C9.77315 2 9.48195 2.09945 9.13281 2.43164C8.77842 2.76891 8.41294 3.30403 8.08496 4.04199C7.5235 5.30527 7.12797 7.03344 7.02637 9H8C8.55229 9 9 9.44771 9 10C9 10.5523 8.55229 11 8 11H7.02637C7.12797 12.9666 7.5235 14.6947 8.08496 15.958C8.41294 16.696 8.77842 17.2311 9.13281 17.5684C9.48195 17.9005 9.77315 18 10 18C10.3531 18 10.8949 17.7362 11.4824 16.7852C12.0486 15.8687 12.5231 14.5066 12.7842 12.8447C12.8699 12.2992 13.3822 11.926 13.9277 12.0117C14.4733 12.0975 14.8464 12.6097 14.7607 13.1553C14.7277 13.3658 14.6891 13.5733 14.6494 13.7783C14.6352 13.8517 14.6195 13.9245 14.6045 13.9971C14.5797 14.1166 14.5553 14.2352 14.5283 14.3525C14.506 14.4498 14.4819 14.546 14.458 14.6416C14.4296 14.7552 14.3996 14.8673 14.3691 14.9785C14.3501 15.0479 14.3323 15.1172 14.3125 15.1855C14.2745 15.3165 14.2333 15.445 14.1924 15.5723C14.0081 16.1459 13.7972 16.6813 13.5557 17.166C15.4048 16.2468 16.8493 14.635 17.5449 12.667C17.729 12.1463 18.3006 11.8736 18.8213 12.0576C19.3418 12.2417 19.6145 12.8124 19.4307 13.333C18.0584 17.2156 14.3556 20 10 20C4.47715 20 0 15.5228 0 10C0 4.47715 4.47715 0 10 0ZM2.06445 11C2.40259 13.7108 4.09518 15.9991 6.44531 17.167C6.38069 17.0374 6.31775 16.9054 6.25781 16.7705C6.11057 16.4392 5.9753 16.0866 5.85156 15.7158C5.84668 15.7012 5.84176 15.6866 5.83691 15.6719C5.80489 15.5748 5.77351 15.4765 5.74316 15.377C5.73239 15.3416 5.7215 15.3062 5.71094 15.2705C5.68574 15.1855 5.66166 15.0994 5.6377 15.0127C5.62677 14.9732 5.61614 14.9334 5.60547 14.8936C5.53904 14.6452 5.47702 14.3906 5.4209 14.1299C5.40961 14.0775 5.39953 14.0246 5.38867 13.9717C5.36963 13.8789 5.35072 13.7856 5.33301 13.6914C5.32769 13.6632 5.32258 13.6348 5.31738 13.6064C5.29863 13.504 5.27986 13.4009 5.2627 13.2969C5.2519 13.2315 5.24258 13.1656 5.23242 13.0996C5.22403 13.0451 5.21499 12.9905 5.20703 12.9355C5.19325 12.8404 5.18042 12.7447 5.16797 12.6484C5.15778 12.5697 5.14796 12.4906 5.13867 12.4111C5.13309 12.3634 5.12732 12.3156 5.12207 12.2676C5.11353 12.1895 5.1063 12.111 5.09863 12.0322C5.06565 11.6936 5.03978 11.3492 5.02344 11H2.06445ZM6.20703 2.95508C3.98097 4.15615 2.39108 6.38153 2.06445 9H5.02344C5.0401 8.64408 5.06568 8.29312 5.09961 7.94824C5.10742 7.86883 5.11532 7.78969 5.12402 7.71094C5.13339 7.6262 5.14391 7.54194 5.1543 7.45801C5.15938 7.41689 5.16459 7.37588 5.16992 7.33496C5.18457 7.22252 5.20034 7.11088 5.2168 7C5.22533 6.94249 5.23415 6.8852 5.24316 6.82812C5.24981 6.78605 5.25579 6.74398 5.2627 6.70215C5.28047 6.59451 5.29986 6.48782 5.31934 6.38184C5.32702 6.34003 5.33483 6.29837 5.34277 6.25684C5.36584 6.13623 5.38979 6.01672 5.41504 5.89844C5.43305 5.81409 5.45258 5.73057 5.47168 5.64746C5.51391 5.46369 5.55801 5.28284 5.60547 5.10547C5.61941 5.05338 5.63406 5.00171 5.64844 4.9502C5.66921 4.8758 5.68926 4.80168 5.71094 4.72852C5.72395 4.68462 5.73764 4.6411 5.75098 4.59766C5.85753 4.2505 5.975 3.91831 6.10156 3.60254C6.11176 3.5771 6.12152 3.55158 6.13184 3.52637C6.17302 3.42572 6.21466 3.32659 6.25781 3.22949C6.31276 3.10588 6.36984 2.98443 6.42871 2.86523C6.43401 2.85452 6.43901 2.84368 6.44434 2.83301C6.36458 2.87265 6.28525 2.91288 6.20703 2.95508Z" fill="#1F1F22"/>
<path fill-rule="evenodd" clip-rule="evenodd" d="M14.0645 3.00195C14.1067 3.00284 14.1487 3.00422 14.1904 3.00684C14.2225 3.00885 14.2544 3.01164 14.2861 3.01465C14.3449 3.02021 14.4032 3.02626 14.4609 3.03516C14.4819 3.0384 14.5026 3.0432 14.5234 3.04688C14.5628 3.0538 14.6018 3.06186 14.6406 3.07031C14.7147 3.08646 14.7875 3.10544 14.8594 3.12695C14.8736 3.1312 14.8882 3.13422 14.9023 3.13867C14.9894 3.16616 15.0748 3.19739 15.1582 3.23242C15.1761 3.23991 15.1932 3.24901 15.2109 3.25684C15.275 3.28525 15.3378 3.31595 15.3994 3.34863C15.4264 3.36289 15.453 3.37753 15.4795 3.39258C15.5249 3.41846 15.5694 3.44549 15.6133 3.47363C15.6509 3.49771 15.6881 3.52217 15.7246 3.54785C15.7495 3.56545 15.7735 3.58421 15.7979 3.60254C15.841 3.63491 15.8845 3.66658 15.9258 3.70117C15.9755 3.74302 16.0224 3.78806 16.0693 3.83301C16.1173 3.87886 16.1631 3.92667 16.208 3.97559C16.2265 3.99582 16.2457 4.0154 16.2637 4.03613C16.3012 4.0793 16.3371 4.12367 16.3721 4.16895C16.3887 4.1905 16.4049 4.21236 16.4209 4.23438C16.4542 4.27988 16.4869 4.32565 16.5176 4.37305C16.5244 4.38359 16.5304 4.39464 16.5371 4.40527C16.6508 4.58572 16.7448 4.77876 16.8184 4.98242C16.8205 4.98844 16.824 4.99397 16.8262 5H18C19.1046 5 20 5.89543 20 7V8.5C20 9.32843 19.3284 10 18.5 10H17.9131C17.8636 10.1399 17.7934 10.2694 17.707 10.3867C17.6989 10.3978 17.691 10.4091 17.6826 10.4199C17.6684 10.4382 17.6537 10.456 17.6387 10.4736C17.6268 10.4875 17.6149 10.5012 17.6025 10.5146C17.5445 10.5777 17.4811 10.6352 17.4131 10.6875C17.396 10.7007 17.379 10.7141 17.3613 10.7266C17.3404 10.7413 17.3186 10.7549 17.2969 10.7686C17.284 10.7767 17.2709 10.7843 17.2578 10.792C17.2349 10.8054 17.2121 10.8188 17.1885 10.8311C17.1146 10.8694 17.0375 10.902 16.957 10.9277C16.9438 10.932 16.9304 10.9356 16.917 10.9395C16.8867 10.9482 16.8562 10.956 16.8252 10.9629C16.8058 10.9672 16.7863 10.9711 16.7666 10.9746C16.7424 10.979 16.718 10.9822 16.6934 10.9854C16.6752 10.9877 16.6571 10.9905 16.6387 10.9922C16.593 10.9964 16.5468 11 16.5 11C16.4529 11 16.4064 10.9964 16.3604 10.9922C16.343 10.9906 16.3258 10.9885 16.3086 10.9863C16.2819 10.9829 16.2557 10.9784 16.2295 10.9736C16.2109 10.9702 16.1922 10.9679 16.1738 10.9639C16.1411 10.9566 16.109 10.9478 16.0771 10.9385C16.0664 10.9353 16.0556 10.9321 16.0449 10.9287C16.0034 10.9155 15.9627 10.9005 15.9229 10.8838C15.9053 10.8765 15.8883 10.8683 15.8711 10.8604C15.8507 10.8509 15.8304 10.8414 15.8105 10.8311C15.7869 10.8188 15.7641 10.8054 15.7412 10.792C15.7291 10.7849 15.7169 10.778 15.7051 10.7705C15.6786 10.7539 15.6523 10.737 15.627 10.7188C15.6219 10.7151 15.6173 10.7107 15.6123 10.707C15.5327 10.6484 15.4591 10.5826 15.3926 10.5098C15.3826 10.4988 15.3729 10.4878 15.3633 10.4766C15.2436 10.3374 15.1494 10.1765 15.0869 10H14.4131C14.3506 10.1765 14.2564 10.3374 14.1367 10.4766C14.127 10.4879 14.1165 10.4987 14.1064 10.5098C14.0401 10.5825 13.9671 10.6485 13.8877 10.707C13.8825 10.7109 13.8774 10.7149 13.8721 10.7188C13.8467 10.737 13.8205 10.7539 13.7939 10.7705C13.7821 10.778 13.7699 10.7849 13.7578 10.792C13.7349 10.8054 13.7121 10.8188 13.6885 10.8311C13.6686 10.8414 13.6483 10.8509 13.6279 10.8604C13.6107 10.8683 13.5937 10.8765 13.5762 10.8838C13.5363 10.9005 13.4956 10.9155 13.4541 10.9287C13.4434 10.9321 13.4327 10.9353 13.4219 10.9385C13.39 10.9478 13.3579 10.9566 13.3252 10.9639C13.3068 10.9679 13.2881 10.9703 13.2695 10.9736C13.2433 10.9784 13.2171 10.9829 13.1904 10.9863C13.1732 10.9885 13.156 10.9906 13.1387 10.9922C13.093 10.9964 13.0468 11 13 11C12.9529 11 12.9064 10.9964 12.8604 10.9922C12.843 10.9906 12.8258 10.9885 12.8086 10.9863C12.7819 10.9829 12.7557 10.9784 12.7295 10.9736C12.7109 10.9702 12.6922 10.9679 12.6738 10.9639C12.6411 10.9566 12.609 10.9478 12.5771 10.9385C12.5664 10.9353 12.5556 10.9321 12.5449 10.9287C12.5034 10.9155 12.4627 10.9005 12.4229 10.8838C12.4053 10.8765 12.3883 10.8683 12.3711 10.8604C12.3507 10.8509 12.3304 10.8414 12.3105 10.8311C12.2869 10.8188 12.2641 10.8054 12.2412 10.792C12.2291 10.7849 12.2169 10.778 12.2051 10.7705C12.1786 10.7539 12.1523 10.737 12.127 10.7188C12.1219 10.7151 12.1173 10.7107 12.1123 10.707C12.0327 10.6484 11.9591 10.5826 11.8926 10.5098C11.8826 10.4988 11.8729 10.4878 11.8633 10.4766C11.7436 10.3374 11.6494 10.1765 11.5869 10H11.5C11.4483 10 11.3971 9.9973 11.3467 9.99219C10.9937 9.95636 10.677 9.79801 10.4395 9.56055C10.4056 9.52668 10.3733 9.49108 10.3428 9.4541C10.1593 9.23186 10.0386 8.9559 10.0078 8.65332C10.0027 8.60291 10 8.55176 10 8.5V5.00098C10 4.85656 10.0168 4.71581 10.0459 4.58008C10.239 3.6773 11.0396 3 12 3H14C14.0215 3 14.043 3.0015 14.0645 3.00195ZM17 8H18V7H17V8ZM12 7.99902H15V6.00098C15 5.44869 14.5523 5.00098 14 5.00098H12V7.99902Z" fill="#1F1F22"/>
</svg>
