<svg width="32" height="32" viewBox="0 0 32 32" fill="none" xmlns="http://www.w3.org/2000/svg">
<path d="M14 4C14.5523 4 15 4.44772 15 5C15 5.55228 14.5523 6 14 6H10C9.44772 6 9 6.44772 9 7V24C9 24.5523 9.44772 25 10 25H22C22.5523 25 23 24.5523 23 24V16C23 15.4477 23.4477 15 24 15C24.5523 15 25 15.4477 25 16V24C25 25.6569 23.6569 27 22 27H10C8.34315 27 7 25.6569 7 24V7C7 5.34315 8.34315 4 10 4H14Z" fill="#1F1F22"/>
<path d="M20 20C20.5523 20 21 20.4477 21 21C21 21.5523 20.5523 22 20 22H12C11.4477 22 11 21.5523 11 21C11 20.4477 11.4477 20 12 20H20Z" fill="#1F1F22"/>
<path d="M15 16C15.5523 16 16 16.4477 16 17C16 17.5523 15.5523 18 15 18H12C11.4477 18 11 17.5523 11 17C11 16.4477 11.4477 16 12 16H15Z" fill="#1F1F22"/>
<path d="M15 12C15.5523 12 16 12.4477 16 13C16 13.5523 15.5523 14 15 14H12C11.4477 14 11 13.5523 11 13C11 12.4477 11.4477 12 12 12H15Z" fill="#1F1F22"/>
<path d="M26.793 5.29297C27.1835 4.90251 27.8165 4.90246 28.207 5.29297C28.5975 5.68347 28.5975 6.31651 28.207 6.70703L22.207 12.707C21.8165 13.0976 21.1835 13.0975 20.793 12.707L17.293 9.20703C16.9024 8.81651 16.9024 8.18349 17.293 7.79297C17.6835 7.40251 18.3165 7.40246 18.707 7.79297L21.5 10.5859L26.793 5.29297Z" fill="#1F1F22"/>
</svg>
