<svg width="20" height="20" viewBox="0 0 20 20" fill="none" xmlns="http://www.w3.org/2000/svg">
<path fill-rule="evenodd" clip-rule="evenodd" d="M15.5 10.0004C17.1569 10.0004 18.5 11.3435 18.5 13.0004C18.4998 14.6571 17.1567 16.0004 15.5 16.0004H14.5V16.5004H15C15.5523 16.5004 16 16.9481 16 17.5004C15.9998 18.0525 15.5521 18.5004 15 18.5004H14.5V19.0004C14.4998 19.5525 14.0521 20.0004 13.5 20.0004C12.9479 20.0004 12.5002 19.5525 12.5 19.0004V18.5004H12C11.4479 18.5004 11.0002 18.0525 11 17.5004C11 16.9481 11.4477 16.5004 12 16.5004H12.5V16.0004H12C11.4479 16.0004 11.0002 15.5525 11 15.0004C11 14.4481 11.4477 14.0004 12 14.0004H12.5V11.0004L12.5049 10.8979C12.5562 10.3937 12.9823 10.0004 13.5 10.0004H15.5ZM14.5 14.0004H15.5C16.0521 14.0004 16.4998 13.5525 16.5 13.0004C16.5 12.4481 16.0523 12.0004 15.5 12.0004H14.5V14.0004Z" fill="#1F1F22"/>
<path d="M7.77832 0.247468C8.31682 0.125277 8.85324 0.462952 8.97559 1.00137C9.09772 1.53984 8.76007 2.07631 8.22168 2.19864C4.65919 3.00702 2 6.1944 2 10.0004C2.00023 14.1173 5.1116 17.5095 9.11035 17.9516C9.65902 18.0125 10.0548 18.5063 9.99414 19.0551C9.93338 19.6039 9.43853 19.9995 8.88965 19.9389C3.88903 19.3858 0.000227453 15.148 0 10.0004C0 5.24016 3.32502 1.25813 7.77832 0.247468Z" fill="#1F1F22"/>
<path d="M11.0244 1.00137C11.1468 0.462952 11.6832 0.125277 12.2217 0.247468C16.3242 1.17853 19.4685 4.62965 19.9395 8.89005C20.0001 9.43895 19.6036 9.93288 19.0547 9.99356C18.5059 10.0541 18.0119 9.65859 17.9512 9.10977C17.5748 5.7059 15.0589 2.94305 11.7783 2.19864C11.2399 2.07631 10.9023 1.53984 11.0244 1.00137Z" fill="#1F1F22"/>
</svg>
