<svg width="32" height="32" viewBox="0 0 32 32" fill="none" xmlns="http://www.w3.org/2000/svg">
<path d="M12 5.00026C12.5523 5.00026 13 5.44798 13 6.00026C12.9999 6.55244 12.5522 7.00026 12 7.00026H10C9.44772 7.00026 9 7.44798 9 8.00026V25.0003C9.00012 25.5524 9.44779 26.0003 10 26.0003H22C22.5522 26.0003 22.9999 25.5524 23 25.0003V24.0003C23 23.448 23.4477 23.0003 24 23.0003C24.5523 23.0003 25 23.448 25 24.0003V25.0003C24.9999 26.657 23.6568 28.0003 22 28.0003H10C8.34322 28.0003 7.00012 26.657 7 25.0003V8.00026C7 6.34341 8.34315 5.00026 10 5.00026H12Z" fill="#1F1F22"/>
<path d="M17 21.0003C17.5523 21.0003 18 21.448 18 22.0003C17.9999 22.5524 17.5522 23.0003 17 23.0003H12C11.4478 23.0003 11.0001 22.5524 11 22.0003C11 21.448 11.4477 21.0003 12 21.0003H17Z" fill="#1F1F22"/>
<path fill-rule="evenodd" clip-rule="evenodd" d="M19.5342 3.87917C20.7058 2.7076 22.6048 2.7076 23.7764 3.87917L27.3125 7.41432C28.4837 8.58579 28.4836 10.485 27.3125 11.6565C26.9853 11.9837 26.6005 12.2201 26.1914 12.3645L29.0029 15.176C30.0601 16.2332 30.0601 17.947 29.0029 19.0042C27.9457 20.0612 26.232 20.0613 25.1748 19.0042L22.3643 16.1936C22.2199 16.6028 21.9845 16.9874 21.6572 17.3147C20.4857 18.4863 18.5856 18.4863 17.4141 17.3147L13.8789 13.7796C12.7074 12.608 12.7074 10.709 13.8789 9.53737C14.5069 8.90935 15.3439 8.61709 16.166 8.66237L18.6602 6.16921C18.614 5.34613 18.9054 4.50799 19.5342 3.87917ZM23.2783 14.2796L26.5889 17.5901C26.865 17.8662 27.3127 17.8661 27.5889 17.5901C27.865 17.314 27.865 16.8662 27.5889 16.5901L24.2783 13.2796L23.2783 14.2796ZM16.6729 10.9182C16.2804 10.561 15.6722 10.5722 15.293 10.9514C14.9026 11.342 14.9025 11.975 15.293 12.3655L18.8281 15.9007C19.2186 16.2911 19.8517 16.2911 20.2422 15.9007C20.6214 15.5214 20.6327 14.9132 20.2754 14.5208L16.6729 10.9182ZM18.1211 9.53737L21.6562 13.0725L23.0703 11.6585L19.5342 8.12331L18.1211 9.53737ZM22.3623 5.29323C21.9718 4.90271 21.3388 4.90271 20.9482 5.29323C20.5578 5.68376 20.5578 6.31681 20.9482 6.70729L24.4834 10.2424C24.8739 10.6329 25.5069 10.6329 25.8975 10.2424C26.288 9.85193 26.288 9.21891 25.8975 8.82839L22.3623 5.29323Z" fill="#1F1F22"/>
<path d="M14 17.0003C14.5523 17.0003 15 17.448 15 18.0003C14.9999 18.5524 14.5522 19.0003 14 19.0003H12C11.4478 19.0003 11.0001 18.5524 11 18.0003C11 17.448 11.4477 17.0003 12 17.0003H14Z" fill="#1F1F22"/>
</svg>
