<svg width="32" height="32" viewBox="0 0 32 32" fill="none" xmlns="http://www.w3.org/2000/svg">
<path d="M15 6.00005C15.5523 6.00005 16 6.44776 16 7.00005C16 7.5523 15.5523 8.00005 15 8.00005H8C7.44772 8.00005 7 8.44776 7 9.00005V20L7.00488 20.1026C7.05625 20.6067 7.48235 21 8 21H24C24.5523 21 25 20.5523 25 20V17C25 16.4478 25.4477 16 26 16C26.5523 16 27 16.4478 27 17V20C27 21.6569 25.6568 23 24 23H17V26H21C21.5523 26 22 26.4478 22 27C22 27.5523 21.5523 28 21 28H11C10.4477 28 10 27.5523 10 27C10 26.4478 10.4477 26 11 26H15V23H8C6.39492 23 5.08425 21.7395 5.00391 20.1543L5 20V9.00005C5 7.34319 6.34315 6.00005 8 6.00005H15Z" fill="#1F1F22"/>
<path d="M26.293 4.29302C26.6835 3.90249 27.3165 3.90249 27.707 4.29302C28.0975 4.68354 28.0975 5.31657 27.707 5.70708L22.4141 11H26C26.5523 11 27 11.4478 27 12C27 12.5523 26.5523 13 26 13H20C19.4823 13 19.0562 12.6067 19.0049 12.1026L19 12V6.00005C19 5.44776 19.4477 5.00005 20 5.00005C20.5523 5.00005 21 5.44776 21 6.00005V9.58598L26.293 4.29302Z" fill="#1F1F22"/>
</svg>
