<svg width="32" height="32" viewBox="0 0 32 32" fill="none" xmlns="http://www.w3.org/2000/svg">
<path fill-rule="evenodd" clip-rule="evenodd" d="M25 4C26.6569 4 28 5.34315 28 7V25C28 26.6569 26.6569 28 25 28H7C5.34315 28 4 26.6569 4 25V7C4 5.34315 5.34315 4 7 4H25ZM6 25C6 25.5523 6.44771 26 7 26H25C25.5523 26 26 25.5523 26 25V11H19.5V13C19.5 14.1046 18.6046 15 17.5 15H14.5C13.3954 15 12.5 14.1046 12.5 13V11H6V25ZM14.5 13H17.5V11H14.5V13ZM7 6C6.44772 6 6 6.44772 6 7V9H26V7C26 6.44772 25.5523 6 25 6H7Z" fill="#1F1F22"/>
</svg>
