<svg width="32" height="32" viewBox="0 0 32 32" fill="none" xmlns="http://www.w3.org/2000/svg">
<path d="M21.5 14.9998C22.332 14.9998 23.1303 15.1565 23.8643 15.4431C24.3785 15.6441 24.6325 16.2247 24.4316 16.739C24.2307 17.2533 23.6501 17.5073 23.1357 17.3064C22.6301 17.109 22.079 16.9998 21.5 16.9998C19.0148 16.9998 17.0001 19.0146 17 21.4998C17 23.985 19.0147 25.9998 21.5 25.9998C23.8713 25.9998 25.8148 24.1652 25.9873 21.8386C26.0281 21.2879 26.5079 20.874 27.0586 20.9148C27.6092 20.9556 28.023 21.4355 27.9824 21.9861C27.7331 25.3492 24.9263 27.9998 21.5 27.9998C17.9101 27.9998 15 25.0896 15 21.4998C15.0001 17.91 17.9102 14.9998 21.5 14.9998Z" fill="#1F1F22"/>
<path d="M25.875 17.4695C26.3063 17.1245 26.9362 17.1945 27.2812 17.6257C27.6259 18.0569 27.556 18.6861 27.125 19.031L22.125 23.031C21.7638 23.32 21.2509 23.3238 20.8857 23.0398L18.8857 21.4841C18.4499 21.1451 18.3719 20.5167 18.7109 20.0808C19.05 19.6449 19.6783 19.566 20.1143 19.905L21.4912 20.9763L25.875 17.4695Z" fill="#1F1F22"/>
<path d="M16.3018 4.01929C16.665 3.94587 17.0397 4.0802 17.2744 4.36694L21.209 9.17554L27.459 5.15893C27.9234 4.86051 28.5421 4.99466 28.8408 5.45874C29.1394 5.92315 29.0052 6.54181 28.541 6.84058L21.541 11.3406C21.1136 11.6153 20.5473 11.5258 20.2256 11.1326L16.9238 7.09741L12.459 22.282C12.3334 22.7089 11.9411 23.0015 11.4961 22.9998C11.0511 22.998 10.6603 22.7021 10.5381 22.2742L7.24414 10.7468L5.89453 13.447C5.72514 13.7858 5.37877 13.9998 5 13.9998H3C2.44772 13.9998 2 13.552 2 12.9998C2.00016 12.4476 2.44781 11.9998 3 11.9998H4.38184L6.60547 7.55249C6.78994 7.18379 7.18226 6.96552 7.59277 7.00366C8.00321 7.04189 8.34856 7.32903 8.46191 7.72534L11.5137 18.408L15.541 4.71753L15.5889 4.58862C15.72 4.29805 15.9839 4.08367 16.3018 4.01929Z" fill="#1F1F22"/>
</svg>
