<svg width="20" height="20" viewBox="0 0 20 20" fill="none" xmlns="http://www.w3.org/2000/svg">
<path d="M8 0C8.55228 0 9 0.447715 9 1C9 1.55228 8.55228 2 8 2H4C3.44772 2 3 2.44772 3 3V17C3 17.5523 3.44772 18 4 18H14C14.5523 18 15 17.5523 15 17V13C15 12.4477 15.4477 12 16 12C16.5523 12 17 12.4477 17 13V17C17 18.6569 15.6569 20 14 20H4C2.34315 20 1 18.6569 1 17V3C1 1.34315 2.34315 3.22128e-08 4 0H8Z" fill="#1F1F22"/>
<path d="M12 14C12.5523 14 13 14.4477 13 15C13 15.5523 12.5523 16 12 16H6C5.44772 16 5 15.5523 5 15C5 14.4477 5.44772 14 6 14H12Z" fill="#1F1F22"/>
<path d="M8 10C8.55228 10 9 10.4477 9 11C9 11.5523 8.55228 12 8 12H6C5.44772 12 5 11.5523 5 11C5 10.4477 5.44772 10 6 10H8Z" fill="#1F1F22"/>
<path d="M12.793 1.79297C13.1835 1.40246 13.8165 1.40251 14.207 1.79297C14.5976 2.18349 14.5976 2.81651 14.207 3.20703L12.4141 5H17.5C18.0523 5 18.5 5.44772 18.5 6C18.5 6.55228 18.0523 7 17.5 7H12.4141L14.207 8.79297C14.5975 9.18347 14.5975 9.81651 14.207 10.207C13.8165 10.5976 13.1835 10.5975 12.793 10.207L9.29297 6.70703C9.26857 6.68263 9.24596 6.65704 9.22461 6.63086C9.18185 6.57843 9.14478 6.52297 9.11426 6.46484C9.08386 6.40697 9.05929 6.3468 9.04102 6.28516C8.98605 6.09971 8.98622 5.9013 9.04102 5.71582C9.05932 5.65387 9.08371 5.59331 9.11426 5.53516C9.16003 5.44801 9.2197 5.36624 9.29297 5.29297L12.793 1.79297Z" fill="#1F1F22"/>
</svg>
