<svg width="32" height="32" viewBox="0 0 32 32" fill="none" xmlns="http://www.w3.org/2000/svg">
<path d="M20.3747 17.2188C20.8059 16.8738 21.4359 16.9438 21.781 17.375L25.4811 22H28.9997C29.552 22 29.9997 22.4477 29.9997 23C29.9997 23.5523 29.552 24 28.9997 24H25.4811L21.781 28.625C21.4359 29.0562 20.8059 29.1262 20.3747 28.7812C19.9435 28.4362 19.8735 27.8062 20.2185 27.375L22.9186 24H18.9997C18.7346 23.9999 18.4802 23.8945 18.2927 23.707L16.2927 21.707C15.9023 21.3165 15.9023 20.6835 16.2927 20.293C16.6832 19.9025 17.3162 19.9025 17.7067 20.293L19.4138 22H22.9186L20.2185 18.625C19.8735 18.1938 19.9435 17.5638 20.3747 17.2188Z" fill="#1F1F22"/>
<path d="M10.027 14.7314C10.7624 14.1192 11.6512 14.2446 12.2683 14.6748L12.3884 14.7656L12.3903 14.7666C13.3037 15.5105 14.7139 15.9999 15.9997 16C16.5519 16 16.9996 16.4478 16.9997 17C16.9996 17.5522 16.5519 18 15.9997 18C14.3138 17.9999 12.4834 17.3904 11.1921 16.3672C9.77701 17.6001 8.99983 19.2181 8.9997 20.9834C8.9997 21.1734 8.99948 21.3573 9.01142 21.542C9.02349 21.728 9.04549 21.8745 9.07685 21.9795C9.07909 21.9869 9.08256 21.9936 9.08467 22H13.9997C14.5519 22 14.9996 22.4478 14.9997 23C14.9996 23.5522 14.5519 24 13.9997 24H9.00166C8.51485 23.9998 8.0752 23.8367 7.73408 23.5186C7.41662 23.2224 7.25166 22.8557 7.16084 22.5518C6.98737 21.9708 6.9997 21.3064 6.9997 20.9834C6.99983 18.5226 8.12628 16.3204 10.0261 14.7324L10.027 14.7314Z" fill="#1F1F22"/>
<path fill-rule="evenodd" clip-rule="evenodd" d="M15.9997 4C18.7611 4 20.9997 6.23858 20.9997 9C20.9997 11.7614 18.7611 14 15.9997 14C13.2384 13.9999 10.9997 11.7614 10.9997 9C10.9997 6.23864 13.2384 4.0001 15.9997 4ZM15.9997 6C14.3429 6.0001 12.9997 7.34321 12.9997 9C12.9997 10.6568 14.3429 11.9999 15.9997 12C17.6566 12 18.9997 10.6569 18.9997 9C18.9997 7.34315 17.6566 6 15.9997 6Z" fill="#1F1F22"/>
</svg>
