<svg width="20" height="20" viewBox="0 0 20 20" fill="none" xmlns="http://www.w3.org/2000/svg">
<path fill-rule="evenodd" clip-rule="evenodd" d="M10 0C10.5523 0 11 0.447715 11 1C11 1.55228 10.5523 2 10 2C9.77315 2 9.48195 2.09945 9.13281 2.43164C8.77842 2.76891 8.41294 3.30403 8.08496 4.04199C7.5235 5.30527 7.12797 7.03344 7.02637 9H10C10.5523 9 11 9.44772 11 10C11 10.5523 10.5523 11 10 11H7.02637C7.12797 12.9666 7.5235 14.6947 8.08496 15.958C8.41294 16.696 8.77842 17.2311 9.13281 17.5684C9.48195 17.9005 9.77315 18 10 18C10.3531 18 10.8949 17.7362 11.4824 16.7852C12.0486 15.8687 12.5231 14.5066 12.7842 12.8447C12.8699 12.2992 13.3822 11.926 13.9277 12.0117C14.4733 12.0975 14.8464 12.6097 14.7607 13.1553C14.5228 14.6698 14.1114 16.0505 13.5547 17.167C15.4044 16.2479 16.8491 14.6354 17.5449 12.667C17.729 12.1463 18.3006 11.8736 18.8213 12.0576C19.3418 12.2417 19.6145 12.8124 19.4307 13.333C18.0584 17.2156 14.3556 20 10 20C4.47715 20 0 15.5228 0 10C0 4.47715 4.47715 0 10 0ZM2.06445 11C2.40259 13.7108 4.09518 15.9991 6.44531 17.167C6.38069 17.0374 6.31775 16.9054 6.25781 16.7705C5.56803 15.2185 5.1266 13.2041 5.02344 11H2.06445ZM6.44531 2.83203C4.09498 3.99984 2.40261 6.28909 2.06445 9H5.02344C5.1266 6.79589 5.56803 4.78151 6.25781 3.22949C6.31788 3.09436 6.38055 2.96185 6.44531 2.83203Z" fill="#1F1F22"/>
<path d="M17.1523 1.46973C17.4451 1.00167 18.0621 0.859707 18.5303 1.15234C18.9983 1.44515 19.1403 2.06206 18.8477 2.53027L16.9912 5.5H17C17.5523 5.5 18 5.94772 18 6.5C18 7.05228 17.5523 7.5 17 7.5H16.5V8H17C17.5523 8 18 8.44771 18 9C18 9.55229 17.5523 10 17 10H16.5C16.5 10.5523 16.0523 11 15.5 11C14.9477 11 14.5 10.5523 14.5 10H14C13.4477 10 13 9.55229 13 9C13 8.44771 13.4477 8 14 8H14.5V7.5H14C13.4477 7.5 13 7.05228 13 6.5C13 5.94772 13.4477 5.5 14 5.5H14.0088L12.1523 2.53027C11.8597 2.06206 12.0017 1.44515 12.4697 1.15234C12.9379 0.859707 13.5549 1.00167 13.8477 1.46973L15.5 4.11328L17.1523 1.46973Z" fill="#1F1F22"/>
</svg>
