<svg width="20" height="20" viewBox="0 0 20 20" fill="none" xmlns="http://www.w3.org/2000/svg">
<path d="M17 0C18.1046 0 19 0.895431 19 2V19C19 19.5523 18.5523 20 18 20C17.4477 20 17 19.5523 17 19V2H3V19C3 19.5523 2.55228 20 2 20C1.44772 20 1 19.5523 1 19V2C1 0.895431 1.89543 0 3 0H17Z" fill="#1F1F22"/>
<path d="M6 18C6.55228 18 7 18.4477 7 19C7 19.5523 6.55228 20 6 20C5.44772 20 5 19.5523 5 19C5 18.4477 5.44772 18 6 18Z" fill="#1F1F22"/>
<path d="M10 18C10.5523 18 11 18.4477 11 19C11 19.5523 10.5523 20 10 20C9.44771 20 9 19.5523 9 19C9 18.4477 9.44771 18 10 18Z" fill="#1F1F22"/>
<path d="M14 18C14.5523 18 15 18.4477 15 19C15 19.5523 14.5523 20 14 20C13.4477 20 13 19.5523 13 19C13 18.4477 13.4477 18 14 18Z" fill="#1F1F22"/>
<path d="M12.5 11C13.3284 11 14 11.6716 14 12.5C14 13.3284 13.3284 14 12.5 14C11.6716 14 11 13.3284 11 12.5C11 11.6716 11.6716 11 12.5 11Z" fill="#1F1F22"/>
<path d="M11.793 6.79297C12.1835 6.40244 12.8165 6.40244 13.207 6.79297C13.5975 7.18349 13.5976 7.81651 13.207 8.20703L8.20703 13.207C7.81651 13.5975 7.18347 13.5975 6.79297 13.207C6.40246 12.8165 6.40251 12.1835 6.79297 11.793L11.793 6.79297Z" fill="#1F1F22"/>
<path d="M7.5 6C8.32843 6 9 6.67157 9 7.5C9 8.32843 8.32843 9 7.5 9C6.67157 9 6 8.32843 6 7.5C6 6.67157 6.67157 6 7.5 6Z" fill="#1F1F22"/>
</svg>
