<svg width="32" height="32" viewBox="0 0 32 32" fill="none" xmlns="http://www.w3.org/2000/svg">
<path fill-rule="evenodd" clip-rule="evenodd" d="M23.5 14.5C24.8807 14.5 26 15.6193 26 17V18C27.6569 18 29 19.3431 29 21V24C29 25.6569 27.6569 27 26 27H19C17.3431 27 16 25.6569 16 24V21C16 19.3431 17.3431 18 19 18V17C19 15.6193 20.1193 14.5 21.5 14.5H23.5ZM19 20C18.4477 20 18 20.4477 18 21V24C18 24.5523 18.4477 25 19 25H26C26.5523 25 27 24.5523 27 24V21C27 20.4477 26.5523 20 26 20H19ZM21.5 16.5C21.2239 16.5 21 16.7239 21 17V18H24V17C24 16.7239 23.7761 16.5 23.5 16.5H21.5Z" fill="#1F1F22"/>
<path d="M7.06152 14.4502C7.72494 13.8929 8.68139 13.8528 9.38672 14.3311L9.52441 14.4336L9.52637 14.4355C10.4628 15.2052 11.6663 15.6347 12.915 15.6348C14.1885 15.6348 15.4105 15.1901 16.3555 14.3936C16.7777 14.0376 17.4087 14.0914 17.7646 14.5137C18.1205 14.9359 18.0668 15.5669 17.6445 15.9229C16.3317 17.0295 14.6507 17.6348 12.915 17.6348C11.2335 17.6347 9.5991 17.0638 8.30469 16.0186C6.83224 17.2821 6.0001 19.0729 6 20.9365C6 21.2836 6.03172 21.6413 6.09277 22H12C12.5523 22 13 22.4477 13 23C13 23.5523 12.5523 24 12 24H6.0166C5.18495 24 4.41828 23.4616 4.18457 22.6406L4.14453 22.4727C4.04947 21.9633 4 21.4461 4 20.9365C4.0001 18.4455 5.12357 16.0841 7.05957 14.4512L7.06152 14.4502Z" fill="#1F1F22"/>
<path fill-rule="evenodd" clip-rule="evenodd" d="M13 4C15.7614 4 18 6.23858 18 9C18 11.7614 15.7614 14 13 14C10.2386 14 8 11.7614 8 9C8 6.23858 10.2386 4 13 4ZM13 6C11.3431 6 10 7.34315 10 9C10 10.6569 11.3431 12 13 12C14.6569 12 16 10.6569 16 9C16 7.34315 14.6569 6 13 6Z" fill="#1F1F22"/>
</svg>
