<svg width="20" height="20" viewBox="0 0 20 20" fill="none" xmlns="http://www.w3.org/2000/svg">
<path d="M3.25977 10.3281C3.6309 9.9193 4.26293 9.88871 4.67188 10.2598L6.54395 11.958C7.12689 12.4869 7.34578 13.309 7.10254 14.0576L6.00977 17.4189L8.80469 15.3887C9.50566 14.8794 10.4553 14.8794 11.1562 15.3887L13.9512 17.4189L12.8604 14.0635C12.6153 13.3093 12.8392 12.4812 13.4307 11.9531L15.334 10.2539C15.746 9.8862 16.3783 9.92207 16.7461 10.334C17.1138 10.746 17.0779 11.3783 16.666 11.7461L14.7627 13.4453L15.8525 16.8008C16.4512 18.6433 14.3428 20.1757 12.7754 19.0371L9.98047 17.0068L7.18555 19.0371C5.61815 20.1756 3.50972 18.6433 4.1084 16.8008L5.2002 13.4395L3.32812 11.7402C2.9193 11.3691 2.88871 10.7371 3.25977 10.3281Z" fill="#1F1F22"/>
<path d="M10 1C10.8469 1 11.5127 1.6083 11.7285 2.43066L12.9268 7H19C19.5522 7 19.9999 7.44777 20 8C20 8.55228 19.5523 9 19 9H12.7363C11.8144 8.99988 11.1974 8.28807 11.0088 7.56934L10 3.72559L8.99121 7.56934C8.80259 8.28806 8.18556 8.99987 7.26367 9H1C0.447715 9 0 8.55228 0 8C6.59659e-05 7.44777 0.447756 7 1 7H7.07324L8.27148 2.43066C8.48732 1.6083 9.15307 1 10 1Z" fill="#1F1F22"/>
</svg>
