<svg width="20" height="20" viewBox="0 0 20 20" fill="none" xmlns="http://www.w3.org/2000/svg">
<path d="M14.1543 0.00390625C15.7394 0.0842145 17 1.39489 17 3V4C17 4.55228 16.5523 5 16 5C15.4477 5 15 4.55228 15 4V3C15 2.48232 14.6067 2.05621 14.1025 2.00488L14 2H12L11.9951 2.10254C11.9438 2.60667 11.5177 3 11 3H9C8.44772 3 8 2.55228 8 2H6C5.44772 2 5 2.44772 5 3V17C5 17.5523 5.44772 18 6 18H14C14.5523 18 15 17.5523 15 17V16C15 15.4477 15.4477 15 16 15C16.5523 15 17 15.4477 17 16V17C17 18.6569 15.6569 20 14 20H6C4.34315 20 3 18.6569 3 17V3C3 1.34315 4.34315 3.22128e-08 6 0H14L14.1543 0.00390625Z" fill="#1F1F22"/>
<path d="M11 15C11.5523 15 12 15.4477 12 16C12 16.5523 11.5523 17 11 17H9C8.44772 17 8 16.5523 8 16C8 15.4477 8.44772 15 9 15H11Z" fill="#1F1F22"/>
<path d="M17.7959 6.29004C18.1881 5.90141 18.8212 5.90392 19.21 6.2959C19.5986 6.6881 19.5961 7.3212 19.2041 7.70996L14.2041 12.665C13.8156 13.05 13.1901 13.051 12.7998 12.668L10.2998 10.2139C9.90586 9.82706 9.89957 9.19391 10.2861 8.7998C10.6729 8.40584 11.3061 8.39958 11.7002 8.78613L13.4961 10.5498L17.7959 6.29004Z" fill="#1F1F22"/>
</svg>
