<svg width="20" height="20" viewBox="0 0 20 20" fill="none" xmlns="http://www.w3.org/2000/svg">
<path d="M7 8.50036C7.55228 8.50036 8 8.94808 8 9.50036V12.0004C7.99979 12.5525 7.55216 13.0004 7 13.0004C6.44784 13.0004 6.00021 12.5525 6 12.0004V9.50036C6 8.94823 6.44792 8.50061 7 8.50036Z" fill="#1F1F22"/>
<path d="M10 8.50036C10.5523 8.50036 11 8.94808 11 9.50036V12.0004C10.9998 12.5525 10.5522 13.0004 10 13.0004C9.44784 13.0004 9.00021 12.5525 9 12.0004V9.50036C9 8.94823 9.44792 8.50061 10 8.50036Z" fill="#1F1F22"/>
<path d="M13 8.50036C13.5523 8.50036 14 8.94808 14 9.50036V12.0004C13.9998 12.5525 13.5522 13.0004 13 13.0004C12.4478 13.0004 12.0002 12.5525 12 12.0004V9.50036C12 8.94823 12.4479 8.50061 13 8.50036Z" fill="#1F1F22"/>
<path d="M9.73438 4.53649C9.93692 4.48068 10.1534 4.48959 10.3516 4.56384L14.3516 6.06384C14.8684 6.25789 15.1304 6.83492 14.9365 7.35192C14.7423 7.86845 14.1653 8.13066 13.6484 7.93688L10 6.56872L6.35156 7.93688C5.83478 8.13034 5.25755 7.86847 5.06348 7.35192C4.86966 6.83509 5.13189 6.25808 5.64844 6.06384L9.64844 4.56384L9.73438 4.53649Z" fill="#1F1F22"/>
<path fill-rule="evenodd" clip-rule="evenodd" d="M9.84961 0.0120799C9.99909 -0.0106661 10.1523 0.000811752 10.2979 0.0462596L18.2979 2.54626C18.7153 2.67676 19 3.06302 19 3.50036V8.02185C18.9999 11.1311 18.0148 13.4847 16.4141 15.3802C14.8427 17.2409 12.7098 18.6218 10.4912 19.8715C10.1866 20.0429 9.81337 20.0429 9.50879 19.8715C7.28941 18.6214 5.15705 17.2373 3.58594 15.3754C2.08575 13.5973 1.12588 11.4178 1.01172 8.59509L1 8.02185V3.50036L1.0127 3.33923C1.07275 2.9704 1.33687 2.66046 1.70215 2.54626L9.70215 0.0462596L9.84961 0.0120799ZM3 4.23474V8.02185L3.00977 8.50622C3.10413 10.8833 3.89591 12.6412 5.11426 14.0853C6.3419 15.5403 8.03089 16.708 10 17.8461C11.9696 16.7081 13.6583 15.5435 14.8857 14.0902C16.1849 12.5517 16.9999 10.6538 17 8.02185V4.23474L10 2.04724L3 4.23474Z" fill="#1F1F22"/>
</svg>
