<svg width="32" height="32" viewBox="0 0 32 32" fill="none" xmlns="http://www.w3.org/2000/svg">
<path fill-rule="evenodd" clip-rule="evenodd" d="M24 17.5C24.5523 17.5 25 17.9477 25 18.5C25 19.0523 24.5523 19.5 24 19.5H21V20H22.75C24.2688 20 25.5 21.2312 25.5 22.75C25.5 24.2688 24.2688 25.5 22.75 25.5H20C19.4477 25.5 19 25.0523 19 24.5V19.5C19 18.3954 19.8954 17.5 21 17.5H24ZM21 23.5H22.75C23.1642 23.5 23.5 23.1642 23.5 22.75C23.5 22.3358 23.1642 22 22.75 22H21V23.5Z" fill="#1F1F22"/>
<path fill-rule="evenodd" clip-rule="evenodd" d="M22.5 14C26.6421 14 30 17.3579 30 21.5C30 25.6421 26.6421 29 22.5 29H16C15.4477 29 15 28.5523 15 28V21.5C15 17.3579 18.3579 14 22.5 14ZM22.5 16C19.4624 16 17 18.4624 17 21.5V27H22.5C25.5376 27 28 24.5376 28 21.5C28 18.4624 25.5376 16 22.5 16Z" fill="#1F1F22"/>
<path d="M25 4C26.6569 4 28 5.34315 28 7V11C28 11.5523 27.5523 12 27 12C26.4477 12 26 11.5523 26 11V7C26 6.44771 25.5523 6 25 6H7C6.44772 6 6 6.44772 6 7V19C6 19.5523 6.44772 20 7 20H11C11.5523 20 12 20.4477 12 21C12 21.5523 11.5523 22 11 22H7C5.34315 22 4 20.6569 4 19V7C4 5.34315 5.34315 4 7 4H25Z" fill="#1F1F22"/>
<path d="M22 9C22.5523 9 23 9.44772 23 10C23 10.5523 22.5523 11 22 11H10C9.44772 11 9 10.5523 9 10C9 9.44772 9.44772 9 10 9H22Z" fill="#1F1F22"/>
</svg>
