<svg width="20" height="20" viewBox="0 0 20 20" fill="none" xmlns="http://www.w3.org/2000/svg">
<path fill-rule="evenodd" clip-rule="evenodd" d="M14.5 10C15.9738 10 17.2842 10.7111 18.1055 11.8086C18.1919 11.9241 18.2724 12.0443 18.3477 12.168C18.7238 12.7865 18.9552 13.5024 18.9941 14.2686C18.998 14.3452 19 14.4224 19 14.5C19 14.5975 18.9954 14.6941 18.9893 14.79C18.9875 14.8175 18.9847 14.8448 18.9824 14.8721C18.9664 15.0666 18.9394 15.2576 18.8994 15.4443C18.8975 15.4535 18.8956 15.4626 18.8936 15.4717C18.8729 15.565 18.8486 15.657 18.8223 15.748C18.8195 15.7578 18.8173 15.7677 18.8145 15.7773C18.7866 15.8715 18.7555 15.9642 18.7217 16.0557C18.7206 16.0585 18.7208 16.0617 18.7197 16.0645L18.6455 16.25C18.6378 16.2682 18.6281 16.2856 18.6201 16.3037C18.6072 16.3331 18.5946 16.3625 18.5811 16.3916C18.5032 16.559 18.4154 16.7205 18.3184 16.876C18.3147 16.8819 18.3123 16.8886 18.3086 16.8945L19.707 18.293C20.0976 18.6835 20.0976 19.3165 19.707 19.707C19.4385 19.9756 19.0551 20.0598 18.7148 19.959C18.6532 19.9407 18.593 19.9161 18.5352 19.8857C18.477 19.8552 18.4216 19.8182 18.3691 19.7754C18.343 19.754 18.3174 19.7314 18.293 19.707L16.8945 18.3086C16.8886 18.3123 16.8819 18.3147 16.876 18.3184C16.7964 18.3681 16.7157 18.4162 16.6328 18.4609C16.6251 18.4651 16.6171 18.4685 16.6094 18.4727C16.5379 18.5107 16.4653 18.5468 16.3916 18.5811C16.3625 18.5946 16.3331 18.6072 16.3037 18.6201C16.2367 18.6495 16.1692 18.6779 16.1006 18.7041C16.0856 18.7098 16.0708 18.7161 16.0557 18.7217C15.9642 18.7555 15.8715 18.7866 15.7773 18.8145C15.7677 18.8173 15.7578 18.8195 15.748 18.8223C15.6631 18.8468 15.5772 18.8691 15.4902 18.8887C15.4749 18.8921 15.4597 18.8961 15.4443 18.8994C15.3474 18.9202 15.2495 18.9378 15.1504 18.9521C15.1452 18.9529 15.14 18.9534 15.1348 18.9541C15.048 18.9664 14.9604 18.9752 14.8721 18.9824C14.8448 18.9847 14.8175 18.9875 14.79 18.9893C14.6941 18.9954 14.5975 19 14.5 19C13.802 19 13.1408 18.8402 12.5508 18.5557C12.4195 18.4924 12.2918 18.423 12.168 18.3477C11.6732 18.0467 11.2403 17.6535 10.8945 17.1914C10.8081 17.0759 10.7276 16.9557 10.6523 16.832C10.3891 16.3991 10.1969 15.9185 10.0918 15.4062C10.0618 15.2599 10.0388 15.1111 10.0234 14.96C10.0157 14.8843 10.0098 14.8081 10.0059 14.7314C10.002 14.6548 10 14.5776 10 14.5C10 14.4224 10.002 14.3452 10.0059 14.2686C10.0448 13.5024 10.2762 12.7865 10.6523 12.168C10.7276 12.0443 10.8081 11.9241 10.8945 11.8086C11.7158 10.7111 13.0262 10 14.5 10ZM14.5 12C13.1224 12 12 13.1224 12 14.5C12 15.8777 13.1224 17 14.5 17C15.8776 17 17 15.8777 17 14.5C17 13.1224 15.8776 12 14.5 12Z" fill="#1F1F22"/>
<path d="M8 16C8.55229 16 9 16.4477 9 17C9 17.5523 8.55229 18 8 18H1C0.447715 18 0 17.5523 0 17C0 16.4477 0.447715 16 1 16H8Z" fill="#1F1F22"/>
<path d="M3 3C3.55228 3 4 3.44772 4 4V13C4 13.5523 3.55228 14 3 14C2.44772 14 2 13.5523 2 13V4C2 3.44772 2.44772 3 3 3Z" fill="#1F1F22"/>
<path d="M7 0C7.55228 0 8 0.447715 8 1V13L7.99512 13.1025C7.94379 13.6067 7.51768 14 7 14C6.48232 14 6.05621 13.6067 6.00488 13.1025L6 13V1C6 0.447715 6.44772 0 7 0Z" fill="#1F1F22"/>
<path d="M11 3C11.5523 3 12 3.44772 12 4V8C12 8.55229 11.5523 9 11 9C10.4477 9 10 8.55229 10 8V4C10 3.44772 10.4477 3 11 3Z" fill="#1F1F22"/>
<path d="M15 1C15.5523 1 16 1.44772 16 2V7C16 7.55228 15.5523 8 15 8C14.4477 8 14 7.55228 14 7V2C14 1.44772 14.4477 1 15 1Z" fill="#1F1F22"/>
</svg>
