<svg width="32" height="32" viewBox="0 0 32 32" fill="none" xmlns="http://www.w3.org/2000/svg">
<path d="M14 3C14.5523 3 15 3.44772 15 4C15 4.55228 15.4477 5 16 5C16.5523 5 17 4.55228 17 4C17 3.44772 17.4477 3 18 3C18.5523 3 19 3.44772 19 4C19 5.65685 17.6569 7 16 7C14.3431 7 13 5.65685 13 4C13 3.44772 13.4477 3 14 3Z" fill="#1F1F22"/>
<path d="M10 8C9.44772 8 9 8.44772 9 9C9 9.55228 9.44772 10 10 10L22 10C22.5523 10 23 9.55229 23 9C23 8.44772 22.5523 8 22 8L10 8Z" fill="#1F1F22"/>
<path d="M23.7491 12.3375C23.3832 11.9238 22.7512 11.8851 22.3375 12.2509C21.9238 12.6168 21.885 13.2488 22.2509 13.6625C23.4355 15.0018 24 16.9361 24 19.0444C24 23.4335 20.4229 27 16 27C11.5771 27 8 23.4335 8 19.0444C8 16.8551 8.50301 15.0176 9.73604 13.677C10.1099 13.2705 10.0834 12.6378 9.67694 12.264C9.27044 11.8901 8.63783 11.9166 8.26396 12.3231C6.56679 14.1684 6 16.5745 6 19.0444C6 24.5474 10.4818 29 16 29C21.5182 29 26 24.5474 26 19.0444C26 16.6196 25.355 14.1533 23.7491 12.3375Z" fill="#1F1F22"/>
<path fill-rule="evenodd" clip-rule="evenodd" d="M16 16C14.3431 16 13 17.3431 13 19C13 20.6569 14.3431 22 16 22C17.6569 22 19 20.6569 19 19C19 17.3431 17.6569 16 16 16ZM15 19C15 18.4477 15.4477 18 16 18C16.5523 18 17 18.4477 17 19C17 19.5523 16.5523 20 16 20C15.4477 20 15 19.5523 15 19Z" fill="#1F1F22"/>
</svg>
