<svg width="20" height="20" viewBox="0 0 20 20" fill="none" xmlns="http://www.w3.org/2000/svg">
<path d="M8 0C8.55228 0 9 0.447715 9 1C9 1.55228 8.55228 2 8 2H4C3.44772 2 3 2.44772 3 3V17C3 17.5523 3.44772 18 4 18H14C14.5523 18 15 17.5523 15 17V11C15 10.4477 15.4477 10 16 10C16.5523 10 17 10.4477 17 11V17C17 18.6569 15.6569 20 14 20H4C2.34315 20 1 18.6569 1 17V3C1 1.34315 2.34315 3.22128e-08 4 0H8Z" fill="#1F1F22"/>
<path d="M12 14C12.5523 14 13 14.4477 13 15C13 15.5523 12.5523 16 12 16H6C5.44772 16 5 15.5523 5 15C5 14.4477 5.44772 14 6 14H12Z" fill="#1F1F22"/>
<path d="M8 10C8.55228 10 9 10.4477 9 11C9 11.5523 8.55228 12 8 12H6C5.44772 12 5 11.5523 5 11C5 10.4477 5.44772 10 6 10H8Z" fill="#1F1F22"/>
<path d="M8 6C8.55228 6 9 6.44772 9 7C9 7.55228 8.55228 8 8 8H6C5.44772 8 5 7.55228 5 7C5 6.44772 5.44772 6 6 6H8Z" fill="#1F1F22"/>
<path d="M17.7959 1.29004C18.1881 0.90141 18.8212 0.90392 19.21 1.2959C19.5986 1.6881 19.5961 2.3212 19.2041 2.70996L14.2041 7.66504C13.8156 8.04996 13.1901 8.05101 12.7998 7.66797L10.2998 5.21387C9.90586 4.82706 9.89957 4.19391 10.2861 3.7998C10.6729 3.40584 11.3061 3.39958 11.7002 3.78613L13.4961 5.5498L17.7959 1.29004Z" fill="#1F1F22"/>
</svg>
