<svg width="20" height="20" viewBox="0 0 20 20" fill="none" xmlns="http://www.w3.org/2000/svg">
<path d="M18 15.0002C18.5523 15.0002 19 15.4479 19 16.0002C19 16.5524 18.5523 17.0002 18 17.0002H2C1.44774 17.0002 1.00004 16.5524 1 16.0002C1 15.4479 1.44772 15.0002 2 15.0002H18Z" fill="#1F1F22"/>
<path d="M9.49121 3.03827C10.5226 1.80913 12.3548 1.64854 13.584 2.67987L17.2334 5.74139C18.4624 6.7728 18.6222 8.60603 17.5908 9.83514L14.6475 13.343C14.2925 13.7659 13.6614 13.8217 13.2383 13.467C12.8152 13.112 12.7602 12.4809 13.1152 12.0578L16.0586 8.54901C16.38 8.166 16.3303 7.59501 15.9473 7.27362L12.2988 4.2121C11.9159 3.89078 11.3449 3.94064 11.0234 4.32342L5.51172 10.8918C5.22538 11.2333 5.23366 11.7262 5.51172 12.0558C5.86772 12.4779 5.81458 13.1089 5.39258 13.465C4.97044 13.8211 4.33952 13.767 3.9834 13.3449C3.08893 12.2846 3.05715 10.7049 3.97949 9.60565L9.49121 3.03827Z" fill="#1F1F22"/>
</svg>
