<svg width="32" height="32" viewBox="0 0 32 32" fill="none" xmlns="http://www.w3.org/2000/svg">
<path d="M11 4.00004C11.5523 4.00004 12 4.44778 12 5.00004C12 5.55233 11.5523 6.00004 11 6.00004H10C9.44773 6.00004 9.00003 6.44778 9 7.00004V24C9 24.5523 9.44772 25 10 25H22C22.5523 25 23 24.5523 23 24V18C23 17.4478 23.4477 17 24 17C24.5523 17 25 17.4478 25 18V24C25 25.6569 23.6569 27 22 27H10C8.34315 27 7 25.6569 7 24V7.00004C7.00003 5.34321 8.34317 4.00004 10 4.00004H11Z" fill="#1F1F22"/>
<path d="M20 20C20.5523 20 21 20.4478 21 21C21 21.5523 20.5523 22 20 22H12C11.4477 22 11 21.5523 11 21C11 20.4478 11.4477 20 12 20H20Z" fill="#1F1F22"/>
<path d="M16 16C16.5523 16 17 16.4478 17 17C17 17.5523 16.5523 18 16 18H12C11.4477 18 11 17.5523 11 17C11 16.4478 11.4477 16 12 16H16Z" fill="#1F1F22"/>
<path fill-rule="evenodd" clip-rule="evenodd" d="M23.4453 2.16801C23.9048 1.8617 24.5256 1.98594 24.832 2.44535L26.5352 5.00004H28C28.3251 5.00004 28.63 5.15815 28.8174 5.42387C29.0047 5.68961 29.0507 6.0298 28.9414 6.33598L26.4414 13.336C26.2993 13.734 25.9226 14 25.5 14H18.5C18.0774 14 17.7007 13.734 17.5586 13.336L15.0586 6.33598C14.9493 6.0298 14.9953 5.68961 15.1826 5.42387C15.37 5.15815 15.6749 5.00004 16 5.00004H17.4648L19.168 2.44535C19.4743 1.98592 20.0952 1.86178 20.5547 2.16801C21.0142 2.47435 21.1383 3.09521 20.832 3.55473L19.8682 5.00004H24.1318L23.168 3.55473C22.8617 3.09522 22.9858 2.47433 23.4453 2.16801ZM19.2041 12H24.7959L26.5811 7.00004H17.4189L19.2041 12Z" fill="#1F1F22"/>
<path d="M14 12.0001C14.5523 12.0001 15 12.4478 15 13.0001C15 13.5524 14.5523 14.0001 14 14.0001H12C11.4477 14.0001 11 13.5524 11 13.0001C11 12.4478 11.4477 12.0001 12 12.0001H14Z" fill="#1F1F22"/>
</svg>
