<svg width="20" height="20" viewBox="0 0 20 20" fill="none" xmlns="http://www.w3.org/2000/svg">
<path d="M10.1251 13.9014C10.7379 11.2082 13.4392 9.51652 16.1592 10.1231C16.7032 10.2445 17.0454 10.7798 16.9229 11.3184C16.8004 11.857 16.2598 12.1955 15.7159 12.0743C14.0838 11.7102 12.4625 12.7249 12.0948 14.3409C11.7271 15.9568 12.7519 17.5616 14.3839 17.9258C16.0159 18.2899 17.6372 17.2752 18.0049 15.6592C18.1275 15.1206 18.668 14.7821 19.212 14.9034C19.756 15.0247 20.0972 15.56 19.9747 16.0987C19.3618 18.7919 16.6605 20.4836 13.9405 19.877C11.2204 19.2702 9.5122 16.5947 10.1251 13.9014Z" fill="#1F1F22"/>
<path d="M17.4327 12.2325C17.861 11.8791 18.4975 11.9365 18.8546 12.3604C19.2116 12.7846 19.154 13.4151 18.7256 13.7686L15.6964 16.2676C15.2952 16.5986 14.7053 16.5727 14.336 16.2071L13.3262 15.2071C12.932 14.8166 12.9319 14.1834 13.3262 13.793C13.7205 13.4028 14.3597 13.4029 14.754 13.793L15.1124 14.1475L17.4327 12.2325Z" fill="#1F1F22"/>
<path d="M9.81842 0.0166504C10.2035 -0.0544773 10.5948 0.106002 10.8194 0.426807L13.8057 4.69341L18.5215 2.12212C19.0063 1.85788 19.6136 2.0368 19.878 2.52153C20.1422 3.00634 19.9633 3.61357 19.4786 3.87798L13.9786 6.87798C13.5315 7.12158 12.9727 6.99039 12.6807 6.57329L10.4376 3.36919L7.46979 15.2422C7.36194 15.6735 6.98241 15.982 6.53815 15.9991C6.09413 16.016 5.69246 15.738 5.55182 15.3165L2.75885 6.93755L1.86822 8.49614C1.5942 8.97562 0.983468 9.14221 0.503967 8.86821C0.0245216 8.59419 -0.142059 7.98344 0.131897 7.50395L2.1319 4.00395L2.21393 3.88286C2.42283 3.61665 2.75535 3.47097 3.09869 3.50493C3.49101 3.54382 3.82352 3.80969 3.9483 4.18364L6.36237 11.4268L9.03033 0.757861L9.07526 0.61919C9.20318 0.308384 9.48154 0.0789883 9.81842 0.0166504Z" fill="#1F1F22"/>
</svg>
