<svg width="32" height="32" viewBox="0 0 32 32" fill="none" xmlns="http://www.w3.org/2000/svg">
<path d="M14 5C14.5523 5 15 5.44772 15 6C15 6.55228 14.5523 7 14 7H10C9.44772 7 9 7.44772 9 8V25C9 25.5523 9.44772 26 10 26H22C22.5523 26 23 25.5523 23 25V19.5C23 18.9477 23.4477 18.5 24 18.5C24.5523 18.5 25 18.9477 25 19.5V25C25 26.6569 23.6569 28 22 28H10C8.34315 28 7 26.6569 7 25V8C7 6.34315 8.34315 5 10 5H14Z" fill="#1F1F22"/>
<path d="M20 21C20.5523 21 21 21.4477 21 22C21 22.5523 20.5523 23 20 23H12C11.4477 23 11 22.5523 11 22C11 21.4477 11.4477 21 12 21H20Z" fill="#1F1F22"/>
<path d="M15 17C15.5523 17 16 17.4477 16 18C16 18.5523 15.5523 19 15 19H12C11.4477 19 11 18.5523 11 18C11 17.4477 11.4477 17 12 17H15Z" fill="#1F1F22"/>
<path d="M19.293 6.29297C19.6835 5.90251 20.3165 5.90246 20.707 6.29297C21.0975 6.68347 21.0975 7.31651 20.707 7.70703L17.9141 10.5H25.5C26.0523 10.5 26.5 10.9477 26.5 11.5C26.5 12.0523 26.0523 12.5 25.5 12.5H17.9141L20.707 15.293C21.0976 15.6835 21.0976 16.3165 20.707 16.707C20.3165 17.0975 19.6835 17.0976 19.293 16.707L14.793 12.207C14.7686 12.1826 14.746 12.157 14.7246 12.1309C14.7218 12.1274 14.7195 12.1236 14.7168 12.1201C14.6807 12.0745 14.648 12.0261 14.6201 11.9746C14.6183 11.9713 14.616 11.9682 14.6143 11.9648C14.6088 11.9544 14.6047 11.9432 14.5996 11.9326C14.5778 11.8873 14.5578 11.8408 14.543 11.792C14.5423 11.7897 14.5417 11.7874 14.541 11.7852C14.5293 11.7457 14.5214 11.7054 14.5146 11.665C14.5057 11.6113 14.5 11.5563 14.5 11.5C14.5 11.3445 14.5363 11.1977 14.5996 11.0664C14.6046 11.0561 14.6089 11.0454 14.6143 11.0352C14.6295 11.0061 14.6467 10.9779 14.665 10.9502C14.7024 10.8935 14.7452 10.8408 14.793 10.793L19.293 6.29297Z" fill="#1F1F22"/>
</svg>
