<svg width="20" height="20" viewBox="0 0 20 20" fill="none" xmlns="http://www.w3.org/2000/svg">
<path d="M13.2959 6.2904C13.6881 5.90176 14.3212 5.90425 14.71 6.29626C15.0984 6.68848 15.0961 7.32161 14.7041 7.71032L9.7041 12.6654C9.31569 13.0501 8.69003 13.0511 8.2998 12.6683L5.7998 10.2142C5.4059 9.82748 5.39975 9.1943 5.78613 8.80017C6.17294 8.40619 6.80608 8.39992 7.2002 8.78649L8.99609 10.5502L13.2959 6.2904Z" fill="#1F1F22"/>
<path fill-rule="evenodd" clip-rule="evenodd" d="M9.84961 0.0120798C9.99909 -0.0106661 10.1523 0.000812046 10.2979 0.0462594L18.2979 2.54626C18.7153 2.67672 19 3.06298 19 3.50036V8.02185C18.9999 11.1311 18.0148 13.4847 16.4141 15.3802C14.8427 17.2409 12.7098 18.6218 10.4912 19.8715C10.1866 20.0429 9.81336 20.043 9.50879 19.8715C7.28938 18.6214 5.15705 17.2374 3.58594 15.3754C2.08574 13.5973 1.12587 11.4178 1.01172 8.59509L1 8.02185V3.50036L1.0127 3.33923C1.07275 2.97043 1.33692 2.66048 1.70215 2.54626L9.70215 0.0462594L9.84961 0.0120798ZM3 4.23474V8.02185L3.00977 8.50622C3.10413 10.8833 3.89591 12.6412 5.11426 14.0853C6.34191 15.5403 8.03086 16.708 10 17.8461C11.9696 16.7082 13.6583 15.5435 14.8857 14.0902C16.1849 12.5517 16.9999 10.6538 17 8.02185V4.23474L10 2.04724L3 4.23474Z" fill="#1F1F22"/>
</svg>
