<svg width="20" height="20" viewBox="0 0 20 20" fill="none" xmlns="http://www.w3.org/2000/svg">
<path d="M15 6.5C15.5523 6.5 16 6.94772 16 7.5C16 8.05228 15.5523 8.5 15 8.5H5C4.44772 8.5 4 8.05228 4 7.5C4 6.94772 4.44772 6.5 5 6.5H15Z" fill="#1F1F22"/>
<path fill-rule="evenodd" clip-rule="evenodd" d="M17 2.5C18.6569 2.5 20 3.84315 20 5.5V14.5C20 16.1569 18.6569 17.5 17 17.5H3C1.34315 17.5 4.0266e-08 16.1569 0 14.5V5.5C0 3.84315 1.34315 2.5 3 2.5H17ZM3 4.5C2.44772 4.5 2 4.94772 2 5.5V14.5C2 15.0523 2.44772 15.5 3 15.5H17C17.5523 15.5 18 15.0523 18 14.5V5.5C18 4.94772 17.5523 4.5 17 4.5H3Z" fill="#1F1F22"/>
</svg>
