<svg width="20" height="20" viewBox="0 0 20 20" fill="none" xmlns="http://www.w3.org/2000/svg">
<path d="M10 0C10.9622 0 11.8944 0.135845 12.7773 0.390625C13.3079 0.543733 13.614 1.09831 13.4609 1.62891C13.3078 2.15954 12.7533 2.46562 12.2227 2.3125C11.5182 2.10922 10.7727 2 10 2C5.58172 2 2 5.58172 2 10C2 14.4183 5.58172 18 10 18C14.4183 18 18 14.4183 18 10C18 9.38771 17.9313 8.79268 17.8018 8.22168C17.6795 7.68309 18.0171 7.14663 18.5557 7.02441C19.0941 6.90227 19.6296 7.23999 19.752 7.77832C19.9143 8.49366 20 9.23765 20 10C20 15.5228 15.5228 20 10 20C4.47715 20 0 15.5228 0 10C0 4.47715 4.47715 0 10 0Z" fill="#1F1F22"/>
<path fill-rule="evenodd" clip-rule="evenodd" d="M7 6.89453C7.00017 5.79454 8.13093 5.09414 9.0957 5.51758L9.28613 5.61719L14.332 8.72266C15.2838 9.30838 15.2838 10.6916 14.332 11.2773L9.28613 14.3828C8.28681 14.9977 7.00018 14.2788 7 13.1055V6.89453ZM9 12.21L12.5918 10L9 7.78906V12.21Z" fill="#1F1F22"/>
</svg>
