<svg width="20" height="20" viewBox="0 0 20 20" fill="none" xmlns="http://www.w3.org/2000/svg">
<path fill-rule="evenodd" clip-rule="evenodd" d="M15.3529 9.51101C15.4993 9.48919 15.6495 9.50066 15.7923 9.54422L19.2923 10.6145C19.7127 10.7431 20.0003 11.1309 20.0003 11.5706V13.511C20.0003 15.1505 19.5438 16.4239 18.7767 17.4622C18.0306 18.4717 17.0279 19.206 16.0413 19.8411C15.7118 20.0529 15.2888 20.0531 14.9593 19.8411C13.9718 19.2055 12.9698 18.4695 12.2239 17.4593C11.4573 16.4207 11.0003 15.1478 11.0003 13.511V11.5706C11.0003 11.1311 11.2881 10.7432 11.7083 10.6145L15.2083 9.54422L15.3529 9.51101ZM13.0003 12.3098V13.511C13.0003 14.7386 13.3313 15.5918 13.8333 16.2718C14.251 16.8374 14.8135 17.3178 15.5003 17.7962C16.1877 17.3178 16.7507 16.8388 17.1683 16.2737C17.6698 15.5949 18.0003 14.7421 18.0003 13.511V12.3098L15.5003 11.5452L13.0003 12.3098Z" fill="#1F1F22"/>
<path d="M8.00031 12.5003C8.5526 12.5003 9.00031 12.948 9.00031 13.5003C9.00022 14.0525 8.55254 14.5003 8.00031 14.5003H1.00031C0.448259 14.5001 0.000406187 14.0523 0.000312451 13.5003C0.000312451 12.9481 0.448201 12.5005 1.00031 12.5003H8.00031Z" fill="#1F1F22"/>
<path d="M3.00031 5.50027C3.5526 5.50027 4.00031 5.94799 4.00031 6.50027V10.5003C4.00022 11.0525 3.55254 11.5003 3.00031 11.5003C2.44826 11.5001 2.00041 11.0523 2.00031 10.5003V6.50027C2.00031 5.94811 2.4482 5.50047 3.00031 5.50027Z" fill="#1F1F22"/>
<path d="M7.00031 5.50027C7.5526 5.50027 8.00031 5.94799 8.00031 6.50027V10.5003C8.00022 11.0525 7.55254 11.5003 7.00031 11.5003C6.44826 11.5001 6.00041 11.0523 6.00031 10.5003V6.50027C6.00031 5.94811 6.4482 5.50047 7.00031 5.50027Z" fill="#1F1F22"/>
<path d="M11.0003 5.50027C11.5526 5.50027 12.0003 5.94799 12.0003 6.50027V8.00027C12.0002 8.55247 11.5525 9.00027 11.0003 9.00027C10.4483 9.00007 10.0004 8.55235 10.0003 8.00027V6.50027C10.0003 5.94811 10.4482 5.50047 11.0003 5.50027Z" fill="#1F1F22"/>
<path d="M6.68977 0.0500749C6.92512 -0.0268564 7.18232 -0.0143542 7.41047 0.0881609L13.4105 2.78933C13.9141 3.01602 14.1391 3.60798 13.9124 4.1116C13.6856 4.61495 13.0936 4.83911 12.5902 4.61258L7.00031 2.09695L1.41047 4.61258C0.906976 4.83887 0.314824 4.61502 0.0882031 4.1116C-0.138417 3.60811 0.0868161 3.01615 0.590156 2.78933L6.59016 0.0881609L6.68977 0.0500749Z" fill="#1F1F22"/>
</svg>
