<svg width="32" height="32" viewBox="0 0 32 32" fill="none" xmlns="http://www.w3.org/2000/svg">
<path fill-rule="evenodd" clip-rule="evenodd" d="M18.9393 4.63894C20.0645 4.30418 21.2088 4.63784 21.8367 4.96413C21.8941 4.99392 21.9483 5.02934 21.9988 5.0696C22.3988 5.38836 22.7105 5.80436 22.7957 6.37429C22.8415 6.68129 22.813 6.98732 22.7537 7.27468C22.9097 7.54168 23.0091 7.81626 23.074 8.06179C23.3416 7.66772 23.6178 7.26774 23.8699 6.90456C23.9863 6.73692 24.0969 6.57825 24.1981 6.43288C24.5103 5.98414 24.7389 5.65449 24.8201 5.52663C25.221 4.89583 25.9971 4.7075 26.6307 4.85183C27.3422 5.01393 27.9188 5.56072 28.242 6.37429C28.518 7.06933 28.839 8.41546 28.9549 9.99441C29.0715 11.583 28.9888 13.5001 28.3836 15.3069C27.8106 17.0176 27.174 18.1064 26.5037 18.8294C25.8149 19.5723 25.1469 19.8621 24.701 20.054C24.1545 20.2891 23.5247 20.317 22.866 20.2063C22.8801 20.3774 22.8762 20.554 22.8524 20.7356C22.7881 21.2255 22.5866 21.695 22.3084 22.1555C22.1818 22.3651 21.9827 22.5214 21.7488 22.594C21.3781 22.7089 21.0451 22.8381 20.8221 22.9319C20.904 23.0775 20.9742 23.2302 21.0301 23.3899C21.2796 24.1036 21.2104 24.8798 20.7479 25.5872C20.5115 25.9485 20.1782 26.208 19.8787 26.3948C19.5715 26.5864 19.2337 26.7415 18.9207 26.8684C18.6059 26.9961 18.2865 27.1072 18.0174 27.2005C17.9179 27.2349 17.8276 27.2664 17.7459 27.2952C17.5721 27.6426 17.3431 27.9129 17.077 28.1106C16.7051 28.3868 16.3384 28.4631 16.1404 28.4905C16.0932 28.497 16.0462 28.5004 15.9998 28.5003C15.9535 28.5004 15.9064 28.497 15.8592 28.4905C15.6613 28.4631 15.2946 28.3869 14.9227 28.1106C14.6565 27.9129 14.4276 27.6426 14.2537 27.2952C14.172 27.2663 14.0817 27.2349 13.9822 27.2005C13.7132 27.1073 13.3937 26.9961 13.0789 26.8684C12.766 26.7415 12.4281 26.5863 12.1209 26.3948C11.8215 26.208 11.489 25.9485 11.2527 25.5872C10.79 24.8797 10.72 24.1038 10.9695 23.3899C11.0254 23.2302 11.0956 23.0775 11.1776 22.9319C10.9545 22.8381 10.6224 22.7089 10.2518 22.594C10.0177 22.5215 9.8179 22.3653 9.69122 22.1555C9.41308 21.695 9.21152 21.2254 9.14728 20.7356C9.12348 20.5541 9.11952 20.3774 9.13361 20.2063C8.47499 20.317 7.84507 20.2891 7.29864 20.054C6.85267 19.862 6.18471 19.5723 5.49591 18.8294C4.82569 18.1065 4.19 17.0175 3.617 15.3069C3.01183 13.5001 2.92813 11.583 3.04474 9.99441C3.16067 8.41552 3.48163 7.06936 3.75763 6.37429C4.08076 5.56079 4.65756 5.01398 5.36896 4.85183C6.00249 4.70749 6.7786 4.89583 7.1795 5.52663C7.26074 5.65446 7.49012 5.98386 7.80255 6.43288C7.90371 6.57827 8.01331 6.73691 8.1297 6.90456C8.38184 7.26776 8.65805 7.66769 8.9256 8.06179C8.99052 7.81629 9.08998 7.54165 9.24591 7.27468C9.18667 6.98734 9.1581 6.68127 9.20392 6.37429C9.28913 5.80441 9.60092 5.38836 10.0008 5.0696C10.0513 5.02937 10.1056 4.99391 10.1629 4.96413C10.7909 4.6378 11.936 4.30402 13.0613 4.63894C13.834 4.86906 14.2595 5.44127 14.4402 5.99831C14.5111 6.2169 14.5482 6.44053 14.5584 6.65554C14.9831 6.95353 15.378 7.3161 15.7117 7.67116C15.8105 7.77622 15.9067 7.88458 15.9998 7.99343C16.093 7.88458 16.1892 7.77622 16.2879 7.67116C16.6218 7.31596 17.0173 6.95361 17.4422 6.65554C17.4524 6.44053 17.4885 6.2169 17.5594 5.99831C17.7401 5.44116 18.1663 4.86899 18.9393 4.63894ZM12.4901 6.55593C12.0683 6.43055 11.5362 6.53554 11.1815 6.69265C11.1817 6.7118 11.1835 6.74408 11.1912 6.79323C11.2057 6.88556 11.2355 7.0121 11.2899 7.18972C11.3964 7.53842 11.3048 7.91751 11.0506 8.17898C10.9779 8.25389 10.9014 8.39321 10.8484 8.6155C10.7971 8.83128 10.784 9.05645 10.784 9.22585C10.784 9.32145 10.7859 9.39638 10.7938 9.46804C10.8001 9.5261 10.8096 9.56847 10.8192 9.59792C10.8633 9.54717 10.9248 9.47791 10.9959 9.41042C11.1615 9.25322 11.4921 8.99441 11.9822 8.99441C12.5534 8.99451 12.9177 9.35839 13.0828 9.56472C13.2673 9.79518 13.396 10.0633 13.4842 10.2884C13.6562 10.7271 13.7751 11.2672 13.7752 11.6487C13.7752 11.6701 13.7763 11.7021 13.7772 11.7415C13.7815 11.9406 13.7901 12.3421 13.7371 12.6721C13.7042 12.8771 13.6315 13.1884 13.4295 13.469C13.1889 13.8031 12.8008 14.0382 12.3182 14.0384C11.988 14.0384 11.7062 13.9053 11.5535 13.8245C11.3698 13.7273 11.1854 13.6011 11.0115 13.47C10.6611 13.2057 10.2723 12.8554 9.89435 12.4817C9.1445 11.7403 8.34207 10.8125 7.87677 10.095C7.47437 9.47445 6.94891 8.71038 6.48712 8.04519C6.38623 7.89986 6.28669 7.75713 6.1922 7.62136C6.00693 7.35514 5.83926 7.11382 5.70978 6.92507C5.68113 6.97028 5.64825 7.03145 5.61603 7.11257C5.43424 7.57055 5.14519 8.70627 5.03986 10.1409C4.93518 11.5669 5.01985 13.1973 5.51349 14.6712C6.03032 16.2142 6.54701 17.0216 6.96271 17.47C7.35971 17.8981 7.71161 18.0544 8.08966 18.2171C8.19433 18.262 8.48609 18.3221 9.07208 18.177C9.64505 18.0351 10.4104 17.7178 11.3807 17.1428C11.8236 16.8805 12.3931 16.9979 12.6971 17.4134C13.001 17.8287 12.9403 18.4065 12.5565 18.7493C12.1607 19.1025 11.8526 19.3792 11.6111 19.6301C11.3693 19.8815 11.2445 20.0569 11.1815 20.1878C11.1295 20.2958 11.1177 20.3769 11.1307 20.4759C11.1408 20.5528 11.17 20.662 11.2391 20.8137C11.5746 20.9309 11.866 21.0496 12.0731 21.1399C12.1766 21.1335 12.3061 21.1192 12.4344 21.094C12.4705 21.0869 12.5026 21.0786 12.5311 21.0716C12.5644 20.9811 12.6271 20.8148 12.6854 20.6946C12.7684 20.5234 12.9554 20.1865 13.3475 19.9895C13.7818 19.7713 14.2202 19.8403 14.5477 19.97C14.5938 19.9883 14.6386 20.0105 14.6815 20.0354C14.8804 20.1509 15.0863 20.3438 15.199 20.6341C15.3082 20.9153 15.2883 21.1797 15.241 21.3694C15.157 21.7067 14.9477 21.9772 14.8045 22.1438C14.4872 22.5131 13.9909 22.9295 13.4461 23.3479C13.0981 23.6152 12.9207 23.8684 12.8572 24.0501C12.8094 24.187 12.8087 24.3136 12.9256 24.4925C12.9386 24.5123 13.002 24.5878 13.1795 24.6985C13.349 24.8042 13.5694 24.9089 13.8309 25.0149C14.0909 25.1203 14.3635 25.2159 14.6375 25.3108L14.6766 25.3245C14.9239 25.4101 15.1926 25.503 15.4109 25.596C15.6855 25.7129 15.8937 25.9466 15.9783 26.2327C15.9854 26.2567 15.9927 26.2791 15.9998 26.2991C16.0069 26.2791 16.0142 26.2567 16.0213 26.2327C16.1059 25.9465 16.3142 25.7129 16.5887 25.596C16.807 25.503 17.0757 25.4101 17.3231 25.3245L17.3631 25.3108C17.637 25.2159 17.9088 25.1203 18.1688 25.0149C18.4305 24.9088 18.6515 24.8043 18.8211 24.6985C18.9985 24.5879 19.0611 24.5123 19.074 24.4925C19.191 24.3135 19.1902 24.187 19.1424 24.0501C19.0789 23.8684 18.9024 23.6151 18.5545 23.3479C18.0096 22.9295 17.5125 22.5132 17.1951 22.1438C17.0519 21.9772 16.8436 21.7065 16.7596 21.3694C16.7123 21.1797 16.6915 20.9153 16.8006 20.6341C16.9133 20.3438 17.1193 20.1509 17.3182 20.0354C17.3611 20.0105 17.4058 19.9883 17.452 19.97C17.7794 19.8403 18.2178 19.7714 18.6522 19.9895C19.0442 20.1865 19.2312 20.5233 19.3143 20.6946C19.3725 20.8148 19.4352 20.9811 19.4686 21.0716C19.497 21.0786 19.5291 21.0869 19.5652 21.094C19.6934 21.1192 19.8231 21.1335 19.9266 21.1399C20.1337 21.0496 20.4259 20.9309 20.7615 20.8137C20.8305 20.6621 20.8588 20.5527 20.869 20.4759C20.8819 20.3769 20.8701 20.2958 20.8182 20.1878C20.7551 20.0569 20.6302 19.8814 20.3885 19.6301C20.1471 19.3793 19.8389 19.1024 19.4432 18.7493C19.0595 18.4065 18.9988 17.8287 19.3026 17.4134C19.6065 16.998 20.1761 16.8807 20.619 17.1428C21.5891 17.7177 22.3546 18.0351 22.9276 18.177C23.5141 18.3223 23.8065 18.262 23.9109 18.2171C24.289 18.0544 24.6409 17.8982 25.0379 17.47C25.4536 17.0216 25.9703 16.2142 26.4871 14.6712C26.9807 13.1974 27.0654 11.5668 26.9608 10.1409C26.8554 8.70616 26.5654 7.5705 26.3836 7.11257C26.3515 7.03165 26.3194 6.97025 26.2908 6.92507C26.1613 7.11385 25.9928 7.35502 25.8074 7.62136C25.713 7.7571 25.6144 7.8999 25.5135 8.04519C25.0516 8.71046 24.5253 9.47434 24.1229 10.095C23.6576 10.8124 22.856 11.7404 22.1063 12.4817C21.7283 12.8555 21.3386 13.2057 20.9881 13.47C20.8142 13.6011 20.6298 13.7273 20.4461 13.8245C20.2935 13.9052 20.0125 14.0383 19.6824 14.0384C19.1996 14.0384 18.8108 13.8032 18.5701 13.469C18.3682 13.1885 18.2954 12.8771 18.2625 12.6721C18.2095 12.3421 18.2181 11.9406 18.2225 11.7415C18.2233 11.7021 18.2244 11.6701 18.2244 11.6487C18.2245 11.2672 18.3435 10.7271 18.5154 10.2884C18.6037 10.0633 18.7323 9.7952 18.9168 9.56472C19.0819 9.35844 19.4463 8.99461 20.0174 8.99441C20.5075 8.99441 20.8381 9.25322 21.0037 9.41042C21.0748 9.47792 21.1363 9.54714 21.1805 9.59792C21.19 9.56847 21.1995 9.5261 21.2059 9.46804C21.2137 9.39637 21.2156 9.32146 21.2156 9.22585C21.2156 9.05644 21.2026 8.83129 21.1512 8.6155C21.0982 8.39309 21.0218 8.25386 20.949 8.17898C20.6949 7.91753 20.6033 7.5384 20.7098 7.18972C20.7641 7.0121 20.7939 6.88556 20.8084 6.79323C20.8161 6.74406 20.8189 6.71181 20.8192 6.69265C20.4643 6.53543 19.9315 6.43041 19.5096 6.55593C19.496 6.55997 19.4886 6.56373 19.4852 6.5657C19.4823 6.56946 19.4721 6.58354 19.4617 6.6155C19.4481 6.65747 19.4385 6.7149 19.4383 6.77956C19.4381 6.84496 19.4477 6.8929 19.4529 6.9114C19.5852 7.37436 19.3691 7.86632 18.9383 8.08132C18.583 8.25854 18.153 8.60828 17.7459 9.04128C17.3414 9.47158 17.0325 9.90602 16.8885 10.1848C16.7169 10.5172 16.3739 10.7259 15.9998 10.7259C15.6258 10.7258 15.2828 10.5172 15.1111 10.1848C14.9672 9.90604 14.6591 9.4715 14.2547 9.04128C13.8476 8.60816 13.4167 8.25857 13.0613 8.08132C12.6307 7.86627 12.4145 7.37429 12.5467 6.9114C12.5519 6.89295 12.5615 6.84503 12.5613 6.77956C12.5611 6.71487 12.5515 6.65747 12.5379 6.6155C12.5275 6.58354 12.5173 6.56946 12.5145 6.5657C12.5109 6.56372 12.5034 6.5599 12.4901 6.55593Z" fill="#1F1F22"/>
<path d="M2.56915 19.7005C2.97627 19.3273 3.60905 19.3549 3.98224 19.762L9.48224 25.762C9.85522 26.1691 9.82776 26.8019 9.42071 27.1751C9.01363 27.548 8.38077 27.5205 8.00763 27.1135L2.50763 21.1135C2.13447 20.7065 2.16214 20.0737 2.56915 19.7005Z" fill="#1F1F22"/>
<path fill-rule="evenodd" clip-rule="evenodd" d="M26.4119 21.2522C28.0687 21.2523 29.4119 22.5954 29.4119 24.2522C29.4117 25.9089 28.0686 27.2521 26.4119 27.2522C24.7552 27.2522 23.4121 25.9089 23.4119 24.2522C23.4119 22.5954 24.7551 21.2522 26.4119 21.2522ZM26.4119 23.2522C25.8596 23.2522 25.4119 23.6999 25.4119 24.2522C25.4121 24.8044 25.8598 25.2522 26.4119 25.2522C26.964 25.2521 27.4117 24.8043 27.4119 24.2522C27.4119 23.7 26.9642 23.2523 26.4119 23.2522Z" fill="#1F1F22"/>
</svg>
