<svg width="32" height="32" viewBox="0 0 32 32" fill="none" xmlns="http://www.w3.org/2000/svg">
<path d="M11 3C11 2.44772 11.4477 2 12 2H14C14.5523 2 15 2.44772 15 3V5C15 5.55228 14.5523 6 14 6H12C11.4477 6 11 5.55228 11 5V3Z" fill="#1F1F22"/>
<path d="M27 3C27 2.44772 27.4477 2 28 2H30C30.5523 2 31 2.44772 31 3V5C31 5.55228 30.5523 6 30 6H28C27.4477 6 27 5.55228 27 5V3Z" fill="#1F1F22"/>
<path d="M15 7C15 6.44772 15.4477 6 16 6H18C18.5523 6 19 6.44772 19 7V9C19 9.55228 18.5523 10 18 10H16C15.4477 10 15 9.55228 15 9V7Z" fill="#1F1F22"/>
<path d="M19 3C19 2.44772 19.4477 2 20 2H22C22.5523 2 23 2.44772 23 3V5C23 5.55228 22.5523 6 22 6H20C19.4477 6 19 5.55228 19 5V3Z" fill="#1F1F22"/>
<path d="M23 7C23 6.44772 23.4477 6 24 6H26C26.5523 6 27 6.44772 27 7V9C27 9.55228 26.5523 10 26 10H24C23.4477 10 23 9.55228 23 9V7Z" fill="#1F1F22"/>
<path d="M9 20C8.44772 20 8 20.4477 8 21C8 21.5523 8.44772 22 9 22H11C11.5523 22 12 21.5523 12 21C12 20.4477 11.5523 20 11 20H9Z" fill="#1F1F22"/>
<path d="M20 21C20 20.4477 20.4477 20 21 20H23C23.5523 20 24 20.4477 24 21C24 21.5523 23.5523 22 23 22H21C20.4477 22 20 21.5523 20 21Z" fill="#1F1F22"/>
<path fill-rule="evenodd" clip-rule="evenodd" d="M11.4359 10C10.9609 10 10.4752 10.3545 10.3359 10.9668L9.19068 16H25C26.6569 16 28 17.3431 28 19V23C28 24.6569 26.6569 26 25 26C25 27.6569 23.6569 29 22 29C20.343 29 19.0002 27.6564 19 26H13C13 27.6569 11.6569 29 10 29C8.34315 29 7 27.6569 7 26C5.34314 26 4 24.6569 4 23V19C4 17.3431 5.34315 16 7 16H7.13956L8.38575 10.523C8.71247 9.0871 9.94114 8 11.4359 8C11.9882 8 12.4359 8.44772 12.4359 9C12.4359 9.55228 11.9882 10 11.4359 10ZM6 19C6 18.4477 6.44772 18 7 18H25C25.5523 18 26 18.4477 26 19V23C26 23.5523 25.5523 24 25 24H24C23.4477 24 23 24.4477 23 25V26C23 26.5523 22.5523 27 22 27C21.448 27 21 26.5522 21 25.9996V25C21 24.4477 20.5523 24 20 24H12C11.4477 24 11 24.4477 11 25V26C11 26.5523 10.5523 27 10 27C9.44772 27 9 26.5523 9 26V25C9 24.4477 8.55228 24 8 24H7C6.44772 24 6 23.5523 6 23V19Z" fill="#1F1F22"/>
</svg>
