<svg width="32" height="32" viewBox="0 0 32 32" fill="none" xmlns="http://www.w3.org/2000/svg">
<path d="M17 5C17.5523 5 18 5.44772 18 6C18 6.55228 17.5523 7 17 7H10C9.44772 7 9 7.44772 9 8V25C9 25.5523 9.44772 26 10 26H22C22.5523 26 23 25.5523 23 25V21C23 20.4477 23.4477 20 24 20C24.5523 20 25 20.4477 25 21V25C25 26.6569 23.6569 28 22 28H10C8.34315 28 7 26.6569 7 25V8C7 6.34315 8.34315 5 10 5H17Z" fill="#1F1F22"/>
<path d="M20 21C20.5523 21 21 21.4477 21 22C21 22.5523 20.5523 23 20 23H12C11.4477 23 11 22.5523 11 22C11 21.4477 11.4477 21 12 21H20Z" fill="#1F1F22"/>
<path d="M15 17C15.5523 17 16 17.4477 16 18C16 18.5523 15.5523 19 15 19H12C11.4477 19 11 18.5523 11 18C11 17.4477 11.4477 17 12 17H15Z" fill="#1F1F22"/>
<path d="M20.793 6.79297C21.1835 6.40246 21.8165 6.40251 22.207 6.79297L26.707 11.293C26.7548 11.3408 26.7976 11.3935 26.835 11.4502C26.8533 11.4779 26.8705 11.5061 26.8857 11.5352C26.8911 11.5454 26.8954 11.5561 26.9004 11.5664C26.9637 11.6977 27 11.8445 27 12C27 12.0563 26.9933 12.1112 26.9844 12.165C26.9776 12.2054 26.9707 12.2457 26.959 12.2852C26.9583 12.2875 26.9568 12.2896 26.9561 12.292C26.9412 12.3407 26.9222 12.3874 26.9004 12.4326C26.8953 12.4432 26.8912 12.4544 26.8857 12.4648C26.8839 12.4683 26.8808 12.4711 26.8789 12.4746C26.851 12.5262 26.8184 12.5745 26.7822 12.6201C26.7796 12.6234 26.7781 12.6276 26.7754 12.6309C26.754 12.657 26.7314 12.6826 26.707 12.707L22.207 17.207C21.8165 17.5976 21.1835 17.5975 20.793 17.207C20.4024 16.8165 20.4024 16.1835 20.793 15.793L23.5859 13H17C16.4477 13 16 12.5523 16 12C16 11.4477 16.4477 11 17 11H23.5859L20.793 8.20703C20.4025 7.81651 20.4025 7.18347 20.793 6.79297Z" fill="#1F1F22"/>
</svg>
