<svg width="32" height="32" viewBox="0 0 32 32" fill="none" xmlns="http://www.w3.org/2000/svg">
<path d="M16 10.9996C17.0486 10.9996 17.7895 11.0957 18.4356 11.316C19.0659 11.531 19.5572 11.8538 20.041 12.15C20.5119 12.4383 20.6602 13.054 20.3721 13.525C20.0838 13.9959 19.4681 14.144 18.9971 13.856C18.4397 13.5148 18.1627 13.3357 17.7901 13.2086C17.4331 13.0868 16.9354 12.9996 16 12.9996C15.1574 12.9996 14.3619 13.2154 13.8096 13.5826C13.2864 13.9306 13.0001 14.3908 13 14.9996C13 15.7167 13.2499 16.1456 13.6475 16.4332C14.0963 16.7576 14.8561 16.9869 16 16.9869C17.37 16.9869 18.8189 17.2721 19.9619 17.9625C21.1441 18.6766 22.0124 19.8464 22.0127 21.4771C22.0127 23.2251 20.9539 24.39 19.749 25.066C18.5667 25.7292 17.1367 25.9996 16 25.9996C13.7052 25.9996 11.4666 24.8729 10.2949 23.7086C9.90365 23.3192 9.90189 22.6861 10.291 22.2945C10.6803 21.9033 11.3135 21.9017 11.7051 22.2906C12.5335 23.1136 14.2762 23.9996 16 23.9996C16.8727 23.9996 17.9489 23.7827 18.7705 23.3219C19.5694 22.8736 20.0127 22.2762 20.0127 21.4771C20.0124 20.6716 19.6256 20.096 18.9277 19.6744C18.1903 19.229 17.1329 18.9869 16 18.9869C14.641 18.9869 13.4011 18.7225 12.4756 18.0533C11.4992 17.3472 11 16.2823 11 14.9996C11.0001 13.6088 11.7218 12.5685 12.7022 11.9166C13.6537 11.284 14.8585 10.9996 16 10.9996Z" fill="#1F1F22"/>
<path d="M16.7188 3.37459C17.0638 2.94361 17.6938 2.87357 18.125 3.21834L20.625 5.21834C20.8621 5.40803 20.9999 5.69595 21 5.99959C21 6.00501 20.9981 6.01079 20.9981 6.01619C20.9981 6.02496 21.0002 6.03374 21 6.04256C20.9934 6.42364 20.7737 6.75039 20.457 6.91365L18.125 8.78084C17.6938 9.12585 17.0638 9.05585 16.7188 8.62459C16.374 8.19333 16.4438 7.56329 16.875 7.21834L17.1309 7.01326C16.4584 7.03239 15.7254 7.07508 14.7402 7.1617C12.4428 7.36372 9.86264 8.82553 8.90724 10.8883C8.6752 11.3894 8.08123 11.6075 7.58009 11.3756C7.07903 11.1435 6.86084 10.5495 7.09279 10.0484C8.42337 7.17522 11.7503 5.41705 14.5654 5.16951C15.638 5.07521 16.4337 5.03015 17.1631 5.01131L16.875 4.78084C16.4439 4.4358 16.3738 3.80579 16.7188 3.37459Z" fill="#1F1F22"/>
</svg>
