<svg width="20" height="20" viewBox="0 0 20 20" fill="none" xmlns="http://www.w3.org/2000/svg">
<path d="M6 7.5C6.55228 7.5 7 7.94772 7 8.5V10.5C7 11.0523 6.55228 11.5 6 11.5C5.44772 11.5 5 11.0523 5 10.5V8.5C5 7.94772 5.44772 7.5 6 7.5Z" fill="#1F1F22"/>
<path d="M10 5.5C10.5523 5.5 11 5.94772 11 6.5V10.5C11 11.0523 10.5523 11.5 10 11.5C9.44771 11.5 9 11.0523 9 10.5V6.5C9 5.94772 9.44771 5.5 10 5.5Z" fill="#1F1F22"/>
<path d="M14 4.5C14.5523 4.5 15 4.94772 15 5.5V10.5C15 11.0523 14.5523 11.5 14 11.5C13.4477 11.5 13 11.0523 13 10.5V5.5C13 4.94772 13.4477 4.5 14 4.5Z" fill="#1F1F22"/>
<path fill-rule="evenodd" clip-rule="evenodd" d="M16 1C17.6569 1 19 2.34315 19 4V12C19 13.6569 17.6569 15 16 15H11V17H14C14.5523 17 15 17.4477 15 18C15 18.5523 14.5523 19 14 19H6C5.44772 19 5 18.5523 5 18C5 17.4477 5.44772 17 6 17H9V15H4C2.39489 15 1.08421 13.7394 1.00391 12.1543L1 12V4C1 2.34315 2.34315 1 4 1H16ZM4 3C3.44772 3 3 3.44772 3 4V12L3.00488 12.1025C3.05621 12.6067 3.48232 13 4 13H16C16.5523 13 17 12.5523 17 12V4C17 3.44772 16.5523 3 16 3H4Z" fill="#1F1F22"/>
</svg>
