<svg width="20" height="20" viewBox="0 0 20 20" fill="none" xmlns="http://www.w3.org/2000/svg">
<path d="M11.5 0C12.0523 0 12.5 0.447715 12.5 1C12.5 1.55228 12.0523 2 11.5 2H4C3.44772 2 3 2.44772 3 3V17C3 17.5523 3.44772 18 4 18H14C14.5523 18 15 17.5523 15 17V14.5C15 13.9477 15.4477 13.5 16 13.5C16.5523 13.5 17 13.9477 17 14.5V17C17 18.6569 15.6569 20 14 20H4C2.34315 20 1 18.6569 1 17V3C1 1.34315 2.34315 8.05319e-09 4 0H11.5Z" fill="#1F1F22"/>
<path d="M12 14C12.5523 14 13 14.4477 13 15C13 15.5523 12.5523 16 12 16H6C5.44772 16 5 15.5523 5 15C5 14.4477 5.44772 14 6 14H12Z" fill="#1F1F22"/>
<path d="M8 10C8.55228 10 9 10.4477 9 11C9 11.5523 8.55228 12 8 12H6C5.44772 12 5 11.5523 5 11C5 10.4477 5.44772 10 6 10H8Z" fill="#1F1F22"/>
<path d="M14.293 2.79297C14.6835 2.40251 15.3165 2.40246 15.707 2.79297L19.207 6.29297C19.2314 6.31735 19.2541 6.34298 19.2754 6.36914C19.3182 6.42157 19.3552 6.47704 19.3857 6.53516C19.4163 6.59331 19.4407 6.65387 19.459 6.71582C19.5138 6.9013 19.5139 7.09971 19.459 7.28516C19.4407 7.3468 19.4161 7.40697 19.3857 7.46484C19.3552 7.52297 19.3181 7.57843 19.2754 7.63086C19.254 7.65704 19.2314 7.68263 19.207 7.70703L15.707 11.207C15.3165 11.5975 14.6835 11.5976 14.293 11.207C13.9025 10.8165 13.9025 10.1835 14.293 9.79297L16.0859 8H11C10.4477 8 10 7.55228 10 7C10 6.44772 10.4477 6 11 6H16.0859L14.293 4.20703C13.9024 3.81651 13.9024 3.18349 14.293 2.79297Z" fill="#1F1F22"/>
</svg>
