<svg width="32" height="32" viewBox="0 0 32 32" fill="none" xmlns="http://www.w3.org/2000/svg">
<path d="M13.5 5C14.0523 5 14.5 5.44772 14.5 6C14.5 6.55228 14.0523 7 13.5 7H10C9.44772 7 9 7.44772 9 8V25C9 25.5523 9.44772 26 10 26H22C22.5523 26 23 25.5523 23 25V17C23 16.4477 23.4477 16 24 16C24.5523 16 25 16.4477 25 17V25C25 26.6569 23.6569 28 22 28H10C8.34315 28 7 26.6569 7 25V8C7 6.34315 8.34315 5 10 5H13.5Z" fill="#1F1F22"/>
<path d="M20 21C20.5523 21 21 21.4477 21 22C21 22.5523 20.5523 23 20 23H12C11.4477 23 11 22.5523 11 22C11 21.4477 11.4477 21 12 21H20Z" fill="#1F1F22"/>
<path d="M15 17C15.5523 17 16 17.4477 16 18C16 18.5523 15.5523 19 15 19H12C11.4477 19 11 18.5523 11 18C11 17.4477 11.4477 17 12 17H15Z" fill="#1F1F22"/>
<path d="M24 5C24.5523 5 25 5.44772 25 6V12C25 12.5523 24.5523 13 24 13C23.4477 13 23 12.5523 23 12V8.41406L17.707 13.707C17.3165 14.0975 16.6835 14.0975 16.293 13.707C15.9025 13.3165 15.9025 12.6835 16.293 12.293L21.5859 7H18C17.4477 7 17 6.55228 17 6C17 5.44772 17.4477 5 18 5H24Z" fill="#1F1F22"/>
</svg>
