<svg width="32" height="32" viewBox="0 0 32 32" fill="none" xmlns="http://www.w3.org/2000/svg">
<path d="M13 5.00016C13.5523 5.00016 14 5.44787 14 6.00016C13.9999 6.55237 13.5522 7.00016 13 7.00016H10C9.44772 7.00016 9 7.44787 9 8.00016V25.0002C9.00008 25.5524 9.44777 26.0002 10 26.0002H22C22.5522 26.0002 22.9999 25.5524 23 25.0002V22.0002C23 21.4479 23.4477 21.0002 24 21.0002C24.5523 21.0002 25 21.4479 25 22.0002V25.0002C24.9999 26.6569 23.6568 28.0002 22 28.0002H10C8.3432 28.0002 7.00008 26.6569 7 25.0002V8.00016C7 6.3433 8.34315 5.00016 10 5.00016H13Z" fill="#1F1F22"/>
<path d="M20 21.0002C20.5523 21.0002 21 21.4479 21 22.0002C20.9999 22.5524 20.5522 23.0002 20 23.0002H12C11.4478 23.0002 11.0001 22.5524 11 22.0002C11 21.4479 11.4477 21.0002 12 21.0002H20Z" fill="#1F1F22"/>
<path d="M16 17.0002C16.5523 17.0002 17 17.4479 17 18.0002C16.9999 18.5524 16.5522 19.0002 16 19.0002H12C11.4478 19.0002 11.0001 18.5524 11 18.0002C11 17.4479 11.4477 17.0002 12 17.0002H16Z" fill="#1F1F22"/>
<path fill-rule="evenodd" clip-rule="evenodd" d="M22.8555 4.0109C22.9994 3.98988 23.1467 4.00007 23.2871 4.04215L28.2871 5.54215C28.7101 5.66906 29 6.05856 29 6.50016V9.50016C29 11.6322 28.3663 13.3075 27.3271 14.672C26.307 16.0115 24.9291 17.0078 23.5146 17.8576C23.1979 18.0476 22.8021 18.0476 22.4854 17.8576C21.0701 17.0073 19.6927 16.0085 18.6729 14.6681C17.6343 13.3031 17 11.6284 17 9.50016V6.50016C17 6.05856 17.2899 5.66906 17.7129 5.54215L22.7129 4.04215L22.8555 4.0109ZM19 7.2443V9.50016C19 11.1911 19.4909 12.4403 20.2646 13.4572C20.953 14.3618 21.891 15.1155 23 15.8234C24.1094 15.1156 25.0472 14.3637 25.7354 13.4601C26.5086 12.4447 27 11.1956 27 9.50016V7.2443L23 6.0441L19 7.2443Z" fill="#1F1F22"/>
<path d="M14 13.0002C14.5523 13.0002 15 13.4479 15 14.0002C14.9999 14.5524 14.5522 15.0002 14 15.0002H12C11.4478 15.0002 11.0001 14.5524 11 14.0002C11 13.4479 11.4477 13.0002 12 13.0002H14Z" fill="#1F1F22"/>
</svg>
