<svg width="32" height="32" viewBox="0 0 32 32" fill="none" xmlns="http://www.w3.org/2000/svg">
<path fill-rule="evenodd" clip-rule="evenodd" d="M17 11C18.933 11 20.5 12.567 20.5 14.5C20.5 16.433 18.933 18 17 18H15.5V19H16.4883C17.0406 19 17.4883 19.4477 17.4883 20C17.4883 20.5523 17.0406 21 16.4883 21H15.5V22C15.5 22.5523 15.0523 23 14.5 23C13.9477 23 13.5 22.5523 13.5 22V21H12.5C11.9477 21 11.5 20.5523 11.5 20C11.5 19.4477 11.9477 19 12.5 19H13.5V18H12.5C11.9477 18 11.5 17.5523 11.5 17C11.5 16.4477 11.9477 16 12.5 16H13.5V12L13.5049 11.8975C13.5562 11.3933 13.9823 11 14.5 11H17ZM15.5 16H17C17.8284 16 18.5 15.3284 18.5 14.5C18.5 13.6716 17.8284 13 17 13H15.5V16Z" fill="#1F1F22"/>
<path fill-rule="evenodd" clip-rule="evenodd" d="M21 4C21.5523 4 22 4.44772 22 5V6H24C26.2091 6 28 7.79086 28 10V23C28 25.2091 26.2091 27 24 27H8C5.79086 27 4 25.2091 4 23V10C4 7.79086 5.79086 6 8 6H10V5C10 4.44772 10.4477 4 11 4C11.5523 4 12 4.44772 12 5V6H20V5C20 4.44772 20.4477 4 21 4ZM8 8C6.89543 8 6 8.89543 6 10V23C6 24.1046 6.89543 25 8 25H24C25.1046 25 26 24.1046 26 23V10C26 8.89543 25.1046 8 24 8H22V9C22 9.55228 21.5523 10 21 10C20.4477 10 20 9.55228 20 9V8H12V9C12 9.55228 11.5523 10 11 10C10.4477 10 10 9.55228 10 9V8H8Z" fill="#1F1F22"/>
</svg>
