<svg width="32" height="32" viewBox="0 0 32 32" fill="none" xmlns="http://www.w3.org/2000/svg">
<path d="M14 5C14.5523 5 15 5.44772 15 6C15 6.55228 14.5523 7 14 7H10C9.44772 7 9 7.44772 9 8V25C9 25.5523 9.44772 26 10 26H22C22.5523 26 23 25.5523 23 25V23C23 22.4477 23.4477 22 24 22C24.5523 22 25 22.4477 25 23V25C25 26.6569 23.6569 28 22 28H10C8.34315 28 7 26.6569 7 25V8C7 6.34315 8.34315 5 10 5H14Z" fill="#1F1F22"/>
<path d="M20 21C20.5523 21 21 21.4477 21 22C21 22.5523 20.5523 23 20 23H12C11.4477 23 11 22.5523 11 22C11 21.4477 11.4477 21 12 21H20Z" fill="#1F1F22"/>
<path d="M14 17C14.5523 17 15 17.4477 15 18C15 18.5523 14.5523 19 14 19H12C11.4477 19 11 18.5523 11 18C11 17.4477 11.4477 17 12 17H14Z" fill="#1F1F22"/>
<path d="M27 17C27.5523 17 28 17.4477 28 18C28 18.5523 27.5523 19 27 19H18C17.4477 19 17 18.5523 17 18C17 17.4477 17.4477 17 18 17H27Z" fill="#1F1F22"/>
<path d="M19 10C19.5523 10 20 10.4477 20 11V14.5C20 15.0523 19.5523 15.5 19 15.5C18.4477 15.5 18 15.0523 18 14.5V11C18 10.4477 18.4477 10 19 10Z" fill="#1F1F22"/>
<path d="M22.5 10C23.0523 10 23.5 10.4477 23.5 11V14.5C23.5 15.0523 23.0523 15.5 22.5 15.5C21.9477 15.5 21.5 15.0523 21.5 14.5V11C21.5 10.4477 21.9477 10 22.5 10Z" fill="#1F1F22"/>
<path d="M26 10C26.5523 10 27 10.4477 27 11V14.5C27 15.0523 26.5523 15.5 26 15.5C25.4477 15.5 25 15.0523 25 14.5V11C25 10.4477 25.4477 10 26 10Z" fill="#1F1F22"/>
<path d="M14 13C14.5523 13 15 13.4477 15 14C15 14.5523 14.5523 15 14 15H12C11.4477 15 11 14.5523 11 14C11 13.4477 11.4477 13 12 13H14Z" fill="#1F1F22"/>
<path d="M22.2344 5.03613C22.437 4.9803 22.6533 4.98914 22.8516 5.06348L27.3516 6.75098C27.8684 6.94502 28.1304 7.52206 27.9365 8.03906C27.7425 8.55596 27.1654 8.81789 26.6484 8.62402L22.5 7.06836L18.3516 8.62402C17.8345 8.8179 17.2575 8.55597 17.0635 8.03906C16.8696 7.52205 17.1315 6.94501 17.6484 6.75098L22.1484 5.06348L22.2344 5.03613Z" fill="#1F1F22"/>
</svg>
