<svg width="20" height="20" viewBox="0 0 20 20" fill="none" xmlns="http://www.w3.org/2000/svg">
<path d="M10 0C10.5523 0 11 0.447715 11 1C11 1.55228 10.5523 2 10 2H4C3.44772 2 3 2.44772 3 3V17C3 17.5523 3.44772 18 4 18H14C14.5523 18 15 17.5523 15 17V13C15 12.4477 15.4477 12 16 12C16.5523 12 17 12.4477 17 13V17C17 18.6569 15.6569 20 14 20H4C2.34315 20 1 18.6569 1 17V3C1 1.34315 2.34315 0 4 0H10Z" fill="#1F1F22"/>
<path d="M12 14C12.5523 14 13 14.4477 13 15C13 15.5523 12.5523 16 12 16H6C5.44772 16 5 15.5523 5 15C5 14.4477 5.44772 14 6 14H12Z" fill="#1F1F22"/>
<path d="M8 10C8.55228 10 9 10.4477 9 11C9 11.5523 8.55228 12 8 12H6C5.44772 12 5 11.5523 5 11C5 10.4477 5.44772 10 6 10H8Z" fill="#1F1F22"/>
<path d="M13.293 1.79297C13.6835 1.40251 14.3165 1.40246 14.707 1.79297L18.207 5.29297C18.2314 5.31735 18.2541 5.34298 18.2754 5.36914C18.3182 5.42157 18.3552 5.47704 18.3857 5.53516C18.4163 5.59331 18.4407 5.65387 18.459 5.71582C18.5138 5.9013 18.5139 6.09971 18.459 6.28516C18.4407 6.3468 18.4161 6.40697 18.3857 6.46484C18.3552 6.52297 18.3181 6.57843 18.2754 6.63086C18.254 6.65704 18.2314 6.68263 18.207 6.70703L14.707 10.207C14.3165 10.5975 13.6835 10.5976 13.293 10.207C12.9025 9.81651 12.9025 9.18347 13.293 8.79297L15.0859 7H10C9.44771 7 9 6.55228 9 6C9 5.44772 9.44771 5 10 5H15.0859L13.293 3.20703C12.9024 2.81651 12.9024 2.18349 13.293 1.79297Z" fill="#1F1F22"/>
</svg>
