<svg width="20" height="20" viewBox="0 0 20 20" fill="none" xmlns="http://www.w3.org/2000/svg">
<path d="M13.4997 14C14.052 14 14.4997 14.4477 14.4997 15C14.4997 15.5523 14.052 16 13.4997 16H11.4997C10.9475 15.9999 10.4997 15.5522 10.4997 15C10.4997 14.4478 10.9475 14.0001 11.4997 14H13.4997Z" fill="#1F1F22"/>
<path fill-rule="evenodd" clip-rule="evenodd" d="M13.364 10.5088C13.9447 10.1041 14.7904 9.9805 15.4909 10.5635L15.4929 10.5654C17.2043 11.996 18.2222 13.9838 18.2224 16.207C18.2224 16.4893 18.2335 17.0968 18.0739 17.6318C17.99 17.9129 17.8356 18.2604 17.5339 18.542C17.2086 18.8452 16.7901 18.9998 16.3318 19H3.89035C3.43191 18.9998 3.01355 18.8453 2.6882 18.542C2.38646 18.2604 2.23112 17.9138 2.14719 17.6328C1.98749 17.0977 1.99973 16.4894 1.99973 16.207C1.9999 13.9838 3.01776 11.996 4.72922 10.5654L4.73117 10.5645C5.47844 9.94232 6.39042 10.1239 6.97043 10.5938L6.97238 10.5947C7.76306 11.2387 8.99184 11.6659 10.1111 11.666L10.322 11.6611C11.3821 11.6118 12.5085 11.1985 13.2497 10.5947L13.2517 10.5928L13.364 10.5088ZM14.3796 12.248C13.2884 13.0836 11.8008 13.599 10.3913 13.6602L10.1111 13.666C8.62098 13.6659 7.00633 13.1393 5.8425 12.248C4.64995 13.3168 3.99989 14.7014 3.99973 16.207C3.99973 16.3768 3.99916 16.5364 4.00949 16.6963C4.01764 16.8221 4.03424 16.9227 4.05149 17H16.1706C16.1879 16.9226 16.2045 16.8213 16.2126 16.6953C16.2229 16.5357 16.2224 16.3765 16.2224 16.207C16.2222 14.7014 15.5721 13.3168 14.3796 12.248Z" fill="#1F1F22"/>
<path fill-rule="evenodd" clip-rule="evenodd" d="M10.1111 1C12.5963 1 14.6111 3.01472 14.6111 5.5C14.6111 7.98528 12.5963 10 10.1111 10C7.62587 9.99988 5.61106 7.98521 5.61106 5.5C5.61106 3.01479 7.62587 1.00012 10.1111 1ZM10.1111 3C8.73044 3.00012 7.61106 4.11936 7.61106 5.5C7.61106 6.88064 8.73044 7.99988 10.1111 8C11.4918 8 12.6111 6.88071 12.6111 5.5C12.6111 4.11929 11.4918 3 10.1111 3Z" fill="#1F1F22"/>
</svg>
