<svg width="32" height="32" viewBox="0 0 32 32" fill="none" xmlns="http://www.w3.org/2000/svg">
<path d="M19 8.5C19 6.01472 21.0147 4 23.5 4C24.0791 4 24.6304 4.1089 25.1362 4.30643C25.6507 4.50733 26.2306 4.25316 26.4315 3.73871C26.6324 3.22427 26.3782 2.64436 25.8638 2.44345C25.1298 2.15683 24.332 2 23.5 2C19.9101 2 17 4.91015 17 8.5C17 12.0899 19.9101 15 23.5 15C26.9263 15 29.7327 12.3496 29.982 8.98644C30.0229 8.43567 29.6095 7.95608 29.0587 7.91524C28.5079 7.8744 28.0283 8.28779 27.9875 8.83856C27.815 11.1652 25.8713 13 23.5 13C21.0147 13 19 10.9853 19 8.5Z" fill="#1F1F22"/>
<path d="M29.1247 6.03091C29.556 5.6859 29.6259 5.0566 29.2809 4.62534C28.9359 4.19408 28.3066 4.12416 27.8753 4.46917L23.4913 7.97639L22.1139 6.90513C21.678 6.56606 21.0497 6.64459 20.7106 7.08054C20.3716 7.51649 20.4501 8.14476 20.8861 8.48383L22.8861 10.0394C23.2512 10.3234 23.7635 10.3199 24.1247 10.0309L29.1247 6.03091Z" fill="#1F1F22"/>
<path d="M3.00034 25.1426C3.00034 24.5903 3.44805 24.1426 4.00034 24.1426C5.73609 24.1426 7.14319 25.5497 7.14319 27.2854C7.14319 27.8377 6.69548 28.2854 6.14319 28.2854C5.59091 28.2854 5.14319 27.8377 5.14319 27.2854C5.14319 26.6543 4.63151 26.1426 4.00034 26.1426C3.44805 26.1426 3.00034 25.6949 3.00034 25.1426Z" fill="#1F1F22"/>
<path d="M4 20.5713C3.44772 20.5713 3 21.019 3 21.5713C3 22.1236 3.44772 22.5713 4 22.5713C6.99811 22.5713 9.42857 25.0018 9.42857 27.9999C9.42857 28.5522 9.87629 28.9999 10.4286 28.9999C10.9809 28.9999 11.4286 28.5522 11.4286 27.9999C11.4286 23.8972 8.10269 20.5713 4 20.5713Z" fill="#1F1F22"/>
<path d="M3.00034 17.2861C3.00034 16.7338 3.44805 16.2861 4.00034 16.2861C10.47 16.2861 15.7146 21.5308 15.7146 28.0005C15.7146 28.5527 15.2669 29.0005 14.7146 29.0005C14.1623 29.0005 13.7146 28.5527 13.7146 28.0005C13.7146 22.6354 9.36538 18.2861 4.00034 18.2861C3.44805 18.2861 3.00034 17.8384 3.00034 17.2861Z" fill="#1F1F22"/>
<path d="M4 12C3.44772 12 3 12.4477 3 13C3 13.5523 3.44772 14 4 14C11.732 14 18 20.268 18 28.0001C18 28.5523 18.4477 29.0001 19 29.0001C19.5523 29.0001 20 28.5523 20 28.0001C20 19.1635 12.8366 12 4 12Z" fill="#1F1F22"/>
</svg>
