<svg width="20" height="20" viewBox="0 0 20 20" fill="none" xmlns="http://www.w3.org/2000/svg">
<path d="M16 11C16.5523 11 17 11.4477 17 12V14H19C19.5523 14 20 14.4477 20 15C20 15.5523 19.5523 16 19 16H17V18C17 18.5523 16.5523 19 16 19C15.4477 19 15 18.5523 15 18V16H13C12.4477 16 12 15.5523 12 15C12 14.4477 12.4477 14 13 14H15V12C15 11.4477 15.4477 11 16 11Z" fill="#1F1F22"/>
<path d="M17 1C18.6569 1 20 2.34315 20 4V9.5C20 10.0523 19.5523 10.5 19 10.5C18.4477 10.5 18 10.0523 18 9.5V4C18 3.44772 17.5523 3 17 3H3C2.44772 3 2 3.44772 2 4V13C2 13.5523 2.44772 14 3 14H9C9.55229 14 10 14.4477 10 15C10 15.5523 9.55229 16 9 16H3C1.34315 16 4.0266e-08 14.6569 0 13V4C0 2.34315 1.34315 1 3 1H17Z" fill="#1F1F22"/>
<path d="M15 5C15.5523 5 16 5.44772 16 6C16 6.55228 15.5523 7 15 7H5C4.44772 7 4 6.55228 4 6C4 5.44772 4.44772 5 5 5H15Z" fill="#1F1F22"/>
</svg>
