<svg width="32" height="32" viewBox="0 0 32 32" fill="none" xmlns="http://www.w3.org/2000/svg">
<path fill-rule="evenodd" clip-rule="evenodd" d="M16 11C19.0335 11 21.5 13.4664 21.5 16.5C21.5 17.6561 21.1406 18.729 20.5293 19.6152L22.707 21.793C23.0975 22.1835 23.0975 22.8165 22.707 23.207C22.3165 23.5976 21.6835 23.5975 21.293 23.207L19.1152 21.0293C18.229 21.6406 17.1561 22 16 22C12.9665 22 10.5 19.5337 10.5 16.5C10.5 13.4664 12.9665 11 16 11ZM16 13C14.071 13 12.5 14.571 12.5 16.5C12.5 18.4291 14.0711 20 16 20C17.9289 20 19.5 18.4291 19.5 16.5C19.5 14.571 17.929 13 16 13Z" fill="#1F1F22"/>
<path fill-rule="evenodd" clip-rule="evenodd" d="M21 4C21.5523 4 22 4.44772 22 5V6H24C26.2091 6 28 7.79086 28 10V23C28 25.2091 26.2091 27 24 27H8C5.79086 27 4 25.2091 4 23V10C4 7.79086 5.79086 6 8 6H10V5C10 4.44772 10.4477 4 11 4C11.5523 4 12 4.44772 12 5V6H20V5C20 4.44772 20.4477 4 21 4ZM8 8C6.89543 8 6 8.89543 6 10V23C6 24.1046 6.89543 25 8 25H24C25.1046 25 26 24.1046 26 23V10C26 8.89543 25.1046 8 24 8H22V9C22 9.55228 21.5523 10 21 10C20.4477 10 20 9.55228 20 9V8H12V9C12 9.55228 11.5523 10 11 10C10.4477 10 10 9.55228 10 9V8H8Z" fill="#1F1F22"/>
</svg>
