<svg width="20" height="20" viewBox="0 0 20 20" fill="none" xmlns="http://www.w3.org/2000/svg">
<path fill-rule="evenodd" clip-rule="evenodd" d="M11 5.00036C12.6569 5.00036 14 6.34351 14 8.00036C13.9998 9.65704 12.6567 11.0004 11 11.0004H10V11.5004H10.5C11.0523 11.5004 11.5 11.9481 11.5 12.5004C11.4998 13.0525 11.0522 13.5004 10.5 13.5004H10V14.0004C9.9998 14.5525 9.55216 15.0004 9 15.0004C8.44784 15.0004 8.0002 14.5525 8 14.0004V13.5004H7.5C6.94784 13.5004 6.5002 13.0525 6.5 12.5004C6.5 11.9481 6.94772 11.5004 7.5 11.5004H8V11.0004H7.5C6.94784 11.0004 6.5002 10.5525 6.5 10.0004C6.5 9.44808 6.94772 9.00036 7.5 9.00036H8V6.00036L8.00488 5.89782C8.05621 5.39369 8.48232 5.00036 9 5.00036H11ZM10 9.00036H11C11.5522 9.00036 11.9998 8.55247 12 8.00036C12 7.44808 11.5523 7.00036 11 7.00036H10V9.00036Z" fill="#1F1F22"/>
<path fill-rule="evenodd" clip-rule="evenodd" d="M9.84961 0.0120799C9.99909 -0.0106661 10.1523 0.000811752 10.2979 0.0462596L18.2979 2.54626C18.7153 2.67675 19 3.06301 19 3.50036V8.02185C18.9999 11.1311 18.0148 13.4847 16.4141 15.3802C14.8427 17.2409 12.7098 18.6218 10.4912 19.8715C10.1866 20.0429 9.81337 20.0429 9.50879 19.8715C7.2894 18.6214 5.15705 17.2374 3.58594 15.3754C2.08574 13.5973 1.12587 11.4178 1.01172 8.59509L1 8.02185V3.50036L1.0127 3.33923C1.07276 2.97039 1.33686 2.66046 1.70215 2.54626L9.70215 0.0462596L9.84961 0.0120799ZM3 4.23474V8.02185L3.00977 8.50622C3.10413 10.8833 3.89591 12.6412 5.11426 14.0853C6.3419 15.5403 8.03088 16.708 10 17.8461C11.9696 16.7081 13.6583 15.5435 14.8857 14.0902C16.1849 12.5517 16.9999 10.6538 17 8.02185V4.23474L10 2.04724L3 4.23474Z" fill="#1F1F22"/>
</svg>
