<svg width="32" height="32" viewBox="0 0 32 32" fill="none" xmlns="http://www.w3.org/2000/svg">
<path d="M16 4C22.0661 4.00006 27 8.93373 27 15C27 17.6739 26.0397 20.126 24.4482 22.0342L29.708 27.2939C30.0979 27.6845 30.0983 28.3177 29.708 28.708C29.3177 29.0981 28.6845 29.0978 28.2939 28.708L23.0342 23.4482C21.1259 25.0396 18.6736 26 16 26C11.9342 25.9999 8.37909 23.7835 6.47656 20.502C6.1997 20.0242 6.36322 19.4118 6.84082 19.1348C7.31842 18.8581 7.92998 19.0207 8.20703 19.498C9.76766 22.19 12.6785 23.9999 16 24C20.9615 23.9999 24.9999 19.962 25 15C25 10.0384 20.9616 6.00006 16 6C12.3199 6.00011 9.14386 8.22237 7.75098 11.4014C7.52925 11.907 6.93936 12.1376 6.43359 11.916C5.92797 11.6943 5.69751 11.1044 5.91895 10.5986C7.61815 6.72053 11.4953 4.00011 16 4Z" fill="#1F1F22"/>
<path d="M13.1553 9.01172C13.5723 9.07723 13.9033 9.39789 13.9824 9.8125L15.3701 17.0977L17.0811 13.1064L17.1504 12.9717C17.3351 12.6744 17.6662 12.4918 18.0234 12.5C18.4315 12.5096 18.7931 12.7663 18.9365 13.1484L20.1934 16.5H22C22.5523 16.5 23 16.9477 23 17.5C23 18.0523 22.5523 18.5 22 18.5H19.5C19.0833 18.5 18.7099 18.2417 18.5635 17.8516L17.9375 16.1826L15.9189 20.8936C15.7457 21.2977 15.3287 21.5417 14.8916 21.4941C14.4547 21.4465 14.1 21.1192 14.0176 20.6875L12.54 12.9307L10.8779 15.9785C10.7027 16.2998 10.3659 16.5 10 16.5H4C3.44772 16.5 3 16.0523 3 15.5C3 14.9477 3.44772 14.5 4 14.5H9.40625L12.1221 9.52148C12.3243 9.15072 12.738 8.94628 13.1553 9.01172Z" fill="#1F1F22"/>
</svg>
