<svg width="20" height="20" viewBox="0 0 20 20" fill="none" xmlns="http://www.w3.org/2000/svg">
<path d="M16.2095 4.9778C16.7495 4.86208 17.0935 4.3305 16.9778 3.79047C16.862 3.25045 16.3305 2.90648 15.7904 3.0222L10.3426 4.18959C10.7508 3.74464 11 3.15142 11 2.5C11 1.11929 9.88067 0 8.49996 0C7.11925 0 5.99996 1.11929 5.99996 2.5C5.99996 3.52918 6.62186 4.41311 7.51037 4.7965L1.79043 6.0222C1.25041 6.13792 0.906441 6.6695 1.02216 7.20953C1.13788 7.74955 1.66947 8.09352 2.20949 7.9778L7.68572 6.80433L5.02378 18.7831C4.90397 19.3222 5.2439 19.8564 5.78303 19.9762C6.32217 20.096 6.85634 19.7561 6.97615 19.2169L9.38146 8.39305L14.1134 17.4626C14.3688 17.9522 14.9729 18.1421 15.4625 17.8866C15.9522 17.6311 16.142 17.0271 15.8865 16.5374L10.4944 6.20247L16.2095 4.9778Z" fill="#1F1F22"/>
</svg>
