<svg width="20" height="20" viewBox="0 0 20 20" fill="none" xmlns="http://www.w3.org/2000/svg">
<path d="M10.1251 13.9011C10.738 11.208 13.4393 9.51712 16.1592 10.1237C16.7031 10.245 17.0452 10.7795 16.9229 11.318C16.8003 11.8567 16.2599 12.1952 15.7159 12.0739C14.0839 11.7098 12.4626 12.7247 12.0948 14.3405C11.7271 15.9564 12.7519 17.5623 14.3838 17.9264C16.0159 18.2905 17.6372 17.2749 18.0049 15.6589C18.1277 15.1204 18.6681 14.7827 19.212 14.904C19.7558 15.0253 20.0979 15.5598 19.9756 16.0983C19.3628 18.7916 16.6606 20.4833 13.9405 19.8766C11.2203 19.2698 9.51219 16.5944 10.1251 13.9011Z" fill="#1F1F22"/>
<path d="M17.4327 12.2321C17.8609 11.8788 18.4975 11.9363 18.8546 12.36C19.2115 12.7842 19.1539 13.4147 18.7256 13.7682L15.6963 16.2682C15.2952 16.5991 14.7052 16.5723 14.336 16.2067L13.3262 15.2067C12.9322 14.8163 12.9322 14.184 13.3262 13.7936C13.7206 13.4032 14.3596 13.4032 14.754 13.7936L15.1124 14.1472L17.4327 12.2321Z" fill="#1F1F22"/>
<path d="M9.77447 1.02508C10.1337 0.941935 10.5101 1.06406 10.753 1.34149L13.7247 4.73797L18.5215 2.12176C19.0063 1.85761 19.6135 2.03662 19.878 2.52117C20.1422 3.00596 19.9633 3.61319 19.4786 3.87762L13.9786 6.87762C13.5674 7.10172 13.0555 7.01032 12.7471 6.65789L10.4786 4.0661L7.46588 15.2595C7.35116 15.6856 6.97043 15.9867 6.52936 15.9997C6.08844 16.0126 5.69143 15.7345 5.55182 15.3161L2.75885 6.93719L1.86822 8.49578C1.59421 8.9753 0.983482 9.14186 0.503965 8.86785C0.0245768 8.5938 -0.142084 7.98306 0.131894 7.5036L2.13189 4.0036L2.21393 3.8825C2.42284 3.61637 2.7554 3.47061 3.09869 3.50457C3.49092 3.54345 3.82345 3.80946 3.9483 4.18328L6.39752 11.5319L9.03424 1.73992C9.13022 1.38376 9.41513 1.10843 9.77447 1.02508Z" fill="#1F1F22"/>
</svg>
