<svg width="20" height="20" viewBox="0 0 20 20" fill="none" xmlns="http://www.w3.org/2000/svg">
<path d="M11.418 10.1865C11.8587 9.87098 12.473 9.96459 12.7998 10.4004C13.1311 10.8422 13.0414 11.4685 12.5996 11.7998L12.5967 11.8027L12.5938 11.8047L12.5859 11.8105L12.5674 11.8232C12.5537 11.8329 12.537 11.8446 12.5176 11.8574C12.4785 11.8831 12.4276 11.9151 12.3652 11.9502C12.2406 12.0203 12.0693 12.1048 11.8516 12.1865C11.4136 12.3507 10.7945 12.5 10 12.5C9.20547 12.5 8.58636 12.3507 8.14844 12.1865C7.93069 12.1048 7.7594 12.0203 7.63477 11.9502C7.57242 11.9151 7.52151 11.8831 7.48242 11.8574C7.46296 11.8446 7.44633 11.8329 7.43262 11.8232L7.41406 11.8105L7.40625 11.8047L7.40332 11.8027L7.40039 11.7998C6.9586 11.4685 6.86893 10.8422 7.2002 10.4004C7.52705 9.96459 8.14134 9.87098 8.58203 10.1865C8.58669 10.1895 8.59764 10.1971 8.61523 10.207C8.65723 10.2306 8.7364 10.2703 8.85156 10.3135C9.08034 10.3992 9.46143 10.5 10 10.5C10.5386 10.5 10.9197 10.3992 11.1484 10.3135C11.2636 10.2703 11.3428 10.2306 11.3848 10.207C11.4024 10.1971 11.4133 10.1895 11.418 10.1865Z" fill="#1F1F22"/>
<path d="M7.5 6C8.05229 6 8.5 6.44772 8.5 7C8.5 7.55228 8.05229 8 7.5 8C6.94772 8 6.5 7.55228 6.5 7C6.5 6.44772 6.94772 6 7.5 6Z" fill="#1F1F22"/>
<path d="M12.5 6C13.0523 6 13.5 6.44772 13.5 7C13.5 7.55228 13.0523 8 12.5 8C11.9477 8 11.5 7.55228 11.5 7C11.5 6.44772 11.9477 6 12.5 6Z" fill="#1F1F22"/>
<path fill-rule="evenodd" clip-rule="evenodd" d="M14 2C15.6569 2 17 3.34315 17 5C18.6563 5 19.9999 6.34179 20 7.99902V13C20 14.5179 19.6373 15.9511 18.2617 17.3174C17.6034 17.9712 16.9332 18.4077 16.1982 18.6709C15.4723 18.9309 14.7416 19 14 19H10C9.44773 19 9 18.5523 9 18C9 17.4477 9.44773 17 10 17H14C14.6224 17 15.0989 16.9405 15.5244 16.7881C15.9409 16.6389 16.3672 16.3795 16.8516 15.8984C17.7646 14.9915 18 14.1176 18 13V7.99902C17.9999 7.44733 17.5527 7 17 7V13C17 14.6569 15.6569 16 14 16H6C4.34315 16 3 14.6569 3 13V11C1.34315 11 0 9.65685 0 8C0 6.34315 1.34315 5 3 5C3 3.34315 4.34315 2 6 2H14ZM6 4C5.44772 4 5 4.44772 5 5V13C5 13.5523 5.44772 14 6 14H14C14.5523 14 15 13.5523 15 13V5C15 4.44772 14.5523 4 14 4H6ZM3 7C2.44772 7 2 7.44772 2 8C2 8.55228 2.44772 9 3 9V7Z" fill="#1F1F22"/>
</svg>
