<svg width="32" height="32" viewBox="0 0 32 32" fill="none" xmlns="http://www.w3.org/2000/svg">
<path d="M15 5C15.3671 5 15.7307 5.01646 16.0898 5.04883C16.6399 5.09844 17.0457 5.58474 16.9961 6.13477C16.9464 6.68474 16.4602 7.09058 15.9102 7.04102C15.6106 7.01403 15.3071 7 15 7C9.47715 7 5 11.4772 5 17V27H15C20.5228 27 25 22.5228 25 17C25 16.6929 24.986 16.3894 24.959 16.0898C24.9094 15.5398 25.3153 15.0536 25.8652 15.0039C26.4153 14.9543 26.9016 15.3601 26.9512 15.9102C26.9835 16.2693 27 16.6329 27 17C27 23.6274 21.6274 29 15 29H4C3.44772 29 3 28.5523 3 28V17C3 10.3726 8.37258 5 15 5Z" fill="#1F1F22"/>
<path fill-rule="evenodd" clip-rule="evenodd" d="M17.5 11C18.0523 11 18.5 11.4477 18.5 12C18.5 12.5523 18.0523 13 17.5 13H12V15H16C18.2091 15 20 16.7909 20 19C20 21.2091 18.2091 23 16 23H11C10.4477 23 10 22.5523 10 22V13C10 11.8954 10.8954 11 12 11H17.5ZM12 21H16C17.1046 21 18 20.1046 18 19C18 17.8954 17.1046 17 16 17H12V21Z" fill="#1F1F22"/>
<path d="M28.293 3.29297C28.6835 2.90251 29.3165 2.90246 29.707 3.29297C30.0975 3.68347 30.0975 4.31651 29.707 4.70703L22.707 11.707C22.3165 12.0976 21.6835 12.0975 21.293 11.707C20.9024 11.3165 20.9024 10.6835 21.293 10.293L28.293 3.29297Z" fill="#1F1F22"/>
<path d="M28.5 9C29.3284 9 30 9.67157 30 10.5C30 11.3284 29.3284 12 28.5 12C27.6716 12 27 11.3284 27 10.5C27 9.67157 27.6716 9 28.5 9Z" fill="#1F1F22"/>
<path d="M22.5 3C23.3284 3 24 3.67157 24 4.5C24 5.32843 23.3284 6 22.5 6C21.6716 6 21 5.32843 21 4.5C21 3.67157 21.6716 3 22.5 3Z" fill="#1F1F22"/>
</svg>
