<svg width="32" height="32" viewBox="0 0 32 32" fill="none" xmlns="http://www.w3.org/2000/svg">
<path d="M12 17.5C13.3807 17.5 14.5 18.6193 14.5 20C14.5 21.3807 13.3807 22.5 12 22.5C10.9751 22.5 10.0959 21.8826 9.70996 21H6V24C6 24.5523 6.44772 25 7 25H25C25.5523 25 26 24.5523 26 24V21C26 20.4477 26.4477 20 27 20C27.5523 20 28 20.4477 28 21V24C28 25.6569 26.6569 27 25 27H7C5.34315 27 4 25.6569 4 24V20C4 19.4477 4.44772 19 5 19H9.70996C10.0959 18.1174 10.9751 17.5 12 17.5Z" fill="#1F1F22"/>
<path fill-rule="evenodd" clip-rule="evenodd" d="M18 4C19.6569 4 21 5.34315 21 7V9H25C26.6569 9 28 10.3431 28 12V16C28 16.5523 27.5523 17 27 17H22.29C21.9041 17.8826 21.0249 18.5 20 18.5C18.6193 18.5 17.5 17.3807 17.5 16C17.5 14.6193 18.6193 13.5 20 13.5C21.0249 13.5 21.9041 14.1174 22.29 15H26V12C26 11.4477 25.5523 11 25 11H7C6.44772 11 6 11.4477 6 12V15C6 15.5523 5.55228 16 5 16C4.44772 16 4 15.5523 4 15V12C4 10.3431 5.34315 9 7 9H11V7C11 5.34315 12.3431 4 14 4H18ZM14 6C13.4477 6 13 6.44772 13 7V9H19V7C19 6.44772 18.5523 6 18 6H14Z" fill="#1F1F22"/>
</svg>
