<svg width="32" height="32" viewBox="0 0 32 32" fill="none" xmlns="http://www.w3.org/2000/svg">
<path fill-rule="evenodd" clip-rule="evenodd" d="M25.5 16.9999C27.433 16.9999 29 18.5669 29 20.4999C29 22.4329 27.433 23.9999 25.5 23.9999H24V24.9999H24.9883C25.5405 24.9999 25.9882 25.4476 25.9883 25.9999C25.9883 26.5522 25.5406 26.9999 24.9883 26.9999H24V27.9999C24 28.5522 23.5523 28.9999 23 28.9999C22.4477 28.9999 22 28.5522 22 27.9999V26.9999H21C20.4477 26.9999 20 26.5522 20 25.9999C20 25.4476 20.4477 24.9999 21 24.9999H22V23.9999H21C20.4477 23.9999 20 23.5522 20 22.9999C20 22.4476 20.4477 21.9999 21 21.9999H22V17.9999L22.0049 17.8974C22.0563 17.3933 22.4824 16.9999 23 16.9999H25.5ZM24 21.9999H25.5C26.3284 21.9999 27 21.3283 27 20.4999C27 19.6715 26.3284 18.9999 25.5 18.9999H24V21.9999Z" fill="#1F1F22"/>
<path d="M17 21.9999C17.5523 21.9999 18 22.4476 18 22.9999C18 23.5522 17.5523 23.9999 17 23.9999H5C4.44772 23.9999 4 23.5522 4 22.9999C4.00004 22.4476 4.44774 21.9999 5 21.9999H17Z" fill="#1F1F22"/>
<path d="M8.00098 10.9999C8.55301 11.0002 9.00093 11.4478 9.00098 11.9999V18.9999C9.00098 19.552 8.55304 19.9996 8.00098 19.9999C7.44869 19.9999 7.00098 19.5522 7.00098 18.9999V11.9999C7.00102 11.4476 7.44872 10.9999 8.00098 10.9999Z" fill="#1F1F22"/>
<path d="M13.001 10.9999C13.553 11.0002 14.0009 11.4478 14.001 11.9999V18.9999C14.001 19.552 13.553 19.9996 13.001 19.9999C12.4487 19.9999 12.001 19.5522 12.001 18.9999V11.9999C12.001 11.4476 12.4487 10.9999 13.001 10.9999Z" fill="#1F1F22"/>
<path d="M18 10.9999C18.5523 10.9999 19 11.4476 19 11.9999V18.9999C19 19.5522 18.5523 19.9999 18 19.9999C17.4477 19.9999 17 19.5522 17 18.9999V11.9999C17 11.4476 17.4477 10.9999 18 10.9999Z" fill="#1F1F22"/>
<path d="M12.6963 4.54677C12.9265 4.47342 13.1769 4.48618 13.4004 4.58388L21.4004 8.08388C21.9062 8.3052 22.1371 8.89439 21.916 9.40028C21.6947 9.90615 21.1055 10.137 20.5996 9.91591L13 6.59071L5.40039 9.91591C4.89448 10.137 4.30531 9.90616 4.08398 9.40028C3.86286 8.89438 4.09374 8.3052 4.59961 8.08388L12.5996 4.58388L12.6963 4.54677Z" fill="#1F1F22"/>
</svg>
