<svg width="20" height="20" viewBox="0 0 20 20" fill="none" xmlns="http://www.w3.org/2000/svg">
<path d="M1.31623 12.5791C1.82477 12.3644 2.41169 12.602 2.62678 13.1104C3.84141 15.9851 6.68668 17.9999 9.99983 18C10.552 18.0001 10.9998 18.4478 10.9998 19C10.9998 19.5522 10.552 19.9999 9.99983 20C5.85503 19.9999 2.30149 17.4784 0.784983 13.8896C0.570104 13.3811 0.807821 12.7942 1.31623 12.5791Z" fill="#1F1F22"/>
<path fill-rule="evenodd" clip-rule="evenodd" d="M16.9998 10C18.6567 10 19.9998 11.3431 19.9998 13C19.9998 14.6569 18.6567 16 16.9998 16H15.9998V16.5H16.4998C17.0521 16.5 17.4998 16.9477 17.4998 17.5C17.4998 18.0523 17.0521 18.5 16.4998 18.5H15.9998V19C15.9998 19.5523 15.5521 20 14.9998 20C14.4475 20 13.9998 19.5523 13.9998 19V18.5H13.4998C12.9475 18.5 12.4998 18.0523 12.4998 17.5C12.4998 16.9477 12.9475 16.5 13.4998 16.5H13.9998V16H13.4998C12.9475 16 12.4998 15.5523 12.4998 15C12.4998 14.4477 12.9475 14 13.4998 14H13.9998V11L14.0047 10.8975C14.056 10.3933 14.4822 10 14.9998 10H16.9998ZM15.9998 14H16.9998C17.5521 14 17.9998 13.5523 17.9998 13C17.9998 12.4477 17.5521 12 16.9998 12H15.9998V14Z" fill="#1F1F22"/>
<path d="M5.18635 0.418945C5.50735 -0.0302391 6.13147 -0.134293 6.58088 0.186523C7.03029 0.507381 7.13431 1.13185 6.8133 1.58105L4.49983 4.81836V4.99805H5.49983C6.05205 4.99805 6.49973 5.44513 6.49983 5.99707C6.49983 6.54909 6.05211 6.99707 5.49983 6.99707H4.49983V7.49609H5.49983C6.05211 7.49609 6.49983 7.94407 6.49983 8.49609C6.49981 9.0481 6.0521 9.49512 5.49983 9.49512H4.49983V9.99512C4.49983 10.5471 4.05211 10.9951 3.49983 10.9951C2.94758 10.9951 2.49983 10.5471 2.49983 9.99512V9.49512H1.49983C0.947589 9.49508 0.499846 9.04807 0.499826 8.49609C0.499826 7.9441 0.947577 7.49614 1.49983 7.49609H2.49983V6.99707H1.49983C0.947577 6.99703 0.499826 6.54907 0.499826 5.99707C0.499918 5.44515 0.947634 4.99809 1.49983 4.99805H2.49983V4.81836L0.18635 1.58105C-0.134645 1.13187 -0.0305931 0.507393 0.418772 0.186523C0.868184 -0.134334 1.49229 -0.0302547 1.8133 0.418945L3.49983 2.77832L5.18635 0.418945Z" fill="#1F1F22"/>
<path d="M9.99983 0C14.5602 9.18991e-05 18.4057 3.05191 19.6092 7.22266C19.7623 7.75318 19.456 8.3077 18.9256 8.46094C18.395 8.61405 17.8405 8.3079 17.6873 7.77734C16.7242 4.43967 13.6455 2.00009 9.99983 2C9.44761 1.99992 8.99983 1.55224 8.99983 1C8.99983 0.447764 9.44761 7.83332e-05 9.99983 0Z" fill="#1F1F22"/>
</svg>
