<svg width="32" height="32" viewBox="0 0 32 32" fill="none" xmlns="http://www.w3.org/2000/svg">
<path d="M17 6C17.5523 6 18 6.44772 18 7C18 7.55228 17.5523 8 17 8H8C7.44772 8 7 8.44772 7 9V20L7.00488 20.1025C7.05621 20.6067 7.48232 21 8 21H24C24.5523 21 25 20.5523 25 20V18C25 17.4477 25.4477 17 26 17C26.5523 17 27 17.4477 27 18V20C27 21.6569 25.6569 23 24 23H17V26H21C21.5523 26 22 26.4477 22 27C22 27.5523 21.5523 28 21 28H11C10.4477 28 10 27.5523 10 27C10 26.4477 10.4477 26 11 26H15V23H8C6.3949 23 5.08421 21.7394 5.00391 20.1543L5 20V9C5 7.34315 6.34315 6 8 6H17Z" fill="#1F1F22"/>
<path d="M16.5 16C17.0523 16 17.5 16.4477 17.5 17C17.5 17.5523 17.0523 18 16.5 18H10C9.44772 18 9 17.5523 9 17C9 16.4477 9.44772 16 10 16H16.5Z" fill="#1F1F22"/>
<path fill-rule="evenodd" clip-rule="evenodd" d="M24.5 5C26.433 5 28 6.567 28 8.5C28 10.433 26.433 12 24.5 12H23V13H23.9883C24.5406 13 24.9883 13.4477 24.9883 14C24.9883 14.5523 24.5406 15 23.9883 15H23V16C23 16.5523 22.5523 17 22 17C21.4477 17 21 16.5523 21 16V15H20C19.4477 15 19 14.5523 19 14C19 13.4477 19.4477 13 20 13H21V12H20C19.4477 12 19 11.5523 19 11C19 10.4477 19.4477 10 20 10H21V6L21.0049 5.89746C21.0562 5.39333 21.4823 5 22 5H24.5ZM23 10H24.5C25.3284 10 26 9.32843 26 8.5C26 7.67157 25.3284 7 24.5 7H23V10Z" fill="#1F1F22"/>
<path d="M13 12C13.5523 12 14 12.4477 14 13C14 13.5523 13.5523 14 13 14H10C9.44772 14 9 13.5523 9 13C9 12.4477 9.44772 12 10 12H13Z" fill="#1F1F22"/>
</svg>
