<svg width="20" height="20" viewBox="0 0 20 20" fill="none" xmlns="http://www.w3.org/2000/svg">
<path d="M14.7577 2.03009C14.2219 2.16404 13.8961 2.70698 14.03 3.24277L14.53 5.24277C14.664 5.77857 15.2069 6.10433 15.7427 5.97038C16.2785 5.83643 16.6043 5.2935 16.4703 4.7577L15.9703 2.7577C15.8364 2.22191 15.2935 1.89615 14.7577 2.03009Z" fill="#1F1F22"/>
<path d="M2.44743 2.10579C2.94141 2.35278 3.14164 2.95345 2.89465 3.44743L1.89465 5.44743C1.64766 5.94141 1.04698 6.14164 0.553005 5.89465C0.059027 5.64766 -0.141197 5.04698 0.105792 4.55301L1.10579 2.55301C1.35278 2.05903 1.95345 1.8588 2.44743 2.10579Z" fill="#1F1F22"/>
<path d="M2.00024 8C2.55253 8 3.00024 8.44772 3.00024 9V13H17.0002V9C17.0002 8.44772 17.448 8 18.0002 8C18.5525 8 19.0002 8.44772 19.0002 9V13C19.0002 14.1046 18.1048 15 17.0002 15H11.0002V17H16.0002C16.5525 17 17.0002 17.4477 17.0002 18C17.0002 18.5523 16.5525 19 16.0002 19H4.00024C3.44796 19 3.00024 18.5523 3.00024 18C3.00024 17.4477 3.44796 17 4.00024 17H9.00024V15H3.00024C1.89567 15 1.00024 14.1046 1.00024 13V9C1.00024 8.44772 1.44796 8 2.00024 8Z" fill="#1F1F22"/>
<path d="M17.1058 3.44743C16.8588 2.95345 17.059 2.35278 17.553 2.10579C18.047 1.8588 18.6476 2.05903 18.8946 2.55301L19.8946 4.55301C20.1416 5.04698 19.9414 5.64766 19.4474 5.89465C18.9534 6.14164 18.3528 5.94141 18.1058 5.44743L17.1058 3.44743Z" fill="#1F1F22"/>
<path d="M10.7113 3.14848C10.6294 2.6023 11.0057 2.09313 11.5519 2.0112C12.0981 1.92927 12.6072 2.30562 12.6892 2.8518L12.9892 4.8518C13.0711 5.39797 12.6947 5.90715 12.1486 5.98907C11.6024 6.071 11.0932 5.69465 11.0113 5.14848L10.7113 3.14848Z" fill="#1F1F22"/>
<path d="M5.24277 2.03009C5.77857 2.16404 6.10433 2.70698 5.97038 3.24277L5.47038 5.24277C5.33643 5.77857 4.7935 6.10433 4.2577 5.97038C3.72191 5.83643 3.39615 5.2935 3.53009 4.7577L4.03009 2.7577C4.16404 2.22191 4.70698 1.89615 5.24277 2.03009Z" fill="#1F1F22"/>
<path d="M9.28913 3.14848C9.37106 2.6023 8.99471 2.09313 8.44854 2.0112C7.90236 1.92927 7.39319 2.30562 7.31126 2.8518L7.01126 4.8518C6.92933 5.39797 7.30568 5.90715 7.85186 5.98907C8.39803 6.071 8.90721 5.69465 8.98913 5.14848L9.28913 3.14848Z" fill="#1F1F22"/>
</svg>
