<svg width="20" height="20" viewBox="0 0 20 20" fill="none" xmlns="http://www.w3.org/2000/svg">
<path d="M10 0C10.5523 0 11 0.447715 11 1C11 1.55228 10.5523 2 10 2H4C3.44772 2 3 2.44772 3 3V17C3 17.5523 3.44772 18 4 18H14C14.5523 18 15 17.5523 15 17V15C15 14.4477 15.4477 14 16 14C16.5523 14 17 14.4477 17 15V17C17 18.6569 15.6569 20 14 20H4C2.34315 20 1 18.6569 1 17V3C1 1.34315 2.34315 0 4 0H10Z" fill="#1F1F22"/>
<path d="M12 14C12.5523 14 13 14.4477 13 15C13 15.5523 12.5523 16 12 16H6C5.44772 16 5 15.5523 5 15C5 14.4477 5.44772 14 6 14H12Z" fill="#1F1F22"/>
<path d="M10 10C10.5523 10 11 10.4477 11 11C11 11.5523 10.5523 12 10 12H6C5.44772 12 5 11.5523 5 11C5 10.4477 5.44772 10 6 10H10Z" fill="#1F1F22"/>
<path fill-rule="evenodd" clip-rule="evenodd" d="M16 0C17.933 0 19.5 1.567 19.5 3.5C19.5 5.08536 18.4455 6.42311 17 6.85352V9H17.5C18.0523 9 18.5 9.44771 18.5 10C18.5 10.5523 18.0523 11 17.5 11H17C17 11.5523 16.5523 12 16 12C15.4477 12 15 11.5523 15 11V6.85352C13.5545 6.42311 12.5 5.08536 12.5 3.5C12.5 1.567 14.067 0 16 0ZM16 2C15.1716 2 14.5 2.67157 14.5 3.5C14.5 4.32843 15.1716 5 16 5C16.8284 5 17.5 4.32843 17.5 3.5C17.5 2.67157 16.8284 2 16 2Z" fill="#1F1F22"/>
<path d="M10 6C10.5523 6 11 6.44772 11 7C11 7.55228 10.5523 8 10 8H6C5.44772 8 5 7.55228 5 7C5 6.44772 5.44772 6 6 6H10Z" fill="#1F1F22"/>
</svg>
