<svg width="32" height="32" viewBox="0 0 32 32" fill="none" xmlns="http://www.w3.org/2000/svg">
<path d="M15.168 20.4453C15.4124 20.0787 15.8683 19.9153 16.29 20.043C16.7117 20.1707 17 20.5594 17 21V27C17 27.5523 16.5523 28 16 28C15.4478 28 15 27.5523 15 27V23.499C14.8091 23.4992 14.616 23.4459 14.4453 23.332C13.9859 23.0257 13.8617 22.4048 14.168 21.9453L15.168 20.4453Z" fill="#1F1F22"/>
<path d="M19.168 20.4453C19.4124 20.0787 19.8683 19.9153 20.29 20.043C20.7117 20.1707 21 20.5594 21 21V27C21 27.5523 20.5523 28 20 28C19.4478 28 19 27.5523 19 27V23.499C18.8091 23.4992 18.616 23.4459 18.4453 23.332C17.9859 23.0257 17.8617 22.4048 18.168 21.9453L19.168 20.4453Z" fill="#1F1F22"/>
<path d="M26 20C26.5523 20 27 20.4477 27 21C27 21.5523 26.5523 22 26 22H24V22.5098C24.5109 22.4331 25.0298 22.4683 25.499 22.6035C26.5402 22.9038 27.5205 23.7718 27.5205 25.1787C27.5204 26.5259 26.6662 27.4278 25.623 27.7754C24.626 28.1076 23.4339 27.9603 22.4639 27.3447C21.9976 27.0488 21.8594 26.4302 22.1553 25.9639C22.4512 25.4976 23.0698 25.3594 23.5361 25.6553C24.0238 25.9647 24.5917 26.0105 24.9902 25.8779C25.3426 25.7605 25.5205 25.5392 25.5205 25.1787C25.5205 24.8779 25.3554 24.6439 24.9443 24.5254C24.4985 24.397 23.9718 24.4927 23.6406 24.7686C23.3426 25.0169 22.9275 25.0698 22.5762 24.9053C22.2248 24.7407 22 24.388 22 24V21C22 20.4477 22.4477 20 23 20H26Z" fill="#1F1F22"/>
<path fill-rule="evenodd" clip-rule="evenodd" d="M15.1719 4C15.9674 4.00008 16.7304 4.31637 17.293 4.87891L24.1211 11.707C24.6836 12.2696 24.9999 13.0326 25 13.8281V16C25 16.5523 24.5523 17 24 17C23.4477 17 23 16.5523 23 16V14H18C16.3431 14 15 12.6569 15 11V6H10C9.44772 6 9 6.44772 9 7V24C9 24.5523 9.44772 25 10 25H11C11.5523 25 12 25.4477 12 26C12 26.5523 11.5523 27 11 27H10C8.34315 27 7 25.6569 7 24V7C7 5.34315 8.34315 4 10 4H15.1719ZM17 11C17 11.5523 17.4477 12 18 12H21.5859L17 7.41406V11Z" fill="#1F1F22"/>
</svg>
