<svg width="20" height="20" viewBox="0 0 20 20" fill="none" xmlns="http://www.w3.org/2000/svg">
<path d="M8.19482 1.20728C9.3664 0.0357016 11.2654 0.0357034 12.437 1.20728L14.2817 3.05103C15.4533 4.2226 15.4533 6.12262 14.2817 7.29419L11.6001 9.97485L14.3062 12.6809C15.4777 13.8524 15.4776 15.7515 14.3062 16.9231L12.4614 18.7678C11.2899 19.9394 9.39081 19.9394 8.21924 18.7678L1.70166 12.2502C1.14628 11.6948 0.85327 10.974 0.824707 10.2473C0.704598 9.35429 0.988413 8.41271 1.67725 7.72388L8.19482 1.20728ZM11.0229 2.62134C10.6324 2.23081 9.99941 2.23081 9.60889 2.62134L3.09131 9.13892C2.85642 9.37385 2.7621 9.6958 2.81104 10.0042L2.82178 10.0745L2.82275 10.1448C2.82671 10.3967 2.92424 10.6447 3.11572 10.8362L9.6333 17.3538C10.0238 17.7443 10.6568 17.7443 11.0474 17.3538L12.8921 15.509C13.2825 15.1185 13.2826 14.4854 12.8921 14.095L9.479 10.6819C9.08875 10.2913 9.08857 9.65826 9.479 9.26782L12.8677 5.88013C13.2581 5.48972 13.2578 4.85662 12.8677 4.46606L11.0229 2.62134ZM17.4995 8.50024C18.3279 8.50024 18.9995 9.17182 18.9995 10.0002C18.9994 10.8286 18.3279 11.5002 17.4995 11.5002C16.6714 11.5 15.9996 10.8284 15.9995 10.0002C15.9995 9.17196 16.6713 8.50048 17.4995 8.50024Z" fill="#1F1F22"/>
</svg>
