<svg width="20" height="20" viewBox="0 0 20 20" fill="none" xmlns="http://www.w3.org/2000/svg">
<g clip-path="url(#clip0_262_578)">
<path d="M0.293023 13.293C0.683547 12.9025 1.31656 12.9025 1.70709 13.293L5.70709 17.293C6.09761 17.6836 6.09761 18.3166 5.70709 18.7071C5.31656 19.0976 4.68355 19.0976 4.29302 18.7071L0.293023 14.7071C-0.0975013 14.3166 -0.0975013 13.6836 0.293023 13.293Z" fill="#1F1F22"/>
<path fill-rule="evenodd" clip-rule="evenodd" d="M17.5001 14.0001C18.8808 14.0001 20.0001 15.1194 20.0001 16.5001C20.0001 17.8808 18.8808 19.0001 17.5001 19.0001C16.1193 19.0001 15.0001 17.8808 15.0001 16.5001C15.0001 15.1194 16.1193 14.0001 17.5001 14.0001ZM17.5001 16.0001C17.2239 16.0001 17.0001 16.2239 17.0001 16.5001C17.0001 16.7762 17.2239 17.0001 17.5001 17.0001C17.7762 17.0001 18.0001 16.7762 18.0001 16.5001C18.0001 16.2239 17.7762 16.0001 17.5001 16.0001Z" fill="#1F1F22"/>
<path fill-rule="evenodd" clip-rule="evenodd" d="M6.08892 0.168035C6.91597 -0.0987389 7.99513 -0.0779902 8.67095 0.454168C9.19965 0.870643 9.40233 1.44922 9.42584 1.85163C9.44324 1.86708 9.47996 1.89775 9.52642 1.93659C9.66908 2.05584 9.90881 2.25547 9.99712 2.35553L10.004 2.45124V2.35553C10.0925 2.25538 10.3312 2.05572 10.4737 1.93659C10.5202 1.89769 10.5569 1.86707 10.5743 1.85163C10.5978 1.44917 10.8013 0.870657 11.3301 0.454168C12.0059 -0.0777619 13.0843 -0.0986661 13.9112 0.168035C14.9282 0.496142 15.3559 1.14627 15.4737 1.75104C16.061 0.777886 16.5291 0.526107 16.8438 0.422918C17.6704 0.15191 18.5379 0.39441 19.1163 1.16803C19.4858 1.66274 19.7438 3.07085 19.8282 3.56452C19.9288 4.1532 20.101 5.42469 19.9229 6.98932C19.7181 8.78771 18.8171 10.8295 18.2061 11.4825C17.578 12.1538 17.1498 12.5116 16.5176 12.7354C15.9335 12.9422 15.6071 12.9239 15.5362 12.92C15.5308 12.9197 15.5268 12.92 15.5245 12.92C15.3949 13.4419 15.3089 13.6515 15.1749 13.8897C14.9981 14.2038 14.6212 14.542 14.2129 14.7383L14.2139 14.7452C14.2917 15.0639 14.3573 15.3314 14.2676 15.8497C14.1772 16.3719 13.8312 16.9596 13.3526 17.3419C12.8924 17.7094 12.0505 18.0092 11.5879 18.1739C11.4627 18.2185 11.3651 18.253 11.3106 18.2764C11.0651 18.479 10.5332 18.7517 10.0723 18.7559H9.93853C9.47544 18.7557 8.93797 18.4806 8.69048 18.2764C8.63599 18.253 8.53773 18.2186 8.41216 18.1739C7.9496 18.0093 7.10774 17.7093 6.64752 17.3419C6.16897 16.9596 5.82291 16.3718 5.73248 15.8497C5.64284 15.3314 5.70843 15.0639 5.78619 14.7452L5.78814 14.7383C5.37981 14.542 5.00204 14.2038 4.82525 13.8897C4.6913 13.6516 4.60609 13.4417 4.47662 12.92C4.47425 12.92 4.46969 12.9197 4.46392 12.92C4.39316 12.9239 4.06689 12.9423 3.48248 12.7354C2.85029 12.5116 2.42219 12.1538 1.794 11.4825C1.18299 10.8295 0.282015 8.7877 0.0772027 6.98932C-0.10089 5.42469 0.0713559 4.15319 0.171929 3.56452C0.256284 3.07091 0.514281 1.66277 0.883843 1.16803C1.46211 0.394409 2.32975 0.15204 3.1563 0.422918C3.471 0.526124 3.94017 0.77797 4.5274 1.75104C4.64521 1.14629 5.07194 0.496152 6.08892 0.168035ZM13.5098 2.1485C13.2646 2.03529 12.7952 1.90055 12.5391 2.0528C12.4939 2.11487 12.4967 2.24488 12.5157 2.31452C12.6117 2.66521 12.4548 3.03827 12.1417 3.20124C11.8832 3.33559 11.5697 3.60056 11.2735 3.92878C10.9793 4.25486 10.7552 4.58468 10.6504 4.79596C10.5256 5.04749 10.2758 5.20596 10.004 5.20612C9.73208 5.20612 9.48247 5.04743 9.35748 4.79596C9.25275 4.58469 9.02764 4.25484 8.73345 3.92878C8.43743 3.60073 8.12468 3.33561 7.86627 3.20124C7.55284 3.03837 7.39519 2.66537 7.49127 2.31452C7.48941 2.30323 7.44863 2.05426 7.45025 2.04499C7.14349 1.94993 6.75623 2.02946 6.4981 2.1485C6.49872 2.19059 6.51665 2.31931 6.5772 2.52546C6.65456 2.78962 6.58817 3.07738 6.40337 3.27546C6.35047 3.33223 6.29444 3.43804 6.25591 3.60651C6.21865 3.76982 6.20904 3.94021 6.20904 4.06843C6.20914 4.10238 6.2269 4.38389 6.25591 4.35065C6.28801 4.31219 6.31167 4.25921 6.36334 4.20807C6.48388 4.08894 6.72401 3.89276 7.08013 3.89264C7.49582 3.89267 7.76175 4.16889 7.88189 4.32526C8.01599 4.49987 8.10875 4.70363 8.17291 4.87409C8.30608 5.22811 8.37881 5.5982 8.38677 5.97565C8.38996 6.12674 8.39601 6.43083 8.35748 6.68073C8.3335 6.83598 8.28051 7.07188 8.13384 7.28425C7.95872 7.53743 7.67544 7.71587 7.32427 7.71589C7.08437 7.71577 6.87966 7.61496 6.76861 7.55378C6.63507 7.48014 6.50047 7.38451 6.37408 7.28522C6.11923 7.08497 5.83642 6.81927 5.56158 6.5362C5.0162 5.97445 4.43236 5.27135 4.0938 4.72761C3.73706 4.15451 3.25165 3.42655 2.86822 2.85261C2.73343 2.65084 2.61086 2.46734 2.51666 2.32428C2.48648 2.29646 2.09258 3.86546 2.02935 4.76276C1.95328 5.84326 2.0151 7.0787 2.37408 8.19538C2.75006 9.36465 3.12636 9.97669 3.42877 10.3165C3.71749 10.6408 3.97317 10.7596 4.2481 10.8829C4.32418 10.9169 4.53679 10.9625 4.96294 10.8526C5.37971 10.7451 5.93694 10.505 6.64263 10.0694C6.9648 9.87054 7.37941 9.95879 7.60064 10.2735C7.82161 10.5883 7.77735 11.0265 7.4981 11.2862C7.21018 11.5538 6.98622 11.764 6.8106 11.9542C6.63465 12.1447 6.54391 12.2778 6.4981 12.377C6.46043 12.4587 6.45157 12.5199 6.46099 12.5948C6.46838 12.6531 6.4889 12.7367 6.53912 12.8516C6.56949 12.9177 6.95603 13.0629 7.14654 13.0977C7.27699 13.1216 7.4558 13.1151 7.48052 13.0469C7.50472 12.9785 7.54946 12.8519 7.59185 12.7608C7.65226 12.6311 7.78905 12.3759 8.07427 12.2266C8.56199 11.9715 9.22561 12.1908 9.42095 12.7149C9.50019 12.9279 9.48558 13.1288 9.45123 13.2725C9.39 13.5279 9.23794 13.7332 9.13384 13.8594C8.90297 14.1392 8.54174 14.4546 8.14556 14.7716C7.89248 14.974 7.76403 15.1661 7.71783 15.3038C7.68306 15.4076 7.68245 15.504 7.76763 15.6397C7.89246 15.8375 8.2245 15.9502 8.42584 16.0352C8.79434 16.1908 9.1977 16.3081 9.57525 16.4757C10.4005 16.842 9.58836 16.85 10.4317 16.4757C10.8094 16.308 11.2135 16.1909 11.5821 16.0352C11.7836 15.9501 12.1157 15.8376 12.2403 15.6397C12.3254 15.5041 12.3248 15.4075 12.2901 15.3038C12.2439 15.1662 12.1153 14.974 11.8624 14.7716C11.466 14.4545 11.104 14.1393 10.8731 13.8594C10.769 13.7332 10.6169 13.5279 10.5557 13.2725C10.5214 13.1288 10.5068 12.9279 10.586 12.7149C10.7816 12.1901 11.4436 11.9701 11.9336 12.2266C12.2186 12.376 12.3547 12.6311 12.4151 12.7608C12.4575 12.852 12.5032 12.9785 12.5274 13.0469C12.5526 13.1149 12.7469 13.1278 12.8604 13.0977C13.0408 13.0499 13.4195 12.9332 13.4678 12.8516C13.5488 12.7118 13.5775 12.526 13.5088 12.377C13.463 12.2778 13.3723 12.1447 13.1963 11.9542C13.0208 11.7641 12.7967 11.5538 12.5088 11.2862C12.2297 11.0264 12.1853 10.5883 12.4063 10.2735C12.6275 9.95869 13.0421 9.87051 13.3643 10.0694C14.0701 10.505 14.6272 10.7451 15.044 10.8526C15.4704 10.9626 15.6828 10.9169 15.7588 10.8829C16.0339 10.7596 16.2903 10.641 16.5792 10.3165C16.8815 9.97663 17.257 9.36433 17.6329 8.19538C17.9919 7.07868 18.0537 5.84328 17.9776 4.76276C17.9253 4.02053 17.893 2.98649 17.4903 2.32428C17.4685 2.29246 17.2732 2.65135 17.1387 2.85261C16.7553 3.42654 16.2699 4.15453 15.9131 4.72761C15.5746 5.27137 14.9908 5.97445 14.4454 6.5362C14.1705 6.81935 13.8878 7.08494 13.6329 7.28522C13.5064 7.38458 13.372 7.48011 13.2383 7.55378C13.1273 7.61498 12.9227 7.71582 12.6827 7.71589C12.3315 7.71589 12.0492 7.53742 11.8741 7.28425C11.7272 7.07178 11.6735 6.83606 11.6495 6.68073C11.6109 6.43082 11.618 6.12674 11.6211 5.97565C11.6291 5.59818 11.7009 5.22812 11.834 4.87409C11.8982 4.70359 11.9919 4.49992 12.126 4.32526C12.2463 4.16883 12.5114 3.89264 12.9268 3.89264C13.2829 3.89268 13.523 4.0889 13.6436 4.20807C13.6952 4.25916 13.7404 4.31221 13.7725 4.35065C13.7725 4.35065 13.7974 4.08062 13.7979 4.06843C13.7979 3.94021 13.7883 3.76983 13.751 3.60651C13.7126 3.4384 13.6574 3.33232 13.6045 3.27546C13.4197 3.07739 13.3524 2.78963 13.4297 2.52546C13.4903 2.31931 13.5092 2.19059 13.5098 2.1485Z" fill="#1F1F22"/>
</g>
<defs>
<clipPath id="clip0_262_578">
<rect width="20" height="20" fill="white"/>
</clipPath>
</defs>
</svg>
