<svg width="20.000000" height="20.000000" viewBox="0 0 20 20" fill="none" xmlns="http://www.w3.org/2000/svg" xmlns:xlink="http://www.w3.org/1999/xlink">
	<desc>
			Created with Pixso.
	</desc>
	<defs/>
	<path id="Union" d="M2 9.5C2 5.35 5.35 2 9.5 2C10.77 2 11.98 2.31 13.03 2.88C13.51 3.14 14.12 2.95 14.38 2.47C14.64 1.98 14.46 1.37 13.97 1.11C12.64 0.4 11.11 0 9.5 0C4.25 0 0 4.25 0 9.5C0 14.17 3.37 18.06 7.82 18.85C8.36 18.94 8.88 18.58 8.98 18.04C9.08 17.49 8.71 16.98 8.17 16.88C4.66 16.25 2 13.18 2 9.5ZM17.28 4.38C17.62 4.81 17.55 5.44 17.11 5.78L10.11 11.28C9.76 11.56 9.28 11.57 8.91 11.31L5.41 8.81C4.96 8.49 4.86 7.86 5.18 7.41C5.5 6.96 6.13 6.86 6.58 7.18L9.47 9.25L15.88 4.21C16.31 3.87 16.94 3.94 17.28 4.38ZM18.93 8.38C18.87 7.83 18.37 7.44 17.82 7.5C17.27 7.57 16.88 8.06 16.94 8.61C16.98 8.9 17 9.2 17 9.5C17 9.73 16.98 9.96 16.96 10.19C16.91 10.74 17.32 11.23 17.87 11.28C18.42 11.33 18.9 10.92 18.95 10.37C18.98 10.08 19 9.79 19 9.5C19 9.12 18.97 8.75 18.93 8.38ZM14.5 9.82C14.88 9.82 15.22 10.04 15.39 10.38L16.48 12.59L18.92 12.94C19.3 13 19.61 13.26 19.73 13.62C19.84 13.99 19.75 14.38 19.47 14.65L17.71 16.37L18.13 18.79C18.19 19.17 18.04 19.55 17.73 19.77C17.42 20 17.01 20.03 16.67 19.85L14.5 18.7L12.32 19.85C11.98 20.03 11.57 20 11.26 19.77C10.95 19.55 10.8 19.17 10.86 18.79L11.28 16.37L9.52 14.65C9.24 14.38 9.15 13.99 9.26 13.62C9.38 13.26 9.69 13 10.07 12.94L12.51 12.59L13.6 10.38C13.77 10.04 14.11 9.82 14.5 9.82ZM14.5 13.08L14.07 13.95C13.92 14.24 13.64 14.45 13.32 14.49L12.36 14.63L13.05 15.3C13.29 15.53 13.4 15.86 13.34 16.19L13.18 17.14L14.03 16.69C14.32 16.53 14.67 16.53 14.96 16.69L15.81 17.14L15.65 16.19C15.59 15.86 15.7 15.53 15.94 15.3L16.63 14.63L15.67 14.49C15.35 14.45 15.07 14.24 14.92 13.95L14.5 13.08Z" fill="#1F1F22" fill-opacity="1.000000" fill-rule="evenodd"/>
</svg>
