<svg width="32" height="32" viewBox="0 0 32 32" fill="none" xmlns="http://www.w3.org/2000/svg">
<path d="M23 18C23.5523 18 24 18.4477 24 19V22H27C27.5523 22 28 22.4477 28 23C28 23.5523 27.5523 24 27 24H24V27C24 27.5523 23.5523 28 23 28C22.4477 28 22 27.5523 22 27V24H19C18.4477 24 18 23.5523 18 23C18 22.4477 18.4477 22 19 22H22V19C22 18.4477 22.4477 18 23 18Z" fill="#1F1F22"/>
<path d="M25 6C26.6569 6 28 7.34315 28 9V16C28 16.5523 27.5523 17 27 17C26.4477 17 26 16.5523 26 16V9C26 8.44771 25.5523 8 25 8H7C6.44772 8 6 8.44772 6 9V21C6 21.5523 6.44772 22 7 22H14C14.5523 22 15 22.4477 15 23C15 23.5523 14.5523 24 14 24H7C5.34315 24 4 22.6569 4 21V9C4 7.34315 5.34315 6 7 6H25Z" fill="#1F1F22"/>
<path d="M22 11C22.5523 11 23 11.4477 23 12C23 12.5523 22.5523 13 22 13H10C9.44772 13 9 12.5523 9 12C9 11.4477 9.44772 11 10 11H22Z" fill="#1F1F22"/>
</svg>
