<svg width="20" height="20" viewBox="0 0 20 20" fill="none" xmlns="http://www.w3.org/2000/svg">
<path d="M8.66076 7.07445C7.04442 6.71027 5.4389 7.72535 5.07472 9.34169C4.71055 10.958 5.72563 12.5635 7.34196 12.9277C8.9583 13.2919 10.5638 12.2768 10.928 10.6605C11.0494 10.1217 11.5846 9.78334 12.1233 9.90473C12.6621 10.0261 13.0005 10.5613 12.8791 11.1001C12.2721 13.794 9.59626 15.4858 6.90237 14.8788C4.20847 14.2719 2.51668 11.596 3.12363 8.90209C3.73059 6.2082 6.40646 4.5164 9.10035 5.12336C9.63913 5.24475 9.97749 5.77992 9.8561 6.3187C9.73471 6.85748 9.19953 7.19584 8.66076 7.07445Z" fill="#1F1F22"/>
<path d="M11.77 7.36077C12.1236 7.78504 12.0663 8.41561 11.642 8.76917L8.64199 11.2692C8.24466 11.6003 7.66041 11.5738 7.29469 11.2081L6.29469 10.2081C5.90417 9.81753 5.90417 9.18437 6.29469 8.79385C6.68522 8.40332 7.31838 8.40332 7.70891 8.79385L8.06317 9.14811L10.3616 7.23273C10.7859 6.87917 11.4165 6.93649 11.77 7.36077Z" fill="#1F1F22"/>
<path fill-rule="evenodd" clip-rule="evenodd" d="M19.4247 2.59259L16.0003 8.99995L19.7837 16.1465C20.1215 16.7844 19.6928 17.559 18.9729 17.6117L1.07324 18.9214C0.493765 18.9638 0.000273697 18.5051 0.000263222 17.9241L1.65528e-10 3.32501C-9.47843e-06 2.79929 0.407053 2.36333 0.931542 2.32734L18.4743 1.12358C19.2582 1.06979 19.795 1.89958 19.4247 2.59259ZM16.8096 3.24251L13.7349 8.99551L17.2996 15.7288L2.00024 16.8483L2.00002 4.25872L16.8096 3.24251Z" fill="#1F1F22"/>
</svg>
