<svg width="20" height="20" viewBox="0 0 20 20" fill="none" xmlns="http://www.w3.org/2000/svg">
<path d="M5.5 2C6.05228 2 6.5 2.44772 6.5 3C6.5 3.55228 6.05228 4 5.5 4H3C2.44772 4 2 4.44772 2 5V13L2.00488 13.1025C2.05587 13.6086 2.48065 13.9999 2.99609 14H14.2451C14.7608 13.9999 15.1355 13.8306 15.3818 13.667C15.5067 13.584 15.5976 13.5026 15.6533 13.4473C15.6809 13.4198 15.6987 13.3993 15.707 13.3896C16.0413 12.9553 16.6643 12.8712 17.1025 13.2021C17.5432 13.535 17.6307 14.1618 17.2979 14.6025L16.5 14C17.2864 14.5939 17.298 14.602 17.2979 14.6025L17.2959 14.6055C17.2951 14.6066 17.2939 14.6082 17.293 14.6094C17.2911 14.6118 17.2884 14.6142 17.2861 14.6172C17.2815 14.6231 17.2768 14.6308 17.2705 14.6387C17.2579 14.6544 17.2411 14.6738 17.2217 14.6963C17.1829 14.7412 17.13 14.7991 17.0635 14.8652C16.9307 14.9973 16.7395 15.1661 16.4883 15.333C15.9821 15.6693 15.229 15.9999 14.2451 16C13.7313 16 12.0251 16 10 16V18H13C13.5523 18 14 18.4477 14 19C14 19.5523 13.5523 20 13 20H5C4.44772 20 4 19.5523 4 19C4 18.4477 4.44772 18 5 18H8V16C6.1835 16 4.33733 16 2.99609 16C1.38871 15.9999 0.083956 14.7372 0.00390625 13.1543L0 13V5C1.28853e-07 3.34315 1.34315 2 3 2H5.5Z" fill="#1F1F22"/>
<path fill-rule="evenodd" clip-rule="evenodd" d="M14 0C17.3137 0 20 2.68629 20 6C20 9.31371 17.3137 12 14 12C10.6863 12 8 9.31371 8 6C8 2.68629 10.6863 0 14 0ZM13.0449 7C13.1217 7.86299 13.2927 8.60915 13.5146 9.16406C13.6677 9.54671 13.8248 9.78937 13.9482 9.91992C13.9678 9.94059 13.9858 9.95533 14 9.96777C14.0142 9.95533 14.0322 9.94059 14.0518 9.91992C14.1752 9.78937 14.3323 9.54671 14.4854 9.16406C14.7073 8.60915 14.8783 7.86299 14.9551 7H13.0449ZM10.126 7C10.3293 7.79001 10.7685 8.48489 11.3633 9.00684C11.202 8.39622 11.0927 7.717 11.0391 7H10.126ZM16.9609 7C16.9073 7.71709 16.797 8.39616 16.6357 9.00684C17.2308 8.48483 17.6706 7.79025 17.874 7H16.9609ZM11.3633 2.99219C10.7683 3.51419 10.3294 4.20978 10.126 5H11.0391C11.0927 4.28265 11.2019 3.60303 11.3633 2.99219ZM13.9482 2.08008C13.8248 2.21063 13.6677 2.45329 13.5146 2.83594C13.2927 3.39085 13.1217 4.13701 13.0449 5H14.9551C14.8783 4.13701 14.7073 3.39085 14.4854 2.83594C14.3323 2.45329 14.1752 2.21063 14.0518 2.08008C14.032 2.05917 14.0143 2.04375 14 2.03125C13.9857 2.04375 13.968 2.05917 13.9482 2.08008ZM16.6357 2.99219C16.7971 3.6031 16.9072 4.28255 16.9609 5H17.874C17.6706 4.20953 17.231 3.51424 16.6357 2.99219Z" fill="#1F1F22"/>
</svg>
