<svg width="20" height="20" viewBox="0 0 20 20" fill="none" xmlns="http://www.w3.org/2000/svg">
<path fill-rule="evenodd" clip-rule="evenodd" d="M15.3529 9.51095C15.4993 9.48913 15.6495 9.5006 15.7923 9.54415L19.2923 10.6145C19.7127 10.743 20.0003 11.1309 20.0003 11.5705V13.511C20.0003 15.1504 19.5438 16.4239 18.7767 17.4621C18.0306 18.4717 17.0279 19.206 16.0413 19.841C15.7118 20.0529 15.2888 20.053 14.9593 19.841C13.9718 19.2054 12.9698 18.4695 12.2239 17.4592C11.4573 16.4207 11.0003 15.1477 11.0003 13.511V11.5705C11.0003 11.131 11.2881 10.7432 11.7083 10.6145L15.2083 9.54415L15.3529 9.51095ZM13.0003 12.3098V13.511C13.0003 14.7386 13.3313 15.5917 13.8333 16.2717C14.251 16.8373 14.8135 17.3177 15.5003 17.7961C16.1877 17.3177 16.7507 16.8387 17.1683 16.2736C17.6698 15.5949 18.0003 14.7421 18.0003 13.511V12.3098L15.5003 11.5451L13.0003 12.3098Z" fill="#1F1F22"/>
<path d="M8.00031 12.5002C8.5526 12.5002 9.00031 12.9479 9.00031 13.5002C9.00022 14.0524 8.55254 14.5002 8.00031 14.5002H1.00031C0.448259 14.5 0.000406187 14.0523 0.000312451 13.5002C0.000312451 12.948 0.448201 12.5004 1.00031 12.5002H8.00031Z" fill="#1F1F22"/>
<path d="M3.00031 5.50021C3.5526 5.50021 4.00031 5.94792 4.00031 6.50021V10.5002C4.00022 11.0524 3.55254 11.5002 3.00031 11.5002C2.44826 11.5 2.00041 11.0523 2.00031 10.5002V6.50021C2.00031 5.94805 2.4482 5.50041 3.00031 5.50021Z" fill="#1F1F22"/>
<path d="M7.00031 5.50021C7.5526 5.50021 8.00031 5.94792 8.00031 6.50021V10.5002C8.00022 11.0524 7.55254 11.5002 7.00031 11.5002C6.44826 11.5 6.00041 11.0523 6.00031 10.5002V6.50021C6.00031 5.94805 6.4482 5.50041 7.00031 5.50021Z" fill="#1F1F22"/>
<path d="M11.0003 5.50021C11.5526 5.50021 12.0003 5.94792 12.0003 6.50021V8.00021C12.0002 8.55241 11.5525 9.00021 11.0003 9.00021C10.4483 9.00001 10.0004 8.55229 10.0003 8.00021V6.50021C10.0003 5.94805 10.4482 5.50041 11.0003 5.50021Z" fill="#1F1F22"/>
<path d="M6.68977 0.0500139C6.92512 -0.0269175 7.18232 -0.0144152 7.41047 0.0880998L13.4105 2.78927C13.9141 3.01596 14.1391 3.60792 13.9124 4.11154C13.6856 4.61489 13.0936 4.83905 12.5902 4.61251L7.00031 2.09689L1.41047 4.61251C0.906976 4.83881 0.314824 4.61496 0.0882031 4.11154C-0.138417 3.60805 0.0868161 3.01609 0.590156 2.78927L6.59016 0.0880998L6.68977 0.0500139Z" fill="#1F1F22"/>
</svg>
