<svg width="32" height="32" viewBox="0 0 32 32" fill="none" xmlns="http://www.w3.org/2000/svg">
<path d="M14 5C14.5523 5 15 5.44772 15 6C15 6.55228 14.5523 7 14 7H10C9.44772 7 9 7.44772 9 8V25C9 25.5523 9.44772 26 10 26H22C22.5523 26 23 25.5523 23 25V17C23 16.4477 23.4477 16 24 16C24.5523 16 25 16.4477 25 17V25C25 26.6569 23.6569 28 22 28H10C8.34315 28 7 26.6569 7 25V8C7 6.34315 8.34315 5 10 5H14Z" fill="#1F1F22"/>
<path d="M20 21C20.5523 21 21 21.4477 21 22C21 22.5523 20.5523 23 20 23H12C11.4477 23 11 22.5523 11 22C11 21.4477 11.4477 21 12 21H20Z" fill="#1F1F22"/>
<path d="M16 17C16.5523 17 17 17.4477 17 18C17 18.5523 16.5523 19 16 19H12C11.4477 19 11 18.5523 11 18C11 17.4477 11.4477 17 12 17H16Z" fill="#1F1F22"/>
<path d="M14 13C14.5523 13 15 13.4477 15 14C15 14.5523 14.5523 15 14 15H12C11.4477 15 11 14.5523 11 14C11 13.4477 11.4477 13 12 13H14Z" fill="#1F1F22"/>
<path d="M25.293 5.29297C25.6835 4.90251 26.3165 4.90246 26.707 5.29297C27.0975 5.68347 27.0975 6.31651 26.707 6.70703L19.707 13.707C19.3165 14.0976 18.6835 14.0975 18.293 13.707C17.9024 13.3165 17.9024 12.6835 18.293 12.293L25.293 5.29297Z" fill="#1F1F22"/>
<path d="M25.5 11C26.3284 11 27 11.6716 27 12.5C27 13.3284 26.3284 14 25.5 14C24.6716 14 24 13.3284 24 12.5C24 11.6716 24.6716 11 25.5 11Z" fill="#1F1F22"/>
<path d="M19.5 5C20.3284 5 21 5.67157 21 6.5C21 7.32843 20.3284 8 19.5 8C18.6716 8 18 7.32843 18 6.5C18 5.67157 18.6716 5 19.5 5Z" fill="#1F1F22"/>
</svg>
