<svg width="20" height="20" viewBox="0 0 20 20" fill="none" xmlns="http://www.w3.org/2000/svg">
<path d="M6.5 5.54444e-05C7.05226 5.54444e-05 7.49996 0.447803 7.5 1.00006C7.49999 1.55234 7.05228 2.00006 6.5 2.00006H4C3.44774 2.00006 3.00004 2.4478 3 3.00006V17.0001C3.00001 17.5523 3.44772 18.0001 4 18.0001H14C14.5523 18.0001 15 17.5523 15 17.0001V12.5001C15 11.9478 15.4477 11.5001 16 11.5001C16.5523 11.5001 17 11.9478 17 12.5001V17.0001C17 18.6569 15.6568 20.0001 14 20.0001H4C2.34315 20.0001 1.00001 18.6569 1 17.0001V3.00006C1.00004 1.34323 2.34317 5.54525e-05 4 5.54444e-05H6.5Z" fill="#1F1F22"/>
<path d="M12 14.0001C12.5523 14.0001 13 14.4478 13 15.0001C13 15.5523 12.5523 16.0001 12 16.0001H6C5.44772 16.0001 5.00001 15.5523 5 15.0001C5.00004 14.4478 5.44774 14.0001 6 14.0001H12Z" fill="#1F1F22"/>
<path d="M9 10.0001C9.55226 10.0001 9.99996 10.4478 10 11.0001C9.99999 11.5523 9.55228 12.0001 9 12.0001H6C5.44772 12.0001 5.00001 11.5523 5 11.0001C5.00004 10.4478 5.44774 10.0001 6 10.0001H9Z" fill="#1F1F22"/>
<path fill-rule="evenodd" clip-rule="evenodd" d="M11.8428 0.485407C12.127 0.0121036 12.7414 -0.141342 13.2148 0.142634C13.6882 0.426846 13.8417 1.04123 13.5576 1.5147L12.9668 2.50006H16.0332L15.4424 1.5147C15.1584 1.0412 15.3117 0.426787 15.7852 0.142634C16.2586 -0.141451 16.873 0.0120733 17.1572 0.485407L18.3574 2.48541C18.3602 2.4901 18.3625 2.49534 18.3652 2.50006H19C19.3318 2.50006 19.6421 2.66478 19.8281 2.93951C20.014 3.21416 20.0518 3.56318 19.9287 3.87115L17.9287 8.87115C17.7768 9.2508 17.4089 9.50006 17 9.50006H12C11.5911 9.50003 11.2231 9.25078 11.0713 8.87115L9.07129 3.87115C8.94827 3.5632 8.98598 3.21414 9.17188 2.93951C9.35789 2.66476 9.66821 2.50008 10 2.50006H10.6348C10.6375 2.4953 10.6397 2.49013 10.6426 2.48541L11.8428 0.485407ZM12.6768 7.50006H16.3232L17.5225 4.50006H11.4775L12.6768 7.50006Z" fill="#1F1F22"/>
<path d="M7 6.00006C7.55227 6.00006 7.99997 6.4478 8 7.00006C8 7.55234 7.55228 8.00006 7 8.00006H6C5.44772 8.00006 5 7.55234 5 7.00006C5.00003 6.4478 5.44773 6.00006 6 6.00006H7Z" fill="#1F1F22"/>
</svg>
