<svg width="32" height="32" viewBox="0 0 32 32" fill="none" xmlns="http://www.w3.org/2000/svg">
<path fill-rule="evenodd" clip-rule="evenodd" d="M18.9394 4.63906C20.0646 4.3043 21.2089 4.63796 21.8369 4.96426C21.8942 4.99404 21.9484 5.02946 21.999 5.06972C22.3989 5.38849 22.7106 5.80449 22.7958 6.37441C22.8417 6.68141 22.8131 6.98744 22.7538 7.2748C22.9098 7.54181 23.0092 7.81638 23.0742 8.06191C23.3417 7.66784 23.6179 7.26787 23.8701 6.90469C23.9864 6.73704 24.097 6.57838 24.1982 6.43301C24.5104 5.98426 24.739 5.65462 24.8203 5.52676C25.2211 4.89595 25.9973 4.70762 26.6308 4.85195C27.3423 5.01405 27.919 5.56084 28.2421 6.37441C28.5181 7.06946 28.8391 8.41559 28.955 9.99453C29.0716 11.5831 28.9889 13.5002 28.3837 15.307C27.8107 17.0178 27.1741 18.1066 26.5038 18.8295C25.815 19.5724 25.1471 19.8622 24.7011 20.0541C24.1546 20.2892 23.5248 20.3171 22.8661 20.2064C22.8802 20.3775 22.8763 20.5542 22.8525 20.7357C22.7882 21.2256 22.5867 21.6951 22.3085 22.1557C22.1819 22.3653 21.9828 22.5216 21.749 22.5941C21.3782 22.709 21.0453 22.8382 20.8222 22.932C20.9041 23.0776 20.9744 23.2303 21.0302 23.39C21.2797 24.1038 21.2105 24.8799 20.748 25.5873C20.5117 25.9486 20.1783 26.2082 19.8788 26.3949C19.5716 26.5865 19.2338 26.7416 18.9208 26.8686C18.606 26.9962 18.2866 27.1074 18.0175 27.2006C17.9181 27.235 17.8277 27.2665 17.746 27.2953C17.5722 27.6427 17.3433 27.913 17.0771 28.1107C16.7052 28.3869 16.3385 28.4632 16.1406 28.4906C16.0933 28.4972 16.0463 28.5005 15.9999 28.5004C15.9536 28.5005 15.9065 28.4971 15.8593 28.4906C15.6614 28.4632 15.2947 28.387 14.9228 28.1107C14.6566 27.913 14.4277 27.6427 14.2538 27.2953C14.1721 27.2665 14.0818 27.2351 13.9824 27.2006C13.7133 27.1074 13.3938 26.9962 13.079 26.8686C12.7661 26.7416 12.4282 26.5865 12.121 26.3949C11.8216 26.2082 11.4892 25.9486 11.2529 25.5873C10.7901 24.8798 10.7202 24.1039 10.9697 23.39C11.0255 23.2303 11.0958 23.0776 11.1777 22.932C10.9547 22.8382 10.6225 22.709 10.2519 22.5941C10.0179 22.5216 9.81803 22.3654 9.69134 22.1557C9.41321 21.6951 9.21164 21.2256 9.1474 20.7357C9.12361 20.5542 9.11964 20.3775 9.13373 20.2064C8.47511 20.3171 7.84519 20.2893 7.29877 20.0541C6.8528 19.8622 6.18483 19.5724 5.49603 18.8295C4.82581 18.1066 4.19012 17.0176 3.61713 15.307C3.01195 13.5002 2.92825 11.5831 3.04486 9.99453C3.16079 8.41564 3.48175 7.06948 3.75775 6.37441C4.08088 5.56091 4.65768 5.0141 5.36908 4.85195C6.00262 4.70761 6.77872 4.89595 7.17963 5.52676C7.26086 5.65458 7.49025 5.98398 7.80267 6.43301C7.90383 6.57839 8.01343 6.73703 8.12982 6.90469C8.38196 7.26788 8.65817 7.66782 8.92572 8.06191C8.99064 7.81641 9.0901 7.54177 9.24603 7.2748C9.1868 6.98746 9.15822 6.68139 9.20404 6.37441C9.28925 5.80453 9.60104 5.38848 10.0009 5.06972C10.0514 5.02949 10.1058 4.99403 10.163 4.96426C10.791 4.63793 11.9361 4.30414 13.0615 4.63906C13.8342 4.86918 14.2597 5.44139 14.4404 5.99844C14.5113 6.21703 14.5484 6.44065 14.5585 6.65566C14.9832 6.95365 15.3781 7.31622 15.7119 7.67129C15.8106 7.77634 15.9068 7.88471 15.9999 7.99355C16.0931 7.88471 16.1893 7.77634 16.288 7.67129C16.6219 7.31608 17.0174 6.95373 17.4423 6.65566C17.4525 6.44065 17.4886 6.21703 17.5595 5.99844C17.7402 5.44128 18.1664 4.86911 18.9394 4.63906ZM12.4902 6.55605C12.0685 6.43067 11.5363 6.53566 11.1816 6.69277C11.1818 6.71193 11.1837 6.74421 11.1913 6.79336C11.2058 6.88569 11.2356 7.01222 11.29 7.18984C11.3965 7.53854 11.3049 7.91763 11.0507 8.1791C10.978 8.25401 10.9015 8.39333 10.8486 8.61562C10.7972 8.8314 10.7841 9.05658 10.7841 9.22597C10.7841 9.32157 10.786 9.3965 10.7939 9.46816C10.8003 9.52622 10.8097 9.56859 10.8193 9.59804C10.8634 9.54729 10.925 9.47803 10.996 9.41054C11.1616 9.25335 11.4922 8.99453 11.9824 8.99453C12.5535 8.99463 12.9178 9.35852 13.0829 9.56484C13.2674 9.7953 13.3961 10.0635 13.4843 10.2885C13.6563 10.7273 13.7752 11.2673 13.7753 11.6488C13.7753 11.6703 13.7764 11.7022 13.7773 11.7416C13.7817 11.9407 13.7903 12.3422 13.7372 12.6723C13.7043 12.8772 13.6316 13.1886 13.4296 13.4691C13.189 13.8033 12.8009 14.0383 12.3183 14.0385C11.9881 14.0385 11.7063 13.9054 11.5536 13.8246C11.37 13.7274 11.1855 13.6012 11.0117 13.4701C10.6612 13.2058 10.2724 12.8555 9.89447 12.4818C9.14462 11.7404 8.34219 10.8127 7.87689 10.0951C7.47449 9.47458 6.94903 8.7105 6.48724 8.04531C6.38635 7.89998 6.28681 7.75726 6.19232 7.62148C6.00705 7.35526 5.83939 7.11394 5.7099 6.92519C5.68125 6.9704 5.64837 7.03157 5.61615 7.11269C5.43436 7.57067 5.14531 8.70639 5.03998 10.141C4.9353 11.567 5.01997 13.1974 5.51361 14.6713C6.03044 16.2143 6.54713 17.0218 6.96283 17.4701C7.35984 17.8982 7.71173 18.0545 8.08978 18.2172C8.19445 18.2621 8.48622 18.3223 9.0722 18.1771C9.64517 18.0352 10.4105 17.7179 11.3808 17.143C11.8237 16.8807 12.3932 16.9981 12.6972 17.4135C13.0011 17.8288 12.9404 18.4066 12.5566 18.7494C12.1608 19.1026 11.8527 19.3794 11.6113 19.6303C11.3695 19.8816 11.2446 20.057 11.1816 20.1879C11.1296 20.2959 11.1178 20.377 11.1308 20.476C11.1409 20.5529 11.1701 20.6621 11.2392 20.8139C11.5747 20.931 11.8662 21.0497 12.0732 21.14C12.1767 21.1336 12.3062 21.1193 12.4345 21.0941C12.4706 21.087 12.5027 21.0788 12.5312 21.0717C12.5645 20.9812 12.6272 20.8149 12.6855 20.6947C12.7685 20.5235 12.9555 20.1866 13.3476 19.9896C13.7819 19.7715 14.2203 19.8405 14.5478 19.9701C14.5939 19.9884 14.6387 20.0106 14.6816 20.0355C14.8805 20.151 15.0864 20.3439 15.1992 20.6342C15.3083 20.9154 15.2884 21.1798 15.2411 21.3695C15.1572 21.7068 14.9478 21.9773 14.8046 22.1439C14.4873 22.5132 13.991 22.9297 13.4462 23.348C13.0982 23.6153 12.9209 23.8685 12.8574 24.0502C12.8096 24.1871 12.8089 24.3137 12.9257 24.4926C12.9387 24.5124 13.0022 24.588 13.1796 24.6986C13.3492 24.8043 13.5695 24.909 13.831 25.015C14.091 25.1205 14.3637 25.216 14.6376 25.3109L14.6767 25.3246C14.924 25.4102 15.1927 25.5031 15.4111 25.5961C15.6856 25.713 15.8939 25.9467 15.9785 26.2328C15.9855 26.2568 15.9928 26.2792 15.9999 26.2992C16.0071 26.2792 16.0143 26.2568 16.0214 26.2328C16.106 25.9467 16.3143 25.7131 16.5888 25.5961C16.8072 25.5031 17.0758 25.4103 17.3232 25.3246L17.3632 25.3109C17.6371 25.216 17.909 25.1204 18.1689 25.015C18.4306 24.9089 18.6516 24.8044 18.8212 24.6986C18.9986 24.588 19.0612 24.5124 19.0742 24.4926C19.1911 24.3136 19.1904 24.1871 19.1425 24.0502C19.079 23.8685 18.9026 23.6153 18.5546 23.348C18.0097 22.9296 17.5126 22.5133 17.1953 22.1439C17.0521 21.9773 16.8437 21.7067 16.7597 21.3695C16.7125 21.1798 16.6916 20.9154 16.8007 20.6342C16.9134 20.344 17.1194 20.151 17.3183 20.0355C17.3612 20.0106 17.4059 19.9884 17.4521 19.9701C17.7795 19.8404 18.218 19.7715 18.6523 19.9896C19.0443 20.1866 19.2313 20.5235 19.3144 20.6947C19.3727 20.8149 19.4354 20.9812 19.4687 21.0717C19.4972 21.0788 19.5293 21.087 19.5654 21.0941C19.6935 21.1193 19.8232 21.1336 19.9267 21.14C20.1338 21.0497 20.426 20.9311 20.7617 20.8139C20.8306 20.6623 20.8589 20.5528 20.8691 20.476C20.882 20.377 20.8703 20.2959 20.8183 20.1879C20.7553 20.057 20.6304 19.8815 20.3886 19.6303C20.1472 19.3794 19.839 19.1025 19.4433 18.7494C19.0596 18.4066 18.9989 17.8288 19.3027 17.4135C19.6066 16.9981 20.1762 16.8808 20.6191 17.143C21.5892 17.7178 22.3547 18.0352 22.9277 18.1771C23.5142 18.3224 23.8067 18.2621 23.9111 18.2172C24.2891 18.0545 24.641 17.8983 25.038 17.4701C25.4537 17.0217 25.9704 16.2143 26.4872 14.6713C26.9808 13.1975 27.0655 11.567 26.9609 10.141C26.8555 8.70628 26.5655 7.57063 26.3837 7.11269C26.3516 7.03178 26.3195 6.97037 26.291 6.92519C26.1614 7.11398 25.9929 7.35514 25.8076 7.62148C25.7131 7.75722 25.6145 7.90002 25.5136 8.04531C25.0518 8.71058 24.5255 9.47447 24.123 10.0951C23.6578 10.8125 22.8561 11.7405 22.1064 12.4818C21.7284 12.8556 21.3387 13.2058 20.9882 13.4701C20.8143 13.6013 20.63 13.7274 20.4462 13.8246C20.2936 13.9054 20.0126 14.0384 19.6826 14.0385C19.1997 14.0385 18.811 13.8033 18.5703 13.4691C18.3683 13.1886 18.2956 12.8772 18.2626 12.6723C18.2096 12.3422 18.2182 11.9407 18.2226 11.7416C18.2235 11.7022 18.2245 11.6703 18.2245 11.6488C18.2246 11.2673 18.3436 10.7273 18.5156 10.2885C18.6038 10.0634 18.7325 9.79532 18.9169 9.56484C19.082 9.35856 19.4464 8.99473 20.0175 8.99453C20.5077 8.99453 20.8383 9.25335 21.0038 9.41054C21.0749 9.47804 21.1365 9.54727 21.1806 9.59804C21.1901 9.56859 21.1996 9.52622 21.206 9.46816C21.2139 9.39649 21.2158 9.32158 21.2158 9.22597C21.2158 9.05656 21.2027 8.83142 21.1513 8.61562C21.0983 8.39322 21.0219 8.25398 20.9492 8.1791C20.695 7.91765 20.6034 7.53852 20.7099 7.18984C20.7643 7.01222 20.7941 6.88569 20.8085 6.79336C20.8162 6.74419 20.819 6.71193 20.8193 6.69277C20.4645 6.53555 19.9316 6.43053 19.5097 6.55605C19.4961 6.56009 19.4888 6.56385 19.4853 6.56582C19.4824 6.56958 19.4722 6.58366 19.4619 6.61562C19.4483 6.65759 19.4386 6.71502 19.4384 6.77969C19.4382 6.84508 19.4479 6.89302 19.4531 6.91152C19.5853 7.37448 19.3692 7.86644 18.9384 8.08144C18.5831 8.25866 18.1531 8.6084 17.746 9.0414C17.3416 9.4717 17.0326 9.90614 16.8886 10.185C16.717 10.5174 16.374 10.726 15.9999 10.726C15.6259 10.7259 15.2829 10.5173 15.1113 10.185C14.9673 9.90616 14.6592 9.47162 14.2548 9.0414C13.8477 8.60828 13.4168 8.2587 13.0615 8.08144C12.6308 7.8664 12.4146 7.37442 12.5468 6.91152C12.552 6.89307 12.5616 6.84515 12.5615 6.77969C12.5613 6.71499 12.5516 6.65759 12.538 6.61562C12.5277 6.58366 12.5175 6.56958 12.5146 6.56582C12.511 6.56384 12.5035 6.56003 12.4902 6.55605Z" fill="#1F1F22"/>
<path d="M2.56927 19.7006C2.97639 19.3274 3.60917 19.355 3.98236 19.7621L9.48236 25.7621C9.85534 26.1692 9.82788 26.8021 9.42084 27.1752C9.01376 27.5481 8.3809 27.5206 8.00775 27.1137L2.50775 21.1137C2.13459 20.7066 2.16227 20.0738 2.56927 19.7006Z" fill="#1F1F22"/>
<path fill-rule="evenodd" clip-rule="evenodd" d="M26.412 21.2523C28.0688 21.2524 29.412 22.5955 29.412 24.2523C29.4119 25.909 28.0687 27.2523 26.412 27.2523C24.7553 27.2523 23.4122 25.909 23.412 24.2523C23.412 22.5955 24.7552 21.2523 26.412 21.2523ZM26.412 23.2523C25.8598 23.2523 25.412 23.7001 25.412 24.2523C25.4122 24.8045 25.8599 25.2523 26.412 25.2523C26.9642 25.2523 27.4119 24.8044 27.412 24.2523C27.412 23.7001 26.9643 23.2524 26.412 23.2523Z" fill="#1F1F22"/>
</svg>
