<svg width="20" height="20" viewBox="0 0 20 20" fill="none" xmlns="http://www.w3.org/2000/svg">
<path fill-rule="evenodd" clip-rule="evenodd" d="M10.9282 4.41899C11.7051 2.47885 13.5561 1.96705 14.9331 2.05921C16.6727 2.17563 18.4476 4.041 17.9028 7.48856C17.7686 8.33818 17.3488 9.33619 16.7019 10.4139C16.061 11.4816 15.2299 12.5739 14.3328 13.6038C12.7898 15.3752 11.1103 16.8957 9.97947 17.7413C8.79895 16.9091 7.12011 15.3923 5.58993 13.6093C3.78977 11.5118 2.3755 9.25151 2.09695 7.48856C1.55222 4.041 3.32706 2.17563 5.06667 2.05921C6.4437 1.96705 8.29471 2.47885 9.07155 4.41899C9.2235 4.79847 9.59112 5.04727 9.9999 5.04727C10.4087 5.04727 10.7763 4.79847 10.9282 4.41899ZM9.9999 2.09916C11.4326 0.377961 13.5883 -0.0352621 15.0667 0.0636754C18.3755 0.285114 20.5382 3.62438 19.8783 7.80069C19.6878 9.00652 19.1289 10.2567 18.4167 11.4432C17.6986 12.6396 16.7902 13.8276 15.8409 14.9174C13.9537 17.0839 11.8256 18.9516 10.5468 19.7868C10.2266 19.9959 9.81519 20.0041 9.48694 19.8079C8.07218 18.9622 5.93149 17.0783 4.07222 14.9119C2.2341 12.7701 0.492441 10.1486 0.121456 7.80069C-0.538416 3.62438 1.62433 0.285114 4.93312 0.0636754C6.41147 -0.0352621 8.56715 0.377961 9.9999 2.09916Z" fill="#1F1F22"/>
<path d="M11 6.99999C11 6.4477 10.5523 5.99999 10 5.99999C9.44775 5.99999 9.00004 6.4477 9.00004 6.99999V8.99999H7.00004C6.44775 8.99999 6.00004 9.4477 6.00004 9.99999C6.00004 10.5523 6.44775 11 7.00004 11H9.00004V13C9.00004 13.5523 9.44775 14 10 14C10.5523 14 11 13.5523 11 13V11H13C13.5523 11 14 10.5523 14 9.99999C14 9.4477 13.5523 8.99999 13 8.99999H11V6.99999Z" fill="#1F1F22"/>
</svg>
