<svg width="20" height="20" viewBox="0 0 20 20" fill="none" xmlns="http://www.w3.org/2000/svg">
<path d="M10 3.50036C10.5523 3.50036 11 3.94808 11 4.50036V4.6947C11.5862 4.91937 12.0048 5.29649 12.3018 5.59509C12.691 5.98668 12.6893 6.61977 12.2979 7.00915C11.9063 7.39831 11.2732 7.39663 10.8838 7.00524C10.5413 6.66079 10.2962 6.50036 9.93066 6.50036C9.69122 6.50046 9.38886 6.61754 9.19629 6.82067C9.04512 6.98033 8.93101 7.21741 9.04785 7.63024C9.08669 7.76692 9.17456 7.89567 9.41211 8.05114C9.68119 8.22721 10.0186 8.36278 10.4961 8.56188C11.29 8.89293 12.7321 9.46982 12.9727 11.1049C12.9742 11.1153 12.9754 11.1266 12.9766 11.1371C13.114 12.3414 12.6243 13.2344 11.9297 13.7865C11.6394 14.0171 11.3174 14.1822 11 14.2972V14.5004C10.9998 15.0525 10.5522 15.5004 10 15.5004C9.44784 15.5004 9.0002 15.0525 9 14.5004V14.3871C8.28506 14.2097 7.70068 13.8376 7.27734 13.3783C6.90325 12.9723 6.92932 12.3395 7.33496 11.9652C7.74107 11.591 8.37378 11.6168 8.74805 12.0228C8.98094 12.2755 9.36693 12.5003 9.93066 12.5004C10.1 12.5004 10.4362 12.4191 10.6855 12.2211C10.8764 12.0694 11.0383 11.8409 10.9912 11.3832C10.9319 11.0151 10.671 10.8014 9.72656 10.4076C9.32935 10.2419 8.77872 10.0275 8.31641 9.72497C7.82284 9.40192 7.33542 8.92125 7.12402 8.17614C6.81075 7.07083 7.11762 6.10678 7.74512 5.4447C8.09676 5.07376 8.53843 4.80985 9 4.65661V4.50036C9 3.94808 9.44771 3.50036 10 3.50036Z" fill="#1F1F22"/>
<path fill-rule="evenodd" clip-rule="evenodd" d="M9.84961 0.0120799C9.99909 -0.0106661 10.1523 0.000811752 10.2979 0.0462596L18.2979 2.54626C18.7153 2.67675 19 3.06301 19 3.50036V8.02185C18.9999 11.1311 18.0148 13.4847 16.4141 15.3802C14.8427 17.2409 12.7098 18.6218 10.4912 19.8715C10.1866 20.0429 9.81337 20.0429 9.50879 19.8715C7.2894 18.6214 5.15705 17.2374 3.58594 15.3754C2.08574 13.5973 1.12587 11.4178 1.01172 8.59509L1 8.02185V3.50036L1.0127 3.33923C1.07276 2.97039 1.33686 2.66046 1.70215 2.54626L9.70215 0.0462596L9.84961 0.0120799ZM3 4.23474V8.02185L3.00977 8.50622C3.10413 10.8833 3.89591 12.6412 5.11426 14.0853C6.3419 15.5403 8.03088 16.708 10 17.8461C11.9696 16.7081 13.6583 15.5435 14.8857 14.0902C16.1849 12.5517 16.9999 10.6538 17 8.02185V4.23474L10 2.04724L3 4.23474Z" fill="#1F1F22"/>
</svg>
