<svg width="32" height="32" viewBox="0 0 32 32" fill="none" xmlns="http://www.w3.org/2000/svg">
<path fill-rule="evenodd" clip-rule="evenodd" d="M23.8555 16.0107C23.9994 15.9897 24.1467 15.9999 24.2871 16.042L29.2871 17.542C29.7101 17.6689 30 18.0584 30 18.5V21.5C30 23.6321 29.3663 25.3073 28.3271 26.6719C27.307 28.0114 25.9292 29.0076 24.5146 29.8574C24.1979 30.0475 23.8021 30.0475 23.4854 29.8574C22.0701 29.0071 20.6927 28.0083 19.6729 26.668C18.6342 25.3029 18 23.6283 18 21.5V18.5C18 18.0584 18.2899 17.6689 18.7129 17.542L23.7129 16.042L23.8555 16.0107ZM20 19.2441V21.5C20 23.191 20.4909 24.4401 21.2646 25.457C21.953 26.3617 22.891 27.1153 24 27.8232C25.1095 27.1154 26.0472 26.3636 26.7354 25.46C27.5086 24.4445 28 23.1955 28 21.5V19.2441L24 18.0439L20 19.2441Z" fill="#1F1F22"/>
<path d="M25 6C26.6569 6 28 7.34315 28 9V13C28 13.5523 27.5523 14 27 14C26.4477 14 26 13.5523 26 13V9C26 8.44771 25.5523 8 25 8H7C6.44772 8 6 8.44772 6 9V21C6 21.5523 6.44772 22 7 22H14C14.5523 22 15 22.4477 15 23C15 23.5523 14.5523 24 14 24H7C5.34315 24 4 22.6569 4 21V9C4 7.34315 5.34315 6 7 6H25Z" fill="#1F1F22"/>
<path d="M22 11C22.5523 11 23 11.4477 23 12C23 12.5523 22.5523 13 22 13H10C9.44772 13 9 12.5523 9 12C9 11.4477 9.44772 11 10 11H22Z" fill="#1F1F22"/>
</svg>
