<svg width="32" height="32" viewBox="0 0 32 32" fill="none" xmlns="http://www.w3.org/2000/svg">
<path d="M25.2927 18.293C25.6832 17.9025 26.3162 17.9025 26.7067 18.293C27.0973 18.6835 27.0973 19.3165 26.7067 19.707L19.7067 26.707C19.3162 27.0975 18.6832 27.0975 18.2927 26.707C17.9022 26.3165 17.9022 25.6835 18.2927 25.293L25.2927 18.293Z" fill="#1F1F22"/>
<path d="M25.4997 24C26.3281 24 26.9997 24.6716 26.9997 25.5C26.9997 26.3284 26.3281 27 25.4997 27C24.6714 26.9999 23.9997 26.3284 23.9997 25.5C23.9997 24.6716 24.6714 24.0001 25.4997 24Z" fill="#1F1F22"/>
<path d="M10.027 14.7314C10.7624 14.1192 11.6512 14.2446 12.2683 14.6748L12.3884 14.7656L12.3903 14.7666C13.3037 15.5105 14.7139 15.9999 15.9997 16C16.5519 16 16.9996 16.4478 16.9997 17C16.9996 17.5522 16.5519 18 15.9997 18C14.3138 17.9999 12.4834 17.3904 11.1921 16.3672C9.77701 17.6001 8.99983 19.2181 8.9997 20.9834C8.9997 21.1734 8.99948 21.3573 9.01142 21.542C9.02349 21.728 9.04549 21.8745 9.07685 21.9795C9.07909 21.9869 9.08256 21.9936 9.08467 22H15.9997C16.5519 22 16.9996 22.4478 16.9997 23C16.9996 23.5522 16.5519 24 15.9997 24H9.00166C8.51485 23.9998 8.0752 23.8367 7.73408 23.5186C7.41662 23.2224 7.25166 22.8557 7.16084 22.5518C6.98737 21.9708 6.9997 21.3064 6.9997 20.9834C6.99983 18.5226 8.12628 16.3204 10.0261 14.7324L10.027 14.7314Z" fill="#1F1F22"/>
<path d="M19.4997 18C20.3281 18 20.9997 18.6716 20.9997 19.5C20.9997 20.3284 20.3281 21 19.4997 21C18.6714 20.9999 17.9997 20.3284 17.9997 19.5C17.9997 18.6716 18.6714 18.0001 19.4997 18Z" fill="#1F1F22"/>
<path fill-rule="evenodd" clip-rule="evenodd" d="M15.9997 4C18.7611 4 20.9997 6.23858 20.9997 9C20.9997 11.7614 18.7611 14 15.9997 14C13.2384 13.9999 10.9997 11.7614 10.9997 9C10.9997 6.23864 13.2384 4.0001 15.9997 4ZM15.9997 6C14.3429 6.0001 12.9997 7.34321 12.9997 9C12.9997 10.6568 14.3429 11.9999 15.9997 12C17.6566 12 18.9997 10.6569 18.9997 9C18.9997 7.34315 17.6566 6 15.9997 6Z" fill="#1F1F22"/>
</svg>
