<svg width="20" height="20" viewBox="0 0 20 20" fill="none" xmlns="http://www.w3.org/2000/svg">
<path d="M7 2C7.55228 2 8 2.44772 8 3C8 3.55228 7.55228 4 7 4H3C2.44772 4 2 4.44772 2 5V13L2.00488 13.1025C2.05621 13.6067 2.48232 14 3 14H15C15.5523 14 16 13.5523 16 13V12.5C16 11.9477 16.4477 11.5 17 11.5C17.5523 11.5 18 11.9477 18 12.5V13C18 14.6569 16.6569 16 15 16H10V18H13C13.5523 18 14 18.4477 14 19C14 19.5523 13.5523 20 13 20H5C4.44772 20 4 19.5523 4 19C4 18.4477 4.44772 18 5 18H8V16H3C1.39489 16 0.0842144 14.7394 0.00390625 13.1543L0 13V5C1.28853e-07 3.34315 1.34315 2 3 2H7Z" fill="#1F1F22"/>
<path d="M5 6.5C5.55228 6.5 6 6.94772 6 7.5V11.5C6 12.0523 5.55228 12.5 5 12.5C4.44772 12.5 4 12.0523 4 11.5V7.5C4 6.94772 4.44772 6.5 5 6.5Z" fill="#1F1F22"/>
<path d="M9 8.5C9.55229 8.5 10 8.94771 10 9.5V11.5C10 12.0523 9.55229 12.5 9 12.5C8.44771 12.5 8 12.0523 8 11.5V9.5C8 8.94771 8.44771 8.5 9 8.5Z" fill="#1F1F22"/>
<path d="M13 10C13.5523 10 14 10.4477 14 11V11.5C14 12.0523 13.5523 12.5 13 12.5C12.4477 12.5 12 12.0523 12 11.5V11C12 10.4477 12.4477 10 13 10Z" fill="#1F1F22"/>
<path fill-rule="evenodd" clip-rule="evenodd" d="M14.5 0C16.9821 5.28083e-08 19 2.01779 19 4.5C19 5.37952 18.7452 6.19977 18.3076 6.89355L19.707 8.29297C20.0975 8.68347 20.0975 9.31651 19.707 9.70703C19.3165 10.0976 18.6835 10.0975 18.293 9.70703L16.8936 8.30762C16.1998 8.74518 15.3795 9 14.5 9C12.0179 9 10 6.9823 10 4.5C10 2.01779 12.0179 0 14.5 0ZM14.5 2C13.1224 2 12 3.12242 12 4.5C12 5.87771 13.1224 7 14.5 7C15.8776 7 17 5.87771 17 4.5C17 3.12242 15.8776 2 14.5 2Z" fill="#1F1F22"/>
</svg>
