<svg width="32" height="32" viewBox="0 0 32 32" fill="none" xmlns="http://www.w3.org/2000/svg">
<path fill-rule="evenodd" clip-rule="evenodd" d="M25.5 17C27.433 17 29 18.567 29 20.5C29 22.433 27.433 24 25.5 24H24V25H24.9883C25.5405 25 25.9882 25.4477 25.9883 26C25.9883 26.5522 25.5406 27 24.9883 27H24V28C24 28.5522 23.5523 29 23 29C22.4477 29 22 28.5522 22 28V27H21C20.4477 27 20 26.5522 20 26C20 25.4477 20.4477 25 21 25H22V24H21C20.4477 24 20 23.5522 20 23C20 22.4477 20.4477 22 21 22H22V18L22.0049 17.8974C22.0563 17.3933 22.4824 17 23 17H25.5ZM24 22H25.5C26.3284 22 27 21.3284 27 20.5C27 19.6716 26.3284 19 25.5 19H24V22Z" fill="#1F1F22"/>
<path d="M17 22C17.5523 22 18 22.4477 18 23C18 23.5522 17.5523 24 17 24H5C4.44772 24 4 23.5522 4 23C4.00004 22.4477 4.44774 22 5 22H17Z" fill="#1F1F22"/>
<path d="M8.00098 11C8.55301 11.0002 9.00093 11.4479 9.00098 12V19C9.00098 19.5521 8.55304 19.9997 8.00098 20C7.44869 20 7.00098 19.5522 7.00098 19V12C7.00102 11.4477 7.44872 11 8.00098 11Z" fill="#1F1F22"/>
<path d="M13.001 11C13.553 11.0002 14.0009 11.4479 14.001 12V19C14.001 19.5521 13.553 19.9997 13.001 20C12.4487 20 12.001 19.5522 12.001 19V12C12.001 11.4477 12.4487 11 13.001 11Z" fill="#1F1F22"/>
<path d="M18 11C18.5523 11 19 11.4477 19 12V19C19 19.5522 18.5523 20 18 20C17.4477 20 17 19.5522 17 19V12C17 11.4477 17.4477 11 18 11Z" fill="#1F1F22"/>
<path d="M12.6963 4.54683C12.9265 4.47348 13.1769 4.48624 13.4004 4.58394L21.4004 8.08394C21.9062 8.30526 22.1371 8.89445 21.916 9.40035C21.6947 9.90622 21.1055 10.1371 20.5996 9.91597L13 6.59078L5.40039 9.91597C4.89448 10.1371 4.30531 9.90622 4.08398 9.40035C3.86286 8.89444 4.09374 8.30526 4.59961 8.08394L12.5996 4.58394L12.6963 4.54683Z" fill="#1F1F22"/>
</svg>
