<svg width="20" height="20" viewBox="0 0 20 20" fill="none" xmlns="http://www.w3.org/2000/svg">
<path d="M12.445 12.168C12.9045 11.8616 13.5253 11.9859 13.8317 12.4453L15.5348 15H17.9997C18.552 15 18.9997 15.4477 18.9997 16C18.9997 16.5523 18.552 17 17.9997 17H15.5348L13.8317 19.5547C13.5253 20.0141 12.9045 20.1384 12.445 19.832C11.9857 19.5257 11.8614 18.9048 12.1677 18.4453L13.1305 17H10.9997C10.7345 17 10.4801 16.8945 10.2927 16.707L8.79265 15.207C8.40224 14.8165 8.40225 14.1835 8.79265 13.793C9.18315 13.4025 9.81618 13.4025 10.2067 13.793L11.4137 15H13.1305L12.1677 13.5547C11.8615 13.0952 11.9857 12.4743 12.445 12.168Z" fill="#1F1F22"/>
<path d="M3.8405 9.56445C4.54119 8.98131 5.38668 9.10384 5.96746 9.50879L6.07976 9.59277L6.08172 9.59473C6.74692 10.1365 7.7327 10.5329 8.7155 10.6387C9.26445 10.6977 9.66199 11.1913 9.6032 11.7402C9.54395 12.2889 9.05139 12.6857 8.50261 12.627C7.23945 12.4912 5.93742 12.0038 4.95086 11.248C3.75863 12.3168 3.10923 13.7016 3.10906 15.207C3.10906 15.3768 3.1085 15.5365 3.11882 15.6963C3.12698 15.8221 3.14357 15.9227 3.16082 16H6.99968C7.55178 16.0001 7.99948 16.4479 7.99968 17C7.99949 17.5521 7.55178 17.9999 6.99968 18H2.99968C2.5411 17.9999 2.12297 17.8454 1.79754 17.542C1.49577 17.2605 1.34148 16.9138 1.2575 16.6328C1.09778 16.0977 1.10906 15.4894 1.10906 15.207C1.10924 12.9838 2.12706 10.996 3.83855 9.56543L3.8405 9.56445Z" fill="#1F1F22"/>
<path fill-rule="evenodd" clip-rule="evenodd" d="M9.11101 0C11.5963 0 13.611 2.01472 13.611 4.5C13.611 6.98528 11.5963 9 9.11101 9C6.62581 8.99991 4.61101 6.98522 4.61101 4.5C4.61101 2.01478 6.62581 9.35436e-05 9.11101 0ZM9.11101 2C7.73038 2.00009 6.61101 3.11935 6.61101 4.5C6.61101 5.88065 7.73038 6.99991 9.11101 7C10.4917 7 11.611 5.88071 11.611 4.5C11.611 3.11929 10.4917 2 9.11101 2Z" fill="#1F1F22"/>
</svg>
