<svg width="20" height="20" viewBox="0 0 20 20" fill="none" xmlns="http://www.w3.org/2000/svg">
<path fill-rule="evenodd" clip-rule="evenodd" d="M16.0003 8.00015C18.2095 8.00015 20.0003 9.79101 20.0003 12.0002C20.0003 13.2631 19.4145 14.3882 18.5003 15.1212V19.0002C18.5003 19.3444 18.3233 19.665 18.0316 19.8478C17.7398 20.0305 17.3736 20.0498 17.0638 19.8996L16.0003 19.3839L14.9368 19.8996C14.627 20.0496 14.2608 20.0306 13.9691 19.8478C13.6775 19.665 13.5004 19.3444 13.5003 19.0002V15.1203C12.5867 14.3872 12.0004 13.2626 12.0003 12.0002C12.0003 9.79114 13.7913 8.00036 16.0003 8.00015ZM16.5003 15.9679C16.3366 15.9883 16.1696 16.0002 16.0003 16.0002C15.8309 16.0001 15.6642 15.9884 15.5003 15.9679V17.4035L15.5638 17.3732L15.6693 17.3293C15.9191 17.2416 16.1958 17.2564 16.4368 17.3732L16.5003 17.4035V15.9679ZM16.0003 10.0002C14.8959 10.0004 14.0003 10.8957 14.0003 12.0002C14.0004 13.1045 14.896 13.9999 16.0003 14.0002C17.1048 14.0002 18.0002 13.1046 18.0003 12.0002C18.0003 10.8956 17.1049 10.0002 16.0003 10.0002Z" fill="#1F1F22"/>
<path d="M9.00031 12.5002C9.5526 12.5002 10.0003 12.9479 10.0003 13.5002C10.0002 14.0524 9.55254 14.5002 9.00031 14.5002H1.00031C0.44826 14.4999 0.000405667 14.0522 0.000313476 13.5002C0.000313476 12.948 0.448203 12.5004 1.00031 12.5002H9.00031Z" fill="#1F1F22"/>
<path d="M3.00031 5.50015C3.5526 5.50015 4.00031 5.94787 4.00031 6.50015V10.5002C4.00022 11.0524 3.55254 11.5002 3.00031 11.5002C2.44826 11.4999 2.00041 11.0522 2.00031 10.5002V6.50015C2.00031 5.94799 2.4482 5.50036 3.00031 5.50015Z" fill="#1F1F22"/>
<path d="M7.00031 5.50015C7.5526 5.50015 8.00031 5.94787 8.00031 6.50015V10.5002C8.00022 11.0524 7.55254 11.5002 7.00031 11.5002C6.44826 11.4999 6.00041 11.0522 6.00031 10.5002V6.50015C6.00031 5.94799 6.4482 5.50036 7.00031 5.50015Z" fill="#1F1F22"/>
<path d="M11.0003 5.50015C11.5526 5.50015 12.0003 5.94787 12.0003 6.50015V8.00015C12.0002 8.55236 11.5525 9.00015 11.0003 9.00015C10.4483 8.99995 10.0004 8.55223 10.0003 8.00015V6.50015C10.0003 5.94799 10.4482 5.50036 11.0003 5.50015Z" fill="#1F1F22"/>
<path d="M6.68977 0.0499563C6.92513 -0.0269772 7.18231 -0.0144808 7.41047 0.0880422L13.4105 2.78921C13.9141 3.0159 14.1391 3.60786 13.9124 4.11148C13.6856 4.6148 13.0936 4.83899 12.5902 4.61246L7.00031 2.09683L1.41047 4.61246C0.906993 4.83873 0.314833 4.61487 0.0882041 4.11148C-0.138423 3.608 0.0868292 3.01604 0.590157 2.78921L6.59016 0.0880422L6.68977 0.0499563Z" fill="#1F1F22"/>
</svg>
