<svg width="32" height="32" viewBox="0 0 32 32" fill="none" xmlns="http://www.w3.org/2000/svg">
<path d="M11 3.99992C11.5523 3.99992 12 4.44766 12 4.99992C12 5.5522 11.5523 5.99992 11 5.99992H10C9.44773 5.99992 9.00003 6.44766 9 6.99992V23.9999C9 24.5522 9.44772 24.9999 10 24.9999H22C22.5523 24.9999 23 24.5522 23 23.9999V17.9999C23 17.4477 23.4477 16.9999 24 16.9999C24.5523 16.9999 25 17.4477 25 17.9999V23.9999C25 25.6568 23.6569 26.9999 22 26.9999H10C8.34315 26.9999 7 25.6568 7 23.9999V6.99992C7.00003 5.34309 8.34317 3.99992 10 3.99992H11Z" fill="#1F1F22"/>
<path d="M20 19.9999C20.5523 19.9999 21 20.4477 21 20.9999C21 21.5522 20.5523 21.9999 20 21.9999H12C11.4477 21.9999 11 21.5522 11 20.9999C11 20.4477 11.4477 19.9999 12 19.9999H20Z" fill="#1F1F22"/>
<path d="M16 15.9999C16.5523 15.9999 17 16.4477 17 16.9999C17 17.5522 16.5523 17.9999 16 17.9999H12C11.4477 17.9999 11 17.5522 11 16.9999C11 16.4477 11.4477 15.9999 12 15.9999H16Z" fill="#1F1F22"/>
<path fill-rule="evenodd" clip-rule="evenodd" d="M23.4453 2.16789C23.9048 1.86157 24.5256 1.98582 24.832 2.44523L26.5352 4.99992H28C28.3251 4.99992 28.63 5.15803 28.8174 5.42375C29.0047 5.68949 29.0507 6.02968 28.9414 6.33586L26.4414 13.3359C26.2993 13.7339 25.9226 13.9999 25.5 13.9999H18.5C18.0774 13.9999 17.7007 13.7339 17.5586 13.3359L15.0586 6.33586C14.9493 6.02968 14.9953 5.68949 15.1826 5.42375C15.37 5.15803 15.6749 4.99992 16 4.99992H17.4648L19.168 2.44523C19.4743 1.9858 20.0952 1.86166 20.5547 2.16789C21.0142 2.47423 21.1383 3.09508 20.832 3.55461L19.8682 4.99992H24.1318L23.168 3.55461C22.8617 3.09509 22.9858 2.47421 23.4453 2.16789ZM19.2041 11.9999H24.7959L26.5811 6.99992H17.4189L19.2041 11.9999Z" fill="#1F1F22"/>
<path d="M14 12C14.5523 12 15 12.4477 15 13C15 13.5523 14.5523 14 14 14H12C11.4477 14 11 13.5523 11 13C11 12.4477 11.4477 12 12 12H14Z" fill="#1F1F22"/>
</svg>
