<svg width="20" height="20" viewBox="0 0 20 20" fill="none" xmlns="http://www.w3.org/2000/svg">
<path d="M12.5 10.5004C13.3284 10.5004 14 11.1719 14 12.0004C13.9998 12.8286 13.3283 13.5004 12.5 13.5004C11.6717 13.5004 11.0002 12.8286 11 12.0004C11 11.1719 11.6716 10.5004 12.5 10.5004Z" fill="#1F1F22"/>
<path d="M11.793 6.29333C12.1835 5.90281 12.8165 5.90281 13.207 6.29333C13.5974 6.68387 13.5975 7.31691 13.207 7.70739L8.20703 12.7074C7.81654 13.0977 7.18344 13.0977 6.79297 12.7074C6.40251 12.3169 6.40263 11.6839 6.79297 11.2933L11.793 6.29333Z" fill="#1F1F22"/>
<path d="M7.5 5.50036C8.32843 5.50036 9 6.17193 9 7.00036C8.9998 7.82862 8.3283 8.50036 7.5 8.50036C6.6717 8.50036 6.0002 7.82862 6 7.00036C6 6.17193 6.67157 5.50036 7.5 5.50036Z" fill="#1F1F22"/>
<path fill-rule="evenodd" clip-rule="evenodd" d="M9.84961 0.0120799C9.99909 -0.0106661 10.1523 0.000811752 10.2979 0.0462596L18.2979 2.54626C18.7153 2.67675 19 3.06301 19 3.50036V8.02185C18.9999 11.1311 18.0148 13.4847 16.4141 15.3802C14.8427 17.2409 12.7098 18.6218 10.4912 19.8715C10.1866 20.0429 9.81337 20.0429 9.50879 19.8715C7.2894 18.6214 5.15705 17.2374 3.58594 15.3754C2.08574 13.5973 1.12587 11.4178 1.01172 8.59509L1 8.02185V3.50036L1.0127 3.33923C1.07276 2.97039 1.33686 2.66046 1.70215 2.54626L9.70215 0.0462596L9.84961 0.0120799ZM3 4.23474V8.02185L3.00977 8.50622C3.10413 10.8833 3.89591 12.6412 5.11426 14.0853C6.3419 15.5403 8.03088 16.708 10 17.8461C11.9696 16.7081 13.6583 15.5435 14.8857 14.0902C16.1849 12.5517 16.9999 10.6538 17 8.02185V4.23474L10 2.04724L3 4.23474Z" fill="#1F1F22"/>
</svg>
