<svg width="20" height="20" viewBox="0 0 20 20" fill="none" xmlns="http://www.w3.org/2000/svg">
<path d="M7 0C7.55228 0 8 0.447715 8 1C8 1.55228 7.55228 2 7 2H4C3.44772 2 3 2.44772 3 3V17C3 17.5523 3.44772 18 4 18H14C14.5523 18 15 17.5523 15 17V13C15 12.4477 15.4477 12 16 12C16.5523 12 17 12.4477 17 13V17C17 18.6569 15.6569 20 14 20H4C2.34315 20 1 18.6569 1 17V3C1 1.34315 2.34315 1.61064e-08 4 0H7Z" fill="#1F1F22"/>
<path d="M12 14C12.5523 14 13 14.4477 13 15C13 15.5523 12.5523 16 12 16H6C5.44772 16 5 15.5523 5 15C5 14.4477 5.44772 14 6 14H12Z" fill="#1F1F22"/>
<path d="M8 10C8.55228 10 9 10.4477 9 11C9 11.5523 8.55228 12 8 12H6C5.44772 12 5 11.5523 5 11C5 10.4477 5.44772 10 6 10H8Z" fill="#1F1F22"/>
<path d="M12.2422 1.41406C12.6327 1.02354 13.2667 1.02354 13.6572 1.41406C14.0475 1.80447 14.0473 2.43763 13.6572 2.82812L11.8281 4.65723H17.8994C18.4517 4.65725 18.8994 5.10495 18.8994 5.65723C18.8992 6.20933 18.4516 6.65721 17.8994 6.65723H11.8281L13.6572 8.48535C14.0474 8.8758 14.0474 9.50896 13.6572 9.89941C13.2667 10.2899 12.6327 10.2899 12.2422 9.89941L8.70703 6.36426C8.61127 6.2685 8.53903 6.15782 8.49023 6.04004C8.44174 5.92309 8.4145 5.79454 8.41406 5.66016V5.6543C8.41482 5.39946 8.51267 5.14467 8.70703 4.9502L12.2422 1.41406Z" fill="#1F1F22"/>
</svg>
