<svg width="32" height="32" viewBox="0 0 32 32" fill="none" xmlns="http://www.w3.org/2000/svg">
<path d="M24.2927 18.293C24.6832 17.9025 25.3162 17.9025 25.7067 18.293C26.0973 18.6835 26.0973 19.3165 25.7067 19.707L18.7067 26.707C18.3162 27.0975 17.6832 27.0975 17.2927 26.707C16.9022 26.3165 16.9022 25.6835 17.2927 25.293L24.2927 18.293Z" fill="#1F1F22"/>
<path d="M24.4997 24C25.3281 24 25.9997 24.6716 25.9997 25.5C25.9997 26.3284 25.3281 27 24.4997 27C23.6714 26.9999 22.9997 26.3284 22.9997 25.5C22.9997 24.6716 23.6714 24.0001 24.4997 24Z" fill="#1F1F22"/>
<path d="M7.02705 14.7314C7.7624 14.1192 8.65124 14.2446 9.26826 14.6748L9.38838 14.7656L9.39033 14.7666C10.3037 15.5105 11.7139 15.9999 12.9997 16C13.5519 16 13.9996 16.4478 13.9997 17C13.9996 17.5522 13.5519 18 12.9997 18C11.3138 17.9999 9.48337 17.3904 8.19209 16.3672C6.77701 17.6001 5.99983 19.2181 5.9997 20.9834C5.9997 21.1734 5.99948 21.3573 6.01142 21.542C6.02349 21.728 6.04549 21.8745 6.07685 21.9795C6.07909 21.9869 6.08256 21.9936 6.08467 22H13.9997C14.5519 22 14.9996 22.4478 14.9997 23C14.9996 23.5522 14.5519 24 13.9997 24H6.00166C5.51485 23.9998 5.0752 23.8367 4.73408 23.5186C4.41662 23.2224 4.25166 22.8557 4.16084 22.5518C3.98737 21.9708 3.9997 21.3064 3.9997 20.9834C3.99983 18.5226 5.12628 16.3204 7.02607 14.7324L7.02705 14.7314Z" fill="#1F1F22"/>
<path d="M18.4997 18C19.3281 18 19.9997 18.6716 19.9997 19.5C19.9997 20.3284 19.3281 21 18.4997 21C17.6714 20.9999 16.9997 20.3284 16.9997 19.5C16.9997 18.6716 17.6714 18.0001 18.4997 18Z" fill="#1F1F22"/>
<path fill-rule="evenodd" clip-rule="evenodd" d="M12.9997 4C15.7611 4 17.9997 6.23858 17.9997 9C17.9997 11.7614 15.7611 14 12.9997 14C10.2384 13.9999 7.9997 11.7614 7.9997 9C7.9997 6.23864 10.2384 4.0001 12.9997 4ZM12.9997 6C11.3429 6.0001 9.9997 7.34321 9.9997 9C9.9997 10.6568 11.3429 11.9999 12.9997 12C14.6566 12 15.9997 10.6569 15.9997 9C15.9997 7.34315 14.6566 6 12.9997 6Z" fill="#1F1F22"/>
</svg>
