<svg width="20" height="20" viewBox="0 0 20 20" fill="none" xmlns="http://www.w3.org/2000/svg">
<path fill-rule="evenodd" clip-rule="evenodd" d="M15.3525 9.51074C15.499 9.48891 15.6492 9.50032 15.792 9.54395L19.292 10.6143C19.7124 10.7428 20 11.1307 20 11.5703V13.5107C20 15.1503 19.5435 16.4236 18.7764 17.4619C18.0303 18.4716 17.0277 19.2057 16.041 19.8408C15.7114 20.0529 15.2886 20.0529 14.959 19.8408C13.9715 19.2052 12.9695 18.4693 12.2236 17.459C11.4569 16.4204 11 15.1476 11 13.5107V11.5703C11 11.1307 11.2876 10.7428 11.708 10.6143L15.208 9.54395L15.3525 9.51074ZM13 12.3096V13.5107C13 14.7385 13.331 15.5914 13.833 16.2715C14.2507 16.8372 14.8131 17.3175 15.5 17.7959C16.1875 17.3175 16.7503 16.8386 17.168 16.2734C17.6695 15.5946 18 14.7419 18 13.5107V12.3096L15.5 11.5449L13 12.3096Z" fill="#1F1F22"/>
<path d="M17 1C18.6569 1 20 2.34315 20 4V7.5C20 8.05228 19.5523 8.5 19 8.5C18.4477 8.5 18 8.05228 18 7.5V4C18 3.44772 17.5523 3 17 3H3C2.44772 3 2 3.44772 2 4V13C2 13.5523 2.44772 14 3 14H8C8.55229 14 9 14.4477 9 15C9 15.5523 8.55229 16 8 16H3C1.34315 16 4.0266e-08 14.6569 0 13V4C0 2.34315 1.34315 1 3 1H17Z" fill="#1F1F22"/>
<path d="M15 5C15.5523 5 16 5.44772 16 6C16 6.55228 15.5523 7 15 7H5C4.44772 7 4 6.55228 4 6C4 5.44772 4.44772 5 5 5H15Z" fill="#1F1F22"/>
</svg>
