<svg width="32" height="32" viewBox="0 0 32 32" fill="none" xmlns="http://www.w3.org/2000/svg">
<path d="M25 4C26.6569 4 28 5.34315 28 7V10.5C28 11.0523 27.5523 11.5 27 11.5C26.4477 11.5 26 11.0523 26 10.5V7C26 6.44771 25.5523 6 25 6H7C6.44771 6 6 6.44772 6 7V12H23C23.5523 12 24 12.4477 24 13C24 13.5523 23.5523 14 23 14H6V25C6 25.5523 6.44772 26 7 26H25C25.5523 26 26 25.5523 26 25V24C26 23.4477 26.4477 23 27 23C27.5523 23 28 23.4477 28 24V25C28 26.6569 26.6569 28 25 28H7C5.34315 28 4 26.6569 4 25V7C4 5.34315 5.34315 4 7 4H25Z" fill="#1F1F22"/>
<path d="M28.793 14.293C29.1835 13.9025 29.8165 13.9025 30.207 14.293C30.5976 14.6835 30.5976 15.3165 30.207 15.707L24.207 21.707C23.8165 22.0976 23.1835 22.0976 22.793 21.707L19.293 18.207C18.9025 17.8165 18.9025 17.1835 19.293 16.793C19.6835 16.4025 20.3165 16.4025 20.707 16.793L23.5 19.5859L28.793 14.293Z" fill="#1F1F22"/>
<path d="M9 8C9.55228 8 10 8.44772 10 9C10 9.55228 9.55228 10 9 10C8.44772 10 8 9.55228 8 9C8 8.44772 8.44772 8 9 8Z" fill="#1F1F22"/>
<path d="M13 8C13.5523 8 14 8.44772 14 9C14 9.55228 13.5523 10 13 10C12.4477 10 12 9.55228 12 9C12 8.44772 12.4477 8 13 8Z" fill="#1F1F22"/>
<path d="M17 8C17.5523 8 18 8.44772 18 9C18 9.55228 17.5523 10 17 10C16.4477 10 16 9.55228 16 9C16 8.44772 16.4477 8 17 8Z" fill="#1F1F22"/>
</svg>
