<svg width="32" height="32" viewBox="0 0 32 32" fill="none" xmlns="http://www.w3.org/2000/svg">
<path d="M13 4C13.5523 4 14 4.44772 14 5C14 5.55228 13.5523 6 13 6H10C9.44772 6 9 6.44772 9 7V24C9 24.5523 9.44772 25 10 25H22C22.5523 25 23 24.5523 23 24V16C23 15.4477 23.4477 15 24 15C24.5523 15 25 15.4477 25 16V24C25 25.6569 23.6569 27 22 27H10C8.34315 27 7 25.6569 7 24V7C7 5.34315 8.34315 4 10 4H13Z" fill="#1F1F22"/>
<path d="M20 20C20.5523 20 21 20.4477 21 21C21 21.5523 20.5523 22 20 22H12C11.4477 22 11 21.5523 11 21C11 20.4477 11.4477 20 12 20H20Z" fill="#1F1F22"/>
<path d="M17 16C17.5523 16 18 16.4477 18 17C18 17.5523 17.5523 18 17 18H12C11.4477 18 11 17.5523 11 17C11 16.4477 11.4477 16 12 16H17Z" fill="#1F1F22"/>
<path d="M14 12C14.5523 12 15 12.4477 15 13C15 13.5523 14.5523 14 14 14H12C11.4477 14 11 13.5523 11 13C11 12.4477 11.4477 12 12 12H14Z" fill="#1F1F22"/>
<path d="M22.5 6.5C23.3284 6.5 24 7.17157 24 8C24 8.82843 23.3284 9.5 22.5 9.5C21.6716 9.5 21 8.82843 21 8C21 7.17157 21.6716 6.5 22.5 6.5Z" fill="#1F1F22"/>
<path fill-rule="evenodd" clip-rule="evenodd" d="M22.5 3C24.2801 3 25.8707 3.69996 27.0156 4.62012C28.1102 5.49993 29 6.75675 29 8C29 9.24325 28.1102 10.5001 27.0156 11.3799C25.8707 12.3 24.2801 13 22.5 13C20.7199 13 19.1293 12.3 17.9844 11.3799C16.8898 10.5001 16 9.24325 16 8C16 6.75675 16.8898 5.49993 17.9844 4.62012C19.1293 3.69996 20.7199 3 22.5 3ZM22.5 5C21.2426 5 20.083 5.49992 19.2373 6.17969C18.3414 6.89983 18 7.64328 18 8C18 8.35672 18.3414 9.10017 19.2373 9.82031C20.083 10.5001 21.2426 11 22.5 11C23.7574 11 24.917 10.5001 25.7627 9.82031C26.6586 9.10017 27 8.35672 27 8C27 7.64328 26.6586 6.89983 25.7627 6.17969C24.917 5.49992 23.7574 5 22.5 5Z" fill="#1F1F22"/>
</svg>
