<svg width="32" height="32" viewBox="0 0 32 32" fill="none" xmlns="http://www.w3.org/2000/svg">
<path fill-rule="evenodd" clip-rule="evenodd" d="M7.53301 9.19088C8.49881 8.50605 9.92747 8.04114 11.7059 8.69772C13.5675 7.96738 15.7578 8.55149 16.9881 10.2446L18.5643 12.4135L19.9461 14.3217L22.91 10.2436C24.3708 8.23325 27.1846 7.78777 29.1951 9.2485C30.3975 10.1221 31.0386 11.4795 31.0486 12.8598C31.0633 13.7998 30.7863 14.7526 30.1912 15.5717L25.4881 22.0434C24.1977 23.8195 21.8521 24.3737 19.9363 23.4721C18.2495 24.1529 16.8351 23.8136 15.8367 23.2309C15.3139 22.9257 14.918 22.5643 14.6541 22.2827C14.5211 22.1406 14.4176 22.0148 14.3455 21.9214C14.3094 21.8745 14.2806 21.8338 14.2596 21.8042C14.2543 21.7968 14.2492 21.7898 14.2449 21.7837L11.7234 18.311L9.03106 22.0102C7.61437 23.9557 4.93001 24.4336 2.93633 23.1342C2.87139 23.092 2.80736 23.0475 2.74395 23.0014C2.67101 22.9484 2.60083 22.8928 2.53203 22.8364C2.47231 22.7873 2.41381 22.7375 2.35723 22.686C0.682204 21.1625 0.386384 18.5906 1.74785 16.7163L4.09942 13.4799C4.113 13.4613 4.12779 13.4437 4.14239 13.4262L6.09551 10.7378C6.11388 10.7067 6.13988 10.665 6.17168 10.6157C6.23527 10.5172 6.32676 10.3846 6.4461 10.2329C6.68326 9.93143 7.04413 9.53759 7.53301 9.19088ZM9.58086 10.4253C9.22544 10.4976 8.93211 10.6512 8.69024 10.8227C8.39929 11.0291 8.17293 11.2728 8.01836 11.4692C7.94231 11.5659 7.88584 11.6472 7.85137 11.7006C7.83435 11.727 7.82236 11.7469 7.81621 11.7573L7.81426 11.7602C7.79402 11.7971 7.77258 11.8336 7.74785 11.8676L4.65606 16.1215C4.64428 16.1378 4.63051 16.1522 4.61797 16.1674L3.367 17.8901C2.65686 18.8678 2.75749 20.1875 3.5418 21.0464C3.65387 21.1689 3.78014 21.2818 3.91973 21.3833C5.03666 22.1947 6.59934 21.9473 7.41094 20.8305L8.66094 19.1118C8.68311 19.0813 8.70643 19.0521 8.73125 19.0249L10.4881 16.6108L9.70684 15.5346C8.57727 13.9795 8.58791 11.9437 9.58086 10.4253ZM28.0193 10.9038C26.9023 10.0925 25.3396 10.3406 24.5281 11.4575L19.825 17.9292C19.522 18.3463 19.3669 18.8259 19.3494 19.3051C19.3324 20.0965 19.6898 20.8827 20.3787 21.3833C21.4957 22.1948 23.0593 21.9475 23.8709 20.8305L28.573 14.3579C28.8771 13.9392 29.0321 13.4579 29.0486 12.977C29.0639 12.1874 28.7067 11.4032 28.0193 10.9038ZM15.3699 11.4204C14.5583 10.3035 12.9948 10.0553 11.8777 10.8667C10.7607 11.6782 10.5136 13.2417 11.325 14.3589L15.9285 20.6997C15.9669 20.7494 16.0292 20.8259 16.1131 20.9155C16.2833 21.0972 16.5321 21.3204 16.8455 21.5034C17.1674 21.6913 17.5734 21.8465 18.074 21.8491C17.5741 21.0788 17.3259 20.1774 17.3504 19.2729C17.367 18.3836 17.6453 17.4905 18.2078 16.7163L18.7098 16.0249L16.9441 13.5874L15.3699 11.4204Z" fill="#1F1F22"/>
</svg>
