<svg width="20" height="20" viewBox="0 0 20 20" fill="none" xmlns="http://www.w3.org/2000/svg">
<path fill-rule="evenodd" clip-rule="evenodd" d="M10 4.00036C10.5523 4.00036 11 4.44808 11 5.00036V5.12927C11.9323 5.232 12.9106 5.47816 13.749 5.89196C14.8775 6.44907 15.9998 7.45265 16 9.01794C15.9998 9.57005 15.5522 10.0179 15 10.0179H11V13.3685C11.0002 13.4411 11.0593 13.5004 11.1318 13.5004C11.1912 13.5003 11.2433 13.46 11.2588 13.4027L11.3018 13.2416C11.4447 12.7082 11.993 12.3918 12.5264 12.5345C13.0597 12.6775 13.3772 13.2258 13.2344 13.7592L13.1904 13.9203C12.9406 14.852 12.0964 15.5003 11.1318 15.5004C9.95468 15.5004 9.00021 14.5456 9 13.3685V10.0179H5C4.44784 10.0179 4.00021 9.57005 4 9.01794C4.00019 7.45265 5.12247 6.44907 6.25098 5.89196C7.08944 5.47816 8.06773 5.232 9 5.12927V5.00036C9 4.44808 9.44771 4.00036 10 4.00036ZM10 7.07263C9.0432 7.07263 7.95117 7.28339 7.13574 7.68591C6.91881 7.79301 6.73786 7.9043 6.58887 8.01794H9.81152C9.87258 8.00629 9.93556 8.00036 10 8.00036C10.0644 8.00036 10.1274 8.00629 10.1885 8.01794H13.4111C13.2621 7.9043 13.0812 7.79301 12.8643 7.68591C12.0488 7.28339 10.9568 7.07263 10 7.07263Z" fill="#1F1F22"/>
<path fill-rule="evenodd" clip-rule="evenodd" d="M9.84961 0.0120798C9.99909 -0.0106661 10.1523 0.000812046 10.2979 0.0462594L18.2979 2.54626C18.7153 2.67672 19 3.06298 19 3.50036V8.02185C18.9999 11.1311 18.0148 13.4847 16.4141 15.3802C14.8427 17.2409 12.7098 18.6218 10.4912 19.8715C10.1866 20.0429 9.81336 20.043 9.50879 19.8715C7.28938 18.6214 5.15705 17.2374 3.58594 15.3754C2.08574 13.5973 1.12587 11.4178 1.01172 8.59509L1 8.02185V3.50036L1.0127 3.33923C1.07275 2.97043 1.33692 2.66048 1.70215 2.54626L9.70215 0.0462594L9.84961 0.0120798ZM3 4.23474V8.02185L3.00977 8.50622C3.10413 10.8833 3.89591 12.6412 5.11426 14.0853C6.34191 15.5403 8.03086 16.708 10 17.8461C11.9696 16.7082 13.6583 15.5435 14.8857 14.0902C16.1849 12.5517 16.9999 10.6538 17 8.02185V4.23474L10 2.04724L3 4.23474Z" fill="#1F1F22"/>
</svg>
