<svg width="32" height="32" viewBox="0 0 32 32" fill="none" xmlns="http://www.w3.org/2000/svg">
<path fill-rule="evenodd" clip-rule="evenodd" d="M18.4351 4.7068C17.2636 3.53523 15.3641 3.53523 14.1925 4.7068L5.70722 13.1921C5.0109 13.8884 4.72927 14.8423 4.85948 15.744C4.88092 16.481 5.17357 17.2146 5.73688 17.7779L14.2222 26.2632C15.3937 27.4347 17.2932 27.4347 18.4648 26.2632L21.2932 23.4347C22.4648 22.2632 22.4648 20.3637 21.2932 19.1921L17.5713 15.4701L21.2636 11.7779C22.4351 10.6063 22.4351 8.7068 21.2636 7.53523L18.4351 4.7068ZM15.6067 6.12102C15.9972 5.73049 16.6304 5.73049 17.0209 6.12102L19.8494 8.94945C20.2399 9.33997 20.2399 9.97313 19.8494 10.3637L14.7429 15.4701L19.879 20.6063C20.2695 20.9968 20.2695 21.63 19.879 22.0205L17.0506 24.8489C16.6601 25.2395 16.0269 25.2395 15.6364 24.8489L7.1511 16.3637C6.95577 16.1683 6.85834 15.9144 6.8582 15.6571L6.85816 15.5711L6.84344 15.4864C6.78909 15.1737 6.88281 14.8449 7.12143 14.6063L15.6067 6.12102Z" fill="#1F1F22"/>
<path d="M28.0001 15C28.0001 16.1046 27.1047 17 26.0001 17C24.8956 17 24.0001 16.1046 24.0001 15C24.0001 13.8954 24.8956 13 26.0001 13C27.1047 13 28.0001 13.8954 28.0001 15Z" fill="#1F1F22"/>
</svg>
