<svg width="32" height="32" viewBox="0 0 32 32" fill="none" xmlns="http://www.w3.org/2000/svg">
<path fill-rule="evenodd" clip-rule="evenodd" d="M18.435 4.7068C17.2634 3.53523 15.3639 3.53523 14.1924 4.7068L5.70709 13.1921C5.01077 13.8884 4.72915 14.8423 4.85935 15.744C4.8808 16.481 5.17344 17.2146 5.73676 17.7779L14.222 26.2632C15.3936 27.4347 17.2931 27.4347 18.4647 26.2632L21.2931 23.4347C22.4647 22.2632 22.4647 20.3637 21.2931 19.1921L17.5712 15.4701L21.2634 11.7779C22.435 10.6063 22.435 8.7068 21.2634 7.53523L18.435 4.7068ZM15.6066 6.12102C15.9971 5.73049 16.6303 5.73049 17.0208 6.12102L19.8492 8.94945C20.2398 9.33997 20.2398 9.97313 19.8492 10.3637L14.7427 15.4701L19.8789 20.6063C20.2694 20.9968 20.2694 21.63 19.8789 22.0205L17.0505 24.8489C16.6599 25.2395 16.0268 25.2395 15.6363 24.8489L7.15098 16.3637C6.95565 16.1683 6.85822 15.9144 6.85808 15.6571L6.85804 15.5711L6.84331 15.4864C6.78897 15.1737 6.88268 14.8449 7.12131 14.6063L15.6066 6.12102Z" fill="#1F1F22"/>
<path d="M28 15C28 16.1046 27.1046 17 26 17C24.8954 17 24 16.1046 24 15C24 13.8954 24.8954 13 26 13C27.1046 13 28 13.8954 28 15Z" fill="#1F1F22"/>
</svg>
