<svg width="32" height="32" viewBox="0 0 32 32" fill="none" xmlns="http://www.w3.org/2000/svg">
<path d="M16 8.99997C16.5523 8.99997 17 9.44769 17 9.99997V10.164C17.7795 10.4126 18.3287 10.898 18.7236 11.2929C19.114 11.6834 19.114 12.3165 18.7236 12.707C18.3332 13.0975 17.7001 13.0974 17.3096 12.707C16.8656 12.2631 16.4942 12.0001 15.9277 12C15.5575 12 15.1077 12.1731 14.8154 12.4795C14.565 12.7422 14.3982 13.1286 14.5693 13.7295C14.6395 13.9754 14.7997 14.1803 15.1318 14.3965C15.4951 14.6329 15.9472 14.812 16.5371 15.0566C17.5218 15.4649 19.1145 16.1111 19.4668 17.8681L19.4961 18.042L19.501 18.0742C19.6635 19.4906 19.0865 20.5246 18.2773 21.164C17.8863 21.473 17.4472 21.6845 17.0225 21.8183V22C17.0224 22.5522 16.5747 23 16.0225 23C15.4702 23 15.0225 22.5522 15.0225 22V21.9121C14.0815 21.7263 13.3216 21.2606 12.7832 20.6797C12.4078 20.2746 12.4318 19.642 12.8369 19.2666C13.242 18.8913 13.8746 18.9152 14.25 19.3203C14.5887 19.6857 15.1419 20 15.9277 20C16.1939 19.9998 16.6738 19.8816 17.0371 19.5947C17.3422 19.3536 17.5867 18.9855 17.5146 18.3183C17.4165 17.7029 16.9442 17.3896 15.7715 16.9033C15.2617 16.6919 14.5972 16.4342 14.041 16.0722C13.454 15.6901 12.8908 15.1348 12.6465 14.2783C12.2766 12.9807 12.6384 11.8641 13.3672 11.0996C13.8201 10.6245 14.4012 10.2982 15 10.1308V9.99997C15 9.44769 15.4477 8.99997 16 8.99997Z" fill="#1F1F22"/>
<path fill-rule="evenodd" clip-rule="evenodd" d="M15.71 4.04294C15.899 3.98569 16.101 3.98569 16.29 4.04294L26.29 7.07224C26.7116 7.20005 27 7.58873 27 8.02927V13.582C27 21.1348 22.117 25.7729 16.4824 28.8759C16.1821 29.0413 15.8179 29.0413 15.5176 28.8759C9.88238 25.7725 5.00002 21.1194 5 13.582V8.02927C5 7.58873 5.28839 7.20005 5.70996 7.07224L15.71 4.04294ZM7 8.77048V13.582C7.00002 19.8542 10.8729 23.9179 16 26.8525C21.1276 23.9184 25 19.8682 25 13.582V8.77048L16 6.04392L7 8.77048Z" fill="#1F1F22"/>
</svg>
