<svg width="20" height="20" viewBox="0 0 20 20" fill="none" xmlns="http://www.w3.org/2000/svg">
<path fill-rule="evenodd" clip-rule="evenodd" d="M14.5001 9.50005C16.9822 9.50005 19.0001 11.5178 19.0001 14C19 14.8796 18.7452 15.6998 18.3077 16.3936L19.7071 17.793C20.0976 18.1835 20.0976 18.8166 19.7071 19.2071C19.3166 19.5976 18.6836 19.5976 18.293 19.2071L16.8936 17.8077C16.1998 18.2452 15.3796 18.5 14.5001 18.5C12.018 18.5 10.0001 16.4823 10.0001 14C10.0001 11.5178 12.018 9.50005 14.5001 9.50005ZM14.5001 11.5C13.1225 11.5 12.0001 12.6225 12.0001 14C12.0001 15.3778 13.1225 16.5 14.5001 16.5C15.8776 16.5 17 15.3778 17.0001 14C17.0001 12.6225 15.8777 11.5 14.5001 11.5Z" fill="#1F1F22"/>
<path d="M9.81842 0.0166504C10.2035 -0.0544773 10.5948 0.106002 10.8194 0.426807L13.8057 4.69341L18.5215 2.12212C19.0063 1.85788 19.6136 2.0368 19.878 2.52153C20.1422 3.00634 19.9633 3.61357 19.4786 3.87798L13.9786 6.87798C13.5315 7.12158 12.9727 6.99039 12.6807 6.57329L10.4376 3.36919L7.46979 15.2422C7.36194 15.6735 6.98241 15.982 6.53815 15.9991C6.09413 16.016 5.69246 15.738 5.55182 15.3165L2.75885 6.93755L1.86822 8.49614C1.5942 8.97562 0.983468 9.14221 0.503967 8.86821C0.0245216 8.59419 -0.142059 7.98344 0.131897 7.50395L2.1319 4.00395L2.21393 3.88286C2.42283 3.61665 2.75535 3.47097 3.09869 3.50493C3.49101 3.54382 3.82352 3.80969 3.9483 4.18364L6.36237 11.4268L9.03033 0.757861L9.07526 0.61919C9.20318 0.308384 9.48154 0.0789883 9.81842 0.0166504Z" fill="#1F1F22"/>
</svg>
