<svg width="32" height="32" viewBox="0 0 32 32" fill="none" xmlns="http://www.w3.org/2000/svg">
<path fill-rule="evenodd" clip-rule="evenodd" d="M17.0004 3C17.0004 2.44772 17.4481 2 18.0004 2H24.95C25.3167 2 25.654 2.2007 25.8289 2.52298C26.0038 2.84527 25.9883 3.23744 25.7885 3.54491L24.193 6L25.7885 8.45509C25.9883 8.76256 26.0038 9.15473 25.8289 9.47702C25.654 9.7993 25.3167 10 24.95 10H18.0004C17.4481 10 17.0004 9.55228 17.0004 9V3ZM19.0004 4V8H23.1075L22.1619 6.54491C21.9465 6.21355 21.9465 5.78645 22.1619 5.45509L23.1075 4H19.0004ZM18.0058 12.5C18.3327 12.5018 18.638 12.6632 18.8236 12.9323L28.8236 27.4323C29.0346 27.7382 29.0585 28.1359 28.8857 28.4649C28.713 28.7939 28.372 29 28.0004 29H3.00037C2.63157 29 2.29271 28.797 2.11869 28.4719C1.94467 28.1467 1.96375 27.7522 2.16832 27.4453L8.16832 18.4453C8.3345 18.196 8.60369 18.0344 8.90183 18.0049C9.19997 17.9753 9.49563 18.081 9.70747 18.2929L11.868 20.4534L17.1834 12.9233C17.3719 12.6563 17.679 12.4982 18.0058 12.5ZM17.9908 15.2476L12.8173 22.5767C12.6473 22.8176 12.3795 22.9712 12.0856 22.9964C11.7918 23.0215 11.5018 22.9157 11.2933 22.7071L9.15579 20.5696L4.86889 27H26.096L17.9908 15.2476Z" fill="#1F1F22"/>
</svg>
