<svg width="20" height="20" viewBox="0 0 20 20" fill="none" xmlns="http://www.w3.org/2000/svg">
<path d="M10.1253 13.9015C10.7382 11.2082 13.4403 9.51637 16.1605 10.1232C16.7044 10.2447 17.0457 10.7799 16.9232 11.3185C16.8005 11.8571 16.2601 12.1957 15.7161 12.0744C14.0841 11.7103 12.4628 12.725 12.095 14.341C11.7275 15.9569 12.7531 17.5619 14.3851 17.9259C16.017 18.2898 17.6374 17.2751 18.0052 15.6593C18.1277 15.1208 18.6684 14.7824 19.2122 14.9035C19.7563 15.0248 20.0985 15.5601 19.9759 16.0988C19.363 18.7921 16.6609 20.4839 13.9407 19.8771C11.2207 19.2703 9.51261 16.5947 10.1253 13.9015Z" fill="#1F1F22"/>
<path d="M17.4329 12.2326C17.8613 11.8791 18.4988 11.9363 18.8558 12.3605C19.2127 12.7847 19.1543 13.4153 18.7259 13.7687L15.6966 16.2677C15.2954 16.5987 14.7055 16.5728 14.3363 16.2072L13.3265 15.2072C12.9324 14.8168 12.9323 14.1835 13.3265 13.7931C13.7208 13.4027 14.3609 13.4027 14.7552 13.7931L15.1126 14.1476L17.4329 12.2326Z" fill="#1F1F22"/>
<path d="M7.50031 12.5002C8.0526 12.5002 8.50031 12.9479 8.50031 13.5002C8.50022 14.0524 8.05254 14.5002 7.50031 14.5002H1.00031C0.44826 14.4999 0.000405667 14.0522 0.000313476 13.5002C0.000313476 12.948 0.448203 12.5004 1.00031 12.5002H7.50031Z" fill="#1F1F22"/>
<path d="M3.00031 5.50015C3.5526 5.50015 4.00031 5.94787 4.00031 6.50015V10.5002C4.00022 11.0524 3.55254 11.5002 3.00031 11.5002C2.44826 11.4999 2.00041 11.0522 2.00031 10.5002V6.50015C2.00031 5.94799 2.4482 5.50036 3.00031 5.50015Z" fill="#1F1F22"/>
<path d="M7.00031 5.50015C7.5526 5.50015 8.00031 5.94787 8.00031 6.50015V10.5002C8.00022 11.0524 7.55254 11.5002 7.00031 11.5002C6.44826 11.4999 6.00041 11.0522 6.00031 10.5002V6.50015C6.00031 5.94799 6.4482 5.50036 7.00031 5.50015Z" fill="#1F1F22"/>
<path d="M11.0003 5.50015C11.5526 5.50015 12.0003 5.94787 12.0003 6.50015V8.00015C12.0002 8.55236 11.5525 9.00015 11.0003 9.00015C10.4483 8.99995 10.0004 8.55223 10.0003 8.00015V6.50015C10.0003 5.94799 10.4482 5.50036 11.0003 5.50015Z" fill="#1F1F22"/>
<path d="M6.68977 0.0499563C6.92513 -0.0269772 7.18231 -0.0144808 7.41047 0.0880422L13.4105 2.78921C13.9141 3.0159 14.1391 3.60786 13.9124 4.11148C13.6856 4.6148 13.0936 4.83899 12.5902 4.61246L7.00031 2.09683L1.41047 4.61246C0.906993 4.83873 0.314833 4.61487 0.0882041 4.11148C-0.138423 3.608 0.0868292 3.01604 0.590157 2.78921L6.59016 0.0880422L6.68977 0.0499563Z" fill="#1F1F22"/>
</svg>
