<svg width="20" height="20" viewBox="0 0 20 20" fill="none" xmlns="http://www.w3.org/2000/svg">
<path d="M7 0C7.55228 0 8 0.447715 8 1C8 1.55228 7.55228 2 7 2H4C3.44772 2 3 2.44772 3 3V17C3 17.5523 3.44772 18 4 18H14C14.5523 18 15 17.5523 15 17V15C15 14.4477 15.4477 14 16 14C16.5523 14 17 14.4477 17 15V17C17 18.6569 15.6569 20 14 20H4C2.34315 20 1 18.6569 1 17V3C1 1.34315 2.34315 1.61064e-08 4 0H7Z" fill="#1F1F22"/>
<path d="M12 14C12.5523 14 13 14.4477 13 15C13 15.5523 12.5523 16 12 16H6C5.44772 16 5 15.5523 5 15C5 14.4477 5.44772 14 6 14H12Z" fill="#1F1F22"/>
<path d="M7 10C7.55228 10 8 10.4477 8 11C8 11.5523 7.55228 12 7 12H6C5.44772 12 5 11.5523 5 11C5 10.4477 5.44772 10 6 10H7Z" fill="#1F1F22"/>
<path d="M19 10C19.5523 10 20 10.4477 20 11C20 11.5523 19.5523 12 19 12H11C10.4477 12 10 11.5523 10 11C10 10.4477 10.4477 10 11 10H19Z" fill="#1F1F22"/>
<path d="M12 4C12.5523 4 13 4.44772 13 5V8C13 8.55229 12.5523 9 12 9C11.4477 9 11 8.55228 11 8V5C11 4.44772 11.4477 4 12 4Z" fill="#1F1F22"/>
<path d="M15 4C15.5523 4 16 4.44772 16 5V8C16 8.55229 15.5523 9 15 9C14.4477 9 14 8.55228 14 8V5C14 4.44772 14.4477 4 15 4Z" fill="#1F1F22"/>
<path d="M18 4C18.5523 4 19 4.44772 19 5V8C19 8.55229 18.5523 9 18 9C17.4477 9 17 8.55228 17 8V5C17 4.44772 17.4477 4 18 4Z" fill="#1F1F22"/>
<path d="M7 6C7.55228 6 8 6.44772 8 7C8 7.55228 7.55228 8 7 8H6C5.44772 8 5 7.55228 5 7C5 6.44772 5.44772 6 6 6H7Z" fill="#1F1F22"/>
<path d="M14.7344 0.0361328C14.937 -0.0197084 15.1533 -0.0108577 15.3516 0.0634766L19.3516 1.56348C19.8684 1.75753 20.1304 2.33456 19.9365 2.85156C19.7425 3.36844 19.1654 3.63037 18.6484 3.43652L15 2.06836L11.3516 3.43652C10.8346 3.6304 10.2575 3.36844 10.0635 2.85156C9.8696 2.33455 10.1315 1.75751 10.6484 1.56348L14.6484 0.0634766L14.7344 0.0361328Z" fill="#1F1F22"/>
</svg>
