<svg width="32" height="32" viewBox="0 0 32 32" fill="none" xmlns="http://www.w3.org/2000/svg">
<path fill-rule="evenodd" clip-rule="evenodd" d="M16 3C16.5523 3 17 3.44772 17 4C17 4.55228 16.5523 5 16 5C15.6581 5 15.242 5.16212 14.7666 5.64453C14.2876 6.13074 13.81 6.88595 13.3877 7.89941C12.6334 9.70968 12.1195 12.1936 12.0195 15H13C13.5523 15 14 15.4477 14 16C14 16.5523 13.5523 17 13 17H12.0195C12.1195 19.8064 12.6334 22.2903 13.3877 24.1006C13.81 25.114 14.2876 25.8693 14.7666 26.3555C15.242 26.8379 15.6581 27 16 27C16.5389 27 17.2854 26.5701 18.0518 25.2471C18.7897 23.973 19.3951 22.105 19.7266 19.8545C19.807 19.3081 20.3149 18.9303 20.8613 19.0107C21.4076 19.0913 21.7854 19.5993 21.7051 20.1455C21.3501 22.5557 20.6862 24.6883 19.7822 26.249C19.7619 26.2841 19.7395 26.3178 19.7188 26.3525C21.6409 25.662 23.3152 24.4524 24.5723 22.8916C24.7165 22.7125 24.8553 22.5289 24.9883 22.3408C25.5654 21.5247 26.0348 20.6268 26.374 19.667C26.5581 19.1463 27.1297 18.8736 27.6504 19.0576C28.171 19.2417 28.4437 19.8124 28.2598 20.333C26.4756 25.3808 21.6618 29 16 29C8.8203 29 3 23.1797 3 16C3 8.8203 8.8203 3 16 3ZM5.04688 17C5.43727 21.3314 8.33686 24.9377 12.2822 26.3545C12.2776 26.3467 12.2732 26.3388 12.2686 26.3311C12.2054 26.2245 12.1425 26.1161 12.082 26.0049C12.0705 25.9837 12.0603 25.9618 12.0488 25.9404C11.9349 25.7274 11.8239 25.5074 11.7197 25.2793C11.6583 25.1453 11.5988 25.0089 11.541 24.8701C11.5234 24.8279 11.5075 24.7849 11.4902 24.7422C11.4193 24.5672 11.3506 24.3878 11.2842 24.2041C11.2562 24.1266 11.2274 24.0487 11.2002 23.9697C11.1827 23.919 11.1665 23.8677 11.1494 23.8164C11.1163 23.7171 11.0826 23.6171 11.0508 23.5156C11.0346 23.4642 11.0197 23.4123 11.0039 23.3604C10.9747 23.2643 10.946 23.1673 10.918 23.0693C10.8941 22.986 10.8707 22.902 10.8477 22.8174C10.8333 22.7645 10.8187 22.7115 10.8047 22.6582C10.774 22.5418 10.7439 22.4244 10.7148 22.3057C10.7019 22.2525 10.6894 22.1991 10.6768 22.1455C10.6539 22.0489 10.6312 21.9516 10.6094 21.8535C10.5897 21.765 10.5715 21.6756 10.5527 21.5859C10.2576 20.1758 10.0726 18.6268 10.0186 17H5.04688ZM12.2666 5.65039C11.5533 5.90776 10.8744 6.23693 10.2383 6.62891C9.9757 6.7907 9.72098 6.96385 9.47363 7.14648C7.01309 8.9637 5.33697 11.7814 5.04688 15H10.0186C10.0671 13.5369 10.2205 12.1366 10.4658 10.8438C10.4755 10.7925 10.4851 10.7413 10.4951 10.6904C10.5167 10.5808 10.5396 10.4722 10.5625 10.3643C10.578 10.291 10.5933 10.218 10.6094 10.1455C10.6348 10.0312 10.6616 9.91802 10.6885 9.80566C10.6974 9.76817 10.7057 9.73063 10.7148 9.69336C10.7444 9.57263 10.7754 9.45328 10.8066 9.33496C10.8255 9.26352 10.8448 9.19261 10.8643 9.12207C10.8833 9.05297 10.9023 8.98423 10.9219 8.91602C10.9565 8.79546 10.9919 8.67631 11.0283 8.55859C11.0374 8.52931 11.0455 8.49981 11.0547 8.4707C11.0922 8.35154 11.1316 8.23425 11.1709 8.11816C11.1863 8.07275 11.2012 8.02736 11.2168 7.98242C11.2433 7.90634 11.2716 7.83151 11.2988 7.75684C11.3771 7.54211 11.4566 7.33252 11.541 7.12988C11.5989 6.99087 11.6583 6.85397 11.7197 6.71973C11.832 6.47384 11.9515 6.23701 12.0752 6.00879C12.0797 6.00047 12.0834 5.99169 12.0879 5.9834C12.1366 5.89403 12.1878 5.80706 12.2383 5.7207C12.253 5.69548 12.2664 5.66949 12.2812 5.64453C12.2763 5.64631 12.2715 5.64861 12.2666 5.65039Z" fill="#1F1F22"/>
<path fill-rule="evenodd" clip-rule="evenodd" d="M22.5 6C22.5811 6 22.6615 6.00336 22.7412 6.00879C22.7723 6.0109 22.8032 6.01368 22.834 6.0166C22.9109 6.02388 22.9871 6.03275 23.0625 6.04492C23.0818 6.04804 23.1009 6.05223 23.1201 6.05566C23.1885 6.06789 23.2563 6.08152 23.3232 6.09766C23.3395 6.10158 23.3559 6.10522 23.3721 6.10938C23.4541 6.1304 23.5347 6.15494 23.6143 6.18164C23.6247 6.18515 23.6351 6.18878 23.6455 6.19238C23.7278 6.22086 23.8084 6.2528 23.8877 6.28711C23.8921 6.28903 23.8969 6.29006 23.9014 6.29199C23.9792 6.32606 24.0551 6.36387 24.1299 6.40332C24.1372 6.40719 24.145 6.41014 24.1523 6.41406C24.2236 6.45229 24.2931 6.49322 24.3613 6.53613C24.3753 6.54494 24.3895 6.5535 24.4033 6.5625C24.6197 6.70302 24.8191 6.86727 24.999 7.05078C25.0132 7.06526 25.0271 7.08001 25.041 7.09473C25.1538 7.2138 25.2582 7.34062 25.3535 7.47461C25.3626 7.48735 25.372 7.49983 25.3809 7.5127C25.4284 7.58149 25.473 7.65236 25.5156 7.72461C25.5167 7.72649 25.5175 7.72859 25.5186 7.73047C25.6085 7.88359 25.6867 8.04407 25.7529 8.21094C25.7578 8.22312 25.7639 8.23482 25.7686 8.24707C25.8001 8.32925 25.8281 8.41302 25.8535 8.49805H27.4648C28.0685 8.49817 28.6299 8.6781 29.1006 8.98535C29.1187 8.99714 29.1365 9.00932 29.1543 9.02148C29.463 9.23264 29.7313 9.49864 29.9424 9.80762C30.2668 10.2816 30.4588 10.8537 30.4648 11.4707L30.4902 13.9805C30.5011 15.0926 29.6024 15.9999 28.4902 16H27.7305C27.6927 16.0653 27.6502 16.1272 27.6055 16.1875C27.5954 16.2012 27.5856 16.2151 27.5752 16.2285C27.5569 16.2519 27.5388 16.2753 27.5195 16.2979C27.5085 16.3108 27.4968 16.3232 27.4854 16.3359C27.4483 16.3771 27.4094 16.4162 27.3691 16.4541C27.3467 16.4753 27.3242 16.4964 27.3008 16.5166C27.2809 16.5336 27.2607 16.5501 27.2402 16.5664C27.2102 16.5903 27.1798 16.6136 27.1484 16.6357C27.1326 16.6469 27.1168 16.6582 27.1006 16.6689C27.0654 16.6922 27.0289 16.7133 26.9922 16.7344C26.9687 16.7479 26.945 16.7609 26.9209 16.7734C26.8851 16.7921 26.8486 16.8096 26.8115 16.8262C26.7898 16.8358 26.7682 16.8456 26.7461 16.8545C26.7045 16.8713 26.6621 16.8864 26.6191 16.9004C26.6032 16.9056 26.5874 16.9112 26.5713 16.916C26.4583 16.9498 26.3412 16.9731 26.2207 16.9863C26.209 16.9876 26.1973 16.9882 26.1855 16.9893C26.1244 16.9949 26.0626 17 26 17C25.937 17 25.8749 16.995 25.8135 16.9893C25.8017 16.9882 25.79 16.9876 25.7783 16.9863C25.6579 16.973 25.5407 16.9498 25.4277 16.916C25.4116 16.9112 25.3958 16.9056 25.3799 16.9004C25.3369 16.8863 25.2945 16.8713 25.2529 16.8545C25.2308 16.8456 25.2092 16.8358 25.1875 16.8262C25.1504 16.8096 25.114 16.7922 25.0781 16.7734C25.054 16.7609 25.0303 16.7479 25.0068 16.7344C24.9704 16.7134 24.9343 16.6921 24.8994 16.6689C24.8832 16.6582 24.8674 16.6469 24.8516 16.6357C24.82 16.6135 24.789 16.5904 24.7588 16.5664C24.7383 16.5501 24.7181 16.5336 24.6982 16.5166C24.6748 16.4964 24.6523 16.4753 24.6299 16.4541C24.5898 16.4163 24.5515 16.3769 24.5146 16.3359C24.5032 16.3232 24.4915 16.3108 24.4805 16.2979C24.4611 16.2752 24.4422 16.2521 24.4238 16.2285C24.4134 16.2151 24.4037 16.2012 24.3936 16.1875C24.349 16.1273 24.3072 16.0651 24.2695 16H21.7305C21.6927 16.0653 21.6502 16.1272 21.6055 16.1875C21.5954 16.2012 21.5856 16.2151 21.5752 16.2285C21.5569 16.2519 21.5388 16.2753 21.5195 16.2979C21.5085 16.3108 21.4968 16.3232 21.4854 16.3359C21.4483 16.3771 21.4094 16.4162 21.3691 16.4541C21.3467 16.4753 21.3242 16.4964 21.3008 16.5166C21.2809 16.5336 21.2607 16.5501 21.2402 16.5664C21.2102 16.5903 21.1798 16.6136 21.1484 16.6357C21.1326 16.6469 21.1168 16.6582 21.1006 16.6689C21.0654 16.6922 21.0289 16.7133 20.9922 16.7344C20.9687 16.7479 20.945 16.7609 20.9209 16.7734C20.8851 16.7921 20.8486 16.8096 20.8115 16.8262C20.7898 16.8358 20.7682 16.8456 20.7461 16.8545C20.7045 16.8713 20.6621 16.8864 20.6191 16.9004C20.6032 16.9056 20.5874 16.9112 20.5713 16.916C20.4583 16.9498 20.3412 16.9731 20.2207 16.9863C20.209 16.9876 20.1973 16.9882 20.1855 16.9893C20.1244 16.9949 20.0626 17 20 17C19.937 17 19.8749 16.995 19.8135 16.9893C19.8017 16.9882 19.79 16.9876 19.7783 16.9863C19.6579 16.973 19.5407 16.9498 19.4277 16.916C19.4116 16.9112 19.3958 16.9056 19.3799 16.9004C19.3369 16.8863 19.2945 16.8713 19.2529 16.8545C19.2308 16.8456 19.2092 16.8358 19.1875 16.8262C19.1504 16.8096 19.114 16.7922 19.0781 16.7734C19.054 16.7609 19.0303 16.7479 19.0068 16.7344C18.9704 16.7134 18.9343 16.6921 18.8994 16.6689C18.8832 16.6582 18.8674 16.6469 18.8516 16.6357C18.82 16.6135 18.789 16.5904 18.7588 16.5664C18.7383 16.5501 18.7181 16.5336 18.6982 16.5166C18.6748 16.4964 18.6523 16.4753 18.6299 16.4541C18.5898 16.4163 18.5515 16.3769 18.5146 16.3359C18.5032 16.3232 18.4915 16.3108 18.4805 16.2979C18.4611 16.2752 18.4422 16.2521 18.4238 16.2285C18.4134 16.2151 18.4037 16.2012 18.3936 16.1875C18.349 16.1273 18.3072 16.0651 18.2695 16H18C16.8954 16 16 15.1046 16 14V8.5C16 7.11929 17.1193 6 18.5 6H22.5ZM18.5 8C18.2239 8 18 8.22386 18 8.5V14H18.2695C18.3095 13.931 18.3537 13.8652 18.4014 13.8018C18.4091 13.7915 18.4159 13.7806 18.4238 13.7705C18.4435 13.7453 18.4635 13.7205 18.4844 13.6963C18.4998 13.6783 18.5161 13.661 18.5322 13.6436C18.5637 13.6095 18.5962 13.5767 18.6299 13.5449C18.6523 13.5237 18.6748 13.5026 18.6982 13.4824C18.7181 13.4654 18.7383 13.4489 18.7588 13.4326C18.7972 13.4021 18.8364 13.3724 18.877 13.3447C18.8887 13.3368 18.9012 13.33 18.9131 13.3223C18.9438 13.3023 18.975 13.283 19.0068 13.2646C19.0303 13.2512 19.054 13.2381 19.0781 13.2256C19.1139 13.2069 19.1505 13.1894 19.1875 13.1729C19.2092 13.1632 19.2308 13.1534 19.2529 13.1445C19.2945 13.1277 19.337 13.1127 19.3799 13.0986C19.3958 13.0934 19.4116 13.0878 19.4277 13.083C19.5407 13.0492 19.6579 13.026 19.7783 13.0127C19.79 13.0114 19.8017 13.0109 19.8135 13.0098C19.8749 13.0041 19.9371 13 20 13C20.0626 13 20.1244 13.0041 20.1855 13.0098C20.1973 13.0108 20.209 13.0114 20.2207 13.0127C20.3411 13.026 20.4583 13.0493 20.5713 13.083C20.5874 13.0878 20.6032 13.0934 20.6191 13.0986C20.6621 13.1126 20.7045 13.1277 20.7461 13.1445C20.7682 13.1534 20.7898 13.1632 20.8115 13.1729C20.8486 13.1894 20.8851 13.2069 20.9209 13.2256C20.945 13.2381 20.9687 13.2512 20.9922 13.2646C21.024 13.283 21.0552 13.3023 21.0859 13.3223C21.0978 13.33 21.1103 13.3368 21.1221 13.3447C21.1627 13.3724 21.2018 13.4021 21.2402 13.4326C21.2607 13.4489 21.2809 13.4654 21.3008 13.4824C21.3242 13.5026 21.3467 13.5237 21.3691 13.5449C21.4029 13.5767 21.4353 13.6095 21.4668 13.6436C21.4829 13.661 21.4992 13.6783 21.5146 13.6963C21.5355 13.7205 21.5555 13.7453 21.5752 13.7705C21.5832 13.7808 21.5908 13.7913 21.5986 13.8018C21.6463 13.8652 21.6905 13.931 21.7305 14H24V9.51855C23.9999 9.51177 23.999 9.50487 23.999 9.49805C23.999 9.49479 23.999 9.49153 23.999 9.48828C23.9927 8.66525 23.3245 8 22.5 8H18.5ZM26 13C26.0626 13 26.1244 13.0041 26.1855 13.0098C26.1973 13.0108 26.209 13.0114 26.2207 13.0127C26.3411 13.026 26.4583 13.0493 26.5713 13.083C26.5874 13.0878 26.6032 13.0934 26.6191 13.0986C26.6621 13.1126 26.7045 13.1277 26.7461 13.1445C26.7682 13.1534 26.7898 13.1632 26.8115 13.1729C26.8486 13.1894 26.8851 13.2069 26.9209 13.2256C26.945 13.2381 26.9687 13.2512 26.9922 13.2646C27.024 13.283 27.0552 13.3023 27.0859 13.3223C27.0978 13.33 27.1103 13.3368 27.1221 13.3447C27.1627 13.3724 27.2018 13.4021 27.2402 13.4326C27.2607 13.4489 27.2809 13.4654 27.3008 13.4824C27.3242 13.5026 27.3467 13.5237 27.3691 13.5449C27.4029 13.5767 27.4353 13.6095 27.4668 13.6436C27.4829 13.661 27.4992 13.6783 27.5146 13.6963C27.5355 13.7205 27.5555 13.7453 27.5752 13.7705C27.5832 13.7808 27.5908 13.7913 27.5986 13.8018C27.6458 13.8646 27.6898 13.9298 27.7295 13.998H28.4893L28.4648 11.4883C28.4623 11.2296 28.3605 10.9954 28.1973 10.8193C28.0146 10.6232 27.7546 10.5001 27.4658 10.5H26V13Z" fill="#1F1F22"/>
</svg>
