<svg width="20" height="20" viewBox="0 0 20 20" fill="none" xmlns="http://www.w3.org/2000/svg">
<path d="M10.125 12.9014C10.7378 10.2082 13.4392 8.51647 16.1592 9.12305C16.7032 9.2444 17.0454 9.77973 16.9229 10.3184C16.8003 10.857 16.2598 11.1954 15.7158 11.0742C14.0837 10.7101 12.4625 11.7248 12.0947 13.3408C11.7271 14.9567 12.7519 16.5616 14.3838 16.9258C16.0159 17.2899 17.6372 16.2752 18.0049 14.6592C18.1275 14.1206 18.6679 13.782 19.2119 13.9033C19.7559 14.0247 20.0972 14.56 19.9746 15.0986C19.3618 17.7918 16.6605 19.4836 13.9404 18.877C11.2203 18.2701 9.51214 15.5947 10.125 12.9014Z" fill="#1F1F22"/>
<path d="M17 1C18.6569 1 20 2.34315 20 4V7.5C20 8.05228 19.5523 8.5 19 8.5C18.4477 8.5 18 8.05228 18 7.5V4C18 3.44772 17.5523 3 17 3H3C2.44772 3 2 3.44772 2 4V13C2 13.5523 2.44772 14 3 14H7C7.55228 14 8 14.4477 8 15C8 15.5523 7.55228 16 7 16H3C1.34315 16 4.0266e-08 14.6569 0 13V4C0 2.34315 1.34315 1 3 1H17Z" fill="#1F1F22"/>
<path d="M17.4326 11.2324C17.8609 10.879 18.4974 10.9364 18.8545 11.3604C19.2115 11.7845 19.154 12.4151 18.7256 12.7686L15.6963 15.2676C15.2951 15.5986 14.7052 15.5726 14.3359 15.207L13.3262 14.207C12.9319 13.8166 12.9319 13.1834 13.3262 12.793C13.7204 12.4028 14.3596 12.4029 14.7539 12.793L15.1123 13.1475L17.4326 11.2324Z" fill="#1F1F22"/>
<path d="M15 5C15.5523 5 16 5.44772 16 6C16 6.55228 15.5523 7 15 7H5C4.44772 7 4 6.55228 4 6C4 5.44772 4.44772 5 5 5H15Z" fill="#1F1F22"/>
</svg>
