<svg width="32" height="32" viewBox="0 0 32 32" fill="none" xmlns="http://www.w3.org/2000/svg">
<path d="M9 6C9.55228 6 10 6.44772 10 7C10 7.55228 9.55228 8 9 8H8C7.44772 8 7 8.44772 7 9V20L7.00488 20.1025C7.05621 20.6067 7.48232 21 8 21H24C24.5523 21 25 20.5523 25 20V19.5C25 18.9477 25.4477 18.5 26 18.5C26.5523 18.5 27 18.9477 27 19.5V20C27 21.6569 25.6569 23 24 23H17V26H21C21.5523 26 22 26.4477 22 27C22 27.5523 21.5523 28 21 28H11C10.4477 28 10 27.5523 10 27C10 26.4477 10.4477 26 11 26H15V23H8C6.3949 23 5.08421 21.7394 5.00391 20.1543L5 20V9C5 7.34315 6.34315 6 8 6H9Z" fill="#1F1F22"/>
<path fill-rule="evenodd" clip-rule="evenodd" d="M20 2C24.4183 2 28 5.58172 28 10C28 14.4183 24.4183 18 20 18C15.5817 18 12 14.4183 12 10C12 5.58172 15.5817 2 20 2ZM18.3125 13C18.4427 13.5858 18.607 14.1103 18.7979 14.5557C19.0375 15.1149 19.2977 15.5039 19.5352 15.7383C19.7682 15.9681 19.924 16 20 16C20.076 16 20.2318 15.9681 20.4648 15.7383C20.7023 15.5039 20.9625 15.1149 21.2021 14.5557C21.393 14.1103 21.5573 13.5858 21.6875 13H18.3125ZM14.8047 13C15.3058 13.8659 16.0155 14.5957 16.8672 15.1182C16.6174 14.4875 16.4162 13.7728 16.2705 13H14.8047ZM23.7295 13C23.5838 13.7729 23.3817 14.4874 23.1318 15.1182C23.9838 14.5957 24.6941 13.8661 25.1953 13H23.7295ZM14.085 9C14.0304 9.32531 14 9.65917 14 10C14 10.3408 14.0304 10.6747 14.085 11H16.0293C16.0103 10.6716 16 10.3378 16 10C16 9.66216 16.0103 9.32835 16.0293 9H14.085ZM18.0361 9C18.0149 9.32453 18 9.6583 18 10C18 10.3417 18.0149 10.6755 18.0361 11H21.9639C21.9851 10.6755 22 10.3417 22 10C22 9.6583 21.9851 9.32453 21.9639 9H18.0361ZM23.9707 9C23.9897 9.32835 24 9.66216 24 10C24 10.3378 23.9897 10.6716 23.9707 11H25.915C25.9696 10.6747 26 10.3408 26 10C26 9.65917 25.9696 9.32531 25.915 9H23.9707ZM16.8672 4.88086C16.0153 5.40329 15.3058 6.13399 14.8047 7H16.2705C16.4163 6.22689 16.6172 5.51173 16.8672 4.88086ZM20 4C19.924 4 19.7682 4.03186 19.5352 4.26172C19.2977 4.49608 19.0375 4.88507 18.7979 5.44434C18.607 5.88966 18.4427 6.41423 18.3125 7H21.6875C21.5573 6.41423 21.393 5.88966 21.2021 5.44434C20.9625 4.88507 20.7023 4.49608 20.4648 4.26172C20.2318 4.03186 20.076 4 20 4ZM23.1318 4.88086C23.3819 5.51181 23.5837 6.22675 23.7295 7H25.1953C24.694 6.13375 23.984 5.40332 23.1318 4.88086Z" fill="#1F1F22"/>
</svg>
