<svg width="32" height="32" viewBox="0 0 32 32" fill="none" xmlns="http://www.w3.org/2000/svg">
<path d="M24.4453 16.168C24.9048 15.8616 25.5256 15.9859 25.832 16.4453L27.5352 19H29C29.3252 19 29.63 19.1581 29.8174 19.4238C30.0047 19.6896 30.0507 20.0297 29.9414 20.3359L27.4414 27.3359C27.2993 27.7339 26.9226 28 26.5 28H19.5C19.0775 27.9998 18.7007 27.7338 18.5586 27.3359L16.0586 20.3359C15.9494 20.0298 15.9955 19.6895 16.1826 19.4238C16.3699 19.1582 16.675 19.0001 17 19H18.4648L20.168 16.4453C20.4743 15.9859 21.0952 15.8618 21.5547 16.168C22.0142 16.4743 22.1384 17.0952 21.832 17.5547L20.8682 19H25.1318L24.168 17.5547C23.8618 17.0952 23.986 16.4743 24.4453 16.168ZM18.4189 21L20.2041 26H25.7959L27.5811 21H18.4189ZM10.0273 14.7314C10.7627 14.1192 11.6515 14.2446 12.2686 14.6748L12.3887 14.7656L12.3906 14.7666C13.304 15.5105 14.7142 15.9999 16 16C16.5522 16 16.9999 16.4478 17 17C16.9999 17.5522 16.5522 18 16 18C14.3141 17.9999 12.4837 17.3904 11.1924 16.3672C9.77731 17.6001 9.00012 19.2181 9 20.9834C9 21.1734 8.99977 21.3573 9.01172 21.542C9.02378 21.728 9.04579 21.8745 9.07715 21.9795C9.07938 21.9869 9.08285 21.9936 9.08496 22H14C14.5522 22 14.9999 22.4478 15 23C14.9999 23.5522 14.5522 24 14 24H9.00195C8.51514 23.9998 8.0755 23.8367 7.73438 23.5186C7.41692 23.2224 7.25195 22.8557 7.16113 22.5518C6.98767 21.9708 6.99999 21.3064 7 20.9834C7.00013 18.5226 8.12657 16.3204 10.0264 14.7324L10.0273 14.7314ZM16 4C18.7614 4 21 6.23858 21 9C21 11.7614 18.7614 14 16 14C13.2387 13.9999 11 11.7614 11 9C11 6.23864 13.2387 4.0001 16 4ZM16 6C14.3432 6.0001 13 7.34321 13 9C13 10.6568 14.3432 11.9999 16 12C17.6569 12 19 10.6569 19 9C19 7.34315 17.6569 6 16 6Z" fill="#1F1F22"/>
</svg>
