<svg width="32" height="32" viewBox="0 0 32 32" fill="none" xmlns="http://www.w3.org/2000/svg">
<path d="M21 3C22.6569 3 24 4.34315 24 6C24 6.55228 23.5523 7 23 7C22.4823 7 22.0562 6.60667 22.0049 6.10254L21.9951 5.89746C21.9438 5.39333 21.5177 5 21 5H19L18.9951 5.10254C18.9438 5.60667 18.5177 6 18 6H14C13.4477 6 13 5.55228 13 5H11C10.4477 5 10 5.44772 10 6V26C10 26.5523 10.4477 27 11 27H21C21.5177 27 21.9438 26.6067 21.9951 26.1025L22.0049 25.8975C22.0562 25.3933 22.4823 25 23 25C23.5523 25 24 25.4477 24 26C24 27.6569 22.6569 29 21 29H11C9.34315 29 8 27.6569 8 26V6C8 4.34315 9.34315 3 11 3H21Z" fill="#1F1F22"/>
<path d="M17.5 23C18.0523 23 18.5 23.4477 18.5 24C18.5 24.5523 18.0523 25 17.5 25H14.5C13.9477 25 13.5 24.5523 13.5 24C13.5 23.4477 13.9477 23 14.5 23H17.5Z" fill="#1F1F22"/>
<path fill-rule="evenodd" clip-rule="evenodd" d="M22.8555 9.01074C22.9994 8.98972 23.1467 8.99991 23.2871 9.04199L28.2871 10.542C28.7101 10.6689 29 11.0584 29 11.5V14.5C29 16.6321 28.3663 18.3073 27.3271 19.6719C26.307 21.0114 24.9292 22.0076 23.5146 22.8574C23.1979 23.0475 22.8021 23.0475 22.4854 22.8574C21.0701 22.0071 19.6927 21.0083 18.6729 19.668C17.6342 18.3029 17 16.6283 17 14.5V11.5C17 11.0584 17.2899 10.6689 17.7129 10.542L22.7129 9.04199L22.8555 9.01074ZM19 12.2441V14.5C19 16.191 19.4909 17.4401 20.2646 18.457C20.953 19.3617 21.891 20.1153 23 20.8232C24.1095 20.1154 25.0472 19.3636 25.7354 18.46C26.5086 17.4445 27 16.1955 27 14.5V12.2441L23 11.0439L19 12.2441Z" fill="#1F1F22"/>
</svg>
