<svg width="20" height="20" viewBox="0 0 20 20" fill="none" xmlns="http://www.w3.org/2000/svg">
<path d="M8 0C8.55228 0 9 0.447715 9 1C9 1.55228 8.55228 2 8 2H4C3.44772 2 3 2.44772 3 3V17C3 17.5523 3.44772 18 4 18H14C14.5523 18 15 17.5523 15 17V12C15 11.4477 15.4477 11 16 11C16.5523 11 17 11.4477 17 12V17C17 18.6569 15.6569 20 14 20H4C2.34315 20 1 18.6569 1 17V3C1 1.34315 2.34315 3.22128e-08 4 0H8Z" fill="#1F1F22"/>
<path d="M12 14C12.5523 14 13 14.4477 13 15C13 15.5523 12.5523 16 12 16H6C5.44772 16 5 15.5523 5 15C5 14.4477 5.44772 14 6 14H12Z" fill="#1F1F22"/>
<path d="M8 10C8.55228 10 9 10.4477 9 11C9 11.5523 8.55228 12 8 12H6C5.44772 12 5 11.5523 5 11C5 10.4477 5.44772 10 6 10H8Z" fill="#1F1F22"/>
<path fill-rule="evenodd" clip-rule="evenodd" d="M14.5 0C16.9821 5.28083e-08 19 2.01779 19 4.5C19 5.37952 18.7452 6.19977 18.3076 6.89355L19.707 8.29297C20.0975 8.68347 20.0975 9.31651 19.707 9.70703C19.3165 10.0976 18.6835 10.0975 18.293 9.70703L16.8936 8.30762C16.1998 8.74518 15.3795 9 14.5 9C12.0179 9 10 6.9823 10 4.5C10 2.01779 12.0179 0 14.5 0ZM14.5 2C13.1224 2 12 3.12242 12 4.5C12 5.87771 13.1224 7 14.5 7C15.8776 7 17 5.87771 17 4.5C17 3.12242 15.8776 2 14.5 2Z" fill="#1F1F22"/>
</svg>
