<svg width="32" height="32" viewBox="0 0 32 32" fill="none" xmlns="http://www.w3.org/2000/svg">
<path d="M9 4C6.23858 4 4 6.23858 4 9C4 11.7614 6.23858 14 9 14C11.7614 14 14 11.7614 14 9C14 6.23858 11.7614 4 9 4Z" fill="#1F1F22"/>
<path fill-rule="evenodd" clip-rule="evenodd" d="M18 9C18 6.23858 20.2386 4 23 4C25.7614 4 28 6.23858 28 9C28 11.7614 25.7614 14 23 14C20.2386 14 18 11.7614 18 9ZM23 6C21.3431 6 20 7.34315 20 9C20 10.6569 21.3431 12 23 12C24.6569 12 26 10.6569 26 9C26 7.34315 24.6569 6 23 6Z" fill="#1F1F22"/>
<path d="M23 18C20.2386 18 18 20.2386 18 23C18 25.7614 20.2386 28 23 28C25.7614 28 28 25.7614 28 23C28 20.2386 25.7614 18 23 18Z" fill="#1F1F22"/>
<path d="M9 18C6.23858 18 4 20.2386 4 23C4 25.7614 6.23858 28 9 28C11.7614 28 14 25.7614 14 23C14 20.2386 11.7614 18 9 18Z" fill="#1F1F22"/>
</svg>
