<svg width="32" height="32" viewBox="0 0 32 32" fill="none" xmlns="http://www.w3.org/2000/svg">
<path d="M19.9997 21C20.552 21 20.9997 21.4477 20.9997 22C20.9997 22.5523 20.552 23 19.9997 23H16.9997C16.4475 22.9999 15.9997 22.5522 15.9997 22C15.9997 21.4478 16.4475 21.0001 16.9997 21H19.9997Z" fill="#1F1F22"/>
<path fill-rule="evenodd" clip-rule="evenodd" d="M19.7311 16.6748C20.3482 16.2445 21.237 16.1192 21.9724 16.7314L21.9733 16.7324C23.8733 18.3204 24.9996 20.5225 24.9997 22.9834C24.9997 23.3064 25.012 23.9708 24.8386 24.5518C24.7477 24.8557 24.5828 25.2224 24.2653 25.5186C23.9241 25.8367 23.4847 25.9999 22.9978 26H9.00166C8.51485 25.9998 8.0752 25.8367 7.73408 25.5186C7.41662 25.2224 7.25166 24.8557 7.16084 24.5518C6.98737 23.9708 6.9997 23.3064 6.9997 22.9834C6.99983 20.5226 8.12628 18.3204 10.0261 16.7324L10.027 16.7314C10.7624 16.1192 11.6512 16.2446 12.2683 16.6748L12.3884 16.7656L12.3903 16.7666C13.3037 17.5105 14.7139 17.9999 15.9997 18C17.2856 18 18.6956 17.5105 19.6091 16.7666L19.611 16.7656L19.7311 16.6748ZM20.8073 18.3672C19.5159 19.3905 17.6857 20 15.9997 20C14.3138 19.9999 12.4834 19.3904 11.1921 18.3672C9.77701 19.6001 8.99983 21.2181 8.9997 22.9834C8.9997 23.1734 8.99948 23.3573 9.01142 23.542C9.02349 23.728 9.04549 23.8745 9.07685 23.9795C9.07909 23.9869 9.08256 23.9936 9.08467 24H22.9147C22.9168 23.9936 22.9203 23.9869 22.9226 23.9795C22.9539 23.8745 22.9759 23.728 22.988 23.542C22.9999 23.3573 22.9997 23.1734 22.9997 22.9834C22.9996 21.218 22.2225 19.6001 20.8073 18.3672Z" fill="#1F1F22"/>
<path fill-rule="evenodd" clip-rule="evenodd" d="M15.9997 6C18.7611 6 20.9997 8.23858 20.9997 11C20.9997 13.7614 18.7611 16 15.9997 16C13.2384 15.9999 10.9997 13.7614 10.9997 11C10.9997 8.23864 13.2384 6.0001 15.9997 6ZM15.9997 8C14.3429 8.0001 12.9997 9.34321 12.9997 11C12.9997 12.6568 14.3429 13.9999 15.9997 14C17.6566 14 18.9997 12.6569 18.9997 11C18.9997 9.34315 17.6566 8 15.9997 8Z" fill="#1F1F22"/>
</svg>
