<svg width="32" height="32" viewBox="0 0 32 32" fill="none" xmlns="http://www.w3.org/2000/svg">
<path d="M21.5 15.0004C22.332 15.0004 23.1303 15.1581 23.8643 15.4447C24.3783 15.6458 24.6325 16.2254 24.4316 16.7396C24.2307 17.254 23.6502 17.5079 23.1357 17.307C22.6301 17.1096 22.0789 17.0004 21.5 17.0004C19.0149 17.0004 17.0002 19.0153 17 21.5004C17 23.9856 19.0147 26.0004 21.5 26.0004C23.8713 26.0004 25.8148 24.1659 25.9873 21.8392C26.0282 21.2885 26.5079 20.8756 27.0586 20.9164C27.6094 20.9572 28.0233 21.4369 27.9824 21.9877C27.7328 25.3506 24.9262 28.0004 21.5 28.0004C17.9101 28.0004 15 25.0902 15 21.5004C15.0002 17.9107 17.9103 15.0004 21.5 15.0004Z" fill="#1F1F22"/>
<path d="M25.875 17.4701C26.3063 17.1251 26.9362 17.1951 27.2812 17.6263C27.6259 18.0575 27.556 18.6866 27.125 19.0316L22.125 23.0316C21.7638 23.3206 21.2509 23.3244 20.8857 23.0404L18.8857 21.4847C18.4499 21.1456 18.3719 20.5173 18.7109 20.0814C19.05 19.6455 19.6783 19.5666 20.1143 19.9056L21.4912 20.9769L25.875 17.4701Z" fill="#1F1F22"/>
<path d="M16.2783 4.02477C16.6315 3.94457 17.0008 4.06232 17.2432 4.33141L21.2031 8.7318L27.5039 5.13219C27.9833 4.85839 28.5941 5.02506 28.8682 5.50426C29.1421 5.98372 28.9755 6.59446 28.4961 6.86852L21.4961 10.8685C21.0875 11.102 20.5716 11.019 20.2568 10.6693L16.9531 6.99938L12.459 22.2826C12.3334 22.7095 11.9411 23.0021 11.4961 23.0004C11.0511 22.9986 10.6603 22.7027 10.5381 22.2748L7.24414 10.7474L5.89453 13.4476C5.72514 13.7864 5.37877 14.0004 5 14.0004H3C2.44772 14.0004 2 13.5526 2 13.0004C2.00023 12.4483 2.44786 12.0004 3 12.0004H4.38184L6.60547 7.55309C6.78996 7.18446 7.1823 6.96613 7.59277 7.00426C8.00316 7.04248 8.34852 7.32969 8.46191 7.72594L11.5137 18.4086L15.541 4.71813L15.5869 4.59215C15.7143 4.30748 15.9692 4.09501 16.2783 4.02477Z" fill="#1F1F22"/>
</svg>
