<svg width="32" height="32" viewBox="0 0 32 32" fill="none" xmlns="http://www.w3.org/2000/svg">
<path d="M13 5C13.5523 5 14 5.44772 14 6C14 6.55228 13.5523 7 13 7H10C9.44772 7 9 7.44772 9 8V25C9 25.5523 9.44772 26 10 26H22C22.5523 26 23 25.5523 23 25V18C23 17.4477 23.4477 17 24 17C24.5523 17 25 17.4477 25 18V25C25 26.6569 23.6569 28 22 28H10C8.34315 28 7 26.6569 7 25V8C7 6.34315 8.34315 5 10 5H13Z" fill="#1F1F22"/>
<path d="M20 21C20.5523 21 21 21.4477 21 22C21 22.5523 20.5523 23 20 23H12C11.4477 23 11 22.5523 11 22C11 21.4477 11.4477 21 12 21H20Z" fill="#1F1F22"/>
<path d="M15 17C15.5523 17 16 17.4477 16 18C16 18.5523 15.5523 19 15 19H12C11.4477 19 11 18.5523 11 18C11 17.4477 11.4477 17 12 17H15Z" fill="#1F1F22"/>
<path fill-rule="evenodd" clip-rule="evenodd" d="M21.5 4C24.5335 4 27 6.46639 27 9.5C27 10.6561 26.6406 11.729 26.0293 12.6152L28.207 14.793C28.5975 15.1835 28.5975 15.8165 28.207 16.207C27.8165 16.5976 27.1835 16.5975 26.793 16.207L24.6152 14.0293C23.729 14.6406 22.6561 15 21.5 15C18.4665 15 16 12.5337 16 9.5C16 6.46639 18.4665 4 21.5 4ZM21.5 6C19.571 6 18 7.57102 18 9.5C18 11.4291 19.5711 13 21.5 13C23.4289 13 25 11.4291 25 9.5C25 7.57102 23.429 6 21.5 6Z" fill="#1F1F22"/>
</svg>
