<svg width="20" height="20" viewBox="0 0 20 20" fill="none" xmlns="http://www.w3.org/2000/svg">
<path fill-rule="evenodd" clip-rule="evenodd" d="M15.4998 10.0002C17.1565 10.0002 18.4996 11.3435 18.4998 13.0002C18.4998 14.6571 17.1566 16.0002 15.4998 16.0002H14.4998V16.5002H14.9998C15.5519 16.5002 15.9996 16.9481 15.9998 17.5002C15.9998 18.0525 15.552 18.5002 14.9998 18.5002H14.4998V19.0002C14.4998 19.5525 14.052 20.0002 13.4998 20.0002C12.9476 20.0001 12.4998 19.5524 12.4998 19.0002V18.5002H11.9998C11.4476 18.5001 10.9998 18.0524 10.9998 17.5002C10.9999 16.9482 11.4477 16.5003 11.9998 16.5002H12.4998V16.0002H11.9998C11.4476 16.0001 10.9998 15.5524 10.9998 15.0002C10.9999 14.4482 11.4477 14.0003 11.9998 14.0002H12.4998V11.0002L12.5046 10.8977C12.5561 10.3938 12.9823 10.0003 13.4998 10.0002H15.4998ZM14.4998 14.0002H15.4998C16.052 14.0002 16.4998 13.5525 16.4998 13.0002C16.4996 12.4481 16.0519 12.0002 15.4998 12.0002H14.4998V14.0002Z" fill="#1F1F22"/>
<path d="M0.944091 10.0071C1.49296 9.94639 1.9878 10.342 2.04858 10.8909C2.45843 14.5968 5.40323 17.5424 9.10913 17.9524C9.65805 18.0131 10.0545 18.507 9.9939 19.0559C9.93298 19.6046 9.43818 20.0003 8.8894 19.9397C4.25294 19.4268 0.573021 15.7471 0.0603018 11.1106C-0.000180509 10.5621 0.395754 10.0682 0.944091 10.0071Z" fill="#1F1F22"/>
<path d="M11.1091 0.061754C15.746 0.574327 19.4255 4.25407 19.9382 8.89086C19.9987 9.43964 19.6033 9.93468 19.0544 9.99535C18.5059 10.0557 18.0118 9.65913 17.9509 9.11058C17.5411 5.40436 14.5957 2.45974 10.8894 2.05004C10.3409 1.98907 9.94524 1.49408 10.0056 0.945543C10.0665 0.397079 10.5606 0.00149645 11.1091 0.061754Z" fill="#1F1F22"/>
<path d="M5.60522 0.552965C5.85226 0.0592035 6.45315 -0.141132 6.94702 0.105699C7.44092 0.352651 7.6411 0.95356 7.39429 1.4475L5.86792 4.50023H5.99975C6.55194 4.50023 6.99959 4.94808 6.99975 5.50023C6.99975 6.05252 6.55204 6.50023 5.99975 6.50023H5.49975V7.00023H5.99975C6.55194 7.00023 6.99959 7.44808 6.99975 8.00023C6.99975 8.55252 6.55204 9.00023 5.99975 9.00023H5.49975C5.49975 9.55252 5.05204 10.0002 4.49975 10.0002C3.94757 10.0001 3.49975 9.55244 3.49975 9.00023H2.99975C2.44757 9.00011 1.99976 8.55244 1.99976 8.00023C1.99992 7.44816 2.44767 7.00035 2.99975 7.00023H3.49975V6.50023H2.99975C2.44757 6.50011 1.99976 6.05244 1.99976 5.50023C1.99992 4.94816 2.44767 4.50035 2.99975 4.50023H3.13159L1.60522 1.4475C1.35858 0.953658 1.55879 0.352682 2.05249 0.105699C2.54633 -0.141223 3.14717 0.059279 3.39429 0.552965L4.49975 2.7639L5.60522 0.552965Z" fill="#1F1F22"/>
</svg>
