<svg width="32" height="32" viewBox="0 0 32 32" fill="none" xmlns="http://www.w3.org/2000/svg">
<path d="M18.5068 7.64454C18.1691 7.36123 17.6658 7.40527 17.3825 7.7429L9.22417 17.4656C8.94086 17.8032 8.9849 18.3066 9.32253 18.5899L10.4232 19.5134C10.8463 19.8685 10.9014 20.4992 10.5464 20.9223C10.1914 21.3454 9.56069 21.4005 9.13761 21.0455L8.03696 20.122C6.85318 19.1287 6.69877 17.3638 7.69208 16.18L15.8504 6.45732C16.8437 5.27354 18.6086 5.11914 19.7924 6.11245L25.9501 11.2794C27.1338 12.2727 27.2882 14.0376 26.2949 15.2213L21.4455 21.0006C21.0905 21.4237 20.4598 21.4789 20.0367 21.1239C19.6136 20.7689 19.5584 20.1381 19.9134 19.7151L24.7628 13.9358C25.0461 13.5981 25.0021 13.0948 24.6645 12.8115L18.5068 7.64454Z" fill="#1F1F22"/>
<path d="M5 22.9999C4.44772 22.9999 4 23.4477 4 23.9999C4 24.5522 4.44772 24.9999 5 24.9999H27C27.5523 24.9999 28 24.5522 28 23.9999C28 23.4477 27.5523 22.9999 27 22.9999H5Z" fill="#1F1F22"/>
</svg>
