<svg width="20" height="20" viewBox="0 0 20 20" fill="none" xmlns="http://www.w3.org/2000/svg">
<path d="M8.21875 13.375C8.48406 13.0434 8.93033 12.9161 9.33105 13.0566C9.73168 13.1973 9.99999 13.5754 10 14V19C10 19.5523 9.55224 19.9999 9 20C8.44772 20 8 19.5523 8 19V16.249C7.78072 16.2492 7.55955 16.1789 7.375 16.0312C6.94374 15.6862 6.87374 15.0563 7.21875 14.625L8.21875 13.375Z" fill="#1F1F22"/>
<path d="M12.2188 13.375C12.4841 13.0434 12.9303 12.9161 13.3311 13.0566C13.7317 13.1973 14 13.5754 14 14V19C14 19.5523 13.5522 19.9999 13 20C12.4477 20 12 19.5523 12 19V16.249C11.7807 16.2492 11.5596 16.1789 11.375 16.0312C10.9437 15.6862 10.8737 15.0563 11.2188 14.625L12.2188 13.375Z" fill="#1F1F22"/>
<path d="M18.5 13C19.0523 13 19.5 13.4477 19.5 14C19.5 14.5523 19.0523 15 18.5 15H17V15.0908C17.4005 15.0528 17.8009 15.0893 18.167 15.1934C19.0937 15.4569 20 16.2327 20 17.5127C19.9999 18.7324 19.2124 19.5406 18.2783 19.8477C17.3885 20.1401 16.3308 20.0096 15.4697 19.4707C15.0016 19.1777 14.8594 18.5609 15.1523 18.0928C15.4453 17.6247 16.0622 17.4826 16.5303 17.7754C16.9114 18.0139 17.3539 18.0465 17.6533 17.9482C17.7954 17.9016 17.8788 17.8349 17.9229 17.7793C17.9605 17.7317 17.9999 17.6556 18 17.5127C18 17.3971 17.9666 17.3356 17.9268 17.29C17.8767 17.2329 17.7793 17.1625 17.6201 17.1172C17.2771 17.0197 16.8754 17.0962 16.6348 17.2939C16.3361 17.5395 15.9229 17.5908 15.5732 17.4258C15.2235 17.2605 15 16.9083 15 16.5215V14C15 13.4477 15.4477 13 16 13H18.5Z" fill="#1F1F22"/>
<path fill-rule="evenodd" clip-rule="evenodd" d="M8.17188 0C8.96742 8.00361e-05 9.73043 0.316368 10.293 0.878906L16.1211 6.70703C16.6836 7.26957 16.9999 8.03259 17 8.82812V10C17 10.5523 16.5523 11 16 11C15.4477 11 15 10.5523 15 10V9H11C9.34315 9 8 7.65685 8 6V2H4C3.44772 2 3 2.44772 3 3V17C3 17.5523 3.44772 18 4 18H4.5C5.05228 18 5.5 18.4477 5.5 19C5.5 19.5523 5.05228 20 4.5 20H4C2.34315 20 1 18.6569 1 17V3C1 1.34315 2.34315 4.83192e-08 4 0H8.17188ZM10 6C10 6.55228 10.4477 7 11 7H13.5859L10 3.41406V6Z" fill="#1F1F22"/>
</svg>
