<svg width="20" height="20" viewBox="0 0 20 20" fill="none" xmlns="http://www.w3.org/2000/svg">
<path d="M9.12468 12.9014C9.73755 10.2081 12.4397 8.51622 15.1598 9.12305C15.7036 9.24457 16.045 9.77984 15.9225 10.3184C15.8 10.857 15.2595 11.1956 14.7155 11.0742C13.0834 10.7101 11.4621 11.7248 11.0944 13.3408C10.7268 14.9566 11.7517 16.5615 13.3835 16.9258C15.0156 17.2899 16.6368 16.2752 17.0046 14.6592C17.1271 14.1206 17.6677 13.7821 18.2116 13.9033C18.7556 14.0247 19.0977 14.56 18.9753 15.0986C18.3624 17.7919 15.6602 19.4837 12.9401 18.877C10.22 18.2701 8.51185 15.5947 9.12468 12.9014Z" fill="#1F1F22"/>
<path d="M3.73113 9.56348C4.4317 8.98048 5.27733 9.10398 5.85808 9.50879L5.97038 9.59277L5.97234 9.59473C6.3392 9.89354 6.81112 10.1537 7.33855 10.3438C7.8581 10.5309 8.12721 11.1045 7.94011 11.624C7.75277 12.1433 7.18026 12.4127 6.66081 12.2256C6.00768 11.9903 5.38112 11.6605 4.84245 11.248C3.64989 12.3169 2.9998 13.7014 2.99968 15.207C2.99968 15.3768 2.99912 15.5364 3.00945 15.6963C3.0176 15.8221 3.03419 15.9227 3.05144 16H6.99968C7.55188 16 7.99954 16.4478 7.99968 17C7.99945 17.5521 7.55182 18 6.99968 18H2.89031C2.43187 17.9998 2.01351 17.8453 1.68816 17.542C1.38632 17.2604 1.23204 16.9129 1.14812 16.6318C0.988499 16.0968 0.999681 15.4893 0.999681 15.207C0.999807 12.9837 2.0177 10.996 3.72917 9.56543L3.73113 9.56348Z" fill="#1F1F22"/>
<path d="M16.4323 11.2324C16.8607 10.8789 17.4981 10.9362 17.8552 11.3604C18.212 11.7845 18.1536 12.4151 17.7253 12.7686L14.696 15.2676C14.2948 15.5986 13.7049 15.5727 13.3356 15.207L12.3259 14.207C11.9317 13.8166 11.9316 13.1834 12.3259 12.793C12.7201 12.4027 13.3593 12.4029 13.7536 12.793L14.112 13.1475L16.4323 11.2324Z" fill="#1F1F22"/>
<path fill-rule="evenodd" clip-rule="evenodd" d="M9.11101 0C11.5963 0 13.611 2.01472 13.611 4.5C13.611 6.98528 11.5963 9 9.11101 9C6.6258 8.99991 4.61101 6.98522 4.61101 4.5C4.61101 2.01478 6.6258 9.16109e-05 9.11101 0ZM9.11101 2C7.73037 2.00009 6.61101 3.11934 6.61101 4.5C6.61101 5.88066 7.73037 6.99991 9.11101 7C10.4917 7 11.611 5.88071 11.611 4.5C11.611 3.11929 10.4917 2 9.11101 2Z" fill="#1F1F22"/>
</svg>
