<svg width="20" height="20" viewBox="0 0 20 20" fill="none" xmlns="http://www.w3.org/2000/svg">
<path fill-rule="evenodd" clip-rule="evenodd" d="M15.5001 9.00005C17.1569 9.00005 18.5001 10.3432 18.5001 12C18.5001 13.6569 17.1569 15 15.5001 15H14.5001V15.5H15.0001C15.5523 15.5 16.0001 15.9478 16.0001 16.5C16.0001 17.0523 15.5523 17.5 15.0001 17.5H14.5001V18C14.5001 18.5523 14.0523 19 13.5001 19C12.9478 19 12.5001 18.5523 12.5001 18V17.5H12.0001C11.4478 17.5 11.0001 17.0523 11.0001 16.5C11.0001 15.9478 11.4478 15.5 12.0001 15.5H12.5001V15H12.0001C11.4478 15 11.0001 14.5523 11.0001 14C11.0001 13.4478 11.4478 13 12.0001 13H12.5001V10L12.5049 9.89751C12.5563 9.39338 12.9824 9.00005 13.5001 9.00005H15.5001ZM14.5001 13H15.5001C16.0523 13 16.5001 12.5523 16.5001 12C16.5001 11.4478 16.0523 11 15.5001 11H14.5001V13Z" fill="#1F1F22"/>
<path d="M3.09869 3.50493C3.49101 3.54382 3.82352 3.80969 3.9483 4.18364L6.36237 11.4268L6.53033 10.7579C6.66426 10.2222 7.20656 9.89658 7.74225 10.0303C8.27797 10.1643 8.60359 10.7065 8.46979 11.2422L7.46979 15.2422C7.36194 15.6735 6.98241 15.982 6.53815 15.9991C6.09413 16.016 5.69246 15.738 5.55182 15.3165L2.75885 6.93755L1.86822 8.49614C1.5942 8.97562 0.983468 9.14221 0.503967 8.86821C0.0245216 8.59419 -0.142059 7.98344 0.131897 7.50395L2.1319 4.00395L2.21393 3.88286C2.42283 3.61665 2.75535 3.47097 3.09869 3.50493Z" fill="#1F1F22"/>
<path d="M8.50006 6.00005C9.32849 6.00005 10.0001 6.67162 10.0001 7.50005C10.0001 8.32848 9.32849 9.00005 8.50006 9.00005C7.67163 9.00005 7.00006 8.32848 7.00006 7.50005C7.00006 6.67162 7.67163 6.00005 8.50006 6.00005Z" fill="#1F1F22"/>
<path d="M9.81842 0.0166504C10.2035 -0.0544773 10.5948 0.106002 10.8194 0.426807L13.8057 4.69341L18.5215 2.12212C19.0063 1.85788 19.6136 2.0368 19.878 2.52153C20.1422 3.00634 19.9633 3.61357 19.4786 3.87798L13.9786 6.87798C13.5315 7.12158 12.9727 6.99039 12.6807 6.57329L10.4376 3.36919L10.2198 4.24224C10.0858 4.77794 9.54358 5.10357 9.00787 4.96978C8.47222 4.83581 8.14657 4.29354 8.28033 3.75786L9.03033 0.757861L9.07526 0.61919C9.20318 0.308384 9.48154 0.0789883 9.81842 0.0166504Z" fill="#1F1F22"/>
</svg>
