<svg width="32" height="32" viewBox="0 0 32 32" fill="none" xmlns="http://www.w3.org/2000/svg">
<path d="M12.5 5C13.0523 5 13.5 5.44772 13.5 6C13.5 6.55228 13.0523 7 12.5 7H10C9.44772 7 9 7.44772 9 8V25C9 25.5523 9.44772 26 10 26H22C22.5523 26 23 25.5523 23 25V22C23 21.4477 23.4477 21 24 21C24.5523 21 25 21.4477 25 22V25C25 26.6569 23.6569 28 22 28H10C8.34315 28 7 26.6569 7 25V8C7 6.34315 8.34315 5 10 5H12.5Z" fill="#1F1F22"/>
<path d="M20 21C20.5523 21 21 21.4477 21 22C21 22.5523 20.5523 23 20 23H12C11.4477 23 11 22.5523 11 22C11 21.4477 11.4477 21 12 21H20Z" fill="#1F1F22"/>
<path d="M14 17C14.5523 17 15 17.4477 15 18C15 18.5523 14.5523 19 14 19H12C11.4477 19 11 18.5523 11 18C11 17.4477 11.4477 17 12 17H14Z" fill="#1F1F22"/>
<path d="M22 13C22.5533 13 23 13.4467 23 14C23 14.5533 22.5533 15 22 15C21.4467 15 21 14.5533 21 14C21 13.4467 21.4467 13 22 13Z" fill="#1F1F22"/>
<path d="M22 7C22.5523 7 23 7.44772 23 8V11C23 11.5523 22.5523 12 22 12C21.4477 12 21 11.5523 21 11V8C21 7.44772 21.4477 7 22 7Z" fill="#1F1F22"/>
<path fill-rule="evenodd" clip-rule="evenodd" d="M22 4C25.8606 4 29 7.13929 29 11C28.9999 14.8609 25.8606 18 22 18C18.1394 18 15.0001 14.8609 15 11C15 7.13929 18.1394 4 22 4ZM22 6C19.2439 6 17 8.24393 17 11C17.0001 13.7563 19.244 16 22 16C24.756 16 26.9999 13.7563 27 11C27 8.24393 24.7561 6 22 6Z" fill="#1F1F22"/>
</svg>
