<svg width="32" height="32" viewBox="0 0 32 32" fill="none" xmlns="http://www.w3.org/2000/svg">
<path d="M18.793 13.293C19.1835 12.9025 19.8165 12.9025 20.207 13.293C20.5975 13.6835 20.5975 14.3165 20.207 14.707L13.207 21.707C12.8165 22.0975 12.1835 22.0975 11.793 21.707C11.4024 21.3165 11.4024 20.6835 11.793 20.293L18.793 13.293Z" fill="#1F1F22"/>
<path d="M19 19C19.8284 19 20.5 19.6716 20.5 20.5C20.5 21.3284 19.8284 22 19 22C18.1716 22 17.5 21.3284 17.5 20.5C17.5 19.6716 18.1716 19 19 19Z" fill="#1F1F22"/>
<path d="M13 13C13.8284 13 14.5 13.6716 14.5 14.5C14.5 15.3284 13.8284 16 13 16C12.1716 16 11.5 15.3284 11.5 14.5C11.5 13.6716 12.1716 13 13 13Z" fill="#1F1F22"/>
<path fill-rule="evenodd" clip-rule="evenodd" d="M21 4C21.5523 4 22 4.44772 22 5V6H24C26.2091 6 28 7.79086 28 10V23C28 25.2091 26.2091 27 24 27H8C5.79086 27 4 25.2091 4 23V10C4 7.79086 5.79086 6 8 6H10V5C10 4.44772 10.4477 4 11 4C11.5523 4 12 4.44772 12 5V6H20V5C20 4.44772 20.4477 4 21 4ZM8 8C6.89543 8 6 8.89543 6 10V23C6 24.1046 6.89543 25 8 25H24C25.1046 25 26 24.1046 26 23V10C26 8.89543 25.1046 8 24 8H22V9C22 9.55228 21.5523 10 21 10C20.4477 10 20 9.55228 20 9V8H12V9C12 9.55228 11.5523 10 11 10C10.4477 10 10 9.55228 10 9V8H8Z" fill="#1F1F22"/>
</svg>
