<svg width="32" height="32" viewBox="0 0 32 32" fill="none" xmlns="http://www.w3.org/2000/svg">
<path d="M14 5C14.5523 5 15 5.44772 15 6C15 6.55228 14.5523 7 14 7H10C9.44772 7 9 7.44772 9 8V25C9 25.5523 9.44772 26 10 26H22C22.5523 26 23 25.5523 23 25V22C23 21.4477 23.4477 21 24 21C24.5523 21 25 21.4477 25 22V25C25 26.6569 23.6569 28 22 28H10C8.34315 28 7 26.6569 7 25V8C7 6.34315 8.34315 5 10 5H14Z" fill="#1F1F22"/>
<path d="M20 21C20.5523 21 21 21.4477 21 22C21 22.5523 20.5523 23 20 23H12C11.4477 23 11 22.5523 11 22C11 21.4477 11.4477 21 12 21H20Z" fill="#1F1F22"/>
<path d="M15 17C15.5523 17 16 17.4477 16 18C16 18.5523 15.5523 19 15 19H12C11.4477 19 11 18.5523 11 18C11 17.4477 11.4477 17 12 17H15Z" fill="#1F1F22"/>
<path fill-rule="evenodd" clip-rule="evenodd" d="M23 3C25.7614 3 28 5.23858 28 8C28 9.63553 27.2141 11.0868 26 11.999V17C26 17.3466 25.8202 17.6684 25.5254 17.8506C25.2306 18.0327 24.8626 18.0495 24.5527 17.8945L23 17.1182L21.4473 17.8945C21.1374 18.0495 20.7694 18.0327 20.4746 17.8506C20.1798 17.6684 20 17.3466 20 17V11.999C18.7859 11.0868 18 9.63553 18 8C18 5.23858 20.2386 3 23 3ZM24 12.8994C23.6769 12.965 23.3425 13 23 13C22.6575 13 22.3231 12.965 22 12.8994V15.3818L22.5527 15.1055C22.8343 14.9647 23.1657 14.9647 23.4473 15.1055L24 15.3818V12.8994ZM23 5C21.3431 5 20 6.34315 20 8C20 9.65685 21.3431 11 23 11C24.6569 11 26 9.65685 26 8C26 6.34315 24.6569 5 23 5Z" fill="#1F1F22"/>
<path d="M15 13C15.5523 13 16 13.4477 16 14C16 14.5523 15.5523 15 15 15H12C11.4477 15 11 14.5523 11 14C11 13.4477 11.4477 13 12 13H15Z" fill="#1F1F22"/>
</svg>
