<svg width="20" height="20" viewBox="0 0 20 20" fill="none" xmlns="http://www.w3.org/2000/svg">
<path d="M7.70708 4.70711C8.0976 4.31658 8.0976 3.68342 7.70708 3.29289C7.31655 2.90237 6.68339 2.90237 6.29286 3.29289L0.999971 8.58579C0.218922 9.36684 0.218922 10.6332 0.999971 11.4142L6.29286 16.7071C6.68339 17.0976 7.31655 17.0976 7.70708 16.7071C8.0976 16.3166 8.0976 15.6834 7.70708 15.2929L2.41418 10L7.70708 4.70711Z" fill="#1F1F22"/>
<path fill-rule="evenodd" clip-rule="evenodd" d="M10.5 7C10.5 6.44771 10.0523 6 9.5 6C8.94771 6 8.5 6.44771 8.5 7V13C8.5 13.5523 8.94771 14 9.5 14C10.0523 14 10.5 13.5523 10.5 13V11H12.126C12.5701 12.7252 14.1362 14 16 14C18.2091 14 20 12.2091 20 10C20 7.79086 18.2091 6 16 6C14.1362 6 12.5701 7.27477 12.126 9H10.5V7ZM16 8C14.8954 8 14 8.89543 14 10C14 11.1046 14.8954 12 16 12C17.1046 12 18 11.1046 18 10C18 8.89543 17.1046 8 16 8Z" fill="#1F1F22"/>
</svg>
