<svg width="20" height="20" viewBox="0 0 20 20" fill="none" xmlns="http://www.w3.org/2000/svg">
<path d="M10.0002 16C10.5525 16 11.0002 16.4477 11.0002 17V19C11.0002 19.5523 10.5525 20 10.0002 20C9.44803 19.9999 9.00022 19.5522 9.00022 19V17C9.00022 16.4478 9.44803 16.0001 10.0002 16Z" fill="#1F1F22"/>
<path d="M14.0002 14C14.5525 14 15.0002 14.4477 15.0002 15V19C15.0002 19.5523 14.5525 20 14.0002 20C13.448 19.9999 13.0002 19.5522 13.0002 19V15C13.0002 14.4478 13.448 14.0001 14.0002 14Z" fill="#1F1F22"/>
<path d="M18.0002 13C18.5525 13 19.0002 13.4477 19.0002 14V19C19.0002 19.5523 18.5525 20 18.0002 20C17.448 19.9999 17.0002 19.5522 17.0002 19V14C17.0002 13.4478 17.448 13.0001 18.0002 13Z" fill="#1F1F22"/>
<path d="M12.2531 9.50879C12.8338 9.10394 13.6795 8.98065 14.3801 9.56348L14.3811 9.56543C14.9363 10.0295 15.4206 10.5532 15.8205 11.127C16.1361 11.5798 16.0251 12.2026 15.5725 12.5186C15.1194 12.8343 14.4957 12.7235 14.1799 12.2705C13.9263 11.9067 13.6196 11.5652 13.2668 11.249C12.1542 12.1004 10.6308 12.6172 9.19748 12.6611C9.16926 12.6635 9.14039 12.666 9.11154 12.666C9.093 12.666 9.07446 12.6642 9.05588 12.6641C9.03738 12.6642 9.01868 12.666 9.00022 12.666C8.97122 12.666 8.94265 12.6636 8.91428 12.6611C7.48038 12.617 5.95562 12.1001 4.84299 11.248C3.65044 12.3168 3.00038 13.7014 3.00022 15.207C3.00022 15.3768 2.99965 15.5364 3.00998 15.6963C3.01813 15.8221 3.03473 15.9227 3.05197 16H6.00022C6.55242 16 7.00009 16.4478 7.00022 17C7.00008 17.5522 6.55242 18 6.00022 18H2.89084C2.4324 17.9998 2.01404 17.8453 1.68869 17.542C1.38695 17.2604 1.23161 16.9138 1.14768 16.6328C0.987974 16.0977 1.00022 15.4894 1.00022 15.207C1.00039 12.9838 2.01825 10.996 3.72971 9.56543L3.73166 9.56445C4.47892 8.94232 5.39091 9.12392 5.97092 9.59375L5.97287 9.59473C6.75046 10.2281 7.95179 10.6501 9.05588 10.6641C10.1602 10.6503 11.3611 10.2282 12.1389 9.59473L12.1408 9.59277L12.2531 9.50879Z" fill="#1F1F22"/>
<path fill-rule="evenodd" clip-rule="evenodd" d="M9.11154 0C11.5968 0 13.6115 2.01472 13.6115 4.5C13.6115 6.98528 11.5968 9 9.11154 9C6.62636 8.99988 4.61154 6.98521 4.61154 4.5C4.61154 2.01479 6.62636 0.000117379 9.11154 0ZM9.11154 2C7.73093 2.00012 6.61154 3.11936 6.61154 4.5C6.61154 5.88064 7.73093 6.99988 9.11154 7C10.4923 7 11.6115 5.88071 11.6115 4.5C11.6115 3.11929 10.4923 2 9.11154 2Z" fill="#1F1F22"/>
</svg>
