<svg width="20" height="20" viewBox="0 0 20 20" fill="none" xmlns="http://www.w3.org/2000/svg">
<path d="M2 10.2607C2.55228 10.2607 3 10.7085 3 11.2607V16C3.00007 16.2761 3.2239 16.5 3.5 16.5H15.25C15.4073 16.5 15.556 16.4257 15.6504 16.2998L17.5254 13.7998C17.6584 13.6222 17.6584 13.3778 17.5254 13.2002L16.7002 12.0996C16.369 11.6578 16.4587 11.0315 16.9004 10.7002C17.3422 10.369 17.9685 10.4586 18.2998 10.9004L19.125 12C19.7916 12.8889 19.7916 14.1111 19.125 15L17.25 17.5C16.7779 18.1295 16.0369 18.5 15.25 18.5H3.5C2.11933 18.5 1.00007 17.3807 1 16V11.2607C1 10.7085 1.44772 10.2607 2 10.2607Z" fill="#1F1F22"/>
<path fill-rule="evenodd" clip-rule="evenodd" d="M10.5 2C12.1568 2 13.4999 3.3432 13.5 5C13.5 5.51038 13.3713 5.99037 13.1465 6.41113C14.2495 7.00022 15 8.16233 15 9.5C15 11.433 13.433 13 11.5 13H7.5C7.44643 13 7.39406 12.9944 7.34277 12.9863C7.29748 12.9792 7.25303 12.9701 7.20996 12.957C7.15247 12.9396 7.09752 12.9166 7.04492 12.8896C7.00644 12.8699 6.96899 12.8486 6.93359 12.8242C6.91711 12.8129 6.90149 12.8004 6.88574 12.7881C6.87659 12.781 6.86729 12.774 6.8584 12.7666C6.85187 12.7611 6.84623 12.7547 6.83984 12.749C6.74291 12.6636 6.66256 12.5603 6.60449 12.4434C6.58615 12.4064 6.56939 12.3685 6.55566 12.3291C6.53103 12.2584 6.51311 12.1843 6.50488 12.1074C6.50112 12.0722 6.5 12.0363 6.5 12C6.5 11.9974 6.49998 11.9948 6.5 11.9922L6.49219 11H5.5C4.94772 11 4.5 10.5523 4.5 10C4.5 9.44772 4.94772 9 5.5 9H6.47559L6.46777 8C5.95161 8 5.59546 8 5.5 8C5.35057 8 5.20936 7.96598 5.08203 7.90723C5.04385 7.88959 5.00707 7.86978 4.97168 7.84766C4.68885 7.67101 4.5 7.35803 4.5 7C4.50001 6.44772 4.94772 6 5.5 6H6.45215L6.42871 3.0791C6.42646 2.78035 6.55536 2.51101 6.76172 2.32617C6.94453 2.12595 7.20752 2.00007 7.5 2H10.5ZM8.49219 11H11.5C12.3284 11 13 10.3284 13 9.5C13 8.67112 12.3289 8.00003 11.501 8C10.5509 8 9.45897 8 8.46777 8L8.49219 11ZM8.45215 6H10.5C11.0522 6 11.4999 5.55222 11.5 5C11.4999 4.44777 11.0522 4 10.5 4H8.43652L8.45215 6Z" fill="#1F1F22"/>
</svg>
