<svg width="32" height="32" viewBox="0 0 32 32" fill="none" xmlns="http://www.w3.org/2000/svg">
<path d="M15 5C15.5523 5 16 5.44772 16 6C16 6.55228 15.5523 7 15 7C9.47715 7 5 11.4772 5 17V27H15C20.5228 27 25 22.5228 25 17C25 16.4477 25.4477 16 26 16C26.5523 16 27 16.4477 27 17C27 23.6274 21.6274 29 15 29H4C3.44772 29 3 28.5523 3 28V17C3 10.3726 8.37258 5 15 5Z" fill="#1F1F22"/>
<path fill-rule="evenodd" clip-rule="evenodd" d="M17.5 11C18.0523 11 18.5 11.4477 18.5 12C18.5 12.5523 18.0523 13 17.5 13H12V15H16C18.2091 15 20 16.7909 20 19C20 21.2091 18.2091 23 16 23H11C10.4477 23 10 22.5523 10 22V13C10 11.8954 10.8954 11 12 11H17.5ZM12 21H16C17.1046 21 18 20.1046 18 19C18 17.8954 17.1046 17 16 17H12V21Z" fill="#1F1F22"/>
<path d="M25.5 0C26.332 0 27.1303 0.156738 27.8643 0.443359C28.3783 0.64435 28.6322 1.22407 28.4316 1.73828C28.2307 2.25273 27.6502 2.50755 27.1357 2.30664C26.63 2.1092 26.079 2 25.5 2C23.0147 2 21 4.01472 21 6.5C21 8.98528 23.0147 11 25.5 11C27.8712 11 29.8146 9.16535 29.9873 6.83887C30.0281 6.28814 30.5079 5.87428 31.0586 5.91504C31.6093 5.95587 32.0232 6.43562 31.9824 6.98633C31.7331 10.3495 28.9263 13 25.5 13C21.9101 13 19 10.0899 19 6.5C19 2.91015 21.9101 0 25.5 0Z" fill="#1F1F22"/>
<path d="M29.875 2.46875C30.3062 2.12375 30.9362 2.19378 31.2812 2.625C31.6263 3.05626 31.5563 3.68624 31.125 4.03125L26.125 8.03125C25.7638 8.32022 25.2509 8.32306 24.8857 8.03906L22.8857 6.4834C22.4502 6.14425 22.372 5.51588 22.7109 5.08008C23.0501 4.64449 23.6784 4.56631 24.1143 4.90527L25.4912 5.97656L29.875 2.46875Z" fill="#1F1F22"/>
</svg>
