<svg width="32" height="32" viewBox="0 0 32 32" fill="none" xmlns="http://www.w3.org/2000/svg">
<path fill-rule="evenodd" clip-rule="evenodd" d="M16 8.70017C16.5523 8.70017 17 9.14788 17 9.70017V10.1484C20.0159 10.4478 22.2777 12.091 23.2119 14.1728C23.2569 14.2731 23.2833 14.3768 23.2939 14.4804C23.3496 14.9422 23.0747 15.3949 22.6162 15.5478L20.5166 16.248C20.3113 16.3164 20.0891 16.3164 19.8838 16.248L18.0996 15.6523L17 16.0195V20.5C17 20.7761 17.2239 21 17.5 21C17.7761 21 18 20.7761 18 20.5C18 19.9477 18.4477 19.5 19 19.5C19.5523 19.5 20 19.9477 20 20.5C20 21.8806 18.8807 23 17.5 23C16.1193 23 15 21.8806 15 20.5V16.0195L13.9004 15.6523L12.1162 16.248C11.9109 16.3164 11.6887 16.3164 11.4834 16.248L9.38379 15.5478C8.91947 15.393 8.64404 14.9307 8.70898 14.4629C8.72075 14.3652 8.74667 14.2674 8.78906 14.1728C9.72312 12.0913 11.9849 10.4483 15 10.1484V9.70017C15 9.14788 15.4477 8.70017 16 8.70017ZM15.999 12.0996C13.7666 12.0998 12.1387 12.9681 11.2178 14.0517L11.8008 14.2461L13.584 13.6513C13.7379 13.6001 13.901 13.5866 14.0596 13.6123L14.2158 13.6513L16 14.2451L17.7842 13.6513L17.9404 13.6123C18.099 13.5866 18.2621 13.6001 18.416 13.6513L20.1992 14.2461L20.7822 14.0508C19.861 12.9677 18.2337 12.0997 16.002 12.0996L16 12.0986L15.999 12.0996Z" fill="#1F1F22"/>
<path fill-rule="evenodd" clip-rule="evenodd" d="M15.71 4.04294C15.899 3.98569 16.101 3.98569 16.29 4.04294L26.29 7.07224C26.7116 7.20005 27 7.58873 27 8.02927V13.582C27 21.1348 22.117 25.7729 16.4824 28.8759C16.1821 29.0413 15.8179 29.0413 15.5176 28.8759C9.88238 25.7725 5.00002 21.1194 5 13.582V8.02927C5 7.58873 5.28839 7.20005 5.70996 7.07224L15.71 4.04294ZM7 8.77048V13.582C7.00002 19.8542 10.8729 23.9179 16 26.8525C21.1276 23.9184 25 19.8682 25 13.582V8.77048L16 6.04392L7 8.77048Z" fill="#1F1F22"/>
</svg>
