<svg width="20" height="20" viewBox="0 0 20 20" fill="none" xmlns="http://www.w3.org/2000/svg">
<path d="M17.4994 11.0004C18.0517 11.0004 18.4994 11.4481 18.4994 12.0004V17.0004C18.4992 18.6571 17.1561 20.0004 15.4994 20.0004H4.49939C2.84275 20.0003 1.49959 18.657 1.49939 17.0004V12.0004C1.49939 11.4482 1.94719 11.0005 2.49939 11.0004C3.05167 11.0004 3.49939 11.4481 3.49939 12.0004V17.0004C3.49959 17.5525 3.94732 18.0003 4.49939 18.0004H15.4994C16.0515 18.0004 16.4992 17.5525 16.4994 17.0004V12.0004C16.4994 11.4482 16.9472 11.0005 17.4994 11.0004Z" fill="#1F1F22"/>
<path d="M9.99939 6.00042C10.4181 6.00042 10.8272 6.04747 11.2211 6.13713C11.7596 6.25979 12.0967 6.79591 11.974 7.3344C11.8512 7.87253 11.3159 8.20972 10.7777 8.08733C10.5283 8.03053 10.2676 8.00042 9.99939 8.00042C8.07048 8.00052 6.49939 9.5715 6.49939 11.5004C6.49964 13.4293 8.07067 15.0003 9.99939 15.0004C11.6591 15.0004 13.0574 13.8358 13.4125 12.2787C13.5351 11.7403 14.0713 11.4032 14.6097 11.5258C15.1479 11.6486 15.485 12.1839 15.3627 12.7221C14.8054 15.1679 12.6146 17.0004 9.99939 17.0004C6.96611 17.0003 4.49964 14.5339 4.49939 11.5004C4.49939 8.46687 6.96598 6.00052 9.99939 6.00042Z" fill="#1F1F22"/>
<path d="M12.3734 8.82366C12.8042 8.47815 13.4341 8.54722 13.7797 8.97795C14.125 9.40875 14.0561 10.0387 13.6254 10.3842L10.6283 12.7875C10.2663 13.0778 9.75162 13.0811 9.38611 12.7953L8.38318 12.0102C7.94836 11.6698 7.87202 11.0418 8.21228 10.6069C8.55258 10.1721 9.18069 10.0949 9.6156 10.435L9.9945 10.7309L12.3734 8.82366Z" fill="#1F1F22"/>
<path d="M8.72009 0.76604C9.46178 0.147981 10.539 0.147966 11.2806 0.76604L14.0092 3.03948L13.9994 1.50725C13.9958 0.95519 14.4406 0.504301 14.9926 0.500415C15.5447 0.496872 15.9956 0.9415 15.9994 1.49358L16.0199 4.71526L19.64 7.73186C20.0639 8.0855 20.1224 8.71692 19.7689 9.14104C19.4155 9.56509 18.784 9.62208 18.3597 9.26897L10.0004 2.30217L1.64099 9.26897C1.2169 9.62238 0.585464 9.56481 0.23181 9.14104C-0.12173 8.7168 -0.0644513 8.08544 0.35974 7.73186L8.72009 0.76604Z" fill="#1F1F22"/>
</svg>
