<svg width="20" height="20" viewBox="0 0 20 20" fill="none" xmlns="http://www.w3.org/2000/svg">
<path d="M14.0837 10.6914C14.4379 10.2678 15.0692 10.2113 15.4929 10.5654C17.2044 11.9961 18.2223 13.9845 18.2223 16.208C18.2224 16.4906 18.2336 17.0979 18.0739 17.6328C17.99 17.9139 17.8357 18.2604 17.5339 18.542C17.2085 18.8454 16.7902 18.9998 16.3317 19H3.89031C3.43176 18.9998 3.01355 18.8454 2.68816 18.542C2.38626 18.2604 2.23208 17.9139 2.14813 17.6328C1.98839 17.0979 1.99968 16.4906 1.99969 16.208C1.99969 13.9845 3.01756 11.9961 4.72918 10.5654C5.1529 10.2113 5.78416 10.2678 6.13836 10.6914C6.49252 11.1152 6.4361 11.7464 6.01238 12.1006C4.71143 13.188 3.99969 14.6321 3.99969 16.208C3.99969 16.3777 3.99912 16.5365 4.00945 16.6963C4.0176 16.8222 4.03421 16.9227 4.05145 17H16.1706C16.1878 16.9227 16.2044 16.8222 16.2126 16.6963C16.2229 16.5365 16.2223 16.3777 16.2223 16.208C16.2223 14.6321 15.5105 13.188 14.2096 12.1006C13.7859 11.7464 13.7295 11.1152 14.0837 10.6914Z" fill="#1F1F22"/>
<path d="M9.99969 12C10.552 12 10.9997 12.4477 10.9997 13V15C10.9997 15.5523 10.552 16 9.99969 16C9.44748 15.9999 8.99969 15.5522 8.99969 15V13C8.99969 12.4478 9.44748 12.0001 9.99969 12Z" fill="#1F1F22"/>
<path fill-rule="evenodd" clip-rule="evenodd" d="M10.111 1C12.5963 1 14.611 3.01472 14.611 5.5C14.611 7.98528 12.5963 10 10.111 10C7.62582 9.9999 5.61102 7.98522 5.61102 5.5C5.61102 3.01478 7.62582 1.0001 10.111 1ZM10.111 3C8.73039 3.0001 7.61102 4.11935 7.61102 5.5C7.61102 6.88065 8.73039 7.9999 10.111 8C11.4917 8 12.611 6.88071 12.611 5.5C12.611 4.11929 11.4917 3 10.111 3Z" fill="#1F1F22"/>
</svg>
