<svg width="32" height="32" viewBox="0 0 32 32" fill="none" xmlns="http://www.w3.org/2000/svg">
<path d="M4 15C4.55228 15 5 15.4477 5 16C5 22.0751 9.92487 27 16 27C17.2875 27 18.5214 26.7789 19.667 26.374C20.1876 26.1902 20.7584 26.4638 20.9424 26.9844C21.1263 27.505 20.8536 28.0757 20.333 28.2598C18.9764 28.7392 17.5176 29 16 29C8.8203 29 3 23.1797 3 16C3 15.4477 3.44772 15 4 15Z" fill="#1F1F22"/>
<path fill-rule="evenodd" clip-rule="evenodd" d="M18.5 13C18.9249 13 19.304 13.2688 19.4443 13.6699L22.9443 23.6699C23.1265 24.1911 22.8512 24.7619 22.3301 24.9443C21.8089 25.1265 21.2381 24.8512 21.0557 24.3301L20.2402 22H16.7598L15.9443 24.3301C15.7619 24.8512 15.1911 25.1265 14.6699 24.9443C14.1488 24.7619 13.8735 24.1911 14.0557 23.6699L17.5557 13.6699C17.696 13.2689 18.0751 13 18.5 13ZM17.46 20H19.54L18.5 17.0273L17.46 20Z" fill="#1F1F22"/>
<path d="M29 18.5C29.5523 18.5 30 18.9477 30 19.5V24C30 24.5523 29.5523 25 29 25C28.7226 25 28.4722 24.8865 28.291 24.7041C27.8995 24.8913 27.4629 25 27 25C25.3949 25 24.0842 23.7394 24.0039 22.1543L24 22V19.5C24 18.9477 24.4477 18.5 25 18.5C25.5523 18.5 26 18.9477 26 19.5V22L26.0049 22.1025C26.0562 22.6067 26.4823 23 27 23C27.5177 23 27.9438 22.6067 27.9951 22.1025L28 22V19.5C28 18.9477 28.4477 18.5 29 18.5Z" fill="#1F1F22"/>
<path d="M16 3C23.1797 3 29 8.8203 29 16C29 16.5523 28.5523 17 28 17C27.4477 17 27 16.5523 27 16C27 9.92487 22.0751 5 16 5C15.4477 5 15 4.55228 15 4C15 3.44772 15.4477 3 16 3Z" fill="#1F1F22"/>
<path fill-rule="evenodd" clip-rule="evenodd" d="M9.5 3C11.433 3 13 4.567 13 6.5C13 8.433 11.433 10 9.5 10H8V11H8.98828C9.54057 11 9.98828 11.4477 9.98828 12C9.98828 12.5523 9.54057 13 8.98828 13H8V14C8 14.5523 7.55228 15 7 15C6.44772 15 6 14.5523 6 14V13H5C4.44772 13 4 12.5523 4 12C4 11.4477 4.44772 11 5 11H6V10H5C4.44772 10 4 9.55228 4 9C4 8.44772 4.44772 8 5 8H6V4L6.00488 3.89746C6.05621 3.39333 6.48232 3 7 3H9.5ZM8 8H9.5C10.3284 8 11 7.32843 11 6.5C11 5.67157 10.3284 5 9.5 5H8V8Z" fill="#1F1F22"/>
</svg>
