<svg width="20" height="20" viewBox="0 0 20 20" fill="none" xmlns="http://www.w3.org/2000/svg">
<path d="M9 1.99999C9.55229 1.99999 10 2.4477 10 2.99999C10 3.55227 9.55229 3.99999 9 3.99999H3C2.44772 3.99999 2 4.4477 2 4.99999V13L2.00488 13.1025C2.05621 13.6067 2.48232 14 3 14H15C15.5523 14 16 13.5523 16 13V11C16 10.4477 16.4477 9.99999 17 9.99999C17.5523 9.99999 18 10.4477 18 11V13C18 14.6568 16.6569 16 15 16H10V18H13C13.5523 18 14 18.4477 14 19C14 19.5523 13.5523 20 13 20H5C4.44772 20 4 19.5523 4 19C4 18.4477 4.44772 18 5 18H8V16H3C1.39489 16 0.0842144 14.7394 0.00390625 13.1543L0 13V4.99999C1.28853e-07 3.34313 1.34315 1.99999 3 1.99999H9Z" fill="#1F1F22"/>
<path d="M18.293 0.292955C18.6835 -0.0975702 19.3165 -0.0975702 19.707 0.292955C20.0976 0.683479 20.0976 1.31649 19.707 1.70702L15.4141 5.99999H18C18.5523 5.99999 19 6.4477 19 6.99999C19 7.55227 18.5523 7.99999 18 7.99999H13C12.7249 7.99999 12.4757 7.88869 12.2949 7.70897L12.291 7.70506C12.1962 7.60972 12.1246 7.49983 12.0762 7.3828C12.0273 7.26489 12 7.13558 12 6.99999V1.99999C12 1.4477 12.4477 0.999986 13 0.999986C13.5523 0.999986 14 1.4477 14 1.99999V4.58592L18.293 0.292955Z" fill="#1F1F22"/>
</svg>
