<svg width="20" height="20" viewBox="0 0 20 20" fill="none" xmlns="http://www.w3.org/2000/svg">
<path d="M17 0C18.6569 0 20 1.34315 20 3V4C20 4.55228 19.5523 5 19 5C18.4477 5 18 4.55228 18 4V3C18 2.44772 17.5523 2 17 2H3C2.44772 2 2 2.44772 2 3V6H14C14.5523 6 15 6.44772 15 7C15 7.55228 14.5523 8 14 8H2V17C2 17.5523 2.44772 18 3 18H17C17.5523 18 18 17.5523 18 17V16C18 15.4477 18.4477 15 19 15C19.5523 15 20 15.4477 20 16V17C20 18.6569 18.6569 20 17 20H3C1.34315 20 8.05319e-09 18.6569 0 17V3C0 1.34315 1.34315 8.05319e-09 3 0H17Z" fill="#1F1F22"/>
<path d="M17.7959 8.79004C18.1881 8.40141 18.8212 8.40392 19.21 8.7959C19.5986 9.1881 19.5961 9.8212 19.2041 10.21L14.2041 15.165C13.8156 15.55 13.1901 15.551 12.7998 15.168L10.2998 12.7139C9.90586 12.3271 9.89957 11.6939 10.2861 11.2998C10.6729 10.9058 11.3061 10.8996 11.7002 11.2861L13.4961 13.0498L17.7959 8.79004Z" fill="#1F1F22"/>
<path d="M4 3C4.55228 3 5 3.44772 5 4C5 4.55228 4.55228 5 4 5C3.44772 5 3 4.55228 3 4C3 3.44772 3.44772 3 4 3Z" fill="#1F1F22"/>
<path d="M7 3C7.55228 3 8 3.44772 8 4C8 4.55228 7.55228 5 7 5C6.44772 5 6 4.55228 6 4C6 3.44772 6.44772 3 7 3Z" fill="#1F1F22"/>
<path d="M10 3C10.5523 3 11 3.44772 11 4C11 4.55228 10.5523 5 10 5C9.44771 5 9 4.55228 9 4C9 3.44772 9.44771 3 10 3Z" fill="#1F1F22"/>
</svg>
