<svg width="20" height="20" viewBox="0 0 20 20" fill="none" xmlns="http://www.w3.org/2000/svg">
<path d="M8.19489 1.20728C9.36646 0.0357016 11.2655 0.0357034 12.4371 1.20728L14.2818 3.05103C15.4534 4.2226 15.4534 6.12262 14.2818 7.29419L11.6002 9.97485L14.3062 12.6809C15.4777 13.8524 15.4776 15.7515 14.3062 16.9231L12.4615 18.7678C11.2899 19.9394 9.39087 19.9394 8.2193 18.7678L1.70172 12.2502C1.14634 11.6948 0.853332 10.974 0.824768 10.2473C0.704659 9.35429 0.988474 8.41271 1.67731 7.72388L8.19489 1.20728ZM11.023 2.62134C10.6325 2.23081 9.99947 2.23081 9.60895 2.62134L3.09137 9.13892C2.85648 9.37385 2.76216 9.6958 2.8111 10.0042L2.82184 10.0745L2.82281 10.1448C2.82677 10.3967 2.9243 10.6447 3.11578 10.8362L9.63336 17.3538C10.0239 17.7443 10.6569 17.7443 11.0474 17.3538L12.8922 15.509C13.2825 15.1185 13.2826 14.4854 12.8922 14.095L9.47906 10.6819C9.08881 10.2913 9.08863 9.65826 9.47906 9.26782L12.8677 5.88013C13.2581 5.48972 13.2579 4.85662 12.8677 4.46606L11.023 2.62134ZM17.4996 8.50024C18.328 8.50024 18.9996 9.17182 18.9996 10.0002C18.9995 10.8286 18.3279 11.5002 17.4996 11.5002C16.6714 11.5 15.9997 10.8284 15.9996 10.0002C15.9996 9.17196 16.6713 8.50048 17.4996 8.50024Z" fill="#1F1F22"/>
</svg>
