<svg width="20" height="20" viewBox="0 0 20 20" fill="none" xmlns="http://www.w3.org/2000/svg">
<path fill-rule="evenodd" clip-rule="evenodd" d="M10.0001 0.599609C8.34327 0.599609 7.00012 1.94276 7.00012 3.59961C7.00012 5.25646 8.34327 6.59961 10.0001 6.59961C11.657 6.59961 13.0001 5.25646 13.0001 3.59961C13.0001 1.94276 11.657 0.599609 10.0001 0.599609ZM9.00012 3.59961C9.00012 3.04732 9.44784 2.59961 10.0001 2.59961C10.5524 2.59961 11.0001 3.04732 11.0001 3.59961C11.0001 4.15189 10.5524 4.59961 10.0001 4.59961C9.44784 4.59961 9.00012 4.15189 9.00012 3.59961Z" fill="#1F1F22"/>
<path fill-rule="evenodd" clip-rule="evenodd" d="M3.6001 11.5996C1.94324 11.5996 0.600098 12.9428 0.600098 14.5996C0.600098 16.2565 1.94324 17.5996 3.6001 17.5996C5.25695 17.5996 6.6001 16.2565 6.6001 14.5996C6.6001 12.9428 5.25695 11.5996 3.6001 11.5996ZM2.6001 14.5996C2.6001 14.0473 3.04781 13.5996 3.6001 13.5996C4.15238 13.5996 4.6001 14.0473 4.6001 14.5996C4.6001 15.1519 4.15238 15.5996 3.6001 15.5996C3.04781 15.5996 2.6001 15.1519 2.6001 14.5996Z" fill="#1F1F22"/>
<path fill-rule="evenodd" clip-rule="evenodd" d="M13.4001 14.5996C13.4001 12.9428 14.7433 11.5996 16.4001 11.5996C18.057 11.5996 19.4001 12.9428 19.4001 14.5996C19.4001 16.2565 18.057 17.5996 16.4001 17.5996C14.7433 17.5996 13.4001 16.2565 13.4001 14.5996ZM16.4001 13.5996C15.8479 13.5996 15.4001 14.0473 15.4001 14.5996C15.4001 15.1519 15.8479 15.5996 16.4001 15.5996C16.9524 15.5996 17.4001 15.1519 17.4001 14.5996C17.4001 14.0473 16.9524 13.5996 16.4001 13.5996Z" fill="#1F1F22"/>
<path d="M5.66706 6.15433C6.07859 5.786 6.11361 5.1538 5.74528 4.74228C5.37696 4.33075 4.74476 4.29573 4.33324 4.66405C2.99795 5.85916 2.04125 7.47236 1.67015 9.30054C1.56028 9.84178 1.90998 10.3696 2.45123 10.4795C2.99247 10.5893 3.52031 10.2396 3.63017 9.6984C3.91312 8.30448 4.64328 7.07063 5.66706 6.15433Z" fill="#1F1F22"/>
<path d="M15.667 4.66405C15.2555 4.29573 14.6233 4.33075 14.255 4.74228C13.8867 5.1538 13.9217 5.786 14.3332 6.15433C15.357 7.07063 16.0871 8.30448 16.3701 9.6984C16.48 10.2396 17.0078 10.5893 17.549 10.4795C18.0903 10.3696 18.44 9.84178 18.3301 9.30054C17.959 7.47236 17.0023 5.85916 15.667 4.66405Z" fill="#1F1F22"/>
<path d="M7.95182 17.1704C7.42762 16.9965 6.86171 17.2805 6.68782 17.8047C6.51393 18.3289 6.7979 18.8948 7.3221 19.0687C8.16534 19.3484 9.06611 19.4995 10.0001 19.4995C10.9342 19.4995 11.8349 19.3484 12.6782 19.0687C13.2024 18.8948 13.4863 18.3289 13.3124 17.8047C13.1386 17.2805 12.5726 16.9965 12.0484 17.1704C11.4057 17.3836 10.7175 17.4995 10.0001 17.4995C9.28279 17.4995 8.59451 17.3836 7.95182 17.1704Z" fill="#1F1F22"/>
</svg>
