<svg width="32" height="32" viewBox="0 0 32 32" fill="none" xmlns="http://www.w3.org/2000/svg">
<path fill-rule="evenodd" clip-rule="evenodd" d="M17.6768 15.1504C18.077 14.9754 18.622 14.9083 19.1221 15.2441L19.2363 15.3291L19.2373 15.3301C20.3521 16.2377 21 17.5898 21 19C21 19.1415 21.0109 19.5562 20.8955 19.9326C20.833 20.1364 20.7111 20.4119 20.459 20.6396C20.1855 20.8866 19.843 21.0019 19.4912 21.002H12.5C12.1481 21.0019 11.8036 20.8864 11.5293 20.6357C11.277 20.405 11.1568 20.1264 11.0967 19.9229C10.9863 19.549 11 19.1318 11 19C11 17.6223 11.6225 16.25 12.7139 15.3379L12.7148 15.3369C13.2489 14.8923 13.9012 14.9626 14.3398 15.1572L14.5137 15.2471L14.6934 15.3477C15.592 15.8191 16.5117 15.805 17.5029 15.2373L17.6768 15.1504ZM13.748 17.1084C13.2709 17.6241 13 18.3172 13 19V19.002H19V19C19 18.3119 18.7251 17.6331 18.2285 17.1162C16.7323 17.8769 15.1836 17.8674 13.748 17.1084Z" fill="#1F1F22"/>
<path fill-rule="evenodd" clip-rule="evenodd" d="M16 9C17.6569 9 19 10.3431 19 12C19 13.6569 17.6569 15 16 15C14.3431 15 13 13.6569 13 12C13 10.3431 14.3431 9 16 9ZM16 11C15.4477 11 15 11.4477 15 12C15 12.5523 15.4477 13 16 13C16.5523 13 17 12.5523 17 12C17 11.4477 16.5523 11 16 11Z" fill="#1F1F22"/>
<path fill-rule="evenodd" clip-rule="evenodd" d="M16 4C22.0661 4 27 8.9337 27 15C27 17.6738 26.0396 20.126 24.4482 22.0342L29.707 27.293C30.0972 27.6835 30.0974 28.3166 29.707 28.707C29.3166 29.0974 28.6835 29.0972 28.293 28.707L23.0342 23.4482C21.1259 25.0397 18.6737 26 16 26C9.93392 26 5.00011 21.0666 5 15C5 8.9337 9.93388 4 16 4ZM16 6C11.0384 6 7 10.0383 7 15C7.00011 19.962 11.0385 24 16 24C20.9615 24 24.9999 19.962 25 15C25 10.0383 20.9616 6 16 6Z" fill="#1F1F22"/>
</svg>
