<svg width="32" height="32" viewBox="0 0 32 32" fill="none" xmlns="http://www.w3.org/2000/svg">
<path d="M13 4C13.5523 4 14 4.44772 14 5C14 5.55228 13.5523 6 13 6H10C9.44772 6 9 6.44772 9 7V24C9 24.5523 9.44772 25 10 25H22C22.5523 25 23 24.5523 23 24V20C23 19.4477 23.4477 19 24 19C24.5523 19 25 19.4477 25 20V24C25 25.6569 23.6569 27 22 27H10C8.34315 27 7 25.6569 7 24V7C7 5.34315 8.34315 4 10 4H13Z" fill="#1F1F22"/>
<path d="M20 20C20.5523 20 21 20.4477 21 21C21 21.5523 20.5523 22 20 22H12C11.4477 22 11 21.5523 11 21C11 20.4477 11.4477 20 12 20H20Z" fill="#1F1F22"/>
<path d="M14 16C14.5523 16 15 16.4477 15 17C15 17.5523 14.5523 18 14 18H12C11.4477 18 11 17.5523 11 17C11 16.4477 11.4477 16 12 16H14Z" fill="#1F1F22"/>
<path d="M22 3.5C22.832 3.5 23.6303 3.65674 24.3643 3.94336C24.8783 4.14435 25.1322 4.72407 24.9316 5.23828C24.7307 5.75273 24.1502 6.00755 23.6357 5.80664C23.13 5.6092 22.579 5.5 22 5.5C19.5147 5.5 17.5 7.51472 17.5 10C17.5 12.4853 19.5147 14.5 22 14.5C24.3712 14.5 26.3146 12.6654 26.4873 10.3389C26.5281 9.78814 27.0079 9.37428 27.5586 9.41504C28.1093 9.45587 28.5232 9.93562 28.4824 10.4863C28.2331 13.8495 25.4263 16.5 22 16.5C18.4101 16.5 15.5 13.5899 15.5 10C15.5 6.41015 18.4101 3.5 22 3.5Z" fill="#1F1F22"/>
<path d="M26.375 5.96875C26.8062 5.62375 27.4362 5.69378 27.7812 6.125C28.1263 6.55626 28.0563 7.18624 27.625 7.53125L22.625 11.5312C22.2638 11.8202 21.7509 11.8231 21.3857 11.5391L19.3857 9.9834C18.9502 9.64425 18.872 9.01588 19.2109 8.58008C19.5501 8.14449 20.1784 8.06631 20.6143 8.40527L21.9912 9.47656L26.375 5.96875Z" fill="#1F1F22"/>
</svg>
