<svg width="32" height="32" viewBox="0 0 32 32" fill="none" xmlns="http://www.w3.org/2000/svg">
<path fill-rule="evenodd" clip-rule="evenodd" d="M22.445 16.168C22.9045 15.8616 23.5253 15.9859 23.8317 16.4453L25.5349 19H26.9997C27.3249 19 27.6298 19.1581 27.8171 19.4238C28.0044 19.6896 28.0504 20.0297 27.9411 20.3359L25.4411 27.3359C25.299 27.7339 24.9223 28 24.4997 28H17.4997C17.0772 27.9998 16.7004 27.7338 16.5583 27.3359L14.0583 20.3359C13.9491 20.0298 13.9952 19.6895 14.1823 19.4238C14.3696 19.1582 14.6747 19.0001 14.9997 19H16.4645L18.1677 16.4453C18.474 15.9859 19.0949 15.8618 19.5544 16.168C20.0139 16.4743 20.1381 17.0952 19.8317 17.5547L18.8679 19H23.1315L22.1677 17.5547C21.8615 17.0952 21.9857 16.4743 22.445 16.168ZM16.4186 21L18.2038 26H23.7956L25.5808 21H16.4186Z" fill="#1F1F22"/>
<path d="M7.02705 14.7314C7.7624 14.1192 8.65124 14.2446 9.26826 14.6748L9.38838 14.7656L9.39033 14.7666C10.3037 15.5105 11.7139 15.9999 12.9997 16C13.5519 16 13.9996 16.4478 13.9997 17C13.9996 17.5522 13.5519 18 12.9997 18C11.3138 17.9999 9.48337 17.3904 8.19209 16.3672C6.77701 17.6001 5.99983 19.2181 5.9997 20.9834C5.9997 21.1734 5.99948 21.3573 6.01142 21.542C6.02349 21.728 6.04549 21.8745 6.07685 21.9795C6.07909 21.9869 6.08256 21.9936 6.08467 22H10.9997C11.5519 22 11.9996 22.4478 11.9997 23C11.9996 23.5522 11.5519 24 10.9997 24H6.00166C5.51485 23.9998 5.0752 23.8367 4.73408 23.5186C4.41662 23.2224 4.25166 22.8557 4.16084 22.5518C3.98737 21.9708 3.9997 21.3064 3.9997 20.9834C3.99983 18.5226 5.12628 16.3204 7.02607 14.7324L7.02705 14.7314Z" fill="#1F1F22"/>
<path fill-rule="evenodd" clip-rule="evenodd" d="M12.9997 4C15.7611 4 17.9997 6.23858 17.9997 9C17.9997 11.7614 15.7611 14 12.9997 14C10.2384 13.9999 7.9997 11.7614 7.9997 9C7.9997 6.23864 10.2384 4.0001 12.9997 4ZM12.9997 6C11.3429 6.0001 9.9997 7.34321 9.9997 9C9.9997 10.6568 11.3429 11.9999 12.9997 12C14.6566 12 15.9997 10.6569 15.9997 9C15.9997 7.34315 14.6566 6 12.9997 6Z" fill="#1F1F22"/>
</svg>
