<svg width="20" height="20" viewBox="0 0 20 20" fill="none" xmlns="http://www.w3.org/2000/svg">
<path d="M18.4997 16C19.3281 16 19.9997 16.6716 19.9997 17.5C19.9997 18.3284 19.3281 19 18.4997 19C17.6713 18.9999 16.9997 18.3284 16.9997 17.5C16.9997 16.6716 17.6713 16.0001 18.4997 16Z" fill="#1F1F22"/>
<path d="M17.7926 11.793C18.1832 11.4025 18.8162 11.4025 19.2067 11.793C19.5972 12.1835 19.5972 12.8165 19.2067 13.207L14.2067 18.207C13.8162 18.5975 13.1832 18.5975 12.7926 18.207C12.4022 17.8165 12.4022 17.1835 12.7926 16.793L17.7926 11.793Z" fill="#1F1F22"/>
<path d="M4.73113 9.56348C5.4317 8.98048 6.27733 9.10398 6.85808 9.50879L6.97038 9.59277L6.97234 9.59473C7.63746 10.1365 8.62343 10.5329 9.60613 10.6387C10.155 10.6977 10.5525 11.1904 10.4938 11.7393C10.4348 12.2883 9.9422 12.6858 9.39324 12.627C8.1302 12.4911 6.82794 12.0037 5.84148 11.248C4.64925 12.3168 3.9998 13.7016 3.99968 15.207C3.99968 15.3768 3.99912 15.5364 4.00945 15.6963C4.0176 15.8221 4.03419 15.9227 4.05144 16H9.49968C10.0519 16 10.4996 16.4478 10.4997 17C10.4995 17.5522 10.0519 18 9.49968 18H3.89031C3.43187 17.9998 3.01351 17.8453 2.68816 17.542C2.38632 17.2604 2.23204 16.9129 2.14812 16.6318C1.9885 16.0968 1.99968 15.4893 1.99968 15.207C1.99981 12.9837 3.0177 10.996 4.72917 9.56543L4.73113 9.56348Z" fill="#1F1F22"/>
<path d="M13.4997 11C14.3281 11 14.9997 11.6716 14.9997 12.5C14.9997 13.3284 14.3281 14 13.4997 14C12.6713 13.9999 11.9997 13.3284 11.9997 12.5C11.9997 11.6716 12.6713 11.0001 13.4997 11Z" fill="#1F1F22"/>
<path fill-rule="evenodd" clip-rule="evenodd" d="M10.111 0C12.5963 0 14.611 2.01472 14.611 4.5C14.611 6.98528 12.5963 9 10.111 9C7.6258 8.99991 5.61101 6.98522 5.61101 4.5C5.61101 2.01478 7.6258 9.16109e-05 10.111 0ZM10.111 2C8.73037 2.00009 7.61101 3.11934 7.61101 4.5C7.61101 5.88066 8.73037 6.99991 10.111 7C11.4917 7 12.611 5.88071 12.611 4.5C12.611 3.11929 11.4917 2 10.111 2Z" fill="#1F1F22"/>
</svg>
