<svg width="20" height="20" viewBox="0 0 20 20" fill="none" xmlns="http://www.w3.org/2000/svg">
<path d="M6.006 7C5.45371 7 5.006 7.44771 5.006 8C5.006 8.55229 5.45371 9 6.006 9H14.006C14.5583 9 15.006 8.55229 15.006 8C15.006 7.44771 14.5583 7 14.006 7H6.006Z" fill="#1F1F22"/>
<path d="M5 11.5C5 10.9477 5.44772 10.5 6 10.5H10C10.5523 10.5 11 10.9477 11 11.5C11 12.0523 10.5523 12.5 10 12.5H6C5.44771 12.5 5 12.0523 5 11.5Z" fill="#1F1F22"/>
<path fill-rule="evenodd" clip-rule="evenodd" d="M17.2101 14.987C17.3579 14.8786 17.5082 14.7591 17.6585 14.6276C18.86 13.5763 20 11.8083 20 9C20 6.20767 18.8645 3.92732 17.0091 2.36089C15.1703 0.808537 12.6795 0 10 0C4.47715 0 0 4.47715 0 10C0 12.8358 1.43351 15.3445 3.481 17.1196C5.52623 18.8926 8.2546 20 11 20C13.9735 20 16.0967 19.4785 17.5026 18.9321C18.2044 18.6593 18.7236 18.3819 19.0775 18.1637C19.2543 18.0546 19.3896 17.9606 19.4856 17.8895C19.5336 17.854 19.5717 17.8242 19.6002 17.8012L19.625 17.7809L19.6359 17.7719L19.6484 17.7613L19.6534 17.757L19.6555 17.7552L19.6565 17.7543C19.6565 17.7543 19.6484 17.7613 19.6574 17.7535C19.9087 17.5343 20.0342 17.2042 19.992 16.8735C19.9498 16.5427 19.7455 16.2547 19.4472 16.1056L17.2101 14.987ZM10 2C5.58172 2 2 5.58172 2 10C2 12.1348 3.08121 14.126 4.79108 15.6084C6.50321 17.0927 8.77483 18 11 18C13.7342 18 15.611 17.5215 16.7782 17.0679L16.8463 17.0412L14.5528 15.8944C14.1785 15.7073 13.9603 15.3069 14.006 14.8909C14.0514 14.4772 14.3482 14.1351 14.7509 14.0315L14.7649 14.0275C14.7811 14.0228 14.8103 14.014 14.8506 14.0003C14.9313 13.9729 15.0554 13.9267 15.2083 13.8566C15.5159 13.7156 15.9292 13.4832 16.3415 13.1224C17.14 12.4237 18 11.1917 18 9C18 6.79233 17.1208 5.07268 15.7189 3.88911C14.3003 2.69146 12.2911 2 10 2Z" fill="#1F1F22"/>
</svg>
