<svg width="32" height="32" viewBox="0 0 32 32" fill="none" xmlns="http://www.w3.org/2000/svg">
<path d="M26.7071 5.70711C27.0976 5.31658 27.0976 4.68342 26.7071 4.29289C26.3166 3.90237 25.6834 3.90237 25.2929 4.29289L18.2929 11.2929C17.9024 11.6834 17.9024 12.3166 18.2929 12.7071C18.6834 13.0976 19.3166 13.0976 19.7071 12.7071L26.7071 5.70711Z" fill="#1F1F22"/>
<path d="M19.5 7C20.3284 7 21 6.32843 21 5.5C21 4.67157 20.3284 4 19.5 4C18.6716 4 18 4.67157 18 5.5C18 6.32843 18.6716 7 19.5 7Z" fill="#1F1F22"/>
<path d="M21 20C20.4477 20 20 20.4477 20 21C20 21.5523 20.4477 22 21 22H23C23.5523 22 24 21.5523 24 21C24 20.4477 23.5523 20 23 20H21Z" fill="#1F1F22"/>
<path d="M8 21C8 20.4477 8.44772 20 9 20H11C11.5523 20 12 20.4477 12 21C12 21.5523 11.5523 22 11 22H9C8.44772 22 8 21.5523 8 21Z" fill="#1F1F22"/>
<path fill-rule="evenodd" clip-rule="evenodd" d="M11.4359 10C10.9609 10 10.4752 10.3545 10.3359 10.9668L9.19068 16H25C26.6569 16 28 17.3431 28 19V23C28 24.6569 26.6569 26 25 26C25 27.6569 23.6569 29 22 29C20.343 29 19.0002 27.6564 19 26H13C13 27.6569 11.6569 29 10 29C8.34315 29 7 27.6569 7 26C5.34314 26 4 24.6569 4 23V19C4 17.3431 5.34315 16 7 16H7.13956L8.38575 10.523C8.71247 9.0871 9.94114 8 11.4359 8H13C13.5523 8 14 8.44772 14 9C14 9.55228 13.5523 10 13 10H11.4359ZM7 18H25C25.5523 18 26 18.4477 26 19V23C26 23.5523 25.5523 24 25 24H24C23.4477 24 23 24.4477 23 25V26C23 26.5523 22.5523 27 22 27C21.448 27 21 26.5522 21 25.9996V25C21 24.4477 20.5523 24 20 24H12C11.4477 24 11 24.4477 11 25V26C11 26.5523 10.5523 27 10 27C9.44772 27 9 26.5523 9 26V25C9 24.4477 8.55228 24 8 24H7C6.44772 24 6 23.5523 6 23V19C6 18.4477 6.44772 18 7 18Z" fill="#1F1F22"/>
<path d="M27 11.5C27 12.3284 26.3284 13 25.5 13C24.6716 13 24 12.3284 24 11.5C24 10.6716 24.6716 10 25.5 10C26.3284 10 27 10.6716 27 11.5Z" fill="#1F1F22"/>
</svg>
