<svg width="32" height="32" viewBox="0 0 32 32" fill="none" xmlns="http://www.w3.org/2000/svg">
<path d="M9.66211 22.749C9.24841 23.1147 8.61681 23.0757 8.25098 22.6621C6.6453 20.8465 6.00008 18.3807 6 15.9561C6 10.4531 10.4818 6 16 6C21.5182 6 26 10.4531 26 15.9561C25.9999 18.4257 25.4332 20.8316 23.7363 22.6768C23.3625 23.0832 22.7298 23.11 22.3232 22.7363C21.9168 22.3625 21.89 21.7298 22.2637 21.3232C23.4966 19.9827 23.9999 18.1451 24 15.9561C24 11.567 20.4229 8 16 8C11.5771 8 8 11.567 8 15.9561C8.00008 18.0642 8.56459 19.9987 9.74902 21.3379C10.1147 21.7516 10.0757 22.3832 9.66211 22.749Z" fill="#1F1F22"/>
<path d="M21 17C20.4477 17 20 16.5523 20 16C20 13.7909 18.2091 12 16 12C15.4477 12 15 11.5523 15 11C15 10.4477 15.4477 10 16 10C19.3137 10 22 12.6863 22 16C22 16.5523 21.5523 17 21 17Z" fill="#1F1F22"/>
<path d="M7 27C6.44772 27 6 26.5523 6 26C6 25.4477 6.44772 25 7 25L25 25C25.5523 25 26 25.4477 26 26C26 26.5523 25.5523 27 25 27L7 27Z" fill="#1F1F22"/>
</svg>
