<svg width="20" height="20" viewBox="0 0 20 20" fill="none" xmlns="http://www.w3.org/2000/svg">
<path d="M7.5 0C8.05228 0 8.5 0.447715 8.5 1C8.5 1.55228 8.05228 2 7.5 2H4C3.44772 2 3 2.44772 3 3V17C3 17.5523 3.44772 18 4 18H14C14.5523 18 15 17.5523 15 17V14C15 13.4477 15.4477 13 16 13C16.5523 13 17 13.4477 17 14V17C17 18.6569 15.6569 20 14 20H4C2.34315 20 1 18.6569 1 17V3C1 1.34315 2.34315 3.22128e-08 4 0H7.5Z" fill="#1F1F22"/>
<path d="M12 14C12.5523 14 13 14.4477 13 15C13 15.5523 12.5523 16 12 16H6C5.44772 16 5 15.5523 5 15C5 14.4477 5.44772 14 6 14H12Z" fill="#1F1F22"/>
<path d="M7 10C7.55228 10 8 10.4477 8 11C8 11.5523 7.55228 12 7 12H6C5.44772 12 5 11.5523 5 11C5 10.4477 5.44772 10 6 10H7Z" fill="#1F1F22"/>
<path d="M11.418 1.59082C11.8907 1.30532 12.5055 1.45692 12.791 1.92969C13.0765 2.40245 12.9249 3.01725 12.4521 3.30273C11.5798 3.8296 11 4.78403 11 5.87305C11 7.52987 12.3432 8.87305 14 8.87305C14.5523 8.87305 15 9.32076 15 9.87305C15 10.4253 14.5523 10.873 14 10.873C11.2386 10.873 9.00003 8.63444 9 5.87305C9 4.05497 9.97108 2.46475 11.418 1.59082Z" fill="#1F1F22"/>
<path d="M17.0713 3.12305C17.5596 2.86503 18.1648 3.05173 18.4229 3.54004C18.7914 4.23762 19 5.03243 19 5.87305C19 7.07784 18.5728 8.18561 17.8623 9.04883C17.5113 9.47525 16.8805 9.53652 16.4541 9.18555C16.0278 8.83455 15.9665 8.20372 16.3174 7.77734C16.7441 7.25893 17 6.59735 17 5.87305C17 5.36582 16.8744 4.89026 16.6543 4.47363C16.3968 3.98558 16.5835 3.38112 17.0713 3.12305Z" fill="#1F1F22"/>
<path d="M15 1C15.5523 1 16 1.44816 16 2.00098C16 2.55378 15.5523 3.00195 15 3.00195C14.4477 3.00195 14 2.55378 14 2.00098C14 1.44816 14.4477 1 15 1Z" fill="#1F1F22"/>
</svg>
