<svg width="20" height="20" viewBox="0 0 20 20" fill="none" xmlns="http://www.w3.org/2000/svg">
<path d="M19 13C19.5523 13 20 13.4477 20 14V17C20 18.6569 18.6569 20 17 20H7C5.39489 20 4.08421 18.7394 4.00391 17.1543L4 17V14C4 13.4477 4.44772 13 5 13C5.55228 13 6 13.4477 6 14V17L6.00488 17.1025C6.05621 17.6067 6.48232 18 7 18H17C17.5523 18 18 17.5523 18 17V14C18 13.4477 18.4477 13 19 13Z" fill="#1F1F22"/>
<path d="M14 14C14.5523 14 15 14.4477 15 15C15 15.5523 14.5523 16 14 16H10C9.44771 16 9 15.5523 9 15C9 14.4477 9.44771 14 10 14H14Z" fill="#1F1F22"/>
<path d="M12 10C12.5523 10 13 10.4477 13 11C13 11.5523 12.5523 12 12 12H8C7.44772 12 7 11.5523 7 11C7 10.4477 7.44772 10 8 10H12Z" fill="#1F1F22"/>
<path d="M8.17188 0C8.96742 8.00361e-05 9.73043 0.316368 10.293 0.878906L16.1211 6.70703C16.6836 7.26957 16.9999 8.03259 17 8.82812V10C17 10.5523 16.5523 11 16 11C15.4477 11 15 10.5523 15 10V8.82812C14.9999 8.56302 14.8945 8.30856 14.707 8.12109L8.87891 2.29297C8.69144 2.1055 8.43698 2.00008 8.17188 2H4C3.44772 2 3 2.44772 3 3V10C3 10.5523 2.55228 11 2 11C1.44772 11 1 10.5523 1 10V3C1 1.34315 2.34315 4.83192e-08 4 0H8.17188Z" fill="#1F1F22"/>
<path d="M10 6C10.5523 6 11 6.44772 11 7C11 7.55228 10.5523 8 10 8H6C5.44772 8 5 7.55228 5 7C5 6.44772 5.44772 6 6 6H10Z" fill="#1F1F22"/>
</svg>
