<svg width="32" height="32" viewBox="0 0 32 32" fill="none" xmlns="http://www.w3.org/2000/svg">
<path d="M13.2072 7.70711C13.5977 7.31658 13.5977 6.68342 13.2072 6.29289C12.8167 5.90237 12.1835 5.90237 11.793 6.29289L3.50009 14.5858C2.71905 15.3668 2.71904 16.6332 3.50009 17.4142L11.793 25.7071C12.1835 26.0976 12.8167 26.0976 13.2072 25.7071C13.5977 25.3166 13.5977 24.6834 13.2072 24.2929L4.91431 16L13.2072 7.70711Z" fill="#1F1F22"/>
<path fill-rule="evenodd" clip-rule="evenodd" d="M16.8336 11.9998C16.8336 11.4476 16.3859 10.9998 15.8336 10.9998C15.2813 10.9998 14.8336 11.4476 14.8336 11.9998V19.9998C14.8336 20.5521 15.2813 20.9998 15.8336 20.9998C16.3859 20.9998 16.8336 20.5521 16.8336 19.9998V16.9998H19.5004C19.5338 16.9998 19.5669 16.9982 19.5994 16.995C20.0608 19.2797 22.0797 20.9998 24.5004 20.9998C27.2618 20.9998 29.5004 18.7613 29.5004 15.9998C29.5004 13.2384 27.2618 10.9998 24.5004 10.9998C22.0797 10.9998 20.0608 12.72 19.5994 15.0047C19.5669 15.0015 19.5338 14.9998 19.5004 14.9998H16.8336V11.9998ZM21.5004 15.9998C21.5004 14.343 22.8435 12.9998 24.5004 12.9998C26.1573 12.9998 27.5004 14.343 27.5004 15.9998C27.5004 17.6567 26.1573 18.9998 24.5004 18.9998C22.8435 18.9998 21.5004 17.6567 21.5004 15.9998Z" fill="#1F1F22"/>
</svg>
