<svg width="32" height="32" viewBox="0 0 32 32" fill="none" xmlns="http://www.w3.org/2000/svg">
<path d="M20.793 12.293C21.1835 11.9025 21.8165 11.9025 22.207 12.293C22.5976 12.6835 22.5976 13.3165 22.207 13.7071L16.207 19.7071C15.8165 20.0976 15.1835 20.0976 14.793 19.7071L11.293 16.2071C10.9025 15.8165 10.9025 15.1835 11.293 14.793C11.6835 14.4025 12.3165 14.4025 12.707 14.793L15.5 17.586L20.793 12.293Z" fill="#1F1F22"/>
<path fill-rule="evenodd" clip-rule="evenodd" d="M15.71 4.043C15.899 3.98575 16.101 3.98575 16.29 4.043L26.29 7.0723C26.7116 7.20011 27 7.58879 27 8.02933V13.5821C27 21.1349 22.117 25.7729 16.4824 28.876C16.1821 29.0414 15.8179 29.0414 15.5176 28.876C9.88238 25.7726 5.00002 21.1194 5 13.5821V8.02933C5 7.58879 5.28839 7.20011 5.70996 7.0723L15.71 4.043ZM7 8.77054V13.5821C7.00002 19.8542 10.8729 23.918 16 26.8526C21.1276 23.9185 25 19.8683 25 13.5821V8.77054L16 6.04398L7 8.77054Z" fill="#1F1F22"/>
</svg>
