<svg width="20" height="20" viewBox="0 0 20 20" fill="none" xmlns="http://www.w3.org/2000/svg">
<path d="M15.751 5.00018C16.2035 4.98815 16.6077 5.28201 16.7363 5.716L17.8584 9.50018H19C19.5523 9.50018 20 9.94789 20 10.5002C20 11.0525 19.5523 11.5002 19 11.5002H17.1113C16.6685 11.5002 16.2782 11.2089 16.1523 10.7844L15.8799 9.86639L13.6396 19.2326C13.5326 19.6799 13.1338 19.9969 12.6738 20.0002C12.2138 20.0034 11.8105 19.6922 11.6973 19.2463L10.5547 14.7463C10.4188 14.2111 10.7423 13.6675 11.2773 13.5314C11.8126 13.3955 12.3572 13.7188 12.4932 14.2541L12.6377 14.8244L14.8057 5.76776L14.8574 5.60858C15.0084 5.25327 15.355 5.01079 15.751 5.00018Z" fill="#1F1F22"/>
<path d="M8.24121 0.000177987C8.6979 0.00884882 9.09046 0.326099 9.19531 0.770686L10.4736 6.18865C10.6004 6.72619 10.267 7.26501 9.72949 7.39178C9.19197 7.51852 8.65313 7.18516 8.52637 6.64764L8.14551 5.03533L5.18652 15.7658C5.06782 16.1961 4.67779 16.496 4.23145 16.5002C3.78525 16.5043 3.39051 16.2122 3.26367 15.7844L1.69727 10.5002H1C0.447717 10.5002 2.57703e-06 10.0525 0 9.50018C0 8.94789 0.447715 8.50018 1 8.50018H2.44434C2.88718 8.50018 3.27749 8.79141 3.40332 9.216L4.1875 11.8635L7.25781 0.734553C7.3793 0.294149 7.78444 -0.00840383 8.24121 0.000177987Z" fill="#1F1F22"/>
<path d="M10.5 9.00018C11.3284 9.00018 12 9.67175 12 10.5002C12 11.3286 11.3284 12.0002 10.5 12.0002C9.67157 12.0002 9 11.3286 9 10.5002C9 9.67175 9.67157 9.00018 10.5 9.00018Z" fill="#1F1F22"/>
</svg>
