<svg width="32" height="32" viewBox="0 0 32 32" fill="none" xmlns="http://www.w3.org/2000/svg">
<path fill-rule="evenodd" clip-rule="evenodd" d="M16 3C16.7369 3 17.4603 3.06148 18.165 3.17969C18.7096 3.27105 19.0775 3.7865 18.9863 4.33105C18.895 4.87558 18.3795 5.24345 17.835 5.15234C17.239 5.05236 16.6258 5 16 5C15.6581 5 15.242 5.16212 14.7666 5.64453C14.2876 6.13074 13.81 6.88595 13.3877 7.89941C12.6334 9.70968 12.1195 12.1936 12.0195 15H17C17.5523 15 18 15.4477 18 16C18 16.5523 17.5523 17 17 17H12.0195C12.1195 19.8064 12.6334 22.2903 13.3877 24.1006C13.81 25.114 14.2876 25.8693 14.7666 26.3555C15.242 26.8379 15.6581 27 16 27C16.5389 27 17.2854 26.5701 18.0518 25.2471C18.7897 23.973 19.3951 22.105 19.7266 19.8545C19.807 19.3081 20.3149 18.9303 20.8613 19.0107C21.4076 19.0913 21.7854 19.5993 21.7051 20.1455C21.3501 22.5557 20.6862 24.6883 19.7822 26.249C19.7618 26.2843 19.7396 26.3185 19.7188 26.3535C22.8187 25.2399 25.2752 22.7755 26.374 19.667C26.512 19.2766 26.8679 19.0255 27.2568 19.002C27.3216 18.998 27.3873 19.0007 27.4531 19.0098C27.5191 19.0189 27.5852 19.0346 27.6504 19.0576C28.171 19.2417 28.4437 19.8124 28.2598 20.333C26.4756 25.3808 21.6618 29 16 29C8.8203 29 3 23.1797 3 16C3 8.8203 8.8203 3 16 3ZM5.04688 17C5.43727 21.3314 8.33686 24.9377 12.2822 26.3545C12.0109 25.8998 11.7626 25.4019 11.541 24.8701C10.6694 22.7781 10.1189 20.0228 10.0186 17H5.04688ZM12.2178 5.66699C8.30499 7.09961 5.43516 10.692 5.04688 15H10.0186C10.1189 11.9772 10.6694 9.22186 11.541 7.12988C11.7627 6.59796 12.0099 6.09927 12.2812 5.64453C12.2601 5.65212 12.2388 5.65928 12.2178 5.66699Z" fill="#1F1F22"/>
<path d="M20.4854 5.14258C20.9589 4.85846 21.5732 5.01188 21.8574 5.48535L23.999 9.05566L26.1426 5.48535C26.4268 5.01188 27.0411 4.85846 27.5146 5.14258C27.9881 5.42677 28.1415 6.04112 27.8574 6.51465L25.7666 10H26C26.5523 10 27 10.4477 27 11C27 11.5523 26.5523 12 26 12H25V13H26C26.5523 13 27 13.4477 27 14C27 14.5523 26.5523 15 26 15H25V16C25 16.5523 24.5523 17 24 17C23.4477 17 23 16.5523 23 16V15H22C21.4477 15 21 14.5523 21 14C21 13.4477 21.4477 13 22 13H23V12H22C21.4477 12 21 11.5523 21 11C21 10.4477 21.4477 10 22 10H22.2334L20.1426 6.51465C19.8585 6.04112 20.0119 5.42677 20.4854 5.14258Z" fill="#1F1F22"/>
</svg>
