<svg width="32" height="32" viewBox="0 0 32 32" fill="none" xmlns="http://www.w3.org/2000/svg">
<path d="M11 13C11.5523 13 12 13.4477 12 14V17L11.9951 17.1025C11.9438 17.6067 11.5177 18 11 18C10.4823 18 10.0562 17.6067 10.0049 17.1025L10 17V14C10 13.4477 10.4477 13 11 13Z" fill="#1F1F22"/>
<path d="M16 11C16.5523 11 17 11.4477 17 12V17C17 17.5523 16.5523 18 16 18C15.4477 18 15 17.5523 15 17V12C15 11.4477 15.4477 11 16 11Z" fill="#1F1F22"/>
<path d="M21 9C21.5523 9 22 9.44772 22 10V17C22 17.5523 21.5523 18 21 18C20.4477 18 20 17.5523 20 17V10C20 9.44772 20.4477 9 21 9Z" fill="#1F1F22"/>
<path fill-rule="evenodd" clip-rule="evenodd" d="M24 5C25.6569 5 27 6.34315 27 8V19C27 20.6569 25.6569 22 24 22H17V25H21C21.5523 25 22 25.4477 22 26C22 26.5523 21.5523 27 21 27H11C10.4477 27 10 26.5523 10 26C10 25.4477 10.4477 25 11 25H15V22H8C6.3949 22 5.08421 20.7394 5.00391 19.1543L5 19V8C5 6.34315 6.34315 5 8 5H24ZM8 7C7.44772 7 7 7.44772 7 8V19L7.00488 19.1025C7.05621 19.6067 7.48232 20 8 20H24C24.5523 20 25 19.5523 25 19V8C25 7.44772 24.5523 7 24 7H8Z" fill="#1F1F22"/>
</svg>
