<svg width="32" height="32" viewBox="0 0 32 32" fill="none" xmlns="http://www.w3.org/2000/svg">
<path fill-rule="evenodd" clip-rule="evenodd" d="M23 15C25.7614 15 28 17.2386 28 20C28 21.6355 27.2141 23.0867 26 23.999V29C26 29.3465 25.8202 29.6683 25.5254 29.8505C25.2306 30.0326 24.8626 30.0494 24.5527 29.8945L23 29.1181L21.4473 29.8945C21.1374 30.0494 20.7694 30.0326 20.4746 29.8505C20.1798 29.6683 20 29.3465 20 29V23.999C18.7859 23.0867 18 21.6355 18 20C18 17.2386 20.2386 15 23 15ZM24 24.8994C23.6769 24.965 23.3425 25 23 25C22.6575 25 22.3231 24.965 22 24.8994V27.3818L22.5527 27.1054C22.8342 26.9647 23.1658 26.9647 23.4473 27.1054L24 27.3818V24.8994ZM23 17C21.3432 17 20 18.3431 20 20C20 21.6568 21.3431 23 23 23C24.6569 23 26 21.6568 26 20C26 18.3431 24.6568 17 23 17Z" fill="#1F1F22"/>
<path d="M16 22C16.5523 22 17 22.4477 17 23C17 23.5522 16.5523 24 16 24H5C4.44772 24 4 23.5522 4 23C4.00004 22.4477 4.44774 22 5 22H16Z" fill="#1F1F22"/>
<path d="M8.00098 11C8.55301 11.0002 9.00093 11.4479 9.00098 12V19C9.00098 19.5521 8.55304 19.9997 8.00098 20C7.44869 20 7.00098 19.5522 7.00098 19V12C7.00102 11.4477 7.44872 11 8.00098 11Z" fill="#1F1F22"/>
<path d="M13.001 11C13.553 11.0002 14.0009 11.4479 14.001 12V19C14.001 19.5521 13.553 19.9997 13.001 20C12.4487 20 12.001 19.5522 12.001 19V12C12.001 11.4477 12.4487 11 13.001 11Z" fill="#1F1F22"/>
<path d="M18 11C18.5523 11 19 11.4477 19 12V14C19 14.5522 18.5523 15 18 15C17.4477 15 17 14.5522 17 14V12C17 11.4477 17.4477 11 18 11Z" fill="#1F1F22"/>
<path d="M12.6963 4.54683C12.9265 4.47348 13.1769 4.48624 13.4004 4.58394L21.4004 8.08394C21.9062 8.30526 22.1371 8.89445 21.916 9.40035C21.6947 9.90622 21.1055 10.1371 20.5996 9.91597L13 6.59078L5.40039 9.91597C4.89448 10.1371 4.30531 9.90622 4.08398 9.40035C3.86286 8.89444 4.09374 8.30526 4.59961 8.08394L12.5996 4.58394L12.6963 4.54683Z" fill="#1F1F22"/>
</svg>
