<svg width="20" height="20" viewBox="0 0 20 20" fill="none" xmlns="http://www.w3.org/2000/svg">
<path d="M6.5 0C7.05228 0 7.5 0.447715 7.5 1C7.5 1.55228 7.05228 2 6.5 2H4C3.44772 2 3 2.44772 3 3V17C3 17.5523 3.44772 18 4 18H14C14.5523 18 15 17.5523 15 17V14.5C15 13.9477 15.4477 13.5 16 13.5C16.5523 13.5 17 13.9477 17 14.5V17C17 18.6569 15.6569 20 14 20H4C2.34315 20 1 18.6569 1 17V3C1 1.34315 2.34315 8.05319e-09 4 0H6.5Z" fill="#1F1F22"/>
<path d="M12 14C12.5523 14 13 14.4477 13 15C13 15.5523 12.5523 16 12 16H6C5.44772 16 5 15.5523 5 15C5 14.4477 5.44772 14 6 14H12Z" fill="#1F1F22"/>
<path d="M7 10C7.55228 10 8 10.4477 8 11C8 11.5523 7.55228 12 7 12H6C5.44772 12 5 11.5523 5 11C5 10.4477 5.44772 10 6 10H7Z" fill="#1F1F22"/>
<path fill-rule="evenodd" clip-rule="evenodd" d="M14 0C17.3137 0 20 2.68629 20 6C20 9.31371 17.3137 12 14 12C10.6863 12 8 9.31371 8 6C8 2.68629 10.6863 0 14 0ZM13.0449 7C13.1217 7.86299 13.2927 8.60915 13.5146 9.16406C13.6677 9.54671 13.8248 9.78937 13.9482 9.91992C13.9678 9.94059 13.9858 9.95533 14 9.96777C14.0142 9.95533 14.0322 9.94059 14.0518 9.91992C14.1752 9.78937 14.3323 9.54671 14.4854 9.16406C14.7073 8.60915 14.8783 7.86299 14.9551 7H13.0449ZM10.126 7C10.3293 7.79001 10.7685 8.48489 11.3633 9.00684C11.202 8.39622 11.0927 7.717 11.0391 7H10.126ZM16.9609 7C16.9073 7.71709 16.797 8.39616 16.6357 9.00684C17.2308 8.48483 17.6706 7.79025 17.874 7H16.9609ZM11.3633 2.99219C10.7683 3.51419 10.3294 4.20978 10.126 5H11.0391C11.0927 4.28265 11.2019 3.60303 11.3633 2.99219ZM13.9482 2.08008C13.8248 2.21063 13.6677 2.45329 13.5146 2.83594C13.2927 3.39085 13.1217 4.13701 13.0449 5H14.9551C14.8783 4.13701 14.7073 3.39085 14.4854 2.83594C14.3323 2.45329 14.1752 2.21063 14.0518 2.08008C14.032 2.05917 14.0143 2.04375 14 2.03125C13.9857 2.04375 13.968 2.05917 13.9482 2.08008ZM16.6357 2.99219C16.7971 3.6031 16.9072 4.28255 16.9609 5H17.874C17.6706 4.20953 17.231 3.51424 16.6357 2.99219Z" fill="#1F1F22"/>
</svg>
