<svg width="32" height="32" viewBox="0 0 32 32" fill="none" xmlns="http://www.w3.org/2000/svg">
<path d="M16 5C22.0661 5 27 9.9337 27 16C27 18.6738 26.0396 21.126 24.4482 23.0342L29.707 28.293C30.0972 28.6835 30.0974 29.3166 29.707 29.707C29.3166 30.0974 28.6835 30.0972 28.293 29.707L23.0342 24.4482C21.1259 26.0397 18.6737 27 16 27C9.93392 27 5.00011 22.0666 5 16C5 9.9337 9.93388 5 16 5ZM16 7C11.0384 7 7 11.0383 7 16C7.00011 20.962 11.0385 25 16 25C20.9615 25 24.9999 20.962 25 16C25 11.0383 20.9616 7 16 7ZM17.6768 16.1504C18.077 15.9754 18.622 15.9083 19.1221 16.2441L19.2363 16.3291L19.2373 16.3301C20.3521 17.2377 21 18.5898 21 20C21 20.1415 21.0109 20.5562 20.8955 20.9326C20.833 21.1364 20.7111 21.4119 20.459 21.6396C20.1855 21.8866 19.843 22.0019 19.4912 22.002H12.5C12.1481 22.0019 11.8036 21.8864 11.5293 21.6357C11.277 21.405 11.1568 21.1264 11.0967 20.9229C10.9863 20.549 11 20.1318 11 20C11 18.6223 11.6225 17.25 12.7139 16.3379L12.7148 16.3369C13.2489 15.8923 13.9012 15.9626 14.3398 16.1572L14.5137 16.2471L14.6934 16.3477C15.592 16.8191 16.5117 16.805 17.5029 16.2373L17.6768 16.1504ZM13.748 18.1084C13.2709 18.6241 13 19.3172 13 20V20.002H19V20C19 19.3119 18.7251 18.6331 18.2285 18.1162C16.7323 18.8769 15.1836 18.8674 13.748 18.1084ZM16 10C17.6569 10 19 11.3431 19 13C19 14.6569 17.6569 16 16 16C14.3431 16 13 14.6569 13 13C13 11.3431 14.3431 10 16 10ZM16 12C15.4477 12 15 12.4477 15 13C15 13.5523 15.4477 14 16 14C16.5523 14 17 13.5523 17 13C17 12.4477 16.5523 12 16 12Z" fill="#1F1F22"/>
</svg>
