<svg width="20" height="20" viewBox="0 0 20 20" fill="none" xmlns="http://www.w3.org/2000/svg">
<path fill-rule="evenodd" clip-rule="evenodd" d="M2.5 0C2.46506 0 2.4305 0.00138608 2.39648 0.00488281C1.06383 0.0592197 0 1.154 0 2.5V3.5C0 4.05228 0.447715 4.5 1 4.5C1.55228 4.5 2 4.05228 2 3.5V2.5C2 2.22386 2.22386 2 2.5 2C2.77614 2 3 2.22386 3 2.5V17.5C3 18.846 4.06385 19.9398 5.39648 19.9941C5.43053 19.9976 5.46503 20 5.5 20H17C18.6569 20 20 18.6569 20 17V15C20 14.7348 19.8946 14.4805 19.707 14.293C19.5195 14.1054 19.2652 14 19 14H18V13C18 12.4477 17.5523 12 17 12C16.4477 12 16 12.4477 16 13V14H7C6.44772 14 6 14.4477 6 15V17.5C6 17.7761 5.77614 18 5.5 18C5.22386 18 5 17.7761 5 17.5V2.5C5 2.32878 4.98298 2.16154 4.9502 2H7.5C8.05229 2 8.5 1.55228 8.5 1C8.5 0.447715 8.05229 0 7.5 0H2.5ZM18 16V17C18 17.5523 17.5523 18 17 18H7.9502C7.98298 17.8385 8 17.6712 8 17.5V16H18Z" fill="#1F1F22"/>
<path fill-rule="evenodd" clip-rule="evenodd" d="M14 0C10.6863 0 8 2.68629 8 6C8 9.31371 10.6863 12 14 12C17.3137 12 20 9.31371 20 6C20 2.68629 17.3137 0 14 0ZM14.9551 7C14.8783 7.86299 14.7073 8.60915 14.4854 9.16406C14.3323 9.54671 14.1752 9.78937 14.0518 9.91992C14.0322 9.94059 14.0142 9.95533 14 9.96777C13.9858 9.95533 13.9678 9.94059 13.9482 9.91992C13.8248 9.78937 13.6677 9.54671 13.5146 9.16406C13.2927 8.60915 13.1217 7.86299 13.0449 7H14.9551ZM17.874 7C17.6707 7.79001 17.2315 8.48489 16.6367 9.00684C16.798 8.39622 16.9073 7.717 16.9609 7H17.874ZM11.0391 7C11.0927 7.71709 11.203 8.39616 11.3643 9.00684C10.7692 8.48483 10.3294 7.79025 10.126 7H11.0391ZM16.6367 2.99219C17.2317 3.51419 17.6706 4.20978 17.874 5H16.9609C16.9073 4.28265 16.7981 3.60303 16.6367 2.99219ZM14.0518 2.08008C14.1752 2.21063 14.3323 2.45329 14.4854 2.83594C14.7073 3.39085 14.8783 4.13701 14.9551 5H13.0449C13.1217 4.13701 13.2927 3.39085 13.5146 2.83594C13.6677 2.45329 13.8248 2.21063 13.9482 2.08008C13.968 2.05917 13.9857 2.04375 14 2.03125C14.0143 2.04375 14.032 2.05917 14.0518 2.08008ZM11.3643 2.99219C11.2029 3.6031 11.0928 4.28255 11.0391 5H10.126C10.3294 4.20953 10.769 3.51424 11.3643 2.99219Z" fill="#1F1F22"/>
</svg>
