<svg width="32" height="32" viewBox="0 0 32 32" fill="none" xmlns="http://www.w3.org/2000/svg">
<path fill-rule="evenodd" clip-rule="evenodd" d="M21.5 16C24.5335 16 27 18.4664 27 21.5C27 22.6561 26.6406 23.729 26.0293 24.6152L28.207 26.793C28.5975 27.1835 28.5975 27.8165 28.207 28.207C27.8165 28.5975 27.1835 28.5975 26.793 28.207L24.6152 26.0293C23.729 26.6406 22.6561 27 21.5 27C18.4665 27 16 24.5337 16 21.5C16 18.4664 18.4665 16 21.5 16ZM21.5 18C19.571 18 18 19.571 18 21.5C18 23.4291 19.5711 25 21.5 25C23.4289 25 25 23.4291 25 21.5C25 19.571 23.429 18 21.5 18Z" fill="#1F1F22"/>
<path d="M14 24C14.5523 24 15 24.4477 15 25C15 25.5523 14.5523 26 14 26H6C5.44772 26 5 25.5523 5 25C5 24.4477 5.44772 24 6 24H14Z" fill="#1F1F22"/>
<path d="M8 9C8.55228 9 9 9.44772 9 10V21C9 21.5523 8.55228 22 8 22C7.44772 22 7 21.5523 7 21V10C7 9.44772 7.44772 9 8 9Z" fill="#1F1F22"/>
<path d="M13 4C13.5523 4 14 4.44772 14 5V21C14 21.5523 13.5523 22 13 22C12.4477 22 12 21.5523 12 21V5C12 4.44772 12.4477 4 13 4Z" fill="#1F1F22"/>
<path d="M18 9C18.5523 9 19 9.44772 19 10V14C19 14.5523 18.5523 15 18 15C17.4477 15 17 14.5523 17 14V10C17 9.44772 17.4477 9 18 9Z" fill="#1F1F22"/>
<path d="M23 6C23.5523 6 24 6.44772 24 7V13L23.9951 13.1025C23.9438 13.6067 23.5177 14 23 14C22.4823 14 22.0562 13.6067 22.0049 13.1025L22 13V7C22 6.44772 22.4477 6 23 6Z" fill="#1F1F22"/>
</svg>
