<svg width="32" height="32" viewBox="0 0 32 32" fill="none" xmlns="http://www.w3.org/2000/svg">
<path d="M12 4C12.5523 4 13 4.44772 13 5C13 5.55228 12.5523 6 12 6H10C9.44772 6 9 6.44772 9 7V24C9 24.5523 9.44772 25 10 25H22C22.5523 25 23 24.5523 23 24V23C23 22.4477 23.4477 22 24 22C24.5523 22 25 22.4477 25 23V24C25 25.6569 23.6569 27 22 27H10C8.34315 27 7 25.6569 7 24V7C7 5.34315 8.34315 4 10 4H12Z" fill="#1F1F22"/>
<path d="M20 20C20.5523 20 21 20.4477 21 21C21 21.5523 20.5523 22 20 22H12C11.4477 22 11 21.5523 11 21C11 20.4477 11.4477 20 12 20H20Z" fill="#1F1F22"/>
<path d="M14 16C14.5523 16 15 16.4477 15 17C15 17.5523 14.5523 18 14 18H12C11.4477 18 11 17.5523 11 17C11 16.4477 11.4477 16 12 16H14Z" fill="#1F1F22"/>
<path fill-rule="evenodd" clip-rule="evenodd" d="M22 2C26.4183 2 30 5.58172 30 10C30 14.4183 26.4183 18 22 18C17.5817 18 14 14.4183 14 10C14 5.58172 17.5817 2 22 2ZM20.3125 13C20.4427 13.5858 20.607 14.1103 20.7979 14.5557C21.0375 15.1149 21.2977 15.5039 21.5352 15.7383C21.7682 15.9681 21.924 16 22 16C22.076 16 22.2318 15.9681 22.4648 15.7383C22.7023 15.5039 22.9625 15.1149 23.2021 14.5557C23.393 14.1103 23.5573 13.5858 23.6875 13H20.3125ZM16.8047 13C17.3058 13.8659 18.0155 14.5957 18.8672 15.1182C18.6174 14.4875 18.4162 13.7728 18.2705 13H16.8047ZM25.7295 13C25.5838 13.7729 25.3817 14.4874 25.1318 15.1182C25.9838 14.5957 26.6941 13.8661 27.1953 13H25.7295ZM16.085 9C16.0304 9.32531 16 9.65917 16 10C16 10.3408 16.0304 10.6747 16.085 11H18.0293C18.0103 10.6716 18 10.3378 18 10C18 9.66216 18.0103 9.32835 18.0293 9H16.085ZM20.0361 9C20.0149 9.32453 20 9.6583 20 10C20 10.3417 20.0149 10.6755 20.0361 11H23.9639C23.9851 10.6755 24 10.3417 24 10C24 9.6583 23.9851 9.32453 23.9639 9H20.0361ZM25.9707 9C25.9897 9.32835 26 9.66216 26 10C26 10.3378 25.9897 10.6716 25.9707 11H27.915C27.9696 10.6747 28 10.3408 28 10C28 9.65917 27.9696 9.32531 27.915 9H25.9707ZM18.8672 4.88086C18.0153 5.40329 17.3058 6.13399 16.8047 7H18.2705C18.4163 6.22689 18.6172 5.51173 18.8672 4.88086ZM22 4C21.924 4 21.7682 4.03186 21.5352 4.26172C21.2977 4.49608 21.0375 4.88507 20.7979 5.44434C20.607 5.88966 20.4427 6.41423 20.3125 7H23.6875C23.5573 6.41423 23.393 5.88966 23.2021 5.44434C22.9625 4.88507 22.7023 4.49608 22.4648 4.26172C22.2318 4.03186 22.076 4 22 4ZM25.1318 4.88086C25.3819 5.51181 25.5837 6.22675 25.7295 7H27.1953C26.694 6.13375 25.984 5.40332 25.1318 4.88086Z" fill="#1F1F22"/>
</svg>
