<svg width="32" height="32" viewBox="0 0 32 32" fill="none" xmlns="http://www.w3.org/2000/svg">
<path d="M27.293 18.293C27.6835 17.9025 28.3165 17.9025 28.707 18.293C29.0975 18.6835 29.0975 19.3165 28.707 19.707L21.707 26.707C21.3165 27.0976 20.6835 27.0975 20.293 26.707C19.9024 26.3165 19.9024 25.6835 20.293 25.293L27.293 18.293Z" fill="#1F1F22"/>
<path d="M27.5 24C28.3284 24 29 24.6716 29 25.5C29 26.3284 28.3284 27 27.5 27C26.6716 27 26 26.3284 26 25.5C26 24.6716 26.6716 24 27.5 24Z" fill="#1F1F22"/>
<path d="M25 6C26.6569 6 28 7.34315 28 9V14C28 14.5523 27.5523 15 27 15C26.4477 15 26 14.5523 26 14V9C26 8.44771 25.5523 8 25 8H7C6.44772 8 6 8.44772 6 9V21C6 21.5523 6.44772 22 7 22H16C16.5523 22 17 22.4477 17 23C17 23.5523 16.5523 24 16 24H7C5.34315 24 4 22.6569 4 21V9C4 7.34315 5.34315 6 7 6H25Z" fill="#1F1F22"/>
<path d="M21.5 18C22.3284 18 23 18.6716 23 19.5C23 20.3284 22.3284 21 21.5 21C20.6716 21 20 20.3284 20 19.5C20 18.6716 20.6716 18 21.5 18Z" fill="#1F1F22"/>
<path d="M22 11C22.5523 11 23 11.4477 23 12C23 12.5523 22.5523 13 22 13H10C9.44772 13 9 12.5523 9 12C9 11.4477 9.44772 11 10 11H22Z" fill="#1F1F22"/>
</svg>
