<svg width="32" height="32" viewBox="0 0 32 32" fill="none" xmlns="http://www.w3.org/2000/svg">
<path fill-rule="evenodd" clip-rule="evenodd" d="M23.709 17C24.2626 17 24.7918 17.2294 25.1699 17.6337L27.4609 20.0839C27.8073 20.4544 28 20.943 28 21.4501V28C28 29.1045 27.1046 30 26 30H20C18.8954 30 18 29.1045 18 28V19C18 17.8954 18.8955 17 20 17H23.709ZM20 28H26V21.4501L23.709 19H20V28Z" fill="#1F1F22"/>
<path d="M15 22C15.5523 22 16 22.4477 16 23C16 23.5522 15.5523 24 15 24H5C4.44772 24 4 23.5522 4 23C4.00004 22.4477 4.44774 22 5 22H15Z" fill="#1F1F22"/>
<path d="M8.00098 11C8.55301 11.0002 9.00093 11.4479 9.00098 12V19C9.00098 19.5521 8.55304 19.9997 8.00098 20C7.44869 20 7.00098 19.5522 7.00098 19V12C7.00102 11.4477 7.44872 11 8.00098 11Z" fill="#1F1F22"/>
<path d="M13.001 11C13.553 11.0002 14.0009 11.4479 14.001 12V19C14.001 19.5521 13.553 19.9997 13.001 20C12.4487 20 12.001 19.5522 12.001 19V12C12.001 11.4477 12.4487 11 13.001 11Z" fill="#1F1F22"/>
<path d="M18 11C18.5523 11 19 11.4477 19 12V14C19 14.5522 18.5523 15 18 15C17.4477 15 17 14.5522 17 14V12C17 11.4477 17.4477 11 18 11Z" fill="#1F1F22"/>
<path d="M12.6963 4.54683C12.9265 4.47348 13.1769 4.48624 13.4004 4.58394L21.4004 8.08394C21.9062 8.30526 22.1371 8.89445 21.916 9.40035C21.6947 9.90622 21.1055 10.1371 20.5996 9.91597L13 6.59078L5.40039 9.91597C4.89448 10.1371 4.30531 9.90622 4.08398 9.40035C3.86286 8.89444 4.09374 8.30526 4.59961 8.08394L12.5996 4.58394L12.6963 4.54683Z" fill="#1F1F22"/>
</svg>
