<svg width="32" height="32" viewBox="0 0 32 32" fill="none" xmlns="http://www.w3.org/2000/svg">
<path fill-rule="evenodd" clip-rule="evenodd" d="M6 15C6 9.47 10.47 5 16 5C17.93 5 19.74 5.54 21.26 6.49C21.73 6.79 22.35 6.64 22.64 6.17C22.93 5.7 22.79 5.09 22.32 4.8C20.48 3.65 18.31 3 16 3C9.37 3 4 8.37 4 15C4 21.07 8.51 26.09 14.36 26.88C14.91 26.96 15.41 26.58 15.49 26.03C15.56 25.48 15.18 24.98 14.63 24.9C9.75 24.24 6 20.05 6 15ZM26.78 7.87C27.12 8.3 27.05 8.93 26.62 9.28L16.62 17.28C16.26 17.56 15.75 17.57 15.38 17.28L10.88 13.78C10.45 13.45 10.37 12.82 10.71 12.38C11.04 11.95 11.67 11.87 12.11 12.21L15.99 15.22L25.37 7.71C25.8 7.37 26.43 7.44 26.78 7.87ZM27.96 14.1C27.92 13.55 27.44 13.13 26.89 13.17C26.34 13.21 25.93 13.69 25.97 14.24C25.99 14.49 26 14.74 26 15C26 15.46 25.96 15.91 25.9 16.36C25.83 16.91 26.21 17.41 26.76 17.49C27.31 17.56 27.81 17.18 27.88 16.63C27.96 16.1 28 15.55 28 15C28 14.69 27.98 14.39 27.96 14.1ZM22 15.5C22.38 15.5 22.72 15.71 22.89 16.05L24.42 19.15L27.85 19.65C28.22 19.71 28.53 19.97 28.65 20.33C28.77 20.69 28.67 21.09 28.4 21.36L25.92 23.77L26.51 27.18C26.57 27.56 26.42 27.93 26.11 28.16C25.8 28.38 25.39 28.41 25.06 28.23L22 26.62L18.93 28.23C18.6 28.41 18.19 28.38 17.88 28.16C17.57 27.93 17.42 27.56 17.48 27.18L18.07 23.77L15.59 21.36C15.32 21.09 15.22 20.69 15.34 20.33C15.46 19.97 15.77 19.71 16.14 19.65L19.57 19.15L21.1 16.05C21.27 15.71 21.61 15.5 22 15.5ZM22 18.75L21.13 20.51C20.98 20.81 20.7 21.01 20.38 21.06L18.44 21.34L19.84 22.71C20.08 22.94 20.18 23.27 20.13 23.59L19.8 25.52L21.53 24.61C21.82 24.46 22.17 24.46 22.46 24.61L24.19 25.52L23.86 23.59C23.81 23.27 23.91 22.94 24.15 22.71L25.55 21.34L23.61 21.06C23.29 21.01 23.01 20.81 22.86 20.51L22 18.75Z" fill="#1F1F22"/>
</svg>
