<svg width="32" height="32" viewBox="0 0 32 32" fill="none" xmlns="http://www.w3.org/2000/svg">
<path fill-rule="evenodd" clip-rule="evenodd" d="M18.5 10C19.0523 10 19.5 10.4477 19.5 11C19.5 11.5523 19.0523 12 18.5 12H13V14H17C19.2091 14 21 15.7909 21 18C21 20.2091 19.2091 22 17 22H12C11.4477 22 11 21.5523 11 21V12C11 10.8954 11.8954 10 13 10H18.5ZM13 20H17C18.1046 20 19 19.1046 19 18C19 16.8954 18.1046 16 17 16H13V20Z" fill="#1F1F22"/>
<path fill-rule="evenodd" clip-rule="evenodd" d="M16 4C22.6274 4 28 9.37258 28 16C28 22.6274 22.6274 28 16 28H5C4.44772 28 4 27.5523 4 27V16C4 9.37258 9.37258 4 16 4ZM16 6C10.4772 6 6 10.4772 6 16V26H16C21.5228 26 26 21.5228 26 16C26 10.4772 21.5228 6 16 6Z" fill="#1F1F22"/>
</svg>
