<svg width="20" height="20" viewBox="0 0 20 20" fill="none" xmlns="http://www.w3.org/2000/svg">
<path fill-rule="evenodd" clip-rule="evenodd" d="M10.3096 8.70215C10.645 8.52475 11.2425 8.3636 11.7949 8.72949L11.9102 8.81348L11.9111 8.81445C12.9101 9.62772 13.4999 10.8248 13.5 12.1035C13.5 12.3045 13.4943 12.6988 13.3506 13.0654C13.2725 13.2646 13.1336 13.5094 12.8838 13.7041C12.6207 13.9091 12.31 14 12 14H6C5.68992 14 5.37926 13.9091 5.11621 13.7041C4.86644 13.5094 4.72752 13.2646 4.64941 13.0654C4.50568 12.6988 4.5 12.3047 4.5 12.1035C4.50008 10.8461 5.07266 9.66354 6.04395 8.85156L6.0459 8.84961C6.2257 8.7 6.49143 8.54257 6.84766 8.51855C7.17224 8.49675 7.4463 8.59601 7.63477 8.68359C8.54614 9.10725 9.48625 9.11807 10.3096 8.70215ZM10.915 10.6221C9.66184 11.1549 8.31232 11.1127 7.08398 10.6221C6.72971 11.0145 6.53039 11.4999 6.50586 12H11.4941C11.4697 11.4985 11.27 11.0145 10.915 10.6221Z" fill="#1F1F22"/>
<path fill-rule="evenodd" clip-rule="evenodd" d="M9 3.5C10.3807 3.5 11.5 4.61929 11.5 6C11.5 7.38071 10.3807 8.5 9 8.5C7.61929 8.5 6.5 7.38071 6.5 6C6.5 4.61929 7.61929 3.5 9 3.5ZM9 5.5C8.72386 5.5 8.5 5.72386 8.5 6C8.5 6.27614 8.72386 6.5 9 6.5C9.27614 6.5 9.5 6.27614 9.5 6C9.5 5.72386 9.27614 5.5 9 5.5Z" fill="#1F1F22"/>
<path fill-rule="evenodd" clip-rule="evenodd" d="M9 0C13.9634 0 18 4.03649 18 9C18 11.1222 17.26 13.0731 16.0273 14.6133L19.6836 18.2695C20.0736 18.6601 20.074 19.2932 19.6836 19.6836C19.2932 20.0739 18.6601 20.0736 18.2695 19.6836L14.6133 16.0273C13.0731 17.26 11.1221 18 9 18C4.03668 18 8.81517e-05 13.9637 0 9C0 4.03649 4.03665 0 9 0ZM9 2C5.14115 2 2 5.14113 2 9C2.00009 12.8591 5.14123 16 9 16C12.8588 16 15.9999 12.8591 16 9C16 5.14113 12.8588 2 9 2Z" fill="#1F1F22"/>
</svg>
