<svg width="32" height="32" viewBox="0 0 32 32" fill="none" xmlns="http://www.w3.org/2000/svg">
<path d="M16 11C16.5523 11 17 11.4477 17 12V15H20C20.5523 15 21 15.4477 21 16C21 16.5523 20.5523 17 20 17H17V20C17 20.5523 16.5523 21 16 21C15.4477 21 15 20.5523 15 20V17H12C11.4477 17 11 16.5523 11 16C11 15.4477 11.4477 15 12 15H15V12C15 11.4477 15.4477 11 16 11Z" fill="#1F1F22"/>
<path fill-rule="evenodd" clip-rule="evenodd" d="M23.0671 2.4141C20.9617 2.27238 17.8884 2.90572 15.9999 5.53432C14.1114 2.90572 11.0381 2.27238 8.93276 2.4141C4.60993 2.70507 1.6656 7.11116 2.56506 12.8366C3.06548 16.022 5.43685 19.6391 8.00287 22.6463C10.5895 25.6777 13.5542 28.296 15.4848 29.4566C15.8142 29.6546 16.2279 29.6463 16.5491 29.4354C18.2999 28.2853 21.252 25.6834 23.8775 22.6519C26.4746 19.6533 28.9329 16.0315 29.4348 12.8366C30.3342 7.11116 27.3899 2.70507 23.0671 2.4141ZM22.9328 4.40958C20.9131 4.27364 18.1073 5.02621 16.929 7.98598C16.7775 8.36644 16.4094 8.61611 15.9999 8.61611C15.5904 8.61611 15.2223 8.36644 15.0708 7.98598C13.8925 5.02621 11.0867 4.27364 9.06708 4.40958C6.32216 4.59434 3.75385 7.51674 4.54083 12.5262C4.94976 15.1293 6.9967 18.386 9.52427 21.3481C11.7803 23.992 14.2771 26.238 15.9786 27.397C17.5912 26.2225 20.0876 23.9729 22.3657 21.3425C24.9387 18.3718 27.0516 15.1198 27.459 12.5262C28.246 7.51674 25.6777 4.59434 22.9328 4.40958Z" fill="#1F1F22"/>
</svg>
