<svg width="32" height="32" viewBox="0 0 32 32" fill="none" xmlns="http://www.w3.org/2000/svg">
<path fill-rule="evenodd" clip-rule="evenodd" d="M27.6494 15.0107C27.9923 15.0624 28.2884 15.2903 28.4238 15.6172C28.5786 15.9909 28.493 16.421 28.207 16.707L24.4141 20.5L28.207 24.293C28.5976 24.6835 28.5976 25.3165 28.207 25.707L25.707 28.207C25.3165 28.5976 24.6835 28.5976 24.293 28.207L20.5 24.4141L16.707 28.207C16.421 28.493 15.9909 28.5786 15.6172 28.4238C15.2436 28.269 15 27.9044 15 27.5V16C15 15.4477 15.4477 15 16 15H27.5L27.6494 15.0107ZM17 25.0859L19.793 22.293L19.8691 22.2246C20.2619 21.9043 20.8409 21.9269 21.207 22.293L25 26.0859L26.0859 25L22.293 21.207C22.1054 21.0195 22 20.7652 22 20.5C22 20.2348 22.1054 19.9805 22.293 19.793L25.0859 17H17V25.0859Z" fill="#1F1F22"/>
<path d="M9.97461 20.4014C10.4158 20.0693 11.0428 20.1576 11.375 20.5986C11.7069 21.0397 11.6186 21.6668 11.1777 21.999L9.45117 23.2988C9.01001 23.6309 8.38299 23.5426 8.05078 23.1016C7.71867 22.6604 7.80696 22.0334 8.24805 21.7012L9.97461 20.4014Z" fill="#1F1F22"/>
<path d="M11 15C11.5523 15 12 15.4477 12 16C12 16.5523 11.5523 17 11 17H4C3.44772 17 3 16.5523 3 16C3 15.4477 3.44772 15 4 15H11Z" fill="#1F1F22"/>
<path d="M16 3C16.5523 3 17 3.44772 17 4V11C17 11.5523 16.5523 12 16 12C15.4477 12 15 11.5523 15 11V4C15 3.44772 15.4477 3 16 3Z" fill="#1F1F22"/>
<path d="M8.14258 8.14258C8.5331 7.75206 9.16612 7.75207 9.55664 8.14258L11.2842 9.86914C11.6746 10.2597 11.6747 10.8937 11.2842 11.2842C10.8937 11.6747 10.2597 11.6746 9.86914 11.2842L8.14258 9.55664C7.75207 9.16612 7.75207 8.5331 8.14258 8.14258Z" fill="#1F1F22"/>
<path d="M22.4873 8.10156C22.9008 7.73562 23.5324 7.77407 23.8984 8.1875C24.2643 8.60097 24.2258 9.23256 23.8125 9.59863L21.8623 11.3262C21.4488 11.692 20.8162 11.6536 20.4502 11.2402C20.0844 10.8269 20.1233 10.1953 20.5361 9.8291L22.4873 8.10156Z" fill="#1F1F22"/>
</svg>
