<svg width="20" height="20" viewBox="0 0 20 20" fill="none" xmlns="http://www.w3.org/2000/svg">
<path d="M9 0C9.55229 0 10 0.447715 10 1C10 1.55228 9.55229 2 9 2H4C3.44772 2 3 2.44772 3 3V17C3 17.5523 3.44772 18 4 18H14C14.5523 18 15 17.5523 15 17V12C15 11.4477 15.4477 11 16 11C16.5523 11 17 11.4477 17 12V17C17 18.6569 15.6569 20 14 20H4C2.34315 20 1 18.6569 1 17V3C1 1.34315 2.34315 3.22128e-08 4 0H9Z" fill="#1F1F22"/>
<path d="M12 14C12.5523 14 13 14.4477 13 15C13 15.5523 12.5523 16 12 16H6C5.44772 16 5 15.5523 5 15C5 14.4477 5.44772 14 6 14H12Z" fill="#1F1F22"/>
<path d="M8 10C8.55228 10 9 10.4477 9 11C9 11.5523 8.55228 12 8 12H6C5.44772 12 5 11.5523 5 11C5 10.4477 5.44772 10 6 10H8Z" fill="#1F1F22"/>
<path fill-rule="evenodd" clip-rule="evenodd" d="M14.376 0.951172C15.148 0.123709 16.4527 0.101177 17.2529 0.901367L18.3379 1.98633C19.0995 2.74827 19.1206 3.97683 18.3857 4.76465L14.7314 8.68164C14.5812 8.84271 14.3813 8.9501 14.1641 8.98633L11.8545 9.37109C10.8394 9.54003 9.95972 8.65964 10.1289 7.64453L10.5137 5.33594L10.5479 5.19336C10.5927 5.05405 10.6679 4.92527 10.7686 4.81738L14.376 0.951172ZM12.4365 5.96094L12.2158 7.2832L13.499 7.06934L16.9238 3.40039L15.8389 2.31543L12.4365 5.96094Z" fill="#1F1F22"/>
</svg>
