<svg width="20" height="20" viewBox="0 0 20 20" fill="none" xmlns="http://www.w3.org/2000/svg">
<path d="M10 5.99979C10.5522 5.99979 10.9999 6.44759 11 6.99979C11 7.55208 10.5523 7.99979 10 7.99979H6C5.44772 7.99979 5 7.55208 5 6.99979C5.0001 6.44759 5.44778 5.99979 6 5.99979H10Z" fill="#1F1F22"/>
<path fill-rule="evenodd" clip-rule="evenodd" d="M4.26953 2.8826C6.5406 1.82218 9.38966 1.67136 11.9482 2.68534C13.4775 2.01405 15.2884 2.0037 16.6592 2.0037C16.9807 2.00379 17.2828 2.15885 17.4707 2.41971C17.6585 2.68064 17.7093 3.0162 17.6074 3.32108L16.959 5.26053L18.0527 7.44706H19C19.5522 7.44706 19.9998 7.89493 20 8.44706V11.9461C20 12.3251 19.7854 12.6714 19.4463 12.8406L15.8408 14.6365L14.4141 17.4519C14.2437 17.788 13.8983 17.9998 13.5215 17.9998H10.3916C9.83935 17.9998 9.39166 17.552 9.3916 16.9998V16.4451H8.26074V16.9998C8.26074 17.5521 7.81303 17.9998 7.26074 17.9998H4.13086C3.81201 17.9998 3.51157 17.8479 3.32324 17.5906L3.32227 17.5887L3.31055 17.573C3.3034 17.5631 3.29387 17.5488 3.28125 17.531C3.25574 17.4952 3.21937 17.4436 3.17383 17.3777C3.08269 17.2459 2.95399 17.056 2.80078 16.8182C2.49489 16.3433 2.0865 15.6724 1.67773 14.8855C0.878346 13.3467 3.72046e-05 11.2241 0 9.2244C7.86341e-05 6.22921 1.85083 4.012 4.26953 2.8826ZM11.5615 4.69217C9.44192 3.72525 7.0044 3.81356 5.11621 4.6951C3.24372 5.56945 2.00008 7.16627 2 9.2244C2.00004 10.7233 2.68653 12.4887 3.45215 13.9627C3.82582 14.682 4.20142 15.2989 4.48242 15.7351C4.5457 15.8334 4.60583 15.9212 4.6582 15.9998H6.26074V15.4451C6.26085 14.8929 6.70858 14.4452 7.26074 14.4451H10.3916C10.9437 14.4453 11.3915 14.893 11.3916 15.4451V15.9998H12.9072L14.2061 13.4373C14.2789 13.2936 14.3851 13.17 14.5146 13.0769L14.6523 12.9949L18 11.326V9.44706H17.4346C17.056 9.44698 16.7095 9.23289 16.54 8.89432L14.9844 5.78495C14.8656 5.54756 14.8456 5.27206 14.9297 5.0203L15.2607 4.03202C14.1926 4.08433 13.2241 4.23417 12.4619 4.65702C12.1845 4.81087 11.8502 4.82385 11.5615 4.69217Z" fill="#1F1F22"/>
</svg>
