<svg width="32" height="32" viewBox="0 0 32 32" fill="none" xmlns="http://www.w3.org/2000/svg">
<path d="M22.5 17C23.332 17 24.1303 17.1567 24.8643 17.4433C25.3785 17.6444 25.6325 18.2249 25.4316 18.7392C25.2306 19.2534 24.6501 19.5075 24.1357 19.3066C23.63 19.1092 23.079 19 22.5 19C20.0147 19 18 21.0147 18 23.5C18 25.9852 20.0147 28 22.5 28C24.8712 28 26.8147 26.1653 26.9873 23.8388C27.0281 23.2881 27.5079 22.8742 28.0586 22.915C28.6093 22.9558 29.0231 23.4356 28.9824 23.9863C28.7331 27.3494 25.9263 30 22.5 30C18.9101 30 16 27.0898 16 23.5C16 19.9101 18.9102 17 22.5 17Z" fill="#1F1F22"/>
<path d="M26.875 19.4697C27.3062 19.1247 27.9362 19.1938 28.2812 19.625C28.6263 20.0562 28.5562 20.6862 28.125 21.0312L23.125 25.0312C22.7638 25.3202 22.2509 25.323 21.8857 25.039L19.8857 23.4843C19.4498 23.1453 19.372 22.5169 19.7109 22.081C20.05 21.6451 20.6783 21.5662 21.1143 21.9052L22.4912 22.9765L26.875 19.4697Z" fill="#1F1F22"/>
<path d="M13 22C13.5523 22 14 22.4477 14 23C14 23.5522 13.5523 24 13 24H5C4.44772 24 4 23.5522 4 23C4.00004 22.4477 4.44774 22 5 22H13Z" fill="#1F1F22"/>
<path d="M8.00098 11C8.55301 11.0002 9.00093 11.4479 9.00098 12V19C9.00098 19.5521 8.55304 19.9997 8.00098 20C7.44869 20 7.00098 19.5522 7.00098 19V12C7.00102 11.4477 7.44872 11 8.00098 11Z" fill="#1F1F22"/>
<path d="M13.001 11C13.553 11.0002 14.0009 11.4479 14.001 12V19C14.001 19.5521 13.553 19.9997 13.001 20C12.4487 20 12.001 19.5522 12.001 19V12C12.001 11.4477 12.4487 11 13.001 11Z" fill="#1F1F22"/>
<path d="M18 11C18.5523 11 19 11.4477 19 12V14C19 14.5522 18.5523 15 18 15C17.4477 15 17 14.5522 17 14V12C17 11.4477 17.4477 11 18 11Z" fill="#1F1F22"/>
<path d="M12.6963 4.54683C12.9265 4.47348 13.1769 4.48624 13.4004 4.58394L21.4004 8.08394C21.9062 8.30526 22.1371 8.89445 21.916 9.40035C21.6947 9.90622 21.1055 10.1371 20.5996 9.91597L13 6.59078L5.40039 9.91597C4.89448 10.1371 4.30531 9.90622 4.08398 9.40035C3.86286 8.89444 4.09374 8.30526 4.59961 8.08394L12.5996 4.58394L12.6963 4.54683Z" fill="#1F1F22"/>
</svg>
