<svg width="20" height="20" viewBox="0 0 20 20" fill="none" xmlns="http://www.w3.org/2000/svg">
<path fill-rule="evenodd" clip-rule="evenodd" d="M17 10C18.6569 10 20 11.3431 20 13C20 14.6569 18.6569 16 17 16H16V16.5H16.5C17.0523 16.5 17.5 16.9477 17.5 17.5C17.5 18.0523 17.0523 18.5 16.5 18.5H16V19C16 19.5523 15.5523 20 15 20C14.4477 20 14 19.5523 14 19V18.5H13.5C12.9477 18.5 12.5 18.0523 12.5 17.5C12.5 16.9477 12.9477 16.5 13.5 16.5H14V16H13.5C12.9477 16 12.5 15.5523 12.5 15C12.5 14.4477 12.9477 14 13.5 14H14V11L14.0049 10.8975C14.0562 10.3933 14.4823 10 15 10H17ZM16 14H17C17.5523 14 18 13.5523 18 13C18 12.4477 17.5523 12 17 12H16V14Z" fill="#1F1F22"/>
<path fill-rule="evenodd" clip-rule="evenodd" d="M11.5 0C12.8807 0 14 1.11929 14 2.5V4H17C18.6569 4 20 5.34315 20 7V7.5C20 8.05229 19.5523 8.5 19 8.5C18.4477 8.5 18 8.05229 18 7.5V7C18 6.44772 17.5523 6 17 6H3C2.44772 6 2 6.44772 2 7V16C2 16.5177 2.39333 16.9438 2.89746 16.9951L3.10254 17.0049C3.60667 17.0562 4 17.4823 4 18C4 18.5523 3.55228 19 3 19C1.34315 19 4.0266e-08 17.6569 0 16V7C0 5.34315 1.34315 4 3 4H6V2.5C6 1.11929 7.11929 8.05319e-09 8.5 0H11.5ZM8.5 2C8.22386 2 8 2.22386 8 2.5V4H12V2.5C12 2.22386 11.7761 2 11.5 2H8.5Z" fill="#1F1F22"/>
<path d="M9 17C9.55229 17 10 17.4477 10 18C10 18.5523 9.55229 19 9 19H7C6.44772 19 6 18.5523 6 18C6 17.4477 6.44772 17 7 17H9Z" fill="#1F1F22"/>
<path d="M10 14C10.5523 14 11 14.4477 11 15C11 15.5523 10.5523 16 10 16H8C7.44772 16 7 15.5523 7 15C7 14.4477 7.44772 14 8 14H10Z" fill="#1F1F22"/>
<path d="M11 11C11.5523 11 12 11.4477 12 12C12 12.5523 11.5523 13 11 13H9C8.44771 13 8 12.5523 8 12C8 11.4477 8.44771 11 9 11H11Z" fill="#1F1F22"/>
</svg>
