<svg width="20" height="20" viewBox="0 0 20 20" fill="none" xmlns="http://www.w3.org/2000/svg">
<path fill-rule="evenodd" clip-rule="evenodd" d="M4.78215 8.5829C4.84995 6.49659 6.51803 3.65842 9.99639 3.65625L10.0004 3.65625L10.0036 3.65626C13.482 3.65842 15.15 6.49659 15.2178 8.5829C15.2681 10.1279 14.7791 11.2003 14.4991 11.5736C14.2865 11.8571 13.9397 12.0069 13.5875 11.9673C12.948 11.8955 12.3321 12.1185 11.857 12.6255C11.3864 13.1278 11.0143 13.9585 11.0001 15.1431C11.0003 15.1667 11.0004 15.1903 11.0004 15.2139C11.0004 15.7662 10.5527 16.2139 10.0004 16.2139C9.44809 16.2139 8.99963 15.7662 8.99963 15.2139C8.99963 15.2054 8.99964 15.1968 8.99967 15.1883C8.99972 15.1732 8.99981 15.1582 8.99995 15.1431C8.98567 13.9585 8.61364 13.1278 8.14296 12.6255C7.66788 12.1185 7.05197 11.8955 6.41251 11.9673C6.06032 12.0069 5.7135 11.8571 5.50085 11.5736C5.22093 11.2003 4.73194 10.1279 4.78215 8.5829ZM6.7811 8.64787C6.82289 7.36183 7.85632 5.65645 10 5.65625C12.1437 5.65645 13.1771 7.36183 13.2189 8.64787C13.2378 9.22805 13.149 9.67231 13.0601 9.96481C12.0525 10.0387 11.1152 10.4922 10.3976 11.2579C10.2552 11.41 10.1224 11.573 10 11.7463C9.87756 11.573 9.74484 11.41 9.60238 11.2579C8.88481 10.4922 7.9475 10.0387 6.93993 9.96481C6.85105 9.67231 6.76224 9.22805 6.7811 8.64787Z" fill="#1F1F22"/>
<path fill-rule="evenodd" clip-rule="evenodd" d="M10 0C4.47715 0 0 4.47715 0 10C0 15.5228 4.47715 20 10 20C15.5228 20 20 15.5228 20 10C20 4.47715 15.5228 0 10 0ZM2 10C2 5.58172 5.58172 2 10 2C14.4183 2 18 5.58172 18 10C18 14.4183 14.4183 18 10 18C5.58172 18 2 14.4183 2 10Z" fill="#1F1F22"/>
</svg>
