<svg width="32" height="32" viewBox="0 0 32 32" fill="none" xmlns="http://www.w3.org/2000/svg">
<path d="M14.007 11.7145C11.7102 11.7145 9.84831 13.5764 9.84831 15.8732C9.84831 18.17 11.7102 20.0319 14.007 20.0319C16.1985 20.0319 17.9947 18.3363 18.1542 16.1861C18.1919 15.6771 18.6351 15.2951 19.1441 15.3328C19.6531 15.3706 20.0352 15.8138 19.9974 16.3228C19.767 19.4309 17.1735 21.8802 14.007 21.8802C10.6894 21.8802 8 19.1908 8 15.8732C8 12.5556 10.6894 9.86621 14.007 9.86621C14.776 9.86621 15.5132 10.0111 16.1915 10.276C16.6669 10.4617 16.9018 10.9976 16.7162 11.4731C16.5305 11.9485 15.9946 12.1834 15.5191 11.9977C15.0517 11.8152 14.5422 11.7145 14.007 11.7145Z" fill="#1F1F22"/>
<path d="M19.3495 12.2924C19.6683 12.691 19.6037 13.2726 19.2052 13.5914L14.5844 17.288C14.2506 17.5551 13.7771 17.5583 13.4397 17.2959L11.5914 15.8583C11.1885 15.5449 11.1159 14.9643 11.4293 14.5614C11.7426 14.1585 12.3232 14.086 12.7261 14.3993L13.999 15.3893L18.0505 12.1481C18.4491 11.8293 19.0306 11.8939 19.3495 12.2924Z" fill="#1F1F22"/>
<path fill-rule="evenodd" clip-rule="evenodd" d="M29.9085 6.54515L24.5 14.866L30.8967 23.3949C31.3723 24.029 30.9562 24.938 30.1655 24.9925L4.0688 26.7923C3.4908 26.8321 3 26.374 3 25.7946V7.71302C3 7.18719 3.40723 6.75119 3.93184 6.71535L29.0019 5.00249C29.8246 4.94628 30.3579 5.85381 29.9085 6.54515ZM27.1402 7.13435L22.0614 14.9479L28.1933 23.1238L5 24.7233V8.64703L27.1402 7.13435Z" fill="#1F1F22"/>
</svg>
