<svg width="20" height="20" viewBox="0 0 20 20" fill="none" xmlns="http://www.w3.org/2000/svg">
<path d="M16.1364 5.09126C16.8142 5.09126 17.3637 4.5418 17.3637 3.86399C17.3637 3.18619 16.8142 2.63672 16.1364 2.63672C15.4586 2.63672 14.9091 3.18619 14.9091 3.86399C14.9091 4.5418 15.4586 5.09126 16.1364 5.09126Z" fill="#1F1F22"/>
<path d="M9.99998 5.27344C9.10717 5.27344 8.275 5.51998 7.56442 5.94814C7.09138 6.23318 6.47683 6.08077 6.19179 5.60772C5.90675 5.13468 6.05917 4.52013 6.53221 4.23509C7.54561 3.62446 8.73333 3.27344 9.99998 3.27344C13.7153 3.27344 16.7273 6.28534 16.7273 10.0007C16.7273 11.0307 16.4951 12.0092 16.0794 12.8843C15.8424 13.3832 15.2459 13.5955 14.747 13.3585C14.2481 13.1215 14.0359 12.525 14.2728 12.0262C14.5639 11.4135 14.7273 10.7276 14.7273 10.0007C14.7273 7.38991 12.6108 5.27344 9.99998 5.27344Z" fill="#1F1F22"/>
<path d="M5.25295 6.6429C5.75181 6.87989 5.9641 7.4764 5.72712 7.97526C5.43606 8.58795 5.27271 9.27386 5.27271 10.0007C5.27271 12.6115 7.38918 14.728 9.99998 14.728C10.8928 14.728 11.725 14.4814 12.4355 14.0533C12.9086 13.7682 13.5231 13.9207 13.8082 14.3937C14.0932 14.8667 13.9408 15.4813 13.4677 15.7663C12.4543 16.377 11.2666 16.728 9.99998 16.728C6.28461 16.728 3.27271 13.7161 3.27271 10.0007C3.27271 8.97077 3.50485 7.99225 3.9206 7.11707C4.15758 6.61822 4.75409 6.40592 5.25295 6.6429Z" fill="#1F1F22"/>
<path fill-rule="evenodd" clip-rule="evenodd" d="M13 10C13 11.6569 11.6569 13 10 13C8.34315 13 7 11.6569 7 10C7 8.34315 8.34315 7 10 7C11.6569 7 13 8.34315 13 10ZM11 10C11 10.5523 10.5523 11 10 11C9.44772 11 9 10.5523 9 10C9 9.44772 9.44772 9 10 9C10.5523 9 11 9.44772 11 10Z" fill="#1F1F22"/>
<path fill-rule="evenodd" clip-rule="evenodd" d="M4 0C1.79086 0 0 1.79086 0 4V16C0 18.2091 1.79086 20 4 20H16C18.2091 20 20 18.2091 20 16V4C20 1.79086 18.2091 0 16 0H4ZM2 4C2 2.89543 2.89543 2 4 2H16C17.1046 2 18 2.89543 18 4V16C18 17.1046 17.1046 18 16 18H4C2.89543 18 2 17.1046 2 16V4Z" fill="#1F1F22"/>
</svg>
