<svg width="20" height="20" viewBox="0 0 20 20" fill="none" xmlns="http://www.w3.org/2000/svg">
<path d="M7 0C7.55228 0 8 0.447715 8 1C8 1.55228 7.55228 2 7 2H4C3.44772 2 3 2.44772 3 3V17C3 17.5523 3.44772 18 4 18H14C14.5523 18 15 17.5523 15 17V10C15 9.44771 15.4477 9 16 9C16.5523 9 17 9.44771 17 10V17C17 18.6569 15.6569 20 14 20H4C2.34315 20 1 18.6569 1 17V3C1 1.34315 2.34315 1.61064e-08 4 0H7Z" fill="#1F1F22"/>
<path d="M12 14C12.5523 14 13 14.4477 13 15C13 15.5523 12.5523 16 12 16H6C5.44772 16 5 15.5523 5 15C5 14.4477 5.44772 14 6 14H12Z" fill="#1F1F22"/>
<path d="M9 10C9.55229 10 10 10.4477 10 11C10 11.5523 9.55229 12 9 12H6C5.44772 12 5 11.5523 5 11C5 10.4477 5.44772 10 6 10H9Z" fill="#1F1F22"/>
<path d="M16 0C16.2751 0 16.5243 0.111296 16.7051 0.291016L16.709 0.294922C16.8038 0.39027 16.8754 0.50016 16.9238 0.617188C16.9727 0.735094 17 0.86441 17 1V6C17 6.55228 16.5523 7 16 7C15.4477 7 15 6.55228 15 6V3.41406L10.707 7.70703C10.3165 8.09756 9.68349 8.09756 9.29297 7.70703C8.90244 7.31651 8.90244 6.68349 9.29297 6.29297L13.5859 2H11C10.4477 2 10 1.55228 10 1C10 0.447715 10.4477 0 11 0H16Z" fill="#1F1F22"/>
</svg>
