<svg width="20" height="20" viewBox="0 0 20 20" fill="none" xmlns="http://www.w3.org/2000/svg">
<path d="M10 0C10.5523 0 11 0.447715 11 1C11 1.55228 10.5523 2 10 2H4C3.44772 2 3 2.44772 3 3V17C3 17.5523 3.44772 18 4 18H14C14.5523 18 15 17.5523 15 17V13C15 12.4477 15.4477 12 16 12C16.5523 12 17 12.4477 17 13V17C17 18.6569 15.6569 20 14 20H4C2.34315 20 1 18.6569 1 17V3C1 1.34315 2.34315 0 4 0H10Z" fill="#1F1F22"/>
<path d="M12 14C12.5523 14 13 14.4477 13 15C13 15.5523 12.5523 16 12 16H6C5.44772 16 5 15.5523 5 15C5 14.4477 5.44772 14 6 14H12Z" fill="#1F1F22"/>
<path d="M8 10C8.55228 10 9 10.4477 9 11C9 11.5523 8.55228 12 8 12H6C5.44772 12 5 11.5523 5 11C5 10.4477 5.44772 10 6 10H8Z" fill="#1F1F22"/>
<path fill-rule="evenodd" clip-rule="evenodd" d="M16.5 0C18.1569 0 19.5 1.34315 19.5 3C19.5 4.65685 18.1569 6 16.5 6H15.5V6.5H16C16.5523 6.5 17 6.94772 17 7.5C17 8.05229 16.5523 8.5 16 8.5H15.5V9C15.5 9.55229 15.0523 10 14.5 10C13.9477 10 13.5 9.55229 13.5 9V8.5H13C12.4477 8.5 12 8.05229 12 7.5C12 6.94772 12.4477 6.5 13 6.5H13.5V6H13C12.4477 6 12 5.55228 12 5C12 4.44772 12.4477 4 13 4H13.5V1L13.5049 0.897461C13.5562 0.393331 13.9823 0 14.5 0H16.5ZM15.5 4H16.5C17.0523 4 17.5 3.55228 17.5 3C17.5 2.44772 17.0523 2 16.5 2H15.5V4Z" fill="#1F1F22"/>
<path d="M8 6C8.55228 6 9 6.44772 9 7C9 7.55228 8.55228 8 8 8H6C5.44772 8 5 7.55228 5 7C5 6.44772 5.44772 6 6 6H8Z" fill="#1F1F22"/>
</svg>
