<svg width="32" height="32" viewBox="0 0 32 32" fill="none" xmlns="http://www.w3.org/2000/svg">
<path fill-rule="evenodd" clip-rule="evenodd" d="M16 3C16.7369 3 17.4603 3.06148 18.165 3.17969C18.7096 3.27105 19.0775 3.7865 18.9863 4.33105C18.895 4.87558 18.3795 5.24345 17.835 5.15234C17.239 5.05236 16.6258 5 16 5C15.6581 5 15.242 5.16212 14.7666 5.64453C14.2876 6.13074 13.81 6.88595 13.3877 7.89941C12.6334 9.70968 12.1195 12.1936 12.0195 15H15C15.5523 15 16 15.4477 16 16C16 16.5523 15.5523 17 15 17H12.0195C12.1195 19.8064 12.6334 22.2903 13.3877 24.1006C13.81 25.114 14.2876 25.8693 14.7666 26.3555C15.242 26.8379 15.6581 27 16 27C16.1185 27 16.2463 26.9771 16.3828 26.9307C16.685 26.827 17.0238 26.5987 17.377 26.2012C17.5916 25.959 17.8134 25.6538 18.0361 25.2725C18.1398 25.0945 18.2437 24.9006 18.3467 24.6895C18.7422 23.8786 19.0866 22.892 19.3574 21.7705C19.4353 21.4478 19.507 21.1135 19.5723 20.7686C19.6171 20.5317 19.6589 20.2901 19.6973 20.0439C19.707 19.9811 19.7172 19.918 19.7266 19.8545C19.8172 19.2392 19.8871 18.5956 19.9336 17.9307C19.9721 17.3797 20.45 16.9634 21.001 17.002C21.5516 17.0406 21.967 17.5187 21.9287 18.0693C21.8794 18.7748 21.8037 19.4631 21.7061 20.1289C21.7053 20.1344 21.7059 20.14 21.7051 20.1455C21.6791 20.3222 21.6504 20.4973 21.6211 20.6709C21.6157 20.7029 21.61 20.7347 21.6045 20.7666C21.5821 20.8961 21.5584 21.0247 21.5342 21.1523C21.5254 21.1984 21.5168 21.2443 21.5078 21.29C21.4878 21.3922 21.4675 21.4938 21.4463 21.5947C21.4372 21.6381 21.4283 21.6815 21.4189 21.7246C21.3946 21.8374 21.3696 21.9494 21.3438 22.0605C21.3318 22.1118 21.3198 22.163 21.3076 22.2139C21.1972 22.6738 21.074 23.118 20.9395 23.5439C20.9317 23.5685 20.9229 23.5927 20.915 23.6172C20.8777 23.7337 20.8409 23.8492 20.8018 23.9629C20.7929 23.9887 20.7834 24.0143 20.7744 24.04C20.7372 24.1465 20.6989 24.2516 20.6602 24.3555C20.646 24.3933 20.6325 24.4313 20.6182 24.4688C20.5859 24.5531 20.5528 24.6363 20.5195 24.7188C20.4981 24.772 20.476 24.8246 20.4541 24.877C20.4295 24.936 20.4051 24.9947 20.3799 25.0527C20.3515 25.1182 20.323 25.183 20.2939 25.2471C20.2654 25.31 20.2362 25.372 20.207 25.4336C20.186 25.4781 20.1659 25.5227 20.1445 25.5664C20.1431 25.5694 20.1411 25.5722 20.1396 25.5752C20.0249 25.8099 19.9062 26.035 19.7822 26.249C19.7619 26.2841 19.7395 26.3178 19.7188 26.3525C19.7623 26.3369 19.8063 26.3228 19.8496 26.3066C20.63 26.015 21.3678 25.6368 22.0527 25.1846C22.2973 25.0231 22.5353 24.8528 22.7656 24.6729C23.5234 24.0809 24.2013 23.3917 24.7812 22.624C24.9595 22.3881 25.128 22.1447 25.2871 21.8945C25.7242 21.2074 26.0877 20.469 26.3652 19.6895C26.5775 19.0932 26.7405 18.4736 26.8477 17.835C26.939 17.2903 27.4553 16.9223 28 17.0137C28.5443 17.1052 28.9114 17.6207 28.8203 18.165C28.6985 18.8909 28.5141 19.5956 28.2773 20.2754C28.2718 20.2946 28.2665 20.3139 28.2598 20.333C28.2562 20.3432 28.2517 20.3531 28.248 20.3633C28.2354 20.3989 28.222 20.4342 28.209 20.4697C28.1601 20.6033 28.1088 20.7357 28.0557 20.8672C28.032 20.9257 28.0079 20.9839 27.9834 21.042C27.9402 21.1446 27.8954 21.2464 27.8496 21.3477C27.8121 21.4305 27.7735 21.5128 27.7344 21.5947C27.6983 21.6703 27.6615 21.7455 27.624 21.8203C27.5836 21.9009 27.5421 21.9809 27.5 22.0605C27.4615 22.1335 27.4227 22.2062 27.3828 22.2783C27.3372 22.3608 27.2915 22.443 27.2441 22.5244C27.2018 22.5973 27.158 22.6692 27.1143 22.7412C27.0648 22.8226 27.016 22.9042 26.9648 22.9844C26.9601 22.9918 26.9559 22.9995 26.9512 23.0068C26.7734 23.2841 26.5854 23.5541 26.3877 23.8164C26.3824 23.8234 26.3764 23.8299 26.3711 23.8369C26.3381 23.8805 26.3031 23.9226 26.2695 23.9658C26.1953 24.0614 26.1208 24.1566 26.0439 24.25C26.0024 24.3005 25.9603 24.3505 25.918 24.4004C25.8435 24.4883 25.7682 24.5753 25.6914 24.6611C25.6476 24.7101 25.6031 24.7583 25.5586 24.8066C25.4821 24.8896 25.4048 24.9718 25.3262 25.0527C25.2819 25.0983 25.2373 25.1435 25.1924 25.1885C25.1138 25.2671 25.0337 25.3443 24.9531 25.4209C24.8989 25.4725 24.8452 25.5246 24.79 25.5752C24.7226 25.6371 24.6537 25.6973 24.585 25.7578C24.5228 25.8125 24.4616 25.8683 24.3984 25.9219C24.3287 25.981 24.2565 26.0371 24.1855 26.0947C24.1168 26.1506 24.0494 26.2082 23.9795 26.2627L23.9785 26.2637C23.8489 26.3646 23.7175 26.4635 23.584 26.5596C23.5786 26.5634 23.5727 26.5665 23.5674 26.5703C23.5358 26.5929 23.5034 26.6144 23.4717 26.6367C23.3599 26.7154 23.2472 26.7929 23.1328 26.8682C23.082 26.9016 23.0308 26.9341 22.9795 26.9668C22.8808 27.0297 22.7811 27.091 22.6807 27.1514C22.6148 27.1909 22.5481 27.2292 22.4814 27.2676C22.3966 27.3165 22.3116 27.3651 22.2256 27.4121C22.1592 27.4484 22.0925 27.4843 22.0254 27.5195C21.9308 27.5691 21.8352 27.6168 21.7393 27.6641C21.6692 27.6986 21.5991 27.7333 21.5283 27.7666C21.443 27.8068 21.3569 27.8454 21.2705 27.8838C21.1965 27.9167 21.1226 27.9499 21.0479 27.9814C20.9521 28.0218 20.8557 28.0605 20.7588 28.0986C20.6851 28.1276 20.6115 28.1569 20.5371 28.1846C20.413 28.2308 20.288 28.2749 20.1621 28.3174C20.0506 28.3551 19.9381 28.3901 19.8252 28.4248C19.7321 28.4534 19.6389 28.4822 19.5449 28.5088C19.4652 28.5313 19.385 28.5522 19.3047 28.5732C19.2019 28.6002 19.0989 28.6269 18.9951 28.6514C18.9245 28.668 18.8533 28.6827 18.7822 28.6982C18.6791 28.7207 18.5757 28.7427 18.4717 28.7627C18.3915 28.7781 18.3111 28.7927 18.2305 28.8066C18.1196 28.8258 18.0083 28.844 17.8965 28.8604C17.8273 28.8705 17.758 28.8797 17.6885 28.8887C17.5827 28.9024 17.4766 28.9146 17.3701 28.9258C17.2847 28.9347 17.1992 28.9439 17.1133 28.9512C17.0036 28.9605 16.8936 28.9671 16.7832 28.9736C16.7098 28.978 16.6363 28.9832 16.5625 28.9863C16.5511 28.9868 16.5397 28.9888 16.5283 28.9893C16.3531 28.9963 16.177 29 16 29C8.8203 29 3 23.1797 3 16C3 8.8203 8.8203 3 16 3ZM5.04688 17C5.43727 21.3314 8.33686 24.9377 12.2822 26.3545C12.0109 25.8998 11.7626 25.4019 11.541 24.8701C10.6694 22.7781 10.1189 20.0228 10.0186 17H5.04688ZM12.2178 5.66699C8.30499 7.09961 5.43516 10.692 5.04688 15H10.0186C10.1189 11.9772 10.6694 9.22186 11.541 7.12988C11.7625 6.59841 12.0092 6.09994 12.2803 5.64551C12.2595 5.65296 12.2385 5.65942 12.2178 5.66699Z" fill="#1F1F22"/>
<path d="M22.793 4.79297C23.1835 4.40248 23.8165 4.40248 24.207 4.79297L28.707 9.29297C28.7548 9.34078 28.7976 9.39354 28.835 9.4502C28.8597 9.48768 28.8812 9.52662 28.9004 9.56641C28.9637 9.69767 29 9.8445 29 10C29 10.0563 28.9933 10.1112 28.9844 10.165C28.9772 10.2078 28.9687 10.2503 28.9561 10.292C28.9412 10.3407 28.9222 10.3874 28.9004 10.4326C28.8936 10.4468 28.8864 10.4607 28.8789 10.4746C28.851 10.5262 28.8184 10.5745 28.7822 10.6201C28.7796 10.6234 28.7781 10.6276 28.7754 10.6309C28.754 10.657 28.7314 10.6826 28.707 10.707L24.207 15.207C23.8165 15.5976 23.1835 15.5976 22.793 15.207C22.4025 14.8165 22.4025 14.1835 22.793 13.793L25.5859 11H19C18.4477 11 18 10.5523 18 10C18 9.44772 18.4477 9 19 9H25.5859L22.793 6.20703C22.4025 5.81651 22.4025 5.18349 22.793 4.79297Z" fill="#1F1F22"/>
</svg>
