<svg width="32" height="32" viewBox="0 0 32 32" fill="none" xmlns="http://www.w3.org/2000/svg">
<path fill-rule="evenodd" clip-rule="evenodd" d="M17.5 9.99997C19.433 9.99997 21 11.567 21 13.5C21 15.433 19.433 17 17.5 17H16V18H16.9883C17.5406 18 17.9883 18.4477 17.9883 19C17.9883 19.5522 17.5406 20 16.9883 20H16V21C16 21.5522 15.5523 22 15 22C14.4477 22 14 21.5522 14 21V20H13C12.4477 20 12 19.5522 12 19C12 18.4477 12.4477 18 13 18H14V17H13C12.4477 17 12 16.5522 12 16C12 15.4477 12.4477 15 13 15H14V11L14.0049 10.8974C14.0562 10.3933 14.4823 9.99997 15 9.99997H17.5ZM16 15H17.5C18.3284 15 19 14.3284 19 13.5C19 12.6715 18.3284 12 17.5 12H16V15Z" fill="#1F1F22"/>
<path fill-rule="evenodd" clip-rule="evenodd" d="M15.71 4.04294C15.899 3.98569 16.101 3.98569 16.29 4.04294L26.29 7.07224C26.7116 7.20005 27 7.58873 27 8.02927V13.582C27 21.1348 22.117 25.7729 16.4824 28.8759C16.1821 29.0413 15.8179 29.0413 15.5176 28.8759C9.88238 25.7725 5.00002 21.1194 5 13.582V8.02927C5 7.58873 5.28839 7.20005 5.70996 7.07224L15.71 4.04294ZM7 8.77048V13.582C7.00002 19.8542 10.8729 23.9179 16 26.8525C21.1276 23.9184 25 19.8682 25 13.582V8.77048L16 6.04392L7 8.77048Z" fill="#1F1F22"/>
</svg>
