<svg width="32" height="32" viewBox="0 0 32 32" fill="none" xmlns="http://www.w3.org/2000/svg">
<path fill-rule="evenodd" clip-rule="evenodd" d="M23 14.9999C25.7614 14.9999 28 17.2385 28 19.9999C28 21.6354 27.2141 23.0867 26 23.9989V28.9999C26 29.3465 25.8202 29.6683 25.5254 29.8505C25.2306 30.0326 24.8626 30.0494 24.5527 29.8944L23 29.1181L21.4473 29.8944C21.1374 30.0494 20.7694 30.0326 20.4746 29.8505C20.1798 29.6683 20 29.3465 20 28.9999V23.9989C18.7859 23.0867 18 21.6354 18 19.9999C18 17.2385 20.2386 14.9999 23 14.9999ZM24 24.8993C23.6769 24.9649 23.3425 24.9999 23 24.9999C22.6575 24.9999 22.3231 24.9649 22 24.8993V27.3817L22.5527 27.1054C22.8342 26.9646 23.1658 26.9646 23.4473 27.1054L24 27.3817V24.8993ZM23 16.9999C21.3432 16.9999 20 18.3431 20 19.9999C20 21.6567 21.3431 22.9999 23 22.9999C24.6569 22.9999 26 21.6567 26 19.9999C26 18.3431 24.6568 16.9999 23 16.9999Z" fill="#1F1F22"/>
<path d="M16 21.9999C16.5523 21.9999 17 22.4476 17 22.9999C17 23.5522 16.5523 23.9999 16 23.9999H5C4.44772 23.9999 4 23.5522 4 22.9999C4.00004 22.4476 4.44774 21.9999 5 21.9999H16Z" fill="#1F1F22"/>
<path d="M8.00098 10.9999C8.55301 11.0002 9.00093 11.4478 9.00098 11.9999V18.9999C9.00098 19.552 8.55304 19.9996 8.00098 19.9999C7.44869 19.9999 7.00098 19.5522 7.00098 18.9999V11.9999C7.00102 11.4476 7.44872 10.9999 8.00098 10.9999Z" fill="#1F1F22"/>
<path d="M13.001 10.9999C13.553 11.0002 14.0009 11.4478 14.001 11.9999V18.9999C14.001 19.552 13.553 19.9996 13.001 19.9999C12.4487 19.9999 12.001 19.5522 12.001 18.9999V11.9999C12.001 11.4476 12.4487 10.9999 13.001 10.9999Z" fill="#1F1F22"/>
<path d="M18 10.9999C18.5523 10.9999 19 11.4476 19 11.9999V13.9999C19 14.5522 18.5523 14.9999 18 14.9999C17.4477 14.9999 17 14.5522 17 13.9999V11.9999C17 11.4476 17.4477 10.9999 18 10.9999Z" fill="#1F1F22"/>
<path d="M12.6963 4.54677C12.9265 4.47342 13.1769 4.48618 13.4004 4.58388L21.4004 8.08388C21.9062 8.3052 22.1371 8.89439 21.916 9.40028C21.6947 9.90615 21.1055 10.137 20.5996 9.91591L13 6.59071L5.40039 9.91591C4.89448 10.137 4.30531 9.90616 4.08398 9.40028C3.86286 8.89438 4.09374 8.3052 4.59961 8.08388L12.5996 4.58388L12.6963 4.54677Z" fill="#1F1F22"/>
</svg>
