<svg width="32" height="32" viewBox="0 0 32 32" fill="none" xmlns="http://www.w3.org/2000/svg">
<path d="M26 14C26.5523 14 27 14.4477 27 15V20C27 21.6569 25.6569 23 24 23H17V26H21C21.5523 26 22 26.4477 22 27C22 27.5523 21.5523 28 21 28H11C10.4477 28 10 27.5523 10 27C10 26.4477 10.4477 26 11 26H15V23H8C6.34315 23 5 21.6569 5 20V15C5.00001 14.4477 5.44772 14 6 14C6.55228 14 6.99999 14.4477 7 15V20C7 20.5523 7.44772 21 8 21H24C24.5523 21 25 20.5523 25 20V15C25 14.4477 25.4477 14 26 14Z" fill="#1F1F22"/>
<path d="M11.624 5.00783C12.172 5.07637 12.5607 5.57606 12.4922 6.12404L11.9922 10.124C11.9237 10.672 11.424 11.0607 10.876 10.9922C10.328 10.9237 9.93931 10.424 10.0078 9.87599L10.5078 5.87599C10.5763 5.32799 11.076 4.93933 11.624 5.00783Z" fill="#1F1F22"/>
<path d="M16 5.00002C16.5523 5.00002 17 5.44774 17 6.00002V10C17 10.5523 16.5523 11 16 11C15.4477 11 15 10.5523 15 10V6.00002C15 5.44774 15.4477 5.00002 16 5.00002Z" fill="#1F1F22"/>
<path d="M20.376 5.00783C20.924 4.93934 21.4237 5.328 21.4922 5.87599L21.9922 9.87599C22.0607 10.424 21.672 10.9237 21.124 10.9922C20.576 11.0607 20.0763 10.6721 20.0078 10.124L19.5078 6.12404C19.4393 5.57603 19.828 5.07633 20.376 5.00783Z" fill="#1F1F22"/>
<path d="M6.03027 5.75783C6.16421 5.22213 6.70648 4.89651 7.24219 5.03029C7.7779 5.16422 8.10351 5.70649 7.96973 6.2422L6.96973 10.2422C6.8358 10.7779 6.29352 11.1035 5.75781 10.9697C5.22211 10.8358 4.89647 10.2935 5.03027 9.75783L6.03027 5.75783Z" fill="#1F1F22"/>
<path d="M24.7578 5.03029C25.2935 4.8965 25.8358 5.22213 25.9697 5.75783L26.9697 9.75783C27.1035 10.2935 26.7779 10.8358 26.2422 10.9697C25.7065 11.1035 25.1642 10.7779 25.0303 10.2422L24.0303 6.2422C23.8965 5.70649 24.2221 5.16422 24.7578 5.03029Z" fill="#1F1F22"/>
</svg>
