<svg width="32" height="32" viewBox="0 0 32 32" fill="none" xmlns="http://www.w3.org/2000/svg">
<path d="M15 4.00026C15.5523 4.00026 16 4.44798 16 5.00026C15.9999 5.55243 15.5522 6.00026 15 6.00026H10C9.44772 6.00026 9 6.44798 9 7.00026V24.0003C9.00014 24.5524 9.4478 25.0003 10 25.0003H22C22.5522 25.0003 22.9999 24.5524 23 24.0003V16.0003C23 15.448 23.4477 15.0003 24 15.0003C24.5523 15.0003 25 15.448 25 16.0003V24.0003C24.9999 25.657 23.6568 27.0003 22 27.0003H10C8.34323 27.0003 7.00014 25.657 7 24.0003V7.00026C7 5.34341 8.34315 4.00026 10 4.00026H15Z" fill="#1F1F22"/>
<path d="M20 20.0003C20.5523 20.0003 21 20.448 21 21.0003C20.9999 21.5524 20.5522 22.0003 20 22.0003H12C11.4478 22.0003 11.0001 21.5524 11 21.0003C11 20.448 11.4477 20.0003 12 20.0003H20Z" fill="#1F1F22"/>
<path d="M15 16.0003C15.5523 16.0003 16 16.448 16 17.0003C15.9999 17.5524 15.5522 18.0003 15 18.0003H12C11.4478 18.0003 11.0001 17.5524 11 17.0003C11 16.448 11.4477 16.0003 12 16.0003H15Z" fill="#1F1F22"/>
<path fill-rule="evenodd" clip-rule="evenodd" d="M22.0859 4.00026C22.867 3.21931 24.133 3.21931 24.9141 4.00026L26 5.0862C26.7808 5.86724 26.7809 7.13335 26 7.91432L20.707 13.2073C20.5597 13.3546 20.3696 13.4523 20.1641 13.4866L17.8545 13.8714C16.8396 14.0403 15.9601 13.1607 16.1289 12.1458L16.5137 9.8362L16.5508 9.68483C16.5996 9.53792 16.6825 9.40371 16.793 9.29323L22.0859 4.00026ZM18.4336 10.4798L18.2158 11.7835L19.5195 11.5657L24.5859 6.50026L23.5 5.41432L18.4336 10.4798Z" fill="#1F1F22"/>
</svg>
