<svg width="32" height="32" viewBox="0 0 32 32" fill="none" xmlns="http://www.w3.org/2000/svg">
<path d="M21 3C22.6569 3 24 4.34315 24 6V10C24 10.5523 23.5523 11 23 11C22.4477 11 22 10.5523 22 10V6C22 5.44772 21.5523 5 21 5H19L18.9951 5.10254C18.9438 5.60667 18.5177 6 18 6H14C13.4477 6 13 5.55228 13 5H11C10.4477 5 10 5.44772 10 6V26C10 26.5523 10.4477 27 11 27H21C21.5523 27 22 26.5523 22 26V22C22 21.4477 22.4477 21 23 21C23.5523 21 24 21.4477 24 22V26C24 27.6569 22.6569 29 21 29H11C9.34315 29 8 27.6569 8 26V6C8 4.34315 9.34315 3 11 3H21Z" fill="#1F1F22"/>
<path d="M17.5 23C18.0523 23 18.5 23.4477 18.5 24C18.5 24.5523 18.0523 25 17.5 25H14.5C13.9477 25 13.5 24.5523 13.5 24C13.5 23.4477 13.9477 23 14.5 23H17.5Z" fill="#1F1F22"/>
<path d="M26.793 11.293C27.1835 10.9025 27.8165 10.9025 28.207 11.293C28.5976 11.6835 28.5976 12.3165 28.207 12.707L22.207 18.707C21.8165 19.0976 21.1835 19.0976 20.793 18.707L17.293 15.207C16.9025 14.8165 16.9025 14.1835 17.293 13.793C17.6835 13.4025 18.3165 13.4025 18.707 13.793L21.5 16.5859L26.793 11.293Z" fill="#1F1F22"/>
</svg>
