<svg width="32" height="32" viewBox="0 0 32 32" fill="none" xmlns="http://www.w3.org/2000/svg">
<path fill-rule="evenodd" clip-rule="evenodd" d="M14 5C14.5523 5 15 5.44772 15 6C15 6.55228 14.5523 7 14 7H10C9.44772 7 9 7.44772 9 8V18H14C15.6569 18 17 19.3431 17 21V26H22C22.5523 26 23 25.5523 23 25V17C23 16.4477 23.4477 16 24 16C24.5523 16 25 16.4477 25 17V25C25 26.6569 23.6569 28 22 28H16.8281C16.0326 27.9999 15.2696 27.6836 14.707 27.1211L7.87891 20.293C7.31637 19.7304 7.00008 18.9674 7 18.1719V8C7 6.34315 8.34315 5 10 5H14ZM15 24.5859V21C15 20.4477 14.5523 20 14 20H10.4141L15 24.5859Z" fill="#1F1F22"/>
<path d="M25.293 5.29297C25.6835 4.90251 26.3165 4.90246 26.707 5.29297C27.0975 5.68347 27.0975 6.31651 26.707 6.70703L19.707 13.707C19.3165 14.0976 18.6835 14.0975 18.293 13.707C17.9024 13.3165 17.9024 12.6835 18.293 12.293L25.293 5.29297Z" fill="#1F1F22"/>
<path d="M25.5 11C26.3284 11 27 11.6716 27 12.5C27 13.3284 26.3284 14 25.5 14C24.6716 14 24 13.3284 24 12.5C24 11.6716 24.6716 11 25.5 11Z" fill="#1F1F22"/>
<path d="M19.5 5C20.3284 5 21 5.67157 21 6.5C21 7.32843 20.3284 8 19.5 8C18.6716 8 18 7.32843 18 6.5C18 5.67157 18.6716 5 19.5 5Z" fill="#1F1F22"/>
</svg>
