<svg width="20" height="20" viewBox="0 0 20 20" fill="none" xmlns="http://www.w3.org/2000/svg">
<path d="M11 13C11.5523 13 12 13.4477 12 14C12 14.5523 11.5523 15 11 15H9C8.44771 15 8 14.5523 8 14C8 13.4477 8.44771 13 9 13H11Z" fill="#1F1F22"/>
<path fill-rule="evenodd" clip-rule="evenodd" d="M11.5 0C12.8807 0 14 1.11929 14 2.5V4H17C18.6569 4 20 5.34315 20 7V16C20 17.6569 18.6569 19 17 19H3C1.34315 19 8.05319e-09 17.6569 0 16V7C0 5.34315 1.34315 4 3 4H6V2.5C6 1.11929 7.11929 8.05319e-09 8.5 0H11.5ZM3 6C2.44772 6 2 6.44772 2 7V16C2 16.5523 2.44772 17 3 17H17C17.5523 17 18 16.5523 18 16V7C18 6.44772 17.5523 6 17 6H3ZM8.5 2C8.22386 2 8 2.22386 8 2.5V4H12V2.5C12 2.22386 11.7761 2 11.5 2H8.5Z" fill="#1F1F22"/>
</svg>
