<svg width="20" height="20" viewBox="0 0 20 20" fill="none" xmlns="http://www.w3.org/2000/svg">
<path fill-rule="evenodd" clip-rule="evenodd" d="M10.9282 4.41905C11.705 2.47891 13.556 1.96712 14.9331 2.05927C16.6727 2.17569 18.4475 4.04106 17.9028 7.48862C17.7685 8.33824 17.3488 9.33625 16.7019 10.4139C16.061 11.4817 15.2299 12.574 14.3327 13.6038C12.7897 15.3752 11.1102 16.8957 9.97941 17.7413C8.79889 16.9091 7.12005 15.3924 5.58987 13.6094C3.7897 11.5118 2.37544 9.25157 2.09689 7.48862C1.55216 4.04106 3.327 2.17569 5.06661 2.05927C6.44364 1.96712 8.29465 2.47891 9.07149 4.41905C9.22344 4.79853 9.59106 5.04733 9.99984 5.04733C10.4086 5.04733 10.7762 4.79853 10.9282 4.41905ZM9.99984 2.09922C11.4326 0.378022 13.5883 -0.0352011 15.0666 0.0637364C18.3754 0.285175 20.5382 3.62444 19.8783 7.80076C19.6878 9.00658 19.1289 10.2567 18.4167 11.4432C17.6985 12.6397 16.7901 13.8277 15.8408 14.9175C13.9536 17.084 11.8255 18.9517 10.5467 19.7868C10.2265 19.9959 9.81513 20.0041 9.48688 19.8079C8.07212 18.9623 5.93143 17.0784 4.07216 14.9119C2.23404 12.7701 0.49238 10.1487 0.121395 7.80076C-0.538477 3.62444 1.62427 0.285175 4.93306 0.0637364C6.41141 -0.0352011 8.56709 0.378022 9.99984 2.09922Z" fill="#1F1F22"/>
<path d="M11 7.00005C11 6.44776 10.5523 6.00005 9.99998 6.00005C9.44769 6.00005 8.99998 6.44776 8.99998 7.00005V9.00005H6.99998C6.44769 9.00005 5.99998 9.44776 5.99998 10C5.99998 10.5523 6.44769 11 6.99998 11H8.99998V13C8.99998 13.5523 9.44769 14 9.99998 14C10.5523 14 11 13.5523 11 13V11H13C13.5523 11 14 10.5523 14 10C14 9.44776 13.5523 9.00005 13 9.00005H11V7.00005Z" fill="#1F1F22"/>
</svg>
