<svg width="32" height="32" viewBox="0 0 32 32" fill="none" xmlns="http://www.w3.org/2000/svg">
<path d="M20.4997 16C21.3317 16 22.13 16.1567 22.864 16.4434C23.3781 16.6443 23.632 17.224 23.4313 17.7383C23.2305 18.2526 22.6508 18.5073 22.1364 18.3066C21.6306 18.1091 21.0788 18 20.4997 18C18.0145 18.0001 15.9997 20.0148 15.9997 22.5C15.9997 24.9852 18.0145 26.9999 20.4997 27C22.8709 27 24.8143 25.1653 24.987 22.8389C25.0278 22.2882 25.5077 21.8744 26.0583 21.915C26.609 21.9559 27.0229 22.4356 26.9821 22.9863C26.7328 26.3495 23.926 29 20.4997 29C16.9099 28.9999 13.9997 26.0898 13.9997 22.5C13.9997 18.9102 16.9099 16.0001 20.4997 16Z" fill="#1F1F22"/>
<path d="M24.8757 18.4688C25.3069 18.1242 25.936 18.194 26.281 18.625C26.626 19.0563 26.556 19.6862 26.1247 20.0312L21.1247 24.0312C20.7635 24.3201 20.2515 24.3229 19.8864 24.0391L17.8864 22.4834C17.4505 22.1443 17.3716 21.516 17.7106 21.0801C18.0498 20.6444 18.6781 20.5663 19.114 20.9053L20.4909 21.9766L24.8757 18.4688Z" fill="#1F1F22"/>
<path d="M7.02705 14.7314C7.7624 14.1192 8.65124 14.2446 9.26826 14.6748L9.38838 14.7656L9.39033 14.7666C10.3037 15.5105 11.7139 15.9999 12.9997 16C13.5519 16 13.9996 16.4478 13.9997 17C13.9996 17.5522 13.5519 18 12.9997 18C11.3138 17.9999 9.48337 17.3904 8.19209 16.3672C6.77701 17.6001 5.99983 19.2181 5.9997 20.9834C5.9997 21.1734 5.99948 21.3573 6.01142 21.542C6.02349 21.728 6.04549 21.8745 6.07685 21.9795C6.07909 21.9869 6.08256 21.9936 6.08467 22H10.9997C11.5519 22 11.9996 22.4478 11.9997 23C11.9996 23.5522 11.5519 24 10.9997 24H6.00166C5.51485 23.9998 5.0752 23.8367 4.73408 23.5186C4.41662 23.2224 4.25166 22.8557 4.16084 22.5518C3.98737 21.9708 3.9997 21.3064 3.9997 20.9834C3.99983 18.5226 5.12628 16.3204 7.02607 14.7324L7.02705 14.7314Z" fill="#1F1F22"/>
<path fill-rule="evenodd" clip-rule="evenodd" d="M12.9997 4C15.7611 4 17.9997 6.23858 17.9997 9C17.9997 11.7614 15.7611 14 12.9997 14C10.2384 13.9999 7.9997 11.7614 7.9997 9C7.9997 6.23864 10.2384 4.0001 12.9997 4ZM12.9997 6C11.3429 6.0001 9.9997 7.34321 9.9997 9C9.9997 10.6568 11.3429 11.9999 12.9997 12C14.6566 12 15.9997 10.6569 15.9997 9C15.9997 7.34315 14.6566 6 12.9997 6Z" fill="#1F1F22"/>
</svg>
