<svg width="20" height="20" viewBox="0 0 20 20" fill="none" xmlns="http://www.w3.org/2000/svg">
<path d="M10 0C11.1527 0 12.2619 0.195299 13.2949 0.555664C13.8163 0.737531 14.0918 1.30774 13.9102 1.8291C13.7282 2.35057 13.1572 2.62625 12.6357 2.44434C11.8117 2.1569 10.9253 2 10 2C5.58172 2 2 5.58172 2 10C2 14.4183 5.58172 18 10 18C14.4183 18 18 14.4183 18 10C18 9.07475 17.8431 8.1883 17.5557 7.36426C17.3738 6.84279 17.6494 6.27176 18.1709 6.08984C18.6923 5.90821 19.2625 6.18374 19.4443 6.70508C19.8047 7.73809 20 8.84731 20 10C20 15.5228 15.5228 20 10 20C4.47715 20 0 15.5228 0 10C0 4.47715 4.47715 0 10 0Z" fill="#1F1F22"/>
<path d="M10 4C10.5523 4 11 4.44772 11 5C11 5.55228 10.5523 6 10 6C7.79086 6 6 7.79086 6 10C6 12.2091 7.79086 14 10 14C12.2091 14 14 12.2091 14 10C14 9.44772 14.4477 9 15 9C15.5523 9 16 9.44772 16 10C16 13.3137 13.3137 16 10 16C6.68629 16 4 13.3137 4 10C4 6.68629 6.68629 4 10 4Z" fill="#1F1F22"/>
<path d="M18.293 0.292969C18.6835 -0.0975299 19.3165 -0.0974799 19.707 0.292969C20.0976 0.683493 20.0976 1.31651 19.707 1.70703L11.9326 9.48242C11.9767 9.64749 12 9.82103 12 10C12 11.1046 11.1046 12 10 12C8.89543 12 8 11.1046 8 10C8 8.89543 8.89543 8 10 8C10.1792 8 10.3533 8.02318 10.5186 8.06738L18.293 0.292969Z" fill="#1F1F22"/>
</svg>
