<svg width="20" height="20" viewBox="0 0 20 20" fill="none" xmlns="http://www.w3.org/2000/svg">
<path fill-rule="evenodd" clip-rule="evenodd" d="M8 0C8.55228 8.96651e-07 9 0.447716 9 1C9 1.55228 8.55228 2 8 2H4C3.44772 2 3 2.44772 3 3V11H7C8.65685 11 10 12.3431 10 14V18H14C14.5523 18 15 17.5523 15 17V11C15 10.4477 15.4477 10 16 10C16.5523 10 17 10.4477 17 11V17C17 18.6569 15.6569 20 14 20H9.82812C9.03258 19.9999 8.26957 19.6836 7.70703 19.1211L1.87891 13.293C1.31637 12.7304 1.00008 11.9674 1 11.1719V3C1 1.34315 2.34315 2.41485e-07 4 0H8ZM8 16.5859V14C8 13.4477 7.55228 13 7 13H4.41406L8 16.5859Z" fill="#1F1F22"/>
<path d="M17.5 5C18.3284 5 19 5.67157 19 6.5C19 7.32843 18.3284 8 17.5 8C16.6716 8 16 7.32843 16 6.5C16 5.67157 16.6716 5 17.5 5Z" fill="#1F1F22"/>
<path d="M16.793 0.792969C17.1835 0.402505 17.8165 0.402465 18.207 0.792969C18.5975 1.18347 18.5975 1.81651 18.207 2.20703L13.207 7.20703C12.8165 7.59755 12.1835 7.59754 11.793 7.20703C11.4024 6.81651 11.4024 6.18349 11.793 5.79297L16.793 0.792969Z" fill="#1F1F22"/>
<path d="M12.5 0C13.3284 0 14 0.671573 14 1.5C14 2.32843 13.3284 3 12.5 3C11.6716 3 11 2.32843 11 1.5C11 0.671573 11.6716 0 12.5 0Z" fill="#1F1F22"/>
</svg>
