<svg width="32" height="32" viewBox="0 0 32 32" fill="none" xmlns="http://www.w3.org/2000/svg">
<path d="M13.5 6C14.0523 6 14.5 6.44772 14.5 7C14.5 7.55228 14.0523 8 13.5 8H8C7.44772 8 7 8.44772 7 9V20L7.00488 20.1025C7.05621 20.6067 7.48232 21 8 21H24C24.5523 21 25 20.5523 25 20V19.5C25 18.9477 25.4477 18.5 26 18.5C26.5523 18.5 27 18.9477 27 19.5V20C27 21.6569 25.6569 23 24 23H17V26H21C21.5523 26 22 26.4477 22 27C22 27.5523 21.5523 28 21 28H11C10.4477 28 10 27.5523 10 27C10 26.4477 10.4477 26 11 26H15V23H8C6.3949 23 5.08421 21.7394 5.00391 20.1543L5 20V9C5 7.34315 6.34315 6 8 6H13.5Z" fill="#1F1F22"/>
<path d="M11 10C11.5523 10 12 10.4477 12 11V18C12 18.5523 11.5523 19 11 19C10.4477 19 10 18.5523 10 18V11C10 10.4477 10.4477 10 11 10Z" fill="#1F1F22"/>
<path d="M16 13C16.5523 13 17 13.4477 17 14V18C17 18.5523 16.5523 19 16 19C15.4477 19 15 18.5523 15 18V14C15 13.4477 15.4477 13 16 13Z" fill="#1F1F22"/>
<path d="M21 16C21.5523 16 22 16.4477 22 17V18C22 18.5523 21.5523 19 21 19C20.4477 19 20 18.5523 20 18V17C20 16.4477 20.4477 16 21 16Z" fill="#1F1F22"/>
<path fill-rule="evenodd" clip-rule="evenodd" d="M22.5 4C25.5335 4 28 6.46639 28 9.5C28 10.6561 27.6406 11.729 27.0293 12.6152L29.207 14.793C29.5975 15.1835 29.5975 15.8165 29.207 16.207C28.8165 16.5976 28.1835 16.5975 27.793 16.207L25.6152 14.0293C24.729 14.6406 23.6561 15 22.5 15C19.4665 15 17 12.5337 17 9.5C17 6.46639 19.4665 4 22.5 4ZM22.5 6C20.571 6 19 7.57102 19 9.5C19 11.4291 20.5711 13 22.5 13C24.4289 13 26 11.4291 26 9.5C26 7.57102 24.429 6 22.5 6Z" fill="#1F1F22"/>
</svg>
