<svg width="20" height="20" viewBox="0 0 20 20" fill="none" xmlns="http://www.w3.org/2000/svg">
<path fill-rule="evenodd" clip-rule="evenodd" d="M14.4997 10C15.8804 10 16.9997 11.1193 16.9997 12.5V13.0498C18.1409 13.2814 18.9997 14.2904 18.9997 15.5V17.5C18.9997 18.8807 17.8804 20 16.4997 20H11.4997C10.119 19.9999 8.99968 18.8807 8.99968 17.5V15.5C8.99968 14.2906 9.85862 13.2815 10.9997 13.0498V12.5C10.9997 11.1193 12.119 10.0001 13.4997 10H14.4997ZM11.4997 15C11.2236 15.0001 10.9997 15.2239 10.9997 15.5V17.5C10.9997 17.7761 11.2236 17.9999 11.4997 18H16.4997C16.7758 18 16.9997 17.7761 16.9997 17.5V15.5C16.9997 15.2239 16.7758 15 16.4997 15H11.4997ZM13.4997 12C13.2236 12.0001 12.9997 12.2239 12.9997 12.5V13H14.9997V12.5C14.9997 12.2239 14.7758 12 14.4997 12H13.4997Z" fill="#1F1F22"/>
<path d="M3.8405 9.56348C4.54113 8.98065 5.38678 9.10388 5.96745 9.50879L6.07976 9.59277L6.08171 9.59473C6.52683 9.95727 7.12338 10.2609 7.77995 10.4521C8.30977 10.6067 8.61455 11.1615 8.46062 11.6914C8.30618 12.2216 7.75063 12.5265 7.22038 12.3721C6.40313 12.134 5.61081 11.7518 4.95183 11.2471C3.75895 12.3159 3.10921 13.7012 3.10906 15.207C3.10906 15.3768 3.1085 15.5365 3.11882 15.6963C3.12698 15.8221 3.14356 15.9227 3.16081 16H5.99968C6.55177 16.0001 6.99947 16.4479 6.99968 17C6.99945 17.552 6.55176 17.9999 5.99968 18H2.99968C2.54111 17.9999 2.12297 17.8453 1.79753 17.542C1.49557 17.2603 1.34144 16.913 1.25749 16.6318C1.09787 16.0968 1.10906 15.4894 1.10906 15.207C1.10922 12.9837 2.12706 10.996 3.83855 9.56543L3.8405 9.56348Z" fill="#1F1F22"/>
<path fill-rule="evenodd" clip-rule="evenodd" d="M9.11101 0C11.5963 0 13.611 2.01472 13.611 4.5C13.611 6.98528 11.5963 9 9.11101 9C6.6258 8.99991 4.61101 6.98522 4.61101 4.5C4.61101 2.01478 6.6258 9.17398e-05 9.11101 0ZM9.11101 2C7.73037 2.00009 6.61101 3.11934 6.61101 4.5C6.61101 5.88066 7.73037 6.99991 9.11101 7C10.4917 7 11.611 5.88071 11.611 4.5C11.611 3.11929 10.4917 2 9.11101 2Z" fill="#1F1F22"/>
</svg>
