<svg width="20" height="20" viewBox="0 0 20 20" fill="none" xmlns="http://www.w3.org/2000/svg">
<path d="M11.8428 10.9854C12.1269 10.512 12.7414 10.3586 13.2148 10.6426C13.6882 10.9268 13.8417 11.5412 13.5576 12.0146L12.9668 13H16.0332L15.4424 12.0146C15.1584 11.5412 15.3119 10.9268 15.7852 10.6426C16.2587 10.3585 16.873 10.512 17.1572 10.9854L18.3574 12.9854C18.3603 12.9901 18.3625 12.9953 18.3652 13H19C19.3318 13 19.6421 13.1647 19.8281 13.4395C20.014 13.7141 20.0518 14.0631 19.9287 14.3711L17.9287 19.3711C17.7768 19.7507 17.4089 20 17 20H12C11.5912 19.9999 11.2231 19.7507 11.0713 19.3711L9.07129 14.3711C8.94828 14.0632 8.98604 13.7141 9.17188 13.4395C9.35786 13.1647 9.66827 13.0001 10 13H10.6348C10.6375 12.9952 10.6397 12.9901 10.6426 12.9854L11.8428 10.9854ZM4.84082 9.56348C5.54145 8.98065 6.3871 9.10388 6.96777 9.50879L7.08008 9.59277L7.08203 9.59473C7.52715 9.95727 8.1237 10.2609 8.78027 10.4521C9.31008 10.6067 9.61487 11.1615 9.46094 11.6914C9.3065 12.2216 8.75095 12.5265 8.2207 12.3721C7.40345 12.134 6.61113 11.7518 5.95215 11.2471C4.75926 12.3159 4.10953 13.7012 4.10938 15.207C4.10938 15.3768 4.10882 15.5365 4.11914 15.6963C4.1273 15.8221 4.14388 15.9227 4.16113 16H7C7.55209 16.0001 7.99979 16.4479 8 17C7.99977 17.552 7.55207 17.9999 7 18H4C3.54143 17.9999 3.12329 17.8453 2.79785 17.542C2.49589 17.2603 2.34176 16.913 2.25781 16.6318C2.09819 16.0968 2.10938 15.4894 2.10938 15.207C2.10954 12.9837 3.12738 10.996 4.83887 9.56543L4.84082 9.56348ZM12.6768 18H16.3232L17.5225 15H11.4775L12.6768 18ZM10.1113 0C12.5966 0 14.6113 2.01472 14.6113 4.5C14.6113 6.98528 12.5966 9 10.1113 9C7.62612 8.99991 5.61133 6.98522 5.61133 4.5C5.61133 2.01478 7.62612 9.17398e-05 10.1113 0ZM10.1113 2C8.73069 2.00009 7.61133 3.11934 7.61133 4.5C7.61133 5.88066 8.73069 6.99991 10.1113 7C11.492 7 12.6113 5.88071 12.6113 4.5C12.6113 3.11929 11.492 2 10.1113 2Z" fill="#1F1F22"/>
</svg>
