<svg width="20" height="20" viewBox="0 0 20 20" fill="none" xmlns="http://www.w3.org/2000/svg">
<path d="M18.5 16C19.3284 16 20 16.6716 20 17.5C20 18.3284 19.3284 19 18.5 19C17.6716 19 17 18.3284 17 17.5C17 16.6716 17.6716 16 18.5 16Z" fill="#1F1F22"/>
<path d="M17.793 11.793C18.1835 11.4025 18.8165 11.4025 19.207 11.793C19.5975 12.1835 19.5975 12.8165 19.207 13.207L14.207 18.207C13.8165 18.5976 13.1835 18.5975 12.793 18.207C12.4024 17.8165 12.4024 17.1835 12.793 16.793L17.793 11.793Z" fill="#1F1F22"/>
<path d="M17 1C18.6569 1 20 2.34315 20 4V8.5C20 9.05229 19.5523 9.5 19 9.5C18.4477 9.5 18 9.05229 18 8.5V4C18 3.44772 17.5523 3 17 3H3C2.44772 3 2 3.44772 2 4V13C2 13.5523 2.44772 14 3 14H9C9.55229 14 10 14.4477 10 15C10 15.5523 9.55229 16 9 16H3C1.34315 16 4.0266e-08 14.6569 0 13V4C0 2.34315 1.34315 1 3 1H17Z" fill="#1F1F22"/>
<path d="M13.5 11C14.3284 11 15 11.6716 15 12.5C15 13.3284 14.3284 14 13.5 14C12.6716 14 12 13.3284 12 12.5C12 11.6716 12.6716 11 13.5 11Z" fill="#1F1F22"/>
<path d="M15 5C15.5523 5 16 5.44772 16 6C16 6.55228 15.5523 7 15 7H5C4.44772 7 4 6.55228 4 6C4 5.44772 4.44772 5 5 5H15Z" fill="#1F1F22"/>
</svg>
