<svg width="32" height="32" viewBox="0 0 32 32" fill="none" xmlns="http://www.w3.org/2000/svg">
<path fill-rule="evenodd" clip-rule="evenodd" d="M25 14C27.7614 14 30 16.2386 30 19C30 20.6355 29.2141 22.0868 28 22.999V28C28 28.3466 27.8202 28.6684 27.5254 28.8506C27.2306 29.0327 26.8626 29.0495 26.5527 28.8945L25 28.1182L23.4473 28.8945C23.1374 29.0495 22.7694 29.0327 22.4746 28.8506C22.1798 28.6684 22 28.3466 22 28V22.999C20.7859 22.0868 20 20.6355 20 19C20 16.2386 22.2386 14 25 14ZM26 23.8994C25.6769 23.965 25.3425 24 25 24C24.6575 24 24.3231 23.965 24 23.8994V26.3818L24.5527 26.1055C24.8343 25.9647 25.1657 25.9647 25.4473 26.1055L26 26.3818V23.8994ZM25 16C23.3431 16 22 17.3431 22 19C22 20.6569 23.3431 22 25 22C26.6569 22 28 20.6569 28 19C28 17.3431 26.6569 16 25 16Z" fill="#1F1F22"/>
<path d="M21 4C21.5523 4 22 4.44772 22 5V6H24C26.2091 6 28 7.79086 28 10V11C28 11.5523 27.5523 12 27 12C26.4477 12 26 11.5523 26 11V10C26 8.89543 25.1046 8 24 8H22V9C22 9.55228 21.5523 10 21 10C20.4477 10 20 9.55228 20 9V8H12V9C12 9.55228 11.5523 10 11 10C10.4477 10 10 9.55228 10 9V8H8C6.89543 8 6 8.89543 6 10V11H19C19.5523 11 20 11.4477 20 12C20 12.5523 19.5523 13 19 13H6V23C6 24.1046 6.89543 25 8 25H17C17.5523 25 18 25.4477 18 26C18 26.5523 17.5523 27 17 27H8C5.79086 27 4 25.2091 4 23V10C4 7.79086 5.79086 6 8 6H10V5C10 4.44772 10.4477 4 11 4C11.5523 4 12 4.44772 12 5V6H20V5C20 4.44772 20.4477 4 21 4Z" fill="#1F1F22"/>
<path d="M11 20C11.8284 20 12.5 20.6716 12.5 21.5C12.5 22.3284 11.8284 23 11 23C10.1716 23 9.5 22.3284 9.5 21.5C9.5 20.6716 10.1716 20 11 20Z" fill="#1F1F22"/>
<path d="M16 20C16.8284 20 17.5 20.6716 17.5 21.5C17.5 22.3284 16.8284 23 16 23C15.1716 23 14.5 22.3284 14.5 21.5C14.5 20.6716 15.1716 20 16 20Z" fill="#1F1F22"/>
<path d="M11 15.5C11.8284 15.5 12.5 16.1716 12.5 17C12.5 17.8284 11.8284 18.5 11 18.5C10.1716 18.5 9.5 17.8284 9.5 17C9.5 16.1716 10.1716 15.5 11 15.5Z" fill="#1F1F22"/>
<path d="M16 15.5C16.8284 15.5 17.5 16.1716 17.5 17C17.5 17.8284 16.8284 18.5 16 18.5C15.1716 18.5 14.5 17.8284 14.5 17C14.5 16.1716 15.1716 15.5 16 15.5Z" fill="#1F1F22"/>
</svg>
