<svg width="20" height="20" viewBox="0 0 20 20" fill="none" xmlns="http://www.w3.org/2000/svg">
<path fill-rule="evenodd" clip-rule="evenodd" d="M10 0C10.5666 0 11.1229 0.0477334 11.665 0.138672C12.2097 0.230051 12.5777 0.745366 12.4863 1.29004C12.3949 1.83453 11.8795 2.2015 11.335 2.11035C10.9016 2.03765 10.4554 2 10 2C9.77315 2 9.48195 2.09945 9.13281 2.43164C8.77842 2.76891 8.41294 3.30403 8.08496 4.04199C7.5235 5.30527 7.12797 7.03344 7.02637 9H9C9.55229 9 10 9.44771 10 10C10 10.5523 9.55229 11 9 11H7.02637C7.12797 12.9666 7.5235 14.6947 8.08496 15.958C8.41294 16.696 8.77842 17.2311 9.13281 17.5684C9.48195 17.9005 9.77315 18 10 18C10.3531 18 10.8949 17.7362 11.4824 16.7852C11.6928 16.4446 11.8895 16.0421 12.0684 15.5859C12.1935 15.2667 12.309 14.9217 12.4131 14.5537C12.5467 14.0813 12.66 13.5696 12.752 13.0244C12.8129 12.6628 12.8671 12.2876 12.9062 11.8994C12.9618 11.3501 13.4517 10.9496 14.001 11.0049C14.5505 11.0603 14.9509 11.5511 14.8955 12.1006C14.8604 12.4482 14.8157 12.79 14.7637 13.125C14.7624 13.135 14.7623 13.1452 14.7607 13.1553C14.758 13.1726 14.7537 13.1897 14.751 13.207C14.7222 13.3869 14.6908 13.5647 14.6572 13.7402C14.6475 13.7912 14.6381 13.842 14.6279 13.8926C14.5934 14.0648 14.5566 14.2348 14.5176 14.4023C14.5037 14.4619 14.4891 14.5211 14.4746 14.5801C14.4331 14.7494 14.3899 14.9162 14.3438 15.0801C14.3352 15.1106 14.3252 15.1406 14.3164 15.1709C14.2688 15.336 14.2192 15.4983 14.167 15.6572C13.9888 16.1995 13.7846 16.7058 13.5547 17.167C13.6759 17.1067 13.7954 17.0437 13.9131 16.9775C13.9341 16.9657 13.9547 16.9534 13.9756 16.9414C14.1416 16.8461 14.3046 16.7462 14.4629 16.6396C14.8498 16.3791 15.212 16.0851 15.5469 15.7627C15.7748 15.5433 15.9907 15.3114 16.1914 15.0664C16.1959 15.0609 16.2006 15.0554 16.2051 15.0498C16.4066 14.8025 16.5924 14.5421 16.7637 14.2715C17.0685 13.7898 17.323 13.2736 17.5205 12.7295C17.6326 12.4206 17.728 12.1036 17.8018 11.7783C17.9241 11.24 18.4597 10.9024 18.998 11.0244C19.5366 11.1466 19.8742 11.6831 19.752 12.2217C19.6689 12.5874 19.5633 12.9446 19.4414 13.2939C19.4374 13.3068 19.4352 13.3202 19.4307 13.333C19.4257 13.3471 19.4201 13.3609 19.415 13.375C19.3883 13.4495 19.3595 13.523 19.3311 13.5967C19.3125 13.6447 19.2937 13.6926 19.2744 13.7402C19.2457 13.8114 19.2158 13.8819 19.1855 13.9521C19.1599 14.0116 19.1342 14.071 19.1074 14.1299C19.0798 14.1908 19.0513 14.2513 19.0225 14.3115C18.9967 14.3654 18.9711 14.4193 18.9443 14.4727C18.915 14.5313 18.885 14.5895 18.8545 14.6475C18.8151 14.7223 18.7746 14.7964 18.7334 14.8701C18.7071 14.9171 18.6813 14.9642 18.6543 15.0107C18.6201 15.0696 18.5842 15.1274 18.5488 15.1855C18.5124 15.2454 18.4761 15.3052 18.4385 15.3643C18.4084 15.4115 18.3775 15.4582 18.3467 15.5049C18.3078 15.5637 18.2695 15.6228 18.2295 15.6807C18.1813 15.7503 18.1309 15.8184 18.0811 15.8867C17.9478 16.0694 17.8092 16.2479 17.6641 16.4209C17.6092 16.4864 17.5536 16.5512 17.4971 16.6152C17.4649 16.6517 17.4321 16.6876 17.3994 16.7236C17.3425 16.7862 17.285 16.8481 17.2266 16.9092C17.1863 16.9513 17.1455 16.9928 17.1045 17.0342C17.0519 17.0874 16.9991 17.1404 16.9453 17.1924C16.9052 17.2311 16.864 17.2686 16.8232 17.3066C16.7662 17.36 16.7087 17.4128 16.6504 17.4648C16.6058 17.5046 16.5609 17.544 16.5156 17.583C16.4655 17.6261 16.4152 17.6688 16.3643 17.7109C16.3127 17.7535 16.2614 17.7963 16.209 17.8379C16.1574 17.8788 16.1052 17.919 16.0527 17.959C15.9974 18.0012 15.941 18.042 15.8848 18.083C15.8386 18.1167 15.7919 18.1497 15.7451 18.1826C15.6814 18.2274 15.6175 18.2721 15.5527 18.3154C15.5088 18.3449 15.4644 18.3736 15.4199 18.4023C15.3552 18.4442 15.2904 18.486 15.2246 18.5264C15.1633 18.564 15.1012 18.6004 15.0391 18.6367C14.9906 18.6651 14.9425 18.6941 14.8936 18.7217C14.8002 18.7742 14.7055 18.8245 14.6104 18.874C14.3986 18.9843 14.1822 19.0864 13.9619 19.1816C13.9163 19.2014 13.8712 19.2222 13.8252 19.2412C13.759 19.2687 13.6919 19.2943 13.625 19.3203C13.5637 19.3442 13.5023 19.3679 13.4404 19.3906C13.3721 19.4156 13.3033 19.4393 13.2344 19.4629C13.1795 19.4817 13.1247 19.5007 13.0693 19.5186C13.0013 19.5405 12.9329 19.5615 12.8643 19.582C12.7968 19.6022 12.7292 19.6219 12.6611 19.6406C12.6038 19.6564 12.546 19.6708 12.4883 19.6855C12.4069 19.7064 12.3253 19.7263 12.2432 19.7451C12.1944 19.7563 12.1457 19.7679 12.0967 19.7783C12.0131 19.7962 11.9291 19.8124 11.8447 19.8281C11.7902 19.8383 11.7355 19.8481 11.6807 19.8574C11.599 19.8713 11.5169 19.8837 11.4346 19.8955C11.3758 19.904 11.3169 19.9125 11.2578 19.9199C11.189 19.9286 11.12 19.9361 11.0508 19.9434C10.98 19.9508 10.9091 19.958 10.8379 19.9639C10.7374 19.9722 10.6365 19.9781 10.5352 19.9834C10.5016 19.9852 10.4682 19.9888 10.4346 19.9902C10.2905 19.9964 10.1456 20 10 20C4.47715 20 0 15.5228 0 10C0 4.47715 4.47715 0 10 0ZM2.06445 11C2.40259 13.7108 4.09518 15.9991 6.44531 17.167C6.38069 17.0374 6.31775 16.9054 6.25781 16.7705C5.56803 15.2185 5.1266 13.2041 5.02344 11H2.06445ZM6.25879 2.92871C4.00582 4.12317 2.39358 6.3615 2.06445 9H5.02344C5.1266 6.79589 5.56803 4.78151 6.25781 3.22949C6.31769 3.09477 6.37979 2.96245 6.44434 2.83301C6.38195 2.86402 6.32024 2.89613 6.25879 2.92871Z" fill="#1F1F22"/>
<path d="M14.793 1.29297C15.1835 0.90248 15.8165 0.902471 16.207 1.29297L19.707 4.79297C19.7314 4.81736 19.754 4.84297 19.7754 4.86914C20.0744 5.23571 20.0744 5.76428 19.7754 6.13086C19.754 6.15704 19.7314 6.18262 19.707 6.20703L16.207 9.70703C15.8165 10.0976 15.1835 10.0976 14.793 9.70703C14.4025 9.3165 14.4025 8.68348 14.793 8.29297L16.5859 6.5H11.5C10.9477 6.5 10.5 6.05228 10.5 5.5C10.5 4.94772 10.9477 4.5 11.5 4.5H16.5859L14.793 2.70703C14.4025 2.31651 14.4024 1.68349 14.793 1.29297Z" fill="#1F1F22"/>
</svg>
