<svg width="20" height="20" viewBox="0 0 20 20" fill="none" xmlns="http://www.w3.org/2000/svg">
<path d="M11 13C11.5523 13 12 13.4477 12 14C12 14.5523 11.5523 15 11 15H9C8.44772 15 8 14.5523 8 14C8 13.4477 8.44772 13 9 13H11Z" fill="#1F1F22"/>
<path fill-rule="evenodd" clip-rule="evenodd" d="M12 1C13.1046 1 14 1.89543 14 3V5H17C18.6569 5 20 6.34315 20 8V16C20 17.6569 18.6569 19 17 19H3C1.34315 19 0 17.6569 0 16V8C0 6.34315 1.34315 5 3 5H6V3C6 1.89543 6.89543 1 8 1H12ZM3 7C2.44772 7 2 7.44772 2 8V16C2 16.5523 2.44772 17 3 17H17C17.5523 17 18 16.5523 18 16V8C18 7.44772 17.5523 7 17 7H3ZM8 5H12V3H8V5Z" fill="#1F1F22"/>
</svg>
