<svg width="20" height="20" viewBox="0 0 20 20" fill="none" xmlns="http://www.w3.org/2000/svg">
<path d="M17.5003 16.0002C18.3287 16.0002 19.0003 16.6717 19.0003 17.5002C19.0002 18.3285 18.3287 19.0002 17.5003 19.0002C16.6721 18.9999 16.0004 18.3284 16.0003 17.5002C16.0003 16.6719 16.6721 16.0004 17.5003 16.0002Z" fill="#1F1F22"/>
<path d="M16.7933 11.7931C17.1838 11.4026 17.8168 11.4027 18.2073 11.7931C18.5979 12.1836 18.5979 12.8167 18.2073 13.2072L13.2073 18.2072C12.8168 18.5974 12.1837 18.5976 11.7933 18.2072C11.403 17.8167 11.4031 17.1836 11.7933 16.7931L16.7933 11.7931Z" fill="#1F1F22"/>
<path d="M8.00031 12.5002C8.5526 12.5002 9.00031 12.9479 9.00031 13.5002C9.00022 14.0524 8.55254 14.5002 8.00031 14.5002H1.00031C0.44826 14.4999 0.000405667 14.0522 0.000313476 13.5002C0.000313476 12.948 0.448203 12.5004 1.00031 12.5002H8.00031Z" fill="#1F1F22"/>
<path d="M12.5003 11.0002C13.3287 11.0002 14.0003 11.6717 14.0003 12.5002C14.0002 13.3285 13.3287 14.0002 12.5003 14.0002C11.6721 13.9999 11.0004 13.3284 11.0003 12.5002C11.0003 11.6719 11.6721 11.0004 12.5003 11.0002Z" fill="#1F1F22"/>
<path d="M3.00031 5.50015C3.5526 5.50015 4.00031 5.94787 4.00031 6.50015V10.5002C4.00022 11.0524 3.55254 11.5002 3.00031 11.5002C2.44826 11.4999 2.00041 11.0522 2.00031 10.5002V6.50015C2.00031 5.94799 2.4482 5.50036 3.00031 5.50015Z" fill="#1F1F22"/>
<path d="M7.00031 5.50015C7.5526 5.50015 8.00031 5.94787 8.00031 6.50015V10.5002C8.00022 11.0524 7.55254 11.5002 7.00031 11.5002C6.44826 11.4999 6.00041 11.0522 6.00031 10.5002V6.50015C6.00031 5.94799 6.4482 5.50036 7.00031 5.50015Z" fill="#1F1F22"/>
<path d="M11.0003 5.50015C11.5526 5.50015 12.0003 5.94787 12.0003 6.50015V8.00015C12.0002 8.55236 11.5525 9.00015 11.0003 9.00015C10.4483 8.99995 10.0004 8.55223 10.0003 8.00015V6.50015C10.0003 5.94799 10.4482 5.50036 11.0003 5.50015Z" fill="#1F1F22"/>
<path d="M6.68977 0.0499563C6.92513 -0.0269772 7.18231 -0.0144808 7.41047 0.0880422L13.4105 2.78921C13.9141 3.0159 14.1391 3.60786 13.9124 4.11148C13.6856 4.6148 13.0936 4.83899 12.5902 4.61246L7.00031 2.09683L1.41047 4.61246C0.906993 4.83873 0.314833 4.61487 0.0882041 4.11148C-0.138423 3.608 0.0868292 3.01604 0.590157 2.78921L6.59016 0.0880422L6.68977 0.0499563Z" fill="#1F1F22"/>
</svg>
