<svg width="32" height="32" viewBox="0 0 32 32" fill="none" xmlns="http://www.w3.org/2000/svg">
<path d="M24.5 22C25.3284 22 26 22.6716 26 23.5C26 24.3284 25.3284 25 24.5 25C23.6716 25 23 24.3284 23 23.5C23 22.6716 23.6716 22 24.5 22Z" fill="#1F1F22"/>
<path fill-rule="evenodd" clip-rule="evenodd" d="M24.5 15C26.3955 15 27.9999 16.487 28 18.4033V19.1738C29.1647 19.5859 30 20.6941 30 22V25C30 26.6569 28.6569 28 27 28H22C20.3949 28 19.0842 26.7394 19.0039 25.1543L19 25V22C19 20.6941 19.8353 19.5859 21 19.1738V18.4033C21.0001 16.487 22.6045 15 24.5 15ZM22 21C21.4477 21 21 21.4477 21 22V25L21.0049 25.1025C21.0562 25.6067 21.4823 26 22 26H27C27.5523 26 28 25.5523 28 25V22C28 21.4477 27.5523 21 27 21H22ZM24.5 17C23.6342 17 23.0001 17.665 23 18.4033V19H26V18.4033C25.9999 17.665 25.3658 17 24.5 17Z" fill="#1F1F22"/>
<path d="M25 6C26.6569 6 28 7.34315 28 9V12C28 12.5523 27.5523 13 27 13C26.4477 13 26 12.5523 26 12V9C26 8.44771 25.5523 8 25 8H7C6.44772 8 6 8.44772 6 9V21C6 21.5523 6.44772 22 7 22H15C15.5523 22 16 22.4477 16 23C16 23.5523 15.5523 24 15 24H7C5.34315 24 4 22.6569 4 21V9C4 7.34315 5.34315 6 7 6H25Z" fill="#1F1F22"/>
<path d="M22 11C22.5523 11 23 11.4477 23 12C23 12.5523 22.5523 13 22 13H10C9.44772 13 9 12.5523 9 12C9 11.4477 9.44772 11 10 11H22Z" fill="#1F1F22"/>
</svg>
