<svg width="20" height="20" viewBox="0 0 20 20" fill="none" xmlns="http://www.w3.org/2000/svg">
<path d="M7.70696 4.70711C8.09748 4.31658 8.09748 3.68342 7.70696 3.29289C7.31643 2.90237 6.68327 2.90237 6.29274 3.29289L0.999849 8.58579C0.2188 9.36684 0.2188 10.6332 0.999849 11.4142L6.29274 16.7071C6.68327 17.0976 7.31643 17.0976 7.70696 16.7071C8.09748 16.3166 8.09748 15.6834 7.70696 15.2929L2.41406 10L7.70696 4.70711Z" fill="#1F1F22"/>
<path fill-rule="evenodd" clip-rule="evenodd" d="M10.4999 7C10.4999 6.44771 10.0522 6 9.49988 6C8.94759 6 8.49988 6.44771 8.49988 7V13C8.49988 13.5523 8.94759 14 9.49988 14C10.0522 14 10.4999 13.5523 10.4999 13V11H12.1259C12.5699 12.7252 14.136 14 15.9999 14C18.209 14 19.9999 12.2091 19.9999 10C19.9999 7.79086 18.209 6 15.9999 6C14.136 6 12.5699 7.27477 12.1259 9H10.4999V7ZM15.9999 8C14.8953 8 13.9999 8.89543 13.9999 10C13.9999 11.1046 14.8953 12 15.9999 12C17.1044 12 17.9999 11.1046 17.9999 10C17.9999 8.89543 17.1044 8 15.9999 8Z" fill="#1F1F22"/>
</svg>
