<svg width="32" height="32" viewBox="0 0 32 32" fill="none" xmlns="http://www.w3.org/2000/svg">
<path fill-rule="evenodd" clip-rule="evenodd" d="M4 8C4 5.79086 5.79086 4 8 4H24C26.2091 4 28 5.79086 28 8V24C28 26.2091 26.2091 28 24 28H8C5.79086 28 4 26.2091 4 24V8ZM8 6C6.89543 6 6 6.89543 6 8V24C6 25.1046 6.89543 26 8 26H24C25.1046 26 26 25.1046 26 24V8C26 6.89543 25.1046 6 24 6H8Z" fill="#1F1F22"/>
<path d="M25 8.50073C25 9.32916 24.3285 10.0007 23.5 10.0007C22.6716 10.0007 22 9.32916 22 8.50073C22 7.67231 22.6716 7.00073 23.5 7.00073C24.3285 7.00073 25 7.67231 25 8.50073Z" fill="#1F1F22"/>
<path fill-rule="evenodd" clip-rule="evenodd" d="M16 10.0006C14.8672 10.0006 13.8106 10.3135 12.9085 10.8571C12.4355 11.1421 11.8209 10.9897 11.5359 10.5167C11.2508 10.0436 11.4032 9.42908 11.8763 9.14404C13.0812 8.41799 14.4934 8.00057 16 8.00057C20.4183 8.00057 24 11.5823 24 16.0006C24 17.2257 23.7239 18.3892 23.2296 19.4297C22.9926 19.9285 22.3961 20.1408 21.8973 19.9038C21.3984 19.6669 21.1861 19.0703 21.4231 18.5715C21.7927 17.7935 22 16.9226 22 16.0006C22 12.6869 19.3137 10.0006 16 10.0006ZM10.1027 12.0973C10.6016 12.3343 10.8139 12.9308 10.5769 13.4297C10.2073 14.2077 9.99998 15.0785 9.99998 16.0006C9.99998 19.3143 12.6863 22.0006 16 22.0006C17.1327 22.0006 18.1893 21.6876 19.0915 21.144C19.5645 20.859 20.1791 21.0114 20.4641 21.4845C20.7491 21.9575 20.5967 22.5721 20.1237 22.8571C18.9187 23.5832 17.5066 24.0006 16 24.0006C11.5817 24.0006 7.99998 20.4188 7.99998 16.0006C7.99998 14.7754 8.27607 13.612 8.77035 12.5715C9.00733 12.0726 9.60385 11.8603 10.1027 12.0973Z" fill="#1F1F22"/>
<path fill-rule="evenodd" clip-rule="evenodd" d="M16 18C17.1046 18 18 17.1046 18 16C18 14.8954 17.1046 14 16 14C14.8954 14 14 14.8954 14 16C14 17.1046 14.8954 18 16 18ZM16 20C18.2091 20 20 18.2091 20 16C20 13.7909 18.2091 12 16 12C13.7909 12 12 13.7909 12 16C12 18.2091 13.7909 20 16 20Z" fill="#1F1F22"/>
</svg>
