<svg width="32" height="32" viewBox="0 0 32 32" fill="none" xmlns="http://www.w3.org/2000/svg">
<path d="M26 20C26.5523 20 27 20.4477 27 21V24C27 25.6569 25.6569 27 24 27H12C10.3949 27 9.08421 25.7394 9.00391 24.1543L9 24V21C9 20.4477 9.44772 20 10 20C10.5523 20 11 20.4477 11 21V24L11.0049 24.1025C11.0562 24.6067 11.4823 25 12 25H24C24.5523 25 25 24.5523 25 24V21C25 20.4477 25.4477 20 26 20Z" fill="#1F1F22"/>
<path d="M21 20C21.5523 20 22 20.4477 22 21C22 21.5523 21.5523 22 21 22H15C14.4477 22 14 21.5523 14 21C14 20.4477 14.4477 20 15 20H21Z" fill="#1F1F22"/>
<path d="M19 16C19.5523 16 20 16.4477 20 17C20 17.5523 19.5523 18 19 18H13C12.4477 18 12 17.5523 12 17C12 16.4477 12.4477 16 13 16H19Z" fill="#1F1F22"/>
<path d="M14.1719 4C14.9674 4.00008 15.7304 4.31637 16.293 4.87891L23.1211 11.707C23.6836 12.2696 23.9999 13.0326 24 13.8281V16C24 16.5523 23.5523 17 23 17C22.4477 17 22 16.5523 22 16V13.8281C21.9999 13.563 21.8945 13.3086 21.707 13.1211L14.8789 6.29297C14.6914 6.1055 14.437 6.00008 14.1719 6H9C8.44772 6 8 6.44772 8 7V16C8 16.5523 7.55228 17 7 17C6.44772 17 6 16.5523 6 16V7C6 5.34315 7.34315 4 9 4H14.1719Z" fill="#1F1F22"/>
<path d="M17 12C17.5523 12 18 12.4477 18 13C18 13.5523 17.5523 14 17 14H11C10.4477 14 10 13.5523 10 13C10 12.4477 10.4477 12 11 12H17Z" fill="#1F1F22"/>
</svg>
