<svg width="32" height="32" viewBox="0 0 32 32" fill="none" xmlns="http://www.w3.org/2000/svg">
<path d="M25 4C26.1046 4 27 4.89543 27 6V27C27 27.5523 26.5523 28 26 28C25.4477 28 25 27.5523 25 27V6H7V27C7 27.5523 6.55228 28 6 28C5.44772 28 5 27.5523 5 27V6C5 4.89543 5.89543 4 7 4H25Z" fill="#1F1F22"/>
<path d="M10 26C10.5523 26 11 26.4477 11 27C11 27.5523 10.5523 28 10 28C9.44772 28 9 27.5523 9 27C9 26.4477 9.44772 26 10 26Z" fill="#1F1F22"/>
<path d="M14 26C14.5523 26 15 26.4477 15 27C15 27.5523 14.5523 28 14 28C13.4477 28 13 27.5523 13 27C13 26.4477 13.4477 26 14 26Z" fill="#1F1F22"/>
<path d="M18 26C18.5523 26 19 26.4477 19 27C19 27.5523 18.5523 28 18 28C17.4477 28 17 27.5523 17 27C17 26.4477 17.4477 26 18 26Z" fill="#1F1F22"/>
<path d="M22 26C22.5523 26 23 26.4477 23 27C23 27.5523 22.5523 28 22 28C21.4477 28 21 27.5523 21 27C21 26.4477 21.4477 26 22 26Z" fill="#1F1F22"/>
<path d="M18.793 12.293C19.1835 11.9024 19.8165 11.9024 20.207 12.293C20.5975 12.6835 20.5976 13.3165 20.207 13.707L13.207 20.707C12.8165 21.0975 12.1835 21.0975 11.793 20.707C11.4025 20.3165 11.4025 19.6835 11.793 19.293L18.793 12.293Z" fill="#1F1F22"/>
<path d="M19 18C19.8284 18 20.5 18.6716 20.5 19.5C20.5 20.3284 19.8284 21 19 21C18.1716 21 17.5 20.3284 17.5 19.5C17.5 18.6716 18.1716 18 19 18Z" fill="#1F1F22"/>
<path d="M13 12C13.8284 12 14.5 12.6716 14.5 13.5C14.5 14.3284 13.8284 15 13 15C12.1716 15 11.5 14.3284 11.5 13.5C11.5 12.6716 12.1716 12 13 12Z" fill="#1F1F22"/>
</svg>
