<svg width="20" height="20" viewBox="0 0 20 20" fill="none" xmlns="http://www.w3.org/2000/svg">
<path fill-rule="evenodd" clip-rule="evenodd" d="M11.2929 0.292893C11.6834 -0.0976311 12.3166 -0.0976311 12.7071 0.292893L14.7071 2.29289C15.0977 2.68342 15.0977 3.31658 14.7071 3.70711L12.7071 5.70711C12.3166 6.09763 11.6834 6.09763 11.2929 5.70711C10.9024 5.31658 10.9024 4.68342 11.2929 4.29289L11.5725 4.01333C11.1138 4.03058 10.6103 4.06681 9.94506 4.13452C8.4116 4.29061 6.60725 5.44098 5.9285 7.13784C5.72339 7.65063 5.14141 7.90004 4.62863 7.69493C4.11585 7.48982 3.86643 6.90785 4.07155 6.39506C5.05703 3.93136 7.55329 2.36764 9.74253 2.1448C10.5025 2.06744 11.0757 2.02838 11.5971 2.01127L11.2929 1.70711C10.9024 1.31658 10.9024 0.683417 11.2929 0.292893ZM8.50607 7.87679C9.3349 7.33025 10.2693 7.18251 10.8248 7.18251C11.6795 7.18251 13.1066 7.26936 14.2038 8.1136C14.6415 8.45038 14.7233 9.07824 14.3865 9.51595C14.0497 9.95366 13.4219 10.0355 12.9842 9.69869C12.4564 9.29261 11.6344 9.18251 10.8248 9.18251C10.5482 9.18251 10.0264 9.26993 9.60708 9.54646C9.24724 9.78375 8.91242 10.1839 8.91242 11.0045C8.91242 11.2253 9.00825 11.4569 9.48914 11.7627C9.99726 12.0858 10.7094 12.3429 11.574 12.6484C11.5942 12.6555 11.6146 12.6627 11.6351 12.6699C12.4218 12.9477 13.3445 13.2735 14.0658 13.7321C14.833 14.22 15.5693 14.9879 15.5693 16.178C15.5693 17.0645 15.3371 17.8051 14.9125 18.3942C14.4936 18.9754 13.9377 19.3398 13.3994 19.5679C12.3785 20.0007 11.2749 20.0002 10.85 20C10.8413 20 10.8329 20 10.8248 20C10.0041 20 9.12787 19.7342 8.37748 19.3879C7.62148 19.039 6.89152 18.5612 6.3732 18.0429C5.98268 17.6523 5.98268 17.0192 6.3732 16.6287C6.76372 16.2381 7.39689 16.2381 7.78741 16.6287C8.10121 16.9425 8.61941 17.2968 9.2156 17.572C9.8174 17.8497 10.3973 18 10.8248 18C11.2521 18 11.9964 17.9904 12.6188 17.7266C12.9126 17.602 13.1369 17.4372 13.29 17.2248C13.4375 17.0202 13.5693 16.7025 13.5693 16.178C13.5693 15.9572 13.4735 15.7256 12.9926 15.4198C12.4845 15.0967 11.7723 14.8396 10.9078 14.5341C10.8875 14.527 10.8671 14.5198 10.8467 14.5126C10.06 14.2348 9.13727 13.909 8.41598 13.4504C7.64871 12.9625 6.91242 12.1946 6.91242 11.0045C6.91242 9.47336 7.61774 8.46258 8.50607 7.87679Z" fill="#1F1F22"/>
</svg>
