<svg width="32" height="32" viewBox="0 0 32 32" fill="none" xmlns="http://www.w3.org/2000/svg">
<path d="M9.49228 5.1239C9.56078 4.57588 9.17206 4.07609 8.62404 4.00758C8.07602 3.93908 7.57623 4.32781 7.50773 4.87583L7.00773 8.87583C6.93922 9.42385 7.32795 9.92364 7.87597 9.99214C8.42399 10.0606 8.92378 9.67192 8.99228 9.1239L9.49228 5.1239Z" fill="#1F1F22"/>
<path d="M5.97013 5.24272C6.10408 4.70693 5.77832 4.16399 5.24253 4.03005C4.70673 3.8961 4.1638 4.22186 4.02985 4.75765L3.02985 8.75765C2.8959 9.29345 3.22166 9.83638 3.75746 9.97033C4.29325 10.1043 4.83619 9.77852 4.97013 9.24272L5.97013 5.24272Z" fill="#1F1F22"/>
<path d="M7 12C7 11.4477 6.55228 11 6 11C5.44772 11 5 11.4477 5 12V19C5 20.6568 6.34315 22 8 22L15 22V25H8C7.44772 25 7 25.4477 7 26C7 26.5522 7.44772 27 8 27H24C24.5523 27 25 26.5522 25 26C25 25.4477 24.5523 25 24 25H17V22L24 22C25.6569 22 27 20.6568 27 19V12C27 11.4477 26.5523 11 26 11C25.4477 11 25 11.4477 25 12V19C25 19.5522 24.5523 20 24 20H8C7.44772 20 7 19.5522 7 19V12Z" fill="#1F1F22"/>
<path d="M26.7575 4.03005C26.2217 4.16399 25.8959 4.70693 26.0299 5.24272L27.0299 9.24272C27.1638 9.77852 27.7067 10.1043 28.2425 9.97033C28.7783 9.83638 29.1041 9.29345 28.9701 8.75765L27.9701 4.75765C27.8362 4.22186 27.2933 3.8961 26.7575 4.03005Z" fill="#1F1F22"/>
<path d="M12.624 4.00778C13.1721 4.07628 13.5608 4.57607 13.4923 5.12409L12.9923 9.12409C12.9238 9.67211 12.424 10.0608 11.876 9.99233C11.3279 9.92383 10.9392 9.42404 11.0077 8.87602L11.5077 4.87602C11.5762 4.328 12.076 3.93928 12.624 4.00778Z" fill="#1F1F22"/>
<path d="M22.5371 5.1239C22.4686 4.57588 22.8574 4.07609 23.4054 4.00758C23.9534 3.93908 24.4532 4.32781 24.5217 4.87583L25.0217 8.87583C25.0902 9.42385 24.7015 9.92364 24.1535 9.99214C23.6054 10.0606 23.1056 9.67192 23.0371 9.1239L22.5371 5.1239Z" fill="#1F1F22"/>
<path d="M19.4054 4.00778C18.8574 4.07628 18.4686 4.57607 18.5371 5.12409L19.0371 9.12409C19.1056 9.67211 19.6054 10.0608 20.1535 9.99233C20.7015 9.92383 21.0902 9.42404 21.0217 8.87602L20.5217 4.87602C20.4532 4.328 19.9534 3.93928 19.4054 4.00778Z" fill="#1F1F22"/>
<path d="M17 4.99995C17 4.44767 16.5523 3.99995 16 3.99995C15.4477 3.99995 15 4.44767 15 4.99995V8.99995C15 9.55224 15.4477 9.99995 16 9.99995C16.5523 9.99995 17 9.55224 17 8.99995V4.99995Z" fill="#1F1F22"/>
</svg>
