<svg width="20" height="20" viewBox="0 0 20 20" fill="none" xmlns="http://www.w3.org/2000/svg">
<path d="M8 4.97485e-05C8.55227 4.97485e-05 8.99997 0.447789 9 1.00005C9 1.55233 8.55228 2.00005 8 2.00005H4C3.44773 2.00005 3.00003 2.44779 3 3.00005V17C3 17.5523 3.44772 18 4 18H14C14.5523 18 15 17.5523 15 17V13.5C15 12.9478 15.4477 12.5 16 12.5C16.5523 12.5 17 12.9478 17 13.5V17C17 18.6569 15.6569 20 14 20H4C2.34315 20 1 18.6569 1 17V3.00005C1.00003 1.34322 2.34316 4.97807e-05 4 4.97485e-05H8Z" fill="#1F1F22"/>
<path d="M12 14C12.5523 14 13 14.4478 13 15C13 15.5523 12.5523 16 12 16H6C5.44772 16 5 15.5523 5 15C5.00003 14.4478 5.44773 14 6 14H12Z" fill="#1F1F22"/>
<path d="M9 10C9.55227 10 9.99997 10.4478 10 11C10 11.5523 9.55229 12 9 12H6C5.44772 12 5 11.5523 5 11C5.00003 10.4478 5.44773 10 6 10H9Z" fill="#1F1F22"/>
<path fill-rule="evenodd" clip-rule="evenodd" d="M15.3525 0.0107919C15.499 -0.0110443 15.6492 0.000371672 15.792 0.0439951L19.292 1.11431C19.7124 1.24287 20 1.63074 20 2.07036V4.01079C20 5.65035 19.5435 6.92369 18.7764 7.96196C18.0303 8.97165 17.0277 9.70575 16.041 10.3409C15.7114 10.5529 15.2886 10.5529 14.959 10.3409C13.9715 9.7052 12.9695 8.96936 12.2236 7.95903C11.4569 6.92046 11 5.64766 11 4.01079V2.07036C11 1.63074 11.2876 1.24287 11.708 1.11431L15.208 0.0439951L15.3525 0.0107919ZM13 2.80962V4.01079C13 5.23855 13.331 6.0915 13.833 6.77153C14.2507 7.33722 14.8131 7.81751 15.5 8.29595C16.1875 7.81751 16.7503 7.33866 17.168 6.77349C17.6695 6.09468 18 5.24199 18 4.01079V2.80962L15.5 2.04497L13 2.80962Z" fill="#1F1F22"/>
<path d="M8 6.00005C8.55227 6.00005 8.99997 6.44779 9 7.00005C9 7.55233 8.55228 8.00005 8 8.00005H6C5.44772 8.00005 5 7.55233 5 7.00005C5.00003 6.44779 5.44773 6.00005 6 6.00005H8Z" fill="#1F1F22"/>
</svg>
