<svg width="20" height="20" viewBox="0 0 20 20" fill="none" xmlns="http://www.w3.org/2000/svg">
<path fill-rule="evenodd" clip-rule="evenodd" d="M17 0C18.6569 1.22587e-07 20 1.34315 20 3V17C20 18.6569 18.6569 20 17 20H3C1.34315 20 0 18.6569 0 17V3C1.22587e-07 1.34315 1.34315 0 3 0H17ZM2 17C2 17.5523 2.44772 18 3 18H17C17.5523 18 18 17.5523 18 17V7H13V9C13 10.1046 12.1046 11 11 11H9C7.89543 11 7 10.1046 7 9V7H2V17ZM9 9H11V7H9V9ZM3 2C2.44772 2 2 2.44772 2 3V5H18V3C18 2.44772 17.5523 2 17 2H3Z" fill="#1F1F22"/>
</svg>
