<svg width="32" height="32" viewBox="0 0 32 32" fill="none" xmlns="http://www.w3.org/2000/svg">
<path d="M18 21C18.5523 21 19 21.4477 19 22C19 22.5523 18.5523 23 18 23H14C13.4477 23 13 22.5523 13 22C13 21.4477 13.4477 21 14 21H18Z" fill="#1F1F22"/>
<path fill-rule="evenodd" clip-rule="evenodd" d="M18 4C19.6569 4 21 5.34315 21 7V9H25C26.6569 9 28 10.3431 28 12V24C28 25.6569 26.6569 27 25 27H7C5.34315 27 4 25.6569 4 24V12C4 10.3431 5.34315 9 7 9H11V7C11 5.34315 12.3431 4 14 4H18ZM7 11C6.44772 11 6 11.4477 6 12V24C6 24.5523 6.44772 25 7 25H25C25.5523 25 26 24.5523 26 24V12C26 11.4477 25.5523 11 25 11H7ZM14 6C13.4477 6 13 6.44772 13 7V9H19V7C19 6.44772 18.5523 6 18 6H14Z" fill="#1F1F22"/>
</svg>
