<svg width="32" height="32" viewBox="0 0 32 32" fill="none" xmlns="http://www.w3.org/2000/svg">
<path fill-rule="evenodd" clip-rule="evenodd" d="M22.5 14.9996C24.4329 14.9996 25.9998 16.5668 26 18.4996C26 20.4326 24.433 21.9996 22.5 21.9996H21V22.9996H21.9883C22.5404 22.9996 22.9881 23.4475 22.9883 23.9996C22.9883 24.5519 22.5406 24.9996 21.9883 24.9996H21V25.9996C21 26.5519 20.5523 26.9996 20 26.9996C19.4477 26.9996 19 26.5519 19 25.9996V24.9996H18C17.4477 24.9996 17 24.5519 17 23.9996C17.0002 23.4475 17.4478 22.9996 18 22.9996H19V21.9996H18C17.4477 21.9996 17 21.5519 17 20.9996C17.0002 20.4475 17.4478 19.9996 18 19.9996H19V15.9996L19.0049 15.897C19.0564 15.3931 19.4825 14.9996 20 14.9996H22.5ZM21 19.9996H22.5C23.3284 19.9996 24 19.328 24 18.4996C23.9998 17.6713 23.3283 16.9996 22.5 16.9996H21V19.9996Z" fill="#1F1F22"/>
<path d="M7.59277 7.00347C8.00318 7.0417 8.34854 7.32888 8.46191 7.72515L11.5137 18.4078L12.3057 15.7173C12.4617 15.1878 13.0172 14.8849 13.5469 15.0406C14.0765 15.1964 14.3792 15.7521 14.2236 16.2818L12.459 22.2818C12.3334 22.7087 11.9411 23.0013 11.4961 22.9996C11.0511 22.9978 10.6603 22.7019 10.5381 22.274L7.24414 10.7466L5.89453 13.4468C5.72514 13.7856 5.37877 13.9996 5 13.9996H3C2.44772 13.9996 2 13.5519 2 12.9996C2.0002 12.4475 2.44784 11.9996 3 11.9996H4.38184L6.60547 7.5523C6.78995 7.18365 7.18228 6.96534 7.59277 7.00347Z" fill="#1F1F22"/>
<path d="M14.3398 10.9996C15.1681 10.9996 15.8396 11.6713 15.8398 12.4996C15.8398 13.328 15.1683 13.9996 14.3398 13.9996C13.5114 13.9996 12.8398 13.328 12.8398 12.4996C12.8401 11.6713 13.5116 10.9996 14.3398 10.9996Z" fill="#1F1F22"/>
<path d="M16.2783 4.02398C16.6315 3.94378 17.0008 4.06151 17.2432 4.33062L21.2031 8.73101L27.5039 5.1314C27.9833 4.85758 28.5941 5.02423 28.8682 5.50347C29.1421 5.98294 28.9755 6.59368 28.4961 6.86773L21.4961 10.8677C21.0875 11.1012 20.5716 11.0182 20.2568 10.6685L16.9541 6.99859L16.2832 9.2818C16.1274 9.81164 15.5709 10.1144 15.041 9.95855C14.5115 9.8025 14.2085 9.24701 14.3643 8.71734L15.541 4.71734L15.5869 4.59137C15.7143 4.30667 15.9692 4.09423 16.2783 4.02398Z" fill="#1F1F22"/>
</svg>
