<svg width="32" height="32" viewBox="0 0 32 32" fill="none" xmlns="http://www.w3.org/2000/svg">
<path d="M13 4C13.5523 4 14 4.44772 14 5C14 5.55228 13.5523 6 13 6H10C9.44772 6 9 6.44772 9 7V24C9 24.5523 9.44772 25 10 25H22C22.5523 25 23 24.5523 23 24V20C23 19.4477 23.4477 19 24 19C24.5523 19 25 19.4477 25 20V24C25 25.6569 23.6569 27 22 27H10C8.34315 27 7 25.6569 7 24V7C7 5.34315 8.34315 4 10 4H13Z" fill="#1F1F22"/>
<path d="M20 20C20.5523 20 21 20.4477 21 21C21 21.5523 20.5523 22 20 22H12C11.4477 22 11 21.5523 11 21C11 20.4477 11.4477 20 12 20H20Z" fill="#1F1F22"/>
<path d="M14 16C14.5523 16 15 16.4477 15 17C15 17.5523 14.5523 18 14 18H12C11.4477 18 11 17.5523 11 17C11 16.4477 11.4477 16 12 16H14Z" fill="#1F1F22"/>
<path d="M19.6357 3.94531C20.1498 3.74418 20.7292 3.99779 20.9307 4.51172C21.1319 5.02586 20.8783 5.6052 20.3643 5.80664C18.687 6.46373 17.5001 8.09907 17.5 10C17.5002 12.4804 19.5198 14.5 22 14.5C22.5522 14.5 22.9998 14.9479 23 15.5C22.9998 16.0521 22.5522 16.5 22 16.5C18.4152 16.5 15.5002 13.585 15.5 10C15.5001 7.24636 17.2199 4.89159 19.6357 3.94531Z" fill="#1F1F22"/>
<path d="M25.3135 5.50098C25.7151 5.12224 26.3486 5.14055 26.7275 5.54199C27.8245 6.70481 28.4999 8.27592 28.5 10C28.4999 12.0478 27.5476 13.8766 26.0684 15.0664C25.638 15.4125 25.0083 15.3443 24.6621 14.9141C24.3162 14.4837 24.3841 13.8539 24.8145 13.5078C25.8437 12.68 26.4999 11.4146 26.5 10C26.4999 8.8079 26.0343 7.72272 25.2725 6.91504C24.8937 6.51334 24.9119 5.87991 25.3135 5.50098Z" fill="#1F1F22"/>
<path d="M23.2207 3.63574C23.7728 3.63601 24.2207 4.08362 24.2207 4.63574C24.2207 5.18786 23.7728 5.63548 23.2207 5.63574C22.6684 5.63574 22.2207 5.18803 22.2207 4.63574C22.2207 4.08346 22.6684 3.63574 23.2207 3.63574Z" fill="#1F1F22"/>
</svg>
