<svg width="32" height="32" viewBox="0 0 32 32" fill="none" xmlns="http://www.w3.org/2000/svg">
<path d="M23.4997 16C24.3317 16 25.13 16.1567 25.864 16.4434C26.3781 16.6443 26.632 17.224 26.4313 17.7383C26.2305 18.2526 25.6508 18.5073 25.1364 18.3066C24.6306 18.1091 24.0788 18 23.4997 18C21.0145 18.0001 18.9997 20.0148 18.9997 22.5C18.9997 24.9852 21.0145 26.9999 23.4997 27C25.8709 27 27.8143 25.1653 27.987 22.8389C28.0278 22.2882 28.5077 21.8744 29.0583 21.915C29.609 21.9559 30.0229 22.4356 29.9821 22.9863C29.7328 26.3495 26.926 29 23.4997 29C19.9099 28.9999 16.9997 26.0898 16.9997 22.5C16.9997 18.9102 19.9099 16.0001 23.4997 16Z" fill="#1F1F22"/>
<path d="M27.8757 18.4688C28.3069 18.1242 28.936 18.194 29.281 18.625C29.626 19.0563 29.556 19.6862 29.1247 20.0312L24.1247 24.0312C23.7635 24.3201 23.2515 24.3229 22.8864 24.0391L20.8864 22.4834C20.4505 22.1443 20.3716 21.516 20.7106 21.0801C21.0498 20.6444 21.6781 20.5663 22.114 20.9053L23.4909 21.9766L27.8757 18.4688Z" fill="#1F1F22"/>
<path d="M10.027 14.7314C10.7624 14.1192 11.6512 14.2446 12.2683 14.6748L12.3884 14.7656L12.3903 14.7666C13.3037 15.5105 14.7139 15.9999 15.9997 16C16.5519 16 16.9996 16.4478 16.9997 17C16.9996 17.5522 16.5519 18 15.9997 18C14.3138 17.9999 12.4834 17.3904 11.1921 16.3672C9.77701 17.6001 8.99983 19.2181 8.9997 20.9834C8.9997 21.1734 8.99948 21.3573 9.01142 21.542C9.02349 21.728 9.04549 21.8745 9.07685 21.9795C9.07909 21.9869 9.08256 21.9936 9.08467 22H13.9997C14.5519 22 14.9996 22.4478 14.9997 23C14.9996 23.5522 14.5519 24 13.9997 24H9.00166C8.51485 23.9998 8.0752 23.8367 7.73408 23.5186C7.41662 23.2224 7.25166 22.8557 7.16084 22.5518C6.98737 21.9708 6.9997 21.3064 6.9997 20.9834C6.99983 18.5226 8.12628 16.3204 10.0261 14.7324L10.027 14.7314Z" fill="#1F1F22"/>
<path fill-rule="evenodd" clip-rule="evenodd" d="M15.9997 4C18.7611 4 20.9997 6.23858 20.9997 9C20.9997 11.7614 18.7611 14 15.9997 14C13.2384 13.9999 10.9997 11.7614 10.9997 9C10.9997 6.23864 13.2384 4.0001 15.9997 4ZM15.9997 6C14.3429 6.0001 12.9997 7.34321 12.9997 9C12.9997 10.6568 14.3429 11.9999 15.9997 12C17.6566 12 18.9997 10.6569 18.9997 9C18.9997 7.34315 17.6566 6 15.9997 6Z" fill="#1F1F22"/>
</svg>
