<svg width="20" height="20" viewBox="0 0 20 20" fill="none" xmlns="http://www.w3.org/2000/svg">
<path d="M10 2C10.5523 2 11 2.44772 11 3C11 3.55228 10.5523 4 10 4H3C2.44772 4 2 4.44772 2 5V13L2.00488 13.1025C2.05621 13.6067 2.48232 14 3 14H15C15.5523 14 16 13.5523 16 13V12.5C16 11.9477 16.4477 11.5 17 11.5C17.5523 11.5 18 11.9477 18 12.5V13C18 14.6569 16.6569 16 15 16H10V18H13C13.5523 18 14 18.4477 14 19C14 19.5523 13.5523 20 13 20H5C4.44772 20 4 19.5523 4 19C4 18.4477 4.44772 18 5 18H8V16H3C1.39489 16 0.0842144 14.7394 0.00390625 13.1543L0 13V5C1.28853e-07 3.34315 1.34315 2 3 2H10Z" fill="#1F1F22"/>
<path d="M10 10C10.5523 10 11 10.4477 11 11C11 11.5523 10.5523 12 10 12H5C4.44772 12 4 11.5523 4 11C4 10.4477 4.44772 10 5 10H10Z" fill="#1F1F22"/>
<path fill-rule="evenodd" clip-rule="evenodd" d="M17 0C18.6569 0 20 1.34315 20 3C20 4.65685 18.6569 6 17 6H16V6.5H16.5C17.0523 6.5 17.5 6.94772 17.5 7.5C17.5 8.05229 17.0523 8.5 16.5 8.5H16V9C16 9.55229 15.5523 10 15 10C14.4477 10 14 9.55229 14 9V8.5H13.5C12.9477 8.5 12.5 8.05229 12.5 7.5C12.5 6.94772 12.9477 6.5 13.5 6.5H14V6H13.5C12.9477 6 12.5 5.55228 12.5 5C12.5 4.44772 12.9477 4 13.5 4H14V1L14.0049 0.897461C14.0562 0.393331 14.4823 0 15 0H17ZM16 4H17C17.5523 4 18 3.55228 18 3C18 2.44772 17.5523 2 17 2H16V4Z" fill="#1F1F22"/>
<path d="M7 6C7.55228 6 8 6.44772 8 7C8 7.55228 7.55228 8 7 8H5C4.44772 8 4 7.55228 4 7C4 6.44772 4.44772 6 5 6H7Z" fill="#1F1F22"/>
</svg>
