<svg width="32" height="32" viewBox="0 0 32 32" fill="none" xmlns="http://www.w3.org/2000/svg">
<path fill-rule="evenodd" clip-rule="evenodd" d="M24.5 16C26.433 16 28 17.567 28 19.5C28 21.433 26.433 23 24.5 23H23V24H23.9883C24.5406 24 24.9883 24.4477 24.9883 25C24.9883 25.5523 24.5406 26 23.9883 26H23V27C23 27.5523 22.5523 28 22 28C21.4477 28 21 27.5523 21 27V26H20C19.4477 26 19 25.5523 19 25C19 24.4477 19.4477 24 20 24H21V23H20C19.4477 23 19 22.5523 19 22C19 21.4477 19.4477 21 20 21H21V17L21.0049 16.8975C21.0562 16.3933 21.4823 16 22 16H24.5ZM23 21H24.5C25.3284 21 26 20.3284 26 19.5C26 18.6716 25.3284 18 24.5 18H23V21Z" fill="#1F1F22"/>
<path fill-rule="evenodd" clip-rule="evenodd" d="M18 4C19.6569 4 21 5.34315 21 7V9H25C26.6569 9 28 10.3431 28 12V13.5C28 14.0523 27.5523 14.5 27 14.5C26.4477 14.5 26 14.0523 26 13.5V12C26 11.4477 25.5523 11 25 11H7C6.44772 11 6 11.4477 6 12V24C6 24.5523 6.44772 25 7 25H9C9.55228 25 10 25.4477 10 26C10 26.5523 9.55228 27 9 27H7C5.34315 27 4 25.6569 4 24V12C4 10.3431 5.34315 9 7 9H11V7C11 5.34315 12.3431 4 14 4H18ZM14 6C13.4477 6 13 6.44772 13 7V9H19V7C19 6.44772 18.5523 6 18 6H14Z" fill="#1F1F22"/>
<path d="M15.5 24C16.0523 24 16.5 24.4477 16.5 25C16.5 25.5523 16.0523 26 15.5 26H13C12.4477 26 12 25.5523 12 25C12 24.4477 12.4477 24 13 24H15.5Z" fill="#1F1F22"/>
<path d="M16.5 21C17.0523 21 17.5 21.4477 17.5 22C17.5 22.5523 17.0523 23 16.5 23H14C13.4477 23 13 22.5523 13 22C13 21.4477 13.4477 21 14 21H16.5Z" fill="#1F1F22"/>
<path d="M17.5 18C18.0523 18 18.5 18.4477 18.5 19C18.5 19.5523 18.0523 20 17.5 20H15C14.4477 20 14 19.5523 14 19C14 18.4477 14.4477 18 15 18H17.5Z" fill="#1F1F22"/>
</svg>
