<svg width="32" height="32" viewBox="0 0 32 32" fill="none" xmlns="http://www.w3.org/2000/svg">
<path d="M15.5 10.0009C16.0523 10.0009 16.5 10.4486 16.5 11.0009C16.4999 11.5531 16.0522 12.0009 15.5 12.0009H10.5C9.94775 12.0009 9.50006 11.5531 9.5 11.0009C9.5 10.4486 9.94772 10.0009 10.5 10.0009H15.5Z" fill="#1F1F22"/>
<path fill-rule="evenodd" clip-rule="evenodd" d="M8.29297 7.10536C11.1596 5.7581 14.7695 5.57724 17.9941 6.89931C19.9043 6.01748 22.2109 5.99989 24.0088 5.99989C24.3299 5.99995 24.6314 6.15459 24.8193 6.41493C25.0072 6.67537 25.0592 7.01056 24.958 7.31532L24.0908 9.92372L25.6201 13.0009H27C27.5523 13.0009 28 13.4486 28 14.0009V18.5009C27.9998 18.8791 27.7863 19.2249 27.4482 19.3944L22.7588 21.746L20.8936 25.4501C20.7236 25.7874 20.3777 25.9999 20 25.9999H16C15.4478 25.9999 15.0001 25.5521 15 24.9999V23.9999H13V24.9999C12.9999 25.5521 12.5522 25.9999 12 25.9999H8C7.68022 25.9999 7.3796 25.8473 7.19141 25.5888L7.19043 25.5878L7.18945 25.5858C7.18871 25.5848 7.18765 25.5835 7.18652 25.5819C7.184 25.5784 7.18016 25.5734 7.17578 25.5673C7.16701 25.5551 7.15442 25.5378 7.13867 25.5155C7.10682 25.4705 7.06135 25.4048 7.00391 25.3212C6.88904 25.154 6.72709 24.9122 6.5332 24.6093C6.14583 24.004 5.62875 23.1489 5.11133 22.1464C4.09456 20.1764 3.00003 17.4986 3 14.9999C3.00014 11.2857 5.27676 8.52306 8.29297 7.10536ZM17.6084 8.91005C14.825 7.63202 11.6266 7.74794 9.14355 8.91493C6.67698 10.0743 5.00014 12.2155 5 14.9999C5.00003 17.0011 5.90548 19.3244 6.88867 21.2294C7.37104 22.1639 7.85426 22.9647 8.2168 23.5311C8.33363 23.7137 8.44038 23.8703 8.52734 23.9999H11V22.9999C11.0002 22.4478 11.4479 21.9999 12 21.9999H16C16.5521 21.9999 16.9998 22.4478 17 22.9999V23.9999H19.3838L21.1211 20.5507C21.2178 20.3587 21.3742 20.2027 21.5664 20.1063L26 17.8827V15.0009H25C24.6205 15.0009 24.2735 14.786 24.1045 14.4462L22.1162 10.4462C21.9986 10.2097 21.9792 9.93605 22.0625 9.68544L22.6162 8.01942C21.0781 8.06874 19.6371 8.24671 18.5137 8.87392C18.2351 9.02949 17.8984 9.04319 17.6084 8.91005Z" fill="#1F1F22"/>
</svg>
