<svg width="32" height="32" viewBox="0 0 32 32" fill="none" xmlns="http://www.w3.org/2000/svg">
<path d="M15 5C15.5523 5 16 5.44772 16 6C16 6.55228 15.5523 7 15 7H10C9.44772 7 9 7.44772 9 8V25C9 25.5523 9.44772 26 10 26H22C22.5523 26 23 25.5523 23 25V21C23 20.4477 23.4477 20 24 20C24.5523 20 25 20.4477 25 21V25C25 26.6569 23.6569 28 22 28H10C8.34315 28 7 26.6569 7 25V8C7 6.34315 8.34315 5 10 5H15Z" fill="#1F1F22"/>
<path d="M20 21C20.5523 21 21 21.4477 21 22C21 22.5523 20.5523 23 20 23H12C11.4477 23 11 22.5523 11 22C11 21.4477 11.4477 21 12 21H20Z" fill="#1F1F22"/>
<path d="M15 17C15.5523 17 16 17.4477 16 18C16 18.5523 15.5523 19 15 19H12C11.4477 19 11 18.5523 11 18C11 17.4477 11.4477 17 12 17H15Z" fill="#1F1F22"/>
<path d="M20.793 6.79297C21.1835 6.40251 21.8165 6.40246 22.207 6.79297C22.5975 7.18347 22.5975 7.81651 22.207 8.20703L19.4141 11H26C26.5523 11 27 11.4477 27 12C27 12.5523 26.5523 13 26 13H19.4141L22.207 15.793C22.5976 16.1835 22.5976 16.8165 22.207 17.207C21.8165 17.5975 21.1835 17.5976 20.793 17.207L16.293 12.707C16.2654 12.6794 16.2405 12.65 16.2168 12.6201C16.1807 12.5745 16.148 12.5261 16.1201 12.4746C16.1127 12.4609 16.1063 12.4466 16.0996 12.4326C16.0778 12.3873 16.0578 12.3408 16.043 12.292C16.0423 12.2897 16.0417 12.2874 16.041 12.2852C16.0319 12.2543 16.0247 12.2229 16.0186 12.1914C16.0169 12.1827 16.0161 12.1738 16.0146 12.165C16.0057 12.1113 16 12.0563 16 12C16 11.8445 16.0363 11.6977 16.0996 11.5664C16.1188 11.5266 16.1403 11.4877 16.165 11.4502C16.2024 11.3935 16.2452 11.3408 16.293 11.293L20.793 6.79297Z" fill="#1F1F22"/>
</svg>
