<svg width="32" height="32" viewBox="0 0 32 32" fill="none" xmlns="http://www.w3.org/2000/svg">
<path d="M23.5 16C24.332 16 25.1303 16.1567 25.8643 16.4434C26.3783 16.6444 26.6322 17.2241 26.4316 17.7383C26.2307 18.2527 25.6502 18.5075 25.1357 18.3066C24.63 18.1092 24.079 18 23.5 18C21.0147 18 19 20.0147 19 22.5C19 24.9853 21.0147 27 23.5 27C25.8712 27 27.8146 25.1654 27.9873 22.8389C28.0281 22.2881 28.5079 21.8743 29.0586 21.915C29.6093 21.9559 30.0232 22.4356 29.9824 22.9863C29.7331 26.3495 26.9263 29 23.5 29C19.9101 29 17 26.0899 17 22.5C17 18.9101 19.9101 16 23.5 16Z" fill="#1F1F22"/>
<path d="M27.875 18.4688C28.3062 18.1238 28.9362 18.1938 29.2812 18.625C29.6263 19.0563 29.5563 19.6862 29.125 20.0312L24.125 24.0312C23.7638 24.3202 23.2509 24.3231 22.8857 24.0391L20.8857 22.4834C20.4502 22.1442 20.372 21.5159 20.7109 21.0801C21.0501 20.6445 21.6784 20.5663 22.1143 20.9053L23.4912 21.9766L27.875 18.4688Z" fill="#1F1F22"/>
<path d="M25 6C26.6569 6 28 7.34315 28 9V12.5C28 13.0523 27.5523 13.5 27 13.5C26.4477 13.5 26 13.0523 26 12.5V9C26 8.44771 25.5523 8 25 8H7C6.44772 8 6 8.44772 6 9V21C6 21.5523 6.44772 22 7 22H13C13.5523 22 14 22.4477 14 23C14 23.5523 13.5523 24 13 24H7C5.34315 24 4 22.6569 4 21V9C4 7.34315 5.34315 6 7 6H25Z" fill="#1F1F22"/>
<path d="M22 11C22.5523 11 23 11.4477 23 12C23 12.5523 22.5523 13 22 13H10C9.44772 13 9 12.5523 9 12C9 11.4477 9.44772 11 10 11H22Z" fill="#1F1F22"/>
</svg>
