<svg width="32" height="32" viewBox="0 0 32 32" fill="none" xmlns="http://www.w3.org/2000/svg">
<path d="M23.6768 9.6669C24.1293 9.65487 24.5335 9.9487 24.6621 10.3827L26.2285 15.6669H28C28.5523 15.6669 28.9999 16.1147 29 16.6669C28.9998 17.219 28.5522 17.6669 28 17.6669H25.4814C25.0387 17.6669 24.6484 17.3755 24.5225 16.9511L23.8057 14.5331L20.5283 28.2323C20.421 28.6808 20.0207 28.9981 19.5596 28.9999C19.0983 29.0016 18.6955 28.687 18.585 28.2392L16.6094 20.2392C16.4773 19.7032 16.8048 19.1616 17.3408 19.0292C17.8769 18.897 18.4184 19.2246 18.5508 19.7607L19.54 23.7675L22.7314 10.4335L22.7832 10.2753C22.9341 9.9199 23.2808 9.67757 23.6768 9.6669Z" fill="#1F1F22"/>
<path d="M13.6436 2.99991C14.0982 3.00624 14.4915 3.31918 14.6006 3.76065L16.5762 11.7607C16.7082 12.2966 16.3807 12.8382 15.8447 12.9706C15.3085 13.103 14.7662 12.7753 14.6338 12.2392L13.5762 7.95401L9.26074 23.5995C9.14197 24.0297 8.75194 24.3287 8.30566 24.3329C7.85935 24.3371 7.46469 24.045 7.33789 23.6171L5.17871 16.3329H4C3.44772 16.3329 3 15.8852 3 15.3329C3.00023 14.7808 3.44786 14.3329 4 14.3329H5.92578C6.36849 14.3329 6.75881 14.6244 6.88477 15.0487L8.26172 19.6962L12.666 3.73428L12.7236 3.57608C12.8878 3.22478 13.2456 2.99452 13.6436 2.99991Z" fill="#1F1F22"/>
<path d="M16.5 14.4999C17.3284 14.4999 18 15.1715 18 15.9999C18 16.8283 17.3284 17.4999 16.5 17.4999C15.6716 17.4999 15 16.8283 15 15.9999C15 15.1715 15.6716 14.4999 16.5 14.4999Z" fill="#1F1F22"/>
</svg>
