<svg width="20" height="20" viewBox="0 0 20 20" fill="none" xmlns="http://www.w3.org/2000/svg">
<path d="M7.5 0C8.05228 0 8.5 0.447715 8.5 1C8.5 1.55228 8.05228 2 7.5 2H4C3.44772 2 3 2.44772 3 3V17C3 17.5523 3.44772 18 4 18H14C14.5523 18 15 17.5523 15 17V14C15 13.4477 15.4477 13 16 13C16.5523 13 17 13.4477 17 14V17C17 18.6569 15.6569 20 14 20H4C2.34315 20 1 18.6569 1 17V3C1 1.34315 2.34315 3.22128e-08 4 0H7.5Z" fill="#1F1F22"/>
<path d="M12 14C12.5523 14 13 14.4477 13 15C13 15.5523 12.5523 16 12 16H6C5.44772 16 5 15.5523 5 15C5 14.4477 5.44772 14 6 14H12Z" fill="#1F1F22"/>
<path d="M7 10C7.55228 10 8 10.4477 8 11C8 11.5523 7.55228 12 7 12H6C5.44772 12 5 11.5523 5 11C5 10.4477 5.44772 10 6 10H7Z" fill="#1F1F22"/>
<path d="M9.125 4.90137C9.73784 2.20819 12.4392 0.516471 15.1592 1.12305C15.7032 1.2444 16.0454 1.77973 15.9229 2.31836C15.8003 2.85695 15.2598 3.19545 14.7158 3.07422C13.0837 2.71012 11.4625 3.72483 11.0947 5.34082C10.7271 6.9567 11.7519 8.56158 13.3838 8.92578C15.0159 9.28988 16.6372 8.27517 17.0049 6.65918C17.1275 6.12059 17.6679 5.78204 18.2119 5.90332C18.7559 6.02468 19.0972 6.55998 18.9746 7.09863C18.3618 9.79182 15.6605 11.4836 12.9404 10.877C10.2203 10.2701 8.51214 7.59467 9.125 4.90137Z" fill="#1F1F22"/>
<path d="M16.4326 3.23242C16.8609 2.87901 17.4974 2.93641 17.8545 3.36035C18.2115 3.78452 18.154 4.41506 17.7256 4.76855L14.6963 7.26758C14.2951 7.5986 13.7052 7.57262 13.3359 7.20703L12.3262 6.20703C11.9319 5.81659 11.9319 5.18339 12.3262 4.79297C12.7204 4.40277 13.3596 4.40285 13.7539 4.79297L14.1123 5.14746L16.4326 3.23242Z" fill="#1F1F22"/>
</svg>
