<svg width="20" height="20" viewBox="0 0 20 20" fill="none" xmlns="http://www.w3.org/2000/svg">
<path d="M1.09888 9.72102C5.94586 10.2023 9.79928 14.0557 10.2805 18.9027C10.3348 19.452 9.93335 19.9418 9.38404 19.9964C8.8345 20.051 8.34492 19.6494 8.29029 19.0999C7.9032 15.2013 4.80029 12.0983 0.901614 11.7113C0.352076 11.6566 -0.0494333 11.1671 0.00512972 10.6175C0.059763 10.0681 0.549522 9.66671 1.09888 9.72102Z" fill="#1F1F22"/>
<path d="M0.135013 17.8226C0.411549 17.3445 1.02317 17.1808 1.50122 17.4573C1.93371 17.7075 2.29401 18.0678 2.54419 18.5003C2.82063 18.9784 2.65698 19.59 2.17896 19.8665C1.70092 20.143 1.08927 19.9793 0.812747 19.5013C0.737878 19.372 0.62953 19.2637 0.500247 19.1888C0.022238 18.9123 -0.141405 18.3006 0.135013 17.8226Z" fill="#1F1F22"/>
<path d="M0.0139188 14.2845C0.105298 13.7398 0.62159 13.3728 1.16626 13.4642C3.91209 13.925 6.07651 16.0895 6.53736 18.8353C6.62874 19.38 6.26172 19.8962 5.71704 19.9876C5.1724 20.079 4.65705 19.711 4.56568 19.1663C4.24604 17.2615 2.74 15.7555 0.835208 15.4359C0.290547 15.3445 -0.077438 14.8292 0.0139188 14.2845Z" fill="#1F1F22"/>
<path d="M1.07056 6.00325C7.98615 6.49132 13.5101 12.0144 13.9983 18.93C14.0372 19.4809 13.6215 19.9595 13.0706 19.9984C12.5198 20.037 12.042 19.6214 12.0032 19.0706C11.585 13.1487 6.85189 8.41631 0.929934 7.99836C0.379093 7.95941 -0.0357007 7.48087 0.00317659 6.93001C0.0421767 6.37932 0.519866 5.96456 1.07056 6.00325Z" fill="#1F1F22"/>
<path d="M10.1223 3.90169C10.7293 1.20786 13.405 -0.483555 16.0989 0.123365C16.6377 0.244757 16.9761 0.779899 16.8547 1.31868C16.7332 1.85725 16.1981 2.19584 15.6594 2.07454C14.0432 1.71038 12.4378 2.72494 12.0735 4.34114C11.7093 5.95747 12.7247 7.5629 14.3411 7.92708C15.9572 8.291 17.5628 7.27656 17.927 5.66047C18.0484 5.1217 18.5835 4.78322 19.1223 4.90461C19.6609 5.02616 19.9995 5.56127 19.8782 6.09993C19.2712 8.79378 16.5945 10.4852 13.9006 9.87825C11.207 9.27111 9.51539 6.59544 10.1223 3.90169Z" fill="#1F1F22"/>
<path d="M17.3606 2.23274C17.7849 1.8792 18.4152 1.9364 18.7688 2.36067C19.1221 2.7849 19.065 3.41534 18.6409 3.76887L15.6409 6.26887C15.2435 6.59998 14.6589 6.57307 14.2932 6.20735L13.2932 5.20735C12.9029 4.8168 12.9028 4.18373 13.2932 3.79329C13.6837 3.4029 14.3167 3.40304 14.7073 3.79329L15.0618 4.14778L17.3606 2.23274Z" fill="#1F1F22"/>
</svg>
