<svg width="32" height="32" viewBox="0 0 32 32" fill="none" xmlns="http://www.w3.org/2000/svg">
<path d="M18.1889 4.60828C17.5032 2.4639 14.4968 2.46391 13.8111 4.60828L11.8369 10.7826C11.7927 10.921 11.6726 11 11.5531 11H3C2.44772 11 2 11.4477 2 12C2 12.5523 2.44772 13 3 13H11.5531C12.56 13 13.4381 12.3419 13.7419 11.3917L15.7161 5.21738C15.8088 4.92754 16.1912 4.92754 16.2839 5.21738L18.258 11.3917C18.5619 12.3419 19.44 13 20.4469 13H29C29.5523 13 30 12.5523 30 12C30 11.4477 29.5523 11 29 11H20.4469C20.3274 11 20.2073 10.921 20.163 10.7826L18.1889 4.60828Z" fill="#1F1F22"/>
<path d="M6.97552 15.1823C6.52388 14.8644 5.90007 14.9729 5.58221 15.4245C5.26435 15.8762 5.3728 16.5 5.82445 16.8179L9.58976 19.4678L7.5359 25.7889C6.9372 27.6316 9.04616 29.1638 10.6136 28.025L16 24.1115L21.3864 28.025C22.9539 29.1638 25.0628 27.6316 24.4641 25.7889L22.4103 19.4678L26.1755 16.8179C26.6272 16.5 26.7356 15.8762 26.4178 15.4245C26.0999 14.9729 25.4761 14.8644 25.0245 15.1823L21.2592 17.8323C20.5415 18.3373 20.237 19.2512 20.5082 20.0858L22.562 26.407L17.1756 22.4935C16.4746 21.9842 15.5254 21.9842 14.8244 22.4935L9.43802 26.407L11.4919 20.0859C11.7631 19.2512 11.4585 18.3373 10.7408 17.8323L6.97552 15.1823Z" fill="#1F1F22"/>
</svg>
