<svg width="20" height="20" viewBox="0 0 20 20" fill="none" xmlns="http://www.w3.org/2000/svg">
<path d="M6.5 0C7.05228 0 7.5 0.447715 7.5 1C7.5 1.55228 7.05228 2 6.5 2H4C3.44772 2 3 2.44772 3 3V17C3 17.5523 3.44772 18 4 18H14C14.5523 18 15 17.5523 15 17V15C15 14.4477 15.4477 14 16 14C16.5523 14 17 14.4477 17 15V17C17 18.6569 15.6569 20 14 20H4C2.34315 20 1 18.6569 1 17V3C1 1.34315 2.34315 8.05319e-09 4 0H6.5Z" fill="#1F1F22"/>
<path d="M12 14C12.5523 14 13 14.4477 13 15C13 15.5523 12.5523 16 12 16H6C5.44772 16 5 15.5523 5 15C5 14.4477 5.44772 14 6 14H12Z" fill="#1F1F22"/>
<path d="M7 10C7.55228 10 8 10.4477 8 11C8 11.5523 7.55228 12 7 12H6C5.44772 12 5 11.5523 5 11C5 10.4477 5.44772 10 6 10H7Z" fill="#1F1F22"/>
<path d="M14 7C14.5523 7 15 7.44772 15 8C15 8.55229 14.5523 9 14 9C13.4477 9 13 8.55229 13 8C13 7.44772 13.4477 7 14 7Z" fill="#1F1F22"/>
<path d="M14 3C14.5523 3 15 3.44772 15 4V5C15 5.55228 14.5523 6 14 6C13.4477 6 13 5.55228 13 5V4C13 3.44772 13.4477 3 14 3Z" fill="#1F1F22"/>
<path fill-rule="evenodd" clip-rule="evenodd" d="M14 0C17.3137 0 20 2.68629 20 6C20 9.31371 17.3137 12 14 12C10.6863 12 8 9.31371 8 6C8 2.68629 10.6863 0 14 0ZM14 2C11.7909 2 10 3.79086 10 6C10 8.20914 11.7909 10 14 10C16.2091 10 18 8.20914 18 6C18 3.79086 16.2091 2 14 2Z" fill="#1F1F22"/>
</svg>
