<svg width="20" height="20" viewBox="0 0 20 20" fill="none" xmlns="http://www.w3.org/2000/svg">
<path fill-rule="evenodd" clip-rule="evenodd" d="M10 7C11.933 7 13.5 8.567 13.5 10.5C13.5 12.433 11.933 14 10 14C8.067 14 6.5 12.433 6.5 10.5C6.5 8.567 8.067 7 10 7ZM10 9C9.17157 9 8.5 9.67157 8.5 10.5C8.5 11.3284 9.17157 12 10 12C10.8284 12 11.5 11.3284 11.5 10.5C11.5 9.67157 10.8284 9 10 9Z" fill="#1F1F22"/>
<path fill-rule="evenodd" clip-rule="evenodd" d="M16 0C17.6569 0 19 1.34315 19 3V15C19 16.6569 17.6569 18 16 18H15.5V19C15.5 19.5523 15.0523 20 14.5 20C13.9477 20 13.5 19.5523 13.5 19V18H6.5V19C6.5 19.5523 6.05228 20 5.5 20C4.94772 20 4.5 19.5523 4.5 19V18H4C2.34315 18 1 16.6569 1 15V3C1 1.34315 2.34315 0 4 0H16ZM4 2C3.44772 2 3 2.44772 3 3V15C3 15.5523 3.44772 16 4 16H16C16.5523 16 17 15.5523 17 15V3C17 2.44772 16.5523 2 16 2H4Z" fill="#1F1F22"/>
</svg>
