<svg width="20" height="20" viewBox="0 0 20 20" fill="none" xmlns="http://www.w3.org/2000/svg">
<path d="M18.0005 7.50049C18.5526 7.50075 19.0005 7.94837 19.0005 8.50049V13.0005C19.0003 14.657 17.657 16.0002 16.0005 16.0005H11.0005V18.0005H14.0005C14.5526 18.0008 15.0005 18.4484 15.0005 19.0005C15.0003 19.5524 14.5524 20.0002 14.0005 20.0005H6.00053C5.44841 20.0005 5.00079 19.5526 5.00053 19.0005C5.00053 18.4482 5.44824 18.0005 6.00053 18.0005H9.00053V16.0005H4.00053C2.34384 16.0005 1.00079 14.6571 1.00053 13.0005V8.50049C1.00053 7.94821 1.44824 7.50049 2.00053 7.50049C2.55259 7.50075 3.00053 7.94837 3.00053 8.50049V13.0005C3.00079 13.5526 3.44841 14.0005 4.00053 14.0005H16.0005C16.5524 14.0002 17.0003 13.5524 17.0005 13.0005V8.50049C17.0005 7.94821 17.4482 7.50049 18.0005 7.50049Z" fill="#1F1F22"/>
<path d="M2.03861 0.726077C2.1903 0.195171 2.74403 -0.112888 3.27494 0.0385767C3.8055 0.190501 4.11385 0.744181 3.96244 1.2749L2.96244 4.7749C2.81068 5.30542 2.25675 5.61345 1.72611 5.4624C1.19532 5.31075 0.887365 4.7569 1.03861 4.22608L2.03861 0.726077Z" fill="#1F1F22"/>
<path d="M10.0005 0.000490746C10.5526 0.00075312 11.0005 0.448368 11.0005 1.00049V4.50049C11.0003 5.05239 10.5524 5.50023 10.0005 5.50049C9.44841 5.50049 9.00079 5.05255 9.00053 4.50049V1.00049C9.00053 0.448206 9.44824 0.000490746 10.0005 0.000490746Z" fill="#1F1F22"/>
<path d="M16.7261 0.0385767C17.2569 -0.112671 17.8108 0.195278 17.9624 0.726077L18.9624 4.22608C19.1135 4.75671 18.8055 5.31064 18.2749 5.4624C17.7442 5.61381 17.1905 5.30546 17.0386 4.7749L16.0386 1.2749C15.8872 0.743988 16.1952 0.190264 16.7261 0.0385767Z" fill="#1F1F22"/>
<path d="M6.56205 0.00830325C7.10979 0.0770647 7.4987 0.576673 7.43022 1.12451L6.99272 4.62451C6.92404 5.17214 6.42418 5.56084 5.87651 5.49268C5.32862 5.42419 4.94008 4.92433 5.00834 4.37647L5.44584 0.876467C5.51434 0.328447 6.01403 -0.0601992 6.56205 0.00830325Z" fill="#1F1F22"/>
<path d="M13.439 0.00830325C13.9869 -0.0599486 14.4867 0.328587 14.5552 0.876467L14.9927 4.37647C15.0609 4.92414 14.6722 5.424 14.1246 5.49268C13.5767 5.56116 13.0771 5.17226 13.0083 4.62451L12.5708 1.12451C12.5023 0.576494 12.891 0.0768057 13.439 0.00830325Z" fill="#1F1F22"/>
</svg>
