<svg width="32" height="32" viewBox="0 0 32 32" fill="none" xmlns="http://www.w3.org/2000/svg">
<path d="M20.5651 16.8584C20.9193 16.435 21.5497 16.3786 21.9733 16.7324C23.8734 18.3205 24.9997 20.5233 24.9997 22.9844C24.9997 23.3076 25.0119 23.9711 24.8386 24.5518C24.7477 24.8557 24.5829 25.2234 24.2653 25.5195C23.9242 25.8373 23.4844 26.0009 22.9978 26.001H9.00166C8.51497 26.0008 8.07516 25.8375 7.73408 25.5195C7.41648 25.2234 7.25168 24.8558 7.16084 24.5518C6.98747 23.9711 6.99968 23.3076 6.9997 22.9844C6.9997 20.5235 8.12623 18.3205 10.0261 16.7324C10.4497 16.3786 11.0801 16.435 11.4343 16.8584C11.7884 17.2822 11.732 17.9134 11.3083 18.2676C9.81931 19.5123 8.9997 21.1711 8.9997 22.9844C8.9997 23.1742 8.99949 23.3575 9.01142 23.542C9.02349 23.728 9.04549 23.8745 9.07685 23.9795C9.07924 23.9873 9.08343 23.9943 9.08564 24.001H22.9138C22.916 23.9943 22.9202 23.9872 22.9226 23.9795C22.9539 23.8745 22.9759 23.728 22.988 23.542C22.9999 23.3575 22.9997 23.1742 22.9997 22.9844C22.9997 21.1709 22.1804 19.5124 20.6911 18.2676C20.2675 17.9135 20.2114 17.2822 20.5651 16.8584Z" fill="#1F1F22"/>
<path d="M15.9997 18C16.552 18 16.9997 18.4477 16.9997 19V22C16.9997 22.5523 16.552 23 15.9997 23C15.4476 22.9998 14.9997 22.5522 14.9997 22V19C14.9997 18.4478 15.4476 18.0002 15.9997 18Z" fill="#1F1F22"/>
<path fill-rule="evenodd" clip-rule="evenodd" d="M15.9997 6C18.7611 6 20.9997 8.23858 20.9997 11C20.9997 13.7614 18.7611 16 15.9997 16C13.2385 15.9998 10.9997 13.7613 10.9997 11C10.9997 8.23871 13.2385 6.00021 15.9997 6ZM15.9997 8C14.343 8.00021 12.9997 9.34327 12.9997 11C12.9997 12.6567 14.343 13.9998 15.9997 14C17.6566 14 18.9997 12.6569 18.9997 11C18.9997 9.34315 17.6566 8 15.9997 8Z" fill="#1F1F22"/>
</svg>
