<svg width="20" height="20" viewBox="0 0 20 20" fill="none" xmlns="http://www.w3.org/2000/svg">
<path d="M10.1247 12.9014C10.7376 10.2081 13.4397 8.51622 16.1598 9.12305C16.7036 9.24457 17.045 9.77984 16.9225 10.3184C16.8 10.857 16.2595 11.1956 15.7155 11.0742C14.0834 10.7101 12.4621 11.7248 12.0944 13.3408C11.7268 14.9566 12.7517 16.5615 14.3835 16.9258C16.0156 17.2899 17.6368 16.2752 18.0046 14.6592C18.1271 14.1206 18.6677 13.7821 19.2116 13.9033C19.7556 14.0247 20.0977 14.56 19.9753 15.0986C19.3624 17.7919 16.6602 19.4837 13.9401 18.877C11.22 18.2701 9.51185 15.5947 10.1247 12.9014Z" fill="#1F1F22"/>
<path d="M4.73113 9.56348C5.4317 8.98048 6.27733 9.10398 6.85808 9.50879L6.97038 9.59277L6.97234 9.59473C7.3392 9.89354 7.81112 10.1537 8.33855 10.3438C8.8581 10.5309 9.12721 11.1045 8.94011 11.624C8.75277 12.1433 8.18026 12.4127 7.66081 12.2256C7.00768 11.9903 6.38112 11.6605 5.84245 11.248C4.64989 12.3169 3.9998 13.7014 3.99968 15.207C3.99968 15.3768 3.99912 15.5364 4.00945 15.6963C4.0176 15.8221 4.03419 15.9227 4.05144 16H7.99968C8.55188 16 8.99954 16.4478 8.99968 17C8.99945 17.5521 8.55182 18 7.99968 18H3.89031C3.43187 17.9998 3.01351 17.8453 2.68816 17.542C2.38632 17.2604 2.23204 16.9129 2.14812 16.6318C1.9885 16.0968 1.99968 15.4893 1.99968 15.207C1.99981 12.9837 3.0177 10.996 4.72917 9.56543L4.73113 9.56348Z" fill="#1F1F22"/>
<path d="M17.4323 11.2324C17.8607 10.8789 18.4981 10.9362 18.8552 11.3604C19.212 11.7845 19.1536 12.4151 18.7253 12.7686L15.696 15.2676C15.2948 15.5986 14.7049 15.5727 14.3356 15.207L13.3259 14.207C12.9317 13.8166 12.9316 13.1834 13.3259 12.793C13.7201 12.4027 14.3593 12.4029 14.7536 12.793L15.112 13.1475L17.4323 11.2324Z" fill="#1F1F22"/>
<path fill-rule="evenodd" clip-rule="evenodd" d="M10.111 0C12.5963 0 14.611 2.01472 14.611 4.5C14.611 6.98528 12.5963 9 10.111 9C7.6258 8.99991 5.61101 6.98522 5.61101 4.5C5.61101 2.01478 7.6258 9.16109e-05 10.111 0ZM10.111 2C8.73037 2.00009 7.61101 3.11934 7.61101 4.5C7.61101 5.88066 8.73037 6.99991 10.111 7C11.4917 7 12.611 5.88071 12.611 4.5C12.611 3.11929 11.4917 2 10.111 2Z" fill="#1F1F22"/>
</svg>
