<svg width="32" height="32" viewBox="0 0 32 32" fill="none" xmlns="http://www.w3.org/2000/svg">
<path d="M17 5C17.5523 5 18 5.44772 18 6C18 6.55228 17.5523 7 17 7H10C9.44772 7 9 7.44772 9 8V25C9 25.5523 9.44772 26 10 26H22C22.5523 26 23 25.5523 23 25V21C23 20.4477 23.4477 20 24 20C24.5523 20 25 20.4477 25 21V25C25 26.6569 23.6569 28 22 28H10C8.34315 28 7 26.6569 7 25V8C7 6.34315 8.34315 5 10 5H17Z" fill="#1F1F22"/>
<path d="M20 21C20.5523 21 21 21.4477 21 22C21 22.5523 20.5523 23 20 23H12C11.4477 23 11 22.5523 11 22C11 21.4477 11.4477 21 12 21H20Z" fill="#1F1F22"/>
<path d="M15 17C15.5523 17 16 17.4477 16 18C16 18.5523 15.5523 19 15 19H12C11.4477 19 11 18.5523 11 18C11 17.4477 11.4477 17 12 17H15Z" fill="#1F1F22"/>
<path fill-rule="evenodd" clip-rule="evenodd" d="M24.5 5C26.433 5 28 6.567 28 8.5C28 10.433 26.433 12 24.5 12H23V13H23.9883C24.5406 13 24.9883 13.4477 24.9883 14C24.9883 14.5523 24.5406 15 23.9883 15H23V16C23 16.5523 22.5523 17 22 17C21.4477 17 21 16.5523 21 16V15H20C19.4477 15 19 14.5523 19 14C19 13.4477 19.4477 13 20 13H21V12H20C19.4477 12 19 11.5523 19 11C19 10.4477 19.4477 10 20 10H21V6L21.0049 5.89746C21.0562 5.39333 21.4823 5 22 5H24.5ZM23 10H24.5C25.3284 10 26 9.32843 26 8.5C26 7.67157 25.3284 7 24.5 7H23V10Z" fill="#1F1F22"/>
<path d="M15 13C15.5523 13 16 13.4477 16 14C16 14.5523 15.5523 15 15 15H12C11.4477 15 11 14.5523 11 14C11 13.4477 11.4477 13 12 13H15Z" fill="#1F1F22"/>
</svg>
