<svg width="20" height="20" viewBox="0 0 20 20" fill="none" xmlns="http://www.w3.org/2000/svg">
<path d="M3.25586 7.46777C3.5496 7.00018 4.16711 6.85967 4.63477 7.15332C5.10247 7.44705 5.24392 8.06453 4.9502 8.53223C4.3498 9.48831 4.00005 10.6265 4 11.8525C4 15.2673 6.70581 18 10 18C13.2942 18 16 15.2673 16 11.8525C16 10.6265 15.6501 9.48827 15.0498 8.53223C14.7563 8.06453 14.8976 7.44698 15.3652 7.15332C15.833 6.85963 16.4504 7.00103 16.7441 7.46875C17.5398 8.73595 18 10.2416 18 11.8525C18 16.3324 14.4378 20 10 20C5.5622 20 2 16.3324 2 11.8525C2.00005 10.2413 2.45995 8.7351 3.25586 7.46777Z" fill="#1F1F22"/>
<path fill-rule="evenodd" clip-rule="evenodd" d="M10 9C11.6569 9 13 10.3431 13 12C13 13.6569 11.6569 15 10 15C8.34315 15 7 13.6569 7 12C7 10.3431 8.34315 9 10 9ZM10 11C9.44772 11 9 11.4477 9 12C9 12.5523 9.44772 13 10 13C10.5523 13 11 12.5523 11 12C11 11.4477 10.5523 11 10 11Z" fill="#1F1F22"/>
<path d="M15 4C15.5523 4 16 4.44772 16 5C16 5.55228 15.5523 6 15 6H5C4.44772 6 4 5.55228 4 5C4 4.44772 4.44772 4 5 4H15Z" fill="#1F1F22"/>
<path d="M12 0C12.5523 0 13 0.447715 13 1C13 1.85897 12.3296 2.36745 11.8613 2.60156C11.3333 2.86556 10.6738 3 10 3C9.32617 3 8.6667 2.86556 8.13867 2.60156C7.67044 2.36745 7 1.85897 7 1C7 0.447715 7.44772 0 8 0C8.47711 0 8.87579 0.33422 8.97559 0.78125C8.99092 0.790491 9.01042 0.801107 9.0332 0.8125C9.22903 0.910387 9.56936 1 10 1C10.4306 1 10.771 0.910387 10.9668 0.8125C10.9896 0.801107 11.0091 0.790491 11.0244 0.78125C11.1242 0.33422 11.5229 0 12 0Z" fill="#1F1F22"/>
</svg>
