<svg width="20" height="20" viewBox="0 0 20 20" fill="none" xmlns="http://www.w3.org/2000/svg">
<path d="M7 11C8.10457 11 9 11.8954 9 13C9 14.1046 8.10457 15 7 15C6.30967 15 5.70122 14.6501 5.3418 14.1182C5.31597 14.0799 5.29272 14.04 5.26953 14H2V16C2 16.5523 2.44772 17 3 17H17C17.5523 17 18 16.5523 18 16V14C18 13.4477 18.4477 13 19 13C19.5523 13 20 13.4477 20 14V16C20 17.6569 18.6569 19 17 19H3C1.34315 19 1.61064e-08 17.6569 0 16V13C0 12.4477 0.447715 12 1 12H5.26953C5.29272 11.96 5.31597 11.9201 5.3418 11.8818C5.70122 11.3499 6.30967 11 7 11Z" fill="#1F1F22"/>
<path fill-rule="evenodd" clip-rule="evenodd" d="M11.5 0C12.8807 0 14 1.11929 14 2.5V4H17C18.6569 4 20 5.34315 20 7V10C20 10.5523 19.5523 11 19 11H14.7305C14.3845 11.5973 13.7399 12 13 12C11.8954 12 11 11.1046 11 10C11 8.89543 11.8954 8 13 8C13.7399 8 14.3845 8.40267 14.7305 9H18V7C18 6.44772 17.5523 6 17 6H3C2.44772 6 2 6.44772 2 7V9C2 9.55229 1.55228 10 1 10C0.447715 10 0 9.55229 0 9V7C0 5.34315 1.34315 4 3 4H6V2.5C6 1.11929 7.11929 8.05319e-09 8.5 0H11.5ZM8.5 2C8.22386 2 8 2.22386 8 2.5V4H12V2.5C12 2.22386 11.7761 2 11.5 2H8.5Z" fill="#1F1F22"/>
</svg>
