<svg width="32" height="32" viewBox="0 0 32 32" fill="none" xmlns="http://www.w3.org/2000/svg">
<path d="M18.3747 17.2188C18.8059 16.8738 19.4359 16.9438 19.781 17.375L23.4811 22H26.9997C27.552 22 27.9997 22.4477 27.9997 23C27.9997 23.5523 27.552 24 26.9997 24H23.4811L19.781 28.625C19.4359 29.0562 18.8059 29.1262 18.3747 28.7812C17.9435 28.4362 17.8735 27.8062 18.2185 27.375L20.9186 24H16.9997C16.7346 23.9999 16.4802 23.8945 16.2927 23.707L14.2927 21.707C13.9023 21.3165 13.9023 20.6835 14.2927 20.293C14.6832 19.9025 15.3162 19.9025 15.7067 20.293L17.4138 22H20.9186L18.2185 18.625C17.8735 18.1938 17.9435 17.5638 18.3747 17.2188Z" fill="#1F1F22"/>
<path d="M7.02705 14.7314C7.7624 14.1192 8.65124 14.2446 9.26826 14.6748L9.38838 14.7656L9.39033 14.7666C10.3037 15.5105 11.7139 15.9999 12.9997 16C13.5519 16 13.9996 16.4478 13.9997 17C13.9996 17.5522 13.5519 18 12.9997 18C11.3138 17.9999 9.48337 17.3904 8.19209 16.3672C6.77701 17.6001 5.99983 19.2181 5.9997 20.9834C5.9997 21.1734 5.99948 21.3573 6.01142 21.542C6.02349 21.728 6.04549 21.8745 6.07685 21.9795C6.07909 21.9869 6.08256 21.9936 6.08467 22H11.5C12.0522 22 12.4999 22.4478 12.5 23C12.4999 23.5522 12.0522 24 11.5 24H6.00166C5.51485 23.9998 5.0752 23.8367 4.73408 23.5186C4.41662 23.2224 4.25166 22.8557 4.16084 22.5518C3.98737 21.9708 3.9997 21.3064 3.9997 20.9834C3.99983 18.5226 5.12628 16.3204 7.02607 14.7324L7.02705 14.7314Z" fill="#1F1F22"/>
<path fill-rule="evenodd" clip-rule="evenodd" d="M12.9997 4C15.7611 4 17.9997 6.23858 17.9997 9C17.9997 11.7614 15.7611 14 12.9997 14C10.2384 13.9999 7.9997 11.7614 7.9997 9C7.9997 6.23864 10.2384 4.0001 12.9997 4ZM12.9997 6C11.3429 6.0001 9.9997 7.34321 9.9997 9C9.9997 10.6568 11.3429 11.9999 12.9997 12C14.6566 12 15.9997 10.6569 15.9997 9C15.9997 7.34315 14.6566 6 12.9997 6Z" fill="#1F1F22"/>
</svg>
