<svg width="20" height="20" viewBox="0 0 20 20" fill="none" xmlns="http://www.w3.org/2000/svg">
<path d="M17.4997 16C18.3281 16 18.9997 16.6716 18.9997 17.5C18.9997 18.3284 18.3281 19 17.4997 19C16.6713 18.9999 15.9997 18.3284 15.9997 17.5C15.9997 16.6716 16.6713 16.0001 17.4997 16Z" fill="#1F1F22"/>
<path d="M16.7926 11.793C17.1832 11.4025 17.8162 11.4025 18.2067 11.793C18.5972 12.1835 18.5972 12.8165 18.2067 13.207L13.2067 18.207C12.8162 18.5975 12.1832 18.5975 11.7926 18.207C11.4022 17.8165 11.4022 17.1835 11.7926 16.793L16.7926 11.793Z" fill="#1F1F22"/>
<path d="M3.73113 9.56348C4.4317 8.98048 5.27733 9.10398 5.85808 9.50879L5.97038 9.59277L5.97234 9.59473C6.63746 10.1365 7.62343 10.5329 8.60613 10.6387C9.15503 10.6977 9.55247 11.1904 9.49382 11.7393C9.43481 12.2883 8.9422 12.6858 8.39324 12.627C7.1302 12.4911 5.82794 12.0037 4.84148 11.248C3.64925 12.3168 2.9998 13.7016 2.99968 15.207C2.99968 15.3768 2.99912 15.5364 3.00945 15.6963C3.0176 15.8221 3.03419 15.9227 3.05144 16H8.49968C9.05188 16 9.49956 16.4478 9.49968 17C9.49955 17.5522 9.05188 18 8.49968 18H2.89031C2.43187 17.9998 2.01351 17.8453 1.68816 17.542C1.38632 17.2604 1.23204 16.9129 1.14812 16.6318C0.988499 16.0968 0.999681 15.4893 0.999681 15.207C0.999807 12.9837 2.0177 10.996 3.72917 9.56543L3.73113 9.56348Z" fill="#1F1F22"/>
<path d="M12.4997 11C13.3281 11 13.9997 11.6716 13.9997 12.5C13.9997 13.3284 13.3281 14 12.4997 14C11.6713 13.9999 10.9997 13.3284 10.9997 12.5C10.9997 11.6716 11.6713 11.0001 12.4997 11Z" fill="#1F1F22"/>
<path fill-rule="evenodd" clip-rule="evenodd" d="M9.11101 0C11.5963 0 13.611 2.01472 13.611 4.5C13.611 6.98528 11.5963 9 9.11101 9C6.6258 8.99991 4.61101 6.98522 4.61101 4.5C4.61101 2.01478 6.6258 9.16109e-05 9.11101 0ZM9.11101 2C7.73037 2.00009 6.61101 3.11934 6.61101 4.5C6.61101 5.88066 7.73037 6.99991 9.11101 7C10.4917 7 11.611 5.88071 11.611 4.5C11.611 3.11929 10.4917 2 9.11101 2Z" fill="#1F1F22"/>
</svg>
