<svg width="32" height="32" viewBox="0 0 32 32" fill="none" xmlns="http://www.w3.org/2000/svg">
<path d="M18.793 11.2929C19.1835 10.9024 19.8165 10.9024 20.207 11.2929C20.5976 11.6835 20.5976 12.3165 20.207 12.707L13.207 19.707C12.8165 20.0975 12.1835 20.0975 11.793 19.707C11.4025 19.3165 11.4025 18.6835 11.793 18.2929L18.793 11.2929Z" fill="#1F1F22"/>
<path d="M19 17C19.8284 17 20.5 17.6715 20.5 18.5C20.5 19.3284 19.8284 20 19 20C18.1716 20 17.5 19.3284 17.5 18.5C17.5 17.6715 18.1716 17 19 17Z" fill="#1F1F22"/>
<path d="M13 11C13.8284 11 14.5 11.6715 14.5 12.5C14.5 13.3284 13.8284 14 13 14C12.1716 14 11.5 13.3284 11.5 12.5C11.5 11.6715 12.1716 11 13 11Z" fill="#1F1F22"/>
<path fill-rule="evenodd" clip-rule="evenodd" d="M15.71 4.04294C15.899 3.98569 16.101 3.98569 16.29 4.04294L26.29 7.07224C26.7116 7.20005 27 7.58873 27 8.02927V13.582C27 21.1348 22.117 25.7729 16.4824 28.8759C16.1821 29.0413 15.8179 29.0413 15.5176 28.8759C9.88238 25.7725 5.00002 21.1194 5 13.582V8.02927C5 7.58873 5.28839 7.20005 5.70996 7.07224L15.71 4.04294ZM7 8.77048V13.582C7.00002 19.8542 10.8729 23.9179 16 26.8525C21.1276 23.9184 25 19.8682 25 13.582V8.77048L16 6.04392L7 8.77048Z" fill="#1F1F22"/>
</svg>
