<svg width="32" height="32" viewBox="0 0 32 32" fill="none" xmlns="http://www.w3.org/2000/svg">
<path d="M14.9997 23C15.552 23 15.9997 23.4477 15.9997 24V27L15.9948 27.1025C15.9435 27.6067 15.5174 28 14.9997 28C14.4821 27.9999 14.0559 27.6066 14.0046 27.1025L13.9997 27V24C13.9997 23.4478 14.4475 23.0001 14.9997 23Z" fill="#1F1F22"/>
<path d="M19.9997 21C20.552 21 20.9997 21.4477 20.9997 22V27C20.9997 27.5523 20.552 28 19.9997 28C19.4475 27.9999 18.9997 27.5522 18.9997 27V22C18.9997 21.4478 19.4475 21.0001 19.9997 21Z" fill="#1F1F22"/>
<path d="M24.9997 19C25.552 19 25.9997 19.4477 25.9997 20V27C25.9997 27.5523 25.552 28 24.9997 28C24.4475 27.9999 23.9997 27.5522 23.9997 27V20C23.9997 19.4478 24.4475 19.0001 24.9997 19Z" fill="#1F1F22"/>
<path d="M16.7311 14.6748C17.3482 14.2445 18.237 14.1192 18.9724 14.7314L18.9733 14.7324C19.2379 14.9535 19.4883 15.1872 19.7224 15.4316C19.76 15.471 19.793 15.5132 19.8229 15.5566C20.2147 15.9796 20.5606 16.4344 20.8542 16.918C21.1407 17.3901 20.9904 18.0055 20.5183 18.292C20.0463 18.5779 19.4317 18.4277 19.1452 17.9561C18.8429 17.4579 18.4623 16.9899 18.0075 16.5635L17.8073 16.3838C17.0017 17.022 15.9869 17.4993 14.9274 17.7676C14.8989 17.7748 14.8701 17.7811 14.8415 17.7881C14.7681 17.8059 14.6946 17.8231 14.6208 17.8389C14.537 17.8568 14.4529 17.8724 14.3688 17.8877C14.3447 17.8921 14.3207 17.8972 14.2966 17.9014C14.227 17.9134 14.1572 17.9234 14.0876 17.9336C14.0468 17.9395 14.0063 17.9469 13.9655 17.9521C13.9076 17.9597 13.8495 17.9645 13.7917 17.9707C13.7421 17.976 13.6928 17.983 13.6433 17.9873C13.6006 17.9911 13.5579 17.9931 13.5153 17.9961C13.3424 18.0083 13.1703 18.0166 12.9997 18.0166C12.9308 18.0166 12.8635 18.0094 12.7985 17.9961C12.7955 17.9955 12.7927 17.9938 12.7897 17.9932C11.1633 17.945 9.42992 17.3481 8.19209 16.3672C6.77701 17.6001 5.99983 19.2181 5.9997 20.9834C5.9997 21.1734 5.99948 21.3573 6.01142 21.542C6.02349 21.728 6.04549 21.8745 6.07685 21.9795C6.07909 21.9869 6.08256 21.9936 6.08467 22H10.4997C11.0519 22 11.4996 22.4478 11.4997 23C11.4996 23.5522 11.0519 24 10.4997 24H6.00166C5.51485 23.9998 5.0752 23.8367 4.73408 23.5186C4.41662 23.2224 4.25166 22.8557 4.16084 22.5518C3.98737 21.9708 3.9997 21.3064 3.9997 20.9834C3.99983 18.5226 5.12628 16.3204 7.02607 14.7324L7.02705 14.7314C7.7624 14.1192 8.65124 14.2446 9.26826 14.6748L9.38838 14.7656L9.39033 14.7666C10.3037 15.5105 11.7139 15.9999 12.9997 16C14.2855 16 15.6956 15.5104 16.6091 14.7666L16.611 14.7656L16.7311 14.6748Z" fill="#1F1F22"/>
<path fill-rule="evenodd" clip-rule="evenodd" d="M12.9997 4C15.7611 4 17.9997 6.23858 17.9997 9C17.9997 11.7614 15.7611 14 12.9997 14C10.2384 13.9999 7.9997 11.7614 7.9997 9C7.9997 6.23864 10.2384 4.0001 12.9997 4ZM12.9997 6C11.3429 6.0001 9.9997 7.34321 9.9997 9C9.9997 10.6568 11.3429 11.9999 12.9997 12C14.6566 12 15.9997 10.6569 15.9997 9C15.9997 7.34315 14.6566 6 12.9997 6Z" fill="#1F1F22"/>
</svg>
