<svg width="20" height="20" viewBox="0 0 20 20" fill="none" xmlns="http://www.w3.org/2000/svg">
<path d="M18.0004 7.50049C18.5525 7.50075 19.0004 7.94837 19.0004 8.50049V13.0005C19.0001 14.657 17.6569 16.0002 16.0004 16.0005H11.0004V18.0005H14.0004C14.5525 18.0008 15.0004 18.4484 15.0004 19.0005C15.0001 19.5524 14.5523 20.0002 14.0004 20.0005H6.00041C5.44828 20.0005 5.00067 19.5526 5.00041 19.0005C5.00041 18.4482 5.44812 18.0005 6.00041 18.0005H9.00041V16.0005H4.00041C2.34371 16.0005 1.00067 14.6571 1.00041 13.0005V8.50049C1.00041 7.94821 1.44812 7.50049 2.00041 7.50049C2.55247 7.50075 3.00041 7.94837 3.00041 8.50049V13.0005C3.00067 13.5526 3.44828 14.0005 4.00041 14.0005H16.0004C16.5523 14.0002 17.0001 13.5524 17.0004 13.0005V8.50049C17.0004 7.94821 17.4481 7.50049 18.0004 7.50049Z" fill="#1F1F22"/>
<path d="M2.03849 0.726077C2.19018 0.195171 2.7439 -0.112888 3.27482 0.0385767C3.80537 0.190501 4.11373 0.744181 3.96232 1.2749L2.96232 4.7749C2.81056 5.30542 2.25663 5.61345 1.72599 5.4624C1.19519 5.31075 0.887243 4.7569 1.03849 4.22608L2.03849 0.726077Z" fill="#1F1F22"/>
<path d="M10.0004 0.000490746C10.5525 0.00075312 11.0004 0.448368 11.0004 1.00049V4.50049C11.0001 5.05239 10.5523 5.50023 10.0004 5.50049C9.44828 5.50049 9.00067 5.05255 9.00041 4.50049V1.00049C9.00041 0.448206 9.44812 0.000490746 10.0004 0.000490746Z" fill="#1F1F22"/>
<path d="M16.726 0.0385767C17.2568 -0.112671 17.8107 0.195278 17.9623 0.726077L18.9623 4.22608C19.1134 4.75671 18.8053 5.31064 18.2748 5.4624C17.7441 5.61381 17.1904 5.30546 17.0385 4.7749L16.0385 1.2749C15.887 0.743988 16.1951 0.190264 16.726 0.0385767Z" fill="#1F1F22"/>
<path d="M6.56193 0.00830325C7.10967 0.0770647 7.49857 0.576673 7.43009 1.12451L6.99259 4.62451C6.92392 5.17214 6.42406 5.56084 5.87638 5.49268C5.3285 5.42419 4.93996 4.92433 5.00822 4.37647L5.44572 0.876467C5.51422 0.328447 6.01391 -0.0601992 6.56193 0.00830325Z" fill="#1F1F22"/>
<path d="M13.4389 0.00830325C13.9867 -0.0599486 14.4866 0.328587 14.5551 0.876467L14.9926 4.37647C15.0608 4.92414 14.6721 5.424 14.1244 5.49268C13.5766 5.56116 13.077 5.17226 13.0082 4.62451L12.5707 1.12451C12.5022 0.576494 12.8909 0.0768057 13.4389 0.00830325Z" fill="#1F1F22"/>
</svg>
