<svg width="32" height="32" viewBox="0 0 32 32" fill="none" xmlns="http://www.w3.org/2000/svg">
<circle cx="16" cy="16" r="16" fill="#B2B8BF"/>
<path fill-rule="evenodd" clip-rule="evenodd" d="M18 7C19.6569 7 21 8.34315 21 10V11H23C24.1046 11 25 11.8954 25 13V17C25 17.7398 24.5971 18.3835 24 18.7295V23C24 24.1046 23.1046 25 22 25H10C8.89543 25 8 24.1046 8 23V18.7295C7.4029 18.3835 7 17.7398 7 17V13C7 11.8954 7.89543 11 9 11H11V10C11 8.34315 12.3431 7 14 7H18ZM14.5 18C13.9477 18 13.5 18.4477 13.5 19C13.5 19.5523 13.9477 20 14.5 20H17.5C18.0523 20 18.5 19.5523 18.5 19C18.5 18.4477 18.0523 18 17.5 18H14.5ZM14 9C13.4477 9 13 9.44772 13 10V11H19V10C19 9.44772 18.5523 9 18 9H14Z" fill="white"/>
</svg>
