<svg width="32" height="32" viewBox="0 0 32 32" fill="none" xmlns="http://www.w3.org/2000/svg">
<circle cx="16" cy="16" r="16" fill="#B2B8BF"/>
<path fill-rule="evenodd" clip-rule="evenodd" d="M15.75 6.05C15.56 6.01 15.37 6 15.17 6H11C10.78 6 10.56 6.02 10.36 6.06C10.18 6.1 10 6.16 9.83 6.23C9.65 6.3 9.49 6.39 9.34 6.49C9.17 6.6 9.02 6.73 8.87 6.87C8.73 7.02 8.6 7.17 8.49 7.34C8.39 7.49 8.3 7.66 8.23 7.83C8.16 8 8.1 8.18 8.06 8.36C8.02 8.57 8 8.78 8 9V23C8 23.21 8.02 23.42 8.06 23.63C8.1 23.81 8.16 23.99 8.23 24.16C8.3 24.33 8.39 24.5 8.49 24.65C8.6 24.82 8.73 24.97 8.87 25.12C9.02 25.26 9.17 25.39 9.34 25.5C9.49 25.6 9.65 25.69 9.83 25.76C10 25.83 10.18 25.89 10.36 25.93C10.56 25.97 10.78 26 11 26H21C21.21 26 21.43 25.97 21.63 25.93C21.81 25.89 21.99 25.83 22.16 25.76C22.34 25.69 22.5 25.6 22.65 25.5C22.82 25.39 22.97 25.26 23.12 25.12C23.26 24.97 23.39 24.82 23.5 24.65C23.6 24.5 23.69 24.33 23.76 24.16C23.83 23.99 23.89 23.81 23.93 23.63C23.97 23.42 24 23.21 24 23V14.82C24 14.62 23.98 14.43 23.94 14.24C23.9 14.05 23.84 13.86 23.77 13.67C23.69 13.49 23.6 13.32 23.49 13.16C23.38 13 23.26 12.84 23.12 12.7L17.29 6.87C17.15 6.73 17 6.61 16.83 6.5C16.67 6.39 16.5 6.3 16.31 6.22C16.13 6.15 15.94 6.09 15.75 6.05ZM21.97 23.23C21.99 23.16 22 23.08 22 23V15H18C17.78 15 17.56 14.97 17.36 14.93C17.18 14.89 17 14.83 16.83 14.76C16.65 14.69 16.49 14.6 16.34 14.5C16.17 14.39 16.02 14.26 15.87 14.12C15.73 13.97 15.6 13.82 15.49 13.65C15.39 13.5 15.3 13.33 15.23 13.16C15.16 12.99 15.1 12.81 15.06 12.63C15.02 12.42 15 12.21 15 12V8H11C10.91 8 10.83 8 10.75 8.02C10.7 8.04 10.65 8.05 10.61 8.07C10.55 8.09 10.5 8.12 10.46 8.15C10.4 8.19 10.34 8.24 10.29 8.29C10.24 8.34 10.19 8.4 10.15 8.46C10.12 8.5 10.1 8.55 10.07 8.61C10.05 8.66 10.04 8.7 10.02 8.75C10 8.83 10 8.91 10 9V23C10 23.08 10 23.16 10.02 23.24C10.04 23.29 10.05 23.33 10.07 23.38C10.1 23.44 10.12 23.49 10.15 23.53C10.19 23.59 10.24 23.65 10.29 23.7C10.34 23.75 10.4 23.8 10.46 23.84C10.5 23.87 10.55 23.9 10.61 23.92C10.65 23.94 10.7 23.95 10.75 23.97C10.83 23.99 10.91 24 11 24H21C21.08 24 21.16 23.99 21.24 23.97C21.28 23.95 21.34 23.94 21.38 23.92C21.44 23.9 21.49 23.87 21.53 23.84C21.59 23.8 21.65 23.75 21.7 23.7C21.75 23.65 21.8 23.59 21.84 23.53C21.87 23.49 21.89 23.44 21.92 23.38C21.94 23.33 21.95 23.28 21.97 23.23ZM17 12V9.41L20.58 13H18C17.91 13 17.83 12.99 17.75 12.97C17.7 12.95 17.65 12.94 17.61 12.92C17.55 12.9 17.5 12.87 17.46 12.84C17.4 12.8 17.34 12.75 17.29 12.7C17.24 12.65 17.19 12.59 17.15 12.53C17.12 12.49 17.1 12.44 17.07 12.38C17.05 12.33 17.04 12.29 17.02 12.24C17 12.16 17 12.08 17 12ZM13 19C12.44 19 12 19.44 12 20C12 20.55 12.44 21 13 21C13.55 21 14 20.55 14 20C14 19.44 13.55 19 13 19ZM15 20C15 19.44 15.44 19 16 19C16.55 19 17 19.44 17 20C17 20.55 16.55 21 16 21C15.44 21 15 20.55 15 20ZM19 19C18.44 19 18 19.44 18 20C18 20.55 18.44 21 19 21C19.55 21 20 20.55 20 20C20 19.44 19.55 19 19 19Z" fill="white"/>
</svg>
