<svg width="32" height="32" viewBox="0 0 32 32" fill="none" xmlns="http://www.w3.org/2000/svg">
<circle cx="16" cy="16" r="16" fill="#B2B8BF"/>
<path d="M12 21C12 20.4477 12.4477 20 13 20H19C19.5523 20 20 20.4477 20 21C20 21.5523 19.5523 22 19 22H13C12.4477 22 12 21.5523 12 21Z" fill="#1F1F22"/>
<path d="M13 16C12.4477 16 12 16.4477 12 17C12 17.5523 12.4477 18 13 18H15C15.5523 18 16 17.5523 16 17C16 16.4477 15.5523 16 15 16H13Z" fill="#1F1F22"/>
<path fill-rule="evenodd" clip-rule="evenodd" d="M11 6C9.34315 6 8 7.34315 8 9V23C8 24.6569 9.34315 26 11 26H21C22.6569 26 24 24.6569 24 23V14.8284C24 14.0328 23.6839 13.2697 23.1213 12.7071L17.2929 6.87868C16.7303 6.31607 15.9672 6 15.1716 6H11ZM10 9C10 8.44772 10.4477 8 11 8H15V12C15 13.6569 16.3431 15 18 15H22V23C22 23.5523 21.5523 24 21 24H11C10.4477 24 10 23.5523 10 23V9ZM20.5858 13L17 9.41421V12C17 12.5523 17.4477 13 18 13H20.5858Z" fill="#1F1F22"/>
</svg>
