<svg width="32" height="32" viewBox="0 0 32 32" fill="none" xmlns="http://www.w3.org/2000/svg">
<circle cx="16" cy="16" r="16" fill="#B2B8BF"/>
<path fill-rule="evenodd" clip-rule="evenodd" d="M22 8C22.29 8 22.57 8.03 22.85 8.09C23.09 8.14 23.32 8.21 23.55 8.31C23.78 8.41 24 8.52 24.2 8.66C24.42 8.8 24.63 8.97 24.82 9.17C25.02 9.36 25.19 9.57 25.33 9.79C25.47 9.99 25.58 10.21 25.68 10.44C25.78 10.66 25.85 10.9 25.9 11.14C25.96 11.42 26 11.7 26 12V21C26 21.29 25.96 21.57 25.9 21.85C25.85 22.09 25.78 22.33 25.68 22.55C25.58 22.78 25.47 23 25.33 23.2C25.19 23.42 25.02 23.63 24.82 23.82C24.63 24.02 24.42 24.19 24.2 24.33C24 24.47 23.78 24.58 23.55 24.68C23.32 24.78 23.09 24.85 22.85 24.9C22.57 24.96 22.29 25 22 25H10C9.7 25 9.42 24.96 9.14 24.9C8.9 24.85 8.67 24.78 8.44 24.68C8.21 24.58 7.99 24.47 7.79 24.33C7.57 24.19 7.36 24.02 7.17 23.82C6.97 23.63 6.8 23.42 6.66 23.2C6.52 23 6.41 22.78 6.31 22.55C6.21 22.33 6.14 22.09 6.09 21.85C6.03 21.57 6 21.29 6 21V12C6 11.7 6.03 11.42 6.09 11.14C6.14 10.9 6.21 10.66 6.31 10.44C6.41 10.21 6.52 9.99 6.66 9.79C6.8 9.57 6.97 9.36 7.17 9.17C7.36 8.97 7.57 8.8 7.79 8.66C7.99 8.52 8.21 8.41 8.44 8.31C8.67 8.21 8.9 8.14 9.14 8.09C9.42 8.03 9.7 8 10 8H22ZM22 10H10C9.84 10 9.68 10.01 9.53 10.05C9.43 10.07 9.32 10.11 9.22 10.15C9.11 10.2 9.01 10.25 8.91 10.32C8.79 10.39 8.68 10.48 8.58 10.58C8.48 10.68 8.39 10.79 8.32 10.91C8.25 11 8.2 11.11 8.15 11.22C8.11 11.32 8.07 11.43 8.05 11.53C8.01 11.68 8 11.84 8 12V21C8 21.15 8.01 21.31 8.05 21.46C8.07 21.56 8.11 21.67 8.15 21.77C8.2 21.88 8.25 21.99 8.32 22.08C8.39 22.2 8.48 22.31 8.58 22.41C8.68 22.51 8.79 22.6 8.91 22.67C9.01 22.74 9.11 22.79 9.22 22.84C9.32 22.88 9.43 22.92 9.53 22.94C9.68 22.98 9.84 23 10 23H22C22.15 23 22.31 22.98 22.46 22.94C22.56 22.92 22.67 22.88 22.77 22.84C22.88 22.79 22.98 22.74 23.08 22.67C23.2 22.6 23.31 22.51 23.41 22.41C23.51 22.31 23.6 22.2 23.67 22.08C23.74 21.99 23.79 21.88 23.84 21.77C23.88 21.67 23.92 21.56 23.94 21.46C23.98 21.31 24 21.15 24 21V12C24 11.84 23.98 11.68 23.94 11.53C23.92 11.43 23.88 11.32 23.84 11.22C23.79 11.11 23.74 11 23.67 10.91C23.6 10.79 23.51 10.68 23.41 10.58C23.31 10.48 23.2 10.39 23.08 10.32C22.99 10.25 22.88 10.2 22.77 10.15C22.67 10.11 22.56 10.07 22.46 10.05C22.31 10.01 22.15 10 22 10ZM11.5 12C10.67 12 10 12.67 10 13.5C10 14.32 10.67 15 11.5 15C12.32 15 13 14.32 13 13.5C13 12.67 12.32 12 11.5 12ZM14.2 19.4L16.79 15.93C16.87 15.83 16.96 15.74 17.05 15.66C17.14 15.59 17.24 15.53 17.34 15.48C17.44 15.43 17.54 15.39 17.65 15.37C17.76 15.34 17.88 15.33 18 15.33C18.11 15.33 18.23 15.34 18.34 15.37C18.45 15.39 18.55 15.43 18.65 15.48C18.75 15.53 18.85 15.59 18.94 15.66C19.03 15.74 19.12 15.83 19.2 15.93L21.8 19.4C22.13 19.84 22.04 20.46 21.6 20.8C21.15 21.13 20.53 21.04 20.2 20.59L18 17.66L15.8 20.59C15.46 21.04 14.84 21.13 14.39 20.8C13.95 20.46 13.86 19.84 14.2 19.4ZM13.83 17.55L11.83 20.55C11.52 21.01 10.91 21.14 10.44 20.83C9.97 20.52 9.85 19.91 10.16 19.44L12.16 16.44C12.47 15.98 13.08 15.85 13.55 16.16C14.02 16.47 14.14 17.08 13.83 17.55Z" fill="#1F1F22"/>
</svg>
