<svg width="32" height="32" viewBox="0 0 32 32" fill="none" xmlns="http://www.w3.org/2000/svg">
<circle cx="16" cy="16" r="16" fill="#B2B8BF"/>
<path fill-rule="evenodd" clip-rule="evenodd" d="M20.5576 15.3125C20.8748 15.0403 21.3135 15.0026 21.6641 15.1816C21.6787 15.1891 21.6927 15.1979 21.707 15.2061C21.7234 15.2155 21.7399 15.2249 21.7559 15.2354C21.7633 15.2402 21.771 15.2449 21.7783 15.25C21.7969 15.2629 21.8152 15.2767 21.833 15.291L21.8457 15.2998L22.1992 15.6064C23.9241 17.1821 24.9998 19.434 25 22V23C25 24.1046 24.1046 25 23 25H9C7.89543 25 7 24.1046 7 23V22C7.00019 19.2629 8.22409 16.8826 10.1543 15.2998C10.158 15.2968 10.1623 15.294 10.166 15.291C10.184 15.2765 10.2029 15.2631 10.2217 15.25C10.2288 15.2451 10.236 15.24 10.2432 15.2354C10.2593 15.2248 10.2764 15.2156 10.293 15.2061C10.307 15.198 10.3206 15.1889 10.335 15.1816C10.6567 15.0169 11.0529 15.0354 11.3613 15.25L11.4424 15.3125L11.6768 15.5049C12.8674 16.4414 14.3674 16.999 16 16.999C17.7416 16.999 19.3325 16.3645 20.5576 15.3125ZM16 18.5C15.4477 18.5 15 18.9477 15 19.5V22.5C15.0002 23.0521 15.4478 23.5 16 23.5C16.5522 23.5 16.9998 23.0521 17 22.5V19.5C17 18.9477 16.5523 18.5 16 18.5Z" fill="#1F1F22"/>
<path d="M16 5C18.7614 5 21 7.23858 21 10C21 12.7614 18.7614 15 16 15C13.2386 15 11 12.7614 11 10C11 7.23858 13.2386 5 16 5Z" fill="#1F1F22"/>
</svg>
