<svg width="20" height="20" viewBox="0 0 20 20" fill="none" xmlns="http://www.w3.org/2000/svg">
<path d="M0.999969 4.5C1.55225 4.5 1.99997 4.05228 1.99997 3.5V3C1.99997 2.44772 2.44768 2 2.99997 2H13C13.5523 2 14 2.44772 14 3V3.5C14 4.05228 14.4477 4.5 15 4.5C15.5523 4.5 16 4.05228 16 3.5V3C16 1.34315 14.6568 0 13 0H2.99997C1.34311 0 -3.14308e-05 1.34315 -3.14308e-05 3V3.5C-3.14308e-05 4.05228 0.447684 4.5 0.999969 4.5Z" fill="#B2B8BF"/>
<path d="M4.16781 6.44541C4.47416 5.98588 5.09503 5.8617 5.55456 6.16806C6.01409 6.47441 6.13827 7.09528 5.83191 7.55481L4.20182 9.99995L5.83213 12.4454C6.13848 12.9049 6.0143 13.5258 5.55478 13.8322C5.09525 14.1385 4.47438 14.0143 4.16802 13.5548L2.99997 11.8027L1.83191 13.5548C1.52556 14.0143 0.904691 14.1385 0.445162 13.8322C-0.0143666 13.5258 -0.138541 12.9049 0.167812 12.4454L1.79812 9.99995L0.168025 7.55481C-0.138328 7.09528 -0.0141541 6.47441 0.445375 6.16806C0.904903 5.8617 1.52577 5.98588 1.83213 6.44541L2.99997 8.19717L4.16781 6.44541Z" fill="#B2B8BF"/>
<path d="M16 6C16.5523 6 17 6.44772 17 7V12H19C19.5523 12 20 12.4477 20 13C20 13.5523 19.5523 14 19 14H16C15.4477 14 15 13.5523 15 13V7C15 6.44772 15.4477 6 16 6Z" fill="#B2B8BF"/>
<path d="M1.99997 16.5C1.99997 15.9477 1.55225 15.5 0.999969 15.5C0.447684 15.5 -3.14308e-05 15.9477 -3.14308e-05 16.5V17C-3.14308e-05 18.6569 1.34311 20 2.99997 20H13C14.6568 20 16 18.6569 16 17V16.5C16 15.9477 15.5523 15.5 15 15.5C14.4477 15.5 14 15.9477 14 16.5V17C14 17.5523 13.5523 18 13 18H2.99997C2.44768 18 1.99997 17.5523 1.99997 17V16.5Z" fill="#B2B8BF"/>
<path d="M8.76819 6.35987C8.49866 6.03643 8.05542 5.91645 7.65954 6.05978C7.26367 6.20311 6.99997 6.57903 6.99997 7.00005V13.0001C6.99997 13.5523 7.44768 14.0001 7.99997 14.0001C8.55225 14.0001 8.99997 13.5523 8.99997 13.0001V9.7621L9.73175 10.6402C9.92174 10.8682 10.2032 11.0001 10.5 11.0001C10.7967 11.0001 11.0782 10.8682 11.2682 10.6402L12 9.7621V13.0001C12 13.5523 12.4477 14.0001 13 14.0001C13.5523 14.0001 14 13.5523 14 13.0001V7.00005C14 6.57903 13.7363 6.20311 13.3404 6.05978C12.9445 5.91645 12.5013 6.03643 12.2317 6.35987L10.5 8.438L8.76819 6.35987Z" fill="#B2B8BF"/>
</svg>
