<svg width="64" height="64" viewBox="0 0 64 64" fill="none" xmlns="http://www.w3.org/2000/svg">
<path fill-rule="evenodd" clip-rule="evenodd" d="M35 20C31.853 20 29.0827 21.6144 27.4739 24.0632C27.2115 24.4625 26.7035 24.6205 26.261 24.4403C25.5645 24.1567 24.8018 24 24 24C20.6863 24 18 26.6863 18 30C18 30.3103 18.0235 30.6141 18.0685 30.9087C18.1092 31.1745 18.0411 31.4455 17.8796 31.6605C17.7181 31.8755 17.4768 32.0164 17.2102 32.0514C14.2701 32.4374 12 34.9544 12 38C12 41.3137 14.6863 44 18 44H23C23.5523 44 24 44.4477 24 45C24 45.5523 23.5523 46 23 46H18C13.5817 46 10 42.4183 10 38C10 34.2706 12.5512 31.1383 16.0039 30.2513C16.0013 30.1678 16 30.084 16 30C16 25.5817 19.5817 22 24 22C24.7829 22 25.5408 22.1128 26.2576 22.3233C28.2654 19.6972 31.4344 18 35 18C40.7381 18 45.45 22.3936 45.9552 28.0001C45.9701 28 45.985 28 46 28C50.9706 28 55 32.0294 55 37C55 41.9706 50.9706 46 46 46H42C41.4477 46 41 45.5523 41 45C41 44.4477 41.4477 44 42 44H46C49.866 44 53 40.866 53 37C53 33.134 49.866 30 46 30C45.7025 30 45.4102 30.0185 45.125 30.0545C44.8392 30.0906 44.5517 30.0016 44.3362 29.8104C44.1206 29.6192 43.9981 29.3443 43.9998 29.0563L44 29C44 24.0294 39.9706 20 35 20Z" fill="#B2B8BF"/>
<path d="M32.7071 31.2929C32.3166 30.9024 31.6834 30.9024 31.2929 31.2929L26.2929 36.2929C25.9024 36.6834 25.9024 37.3166 26.2929 37.7071C26.6834 38.0976 27.3166 38.0976 27.7071 37.7071L31 34.4142L31 45C31 45.5523 31.4477 46 32 46C32.5523 46 33 45.5523 33 45L33 34.4142L36.2929 37.7071C36.6834 38.0976 37.3166 38.0976 37.7071 37.7071C38.0976 37.3166 38.0976 36.6834 37.7071 36.2929L32.7071 31.2929Z" fill="#B2B8BF"/>
</svg>
