<svg width="16" height="16" viewBox="0 0 16 16" fill="none" xmlns="http://www.w3.org/2000/svg">
<path fill-rule="evenodd" clip-rule="evenodd" d="M8 15C4.13401 15 1 11.866 1 8C1 4.13401 4.13401 1 8 1C11.866 1 15 4.13401 15 8C15 9.85652 14.2625 11.637 12.9497 12.9497C11.637 14.2625 9.85652 15 8 15ZM7.37875 10.8787C7.34112 10.9203 7.30606 10.9642 7.27375 11.01C7.24063 11.0588 7.21415 11.1117 7.195 11.1675C7.16977 11.2171 7.15208 11.2702 7.1425 11.325C7.13821 11.3833 7.13821 11.4417 7.1425 11.5C7.13954 11.6148 7.16352 11.7287 7.2125 11.8325C7.29206 12.0523 7.46517 12.2254 7.685 12.305C7.89679 12.3986 8.13822 12.3986 8.35 12.305C8.56983 12.2254 8.74294 12.0523 8.8225 11.8325C8.86136 11.7261 8.87919 11.6132 8.875 11.5C8.87634 11.2674 8.78504 11.0439 8.62125 10.8787C8.45695 10.7131 8.23331 10.6199 8 10.6199C7.76669 10.6199 7.54305 10.7131 7.37875 10.8787ZM5.725 4.9375C6.19421 4.1248 7.06158 3.6244 8 3.625C9.2705 3.63486 10.3516 4.55321 10.5667 5.8054C10.7819 7.0576 10.0693 8.28413 8.875 8.7175V8.875C8.875 9.35825 8.48325 9.75 8 9.75C7.51675 9.75 7.125 9.35825 7.125 8.875V8C7.125 7.51675 7.51675 7.125 8 7.125C8.48325 7.125 8.875 6.73325 8.875 6.25C8.875 5.76675 8.48325 5.375 8 5.375C7.68615 5.37375 7.39567 5.5407 7.23875 5.8125C7.08977 6.09729 6.79665 6.27749 6.47527 6.28184C6.15389 6.28619 5.856 6.11399 5.69936 5.83334C5.54273 5.55268 5.55257 5.20874 5.725 4.9375Z" fill="#B2B8BF"/>
</svg>
