<svg xmlns="http://www.w3.org/2000/svg" width="20" height="20" fill="none" viewBox="0 0 20 20">
    <path fill="#B2B8BF" fill-rule="evenodd" d="M12.484 11.38l7.124-7.124c.39-.39.39-1.024 0-1.414l-2.55-2.55c-.39-.39-1.023-.39-1.413 0L8.52 7.417c-.154.155-.254.356-.283.572l-.402 2.95c-.042.31.063.622.284.843.22.22.532.326.842.284l2.95-.402c.217-.03.418-.13.572-.284zm3.868-8.966l1.134 1.135-6.178 6.178-1.313.178.179-1.313 6.178-6.178z" clip-rule="evenodd"/>
    <path fill="#B2B8BF" d="M2 6c0-1.657 1.343-3 3-3h5c.552 0 1-.448 1-1s-.448-1-1-1H5C2.239 1 0 3.238 0 6v5c0 2.051 1.234 3.812 3 4.584V18.9c0 .382.218.73.561.899.344.167.753.124 1.054-.11l4.729-3.69H15c2.761 0 5-2.238 5-5V8c0-.551-.448-1-1-1s-1 .449-1 1v3c0 1.658-1.343 3-3 3H9c-.223 0-.44.075-.615.212L5 16.851v-1.977c0-.456-.309-.855-.75-.969C2.954 13.572 2 12.396 2 11V6z"/>
</svg>
