<svg width="64" height="64" fill="none" viewBox="0 0 64 64" xmlns="http://www.w3.org/2000/svg">
    <path fill="#B2B8BF" d="M20.445 33.168c.46-.306 1.08-.182 1.387.277L24 36.697l2.168-3.252c.306-.46.927-.583 1.387-.277.46.306.583.927.277 1.387l-2.63 3.945 2.63 3.945c.306.46.182 1.08-.277 1.387-.46.306-1.08.182-1.387-.277L24 40.303l-2.168 3.252c-.306.46-.927.584-1.387.277-.46-.306-.584-.927-.277-1.387l2.63-3.945-2.63-3.945c-.306-.46-.182-1.08.277-1.387zM31 33c.552 0 1 .448 1 1v8h3c.552 0 1 .448 1 1s-.448 1-1 1h-4c-.552 0-1-.448-1-1v-9c0-.552.448-1 1-1z"/>
    <path fill="#B2B8BF" fill-rule="evenodd" d="M40 33c-.873 0-1.806.184-2.559.614-.772.441-1.441 1.21-1.441 2.315s.67 1.85 1.356 2.34c.652.465 1.486.823 2.195 1.127l.055.023c.78.334 1.419.613 1.875.94.439.313.519.532.519.712 0 .18-.08.377-.434.579-.372.212-.939.35-1.566.35-.603 0-1.032-.129-1.294-.24-.132-.057-.223-.11-.275-.144l-.046-.031c-.419-.345-1.04-.293-1.394.121-.356.416-.305 1.058.111 1.413.027.023.055.045.083.066.042.031.097.07.165.114.136.087.326.195.569.299.488.209 1.184.402 2.081.402.873 0 1.806-.184 2.559-.614.772-.441 1.441-1.21 1.441-2.315s-.67-1.85-1.356-2.34c-.652-.465-1.486-.823-2.195-1.127l-.055-.023c-.78-.334-1.419-.613-1.875-.94-.439-.313-.519-.532-.519-.712 0-.18.08-.377.434-.579.372-.212.939-.35 1.566-.35.603 0 1.032.129 1.294.24.132.057.223.11.275.144l.046.031c.419.345 1.04.293 1.394-.121.358-.418.303-1.06-.115-1.416l-.026-.022-.053-.04c-.042-.032-.097-.071-.165-.115-.136-.087-.326-.195-.569-.299C41.593 33.193 40.897 33 40 33zm-1.615 8.585c-.002-.002-.002-.002 0 0z" clip-rule="evenodd"/>
    <path fill="#B2B8BF" fill-rule="evenodd" d="M50.968 27.25c.021.08.032.163.032.25v20.864C51 50.914 48.95 53 46.4 53H17.6c-2.55 0-4.6-2.085-4.6-4.636V15.636C13 13.086 15.05 11 17.6 11H36c.291 0 .554.125.736.323l13.995 14.995c.236.252.322.604.237.932zM35 13H17.6c-1.427 0-2.6 1.17-2.6 2.636v32.728C15 49.829 16.174 51 17.6 51h28.8c1.427 0 2.6-1.17 2.6-2.636V28h-9c-2.761 0-5-2.238-5-5V13zm2 10v-8.463L47.699 26H40c-1.657 0-3-1.343-3-3z" clip-rule="evenodd"/>
</svg>
