<svg width="64" height="64" viewBox="0 0 64 64" fill="none" xmlns="http://www.w3.org/2000/svg">
<path d="M24 19C23.448 19 23 19.448 23 20C23 20.552 23.448 21 24 21H29C29.552 21 30 20.552 30 20C30 19.448 29.552 19 29 19H24ZM24 27C23.448 27 23 27.448 23 28C23 28.552 23.448 29 24 29H29C29.552 29 30 28.552 30 28C30 27.448 29.552 27 29 27H24ZM23 36C23 35.448 23.448 35 24 35H40C40.552 35 41 35.448 41 36C41 36.552 40.552 37 40 37H24C23.448 37 23 36.552 23 36ZM24 43C23.448 43 23 43.448 23 44C23 44.552 23.448 45 24 45H40C40.552 45 41 44.552 41 44C41 43.448 40.552 43 40 43H24ZM36 17C36 16.448 35.552 16 35 16C34.448 16 34 16.448 34 17V24C34 26.761 36.239 29 39 29H45C45.552 29 46 28.552 46 28C46 27.448 45.552 27 45 27H39C37.343 27 36 25.657 36 24V17Z" fill="#B2B8BF"/>
<path fill-rule="evenodd" clip-rule="evenodd" d="M13 15.636C13 13.086 15.05 11 17.6 11H35.13C35.962 11 36.757 11.345 37.324 11.953L50.194 25.741C50.712 26.297 51 27.029 51 27.788V48.364C51 50.914 48.95 53 46.4 53H17.6C15.05 53 13 50.915 13 48.364V15.636ZM17.6 13C16.173 13 15 14.17 15 15.636V48.364C15 49.829 16.174 51 17.6 51H46.4C47.827 51 49 49.83 49 48.364V27.788C49 27.535 48.904 27.291 48.731 27.106L35.861 13.318C35.673 13.115 35.408 13 35.131 13H17.6Z" fill="#B2B8BF"/>
</svg>
