<svg width="30" height="32" viewBox="0 0 30 32" fill="none" xmlns="http://www.w3.org/2000/svg">
<path fill-rule="evenodd" clip-rule="evenodd" d="M3.7 2.00003H17V8.00003C17 10.7615 19.2386 13 22 13H28V28.2728C28 29.2362 27.2294 30 26.3 30H3.7C2.77057 30 2 29.2362 2 28.2728V3.7273C2 2.76386 2.77057 2.00003 3.7 2.00003ZM29.7584 11.3482C29.7421 11.3292 29.725 11.3108 29.7071 11.2929L18.7071 0.292922C18.6859 0.27167 18.6638 0.251524 18.641 0.232502C18.4713 0.0906567 18.2619 0.011265 18.047 0.00111357C18.0287 0.000249499 18.0103 -0.000112916 17.992 3.05134e-05H3.7C1.64709 3.05134e-05 0 1.67829 0 3.7273V28.2728C0 30.3218 1.64709 32 3.7 32H26.3C28.3529 32 30 30.3218 30 28.2728V12.0079L29.7071 11.2929L29.999 11.9543C29.9889 11.7343 29.9062 11.5201 29.7584 11.3482ZM19 3.41424V8.00003C19 9.65688 20.3431 11 22 11H26.5858L19 3.41424ZM5 16C4.44772 16 4 16.4477 4 17V24C4 24.5523 4.44772 25 5 25H7.35294C8.61937 25 9.57162 24.3515 10.1681 23.4642C10.7446 22.6067 11 21.5249 11 20.5C11 19.4751 10.7446 18.3934 10.1681 17.5359C9.57162 16.6486 8.61937 16 7.35294 16H5ZM6 23V18H7.35294C7.85122 18 8.22249 18.2265 8.50834 18.6517C8.81419 19.1067 9 19.7749 9 20.5C9 21.2251 8.81419 21.8934 8.50834 22.3484C8.22249 22.7736 7.85122 23 7.35294 23H6ZM20 20.5C20 18.0613 21.8946 16 24.3332 16C24.8714 16 25.3883 16.1024 25.8653 16.2896C26.3794 16.4913 26.6326 17.0717 26.4309 17.5858C26.2291 18.0999 25.6488 18.3531 25.1347 18.1513C24.8854 18.0535 24.616 18 24.3332 18C23.0901 18 22 19.0727 22 20.5C22 21.9273 23.0901 23 24.3332 23C24.616 23 24.8854 22.9465 25.1347 22.8487C25.6488 22.647 26.2291 22.9002 26.4309 23.4143C26.6326 23.9284 26.3794 24.5087 25.8653 24.7105C25.3883 24.8977 24.8714 25 24.3332 25C21.8946 25 20 22.9387 20 20.5ZM13.5 20.5C13.5 18.9691 14.5345 18 15.5 18C16.4655 18 17.5 18.9691 17.5 20.5C17.5 22.0309 16.4655 23 15.5 23C14.5345 23 13.5 22.0309 13.5 20.5ZM15.5 16C13.1518 16 11.5 18.1649 11.5 20.5C11.5 22.8351 13.1518 25 15.5 25C17.8482 25 19.5 22.8351 19.5 20.5C19.5 18.1649 17.8482 16 15.5 16Z" fill="#B2B8BF"/>
</svg>
