<svg width="20" height="20" viewBox="0 0 20 20" fill="none" xmlns="http://www.w3.org/2000/svg">
<path fill-rule="evenodd" clip-rule="evenodd" d="M15.3661 2.86612C15.8543 2.37796 16.6457 2.37796 17.1339 2.86612C17.622 3.35427 17.622 4.14573 17.1339 4.63388L11.7678 10L17.1339 15.3661C17.622 15.8543 17.622 16.6457 17.1339 17.1339C16.6457 17.622 15.8543 17.622 15.3661 17.1339L10 11.7678L4.63388 17.1339C4.14573 17.622 3.35427 17.622 2.86612 17.1339C2.37796 16.6457 2.37796 15.8543 2.86612 15.3661L8.23223 10L2.86612 4.63388C2.37796 4.14573 2.37796 3.35427 2.86612 2.86612C3.35427 2.37796 4.14573 2.37796 4.63388 2.86612L10 8.23223L15.3661 2.86612Z" fill="#B2B8BF"/>
</svg>
