<svg width="16" height="16" fill="none" xmlns="http://www.w3.org/2000/svg"><path d="M4.8 12a.8.8 0 01.8-.8h4.8a.8.8 0 010 1.6H5.6a.8.8 0 01-.8-.8zM5.6 8a.8.8 0 100 1.6h1.6a.8.8 0 000-1.6H5.6z" fill="#B2B8BF"/><path fill-rule="evenodd" clip-rule="evenodd" d="M4 0a2.4 2.4 0 00-2.4 2.4v11.2A2.4 2.4 0 004 16h8a2.4 2.4 0 002.4-2.4V7.063a2.4 2.4 0 00-.703-1.697L9.034.703A2.4 2.4 0 007.337 0H4zm-.8 2.4a.8.8 0 01.8-.8h3.2v3.2a2.4 2.4 0 002.4 2.4h3.2v6.4a.8.8 0 01-.8.8H4a.8.8 0 01-.8-.8V2.4zm8.469 3.2L8.8 2.731V4.8a.8.8 0 00.8.8h2.069z" fill="#B2B8BF"/></svg>