<svg width="64" height="64" fill="none" viewBox="0 0 64 64" xmlns="http://www.w3.org/2000/svg">
    <path fill="#B2B8BF" d="M31 38.5c0-3.026 2.426-5.5 5.444-5.5.67 0 1.314.123 1.91.348.517.196.777.773.581 1.29-.195.516-.772.776-1.289.58-.373-.14-.777-.218-1.202-.218C34.554 35 33 36.555 33 38.5s1.554 3.5 3.444 3.5c.425 0 .83-.078 1.202-.219.517-.195 1.094.065 1.29.582.195.516-.066 1.093-.582 1.289-.596.225-1.24.348-1.91.348C33.426 44 31 41.526 31 38.5zM29 34c0-.404-.244-.77-.617-.924-.374-.155-.804-.07-1.09.217l-3 3c-.39.39-.39 1.024 0 1.414.39.39 1.024.39 1.414 0L27 36.414V43c0 .552.448 1 1 1s1-.448 1-1v-9z"/>
    <path fill="#B2B8BF" fill-rule="evenodd" d="M50.968 27.25c.021.08.032.163.032.25v20.864C51 50.914 48.95 53 46.4 53H17.6c-2.55 0-4.6-2.085-4.6-4.636V15.636C13 13.086 15.05 11 17.6 11H36c.291 0 .554.125.736.323l13.995 14.995c.236.252.322.604.237.932zM35 13H17.6c-1.427 0-2.6 1.17-2.6 2.636v32.728C15 49.829 16.174 51 17.6 51h28.8c1.427 0 2.6-1.17 2.6-2.636V28h-9c-2.761 0-5-2.238-5-5V13zm2 10v-8.463L47.699 26H40c-1.657 0-3-1.343-3-3z" clip-rule="evenodd"/>
</svg>
