<svg width="30" height="32" viewBox="0 0 30 32" fill="none" xmlns="http://www.w3.org/2000/svg">
<path fill-rule="evenodd" clip-rule="evenodd" d="M17 2.00003H3.7C2.77057 2.00003 2 2.76386 2 3.7273V28.2728C2 29.2362 2.77057 30 3.7 30H26.3C27.2294 30 28 29.2362 28 28.2728V13H22C19.2386 13 17 10.7615 17 8.00003V2.00003ZM29.7071 11.2929C29.725 11.3108 29.7421 11.3292 29.7584 11.3482C29.9062 11.5201 29.9889 11.7343 29.999 11.9543L29.7071 11.2929ZM18.7071 0.292922L29.7071 11.2929L30 12.0079V28.2728C30 30.3218 28.3529 32 26.3 32H3.7C1.64709 32 0 30.3218 0 28.2728V3.7273C0 1.67829 1.64709 3.05134e-05 3.7 3.05134e-05H17.992C18.0103 -0.000112916 18.0287 0.000249499 18.047 0.00111357C18.2619 0.011265 18.4713 0.0906567 18.641 0.232502C18.6638 0.251524 18.6859 0.27167 18.7071 0.292922ZM19 8.00003V3.41424L26.5858 11H22C20.3431 11 19 9.65688 19 8.00003ZM14 20.5C14 18.0613 15.8946 16 18.3332 16C18.8714 16 19.3883 16.1024 19.8653 16.2896C20.3794 16.4913 20.6326 17.0717 20.4309 17.5858C20.2291 18.0999 19.6488 18.3531 19.1347 18.1513C18.8854 18.0535 18.616 18 18.3332 18C17.0901 18 16 19.0727 16 20.5C16 21.9273 17.0901 23 18.3332 23C18.616 23 18.8854 22.9465 19.1347 22.8487C19.6488 22.647 20.2291 22.9002 20.4309 23.4143C20.6326 23.9284 20.3794 24.5087 19.8653 24.7105C19.3883 24.8977 18.8714 25 18.3332 25C15.8946 25 14 22.9387 14 20.5ZM12 17C12 16.5956 11.7564 16.2309 11.3827 16.0761C11.009 15.9214 10.5789 16.0069 10.2929 16.2929L7.79289 18.7929C7.40237 19.1834 7.40237 19.8166 7.79289 20.2071C8.18342 20.5977 8.81658 20.5977 9.20711 20.2071L10 19.4142V24C10 24.5523 10.4477 25 11 25C11.5523 25 12 24.5523 12 24V17Z" fill="#B2B8BF"/>
</svg>
