<svg width="30" height="32" viewBox="0 0 30 32" fill="none" xmlns="http://www.w3.org/2000/svg">
<path fill-rule="evenodd" clip-rule="evenodd" d="M17 2.00003H3.7C2.77057 2.00003 2 2.76386 2 3.7273V28.2728C2 29.2362 2.77057 30 3.7 30H26.3C27.2294 30 28 29.2362 28 28.2728V13H22C19.2386 13 17 10.7615 17 8.00003V2.00003ZM29.7071 11.2929C29.725 11.3108 29.7421 11.3292 29.7584 11.3482C29.9062 11.5201 29.9889 11.7343 29.999 11.9543L29.7071 11.2929ZM18.7071 0.292922L29.7071 11.2929L30 12.0079V28.2728C30 30.3218 28.3529 32 26.3 32H3.7C1.64709 32 0 30.3218 0 28.2728V3.7273C0 1.67829 1.64709 3.05134e-05 3.7 3.05134e-05H17.992C18.0103 -0.000112916 18.0287 0.000249499 18.047 0.00111357C18.2619 0.011265 18.4713 0.0906567 18.641 0.232502C18.6638 0.251524 18.6859 0.27167 18.7071 0.292922ZM19 8.00003V3.41424L26.5858 11H22C20.3431 11 19 9.65688 19 8.00003ZM5.41884 16.1863C5.86825 15.8653 6.4928 15.9694 6.81381 16.4188L8.5 18.7794L10.1862 16.4188C10.5072 15.9694 11.1317 15.8653 11.5812 16.1863C12.0306 16.5073 12.1347 17.1318 11.8137 17.5813L9.7289 20.4999L11.8138 23.4188C12.1348 23.8682 12.0307 24.4927 11.5813 24.8138C11.1319 25.1348 10.5074 25.0307 10.1863 24.5813L8.5 22.2204L6.81366 24.5813C6.49265 25.0307 5.8681 25.1348 5.41868 24.8138C4.96927 24.4927 4.86518 23.8682 5.18619 23.4188L7.2711 20.4999L5.18634 17.5813C4.86533 17.1318 4.96943 16.5073 5.41884 16.1863ZM14 16C14.5523 16 15 16.4477 15 17V23H17.5C18.0523 23 18.5 23.4477 18.5 24C18.5 24.5523 18.0523 25 17.5 25H14C13.4477 25 13 24.5523 13 24V17C13 16.4477 13.4477 16 14 16ZM21.5 16C20.762 16 19.9635 16.1445 19.3107 16.4927C18.648 16.8461 18 17.502 18 18.5C18 19.4943 18.6461 20.1326 19.2265 20.5196C19.7831 20.8906 20.4901 21.1732 21.076 21.4075L21.1286 21.4285C21.7828 21.6902 22.2999 21.9018 22.6641 22.1446C23.0094 22.3748 23.001 22.4869 23.0001 22.4991L23 22.5L23.0001 22.5005C23.0011 22.5077 23.0148 22.6005 22.7482 22.7427C22.4635 22.8945 22.012 23 21.5 23C21.0117 23 20.6687 22.903 20.4651 22.8216C20.3623 22.7804 20.2928 22.7423 20.2567 22.7207C20.2432 22.7126 20.2344 22.7068 20.2303 22.704C19.7997 22.3763 19.184 22.4505 18.8441 22.8753C18.4991 23.3066 18.569 23.9359 19.0003 24.2809L19.6212 23.5047C19.0003 24.2809 19.0007 24.2812 19.0011 24.2815L19.0018 24.2821L19.0034 24.2834L19.0068 24.286L19.0143 24.2919L19.0323 24.3056C19.0457 24.3157 19.0619 24.3275 19.0808 24.3407C19.1187 24.3672 19.1676 24.3996 19.2277 24.4356C19.3478 24.5077 19.5127 24.5946 19.7224 24.6785C20.1438 24.8471 20.7383 25 21.5 25C22.238 25 23.0365 24.8556 23.6893 24.5074C24.352 24.154 25 23.4981 25 22.5C25 21.5057 24.3539 20.8674 23.7735 20.4805C23.2169 20.1095 22.5099 19.8268 21.924 19.5926L21.8714 19.5716C21.2172 19.3099 20.7001 19.0983 20.336 18.8555C19.9906 18.6252 19.999 18.5132 19.9999 18.5009L20 18.5L19.9999 18.4996C19.9989 18.4924 19.9852 18.3996 20.2518 18.2574C20.5365 18.1056 20.988 18 21.5 18C21.9883 18 22.3313 18.0971 22.5349 18.1785C22.6377 18.2197 22.7072 18.2577 22.7433 18.2794C22.7568 18.2875 22.7656 18.2933 22.7697 18.296C23.2003 18.6237 23.816 18.5496 24.1559 18.1247C24.5009 17.6935 24.431 17.0642 23.9997 16.7192L23.3905 17.4806C23.9997 16.7192 23.9993 16.7189 23.9989 16.7186L23.9982 16.7179L23.9966 16.7167L23.9932 16.714L23.9857 16.7082L23.9677 16.6944C23.9543 16.6844 23.9381 16.6726 23.9192 16.6593C23.8813 16.6328 23.8324 16.6005 23.7723 16.5644C23.6522 16.4923 23.4873 16.4054 23.2776 16.3216C22.8562 16.153 22.2617 16 21.5 16Z" fill="#B2B8BF"/>
</svg>
