<svg width="24" height="24" viewBox="0 0 24 24" fill="none" xmlns="http://www.w3.org/2000/svg">
<path d="M20.4864 2.80803C20.8769 3.19855 20.8769 3.83172 20.4864 4.22224L19.9891 4.71953C20.0464 4.82494 20.1205 4.96491 20.2062 5.13552C20.4055 5.53221 20.6695 6.09758 20.9332 6.78183C21.4563 8.13882 22.0002 10.018 22.0002 12.0002C22.0002 13.9825 21.4563 15.8617 20.9332 17.2187C20.6695 17.9029 20.4055 18.4683 20.2062 18.865C20.1064 19.0636 20.0224 19.2207 19.9623 19.3301C19.9322 19.3848 19.908 19.4276 19.8907 19.4579L19.8701 19.4936L19.8639 19.5042L19.8611 19.5089C19.8611 19.5089 19.8606 19.5099 19.0002 19.0002L19.8606 19.5099C19.5791 19.9851 18.9657 20.1421 18.4905 19.8607C18.0157 19.5794 17.8585 18.9666 18.1392 18.4916L18.1398 18.4906L18.1417 18.4873L18.1545 18.465C18.1666 18.444 18.1853 18.4108 18.2099 18.3661C18.2591 18.2766 18.3314 18.1416 18.4191 17.9671C18.5948 17.6174 18.8308 17.1121 19.0671 16.4993C19.544 15.2621 20.0002 13.6413 20.0002 12.0002C20.0002 10.3592 19.544 8.73838 19.0671 7.50119C18.867 6.98219 18.6671 6.54034 18.5038 6.20482L16.2762 8.43243C16.2837 8.44928 16.2907 8.46644 16.2973 8.48388C16.6033 9.29163 17.0002 10.5996 17.0002 12.0002C17.0002 13.1846 16.7166 14.2991 16.4478 15.0962C16.3117 15.4996 16.1754 15.8334 16.0719 16.0688C16.02 16.1868 15.9761 16.2807 15.9442 16.347C15.9283 16.3801 15.9153 16.4065 15.9057 16.4255L15.8941 16.4485L15.8904 16.4558L15.8885 16.4595L15.0002 16.0002C15.8881 16.4603 15.8885 16.4595 15.8885 16.4595C15.6344 16.9498 15.0304 17.1422 14.5401 16.888C14.0502 16.6342 13.8586 16.0317 14.1116 15.5416L14.112 15.5407L14.1171 15.5305C14.1223 15.5203 14.1308 15.5031 14.1421 15.4795C14.1649 15.4322 14.1991 15.3592 14.241 15.2639C14.325 15.0728 14.4387 14.7948 14.5527 14.457C14.7838 13.7717 15.0002 12.8862 15.0002 12.0002C15.0002 11.3015 14.8658 10.6057 14.6976 10.011L11.7601 12.9485C11.8722 13.1101 11.9378 13.3063 11.9378 13.5178V18.8172C11.9378 19.9217 11.0424 20.8172 9.93784 20.8172C9.39942 20.8172 8.88374 20.6001 8.50743 20.215L6.52365 18.185L4.22399 20.4847C4.22399 20.4847 4.22328 20.4854 3.51617 19.7783L2.80924 19.071L19.0722 2.80803C19.4627 2.41751 20.0959 2.41751 20.4864 2.80803Z" fill="white"/>
<path d="M2.80924 19.071C2.41872 19.4615 2.41854 20.0948 2.80906 20.4854C3.19959 20.8759 3.83275 20.8759 4.22328 20.4854L3.51617 19.7783C2.80906 19.0712 2.80924 19.071 2.80924 19.071Z" fill="white"/>
<path d="M12 5.98238C12 4.19561 9.83545 3.30553 8.57853 4.57546L6.10408 7.07552C6.00624 7.17437 5.88885 7.25173 5.75941 7.30264L3.90179 8.03339C2.75439 8.48475 2 9.59218 2 10.8252V15.0001C2 15.4046 2.24364 15.7692 2.61732 15.924C2.99099 16.0788 3.42111 15.9932 3.70711 15.7072L11.7071 7.70724C11.8946 7.5197 12 7.26535 12 7.00013V5.98238Z" fill="white"/>
</svg>
