<svg width="30" height="32" viewBox="0 0 30 32" fill="none" xmlns="http://www.w3.org/2000/svg">
<path fill-rule="evenodd" clip-rule="evenodd" d="M17 2.00003H3.7C2.77057 2.00003 2 2.76386 2 3.7273V28.2728C2 29.2362 2.77057 30 3.7 30H26.3C27.2294 30 28 29.2362 28 28.2728V13H22C19.2386 13 17 10.7615 17 8.00003V2.00003ZM29.7071 11.2929C29.725 11.3108 29.7421 11.3292 29.7584 11.3482C29.9062 11.5201 29.9889 11.7343 29.999 11.9543L29.7071 11.2929ZM18.7071 0.292922L29.7071 11.2929L30 12.0079V28.2728C30 30.3218 28.3529 32 26.3 32H3.7C1.64709 32 0 30.3218 0 28.2728V3.7273C0 1.67829 1.64709 3.05134e-05 3.7 3.05134e-05H17.992C18.0103 -0.000112916 18.0287 0.000249499 18.047 0.00111357C18.2619 0.011265 18.4713 0.0906567 18.641 0.232502C18.6638 0.251524 18.6859 0.27167 18.7071 0.292922ZM19 8.00003V3.41424L26.5858 11H22C20.3431 11 19 9.65688 19 8.00003ZM4.41884 16.1863C4.86825 15.8653 5.4928 15.9694 5.81381 16.4188L7.5 18.7794L9.18619 16.4188C9.5072 15.9694 10.1317 15.8653 10.5812 16.1863C11.0306 16.5073 11.1347 17.1318 10.8137 17.5813L8.7289 20.4999L10.8138 23.4188C11.1348 23.8682 11.0307 24.4927 10.5813 24.8138C10.1319 25.1348 9.50735 25.0307 9.18634 24.5813L7.5 22.2204L5.81366 24.5813C5.49265 25.0307 4.8681 25.1348 4.41868 24.8138C3.96927 24.4927 3.86518 23.8682 4.18619 23.4188L6.2711 20.4999L4.18634 17.5813C3.86534 17.1318 3.96943 16.5073 4.41884 16.1863ZM22 16C22.5523 16 23 16.4477 23 17V23H25.5C26.0523 23 26.5 23.4477 26.5 24C26.5 24.5523 26.0523 25 25.5 25H22C21.4477 25 21 24.5523 21 24V17C21 16.4477 21.4477 16 22 16ZM13.7593 16.3492C13.4869 16.0315 13.0455 15.9169 12.6531 16.0621C12.2606 16.2073 12 16.5815 12 17V24C12 24.5523 12.4477 25 13 25C13.5523 25 14 24.5523 14 24V19.7033L15.2407 21.1508C15.4307 21.3725 15.7081 21.5 16 21.5C16.2919 21.5 16.5693 21.3725 16.7593 21.1508L18 19.7033V24C18 24.5523 18.4477 25 19 25C19.5523 25 20 24.5523 20 24V17C20 16.5815 19.7394 16.2073 19.3469 16.0621C18.9545 15.9169 18.5131 16.0315 18.2407 16.3492L16 18.9634L13.7593 16.3492Z" fill="#B2B8BF"/>
</svg>
