<svg width="20" height="20" viewBox="0 0 20 20" fill="none" xmlns="http://www.w3.org/2000/svg">
<path fill-rule="evenodd" clip-rule="evenodd" d="M16.7508 0.305775C17.5951 -0.200778 18.6755 -0.0675832 19.3716 0.628348C20.0679 1.32454 20.2006 2.40513 19.6942 3.24917V3.24919L16.9663 7.79566L18.9739 15.8263C19.151 16.5346 18.9435 17.2838 18.4273 17.8001C17.5578 18.6697 16.1276 18.5983 15.3489 17.6465L11.6171 13.0855L9.00632 14.9504V17.7484C9.00632 18.047 8.88771 18.3334 8.67658 18.5445L7.55079 19.6703C7.30566 19.9155 6.96126 20.0339 6.61719 19.9916C6.27312 19.9492 5.96775 19.7506 5.78938 19.4534L4.17201 16.7578L3.24222 15.8281L0.546582 14.2106C0.249317 14.0323 0.0507957 13.7269 0.00844347 13.3828C-0.0339132 13.0388 0.0846143 12.6943 0.329744 12.4492L1.45553 11.3234C1.66666 11.1123 1.95301 10.9937 2.25159 10.9937H5.0496L6.91449 8.38285L2.35344 4.65108C1.40173 3.8724 1.3304 2.44223 2.1999 1.57272C2.71616 1.05646 3.46543 0.848935 4.17372 1.02601L12.2043 3.03367L16.7508 0.305809C16.7508 0.305797 16.7508 0.305786 16.7508 0.305775ZM17.5449 2.45512L12.9629 5.2043C12.7069 5.35792 12.4003 5.40353 12.1107 5.33112L4.37729 3.39778L9.15633 7.30789C9.6154 7.68351 9.70429 8.35089 9.35952 8.83356L6.54505 12.7738C6.33372 13.0696 5.99253 13.2453 5.62896 13.2453H3.31394L4.51948 13.9686C4.59841 14.016 4.67124 14.0728 4.73632 14.1379L5.86211 15.2637C5.9272 15.3288 5.98405 15.4016 6.03142 15.4805L6.75475 16.6861V14.3711C6.75475 14.0075 6.93033 13.6663 7.22618 13.455L11.1665 10.6405C11.6491 10.2957 12.3165 10.3846 12.6921 10.8437L16.6022 15.6227L14.6689 7.88936C14.5964 7.59969 14.6421 7.29313 14.7957 7.0371L17.5449 2.45512ZM17.9092 2.23656L17.9093 2.23649L17.9092 2.23656Z" fill="#B2B8BF"/>
</svg>
