<svg width="30" height="32" viewBox="0 0 30 32" fill="none" xmlns="http://www.w3.org/2000/svg">
<path fill-rule="evenodd" clip-rule="evenodd" d="M17 2.00003H3.7C2.77057 2.00003 2 2.76386 2 3.7273V28.2728C2 29.2362 2.77057 30 3.7 30H26.3C27.2294 30 28 29.2362 28 28.2728V13H22C19.2386 13 17 10.7615 17 8.00003V2.00003ZM29.7071 11.2929C29.725 11.3108 29.7421 11.3292 29.7584 11.3482C29.9062 11.5201 29.9889 11.7343 29.999 11.9543L29.7071 11.2929ZM18.7071 0.292922L29.7071 11.2929L30 12.0079V28.2728C30 30.3218 28.3529 32 26.3 32H3.7C1.64709 32 0 30.3218 0 28.2728V3.7273C0 1.67829 1.64709 3.05134e-05 3.7 3.05134e-05H17.992C18.0103 -0.000112916 18.0287 0.000249499 18.047 0.00111357C18.2619 0.011265 18.4713 0.0906567 18.641 0.232502C18.6638 0.251524 18.6859 0.27167 18.7071 0.292922ZM19 8.00003V3.41424L26.5858 11H22C20.3431 11 19 9.65688 19 8.00003ZM12 17C12 16.4477 12.4477 16 13 16H15.3529C16.6194 16 17.5716 16.6486 18.1681 17.5359C18.7446 18.3934 19 19.4751 19 20.5C19 21.5249 18.7446 22.6067 18.1681 23.4642C17.5716 24.3515 16.6194 25 15.3529 25H13C12.4477 25 12 24.5523 12 24V17ZM14 18V23H15.3529C15.8512 23 16.2225 22.7736 16.5083 22.3484C16.8142 21.8934 17 21.2251 17 20.5C17 19.7749 16.8142 19.1067 16.5083 18.6517C16.2225 18.2265 15.8512 18 15.3529 18H14ZM6 16C5.44772 16 5 16.4477 5 17V24C5 24.5523 5.44772 25 6 25C6.55228 25 7 24.5523 7 24V22H7.6C8.61408 22 9.47135 21.6789 10.0839 21.1046C10.6914 20.535 11 19.7683 11 19C11 18.2317 10.6914 17.465 10.0839 16.8955C9.47135 16.3212 8.61408 16 7.6 16H6ZM7.6 20H7V18H7.6C8.18592 18 8.52865 18.1789 8.71606 18.3546C8.90857 18.535 9 18.7683 9 19C9 19.2317 8.90857 19.465 8.71606 19.6455C8.52865 19.8212 8.18592 20 7.6 20ZM20 17C20 16.4477 20.4477 16 21 16H25C25.5523 16 26 16.4477 26 17C26 17.5523 25.5523 18 25 18H22V20H24C24.5523 20 25 20.4477 25 21C25 21.5523 24.5523 22 24 22H22V24C22 24.5523 21.5523 25 21 25C20.4477 25 20 24.5523 20 24V21V17Z" fill="#B2B8BF"/>
</svg>
