<svg width="30" height="32" viewBox="0 0 30 32" fill="none" xmlns="http://www.w3.org/2000/svg">
<path fill-rule="evenodd" clip-rule="evenodd" d="M3.7 2.00003H17V8.00003C17 10.7615 19.2386 13 22 13H28V28.2728C28 29.2362 27.2294 30 26.3 30H3.7C2.77057 30 2 29.2362 2 28.2728V3.7273C2 2.76386 2.77057 2.00003 3.7 2.00003ZM29.7584 11.3482C29.7421 11.3292 29.725 11.3108 29.7071 11.2929L18.7071 0.292922C18.6859 0.27167 18.6638 0.251524 18.641 0.232502C18.4713 0.0906567 18.2619 0.011265 18.047 0.00111357C18.0287 0.000249488 18.0103 -0.000112925 17.992 3.0519e-05H3.7C1.64709 3.0519e-05 0 1.67829 0 3.7273V28.2728C0 30.3218 1.64709 32 3.7 32H26.3C28.3529 32 30 30.3218 30 28.2728V12.0079L29.7071 11.2929L29.999 11.9543C29.9889 11.7343 29.9062 11.5201 29.7584 11.3482ZM19 3.41424V8.00003C19 9.65688 20.3431 11 22 11H26.5858L19 3.41424ZM8.3332 16C5.89458 16 4 18.0613 4 20.5C4 22.9387 5.89458 25 8.3332 25C8.87139 25 9.38831 24.8977 9.86532 24.7105C10.3794 24.5087 10.6326 23.9284 10.4309 23.4143C10.2291 22.9002 9.64879 22.647 9.13468 22.8487C8.88539 22.9465 8.61599 23 8.3332 23C7.09006 23 6 21.9273 6 20.5C6 19.0727 7.09006 18 8.3332 18C8.61599 18 8.88539 18.0535 9.13468 18.1513C9.64879 18.3531 10.2291 18.0999 10.4309 17.5858C10.6326 17.0717 10.3794 16.4913 9.86532 16.2896C9.38831 16.1024 8.87139 16 8.3332 16ZM12.3107 16.4927C12.9635 16.1445 13.762 16 14.5 16C15.2617 16 15.8562 16.153 16.2776 16.3216C16.4873 16.4054 16.6522 16.4923 16.7723 16.5644C16.8324 16.6005 16.8813 16.6328 16.9192 16.6593C16.9381 16.6726 16.9543 16.6844 16.9677 16.6944L16.9857 16.7082L16.9932 16.714L16.9966 16.7167L16.9982 16.7179L16.9989 16.7186C16.9993 16.7189 16.9997 16.7192 16.3905 17.4806L16.9997 16.7192C17.431 17.0642 17.5009 17.6935 17.1559 18.1247C16.816 18.5496 16.2003 18.6237 15.7697 18.296C15.7656 18.2933 15.7568 18.2875 15.7433 18.2794C15.7072 18.2577 15.6377 18.2197 15.5349 18.1785C15.3313 18.0971 14.9883 18 14.5 18C13.988 18 13.5365 18.1056 13.2518 18.2574C12.9852 18.3996 12.9989 18.4924 12.9999 18.4996L13 18.5L12.9999 18.5009C12.999 18.5132 12.9906 18.6252 13.336 18.8555C13.7001 19.0983 14.2172 19.3099 14.8714 19.5716L14.924 19.5926C15.5099 19.8268 16.2169 20.1095 16.7735 20.4805C17.3539 20.8674 18 21.5057 18 22.5C18 23.4981 17.352 24.154 16.6893 24.5074C16.0365 24.8556 15.238 25 14.5 25C13.7383 25 13.1438 24.8471 12.7224 24.6785C12.5127 24.5946 12.3478 24.5077 12.2277 24.4356C12.1676 24.3996 12.1187 24.3672 12.0808 24.3407C12.0619 24.3275 12.0457 24.3157 12.0323 24.3056L12.0143 24.2919L12.0068 24.286L12.0034 24.2834L12.0018 24.2821L12.0011 24.2815C12.0007 24.2812 12.0003 24.2809 12.6212 23.5047L12.0003 24.2809C11.569 23.9359 11.4991 23.3066 11.8441 22.8753C12.184 22.4505 12.7997 22.3763 13.2303 22.704C13.2344 22.7068 13.2432 22.7126 13.2567 22.7207C13.2928 22.7423 13.3623 22.7804 13.4651 22.8216C13.6687 22.903 14.0117 23 14.5 23C15.012 23 15.4635 22.8945 15.7482 22.7427C16.0148 22.6005 16.0011 22.5077 16.0001 22.5005L16 22.5L16.0001 22.4991C16.001 22.4869 16.0094 22.3748 15.6641 22.1446C15.2999 21.9018 14.7828 21.6902 14.1286 21.4285L14.076 21.4075C13.4901 21.1732 12.7831 20.8906 12.2266 20.5196C11.6461 20.1326 11 19.4943 11 18.5C11 17.502 11.648 16.8461 12.3107 16.4927ZM19.9194 16.6061C19.7018 16.0985 19.114 15.8633 18.6063 16.0809C18.0987 16.2985 17.8636 16.8863 18.0811 17.394L21.0811 24.394C21.2387 24.7616 21.6002 25 22.0003 25C22.4003 25 22.7618 24.7616 22.9194 24.394L25.9194 17.394C26.137 16.8863 25.9018 16.2985 25.3942 16.0809C24.8865 15.8633 24.2987 16.0985 24.0811 16.6061L22.0003 21.4615L19.9194 16.6061Z" fill="#B2B8BF"/>
</svg>
