<svg width="20" height="20" viewBox="0 0 20 20" fill="none" xmlns="http://www.w3.org/2000/svg">
<path d="M1 4.5C1.55228 4.5 2 4.05228 2 3.5V3C2 2.44772 2.44772 2 3 2H13C13.5523 2 14 2.44772 14 3V3.5C14 4.05228 14.4477 4.5 15 4.5C15.5523 4.5 16 4.05228 16 3.5V3C16 1.34315 14.6569 0 13 0H3C1.34315 0 0 1.34315 0 3V3.5C0 4.05228 0.447715 4.5 1 4.5Z" fill="#B2B8BF"/>
<path d="M2 16.5C2 15.9477 1.55228 15.5 1 15.5C0.447715 15.5 0 15.9477 0 16.5V17C0 18.6569 1.34315 20 3 20H13C14.6569 20 16 18.6569 16 17V16.5C16 15.9477 15.5523 15.5 15 15.5C14.4477 15.5 14 15.9477 14 16.5V17C14 17.5523 13.5523 18 13 18H3C2.44772 18 2 17.5523 2 17V16.5Z" fill="#B2B8BF"/>
<path d="M0 10C0 7.80265 1.76251 6 3.96284 6C4.45065 6 4.91994 6.08943 5.35394 6.25367C5.87047 6.44915 6.13074 7.02635 5.93527 7.54288C5.7398 8.05942 5.1626 8.31969 4.64606 8.12421C4.43447 8.04414 4.20479 8 3.96284 8C2.89051 8 2 8.88364 2 10C2 11.1164 2.89051 12 3.96284 12C4.2048 12 4.43447 11.9559 4.64606 11.8758C5.1626 11.6803 5.7398 11.9406 5.93527 12.4571C6.13074 12.9737 5.87047 13.5509 5.35394 13.7463C4.91994 13.9106 4.45065 14 3.96284 14C1.76251 14 0 12.1974 0 10Z" fill="#B2B8BF"/>
<path d="M10.0002 6C9.34261 5.99987 8.63746 6.16915 8.06557 6.55513C7.46967 6.95731 7 7.61911 7 8.50049C7 8.92786 7.11019 9.32373 7.33388 9.66726C7.55127 10.0011 7.84076 10.232 8.12113 10.3955C8.62185 10.6876 9.24264 10.8423 9.69673 10.9555L9.75746 10.9706C10.2992 11.1061 10.6446 11.2009 10.8711 11.333L10.8884 11.3427C10.926 11.3635 10.9824 11.3946 10.9932 11.4327C10.995 11.439 11 11.4596 11 11.5005C11 11.5953 10.9698 11.6837 10.8158 11.7876C10.6377 11.9077 10.3427 12.0005 10 12.0005C9.6728 12.0005 9.44999 11.9199 9.32228 11.856C9.24346 11.8166 9.19679 11.7812 9.18461 11.7715C8.79266 11.4029 8.17609 11.4102 7.79296 11.7932C7.40729 12.1788 7.40807 12.8238 7.79423 13.2088L7.82185 13.2355C7.83384 13.2467 7.84817 13.2598 7.86486 13.2744C7.89821 13.3036 7.94113 13.3391 7.99368 13.3785C8.09864 13.4572 8.24321 13.5526 8.42772 13.6448C8.80001 13.831 9.3272 14.0005 10 14.0005C10.6573 14.0005 11.3623 13.8314 11.9342 13.4456C12.5302 13.0436 13 12.382 13 11.5005C13 11.0731 12.8898 10.6772 12.6661 10.3337C12.4487 9.99987 12.1592 9.76901 11.8789 9.60546C11.3782 9.31338 10.7574 9.15867 10.3033 9.0455L10.2425 9.03035C9.7008 8.89491 9.35544 8.80013 9.12887 8.66796C9.03424 8.61276 9.01111 8.57781 9.00975 8.57573C9.00975 8.57573 9 8.57519 9 8.50049C9 8.40545 9.03033 8.31689 9.18443 8.21289C9.36253 8.09268 9.65737 7.99993 9.99978 8C10.327 8.00007 10.5498 8.08069 10.6776 8.1446C10.7565 8.18409 10.8032 8.21955 10.8154 8.22928C11.2073 8.59783 11.8238 8.59063 12.207 8.20761C12.5976 7.81715 12.597 7.18329 12.2065 6.7927C12.2065 6.7927 12.1352 6.72644 12.1782 6.76535C12.1662 6.75411 12.1519 6.74104 12.1352 6.72644C12.1019 6.69725 12.0589 6.66177 12.0064 6.62235C11.9015 6.54361 11.7569 6.44824 11.5724 6.35594C11.2001 6.16971 10.673 6.00014 10.0002 6Z" fill="#B2B8BF"/>
<path d="M14.9228 6.61516C14.7104 6.10536 14.125 5.86428 13.6152 6.0767C13.1054 6.28911 12.8643 6.87459 13.0767 7.38439L15.5767 13.3844C15.732 13.757 16.0961 13.9998 16.4998 13.9998C16.9035 13.9998 17.2676 13.757 17.4228 13.3844L19.9228 7.38439C20.1353 6.87459 19.8942 6.28911 19.3844 6.0767C18.8746 5.86428 18.2891 6.10536 18.0767 6.61516L16.4998 10.3998L14.9228 6.61516Z" fill="#B2B8BF"/>
</svg>
