<svg width="20" height="20" viewBox="0 0 20 20" fill="none" xmlns="http://www.w3.org/2000/svg">
<path d="M16 3C16 1.34315 14.6569 0 13 0H3C1.34315 0 1.49012e-08 1.34315 1.49012e-08 3V4C1.49012e-08 4.55229 0.447715 5 1 5C1.55228 5 2 4.55229 2 4V3C2 2.44771 2.44772 2 3 2H13C13.5523 2 14 2.44772 14 3V17C14 17.5523 13.5523 18 13 18H3C2.44772 18 2 17.5523 2 17V16.5C2 15.9477 1.55228 15.5 1 15.5C0.447715 15.5 1.49012e-08 15.9477 1.49012e-08 16.5V17C1.49012e-08 18.6569 1.34315 20 3 20H13C14.6569 20 16 18.6569 16 17V3Z" fill="#B2B8BF"/>
<path d="M8.96284 6C6.76251 6 5 7.80265 5 10C5 12.1974 6.76251 14 8.96284 14C9.45065 14 9.91994 13.9106 10.3539 13.7463C10.8705 13.5509 11.1307 12.9737 10.9353 12.4571C10.7398 11.9406 10.1626 11.6803 9.64606 11.8758C9.43447 11.9559 9.2048 12 8.96284 12C7.89051 12 7 11.1164 7 10C7 8.88364 7.89051 8 8.96284 8C9.20479 8 9.43447 8.04414 9.64606 8.12421C10.1626 8.31969 10.7398 8.05942 10.9353 7.54288C11.1307 7.02635 10.8705 6.44915 10.3539 6.25367C9.91994 6.08943 9.45065 6 8.96284 6Z" fill="#B2B8BF"/>
<path d="M4 7.00003C4 6.59557 3.75636 6.23093 3.38268 6.07615C3.00901 5.92137 2.57889 6.00692 2.29289 6.29292L0.292893 8.29292C-0.0976311 8.68345 -0.0976311 9.31661 0.292893 9.70714C0.683417 10.0977 1.31658 10.0977 1.70711 9.70714L2 9.41424V13C2 13.5523 2.44772 14 3 14C3.55228 14 4 13.5523 4 13V7.00003Z" fill="#B2B8BF"/>
</svg>
