<svg width="20" height="20" viewBox="0 0 20 20" fill="none" xmlns="http://www.w3.org/2000/svg">
<path fill-rule="evenodd" clip-rule="evenodd" d="M4 1C2.34315 1 1 2.34315 1 4V19C1 19.5523 1.44772 20 2 20H11C11.5523 20 12 19.5523 12 19V17H15C17.2091 17 19 15.2091 19 13V8.1864C19 7.80183 18.8472 7.43302 18.5753 7.16109L15.7071 4.29289C15.3166 3.90237 14.6834 3.90237 14.2929 4.29289C13.9024 4.68342 13.9024 5.31658 14.2929 5.70711L15.7733 7.18749C15.3121 7.44337 15 7.93524 15 8.5C15 9.32843 15.6716 10 16.5 10C16.6753 10 16.8436 9.96992 17 9.91465V13C17 14.1046 16.1046 15 15 15H12V4C12 2.34315 10.6569 1 9 1H4ZM3 4C3 3.44772 3.44772 3 4 3H9C9.55228 3 10 3.44772 10 4V6H3V4ZM3 8H10V18H3V8Z" fill="#B2B8BF"/>
</svg>
