<svg width="64" height="64" viewBox="0 0 64 64" fill="none" xmlns="http://www.w3.org/2000/svg">
<path d="M43.4443 33C40.4258 33 38 35.4742 38 38.5C38 41.5258 40.4258 44 43.4443 44C44.1145 44 44.7585 43.8772 45.3539 43.6519C45.8705 43.4564 46.1307 42.8792 45.9353 42.3626C45.7398 41.8461 45.1626 41.5858 44.6461 41.7813C44.2731 41.9225 43.8687 42 43.4443 42C41.5538 42 40 40.4448 40 38.5C40 36.5552 41.5538 35 43.4443 35C43.8687 35 44.2731 35.0775 44.6461 35.2187C45.1626 35.4142 45.7398 35.1539 45.9353 34.6374C46.1307 34.1208 45.8705 33.5436 45.3539 33.3481C44.7585 33.1228 44.1145 33 43.4443 33Z" fill="#B2B8BF"/>
<path fill-rule="evenodd" clip-rule="evenodd" d="M27.5 38.5C27.5 35.6409 29.4637 33 32.25 33C35.0363 33 37 35.6409 37 38.5C37 41.3591 35.0363 44 32.25 44C29.4637 44 27.5 41.3591 27.5 38.5ZM32.25 35C30.8942 35 29.5 36.3885 29.5 38.5C29.5 40.6115 30.8942 42 32.25 42C33.6058 42 35 40.6115 35 38.5C35 36.3885 33.6058 35 32.25 35Z" fill="#B2B8BF"/>
<path fill-rule="evenodd" clip-rule="evenodd" d="M19 33C18.4477 33 18 33.4477 18 34V43C18 43.5523 18.4477 44 19 44H22C23.5129 44 24.6471 43.2227 25.3633 42.1484C26.0597 41.1039 26.375 39.7733 26.375 38.5C26.375 37.2267 26.0597 35.8961 25.3633 34.8515C24.6471 33.7773 23.5129 33 22 33H19ZM20 42V35H22C22.7371 35 23.2903 35.3477 23.6992 35.961C24.1278 36.6039 24.375 37.5233 24.375 38.5C24.375 39.4767 24.1278 40.3961 23.6992 41.039C23.2903 41.6523 22.7371 42 22 42H20Z" fill="#B2B8BF"/>
<path fill-rule="evenodd" clip-rule="evenodd" d="M51 27.5C51 27.4135 50.989 27.3296 50.9684 27.2496C51.0528 26.9224 50.9665 26.57 50.7311 26.3177L36.7363 11.3234C36.5536 11.1246 36.2913 11 36 11H17.6C15.05 11 13 13.0853 13 15.6364V48.3636C13 50.9147 15.05 53 17.6 53H46.4C48.95 53 51 50.9147 51 48.3636V27.5ZM17.6 13H35V23C35 25.7615 37.2386 28 40 28H49V48.3636C49 49.8292 47.8265 51 46.4 51H17.6C16.1735 51 15 49.8292 15 48.3636V15.6364C15 14.1708 16.1735 13 17.6 13ZM37 14.5371V23C37 24.6569 38.3431 26 40 26H47.6988L37 14.5371Z" fill="#B2B8BF"/>
</svg>
