<svg width="16" height="16" viewBox="0 0 16 16" fill="none" xmlns="http://www.w3.org/2000/svg">
<path d="M8 16C3.5888 16 0 12.412 0 8C0 3.588 3.5888 0 8 0C12.4112 0 16 3.588 16 8C16 12.412 12.4112 16 8 16Z" fill="#C11030"/>
<path fill-rule="evenodd" clip-rule="evenodd" d="M9.40313 8L11.2094 9.80627C11.5969 10.1937 11.5969 10.8219 11.2094 11.2094C10.8219 11.5969 10.1937 11.5969 9.80627 11.2094L8 9.40313L6.19373 11.2094C5.80627 11.5969 5.17806 11.5969 4.7906 11.2094C4.40313 10.8219 4.40313 10.1937 4.7906 9.80627L6.59687 8L4.7906 6.19373C4.40313 5.80627 4.40313 5.17806 4.7906 4.7906C5.17806 4.40313 5.80627 4.40313 6.19373 4.7906L8 6.59687L9.80627 4.7906C10.1937 4.40313 10.8219 4.40313 11.2094 4.7906C11.5969 5.17806 11.5969 5.80627 11.2094 6.19373L9.40313 8Z" fill="white"/>
</svg>
