<svg width="64" height="64" viewBox="0 0 64 64" fill="none" xmlns="http://www.w3.org/2000/svg">
<circle cx="32" cy="32" r="32" fill="#C11030"/>
<path d="M45.4142 21.4142C46.1953 20.6332 46.1953 19.3668 45.4142 18.5858C44.6332 17.8047 43.3668 17.8047 42.5858 18.5858L32 29.1716L21.4142 18.5858C20.6332 17.8047 19.3668 17.8047 18.5858 18.5858C17.8047 19.3668 17.8047 20.6332 18.5858 21.4142L29.1716 32L18.5858 42.5858C17.8047 43.3668 17.8047 44.6332 18.5858 45.4142C19.3668 46.1953 20.6332 46.1953 21.4142 45.4142L32 34.8284L42.5858 45.4142C43.3668 46.1953 44.6332 46.1953 45.4142 45.4142C46.1953 44.6332 46.1953 43.3668 45.4142 42.5858L34.8284 32L45.4142 21.4142Z" fill="white"/>
</svg>
