<svg width="20" height="20" viewBox="0 0 20 20" fill="none" xmlns="http://www.w3.org/2000/svg">
<path d="M10 20C4.486 20 0 15.515 0 10C0 4.485 4.486 0 10 0C15.514 0 20 4.485 20 10C20 15.515 15.514 20 10 20Z" fill="#C11030"/>
<path fill-rule="evenodd" clip-rule="evenodd" d="M11.4031 10L14.2094 12.8063C14.5969 13.1937 14.5969 13.8219 14.2094 14.2094C13.8219 14.5969 13.1937 14.5969 12.8063 14.2094L10 11.4031L7.19373 14.2094C6.80627 14.5969 6.17806 14.5969 5.7906 14.2094C5.40313 13.8219 5.40313 13.1937 5.7906 12.8063L8.59687 10L5.7906 7.19373C5.40313 6.80627 5.40313 6.17806 5.7906 5.7906C6.17806 5.40313 6.80627 5.40313 7.19373 5.7906L10 8.59687L12.8063 5.7906C13.1937 5.40313 13.8219 5.40313 14.2094 5.7906C14.5969 6.17806 14.5969 6.80627 14.2094 7.19373L11.4031 10Z" fill="white"/>
</svg>
