<svg width="16" height="16" viewBox="0 0 16 16" fill="none" xmlns="http://www.w3.org/2000/svg">
<circle fill="#F90" cx="8" cy="8" r="8"></circle>
<path d="M8.32553 3.26485C8.26438 3.14094 8.13819 3.0625 8.00002 3.0625C7.86185 3.0625 7.73566 3.14094 7.67451 3.26485L6.41477 5.81735L3.59792 6.22666C3.46118 6.24653 3.34758 6.3423 3.30489 6.47371C3.26219 6.60512 3.2978 6.74938 3.39674 6.84582L5.43503 8.83267L4.95386 11.6381C4.9305 11.7743 4.98648 11.912 5.09827 11.9932C5.21005 12.0744 5.35825 12.0851 5.48055 12.0208L8.00002 10.6962L10.5195 12.0208C10.6418 12.0851 10.79 12.0744 10.9018 11.9932C11.0136 11.912 11.0695 11.7743 11.0462 11.6381L10.565 8.83267L12.6033 6.84582C12.7022 6.74938 12.7378 6.60512 12.6952 6.47371C12.6525 6.3423 12.5389 6.24653 12.4021 6.22666L9.58527 5.81735L8.32553 3.26485Z" fill="white"/>
</svg>
