<svg width="48" height="48" viewBox="0 0 48 48" fill="none" xmlns="http://www.w3.org/2000/svg">
<circle cx="24" cy="24" r="24" fill="#B2B8BF"/>
<path d="M18 19H13C12.4477 19 12 19.4477 12 20V32C12 32.5523 12.4477 33 13 33H18M18 19H20.1663C20.5053 19 20.8212 18.8283 21.0055 18.5439L24.1667 13.6667L25.4498 9.87727C25.6175 9.38227 26.138 9.09982 26.6443 9.22907L28.4184 9.68191C28.8297 9.78689 29.1299 10.1401 29.1672 10.5629L29.5 14.3333L28.5976 17.7442C28.4298 18.3786 28.9082 19 29.5644 19H34.8124C36.152 19 37.1129 20.2912 36.7281 21.5744L33.5162 32.2872C33.3893 32.7103 33 33 32.5583 33H18M18 19V33" stroke="white" stroke-width="2"/>
</svg>
