<svg width="48" height="48" viewBox="0 0 48 48" fill="none" xmlns="http://www.w3.org/2000/svg">
<circle cx="24" cy="24" r="24" fill="#B2B8BF"/>
<path d="M30.5 28H35.5C36.0523 28 36.5 27.5523 36.5 27V15C36.5 14.4477 36.0523 14 35.5 14H30.5M30.5 28H28.3337C27.9947 28 27.6788 28.1717 27.4945 28.4561L24.3333 33.3333L23.0502 37.1227C22.8825 37.6177 22.362 37.9002 21.8557 37.7709L20.0816 37.3181C19.6703 37.2131 19.3701 36.8599 19.3328 36.4371L19 32.6667L19.9024 29.2558C20.0702 28.6214 19.5918 28 18.9356 28L13.6876 28C12.348 28 11.3871 26.7088 11.7719 25.4256L14.9838 14.7128C15.1107 14.2897 15.5 14 15.9417 14L30.5 14M30.5 28L30.5 14" stroke="white" stroke-width="2"/>
</svg>
