<svg width="32" height="32" viewBox="0 0 32 32" fill="none" xmlns="http://www.w3.org/2000/svg">
<path d="M16.8969 1.30743C16.7284 0.966099 16.3808 0.75 16.0002 0.75C15.6195 0.75 15.2719 0.966099 15.1034 1.30743L10.7073 10.215L0.877227 11.6434C0.500541 11.6981 0.187594 11.962 0.0699687 12.324C-0.0476562 12.686 0.0504407 13.0834 0.323013 13.3491L7.43611 20.2826L5.75694 30.073C5.69259 30.4481 5.84682 30.8273 6.15476 31.051C6.46271 31.2748 6.87097 31.3043 7.20789 31.1271L16.0002 26.5048L24.7924 31.1271C25.1294 31.3043 25.5376 31.2748 25.8456 31.051C26.1535 30.8273 26.3077 30.4481 26.2434 30.073L24.5642 20.2826L31.6773 13.3491C31.9499 13.0834 32.048 12.686 31.9304 12.324C31.8127 11.962 31.4998 11.6981 31.1231 11.6434L21.293 10.215L16.8969 1.30743Z" fill="#107F8C"/>
</svg>
