<svg width="20" height="20" viewBox="0 0 20 20" fill="none" xmlns="http://www.w3.org/2000/svg">
<path d="M11 15C11 15.5523 10.5523 16 10 16C9.44771 16 9 15.5523 9 15C9 14.4477 9.44771 14 10 14C10.5523 14 11 14.4477 11 15Z" fill="#B2B8BF"/>
<path d="M8.62413 6.90037C8.85651 6.36851 9.38621 6 9.99975 6C10.8282 6 11.4998 6.67157 11.4998 7.5C11.4998 8.32843 10.8282 9 9.99975 9C9.44747 9 8.99975 9.44772 8.99975 10V11C8.99975 11.5523 9.44747 12 9.99975 12C10.552 12 10.9998 11.5523 10.9998 11V10.8551C12.4455 10.4248 13.4998 9.08551 13.4998 7.5C13.4998 5.567 11.9327 4 9.99975 4C8.56297 4 7.3306 4.86559 6.79142 6.09963C6.5703 6.60572 6.80131 7.19523 7.3074 7.41635C7.81349 7.63747 8.40301 7.40646 8.62413 6.90037Z" fill="#B2B8BF"/>
<path fill-rule="evenodd" clip-rule="evenodd" d="M0 10C0 15.5228 4.47715 20 10 20C12.6522 20 15.1957 18.9464 17.0711 17.0711C18.9464 15.1957 20 12.6522 20 10C20 4.47715 15.5228 0 10 0C4.47715 0 0 4.47715 0 10ZM2 10C2 14.4183 5.58172 18 10 18C12.1217 18 14.1566 17.1571 15.6569 15.6569C17.1571 14.1566 18 12.1217 18 10C18 5.58172 14.4183 2 10 2C5.58172 2 2 5.58172 2 10Z" fill="#B2B8BF"/>
</svg>
