<svg width="20" height="20" viewBox="0 0 20 20" fill="none" xmlns="http://www.w3.org/2000/svg">
<path d="M10 0C4.486 0 0 4.485 0 10C0 15.515 4.486 20 10 20C15.514 20 20 15.515 20 10C20 4.485 15.514 0 10 0Z" fill="#107F8C"/>
<path d="M14.8569 7.5C14.4664 7.10948 13.8332 7.10948 13.4427 7.5L9.16074 11.782L7.00008 9.62132C6.60955 9.2308 5.97639 9.2308 5.58586 9.62132C5.19534 10.0118 5.19534 10.645 5.58586 11.0355L8.41429 13.864C8.61956 14.0692 8.89186 14.1666 9.16073 14.1561C9.42961 14.1666 9.70191 14.0692 9.90718 13.864L14.8569 8.91421C15.2475 8.52369 15.2475 7.89053 14.8569 7.5Z" fill="white"/>
</svg>
