<svg width="24.000000" height="24.000000" viewBox="0 0 24 24" fill="none" xmlns="http://www.w3.org/2000/svg" xmlns:xlink="http://www.w3.org/1999/xlink">
	<desc>
			Created with Pixso.
	</desc>
	<defs/>
	<path id="Vector" d="M12 2.5C6.75 2.5 2.5 6.75 2.5 12C2.5 17.24 6.75 21.5 12 21.5C17.24 21.5 21.5 17.24 21.5 12C21.5 6.75 17.24 2.5 12 2.5ZM4.43 12C4.43 7.82 7.82 4.43 12 4.43C16.17 4.43 19.56 7.82 19.56 12C19.56 13.73 18.97 15.33 17.99 16.61C17.62 15.91 17.09 15.3 16.41 14.73C15.79 14.22 14.96 14.27 14.4 14.66C13.56 15.24 12.76 15.65 12 15.65C11.23 15.65 10.43 15.24 9.59 14.66C9.03 14.27 8.2 14.22 7.58 14.73C6.9 15.3 6.37 15.91 6 16.61C5.02 15.33 4.43 13.73 4.43 12ZM12 6.76C9.89 6.76 8.18 8.47 8.18 10.57C8.18 12.68 9.89 14.38 12 14.38C14.1 14.38 15.81 12.68 15.81 10.57C15.81 8.47 14.1 6.76 12 6.76ZM10.12 10.57C10.12 9.54 10.96 8.7 12 8.7C13.03 8.7 13.87 9.54 13.87 10.57C13.87 11.61 13.03 12.45 12 12.45C10.96 12.45 10.12 11.61 10.12 10.57ZM7.62 17.69C7.83 17.25 8.15 16.81 8.65 16.36C9.52 16.95 10.68 17.58 12 17.58C13.31 17.58 14.47 16.95 15.34 16.36C15.84 16.81 16.16 17.25 16.37 17.69C16.43 17.81 16.47 17.93 16.52 18.06C15.25 19 13.69 19.56 12 19.56C10.3 19.56 8.74 19 7.47 18.06C7.52 17.93 7.56 17.81 7.62 17.69Z" fill="#1F1F22" fill-opacity="1.000000" fill-rule="evenodd"/>
</svg>
