<svg width="20.000000" height="20.000000" viewBox="0 0 20 20" fill="none" xmlns="http://www.w3.org/2000/svg" xmlns:xlink="http://www.w3.org/1999/xlink">
	<desc>
			Created with Pixso.
	</desc>
	<defs/>
	<path id="Union" d="M7.45 0.67C7.58 0.27 7.96 0 8.39 0L11.58 0C12.01 0 12.39 0.27 12.53 0.67L13.13 2.4L13.13 2.4L13.13 2.4L13.13 2.4L13.13 2.4L14.79 1.6C15.17 1.41 15.63 1.49 15.93 1.79L18.19 4.04C18.49 4.34 18.56 4.8 18.38 5.19L17.57 6.84L17.57 6.84L17.57 6.85L17.57 6.85L17.57 6.85L19.32 7.45C19.72 7.59 20 7.97 20 8.4L20 11.58C20 12 19.72 12.38 19.32 12.52L17.57 13.13L17.57 13.13L17.57 13.13L17.57 13.13L17.57 13.13L18.38 14.8C18.57 15.18 18.49 15.64 18.19 15.94L15.94 18.19C15.64 18.49 15.18 18.57 14.8 18.38L13.13 17.57L13.13 17.57L13.13 17.57L13.13 17.57L13.13 17.57L12.52 19.32C12.38 19.72 12 20 11.58 20L8.4 20C7.97 20 7.59 19.72 7.45 19.32L6.85 17.57L6.85 17.57L6.85 17.57L6.84 17.57L6.84 17.57L5.19 18.38C4.8 18.56 4.34 18.49 4.04 18.19L1.79 15.93C1.49 15.63 1.41 15.17 1.6 14.79L2.4 13.13L2.4 13.13L2.4 13.13L2.4 13.13L2.4 13.13L0.67 12.53C0.27 12.39 0 12.01 0 11.58L0 8.39C0 7.96 0.27 7.58 0.67 7.45L2.4 6.85L2.4 6.85L2.4 6.85L2.4 6.84L2.4 6.84L1.6 5.2C1.42 4.81 1.49 4.36 1.79 4.05L4.05 1.79C4.36 1.49 4.82 1.42 5.2 1.6L6.84 2.4L6.84 2.4L6.85 2.4L6.85 2.4L6.85 2.4L7.45 0.67ZM9.1 2L8.74 3.05C8.35 4.19 7.05 4.73 5.97 4.2L4.96 3.71L3.71 4.96L4.2 5.97C4.73 7.05 4.19 8.35 3.05 8.74L2 9.1L2 10.87L3.05 11.24C4.19 11.63 4.73 12.93 4.2 14.01L3.71 15.02L4.95 16.27L5.97 15.77C7.05 15.25 8.35 15.78 8.74 16.92L9.11 18L10.87 18L11.24 16.92C11.63 15.78 12.93 15.25 14.01 15.77L15.03 16.27L16.27 15.03L15.77 14.01C15.25 12.93 15.79 11.63 16.92 11.24L18 10.87L18 9.11L16.92 8.74C15.79 8.35 15.25 7.05 15.77 5.97L16.27 4.95L15.02 3.71L14.01 4.2C12.93 4.73 11.63 4.19 11.24 3.05L10.87 2L9.1 2ZM6 10C6 7.79 7.79 6 10 6C12.2 6 14 7.79 14 10C14 12.2 12.2 14 10 14C7.79 14 6 12.2 6 10ZM10 8C8.89 8 8 8.89 8 10C8 11.1 8.89 12 10 12C11.1 12 12 11.1 12 10C12 8.89 11.1 8 10 8Z" fill="#1F1F22" fill-opacity="1.000000" fill-rule="evenodd"/>
</svg>
