<svg width="24" height="24" viewBox="0 0 24 24" fill="none" xmlns="http://www.w3.org/2000/svg">
<path fill-rule="evenodd" clip-rule="evenodd" d="M3.44 2.1C2.94 1.85 2.35 2.05 2.1 2.55C1.85 3.05 2.05 3.64 2.55 3.89L4.16 4.69L5.33 8.73C5.34 8.77 5.35 8.8 5.37 8.84L7.33 15.55C7.36 15.66 7.4 15.77 7.45 15.87C7.49 15.96 7.54 16.05 7.61 16.14C7.66 16.22 7.73 16.3 7.8 16.38C7.88 16.46 7.96 16.53 8.04 16.59C8.13 16.66 8.22 16.72 8.32 16.77C8.41 16.82 8.51 16.86 8.6 16.89C8.7 16.92 8.81 16.95 8.91 16.97C9.02 16.99 9.13 16.99 9.25 16.99H18.68C18.8 16.99 18.92 16.98 19.04 16.96C19.15 16.94 19.25 16.91 19.36 16.87C19.46 16.84 19.56 16.79 19.66 16.74C19.76 16.68 19.85 16.61 19.94 16.54C20.03 16.47 20.12 16.39 20.19 16.3C20.26 16.22 20.33 16.13 20.38 16.03C20.44 15.94 20.49 15.84 20.53 15.73C20.58 15.62 20.61 15.51 20.64 15.39L21.98 8.69C22.03 8.42 21.98 8.17 21.83 7.94C21.75 7.83 21.66 7.73 21.55 7.66C21.45 7.59 21.33 7.54 21.19 7.51C21.16 7.51 21.03 7.49 21 7.49H7.06L5.96 3.71C5.94 3.65 5.91 3.58 5.88 3.52C5.85 3.46 5.81 3.41 5.76 3.35C5.67 3.25 5.57 3.16 5.44 3.1L3.44 2.1ZM10.09 22C8.97 22 8.07 21.1 8.07 20C8.07 18.89 8.97 17.99 10.09 17.99C11.21 17.99 12.11 18.89 12.11 20C12.11 21.1 11.21 22 10.09 22ZM17.17 22C16.05 22 15.15 21.1 15.15 19.99C15.15 18.89 16.05 17.99 17.17 17.99C18.29 17.99 19.2 18.89 19.2 19.99C19.2 21.1 18.29 22 17.17 22Z" fill="#1F1F22"/>
</svg>
