<svg width="24" height="24" viewBox="0 0 24 24" fill="none" xmlns="http://www.w3.org/2000/svg">
<path fill-rule="evenodd" clip-rule="evenodd" d="M15.364 12.5088C15.9448 12.1041 16.7905 11.9805 17.491 12.5635L17.493 12.5654C19.2044 13.996 20.2223 15.9838 20.2224 18.207C20.2224 18.4893 20.2336 19.0968 20.074 19.6318C19.9901 19.9129 19.8357 20.2604 19.534 20.542C19.2086 20.8452 18.7902 20.9998 18.3318 21H5.89041C5.43197 20.9998 5.01361 20.8453 4.68827 20.542C4.38653 20.2604 4.23118 19.9138 4.14725 19.6328C3.98755 19.0977 3.99979 18.4894 3.99979 18.207C3.99996 15.9838 5.01783 13.996 6.72928 12.5654L6.73123 12.5645C7.4785 11.9423 8.39048 12.1239 8.97049 12.5938L8.97245 12.5947C9.76312 13.2387 10.9919 13.6659 12.1111 13.666L12.3221 13.6611C13.3821 13.6118 14.5085 13.1985 15.2498 12.5947L15.2517 12.5928L15.364 12.5088ZM16.3797 14.248C15.2885 15.0836 13.8009 15.599 12.3914 15.6602L12.1111 15.666C10.621 15.6659 9.00639 15.1393 7.84256 14.248C6.65001 15.3168 5.99995 16.7014 5.99979 18.207C5.99979 18.3768 5.99923 18.5364 6.00955 18.6963C6.0177 18.8221 6.0343 18.9227 6.05155 19H18.1707C18.1879 18.9226 18.2045 18.8213 18.2127 18.6953C18.223 18.5357 18.2224 18.3765 18.2224 18.207C18.2223 16.7014 17.5722 15.3168 16.3797 14.248Z" fill="#1F1F22"/>
<path fill-rule="evenodd" clip-rule="evenodd" d="M12.1111 3C14.5964 3 16.6111 5.01472 16.6111 7.5C16.6111 9.98528 14.5964 12 12.1111 12C9.62594 11.9999 7.61112 9.98521 7.61112 7.5C7.61112 5.01479 9.62594 3.00012 12.1111 3ZM12.1111 5C10.7305 5.00012 9.61112 6.11936 9.61112 7.5C9.61112 8.88064 10.7305 9.99988 12.1111 10C13.4918 10 14.6111 8.88071 14.6111 7.5C14.6111 6.11929 13.4918 5 12.1111 5Z" fill="#1F1F22"/>
</svg>
