<svg width="24" height="24" viewBox="0 0 24 24" fill="none" xmlns="http://www.w3.org/2000/svg">
<path fill-rule="evenodd" clip-rule="evenodd" d="M7.5 17V21C7.5 21.56 7.93 22 8.5 22C9.06 22 9.5 21.56 9.5 21V17H14C14.56 17 15 16.56 15 16C15 15.43 14.56 15 14 15H9.5V13.5H13.75C14.17 13.5 14.58 13.45 14.99 13.36C15.33 13.29 15.66 13.18 15.98 13.04C16.67 12.75 17.28 12.34 17.81 11.81C18.09 11.53 18.34 11.23 18.55 10.91C18.74 10.62 18.9 10.31 19.04 9.98C19.18 9.66 19.29 9.33 19.36 8.99C19.45 8.58 19.5 8.17 19.5 7.75C19.5 7.32 19.45 6.91 19.36 6.5C19.29 6.16 19.18 5.83 19.04 5.51C18.9 5.18 18.74 4.87 18.55 4.58C18.34 4.26 18.09 3.96 17.81 3.68C17.53 3.4 17.23 3.15 16.91 2.94C16.62 2.75 16.31 2.59 15.98 2.45C15.66 2.31 15.33 2.2 14.99 2.13C14.58 2.04 14.17 2 13.75 2H8.5C8.16 2 7.91 2.08 7.75 2.25C7.58 2.41 7.5 2.66 7.5 3V11.5H6C5.43 11.5 5 11.93 5 12.5C5 13.06 5.43 13.5 6 13.5H7.5V15H6C5.43 15 5 15.43 5 16C5 16.56 5.43 17 6 17H7.5ZM9.5 11.5H13.75C14.03 11.5 14.32 11.46 14.59 11.4C14.8 11.35 15 11.29 15.2 11.2C15.41 11.11 15.61 11.01 15.79 10.89C16.01 10.75 16.21 10.58 16.4 10.4C16.58 10.21 16.75 10.01 16.89 9.79C17.01 9.61 17.11 9.41 17.2 9.2C17.29 9 17.35 8.8 17.4 8.59C17.46 8.32 17.5 8.03 17.5 7.75C17.5 7.46 17.46 7.17 17.4 6.9C17.35 6.69 17.29 6.49 17.2 6.29C17.01 5.84 16.74 5.44 16.4 5.09C16.21 4.91 16.01 4.74 15.79 4.6C15.61 4.48 15.41 4.38 15.2 4.29C15 4.2 14.8 4.14 14.59 4.09C14.32 4.03 14.03 4 13.75 4H9.5V11.5Z" fill="#1F1F22"/>
</svg>
