<svg width="32.000000" height="32.000000" viewBox="0 0 32 32" fill="none" xmlns="http://www.w3.org/2000/svg" xmlns:xlink="http://www.w3.org/1999/xlink">
	<desc>
			Created with Pixso.
	</desc>
	<defs/>
	<path id="Union" d="M9 27L19 27C19.56 27 20 26.56 20 26C20 25.44 19.56 25 19 25L9 25C8.91 25 8.83 24.99 8.75 24.97C8.7 24.95 8.65 24.94 8.61 24.92C8.55 24.89 8.5 24.87 8.46 24.84C8.4 24.8 8.34 24.75 8.29 24.7C8.24 24.65 8.19 24.59 8.15 24.53C8.12 24.49 8.1 24.44 8.07 24.38C8.02 24.26 8 24.13 8 24L8 8C8 7.91 8 7.83 8.02 7.75C8.04 7.7 8.05 7.65 8.07 7.61C8.1 7.55 8.12 7.5 8.15 7.46C8.19 7.4 8.24 7.34 8.29 7.29C8.34 7.24 8.4 7.19 8.46 7.15C8.5 7.12 8.55 7.1 8.61 7.07C8.65 7.05 8.7 7.04 8.75 7.02C8.83 7 8.91 7 9 7L19 7C19.56 7 20 6.56 20 6C20 5.44 19.56 5 19 5L9 5C8.78 5 8.56 5.02 8.36 5.06C8.18 5.1 8 5.16 7.83 5.23C7.65 5.3 7.49 5.39 7.34 5.49C7.17 5.6 7.02 5.73 6.87 5.87C6.73 6.02 6.6 6.17 6.49 6.34C6.39 6.49 6.3 6.65 6.23 6.83C6.16 7 6.1 7.17 6.06 7.35C6.02 7.56 6 7.78 6 8L6 24C6 24.21 6.02 24.43 6.06 24.63C6.1 24.81 6.16 24.99 6.23 25.16C6.38 25.52 6.6 25.84 6.87 26.12C7.02 26.26 7.17 26.39 7.34 26.5C7.49 26.6 7.66 26.69 7.83 26.76C8 26.83 8.18 26.89 8.36 26.93C8.56 26.97 8.78 27 9 27ZM25.92 15.61C25.87 15.49 25.8 15.38 25.71 15.28L20.71 10.29C20.45 10.04 20.08 9.94 19.74 10.03C19.39 10.12 19.12 10.39 19.03 10.74C18.93 11.08 19.03 11.45 19.29 11.71L22.59 15L15 15C14.44 15 14 15.44 14 15.99C14 16.55 14.44 16.99 15 16.99L22.59 16.99L19.29 20.28C19.1 20.47 18.99 20.72 18.99 20.99C18.99 21.26 19.1 21.51 19.29 21.7C19.47 21.89 19.73 22 20 22C20.26 22 20.52 21.89 20.71 21.7L25.71 16.7C25.8 16.61 25.87 16.5 25.92 16.37C26.02 16.13 26.02 15.86 25.92 15.61Z" fill="#1F1F22" fill-opacity="1.000000" fill-rule="evenodd"/>
</svg>
