<svg width="24.000000" height="24.000000" viewBox="0 0 24 24" fill="none" xmlns="http://www.w3.org/2000/svg" xmlns:xlink="http://www.w3.org/1999/xlink">
	<desc>
			Created with Pixso.
	</desc>
	<defs/>
	<path id="Union" d="M14.39 8.46C14.46 8.15 14.5 7.83 14.5 7.5C14.5 7.16 14.46 6.84 14.39 6.53C14.33 6.26 14.25 6 14.14 5.74C14.03 5.49 13.89 5.23 13.74 5C13.58 4.76 13.39 4.53 13.18 4.31C12.96 4.1 12.73 3.9 12.47 3.74C12.25 3.59 12 3.46 11.75 3.35C11.49 3.24 11.23 3.16 10.96 3.1C10.65 3.03 10.33 3 10 3C9.67 3 9.34 3.03 9.03 3.1C8.76 3.16 8.5 3.24 8.24 3.35C7.99 3.46 7.74 3.59 7.52 3.74C7.26 3.9 7.03 4.1 6.81 4.31C6.6 4.53 6.4 4.77 6.24 5.02C6.09 5.24 5.96 5.49 5.85 5.74C5.74 6 5.66 6.26 5.6 6.53C5.53 6.84 5.5 7.16 5.5 7.5C5.5 7.83 5.53 8.15 5.6 8.46C5.66 8.73 5.74 8.99 5.85 9.25C5.96 9.5 6.1 9.76 6.25 9.99C6.41 10.23 6.6 10.46 6.81 10.68C7.03 10.89 7.26 11.09 7.52 11.25C7.74 11.4 7.99 11.53 8.24 11.64C8.5 11.75 8.76 11.83 9.03 11.89C9.34 11.96 9.66 12 10 12C10.33 12 10.65 11.96 10.96 11.89C11.23 11.83 11.49 11.75 11.75 11.64C12 11.53 12.25 11.4 12.47 11.25C12.73 11.09 12.96 10.89 13.18 10.68C13.39 10.46 13.59 10.22 13.75 9.97C13.9 9.75 14.03 9.5 14.14 9.25C14.25 8.99 14.33 8.73 14.39 8.46ZM15.01 3.89C15.08 3.34 15.59 2.96 16.14 3.04C18.32 3.35 20 5.23 20 7.5C20 9.29 18.94 10.84 17.42 11.56C16.93 11.8 16.33 11.59 16.09 11.09C15.85 10.59 16.07 9.99 16.57 9.76C17.41 9.35 18 8.49 18 7.5C18 6.24 17.06 5.19 15.85 5.02C15.31 4.94 14.93 4.44 15.01 3.89ZM3.28 20.89C3.37 20.92 3.46 20.95 3.56 20.97C3.66 20.99 3.77 21 3.89 21L16.1 21C16.22 21 16.33 20.99 16.44 20.96C16.53 20.95 16.62 20.92 16.71 20.89C16.81 20.86 16.91 20.81 17.01 20.76C17.09 20.71 17.16 20.66 17.23 20.6C17.33 20.53 17.41 20.45 17.49 20.36C17.54 20.29 17.59 20.22 17.64 20.15C17.7 20.05 17.75 19.94 17.8 19.82Q17.84 19.7 17.87 19.56C17.95 19.11 18 18.66 18 18.2C18 17.69 17.94 17.18 17.84 16.69C17.72 16.11 17.52 15.55 17.26 15C17.07 14.62 16.86 14.26 16.61 13.91C16.21 13.35 15.74 12.85 15.19 12.4Q15.07 12.31 14.94 12.23C14.85 12.18 14.74 12.13 14.63 12.09C14.54 12.06 14.45 12.04 14.36 12.02C14.25 12 14.14 11.99 14.03 12C13.92 12 13.81 12.01 13.7 12.03C13.61 12.04 13.52 12.07 13.43 12.1C13.32 12.14 13.21 12.19 13.11 12.25C13.03 12.3 12.95 12.35 12.87 12.41Q12.66 12.59 12.43 12.74C12.15 12.92 11.84 13.07 11.51 13.19C11.29 13.27 11.07 13.33 10.85 13.38C10.55 13.44 10.25 13.47 9.93 13.47C9.64 13.47 9.35 13.44 9.06 13.38C8.83 13.34 8.61 13.28 8.38 13.2C8.06 13.09 7.76 12.94 7.47 12.76C7.32 12.67 7.18 12.56 7.04 12.45C6.96 12.39 6.88 12.33 6.79 12.28Q6.64 12.2 6.48 12.14C6.39 12.11 6.3 12.09 6.21 12.07C6.1 12.05 5.99 12.04 5.88 12.05C5.77 12.05 5.66 12.06 5.55 12.08C5.46 12.09 5.37 12.12 5.28 12.15C5.18 12.19 5.08 12.23 4.99 12.28C4.9 12.33 4.81 12.39 4.72 12.47C4.2 12.9 3.75 13.39 3.37 13.93C3.12 14.28 2.9 14.65 2.71 15.05C2.45 15.6 2.26 16.17 2.14 16.75C2.04 17.22 2 17.71 2 18.2C2 18.65 2.04 19.11 2.12 19.56C2.14 19.66 2.18 19.77 2.21 19.87C2.25 19.96 2.3 20.06 2.35 20.15C2.4 20.22 2.45 20.29 2.5 20.36C2.58 20.45 2.66 20.53 2.76 20.6C2.83 20.66 2.9 20.71 2.98 20.76C3.08 20.81 3.18 20.86 3.28 20.89ZM19.69 12.85C19.29 12.46 18.66 12.47 18.28 12.87C17.89 13.27 17.9 13.9 18.3 14.29C19.39 15.34 20 16.74 20 18.2C20 18.53 19.96 18.86 19.9 19.19C19.8 19.73 20.15 20.26 20.7 20.36C21.24 20.46 21.76 20.11 21.87 19.56C21.95 19.11 22 18.65 22 18.2C22 16.18 21.16 14.26 19.69 12.85Z" fill="#1F1F22" fill-opacity="1.000000" fill-rule="evenodd"/>
</svg>
