<svg width="24.000000" height="24.000000" viewBox="0 0 24 24" fill="none" xmlns="http://www.w3.org/2000/svg" xmlns:xlink="http://www.w3.org/1999/xlink">
	<desc>
			Created with Pixso.
	</desc>
	<defs/>
	<path id="Union" d="M5 4C3.89 4 3 4.89 3 6L3 20.06C3 20.87 3.91 21.35 4.57 20.88L7.73 18.64C8.41 18.16 9.22 17.9 10.05 17.9L20 17.9C21.1 17.9 22 17.01 22 15.9L22 6C22 4.89 21.1 4 20 4L5 4ZM15.33 11.5C15.33 12.32 16 13 16.83 13C17.65 13 18.33 12.32 18.33 11.5C18.33 10.67 17.65 10 16.83 10C16 10 15.33 10.67 15.33 11.5ZM12.16 13C11.33 13 10.66 12.32 10.66 11.5C10.66 10.67 11.33 10 12.16 10C12.99 10 13.66 10.67 13.66 11.5C13.66 12.32 12.99 13 12.16 13ZM6 11.5C6 12.32 6.67 13 7.5 13C8.32 13 9 12.32 9 11.5C9 10.67 8.32 10 7.5 10C6.67 10 6 10.67 6 11.5Z" fill="#1F1F22" fill-opacity="1.000000" fill-rule="evenodd"/>
</svg>
