<svg width="24" height="24" viewBox="0 0 24 24" fill="none" xmlns="http://www.w3.org/2000/svg">
<path fill-rule="evenodd" clip-rule="evenodd" d="M2 12C2 6.47 6.47 2 12 2C17.52 2 22 6.47 22 12C22 17.52 17.52 22 12 22C6.47 22 2 17.52 2 12ZM12 4C7.58 4 4 7.58 4 12C4 13.9 4.66 15.65 5.77 17.03C6.18 16.4 6.72 15.84 7.36 15.37C7.97 14.93 8.83 14.92 9.44 15.35V15.36C10.11 15.84 11 16.11 11.94 16.11C12.84 16.11 13.68 15.86 14.35 15.42C14.37 15.41 14.38 15.4 14.39 15.39C14.4 15.38 14.42 15.37 14.48 15.33C14.55 15.28 14.66 15.21 14.8 15.15C15.35 14.91 16.03 14.95 16.56 15.32C17.23 15.8 17.79 16.37 18.22 17.02C19.33 15.65 20 13.9 20 12C20 7.58 16.41 4 12 4ZM12 7C9.92 7 8.25 8.67 8.25 10.75C8.25 12.82 9.92 14.5 12 14.5C14.07 14.5 15.75 12.82 15.75 10.75C15.75 8.67 14.07 7 12 7ZM10.25 10.75C10.25 9.78 11.03 9 12 9C12.96 9 13.75 9.78 13.75 10.75C13.75 11.71 12.96 12.5 12 12.5C11.03 12.5 10.25 11.71 10.25 10.75ZM12 20C10.22 20 8.59 19.42 7.26 18.44C7.52 17.95 7.9 17.48 8.42 17.08C9.43 17.76 10.68 18.11 11.94 18.11C13.2 18.11 14.44 17.76 15.45 17.09L15.53 17.04C16.06 17.45 16.47 17.93 16.73 18.44C15.4 19.42 13.77 20 12 20Z" fill="#1F1F22"/>
</svg>
