<svg width="32.000000" height="32.000000" viewBox="0 0 32 32" fill="none" xmlns="http://www.w3.org/2000/svg" xmlns:xlink="http://www.w3.org/1999/xlink">
	<desc>
			Created with Pixso.
	</desc>
	<defs/>
	<path id="Union" d="M10.91 21.44L10.91 26C10.91 26.56 11.35 27 11.91 27C12.47 27 12.91 26.56 12.91 26L12.91 21.44L18.33 21.44C18.89 21.44 19.33 21 19.33 20.44C19.33 19.88 18.89 19.44 18.33 19.44L12.91 19.44L12.91 17.55L17.72 17.55C18.18 17.55 18.63 17.5 19.08 17.4C19.45 17.32 19.81 17.21 20.16 17.06C20.91 16.74 21.58 16.29 22.16 15.71C22.74 15.13 23.18 14.47 23.5 13.72C23.65 13.36 23.77 13 23.85 12.63C23.95 12.19 24 11.74 24 11.27C24 10.81 23.95 10.36 23.85 9.91C23.77 9.54 23.65 9.18 23.5 8.83C23.35 8.47 23.17 8.14 22.96 7.82C22.73 7.47 22.46 7.14 22.16 6.83C21.85 6.53 21.52 6.26 21.17 6.03C20.85 5.82 20.52 5.64 20.16 5.49C19.81 5.34 19.45 5.22 19.08 5.14C18.63 5.04 18.18 5 17.72 5L11.91 5C11.58 5 11.33 5.08 11.16 5.25C10.99 5.41 10.91 5.66 10.91 6L10.91 15.55L9 15.55C8.43 15.55 8 15.99 8 16.55C8 17.11 8.43 17.55 9 17.55L10.91 17.55L10.91 19.44L9 19.44C8.43 19.44 8 19.88 8 20.44C8 21 8.43 21.44 9 21.44L10.91 21.44ZM12.91 15.55L17.72 15.55C18.05 15.55 18.37 15.51 18.68 15.44C18.92 15.39 19.15 15.31 19.38 15.21C19.89 15 20.35 14.69 20.74 14.3C21.14 13.9 21.44 13.45 21.66 12.94C21.76 12.71 21.83 12.47 21.89 12.23C21.96 11.92 22 11.6 22 11.27C22 10.94 21.96 10.62 21.89 10.31C21.83 10.07 21.76 9.84 21.66 9.61C21.44 9.1 21.14 8.64 20.74 8.25C20.35 7.85 19.89 7.55 19.38 7.33C19.15 7.23 18.92 7.16 18.68 7.1C18.37 7.03 18.05 7 17.72 7L12.91 7L12.91 15.55Z" fill="#1F1F22" fill-opacity="1.000000" fill-rule="evenodd"/>
</svg>
