<svg width="24.000000" height="24.000000" viewBox="0 0 24 24" fill="none" xmlns="http://www.w3.org/2000/svg" xmlns:xlink="http://www.w3.org/1999/xlink">
	<desc>
			Created with Pixso.
	</desc>
	<defs/>
	<path id="Union" d="M6.66 3L14.25 3L20 8.32L20 18.29C20 19.79 18.8 21 17.33 21L6.66 21C5.19 21 4 19.79 4 18.29L4 5.7C4 4.2 5.19 3 6.66 3ZM8 13C8 12.44 8.44 12 9 12L15 12C15.55 12 16 12.44 16 13C16 13.55 15.55 14 15 14L9 14C8.44 14 8 13.55 8 13ZM9 16C8.44 16 8 16.44 8 17C8 17.55 8.44 18 9 18L15 18C15.55 18 16 17.55 16 17C16 16.44 15.55 16 15 16L9 16Z" fill="#1F1F22" fill-opacity="1.000000" fill-rule="evenodd"/>
</svg>
