<svg width="32.000000" height="32.000000" viewBox="0 0 32 32" fill="none" xmlns="http://www.w3.org/2000/svg" xmlns:xlink="http://www.w3.org/1999/xlink">
	<desc>
			Created with Pixso.
	</desc>
	<defs/>
	<path id="Union" d="M6 8L26 8C26.56 8 27 8.43 27 9C27 9.56 26.56 10 26 10L6 10C5.43 10 5 9.56 5 9C5 8.43 5.43 8 6 8ZM6 15L26 15C26.56 15 27 15.43 27 16C27 16.56 26.56 17 26 17L6 17C5.43 17 5 16.56 5 16C5 15.43 5.43 15 6 15ZM26 22L6 22C5.43 22 5 22.43 5 23C5 23.56 5.43 24 6 24L26 24C26.56 24 27 23.56 27 23C27 22.43 26.56 22 26 22Z" fill="#1F1F22" fill-opacity="1.000000" fill-rule="evenodd"/>
</svg>
