<svg width="24.000000" height="24.000000" viewBox="0 0 24 24" fill="none" xmlns="http://www.w3.org/2000/svg" xmlns:xlink="http://www.w3.org/1999/xlink">
	<desc>
			Created with Pixso.
	</desc>
	<defs/>
	<path id="Union" d="M10 3C7.51 3 5.5 5.01 5.5 7.5C5.5 9.98 7.51 12 10 12C12.48 12 14.5 9.98 14.5 7.5C14.5 5.01 12.48 3 10 3ZM15.01 3.89C15.08 3.34 15.59 2.96 16.14 3.04C18.32 3.35 20 5.23 20 7.5C20 9.29 18.94 10.84 17.42 11.56C16.93 11.8 16.33 11.59 16.09 11.09C15.85 10.59 16.07 9.99 16.57 9.75C17.41 9.35 18 8.49 18 7.5C18 6.24 17.06 5.19 15.85 5.02C15.31 4.94 14.93 4.44 15.01 3.89ZM7.5 7.5C7.5 6.11 8.61 5 10 5C11.38 5 12.5 6.11 12.5 7.5C12.5 8.88 11.38 10 10 10C8.61 10 7.5 8.88 7.5 7.5ZM17.87 19.56C17.7 20.43 16.93 21 16.1 21L3.89 21C3.06 21 2.29 20.43 2.12 19.56C2.04 19.11 2 18.65 2 18.2C2 16 3 13.91 4.72 12.47L4.73 12.46C5.39 11.91 6.37 11.91 7.04 12.45L7.04 12.45C7.84 13.1 8.87 13.46 9.93 13.46C11.03 13.46 12.07 13.09 12.87 12.41C13.54 11.86 14.52 11.86 15.19 12.4L15.19 12.4C16.96 13.84 18 15.96 18 18.2C18 18.65 17.95 19.11 17.87 19.56ZM19.69 12.85C19.29 12.46 18.66 12.47 18.28 12.87C17.89 13.27 17.9 13.9 18.3 14.29C19.39 15.34 20 16.74 20 18.2C20 18.53 19.96 18.86 19.9 19.19C19.8 19.73 20.15 20.26 20.7 20.36C21.24 20.46 21.76 20.11 21.87 19.56C21.95 19.11 22 18.65 22 18.2C22 16.18 21.16 14.26 19.69 12.85ZM14.04 14.05C12.88 14.97 11.43 15.46 9.93 15.46C8.47 15.46 7.04 14.98 5.89 14.1C4.68 15.17 4 16.66 4 18.2C4 18.46 4.02 18.73 4.06 19L15.93 19C15.97 18.73 16 18.46 16 18.2C16 16.63 15.29 15.12 14.04 14.05Z" fill="#1F1F22" fill-opacity="1.000000" fill-rule="evenodd"/>
</svg>
