<svg width="24.000000" height="24.000000" viewBox="0 0 24 24" fill="none" xmlns="http://www.w3.org/2000/svg" xmlns:xlink="http://www.w3.org/1999/xlink">
	<desc>
			Created with Pixso.
	</desc>
	<defs/>
	<path id="Union" d="M7 21C6.78 21 6.56 20.97 6.36 20.93C6.18 20.89 6 20.83 5.83 20.76C5.66 20.69 5.49 20.6 5.34 20.5C5.17 20.39 5.02 20.26 4.87 20.12C4.73 19.97 4.6 19.82 4.49 19.65C4.39 19.5 4.3 19.34 4.23 19.16C4.16 18.99 4.1 18.81 4.06 18.63C4.02 18.43 4 18.21 4 18L4 6C4 5.78 4.02 5.56 4.06 5.36C4.1 5.18 4.16 5 4.23 4.83C4.3 4.65 4.39 4.49 4.49 4.34C4.6 4.17 4.73 4.02 4.87 3.87C5.02 3.73 5.17 3.6 5.34 3.49C5.49 3.39 5.65 3.3 5.83 3.23C6 3.16 6.18 3.1 6.36 3.06C6.56 3.02 6.78 3 7 3L15 3C15.56 3 16 3.44 16 4C16 4.56 15.56 5 15 5L7 5C6.91 5 6.83 5 6.75 5.02C6.7 5.04 6.65 5.05 6.61 5.07C6.55 5.1 6.5 5.12 6.46 5.15C6.4 5.19 6.34 5.24 6.29 5.29C6.24 5.34 6.19 5.4 6.15 5.46C6.12 5.5 6.1 5.55 6.07 5.61C6.05 5.65 6.04 5.7 6.02 5.75C6 5.83 6 5.91 6 6L6 18C6 18.13 6.02 18.26 6.07 18.38C6.12 18.5 6.2 18.61 6.29 18.7C6.38 18.79 6.49 18.87 6.61 18.92C6.65 18.94 6.7 18.95 6.75 18.97C6.83 18.99 6.91 19 7 19L15 19C15.56 19 16 19.44 16 20C16 20.56 15.56 21 15 21L7 21ZM15.48 7.29C15.06 6.9 14.42 6.9 14.01 7.29C13.6 7.69 13.6 8.31 14.01 8.7L16.39 11L10.03 11C9.45 11 9 11.44 9 12C9 12.55 9.45 12.99 10.03 12.99L16.39 12.99L14.01 15.29C13.6 15.68 13.6 16.3 14.01 16.7C14.42 17.09 15.06 17.09 15.48 16.7L19.63 12.7C19.87 12.47 20 12.23 20 12C20 11.76 19.87 11.52 19.63 11.29L15.48 7.29Z" fill="#1F1F22" fill-opacity="1.000000" fill-rule="evenodd"/>
</svg>
