<svg width="32" height="32" viewBox="0 0 32 32" fill="none" xmlns="http://www.w3.org/2000/svg">
<path fill-rule="evenodd" clip-rule="evenodd" d="M15 6.06C14.75 6.09 14.5 6.13 14.26 6.18C13.79 6.29 13.33 6.43 12.88 6.62C12.43 6.82 12 7.04 11.6 7.31C11.15 7.61 10.73 7.95 10.34 8.34C9.95 8.73 9.61 9.15 9.31 9.6C9.04 10 8.82 10.43 8.62 10.88C8.43 11.33 8.29 11.79 8.18 12.26C8.06 12.82 8 13.4 8 14V21H7C6.44 21 6 21.43 6 22C6 22.56 6.44 23 7 23H25C25.56 23 26 22.56 26 22C26 21.43 25.56 21 25 21H24V14C24 13.4 23.93 12.82 23.81 12.26C23.7 11.79 23.56 11.33 23.37 10.88C23.17 10.43 22.95 10 22.68 9.6C22.38 9.15 22.04 8.73 21.65 8.34C21.26 7.95 20.84 7.61 20.39 7.31C19.99 7.04 19.56 6.82 19.11 6.62C18.66 6.43 18.2 6.29 17.73 6.18C17.49 6.13 17.24 6.09 17 6.06V5C17 4.43 16.56 4 16 4C15.44 4 15 4.43 15 5V6.06ZM22 21V14C22 13.54 21.95 13.09 21.85 12.65C21.77 12.32 21.66 11.98 21.52 11.66C21.38 11.33 21.22 11.01 21.02 10.71C20.8 10.37 20.53 10.05 20.24 9.75C19.94 9.46 19.62 9.19 19.28 8.97C18.98 8.77 18.66 8.61 18.33 8.47C18.01 8.33 17.67 8.22 17.34 8.14C16.9 8.04 16.45 8 16 8C15.54 8 15.09 8.04 14.65 8.14C14.32 8.22 13.98 8.33 13.66 8.47C13.33 8.61 13.01 8.77 12.71 8.97C12.37 9.19 12.05 9.46 11.75 9.75C11.46 10.05 11.19 10.37 10.97 10.71C10.77 11.01 10.61 11.33 10.47 11.66C10.33 11.98 10.22 12.32 10.14 12.65C10.04 13.09 10 13.54 10 14V21H22ZM18 25H14C13.44 25 13 25.43 13 26C13 26.56 13.44 27 14 27H18C18.56 27 19 26.56 19 26C19 25.43 18.56 25 18 25Z" fill="#1F1F22"/>
</svg>
