<svg width="24.000000" height="24.000000" viewBox="0 0 24 24" fill="none" xmlns="http://www.w3.org/2000/svg" xmlns:xlink="http://www.w3.org/1999/xlink">
	<desc>
			Created with Pixso.
	</desc>
	<defs/>
	<path id="Union" d="M10.77 2.68C11.49 2.12 12.5 2.12 13.22 2.68L21.61 9.21C22.04 9.54 22.12 10.17 21.78 10.61C21.45 11.04 20.82 11.12 20.38 10.78L20 10.48L20 20C20 21.1 19.1 22 18 22L6 22C4.89 22 4 21.1 4 20L4 10.48L3.61 10.78C3.17 11.12 2.54 11.04 2.21 10.61C1.87 10.17 1.95 9.54 2.38 9.21L10.77 2.68ZM13 13L11 13C10.44 13 10 13.44 10 14L10 16C10 16.55 10.44 17 11 17L13 17C13.55 17 14 16.55 14 16L14 14C14 13.44 13.55 13 13 13Z" fill="#1F1F22" fill-opacity="1.000000" fill-rule="evenodd"/>
</svg>
