<svg width="24" height="24" viewBox="0 0 24 24" fill="none" xmlns="http://www.w3.org/2000/svg">
<path fill-rule="evenodd" clip-rule="evenodd" d="M10.77 2.68001C11.49 2.12001 12.5 2.12001 13.22 2.68001L21.61 9.21001C22.04 9.54001 22.12 10.17 21.78 10.61C21.45 11.04 20.82 11.12 20.38 10.78L20 10.48V20C20 21.1 19.1 22 18 22H5.99998C4.88998 22 3.99998 21.1 3.99998 20V10.48L3.60998 10.78C3.16998 11.12 2.53998 11.04 2.20998 10.61C1.86998 10.17 1.94998 9.54001 2.37998 9.21001L10.77 2.68001ZM13 13H11C10.44 13 9.99998 13.44 9.99998 14V16C9.99998 16.55 10.44 17 11 17H13C13.55 17 14 16.55 14 16V14C14 13.44 13.55 13 13 13Z" fill="#1F1F22"/>
</svg>
