<svg width="20.000000" height="20.000000" viewBox="0 0 20 20" fill="none" xmlns="http://www.w3.org/2000/svg" xmlns:xlink="http://www.w3.org/1999/xlink">
	<desc>
			Created with Pixso.
	</desc>
	<defs/>
	<path id="Union" d="M9 2.07C8.82 2.09 8.65 2.12 8.48 2.16C8.07 2.25 7.66 2.38 7.27 2.55C6.87 2.71 6.5 2.91 6.14 3.15C5.75 3.41 5.39 3.71 5.05 4.05C4.71 4.39 4.41 4.75 4.15 5.14C3.91 5.5 3.71 5.87 3.55 6.27C3.38 6.66 3.25 7.07 3.16 7.48C3.05 7.97 3 8.48 3 9L3 15L2 15C1.44 15 1 15.43 1 16C1 16.56 1.44 17 2 17L18 17C18.56 17 19 16.56 19 16C19 15.43 18.56 15 18 15L17 15L17 9C17 8.48 16.94 7.97 16.83 7.48C16.74 7.07 16.61 6.66 16.44 6.27C16.28 5.87 16.08 5.5 15.84 5.14C15.58 4.75 15.28 4.39 14.94 4.05C14.6 3.71 14.24 3.41 13.85 3.15C13.49 2.91 13.12 2.71 12.72 2.55C12.33 2.38 11.92 2.25 11.51 2.16C11.34 2.12 11.17 2.09 11 2.07L11 1C11 0.43 10.56 0 10 0C9.43 0 9 0.43 9 1L9 2.07ZM15 15L15 9C15 8.61 14.95 8.24 14.87 7.87C14.81 7.59 14.72 7.32 14.6 7.05C14.49 6.77 14.35 6.51 14.18 6.26C14 5.97 13.78 5.71 13.53 5.46C13.28 5.21 13.02 4.99 12.73 4.81C12.48 4.64 12.22 4.5 11.94 4.39C11.67 4.27 11.4 4.18 11.12 4.12C10.75 4.04 10.38 4 10 4C9.61 4 9.24 4.04 8.87 4.12C8.59 4.18 8.32 4.27 8.05 4.39C7.77 4.5 7.51 4.64 7.26 4.81C6.97 4.99 6.71 5.21 6.46 5.46C6.21 5.71 5.99 5.97 5.81 6.26C5.64 6.51 5.5 6.77 5.39 7.05C5.27 7.32 5.18 7.59 5.12 7.87C5.04 8.24 5 8.61 5 9L5 15L15 15ZM12 18L8 18C7.44 18 7 18.43 7 19C7 19.56 7.44 20 8 20L12 20C12.56 20 13 19.56 13 19C13 18.43 12.56 18 12 18Z" fill="#000000" fill-opacity="1.000000" fill-rule="evenodd"/>
</svg>
