<svg width="48.000000" height="48.000000" viewBox="0 0 48 48" fill="none" xmlns="http://www.w3.org/2000/svg" xmlns:xlink="http://www.w3.org/1999/xlink">
	<desc>
			Created with Pixso.
	</desc>
	<defs/>
	<path id="Union" d="M48 24C48 37.25 37.25 48 24 48C10.74 48 0 37.25 0 24C0 10.74 10.74 0 24 0C37.25 0 48 10.74 48 24ZM44.38 15.55C45.46 18.14 46 20.96 46 24C46 27.03 45.46 29.85 44.38 32.44C43.34 34.96 41.79 37.27 39.73 39.38C39.65 38.99 39.56 38.61 39.45 38.23C39.18 37.25 38.8 36.3 38.32 35.39C38.2 35.16 38.07 34.92 37.93 34.69C37.55 34.04 37.11 33.42 36.63 32.83C35.96 32.02 35.22 31.28 34.4 30.61C34.29 30.52 34.17 30.44 34.05 30.36C33.89 30.28 33.73 30.2 33.56 30.14C33.26 30.04 32.96 29.99 32.64 30C32.33 30 32.02 30.05 31.73 30.15C31.42 30.26 31.15 30.42 30.9 30.63C30.54 30.92 30.17 31.19 29.79 31.44C29.12 31.87 28.4 32.22 27.63 32.49C27.1 32.68 26.57 32.83 26.02 32.94C25.32 33.08 24.6 33.14 23.87 33.14C23.16 33.14 22.48 33.08 21.8 32.95C21.25 32.85 20.7 32.7 20.17 32.52C19.39 32.24 18.67 31.9 17.99 31.47C17.63 31.24 17.27 30.99 16.93 30.71C16.82 30.62 16.7 30.54 16.58 30.47C16.43 30.38 16.27 30.31 16.1 30.25C15.96 30.21 15.83 30.17 15.69 30.15C15.52 30.12 15.35 30.1 15.18 30.1C14.87 30.1 14.56 30.16 14.27 30.26C14.11 30.32 13.96 30.39 13.82 30.47C13.68 30.55 13.56 30.64 13.43 30.74C12.81 31.25 12.24 31.81 11.72 32.41C11.55 32.6 11.39 32.79 11.24 32.98C10.78 33.56 10.36 34.17 9.99 34.81C9.85 35.06 9.71 35.31 9.58 35.57C9.26 36.19 8.99 36.83 8.77 37.48C8.67 37.79 8.57 38.1 8.49 38.42C8.4 38.74 8.33 39.06 8.26 39.38C6.2 37.27 4.65 34.96 3.61 32.44C2.53 29.85 2 27.03 2 24C2 20.96 2.53 18.14 3.61 15.55C4.68 12.96 6.29 10.59 8.44 8.44C10.59 6.29 12.96 4.68 15.55 3.61C18.14 2.53 20.96 2 24 2C27.03 2 29.85 2.53 32.44 3.61C35.03 4.68 37.4 6.29 39.55 8.44C41.7 10.59 43.31 12.96 44.38 15.55ZM10.05 41.02C11.75 42.45 13.59 43.57 15.55 44.38C18.14 45.46 20.96 46 24 46C27.03 46 29.85 45.46 32.44 44.38C34.4 43.57 36.24 42.45 37.94 41.02C37.87 40.26 37.74 39.51 37.53 38.77C37.29 37.92 36.96 37.11 36.55 36.32C36.14 35.53 35.65 34.79 35.08 34.09C34.98 33.97 34.88 33.86 34.78 33.74C34.28 33.17 33.73 32.64 33.14 32.16C33 32.05 32.84 31.99 32.66 32C32.47 32 32.31 32.05 32.18 32.16C31.74 32.54 31.27 32.87 30.78 33.18C30.01 33.66 29.18 34.06 28.3 34.38C27.67 34.6 27.02 34.78 26.37 34.91C25.55 35.07 24.71 35.14 23.87 35.14C23.05 35.14 22.25 35.07 21.46 34.93C20.8 34.8 20.15 34.63 19.5 34.4C18.6 34.08 17.74 33.68 16.95 33.18C16.51 32.9 16.08 32.6 15.68 32.27C15.62 32.22 15.56 32.19 15.5 32.16C15.41 32.12 15.31 32.1 15.19 32.1C15.01 32.1 14.85 32.16 14.72 32.27C14.15 32.75 13.63 33.26 13.15 33.81C13.03 33.95 12.92 34.09 12.8 34.23C12.38 34.75 12.01 35.31 11.68 35.89C11.57 36.08 11.46 36.27 11.36 36.47C11.08 37.03 10.84 37.6 10.64 38.19C10.56 38.44 10.49 38.69 10.42 38.94C10.28 39.45 10.18 39.97 10.11 40.49C10.08 40.67 10.06 40.85 10.05 41.02ZM32.78 21.95C32.92 21.32 33 20.66 33 20C33 19.33 32.92 18.67 32.78 18.04C32.67 17.51 32.5 17 32.29 16.49C32.07 15.98 31.82 15.5 31.52 15.05C31.18 14.54 30.8 14.07 30.36 13.63C29.92 13.19 29.45 12.81 28.94 12.47C28.49 12.17 28.01 11.92 27.5 11.7C26.99 11.49 26.48 11.32 25.95 11.21C25.32 11.07 24.66 11 24 11C23.33 11 22.67 11.07 22.04 11.21C21.51 11.32 21 11.49 20.49 11.7C19.98 11.92 19.5 12.17 19.05 12.47C18.54 12.81 18.07 13.19 17.63 13.63C17.19 14.07 16.81 14.54 16.47 15.05C16.18 15.5 15.92 15.98 15.7 16.49C15.49 17 15.32 17.51 15.21 18.04C15.07 18.67 15 19.33 15 20C15 20.66 15.07 21.32 15.21 21.95C15.32 22.48 15.49 22.99 15.7 23.5C15.92 24.01 16.18 24.49 16.47 24.94C16.81 25.45 17.19 25.92 17.63 26.36C18.07 26.8 18.54 27.18 19.05 27.52C19.5 27.81 19.98 28.07 20.49 28.29C21 28.5 21.51 28.67 22.04 28.78C22.67 28.92 23.33 29 24 29C24.66 29 25.32 28.92 25.95 28.78C26.48 28.67 26.99 28.5 27.5 28.29C28.01 28.07 28.49 27.82 28.94 27.52C29.45 27.18 29.92 26.8 30.36 26.36C30.8 25.92 31.18 25.45 31.52 24.94C31.82 24.49 32.07 24.01 32.29 23.5C32.5 22.99 32.67 22.48 32.78 21.95ZM30.82 18.43C30.94 18.94 31 19.46 31 20C31 20.53 30.94 21.05 30.82 21.56C30.73 21.95 30.61 22.34 30.45 22.72C30.28 23.11 30.08 23.48 29.86 23.83C29.59 24.23 29.29 24.6 28.94 24.94C28.3 25.59 27.56 26.09 26.72 26.45C26.34 26.61 25.95 26.73 25.56 26.82C25.05 26.94 24.53 27 24 27C23.46 27 22.94 26.94 22.43 26.82C22.04 26.73 21.65 26.61 21.27 26.45C20.43 26.09 19.69 25.59 19.05 24.94C18.7 24.6 18.4 24.23 18.13 23.83C17.91 23.48 17.71 23.11 17.54 22.72C17.38 22.34 17.26 21.95 17.17 21.56C17.05 21.05 17 20.53 17 20C17 19.46 17.05 18.94 17.17 18.43C17.26 18.04 17.38 17.65 17.54 17.27C17.71 16.88 17.91 16.51 18.13 16.16C18.4 15.76 18.7 15.39 19.05 15.05C19.39 14.7 19.76 14.4 20.16 14.13C20.51 13.91 20.88 13.71 21.27 13.54C21.65 13.38 22.04 13.26 22.43 13.17C22.94 13.05 23.46 13 24 13C24.53 13 25.05 13.05 25.56 13.17C25.95 13.26 26.34 13.38 26.72 13.54C27.11 13.71 27.48 13.91 27.83 14.13C28.23 14.4 28.6 14.7 28.94 15.05C29.59 15.69 30.09 16.43 30.45 17.27C30.61 17.65 30.73 18.04 30.82 18.43Z" fill="#1F1F22" fill-opacity="1.000000" fill-rule="evenodd"/>
</svg>
