<svg width="20.000000" height="20.000000" viewBox="0 0 20 20" fill="none" xmlns="http://www.w3.org/2000/svg" xmlns:xlink="http://www.w3.org/1999/xlink">
	<desc>
			Created with Pixso.
	</desc>
	<defs/>
	<path id="Union" d="M0 10C0 4.47 4.47 0 10 0C15.52 0 20 4.47 20 10C20 15.52 15.52 20 10 20C4.47 20 0 15.52 0 10ZM10 2C5.58 2 2 5.58 2 10C2 11.9 2.66 13.65 3.77 15.03C4.18 14.4 4.72 13.84 5.36 13.37L5.36 13.37C5.97 12.93 6.83 12.92 7.44 13.35L7.44 13.36C8.11 13.84 9 14.11 9.94 14.11C10.84 14.11 11.68 13.86 12.35 13.42C12.37 13.41 12.38 13.4 12.39 13.39C12.4 13.38 12.42 13.37 12.48 13.33C12.55 13.28 12.66 13.21 12.8 13.15C13.35 12.91 14.03 12.95 14.56 13.32L14.56 13.32C15.23 13.8 15.79 14.37 16.22 15.02C17.33 13.65 18 11.9 18 10C18 5.58 14.41 2 10 2ZM10 5C7.92 5 6.25 6.67 6.25 8.75C6.25 10.82 7.92 12.5 10 12.5C12.07 12.5 13.75 10.82 13.75 8.75C13.75 6.67 12.07 5 10 5ZM8.25 8.75C8.25 7.78 9.03 7 10 7C10.96 7 11.75 7.78 11.75 8.75C11.75 9.71 10.96 10.5 10 10.5C9.03 10.5 8.25 9.71 8.25 8.75ZM10 18C8.22 18 6.59 17.42 5.26 16.44C5.52 15.95 5.9 15.48 6.42 15.08C7.43 15.76 8.68 16.11 9.94 16.11C11.2 16.11 12.44 15.76 13.45 15.09L13.53 15.04C14.06 15.45 14.47 15.93 14.73 16.44C13.4 17.42 11.77 18 10 18Z" fill="#1F1F22" fill-opacity="1.000000" fill-rule="evenodd"/>
</svg>
