<svg width="20.000000" height="20.000000" viewBox="0 0 20 20" fill="none" xmlns="http://www.w3.org/2000/svg" xmlns:xlink="http://www.w3.org/1999/xlink">
	<desc>
			Created with Pixso.
	</desc>
	<defs/>
	<path id="Union" d="M5 19C4.78 19 4.56 18.97 4.36 18.93C4.18 18.89 4 18.83 3.83 18.76C3.66 18.69 3.49 18.6 3.34 18.5C3.17 18.39 3.02 18.26 2.87 18.12C2.73 17.97 2.6 17.82 2.49 17.65C2.39 17.5 2.3 17.34 2.23 17.16C2.16 16.99 2.1 16.81 2.06 16.63C2.02 16.43 2 16.21 2 16L2 4C2 3.78 2.02 3.56 2.06 3.36C2.1 3.18 2.16 3 2.23 2.83C2.3 2.65 2.39 2.49 2.49 2.34C2.6 2.17 2.73 2.02 2.87 1.87C3.02 1.73 3.17 1.6 3.34 1.49C3.49 1.39 3.65 1.3 3.83 1.23C4 1.16 4.18 1.1 4.36 1.06C4.56 1.02 4.78 1 5 1L13 1C13.56 1 14 1.44 14 2C14 2.56 13.56 3 13 3L5 3C4.91 3 4.83 3 4.75 3.02C4.7 3.04 4.65 3.05 4.61 3.07C4.55 3.1 4.5 3.12 4.46 3.15C4.4 3.19 4.34 3.24 4.29 3.29C4.24 3.34 4.19 3.4 4.15 3.46C4.12 3.5 4.1 3.55 4.07 3.61C4.05 3.65 4.04 3.7 4.02 3.75C4 3.83 4 3.91 4 4L4 16C4 16.13 4.02 16.26 4.07 16.38C4.12 16.5 4.2 16.61 4.29 16.7C4.38 16.79 4.49 16.87 4.61 16.92C4.65 16.94 4.7 16.95 4.75 16.97C4.83 16.99 4.91 17 5 17L13 17C13.56 17 14 17.44 14 18C14 18.56 13.56 19 13 19L5 19ZM13.48 5.29C13.06 4.9 12.42 4.9 12.01 5.29C11.6 5.69 11.6 6.31 12.01 6.7L14.39 9L8.03 9C7.45 9 7 9.44 7 10C7 10.55 7.45 10.99 8.03 10.99L14.39 10.99L12.01 13.29C11.6 13.68 11.6 14.3 12.01 14.7C12.42 15.09 13.06 15.09 13.48 14.7L17.63 10.7C17.87 10.47 18 10.23 18 10C18 9.76 17.87 9.52 17.63 9.29L13.48 5.29Z" fill="#1F1F22" fill-opacity="1.000000" fill-rule="evenodd"/>
</svg>
