<svg width="20.000000" height="20.000000" viewBox="0 0 20 20" fill="none" xmlns="http://www.w3.org/2000/svg" xmlns:xlink="http://www.w3.org/1999/xlink">
	<desc>
			Created with Pixso.
	</desc>
	<defs/>
	<path id="Union" d="M1 3L19 3C19.56 3 20 3.43 20 4C20 4.56 19.56 5 19 5L1 5C0.43 5 0 4.56 0 4C0 3.43 0.43 3 1 3ZM1 9L19 9C19.56 9 20 9.43 20 10C20 10.56 19.56 11 19 11L1 11C0.43 11 0 10.56 0 10C0 9.43 0.43 9 1 9ZM19 15L1 15C0.43 15 0 15.43 0 16C0 16.56 0.43 17 1 17L19 17C19.56 17 20 16.56 20 16C20 15.43 19.56 15 19 15Z" fill="#1F1F22" fill-opacity="1.000000" fill-rule="evenodd"/>
</svg>
