<svg width="32" height="32" viewBox="0 0 32 32" fill="none" xmlns="http://www.w3.org/2000/svg">
<path fill-rule="evenodd" clip-rule="evenodd" d="M19.7313 16.6748C20.3483 16.2445 21.2371 16.1192 21.9725 16.7314L21.9735 16.7324C23.8734 18.3204 24.9997 20.5225 24.9998 22.9834C24.9998 23.3064 25.0122 23.9708 24.8387 24.5518C24.7479 24.8557 24.5829 25.2224 24.2655 25.5186C23.9243 25.8367 23.4848 25.9999 22.9979 26H9.00178C8.51497 25.9998 8.07532 25.8367 7.7342 25.5186C7.41675 25.2224 7.25178 24.8557 7.16096 24.5518C6.98749 23.9708 6.99982 23.3064 6.99983 22.9834C6.99995 20.5226 8.1264 18.3204 10.0262 16.7324L10.0272 16.7314C10.7625 16.1192 11.6514 16.2446 12.2684 16.6748L12.3885 16.7656L12.3905 16.7666C13.3038 17.5105 14.714 17.9999 15.9998 18C17.2857 18 18.6958 17.5105 19.6092 16.7666L19.6112 16.7656L19.7313 16.6748ZM20.8074 18.3672C19.5161 19.3905 17.6858 20 15.9998 20C14.3139 19.9999 12.4835 19.3904 11.1922 18.3672C9.77713 19.6001 8.99995 21.2181 8.99983 22.9834C8.99983 23.1734 8.9996 23.3573 9.01155 23.542C9.02361 23.728 9.04561 23.8745 9.07698 23.9795C9.07921 23.9869 9.08268 23.9936 9.08479 24H22.9149C22.917 23.9936 22.9204 23.9869 22.9227 23.9795C22.954 23.8745 22.976 23.728 22.9881 23.542C23.0001 23.3573 22.9998 23.1734 22.9998 22.9834C22.9997 21.218 22.2227 19.6001 20.8074 18.3672Z" fill="#1F1F22"/>
<path fill-rule="evenodd" clip-rule="evenodd" d="M15.9998 6C18.7613 6 20.9998 8.23858 20.9998 11C20.9998 13.7614 18.7613 16 15.9998 16C13.2385 15.9999 10.9998 13.7614 10.9998 11C10.9998 8.23864 13.2385 6.0001 15.9998 6ZM15.9998 8C14.3431 8.0001 12.9998 9.34321 12.9998 11C12.9998 12.6568 14.3431 13.9999 15.9998 14C17.6567 14 18.9998 12.6569 18.9998 11C18.9998 9.34315 17.6567 8 15.9998 8Z" fill="#1F1F22"/>
</svg>
