<svg width="20" height="20" viewBox="0 0 20 20" fill="none" xmlns="http://www.w3.org/2000/svg">
<path fill-rule="evenodd" clip-rule="evenodd" d="M13.364 10.5088C13.9448 10.1041 14.7905 9.9805 15.491 10.5635L15.493 10.5654C17.2044 11.996 18.2223 13.9838 18.2224 16.207C18.2224 16.4893 18.2336 17.0968 18.074 17.6318C17.9901 17.9129 17.8357 18.2604 17.534 18.542C17.2086 18.8452 16.7902 18.9998 16.3318 19H3.89041C3.43197 18.9998 3.01361 18.8453 2.68827 18.542C2.38653 18.2604 2.23118 17.9138 2.14725 17.6328C1.98755 17.0977 1.99979 16.4894 1.99979 16.207C1.99996 13.9838 3.01783 11.996 4.72928 10.5654L4.73123 10.5645C5.4785 9.94232 6.39048 10.1239 6.97049 10.5938L6.97245 10.5947C7.76312 11.2387 8.9919 11.6659 10.1111 11.666L10.3221 11.6611C11.3821 11.6118 12.5085 11.1985 13.2498 10.5947L13.2517 10.5928L13.364 10.5088ZM14.3797 12.248C13.2885 13.0836 11.8009 13.599 10.3914 13.6602L10.1111 13.666C8.62104 13.6659 7.00639 13.1393 5.84256 12.248C4.65001 13.3168 3.99995 14.7014 3.99979 16.207C3.99979 16.3768 3.99923 16.5364 4.00955 16.6963C4.0177 16.8221 4.0343 16.9227 4.05155 17H16.1707C16.1879 16.9226 16.2045 16.8213 16.2127 16.6953C16.223 16.5357 16.2224 16.3765 16.2224 16.207C16.2223 14.7014 15.5722 13.3168 14.3797 12.248Z" fill="#1F1F22"/>
<path fill-rule="evenodd" clip-rule="evenodd" d="M10.1111 1C12.5964 1 14.6111 3.01472 14.6111 5.5C14.6111 7.98528 12.5964 10 10.1111 10C7.62594 9.99988 5.61112 7.98521 5.61112 5.5C5.61112 3.01479 7.62594 1.00012 10.1111 1ZM10.1111 3C8.7305 3.00012 7.61112 4.11936 7.61112 5.5C7.61112 6.88064 8.7305 7.99988 10.1111 8C11.4918 8 12.6111 6.88071 12.6111 5.5C12.6111 4.11929 11.4918 3 10.1111 3Z" fill="#1F1F22"/>
</svg>
