<svg width="24" height="24" viewBox="0 0 24 24" fill="none" xmlns="http://www.w3.org/2000/svg">
<path fill-rule="evenodd" clip-rule="evenodd" d="M11 4.07C10.82 4.09 10.65 4.12 10.48 4.16C10.07 4.25 9.66 4.38 9.27 4.55C8.87 4.71 8.5 4.91 8.14 5.15C7.75 5.41 7.39 5.71 7.05 6.05C6.71 6.39 6.41 6.75 6.15 7.14C5.91 7.5 5.71 7.87 5.55 8.27C5.38 8.66 5.25 9.07 5.16 9.48C5.05 9.97 5 10.48 5 11V17H4C3.44 17 3 17.43 3 18C3 18.56 3.44 19 4 19H20C20.56 19 21 18.56 21 18C21 17.43 20.56 17 20 17H19V11C19 10.48 18.94 9.97 18.83 9.48C18.74 9.07 18.61 8.66 18.44 8.27C18.28 7.87 18.08 7.5 17.84 7.14C17.58 6.75 17.28 6.39 16.94 6.05C16.6 5.71 16.24 5.41 15.85 5.15C15.49 4.91 15.12 4.71 14.72 4.55C14.33 4.38 13.92 4.25 13.51 4.16C13.34 4.12 13.17 4.09 13 4.07V3C13 2.43 12.56 2 12 2C11.44 2 11 2.43 11 3V4.07ZM17 17V11C17 10.61 16.95 10.24 16.87 9.87C16.81 9.59 16.72 9.32 16.6 9.05C16.49 8.77 16.35 8.51 16.18 8.26C16 7.97 15.78 7.71 15.53 7.46C15.28 7.21 15.02 6.99 14.73 6.81C14.48 6.64 14.22 6.5 13.94 6.39C13.67 6.27 13.4 6.18 13.12 6.12C12.75 6.04 12.38 6 12 6C11.61 6 11.24 6.04 10.87 6.12C10.59 6.18 10.32 6.27 10.05 6.39C9.77 6.5 9.51 6.64 9.26 6.81C8.97 6.99 8.71 7.21 8.46 7.46C8.21 7.71 7.99 7.97 7.81 8.26C7.64 8.51 7.5 8.77 7.39 9.05C7.27 9.32 7.18 9.59 7.12 9.87C7.04 10.24 7 10.61 7 11V17H17ZM14 20H10C9.43 20 9 20.43 9 21C9 21.56 9.43 22 10 22H14C14.56 22 15 21.56 15 21C15 20.43 14.56 20 14 20Z" fill="#1F1F22"/>
</svg>
