<svg width="32.000000" height="32.000000" viewBox="0 0 32 32" fill="none" xmlns="http://www.w3.org/2000/svg" xmlns:xlink="http://www.w3.org/1999/xlink">
	<desc>
			Created with Pixso.
	</desc>
	<defs/>
	<path id="Union" d="M13.71 6.37C11.02 6.37 8.85 8.54 8.85 11.23C8.85 13.91 11.02 16.08 13.71 16.08C16.39 16.08 18.56 13.91 18.56 11.23C18.56 8.54 16.39 6.37 13.71 6.37ZM19.33 7.27C19.4 6.72 19.91 6.34 20.46 6.42C22.81 6.76 24.62 8.78 24.62 11.23C24.62 13.16 23.48 14.83 21.85 15.61C21.35 15.85 20.75 15.64 20.51 15.14C20.28 14.64 20.49 14.04 20.99 13.81C21.96 13.35 22.62 12.36 22.62 11.23C22.62 9.79 21.56 8.6 20.17 8.4C19.63 8.32 19.25 7.81 19.33 7.27ZM10.85 11.23C10.85 9.65 12.13 8.37 13.71 8.37C15.28 8.37 16.56 9.65 16.56 11.23C16.56 12.8 15.28 14.08 13.71 14.08C12.13 14.08 10.85 12.8 10.85 11.23ZM20.44 26L6.98 26C6.11 26 5.31 25.4 5.14 24.5C5.04 24.01 5 23.51 5 23.02C5 20.62 6.09 18.35 7.97 16.78L7.97 16.78C8.66 16.2 9.68 16.19 10.38 16.76L10.38 16.76C11.28 17.49 12.44 17.9 13.64 17.9C14.86 17.9 16.04 17.48 16.94 16.72C17.64 16.14 18.66 16.14 19.36 16.71L19.36 16.71C21.29 18.28 22.42 20.58 22.42 23.02C22.42 23.51 22.37 24.01 22.28 24.5C22.11 25.4 21.3 26 20.44 26ZM24.32 17.19C23.92 16.81 23.28 16.82 22.9 17.22C22.52 17.62 22.53 18.25 22.93 18.63C24.14 19.81 24.82 21.38 24.82 23.02C24.82 23.38 24.79 23.76 24.72 24.13C24.61 24.67 24.97 25.19 25.51 25.3C26.06 25.4 26.58 25.04 26.68 24.5C26.78 24.01 26.82 23.51 26.82 23.02C26.82 20.82 25.91 18.74 24.32 17.19ZM18.16 18.31C16.9 19.34 15.29 19.9 13.64 19.9C12.02 19.9 10.44 19.36 9.19 18.37C7.78 19.57 7 21.26 7 23.02C7 23.34 7.02 23.67 7.08 24L20.33 24C20.39 23.67 20.42 23.34 20.42 23.02C20.42 21.23 19.61 19.52 18.16 18.31Z" fill="#1F1F22" fill-opacity="1.000000" fill-rule="evenodd"/>
</svg>
