<svg width="32.000000" height="32.000000" viewBox="0 0 32 32" fill="none" xmlns="http://www.w3.org/2000/svg" xmlns:xlink="http://www.w3.org/1999/xlink">
	<desc>
			Created with Pixso.
	</desc>
	<defs/>
	<path id="Union" d="M29 16C29 23.17 23.17 29 16 29C8.82 29 3 23.17 3 16C3 8.82 8.82 3 16 3C23.17 3 29 8.82 29 16ZM24.36 23.14C24.34 23.11 24.31 23.06 24.29 23.02C23.79 21.94 23.02 21 21.97 20.12C21.25 19.51 20.26 19.56 19.58 20.04C18.39 20.87 17.19 21.5 16 21.5C14.8 21.5 13.6 20.87 12.41 20.04C11.73 19.56 10.74 19.51 10.02 20.12C8.97 21 8.2 21.94 7.7 23.02C7.68 23.06 7.66 23.11 7.64 23.15C5.99 21.23 5 18.73 5 16C5 9.92 9.92 5 16 5C22.07 5 27 9.92 27 16C27 18.72 26 21.22 24.36 23.14ZM16 9C13.23 9 11 11.23 11 14C11 16.76 13.23 19 16 19C18.76 19 21 16.76 21 14C21 11.23 18.76 9 16 9ZM13 14C13 12.34 14.34 11 16 11C17.65 11 19 12.34 19 14C19 15.65 17.65 17 16 17C14.34 17 13 15.65 13 14ZM22.77 24.66C20.9 26.12 18.55 27 16 27C13.44 27 11.09 26.12 9.22 24.66C9.24 24.59 9.26 24.52 9.28 24.46C9.34 24.25 9.42 24.05 9.51 23.86C9.86 23.11 10.41 22.4 11.27 21.68L11.27 21.68C12.51 22.54 14.15 23.5 16 23.5C17.84 23.5 19.48 22.54 20.72 21.68L20.72 21.68C21.58 22.4 22.13 23.11 22.48 23.86C22.56 24.04 22.64 24.23 22.7 24.42C22.73 24.5 22.75 24.58 22.77 24.66Z" fill="#1F1F22" fill-opacity="1.000000" fill-rule="evenodd"/>
</svg>
