<svg width="24.000000" height="24.000000" viewBox="0 0 24 24" fill="none" xmlns="http://www.w3.org/2000/svg" xmlns:xlink="http://www.w3.org/1999/xlink">
	<desc>
			Created with Pixso.
	</desc>
	<defs/>
	<path id="Union" d="M20.98 7.5L7.05 7.5L6 3.76C5.93 3.47 5.74 3.22 5.47 3.09L3.46 2.1C2.96 1.85 2.35 2.06 2.1 2.55C1.85 3.04 2.06 3.64 2.56 3.89L4.14 4.68L7.15 15.52C7.39 16.39 8.19 16.99 9.1 16.99L18.56 16.99C19.52 16.99 20.35 16.33 20.54 15.41L21.97 8.7C22.11 8.08 21.63 7.5 20.98 7.5ZM8.07 20C8.07 21.1 8.97 22 10.09 22C11.21 22 12.11 21.1 12.11 20C12.11 18.89 11.21 17.99 10.09 17.99C8.97 17.99 8.07 18.89 8.07 20ZM17.17 22C16.05 22 15.15 21.1 15.15 19.99C15.15 18.89 16.05 17.99 17.17 17.99C18.29 17.99 19.2 18.89 19.2 19.99C19.2 21.1 18.29 22 17.17 22Z" fill="#1F1F22" fill-opacity="1.000000" fill-rule="evenodd"/>
</svg>
