<svg width="20" height="20" viewBox="0 0 20 20" fill="none" xmlns="http://www.w3.org/2000/svg">
<path fill-rule="evenodd" clip-rule="evenodd" d="M8 1C5.51 1 3.5 3.01 3.5 5.5C3.5 7.98 5.51 10 8 10C10.48 10 12.5 7.98 12.5 5.5C12.5 3.01 10.48 1 8 1ZM13.01 1.89C13.08 1.34 13.59 0.96 14.14 1.04C16.32 1.35 18 3.23 18 5.5C18 7.29 16.94 8.84 15.42 9.56C14.93 9.8 14.33 9.59 14.09 9.09C13.85 8.59 14.07 7.99 14.57 7.75C15.41 7.35 16 6.49 16 5.5C16 4.24 15.06 3.19 13.85 3.02C13.31 2.94 12.93 2.44 13.01 1.89ZM5.5 5.5C5.5 4.11 6.61 3 8 3C9.38 3 10.5 4.11 10.5 5.5C10.5 6.88 9.38 8 8 8C6.61 8 5.5 6.88 5.5 5.5ZM15.87 17.56C15.7 18.43 14.93 19 14.1 19H1.89C1.06 19 0.29 18.43 0.12 17.56C0.04 17.11 0 16.65 0 16.2C0 14 1 11.91 2.72 10.47L2.73 10.46C3.39 9.91 4.37 9.91 5.04 10.45C5.84 11.1 6.87 11.46 7.93 11.46C9.02 11.46 10.07 11.09 10.87 10.41C11.54 9.86 12.52 9.86 13.19 10.4C14.96 11.84 16 13.96 16 16.2C16 16.65 15.95 17.11 15.87 17.56ZM17.69 10.85C17.29 10.46 16.66 10.47 16.28 10.87C15.89 11.27 15.9 11.9 16.3 12.29C17.39 13.34 18 14.74 18 16.2C18 16.53 17.96 16.86 17.9 17.19C17.8 17.73 18.15 18.26 18.7 18.36C19.24 18.46 19.76 18.11 19.87 17.56C19.95 17.11 20 16.65 20 16.2C20 14.18 19.16 12.26 17.69 10.85ZM12.04 12.05C10.88 12.97 9.43 13.46 7.93 13.46C6.47 13.46 5.04 12.98 3.89 12.1C2.68 13.17 2 14.66 2 16.2C2 16.46 2.02 16.73 2.06 17H13.93C13.97 16.73 14 16.46 14 16.2C14 14.63 13.29 13.12 12.04 12.05Z" fill="#1F1F22"/>
</svg>
