<svg width="24" height="24" viewBox="0 0 24 24" fill="none" xmlns="http://www.w3.org/2000/svg">
<path fill-rule="evenodd" clip-rule="evenodd" d="M6.66 2.99999L13.67 2.98999C14.2 2.98999 14.71 3.20999 15.08 3.57999L19.41 7.90999C19.78 8.27999 20 8.78999 20 9.31999V18.29C20 19.79 18.8 21 17.33 21H6.66C5.19 21 4 19.79 4 18.29V5.69999C4 4.19999 5.19 2.99999 6.66 2.99999ZM8 13C8 12.44 8.44 12 9 12H15C15.55 12 16 12.44 16 13C16 13.55 15.55 14 15 14H9C8.44 14 8 13.55 8 13ZM9 16C8.44 16 8 16.44 8 17C8 17.55 8.44 18 9 18H15C15.55 18 16 17.55 16 17C16 16.44 15.55 16 15 16H9Z" fill="#1F1F22"/>
</svg>
