<svg width="20" height="20" viewBox="0 0 20 20" fill="none" xmlns="http://www.w3.org/2000/svg">
<path fill-rule="evenodd" clip-rule="evenodd" d="M5.5 15V19C5.5 19.56 5.93 20 6.5 20C7.06 20 7.5 19.56 7.5 19V15H12C12.56 15 13 14.56 13 14C13 13.43 12.56 13 12 13H7.5V11.5H11.75C12.17 11.5 12.58 11.45 12.99 11.36C13.33 11.29 13.66 11.18 13.98 11.04C14.67 10.75 15.28 10.34 15.81 9.81C16.09 9.53 16.34 9.23 16.55 8.91C16.74 8.62 16.9 8.31 17.04 7.98C17.18 7.66 17.29 7.33 17.36 6.99C17.45 6.58 17.5 6.17 17.5 5.75C17.5 5.32 17.45 4.91 17.36 4.5C17.29 4.16 17.18 3.83 17.04 3.51C16.9 3.18 16.74 2.87 16.55 2.58C16.34 2.26 16.09 1.96 15.81 1.68C15.53 1.4 15.23 1.15 14.91 0.94C14.62 0.75 14.31 0.59 13.98 0.45C13.66 0.31 13.33 0.2 12.99 0.13C12.58 0.04 12.17 0 11.75 0H6.5C6.16 0 5.91 0.08 5.75 0.25C5.58 0.41 5.5 0.66 5.5 1V9.5H4C3.43 9.5 3 9.93 3 10.5C3 11.06 3.43 11.5 4 11.5H5.5V13H4C3.43 13 3 13.43 3 14C3 14.56 3.43 15 4 15H5.5ZM7.5 9.5H11.75C12.03 9.5 12.32 9.46 12.59 9.4C12.8 9.35 13 9.29 13.2 9.2C13.41 9.11 13.61 9.01 13.79 8.89C14.01 8.75 14.21 8.58 14.4 8.4C14.58 8.21 14.75 8.01 14.89 7.79C15.01 7.61 15.11 7.41 15.2 7.2C15.29 7 15.35 6.8 15.4 6.59C15.46 6.32 15.5 6.03 15.5 5.75C15.5 5.46 15.46 5.17 15.4 4.9C15.35 4.69 15.29 4.49 15.2 4.29C15.01 3.84 14.74 3.44 14.4 3.09C14.21 2.91 14.01 2.74 13.79 2.6C13.61 2.48 13.41 2.38 13.2 2.29C13 2.2 12.8 2.14 12.59 2.09C12.32 2.03 12.03 2 11.75 2H7.5V9.5Z" fill="#1F1F22"/>
</svg>
