<svg width="56" height="56" viewBox="0 0 56 56" fill="none" xmlns="http://www.w3.org/2000/svg">
<g filter="url(#filter0_d_35122:1501)">
<path fill-rule="evenodd" clip-rule="evenodd" d="M28 47C39.598 47 49 37.598 49 26C49 14.402 39.598 5 28 5C16.402 5 7 14.402 7 26C7 37.598 16.402 47 28 47Z" fill="white"/>
</g>
<path fill-rule="evenodd" clip-rule="evenodd" d="M23.2065 19.7929C22.816 19.4024 22.1828 19.4024 21.7923 19.7929C21.4018 20.1834 21.4018 20.8166 21.7923 21.2071L26.5858 26.0006L21.7935 30.7929C21.403 31.1834 21.403 31.8166 21.7935 32.2071C22.184 32.5976 22.8172 32.5976 23.2077 32.2071L28 27.4148L32.7923 32.2071C33.1828 32.5976 33.816 32.5976 34.2065 32.2071C34.5971 31.8166 34.5971 31.1834 34.2065 30.7929L29.4142 26.0005L34.2076 21.2071C34.5981 20.8166 34.5981 20.1834 34.2075 19.7929C33.817 19.4024 33.1839 19.4024 32.7933 19.7929L28 24.5863L23.2065 19.7929Z" fill="#1F1F22"/>
<defs>
<filter id="filter0_d_35122:1501" x="0" y="0" width="56" height="56" filterUnits="userSpaceOnUse" color-interpolation-filters="sRGB">
<feFlood flood-opacity="0" result="BackgroundImageFix"/>
<feColorMatrix in="SourceAlpha" type="matrix" values="0 0 0 0 0 0 0 0 0 0 0 0 0 0 0 0 0 0 127 0" result="hardAlpha"/>
<feOffset dy="2"/>
<feGaussianBlur stdDeviation="3.5"/>
<feColorMatrix type="matrix" values="0 0 0 0 0.121569 0 0 0 0 0.121569 0 0 0 0 0.133333 0 0 0 0.25 0"/>
<feBlend mode="normal" in2="BackgroundImageFix" result="effect1_dropShadow_35122:1501"/>
<feBlend mode="normal" in="SourceGraphic" in2="effect1_dropShadow_35122:1501" result="shape"/>
</filter>
</defs>
</svg>
