<svg width="48" height="48" viewBox="0 0 48 48" fill="none" xmlns="http://www.w3.org/2000/svg">
<g filter="url(#filter0_d_49350_5065)">
<path fill-rule="evenodd" clip-rule="evenodd" d="M29.8602 36.7978C29.9746 36.6508 30.1282 36.5392 30.3017 36.4717C36.7823 33.9484 41.375 27.6479 41.375 20.2747C41.375 10.6788 33.5959 2.8997 24 2.8997C14.4041 2.8997 6.625 10.6788 6.625 20.2747C6.625 27.6479 11.2176 33.9484 17.6983 36.4716C17.8718 36.5392 18.0254 36.6508 18.1397 36.7977L23.2106 43.3175C23.611 43.8322 24.389 43.8322 24.7893 43.3175L29.8602 36.7978Z" fill="#21A19A"/>
</g>
<path fill-rule="evenodd" clip-rule="evenodd" d="M29.576 34.6079C35.3141 32.3738 39.375 26.796 39.375 20.2747C39.375 11.7833 32.4914 4.8997 24 4.8997C15.5086 4.8997 8.625 11.7833 8.625 20.2747C8.625 26.796 12.6858 32.3738 18.4239 34.6079C18.9174 34.8001 19.3717 35.1241 19.7184 35.5699L24 41.0747L28.2815 35.5699C28.6283 35.1241 29.0826 34.8001 29.576 34.6079ZM30.3017 36.4717C30.1282 36.5392 29.9746 36.6508 29.8602 36.7978L24.7893 43.3175C24.389 43.8322 23.611 43.8322 23.2106 43.3175L18.1397 36.7977C18.0254 36.6508 17.8718 36.5392 17.6983 36.4716C11.2176 33.9484 6.625 27.6479 6.625 20.2747C6.625 10.6788 14.4041 2.8997 24 2.8997C33.5959 2.8997 41.375 10.6788 41.375 20.2747C41.375 27.6479 36.7823 33.9484 30.3017 36.4717Z" fill="#E4E8EB"/>
<path d="M33.7092 18.4204C33.8146 19.0035 33.8673 19.595 33.8666 20.1877C33.8665 22.4254 33.1058 24.5967 31.7092 26.3452C30.3126 28.0936 28.3632 29.3154 26.1808 29.81C23.9983 30.3046 21.7126 30.0427 19.6987 29.0671C17.6848 28.0916 16.0623 26.4604 15.0975 24.4413C14.1327 22.4222 13.883 20.1351 14.3892 17.9554C14.8955 15.7756 16.1277 13.8327 17.8836 12.4455C19.6395 11.0583 21.8148 10.3092 24.0525 10.3211C26.2902 10.333 28.4574 11.1052 30.1985 12.511L28.2789 13.9259C26.8783 12.9688 25.1975 12.5082 23.5046 12.6178C21.8117 12.7273 20.2043 13.4006 18.9387 14.5303C17.6731 15.6599 16.8223 17.1809 16.522 18.8505C16.2216 20.5201 16.4891 22.2422 17.2817 23.7421C18.0742 25.242 19.3462 26.4333 20.8948 27.1259C22.4434 27.8185 24.1793 27.9726 25.8257 27.5635C27.472 27.1545 28.934 26.2059 29.9783 24.869C31.0227 23.5322 31.5893 21.8841 31.5877 20.1877V19.9858L33.7092 18.4204Z" fill="#E4E8EB"/>
<path d="M32.9906 16.1175C32.6744 15.4201 32.2777 14.762 31.8084 14.1569L24.0017 19.9037L20.2464 17.5564V20.3878L24.0017 22.742L32.9906 16.1175Z" fill="#E4E8EB"/>
<defs>
<filter id="filter0_d_49350_5065" x="3.625" y="0.899704" width="40.75" height="46.8038" filterUnits="userSpaceOnUse" color-interpolation-filters="sRGB">
<feFlood flood-opacity="0" result="BackgroundImageFix"/>
<feColorMatrix in="SourceAlpha" type="matrix" values="0 0 0 0 0 0 0 0 0 0 0 0 0 0 0 0 0 0 127 0" result="hardAlpha"/>
<feOffset dy="1"/>
<feGaussianBlur stdDeviation="1.5"/>
<feComposite in2="hardAlpha" operator="out"/>
<feColorMatrix type="matrix" values="0 0 0 0 0 0 0 0 0 0 0 0 0 0 0 0 0 0 0.18 0"/>
<feBlend mode="normal" in2="BackgroundImageFix" result="effect1_dropShadow_49350_5065"/>
<feBlend mode="normal" in="SourceGraphic" in2="effect1_dropShadow_49350_5065" result="shape"/>
</filter>
</defs>
</svg>
