<svg width="48" height="48" viewBox="0 0 48 48" fill="none" xmlns="http://www.w3.org/2000/svg">
<g filter="url(#filter0_d_35122_1500)">
<path fill-rule="evenodd" clip-rule="evenodd" d="M24 43C35.0457 43 44 34.0457 44 23C44 11.9543 35.0457 3 24 3C12.9543 3 4 11.9543 4 23C4 34.0457 12.9543 43 24 43Z" fill="white"/>
</g>
<path fill-rule="evenodd" clip-rule="evenodd" d="M25 15C25 14.4477 24.5523 14 24 14C23.4477 14 23 14.4477 23 15V22H16C15.4477 22 15 22.4477 15 23C15 23.5523 15.4477 24 16 24H23V31C23 31.5523 23.4477 32 24 32C24.5523 32 25 31.5523 25 31V24H32C32.5523 24 33 23.5523 33 23C33 22.4477 32.5523 22 32 22H25V15Z" fill="#1F1F22"/>
<defs>
<filter id="filter0_d_35122_1500" x="1" y="1" width="46" height="46" filterUnits="userSpaceOnUse" color-interpolation-filters="sRGB">
<feFlood flood-opacity="0" result="BackgroundImageFix"/>
<feColorMatrix in="SourceAlpha" type="matrix" values="0 0 0 0 0 0 0 0 0 0 0 0 0 0 0 0 0 0 127 0" result="hardAlpha"/>
<feOffset dy="1"/>
<feGaussianBlur stdDeviation="1.5"/>
<feComposite in2="hardAlpha" operator="out"/>
<feColorMatrix type="matrix" values="0 0 0 0 0 0 0 0 0 0 0 0 0 0 0 0 0 0 0.18 0"/>
<feBlend mode="normal" in2="BackgroundImageFix" result="effect1_dropShadow_35122_1500"/>
<feBlend mode="normal" in="SourceGraphic" in2="effect1_dropShadow_35122_1500" result="shape"/>
</filter>
</defs>
</svg>
