<svg width="16" height="16" viewBox="0 0 16 16" fill="none" xmlns="http://www.w3.org/2000/svg">
<path fill-rule="evenodd" clip-rule="evenodd" d="M0 8C0 3.58 3.58 0 8 0C12.41 0 16 3.58 16 8C16 12.41 12.41 16 8 16C3.58 16 0 12.41 0 8Z" fill="#224DA6"/>
<path fill-rule="evenodd" clip-rule="evenodd" d="M10.38 7.97014H9.65997V6.92014H10.29C11.21 6.92014 11.55 6.58014 11.55 5.90014C11.55 5.33014 11.29 5.05014 10.35 5.05014C9.64997 5.05014 8.98997 5.31014 8.52997 5.61014V4.32014C9.07997 4.08014 9.94997 3.89014 10.66 3.89014C12.38 3.89014 12.88 4.54014 12.88 5.67014C12.88 6.56014 12.44 7.12014 11.58 7.35014C12.64 7.48014 13.09 8.07014 13.09 9.02014C13.09 10.3401 12.37 11.1001 10.52 11.1001C9.77997 11.1001 8.95997 10.9301 8.43997 10.6701V9.29014C8.89997 9.64014 9.62997 9.94014 10.36 9.94014C11.51 9.94014 11.76 9.54014 11.76 8.90014C11.76 8.29014 11.44 7.97014 10.38 7.97014ZM7.50997 11.0001H3.08997V9.93014H4.90997V5.43014L3.08997 6.62014V5.43014L5.28997 4.00014H6.17997V9.93014H7.50997V11.0001Z" fill="#181819"/>
</svg>
