<svg width="48" height="48" viewBox="0 0 48 48" fill="none" xmlns="http://www.w3.org/2000/svg">
<g filter="url(#filter0_d_51450_112)">
<path fill-rule="evenodd" clip-rule="evenodd" d="M24 43C35.0457 43 44 34.0457 44 23C44 11.9543 35.0457 3 24 3C12.9543 3 4 11.9543 4 23C4 34.0457 12.9543 43 24 43Z" fill="#B2B8BF"/>
</g>
<path fill-rule="evenodd" clip-rule="evenodd" d="M15 23C15 22.4477 15.4477 22 16 22H32C32.5523 22 33 22.4477 33 23C33 23.5523 32.5523 24 32 24H16C15.4477 24 15 23.5523 15 23Z" fill="#7D838A"/>
<defs>
<filter id="filter0_d_51450_112" x="1" y="1" width="46" height="46" filterUnits="userSpaceOnUse" color-interpolation-filters="sRGB">
<feFlood flood-opacity="0" result="BackgroundImageFix"/>
<feColorMatrix in="SourceAlpha" type="matrix" values="0 0 0 0 0 0 0 0 0 0 0 0 0 0 0 0 0 0 127 0" result="hardAlpha"/>
<feOffset dy="1"/>
<feGaussianBlur stdDeviation="1.5"/>
<feComposite in2="hardAlpha" operator="out"/>
<feColorMatrix type="matrix" values="0 0 0 0 0 0 0 0 0 0 0 0 0 0 0 0 0 0 0.18 0"/>
<feBlend mode="normal" in2="BackgroundImageFix" result="effect1_dropShadow_51450_112"/>
<feBlend mode="normal" in="SourceGraphic" in2="effect1_dropShadow_51450_112" result="shape"/>
</filter>
</defs>
</svg>
