<svg width="32" height="32" viewBox="0 0 32 32" fill="none" xmlns="http://www.w3.org/2000/svg">
<g filter="url(#filter0_d_49350_5079)">
<path fill-rule="evenodd" clip-rule="evenodd" d="M19.7441 23.8584C19.8584 23.713 20.0121 23.603 20.185 23.5347C24.3456 21.89 27.2851 17.8664 27.2851 13.1638C27.2851 6.99805 22.232 1.99973 15.9986 1.99973C9.76529 1.99973 4.71216 6.99805 4.71216 13.1638C4.71216 17.8664 7.65166 21.89 11.8123 23.5347C11.9852 23.603 12.1389 23.713 12.2532 23.8584L15.2093 27.6179C15.6096 28.127 16.3876 28.127 16.788 27.6179L19.7441 23.8584Z" fill="#107F8C"/>
</g>
<path fill-rule="evenodd" clip-rule="evenodd" d="M19.4428 21.6976C22.8697 20.343 25.2851 17.03 25.2851 13.1638C25.2851 8.09064 21.1274 3.97803 15.9986 3.97803C10.8699 3.97803 6.71216 8.09064 6.71216 13.1638C6.71216 17.03 9.12755 20.343 12.5545 21.6976C13.0322 21.8865 13.4836 22.2009 13.8319 22.6438L15.9986 25.3994L18.1654 22.6438C18.5137 22.2009 18.9651 21.8865 19.4428 21.6976ZM20.185 23.5347C20.0121 23.603 19.8584 23.713 19.7441 23.8584L16.788 27.6179C16.3876 28.127 15.6096 28.127 15.2093 27.6179L12.2532 23.8584C12.1389 23.713 11.9852 23.603 11.8123 23.5347C7.65166 21.89 4.71216 17.8664 4.71216 13.1638C4.71216 6.99805 9.76529 1.99973 15.9986 1.99973C22.232 1.99973 27.2851 6.99805 27.2851 13.1638C27.2851 17.8664 24.3456 21.89 20.185 23.5347Z" fill="#E4E8EB"/>
<path d="M22.2733 12.1598C22.3414 12.5366 22.3754 12.9187 22.375 13.3017C22.375 14.7475 21.8834 16.1504 20.9811 17.2802C20.0787 18.4099 18.8191 19.1993 17.409 19.5189C15.9989 19.8384 14.5221 19.6692 13.2208 19.0389C11.9196 18.4085 10.8713 17.3546 10.2479 16.05C9.62456 14.7454 9.46319 13.2677 9.79028 11.8593C10.1174 10.451 10.9135 9.1956 12.048 8.29928C13.1826 7.40297 14.5881 6.91894 16.0339 6.92663C17.4798 6.93433 18.88 7.43328 20.005 8.34162L18.7647 9.2558C17.8597 8.63737 16.7737 8.33981 15.6799 8.41058C14.5861 8.48136 13.5475 8.91639 12.7298 9.64629C11.9121 10.3762 11.3624 11.3589 11.1683 12.4377C10.9742 13.5165 11.147 14.6291 11.6591 15.5983C12.1712 16.5674 12.9931 17.3371 13.9937 17.7846C14.9943 18.2321 16.1159 18.3317 17.1796 18.0674C18.2434 17.8031 19.188 17.1901 19.8627 16.3264C20.5375 15.4626 20.9036 14.3978 20.9026 13.3017V13.1712L22.2733 12.1598Z" fill="#E4E8EB"/>
<path d="M21.809 10.6719C21.6047 10.2212 21.3484 9.79604 21.0452 9.40503L16.0011 13.1182L13.5747 11.6015V13.431L16.0011 14.9521L21.809 10.6719Z" fill="#E4E8EB"/>
<defs>
<filter id="filter0_d_49350_5079" x="1.71216" y="-0.000274658" width="28.573" height="32" filterUnits="userSpaceOnUse" color-interpolation-filters="sRGB">
<feFlood flood-opacity="0" result="BackgroundImageFix"/>
<feColorMatrix in="SourceAlpha" type="matrix" values="0 0 0 0 0 0 0 0 0 0 0 0 0 0 0 0 0 0 127 0" result="hardAlpha"/>
<feOffset dy="1"/>
<feGaussianBlur stdDeviation="1.5"/>
<feComposite in2="hardAlpha" operator="out"/>
<feColorMatrix type="matrix" values="0 0 0 0 0 0 0 0 0 0 0 0 0 0 0 0 0 0 0.18 0"/>
<feBlend mode="normal" in2="BackgroundImageFix" result="effect1_dropShadow_49350_5079"/>
<feBlend mode="normal" in="SourceGraphic" in2="effect1_dropShadow_49350_5079" result="shape"/>
</filter>
</defs>
</svg>
