<svg width="16" height="16" viewBox="0 0 16 16" fill="none" xmlns="http://www.w3.org/2000/svg">
<path fill-rule="evenodd" clip-rule="evenodd" d="M0 8C0 3.58 3.58 0 8 0C12.41 0 16 3.58 16 8C16 12.41 12.41 16 8 16C3.58 16 0 12.41 0 8Z" fill="#F58320"/>
<path d="M8.14002 11.1201C9.52002 11.1201 10.45 10.3601 10.45 8.63012C10.45 7.26012 9.81002 6.45012 8.49002 6.45012C7.71002 6.45012 7.13002 6.82012 6.77002 7.55012V7.28012C6.77002 5.69012 7.60002 5.02012 8.56002 5.02012C9.24002 5.02012 9.71002 5.18012 10.02 5.39012V4.10012C9.62002 3.93012 9.10002 3.87012 8.59002 3.87012C6.62002 3.87012 5.65002 5.14012 5.65002 7.75012C5.65002 9.95012 6.32002 11.1201 8.14002 11.1201ZM8.09002 10.0501C7.37002 10.0501 6.96002 9.43012 6.95002 8.60012C7.02002 7.91012 7.41002 7.43012 8.12002 7.43012C8.80002 7.43012 9.17002 7.79012 9.17002 8.72012C9.17002 9.64012 8.69002 10.0501 8.09002 10.0501Z" fill="#181819"/>
</svg>
