<svg width="48" height="54" viewBox="0 0 48 54" fill="none" xmlns="http://www.w3.org/2000/svg">
<g filter="url(#filter0_d_28399_32)">
<path d="M30.045 43.2279C30.1138 43.1394 30.2046 43.0686 30.3115 43.035C38.8255 40.3555 45 32.3988 45 23C45 11.402 35.598 2 24 2C12.402 2 3 11.402 3 23C3 32.3988 9.1745 40.3555 17.6885 43.035C17.7954 43.0686 17.8862 43.1394 17.955 43.2279L22.4213 48.9702C23.222 49.9997 24.778 49.9997 25.5787 48.9702L30.045 43.2279Z" fill="#005E7F"/>
</g>
<path fill-rule="evenodd" clip-rule="evenodd" d="M30.045 43.2279L25.5787 48.9702C24.8781 49.871 23.5992 49.9836 22.754 49.308C22.6333 49.2115 22.5214 49.0989 22.4213 48.9702L17.955 43.2279C17.8862 43.1394 17.7954 43.0686 17.6885 43.035C9.1745 40.3555 3 32.3988 3 23C3 11.402 12.402 2 24 2C35.598 2 45 11.402 45 23C45 32.3988 38.8255 40.3555 30.3115 43.035C30.2046 43.0686 30.1138 43.1394 30.045 43.2279ZM29.7111 41.1272C37.4161 38.7023 43 31.5007 43 23C43 12.5066 34.4934 4 24 4C13.5066 4 5 12.5066 5 23C5 30.4381 9.2752 36.8816 15.5057 40.0008C16.3958 40.4464 17.3258 40.8241 18.2889 41.1272C18.8553 41.3055 19.2662 41.656 19.5337 42L24 47.7424L28.4663 42C28.7171 41.6775 29.0939 41.3493 29.6067 41.1626C29.6409 41.1502 29.6757 41.1384 29.7111 41.1272ZM36 23.0002C36.0008 22.2794 35.9368 21.56 35.8086 20.8508L33.2284 22.7547V23.0002C33.2303 25.0635 32.5412 27.0679 31.271 28.6938C30.0009 30.3197 28.2228 31.4734 26.2205 31.9709C24.2181 32.4684 22.1068 32.2811 20.2234 31.4387C18.34 30.5963 16.7929 29.1474 15.829 27.3232C14.865 25.499 14.5398 23.4045 14.905 21.3739C15.2703 19.3433 16.3051 17.4935 17.8443 16.1195C19.3836 14.7456 21.3386 13.9267 23.3975 13.7935C25.4564 13.6603 27.5006 14.2204 29.2041 15.3845L31.5388 13.6637C29.4213 11.9539 26.7854 11.0146 24.0638 11.0002C21.3423 10.9857 18.6966 11.8968 16.561 13.584C14.4254 15.2712 12.9268 17.6342 12.3111 20.2852C11.6954 22.9363 11.9992 25.7179 13.1726 28.1736C14.346 30.6293 16.3193 32.6132 18.7686 33.7997C21.218 34.9861 23.998 35.3048 26.6523 34.7032C29.3066 34.1017 31.6776 32.6157 33.3762 30.4892C35.0747 28.3626 35.9999 25.7219 36 23.0002ZM33.4968 15.6654C34.0675 16.4014 34.5501 17.2017 34.9347 18.05L24.0021 26.1069L19.4348 23.2437V19.7999L24.0021 22.6548L33.4968 15.6654Z" fill="white"/>
<defs>
<filter id="filter0_d_28399_32" x="0" y="0" width="48" height="53.7424" filterUnits="userSpaceOnUse" color-interpolation-filters="sRGB">
<feFlood flood-opacity="0" result="BackgroundImageFix"/>
<feColorMatrix in="SourceAlpha" type="matrix" values="0 0 0 0 0 0 0 0 0 0 0 0 0 0 0 0 0 0 127 0" result="hardAlpha"/>
<feOffset dy="1"/>
<feGaussianBlur stdDeviation="1.5"/>
<feColorMatrix type="matrix" values="0 0 0 0 0.121569 0 0 0 0 0.121569 0 0 0 0 0.133333 0 0 0 0.25 0"/>
<feBlend mode="normal" in2="BackgroundImageFix" result="effect1_dropShadow_28399_32"/>
<feBlend mode="normal" in="SourceGraphic" in2="effect1_dropShadow_28399_32" result="shape"/>
</filter>
</defs>
</svg>
