<svg width="16" height="16" viewBox="0 0 16 16" fill="none" xmlns="http://www.w3.org/2000/svg">
<path fill-rule="evenodd" clip-rule="evenodd" d="M0 8C0 3.58 3.58 0 8 0C12.41 0 16 3.58 16 8C16 12.41 12.41 16 8 16C3.58 16 0 12.41 0 8Z" fill="#8E479B"/>
<path d="M5.91001 7.72C6.29001 7.65 6.96001 7.57 7.56001 7.57C8.71001 7.57 9.04001 7.91 9.04001 8.71C9.04001 9.55 8.67001 9.97 7.63001 9.97C6.94001 9.97 6.23001 9.75 5.85001 9.46V10.78C6.38001 11 7.10001 11.12 7.68001 11.12C9.71001 11.12 10.35 10.18 10.35 8.7C10.35 7.34 9.73001 6.56 8.09001 6.56C7.68001 6.56 7.24001 6.59 7.01001 6.62L7.12001 5.14H10.07V4H6.16001L5.91001 7.72Z" fill="white"/>
</svg>
