<svg width="48" height="48" viewBox="0 0 48 48" fill="none" xmlns="http://www.w3.org/2000/svg">
<g filter="url(#filter0_d_49350_5056)">
<path fill-rule="evenodd" clip-rule="evenodd" d="M29.8602 36.798C29.9746 36.6511 30.1282 36.5395 30.3017 36.472C36.7823 33.9487 41.375 27.6482 41.375 20.275C41.375 10.6791 33.5959 2.9 24 2.9C14.4041 2.9 6.625 10.6791 6.625 20.275C6.625 27.6482 11.2176 33.9487 17.6983 36.4719C17.8718 36.5395 18.0254 36.6511 18.1397 36.798L23.2106 43.3178C23.611 43.8325 24.389 43.8325 24.7893 43.3178L29.8602 36.798Z" fill="#21A19A"/>
</g>
<path fill-rule="evenodd" clip-rule="evenodd" d="M29.576 34.6082C35.3141 32.3741 39.375 26.7963 39.375 20.275C39.375 11.7836 32.4914 4.9 24 4.9C15.5086 4.9 8.625 11.7836 8.625 20.275C8.625 26.7963 12.6858 32.3741 18.4239 34.6082C18.9174 34.8004 19.3717 35.1244 19.7184 35.5702L24 41.075L28.2815 35.5702C28.6283 35.1244 29.0826 34.8004 29.576 34.6082ZM30.3017 36.472C30.1282 36.5395 29.9746 36.6511 29.8602 36.798L24.7893 43.3178C24.389 43.8325 23.611 43.8325 23.2106 43.3178L18.1397 36.798C18.0254 36.6511 17.8718 36.5395 17.6983 36.4719C11.2176 33.9487 6.625 27.6482 6.625 20.275C6.625 10.6791 14.4041 2.9 24 2.9C33.5959 2.9 41.375 10.6791 41.375 20.275C41.375 27.6482 36.7823 33.9487 30.3017 36.472Z" fill="#E4E8EB"/>
<path d="M18 19C16.8954 19 16 19.8954 16 21C16 22.1046 16.8954 23 18 23C19.1046 23 20 22.1046 20 21C20 19.8954 19.1046 19 18 19Z" fill="#E4E8EB"/>
<path d="M24 19C22.8954 19 22 19.8954 22 21C22 22.1046 22.8954 23 24 23C25.1046 23 26 22.1046 26 21C26 19.8954 25.1046 19 24 19Z" fill="#E4E8EB"/>
<path d="M28 21C28 19.8954 28.8954 19 30 19C31.1046 19 32 19.8954 32 21C32 22.1046 31.1046 23 30 23C28.8954 23 28 22.1046 28 21Z" fill="#E4E8EB"/>
<defs>
<filter id="filter0_d_49350_5056" x="3.625" y="0.900002" width="40.75" height="46.8038" filterUnits="userSpaceOnUse" color-interpolation-filters="sRGB">
<feFlood flood-opacity="0" result="BackgroundImageFix"/>
<feColorMatrix in="SourceAlpha" type="matrix" values="0 0 0 0 0 0 0 0 0 0 0 0 0 0 0 0 0 0 127 0" result="hardAlpha"/>
<feOffset dy="1"/>
<feGaussianBlur stdDeviation="1.5"/>
<feComposite in2="hardAlpha" operator="out"/>
<feColorMatrix type="matrix" values="0 0 0 0 0 0 0 0 0 0 0 0 0 0 0 0 0 0 0.18 0"/>
<feBlend mode="normal" in2="BackgroundImageFix" result="effect1_dropShadow_49350_5056"/>
<feBlend mode="normal" in="SourceGraphic" in2="effect1_dropShadow_49350_5056" result="shape"/>
</filter>
</defs>
</svg>
