<svg width="16" height="16" viewBox="0 0 16 16" fill="none" xmlns="http://www.w3.org/2000/svg">
<path fill-rule="evenodd" clip-rule="evenodd" d="M0 8C0 3.58 3.58 0 8 0C12.41 0 16 3.58 16 8C16 12.41 12.41 16 8 16C3.58 16 0 12.41 0 8Z" fill="#49B85E"/>
<path d="M5.66003 11.0001H10.23V9.85012H7.47003C9.17003 8.38012 10.19 7.52012 10.19 5.96012C10.19 4.71012 9.60003 3.87012 7.85003 3.87012C7.04003 3.87012 6.31003 4.05012 5.79003 4.33012V5.76012C6.27003 5.35012 6.91003 5.06012 7.62003 5.06012C8.47003 5.06012 8.88003 5.45012 8.88003 6.28012C8.88003 7.58012 7.47003 8.40012 5.66003 10.1501V11.0001Z" fill="#181819"/>
</svg>
