<svg width="16" height="16" viewBox="0 0 16 16" fill="none" xmlns="http://www.w3.org/2000/svg">
<path fill-rule="evenodd" clip-rule="evenodd" d="M0 8C0 3.58 3.58 0 8 0C12.41 0 16 3.58 16 8C16 12.41 12.41 16 8 16C3.58 16 0 12.41 0 8Z" fill="#B4D445"/>
<path fill-rule="evenodd" clip-rule="evenodd" d="M13.24 7.49012C13.24 10.2701 12.39 11.1201 10.84 11.1201C9.34998 11.1201 8.43998 10.2301 8.43998 7.49012C8.43998 4.74012 9.31998 3.87012 10.84 3.87012C12.44 3.87012 13.24 4.67012 13.24 7.49012ZM7.50998 11.0001H3.09998V9.93012H4.90998V5.43012L3.09998 6.62012V5.43012L5.29998 4.00012H6.17998V9.93012H7.50998V11.0001ZM9.76998 7.49012C9.76998 9.51012 10.19 9.94012 10.84 9.94012C11.56 9.94012 11.93 9.57012 11.93 7.49012C11.93 5.43012 11.56 5.06012 10.84 5.06012C10.14 5.06012 9.76998 5.44012 9.76998 7.49012Z" fill="#181819"/>
</svg>
