<svg width="16" height="16" viewBox="0 0 16 16" fill="none" xmlns="http://www.w3.org/2000/svg">
<path fill-rule="evenodd" clip-rule="evenodd" d="M0 8C0 3.58 3.58 0 8 0C12.41 0 16 3.58 16 8C16 12.41 12.41 16 8 16C3.58 16 0 12.41 0 8Z" fill="#0078C0"/>
<path d="M6.81 7.96989H7.54C8.59 7.96989 8.91 8.28989 8.91 8.89989C8.91 9.53989 8.67 9.93989 7.52 9.93989C6.79 9.93989 6.06 9.63989 5.59 9.28989V10.6699C6.11 10.9299 6.93 11.0999 7.67 11.0999C9.52 11.0999 10.25 10.3399 10.25 9.01989C10.25 8.06989 9.79 7.47989 8.73 7.34989C9.6 7.11989 10.04 6.55989 10.04 5.66989C10.04 4.53989 9.53 3.88989 7.81 3.88989C7.11 3.88989 6.23 4.07989 5.68 4.31989V5.60989C6.14 5.30989 6.81 5.04989 7.5 5.04989C8.44 5.04989 8.7 5.32989 8.7 5.89989C8.7 6.57989 8.37 6.91989 7.44 6.91989H6.81V7.96989Z" fill="white"/>
</svg>
