<svg width="48" height="48" viewBox="0 0 48 48" fill="none" xmlns="http://www.w3.org/2000/svg">
<g filter="url(#filter0_d_35122_1398)">
<path fill-rule="evenodd" clip-rule="evenodd" d="M29.8602 36.798C29.9746 36.6511 30.1282 36.5395 30.3017 36.4719C36.7823 33.9487 41.375 27.6482 41.375 20.275C41.375 10.679 33.5959 2.9 24 2.9C14.4041 2.9 6.625 10.679 6.625 20.275C6.625 27.6482 11.2176 33.9487 17.6983 36.4719C17.8718 36.5395 18.0254 36.6511 18.1397 36.798L23.2106 43.3178C23.611 43.8325 24.389 43.8325 24.7893 43.3178L29.8602 36.798Z" fill="#005E7F"/>
</g>
<path fill-rule="evenodd" clip-rule="evenodd" d="M29.576 34.6082C35.3141 32.3741 39.375 26.7963 39.375 20.275C39.375 11.7836 32.4914 4.9 24 4.9C15.5086 4.9 8.625 11.7836 8.625 20.275C8.625 26.7963 12.6858 32.3741 18.4239 34.6082C18.9174 34.8004 19.3717 35.1244 19.7184 35.5702L24 41.075L28.2815 35.5702C28.6283 35.1244 29.0826 34.8004 29.576 34.6082ZM30.3017 36.4719C30.1282 36.5395 29.9746 36.6511 29.8602 36.798L24.7893 43.3178C24.389 43.8325 23.611 43.8325 23.2106 43.3178L18.1397 36.798C18.0254 36.6511 17.8718 36.5395 17.6983 36.4719C11.2176 33.9487 6.625 27.6482 6.625 20.275C6.625 10.679 14.4041 2.9 24 2.9C33.5959 2.9 41.375 10.679 41.375 20.275C41.375 27.6482 36.7823 33.9487 30.3017 36.4719Z" fill="white"/>
<path d="M18 13C16.8954 13 16 13.8954 16 15C16 16.1046 16.8954 17 18 17C19.1046 17 20 16.1046 20 15C20 13.8954 19.1046 13 18 13Z" fill="white"/>
<path d="M24 13C22.8954 13 22 13.8954 22 15C22 16.1046 22.8954 17 24 17C25.1046 17 26 16.1046 26 15C26 13.8954 25.1046 13 24 13Z" fill="white"/>
<path d="M28 15C28 13.8954 28.8954 13 30 13C31.1046 13 32 13.8954 32 15C32 16.1046 31.1046 17 30 17C28.8954 17 28 16.1046 28 15Z" fill="white"/>
<path d="M18 19C16.8954 19 16 19.8954 16 21C16 22.1046 16.8954 23 18 23C19.1046 23 20 22.1046 20 21C20 19.8954 19.1046 19 18 19Z" fill="white"/>
<path d="M22 21C22 19.8954 22.8954 19 24 19C25.1046 19 26 19.8954 26 21C26 22.1046 25.1046 23 24 23C22.8954 23 22 22.1046 22 21Z" fill="white"/>
<path d="M30 19C28.8954 19 28 19.8954 28 21C28 22.1046 28.8954 23 30 23C31.1046 23 32 22.1046 32 21C32 19.8954 31.1046 19 30 19Z" fill="white"/>
<path d="M16 27C16 25.8954 16.8954 25 18 25C19.1046 25 20 25.8954 20 27C20 28.1046 19.1046 29 18 29C16.8954 29 16 28.1046 16 27Z" fill="white"/>
<path d="M24 25C22.8954 25 22 25.8954 22 27C22 28.1046 22.8954 29 24 29C25.1046 29 26 28.1046 26 27C26 25.8954 25.1046 25 24 25Z" fill="white"/>
<path d="M28 27C28 25.8954 28.8954 25 30 25C31.1046 25 32 25.8954 32 27C32 28.1046 31.1046 29 30 29C28.8954 29 28 28.1046 28 27Z" fill="white"/>
<defs>
<filter id="filter0_d_35122_1398" x="3.625" y="0.9" width="40.75" height="46.8038" filterUnits="userSpaceOnUse" color-interpolation-filters="sRGB">
<feFlood flood-opacity="0" result="BackgroundImageFix"/>
<feColorMatrix in="SourceAlpha" type="matrix" values="0 0 0 0 0 0 0 0 0 0 0 0 0 0 0 0 0 0 127 0" result="hardAlpha"/>
<feOffset dy="1"/>
<feGaussianBlur stdDeviation="1.5"/>
<feComposite in2="hardAlpha" operator="out"/>
<feColorMatrix type="matrix" values="0 0 0 0 0 0 0 0 0 0 0 0 0 0 0 0 0 0 0.18 0"/>
<feBlend mode="normal" in2="BackgroundImageFix" result="effect1_dropShadow_35122_1398"/>
<feBlend mode="normal" in="SourceGraphic" in2="effect1_dropShadow_35122_1398" result="shape"/>
</filter>
</defs>
</svg>
