<svg width="48" height="48" viewBox="0 0 48 48" fill="none" xmlns="http://www.w3.org/2000/svg">
<g filter="url(#filter0_d_49350_5176)">
<path fill-rule="evenodd" clip-rule="evenodd" d="M24 43C35.0457 43 44 34.0457 44 23C44 11.9543 35.0457 3 24 3C12.9543 3 4 11.9543 4 23C4 34.0457 12.9543 43 24 43Z" fill="#B2B8BF"/>
</g>
<path fill-rule="evenodd" clip-rule="evenodd" d="M18.2929 11.7071C18.6834 12.0976 19.3166 12.0976 19.7071 11.7071L24 7.41421L28.2929 11.7071C28.6834 12.0976 29.3166 12.0976 29.7071 11.7071C30.0976 11.3166 30.0976 10.6834 29.7071 10.2929L24.7071 5.29289C24.3166 4.90237 23.6834 4.90237 23.2929 5.29289L18.2929 10.2929C17.9024 10.6834 17.9024 11.3166 18.2929 11.7071Z" fill="#DB1237"/>
<path fill-rule="evenodd" clip-rule="evenodd" d="M29.7071 34.2929C29.3166 33.9024 28.6834 33.9024 28.2929 34.2929L24 38.5858L19.7071 34.2929C19.3166 33.9024 18.6834 33.9024 18.2929 34.2929C17.9024 34.6834 17.9024 35.3166 18.2929 35.7071L23.2929 40.7071C23.6834 41.0976 24.3166 41.0976 24.7071 40.7071L29.7071 35.7071C30.0976 35.3166 30.0976 34.6834 29.7071 34.2929Z" fill="#E4E8EB"/>
<path d="M19.1117 23.5859H19.9804C21.2594 23.5859 21.6455 23.9972 21.6455 24.7452C21.6455 25.5554 21.3438 26.0416 19.9563 26.0416C19.0755 26.0416 18.1947 25.6676 17.6396 25.2313V26.9515C18.2671 27.2881 19.2565 27.5 20.1493 27.5C22.3815 27.5 23.2502 26.5402 23.2502 24.8947C23.2502 23.7105 22.6952 22.9875 21.4283 22.8255C22.4659 22.5263 22.9968 21.8407 22.9968 20.7188C22.9968 19.3227 22.3935 18.5 20.3062 18.5C19.4616 18.5 18.4119 18.7368 17.7482 19.036V20.6565C18.2912 20.2825 19.0996 19.946 19.9321 19.946C21.0663 19.946 21.3921 20.295 21.3921 21.018C21.3921 21.8532 20.9819 22.277 19.8718 22.277H19.1117V23.5859Z" fill="#1F1F22"/>
<path d="M27.477 27.4377C30.2521 27.4377 31.6396 26.0042 31.6396 22.9127C31.6396 19.8089 30.4331 18.5623 27.5614 18.5623C26.3911 18.5623 25.0518 18.6994 25.0518 18.6994V27.3006C25.0518 27.3006 26.3911 27.4377 27.477 27.4377ZM30.047 22.9127C30.047 25.1191 29.2386 25.9543 27.5132 25.9543C27.0426 25.9543 26.5962 25.9044 26.5962 25.9044V20.0956C26.5962 20.0956 27.0909 20.0457 27.5976 20.0457C29.3472 20.0457 30.047 20.7687 30.047 22.9127Z" fill="#1F1F22"/>
<circle cx="8" cy="23" r="2" fill="#E4E8EB"/>
<circle cx="40" cy="23" r="2" fill="#E4E8EB"/>
<defs>
<filter id="filter0_d_49350_5176" x="1" y="1" width="46" height="46" filterUnits="userSpaceOnUse" color-interpolation-filters="sRGB">
<feFlood flood-opacity="0" result="BackgroundImageFix"/>
<feColorMatrix in="SourceAlpha" type="matrix" values="0 0 0 0 0 0 0 0 0 0 0 0 0 0 0 0 0 0 127 0" result="hardAlpha"/>
<feOffset dy="1"/>
<feGaussianBlur stdDeviation="1.5"/>
<feComposite in2="hardAlpha" operator="out"/>
<feColorMatrix type="matrix" values="0 0 0 0 0 0 0 0 0 0 0 0 0 0 0 0 0 0 0.18 0"/>
<feBlend mode="normal" in2="BackgroundImageFix" result="effect1_dropShadow_49350_5176"/>
<feBlend mode="normal" in="SourceGraphic" in2="effect1_dropShadow_49350_5176" result="shape"/>
</filter>
</defs>
</svg>
