<svg width="16" height="16" viewBox="0 0 16 16" fill="none" xmlns="http://www.w3.org/2000/svg">
<path fill-rule="evenodd" clip-rule="evenodd" d="M0 8C0 3.58 3.58 0 8 0C12.41 0 16 3.58 16 8C16 12.41 12.41 16 8 16C3.58 16 0 12.41 0 8Z" fill="#FFC61A"/>
<path d="M7.99997 11.1201C9.64997 11.1201 10.39 10.2701 10.39 9.03012C10.39 8.08012 10.12 7.50012 9.19997 7.27012C9.99997 7.00012 10.22 6.42012 10.22 5.59012C10.22 4.47012 9.51997 3.87012 7.99997 3.87012C6.43997 3.87012 5.75997 4.56012 5.75997 5.69012C5.75997 6.58012 6.05997 7.04012 6.78997 7.27012C5.86997 7.56012 5.58997 8.21012 5.58997 9.06012C5.58997 10.3701 6.31997 11.1201 7.99997 11.1201ZM7.99997 10.0501C7.32997 10.0501 6.90997 9.70012 6.90997 8.89012C6.90997 8.20012 7.26997 7.76012 7.99997 7.76012C8.67997 7.76012 9.07997 8.11012 9.07997 8.89012C9.07997 9.67012 8.67997 10.0501 7.99997 10.0501ZM7.99997 6.92012C7.35997 6.92012 7.00997 6.56012 7.00997 5.92012C7.00997 5.27012 7.32997 4.95012 7.98997 4.95012C8.66997 4.95012 8.96997 5.22012 8.96997 5.89012C8.96997 6.52012 8.68997 6.92012 7.99997 6.92012Z" fill="#181819"/>
</svg>
