<svg width="16" height="16" viewBox="0 0 16 16" fill="none" xmlns="http://www.w3.org/2000/svg">
<path fill-rule="evenodd" clip-rule="evenodd" d="M0 8C0 3.58 3.58 0 8 0C12.41 0 16 3.58 16 8C16 12.41 12.41 16 8 16C3.58 16 0 12.41 0 8Z" fill="#197245"/>
<path fill-rule="evenodd" clip-rule="evenodd" d="M13.3 8.63012C13.3 10.3601 12.38 11.1201 10.99 11.1201C9.17998 11.1201 8.49998 9.95012 8.49998 7.75012C8.49998 5.14012 9.47998 3.87012 11.45 3.87012C11.96 3.87012 12.47 3.93012 12.87 4.10012V5.39012C12.56 5.18012 12.1 5.02012 11.41 5.02012C10.45 5.02012 9.61998 5.69012 9.61998 7.28012V7.55012C9.98998 6.82012 10.56 6.45012 11.35 6.45012C12.66 6.45012 13.3 7.26012 13.3 8.63012ZM7.51998 11.0001H3.09998V9.93012H4.91998V5.43012L3.09998 6.62012V5.43012L5.29998 4.00012H6.18998V9.93012H7.51998V11.0001ZM9.80998 8.60012C9.80998 9.43012 10.22 10.0501 10.95 10.0501C11.55 10.0501 12.02 9.64012 12.02 8.72012C12.02 7.79012 11.66 7.43012 10.97 7.43012C10.26 7.43012 9.87998 7.91012 9.80998 8.60012Z" fill="#181819"/>
</svg>
