<svg width="48" height="48" viewBox="0 0 48 48" fill="none" xmlns="http://www.w3.org/2000/svg">
<g filter="url(#filter0_d_35122_1494)">
<path fill-rule="evenodd" clip-rule="evenodd" d="M24.0046 43.0046C35.0503 43.0046 44.0046 34.0503 44.0046 23.0046C44.0046 11.9589 35.0503 3.00464 24.0046 3.00464C12.9589 3.00464 4.00464 11.9589 4.00464 23.0046C4.00464 34.0503 12.9589 43.0046 24.0046 43.0046Z" fill="white"/>
</g>
<path fill-rule="evenodd" clip-rule="evenodd" d="M28 15C28 14.4477 27.5523 14 27 14C26.4477 14 26 14.4477 26 15V17V19C26 19.5523 26.4477 20 27 20C27.5523 20 28 19.5523 28 19V18H32C32.5523 18 33 17.5523 33 17C33 16.4477 32.5523 16 32 16H28V15ZM16.5 16C15.9477 16 15.5 16.4477 15.5 17C15.5 17.5523 15.9477 18 16.5 18H23C23.5523 18 24 17.5523 24 17C24 16.4477 23.5523 16 23 16H16.5ZM23 23C23 22.4477 23.4477 22 24 22H32C32.5523 22 33 22.4477 33 23C33 23.5523 32.5523 24 32 24H24C23.4477 24 23 23.5523 23 23ZM15.5 29C15.5 28.4477 15.9477 28 16.5 28H20C20.5523 28 21 28.4477 21 29C21 29.5523 20.5523 30 20 30H16.5C15.9477 30 15.5 29.5523 15.5 29ZM16.5 22C15.9477 22 15.5 22.4477 15.5 23C15.5 23.5523 15.9477 24 16.5 24H18.9988V25C18.9988 25.5523 19.4465 26 19.9988 26C20.5511 26 20.9988 25.5523 20.9988 25V21C20.9988 20.4477 20.5511 20 19.9988 20C19.4465 20 18.9988 20.4477 18.9988 21V22H16.5ZM24.9988 31V30H32C32.5523 30 33 29.5523 33 29C33 28.4477 32.5523 28 32 28H24.9988V27C24.9988 26.4477 24.5511 26 23.9988 26C23.4465 26 22.9988 26.4477 22.9988 27V31C22.9988 31.5523 23.4465 32 23.9988 32C24.5511 32 24.9988 31.5523 24.9988 31Z" fill="#1F1F22"/>
<defs>
<filter id="filter0_d_35122_1494" x="1.00464" y="1.00464" width="46" height="46" filterUnits="userSpaceOnUse" color-interpolation-filters="sRGB">
<feFlood flood-opacity="0" result="BackgroundImageFix"/>
<feColorMatrix in="SourceAlpha" type="matrix" values="0 0 0 0 0 0 0 0 0 0 0 0 0 0 0 0 0 0 127 0" result="hardAlpha"/>
<feOffset dy="1"/>
<feGaussianBlur stdDeviation="1.5"/>
<feComposite in2="hardAlpha" operator="out"/>
<feColorMatrix type="matrix" values="0 0 0 0 0 0 0 0 0 0 0 0 0 0 0 0 0 0 0.18 0"/>
<feBlend mode="normal" in2="BackgroundImageFix" result="effect1_dropShadow_35122_1494"/>
<feBlend mode="normal" in="SourceGraphic" in2="effect1_dropShadow_35122_1494" result="shape"/>
</filter>
</defs>
</svg>
