<svg width="56" height="56" viewBox="0 0 56 56" fill="none" xmlns="http://www.w3.org/2000/svg">
<g filter="url(#filter0_d_35122:1494)">
<path fill-rule="evenodd" clip-rule="evenodd" d="M28 47C39.598 47 49 37.598 49 26C49 14.402 39.598 5 28 5C16.402 5 7 14.402 7 26C7 37.598 16.402 47 28 47Z" fill="white"/>
</g>
<path fill-rule="evenodd" clip-rule="evenodd" d="M32 18C32 17.4477 31.5523 17 31 17C30.4477 17 30 17.4477 30 18V20V22C30 22.5523 30.4477 23 31 23C31.5523 23 32 22.5523 32 22V21H36C36.5523 21 37 20.5523 37 20C37 19.4477 36.5523 19 36 19H32V18ZM20.5 19C19.9477 19 19.5 19.4477 19.5 20C19.5 20.5523 19.9477 21 20.5 21H27C27.5523 21 28 20.5523 28 20C28 19.4477 27.5523 19 27 19H20.5ZM27 26C27 25.4477 27.4477 25 28 25H36C36.5523 25 37 25.4477 37 26C37 26.5523 36.5523 27 36 27H28C27.4477 27 27 26.5523 27 26ZM19.5 32C19.5 31.4477 19.9477 31 20.5 31H24C24.5523 31 25 31.4477 25 32C25 32.5523 24.5523 33 24 33H20.5C19.9477 33 19.5 32.5523 19.5 32ZM20.5 25C19.9477 25 19.5 25.4477 19.5 26C19.5 26.5523 19.9477 27 20.5 27H22.9988V28C22.9988 28.5523 23.4465 29 23.9988 29C24.5511 29 24.9988 28.5523 24.9988 28V24C24.9988 23.4477 24.5511 23 23.9988 23C23.4465 23 22.9988 23.4477 22.9988 24V25H20.5ZM28.9988 34V33H36C36.5523 33 37 32.5523 37 32C37 31.4477 36.5523 31 36 31H28.9988V30C28.9988 29.4477 28.5511 29 27.9988 29C27.4465 29 26.9988 29.4477 26.9988 30V34C26.9988 34.5523 27.4465 35 27.9988 35C28.5511 35 28.9988 34.5523 28.9988 34Z" fill="#1F1F22"/>
<defs>
<filter id="filter0_d_35122:1494" x="0" y="0" width="56" height="56" filterUnits="userSpaceOnUse" color-interpolation-filters="sRGB">
<feFlood flood-opacity="0" result="BackgroundImageFix"/>
<feColorMatrix in="SourceAlpha" type="matrix" values="0 0 0 0 0 0 0 0 0 0 0 0 0 0 0 0 0 0 127 0" result="hardAlpha"/>
<feOffset dy="2"/>
<feGaussianBlur stdDeviation="3.5"/>
<feColorMatrix type="matrix" values="0 0 0 0 0.121569 0 0 0 0 0.121569 0 0 0 0 0.133333 0 0 0 0.25 0"/>
<feBlend mode="normal" in2="BackgroundImageFix" result="effect1_dropShadow_35122:1494"/>
<feBlend mode="normal" in="SourceGraphic" in2="effect1_dropShadow_35122:1494" result="shape"/>
</filter>
</defs>
</svg>
