<svg width="16" height="16" viewBox="0 0 16 16" fill="none" xmlns="http://www.w3.org/2000/svg">
<path fill-rule="evenodd" clip-rule="evenodd" d="M0 8C0 3.58 3.58 0 8 0C12.41 0 16 3.58 16 8C16 12.41 12.41 16 8 16C3.58 16 0 12.41 0 8Z" fill="#49B85E"/>
<path d="M6.80997 7.97014H7.53997C8.58997 7.97014 8.90997 8.29014 8.90997 8.90014C8.90997 9.54014 8.66997 9.94014 7.51997 9.94014C6.78997 9.94014 6.05997 9.64014 5.58997 9.29014V10.6701C6.10997 10.9301 6.92997 11.1001 7.66997 11.1001C9.51997 11.1001 10.25 10.3401 10.25 9.02014C10.25 8.07014 9.78997 7.48014 8.72997 7.35014C9.59997 7.12014 10.04 6.56014 10.04 5.67014C10.04 4.54014 9.52997 3.89014 7.80997 3.89014C7.10997 3.89014 6.22997 4.08014 5.67997 4.32014V5.61014C6.13997 5.31014 6.80997 5.05014 7.49997 5.05014C8.43997 5.05014 8.69997 5.33014 8.69997 5.90014C8.69997 6.58014 8.36997 6.92014 7.43997 6.92014H6.80997V7.97014Z" fill="#181819"/>
</svg>
