<svg width="56" height="56" viewBox="0 0 56 56" fill="none" xmlns="http://www.w3.org/2000/svg">
<g filter="url(#filter0_d_35122_1495)">
<path fill-rule="evenodd" clip-rule="evenodd" d="M28 47C39.598 47 49 37.598 49 26C49 14.402 39.598 5 28 5C16.402 5 7 14.402 7 26C7 37.598 16.402 47 28 47Z" fill="white"/>
</g>
<path fill-rule="evenodd" clip-rule="evenodd" d="M33 23C34.6569 23 36 21.6569 36 20C36 18.3431 34.6569 17 33 17C31.3431 17 30 18.3431 30 20C30 21.6569 31.3431 23 33 23Z" fill="#FF9900"/>
<path fill-rule="evenodd" clip-rule="evenodd" d="M28 19C28.0334 19 28.0665 19.0016 28.099 19.0048C28.0341 19.3265 28 19.6592 28 20C28 20.3408 28.0341 20.6735 28.099 20.9952C28.0665 20.9984 28.0334 21 28 21H20.5C19.9477 21 19.5 20.5523 19.5 20C19.5 19.4477 19.9477 19 20.5 19H28ZM25 24C25 23.4477 24.5523 23 24 23C23.4477 23 23 23.4477 23 24V25H20.5C19.9477 25 19.5 25.4477 19.5 26C19.5 26.5523 19.9477 27 20.5 27H23V28C23 28.5523 23.4477 29 24 29C24.5523 29 25 28.5523 25 28V24ZM27 26C27 25.4477 27.4477 25 28 25H36C36.5523 25 37 25.4477 37 26C37 26.5523 36.5523 27 36 27H28C27.4477 27 27 26.5523 27 26ZM19.5 32C19.5 31.4477 19.9477 31 20.5 31H24C24.5523 31 25 31.4477 25 32C25 32.5523 24.5523 33 24 33H20.5C19.9477 33 19.5 32.5523 19.5 32ZM29 34V33H36C36.5523 33 37 32.5523 37 32C37 31.4477 36.5523 31 36 31H29V30C29 29.4477 28.5523 29 28 29C27.4477 29 27 29.4477 27 30V34C27 34.5523 27.4477 35 28 35C28.5523 35 29 34.5523 29 34Z" fill="#1F1F22"/>
<defs>
<filter id="filter0_d_35122_1495" x="0" y="0" width="56" height="56" filterUnits="userSpaceOnUse" color-interpolation-filters="sRGB">
<feFlood flood-opacity="0" result="BackgroundImageFix"/>
<feColorMatrix in="SourceAlpha" type="matrix" values="0 0 0 0 0 0 0 0 0 0 0 0 0 0 0 0 0 0 127 0" result="hardAlpha"/>
<feOffset dy="2"/>
<feGaussianBlur stdDeviation="3.5"/>
<feColorMatrix type="matrix" values="0 0 0 0 0.121569 0 0 0 0 0.121569 0 0 0 0 0.133333 0 0 0 0.25 0"/>
<feBlend mode="normal" in2="BackgroundImageFix" result="effect1_dropShadow_35122_1495"/>
<feBlend mode="normal" in="SourceGraphic" in2="effect1_dropShadow_35122_1495" result="shape"/>
</filter>
</defs>
</svg>
