<svg width="48" height="54" viewBox="0 0 48 54" fill="none" xmlns="http://www.w3.org/2000/svg">
<g filter="url(#filter0_d)">
<path d="M30.045 43.2279C30.1138 43.1394 30.2046 43.0686 30.3115 43.035C38.8255 40.3555 45 32.3988 45 23C45 11.402 35.598 2 24 2C12.402 2 3 11.402 3 23C3 32.3988 9.1745 40.3555 17.6885 43.035C17.7954 43.0686 17.8862 43.1394 17.955 43.2279L22.4213 48.9702C23.222 49.9997 24.778 49.9997 25.5787 48.9702L30.045 43.2279Z" fill="#005E7F"/>
</g>
<path fill-rule="evenodd" clip-rule="evenodd" d="M25.5787 48.9702L30.045 43.2279C30.1138 43.1394 30.2046 43.0686 30.3115 43.035C38.8255 40.3555 45 32.3988 45 23C45 11.402 35.598 2 24 2C12.402 2 3 11.402 3 23C3 32.3988 9.1745 40.3555 17.6885 43.035C17.7954 43.0686 17.8862 43.1394 17.955 43.2279L22.4213 48.9702C22.5214 49.0989 22.6333 49.2115 22.754 49.308C23.5992 49.9836 24.8781 49.871 25.5787 48.9702ZM43 23C43 31.5007 37.4161 38.7023 29.7111 41.1272C29.6757 41.1384 29.6409 41.1502 29.6067 41.1626C29.0939 41.3493 28.7171 41.6775 28.4663 42C28.4663 42 28.4663 42 28.4663 42L24 47.7424L19.5337 42C19.2662 41.656 18.8553 41.3055 18.2889 41.1272C17.3258 40.8241 16.3958 40.4464 15.5057 40.0008C9.2752 36.8816 5 30.4381 5 23C5 12.5066 13.5066 4 24 4C34.4934 4 43 12.5066 43 23Z" fill="white"/>
<path d="M35.8086 20.8508C35.9368 21.56 36.0008 22.2794 36 23.0002C35.9999 25.7219 35.0747 28.3626 33.3762 30.4892C31.6776 32.6157 29.3066 34.1017 26.6523 34.7032C23.998 35.3048 21.218 34.9861 18.7686 33.7997C16.3193 32.6132 14.346 30.6293 13.1726 28.1736C11.9992 25.7179 11.6954 22.9363 12.3111 20.2852C12.9268 17.6342 14.4254 15.2712 16.561 13.584C18.6966 11.8968 21.3423 10.9857 24.0638 11.0002C26.7854 11.0146 29.4213 11.9539 31.5388 13.6637L29.2041 15.3845C27.5006 14.2204 25.4564 13.6603 23.3975 13.7935C21.3386 13.9267 19.3836 14.7456 17.8443 16.1195C16.3051 17.4935 15.2703 19.3433 14.905 21.3739C14.5398 23.4045 14.865 25.499 15.829 27.3232C16.7929 29.1474 18.34 30.5963 20.2234 31.4387C22.1068 32.2811 24.2181 32.4684 26.2205 31.9709C28.2228 31.4734 30.0009 30.3197 31.271 28.6938C32.5412 27.0679 33.2303 25.0635 33.2284 23.0002V22.7547L35.8086 20.8508Z" fill="white"/>
<path d="M34.9347 18.05C34.5501 17.2017 34.0675 16.4014 33.4968 15.6654L24.0021 22.6548L19.4348 19.7999V23.2437L24.0021 26.1069L34.9347 18.05Z" fill="white"/>
<defs>
<filter id="filter0_d" x="0" y="0" width="48" height="53.7424" filterUnits="userSpaceOnUse" color-interpolation-filters="sRGB">
<feFlood flood-opacity="0" result="BackgroundImageFix"/>
<feColorMatrix in="SourceAlpha" type="matrix" values="0 0 0 0 0 0 0 0 0 0 0 0 0 0 0 0 0 0 127 0" result="hardAlpha"/>
<feOffset dy="1"/>
<feGaussianBlur stdDeviation="1.5"/>
<feColorMatrix type="matrix" values="0 0 0 0 0.121569 0 0 0 0 0.121569 0 0 0 0 0.133333 0 0 0 0.25 0"/>
<feBlend mode="normal" in2="BackgroundImageFix" result="effect1_dropShadow"/>
<feBlend mode="normal" in="SourceGraphic" in2="effect1_dropShadow" result="shape"/>
</filter>
</defs>
</svg>
