<svg width="65" height="64" viewBox="0 0 65 64" fill="none" xmlns="http://www.w3.org/2000/svg">
<path d="M63.9844 32C63.9844 49.1208 49.8883 63 32.5 63C15.1117 63 1.01562 49.1208 1.01562 32C1.01562 14.8792 15.1117 1 32.5 1C49.8883 1 63.9844 14.8792 63.9844 32Z" fill="#FFDD64"/>
<path fill-rule="evenodd" clip-rule="evenodd" d="M32.5 2C15.6726 2 2.03125 15.4315 2.03125 32C2.03125 48.5685 15.6726 62 32.5 62C49.3274 62 62.9688 48.5685 62.9688 32C62.9688 15.4315 49.3274 2 32.5 2ZM0 32C0 14.3269 14.5507 0 32.5 0C50.4493 0 65 14.3269 65 32C65 49.6731 50.4493 64 32.5 64C14.5507 64 0 49.6731 0 32Z" fill="#F19F00"/>
<path d="M47.1927 25.8C47.1927 36.0724 38.7351 44.4 28.3021 44.4C17.8691 44.4 9.41147 36.0724 9.41147 25.8C9.41147 15.5275 17.8691 7.19995 28.3021 7.19995C38.7351 7.19995 47.1927 15.5275 47.1927 25.8Z" fill="#FFECA7"/>
<path d="M19.9062 40.2666C19.9062 47.1149 25.5447 52.6666 32.5 52.6666C39.4553 52.6666 45.0938 47.1149 45.0938 40.2666H19.9062Z" fill="#E58A00"/>
<path fill-rule="evenodd" clip-rule="evenodd" d="M19.1445 40.2666C19.1445 39.8524 19.4856 39.5166 19.9062 39.5166H45.0938C45.5144 39.5166 45.8555 39.8524 45.8555 40.2666C45.8555 47.5291 39.876 53.4166 32.5 53.4166C25.124 53.4166 19.1445 47.5291 19.1445 40.2666ZM20.6921 41.0166C21.0847 47.1012 26.2212 51.9166 32.5 51.9166C38.7788 51.9166 43.9153 47.1012 44.3079 41.0166H20.6921Z" fill="#8F5600"/>
<path d="M15.8468 17.4883L15.856 17.4809L15.8677 17.4828C15.5918 16.1506 15.7903 14.7177 16.535 13.4476C18.1529 10.6885 21.7362 9.74308 24.5385 11.3361C27.3408 12.9291 28.301 16.4573 26.683 19.2165L19.6107 31.2778L7.36091 24.3142C4.55857 22.7212 3.59843 19.193 5.21637 16.4338C6.83426 13.6746 10.4176 12.7292 13.2199 14.3222C14.5097 15.0555 15.4093 16.1987 15.8468 17.4883Z" fill="url(#paint0_linear_28106_13)"/>
<path d="M49.0724 17.4883L49.0632 17.4809L49.0515 17.4828C49.3274 16.1506 49.1289 14.7177 48.3842 13.4476C46.7663 10.6885 43.183 9.74308 40.3807 11.3361C37.5784 12.9291 36.6182 16.4573 38.2362 19.2165L45.3086 31.2778L57.5583 24.3142C60.3606 22.7212 61.3208 19.193 59.7028 16.4338C58.0849 13.6746 54.5016 12.7292 51.6993 14.3222C50.4095 15.0555 49.5099 16.1987 49.0724 17.4883Z" fill="url(#paint1_linear_28106_13)"/>
<path fill-rule="evenodd" clip-rule="evenodd" d="M15.6554 12.9475C17.5538 9.71009 21.7583 8.60083 25.0463 10.47C28.3344 12.3392 29.461 16.4789 27.5626 19.7164L20.4902 31.7777C20.3555 32.0074 20.1337 32.175 19.8735 32.2436C19.6133 32.3123 19.3361 32.2763 19.1028 32.1437L6.85309 25.1801C3.56498 23.311 2.43841 19.1712 4.3368 15.9337C6.23515 12.6962 10.4396 11.587 13.7277 13.4561C14.204 13.7269 14.6351 14.0456 15.0182 14.4024C15.1689 13.9048 15.3804 13.4166 15.6554 12.9475ZM16.1201 18.4513C15.9405 18.5007 15.7478 18.5012 15.5635 18.4485C15.2433 18.357 14.9892 18.1165 14.8835 17.805C14.5216 16.7383 13.7789 15.7947 12.712 15.1882C10.3955 13.8713 7.43335 14.6528 6.09591 16.9337C4.75844 19.2146 5.55213 22.1312 7.86871 23.4481L19.2389 29.9117L25.8035 18.7164C27.1409 16.4355 26.3472 13.5189 24.0307 12.202C21.7142 10.8852 18.752 11.6667 17.4145 13.9475C16.7986 14.998 16.6346 16.1808 16.8629 17.2828C16.9295 17.6045 16.8315 17.9379 16.6007 18.1749C16.4679 18.3113 16.3008 18.4057 16.1201 18.4513ZM47.5265 13.9475C46.1891 11.6667 43.2269 10.8852 40.9104 12.202C38.5938 13.5189 37.8001 16.4355 39.1376 18.7164L45.7022 29.9117L57.0724 23.4481C59.3889 22.1312 60.1826 19.2146 58.8452 16.9337C57.5077 14.6528 54.5455 13.8713 52.229 15.1882C51.1622 15.7947 50.4195 16.7383 50.0575 17.8051C49.9519 18.1165 49.6977 18.357 49.3775 18.4485C49.1932 18.5012 49.0006 18.5007 48.8209 18.4513C48.6403 18.4057 48.4732 18.3112 48.3403 18.1749C48.1095 17.9379 48.0116 17.6045 48.0782 17.2828C48.3065 16.1808 48.1425 14.998 47.5265 13.9475ZM49.9228 14.4024C50.306 14.0456 50.737 13.7269 51.2134 13.4562C54.5014 11.587 58.7059 12.6962 60.6043 15.9337C62.5027 19.1712 61.3761 23.311 58.088 25.1801L45.8382 32.1437C45.605 32.2763 45.3277 32.3123 45.0676 32.2436C44.8074 32.175 44.5856 32.0074 44.4509 31.7777L37.3785 19.7164C35.4801 16.4789 36.6067 12.3392 39.8948 10.47C43.1828 8.60083 47.3873 9.71009 49.2856 12.9475C49.5606 13.4166 49.7722 13.9048 49.9228 14.4024Z" fill="#107F8C"/>
<defs>
<linearGradient id="paint0_linear_28106_13" x1="59.2616" y1="27.8667" x2="4.1412" y2="16.6115" gradientUnits="userSpaceOnUse">
<stop stop-color="#1E83ED"/>
<stop offset="0.236033" stop-color="#4AB2D5"/>
<stop offset="0.49858" stop-color="#5CC6D4"/>
<stop offset="0.774638" stop-color="#76B98B"/>
<stop offset="0.988192" stop-color="#ECFF9E"/>
</linearGradient>
<linearGradient id="paint1_linear_28106_13" x1="59.2616" y1="27.8667" x2="4.1412" y2="16.6115" gradientUnits="userSpaceOnUse">
<stop stop-color="#1E83ED"/>
<stop offset="0.236033" stop-color="#4AB2D5"/>
<stop offset="0.49858" stop-color="#5CC6D4"/>
<stop offset="0.774638" stop-color="#76B98B"/>
<stop offset="0.988192" stop-color="#ECFF9E"/>
</linearGradient>
</defs>
</svg>
