<svg width="33" height="37" viewBox="0 0 33 37" fill="none" xmlns="http://www.w3.org/2000/svg">
<g filter="url(#filter0_d)">
<path d="M20.6923 27.8932C20.8086 27.7437 20.9649 27.6305 21.141 27.5608C26.0378 25.6228 29.5014 20.8455 29.5014 15.2593C29.5014 7.9555 23.5805 2.03458 16.2766 2.03458C8.97279 2.03458 3.05187 7.9555 3.05187 15.2593C3.05187 20.8455 6.51543 25.6228 11.4122 27.5608C11.5884 27.6305 11.7447 27.7437 11.8609 27.8932L15.4736 32.5381C15.8809 33.0617 16.6723 33.0617 17.0796 32.5381L20.6923 27.8932Z" fill="#107F8C"/>
</g>
<path fill-rule="evenodd" clip-rule="evenodd" d="M20.3923 25.669C24.5393 24.0277 27.4668 19.9829 27.4668 15.2593C27.4668 9.07917 22.4568 4.06916 16.2766 4.06916C10.0965 4.06916 5.08644 9.07917 5.08644 15.2593C5.08644 19.9829 8.0139 24.0277 12.1609 25.669C12.6529 25.8637 13.1132 26.1893 13.4669 26.6441L16.2766 30.2566L19.0863 26.6441C19.44 26.1893 19.9003 25.8637 20.3923 25.669ZM21.141 27.5608C20.9649 27.6305 20.8086 27.7437 20.6923 27.8932L17.0796 32.5381C16.6723 33.0617 15.8809 33.0617 15.4736 32.5381L11.8609 27.8932C11.7447 27.7437 11.5884 27.6305 11.4122 27.5608C6.51543 25.6228 3.05187 20.8455 3.05187 15.2593C3.05187 7.9555 8.97279 2.03458 16.2766 2.03458C23.5805 2.03458 29.5014 7.9555 29.5014 15.2593C29.5014 20.8455 26.0378 25.6228 21.141 27.5608Z" fill="white"/>
<path d="M23.2854 13.9839C23.3614 14.4048 23.3995 14.8317 23.399 15.2595C23.3989 16.8745 22.8499 18.4416 21.8419 19.7035C20.834 20.9655 19.427 21.8473 17.8519 22.2042C16.2768 22.5612 14.6271 22.3721 13.1736 21.668C11.7201 20.964 10.5491 19.7867 9.85275 18.3295C9.15644 16.8722 8.97618 15.2215 9.34155 13.6483C9.70693 12.0752 10.5962 10.6729 11.8635 9.67169C13.1308 8.67049 14.7008 8.12982 16.3158 8.13841C17.9309 8.147 19.495 8.70435 20.7516 9.71898L19.3662 10.7401C18.3553 10.0493 17.1422 9.71696 15.9204 9.79602C14.6986 9.87507 13.5385 10.361 12.6251 11.1763C11.7117 11.9916 11.0976 13.0894 10.8808 14.2944C10.6641 15.4994 10.8571 16.7423 11.4291 17.8248C12.0011 18.9073 12.9192 19.7671 14.0368 20.267C15.1545 20.7669 16.4074 20.8781 17.5956 20.5829C18.7838 20.2876 19.839 19.603 20.5927 18.6381C21.3465 17.6733 21.7554 16.4838 21.7542 15.2595V15.1138L23.2854 13.9839Z" fill="white"/>
<path d="M22.7668 12.3219C22.5386 11.8185 22.2522 11.3436 21.9135 10.9068L16.2792 15.0545L13.5689 13.3604V15.4039L16.2792 17.103L22.7668 12.3219Z" fill="white"/>
<defs>
<filter id="filter0_d" x="0" y="0" width="32.5532" height="37" filterUnits="userSpaceOnUse" color-interpolation-filters="sRGB">
<feFlood flood-opacity="0" result="BackgroundImageFix"/>
<feColorMatrix in="SourceAlpha" type="matrix" values="0 0 0 0 0 0 0 0 0 0 0 0 0 0 0 0 0 0 127 0" result="hardAlpha"/>
<feOffset dy="1"/>
<feGaussianBlur stdDeviation="1.5"/>
<feColorMatrix type="matrix" values="0 0 0 0 0.121569 0 0 0 0 0.121569 0 0 0 0 0.133333 0 0 0 0.25 0"/>
<feBlend mode="normal" in2="BackgroundImageFix" result="effect1_dropShadow"/>
<feBlend mode="normal" in="SourceGraphic" in2="effect1_dropShadow" result="shape"/>
</filter>
</defs>
</svg>
