<svg width="16" height="16" viewBox="0 0 16 16" fill="none" xmlns="http://www.w3.org/2000/svg">
<path fill-rule="evenodd" clip-rule="evenodd" d="M0 8C0 3.58 3.58 0 8 0C12.41 0 16 3.58 16 8C16 12.41 12.41 16 8 16C3.58 16 0 12.41 0 8Z" fill="#F58320"/>
<path d="M8.13999 11.1201C9.51999 11.1201 10.45 10.3601 10.45 8.63012C10.45 7.26012 9.80999 6.45012 8.48999 6.45012C7.70999 6.45012 7.12999 6.82012 6.76999 7.55012V7.28012C6.76999 5.69012 7.59999 5.02012 8.55999 5.02012C9.23999 5.02012 9.70999 5.18012 10.02 5.39012V4.10012C9.61999 3.93012 9.09999 3.87012 8.58999 3.87012C6.61999 3.87012 5.64999 5.14012 5.64999 7.75012C5.64999 9.95012 6.31999 11.1201 8.13999 11.1201ZM8.08999 10.0501C7.36999 10.0501 6.95999 9.43012 6.94999 8.60012C7.01999 7.91012 7.40999 7.43012 8.11999 7.43012C8.79999 7.43012 9.16999 7.79012 9.16999 8.72012C9.16999 9.64012 8.68999 10.0501 8.08999 10.0501Z" fill="white"/>
</svg>
