<svg width="16" height="16" viewBox="0 0 16 16" fill="none" xmlns="http://www.w3.org/2000/svg">
<path fill-rule="evenodd" clip-rule="evenodd" d="M0 8C0 3.58 3.58 0 8 0C12.41 0 16 3.58 16 8C16 12.41 12.41 16 8 16C3.58 16 0 12.41 0 8Z" fill="#FFC61A"/>
<path fill-rule="evenodd" clip-rule="evenodd" d="M7.19 9.03012C7.19 10.2701 6.46 11.1201 4.8 11.1201C3.13 11.1201 2.4 10.3701 2.4 9.06012C2.4 8.21012 2.68 7.56012 3.59 7.27012C2.86 7.04012 2.56 6.58012 2.56 5.69012C2.56 4.56012 3.24 3.87012 4.8 3.87012C6.33 3.87012 7.02 4.47012 7.02 5.59012C7.02 6.42012 6.8 7.00012 6.01 7.27012C6.92 7.50012 7.19 8.08012 7.19 9.03012ZM9.07 11.0001H7.79L10.14 4.00012H11.57L13.9 11.0001H12.57L12.05 9.33012H9.59L9.07 11.0001ZM3.81 5.92012C3.81 6.56012 4.17 6.92012 4.8 6.92012C5.5 6.92012 5.77 6.52012 5.77 5.89012C5.77 5.22012 5.47 4.95012 4.8 4.95012C4.14 4.95012 3.81 5.27012 3.81 5.92012ZM11.72 8.27012L10.83 5.39012L9.92 8.27012H11.72ZM3.72 8.89012C3.72 9.70012 4.14 10.0501 4.8 10.0501C5.48 10.0501 5.88 9.67012 5.88 8.89012C5.88 8.11012 5.49 7.76012 4.8 7.76012C4.07 7.76012 3.72 8.20012 3.72 8.89012Z" fill="white"/>
</svg>
