<svg width="16" height="16" viewBox="0 0 16 16" fill="none" xmlns="http://www.w3.org/2000/svg">
<path fill-rule="evenodd" clip-rule="evenodd" d="M0 8C0 3.58 3.58 0 8 0C12.41 0 16 3.58 16 8C16 12.41 12.41 16 8 16C3.58 16 0 12.41 0 8Z" fill="#FFC61A"/>
<path fill-rule="evenodd" clip-rule="evenodd" d="M7.19002 9.03012C7.19002 10.2701 6.46002 11.1201 4.80002 11.1201C3.13002 11.1201 2.40002 10.3701 2.40002 9.06012C2.40002 8.21012 2.68002 7.56012 3.59002 7.27012C2.86002 7.04012 2.56002 6.58012 2.56002 5.69012C2.56002 4.56012 3.24002 3.87012 4.80002 3.87012C6.33002 3.87012 7.02002 4.47012 7.02002 5.59012C7.02002 6.42012 6.80002 7.00012 6.01002 7.27012C6.92002 7.50012 7.19002 8.08012 7.19002 9.03012ZM9.07002 11.0001H7.79002L10.14 4.00012H11.57L13.9 11.0001H12.57L12.05 9.33012H9.59002L9.07002 11.0001ZM3.81002 5.92012C3.81002 6.56012 4.17002 6.92012 4.80002 6.92012C5.50002 6.92012 5.77002 6.52012 5.77002 5.89012C5.77002 5.22012 5.47002 4.95012 4.80002 4.95012C4.14002 4.95012 3.81002 5.27012 3.81002 5.92012ZM11.72 8.27012L10.83 5.39012L9.92002 8.27012H11.72ZM3.72002 8.89012C3.72002 9.70012 4.14002 10.0501 4.80002 10.0501C5.48002 10.0501 5.88002 9.67012 5.88002 8.89012C5.88002 8.11012 5.49002 7.76012 4.80002 7.76012C4.07002 7.76012 3.72002 8.20012 3.72002 8.89012Z" fill="#181819"/>
</svg>
