<svg width="64" height="64" viewBox="0 0 64 64" fill="none" xmlns="http://www.w3.org/2000/svg">
<path d="M63 32C63 49.1208 49.1208 63 32 63C14.8792 63 1 49.1208 1 32C1 14.8792 14.8792 1 32 1C49.1208 1 63 14.8792 63 32Z" fill="#FFDD64"/>
<path fill-rule="evenodd" clip-rule="evenodd" d="M32 2C15.4315 2 2 15.4315 2 32C2 48.5685 15.4315 62 32 62C48.5685 62 62 48.5685 62 32C62 15.4315 48.5685 2 32 2ZM0 32C0 14.3269 14.3269 0 32 0C49.6731 0 64 14.3269 64 32C64 49.6731 49.6731 64 32 64C14.3269 64 0 49.6731 0 32Z" fill="#F19F00"/>
<path d="M46.4667 25.8C46.4667 36.0724 38.1392 44.4 27.8667 44.4C17.5942 44.4 9.26666 36.0724 9.26666 25.8C9.26666 15.5275 17.5942 7.19995 27.8667 7.19995C38.1392 7.19995 46.4667 15.5275 46.4667 25.8Z" fill="#FFECA7"/>
<path d="M19.6 40.2666C19.6 47.1149 25.1516 52.6666 32 52.6666C38.8483 52.6666 44.4 47.1149 44.4 40.2666H19.6Z" fill="#E58A00"/>
<path fill-rule="evenodd" clip-rule="evenodd" d="M18.85 40.2666C18.85 39.8524 19.1858 39.5166 19.6 39.5166H44.4C44.8142 39.5166 45.15 39.8524 45.15 40.2666C45.15 47.5291 39.2625 53.4166 32 53.4166C24.7374 53.4166 18.85 47.5291 18.85 40.2666ZM20.3737 41.0166C20.7603 47.1012 25.8178 51.9166 32 51.9166C38.1821 51.9166 43.2396 47.1012 43.6262 41.0166H20.3737Z" fill="#8F5600"/>
<path d="M15.603 17.4883L15.6121 17.4809L15.6236 17.4828C15.3519 16.1506 15.5474 14.7177 16.2806 13.4476C17.8736 10.6885 21.4018 9.74308 24.161 11.3361C26.9202 12.9291 27.8656 16.4573 26.2725 19.2165L19.309 31.2778L7.24768 24.3142C4.48845 22.7212 3.54309 19.193 5.13613 16.4338C6.72914 13.6746 10.2573 12.7292 13.0165 14.3222C14.2865 15.0555 15.1723 16.1987 15.603 17.4883Z" fill="url(#paint0_linear_28106_13)"/>
<path d="M48.3174 17.4883L48.3084 17.4809L48.2968 17.4828C48.5686 16.1506 48.3731 14.7177 47.6399 13.4476C46.0468 10.6885 42.5187 9.74308 39.7595 11.3361C37.0003 12.9291 36.0549 16.4573 37.6479 19.2165L44.6115 31.2778L56.6728 24.3142C59.432 22.7212 60.3774 19.193 58.7844 16.4338C57.1913 13.6746 53.6632 12.7292 50.904 14.3222C49.634 15.0555 48.7482 16.1987 48.3174 17.4883Z" fill="url(#paint1_linear_28106_13)"/>
<path fill-rule="evenodd" clip-rule="evenodd" d="M15.4146 12.9475C17.2837 9.71009 21.4235 8.60083 24.661 10.47C27.8985 12.3392 29.0077 16.4789 27.1386 19.7164L20.175 31.7777C20.0424 32.0074 19.8239 32.175 19.5678 32.2436C19.3116 32.3123 19.0386 32.2763 18.8089 32.1437L6.74766 25.1801C3.51014 23.311 2.4009 19.1712 4.27009 15.9337C6.13924 12.6962 10.279 11.587 13.5165 13.4561C13.9855 13.7269 14.41 14.0456 14.7872 14.4024C14.9355 13.9048 15.1438 13.4166 15.4146 12.9475ZM15.8721 18.4513C15.6952 18.5007 15.5056 18.5012 15.3241 18.4485C15.0088 18.357 14.7586 18.1165 14.6545 17.805C14.2982 16.7383 13.5669 15.7947 12.5165 15.1882C10.2356 13.8713 7.319 14.6528 6.00214 16.9337C4.68524 19.2146 5.46673 22.1312 7.74766 23.4481L18.9429 29.9117L25.4065 18.7164C26.7234 16.4355 25.9419 13.5189 23.661 12.202C21.3801 10.8852 18.4635 11.6667 17.1466 13.9475C16.5402 14.998 16.3787 16.1808 16.6035 17.2828C16.6691 17.6045 16.5726 17.9379 16.3453 18.1749C16.2145 18.3113 16.05 18.4057 15.8721 18.4513ZM46.7954 13.9475C45.4785 11.6667 42.5619 10.8852 40.281 12.202C38.0001 13.5189 37.2186 16.4355 38.5355 18.7164L44.9991 29.9117L56.1943 23.4481C58.4753 22.1312 59.2568 19.2146 57.9399 16.9337C56.623 14.6528 53.7064 13.8713 51.4255 15.1882C50.3751 15.7947 49.6438 16.7383 49.2874 17.8051C49.1834 18.1165 48.9331 18.357 48.6178 18.4485C48.4364 18.5012 48.2467 18.5007 48.0698 18.4513C47.892 18.4057 47.7274 18.3112 47.5967 18.1749C47.3694 17.9379 47.2729 17.6045 47.3385 17.2828C47.5633 16.1808 47.4018 14.998 46.7954 13.9475ZM49.1548 14.4024C49.532 14.0456 49.9565 13.7269 50.4255 13.4562C53.663 11.587 57.8028 12.6962 59.6719 15.9337C61.5411 19.1712 60.4318 23.311 57.1943 25.1801L45.133 32.1437C44.9034 32.2763 44.6304 32.3123 44.3742 32.2436C44.118 32.175 43.8996 32.0074 43.767 31.7777L36.8034 19.7164C34.9342 16.4789 36.0435 12.3392 39.281 10.47C42.5185 8.60083 46.6583 9.71009 48.5274 12.9475C48.7982 13.4166 49.0065 13.9048 49.1548 14.4024Z" fill="#107F8C"/>
<defs>
<linearGradient id="paint0_linear_28106_13" x1="58.3499" y1="27.8667" x2="4.01109" y2="16.9418" gradientUnits="userSpaceOnUse">
<stop stop-color="#1E83ED"/>
<stop offset="0.236033" stop-color="#4AB2D5"/>
<stop offset="0.49858" stop-color="#5CC6D4"/>
<stop offset="0.774638" stop-color="#76B98B"/>
<stop offset="0.988192" stop-color="#ECFF9E"/>
</linearGradient>
<linearGradient id="paint1_linear_28106_13" x1="58.3499" y1="27.8667" x2="4.01109" y2="16.9418" gradientUnits="userSpaceOnUse">
<stop stop-color="#1E83ED"/>
<stop offset="0.236033" stop-color="#4AB2D5"/>
<stop offset="0.49858" stop-color="#5CC6D4"/>
<stop offset="0.774638" stop-color="#76B98B"/>
<stop offset="0.988192" stop-color="#ECFF9E"/>
</linearGradient>
</defs>
</svg>
