<svg width="16" height="16" viewBox="0 0 16 16" fill="none" xmlns="http://www.w3.org/2000/svg">
<path fill-rule="evenodd" clip-rule="evenodd" d="M0 8C0 3.58 3.58 0 8 0C12.41 0 16 3.58 16 8C16 12.41 12.41 16 8 16C3.58 16 0 12.41 0 8Z" fill="#49B85E"/>
<path d="M6.81 7.97014H7.54C8.59 7.97014 8.91 8.29014 8.91 8.90014C8.91 9.54014 8.67 9.94014 7.52 9.94014C6.79 9.94014 6.06 9.64014 5.59 9.29014V10.6701C6.11 10.9301 6.93 11.1001 7.67 11.1001C9.52 11.1001 10.25 10.3401 10.25 9.02014C10.25 8.07014 9.79 7.48014 8.73 7.35014C9.6 7.12014 10.04 6.56014 10.04 5.67014C10.04 4.54014 9.53 3.89014 7.81 3.89014C7.11 3.89014 6.23 4.08014 5.68 4.32014V5.61014C6.14 5.31014 6.81 5.05014 7.5 5.05014C8.44 5.05014 8.7 5.33014 8.7 5.90014C8.7 6.58014 8.37 6.92014 7.44 6.92014H6.81V7.97014Z" fill="white"/>
</svg>
