<svg width="48" height="48" viewBox="0 0 48 48" fill="none" xmlns="http://www.w3.org/2000/svg">
<g filter="url(#filter0_d_40098_1024)">
<path fill-rule="evenodd" clip-rule="evenodd" d="M24 43C35.0457 43 44 34.0457 44 23C44 11.9543 35.0457 3 24 3C12.9543 3 4 11.9543 4 23C4 34.0457 12.9543 43 24 43Z" fill="#1F1F22"/>
</g>
<path fill-rule="evenodd" clip-rule="evenodd" d="M18.2929 11.7071C18.6834 12.0976 19.3166 12.0976 19.7071 11.7071L24 7.41421L28.2929 11.7071C28.6834 12.0976 29.3166 12.0976 29.7071 11.7071C30.0976 11.3166 30.0976 10.6834 29.7071 10.2929L24.7071 5.29289C24.3166 4.90237 23.6834 4.90237 23.2929 5.29289L18.2929 10.2929C17.9024 10.6834 17.9024 11.3166 18.2929 11.7071Z" fill="#DB1237"/>
<path fill-rule="evenodd" clip-rule="evenodd" d="M29.7071 34.2929C29.3166 33.9024 28.6834 33.9024 28.2929 34.2929L24 38.5858L19.7071 34.2929C19.3166 33.9024 18.6834 33.9024 18.2929 34.2929C17.9024 34.6834 17.9024 35.3166 18.2929 35.7071L23.2929 40.7071C23.6834 41.0976 24.3166 41.0976 24.7071 40.7071L29.7071 35.7071C30.0976 35.3166 30.0976 34.6834 29.7071 34.2929Z" fill="#D0D7DD"/>
<path d="M17.4541 27.3844H23.1362V25.9639H19.7095C21.8154 24.1198 23.0988 23.0481 23.0988 21.1043C23.0988 19.5467 22.3512 18.5 20.1706 18.5C19.1737 18.5 18.2641 18.7368 17.6161 19.0732V20.8551C18.2018 20.3442 19.0117 19.9828 19.884 19.9828C20.9556 19.9828 21.454 20.4688 21.454 21.503C21.454 23.1354 19.7095 24.1571 17.4541 26.3253V27.3844Z" fill="white"/>
<path d="M27.5262 27.4592C30.3922 27.4592 31.8252 26.0262 31.8252 22.936C31.8252 19.8333 30.5791 18.5872 27.6135 18.5872C26.4048 18.5872 25.0216 18.7243 25.0216 18.7243V27.3221C25.0216 27.3221 26.4048 27.4592 27.5262 27.4592ZM30.1804 22.936C30.1804 25.1415 29.3455 25.9764 27.5636 25.9764C27.0777 25.9764 26.6166 25.9266 26.6166 25.9266V20.1199C26.6166 20.1199 27.1275 20.07 27.6508 20.07C29.4576 20.07 30.1804 20.7928 30.1804 22.936Z" fill="white"/>
<path fill-rule="evenodd" clip-rule="evenodd" d="M16.7491 12.3889C17.0865 12.8261 17.0057 13.4541 16.5685 13.7916C13.7801 15.944 12 19.2714 12 23C12 26.7286 13.7801 30.056 16.5685 32.2084C17.0057 32.5459 17.0865 33.1739 16.7491 33.611C16.4116 34.0482 15.7836 34.1291 15.3464 33.7916C12.0964 31.2828 10 27.384 10 23C10 18.616 12.0964 14.7172 15.3464 12.2084C15.7836 11.8709 16.4116 11.9518 16.7491 12.3889ZM31.2509 12.3889C31.5884 11.9518 32.2164 11.8709 32.6536 12.2084C35.9036 14.7172 38 18.616 38 23C38 27.384 35.9036 31.2828 32.6536 33.7916C32.2164 34.1291 31.5884 34.0482 31.2509 33.611C30.9135 33.1739 30.9943 32.5459 31.4315 32.2084C34.2199 30.056 36 26.7286 36 23C36 19.2714 34.2199 15.944 31.4315 13.7916C30.9943 13.4541 30.9135 12.8261 31.2509 12.3889Z" fill="#B2B8BF"/>
<defs>
<filter id="filter0_d_40098_1024" x="1" y="1" width="46" height="46" filterUnits="userSpaceOnUse" color-interpolation-filters="sRGB">
<feFlood flood-opacity="0" result="BackgroundImageFix"/>
<feColorMatrix in="SourceAlpha" type="matrix" values="0 0 0 0 0 0 0 0 0 0 0 0 0 0 0 0 0 0 127 0" result="hardAlpha"/>
<feOffset dy="1"/>
<feGaussianBlur stdDeviation="1.5"/>
<feComposite in2="hardAlpha" operator="out"/>
<feColorMatrix type="matrix" values="0 0 0 0 0 0 0 0 0 0 0 0 0 0 0 0 0 0 0.18 0"/>
<feBlend mode="normal" in2="BackgroundImageFix" result="effect1_dropShadow_40098_1024"/>
<feBlend mode="normal" in="SourceGraphic" in2="effect1_dropShadow_40098_1024" result="shape"/>
</filter>
</defs>
</svg>
