<svg width="32" height="32" viewBox="0 0 32 32" fill="none" xmlns="http://www.w3.org/2000/svg">
<path d="M32 16C32 24.83 24.83 32 16 32C7.16 32 0 24.83 0 16C0 7.16 7.16 0 16 0C24.83 0 32 7.16 32 16Z" fill="#198CFE"/>
<path d="M26 16C26 21.52 21.52 26 16 26C10.47 26 6 21.52 6 16C6 10.47 10.47 6 16 6C21.52 6 26 10.47 26 16Z" fill="#198CFE"/>
<path fill-rule="evenodd" clip-rule="evenodd" d="M16 26C21.52 26 26 21.52 26 16C26 10.47 21.52 6 16 6C10.47 6 6 10.47 6 16C6 21.52 10.47 26 16 26ZM17.6 22.81C17.08 22.93 16.54 23 16 23C15.45 23 14.91 22.93 14.39 22.81C14.01 22.72 13.64 22.6 13.27 22.45C12.89 22.28 12.53 22.09 12.19 21.87C11.78 21.61 11.4 21.3 11.05 20.94C10.69 20.59 10.38 20.21 10.12 19.8C9.9 19.46 9.71 19.1 9.54 18.72C9.39 18.35 9.27 17.98 9.18 17.6C9.06 17.08 9 16.54 9 16C9 15.45 9.06 14.91 9.18 14.39C9.27 14.01 9.39 13.64 9.54 13.27C9.71 12.89 9.9 12.53 10.12 12.19C10.38 11.78 10.69 11.4 11.05 11.05C11.4 10.69 11.78 10.38 12.19 10.12C12.53 9.9 12.89 9.71 13.27 9.54C13.64 9.39 14.01 9.27 14.39 9.18C14.91 9.06 15.45 9 16 9C16.54 9 17.08 9.06 17.6 9.18C17.98 9.27 18.35 9.39 18.72 9.54C19.1 9.71 19.46 9.9 19.8 10.12C20.21 10.38 20.59 10.69 20.94 11.05C21.3 11.4 21.61 11.78 21.87 12.19C22.09 12.53 22.28 12.89 22.45 13.27C22.6 13.64 22.72 14.01 22.81 14.39C22.93 14.91 23 15.45 23 16C23 16.54 22.93 17.08 22.81 17.6C22.72 17.98 22.6 18.35 22.45 18.72C22.28 19.1 22.09 19.46 21.87 19.8C21.61 20.21 21.3 20.59 20.94 20.94C20.59 21.3 20.21 21.61 19.8 21.87C19.46 22.09 19.1 22.28 18.72 22.45C18.35 22.6 17.98 22.72 17.6 22.81Z" fill="#E4E8EB"/>
</svg>
