<svg width="16" height="16" viewBox="0 0 16 16" fill="none" xmlns="http://www.w3.org/2000/svg">
<path fill-rule="evenodd" clip-rule="evenodd" d="M0 8C0 3.58 3.58 0 8 0C12.41 0 16 3.58 16 8C16 12.41 12.41 16 8 16C3.58 16 0 12.41 0 8Z" fill="#8A4E35"/>
<path d="M5.90998 7.72C6.28998 7.65 6.95998 7.57 7.55998 7.57C8.70998 7.57 9.03998 7.91 9.03998 8.71C9.03998 9.55 8.66998 9.97 7.62998 9.97C6.93998 9.97 6.22998 9.75 5.84998 9.46V10.78C6.37998 11 7.09998 11.12 7.67998 11.12C9.70998 11.12 10.35 10.18 10.35 8.7C10.35 7.34 9.72998 6.56 8.08998 6.56C7.67998 6.56 7.23998 6.59 7.00998 6.62L7.11998 5.14H10.07V4H6.15998L5.90998 7.72Z" fill="#181819"/>
</svg>
