<svg width="16" height="16" viewBox="0 0 16 16" fill="none" xmlns="http://www.w3.org/2000/svg">
<path fill-rule="evenodd" clip-rule="evenodd" d="M0 8C0 3.58 3.58 0 8 0C12.41 0 16 3.58 16 8C16 12.41 12.41 16 8 16C3.58 16 0 12.41 0 8Z" fill="#ACBFE3"/>
<path fill-rule="evenodd" clip-rule="evenodd" d="M13.07 11.0001H8.51V10.1501C10.32 8.40012 11.72 7.58012 11.72 6.28012C11.72 5.45012 11.32 5.06012 10.46 5.06012C9.76 5.06012 9.11 5.35012 8.64 5.76012V4.33012C9.16 4.05012 9.89 3.87012 10.69 3.87012C12.44 3.87012 13.04 4.71012 13.04 5.96012C13.04 7.52012 12.02 8.38012 10.32 9.85012H13.07V11.0001ZM7.51 11.0001H3.09V9.93012H4.91V5.43012L3.09 6.62012V5.43012L5.29 4.00012H6.18V9.93012H7.51V11.0001Z" fill="white"/>
</svg>
