<svg width="38" height="38" viewBox="0 0 38 38" fill="none" xmlns="http://www.w3.org/2000/svg">
<g filter="url(#filter0_d)">
<path d="M35 18C35 26.8366 27.8366 34 19 34C10.1634 34 3 26.8366 3 18C3 9.16344 10.1634 2 19 2C27.8366 2 35 9.16344 35 18Z" fill="#107F8C"/>
</g>
<path fill-rule="evenodd" clip-rule="evenodd" d="M19 32C26.732 32 33 25.732 33 18C33 10.268 26.732 4 19 4C11.268 4 5 10.268 5 18C5 25.732 11.268 32 19 32ZM19 34C27.8366 34 35 26.8366 35 18C35 9.16344 27.8366 2 19 2C10.1634 2 3 9.16344 3 18C3 26.8366 10.1634 34 19 34Z" fill="white"/>
<defs>
<filter id="filter0_d" x="0" y="0" width="38" height="38" filterUnits="userSpaceOnUse" color-interpolation-filters="sRGB">
<feFlood flood-opacity="0" result="BackgroundImageFix"/>
<feColorMatrix in="SourceAlpha" type="matrix" values="0 0 0 0 0 0 0 0 0 0 0 0 0 0 0 0 0 0 127 0"/>
<feOffset dy="1"/>
<feGaussianBlur stdDeviation="1.5"/>
<feColorMatrix type="matrix" values="0 0 0 0 0.121569 0 0 0 0 0.121569 0 0 0 0 0.133333 0 0 0 0.25 0"/>
<feBlend mode="normal" in2="BackgroundImageFix" result="effect1_dropShadow"/>
<feBlend mode="normal" in="SourceGraphic" in2="effect1_dropShadow" result="shape"/>
</filter>
</defs>
</svg>
