<svg width="16" height="16" viewBox="0 0 16 16" fill="none" xmlns="http://www.w3.org/2000/svg">
<path fill-rule="evenodd" clip-rule="evenodd" d="M0 8C0 3.58 3.58 0 8 0C12.41 0 16 3.58 16 8C16 12.41 12.41 16 8 16C3.58 16 0 12.41 0 8Z" fill="#02C1F3"/>
<path fill-rule="evenodd" clip-rule="evenodd" d="M6.55995 11H5.28995V9.33H2.19995V8.58L4.97995 4H6.55995V8.18H7.38995V9.33H6.55995V11ZM9.06995 11H7.78995L10.14 4H11.57L13.89 11H12.56L12.04 9.33H9.58995L9.06995 11ZM5.28995 5.34L3.60995 8.18H5.27995L5.28995 5.34ZM11.71 8.27L10.83 5.39L9.91995 8.27H11.71Z" fill="#181819"/>
</svg>
