<svg width="16" height="16" viewBox="0 0 16 16" fill="none" xmlns="http://www.w3.org/2000/svg">
<path fill-rule="evenodd" clip-rule="evenodd" d="M0 8C0 3.58 3.58 0 8 0C12.41 0 16 3.58 16 8C16 12.41 12.41 16 8 16C3.58 16 0 12.41 0 8Z" fill="#E66BC0"/>
<path fill-rule="evenodd" clip-rule="evenodd" d="M7.50998 11H3.09998V9.93H4.90998V5.43L3.09998 6.62V5.43L5.29998 4H6.17998V9.93H7.50998V11ZM10.41 7.57C9.80998 7.57 9.13998 7.65 8.75998 7.72L9.00998 4H12.92V5.14H9.96998L9.85998 6.62C10.09 6.59 10.53 6.56 10.94 6.56C12.58 6.56 13.2 7.34 13.2 8.7C13.2 10.18 12.56 11.12 10.53 11.12C9.94998 11.12 9.22998 11 8.69998 10.78V9.46C9.07998 9.75 9.78998 9.97 10.48 9.97C11.52 9.97 11.89 9.55 11.89 8.71C11.89 7.91 11.56 7.57 10.41 7.57Z" fill="#181819"/>
</svg>
