<svg width="48" height="48" viewBox="0 0 48 48" fill="none" xmlns="http://www.w3.org/2000/svg">
<g filter="url(#filter0_d_35122_1495)">
<path fill-rule="evenodd" clip-rule="evenodd" d="M24 43C35.0457 43 44 34.0457 44 23C44 11.9543 35.0457 3 24 3C12.9543 3 4 11.9543 4 23C4 34.0457 12.9543 43 24 43Z" fill="white"/>
</g>
<path fill-rule="evenodd" clip-rule="evenodd" d="M29 20C30.6569 20 32 18.6569 32 17C32 15.3431 30.6569 14 29 14C27.3431 14 26 15.3431 26 17C26 18.6569 27.3431 20 29 20Z" fill="#FF9900"/>
<path fill-rule="evenodd" clip-rule="evenodd" d="M24 16C24.0334 16 24.0665 16.0016 24.099 16.0048C24.0341 16.3265 24 16.6592 24 17C24 17.3408 24.0341 17.6735 24.099 17.9952C24.0665 17.9984 24.0334 18 24 18H16.5C15.9477 18 15.5 17.5523 15.5 17C15.5 16.4477 15.9477 16 16.5 16H24ZM21 21C21 20.4477 20.5523 20 20 20C19.4477 20 19 20.4477 19 21V22H16.5C15.9477 22 15.5 22.4477 15.5 23C15.5 23.5523 15.9477 24 16.5 24H19V25C19 25.5523 19.4477 26 20 26C20.5523 26 21 25.5523 21 25V21ZM23 23C23 22.4477 23.4477 22 24 22H32C32.5523 22 33 22.4477 33 23C33 23.5523 32.5523 24 32 24H24C23.4477 24 23 23.5523 23 23ZM15.5 29C15.5 28.4477 15.9477 28 16.5 28H20C20.5523 28 21 28.4477 21 29C21 29.5523 20.5523 30 20 30H16.5C15.9477 30 15.5 29.5523 15.5 29ZM25 31V30H32C32.5523 30 33 29.5523 33 29C33 28.4477 32.5523 28 32 28H25V27C25 26.4477 24.5523 26 24 26C23.4477 26 23 26.4477 23 27V31C23 31.5523 23.4477 32 24 32C24.5523 32 25 31.5523 25 31Z" fill="#1F1F22"/>
<defs>
<filter id="filter0_d_35122_1495" x="1" y="1" width="46" height="46" filterUnits="userSpaceOnUse" color-interpolation-filters="sRGB">
<feFlood flood-opacity="0" result="BackgroundImageFix"/>
<feColorMatrix in="SourceAlpha" type="matrix" values="0 0 0 0 0 0 0 0 0 0 0 0 0 0 0 0 0 0 127 0" result="hardAlpha"/>
<feOffset dy="1"/>
<feGaussianBlur stdDeviation="1.5"/>
<feComposite in2="hardAlpha" operator="out"/>
<feColorMatrix type="matrix" values="0 0 0 0 0 0 0 0 0 0 0 0 0 0 0 0 0 0 0.18 0"/>
<feBlend mode="normal" in2="BackgroundImageFix" result="effect1_dropShadow_35122_1495"/>
<feBlend mode="normal" in="SourceGraphic" in2="effect1_dropShadow_35122_1495" result="shape"/>
</filter>
</defs>
</svg>
