<svg width="16" height="16" viewBox="0 0 16 16" fill="none" xmlns="http://www.w3.org/2000/svg">
<path fill-rule="evenodd" clip-rule="evenodd" d="M0 8C0 3.58 3.58 0 8 0C12.41 0 16 3.58 16 8C16 12.41 12.41 16 8 16C3.58 16 0 12.41 0 8Z" fill="#A1A2A3"/>
<path d="M7.37 11.1201C9.35 11.1201 10.35 9.86012 10.35 7.26012C10.35 5.04012 9.66 3.87012 7.85 3.87012C6.47 3.87012 5.55 4.64012 5.55 6.35012C5.55 7.70012 6.2 8.53012 7.5 8.53012C8.28 8.53012 8.87 8.16012 9.21 7.45012C9.22 7.52012 9.22 7.58012 9.22 7.69012C9.22 9.30012 8.38 9.97012 7.42 9.97012C6.74 9.97012 6.3 9.82012 5.98 9.60012V10.9001C6.39 11.0601 6.9 11.1201 7.37 11.1201ZM7.85 7.56012C7.2 7.56012 6.83 7.16012 6.83 6.27012C6.83 5.36012 7.3 4.95012 7.87 4.95012C8.61 4.95012 9.02 5.46012 9.03 6.38012C9 7.11012 8.58 7.56012 7.85 7.56012Z" fill="white"/>
</svg>
