<svg width="16" height="16" viewBox="0 0 16 16" fill="none" xmlns="http://www.w3.org/2000/svg">
<path fill-rule="evenodd" clip-rule="evenodd" d="M0 8C0 3.58 3.58 0 8 0C12.41 0 16 3.58 16 8C16 12.41 12.41 16 8 16C3.58 16 0 12.41 0 8Z" fill="#A1A2A3"/>
<path d="M7.37005 11.1201C9.35005 11.1201 10.35 9.86012 10.35 7.26012C10.35 5.04012 9.66005 3.87012 7.85005 3.87012C6.47005 3.87012 5.55005 4.64012 5.55005 6.35012C5.55005 7.70012 6.20005 8.53012 7.50005 8.53012C8.28005 8.53012 8.87005 8.16012 9.21005 7.45012C9.22005 7.52012 9.22005 7.58012 9.22005 7.69012C9.22005 9.30012 8.38005 9.97012 7.42005 9.97012C6.74005 9.97012 6.30005 9.82012 5.98005 9.60012V10.9001C6.39005 11.0601 6.90005 11.1201 7.37005 11.1201ZM7.85005 7.56012C7.20005 7.56012 6.83005 7.16012 6.83005 6.27012C6.83005 5.36012 7.30005 4.95012 7.87005 4.95012C8.61005 4.95012 9.02005 5.46012 9.03005 6.38012C9.00005 7.11012 8.58005 7.56012 7.85005 7.56012Z" fill="#181819"/>
</svg>
