<svg width="16" height="16" viewBox="0 0 16 16" fill="none" xmlns="http://www.w3.org/2000/svg">
<path fill-rule="evenodd" clip-rule="evenodd" d="M0 8C0 3.58 3.58 0 8 0C12.41 0 16 3.58 16 8C16 12.41 12.41 16 8 16C3.58 16 0 12.41 0 8Z" fill="#FFC61A"/>
<path d="M8 11.1201C9.65 11.1201 10.39 10.2701 10.39 9.03012C10.39 8.08012 10.12 7.50012 9.21 7.27012C10 7.00012 10.22 6.42012 10.22 5.59012C10.22 4.47012 9.52 3.87012 8 3.87012C6.44 3.87012 5.76 4.56012 5.76 5.69012C5.76 6.58012 6.06 7.04012 6.79 7.27012C5.88 7.56012 5.59 8.21012 5.59 9.06012C5.59 10.3701 6.32 11.1201 8 11.1201ZM8 10.0501C7.33 10.0501 6.92 9.70012 6.92 8.89012C6.92 8.20012 7.27 7.76012 8 7.76012C8.69 7.76012 9.08 8.11012 9.08 8.89012C9.08 9.67012 8.68 10.0501 8 10.0501ZM8 6.92012C7.36 6.92012 7.01 6.56012 7.01 5.92012C7.01 5.27012 7.33 4.95012 7.99 4.95012C8.67 4.95012 8.97 5.22012 8.97 5.89012C8.97 6.52012 8.69 6.92012 8 6.92012Z" fill="white"/>
</svg>
