<svg width="16" height="16" viewBox="0 0 16 16" fill="none" xmlns="http://www.w3.org/2000/svg">
<path fill-rule="evenodd" clip-rule="evenodd" d="M0 8C0 3.58 3.58 0 8 0C12.41 0 16 3.58 16 8C16 12.41 12.41 16 8 16C3.58 16 0 12.41 0 8Z" fill="#FFA8B0"/>
<path fill-rule="evenodd" clip-rule="evenodd" d="M7.51998 11H3.09998V9.93H4.91998V5.43L3.09998 6.62V5.43L5.29998 4H6.18998V9.93H7.51998V11ZM12.62 11H11.35V9.33H8.24998V8.58L11.04 4H12.62V8.18H13.45V9.33H12.62V11ZM11.35 5.34L9.66998 8.18H11.34L11.35 5.34Z" fill="#181819"/>
</svg>
