<svg width="64" height="64" viewBox="0 0 64 64" fill="none" xmlns="http://www.w3.org/2000/svg">
<path d="M43.5938 11.0625C37.3815 3.66701 25.5781 5.42188 25.0938 8.14063C22.2188 7.23438 17.5406 12.8781 16 17.5C14.6813 21.4563 12.25 36.0938 12.25 43.0625C15.75 45.0625 24.4552 46.875 32.88 46.875C41.3048 46.875 48.25 45.0937 52.25 43.0938C51.6562 37.6875 50.1562 18.875 43.5938 11.0625Z" fill="#FFBF1A"/>
<path fill-rule="evenodd" clip-rule="evenodd" d="M26.2307 7.77637C25.9275 8.00997 25.8472 8.18745 25.8321 8.27217C25.7943 8.48456 25.6668 8.67038 25.4823 8.78214C25.2978 8.8939 25.074 8.92078 24.8683 8.85593C24.4268 8.71677 23.8178 8.80169 23.0363 9.22885C22.2659 9.65 21.4267 10.3527 20.599 11.2544C18.9426 13.0589 17.4456 15.535 16.7115 17.7372C16.0747 19.6476 15.1449 24.2377 14.3718 29.2655C13.6329 34.0708 13.0512 39.185 13.0032 42.617C14.6986 43.4843 17.4823 44.3346 20.8594 44.9822C24.4826 45.6769 28.7178 46.125 32.88 46.125C40.8888 46.125 47.5047 44.4955 51.448 42.6487C51.4204 42.3873 51.3911 42.104 51.3597 41.8004C51.0401 38.7119 50.504 33.5305 49.4247 28.1274C48.1561 21.7764 46.1668 15.2917 43.0195 11.5449C40.0878 8.05479 35.8116 6.69853 32.167 6.55817C30.3466 6.48806 28.7255 6.72386 27.556 7.12047C26.9696 7.31934 26.5262 7.54871 26.2307 7.77637ZM32.2247 5.05928C36.1558 5.21067 40.8875 6.67472 44.168 10.5801C47.5832 14.6458 49.6252 21.4736 50.8956 27.8336C51.9902 33.3133 52.5341 38.5736 52.8529 41.6565C52.9062 42.1723 52.9533 42.6271 52.9955 43.0119C53.0298 43.3239 52.8661 43.6242 52.5854 43.7646C48.4607 45.8269 41.3959 47.625 32.88 47.625C28.6174 47.625 24.2876 47.1668 20.577 46.4553C16.887 45.7478 13.7374 44.7763 11.8779 43.7137C11.6442 43.5801 11.5 43.3316 11.5 43.0625C11.5 39.5181 12.1154 34.0697 12.8892 29.0376C13.6614 24.0154 14.6066 19.3086 15.2885 17.2628C16.095 14.8432 17.7074 12.1864 19.494 10.2401C20.3877 9.26642 21.3535 8.43925 22.3169 7.91265C23.0552 7.50908 23.8545 7.24967 24.6406 7.29971C24.8182 7.02444 25.0564 6.78753 25.3152 6.58815C25.7822 6.22835 26.3889 5.93235 27.0743 5.69993C28.4483 5.23396 30.2571 4.9835 32.2247 5.05928Z" fill="#F19F00"/>
<path d="M28.0636 58.999H35.9442C35.9442 58.999 36.7452 54.9411 36.9293 52.3021C37.0972 49.8943 36.9293 41.999 36.9293 41.999H27.0785C27.0785 41.999 26.9106 49.8943 27.0785 52.3021C27.2626 54.9411 28.0636 58.999 28.0636 58.999Z" fill="#FFDD64"/>
<path fill-rule="evenodd" clip-rule="evenodd" d="M26.3443 41.249H37.6635L37.6791 41.9831C37.6791 41.9809 37.6799 42.0231 37.6791 41.9831L37.686 42.3285C37.6903 42.5496 37.6962 42.868 37.7028 43.2576C37.7159 44.0367 37.7317 45.1009 37.7422 46.2407C37.7631 48.5056 37.7639 51.1145 37.6775 52.3542C37.5828 53.7111 37.3316 55.4144 37.1076 56.7631C36.9951 57.4407 36.8883 58.035 36.8097 58.4601C36.7704 58.6727 36.7381 58.8432 36.7156 58.9607L36.6894 59.0961L36.6802 59.1433C36.6791 59.1486 36.6813 59.138 36.6802 59.1433L36.5606 59.749H27.4472L27.3278 59.1443L27.3253 59.1316L27.3184 59.0961L27.2923 58.9607C27.2697 58.8432 27.2374 58.6727 27.1981 58.4601C27.1195 58.035 27.0128 57.4407 26.9003 56.7631C26.6763 55.4144 26.425 53.7111 26.3304 52.3542C26.2439 51.1145 26.2447 48.5056 26.2656 46.2407C26.2761 45.1009 26.2919 44.0367 26.3051 43.2576C26.3116 42.868 26.3175 42.5496 26.3218 42.3285L26.3287 41.9835L26.3443 41.249ZM27.8142 42.749C27.8113 42.9063 27.8082 43.0854 27.8048 43.2829C27.7917 44.0595 27.776 45.1196 27.7656 46.2546C27.7445 48.5392 27.7453 51.0819 27.8267 52.2499C27.9162 53.5321 28.1575 55.1773 28.38 56.5173C28.4907 57.184 28.5958 57.7691 28.6731 58.1874C28.677 58.2083 28.6808 58.2289 28.6845 58.249H35.3233C35.3271 58.2289 35.3309 58.2083 35.3348 58.1874C35.4121 57.7691 35.5171 57.184 35.6279 56.5173C35.8504 55.1773 36.0917 53.5321 36.1811 52.2499C36.2626 51.0819 36.2634 48.5392 36.2423 46.2546C36.2318 45.1196 36.2161 44.0595 36.203 43.2829C36.1997 43.0854 36.1965 42.9063 36.1937 42.749H27.8142Z" fill="#FF9900"/>
<path d="M27.0625 51.999C27.068 52.1077 27.074 52.209 27.0805 52.3021C27.2646 54.9411 28.0656 58.999 28.0656 58.999H35.9462C35.9462 58.999 36.7472 54.9411 36.9312 52.3021C36.9377 52.209 36.9437 52.1077 36.9492 51.999H27.0625Z" fill="#F2F8FF"/>
<path fill-rule="evenodd" clip-rule="evenodd" d="M26.2734 51.249H37.7382L37.6982 52.037C37.6925 52.1495 37.6863 52.2556 37.6794 52.3542C37.5847 53.7111 37.3335 55.4144 37.1095 56.7631C36.997 57.4407 36.8903 58.035 36.8117 58.4601C36.7723 58.6727 36.74 58.8432 36.7175 58.9607L36.6913 59.0961L36.6844 59.1316L36.6821 59.1433C35.4535 58.9024 36.6819 59.1443 36.6821 59.1433L36.5625 59.749H27.4491L27.3297 59.1443L27.3272 59.1316L27.3203 59.0961L27.2942 58.9607C27.2716 58.8432 27.2393 58.6727 27.2 58.4601C27.1214 58.035 27.0147 57.4407 26.9022 56.7631C26.6782 55.4144 26.4269 53.7111 26.3323 52.3542C26.3254 52.2556 26.3191 52.1495 26.3134 52.037L26.2734 51.249ZM28.6864 58.249H35.3252C35.329 58.2289 35.3328 58.2083 35.3367 58.1874C35.414 57.7691 35.519 57.184 35.6298 56.5173C35.8243 55.3457 36.0333 53.9407 36.1425 52.749H27.8692C27.9784 53.9407 28.1873 55.3457 28.3819 56.5173C28.4926 57.184 28.5977 57.7691 28.675 58.1874C28.6789 58.2083 28.6827 58.2289 28.6864 58.249Z" fill="#93B7ED"/>
<path d="M47.0039 27.999C47.0039 36.2833 40.2882 42.999 32.0039 42.999C23.7196 42.999 17.0039 36.2833 17.0039 27.999C17.0039 19.7148 23.7196 12.999 32.0039 12.999C40.2882 12.999 47.0039 19.7148 47.0039 27.999Z" fill="#FFDD64"/>
<path fill-rule="evenodd" clip-rule="evenodd" d="M32.0039 13.749C24.1338 13.749 17.7539 20.129 17.7539 27.999C17.7539 35.8691 24.1338 42.249 32.0039 42.249C39.874 42.249 46.2539 35.8691 46.2539 27.999C46.2539 20.129 39.874 13.749 32.0039 13.749ZM16.2539 27.999C16.2539 19.3005 23.3054 12.249 32.0039 12.249C40.7024 12.249 47.7539 19.3005 47.7539 27.999C47.7539 36.6975 40.7024 43.749 32.0039 43.749C23.3054 43.749 16.2539 36.6975 16.2539 27.999Z" fill="#F19F00"/>
<path d="M39.0039 24.999C39.0039 29.9696 34.9745 33.999 30.0039 33.999C25.0333 33.999 21.0039 29.9696 21.0039 24.999C21.0039 20.0285 25.0333 15.999 30.0039 15.999C34.9745 15.999 39.0039 20.0285 39.0039 24.999Z" fill="#FFECA7"/>
<path d="M27.0039 26.999C27.0039 28.1036 26.3323 28.999 25.5039 28.999C24.6755 28.999 24.0039 28.1036 24.0039 26.999C24.0039 25.8945 24.6755 24.999 25.5039 24.999C26.3323 24.999 27.0039 25.8945 27.0039 26.999Z" fill="#1F1F22"/>
<path d="M40.0039 26.999C40.0039 28.1036 39.3323 28.999 38.5039 28.999C37.6755 28.999 37.0039 28.1036 37.0039 26.999C37.0039 25.8945 37.6755 24.999 38.5039 24.999C39.3323 24.999 40.0039 25.8945 40.0039 26.999Z" fill="#1F1F22"/>
<path d="M33.0209 34.999L33.0096 34.999L33.004 34.999C32.4971 34.999 32.3874 35.1645 32.1316 35.3669C32.0588 35.4244 31.9555 35.4159 31.888 35.3524C31.5121 34.999 31.5297 34.999 30.987 34.999C30.7003 34.999 29.9187 35.1068 29.111 35.2182C28.489 35.304 27.8515 35.392 27.4127 35.4344C27.2469 35.4505 27.1553 35.6513 27.2646 35.7769C28.6652 37.3864 30.4096 37.999 32.004 37.999C33.5984 37.999 35.3428 37.3864 36.7433 35.7769C36.8527 35.6513 36.761 35.4505 36.5952 35.4344C36.1564 35.392 35.5189 35.304 34.8969 35.2182C34.0892 35.1068 33.3076 34.999 33.0209 34.999Z" fill="#C11030"/>
<path d="M25.0918 8.13849C25.5854 5.51469 36.8323 3.62723 43.25 10.624C49.7309 17.6897 51.5726 36.2914 52.1651 42.2759C52.1968 42.5959 52.2249 42.8799 52.25 43.124C50.75 29.624 48.9237 22.674 43.4952 21.124C42.3228 20.7893 40.8873 20.5059 39.3469 20.2017C33.7544 19.0975 26.7792 17.7203 25.9952 12.624C25.9952 15.624 24.1656 19.2698 18.75 22.124C14.1601 24.543 13.395 34.2588 12.968 39.6816C12.8911 40.6572 12.8252 41.4938 12.75 42.124L12.8114 43.3371C12.6119 43.2829 12.4246 43.2124 12.25 43.124C12.25 36.5645 14.7247 20.8202 16.2057 16.8845C17.6867 12.9488 22.1297 7.26389 25.0918 8.13849Z" fill="#FFECA7"/>
<path fill-rule="evenodd" clip-rule="evenodd" d="M31.9646 5.02369C35.7843 5.10138 40.4191 6.4281 43.8027 10.1171C45.5129 11.9816 46.8843 14.5667 47.9934 17.4387C49.1057 20.3189 49.9719 23.5346 50.6491 26.6984C52.0026 33.0214 52.6144 39.2015 52.9109 42.1962L52.9115 42.202C52.9432 42.5225 52.9712 42.8049 52.9961 43.0474C53.0382 43.4583 52.7403 43.8259 52.3297 43.8698C51.9191 43.9137 51.5502 43.6173 51.5046 43.2068C50.7543 36.4545 49.9295 31.4246 48.6414 27.9002C47.3607 24.3962 45.679 22.5275 43.2893 21.8452C42.1533 21.5209 40.7518 21.2436 39.2016 20.9375L39.1561 20.9285C36.3905 20.3825 33.1823 19.7491 30.5655 18.5962C28.8358 17.8342 27.2791 16.8065 26.2877 15.3606C25.4135 17.9512 23.2158 20.6181 19.0997 22.7875C18.1289 23.2991 17.3121 24.2234 16.6297 25.4827C15.9484 26.7398 15.428 28.2817 15.0272 29.9515C14.2248 33.294 13.9299 37.02 13.7156 39.7405L13.7144 39.756C13.6411 40.6876 13.5761 41.5121 13.5022 42.1491L13.5605 43.2992C13.5726 43.5392 13.469 43.7705 13.2819 43.9212C13.0947 44.072 12.8466 44.1239 12.6147 44.0608C12.3711 43.9946 12.1355 43.9067 11.9113 43.7932C11.659 43.6655 11.5 43.4068 11.5 43.124C11.5 39.7838 12.1265 34.1603 12.9311 28.9068C13.7328 23.6723 14.731 18.6737 15.5038 16.6203C16.2805 14.5561 17.815 12.069 19.5424 10.1987C20.4067 9.26295 21.3485 8.44971 22.3002 7.92563C23.0385 7.51909 23.8414 7.25593 24.6401 7.30363C24.812 7.03913 25.0397 6.80996 25.2867 6.6156C25.7373 6.26101 26.3218 5.96538 26.9828 5.7296C28.3079 5.25698 30.0536 4.98482 31.9646 5.02369ZM15.0488 25.278C15.1334 25.1045 15.2207 24.9344 15.3109 24.768C16.0761 23.3558 17.0761 22.1584 18.4003 21.4605C23.6362 18.701 25.2452 15.2778 25.2452 12.624C25.2452 12.232 25.5471 11.9061 25.938 11.8762C26.3289 11.8463 26.6768 12.1225 26.7365 12.51C27.0704 14.6809 28.7195 16.1439 31.1702 17.2235C33.6207 18.3031 36.6756 18.9098 39.4922 19.4659L39.5162 19.4707C41.0382 19.7712 42.4987 20.0595 43.7011 20.4028C45.7577 20.9901 47.3136 22.2705 48.5275 24.1942C47.983 22.0344 47.3441 19.9211 46.5942 17.9791C45.5167 15.189 44.2275 12.7993 42.6973 11.131C39.6632 7.82315 35.4657 6.59521 31.9341 6.52338C30.1695 6.48749 28.6098 6.74186 27.4867 7.14243C26.9237 7.34324 26.4983 7.57088 26.2143 7.79438C25.9225 8.024 25.844 8.19658 25.8288 8.27717C25.7896 8.4856 25.664 8.66768 25.4831 8.77833C25.3021 8.88898 25.0828 8.91784 24.8794 8.85778C24.4095 8.71904 23.7925 8.8163 23.0237 9.2396C22.2631 9.65844 21.4461 10.3484 20.6443 11.2165C19.0395 12.954 17.6119 15.2771 16.9076 17.1486C16.3778 18.5567 15.6961 21.6208 15.0488 25.278Z" fill="#F19F00"/>
<path fill-rule="evenodd" clip-rule="evenodd" d="M19.1509 22.6356C21.5667 22.3912 25.5618 22.663 28.4172 23.0161C29.5993 23.1622 30.5445 24.0821 30.6934 25.249H33.3144C33.4633 24.0821 34.4085 23.1622 35.5906 23.0161C38.446 22.663 42.4411 22.3912 44.8569 22.6356C45.5917 22.71 46.4269 23.1679 46.6335 24.0986C46.8648 25.1399 46.743 26.4931 46.4369 27.6972C46.1343 28.8874 45.6054 30.1148 44.8738 30.8216C44.5734 31.1118 44.2072 31.2482 43.8896 31.3086C42.1676 31.6363 38.9103 31.7088 36.501 31.3436C35.9506 31.2601 35.4201 30.9923 35.0379 30.5402C34.0369 29.3559 33.5968 28.0715 33.4036 26.749H30.6042C30.411 28.0715 29.9709 29.3559 28.9699 30.5402C28.5878 30.9923 28.0573 31.2601 27.5068 31.3436C25.0975 31.7088 21.8402 31.6363 20.1182 31.3086C19.8006 31.2482 19.4344 31.1118 19.134 30.8216C18.4024 30.1148 17.8735 28.8874 17.5709 27.6972C17.2648 26.4931 17.143 25.1399 17.3743 24.0986C17.581 23.1679 18.4161 22.71 19.1509 22.6356ZM28.2331 24.5048C25.4 24.1545 21.5429 23.9013 19.3019 24.128C19.1563 24.1428 19.0377 24.1916 18.9596 24.2497C18.8873 24.3035 18.8525 24.3611 18.8386 24.4238C18.6778 25.1476 18.7491 26.2434 19.0247 27.3277C19.3038 28.4258 19.7453 29.3264 20.1762 29.7428C20.2038 29.7694 20.2683 29.8103 20.3987 29.8351C21.937 30.1279 25.0225 30.203 27.282 29.8605C27.5089 29.8261 27.6988 29.7203 27.8243 29.572C28.7889 28.4306 29.1112 27.154 29.2114 25.6451C29.2486 25.086 28.8305 24.5786 28.2331 24.5048ZM44.7059 24.128C42.4649 23.9013 38.6078 24.1545 35.7747 24.5048C35.1773 24.5786 34.7592 25.086 34.7964 25.6451C34.8966 27.154 35.2189 28.4306 36.1835 29.572C36.309 29.7203 36.4989 29.8261 36.7259 29.8605C38.9853 30.203 42.0708 30.1279 43.6092 29.8351C43.7395 29.8103 43.804 29.7694 43.8316 29.7428C44.2625 29.3264 44.704 28.4258 44.9831 27.3277C45.2588 26.2434 45.33 25.1476 45.1692 24.4238C45.1553 24.3611 45.1205 24.3035 45.0482 24.2497C44.9701 24.1916 44.8515 24.1428 44.7059 24.128Z" fill="#107F8C"/>
<path d="M27.0785 52.302C26.9909 51.0455 26.9947 48.2946 27.0184 45.9512L18.8834 47.5051C16.1371 48.0296 13.9663 50.1381 13.362 52.8679L12.274 57.7829C12.1358 58.4072 12.611 58.9991 13.2504 58.9991L28.0636 58.999C28.0636 58.999 27.2626 54.9411 27.0785 52.302Z" fill="url(#paint0_linear_49350_5428)"/>
<path d="M35.9442 58.999C35.9442 58.999 36.7452 54.9411 36.9293 52.302C37.0169 51.0455 37.0131 48.2946 36.9894 45.9512L40.0222 46.5304L43.5039 52.499L40.0039 55.499L43.5039 58.999H35.9442Z" fill="url(#paint1_linear_49350_5428)"/>
<path d="M43.5039 52.499L40.0222 46.5304L45.1263 47.5051C47.8726 48.0296 50.0434 50.1381 50.6477 52.8679L51.7356 57.7829C51.8738 58.4072 51.3987 58.9991 50.7593 58.9991L43.5039 58.999L40.0039 55.499L43.5039 52.499Z" fill="url(#paint2_linear_49350_5428)"/>
<path d="M40.0222 46.5304L36.9894 45.9512C37.0131 48.2946 37.0169 51.0455 36.9293 52.302C36.7452 54.9411 35.9442 58.999 35.9442 58.999H43.5039M40.0222 46.5304L43.5039 52.499L40.0039 55.499L43.5039 58.999M40.0222 46.5304L45.1263 47.5051C47.8726 48.0296 50.0434 50.1381 50.6477 52.8679L51.7356 57.7829C51.8738 58.4072 51.3987 58.9991 50.7593 58.9991L43.5039 58.999M27.0184 45.9512C26.9947 48.2946 26.9909 51.0455 27.0785 52.302C27.2626 54.9411 28.0636 58.999 28.0636 58.999L13.2504 58.9991C12.611 58.9991 12.1358 58.4072 12.274 57.7829L13.362 52.8679C13.9663 50.1381 16.1371 48.0296 18.8834 47.5051L27.0184 45.9512Z" stroke="#107F8C" stroke-width="1.5" stroke-linecap="round" stroke-linejoin="round"/>
<path fill-rule="evenodd" clip-rule="evenodd" d="M27.7684 45.9588C27.7707 45.7339 27.672 45.5199 27.4994 45.3757C27.3268 45.2315 27.0987 45.1723 26.8778 45.2145L24.3632 45.6947C24.3572 45.6959 24.3513 45.6971 24.3453 45.6984L18.7427 46.7684C15.7022 47.3491 13.2988 49.6835 12.6298 52.7058L11.5418 57.6208C11.3 58.7134 12.1315 59.7491 13.2505 59.7491H21.0049C21.0075 59.7491 21.0102 59.749 21.0128 59.749H28.0637C28.288 59.749 28.5006 59.6486 28.6431 59.4752C28.7855 59.3019 28.8428 59.0734 28.7994 58.8533L28.7973 58.843L28.7908 58.8095L28.7655 58.6783C28.7435 58.5636 28.7118 58.3964 28.6731 58.1874C28.5958 57.7691 28.4907 57.184 28.38 56.5173C28.1575 55.1773 27.9162 53.5321 27.8268 52.2499C27.7417 51.0298 27.7446 48.3128 27.7684 45.9588ZM23.0698 47.4691L20.3561 52.1211C20.1736 52.434 20.2408 52.8327 20.5158 53.0685L23.4009 55.5414L20.6932 58.2491H13.2505C13.0906 58.2491 12.9718 58.1011 13.0064 57.945L14.0943 53.03C14.6339 50.5926 16.5721 48.7101 19.0241 48.2418L23.0698 47.4691ZM22.8156 58.249H27.1593C27.0861 57.8475 26.9952 57.3349 26.9003 56.7631C26.6763 55.4144 26.425 53.711 26.3304 52.3542C26.2518 51.2271 26.2453 48.9663 26.2605 46.8595L25.0253 47.0954L21.9679 52.3367L24.993 54.9296C25.1516 55.0656 25.2463 55.2615 25.2543 55.4703C25.2624 55.679 25.1829 55.8817 25.0352 56.0294L22.8156 58.249Z" fill="#107F8C"/>
<path fill-rule="evenodd" clip-rule="evenodd" d="M37.1301 45.2145C36.9092 45.1723 36.6811 45.2315 36.5085 45.3757C36.3359 45.5199 36.2372 45.7339 36.2395 45.9588C36.2633 48.3128 36.2662 51.0298 36.1811 52.2499C36.0917 53.5321 35.8504 55.1773 35.6279 56.5173C35.5172 57.184 35.4121 57.7691 35.3348 58.1874C35.2961 58.3964 35.2644 58.5636 35.2424 58.6783L35.2171 58.8095L35.2106 58.843L35.2084 58.8538C35.165 59.0739 35.2224 59.3019 35.3648 59.4752C35.5073 59.6486 35.7199 59.749 35.9442 59.749H43.497C43.4996 59.749 43.5023 59.7491 43.5049 59.7491H50.7593C51.8783 59.7491 52.7098 58.7134 52.468 57.6208L51.38 52.7058C50.711 49.6835 48.3076 47.3491 45.267 46.7684L40.1639 45.7938C40.1592 45.7929 40.1544 45.792 40.1496 45.7912L37.1301 45.2145ZM37.6775 52.3542C37.7561 51.2271 37.7474 46.8595 37.7474 46.8595L39.5464 47.2031L42.5409 52.3366L39.5158 54.9296C39.3572 55.0655 39.2625 55.2615 39.2545 55.4702C39.2465 55.679 39.3259 55.8816 39.4736 56.0293L41.6933 58.249H36.8485C36.9218 57.8475 37.0126 57.3349 37.1076 56.7631C37.3316 55.4144 37.5829 53.711 37.6775 52.3542ZM44.1527 52.1212L41.5016 47.5764L44.9857 48.2418C47.4377 48.7101 49.3759 50.5926 49.9155 53.03L51.0034 57.945C51.038 58.1011 50.9192 58.2491 50.7593 58.2491H43.8156L41.1079 55.5414L43.993 53.0685C44.268 52.8327 44.3353 52.4341 44.1527 52.1212Z" fill="#107F8C"/>
<defs>
<linearGradient id="paint0_linear_49350_5428" x1="50.479" y1="56.8505" x2="12.3918" y2="48.2418" gradientUnits="userSpaceOnUse">
<stop stop-color="#1E83ED"/>
<stop offset="0.236033" stop-color="#4AB2D5"/>
<stop offset="0.49858" stop-color="#5CC6D4"/>
<stop offset="0.774638" stop-color="#76B98B"/>
<stop offset="0.988192" stop-color="#ECFF9E"/>
</linearGradient>
<linearGradient id="paint1_linear_49350_5428" x1="50.479" y1="56.8505" x2="12.3918" y2="48.2418" gradientUnits="userSpaceOnUse">
<stop stop-color="#1E83ED"/>
<stop offset="0.236033" stop-color="#4AB2D5"/>
<stop offset="0.49858" stop-color="#5CC6D4"/>
<stop offset="0.774638" stop-color="#76B98B"/>
<stop offset="0.988192" stop-color="#ECFF9E"/>
</linearGradient>
<linearGradient id="paint2_linear_49350_5428" x1="50.479" y1="56.8505" x2="12.3918" y2="48.2418" gradientUnits="userSpaceOnUse">
<stop stop-color="#1E83ED"/>
<stop offset="0.236033" stop-color="#4AB2D5"/>
<stop offset="0.49858" stop-color="#5CC6D4"/>
<stop offset="0.774638" stop-color="#76B98B"/>
<stop offset="0.988192" stop-color="#ECFF9E"/>
</linearGradient>
</defs>
</svg>
