<svg width="16" height="16" viewBox="0 0 16 16" fill="none" xmlns="http://www.w3.org/2000/svg">
<path fill-rule="evenodd" clip-rule="evenodd" d="M0 8C0 3.58 3.58 0 8 0C12.41 0 16 3.58 16 8C16 12.41 12.41 16 8 16C3.58 16 0 12.41 0 8Z" fill="#02C1F3"/>
<path fill-rule="evenodd" clip-rule="evenodd" d="M6.56 11H5.29V9.33H2.2V8.58L4.98 4H6.56V8.18H7.39V9.33H6.56V11ZM9.07 11H7.79L10.14 4H11.57L13.9 11H12.56L12.04 9.33H9.59L9.07 11ZM5.29 5.34L3.61 8.18H5.28L5.29 5.34ZM11.71 8.27L10.83 5.39L9.92 8.27H11.71Z" fill="white"/>
</svg>
