<svg width="48" height="48" viewBox="0 0 48 48" fill="none" xmlns="http://www.w3.org/2000/svg">
<g filter="url(#filter0_d_49350_5089)">
<path fill-rule="evenodd" clip-rule="evenodd" d="M29.8602 36.798C29.9746 36.6511 30.1282 36.5395 30.3017 36.4719C36.7823 33.9487 41.375 27.6482 41.375 20.275C41.375 10.679 33.5959 2.89999 24 2.89999C14.4041 2.89999 6.625 10.679 6.625 20.275C6.625 27.6482 11.2176 33.9487 17.6983 36.4719C17.8718 36.5395 18.0254 36.6511 18.1397 36.798L23.2106 43.3178C23.611 43.8325 24.389 43.8325 24.7893 43.3178L29.8602 36.798Z" fill="#21A19A"/>
</g>
<path fill-rule="evenodd" clip-rule="evenodd" d="M29.576 34.6082C35.3141 32.3741 39.375 26.7963 39.375 20.275C39.375 11.7836 32.4914 4.89999 24 4.89999C15.5086 4.89999 8.625 11.7836 8.625 20.275C8.625 26.7963 12.6858 32.3741 18.4239 34.6082C18.9174 34.8003 19.3717 35.1244 19.7184 35.5702L24 41.075L28.2815 35.5702C28.6283 35.1244 29.0826 34.8004 29.576 34.6082ZM30.3017 36.4719C30.1282 36.5395 29.9746 36.6511 29.8602 36.798L24.7893 43.3178C24.389 43.8325 23.611 43.8325 23.2106 43.3178L18.1397 36.798C18.0254 36.6511 17.8718 36.5395 17.6983 36.4719C11.2176 33.9487 6.625 27.6482 6.625 20.275C6.625 10.679 14.4041 2.89999 24 2.89999C33.5959 2.89999 41.375 10.679 41.375 20.275C41.375 27.6482 36.7823 33.9487 30.3017 36.4719Z" fill="#E4E8EB"/>
<path fill-rule="evenodd" clip-rule="evenodd" d="M21.1123 10.6252L21.0938 10.625C20.5415 10.625 20.0938 11.0727 20.0938 11.625V20.625H18.0938C17.5415 20.625 17.0938 21.0727 17.0938 21.625C17.0938 22.1773 17.5415 22.625 18.0938 22.625H20.0938V25.625H18.0938C17.5415 25.625 17.0938 26.0727 17.0938 26.625C17.0938 27.1773 17.5415 27.625 18.0938 27.625H20.0938V30.625C20.0938 31.1773 20.5415 31.625 21.0938 31.625C21.646 31.625 22.0938 31.1773 22.0938 30.625V27.625H25.4826C26.0349 27.625 26.4826 27.1773 26.4826 26.625C26.4826 26.0727 26.0349 25.625 25.4826 25.625H22.0938V22.625H26.5938C28.1786 22.625 29.5137 21.812 30.4245 20.6942C31.3317 19.5809 31.8715 18.1085 31.8715 16.625C31.8715 15.1415 31.3317 13.6691 30.4245 12.5558C29.5137 11.438 28.1786 10.625 26.5938 10.625H21.1308L21.1123 10.6252ZM22.0938 20.625H26.5938C27.4533 20.625 28.2571 20.188 28.8741 19.4308C29.4947 18.6691 29.8715 17.6415 29.8715 16.625C29.8715 15.6085 29.4947 14.5809 28.8741 13.8192C28.2571 13.062 27.4533 12.625 26.5938 12.625H22.0938V20.625Z" fill="#E4E8EB"/>
<defs>
<filter id="filter0_d_49350_5089" x="3.625" y="0.899994" width="40.75" height="46.8038" filterUnits="userSpaceOnUse" color-interpolation-filters="sRGB">
<feFlood flood-opacity="0" result="BackgroundImageFix"/>
<feColorMatrix in="SourceAlpha" type="matrix" values="0 0 0 0 0 0 0 0 0 0 0 0 0 0 0 0 0 0 127 0" result="hardAlpha"/>
<feOffset dy="1"/>
<feGaussianBlur stdDeviation="1.5"/>
<feComposite in2="hardAlpha" operator="out"/>
<feColorMatrix type="matrix" values="0 0 0 0 0 0 0 0 0 0 0 0 0 0 0 0 0 0 0.18 0"/>
<feBlend mode="normal" in2="BackgroundImageFix" result="effect1_dropShadow_49350_5089"/>
<feBlend mode="normal" in="SourceGraphic" in2="effect1_dropShadow_49350_5089" result="shape"/>
</filter>
</defs>
</svg>
