<svg width="56" height="56" viewBox="0 0 56 56" fill="none" xmlns="http://www.w3.org/2000/svg">
<g filter="url(#filter0_d_35122:1496)">
<path fill-rule="evenodd" clip-rule="evenodd" d="M28 47C39.598 47 49 37.598 49 26C49 14.402 39.598 5 28 5C16.402 5 7 14.402 7 26C7 37.598 16.402 47 28 47Z" fill="white"/>
</g>
<path fill-rule="evenodd" clip-rule="evenodd" d="M23 20C23 21.1 22.1 22 21 22C19.9 22 19 21.1 19 20C19 18.9 19.9 18 21 18C22.1 18 23 18.9 23 20ZM25 20C25 19.4477 25.4477 19 26 19L36 19C36.5523 19 37 19.4477 37 20C37 20.5523 36.5523 21 36 21L26 21C25.4477 21 25 20.5523 25 20ZM26 25C25.4477 25 25 25.4477 25 26C25 26.5523 25.4477 27 26 27L36 27C36.5523 27 37 26.5523 37 26C37 25.4477 36.5523 25 36 25L26 25ZM26 31C25.4477 31 25 31.4477 25 32C25 32.5523 25.4477 33 26 33L36 33C36.5523 33 37 32.5523 37 32C37 31.4477 36.5523 31 36 31L26 31ZM21 28C22.1 28 23 27.1 23 26C23 24.9 22.1 24 21 24C19.9 24 19 24.9 19 26C19 27.1 19.9 28 21 28ZM23 32C23 33.1 22.1 34 21 34C19.9 34 19 33.1 19 32C19 30.9 19.9 30 21 30C22.1 30 23 30.9 23 32Z" fill="#1F1F22"/>
<defs>
<filter id="filter0_d_35122:1496" x="0" y="0" width="56" height="56" filterUnits="userSpaceOnUse" color-interpolation-filters="sRGB">
<feFlood flood-opacity="0" result="BackgroundImageFix"/>
<feColorMatrix in="SourceAlpha" type="matrix" values="0 0 0 0 0 0 0 0 0 0 0 0 0 0 0 0 0 0 127 0" result="hardAlpha"/>
<feOffset dy="2"/>
<feGaussianBlur stdDeviation="3.5"/>
<feColorMatrix type="matrix" values="0 0 0 0 0.121569 0 0 0 0 0.121569 0 0 0 0 0.133333 0 0 0 0.25 0"/>
<feBlend mode="normal" in2="BackgroundImageFix" result="effect1_dropShadow_35122:1496"/>
<feBlend mode="normal" in="SourceGraphic" in2="effect1_dropShadow_35122:1496" result="shape"/>
</filter>
</defs>
</svg>
