<svg width="16" height="16" viewBox="0 0 16 16" fill="none" xmlns="http://www.w3.org/2000/svg">
<path fill-rule="evenodd" clip-rule="evenodd" d="M0 8C0 3.58 3.58 0 8 0C12.41 0 16 3.58 16 8C16 12.41 12.41 16 8 16C3.58 16 0 12.41 0 8Z" fill="#E66BC0"/>
<path fill-rule="evenodd" clip-rule="evenodd" d="M7.51001 11H3.10001V9.93H4.91001V5.43L3.10001 6.62V5.43L5.30001 4H6.18001V9.93H7.51001V11ZM10.41 7.57C9.81001 7.57 9.14001 7.65 8.76001 7.72L9.01001 4H12.92V5.14H9.97001L9.86001 6.62C10.09 6.59 10.53 6.56 10.94 6.56C12.58 6.56 13.2 7.34 13.2 8.7C13.2 10.18 12.56 11.12 10.53 11.12C9.95001 11.12 9.23001 11 8.70001 10.78V9.46C9.08001 9.75 9.79001 9.97 10.48 9.97C11.52 9.97 11.89 9.55 11.89 8.71C11.89 7.91 11.56 7.57 10.41 7.57Z" fill="white"/>
</svg>
