<svg width="56" height="56" viewBox="0 0 56 56" fill="none" xmlns="http://www.w3.org/2000/svg">
<g filter="url(#filter0_d_35122:1500)">
<path fill-rule="evenodd" clip-rule="evenodd" d="M28 47C39.598 47 49 37.598 49 26C49 14.402 39.598 5 28 5C16.402 5 7 14.402 7 26C7 37.598 16.402 47 28 47Z" fill="white"/>
</g>
<path fill-rule="evenodd" clip-rule="evenodd" d="M29 18C29 17.4477 28.5523 17 28 17C27.4477 17 27 17.4477 27 18V25H20C19.4477 25 19 25.4477 19 26C19 26.5523 19.4477 27 20 27H27V34C27 34.5523 27.4477 35 28 35C28.5523 35 29 34.5523 29 34V27H36C36.5523 27 37 26.5523 37 26C37 25.4477 36.5523 25 36 25H29V18Z" fill="#1F1F22"/>
<defs>
<filter id="filter0_d_35122:1500" x="0" y="0" width="56" height="56" filterUnits="userSpaceOnUse" color-interpolation-filters="sRGB">
<feFlood flood-opacity="0" result="BackgroundImageFix"/>
<feColorMatrix in="SourceAlpha" type="matrix" values="0 0 0 0 0 0 0 0 0 0 0 0 0 0 0 0 0 0 127 0" result="hardAlpha"/>
<feOffset dy="2"/>
<feGaussianBlur stdDeviation="3.5"/>
<feColorMatrix type="matrix" values="0 0 0 0 0.121569 0 0 0 0 0.121569 0 0 0 0 0.133333 0 0 0 0.25 0"/>
<feBlend mode="normal" in2="BackgroundImageFix" result="effect1_dropShadow_35122:1500"/>
<feBlend mode="normal" in="SourceGraphic" in2="effect1_dropShadow_35122:1500" result="shape"/>
</filter>
</defs>
</svg>
