<svg width="16" height="16" viewBox="0 0 16 16" fill="none" xmlns="http://www.w3.org/2000/svg">
<path fill-rule="evenodd" clip-rule="evenodd" d="M0 8C0 3.58 3.58 0 8 0C12.41 0 16 3.58 16 8C16 12.41 12.41 16 8 16C3.58 16 0 12.41 0 8Z" fill="#0078C0"/>
<path d="M6.80997 7.96989H7.53997C8.58997 7.96989 8.90997 8.28989 8.90997 8.89989C8.90997 9.53989 8.66997 9.93989 7.51997 9.93989C6.78997 9.93989 6.05997 9.63989 5.58997 9.28989V10.6699C6.10997 10.9299 6.92997 11.0999 7.66997 11.0999C9.51997 11.0999 10.25 10.3399 10.25 9.01989C10.25 8.06989 9.78997 7.47989 8.72997 7.34989C9.59997 7.11989 10.04 6.55989 10.04 5.66989C10.04 4.53989 9.52997 3.88989 7.80997 3.88989C7.10997 3.88989 6.22997 4.07989 5.67997 4.31989V5.60989C6.13997 5.30989 6.80997 5.04989 7.49997 5.04989C8.43997 5.04989 8.69997 5.32989 8.69997 5.89989C8.69997 6.57989 8.36997 6.91989 7.43997 6.91989H6.80997V7.96989Z" fill="#181819"/>
</svg>
