<svg width="56" height="56" viewBox="0 0 56 56" fill="none" xmlns="http://www.w3.org/2000/svg">
<g filter="url(#filter0_d_35122:1498)">
<path fill-rule="evenodd" clip-rule="evenodd" d="M28 47C39.598 47 49 37.598 49 26C49 14.402 39.598 5 28 5C16.402 5 7 14.402 7 26C7 37.598 16.402 47 28 47Z" fill="white"/>
</g>
<path fill-rule="evenodd" clip-rule="evenodd" d="M26.5 16C21.8056 16 18 19.8056 18 24.5C18 29.1944 21.8056 33 26.5 33C28.4869 33 30.3145 32.3183 31.7618 31.176L35.5355 34.9497C35.9261 35.3403 36.5592 35.3403 36.9497 34.9497C37.3403 34.5592 37.3403 33.9261 36.9497 33.5355L33.176 29.7618C34.3183 28.3145 35 26.4869 35 24.5C35 19.8056 31.1944 16 26.5 16ZM20 24.5C20 20.9101 22.9101 18 26.5 18C30.0899 18 33 20.9101 33 24.5C33 28.0899 30.0899 31 26.5 31C22.9101 31 20 28.0899 20 24.5Z" fill="#1F1F22"/>
<defs>
<filter id="filter0_d_35122:1498" x="0" y="0" width="56" height="56" filterUnits="userSpaceOnUse" color-interpolation-filters="sRGB">
<feFlood flood-opacity="0" result="BackgroundImageFix"/>
<feColorMatrix in="SourceAlpha" type="matrix" values="0 0 0 0 0 0 0 0 0 0 0 0 0 0 0 0 0 0 127 0" result="hardAlpha"/>
<feOffset dy="2"/>
<feGaussianBlur stdDeviation="3.5"/>
<feColorMatrix type="matrix" values="0 0 0 0 0.121569 0 0 0 0 0.121569 0 0 0 0 0.133333 0 0 0 0.25 0"/>
<feBlend mode="normal" in2="BackgroundImageFix" result="effect1_dropShadow_35122:1498"/>
<feBlend mode="normal" in="SourceGraphic" in2="effect1_dropShadow_35122:1498" result="shape"/>
</filter>
</defs>
</svg>
