<svg width="128.000000" height="128.000000" viewBox="0 0 128 128" fill="none" xmlns="http://www.w3.org/2000/svg" xmlns:xlink="http://www.w3.org/1999/xlink">
	<desc>
			Created with Pixso.
	</desc>
	<defs>
		<clipPath id="clip14987_17135">
			<rect id="128/mc_mrk_nodocuments_128_dm" width="128.000000" height="128.000000" fill="white" fill-opacity="0"/>
		</clipPath>
		<linearGradient x1="1.318676" y1="70.862289" x2="102.417564" y2="42.862305" id="paint_linear_14987_17132_0" gradientUnits="userSpaceOnUse">
			<stop stop-color="#373C49"/>
			<stop offset="0.376001" stop-color="#373C49" stop-opacity="0.549020"/>
			<stop offset="1.000000" stop-color="#373C49" stop-opacity="0.000000"/>
		</linearGradient>
		<linearGradient x1="36.703300" y1="33.362305" x2="57.428551" y2="80.862297" id="paint_linear_14987_17132_1" gradientUnits="userSpaceOnUse">
			<stop stop-color="#373C49" stop-opacity="0.901961"/>
			<stop offset="0.991170" stop-color="#373C49" stop-opacity="0.000000"/>
		</linearGradient>
		<linearGradient x1="104.439575" y1="96.862267" x2="84.219788" y2="36.862305" id="paint_linear_14987_17132_2" gradientUnits="userSpaceOnUse">
			<stop stop-color="#373C49"/>
			<stop offset="0.492635" stop-color="#373C49" stop-opacity="0.000000"/>
			<stop offset="1.000000" stop-color="#373C49" stop-opacity="0.000000"/>
		</linearGradient>
		<linearGradient x1="102.417610" y1="49.362259" x2="57.934074" y2="70.362305" id="paint_linear_14987_17132_3" gradientUnits="userSpaceOnUse">
			<stop stop-color="#373C49" stop-opacity="0.901961"/>
			<stop offset="0.989045" stop-color="#373C49" stop-opacity="0.000000"/>
		</linearGradient>
	</defs>
	<g clip-path="url(#clip14987_17135)">
		<rect id="Union" x="30.327148" y="42.047058" rx="6.000000" width="62.000000" height="52.000000" transform="rotate(-15 30.327148 42.047058)" fill="#21A19A" fill-opacity="1.000000"/>
		<path id="Union" d="M26 30L43.6 30C46.51 30 49.2 31.58 50.61 34.13L53.82 39.96C54.17 40.6 54.84 41 55.57 41L102 41C106.41 41 110 44.58 110 49L110 94C110 98.41 106.41 102 102 102L26 102C21.58 102 18 98.41 18 94L18 38C18 33.58 21.58 30 26 30Z" fill="#43C4BD" fill-opacity="1.000000" fill-rule="evenodd"/>
		<path id="Union" d="M26 30L43.6 30C46.51 30 49.2 31.58 50.61 34.13L53.82 39.96C54.17 40.6 54.84 41 55.57 41L102 41C106.41 41 110 44.58 110 49L110 94C110 98.41 106.41 102 102 102L26 102C21.58 102 18 98.41 18 94L18 38C18 33.58 21.58 30 26 30Z" fill="url(#paint_linear_14987_17132_0)" fill-opacity="1.000000" fill-rule="evenodd"/>
		<path id="Union" d="M26 30L43.6 30C46.51 30 49.2 31.58 50.61 34.13L53.82 39.96C54.17 40.6 54.84 41 55.57 41L102 41C106.41 41 110 44.58 110 49L110 94C110 98.41 106.41 102 102 102L26 102C21.58 102 18 98.41 18 94L18 38C18 33.58 21.58 30 26 30Z" fill="url(#paint_linear_14987_17132_1)" fill-opacity="1.000000" fill-rule="evenodd"/>
		<path id="Union" d="M26 30L43.6 30C46.51 30 49.2 31.58 50.61 34.13L53.82 39.96C54.17 40.6 54.84 41 55.57 41L102 41C106.41 41 110 44.58 110 49L110 94C110 98.41 106.41 102 102 102L26 102C21.58 102 18 98.41 18 94L18 38C18 33.58 21.58 30 26 30Z" fill="url(#paint_linear_14987_17132_2)" fill-opacity="1.000000" fill-rule="evenodd"/>
		<path id="Union" d="M26 30L43.6 30C46.51 30 49.2 31.58 50.61 34.13L53.82 39.96C54.17 40.6 54.84 41 55.57 41L102 41C106.41 41 110 44.58 110 49L110 94C110 98.41 106.41 102 102 102L26 102C21.58 102 18 98.41 18 94L18 38C18 33.58 21.58 30 26 30Z" fill="url(#paint_linear_14987_17132_3)" fill-opacity="1.000000" fill-rule="evenodd"/>
		<path id="Union" d="M69 73.93C69 66.79 74.81 61 81.99 61C89.17 61 94.99 66.79 94.99 73.93C94.99 76.82 94.04 79.49 92.43 81.65L99.4 88.59C100.19 89.38 100.19 90.62 99.4 91.4C98.61 92.19 97.37 92.19 96.57 91.4L89.58 84.44C87.44 85.97 84.82 86.87 81.99 86.87C74.81 86.87 69 81.08 69 73.93ZM72.99 73.93C72.99 68.99 77.02 64.98 81.99 64.98C86.96 64.98 90.99 68.99 90.99 73.93C90.99 78.88 86.96 82.89 81.99 82.89C77.02 82.89 72.99 78.88 72.99 73.93Z" fill="#FFFFFF" fill-opacity="1.000000" fill-rule="evenodd"/>
	</g>
</svg>
