<svg width="96" height="96" viewBox="0 0 96 96" fill="none" xmlns="http://www.w3.org/2000/svg">
<path d="M48 11C54.6274 11 60 16.3726 60 23H56C56 18.5817 52.4183 15 48 15C43.5817 15 40 18.5817 40 23H36C36 16.3726 41.3726 11 48 11Z" fill="#21A19A"/>
<path d="M24.3378 30.2241C24.7371 26.1258 28.1823 23 32.3 23H63.7001C67.8178 23 71.263 26.1258 71.6623 30.2241L76.1449 76.2241C76.6031 80.9267 72.9075 85 68.1826 85H27.8175C23.0926 85 19.397 80.9267 19.8552 76.2241L24.3378 30.2241Z" fill="url(#paint0_radial_403_637)"/>
<path d="M39.5 45.9993C40.3283 45.9993 40.9999 46.671 41 47.4993V68.9134L57.5312 59.4671L55.4932 58.2445L45.2627 64.2904C44.5495 64.7117 43.6304 64.4752 43.209 63.762C42.7878 63.0489 43.0242 62.1297 43.7373 61.7083L54.7373 55.2083L54.9199 55.1165C55.3564 54.9334 55.8587 54.9656 56.2715 55.2132L61.2715 58.2132C61.7281 58.4871 62.0055 58.9826 62 59.515C61.9943 60.0474 61.7064 60.5368 61.2441 60.8011L40.2441 72.8021C39.78 73.0672 39.2094 73.0654 38.7471 72.7972C38.2847 72.5288 38 72.034 38 71.4993V47.4993C38.0001 46.671 38.6717 45.9993 39.5 45.9993Z" fill="white"/>
<path fill-rule="evenodd" clip-rule="evenodd" d="M43.7471 40.2025C44.2094 39.9342 44.78 39.9324 45.2441 40.1976L59.2441 48.1976C59.7114 48.4647 60 48.9621 60 49.5003C59.9998 50.0384 59.7114 50.5361 59.2441 50.803L45.2441 58.803C44.7801 59.068 44.2093 59.0663 43.7471 58.7982C43.2847 58.5299 43.0002 58.0349 43 57.5003V41.5003C43 40.9657 43.2847 40.4709 43.7471 40.2025ZM46 54.9144L55.4756 49.5003L46 44.0853V54.9144Z" fill="white"/>
<defs>
<radialGradient id="paint0_radial_403_637" cx="0" cy="0" r="1" gradientUnits="userSpaceOnUse" gradientTransform="translate(48 69.5) rotate(90) scale(44.2206 45.8881)">
<stop stop-color="#50BEB8"/>
<stop offset="0.861478" stop-color="#373C49"/>
</radialGradient>
</defs>
</svg>
