<svg width="96" height="96" viewBox="0 0 96 96" fill="none" xmlns="http://www.w3.org/2000/svg">
<circle cx="48" cy="48" r="36" fill="url(#paint0_radial_58_401)"/>
<path d="M29.5 57C30.3284 57 31 57.6716 31 58.5V62.5C31 63.8807 32.1193 65 33.5 65H37.5C38.3284 65 39 65.6716 39 66.5C39 67.3284 38.3284 68 37.5 68H33.5C30.4624 68 28 65.5376 28 62.5V58.5C28 57.6716 28.6716 57 29.5 57Z" fill="white"/>
<path d="M66.5 57C67.3284 57 68 57.6716 68 58.5V62.5C68 65.5376 65.5376 68 62.5 68H58.5C57.6716 68 57 67.3284 57 66.5C57 65.6716 57.6716 65 58.5 65H62.5C63.8807 65 65 63.8807 65 62.5V58.5C65 57.6716 65.6716 57 66.5 57Z" fill="white"/>
<path d="M53.3281 55.5635C53.8454 54.9165 54.7895 54.8111 55.4365 55.3281C56.0835 55.8454 56.1889 56.7895 55.6719 57.4365C53.9243 59.6224 51.1163 61 48 61C44.8837 61 42.0757 59.6224 40.3281 57.4365C39.811 56.7895 39.9165 55.8454 40.5635 55.3281C41.2105 54.8111 42.1546 54.9165 42.6719 55.5635C43.8295 57.0113 45.7619 58 48 58C50.2381 58 52.1705 57.0113 53.3281 55.5635Z" fill="white"/>
<path d="M48 41C48.8284 41 49.5 41.6716 49.5 42.5V48.5C49.5 50.7091 47.7091 52.5 45.5 52.5C44.6716 52.5 44 51.8284 44 51C44 50.1716 44.6716 49.5 45.5 49.5C46.0523 49.5 46.5 49.0523 46.5 48.5V42.5C46.5 41.6716 47.1716 41 48 41Z" fill="white"/>
<path d="M39 41C39.8284 41 40.5 41.6716 40.5 42.5V45.5C40.5 46.3284 39.8284 47 39 47C38.1716 47 37.5 46.3284 37.5 45.5V42.5C37.5 41.6716 38.1716 41 39 41Z" fill="white"/>
<path d="M56 41C56.8284 41 57.5 41.6716 57.5 42.5V45.5C57.5 46.3284 56.8284 47 56 47C55.1716 47 54.5 46.3284 54.5 45.5V42.5C54.5 41.6716 55.1716 41 56 41Z" fill="white"/>
<path d="M37.5 28C38.3284 28 39 28.6716 39 29.5C39 30.3284 38.3284 31 37.5 31H33.5C32.1193 31 31 32.1193 31 33.5V37.5C31 38.3284 30.3284 39 29.5 39C28.6716 39 28 38.3284 28 37.5V33.5C28 30.4624 30.4624 28 33.5 28H37.5Z" fill="white"/>
<path d="M62.5 28C65.5376 28 68 30.4624 68 33.5V37.5C68 38.3284 67.3284 39 66.5 39C65.6716 39 65 38.3284 65 37.5V33.5C65 32.1193 63.8807 31 62.5 31H58.5C57.6716 31 57 30.3284 57 29.5C57 28.6716 57.6716 28 58.5 28H62.5Z" fill="white"/>
<defs>
<radialGradient id="paint0_radial_58_401" cx="0" cy="0" r="1" gradientUnits="userSpaceOnUse" gradientTransform="translate(48 66) rotate(90) scale(51.3529 57.015)">
<stop stop-color="#50BEB8"/>
<stop offset="0.861478" stop-color="#373C49"/>
</radialGradient>
</defs>
</svg>
