<svg width="96" height="96" viewBox="0 0 96 96" fill="none" xmlns="http://www.w3.org/2000/svg">
<path d="M39.75 80.25C48.0343 80.25 54.75 73.5343 54.75 65.25C54.75 56.9657 48.0343 50.25 39.75 50.25C31.4657 50.25 24.75 56.9657 24.75 65.25C24.75 73.5343 31.4657 80.25 39.75 80.25Z" fill="#21A19A"/>
<path d="M21.75 45C27.549 45 32.25 40.299 32.25 34.5C32.25 28.701 27.549 24 21.75 24C15.951 24 11.25 28.701 11.25 34.5C11.25 40.299 15.951 45 21.75 45Z" fill="url(#paint0_linear_739_1657)"/>
<path d="M45.75 24.75C49.0637 24.75 51.75 22.0637 51.75 18.75C51.75 15.4363 49.0637 12.75 45.75 12.75C42.4363 12.75 39.75 15.4363 39.75 18.75C39.75 22.0637 42.4363 24.75 45.75 24.75Z" fill="url(#paint1_linear_739_1657)"/>
<path d="M33.75 57C33.75 42.9167 45.1667 31.5 59.25 31.5C73.3333 31.5 84.75 42.9167 84.75 57C84.75 71.0833 73.3333 82.5 59.25 82.5C45.1667 82.5 33.75 71.0833 33.75 57Z" fill="url(#paint2_radial_739_1657)"/>
<path d="M33.75 57C33.75 42.9167 45.1667 31.5 59.25 31.5C73.3333 31.5 84.75 42.9167 84.75 57C84.75 71.0833 73.3333 82.5 59.25 82.5C45.1667 82.5 33.75 71.0833 33.75 57Z" fill="url(#paint3_linear_739_1657)"/>
<path fill-rule="evenodd" clip-rule="evenodd" d="M63.3271 57.4678C64.117 56.9178 65.2881 56.7391 66.2607 57.5488L66.2627 57.5508C68.3663 59.309 69.7295 61.6539 69.7295 64.501C69.7295 64.8749 69.7317 65.6936 69.5283 66.4404C69.4254 66.8182 69.2363 67.3119 68.8555 67.7305C68.4303 68.1975 67.8259 68.5 67.1045 68.5H59.6143L59.6045 68.501L59.6035 68.5H52.125C51.4036 68.5 50.7992 68.1975 50.374 67.7305C49.9932 67.3119 49.8041 66.8182 49.7012 66.4404C49.4978 65.6936 49.5 64.8749 49.5 64.501C49.5 61.6539 50.8632 59.309 52.9668 57.5508L52.9688 57.5488C53.9414 56.7391 55.1125 56.9178 55.9023 57.4678L56.0557 57.582L56.0576 57.585C57.0008 58.3531 58.3595 58.872 59.6143 58.875C60.8693 58.8723 62.2285 58.3533 63.1719 57.585L63.1738 57.582L63.3271 57.4678ZM64.71 60.1826C63.3073 61.2005 61.4627 61.8663 59.6406 61.875C59.6354 61.8751 59.6302 61.876 59.625 61.876C59.6214 61.876 59.6178 61.875 59.6143 61.875C59.611 61.875 59.6077 61.876 59.6045 61.876C59.599 61.876 59.5934 61.8751 59.5879 61.875C57.7662 61.8661 55.922 61.2004 54.5195 60.1826C53.1937 61.422 52.5 62.8643 52.5 64.501C52.5 64.6933 52.5014 64.9037 52.5166 65.1182C52.5269 65.263 52.5447 65.3913 52.5645 65.5H66.665C66.6848 65.3913 66.7026 65.263 66.7129 65.1182C66.7281 64.9037 66.7295 64.6933 66.7295 64.501C66.7295 62.8643 66.0358 61.422 64.71 60.1826Z" fill="white"/>
<path fill-rule="evenodd" clip-rule="evenodd" d="M59.5 46C62.5376 46 65 48.4624 65 51.5C65 54.5376 62.5376 57 59.5 57C56.4624 57 54 54.5376 54 51.5C54 48.4624 56.4624 46 59.5 46ZM59.5 49C58.1193 49 57 50.1193 57 51.5C57 52.8807 58.1193 54 59.5 54C60.8807 54 62 52.8807 62 51.5C62 50.1193 60.8807 49 59.5 49Z" fill="white"/>
<path d="M20.25 46.5103C21.0731 46.4167 21.8165 47.0076 21.9102 47.8306C21.9643 48.3062 22.0317 48.7778 22.1123 49.2447C22.5574 51.8213 23.4016 54.2614 24.5781 56.4996C24.9636 57.2328 24.6815 58.1404 23.9483 58.5259C23.2151 58.9112 22.3084 58.629 21.9229 57.896C20.6029 55.3853 19.6557 52.6466 19.1563 49.7554C19.0658 49.2317 18.9904 48.7026 18.9297 48.1695C18.8363 47.3466 19.4272 46.6041 20.25 46.5103ZM53.3262 19.6021C53.5863 18.8157 54.4343 18.389 55.2207 18.649C60.9693 20.5504 65.8824 24.2778 69.2754 29.1421C69.7493 29.8216 69.5828 30.7571 68.9033 31.231C68.2239 31.7047 67.2893 31.5373 66.8154 30.858C63.7865 26.5155 59.4017 23.191 54.2793 21.4966C53.4929 21.2365 53.0662 20.3885 53.3262 19.6021ZM36.1924 19.2281C36.9614 18.9202 37.8346 19.2941 38.1426 20.063C38.4504 20.8321 38.0766 21.7053 37.3076 22.0132C35.275 22.8269 33.3743 23.9031 31.6484 25.1998C30.9861 25.6971 30.0464 25.5631 29.5488 24.9009C29.0514 24.2387 29.1846 23.2989 29.8467 22.8013C31.7807 21.3482 33.9116 20.1411 36.1924 19.2281Z" fill="#D6DEED"/>
<defs>
<linearGradient id="paint0_linear_739_1657" x1="20.1346" y1="35.7115" x2="67.7885" y2="-16.3846" gradientUnits="userSpaceOnUse">
<stop stop-color="#D6DEED"/>
<stop offset="1" stop-color="#8493B4"/>
</linearGradient>
<linearGradient id="paint1_linear_739_1657" x1="44.8269" y1="19.4423" x2="72.0577" y2="-10.3269" gradientUnits="userSpaceOnUse">
<stop stop-color="#D6DEED"/>
<stop offset="1" stop-color="#8493B4"/>
</linearGradient>
<radialGradient id="paint2_radial_739_1657" cx="0" cy="0" r="1" gradientUnits="userSpaceOnUse" gradientTransform="translate(35.25 66.75) rotate(-23.0089) scale(29.7411 27.8449)">
<stop stop-color="#50BEB8"/>
<stop offset="0.382525" stop-color="#70C6C5"/>
<stop offset="1" stop-color="#D6DEED"/>
</radialGradient>
<linearGradient id="paint3_linear_739_1657" x1="59.25" y1="61.5" x2="91.875" y2="33.75" gradientUnits="userSpaceOnUse">
<stop stop-color="#D6DEED" stop-opacity="0"/>
<stop offset="1" stop-color="#8493B4"/>
</linearGradient>
</defs>
</svg>
