<svg width="96" height="96" viewBox="0 0 96 96" fill="none" xmlns="http://www.w3.org/2000/svg">
<circle cx="48" cy="48" r="36" fill="url(#paint0_radial_1715_282)"/>
<path d="M48 25C55.1797 25 61 30.8203 61 38C61 42.419 58.7944 46.3219 55.4248 48.6709C65.7928 51.1936 73 58.9362 73 68V73.9004C66.5243 80.1524 57.7121 84 48 84C38.2879 84 29.4757 80.1524 23 73.9004V68C23 58.9367 30.2071 51.194 40.5742 48.6709C37.205 46.3219 35 42.4187 35 38C35 30.8203 40.8203 25 48 25Z" fill="url(#paint1_linear_1715_282)"/>
<path d="M62.5 63C63.3283 63.0001 64 63.6716 64 64.5C64 65.3284 63.3283 65.9999 62.5 66H52.5001C51.6716 66 51.0001 65.3284 51.0001 64.5C51.0001 63.6716 51.6716 63 52.5001 63H62.5Z" fill="white"/>
<defs>
<radialGradient id="paint0_radial_1715_282" cx="0" cy="0" r="1" gradientUnits="userSpaceOnUse" gradientTransform="translate(48 66.8182) scale(54.8182 86.8209)">
<stop stop-color="#21A19A"/>
<stop offset="1" stop-color="#D6DEED"/>
</radialGradient>
<linearGradient id="paint1_linear_1715_282" x1="48" y1="47.903" x2="48" y2="121.784" gradientUnits="userSpaceOnUse">
<stop stop-color="#D6DEED"/>
<stop offset="1" stop-color="#21A19A"/>
</linearGradient>
</defs>
</svg>
