<svg width="96" height="96" viewBox="0 0 96 96" fill="none" xmlns="http://www.w3.org/2000/svg">
<path d="M48 11C54.6274 11 60 16.3726 60 23H56C56 18.5817 52.4183 15 48 15C43.5817 15 40 18.5817 40 23H36C36 16.3726 41.3726 11 48 11Z" fill="#21A19A"/>
<path d="M24.3377 30.2241C24.7371 26.1258 28.1822 23 32.3 23H63.7C67.8178 23 71.2629 26.1258 71.6623 30.2241L76.1448 76.2241C76.6031 80.9267 72.9074 85 68.1825 85H27.8175C23.0925 85 19.3969 80.9267 19.8552 76.2241L24.3377 30.2241Z" fill="url(#paint0_radial_403_602)"/>
<path fill-rule="evenodd" clip-rule="evenodd" d="M39.1889 51.444C39.1353 51.5418 38.9846 51.4967 39.0013 51.3863C39.9207 45.299 46.5856 41.9715 52.3182 43.284C52.3928 43.3011 52.4575 43.3469 52.4994 43.4109L53.4478 44.8609C53.5354 44.9948 53.5025 45.1739 53.373 45.2679L52.0543 46.2254C51.9786 46.2803 51.8816 46.2965 51.7916 46.2711C47.0647 44.9325 41.5917 47.0585 39.1889 51.444ZM48.5045 50C47.1797 50 45.6139 50.4807 44.3544 51.4255C43.058 52.398 42.0045 53.9354 42.0045 56C42.0045 56.9908 42.2351 57.8715 42.6891 58.6323C43.138 59.3845 43.7572 59.9392 44.4179 60.3597C45.6434 61.1396 47.2059 61.5652 48.4963 61.9167L48.6099 61.9476C50.0485 62.3399 51.1796 62.6624 51.9806 63.172C52.3511 63.4078 52.5913 63.65 52.7439 63.9057C52.8913 64.1526 53.0045 64.4908 53.0045 65C53.0045 66.0279 52.6018 66.7083 51.9796 67.175C51.3077 67.6789 50.2775 68 49.0045 68C46.6336 68 45.5064 66.8806 44.5652 65.9393C43.9794 65.3536 43.0297 65.3536 42.4439 65.9393C41.8581 66.5251 41.8581 67.4749 42.4439 68.0607L42.4507 68.0675C43.5106 69.1274 45.3832 71 49.0045 71C50.7315 71 52.4514 70.5711 53.7795 69.575C55.1573 68.5418 56.0045 66.9722 56.0045 65C56.0045 64.0093 55.774 63.1287 55.3199 62.368C54.8709 61.6159 54.2517 61.0613 53.591 60.6409C52.3658 59.8614 50.8036 59.4359 49.5134 59.0844L49.3992 59.0533C47.9606 58.661 46.8295 58.3385 46.0287 57.8288C45.6581 57.593 45.4179 57.3507 45.2652 57.0949C45.1178 56.8478 45.0045 56.5094 45.0045 56C45.0045 55.0657 45.4511 54.3531 46.1546 53.8253C46.8951 53.2699 47.8293 53 48.5045 53C49.3765 53 49.8943 53.1089 50.3213 53.303C50.7673 53.5058 51.242 53.8587 51.9439 54.5607C52.5297 55.1464 53.4794 55.1464 54.0652 54.5607C54.651 53.9749 54.651 53.0251 54.0652 52.4393C53.2671 51.6413 52.4918 50.9942 51.5627 50.5719C50.6148 50.141 49.6326 50 48.5045 50Z" fill="white"/>
<defs>
<radialGradient id="paint0_radial_403_602" cx="0" cy="0" r="1" gradientUnits="userSpaceOnUse" gradientTransform="translate(48 69.5) rotate(90) scale(44.2206 45.9287)">
<stop stop-color="#50BEB8"/>
<stop offset="0.861478" stop-color="#D6DEED"/>
</radialGradient>
</defs>
</svg>
