<svg width="96" height="96" viewBox="0 0 96 96" fill="none" xmlns="http://www.w3.org/2000/svg">
<path fill-rule="evenodd" clip-rule="evenodd" d="M25.82 30.61L60.6 21.29C63.27 20.57 66.01 22.16 66.72 24.82L74.23 52.84C74.94 55.5 73.36 58.25 70.69 58.96L35.92 68.28C33.25 68.99 30.51 67.41 29.79 64.74L22.29 36.73C21.57 34.06 23.16 31.32 25.82 30.61Z" fill="#21A19A"/>
<path fill-rule="evenodd" clip-rule="evenodd" d="M21 22H32.84C35.04 22 37.07 23.2 38.12 25.13L40.33 29.2C40.68 29.84 41.35 30.25 42.09 30.25H75C78.86 30.25 82 33.38 82 37.25V69C82 72.86 78.86 76 75 76H21C17.13 76 14 72.86 14 69V29C14 25.13 17.13 22 21 22Z" fill="#43C4BD"/>
<path fill-rule="evenodd" clip-rule="evenodd" d="M21 22H32.84C35.04 22 37.07 23.2 38.12 25.13L40.33 29.2C40.68 29.84 41.35 30.25 42.09 30.25H75C78.86 30.25 82 33.38 82 37.25V69C82 72.86 78.86 76 75 76H21C17.13 76 14 72.86 14 69V29C14 25.13 17.13 22 21 22Z" fill="url(#paint0_linear_11_475)"/>
<path fill-rule="evenodd" clip-rule="evenodd" d="M21 22H32.84C35.04 22 37.07 23.2 38.12 25.13L40.33 29.2C40.68 29.84 41.35 30.25 42.09 30.25H75C78.86 30.25 82 33.38 82 37.25V69C82 72.86 78.86 76 75 76H21C17.13 76 14 72.86 14 69V29C14 25.13 17.13 22 21 22Z" fill="url(#paint1_linear_11_475)"/>
<path fill-rule="evenodd" clip-rule="evenodd" d="M21 22H32.84C35.04 22 37.07 23.2 38.12 25.13L40.33 29.2C40.68 29.84 41.35 30.25 42.09 30.25H75C78.86 30.25 82 33.38 82 37.25V69C82 72.86 78.86 76 75 76H21C17.13 76 14 72.86 14 69V29C14 25.13 17.13 22 21 22Z" fill="url(#paint2_linear_11_475)"/>
<path fill-rule="evenodd" clip-rule="evenodd" d="M21 22H32.84C35.04 22 37.07 23.2 38.12 25.13L40.33 29.2C40.68 29.84 41.35 30.25 42.09 30.25H75C78.86 30.25 82 33.38 82 37.25V69C82 72.86 78.86 76 75 76H21C17.13 76 14 72.86 14 69V29C14 25.13 17.13 22 21 22Z" fill="url(#paint3_linear_11_475)"/>
<path fill-rule="evenodd" clip-rule="evenodd" d="M49.5 53.99C49.5 48.19 54.19 43.5 59.99 43.5C65.79 43.5 70.49 48.19 70.49 53.99C70.49 56.61 69.53 59 67.95 60.83L73.05 65.93C73.64 66.52 73.64 67.46 73.05 68.05C72.46 68.64 71.52 68.64 70.93 68.05L65.69 62.81C64.05 63.87 62.09 64.49 59.99 64.49C54.19 64.49 49.5 59.79 49.5 53.99ZM52.49 53.99C52.49 49.85 55.85 46.49 59.99 46.49C64.13 46.49 67.49 49.85 67.49 53.99C67.49 58.13 64.13 61.49 59.99 61.49C55.85 61.49 52.49 58.13 52.49 53.99Z" fill="white"/>
<defs>
<linearGradient id="paint0_linear_11_475" x1="1.67033" y1="52.6467" x2="76.3956" y2="31.6467" gradientUnits="userSpaceOnUse">
<stop stop-color="#97A4C1"/>
<stop offset="0.376001" stop-color="#97A4C1" stop-opacity="0.435294"/>
<stop offset="1" stop-color="#D6DEED" stop-opacity="0"/>
</linearGradient>
<linearGradient id="paint1_linear_11_475" x1="27.8242" y1="24.5217" x2="43.1428" y2="60.1467" gradientUnits="userSpaceOnUse">
<stop stop-color="#97A4C1" stop-opacity="0.121569"/>
<stop offset="0.543155" stop-color="#D6DEED" stop-opacity="0"/>
<stop offset="0.99117" stop-color="#D6DEED" stop-opacity="0"/>
</linearGradient>
<linearGradient id="paint2_linear_11_475" x1="77.8901" y1="72.1467" x2="62.9451" y2="27.1467" gradientUnits="userSpaceOnUse">
<stop stop-color="#D6DEED"/>
<stop offset="0.492635" stop-color="#D6DEED" stop-opacity="0"/>
<stop offset="1" stop-color="#D6DEED" stop-opacity="0"/>
</linearGradient>
<linearGradient id="paint3_linear_11_475" x1="76.3956" y1="36.5217" x2="43.5165" y2="52.2717" gradientUnits="userSpaceOnUse">
<stop stop-color="#D6DEED"/>
<stop offset="0.989045" stop-color="#EEF3FC" stop-opacity="0"/>
</linearGradient>
</defs>
</svg>
