<svg width="96.000000" height="96.000000" viewBox="0 0 96 96" fill="none" xmlns="http://www.w3.org/2000/svg" xmlns:xlink="http://www.w3.org/1999/xlink">
	<desc>
			Created with Pixso.
	</desc>
	<defs>
		<clipPath id="clip13958_8653">
			<rect id="96/mc_mrk_nodocuments_96_lm" width="96.000000" height="96.000000" fill="white" fill-opacity="0"/>
		</clipPath>
		<linearGradient x1="1.670332" y1="52.646725" x2="76.395607" y2="31.646725" id="paint_linear_14987_16138_0" gradientUnits="userSpaceOnUse">
			<stop stop-color="#97A4C1"/>
			<stop offset="0.376001" stop-color="#97A4C1" stop-opacity="0.435294"/>
			<stop offset="1.000000" stop-color="#D6DEED" stop-opacity="0.000000"/>
		</linearGradient>
		<linearGradient x1="27.824173" y1="24.521732" x2="43.142838" y2="60.146725" id="paint_linear_14987_16138_1" gradientUnits="userSpaceOnUse">
			<stop stop-color="#97A4C1" stop-opacity="0.121569"/>
			<stop offset="0.543155" stop-color="#D6DEED" stop-opacity="0.000000"/>
			<stop offset="0.991170" stop-color="#D6DEED" stop-opacity="0.000000"/>
		</linearGradient>
		<linearGradient x1="77.890129" y1="72.146690" x2="62.945068" y2="27.146723" id="paint_linear_14987_16138_2" gradientUnits="userSpaceOnUse">
			<stop stop-color="#D6DEED"/>
			<stop offset="0.492635" stop-color="#D6DEED" stop-opacity="0.000000"/>
			<stop offset="1.000000" stop-color="#D6DEED" stop-opacity="0.000000"/>
		</linearGradient>
		<linearGradient x1="76.395622" y1="36.521690" x2="43.516487" y2="52.271729" id="paint_linear_14987_16138_3" gradientUnits="userSpaceOnUse">
			<stop stop-color="#D6DEED"/>
			<stop offset="0.989045" stop-color="#EEF3FC" stop-opacity="0.000000"/>
		</linearGradient>
	</defs>
	<g clip-path="url(#clip13958_8653)">
		<path id="Union" d="M25.82 30.61L60.6 21.29C63.27 20.57 66.01 22.16 66.72 24.82L74.23 52.84C74.94 55.5 73.36 58.25 70.69 58.96L35.92 68.28C33.25 68.99 30.51 67.41 29.79 64.74L22.29 36.73C21.57 34.06 23.16 31.32 25.82 30.61Z" fill="#21A19A" fill-opacity="1.000000" fill-rule="evenodd"/>
		<path id="Union" d="M21 22L32.84 22C35.04 22 37.07 23.2 38.12 25.13L40.33 29.2C40.68 29.84 41.35 30.25 42.09 30.25L75 30.25C78.86 30.25 82 33.38 82 37.25L82 69C82 72.86 78.86 76 75 76L21 76C17.13 76 14 72.86 14 69L14 29C14 25.13 17.13 22 21 22Z" fill="#43C4BD" fill-opacity="1.000000" fill-rule="evenodd"/>
		<path id="Union" d="M21 22L32.84 22C35.04 22 37.07 23.2 38.12 25.13L40.33 29.2C40.68 29.84 41.35 30.25 42.09 30.25L75 30.25C78.86 30.25 82 33.38 82 37.25L82 69C82 72.86 78.86 76 75 76L21 76C17.13 76 14 72.86 14 69L14 29C14 25.13 17.13 22 21 22Z" fill="url(#paint_linear_14987_16138_0)" fill-opacity="1.000000" fill-rule="evenodd"/>
		<path id="Union" d="M21 22L32.84 22C35.04 22 37.07 23.2 38.12 25.13L40.33 29.2C40.68 29.84 41.35 30.25 42.09 30.25L75 30.25C78.86 30.25 82 33.38 82 37.25L82 69C82 72.86 78.86 76 75 76L21 76C17.13 76 14 72.86 14 69L14 29C14 25.13 17.13 22 21 22Z" fill="url(#paint_linear_14987_16138_1)" fill-opacity="1.000000" fill-rule="evenodd"/>
		<path id="Union" d="M21 22L32.84 22C35.04 22 37.07 23.2 38.12 25.13L40.33 29.2C40.68 29.84 41.35 30.25 42.09 30.25L75 30.25C78.86 30.25 82 33.38 82 37.25L82 69C82 72.86 78.86 76 75 76L21 76C17.13 76 14 72.86 14 69L14 29C14 25.13 17.13 22 21 22Z" fill="url(#paint_linear_14987_16138_2)" fill-opacity="1.000000" fill-rule="evenodd"/>
		<path id="Union" d="M21 22L32.84 22C35.04 22 37.07 23.2 38.12 25.13L40.33 29.2C40.68 29.84 41.35 30.25 42.09 30.25L75 30.25C78.86 30.25 82 33.38 82 37.25L82 69C82 72.86 78.86 76 75 76L21 76C17.13 76 14 72.86 14 69L14 29C14 25.13 17.13 22 21 22Z" fill="url(#paint_linear_14987_16138_3)" fill-opacity="1.000000" fill-rule="evenodd"/>
		<path id="Union" d="M49.5 53.99C49.5 48.19 54.19 43.5 59.99 43.5C65.79 43.5 70.49 48.19 70.49 53.99C70.49 56.61 69.53 59 67.95 60.83L73.05 65.93C73.64 66.52 73.64 67.46 73.05 68.05C72.46 68.64 71.52 68.64 70.93 68.05L65.69 62.81C64.05 63.87 62.09 64.49 59.99 64.49C54.19 64.49 49.5 59.79 49.5 53.99ZM52.49 53.99C52.49 49.85 55.85 46.49 59.99 46.49C64.13 46.49 67.49 49.85 67.49 53.99C67.49 58.13 64.13 61.49 59.99 61.49C55.85 61.49 52.49 58.13 52.49 53.99Z" fill="#FFFFFF" fill-opacity="1.000000" fill-rule="evenodd"/>
	</g>
</svg>
