<svg width="128" height="128" viewBox="0 0 128 128" fill="none" xmlns="http://www.w3.org/2000/svg">
<path d="M64.5 16.5C72.8758 16.5 79.5 23.5329 79.5 32H74.5C74.5 26.1077 69.9313 21.5 64.5 21.5C59.0687 21.5 54.5 26.1077 54.5 32H49.5C49.5 23.5329 56.1242 16.5 64.5 16.5Z" fill="#21A19A"/>
<path d="M33.0245 41.0152C33.5309 35.8987 37.8345 32 42.9759 32H85.0241C90.1655 32 94.4691 35.8988 94.9755 41.0152L100.913 101.015C101.495 106.899 96.8737 112 90.9616 112H37.0384C31.1263 112 26.5048 106.899 27.087 101.015L33.0245 41.0152Z" fill="url(#paint0_radial_403_604)"/>
<path fill-rule="evenodd" clip-rule="evenodd" d="M52.1892 65.448C52.1369 65.5466 51.986 65.5013 52.001 65.3907C53.0579 57.6103 61.1186 53.126 68.5004 54.1427C68.9361 54.2027 69.3694 54.2819 69.7988 54.3807C69.8889 54.4014 69.9684 54.4537 70.0243 54.5274L71.4204 56.3706C71.5563 56.55 71.5175 56.8062 71.3345 56.9373L69.4308 58.3009C69.3302 58.373 69.202 58.3941 69.0829 58.3603C68.8896 58.3056 68.6954 58.2552 68.5004 58.2092C62.277 56.7393 55.2498 59.669 52.1892 65.448ZM64.6652 62.998C62.8988 62.998 60.811 63.639 59.1317 64.8987C57.4032 66.1953 55.9985 68.2452 55.9985 70.998C55.9985 72.315 56.3013 73.486 56.899 74.4992C57.4906 75.5017 58.3076 76.2427 59.1816 76.8054C60.801 77.8479 62.8655 78.4167 64.5656 78.885L64.7167 78.9267C66.6141 79.45 68.0994 79.8787 69.1505 80.5552C69.6359 80.8675 69.9516 81.189 70.153 81.5303C70.3482 81.8609 70.4985 82.3149 70.4985 82.998C70.4985 84.4068 69.9719 85.3119 69.1908 85.9166C68.3458 86.5708 67.0279 86.998 65.3318 86.998C62.3197 86.9981 60.8354 85.51 59.5399 84.2112L59.4127 84.0838C58.6317 83.3028 57.3654 83.3028 56.5843 84.0838C55.8033 84.8649 55.8033 86.1312 56.5843 86.9123C56.6392 86.9672 56.6961 87.0244 56.755 87.0837C58.1346 88.4725 60.6433 90.9981 65.3319 90.998C67.6357 90.998 69.9012 90.4253 71.6395 89.0795C73.4417 87.6843 74.4985 85.5894 74.4985 82.998C74.4985 81.6812 74.1957 80.5103 73.5979 79.4973C73.0063 78.4949 72.1892 77.754 71.3152 77.1916C69.6961 76.1495 67.6321 75.5809 65.9322 75.1126L65.7803 75.0707C63.883 74.5474 62.3977 74.1186 61.3467 73.442C60.8613 73.1296 60.5455 72.808 60.3441 72.4665C60.1489 72.1357 59.9985 71.6815 59.9985 70.998C59.9985 69.7523 60.5939 68.8022 61.532 68.0985C62.5193 67.3579 63.7649 66.998 64.6652 66.998C65.8873 66.998 66.5317 67.1168 67.044 67.3363C67.5691 67.5614 68.1457 67.9737 69.0843 68.9123C69.8653 69.6933 71.1317 69.6933 71.9127 68.9123C72.6937 68.1312 72.6937 66.8649 71.9127 66.0838C70.8512 65.0224 69.8446 64.1847 68.6197 63.6598C67.382 63.1293 66.1097 62.998 64.6652 62.998Z" fill="white"/>
<defs>
<radialGradient id="paint0_radial_403_604" cx="0" cy="0" r="1" gradientUnits="userSpaceOnUse" gradientTransform="translate(64 92) rotate(90) scale(57.0588 60.2358)">
<stop stop-color="#50BEB8"/>
<stop offset="0.861478" stop-color="#D6DEED"/>
</radialGradient>
</defs>
</svg>
