<svg width="128.000000" height="128.000000" viewBox="0 0 128 128" fill="none" xmlns="http://www.w3.org/2000/svg" xmlns:xlink="http://www.w3.org/1999/xlink">
	<desc>
			Created with Pixso.
	</desc>
	<defs>
		<filter id="filter_13958_8626_dd" x="20.000000" y="33.000000" width="91.000000" height="72.000000" filterUnits="userSpaceOnUse" color-interpolation-filters="sRGB">
			<feFlood flood-opacity="0" result="BackgroundImageFix"/>
			<feGaussianBlur in="BackgroundImage" stdDeviation="6.66667"/>
			<feComposite in2="SourceAlpha" operator="in" result="effect_backgroundBlur_1"/>
			<feBlend mode="normal" in="SourceGraphic" in2="effect_backgroundBlur_1" result="shape"/>
			<feColorMatrix in="SourceAlpha" type="matrix" values="0 0 0 0 0 0 0 0 0 0 0 0 0 0 0 0 0 0 127 0" result="hardAlpha"/>
			<feOffset dx="0" dy="2"/>
			<feGaussianBlur stdDeviation="0.333333"/>
			<feComposite in2="hardAlpha" operator="arithmetic" k2="-1" k3="1"/>
			<feColorMatrix type="matrix" values="0 0 0 0 1 0 0 0 0 1 0 0 0 0 1 0 0 0 1 0"/>
			<feBlend mode="normal" in2="shape" result="effect_innerShadow_2"/>
		</filter>
		<clipPath id="clip13958_8638">
			<rect id="128/mc_mrk_nodocuments_128" width="128.000000" height="128.000000" fill="white" fill-opacity="0"/>
		</clipPath>
	</defs>
	<g clip-path="url(#clip13958_8638)">
		<rect id="Vector" x="31.327148" y="44.909424" rx="6.000000" width="62.000000" height="52.000000" transform="rotate(-15 31.327148 44.909424)" fill="#21A19A" fill-opacity="1.000000"/>
		<g filter="url(#filter_13958_8626_dd)">
			<path id="Vector" d="M26 33L46.43 33C48.63 33 50.65 34.19 51.7 36.12L55.43 42.95C55.78 43.6 56.45 44 57.18 44L105 44C108.31 44 111 46.68 111 50L111 99C111 102.31 108.31 105 105 105L26 105C22.68 105 20 102.31 20 99L20 39C20 35.68 22.68 33 26 33Z" fill="#95A3C1" fill-opacity="0.400000" fill-rule="evenodd"/>
		</g>
		<path id="Vector" d="M84 57C77.37 57 72 62.37 72 69C72 75.62 77.37 81 84 81C86.59 81 88.99 80.17 90.95 78.78L96.58 84.41C97.37 85.2 98.62 85.2 99.41 84.41C100.2 83.62 100.2 82.37 99.41 81.58L93.78 75.95C95.17 73.99 96 71.59 96 69C96 62.37 90.62 57 84 57ZM84 61C79.58 61 76 64.58 76 69C76 73.41 79.58 77 84 77C88.41 77 92 73.41 92 69C92 64.58 88.41 61 84 61Z" fill="#FFFFFF" fill-opacity="1.000000" fill-rule="evenodd"/>
	</g>
</svg>
