<svg width="96" height="96" viewBox="0 0 96 96" fill="none" xmlns="http://www.w3.org/2000/svg">
<circle cx="48" cy="48" r="36" fill="url(#paint0_radial_58_416)"/>
<path d="M47.9179 35.6387C58.3 35.6389 66.7909 43.917 66.7909 54.1699C66.7907 58.1858 63.4846 61.4157 59.4559 61.416C55.4075 61.416 52.1203 58.0512 52.12 54.1699C52.12 51.9869 50.2795 50.1427 47.9384 50.1426C45.5971 50.1426 43.7567 51.9868 43.7567 54.1699C43.7567 55.131 43.7967 57.4263 44.9911 60.1396C46.1767 62.8326 48.543 66.0344 53.3563 68.7393C54.0783 69.1452 54.3344 70.0601 53.9286 70.7822C53.5226 71.5039 52.6086 71.7601 51.8866 71.3545C46.5108 68.3336 43.6944 64.64 42.245 61.3477C40.8051 58.0765 40.7567 55.2963 40.7567 54.1699C40.7567 50.2496 44.0218 47.1426 47.9384 47.1426C51.8548 47.1427 55.12 50.2497 55.12 54.1699C55.1203 56.3917 57.0616 58.416 59.4559 58.416C61.8696 58.4157 63.7906 56.4875 63.7909 54.1699C63.7909 45.6303 56.7001 38.6389 47.9179 38.6387C41.8819 38.6387 36.3655 42.0206 33.7089 47.2676L33.4608 47.7812C32.6188 49.6091 32.1776 51.7594 32.1776 54.1904C32.1776 57.5096 32.6342 60.4014 33.5077 62.8008C33.791 63.5791 33.3895 64.4402 32.6112 64.7236C31.8328 65.007 30.9718 64.6055 30.6884 63.8271C29.6682 61.0251 29.1776 57.7714 29.1776 54.1904C29.1776 51.3992 29.6837 48.8092 30.7352 46.5264L31.0321 45.9121C34.2082 39.6381 40.7724 35.6387 47.9179 35.6387Z" fill="white"/>
<path d="M48.0106 41.291C55.0164 41.2913 60.7837 46.6922 61.0878 53.6104C61.1239 54.4377 60.4826 55.1384 59.6552 55.1748C58.8278 55.2111 58.1273 54.5695 58.0907 53.7422C57.8593 48.475 53.4582 44.2913 48.0106 44.291C42.5752 44.2911 37.9208 48.7737 37.9208 54.1904C37.9209 57.6366 38.727 61.1222 40.0028 63.4678L40.0077 63.4766C41.3452 65.9733 42.1857 67.0483 43.994 68.9209C44.5693 69.5168 44.5528 70.4666 43.9569 71.042C43.3611 71.6167 42.4121 71.6002 41.8368 71.0049C39.8597 68.9575 38.8471 67.6621 37.3671 64.9004C35.8026 62.0237 34.9209 58.0216 34.9208 54.1904C34.9208 47.0438 40.9923 41.2911 48.0106 41.291Z" fill="white"/>
<path d="M47.9481 52.6992C48.7765 52.6992 49.4481 53.3708 49.4481 54.1992C49.4481 57.3088 50.9935 60.249 53.58 62.0488L53.9198 62.2773C55.6194 63.3805 57.3003 63.8886 59.0849 63.8887C59.806 63.8887 60.5577 63.8072 61.3104 63.6338C62.1176 63.4478 62.9231 63.9516 63.1093 64.7588C63.295 65.5659 62.7914 66.3706 61.9843 66.5566C61.0084 66.7815 60.0307 66.8887 59.0849 66.8887C56.5012 66.8886 54.1275 66.0823 51.8681 64.5127C48.4857 62.1596 46.4481 58.3041 46.4481 54.1992C46.4482 53.371 47.12 52.6995 47.9481 52.6992Z" fill="white"/>
<path d="M48.0311 30.1543C52.1838 30.1544 56.2244 31.1314 59.7255 32.9932C63.1598 34.8159 66.0232 37.4837 68.2352 40.6924C68.705 41.3743 68.5332 42.3082 67.8515 42.7783C67.1695 43.2483 66.2347 43.0763 65.7645 42.3945C63.798 39.542 61.2876 37.2175 58.3202 35.6426C55.2758 34.0234 51.7204 33.1544 48.0311 33.1543C44.3339 33.1543 40.7416 34.0055 37.6962 35.6396L37.6923 35.6416C34.7262 37.2209 32.2187 39.4967 30.2382 42.3906C29.7703 43.0739 28.8367 43.2488 28.1532 42.7812C27.4697 42.3135 27.2941 41.3799 27.7616 40.6963C29.9999 37.4255 32.8642 34.8144 36.2772 32.9961C39.7983 31.1067 43.8856 30.1543 48.0311 30.1543Z" fill="white"/>
<path d="M48.0311 24.5C52.8691 24.5 57.1032 25.6202 61.6737 28.0527C62.4048 28.442 62.682 29.3508 62.2929 30.082C61.9035 30.813 60.9947 31.0903 60.2636 30.7012C56.0857 28.4777 52.3327 27.5 48.0311 27.5C43.7158 27.5 39.5846 28.5681 35.8183 30.6846C35.0961 31.0903 34.1811 30.8335 33.7753 30.1113C33.3698 29.3894 33.6259 28.4753 34.3476 28.0693C38.568 25.6976 43.207 24.5 48.0311 24.5Z" fill="white"/>
<defs>
<radialGradient id="paint0_radial_58_416" cx="0" cy="0" r="1" gradientUnits="userSpaceOnUse" gradientTransform="translate(48 66) rotate(90) scale(51.3529 57.015)">
<stop stop-color="#50BEB8"/>
<stop offset="0.861478" stop-color="#D6DEED"/>
</radialGradient>
</defs>
</svg>
