<svg width="128.000000" height="128.000000" viewBox="0 0 128 128" fill="none" xmlns="http://www.w3.org/2000/svg" xmlns:xlink="http://www.w3.org/1999/xlink">
	<desc>
			Created with Pixso.
	</desc>
	<defs>
		<clipPath id="clip14987_16285">
			<rect id="128/mc_mrk_confirmlogin_128_lm" width="128.000000" height="128.000000" fill="white" fill-opacity="0"/>
		</clipPath>
		<linearGradient x1="64.000000" y1="56.000004" x2="64.000000" y2="124.097015" id="paint_linear_14987_16186_0" gradientUnits="userSpaceOnUse">
			<stop stop-color="#CFD8E8"/>
			<stop offset="0.216533" stop-color="#CFD8E8" stop-opacity="0.000000"/>
			<stop offset="0.780540" stop-color="#CFD8E8" stop-opacity="0.000000"/>
			<stop offset="1.000000" stop-color="#EEF3FC"/>
		</linearGradient>
		<radialGradient gradientTransform="translate(63.9999 88.5001) rotate(90) scale(47.4999 48.4591)" cx="0.000000" cy="0.000000" r="1.000000" id="paint_radial_14987_16186_1" gradientUnits="userSpaceOnUse">
			<stop offset="0.212981" stop-color="#50BEB8"/>
			<stop offset="1.000000" stop-color="#D6DEED"/>
		</radialGradient>
		<linearGradient x1="28.500017" y1="-37.500008" x2="55.500023" y2="43.000000" id="paint_linear_14987_16186_2" gradientUnits="userSpaceOnUse">
			<stop stop-color="#8291B3"/>
			<stop offset="1.000000" stop-color="#8291B3" stop-opacity="0.000000"/>
		</linearGradient>
	</defs>
	<g clip-path="url(#clip14987_16285)">
		<path id="Union" d="M56.49 55L71.49 55C88.89 55 103 69.1 103 86.5C103 103.89 88.89 118 71.49 118L56.49 118C39.1 118 24.99 103.89 24.99 86.5C24.99 69.1 39.1 55 56.49 55Z" fill="#21A19A" fill-opacity="1.000000" fill-rule="evenodd"/>
		<path id="Union" d="M43 10L85 10C89.41 10 93 13.58 93 18L93 110C93 114.41 89.41 118 85 118L43 118C38.58 118 35 114.41 35 110L35 18C35 13.58 38.58 10 43 10Z" fill="#D6DEED" fill-opacity="1.000000" fill-rule="evenodd"/>
		<path id="Union" d="M43 10L85 10C89.41 10 93 13.58 93 18L93 110C93 114.41 89.41 118 85 118L43 118C38.58 118 35 114.41 35 110L35 18C35 13.58 38.58 10 43 10Z" fill="url(#paint_linear_14987_16186_0)" fill-opacity="1.000000" fill-rule="evenodd"/>
		<path id="Union" d="M43 10L85 10C89.41 10 93 13.58 93 18L93 110C93 114.41 89.41 118 85 118L43 118C38.58 118 35 114.41 35 110L35 18C35 13.58 38.58 10 43 10Z" fill="url(#paint_radial_14987_16186_1)" fill-opacity="1.000000" fill-rule="evenodd"/>
		<path id="Union" d="M43 10L85 10C89.41 10 93 13.58 93 18L93 110C93 114.41 89.41 118 85 118L43 118C38.58 118 35 114.41 35 110L35 18C35 13.58 38.58 10 43 10Z" fill="url(#paint_linear_14987_16186_2)" fill-opacity="1.000000" fill-rule="evenodd"/>
		<path id="Union" d="M64.57 91.23L79.53 73.28C80.25 72.41 80.14 71.18 79.27 70.46C78.41 69.74 77.18 69.85 76.46 70.71L62.86 87.03L56.41 80.58C55.62 79.79 54.37 79.79 53.58 80.58C52.79 81.37 52.79 82.62 53.58 83.41L61.54 91.37C61.58 91.41 61.61 91.44 61.65 91.48C62.06 91.85 62.57 92.02 63.07 92C63.59 91.98 64.09 91.76 64.47 91.34C64.51 91.31 64.54 91.27 64.57 91.23Z" fill="#FFFFFF" fill-opacity="1.000000" fill-rule="evenodd"/>
		<path id="Union" d="M55.5 16L72.5 16C73.32 16 74 16.67 74 17.5C74 18.32 73.32 19 72.5 19L55.5 19C54.67 19 54 18.32 54 17.5C54 16.67 54.67 16 55.5 16Z" fill="#FFFFFF" fill-opacity="0.650000" fill-rule="evenodd"/>
	</g>
</svg>
