<svg width="84.000000" height="84.000000" viewBox="0 0 84 84" fill="none" xmlns="http://www.w3.org/2000/svg" xmlns:xlink="http://www.w3.org/1999/xlink">
	<desc>
			Created with Pixso.
	</desc>
	<defs>
		<filter id="filter_13960_8614_dd" x="8.000000" y="17.000000" width="68.000000" height="54.000000" filterUnits="userSpaceOnUse" color-interpolation-filters="sRGB">
			<feFlood flood-opacity="0" result="BackgroundImageFix"/>
			<feGaussianBlur in="BackgroundImage" stdDeviation="6.66667"/>
			<feComposite in2="SourceAlpha" operator="in" result="effect_backgroundBlur_1"/>
			<feBlend mode="normal" in="SourceGraphic" in2="effect_backgroundBlur_1" result="shape"/>
			<feColorMatrix in="SourceAlpha" type="matrix" values="0 0 0 0 0 0 0 0 0 0 0 0 0 0 0 0 0 0 127 0" result="hardAlpha"/>
			<feOffset dx="0" dy="2"/>
			<feGaussianBlur stdDeviation="0.333333"/>
			<feComposite in2="hardAlpha" operator="arithmetic" k2="-1" k3="1"/>
			<feColorMatrix type="matrix" values="0 0 0 0 1 0 0 0 0 1 0 0 0 0 1 0 0 0 1 0"/>
			<feBlend mode="normal" in2="shape" result="effect_innerShadow_2"/>
		</filter>
		<clipPath id="clip13958_8639">
			<rect id="84/mc_mrk_nodocuments_84" width="84.000000" height="84.000000" fill="white" fill-opacity="0"/>
		</clipPath>
	</defs>
	<g clip-path="url(#clip13958_8639)">
		<rect id="Rectangle 240647149" x="16.486664" y="25.905762" rx="6.000000" width="46.000000" height="38.999996" transform="rotate(-15 16.486664 25.905762)" fill="#21A19A" fill-opacity="1.000000"/>
		<g filter="url(#filter_13960_8614_dd)">
			<path id="Rectangle 240647149" d="M14 17L26.84 17C29.04 17 31.07 18.2 32.12 20.13L34.33 24.2C34.68 24.84 35.35 25.25 36.09 25.25L70 25.25C73.31 25.25 76 27.93 76 31.25L76 65C76 68.31 73.31 71 70 71L14 71C10.68 71 8 68.31 8 65L8 23C8 19.68 10.68 17 14 17Z" fill="#95A3C1" fill-opacity="0.400000" fill-rule="evenodd"/>
		</g>
		<path id="Vector 1" d="M53 36.78C47.75 36.78 43.5 41.04 43.5 46.28C43.5 51.53 47.75 55.78 53 55.78C55.08 55.78 57 55.11 58.57 53.98L62.93 58.34C63.53 58.94 64.46 58.94 65.06 58.34C65.65 57.75 65.65 56.82 65.06 56.22L60.69 51.86C61.83 50.29 62.5 48.37 62.5 46.28C62.5 41.04 58.24 36.78 53 36.78ZM53 39.78C49.41 39.78 46.5 42.69 46.5 46.28C46.5 49.87 49.41 52.78 53 52.78C56.58 52.78 59.5 49.87 59.5 46.28C59.5 42.69 56.58 39.78 53 39.78Z" fill="#FFFFFF" fill-opacity="1.000000" fill-rule="evenodd"/>
	</g>
</svg>
