<svg width="96.000000" height="96.000000" viewBox="0 0 96 96" fill="none" xmlns="http://www.w3.org/2000/svg" xmlns:xlink="http://www.w3.org/1999/xlink">
	<desc>
			Created with Pixso.
	</desc>
	<defs>
		<filter id="filter_13958_8650_dd" x="15.000000" y="25.000000" width="68.000000" height="54.000000" filterUnits="userSpaceOnUse" color-interpolation-filters="sRGB">
			<feFlood flood-opacity="0" result="BackgroundImageFix"/>
			<feGaussianBlur in="BackgroundImage" stdDeviation="6.66667"/>
			<feComposite in2="SourceAlpha" operator="in" result="effect_backgroundBlur_1"/>
			<feBlend mode="normal" in="SourceGraphic" in2="effect_backgroundBlur_1" result="shape"/>
			<feColorMatrix in="SourceAlpha" type="matrix" values="0 0 0 0 0 0 0 0 0 0 0 0 0 0 0 0 0 0 127 0" result="hardAlpha"/>
			<feOffset dx="0" dy="2"/>
			<feGaussianBlur stdDeviation="0.333333"/>
			<feComposite in2="hardAlpha" operator="arithmetic" k2="-1" k3="1"/>
			<feColorMatrix type="matrix" values="0 0 0 0 1 0 0 0 0 1 0 0 0 0 1 0 0 0 1 0"/>
			<feBlend mode="normal" in2="shape" result="effect_innerShadow_2"/>
		</filter>
		<clipPath id="clip13958_8653">
			<rect id="96/mc_mrk_nodocuments_96" width="96.000000" height="96.000000" fill="white" fill-opacity="0"/>
		</clipPath>
	</defs>
	<g clip-path="url(#clip13958_8653)">
		<rect id="Rectangle 240647149" x="23.486694" y="33.617310" rx="6.000000" width="46.000000" height="38.999996" transform="rotate(-15 23.486694 33.617310)" fill="#21A19A" fill-opacity="1.000000"/>
		<g filter="url(#filter_13958_8650_dd)">
			<path id="Rectangle 240647149" d="M21 25L33.84 25C36.04 25 38.07 26.2 39.12 28.13L41.33 32.2C41.68 32.84 42.35 33.25 43.09 33.25L77 33.25C80.31 33.25 83 35.93 83 39.25L83 73C83 76.31 80.31 79 77 79L21 79C17.68 79 15 76.31 15 73L15 31C15 27.68 17.68 25 21 25Z" fill="#95A3C1" fill-opacity="0.400000" fill-rule="evenodd"/>
		</g>
		<path id="Vector 1" d="M60 44.5C54.75 44.5 50.5 48.75 50.5 54C50.5 59.24 54.75 63.5 60 63.5C62.08 63.5 64 62.83 65.57 61.69L69.93 66.06C70.53 66.65 71.46 66.65 72.06 66.06C72.65 65.46 72.65 64.53 72.06 63.93L67.69 59.57C68.83 58 69.5 56.08 69.5 54C69.5 48.75 65.24 44.5 60 44.5ZM60 47.5C56.41 47.5 53.5 50.41 53.5 54C53.5 57.58 56.41 60.5 60 60.5C63.58 60.5 66.5 57.58 66.5 54C66.5 50.41 63.58 47.5 60 47.5Z" fill="#FFFFFF" fill-opacity="1.000000" fill-rule="evenodd"/>
	</g>
</svg>
