<svg width="128" height="128" viewBox="0 0 128 128" fill="none" xmlns="http://www.w3.org/2000/svg">
<path d="M64.5 16.5C72.8758 16.5 79.5 23.5329 79.5 32H74.5C74.5 26.1077 69.9313 21.5 64.5 21.5C59.0687 21.5 54.5 26.1077 54.5 32H49.5C49.5 23.5329 56.1242 16.5 64.5 16.5Z" fill="#21A19A"/>
<path d="M33.0245 41.0152C33.5309 35.8987 37.8345 32 42.9759 32H85.0241C90.1655 32 94.4691 35.8988 94.9755 41.0152L100.913 101.015C101.495 106.899 96.8737 112 90.9616 112H37.0384C31.1263 112 26.5048 106.899 27.087 101.015L33.0245 41.0152Z" fill="url(#paint0_radial_403_639)"/>
<path d="M52 61.0006C53.1046 61.0006 54 61.896 54 63.0006V91.6129L76.7012 79.0875L73.0752 77.274L59.5117 85.2262C58.5589 85.7846 57.3331 85.4649 56.7744 84.5123C56.2159 83.5595 56.5356 82.3337 57.4883 81.775L71.9883 73.275C72.5719 72.9329 73.2894 72.909 73.8945 73.2115L81.8945 77.2115C82.5589 77.5438 82.9848 78.2169 83 78.9596C83.0149 79.7023 82.6163 80.3927 81.9658 80.7516L52.9658 96.7516C52.3465 97.0931 51.5925 97.0827 50.9834 96.7232C50.3742 96.3636 50.0001 95.7081 50 95.0006V63.0006C50 61.896 50.8954 61.0006 52 61.0006Z" fill="white"/>
<path fill-rule="evenodd" clip-rule="evenodd" d="M58.001 52.2672C58.6203 51.9102 59.3833 51.911 60.002 52.2691L79.002 63.2691C79.6194 63.6267 79.9999 64.2861 80 64.9996C80 65.7132 79.6194 66.3725 79.002 66.7301L60.002 77.7301C59.3832 78.0883 58.6204 78.0891 58.001 77.732C57.3818 77.3749 57 76.7144 57 75.9996V53.9996L57.0049 53.8658C57.0493 53.2032 57.4206 52.6018 58.001 52.2672ZM61 72.5309L74.0088 64.9996L61 57.4674V72.5309Z" fill="white"/>
<defs>
<radialGradient id="paint0_radial_403_639" cx="0" cy="0" r="1" gradientUnits="userSpaceOnUse" gradientTransform="translate(64 92) rotate(90) scale(57.0588 60.1825)">
<stop stop-color="#50BEB8"/>
<stop offset="0.861478" stop-color="#373C49"/>
</radialGradient>
</defs>
</svg>
