<svg width="96" height="96" viewBox="0 0 96 96" fill="none" xmlns="http://www.w3.org/2000/svg">
<circle cx="48" cy="48" r="36" fill="url(#paint0_radial_58_415)"/>
<path d="M47.9178 35.6387C58.2999 35.6389 66.7908 43.917 66.7908 54.1699C66.7906 58.1858 63.4846 61.4157 59.4559 61.416C55.4074 61.416 52.1202 58.0512 52.12 54.1699C52.12 51.9869 50.2794 50.1427 47.9383 50.1426C45.597 50.1426 43.7567 51.9868 43.7567 54.1699C43.7567 55.131 43.7966 57.4263 44.991 60.1396C46.1767 62.8326 48.5429 66.0344 53.3563 68.7393C54.0783 69.1452 54.3343 70.0601 53.9285 70.7822C53.5226 71.5039 52.6085 71.7601 51.8866 71.3545C46.5108 68.3336 43.6943 64.64 42.245 61.3477C40.805 58.0765 40.7567 55.2963 40.7567 54.1699C40.7567 50.2496 44.0217 47.1426 47.9383 47.1426C51.8548 47.1427 55.12 50.2497 55.12 54.1699C55.1202 56.3917 57.0616 58.416 59.4559 58.416C61.8695 58.4157 63.7906 56.4875 63.7908 54.1699C63.7908 45.6303 56.7001 38.6389 47.9178 38.6387C41.8818 38.6387 36.3654 42.0206 33.7088 47.2676L33.4608 47.7812C32.6187 49.6091 32.1776 51.7594 32.1776 54.1904C32.1776 57.5096 32.6341 60.4014 33.5076 62.8008C33.7909 63.5791 33.3895 64.4402 32.6112 64.7236C31.8328 65.007 30.9718 64.6055 30.6883 63.8271C29.6682 61.0251 29.1776 57.7714 29.1776 54.1904C29.1776 51.3992 29.6836 48.8092 30.7352 46.5264L31.0321 45.9121C34.2081 39.6381 40.7723 35.6387 47.9178 35.6387Z" fill="white"/>
<path d="M48.0106 41.291C55.0164 41.2913 60.7837 46.6922 61.0877 53.6104C61.1238 54.4377 60.4825 55.1384 59.6551 55.1748C58.8277 55.2111 58.1273 54.5695 58.0907 53.7422C57.8592 48.475 53.4581 44.2913 48.0106 44.291C42.5751 44.2911 37.9207 48.7737 37.9207 54.1904C37.9208 57.6366 38.7269 61.1222 40.0028 63.4678L40.0076 63.4766C41.3452 65.9733 42.1856 67.0483 43.994 68.9209C44.5693 69.5168 44.5527 70.4666 43.9569 71.042C43.3611 71.6167 42.4121 71.6002 41.8367 71.0049C39.8596 68.9575 38.8471 67.6621 37.367 64.9004C35.8025 62.0237 34.9208 58.0216 34.9207 54.1904C34.9207 47.0438 40.9922 41.2911 48.0106 41.291Z" fill="white"/>
<path d="M47.9481 52.6992C48.7765 52.6992 49.448 53.3708 49.4481 54.1992C49.4481 57.3088 50.9934 60.249 53.5799 62.0488L53.9198 62.2773C55.6193 63.3805 57.3002 63.8886 59.0848 63.8887C59.8059 63.8887 60.5576 63.8072 61.3104 63.6338C62.1176 63.4478 62.9231 63.9516 63.1092 64.7588C63.295 65.5659 62.7913 66.3706 61.9842 66.5566C61.0084 66.7815 60.0306 66.8887 59.0848 66.8887C56.5011 66.8886 54.1274 66.0823 51.868 64.5127C48.4857 62.1596 46.4481 58.3041 46.4481 54.1992C46.4481 53.371 47.1199 52.6995 47.9481 52.6992Z" fill="white"/>
<path d="M48.0311 30.1543C52.1837 30.1544 56.2244 31.1314 59.7254 32.9932C63.1597 34.8159 66.0231 37.4837 68.2352 40.6924C68.7049 41.3743 68.5331 42.3082 67.8514 42.7783C67.1694 43.2483 66.2347 43.0763 65.7645 42.3945C63.7979 39.542 61.2875 37.2175 58.3201 35.6426C55.2758 34.0234 51.7204 33.1544 48.0311 33.1543C44.3338 33.1543 40.7416 34.0055 37.6961 35.6396L37.6922 35.6416C34.7262 37.2209 32.2186 39.4967 30.2381 42.3906C29.7703 43.0739 28.8367 43.2488 28.1532 42.7812C27.4696 42.3135 27.294 41.3799 27.7616 40.6963C29.9999 37.4255 32.8641 34.8144 36.2772 32.9961C39.7983 31.1067 43.8856 30.1543 48.0311 30.1543Z" fill="white"/>
<path d="M48.0311 24.5C52.869 24.5 57.1032 25.6202 61.6737 28.0527C62.4047 28.442 62.682 29.3508 62.2928 30.082C61.9035 30.813 60.9947 31.0903 60.2635 30.7012C56.0857 28.4777 52.3326 27.5 48.0311 27.5C43.7158 27.5 39.5845 28.5681 35.8182 30.6846C35.096 31.0903 34.1811 30.8335 33.7752 30.1113C33.3697 29.3894 33.6258 28.4753 34.3475 28.0693C38.568 25.6976 43.2069 24.5 48.0311 24.5Z" fill="white"/>
<defs>
<radialGradient id="paint0_radial_58_415" cx="0" cy="0" r="1" gradientUnits="userSpaceOnUse" gradientTransform="translate(48 66) rotate(90) scale(51.3529 57.015)">
<stop stop-color="#50BEB8"/>
<stop offset="0.861478" stop-color="#373C49"/>
</radialGradient>
</defs>
</svg>
