<svg width="128" height="128" viewBox="0 0 128 128" fill="none" xmlns="http://www.w3.org/2000/svg">
<path d="M84.419 27.5532L36.1227 40.4941C32.9219 41.3518 31.0224 44.6418 31.8801 47.8426L42.2328 86.4796C43.0905 89.6804 46.3805 91.5799 49.5813 90.7223L97.8776 77.7813C101.078 76.9237 102.978 73.6337 102.12 70.4329L91.7675 31.7958C90.9098 28.595 87.6198 26.6955 84.419 27.5532Z" fill="#21A19A"/>
<path fill-rule="evenodd" clip-rule="evenodd" d="M26 30H43.6C46.51 30 49.2 31.58 50.61 34.13L53.82 39.96C54.17 40.6 54.84 41 55.57 41H102C106.41 41 110 44.58 110 49V94C110 98.41 106.41 102 102 102H26C21.58 102 18 98.41 18 94V38C18 33.58 21.58 30 26 30Z" fill="#43C4BD"/>
<path fill-rule="evenodd" clip-rule="evenodd" d="M26 30H43.6C46.51 30 49.2 31.58 50.61 34.13L53.82 39.96C54.17 40.6 54.84 41 55.57 41H102C106.41 41 110 44.58 110 49V94C110 98.41 106.41 102 102 102H26C21.58 102 18 98.41 18 94V38C18 33.58 21.58 30 26 30Z" fill="url(#paint0_linear_11_474)"/>
<path fill-rule="evenodd" clip-rule="evenodd" d="M26 30H43.6C46.51 30 49.2 31.58 50.61 34.13L53.82 39.96C54.17 40.6 54.84 41 55.57 41H102C106.41 41 110 44.58 110 49V94C110 98.41 106.41 102 102 102H26C21.58 102 18 98.41 18 94V38C18 33.58 21.58 30 26 30Z" fill="url(#paint1_linear_11_474)"/>
<path fill-rule="evenodd" clip-rule="evenodd" d="M26 30H43.6C46.51 30 49.2 31.58 50.61 34.13L53.82 39.96C54.17 40.6 54.84 41 55.57 41H102C106.41 41 110 44.58 110 49V94C110 98.41 106.41 102 102 102H26C21.58 102 18 98.41 18 94V38C18 33.58 21.58 30 26 30Z" fill="url(#paint2_linear_11_474)"/>
<path fill-rule="evenodd" clip-rule="evenodd" d="M26 30H43.6C46.51 30 49.2 31.58 50.61 34.13L53.82 39.96C54.17 40.6 54.84 41 55.57 41H102C106.41 41 110 44.58 110 49V94C110 98.41 106.41 102 102 102H26C21.58 102 18 98.41 18 94V38C18 33.58 21.58 30 26 30Z" fill="url(#paint3_linear_11_474)"/>
<path fill-rule="evenodd" clip-rule="evenodd" d="M69 73.93C69 66.79 74.81 61 81.99 61C89.17 61 94.99 66.79 94.99 73.93C94.99 76.82 94.04 79.49 92.43 81.65L99.4 88.59C100.19 89.38 100.19 90.62 99.4 91.4C98.61 92.19 97.37 92.19 96.57 91.4L89.58 84.44C87.44 85.97 84.82 86.87 81.99 86.87C74.81 86.87 69 81.08 69 73.93ZM72.99 73.93C72.99 68.99 77.02 64.98 81.99 64.98C86.96 64.98 90.99 68.99 90.99 73.93C90.99 78.88 86.96 82.89 81.99 82.89C77.02 82.89 72.99 78.88 72.99 73.93Z" fill="white"/>
<defs>
<linearGradient id="paint0_linear_11_474" x1="1.31868" y1="70.8623" x2="102.418" y2="42.8623" gradientUnits="userSpaceOnUse">
<stop stop-color="#373C49"/>
<stop offset="0.376001" stop-color="#373C49" stop-opacity="0.54902"/>
<stop offset="1" stop-color="#373C49" stop-opacity="0"/>
</linearGradient>
<linearGradient id="paint1_linear_11_474" x1="36.7033" y1="33.3623" x2="57.4286" y2="80.8623" gradientUnits="userSpaceOnUse">
<stop stop-color="#373C49" stop-opacity="0.901961"/>
<stop offset="0.99117" stop-color="#373C49" stop-opacity="0"/>
</linearGradient>
<linearGradient id="paint2_linear_11_474" x1="104.44" y1="96.8623" x2="84.2198" y2="36.8623" gradientUnits="userSpaceOnUse">
<stop stop-color="#373C49"/>
<stop offset="0.492635" stop-color="#373C49" stop-opacity="0"/>
<stop offset="1" stop-color="#373C49" stop-opacity="0"/>
</linearGradient>
<linearGradient id="paint3_linear_11_474" x1="102.418" y1="49.3623" x2="57.9341" y2="70.3623" gradientUnits="userSpaceOnUse">
<stop stop-color="#373C49" stop-opacity="0.901961"/>
<stop offset="0.989045" stop-color="#373C49" stop-opacity="0"/>
</linearGradient>
</defs>
</svg>
