<svg width="20.000000" height="20.000000" viewBox="0 0 20 20" fill="none" xmlns="http://www.w3.org/2000/svg" xmlns:xlink="http://www.w3.org/1999/xlink">
	<desc>
			Created with Pixso.
	</desc>
	<defs/>
	<path id="Union" d="M19.6 6.95C19.03 5.17 17.96 3.55 16.52 2.36C15.78 1.79 14.83 1.55 13.92 1.51L13.39 1.51C10.92 1.64 8.58 2.8 6.62 4.27C7.42 5.15 8.19 6.14 8.93 7.09C10.52 5.96 12.21 4.92 13.99 4.1C14.56 5.19 12.72 6.98 11.96 7.61C10.23 9.01 8.27 10.38 5.99 10.56C5.57 10.59 5.15 10.54 4.76 10.44C3.7 10.17 2.88 9.29 2.54 8.28C2.38 7.76 2.38 7.2 2.48 6.67C2.66 5.71 3.15 4.78 3.82 3.96C5.36 1.95 8.1 0.61 11.23 0.61C13.61 0.61 14.25 0.98 14.51 1.13C14.6 1.18 14.65 1.21 14.7 1.19C13.38 0.51 11.92 0.06 10.43 0C10.35 0 10.27 0 10.19 0C9.95 -0.01 9.7 -0.01 9.47 0.01C4.16 0.28 -0.18 4.83 0 10.14C0 10.19 0 10.27 0.01 10.32L0.01 10.43C0.01 10.51 0.02 10.6 0.02 10.68C0.02 10.7 0.03 10.78 0.04 10.8C0.19 13.46 1.65 15.76 4.44 16.18C5.1 16.26 5.77 16.26 6.43 16.22C9.99 15.97 13.72 14.1 15.96 11.34C16.98 10.07 17.72 8.52 17.82 6.89C17.83 6.78 17.82 6.67 17.83 6.56C18.96 7.81 19.75 9.45 19.91 11.12C20.08 9.72 20.02 8.31 19.6 6.95ZM2.27 16.54C4.18 17.88 6.55 18.67 9.11 18.67C13.72 18.67 17.71 16.1 19.62 12.37C18.55 16.74 14.59 20 9.86 20C6.82 20 4.1 18.66 2.27 16.54Z" fill="#1F1F22" fill-opacity="1.000000" fill-rule="evenodd"/>
</svg>
