<svg width="32" height="32" viewBox="0 0 32 32" fill="none" xmlns="http://www.w3.org/2000/svg">
<path fill-rule="evenodd" clip-rule="evenodd" d="M27.43 12.34C26.76 10.2 25.48 8.26998 23.75 6.82998C22.87 6.14998 21.74 5.86998 20.65 5.81998H20.03C17.05 5.95998 14.27 7.35998 11.92 9.11998C12.88 10.18 13.8 11.37 14.68 12.51C16.57 11.15 18.61 9.89998 20.73 8.91998C21.41 10.23 19.22 12.37 18.3 13.14C16.24 14.81 13.89 16.45 11.16 16.67C10.67 16.71 10.16 16.65 9.68002 16.53C8.43002 16.21 7.44002 15.14 7.04002 13.93C6.84002 13.31 6.84002 12.64 6.96002 12C7.19002 10.85 7.77002 9.73998 8.58002 8.75998C10.41 6.33998 13.68 4.72998 17.43 4.72998C20.27 4.72998 21.04 5.16998 21.36 5.35998C21.46 5.40998 21.52 5.44998 21.58 5.42998C20 4.60998 18.26 4.06998 16.48 3.99998C16.39 3.99998 16.29 3.99998 16.19 3.99998C15.9 3.98998 15.61 3.98998 15.33 4.00998C8.98002 4.33998 3.78002 9.78998 4.00002 16.17C4.00002 16.23 4.00002 16.33 4.01002 16.39V16.51C4.01002 16.61 4.02002 16.72 4.03002 16.82C4.03002 16.84 4.04002 16.93 4.05002 16.96C4.23002 20.15 5.97002 22.92 9.31002 23.41C10.1 23.52 10.9 23.51 11.69 23.47C15.95 23.16 20.4 20.92 23.1 17.61C24.3 16.08 25.2 14.23 25.31 12.27C25.32 12.14 25.32 12 25.32 11.88C26.68 13.37 27.62 15.34 27.81 17.35C28.02 15.66 27.95 13.97 27.43 12.34ZM6.71002 23.85C9.01002 25.46 11.84 26.41 14.89 26.41C20.41 26.41 25.18 23.32 27.47 18.84C26.19 24.09 21.45 28 15.79 28C12.17 28 8.91002 26.39 6.71002 23.85Z" fill="#1F1F22"/>
</svg>
