<svg width="24" height="24" viewBox="0 0 24 24" fill="none" xmlns="http://www.w3.org/2000/svg">
<path fill-rule="evenodd" clip-rule="evenodd" d="M21.6 8.94998C21.03 7.16998 19.96 5.54998 18.52 4.35998C17.78 3.78998 16.83 3.54998 15.92 3.50998H15.39C12.92 3.63998 10.58 4.79998 8.61997 6.26998C9.41997 7.14998 10.19 8.13998 10.93 9.08998C12.52 7.95998 14.21 6.91998 15.99 6.09998C16.56 7.18998 14.72 8.97998 13.96 9.60998C12.23 11.01 10.27 12.38 7.98997 12.56C7.56997 12.59 7.14997 12.54 6.75997 12.44C5.69997 12.17 4.87997 11.29 4.53997 10.28C4.37997 9.75998 4.37997 9.19998 4.47997 8.66998C4.65997 7.70998 5.14997 6.77998 5.81997 5.95998C7.35997 3.94998 10.1 2.60998 13.23 2.60998C15.61 2.60998 16.25 2.97998 16.51 3.12998C16.6 3.17998 16.65 3.20998 16.7 3.18998C15.38 2.50998 13.92 2.05998 12.43 1.99998C12.35 1.99998 12.27 1.99998 12.19 1.99998C11.95 1.98998 11.7 1.98998 11.47 2.00998C6.15997 2.27998 1.81997 6.82998 1.99997 12.14C1.99997 12.19 1.99997 12.27 2.00997 12.32V12.43C2.00997 12.51 2.01997 12.6 2.01997 12.68C2.01997 12.7 2.02997 12.78 2.03997 12.8C2.18997 15.46 3.64997 17.76 6.43997 18.18C7.09997 18.26 7.76997 18.26 8.42997 18.22C11.99 17.97 15.72 16.1 17.96 13.34C18.98 12.07 19.72 10.52 19.82 8.88998C19.83 8.77998 19.82 8.66998 19.83 8.55998C20.96 9.80998 21.75 11.45 21.91 13.12C22.08 11.72 22.02 10.31 21.6 8.94998ZM4.26997 18.54C6.17997 19.88 8.54997 20.67 11.11 20.67C15.72 20.67 19.71 18.1 21.62 14.37C20.55 18.74 16.59 22 11.86 22C8.81997 22 6.09997 20.66 4.26997 18.54Z" fill="#1F1F22"/>
</svg>
