<svg width="32.000000" height="32.000000" viewBox="0 0 32 32" fill="none" xmlns="http://www.w3.org/2000/svg" xmlns:xlink="http://www.w3.org/1999/xlink">
	<desc>
			Created with Pixso.
	</desc>
	<defs/>
	<path id="Union" d="M27.43 12.34C26.76 10.2 25.48 8.27 23.75 6.83C22.87 6.15 21.74 5.87 20.65 5.82L20.03 5.82C17.05 5.96 14.27 7.36 11.92 9.12C12.88 10.18 13.8 11.37 14.68 12.51C16.57 11.15 18.61 9.9 20.73 8.92C21.41 10.23 19.22 12.37 18.3 13.14C16.24 14.81 13.89 16.45 11.16 16.67C10.67 16.71 10.16 16.65 9.68 16.53C8.43 16.21 7.44 15.14 7.04 13.93C6.84 13.31 6.84 12.64 6.96 12C7.19 10.85 7.77 9.74 8.58 8.76C10.41 6.34 13.68 4.73 17.43 4.73C20.27 4.73 21.04 5.17 21.36 5.36C21.46 5.41 21.52 5.45 21.58 5.43C20 4.61 18.26 4.07 16.48 4C16.39 4 16.29 4 16.19 4C15.9 3.99 15.61 3.99 15.33 4.01C8.98 4.34 3.78 9.79 4 16.17C4 16.23 4 16.33 4.01 16.39L4.01 16.51C4.01 16.61 4.02 16.72 4.03 16.82C4.03 16.84 4.04 16.93 4.05 16.96C4.23 20.15 5.97 22.92 9.31 23.41C10.1 23.52 10.9 23.51 11.69 23.47C15.95 23.16 20.4 20.92 23.1 17.61C24.3 16.08 25.2 14.23 25.31 12.27C25.32 12.14 25.32 12 25.32 11.88C26.68 13.37 27.62 15.34 27.81 17.35C28.02 15.66 27.95 13.97 27.43 12.34ZM6.71 23.85C9.01 25.46 11.84 26.41 14.89 26.41C20.41 26.41 25.18 23.32 27.47 18.84C26.19 24.09 21.45 28 15.79 28C12.17 28 8.91 26.39 6.71 23.85Z" fill="#1F1F22" fill-opacity="1.000000" fill-rule="evenodd"/>
</svg>
