<svg width="20" height="20" viewBox="0 0 20 20" fill="none" xmlns="http://www.w3.org/2000/svg">
<path fill-rule="evenodd" clip-rule="evenodd" d="M19.6054 6.95657C19.0354 5.17657 17.9654 3.55657 16.5254 2.36657C15.7854 1.79657 14.8354 1.55657 13.9254 1.51657H13.3954C10.9254 1.64657 8.5854 2.80657 6.6254 4.27657C7.4254 5.15657 8.19541 6.14657 8.9354 7.09657C10.5254 5.96657 12.2154 4.92657 13.9954 4.10657C14.5654 5.19657 12.7254 6.98657 11.9654 7.61657C10.2354 9.01657 8.2754 10.3866 5.9954 10.5666C5.5754 10.5966 5.1554 10.5466 4.7654 10.4466C3.7054 10.1766 2.8854 9.29657 2.5454 8.28657C2.3854 7.76657 2.3854 7.20657 2.4854 6.67657C2.6654 5.71657 3.1554 4.78657 3.8254 3.96657C5.3654 1.95657 8.1054 0.616569 11.2354 0.616569C13.6154 0.616569 14.2554 0.986569 14.5154 1.13657C14.6054 1.18657 14.6554 1.21657 14.7054 1.19657C13.3854 0.516569 11.9254 0.0665685 10.4354 0.00656854C10.3554 0.00656854 10.2754 0.00656854 10.1954 0.00656854C9.9554 -0.00343146 9.7054 -0.00343146 9.4754 0.0165685C4.1654 0.286569 -0.174596 4.83657 0.00540446 10.1466C0.00540446 10.1966 0.00540446 10.2766 0.0154045 10.3266V10.4366C0.0154045 10.5166 0.0254045 10.6066 0.0254045 10.6866C0.0254045 10.7066 0.0354045 10.7866 0.0454045 10.8066C0.195404 13.4666 1.6554 15.7666 4.4454 16.1866C5.1054 16.2666 5.7754 16.2666 6.4354 16.2266C9.9954 15.9766 13.7254 14.1066 15.9654 11.3466C16.9854 10.0766 17.7254 8.52657 17.8254 6.89657C17.8354 6.78657 17.8254 6.67657 17.8354 6.56657C18.9654 7.81657 19.7554 9.45657 19.9154 11.1266C20.0854 9.72657 20.0254 8.31657 19.6054 6.95657ZM2.2754 16.5466C4.1854 17.8866 6.5554 18.6766 9.1154 18.6766C13.7254 18.6766 17.7154 16.1066 19.6254 12.3766C18.5554 16.7466 14.5954 20.0066 9.8654 20.0066C6.8254 20.0066 4.1054 18.6666 2.2754 16.5466Z" fill="#1F1F22"/>
</svg>
